<?xml version="1.0" encoding="utf-8" standalone="no"?>
<!DOCTYPE svg PUBLIC "-//W3C//DTD SVG 1.1//EN"
  "http://www.w3.org/Graphics/SVG/1.1/DTD/svg11.dtd">
<svg xmlns:xlink="http://www.w3.org/1999/xlink" width="553.930478pt" height="432pt" viewBox="0 0 553.930478 432" xmlns="http://www.w3.org/2000/svg" version="1.1">
 <metadata>
  <rdf:RDF xmlns:dc="http://purl.org/dc/elements/1.1/" xmlns:cc="http://creativecommons.org/ns#" xmlns:rdf="http://www.w3.org/1999/02/22-rdf-syntax-ns#">
   <cc:Work>
    <dc:type rdf:resource="http://purl.org/dc/dcmitype/StillImage"/>
    <dc:date>2026-06-09T04:57:07.362892</dc:date>
    <dc:format>image/svg+xml</dc:format>
    <dc:creator>
     <cc:Agent>
      <dc:title>Matplotlib v3.10.8, https://matplotlib.org/</dc:title>
     </cc:Agent>
    </dc:creator>
   </cc:Work>
  </rdf:RDF>
 </metadata>
 <defs>
  <style type="text/css">*{stroke-linejoin: round; stroke-linecap: butt}</style>
 </defs>
 <g id="figure_1">
  <g id="patch_1">
   <path d="M 0 432 
L 553.930478 432 
L 553.930478 0 
L 0 0 
z
" style="fill: #eaf3ff"/>
  </g>
  <g id="axes_1">
   <g id="PatchCollection_1">
    <path d="M 317.148753 -34.802652 
L 326.552957 -47.150195 
L 321.794447 -50.473238 
L 334.793633 -68.373218 
L 351.547765 -58.924814 
L 353.576783 -70.824036 
L 387.207968 -88.543847 
L 412.657411 -88.965647 
L 467.858479 -71.094184 
L 485.14502 -77.966832 
L 510.973495 -78.294139 
L 531.810443 -69.851623 
L 536.543696 -74.686327 
L 559.42782 -73.983748 
L 563.510272 -81.699489 
L 537.109464 -92.904552 
L 552.745531 -100.840875 
L 549.694427 -105.279457 
L 565.334704 -109.515558 
L 553.573135 -120.675579 
L 561.043597 -126.235356 
L 622.007451 -131.904636 
L 629.963464 -135.929139 
L 670.729984 -141.943224 
L 685.377642 -148.702127 
L 714.65612 -145.190915 
L 719.785915 -128.305023 
L 736.795148 -132.270027 
L 757.720133 -126.713802 
L 756.370542 -117.821483 
L 771.996941 -118.750778 
L 812.829442 -134.12519 
L 806.867834 -129.017284 
L 827.652219 -116.430216 
L 864.059201 -75.053823 
L 872.741041 -83.584118 
L 895.184001 -74.197595 
L 918.596007 -78.384444 
L 927.59104 -75.452892 
L 935.431805 -66.038585 
L 946.822931 -62.876347 
L 953.758637 -55.961269 
L 974.74424 -58.141411 
L 983.389036 -48.175649 
L 970.98761 -37.3284 
L 957.456333 -35.806216 
L 956.678402 -19.468832 
L 947.616858 -12.104591 
L 915.296537 -17.465913 
L 903.540861 11.703115 
L 895.201681 15.33009 
L 862.927666 21.838945 
L 877.592162 50.1408 
L 866.414883 54.381531 
L 867.715643 63.66913 
L 857.674109 61.279351 
L 849.504154 55.423824 
L 798.317333 53.274412 
L 792.396978 55.068535 
L 769.195451 48.218705 
L 759.948686 51.592263 
L 757.414518 61.210735 
L 730.612116 55.5981 
L 719.886103 57.896953 
L 716.237238 65.035139 
L 706.896178 68.046673 
L 685.407951 79.403281 
L 678.279446 91.061295 
L 672.209231 91.16485 
L 667.744549 83.447846 
L 647.024149 82.919123 
L 643.710367 69.572646 
L 635.771939 69.458567 
L 636.987666 53.117394 
L 617.482994 41.21733 
L 589.541479 42.488202 
L 570.439242 44.860301 
L 554.880631 30.175599 
L 513.251242 10.934867 
L 471.312029 20.5626 
L 471.951885 80.635004 
L 463.595025 81.429773 
L 452.192112 68.654958 
L 441.179848 64.09093 
L 422.686317 67.480906 
L 415.487933 72.901583 
L 414.573612 68.929001 
L 418.577765 62.139368 
L 415.471095 56.463169 
L 396.588598 50.912837 
L 389.23867 36.281596 
L 380.242795 32.159995 
L 379.697233 26.851714 
L 395.547148 28.399156 
L 396.172691 16.487304 
L 410.028948 13.841583 
L 424.259858 16.27472 
L 427.192252 0.380184 
L 424.290167 -9.694185 
L 407.98646 -8.906151 
L 394.136938 -12.882522 
L 375.272964 -5.718657 
L 360.07371 -2.302861 
L 351.798803 -4.937452 
L 353.45218 -13.32116 
L 343.066252 -24.206575 
L 330.977371 -23.751701 
z
" clip-path="url(#p7f12191e95)" style="fill: #e8edf4; stroke: #b8c5d4; stroke-width: 0.45"/>
    <path d="M 471.312029 20.5626 
L 513.251242 10.934867 
L 554.880631 30.175599 
L 570.439242 44.860301 
L 589.541479 42.488202 
L 617.482994 41.21733 
L 636.987666 53.117394 
L 635.771939 69.458567 
L 643.710367 69.572646 
L 647.024149 82.919123 
L 667.744549 83.447846 
L 672.209231 91.16485 
L 678.279446 91.061295 
L 685.407951 79.403281 
L 706.896178 68.046673 
L 716.237238 65.035139 
L 721.074889 66.638989 
L 707.40217 77.191567 
L 719.423049 83.324085 
L 731.02718 79.26226 
L 750.338212 87.846017 
L 729.475529 99.579382 
L 717.082522 97.974269 
L 710.357296 98.395227 
L 708.023504 93.866559 
L 711.419794 86.311624 
L 689.635212 90.097722 
L 684.456586 100.551795 
L 676.714324 109.55651 
L 663.110642 108.790366 
L 658.887591 115.964334 
L 670.842801 119.851461 
L 674.36201 131.981369 
L 665.20533 148.469456 
L 652.917563 145.029386 
L 643.840022 144.9212 
L 644.288764 134.95207 
L 622.617841 127.978899 
L 605.579982 120.00048 
L 576.320027 101.077572 
L 568.31172 84.280922 
L 562.845158 81.323692 
L 545.229745 82.073839 
L 538.996198 78.736904 
L 537.254273 65.736876 
L 515.30215 57.12702 
L 501.57639 66.592684 
L 487.657832 72.205739 
L 490.332599 80.412318 
L 471.951885 80.635004 
z
" clip-path="url(#p7f12191e95)" style="fill: #e8edf4; stroke: #b8c5d4; stroke-width: 0.45"/>
    <path d="M -82.489861 548.550859 
L -80.847945 542.567107 
L -76.628461 535.775593 
L -78.47419 529.028068 
L -73.118497 524.031289 
L -76.515557 520.22481 
L -72.207282 510.164943 
L -64.767669 498.166972 
L -50.719015 499.305462 
L -51.32003 427.796947 
L -32.584146 427.74742 
L -32.584146 395.212802 
L 160.741338 395.212802 
L 165.995369 411.197769 
L 162.422354 414.153314 
L 164.78943 430.925677 
L 170.770087 450.376294 
L 185.894017 460.408669 
L 177.648763 469.707653 
L 165.649162 472.38607 
L 160.518137 477.381057 
L 158.911087 488.210235 
L 151.89458 512.149318 
L 153.626264 518.672338 
L 151.0311 532.663644 
L 144.406906 548.712151 
L 134.580505 556.783569 
L 127.593487 569.229084 
L 125.956459 575.88912 
L 118.238904 580.452204 
L 113.41922 597.502021 
L 113.636883 612.148921 
L 113.448103 599.44558 
L 111.192802 599.123395 
L 111.472495 591.012324 
L 109.51465 585.418483 
L 101.123888 578.985565 
L 99.166043 567.238498 
L 101.123888 555.211738 
L 93.572202 554.09297 
L 92.453433 557.728967 
L 82.664211 558.568043 
L 86.5799 563.322809 
L 87.97836 573.112031 
L 79.028214 582.062178 
L 70.917143 593.809245 
L 62.526381 595.487398 
L 48.821469 585.977867 
L 42.668243 589.334172 
L 40.990091 594.088937 
L 32.599329 597.16555 
L 32.039944 600.521855 
L 15.817804 600.521855 
L 13.580267 597.16555 
L 1.8332 596.606166 
L -4.040334 599.403087 
L -8.515407 598.004626 
L -19.70309 584.020022 
L -31.450157 586.257559 
L -35.92523 593.809245 
L -40.120612 608.353233 
L -50.717556 613.20514 
L -39.632601 619.567876 
L -52.03992 612.446106 
L -57.69002 607.754528 
L -58.736522 602.691244 
L -56.089537 595.911293 
L -56.137527 589.263523 
L -65.534153 579.0776 
L -67.184924 568.159509 
L -73.17275 563.357421 
L -73.353103 553.893682 
L -76.768085 547.608037 
z
" clip-path="url(#p7f12191e95)" style="fill: #e8edf4; stroke: #b8c5d4; stroke-width: 0.45"/>
    <path d="M 4.695129 -182.740799 
L 11.676298 -187.911427 
L 6.845114 -203.106569 
L 18.437727 -212.494959 
L 15.984479 -215.338658 
L 34.501723 -224.342961 
L 17.432518 -232.089352 
L 67.449036 -262.29767 
L 73.576503 -270.606541 
L 49.460655 -281.768666 
L 56.121054 -292.38523 
L 41.454032 -304.510086 
L 52.422188 -318.477417 
L 33.473508 -337.022785 
L 48.508448 -349.307184 
L 23.557419 -360.162852 
L 25.935832 -371.569974 
L 39.093643 -373.071176 
L 66.815094 -379.607393 
L 83.622648 -385.274427 
L 110.386451 -375.42538 
L 155.00213 -371.547867 
L 216.559772 -353.121207 
L 229.064427 -345.378073 
L 230.141007 -334.534884 
L 212.054851 -325.975029 
L 185.451851 -321.630748 
L 112.720128 -334.014027 
L 100.757347 -331.94363 
L 127.318802 -320.011642 
L 129.422761 -295.805206 
L 163.128127 -286.607679 
L 165.233714 -294.507379 
L 155.419517 -301.508897 
L 165.788785 -307.679683 
L 205.173405 -297.539008 
L 218.893774 -301.508897 
L 207.929209 -313.44056 
L 245.897722 -329.397179 
L 260.934491 -328.457941 
L 276.146562 -322.763862 
L 285.636858 -333.960752 
L 272.051387 -343.672619 
L 280.027334 -353.416256 
L 268.050543 -363.521903 
L 313.622403 -358.295569 
L 322.930716 -349.17152 
L 302.302182 -347.160263 
L 302.413783 -338.094213 
L 315.237762 -332.516133 
L 340.409178 -336.049558 
L 344.394219 -346.441131 
L 435.282317 -368.191048 
L 447.571102 -367.38899 
L 431.50891 -357.502308 
L 451.718575 -355.803208 
L 463.390216 -361.369232 
L 493.927099 -361.819219 
L 518.120502 -368.572935 
L 536.684016 -358.758916 
L 555.198653 -369.548341 
L 538.127167 -378.986502 
L 546.599045 -384.362886 
L 594.725829 -379.432742 
L 617.275931 -374.340573 
L 676.319136 -355.726798 
L 687.210713 -364.25244 
L 670.654057 -372.866547 
L 670.178002 -376.322585 
L 650.543774 -377.921163 
L 655.914944 -385.645561 
L 647.201292 -398.355984 
L 646.708294 -403.570751 
L 676.773685 -418.323712 
L 687.466173 -433.130925 
L 699.58161 -436.334598 
L 742.715524 -432.038216 
L 746.112259 -422.976076 
L 730.668677 -409.761902 
L 740.802346 -404.568152 
L 746.044646 -393.179178 
L 742.343413 -370.854314 
L 760.316339 -360.868087 
L 753.32427 -349.993129 
L 721.412987 -326.851868 
L 740.03499 -324.451557 
L 746.515324 -330.316704 
L 764.440189 -334.500345 
L 768.76606 -342.562151 
L 782.866686 -350.320111 
L 773.372644 -359.58248 
L 780.974199 -370.338344 
L 763.159143 -371.678855 
L 759.241063 -380.740018 
L 772.240996 -397.099214 
L 751.082481 -410.384096 
L 780.24073 -421.365279 
L 776.468138 -432.950246 
L 784.593809 -433.320076 
L 793.155293 -424.287588 
L 786.727582 -408.565738 
L 804.162218 -405.589339 
L 796.733358 -417.338204 
L 823.998468 -423.743596 
L 857.810547 -424.606098 
L 887.917972 -415.317824 
L 873.429595 -428.886677 
L 871.806578 -446.243437 
L 900.137027 -449.531177 
L 939.323698 -448.81286 
L 974.629272 -450.946633 
L 961.388052 -459.463965 
L 980.242217 -470.163947 
L 998.960016 -470.611979 
L 1030.636531 -478.693988 
L 1073.657052 -480.86621 
L 1079.092577 -485.32812 
L 1121.872139 -486.840024 
L 1135.202476 -483.182128 
L 1171.767264 -491.839898 
L 1201.69792 -491.569287 
L 1206.188829 -498.601109 
L 1221.756231 -505.53583 
L 1260.217905 -512.22177 
L 1288.159462 -506.94265 
L 1265.975523 -502.926817 
L 1302.879186 -500.430708 
L 1307.275928 -492.379329 
L 1322.163624 -496.344005 
L 1369.792848 -496.126506 
L 1406.519253 -488.179884 
L 1419.596248 -482.076874 
L 1415.543106 -473.60744 
L 1354.706225 -459.741908 
L 1342.466806 -454.907561 
L 1386.768047 -448.516833 
L 1401.436615 -451.59913 
L 1409.746224 -441.141574 
L 1416.902191 -445.374744 
L 1442.953379 -447.948402 
L 1495.226657 -445.258092 
L 1499.196547 -437.637964 
L 1567.308164 -435.214029 
L 1568.238604 -447.658078 
L 1602.81413 -444.806476 
L 1628.823447 -444.89592 
L 1655.132212 -436.313581 
L 1662.631616 -425.886818 
L 1652.993715 -419.065001 
L 1673.456395 -406.243791 
L 1699.077146 -399.628395 
L 1714.797693 -416.72383 
L 1740.932785 -409.394352 
L 1768.698876 -413.77415 
L 1800.234138 -408.762383 
L 1812.233901 -413.33068 
L 1838.883497 -411.046531 
L 1827.121923 -426.17144 
L 1848.631696 -433.229492 
L 1995.778928 -422.649257 
L 2009.646415 -412.978771 
L 2052.2945 -400.528206 
L 2118.081564 -403.610504 
L 2150.517615 -400.927362 
L 2164.081092 -394.190916 
L 2162.099161 -382.277175 
L 2182.168877 -377.638821 
L 2203.976468 -380.974786 
L 2232.868993 -381.401476 
L 2263.626635 -378.204319 
L 2294.505 -380.007852 
L 2322.88514 -365.525991 
L 2343.075091 -370.736685 
L 2329.900017 -381.149437 
L 2337.154063 -388.387517 
L 2389.13327 -383.832253 
L 2423.022736 -384.806845 
L 2469.878249 -377.031453 
L 2492.687151 -369.922185 
L 2492.687151 -305.015745 
L 2471.624759 -297.769378 
L 2450.511536 -298.963261 
L 2465.202424 -290.291316 
L 2474.900281 -276.8673 
L 2482.428685 -272.47903 
L 2484.318891 -265.739326 
L 2480.113744 -261.424533 
L 2449.746135 -264.972946 
L 2404.209628 -252.709089 
L 2389.723369 -250.81041 
L 2341.146435 -229.363037 
L 2335.156655 -221.959756 
L 2311.852637 -233.230286 
L 2269.403967 -220.441009 
L 2261.991399 -226.4927 
L 2246.297897 -219.513176 
L 2224.508064 -221.746982 
L 2219.259084 -211.031685 
L 2199.712181 -195.265358 
L 2200.29283 -188.680753 
L 2218.848524 -185.029863 
L 2216.665875 -161.312026 
L 2201.540966 -160.708405 
L 2194.566004 -147.079923 
L 2201.343995 -140.065534 
L 2172.853721 -131.74338 
L 2167.19972 -113.141743 
L 2142.911661 -109.168269 
L 2138.027949 -92.615686 
L 2114.544718 -77.437339 
L 2108.520073 -88.661763 
L 2092.450549 -148.633372 
L 2100.283126 -171.228685 
L 2114.029237 -180.951468 
L 2114.879683 -188.565406 
L 2140.197239 -192.210105 
L 2169.299931 -212.722151 
L 2197.345106 -229.474149 
L 2226.63255 -242.473594 
L 2239.729096 -265.440692 
L 2219.93211 -264.066618 
L 2210.148557 -250.645698 
L 2168.824855 -232.752603 
L 2155.47904 -252.787453 
L 2113.418773 -247.255643 
L 2072.645906 -219.946219 
L 2086.098107 -209.955431 
L 2024.54633 -204.024139 
L 2025.726202 -215.804448 
L 2000.401152 -218.277096 
L 1980.216903 -210.273615 
L 1930.402424 -213.07406 
L 1876.811279 -208.245252 
L 1761.599768 -138.020064 
L 1787.268255 -135.966611 
L 1795.27923 -125.764026 
L 1811.103395 -122.142136 
L 1821.529181 -130.280678 
L 1839.39963 -129.223811 
L 1862.922124 -111.300739 
L 1863.474752 -97.439443 
L 1850.737446 -81.162033 
L 1849.363373 -61.707017 
L 1842.013204 -35.658925 
L 1817.457629 -12.083318 
L 1811.999621 -0.814091 
L 1757.415964 46.591605 
L 1735.706451 56.150816 
L 1725.43267 56.362287 
L 1715.19799 48.443199 
L 1693.330769 60.366064 
L 1690.791324 65.787088 
L 1688.510434 62.935975 
L 1688.410505 54.659364 
L 1696.732846 54.219884 
L 1699.076741 34.970312 
L 1694.785977 21.017123 
L 1708.76888 15.262737 
L 1728.542012 18.147601 
L 1739.498822 2.298069 
L 1745.082213 -15.55076 
L 1751.411032 -21.51317 
L 1759.97254 -36.172449 
L 1733.046376 -31.369738 
L 1718.922683 -24.942814 
L 1694.168019 -24.961876 
L 1687.570272 -40.269214 
L 1668.272711 -51.851455 
L 1639.917697 -57.05954 
L 1633.890537 -73.01807 
L 1612.041128 -106.465717 
L 1597.734446 -112.465212 
L 1573.349428 -117.316261 
L 1551.750667 -116.875169 
L 1531.505108 -113.937302 
L 1518.04792 -105.831754 
L 1526.987386 -101.959781 
L 1527.189586 -92.964662 
L 1518.129239 -87.742075 
L 1503.422548 -70.462214 
L 1503.570329 -63.293096 
L 1480.611274 -52.998145 
L 1461.05356 -59.149184 
L 1441.615399 -57.791174 
L 1433.085104 -63.250158 
L 1423.315509 -65.010605 
L 1399.452236 -53.528973 
L 1378.003579 -50.831052 
L 1363.027573 -46.793222 
L 1342.506708 -49.4461 
L 1327.399363 -49.276454 
L 1317.510216 -57.604268 
L 1301.55422 -65.434089 
L 1285.226097 -67.580133 
L 1249.219867 -62.430974 
L 1226.074445 -69.28332 
L 1222.967872 -81.491785 
L 1189.0237 -87.586588 
L 1170.772641 -94.321076 
L 1153.898115 -77.436446 
L 1160.51305 -67.847021 
L 1144.677131 -56.502026 
L 1121.123029 -60.598016 
L 1104.862389 -61.184096 
L 1093.973045 -68.794176 
L 1076.974607 -69.03454 
L 1062.808675 -74.034263 
L 1038.027714 -66.371142 
L 1006.9408 -52.338924 
L 983.389036 -48.175649 
L 974.74424 -58.141411 
L 953.758637 -55.961269 
L 946.822931 -62.876347 
L 935.431805 -66.038585 
L 927.59104 -75.452892 
L 918.596007 -78.384444 
L 895.184001 -74.197595 
L 872.741041 -83.584118 
L 864.059201 -75.053823 
L 827.652219 -116.430216 
L 806.867834 -129.017284 
L 812.829442 -134.12519 
L 771.996941 -118.750778 
L 756.370542 -117.821483 
L 757.720133 -126.713802 
L 736.795148 -132.270027 
L 719.785915 -128.305023 
L 714.65612 -145.190915 
L 685.377642 -148.702127 
L 670.729984 -141.943224 
L 629.963464 -135.929139 
L 622.007451 -131.904636 
L 561.043597 -126.235356 
L 553.573135 -120.675579 
L 565.334704 -109.515558 
L 549.694427 -105.279457 
L 552.745531 -100.840875 
L 537.109464 -92.904552 
L 563.510272 -81.699489 
L 559.42782 -73.983748 
L 536.543696 -74.686327 
L 531.810443 -69.851623 
L 510.973495 -78.294139 
L 485.14502 -77.966832 
L 467.858479 -71.094184 
L 412.657411 -88.965647 
L 387.207968 -88.543847 
L 353.576783 -70.824036 
L 351.547765 -58.924814 
L 334.793633 -68.373218 
L 321.794447 -50.473238 
L 326.552957 -47.150195 
L 317.148753 -34.802652 
L 330.977371 -23.751701 
L 343.066252 -24.206575 
L 353.45218 -13.32116 
L 351.798803 -4.937452 
L 360.07371 -2.302861 
L 352.648597 7.35899 
L 336.853433 10.043924 
L 320.660741 26.862067 
L 335.469095 42.323896 
L 333.865629 53.297911 
L 351.654129 72.485085 
L 341.926347 79.051781 
L 339.130343 83.196534 
L 331.92354 82.083521 
L 320.726897 72.187638 
L 305.906477 67.865305 
L 300.919134 61.180005 
L 285.724231 57.771507 
L 275.844507 60.329895 
L 272.98981 57.301688 
L 250.806687 49.490128 
L 213.050866 44.068058 
L 211.063944 45.992257 
L 190.291411 32.225418 
L 171.704111 26.079885 
L 157.6333 16.508618 
L 169.489204 13.904819 
L 183.00804 0.278781 
L 173.897024 -6.167992 
L 197.910725 -12.818091 
L 197.479474 -16.379701 
L 182.8547 -13.753905 
L 183.369111 -20.991016 
L 191.766984 -25.540082 
L 207.532947 -26.734569 
L 210.096381 -32.167534 
L 206.496322 -41.151146 
L 213.113168 -49.681837 
L 212.921752 -54.465517 
L 188.906393 -59.767151 
L 179.386005 -59.59119 
L 169.331 -67.220635 
L 156.830228 -64.640583 
L 136.138454 -70.368981 
L 136.49352 -73.574326 
L 130.697991 -80.639095 
L 117.707224 -81.427971 
L 116.357632 -86.485362 
L 120.426613 -89.783989 
L 110.015478 -99.008444 
L 93.121587 -97.434482 
L 88.173646 -98.252824 
L 84.057973 -94.547274 
L 77.973372 -95.205963 
L 73.96631 -105.638955 
L 70.140643 -111.047004 
L 73.275879 -112.569239 
L 86.421618 -112.003842 
L 92.761247 -115.566831 
L 88.068406 -119.910698 
L 77.082242 -122.777843 
L 78.062232 -125.72034 
L 71.432142 -128.692305 
L 61.218015 -139.358962 
L 64.709441 -143.754185 
L 63.11401 -151.402152 
L 47.186639 -155.287595 
L 38.637822 -153.342769 
L 36.323394 -157.387334 
L 19.171036 -161.473154 
L 13.934317 -171.088679 
L 12.545155 -178.98922 
z
" clip-path="url(#p7f12191e95)" style="fill: #e8edf4; stroke: #b8c5d4; stroke-width: 0.45"/>
    <path d="M 398.43492 -419.633286 
L 415.093916 -423.128922 
L 414.538252 -432.012822 
L 446.852679 -445.906965 
L 431.87499 -447.898939 
L 470.880968 -462.198044 
L 466.473536 -469.593436 
L 502.914195 -478.195293 
L 556.700854 -488.662838 
L 610.92615 -491.712258 
L 638.828095 -497.752165 
L 670.533817 -499.868742 
L 681.859274 -493.43524 
L 670.916889 -488.365641 
L 563.437025 -472.517411 
L 512.826917 -457.010156 
L 463.009893 -425.439561 
L 466.325359 -411.906179 
L 497.489729 -398.544548 
L 487.865785 -397.115396 
L 434.62974 -399.231973 
L 430.3065 -406.465717 
L 400.815859 -410.833578 
z
" clip-path="url(#p7f12191e95)" style="fill: #e8edf4; stroke: #b8c5d4; stroke-width: 0.45"/>
    <path d="M -3372.459087 -305.015745 
L -3372.459087 -369.922185 
L -3332.543508 -357.480966 
L -3289.829766 -341.284853 
L -3291.230885 -331.158678 
L -3280.243185 -327.105373 
L -3284.022783 -338.943682 
L -3239.797788 -336.514371 
L -3207.902308 -321.267598 
L -3224.055735 -314.166698 
L -3250.761376 -312.480794 
L -3251.164604 -296.561484 
L -3257.68681 -293.171103 
L -3272.944499 -293.658399 
L -3285.360362 -299.33863 
L -3307.022465 -304.089888 
L -3310.665861 -311.157226 
L -3327.210461 -313.82212 
L -3345.738947 -311.708713 
L -3354.591896 -317.409635 
L -3351.053095 -323.464909 
L -3370.565459 -319.594728 
L -3363.216268 -311.930122 
z
" clip-path="url(#p7f12191e95)" style="fill: #e8edf4; stroke: #b8c5d4; stroke-width: 0.45"/>
    <path d="M 1866.975038 -92.497485 
L 1868.416398 -114.761117 
L 1883.476595 -122.258381 
L 1877.005627 -129.807002 
L 1884.25621 -132.094488 
L 1894.130203 -105.617907 
L 1893.713454 -89.584876 
L 1900.437839 -73.145199 
L 1916.829947 -44.288522 
L 1892.7141 -49.667524 
L 1882.690245 -26.125863 
L 1898.572153 -9.428981 
L 1898.112466 1.956252 
L 1885.769975 -7.865543 
L 1875.087742 4.744678 
L 1872.071998 -8.927199 
L 1873.888853 -24.799003 
L 1872.031586 -42.379056 
L 1875.800845 -54.695448 
L 1876.520684 -76.480871 
z
" clip-path="url(#p7f12191e95)" style="fill: #e8edf4; stroke: #b8c5d4; stroke-width: 0.45"/>
    <path d="M 88.859807 15.160023 
L 91.737477 12.036514 
L 107.334816 6.621309 
L 104.855587 4.660577 
L 109.148121 0.625756 
L 125.970591 4.762429 
L 128.08489 7.979841 
L 130.542824 8.476053 
L 130.675259 9.885418 
L 138.64568 13.815483 
L 155.263422 12.838018 
L 152.081821 18.650608 
L 134.246668 21.472711 
L 112.130371 30.897963 
L 103.070511 27.584181 
L 106.662967 19.928637 
z
" clip-path="url(#p7f12191e95)" style="fill: #e8edf4; stroke: #b8c5d4; stroke-width: 0.45"/>
    <path d="M 290.763941 -559.336651 
L 322.56901 -562.303564 
L 347.322188 -562.500572 
L 350.651124 -558.110821 
L 360.009023 -562.011419 
L 375.365574 -564.697973 
L 399.529411 -561.127407 
L 393.228511 -558.643754 
L 356.705344 -555.259672 
L 354.433012 -552.586167 
L 335.390551 -549.893298 
L 317.741462 -553.755589 
L 327.021904 -558.841604 
z
" clip-path="url(#p7f12191e95)" style="fill: #e8edf4; stroke: #b8c5d4; stroke-width: 0.45"/>
    <path d="M 1045.64267 -555.290517 
L 1087.946504 -566.420283 
L 1123.190086 -570.099033 
L 1154.84485 -561.897197 
L 1192.362317 -546.145369 
L 1188.339886 -531.495618 
L 1152.793516 -529.463345 
L 1107.41439 -534.164341 
L 1080.374274 -540.383922 
L 1067.870434 -552.070063 
z
" clip-path="url(#p7f12191e95)" style="fill: #e8edf4; stroke: #b8c5d4; stroke-width: 0.45"/>
    <path d="M 1791.710777 -472.530208 
L 1800.465648 -483.731008 
L 1821.960025 -486.787238 
L 1864.979895 -486.072505 
L 1923.870362 -477.433389 
L 1911.060149 -465.334488 
L 1851.004473 -465.785453 
L 1823.986188 -461.937265 
z
" clip-path="url(#p7f12191e95)" style="fill: #e8edf4; stroke: #b8c5d4; stroke-width: 0.45"/>
    <path d="M -119.573387 -133.07532 
L -115.861378 -140.245079 
L -93.378848 -145.528945 
L -76.316574 -142.674849 
L -69.114823 -140.088903 
L -70.85338 -135.627589 
L -69.549252 -131.469786 
L -99.507998 -131.225209 
z
" clip-path="url(#p7f12191e95)" style="fill: #e8edf4; stroke: #b8c5d4; stroke-width: 0.45"/>
    <path d="M 1838.774177 -441.708213 
L 1854.228674 -448.147329 
L 1874.599631 -449.654671 
L 1897.746756 -443.425723 
L 1899.718423 -439.144003 
L 1875.016056 -439.029959 
z
" clip-path="url(#p7f12191e95)" style="fill: #e8edf4; stroke: #b8c5d4; stroke-width: 0.45"/>
    <path d="M 1180.167456 -515.856206 
L 1209.929164 -537.247535 
L 1223.312287 -539.07909 
L 1235.555209 -538.01815 
L 1276.849342 -528.765067 
L 1272.011248 -522.143154 
z
" clip-path="url(#p7f12191e95)" style="fill: #e8edf4; stroke: #b8c5d4; stroke-width: 0.45"/>
    <path d="M -3372.459087 -400.364947 
L -3372.459087 -411.500825 
L -3356.5634 -412.149505 
L -3332.99879 -407.489157 
L -3334.393881 -405.261868 
L -3351.178056 -401.355844 
z
" clip-path="url(#p7f12191e95)" style="fill: #e8edf4; stroke: #b8c5d4; stroke-width: 0.45"/>
    <path d="M 1940.698525 -471.085264 
L 1944.597137 -476.361289 
L 2015.845386 -469.636573 
L 1997.015904 -463.198923 
L 1970.973677 -464.656005 
z
" clip-path="url(#p7f12191e95)" style="fill: #e8edf4; stroke: #b8c5d4; stroke-width: 0.45"/>
    <path d="M 2471.919646 -404.708426 
L 2492.687151 -411.500825 
L 2492.687151 -400.364947 
L 2474.821671 -399.533087 
z
" clip-path="url(#p7f12191e95)" style="fill: #e8edf4; stroke: #b8c5d4; stroke-width: 0.45"/>
    <path d="M 118.36897 245.010303 
L 123.108958 239.642666 
L 121.996787 238.718663 
L 126.305714 231.103952 
L 129.610235 218.812396 
L 131.940659 214.687849 
L 137.842492 214.549353 
L 139.342787 211.694416 
L 143.714016 211.480148 
L 143.963223 218.148545 
L 139.226602 225.873126 
L 133.333189 223.61637 
L 129.923428 234.465723 
L 134.016825 236.294365 
L 129.856075 238.535546 
L 129.153917 242.825951 
L 136.81367 240.615921 
L 137.194216 246.953866 
L 129.075619 273.000649 
z
" clip-path="url(#p7f12191e95)" style="fill: #e8edf4; stroke: #b8c5d4; stroke-width: 0.45"/>
    <path d="M 132.390243 214.519044 
L 138.192729 201.24834 
L 146.60263 189.20094 
L 153.930669 190.031491 
L 156.595333 196.420372 
L 147.711434 202.560467 
L 143.714016 211.480148 
L 139.342787 211.694416 
L 137.842492 214.549353 
z
" clip-path="url(#p7f12191e95)" style="fill: #e8edf4; stroke: #b8c5d4; stroke-width: 0.45"/>
    <path d="M 129.153917 242.825951 
L 129.856075 238.535546 
L 134.016825 236.294365 
L 129.923428 234.465723 
L 133.333189 223.61637 
L 139.226602 225.873126 
L 139.219867 235.835521 
L 136.81367 240.615921 
z
" clip-path="url(#p7f12191e95)" style="fill: #e8edf4; stroke: #b8c5d4; stroke-width: 0.45"/>
    <path d="M 129.075619 273.000649 
L 137.194216 246.953866 
L 136.81367 240.615921 
L 139.219867 235.835521 
L 139.226602 225.873126 
L 142.065544 220.737858 
L 160.217257 227.193672 
L 192.121671 209.830413 
L 198.68946 229.668906 
L 195.584473 232.125617 
L 162.95601 240.301044 
L 179.194048 256.591702 
L 173.805784 259.358659 
L 171.125123 264.814697 
L 158.693389 267.071033 
L 154.794475 272.936663 
L 147.751846 277.950695 
L 129.620338 275.359277 
z
" clip-path="url(#p7f12191e95)" style="fill: #e8edf4; stroke: #b8c5d4; stroke-width: 0.45"/>
    <path d="M 400.45131 358.628999 
L 403.350027 357.837597 
L 403.951997 362.305647 
L 416.70366 359.737802 
L 440.01632 360.644967 
L 473.623931 329.140884 
L 476.723024 334.694163 
L 478.93558 347.562852 
L 470.616606 347.626417 
L 469.278801 358.236245 
L 472.164048 360.501841 
L 464.790546 363.710384 
L 464.745082 370.36952 
L 459.998359 377.112427 
L 459.572349 383.672638 
L 456.288876 387.116496 
L 407.313769 378.90192 
z
" clip-path="url(#p7f12191e95)" style="fill: #e8edf4; stroke: #b8c5d4; stroke-width: 0.45"/>
    <path d="M 386.837525 338.476892 
L 391.227276 329.930601 
L 395.676803 328.177732 
L 400.607064 333.284795 
L 400.894158 342.822864 
L 397.357268 352.407238 
L 392.841229 353.564873 
L 387.916019 350.332335 
z
" clip-path="url(#p7f12191e95)" style="fill: #e8edf4; stroke: #b8c5d4; stroke-width: 0.45"/>
    <path d="M 318.814905 279.554966 
L 330.771799 263.913847 
L 341.718394 265.270174 
L 345.118051 272.460559 
L 343.664062 276.17804 
L 348.912567 288.46707 
L 337.390102 288.889712 
L 333.332908 281.127245 
z
" clip-path="url(#p7f12191e95)" style="fill: #e8edf4; stroke: #b8c5d4; stroke-width: 0.45"/>
    <path d="M 192.121671 209.830413 
L 228.189361 192.875484 
L 234.344611 173.179275 
L 232.808956 161.277948 
L 241.726532 157.253167 
L 250.076657 147.086608 
L 257.074664 144.554966 
L 276.024514 146.657231 
L 281.746177 150.807036 
L 289.553751 148.054938 
L 300.110053 167.489605 
L 310.793128 172.379876 
L 312.022325 181.896475 
L 303.822061 187.519213 
L 300.046067 200.232568 
L 311.331112 215.718354 
L 331.293787 224.648559 
L 339.676747 237.0302 
L 337.006189 248.830918 
L 342.210073 248.826288 
L 342.370879 257.50476 
L 351.386959 266.069152 
L 330.771799 263.913847 
L 318.814905 279.554966 
L 288.524444 278.253785 
L 242.588654 245.488511 
L 218.313684 234.084335 
L 198.68946 229.668906 
z
" clip-path="url(#p7f12191e95)" style="fill: #e8edf4; stroke: #b8c5d4; stroke-width: 0.45"/>
    <path d="M 407.301982 444.088966 
L 456.177743 427.797045 
L 467.039304 395.212783 
L 459.572349 383.672638 
L 459.998359 377.112427 
L 464.745082 370.36952 
L 464.790546 363.710384 
L 472.164048 360.501841 
L 469.278801 358.236245 
L 470.616606 347.626417 
L 478.93558 347.562852 
L 486.239203 358.6913 
L 495.335266 364.606604 
L 516.934626 369.704827 
L 528.679357 384.45562 
L 534.51131 386.519157 
L 534.480159 390.153709 
L 525.947339 404.435975 
L 519.084038 409.647016 
L 513.004561 420.807878 
L 505.613378 419.953333 
L 502.225508 423.837934 
L 499.608832 432.097974 
L 501.611751 442.98816 
L 500.075254 444.989816 
L 492.578832 444.936354 
L 482.402591 451.025092 
L 480.814737 458.961836 
L 477.089258 462.400222 
L 466.955112 462.268883 
L 460.575913 466.371541 
L 460.656737 472.9528 
L 452.773034 477.476415 
L 443.783895 475.940339 
L 432.888657 481.435947 
L 425.362768 482.358267 
z
" clip-path="url(#p7f12191e95)" style="fill: #e8edf4; stroke: #b8c5d4; stroke-width: 0.45"/>
    <path d="M 473.623931 329.140884 
L 478.368128 323.593919 
L 480.382834 325.008338 
L 478.847179 331.739037 
L 476.723024 334.694163 
z
" clip-path="url(#p7f12191e95)" style="fill: #e8edf4; stroke: #b8c5d4; stroke-width: 0.45"/>
    <path d="M 551.881725 267.658269 
L 579.180858 275.978085 
L 595.479514 273.538212 
L 605.217959 275.61564 
L 608.515744 272.044232 
L 619.862249 273.475489 
L 641.035599 266.701853 
L 641.605577 252.838018 
L 650.687327 243.61651 
L 662.816814 243.645135 
L 664.597466 239.087001 
L 677.048565 236.962847 
L 683.072475 238.47998 
L 689.444097 233.898272 
L 688.544089 224.114363 
L 695.462114 214.281203 
L 705.831154 210.15876 
L 699.42754 199.380128 
L 714.925533 199.889488 
L 719.405369 194.023436 
L 718.725101 187.763789 
L 726.839489 180.919853 
L 724.97717 172.81683 
L 721.125404 165.911854 
L 730.639057 158.815764 
L 748.132392 155.393374 
L 766.827983 153.500747 
L 784.594099 148.664359 
L 796.631816 156.260127 
L 801.453471 168.779 
L 828.247454 175.367415 
L 812.513724 189.06034 
L 794.353591 191.481691 
L 769.640825 187.507005 
L 761.653566 194.531954 
L 773.084262 219.830273 
L 786.233309 227.875203 
L 772.34085 237.299613 
L 772.592583 248.913005 
L 756.777187 265.260492 
L 746.563902 281.794042 
L 729.520992 298.874838 
L 710.603135 297.636379 
L 692.647588 314.714229 
L 703.311299 322.030901 
L 705.167724 334.56998 
L 714.321037 342.832125 
L 717.555679 356.820142 
L 681.702678 356.777625 
L 670.852904 367.647184 
L 658.911164 363.527267 
L 654.052466 351.817055 
L 641.464977 339.410157 
L 611.448138 342.474732 
L 584.978293 342.778242 
L 562.033551 345.06194 
L 568.172804 326.134822 
L 591.673211 317.719028 
L 590.325303 310.216291 
L 582.530001 307.578989 
L 582.080417 293.230211 
L 566.50581 286.066767 
L 559.947282 276.227292 
z
" clip-path="url(#p7f12191e95)" style="fill: #e8edf4; stroke: #b8c5d4; stroke-width: 0.45"/>
    <path d="M 546.247622 204.979292 
L 557.365125 172.824828 
L 573.980342 179.006177 
L 586.264741 176.833191 
L 589.667766 169.450849 
L 602.528036 166.994138 
L 611.709974 162.039461 
L 614.962297 149.009966 
L 628.69395 145.859094 
L 631.24664 140.059976 
L 638.932493 144.41605 
L 652.917563 145.029386 
L 670.18358 150.455115 
L 681.977142 145.221764 
L 687.464752 148.369268 
L 692.719151 140.90989 
L 702.458438 141.24834 
L 704.967348 138.854352 
L 706.689909 132.284879 
L 713.703913 126.6171 
L 722.522985 130.321531 
L 720.751593 135.301044 
L 725.680171 136.074765 
L 724.161354 149.762218 
L 730.612116 155.097441 
L 736.288315 151.67421 
L 743.519533 150.056889 
L 753.6722 142.762948 
L 781.693697 143.989199 
L 784.594099 148.664359 
L 766.827983 153.500747 
L 748.132392 155.393374 
L 730.639057 158.815764 
L 721.125404 165.911854 
L 724.97717 172.81683 
L 726.839489 180.919853 
L 718.725101 187.763789 
L 719.405369 194.023436 
L 714.925533 199.889488 
L 699.42754 199.380128 
L 705.831154 210.15876 
L 695.462114 214.281203 
L 688.544089 224.114363 
L 689.444097 233.898272 
L 683.072475 238.47998 
L 677.048565 236.962847 
L 664.597466 239.087001 
L 662.816814 243.645135 
L 650.687327 243.61651 
L 641.605577 252.838018 
L 641.035599 266.701853 
L 619.862249 273.475489 
L 608.515744 272.044232 
L 605.217959 275.61564 
L 595.479514 273.538212 
L 579.180858 275.978085 
L 551.881725 267.658269 
L 566.658197 252.887691 
L 565.323759 242.401204 
L 552.984635 239.654874 
L 551.709132 229.311933 
L 546.372226 216.30517 
L 553.339082 207.384226 
z
" clip-path="url(#p7f12191e95)" style="fill: #e8edf4; stroke: #b8c5d4; stroke-width: 0.45"/>
    <path d="M 415.487933 72.901583 
L 422.686317 67.480906 
L 441.179848 64.09093 
L 452.192112 68.654958 
L 463.595025 81.429773 
L 490.332599 80.412318 
L 487.657832 72.205739 
L 501.57639 66.592684 
L 515.30215 57.12702 
L 537.254273 65.736876 
L 538.996198 78.736904 
L 545.229745 82.073839 
L 562.845158 81.323692 
L 568.31172 84.280922 
L 576.320027 101.077572 
L 605.579982 120.00048 
L 622.617841 127.978899 
L 644.288764 134.95207 
L 643.840022 144.9212 
L 638.932493 144.41605 
L 631.24664 140.059976 
L 628.69395 145.859094 
L 614.962297 149.009966 
L 611.709974 162.039461 
L 602.528036 166.994138 
L 589.667766 169.450849 
L 586.264741 176.833191 
L 573.980342 179.006177 
L 557.365125 172.824828 
L 555.935552 159.114644 
L 543.790911 158.531617 
L 525.171092 144.103278 
L 512.160119 142.322204 
L 494.145638 134.063427 
L 482.560871 132.56187 
L 475.408793 135.596557 
L 464.512713 135.124242 
L 452.924579 144.438361 
L 438.608636 147.590916 
L 435.576895 136.068872 
L 437.946048 119.028067 
L 425.239848 113.513516 
L 429.42333 102.358126 
L 418.608074 101.407603 
L 422.21316 87.675108 
L 437.574763 91.674631 
L 451.890706 86.461485 
L 440.021371 76.68305 
L 435.352104 67.3643 
L 422.237575 71.519999 
L 420.574791 83.457949 
z
" clip-path="url(#p7f12191e95)" style="fill: #e8edf4; stroke: #b8c5d4; stroke-width: 0.45"/>
    <path d="M 278.744745 111.272335 
L 289.900977 106.631272 
L 292.486502 112.77726 
L 300.714549 120.298098 
L 311.889302 122.463927 
L 317.788609 121.984877 
L 337.002821 109.96526 
L 343.112607 108.761741 
L 347.925842 113.542983 
L 342.308577 121.603489 
L 352.468821 130.134625 
L 356.52349 129.322176 
L 361.677701 141.335479 
L 377.125179 144.729243 
L 388.441375 152.903828 
L 411.603332 155.712461 
L 437.047723 151.401429 
L 438.608636 147.590916 
L 452.924579 144.438361 
L 464.512713 135.124242 
L 475.408793 135.596557 
L 482.560871 132.56187 
L 494.145638 134.063427 
L 512.160119 142.322204 
L 525.171092 144.103278 
L 543.790911 158.531617 
L 555.935552 159.114644 
L 557.365125 172.824828 
L 546.247622 204.979292 
L 553.339082 207.384226 
L 546.372226 216.30517 
L 551.709132 229.311933 
L 552.984635 239.654874 
L 565.323759 242.401204 
L 566.658197 252.887691 
L 551.881725 267.658269 
L 559.947282 276.227292 
L 566.50581 286.066767 
L 582.080417 293.230211 
L 582.530001 307.578989 
L 590.325303 310.216291 
L 591.673211 317.719028 
L 568.172804 326.134822 
L 562.033551 345.06194 
L 513.620002 336.399043 
L 495.234236 334.282045 
L 488.285901 314.304636 
L 480.488073 311.417706 
L 467.968779 314.328631 
L 451.536259 322.213597 
L 431.627467 316.809337 
L 415.180634 304.289201 
L 399.494051 299.648559 
L 388.613968 284.190136 
L 376.591404 262.468698 
L 367.823689 265.108947 
L 357.469804 259.710159 
L 351.386959 266.069152 
L 342.370879 257.50476 
L 342.210073 248.826288 
L 337.006189 248.830918 
L 339.676747 237.0302 
L 331.293787 224.648559 
L 311.331112 215.718354 
L 300.046067 200.232568 
L 303.822061 187.519213 
L 312.022325 181.896475 
L 310.793128 172.379876 
L 300.110053 167.489605 
L 289.553635 148.054725 
L 280.643267 135.002585 
L 283.830761 129.956981 
z
" clip-path="url(#p7f12191e95)" style="fill: #e8edf4; stroke: #b8c5d4; stroke-width: 0.45"/>
    <path d="M 142.065544 220.737858 
L 143.963223 218.148545 
L 143.714016 211.480148 
L 147.711434 202.560467 
L 156.595333 196.420372 
L 153.930669 190.031491 
L 146.60263 189.20094 
L 145.081287 176.73595 
L 149.068603 170.03135 
L 157.795064 162.892743 
L 158.67655 153.804679 
L 164.008406 156.97323 
L 181.94543 152.441195 
L 190.615483 155.508717 
L 204.018789 155.457781 
L 222.765737 149.344627 
L 231.544397 149.620355 
L 250.076657 147.086608 
L 241.726532 157.253167 
L 232.808956 161.277948 
L 234.344611 173.179275 
L 228.189361 192.875484 
L 192.121671 209.830413 
L 160.217257 227.193672 
z
" clip-path="url(#p7f12191e95)" style="fill: #e8edf4; stroke: #b8c5d4; stroke-width: 0.45"/>
    <path d="M 270.167303 84.162212 
L 292.808956 81.620888 
L 296.181672 85.902032 
L 302.386594 88.721609 
L 299.109015 92.807429 
L 307.788329 98.396069 
L 303.195676 103.584798 
L 310.112017 108.015803 
L 317.426585 110.685519 
L 317.788609 121.984877 
L 311.889302 122.463927 
L 305.238165 113.038675 
L 305.313095 110.525134 
L 298.114712 110.561758 
L 293.28969 106.191371 
L 289.900977 106.631272 
L 283.482208 101.874024 
L 271.367876 97.824407 
L 272.935524 89.896083 
z
" clip-path="url(#p7f12191e95)" style="fill: #e8edf4; stroke: #b8c5d4; stroke-width: 0.45"/>
    <path d="M -80.065627 -35.260654 
L -76.884868 -41.828442 
L -72.367145 -46.070016 
L -68.810891 -45.119493 
L -73.013737 -52.440796 
L -58.219585 -65.991437 
L -50.134664 -67.887433 
L -48.387688 -72.457775 
L -56.581216 -86.681528 
L -48.793492 -87.316754 
L -39.86497 -91.732183 
L -27.243804 -92.093786 
L -10.786027 -90.81702 
L 7.39768 -86.907162 
L 20.228482 -86.580077 
L 26.354265 -84.225659 
L 32.467418 -87.065863 
L 36.737617 -83.256613 
L 51.44 -84.037069 
L 57.920229 -82.462686 
L 58.968415 -90.662529 
L 63.987919 -94.23941 
L 84.057973 -94.547274 
L 88.173646 -98.252824 
L 93.121587 -97.434482 
L 110.015478 -99.008444 
L 120.426613 -89.783989 
L 116.357632 -86.485362 
L 117.707224 -81.427971 
L 130.697991 -80.639095 
L 136.49352 -73.574326 
L 136.138454 -70.368981 
L 156.830228 -64.640583 
L 169.331 -67.220635 
L 179.386005 -59.59119 
L 188.906393 -59.767151 
L 212.921752 -54.465517 
L 213.113168 -49.681837 
L 206.496322 -41.151146 
L 210.096381 -32.167534 
L 207.532947 -26.734569 
L 191.766984 -25.540082 
L 183.369111 -20.991016 
L 182.8547 -13.753905 
L 169.847094 -12.451039 
L 159.008265 -7.180223 
L 143.756111 -6.321048 
L 129.723052 -0.247885 
L 130.542824 8.476053 
L 128.08489 7.979841 
L 125.970591 4.762429 
L 109.148121 0.625756 
L 104.855587 4.660577 
L 102.616718 2.889937 
L 77.291879 -1.227876 
L 76.170446 -7.303143 
L 61.074889 -5.296857 
L 55.028247 3.675023 
L 42.412974 15.71653 
L 35.023476 12.920526 
L 27.36709 15.541832 
L 20.097144 12.53998 
L 24.198117 10.770272 
L 31.504266 -0.013832 
L 30.351683 -2.931072 
L 33.758918 -4.230991 
L 35.364452 -1.975918 
L 44.965664 -1.498973 
L 49.277959 -2.703755 
L 46.240325 -4.355594 
L 47.391225 -6.783681 
L 41.702397 -10.925487 
L 39.347557 -17.736589 
L 33.41289 -20.401675 
L 34.583154 -25.922541 
L 27.22228 -30.305977 
L 20.520627 -30.915525 
L 8.513219 -35.991437 
L -2.31635 -34.38001 
L -6.201793 -31.977181 
L -13.075197 -31.979707 
L -17.172803 -28.17172 
L -29.199576 -26.606177 
L -34.762116 -24.104844 
L -42.325891 -28.085844 
L -52.770704 -28.146462 
L -62.850966 -29.950689 
L -69.884334 -26.461788 
L -71.020079 -30.828807 
z
" clip-path="url(#p7f12191e95)" style="fill: #e8edf4; stroke: #b8c5d4; stroke-width: 0.45"/>
    <path d="M -6.201793 -31.977181 
L -2.31635 -34.38001 
L 8.513219 -35.991437 
L 20.520627 -30.915525 
L 27.22228 -30.305977 
L 34.583154 -25.922541 
L 33.41289 -20.401675 
L 39.347557 -17.736589 
L 41.702397 -10.925487 
L 47.391225 -6.783681 
L 46.240325 -4.355594 
L 49.277959 -2.703755 
L 44.965664 -1.498973 
L 35.364452 -1.975918 
L 33.758918 -4.230991 
L 30.351683 -2.931072 
L 31.504266 -0.013832 
L 24.198117 10.770272 
L 20.097144 12.53998 
L 17.179062 5.10586 
L 18.899097 -1.850473 
L 18.377951 -9.001288 
L -1.235329 -30.389327 
z
" clip-path="url(#p7f12191e95)" style="fill: #e8edf4; stroke: #b8c5d4; stroke-width: 0.45"/>
    <path d="M -110.457118 2.126319 
L -97.394788 -0.946676 
L -87.54521 -11.995142 
L -79.834942 -23.04445 
L -62.850966 -29.950689 
L -52.770704 -28.146462 
L -42.325891 -28.085844 
L -34.762116 -24.104844 
L -29.199576 -26.606177 
L -17.172803 -28.17172 
L -13.075197 -31.979707 
L -6.201793 -31.977181 
L -1.235329 -30.389327 
L 18.377951 -9.001288 
L 18.899097 -1.850473 
L 17.179062 5.10586 
L 20.097144 12.53998 
L 27.36709 15.541832 
L 35.023476 12.920526 
L 42.412974 15.71653 
L 42.791837 19.918534 
L 34.891295 23.424273 
L 29.942512 21.8983 
L 25.384377 41.553254 
L 15.805055 39.842481 
L 3.949191 33.920021 
L -15.230502 37.707802 
L -23.30953 41.863079 
L -47.235947 41.006009 
L -59.754399 38.465106 
L -66.067086 39.658101 
L -73.737785 30.120032 
L -69.962633 27.370334 
L -73.98194 25.341737 
L -79.096581 28.992706 
L -88.595922 24.259454 
L -89.874793 17.543488 
L -99.800143 13.711506 
L -101.627101 8.527407 
z
" clip-path="url(#p7f12191e95)" style="fill: #e8edf4; stroke: #b8c5d4; stroke-width: 0.45"/>
    <path d="M -75.260811 64.153653 
L -72.580992 61.854801 
L -74.347332 59.91671 
L -71.606895 54.732611 
L -65.396079 49.639017 
L -73.311775 42.606491 
L -74.773342 36.655828 
L -70.754034 32.959816 
L -66.067086 39.658101 
L -59.754399 38.465106 
L -47.235947 41.006009 
L -23.30953 41.863079 
L -15.230502 37.707802 
L 3.949191 33.920021 
L 15.805055 39.842481 
L 25.384377 41.553254 
L 16.929013 48.302896 
L 10.979191 59.95628 
L 16.238642 69.251455 
L 2.211476 67.066262 
L -14.385218 72.191427 
L -14.562863 80.304973 
L -29.371327 81.843154 
L -40.850012 76.150538 
L -53.892978 80.627848 
L -65.944166 80.156796 
L -67.100959 69.382794 
z
" clip-path="url(#p7f12191e95)" style="fill: #e8edf4; stroke: #b8c5d4; stroke-width: 0.45"/>
    <path d="M -13.509625 110.694359 
L 4.562106 95.112595 
L 29.651209 94.460952 
L 36.494303 82.079312 
L 67.545857 84.23588 
L 87.12967 73.668148 
L 106.11488 69.062445 
L 133.068827 68.715997 
L 161.505389 80.199734 
L 184.876982 86.501055 
L 203.856299 83.989199 
L 217.880939 85.440662 
L 237.116199 76.936466 
L 254.474827 76.162325 
L 270.167303 84.162212 
L 272.935524 89.896083 
L 271.367876 97.824407 
L 283.482208 101.874024 
L 289.900977 106.631272 
L 278.744745 111.272335 
L 283.830761 129.956981 
L 280.643267 135.002585 
L 289.553751 148.054938 
L 281.746177 150.807036 
L 276.024514 146.657231 
L 257.074664 144.554966 
L 250.076657 147.086608 
L 231.544397 149.620355 
L 222.765737 149.344627 
L 204.018789 155.457781 
L 190.615483 155.508717 
L 181.94543 152.441195 
L 164.008406 156.97323 
L 158.67655 153.804679 
L 157.795064 162.892743 
L 149.068603 170.03135 
L 143.078369 162.643536 
L 149.248773 156.524068 
L 139.312478 157.911546 
L 125.686064 154.162914 
L 114.482685 163.540177 
L 89.755606 165.371344 
L 76.566147 156.627203 
L 59.003775 156.079957 
L 55.247987 162.839281 
L 43.9882 164.7719 
L 28.23258 156.096795 
L 10.446258 156.390203 
L 0.794531 140.187105 
L -11.107639 131.148714 
L -3.181839 118.479559 
z
" clip-path="url(#p7f12191e95)" style="fill: #e8edf4; stroke: #b8c5d4; stroke-width: 0.45"/>
    <path d="M -15.585791 91.891003 
L -15.364367 88.528811 
L -11.492394 86.701853 
L -6.448474 76.505405 
L -14.385218 72.191427 
L 2.211476 67.066262 
L 16.238642 69.251455 
L 18.174207 75.515312 
L 32.395855 80.776867 
L 29.430627 84.767971 
L 10.085076 85.666296 
L -10.459363 99.479194 
z
" clip-path="url(#p7f12191e95)" style="fill: #e8edf4; stroke: #b8c5d4; stroke-width: 0.45"/>
    <path d="M 292.808956 81.620888 
L 296.799638 78.960012 
L 308.94007 83.645276 
L 317.722098 84.613479 
L 319.942231 82.703592 
L 311.91877 73.887467 
L 316.146873 71.641235 
L 320.726897 72.187638 
L 331.92354 82.083521 
L 339.130343 83.196534 
L 341.926347 79.051781 
L 351.653859 72.485268 
L 360.222028 81.064382 
L 368.509009 92.621365 
L 376.099725 93.383299 
L 381.117546 97.775576 
L 367.699086 99.08644 
L 364.865196 111.739177 
L 362.062457 117.445685 
L 356.088219 121.253672 
L 356.52349 129.322176 
L 352.468821 130.134625 
L 342.308577 121.603489 
L 347.925842 113.542983 
L 343.112607 108.761741 
L 337.002821 109.96526 
L 317.788609 121.984877 
L 317.426585 110.685519 
L 310.112017 108.015803 
L 303.195676 103.584798 
L 307.788329 98.396069 
L 299.109015 92.807429 
L 302.386594 88.721609 
L 296.181672 85.902032 
z
" clip-path="url(#p7f12191e95)" style="fill: #e8edf4; stroke: #b8c5d4; stroke-width: 0.45"/>
    <path d="M 289.900977 106.631272 
L 293.28969 106.191371 
L 298.114712 110.561758 
L 305.313095 110.525134 
L 305.238165 113.038675 
L 311.889302 122.463927 
L 300.714549 120.298098 
L 292.486502 112.77726 
z
" clip-path="url(#p7f12191e95)" style="fill: #e8edf4; stroke: #b8c5d4; stroke-width: 0.45"/>
    <path d="M 211.063944 45.992257 
L 213.050866 44.068058 
L 250.806687 49.490128 
L 272.98981 57.301688 
L 275.844507 60.329895 
L 285.724231 57.771507 
L 300.919134 61.180005 
L 305.906477 67.865305 
L 316.146873 71.641235 
L 311.91877 73.887467 
L 319.942231 82.703592 
L 317.722098 84.613479 
L 308.94007 83.645276 
L 296.799638 78.960012 
L 292.808956 81.620888 
L 270.167303 84.162212 
L 254.474827 76.162325 
L 237.116199 76.936466 
L 239.545127 69.975082 
L 235.476988 58.860947 
L 226.060155 52.857242 
L 217.03313 50.983558 
z
" clip-path="url(#p7f12191e95)" style="fill: #e8edf4; stroke: #b8c5d4; stroke-width: 0.45"/>
    <path d="M 124.346575 296.506528 
L 129.620338 275.359277 
L 147.751846 277.950695 
L 154.794475 272.936663 
L 158.693389 267.071033 
L 171.125123 264.814697 
L 173.805784 259.358659 
L 179.194048 256.591702 
L 162.95601 240.301044 
L 195.584473 232.125617 
L 198.68946 229.668906 
L 218.313684 234.084335 
L 242.588654 245.488511 
L 288.524444 278.253785 
L 333.332908 281.127245 
L 337.390102 288.889712 
L 348.912567 288.46707 
L 355.290925 302.516968 
L 363.305967 306.238237 
L 366.097761 311.960321 
L 377.200952 318.808467 
L 378.186836 325.531168 
L 376.563621 330.957318 
L 378.625474 336.430194 
L 383.309896 340.995906 
L 387.916019 350.332335 
L 392.841229 353.564873 
L 397.357268 352.407238 
L 407.313769 378.90192 
L 456.288876 387.116496 
L 459.572349 383.672638 
L 467.039304 395.212783 
L 456.177743 427.797045 
L 407.301982 444.088966 
L 360.326425 450.3343 
L 345.120577 457.665706 
L 333.444883 474.772181 
L 325.841538 477.487781 
L 321.768347 472.057001 
L 315.523013 472.871976 
L 299.774128 471.242447 
L 296.78701 469.613339 
L 277.985337 469.987571 
L 273.568645 471.460082 
L 266.877095 467.223981 
L 262.559748 475.232288 
L 264.230952 482.100219 
L 257.078032 487.297368 
L 254.96398 480.344824 
L 250.050558 475.438136 
L 248.794419 468.938964 
L 240.379466 463.101117 
L 231.695942 449.439343 
L 227.100764 436.163166 
L 215.831715 424.951789 
L 208.565979 422.27618 
L 197.775981 406.74914 
L 195.89093 395.42663 
L 196.585511 385.769009 
L 187.241083 367.704434 
L 179.601536 361.346704 
L 170.800144 357.977356 
L 165.443031 348.642189 
L 166.333778 344.959226 
L 161.806795 336.513123 
L 157.049126 332.875624 
L 150.687607 320.755819 
L 132.457596 296.42823 
z
" clip-path="url(#p7f12191e95)" style="fill: #e8edf4; stroke: #b8c5d4; stroke-width: 0.45"/>
    <path d="M 93.382581 181.134541 
L 96.88832 177.115654 
L 108.622948 177.335394 
L 123.436464 172.47417 
L 112.42841 179.411981 
L 113.614669 182.462664 
L 105.504491 183.410241 
L 104.00588 180.76494 
L 96.442105 181.984877 
z
" clip-path="url(#p7f12191e95)" style="fill: #e8edf4; stroke: #b8c5d4; stroke-width: 0.45"/>
    <path d="M 85.642004 181.733986 
L 96.442105 181.984877 
L 104.00588 180.76494 
L 105.504491 183.410241 
L 111.868535 181.891003 
L 114.124029 183.772686 
L 97.423779 190.390989 
L 89.448307 188.276516 
z
" clip-path="url(#p7f12191e95)" style="fill: #e8edf4; stroke: #b8c5d4; stroke-width: 0.45"/>
    <path d="M -37.470627 264.156272 
L -33.274604 254.097383 
L -35.795802 247.129427 
L -29.898886 239.311512 
L -8.22212 239.042205 
L 31.17537 250.701301 
L 43.718474 245.539809 
L 50.424454 240.871478 
L 64.792433 239.528034 
L 76.376586 241.585071 
L 80.815361 249.665939 
L 84.5961 244.342668 
L 97.653381 248.191996 
L 110.352726 249.11429 
L 118.369078 245.010317 
L 129.075577 273.000587 
L 124.499785 279.548534 
L 120.993894 291.856054 
L 116.561798 300.339174 
L 112.763302 303.18377 
L 99.980541 290.65598 
L 88.355658 267.302434 
L 86.681322 268.779311 
L 93.432105 285.970706 
L 103.434461 302.349778 
L 115.747846 327.726637 
L 126.997849 345.786726 
L 141.617377 363.822702 
L 138.380305 366.663062 
L 138.905888 377.251769 
L 160.741338 395.212802 
L -32.584146 395.212802 
L -32.584146 277.280115 
z
" clip-path="url(#p7f12191e95)" style="fill: #e8edf4; stroke: #b8c5d4; stroke-width: 0.45"/>
   </g>
   <g id="PathCollection_1">
    <defs>
     <path id="m12f9ad634f" d="M 0 2.12132 
C 0.562581 2.12132 1.102195 1.897805 1.5 1.5 
C 1.897805 1.102195 2.12132 0.562581 2.12132 0 
C 2.12132 -0.562581 1.897805 -1.102195 1.5 -1.5 
C 1.102195 -1.897805 0.562581 -2.12132 0 -2.12132 
C -0.562581 -2.12132 -1.102195 -1.897805 -1.5 -1.5 
C -1.897805 -1.102195 -2.12132 -0.562581 -2.12132 0 
C -2.12132 0.562581 -1.897805 1.102195 -1.5 1.5 
C -1.102195 1.897805 -0.562581 2.12132 0 2.12132 
z
" style="stroke: #ffffff; stroke-width: 0.5"/>
    </defs>
    <g clip-path="url(#p7f12191e95)">
     <use xlink:href="#m12f9ad634f" x="383.678316" y="330.04451" style="fill: #8aa0b7; stroke: #ffffff; stroke-width: 0.5"/>
     <use xlink:href="#m12f9ad634f" x="97.752437" y="183.415854" style="fill: #8aa0b7; stroke: #ffffff; stroke-width: 0.5"/>
     <use xlink:href="#m12f9ad634f" x="126.263565" y="240.438109" style="fill: #8aa0b7; stroke: #ffffff; stroke-width: 0.5"/>
     <use xlink:href="#m12f9ad634f" x="305.476367" y="273.022255" style="fill: #8aa0b7; stroke: #ffffff; stroke-width: 0.5"/>
     <use xlink:href="#m12f9ad634f" x="143.91331" y="202.423273" style="fill: #8aa0b7; stroke: #ffffff; stroke-width: 0.5"/>
     <use xlink:href="#m12f9ad634f" x="134.135894" y="233.070834" style="fill: #8aa0b7; stroke: #ffffff; stroke-width: 0.5"/>
     <use xlink:href="#m12f9ad634f" x="395.082767" y="338.190547" style="fill: #8aa0b7; stroke: #ffffff; stroke-width: 0.5"/>
    </g>
   </g>
   <g id="PatchCollection_2">
    <defs>
     <path id="m1d233dc947" d="M 192.121671 -222.169587 
L 228.189361 -239.124516 
L 234.344611 -258.820725 
L 232.808956 -270.722052 
L 241.726532 -274.746833 
L 250.076657 -284.913392 
L 257.074664 -287.445034 
L 276.024514 -285.342769 
L 281.746177 -281.192964 
L 289.553751 -283.945062 
L 300.110053 -264.510395 
L 310.793128 -259.620124 
L 312.022325 -250.103525 
L 303.822061 -244.480787 
L 300.046067 -231.767432 
L 311.331112 -216.281646 
L 331.293787 -207.351441 
L 339.676747 -194.9698 
L 337.006189 -183.169082 
L 342.210073 -183.173712 
L 342.370879 -174.49524 
L 351.386959 -165.930848 
L 330.771799 -168.086153 
L 318.814905 -152.445034 
L 288.524444 -153.746215 
L 242.588654 -186.511489 
L 218.313684 -197.915665 
L 198.68946 -202.331094 
z
" style="stroke: #b45309; stroke-width: 1.15"/>
    </defs>
    <g clip-path="url(#p7f12191e95)">
     <use xlink:href="#m1d233dc947" x="0" y="432" style="fill: #f59e0b; stroke: #b45309; stroke-width: 1.15"/>
    </g>
   </g>
   <g id="PathCollection_2">
    <defs>
     <path id="ma7d12c6b9d" d="M 0 3.316625 
C 0.879579 3.316625 1.723251 2.967164 2.345208 2.345208 
C 2.967164 1.723251 3.316625 0.879579 3.316625 0 
C 3.316625 -0.879579 2.967164 -1.723251 2.345208 -2.345208 
C 1.723251 -2.967164 0.879579 -3.316625 0 -3.316625 
C -0.879579 -3.316625 -1.723251 -2.967164 -2.345208 -2.345208 
C -2.967164 -1.723251 -3.316625 -0.879579 -3.316625 0 
C -3.316625 0.879579 -2.967164 1.723251 -2.345208 2.345208 
C -1.723251 2.967164 -0.879579 3.316625 0 3.316625 
z
" style="stroke: #ffffff"/>
    </defs>
    <g clip-path="url(#p7f12191e95)">
     <use xlink:href="#ma7d12c6b9d" x="276.965239" y="216" style="fill: #f97316; stroke: #ffffff"/>
    </g>
   </g>
   <g id="PathCollection_3">
    <path d="M 276.965239 220.449719 
C 278.145318 220.449719 279.277223 219.980869 280.111666 219.146427 
C 280.946108 218.311984 281.414958 217.180079 281.414958 216 
C 281.414958 214.819921 280.946108 213.688016 280.111666 212.853573 
C 279.277223 212.019131 278.145318 211.550281 276.965239 211.550281 
C 275.78516 211.550281 274.653255 212.019131 273.818812 212.853573 
C 272.98437 213.688016 272.51552 214.819921 272.51552 216 
C 272.51552 217.180079 272.98437 218.311984 273.818812 219.146427 
C 274.653255 219.980869 275.78516 220.449719 276.965239 220.449719 
L 276.965239 220.449719 
z
" clip-path="url(#p7f12191e95)" style="fill: none; stroke: #7c2d12; stroke-width: 1.1"/>
   </g>
  </g>
 </g>
 <defs>
  <clipPath id="p7f12191e95">
   <rect x="0" y="0" width="553.930478" height="432"/>
  </clipPath>
 </defs>
</svg>
