<?xml version="1.0" encoding="utf-8" standalone="no"?>
<!DOCTYPE svg PUBLIC "-//W3C//DTD SVG 1.1//EN"
  "http://www.w3.org/Graphics/SVG/1.1/DTD/svg11.dtd">
<svg xmlns:xlink="http://www.w3.org/1999/xlink" width="576pt" height="372pt" viewBox="0 0 576 372" xmlns="http://www.w3.org/2000/svg" version="1.1">
 <metadata>
  <rdf:RDF xmlns:dc="http://purl.org/dc/elements/1.1/" xmlns:cc="http://creativecommons.org/ns#" xmlns:rdf="http://www.w3.org/1999/02/22-rdf-syntax-ns#">
   <cc:Work>
    <dc:type rdf:resource="http://purl.org/dc/dcmitype/StillImage"/>
    <dc:date>2026-06-09T04:57:02.539604</dc:date>
    <dc:format>image/svg+xml</dc:format>
    <dc:creator>
     <cc:Agent>
      <dc:title>Matplotlib v3.10.8, https://matplotlib.org/</dc:title>
     </cc:Agent>
    </dc:creator>
   </cc:Work>
  </rdf:RDF>
 </metadata>
 <defs>
  <style type="text/css">*{stroke-linejoin: round; stroke-linecap: butt}</style>
 </defs>
 <g id="figure_1">
  <g id="patch_1">
   <path d="M 0 372 
L 576 372 
L 576 0 
L 0 0 
z
" style="fill: #eaf3ff"/>
  </g>
  <g id="axes_1">
   <g id="PatchCollection_1">
    <path d="M 571.381557 332.850199 
L 579.373913 322.356385 
L 575.329795 319.532228 
L 586.377421 304.319561 
L 600.616266 312.349482 
L 602.340669 302.236683 
L 630.922824 287.177137 
L 652.551557 286.818661 
L 699.465323 302.007092 
L 714.156646 296.166231 
L 736.107508 295.888062 
L 753.816217 303.063108 
L 757.83887 298.954235 
L 777.287414 299.551337 
L 780.75697 292.993955 
L 758.319699 283.471102 
L 771.608333 276.726254 
L 769.015289 272.954034 
L 782.307501 269.353895 
L 772.311689 259.869322 
L 778.660615 255.144231 
L 830.472003 250.326077 
L 837.233585 246.905769 
L 871.879851 241.794576 
L 884.328465 236.050383 
L 909.211383 239.034458 
L 913.571045 253.385282 
L 928.026693 250.015541 
L 945.810222 254.737614 
L 944.663244 262.294935 
L 957.943662 261.505154 
L 992.646004 248.438893 
L 987.579408 252.779952 
L 1005.243446 263.477331 
L 1036.18467 298.641911 
L 1043.563111 291.392264 
L 1062.636723 299.369595 
L 1082.533898 295.811315 
L 1090.178512 298.302755 
L 1096.842149 306.303697 
L 1106.523132 308.99119 
L 1112.417584 314.868112 
L 1130.252632 313.015273 
L 1137.599589 321.484882 
L 1127.059982 330.703639 
L 1115.560147 331.997299 
L 1114.899007 345.881961 
L 1107.197867 352.140613 
L 1079.729776 347.584183 
L 1069.738973 372.374083 
L 1062.651749 375.456543 
L 1035.223012 380.988226 
L 1047.685936 405.041141 
L 1038.186695 408.645214 
L 1039.292173 416.538471 
L 1030.758168 414.507468 
L 1023.814763 409.531028 
L 980.312589 407.704306 
L 975.281053 409.229079 
L 955.562758 403.407609 
L 947.704203 406.274697 
L 945.550489 414.449154 
L 922.771915 409.679141 
L 913.656192 411.632867 
L 910.555129 417.699402 
L 902.616437 420.258817 
L 884.354224 429.910464 
L 878.295918 439.818267 
L 873.13702 439.906276 
L 869.342618 433.347821 
L 851.732959 432.898475 
L 848.916673 421.555696 
L 842.170037 421.458744 
L 843.203248 407.570861 
L 826.6268 397.457346 
L 802.880127 398.537423 
L 786.645698 400.553401 
L 773.422891 388.073304 
L 738.043298 371.721171 
L 702.400393 379.903498 
L 702.944188 430.957269 
L 695.841938 431.63272 
L 686.150938 420.77578 
L 676.791938 416.896947 
L 661.07483 419.777987 
L 654.957135 424.384862 
L 654.18008 421.008682 
L 657.583093 415.238372 
L 654.942825 410.414337 
L 638.895146 405.697273 
L 632.648658 393.262611 
L 625.003328 389.759784 
L 624.539671 385.248431 
L 638.010048 386.563557 
L 638.541679 376.440025 
L 650.317704 374.191503 
L 662.412136 376.259356 
L 664.904292 362.751057 
L 662.437895 354.189147 
L 648.581853 354.858873 
L 636.811552 351.479473 
L 620.779615 357.567831 
L 607.862215 360.470816 
L 600.829615 358.231754 
L 602.234772 351.106687 
L 593.408077 341.855492 
L 583.134092 342.242077 
z
" clip-path="url(#pe28dbccd5c)" style="fill: #e8edf4; stroke: #b8c5d4; stroke-width: 0.45"/>
    <path d="M 305.836406 207.121916 
L 311.769496 202.727551 
L 307.663615 189.813646 
L 317.515836 181.83473 
L 315.430892 179.417954 
L 331.168154 171.765462 
L 316.661538 165.182031 
L 359.169107 139.508869 
L 364.376661 132.447404 
L 343.881311 122.961042 
L 349.541788 113.938337 
L 337.076717 103.633778 
L 346.398231 91.763354 
L 330.294304 76.002191 
L 343.072058 65.562041 
L 321.866912 56.336129 
L 323.888255 46.64155 
L 335.070692 45.365723 
L 358.630338 39.810785 
L 372.914585 34.994539 
L 395.660354 43.364954 
L 433.577908 46.660339 
L 485.893938 62.320616 
L 496.521277 68.901277 
L 497.436231 78.116585 
L 482.065338 85.391354 
L 459.456231 89.083431 
L 397.643677 78.559246 
L 387.476862 80.318816 
L 410.050662 90.459462 
L 411.838754 111.0318 
L 440.483954 118.848508 
L 442.273431 112.134785 
L 433.932633 106.1844 
L 442.745169 100.940031 
L 476.217 109.558292 
L 487.877538 106.1844 
L 478.559077 96.044031 
L 510.8274 82.482969 
L 523.606708 83.2812 
L 536.535 88.120431 
L 544.600523 78.604523 
L 533.054631 70.350692 
L 539.833154 62.069862 
L 529.654431 53.481369 
L 568.384615 57.923077 
L 576.295477 65.677339 
L 558.763892 67.386646 
L 558.858738 75.091616 
L 569.757462 79.832262 
L 591.149908 76.829308 
L 594.536677 67.997816 
L 671.7798 49.5132 
L 682.223677 50.194846 
L 668.572892 58.597246 
L 685.748492 60.041262 
L 695.667877 55.310862 
L 721.620277 54.928431 
L 742.181538 49.188646 
L 757.958123 57.529292 
L 773.693169 48.359677 
L 759.184615 40.338462 
L 766.384615 35.769231 
L 807.286154 39.959216 
L 826.450823 44.2869 
L 876.629908 60.1062 
L 885.886338 52.860508 
L 871.815323 45.539631 
L 871.410738 42.602446 
L 854.724185 41.243862 
L 859.288985 34.679123 
L 851.883508 23.876908 
L 851.464523 19.445031 
L 877.016215 6.906923 
L 886.103446 -5.677292 
L 896.4 -8.4 
L 933.058246 -4.748631 
L 935.945031 2.953016 
L 922.819985 14.183354 
L 931.432292 18.597369 
L 935.887569 28.276523 
L 932.742 47.249769 
L 948.016662 55.736769 
L 942.074308 64.979077 
L 914.953846 84.646154 
L 930.780138 86.686108 
L 936.287585 81.701492 
L 951.5214 78.145939 
L 955.197831 71.294446 
L 967.181538 64.701185 
L 959.112831 56.829369 
L 965.573169 47.688277 
L 950.432677 46.549016 
L 947.102815 38.8482 
L 958.151077 24.945 
L 940.169077 13.654569 
L 964.949815 4.321985 
L 961.7436 -5.523738 
L 968.649369 -5.838046 
L 975.925523 1.8384 
L 970.4628 15.199939 
L 985.279985 17.729492 
L 978.966415 7.744477 
L 1002.138231 2.300723 
L 1030.874123 1.567708 
L 1056.461538 9.461539 
L 1044.148292 -2.070231 
L 1042.768938 -16.821231 
L 1066.846154 -19.615384 
L 1100.149754 -19.004908 
L 1130.154923 -20.818338 
L 1118.9016 -28.056969 
L 1134.9252 -37.150569 
L 1150.832908 -37.531338 
L 1177.753846 -44.4 
L 1214.315723 -46.246108 
L 1218.935215 -50.038154 
L 1255.292308 -51.323077 
L 1266.621369 -48.214338 
L 1297.696708 -55.572323 
L 1323.133892 -55.342338 
L 1326.950585 -61.318477 
L 1340.180862 -67.212092 
L 1372.868308 -72.894277 
L 1396.615015 -68.407708 
L 1377.761538 -64.994769 
L 1409.124877 -62.8734 
L 1412.861538 -56.030769 
L 1425.514154 -59.400231 
L 1465.992831 -59.215384 
L 1497.205523 -52.461784 
L 1508.319277 -47.275015 
L 1504.874631 -40.077092 
L 1453.171154 -28.293184 
L 1442.769231 -24.184615 
L 1480.419554 -18.753323 
L 1492.885938 -21.372877 
L 1499.948031 -12.485308 
L 1506.029677 -16.082954 
L 1528.169815 -18.270231 
L 1572.595338 -15.983815 
L 1575.969231 -9.507692 
L 1633.855292 -7.447661 
L 1634.646046 -18.023492 
L 1664.030769 -15.6 
L 1686.135323 -15.676015 
L 1708.494369 -8.382138 
L 1714.867892 0.479262 
L 1706.676923 6.276923 
L 1724.067554 17.173292 
L 1745.841877 22.795523 
L 1759.202308 8.266616 
L 1781.413754 14.495723 
L 1805.011338 10.773462 
L 1831.812231 15.032816 
L 1842.010477 11.150354 
L 1864.659185 13.091585 
L 1854.663369 0.237369 
L 1872.943892 -5.761061 
L 1998 3.230769 
L 2009.785569 11.449431 
L 2046.030923 22.0308 
L 2101.941415 19.411246 
L 2129.507862 21.691569 
L 2141.035062 27.416677 
L 2139.350677 37.541816 
L 2156.407338 41.483816 
L 2174.940969 38.648677 
L 2199.495877 38.286046 
L 2225.635892 41.003216 
L 2251.878508 39.470446 
L 2275.997954 51.778154 
L 2293.1568 47.349739 
L 2281.959692 38.500246 
L 2288.124692 32.348816 
L 2332.300292 36.2202 
L 2361.101954 35.391923 
L 2400.923077 42 
L 2420.307692 48.041958 
L 2420.307692 103.204033 
L 2402.407385 109.362508 
L 2384.463877 108.347862 
L 2396.949231 115.717892 
L 2405.191154 127.126569 
L 2411.589323 130.856031 
L 2413.195754 136.583908 
L 2409.621923 140.250923 
L 2383.813385 137.235231 
L 2345.113246 147.657923 
L 2332.8018 149.271554 
L 2291.517692 167.499046 
L 2286.427154 173.790877 
L 2266.621754 164.212385 
L 2230.545877 175.081616 
L 2224.246154 169.938462 
L 2210.908708 175.870154 
L 2192.390169 173.971708 
L 2187.929215 183.078323 
L 2171.316877 196.477662 
L 2171.810354 202.073723 
L 2187.580292 205.176508 
L 2185.725323 225.3336 
L 2172.871108 225.8466 
L 2166.943292 237.429046 
L 2172.703708 243.390369 
L 2148.490662 250.463123 
L 2143.685492 266.272108 
L 2123.043785 269.649046 
L 2118.893262 283.7166 
L 2098.935554 296.616231 
L 2093.815385 287.076923 
L 2080.158369 236.108816 
L 2086.815046 216.905723 
L 2098.497462 208.642616 
L 2099.220231 202.171754 
L 2120.736877 199.074231 
L 2145.4704 181.641646 
L 2169.305169 167.404616 
L 2194.195708 156.356769 
L 2205.326077 136.837708 
L 2188.5012 138.005492 
L 2180.186446 149.411539 
L 2145.066646 164.618354 
L 2133.724431 147.591323 
L 2097.978646 152.292646 
L 2063.326985 175.502123 
L 2074.759615 183.993 
L 2022.448569 189.033831 
L 2023.451308 179.022092 
L 2001.928292 176.920662 
L 1984.774292 183.722585 
L 1942.438431 181.342569 
L 1896.892892 185.446431 
L 1798.978015 245.128754 
L 1820.792908 246.873923 
L 1827.6012 255.5448 
L 1841.049692 258.622939 
L 1849.910262 251.706231 
L 1865.097831 252.604431 
L 1885.088908 267.836723 
L 1885.558569 279.617031 
L 1874.733508 293.450723 
L 1873.565723 309.984969 
L 1867.319031 332.122477 
L 1846.449969 352.158692 
L 1841.811369 361.736077 
L 1795.422323 402.024785 
L 1776.972046 410.148877 
L 1768.240662 410.3286 
L 1759.542508 403.5984 
L 1740.9582 413.731292 
L 1738.8 418.338462 
L 1736.861538 415.915385 
L 1736.776612 408.881336 
L 1743.849525 408.507835 
L 1745.841533 392.148189 
L 1742.194938 380.289785 
L 1754.078597 375.399301 
L 1770.8832 377.851062 
L 1780.195071 364.381011 
L 1784.940231 349.211816 
L 1790.318908 344.144539 
L 1797.595082 331.686048 
L 1774.711327 335.767731 
L 1762.708015 341.229785 
L 1741.669754 341.213585 
L 1736.062523 328.204328 
L 1719.662093 318.360922 
L 1695.564 313.934723 
L 1690.441694 300.372038 
L 1671.872523 271.945866 
L 1659.713695 266.847072 
L 1638.989585 262.724308 
L 1620.633433 263.099179 
L 1603.427327 265.595985 
L 1591.990458 272.484653 
L 1599.587848 275.775328 
L 1599.759692 283.420016 
L 1592.059569 287.858539 
L 1579.560785 302.544185 
L 1579.686379 308.637008 
L 1560.174153 317.386384 
L 1543.552628 312.158796 
L 1527.032706 313.31293 
L 1519.783059 308.673499 
L 1511.480167 307.177347 
L 1491.199473 316.935249 
L 1472.97089 319.228132 
L 1460.243223 322.659765 
L 1442.803142 320.405162 
L 1429.963855 320.549339 
L 1421.559359 313.471775 
L 1407.998827 306.817441 
L 1394.122035 304.993581 
L 1363.521398 309.3697 
L 1343.850785 303.546092 
L 1341.2106 293.170477 
L 1312.362446 287.990683 
L 1296.851407 282.26724 
L 1282.510243 296.61699 
L 1288.132082 304.766761 
L 1274.6736 314.408539 
L 1254.655662 310.927477 
L 1240.836222 310.429385 
L 1231.581688 303.961801 
L 1217.135215 303.757523 
L 1205.096006 299.508406 
L 1184.035395 306.021067 
L 1157.615541 317.946636 
L 1137.599589 321.484882 
L 1130.252632 313.015273 
L 1112.417584 314.868112 
L 1106.523132 308.99119 
L 1096.842149 306.303697 
L 1090.178512 298.302755 
L 1082.533898 295.811315 
L 1062.636723 299.369595 
L 1043.563111 291.392264 
L 1036.18467 298.641911 
L 1005.243446 263.477331 
L 987.579408 252.779952 
L 992.646004 248.438893 
L 957.943662 261.505154 
L 944.663244 262.294935 
L 945.810222 254.737614 
L 928.026693 250.015541 
L 913.571045 253.385282 
L 909.211383 239.034458 
L 884.328465 236.050383 
L 871.879851 241.794576 
L 837.233585 246.905769 
L 830.472003 250.326077 
L 778.660615 255.144231 
L 772.311689 259.869322 
L 782.307501 269.353895 
L 769.015289 272.954034 
L 771.608333 276.726254 
L 758.319699 283.471102 
L 780.75697 292.993955 
L 777.287414 299.551337 
L 757.83887 298.954235 
L 753.816217 303.063108 
L 736.107508 295.888062 
L 714.156646 296.166231 
L 699.465323 302.007092 
L 652.551557 286.818661 
L 630.922824 287.177137 
L 602.340669 302.236683 
L 600.616266 312.349482 
L 586.377421 304.319561 
L 575.329795 319.532228 
L 579.373913 322.356385 
L 571.381557 332.850199 
L 583.134092 342.242077 
L 593.408077 341.855492 
L 602.234772 351.106687 
L 600.829615 358.231754 
L 607.862215 360.470816 
L 601.551831 368.682139 
L 588.127985 370.963985 
L 574.366292 385.257231 
L 586.951477 398.397785 
L 585.588738 407.724277 
L 600.706662 424.030892 
L 592.439305 429.611734 
L 590.063064 433.134238 
L 583.938214 432.188321 
L 574.422516 423.778101 
L 561.827077 420.104677 
L 557.588481 414.423037 
L 544.674779 411.526255 
L 536.278292 413.700554 
L 533.852169 411.126969 
L 514.999385 404.488154 
L 482.911823 399.880096 
L 481.223196 401.515417 
L 463.569231 389.815385 
L 447.772431 384.592477 
L 435.814062 376.458139 
L 445.890046 374.245246 
L 457.379308 362.664877 
L 449.636123 357.185954 
L 470.044662 351.534231 
L 469.678154 348.507323 
L 457.248988 350.73891 
L 457.686171 344.588301 
L 464.823277 340.722185 
L 478.222306 339.707025 
L 480.400892 335.089708 
L 477.341308 327.4548 
L 482.964771 320.204817 
L 482.802092 316.139308 
L 462.392145 311.633605 
L 454.301047 311.783148 
L 445.755593 305.299108 
L 435.131555 307.491818 
L 417.546224 302.623421 
L 417.847985 299.899292 
L 412.922535 293.895152 
L 401.882064 293.22471 
L 400.735085 288.926583 
L 404.193193 286.123176 
L 395.345074 278.283583 
L 380.987454 279.621247 
L 376.782343 278.925762 
L 373.284554 282.075 
L 368.113431 281.5152 
L 364.707946 272.648507 
L 361.456624 268.052365 
L 364.121169 266.758662 
L 375.293347 267.239177 
L 380.681211 264.211097 
L 376.692903 260.519372 
L 367.356085 258.082669 
L 368.18895 255.581928 
L 362.554232 253.056143 
L 353.873545 243.990864 
L 356.840806 240.255493 
L 355.484896 233.755711 
L 341.948692 230.453587 
L 334.683303 232.106437 
L 332.716339 228.66908 
L 318.139054 225.196662 
L 313.68852 217.02471 
L 312.507913 210.310272 
z
" clip-path="url(#pe28dbccd5c)" style="fill: #e8edf4; stroke: #b8c5d4; stroke-width: 0.45"/>
    <path d="M 640.464281 5.793954 
L 654.622272 2.823116 
L 654.150029 -4.727049 
L 681.613111 -16.535273 
L 668.884013 -18.228193 
L 702.034047 -30.380582 
L 698.288301 -36.665708 
L 729.258145 -43.976174 
L 774.969845 -52.872232 
L 821.054331 -55.463845 
L 844.767374 -60.596984 
L 871.713135 -62.395801 
L 881.338308 -56.928156 
L 872.038697 -52.619654 
L 780.69472 -39.150708 
L 737.682676 -25.971549 
L 695.344652 0.859372 
L 698.162369 12.360995 
L 724.648051 23.716653 
L 716.468944 24.931248 
L 671.225194 23.132431 
L 667.551 16.984684 
L 642.487771 13.272568 
z
" clip-path="url(#pe28dbccd5c)" style="fill: #e8edf4; stroke: #b8c5d4; stroke-width: 0.45"/>
    <path d="M -2564.307692 103.204033 
L -2564.307692 48.041958 
L -2530.384615 58.615385 
L -2494.083462 72.379985 
L -2495.274231 80.985923 
L -2485.936108 84.430708 
L -2489.148277 74.369677 
L -2451.562754 76.434277 
L -2424.455723 89.392062 
L -2438.184046 95.426908 
L -2460.880385 96.859708 
L -2461.223077 110.389062 
L -2466.766108 113.270446 
L -2479.733169 112.856308 
L -2490.285046 108.028846 
L -2508.695031 103.990892 
L -2511.791446 97.984569 
L -2525.852215 95.719754 
L -2541.599031 97.515877 
L -2549.122892 92.670831 
L -2546.115369 87.524631 
L -2562.698354 90.813785 
L -2556.452492 97.327708 
z
" clip-path="url(#pe28dbccd5c)" style="fill: #e8edf4; stroke: #b8c5d4; stroke-width: 0.45"/>
    <path d="M 1888.533359 283.817056 
L 1889.758329 264.895849 
L 1902.557548 258.524145 
L 1897.058063 252.108794 
L 1903.22012 250.164727 
L 1911.611736 272.666395 
L 1911.257554 286.292396 
L 1916.972411 300.263994 
L 1930.903582 324.788437 
L 1910.408232 320.21698 
L 1901.889253 340.224346 
L 1915.386819 354.414535 
L 1914.996145 364.09051 
L 1904.506624 355.743256 
L 1895.428109 366.460312 
L 1892.865117 354.840985 
L 1894.409208 341.352005 
L 1892.830772 326.411236 
L 1896.034154 315.943896 
L 1896.645923 297.429105 
z
" clip-path="url(#pe28dbccd5c)" style="fill: #e8edf4; stroke: #b8c5d4; stroke-width: 0.45"/>
    <path d="M 377.365492 375.312008 
L 379.811139 372.657429 
L 393.066859 368.055205 
L 390.959835 366.388837 
L 394.607933 362.959761 
L 408.904856 366.475398 
L 410.701737 369.209782 
L 412.790663 369.631497 
L 412.903216 370.829276 
L 419.677042 374.169322 
L 433.799972 373.338604 
L 431.096023 378.278553 
L 415.938451 380.676975 
L 397.14246 388.68722 
L 389.442751 385.870934 
L 392.495874 379.364712 
z
" clip-path="url(#pe28dbccd5c)" style="fill: #e8edf4; stroke: #b8c5d4; stroke-width: 0.45"/>
    <path d="M 548.957881 -112.935829 
L 575.988073 -115.457321 
L 597.025072 -115.624753 
L 599.854237 -111.894032 
L 607.80724 -115.209036 
L 620.858322 -117.492259 
L 641.394457 -114.45774 
L 636.039506 -112.346956 
L 604.99954 -109.470924 
L 603.068352 -107.198791 
L 586.884725 -104.910201 
L 571.885283 -108.192648 
L 579.772458 -112.515103 
z
" clip-path="url(#pe28dbccd5c)" style="fill: #e8edf4; stroke: #b8c5d4; stroke-width: 0.45"/>
    <path d="M 1190.507123 -109.497138 
L 1226.459908 -118.956 
L 1256.412392 -122.082461 
L 1283.314846 -115.111961 
L 1315.199838 -101.724946 
L 1311.781292 -89.274554 
L 1281.571477 -87.547384 
L 1243.005092 -91.542623 
L 1220.024492 -96.828461 
L 1209.397846 -106.760169 
z
" clip-path="url(#pe28dbccd5c)" style="fill: #e8edf4; stroke: #b8c5d4; stroke-width: 0.45"/>
    <path d="M 1824.568477 -39.161584 
L 1832.008985 -48.680815 
L 1850.276423 -51.278215 
L 1886.837746 -50.670784 
L 1936.887023 -43.328654 
L 1926 -33.046154 
L 1874.960446 -33.429415 
L 1851.9984 -30.158954 
z
" clip-path="url(#pe28dbccd5c)" style="fill: #e8edf4; stroke: #b8c5d4; stroke-width: 0.45"/>
    <path d="M 200.224247 249.331146 
L 203.378974 243.237779 
L 222.486216 238.747177 
L 236.986941 241.172789 
L 243.107497 243.370508 
L 241.629949 247.162048 
L 242.738289 250.695643 
L 217.277232 250.903501 
z
" clip-path="url(#pe28dbccd5c)" style="fill: #e8edf4; stroke: #b8c5d4; stroke-width: 0.45"/>
    <path d="M 1864.566277 -12.966877 
L 1877.7006 -18.439292 
L 1895.013277 -19.720338 
L 1914.685338 -14.426538 
L 1916.361 -10.787631 
L 1895.367185 -10.690708 
z
" clip-path="url(#pe28dbccd5c)" style="fill: #e8edf4; stroke: #b8c5d4; stroke-width: 0.45"/>
    <path d="M 1304.835785 -75.983077 
L 1330.129385 -94.162938 
L 1341.503308 -95.719523 
L 1351.908208 -94.817861 
L 1387.002877 -86.953938 
L 1382.891123 -81.326169 
z
" clip-path="url(#pe28dbccd5c)" style="fill: #e8edf4; stroke: #b8c5d4; stroke-width: 0.45"/>
    <path d="M -2564.307692 22.16955 
L -2564.307692 12.705494 
L -2550.798415 12.1542 
L -2530.771546 16.114892 
L -2531.957192 18.0078 
L -2546.221569 21.327416 
z
" clip-path="url(#pe28dbccd5c)" style="fill: #e8edf4; stroke: #b8c5d4; stroke-width: 0.45"/>
    <path d="M 1951.188785 -37.933569 
L 1954.5021 -42.417508 
L 2015.053892 -36.702369 
L 1999.051269 -31.2312 
L 1976.918746 -32.469531 
z
" clip-path="url(#pe28dbccd5c)" style="fill: #e8edf4; stroke: #b8c5d4; stroke-width: 0.45"/>
    <path d="M 2402.658 18.478154 
L 2420.307692 12.705494 
L 2420.307692 22.16955 
L 2405.124346 22.876523 
z
" clip-path="url(#pe28dbccd5c)" style="fill: #e8edf4; stroke: #b8c5d4; stroke-width: 0.45"/>
    <path d="M -2.878919 144.863104 
L 9.870929 135.953451 
L 46.431846 124.329116 
L 73.768281 110.03947 
L 132.385097 64.006501 
L 193.625008 36.220004 
L 224.008842 30.159193 
L 246.790278 30.89439 
L 267.875216 19.423892 
L 293.123765 20.036377 
L 317.984501 17.278048 
L 361.293486 27.409093 
L 343.459869 31.113339 
L 358.629815 39.810908 
L 335.070692 45.365723 
L 323.888255 46.64155 
L 329.754087 36.925507 
L 311.985583 31.418866 
L 290.487074 36.111245 
L 283.696791 46.26304 
L 270.494019 52.390752 
L 255.628379 49.044266 
L 237.547908 49.729734 
L 222.160654 42.409251 
L 213.862055 46.067346 
L 205.272955 46.636542 
L 203.241595 55.74654 
L 177.145871 53.528429 
L 173.480978 61.238513 
L 160.184473 61.191646 
L 137.19339 86.392612 
L 115.694166 105.871924 
L 120.737149 110.601868 
L 115.918839 116.08919 
L 102.18372 115.852353 
L 93.192498 128.83868 
L 94.043966 147.225751 
L 102.8928 154.242854 
L 98.312758 170.52093 
L 86.791457 180.013016 
L 80.686642 187.991778 
L 71.398479 179.49498 
L 44.058467 195.508313 
L 25.598055 198.753911 
L 6.450029 191.702463 
L 1.498631 176.816789 
z
" clip-path="url(#pe28dbccd5c)" style="fill: #e8edf4; stroke: #b8c5d4; stroke-width: 0.45"/>
    <path d="M 72.616569 -99.956169 
L 110.364508 -104.914061 
L 117.948738 -100.066938 
L 137.669815 -100.259677 
L 142.927615 -104.991877 
L 163.257923 -105.473446 
L 226.299185 -90.315369 
L 191.455892 -84.866769 
L 183.762277 -74.677246 
L 171.614908 -72.064061 
L 165.021231 -60.591831 
L 148.335923 -60.052384 
L 118.558938 -68.497154 
L 131.116985 -73.416692 
L 110.362154 -77.422108 
L 83.385831 -89.113384 
z
" clip-path="url(#pe28dbccd5c)" style="fill: #e8edf4; stroke: #b8c5d4; stroke-width: 0.45"/>
    <path d="M 168.48021 -109.184716 
L 211.236813 -113.051385 
L 231.340774 -109.721714 
L 245.343497 -113.868151 
L 280.351736 -110.409328 
L 307.488541 -105.550233 
L 286.956699 -98.093086 
L 246.800295 -96.4617 
L 205.964147 -98.771398 
L 203.500613 -102.58655 
L 183.631342 -102.829111 
z
" clip-path="url(#pe28dbccd5c)" style="fill: #e8edf4; stroke: #b8c5d4; stroke-width: 0.45"/>
    <path d="M 214.975523 -72.605169 
L 224.530754 -76.177477 
L 216.164769 -80.602569 
L 244.858985 -83.376092 
L 250.357015 -78.178246 
L 270.333969 -75.053308 
L 239.404431 -69.391338 
z
" clip-path="url(#pe28dbccd5c)" style="fill: #e8edf4; stroke: #b8c5d4; stroke-width: 0.45"/>
    <path d="M -135.586382 328.834701 
L -117.634347 325.822721 
L -94.382457 329.384936 
L -98.771456 313.71219 
L -85.700339 319.65172 
L -53.463309 308.854526 
L -49.306139 297.508528 
L -37.196681 294.712992 
L -35.191079 299.582104 
L -28.754978 299.810355 
L -12.655066 311.8962 
L -5.549239 310.817912 
L 9.661282 318.332301 
L 13.656744 318.039654 
L 20.190871 321.665193 
L 40.143858 324.215305 
L 33.143211 333.696659 
L 31.385895 343.561173 
L 27.584338 345.926324 
L 21.2756 344.651983 
L 21.720653 348.170194 
L 11.594616 355.950756 
L 11.389978 362.220141 
L 18.001381 360.050685 
L 22.757441 366.122586 
L 22.186456 370.035049 
L 26.261342 375.234016 
L 21.460919 379.45129 
L 25.027786 390.164768 
L 32.532873 391.921369 
L 30.948712 397.931378 
L 18.404934 405.753799 
L -8.903596 402.004833 
L -29.071238 406.497224 
L -30.655399 414.835176 
L -46.70594 416.630058 
L -62.285668 410.366755 
L -67.31935 413.360132 
L -92.807598 407.067493 
L -98.326402 401.68428 
L -91.166195 393.379241 
L -88.529505 365.793447 
L -102.81772 351.26267 
L -113.029977 344.257016 
L -134.190761 338.931402 
z
" clip-path="url(#pe28dbccd5c)" style="fill: #e8edf4; stroke: #b8c5d4; stroke-width: 0.45"/>
    <path d="M -826.958135 970.912862 
L -823.426687 965.089962 
L -819.788269 952.799477 
L -825.22443 944.594612 
L -826.319534 935.121845 
L -819.111387 923.217026 
L -804.214264 928.017448 
L -789.553978 939.704749 
L -787.26181 945.375244 
L -795.452366 958.046384 
L -799.704342 968.242542 
L -805.010637 973.501971 
L -811.640286 974.491534 
L -813.528543 970.59374 
L -816.625671 970.014885 
L -820.911635 973.769217 
z
" clip-path="url(#pe28dbccd5c)" style="fill: #e8edf4; stroke: #b8c5d4; stroke-width: 0.45"/>
    <path d="M 46.304483 417.832847 
L 49.098588 412.687544 
L 58.015396 407.40021 
L 60.369457 419.273188 
L 55.796569 429.969136 
L 49.510012 427.149988 
z
" clip-path="url(#pe28dbccd5c)" style="fill: #e8edf4; stroke: #b8c5d4; stroke-width: 0.45"/>
    <path d="M 80.686642 187.991778 
L 86.791457 180.013016 
L 98.312758 170.52093 
L 102.8928 154.242854 
L 94.043966 147.225751 
L 93.192498 128.83868 
L 102.18372 115.852353 
L 115.918839 116.08919 
L 120.737149 110.601868 
L 115.694166 105.871924 
L 137.19339 86.392612 
L 160.184473 61.191646 
L 173.480978 61.238513 
L 177.145871 53.528429 
L 203.241595 55.74654 
L 205.272955 46.636542 
L 213.862055 46.067346 
L 253.931166 62.27065 
L 254.296797 83.593141 
L 258.969857 88.981005 
L 235.151632 92.902054 
L 221.725618 102.563003 
L 223.887204 111.042628 
L 175.123096 134.085229 
L 165.039991 153.58386 
L 174.895561 163.339615 
L 188.137686 171.019647 
L 175.420037 186.640161 
L 161.019485 189.879319 
L 155.737517 213.122981 
L 147.873954 226.094282 
L 131.077126 224.756975 
L 123.240753 235.738416 
L 107.209531 236.375944 
L 102.809084 223.286582 
L 91.217663 207.57484 
z
" clip-path="url(#pe28dbccd5c)" style="fill: #e8edf4; stroke: #b8c5d4; stroke-width: 0.45"/>
    <path d="M 249.223761 276.180312 
L 257.527369 273.354009 
L 257.606791 267.834489 
L 253.765881 262.567548 
L 253.164844 256.44234 
L 266.547927 256.536431 
L 281.580283 251.320291 
L 284.793683 243.503595 
L 296.145405 239.069876 
L 294.84459 232.86775 
L 318.139054 225.196662 
L 332.716339 228.66908 
L 334.683303 232.106437 
L 341.948692 230.453587 
L 355.484896 233.755711 
L 356.840806 240.255493 
L 353.873545 243.990864 
L 362.554232 253.056143 
L 368.18895 255.581928 
L 367.356085 258.082669 
L 376.692903 260.519372 
L 380.681211 264.211097 
L 375.293347 267.239177 
L 364.121169 266.758662 
L 361.456624 268.052365 
L 364.707946 272.648507 
L 368.113742 281.515234 
L 356.227605 282.336645 
L 351.961676 285.376531 
L 351.070854 292.345336 
L 345.563498 291.007314 
L 333.068375 291.670601 
L 329.439258 288.433232 
L 324.243869 290.847038 
L 319.037746 288.846087 
L 308.133224 288.568107 
L 292.679427 285.245233 
L 278.692445 284.160147 
L 267.966087 284.467463 
L 260.378 288.220007 
L 253.759441 288.759867 
L 253.495414 282.595663 
z
" clip-path="url(#pe28dbccd5c)" style="fill: #e8edf4; stroke: #b8c5d4; stroke-width: 0.45"/>
    <path d="M 233.800731 332.460956 
L 236.503965 326.879186 
L 240.343444 323.274397 
L 243.3658 324.082219 
L 239.793925 317.860058 
L 252.36704 306.343766 
L 259.238177 304.732416 
L 260.72288 300.848216 
L 253.759441 288.759867 
L 260.378 288.220007 
L 267.966087 284.467463 
L 278.692445 284.160147 
L 292.679427 285.245233 
L 308.133224 288.568107 
L 319.037746 288.846087 
L 324.243869 290.847038 
L 329.439258 288.433232 
L 333.068375 291.670601 
L 345.563498 291.007314 
L 351.070854 292.345336 
L 351.961676 285.376531 
L 356.227605 282.336645 
L 373.284554 282.075 
L 376.782343 278.925762 
L 380.987454 279.621247 
L 395.345074 278.283583 
L 404.193193 286.123176 
L 400.735085 288.926583 
L 401.882064 293.22471 
L 412.922535 293.895152 
L 417.847985 299.899292 
L 417.546224 302.623421 
L 435.131555 307.491818 
L 445.755593 305.299108 
L 454.301047 311.783148 
L 462.392145 311.633605 
L 482.802092 316.139308 
L 482.964771 320.204817 
L 477.341308 327.4548 
L 480.400892 335.089708 
L 478.222306 339.707025 
L 464.823277 340.722185 
L 457.686171 344.588301 
L 457.248988 350.73891 
L 446.194207 351.846177 
L 436.982605 356.325689 
L 424.020247 357.055877 
L 412.093963 362.217279 
L 412.790663 369.631497 
L 410.701737 369.209782 
L 408.904856 366.475398 
L 394.607933 362.959761 
L 390.959835 366.388837 
L 389.057086 364.884021 
L 367.53425 361.384414 
L 366.581177 356.221223 
L 353.751907 357.926307 
L 348.613043 365.551244 
L 337.891694 375.784966 
L 331.611576 373.408725 
L 325.104639 375.636496 
L 318.926125 373.08531 
L 322.411423 371.581287 
L 328.620704 362.416194 
L 327.641157 359.936917 
L 330.536866 358.832155 
L 331.901362 360.748675 
L 340.06115 361.154017 
L 343.726043 360.130108 
L 341.144447 358.726258 
L 342.122563 356.662699 
L 337.287795 353.142699 
L 335.286486 347.354143 
L 330.242787 345.089165 
L 331.23736 340.397144 
L 324.98157 336.67179 
L 319.286032 336.153754 
L 309.081288 331.839885 
L 299.877556 333.20939 
L 296.575432 335.251483 
L 290.733929 335.249337 
L 287.251493 338.485633 
L 277.030293 339.816142 
L 272.302853 341.941951 
L 265.874623 338.558616 
L 256.997884 338.507098 
L 248.430965 336.973739 
L 242.453512 339.938854 
L 241.488276 336.227452 
z
" clip-path="url(#pe28dbccd5c)" style="fill: #e8edf4; stroke: #b8c5d4; stroke-width: 0.45"/>
    <path d="M 122.877985 269.336365 
L 126.738214 265.640705 
L 123.503349 258.594982 
L 132.963237 254.528682 
L 172.008438 243.440271 
L 185.827273 245.779306 
L 186.871216 249.156202 
L 217.277232 250.903501 
L 242.738289 250.695643 
L 249.839824 252.176769 
L 253.164844 256.44234 
L 253.765881 262.567548 
L 257.606791 267.834489 
L 257.527369 273.354009 
L 249.223761 276.180312 
L 253.495414 282.595663 
L 253.759441 288.759867 
L 260.72288 300.848216 
L 259.238177 304.732416 
L 252.36704 306.343766 
L 239.793925 317.860058 
L 243.3658 324.082219 
L 227.185035 317.95236 
L 217.217843 319.909307 
L 210.680854 318.487569 
L 202.500316 321.455188 
L 195.517558 316.547437 
L 189.824882 318.42675 
L 182.671115 310.772834 
L 172.376931 309.936392 
L 171.063237 305.601057 
L 161.567573 304.052672 
L 159.500436 307.628125 
L 151.978892 304.763899 
L 152.842524 300.954471 
L 142.490383 299.749893 
L 135.927635 295.292205 
L 130.252132 286.451242 
L 131.331136 281.677651 
L 127.905227 274.271306 
z
" clip-path="url(#pe28dbccd5c)" style="fill: #e8edf4; stroke: #b8c5d4; stroke-width: 0.45"/>
    <path d="M 59.261116 350.730324 
L 61.379055 347.340906 
L 60.843131 344.883811 
L 65.022482 344.120351 
L 72.028852 347.965555 
L 74.000825 344.311395 
L 86.211886 344.901699 
L 96.111103 342.418845 
L 102.748981 342.843864 
L 107.067143 345.678754 
L 108.357941 343.325767 
L 106.39527 334.304135 
L 111.369564 332.546103 
L 116.251555 326.162235 
L 126.538584 330.61885 
L 134.327733 324.954437 
L 139.201139 323.920511 
L 149.948962 328.146013 
L 156.451606 327.427274 
L 162.834759 330.041783 
L 161.722841 331.799816 
L 163.103079 336.597734 
L 162.05198 342.255707 
L 154.254245 342.282897 
L 156.936013 345.283787 
L 152.339514 354.197733 
L 149.699961 356.534621 
L 137.590503 356.879501 
L 130.603452 360.020991 
L 99.366718 355.372259 
L 96.273526 350.556095 
L 82.589925 352.962746 
L 80.980005 355.596574 
L 65.526208 353.251458 
z
" clip-path="url(#pe28dbccd5c)" style="fill: #e8edf4; stroke: #b8c5d4; stroke-width: 0.45"/>
    <path d="M 152.339514 354.197733 
L 156.936013 345.283787 
L 154.254245 342.282897 
L 162.05198 342.255707 
L 163.103079 336.597734 
L 175.252605 341.652524 
L 186.874794 339.956026 
L 187.989574 337.175516 
L 208.233061 333.772146 
L 211.48009 330.514384 
L 216.017917 329.669713 
L 230.84635 333.877327 
L 233.800731 332.460956 
L 241.488276 336.227452 
L 242.453512 339.938854 
L 233.996783 342.843149 
L 227.444053 352.233631 
L 219.073186 361.623398 
L 207.971896 364.235045 
L 199.329848 363.622202 
L 183.54548 369.330262 
L 172.108611 366.667812 
L 157.358885 359.024987 
L 154.668531 354.350854 
z
" clip-path="url(#pe28dbccd5c)" style="fill: #e8edf4; stroke: #b8c5d4; stroke-width: 0.45"/>
    <path d="M 296.575432 335.251483 
L 299.877556 333.20939 
L 309.081288 331.839885 
L 319.286032 336.153754 
L 324.98157 336.67179 
L 331.23736 340.397144 
L 330.242787 345.089165 
L 335.286486 347.354143 
L 337.287795 353.142699 
L 342.122563 356.662699 
L 341.144447 358.726258 
L 343.726043 360.130108 
L 340.06115 361.154017 
L 331.901362 360.748675 
L 330.536866 358.832155 
L 327.641157 359.936917 
L 328.620704 362.416194 
L 322.411423 371.581287 
L 318.926125 373.08531 
L 316.446134 366.76727 
L 317.907941 360.855287 
L 317.465034 354.778019 
L 300.796284 336.600954 
z
" clip-path="url(#pe28dbccd5c)" style="fill: #e8edf4; stroke: #b8c5d4; stroke-width: 0.45"/>
    <path d="M 207.971896 364.235045 
L 219.073186 361.623398 
L 227.444053 352.233631 
L 233.996783 342.843149 
L 248.430965 336.973739 
L 256.997884 338.507098 
L 265.874623 338.558616 
L 272.302853 341.941951 
L 277.030293 339.816142 
L 287.251493 338.485633 
L 290.733929 335.249337 
L 296.575432 335.251483 
L 300.796284 336.600954 
L 317.465034 354.778019 
L 317.907941 360.855287 
L 316.446134 366.76727 
L 318.926125 373.08531 
L 325.104639 375.636496 
L 331.611576 373.408725 
L 337.891694 375.784966 
L 338.213678 379.356126 
L 331.49924 382.33555 
L 327.293414 381.03867 
L 323.41959 397.742839 
L 315.278405 396.288902 
L 305.202455 391.255578 
L 288.902198 394.474702 
L 282.036069 398.00615 
L 261.701711 397.277751 
L 251.062647 395.118312 
L 245.697679 396.132204 
L 239.178578 388.026079 
L 242.386969 385.689192 
L 238.971077 383.965147 
L 234.624294 387.067998 
L 226.551084 383.045346 
L 225.464209 377.337644 
L 217.028946 374.080956 
L 215.476268 369.675142 
z
" clip-path="url(#pe28dbccd5c)" style="fill: #e8edf4; stroke: #b8c5d4; stroke-width: 0.45"/>
    <path d="M 219.541852 227.108174 
L 235.400633 222.861206 
L 258.622114 223.749166 
L 272.224862 222.380376 
L 274.166782 225.260344 
L 281.53449 226.149735 
L 294.84459 232.86775 
L 296.145405 239.069876 
L 284.793683 243.503595 
L 281.580283 251.320291 
L 266.547927 256.536431 
L 253.164844 256.44234 
L 249.839824 252.176769 
L 242.738289 250.695643 
L 241.629949 247.162048 
L 243.107497 243.370508 
L 236.986941 241.172789 
L 222.486216 238.747177 
z
" clip-path="url(#pe28dbccd5c)" style="fill: #e8edf4; stroke: #b8c5d4; stroke-width: 0.45"/>
    <path d="M 219.541852 227.108174 
L 220.02125 216.684838 
L 226.825844 207.989484 
L 239.875494 203.260971 
L 250.870888 213.605957 
L 261.979333 213.336563 
L 264.639636 202.706443 
L 276.432834 200.259365 
L 294.41814 207.096157 
L 305.836406 207.121916 
L 312.507913 210.310272 
L 313.68852 217.02471 
L 318.139054 225.196662 
L 294.84459 232.86775 
L 281.53449 226.149735 
L 274.166782 225.260344 
L 272.224862 222.380376 
L 258.622114 223.749166 
L 235.400633 222.861206 
z
" clip-path="url(#pe28dbccd5c)" style="fill: #e8edf4; stroke: #b8c5d4; stroke-width: 0.45"/>
    <path d="M 251.166397 183.407442 
L 268.673737 179.549717 
L 286.119541 177.538748 
L 301.14188 179.827339 
L 315.430987 179.417908 
L 317.515836 181.83473 
L 307.663615 189.813646 
L 311.769496 202.727551 
L 305.836406 207.121916 
L 294.41814 207.096157 
L 276.432834 200.259365 
L 264.639636 202.706443 
L 266.246693 194.537353 
L 261.155054 196.282506 
L 252.367755 191.361876 
z
" clip-path="url(#pe28dbccd5c)" style="fill: #e8edf4; stroke: #b8c5d4; stroke-width: 0.45"/>
    <path d="M 10.919881 284.977629 
L 19.237799 284.971905 
L 22.747424 279.760058 
L 26.19766 267.082478 
L 23.609625 262.400832 
L 26.313575 259.468631 
L 37.886392 258.715904 
L 40.454393 261.769028 
L 49.856324 254.942968 
L 46.690864 249.752587 
L 46.055482 241.900473 
L 56.520675 243.726479 
L 65.380242 241.618558 
L 65.62495 246.969573 
L 79.61694 250.19621 
L 79.469543 255.1104 
L 93.548111 252.510201 
L 101.332251 248.717946 
L 116.964929 254.185233 
L 123.503349 258.594982 
L 126.738214 265.640705 
L 122.877985 269.336365 
L 127.905227 274.271306 
L 131.331136 281.677651 
L 130.252132 286.451242 
L 135.927635 295.292205 
L 129.748406 296.736839 
L 126.097108 295.145523 
L 122.624691 297.781141 
L 112.681827 300.462909 
L 107.540817 303.912788 
L 97.478462 306.927631 
L 99.902643 311.042943 
L 101.368027 316.881943 
L 108.433786 320.209825 
L 116.251555 326.162235 
L 111.369564 332.546103 
L 106.39527 334.304135 
L 108.357941 343.325767 
L 107.067143 345.678754 
L 102.748981 342.843864 
L 96.111103 342.418845 
L 86.211886 344.901699 
L 74.000825 344.311395 
L 72.028852 347.965555 
L 65.022482 344.120351 
L 60.843131 344.883811 
L 46.005396 340.65008 
L 43.162636 343.658126 
L 31.385895 343.561173 
L 33.143211 333.696659 
L 40.143858 324.215305 
L 20.190871 321.665193 
L 13.656744 318.039654 
L 14.438092 311.969183 
L 11.673323 308.842362 
L 13.246036 299.48694 
z
" clip-path="url(#pe28dbccd5c)" style="fill: #e8edf4; stroke: #b8c5d4; stroke-width: 0.45"/>
    <path d="M 117.096584 377.950129 
L 117.900829 372.918594 
L 127.550329 373.391552 
L 130.086131 371.054665 
L 134.795683 373.314992 
L 140.229341 373.583312 
L 140.177823 369.71378 
L 144.99041 368.296336 
L 146.336302 362.703117 
L 157.358885 359.024987 
L 172.108611 366.667812 
L 183.54548 369.330262 
L 188.720651 367.261767 
L 192.084494 372.625231 
L 196.48351 376.571322 
L 191.152864 381.781369 
L 184.890657 378.716451 
L 175.317002 378.90821 
L 163.41433 376.609245 
L 156.945315 376.916203 
L 153.943709 379.789015 
L 148.975855 376.609245 
L 146.077284 382.3563 
L 155.85844 393.121296 
L 167.502094 401.35836 
L 172.729682 407.142981 
L 184.984615 412.384616 
L 183.461764 414.738581 
L 170.445743 409.615459 
L 162.415464 404.63079 
L 149.751478 400.515478 
L 138.107824 390.325045 
L 140.901929 389.290403 
L 134.588898 383.467145 
L 134.32988 378.793012 
L 125.428813 376.609245 
L 121.185065 382.585982 
z
" clip-path="url(#pe28dbccd5c)" style="fill: #e8edf4; stroke: #b8c5d4; stroke-width: 0.45"/>
    <path d="M 11.389978 362.220141 
L 11.594616 355.950756 
L 21.720653 348.170194 
L 21.2756 344.651983 
L 27.584338 345.926324 
L 31.385895 343.561173 
L 43.162636 343.658126 
L 46.005396 340.65008 
L 60.843131 344.883811 
L 61.379055 347.340906 
L 59.261116 350.730324 
L 65.526208 353.251458 
L 72.591251 353.627821 
L 71.492928 359.304398 
L 65.393121 361.639855 
L 55.147593 359.904719 
L 52.148849 365.488636 
L 45.553187 365.92868 
L 43.153334 363.734181 
L 35.390659 368.430138 
L 28.714859 369.088416 
L 22.757441 366.122586 
L 18.001381 360.050685 
z
" clip-path="url(#pe28dbccd5c)" style="fill: #e8edf4; stroke: #b8c5d4; stroke-width: 0.45"/>
    <path d="M 6.563796 317.130228 
L 8.064241 309.364691 
L 11.673323 308.842362 
L 14.438092 311.969183 
L 13.656744 318.039654 
L 9.661282 318.332301 
z
" clip-path="url(#pe28dbccd5c)" style="fill: #e8edf4; stroke: #b8c5d4; stroke-width: 0.45"/>
    <path d="M -37.196681 294.712992 
L -26.1004 291.981495 
L -15.96363 293.068727 
L -3.129351 290.19198 
L 5.635052 296.25279 
L 13.246036 299.48694 
L 11.673323 308.842362 
L 8.064241 309.364691 
L 6.563796 317.130228 
L -5.549239 310.817912 
L -12.655066 311.8962 
L -28.754978 299.810355 
L -35.191079 299.582104 
z
" clip-path="url(#pe28dbccd5c)" style="fill: #e8edf4; stroke: #b8c5d4; stroke-width: 0.45"/>
    <path d="M -26.1004 291.981852 
L -18.965236 288.177076 
L -6.840037 267.805868 
L 12.104066 262.0098 
L 23.609625 262.400832 
L 26.19766 267.082478 
L 22.747424 279.760058 
L 19.237799 284.971905 
L 10.919881 284.977629 
L 13.246036 299.48694 
L 5.635052 296.25279 
L -3.129351 290.19198 
L -15.96363 293.068727 
z
" clip-path="url(#pe28dbccd5c)" style="fill: #e8edf4; stroke: #b8c5d4; stroke-width: 0.45"/>
    <path d="M 21.460919 379.45129 
L 26.261342 375.234016 
L 22.186456 370.035049 
L 22.757441 366.122586 
L 28.714859 369.088416 
L 35.390659 368.430138 
L 43.153334 363.734181 
L 45.553187 365.92868 
L 52.148849 365.488636 
L 55.147593 359.904719 
L 65.393121 361.639855 
L 71.492928 359.304398 
L 72.591251 353.627821 
L 80.980005 355.596574 
L 82.589925 352.962746 
L 96.273526 350.556095 
L 99.366718 355.372259 
L 119.166583 358.948069 
L 117.666138 365.767688 
L 120.982573 371.662856 
L 109.960705 369.645806 
L 98.703432 374.559996 
L 99.469038 381.43328 
L 97.773971 385.377941 
L 102.312514 392.427242 
L 115.295621 399.400698 
L 122.25906 410.847584 
L 137.666349 422.005758 
L 148.516491 421.920254 
L 151.890883 424.980532 
L 148.006326 427.738861 
L 170.573106 436.93186 
L 182.446442 444.152886 
L 183.880343 446.738775 
L 181.293024 451.696969 
L 173.608341 445.232248 
L 161.579021 442.953675 
L 155.751828 451.909837 
L 165.759088 457.042618 
L 164.116255 464.267937 
L 158.331992 465.088996 
L 150.936379 476.964479 
L 145.164281 478.031319 
L 145.217945 473.797946 
L 148.042817 466.371566 
L 151.052294 463.413964 
L 141.41925 448.407367 
L 135.671479 446.682249 
L 131.583714 440.706227 
L 122.686225 438.189028 
L 116.695178 432.623715 
L 106.450365 431.726453 
L 82.964857 416.463342 
L 73.550047 408.487442 
L 69.23117 394.799906 
L 62.342145 393.189986 
L 51.077716 388.619961 
L 44.70315 390.490687 
L 36.702923 396.916413 
L 30.948712 397.931378 
L 32.532873 391.921369 
L 25.027786 390.164768 
z
" clip-path="url(#pe28dbccd5c)" style="fill: #e8edf4; stroke: #b8c5d4; stroke-width: 0.45"/>
    <path d="M 100.121592 482.128386 
L 102.05922 475.019338 
L 118.262166 476.285093 
L 142.897514 473.568622 
L 137.911056 484.467062 
L 139.983202 488.756961 
L 137.07676 495.877099 
L 126.487782 490.662033 
L 119.447067 489.168027 
z
" clip-path="url(#pe28dbccd5c)" style="fill: #e8edf4; stroke: #b8c5d4; stroke-width: 0.45"/>
    <path d="M 40.984593 435.922977 
L 48.599871 436.6156 
L 55.523241 432.323197 
L 63.830426 442.153724 
L 61.885643 460.467096 
L 55.589784 459.593446 
L 49.942186 464.216062 
L 44.699572 460.543657 
L 44.145044 443.838773 
z
" clip-path="url(#pe28dbccd5c)" style="fill: #e8edf4; stroke: #b8c5d4; stroke-width: 0.45"/>
    <path d="M 40.015064 220.061377 
L 46.29375 212.169193 
L 58.492648 211.309853 
L 63.35389 207.490051 
L 74.492387 203.584386 
L 74.023006 210.705239 
L 69.923077 215.215161 
L 71.584514 219.092563 
L 79.091749 221.18832 
L 75.708055 226.411615 
L 71.584514 224.907592 
L 61.615177 234.87693 
L 65.380242 241.618558 
L 56.520675 243.726479 
L 46.055482 241.900473 
L 40.435074 234.216148 
z
" clip-path="url(#pe28dbccd5c)" style="fill: #e8edf4; stroke: #b8c5d4; stroke-width: 0.45"/>
    <path d="M 78.977265 230.585242 
L 99.289442 225.995898 
L 103.707777 232.938587 
L 95.399877 244.153645 
L 80.9106 236.332655 
z
" clip-path="url(#pe28dbccd5c)" style="fill: #e8edf4; stroke: #b8c5d4; stroke-width: 0.45"/>
    <path d="M 117.666138 365.767688 
L 119.166583 358.948069 
L 130.603452 360.020991 
L 137.590503 356.879501 
L 149.699961 356.534621 
L 152.339514 354.197733 
L 154.668531 354.350854 
L 157.358885 359.024987 
L 146.336302 362.703117 
L 144.99041 368.296336 
L 140.177823 369.71378 
L 140.229341 373.583312 
L 134.795683 373.314992 
L 130.086131 371.054665 
L 127.550329 373.391552 
L 117.900829 372.918594 
L 120.982573 371.662856 
z
" clip-path="url(#pe28dbccd5c)" style="fill: #e8edf4; stroke: #b8c5d4; stroke-width: 0.45"/>
    <path d="M 213.862055 46.067346 
L 222.160654 42.409251 
L 237.547908 49.729734 
L 255.628379 49.044266 
L 270.494019 52.390752 
L 283.696791 46.26304 
L 290.487074 36.111245 
L 311.985583 31.418866 
L 329.754087 36.925507 
L 323.888255 46.64155 
L 321.866912 56.336129 
L 343.072058 65.562041 
L 330.294304 76.002191 
L 346.398231 91.763354 
L 337.076717 103.633778 
L 349.541788 113.938337 
L 343.881311 122.961042 
L 364.376661 132.447404 
L 359.169107 139.508869 
L 316.661505 165.182079 
L 291.533164 166.283621 
L 267.184024 171.360235 
L 244.657313 174.280987 
L 236.641345 166.727244 
L 223.231072 162.182262 
L 226.313531 148.541592 
L 219.589076 136.051478 
L 226.191178 127.988285 
L 238.745689 119.291857 
L 270.422467 104.275242 
L 279.665552 101.380249 
L 278.225211 95.524434 
L 258.969857 88.981005 
L 254.296797 83.593141 
L 253.931166 62.27065 
z
" clip-path="url(#pe28dbccd5c)" style="fill: #e8edf4; stroke: #b8c5d4; stroke-width: 0.45"/>
    <path d="M 161.722841 331.799816 
L 164.796714 326.995815 
L 170.930865 327.230506 
L 175.659021 325.798035 
L 176.033237 324.510099 
L 178.684238 323.852537 
L 179.591518 320.702103 
L 182.769141 320.099993 
L 184.914985 317.60748 
L 189.043535 317.590665 
L 189.824882 318.42675 
L 195.517558 316.547437 
L 202.500316 321.455188 
L 210.680854 318.487569 
L 217.217843 319.909307 
L 227.185035 317.95236 
L 240.343444 323.274397 
L 236.503965 326.879186 
L 233.800731 332.460956 
L 230.84635 333.877327 
L 216.017917 329.669713 
L 211.48009 330.514384 
L 208.233061 333.772146 
L 187.989574 337.175516 
L 186.874794 339.956026 
L 175.252605 341.652524 
L 163.103079 336.597734 
z
" clip-path="url(#pe28dbccd5c)" style="fill: #e8edf4; stroke: #b8c5d4; stroke-width: 0.45"/>
    <path d="M 97.478462 306.927631 
L 107.540817 303.912788 
L 112.681827 300.462909 
L 122.624691 297.781141 
L 126.097108 295.145523 
L 129.748406 296.736839 
L 135.927635 295.292205 
L 142.490383 299.749893 
L 152.842524 300.954471 
L 151.978892 304.763899 
L 159.500436 307.628125 
L 161.567573 304.052672 
L 171.063237 305.601057 
L 172.376931 309.936392 
L 182.671115 310.772834 
L 189.043535 317.590665 
L 184.914985 317.60748 
L 182.769141 320.099993 
L 179.591518 320.702103 
L 178.684238 323.852537 
L 176.033237 324.510099 
L 175.659021 325.798035 
L 170.930865 327.230506 
L 164.796714 326.995815 
L 162.834759 330.041783 
L 156.451606 327.427274 
L 149.948962 328.146013 
L 139.201139 323.920511 
L 134.327733 324.954437 
L 126.538584 330.61885 
L 116.251555 326.162235 
L 108.433786 320.209825 
L 101.368027 316.881943 
L 99.902643 311.042943 
z
" clip-path="url(#pe28dbccd5c)" style="fill: #e8edf4; stroke: #b8c5d4; stroke-width: 0.45"/>
    <path d="M 188.720651 367.261767 
L 199.329848 363.622202 
L 207.971896 364.235045 
L 215.476268 369.675142 
L 217.028946 374.080956 
L 225.464209 377.337644 
L 226.551084 383.045346 
L 234.624294 387.067998 
L 238.971077 383.965147 
L 242.386969 385.689192 
L 239.178578 388.026079 
L 241.71438 390.439528 
L 238.298489 393.58066 
L 239.540631 398.637954 
L 246.267949 404.614691 
L 240.989559 408.943586 
L 238.660542 413.3494 
L 240.161702 414.996526 
L 237.884203 416.950253 
L 226.753421 417.989201 
L 226.292123 416.950385 
L 229.500692 411.931846 
L 227.534123 412.008416 
L 216.200492 403.771616 
L 213.716492 404.537862 
L 211.801708 409.135062 
L 208.489569 410.131154 
L 209.628 408.943569 
L 199.8 404.578431 
L 194.102585 400.285292 
L 197.363077 399.672462 
L 199.381292 393.159646 
L 192.705369 387.834416 
L 196.172723 381.743077 
L 191.1528 381.781431 
L 196.48351 376.571322 
L 192.084494 372.625231 
z
" clip-path="url(#pe28dbccd5c)" style="fill: #e8edf4; stroke: #b8c5d4; stroke-width: 0.45"/>
   </g>
   <g id="PathCollection_1">
    <defs>
     <path id="mf839760c01" d="M 0 2.12132 
C 0.562581 2.12132 1.102195 1.897805 1.5 1.5 
C 1.897805 1.102195 2.12132 0.562581 2.12132 0 
C 2.12132 -0.562581 1.897805 -1.102195 1.5 -1.5 
C 1.102195 -1.897805 0.562581 -2.12132 0 -2.12132 
C -0.562581 -2.12132 -1.102195 -1.897805 -1.5 -1.5 
C -1.897805 -1.102195 -2.12132 -0.562581 -2.12132 0 
C -2.12132 0.562581 -1.897805 1.102195 -1.5 1.5 
C -1.102195 1.897805 -0.562581 2.12132 0 2.12132 
z
" style="stroke: #ffffff; stroke-width: 0.5"/>
    </defs>
    <g clip-path="url(#pe28dbccd5c)">
     <use xlink:href="#mf839760c01" x="203.754462" y="169.682308" style="fill: #8aa0b7; stroke: #ffffff; stroke-width: 0.5"/>
     <use xlink:href="#mf839760c01" x="60" y="348.461539" style="fill: #8aa0b7; stroke: #ffffff; stroke-width: 0.5"/>
     <use xlink:href="#mf839760c01" x="13.384615" y="314.076923" style="fill: #8aa0b7; stroke: #ffffff; stroke-width: 0.5"/>
     <use xlink:href="#mf839760c01" x="133.153846" y="364.384616" style="fill: #8aa0b7; stroke: #ffffff; stroke-width: 0.5"/>
    </g>
   </g>
   <g id="PatchCollection_2">
    <defs>
     <path id="m3ce7afcafc" d="M 251.166397 -188.592558 
L 268.673737 -192.450283 
L 286.119541 -194.461252 
L 301.14188 -192.172662 
L 315.430987 -192.582092 
L 317.515836 -190.165271 
L 307.663615 -182.186354 
L 311.769496 -169.272449 
L 305.836406 -164.878084 
L 294.41814 -164.903843 
L 276.432834 -171.740635 
L 264.639636 -169.293557 
L 266.246693 -177.462647 
L 261.155054 -175.717494 
L 252.367755 -180.638124 
z
" style="stroke: #b45309; stroke-width: 1.15"/>
    </defs>
    <g clip-path="url(#pe28dbccd5c)">
     <use xlink:href="#m3ce7afcafc" x="0" y="372" style="fill: #f59e0b; stroke: #b45309; stroke-width: 1.15"/>
    </g>
   </g>
   <g id="PathCollection_2">
    <defs>
     <path id="m75907b18ff" d="M 0 3.316625 
C 0.879579 3.316625 1.723251 2.967164 2.345208 2.345208 
C 2.967164 1.723251 3.316625 0.879579 3.316625 0 
C 3.316625 -0.879579 2.967164 -1.723251 2.345208 -2.345208 
C 1.723251 -2.967164 0.879579 -3.316625 0 -3.316625 
C -0.879579 -3.316625 -1.723251 -2.967164 -2.345208 -2.345208 
C -2.967164 -1.723251 -3.316625 -0.879579 -3.316625 0 
C -3.316625 0.879579 -2.967164 1.723251 -2.345208 2.345208 
C -1.723251 2.967164 -0.879579 3.316625 0 3.316625 
z
" style="stroke: #ffffff"/>
    </defs>
    <g clip-path="url(#pe28dbccd5c)">
     <use xlink:href="#m75907b18ff" x="288" y="186" style="fill: #f97316; stroke: #ffffff"/>
    </g>
   </g>
   <g id="PathCollection_3">
    <path d="M 288 190.449719 
C 289.180079 190.449719 290.311984 189.980869 291.146427 189.146427 
C 291.980869 188.311985 292.449719 187.180079 292.449719 186 
C 292.449719 184.819921 291.980869 183.688016 291.146427 182.853574 
C 290.311984 182.019132 289.180079 181.550281 288 181.550281 
C 286.819921 181.550281 285.688016 182.019132 284.853573 182.853574 
C 284.019131 183.688016 283.550281 184.819921 283.550281 186 
C 283.550281 187.180079 284.019131 188.311985 284.853573 189.146427 
C 285.688016 189.980869 286.819921 190.449719 288 190.449719 
L 288 190.449719 
z
" clip-path="url(#pe28dbccd5c)" style="fill: none; stroke: #7c2d12; stroke-width: 1.1"/>
   </g>
  </g>
 </g>
 <defs>
  <clipPath id="pe28dbccd5c">
   <rect x="0" y="-0" width="576" height="372"/>
  </clipPath>
 </defs>
</svg>
