<?xml version="1.0" encoding="utf-8" standalone="no"?>
<!DOCTYPE svg PUBLIC "-//W3C//DTD SVG 1.1//EN"
  "http://www.w3.org/Graphics/SVG/1.1/DTD/svg11.dtd">
<svg xmlns:xlink="http://www.w3.org/1999/xlink" width="486.869409pt" height="432pt" viewBox="0 0 486.869409 432" xmlns="http://www.w3.org/2000/svg" version="1.1">
 <metadata>
  <rdf:RDF xmlns:dc="http://purl.org/dc/elements/1.1/" xmlns:cc="http://creativecommons.org/ns#" xmlns:rdf="http://www.w3.org/1999/02/22-rdf-syntax-ns#">
   <cc:Work>
    <dc:type rdf:resource="http://purl.org/dc/dcmitype/StillImage"/>
    <dc:date>2026-06-09T04:57:19.431700</dc:date>
    <dc:format>image/svg+xml</dc:format>
    <dc:creator>
     <cc:Agent>
      <dc:title>Matplotlib v3.10.8, https://matplotlib.org/</dc:title>
     </cc:Agent>
    </dc:creator>
   </cc:Work>
  </rdf:RDF>
 </metadata>
 <defs>
  <style type="text/css">*{stroke-linejoin: round; stroke-linecap: butt}</style>
 </defs>
 <g id="figure_1">
  <g id="patch_1">
   <path d="M 0 432 
L 486.869409 432 
L 486.869409 0 
L 0 0 
z
" style="fill: #eaf3ff"/>
  </g>
  <g id="axes_1">
   <g id="PatchCollection_1">
    <path d="M 218.395679 -39.027026 
L 223.189196 -39.578742 
L 234.766574 -52.249859 
L 234.659579 -56.017301 
L 232.163214 -58.64512 
L 231.490987 -63.209985 
L 234.836927 -64.677314 
L 235.507252 -71.497382 
L 230.904829 -78.038299 
L 234.970828 -79.430619 
L 271.298835 -80.178891 
L 315.290718 -55.290706 
L 316.081417 -48.565764 
L 332.719831 -36.977693 
L 327.367977 -22.694104 
L 328.054579 -16.124728 
L 335.476207 -11.901252 
L 335.823971 -8.887299 
L 332.632542 -1.886812 
L 333.297235 1.636152 
L 332.537835 7.173712 
L 341.383556 25.87054 
L 345.637752 28.405739 
L 336.41517 35.126623 
L 323.739833 39.628106 
L 316.785523 39.437852 
L 312.654667 42.915143 
L 304.584934 43.213958 
L 301.558585 44.67921 
L 287.628512 41.412645 
L 278.906492 42.350143 
L 275.660823 26.584615 
L 269.397827 17.973403 
L 258.033547 15.81088 
L 251.454891 12.330458 
L 239.467314 8.438051 
L 234.6248 5.48701 
L 228.3649 -9.119362 
L 221.641876 -15.610558 
L 219.322992 -22.334181 
L 220.482134 -28.362319 
z
" clip-path="url(#p2e49e8729e)" style="fill: #e8edf4; stroke: #b8c5d4; stroke-width: 0.45"/>
    <path d="M 19.501866 -24.073793 
L 22.45034 -25.29823 
L 22.813358 -30.351731 
L 24.709918 -33.331954 
L 28.928357 -35.768249 
L 31.973876 -34.587541 
L 35.938321 -39.025229 
L 42.2528 -38.910812 
L 42.99561 -35.629272 
L 47.326069 -33.575763 
L 63.829617 -50.211699 
L 63.441439 -59.749013 
L 68.47577 -71.010363 
L 73.787457 -76.981592 
L 81.419824 -82.568837 
L 82.752088 -86.26671 
L 83.040825 -90.518096 
L 84.930197 -94.540649 
L 84.32337 -101.110319 
L 85.768254 -111.382954 
L 88.033823 -118.615162 
L 91.505858 -124.813727 
L 93.235286 -139.899048 
L 97.748452 -145.784615 
L 103.955703 -149.517532 
L 113.494814 -145.577946 
L 120.87798 -141.3017 
L 138.005728 -137.897955 
L 141.471772 -144.898335 
L 143.06402 -145.791803 
L 148.346953 -144.627569 
L 161.252667 -150.413096 
L 165.825738 -147.960927 
L 169.579321 -148.308669 
L 171.317735 -151.127451 
L 175.62603 -152.120659 
L 191.780937 -150.634142 
L 195.608202 -151.863971 
L 202.630148 -142.294309 
L 207.835205 -140.888662 
L 210.938231 -142.835242 
L 216.29844 -142.072365 
L 222.754293 -144.524534 
L 225.50748 -139.57347 
L 235.712723 -131.870117 
L 235.011247 -118.315642 
L 239.6574 -116.745858 
L 235.930773 -112.629855 
L 231.477511 -109.55109 
L 227.045215 -103.505879 
L 224.606524 -98.116317 
L 223.954169 -88.811431 
L 221.268674 -84.382131 
L 221.171629 -75.642738 
L 217.837973 -72.411517 
L 217.408461 -65.513573 
L 215.816213 -64.619806 
L 214.743333 -58.27837 
L 217.658261 -53.008017 
L 218.395679 -39.027026 
L 220.482134 -28.362319 
L 219.322992 -22.334181 
L 221.641876 -15.610558 
L 228.3649 -9.119362 
L 234.624866 5.487027 
L 230.058386 4.307518 
L 214.488142 6.263982 
L 211.380922 7.649561 
L 208.077217 15.0495 
L 210.671659 20.161706 
L 207.177459 45.522059 
L 218.41365 52.095922 
L 221.595151 49.987901 
L 222.564397 62.488066 
L 213.692617 62.392219 
L 204.660294 51.072762 
L 195.777132 49.452958 
L 193.176101 43.378694 
L 186.089459 47.038229 
L 176.806737 45.42142 
L 172.932747 40.158256 
L 165.572344 39.08897 
L 160.139651 39.368721 
L 159.474717 35.765497 
L 150.196788 34.79026 
L 135.10937 37.305029 
L 135.729376 23.510339 
L 131.862574 19.208634 
L 131.011937 12.079461 
L 132.7198 5.091661 
L 130.370366 0.619229 
L 130.157706 -6.67468 
L 116.092251 -6.573442 
L 117.101633 -10.749948 
L 111.187312 -10.706218 
L 110.562514 -8.697638 
L 103.372837 -8.244764 
L 98.727283 1.409363 
L 92.32175 -0.227813 
L 88.49688 1.402773 
L 80.831566 2.340271 
L 73.728152 -7.469606 
L 67.541867 -23.059019 
L 33.334295 -23.212374 
L 21.125863 -20.478356 
z
" clip-path="url(#p2e49e8729e)" style="fill: #e8edf4; stroke: #b8c5d4; stroke-width: 0.45"/>
    <path d="M 67.755724 240.073432 
L 73.308824 234.340621 
L 77.886686 237.514334 
L 79.840754 242.470789 
L 92.330136 245.507323 
L 98.557755 244.660879 
L 108.90497 238.73338 
L 108.916951 195.920001 
L 112.046335 197.660811 
L 118.91912 208.675357 
L 117.851032 215.738636 
L 120.437686 219.808513 
L 128.740977 218.626008 
L 140.027487 209.965689 
L 142.86454 204.413188 
L 148.519476 201.726494 
L 153.405245 203.134238 
L 158.94277 206.381034 
L 168.377648 206.954315 
L 175.790766 204.255042 
L 179.001619 195.092128 
L 185.30891 194.164215 
L 188.794124 189.809795 
L 192.654337 182.085176 
L 203.062055 173.430847 
L 219.464366 164.89393 
L 224.180607 165.020327 
L 229.789417 166.98398 
L 233.695756 165.59241 
L 239.85748 166.750953 
L 248.426146 191.302003 
L 246.360656 204.225689 
L 247.35027 208.387818 
L 241.500646 206.26482 
L 238.149617 207.090896 
L 237.055171 210.466486 
L 233.889845 214.818511 
L 233.998271 218.826686 
L 240.916582 225.110015 
L 247.701308 223.858621 
L 250.061525 218.710473 
L 258.853633 218.807517 
L 255.957275 227.246191 
L 254.58787 236.877554 
L 251.588477 242.110167 
L 241.412587 249.640099 
L 226.692381 269.790601 
L 205.409693 288.705285 
L 196.655923 293.979831 
L 184.540342 298.477422 
L 178.630814 299.081254 
L 177.135011 302.299296 
L 170.089703 300.586042 
L 164.351501 302.792306 
L 151.787838 300.558487 
L 144.764694 301.972221 
L 139.965187 301.365393 
L 128.00955 305.941459 
L 118.112812 307.776917 
L 110.95129 312.158294 
L 105.678542 312.436848 
L 100.773603 308.303473 
L 96.855883 308.091413 
L 91.863484 302.916307 
L 91.315962 304.523531 
L 89.775231 301.407925 
L 89.839928 294.611219 
L 86.073764 286.84287 
L 89.814768 284.731254 
L 89.511654 275.834314 
L 81.920621 264.985104 
z
M 191.261569 255.134492 
L 199.957232 264.050601 
L 204.104984 262.898648 
L 206.236368 259.194784 
L 212.697012 257.384486 
L 218.223754 247.963985 
L 209.141711 240.894117 
L 203.723994 243.258527 
L 197.443061 247.793858 
z
" clip-path="url(#p2e49e8729e)" style="fill: #e8edf4; stroke: #b8c5d4; stroke-width: 0.45"/>
    <path d="M 191.261569 255.134492 
L 197.443061 247.793858 
L 203.723994 243.258527 
L 209.141711 240.894117 
L 218.223754 247.963985 
L 212.697012 257.384486 
L 206.236368 259.194784 
L 204.104984 262.898648 
L 199.957232 264.050601 
z
" clip-path="url(#p2e49e8729e)" style="fill: #e8edf4; stroke: #b8c5d4; stroke-width: 0.45"/>
    <path d="M 171.148806 114.412841 
L 184.105439 115.682206 
L 187.871004 117.017466 
L 191.78513 116.748497 
L 198.20504 109.246122 
L 208.286282 99.712403 
L 212.435831 98.800664 
L 213.845372 94.781706 
L 220.445593 90.163707 
L 229.22572 88.576851 
L 229.975718 92.901319 
L 239.64482 92.670689 
L 245.01701 95.117168 
L 247.515605 97.985371 
L 253.035757 98.827621 
L 259.056707 102.552451 
L 259.082466 117.224135 
L 256.822288 125.257858 
L 256.325085 133.920574 
L 258.188099 137.35427 
L 256.878598 144.178532 
L 255.127605 145.233442 
L 252.070704 153.593642 
L 239.85748 166.750953 
L 233.695756 165.59241 
L 229.789417 166.98398 
L 224.180607 165.020327 
L 219.464366 164.89393 
L 212.074011 159.655925 
L 203.109979 157.876777 
L 199.700244 150.52536 
L 199.67149 146.436314 
L 194.707246 145.189712 
L 181.588274 132.45652 
L 177.943715 125.748472 
L 175.611054 123.680586 
z
" clip-path="url(#p2e49e8729e)" style="fill: #e8edf4; stroke: #b8c5d4; stroke-width: 0.45"/>
    <path d="M 108.913357 162.086829 
L 120.339443 161.683076 
L 120.681495 120.39066 
L 129.310664 120.007274 
L 147.183617 115.948779 
L 151.613517 120.72732 
L 159.013456 116.184202 
L 162.52982 116.158443 
L 169.064746 113.546629 
L 171.148806 114.412841 
L 175.611054 123.680586 
L 177.943715 125.748472 
L 181.588274 132.45652 
L 194.707246 145.189712 
L 199.67149 146.436314 
L 199.700244 150.52536 
L 203.109979 157.876777 
L 212.074011 159.655925 
L 219.464366 164.89393 
L 203.062055 173.430847 
L 192.654337 182.085176 
L 188.794124 189.809795 
L 185.30891 194.164215 
L 179.001619 195.092128 
L 175.790766 204.255042 
L 168.377648 206.954315 
L 158.94277 206.381034 
L 153.405245 203.134238 
L 148.519476 201.726494 
L 142.86454 204.413188 
L 140.027487 209.965689 
L 128.740977 218.626008 
L 120.437686 219.808513 
L 117.851032 215.738636 
L 118.91912 208.675357 
L 112.046335 197.660811 
L 108.916951 195.920001 
z
" clip-path="url(#p2e49e8729e)" style="fill: #e8edf4; stroke: #b8c5d4; stroke-width: 0.45"/>
    <path d="M 14.306992 109.374317 
L 26.825128 105.194815 
L 34.340083 105.54106 
L 41.250607 110.782659 
L 43.003397 109.967965 
L 89.993282 109.467767 
L 98.025208 115.022064 
L 126.089627 116.662834 
L 156.886266 109.304229 
L 164.403617 109.971559 
L 168.977885 112.584571 
L 169.064746 113.546629 
L 162.52982 116.158443 
L 159.013456 116.184202 
L 151.613517 120.72732 
L 147.183617 115.948779 
L 129.310664 120.007274 
L 120.681495 120.39066 
L 120.339443 161.683076 
L 108.913357 162.086829 
L 108.90497 238.73338 
L 98.557755 244.660879 
L 92.330136 245.507323 
L 79.840754 242.470789 
L 77.886686 237.514334 
L 73.308824 234.340621 
L 67.755724 240.073432 
L 59.140932 231.316068 
L 54.604403 222.850437 
L 45.30371 185.315797 
L 45.043727 171.447426 
L 43.559905 165.12456 
L 39.049734 160.346618 
L 33.066524 150.769169 
L 24.442746 129.584723 
L 15.010864 118.268261 
z
" clip-path="url(#p2e49e8729e)" style="fill: #e8edf4; stroke: #b8c5d4; stroke-width: 0.45"/>
    <path d="M 132.009339 95.213613 
L 132.543083 58.328932 
L 156.680795 58.475098 
L 155.692979 54.473512 
L 157.42001 50.131671 
L 155.382676 44.694785 
L 156.701163 39.072796 
L 155.476126 35.473764 
L 159.474717 35.765497 
L 160.139651 39.368721 
L 165.572344 39.08897 
L 172.932747 40.158256 
L 176.806737 45.42142 
L 186.089459 47.038229 
L 193.176101 43.378694 
L 195.777132 49.452958 
L 204.660294 51.072762 
L 213.692617 62.392219 
L 222.564397 62.488066 
L 221.595151 49.987901 
L 218.41365 52.095922 
L 207.177459 45.522059 
L 210.671659 20.161706 
L 208.077217 15.0495 
L 211.380922 7.649561 
L 214.488142 6.263982 
L 230.058386 4.307518 
L 234.6248 5.48701 
L 239.467314 8.438051 
L 251.454891 12.330458 
L 258.033547 15.81088 
L 263.505177 20.982391 
L 266.453052 30.82222 
L 264.478018 33.963585 
L 262.147753 43.360723 
L 264.374983 52.965728 
L 260.727429 57.000861 
L 257.20807 67.7698 
L 263.3039 70.772188 
L 228.127081 80.326874 
L 229.22572 88.576851 
L 220.445593 90.163707 
L 213.845372 94.781706 
L 212.435831 98.800664 
L 208.286282 99.712403 
L 198.20504 109.246122 
L 191.78513 116.748497 
L 187.871004 117.017466 
L 184.105439 115.682206 
L 171.148806 114.412841 
L 164.403617 109.971559 
L 156.886266 109.304229 
L 147.394479 111.938806 
L 139.829804 104.697612 
z
" clip-path="url(#p2e49e8729e)" style="fill: #e8edf4; stroke: #b8c5d4; stroke-width: 0.45"/>
    <path d="M 257.20807 67.7698 
L 260.727429 57.000861 
L 264.374983 52.965728 
L 262.147753 43.360723 
L 264.478018 33.963585 
L 266.453052 30.82222 
L 263.505177 20.982391 
L 258.033547 15.81088 
L 269.397827 17.973403 
L 275.660823 26.584615 
L 278.906492 42.350143 
L 275.660894 51.160222 
L 278.906492 66.229669 
L 282.930842 66.06074 
L 287.113338 69.798149 
L 291.969155 78.181712 
L 292.955175 93.087022 
L 287.937617 95.528109 
L 284.399088 103.571417 
L 276.835012 96.410495 
L 275.977187 88.238992 
L 278.415878 82.849431 
L 277.743156 78.204476 
L 273.166492 75.270977 
L 269.977204 76.33607 
L 263.3039 70.772188 
z
" clip-path="url(#p2e49e8729e)" style="fill: #e8edf4; stroke: #b8c5d4; stroke-width: 0.45"/>
    <path d="M 228.127081 80.326874 
L 263.3039 70.772188 
L 269.977204 76.33607 
L 273.166492 75.270977 
L 277.743156 78.204476 
L 278.415878 82.849431 
L 275.977187 88.238992 
L 276.835012 96.410495 
L 284.399088 103.571417 
L 287.937617 95.528109 
L 292.955175 93.087022 
L 291.969155 78.181712 
L 287.113338 69.798149 
L 282.930842 66.06074 
L 278.906492 66.229669 
L 275.660894 51.160222 
L 278.906492 42.350143 
L 287.628512 41.412645 
L 301.558585 44.67921 
L 304.584934 43.213958 
L 312.654667 42.915143 
L 316.785523 39.437852 
L 323.739833 39.628106 
L 336.41517 35.126623 
L 345.637735 28.405693 
L 347.513329 33.602963 
L 347.036493 45.151852 
L 348.468797 55.323549 
L 348.918676 73.439712 
L 350.957209 79.117412 
L 343.002559 95.450833 
L 335.621789 102.639311 
L 311.957318 112.672031 
L 298.859911 125.114089 
L 294.39946 127.230497 
L 286.30703 135.467295 
L 281.530885 138.147399 
L 280.551455 146.412951 
L 286.048844 155.19188 
L 288.335978 161.990383 
L 288.479958 165.458318 
L 290.528256 164.878712 
L 290.196596 176.248131 
L 288.316809 181.633499 
L 291.04903 183.618119 
L 289.324993 188.440988 
L 284.47936 192.564779 
L 260.976031 202.756843 
L 255.89198 207.042973 
L 256.885787 211.926346 
L 259.848638 212.706296 
L 258.853633 218.807517 
L 250.061525 218.710473 
L 246.360656 204.225689 
L 248.426146 191.302003 
L 239.85748 166.750953 
L 252.070704 153.593642 
L 255.127605 145.233442 
L 256.878598 144.178532 
L 258.188099 137.35427 
L 256.325085 133.920574 
L 256.822288 125.257858 
L 259.082466 117.224135 
L 259.056707 102.552451 
L 253.035757 98.827621 
L 247.515605 97.985371 
L 245.01701 95.117168 
L 239.64482 92.670689 
L 229.975718 92.901319 
z
" clip-path="url(#p2e49e8729e)" style="fill: #e8edf4; stroke: #b8c5d4; stroke-width: 0.45"/>
    <path d="M 233.889845 214.818511 
L 237.055171 210.466486 
L 238.149617 207.090896 
L 241.500646 206.26482 
L 247.35027 208.387818 
L 250.061525 218.710473 
L 247.701308 223.858621 
L 240.916582 225.110015 
L 233.998271 218.826686 
z
" clip-path="url(#p2e49e8729e)" style="fill: #e8edf4; stroke: #b8c5d4; stroke-width: 0.45"/>
    <path d="M 13.21614 102.085799 
L 14.820968 91.892536 
L 18.820757 81.279946 
L 19.42399 76.30492 
L 23.185362 65.855269 
L 25.948733 61.104883 
L 36.326499 48.362107 
L 37.543748 39.774871 
L 36.936921 33.204601 
L 33.470277 29.060444 
L 27.535589 15.072863 
L 28.157992 12.663525 
L 31.721081 8.067691 
L 25.830722 -10.891322 
L 20.023629 -18.225367 
L 21.125863 -20.478356 
L 33.334295 -23.212374 
L 67.541867 -23.059019 
L 73.728152 -7.469606 
L 80.831566 2.340271 
L 88.49688 1.402773 
L 92.32175 -0.227813 
L 98.727283 1.409363 
L 103.372837 -8.244764 
L 110.562514 -8.697638 
L 111.187312 -10.706218 
L 117.101633 -10.749948 
L 116.092251 -6.573442 
L 130.157706 -6.67468 
L 130.370366 0.619229 
L 132.7198 5.091661 
L 131.011937 12.079461 
L 131.862574 19.208634 
L 135.729376 23.510339 
L 135.10937 37.305029 
L 150.196788 34.79026 
L 155.476126 35.473764 
L 156.701163 39.072796 
L 155.382676 44.694785 
L 157.42001 50.131671 
L 155.692979 54.473512 
L 156.680795 58.475098 
L 132.543083 58.328932 
L 132.009339 95.213613 
L 139.829804 104.697612 
L 147.394479 111.938806 
L 126.089627 116.662834 
L 98.025208 115.022064 
L 89.993282 109.467767 
L 43.003397 109.967965 
L 41.250607 110.782659 
L 34.340083 105.54106 
L 26.825128 105.194815 
L 14.306992 109.374317 
z
" clip-path="url(#p2e49e8729e)" style="fill: #e8edf4; stroke: #b8c5d4; stroke-width: 0.45"/>
    <path d="M 16.402433 -32.790422 
L 21.081534 -37.7954 
L 24.58412 -39.745275 
L 28.928357 -35.768249 
L 24.709918 -33.331954 
L 22.813358 -30.351731 
L 22.45034 -25.29823 
L 19.501866 -24.073793 
z
" clip-path="url(#p2e49e8729e)" style="fill: #e8edf4; stroke: #b8c5d4; stroke-width: 0.45"/>
    <path d="M 379.690755 164.50096 
L 381.767027 156.143754 
L 387.103873 154.136372 
L 387.135023 150.277956 
L 392.675543 141.490041 
L 393.719669 134.106875 
L 388.834499 121.308389 
L 387.908384 110.626909 
L 391.958492 104.141703 
L 393.512402 96.789088 
L 399.290141 96.361973 
L 410.048298 91.888343 
L 415.140137 91.732593 
L 421.746947 85.12698 
L 431.286657 77.987623 
L 434.765281 72.15597 
L 433.186811 67.20191 
L 438.110919 68.595277 
L 444.500877 60.539988 
L 444.714734 53.56956 
L 448.553382 48.384271 
L 455.674768 58.292391 
L 458.544169 65.948719 
L 460.409579 79.894367 
L 463.413165 85.316277 
L 462.260612 90.875367 
L 460.210697 94.285701 
L 456.273208 87.492589 
L 454.093901 90.92329 
L 456.304958 99.511125 
L 455.275807 104.426247 
L 452.076934 107.103955 
L 451.346705 116.922818 
L 433.902065 168.373752 
L 429.461982 184.492118 
L 424.222779 197.935171 
L 414.79509 200.680571 
L 404.675509 205.583712 
L 388.79676 198.476703 
L 385.597887 192.359907 
L 384.832913 182.082779 
L 380.751055 172.841391 
z
" clip-path="url(#p2e49e8729e)" style="fill: #e8edf4; stroke: #b8c5d4; stroke-width: 0.45"/>
   </g>
   <g id="PathCollection_1">
    <defs>
     <path id="m62291e0c7a" d="M 0 2.12132 
C 0.562581 2.12132 1.102195 1.897805 1.5 1.5 
C 1.897805 1.102195 2.12132 0.562581 2.12132 0 
C 2.12132 -0.562581 1.897805 -1.102195 1.5 -1.5 
C 1.102195 -1.897805 0.562581 -2.12132 0 -2.12132 
C -0.562581 -2.12132 -1.102195 -1.897805 -1.5 -1.5 
C -1.897805 -1.102195 -2.12132 -0.562581 -2.12132 0 
C -2.12132 0.562581 -1.897805 1.102195 -1.5 1.5 
C -1.102195 1.897805 -0.562581 2.12132 0 2.12132 
z
" style="stroke: #ffffff; stroke-width: 0.5"/>
    </defs>
    <g clip-path="url(#p2e49e8729e)">
     <use xlink:href="#m62291e0c7a" x="391.234347" y="49.846154" style="fill: #8aa0b7; stroke: #ffffff; stroke-width: 0.5"/>
     <use xlink:href="#m62291e0c7a" x="208.658318" y="250.776386" style="fill: #8aa0b7; stroke: #ffffff; stroke-width: 0.5"/>
     <use xlink:href="#m62291e0c7a" x="243.434705" y="216" style="fill: #8aa0b7; stroke: #ffffff; stroke-width: 0.5"/>
     <use xlink:href="#m62291e0c7a" x="401.860465" y="57.57424" style="fill: #8aa0b7; stroke: #ffffff; stroke-width: 0.5"/>
    </g>
   </g>
   <g id="PatchCollection_2">
    <defs>
     <path id="md6b6c42a09" d="M 233.889845 -217.181489 
L 237.055171 -221.533514 
L 238.149617 -224.909104 
L 241.500646 -225.73518 
L 247.35027 -223.612182 
L 250.061525 -213.289527 
L 247.701308 -208.141379 
L 240.916582 -206.889985 
L 233.998271 -213.173314 
z
" style="stroke: #b45309; stroke-width: 1.15"/>
    </defs>
    <g clip-path="url(#p2e49e8729e)">
     <use xlink:href="#md6b6c42a09" x="0" y="432" style="fill: #f59e0b; stroke: #b45309; stroke-width: 1.15"/>
    </g>
   </g>
   <g id="PathCollection_2">
    <defs>
     <path id="m2c79860be5" d="M 0 3.316625 
C 0.879579 3.316625 1.723251 2.967164 2.345208 2.345208 
C 2.967164 1.723251 3.316625 0.879579 3.316625 0 
C 3.316625 -0.879579 2.967164 -1.723251 2.345208 -2.345208 
C 1.723251 -2.967164 0.879579 -3.316625 0 -3.316625 
C -0.879579 -3.316625 -1.723251 -2.967164 -2.345208 -2.345208 
C -2.967164 -1.723251 -3.316625 -0.879579 -3.316625 0 
C -3.316625 0.879579 -2.967164 1.723251 -2.345208 2.345208 
C -1.723251 2.967164 -0.879579 3.316625 0 3.316625 
z
" style="stroke: #ffffff"/>
    </defs>
    <g clip-path="url(#p2e49e8729e)">
     <use xlink:href="#m2c79860be5" x="243.434705" y="216" style="fill: #f97316; stroke: #ffffff"/>
    </g>
   </g>
   <g id="PathCollection_3">
    <path d="M 243.434705 220.449719 
C 244.614784 220.449719 245.746689 219.980869 246.581131 219.146427 
C 247.415573 218.311984 247.884424 217.180079 247.884424 216 
C 247.884424 214.819921 247.415573 213.688016 246.581131 212.853573 
C 245.746689 212.019131 244.614784 211.550281 243.434705 211.550281 
C 242.254625 211.550281 241.12272 212.019131 240.288278 212.853573 
C 239.453836 213.688016 238.984986 214.819921 238.984986 216 
C 238.984986 217.180079 239.453836 218.311984 240.288278 219.146427 
C 241.12272 219.980869 242.254625 220.449719 243.434705 220.449719 
L 243.434705 220.449719 
z
" clip-path="url(#p2e49e8729e)" style="fill: none; stroke: #7c2d12; stroke-width: 1.1"/>
   </g>
  </g>
 </g>
 <defs>
  <clipPath id="p2e49e8729e">
   <rect x="0" y="0" width="486.869409" height="432"/>
  </clipPath>
 </defs>
</svg>
