<?xml version="1.0" encoding="utf-8" standalone="no"?>
<!DOCTYPE svg PUBLIC "-//W3C//DTD SVG 1.1//EN"
  "http://www.w3.org/Graphics/SVG/1.1/DTD/svg11.dtd">
<svg xmlns:xlink="http://www.w3.org/1999/xlink" width="504pt" height="432pt" viewBox="0 0 504 432" xmlns="http://www.w3.org/2000/svg" version="1.1">
 <metadata>
  <rdf:RDF xmlns:dc="http://purl.org/dc/elements/1.1/" xmlns:cc="http://creativecommons.org/ns#" xmlns:rdf="http://www.w3.org/1999/02/22-rdf-syntax-ns#">
   <cc:Work>
    <dc:type rdf:resource="http://purl.org/dc/dcmitype/StillImage"/>
    <dc:date>2026-06-09T04:57:14.726665</dc:date>
    <dc:format>image/svg+xml</dc:format>
    <dc:creator>
     <cc:Agent>
      <dc:title>Matplotlib v3.10.8, https://matplotlib.org/</dc:title>
     </cc:Agent>
    </dc:creator>
   </cc:Work>
  </rdf:RDF>
 </metadata>
 <defs>
  <style type="text/css">*{stroke-linejoin: round; stroke-linecap: butt}</style>
 </defs>
 <g id="figure_1">
  <g id="patch_1">
   <path d="M 0 432 
L 504 432 
L 504 0 
L 0 0 
z
" style="fill: #eaf3ff"/>
  </g>
  <g id="axes_1">
   <g id="PatchCollection_1">
    <path d="M 30.199154 468.214338 
L 46.088446 448.142815 
L 54.964662 447.887215 
L 67.304354 438.126231 
L 85.342154 437.516031 
L 124.468892 395.958462 
L 140.374101 375.89886 
L 140.513604 348.776068 
L 158.660031 345.052108 
L 165.212585 340.312154 
L 170.462769 340.274215 
L 169.550446 359.433692 
L 166.627108 364.434646 
L 162.7254 379.402062 
L 147.498923 412.550862 
L 135.616846 432.843092 
L 107.512062 467.234446 
L 93.655246 478.443323 
L 72.943615 492.191585 
L 60.036508 502.723385 
L 44.883277 519.496062 
L 41.690077 526.797277 
L 38.563338 530.075769 
L 30.364615 518.653246 
z
" clip-path="url(#p815298a29c)" style="fill: #e8edf4; stroke: #b8c5d4; stroke-width: 0.45"/>
    <path d="M -53.687041 98.28933 
L -46.787284 76.152935 
L -47.110699 70.766501 
L -45.065743 66.70378 
L -45.060019 58.237034 
L -42.647286 53.87272 
L -27.220678 59.359327 
L -0.106054 44.602803 
L 5.475716 61.462955 
L 2.836879 63.550842 
L -24.893092 70.498897 
L -11.092861 84.343848 
L -15.672188 86.695404 
L -17.950403 91.33233 
L -28.515769 93.249923 
L -31.829341 98.23495 
L -37.814665 102.496228 
L -53.2241 100.293858 
z
" clip-path="url(#p815298a29c)" style="fill: #e8edf4; stroke: #b8c5d4; stroke-width: 0.45"/>
    <path d="M 176.947182 171.062347 
L 179.410716 170.389759 
L 179.922313 174.187022 
L 190.759576 172.004687 
L 210.572321 172.77566 
L 239.134441 146.001265 
L 241.76827 150.720834 
L 243.648656 161.657555 
L 236.578604 161.711576 
L 235.441643 170.728557 
L 237.89373 172.654021 
L 231.627207 175.380867 
L 231.588569 181.040271 
L 227.554468 186.77087 
L 227.192415 192.3462 
L 224.401888 195.273034 
L 182.779384 188.291707 
z
" clip-path="url(#p815298a29c)" style="fill: #e8edf4; stroke: #b8c5d4; stroke-width: 0.45"/>
    <path d="M 165.377226 153.935665 
L 169.107946 146.672423 
L 172.889469 145.182711 
L 177.079553 149.523054 
L 177.323545 157.629178 
L 174.317646 165.774656 
L 170.479598 166.758496 
L 166.293807 164.011257 
z
" clip-path="url(#p815298a29c)" style="fill: #e8edf4; stroke: #b8c5d4; stroke-width: 0.45"/>
    <path d="M 107.566801 103.859651 
L 117.728614 90.566724 
L 127.031803 91.719426 
L 129.921072 97.830324 
L 128.685369 100.989701 
L 133.14592 111.433787 
L 123.353315 111.792978 
L 119.905225 105.195885 
z
" clip-path="url(#p815298a29c)" style="fill: #e8edf4; stroke: #b8c5d4; stroke-width: 0.45"/>
    <path d="M -0.106054 44.602803 
L 30.546815 30.193307 
L 35.777981 13.454078 
L 34.472873 3.33949 
L 42.051659 -0.081052 
L 49.148184 -8.721312 
L 55.095585 -10.87288 
L 71.200506 -9.086227 
L 76.063178 -5.55943 
L 82.698606 -7.898357 
L 91.670097 8.618595 
L 100.749328 12.774692 
L 101.793987 20.862571 
L 94.824824 25.64117 
L 91.615717 36.445877 
L 101.206545 49.606791 
L 118.172236 57.19631 
L 125.296667 67.719103 
L 123.027038 77.748186 
L 127.449666 77.744251 
L 127.58633 85.119829 
L 135.248832 92.398455 
L 117.728614 90.566724 
L 107.566801 103.859651 
L 81.823829 102.753816 
L 42.784351 74.907572 
L 22.153768 65.215499 
L 5.475716 61.462955 
z
" clip-path="url(#p815298a29c)" style="fill: #e8edf4; stroke: #b8c5d4; stroke-width: 0.45"/>
    <path d="M 182.769366 243.692261 
L 224.307439 229.846237 
L 233.538361 202.153831 
L 227.192415 192.3462 
L 227.554468 186.77087 
L 231.588569 181.040271 
L 231.627207 175.380867 
L 237.89373 172.654021 
L 235.441643 170.728557 
L 236.578604 161.711576 
L 243.648656 161.657555 
L 249.85579 171.115296 
L 257.586267 176.142538 
L 275.942928 180.475368 
L 285.92443 193.011634 
L 290.880835 194.765373 
L 290.854361 197.854272 
L 283.602568 209.99235 
L 277.76965 214.42106 
L 272.602881 223.906349 
L 266.321333 223.180096 
L 263.442081 226.481505 
L 261.218245 233.50147 
L 262.920467 242.756719 
L 261.614643 244.457867 
L 255.243655 244.412432 
L 246.595166 249.587071 
L 245.245696 256.332277 
L 242.079521 259.25446 
L 233.466809 259.142839 
L 228.045315 262.629567 
L 228.114005 268.222785 
L 221.413877 272.067273 
L 213.774272 270.761807 
L 204.51473 275.432363 
L 198.118698 276.216215 
z
" clip-path="url(#p815298a29c)" style="fill: #e8edf4; stroke: #b8c5d4; stroke-width: 0.45"/>
    <path d="M 239.134441 146.001265 
L 243.166395 141.287063 
L 244.878634 142.489136 
L 243.573526 148.209359 
L 241.76827 150.720834 
z
" clip-path="url(#p815298a29c)" style="fill: #e8edf4; stroke: #b8c5d4; stroke-width: 0.45"/>
    <path d="M 406.753548 178.726638 
L 415.974452 169.488919 
L 446.444864 169.525053 
L 443.695837 157.637049 
L 435.916705 150.615295 
L 434.338984 139.9587 
L 425.27621 133.740475 
L 440.536101 119.226513 
L 456.613832 120.279043 
L 471.0981 105.762576 
L 479.778071 91.711198 
L 493.219111 77.817949 
L 493.005171 67.948069 
L 504.811963 59.93854 
L 493.636975 53.10139 
L 483.922362 31.601092 
L 490.710499 25.630795 
L 511.713152 29.008764 
L 527.146915 26.950929 
L 540.51855 15.313715 
L 555.400647 31.54242 
L 553.999659 42.837258 
L 559.50773 49.923767 
L 559.054091 56.993818 
L 549.116951 55.133109 
L 553.000077 70.395147 
L 566.603541 79.162411 
L 585.848162 88.84411 
L 577.062294 95.124943 
L 571.685878 108.076568 
L 616.212677 127.876075 
L 635.192556 129.670598 
L 643.178473 136.714176 
L 670.534227 141.259873 
L 682.064829 141.028402 
L 683.651137 135.548236 
L 681.827992 126.750204 
L 682.89841 120.786346 
L 691.342975 117.874181 
L 692.801204 131.552773 
L 705.385767 136.808266 
L 714.091497 134.643819 
L 737.079003 135.161855 
L 738.051394 126.656113 
L 732.415244 122.237421 
L 743.581647 120.504789 
L 756.184813 110.20667 
L 772.144483 101.389319 
L 783.758801 104.791616 
L 793.629397 98.961203 
L 800.122024 107.571053 
L 795.445386 113.385725 
L 810.375423 115.455008 
L 811.420082 120.703346 
L 806.565995 123.243799 
L 807.701525 131.763136 
L 797.806602 129.259532 
L 779.881399 138.827463 
L 780.302125 146.75113 
L 772.660373 158.365448 
L 771.959879 165.112084 
L 765.785658 176.528203 
L 754.964136 173.373834 
L 754.426065 187.703192 
L 751.296382 192.418468 
L 752.761766 198.298252 
L 745.929983 201.582846 
L 738.637405 179.619249 
L 734.814382 179.662896 
L 732.551193 188.511729 
L 724.97026 181.335781 
L 729.245491 173.455761 
L 735.439747 172.65581 
L 741.82433 160.938099 
L 733.84056 158.574022 
L 720.999841 158.779376 
L 707.824974 156.880386 
L 706.603582 147.252709 
L 699.99361 146.569746 
L 689.026837 140.586569 
L 684.135544 149.980629 
L 694.129209 157.310414 
L 685.47285 162.46967 
L 682.399692 167.515516 
L 690.922249 171.225486 
L 688.566042 179.568805 
L 693.364318 189.981049 
L 695.519464 201.3825 
L 693.536759 206.438006 
L 684.117656 206.263776 
L 667.048214 209.138377 
L 667.843873 219.5542 
L 660.452553 227.746544 
L 640.526756 237.065832 
L 625.029312 253.356787 
L 614.61993 262.09078 
L 600.823276 271.15427 
L 600.801811 277.523112 
L 581.42768 285.895767 
L 574.960097 286.626671 
L 570.808651 297.188101 
L 574.425603 326.682544 
L 568.558341 339.837019 
L 568.495375 363.360806 
L 561.330159 364.031249 
L 555.027861 374.591963 
L 559.242272 379.155549 
L 546.617641 383.080891 
L 541.954598 392.497489 
L 536.398586 396.477211 
L 523.287401 383.548483 
L 511.566471 350.193453 
L 506.715246 343.6443 
L 499.358987 330.342428 
L 493.530362 304.376929 
L 480.935067 285.360201 
L 471.058746 240.809074 
L 471.108117 224.037647 
L 468.422771 211.070639 
L 448.273017 219.358505 
L 438.514042 217.698499 
L 420.426416 200.917412 
L 427.083613 195.912351 
L 422.994417 190.479051 
z
" clip-path="url(#p815298a29c)" style="fill: #e8edf4; stroke: #b8c5d4; stroke-width: 0.45"/>
    <path d="M 305.643441 93.748998 
L 328.844171 100.819765 
L 342.69592 98.746189 
L 350.972337 100.511734 
L 353.775029 97.476499 
L 363.418089 98.692883 
L 381.412698 92.936168 
L 381.897105 81.153703 
L 389.615417 73.316614 
L 399.923911 73.340942 
L 401.437236 69.467117 
L 412.019058 67.661861 
L 417.138603 68.951228 
L 422.553657 65.057369 
L 421.788766 56.742313 
L 427.668193 48.385399 
L 436.480535 44.881856 
L 431.038291 35.721413 
L 444.20958 36.154303 
L 448.016861 31.168918 
L 447.438721 25.849029 
L 454.334901 20.032568 
L 452.752171 13.146047 
L 449.478668 7.277711 
L 457.564042 1.246952 
L 472.431113 -1.661636 
L 488.319947 -3.270124 
L 503.418846 -7.380428 
L 513.649349 -0.925008 
L 517.747131 9.714414 
L 540.51855 15.313715 
L 527.146915 26.950929 
L 511.713152 29.008764 
L 490.710499 25.630795 
L 483.922362 31.601092 
L 493.636975 53.10139 
L 504.811963 59.93854 
L 493.005171 67.948069 
L 493.219111 77.817949 
L 479.778071 91.711198 
L 471.0981 105.762576 
L 456.613832 120.279043 
L 440.536101 119.226513 
L 425.27621 133.740475 
L 434.338984 139.9587 
L 435.916705 150.615295 
L 443.695837 157.637049 
L 446.444864 169.525053 
L 415.974452 169.488919 
L 406.753548 178.726638 
L 396.604615 175.225242 
L 392.47535 165.273076 
L 381.777613 154.728818 
L 356.267184 157.333311 
L 333.771241 157.591255 
L 314.271179 159.532103 
L 319.488749 143.446502 
L 339.461054 136.294165 
L 338.315507 129.91781 
L 331.690509 127.676445 
L 331.308421 115.48184 
L 318.07202 109.39384 
L 312.498121 101.031559 
z
" clip-path="url(#p815298a29c)" style="fill: #e8edf4; stroke: #b8c5d4; stroke-width: 0.45"/>
    <path d="M 300.855182 40.479978 
L 310.303621 13.152845 
L 324.424405 18.406191 
L 334.864555 16.559435 
L 337.756686 10.285399 
L 348.686252 8.197512 
L 356.489711 3.986678 
L 359.253764 -7.086707 
L 370.923892 -9.76454 
L 373.093349 -14.693041 
L 379.625329 -10.990941 
L 391.510829 -10.469685 
L 406.18471 -5.858517 
L 416.207712 -10.306189 
L 420.87147 -7.631218 
L 425.337029 -13.970723 
L 433.614163 -13.683084 
L 435.746412 -15.717665 
L 437.210365 -21.300866 
L 443.171361 -26.117746 
L 450.666431 -22.969459 
L 449.160977 -18.737517 
L 453.349631 -18.079954 
L 452.058833 -6.44739 
L 457.541146 -1.913141 
L 462.36518 -4.822445 
L 468.51078 -6.196958 
L 477.139234 -12.395864 
L 500.95388 -11.35371 
L 503.418846 -7.380428 
L 488.319947 -3.270124 
L 472.431113 -1.661636 
L 457.564042 1.246952 
L 449.478668 7.277711 
L 452.752171 13.146047 
L 454.334901 20.032568 
L 447.438721 25.849029 
L 448.016861 31.168918 
L 444.20958 36.154303 
L 431.038291 35.721413 
L 436.480535 44.881856 
L 427.668193 48.385399 
L 421.788766 56.742313 
L 422.553657 65.057369 
L 417.138603 68.951228 
L 412.019058 67.661861 
L 401.437236 69.467117 
L 399.923911 73.340942 
L 389.615417 73.316614 
L 381.897105 81.153703 
L 381.412698 92.936168 
L 363.418089 98.692883 
L 353.775029 97.476499 
L 350.972337 100.511734 
L 342.69592 98.746189 
L 328.844171 100.819765 
L 305.643441 93.748998 
L 318.201529 81.195919 
L 317.06743 72.283761 
L 306.580772 69.949736 
L 305.496759 61.159574 
L 300.961079 50.105509 
L 306.882005 42.52386 
z
" clip-path="url(#p815298a29c)" style="fill: #e8edf4; stroke: #b8c5d4; stroke-width: 0.45"/>
    <path d="M 189.726366 -71.768984 
L 195.84406 -76.375859 
L 211.561169 -79.256899 
L 220.920168 -75.378066 
L 230.611169 -64.521126 
L 253.334648 -65.385832 
L 251.061441 -72.360362 
L 262.890415 -77.130732 
L 274.555535 -85.175322 
L 293.211999 -77.858058 
L 294.69241 -66.809716 
L 299.990118 -63.973754 
L 314.96094 -64.611282 
L 319.60681 -62.098018 
L 326.412835 -47.82304 
L 351.280011 -31.741016 
L 365.759986 -24.960393 
L 384.177466 -19.034099 
L 383.796094 -10.561629 
L 379.625329 -10.990941 
L 373.093349 -14.693041 
L 370.923892 -9.76454 
L 359.253764 -7.086707 
L 356.489711 3.986678 
L 348.686252 8.197512 
L 337.756686 10.285399 
L 334.864555 16.559435 
L 324.424405 18.406191 
L 310.303621 13.152845 
L 309.088669 1.500962 
L 298.767295 1.005464 
L 282.942858 -11.256757 
L 271.885215 -12.770439 
L 256.575237 -19.789331 
L 246.729684 -21.06546 
L 240.651343 -18.486369 
L 231.391086 -18.887776 
L 221.542671 -10.97198 
L 209.375971 -8.292716 
L 206.799384 -18.084962 
L 208.812857 -32.567442 
L 198.014232 -37.254096 
L 201.56965 -46.734734 
L 192.378082 -47.542556 
L 195.441938 -59.2134 
L 208.497313 -55.814323 
L 220.664012 -60.244822 
L 210.576614 -68.555227 
L 206.608341 -76.474958 
L 195.462688 -72.943152 
L 194.049537 -62.797439 
z
" clip-path="url(#p815298a29c)" style="fill: #e8edf4; stroke: #b8c5d4; stroke-width: 0.45"/>
    <path d="M 73.51235 -39.15881 
L 82.993704 -43.103113 
L 85.191065 -37.879819 
L 92.18384 -31.48808 
L 101.680935 -29.647405 
L 106.694582 -30.054536 
L 123.024176 -40.269655 
L 128.216703 -41.29249 
L 132.30733 -37.229053 
L 127.533382 -30.378666 
L 136.168275 -23.128304 
L 139.614219 -23.818781 
L 143.994631 -13.609028 
L 157.122989 -10.724768 
L 166.740291 -3.777428 
L 186.424957 -1.390454 
L 208.049398 -5.054273 
L 209.375971 -8.292716 
L 221.542671 -10.97198 
L 231.391086 -18.887776 
L 240.651343 -18.486369 
L 246.729684 -21.06546 
L 256.575237 -19.789331 
L 271.885215 -12.770439 
L 282.942858 -11.256757 
L 298.767295 1.005464 
L 309.088669 1.500962 
L 310.303621 13.152845 
L 300.855182 40.479978 
L 306.882005 42.52386 
L 300.961079 50.105509 
L 305.496759 61.159574 
L 306.580772 69.949736 
L 317.06743 72.283761 
L 318.201529 81.195919 
L 305.643441 93.748998 
L 312.498121 101.031559 
L 318.07202 109.39384 
L 331.308421 115.48184 
L 331.690509 127.676445 
L 338.315507 129.91781 
L 339.461054 136.294165 
L 319.488749 143.446502 
L 314.271179 159.532103 
L 273.125926 152.169762 
L 257.500404 150.370587 
L 251.595219 133.392375 
L 244.968074 130.938857 
L 234.328294 133.412767 
L 220.362778 140.113968 
L 203.442881 135.521046 
L 189.465201 124.880551 
L 176.133636 120.936606 
L 166.886973 107.798946 
L 156.66935 89.338534 
L 149.217926 91.582404 
L 140.418463 86.994133 
L 135.248832 92.398455 
L 127.58633 85.119829 
L 127.449666 77.744251 
L 123.027038 77.748186 
L 125.296667 67.719103 
L 118.172236 57.19631 
L 101.206545 49.606791 
L 91.615717 36.445877 
L 94.824824 25.64117 
L 101.793987 20.862571 
L 100.749328 12.774692 
L 91.670097 8.618595 
L 82.698508 -7.898538 
L 75.125847 -18.991168 
L 77.834806 -23.279279 
z
" clip-path="url(#p815298a29c)" style="fill: #e8edf4; stroke: #b8c5d4; stroke-width: 0.45"/>
    <path d="M -42.647286 53.87272 
L -41.034504 51.672139 
L -41.246298 46.004864 
L -37.84901 38.42429 
L -30.298845 33.206003 
L -32.563465 27.776281 
L -38.791349 27.070421 
L -40.084294 16.476792 
L -36.695592 10.77875 
L -29.279229 4.711857 
L -28.53008 -3.011822 
L -23.998692 -0.318963 
L -8.754542 -4.170606 
L -1.386119 -1.56361 
L 10.004957 -1.606898 
L 25.937437 -6.802288 
L 33.398162 -6.567955 
L 49.148184 -8.721312 
L 42.051659 -0.081052 
L 34.472873 3.33949 
L 35.777981 13.454078 
L 30.546815 30.193307 
L -0.106054 44.602803 
L -27.220678 59.359327 
z
" clip-path="url(#p815298a29c)" style="fill: #e8edf4; stroke: #b8c5d4; stroke-width: 0.45"/>
    <path d="M -34.293877 301.534754 
L -28.330754 281.189631 
L -26.964969 271.986231 
L -22.604262 267.741138 
L -12.406154 265.464831 
L -5.398754 257.561898 
L 2.639395 273.591331 
L 6.453832 286.300752 
L 14.044066 293.044884 
L 32.943807 306.123513 
L 52.471059 326.763398 
L 59.278514 330.928081 
L 55.10274 334.309628 
L 49.175446 333.107585 
L 44.442692 328.627108 
L 38.749292 320.509523 
L 32.610462 316.061585 
L 29.029846 311.280369 
L 16.978846 305.728754 
L 7.485369 305.563154 
L 4.145538 302.668062 
L -3.974538 305.924262 
L -12.377492 299.638662 
L -16.701646 309.972462 
L -32.822169 307.078477 
z
" clip-path="url(#p815298a29c)" style="fill: #e8edf4; stroke: #b8c5d4; stroke-width: 0.45"/>
    <path d="M 52.682852 296.12305 
L 55.454061 295.449746 
L 54.033754 289.12312 
L 55.712363 286.4528 
L 55.098447 280.413812 
L 61.177504 275.996908 
L 59.757197 270.160055 
L 63.426383 263.354031 
L 69.113334 266.954169 
L 72.866951 265.702724 
L 88.84594 265.384676 
L 91.384605 266.769207 
L 104.769119 268.154095 
L 110.076845 267.461472 
L 113.53853 272.076933 
L 120.000389 269.769024 
L 129.923218 255.230734 
L 142.846222 248.999987 
L 182.769366 243.692261 
L 198.118698 276.216215 
L 188.102851 279.935845 
L 185.423945 286.083234 
L 185.097668 290.804949 
L 171.311747 296.650388 
L 149.186443 303.109386 
L 136.789347 312.878736 
L 130.693118 313.641838 
L 126.538809 312.822925 
L 118.44628 318.569265 
L 109.621059 321.234934 
L 94.500693 322.740746 
L 91.474045 326.396694 
L 87.844928 327.407008 
L 85.701231 330.928797 
L 78.847982 330.62327 
L 74.424638 332.502225 
L 64.840965 331.798153 
L 61.239754 323.709917 
L 61.635437 316.141148 
L 59.371532 312.055888 
L 56.661858 301.81501 
z
" clip-path="url(#p815298a29c)" style="fill: #e8edf4; stroke: #b8c5d4; stroke-width: 0.45"/>
    <path d="M -57.706116 118.266285 
L -53.2241 100.293858 
L -37.814665 102.496228 
L -31.829341 98.23495 
L -28.515769 93.249923 
L -17.950403 91.33233 
L -15.672188 86.695404 
L -11.092861 84.343848 
L -24.893092 70.498897 
L 2.836879 63.550842 
L 5.475716 61.462955 
L 22.153768 65.215499 
L 42.784351 74.907572 
L 81.823829 102.753816 
L 119.905225 105.195885 
L 123.353315 111.792978 
L 133.14592 111.433787 
L 138.566698 123.374382 
L 145.378447 126.536979 
L 147.75111 131.40001 
L 157.187386 137.220048 
L 158.02526 142.933474 
L 156.645737 147.544999 
L 158.398045 152.196236 
L 162.379198 156.0765 
L 166.293807 164.011257 
L 170.479598 166.758496 
L 174.317646 165.774656 
L 182.779384 188.291707 
L 224.401888 195.273034 
L 227.192415 192.3462 
L 233.538361 202.153831 
L 224.307439 229.846237 
L 182.769366 243.692261 
L 142.846222 248.999987 
L 129.923218 255.230734 
L 120.000389 269.769024 
L 113.53853 272.076933 
L 110.076845 267.461472 
L 104.769119 268.154095 
L 91.384605 266.769207 
L 88.84594 265.384676 
L 72.866951 265.702724 
L 69.113334 266.954169 
L 63.426383 263.354031 
L 59.757197 270.160055 
L 61.177504 275.996908 
L 55.098447 280.413812 
L 53.301777 274.505049 
L 49.126003 270.335 
L 48.058448 264.811544 
L 40.906827 259.85013 
L 33.526955 248.23939 
L 29.621648 236.956357 
L 20.044415 227.428138 
L 13.869479 225.154216 
L 4.699377 211.958241 
L 3.097328 202.335573 
L 3.687632 194.127845 
L -4.253923 178.775293 
L -10.74655 173.372045 
L -18.226594 170.508535 
L -22.779447 162.574851 
L -22.022427 159.44481 
L -25.869777 152.266715 
L -29.913179 149.175311 
L -35.319647 138.875045 
L -50.812798 118.199742 
z
" clip-path="url(#p815298a29c)" style="fill: #e8edf4; stroke: #b8c5d4; stroke-width: 0.45"/>
    <path d="M -80.942123 398.977338 
L -76.225846 391.090431 
L -68.877692 390.750092 
L -66.807969 386.521477 
L -66.992954 374.073508 
L -62.896846 359.583369 
L -56.337923 355.705338 
L -54.946662 350.045169 
L -49.0086 339.468092 
L -40.657431 332.608431 
L -35.027723 318.969277 
L -32.822169 307.078477 
L -16.701646 309.972462 
L -12.377492 299.638662 
L -3.974538 305.924262 
L 4.145538 302.668062 
L 7.485369 305.563154 
L 16.978846 305.728754 
L 29.029846 311.280369 
L 32.610462 316.061585 
L 38.749292 320.509523 
L 44.442692 328.627108 
L 49.175446 333.107585 
L 39.624369 345.721846 
L 40.923277 353.756631 
L 48.657323 353.988 
L 51.991338 353.006169 
L 55.064102 355.473989 
L 52.044369 360.379662 
L 62.266015 374.670277 
L 67.551923 379.611969 
L 112.823169 396.0432 
L 124.468892 395.958462 
L 85.342154 437.516031 
L 67.304354 438.126231 
L 54.964662 447.887215 
L 46.088446 448.142815 
L 42.301151 452.507373 
L 32.840308 452.504908 
L 27.255877 447.825877 
L 14.606862 453.616754 
L 10.514551 459.386862 
L 1.280908 458.297446 
L -1.784215 456.700569 
L -9.402715 456.942392 
L -26.929478 445.18342 
L -36.566604 445.18342 
L -41.296879 440.626629 
L -41.296879 432.855248 
L -48.489132 430.532308 
L -56.672031 415.464646 
L -62.995569 412.254415 
L -65.421692 406.717615 
L -72.439062 399.969138 
z
" clip-path="url(#p815298a29c)" style="fill: #e8edf4; stroke: #b8c5d4; stroke-width: 0.45"/>
    <path d="M 39.624369 345.721846 
L 49.175446 333.107585 
L 55.10274 334.309628 
L 59.278514 330.928081 
L 62.55488 335.21333 
L 62.119128 340.962531 
L 54.219789 344.275746 
L 60.165759 348.064066 
L 55.064102 355.473989 
L 51.991338 353.006169 
L 48.657323 353.988 
L 40.923277 353.756631 
z
" clip-path="url(#p815298a29c)" style="fill: #e8edf4; stroke: #b8c5d4; stroke-width: 0.45"/>
    <path d="M 52.044369 360.379662 
L 60.165759 348.064066 
L 64.670672 350.616325 
L 67.384638 356.342272 
L 73.631127 362.138699 
L 80.505126 362.18485 
L 93.557638 358.642669 
L 108.628633 357.001624 
L 120.816797 352.699919 
L 127.683641 351.788346 
L 132.629314 349.262561 
L 140.513604 348.776068 
L 140.374101 375.89886 
L 124.468892 395.958462 
L 112.823169 396.0432 
L 67.551923 379.611969 
L 62.266015 374.670277 
z
" clip-path="url(#p815298a29c)" style="fill: #e8edf4; stroke: #b8c5d4; stroke-width: 0.45"/>
   </g>
   <g id="PathCollection_1">
    <defs>
     <path id="m8ac02b36d2" d="M 0 2.12132 
C 0.562581 2.12132 1.102195 1.897805 1.5 1.5 
C 1.897805 1.102195 2.12132 0.562581 2.12132 0 
C 2.12132 -0.562581 1.897805 -1.102195 1.5 -1.5 
C 1.102195 -1.897805 0.562581 -2.12132 0 -2.12132 
C -0.562581 -2.12132 -1.102195 -1.897805 -1.5 -1.5 
C -1.897805 -1.102195 -2.12132 -0.562581 -2.12132 0 
C -2.12132 0.562581 -1.897805 1.102195 -1.5 1.5 
C -1.102195 1.897805 -0.562581 2.12132 0 2.12132 
z
" style="stroke: #ffffff; stroke-width: 0.5"/>
    </defs>
    <g clip-path="url(#p815298a29c)">
     <use xlink:href="#m8ac02b36d2" x="162.692308" y="146.769231" style="fill: #8aa0b7; stroke: #ffffff; stroke-width: 0.5"/>
     <use xlink:href="#m8ac02b36d2" x="58.153846" y="347.538462" style="fill: #8aa0b7; stroke: #ffffff; stroke-width: 0.5"/>
     <use xlink:href="#m8ac02b36d2" x="96.230769" y="98.307692" style="fill: #8aa0b7; stroke: #ffffff; stroke-width: 0.5"/>
     <use xlink:href="#m8ac02b36d2" x="172.384615" y="153.692308" style="fill: #8aa0b7; stroke: #ffffff; stroke-width: 0.5"/>
    </g>
   </g>
   <g id="PatchCollection_2">
    <path d="M 182.769366 243.692261 
L 224.307439 229.846237 
L 233.538361 202.153831 
L 227.192415 192.3462 
L 227.554468 186.77087 
L 231.588569 181.040271 
L 231.627207 175.380867 
L 237.89373 172.654021 
L 235.441643 170.728557 
L 236.578604 161.711576 
L 243.648656 161.657555 
L 249.85579 171.115296 
L 257.586267 176.142538 
L 275.942928 180.475368 
L 285.92443 193.011634 
L 290.880835 194.765373 
L 290.854361 197.854272 
L 283.602568 209.99235 
L 277.76965 214.42106 
L 272.602881 223.906349 
L 266.321333 223.180096 
L 263.442081 226.481505 
L 261.218245 233.50147 
L 262.920467 242.756719 
L 261.614643 244.457867 
L 255.243655 244.412432 
L 246.595166 249.587071 
L 245.245696 256.332277 
L 242.079521 259.25446 
L 233.466809 259.142839 
L 228.045315 262.629567 
L 228.114005 268.222785 
L 221.413877 272.067273 
L 213.774272 270.761807 
L 204.51473 275.432363 
L 198.118698 276.216215 
z
" clip-path="url(#p815298a29c)" style="fill: #f59e0b; stroke: #b45309; stroke-width: 1.15"/>
    <path d="M 239.134441 146.001265 
L 243.166395 141.287063 
L 244.878634 142.489136 
L 243.573526 148.209359 
L 241.76827 150.720834 
z
" clip-path="url(#p815298a29c)" style="fill: #f59e0b; stroke: #b45309; stroke-width: 1.15"/>
   </g>
   <g id="PathCollection_2">
    <defs>
     <path id="m2ba25fb8cf" d="M 0 3.316625 
C 0.879579 3.316625 1.723251 2.967164 2.345208 2.345208 
C 2.967164 1.723251 3.316625 0.879579 3.316625 0 
C 3.316625 -0.879579 2.967164 -1.723251 2.345208 -2.345208 
C 1.723251 -2.967164 0.879579 -3.316625 0 -3.316625 
C -0.879579 -3.316625 -1.723251 -2.967164 -2.345208 -2.345208 
C -2.967164 -1.723251 -3.316625 -0.879579 -3.316625 0 
C -3.316625 0.879579 -2.967164 1.723251 -2.345208 2.345208 
C -1.723251 2.967164 -0.879579 3.316625 0 3.316625 
z
" style="stroke: #ffffff"/>
    </defs>
    <g clip-path="url(#p815298a29c)">
     <use xlink:href="#m2ba25fb8cf" x="252" y="216" style="fill: #f97316; stroke: #ffffff"/>
    </g>
   </g>
   <g id="PathCollection_3">
    <path d="M 252 220.449719 
C 253.180079 220.449719 254.311984 219.980869 255.146427 219.146427 
C 255.980869 218.311984 256.449719 217.180079 256.449719 216 
C 256.449719 214.819921 255.980869 213.688016 255.146427 212.853573 
C 254.311984 212.019131 253.180079 211.550281 252 211.550281 
C 250.819921 211.550281 249.688016 212.019131 248.853573 212.853573 
C 248.019131 213.688016 247.550281 214.819921 247.550281 216 
C 247.550281 217.180079 248.019131 218.311984 248.853573 219.146427 
C 249.688016 219.980869 250.819921 220.449719 252 220.449719 
L 252 220.449719 
z
" clip-path="url(#p815298a29c)" style="fill: none; stroke: #7c2d12; stroke-width: 1.1"/>
   </g>
  </g>
 </g>
 <defs>
  <clipPath id="p815298a29c">
   <rect x="0" y="0" width="504" height="432"/>
  </clipPath>
 </defs>
</svg>
