<?xml version="1.0" encoding="utf-8" standalone="no"?>
<!DOCTYPE svg PUBLIC "-//W3C//DTD SVG 1.1//EN"
  "http://www.w3.org/Graphics/SVG/1.1/DTD/svg11.dtd">
<svg xmlns:xlink="http://www.w3.org/1999/xlink" width="576pt" height="384pt" viewBox="0 0 576 384" xmlns="http://www.w3.org/2000/svg" version="1.1">
 <metadata>
  <rdf:RDF xmlns:dc="http://purl.org/dc/elements/1.1/" xmlns:cc="http://creativecommons.org/ns#" xmlns:rdf="http://www.w3.org/1999/02/22-rdf-syntax-ns#">
   <cc:Work>
    <dc:type rdf:resource="http://purl.org/dc/dcmitype/StillImage"/>
    <dc:date>2026-06-09T04:56:57.649485</dc:date>
    <dc:format>image/svg+xml</dc:format>
    <dc:creator>
     <cc:Agent>
      <dc:title>Matplotlib v3.10.8, https://matplotlib.org/</dc:title>
     </cc:Agent>
    </dc:creator>
   </cc:Work>
  </rdf:RDF>
 </metadata>
 <defs>
  <style type="text/css">*{stroke-linejoin: round; stroke-linecap: butt}</style>
 </defs>
 <g id="figure_1">
  <g id="patch_1">
   <path d="M 0 384 
L 576 384 
L 576 0 
L 0 0 
z
" style="fill: #eaf3ff"/>
  </g>
  <g id="axes_1">
   <g id="PatchCollection_1">
    <path d="M 81.41591 82.289114 
L 82.005553 76.49403 
L 113.129766 75.420342 
L 114.777152 70.478539 
L 120.395413 64.317764 
L 124.921915 45.380448 
L 143.986797 30.581262 
L 150.435307 13.290978 
L 154.721557 12.286742 
L 159.187819 1.598757 
L 170.725542 0.126067 
L 175.687897 1.907044 
L 181.915291 1.907044 
L 186.335486 -1.213386 
L 194.813019 -1.655264 
L 194.498354 -9.002412 
L 196.5862 -9.002412 
L 196.288544 15.345515 
L 151.276541 14.628305 
L 151.718064 49.719851 
L 138.867819 50.950872 
L 135.514225 57.994694 
L 138.115173 77.800174 
L 84.408773 77.714421 
z
" clip-path="url(#pa1fc88d62c)" style="fill: #e8edf4; stroke: #b8c5d4; stroke-width: 0.45"/>
    <path d="M 482.50062 449.690476 
L 485.988868 448.241882 
L 486.418343 442.263243 
L 488.662104 438.737434 
L 493.652807 435.85513 
L 497.255865 437.251988 
L 501.946077 432.001899 
L 509.416541 432.137261 
L 510.295335 436.019549 
L 515.418566 438.448991 
L 534.943399 418.767535 
L 534.484158 407.484237 
L 540.440118 394.161285 
L 546.724208 387.09691 
L 555.753823 380.486815 
L 557.329984 376.111977 
L 557.67158 371.082295 
L 559.906836 366.323338 
L 559.188918 358.550967 
L 560.898315 346.397733 
L 563.578639 337.841533 
L 567.686295 330.508204 
L 569.732327 312.661232 
L 575.071714 305.698202 
L 582.415319 301.281904 
L 593.700743 305.942705 
L 602.435536 311.001798 
L 622.69884 315.028662 
L 626.799409 306.746731 
L 628.683148 305.689697 
L 634.93322 307.067066 
L 650.201569 300.22239 
L 655.611825 303.123475 
L 660.052573 302.712072 
L 662.109236 299.377259 
L 667.206245 298.202225 
L 686.318611 299.960877 
L 690.846529 298.505905 
L 699.153974 309.827473 
L 705.311915 311.490451 
L 708.983008 309.187512 
L 715.324504 310.090049 
L 722.962221 307.188963 
L 726.219431 313.046413 
L 738.292936 322.16001 
L 737.463042 338.195886 
L 742.959761 340.053048 
L 738.550904 344.922563 
L 733.282389 348.564954 
L 728.038678 355.716854 
L 725.153538 362.093076 
L 724.381758 373.101396 
L 721.204632 378.341564 
L 721.089822 388.680866 
L 717.145877 392.503623 
L 716.637735 400.664365 
L 714.753996 401.721754 
L 713.484705 409.224108 
L 716.933265 415.459298 
L 717.805681 431.999773 
L 720.274102 444.616854 
L 718.902757 451.748556 
L 721.646156 459.703065 
L 729.599956 467.382596 
L 737.005927 484.662959 
L 731.603466 483.267518 
L 713.182796 485.58215 
L 709.506742 487.221385 
L 705.598231 495.976023 
L 708.667634 502.024114 
L 704.533756 532.027155 
L 717.826942 539.804488 
L 721.590877 537.310554 
L 722.737562 552.099108 
L 712.241636 551.985716 
L 701.555776 538.594019 
L 691.046384 536.67768 
L 687.969186 529.491408 
L 679.585201 533.820889 
L 668.603103 531.908093 
L 664.019906 525.681408 
L 655.312043 524.416368 
L 648.884794 524.747334 
L 648.098131 520.484471 
L 637.121702 519.330699 
L 619.272249 522.305844 
L 620.005759 505.985777 
L 615.431066 500.896564 
L 614.424705 492.462261 
L 616.445224 484.195213 
L 613.665681 478.904019 
L 613.414091 470.274823 
L 596.773689 470.394594 
L 597.967858 465.4535 
L 590.97081 465.505236 
L 590.23163 467.881525 
L 581.725748 468.417306 
L 576.229738 479.838802 
L 568.651552 477.90191 
L 564.126468 479.831006 
L 555.057874 480.94013 
L 546.654046 469.334371 
L 539.335246 450.891023 
L 498.865335 450.709594 
L 484.42192 453.944125 
z
" clip-path="url(#pa1fc88d62c)" style="fill: #e8edf4; stroke: #b8c5d4; stroke-width: 0.45"/>
    <path d="M 501.125397 173.250738 
L 507.046903 155.185783 
L 524.540313 142.254092 
L 525.263192 124.416687 
L 530.5473 96.587245 
L 533.53024 90.684083 
L 527.823745 85.982886 
L 527.603109 81.621257 
L 522.471602 78.0546 
L 519.103543 56.736686 
L 532.9488 49.238126 
L 642.345051 101.753554 
L 643.020206 156.194194 
L 631.194377 155.23584 
L 624.931886 165.335451 
L 621.30528 173.803611 
L 624.164846 177.007817 
L 619.656549 181.213989 
L 621.21024 186.893897 
L 617.658377 192.610834 
L 616.276251 197.647817 
L 621.092709 196.854171 
L 623.96736 202.14528 
L 624.119177 210.111634 
L 629.159589 214.15392 
L 628.994269 217.475724 
L 620.312629 219.814097 
L 613.355268 225.366095 
L 603.44048 240.329346 
L 590.53283 246.682889 
L 577.289253 245.830671 
L 573.421848 247.091458 
L 574.779727 251.919159 
L 561.804749 262.067465 
L 544.539269 267.314365 
L 541.113388 264.208818 
L 538.841987 263.940928 
L 536.314035 267.468509 
L 524.975458 268.499321 
L 527.123544 264.784287 
L 520.868511 249.653428 
L 514.895542 247.325331 
L 506.800709 239.321212 
L 509.780106 232.849669 
L 516.030179 234.227392 
L 519.89971 233.250797 
L 527.559398 233.385096 
L 520.094604 220.918969 
L 520.596368 211.80927 
L 519.680366 202.710171 
L 514.227941 193.92828 
L 515.599286 187.46843 
L 506.804253 187.152702 
L 506.834727 178.331092 
z
" clip-path="url(#pa1fc88d62c)" style="fill: #e8edf4; stroke: #b8c5d4; stroke-width: 0.45"/>
    <path d="M 73.7137 168.280587 
L 79.7462 165.675741 
L 86.390313 156.047624 
L 89.64894 149.005219 
L 94.344822 144.608057 
L 101.16115 145.791949 
L 107.852746 142.802984 
L 115.510662 142.652384 
L 122.063706 146.683855 
L 131.167026 150.317033 
L 148.515425 169.826274 
L 149.144401 178.358023 
L 151.848466 186.211541 
L 156.981973 190.063355 
L 158.154526 195.366597 
L 157.52307 199.639028 
L 155.543301 200.412579 
L 148.065397 199.32826 
L 147.036356 200.853394 
L 144.013019 201.159909 
L 134.155637 197.816592 
L 102.192316 197.099382 
L 98.515553 198.643651 
L 93.974169 198.202127 
L 86.70923 200.436321 
L 84.459091 189.92374 
L 96.942227 190.213246 
L 107.778332 185.012412 
L 113.661295 187.910308 
L 119.62009 188.151977 
L 125.554788 185.073715 
L 122.784105 181.109926 
L 118.26221 183.419242 
L 114.006435 183.355105 
L 108.593343 179.979541 
L 104.245436 180.200657 
L 101.148393 183.447945 
L 86.211719 183.840568 
L 80.55625 173.163213 
z
" clip-path="url(#pa1fc88d62c)" style="fill: #e8edf4; stroke: #b8c5d4; stroke-width: 0.45"/>
    <path d="M 148.515425 169.826274 
L 153.130868 167.32667 
L 155.436641 159.247429 
L 159.78384 158.931346 
L 169.360575 162.750914 
L 177.094677 160.039053 
L 182.396502 160.949385 
L 184.453873 157.899471 
L 239.482364 157.691112 
L 242.53334 148.088863 
L 240.157406 146.398601 
L 226.919498 28.023899 
L 247.908516 27.77727 
L 340.432835 87.623185 
L 343.693589 94.049371 
L 358.582779 100.202351 
L 358.740112 108.927577 
L 373.953181 107.584934 
L 373.991451 139.169452 
L 366.49264 148.329823 
L 365.324694 156.780071 
L 353.142757 158.955088 
L 334.430101 160.134019 
L 329.359314 165.007786 
L 311.777043 165.609477 
L 308.353996 162.978408 
L 300.804158 164.930537 
L 287.985804 170.619315 
L 285.369264 174.906274 
L 274.728762 181.053938 
L 272.863449 184.576913 
L 267.115849 187.369212 
L 260.483784 185.520199 
L 256.725874 188.86706 
L 254.713151 198.272289 
L 243.827082 209.638506 
L 244.143873 214.283715 
L 240.403681 220.096871 
L 241.311887 228.058467 
L 232.450944 231.821338 
L 230.328371 225.955738 
L 226.36848 227.502133 
L 224.002821 227.234597 
L 221.478767 231.236656 
L 210.887874 231.123617 
L 207.09134 229.064474 
L 205.30363 230.310378 
L 201.114827 226.356865 
L 201.841959 222.272951 
L 200.12831 220.673048 
L 197.207026 222.022069 
L 197.742099 217.56006 
L 200.553533 214.029999 
L 194.933499 208.284879 
L 193.299225 204.502518 
L 190.251792 201.489457 
L 187.506976 201.129789 
L 176.019925 207.852568 
L 170.150073 206.75691 
L 166.342908 203.274686 
L 164.07009 202.817217 
L 158.315402 204.660559 
L 157.52307 199.639028 
L 158.154526 195.366597 
L 156.981973 190.063355 
L 151.848466 186.211541 
L 149.144401 178.358023 
z
" clip-path="url(#pa1fc88d62c)" style="fill: #e8edf4; stroke: #b8c5d4; stroke-width: 0.45"/>
    <path d="M 81.41591 82.289114 
L 84.408773 77.714421 
L 138.115173 77.800174 
L 135.514225 57.994694 
L 138.867819 50.950872 
L 151.718064 49.719851 
L 151.276541 14.628305 
L 196.288544 15.345515 
L 196.328231 -5.427348 
L 247.908516 27.77727 
L 226.919498 28.023899 
L 240.157406 146.398601 
L 242.53334 148.088863 
L 239.482364 157.691112 
L 184.453873 157.899471 
L 182.396502 160.949385 
L 177.094677 160.039053 
L 169.360575 162.750914 
L 159.78384 158.931346 
L 155.436641 159.247429 
L 153.130868 167.32667 
L 148.515425 169.826274 
L 131.167026 150.317033 
L 122.063706 146.683855 
L 115.510662 142.652384 
L 107.852746 142.802984 
L 101.16115 145.791949 
L 94.344822 144.608057 
L 89.64894 149.005219 
L 88.46115 141.615194 
L 92.289576 134.853082 
L 93.99295 121.940824 
L 90.820785 101.570506 
L 92.189649 94.731145 
L 88.644705 88.212119 
z
" clip-path="url(#pa1fc88d62c)" style="fill: #e8edf4; stroke: #b8c5d4; stroke-width: 0.45"/>
    <path d="M 326.020603 226.686059 
L 327.765436 219.46506 
L 332.48187 217.912995 
L 335.275586 211.916993 
L 341.97923 210.635654 
L 349.579387 202.518143 
L 354.495676 202.482708 
L 364.953332 210.374851 
L 364.418968 214.931117 
L 367.503254 223.066346 
L 364.80096 228.587161 
L 366.246011 232.275972 
L 355.368801 244.969948 
L 352.783444 253.620406 
L 352.343338 284.450506 
L 341.009013 286.050409 
L 337.631323 276.589192 
L 338.255692 245.093617 
L 335.493159 242.268009 
L 334.972261 235.537434 
z
" clip-path="url(#pa1fc88d62c)" style="fill: #e8edf4; stroke: #b8c5d4; stroke-width: 0.45"/>
    <path d="M 319.483151 172.19335 
L 320.56995 165.546402 
L 329.359314 165.007786 
L 334.430101 160.134019 
L 353.142757 158.955088 
L 365.324694 156.780071 
L 366.49264 148.329823 
L 373.991451 139.169452 
L 373.953181 107.584934 
L 393.292333 101.469161 
L 432.999677 74.528082 
L 479.99322 48.388548 
L 501.688109 54.301631 
L 509.401658 61.833751 
L 519.103543 56.736686 
L 522.471602 78.0546 
L 527.603109 81.621257 
L 527.823745 85.982886 
L 533.53024 90.684083 
L 530.5473 96.587245 
L 525.263192 124.416687 
L 524.540313 142.254092 
L 507.046903 155.185783 
L 501.125397 173.250738 
L 506.834727 178.331092 
L 506.804253 187.152702 
L 515.599286 187.46843 
L 514.227941 193.92828 
L 510.356993 194.714943 
L 509.915469 199.081276 
L 507.364839 199.384248 
L 498.085051 184.369971 
L 494.866111 183.824267 
L 484.14269 191.489979 
L 473.524158 187.488274 
L 466.142992 186.688146 
L 462.185581 188.613698 
L 454.146027 188.197688 
L 446.056156 194.042027 
L 439.061942 194.377245 
L 422.464063 187.288774 
L 415.964526 190.655478 
L 408.966061 190.421606 
L 403.822986 185.242033 
L 390.076228 180.124471 
L 375.337283 181.748824 
L 371.766117 184.714756 
L 369.837021 192.601938 
L 365.905832 198.131611 
L 364.953332 210.374851 
L 354.495676 202.482708 
L 349.579387 202.518143 
L 344.975637 206.535085 
L 345.28605 197.142613 
L 329.473416 194.032105 
L 329.047484 187.395434 
L 321.324721 178.440233 
z
" clip-path="url(#pa1fc88d62c)" style="fill: #e8edf4; stroke: #b8c5d4; stroke-width: 0.45"/>
    <path d="M 352.343338 284.450506 
L 352.783444 253.620406 
L 355.368801 244.969948 
L 366.246011 232.275972 
L 364.80096 228.587161 
L 367.503254 223.066346 
L 364.418968 214.931117 
L 365.905832 198.131611 
L 369.837021 192.601938 
L 371.766117 184.714756 
L 375.337283 181.748824 
L 390.076228 180.124471 
L 403.822986 185.242033 
L 408.966061 190.421606 
L 415.964526 190.655478 
L 422.464063 187.288774 
L 439.061942 194.377245 
L 446.056156 194.042027 
L 454.146027 188.197688 
L 462.185581 188.613698 
L 466.142992 186.688146 
L 473.524158 187.488274 
L 484.14269 191.489979 
L 494.866111 183.824267 
L 498.085051 184.369971 
L 507.364839 199.384248 
L 509.915469 199.081276 
L 515.344152 204.543623 
L 513.125196 211.578941 
L 501.571881 222.191095 
L 496.012796 238.07141 
L 493.103561 241.127702 
L 490.336066 250.727825 
L 483.001675 256.37727 
L 480.876976 263.316913 
L 477.796234 268.840562 
L 476.513477 274.541034 
L 467.091948 279.162147 
L 459.392573 273.526522 
L 454.193511 273.754016 
L 446.025681 281.780813 
L 442.054805 281.904128 
L 432.003946 304.841377 
L 417.766055 309.776801 
L 412.561323 309.055693 
L 407.287846 312.128994 
L 396.317796 311.829212 
L 388.975609 303.250688 
L 384.460447 293.323852 
L 374.751184 284.288213 
z
" clip-path="url(#pa1fc88d62c)" style="fill: #e8edf4; stroke: #b8c5d4; stroke-width: 0.45"/>
    <path d="M 431.846613 308.631533 
L 432.003946 304.841377 
L 435.531881 295.136011 
L 442.054805 281.904128 
L 446.025681 281.780813 
L 454.193511 273.754016 
L 459.392573 273.526522 
L 467.091948 279.162147 
L 476.513477 274.541034 
L 477.796234 268.840562 
L 480.876976 263.316913 
L 483.001675 256.37727 
L 490.336066 250.727825 
L 493.103561 241.127702 
L 496.012796 238.07141 
L 501.571881 222.191095 
L 513.125196 211.578941 
L 515.344152 204.543623 
L 509.915469 199.081276 
L 510.356993 194.714943 
L 514.227941 193.92828 
L 519.680366 202.710171 
L 520.596368 211.80927 
L 520.094604 220.918969 
L 527.559398 233.385096 
L 519.89971 233.250797 
L 516.030179 234.227392 
L 509.780106 232.849669 
L 506.800709 239.321212 
L 514.895542 247.325331 
L 520.868511 249.653428 
L 527.123544 264.784287 
L 518.078338 282.397741 
L 514.78711 284.887423 
L 513.729013 295.518712 
L 515.093979 301.294661 
L 513.989108 305.38141 
L 520.470218 312.543232 
L 521.639582 317.466963 
L 526.702573 324.544449 
L 532.974615 328.957203 
L 535.033404 339.186656 
L 534.046887 346.591918 
L 512.061429 339.732005 
L 493.046864 338.446413 
L 484.928644 340.212861 
L 476.594269 338.375897 
L 470.077015 339.277016 
L 447.759883 338.964122 
L 449.762685 328.136168 
L 444.402746 319.069346 
L 438.145586 316.743375 
L 435.358957 310.59819 
z
" clip-path="url(#pa1fc88d62c)" style="fill: #e8edf4; stroke: #b8c5d4; stroke-width: 0.45"/>
    <path d="M 314.74581 223.447984 
L 315.755006 219.172365 
L 327.765436 219.46506 
L 326.020603 226.686059 
L 334.972261 235.537434 
L 335.493159 242.268009 
L 338.255692 245.093617 
L 337.631323 276.589192 
L 341.009013 286.050409 
L 329.967383 288.975944 
L 323.250983 275.460225 
L 322.161702 268.638935 
L 325.193544 256.286201 
L 321.753488 251.283804 
L 320.469668 230.520509 
z
" clip-path="url(#pa1fc88d62c)" style="fill: #e8edf4; stroke: #b8c5d4; stroke-width: 0.45"/>
    <path d="M 270.934353 284.564962 
L 274.510835 269.078333 
L 280.289973 257.55939 
L 274.780851 227.721123 
L 275.102958 219.940247 
L 298.92538 219.293908 
L 304.984102 220.293536 
L 309.412093 218.079895 
L 315.755006 219.172365 
L 314.74581 223.447984 
L 320.469668 230.520509 
L 321.753488 251.283804 
L 325.193544 256.286201 
L 322.161702 268.638935 
L 323.250983 275.460225 
L 329.967383 288.975944 
L 308.46668 297.003804 
L 300.841719 301.706773 
L 288.484024 305.685091 
L 276.258856 301.790046 
L 276.881809 296.378726 
z
" clip-path="url(#pa1fc88d62c)" style="fill: #e8edf4; stroke: #b8c5d4; stroke-width: 0.45"/>
    <path d="M 197.446214 281.587691 
L 200.428092 275.495305 
L 199.056747 268.865721 
L 199.689621 264.877127 
L 201.864638 264.861536 
L 202.672562 258.880063 
L 201.613047 256.231631 
L 202.923444 254.325213 
L 208.016909 252.676056 
L 204.629297 241.697501 
L 201.468117 236.029276 
L 202.569091 231.373436 
L 207.09134 229.064474 
L 210.887874 231.123617 
L 221.478767 231.236656 
L 224.002821 227.234597 
L 226.36848 227.502133 
L 230.328371 225.955738 
L 232.450944 231.821338 
L 241.311887 228.058467 
L 247.479041 231.048495 
L 249.875882 235.584209 
L 256.042327 238.479979 
L 260.839554 235.03071 
L 267.265386 234.509812 
L 276.651479 238.046251 
L 280.289973 257.55939 
L 274.510835 269.078333 
L 270.934353 284.564962 
L 276.881809 296.378726 
L 276.258856 301.790046 
L 270.019415 301.929661 
L 260.450475 299.248274 
L 251.658276 299.40667 
L 235.412623 301.800677 
L 212.311663 310.789187 
L 209.661814 310.42881 
L 210.71495 299.133818 
L 212.026764 297.41698 
L 211.609336 292.013456 
L 205.800787 286.269399 
L 201.444375 285.352688 
z
" clip-path="url(#pa1fc88d62c)" style="fill: #e8edf4; stroke: #b8c5d4; stroke-width: 0.45"/>
    <path d="M 107.92716 218.874354 
L 114.024861 212.189845 
L 118.187088 212.44427 
L 121.763569 210.142395 
L 124.789032 210.120425 
L 126.950938 208.302596 
L 125.7837 203.758023 
L 127.285801 202.324312 
L 127.536329 197.675205 
L 134.155637 197.816592 
L 144.013019 201.159909 
L 147.036356 200.853394 
L 148.065397 199.32826 
L 155.543301 200.412579 
L 157.52307 199.639028 
L 158.315402 204.660559 
L 164.07009 202.817217 
L 166.342908 203.274686 
L 170.150073 206.75691 
L 176.019925 207.852568 
L 187.506976 201.129789 
L 190.251792 201.489457 
L 193.299225 204.502518 
L 194.933499 208.284879 
L 200.553533 214.029999 
L 197.742099 217.56006 
L 197.207026 222.022069 
L 200.12831 220.673048 
L 201.841959 222.272951 
L 201.114827 226.356865 
L 205.30363 230.310378 
L 202.569091 231.373436 
L 201.468117 236.029276 
L 204.629297 241.697501 
L 208.016909 252.676056 
L 202.923444 254.325213 
L 201.613047 256.231631 
L 202.672562 258.880063 
L 201.864638 264.861536 
L 195.810877 264.52561 
L 193.013971 270.047487 
L 189.136644 269.980515 
L 186.468368 267.059586 
L 187.374448 261.551528 
L 181.641022 253.151243 
L 171.353455 255.786564 
L 171.506535 250.758299 
L 169.306005 247.170124 
L 169.750009 243.182948 
L 162.960257 232.513743 
L 151.991624 232.498506 
L 148.795363 235.082446 
L 145.015838 235.394276 
L 141.093153 242.157097 
L 133.761596 248.186762 
L 122.413098 234.703997 
L 115.478416 230.201592 
L 113.92139 224.142161 
L 111.914691 221.121304 
z
" clip-path="url(#pa1fc88d62c)" style="fill: #e8edf4; stroke: #b8c5d4; stroke-width: 0.45"/>
    <path d="M 86.70923 200.436321 
L 93.974169 198.202127 
L 98.515553 198.643651 
L 102.192316 197.099382 
L 127.536329 197.675205 
L 127.285801 202.324312 
L 125.7837 203.758023 
L 126.950938 208.302596 
L 124.789032 210.120425 
L 121.763569 210.142395 
L 118.187088 212.44427 
L 114.024861 212.189845 
L 107.92716 218.874354 
L 100.605525 213.140928 
L 94.831348 212.234139 
L 91.682925 208.367797 
L 91.763008 206.28066 
L 87.581647 203.370361 
z
" clip-path="url(#pa1fc88d62c)" style="fill: #e8edf4; stroke: #b8c5d4; stroke-width: 0.45"/>
    <path d="M 158.553882 277.221712 
L 161.83129 272.834117 
L 162.559484 268.845169 
L 175.130146 255.00061 
L 181.641022 253.151243 
L 187.374448 261.551528 
L 186.468368 267.059586 
L 189.136644 269.980515 
L 193.013971 270.047487 
L 195.810877 264.52561 
L 199.689621 264.877127 
L 199.056747 268.865721 
L 200.428092 275.495305 
L 197.446214 281.587691 
L 201.444375 285.352688 
L 205.800787 286.269399 
L 211.609336 292.013456 
L 212.026764 297.41698 
L 210.71495 299.133818 
L 209.661814 310.42881 
L 206.069387 310.549644 
L 191.934258 304.012546 
L 179.473092 293.574025 
L 167.789021 286.070252 
z
" clip-path="url(#pa1fc88d62c)" style="fill: #e8edf4; stroke: #b8c5d4; stroke-width: 0.45"/>
    <path d="M 133.761596 248.186762 
L 141.093153 242.157097 
L 145.015838 235.394276 
L 148.795363 235.082446 
L 151.991624 232.498506 
L 162.960257 232.513743 
L 169.750009 243.182948 
L 169.306005 247.170124 
L 171.506535 250.758299 
L 171.353455 255.786564 
L 175.130146 255.00061 
L 162.559484 268.845169 
L 161.83129 272.834117 
L 158.553882 277.221712 
L 154.859046 276.204365 
L 144.986072 270.679653 
L 137.841613 263.332858 
L 135.441937 258.32302 
z
" clip-path="url(#pa1fc88d62c)" style="fill: #e8edf4; stroke: #b8c5d4; stroke-width: 0.45"/>
    <path d="M 240.403681 220.096871 
L 244.143873 214.283715 
L 243.827082 209.638506 
L 254.713151 198.272289 
L 256.725874 188.86706 
L 260.483784 185.520199 
L 267.115849 187.369212 
L 272.863449 184.576913 
L 274.728762 181.053938 
L 285.369264 174.906274 
L 287.985804 170.619315 
L 300.804158 164.930537 
L 308.353996 162.978408 
L 311.777043 165.609477 
L 320.56995 165.546402 
L 319.483151 172.19335 
L 321.324721 178.440233 
L 329.047484 187.395434 
L 329.473416 194.032105 
L 345.28605 197.142613 
L 344.975637 206.535085 
L 341.97923 210.635654 
L 335.275586 211.916993 
L 332.48187 217.912995 
L 327.765436 219.46506 
L 309.412093 218.079895 
L 304.984102 220.293536 
L 298.92538 219.293908 
L 275.102958 219.940247 
L 274.780851 227.721123 
L 276.651479 238.046251 
L 267.265386 234.509812 
L 260.839554 235.03071 
L 256.042327 238.479979 
L 249.875882 235.584209 
L 247.479041 231.048495 
L 241.311887 228.058467 
z
" clip-path="url(#pa1fc88d62c)" style="fill: #e8edf4; stroke: #b8c5d4; stroke-width: 0.45"/>
    <path d="M 513.729013 295.518712 
L 514.78711 284.887423 
L 518.078338 282.397741 
L 524.975458 268.499321 
L 536.314035 267.468509 
L 538.841987 263.940928 
L 541.113388 264.208818 
L 544.539269 267.314365 
L 561.804749 262.067465 
L 574.779727 251.919159 
L 573.421848 247.091458 
L 577.289253 245.830671 
L 590.53283 246.682889 
L 603.44048 240.329346 
L 613.355268 225.366095 
L 620.312629 219.814097 
L 628.994269 217.475724 
L 630.549169 223.344513 
L 638.459029 231.918785 
L 638.499426 237.514722 
L 636.271256 243.221927 
L 637.152177 247.484081 
L 659.861931 262.970001 
L 659.988081 267.427404 
L 669.211172 274.569382 
L 674.926881 280.503726 
L 678.389615 288.730732 
L 688.641038 294.158352 
L 690.846529 298.505905 
L 686.318611 299.960877 
L 667.206245 298.202225 
L 662.109236 299.377259 
L 660.052573 302.712072 
L 655.611825 303.123475 
L 650.201569 300.22239 
L 634.93322 307.067066 
L 628.683148 305.689697 
L 626.799409 306.746731 
L 622.69884 315.028662 
L 602.435536 311.001798 
L 593.700743 305.942705 
L 582.415319 301.281904 
L 575.071714 305.698202 
L 569.732327 312.661232 
L 568.49918 322.225565 
L 559.678633 321.460163 
L 550.396011 319.156162 
L 542.222512 326.423935 
L 535.033404 339.186656 
L 532.974615 328.957203 
L 526.702573 324.544449 
L 521.639582 317.466963 
L 520.470218 312.543232 
L 513.989108 305.38141 
L 515.093979 301.294661 
z
" clip-path="url(#pa1fc88d62c)" style="fill: #e8edf4; stroke: #b8c5d4; stroke-width: 0.45"/>
    <path d="M 467.571742 424.852479 
L 478.013098 417.282797 
L 472.841675 408.214203 
L 477.544643 404.765643 
L 486.798209 403.086011 
L 487.889615 397.008154 
L 495.217629 403.594153 
L 507.324442 404.171039 
L 511.532026 397.690637 
L 513.263393 388.572434 
L 511.768025 377.864605 
L 505.279827 369.754181 
L 511.217361 353.870677 
L 507.794314 351.144996 
L 497.590374 352.262624 
L 493.756987 345.176279 
L 494.754136 339.194097 
L 512.061429 339.732005 
L 534.046887 346.591918 
L 535.033404 339.186656 
L 542.222512 326.423935 
L 550.396011 319.156162 
L 559.678633 321.460163 
L 568.49918 322.225565 
L 567.686295 330.508204 
L 563.578639 337.841533 
L 560.898315 346.397733 
L 559.188918 358.550967 
L 559.906836 366.323338 
L 557.67158 371.082295 
L 557.329984 376.111977 
L 555.753823 380.486815 
L 546.724208 387.09691 
L 540.440118 394.161285 
L 534.484158 407.484237 
L 534.943399 418.767535 
L 515.418566 438.448991 
L 510.295335 436.019549 
L 509.416541 432.137261 
L 501.946077 432.001899 
L 497.255865 437.251988 
L 493.652807 435.85513 
L 488.513276 431.150035 
L 484.369476 433.456871 
L 478.833778 439.378104 
z
" clip-path="url(#pa1fc88d62c)" style="fill: #e8edf4; stroke: #b8c5d4; stroke-width: 0.45"/>
    <path d="M 436.086797 385.526419 
L 436.526903 380.970152 
L 439.521184 376.585392 
L 445.616758 356.432646 
L 470.195369 355.780637 
L 470.077015 339.277016 
L 476.594269 338.375897 
L 484.928644 340.212861 
L 493.046864 338.446413 
L 494.754136 339.194097 
L 493.756987 345.176279 
L 497.590374 352.262624 
L 507.794314 351.144996 
L 511.217361 353.870677 
L 505.279827 369.754181 
L 511.768025 377.864605 
L 513.263393 388.572434 
L 511.532026 397.690637 
L 507.324442 404.171039 
L 495.217629 403.594153 
L 487.889615 397.008154 
L 486.798209 403.086011 
L 477.544643 404.765643 
L 472.841675 408.214203 
L 478.013098 417.282797 
L 467.571742 424.852479 
L 453.478427 411.010046 
L 444.414794 399.693439 
z
" clip-path="url(#pa1fc88d62c)" style="fill: #e8edf4; stroke: #b8c5d4; stroke-width: 0.45"/>
    <path d="M 443.04841 354.364644 
L 447.759883 338.964122 
L 470.077015 339.277016 
L 470.195369 355.780637 
L 445.616758 356.432646 
z
" clip-path="url(#pa1fc88d62c)" style="fill: #e8edf4; stroke: #b8c5d4; stroke-width: 0.45"/>
    <path d="M 84.459091 189.92374 
L 86.211719 183.840568 
L 101.148393 183.447945 
L 104.245436 180.200657 
L 108.593343 179.979541 
L 114.006435 183.355105 
L 118.26221 183.419242 
L 122.784105 181.109926 
L 125.554788 185.073715 
L 119.62009 188.151977 
L 113.661295 187.910308 
L 107.778332 185.012412 
L 96.942227 190.213246 
z
" clip-path="url(#pa1fc88d62c)" style="fill: #e8edf4; stroke: #b8c5d4; stroke-width: 0.45"/>
    <path d="M 196.328231 -5.427348 
L 196.469264 -25.251963 
L 218.616306 -35.372275 
L 232.311329 -37.463311 
L 243.536513 -41.148933 
L 248.781995 -48.016288 
L 264.816809 -53.443908 
L 265.405743 -63.597175 
L 273.339699 -64.793115 
L 279.543706 -69.86532 
L 297.491669 -72.176762 
L 300.006156 -77.506581 
L 296.392467 -80.420777 
L 291.65548 -94.898919 
L 290.839052 -103.240027 
L 285.669755 -112.023721 
L 298.853446 -119.517926 
L 313.680625 -121.901656 
L 322.338879 -127.560314 
L 335.546312 -131.734589 
L 381.473254 -135.291935 
L 388.390218 -133.255116 
L 401.304956 -138.660412 
L 415.959565 -138.766363 
L 421.537076 -135.575417 
L 430.916083 -136.408146 
L 428.130162 -129.369284 
L 430.30447 -116.295442 
L 427.076317 -104.984859 
L 418.621463 -97.335448 
L 419.830514 -87.005004 
L 431.046485 -78.83434 
L 431.164839 -75.514764 
L 439.619694 -69.979775 
L 445.469348 -45.360769 
L 449.905843 -33.252183 
L 450.651401 -26.879859 
L 448.236133 -15.691528 
L 449.226903 -9.438975 
L 447.484197 -1.933076 
L 448.680492 6.689742 
L 443.237634 12.420688 
L 451.346641 22.416622 
L 451.86187 28.293207 
L 456.738471 35.940847 
L 463.150129 33.428132 
L 473.974894 39.800102 
L 479.99322 48.388548 
L 432.999677 74.528082 
L 393.292333 101.469161 
L 373.953181 107.584934 
L 358.740112 108.927577 
L 358.582779 100.202351 
L 343.693589 94.049371 
L 340.432835 87.623185 
z
" clip-path="url(#pa1fc88d62c)" style="fill: #e8edf4; stroke: #b8c5d4; stroke-width: 0.45"/>
    <path d="M 82.005553 76.49403 
L 82.652601 70.138361 
L 87.920408 66.401357 
L 92.40793 59.254773 
L 91.523466 54.613461 
L 96.238483 44.936798 
L 103.871948 36.217596 
L 108.489163 34.007853 
L 112.119152 26.008696 
L 112.444448 18.702652 
L 117.395109 10.225118 
L 126.530676 5.22662 
L 135.223656 -8.77917 
L 142.37024 -14.237973 
L 155.123393 -15.752831 
L 165.929733 -25.126522 
L 172.805592 -28.780607 
L 184.254018 -40.231868 
L 180.826719 -57.294658 
L 186.037121 -69.093894 
L 187.876211 -76.315601 
L 196.697467 -85.580507 
L 220.627966 -97.515105 
L 234.102936 -120.13698 
L 244.198444 -120.07107 
L 252.4662 -114.249764 
L 265.507796 -115.198012 
L 279.712378 -112.170423 
L 285.669755 -112.023721 
L 290.839052 -103.240027 
L 291.65548 -94.898919 
L 296.392467 -80.420777 
L 300.006156 -77.506581 
L 297.491669 -72.176762 
L 279.543706 -69.86532 
L 273.339699 -64.793115 
L 265.405743 -63.597175 
L 264.816809 -53.443908 
L 248.781995 -48.016288 
L 243.536513 -41.148933 
L 232.311329 -37.463311 
L 218.616306 -35.372275 
L 196.469264 -25.251963 
L 196.5862 -9.002412 
L 194.498354 -9.002412 
L 194.813019 -1.655264 
L 186.335486 -1.213386 
L 181.915291 1.907044 
L 175.687897 1.907044 
L 170.725542 0.126067 
L 159.187819 1.598757 
L 154.721557 12.286742 
L 150.435307 13.290978 
L 143.986797 30.581262 
L 124.921915 45.380448 
L 120.395413 64.317764 
L 114.777152 70.478539 
L 113.129766 75.420342 
z
" clip-path="url(#pa1fc88d62c)" style="fill: #e8edf4; stroke: #b8c5d4; stroke-width: 0.45"/>
    <path d="M 443.237634 12.420688 
L 448.680492 6.689742 
L 447.484197 -1.933076 
L 449.226903 -9.438975 
L 448.236133 -15.691528 
L 450.651401 -26.879859 
L 449.905843 -33.252183 
L 445.469348 -45.360769 
L 452.160235 -48.539312 
L 453.347316 -54.333687 
L 451.888801 -60.014669 
L 461.306077 -65.299485 
L 465.528544 -69.693459 
L 472.213762 -73.630671 
L 472.989085 -84.164513 
L 489.096823 -79.44384 
L 494.856137 -80.623817 
L 506.313326 -78.335451 
L 524.511497 -72.206811 
L 530.934034 -60.01728 
L 562.574949 -51.614674 
L 577.185051 -44.796206 
L 583.872549 -48.354103 
L 590.445943 -54.661851 
L 587.25024 -65.167406 
L 591.551589 -71.838171 
L 601.433417 -78.264686 
L 610.875154 -80.135314 
L 629.427566 -77.329097 
L 634.104686 -71.197577 
L 639.210926 -71.139566 
L 643.577143 -68.800046 
L 657.204206 -67.191223 
L 660.546103 -62.662629 
L 655.582217 -56.081691 
L 657.704503 -50.216229 
L 654.172389 -41.748891 
L 658.285714 -30.701548 
L 658.285714 95.958309 
L 642.514286 96 
L 642.345051 101.753554 
L 532.9488 49.238126 
L 509.401658 61.833751 
L 501.688109 54.301631 
L 479.99322 48.388548 
L 473.974894 39.800102 
L 463.150129 33.428132 
L 456.738471 35.940847 
L 451.86187 28.293207 
L 451.346641 22.416622 
z
" clip-path="url(#pa1fc88d62c)" style="fill: #e8edf4; stroke: #b8c5d4; stroke-width: 0.45"/>
   </g>
   <g id="PathCollection_1">
    <defs>
     <path id="mb19835b9f7" d="M 0 2.12132 
C 0.562581 2.12132 1.102195 1.897805 1.5 1.5 
C 1.897805 1.102195 2.12132 0.562581 2.12132 0 
C 2.12132 -0.562581 1.897805 -1.102195 1.5 -1.5 
C 1.102195 -1.897805 0.562581 -2.12132 0 -2.12132 
C -0.562581 -2.12132 -1.102195 -1.897805 -1.5 -1.5 
C -1.897805 -1.102195 -2.12132 -0.562581 -2.12132 0 
C -2.12132 0.562581 -1.897805 1.102195 -1.5 1.5 
C -1.102195 1.897805 -0.562581 2.12132 0 2.12132 
z
" style="stroke: #ffffff; stroke-width: 0.5"/>
    </defs>
    <g clip-path="url(#pa1fc88d62c)">
     <use xlink:href="#mb19835b9f7" x="88.228572" y="185.6" style="fill: #8aa0b7; stroke: #ffffff; stroke-width: 0.5"/>
     <use xlink:href="#mb19835b9f7" x="452.571429" y="342.857143" style="fill: #8aa0b7; stroke: #ffffff; stroke-width: 0.5"/>
     <use xlink:href="#mb19835b9f7" x="109.714286" y="205.714286" style="fill: #8aa0b7; stroke: #ffffff; stroke-width: 0.5"/>
     <use xlink:href="#mb19835b9f7" x="411.428571" y="356.571429" style="fill: #8aa0b7; stroke: #ffffff; stroke-width: 0.5"/>
     <use xlink:href="#mb19835b9f7" x="331.428571" y="260.571429" style="fill: #8aa0b7; stroke: #ffffff; stroke-width: 0.5"/>
    </g>
   </g>
   <g id="PatchCollection_2">
    <defs>
     <path id="m7f7eb4e9cc" d="M 240.403681 -163.903129 
L 244.143873 -169.716285 
L 243.827082 -174.361494 
L 254.713151 -185.727711 
L 256.725874 -195.13294 
L 260.483784 -198.479801 
L 267.115849 -196.630788 
L 272.863449 -199.423087 
L 274.728762 -202.946062 
L 285.369264 -209.093726 
L 287.985804 -213.380685 
L 300.804158 -219.069463 
L 308.353996 -221.021592 
L 311.777043 -218.390523 
L 320.56995 -218.453598 
L 319.483151 -211.80665 
L 321.324721 -205.559767 
L 329.047484 -196.604566 
L 329.473416 -189.967895 
L 345.28605 -186.857387 
L 344.975637 -177.464915 
L 341.97923 -173.364346 
L 335.275586 -172.083007 
L 332.48187 -166.087005 
L 327.765436 -164.53494 
L 309.412093 -165.920105 
L 304.984102 -163.706464 
L 298.92538 -164.706092 
L 275.102958 -164.059753 
L 274.780851 -156.278877 
L 276.651479 -145.953749 
L 267.265386 -149.490188 
L 260.839554 -148.96929 
L 256.042327 -145.520021 
L 249.875882 -148.415791 
L 247.479041 -152.951505 
L 241.311887 -155.941533 
z
" style="stroke: #b45309; stroke-width: 1.15"/>
    </defs>
    <g clip-path="url(#pa1fc88d62c)">
     <use xlink:href="#m7f7eb4e9cc" x="0" y="384" style="fill: #f59e0b; stroke: #b45309; stroke-width: 1.15"/>
    </g>
   </g>
   <g id="PathCollection_2">
    <defs>
     <path id="m8f21675f7c" d="M 0 3.316625 
C 0.879579 3.316625 1.723251 2.967164 2.345208 2.345208 
C 2.967164 1.723251 3.316625 0.879579 3.316625 0 
C 3.316625 -0.879579 2.967164 -1.723251 2.345208 -2.345208 
C 1.723251 -2.967164 0.879579 -3.316625 0 -3.316625 
C -0.879579 -3.316625 -1.723251 -2.967164 -2.345208 -2.345208 
C -2.967164 -1.723251 -3.316625 -0.879579 -3.316625 0 
C -3.316625 0.879579 -2.967164 1.723251 -2.345208 2.345208 
C -1.723251 2.967164 -0.879579 3.316625 0 3.316625 
z
" style="stroke: #ffffff"/>
    </defs>
    <g clip-path="url(#pa1fc88d62c)">
     <use xlink:href="#m8f21675f7c" x="288" y="192" style="fill: #f97316; stroke: #ffffff"/>
    </g>
   </g>
   <g id="PathCollection_3">
    <path d="M 288 196.449719 
C 289.180079 196.449719 290.311984 195.980869 291.146427 195.146427 
C 291.980869 194.311984 292.449719 193.180079 292.449719 192 
C 292.449719 190.819921 291.980869 189.688016 291.146427 188.853573 
C 290.311984 188.019131 289.180079 187.550281 288 187.550281 
C 286.819921 187.550281 285.688016 188.019131 284.853573 188.853573 
C 284.019131 189.688016 283.550281 190.819921 283.550281 192 
C 283.550281 193.180079 284.019131 194.311984 284.853573 195.146427 
C 285.688016 195.980869 286.819921 196.449719 288 196.449719 
L 288 196.449719 
z
" clip-path="url(#pa1fc88d62c)" style="fill: none; stroke: #7c2d12; stroke-width: 1.1"/>
   </g>
  </g>
 </g>
 <defs>
  <clipPath id="pa1fc88d62c">
   <rect x="0" y="-0" width="576" height="384"/>
  </clipPath>
 </defs>
</svg>
