<?xml version="1.0" encoding="utf-8" standalone="no"?>
<!DOCTYPE svg PUBLIC "-//W3C//DTD SVG 1.1//EN"
  "http://www.w3.org/Graphics/SVG/1.1/DTD/svg11.dtd">
<svg xmlns:xlink="http://www.w3.org/1999/xlink" width="533.730044pt" height="432pt" viewBox="0 0 533.730044 432" xmlns="http://www.w3.org/2000/svg" version="1.1">
 <metadata>
  <rdf:RDF xmlns:dc="http://purl.org/dc/elements/1.1/" xmlns:cc="http://creativecommons.org/ns#" xmlns:rdf="http://www.w3.org/1999/02/22-rdf-syntax-ns#">
   <cc:Work>
    <dc:type rdf:resource="http://purl.org/dc/dcmitype/StillImage"/>
    <dc:date>2026-06-09T04:57:15.230648</dc:date>
    <dc:format>image/svg+xml</dc:format>
    <dc:creator>
     <cc:Agent>
      <dc:title>Matplotlib v3.10.8, https://matplotlib.org/</dc:title>
     </cc:Agent>
    </dc:creator>
   </cc:Work>
  </rdf:RDF>
 </metadata>
 <defs>
  <style type="text/css">*{stroke-linejoin: round; stroke-linecap: butt}</style>
 </defs>
 <g id="figure_1">
  <g id="patch_1">
   <path d="M 0 432 
L 533.730044 432 
L 533.730044 0 
L 0 0 
z
" style="fill: #eaf3ff"/>
  </g>
  <g id="axes_1">
   <g id="PatchCollection_1">
    <path d="M 512.451692 307.891306 
L 515.475614 305.199065 
L 519.0393 306.168322 
L 520.983222 304.876006 
L 523.682909 307.137422 
L 522.386987 311.229588 
L 517.527379 312.306453 
L 513.207379 311.337196 
z
" clip-path="url(#p91f6a4eefd)" style="fill: #e8edf4; stroke: #b8c5d4; stroke-width: 0.45"/>
    <path d="M 522.732842 299.383759 
L 529.133455 297.345273 
L 533.730044 294.900604 
L 533.730044 298.725935 
L 523.737766 302.306277 
z
" clip-path="url(#p91f6a4eefd)" style="fill: #e8edf4; stroke: #b8c5d4; stroke-width: 0.45"/>
    <path d="M -2287.750363 298.725935 
L -2287.750363 294.900604 
L -2286.13052 294.538119 
L -2287.10275 298.307154 
z
" clip-path="url(#p91f6a4eefd)" style="fill: #e8edf4; stroke: #b8c5d4; stroke-width: 0.45"/>
    <path d="M 228.071315 189.353869 
L 241.669567 194.753884 
L 256.158844 199.238978 
L 265.922854 207.194613 
L 267.115207 211.811741 
L 280.173579 216.655676 
L 282.078347 220.812306 
L 274.866312 221.655944 
L 276.59814 226.878564 
L 283.595114 232.020587 
L 288.685295 240.332632 
L 293.174035 240.07221 
L 292.858936 243.543966 
L 298.910209 244.875643 
L 296.559523 246.353934 
L 304.889389 249.651535 
L 304.01902 251.916763 
L 298.829206 252.463528 
L 296.900543 250.431992 
L 282.250072 248.372105 
L 271.70763 239.062112 
L 267.636862 232.203247 
L 257.414378 228.776042 
L 250.775434 231.011299 
L 245.989012 233.598915 
L 246.98858 239.37964 
L 240.832409 242.073775 
L 236.442087 240.763159 
L 228.334978 240.436315 
z
" clip-path="url(#p91f6a4eefd)" style="fill: #e8edf4; stroke: #b8c5d4; stroke-width: 0.45"/>
    <path d="M 285.431435 214.018243 
L 286.081073 211.59344 
L 293.108018 212.737597 
L 297.396277 212.12441 
L 298.577289 208.367121 
L 299.702006 208.173121 
L 300.463427 212.333801 
L 304.935156 211.735194 
L 307.146922 209.053615 
L 311.521853 206.258632 
L 310.659584 201.640289 
L 315.353664 201.491245 
L 316.936448 202.777966 
L 316.779304 207.125357 
L 314.146731 211.909349 
L 310.042347 212.553722 
L 308.806253 214.751718 
L 300.497043 218.490377 
L 296.333527 218.480656 
z
" clip-path="url(#p91f6a4eefd)" style="fill: #e8edf4; stroke: #b8c5d4; stroke-width: 0.45"/>
    <path d="M 333.985801 209.25288 
L 335.070421 208.495104 
L 335.912844 210.827159 
L 338.28702 212.604753 
L 342.086835 217.572621 
L 345.787828 220.23233 
L 344.691057 222.426681 
L 342.496302 223.210377 
L 339.102713 220.200334 
L 335.671458 215.222746 
z
" clip-path="url(#p91f6a4eefd)" style="fill: #e8edf4; stroke: #b8c5d4; stroke-width: 0.45"/>
    <path d="M 303.795454 190.461575 
L 305.973604 188.568957 
L 316.162472 194.368718 
L 322.275711 200.168479 
L 323.216552 204.243702 
L 320.765424 206.33194 
L 319.287133 201.705496 
L 317.463773 198.677227 
L 309.455891 192.765278 
z
" clip-path="url(#p91f6a4eefd)" style="fill: #e8edf4; stroke: #b8c5d4; stroke-width: 0.45"/>
    <path d="M 53.825766 190.935843 
L 57.064235 185.803136 
L 58.180446 179.580543 
L 62.119586 167.766366 
L 63.763121 164.535591 
L 70.425556 158.714365 
L 76.546895 161.028599 
L 86.427954 162.116054 
L 95.440669 161.78759 
L 103.187724 156.096372 
L 104.555447 157.847438 
L 98.258332 165.621831 
L 92.368254 167.128878 
L 84.825325 165.596315 
L 71.765333 165.987556 
L 64.918213 167.115918 
L 63.803622 173.048117 
L 70.818417 180.01755 
L 75.049974 176.467627 
L 89.664804 173.800628 
L 89.020836 177.410088 
L 85.606187 176.271601 
L 82.203282 180.863619 
L 75.304321 183.901608 
L 82.720887 193.945886 
L 81.289172 196.637591 
L 88.335557 205.683517 
L 88.26792 210.832019 
L 84.084154 213.136128 
L 81.010929 210.380027 
L 84.797784 203.963029 
L 77.106621 206.997373 
L 75.156897 204.828133 
L 76.173475 201.802294 
L 70.522759 197.206632 
L 71.104355 189.569335 
L 65.87728 191.951611 
L 66.859027 212.302615 
L 61.888729 213.440292 
L 58.521466 211.139828 
L 60.768468 203.925768 
L 59.55546 196.362588 
L 56.259883 196.304672 
z
" clip-path="url(#p91f6a4eefd)" style="fill: #e8edf4; stroke: #b8c5d4; stroke-width: 0.45"/>
    <path d="M -23.099636 165.719844 
L -22.186741 158.457993 
L -17.530327 153.249751 
L -16.221736 158.487761 
L -10.862222 162.915951 
L -5.806467 161.322232 
L -0.802958 161.886818 
L 3.763948 157.92358 
L 7.522452 157.236479 
L 14.936993 159.432855 
L 21.328475 157.762386 
L 25.346591 146.862116 
L 28.36433 144.136593 
L 31.079525 135.222904 
L 40.090215 135.226549 
L 46.883873 136.547493 
L 42.425915 143.625672 
L 48.187199 151.04568 
L 46.833652 154.651292 
L 55.62037 161.904233 
L 46.333868 162.828874 
L 43.719926 168.172187 
L 44.059325 175.274464 
L 36.522876 180.634787 
L 36.31713 188.439759 
L 33.294127 200.424851 
L 32.14025 197.637159 
L 23.236483 201.163591 
L 20.131667 196.372713 
L 14.543727 195.929631 
L 10.635369 193.418562 
L 1.31768 196.237035 
L -1.541699 192.444105 
L -6.675621 192.875037 
L -13.136765 191.970646 
L -14.335193 181.45939 
L -18.245982 179.280835 
L -22.008536 172.576684 
z
" clip-path="url(#p91f6a4eefd)" style="fill: #e8edf4; stroke: #b8c5d4; stroke-width: 0.45"/>
    <path d="M 145.929774 176.324658 
L 156.494491 174.425965 
L 160.511798 171.871559 
L 173.094281 175.090184 
L 174.331186 178.003024 
L 176.519866 190.678661 
L 184.631431 195.369906 
L 191.181273 187.056645 
L 200.174142 182.326519 
L 207.14155 182.320039 
L 219.657612 187.856137 
L 228.071315 189.353869 
L 228.334978 240.436315 
L 221.356229 234.003926 
L 213.396138 232.427623 
L 211.465855 234.66045 
L 201.53579 234.901431 
L 204.863767 228.523315 
L 209.797614 226.347189 
L 207.754332 217.824943 
L 203.991778 211.245536 
L 188.798187 204.608617 
L 182.335018 203.953309 
L 170.565391 196.710898 
L 168.251967 200.519623 
L 165.244354 201.210573 
L 163.46514 198.336613 
L 163.440434 194.931279 
L 157.452748 191.081242 
L 165.893992 188.258719 
L 171.483552 188.411003 
L 170.826624 186.331675 
L 159.353871 186.31588 
L 156.249055 181.649745 
L 149.24722 180.20264 
z
" clip-path="url(#p91f6a4eefd)" style="fill: #e8edf4; stroke: #b8c5d4; stroke-width: 0.45"/>
    <path d="M -130.156254 126.027529 
L -112.977702 127.857572 
L -106.04715 135.522207 
L -95.663878 144.0967 
L -88.238402 152.521541 
L -80.271021 152.644461 
L -73.685538 158.013088 
L -69.151033 164.575687 
L -63.182382 168.155986 
L -66.323244 174.555164 
L -61.831265 177.276839 
L -59.016032 177.477725 
L -57.687595 182.944566 
L -54.957009 187.318283 
L -49.20261 188.011257 
L -45.389834 192.971834 
L -47.358189 202.719644 
L -47.670047 214.842845 
L -56.348223 215.006875 
L -62.948691 208.455008 
L -73.0116 202.051376 
L -76.366713 197.300999 
L -82.300127 190.918427 
L -86.192285 185.044144 
L -92.152835 174.07239 
L -99.036001 167.539964 
L -104.227435 154.683693 
L -111.294881 149.748631 
L -115.391164 143.04286 
L -121.292178 138.653349 
L -129.467735 130.017092 
z
" clip-path="url(#p91f6a4eefd)" style="fill: #e8edf4; stroke: #b8c5d4; stroke-width: 0.45"/>
    <path d="M -51.213896 222.672927 
L -45.836157 215.18427 
L -36.326493 215.647198 
L -30.001028 218.709893 
L -26.750408 219.307284 
L -25.679558 222.094976 
L -10.664982 222.876243 
L -8.938014 219.645874 
L 5.602294 223.414503 
L 8.454788 228.494559 
L 20.212264 229.923438 
L 29.825611 234.581067 
L 20.882963 237.567215 
L 12.263514 234.409748 
L -2.962073 234.042808 
L -10.297232 232.635799 
L -19.376773 229.642361 
L -25.129553 228.865954 
L -28.389083 229.846081 
L -42.681929 226.618952 
L -44.041552 223.248853 
z
" clip-path="url(#p91f6a4eefd)" style="fill: #e8edf4; stroke: #b8c5d4; stroke-width: 0.45"/>
    <path d="M 121.476411 161.046014 
L 123.051904 154.784136 
L 125.652887 151.932047 
L 126.215447 156.2118 
L 130.8427 156.899307 
L 131.576986 160.100313 
L 131.167114 166.949458 
L 127.124697 166.181962 
L 125.932344 170.950969 
L 129.161094 175.088564 
L 126.966743 176.029 
L 123.80401 171.064777 
z
" clip-path="url(#p91f6a4eefd)" style="fill: #e8edf4; stroke: #b8c5d4; stroke-width: 0.45"/>
    <path d="M 125.390439 195.571196 
L 127.247821 191.262282 
L 136.927994 190.937058 
L 145.551898 193.222536 
L 148.400747 199.215892 
L 141.783674 195.985523 
L 135.237072 195.32981 
L 130.812325 195.847414 
z
" clip-path="url(#p91f6a4eefd)" style="fill: #e8edf4; stroke: #b8c5d4; stroke-width: 0.45"/>
    <path d="M 90.600785 249.230729 
L 91.306315 246.56616 
L 94.676413 241.785407 
L 102.425088 238.672086 
L 103.219315 240.217609 
L 103.364309 242.59381 
L 98.249827 248.447032 
L 91.541221 250.171165 
z
" clip-path="url(#p91f6a4eefd)" style="fill: #e8edf4; stroke: #b8c5d4; stroke-width: 0.45"/>
    <path d="M 62.863591 235.161449 
L 69.087804 233.532088 
L 73.998565 235.881559 
L 79.215919 235.284977 
L 86.239624 232.413447 
L 85.091012 236.767723 
L 73.315311 238.99245 
L 62.890727 238.026498 
z
" clip-path="url(#p91f6a4eefd)" style="fill: #e8edf4; stroke: #b8c5d4; stroke-width: 0.45"/>
    <path d="M 37.93434 239.770476 
L 40.62726 235.257841 
L 44.924429 235.19628 
L 47.024817 232.424788 
L 49.850986 234.515051 
L 54.6933 233.874728 
L 56.637354 237.206755 
L 42.147672 239.832848 
z
" clip-path="url(#p91f6a4eefd)" style="fill: #e8edf4; stroke: #b8c5d4; stroke-width: 0.45"/>
    <path d="M 174.091419 217.116578 
L 177.123333 211.650547 
L 178.905382 213.943315 
L 178.886752 217.680354 
L 174.85446 223.016377 
z
" clip-path="url(#p91f6a4eefd)" style="fill: #e8edf4; stroke: #b8c5d4; stroke-width: 0.45"/>
    <path d="M 110.422034 193.877034 
L 118.350534 193.501184 
L 120.298638 196.085561 
L 117.365142 198.686948 
L 111.948522 197.247943 
z
" clip-path="url(#p91f6a4eefd)" style="fill: #e8edf4; stroke: #b8c5d4; stroke-width: 0.45"/>
    <path d="M 55.393564 243.88539 
L 62.701992 242.344323 
L 69.561262 247.112115 
L 69.091854 249.227488 
L 65.795467 249.376938 
z
" clip-path="url(#p91f6a4eefd)" style="fill: #e8edf4; stroke: #b8c5d4; stroke-width: 0.45"/>
    <path d="M 102.425088 238.672086 
L 103.346488 236.82321 
L 110.093165 235.061411 
L 115.560817 234.796128 
L 118.010325 233.817216 
L 120.978247 234.788838 
L 118.094567 236.912312 
L 103.364309 242.59381 
L 103.219315 240.217609 
z
" clip-path="url(#p91f6a4eefd)" style="fill: #e8edf4; stroke: #b8c5d4; stroke-width: 0.45"/>
    <path d="M 428.936632 283.609701 
L 432.687441 286.019113 
L 433.959582 292.336883 
L 431.852713 291.353921 
L 430.222138 291.778778 
L 429.099042 289.614803 
z
" clip-path="url(#p91f6a4eefd)" style="fill: #e8edf4; stroke: #b8c5d4; stroke-width: 0.45"/>
    <path d="M 433.254052 295.62841 
L 433.54242 293.526806 
L 438.464927 298.029316 
L 435.880955 299.06007 
z
" clip-path="url(#p91f6a4eefd)" style="fill: #e8edf4; stroke: #b8c5d4; stroke-width: 0.45"/>
    <path d="M 408.562948 326.552232 
L 411.935881 326.664825 
L 416.325393 329.329394 
L 432.783834 342.653048 
L 429.805787 344.53392 
L 419.886252 338.888064 
L 414.834547 334.735888 
L 409.647568 329.209915 
z
" clip-path="url(#p91f6a4eefd)" style="fill: #e8edf4; stroke: #b8c5d4; stroke-width: 0.45"/>
    <path d="M 374.159674 244.528143 
L 374.652978 241.416442 
L 379.825781 242.649701 
L 382.377352 244.294452 
L 383.660428 246.353934 
L 380.606643 246.528494 
L 375.801185 245.735482 
z
" clip-path="url(#p91f6a4eefd)" style="fill: #e8edf4; stroke: #b8c5d4; stroke-width: 0.45"/>
    <path d="M 381.526828 234.182941 
L 384.191802 234.182941 
L 387.013111 240.45292 
L 390.147897 244.214664 
L 388.967695 245.65934 
L 383.159024 238.866086 
z
" clip-path="url(#p91f6a4eefd)" style="fill: #e8edf4; stroke: #b8c5d4; stroke-width: 0.45"/>
    <path d="M 362.961114 227.143846 
L 364.127546 226.345569 
L 374.159674 231.831851 
L 376.001665 234.31862 
L 376.333775 235.893709 
L 370.191374 232.569782 
z
" clip-path="url(#p91f6a4eefd)" style="fill: #e8edf4; stroke: #b8c5d4; stroke-width: 0.45"/>
    <path d="M 349.48234 222.003039 
L 349.885731 220.697283 
L 357.688678 226.563465 
L 356.12898 227.009788 
L 352.700965 225.223688 
z
" clip-path="url(#p91f6a4eefd)" style="fill: #e8edf4; stroke: #b8c5d4; stroke-width: 0.45"/>
    <path d="M 387.324969 248.954511 
L 393.588873 251.133066 
L 395.780389 253.826391 
L 390.305042 253.776575 
z
" clip-path="url(#p91f6a4eefd)" style="fill: #e8edf4; stroke: #b8c5d4; stroke-width: 0.45"/>
    <path d="M 11.277716 373.662327 
L 14.721527 377.051866 
L 12.077209 369.7807 
L 15.964101 372.053218 
L 18.283601 375.087967 
L 18.152782 371.073901 
L 11.705408 360.089591 
L 12.555932 355.5563 
L 14.162206 353.627232 
L 15.231436 349.706723 
L 14.393873 345.125641 
L 17.632343 339.48586 
L 18.224469 345.454916 
L 21.535436 340.063001 
L 27.902617 337.442578 
L 31.721063 334.100021 
L 37.710774 331.223631 
L 41.274468 330.611659 
L 43.431558 331.578016 
L 49.607574 328.657075 
L 54.361191 327.787921 
L 55.550304 326.070673 
L 57.624771 325.355423 
L 61.956771 325.540109 
L 70.193889 323.245315 
L 74.454607 319.765864 
L 76.455363 315.577237 
L 81.05224 311.598407 
L 81.609536 304.210192 
L 87.094198 297.550188 
L 90.395444 304.31671 
L 93.730712 302.752962 
L 90.939779 299.049539 
L 93.399413 295.246889 
L 96.857398 296.944696 
L 97.809175 290.981311 
L 102.091763 287.125604 
L 103.981546 284.032128 
L 107.922305 282.697211 
L 108.045428 280.507315 
L 111.488834 281.421831 
L 111.627348 279.451856 
L 118.861658 277.272896 
L 124.651699 280.8698 
L 129.001924 285.511634 
L 138.891083 286.300191 
L 137.230537 281.996542 
L 140.984991 275.711172 
L 144.518309 273.663031 
L 143.295986 271.704801 
L 146.6997 267.228617 
L 151.446836 264.464011 
L 155.456448 265.395132 
L 162.041525 263.918461 
L 161.899771 259.913305 
L 156.158737 257.332978 
L 160.332378 256.194492 
L 165.523407 258.13733 
L 169.687327 261.351499 
L 176.2882 263.35671 
L 178.526292 262.563698 
L 183.384402 264.97311 
L 187.963054 262.728943 
L 190.907485 263.411387 
L 192.742186 261.905555 
L 196.340711 265.783132 
L 194.252068 269.978239 
L 191.276045 273.144616 
L 188.582721 273.405444 
L 189.490756 276.53861 
L 184.404625 284.306726 
L 184.96516 286.519302 
L 191.195853 290.849682 
L 197.23214 293.361562 
L 206.933779 300.70401 
L 209.143521 300.696315 
L 213.245474 302.703146 
L 214.437017 305.124303 
L 221.919195 307.782796 
L 227.093618 305.104457 
L 230.217875 297.422204 
L 233.572988 286.889077 
L 232.485128 283.098982 
L 233.050523 280.818769 
L 232.144108 276.33327 
L 233.171217 270.428611 
L 234.674213 268.836512 
L 233.453914 266.219329 
L 236.835758 257.75824 
L 237.033404 255.522173 
L 239.945434 252.586652 
L 242.155986 256.420488 
L 242.700321 261.337324 
L 244.653285 262.28505 
L 244.987824 265.576982 
L 247.836673 269.563912 
L 248.424749 274.000405 
L 248.147722 276.847229 
L 250.97146 282.996919 
L 256.000079 280.041147 
L 258.595796 283.358594 
L 262.356325 286.419264 
L 261.551163 289.893046 
L 263.222644 296.613397 
L 264.412162 300.52621 
L 266.386187 301.482442 
L 268.513306 308.181327 
L 267.755935 312.2444 
L 270.293735 317.559767 
L 278.786416 321.654431 
L 289.58118 328.790324 
L 288.554882 330.689016 
L 293.037546 335.603422 
L 296.08566 344.083548 
L 299.213157 342.36144 
L 302.391685 345.757864 
L 304.306578 344.552956 
L 305.656886 352.859331 
L 314.857931 360.662682 
L 320.98413 367.007993 
L 323.186176 373.306727 
L 322.847182 382.626441 
L 326.582196 389.286445 
L 326.132633 396.222668 
L 322.661687 406.843682 
L 322.821261 411.337687 
L 321.269258 416.955597 
L 317.808437 424.0842 
L 312.001791 427.935047 
L 309.139982 434.00657 
L 306.52685 437.880907 
L 304.203705 444.645405 
L 301.179081 448.551738 
L 299.196147 454.416706 
L 298.184428 459.815505 
L 298.58539 462.293769 
L 294.091385 465.016659 
L 285.319247 465.301787 
L 278.086151 468.516361 
L 269.74859 474.915944 
L 263.25707 471.451883 
L 258.455257 470.069984 
L 259.671911 465.984636 
L 255.388512 467.466977 
L 248.525192 473.1424 
L 225.237047 466.949778 
L 220.170761 462.118804 
L 218.716366 456.167569 
L 216.894625 452.207774 
L 213.043779 449.028841 
L 205.503685 448.08476 
L 208.079961 444.283325 
L 206.184104 438.463718 
L 202.356342 443.888034 
L 195.382859 445.327849 
L 199.481573 440.992203 
L 200.669066 436.469443 
L 203.69612 432.630747 
L 203.070782 426.827341 
L 196.695096 433.510836 
L 191.79851 436.1912 
L 188.796567 442.424728 
L 182.676847 439.200029 
L 182.919854 435.040564 
L 178.015168 429.357041 
L 173.880813 426.420305 
L 175.354244 424.611119 
L 165.297815 419.861553 
L 159.790473 419.637582 
L 152.252809 415.821971 
L 138.219575 416.563546 
L 119.151646 421.985837 
L 111.673519 421.466207 
L 103.365119 425.485134 
L 96.570245 427.293509 
L 95.059959 431.403158 
L 92.165748 434.587761 
L 80.592958 435.475141 
L 73.665646 434.045856 
L 62.65015 435.26089 
L 57.988471 439.440605 
L 55.703398 439.086221 
L 48.004134 443.793261 
L 37.032785 443.482618 
L 28.71912 438.477084 
L 24.506193 436.988668 
L 24.677108 432.497093 
L 28.568456 431.429888 
L 29.897298 429.645409 
L 29.620675 426.830176 
L 30.578931 421.38075 
L 29.700867 416.736081 
L 25.557197 408.813657 
L 24.272907 404.339498 
L 24.609876 399.875059 
L 21.490074 394.773942 
L 21.290404 392.471049 
L 17.819053 389.349222 
L 16.841761 383.210062 
L 12.363552 377.005695 
z
" clip-path="url(#p91f6a4eefd)" style="fill: #e8edf4; stroke: #b8c5d4; stroke-width: 0.45"/>
    <path d="M 257.209848 491.584586 
L 257.411138 487.990516 
L 262.538581 488.684705 
L 270.11067 491.389775 
L 280.496373 488.807829 
L 285.197339 489.334343 
L 285.752204 498.637451 
L 283.067385 501.338066 
L 282.258172 507.643281 
L 279.519081 505.497126 
L 274.07816 510.959108 
L 267.636052 510.294079 
L 262.804673 503.585473 
L 261.732203 498.411455 
z
" clip-path="url(#p91f6a4eefd)" style="fill: #e8edf4; stroke: #b8c5d4; stroke-width: 0.45"/>
    <path d="M 62.572388 40.725684 
L 65.728641 43.304796 
L 66.540283 31.043486 
L 69.093879 23.941614 
L 73.83899 23.950727 
L 78.669154 26.188414 
L 81.086261 24.147562 
L 81.799081 26.1388 
L 80.524106 29.388205 
L 83.19961 35.005913 
L 81.135673 41.519304 
L 76.515305 44.116843 
L 75.27921 50.435424 
L 77.032909 56.677457 
L 81.187514 57.540941 
L 84.65441 56.613465 
L 94.443532 60.958628 
L 93.697501 65.225016 
L 96.253932 67.107913 
L 95.439859 70.719803 
L 89.33148 66.872804 
L 86.43646 62.755055 
L 84.419909 65.632052 
L 79.429765 60.9402 
L 72.311288 62.098532 
L 68.41022 60.366704 
L 68.807941 57.127019 
L 71.256639 55.133351 
L 68.917294 53.320724 
L 67.904766 56.145272 
L 64.035289 51.641952 
L 62.863591 48.228922 
z
" clip-path="url(#p91f6a4eefd)" style="fill: #e8edf4; stroke: #b8c5d4; stroke-width: 0.45"/>
    <path d="M 78.53064 112.607482 
L 81.606296 106.001749 
L 86.544193 103.797273 
L 90.817871 100.844336 
L 93.588148 104.392234 
L 99.547078 102.24608 
L 100.825698 98.748605 
L 106.365037 98.540227 
L 105.900489 92.479234 
L 112.253495 96.196224 
L 114.720013 112.628947 
L 112.050179 119.800886 
L 109.18675 111.81123 
L 105.522209 115.786617 
L 108.024773 121.56147 
L 105.778176 125.234517 
L 96.555665 120.686038 
L 94.352809 115.013451 
L 96.74278 111.286943 
L 91.778153 107.580482 
L 89.316089 110.830293 
L 85.628057 110.528559 
L 79.828296 114.901465 
z
" clip-path="url(#p91f6a4eefd)" style="fill: #e8edf4; stroke: #b8c5d4; stroke-width: 0.45"/>
    <path d="M 96.92382 70.554559 
L 104.450549 70.727296 
L 106.609259 73.65087 
L 108.8109 82.401947 
L 102.763677 80.322417 
L 102.927302 82.952965 
L 104.84503 87.789406 
L 101.117306 89.545333 
L 100.790867 84.03313 
L 98.431272 83.626094 
L 97.204088 78.880982 
L 101.816356 79.506319 
L 101.714293 76.539005 
z
" clip-path="url(#p91f6a4eefd)" style="fill: #e8edf4; stroke: #b8c5d4; stroke-width: 0.45"/>
    <path d="M 82.13686 92.847389 
L 85.71878 88.554068 
L 86.583479 83.689275 
L 90.905353 83.228778 
L 89.642933 88.505264 
L 95.443909 80.939452 
L 94.695448 88.415959 
L 91.87981 90.992033 
L 89.424632 95.943902 
L 86.963379 98.264414 
z
" clip-path="url(#p91f6a4eefd)" style="fill: #e8edf4; stroke: #b8c5d4; stroke-width: 0.45"/>
    <path d="M 78.245513 75.774343 
L 82.950123 78.200563 
L 87.937836 78.18902 
L 87.785957 81.462929 
L 84.156246 84.790906 
L 79.178658 87.144426 
L 78.902441 83.502565 
L 79.458926 79.504294 
z
" clip-path="url(#p91f6a4eefd)" style="fill: #e8edf4; stroke: #b8c5d4; stroke-width: 0.45"/>
    <path d="M 41.33684 103.395501 
L 45.178776 97.91408 
L 50.840833 93.073588 
L 55.546658 87.651703 
L 59.654687 79.866172 
L 61.051166 86.256641 
L 55.876743 90.572239 
L 51.763044 95.958685 
z
" clip-path="url(#p91f6a4eefd)" style="fill: #e8edf4; stroke: #b8c5d4; stroke-width: 0.45"/>
    <path d="M 66.018224 63.433044 
L 72.7325 63.720804 
L 75.454175 66.543125 
L 73.375658 73.314913 
z
" clip-path="url(#p91f6a4eefd)" style="fill: #e8edf4; stroke: #b8c5d4; stroke-width: 0.45"/>
    <path d="M -17.530327 153.249751 
L -11.786458 155.935583 
L -5.730325 154.471062 
L -4.153211 147.835358 
L -0.807819 146.35727 
L 8.586822 144.660475 
L 18.057604 133.504036 
L 21.628183 137.565691 
L 23.273744 134.895655 
L 27.019288 135.143926 
L 27.8285 126.279041 
L 33.863572 120.8284 
L 37.816482 114.702807 
L 40.98691 114.677089 
L 45.013531 118.641947 
L 45.371561 122.048698 
L 57.071526 126.591709 
L 56.51342 129.661694 
L 51.254754 130.050505 
L 52.654473 133.877659 
L 46.883873 136.547493 
L 40.090215 135.226549 
L 31.079525 135.222904 
L 28.36433 144.136593 
L 25.346591 146.862116 
L 21.328475 157.762386 
L 14.936993 159.432855 
L 7.522452 157.236479 
L 3.763948 157.92358 
L -0.802958 161.886818 
L -5.806467 161.322232 
L -10.862222 162.915951 
L -16.221736 158.487761 
z
" clip-path="url(#p91f6a4eefd)" style="fill: #e8edf4; stroke: #b8c5d4; stroke-width: 0.45"/>
    <path d="M -92.593488 118.310242 
L -91.23103 116.912549 
L -84.836308 120.345019 
L -84.219475 124.369413 
L -79.046267 123.433432 
L -76.484166 120.213593 
L -74.681866 120.945853 
L -70.053398 125.677397 
L -66.765517 130.924519 
L -66.315954 136.202221 
L -67.150277 139.767535 
L -65.81536 147.10087 
L -63.054804 149.260593 
L -59.972668 156.191347 
L -60.122523 158.841133 
L -65.680087 159.364003 
L -82.366549 147.337599 
L -83.284304 143.344594 
L -87.815165 138.102533 
L -88.89695 131.612026 
L -91.723928 127.338955 
L -90.865305 121.632752 
z
" clip-path="url(#p91f6a4eefd)" style="fill: #e8edf4; stroke: #b8c5d4; stroke-width: 0.45"/>
    <path d="M 18.057604 133.504036 
L 21.1608 130.571755 
L 27.8285 126.279041 
L 27.019288 135.143926 
L 23.273744 134.895655 
L 21.628183 137.565691 
z
" clip-path="url(#p91f6a4eefd)" style="fill: #e8edf4; stroke: #b8c5d4; stroke-width: 0.45"/>
   </g>
   <g id="PathCollection_1">
    <defs>
     <path id="m5f3c584968" d="M 0 2.12132 
C 0.562581 2.12132 1.102195 1.897805 1.5 1.5 
C 1.897805 1.102195 2.12132 0.562581 2.12132 0 
C 2.12132 -0.562581 1.897805 -1.102195 1.5 -1.5 
C 1.102195 -1.897805 0.562581 -2.12132 0 -2.12132 
C -0.562581 -2.12132 -1.102195 -1.897805 -1.5 -1.5 
C -1.897805 -1.102195 -2.12132 -0.562581 -2.12132 0 
C -2.12132 0.562581 -1.897805 1.102195 -1.5 1.5 
C -1.102195 1.897805 -0.562581 2.12132 0 2.12132 
z
" style="stroke: #ffffff; stroke-width: 0.5"/>
    </defs>
    <g clip-path="url(#p91f6a4eefd)">
     <use xlink:href="#m5f3c584968" x="21.683599" y="133.706821" style="fill: #8aa0b7; stroke: #ffffff; stroke-width: 0.5"/>
     <use xlink:href="#m5f3c584968" x="363.265602" y="114.766328" style="fill: #8aa0b7; stroke: #ffffff; stroke-width: 0.5"/>
     <use xlink:href="#m5f3c584968" x="257.721335" y="63.43106" style="fill: #8aa0b7; stroke: #ffffff; stroke-width: 0.5"/>
     <use xlink:href="#m5f3c584968" x="478.867925" y="157.872279" style="fill: #8aa0b7; stroke: #ffffff; stroke-width: 0.5"/>
     <use xlink:href="#m5f3c584968" x="439.680697" y="98.438316" style="fill: #8aa0b7; stroke: #ffffff; stroke-width: 0.5"/>
     <use xlink:href="#m5f3c584968" x="265.297533" y="49.846154" style="fill: #8aa0b7; stroke: #ffffff; stroke-width: 0.5"/>
     <use xlink:href="#m5f3c584968" x="439.288824" y="396.522496" style="fill: #8aa0b7; stroke: #ffffff; stroke-width: 0.5"/>
     <use xlink:href="#m5f3c584968" x="431.190131" y="173.155298" style="fill: #8aa0b7; stroke: #ffffff; stroke-width: 0.5"/>
     <use xlink:href="#m5f3c584968" x="177.12627" y="110.194485" style="fill: #8aa0b7; stroke: #ffffff; stroke-width: 0.5"/>
     <use xlink:href="#m5f3c584968" x="109.854862" y="238.206096" style="fill: #8aa0b7; stroke: #ffffff; stroke-width: 0.5"/>
     <use xlink:href="#m5f3c584968" x="518.055152" y="231.674891" style="fill: #8aa0b7; stroke: #ffffff; stroke-width: 0.5"/>
     <use xlink:href="#m5f3c584968" x="428.708273" y="17.843512" style="fill: #8aa0b7; stroke: #ffffff; stroke-width: 0.5"/>
     <use xlink:href="#m5f3c584968" x="431.843251" y="294.374456" style="fill: #8aa0b7; stroke: #ffffff; stroke-width: 0.5"/>
    </g>
   </g>
   <g id="PatchCollection_2">
    <path d="M 228.071315 189.353869 
L 241.669567 194.753884 
L 256.158844 199.238978 
L 265.922854 207.194613 
L 267.115207 211.811741 
L 280.173579 216.655676 
L 282.078347 220.812306 
L 274.866312 221.655944 
L 276.59814 226.878564 
L 283.595114 232.020587 
L 288.685295 240.332632 
L 293.174035 240.07221 
L 292.858936 243.543966 
L 298.910209 244.875643 
L 296.559523 246.353934 
L 304.889389 249.651535 
L 304.01902 251.916763 
L 298.829206 252.463528 
L 296.900543 250.431992 
L 282.250072 248.372105 
L 271.70763 239.062112 
L 267.636862 232.203247 
L 257.414378 228.776042 
L 250.775434 231.011299 
L 245.989012 233.598915 
L 246.98858 239.37964 
L 240.832409 242.073775 
L 236.442087 240.763159 
L 228.334978 240.436315 
z
" clip-path="url(#p91f6a4eefd)" style="fill: #f59e0b; stroke: #b45309; stroke-width: 1.15"/>
    <path d="M 285.431435 214.018243 
L 286.081073 211.59344 
L 293.108018 212.737597 
L 297.396277 212.12441 
L 298.577289 208.367121 
L 299.702006 208.173121 
L 300.463427 212.333801 
L 304.935156 211.735194 
L 307.146922 209.053615 
L 311.521853 206.258632 
L 310.659584 201.640289 
L 315.353664 201.491245 
L 316.936448 202.777966 
L 316.779304 207.125357 
L 314.146731 211.909349 
L 310.042347 212.553722 
L 308.806253 214.751718 
L 300.497043 218.490377 
L 296.333527 218.480656 
z
" clip-path="url(#p91f6a4eefd)" style="fill: #f59e0b; stroke: #b45309; stroke-width: 1.15"/>
    <path d="M 333.985801 209.25288 
L 335.070421 208.495104 
L 335.912844 210.827159 
L 338.28702 212.604753 
L 342.086835 217.572621 
L 345.787828 220.23233 
L 344.691057 222.426681 
L 342.496302 223.210377 
L 339.102713 220.200334 
L 335.671458 215.222746 
z
" clip-path="url(#p91f6a4eefd)" style="fill: #f59e0b; stroke: #b45309; stroke-width: 1.15"/>
    <path d="M 303.795454 190.461575 
L 305.973604 188.568957 
L 316.162472 194.368718 
L 322.275711 200.168479 
L 323.216552 204.243702 
L 320.765424 206.33194 
L 319.287133 201.705496 
L 317.463773 198.677227 
L 309.455891 192.765278 
z
" clip-path="url(#p91f6a4eefd)" style="fill: #f59e0b; stroke: #b45309; stroke-width: 1.15"/>
   </g>
   <g id="PathCollection_2">
    <path d="M 275.09434 220.135215 
C 276.191011 220.135215 277.242914 219.699502 278.018378 218.924038 
C 278.793842 218.148574 279.229554 217.096672 279.229554 216 
C 279.229554 214.903328 278.793842 213.851426 278.018378 213.075962 
C 277.242914 212.300498 276.191011 211.864785 275.09434 211.864785 
C 273.997668 211.864785 272.945765 212.300498 272.170301 213.075962 
C 271.394837 213.851426 270.959125 214.903328 270.959125 216 
C 270.959125 217.096672 271.394837 218.148574 272.170301 218.924038 
C 272.945765 219.699502 273.997668 220.135215 275.09434 220.135215 
L 275.09434 220.135215 
z
" clip-path="url(#p91f6a4eefd)" style="fill: none; stroke: #7c2d12; stroke-width: 1.1"/>
   </g>
  </g>
 </g>
 <defs>
  <clipPath id="p91f6a4eefd">
   <rect x="0" y="0" width="533.730044" height="432"/>
  </clipPath>
 </defs>
</svg>
