<?xml version="1.0" encoding="utf-8" standalone="no"?>
<!DOCTYPE svg PUBLIC "-//W3C//DTD SVG 1.1//EN"
  "http://www.w3.org/Graphics/SVG/1.1/DTD/svg11.dtd">
<svg xmlns:xlink="http://www.w3.org/1999/xlink" width="424.306613pt" height="432pt" viewBox="0 0 424.306613 432" xmlns="http://www.w3.org/2000/svg" version="1.1">
 <metadata>
  <rdf:RDF xmlns:dc="http://purl.org/dc/elements/1.1/" xmlns:cc="http://creativecommons.org/ns#" xmlns:rdf="http://www.w3.org/1999/02/22-rdf-syntax-ns#">
   <cc:Work>
    <dc:type rdf:resource="http://purl.org/dc/dcmitype/StillImage"/>
    <dc:date>2026-06-09T04:57:22.768841</dc:date>
    <dc:format>image/svg+xml</dc:format>
    <dc:creator>
     <cc:Agent>
      <dc:title>Matplotlib v3.10.8, https://matplotlib.org/</dc:title>
     </cc:Agent>
    </dc:creator>
   </cc:Work>
  </rdf:RDF>
 </metadata>
 <defs>
  <style type="text/css">*{stroke-linejoin: round; stroke-linecap: butt}</style>
 </defs>
 <g id="figure_1">
  <g id="patch_1">
   <path d="M 0 432 
L 424.306613 432 
L 424.306613 0 
L 0 0 
z
" style="fill: #eaf3ff"/>
  </g>
  <g id="axes_1">
   <g id="PatchCollection_1">
    <path d="M 312.215564 389.584407 
L 315.996848 383.591385 
L 317.300151 376.325798 
L 321.899547 362.531396 
L 323.818562 358.759097 
L 331.597716 351.96215 
L 338.745079 354.664283 
L 350.282344 355.934011 
L 360.805719 355.550492 
L 369.85129 348.905345 
L 371.448263 350.949915 
L 364.095662 360.027407 
L 357.218323 361.787056 
L 348.411091 359.997614 
L 333.162059 360.454433 
L 325.167264 361.771923 
L 323.865852 368.698444 
L 332.056426 376.836053 
L 336.997252 372.691112 
L 354.061736 369.577086 
L 353.30983 373.791543 
L 349.322837 372.46223 
L 345.349557 377.823935 
L 337.294232 381.371134 
L 345.953919 393.098977 
L 344.282229 396.24185 
L 352.509689 406.804001 
L 352.430715 412.815467 
L 347.54569 415.505777 
L 343.957349 412.287714 
L 348.378934 404.795136 
L 339.398623 408.338079 
L 337.122097 405.805243 
L 338.309068 402.272231 
L 331.711211 396.90627 
L 332.390291 387.988853 
L 326.287084 390.770433 
L 327.433386 414.532555 
L 321.629995 415.860923 
L 317.698331 413.174868 
L 320.321963 404.751629 
L 318.905636 395.920753 
L 315.057674 395.853128 
z
" clip-path="url(#p82d0b6d744)" style="fill: #e8edf4; stroke: #b8c5d4; stroke-width: 0.45"/>
    <path d="M 222.396368 360.141848 
L 223.462278 351.662807 
L 228.899173 345.581589 
L 230.427103 351.697565 
L 236.684948 356.867983 
L 242.588119 355.007133 
L 248.430287 355.666352 
L 253.762673 351.038819 
L 258.151156 350.23655 
L 266.808479 352.80107 
L 274.271264 350.850606 
L 278.962874 338.123296 
L 282.486429 334.940937 
L 285.65673 324.533186 
L 296.17774 324.537442 
L 304.110112 326.079795 
L 298.904936 334.344377 
L 305.631894 343.008085 
L 304.051473 347.218049 
L 314.31097 355.686686 
L 303.467918 356.76631 
L 300.415841 363.005238 
L 300.812129 371.297958 
L 292.012464 377.556748 
L 291.772232 386.669944 
L 288.24253 400.663908 
L 286.895247 397.408959 
L 276.499082 401.526472 
L 272.873854 395.932575 
L 266.349296 395.415226 
L 261.785841 392.483265 
L 250.906376 395.774155 
L 247.567724 391.345475 
L 241.573283 391.848638 
L 234.029159 390.792659 
L 232.629857 378.519566 
L 228.063565 375.975854 
L 223.670353 368.147992 
z
" clip-path="url(#p82d0b6d744)" style="fill: #e8edf4; stroke: #b8c5d4; stroke-width: 0.45"/>
    <path d="M 419.757516 372.52418 
L 432.093031 370.307239 
L 436.783696 367.324678 
L 451.475183 371.08279 
L 452.91941 374.483864 
L 455.474945 389.284118 
L 464.946123 394.761682 
L 472.593812 385.055001 
L 483.094014 379.532038 
L 491.229259 379.524472 
L 505.843191 385.9885 
L 515.667151 387.737272 
L 515.975007 447.381864 
L 507.826521 439.871316 
L 498.532205 438.030801 
L 496.278379 440.637882 
L 484.683893 440.919255 
L 488.569687 433.472075 
L 494.330517 430.9312 
L 491.944752 420.980504 
L 487.55154 413.298294 
L 469.811286 405.548933 
L 462.264798 404.783786 
L 448.522415 396.327444 
L 445.821228 400.774566 
L 442.309496 401.581328 
L 440.23206 398.225652 
L 440.203213 394.249535 
L 433.211905 389.754177 
L 443.068022 386.458559 
L 449.594472 386.636368 
L 448.827433 384.208516 
L 435.431683 384.190073 
L 431.806456 378.741828 
L 423.631015 377.052167 
z
" clip-path="url(#p82d0b6d744)" style="fill: #e8edf4; stroke: #b8c5d4; stroke-width: 0.45"/>
    <path d="M 97.395537 313.796535 
L 117.453458 315.93332 
L 125.545669 324.882657 
L 137.669326 334.894356 
L 146.339418 344.731321 
L 155.642245 344.874845 
L 163.331548 351.14333 
L 168.626102 358.805914 
L 175.595183 362.986323 
L 171.927868 370.458093 
L 177.172767 373.63596 
L 180.459873 373.870517 
L 182.010975 380.253679 
L 185.199246 385.360493 
L 191.918165 386.169619 
L 196.370016 391.96166 
L 194.071737 403.343342 
L 193.707606 417.498564 
L 183.574845 417.690088 
L 175.868045 410.040035 
L 164.118449 402.563062 
L 160.200971 397.016455 
L 153.273032 389.564073 
L 148.728493 382.705177 
L 141.768869 369.8944 
L 133.731987 362.267046 
L 127.670395 347.255881 
L 119.418344 341.493632 
L 114.635465 333.663879 
L 107.745358 328.538622 
L 98.199461 318.454806 
z
" clip-path="url(#p82d0b6d744)" style="fill: #e8edf4; stroke: #b8c5d4; stroke-width: 0.45"/>
    <path d="M 189.569759 426.64108 
L 195.848884 417.897216 
L 206.952502 418.437738 
L 214.338206 422.013784 
L 218.133676 422.711307 
L 219.384015 425.966256 
L 236.915248 426.878474 
L 238.931681 423.106648 
L 255.909152 427.506954 
L 259.239764 433.438499 
L 272.967961 435.10688 
L 284.192641 440.545194 
L 273.751078 444.031862 
L 263.686887 440.345158 
L 245.909274 439.916714 
L 237.344639 438.27387 
L 226.743237 434.778689 
L 220.026209 433.872146 
L 216.220335 435.016556 
L 199.531804 431.248514 
L 197.94429 427.313539 
z
" clip-path="url(#p82d0b6d744)" style="fill: #e8edf4; stroke: #b8c5d4; stroke-width: 0.45"/>
    <path d="M 391.205421 354.684618 
L 393.04499 347.373159 
L 396.081934 344.043019 
L 396.738788 349.040121 
L 402.141635 349.842863 
L 402.998997 353.580404 
L 402.520425 361.577563 
L 397.800441 360.681423 
L 396.408233 366.249784 
L 400.178167 371.080898 
L 397.616012 372.178965 
L 393.92316 366.382668 
z
" clip-path="url(#p82d0b6d744)" style="fill: #e8edf4; stroke: #b8c5d4; stroke-width: 0.45"/>
    <path d="M 395.775497 394.996712 
L 397.944202 389.965562 
L 409.24691 389.585826 
L 419.316304 392.254383 
L 422.64266 399.252311 
L 414.916471 395.480486 
L 407.272566 394.714866 
L 402.106167 395.319228 
z
" clip-path="url(#p82d0b6d744)" style="fill: #e8edf4; stroke: #b8c5d4; stroke-width: 0.45"/>
    <path d="M 355.154601 457.650347 
L 355.978387 454.539158 
L 359.913362 448.957083 
L 368.960825 445.321925 
L 369.888176 447.1265 
L 370.057473 449.900986 
L 364.085731 456.735291 
L 356.252667 458.748413 
z
" clip-path="url(#p82d0b6d744)" style="fill: #e8edf4; stroke: #b8c5d4; stroke-width: 0.45"/>
    <path d="M 322.768258 441.222855 
L 330.035737 439.320391 
L 335.769612 442.063666 
L 341.86147 441.367089 
L 350.062447 438.01425 
L 348.721312 443.098364 
L 334.971835 445.695987 
L 322.799942 444.568128 
z
" clip-path="url(#p82d0b6d744)" style="fill: #e8edf4; stroke: #b8c5d4; stroke-width: 0.45"/>
    <path d="M 293.660509 446.604421 
L 296.804801 441.335404 
L 301.822237 441.263524 
L 304.27468 438.027491 
L 307.574554 440.468112 
L 313.228509 439.720462 
L 315.498414 443.610984 
L 298.580056 446.677248 
z
" clip-path="url(#p82d0b6d744)" style="fill: #e8edf4; stroke: #b8c5d4; stroke-width: 0.45"/>
    <path d="M 452.639455 420.153407 
L 456.179561 413.771191 
L 458.260307 416.44826 
L 458.238554 420.81168 
L 453.530393 427.042096 
z
" clip-path="url(#p82d0b6d744)" style="fill: #e8edf4; stroke: #b8c5d4; stroke-width: 0.45"/>
    <path d="M 378.298174 393.018585 
L 387.555603 392.579736 
L 389.830237 395.597291 
L 386.405045 398.634708 
L 380.080522 396.954505 
z
" clip-path="url(#p82d0b6d744)" style="fill: #e8edf4; stroke: #b8c5d4; stroke-width: 0.45"/>
    <path d="M 314.046148 451.409054 
L 322.579572 449.609681 
L 330.588554 455.176623 
L 330.040466 457.646564 
L 326.191559 457.821063 
z
" clip-path="url(#p82d0b6d744)" style="fill: #e8edf4; stroke: #b8c5d4; stroke-width: 0.45"/>
    <path d="M 161.95731 241.370723 
L 167.816975 233.761812 
L 179.649328 232.013749 
L 188.227205 233.32722 
L 195.778422 236.915561 
L 199.918634 230.605935 
L 208.029761 233.974852 
L 210.151177 240.077823 
L 209.024263 251.043829 
L 193.642347 258.086445 
L 197.661024 263.630215 
L 188.054597 264.29369 
L 180.133574 267.979448 
L 172.473591 266.643278 
L 168.752838 261.874586 
L 164.124596 252.422086 
z
" clip-path="url(#p82d0b6d744)" style="fill: #e8edf4; stroke: #b8c5d4; stroke-width: 0.45"/>
    <path d="M 116.456118 195.146708 
L 120.316848 193.484476 
L 124.489217 183.591 
L 130.949462 183.181235 
L 136.290359 179.213157 
L 141.531002 177.096944 
L 145.492459 179.921084 
L 146.017848 185.419929 
L 152.201447 185.838679 
L 149.949512 195.48081 
L 150.165626 203.684152 
L 159.811304 198.224557 
L 162.551268 199.838082 
L 167.911082 199.573496 
L 169.754907 196.389481 
L 176.675752 197.017961 
L 183.634903 204.449536 
L 184.205689 213.481629 
L 191.615511 221.457272 
L 191.206455 229.202613 
L 188.227205 233.32722 
L 179.649328 232.013749 
L 167.816975 233.761812 
L 161.95731 241.370723 
L 164.124596 252.422086 
L 155.908959 248.220398 
L 148.08157 248.391113 
L 149.423651 241.201662 
L 141.364543 241.255336 
L 140.64101 251.320237 
L 132.725662 272.769893 
L 133.353669 279.393523 
L 139.315007 279.680808 
L 143.028667 288.033113 
L 144.672456 295.954136 
L 149.77927 301.195015 
L 155.322567 302.258797 
L 160.063831 307.0081 
L 157.072285 310.76763 
L 151.031973 311.860495 
L 150.311751 307.161555 
L 142.845183 303.153754 
L 141.254358 304.785721 
L 137.639061 301.274226 
L 136.073772 296.742218 
L 126.777565 287.235572 
L 125.275645 292.614538 
L 123.540113 287.531133 
L 127.232965 273.045356 
L 131.667319 263.641801 
L 136.692794 255.110978 
L 133.115329 246.765294 
L 133.258617 242.514188 
L 132.213042 237.405955 
L 126.109835 230.135166 
L 123.925051 225.544283 
L 127.084948 223.853204 
L 130.434004 215.897896 
L 126.685823 209.858057 
L 120.878177 203.176734 
z
" clip-path="url(#p82d0b6d744)" style="fill: #e8edf4; stroke: #b8c5d4; stroke-width: 0.45"/>
    <path d="M 141.531002 177.096944 
L 143.481229 173.726844 
L 151.267949 167.774491 
L 152.091735 169.92428 
L 156.97014 170.17397 
L 155.587389 159.706634 
L 160.331491 158.365498 
L 165.679954 165.591363 
L 169.788482 173.905835 
L 181.054778 173.977479 
L 184.601504 181.958087 
L 178.752243 184.355438 
L 176.127192 187.645145 
L 187.090833 193.119399 
L 200.464357 211.995315 
L 207.388986 218.362162 
L 209.693413 224.826189 
L 208.029761 233.974852 
L 199.918634 230.605935 
L 195.778422 236.915561 
L 188.227205 233.32722 
L 191.206455 229.202613 
L 191.615511 221.457272 
L 184.205689 213.481629 
L 183.634903 204.449536 
L 176.675752 197.017961 
L 169.754907 196.389481 
L 167.911082 199.573496 
L 162.551268 199.838082 
L 159.811304 198.224557 
L 150.165626 203.684152 
L 149.949512 195.48081 
L 152.201447 185.838679 
L 146.017848 185.419929 
L 145.492459 179.921084 
z
" clip-path="url(#p82d0b6d744)" style="fill: #e8edf4; stroke: #b8c5d4; stroke-width: 0.45"/>
    <path d="M 70.035615 167.4184 
L 73.22956 168.804224 
L 73.416827 162.241125 
L 77.932047 160.070291 
L 76.963554 156.184261 
L 79.032005 153.067871 
L 79.387623 143.597402 
L 86.539716 145.682167 
L 90.620343 138.137098 
L 91.083309 133.678153 
L 96.133848 126.002091 
L 95.855784 120.765231 
L 107.702797 114.441654 
L 114.242488 116.09632 
L 113.492 110.465773 
L 116.700133 108.786753 
L 116.009703 105.318054 
L 121.36195 104.637556 
L 124.420647 110.025033 
L 128.414734 112.206743 
L 128.315426 126.758017 
L 119.647226 134.399794 
L 118.550106 145.255142 
L 128.209497 143.737143 
L 130.391916 152.161328 
L 136.186795 153.933745 
L 133.522966 161.535799 
L 144.28137 166.655617 
L 150.993669 163.991316 
L 151.267949 167.774491 
L 143.481229 173.726844 
L 141.531002 177.096944 
L 136.290359 179.213157 
L 130.949462 183.181235 
L 124.489217 183.591 
L 120.316848 193.484476 
L 116.456118 195.146708 
L 120.878177 203.176734 
L 126.685823 209.858057 
L 130.434004 215.897896 
L 127.084948 223.853204 
L 123.925051 225.544283 
L 126.109835 230.135166 
L 132.213042 237.405955 
L 133.258617 242.514188 
L 133.115329 246.765294 
L 136.692794 255.110978 
L 131.667319 263.641801 
L 127.232965 273.045356 
L 126.351012 266.252429 
L 129.163803 259.242442 
L 126.087136 253.827772 
L 126.83053 243.858633 
L 123.115452 239.117606 
L 120.133364 228.165314 
L 118.480117 216.604877 
L 114.52197 209.026231 
L 98.094005 220.138835 
L 92.96071 219.323797 
L 87.290676 217.178028 
L 90.444898 205.837015 
L 88.535341 197.269069 
L 81.362441 186.718031 
L 82.481315 183.419338 
L 77.128122 182.246318 
L 70.633356 174.781404 
z
" clip-path="url(#p82d0b6d744)" style="fill: #e8edf4; stroke: #b8c5d4; stroke-width: 0.45"/>
    <path d="M 160.331491 158.365498 
L 165.241579 156.132243 
L 172.539796 156.17835 
L 181.437824 155.122371 
L 189.237785 150.245622 
L 193.648967 153.678854 
L 202.014513 155.350071 
L 200.567449 160.621689 
L 204.92472 164.339841 
L 214.137697 166.714729 
L 201.919934 174.543773 
L 194.293526 183.189747 
L 192.283241 189.53957 
L 207.839657 211.142681 
L 216.144672 216.795454 
L 221.704993 224.144272 
L 225.897697 241.079891 
L 224.661072 257.178247 
L 217.028989 263.204608 
L 206.549121 269.09643 
L 199.083498 276.725203 
L 187.673442 285.245622 
L 184.350869 279.377209 
L 186.922482 273.177767 
L 180.133574 267.979448 
L 188.054597 264.29369 
L 197.661024 263.630215 
L 193.642347 258.086445 
L 209.024263 251.043829 
L 210.151177 240.077823 
L 208.029761 233.974852 
L 209.693413 224.826189 
L 207.388986 218.362162 
L 200.464357 211.995315 
L 187.090833 193.119399 
L 176.127192 187.645145 
L 178.752243 184.355438 
L 184.601504 181.958087 
L 181.054778 173.977479 
L 169.788482 173.905835 
L 165.679954 165.591363 
z
" clip-path="url(#p82d0b6d744)" style="fill: #e8edf4; stroke: #b8c5d4; stroke-width: 0.45"/>
    <path d="M 362.527063 -1.447165 
L 369.978972 -7.316051 
L 380.064444 -12.234888 
L 386.351608 -18.725161 
L 390.695639 -15.857042 
L 398.608149 -15.524122 
L 397.178582 -20.351454 
L 411.312051 -24.292813 
L 414.95052 -29.421143 
L 422.140779 -22.417089 
L 418.663706 -22.966101 
L 411.958974 -16.753418 
L 412.305134 -10.180388 
L 407.573328 -8.157808 
L 402.49678 -3.838841 
L 396.402558 -2.334083 
L 392.43117 0.123562 
L 392.144595 4.085256 
L 391.076794 5.096073 
L 394.718099 6.583807 
L 399.901049 10.597992 
L 398.583559 12.811149 
L 388.220496 13.856961 
L 384.655327 17.987242 
L 380.570444 17.661416 
L 379.997765 18.49135 
L 375.553481 16.749671 
L 374.449266 18.46936 
L 371.766995 19.229069 
L 371.44448 17.507252 
L 366.613365 15.209209 
L 369.119246 11.181547 
L 371.278493 10.107361 
L 370.463219 8.435434 
L 372.785142 3.499337 
L 372.185982 2.0038 
L 366.845085 1.006697 
z
" clip-path="url(#p82d0b6d744)" style="fill: #e8edf4; stroke: #b8c5d4; stroke-width: 0.45"/>
    <path d="M 422.140883 -22.417073 
L 422.140894 -22.417096 
L 422.140917 -22.417067 
z
" clip-path="url(#p82d0b6d744)" style="fill: #e8edf4; stroke: #b8c5d4; stroke-width: 0.45"/>
    <path d="M 379.47285 27.86393 
L 386.269797 26.322522 
L 379.997765 18.49135 
L 380.570444 17.661416 
L 384.655327 17.987242 
L 388.220496 13.856961 
L 398.583559 12.811149 
L 399.901049 10.597992 
L 407.800319 21.394937 
L 410.065495 27.326719 
L 410.137375 37.869245 
L 406.688065 42.899213 
L 398.401493 44.657207 
L 391.086724 48.452205 
L 382.843659 49.235795 
L 381.82031 44.25288 
L 383.516118 37.389728 
z
" clip-path="url(#p82d0b6d744)" style="fill: #e8edf4; stroke: #b8c5d4; stroke-width: 0.45"/>
    <path d="M -150.749534 147.135143 
L -144.655312 141.029808 
L -124.516999 141.053689 
L -126.333868 133.196744 
L -131.475203 128.555971 
L -132.517941 121.512881 
L -138.507653 117.403171 
L -128.422181 107.810694 
L -117.796188 108.506325 
L -108.223337 98.912193 
L -102.486625 89.625444 
L -93.603257 80.443206 
L -93.744653 73.920066 
L -85.941381 68.626458 
L -93.327085 64.107692 
L -99.747606 49.897851 
L -95.261233 45.951999 
L -81.380291 48.184545 
L -71.179905 46.824494 
L -62.342409 39.133299 
L -52.506626 49.859073 
L -53.432558 57.323987 
L -49.792198 62.007557 
L -50.092015 66.680251 
L -56.659607 65.450483 
L -54.093195 75.537373 
L -45.10248 81.331779 
L -32.383445 87.730547 
L -38.190146 91.881635 
L -41.743493 100.441542 
L -12.315121 113.527308 
L 0.228942 114.713333 
L 5.506944 119.36853 
L 23.586738 122.372844 
L 31.207471 122.219862 
L 32.255883 118.597945 
L 31.050942 112.783205 
L 31.758396 108.841609 
L 37.339525 106.916919 
L 38.303288 115.957288 
L 46.620599 119.430716 
L 52.374335 118.000203 
L 67.567093 118.34258 
L 68.20976 112.721019 
L 64.484751 109.800644 
L 71.86478 108.655524 
L 80.194385 101.849356 
L 90.74235 96.021848 
L 98.418412 98.270472 
L 104.942025 94.417072 
L 109.233091 100.10744 
L 106.142237 103.950437 
L 116.009703 105.318054 
L 116.700133 108.786753 
L 113.492 110.465773 
L 114.242488 116.09632 
L 107.702797 114.441654 
L 95.855784 120.765231 
L 96.133848 126.002091 
L 91.083309 133.678153 
L 90.620343 138.137098 
L 86.539716 145.682167 
L 79.387623 143.597402 
L 79.032005 153.067871 
L 76.963554 156.184261 
L 77.932047 160.070291 
L 73.416827 162.241125 
L 68.597062 147.725082 
L 66.070374 147.753929 
L 64.574602 153.602244 
L 59.564259 148.859562 
L 62.389818 143.651548 
L 66.483686 143.12285 
L 70.703345 135.378454 
L 65.426762 133.816003 
L 56.940154 133.951724 
L 48.232704 132.696656 
L 47.425469 126.333592 
L 43.056848 125.882212 
L 35.808757 121.927848 
L 32.576034 128.136511 
L 39.180985 132.980867 
L 33.459879 136.39069 
L 31.428786 139.725558 
L 37.061461 142.177529 
L 35.504212 147.691743 
L 38.675458 154.573338 
L 40.099824 162.108713 
L 38.789426 165.449966 
L 32.564212 165.334816 
L 21.282784 167.234679 
L 21.808645 174.118639 
L 16.92362 179.533072 
L 3.754388 185.692317 
L -6.488085 196.459233 
L -13.367789 202.231649 
L -22.486187 208.221834 
L -22.500374 212.431089 
L -35.305002 217.964692 
L -39.579517 218.447756 
L -42.323265 225.42795 
L -39.932771 244.921233 
L -43.810526 253.615205 
L -43.852141 269.1624 
L -48.58773 269.605504 
L -52.753006 276.585225 
L -49.967643 279.601362 
L -58.311436 282.195674 
L -61.393304 288.419233 
L -65.065349 291.049486 
L -73.730711 282.504712 
L -81.477235 260.459915 
L -84.683476 256.13149 
L -89.545329 247.3401 
L -93.397547 230.179145 
L -101.72195 217.610729 
L -108.249346 188.166277 
L -108.216716 177.081811 
L -109.991498 168.511737 
L -123.308747 173.989302 
L -129.758588 172.892181 
L -141.712948 161.801331 
L -137.313115 158.493417 
L -140.015721 154.902474 
z
" clip-path="url(#p82d0b6d744)" style="fill: #e8edf4; stroke: #b8c5d4; stroke-width: 0.45"/>
    <path d="M 31.428786 139.725558 
L 33.459879 136.39069 
L 39.180985 132.980867 
L 32.576034 128.136511 
L 35.808757 121.927848 
L 43.056848 125.882212 
L 47.425469 126.333592 
L 48.232704 132.696656 
L 56.940154 133.951724 
L 65.426762 133.816003 
L 70.703345 135.378454 
L 66.483686 143.12285 
L 62.389818 143.651548 
L 59.564259 148.859562 
L 64.574602 153.602244 
L 66.070374 147.753929 
L 68.597062 147.725082 
L 73.416827 162.241125 
L 73.22956 168.804224 
L 70.035615 167.4184 
L 70.633356 174.781404 
L 68.019182 170.01082 
L 67.49143 165.349476 
L 65.74975 160.944441 
L 61.926379 155.617731 
L 53.497465 155.251709 
L 54.329764 159.024007 
L 51.456442 164.115924 
L 47.562609 162.260277 
L 46.231877 163.926056 
L 40.099824 162.108713 
L 38.675458 154.573338 
L 35.504212 147.691743 
L 37.061461 142.177529 
z
" clip-path="url(#p82d0b6d744)" style="fill: #e8edf4; stroke: #b8c5d4; stroke-width: 0.45"/>
    <path d="M 38.107509 114.123867 
L 44.161535 107.320536 
L 49.103307 104.999085 
L 55.643471 107.117427 
L 60.478369 107.340161 
L 68.20976 112.721019 
L 67.567093 118.34258 
L 52.374335 118.000203 
L 46.620599 119.430716 
L 38.303288 115.957288 
z
" clip-path="url(#p82d0b6d744)" style="fill: #e8edf4; stroke: #b8c5d4; stroke-width: 0.45"/>
    <path d="M -41.743493 100.441542 
L -38.190146 91.881635 
L -28.589867 85.54127 
L -21.253345 88.35477 
L -12.014358 94.317054 
L -6.87255 95.630289 
L -3.801558 100.025865 
L 3.309392 101.829731 
L 10.737184 105.848881 
L 21.088896 107.947361 
L 31.758396 108.841609 
L 31.050942 112.783205 
L 32.255883 118.597945 
L 31.207471 122.219862 
L 23.586738 122.372844 
L 5.506944 119.36853 
L 0.228942 114.713333 
L -12.315121 113.527308 
z
" clip-path="url(#p82d0b6d744)" style="fill: #e8edf4; stroke: #b8c5d4; stroke-width: 0.45"/>
    <path d="M -100.429996 3.103286 
L -97.82528 1.009771 
L -99.086023 -1.131269 
L -90.350199 -5.454729 
L -84.027095 -7.245117 
L -74.340275 -6.017713 
L -70.880089 -11.861063 
L -59.141842 -12.94849 
L -55.8798 -16.58081 
L -41.459755 -21.537952 
L -40.173476 -23.606639 
L -40.904101 -28.823401 
L -34.625922 -31.205383 
L -42.86284 -47.102284 
L -24.734811 -50.75825 
L -20.050768 -52.79549 
L -13.447709 -69.179475 
L 4.70633 -66.168068 
L 9.796119 -70.304497 
L 10.233075 -79.481061 
L 17.833474 -80.336058 
L 24.799245 -86.428862 
L 28.38002 -87.181241 
L 30.782809 -80.796187 
L 38.474004 -75.94261 
L 51.528322 -72.506068 
L 57.842442 -65.135734 
L 54.318887 -54.443299 
L 57.611195 -50.474985 
L 80.811043 -47.632638 
L 91.867372 -41.930211 
L 97.522273 -40.914429 
L 101.691332 -32.478185 
L 107.062495 -27.044127 
L 117.150331 -27.25693 
L 136.038778 -25.205267 
L 148.210198 -26.478306 
L 157.243947 -25.115417 
L 170.78062 -19.556987 
L 181.8535 -19.565026 
L 185.904808 -16.719606 
L 196.559648 -21.633004 
L 211.342877 -24.810162 
L 225.058778 -25.157268 
L 235.751922 -28.376514 
L 242.318568 -33.277853 
L 248.723484 -36.35523 
L 247.24237 -39.375622 
L 244.319868 -42.892083 
L 249.123554 -48.791236 
L 263.67932 -46.108255 
L 272.797718 -50.966798 
L 286.751013 -54.512106 
L 293.456691 -60.560693 
L 299.897546 -63.164463 
L 313.190678 -64.378626 
L 320.410394 -63.347001 
L 321.412936 -66.599113 
L 313.119743 -72.995753 
L 305.7766 -75.921093 
L 298.742732 -72.544136 
L 289.714658 -73.968975 
L 284.534073 -72.808013 
L 282.177155 -76.549337 
L 293.099181 -92.5926 
L 304.084575 -89.137615 
L 316.980473 -94.920198 
L 316.897466 -98.947028 
L 325.158084 -108.652973 
L 330.247201 -111.586454 
L 330.133627 -116.638933 
L 325.112408 -118.813786 
L 332.671192 -123.3666 
L 344.042943 -125.016774 
L 356.174776 -125.264532 
L 369.871625 -122.53974 
L 377.907561 -119.169877 
L 390.180181 -100.38263 
L 393.565583 -91.418865 
L 409.492344 -88.493529 
L 420.331613 -81.987887 
L 424.037509 -73.389891 
L 437.941985 -73.379184 
L 445.875138 -76.989131 
L 460.999326 -79.686771 
L 456.190403 -71.452783 
L 452.635561 -68.10375 
L 449.49942 -58.078221 
L 443.345077 -49.17568 
L 432.238684 -50.796082 
L 424.384611 -47.563894 
L 426.794695 -39.726512 
L 425.47815 -28.914198 
L 420.803564 -28.667345 
L 420.859691 -24.018668 
L 414.95052 -29.421143 
L 411.312051 -24.292813 
L 397.178582 -20.351454 
L 398.608149 -15.524122 
L 390.695639 -15.857042 
L 386.351608 -18.725161 
L 380.064444 -12.234888 
L 369.978972 -7.316051 
L 362.527063 -1.447165 
L 349.733311 1.213117 
L 342.996422 5.48976 
L 333.142197 7.987838 
L 338.005468 3.747371 
L 336.090709 0.183857 
L 343.336908 -5.967349 
L 338.502956 -10.762051 
L 330.525658 -7.531692 
L 320.193807 -1.168628 
L 314.555458 4.740455 
L 305.580821 5.180249 
L 300.913329 9.450508 
L 305.735931 15.638127 
L 313.225672 17.140284 
L 313.532109 21.247866 
L 320.77216 23.920679 
L 331.027402 17.386427 
L 339.15177 20.948995 
L 345.069602 21.192774 
L 346.552607 25.986766 
L 333.596178 28.542537 
L 329.32119 33.483127 
L 320.422217 38.073773 
L 315.724459 44.478925 
L 325.573955 49.507711 
L 329.168917 58.50883 
L 334.738697 66.894947 
L 340.953508 73.924322 
L 340.805018 80.721978 
L 335.061212 83.221002 
L 337.250725 88.101771 
L 342.63702 90.942226 
L 341.230625 98.39579 
L 338.906337 105.648136 
L 333.792903 106.470268 
L 319.698684 128.386201 
L 311.200728 139.307045 
L 285.887503 155.454345 
L 275.575041 156.504885 
L 269.981144 160.570853 
L 266.816991 157.600588 
L 261.640189 162.148437 
L 248.851639 166.73199 
L 239.168602 168.135311 
L 236.044172 177.799905 
L 230.972826 178.335933 
L 228.573348 171.694333 
L 230.740634 168.154464 
L 218.462812 165.224631 
L 214.137697 166.714729 
L 204.92472 164.339841 
L 200.567449 160.621689 
L 202.014513 155.350071 
L 193.648967 153.678854 
L 189.237785 150.245622 
L 181.437824 155.122371 
L 172.539796 156.17835 
L 165.241579 156.132243 
L 155.587389 159.706634 
L 156.97014 170.17397 
L 152.091735 169.92428 
L 150.993669 163.991316 
L 144.28137 166.655617 
L 133.522966 161.535799 
L 136.186795 153.933745 
L 130.391916 152.161328 
L 128.209497 143.737143 
L 118.550106 145.255142 
L 119.647226 134.399794 
L 128.315426 126.758017 
L 128.414734 112.206743 
L 124.420647 110.025033 
L 121.36195 104.637556 
L 116.009703 105.318054 
L 106.142237 103.950437 
L 109.233091 100.10744 
L 104.942025 94.417072 
L 98.418412 98.270472 
L 90.74235 96.021848 
L 80.194385 101.849356 
L 71.86478 108.655524 
L 64.484751 109.800644 
L 60.478369 107.340161 
L 55.643471 107.117427 
L 49.103307 104.999085 
L 44.161535 107.320536 
L 38.107509 114.123867 
L 37.339525 106.916919 
L 31.758396 108.841609 
L 21.088896 107.947361 
L 10.737184 105.848881 
L 3.309392 101.829731 
L -3.801558 100.025865 
L -6.87255 95.630289 
L -12.014358 94.317054 
L -21.253345 88.35477 
L -28.589867 85.54127 
L -32.383445 87.730547 
L -45.10248 81.331779 
L -54.093195 75.537373 
L -56.659607 65.450483 
L -50.092015 66.680251 
L -49.792198 62.007557 
L -53.432558 57.323987 
L -52.506626 49.859073 
L -62.342409 39.133299 
L -77.392352 35.432644 
L -80.100632 28.400904 
L -86.862112 24.134429 
L -88.491241 21.508432 
L -89.864061 16.292143 
L -89.545329 12.733831 
L -95.102813 10.650483 
L -98.110437 11.571923 
z
" clip-path="url(#p82d0b6d744)" style="fill: #e8edf4; stroke: #b8c5d4; stroke-width: 0.45"/>
    <path d="M 219.409079 186.705262 
L 223.919096 182.55843 
L 233.917082 179.994146 
L 239.178533 180.211206 
L 241.223812 183.703313 
L 237.20277 187.730266 
L 235.084665 193.014889 
L 227.178302 197.413776 
L 219.674374 194.577104 
z
" clip-path="url(#p82d0b6d744)" style="fill: #e8edf4; stroke: #b8c5d4; stroke-width: 0.45"/>
    <path d="M 324.463593 148.37697 
L 329.848943 139.388856 
L 337.17317 132.461389 
L 341.347904 135.187167 
L 334.250194 155.381282 
L 330.32846 162.887811 
L 325.505858 155.161622 
z
" clip-path="url(#p82d0b6d744)" style="fill: #e8edf4; stroke: #b8c5d4; stroke-width: 0.45"/>
    <path d="M 322.428245 214.196886 
L 326.113531 217.208293 
L 327.061216 202.891813 
L 330.042831 194.599566 
L 335.583291 194.610207 
L 341.223059 197.222962 
L 344.045307 194.840034 
L 344.877606 197.165032 
L 343.388926 200.959084 
L 346.512883 207.5184 
L 344.103001 215.123527 
L 338.708193 218.156452 
L 337.264912 225.534116 
L 339.312555 232.822402 
L 344.163532 233.830619 
L 348.211529 232.747685 
L 359.641446 237.821159 
L 358.77037 242.802655 
L 361.755295 245.001152 
L 360.804773 249.218447 
L 353.672542 244.726636 
L 350.292275 239.918693 
L 347.937722 243.277916 
L 342.111159 237.799642 
L 333.799524 239.152127 
L 329.244581 237.13002 
L 329.708966 233.347318 
L 332.5681 231.019483 
L 329.836648 228.903033 
L 328.654406 232.201016 
L 324.136349 226.942876 
L 322.768258 222.957774 
z
" clip-path="url(#p82d0b6d744)" style="fill: #e8edf4; stroke: #b8c5d4; stroke-width: 0.45"/>
    <path d="M 341.061328 298.127097 
L 344.652507 290.414149 
L 350.418066 287.840171 
L 355.408074 284.39228 
L 358.642688 288.534857 
L 365.60042 286.028976 
L 367.093355 281.945275 
L 373.561166 281.70197 
L 373.018753 274.625068 
L 380.436614 278.965079 
L 383.316556 298.15216 
L 380.19922 306.526218 
L 376.855839 297.197382 
L 372.577068 301.839101 
L 375.499097 308.581901 
L 372.875938 312.870603 
L 362.107604 307.559734 
L 359.535518 300.936341 
L 362.326082 296.585217 
L 356.529312 292.257501 
L 353.654572 296.052025 
L 349.348373 295.699717 
L 342.57649 300.805585 
z
" clip-path="url(#p82d0b6d744)" style="fill: #e8edf4; stroke: #b8c5d4; stroke-width: 0.45"/>
    <path d="M 362.537467 249.025505 
L 371.325782 249.227195 
L 373.846323 252.640801 
L 376.41699 262.858684 
L 369.356167 260.430595 
L 369.547217 263.50206 
L 371.786384 269.149158 
L 367.433841 271.199403 
L 367.052686 264.763276 
L 364.297589 264.288015 
L 362.864712 258.747555 
L 368.250061 259.477708 
L 368.130891 256.013029 
z
" clip-path="url(#p82d0b6d744)" style="fill: #e8edf4; stroke: #b8c5d4; stroke-width: 0.45"/>
    <path d="M 345.272002 275.054931 
L 349.454302 270.041988 
L 350.463937 264.361787 
L 355.510219 263.824103 
L 354.0362 269.985004 
L 360.809502 261.151054 
L 359.935588 269.88073 
L 356.648009 272.88859 
L 353.781308 278.670464 
L 350.907514 281.379927 
z
" clip-path="url(#p82d0b6d744)" style="fill: #e8edf4; stroke: #b8c5d4; stroke-width: 0.45"/>
    <path d="M 340.728409 255.1202 
L 346.221579 257.953088 
L 352.045304 257.939611 
L 351.867968 261.762273 
L 347.629866 265.648066 
L 341.817963 268.39607 
L 341.495447 264.143781 
L 342.145208 259.475343 
z
" clip-path="url(#p82d0b6d744)" style="fill: #e8edf4; stroke: #b8c5d4; stroke-width: 0.45"/>
    <path d="M 297.633316 287.371057 
L 302.119216 280.970871 
L 308.730314 275.319044 
L 314.224903 268.988373 
L 319.021496 259.897877 
L 320.652045 267.35948 
L 314.610314 272.398433 
L 309.8071 278.687725 
z
" clip-path="url(#p82d0b6d744)" style="fill: #e8edf4; stroke: #b8c5d4; stroke-width: 0.45"/>
    <path d="M 326.451652 240.710322 
L 334.291336 241.046316 
L 337.469203 244.341698 
L 335.042297 252.248533 
z
" clip-path="url(#p82d0b6d744)" style="fill: #e8edf4; stroke: #b8c5d4; stroke-width: 0.45"/>
    <path d="M 228.899173 345.581589 
L 235.605797 348.717605 
L 242.677024 347.00761 
L 244.518484 339.259667 
L 248.424613 337.53383 
L 259.393929 335.552629 
L 270.452149 322.526211 
L 274.621208 327.268658 
L 276.542588 324.151085 
L 280.915939 324.440971 
L 281.860786 314.090204 
L 288.907423 307.725958 
L 293.522896 300.573629 
L 297.224733 300.5436 
L 301.926274 305.173024 
L 302.344315 309.150796 
L 316.00536 314.45528 
L 315.353708 318.039839 
L 309.213615 318.49382 
L 310.847946 322.962459 
L 304.110112 326.079795 
L 296.17774 324.537442 
L 285.65673 324.533186 
L 282.486429 334.940937 
L 278.962874 338.123296 
L 274.271264 350.850606 
L 266.808479 352.80107 
L 258.151156 350.23655 
L 253.762673 351.038819 
L 248.430287 355.666352 
L 242.588119 355.007133 
L 236.684948 356.867983 
L 230.427103 351.697565 
z
" clip-path="url(#p82d0b6d744)" style="fill: #e8edf4; stroke: #b8c5d4; stroke-width: 0.45"/>
    <path d="M 141.254358 304.785721 
L 142.845183 303.153754 
L 150.311751 307.161555 
L 151.031973 311.860495 
L 157.072285 310.76763 
L 160.063831 307.0081 
L 162.168222 307.863098 
L 167.572488 313.387716 
L 171.411464 319.514331 
L 171.93638 325.67665 
L 170.962212 329.839562 
L 172.52088 338.402069 
L 175.744146 340.923792 
L 179.342891 349.016239 
L 179.167919 352.110167 
L 172.678828 352.720677 
L 153.195477 338.678477 
L 152.123892 334.016187 
L 146.833595 327.895483 
L 145.570487 320.317074 
L 142.269667 315.327775 
L 143.272209 308.665131 
z
" clip-path="url(#p82d0b6d744)" style="fill: #e8edf4; stroke: #b8c5d4; stroke-width: 0.45"/>
    <path d="M 270.452149 322.526211 
L 274.075485 319.102438 
L 281.860786 314.090204 
L 280.915939 324.440971 
L 276.542588 324.151085 
L 274.621208 327.268658 
z
" clip-path="url(#p82d0b6d744)" style="fill: #e8edf4; stroke: #b8c5d4; stroke-width: 0.45"/>
    <path d="M 409.589761 59.247022 
L 418.241882 56.427611 
L 423.041785 50.675293 
L 432.245777 45.944433 
L 438.957603 39.688007 
L 457.174063 36.958919 
L 466.958772 38.830172 
L 476.533516 22.560864 
L 482.635304 26.931377 
L 501.265077 14.224402 
L 507.015503 3.034006 
L 505.446904 -7.256466 
L 509.312363 -13.037158 
L 519.041743 -14.716887 
L 524.031751 -2.024808 
L 523.760308 5.394471 
L 515.294508 14.608394 
L 515.449146 24.051672 
L 512.002673 31.355091 
L 513.597754 35.940772 
L 508.8319 42.39014 
L 497.139051 46.695866 
L 481.052045 47.256958 
L 468.015224 57.702777 
L 461.865673 54.186316 
L 461.485464 47.346099 
L 445.570592 49.364896 
L 434.739835 53.675114 
L 424.027302 53.850559 
L 433.305539 60.583665 
L 427.199495 76.137243 
L 421.283555 79.987806 
L 416.855348 76.431149 
L 419.099717 68.183827 
L 413.307203 65.522363 
z
" clip-path="url(#p82d0b6d744)" style="fill: #e8edf4; stroke: #b8c5d4; stroke-width: 0.45"/>
    <path d="M 504.844433 -25.562777 
L 509.370056 -32.604685 
L 519.147672 -33.113049 
L 521.814338 -45.771789 
L 524.520253 -52.903783 
L 535.274874 -43.37633 
L 548.732101 -38.348017 
L 555.205586 -42.226718 
L 557.239988 -31.953269 
L 543.664538 -29.448335 
L 535.649881 -20.359966 
L 521.261048 -26.615446 
L 516.280971 -16.602327 
L 506.103285 -16.464714 
z
" clip-path="url(#p82d0b6d744)" style="fill: #e8edf4; stroke: #b8c5d4; stroke-width: 0.45"/>
    <path d="M 436.628112 62.053428 
L 436.701884 57.713417 
L 441.764245 52.25335 
L 446.96753 53.31193 
L 450.729897 49.465623 
L 457.449762 51.439494 
L 458.620655 54.577402 
L 453.468916 60.11526 
L 449.712696 57.179517 
L 445.021086 59.30637 
L 442.592288 64.659799 
z
" clip-path="url(#p82d0b6d744)" style="fill: #e8edf4; stroke: #b8c5d4; stroke-width: 0.45"/>
   </g>
   <g id="PathCollection_1">
    <defs>
     <path id="m71d008fbff" d="M 0 2.12132 
C 0.562581 2.12132 1.102195 1.897805 1.5 1.5 
C 1.897805 1.102195 2.12132 0.562581 2.12132 0 
C 2.12132 -0.562581 1.897805 -1.102195 1.5 -1.5 
C 1.102195 -1.897805 0.562581 -2.12132 0 -2.12132 
C -0.562581 -2.12132 -1.102195 -1.897805 -1.5 -1.5 
C -1.897805 -1.102195 -2.12132 -0.562581 -2.12132 0 
C -2.12132 0.562581 -1.897805 1.102195 -1.5 1.5 
C -1.102195 1.897805 -0.562581 2.12132 0 2.12132 
z
" style="stroke: #ffffff; stroke-width: 0.5"/>
    </defs>
    <g clip-path="url(#p82d0b6d744)">
     <use xlink:href="#m71d008fbff" x="274.685913" y="322.762987" style="fill: #8aa0b7; stroke: #ffffff; stroke-width: 0.5"/>
     <use xlink:href="#m71d008fbff" x="53.534012" y="112.287384" style="fill: #8aa0b7; stroke: #ffffff; stroke-width: 0.5"/>
     <use xlink:href="#m71d008fbff" x="270.110356" y="160.330728" style="fill: #8aa0b7; stroke: #ffffff; stroke-width: 0.5"/>
     <use xlink:href="#m71d008fbff" x="264.46717" y="161.093321" style="fill: #8aa0b7; stroke: #ffffff; stroke-width: 0.5"/>
     <use xlink:href="#m71d008fbff" x="175.243817" y="351.436475" style="fill: #8aa0b7; stroke: #ffffff; stroke-width: 0.5"/>
     <use xlink:href="#m71d008fbff" x="332.642963" y="148.891837" style="fill: #8aa0b7; stroke: #ffffff; stroke-width: 0.5"/>
    </g>
   </g>
   <g id="PatchCollection_2">
    <defs>
     <path id="m0f9b97af79" d="M 160.331491 -273.634502 
L 165.241579 -275.867757 
L 172.539796 -275.82165 
L 181.437824 -276.877629 
L 189.237785 -281.754378 
L 193.648967 -278.321146 
L 202.014513 -276.649929 
L 200.567449 -271.378311 
L 204.92472 -267.660159 
L 214.137697 -265.285271 
L 201.919934 -257.456227 
L 194.293526 -248.810253 
L 192.283241 -242.46043 
L 207.839657 -220.857319 
L 216.144672 -215.204546 
L 221.704993 -207.855728 
L 225.897697 -190.920109 
L 224.661072 -174.821753 
L 217.028989 -168.795392 
L 206.549121 -162.90357 
L 199.083498 -155.274797 
L 187.673442 -146.754378 
L 184.350869 -152.622791 
L 186.922482 -158.822233 
L 180.133574 -164.020552 
L 188.054597 -167.70631 
L 197.661024 -168.369785 
L 193.642347 -173.913555 
L 209.024263 -180.956171 
L 210.151177 -191.922177 
L 208.029761 -198.025148 
L 209.693413 -207.173811 
L 207.388986 -213.637838 
L 200.464357 -220.004685 
L 187.090833 -238.880601 
L 176.127192 -244.354855 
L 178.752243 -247.644562 
L 184.601504 -250.041913 
L 181.054778 -258.022521 
L 169.788482 -258.094165 
L 165.679954 -266.408637 
z
" style="stroke: #b45309; stroke-width: 1.15"/>
    </defs>
    <g clip-path="url(#p82d0b6d744)">
     <use xlink:href="#m0f9b97af79" x="0" y="432" style="fill: #f59e0b; stroke: #b45309; stroke-width: 1.15"/>
    </g>
   </g>
   <g id="PathCollection_2">
    <defs>
     <path id="m8eb2ca8f9a" d="M 0 3.316625 
C 0.879579 3.316625 1.723251 2.967164 2.345208 2.345208 
C 2.967164 1.723251 3.316625 0.879579 3.316625 0 
C 3.316625 -0.879579 2.967164 -1.723251 2.345208 -2.345208 
C 1.723251 -2.967164 0.879579 -3.316625 0 -3.316625 
C -0.879579 -3.316625 -1.723251 -2.967164 -2.345208 -2.345208 
C -2.967164 -1.723251 -3.316625 -0.879579 -3.316625 0 
C -3.316625 0.879579 -2.967164 1.723251 -2.345208 2.345208 
C -1.723251 2.967164 -0.879579 3.316625 0 3.316625 
z
" style="stroke: #ffffff"/>
    </defs>
    <g clip-path="url(#p82d0b6d744)">
     <use xlink:href="#m8eb2ca8f9a" x="212.153306" y="216" style="fill: #f97316; stroke: #ffffff"/>
    </g>
   </g>
   <g id="PathCollection_3">
    <path d="M 212.153306 220.449719 
C 213.333386 220.449719 214.465291 219.980869 215.299733 219.146427 
C 216.134175 218.311984 216.603025 217.180079 216.603025 216 
C 216.603025 214.819921 216.134175 213.688016 215.299733 212.853573 
C 214.465291 212.019131 213.333386 211.550281 212.153306 211.550281 
C 210.973227 211.550281 209.841322 212.019131 209.00688 212.853573 
C 208.172438 213.688016 207.703587 214.819921 207.703587 216 
C 207.703587 217.180079 208.172438 218.311984 209.00688 219.146427 
C 209.841322 219.980869 210.973227 220.449719 212.153306 220.449719 
L 212.153306 220.449719 
z
" clip-path="url(#p82d0b6d744)" style="fill: none; stroke: #7c2d12; stroke-width: 1.1"/>
   </g>
  </g>
 </g>
 <defs>
  <clipPath id="p82d0b6d744">
   <rect x="0" y="0" width="424.306613" height="432"/>
  </clipPath>
 </defs>
</svg>
