<?xml version="1.0" encoding="utf-8" standalone="no"?>
<!DOCTYPE svg PUBLIC "-//W3C//DTD SVG 1.1//EN"
  "http://www.w3.org/Graphics/SVG/1.1/DTD/svg11.dtd">
<svg xmlns:xlink="http://www.w3.org/1999/xlink" width="432pt" height="432pt" viewBox="0 0 432 432" xmlns="http://www.w3.org/2000/svg" version="1.1">
 <metadata>
  <rdf:RDF xmlns:dc="http://purl.org/dc/elements/1.1/" xmlns:cc="http://creativecommons.org/ns#" xmlns:rdf="http://www.w3.org/1999/02/22-rdf-syntax-ns#">
   <cc:Work>
    <dc:type rdf:resource="http://purl.org/dc/dcmitype/StillImage"/>
    <dc:date>2026-06-09T04:57:20.646046</dc:date>
    <dc:format>image/svg+xml</dc:format>
    <dc:creator>
     <cc:Agent>
      <dc:title>Matplotlib v3.10.8, https://matplotlib.org/</dc:title>
     </cc:Agent>
    </dc:creator>
   </cc:Work>
  </rdf:RDF>
 </metadata>
 <defs>
  <style type="text/css">*{stroke-linejoin: round; stroke-linecap: butt}</style>
 </defs>
 <g id="figure_1">
  <g id="patch_1">
   <path d="M 0 432 
L 432 432 
L 432 0 
L 0 0 
z
" style="fill: #eaf3ff"/>
  </g>
  <g id="axes_1">
   <g id="PatchCollection_1">
    <path d="M 7015.778967 171.3204 
L 7023.355265 164.575113 
L 7032.28392 167.003542 
L 7037.154327 163.765702 
L 7043.918269 169.431578 
L 7040.671396 179.684313 
L 7028.495869 182.382349 
L 7017.672305 179.95392 
z
" clip-path="url(#pad56233e93)" style="fill: #e8edf4; stroke: #b8c5d4; stroke-width: 0.45"/>
    <path d="M 7041.537922 150.005127 
L 7057.574366 144.897793 
L 7069.090909 138.772787 
L 7069.090909 148.35698 
L 7044.055711 157.327364 
z
" clip-path="url(#pad56233e93)" style="fill: #e8edf4; stroke: #b8c5d4; stroke-width: 0.45"/>
    <path d="M 0 148.35698 
L 0 138.772787 
L 4.058441 137.864597 
L 1.622565 147.307742 
z
" clip-path="url(#pad56233e93)" style="fill: #e8edf4; stroke: #b8c5d4; stroke-width: 0.45"/>
   </g>
   <g id="PathCollection_1">
    <defs>
     <path id="m825e6ca894" d="M 0 2.12132 
C 0.562581 2.12132 1.102195 1.897805 1.5 1.5 
C 1.897805 1.102195 2.12132 0.562581 2.12132 0 
C 2.12132 -0.562581 1.897805 -1.102195 1.5 -1.5 
C 1.102195 -1.897805 0.562581 -2.12132 0 -2.12132 
C -0.562581 -2.12132 -1.102195 -1.897805 -1.5 -1.5 
C -1.897805 -1.102195 -2.12132 -0.562581 -2.12132 0 
C -2.12132 0.562581 -1.897805 1.102195 -1.5 1.5 
C -1.102195 1.897805 -0.562581 2.12132 0 2.12132 
z
" style="stroke: #ffffff; stroke-width: 0.5"/>
    </defs>
    <g clip-path="url(#pad56233e93)">
     <use xlink:href="#m825e6ca894" x="196.363636" y="104.727273" style="fill: #8aa0b7; stroke: #ffffff; stroke-width: 0.5"/>
     <use xlink:href="#m825e6ca894" x="397.309091" y="240.218182" style="fill: #8aa0b7; stroke: #ffffff; stroke-width: 0.5"/>
     <use xlink:href="#m825e6ca894" x="198.981818" y="197.018182" style="fill: #8aa0b7; stroke: #ffffff; stroke-width: 0.5"/>
     <use xlink:href="#m825e6ca894" x="157.090909" y="-0" style="fill: #8aa0b7; stroke: #ffffff; stroke-width: 0.5"/>
     <use xlink:href="#m825e6ca894" x="98.181818" y="216" style="fill: #8aa0b7; stroke: #ffffff; stroke-width: 0.5"/>
     <use xlink:href="#m825e6ca894" x="74.618182" y="84.436364" style="fill: #8aa0b7; stroke: #ffffff; stroke-width: 0.5"/>
     <use xlink:href="#m825e6ca894" x="150.545455" y="90" style="fill: #8aa0b7; stroke: #ffffff; stroke-width: 0.5"/>
    </g>
   </g>
   <g id="PathCollection_2">
    <defs>
     <path id="mf27c43f23e" d="M 0 3.674235 
C 0.974418 3.674235 1.909058 3.287094 2.598076 2.598076 
C 3.287094 1.909058 3.674235 0.974418 3.674235 0 
C 3.674235 -0.974418 3.287094 -1.909058 2.598076 -2.598076 
C 1.909058 -3.287094 0.974418 -3.674235 0 -3.674235 
C -0.974418 -3.674235 -1.909058 -3.287094 -2.598076 -2.598076 
C -3.287094 -1.909058 -3.674235 -0.974418 -3.674235 0 
C -3.674235 0.974418 -3.287094 1.909058 -2.598076 2.598076 
C -1.909058 3.287094 -0.974418 3.674235 0 3.674235 
z
" style="stroke: #ffffff; stroke-width: 1.2"/>
    </defs>
    <g clip-path="url(#pad56233e93)">
     <use xlink:href="#mf27c43f23e" x="98.181818" y="216" style="fill: #f97316; stroke: #ffffff; stroke-width: 1.2"/>
    </g>
   </g>
   <g id="PathCollection_3">
    <path d="M 98.181818 220.929503 
C 99.489138 220.929503 100.743089 220.410099 101.667503 219.485685 
C 102.591918 218.561271 103.111321 217.307319 103.111321 216 
C 103.111321 214.692681 102.591918 213.438729 101.667503 212.514315 
C 100.743089 211.589901 99.489138 211.070497 98.181818 211.070497 
C 96.874499 211.070497 95.620548 211.589901 94.696133 212.514315 
C 93.771719 213.438729 93.252315 214.692681 93.252315 216 
C 93.252315 217.307319 93.771719 218.561271 94.696133 219.485685 
C 95.620548 220.410099 96.874499 220.929503 98.181818 220.929503 
L 98.181818 220.929503 
z
" clip-path="url(#pad56233e93)" style="fill: none; stroke: #7c2d12; stroke-width: 1.1"/>
   </g>
  </g>
 </g>
 <defs>
  <clipPath id="pad56233e93">
   <rect x="0" y="0" width="432" height="432"/>
  </clipPath>
 </defs>
</svg>
