<?xml version="1.0" encoding="utf-8" standalone="no"?>
<!DOCTYPE svg PUBLIC "-//W3C//DTD SVG 1.1//EN"
  "http://www.w3.org/Graphics/SVG/1.1/DTD/svg11.dtd">
<svg xmlns:xlink="http://www.w3.org/1999/xlink" width="576pt" height="353.032258pt" viewBox="0 0 576 353.032258" xmlns="http://www.w3.org/2000/svg" version="1.1">
 <metadata>
  <rdf:RDF xmlns:dc="http://purl.org/dc/elements/1.1/" xmlns:cc="http://creativecommons.org/ns#" xmlns:rdf="http://www.w3.org/1999/02/22-rdf-syntax-ns#">
   <cc:Work>
    <dc:type rdf:resource="http://purl.org/dc/dcmitype/StillImage"/>
    <dc:date>2026-06-09T04:56:59.526500</dc:date>
    <dc:format>image/svg+xml</dc:format>
    <dc:creator>
     <cc:Agent>
      <dc:title>Matplotlib v3.10.8, https://matplotlib.org/</dc:title>
     </cc:Agent>
    </dc:creator>
   </cc:Work>
  </rdf:RDF>
 </metadata>
 <defs>
  <style type="text/css">*{stroke-linejoin: round; stroke-linecap: butt}</style>
 </defs>
 <g id="figure_1">
  <g id="patch_1">
   <path d="M 0 353.032258 
L 576 353.032258 
L 576 0 
L 0 0 
z
" style="fill: #eaf3ff"/>
  </g>
  <g id="axes_1">
   <g id="PatchCollection_1">
    <path d="M -139.334214 173.669667 
L -139.224774 86.288516 
L -121.893863 88.527298 
L -107.269409 92.995943 
L -97.581646 93.850467 
L -89.426415 89.975659 
L -78.17472 87.074199 
L -64.374968 88.208454 
L -50.459086 84.128423 
L -35.25408 81.813461 
L -28.871814 85.663556 
L -21.939654 83.49343 
L -19.864289 79.117874 
L -13.444212 80.108501 
L 2.263866 88.438483 
L 14.633837 82.141316 
L 15.889425 89.189977 
L 27.303515 87.666085 
L 30.811355 84.955076 
L 42.064165 85.491592 
L 56.272599 89.392785 
L 78.013812 92.798431 
L 90.799618 94.375649 
L 99.899768 93.777352 
L 112.432041 98.487639 
L 99.361022 103.098333 
L 116.154395 105.090735 
L 141.231484 103.994756 
L 149.145074 102.369693 
L 159.048465 107.94017 
L 169.15457 103.24001 
L 159.672867 99.298312 
L 165.672372 96.118421 
L 184.412903 94.76129 
L 191.911866 96.979634 
L 201.247804 102.026323 
L 211.622865 101.285419 
L 228.037192 105.474054 
L 242.459303 103.99903 
L 256.011561 104.22209 
L 254.939458 98.440815 
L 263.19967 96.817796 
L 277.595675 99.969538 
L 277.540212 108.758276 
L 283.453037 101.350916 
L 290.926452 101.600547 
L 295.12735 92.261915 
L 285.174999 86.532759 
L 274.331055 82.779004 
L 275.075768 72.51264 
L 286.060181 65.77056 
L 298.312537 67.260542 
L 307.712392 71.361848 
L 320.333667 81.835757 
L 312.09055 86.400279 
L 329.368877 88.279804 
L 329.327907 97.780738 
L 341.743123 90.499541 
L 352.84961 96.479257 
L 350.082674 103.369889 
L 359.069388 109.637698 
L 368.769414 102.92321 
L 375.546054 94.904733 
L 376.053956 84.708139 
L 402.990225 86.787778 
L 415.459231 91.398008 
L 416.018787 96.009259 
L 409.105301 100.962302 
L 415.655721 105.936062 
L 414.473528 110.454689 
L 396.282797 116.950854 
L 383.361259 118.383794 
L 373.754973 115.587128 
L 370.984877 120.251613 
L 362.030586 128.085956 
L 359.319577 132.148986 
L 348.545404 138.435375 
L 335.246493 139.050766 
L 327.911412 142.976485 
L 327.297693 149.014823 
L 316.489517 150.177321 
L 305.12225 157.706106 
L 295.046431 168.167381 
L 291.44383 175.492243 
L 290.930168 186.28193 
L 304.58304 187.830627 
L 313.111463 203.578003 
L 326.111783 201.742328 
L 343.374689 205.764666 
L 352.662689 209.295917 
L 359.310565 213.685409 
L 370.951339 216.243128 
L 380.793507 220.15649 
L 406.239329 221.589801 
L 404.721755 229.635685 
L 407.612717 238.974689 
L 414.341419 249.371954 
L 428.164119 258.192743 
L 435.316552 255.16865 
L 440.343546 245.616805 
L 435.49121 230.943948 
L 428.938095 226.05473 
L 443.810415 221.700077 
L 454.337652 215.187933 
L 459.486627 208.71425 
L 458.726493 202.504599 
L 452.417714 194.612841 
L 441.133502 187.621966 
L 452.097197 177.88543 
L 448.046988 169.475179 
L 444.942627 154.965925 
L 451.41055 152.820883 
L 476.888981 156.252914 
L 484.584341 153.812439 
L 493.236883 156.95935 
L 504.67745 162.345135 
L 507.496041 165.951453 
L 524.063195 166.655288 
L 523.785321 174.460645 
L 526.873703 186.202591 
L 535.359019 187.654668 
L 542.092552 193.126668 
L 555.544754 187.968217 
L 564.431969 177.717275 
L 570.578911 173.398483 
L 600.18689 204.689497 
L 596.451159 210.523819 
L 608.808495 215.763283 
L 617.159659 221.071866 
L 631.97345 223.474157 
L 637.936723 226.437677 
L 641.61857 234.298963 
L 648.853688 235.532996 
L 652.586446 239.036655 
L 653.264083 249.476377 
L 639.853223 256.229698 
L 624.543608 259.531665 
L 612.853874 267.163943 
L 597.147933 268.671855 
L 577.277326 266.715964 
L 553.712052 267.29215 
L 545.933636 273.95712 
L 534.090054 278.074591 
L 520.68895 290.370147 
L 509.99616 298.946694 
L 517.886988 297.41983 
L 532.8 285.212903 
L 552.287102 277.473135 
L 566.187004 276.547076 
L 574.411448 281.102121 
L 565.63711 287.341781 
L 568.581306 297.355634 
L 571.613203 304.364996 
L 583.680403 309.005234 
L 599.033311 307.660459 
L 608.34751 297.21665 
L 608.993652 303.954828 
L 614.992692 307.320155 
L 603.50047 313.40671 
L 582.923985 318.935474 
L 573.709378 322.694431 
L 563.327443 329.38625 
L 556.272929 328.703969 
L 555.916831 320.840175 
L 572.047061 313.157822 
L 557.177342 313.461894 
L 546.852449 314.59327 
L 540.777228 309.341636 
L 540.785404 296.673817 
L 536.660686 293.993559 
L 530.430968 295.571613 
L 527.344574 293.130293 
L 520.258343 300.141801 
L 517.424516 307.370323 
L 514.126452 311.597419 
L 507.205161 313.501935 
L 506.275572 315.794787 
L 475.042065 315.866508 
L 470.850178 317.576206 
L 459.870968 324.989801 
L 456.897747 328.610004 
L 439.243851 328.644331 
L 435.050259 330.119169 
L 436.552258 331.943226 
L 437.208506 335.718707 
L 425.05597 340.339821 
L 415.484161 341.800017 
L 404.693162 346.760314 
L 402.363042 346.760314 
L 399.206925 345.295317 
L 398.164648 343.967866 
L 400.412903 339.747097 
L 404.779355 334.637419 
L 407.495451 329.146025 
L 403.655926 312.642427 
L 393.976097 308.281762 
L 395.121593 306.63001 
L 393.759816 305.494356 
L 391.208374 305.494356 
L 389.340221 304.021917 
L 388.873212 301.821902 
L 387.065497 302.78304 
L 384.573832 302.496619 
L 385.141947 301.576095 
L 382.954174 300.661762 
L 382.054484 298.218581 
L 349.519455 285.185798 
L 341.206444 287.815975 
L 338.167742 287.907097 
L 326.740645 285.491613 
L 319.215484 286.699355 
L 310.203871 283.819355 
L 294.232506 281.768609 
L 291.344516 280.196129 
L 289.694741 275.095277 
L 286.549874 275.139871 
L 286.522193 278.709677 
L 28.110565 278.686101 
L 10.124222 269.562797 
L 3.487494 265.549378 
L -13.33728 261.70272 
L -18.513383 253.478741 
L -17.19007 247.776526 
L -29.076759 243.820986 
L -30.706653 236.331035 
L -41.945528 229.586446 
L -42.141925 224.799979 
L -36.975484 220.32 
L -37.233569 214.459386 
L -53.027396 208.548046 
L -68.335525 191.285141 
L -83.101935 183.292862 
L -88.033517 178.487721 
L -97.359979 181.496764 
L -106.397419 186.689032 
L -121.136516 176.516129 
L -130.18529 173.944382 
z
" clip-path="url(#p3166ea69fd)" style="fill: #e8edf4; stroke: #b8c5d4; stroke-width: 0.45"/>
    <path d="M 332.545608 62.848341 
L 339.685997 54.539171 
L 349.239562 50.744774 
L 373.228016 48.274227 
L 366.390083 54.279202 
L 373.709067 60.070056 
L 382.295729 52.580641 
L 405.842259 48.76536 
L 421.779831 58.375336 
L 420.396929 64.457125 
L 438.776003 61.760456 
L 447.564784 58.068078 
L 468.177959 62.768406 
L 480.972857 67.195563 
L 482.175724 71.248969 
L 499.427064 69.148572 
L 509.109534 75.06569 
L 531.536012 78.735264 
L 539.628661 82.479971 
L 548.416722 91.174414 
L 531.358859 95.502672 
L 553.239954 101.569579 
L 567.988821 103.609964 
L 581.342544 112.148378 
L 595.955786 112.764814 
L 593.06468 119.285407 
L 576.757678 130.076886 
L 565.326718 126.106536 
L 550.718997 117.169167 
L 538.699206 118.333387 
L 537.526104 123.656153 
L 547.29619 129.056933 
L 559.908414 133.330941 
L 563.735217 135.799087 
L 569.781 144.994745 
L 566.581435 151.672087 
L 554.864101 149.155211 
L 531.562657 141.717646 
L 554.369367 155.333499 
L 555.881173 158.577472 
L 530.687692 154.868291 
L 510.750004 149.474712 
L 499.490676 144.949136 
L 502.733929 142.327841 
L 475.344753 133.046007 
L 475.492621 135.740036 
L 448.629865 137.222316 
L 440.77054 134.032353 
L 446.889776 127.192021 
L 464.346355 127.02687 
L 483.470289 125.839605 
L 480.366502 122.522898 
L 483.608555 117.888823 
L 495.627866 108.840073 
L 493.074024 104.730496 
L 489.492067 101.548455 
L 475.262178 97.040883 
L 456.441901 93.881166 
L 462.391906 91.530402 
L 452.556047 85.75395 
L 444.36882 85.22489 
L 437.042395 82.062532 
L 432.070095 84.80385 
L 415.226592 85.998796 
L 381.416923 83.922884 
L 346.698922 79.796984 
L 338.972102 76.533327 
L 348.686978 72.295567 
L 335.490724 72.254999 
z
" clip-path="url(#p3166ea69fd)" style="fill: #e8edf4; stroke: #b8c5d4; stroke-width: 0.45"/>
    <path d="M 319.707685 -26.888888 
L 333.522581 -28.660645 
L 362.599061 -30.468635 
L 376.258065 -33.930799 
L 387.778018 -33.445161 
L 397.811613 -30.843871 
L 404.872258 -35.860645 
L 433.796377 -38.374235 
L 462.193548 -38.759772 
L 467.128754 -37.756243 
L 493.952237 -39.328165 
L 559.023329 -37.421512 
L 578.972903 -36.232258 
L 595.974194 -33.710865 
L 595.566534 -31.230813 
L 572.897032 -27.199742 
L 550.41984 -25.318637 
L 542.020181 -23.238906 
L 562.247443 -23.286844 
L 540.325161 -17.651613 
L 525.184723 -15.020872 
L 509.295484 -7.432258 
L 490.131406 -5.891458 
L 484.211613 -3.996346 
L 456.083025 -3.00161 
L 468.889641 -1.836325 
L 462.467985 -0.177166 
L 470.151174 4.405378 
L 461.324532 7.590565 
L 446.971262 10.220191 
L 442.565977 13.85568 
L 429.589068 16.63265 
L 430.888413 18.735236 
L 446.763345 18.37584 
L 446.965688 20.643515 
L 422.140645 26.216175 
L 397.863732 23.652883 
L 370.573874 25.093068 
L 339.18336 23.482312 
L 338.018168 19.025373 
L 355.19328 16.923902 
L 350.616774 10.219355 
L 356.283871 9.566968 
L 381.123035 13.57567 
L 368.454194 7.618065 
L 353.386034 5.836088 
L 360.910637 2.242034 
L 377.385166 0.0288 
L 380.02111 -3.209156 
L 366.899551 -6.839907 
L 362.956274 -11.626374 
L 388.349977 -11.226054 
L 395.686957 -10.219355 
L 410.184186 -13.604934 
L 389.264516 -14.67871 
L 356.758142 -14.086637 
L 340.335825 -17.239959 
L 332.593548 -20.996129 
L 321.743752 -23.719123 
z
" clip-path="url(#p3166ea69fd)" style="fill: #e8edf4; stroke: #b8c5d4; stroke-width: 0.45"/>
    <path d="M 61.297641 69.133099 
L 69.095195 62.172232 
L 75.563582 58.473848 
L 100.436841 52.819293 
L 109.930808 54.613626 
L 105.293357 58.967814 
L 125.967298 56.156284 
L 138.886699 60.847897 
L 149.385135 56.10305 
L 157.874725 59.148232 
L 165.475974 68.275603 
L 170.143061 64.423928 
L 163.543215 54.910173 
L 171.718142 53.549605 
L 180.951422 55.035778 
L 191.357791 58.78368 
L 197.188583 67.834219 
L 200.069326 74.387892 
L 232.436625 83.386963 
L 231.428532 87.473311 
L 216.17503 88.220717 
L 222.101048 91.791917 
L 218.970674 95.199608 
L 202.157419 93.739355 
L 186.178065 91.230968 
L 175.377693 91.795634 
L 157.935484 94.947097 
L 117.864465 97.218209 
L 112.831339 92.834106 
L 100.149677 90.301935 
L 91.900428 91.340501 
L 80.454194 83.984516 
L 100.975401 81.40831 
L 114.072062 81.825724 
L 126.198813 80.209115 
L 108.232258 78.03871 
L 75.207019 78.590926 
L 70.305631 75.166142 
L 91.852397 71.450199 
L 77.521425 71.580077 
z
" clip-path="url(#p3166ea69fd)" style="fill: #e8edf4; stroke: #b8c5d4; stroke-width: 0.45"/>
    <path d="M 618.554377 288.934106 
L 624.34139 285.663248 
L 620.299746 283.139411 
L 628.101941 277.542994 
L 637.699915 262.746357 
L 643.460283 257.458638 
L 651.521247 254.256673 
L 655.831981 254.66379 
L 642.928583 271.163068 
L 648.993089 268.024715 
L 655.232588 270.015651 
L 651.972532 273.255063 
L 660.21545 275.801705 
L 664.5017 273.537837 
L 673.76625 276.395097 
L 670.891227 283.198942 
L 677.393336 281.610082 
L 678.57772 286.539894 
L 681.462825 292.314905 
L 677.551046 300.49085 
L 673.349051 300.836515 
L 667.240857 299.082744 
L 669.257478 291.481948 
L 666.669069 290.301405 
L 655.889592 298.358767 
L 650.345984 298.036146 
L 656.907384 293.671161 
L 647.99258 291.413775 
L 619.980246 291.685026 
z
" clip-path="url(#p3166ea69fd)" style="fill: #e8edf4; stroke: #b8c5d4; stroke-width: 0.45"/>
    <path d="M 268.291705 20.893213 
L 271.787246 17.081292 
L 290.934944 17.671324 
L 301.248733 20.658929 
L 319.54043 20.638285 
L 327.559625 23.694062 
L 325.443145 27.183362 
L 336.10308 29.285199 
L 342.003875 31.492656 
L 368.090085 32.67944 
L 382.857675 30.66546 
L 401.77445 29.87475 
L 416.870423 30.528154 
L 426.820543 34.031856 
L 428.897656 37.875462 
L 423.102001 40.345049 
L 409.249463 42.341026 
L 397.357376 41.211613 
L 370.707539 42.642283 
L 351.635455 42.806954 
L 311.946355 38.668572 
L 308.733348 33.567608 
L 307.603454 28.961137 
L 298.276732 24.905091 
L 279.05846 23.770397 
z
" clip-path="url(#p3166ea69fd)" style="fill: #e8edf4; stroke: #b8c5d4; stroke-width: 0.45"/>
    <path d="M 77.013058 35.096981 
L 89.688588 26.021915 
L 98.432175 23.422111 
L 124.578023 26.557874 
L 141.080795 32.059138 
L 157.312103 32.765017 
L 144.025455 23.877801 
L 152.536877 20.492872 
L 162.129228 21.569156 
L 165.261739 25.997295 
L 168.90336 29.306137 
L 177.176392 27.751866 
L 186.912 28.155252 
L 188.547283 32.706488 
L 182.894214 37.11233 
L 151.432258 38.554839 
L 127.992124 42.57792 
L 113.863959 42.788717 
L 112.679071 39.759886 
L 131.976372 35.651613 
L 90.002694 36.757812 
z
" clip-path="url(#p3166ea69fd)" style="fill: #e8edf4; stroke: #b8c5d4; stroke-width: 0.45"/>
    <path d="M 272.11615 -10.756057 
L 278.556945 -14.886163 
L 284.995045 -17.719339 
L 294.517812 -18.369476 
L 290.458034 -20.498725 
L 312.063422 -20.971881 
L 323.926699 -16.011406 
L 354.797419 -12.263226 
L 362.136774 -6.131613 
L 373.337652 -3.12991 
L 360.580088 -0.36511 
L 343.413523 6.621863 
L 326.978849 7.289837 
L 307.726235 6.100676 
L 297.744062 2.313383 
L 297.887319 -1.056588 
L 305.231319 -3.531252 
L 288.241548 -3.460459 
L 278.002312 -6.549863 
z
" clip-path="url(#p3166ea69fd)" style="fill: #e8edf4; stroke: #b8c5d4; stroke-width: 0.45"/>
    <path d="M 360.260285 143.616885 
L 368.335651 139.021936 
L 369.523636 131.709675 
L 372.691994 123.201027 
L 379.404623 123.95813 
L 381.128389 128.043702 
L 385.882727 126.610631 
L 391.283988 129.046131 
L 412.100002 135.12648 
L 412.922877 139.544275 
L 419.761289 138.820778 
L 426.393743 141.90056 
L 418.147944 144.824553 
L 403.690732 142.590451 
L 398.473106 138.40838 
L 389.260645 143.352355 
L 376.040627 148.158543 
L 372.850664 142.724876 
z
" clip-path="url(#p3166ea69fd)" style="fill: #e8edf4; stroke: #b8c5d4; stroke-width: 0.45"/>
    <path d="M 218.322581 60.294194 
L 218.508387 57.32129 
L 237.475881 58.474405 
L 227.24129 52.397419 
L 238.23713 47.901925 
L 249.316305 49.857538 
L 265.889032 48.68129 
L 268.304516 51.375484 
L 259.631164 55.830008 
L 273.692903 59.829677 
L 272.020645 68.190968 
L 256.787675 71.787716 
L 247.839236 71.011603 
L 241.410705 67.463814 
z
" clip-path="url(#p3166ea69fd)" style="fill: #e8edf4; stroke: #b8c5d4; stroke-width: 0.45"/>
    <path d="M 0.660089 66.252185 
L 11.080661 55.532346 
L 19.138065 49.424516 
L 10.054452 43.731871 
L 41.454534 42.280908 
L 54.722044 44.209394 
L 78.450828 44.72575 
L 97.447959 51.327267 
L 85.768815 53.670937 
L 62.988387 60.20129 
L 51.468387 66.704516 
L 51.468387 70.758796 
L 27.014493 75.236377 
L 22.110968 71.163871 
z
" clip-path="url(#p3166ea69fd)" style="fill: #e8edf4; stroke: #b8c5d4; stroke-width: 0.45"/>
    <path d="M -22.710975 264.410592 
L -21.910424 262.259785 
L -6.456783 265.694835 
L 2.276067 266.67854 
L 10.026412 274.29422 
L 19.300564 278.129184 
L 23.132888 283.261834 
L 18.460886 284.554719 
L 3.205043 280.335441 
L 0.418116 277.037458 
L -7.896815 273.785804 
L -9.568971 271.138103 
L -19.131899 269.466187 
z
" clip-path="url(#p3166ea69fd)" style="fill: #e8edf4; stroke: #b8c5d4; stroke-width: 0.45"/>
    <path d="M 217.713879 24.743845 
L 227.708315 25.033982 
L 241.70177 21.866261 
L 254.768609 22.402777 
L 255.483871 21.181935 
L 262.585533 25.487443 
L 262.875112 30.254493 
L 258.642581 37.16129 
L 243.325254 38.114106 
L 233.338901 36.628397 
L 233.531582 31.208516 
L 218.303164 31.923406 
z
" clip-path="url(#p3166ea69fd)" style="fill: #e8edf4; stroke: #b8c5d4; stroke-width: 0.45"/>
    <path d="M 278.396175 56.296783 
L 278.539962 51.67807 
L 283.393919 47.729804 
L 292.611181 45.198286 
L 311.968919 45.522347 
L 329.715473 47.782614 
L 315.83413 56.055538 
L 304.756996 57.860199 
L 294.790793 64.803751 
L 284.19231 64.457365 
z
" clip-path="url(#p3166ea69fd)" style="fill: #e8edf4; stroke: #b8c5d4; stroke-width: 0.45"/>
    <path d="M 190.523249 -2.801905 
L 208.760215 -1.536146 
L 233.882403 1.853775 
L 240.989186 6.27325 
L 244.605469 10.149262 
L 229.434362 9.113947 
L 214.143713 6.101618 
L 193.460444 5.756912 
L 202.432139 2.996871 
L 191.198736 0.758688 
z
" clip-path="url(#p3166ea69fd)" style="fill: #e8edf4; stroke: #b8c5d4; stroke-width: 0.45"/>
    <path d="M 29.218766 26.788247 
L 44.988059 19.839414 
L 64.066631 13.821957 
L 78.316204 13.951101 
L 91.058292 12.585723 
L 89.783411 19.723712 
L 82.627659 22.946801 
L 73.947139 23.400727 
L 56.677308 27.376598 
L 41.806497 28.799827 
z
" clip-path="url(#p3166ea69fd)" style="fill: #e8edf4; stroke: #b8c5d4; stroke-width: 0.45"/>
    <path d="M -67.258818 233.641577 
L -66.704554 230.678937 
L -62.338138 231.886365 
L -53.419258 231.143185 
L -56.201624 241.691258 
L -48.114976 249.16243 
L -51.819836 249.144427 
L -57.418174 244.895624 
L -60.851543 240.619216 
L -65.539614 237.725709 
z
" clip-path="url(#p3166ea69fd)" style="fill: #e8edf4; stroke: #b8c5d4; stroke-width: 0.45"/>
    <path d="M 419.2156 52.646555 
L 419.607776 49.302033 
L 424.074817 48.683893 
L 445.336835 49.685279 
L 461.357419 54.787959 
L 462.180507 57.35487 
L 442.296741 56.887845 
L 432.127725 58.136955 
L 429.437421 57.573037 
z
" clip-path="url(#p3166ea69fd)" style="fill: #e8edf4; stroke: #b8c5d4; stroke-width: 0.45"/>
    <path d="M 572.352526 299.822214 
L 575.861946 296.955778 
L 579.116903 301.470875 
L 585.854245 302.717079 
L 594.468418 302.463732 
L 589.899159 306.270441 
L 586.457837 306.876263 
L 574.673342 302.9328 
z
" clip-path="url(#p3166ea69fd)" style="fill: #e8edf4; stroke: #b8c5d4; stroke-width: 0.45"/>
    <path d="M 453.029574 106.020325 
L 456.975546 100.813378 
L 465.489662 99.525275 
L 472.74271 102.097301 
L 472.846483 106.076717 
L 471.800021 107.356645 
L 465.762147 110.100914 
L 455.347788 110.566637 
z
" clip-path="url(#p3166ea69fd)" style="fill: #e8edf4; stroke: #b8c5d4; stroke-width: 0.45"/>
    <path d="M 243.430595 89.186815 
L 251.606079 86.306815 
L 258.101315 82.279367 
L 273.53124 86.585524 
L 281.982833 91.902748 
L 276.205738 95.160399 
L 263.683498 92.345524 
L 256.11746 93.361235 
z
" clip-path="url(#p3166ea69fd)" style="fill: #e8edf4; stroke: #b8c5d4; stroke-width: 0.45"/>
    <path d="M 571.177208 270.598854 
L 574.39073 269.817166 
L 586.606854 272.146901 
L 596.108114 276.028955 
L 596.380134 277.733636 
L 591.856908 277.89984 
L 579.815907 274.987138 
z
" clip-path="url(#p3166ea69fd)" style="fill: #e8edf4; stroke: #b8c5d4; stroke-width: 0.45"/>
    <path d="M 271.082953 37.833694 
L 276.028607 33.651144 
L 289.385932 31.148431 
L 297.497064 34.406807 
L 300.887945 37.347122 
L 295.83259 40.948523 
L 282.345161 40.256232 
z
" clip-path="url(#p3166ea69fd)" style="fill: #e8edf4; stroke: #b8c5d4; stroke-width: 0.45"/>
    <path d="M 254.257693 1.189809 
L 271.701069 2.175676 
L 282.804128 5.404046 
L 280.286292 8.76132 
L 266.540814 10.678322 
L 258.974344 8.520555 
L 254.992712 5.034376 
z
" clip-path="url(#p3166ea69fd)" style="fill: #e8edf4; stroke: #b8c5d4; stroke-width: 0.45"/>
    <path d="M 423.990348 157.782286 
L 428.010828 154.353135 
L 431.814008 154.556501 
L 434.175608 156.461342 
L 430.536588 161.344289 
L 426.429894 160.554426 
z
" clip-path="url(#p3166ea69fd)" style="fill: #e8edf4; stroke: #b8c5d4; stroke-width: 0.45"/>
    <path d="M 390.252356 153.728826 
L 397.156831 149.443293 
L 409.916996 149.531644 
L 409.719484 151.331923 
L 398.846834 156.456279 
L 392.287401 156.241765 
z
" clip-path="url(#p3166ea69fd)" style="fill: #e8edf4; stroke: #b8c5d4; stroke-width: 0.45"/>
    <path d="M 115.81057 11.77821 
L 123.332871 8.816051 
L 136.898075 7.869312 
L 149.99735 9.324467 
L 146.908447 12.105152 
L 129.588934 14.778777 
z
" clip-path="url(#p3166ea69fd)" style="fill: #e8edf4; stroke: #b8c5d4; stroke-width: 0.45"/>
    <path d="M 274.656268 10.82667 
L 293.364443 10.962536 
L 299.885516 12.687502 
L 298.776746 13.749703 
L 277.133536 13.423481 
z
" clip-path="url(#p3166ea69fd)" style="fill: #e8edf4; stroke: #b8c5d4; stroke-width: 0.45"/>
    <path d="M 177.073548 51.468387 
L 180.232258 50.167742 
L 192.68129 49.796129 
L 199.741935 51.84 
L 191.566452 57.971613 
z
" clip-path="url(#p3166ea69fd)" style="fill: #e8edf4; stroke: #b8c5d4; stroke-width: 0.45"/>
    <path d="M 125.028312 5.500784 
L 125.17882 4.175494 
L 134.709581 1.393608 
L 151.774646 3.697803 
L 140.457468 5.509906 
z
" clip-path="url(#p3166ea69fd)" style="fill: #e8edf4; stroke: #b8c5d4; stroke-width: 0.45"/>
    <path d="M 12.196242 286.286558 
L 13.321384 284.472325 
L 26.756129 287.628387 
L 31.704526 296.398452 
L 34.002581 293.945806 
L 32.516129 286.327742 
L 29.357419 278.709677 
L 286.522193 278.709677 
L 286.549874 275.139871 
L 289.694741 275.095277 
L 291.344516 280.196129 
L 294.232506 281.768609 
L 310.203871 283.819355 
L 319.215484 286.699355 
L 326.740645 285.491613 
L 338.167742 287.907097 
L 341.206444 287.815975 
L 349.519455 285.185798 
L 382.054484 298.218581 
L 382.954174 300.661762 
L 385.141947 301.576095 
L 384.573832 302.496619 
L 387.065497 302.78304 
L 388.873212 301.821902 
L 389.340221 304.021917 
L 391.208374 305.494356 
L 393.759816 305.494356 
L 395.121593 306.63001 
L 393.976097 308.281762 
L 403.655926 312.642427 
L 407.495451 329.146025 
L 404.779355 334.637419 
L 398.369032 342.99871 
L 398.164648 343.967866 
L 399.206925 345.295317 
L 402.363042 346.760314 
L 404.693162 346.760314 
L 415.484161 341.800017 
L 425.05597 340.339821 
L 437.208506 335.718707 
L 436.552258 331.943226 
L 435.050259 330.119169 
L 439.243851 328.644331 
L 456.897747 328.610004 
L 459.870968 324.989801 
L 470.850178 317.576206 
L 475.042065 315.866508 
L 506.275572 315.794787 
L 507.205161 313.501935 
L 514.126452 311.597419 
L 517.424516 307.370323 
L 520.258343 300.141801 
L 527.344574 293.130293 
L 530.430968 295.571613 
L 536.660686 293.993559 
L 540.785404 296.673817 
L 540.777228 309.341636 
L 546.852449 314.59327 
L 548.457352 317.638916 
L 538.536588 322.140077 
L 519.178808 328.096568 
L 512.687474 335.703019 
L 512.593548 340.629677 
L 515.659355 345.553548 
L 519.514839 345.785806 
L 518.539355 342.394839 
L 521.32673 344.45887 
L 520.582947 347.112743 
L 514.312258 348.619355 
L 509.84928 348.438658 
L 502.978065 350.059355 
L 493.535102 350.982348 
L 485.790968 353.672339 
L 499.436036 351.92225 
L 502.188387 353.682581 
L 489.181935 356.469677 
L 483.264 356.488258 
L 483.53969 355.347871 
L 480.711855 357.92352 
L 483.445719 358.34976 
L 481.439566 365.023649 
L 474.67937 372.174596 
L 473.988449 369.788284 
L 471.948201 369.304723 
L 468.900697 366.981677 
L 470.833548 371.984516 
L 473.139083 373.637894 
L 473.279412 377.148821 
L 465.071412 388.17857 
L 464.225621 387.809652 
L 467.098374 381.488052 
L 462.352692 377.937615 
L 461.264516 370.219355 
L 459.474039 374.236351 
L 461.456547 380.129714 
L 455.318729 378.673625 
L 461.713982 381.665543 
L 462.112351 390.505703 
L 464.778116 391.148036 
L 467.047835 403.657641 
L 461.14207 410.552919 
L 451.531649 413.307778 
L 445.424888 418.756924 
L 440.785394 419.352805 
L 436.081517 422.765884 
L 434.75393 425.883345 
L 424.555432 431.913089 
L 419.318895 436.335794 
L 414.940274 441.84319 
L 413.508356 448.443964 
L 415.150049 454.895814 
L 418.250323 462.843871 
L 422.379081 469.420212 
L 422.430968 473.434839 
L 426.829571 484.211613 
L 426.132604 494.089316 
L 423.814947 499.762126 
L 421.037419 500.934194 
L 416.465373 499.807649 
L 414.99871 495.731613 
L 411.468387 493.594839 
L 402.223123 478.497693 
L 400.828552 474.863319 
L 402.735484 468.696774 
L 400.134194 463.587097 
L 392.891551 455.815185 
L 389.264516 454.389677 
L 379.892253 458.60609 
L 378.229099 458.141853 
L 373.720877 453.80801 
L 367.896774 451.509677 
L 357.395365 452.677192 
L 349.150575 451.649961 
L 342.065125 452.29025 
L 338.225052 453.739411 
L 339.898204 456.208815 
L 339.747097 459.976506 
L 341.719711 461.811902 
L 339.949347 463.033301 
L 336.502173 461.662699 
L 333.01505 463.425166 
L 326.274039 463.136191 
L 319.338255 458.226581 
L 311.234539 459.385084 
L 304.477595 457.234839 
L 298.69855 457.886276 
L 290.88 460.056774 
L 282.423391 466.944341 
L 273.190854 470.949863 
L 268.11871 475.385806 
L 265.981935 479.566452 
L 265.889032 485.976774 
L 266.353548 490.436129 
L 268.11871 493.594839 
L 264.495484 493.873548 
L 250.652903 488.949677 
L 248.051613 484.583226 
L 246.007742 478.08 
L 240.526452 472.784516 
L 232.651974 460.97921 
L 226.104155 457.276181 
L 218.508387 457.455484 
L 212.655484 464.794839 
L 204.944516 462.007742 
L 200.141698 459.202436 
L 194.749595 449.242653 
L 184.478865 442.219819 
L 181.090777 438.92575 
L 164.996129 438.922649 
L 164.978106 442.75615 
L 139.135494 442.825827 
L 103.912258 431.765141 
L 104.781925 429.948418 
L 82.425972 431.67168 
L 80.863547 426.925397 
L 74.842839 421.583352 
L 70.507953 420.471553 
L 69.49259 417.806416 
L 64.279742 417.339871 
L 60.955287 414.827051 
L 52.325141 413.91072 
L 49.955365 412.41089 
L 48.82687 407.316914 
L 39.813027 397.983205 
L 32.075117 385.06752 
L 32.404552 382.915603 
L 28.305848 379.846823 
L 21.115045 372.061997 
L 19.833259 364.487319 
L 14.882446 359.412852 
L 16.918978 351.712846 
L 16.595303 343.74528 
L 13.63039 336.625641 
L 17.260119 327.870534 
L 19.519618 311.00832 
L 17.84081 298.546839 
L 14.904743 290.599711 
z
" clip-path="url(#p3166ea69fd)" style="fill: #e8edf4; stroke: #b8c5d4; stroke-width: 0.45"/>
    <path d="M -391.220687 123.840027 
L -378.1651 119.953693 
L -357.442464 115.416836 
L -349.80398 115.416836 
L -351.068299 120.056912 
L -331.458033 119.695404 
L -339.001219 113.940557 
L -350.428338 110.402528 
L -357.036307 105.75789 
L -365.948471 101.796182 
L -378.714804 98.859467 
L -373.514701 93.989906 
L -357.034627 93.687929 
L -345.308411 89.455449 
L -343.096873 84.931555 
L -333.605239 80.51616 
L -324.555529 79.453719 
L -306.944601 75.32926 
L -298.402587 75.950977 
L -284.105725 70.998842 
L -270.049149 72.94969 
L -263.326438 77.143043 
L -259.200058 75.344623 
L -243.499411 75.902008 
L -244.056797 78.038652 
L -229.84251 79.61791 
L -220.36648 78.688935 
L -200.795101 81.62445 
L -182.926357 82.497975 
L -175.773005 83.705883 
L -163.411629 82.195998 
L -139.224659 86.288531 
L -139.334214 173.669667 
L -130.18529 173.944382 
L -121.136516 176.516129 
L -106.397419 186.689032 
L -97.359979 181.496764 
L -88.033517 178.487721 
L -83.101935 183.292862 
L -68.335525 191.285141 
L -53.027396 208.548046 
L -37.233569 214.459386 
L -36.975484 220.32 
L -42.141927 224.800226 
L -47.248892 221.305646 
L -55.437319 218.343246 
L -58.064616 210.240035 
L -70.041424 202.725175 
L -75.04781 193.953437 
L -98.738127 193.125281 
L -109.625865 190.451655 
L -128.836215 180.810473 
L -153.981927 175.731594 
L -166.843798 176.523743 
L -185.11485 172.255497 
L -196.159345 168.297389 
L -206.470974 170.26384 
L -204.554932 176.71746 
L -220.439453 179.250659 
L -228.618519 182.385651 
L -238.913585 184.358824 
L -240.242476 178.88531 
L -236.064486 169.773188 
L -226.19094 166.913767 
L -228.738062 164.583407 
L -240.5807 169.760225 
L -246.921258 175.943314 
L -260.307147 182.552243 
L -253.509783 187.063175 
L -262.288962 193.736916 
L -281.574206 200.459387 
L -283.876001 204.573044 
L -298.379302 209.370351 
L -301.316017 213.731735 
L -312.185751 217.703045 
L -318.562556 216.98867 
L -344.387117 225.850185 
L -360.33045 228.503166 
L -361.785845 226.941911 
L -351.623284 222.601411 
L -342.534206 219.734309 
L -332.632335 214.653029 
L -321.107037 213.60259 
L -316.526492 209.793551 
L -303.649018 204.23218 
L -301.574066 202.371828 
L -294.71477 199.091608 
L -293.112227 192.046517 
L -288.387174 186.56004 
L -299.099438 189.375772 
L -302.095444 187.77803 
L -307.125115 191.155948 
L -313.192262 186.443858 
L -315.697135 189.777608 
L -319.171551 185.145693 
L -328.459387 188.864475 
L -334.162624 188.856794 
L -334.962456 183.326629 
L -333.282618 179.919905 
L -339.264549 176.6116 
L -351.344591 178.392256 
L -359.184473 174.031112 
L -365.540634 171.801331 
L -365.581922 166.539296 
L -372.740555 162.580468 
L -369.145875 157.238739 
L -361.571724 152.053999 
L -358.258138 147.285258 
L -350.740637 146.60641 
L -344.366473 148.092771 
L -336.872256 143.610403 
L -330.126502 144.410475 
L -323.047804 141.52777 
L -324.77421 137.284968 
L -329.974313 135.612812 
L -323.096773 132.028455 
L -328.802411 132.134075 
L -338.660594 134.157417 
L -341.491689 136.209085 
L -348.818114 134.160058 
L -361.958677 135.202575 
L -375.563968 132.975434 
L -379.463265 129.238648 
z
" clip-path="url(#p3166ea69fd)" style="fill: #e8edf4; stroke: #b8c5d4; stroke-width: 0.45"/>
    <path d="M -279.392237 550.888815 
L -277.316872 548.340015 
L -277.957812 546.512981 
L -277.419066 545.646565 
L -269.99777 549.438039 
L -267.630132 552.693275 
L -274.455732 556.643799 
L -275.812676 558.197977 
L -278.121135 556.867603 
L -277.855525 554.27105 
z
" clip-path="url(#p3166ea69fd)" style="fill: #e8edf4; stroke: #b8c5d4; stroke-width: 0.45"/>
    <path d="M -425.414189 144.874722 
L -424.861844 141.375341 
L -419.127641 143.143515 
L -413.336786 142.188615 
L -405.824567 144.639958 
L -396.598663 145.881233 
L -397.365128 146.893024 
L -404.402538 148.859475 
L -415.011583 145.153655 
L -423.202651 145.692797 
z
" clip-path="url(#p3166ea69fd)" style="fill: #e8edf4; stroke: #b8c5d4; stroke-width: 0.45"/>
    <path d="M -266.362772 200.102439 
L -252.96368 195.385068 
L -246.795474 196.012546 
L -242.85969 198.895971 
L -250.897369 203.310885 
L -260.176323 206.852035 
L -264.92658 204.454462 
z
" clip-path="url(#p3166ea69fd)" style="fill: #e8edf4; stroke: #b8c5d4; stroke-width: 0.45"/>
    <path d="M -285.310916 539.519133 
L -284.400743 538.722674 
L -278.669357 541.030854 
L -279.446028 542.146343 
L -282.560052 542.811159 
z
" clip-path="url(#p3166ea69fd)" style="fill: #e8edf4; stroke: #b8c5d4; stroke-width: 0.45"/>
    <path d="M -300.009135 533.458498 
L -297.524439 532.17792 
L -294.065001 535.845646 
L -294.568537 536.382163 
L -298.467128 535.936041 
z
" clip-path="url(#p3166ea69fd)" style="fill: #e8edf4; stroke: #b8c5d4; stroke-width: 0.45"/>
    <path d="M -314.017641 528.94145 
L -312.119535 527.354199 
L -309.978023 527.551525 
L -309.786921 529.715613 
L -310.888754 530.635448 
z
" clip-path="url(#p3166ea69fd)" style="fill: #e8edf4; stroke: #b8c5d4; stroke-width: 0.45"/>
    <path d="M -385.132897 174.536648 
L -375.958843 172.947067 
L -368.58825 173.788426 
L -367.703203 177.35238 
L -373.4038 178.797453 
z
" clip-path="url(#p3166ea69fd)" style="fill: #e8edf4; stroke: #b8c5d4; stroke-width: 0.45"/>
    <path d="M -291.021306 537.930395 
L -290.325089 536.798741 
L -285.753972 537.195809 
L -286.042808 538.200186 
z
" clip-path="url(#p3166ea69fd)" style="fill: #e8edf4; stroke: #b8c5d4; stroke-width: 0.45"/>
    <path d="M 489.627871 8.879783 
L 490.906405 5.270307 
L 560.107045 -3.663732 
L 563.700542 -7.043365 
L 538.625218 -10.379241 
L 546.723499 -14.082457 
L 578.886968 -20.568403 
L 592.402622 -21.563768 
L 588.531159 -25.738095 
L 610.536867 -28.183401 
L 639.105074 -29.643004 
L 667.654421 -29.725502 
L 677.791463 -26.833517 
L 702.435623 -31.94784 
L 724.609301 -28.473074 
L 737.653099 -27.740392 
L 756.947613 -24.718761 
L 734.858013 -29.727081 
L 736.129951 -33.704919 
L 767.320815 -39.253099 
L 799.919721 -38.835221 
L 811.768506 -42.262142 
L 844.603014 -43.154756 
L 918.80863 -41.989099 
L 976.920248 -34.622152 
L 959.766317 -31.045006 
L 874.219355 -29.729032 
L 878.897404 -28.071081 
L 911.783288 -29.095246 
L 939.767412 -25.89185 
L 957.801786 -28.736547 
L 965.526968 -25.404294 
L 955.327494 -19.99937 
L 978.98047 -23.454534 
L 1024.089166 -27.0576 
L 1051.941554 -25.258994 
L 1057.159277 -21.289146 
L 1019.284676 -14.679081 
L 1014.03871 -12.541935 
L 984.344609 -10.935453 
L 1005.859974 -10.489889 
L 994.993548 -3.716129 
L 987.514932 2.310689 
L 987.807205 12.647938 
L 998.96191 18.713961 
L 984.448754 19.097745 
L 969.171654 22.03711 
L 986.315737 26.959773 
L 988.499985 34.85376 
L 978.566586 35.713394 
L 990.600991 43.705301 
L 969.963375 44.372253 
L 980.737177 48.150534 
L 977.691809 51.427881 
L 964.593662 52.866116 
L 951.645554 52.893244 
L 963.284655 59.186044 
L 963.410725 63.322003 
L 945.027035 59.47776 
L 940.246049 61.964594 
L 952.787985 64.287546 
L 964.959701 69.965605 
L 968.483055 77.447009 
L 951.923334 79.237161 
L 933.274126 70.319009 
L 936.451974 76.624165 
L 925.662101 81.509017 
L 962.95104 82.410178 
L 912.798627 97.822823 
L 885.611985 101.031979 
L 875.365316 101.071463 
L 865.755406 104.651117 
L 852.833404 114.45919 
L 832.851035 120.970219 
L 826.431979 121.353166 
L 800.712279 125.805089 
L 792.752609 131.551246 
L 792.624217 138.063298 
L 787.924335 144.162952 
L 772.774792 151.596418 
L 776.516191 158.855876 
L 767.581316 175.608279 
L 754.490323 176.174617 
L 740.776506 168.588883 
L 722.202364 168.541037 
L 713.18945 163.44641 
L 706.989925 154.373946 
L 690.891097 142.820965 
L 686.181925 136.768227 
L 684.914261 128.422916 
L 672.046514 119.849156 
L 675.391494 113.002839 
L 669.190204 109.728093 
L 678.375639 98.871422 
L 692.357946 95.415515 
L 696.027159 91.530023 
L 697.970601 84.271587 
L 682.300614 88.944062 
L 673.954467 90.268258 
L 662.554591 87.23585 
L 661.935391 80.925027 
L 665.569486 75.982622 
L 674.186493 75.84847 
L 693.149667 78.319463 
L 668.864021 69.239009 
L 659.612903 70.545721 
L 651.858457 68.242622 
L 662.231009 59.585806 
L 656.581099 56.126462 
L 638.025631 39.853068 
L 626.197564 36.245172 
L 626.30561 32.355685 
L 601.375494 26.919825 
L 581.651768 26.243303 
L 534.152857 27.300449 
L 523.371716 24.342968 
L 507.227737 18.501027 
L 531.622823 15.578756 
L 550.321827 15.087948 
L 510.568908 12.672465 
z
" clip-path="url(#p3166ea69fd)" style="fill: #e8edf4; stroke: #b8c5d4; stroke-width: 0.45"/>
   </g>
   <g id="PatchCollection_2">
    <path d="M -139.334214 173.669667 
L -139.224774 86.288516 
L -121.893863 88.527298 
L -107.269409 92.995943 
L -97.581646 93.850467 
L -89.426415 89.975659 
L -78.17472 87.074199 
L -64.374968 88.208454 
L -50.459086 84.128423 
L -35.25408 81.813461 
L -28.871814 85.663556 
L -21.939654 83.49343 
L -19.864289 79.117874 
L -13.444212 80.108501 
L 2.263866 88.438483 
L 14.633837 82.141316 
L 15.889425 89.189977 
L 27.303515 87.666085 
L 30.811355 84.955076 
L 42.064165 85.491592 
L 56.272599 89.392785 
L 78.013812 92.798431 
L 90.799618 94.375649 
L 99.899768 93.777352 
L 112.432041 98.487639 
L 99.361022 103.098333 
L 116.154395 105.090735 
L 141.231484 103.994756 
L 149.145074 102.369693 
L 159.048465 107.94017 
L 169.15457 103.24001 
L 159.672867 99.298312 
L 165.672372 96.118421 
L 184.412903 94.76129 
L 191.911866 96.979634 
L 201.247804 102.026323 
L 211.622865 101.285419 
L 228.037192 105.474054 
L 242.459303 103.99903 
L 256.011561 104.22209 
L 254.939458 98.440815 
L 263.19967 96.817796 
L 277.595675 99.969538 
L 277.540212 108.758276 
L 283.453037 101.350916 
L 290.926452 101.600547 
L 295.12735 92.261915 
L 285.174999 86.532759 
L 274.331055 82.779004 
L 275.075768 72.51264 
L 286.060181 65.77056 
L 298.312537 67.260542 
L 307.712392 71.361848 
L 320.333667 81.835757 
L 312.09055 86.400279 
L 329.368877 88.279804 
L 329.327907 97.780738 
L 341.743123 90.499541 
L 352.84961 96.479257 
L 350.082674 103.369889 
L 359.069388 109.637698 
L 368.769414 102.92321 
L 375.546054 94.904733 
L 376.053956 84.708139 
L 402.990225 86.787778 
L 415.459231 91.398008 
L 416.018787 96.009259 
L 409.105301 100.962302 
L 415.655721 105.936062 
L 414.473528 110.454689 
L 396.282797 116.950854 
L 383.361259 118.383794 
L 373.754973 115.587128 
L 370.984877 120.251613 
L 362.030586 128.085956 
L 359.319577 132.148986 
L 348.545404 138.435375 
L 335.246493 139.050766 
L 327.911412 142.976485 
L 327.297693 149.014823 
L 316.489517 150.177321 
L 305.12225 157.706106 
L 295.046431 168.167381 
L 291.44383 175.492243 
L 290.930168 186.28193 
L 304.58304 187.830627 
L 313.111463 203.578003 
L 326.111783 201.742328 
L 343.374689 205.764666 
L 352.662689 209.295917 
L 359.310565 213.685409 
L 370.951339 216.243128 
L 380.793507 220.15649 
L 406.239329 221.589801 
L 404.721755 229.635685 
L 407.612717 238.974689 
L 414.341419 249.371954 
L 428.164119 258.192743 
L 435.316552 255.16865 
L 440.343546 245.616805 
L 435.49121 230.943948 
L 428.938095 226.05473 
L 443.810415 221.700077 
L 454.337652 215.187933 
L 459.486627 208.71425 
L 458.726493 202.504599 
L 452.417714 194.612841 
L 441.133502 187.621966 
L 452.097197 177.88543 
L 448.046988 169.475179 
L 444.942627 154.965925 
L 451.41055 152.820883 
L 476.888981 156.252914 
L 484.584341 153.812439 
L 493.236883 156.95935 
L 504.67745 162.345135 
L 507.496041 165.951453 
L 524.063195 166.655288 
L 523.785321 174.460645 
L 526.873703 186.202591 
L 535.359019 187.654668 
L 542.092552 193.126668 
L 555.544754 187.968217 
L 564.431969 177.717275 
L 570.578911 173.398483 
L 600.18689 204.689497 
L 596.451159 210.523819 
L 608.808495 215.763283 
L 617.159659 221.071866 
L 631.97345 223.474157 
L 637.936723 226.437677 
L 641.61857 234.298963 
L 648.853688 235.532996 
L 652.586446 239.036655 
L 653.264083 249.476377 
L 639.853223 256.229698 
L 624.543608 259.531665 
L 612.853874 267.163943 
L 597.147933 268.671855 
L 577.277326 266.715964 
L 553.712052 267.29215 
L 545.933636 273.95712 
L 534.090054 278.074591 
L 520.68895 290.370147 
L 509.99616 298.946694 
L 517.886988 297.41983 
L 532.8 285.212903 
L 552.287102 277.473135 
L 566.187004 276.547076 
L 574.411448 281.102121 
L 565.63711 287.341781 
L 568.581306 297.355634 
L 571.613203 304.364996 
L 583.680403 309.005234 
L 599.033311 307.660459 
L 608.34751 297.21665 
L 608.993652 303.954828 
L 614.992692 307.320155 
L 603.50047 313.40671 
L 582.923985 318.935474 
L 573.709378 322.694431 
L 563.327443 329.38625 
L 556.272929 328.703969 
L 555.916831 320.840175 
L 572.047061 313.157822 
L 557.177342 313.461894 
L 546.852449 314.59327 
L 540.777228 309.341636 
L 540.785404 296.673817 
L 536.660686 293.993559 
L 530.430968 295.571613 
L 527.344574 293.130293 
L 520.258343 300.141801 
L 517.424516 307.370323 
L 514.126452 311.597419 
L 507.205161 313.501935 
L 506.275572 315.794787 
L 475.042065 315.866508 
L 470.850178 317.576206 
L 459.870968 324.989801 
L 456.897747 328.610004 
L 439.243851 328.644331 
L 435.050259 330.119169 
L 436.552258 331.943226 
L 437.208506 335.718707 
L 425.05597 340.339821 
L 415.484161 341.800017 
L 404.693162 346.760314 
L 402.363042 346.760314 
L 399.206925 345.295317 
L 398.164648 343.967866 
L 400.412903 339.747097 
L 404.779355 334.637419 
L 407.495451 329.146025 
L 403.655926 312.642427 
L 393.976097 308.281762 
L 395.121593 306.63001 
L 393.759816 305.494356 
L 391.208374 305.494356 
L 389.340221 304.021917 
L 388.873212 301.821902 
L 387.065497 302.78304 
L 384.573832 302.496619 
L 385.141947 301.576095 
L 382.954174 300.661762 
L 382.054484 298.218581 
L 349.519455 285.185798 
L 341.206444 287.815975 
L 338.167742 287.907097 
L 326.740645 285.491613 
L 319.215484 286.699355 
L 310.203871 283.819355 
L 294.232506 281.768609 
L 291.344516 280.196129 
L 289.694741 275.095277 
L 286.549874 275.139871 
L 286.522193 278.709677 
L 28.110565 278.686101 
L 10.124222 269.562797 
L 3.487494 265.549378 
L -13.33728 261.70272 
L -18.513383 253.478741 
L -17.19007 247.776526 
L -29.076759 243.820986 
L -30.706653 236.331035 
L -41.945528 229.586446 
L -42.141925 224.799979 
L -36.975484 220.32 
L -37.233569 214.459386 
L -53.027396 208.548046 
L -68.335525 191.285141 
L -83.101935 183.292862 
L -88.033517 178.487721 
L -97.359979 181.496764 
L -106.397419 186.689032 
L -121.136516 176.516129 
L -130.18529 173.944382 
z
" clip-path="url(#p3166ea69fd)" style="fill: #f59e0b; stroke: #b45309; stroke-width: 1.15"/>
    <path d="M 332.545608 62.848341 
L 339.685997 54.539171 
L 349.239562 50.744774 
L 373.228016 48.274227 
L 366.390083 54.279202 
L 373.709067 60.070056 
L 382.295729 52.580641 
L 405.842259 48.76536 
L 421.779831 58.375336 
L 420.396929 64.457125 
L 438.776003 61.760456 
L 447.564784 58.068078 
L 468.177959 62.768406 
L 480.972857 67.195563 
L 482.175724 71.248969 
L 499.427064 69.148572 
L 509.109534 75.06569 
L 531.536012 78.735264 
L 539.628661 82.479971 
L 548.416722 91.174414 
L 531.358859 95.502672 
L 553.239954 101.569579 
L 567.988821 103.609964 
L 581.342544 112.148378 
L 595.955786 112.764814 
L 593.06468 119.285407 
L 576.757678 130.076886 
L 565.326718 126.106536 
L 550.718997 117.169167 
L 538.699206 118.333387 
L 537.526104 123.656153 
L 547.29619 129.056933 
L 559.908414 133.330941 
L 563.735217 135.799087 
L 569.781 144.994745 
L 566.581435 151.672087 
L 554.864101 149.155211 
L 531.562657 141.717646 
L 554.369367 155.333499 
L 555.881173 158.577472 
L 530.687692 154.868291 
L 510.750004 149.474712 
L 499.490676 144.949136 
L 502.733929 142.327841 
L 475.344753 133.046007 
L 475.492621 135.740036 
L 448.629865 137.222316 
L 440.77054 134.032353 
L 446.889776 127.192021 
L 464.346355 127.02687 
L 483.470289 125.839605 
L 480.366502 122.522898 
L 483.608555 117.888823 
L 495.627866 108.840073 
L 493.074024 104.730496 
L 489.492067 101.548455 
L 475.262178 97.040883 
L 456.441901 93.881166 
L 462.391906 91.530402 
L 452.556047 85.75395 
L 444.36882 85.22489 
L 437.042395 82.062532 
L 432.070095 84.80385 
L 415.226592 85.998796 
L 381.416923 83.922884 
L 346.698922 79.796984 
L 338.972102 76.533327 
L 348.686978 72.295567 
L 335.490724 72.254999 
z
" clip-path="url(#p3166ea69fd)" style="fill: #f59e0b; stroke: #b45309; stroke-width: 1.15"/>
    <path d="M 319.707685 -26.888888 
L 333.522581 -28.660645 
L 362.599061 -30.468635 
L 376.258065 -33.930799 
L 387.778018 -33.445161 
L 397.811613 -30.843871 
L 404.872258 -35.860645 
L 433.796377 -38.374235 
L 462.193548 -38.759772 
L 467.128754 -37.756243 
L 493.952237 -39.328165 
L 559.023329 -37.421512 
L 578.972903 -36.232258 
L 595.974194 -33.710865 
L 595.566534 -31.230813 
L 572.897032 -27.199742 
L 550.41984 -25.318637 
L 542.020181 -23.238906 
L 562.247443 -23.286844 
L 540.325161 -17.651613 
L 525.184723 -15.020872 
L 509.295484 -7.432258 
L 490.131406 -5.891458 
L 484.211613 -3.996346 
L 456.083025 -3.00161 
L 468.889641 -1.836325 
L 462.467985 -0.177166 
L 470.151174 4.405378 
L 461.324532 7.590565 
L 446.971262 10.220191 
L 442.565977 13.85568 
L 429.589068 16.63265 
L 430.888413 18.735236 
L 446.763345 18.37584 
L 446.965688 20.643515 
L 422.140645 26.216175 
L 397.863732 23.652883 
L 370.573874 25.093068 
L 339.18336 23.482312 
L 338.018168 19.025373 
L 355.19328 16.923902 
L 350.616774 10.219355 
L 356.283871 9.566968 
L 381.123035 13.57567 
L 368.454194 7.618065 
L 353.386034 5.836088 
L 360.910637 2.242034 
L 377.385166 0.0288 
L 380.02111 -3.209156 
L 366.899551 -6.839907 
L 362.956274 -11.626374 
L 388.349977 -11.226054 
L 395.686957 -10.219355 
L 410.184186 -13.604934 
L 389.264516 -14.67871 
L 356.758142 -14.086637 
L 340.335825 -17.239959 
L 332.593548 -20.996129 
L 321.743752 -23.719123 
z
" clip-path="url(#p3166ea69fd)" style="fill: #f59e0b; stroke: #b45309; stroke-width: 1.15"/>
    <path d="M 61.297641 69.133099 
L 69.095195 62.172232 
L 75.563582 58.473848 
L 100.436841 52.819293 
L 109.930808 54.613626 
L 105.293357 58.967814 
L 125.967298 56.156284 
L 138.886699 60.847897 
L 149.385135 56.10305 
L 157.874725 59.148232 
L 165.475974 68.275603 
L 170.143061 64.423928 
L 163.543215 54.910173 
L 171.718142 53.549605 
L 180.951422 55.035778 
L 191.357791 58.78368 
L 197.188583 67.834219 
L 200.069326 74.387892 
L 232.436625 83.386963 
L 231.428532 87.473311 
L 216.17503 88.220717 
L 222.101048 91.791917 
L 218.970674 95.199608 
L 202.157419 93.739355 
L 186.178065 91.230968 
L 175.377693 91.795634 
L 157.935484 94.947097 
L 117.864465 97.218209 
L 112.831339 92.834106 
L 100.149677 90.301935 
L 91.900428 91.340501 
L 80.454194 83.984516 
L 100.975401 81.40831 
L 114.072062 81.825724 
L 126.198813 80.209115 
L 108.232258 78.03871 
L 75.207019 78.590926 
L 70.305631 75.166142 
L 91.852397 71.450199 
L 77.521425 71.580077 
z
" clip-path="url(#p3166ea69fd)" style="fill: #f59e0b; stroke: #b45309; stroke-width: 1.15"/>
    <path d="M 618.554377 288.934106 
L 624.34139 285.663248 
L 620.299746 283.139411 
L 628.101941 277.542994 
L 637.699915 262.746357 
L 643.460283 257.458638 
L 651.521247 254.256673 
L 655.831981 254.66379 
L 642.928583 271.163068 
L 648.993089 268.024715 
L 655.232588 270.015651 
L 651.972532 273.255063 
L 660.21545 275.801705 
L 664.5017 273.537837 
L 673.76625 276.395097 
L 670.891227 283.198942 
L 677.393336 281.610082 
L 678.57772 286.539894 
L 681.462825 292.314905 
L 677.551046 300.49085 
L 673.349051 300.836515 
L 667.240857 299.082744 
L 669.257478 291.481948 
L 666.669069 290.301405 
L 655.889592 298.358767 
L 650.345984 298.036146 
L 656.907384 293.671161 
L 647.99258 291.413775 
L 619.980246 291.685026 
z
" clip-path="url(#p3166ea69fd)" style="fill: #f59e0b; stroke: #b45309; stroke-width: 1.15"/>
    <path d="M 268.291705 20.893213 
L 271.787246 17.081292 
L 290.934944 17.671324 
L 301.248733 20.658929 
L 319.54043 20.638285 
L 327.559625 23.694062 
L 325.443145 27.183362 
L 336.10308 29.285199 
L 342.003875 31.492656 
L 368.090085 32.67944 
L 382.857675 30.66546 
L 401.77445 29.87475 
L 416.870423 30.528154 
L 426.820543 34.031856 
L 428.897656 37.875462 
L 423.102001 40.345049 
L 409.249463 42.341026 
L 397.357376 41.211613 
L 370.707539 42.642283 
L 351.635455 42.806954 
L 311.946355 38.668572 
L 308.733348 33.567608 
L 307.603454 28.961137 
L 298.276732 24.905091 
L 279.05846 23.770397 
z
" clip-path="url(#p3166ea69fd)" style="fill: #f59e0b; stroke: #b45309; stroke-width: 1.15"/>
    <path d="M 77.013058 35.096981 
L 89.688588 26.021915 
L 98.432175 23.422111 
L 124.578023 26.557874 
L 141.080795 32.059138 
L 157.312103 32.765017 
L 144.025455 23.877801 
L 152.536877 20.492872 
L 162.129228 21.569156 
L 165.261739 25.997295 
L 168.90336 29.306137 
L 177.176392 27.751866 
L 186.912 28.155252 
L 188.547283 32.706488 
L 182.894214 37.11233 
L 151.432258 38.554839 
L 127.992124 42.57792 
L 113.863959 42.788717 
L 112.679071 39.759886 
L 131.976372 35.651613 
L 90.002694 36.757812 
z
" clip-path="url(#p3166ea69fd)" style="fill: #f59e0b; stroke: #b45309; stroke-width: 1.15"/>
    <path d="M 272.11615 -10.756057 
L 278.556945 -14.886163 
L 284.995045 -17.719339 
L 294.517812 -18.369476 
L 290.458034 -20.498725 
L 312.063422 -20.971881 
L 323.926699 -16.011406 
L 354.797419 -12.263226 
L 362.136774 -6.131613 
L 373.337652 -3.12991 
L 360.580088 -0.36511 
L 343.413523 6.621863 
L 326.978849 7.289837 
L 307.726235 6.100676 
L 297.744062 2.313383 
L 297.887319 -1.056588 
L 305.231319 -3.531252 
L 288.241548 -3.460459 
L 278.002312 -6.549863 
z
" clip-path="url(#p3166ea69fd)" style="fill: #f59e0b; stroke: #b45309; stroke-width: 1.15"/>
    <path d="M 360.260285 143.616885 
L 368.335651 139.021936 
L 369.523636 131.709675 
L 372.691994 123.201027 
L 379.404623 123.95813 
L 381.128389 128.043702 
L 385.882727 126.610631 
L 391.283988 129.046131 
L 412.100002 135.12648 
L 412.922877 139.544275 
L 419.761289 138.820778 
L 426.393743 141.90056 
L 418.147944 144.824553 
L 403.690732 142.590451 
L 398.473106 138.40838 
L 389.260645 143.352355 
L 376.040627 148.158543 
L 372.850664 142.724876 
z
" clip-path="url(#p3166ea69fd)" style="fill: #f59e0b; stroke: #b45309; stroke-width: 1.15"/>
    <path d="M 218.322581 60.294194 
L 218.508387 57.32129 
L 237.475881 58.474405 
L 227.24129 52.397419 
L 238.23713 47.901925 
L 249.316305 49.857538 
L 265.889032 48.68129 
L 268.304516 51.375484 
L 259.631164 55.830008 
L 273.692903 59.829677 
L 272.020645 68.190968 
L 256.787675 71.787716 
L 247.839236 71.011603 
L 241.410705 67.463814 
z
" clip-path="url(#p3166ea69fd)" style="fill: #f59e0b; stroke: #b45309; stroke-width: 1.15"/>
    <path d="M 0.660089 66.252185 
L 11.080661 55.532346 
L 19.138065 49.424516 
L 10.054452 43.731871 
L 41.454534 42.280908 
L 54.722044 44.209394 
L 78.450828 44.72575 
L 97.447959 51.327267 
L 85.768815 53.670937 
L 62.988387 60.20129 
L 51.468387 66.704516 
L 51.468387 70.758796 
L 27.014493 75.236377 
L 22.110968 71.163871 
z
" clip-path="url(#p3166ea69fd)" style="fill: #f59e0b; stroke: #b45309; stroke-width: 1.15"/>
    <path d="M -22.710975 264.410592 
L -21.910424 262.259785 
L -6.456783 265.694835 
L 2.276067 266.67854 
L 10.026412 274.29422 
L 19.300564 278.129184 
L 23.132888 283.261834 
L 18.460886 284.554719 
L 3.205043 280.335441 
L 0.418116 277.037458 
L -7.896815 273.785804 
L -9.568971 271.138103 
L -19.131899 269.466187 
z
" clip-path="url(#p3166ea69fd)" style="fill: #f59e0b; stroke: #b45309; stroke-width: 1.15"/>
    <path d="M 217.713879 24.743845 
L 227.708315 25.033982 
L 241.70177 21.866261 
L 254.768609 22.402777 
L 255.483871 21.181935 
L 262.585533 25.487443 
L 262.875112 30.254493 
L 258.642581 37.16129 
L 243.325254 38.114106 
L 233.338901 36.628397 
L 233.531582 31.208516 
L 218.303164 31.923406 
z
" clip-path="url(#p3166ea69fd)" style="fill: #f59e0b; stroke: #b45309; stroke-width: 1.15"/>
    <path d="M 278.396175 56.296783 
L 278.539962 51.67807 
L 283.393919 47.729804 
L 292.611181 45.198286 
L 311.968919 45.522347 
L 329.715473 47.782614 
L 315.83413 56.055538 
L 304.756996 57.860199 
L 294.790793 64.803751 
L 284.19231 64.457365 
z
" clip-path="url(#p3166ea69fd)" style="fill: #f59e0b; stroke: #b45309; stroke-width: 1.15"/>
    <path d="M 190.523249 -2.801905 
L 208.760215 -1.536146 
L 233.882403 1.853775 
L 240.989186 6.27325 
L 244.605469 10.149262 
L 229.434362 9.113947 
L 214.143713 6.101618 
L 193.460444 5.756912 
L 202.432139 2.996871 
L 191.198736 0.758688 
z
" clip-path="url(#p3166ea69fd)" style="fill: #f59e0b; stroke: #b45309; stroke-width: 1.15"/>
    <path d="M 29.218766 26.788247 
L 44.988059 19.839414 
L 64.066631 13.821957 
L 78.316204 13.951101 
L 91.058292 12.585723 
L 89.783411 19.723712 
L 82.627659 22.946801 
L 73.947139 23.400727 
L 56.677308 27.376598 
L 41.806497 28.799827 
z
" clip-path="url(#p3166ea69fd)" style="fill: #f59e0b; stroke: #b45309; stroke-width: 1.15"/>
    <path d="M -67.258818 233.641577 
L -66.704554 230.678937 
L -62.338138 231.886365 
L -53.419258 231.143185 
L -56.201624 241.691258 
L -48.114976 249.16243 
L -51.819836 249.144427 
L -57.418174 244.895624 
L -60.851543 240.619216 
L -65.539614 237.725709 
z
" clip-path="url(#p3166ea69fd)" style="fill: #f59e0b; stroke: #b45309; stroke-width: 1.15"/>
    <path d="M 419.2156 52.646555 
L 419.607776 49.302033 
L 424.074817 48.683893 
L 445.336835 49.685279 
L 461.357419 54.787959 
L 462.180507 57.35487 
L 442.296741 56.887845 
L 432.127725 58.136955 
L 429.437421 57.573037 
z
" clip-path="url(#p3166ea69fd)" style="fill: #f59e0b; stroke: #b45309; stroke-width: 1.15"/>
    <path d="M 572.352526 299.822214 
L 575.861946 296.955778 
L 579.116903 301.470875 
L 585.854245 302.717079 
L 594.468418 302.463732 
L 589.899159 306.270441 
L 586.457837 306.876263 
L 574.673342 302.9328 
z
" clip-path="url(#p3166ea69fd)" style="fill: #f59e0b; stroke: #b45309; stroke-width: 1.15"/>
    <path d="M 453.029574 106.020325 
L 456.975546 100.813378 
L 465.489662 99.525275 
L 472.74271 102.097301 
L 472.846483 106.076717 
L 471.800021 107.356645 
L 465.762147 110.100914 
L 455.347788 110.566637 
z
" clip-path="url(#p3166ea69fd)" style="fill: #f59e0b; stroke: #b45309; stroke-width: 1.15"/>
    <path d="M 243.430595 89.186815 
L 251.606079 86.306815 
L 258.101315 82.279367 
L 273.53124 86.585524 
L 281.982833 91.902748 
L 276.205738 95.160399 
L 263.683498 92.345524 
L 256.11746 93.361235 
z
" clip-path="url(#p3166ea69fd)" style="fill: #f59e0b; stroke: #b45309; stroke-width: 1.15"/>
    <path d="M 571.177208 270.598854 
L 574.39073 269.817166 
L 586.606854 272.146901 
L 596.108114 276.028955 
L 596.380134 277.733636 
L 591.856908 277.89984 
L 579.815907 274.987138 
z
" clip-path="url(#p3166ea69fd)" style="fill: #f59e0b; stroke: #b45309; stroke-width: 1.15"/>
    <path d="M 271.082953 37.833694 
L 276.028607 33.651144 
L 289.385932 31.148431 
L 297.497064 34.406807 
L 300.887945 37.347122 
L 295.83259 40.948523 
L 282.345161 40.256232 
z
" clip-path="url(#p3166ea69fd)" style="fill: #f59e0b; stroke: #b45309; stroke-width: 1.15"/>
    <path d="M 254.257693 1.189809 
L 271.701069 2.175676 
L 282.804128 5.404046 
L 280.286292 8.76132 
L 266.540814 10.678322 
L 258.974344 8.520555 
L 254.992712 5.034376 
z
" clip-path="url(#p3166ea69fd)" style="fill: #f59e0b; stroke: #b45309; stroke-width: 1.15"/>
    <path d="M 423.990348 157.782286 
L 428.010828 154.353135 
L 431.814008 154.556501 
L 434.175608 156.461342 
L 430.536588 161.344289 
L 426.429894 160.554426 
z
" clip-path="url(#p3166ea69fd)" style="fill: #f59e0b; stroke: #b45309; stroke-width: 1.15"/>
    <path d="M 390.252356 153.728826 
L 397.156831 149.443293 
L 409.916996 149.531644 
L 409.719484 151.331923 
L 398.846834 156.456279 
L 392.287401 156.241765 
z
" clip-path="url(#p3166ea69fd)" style="fill: #f59e0b; stroke: #b45309; stroke-width: 1.15"/>
    <path d="M 115.81057 11.77821 
L 123.332871 8.816051 
L 136.898075 7.869312 
L 149.99735 9.324467 
L 146.908447 12.105152 
L 129.588934 14.778777 
z
" clip-path="url(#p3166ea69fd)" style="fill: #f59e0b; stroke: #b45309; stroke-width: 1.15"/>
    <path d="M 274.656268 10.82667 
L 293.364443 10.962536 
L 299.885516 12.687502 
L 298.776746 13.749703 
L 277.133536 13.423481 
z
" clip-path="url(#p3166ea69fd)" style="fill: #f59e0b; stroke: #b45309; stroke-width: 1.15"/>
    <path d="M 177.073548 51.468387 
L 180.232258 50.167742 
L 192.68129 49.796129 
L 199.741935 51.84 
L 191.566452 57.971613 
z
" clip-path="url(#p3166ea69fd)" style="fill: #f59e0b; stroke: #b45309; stroke-width: 1.15"/>
    <path d="M 125.028312 5.500784 
L 125.17882 4.175494 
L 134.709581 1.393608 
L 151.774646 3.697803 
L 140.457468 5.509906 
z
" clip-path="url(#p3166ea69fd)" style="fill: #f59e0b; stroke: #b45309; stroke-width: 1.15"/>
   </g>
   <g id="PathCollection_1">
    <path d="M 288 180.651344 
C 289.096672 180.651344 290.148574 180.215631 290.924038 179.440167 
C 291.699502 178.664703 292.135215 177.612801 292.135215 176.516129 
C 292.135215 175.419457 291.699502 174.367555 290.924038 173.592091 
C 290.148574 172.816627 289.096672 172.380914 288 172.380914 
C 286.903328 172.380914 285.851426 172.816627 285.075962 173.592091 
C 284.300498 174.367555 283.864785 175.419457 283.864785 176.516129 
C 283.864785 177.612801 284.300498 178.664703 285.075962 179.440167 
C 285.851426 180.215631 286.903328 180.651344 288 180.651344 
L 288 180.651344 
z
" clip-path="url(#p3166ea69fd)" style="fill: none; stroke: #7c2d12; stroke-width: 1.1"/>
   </g>
  </g>
 </g>
 <defs>
  <clipPath id="p3166ea69fd">
   <rect x="0" y="0" width="576" height="353.032258"/>
  </clipPath>
 </defs>
</svg>
