<?xml version="1.0" encoding="utf-8" standalone="no"?>
<!DOCTYPE svg PUBLIC "-//W3C//DTD SVG 1.1//EN"
  "http://www.w3.org/Graphics/SVG/1.1/DTD/svg11.dtd">
<svg xmlns:xlink="http://www.w3.org/1999/xlink" width="510.12pt" height="432pt" viewBox="0 0 510.12 432" xmlns="http://www.w3.org/2000/svg" version="1.1">
 <metadata>
  <rdf:RDF xmlns:dc="http://purl.org/dc/elements/1.1/" xmlns:cc="http://creativecommons.org/ns#" xmlns:rdf="http://www.w3.org/1999/02/22-rdf-syntax-ns#">
   <cc:Work>
    <dc:type rdf:resource="http://purl.org/dc/dcmitype/StillImage"/>
    <dc:date>2026-06-09T04:57:07.246261</dc:date>
    <dc:format>image/svg+xml</dc:format>
    <dc:creator>
     <cc:Agent>
      <dc:title>Matplotlib v3.10.8, https://matplotlib.org/</dc:title>
     </cc:Agent>
    </dc:creator>
   </cc:Work>
  </rdf:RDF>
 </metadata>
 <defs>
  <style type="text/css">*{stroke-linejoin: round; stroke-linecap: butt}</style>
 </defs>
 <g id="figure_1">
  <g id="patch_1">
   <path d="M 0 432 
L 510.12 432 
L 510.12 0 
L 0 0 
z
" style="fill: #eaf3ff"/>
  </g>
  <g id="axes_1">
   <g id="PatchCollection_1">
    <path d="M -48.492017 205.199881 
L -45.514711 204.857204 
L -38.323872 196.987032 
L -38.390328 194.647032 
L -39.940848 193.014864 
L -40.358376 190.179576 
L -38.280176 189.268202 
L -37.863829 185.032181 
L -40.722445 180.969546 
L -38.197008 180.10476 
L -15.633279 179.64 
L 11.690568 195.098328 
L 12.18168 199.275264 
L 22.515984 206.472744 
L 19.191888 215.34444 
L 19.618344 219.424752 
L 24.228 222.048 
L 24.444 223.92 
L 22.461768 228.26808 
L 22.874616 230.456232 
L 22.402944 233.895672 
L 27.89712 245.50848 
L 30.539448 247.08312 
L 24.8112 251.257536 
L 16.938407 254.053457 
L 12.619008 253.935288 
L 10.053288 256.095072 
L 5.041087 256.28067 
L 3.161388 257.190754 
L -5.490735 255.161854 
L -10.908079 255.744144 
L -12.924 245.952 
L -16.814016 240.60348 
L -23.872497 239.260313 
L -27.958573 237.098585 
L -35.40419 234.680967 
L -38.41193 232.848043 
L -42.300023 223.775863 
L -46.475768 219.744109 
L -47.916052 215.567992 
L -47.196096 211.823848 
z
" clip-path="url(#p99f07005b9)" style="fill: #e8edf4; stroke: #b8c5d4; stroke-width: 0.45"/>
    <path d="M 595.387937 192.974394 
L 598.363011 188.259147 
L 599.388437 182.542659 
L 603.007193 171.689368 
L 604.517054 168.721363 
L 610.637611 163.373596 
L 616.261081 165.499606 
L 625.338481 166.498615 
L 633.618161 166.196866 
L 640.735122 160.968534 
L 641.991604 162.57718 
L 636.206655 169.719256 
L 630.795636 171.103729 
L 623.866198 169.695815 
L 611.868419 170.055235 
L 605.578198 171.091823 
L 604.554261 176.541537 
L 610.998519 182.944123 
L 614.885909 179.682926 
L 628.312067 177.232843 
L 627.720475 180.548734 
L 624.58355 179.502844 
L 621.457415 183.721378 
L 615.11957 186.512277 
L 621.932921 195.739621 
L 620.617653 198.2124 
L 627.090932 206.522591 
L 627.028796 211.252348 
L 623.18531 213.369056 
L 620.36204 210.837118 
L 623.840898 204.942036 
L 616.775282 207.729587 
L 614.984136 205.736778 
L 615.918032 202.957041 
L 610.726907 198.735159 
L 611.2612 191.719029 
L 606.459261 193.907547 
L 607.361159 212.603336 
L 602.795113 213.648481 
L 599.70172 211.535122 
L 601.765966 204.907805 
L 600.651615 197.959764 
L 597.624079 197.906558 
z
" clip-path="url(#p99f07005b9)" style="fill: #e8edf4; stroke: #b8c5d4; stroke-width: 0.45"/>
    <path d="M 524.719134 169.809297 
L 525.557781 163.138076 
L 529.835473 158.353438 
L 531.037632 163.165423 
L 535.961239 167.233454 
L 540.605792 165.769357 
L 545.202349 166.288023 
L 549.397814 162.647129 
L 552.850626 162.015912 
L 559.662117 164.033649 
L 565.533759 162.499045 
L 569.225069 152.485331 
L 571.997365 149.981484 
L 574.491724 141.792774 
L 582.769544 141.796123 
L 589.010652 143.00963 
L 584.915274 149.512117 
L 590.207974 156.328631 
L 588.964515 159.640987 
L 597.03658 166.304022 
L 588.50538 167.153459 
L 586.104038 172.062182 
L 586.415833 178.586807 
L 579.492349 183.511158 
L 579.303337 190.681325 
L 576.526204 201.69163 
L 575.466176 199.13067 
L 567.286582 202.370286 
L 564.434291 197.969066 
L 559.300837 197.562021 
L 555.710359 195.255185 
L 547.150509 197.844423 
L 544.523693 194.359984 
L 539.807329 194.755867 
L 533.871692 193.925034 
L 532.770736 184.268693 
L 529.178025 182.267327 
L 525.721491 176.108447 
z
" clip-path="url(#p99f07005b9)" style="fill: #e8edf4; stroke: #b8c5d4; stroke-width: 0.45"/>
    <path d="M 680.000819 179.551586 
L 689.706273 177.80732 
L 693.396838 175.460673 
L 704.955947 178.417515 
L 706.092249 181.093445 
L 708.102917 192.73813 
L 715.554741 197.04782 
L 721.571863 189.410705 
L 729.833312 185.065296 
L 736.234037 185.059342 
L 747.732126 190.145172 
L 755.461515 191.521088 
L 755.703733 238.448828 
L 749.292589 232.539607 
L 741.979919 231.091509 
L 740.206632 233.142733 
L 731.084212 233.364115 
L 734.141514 227.504752 
L 738.674074 225.505618 
L 736.79698 217.676514 
L 733.340447 211.632232 
L 719.382601 205.535116 
L 713.445103 204.933106 
L 702.63274 198.279745 
L 700.507474 201.778694 
L 697.74448 202.413446 
L 696.109975 199.773235 
L 696.087279 196.644868 
L 690.586591 193.107967 
L 698.341281 190.515009 
L 703.476223 190.654908 
L 702.872725 188.744699 
L 692.333089 188.730188 
L 689.480798 184.443566 
L 683.048447 183.114159 
z
" clip-path="url(#p99f07005b9)" style="fill: #e8edf4; stroke: #b8c5d4; stroke-width: 0.45"/>
    <path d="M 426.369788 133.34529 
L 442.151151 135.026489 
L 448.518018 142.067734 
L 458.056784 149.944835 
L 464.878322 157.684455 
L 472.197689 157.797379 
L 478.247552 162.729357 
L 482.413251 168.758198 
L 487.896451 172.0473 
L 485.011046 177.92601 
L 489.137678 180.426323 
L 491.723939 180.61087 
L 492.944329 185.633075 
L 495.452827 189.651062 
L 500.739202 190.287675 
L 504.241872 194.844792 
L 502.433611 203.79978 
L 502.147116 214.936961 
L 494.174766 215.087649 
L 488.111136 209.068668 
L 478.866677 203.185864 
L 475.784447 198.821851 
L 470.333616 192.958395 
L 466.758021 187.561887 
L 461.282262 177.482503 
L 454.958927 171.481381 
L 450.18973 159.670753 
L 443.697103 155.137076 
L 439.933984 148.976708 
L 434.512919 144.94421 
L 427.002308 137.010368 
z
" clip-path="url(#p99f07005b9)" style="fill: #e8edf4; stroke: #b8c5d4; stroke-width: 0.45"/>
    <path d="M 498.891501 222.130196 
L 503.831851 215.250616 
L 512.568062 215.675892 
L 518.379056 218.489488 
L 521.365292 219.038292 
L 522.349046 221.599252 
L 536.142437 222.316975 
L 537.728945 219.349342 
L 551.086641 222.811457 
L 553.707132 227.478335 
L 564.508333 228.790999 
L 573.339794 233.069807 
L 565.124482 235.813082 
L 557.206081 232.912422 
L 543.218842 232.575326 
L 536.480277 231.282754 
L 528.139204 228.532782 
L 522.854318 227.819523 
L 519.859896 228.719933 
L 506.729534 225.755277 
L 505.480494 222.65928 
z
" clip-path="url(#p99f07005b9)" style="fill: #e8edf4; stroke: #b8c5d4; stroke-width: 0.45"/>
    <path d="M 657.536329 165.515605 
L 658.983683 159.763026 
L 661.373118 157.142907 
L 661.889924 161.074574 
L 666.140827 161.706163 
L 666.815391 164.646821 
L 666.438856 170.938902 
L 662.725222 170.233829 
L 661.629847 174.614957 
L 664.595991 178.416027 
L 662.580115 179.279974 
L 659.674617 174.719508 
z
" clip-path="url(#p99f07005b9)" style="fill: #e8edf4; stroke: #b8c5d4; stroke-width: 0.45"/>
    <path d="M 661.132017 197.232739 
L 662.838331 193.274283 
L 671.731184 192.97551 
L 679.653677 195.075103 
L 682.27082 200.581 
L 676.191935 197.613367 
L 670.17779 197.010985 
L 666.112922 197.486491 
z
" clip-path="url(#p99f07005b9)" style="fill: #e8edf4; stroke: #b8c5d4; stroke-width: 0.45"/>
    <path d="M 629.171921 246.527963 
L 629.820068 244.080112 
L 632.916065 239.688194 
L 640.034514 236.82809 
L 640.764144 238.24791 
L 640.897345 240.430846 
L 636.198841 245.808007 
L 630.035868 247.39191 
z
" clip-path="url(#p99f07005b9)" style="fill: #e8edf4; stroke: #b8c5d4; stroke-width: 0.45"/>
    <path d="M 603.690686 233.602984 
L 609.408662 232.106145 
L 613.920015 234.264525 
L 618.713025 233.716466 
L 625.165468 231.078487 
L 624.110277 235.078615 
L 613.292332 237.122397 
L 603.715615 236.235009 
z
" clip-path="url(#p99f07005b9)" style="fill: #e8edf4; stroke: #b8c5d4; stroke-width: 0.45"/>
    <path d="M 580.789014 237.837144 
L 583.262909 233.691537 
L 587.210575 233.634982 
L 589.140132 231.088905 
L 591.736439 233.00916 
L 596.184911 232.420917 
L 597.970849 235.481939 
L 584.659661 237.894443 
z
" clip-path="url(#p99f07005b9)" style="fill: #e8edf4; stroke: #b8c5d4; stroke-width: 0.45"/>
    <path d="M 705.871984 217.025763 
L 708.657302 212.004302 
L 710.294411 214.110592 
L 710.277296 217.543685 
L 706.572964 222.445712 
z
" clip-path="url(#p99f07005b9)" style="fill: #e8edf4; stroke: #b8c5d4; stroke-width: 0.45"/>
    <path d="M 647.381042 195.676369 
L 654.664691 195.331088 
L 656.454349 197.705268 
L 653.759444 200.095076 
L 648.783375 198.77311 
z
" clip-path="url(#p99f07005b9)" style="fill: #e8edf4; stroke: #b8c5d4; stroke-width: 0.45"/>
    <path d="M 596.828221 241.617379 
L 603.54223 240.201651 
L 609.843613 244.581663 
L 609.412383 246.524986 
L 606.384103 246.66228 
z
" clip-path="url(#p99f07005b9)" style="fill: #e8edf4; stroke: #b8c5d4; stroke-width: 0.45"/>
    <path d="M 35.32356 152.751456 
L 43.585992 142.314264 
L 48.201624 142.181352 
L 54.618264 137.10564 
L 63.99792 136.788336 
L 84.343824 115.1784 
L 92.614532 104.747407 
L 92.687074 90.643556 
L 102.123216 88.707096 
L 105.530544 86.24232 
L 108.26064 86.222592 
L 107.786232 96.18552 
L 106.266096 98.786016 
L 104.237208 106.569072 
L 96.31944 123.806448 
L 90.14076 134.358408 
L 75.526272 152.241912 
L 68.320728 158.070528 
L 57.55068 165.219624 
L 50.838984 170.69616 
L 42.959304 179.417952 
L 41.29884 183.214584 
L 39.672936 184.9194 
L 35.4096 178.979688 
z
" clip-path="url(#p99f07005b9)" style="fill: #e8edf4; stroke: #b8c5d4; stroke-width: 0.45"/>
    <path d="M -15.706303 172.009343 
L -10.10088 164.326032 
L -7.480872 159.077952 
L -11.490264 147.19968 
L -14.904 142.200828 
L -5.594349 133.1568 
L -1.854377 134.364729 
L -1.854377 138.405847 
L 0.605366 140.775378 
L 5.616671 140.775378 
L 14.730588 146.890044 
L 18.692208 146.764296 
L 20.286072 147.594672 
L 25.087567 148.161168 
L 27.215568 145.160712 
L 33.793056 142.149456 
L 36.69696 144.582552 
L 41.616598 144.583834 
L 35.32356 152.751456 
L 35.4096 178.979688 
L 39.672936 184.9194 
L 34.630344 187.79436 
L 32.85252 190.798488 
L 30.153888 191.326248 
L 29.132568 196.399296 
L 26.820432 199.304352 
L 25.415208 204.095016 
L 22.515984 206.472744 
L 12.18168 199.275264 
L 11.690568 195.098328 
L -15.633279 179.64 
z
" clip-path="url(#p99f07005b9)" style="fill: #e8edf4; stroke: #b8c5d4; stroke-width: 0.45"/>
    <path d="M -101.794968 82.165104 
L -101.069352 79.520688 
L -99.204624 76.519296 
L -100.020312 73.537344 
L -97.653456 71.329104 
L -99.154728 69.646896 
L -97.25076 65.201112 
L -93.962952 59.898816 
L -87.754392 60.401952 
L -88.02 28.8 
L -79.74 28.778112 
L -79.74 14.4 
L 5.696856 14.4 
L 8.018784 21.46428 
L 6.439752 22.770432 
L 7.48584 30.182688 
L 10.128888 38.778552 
L 16.812648 43.212187 
L 13.1688 47.321712 
L 7.865784 48.505392 
L 5.598216 50.71284 
L 4.888008 55.498608 
L 1.787184 66.078072 
L 2.552472 68.960808 
L 1.405584 75.144024 
L -1.521864 82.236384 
L -5.864472 85.803408 
L -8.952264 91.303488 
L -9.67572 94.246776 
L -13.08636 96.263352 
L -15.216336 103.798224 
L -15.120144 110.271168 
L -15.203572 104.657146 
L -16.200263 104.514762 
L -16.076658 100.930215 
L -16.941893 98.458113 
L -20.650046 95.615196 
L -21.515281 90.423783 
L -20.650046 85.108764 
L -23.987383 84.614344 
L -24.481803 86.22121 
L -28.807981 86.592025 
L -27.07751 88.693312 
L -26.459485 93.01949 
L -30.414847 96.974852 
L -33.999394 102.166265 
L -37.707547 102.907896 
L -43.764196 98.705323 
L -46.483507 100.188584 
L -47.225138 102.28987 
L -50.93329 103.649526 
L -51.1805 105.132787 
L -58.349595 105.132787 
L -59.338436 103.649526 
L -64.529849 103.402316 
L -67.125556 104.638367 
L -69.103237 104.020342 
L -74.04744 97.840088 
L -79.238853 98.828928 
L -81.216535 102.166265 
L -83.070611 108.59373 
L -87.753747 110.737946 
L -82.854943 113.549847 
L -88.338143 110.402504 
L -90.835107 108.329142 
L -91.297591 106.091511 
L -90.127802 103.095229 
L -90.14901 100.157362 
L -94.301686 95.655869 
L -95.031216 90.830808 
L -97.677432 88.708608 
L -97.757136 84.526272 
L -99.266328 81.74844 
z
" clip-path="url(#p99f07005b9)" style="fill: #e8edf4; stroke: #b8c5d4; stroke-width: 0.45"/>
    <path d="M -42.447735 279.331914 
L -20.599022 273.397392 
L -16.454159 276.853181 
L -14.473257 276.19164 
L -11.630639 278.013669 
L -11.212804 280.898702 
L -12.727503 284.246218 
L -12.194698 289.32163 
L -7.496566 293.769358 
L -5.298747 288.77357 
L -2.182286 287.257383 
L -2.794714 277.99953 
L -5.810716 272.792406 
L -8.40851 270.471059 
L -10.908079 270.575983 
L -12.923956 261.216182 
L -10.908079 255.744144 
L -5.490735 255.161854 
L 3.161388 257.190754 
L 5.041087 256.28067 
L 10.053288 256.095072 
L 12.619008 253.935288 
L 16.938407 254.053457 
L 24.8112 251.257536 
L 30.539438 247.083092 
L 31.70439 250.311174 
L 31.408222 257.484317 
L 32.297842 263.802071 
L 32.577267 275.054221 
L 33.843422 278.580704 
L 28.9027 288.725573 
L 24.318422 293.190417 
L 9.620156 299.42185 
L 1.485211 307.149751 
L -1.285224 308.464275 
L -6.311522 313.580242 
L -9.278039 315.244884 
L -9.886374 320.378711 
L -6.471885 325.831401 
L -5.05132 330.054027 
L -4.961893 332.208 
L -3.689672 331.848 
L -3.89567 338.909673 
L -5.063226 342.254585 
L -3.366214 343.487254 
L -4.437032 346.482792 
L -7.446709 349.044124 
L -22.044887 355.374528 
L -25.202648 358.036691 
L -24.585384 361.069808 
L -22.745124 361.554244 
L -23.363133 365.34378 
L -28.824009 365.283505 
L -31.122659 356.286844 
L -29.83976 348.2598 
L -35.161854 333.01087 
L -27.576085 324.838717 
L -25.67741 319.646104 
L -24.589848 318.990888 
L -23.776503 314.752263 
L -24.933641 312.619556 
L -24.624823 307.239048 
L -23.221002 302.249213 
L -23.237001 293.136467 
L -26.976679 290.822933 
L -30.405307 290.299802 
L -31.957213 288.51833 
L -35.293939 286.998795 
L -41.299526 287.142042 
z
" clip-path="url(#p99f07005b9)" style="fill: #e8edf4; stroke: #b8c5d4; stroke-width: 0.45"/>
    <path d="M 51.690147 331.613374 
L 52.979742 326.422621 
L 56.294517 325.175813 
L 56.313865 322.779308 
L 59.755143 317.321037 
L 60.403661 312.73527 
L 57.369428 304.785988 
L 56.794207 298.151602 
L 59.309775 294.123569 
L 60.274925 289.556778 
L 63.863543 289.291492 
L 70.545554 286.512871 
L 73.708152 286.416133 
L 77.811715 282.313313 
L 83.736935 277.878979 
L 85.897547 274.256875 
L 84.917142 271.179853 
L 87.97556 272.045289 
L 91.944434 267.042059 
L 92.077263 262.712649 
L 94.46149 259.492008 
L 98.884661 265.646051 
L 100.666878 270.401482 
L 101.825505 279.063279 
L 103.691066 282.430887 
L 102.975202 285.8837 
L 101.701978 288.001896 
L 99.25636 283.782619 
L 97.902768 285.913466 
L 99.276079 291.247466 
L 98.636863 294.300302 
L 96.650007 295.963457 
L 96.196453 302.062061 
L 85.361394 334.018808 
L 82.603609 344.030104 
L 79.349482 352.379734 
L 73.493839 354.084932 
L 67.208455 357.130328 
L 57.345988 352.716086 
L 55.359132 348.916876 
L 54.883998 342.533637 
L 52.348711 336.793709 
z
" clip-path="url(#p99f07005b9)" style="fill: #e8edf4; stroke: #b8c5d4; stroke-width: 0.45"/>
    <path d="M 111.632534 -1.767579 
L 112.913573 -2.117325 
L 113.179603 -0.142748 
L 118.81498 -1.277563 
L 129.117607 -0.876657 
L 143.969909 -14.799342 
L 145.3395 -12.345166 
L 146.317301 -6.658072 
L 142.640874 -6.62998 
L 142.049655 -1.94115 
L 143.32474 -0.939909 
L 140.066148 0.478051 
L 140.046056 3.420941 
L 137.948323 6.400852 
L 137.760056 9.300024 
L 136.308982 10.821978 
L 114.66528 7.191688 
z
" clip-path="url(#p99f07005b9)" style="fill: #e8edf4; stroke: #b8c5d4; stroke-width: 0.45"/>
    <path d="M 114.660071 35.999976 
L 136.259868 28.800043 
L 141.059948 14.399992 
L 137.760056 9.300024 
L 137.948323 6.400852 
L 140.046056 3.420941 
L 140.066148 0.478051 
L 143.32474 -0.939909 
L 142.049655 -1.94115 
L 142.640874 -6.62998 
L 146.317301 -6.658072 
L 149.545011 -1.740046 
L 153.564859 0.87412 
L 163.110323 3.127192 
L 168.300703 9.64605 
L 170.878034 10.557994 
L 170.864268 12.164221 
L 167.093335 18.476022 
L 164.060218 20.778951 
L 161.373498 25.711301 
L 158.107093 25.33365 
L 156.609882 27.050383 
L 155.453488 30.700764 
L 156.338643 35.513494 
L 155.659615 36.398091 
L 152.3467 36.374465 
L 147.849487 39.065277 
L 147.147762 42.572784 
L 145.501351 44.092319 
L 141.02274 44.034276 
L 138.203564 45.847375 
L 138.239282 48.755848 
L 134.755216 50.754982 
L 130.782621 50.07614 
L 125.967659 52.504829 
L 122.641723 52.912432 
z
" clip-path="url(#p99f07005b9)" style="fill: #e8edf4; stroke: #b8c5d4; stroke-width: 0.45"/>
    <path d="M 143.969909 -14.799342 
L 146.066526 -17.250727 
L 146.95689 -16.625649 
L 146.278234 -13.651133 
L 145.3395 -12.345166 
z
" clip-path="url(#p99f07005b9)" style="fill: #e8edf4; stroke: #b8c5d4; stroke-width: 0.45"/>
    <path d="M 477.166316 76.361419 
L 481.776639 70.374808 
L 491.08621 68.99945 
L 497.835194 70.032875 
L 503.776412 72.856145 
L 507.033888 67.891797 
L 513.415638 70.542425 
L 515.084745 75.344179 
L 514.198102 83.972117 
L 502.095771 89.513175 
L 505.257624 93.874955 
L 497.699388 94.396969 
L 491.46721 97.296885 
L 485.440415 96.245601 
L 482.512966 92.493644 
L 478.871514 85.056516 
z
" clip-path="url(#p99f07005b9)" style="fill: #e8edf4; stroke: #b8c5d4; stroke-width: 0.45"/>
    <path d="M 441.366454 39.992848 
L 444.404036 38.685021 
L 447.686813 30.900938 
L 452.769665 30.578539 
L 456.971827 27.456497 
L 461.095111 25.791483 
L 464.211944 28.013487 
L 464.625314 32.33992 
L 469.490505 32.669388 
L 467.718706 40.255716 
L 467.888742 46.71002 
L 475.477861 42.414468 
L 477.633636 43.683972 
L 481.850681 43.475799 
L 483.301383 40.970649 
L 488.746632 41.465131 
L 494.222019 47.312216 
L 494.671108 54.418572 
L 500.501077 60.693724 
L 500.179237 66.787678 
L 497.835194 70.032875 
L 491.08621 68.99945 
L 481.776639 70.374808 
L 477.166316 76.361419 
L 478.871514 85.056516 
L 472.407536 81.750672 
L 466.249029 81.884989 
L 467.304964 76.228404 
L 460.964142 76.270634 
L 460.394874 84.189592 
L 454.167161 101.065958 
L 454.661271 106.277361 
L 459.351589 106.503393 
L 462.273457 113.074899 
L 463.566774 119.307077 
L 467.584761 123.430546 
L 471.946169 124.267518 
L 475.676546 128.00422 
L 473.322829 130.962179 
L 468.570375 131.822034 
L 468.003712 128.124957 
L 462.129094 124.971661 
L 460.877449 126.255676 
L 458.032972 123.492868 
L 456.801419 119.927132 
L 449.487261 112.447403 
L 448.305566 116.679516 
L 446.940068 112.679946 
L 449.845565 101.282689 
L 453.334468 93.884071 
L 457.288459 87.172108 
L 454.473747 80.605811 
L 454.586485 77.261085 
L 453.763837 73.241982 
L 448.961898 67.521401 
L 447.242933 63.909342 
L 449.729107 62.578819 
L 452.364109 56.319666 
L 449.415079 51.567584 
L 444.845684 46.310788 
z
" clip-path="url(#p99f07005b9)" style="fill: #e8edf4; stroke: #b8c5d4; stroke-width: 0.45"/>
    <path d="M 461.095111 25.791483 
L 462.629529 23.139924 
L 468.756038 18.456675 
L 469.404185 20.148106 
L 473.242462 20.344559 
L 472.154529 12.108969 
L 475.887138 11.053778 
L 480.095253 16.739012 
L 483.3278 23.280752 
L 492.192003 23.337121 
L 494.982531 29.616179 
L 490.380393 31.50239 
L 488.315031 34.090697 
L 496.941109 38.397783 
L 507.463257 53.249155 
L 512.911483 58.258524 
L 514.724581 63.344353 
L 513.415638 70.542425 
L 507.033888 67.891797 
L 503.776412 72.856145 
L 497.835194 70.032875 
L 500.179237 66.787678 
L 500.501077 60.693724 
L 494.671108 54.418572 
L 494.222019 47.312216 
L 488.746632 41.465131 
L 483.301383 40.970649 
L 481.850681 43.475799 
L 477.633636 43.683972 
L 475.477861 42.414468 
L 467.888742 46.71002 
L 467.718706 40.255716 
L 469.490505 32.669388 
L 464.625314 32.33992 
L 464.211944 28.013487 
z
" clip-path="url(#p99f07005b9)" style="fill: #e8edf4; stroke: #b8c5d4; stroke-width: 0.45"/>
    <path d="M 404.843288 18.176506 
L 407.356251 19.266858 
L 407.503591 14.10308 
L 411.056118 12.395091 
L 410.294118 9.337603 
L 411.921554 6.88566 
L 412.201351 -0.565606 
L 417.828542 1.074666 
L 421.039137 -4.861716 
L 421.403394 -8.369967 
L 425.377105 -14.409412 
L 425.158327 -18.529719 
L 434.479433 -23.505043 
L 439.624793 -22.203169 
L 439.034318 -26.633224 
L 441.558443 -27.95426 
L 441.01522 -30.683396 
L 445.226312 -31.218805 
L 447.632863 -26.979994 
L 450.775368 -25.263448 
L 450.697234 -13.814658 
L 443.877185 -7.802188 
L 443.013982 0.738686 
L 450.61389 -0.455659 
L 452.330994 6.172401 
L 456.890344 7.566921 
L 454.794472 13.548137 
L 463.259072 17.576356 
L 468.540238 15.480112 
L 468.756038 18.456675 
L 462.629529 23.139924 
L 461.095111 25.791483 
L 456.971827 27.456497 
L 452.769665 30.578539 
L 447.686813 30.900938 
L 444.404036 38.685021 
L 441.366454 39.992848 
L 444.845684 46.310788 
L 449.415079 51.567584 
L 452.364109 56.319666 
L 449.729107 62.578819 
L 447.242933 63.909342 
L 448.961898 67.521401 
L 453.763837 73.241982 
L 454.586485 77.261085 
L 454.473747 80.605811 
L 457.288459 87.172108 
L 453.334468 93.884071 
L 449.845565 101.282689 
L 449.151654 95.938085 
L 451.364728 90.4227 
L 448.944038 86.162495 
L 449.528933 78.318881 
L 446.605948 74.58869 
L 444.259673 65.971542 
L 442.958915 56.875911 
L 439.844687 50.913112 
L 426.919336 59.656392 
L 422.880513 59.015129 
L 418.41939 57.32686 
L 420.901099 48.40387 
L 419.398679 41.6627 
L 413.755116 33.361253 
L 414.635435 30.765877 
L 410.423599 29.842956 
L 405.313585 23.96964 
z
" clip-path="url(#p99f07005b9)" style="fill: #e8edf4; stroke: #b8c5d4; stroke-width: 0.45"/>
    <path d="M 475.887138 11.053778 
L 479.750344 9.296675 
L 485.492505 9.332952 
L 492.49338 8.502119 
L 498.630308 4.665144 
L 502.10098 7.366375 
L 508.682904 8.681271 
L 507.544368 12.828925 
L 510.972624 15.754328 
L 518.221298 17.622865 
L 508.60849 23.782675 
L 502.608112 30.585237 
L 501.026441 35.581211 
L 513.266066 52.578313 
L 519.800365 57.025855 
L 524.175167 62.807828 
L 527.473943 76.132596 
L 526.500979 88.798613 
L 520.496136 93.540092 
L 512.250686 98.175716 
L 506.376812 104.177954 
L 497.399499 110.881731 
L 494.785333 106.264524 
L 496.808652 101.386868 
L 491.46721 97.296885 
L 497.699388 94.396969 
L 505.257624 93.874955 
L 502.095771 89.513175 
L 514.198102 83.972117 
L 515.084745 75.344179 
L 513.415638 70.542425 
L 514.724581 63.344353 
L 512.911483 58.258524 
L 507.463257 53.249155 
L 496.941109 38.397783 
L 488.315031 34.090697 
L 490.380393 31.50239 
L 494.982531 29.616179 
L 492.192003 23.337121 
L 483.3278 23.280752 
L 480.095253 16.739012 
z
" clip-path="url(#p99f07005b9)" style="fill: #e8edf4; stroke: #b8c5d4; stroke-width: 0.45"/>
    <path d="M 231.131845 2.217852 
L 235.926715 -2.585762 
L 251.771329 -2.566972 
L 250.341835 -8.748735 
L 246.296687 -12.400047 
L 245.476272 -17.941476 
L 240.763629 -21.174953 
L 248.698773 -28.722213 
L 257.059193 -28.174898 
L 264.591012 -35.72346 
L 269.104597 -43.030177 
L 276.093938 -50.254666 
L 275.982689 -55.387004 
L 282.122221 -59.551959 
L 276.311227 -63.107277 
L 271.259628 -74.287432 
L 274.789459 -77.391987 
L 285.710839 -75.635443 
L 293.736396 -76.705517 
L 300.689646 -82.756868 
L 308.428336 -74.317942 
L 307.699823 -68.444626 
L 310.56402 -64.759641 
L 310.328127 -61.083215 
L 305.160815 -62.050783 
L 307.18004 -54.114524 
L 314.253841 -49.555546 
L 324.261044 -44.521063 
L 319.692393 -41.25503 
L 316.896656 -34.520185 
L 340.050592 -24.224441 
L 349.920129 -23.291289 
L 354.072806 -19.628629 
L 368.297798 -17.264866 
L 374.293711 -17.385231 
L 375.118591 -20.234917 
L 374.170556 -24.809894 
L 374.727173 -27.9111 
L 379.118347 -29.425426 
L 379.876626 -22.312558 
L 386.420599 -19.579701 
L 390.947578 -20.705214 
L 402.901081 -20.435835 
L 403.406725 -24.858821 
L 400.475927 -27.156541 
L 406.282456 -28.05751 
L 412.836103 -33.412532 
L 421.135131 -37.997554 
L 427.174576 -36.22836 
L 432.307286 -39.260175 
L 435.683452 -34.783053 
L 433.251601 -31.759423 
L 441.01522 -30.683396 
L 441.558443 -27.95426 
L 439.034318 -26.633224 
L 439.624793 -22.203169 
L 434.479433 -23.505043 
L 425.158327 -18.529719 
L 425.377105 -14.409412 
L 421.403394 -8.369967 
L 421.039137 -4.861716 
L 417.828542 1.074666 
L 412.201351 -0.565606 
L 411.921554 6.88566 
L 410.294118 9.337603 
L 411.056118 12.395091 
L 407.503591 14.10308 
L 403.71145 2.682009 
L 401.723479 2.704706 
L 400.54662 7.306099 
L 396.604535 3.574606 
L 398.827656 -0.523004 
L 402.048668 -0.938979 
L 405.368652 -7.032188 
L 401.217091 -8.261509 
L 394.539917 -8.154724 
L 387.688987 -9.142199 
L 387.053863 -14.148591 
L 383.616677 -14.503732 
L 377.913955 -17.614984 
L 375.370483 -12.730073 
L 380.567189 -8.918585 
L 376.065882 -6.235772 
L 374.46784 -3.611932 
L 378.89957 -1.682747 
L 377.674342 2.655779 
L 380.169446 8.070146 
L 381.290121 13.9989 
L 380.259115 16.627763 
L 375.361181 16.537164 
L 366.485072 18.031956 
L 366.898814 23.448184 
L 363.055327 27.708203 
L 352.693913 32.554233 
L 344.635242 41.025529 
L 339.222364 45.567206 
L 332.048104 50.28022 
L 332.036942 53.592018 
L 321.962394 57.945799 
L 318.59925 58.325869 
L 316.440498 63.817813 
L 318.321314 79.154923 
L 315.270337 85.99525 
L 315.237595 98.227619 
L 311.511683 98.576249 
L 308.234488 104.067821 
L 310.425982 106.440885 
L 303.861173 108.482063 
L 301.436391 113.378695 
L 298.547265 115.44815 
L 291.729448 108.725211 
L 285.634565 91.380595 
L 283.111928 87.975036 
L 279.286673 81.058063 
L 276.255788 67.556003 
L 269.706235 57.667304 
L 264.570548 34.500718 
L 264.596221 25.779576 
L 263.199841 19.036732 
L 252.721969 23.346423 
L 247.647302 22.483219 
L 238.241737 13.757054 
L 241.703479 11.154423 
L 239.577097 8.329107 
z
" clip-path="url(#p99f07005b9)" style="fill: #e8edf4; stroke: #b8c5d4; stroke-width: 0.45"/>
    <path d="M 374.46784 -3.611932 
L 376.065882 -6.235772 
L 380.567189 -8.918585 
L 375.370483 -12.730073 
L 377.913955 -17.614984 
L 383.616677 -14.503732 
L 387.053863 -14.148591 
L 387.688987 -9.142199 
L 394.539917 -8.154724 
L 401.217091 -8.261509 
L 405.368652 -7.032188 
L 402.048668 -0.938979 
L 398.827656 -0.523004 
L 396.604535 3.574606 
L 400.54662 7.306099 
L 401.723479 2.704706 
L 403.71145 2.682009 
L 407.503591 14.10308 
L 407.356251 19.266858 
L 404.843288 18.176506 
L 405.313585 23.96964 
L 403.256781 20.216195 
L 402.84155 16.548698 
L 401.471215 13.082863 
L 398.463027 8.891863 
L 391.831245 8.603881 
L 392.486089 11.571885 
L 390.22539 15.578153 
L 387.161763 14.118149 
L 386.114757 15.428766 
L 381.290121 13.9989 
L 380.169446 8.070146 
L 377.674342 2.655779 
L 378.89957 -1.682747 
z
" clip-path="url(#p99f07005b9)" style="fill: #e8edf4; stroke: #b8c5d4; stroke-width: 0.45"/>
    <path d="M 178.554589 -41.970521 
L 190.618969 -38.293722 
L 197.821878 -39.371982 
L 202.125615 -38.453898 
L 203.583015 -40.032221 
L 208.597406 -39.399701 
L 217.954603 -42.393193 
L 218.206494 -48.520075 
L 222.220017 -52.595361 
L 227.580434 -52.58271 
L 228.367363 -54.597099 
L 233.86991 -55.535832 
L 236.532073 -54.865362 
L 239.347902 -56.890168 
L 238.950158 -61.213997 
L 242.00746 -65.559593 
L 246.589878 -67.381435 
L 243.759911 -72.144865 
L 250.608982 -71.919762 
L 252.588768 -74.512162 
L 252.288135 -77.278505 
L 255.874149 -80.303065 
L 255.051129 -83.884055 
L 253.348907 -86.93559 
L 257.553302 -90.071585 
L 265.284179 -91.584051 
L 273.546372 -92.420465 
L 281.3978 -94.557823 
L 286.717661 -91.201004 
L 288.848508 -85.668505 
L 300.689646 -82.756868 
L 293.736396 -76.705517 
L 285.710839 -75.635443 
L 274.789459 -77.391987 
L 271.259628 -74.287432 
L 276.311227 -63.107277 
L 282.122221 -59.551959 
L 275.982689 -55.387004 
L 276.093938 -50.254666 
L 269.104597 -43.030177 
L 264.591012 -35.72346 
L 257.059193 -28.174898 
L 248.698773 -28.722213 
L 240.763629 -21.174953 
L 245.476272 -17.941476 
L 246.296687 -12.400047 
L 250.341835 -8.748735 
L 251.771329 -2.566972 
L 235.926715 -2.585762 
L 231.131845 2.217852 
L 225.8544 0.397126 
L 223.707182 -4.778 
L 218.144359 -10.261014 
L 204.878936 -8.906679 
L 193.181045 -8.772547 
L 183.041013 -7.763306 
L 185.75415 -16.127819 
L 196.139748 -19.847034 
L 195.544064 -23.162739 
L 192.099065 -24.328249 
L 191.900379 -30.669443 
L 185.01745 -33.835203 
L 182.119023 -38.183589 
z
" clip-path="url(#p99f07005b9)" style="fill: #e8edf4; stroke: #b8c5d4; stroke-width: 0.45"/>
    <path d="M 314.065201 113.753927 
L 317.324165 102.066641 
L 322.29949 106.067327 
L 325.651099 111.137715 
L 329.133305 118.634002 
L 328.04872 126.131218 
L 325.029741 128.180582 
L 318.76817 129.827737 
L 315.341775 124.103063 
z
" clip-path="url(#p99f07005b9)" style="fill: #e8edf4; stroke: #b8c5d4; stroke-width: 0.45"/>
    <path d="M 270.722731 -111.104906 
L 272.772094 -112.752061 
L 271.780155 -114.436609 
L 278.653409 -117.838262 
L 283.628362 -119.24692 
L 291.24985 -118.281212 
L 293.972288 -122.878699 
L 303.207818 -123.734274 
L 305.774359 -126.592146 
L 317.119899 -130.492373 
L 318.13193 -132.119995 
L 317.557081 -136.224489 
L 322.496687 -138.098607 
L 316.015966 -150.606122 
L 330.278909 -153.482598 
L 333.964266 -155.085477 
L 339.159484 -167.976225 
L 353.442891 -165.606881 
L 357.447484 -168.86138 
L 357.791277 -176.081405 
L 363.771191 -176.754108 
L 369.251786 -181.547862 
L 372.069103 -182.139825 
L 373.959592 -177.116132 
L 380.010944 -173.297388 
L 390.281945 -170.593554 
L 395.249827 -164.794652 
L 392.477531 -156.381956 
L 395.067885 -153.259728 
L 413.321282 -151.023399 
L 422.020286 -146.536789 
L 426.469503 -145.737582 
L 429.749675 -139.100034 
L 433.97565 -134.824574 
L 441.912654 -134.992006 
L 456.773886 -133.377779 
L 466.350232 -134.379392 
L 473.457891 -133.307085 
L 484.108404 -128.933771 
L 492.82043 -128.940096 
L 496.007956 -126.701349 
L 504.391073 -130.567159 
L 516.022363 -133.066914 
L 526.81389 -133.340013 
L 535.227144 -135.872882 
L 540.393712 -139.729205 
L 545.433032 -142.150452 
L 544.267708 -144.526866 
L 541.968314 -147.29358 
L 545.747804 -151.934971 
L 557.200128 -149.824031 
L 564.374388 -153.646681 
L 575.352695 -156.436092 
L 580.628652 -161.195057 
L 585.696249 -163.243677 
L 596.155146 -164.198967 
L 601.835543 -163.387296 
L 602.624332 -165.946023 
L 596.099335 -170.978832 
L 590.321827 -173.280459 
L 584.787654 -170.623505 
L 577.684459 -171.744553 
L 573.608429 -170.83112 
L 571.754031 -173.774755 
L 580.347366 -186.397426 
L 588.99056 -183.67908 
L 599.136917 -188.228756 
L 599.071608 -191.397024 
L 605.570976 -199.03356 
L 609.57504 -201.341592 
L 609.485681 -205.316829 
L 605.535038 -207.027981 
L 611.48221 -210.610088 
L 620.429385 -211.908427 
L 629.974584 -212.10336 
L 640.751121 -209.959523 
L 647.073712 -207.30815 
L 656.729681 -192.52654 
L 659.39328 -185.473944 
L 671.924288 -183.172321 
L 680.452512 -178.053749 
L 683.368272 -171.288936 
L 694.308168 -171.280512 
L 700.54989 -174.12078 
L 712.449443 -176.243255 
L 708.665832 -169.76484 
L 705.86892 -167.129856 
L 703.401437 -159.241874 
L 698.559264 -152.237448 
L 689.82087 -153.512364 
L 683.641368 -150.969312 
L 685.537597 -144.802942 
L 684.501753 -136.295926 
L 680.823838 -136.101705 
L 680.867998 -132.444175 
L 676.218724 -136.694785 
L 673.356015 -132.659869 
L 662.235949 -129.558849 
L 663.360718 -125.760755 
L 657.135238 -126.022693 
L 653.7174 -128.279299 
L 648.770725 -123.17282 
L 640.835581 -119.302731 
L 634.972497 -114.685152 
L 624.906507 -112.592071 
L 619.605993 -109.227253 
L 611.852792 -107.261791 
L 615.679163 -110.598146 
L 614.172651 -113.401882 
L 619.873884 -118.241586 
L 616.070581 -122.014007 
L 609.794127 -119.472395 
L 601.665135 -114.466003 
L 597.228941 -109.816798 
L 590.16779 -109.470773 
L 586.495456 -106.110978 
L 590.289829 -101.242624 
L 596.182679 -100.060742 
L 596.423781 -96.82894 
L 602.120177 -94.725998 
L 610.188894 -99.86708 
L 616.581062 -97.064088 
L 621.23715 -96.872286 
L 622.403962 -93.100423 
L 612.20998 -91.089569 
L 608.846464 -87.202365 
L 601.844845 -83.590492 
L 598.148698 -78.550986 
L 605.898179 -74.59439 
L 608.726657 -67.512404 
L 613.108902 -60.914295 
L 617.99865 -55.383656 
L 617.88182 -50.035331 
L 613.362654 -48.069125 
L 615.085339 -44.228988 
L 619.32322 -41.994147 
L 618.216683 -36.129761 
L 616.387957 -30.423691 
L 612.364761 -29.776846 
L 601.275577 -12.53362 
L 594.589474 -3.941214 
L 574.673294 8.763313 
L 566.559557 9.589867 
L 562.158337 12.788927 
L 559.668815 10.451954 
L 555.595761 14.030154 
L 545.533864 17.636446 
L 537.915352 18.740564 
L 535.457083 26.344565 
L 531.467001 26.766307 
L 529.579116 21.540765 
L 531.284315 18.755633 
L 521.624253 16.450471 
L 518.221298 17.622865 
L 510.972624 15.754328 
L 507.544368 12.828925 
L 508.682904 8.681271 
L 502.10098 7.366375 
L 498.630308 4.665144 
L 492.49338 8.502119 
L 485.492505 9.332952 
L 479.750344 9.296675 
L 472.154529 12.108969 
L 473.242462 20.344559 
L 469.404185 20.148106 
L 468.540238 15.480112 
L 463.259072 17.576356 
L 454.794472 13.548137 
L 456.890344 7.566921 
L 452.330994 6.172401 
L 450.61389 -0.455659 
L 443.013982 0.738686 
L 443.877185 -7.802188 
L 450.697234 -13.814658 
L 450.775368 -25.263448 
L 447.632863 -26.979994 
L 445.226312 -31.218805 
L 441.01522 -30.683396 
L 433.251601 -31.759423 
L 435.683452 -34.783053 
L 432.307286 -39.260175 
L 427.174576 -36.22836 
L 421.135131 -37.997554 
L 412.836103 -33.412532 
L 406.282456 -28.05751 
L 400.475927 -27.156541 
L 397.323747 -29.092423 
L 393.5197 -29.267668 
L 388.373968 -30.934357 
L 384.485833 -29.107864 
L 379.722589 -23.755075 
L 379.118347 -29.425426 
L 374.727173 -27.9111 
L 366.332523 -28.614685 
L 358.187904 -30.265747 
L 352.343795 -33.427972 
L 346.748974 -34.847235 
L 344.332749 -38.305628 
L 340.287229 -39.338867 
L 333.018091 -44.02993 
L 327.245792 -46.243562 
L 324.261044 -44.521063 
L 314.253841 -49.555546 
L 307.18004 -54.114524 
L 305.160815 -62.050783 
L 310.328127 -61.083215 
L 310.56402 -64.759641 
L 307.699823 -68.444626 
L 308.428336 -74.317942 
L 300.689646 -82.756868 
L 288.848508 -85.668505 
L 286.717661 -91.201004 
L 281.3978 -94.557823 
L 280.116018 -96.623929 
L 279.035898 -100.728051 
L 279.286673 -103.527694 
L 274.914103 -105.166849 
L 272.547736 -104.44187 
z
" clip-path="url(#p99f07005b9)" style="fill: #e8edf4; stroke: #b8c5d4; stroke-width: 0.45"/>
    <path d="M 522.368766 33.351207 
L 525.9172 30.088523 
L 533.783511 28.070971 
L 537.923165 28.241752 
L 539.532369 30.989305 
L 536.368656 34.15767 
L 534.702153 38.315555 
L 528.481509 41.776553 
L 522.577497 39.54469 
z
" clip-path="url(#p99f07005b9)" style="fill: #e8edf4; stroke: #b8c5d4; stroke-width: 0.45"/>
    <path d="M 529.835473 158.353438 
L 535.112174 160.820822 
L 540.675741 159.475416 
L 542.124583 153.379416 
L 545.197884 152.021545 
L 553.828427 150.462757 
L 562.528919 140.213708 
L 565.809091 143.945015 
L 567.320813 141.492141 
L 570.761719 141.72022 
L 571.505115 133.576345 
L 577.049335 128.569023 
L 580.680741 122.941646 
L 583.593308 122.918019 
L 587.292431 126.560402 
L 587.621341 129.690071 
L 598.369708 133.863584 
L 597.856995 136.683877 
L 593.026034 137.041064 
L 594.311909 140.556943 
L 589.010652 143.00963 
L 582.769544 141.796123 
L 574.491724 141.792774 
L 571.997365 149.981484 
L 569.225069 152.485331 
L 565.533759 162.499045 
L 559.662117 164.033649 
L 552.850626 162.015912 
L 549.397814 162.647129 
L 545.202349 166.288023 
L 540.605792 165.769357 
L 535.961239 167.233454 
L 531.037632 163.165423 
z
" clip-path="url(#p99f07005b9)" style="fill: #e8edf4; stroke: #b8c5d4; stroke-width: 0.45"/>
    <path d="M 460.877449 126.255676 
L 462.129094 124.971661 
L 468.003712 128.124957 
L 468.570375 131.822034 
L 473.322829 130.962179 
L 475.676546 128.00422 
L 477.332259 128.676924 
L 481.584279 133.023635 
L 484.604745 137.843992 
L 485.017743 142.69244 
L 484.251279 145.967775 
L 485.477622 152.704666 
L 488.013654 154.688731 
L 490.845109 161.055784 
L 490.707443 163.490054 
L 485.601894 163.970397 
L 470.272597 152.922141 
L 469.429486 149.2539 
L 465.267135 144.438194 
L 464.273335 138.475581 
L 461.676284 134.550053 
L 462.465073 129.307955 
z
" clip-path="url(#p99f07005b9)" style="fill: #e8edf4; stroke: #b8c5d4; stroke-width: 0.45"/>
    <path d="M 1.787184 66.078072 
L 4.888008 55.498608 
L 5.598216 50.71284 
L 7.865784 48.505392 
L 13.1688 47.321712 
L 16.812648 43.212187 
L 20.992486 51.547492 
L 22.975992 58.156391 
L 26.922914 61.66334 
L 36.75078 68.464227 
L 46.90495 79.196967 
L 50.444827 81.362602 
L 48.273425 83.121007 
L 45.191232 82.495944 
L 42.7302 80.166096 
L 39.769632 75.944952 
L 36.57744 73.632024 
L 34.71552 71.145792 
L 28.449 68.258952 
L 23.512392 68.17284 
L 21.77568 66.667392 
L 17.55324 68.360616 
L 13.183704 65.092104 
L 10.935144 70.46568 
L 2.552472 68.960808 
z
" clip-path="url(#p99f07005b9)" style="fill: #e8edf4; stroke: #b8c5d4; stroke-width: 0.45"/>
    <path d="M 47.015083 63.263986 
L 48.456112 62.913868 
L 47.717552 59.624022 
L 48.590429 58.235456 
L 48.271193 55.095182 
L 51.432302 52.798392 
L 50.693742 49.763229 
L 52.601719 46.224096 
L 55.558934 48.096168 
L 57.510815 47.445417 
L 65.819889 47.280031 
L 67.139994 47.999988 
L 74.099942 48.72013 
L 76.859959 48.359966 
L 78.660035 50.760005 
L 82.020202 49.559892 
L 87.180073 41.999982 
L 93.900035 38.759993 
L 114.660071 35.999976 
L 122.641723 52.912432 
L 117.433483 54.846639 
L 116.040451 58.043281 
L 115.870787 60.498573 
L 108.702109 63.538202 
L 97.19695 66.896881 
L 90.75046 71.976943 
L 87.580421 72.373756 
L 85.420181 71.947921 
L 81.212066 74.936018 
L 76.62295 76.322166 
L 68.760361 77.105188 
L 67.186503 79.006281 
L 65.299363 79.531644 
L 64.18464 81.362974 
L 60.62095 81.2041 
L 58.320812 82.181157 
L 53.337302 81.81504 
L 51.464672 77.609157 
L 51.670427 73.673397 
L 50.493197 71.549062 
L 49.084166 66.223805 
z
" clip-path="url(#p99f07005b9)" style="fill: #e8edf4; stroke: #b8c5d4; stroke-width: 0.45"/>
    <path d="M -10.38718 -29.221532 
L -8.056532 -38.567194 
L -0.043626 -37.421961 
L 3.068742 -39.637826 
L 4.7918 -42.23004 
L 10.28579 -43.227188 
L 11.470462 -45.63839 
L 13.851712 -46.861199 
L 6.675592 -54.060574 
L 21.095177 -57.673562 
L 22.467372 -58.759263 
L 31.139959 -56.807941 
L 41.867863 -51.768062 
L 62.168391 -37.288016 
L 81.970717 -36.01814 
L 83.763724 -32.587652 
L 88.855878 -32.774431 
L 91.674683 -26.565322 
L 95.216792 -24.920771 
L 96.450577 -22.391995 
L 101.357441 -19.365575 
L 101.793135 -16.394594 
L 101.075783 -13.9966 
L 101.986984 -11.577957 
L 104.057183 -9.56022 
L 106.09278 -5.434146 
L 108.269391 -4.005582 
L 110.265176 -4.517179 
L 114.66528 7.191688 
L 136.308982 10.821978 
L 137.760056 9.300024 
L 141.059948 14.399992 
L 136.259868 28.800043 
L 114.660071 35.999976 
L 93.900035 38.759993 
L 87.180073 41.999982 
L 82.020202 49.559892 
L 78.660035 50.760005 
L 76.859959 48.359966 
L 74.099942 48.72013 
L 67.139994 47.999988 
L 65.819889 47.280031 
L 57.510815 47.445417 
L 55.558934 48.096168 
L 52.601719 46.224096 
L 50.693742 49.763229 
L 51.432302 52.798392 
L 48.271193 55.095182 
L 47.336924 52.022626 
L 45.165522 49.8542 
L 44.610393 46.982003 
L 40.89155 44.402068 
L 37.054017 38.364483 
L 35.023257 32.497306 
L 30.043096 27.542632 
L 26.832129 26.360192 
L 22.063676 19.498285 
L 21.230611 14.494498 
L 21.537569 10.226479 
L 17.40796 2.243153 
L 14.031794 -0.566536 
L 10.142171 -2.055562 
L 7.774688 -6.181077 
L 8.168338 -7.808699 
L 6.167716 -11.541308 
L 4.065147 -13.148838 
L 1.253783 -18.504976 
L -6.802655 -29.256134 
z
" clip-path="url(#p99f07005b9)" style="fill: #e8edf4; stroke: #b8c5d4; stroke-width: 0.45"/>
    <path d="M -81.899496 -43.518168 
L -80.045136 -47.96352 
L -81.159336 -51.042888 
L -78.553296 -54.49788 
L -68.973624 -54.616896 
L -51.562584 -49.46436 
L -46.019376 -51.745392 
L -43.055784 -53.80848 
L -36.706104 -54.402192 
L -31.586688 -53.49312 
L -29.625048 -49.92192 
L -27.954216 -52.274448 
L -22.183776 -50.573304 
L -16.57152 -50.165712 
L -13.028832 -51.979392 
L -8.29728 -39.609576 
L -10.319472 -36.715824 
L -11.86884 -31.276728 
L -13.827528 -27.52776 
L -15.506208 -26.27064 
L -21.155328 -31.80708 
L -26.292744 -42.127776 
L -27.032688 -41.475096 
L -24.049296 -33.877656 
L -19.628928 -26.639208 
L -14.18724 -15.424344 
L -9.215496 -7.443 
L -2.754648 0.527688 
L -4.185216 1.782936 
L -3.952944 6.462432 
L 5.696856 14.4 
L -79.74 14.4 
L -79.74 -37.718313 
z
" clip-path="url(#p99f07005b9)" style="fill: #e8edf4; stroke: #b8c5d4; stroke-width: 0.45"/>
    <path d="M -22.469904 116.748216 
L -20.01744 112.647024 
L -16.1964 112.470048 
L -15.120144 110.271168 
L -15.216336 103.798224 
L -13.08636 96.263352 
L -9.67572 94.246776 
L -8.952264 91.303488 
L -5.864472 85.803408 
L -1.521864 82.236384 
L 1.405584 75.144024 
L 2.552472 68.960808 
L 10.935144 70.46568 
L 13.183704 65.092104 
L 17.55324 68.360616 
L 21.77568 66.667392 
L 23.512392 68.17284 
L 28.449 68.258952 
L 34.71552 71.145792 
L 36.57744 73.632024 
L 39.769632 75.944952 
L 42.7302 80.166096 
L 45.191232 82.495944 
L 40.224672 89.05536 
L 40.900104 93.233448 
L 44.921808 93.35376 
L 46.655496 92.843208 
L 48.253333 94.126474 
L 46.683072 96.677424 
L 51.998328 104.108544 
L 54.747 106.678224 
L 78.288048 115.222464 
L 84.343824 115.1784 
L 63.99792 136.788336 
L 54.618264 137.10564 
L 48.201624 142.181352 
L 43.585992 142.314264 
L 41.616598 144.583834 
L 36.69696 144.582552 
L 33.793056 142.149456 
L 27.215568 145.160712 
L 25.087567 148.161168 
L 20.286072 147.594672 
L 18.692208 146.764296 
L 14.730588 146.890044 
L 5.616671 140.775378 
L 0.605366 140.775378 
L -1.854377 138.405847 
L -1.854377 134.364729 
L -5.594349 133.1568 
L -9.849456 125.321616 
L -13.137696 123.652296 
L -14.39928 120.77316 
L -18.048312 117.263952 
z
" clip-path="url(#p99f07005b9)" style="fill: #e8edf4; stroke: #b8c5d4; stroke-width: 0.45"/>
    <path d="M 40.224672 89.05536 
L 45.191232 82.495944 
L 48.273425 83.121007 
L 50.444827 81.362602 
L 52.148537 83.590931 
L 51.921947 86.580516 
L 47.81429 88.303388 
L 50.906195 90.273314 
L 48.253333 94.126474 
L 46.655496 92.843208 
L 44.921808 93.35376 
L 40.900104 93.233448 
z
" clip-path="url(#p99f07005b9)" style="fill: #e8edf4; stroke: #b8c5d4; stroke-width: 0.45"/>
    <path d="M 46.683072 96.677424 
L 50.906195 90.273314 
L 53.248749 91.600489 
L 54.660012 94.577982 
L 57.908186 97.592123 
L 61.482665 97.616122 
L 68.269972 95.774188 
L 76.106889 94.920844 
L 82.444735 92.683958 
L 86.015493 92.20994 
L 88.587243 90.896532 
L 92.687074 90.643556 
L 92.614532 104.747407 
L 84.343824 115.1784 
L 78.288048 115.222464 
L 54.747 106.678224 
L 51.998328 104.108544 
z
" clip-path="url(#p99f07005b9)" style="fill: #e8edf4; stroke: #b8c5d4; stroke-width: 0.45"/>
   </g>
   <g id="PathCollection_1">
    <defs>
     <path id="m72e80b97f1" d="M 0 2.12132 
C 0.562581 2.12132 1.102195 1.897805 1.5 1.5 
C 1.897805 1.102195 2.12132 0.562581 2.12132 0 
C 2.12132 -0.562581 1.897805 -1.102195 1.5 -1.5 
C 1.102195 -1.897805 0.562581 -2.12132 0 -2.12132 
C -0.562581 -2.12132 -1.102195 -1.897805 -1.5 -1.5 
C -1.897805 -1.102195 -2.12132 -0.562581 -2.12132 0 
C -2.12132 0.562581 -1.897805 1.102195 -1.5 1.5 
C -1.102195 1.897805 -0.562581 2.12132 0 2.12132 
z
" style="stroke: #ffffff; stroke-width: 0.5"/>
    </defs>
    <g clip-path="url(#p99f07005b9)">
     <use xlink:href="#m72e80b97f1" x="437.46" y="262.8" style="fill: #8aa0b7; stroke: #ffffff; stroke-width: 0.5"/>
     <use xlink:href="#m72e80b97f1" x="501.06" y="248.4" style="fill: #8aa0b7; stroke: #ffffff; stroke-width: 0.5"/>
     <use xlink:href="#m72e80b97f1" x="49.86" y="90" style="fill: #8aa0b7; stroke: #ffffff; stroke-width: 0.5"/>
     <use xlink:href="#m72e80b97f1" x="255.06" y="216" style="fill: #8aa0b7; stroke: #ffffff; stroke-width: 0.5"/>
     <use xlink:href="#m72e80b97f1" x="58.86" y="260.4" style="fill: #8aa0b7; stroke: #ffffff; stroke-width: 0.5"/>
     <use xlink:href="#m72e80b97f1" x="323.46" y="122.4" style="fill: #8aa0b7; stroke: #ffffff; stroke-width: 0.5"/>
     <use xlink:href="#m72e80b97f1" x="154.62" y="318.84" style="fill: #8aa0b7; stroke: #ffffff; stroke-width: 0.5"/>
     <use xlink:href="#m72e80b97f1" x="265.86" y="149.4" style="fill: #8aa0b7; stroke: #ffffff; stroke-width: 0.5"/>
     <use xlink:href="#m72e80b97f1" x="139.86" y="325.08" style="fill: #8aa0b7; stroke: #ffffff; stroke-width: 0.5"/>
     <use xlink:href="#m72e80b97f1" x="141.06" y="205.8" style="fill: #8aa0b7; stroke: #ffffff; stroke-width: 0.5"/>
     <use xlink:href="#m72e80b97f1" x="487.62" y="162.96" style="fill: #8aa0b7; stroke: #ffffff; stroke-width: 0.5"/>
     <use xlink:href="#m72e80b97f1" x="65.46" y="265.2" style="fill: #8aa0b7; stroke: #ffffff; stroke-width: 0.5"/>
    </g>
   </g>
   <g id="PathCollection_2">
    <defs>
     <path id="ma557c6d2e4" d="M 0 3.674235 
C 0.974418 3.674235 1.909058 3.287094 2.598076 2.598076 
C 3.287094 1.909058 3.674235 0.974418 3.674235 0 
C 3.674235 -0.974418 3.287094 -1.909058 2.598076 -2.598076 
C 1.909058 -3.287094 0.974418 -3.674235 0 -3.674235 
C -0.974418 -3.674235 -1.909058 -3.287094 -2.598076 -2.598076 
C -3.287094 -1.909058 -3.674235 -0.974418 -3.674235 0 
C -3.674235 0.974418 -3.287094 1.909058 -2.598076 2.598076 
C -1.909058 3.287094 -0.974418 3.674235 0 3.674235 
z
" style="stroke: #ffffff; stroke-width: 1.2"/>
    </defs>
    <g clip-path="url(#p99f07005b9)">
     <use xlink:href="#ma557c6d2e4" x="255.06" y="216" style="fill: #f97316; stroke: #ffffff; stroke-width: 1.2"/>
    </g>
   </g>
   <g id="PathCollection_3">
    <path d="M 255.06 220.929503 
C 256.367319 220.929503 257.621271 220.410099 258.545685 219.485685 
C 259.470099 218.561271 259.989503 217.307319 259.989503 216 
C 259.989503 214.692681 259.470099 213.438729 258.545685 212.514315 
C 257.621271 211.589901 256.367319 211.070497 255.06 211.070497 
C 253.752681 211.070497 252.498729 211.589901 251.574315 212.514315 
C 250.649901 213.438729 250.130497 214.692681 250.130497 216 
C 250.130497 217.307319 250.649901 218.561271 251.574315 219.485685 
C 252.498729 220.410099 253.752681 220.929503 255.06 220.929503 
L 255.06 220.929503 
z
" clip-path="url(#p99f07005b9)" style="fill: none; stroke: #7c2d12; stroke-width: 1.1"/>
   </g>
  </g>
 </g>
 <defs>
  <clipPath id="p99f07005b9">
   <rect x="0" y="0" width="510.12" height="432"/>
  </clipPath>
 </defs>
</svg>
