<?xml version="1.0" encoding="utf-8" standalone="no"?>
<!DOCTYPE svg PUBLIC "-//W3C//DTD SVG 1.1//EN"
  "http://www.w3.org/Graphics/SVG/1.1/DTD/svg11.dtd">
<svg xmlns:xlink="http://www.w3.org/1999/xlink" width="453.024pt" height="432pt" viewBox="0 0 453.024 432" xmlns="http://www.w3.org/2000/svg" version="1.1">
 <metadata>
  <rdf:RDF xmlns:dc="http://purl.org/dc/elements/1.1/" xmlns:cc="http://creativecommons.org/ns#" xmlns:rdf="http://www.w3.org/1999/02/22-rdf-syntax-ns#">
   <cc:Work>
    <dc:type rdf:resource="http://purl.org/dc/dcmitype/StillImage"/>
    <dc:date>2026-06-09T04:57:17.827559</dc:date>
    <dc:format>image/svg+xml</dc:format>
    <dc:creator>
     <cc:Agent>
      <dc:title>Matplotlib v3.10.8, https://matplotlib.org/</dc:title>
     </cc:Agent>
    </dc:creator>
   </cc:Work>
  </rdf:RDF>
 </metadata>
 <defs>
  <style type="text/css">*{stroke-linejoin: round; stroke-linecap: butt}</style>
 </defs>
 <g id="figure_1">
  <g id="patch_1">
   <path d="M 0 432 
L 453.024 432 
L 453.024 0 
L 0 0 
z
" style="fill: #eaf3ff"/>
  </g>
  <g id="axes_1">
   <g id="PatchCollection_1">
    <path d="M 355.264825 142.8475 
L 357.096156 142.086988 
L 357.32163 138.948203 
L 358.499605 137.097153 
L 361.119724 135.583943 
L 363.011329 136.317294 
L 365.473691 133.560997 
L 369.395684 133.632062 
L 369.857051 135.670263 
L 372.546747 136.94572 
L 382.797284 126.612956 
L 382.556183 120.689224 
L 385.683062 113.694675 
L 388.982209 109.985878 
L 393.722757 106.515578 
L 394.550241 104.218788 
L 394.729579 101.578205 
L 395.903089 99.079753 
L 395.526182 94.999258 
L 396.423615 88.61881 
L 397.830785 84.126805 
L 399.987305 80.276807 
L 401.061472 70.907147 
L 403.86465 67.251556 
L 407.720042 64.933 
L 413.64489 67.37992 
L 418.230656 70.035944 
L 428.868891 72.150048 
L 431.02169 67.802034 
L 432.010653 67.247091 
L 435.291941 67.97021 
L 443.307823 64.376755 
L 446.148208 65.899824 
L 448.479601 65.683838 
L 449.559349 63.933061 
L 452.235279 63.316168 
L 462.269271 64.239461 
L 464.646428 63.4756 
L 469.007836 69.419424 
L 472.240755 70.292487 
L 474.168079 69.083444 
L 477.497365 69.557276 
L 481.507166 68.034206 
L 483.217201 71.109367 
L 489.555791 75.894005 
L 489.120097 84.31284 
L 492.005874 85.28785 
L 489.691225 87.844345 
L 486.925254 89.756601 
L 484.172306 93.511348 
L 482.657608 96.858865 
L 482.252423 102.638233 
L 480.584432 105.389321 
L 480.524156 110.817455 
L 478.453585 112.824402 
L 478.186811 117.108792 
L 477.197848 117.663921 
L 476.53147 121.602657 
L 478.341964 124.876132 
L 478.799983 133.559881 
L 480.095904 140.183848 
L 479.375948 143.927992 
L 480.816232 148.104109 
L 484.991977 152.135863 
L 488.880112 161.208053 
L 486.04382 160.475447 
L 476.372968 161.690629 
L 474.443039 162.551227 
L 472.391072 167.147412 
L 474.002508 170.32266 
L 471.832222 186.074257 
L 478.811145 190.157356 
L 480.78721 188.848041 
L 481.38922 196.612032 
L 475.878859 196.552501 
L 470.268782 189.52186 
L 464.751352 188.515782 
L 463.135823 184.742989 
L 458.734231 187.015967 
L 452.968629 186.011749 
L 450.56245 182.742739 
L 445.990823 182.078593 
L 442.616517 182.25235 
L 442.203519 180.014347 
L 436.440894 179.408617 
L 427.069931 180.970568 
L 427.455024 172.402533 
L 425.05331 169.730696 
L 424.52497 165.302687 
L 425.585742 160.962487 
L 424.126483 158.18461 
L 423.994398 153.654282 
L 415.258187 153.717162 
L 415.885125 151.123088 
L 412.211675 151.150249 
L 411.823606 152.3978 
L 407.358018 152.679086 
L 404.472613 158.675371 
L 400.494065 157.658503 
L 398.118396 158.671278 
L 393.357384 159.253568 
L 388.945374 153.160545 
L 385.103004 143.477787 
L 363.856301 143.382537 
L 356.273508 145.080666 
z
" clip-path="url(#pfd13a8202c)" style="fill: #e8edf4; stroke: #b8c5d4; stroke-width: 0.45"/>
    <path d="M 425.497032 10.525104 
L 426.222648 7.880688 
L 428.087376 4.879296 
L 427.271688 1.897344 
L 429.638544 -0.310896 
L 428.137272 -1.993104 
L 430.04124 -6.438888 
L 433.329048 -11.741184 
L 439.537608 -11.238048 
L 439.272 -42.84 
L 447.552 -42.861888 
L 447.552 -57.24 
L 532.988856 -57.24 
L 535.310784 -50.17572 
L 533.731752 -48.869568 
L 534.77784 -41.457312 
L 537.420888 -32.861448 
L 544.104648 -28.427813 
L 540.4608 -24.318288 
L 535.157784 -23.134608 
L 532.890216 -20.92716 
L 532.180008 -16.141392 
L 529.079184 -5.561928 
L 529.844472 -2.679192 
L 528.697584 3.504024 
L 525.770136 10.596384 
L 521.427528 14.163408 
L 518.339736 19.663488 
L 517.61628 22.606776 
L 514.20564 24.623352 
L 512.075664 32.158224 
L 512.171856 38.631168 
L 512.088428 33.017146 
L 511.091737 32.874762 
L 511.215342 29.290215 
L 510.350107 26.818113 
L 506.641954 23.975196 
L 505.776719 18.783783 
L 506.641954 13.468764 
L 503.304617 12.974344 
L 502.810197 14.58121 
L 498.484019 14.952025 
L 500.21449 17.053312 
L 500.832515 21.37949 
L 496.877153 25.334852 
L 493.292606 30.526265 
L 489.584453 31.267896 
L 483.527804 27.065323 
L 480.808493 28.548584 
L 480.066862 30.64987 
L 476.35871 32.009526 
L 476.1115 33.492787 
L 468.942405 33.492787 
L 467.953564 32.009526 
L 462.762151 31.762316 
L 460.166444 32.998367 
L 458.188763 32.380342 
L 453.24456 26.200088 
L 448.053147 27.188928 
L 446.075465 30.526265 
L 444.221389 36.95373 
L 439.538253 39.097946 
L 444.437057 41.909847 
L 438.953857 38.762504 
L 436.456893 36.689142 
L 435.994409 34.451511 
L 437.164198 31.455229 
L 437.14299 28.517362 
L 432.990314 24.015869 
L 432.260784 19.190808 
L 429.614568 17.068608 
L 429.534864 12.886272 
L 428.025672 10.10844 
z
" clip-path="url(#pfd13a8202c)" style="fill: #e8edf4; stroke: #b8c5d4; stroke-width: 0.45"/>
    <path d="M 365.042833 -2.283363 
L 368.151624 -11.767464 
L 377.335664 -18.556602 
L 377.715176 -27.92124 
L 380.489332 -42.531697 
L 382.055376 -45.630856 
L 379.059466 -48.098985 
L 378.943632 -50.38884 
L 376.249591 -52.261335 
L 374.48136 -63.45324 
L 381.75012 -67.389984 
L 439.183152 -39.819384 
L 439.537608 -11.238048 
L 433.329048 -11.741184 
L 430.04124 -6.438888 
L 428.137272 -1.993104 
L 429.638544 -0.310896 
L 427.271688 1.897344 
L 428.087376 4.879296 
L 426.222648 7.880688 
L 425.497032 10.525104 
L 428.025672 10.10844 
L 429.534864 12.886272 
L 429.614568 17.068608 
L 432.260784 19.190808 
L 432.173991 20.934755 
L 427.61613 22.162401 
L 423.963516 25.0772 
L 418.758252 32.932906 
L 411.981736 36.268517 
L 405.028858 35.821102 
L 402.99847 36.483015 
L 403.711357 39.017558 
L 396.899493 44.345419 
L 387.835116 47.100042 
L 386.036529 45.46963 
L 384.844043 45.328987 
L 383.516868 47.180967 
L 377.564115 47.722143 
L 378.691861 45.771751 
L 375.407968 37.82805 
L 372.272159 36.605799 
L 368.022372 32.403636 
L 369.586556 29.006076 
L 372.867844 29.729381 
L 374.899348 29.216668 
L 378.920684 29.287175 
L 375.001667 22.742459 
L 375.265093 17.959867 
L 374.784192 13.18284 
L 371.921669 8.572347 
L 372.641625 5.180926 
L 368.024233 5.015169 
L 368.040232 0.383823 
z
" clip-path="url(#pfd13a8202c)" style="fill: #e8edf4; stroke: #b8c5d4; stroke-width: 0.45"/>
    <path d="M 385.235833 306.912276 
L 388.684925 303.351563 
L 391.528286 305.322792 
L 392.74198 308.401301 
L 400.499274 310.287326 
L 404.367317 309.761591 
L 410.794087 306.079955 
L 410.801529 279.48809 
L 412.745224 280.569326 
L 417.013987 287.410583 
L 416.350585 291.797664 
L 417.957185 294.325509 
L 423.114451 293.591043 
L 430.124628 288.212022 
L 431.886753 284.763302 
L 435.399097 283.094567 
L 438.433702 283.968932 
L 441.87312 285.985553 
L 447.733228 286.341625 
L 452.337598 284.665076 
L 454.331895 278.973888 
L 458.249423 278.397551 
L 460.414128 275.692972 
L 462.811749 270.895126 
L 469.276099 265.519826 
L 479.463756 260.217452 
L 482.393066 260.295959 
L 485.87676 261.515605 
L 488.303031 260.651286 
L 492.130146 261.37087 
L 497.45224 276.6198 
L 496.169341 284.646844 
L 496.784001 287.231989 
L 493.150735 285.913372 
L 491.069373 286.426457 
L 490.389601 288.523073 
L 488.423581 291.226164 
L 488.490926 293.715686 
L 492.787966 297.618332 
L 497.002034 296.841077 
L 498.467991 293.643505 
L 503.928867 293.70378 
L 502.129907 298.945134 
L 501.279355 304.927281 
L 499.416399 308.177315 
L 493.09604 312.854239 
L 483.953156 325.36994 
L 470.734242 337.11806 
L 465.297179 340.394139 
L 457.772057 343.187643 
L 454.101583 343.56269 
L 453.172524 345.561452 
L 448.796605 344.497331 
L 445.232543 345.867666 
L 437.429113 344.480216 
L 433.06696 345.358301 
L 430.085933 344.981394 
L 422.660154 347.823639 
L 416.51318 348.963663 
L 412.065079 351.684985 
L 408.790116 351.857998 
L 405.743605 349.290713 
L 403.310265 349.159 
L 400.209431 345.944684 
L 399.869359 346.942949 
L 398.912394 345.007811 
L 398.952577 340.786301 
L 396.613371 335.961294 
L 398.93695 334.649746 
L 398.748683 329.123758 
L 394.033808 322.385192 
z
M 461.946686 316.266868 
L 467.347658 321.804762 
L 469.923873 321.089271 
L 471.247699 318.78876 
L 475.260478 317.664364 
L 478.693198 311.813186 
L 473.05224 307.422012 
L 469.687237 308.890574 
L 465.786079 311.707518 
z
" clip-path="url(#pfd13a8202c)" style="fill: #e8edf4; stroke: #b8c5d4; stroke-width: 0.45"/>
    <path d="M -265.156095 155.331575 
L -263.25649 154.01519 
L -263.264304 150.973887 
L -258.912198 148.895503 
L -259.629921 145.002159 
L -257.792452 142.497009 
L -257.269879 139.136842 
L -249.036521 134.236676 
L -243.135672 132.851459 
L -242.170336 131.769106 
L -235.682174 132.106946 
L -232.275498 109.242853 
L -233.402871 105.119942 
L -236.596722 102.493126 
L -236.560073 97.261817 
L -232.505251 96.075657 
L -231.065525 96.820914 
L -230.822191 94.063129 
L -235.041096 93.318616 
L -235.130207 88.813403 
L -221.101668 88.974323 
L -218.720232 86.492428 
L -216.719982 88.776009 
L -215.316347 93.023192 
L -213.957546 92.135804 
L -209.993509 95.943944 
L -204.395525 95.477368 
L -203.001936 93.273967 
L -194.683002 90.411445 
L -193.846216 87.362142 
L -188.703274 85.313523 
L -189.092645 83.800313 
L -195.191994 83.18156 
L -196.191561 78.647139 
L -195.90116 73.820085 
L -199.123661 71.953594 
L -197.774348 71.290937 
L -192.444069 72.212183 
L -186.719023 74.011887 
L -184.640638 72.309852 
L -179.463094 71.192711 
L -171.409632 68.497433 
L -168.77649 65.749694 
L -169.729734 63.718004 
L -165.986521 63.399698 
L -164.310902 65.058759 
L -165.247217 68.220241 
L -162.773322 69.310779 
L -161.121887 72.656621 
L -163.118975 75.193211 
L -164.264579 81.322325 
L -162.421529 84.962661 
L -161.899514 88.294364 
L -157.470203 91.672577 
L -153.936094 92.029764 
L -153.140235 90.619618 
L -147.606991 89.045388 
L -145.265925 87.130529 
L -135.617026 88.072797 
L -134.968321 86.601631 
L -136.176061 85.170276 
L -135.455919 83.08538 
L -132.550236 83.725155 
L -129.15063 82.989014 
L -121.88205 85.999993 
L -119.653349 84.04774 
L -118.042843 84.348745 
L -117.060949 86.375598 
L -113.613531 85.861025 
L -110.854258 83.126122 
L -108.64323 77.82412 
L -104.384141 71.235127 
L -101.931454 70.894868 
L -100.150353 74.877137 
L -96.111902 87.46874 
L -92.261346 88.657319 
L -92.067126 93.627434 
L -97.482609 99.554514 
L -95.243118 101.7248 
L -82.516081 102.855522 
L -82.256376 110.072198 
L -76.787686 105.347649 
L -67.727402 107.935398 
L -55.769062 112.332525 
L -52.254858 116.551802 
L -53.435437 120.53742 
L -45.063297 118.318392 
L -31.051129 122.126532 
L -20.29439 121.845991 
L -9.650761 127.804697 
L -0.455415 135.870809 
L 5.090851 137.947706 
L 11.24787 138.236432 
L 13.857199 140.50755 
L 17.496047 154.031189 
L 14.628873 165.934091 
L 10.965841 170.634827 
L 0.817065 180.653192 
L -3.770004 188.792602 
L -9.099911 195.034454 
L -10.899987 195.175096 
L -12.911585 200.472261 
L -12.400547 213.962787 
L -15.172843 229.807773 
L -17.449355 232.64853 
L -18.725928 242.273617 
L -26.026134 251.672485 
L -27.250245 259.108682 
L -33.077982 262.228864 
L -34.763647 266.544508 
L -42.585867 266.527392 
L -53.912245 269.294107 
L -58.983378 272.49726 
L -67.047072 274.600574 
L -75.520601 280.333433 
L -81.615299 287.474579 
L -82.663235 292.850623 
L -81.466098 296.826566 
L -82.810947 304.100169 
L -84.444893 307.613629 
L -89.476772 311.576177 
L -97.465494 324.248148 
L -103.796828 329.959427 
L -108.691785 333.326664 
L -111.97512 340.175362 
L -116.738364 344.29232 
L -118.731917 340.214429 
L -115.557041 336.799196 
L -119.721252 331.900146 
L -132.778873 323.307926 
L -135.455361 323.518146 
L -142.675385 317.949742 
L -147.348961 318.717323 
L -137.742477 308.899876 
L -129.616462 301.909791 
L -118.718894 295.009003 
L -118.572113 289.259028 
L -122.184357 285.103003 
L -125.750093 286.482639 
L -123.36103 278.069758 
L -123.357309 274.111301 
L -125.948406 272.804963 
L -128.648893 273.969171 
L -131.33338 273.649934 
L -132.175003 270.878383 
L -132.844916 264.28046 
L -134.193299 262.129893 
L -139.055885 260.181361 
L -141.994869 261.591508 
L -149.595521 260.209266 
L -149.116853 250.435351 
L -151.246025 246.432247 
L -148.995372 244.943966 
L -149.687981 240.84003 
L -147.715264 237.685246 
L -146.436272 232.01415 
L -148.13682 227.537772 
L -152.069789 225.516314 
L -152.842021 222.675185 
L -151.784783 218.516927 
L -165.588406 218.219643 
L -168.357353 209.836155 
L -166.256272 209.715976 
L -166.35115 206.61105 
L -167.754227 204.508852 
L -168.071789 200.346874 
L -172.253673 198.211562 
L -176.783071 198.282256 
L -179.762982 196.19122 
L -184.630034 194.764703 
L -187.462791 192.074634 
L -195.525741 190.886242 
L -203.344427 184.437147 
L -202.765671 179.610279 
L -203.650826 176.842448 
L -202.884734 171.446312 
L -212.30574 172.665587 
L -216.099369 175.36905 
L -222.394985 178.286825 
L -224.001026 180.464552 
L -233.061682 180.012487 
L -237.123016 181.252597 
L -240.398537 180.425857 
L -239.917636 169.48885 
L -245.825368 173.73194 
L -252.179213 173.545905 
L -254.901838 169.705395 
L -259.680337 169.287932 
L -258.158755 166.1964 
L -262.159627 161.816016 
z
" clip-path="url(#pfd13a8202c)" style="fill: #e8edf4; stroke: #b8c5d4; stroke-width: 0.45"/>
    <path d="M 449.454425 228.863087 
L 457.501934 229.651504 
L 459.840768 230.480848 
L 462.271875 230.313789 
L 466.259353 225.65398 
L 472.520924 219.732481 
L 475.098255 219.16619 
L 475.973737 216.66997 
L 480.073207 213.80168 
L 485.526642 212.816066 
L 485.992474 215.502042 
L 491.998061 215.358795 
L 495.334787 216.87833 
L 496.886693 218.659802 
L 500.315321 219.182933 
L 504.054999 221.496467 
L 504.070998 230.609213 
L 502.667177 235.599048 
L 502.358359 240.979556 
L 503.515497 243.112263 
L 502.702152 247.350888 
L 501.61459 248.006104 
L 499.715915 253.198717 
L 492.130146 261.37087 
L 488.303031 260.651286 
L 485.87676 261.515605 
L 482.393066 260.295959 
L 479.463756 260.217452 
L 474.873525 256.964069 
L 469.305865 255.85902 
L 467.18804 251.292973 
L 467.170181 248.753221 
L 464.086834 247.978943 
L 455.938494 240.070217 
L 453.674819 235.903773 
L 452.225977 234.619386 
z
" clip-path="url(#pfd13a8202c)" style="fill: #e8edf4; stroke: #b8c5d4; stroke-width: 0.45"/>
    <path d="M 410.799296 258.47393 
L 417.896165 258.223155 
L 418.108617 232.575976 
L 423.46829 232.337851 
L 434.56938 229.817075 
L 437.32084 232.78508 
L 441.917025 229.963299 
L 444.101077 229.9473 
L 448.159992 228.325073 
L 449.454425 228.863087 
L 452.225977 234.619386 
L 453.674819 235.903773 
L 455.938494 240.070217 
L 464.086834 247.978943 
L 467.170181 248.753221 
L 467.18804 251.292973 
L 469.305865 255.85902 
L 474.873525 256.964069 
L 479.463756 260.217452 
L 469.276099 265.519826 
L 462.811749 270.895126 
L 460.414128 275.692972 
L 458.249423 278.397551 
L 454.331895 278.973888 
L 452.337598 284.665076 
L 447.733228 286.341625 
L 441.87312 285.985553 
L 438.433702 283.968932 
L 435.399097 283.094567 
L 431.886753 284.763302 
L 430.124628 288.212022 
L 423.114451 293.591043 
L 417.957185 294.325509 
L 416.350585 291.797664 
L 417.013987 287.410583 
L 412.745224 280.569326 
L 410.801529 279.48809 
z
" clip-path="url(#pfd13a8202c)" style="fill: #e8edf4; stroke: #b8c5d4; stroke-width: 0.45"/>
    <path d="M 352.038232 225.733603 
L 359.813385 223.137669 
L 364.481007 223.352725 
L 368.77321 226.608341 
L 369.861888 226.102325 
L 399.047827 225.791646 
L 404.036546 229.241482 
L 421.467668 230.260583 
L 440.595803 225.690071 
L 445.264913 226.104557 
L 448.106042 227.727528 
L 448.159992 228.325073 
L 444.101077 229.9473 
L 441.917025 229.963299 
L 437.32084 232.78508 
L 434.56938 229.817075 
L 423.46829 232.337851 
L 418.108617 232.575976 
L 417.896165 258.223155 
L 410.799296 258.47393 
L 410.794087 306.079955 
L 404.367317 309.761591 
L 400.499274 310.287326 
L 392.74198 308.401301 
L 391.528286 305.322792 
L 388.684925 303.351563 
L 385.235833 306.912276 
L 379.88509 301.47298 
L 377.067402 296.214883 
L 371.290638 272.901701 
L 371.129159 264.287901 
L 370.207541 260.360699 
L 367.406224 257.393066 
L 363.689986 251.444406 
L 358.333661 238.286511 
L 352.475414 231.257731 
z
" clip-path="url(#pfd13a8202c)" style="fill: #e8edf4; stroke: #b8c5d4; stroke-width: 0.45"/>
    <path d="M 140.651693 -4.892692 
L 143.818755 -6.260236 
L 147.306914 -11.314997 
L 149.017694 -15.01226 
L 151.483031 -17.32077 
L 155.061604 -16.699227 
L 158.574692 -18.268433 
L 162.595097 -18.347498 
L 166.035446 -16.230976 
L 170.814689 -14.323558 
L 179.922598 -4.081206 
L 180.25281 0.397962 
L 181.672445 4.521059 
L 184.367536 6.543261 
L 184.983126 9.327464 
L 184.651612 11.570489 
L 183.612233 11.976604 
L 179.686333 11.407337 
L 179.146087 12.208032 
L 177.558835 12.368952 
L 172.383709 10.613711 
L 155.602966 10.237175 
L 153.672665 11.047917 
L 151.288439 10.816117 
L 147.474346 11.989069 
L 146.293023 6.469964 
L 152.846669 6.621954 
L 158.535624 3.891516 
L 161.62418 5.412912 
L 164.752547 5.539788 
L 167.868264 3.9237 
L 166.413655 1.842711 
L 164.03966 3.055102 
L 161.805378 3.02143 
L 158.963505 1.249259 
L 156.680854 1.365345 
L 155.054906 3.070171 
L 147.213153 3.276298 
L 144.244031 -2.329313 
z
" clip-path="url(#pfd13a8202c)" style="fill: #e8edf4; stroke: #b8c5d4; stroke-width: 0.45"/>
    <path d="M 179.922598 -4.081206 
L 182.345706 -5.393498 
L 183.556237 -9.6351 
L 185.838516 -9.801043 
L 190.866302 -7.79577 
L 194.926705 -9.219497 
L 197.710163 -8.741573 
L 198.790283 -10.342778 
L 227.680241 -10.452166 
L 229.282004 -15.493347 
L 228.034638 -16.380735 
L 221.084737 -78.527453 
L 232.103971 -78.656933 
L 280.679239 -47.237828 
L 282.391134 -43.86408 
L 290.207959 -40.633766 
L 290.290559 -36.053022 
L 298.27742 -36.757909 
L 298.297512 -20.176038 
L 294.360636 -15.366843 
L 293.747464 -10.930463 
L 287.351948 -9.788579 
L 277.527803 -9.16964 
L 274.86564 -6.610912 
L 265.634948 -6.295025 
L 263.837848 -7.676336 
L 259.874183 -6.651468 
L 253.144547 -3.66486 
L 251.770864 -1.414206 
L 246.1846 1.813318 
L 245.205311 3.662879 
L 242.187821 5.128836 
L 238.705987 4.158105 
L 236.733084 5.915207 
L 235.676404 10.852952 
L 229.961218 16.820216 
L 230.127533 19.25895 
L 228.163932 22.310857 
L 228.64074 26.490695 
L 223.988745 28.466202 
L 222.874395 25.386762 
L 220.795452 26.19862 
L 219.553481 26.058163 
L 218.228353 28.159244 
L 212.668134 28.099899 
L 210.674953 27.018849 
L 209.736406 27.672948 
L 207.537284 25.597354 
L 207.919029 23.453299 
L 207.019363 22.61335 
L 205.485689 23.321586 
L 205.766602 20.979031 
L 207.242605 19.125749 
L 204.292087 16.109561 
L 203.434093 14.123822 
L 201.834191 12.541965 
L 200.393162 12.353139 
L 194.362461 15.882598 
L 191.280788 15.307378 
L 189.282027 13.47921 
L 188.088797 13.239039 
L 185.067586 14.206794 
L 184.651612 11.570489 
L 184.983126 9.327464 
L 184.367536 6.543261 
L 181.672445 4.521059 
L 180.25281 0.397962 
z
" clip-path="url(#pfd13a8202c)" style="fill: #e8edf4; stroke: #b8c5d4; stroke-width: 0.45"/>
    <path d="M 273.112817 25.770181 
L 274.028854 21.979156 
L 276.504982 21.164322 
L 277.971683 18.016422 
L 281.491096 17.343718 
L 285.481178 13.082025 
L 288.06223 13.063422 
L 293.552499 17.206797 
L 293.271958 19.598837 
L 294.891208 23.869832 
L 293.472504 26.768259 
L 294.231156 28.704885 
L 288.52062 35.369223 
L 287.163308 39.910713 
L 286.932252 56.096516 
L 280.981732 56.936465 
L 279.208445 51.969326 
L 279.536239 35.434149 
L 278.085908 33.950705 
L 277.812437 30.417153 
z
" clip-path="url(#pfd13a8202c)" style="fill: #e8edf4; stroke: #b8c5d4; stroke-width: 0.45"/>
    <path d="M 269.680654 -2.838492 
L 270.251224 -6.328139 
L 274.86564 -6.610912 
L 277.527803 -9.16964 
L 287.351948 -9.788579 
L 293.747464 -10.930463 
L 294.360636 -15.366843 
L 298.297512 -20.176038 
L 298.27742 -36.757909 
L 308.430475 -39.96869 
L 329.27683 -54.112757 
L 353.948441 -67.836012 
L 365.338257 -64.731644 
L 369.38787 -60.777281 
L 374.48136 -63.45324 
L 376.249591 -52.261335 
L 378.943632 -50.38884 
L 379.059466 -48.098985 
L 382.055376 -45.630856 
L 380.489332 -42.531697 
L 377.715176 -27.92124 
L 377.335664 -18.556602 
L 368.151624 -11.767464 
L 365.042833 -2.283363 
L 368.040232 0.383823 
L 368.024233 5.015169 
L 372.641625 5.180926 
L 371.921669 8.572347 
L 369.889421 8.985345 
L 369.657621 11.27767 
L 368.31854 11.43673 
L 363.446652 3.554235 
L 361.756708 3.26774 
L 356.126912 7.292239 
L 350.552183 5.191344 
L 346.677071 4.771277 
L 344.59943 5.782192 
L 340.378664 5.563786 
L 336.131482 8.632064 
L 332.45952 8.808053 
L 323.745633 5.086606 
L 320.333376 6.854126 
L 316.659182 6.731343 
L 313.959068 4.012067 
L 306.74202 1.325347 
L 299.004073 2.178133 
L 297.129211 3.735247 
L 296.116436 7.876017 
L 294.052562 10.779096 
L 293.552499 17.206797 
L 288.06223 13.063422 
L 285.481178 13.082025 
L 283.064209 15.19092 
L 283.227176 10.259872 
L 274.925543 8.626855 
L 274.701929 5.142603 
L 270.647479 0.441122 
z
" clip-path="url(#pfd13a8202c)" style="fill: #e8edf4; stroke: #b8c5d4; stroke-width: 0.45"/>
    <path d="M 286.932252 56.096516 
L 287.163308 39.910713 
L 288.52062 35.369223 
L 294.231156 28.704885 
L 293.472504 26.768259 
L 294.891208 23.869832 
L 293.271958 19.598837 
L 294.052562 10.779096 
L 296.116436 7.876017 
L 297.129211 3.735247 
L 299.004073 2.178133 
L 306.74202 1.325347 
L 313.959068 4.012067 
L 316.659182 6.731343 
L 320.333376 6.854126 
L 323.745633 5.086606 
L 332.45952 8.808053 
L 336.131482 8.632064 
L 340.378664 5.563786 
L 344.59943 5.782192 
L 346.677071 4.771277 
L 350.552183 5.191344 
L 356.126912 7.292239 
L 361.756708 3.26774 
L 363.446652 3.554235 
L 368.31854 11.43673 
L 369.657621 11.27767 
L 372.50768 14.145402 
L 371.342728 17.838944 
L 365.277238 23.410325 
L 362.358718 31.74749 
L 360.831369 33.352044 
L 359.378435 38.392108 
L 355.527879 41.358067 
L 354.412412 45.001379 
L 352.795023 47.901295 
L 352.121575 50.894043 
L 347.175273 53.320127 
L 343.133101 50.361424 
L 340.403593 50.480859 
L 336.115483 54.694927 
L 334.030773 54.759667 
L 328.754072 66.801723 
L 321.279179 69.392821 
L 318.546695 69.014239 
L 315.778119 70.627722 
L 310.018843 70.470336 
L 306.164195 65.966611 
L 303.793735 60.755022 
L 298.696371 56.011312 
z
" clip-path="url(#pfd13a8202c)" style="fill: #e8edf4; stroke: #b8c5d4; stroke-width: 0.45"/>
    <path d="M 328.671472 68.791555 
L 328.754072 66.801723 
L 330.606238 61.706406 
L 334.030773 54.759667 
L 336.115483 54.694927 
L 340.403593 50.480859 
L 343.133101 50.361424 
L 347.175273 53.320127 
L 352.121575 50.894043 
L 352.795023 47.901295 
L 354.412412 45.001379 
L 355.527879 41.358067 
L 359.378435 38.392108 
L 360.831369 33.352044 
L 362.358718 31.74749 
L 365.277238 23.410325 
L 371.342728 17.838944 
L 372.50768 14.145402 
L 369.657621 11.27767 
L 369.889421 8.985345 
L 371.921669 8.572347 
L 374.784192 13.18284 
L 375.265093 17.959867 
L 375.001667 22.742459 
L 378.920684 29.287175 
L 374.899348 29.216668 
L 372.867844 29.729381 
L 369.586556 29.006076 
L 368.022372 32.403636 
L 372.272159 36.605799 
L 375.407968 37.82805 
L 378.691861 45.771751 
L 373.943127 55.018814 
L 372.215233 56.325897 
L 371.659732 61.907324 
L 372.376339 64.939697 
L 371.796281 67.08524 
L 375.198865 70.845197 
L 375.812781 73.430155 
L 378.470851 77.145836 
L 381.763673 79.462531 
L 382.844537 84.832994 
L 382.326615 88.720757 
L 370.78425 85.119302 
L 360.801604 84.444367 
L 356.539538 85.371752 
L 352.163991 84.407346 
L 348.742433 84.880433 
L 337.025939 84.716164 
L 338.077409 79.031488 
L 335.263442 74.271406 
L 331.978433 73.050272 
L 330.515452 69.82405 
z
" clip-path="url(#pfd13a8202c)" style="fill: #e8edf4; stroke: #b8c5d4; stroke-width: 0.45"/>
    <path d="M 267.19355 24.070192 
L 267.723378 21.825491 
L 274.028854 21.979156 
L 273.112817 25.770181 
L 277.812437 30.417153 
L 278.085908 33.950705 
L 279.536239 35.434149 
L 279.208445 51.969326 
L 280.981732 56.936465 
L 275.184876 58.472371 
L 271.658766 51.376618 
L 271.086894 47.795441 
L 272.678611 41.310256 
L 270.872581 38.683997 
L 270.198576 27.783267 
z
" clip-path="url(#pfd13a8202c)" style="fill: #e8edf4; stroke: #b8c5d4; stroke-width: 0.45"/>
    <path d="M 244.192535 56.156605 
L 246.070188 48.026125 
L 249.104236 41.97868 
L 246.211947 26.31359 
L 246.381053 22.22863 
L 258.887824 21.889301 
L 262.068654 22.414107 
L 264.393349 21.251945 
L 267.723378 21.825491 
L 267.19355 24.070192 
L 270.198576 27.783267 
L 270.872581 38.683997 
L 272.678611 41.310256 
L 271.086894 47.795441 
L 271.658766 51.376618 
L 275.184876 58.472371 
L 263.897007 62.686997 
L 259.893903 65.156056 
L 253.406113 67.244673 
L 246.9879 65.199774 
L 247.314949 62.358831 
z
" clip-path="url(#pfd13a8202c)" style="fill: #e8edf4; stroke: #b8c5d4; stroke-width: 0.45"/>
    <path d="M 205.611262 54.593538 
L 207.176748 51.395035 
L 206.456792 47.914504 
L 206.789051 45.820492 
L 207.930935 45.812306 
L 208.355095 42.672033 
L 207.79885 41.281606 
L 208.486808 40.280737 
L 211.160877 39.414929 
L 209.382381 33.651188 
L 207.722761 30.67537 
L 208.300773 28.231054 
L 210.674953 27.018849 
L 212.668134 28.099899 
L 218.228353 28.159244 
L 219.553481 26.058163 
L 220.795452 26.19862 
L 222.874395 25.386762 
L 223.988745 28.466202 
L 228.64074 26.490695 
L 231.878496 28.06046 
L 233.136838 30.44171 
L 236.374222 31.961989 
L 238.892766 30.151123 
L 242.266327 29.877651 
L 247.194027 31.734282 
L 249.104236 41.97868 
L 246.070188 48.026125 
L 244.192535 56.156605 
L 247.314949 62.358831 
L 246.9879 65.199774 
L 243.712193 65.273072 
L 238.688499 63.865344 
L 234.072595 63.948502 
L 225.543627 65.205355 
L 213.415623 69.924323 
L 212.024452 69.735125 
L 212.577349 63.805255 
L 213.266051 62.903914 
L 213.046902 60.067064 
L 209.997413 57.051434 
L 207.710297 56.570161 
z
" clip-path="url(#pfd13a8202c)" style="fill: #e8edf4; stroke: #b8c5d4; stroke-width: 0.45"/>
    <path d="M 158.613759 21.669036 
L 161.815052 18.159669 
L 164.000221 18.293242 
L 165.877874 17.084758 
L 167.466242 17.073223 
L 168.601242 16.118863 
L 167.988443 13.732962 
L 168.777046 12.980264 
L 168.908573 10.539483 
L 172.383709 10.613711 
L 177.558835 12.368952 
L 179.146087 12.208032 
L 179.686333 11.407337 
L 183.612233 11.976604 
L 184.651612 11.570489 
L 185.067586 14.206794 
L 188.088797 13.239039 
L 189.282027 13.47921 
L 191.280788 15.307378 
L 194.362461 15.882598 
L 200.393162 12.353139 
L 201.834191 12.541965 
L 203.434093 14.123822 
L 204.292087 16.109561 
L 207.242605 19.125749 
L 205.766602 20.979031 
L 205.485689 23.321586 
L 207.019363 22.61335 
L 207.919029 23.453299 
L 207.537284 25.597354 
L 209.736406 27.672948 
L 208.300773 28.231054 
L 207.722761 30.67537 
L 209.382381 33.651188 
L 211.160877 39.414929 
L 208.486808 40.280737 
L 207.79885 41.281606 
L 208.355095 42.672033 
L 207.930935 45.812306 
L 204.75271 45.635945 
L 203.284335 48.534931 
L 201.248738 48.49977 
L 199.847893 46.966282 
L 200.323585 44.074552 
L 197.313536 39.664403 
L 191.912564 41.047946 
L 191.992931 38.408107 
L 190.837653 36.524315 
L 191.070755 34.431048 
L 187.506135 28.829715 
L 181.747603 28.821716 
L 180.069566 30.178284 
L 178.085315 30.341995 
L 176.025906 33.892476 
L 172.176838 37.05805 
L 166.218876 29.979598 
L 162.578168 27.615836 
L 161.76073 24.434634 
L 160.707213 22.848685 
z
" clip-path="url(#pfd13a8202c)" style="fill: #e8edf4; stroke: #b8c5d4; stroke-width: 0.45"/>
    <path d="M 147.474346 11.989069 
L 151.288439 10.816117 
L 153.672665 11.047917 
L 155.602966 10.237175 
L 168.908573 10.539483 
L 168.777046 12.980264 
L 167.988443 13.732962 
L 168.601242 16.118863 
L 167.466242 17.073223 
L 165.877874 17.084758 
L 164.000221 18.293242 
L 161.815052 18.159669 
L 158.613759 21.669036 
L 154.769901 18.658987 
L 151.738458 18.182923 
L 150.085535 16.153093 
L 150.127579 15.057346 
L 147.932365 13.52944 
z
" clip-path="url(#pfd13a8202c)" style="fill: #e8edf4; stroke: #b8c5d4; stroke-width: 0.45"/>
    <path d="M 185.192788 52.301399 
L 186.913427 49.997911 
L 187.295729 47.903714 
L 193.895326 40.63532 
L 197.313536 39.664403 
L 200.323585 44.074552 
L 199.847893 46.966282 
L 201.248738 48.49977 
L 203.284335 48.534931 
L 204.75271 45.635945 
L 206.789051 45.820492 
L 206.456792 47.914504 
L 207.176748 51.395035 
L 205.611262 54.593538 
L 207.710297 56.570161 
L 209.997413 57.051434 
L 213.046902 60.067064 
L 213.266051 62.903914 
L 212.577349 63.805255 
L 212.024452 69.735125 
L 210.138428 69.798563 
L 202.717486 66.366587 
L 196.175373 60.886363 
L 190.041236 56.946883 
z
" clip-path="url(#pfd13a8202c)" style="fill: #e8edf4; stroke: #b8c5d4; stroke-width: 0.45"/>
    <path d="M 172.176838 37.05805 
L 176.025906 33.892476 
L 178.085315 30.341995 
L 180.069566 30.178284 
L 181.747603 28.821716 
L 187.506135 28.829715 
L 191.070755 34.431048 
L 190.837653 36.524315 
L 191.992931 38.408107 
L 191.912564 41.047946 
L 193.895326 40.63532 
L 187.295729 47.903714 
L 186.913427 49.997911 
L 185.192788 52.301399 
L 183.252999 51.767292 
L 178.069688 48.866818 
L 174.318847 45.009751 
L 173.059017 42.379586 
z
" clip-path="url(#pfd13a8202c)" style="fill: #e8edf4; stroke: #b8c5d4; stroke-width: 0.45"/>
    <path d="M 228.163932 22.310857 
L 230.127533 19.25895 
L 229.961218 16.820216 
L 235.676404 10.852952 
L 236.733084 5.915207 
L 238.705987 4.158105 
L 242.187821 5.128836 
L 245.205311 3.662879 
L 246.1846 1.813318 
L 251.770864 -1.414206 
L 253.144547 -3.66486 
L 259.874183 -6.651468 
L 263.837848 -7.676336 
L 265.634948 -6.295025 
L 270.251224 -6.328139 
L 269.680654 -2.838492 
L 270.647479 0.441122 
L 274.701929 5.142603 
L 274.925543 8.626855 
L 283.227176 10.259872 
L 283.064209 15.19092 
L 281.491096 17.343718 
L 277.971683 18.016422 
L 276.504982 21.164322 
L 274.028854 21.979156 
L 264.393349 21.251945 
L 262.068654 22.414107 
L 258.887824 21.889301 
L 246.381053 22.22863 
L 246.211947 26.31359 
L 247.194027 31.734282 
L 242.266327 29.877651 
L 238.892766 30.151123 
L 236.374222 31.961989 
L 233.136838 30.44171 
L 231.878496 28.06046 
L 228.64074 26.490695 
z
" clip-path="url(#pfd13a8202c)" style="fill: #e8edf4; stroke: #b8c5d4; stroke-width: 0.45"/>
    <path d="M 371.659732 61.907324 
L 372.215233 56.325897 
L 373.943127 55.018814 
L 377.564115 47.722143 
L 383.516868 47.180967 
L 384.844043 45.328987 
L 386.036529 45.46963 
L 387.835116 47.100042 
L 396.899493 44.345419 
L 403.711357 39.017558 
L 402.99847 36.483015 
L 405.028858 35.821102 
L 411.981736 36.268517 
L 418.758252 32.932906 
L 423.963516 25.0772 
L 427.61613 22.162401 
L 432.173991 20.934755 
L 432.990314 24.015869 
L 437.14299 28.517362 
L 437.164198 31.455229 
L 435.994409 34.451511 
L 436.456893 36.689142 
L 448.379514 44.819251 
L 448.445742 47.159387 
L 453.287865 50.908925 
L 456.288613 54.024456 
L 458.106548 58.343634 
L 463.488545 61.193135 
L 464.646428 63.4756 
L 462.269271 64.239461 
L 452.235279 63.316168 
L 449.559349 63.933061 
L 448.479601 65.683838 
L 446.148208 65.899824 
L 443.307823 64.376755 
L 435.291941 67.97021 
L 432.010653 67.247091 
L 431.02169 67.802034 
L 428.868891 72.150048 
L 418.230656 70.035944 
L 413.64489 67.37992 
L 407.720042 64.933 
L 403.86465 67.251556 
L 401.061472 70.907147 
L 400.41407 75.928422 
L 395.783282 75.526586 
L 390.909906 74.316985 
L 386.618819 78.132566 
L 382.844537 84.832994 
L 381.763673 79.462531 
L 378.470851 77.145836 
L 375.812781 73.430155 
L 375.198865 70.845197 
L 371.796281 67.08524 
L 372.376339 64.939697 
z
" clip-path="url(#pfd13a8202c)" style="fill: #e8edf4; stroke: #b8c5d4; stroke-width: 0.45"/>
    <path d="M 347.427164 129.807551 
L 352.908876 125.833468 
L 350.193879 121.072457 
L 352.662938 119.261963 
L 357.52106 118.380156 
L 358.094048 115.189281 
L 361.941255 118.64693 
L 368.297332 118.949796 
L 370.506314 115.547585 
L 371.415281 110.760528 
L 370.630213 105.138918 
L 367.223909 100.880945 
L 370.341115 92.542105 
L 368.544015 91.111123 
L 363.186947 91.697878 
L 361.174418 87.977547 
L 361.697921 84.836901 
L 370.78425 85.119302 
L 382.326615 88.720757 
L 382.844537 84.832994 
L 386.618819 78.132566 
L 390.909906 74.316985 
L 395.783282 75.526586 
L 400.41407 75.928422 
L 399.987305 80.276807 
L 397.830785 84.126805 
L 396.423615 88.61881 
L 395.526182 94.999258 
L 395.903089 99.079753 
L 394.729579 101.578205 
L 394.550241 104.218788 
L 393.722757 106.515578 
L 388.982209 109.985878 
L 385.683062 113.694675 
L 382.556183 120.689224 
L 382.797284 126.612956 
L 372.546747 136.94572 
L 369.857051 135.670263 
L 369.395684 133.632062 
L 365.473691 133.560997 
L 363.011329 136.317294 
L 361.119724 135.583943 
L 358.42147 133.113768 
L 356.245975 134.324857 
L 353.339734 137.433505 
z
" clip-path="url(#pfd13a8202c)" style="fill: #e8edf4; stroke: #b8c5d4; stroke-width: 0.45"/>
    <path d="M 330.897569 109.16137 
L 331.128624 106.76933 
L 332.700621 104.467331 
L 335.900798 93.887139 
L 348.804569 93.544835 
L 348.742433 84.880433 
L 352.163991 84.407346 
L 356.539538 85.371752 
L 360.801604 84.444367 
L 361.697921 84.836901 
L 361.174418 87.977547 
L 363.186947 91.697878 
L 368.544015 91.111123 
L 370.341115 92.542105 
L 367.223909 100.880945 
L 370.630213 105.138918 
L 371.415281 110.760528 
L 370.506314 115.547585 
L 368.297332 118.949796 
L 361.941255 118.64693 
L 358.094048 115.189281 
L 357.52106 118.380156 
L 352.662938 119.261963 
L 350.193879 121.072457 
L 352.908876 125.833468 
L 347.427164 129.807551 
L 340.028174 122.540274 
L 335.269767 116.599055 
z
" clip-path="url(#pfd13a8202c)" style="fill: #e8edf4; stroke: #b8c5d4; stroke-width: 0.45"/>
    <path d="M 334.552415 92.801438 
L 337.025939 84.716164 
L 348.742433 84.880433 
L 348.804569 93.544835 
L 335.900798 93.887139 
z
" clip-path="url(#pfd13a8202c)" style="fill: #e8edf4; stroke: #b8c5d4; stroke-width: 0.45"/>
    <path d="M 425.144467 216.938233 
L 425.475982 194.028748 
L 440.468183 194.119533 
L 439.854639 191.634103 
L 440.927318 188.937338 
L 439.661906 185.560427 
L 440.480833 182.068548 
L 439.719949 179.833149 
L 442.203519 180.014347 
L 442.616517 182.25235 
L 445.990823 182.078593 
L 450.56245 182.742739 
L 452.968629 186.011749 
L 458.734231 187.015967 
L 463.135823 184.742989 
L 464.751352 188.515782 
L 470.268782 189.52186 
L 475.878859 196.552501 
L 481.38922 196.612032 
L 480.78721 188.848041 
L 478.811145 190.157356 
L 471.832222 186.074257 
L 474.002508 170.32266 
L 472.391072 167.147412 
L 474.443039 162.551227 
L 476.372968 161.690629 
L 486.04382 160.475447 
L 488.88007 161.208043 
L 491.88781 163.040967 
L 499.333427 165.458585 
L 503.419503 167.620313 
L 506.817993 170.832396 
L 508.648951 176.944023 
L 507.422236 178.89516 
L 505.974882 184.731827 
L 507.35824 190.697602 
L 505.092703 193.203868 
L 502.90679 199.892576 
L 506.692978 201.757392 
L 484.844265 207.691914 
L 485.526642 212.816066 
L 480.073207 213.80168 
L 475.973737 216.66997 
L 475.098255 219.16619 
L 472.520924 219.732481 
L 466.259353 225.65398 
L 462.271875 230.313789 
L 459.840768 230.480848 
L 457.501934 229.651504 
L 449.454425 228.863087 
L 445.264913 226.104557 
L 440.595803 225.690071 
L 434.700349 227.326436 
L 430.001845 222.82885 
z
" clip-path="url(#pfd13a8202c)" style="fill: #e8edf4; stroke: #b8c5d4; stroke-width: 0.45"/>
    <path d="M 351.360692 221.206624 
L 352.357468 214.875475 
L 354.841781 208.283878 
L 355.216456 205.193834 
L 357.552686 198.703439 
L 359.269046 195.752922 
L 365.714792 187.838242 
L 366.470839 182.504614 
L 366.093932 178.423747 
L 363.940761 175.849764 
L 360.25466 167.161923 
L 360.641241 165.665456 
L 362.854316 162.810932 
L 359.195748 151.035279 
L 355.588899 146.480022 
L 356.273508 145.080666 
L 363.856301 143.382537 
L 385.103004 143.477787 
L 388.945374 153.160545 
L 393.357384 159.253568 
L 398.118396 158.671278 
L 400.494065 157.658503 
L 404.472613 158.675371 
L 407.358018 152.679086 
L 411.823606 152.3978 
L 412.211675 151.150249 
L 415.885125 151.123088 
L 415.258187 153.717162 
L 423.994398 153.654282 
L 424.126483 158.18461 
L 425.585742 160.962487 
L 424.52497 165.302687 
L 425.05331 169.730696 
L 427.455024 172.402533 
L 427.069931 180.970568 
L 436.440894 179.408617 
L 439.719949 179.833149 
L 440.480833 182.068548 
L 439.661906 185.560427 
L 440.927318 188.937338 
L 439.854639 191.634103 
L 440.468183 194.119533 
L 425.475982 194.028748 
L 425.144467 216.938233 
L 430.001845 222.82885 
L 434.700349 227.326436 
L 421.467668 230.260583 
L 404.036546 229.241482 
L 399.047827 225.791646 
L 369.861888 226.102325 
L 368.77321 226.608341 
L 364.481007 223.352725 
L 359.813385 223.137669 
L 352.038232 225.733603 
z
" clip-path="url(#pfd13a8202c)" style="fill: #e8edf4; stroke: #b8c5d4; stroke-width: 0.45"/>
    <path d="M 353.339734 137.433505 
L 356.245975 134.324857 
L 358.42147 133.113768 
L 361.119724 135.583943 
L 358.499605 137.097153 
L 357.32163 138.948203 
L 357.096156 142.086988 
L 355.264825 142.8475 
z
" clip-path="url(#pfd13a8202c)" style="fill: #e8edf4; stroke: #b8c5d4; stroke-width: 0.45"/>
    <path d="M 146.293023 6.469964 
L 147.213153 3.276298 
L 155.054906 3.070171 
L 156.680854 1.365345 
L 158.963505 1.249259 
L 161.805378 3.02143 
L 164.03966 3.055102 
L 166.413655 1.842711 
L 167.868264 3.9237 
L 164.752547 5.539788 
L 161.62418 5.412912 
L 158.535624 3.891516 
L 152.846669 6.621954 
z
" clip-path="url(#pfd13a8202c)" style="fill: #e8edf4; stroke: #b8c5d4; stroke-width: 0.45"/>
    <path d="M 439.538253 39.097946 
L 444.221389 36.95373 
L 446.075465 30.526265 
L 448.053147 27.188928 
L 453.24456 26.200088 
L 458.188763 32.380342 
L 460.166444 32.998367 
L 462.762151 31.762316 
L 467.953564 32.009526 
L 468.942405 33.492787 
L 476.1115 33.492787 
L 476.35871 32.009526 
L 480.066862 30.64987 
L 480.808493 28.548584 
L 483.527804 27.065323 
L 489.584453 31.267896 
L 493.292606 30.526265 
L 496.877153 25.334852 
L 500.832515 21.37949 
L 500.21449 17.053312 
L 498.484019 14.952025 
L 502.810197 14.58121 
L 503.304617 12.974344 
L 506.641954 13.468764 
L 505.776719 18.783783 
L 506.641954 23.975196 
L 510.350107 26.818113 
L 511.215342 29.290215 
L 511.091737 32.874762 
L 512.088428 33.017146 
L 512.171856 38.631168 
L 511.0956 40.830048 
L 507.27456 41.007024 
L 504.822096 45.108216 
L 509.243688 45.623952 
L 512.89272 49.13316 
L 514.154304 52.012296 
L 517.442544 53.681616 
L 521.697651 61.5168 
L 512.388 70.560828 
L 507.96 73.872 
L 502.894224 73.855296 
L 497.09844 75.540456 
L 492.520032 73.93032 
L 489.555737 75.893964 
L 483.217201 71.109367 
L 481.507166 68.034206 
L 477.497365 69.557276 
L 474.168079 69.083444 
L 472.240755 70.292487 
L 469.007836 69.419424 
L 463.488545 61.193135 
L 458.106548 58.343634 
L 456.288613 54.024456 
L 453.287865 50.908925 
L 448.445742 47.159387 
L 448.379514 44.819251 
z
" clip-path="url(#pfd13a8202c)" style="fill: #e8edf4; stroke: #b8c5d4; stroke-width: 0.45"/>
   </g>
   <g id="PathCollection_1">
    <defs>
     <path id="m1db9d4be5e" d="M 0 2.12132 
C 0.562581 2.12132 1.102195 1.897805 1.5 1.5 
C 1.897805 1.102195 2.12132 0.562581 2.12132 0 
C 2.12132 -0.562581 1.897805 -1.102195 1.5 -1.5 
C 1.102195 -1.897805 0.562581 -2.12132 0 -2.12132 
C -0.562581 -2.12132 -1.102195 -1.897805 -1.5 -1.5 
C -1.897805 -1.102195 -2.12132 -0.562581 -2.12132 0 
C -2.12132 0.562581 -1.897805 1.102195 -1.5 1.5 
C -1.102195 1.897805 -0.562581 2.12132 0 2.12132 
z
" style="stroke: #ffffff; stroke-width: 0.5"/>
    </defs>
    <g clip-path="url(#pfd13a8202c)">
     <use xlink:href="#m1db9d4be5e" x="148.272" y="4.2" style="fill: #8aa0b7; stroke: #ffffff; stroke-width: 0.5"/>
     <use xlink:href="#m1db9d4be5e" x="339.552" y="86.76" style="fill: #8aa0b7; stroke: #ffffff; stroke-width: 0.5"/>
     <use xlink:href="#m1db9d4be5e" x="159.552" y="14.76" style="fill: #8aa0b7; stroke: #ffffff; stroke-width: 0.5"/>
     <use xlink:href="#m1db9d4be5e" x="226.512" y="216" style="fill: #8aa0b7; stroke: #ffffff; stroke-width: 0.5"/>
     <use xlink:href="#m1db9d4be5e" x="317.952" y="93.96" style="fill: #8aa0b7; stroke: #ffffff; stroke-width: 0.5"/>
     <use xlink:href="#m1db9d4be5e" x="275.952" y="43.56" style="fill: #8aa0b7; stroke: #ffffff; stroke-width: 0.5"/>
    </g>
   </g>
   <g id="PathCollection_2">
    <defs>
     <path id="m39d2987dcb" d="M 0 3.674235 
C 0.974418 3.674235 1.909058 3.287094 2.598076 2.598076 
C 3.287094 1.909058 3.674235 0.974418 3.674235 0 
C 3.674235 -0.974418 3.287094 -1.909058 2.598076 -2.598076 
C 1.909058 -3.287094 0.974418 -3.674235 0 -3.674235 
C -0.974418 -3.674235 -1.909058 -3.287094 -2.598076 -2.598076 
C -3.287094 -1.909058 -3.674235 -0.974418 -3.674235 0 
C -3.674235 0.974418 -3.287094 1.909058 -2.598076 2.598076 
C -1.909058 3.287094 -0.974418 3.674235 0 3.674235 
z
" style="stroke: #ffffff; stroke-width: 1.2"/>
    </defs>
    <g clip-path="url(#pfd13a8202c)">
     <use xlink:href="#m39d2987dcb" x="226.512" y="216" style="fill: #f97316; stroke: #ffffff; stroke-width: 1.2"/>
    </g>
   </g>
   <g id="PathCollection_3">
    <path d="M 226.512 220.929503 
C 227.819319 220.929503 229.073271 220.410099 229.997685 219.485685 
C 230.922099 218.561271 231.441503 217.307319 231.441503 216 
C 231.441503 214.692681 230.922099 213.438729 229.997685 212.514315 
C 229.073271 211.589901 227.819319 211.070497 226.512 211.070497 
C 225.204681 211.070497 223.950729 211.589901 223.026315 212.514315 
C 222.101901 213.438729 221.582497 214.692681 221.582497 216 
C 221.582497 217.307319 222.101901 218.561271 223.026315 219.485685 
C 223.950729 220.410099 225.204681 220.929503 226.512 220.929503 
L 226.512 220.929503 
z
" clip-path="url(#pfd13a8202c)" style="fill: none; stroke: #7c2d12; stroke-width: 1.1"/>
   </g>
  </g>
 </g>
 <defs>
  <clipPath id="pfd13a8202c">
   <rect x="0" y="0" width="453.024" height="432"/>
  </clipPath>
 </defs>
</svg>
