<?xml version="1.0" encoding="utf-8" standalone="no"?>
<!DOCTYPE svg PUBLIC "-//W3C//DTD SVG 1.1//EN"
  "http://www.w3.org/Graphics/SVG/1.1/DTD/svg11.dtd">
<svg xmlns:xlink="http://www.w3.org/1999/xlink" width="576pt" height="232.497369pt" viewBox="0 0 576 232.497369" xmlns="http://www.w3.org/2000/svg" version="1.1">
 <metadata>
  <rdf:RDF xmlns:dc="http://purl.org/dc/elements/1.1/" xmlns:cc="http://creativecommons.org/ns#" xmlns:rdf="http://www.w3.org/1999/02/22-rdf-syntax-ns#">
   <cc:Work>
    <dc:type rdf:resource="http://purl.org/dc/dcmitype/StillImage"/>
    <dc:date>2026-06-09T04:56:56.321492</dc:date>
    <dc:format>image/svg+xml</dc:format>
    <dc:creator>
     <cc:Agent>
      <dc:title>Matplotlib v3.10.8, https://matplotlib.org/</dc:title>
     </cc:Agent>
    </dc:creator>
   </cc:Work>
  </rdf:RDF>
 </metadata>
 <defs>
  <style type="text/css">*{stroke-linejoin: round; stroke-linecap: butt}</style>
 </defs>
 <g id="figure_1">
  <g id="patch_1">
   <path d="M 0 232.497369 
L 576 232.497369 
L 576 0 
L 0 0 
z
" style="fill: #eaf3ff"/>
  </g>
  <g id="axes_1">
   <g id="PatchCollection_1">
    <path d="M 296.105419 15.694001 
L 297.408998 11.950001 
L 301.319735 13.859896 
L 307.049419 14.617791 
L 307.26163 15.769791 
L 305.563946 18.528527 
L 296.256998 18.922633 
z
" clip-path="url(#p6b9f4d240d)" style="fill: #e8edf4; stroke: #b8c5d4; stroke-width: 0.45"/>
    <path d="M -1211.923212 262.813159 
L -1211.923212 230.759547 
L -1206.215824 227.279487 
L -1195.290587 229.180414 
L -1188.183965 227.036035 
L -1186.63913 227.149145 
L -1177.86344 229.673896 
L -1168.808737 226.804177 
L -1150.99589 225.734808 
L -1133.236152 229.893222 
L -1116.017051 231.437588 
L -1102.360582 233.338515 
L -1078.966524 234.764445 
L -1061.509925 233.101016 
L -1035.74057 234.289135 
L -1021.134265 236.190062 
L -988.239484 232.744456 
L -986.933243 229.893222 
L -1010.802616 229.65541 
L -1030.396701 228.229794 
L -1035.503072 225.853557 
L -1051.772179 224.546689 
L -1050.70328 221.814205 
L -1046.190655 217.061731 
L -1047.378303 214.566745 
L -1057.47214 212.90363 
L -1062.103671 210.764891 
L -1071.485013 208.863965 
L -1056.759645 209.220525 
L -1042.746928 208.269905 
L -1033.959176 210.289895 
L -1023.152844 208.507717 
L -1013.177443 206.250229 
L -1008.308722 204.230553 
L -1010.446212 201.735567 
L -1027.190316 198.290275 
L -1062.341326 196.508097 
L -1066.259892 194.250604 
L -1074.097338 192.349678 
L -1078.847618 190.210939 
L -1080.747605 183.320354 
L -1072.316414 185.815653 
L -1052.721859 184.389723 
L -1047.734394 187.003458 
L -1038.115397 186.409712 
L -1022.440349 183.439416 
L -1015.552583 181.41974 
L -1006.408892 180.825681 
L -1006.646077 178.568193 
L -1008.783724 176.311019 
L -1007.002481 174.17228 
L -999.164722 173.102911 
L -995.60209 175.1229 
L -986.339498 173.934782 
L -979.332983 172.390103 
L -962.470286 171.677294 
L -940.382156 167.637942 
L -931.475811 168.4695 
L -922.450883 167.637942 
L -914.375626 168.706998 
L -906.06287 168.588249 
L -898.106518 167.756692 
L -880.887418 168.94481 
L -854.643223 168.94481 
L -846.33031 168.706998 
L -840.155505 166.924821 
L -832.792743 165.974514 
L -825.192639 167.281382 
L -817.948625 166.212012 
L -811.417264 164.073587 
L -807.498384 165.974514 
L -805.360899 168.112939 
L -801.441863 170.132928 
L -795.148157 168.350751 
L -787.9043 170.607925 
L -779.71045 171.320734 
L -772.704092 172.984162 
L -764.153838 172.627914 
L -756.434985 171.558545 
L -747.290985 171.796044 
L -730.784536 173.69697 
L -727.578151 171.083235 
L -734.465917 166.924821 
L -742.303363 166.449824 
L -745.747089 164.192336 
L -749.190815 157.4205 
L -744.559754 158.252058 
L -736.603402 158.608305 
L -728.765486 158.252058 
L -721.640379 159.202364 
L -715.465109 160.984542 
L -712.852783 163.122967 
L -704.658777 163.479528 
L -681.027064 160.747044 
L -674.852106 162.17266 
L -666.777006 161.69735 
L -661.551885 157.063939 
L -656.683169 159.796424 
L -649.676498 160.865793 
L -642.076237 160.271734 
L -637.088771 162.64797 
L -621.769657 163.598277 
L -614.525801 164.905145 
L -609.775521 162.64797 
L -607.40085 160.509232 
L -601.344329 162.885469 
L -593.031573 162.29141 
L -586.856303 163.598277 
L -582.700081 165.617953 
L -574.624981 165.024207 
L -562.156004 162.17266 
L -538.524134 159.796424 
L -532.586519 158.489556 
L -529.024043 156.588629 
L -527.599053 153.974894 
L -528.311548 151.479908 
L -535.792903 142.212772 
L -536.14915 139.836535 
L -535.555405 137.460612 
L -530.330284 132.708138 
L -529.380447 130.332215 
L -531.280278 125.342243 
L -528.311548 122.609758 
L -521.067692 118.570406 
L -512.042441 114.887302 
L -509.667301 112.273576 
L -506.342324 110.610148 
L -502.542193 109.065469 
L -496.723327 108.709221 
L -492.923197 106.808294 
L -488.648226 105.620176 
L -483.660761 104.907368 
L -479.266884 103.362688 
L -475.822845 101.461761 
L -471.072878 100.748953 
L -467.510403 102.293632 
L -469.766794 104.313308 
L -475.941594 106.095486 
L -478.554389 107.402354 
L -483.067015 106.451733 
L -488.05448 107.045793 
L -496.604578 110.016089 
L -499.573464 111.798266 
L -500.404708 114.174493 
L -500.048617 116.431668 
L -497.198637 118.451344 
L -501.354858 119.877274 
L -507.054975 120.352271 
L -517.742715 126.886922 
L -518.692551 129.144096 
L -516.555066 131.638769 
L -513.348682 133.540009 
L -503.729998 136.866553 
L -501.235952 139.242476 
L -498.148474 143.876201 
L -495.298337 145.895877 
L -493.517256 148.153051 
L -492.686012 153.737396 
L -490.904461 155.99457 
L -490.42962 158.370807 
L -488.529477 160.747044 
L -489.360721 163.954838 
L -496.248487 168.4695 
L -504.323588 169.301058 
L -507.054975 171.439796 
L -510.7362 173.459472 
L -519.880356 175.716646 
L -543.749411 179.281002 
L -548.618127 181.775988 
L -588.875352 182.251298 
L -586.975208 184.627535 
L -577.712616 185.696277 
L -570.9436 187.359706 
L -567.143469 189.498131 
L -573.912486 191.399058 
L -584.362727 190.804998 
L -593.031573 192.349678 
L -593.625319 197.220905 
L -586.500212 199.240581 
L -585.194127 201.497756 
L -577.474961 203.755243 
L -564.649893 204.705863 
L -534.011509 210.170832 
L -518.930206 211.121452 
L -504.086089 212.784567 
L -482.473269 216.586734 
L -476.535653 219.437968 
L -473.566924 221.695456 
L -466.204005 219.556717 
L -445.659927 215.873613 
L -422.265713 212.665818 
L -407.184097 212.547069 
L -392.340137 213.378627 
L -380.108658 214.804557 
L -376.189778 212.190822 
L -367.75843 210.408644 
L -352.43916 210.289895 
L -329.044945 207.675846 
L -303.038248 205.774919 
L -293.65675 204.230553 
L -297.931877 202.091815 
L -300.544516 199.95339 
L -300.544516 197.696215 
L -312.300998 197.933714 
L -324.769975 198.884021 
L -336.645206 198.884021 
L -338.307694 196.626846 
L -337.47645 192.112179 
L -334.745219 190.804998 
L -315.863473 187.954078 
L -301.138262 184.389723 
L -295.675643 182.013486 
L -275.012659 179.637562 
L -265.631317 179.399751 
L -256.724816 178.568193 
L -241.880855 175.954458 
L -226.799396 172.627914 
L -215.75541 168.825748 
L -213.974172 166.449824 
L -220.386627 165.024207 
L -218.249142 162.529221 
L -214.211514 160.627981 
L -201.267383 158.014246 
L -195.092269 156.113319 
L -190.342146 153.737396 
L -187.373416 150.885849 
L -182.979697 149.22242 
L -175.735683 149.578981 
L -172.766954 151.598657 
L -165.522941 151.836155 
L -165.285442 149.578981 
L -162.197964 147.202744 
L -155.666446 147.796803 
L -154.122706 150.054291 
L -146.879007 150.410539 
L -131.441144 148.628361 
L -124.553378 148.984922 
L -121.941053 151.479908 
L -115.290785 149.460232 
L -95.459046 146.727434 
L -82.515072 144.351511 
L -77.289795 143.044643 
L -73.608571 140.905905 
L -69.096102 142.450584 
L -62.802396 141.618713 
L -54.964637 146.608685 
L -48.076871 145.420567 
L -45.34564 143.044643 
L -39.170369 141.381215 
L -31.214174 141.737462 
L -28.838877 143.99495 
L -23.851412 141.737462 
L -17.319894 141.024654 
L -3.782174 140.905905 
L 9.518047 141.975274 
L 12.368027 143.99495 
L 16.287063 145.777127 
L 22.937017 144.707758 
L 43.71875 144.351511 
L 56.187727 142.806831 
L 61.53144 141.143403 
L 73.406671 139.480288 
L 78.038202 137.816859 
L 81.363179 134.490316 
L 84.806905 132.470953 
L 91.100925 133.420947 
L 93.475909 135.559685 
L 98.701186 136.985302 
L 104.994892 136.509992 
L 109.269863 138.648417 
L 113.782645 140.193096 
L 119.957915 138.767479 
L 122.0954 136.153431 
L 127.557863 135.084375 
L 133.851882 133.064699 
L 146.914605 131.045023 
L 161.402318 127.005671 
L 167.102279 127.718479 
L 176.483777 123.916626 
L 182.184051 124.035375 
L 187.171516 122.609758 
L 188.359008 120.471333 
L 193.465536 118.807905 
L 198.453002 117.619786 
L 210.090734 116.194169 
L 221.134721 117.144476 
L 226.003751 118.807905 
L 226.597183 121.42164 
L 235.622434 125.104744 
L 242.866761 125.817553 
L 251.891698 129.144096 
L 257.710408 129.500657 
L 262.579124 128.312539 
L 267.804715 125.817553 
L 273.504675 127.124107 
L 285.142408 128.550037 
L 297.136388 129.025347 
L 302.123854 135.321873 
L 301.886355 136.866553 
L 301.17386 139.599037 
L 295.35515 141.143403 
L 290.604557 143.400891 
L 291.436114 145.777127 
L 298.205131 145.658065 
L 297.373573 148.034302 
L 291.436114 152.786775 
L 296.067646 154.687702 
L 303.073847 155.281762 
L 310.080362 154.212392 
L 313.405339 151.836155 
L 315.424388 149.578981 
L 322.549339 145.895877 
L 324.093078 143.757138 
L 327.299619 140.787155 
L 337.987045 139.955598 
L 350.218524 138.292169 
L 353.187253 135.915933 
L 354.968804 133.658445 
L 359.125025 131.401584 
L 370.169012 128.6691 
L 373.494303 126.64911 
L 381.331748 124.629434 
L 387.38827 125.223493 
L 398.788191 123.916626 
L 405.438458 124.272873 
L 409.832178 122.609758 
L 412.91997 118.570093 
L 418.025871 123.085068 
L 423.132399 124.272873 
L 428.951422 124.748183 
L 434.770445 124.035375 
L 446.645363 124.629434 
L 450.44565 124.035375 
L 455.551864 124.391936 
L 460.183396 125.698803 
L 465.645858 124.867246 
L 472.177376 124.867246 
L 477.7589 124.035375 
L 484.052294 124.867246 
L 491.177558 120.827581 
L 495.334092 119.164152 
L 502.934353 114.64949 
L 511.484294 117.144476 
L 523.240775 122.966006 
L 534.759759 123.085068 
L 547.822482 121.540389 
L 556.966482 118.095096 
L 563.735498 117.857285 
L 568.24828 116.550417 
L 572.998248 117.738535 
L 580.360697 121.540389 
L 587.01065 121.302891 
L 591.167185 122.847257 
L 598.411198 124.391936 
L 606.011146 124.985995 
L 612.305165 124.510685 
L 621.092918 120.708831 
L 626.55538 120.233521 
L 638.311549 121.659138 
L 644.011822 120.708831 
L 649.474911 120.708831 
L 660.399836 121.89695 
L 672.393816 119.877274 
L 685.456539 119.639462 
L 696.500525 118.570406 
L 698.163014 115.60011 
L 698.400512 113.105124 
L 702.200486 114.768239 
L 703.269542 117.501037 
L 705.287965 119.996023 
L 707.782011 122.015699 
L 712.888539 123.085068 
L 746.851743 122.134448 
L 761.576641 122.847257 
L 765.851925 124.748183 
L 764.664433 127.005671 
L 768.58347 128.787849 
L 781.883377 131.758145 
L 804.090414 134.727814 
L 810.977866 134.84719 
L 814.896902 132.826887 
L 830.215859 137.816859 
L 844.584823 139.123727 
L 847.553866 141.499964 
L 854.441318 142.925581 
L 859.072536 145.064319 
L 865.841553 146.014626 
L 886.623285 146.133375 
L 893.866672 146.608685 
L 900.636315 147.440243 
L 913.223728 150.054291 
L 917.499012 151.836155 
L 916.786203 154.212392 
L 913.579975 156.351131 
L 905.860965 163.717026 
L 897.904771 164.667646 
L 894.341982 166.806072 
L 886.504223 168.112939 
L 883.773305 170.489176 
L 875.223051 174.64759 
L 871.185266 179.399751 
L 870.591206 182.132549 
L 870.710269 184.389723 
L 874.153995 186.765646 
L 875.460549 189.023134 
L 878.310843 191.161873 
L 889.592328 191.993117 
L 891.966998 194.607165 
L 871.779325 196.864345 
L 860.260341 197.102156 
L 855.153813 200.547449 
L 854.085071 203.398683 
L 848.266361 207.913658 
L 856.341305 209.933334 
L 859.429097 212.42832 
L 864.653748 214.685494 
L 872.01651 216.705484 
L 889.592328 220.507337 
L 903.486295 222.408264 
L 906.573147 225.37856 
L 924.029903 226.685428 
L 929.730177 228.942602 
L 946.474124 227.398236 
L 970.81363 230.759547 
L 970.81363 262.813159 
z
" clip-path="url(#p6b9f4d240d)" style="fill: #e8edf4; stroke: #b8c5d4; stroke-width: 0.45"/>
    <path d="M -575.368181 151.62247 
L -568.718071 149.246238 
L -564.56185 148.533424 
L -557.555178 148.770923 
L -555.774097 145.681877 
L -555.536599 138.55348 
L -552.092873 135.701933 
L -546.511348 134.751627 
L -543.30512 137.008801 
L -537.248599 144.612822 
L -535.58611 147.345306 
L -534.873615 150.07779 
L -537.604846 154.711515 
L -551.499127 156.731191 
L -559.455478 156.612442 
L -556.486749 154.236205 
L -570.380716 155.899633 
L -575.01209 154.117456 
z
" clip-path="url(#p6b9f4d240d)" style="fill: #e8edf4; stroke: #b8c5d4; stroke-width: 0.45"/>
    <path d="M -448.961248 206.022757 
L -447.892506 203.527771 
L -434.948532 201.864656 
L -429.723255 199.84498 
L -423.19205 194.973752 
L -415.591789 190.340346 
L -412.504311 190.340655 
L -403.47906 189.033474 
L -394.335217 190.340655 
L -386.853705 192.954076 
L -384.241223 196.637186 
L -383.29123 202.339966 
L -402.529067 205.785259 
L -426.635776 208.398994 
L -441.00474 208.042747 
z
" clip-path="url(#p6b9f4d240d)" style="fill: #e8edf4; stroke: #b8c5d4; stroke-width: 0.45"/>
    <path d="M -1113.171927 193.66689 
L -1109.491016 191.409397 
L -1098.209374 192.360331 
L -1092.152853 194.260944 
L -1087.521792 196.399374 
L -1085.859146 199.132172 
L -1097.496879 199.963729 
L -1105.453231 197.824991 
L -1109.253361 195.330005 
z
" clip-path="url(#p6b9f4d240d)" style="fill: #e8edf4; stroke: #b8c5d4; stroke-width: 0.45"/>
    <path d="M -522.481715 203.732371 
L -495.762681 204.563615 
L -488.043514 199.930204 
L -481.749808 202.42519 
L -485.312283 208.24672 
L -498.019072 207.415162 
L -511.556478 207.77141 
L -519.156895 205.751734 
z
" clip-path="url(#p6b9f4d240d)" style="fill: #e8edf4; stroke: #b8c5d4; stroke-width: 0.45"/>
    <path d="M -741.002135 153.034618 
L -737.202005 151.965244 
L -714.045445 154.103983 
L -707.395334 153.391174 
L -703.832702 156.836467 
L -708.582669 156.36147 
L -731.620793 156.717718 
L -737.795594 155.5296 
z
" clip-path="url(#p6b9f4d240d)" style="fill: #e8edf4; stroke: #b8c5d4; stroke-width: 0.45"/>
    <path d="M -864.029729 163.727684 
L -862.72318 161.70769 
L -847.641721 163.727366 
L -840.398016 162.657997 
L -843.841743 164.796735 
L -849.541708 166.341101 
L -857.973213 165.866104 
z
" clip-path="url(#p6b9f4d240d)" style="fill: #e8edf4; stroke: #b8c5d4; stroke-width: 0.45"/>
    <path d="M -892.292504 162.539252 
L -887.898789 161.23238 
L -872.579675 165.034234 
L -883.980223 164.202676 
z
" clip-path="url(#p6b9f4d240d)" style="fill: #e8edf4; stroke: #b8c5d4; stroke-width: 0.45"/>
   </g>
   <g id="PathCollection_1">
    <defs>
     <path id="m724501f071" d="M 0 2.12132 
C 0.562581 2.12132 1.102195 1.897805 1.5 1.5 
C 1.897805 1.102195 2.12132 0.562581 2.12132 0 
C 2.12132 -0.562581 1.897805 -1.102195 1.5 -1.5 
C 1.102195 -1.897805 0.562581 -2.12132 0 -2.12132 
C -0.562581 -2.12132 -1.102195 -1.897805 -1.5 -1.5 
C -1.897805 -1.102195 -2.12132 -0.562581 -2.12132 0 
C -2.12132 0.562581 -1.897805 1.102195 -1.5 1.5 
C -1.102195 1.897805 -0.562581 2.12132 0 2.12132 
z
" style="stroke: #ffffff; stroke-width: 0.5"/>
    </defs>
    <g clip-path="url(#p6b9f4d240d)">
     <use xlink:href="#m724501f071" x="319.125209" y="39.082633" style="fill: #8aa0b7; stroke: #ffffff; stroke-width: 0.5"/>
     <use xlink:href="#m724501f071" x="298.815651" y="15.739475" style="fill: #8aa0b7; stroke: #ffffff; stroke-width: 0.5"/>
    </g>
   </g>
   <g id="PatchCollection_2">
    <path d="M -1211.923212 262.813159 
L -1211.923212 230.759547 
L -1206.215824 227.279487 
L -1195.290587 229.180414 
L -1188.183965 227.036035 
L -1186.63913 227.149145 
L -1177.86344 229.673896 
L -1168.808737 226.804177 
L -1150.99589 225.734808 
L -1133.236152 229.893222 
L -1116.017051 231.437588 
L -1102.360582 233.338515 
L -1078.966524 234.764445 
L -1061.509925 233.101016 
L -1035.74057 234.289135 
L -1021.134265 236.190062 
L -988.239484 232.744456 
L -986.933243 229.893222 
L -1010.802616 229.65541 
L -1030.396701 228.229794 
L -1035.503072 225.853557 
L -1051.772179 224.546689 
L -1050.70328 221.814205 
L -1046.190655 217.061731 
L -1047.378303 214.566745 
L -1057.47214 212.90363 
L -1062.103671 210.764891 
L -1071.485013 208.863965 
L -1056.759645 209.220525 
L -1042.746928 208.269905 
L -1033.959176 210.289895 
L -1023.152844 208.507717 
L -1013.177443 206.250229 
L -1008.308722 204.230553 
L -1010.446212 201.735567 
L -1027.190316 198.290275 
L -1062.341326 196.508097 
L -1066.259892 194.250604 
L -1074.097338 192.349678 
L -1078.847618 190.210939 
L -1080.747605 183.320354 
L -1072.316414 185.815653 
L -1052.721859 184.389723 
L -1047.734394 187.003458 
L -1038.115397 186.409712 
L -1022.440349 183.439416 
L -1015.552583 181.41974 
L -1006.408892 180.825681 
L -1006.646077 178.568193 
L -1008.783724 176.311019 
L -1007.002481 174.17228 
L -999.164722 173.102911 
L -995.60209 175.1229 
L -986.339498 173.934782 
L -979.332983 172.390103 
L -962.470286 171.677294 
L -940.382156 167.637942 
L -931.475811 168.4695 
L -922.450883 167.637942 
L -914.375626 168.706998 
L -906.06287 168.588249 
L -898.106518 167.756692 
L -880.887418 168.94481 
L -854.643223 168.94481 
L -846.33031 168.706998 
L -840.155505 166.924821 
L -832.792743 165.974514 
L -825.192639 167.281382 
L -817.948625 166.212012 
L -811.417264 164.073587 
L -807.498384 165.974514 
L -805.360899 168.112939 
L -801.441863 170.132928 
L -795.148157 168.350751 
L -787.9043 170.607925 
L -779.71045 171.320734 
L -772.704092 172.984162 
L -764.153838 172.627914 
L -756.434985 171.558545 
L -747.290985 171.796044 
L -730.784536 173.69697 
L -727.578151 171.083235 
L -734.465917 166.924821 
L -742.303363 166.449824 
L -745.747089 164.192336 
L -749.190815 157.4205 
L -744.559754 158.252058 
L -736.603402 158.608305 
L -728.765486 158.252058 
L -721.640379 159.202364 
L -715.465109 160.984542 
L -712.852783 163.122967 
L -704.658777 163.479528 
L -681.027064 160.747044 
L -674.852106 162.17266 
L -666.777006 161.69735 
L -661.551885 157.063939 
L -656.683169 159.796424 
L -649.676498 160.865793 
L -642.076237 160.271734 
L -637.088771 162.64797 
L -621.769657 163.598277 
L -614.525801 164.905145 
L -609.775521 162.64797 
L -607.40085 160.509232 
L -601.344329 162.885469 
L -593.031573 162.29141 
L -586.856303 163.598277 
L -582.700081 165.617953 
L -574.624981 165.024207 
L -562.156004 162.17266 
L -538.524134 159.796424 
L -532.586519 158.489556 
L -529.024043 156.588629 
L -527.599053 153.974894 
L -528.311548 151.479908 
L -535.792903 142.212772 
L -536.14915 139.836535 
L -535.555405 137.460612 
L -530.330284 132.708138 
L -529.380447 130.332215 
L -531.280278 125.342243 
L -528.311548 122.609758 
L -521.067692 118.570406 
L -512.042441 114.887302 
L -509.667301 112.273576 
L -506.342324 110.610148 
L -502.542193 109.065469 
L -496.723327 108.709221 
L -492.923197 106.808294 
L -488.648226 105.620176 
L -483.660761 104.907368 
L -479.266884 103.362688 
L -475.822845 101.461761 
L -471.072878 100.748953 
L -467.510403 102.293632 
L -469.766794 104.313308 
L -475.941594 106.095486 
L -478.554389 107.402354 
L -483.067015 106.451733 
L -488.05448 107.045793 
L -496.604578 110.016089 
L -499.573464 111.798266 
L -500.404708 114.174493 
L -500.048617 116.431668 
L -497.198637 118.451344 
L -501.354858 119.877274 
L -507.054975 120.352271 
L -517.742715 126.886922 
L -518.692551 129.144096 
L -516.555066 131.638769 
L -513.348682 133.540009 
L -503.729998 136.866553 
L -501.235952 139.242476 
L -498.148474 143.876201 
L -495.298337 145.895877 
L -493.517256 148.153051 
L -492.686012 153.737396 
L -490.904461 155.99457 
L -490.42962 158.370807 
L -488.529477 160.747044 
L -489.360721 163.954838 
L -496.248487 168.4695 
L -504.323588 169.301058 
L -507.054975 171.439796 
L -510.7362 173.459472 
L -519.880356 175.716646 
L -543.749411 179.281002 
L -548.618127 181.775988 
L -588.875352 182.251298 
L -586.975208 184.627535 
L -577.712616 185.696277 
L -570.9436 187.359706 
L -567.143469 189.498131 
L -573.912486 191.399058 
L -584.362727 190.804998 
L -593.031573 192.349678 
L -593.625319 197.220905 
L -586.500212 199.240581 
L -585.194127 201.497756 
L -577.474961 203.755243 
L -564.649893 204.705863 
L -534.011509 210.170832 
L -518.930206 211.121452 
L -504.086089 212.784567 
L -482.473269 216.586734 
L -476.535653 219.437968 
L -473.566924 221.695456 
L -466.204005 219.556717 
L -445.659927 215.873613 
L -422.265713 212.665818 
L -407.184097 212.547069 
L -392.340137 213.378627 
L -380.108658 214.804557 
L -376.189778 212.190822 
L -367.75843 210.408644 
L -352.43916 210.289895 
L -329.044945 207.675846 
L -303.038248 205.774919 
L -293.65675 204.230553 
L -297.931877 202.091815 
L -300.544516 199.95339 
L -300.544516 197.696215 
L -312.300998 197.933714 
L -324.769975 198.884021 
L -336.645206 198.884021 
L -338.307694 196.626846 
L -337.47645 192.112179 
L -334.745219 190.804998 
L -315.863473 187.954078 
L -301.138262 184.389723 
L -295.675643 182.013486 
L -275.012659 179.637562 
L -265.631317 179.399751 
L -256.724816 178.568193 
L -241.880855 175.954458 
L -226.799396 172.627914 
L -215.75541 168.825748 
L -213.974172 166.449824 
L -220.386627 165.024207 
L -218.249142 162.529221 
L -214.211514 160.627981 
L -201.267383 158.014246 
L -195.092269 156.113319 
L -190.342146 153.737396 
L -187.373416 150.885849 
L -182.979697 149.22242 
L -175.735683 149.578981 
L -172.766954 151.598657 
L -165.522941 151.836155 
L -165.285442 149.578981 
L -162.197964 147.202744 
L -155.666446 147.796803 
L -154.122706 150.054291 
L -146.879007 150.410539 
L -131.441144 148.628361 
L -124.553378 148.984922 
L -121.941053 151.479908 
L -115.290785 149.460232 
L -95.459046 146.727434 
L -82.515072 144.351511 
L -77.289795 143.044643 
L -73.608571 140.905905 
L -69.096102 142.450584 
L -62.802396 141.618713 
L -54.964637 146.608685 
L -48.076871 145.420567 
L -45.34564 143.044643 
L -39.170369 141.381215 
L -31.214174 141.737462 
L -28.838877 143.99495 
L -23.851412 141.737462 
L -17.319894 141.024654 
L -3.782174 140.905905 
L 9.518047 141.975274 
L 12.368027 143.99495 
L 16.287063 145.777127 
L 22.937017 144.707758 
L 43.71875 144.351511 
L 56.187727 142.806831 
L 61.53144 141.143403 
L 73.406671 139.480288 
L 78.038202 137.816859 
L 81.363179 134.490316 
L 84.806905 132.470953 
L 91.100925 133.420947 
L 93.475909 135.559685 
L 98.701186 136.985302 
L 104.994892 136.509992 
L 109.269863 138.648417 
L 113.782645 140.193096 
L 119.957915 138.767479 
L 122.0954 136.153431 
L 127.557863 135.084375 
L 133.851882 133.064699 
L 146.914605 131.045023 
L 161.402318 127.005671 
L 167.102279 127.718479 
L 176.483777 123.916626 
L 182.184051 124.035375 
L 187.171516 122.609758 
L 188.359008 120.471333 
L 193.465536 118.807905 
L 198.453002 117.619786 
L 210.090734 116.194169 
L 221.134721 117.144476 
L 226.003751 118.807905 
L 226.597183 121.42164 
L 235.622434 125.104744 
L 242.866761 125.817553 
L 251.891698 129.144096 
L 257.710408 129.500657 
L 262.579124 128.312539 
L 267.804715 125.817553 
L 273.504675 127.124107 
L 285.142408 128.550037 
L 297.136388 129.025347 
L 302.123854 135.321873 
L 301.886355 136.866553 
L 301.17386 139.599037 
L 295.35515 141.143403 
L 290.604557 143.400891 
L 291.436114 145.777127 
L 298.205131 145.658065 
L 297.373573 148.034302 
L 291.436114 152.786775 
L 296.067646 154.687702 
L 303.073847 155.281762 
L 310.080362 154.212392 
L 313.405339 151.836155 
L 315.424388 149.578981 
L 322.549339 145.895877 
L 324.093078 143.757138 
L 327.299619 140.787155 
L 337.987045 139.955598 
L 350.218524 138.292169 
L 353.187253 135.915933 
L 354.968804 133.658445 
L 359.125025 131.401584 
L 370.169012 128.6691 
L 373.494303 126.64911 
L 381.331748 124.629434 
L 387.38827 125.223493 
L 398.788191 123.916626 
L 405.438458 124.272873 
L 409.832178 122.609758 
L 412.91997 118.570093 
L 418.025871 123.085068 
L 423.132399 124.272873 
L 428.951422 124.748183 
L 434.770445 124.035375 
L 446.645363 124.629434 
L 450.44565 124.035375 
L 455.551864 124.391936 
L 460.183396 125.698803 
L 465.645858 124.867246 
L 472.177376 124.867246 
L 477.7589 124.035375 
L 484.052294 124.867246 
L 491.177558 120.827581 
L 495.334092 119.164152 
L 502.934353 114.64949 
L 511.484294 117.144476 
L 523.240775 122.966006 
L 534.759759 123.085068 
L 547.822482 121.540389 
L 556.966482 118.095096 
L 563.735498 117.857285 
L 568.24828 116.550417 
L 572.998248 117.738535 
L 580.360697 121.540389 
L 587.01065 121.302891 
L 591.167185 122.847257 
L 598.411198 124.391936 
L 606.011146 124.985995 
L 612.305165 124.510685 
L 621.092918 120.708831 
L 626.55538 120.233521 
L 638.311549 121.659138 
L 644.011822 120.708831 
L 649.474911 120.708831 
L 660.399836 121.89695 
L 672.393816 119.877274 
L 685.456539 119.639462 
L 696.500525 118.570406 
L 698.163014 115.60011 
L 698.400512 113.105124 
L 702.200486 114.768239 
L 703.269542 117.501037 
L 705.287965 119.996023 
L 707.782011 122.015699 
L 712.888539 123.085068 
L 746.851743 122.134448 
L 761.576641 122.847257 
L 765.851925 124.748183 
L 764.664433 127.005671 
L 768.58347 128.787849 
L 781.883377 131.758145 
L 804.090414 134.727814 
L 810.977866 134.84719 
L 814.896902 132.826887 
L 830.215859 137.816859 
L 844.584823 139.123727 
L 847.553866 141.499964 
L 854.441318 142.925581 
L 859.072536 145.064319 
L 865.841553 146.014626 
L 886.623285 146.133375 
L 893.866672 146.608685 
L 900.636315 147.440243 
L 913.223728 150.054291 
L 917.499012 151.836155 
L 916.786203 154.212392 
L 913.579975 156.351131 
L 905.860965 163.717026 
L 897.904771 164.667646 
L 894.341982 166.806072 
L 886.504223 168.112939 
L 883.773305 170.489176 
L 875.223051 174.64759 
L 871.185266 179.399751 
L 870.591206 182.132549 
L 870.710269 184.389723 
L 874.153995 186.765646 
L 875.460549 189.023134 
L 878.310843 191.161873 
L 889.592328 191.993117 
L 891.966998 194.607165 
L 871.779325 196.864345 
L 860.260341 197.102156 
L 855.153813 200.547449 
L 854.085071 203.398683 
L 848.266361 207.913658 
L 856.341305 209.933334 
L 859.429097 212.42832 
L 864.653748 214.685494 
L 872.01651 216.705484 
L 889.592328 220.507337 
L 903.486295 222.408264 
L 906.573147 225.37856 
L 924.029903 226.685428 
L 929.730177 228.942602 
L 946.474124 227.398236 
L 970.81363 230.759547 
L 970.81363 262.813159 
z
" clip-path="url(#p6b9f4d240d)" style="fill: #f59e0b; stroke: #b45309; stroke-width: 1.15"/>
    <path d="M -575.368181 151.62247 
L -568.718071 149.246238 
L -564.56185 148.533424 
L -557.555178 148.770923 
L -555.774097 145.681877 
L -555.536599 138.55348 
L -552.092873 135.701933 
L -546.511348 134.751627 
L -543.30512 137.008801 
L -537.248599 144.612822 
L -535.58611 147.345306 
L -534.873615 150.07779 
L -537.604846 154.711515 
L -551.499127 156.731191 
L -559.455478 156.612442 
L -556.486749 154.236205 
L -570.380716 155.899633 
L -575.01209 154.117456 
z
" clip-path="url(#p6b9f4d240d)" style="fill: #f59e0b; stroke: #b45309; stroke-width: 1.15"/>
    <path d="M -448.961248 206.022757 
L -447.892506 203.527771 
L -434.948532 201.864656 
L -429.723255 199.84498 
L -423.19205 194.973752 
L -415.591789 190.340346 
L -412.504311 190.340655 
L -403.47906 189.033474 
L -394.335217 190.340655 
L -386.853705 192.954076 
L -384.241223 196.637186 
L -383.29123 202.339966 
L -402.529067 205.785259 
L -426.635776 208.398994 
L -441.00474 208.042747 
z
" clip-path="url(#p6b9f4d240d)" style="fill: #f59e0b; stroke: #b45309; stroke-width: 1.15"/>
    <path d="M -1113.171927 193.66689 
L -1109.491016 191.409397 
L -1098.209374 192.360331 
L -1092.152853 194.260944 
L -1087.521792 196.399374 
L -1085.859146 199.132172 
L -1097.496879 199.963729 
L -1105.453231 197.824991 
L -1109.253361 195.330005 
z
" clip-path="url(#p6b9f4d240d)" style="fill: #f59e0b; stroke: #b45309; stroke-width: 1.15"/>
    <path d="M -522.481715 203.732371 
L -495.762681 204.563615 
L -488.043514 199.930204 
L -481.749808 202.42519 
L -485.312283 208.24672 
L -498.019072 207.415162 
L -511.556478 207.77141 
L -519.156895 205.751734 
z
" clip-path="url(#p6b9f4d240d)" style="fill: #f59e0b; stroke: #b45309; stroke-width: 1.15"/>
    <path d="M -741.002135 153.034618 
L -737.202005 151.965244 
L -714.045445 154.103983 
L -707.395334 153.391174 
L -703.832702 156.836467 
L -708.582669 156.36147 
L -731.620793 156.717718 
L -737.795594 155.5296 
z
" clip-path="url(#p6b9f4d240d)" style="fill: #f59e0b; stroke: #b45309; stroke-width: 1.15"/>
    <path d="M -864.029729 163.727684 
L -862.72318 161.70769 
L -847.641721 163.727366 
L -840.398016 162.657997 
L -843.841743 164.796735 
L -849.541708 166.341101 
L -857.973213 165.866104 
z
" clip-path="url(#p6b9f4d240d)" style="fill: #f59e0b; stroke: #b45309; stroke-width: 1.15"/>
    <path d="M -892.292504 162.539252 
L -887.898789 161.23238 
L -872.579675 165.034234 
L -883.980223 164.202676 
z
" clip-path="url(#p6b9f4d240d)" style="fill: #f59e0b; stroke: #b45309; stroke-width: 1.15"/>
   </g>
   <g id="PathCollection_2">
    <path d="M 288 186.029951 
C 289.096672 186.029951 290.148574 185.594239 290.924038 184.818775 
C 291.699502 184.043311 292.135215 182.991409 292.135215 181.894737 
C 292.135215 180.798065 291.699502 179.746163 290.924038 178.970699 
C 290.148574 178.195235 289.096672 177.759522 288 177.759522 
C 286.903328 177.759522 285.851426 178.195235 285.075962 178.970699 
C 284.300498 179.746163 283.864785 180.798065 283.864785 181.894737 
C 283.864785 182.991409 284.300498 184.043311 285.075962 184.818775 
C 285.851426 185.594239 286.903328 186.029951 288 186.029951 
L 288 186.029951 
z
" clip-path="url(#p6b9f4d240d)" style="fill: none; stroke: #7c2d12; stroke-width: 1.1"/>
   </g>
  </g>
 </g>
 <defs>
  <clipPath id="p6b9f4d240d">
   <rect x="0" y="0" width="576" height="232.497369"/>
  </clipPath>
 </defs>
</svg>
