<?xml version="1.0" encoding="utf-8" standalone="no"?>
<!DOCTYPE svg PUBLIC "-//W3C//DTD SVG 1.1//EN"
  "http://www.w3.org/Graphics/SVG/1.1/DTD/svg11.dtd">
<svg xmlns:xlink="http://www.w3.org/1999/xlink" width="576pt" height="357.517241pt" viewBox="0 0 576 357.517241" xmlns="http://www.w3.org/2000/svg" version="1.1">
 <metadata>
  <rdf:RDF xmlns:dc="http://purl.org/dc/elements/1.1/" xmlns:cc="http://creativecommons.org/ns#" xmlns:rdf="http://www.w3.org/1999/02/22-rdf-syntax-ns#">
   <cc:Work>
    <dc:type rdf:resource="http://purl.org/dc/dcmitype/StillImage"/>
    <dc:date>2026-06-09T04:57:21.684151</dc:date>
    <dc:format>image/svg+xml</dc:format>
    <dc:creator>
     <cc:Agent>
      <dc:title>Matplotlib v3.10.8, https://matplotlib.org/</dc:title>
     </cc:Agent>
    </dc:creator>
   </cc:Work>
  </rdf:RDF>
 </metadata>
 <defs>
  <style type="text/css">*{stroke-linejoin: round; stroke-linecap: butt}</style>
 </defs>
 <g id="figure_1">
  <g id="patch_1">
   <path d="M 0 357.517241 
L 576 357.517241 
L 576 0 
L 0 0 
z
" style="fill: #eaf3ff"/>
  </g>
  <g id="axes_1">
   <g id="PatchCollection_1">
    <path d="M -148.94347 -42.766908 
L -148.826483 -136.174345 
L -130.300337 -133.781164 
L -114.667299 -129.004337 
L -104.311415 -128.09088 
L -95.593754 -132.232916 
L -83.56608 -135.334477 
L -68.814621 -134.121997 
L -53.939023 -138.48341 
L -37.685396 -140.958025 
L -30.862974 -136.842406 
L -23.452734 -139.162196 
L -21.23424 -143.839514 
L -14.371399 -142.780568 
L 2.419994 -133.876105 
L 15.643068 -140.607559 
L 16.985247 -133.072783 
L 29.186516 -134.701771 
L 32.936276 -137.599746 
L 44.965142 -137.026229 
L 60.153468 -132.855989 
L 83.394074 -129.21547 
L 97.061661 -127.529479 
L 106.789407 -128.169037 
L 120.185975 -123.133903 
L 106.213506 -118.20523 
L 124.165043 -116.075421 
L 150.971586 -117.246985 
L 159.430941 -118.984121 
L 170.017324 -113.029473 
L 180.820403 -118.053782 
L 170.684789 -122.267321 
L 177.098052 -125.666516 
L 197.131034 -127.117241 
L 205.147167 -124.745909 
L 215.126963 -119.351172 
L 226.217545 -120.143172 
L 243.763895 -115.665666 
L 259.180634 -117.242417 
L 273.667531 -117.003972 
L 272.52149 -123.183956 
L 281.351371 -124.918908 
L 296.740204 -121.549804 
L 296.680916 -112.154946 
L 303.001523 -120.073159 
L 310.990345 -119.806312 
L 315.48096 -129.788988 
L 304.84224 -135.913258 
L 293.250439 -139.925892 
L 294.04651 -150.900281 
L 305.788469 -158.107332 
L 318.885815 -156.514593 
L 328.933937 -152.130439 
L 342.425644 -140.93419 
L 333.614036 -136.054874 
L 352.083972 -134.045727 
L 352.040177 -123.889556 
L 365.311614 -131.672905 
L 377.184066 -125.280794 
L 374.226306 -117.914946 
L 383.832794 -111.214874 
L 394.201788 -118.39243 
L 401.445782 -126.963906 
L 401.988712 -137.863713 
L 430.782654 -135.640651 
L 444.111592 -130.712474 
L 444.709738 -125.783206 
L 437.319459 -120.488574 
L 444.321633 -115.171796 
L 443.057909 -110.341539 
L 423.612646 -103.397363 
L 409.799967 -101.8656 
L 399.531178 -104.855139 
L 396.570041 -99.868966 
L 386.998212 -91.494323 
L 384.100237 -87.151084 
L 372.583018 -80.43115 
L 358.366941 -79.773319 
L 350.525992 -75.576861 
L 349.869948 -69.122086 
L 338.316381 -67.879415 
L 326.165164 -59.831404 
L 315.394461 -48.648662 
L 311.543404 -40.818637 
L 310.994317 -29.284833 
L 325.588767 -27.62933 
L 334.705357 -10.795928 
L 348.602251 -12.758201 
L 367.055702 -8.458461 
L 376.984254 -4.683674 
L 384.090604 0.008541 
L 396.53419 2.742654 
L 407.055128 6.925903 
L 434.255834 8.458063 
L 432.6336 17.058836 
L 435.723939 27.041909 
L 442.91669 38.156226 
L 457.692679 47.585346 
L 465.338383 44.352695 
L 470.712066 34.142102 
L 465.525087 18.457324 
L 458.520033 13.230919 
L 474.41803 8.575945 
L 485.671283 1.614687 
L 491.17536 -5.305457 
L 490.362803 -11.94336 
L 483.618935 -20.379377 
L 471.556502 -27.852381 
L 483.276314 -38.260403 
L 478.946781 -47.25067 
L 475.628326 -62.760563 
L 482.542312 -65.053539 
L 509.777876 -61.384817 
L 518.00395 -63.9936 
L 527.253219 -60.629661 
L 539.482792 -54.872441 
L 542.495768 -51.017412 
L 560.205484 -50.265037 
L 559.908447 -41.921379 
L 563.209821 -29.369644 
L 572.280331 -27.817423 
L 579.478246 -21.968044 
L 593.858185 -27.482251 
L 603.358312 -38.440154 
L 609.929181 -43.056794 
L 641.57909 -9.607779 
L 637.585721 -3.37109 
L 650.795288 2.229716 
L 659.722394 7.904408 
L 675.557826 10.472375 
L 681.932359 13.640276 
L 685.868127 22.043719 
L 693.602218 23.362858 
L 697.592408 27.108149 
L 698.316778 38.267851 
L 683.981032 45.486919 
L 667.615581 49.016607 
L 655.119658 57.17525 
L 638.330549 58.787156 
L 617.089556 56.696375 
L 591.89909 57.312298 
L 583.584232 64.436921 
L 570.923851 68.838356 
L 556.598532 81.981881 
L 545.168309 91.149914 
L 553.603332 89.517749 
L 569.544828 76.468966 
L 590.375868 68.195421 
L 605.234383 67.205495 
L 614.02603 72.074681 
L 604.646566 78.744662 
L 607.79381 89.449126 
L 611.034803 96.941892 
L 623.934223 101.902146 
L 640.345953 100.464629 
L 650.30251 89.300557 
L 650.993214 96.503437 
L 657.405981 100.100855 
L 645.121192 106.607172 
L 623.125639 112.51723 
L 613.275542 116.535426 
L 602.177611 123.68875 
L 594.636579 122.959415 
L 594.255923 114.553291 
L 611.498582 106.34112 
L 595.603366 106.666163 
L 584.566411 107.875564 
L 578.07221 102.261749 
L 578.080949 88.720287 
L 573.671768 85.855183 
L 567.012414 87.542069 
L 563.713165 84.932382 
L 556.138229 92.427443 
L 553.108966 100.154483 
L 549.583448 104.673103 
L 542.184828 106.708966 
L 541.191128 109.159945 
L 507.803586 109.236612 
L 503.322604 111.064221 
L 491.586207 118.989098 
L 488.407937 122.85897 
L 469.536531 122.895664 
L 465.053725 124.472215 
L 466.65931 126.422069 
L 467.360817 130.457929 
L 454.370175 135.397739 
L 444.138241 136.958638 
L 432.603035 142.261025 
L 430.112217 142.261025 
L 426.738437 140.694994 
L 425.624279 139.275995 
L 428.027586 134.764138 
L 432.695172 129.302069 
L 435.598586 123.431958 
L 431.494266 105.79018 
L 421.146862 101.128781 
L 422.371358 99.363114 
L 420.915665 98.149139 
L 418.188261 98.149139 
L 416.19127 96.575153 
L 415.692054 94.223412 
L 413.759669 95.250836 
L 411.096166 94.944662 
L 411.703461 93.960654 
L 409.364806 92.983263 
L 408.403069 90.371586 
L 373.624245 76.439991 
L 364.737923 79.251559 
L 361.489655 79.348966 
L 349.274483 76.766897 
L 341.230345 78.057931 
L 331.597241 74.97931 
L 314.524403 72.787134 
L 311.437241 71.106207 
L 309.673688 65.653572 
L 306.311934 65.701241 
L 306.282344 69.517241 
L 30.049225 69.492039 
L 10.822444 59.739542 
L 3.728011 55.449335 
L -14.257092 51.33739 
L -19.790168 42.54624 
L -18.375592 36.45077 
L -31.082052 32.222433 
L -32.824353 24.215934 
L -44.838323 17.006201 
L -45.048265 11.889633 
L -39.525517 7.10069 
L -39.801401 0.835895 
L -56.684458 -5.483123 
L -73.04832 -23.936574 
L -88.833103 -32.480044 
L -94.104794 -37.616574 
L -104.074461 -34.400011 
L -113.735172 -28.849655 
L -129.490759 -39.724138 
L -139.163586 -42.473247 
z
" clip-path="url(#pe7b7564bf8)" style="fill: #e8edf4; stroke: #b8c5d4; stroke-width: 0.45"/>
    <path d="M 355.479788 -161.231083 
L 363.112618 -170.1133 
L 373.32505 -174.169379 
L 398.967879 -176.810309 
L 391.658365 -170.391198 
L 399.482106 -164.200974 
L 408.660952 -172.206901 
L 433.83138 -176.285305 
L 450.868095 -166.012572 
L 449.389821 -159.511349 
L 469.036417 -162.393996 
L 478.43132 -166.34102 
L 500.466094 -161.316531 
L 514.143399 -156.584053 
L 515.429222 -152.251102 
L 533.87031 -154.496354 
L 544.220536 -148.171159 
L 568.193668 -144.248511 
L 576.844431 -140.245548 
L 586.238565 -130.951488 
L 568.004297 -126.32473 
L 591.394433 -119.839416 
L 607.160464 -117.658314 
L 621.435134 -108.531044 
L 637.056185 -107.872095 
L 633.965692 -100.901807 
L 616.53407 -89.366087 
L 604.314767 -93.610255 
L 588.699618 -103.163994 
L 575.850875 -101.919483 
L 574.59687 -96.22963 
L 585.040755 -90.456382 
L 598.522787 -85.887615 
L 602.613508 -83.249251 
L 609.076241 -73.41941 
L 605.656017 -66.281562 
L 593.13059 -68.972015 
L 568.222151 -76.922517 
L 592.601737 -62.367639 
L 594.217805 -58.899944 
L 567.286843 -62.86493 
L 545.974142 -68.630481 
L 533.938309 -73.468164 
L 537.405235 -76.270239 
L 508.12715 -86.192199 
L 508.285216 -83.312375 
L 479.569856 -81.727869 
L 471.168508 -85.137829 
L 477.709761 -92.449909 
L 496.370241 -92.62645 
L 516.813067 -93.895594 
L 513.495227 -97.44104 
L 516.960869 -102.394707 
L 529.809099 -112.067508 
L 527.079129 -116.460504 
L 523.25014 -119.861997 
L 508.03888 -124.680435 
L 487.920653 -128.058064 
L 494.281002 -130.57095 
L 483.766809 -136.745778 
L 475.014945 -137.311324 
L 467.18325 -140.691776 
L 461.868033 -137.761401 
L 443.862909 -136.484045 
L 407.721539 -138.703124 
L 370.609193 -143.113569 
L 362.349488 -146.602305 
L 372.734356 -151.132325 
L 358.628016 -151.175691 
z
" clip-path="url(#pe7b7564bf8)" style="fill: #e8edf4; stroke: #b8c5d4; stroke-width: 0.45"/>
    <path d="M 341.756491 -257.157087 
L 356.524138 -259.051034 
L 387.605892 -260.983713 
L 402.206897 -264.684647 
L 414.52133 -264.165517 
L 425.246897 -261.384828 
L 432.794483 -266.747586 
L 463.713368 -269.434527 
L 494.068966 -269.846653 
L 499.34453 -268.773914 
L 528.017909 -270.454246 
L 597.576662 -268.416099 
L 618.902069 -267.144828 
L 637.075862 -264.449545 
L 636.640088 -261.798455 
L 612.407172 -257.489379 
L 588.379829 -255.478543 
L 579.400883 -253.255382 
L 601.023128 -253.306626 
L 577.588966 -247.282759 
L 561.404359 -244.470588 
L 544.41931 -236.358621 
L 523.933572 -234.711559 
L 517.605517 -232.685749 
L 487.537026 -231.622411 
L 501.226858 -230.376761 
L 494.362328 -228.603178 
L 502.575393 -223.704596 
L 493.140017 -220.299741 
L 477.796866 -217.488761 
L 473.087768 -213.602549 
L 459.215901 -210.634063 
L 460.604855 -208.386472 
L 477.57461 -208.770654 
L 477.790908 -206.346588 
L 451.253793 -200.389606 
L 425.30261 -203.129677 
L 396.130692 -201.590168 
L 362.575316 -203.312011 
L 361.329766 -208.076326 
L 379.689368 -210.322726 
L 374.797241 -217.489655 
L 380.855172 -218.187034 
L 407.407382 -213.90187 
L 393.864828 -220.270345 
L 377.757484 -222.175217 
L 385.801026 -226.017137 
L 403.41173 -228.383007 
L 406.229462 -231.84427 
L 392.202968 -235.725418 
L 387.987741 -240.841986 
L 415.132734 -240.414058 
L 422.975712 -239.337931 
L 438.47275 -242.956999 
L 416.110345 -244.104828 
L 381.362152 -243.471923 
L 363.807261 -246.842714 
L 355.531034 -250.857931 
L 343.932977 -253.768717 
z
" clip-path="url(#pe7b7564bf8)" style="fill: #e8edf4; stroke: #b8c5d4; stroke-width: 0.45"/>
    <path d="M 65.525065 -154.512894 
L 73.860381 -161.953821 
L 80.774863 -165.907266 
L 107.36352 -171.95179 
L 117.512243 -170.03371 
L 112.554968 -165.379233 
L 134.654698 -168.384662 
L 148.465092 -163.36949 
L 159.687559 -168.441567 
L 168.762637 -165.186372 
L 176.88811 -155.429528 
L 181.877065 -159.546836 
L 174.822058 -169.716712 
L 183.560772 -171.171112 
L 193.43083 -169.582444 
L 204.55488 -165.576066 
L 210.787796 -155.901352 
L 213.867211 -148.895702 
L 248.466737 -139.276006 
L 247.38912 -134.90784 
L 231.083652 -134.108888 
L 237.418361 -130.291399 
L 234.072099 -126.648695 
L 216.09931 -128.209655 
L 199.017931 -130.891034 
L 187.472706 -130.287426 
L 168.827586 -126.918621 
L 125.993048 -124.49088 
L 120.612811 -129.177335 
L 107.056552 -131.884138 
L 98.238389 -130.773948 
L 86.002759 -138.637241 
L 107.939222 -141.391117 
L 121.939101 -140.944916 
L 134.902179 -142.673015 
L 115.696552 -144.993103 
L 80.39371 -144.402803 
L 75.154295 -148.063779 
L 98.187046 -152.035994 
L 82.86773 -151.897159 
z
" clip-path="url(#pe7b7564bf8)" style="fill: #e8edf4; stroke: #b8c5d4; stroke-width: 0.45"/>
    <path d="M 661.213299 80.446803 
L 667.399417 76.950369 
L 663.079039 74.252474 
L 671.419316 68.270097 
L 681.679219 52.453003 
L 687.836854 46.800613 
L 696.453746 43.377823 
L 701.061773 43.813017 
L 687.268485 61.450176 
L 693.751233 58.095385 
L 700.421042 60.223627 
L 696.936155 63.686447 
L 705.74755 66.408719 
L 710.329403 63.988722 
L 720.232888 67.043034 
L 717.159587 74.316111 
L 724.110118 72.617674 
L 725.376183 77.887473 
L 728.460261 84.060761 
L 724.278704 92.800564 
L 719.786917 93.170068 
L 713.257468 91.295347 
L 715.413166 83.170358 
L 712.646246 81.908398 
L 701.123357 90.521441 
L 695.197432 90.17657 
L 702.211342 85.510552 
L 692.681723 83.097483 
L 662.737504 83.387442 
z
" clip-path="url(#pe7b7564bf8)" style="fill: #e8edf4; stroke: #b8c5d4; stroke-width: 0.45"/>
    <path d="M 286.794581 -206.079669 
L 290.531194 -210.15448 
L 310.999423 -209.523757 
L 322.024508 -206.330111 
L 341.577701 -206.352178 
L 350.149944 -203.085658 
L 347.8875 -199.355717 
L 359.282603 -197.108926 
L 365.590349 -194.74923 
L 393.475608 -193.480598 
L 409.261653 -195.633474 
L 429.483033 -196.478715 
L 445.620107 -195.78025 
L 456.256443 -192.034913 
L 458.476805 -187.92623 
L 452.281449 -185.286327 
L 437.473564 -183.152696 
L 424.761333 -184.36 
L 396.273577 -182.830663 
L 375.886176 -182.654635 
L 333.459897 -187.078423 
L 330.025303 -192.531178 
L 328.817486 -197.455336 
L 318.847541 -201.79111 
L 298.303871 -203.004059 
z
" clip-path="url(#pe7b7564bf8)" style="fill: #e8edf4; stroke: #b8c5d4; stroke-width: 0.45"/>
    <path d="M 82.324303 -190.896331 
L 95.874008 -200.597263 
L 105.220601 -203.376364 
L 133.169611 -200.024342 
L 150.810505 -194.14368 
L 168.161214 -193.38912 
L 153.958246 -202.889247 
L 163.056662 -206.507619 
L 173.310554 -205.357109 
L 176.659101 -200.623581 
L 180.551868 -197.086543 
L 189.395454 -198.748006 
L 199.802483 -198.3168 
L 201.550543 -193.451686 
L 195.507608 -188.741992 
L 161.875862 -187.2 
L 136.819167 -182.899465 
L 121.716646 -182.67413 
L 120.450041 -185.911846 
L 141.07819 -190.303448 
L 96.209777 -189.12096 
z
" clip-path="url(#pe7b7564bf8)" style="fill: #e8edf4; stroke: #b8c5d4; stroke-width: 0.45"/>
    <path d="M 290.882781 -239.911647 
L 297.767768 -244.326588 
L 304.649876 -247.355156 
L 314.829385 -248.05013 
L 310.489622 -250.326223 
L 333.585037 -250.832011 
L 346.266472 -245.529434 
L 379.266207 -241.522759 
L 387.111724 -234.968276 
L 399.085076 -231.759559 
L 385.44768 -228.804083 
L 367.097214 -221.33525 
L 349.529114 -220.621208 
L 328.948734 -221.892381 
L 318.278135 -225.940866 
L 318.431272 -229.54325 
L 326.281754 -232.188579 
L 308.120276 -232.112905 
L 297.174886 -235.415371 
z
" clip-path="url(#pe7b7564bf8)" style="fill: #e8edf4; stroke: #b8c5d4; stroke-width: 0.45"/>
    <path d="M 385.105822 -74.892296 
L 393.73811 -79.804137 
L 395.008024 -87.620693 
L 398.394891 -96.716144 
L 405.570459 -95.906827 
L 407.413105 -91.539491 
L 412.495329 -93.071395 
L 418.26909 -90.467929 
L 440.520691 -83.968245 
L 441.400317 -79.245775 
L 448.710344 -80.019168 
L 455.800208 -76.726987 
L 446.985734 -73.60134 
L 431.531473 -75.989518 
L 425.95401 -80.460007 
L 416.106207 -75.175069 
L 401.974464 -70.03742 
L 398.564503 -75.845822 
z
" clip-path="url(#pe7b7564bf8)" style="fill: #e8edf4; stroke: #b8c5d4; stroke-width: 0.45"/>
    <path d="M 233.37931 -163.961379 
L 233.577931 -167.13931 
L 253.853528 -165.90667 
L 242.913103 -172.402759 
L 254.667277 -177.208287 
L 266.510532 -175.117804 
L 284.226207 -176.375172 
L 286.808276 -173.495172 
L 277.536761 -168.73344 
L 292.568276 -164.457931 
L 290.78069 -155.52 
L 274.49717 -151.6752 
L 264.931597 -152.504839 
L 258.059719 -156.297302 
z
" clip-path="url(#pe7b7564bf8)" style="fill: #e8edf4; stroke: #b8c5d4; stroke-width: 0.45"/>
    <path d="M 0.705613 -157.592492 
L 11.844844 -169.05163 
L 20.457931 -175.58069 
L 10.747862 -181.665931 
L 44.313468 -183.21696 
L 58.495978 -181.155476 
L 83.86123 -180.603509 
L 104.168508 -173.546714 
L 91.683906 -171.041412 
L 67.332414 -164.06069 
L 55.017931 -157.108966 
L 55.017931 -152.77508 
L 28.877561 -147.988701 
L 23.635862 -152.342069 
z
" clip-path="url(#pe7b7564bf8)" style="fill: #e8edf4; stroke: #b8c5d4; stroke-width: 0.45"/>
    <path d="M -24.277249 54.232012 
L -23.421487 51.932874 
L -6.902079 55.604823 
L 2.433037 56.656371 
L 10.717888 64.797269 
L 20.631638 68.896714 
L 24.72826 74.38334 
L 19.73405 75.765389 
L 3.42608 71.255127 
L 0.446952 67.729697 
L -8.441423 64.25379 
L -10.2289 61.42349 
L -20.45134 59.636269 
z
" clip-path="url(#pe7b7564bf8)" style="fill: #e8edf4; stroke: #b8c5d4; stroke-width: 0.45"/>
    <path d="M 232.728629 -201.963476 
L 243.412337 -201.65333 
L 258.370858 -205.039514 
L 272.338858 -204.465997 
L 273.103448 -205.771034 
L 280.69488 -201.168596 
L 281.00443 -196.072783 
L 276.48 -188.689655 
L 260.106306 -187.671128 
L 249.431239 -189.259299 
L 249.637208 -195.052966 
L 233.358554 -194.288772 
z
" clip-path="url(#pe7b7564bf8)" style="fill: #e8edf4; stroke: #b8c5d4; stroke-width: 0.45"/>
    <path d="M 297.595911 -168.234473 
L 297.749614 -173.171718 
L 302.938327 -177.392278 
L 312.791262 -180.098384 
L 333.484017 -179.751974 
L 352.454471 -177.335826 
L 337.615794 -168.492356 
L 325.77472 -166.563236 
L 315.121192 -159.140818 
L 303.79178 -159.511092 
z
" clip-path="url(#pe7b7564bf8)" style="fill: #e8edf4; stroke: #b8c5d4; stroke-width: 0.45"/>
    <path d="M 203.662783 -231.408933 
L 223.157471 -230.05588 
L 250.012224 -226.432172 
L 257.60913 -221.707905 
L 261.474812 -217.564581 
L 245.257422 -218.671298 
L 228.912244 -221.891374 
L 206.802543 -222.259852 
L 216.392976 -225.210242 
L 204.384856 -227.602782 
z
" clip-path="url(#pe7b7564bf8)" style="fill: #e8edf4; stroke: #b8c5d4; stroke-width: 0.45"/>
    <path d="M 31.233853 -199.778081 
L 48.090683 -207.206144 
L 68.48502 -213.638598 
L 83.717322 -213.500547 
L 97.338174 -214.960089 
L 95.975371 -207.329825 
L 88.326118 -203.884454 
L 79.046941 -203.399223 
L 60.586087 -199.149154 
L 44.689704 -197.627771 
z
" clip-path="url(#pe7b7564bf8)" style="fill: #e8edf4; stroke: #b8c5d4; stroke-width: 0.45"/>
    <path d="M -71.897358 21.340996 
L -71.304868 18.174037 
L -66.63732 19.464735 
L -57.103345 18.670301 
L -60.077598 29.945828 
L -51.43325 37.932253 
L -55.393618 37.913008 
L -61.378048 33.371184 
L -65.048201 28.799851 
L -70.059587 25.706792 
z
" clip-path="url(#pe7b7564bf8)" style="fill: #e8edf4; stroke: #b8c5d4; stroke-width: 0.45"/>
    <path d="M 448.12702 -172.136441 
L 448.546244 -175.711619 
L 453.321356 -176.37239 
L 476.049721 -175.301943 
L 493.175172 -169.847354 
L 494.055024 -167.103415 
L 472.799965 -167.602649 
L 461.929637 -166.267393 
L 459.053795 -166.870201 
z
" clip-path="url(#pe7b7564bf8)" style="fill: #e8edf4; stroke: #b8c5d4; stroke-width: 0.45"/>
    <path d="M 611.825114 92.085815 
L 615.576563 89.021694 
L 619.056 93.848177 
L 626.257986 95.180326 
L 635.46624 94.909506 
L 630.581859 98.978748 
L 626.903206 99.62635 
L 614.305986 95.410924 
z
" clip-path="url(#pe7b7564bf8)" style="fill: #e8edf4; stroke: #b8c5d4; stroke-width: 0.45"/>
    <path d="M 484.272993 -115.081721 
L 488.491101 -120.647768 
L 497.592397 -122.024706 
L 505.345655 -119.275299 
L 505.456585 -115.02144 
L 504.337953 -113.653241 
L 497.883674 -110.719713 
L 486.751084 -110.22187 
z
" clip-path="url(#pe7b7564bf8)" style="fill: #e8edf4; stroke: #b8c5d4; stroke-width: 0.45"/>
    <path d="M 260.218912 -133.076164 
L 268.958223 -136.154784 
L 275.901406 -140.459987 
L 292.395464 -135.856853 
L 301.429925 -130.172925 
L 295.25441 -126.690608 
L 281.868567 -129.699612 
L 273.780733 -128.613852 
z
" clip-path="url(#pe7b7564bf8)" style="fill: #e8edf4; stroke: #b8c5d4; stroke-width: 0.45"/>
    <path d="M 610.568739 60.847051 
L 614.003884 60.011454 
L 627.062499 62.501859 
L 637.219018 66.651641 
L 637.509799 68.473887 
L 632.674626 68.651553 
L 619.803211 65.537975 
z
" clip-path="url(#pe7b7564bf8)" style="fill: #e8edf4; stroke: #b8c5d4; stroke-width: 0.45"/>
    <path d="M 289.778329 -187.970879 
L 295.065063 -192.441881 
L 309.343582 -195.117195 
L 318.014103 -191.634103 
L 321.638838 -188.491007 
L 316.234837 -184.641234 
L 301.817241 -185.381269 
z
" clip-path="url(#pe7b7564bf8)" style="fill: #e8edf4; stroke: #b8c5d4; stroke-width: 0.45"/>
    <path d="M 271.792706 -227.141928 
L 290.439074 -226.088071 
L 302.307861 -222.637055 
L 299.616381 -219.048244 
L 284.922939 -216.999035 
L 276.834644 -219.305614 
L 272.578416 -223.032219 
z
" clip-path="url(#pe7b7564bf8)" style="fill: #e8edf4; stroke: #b8c5d4; stroke-width: 0.45"/>
    <path d="M 453.231062 -59.74997 
L 457.528817 -63.415614 
L 461.594284 -63.198223 
L 464.118753 -61.162014 
L 460.228767 -55.942312 
L 455.838852 -56.786648 
z
" clip-path="url(#pe7b7564bf8)" style="fill: #e8edf4; stroke: #b8c5d4; stroke-width: 0.45"/>
    <path d="M 417.166312 -64.082979 
L 424.546957 -68.664066 
L 438.187134 -68.569622 
L 437.976 -66.645186 
L 426.353512 -61.167426 
L 419.341705 -61.396734 
z
" clip-path="url(#pe7b7564bf8)" style="fill: #e8edf4; stroke: #b8c5d4; stroke-width: 0.45"/>
    <path d="M 123.797506 -215.823292 
L 131.838587 -218.989739 
L 146.339321 -220.00177 
L 160.341995 -218.44626 
L 157.040064 -215.473803 
L 138.526101 -212.61579 
z
" clip-path="url(#pe7b7564bf8)" style="fill: #e8edf4; stroke: #b8c5d4; stroke-width: 0.45"/>
    <path d="M 293.59808 -216.840456 
L 313.596474 -216.69522 
L 320.567275 -214.851291 
L 319.382039 -213.715835 
L 296.246194 -214.064555 
z
" clip-path="url(#pe7b7564bf8)" style="fill: #e8edf4; stroke: #b8c5d4; stroke-width: 0.45"/>
    <path d="M 189.285517 -173.395862 
L 192.662069 -174.786207 
L 205.969655 -175.183448 
L 213.517241 -172.998621 
L 204.777931 -166.444138 
z
" clip-path="url(#pe7b7564bf8)" style="fill: #e8edf4; stroke: #b8c5d4; stroke-width: 0.45"/>
    <path d="M 133.650954 -222.533645 
L 133.811842 -223.950334 
L 143.999897 -226.924074 
L 162.241863 -224.460969 
L 150.144189 -222.523894 
z
" clip-path="url(#pe7b7564bf8)" style="fill: #e8edf4; stroke: #b8c5d4; stroke-width: 0.45"/>
    <path d="M 13.037362 77.616666 
L 14.2401 75.677313 
L 28.601379 79.051034 
L 33.891046 88.425931 
L 36.347586 85.804138 
L 34.758621 77.66069 
L 31.382069 69.517241 
L 306.282344 69.517241 
L 306.311934 65.701241 
L 309.673688 65.653572 
L 311.437241 71.106207 
L 314.524403 72.787134 
L 331.597241 74.97931 
L 341.230345 78.057931 
L 349.274483 76.766897 
L 361.489655 79.348966 
L 364.737923 79.251559 
L 373.624245 76.439991 
L 408.403069 90.371586 
L 409.364806 92.983263 
L 411.703461 93.960654 
L 411.096166 94.944662 
L 413.759669 95.250836 
L 415.692054 94.223412 
L 416.19127 96.575153 
L 418.188261 98.149139 
L 420.915665 98.149139 
L 422.371358 99.363114 
L 421.146862 101.128781 
L 431.494266 105.79018 
L 435.598586 123.431958 
L 432.695172 129.302069 
L 425.842759 138.24 
L 425.624279 139.275995 
L 426.738437 140.694994 
L 430.112217 142.261025 
L 432.603035 142.261025 
L 444.138241 136.958638 
L 454.370175 135.397739 
L 467.360817 130.457929 
L 466.65931 126.422069 
L 465.053725 124.472215 
L 469.536531 122.895664 
L 488.407937 122.85897 
L 491.586207 118.989098 
L 503.322604 111.064221 
L 507.803586 109.236612 
L 541.191128 109.159945 
L 542.184828 106.708966 
L 549.583448 104.673103 
L 553.108966 100.154483 
L 556.138229 92.427443 
L 563.713165 84.932382 
L 567.012414 87.542069 
L 573.671768 85.855183 
L 578.080949 88.720287 
L 578.07221 102.261749 
L 584.566411 107.875564 
L 586.281997 111.131255 
L 575.677043 115.942841 
L 554.984243 122.310124 
L 548.04523 130.441159 
L 547.944828 135.707586 
L 551.222069 140.971034 
L 555.343448 141.21931 
L 554.30069 137.594483 
L 557.280298 139.800861 
L 556.485219 142.63776 
L 549.782069 144.248276 
L 545.011299 144.055117 
L 537.666207 145.787586 
L 527.572006 146.774234 
L 519.293793 149.649742 
L 533.879901 147.778957 
L 536.822069 149.66069 
L 522.918621 152.64 
L 516.592552 152.659862 
L 516.887255 151.440828 
L 513.864397 154.194108 
L 516.786803 154.649743 
L 514.642295 161.783901 
L 507.415879 169.428017 
L 506.677308 166.877131 
L 504.496353 166.360221 
L 501.238676 163.876966 
L 503.304828 169.224828 
L 505.769365 170.992232 
L 505.919371 174.745291 
L 497.145302 186.535713 
L 496.241181 186.141352 
L 499.312055 179.383779 
L 494.239084 175.588486 
L 493.075862 167.337931 
L 491.161903 171.631961 
L 493.281137 177.931763 
L 486.720021 176.375254 
L 493.556326 179.573512 
L 493.982168 189.023338 
L 496.831779 189.70997 
L 499.25803 203.082306 
L 492.944971 210.45312 
L 482.671763 213.39797 
L 476.143846 219.222919 
L 471.184386 219.859895 
L 466.156105 223.508359 
L 464.73696 226.840817 
L 453.835117 233.286406 
L 448.23744 238.014124 
L 443.556844 243.901341 
L 442.026174 250.957341 
L 443.781087 257.854146 
L 447.095172 266.350345 
L 451.508673 273.380226 
L 451.564138 277.671724 
L 456.266093 289.191724 
L 455.521059 299.750648 
L 453.043564 305.814687 
L 450.074483 307.067586 
L 445.187123 305.863349 
L 443.61931 301.506207 
L 439.845517 299.222069 
L 429.962648 283.083741 
L 428.471901 279.19872 
L 430.510345 272.606897 
L 427.729655 267.144828 
L 419.98752 258.836921 
L 416.110345 257.313103 
L 406.091719 261.820303 
L 404.313865 261.32405 
L 399.494731 256.691321 
L 393.268966 254.234483 
L 382.043321 255.482516 
L 373.229926 254.384441 
L 365.655823 255.068888 
L 361.550918 256.617991 
L 363.339459 259.257699 
L 363.177931 263.28523 
L 365.286588 265.247206 
L 363.39413 266.552839 
L 359.709219 265.087713 
L 355.981606 266.97173 
L 348.775697 266.662825 
L 341.361583 261.414621 
L 332.69899 262.653021 
L 325.47605 260.354483 
L 319.29845 261.050847 
L 310.94069 263.371034 
L 301.900866 270.733606 
L 292.031603 275.015371 
L 286.609655 279.757241 
L 284.325517 284.226207 
L 284.226207 291.078621 
L 284.722759 295.845517 
L 286.609655 299.222069 
L 282.736552 299.52 
L 267.93931 294.256552 
L 265.158621 289.588966 
L 262.973793 282.637241 
L 257.114483 276.976552 
L 248.696938 264.357087 
L 241.697545 260.398676 
L 233.577931 260.590345 
L 227.321379 268.435862 
L 219.078621 265.456552 
L 213.944574 262.457777 
L 208.180601 251.811112 
L 197.201545 244.303945 
L 193.579796 240.782698 
L 176.375172 240.779384 
L 176.355906 244.877263 
L 148.731046 244.951746 
L 111.078621 233.128254 
L 112.008265 231.18624 
L 88.110521 233.028348 
L 86.440343 227.954735 
L 80.004414 222.244273 
L 75.370571 221.055798 
L 74.285182 218.206859 
L 68.712828 217.708138 
L 65.1591 215.02202 
L 55.933771 214.042494 
L 53.400563 212.439228 
L 52.19424 206.993942 
L 42.558753 197.01653 
L 34.287194 183.210108 
L 34.639349 180.909782 
L 30.257975 177.629363 
L 22.571255 169.307652 
L 21.20107 161.210582 
L 15.908822 155.786152 
L 18.085804 147.555112 
L 17.739807 139.038058 
L 14.570417 131.42741 
L 18.450472 122.068502 
L 20.865799 104.043377 
L 19.071211 90.722483 
L 15.932657 82.227277 
z
" clip-path="url(#pe7b7564bf8)" style="fill: #e8edf4; stroke: #b8c5d4; stroke-width: 0.45"/>
    <path d="M -418.201424 -96.033074 
L -404.245452 -100.187432 
L -382.093668 -105.037176 
L -373.928393 -105.037176 
L -375.279906 -100.077094 
L -354.317208 -100.463534 
L -362.380613 -106.615267 
L -374.59581 -110.397298 
L -381.659501 -115.362255 
L -391.186297 -119.597185 
L -404.833066 -122.736432 
L -399.274336 -127.941824 
L -381.657704 -128.264627 
L -369.122784 -132.789002 
L -366.758726 -137.62489 
L -356.612497 -142.344794 
L -346.938669 -143.480507 
L -328.113194 -147.889412 
L -318.982075 -147.224817 
L -303.699223 -152.51848 
L -288.673228 -150.43309 
L -281.486882 -145.950541 
L -277.075924 -147.872989 
L -260.292474 -147.277164 
L -260.8883 -144.993165 
L -245.693718 -143.304992 
L -235.564168 -144.298035 
L -214.643039 -141.160071 
L -195.541968 -140.226303 
L -187.895281 -138.935091 
L -174.681397 -140.549106 
L -148.82636 -136.174329 
L -148.94347 -42.766908 
L -139.163586 -42.473247 
L -129.490759 -39.724138 
L -113.735172 -28.849655 
L -104.074461 -34.400011 
L -94.104794 -37.616574 
L -88.833103 -32.480044 
L -73.04832 -23.936574 
L -56.684458 -5.483123 
L -39.801401 0.835895 
L -39.525517 7.10069 
L -45.048267 11.889897 
L -50.507436 8.154311 
L -59.260583 4.987608 
L -62.069072 -3.674445 
L -74.871867 -11.707572 
L -80.223521 -21.084257 
L -105.547653 -21.969528 
L -117.186269 -24.827541 
L -137.721471 -35.133632 
L -164.60137 -40.562779 
L -178.350266 -39.715999 
L -197.881392 -44.278607 
L -209.687576 -48.509688 
L -220.710351 -46.407619 
L -218.662168 -39.508922 
L -235.642174 -36.80102 
L -244.385314 -33.449821 
L -255.390384 -31.340567 
L -256.810922 -37.191566 
L -252.344796 -46.93211 
L -241.790316 -49.988732 
L -244.5131 -52.479806 
L -257.172472 -46.945966 
L -263.95031 -40.336458 
L -278.259365 -33.271741 
L -270.993216 -28.449709 
L -280.377856 -21.31571 
L -300.993117 -14.129621 
L -303.453657 -9.732263 
L -318.957185 -4.604108 
L -322.096432 0.058061 
L -333.715803 4.303255 
L -340.532388 3.539613 
L -368.137952 13.012267 
L -385.180825 15.848212 
L -386.736592 14.179284 
L -375.873166 9.539439 
L -366.157255 6.474606 
L -355.572496 1.042893 
L -343.25235 -0.07999 
L -338.355905 -4.151722 
L -324.59033 -10.096636 
L -322.372277 -12.085287 
L -315.039926 -15.591729 
L -313.326863 -23.122689 
L -308.275945 -28.987544 
L -319.726986 -25.977623 
L -322.929613 -27.685554 
L -328.306157 -24.074676 
L -334.791728 -29.111738 
L -337.469351 -25.548074 
L -341.183383 -30.499432 
L -351.111758 -26.524181 
L -357.208323 -26.532393 
L -358.063315 -32.443948 
L -356.267626 -36.085619 
L -362.662104 -39.622083 
L -375.575253 -37.718622 
L -383.955816 -42.380535 
L -390.750333 -44.764095 
L -390.794468 -50.389028 
L -398.4468 -54.620879 
L -394.604212 -60.331003 
L -386.507705 -65.873311 
L -382.965596 -70.970931 
L -374.929647 -71.696597 
L -368.115885 -70.107728 
L -360.104826 -74.899224 
L -352.893847 -74.043975 
L -345.326963 -77.125487 
L -347.172432 -81.660896 
L -352.731162 -83.448373 
L -345.379309 -87.279928 
L -351.47844 -87.167024 
L -362.016498 -85.00414 
L -365.04284 -82.810978 
L -372.874536 -85.001318 
L -386.921345 -83.886903 
L -401.464932 -86.26764 
L -405.633146 -90.262135 
z
" clip-path="url(#pe7b7564bf8)" style="fill: #e8edf4; stroke: #b8c5d4; stroke-width: 0.45"/>
    <path d="M -298.660668 360.467354 
L -296.442174 357.742775 
L -297.127316 355.789738 
L -296.551415 354.86357 
L -288.618306 358.916524 
L -286.087382 362.396259 
L -293.383713 366.619233 
L -294.83424 368.280596 
L -297.301903 366.858472 
L -297.017975 364.082847 
z
" clip-path="url(#pe7b7564bf8)" style="fill: #e8edf4; stroke: #b8c5d4; stroke-width: 0.45"/>
    <path d="M -454.753098 -73.547711 
L -454.162661 -77.288428 
L -448.032995 -75.398311 
L -441.842772 -76.419067 
L -433.812468 -73.798666 
L -423.950295 -72.471786 
L -424.76962 -71.390216 
L -432.292368 -69.288147 
L -443.633071 -73.249541 
L -452.389041 -72.673217 
z
" clip-path="url(#pe7b7564bf8)" style="fill: #e8edf4; stroke: #b8c5d4; stroke-width: 0.45"/>
    <path d="M -284.732618 -14.511186 
L -270.409451 -19.553893 
L -263.815852 -18.88314 
L -259.608634 -15.800858 
L -268.200636 -11.081467 
L -278.119517 -7.296101 
L -283.197379 -9.859024 
z
" clip-path="url(#pe7b7564bf8)" style="fill: #e8edf4; stroke: #b8c5d4; stroke-width: 0.45"/>
    <path d="M -304.987531 348.313556 
L -304.014588 347.462168 
L -297.887934 349.929534 
L -298.718168 351.121953 
L -302.046952 351.832618 
z
" clip-path="url(#pe7b7564bf8)" style="fill: #e8edf4; stroke: #b8c5d4; stroke-width: 0.45"/>
    <path d="M -320.699421 341.834946 
L -318.043366 340.466052 
L -314.345346 344.386726 
L -314.883608 344.960243 
L -319.051068 344.483354 
z
" clip-path="url(#pe7b7564bf8)" style="fill: #e8edf4; stroke: #b8c5d4; stroke-width: 0.45"/>
    <path d="M -335.67403 337.006378 
L -333.645021 335.309661 
L -331.355818 335.520596 
L -331.151537 337.833931 
L -332.329357 338.817203 
z
" clip-path="url(#pe7b7564bf8)" style="fill: #e8edf4; stroke: #b8c5d4; stroke-width: 0.45"/>
    <path d="M -411.693786 -41.840135 
L -401.887039 -43.539342 
L -394.008129 -42.639958 
L -393.062044 -38.830215 
L -399.155786 -37.285481 
z
" clip-path="url(#pe7b7564bf8)" style="fill: #e8edf4; stroke: #b8c5d4; stroke-width: 0.45"/>
    <path d="M -311.091741 346.61525 
L -310.347509 345.40555 
L -305.461142 345.830003 
L -305.769898 346.903647 
z
" clip-path="url(#pe7b7564bf8)" style="fill: #e8edf4; stroke: #b8c5d4; stroke-width: 0.45"/>
    <path d="M 472.633026 312.076403 
L 474.794119 305.773572 
L 477.782069 306.173793 
L 481.257931 314.416552 
L 481.310963 320.179034 
L 478.874483 320.673103 
L 476.351503 314.951338 
z
" clip-path="url(#pe7b7564bf8)" style="fill: #e8edf4; stroke: #b8c5d4; stroke-width: 0.45"/>
    <path d="M 478.775172 287.602759 
L 486.62069 292.071724 
L 484.90709 299.130902 
L 483.08117 297.858041 
L 483.244138 292.667586 
L 478.794836 288.743239 
z
" clip-path="url(#pe7b7564bf8)" style="fill: #e8edf4; stroke: #b8c5d4; stroke-width: 0.45"/>
    <path d="M 466.957241 290.085517 
L 471.624828 289.291034 
L 478.17931 289.588966 
L 478.477241 292.171034 
L 467.652414 293.76 
z
" clip-path="url(#pe7b7564bf8)" style="fill: #e8edf4; stroke: #b8c5d4; stroke-width: 0.45"/>
    <path d="M 88.110521 233.028348 
L 112.008265 231.18624 
L 111.078621 233.128254 
L 148.731046 244.951746 
L 176.355906 244.877263 
L 176.375172 240.779384 
L 193.579796 240.782698 
L 197.201545 244.303945 
L 208.180601 251.811112 
L 213.944574 262.457777 
L 219.078621 265.456552 
L 227.321379 268.435862 
L 233.577931 260.590345 
L 241.697545 260.398676 
L 248.696938 264.357087 
L 257.114483 276.976552 
L 262.973793 282.637241 
L 265.158621 289.588966 
L 267.93931 294.256552 
L 282.736552 299.52 
L 286.609573 299.222094 
L 282.755694 307.940086 
L 281.019024 315.088455 
L 280.293102 328.39369 
L 279.336496 333.24369 
L 281.05777 338.661291 
L 284.13723 343.504363 
L 286.119723 351.206732 
L 292.711526 358.60041 
L 295.029909 364.266656 
L 298.915349 369.156173 
L 309.460335 371.790945 
L 313.565169 375.945559 
L 322.275463 373.170171 
L 329.848249 372.16712 
L 343.535304 368.678897 
L 349.851775 364.626666 
L 352.218142 358.833917 
L 353.033618 350.490817 
L 354.750273 347.587642 
L 361.476535 344.986999 
L 371.978155 342.683499 
L 380.771588 343.029396 
L 386.795021 342.188261 
L 389.177554 344.293922 
L 388.840638 349.077207 
L 383.503867 354.980808 
L 381.142632 361.027335 
L 382.972961 362.756821 
L 378.996171 374.799069 
L 376.478923 372.248463 
L 372.511883 372.544579 
L 368.954378 378.539274 
L 367.151762 377.364301 
L 365.94959 377.821563 
L 366.027339 379.282901 
L 347.571112 379.190782 
L 347.563671 384.78133 
L 343.078299 384.805964 
L 350.448114 390.413962 
L 351.550212 392.566068 
L 353.158839 393.168565 
L 352.904548 396.550556 
L 340.158189 396.580322 
L 335.378496 404.675289 
L 336.789028 406.531021 
L 335.636893 408.859668 
L 335.393379 411.752322 
L 324.15429 401.060561 
L 319.032806 397.83561 
L 310.924239 395.245487 
L 305.377056 395.967047 
L 297.400895 399.703403 
L 292.395138 400.682333 
L 277.939565 396.175663 
L 268.657565 391.619983 
L 261.212053 390.22844 
L 249.969115 385.611432 
L 241.660913 380.864841 
L 239.153929 378.212621 
L 233.596481 377.620132 
L 223.438449 374.476522 
L 219.301797 369.945219 
L 208.631077 364.308739 
L 203.655342 358.045897 
L 201.288205 353.206161 
L 204.601427 352.236725 
L 203.579645 349.404629 
L 205.862873 346.828619 
L 205.911884 343.394282 
L 202.561712 338.934827 
L 201.665407 334.982927 
L 198.335506 329.971011 
L 189.583643 320.099344 
L 179.598302 312.341807 
L 174.76729 306.150813 
L 166.243544 302.096017 
L 164.41732 299.670118 
L 165.931261 293.532241 
L 160.868282 291.215911 
L 155.00625 286.390031 
L 152.530571 279.460542 
L 147.188668 278.652508 
L 136.767877 268.5907 
L 136.334992 265.48789 
L 130.994372 257.997217 
L 127.47664 250.392356 
L 127.627007 246.577994 
L 120.444767 242.638924 
L 117.129236 243.071552 
L 111.46145 240.33568 
L 109.870016 244.368153 
L 111.513284 249.133732 
L 112.479897 256.591304 
L 124.892162 269.864207 
L 126.402511 270.573193 
L 127.712712 273.984437 
L 129.477865 273.846386 
L 131.471135 280.25164 
L 134.486958 282.778126 
L 136.601856 286.294575 
L 142.843144 291.348573 
L 146.138403 300.586694 
L 151.845449 309.590026 
L 152.391238 314.827749 
L 157.179911 315.155941 
L 164.764757 324.102564 
L 164.523552 325.88106 
L 160.344305 329.528889 
L 158.584797 329.481161 
L 155.966192 323.444128 
L 149.467021 317.783527 
L 137.226678 310.459901 
L 137.55487 303.193239 
L 136.048113 297.811819 
L 124.488787 290.302157 
L 123.177303 291.58054 
L 120.672628 288.99247 
L 114.547068 286.588896 
L 108.69376 280.822576 
L 109.41763 280.073046 
L 113.508094 280.636284 
L 117.192873 276.926871 
L 117.563403 272.446888 
L 109.918257 265.362413 
L 104.090609 262.612685 
L 92.144843 241.962269 
z
" clip-path="url(#pe7b7564bf8)" style="fill: #e8edf4; stroke: #b8c5d4; stroke-width: 0.45"/>
    <path d="M 407.421573 338.687721 
L 412.663659 335.619808 
L 414.815765 332.036643 
L 419.305755 329.828341 
L 424.377459 327.892549 
L 431.896358 326.942102 
L 434.302498 325.851038 
L 450.682573 326.671646 
L 460.010248 330.054919 
L 463.963174 333.690688 
L 473.239272 332.568832 
L 491.349602 345.532275 
L 494.618945 345.395763 
L 500.541791 347.421109 
L 499.818435 350.217025 
L 507.139239 350.626046 
L 514.645822 354.690593 
L 513.46777 357.01693 
L 506.864164 358.277607 
L 500.179728 358.770793 
L 493.337483 357.985083 
L 479.117983 358.952466 
L 485.775475 353.412211 
L 481.72812 350.832609 
L 475.326201 350.168784 
L 471.894686 347.302046 
L 469.540636 341.646321 
L 463.928276 342.033018 
L 454.667831 339.37002 
L 451.687933 337.28694 
L 438.743735 335.747852 
L 435.277323 333.810777 
L 439.001361 331.329453 
L 429.260047 330.821128 
L 422.123995 335.981615 
L 418.009154 336.120179 
L 416.585536 338.543255 
L 411.670873 339.629187 
z
" clip-path="url(#pe7b7564bf8)" style="fill: #e8edf4; stroke: #b8c5d4; stroke-width: 0.45"/>
   </g>
   <g id="PathCollection_1">
    <defs>
     <path id="mcef03e56c8" d="M 0 2.12132 
C 0.562581 2.12132 1.102195 1.897805 1.5 1.5 
C 1.897805 1.102195 2.12132 0.562581 2.12132 0 
C 2.12132 -0.562581 1.897805 -1.102195 1.5 -1.5 
C 1.102195 -1.897805 0.562581 -2.12132 0 -2.12132 
C -0.562581 -2.12132 -1.102195 -1.897805 -1.5 -1.5 
C -1.897805 -1.102195 -2.12132 -0.562581 -2.12132 0 
C -2.12132 0.562581 -1.897805 1.102195 -1.5 1.5 
C -1.102195 1.897805 -0.562581 2.12132 0 2.12132 
z
" style="stroke: #ffffff; stroke-width: 0.5"/>
    </defs>
    <g clip-path="url(#pe7b7564bf8)">
     <use xlink:href="#mcef03e56c8" x="496.551724" y="315.310345" style="fill: #8aa0b7; stroke: #ffffff; stroke-width: 0.5"/>
     <use xlink:href="#mcef03e56c8" x="538.282924" y="340.694069" style="fill: #8aa0b7; stroke: #ffffff; stroke-width: 0.5"/>
    </g>
   </g>
   <g id="PatchCollection_2">
    <path d="M 13.037362 77.616666 
L 14.2401 75.677313 
L 28.601379 79.051034 
L 33.891046 88.425931 
L 36.347586 85.804138 
L 34.758621 77.66069 
L 31.382069 69.517241 
L 306.282344 69.517241 
L 306.311934 65.701241 
L 309.673688 65.653572 
L 311.437241 71.106207 
L 314.524403 72.787134 
L 331.597241 74.97931 
L 341.230345 78.057931 
L 349.274483 76.766897 
L 361.489655 79.348966 
L 364.737923 79.251559 
L 373.624245 76.439991 
L 408.403069 90.371586 
L 409.364806 92.983263 
L 411.703461 93.960654 
L 411.096166 94.944662 
L 413.759669 95.250836 
L 415.692054 94.223412 
L 416.19127 96.575153 
L 418.188261 98.149139 
L 420.915665 98.149139 
L 422.371358 99.363114 
L 421.146862 101.128781 
L 431.494266 105.79018 
L 435.598586 123.431958 
L 432.695172 129.302069 
L 425.842759 138.24 
L 425.624279 139.275995 
L 426.738437 140.694994 
L 430.112217 142.261025 
L 432.603035 142.261025 
L 444.138241 136.958638 
L 454.370175 135.397739 
L 467.360817 130.457929 
L 466.65931 126.422069 
L 465.053725 124.472215 
L 469.536531 122.895664 
L 488.407937 122.85897 
L 491.586207 118.989098 
L 503.322604 111.064221 
L 507.803586 109.236612 
L 541.191128 109.159945 
L 542.184828 106.708966 
L 549.583448 104.673103 
L 553.108966 100.154483 
L 556.138229 92.427443 
L 563.713165 84.932382 
L 567.012414 87.542069 
L 573.671768 85.855183 
L 578.080949 88.720287 
L 578.07221 102.261749 
L 584.566411 107.875564 
L 586.281997 111.131255 
L 575.677043 115.942841 
L 554.984243 122.310124 
L 548.04523 130.441159 
L 547.944828 135.707586 
L 551.222069 140.971034 
L 555.343448 141.21931 
L 554.30069 137.594483 
L 557.280298 139.800861 
L 556.485219 142.63776 
L 549.782069 144.248276 
L 545.011299 144.055117 
L 537.666207 145.787586 
L 527.572006 146.774234 
L 519.293793 149.649742 
L 533.879901 147.778957 
L 536.822069 149.66069 
L 522.918621 152.64 
L 516.592552 152.659862 
L 516.887255 151.440828 
L 513.864397 154.194108 
L 516.786803 154.649743 
L 514.642295 161.783901 
L 507.415879 169.428017 
L 506.677308 166.877131 
L 504.496353 166.360221 
L 501.238676 163.876966 
L 503.304828 169.224828 
L 505.769365 170.992232 
L 505.919371 174.745291 
L 497.145302 186.535713 
L 496.241181 186.141352 
L 499.312055 179.383779 
L 494.239084 175.588486 
L 493.075862 167.337931 
L 491.161903 171.631961 
L 493.281137 177.931763 
L 486.720021 176.375254 
L 493.556326 179.573512 
L 493.982168 189.023338 
L 496.831779 189.70997 
L 499.25803 203.082306 
L 492.944971 210.45312 
L 482.671763 213.39797 
L 476.143846 219.222919 
L 471.184386 219.859895 
L 466.156105 223.508359 
L 464.73696 226.840817 
L 453.835117 233.286406 
L 448.23744 238.014124 
L 443.556844 243.901341 
L 442.026174 250.957341 
L 443.781087 257.854146 
L 447.095172 266.350345 
L 451.508673 273.380226 
L 451.564138 277.671724 
L 456.266093 289.191724 
L 455.521059 299.750648 
L 453.043564 305.814687 
L 450.074483 307.067586 
L 445.187123 305.863349 
L 443.61931 301.506207 
L 439.845517 299.222069 
L 429.962648 283.083741 
L 428.471901 279.19872 
L 430.510345 272.606897 
L 427.729655 267.144828 
L 419.98752 258.836921 
L 416.110345 257.313103 
L 406.091719 261.820303 
L 404.313865 261.32405 
L 399.494731 256.691321 
L 393.268966 254.234483 
L 382.043321 255.482516 
L 373.229926 254.384441 
L 365.655823 255.068888 
L 361.550918 256.617991 
L 363.339459 259.257699 
L 363.177931 263.28523 
L 365.286588 265.247206 
L 363.39413 266.552839 
L 359.709219 265.087713 
L 355.981606 266.97173 
L 348.775697 266.662825 
L 341.361583 261.414621 
L 332.69899 262.653021 
L 325.47605 260.354483 
L 319.29845 261.050847 
L 310.94069 263.371034 
L 301.900866 270.733606 
L 292.031603 275.015371 
L 286.609655 279.757241 
L 284.325517 284.226207 
L 284.226207 291.078621 
L 284.722759 295.845517 
L 286.609655 299.222069 
L 282.736552 299.52 
L 267.93931 294.256552 
L 265.158621 289.588966 
L 262.973793 282.637241 
L 257.114483 276.976552 
L 248.696938 264.357087 
L 241.697545 260.398676 
L 233.577931 260.590345 
L 227.321379 268.435862 
L 219.078621 265.456552 
L 213.944574 262.457777 
L 208.180601 251.811112 
L 197.201545 244.303945 
L 193.579796 240.782698 
L 176.375172 240.779384 
L 176.355906 244.877263 
L 148.731046 244.951746 
L 111.078621 233.128254 
L 112.008265 231.18624 
L 88.110521 233.028348 
L 86.440343 227.954735 
L 80.004414 222.244273 
L 75.370571 221.055798 
L 74.285182 218.206859 
L 68.712828 217.708138 
L 65.1591 215.02202 
L 55.933771 214.042494 
L 53.400563 212.439228 
L 52.19424 206.993942 
L 42.558753 197.01653 
L 34.287194 183.210108 
L 34.639349 180.909782 
L 30.257975 177.629363 
L 22.571255 169.307652 
L 21.20107 161.210582 
L 15.908822 155.786152 
L 18.085804 147.555112 
L 17.739807 139.038058 
L 14.570417 131.42741 
L 18.450472 122.068502 
L 20.865799 104.043377 
L 19.071211 90.722483 
L 15.932657 82.227277 
z
" clip-path="url(#pe7b7564bf8)" style="fill: #f59e0b; stroke: #b45309; stroke-width: 1.15"/>
    <path d="M -418.201424 -96.033074 
L -404.245452 -100.187432 
L -382.093668 -105.037176 
L -373.928393 -105.037176 
L -375.279906 -100.077094 
L -354.317208 -100.463534 
L -362.380613 -106.615267 
L -374.59581 -110.397298 
L -381.659501 -115.362255 
L -391.186297 -119.597185 
L -404.833066 -122.736432 
L -399.274336 -127.941824 
L -381.657704 -128.264627 
L -369.122784 -132.789002 
L -366.758726 -137.62489 
L -356.612497 -142.344794 
L -346.938669 -143.480507 
L -328.113194 -147.889412 
L -318.982075 -147.224817 
L -303.699223 -152.51848 
L -288.673228 -150.43309 
L -281.486882 -145.950541 
L -277.075924 -147.872989 
L -260.292474 -147.277164 
L -260.8883 -144.993165 
L -245.693718 -143.304992 
L -235.564168 -144.298035 
L -214.643039 -141.160071 
L -195.541968 -140.226303 
L -187.895281 -138.935091 
L -174.681397 -140.549106 
L -148.82636 -136.174329 
L -148.94347 -42.766908 
L -139.163586 -42.473247 
L -129.490759 -39.724138 
L -113.735172 -28.849655 
L -104.074461 -34.400011 
L -94.104794 -37.616574 
L -88.833103 -32.480044 
L -73.04832 -23.936574 
L -56.684458 -5.483123 
L -39.801401 0.835895 
L -39.525517 7.10069 
L -45.048267 11.889897 
L -50.507436 8.154311 
L -59.260583 4.987608 
L -62.069072 -3.674445 
L -74.871867 -11.707572 
L -80.223521 -21.084257 
L -105.547653 -21.969528 
L -117.186269 -24.827541 
L -137.721471 -35.133632 
L -164.60137 -40.562779 
L -178.350266 -39.715999 
L -197.881392 -44.278607 
L -209.687576 -48.509688 
L -220.710351 -46.407619 
L -218.662168 -39.508922 
L -235.642174 -36.80102 
L -244.385314 -33.449821 
L -255.390384 -31.340567 
L -256.810922 -37.191566 
L -252.344796 -46.93211 
L -241.790316 -49.988732 
L -244.5131 -52.479806 
L -257.172472 -46.945966 
L -263.95031 -40.336458 
L -278.259365 -33.271741 
L -270.993216 -28.449709 
L -280.377856 -21.31571 
L -300.993117 -14.129621 
L -303.453657 -9.732263 
L -318.957185 -4.604108 
L -322.096432 0.058061 
L -333.715803 4.303255 
L -340.532388 3.539613 
L -368.137952 13.012267 
L -385.180825 15.848212 
L -386.736592 14.179284 
L -375.873166 9.539439 
L -366.157255 6.474606 
L -355.572496 1.042893 
L -343.25235 -0.07999 
L -338.355905 -4.151722 
L -324.59033 -10.096636 
L -322.372277 -12.085287 
L -315.039926 -15.591729 
L -313.326863 -23.122689 
L -308.275945 -28.987544 
L -319.726986 -25.977623 
L -322.929613 -27.685554 
L -328.306157 -24.074676 
L -334.791728 -29.111738 
L -337.469351 -25.548074 
L -341.183383 -30.499432 
L -351.111758 -26.524181 
L -357.208323 -26.532393 
L -358.063315 -32.443948 
L -356.267626 -36.085619 
L -362.662104 -39.622083 
L -375.575253 -37.718622 
L -383.955816 -42.380535 
L -390.750333 -44.764095 
L -390.794468 -50.389028 
L -398.4468 -54.620879 
L -394.604212 -60.331003 
L -386.507705 -65.873311 
L -382.965596 -70.970931 
L -374.929647 -71.696597 
L -368.115885 -70.107728 
L -360.104826 -74.899224 
L -352.893847 -74.043975 
L -345.326963 -77.125487 
L -347.172432 -81.660896 
L -352.731162 -83.448373 
L -345.379309 -87.279928 
L -351.47844 -87.167024 
L -362.016498 -85.00414 
L -365.04284 -82.810978 
L -372.874536 -85.001318 
L -386.921345 -83.886903 
L -401.464932 -86.26764 
L -405.633146 -90.262135 
z
" clip-path="url(#pe7b7564bf8)" style="fill: #f59e0b; stroke: #b45309; stroke-width: 1.15"/>
    <path d="M -298.660668 360.467354 
L -296.442174 357.742775 
L -297.127316 355.789738 
L -296.551415 354.86357 
L -288.618306 358.916524 
L -286.087382 362.396259 
L -293.383713 366.619233 
L -294.83424 368.280596 
L -297.301903 366.858472 
L -297.017975 364.082847 
z
" clip-path="url(#pe7b7564bf8)" style="fill: #f59e0b; stroke: #b45309; stroke-width: 1.15"/>
    <path d="M -454.753098 -73.547711 
L -454.162661 -77.288428 
L -448.032995 -75.398311 
L -441.842772 -76.419067 
L -433.812468 -73.798666 
L -423.950295 -72.471786 
L -424.76962 -71.390216 
L -432.292368 -69.288147 
L -443.633071 -73.249541 
L -452.389041 -72.673217 
z
" clip-path="url(#pe7b7564bf8)" style="fill: #f59e0b; stroke: #b45309; stroke-width: 1.15"/>
    <path d="M -284.732618 -14.511186 
L -270.409451 -19.553893 
L -263.815852 -18.88314 
L -259.608634 -15.800858 
L -268.200636 -11.081467 
L -278.119517 -7.296101 
L -283.197379 -9.859024 
z
" clip-path="url(#pe7b7564bf8)" style="fill: #f59e0b; stroke: #b45309; stroke-width: 1.15"/>
    <path d="M -304.987531 348.313556 
L -304.014588 347.462168 
L -297.887934 349.929534 
L -298.718168 351.121953 
L -302.046952 351.832618 
z
" clip-path="url(#pe7b7564bf8)" style="fill: #f59e0b; stroke: #b45309; stroke-width: 1.15"/>
    <path d="M -320.699421 341.834946 
L -318.043366 340.466052 
L -314.345346 344.386726 
L -314.883608 344.960243 
L -319.051068 344.483354 
z
" clip-path="url(#pe7b7564bf8)" style="fill: #f59e0b; stroke: #b45309; stroke-width: 1.15"/>
    <path d="M -335.67403 337.006378 
L -333.645021 335.309661 
L -331.355818 335.520596 
L -331.151537 337.833931 
L -332.329357 338.817203 
z
" clip-path="url(#pe7b7564bf8)" style="fill: #f59e0b; stroke: #b45309; stroke-width: 1.15"/>
    <path d="M -411.693786 -41.840135 
L -401.887039 -43.539342 
L -394.008129 -42.639958 
L -393.062044 -38.830215 
L -399.155786 -37.285481 
z
" clip-path="url(#pe7b7564bf8)" style="fill: #f59e0b; stroke: #b45309; stroke-width: 1.15"/>
    <path d="M -311.091741 346.61525 
L -310.347509 345.40555 
L -305.461142 345.830003 
L -305.769898 346.903647 
z
" clip-path="url(#pe7b7564bf8)" style="fill: #f59e0b; stroke: #b45309; stroke-width: 1.15"/>
   </g>
   <g id="PathCollection_2">
    <path d="M 288 182.893835 
C 289.096672 182.893835 290.148574 182.458123 290.924038 181.682659 
C 291.699502 180.907195 292.135215 179.855292 292.135215 178.758621 
C 292.135215 177.661949 291.699502 176.610046 290.924038 175.834582 
C 290.148574 175.059118 289.096672 174.623406 288 174.623406 
C 286.903328 174.623406 285.851426 175.059118 285.075962 175.834582 
C 284.300498 176.610046 283.864785 177.661949 283.864785 178.758621 
C 283.864785 179.855292 284.300498 180.907195 285.075962 181.682659 
C 285.851426 182.458123 286.903328 182.893835 288 182.893835 
L 288 182.893835 
z
" clip-path="url(#pe7b7564bf8)" style="fill: none; stroke: #7c2d12; stroke-width: 1.1"/>
   </g>
  </g>
 </g>
 <defs>
  <clipPath id="pe7b7564bf8">
   <rect x="0" y="-0" width="576" height="357.517241"/>
  </clipPath>
 </defs>
</svg>
