<?xml version="1.0" encoding="utf-8" standalone="no"?>
<!DOCTYPE svg PUBLIC "-//W3C//DTD SVG 1.1//EN"
  "http://www.w3.org/Graphics/SVG/1.1/DTD/svg11.dtd">
<svg xmlns:xlink="http://www.w3.org/1999/xlink" width="536.804734pt" height="432pt" viewBox="0 0 536.804734 432" xmlns="http://www.w3.org/2000/svg" version="1.1">
 <metadata>
  <rdf:RDF xmlns:dc="http://purl.org/dc/elements/1.1/" xmlns:cc="http://creativecommons.org/ns#" xmlns:rdf="http://www.w3.org/1999/02/22-rdf-syntax-ns#">
   <cc:Work>
    <dc:type rdf:resource="http://purl.org/dc/dcmitype/StillImage"/>
    <dc:date>2026-06-09T04:57:17.047434</dc:date>
    <dc:format>image/svg+xml</dc:format>
    <dc:creator>
     <cc:Agent>
      <dc:title>Matplotlib v3.10.8, https://matplotlib.org/</dc:title>
     </cc:Agent>
    </dc:creator>
   </cc:Work>
  </rdf:RDF>
 </metadata>
 <defs>
  <style type="text/css">*{stroke-linejoin: round; stroke-linecap: butt}</style>
 </defs>
 <g id="figure_1">
  <g id="patch_1">
   <path d="M 0 432 
L 536.804734 432 
L 536.804734 0 
L 0 0 
z
" style="fill: #eaf3ff"/>
  </g>
  <g id="axes_1">
   <g id="PatchCollection_1">
    <path d="M 259.966833 247.952451 
L 265.251993 247.344149 
L 278.016795 233.37343 
L 277.898826 229.219583 
L 275.146424 226.322244 
L 274.40525 221.289188 
L 278.094363 219.671364 
L 278.83344 212.151801 
L 273.758973 204.940022 
L 278.241998 203.404899 
L 318.295954 202.579882 
L 366.799825 230.020701 
L 367.671621 237.43538 
L 386.01654 250.211972 
L 380.115778 265.960544 
L 380.8728 273.203702 
L 389.055621 277.860355 
L 389.439053 281.183432 
L 385.920298 288.901917 
L 386.653164 292.786211 
L 385.815877 298.891725 
L 395.568852 319.506178 
L 400.259375 322.301396 
L 390.090888 329.711602 
L 376.115516 334.674775 
L 368.447943 334.465008 
L 363.893411 338.298944 
L 354.996013 338.628408 
L 351.659269 340.243941 
L 336.30047 336.642345 
L 326.683884 337.675996 
L 323.105325 320.293491 
L 316.199972 310.799077 
L 303.670124 308.414757 
L 296.416734 304.577369 
L 283.199662 300.28574 
L 277.860479 297.032028 
L 270.958539 280.927567 
L 263.545973 273.770608 
L 260.989256 266.357382 
L 262.267284 259.710973 
z
" clip-path="url(#p581595af4f)" style="fill: #e8edf4; stroke: #b8c5d4; stroke-width: 0.45"/>
    <path d="M 40.673655 264.439349 
L 43.924536 263.089328 
L 44.324787 257.51752 
L 46.415866 254.231633 
L 51.066965 251.545461 
L 54.424845 252.847267 
L 58.795901 247.954432 
L 65.758019 248.080584 
L 66.577014 251.698692 
L 71.351622 253.962817 
L 89.547842 235.620632 
L 89.119851 225.105132 
L 94.670524 212.688771 
L 100.526999 206.105108 
L 108.942172 199.944813 
L 110.41108 195.867671 
L 110.729431 191.180245 
L 112.812584 186.745123 
L 112.143518 179.501641 
L 113.736596 168.175402 
L 116.23453 160.201429 
L 120.062671 153.367114 
L 121.969477 136.73458 
L 126.945532 130.245365 
L 133.789424 126.129585 
L 144.306905 130.473231 
L 152.447319 135.188066 
L 171.331759 138.940913 
L 175.153295 131.222545 
L 176.908851 130.23744 
L 182.733623 131.521082 
L 196.963 125.142168 
L 202.005103 127.845842 
L 206.14367 127.462434 
L 208.060383 124.354546 
L 212.810554 123.25947 
L 230.622374 124.898451 
L 234.84218 123.542486 
L 242.584325 134.093651 
L 248.323234 135.643467 
L 251.74452 133.497238 
L 257.654493 134.338359 
L 264.772484 131.634685 
L 267.80805 137.093551 
L 279.059984 145.586991 
L 278.286563 160.531669 
L 283.409244 162.262456 
L 279.300399 166.800613 
L 274.390392 170.195149 
L 269.503502 176.860382 
L 266.814688 182.802719 
L 266.095426 193.061952 
L 263.134494 197.94554 
L 263.027497 207.581281 
L 259.351926 211.143909 
L 258.878362 218.749334 
L 257.122807 219.73477 
L 255.939888 226.72661 
L 259.153782 232.537512 
L 259.966833 247.952451 
L 262.267284 259.710973 
L 260.989256 266.357382 
L 263.545973 273.770608 
L 270.958539 280.927567 
L 277.860553 297.032047 
L 272.825715 295.731563 
L 255.658523 297.88869 
L 252.232614 299.41638 
L 248.590068 307.575287 
L 251.450606 313.211822 
L 247.598027 341.173236 
L 259.986648 348.421342 
L 263.494456 346.097114 
L 264.563112 359.879347 
L 254.781406 359.77367 
L 244.822691 347.293243 
L 235.028435 345.507305 
L 232.160632 338.81004 
L 224.347155 342.844911 
L 214.112359 341.062276 
L 209.841036 335.2593 
L 201.72572 334.080343 
L 195.735829 334.388788 
L 195.002696 330.416001 
L 184.773184 329.34074 
L 168.138339 332.113434 
L 168.821936 316.903905 
L 164.558538 312.160999 
L 163.620657 304.300628 
L 165.503685 296.596131 
L 162.913283 291.664988 
L 162.678812 283.622986 
L 147.170746 283.734607 
L 148.283654 279.129741 
L 141.762737 279.177956 
L 141.073856 281.392545 
L 133.146777 281.891868 
L 128.024756 292.536161 
L 120.962245 290.73107 
L 116.745081 292.528896 
L 108.293581 293.562547 
L 100.461611 282.746529 
L 93.640836 265.558201 
L 55.924795 265.389119 
L 42.464215 268.403549 
z
" clip-path="url(#p581595af4f)" style="fill: #e8edf4; stroke: #b8c5d4; stroke-width: 0.45"/>
    <path d="M 408.751882 154.848738 
L 423.418921 136.321179 
L 431.61235 136.08524 
L 443.002836 127.075101 
L 459.653112 126.511839 
L 495.770102 88.151006 
L 510.451833 69.634451 
L 510.580605 44.598028 
L 527.331153 41.160525 
L 533.379664 36.785183 
L 538.225988 36.750163 
L 537.383844 54.435834 
L 534.685378 59.052099 
L 531.083801 72.868175 
L 517.028592 103.467067 
L 506.060521 122.198357 
L 480.117643 153.944222 
L 467.326736 164.290878 
L 448.208308 176.981581 
L 436.294054 186.703243 
L 422.306457 202.185714 
L 419.358888 208.925297 
L 416.472667 211.951598 
L 408.904615 201.40773 
z
" clip-path="url(#p581595af4f)" style="fill: #e8edf4; stroke: #b8c5d4; stroke-width: 0.45"/>
    <path d="M 318.166325 189.034336 
L 328.116781 175.395323 
L 332.767683 166.079205 
L 325.650419 144.993515 
L 319.590533 136.119814 
L 336.116541 120.065325 
L 342.755544 122.209578 
L 342.755544 129.383161 
L 347.121952 133.589429 
L 356.01776 133.589429 
L 372.19631 144.443865 
L 379.228772 144.220644 
L 382.058116 145.694684 
L 390.581479 146.700298 
L 394.358996 141.374045 
L 406.035011 136.02862 
L 411.18987 140.347725 
L 419.922956 140.350001 
L 408.751882 154.848738 
L 408.904615 201.40773 
L 416.472667 211.951598 
L 407.521321 217.055077 
L 404.36542 222.387849 
L 399.574949 223.324701 
L 397.761955 232.330111 
L 393.657572 237.487015 
L 391.163091 245.991153 
L 386.01654 250.211972 
L 367.671621 237.43538 
L 366.799825 230.020701 
L 318.295954 202.579882 
z
" clip-path="url(#p581595af4f)" style="fill: #e8edf4; stroke: #b8c5d4; stroke-width: 0.45"/>
    <path d="M 165.346211 29.547522 
L 166.634286 24.853292 
L 169.944454 19.525378 
L 168.496488 14.231972 
L 172.698007 10.312019 
L 170.033027 7.325851 
L 173.412852 -0.566073 
L 179.249198 -9.978433 
L 190.27031 -9.085292 
L 189.798817 -65.183432 
L 204.497041 -65.222286 
L 204.497041 -90.745562 
L 356.160099 -90.745562 
L 360.281865 -78.20542 
L 357.47885 -75.886807 
L 359.335811 -62.728956 
L 364.027612 -47.470026 
L 375.892274 -39.599669 
L 369.423905 -32.304653 
L 360.010267 -30.203446 
L 355.984999 -26.284899 
L 354.724275 -17.789453 
L 349.219853 0.99066 
L 350.578353 6.107943 
L 348.542457 17.084066 
L 343.345804 29.674054 
L 335.637032 36.00605 
L 330.155744 45.769505 
L 328.871503 50.994277 
L 322.817112 54.573998 
L 319.03609 67.94951 
L 319.206845 79.439943 
L 319.058748 69.474224 
L 317.289474 69.221471 
L 317.508891 62.858369 
L 315.97297 58.470023 
L 309.390451 53.423425 
L 307.85453 44.207899 
L 309.390451 34.772955 
L 303.466184 33.895285 
L 302.588515 36.74771 
L 294.908909 37.405962 
L 297.980752 41.136056 
L 299.077838 48.815662 
L 292.056485 55.837016 
L 285.693383 65.052542 
L 279.110864 66.369046 
L 268.359416 58.908858 
L 263.532235 61.541865 
L 262.215732 65.271959 
L 255.633213 67.68555 
L 255.194378 70.318557 
L 242.468175 70.318557 
L 240.712836 67.68555 
L 231.49731 67.246715 
L 226.889546 69.440888 
L 223.378869 68.343802 
L 214.602177 57.372937 
L 205.386651 59.128275 
L 201.875974 65.052542 
L 198.584715 76.462242 
L 190.271455 80.268543 
L 198.967557 85.260083 
L 189.234065 79.673084 
L 184.801585 75.99256 
L 183.980608 72.020434 
L 186.057157 66.70159 
L 186.01951 61.486441 
L 178.647894 53.495626 
L 177.352871 44.930428 
L 172.655446 41.163209 
L 172.51396 33.738944 
L 169.834921 28.807882 
z
" clip-path="url(#p581595af4f)" style="fill: #e8edf4; stroke: #b8c5d4; stroke-width: 0.45"/>
    <path d="M 58.031065 6.810599 
L 63.549628 -10.025084 
L 79.852659 -22.076808 
L 80.526348 -38.700425 
L 85.450886 -64.636148 
L 88.230845 -70.137615 
L 82.912662 -74.518908 
L 82.707039 -78.58374 
L 77.924718 -81.907696 
L 74.785846 -101.774982 
L 87.68897 -108.763285 
L 189.641098 -59.821392 
L 190.27031 -9.085292 
L 179.249198 -9.978433 
L 173.412852 -0.566073 
L 170.033027 7.325851 
L 172.698007 10.312019 
L 168.496488 14.231972 
L 169.944454 19.525378 
L 166.634286 24.853292 
L 165.346211 29.547522 
L 169.834921 28.807882 
L 172.51396 33.738944 
L 172.655446 41.163209 
L 177.352871 44.930428 
L 177.198801 48.026192 
L 169.107923 50.205446 
L 162.623993 55.379645 
L 153.38388 69.324686 
L 141.35456 75.245888 
L 129.012173 74.451661 
L 125.407935 75.626654 
L 126.673414 80.125843 
L 114.581349 89.583584 
L 98.490739 94.473447 
L 95.29798 91.579224 
L 93.181142 91.329563 
L 90.82521 94.617101 
L 80.258193 95.577769 
L 82.260108 92.115534 
L 76.430712 78.014289 
L 70.864188 75.844613 
L 63.320188 68.385153 
L 66.096845 62.353982 
L 71.921617 63.637955 
L 75.527837 62.727813 
L 82.666303 62.852974 
L 75.709468 51.235134 
L 76.177088 42.745326 
L 75.323418 34.265396 
L 70.242016 26.081089 
L 71.520045 20.060815 
L 63.32349 19.766572 
L 63.351891 11.545249 
z
" clip-path="url(#p581595af4f)" style="fill: #e8edf4; stroke: #b8c5d4; stroke-width: 0.45"/>
    <path d="M 207.874127 417.12974 
L 222.159646 418.529296 
L 226.311422 420.001506 
L 230.626997 419.70495 
L 237.70536 411.433101 
L 248.820575 400.921564 
L 253.395719 399.916314 
L 254.949828 395.485155 
L 262.226995 390.393515 
L 271.907648 388.643904 
L 272.734569 393.411908 
L 283.395374 393.157624 
L 289.318557 395.855023 
L 292.073419 399.017401 
L 298.159741 399.946035 
L 304.798224 404.052899 
L 304.826624 420.229371 
L 302.334634 429.087067 
L 301.786435 438.638266 
L 303.840528 442.424136 
L 302.396719 449.948323 
L 300.466136 451.111428 
L 297.095708 460.329084 
L 283.629845 474.835864 
L 276.836149 473.558496 
L 272.52916 475.09279 
L 266.345087 472.927737 
L 261.145129 472.788376 
L 252.996789 467.01314 
L 243.113369 465.051515 
L 239.353918 456.946107 
L 239.322215 452.437671 
L 233.848818 451.063213 
L 219.38431 437.024053 
L 215.36595 429.628 
L 212.794042 427.348023 
z
" clip-path="url(#p581595af4f)" style="fill: #e8edf4; stroke: #b8c5d4; stroke-width: 0.45"/>
    <path d="M 139.255555 469.693368 
L 151.853548 469.248204 
L 152.230682 423.720668 
L 161.744894 423.297961 
L 181.450971 418.82321 
L 186.335219 424.091858 
L 194.494127 419.082778 
L 198.371143 419.054378 
L 205.576318 416.174686 
L 207.874127 417.12974 
L 212.794042 427.348023 
L 215.36595 429.628 
L 219.38431 437.024053 
L 233.848818 451.063213 
L 239.322215 452.437671 
L 239.353918 456.946107 
L 243.113369 465.051515 
L 252.996789 467.01314 
L 261.145129 472.788376 
L 243.060531 482.200874 
L 231.585354 491.742827 
L 227.329222 500.259714 
L 223.48655 505.060742 
L 216.532358 506.083826 
L 212.992186 516.186525 
L 204.818748 519.162647 
L 194.41619 518.530568 
L 188.310714 514.950767 
L 182.923841 513.39864 
L 176.688911 516.360892 
L 173.560878 522.48288 
L 161.116778 532.031437 
L 151.961867 533.335224 
L 149.109915 528.847924 
L 150.28755 521.060206 
L 142.709865 508.915963 
L 139.259518 506.996609 
z
" clip-path="url(#p581595af4f)" style="fill: #e8edf4; stroke: #b8c5d4; stroke-width: 0.45"/>
    <path d="M 34.945973 411.574444 
L 48.748021 406.966276 
L 57.03374 407.348033 
L 64.653036 413.127232 
L 66.5856 412.228979 
L 118.39496 411.677478 
L 127.250674 417.801448 
L 158.193494 419.610502 
L 192.148763 411.497167 
L 200.437124 412.232942 
L 205.480548 415.113955 
L 205.576318 416.174686 
L 198.371143 419.054378 
L 194.494127 419.082778 
L 186.335219 424.091858 
L 181.450971 418.82321 
L 161.744894 423.297961 
L 152.230682 423.720668 
L 151.853548 469.248204 
L 139.255555 469.693368 
L 139.246309 554.201103 
L 127.83784 560.736551 
L 120.971492 561.669809 
L 107.201147 558.321837 
L 105.046662 552.857027 
L 99.999275 549.357804 
L 93.876627 555.678597 
L 84.378266 546.023042 
L 79.376453 536.689141 
L 69.121843 495.304794 
L 68.835194 480.014026 
L 67.199186 473.042661 
L 62.226433 467.774674 
L 55.62956 457.214922 
L 46.121292 433.857713 
L 35.722037 421.380588 
z
" clip-path="url(#p581595af4f)" style="fill: #e8edf4; stroke: #b8c5d4; stroke-width: 0.45"/>
    <path d="M -111.25091 5.825163 
L -110.238064 -0.369477 
L -102.046793 -0.871442 
L -97.32106 -5.413562 
L -79.88175 -6.51227 
L -68.528762 -8.539283 
L -67.440291 -16.414514 
L -60.451754 -24.951547 
L -60.48742 -54.386822 
L -42.464246 -60.086432 
L -5.458881 -85.194243 
L 38.336877 -109.555052 
L 58.555486 -104.044338 
L 65.744149 -97.024758 
L 74.785846 -101.774982 
L 77.924718 -81.907696 
L 82.707039 -78.58374 
L 82.912662 -74.518908 
L 88.230845 -70.137615 
L 85.450886 -64.636148 
L 80.526348 -38.700425 
L 79.852659 -22.076808 
L 63.549628 -10.025084 
L 58.031065 6.810599 
L 63.351891 11.545249 
L 63.32349 19.766572 
L 71.520045 20.060815 
L 70.242016 26.081089 
L 66.634475 26.814222 
L 66.222996 30.883438 
L 63.84593 31.165793 
L 55.197606 17.173197 
L 52.197707 16.664628 
L 42.203986 23.808708 
L 32.308017 20.079309 
L 25.429119 19.333627 
L 21.741 21.128151 
L 14.248517 20.740449 
L 6.709139 26.187096 
L 0.190864 26.499503 
L -15.277574 19.893384 
L -21.334835 23.030993 
L -27.857074 22.813035 
L -32.650176 17.985918 
L -45.461503 13.216593 
L -59.197503 14.730413 
L -62.525661 17.494521 
L -64.323487 24.845001 
L -67.987168 29.998395 
L -68.874853 41.408515 
L -78.620894 34.053411 
L -83.202643 34.086435 
L -87.49312 37.830035 
L -87.20383 29.076695 
L -101.940456 26.177849 
L -102.337404 19.992786 
L -109.534653 11.646963 
z
" clip-path="url(#p581595af4f)" style="fill: #e8edf4; stroke: #b8c5d4; stroke-width: 0.45"/>
    <path d="M -80.626771 110.443519 
L -80.216613 81.711325 
L -77.807183 73.649508 
L -67.670138 61.819323 
L -69.016857 58.381526 
L -66.498447 53.236388 
L -69.372855 45.65474 
L -67.987168 29.998395 
L -64.323487 24.845001 
L -62.525661 17.494521 
L -59.197503 14.730413 
L -45.461503 13.216593 
L -32.650176 17.985918 
L -27.857074 22.813035 
L -21.334835 23.030993 
L -15.277574 19.893384 
L 0.190864 26.499503 
L 6.709139 26.187096 
L 14.248517 20.740449 
L 21.741 21.128151 
L 25.429119 19.333627 
L 32.308017 20.079309 
L 42.203986 23.808708 
L 52.197707 16.664628 
L 55.197606 17.173197 
L 63.84593 31.165793 
L 66.222996 30.883438 
L 71.282272 35.974086 
L 69.21431 42.53067 
L 58.447167 52.420695 
L 53.266363 67.220397 
L 50.555094 70.068717 
L 47.97592 79.015577 
L 41.140614 84.280592 
L 39.160495 90.74801 
L 36.289389 95.89579 
L 35.093921 101.20836 
L 26.313502 105.515019 
L 19.138049 100.262883 
L 14.292769 100.474897 
L 6.680738 107.955492 
L 2.98007 108.070415 
L -6.386855 129.446845 
L -19.655895 134.046427 
L -24.506459 133.374389 
L -29.42109 136.23856 
L -39.644657 135.959177 
L -46.487229 127.964398 
L -50.695146 118.713057 
L -59.74372 110.292269 
z
" clip-path="url(#p581595af4f)" style="fill: #e8edf4; stroke: #b8c5d4; stroke-width: 0.45"/>
    <path d="M -6.533482 132.979092 
L -6.386855 129.446845 
L -3.098987 120.401904 
L 2.98007 108.070415 
L 6.680738 107.955492 
L 14.292769 100.474897 
L 19.138049 100.262883 
L 26.313502 105.515019 
L 35.093921 101.20836 
L 36.289389 95.89579 
L 39.160495 90.74801 
L 41.140614 84.280592 
L 47.97592 79.015577 
L 50.555094 70.068717 
L 53.266363 67.220397 
L 58.447167 52.420695 
L 69.21431 42.53067 
L 71.282272 35.974086 
L 66.222996 30.883438 
L 66.634475 26.814222 
L 70.242016 26.081089 
L 75.323418 34.265396 
L 76.177088 42.745326 
L 75.709468 51.235134 
L 82.666303 62.852974 
L 75.527837 62.727813 
L 71.921617 63.637955 
L 66.096845 62.353982 
L 63.320188 68.385153 
L 70.864188 75.844613 
L 76.430712 78.014289 
L 82.260108 92.115534 
L 73.830403 108.530439 
L 70.763135 110.850705 
L 69.777039 120.758563 
L 71.049123 126.141474 
L 70.019435 129.950131 
L 76.059523 136.62461 
L 77.149315 141.213294 
L 81.867783 147.809176 
L 87.713029 151.921653 
L 89.631723 161.45502 
L 88.712335 168.356373 
L 68.222929 161.963259 
L 50.502255 160.765148 
L 42.936459 162.411394 
L 35.169216 160.699431 
L 29.095443 161.539231 
L 8.296933 161.247629 
L 10.163449 151.156488 
L 5.16824 142.706639 
L -0.663137 140.538944 
L -3.260144 134.811923 
z
" clip-path="url(#p581595af4f)" style="fill: #e8edf4; stroke: #b8c5d4; stroke-width: 0.45"/>
    <path d="M 69.777039 120.758563 
L 70.763135 110.850705 
L 73.830403 108.530439 
L 80.258193 95.577769 
L 90.82521 94.617101 
L 93.181142 91.329563 
L 95.29798 91.579224 
L 98.490739 94.473447 
L 114.581349 89.583584 
L 126.673414 80.125843 
L 125.407935 75.626654 
L 129.012173 74.451661 
L 141.35456 75.245888 
L 153.38388 69.324686 
L 162.623993 55.379645 
L 169.107923 50.205446 
L 177.198801 48.026192 
L 178.647894 53.495626 
L 186.01951 61.486441 
L 186.057157 66.70159 
L 183.980608 72.020434 
L 184.801585 75.99256 
L 205.966001 90.424705 
L 206.083566 94.578793 
L 214.679051 101.234779 
L 220.005821 106.765307 
L 223.232926 114.432487 
L 232.786767 119.490772 
L 234.84218 123.542486 
L 230.622374 124.898451 
L 212.810554 123.25947 
L 208.060383 124.354546 
L 206.14367 127.462434 
L 202.005103 127.845842 
L 196.963 125.142168 
L 182.733623 131.521082 
L 176.908851 130.23744 
L 175.153295 131.222545 
L 171.331759 138.940913 
L 152.447319 135.188066 
L 144.306905 130.473231 
L 133.789424 126.129585 
L 126.945532 130.245365 
L 121.969477 136.73458 
L 120.820242 145.648086 
L 112.59991 144.934767 
L 103.948945 142.787547 
L 96.331631 149.560768 
L 89.631723 161.45502 
L 87.713029 151.921653 
L 81.867783 147.809176 
L 77.149315 141.213294 
L 76.059523 136.62461 
L 70.019435 129.950131 
L 71.049123 126.141474 
z
" clip-path="url(#p581595af4f)" style="fill: #e8edf4; stroke: #b8c5d4; stroke-width: 0.45"/>
    <path d="M 26.760647 241.291511 
L 36.491496 234.236926 
L 31.671975 225.785426 
L 36.054919 222.571531 
L 44.678804 221.006194 
L 45.695943 215.341919 
L 52.525305 221.479758 
L 63.808282 222.017389 
L 67.729551 215.977961 
L 69.343103 207.480227 
L 67.949491 197.501037 
L 61.902798 189.942506 
L 67.436298 175.139832 
L 64.24618 172.599626 
L 54.736591 173.641203 
L 51.164056 167.037065 
L 52.093351 161.461955 
L 68.222929 161.963259 
L 88.712335 168.356373 
L 89.631723 161.45502 
L 96.331631 149.560768 
L 103.948945 142.787547 
L 112.59991 144.934767 
L 120.820242 145.648086 
L 120.062671 153.367114 
L 116.23453 160.201429 
L 113.736596 168.175402 
L 112.143518 179.501641 
L 112.812584 186.745123 
L 110.729431 191.180245 
L 110.41108 195.867671 
L 108.942172 199.944813 
L 100.526999 206.105108 
L 94.670524 212.688771 
L 89.119851 225.105132 
L 89.547842 235.620632 
L 71.351622 253.962817 
L 66.577014 251.698692 
L 65.758019 248.080584 
L 58.795901 247.954432 
L 54.424845 252.847267 
L 51.066965 251.545461 
L 46.277166 247.160535 
L 42.41534 249.310397 
L 37.256332 254.828706 
z
" clip-path="url(#p581595af4f)" style="fill: #e8edf4; stroke: #b8c5d4; stroke-width: 0.45"/>
    <path d="M -2.581831 204.641485 
L -2.171673 200.39526 
L 0.618854 196.308871 
L 6.299642 177.527466 
L 29.205743 176.919825 
L 29.095443 161.539231 
L 35.169216 160.699431 
L 42.936459 162.411394 
L 50.502255 160.765148 
L 52.093351 161.461955 
L 51.164056 167.037065 
L 54.736591 173.641203 
L 64.24618 172.599626 
L 67.436298 175.139832 
L 61.902798 189.942506 
L 67.949491 197.501037 
L 69.343103 207.480227 
L 67.729551 215.977961 
L 63.808282 222.017389 
L 52.525305 221.479758 
L 45.695943 215.341919 
L 44.678804 221.006194 
L 36.054919 222.571531 
L 31.671975 225.785426 
L 36.491496 234.236926 
L 26.760647 241.291511 
L 13.626345 228.391019 
L 5.179468 217.844477 
z
" clip-path="url(#p581595af4f)" style="fill: #e8edf4; stroke: #b8c5d4; stroke-width: 0.45"/>
    <path d="M 3.906063 175.600186 
L 8.296933 161.247629 
L 29.095443 161.539231 
L 29.205743 176.919825 
L 6.299642 177.527466 
z
" clip-path="url(#p581595af4f)" style="fill: #e8edf4; stroke: #b8c5d4; stroke-width: 0.45"/>
    <path d="M 164.720356 395.961361 
L 165.308843 355.293635 
L 191.922218 355.454792 
L 190.833087 351.042787 
L 192.73725 346.255629 
L 190.490958 340.261114 
L 191.944674 334.06251 
L 190.593993 330.094348 
L 195.002696 330.416001 
L 195.735829 334.388788 
L 201.72572 334.080343 
L 209.841036 335.2593 
L 214.112359 341.062276 
L 224.347155 342.844911 
L 232.160632 338.81004 
L 235.028435 345.507305 
L 244.822691 347.293243 
L 254.781406 359.77367 
L 264.563112 359.879347 
L 263.494456 346.097114 
L 259.986648 348.421342 
L 247.598027 341.173236 
L 251.450606 313.211822 
L 248.590068 307.575287 
L 252.232614 299.41638 
L 255.658523 297.88869 
L 272.825715 295.731563 
L 277.860479 297.032028 
L 283.199662 300.28574 
L 296.416734 304.577369 
L 303.670124 308.414757 
L 309.702947 314.11668 
L 312.953168 324.965722 
L 310.775566 328.429278 
L 308.2063 338.790225 
L 310.661964 349.380359 
L 306.640302 353.829351 
L 302.759983 365.702797 
L 309.481026 369.013122 
L 270.696328 379.547776 
L 271.907648 388.643904 
L 262.226995 390.393515 
L 254.949828 395.485155 
L 253.395719 399.916314 
L 248.820575 400.921564 
L 237.70536 411.433101 
L 230.626997 419.70495 
L 226.311422 420.001506 
L 222.159646 418.529296 
L 207.874127 417.12974 
L 200.437124 412.232942 
L 192.148763 411.497167 
L 181.68346 414.401958 
L 173.34292 406.418077 
z
" clip-path="url(#p581595af4f)" style="fill: #e8edf4; stroke: #b8c5d4; stroke-width: 0.45"/>
    <path d="M 302.759983 365.702797 
L 306.640302 353.829351 
L 310.661964 349.380359 
L 308.2063 338.790225 
L 310.775566 328.429278 
L 312.953168 324.965722 
L 309.702947 314.11668 
L 303.670124 308.414757 
L 316.199972 310.799077 
L 323.105325 320.293491 
L 326.683884 337.675996 
L 323.105404 347.389673 
L 326.683884 364.004704 
L 331.120987 363.818448 
L 335.732458 367.939182 
L 341.086307 377.182598 
L 342.173457 393.616657 
L 336.641278 396.308112 
L 332.739823 405.176375 
L 324.399944 397.280999 
L 323.454137 388.271394 
L 326.142951 382.329057 
L 325.401232 377.207696 
L 320.355166 373.973326 
L 316.838771 375.147659 
L 309.481026 369.013122 
z
" clip-path="url(#p581595af4f)" style="fill: #e8edf4; stroke: #b8c5d4; stroke-width: 0.45"/>
    <path d="M 270.696328 379.547776 
L 309.481026 369.013122 
L 316.838771 375.147659 
L 320.355166 373.973326 
L 325.401232 377.207696 
L 326.142951 382.329057 
L 323.454137 388.271394 
L 324.399944 397.280999 
L 332.739823 405.176375 
L 336.641278 396.308112 
L 342.173457 393.616657 
L 341.086307 377.182598 
L 335.732458 367.939182 
L 331.120987 363.818448 
L 326.683884 364.004704 
L 323.105404 347.389673 
L 326.683884 337.675996 
L 336.30047 336.642345 
L 351.659269 340.243941 
L 354.996013 338.628408 
L 363.893411 338.298944 
L 368.447943 334.465008 
L 376.115516 334.674775 
L 390.090888 329.711602 
L 400.259357 322.301346 
L 402.327319 328.031669 
L 401.801577 340.76506 
L 403.380785 351.980008 
L 403.876805 371.954239 
L 406.124418 378.214267 
L 397.353906 396.222911 
L 389.216134 404.148669 
L 363.124538 415.210385 
L 348.683807 428.928552 
L 343.765874 431.262027 
L 334.843452 440.343625 
L 329.577446 443.298611 
L 328.497561 452.411912 
L 334.558785 462.091245 
L 337.080497 469.58703 
L 337.239244 473.410651 
L 339.497623 472.771598 
L 339.131947 485.307111 
L 337.059362 491.244825 
L 340.07181 493.432995 
L 338.170949 498.750518 
L 332.828328 503.297261 
L 306.914401 514.534665 
L 301.308909 519.260398 
L 302.404645 524.64463 
L 305.671378 525.504575 
L 304.574321 532.231562 
L 294.880458 532.124564 
L 290.800014 516.154162 
L 293.077348 501.90497 
L 283.629845 474.835864 
L 297.095708 460.329084 
L 300.466136 451.111428 
L 302.396719 449.948323 
L 303.840528 442.424136 
L 301.786435 438.638266 
L 302.334634 429.087067 
L 304.826624 420.229371 
L 304.798224 404.052899 
L 298.159741 399.946035 
L 292.073419 399.017401 
L 289.318557 395.855023 
L 283.395374 393.157624 
L 272.734569 393.411908 
z
" clip-path="url(#p581595af4f)" style="fill: #e8edf4; stroke: #b8c5d4; stroke-width: 0.45"/>
    <path d="M 33.74324 403.538385 
L 35.512665 392.29966 
L 39.922689 380.598599 
L 40.587792 375.113314 
L 44.734945 363.591904 
L 47.781739 358.354299 
L 59.223892 344.304571 
L 60.565987 334.836593 
L 59.896921 327.59245 
L 56.074724 323.02325 
L 49.53135 307.601046 
L 50.217588 304.944596 
L 54.146123 299.877395 
L 47.651624 278.973868 
L 41.248933 270.887613 
L 42.464215 268.403549 
L 55.924795 265.389119 
L 93.640836 265.558201 
L 100.461611 282.746529 
L 108.293581 293.562547 
L 116.745081 292.528896 
L 120.962245 290.73107 
L 128.024756 292.536161 
L 133.146777 281.891868 
L 141.073856 281.392545 
L 141.762737 279.177956 
L 148.283654 279.129741 
L 147.170746 283.734607 
L 162.678812 283.622986 
L 162.913283 291.664988 
L 165.503685 296.596131 
L 163.620657 304.300628 
L 164.558538 312.160999 
L 168.821936 316.903905 
L 168.138339 332.113434 
L 184.773184 329.34074 
L 190.593993 330.094348 
L 191.944674 334.06251 
L 190.490958 340.261114 
L 192.73725 346.255629 
L 190.833087 351.042787 
L 191.922218 355.454792 
L 165.308843 355.293635 
L 164.720356 395.961361 
L 173.34292 406.418077 
L 181.68346 414.401958 
L 158.193494 419.610502 
L 127.250674 417.801448 
L 118.39496 411.677478 
L 66.5856 412.228979 
L 64.653036 413.127232 
L 57.03374 407.348033 
L 48.748021 406.966276 
L 34.945973 411.574444 
z
" clip-path="url(#p581595af4f)" style="fill: #e8edf4; stroke: #b8c5d4; stroke-width: 0.45"/>
    <path d="M 37.256332 254.828706 
L 42.41534 249.310397 
L 46.277166 247.160535 
L 51.066965 251.545461 
L 46.415866 254.231633 
L 44.324787 257.51752 
L 43.924536 263.089328 
L 40.673655 264.439349 
z
" clip-path="url(#p581595af4f)" style="fill: #e8edf4; stroke: #b8c5d4; stroke-width: 0.45"/>
    <path d="M 255.939888 226.72661 
L 263.701186 227.7312 
L 267.614529 220.454033 
L 274.405296 221.289505 
L 275.146424 226.322244 
L 277.898826 229.219583 
L 278.016795 233.37343 
L 265.251993 247.344149 
L 259.966833 247.952451 
L 259.153782 232.537512 
z
" clip-path="url(#p581595af4f)" style="fill: #e8edf4; stroke: #b8c5d4; stroke-width: 0.45"/>
    <path d="M 437.804994 472.355101 
L 440.094217 463.140747 
L 445.978432 460.927479 
L 446.012777 456.673328 
L 452.121555 446.984089 
L 453.272772 438.843675 
L 447.886559 424.732523 
L 446.865457 412.955507 
L 451.330961 405.805152 
L 453.044246 397.698423 
L 459.414574 397.2275 
L 471.276131 392.295037 
L 476.89021 392.123312 
L 484.174642 384.840201 
L 494.692784 376.968602 
L 498.52819 370.538831 
L 496.787826 365.076663 
L 502.21697 366.612939 
L 509.262309 357.731466 
L 509.4981 350.046123 
L 513.730455 344.329009 
L 521.582239 355.253346 
L 524.745938 363.694939 
L 526.802672 379.070909 
L 530.114318 385.048913 
L 528.843555 391.178166 
L 526.583393 394.938277 
L 522.242059 387.448436 
L 519.839233 391.231004 
L 522.277064 400.699643 
L 521.14236 406.11888 
L 517.615397 409.071225 
L 516.810272 419.89715 
L 497.576439 476.625103 
L 492.680962 494.396635 
L 486.904405 509.218463 
L 476.509774 512.245442 
L 465.352288 517.65147 
L 447.844948 509.815537 
L 444.317986 503.071377 
L 443.474553 491.740185 
L 438.974044 481.550962 
z
" clip-path="url(#p581595af4f)" style="fill: #e8edf4; stroke: #b8c5d4; stroke-width: 0.45"/>
    <path d="M 349.219853 0.99066 
L 354.724275 -17.789453 
L 355.984999 -26.284899 
L 360.010267 -30.203446 
L 369.423905 -32.304653 
L 375.892274 -39.599669 
L 383.312105 -24.803269 
L 386.833123 -13.071496 
L 393.839493 -6.846143 
L 411.285407 5.226438 
L 429.310563 24.27864 
L 435.594368 28.122963 
L 431.739808 31.24439 
L 426.268459 30.134812 
L 421.899763 25.998987 
L 416.644317 18.505832 
L 410.977704 14.400043 
L 407.672521 9.986613 
L 396.548521 4.862045 
L 387.785311 4.709183 
L 384.702391 2.036791 
L 377.206935 5.042514 
L 369.450362 -0.759579 
L 365.458836 8.779314 
L 350.578353 6.107943 
z
" clip-path="url(#p581595af4f)" style="fill: #e8edf4; stroke: #b8c5d4; stroke-width: 0.45"/>
    <path d="M 429.506065 -4.004759 
L 432.064103 -4.62627 
L 430.753051 -10.466233 
L 432.302537 -12.931144 
L 431.735845 -18.505594 
L 437.347282 -22.582736 
L 436.036229 -27.9706 
L 439.42317 -34.253084 
L 444.672664 -30.92988 
L 448.137541 -32.085059 
L 462.887377 -32.378642 
L 465.230759 -31.100614 
L 477.585695 -29.822255 
L 482.485135 -30.4616 
L 485.680536 -26.201174 
L 491.64533 -28.331552 
L 500.804864 -41.751512 
L 512.733791 -47.50297 
L 549.585924 -52.40241 
L 563.754538 -22.380299 
L 554.509141 -18.946794 
L 552.036304 -13.272281 
L 551.735125 -8.913775 
L 539.00966 -3.517985 
L 518.586303 2.444167 
L 507.142829 11.462028 
L 501.51554 12.16643 
L 497.680795 11.410511 
L 490.210767 16.714824 
L 482.064409 19.175442 
L 468.107149 20.565422 
L 465.313319 23.940144 
L 461.963365 24.872741 
L 459.984568 28.123623 
L 453.658492 27.841598 
L 449.575406 29.576018 
L 440.728938 28.926106 
L 437.404743 21.460042 
L 437.769989 14.473486 
L 435.680231 10.702476 
L 433.178993 1.249359 
z
" clip-path="url(#p581595af4f)" style="fill: #e8edf4; stroke: #b8c5d4; stroke-width: 0.45"/>
    <path d="M 306.159934 90.937662 
L 310.51342 83.657439 
L 317.296331 83.34328 
L 319.206845 79.439943 
L 319.03609 67.94951 
L 322.817112 54.573998 
L 328.871503 50.994277 
L 330.155744 45.769505 
L 335.637032 36.00605 
L 343.345804 29.674054 
L 348.542457 17.084066 
L 350.578353 6.107943 
L 365.458836 8.779314 
L 369.450362 -0.759579 
L 377.206935 5.042514 
L 384.702391 2.036791 
L 387.785311 4.709183 
L 396.548521 4.862045 
L 407.672521 9.986613 
L 410.977704 14.400043 
L 416.644317 18.505832 
L 421.899763 25.998987 
L 426.268459 30.134812 
L 417.45208 41.778746 
L 418.651072 49.19547 
L 425.790192 49.409041 
L 428.867744 48.502736 
L 431.704142 50.780724 
L 428.916696 55.309037 
L 438.352062 68.500374 
L 443.231361 73.061936 
L 485.020204 88.229226 
L 495.770102 88.151006 
L 459.653112 126.511839 
L 443.002836 127.075101 
L 431.61235 136.08524 
L 423.418921 136.321179 
L 419.922956 140.350001 
L 411.18987 140.347725 
L 406.035011 136.02862 
L 394.358996 141.374045 
L 390.581479 146.700298 
L 382.058116 145.694684 
L 379.228772 144.220644 
L 372.19631 144.443865 
L 356.01776 133.589429 
L 347.121952 133.589429 
L 342.755544 129.383161 
L 342.755544 122.209578 
L 336.116541 120.065325 
L 328.563096 106.156715 
L 322.725983 103.193425 
L 320.486485 98.082533 
L 314.008914 91.853169 
z
" clip-path="url(#p581595af4f)" style="fill: #e8edf4; stroke: #b8c5d4; stroke-width: 0.45"/>
    <path d="M 417.45208 41.778746 
L 426.268459 30.134812 
L 431.739808 31.24439 
L 435.594368 28.122963 
L 438.618705 32.078576 
L 438.216473 37.385532 
L 430.924776 40.443884 
L 436.413363 43.940794 
L 431.704142 50.780724 
L 428.867744 48.502736 
L 425.790192 49.409041 
L 418.651072 49.19547 
z
" clip-path="url(#p581595af4f)" style="fill: #e8edf4; stroke: #b8c5d4; stroke-width: 0.45"/>
    <path d="M 428.916696 55.309037 
L 436.413363 43.940794 
L 440.571744 46.296726 
L 443.076944 51.582216 
L 448.842933 56.932763 
L 455.188163 56.975364 
L 467.236637 53.705659 
L 481.148324 52.190848 
L 492.398937 48.220043 
L 498.737562 47.378592 
L 503.302799 45.047098 
L 510.580605 44.598028 
L 510.451833 69.634451 
L 495.770102 88.151006 
L 485.020204 88.229226 
L 443.231361 73.061936 
L 438.352062 68.500374 
z
" clip-path="url(#p581595af4f)" style="fill: #e8edf4; stroke: #b8c5d4; stroke-width: 0.45"/>
    <path d="M 263.027497 207.581281 
L 263.134494 197.94554 
L 266.095426 193.061952 
L 266.814688 182.802719 
L 269.503502 176.860382 
L 274.390392 170.195149 
L 279.300399 166.800613 
L 283.409244 162.262456 
L 278.286563 160.531669 
L 279.059889 145.586919 
L 284.32195 142.10116 
L 292.449302 144.959389 
L 302.737676 141.967981 
L 311.730178 141.997633 
L 319.590533 136.119814 
L 325.650419 144.993515 
L 332.767683 166.079205 
L 328.116781 175.395323 
L 318.166325 189.034336 
L 318.295954 202.579882 
L 278.241998 203.404899 
L 266.121184 208.885068 
z
" clip-path="url(#p581595af4f)" style="fill: #e8edf4; stroke: #b8c5d4; stroke-width: 0.45"/>
    <path d="M 255.939888 226.72661 
L 257.122807 219.73477 
L 258.878362 218.749334 
L 259.351926 211.143909 
L 263.027497 207.581281 
L 266.121184 208.885068 
L 273.758973 204.940022 
L 278.83344 212.151801 
L 278.094363 219.671364 
L 274.405296 221.289505 
L 267.614529 220.454033 
L 263.701186 227.7312 
z
" clip-path="url(#p581595af4f)" style="fill: #e8edf4; stroke: #b8c5d4; stroke-width: 0.45"/>
    <path d="M 190.271455 80.268543 
L 198.584715 76.462242 
L 201.875974 65.052542 
L 205.386651 59.128275 
L 214.602177 57.372937 
L 223.378869 68.343802 
L 226.889546 69.440888 
L 231.49731 67.246715 
L 240.712836 67.68555 
L 242.468175 70.318557 
L 255.194378 70.318557 
L 255.633213 67.68555 
L 262.215732 65.271959 
L 263.532235 61.541865 
L 268.359416 58.908858 
L 279.110864 66.369046 
L 285.693383 65.052542 
L 292.056485 55.837016 
L 299.077838 48.815662 
L 297.980752 41.136056 
L 294.908909 37.405962 
L 302.588515 36.74771 
L 303.466184 33.895285 
L 309.390451 34.772955 
L 307.85453 44.207899 
L 309.390451 53.423425 
L 315.97297 58.470023 
L 317.508891 62.858369 
L 317.289474 69.221471 
L 319.058748 69.474224 
L 319.206845 79.439943 
L 317.296331 83.34328 
L 310.51342 83.657439 
L 306.159934 90.937662 
L 314.008914 91.853169 
L 320.486485 98.082533 
L 322.725983 103.193425 
L 328.563096 106.156715 
L 336.116541 120.065325 
L 319.590533 136.119814 
L 311.730178 141.997633 
L 302.737676 141.967981 
L 292.449302 144.959389 
L 284.32195 142.10116 
L 279.059889 145.586919 
L 267.80805 137.093551 
L 264.772484 131.634685 
L 257.654493 134.338359 
L 251.74452 133.497238 
L 248.323234 135.643467 
L 242.584325 134.093651 
L 232.786767 119.490772 
L 223.232926 114.432487 
L 220.005821 106.765307 
L 214.679051 101.234779 
L 206.083566 94.578793 
L 205.966001 90.424705 
z
" clip-path="url(#p581595af4f)" style="fill: #e8edf4; stroke: #b8c5d4; stroke-width: 0.45"/>
   </g>
   <g id="PathCollection_1">
    <defs>
     <path id="m8852c9ecdf" d="M 0 2.12132 
C 0.562581 2.12132 1.102195 1.897805 1.5 1.5 
C 1.897805 1.102195 2.12132 0.562581 2.12132 0 
C 2.12132 -0.562581 1.897805 -1.102195 1.5 -1.5 
C 1.102195 -1.897805 0.562581 -2.12132 0 -2.12132 
C -0.562581 -2.12132 -1.102195 -1.897805 -1.5 -1.5 
C -1.897805 -1.102195 -2.12132 -0.562581 -2.12132 0 
C -2.12132 0.562581 -1.897805 1.102195 -1.5 1.5 
C -1.102195 1.897805 -0.562581 2.12132 0 2.12132 
z
" style="stroke: #ffffff; stroke-width: 0.5"/>
    </defs>
    <g clip-path="url(#p581595af4f)">
     <use xlink:href="#m8852c9ecdf" x="268.402367" y="235.171598" style="fill: #8aa0b7; stroke: #ffffff; stroke-width: 0.5"/>
     <use xlink:href="#m8852c9ecdf" x="434.556213" y="43.455621" style="fill: #8aa0b7; stroke: #ffffff; stroke-width: 0.5"/>
     <use xlink:href="#m8852c9ecdf" x="12.781065" y="164.87574" style="fill: #8aa0b7; stroke: #ffffff; stroke-width: 0.5"/>
     <use xlink:href="#m8852c9ecdf" x="450.532544" y="345.940828" style="fill: #8aa0b7; stroke: #ffffff; stroke-width: 0.5"/>
     <use xlink:href="#m8852c9ecdf" x="268.402367" y="216" style="fill: #8aa0b7; stroke: #ffffff; stroke-width: 0.5"/>
     <use xlink:href="#m8852c9ecdf" x="462.248521" y="354.461538" style="fill: #8aa0b7; stroke: #ffffff; stroke-width: 0.5"/>
    </g>
   </g>
   <g id="PatchCollection_2">
    <defs>
     <path id="mca81109df1" d="M 255.939888 -205.27339 
L 257.122807 -212.26523 
L 258.878362 -213.250666 
L 259.351926 -220.856091 
L 263.027497 -224.418719 
L 266.121184 -223.114932 
L 273.758973 -227.059978 
L 278.83344 -219.848199 
L 278.094363 -212.328636 
L 274.405296 -210.710495 
L 267.614529 -211.545967 
L 263.701186 -204.2688 
z
" style="stroke: #b45309; stroke-width: 1.15"/>
    </defs>
    <g clip-path="url(#p581595af4f)">
     <use xlink:href="#mca81109df1" x="0" y="432" style="fill: #f59e0b; stroke: #b45309; stroke-width: 1.15"/>
    </g>
   </g>
   <g id="PathCollection_2">
    <defs>
     <path id="mfa73ca96ef" d="M 0 3.316625 
C 0.879579 3.316625 1.723251 2.967164 2.345208 2.345208 
C 2.967164 1.723251 3.316625 0.879579 3.316625 0 
C 3.316625 -0.879579 2.967164 -1.723251 2.345208 -2.345208 
C 1.723251 -2.967164 0.879579 -3.316625 0 -3.316625 
C -0.879579 -3.316625 -1.723251 -2.967164 -2.345208 -2.345208 
C -2.967164 -1.723251 -3.316625 -0.879579 -3.316625 0 
C -3.316625 0.879579 -2.967164 1.723251 -2.345208 2.345208 
C -1.723251 2.967164 -0.879579 3.316625 0 3.316625 
z
" style="stroke: #ffffff"/>
    </defs>
    <g clip-path="url(#p581595af4f)">
     <use xlink:href="#mfa73ca96ef" x="268.402367" y="216" style="fill: #f97316; stroke: #ffffff"/>
    </g>
   </g>
   <g id="PathCollection_3">
    <path d="M 268.402367 220.449719 
C 269.582446 220.449719 270.714351 219.980869 271.548793 219.146427 
C 272.383235 218.311984 272.852086 217.180079 272.852086 216 
C 272.852086 214.819921 272.383235 213.688016 271.548793 212.853573 
C 270.714351 212.019131 269.582446 211.550281 268.402367 211.550281 
C 267.222288 211.550281 266.090382 212.019131 265.25594 212.853573 
C 264.421498 213.688016 263.952648 214.819921 263.952648 216 
C 263.952648 217.180079 264.421498 218.311984 265.25594 219.146427 
C 266.090382 219.980869 267.222288 220.449719 268.402367 220.449719 
L 268.402367 220.449719 
z
" clip-path="url(#p581595af4f)" style="fill: none; stroke: #7c2d12; stroke-width: 1.1"/>
   </g>
  </g>
 </g>
 <defs>
  <clipPath id="p581595af4f">
   <rect x="0" y="0" width="536.804734" height="432"/>
  </clipPath>
 </defs>
</svg>
