<?xml version="1.0" encoding="utf-8" standalone="no"?>
<!DOCTYPE svg PUBLIC "-//W3C//DTD SVG 1.1//EN"
  "http://www.w3.org/Graphics/SVG/1.1/DTD/svg11.dtd">
<svg xmlns:xlink="http://www.w3.org/1999/xlink" width="398.769231pt" height="432pt" viewBox="0 0 398.769231 432" xmlns="http://www.w3.org/2000/svg" version="1.1">
 <metadata>
  <rdf:RDF xmlns:dc="http://purl.org/dc/elements/1.1/" xmlns:cc="http://creativecommons.org/ns#" xmlns:rdf="http://www.w3.org/1999/02/22-rdf-syntax-ns#">
   <cc:Work>
    <dc:type rdf:resource="http://purl.org/dc/dcmitype/StillImage"/>
    <dc:date>2026-06-09T04:56:58.354034</dc:date>
    <dc:format>image/svg+xml</dc:format>
    <dc:creator>
     <cc:Agent>
      <dc:title>Matplotlib v3.10.8, https://matplotlib.org/</dc:title>
     </cc:Agent>
    </dc:creator>
   </cc:Work>
  </rdf:RDF>
 </metadata>
 <defs>
  <style type="text/css">*{stroke-linejoin: round; stroke-linecap: butt}</style>
 </defs>
 <g id="figure_1">
  <g id="patch_1">
   <path d="M 0 432 
L 398.769231 432 
L 398.769231 0 
L 0 0 
z
" style="fill: #eaf3ff"/>
  </g>
  <g id="axes_1">
   <g id="PatchCollection_1">
    <path d="M -645.206178 -93.855397 
L -645.075692 -198.040615 
L -624.411914 -195.371298 
L -606.975065 -190.043298 
L -595.424271 -189.024443 
L -585.700726 -193.644406 
L -572.285243 -197.10384 
L -555.831692 -195.751458 
L -539.23968 -200.616111 
L -521.110634 -203.376258 
L -513.501009 -198.78576 
L -505.235742 -201.373218 
L -502.761268 -206.590228 
L -495.10656 -205.409095 
L -476.377698 -195.477194 
L -461.628886 -202.985354 
L -460.13184 -194.581182 
L -446.522732 -196.398129 
L -442.340308 -199.630486 
L -428.923495 -198.990794 
L -411.982671 -194.339372 
L -386.060455 -190.278794 
L -370.81584 -188.398265 
L -359.965662 -189.111618 
L -345.023335 -183.495508 
L -360.608012 -177.998142 
L -340.585145 -175.622585 
L -310.685538 -176.929329 
L -301.250105 -178.866905 
L -289.442215 -172.225182 
L -277.392628 -177.829218 
L -288.697735 -182.528935 
L -281.54448 -186.320345 
L -259.2 -187.938462 
L -250.258929 -185.293514 
L -239.127618 -179.276308 
L -226.757354 -180.159692 
L -207.186425 -175.165551 
L -189.990831 -176.924234 
L -173.832369 -176.658277 
L -175.110646 -183.551335 
L -165.261932 -185.486474 
L -148.097465 -181.728628 
L -148.163594 -171.249748 
L -141.113686 -180.0816 
L -132.203077 -179.783963 
L -127.194314 -190.918486 
L -139.060578 -197.749403 
L -151.989895 -202.225034 
L -151.101969 -214.465698 
L -138.005169 -222.504332 
L -123.396591 -220.727815 
L -112.189071 -215.837797 
L -97.140628 -203.349674 
L -106.96896 -197.90736 
L -86.367877 -195.666388 
L -86.416726 -184.338351 
L -71.613969 -193.019778 
L -58.371618 -185.890117 
L -61.670658 -177.674363 
L -50.955729 -170.201206 
L -39.390314 -178.206942 
L -31.310474 -187.767434 
L -30.704898 -199.924911 
L 1.411422 -197.445342 
L 16.278314 -191.948529 
L 16.945477 -186.450498 
L 8.702474 -180.544948 
L 16.512591 -174.614695 
L 15.103052 -169.227102 
L -6.585895 -161.481674 
L -21.992345 -159.773169 
L -33.445994 -163.107655 
L -36.7488 -157.546154 
L -47.425071 -148.205206 
L -50.657428 -143.360825 
L -63.503557 -135.865514 
L -79.359951 -135.131778 
L -88.105625 -130.451114 
L -88.837366 -123.251557 
L -101.724037 -121.865502 
L -115.277317 -112.888874 
L -127.290794 -100.415815 
L -131.586203 -91.682326 
L -132.198646 -78.817698 
L -115.920222 -76.971175 
L -105.751717 -58.195458 
L -90.251335 -60.384148 
L -69.66864 -55.588283 
L -58.594486 -51.377945 
L -50.668172 -46.14432 
L -36.788788 -43.094732 
L -25.053895 -38.4288 
L 5.285354 -36.719852 
L 3.475938 -27.126683 
L 6.922855 -15.991717 
L 14.945538 -3.594978 
L 31.426449 6.922117 
L 39.954351 3.316468 
L 45.948074 -8.072271 
L 40.162597 -25.566831 
L 32.349268 -31.396283 
L 50.081649 -36.588369 
L 62.633354 -44.352849 
L 68.772517 -52.071471 
L 67.866203 -59.475286 
L 60.344197 -68.884689 
L 46.889945 -77.219963 
L 59.962043 -88.828911 
L 55.132948 -98.856517 
L 51.431594 -116.156012 
L 59.143348 -118.713563 
L 89.521477 -114.621526 
L 98.696714 -117.531323 
L 109.013206 -113.779237 
L 122.653883 -107.357723 
L 126.014511 -103.057883 
L 145.767655 -102.218695 
L 145.436345 -92.912308 
L 149.118646 -78.912295 
L 159.235754 -77.180972 
L 167.264197 -70.656665 
L 183.30336 -76.807126 
L 193.899655 -89.029403 
L 201.228702 -94.178732 
L 236.530523 -56.870215 
L 232.076382 -49.913908 
L 246.810129 -43.666855 
L 256.767286 -37.337391 
L 274.429883 -34.47312 
L 281.539938 -30.939692 
L 285.929834 -21.566622 
L 294.55632 -20.095274 
L 299.006917 -15.917834 
L 299.814868 -3.470474 
L 283.824997 4.581563 
L 265.571225 8.518523 
L 251.633465 17.618548 
L 232.907151 19.416443 
L 209.215274 17.084418 
L 181.118215 17.771409 
L 171.843951 25.718105 
L 157.722757 30.627397 
L 141.744517 45.287483 
L 128.995422 55.513366 
L 138.403717 53.692874 
L 156.184615 39.138462 
L 179.419237 29.910277 
L 195.992197 28.806129 
L 205.798265 34.237145 
L 195.336554 41.676738 
L 198.846942 53.616332 
L 202.461895 61.973649 
L 216.849711 67.50624 
L 235.155102 65.902855 
L 246.260492 53.450622 
L 247.030892 61.484603 
L 254.183594 65.497108 
L 240.481329 72.754154 
L 215.947828 79.346142 
L 204.961182 83.827975 
L 192.58272 91.806683 
L 184.171569 90.993194 
L 183.746991 81.617132 
L 202.979188 72.457403 
L 185.249908 72.819951 
L 172.939458 74.168898 
L 165.695926 67.907335 
L 165.705674 52.803397 
L 160.787742 49.607705 
L 153.36 51.489231 
L 149.680069 48.578426 
L 141.231102 56.938302 
L 137.852308 65.556923 
L 133.92 70.596923 
L 125.667692 72.867692 
L 124.559335 75.601477 
L 87.319385 75.686991 
L 82.321366 77.725477 
L 69.230769 86.564763 
L 65.685776 90.881159 
L 44.636899 90.922086 
L 39.636847 92.680548 
L 41.427692 94.855385 
L 42.210142 99.35692 
L 27.72058 104.866709 
L 16.308038 106.607712 
L 3.441847 112.521913 
L 0.663626 112.521913 
L -3.099435 110.775186 
L -4.34215 109.192456 
L -1.661538 104.16 
L 3.544615 98.067692 
L 6.783038 91.520261 
L 2.205142 71.842893 
L -9.336193 66.64364 
L -7.970408 64.674243 
L -9.594066 63.320193 
L -12.63617 63.320193 
L -14.863583 61.564594 
L -15.420401 58.941498 
L -17.575754 60.087471 
L -20.546585 59.745969 
L -19.869217 58.648421 
L -22.477716 57.558255 
L -23.550423 54.645231 
L -62.342188 39.106144 
L -72.253855 42.242124 
L -75.876923 42.350769 
L -89.501538 39.470769 
L -98.473846 40.910769 
L -109.218462 37.476923 
L -128.261243 35.031803 
L -131.704615 33.156923 
L -133.671655 27.075138 
L -137.421305 27.128308 
L -137.454308 31.384615 
L -445.56048 31.356505 
L -467.005735 20.47872 
L -474.918757 15.693489 
L -494.979065 11.107089 
L -501.150572 1.301575 
L -499.572775 -5.497218 
L -513.745366 -10.21344 
L -515.688702 -19.143766 
L -529.088898 -27.185391 
L -529.323065 -32.892332 
L -523.163077 -38.233846 
L -523.470794 -45.221502 
L -542.301895 -52.269637 
L -560.553895 -72.852332 
L -578.16 -82.381588 
L -584.039963 -88.110794 
L -595.159975 -84.523089 
L -605.935385 -78.332308 
L -623.508923 -90.461538 
L -634.297846 -93.527852 
z
" clip-path="url(#p80767e98ab)" style="fill: #e8edf4; stroke: #b8c5d4; stroke-width: 0.45"/>
    <path d="M -82.580237 -225.988516 
L -74.066696 -235.895604 
L -62.675906 -240.419692 
L -34.074289 -243.365345 
L -42.227208 -236.205567 
L -33.500728 -229.301087 
L -23.262784 -238.230774 
L 4.811924 -242.779763 
L 23.814414 -231.321715 
L 22.16557 -224.070351 
L 44.07908 -227.28561 
L 54.558011 -231.688061 
L 79.135259 -226.083823 
L 94.390714 -220.80529 
L 95.824902 -215.972383 
L 116.393807 -218.476703 
L 127.938291 -211.421677 
L 154.677553 -207.046417 
L 164.326481 -202.581573 
L 174.804553 -192.215121 
L 154.466332 -187.054506 
L 180.555329 -179.820887 
L 198.140517 -177.388119 
L 214.062264 -167.207703 
L 231.485745 -166.472721 
L 228.038656 -158.698169 
L 208.595693 -145.831405 
L 194.966471 -150.565284 
L 177.549574 -161.221378 
L 163.218284 -159.83327 
L 161.819586 -153.486895 
L 173.468535 -147.047503 
L 188.506186 -141.95157 
L 193.068913 -139.008781 
L 200.277346 -128.044727 
L 196.46248 -120.083281 
L 182.491812 -123.084171 
L 154.709322 -131.952038 
L 181.901938 -115.717751 
L 183.704475 -111.849937 
L 153.666094 -116.272422 
L 129.894236 -122.703228 
L 116.469653 -128.099107 
L 120.336608 -131.224497 
L 87.680283 -142.291299 
L 87.856587 -139.079188 
L 55.827916 -137.311854 
L 46.457182 -141.115271 
L 53.753194 -149.271052 
L 74.566808 -149.467963 
L 97.368421 -150.883548 
L 93.667753 -154.838083 
L 97.533277 -160.363327 
L 111.863995 -171.152221 
L 108.819028 -176.052101 
L 104.548234 -179.846073 
L 87.581827 -185.220486 
L 65.142267 -188.987841 
L 72.236503 -191.790675 
L 60.509133 -198.677983 
L 50.747439 -199.308785 
L 42.012086 -203.079288 
L 36.083575 -199.810794 
L 16.000937 -198.386051 
L -24.310592 -200.861177 
L -65.705131 -205.780519 
L -74.917878 -209.671802 
L -63.334757 -214.724517 
L -79.068752 -214.772886 
z
" clip-path="url(#p80767e98ab)" style="fill: #e8edf4; stroke: #b8c5d4; stroke-width: 0.45"/>
    <path d="M -97.886991 -332.982905 
L -81.415385 -335.095385 
L -46.747274 -337.251065 
L -30.461538 -341.379029 
L -16.726209 -340.8 
L -4.763077 -337.698462 
L 3.655385 -343.68 
L 38.141834 -346.676972 
L 72 -347.136652 
L 77.884283 -345.940135 
L 109.866129 -347.814351 
L 187.450892 -345.541034 
L 211.236923 -344.123077 
L 231.507692 -341.1168 
L 231.021637 -338.159815 
L 203.992615 -333.353538 
L 177.192886 -331.110683 
L 167.177908 -328.631003 
L 191.295028 -328.68816 
L 165.156923 -321.969231 
L 147.104862 -318.832578 
L 128.16 -309.784615 
L 105.310523 -307.947508 
L 98.252308 -305.687951 
L 64.714375 -304.50192 
L 79.983803 -303.112542 
L 72.327212 -301.134314 
L 81.487938 -295.670511 
L 70.963865 -291.872788 
L 53.850351 -288.737465 
L 48.597895 -284.402843 
L 33.125428 -281.09184 
L 34.674646 -278.584911 
L 53.602449 -279.013422 
L 53.843705 -276.309655 
L 24.244615 -269.665329 
L -4.700935 -272.721563 
L -37.238843 -271.004418 
L -74.665994 -272.924935 
L -76.055262 -278.238978 
L -55.577243 -280.744578 
L -61.033846 -288.738462 
L -54.276923 -289.516308 
L -24.660997 -284.736702 
L -39.766154 -291.84 
L -57.732037 -293.964665 
L -48.760394 -298.249883 
L -29.117686 -300.888738 
L -25.974831 -304.749378 
L -41.619766 -309.078351 
L -46.321366 -314.785292 
L -16.044258 -314.307988 
L -7.296321 -313.107692 
L 9.988837 -317.144345 
L -14.953846 -318.424615 
L -53.711446 -317.718683 
L -73.291902 -321.478412 
L -82.523077 -325.956923 
L -95.459372 -329.203569 
z
" clip-path="url(#p80767e98ab)" style="fill: #e8edf4; stroke: #b8c5d4; stroke-width: 0.45"/>
    <path d="M -405.991274 -218.495151 
L -396.694191 -226.794646 
L -388.981883 -231.204258 
L -359.325305 -237.946228 
L -348.005575 -235.806831 
L -353.534843 -230.615298 
L -328.885145 -233.967508 
L -313.481243 -228.373662 
L -300.963877 -234.030978 
L -290.841674 -230.400185 
L -281.778646 -219.517551 
L -276.214043 -224.109932 
L -284.083089 -235.453255 
L -274.336062 -237.075471 
L -263.327151 -235.303495 
L -250.919557 -230.834843 
L -243.967458 -220.043815 
L -240.532726 -212.229822 
L -201.940948 -201.50016 
L -203.142905 -196.627975 
L -221.329772 -195.736837 
L -214.264135 -191.478868 
L -217.996505 -187.415852 
L -238.043077 -189.156923 
L -257.095385 -192.147692 
L -269.972751 -191.474437 
L -290.769231 -187.716923 
L -338.546215 -185.009058 
L -344.547249 -190.236258 
L -359.667692 -193.255385 
L -369.503335 -192.017095 
L -383.150769 -200.787692 
L -358.683175 -203.859323 
L -343.067926 -203.361637 
L -328.609108 -205.289132 
L -350.030769 -207.876923 
L -389.407015 -207.218511 
L -395.250978 -211.301908 
L -369.560603 -215.732455 
L -386.647532 -215.5776 
z
" clip-path="url(#p80767e98ab)" style="fill: #e8edf4; stroke: #b8c5d4; stroke-width: 0.45"/>
    <path d="M 258.430218 43.57528 
L 265.330119 39.675411 
L 260.511236 36.666221 
L 269.813853 29.993569 
L 281.257591 12.351426 
L 288.125722 6.046838 
L 297.736871 2.22911 
L 302.876593 2.714519 
L 287.491772 22.386735 
L 294.722529 18.644852 
L 302.161932 21.018661 
L 298.274942 24.881037 
L 308.103036 27.917417 
L 313.213565 25.21819 
L 324.25976 28.624923 
L 320.831848 36.737201 
L 328.584362 34.84279 
L 329.996512 40.720643 
L 333.436445 47.606233 
L 328.7724 57.354475 
L 323.762331 57.766615 
L 316.479484 55.675579 
L 318.883916 46.613091 
L 315.797736 45.205521 
L 302.945283 54.812376 
L 296.335597 54.427713 
L 304.158804 49.223308 
L 293.529614 46.531808 
L 260.130293 46.855223 
z
" clip-path="url(#p80767e98ab)" style="fill: #e8edf4; stroke: #b8c5d4; stroke-width: 0.45"/>
    <path d="M -159.190659 -276.011939 
L -155.022899 -280.556921 
L -132.192951 -279.853421 
L -119.895741 -276.291278 
L -98.08641 -276.315891 
L -88.525062 -272.672464 
L -91.048557 -268.512146 
L -78.338635 -266.006109 
L -71.303072 -263.374141 
L -40.200284 -261.959129 
L -22.592772 -264.360414 
L -0.038155 -265.303183 
L 17.960889 -264.524125 
L 29.824494 -260.346634 
L 32.301051 -255.763872 
L 25.390847 -252.819365 
L 8.87436 -250.439546 
L -5.304668 -251.786154 
L -37.079472 -250.080355 
L -59.819265 -249.884016 
L -107.140885 -254.818241 
L -110.971778 -260.90016 
L -112.318958 -266.39249 
L -123.439281 -271.228545 
L -146.353375 -272.58145 
z
" clip-path="url(#p80767e98ab)" style="fill: #e8edf4; stroke: #b8c5d4; stroke-width: 0.45"/>
    <path d="M -387.253662 -259.076677 
L -372.140529 -269.896948 
L -361.715483 -272.996714 
L -330.541588 -269.25792 
L -310.865206 -262.69872 
L -291.512492 -261.857095 
L -307.354265 -272.453391 
L -297.206031 -276.489268 
L -285.768997 -275.206006 
L -282.03408 -269.926302 
L -277.692148 -265.981145 
L -267.828148 -267.834314 
L -256.220308 -267.353354 
L -254.270548 -261.92688 
L -261.010745 -256.67376 
L -298.523077 -254.953846 
L -326.470929 -250.157095 
L -343.316049 -249.90576 
L -344.7288 -253.517058 
L -321.72048 -258.415385 
L -371.766018 -257.096455 
z
" clip-path="url(#p80767e98ab)" style="fill: #e8edf4; stroke: #b8c5d4; stroke-width: 0.45"/>
    <path d="M -154.630745 -313.747606 
L -146.951335 -318.671963 
L -139.275138 -322.049982 
L -127.921071 -322.825145 
L -132.761575 -325.363865 
L -107.001305 -325.928012 
L -92.856628 -320.0136 
L -56.049231 -315.544615 
L -47.298462 -308.233846 
L -33.943569 -304.654892 
L -49.154511 -301.3584 
L -69.622338 -293.027778 
L -89.217526 -292.231348 
L -112.172566 -293.649194 
L -124.074388 -298.164812 
L -123.903582 -302.182855 
L -115.147274 -305.133415 
L -135.404308 -305.049009 
L -147.612628 -308.732529 
z
" clip-path="url(#p80767e98ab)" style="fill: #e8edf4; stroke: #b8c5d4; stroke-width: 0.45"/>
    <path d="M -49.535814 -129.687561 
L -39.907493 -135.166153 
L -38.49105 -143.884619 
L -34.713391 -154.029545 
L -26.709873 -153.126845 
L -24.654614 -148.255586 
L -18.985979 -149.964248 
L -12.546014 -147.060382 
L 12.273079 -139.810735 
L 13.2542 -134.543364 
L 21.407691 -135.405995 
L 29.315616 -131.733947 
L 19.484088 -128.247648 
L 2.246643 -130.911386 
L -3.974373 -135.8977 
L -14.958461 -130.002962 
L -30.720791 -124.272506 
L -34.524208 -130.751109 
z
" clip-path="url(#p80767e98ab)" style="fill: #e8edf4; stroke: #b8c5d4; stroke-width: 0.45"/>
    <path d="M -218.769231 -229.033846 
L -218.547692 -232.578462 
L -195.932603 -231.203594 
L -208.135385 -238.449231 
L -195.02496 -243.809243 
L -181.815175 -241.477551 
L -162.055385 -242.88 
L -159.175385 -239.667692 
L -169.516689 -234.356529 
L -152.750769 -229.587692 
L -154.744615 -219.618462 
L -172.907003 -215.330031 
L -183.576295 -216.255397 
L -191.241083 -220.485452 
z
" clip-path="url(#p80767e98ab)" style="fill: #e8edf4; stroke: #b8c5d4; stroke-width: 0.45"/>
    <path d="M -478.289894 -221.930088 
L -465.865366 -234.711434 
L -456.258462 -241.993846 
L -467.088923 -248.781231 
L -429.650363 -250.511225 
L -413.831409 -248.211877 
L -385.539397 -247.596222 
L -362.888972 -239.725182 
L -376.814105 -236.930806 
L -403.975385 -229.144615 
L -417.710769 -221.390769 
L -417.710769 -216.55682 
L -446.867335 -211.218166 
L -452.713846 -216.073846 
z
" clip-path="url(#p80767e98ab)" style="fill: #e8edf4; stroke: #b8c5d4; stroke-width: 0.45"/>
    <path d="M -506.155393 14.335706 
L -505.20089 11.771283 
L -486.775395 15.866918 
L -476.363151 17.039798 
L -467.122355 26.120031 
L -456.064712 30.692489 
L -451.495402 36.812187 
L -457.065867 38.353703 
L -475.255526 33.323026 
L -478.5784 29.390815 
L -488.492357 25.513843 
L -490.486081 22.356969 
L -501.888033 20.363531 
z
" clip-path="url(#p80767e98ab)" style="fill: #e8edf4; stroke: #b8c5d4; stroke-width: 0.45"/>
    <path d="M -219.494991 -271.4208 
L -207.578548 -271.074868 
L -190.894043 -274.851766 
L -175.314351 -274.212074 
L -174.461538 -275.667692 
L -165.994172 -270.534203 
L -165.648905 -264.850412 
L -170.695385 -256.615385 
L -188.958351 -255.479335 
L -200.865157 -257.250757 
L -200.635422 -263.712923 
L -218.792382 -262.860554 
z
" clip-path="url(#p80767e98ab)" style="fill: #e8edf4; stroke: #b8c5d4; stroke-width: 0.45"/>
    <path d="M -147.143022 -233.799989 
L -146.971584 -239.306916 
L -141.184173 -244.014464 
L -130.194361 -247.032813 
L -107.113981 -246.646432 
L -85.954629 -243.951498 
L -102.505461 -234.087628 
L -115.712812 -231.935917 
L -127.595593 -223.657066 
L -140.232246 -224.070064 
z
" clip-path="url(#p80767e98ab)" style="fill: #e8edf4; stroke: #b8c5d4; stroke-width: 0.45"/>
    <path d="M -251.914588 -304.26381 
L -230.170513 -302.754635 
L -200.217135 -298.712807 
L -191.743663 -293.443433 
L -187.431941 -288.822033 
L -205.520568 -290.056448 
L -223.751727 -293.648071 
L -248.412548 -294.059066 
L -237.715526 -297.349885 
L -251.109199 -300.018488 
z
" clip-path="url(#p80767e98ab)" style="fill: #e8edf4; stroke: #b8c5d4; stroke-width: 0.45"/>
    <path d="M -444.239164 -268.983244 
L -425.437315 -277.268391 
L -402.689786 -284.443052 
L -385.69991 -284.289072 
L -370.507421 -285.917023 
L -372.027471 -277.406344 
L -380.55933 -273.56343 
L -390.909181 -273.022211 
L -411.500133 -268.281749 
L -429.230715 -266.584822 
z
" clip-path="url(#p80767e98ab)" style="fill: #e8edf4; stroke: #b8c5d4; stroke-width: 0.45"/>
    <path d="M -559.27013 -22.350427 
L -558.609276 -25.882805 
L -553.403164 -24.44318 
L -542.769115 -25.329279 
L -546.086552 -12.75273 
L -536.444779 -3.844795 
L -540.862112 -3.86626 
L -547.537053 -8.932141 
L -551.630685 -14.030935 
L -557.220308 -17.480885 
z
" clip-path="url(#p80767e98ab)" style="fill: #e8edf4; stroke: #b8c5d4; stroke-width: 0.45"/>
    <path d="M 20.757061 -238.152184 
L 21.224656 -242.139883 
L 26.550744 -242.876897 
L 51.901611 -241.682936 
L 71.003077 -235.598972 
L 71.98445 -232.538424 
L 48.276884 -233.095262 
L 36.152287 -231.605938 
L 32.944618 -232.278302 
z
" clip-path="url(#p80767e98ab)" style="fill: #e8edf4; stroke: #b8c5d4; stroke-width: 0.45"/>
    <path d="M 203.343397 56.557255 
L 207.527705 53.139582 
L 211.408615 58.522966 
L 219.4416 60.008825 
L 229.712345 59.706757 
L 224.264382 64.245526 
L 220.161268 64.967852 
L 206.110523 60.266031 
z
" clip-path="url(#p80767e98ab)" style="fill: #e8edf4; stroke: #b8c5d4; stroke-width: 0.45"/>
    <path d="M 61.073723 -174.514228 
L 65.778535 -180.722511 
L 75.929982 -182.258326 
L 84.577846 -179.19168 
L 84.701575 -174.446991 
L 83.453871 -172.920923 
L 76.254868 -169.648911 
L 63.837748 -169.093625 
z
" clip-path="url(#p80767e98ab)" style="fill: #e8edf4; stroke: #b8c5d4; stroke-width: 0.45"/>
    <path d="M -188.832752 -194.584952 
L -179.085059 -198.018798 
L -171.340739 -202.820755 
L -152.943521 -197.68649 
L -142.866623 -191.346724 
L -149.754696 -187.462601 
L -164.685059 -190.818798 
L -173.706106 -189.607758 
z
" clip-path="url(#p80767e98ab)" style="fill: #e8edf4; stroke: #b8c5d4; stroke-width: 0.45"/>
    <path d="M 201.942055 21.714018 
L 205.773563 20.782006 
L 220.338942 23.559766 
L 231.667366 28.188369 
L 231.991698 30.220874 
L 226.598622 30.41904 
L 212.242043 26.946203 
z
" clip-path="url(#p80767e98ab)" style="fill: #e8edf4; stroke: #b8c5d4; stroke-width: 0.45"/>
    <path d="M -155.862633 -255.813672 
L -149.965891 -260.800559 
L -134.039851 -263.784563 
L -124.368885 -259.899577 
L -120.325912 -256.393816 
L -126.353451 -252.099838 
L -142.434616 -252.925262 
z
" clip-path="url(#p80767e98ab)" style="fill: #e8edf4; stroke: #b8c5d4; stroke-width: 0.45"/>
    <path d="M -175.92352 -299.504458 
L -155.125648 -298.329002 
L -141.887386 -294.479792 
L -144.889421 -290.476888 
L -161.27826 -288.191231 
L -170.29982 -290.763954 
L -175.047151 -294.920552 
z
" clip-path="url(#p80767e98ab)" style="fill: #e8edf4; stroke: #b8c5d4; stroke-width: 0.45"/>
    <path d="M 26.450031 -112.798043 
L 31.24368 -116.886646 
L 35.77824 -116.644172 
L 38.593994 -114.373015 
L 34.255163 -108.55104 
L 29.35872 -109.4928 
z
" clip-path="url(#p80767e98ab)" style="fill: #e8edf4; stroke: #b8c5d4; stroke-width: 0.45"/>
    <path d="M -13.776037 -117.631015 
L -5.543778 -122.740689 
L 9.670265 -122.635348 
L 9.434769 -120.488862 
L -3.528775 -114.379052 
L -11.349637 -114.634818 
z
" clip-path="url(#p80767e98ab)" style="fill: #e8edf4; stroke: #b8c5d4; stroke-width: 0.45"/>
    <path d="M -340.99509 -286.879826 
L -332.026192 -290.411632 
L -315.852295 -291.540436 
L -300.233928 -289.805444 
L -303.916852 -286.490011 
L -324.567041 -283.302227 
z
" clip-path="url(#p80767e98ab)" style="fill: #e8edf4; stroke: #b8c5d4; stroke-width: 0.45"/>
    <path d="M -151.602142 -288.014354 
L -129.296241 -287.852361 
L -121.521116 -285.795671 
L -122.84311 -284.5292 
L -148.648476 -284.918157 
z
" clip-path="url(#p80767e98ab)" style="fill: #e8edf4; stroke: #b8c5d4; stroke-width: 0.45"/>
    <path d="M -267.950769 -239.556923 
L -264.184615 -241.107692 
L -249.341538 -241.550769 
L -240.923077 -239.113846 
L -250.670769 -231.803077 
z
" clip-path="url(#p80767e98ab)" style="fill: #e8edf4; stroke: #b8c5d4; stroke-width: 0.45"/>
    <path d="M -330.004705 -294.36445 
L -329.825253 -295.944604 
L -318.461653 -299.261468 
L -298.114845 -296.514158 
L -311.608404 -294.353574 
z
" clip-path="url(#p80767e98ab)" style="fill: #e8edf4; stroke: #b8c5d4; stroke-width: 0.45"/>
    <path d="M -464.53525 40.418588 
L -463.193735 38.255465 
L -447.175385 42.018462 
L -441.275372 52.475077 
L -438.535385 49.550769 
L -440.307692 40.467692 
L -444.073846 31.384615 
L -137.454308 31.384615 
L -137.421305 27.128308 
L -133.671655 27.075138 
L -131.704615 33.156923 
L -128.261243 35.031803 
L -109.218462 37.476923 
L -98.473846 40.910769 
L -89.501538 39.470769 
L -75.876923 42.350769 
L -72.253855 42.242124 
L -62.342188 39.106144 
L -23.550423 54.645231 
L -22.477716 57.558255 
L -19.869217 58.648421 
L -20.546585 59.745969 
L -17.575754 60.087471 
L -15.420401 58.941498 
L -14.863583 61.564594 
L -12.63617 63.320193 
L -9.594066 63.320193 
L -7.970408 64.674243 
L -9.336193 66.64364 
L 2.205142 71.842893 
L 6.783038 91.520261 
L 3.544615 98.067692 
L -4.098462 108.036923 
L -4.34215 109.192456 
L -3.099435 110.775186 
L 0.663626 112.521913 
L 3.441847 112.521913 
L 16.308038 106.607712 
L 27.72058 104.866709 
L 42.210142 99.35692 
L 41.427692 94.855385 
L 39.636847 92.680548 
L 44.636899 90.922086 
L 65.685776 90.881159 
L 69.230769 86.564763 
L 82.321366 77.725477 
L 87.319385 75.686991 
L 124.559335 75.601477 
L 125.667692 72.867692 
L 133.92 70.596923 
L 137.852308 65.556923 
L 141.231102 56.938302 
L 149.680069 48.578426 
L 153.36 51.489231 
L 160.787742 49.607705 
L 165.705674 52.803397 
L 165.695926 67.907335 
L 172.939458 74.168898 
L 174.852997 77.800246 
L 163.024394 83.167015 
L 139.943963 90.268985 
L 132.204295 99.338215 
L 132.092308 105.212308 
L 135.747692 111.083077 
L 140.344615 111.36 
L 139.181538 107.316923 
L 142.504948 109.777883 
L 141.618129 112.942117 
L 134.141538 114.738462 
L 128.820295 114.523015 
L 120.627692 116.455385 
L 109.368775 117.555877 
L 100.135385 120.763174 
L 116.404505 118.676529 
L 119.686154 120.775385 
L 104.178462 124.098462 
L 97.122462 124.120615 
L 97.451169 122.760923 
L 94.07952 125.831889 
L 97.339126 126.340098 
L 94.947175 134.297428 
L 86.886942 142.823557 
L 86.063151 139.978338 
L 83.630548 139.401785 
L 79.996985 136.632 
L 82.301538 142.596923 
L 85.050446 144.568258 
L 85.21776 148.754363 
L 75.431298 161.905218 
L 74.422855 161.465354 
L 77.848062 153.928062 
L 72.189748 149.694849 
L 70.892308 140.492308 
L 68.757508 145.281803 
L 71.121268 152.308505 
L 63.8031 150.572399 
L 71.428209 154.139686 
L 71.903188 164.679877 
L 75.0816 165.445735 
L 77.787803 180.361034 
L 70.746314 188.582326 
L 59.287735 191.866966 
L 52.006597 198.364025 
L 46.474892 199.074498 
L 40.866425 203.143938 
L 39.283532 206.860911 
L 27.123785 214.050222 
L 20.880222 219.323446 
L 15.659557 225.889957 
L 13.952271 233.760111 
L 15.909674 241.452702 
L 19.606154 250.929231 
L 24.528905 258.770252 
L 24.590769 263.556923 
L 29.835257 276.406154 
L 29.004258 288.183415 
L 26.240898 294.947151 
L 22.929231 296.344615 
L 17.477945 295.001428 
L 15.729231 290.141538 
L 11.52 287.593846 
L 0.4968 269.593403 
L -1.165957 265.260111 
L 1.107692 257.907692 
L -1.993846 251.815385 
L -10.629305 242.548874 
L -14.953846 240.849231 
L -26.128468 245.876492 
L -28.111458 245.322978 
L -33.486646 240.155705 
L -40.430769 237.415385 
L -52.95168 238.807422 
L -62.782006 237.582646 
L -71.230043 238.346068 
L -75.808592 240.073913 
L -73.81368 243.018203 
L -73.993846 247.510449 
L -71.641883 249.698806 
L -73.752702 251.155089 
L -77.862794 249.520911 
L -82.020517 251.622314 
L -90.057877 251.277766 
L -98.327465 245.424 
L -107.989588 246.805292 
L -116.045945 244.241538 
L -122.936345 245.018252 
L -132.258462 247.606154 
L -142.341342 255.818252 
L -153.349366 260.594068 
L -159.396923 265.883077 
L -161.944615 270.867692 
L -162.055385 278.510769 
L -161.501538 283.827692 
L -159.396923 287.593846 
L -163.716923 287.926154 
L -180.221538 282.055385 
L -183.323077 276.849231 
L -185.76 269.095385 
L -192.295385 262.781538 
L -201.684185 248.705982 
L -209.4912 244.290831 
L -218.547692 244.504615 
L -225.526154 253.255385 
L -234.72 249.932308 
L -240.446437 246.58752 
L -246.875483 234.712394 
L -259.121354 226.339015 
L -263.160997 222.411471 
L -282.350769 222.407774 
L -282.372258 226.978486 
L -313.184603 227.061563 
L -355.181538 213.873822 
L -354.144628 211.707729 
L -380.799803 213.762388 
L -382.662694 208.103358 
L -389.841231 201.733996 
L -395.009748 200.40839 
L -396.220373 197.230727 
L -402.435692 196.674462 
L -406.399466 193.678407 
L -416.689255 192.585858 
L -419.514757 190.7976 
L -420.860271 184.724012 
L -431.607545 173.59536 
L -440.833514 158.195889 
L -440.440726 155.630142 
L -445.327643 151.971212 
L -453.901292 142.689305 
L -455.429575 133.657957 
L -461.332468 127.607631 
L -458.904295 118.426855 
L -459.290215 108.927065 
L -462.825305 100.438265 
L -458.497551 89.999483 
L -455.803532 69.894535 
L -457.805188 55.036615 
L -461.305883 45.561194 
z
" clip-path="url(#p80767e98ab)" style="fill: #e8edf4; stroke: #b8c5d4; stroke-width: 0.45"/>
    <path d="M -945.532358 -153.26766 
L -929.966081 -157.901366 
L -905.258322 -163.310696 
L -896.1509 -163.310696 
L -897.658357 -157.778297 
L -874.276886 -158.209326 
L -883.270684 -165.070875 
L -896.895326 -169.289294 
L -904.774058 -174.827131 
L -915.4001 -179.550707 
L -930.621497 -183.052174 
L -924.421374 -188.858189 
L -904.772055 -189.218238 
L -890.790797 -194.264656 
L -888.153964 -199.658531 
L -876.837016 -204.92304 
L -866.046977 -206.189796 
L -845.049332 -211.107421 
L -834.864623 -210.366142 
L -817.818364 -216.270612 
L -801.0586 -213.9446 
L -793.043061 -208.944834 
L -788.123146 -211.089104 
L -769.403144 -210.424529 
L -770.067719 -207.876992 
L -753.119916 -205.99403 
L -741.821572 -207.101655 
L -718.486467 -203.601618 
L -697.181425 -202.560107 
L -688.652429 -201.119909 
L -673.913865 -202.920157 
L -645.075555 -198.040598 
L -645.206178 -93.855397 
L -634.297846 -93.527852 
L -623.508923 -90.461538 
L -605.935385 -78.332308 
L -595.159975 -84.523089 
L -584.039963 -88.110794 
L -578.16 -82.381588 
L -560.553895 -72.852332 
L -542.301895 -52.269637 
L -523.470794 -45.221502 
L -523.163077 -38.233846 
L -529.323067 -32.892038 
L -535.41214 -37.058653 
L -545.175265 -40.590745 
L -548.307811 -50.252266 
L -562.587852 -59.212292 
L -568.557005 -69.670902 
L -596.803152 -70.658319 
L -609.784685 -73.846103 
L -632.689333 -85.341359 
L -662.670759 -91.396946 
L -678.006066 -90.45246 
L -699.790783 -95.541523 
L -712.959219 -100.260806 
L -725.253853 -97.91619 
L -722.969342 -90.22149 
L -741.908579 -87.201138 
L -751.660542 -83.463262 
L -763.935428 -81.110633 
L -765.519875 -87.636746 
L -760.538426 -98.501199 
L -748.766121 -101.910508 
L -751.803074 -104.689015 
L -765.923142 -98.516655 
L -773.483038 -91.144511 
L -789.443137 -83.264634 
L -781.338587 -77.886214 
L -791.80607 -69.929061 
L -814.800015 -61.913808 
L -817.544463 -57.009063 
L -834.83686 -51.289197 
L -838.338328 -46.089086 
L -851.298396 -41.354061 
L -858.90151 -42.205816 
L -889.692331 -31.640164 
L -908.70169 -28.476994 
L -910.436969 -30.338491 
L -898.320069 -35.513702 
L -887.483092 -38.93217 
L -875.677015 -44.990619 
L -861.935314 -46.243065 
L -856.473894 -50.784613 
L -841.119983 -57.415478 
L -838.646002 -59.63359 
L -830.46761 -63.544621 
L -828.556886 -71.944538 
L -822.923169 -78.486106 
L -835.695484 -75.128887 
L -839.267645 -77.033887 
L -845.26456 -73.006369 
L -852.498466 -78.624631 
L -855.485045 -74.649775 
L -859.627619 -80.172443 
L -870.701576 -75.73851 
L -877.501591 -75.747669 
L -878.455236 -82.341327 
L -876.452352 -86.40319 
L -883.584654 -90.347708 
L -897.987782 -88.224617 
L -907.335333 -93.424443 
L -914.913833 -96.083029 
L -914.963061 -102.356993 
L -923.498354 -107.077134 
L -919.21239 -113.446119 
L -910.181671 -119.627924 
L -906.230857 -125.313731 
L -897.267683 -126.123127 
L -889.667717 -124.350927 
L -880.732306 -129.695288 
L -872.68929 -128.741357 
L -864.249305 -132.178428 
L -866.307712 -137.237153 
L -872.507835 -139.230878 
L -864.307691 -143.504535 
L -871.110568 -143.378603 
L -882.864555 -140.966157 
L -886.240091 -138.519937 
L -894.975444 -140.963008 
L -910.643038 -139.720007 
L -926.864731 -142.375444 
L -931.513893 -146.830843 
z
" clip-path="url(#p80767e98ab)" style="fill: #e8edf4; stroke: #b8c5d4; stroke-width: 0.45"/>
    <path d="M -812.198437 355.905895 
L -809.723963 352.866942 
L -810.48816 350.688554 
L -809.845809 349.65552 
L -800.997342 354.176123 
L -798.174388 358.057366 
L -806.312603 362.767606 
L -807.930498 364.620665 
L -810.682892 363.034449 
L -810.366203 359.93856 
z
" clip-path="url(#p80767e98ab)" style="fill: #e8edf4; stroke: #b8c5d4; stroke-width: 0.45"/>
    <path d="M -986.301533 -128.187831 
L -985.642968 -132.36017 
L -978.806033 -130.251963 
L -971.901553 -131.390498 
L -962.944676 -128.467742 
L -951.94456 -126.987761 
L -952.858422 -125.781395 
L -961.24918 -123.436779 
L -973.898426 -127.855257 
L -983.664699 -127.212434 
z
" clip-path="url(#p80767e98ab)" style="fill: #e8edf4; stroke: #b8c5d4; stroke-width: 0.45"/>
    <path d="M -796.663305 -62.3394 
L -780.687464 -67.963958 
L -773.333065 -67.21581 
L -768.6404 -63.777881 
L -778.223786 -58.513944 
L -789.287154 -54.291805 
L -794.950923 -57.15045 
z
" clip-path="url(#p80767e98ab)" style="fill: #e8edf4; stroke: #b8c5d4; stroke-width: 0.45"/>
    <path d="M -819.255323 342.349735 
L -818.170117 341.400111 
L -811.336542 344.152172 
L -812.262572 345.482178 
L -815.975446 346.274843 
z
" clip-path="url(#p80767e98ab)" style="fill: #e8edf4; stroke: #b8c5d4; stroke-width: 0.45"/>
    <path d="M -836.780123 335.123594 
L -833.8176 333.596751 
L -829.692886 337.969809 
L -830.293255 338.609502 
L -834.941575 338.077588 
z
" clip-path="url(#p80767e98ab)" style="fill: #e8edf4; stroke: #b8c5d4; stroke-width: 0.45"/>
    <path d="M -853.482572 329.737883 
L -851.219446 327.845391 
L -848.666105 328.080665 
L -848.438252 330.660923 
L -849.751975 331.757649 
z
" clip-path="url(#p80767e98ab)" style="fill: #e8edf4; stroke: #b8c5d4; stroke-width: 0.45"/>
    <path d="M -938.273838 -92.821689 
L -927.335543 -94.716958 
L -918.547529 -93.713799 
L -917.49228 -89.46447 
L -924.289146 -87.741498 
z
" clip-path="url(#p80767e98ab)" style="fill: #e8edf4; stroke: #b8c5d4; stroke-width: 0.45"/>
    <path d="M -826.063865 340.455471 
L -825.23376 339.106191 
L -819.783582 339.579618 
L -820.127963 340.777145 
z
" clip-path="url(#p80767e98ab)" style="fill: #e8edf4; stroke: #b8c5d4; stroke-width: 0.45"/>
    <path d="M 91.849474 370.974831 
L 92.825443 367.404101 
L 111.379158 369.831144 
L 115.367466 367.365177 
L 110.307882 362.566615 
L 110.391455 358.335603 
L 103.402829 356.608052 
L 105.897704 353.549347 
L 122.263074 355.778335 
L 123.232174 361.811026 
L 122.385571 366.069227 
L 119.684912 367.935875 
L 122.53583 371.261612 
L 122.308008 374.270802 
L 114.951033 372.388126 
L 109.723445 373.156308 
L 102.964931 372.355498 
L 97.782278 374.425926 
z
" clip-path="url(#p80767e98ab)" style="fill: #e8edf4; stroke: #b8c5d4; stroke-width: 0.45"/>
    <path d="M 119.684912 367.935875 
L 122.385571 366.069227 
L 123.232174 361.811026 
L 122.263074 355.778335 
L 123.64832 353.890221 
L 132.294948 353.941452 
L 138.856265 356.792656 
L 141.775586 356.514462 
L 143.786769 360.44381 
L 149.847222 360.222858 
L 149.49032 363.52398 
L 154.418821 363.924099 
L 159.862782 367.987965 
L 155.749115 372.496885 
L 150.4806 370.087587 
L 141.752117 370.024907 
L 139.754958 372.045249 
L 135.50248 372.727855 
L 133.817002 370.040649 
L 130.154399 371.63082 
L 125.720752 379.215902 
L 122.868976 377.454579 
L 122.53583 371.261612 
z
" clip-path="url(#p80767e98ab)" style="fill: #e8edf4; stroke: #b8c5d4; stroke-width: 0.45"/>
    <path d="M 48.090683 301.931372 
L 50.501132 294.901292 
L 53.833846 295.347692 
L 57.710769 304.541538 
L 57.76992 310.968923 
L 55.052308 311.52 
L 52.238215 305.138031 
z
" clip-path="url(#p80767e98ab)" style="fill: #e8edf4; stroke: #b8c5d4; stroke-width: 0.45"/>
    <path d="M 54.941538 274.633846 
L 63.692308 279.618462 
L 61.780985 287.49216 
L 59.744382 286.072431 
L 59.926154 280.283077 
L 54.963471 275.90592 
z
" clip-path="url(#p80767e98ab)" style="fill: #e8edf4; stroke: #b8c5d4; stroke-width: 0.45"/>
    <path d="M 41.76 277.403077 
L 46.966154 276.516923 
L 54.276923 276.849231 
L 54.609231 279.729231 
L 42.535385 281.501538 
z
" clip-path="url(#p80767e98ab)" style="fill: #e8edf4; stroke: #b8c5d4; stroke-width: 0.45"/>
    <path d="M 171.776187 370.621364 
L 173.346324 369.002572 
L 182.409957 369.067255 
L 188.071722 370.042938 
L 190.068881 372.243305 
L 187.231416 375.036122 
L 172.421586 375.361254 
z
" clip-path="url(#p80767e98ab)" style="fill: #e8edf4; stroke: #b8c5d4; stroke-width: 0.45"/>
    <path d="M 48.874494 372.266201 
L 50.203644 369.734406 
L 57.382883 369.335718 
L 64.837455 370.32886 
L 70.722177 372.989163 
L 72.557628 376.022394 
L 64.771627 376.22875 
L 61.406681 378.079943 
L 55.207131 376.302306 
z
" clip-path="url(#p80767e98ab)" style="fill: #e8edf4; stroke: #b8c5d4; stroke-width: 0.45"/>
    <path d="M -24.645169 331.613227 
L -18.798227 328.191325 
L -16.397801 324.194717 
L -11.389734 321.731612 
L -5.732835 319.572459 
L 2.65363 318.512345 
L 5.337402 317.295389 
L 23.607485 318.210682 
L 34.01143 321.984333 
L 38.420463 326.039613 
L 48.76688 324.788312 
L 68.966863 339.247537 
L 72.613439 339.095274 
L 79.21969 341.354314 
L 78.41287 344.472835 
L 86.578382 344.929051 
L 94.951109 349.462584 
L 93.637129 352.057346 
L 86.271567 353.463485 
L 78.815851 354.013577 
L 71.184116 353.137208 
L 55.323904 354.216212 
L 62.749568 348.036696 
L 58.235211 345.159448 
L 51.094609 344.419028 
L 47.26715 341.221513 
L 44.641479 334.913204 
L 38.381539 335.344519 
L 28.052581 332.374254 
L 24.728848 330.050818 
L 10.291089 328.334142 
L 6.424706 326.173559 
L 10.578442 323.405928 
L -0.28687 322.83895 
L -8.246313 328.594878 
L -12.835943 328.74943 
L -14.423825 331.452092 
L -19.905565 332.663324 
z
" clip-path="url(#p80767e98ab)" style="fill: #e8edf4; stroke: #b8c5d4; stroke-width: 0.45"/>
   </g>
   <g id="PathCollection_1">
    <defs>
     <path id="m6cb482d337" d="M 0 2.12132 
C 0.562581 2.12132 1.102195 1.897805 1.5 1.5 
C 1.897805 1.102195 2.12132 0.562581 2.12132 0 
C 2.12132 -0.562581 1.897805 -1.102195 1.5 -1.5 
C 1.102195 -1.897805 0.562581 -2.12132 0 -2.12132 
C -0.562581 -2.12132 -1.102195 -1.897805 -1.5 -1.5 
C -1.897805 -1.102195 -2.12132 -0.562581 -2.12132 0 
C -2.12132 0.562581 -1.897805 1.102195 -1.5 1.5 
C -1.102195 1.897805 -0.562581 2.12132 0 2.12132 
z
" style="stroke: #ffffff; stroke-width: 0.5"/>
    </defs>
    <g clip-path="url(#p80767e98ab)">
     <use xlink:href="#m6cb482d337" x="232.061538" y="385.292308" style="fill: #8aa0b7; stroke: #ffffff; stroke-width: 0.5"/>
     <use xlink:href="#m6cb482d337" x="216.923077" y="372" style="fill: #8aa0b7; stroke: #ffffff; stroke-width: 0.5"/>
     <use xlink:href="#m6cb482d337" x="257.169231" y="428.307692" style="fill: #8aa0b7; stroke: #ffffff; stroke-width: 0.5"/>
     <use xlink:href="#m6cb482d337" x="220.615754" y="375.876923" style="fill: #8aa0b7; stroke: #ffffff; stroke-width: 0.5"/>
     <use xlink:href="#m6cb482d337" x="199.384615" y="216" style="fill: #8aa0b7; stroke: #ffffff; stroke-width: 0.5"/>
     <use xlink:href="#m6cb482d337" x="74.769231" y="305.538462" style="fill: #8aa0b7; stroke: #ffffff; stroke-width: 0.5"/>
     <use xlink:href="#m6cb482d337" x="237.230769" y="403.384615" style="fill: #8aa0b7; stroke: #ffffff; stroke-width: 0.5"/>
     <use xlink:href="#m6cb482d337" x="234.461542" y="394.153846" style="fill: #8aa0b7; stroke: #ffffff; stroke-width: 0.5"/>
     <use xlink:href="#m6cb482d337" x="114.461539" y="363.692308" style="fill: #8aa0b7; stroke: #ffffff; stroke-width: 0.5"/>
     <use xlink:href="#m6cb482d337" x="58.153846" y="372" style="fill: #8aa0b7; stroke: #ffffff; stroke-width: 0.5"/>
     <use xlink:href="#m6cb482d337" x="221.538462" y="382.153846" style="fill: #8aa0b7; stroke: #ffffff; stroke-width: 0.5"/>
     <use xlink:href="#m6cb482d337" x="24.923077" y="358.153846" style="fill: #8aa0b7; stroke: #ffffff; stroke-width: 0.5"/>
     <use xlink:href="#m6cb482d337" x="241.292308" y="420.369231" style="fill: #8aa0b7; stroke: #ffffff; stroke-width: 0.5"/>
     <use xlink:href="#m6cb482d337" x="218.214277" y="373.984985" style="fill: #8aa0b7; stroke: #ffffff; stroke-width: 0.5"/>
     <use xlink:href="#m6cb482d337" x="240.923077" y="411.692304" style="fill: #8aa0b7; stroke: #ffffff; stroke-width: 0.5"/>
     <use xlink:href="#m6cb482d337" x="227.630769" y="388.615385" style="fill: #8aa0b7; stroke: #ffffff; stroke-width: 0.5"/>
     <use xlink:href="#m6cb482d337" x="292.615385" y="55.384615" style="fill: #8aa0b7; stroke: #ffffff; stroke-width: 0.5"/>
     <use xlink:href="#m6cb482d337" x="180" y="372" style="fill: #8aa0b7; stroke: #ffffff; stroke-width: 0.5"/>
     <use xlink:href="#m6cb482d337" x="218.162215" y="374.298462" style="fill: #8aa0b7; stroke: #ffffff; stroke-width: 0.5"/>
     <use xlink:href="#m6cb482d337" x="121.315569" y="333.851077" style="fill: #8aa0b7; stroke: #ffffff; stroke-width: 0.5"/>
     <use xlink:href="#m6cb482d337" x="238.707692" y="427.384615" style="fill: #8aa0b7; stroke: #ffffff; stroke-width: 0.5"/>
     <use xlink:href="#m6cb482d337" x="200.603077" y="370.109169" style="fill: #8aa0b7; stroke: #ffffff; stroke-width: 0.5"/>
     <use xlink:href="#m6cb482d337" x="197.764062" y="371.0496" style="fill: #8aa0b7; stroke: #ffffff; stroke-width: 0.5"/>
    </g>
   </g>
   <g id="PathCollection_2">
    <defs>
     <path id="m1f5c9b1890" d="M 0 3.674235 
C 0.974418 3.674235 1.909058 3.287094 2.598076 2.598076 
C 3.287094 1.909058 3.674235 0.974418 3.674235 0 
C 3.674235 -0.974418 3.287094 -1.909058 2.598076 -2.598076 
C 1.909058 -3.287094 0.974418 -3.674235 0 -3.674235 
C -0.974418 -3.674235 -1.909058 -3.287094 -2.598076 -2.598076 
C -3.287094 -1.909058 -3.674235 -0.974418 -3.674235 0 
C -3.674235 0.974418 -3.287094 1.909058 -2.598076 2.598076 
C -1.909058 3.287094 -0.974418 3.674235 0 3.674235 
z
" style="stroke: #ffffff; stroke-width: 1.2"/>
    </defs>
    <g clip-path="url(#p80767e98ab)">
     <use xlink:href="#m1f5c9b1890" x="199.384615" y="216" style="fill: #f97316; stroke: #ffffff; stroke-width: 1.2"/>
    </g>
   </g>
   <g id="PathCollection_3">
    <path d="M 199.384615 220.929503 
C 200.691935 220.929503 201.945886 220.410099 202.8703 219.485685 
C 203.794715 218.561271 204.314118 217.307319 204.314118 216 
C 204.314118 214.692681 203.794715 213.438729 202.8703 212.514315 
C 201.945886 211.589901 200.691935 211.070497 199.384615 211.070497 
C 198.077296 211.070497 196.823345 211.589901 195.89893 212.514315 
C 194.974516 213.438729 194.455112 214.692681 194.455112 216 
C 194.455112 217.307319 194.974516 218.561271 195.89893 219.485685 
C 196.823345 220.410099 198.077296 220.929503 199.384615 220.929503 
L 199.384615 220.929503 
z
" clip-path="url(#p80767e98ab)" style="fill: none; stroke: #7c2d12; stroke-width: 1.1"/>
   </g>
  </g>
 </g>
 <defs>
  <clipPath id="p80767e98ab">
   <rect x="0" y="0" width="398.769231" height="432"/>
  </clipPath>
 </defs>
</svg>
