<?xml version="1.0" encoding="utf-8" standalone="no"?>
<!DOCTYPE svg PUBLIC "-//W3C//DTD SVG 1.1//EN"
  "http://www.w3.org/Graphics/SVG/1.1/DTD/svg11.dtd">
<svg xmlns:xlink="http://www.w3.org/1999/xlink" width="534.065934pt" height="432pt" viewBox="0 0 534.065934 432" xmlns="http://www.w3.org/2000/svg" version="1.1">
 <metadata>
  <rdf:RDF xmlns:dc="http://purl.org/dc/elements/1.1/" xmlns:cc="http://creativecommons.org/ns#" xmlns:rdf="http://www.w3.org/1999/02/22-rdf-syntax-ns#">
   <cc:Work>
    <dc:type rdf:resource="http://purl.org/dc/dcmitype/StillImage"/>
    <dc:date>2026-06-09T04:57:12.562205</dc:date>
    <dc:format>image/svg+xml</dc:format>
    <dc:creator>
     <cc:Agent>
      <dc:title>Matplotlib v3.10.8, https://matplotlib.org/</dc:title>
     </cc:Agent>
    </dc:creator>
   </cc:Work>
  </rdf:RDF>
 </metadata>
 <defs>
  <style type="text/css">*{stroke-linejoin: round; stroke-linecap: butt}</style>
 </defs>
 <g id="figure_1">
  <g id="patch_1">
   <path d="M 0 432 
L 534.065934 432 
L 534.065934 0 
L 0 0 
z
" style="fill: #eaf3ff"/>
  </g>
  <g id="axes_1">
   <g id="PatchCollection_1">
    <path d="M -74.336337 -12.772967 
L -51.25515 -16.645513 
L -21.359862 -12.065522 
L -27.002861 -32.216196 
L -10.19714 -24.579657 
L 31.250471 -38.461764 
L 36.595404 -53.049476 
L 52.164707 -56.643736 
L 54.743338 -50.383449 
L 63.018325 -50.089984 
L 83.718211 -34.551039 
L 92.854275 -35.93741 
L 112.410659 -26.276053 
L 117.547682 -26.652314 
L 125.948703 -21.990906 
L 151.602542 -18.71219 
L 142.601712 -6.521879 
L 140.342304 6.161068 
L 135.454588 9.201976 
L 127.343353 7.563538 
L 127.915565 12.086952 
L 114.896375 22.090533 
L 114.633268 30.15117 
L 123.133644 27.361869 
L 129.248578 35.1686 
L 128.514455 40.198909 
L 133.753593 46.883295 
L 127.581621 52.305504 
L 132.167593 66.079976 
L 141.816991 68.338464 
L 139.780212 76.065618 
L 123.652498 86.123016 
L 88.541531 81.302916 
L 62.611705 87.078848 
L 60.574927 97.799073 
L 39.938517 100.106778 
L 19.907437 92.05396 
L 13.43556 95.902587 
L -19.335043 87.812051 
L -26.430649 80.890777 
L -17.224669 70.21287 
L -13.834638 34.745421 
L -32.205201 16.062994 
L -45.335245 7.055723 
L -72.541967 0.208505 
z
" clip-path="url(#pa4989592c5)" style="fill: #e8edf4; stroke: #b8c5d4; stroke-width: 0.45"/>
    <path d="M -963.242877 812.756097 
L -958.702444 805.269511 
L -954.024477 789.46746 
L -961.013829 778.918347 
L -962.421818 766.739075 
L -953.154201 751.432879 
L -934.000757 757.604851 
L -915.151818 772.631381 
L -912.204745 779.922017 
L -922.73546 796.213483 
L -928.202287 809.322829 
L -935.024666 816.084951 
L -943.5485 817.357248 
L -945.976259 812.345798 
L -949.95828 811.601555 
L -955.468805 816.428554 
z
" clip-path="url(#pa4989592c5)" style="fill: #e8edf4; stroke: #b8c5d4; stroke-width: 0.45"/>
    <path d="M 159.523347 101.65322 
L 163.115767 95.037831 
L 174.580235 88.23983 
L 177.606884 103.505088 
L 171.727457 117.257021 
L 163.644741 113.632402 
z
" clip-path="url(#pa4989592c5)" style="fill: #e8edf4; stroke: #b8c5d4; stroke-width: 0.45"/>
    <path d="M 141.369893 246.903848 
L 152.344945 236.974324 
L 156.535336 222.292317 
L 153.712917 205.321465 
L 157.329256 196.184481 
L 176.716368 189.000099 
L 189.178066 191.136233 
L 188.655532 200.143503 
L 203.755658 193.59113 
L 205.022435 197.011059 
L 196.12096 205.734064 
L 196.001366 213.968573 
L 202.165058 218.391712 
L 199.821015 233.799103 
L 188.10264 242.748876 
L 191.486231 252.451631 
L 200.693131 252.754296 
L 205.173308 261.217414 
L 211.94325 264.000735 
L 210.93682 277.674472 
L 202.258893 282.785277 
L 196.777807 288.488992 
L 184.553457 295.34909 
L 186.446723 302.723442 
L 184.905799 310.244986 
L 176.220513 314.37098 
L 168.627212 282.413616 
L 157.65216 275.228774 
L 157.498528 270.919709 
L 142.939335 260.313559 
z
" clip-path="url(#pa4989592c5)" style="fill: #e8edf4; stroke: #b8c5d4; stroke-width: 0.45"/>
    <path d="M -147.18382 366.207632 
L -147.00075 340.473757 
L -118.252185 327.336813 
L -100.474992 324.622488 
L -85.90384 319.838267 
L -79.0948 310.923912 
L -58.280379 303.878444 
L -57.515897 290.698722 
L -47.217011 289.146299 
L -39.163733 282.562188 
L -15.865897 279.561758 
L -12.6019 272.643243 
L -17.292745 268.860392 
L -23.441718 250.066651 
L -24.501506 239.239251 
L -31.21165 227.83734 
L -14.098205 218.109286 
L 5.148614 215.015021 
L 16.387693 207.669647 
L 33.531957 202.251118 
L 93.148661 197.633408 
L 102.127412 200.277356 
L 118.891735 193.260867 
L 137.914546 193.123334 
L 145.154584 197.265427 
L 157.329256 196.184481 
L 153.712917 205.321465 
L 156.535336 222.292317 
L 152.344945 236.974324 
L 141.369893 246.903848 
L 142.939335 260.313559 
L 157.498528 270.919709 
L 157.65216 275.228774 
L 168.627212 282.413616 
L 176.220513 314.37098 
L 181.979426 330.088855 
L 182.947217 338.360622 
L 179.812014 352.883937 
L 181.09811 361.000232 
L 178.835943 370.743466 
L 180.388825 381.936547 
L 173.323578 389.375755 
L 183.849692 402.351247 
L 184.518499 409.979507 
L 190.848703 419.906731 
L 199.171527 416.645034 
L 213.222906 424.916341 
L 221.035156 436.064804 
L 160.033921 469.99593 
L 108.490735 504.967524 
L 83.387028 512.906268 
L 63.639294 514.649121 
L 63.435064 503.323106 
L 44.107749 495.336065 
L 39.87504 486.994382 
z
" clip-path="url(#pa4989592c5)" style="fill: #e8edf4; stroke: #b8c5d4; stroke-width: 0.45"/>
    <path d="M 400.589951 -8.110639 
L 404.065538 -15.287201 
L 409.002011 -19.92193 
L 412.887897 -18.883302 
L 408.295486 -26.883222 
L 424.460919 -41.689883 
L 433.295238 -43.76162 
L 435.204143 -48.75559 
L 426.25115 -64.297754 
L 434.760725 -64.99186 
L 444.516838 -69.816559 
L 458.307869 -70.211679 
L 476.291132 -68.816569 
L 496.1603 -64.544302 
L 510.1804 -64.1869 
L 516.873985 -61.614248 
L 523.553772 -64.717713 
L 528.219779 -60.555381 
L 544.284937 -61.408179 
L 551.365823 -59.687864 
L 552.511166 -68.647757 
L 557.995932 -72.556182 
L 579.926295 -72.892583 
L 584.423453 -76.941603 
L 589.830023 -76.047408 
L 608.289821 -77.767262 
L 619.665973 -67.687785 
L 615.219835 -64.083405 
L 616.694522 -58.557241 
L 630.889413 -57.695244 
L 637.222134 -49.975635 
L 636.834156 -46.473184 
L 659.443867 -40.213817 
L 673.103345 -43.033016 
L 684.090357 -34.696392 
L 694.493197 -34.888663 
L 720.734559 -29.095616 
L 720.943717 -23.868533 
L 713.71355 -14.547125 
L 717.647301 -4.730816 
L 714.846261 1.205735 
L 697.618939 2.510941 
L 688.44266 7.481662 
L 687.880568 15.389587 
L 673.667277 16.813216 
L 661.823789 22.572589 
L 645.157901 23.511402 
L 629.824106 30.14749 
L 630.719863 39.680057 
L 628.034102 39.137851 
L 625.723826 35.622214 
L 607.342068 31.10211 
L 602.651656 35.510921 
L 600.205265 33.576159 
L 572.533047 29.076664 
L 571.307668 22.438275 
L 554.812891 24.630526 
L 548.205781 34.434016 
L 534.421189 47.591659 
L 526.346752 44.536492 
L 517.98069 47.400769 
L 510.036887 44.120673 
L 514.517983 42.186929 
L 522.501344 30.403238 
L 521.241927 27.215597 
L 524.964981 25.795188 
L 526.719334 28.259285 
L 537.21049 28.780439 
L 541.922495 27.463984 
L 538.603301 25.659034 
L 539.860878 23.005887 
L 533.644748 18.480173 
L 531.071637 11.037744 
L 524.58688 8.12563 
L 525.865616 2.093031 
L 517.822458 -2.69671 
L 510.499624 -3.362757 
L 497.379239 -8.90916 
L 485.54587 -7.148368 
L 481.300281 -4.522819 
L 473.789776 -4.525578 
L 469.31236 -0.364626 
L 456.170816 1.346028 
L 450.09268 4.079212 
L 441.827812 -0.270791 
L 430.414862 -0.337028 
L 419.400252 -2.308489 
L 411.714956 1.5038 
L 410.473938 -3.268001 
z
" clip-path="url(#pa4989592c5)" style="fill: #e8edf4; stroke: #b8c5d4; stroke-width: 0.45"/>
    <path d="M 176.181875 15.378548 
L 178.904939 11.020725 
L 178.215893 7.861603 
L 183.589345 6.880012 
L 192.597535 11.823845 
L 195.132929 7.12564 
L 210.832865 7.884602 
L 223.56043 4.692361 
L 232.094843 5.238814 
L 237.646766 8.883672 
L 239.306363 5.858403 
L 236.782929 -5.740838 
L 243.17845 -8.001165 
L 249.455297 -16.208995 
L 262.681476 -10.479061 
L 272.696096 -17.761878 
L 278.961904 -19.091211 
L 292.780534 -13.658423 
L 301.141076 -14.582516 
L 309.347986 -11.221004 
L 307.918378 -8.960677 
L 309.692969 -2.791925 
L 308.341557 4.482612 
L 298.315897 4.51757 
L 301.763885 8.375857 
L 295.8541 19.836645 
L 292.46039 22.841215 
L 276.891087 23.284633 
L 267.907735 27.323691 
L 227.746221 21.34675 
L 223.769259 15.154539 
L 206.176058 18.248804 
L 204.106161 21.635155 
L 184.236993 18.620006 
z
" clip-path="url(#pa4989592c5)" style="fill: #e8edf4; stroke: #b8c5d4; stroke-width: 0.45"/>
    <path d="M 295.8541 19.836645 
L 301.763885 8.375857 
L 298.315897 4.51757 
L 308.341557 4.482612 
L 309.692969 -2.791925 
L 325.313789 3.70709 
L 340.256603 1.525879 
L 341.689892 -2.049062 
L 367.717232 -6.424824 
L 371.891984 -10.613375 
L 377.726333 -11.69938 
L 396.791461 -6.28959 
L 400.589951 -8.110639 
L 410.473938 -3.268001 
L 411.714956 1.5038 
L 400.842018 5.237894 
L 392.417079 17.311371 
L 381.654536 29.383929 
L 367.381449 32.741761 
L 356.270244 31.95382 
L 335.976057 39.292754 
L 321.271511 35.869605 
L 302.307578 26.043115 
L 298.848551 20.033515 
z
" clip-path="url(#pa4989592c5)" style="fill: #e8edf4; stroke: #b8c5d4; stroke-width: 0.45"/>
    <path d="M 481.300281 -4.522819 
L 485.54587 -7.148368 
L 497.379239 -8.90916 
L 510.499624 -3.362757 
L 517.822458 -2.69671 
L 525.865616 2.093031 
L 524.58688 8.12563 
L 531.071637 11.037744 
L 533.644748 18.480173 
L 539.860878 23.005887 
L 538.603301 25.659034 
L 541.922495 27.463984 
L 537.21049 28.780439 
L 526.719334 28.259285 
L 524.964981 25.795188 
L 521.241927 27.215597 
L 522.501344 30.403238 
L 514.517983 42.186929 
L 510.036887 44.120673 
L 506.848326 35.997478 
L 508.727792 28.396358 
L 508.158341 20.582728 
L 486.727091 -2.787785 
z
" clip-path="url(#pa4989592c5)" style="fill: #e8edf4; stroke: #b8c5d4; stroke-width: 0.45"/>
    <path d="M 367.381449 32.741761 
L 381.654536 29.383929 
L 392.417079 17.311371 
L 400.842018 5.237894 
L 419.400252 -2.308489 
L 430.414862 -0.337028 
L 441.827812 -0.270791 
L 450.09268 4.079212 
L 456.170816 1.346028 
L 469.31236 -0.364626 
L 473.789776 -4.525578 
L 481.300281 -4.522819 
L 486.727091 -2.787785 
L 508.158341 20.582728 
L 508.727792 28.396358 
L 506.848326 35.997478 
L 510.036887 44.120673 
L 517.98069 47.400769 
L 526.346752 44.536492 
L 534.421189 47.591659 
L 534.835169 52.18315 
L 526.20232 56.013839 
L 520.79483 54.346422 
L 515.814198 75.82321 
L 505.346961 73.953863 
L 492.392168 67.482446 
L 471.434694 71.62132 
L 462.606815 76.161753 
L 436.46264 75.22524 
L 422.783843 72.448818 
L 415.886027 73.752393 
L 407.504326 63.330234 
L 411.6294 60.325664 
L 407.237539 58.109034 
L 401.648818 62.098415 
L 391.268976 56.926433 
L 389.871566 49.58796 
L 379.026228 45.400789 
L 377.029927 39.736172 
z
" clip-path="url(#pa4989592c5)" style="fill: #e8edf4; stroke: #b8c5d4; stroke-width: 0.45"/>
    <path d="M 114.028858 -69.160631 
L 124.723324 -69.167991 
L 129.235699 -75.868937 
L 133.671717 -92.168683 
L 130.344244 -98.187942 
L 133.82075 -101.957914 
L 148.700087 -102.925706 
L 152.001802 -99.000262 
L 164.089999 -107.776623 
L 160.020122 -114.44997 
L 159.203203 -124.545546 
L 172.658451 -122.197823 
L 184.049322 -124.908008 
L 184.363947 -118.028132 
L 202.353648 -113.879599 
L 202.164138 -107.561354 
L 220.265154 -110.904467 
L 230.273334 -115.780224 
L 250.372491 -108.750855 
L 258.779031 -103.081178 
L 262.938144 -94.02239 
L 257.974991 -89.270827 
L 264.438589 -82.925904 
L 268.843329 -73.40346 
L 267.456038 -67.265986 
L 274.753114 -55.899034 
L 266.80839 -54.041646 
L 262.113865 -56.087624 
L 257.649328 -52.698973 
L 244.865646 -49.250985 
L 238.255776 -44.815427 
L 225.318462 -40.9392 
L 228.435266 -35.648085 
L 230.319332 -28.140799 
L 239.403879 -23.862093 
L 249.455297 -16.208995 
L 243.17845 -8.001165 
L 236.782929 -5.740838 
L 239.306363 5.858403 
L 237.646766 8.883672 
L 232.094843 5.238814 
L 223.56043 4.692361 
L 210.832865 7.884602 
L 195.132929 7.12564 
L 192.597535 11.823845 
L 183.589345 6.880012 
L 178.215893 7.861603 
L 159.138806 2.418235 
L 155.483828 6.285722 
L 140.342304 6.161068 
L 142.601712 -6.521879 
L 151.602542 -18.71219 
L 125.948703 -21.990906 
L 117.547682 -26.652314 
L 118.552272 -34.457204 
L 114.99757 -38.477403 
L 117.019629 -50.505803 
z
" clip-path="url(#pa4989592c5)" style="fill: #e8edf4; stroke: #b8c5d4; stroke-width: 0.45"/>
    <path d="M 405.840129 100.518457 
L 408.768343 98.006522 
L 406.838279 95.888788 
L 409.83273 90.224171 
L 416.619231 84.658449 
L 407.969823 76.974073 
L 406.372782 70.471837 
L 410.764643 66.433239 
L 415.886027 73.752393 
L 422.783843 72.448818 
L 436.46264 75.22524 
L 462.606815 76.161753 
L 471.434694 71.62132 
L 492.392168 67.482446 
L 505.346961 73.953863 
L 515.814198 75.82321 
L 506.5751 83.198482 
L 500.073784 95.932026 
L 505.820737 106.088779 
L 490.493382 103.701038 
L 472.358328 109.301259 
L 472.164218 118.166856 
L 455.983145 119.847612 
L 443.440492 113.627343 
L 429.188563 118.519658 
L 416.020341 118.004944 
L 414.756324 106.232292 
z
" clip-path="url(#pa4989592c5)" style="fill: #e8edf4; stroke: #b8c5d4; stroke-width: 0.45"/>
    <path d="M 366.132151 148.500041 
L 374.409898 139.865813 
L 375.477965 134.080221 
L 381.263556 131.49883 
L 381.620498 126.821784 
L 393.265277 125.245442 
L 400.051778 121.354037 
L 409.699336 121.69902 
L 412.627114 118.595868 
L 429.188563 118.519658 
L 443.440492 113.627343 
L 455.983145 119.847612 
L 472.164218 118.166856 
L 472.358328 109.301259 
L 481.030735 114.015103 
L 475.51929 125.156667 
L 471.288421 127.152967 
L 451.152467 124.964397 
L 429.593343 129.591765 
L 441.933607 139.599026 
L 432.889538 142.500561 
L 422.974273 142.5185 
L 413.556704 133.350238 
L 410.215431 137.256823 
L 414.193312 147.889192 
L 423.099387 156.243755 
L 416.389242 160.14436 
L 426.303587 168.34943 
L 435.115827 173.512213 
L 435.382614 183.570071 
L 418.915436 178.852546 
L 424.166534 187.932033 
L 412.862138 189.800919 
L 419.613681 205.511435 
L 407.789512 205.734064 
L 393.19168 197.990351 
L 386.515574 183.748542 
L 383.400609 171.904133 
L 367.337291 153.569448 
z
" clip-path="url(#pa4989592c5)" style="fill: #e8edf4; stroke: #b8c5d4; stroke-width: 0.45"/>
    <path d="M 426.035881 225.8507 
L 429.329316 218.284537 
L 439.06151 224.283558 
L 452.917859 223.269308 
L 466.166117 224.532865 
L 465.735579 227.630811 
L 475.437414 225.494677 
L 473.212045 230.746235 
L 447.576605 232.25956 
L 447.755076 229.322146 
z
" clip-path="url(#pa4989592c5)" style="fill: #e8edf4; stroke: #b8c5d4; stroke-width: 0.45"/>
    <path d="M 473.31508 151.373058 
L 493.061894 134.347008 
L 520.476526 133.634964 
L 527.953912 120.105659 
L 561.883658 122.462121 
L 583.28271 110.914858 
L 604.027674 105.882249 
L 633.480004 105.503688 
L 664.552372 118.051862 
L 690.090297 124.937258 
L 710.828822 122.192575 
L 726.153417 123.778576 
L 747.171607 114.48612 
L 766.13922 113.640222 
L 783.286244 122.381625 
L 786.311053 128.646973 
L 784.598099 137.31018 
L 797.835318 141.735159 
L 804.849048 146.93336 
L 792.658736 152.004606 
L 798.216179 172.421147 
L 794.733233 177.934432 
L 804.469637 192.196617 
L 795.938373 195.20381 
L 789.686365 190.669356 
L 768.980039 188.372231 
L 761.33338 191.138533 
L 741.083351 193.907134 
L 731.49099 193.605849 
L 711.006373 200.285636 
L 696.360704 200.341293 
L 686.887017 196.989441 
L 667.287396 201.941553 
L 661.461327 198.479306 
L 660.498135 208.40975 
L 650.962811 216.210041 
L 644.417338 208.137444 
L 651.159681 201.450758 
L 640.302383 202.966842 
L 625.412926 198.870747 
L 613.171098 209.117195 
L 586.152047 211.118095 
L 571.740046 201.563452 
L 552.549804 200.965482 
L 548.445889 208.351333 
L 536.142423 210.463088 
L 518.926403 200.983881 
L 499.491453 201.304485 
L 488.9451 183.599509 
L 475.939709 173.723342 
L 484.600157 159.879873 
z
" clip-path="url(#pa4989592c5)" style="fill: #e8edf4; stroke: #b8c5d4; stroke-width: 0.45"/>
    <path d="M 471.046473 130.826804 
L 471.288421 127.152967 
L 475.51929 125.156667 
L 481.030735 114.015103 
L 472.358328 109.301259 
L 490.493382 103.701038 
L 505.820737 106.088779 
L 507.935712 112.933237 
L 523.475576 118.68249 
L 520.235498 123.043532 
L 499.096793 124.025123 
L 476.648074 139.11835 
z
" clip-path="url(#pa4989592c5)" style="fill: #e8edf4; stroke: #b8c5d4; stroke-width: 0.45"/>
    <path d="M 351.079863 102.735086 
L 358.798278 93.967464 
L 359.929821 97.317017 
L 364.720154 95.740872 
L 368.512993 100.518457 
L 372.771198 102.341215 
L 373.96924 108.793904 
L 371.707073 114.852261 
L 374.235107 122.48696 
L 381.620498 126.821784 
L 381.263556 131.49883 
L 375.477965 134.080221 
L 374.409898 139.865813 
L 366.132151 148.500041 
L 363.105503 147.253964 
L 362.74948 143.337259 
L 352.888493 137.359858 
L 351.33929 128.877881 
L 352.843415 116.730808 
L 355.273014 111.204643 
L 352.277643 108.399704 
z
" clip-path="url(#pa4989592c5)" style="fill: #e8edf4; stroke: #b8c5d4; stroke-width: 0.45"/>
    <path d="M 250.541762 50.37544 
L 251.575791 43.906323 
L 263.982291 44.514413 
L 267.242609 41.509843 
L 273.297746 44.415978 
L 280.283878 44.760961 
L 280.217641 39.785849 
L 286.405252 37.96342 
L 288.135686 30.772139 
L 302.307578 26.043115 
L 321.271511 35.869605 
L 335.976057 39.292754 
L 342.629848 36.633261 
L 346.954789 43.529142 
L 352.610667 48.602689 
L 345.756979 55.30132 
L 337.705571 51.360711 
L 325.396585 51.607259 
L 310.093149 48.651447 
L 301.775845 49.046107 
L 297.916637 52.739722 
L 291.529396 48.651447 
L 287.802662 56.040518 
L 300.378434 69.881227 
L 315.348847 80.471738 
L 322.070031 87.909107 
L 337.826374 94.648352 
L 335.868422 97.674879 
L 319.133538 91.088008 
L 308.808893 84.679148 
L 292.526626 79.388032 
L 277.556214 66.286046 
L 281.148634 64.955793 
L 273.03188 57.468746 
L 272.698856 51.459146 
L 261.254628 48.651447 
L 255.79838 56.335823 
z
" clip-path="url(#pa4989592c5)" style="fill: #e8edf4; stroke: #b8c5d4; stroke-width: 0.45"/>
    <path d="M 114.633268 30.15117 
L 114.896375 22.090533 
L 127.915565 12.086952 
L 127.343353 7.563538 
L 135.454588 9.201976 
L 140.342304 6.161068 
L 155.483828 6.285722 
L 159.138806 2.418235 
L 178.215893 7.861603 
L 178.904939 11.020725 
L 176.181875 15.378548 
L 184.236993 18.620006 
L 193.320619 19.103902 
L 191.90849 26.402357 
L 184.065881 29.405087 
L 170.893059 27.174199 
L 167.037532 34.35352 
L 158.557395 34.919292 
L 155.471869 32.097793 
L 145.491287 38.135452 
L 136.908116 38.981809 
L 129.248578 35.1686 
L 123.133644 27.361869 
z
" clip-path="url(#pa4989592c5)" style="fill: #e8edf4; stroke: #b8c5d4; stroke-width: 0.45"/>
    <path d="M -159.796391 87.943605 
L -134.611728 75.095526 
L -112.827216 78.307546 
L -88.925889 78.194852 
L -69.983575 81.2353 
L -26.430649 80.890777 
L -19.335043 87.812051 
L 13.43556 95.902587 
L 19.907437 92.05396 
L 39.938517 100.106778 
L 60.574927 97.799073 
L 61.527079 108.140276 
L 44.656962 119.997105 
L 21.8467 123.759717 
L 20.25886 129.748618 
L 9.316926 139.617885 
L 2.455909 154.108081 
L 9.398802 164.281394 
L -0.898244 172.223817 
L -4.748252 183.795459 
L -18.188781 187.343262 
L -30.793991 201.031719 
L -70.358456 200.965942 
L -81.508299 207.252448 
L -88.30768 213.979152 
L -97.017805 212.502166 
L -103.609276 206.487506 
L -108.656144 196.247038 
L -125.275114 193.489935 
L -126.75946 187.59533 
L -120.162009 180.919683 
L -117.719071 176.079804 
L -123.857465 170.787309 
L -118.94307 159.091013 
L -126.074554 148.418626 
L -118.383278 146.953139 
L -117.668014 138.539239 
L -114.777058 135.933929 
L -114.54753 122.044462 
L -106.32222 117.224823 
L -111.298252 108.295749 
L -121.671654 107.6734 
L -124.719462 109.921308 
L -135.234537 109.942467 
L -139.697234 101.226822 
L -146.962111 103.822012 
L -153.422029 108.345886 
L -152.525074 95.667079 
z
" clip-path="url(#pa4989592c5)" style="fill: #e8edf4; stroke: #b8c5d4; stroke-width: 0.45"/>
    <path d="M 127.581621 52.305504 
L 133.753593 46.883295 
L 128.514455 40.198909 
L 129.248578 35.1686 
L 136.908116 38.981809 
L 145.491287 38.135452 
L 155.471869 32.097793 
L 158.557395 34.919292 
L 167.037532 34.35352 
L 170.893059 27.174199 
L 184.065881 29.405087 
L 191.90849 26.402357 
L 193.320619 19.103902 
L 204.106161 21.635155 
L 206.176058 18.248804 
L 223.769259 15.154539 
L 227.746221 21.34675 
L 253.20319 25.94422 
L 251.274046 34.712302 
L 255.538033 42.291804 
L 241.367061 39.698454 
L 226.893423 46.016698 
L 227.877774 54.853777 
L 225.698403 59.925484 
L 231.533671 68.988871 
L 248.226238 77.954744 
L 257.179231 92.672169 
L 276.988602 107.018392 
L 290.938786 106.908458 
L 295.277289 110.843102 
L 290.282858 114.389524 
L 319.29729 126.209094 
L 334.563008 135.493271 
L 336.406596 138.817985 
L 333.080042 145.192807 
L 323.199735 136.881022 
L 307.733467 133.951428 
L 300.241361 145.466493 
L 313.107839 152.065783 
L 310.995624 161.35548 
L 303.558716 162.411127 
L 294.05007 177.679605 
L 286.628801 179.051256 
L 286.697797 173.608348 
L 290.329776 164.060145 
L 294.199103 160.257514 
L 281.813761 140.963318 
L 274.42377 138.745308 
L 269.168073 131.061852 
L 257.728444 127.825454 
L 250.025668 120.670051 
L 236.853766 119.516429 
L 206.658113 99.892428 
L 194.553358 89.6377 
L 189.000515 72.039439 
L 180.143197 69.969542 
L 165.66036 64.093796 
L 157.46449 66.499015 
L 147.178483 74.760663 
L 139.780212 76.065618 
L 141.816991 68.338464 
L 132.167593 66.079976 
z
" clip-path="url(#pa4989592c5)" style="fill: #e8edf4; stroke: #b8c5d4; stroke-width: 0.45"/>
    <path d="M 228.716772 184.318913 
L 231.208008 175.178709 
L 252.040368 176.806108 
L 283.714386 173.313503 
L 277.303226 187.325783 
L 279.967413 192.841368 
L 276.23056 201.995831 
L 262.61616 195.290745 
L 253.563812 193.369881 
z
" clip-path="url(#pa4989592c5)" style="fill: #e8edf4; stroke: #b8c5d4; stroke-width: 0.45"/>
    <path d="M 152.683488 124.911959 
L 162.474559 125.802475 
L 171.376035 120.28367 
L 182.056702 132.922919 
L 179.556267 156.468684 
L 171.461591 155.34542 
L 164.200393 161.288783 
L 157.45989 156.567119 
L 156.746925 135.089411 
z
" clip-path="url(#pa4989592c5)" style="fill: #e8edf4; stroke: #b8c5d4; stroke-width: 0.45"/>
    <path d="M 251.274046 34.712302 
L 253.20319 25.94422 
L 267.907735 27.323691 
L 276.891087 23.284633 
L 292.46039 22.841215 
L 295.8541 19.836645 
L 298.848551 20.033515 
L 302.307578 26.043115 
L 288.135686 30.772139 
L 286.405252 37.96342 
L 280.217641 39.785849 
L 280.283878 44.760961 
L 273.297746 44.415978 
L 267.242609 41.509843 
L 263.982291 44.514413 
L 251.575791 43.906323 
L 255.538033 42.291804 
z
" clip-path="url(#pa4989592c5)" style="fill: #e8edf4; stroke: #b8c5d4; stroke-width: 0.45"/>
    <path d="M 307.918378 -8.960677 
L 311.870501 -15.137249 
L 319.757267 -14.835504 
L 325.836323 -16.677252 
L 326.317459 -18.333169 
L 329.725889 -19.178607 
L 330.892391 -23.229165 
L 334.977907 -24.003306 
L 337.736849 -27.207966 
L 343.044984 -27.229585 
L 344.049574 -26.154619 
L 351.368729 -28.570878 
L 360.34656 -22.260913 
L 370.864395 -26.076423 
L 379.269096 -24.248474 
L 392.084056 -26.764548 
L 409.002011 -19.92193 
L 404.065538 -15.287201 
L 400.589951 -8.110639 
L 396.791461 -6.28959 
L 377.726333 -11.69938 
L 371.891984 -10.613375 
L 367.717232 -6.424824 
L 341.689892 -2.049062 
L 340.256603 1.525879 
L 325.313789 3.70709 
L 309.692969 -2.791925 
z
" clip-path="url(#pa4989592c5)" style="fill: #e8edf4; stroke: #b8c5d4; stroke-width: 0.45"/>
    <path d="M 447.133115 319.059475 
L 451.718071 308.06822 
L 448.96318 300.454398 
L 455.406686 291.911835 
L 479.092688 291.617565 
L 522.141963 304.357352 
L 535.847697 298.717437 
L 543.17526 293.616396 
L 558.875018 292.148426 
L 571.532915 294.396132 
L 576.383123 303.226022 
L 580.514301 297.409332 
L 594.781873 301.615457 
L 608.65833 302.62324 
L 617.417723 298.138866 
L 629.116616 328.723576 
L 624.11669 335.878457 
L 620.285835 349.326771 
L 615.442926 358.596198 
L 611.292343 361.704462 
L 597.324739 348.015462 
L 584.622337 322.497257 
L 582.792805 324.111026 
L 590.169323 342.895905 
L 601.098805 360.793167 
L 614.553528 388.522226 
L 626.846301 408.256319 
L 642.820926 427.964064 
L 639.283807 431.067699 
L 639.858106 442.637881 
L 663.717501 462.263736 
L 452.472528 462.263736 
L 452.472528 333.399776 
z
" clip-path="url(#pa4989592c5)" style="fill: #e8edf4; stroke: #b8c5d4; stroke-width: 0.45"/>
    <path d="M 173.323578 389.375755 
L 180.388825 381.936547 
L 178.835943 370.743466 
L 181.09811 361.000232 
L 179.812014 352.883937 
L 182.947217 338.360622 
L 181.979426 330.088855 
L 176.220513 314.37098 
L 184.905799 310.244986 
L 186.446723 302.723442 
L 184.553457 295.34909 
L 196.777807 288.488992 
L 202.258893 282.785277 
L 210.93682 277.674472 
L 211.94325 264.000735 
L 232.852332 270.128532 
L 240.328365 268.596831 
L 255.200677 271.567305 
L 278.823303 279.522752 
L 287.160251 295.345701 
L 328.232591 306.25293 
L 347.197629 315.103826 
L 355.878514 310.485402 
L 364.411286 302.297459 
L 360.263018 288.660442 
L 365.846499 280.001275 
L 378.673873 271.659165 
L 390.929974 269.230945 
L 415.012431 272.873631 
L 421.083693 280.832815 
L 427.711985 280.908119 
L 433.379671 283.944996 
L 451.068646 286.033371 
L 455.406686 291.911835 
L 448.96318 300.454398 
L 451.718071 308.06822 
L 447.133115 319.059475 
L 452.472528 333.399776 
L 452.472528 497.814013 
L 432 497.868132 
L 431.780321 505.336688 
L 289.775572 437.167622 
L 259.20957 453.517713 
L 249.19679 443.740441 
L 221.035156 436.064804 
L 213.222906 424.916341 
L 199.171527 416.645034 
L 190.848703 419.906731 
L 184.518499 409.979507 
L 183.849692 402.351247 
z
" clip-path="url(#pa4989592c5)" style="fill: #e8edf4; stroke: #b8c5d4; stroke-width: 0.45"/>
    <path d="M 287.802662 56.040518 
L 291.529396 48.651447 
L 297.916637 52.739722 
L 301.775845 49.046107 
L 310.093149 48.651447 
L 325.396585 51.607259 
L 337.705571 51.360711 
L 345.756897 55.3014 
L 352.211084 55.252088 
L 347.753057 63.083809 
L 356.336387 69.930534 
L 353.741539 78.304154 
L 346.22278 80.717598 
L 340.43404 84.855185 
L 337.826374 94.648352 
L 322.070031 87.909107 
L 315.348847 80.471738 
L 300.378434 69.881227 
z
" clip-path="url(#pa4989592c5)" style="fill: #e8edf4; stroke: #b8c5d4; stroke-width: 0.45"/>
    <path d="M 371.707073 114.852261 
L 373.969224 108.793819 
L 376.231233 108.941558 
L 377.029662 105.296558 
L 397.589776 100.814321 
L 405.840129 100.518457 
L 414.756324 106.232292 
L 416.020341 118.004944 
L 412.627114 118.595868 
L 409.699336 121.69902 
L 400.051778 121.354037 
L 393.265277 125.245442 
L 381.620498 126.821784 
L 374.235107 122.48696 
z
" clip-path="url(#pa4989592c5)" style="fill: #e8edf4; stroke: #b8c5d4; stroke-width: 0.45"/>
    <path d="M 342.629848 36.633261 
L 356.270244 31.95382 
L 367.381449 32.741761 
L 377.029927 39.736172 
L 379.026228 45.400789 
L 389.871566 49.58796 
L 391.268976 56.926433 
L 401.648818 62.098415 
L 407.237539 58.109034 
L 411.6294 60.325664 
L 407.504326 63.330234 
L 410.764643 66.433239 
L 406.372782 70.471837 
L 407.969823 76.974073 
L 416.619231 84.658449 
L 409.83273 90.224171 
L 406.838279 95.888788 
L 408.768343 98.006522 
L 405.840129 100.518457 
L 391.529124 101.854247 
L 390.936027 100.518626 
L 395.06133 94.06622 
L 392.532884 94.164666 
L 377.961073 83.574494 
L 374.767358 84.559668 
L 372.305492 90.470354 
L 368.047029 91.751044 
L 369.510725 90.224149 
L 356.874725 84.611829 
L 349.549477 79.092079 
L 353.741539 78.304154 
L 356.336387 69.930534 
L 347.753057 63.083809 
L 352.211084 55.252088 
L 345.756897 55.3014 
L 352.610667 48.602689 
L 346.954789 43.529142 
z
" clip-path="url(#pa4989592c5)" style="fill: #e8edf4; stroke: #b8c5d4; stroke-width: 0.45"/>
    <path d="M 335.868433 97.674863 
L 340.43404 84.855185 
L 349.549477 79.092079 
L 356.874725 84.611829 
L 369.510725 90.224149 
L 364.720154 95.740872 
L 359.929821 97.317017 
L 358.798278 93.967464 
L 351.079863 102.735086 
L 352.277631 108.399647 
L 348.551486 107.020523 
L 343.561174 101.208283 
z
" clip-path="url(#pa4989592c5)" style="fill: #e8edf4; stroke: #b8c5d4; stroke-width: 0.45"/>
    <path d="M 364.720154 95.740872 
L 368.047029 91.751044 
L 372.305492 90.470354 
L 374.767358 84.559668 
L 377.961073 83.574494 
L 392.532884 94.164666 
L 395.06133 94.06622 
L 390.936027 100.518626 
L 391.529124 101.854247 
L 377.029662 105.296558 
L 376.231233 108.941558 
L 373.969224 108.793819 
L 372.771198 102.341215 
L 368.512993 100.518457 
z
" clip-path="url(#pa4989592c5)" style="fill: #e8edf4; stroke: #b8c5d4; stroke-width: 0.45"/>
   </g>
   <g id="PathCollection_1">
    <defs>
     <path id="mb984a04891" d="M 0 2.12132 
C 0.562581 2.12132 1.102195 1.897805 1.5 1.5 
C 1.897805 1.102195 2.12132 0.562581 2.12132 0 
C 2.12132 -0.562581 1.897805 -1.102195 1.5 -1.5 
C 1.102195 -1.897805 0.562581 -2.12132 0 -2.12132 
C -0.562581 -2.12132 -1.102195 -1.897805 -1.5 -1.5 
C -1.897805 -1.102195 -2.12132 -0.562581 -2.12132 0 
C -2.12132 0.562581 -1.897805 1.102195 -1.5 1.5 
C -1.102195 1.897805 -0.562581 2.12132 0 2.12132 
z
" style="stroke: #ffffff; stroke-width: 0.5"/>
    </defs>
    <g clip-path="url(#pa4989592c5)">
     <use xlink:href="#mb984a04891" x="34.120879" y="97.318681" style="fill: #8aa0b7; stroke: #ffffff; stroke-width: 0.5"/>
     <use xlink:href="#mb984a04891" x="363.461539" y="124.021978" style="fill: #8aa0b7; stroke: #ffffff; stroke-width: 0.5"/>
     <use xlink:href="#mb984a04891" x="177.131868" y="12.461538" style="fill: #8aa0b7; stroke: #ffffff; stroke-width: 0.5"/>
     <use xlink:href="#mb984a04891" x="139.153846" y="75.362637" style="fill: #8aa0b7; stroke: #ffffff; stroke-width: 0.5"/>
     <use xlink:href="#mb984a04891" x="352.324484" y="93.603363" style="fill: #8aa0b7; stroke: #ffffff; stroke-width: 0.5"/>
     <use xlink:href="#mb984a04891" x="399.065934" y="109.186813" style="fill: #8aa0b7; stroke: #ffffff; stroke-width: 0.5"/>
     <use xlink:href="#mb984a04891" x="267.032967" y="216" style="fill: #8aa0b7; stroke: #ffffff; stroke-width: 0.5"/>
     <use xlink:href="#mb984a04891" x="271.186813" y="32.934066" style="fill: #8aa0b7; stroke: #ffffff; stroke-width: 0.5"/>
     <use xlink:href="#mb984a04891" x="228.461538" y="74.769231" style="fill: #8aa0b7; stroke: #ffffff; stroke-width: 0.5"/>
     <use xlink:href="#mb984a04891" x="229.115473" y="107.948374" style="fill: #8aa0b7; stroke: #ffffff; stroke-width: 0.5"/>
     <use xlink:href="#mb984a04891" x="379.536923" y="95.492176" style="fill: #8aa0b7; stroke: #ffffff; stroke-width: 0.5"/>
    </g>
   </g>
   <g id="PathCollection_2">
    <defs>
     <path id="maa3f2868a4" d="M 0 3.674235 
C 0.974418 3.674235 1.909058 3.287094 2.598076 2.598076 
C 3.287094 1.909058 3.674235 0.974418 3.674235 0 
C 3.674235 -0.974418 3.287094 -1.909058 2.598076 -2.598076 
C 1.909058 -3.287094 0.974418 -3.674235 0 -3.674235 
C -0.974418 -3.674235 -1.909058 -3.287094 -2.598076 -2.598076 
C -3.287094 -1.909058 -3.674235 -0.974418 -3.674235 0 
C -3.674235 0.974418 -3.287094 1.909058 -2.598076 2.598076 
C -1.909058 3.287094 -0.974418 3.674235 0 3.674235 
z
" style="stroke: #ffffff; stroke-width: 1.2"/>
    </defs>
    <g clip-path="url(#pa4989592c5)">
     <use xlink:href="#maa3f2868a4" x="267.032967" y="216" style="fill: #f97316; stroke: #ffffff; stroke-width: 1.2"/>
    </g>
   </g>
   <g id="PathCollection_3">
    <path d="M 267.032967 220.929503 
C 268.340287 220.929503 269.594238 220.410099 270.518652 219.485685 
C 271.443067 218.561271 271.96247 217.307319 271.96247 216 
C 271.96247 214.692681 271.443067 213.438729 270.518652 212.514315 
C 269.594238 211.589901 268.340287 211.070497 267.032967 211.070497 
C 265.725648 211.070497 264.471697 211.589901 263.547282 212.514315 
C 262.622868 213.438729 262.103464 214.692681 262.103464 216 
C 262.103464 217.307319 262.622868 218.561271 263.547282 219.485685 
C 264.471697 220.410099 265.725648 220.929503 267.032967 220.929503 
L 267.032967 220.929503 
z
" clip-path="url(#pa4989592c5)" style="fill: none; stroke: #7c2d12; stroke-width: 1.1"/>
   </g>
  </g>
 </g>
 <defs>
  <clipPath id="pa4989592c5">
   <rect x="0" y="0" width="534.065934" height="432"/>
  </clipPath>
 </defs>
</svg>
