<?xml version="1.0" encoding="utf-8" standalone="no"?>
<!DOCTYPE svg PUBLIC "-//W3C//DTD SVG 1.1//EN"
  "http://www.w3.org/Graphics/SVG/1.1/DTD/svg11.dtd">
<svg xmlns:xlink="http://www.w3.org/1999/xlink" width="408.436364pt" height="432pt" viewBox="0 0 408.436364 432" xmlns="http://www.w3.org/2000/svg" version="1.1">
 <metadata>
  <rdf:RDF xmlns:dc="http://purl.org/dc/elements/1.1/" xmlns:cc="http://creativecommons.org/ns#" xmlns:rdf="http://www.w3.org/1999/02/22-rdf-syntax-ns#">
   <cc:Work>
    <dc:type rdf:resource="http://purl.org/dc/dcmitype/StillImage"/>
    <dc:date>2026-06-09T04:57:22.987967</dc:date>
    <dc:format>image/svg+xml</dc:format>
    <dc:creator>
     <cc:Agent>
      <dc:title>Matplotlib v3.10.8, https://matplotlib.org/</dc:title>
     </cc:Agent>
    </dc:creator>
   </cc:Work>
  </rdf:RDF>
 </metadata>
 <defs>
  <style type="text/css">*{stroke-linejoin: round; stroke-linecap: butt}</style>
 </defs>
 <g id="figure_1">
  <g id="patch_1">
   <path d="M 0 432 
L 408.436364 432 
L 408.436364 0 
L 0 0 
z
" style="fill: #eaf3ff"/>
  </g>
  <g id="axes_1">
   <g id="PatchCollection_1">
    <path d="M 7015.778967 302.884036 
L 7023.355265 296.138749 
L 7032.28392 298.567178 
L 7037.154327 295.329338 
L 7043.918269 300.995215 
L 7040.671396 311.247949 
L 7028.495869 313.945985 
L 7017.672305 311.517556 
z
" clip-path="url(#pb5e3e4c9c8)" style="fill: #e8edf4; stroke: #b8c5d4; stroke-width: 0.45"/>
    <path d="M 7041.537922 281.568764 
L 7057.574366 276.461429 
L 7069.090909 270.336423 
L 7069.090909 279.920616 
L 7044.055711 288.891 
z
" clip-path="url(#pb5e3e4c9c8)" style="fill: #e8edf4; stroke: #b8c5d4; stroke-width: 0.45"/>
    <path d="M 0 279.920616 
L 0 270.336423 
L 4.058441 269.428233 
L 1.622565 278.871378 
z
" clip-path="url(#pb5e3e4c9c8)" style="fill: #e8edf4; stroke: #b8c5d4; stroke-width: 0.45"/>
   </g>
   <g id="PathCollection_1">
    <defs>
     <path id="m325cf4ec07" d="M 0 2.12132 
C 0.562581 2.12132 1.102195 1.897805 1.5 1.5 
C 1.897805 1.102195 2.12132 0.562581 2.12132 0 
C 2.12132 -0.562581 1.897805 -1.102195 1.5 -1.5 
C 1.102195 -1.897805 0.562581 -2.12132 0 -2.12132 
C -0.562581 -2.12132 -1.102195 -1.897805 -1.5 -1.5 
C -1.897805 -1.102195 -2.12132 -0.562581 -2.12132 0 
C -2.12132 0.562581 -1.897805 1.102195 -1.5 1.5 
C -1.102195 1.897805 -0.562581 2.12132 0 2.12132 
z
" style="stroke: #ffffff; stroke-width: 0.5"/>
    </defs>
    <g clip-path="url(#pb5e3e4c9c8)">
     <use xlink:href="#m325cf4ec07" x="196.363636" y="236.290909" style="fill: #8aa0b7; stroke: #ffffff; stroke-width: 0.5"/>
     <use xlink:href="#m325cf4ec07" x="397.309091" y="371.781818" style="fill: #8aa0b7; stroke: #ffffff; stroke-width: 0.5"/>
     <use xlink:href="#m325cf4ec07" x="198.981818" y="328.581818" style="fill: #8aa0b7; stroke: #ffffff; stroke-width: 0.5"/>
     <use xlink:href="#m325cf4ec07" x="157.090909" y="131.563636" style="fill: #8aa0b7; stroke: #ffffff; stroke-width: 0.5"/>
     <use xlink:href="#m325cf4ec07" x="98.181818" y="347.563636" style="fill: #8aa0b7; stroke: #ffffff; stroke-width: 0.5"/>
     <use xlink:href="#m325cf4ec07" x="74.618182" y="216" style="fill: #8aa0b7; stroke: #ffffff; stroke-width: 0.5"/>
     <use xlink:href="#m325cf4ec07" x="150.545455" y="221.563636" style="fill: #8aa0b7; stroke: #ffffff; stroke-width: 0.5"/>
    </g>
   </g>
   <g id="PathCollection_2">
    <defs>
     <path id="mea628274d9" d="M 0 3.674235 
C 0.974418 3.674235 1.909058 3.287094 2.598076 2.598076 
C 3.287094 1.909058 3.674235 0.974418 3.674235 0 
C 3.674235 -0.974418 3.287094 -1.909058 2.598076 -2.598076 
C 1.909058 -3.287094 0.974418 -3.674235 0 -3.674235 
C -0.974418 -3.674235 -1.909058 -3.287094 -2.598076 -2.598076 
C -3.287094 -1.909058 -3.674235 -0.974418 -3.674235 0 
C -3.674235 0.974418 -3.287094 1.909058 -2.598076 2.598076 
C -1.909058 3.287094 -0.974418 3.674235 0 3.674235 
z
" style="stroke: #ffffff; stroke-width: 1.2"/>
    </defs>
    <g clip-path="url(#pb5e3e4c9c8)">
     <use xlink:href="#mea628274d9" x="74.618182" y="216" style="fill: #f97316; stroke: #ffffff; stroke-width: 1.2"/>
    </g>
   </g>
   <g id="PathCollection_3">
    <path d="M 74.618182 220.929503 
C 75.925501 220.929503 77.179452 220.410099 78.103867 219.485685 
C 79.028281 218.561271 79.547685 217.307319 79.547685 216 
C 79.547685 214.692681 79.028281 213.438729 78.103867 212.514315 
C 77.179452 211.589901 75.925501 211.070497 74.618182 211.070497 
C 73.310862 211.070497 72.056911 211.589901 71.132497 212.514315 
C 70.208082 213.438729 69.688679 214.692681 69.688679 216 
C 69.688679 217.307319 70.208082 218.561271 71.132497 219.485685 
C 72.056911 220.410099 73.310862 220.929503 74.618182 220.929503 
L 74.618182 220.929503 
z
" clip-path="url(#pb5e3e4c9c8)" style="fill: none; stroke: #7c2d12; stroke-width: 1.1"/>
   </g>
  </g>
 </g>
 <defs>
  <clipPath id="pb5e3e4c9c8">
   <rect x="0" y="0" width="408.436364" height="432"/>
  </clipPath>
 </defs>
</svg>
