<?xml version="1.0" encoding="utf-8" standalone="no"?>
<!DOCTYPE svg PUBLIC "-//W3C//DTD SVG 1.1//EN"
  "http://www.w3.org/Graphics/SVG/1.1/DTD/svg11.dtd">
<svg xmlns:xlink="http://www.w3.org/1999/xlink" width="576pt" height="363.789474pt" viewBox="0 0 576 363.789474" xmlns="http://www.w3.org/2000/svg" version="1.1">
 <metadata>
  <rdf:RDF xmlns:dc="http://purl.org/dc/elements/1.1/" xmlns:cc="http://creativecommons.org/ns#" xmlns:rdf="http://www.w3.org/1999/02/22-rdf-syntax-ns#">
   <cc:Work>
    <dc:type rdf:resource="http://purl.org/dc/dcmitype/StillImage"/>
    <dc:date>2026-06-09T04:57:03.762076</dc:date>
    <dc:format>image/svg+xml</dc:format>
    <dc:creator>
     <cc:Agent>
      <dc:title>Matplotlib v3.10.8, https://matplotlib.org/</dc:title>
     </cc:Agent>
    </dc:creator>
   </cc:Work>
  </rdf:RDF>
 </metadata>
 <defs>
  <style type="text/css">*{stroke-linejoin: round; stroke-linecap: butt}</style>
 </defs>
 <g id="figure_1">
  <g id="patch_1">
   <path d="M 0 363.789474 
L 576 363.789474 
L 576 0 
L 0 0 
z
" style="fill: #eaf3ff"/>
  </g>
  <g id="axes_1">
   <g id="PatchCollection_1">
    <path d="M 172.415455 333.475187 
L 172.676139 330.91315 
L 186.436318 330.438467 
L 187.164635 328.25367 
L 189.648499 325.529959 
L 191.649689 317.157672 
L 200.078374 310.614874 
L 202.929294 302.970748 
L 204.824267 302.52677 
L 206.798825 297.801556 
L 211.899713 297.150472 
L 214.093596 297.937851 
L 216.84676 297.937851 
L 218.800952 296.558293 
L 222.548914 296.362936 
L 222.409799 293.114723 
L 223.332846 293.114723 
L 223.201251 303.87907 
L 203.301207 303.561987 
L 203.496407 319.076144 
L 197.815246 319.620385 
L 196.332605 322.734496 
L 197.482498 331.490603 
L 173.738615 331.452691 
z
" clip-path="url(#p7856a860a2)" style="fill: #e8edf4; stroke: #b8c5d4; stroke-width: 0.45"/>
    <path d="M 557.607082 167.378613 
L 561.106892 162.783427 
L 559.335994 161.546744 
L 564.173692 154.885197 
L 570.408807 158.401457 
L 571.163914 153.973116 
L 583.679889 147.37862 
L 593.150998 147.221645 
L 613.694289 153.872579 
L 620.127542 151.314897 
L 629.739709 151.193088 
L 637.494259 154.335003 
L 639.255758 152.535749 
L 647.772173 152.797217 
L 649.291473 149.925774 
L 639.46631 145.755767 
L 645.285333 142.802233 
L 644.149853 141.150398 
L 649.970443 139.573916 
L 645.593329 135.420672 
L 648.373491 133.351579 
L 671.061425 131.241735 
L 674.022285 129.744 
L 689.193703 127.505835 
L 694.644886 124.990483 
L 705.540985 126.297194 
L 707.450058 132.581344 
L 713.78011 131.105753 
L 721.567424 133.173524 
L 721.065168 136.482834 
L 726.880593 136.136994 
L 742.076566 130.415347 
L 739.85793 132.316274 
L 747.59292 137.0006 
L 761.141919 152.398984 
L 764.372899 149.224402 
L 772.725133 152.717633 
L 781.438002 151.159481 
L 784.785538 152.250469 
L 787.703509 155.75404 
L 791.942761 156.930879 
L 794.523911 159.504352 
L 802.333784 158.693004 
L 805.550978 162.401801 
L 800.93574 166.438646 
L 795.900022 167.005133 
L 795.610513 173.085154 
L 792.238224 175.825784 
L 780.210091 173.830547 
L 775.835171 184.685914 
L 772.731713 186.035707 
L 760.720814 188.458002 
L 766.178263 198.990647 
L 762.018595 200.568852 
L 762.502678 204.025267 
L 758.765682 203.135902 
L 755.725202 200.956745 
L 736.675828 200.156833 
L 734.472545 200.824523 
L 725.838008 198.275332 
L 722.396788 199.530815 
L 721.453688 203.110366 
L 711.47907 201.021603 
L 707.487343 201.877129 
L 706.129404 204.533633 
L 702.653092 205.654387 
L 694.656166 209.880793 
L 692.003265 214.219367 
L 689.744211 214.257906 
L 688.082662 211.385993 
L 680.371485 211.189227 
L 679.138249 206.222284 
L 676.183932 206.179829 
L 676.636369 200.098398 
L 669.37763 195.669743 
L 658.979087 196.142703 
L 651.870116 197.025489 
L 646.079919 191.56052 
L 630.587381 184.400008 
L 614.979541 187.983006 
L 615.217666 210.339183 
L 612.107628 210.634959 
L 607.86399 205.880763 
L 603.765733 204.182242 
L 596.883294 205.443834 
L 594.204388 207.461161 
L 593.864119 205.982749 
L 595.354281 203.455961 
L 594.198121 201.343541 
L 587.170927 199.277964 
L 584.435623 193.832891 
L 581.087773 192.299021 
L 580.88474 190.323524 
L 586.783347 190.89941 
L 587.016146 186.466369 
L 592.172805 185.481753 
L 597.468893 186.387255 
L 598.560195 180.472042 
L 597.480173 176.722826 
L 591.412685 177.016096 
L 586.258532 175.536274 
L 579.238231 178.202334 
L 573.58177 179.473536 
L 570.502232 178.493063 
L 571.117542 175.373033 
L 567.252379 171.321984 
L 562.753455 171.491267 
z
" clip-path="url(#p7856a860a2)" style="fill: #e8edf4; stroke: #b8c5d4; stroke-width: 0.45"/>
    <path d="M 408.880027 384.475877 
L 409.491072 382.249 
L 411.061369 379.721512 
L 410.374474 377.210395 
L 412.367616 375.350824 
L 411.103387 373.934228 
L 412.706728 370.19041 
L 415.475409 365.725319 
L 420.70367 366.149012 
L 420.48 339.536842 
L 427.452632 339.51841 
L 427.452632 327.410526 
L 499.399458 327.410526 
L 501.354765 333.359394 
L 500.025054 334.459311 
L 500.905971 340.701211 
L 503.131695 347.939833 
L 508.760124 351.67342 
L 505.691621 355.134073 
L 501.225923 356.130856 
L 499.316392 357.98976 
L 498.718323 362.01988 
L 496.107102 370.928903 
L 496.751555 373.35647 
L 495.785755 378.563389 
L 493.320536 384.535902 
L 489.663603 387.539712 
L 487.063357 392.171358 
L 486.454131 394.649917 
L 483.582013 396.348086 
L 481.788349 402.693241 
L 481.869352 408.144141 
L 481.799097 403.416544 
L 480.959779 403.296642 
L 481.063867 400.278075 
L 480.335248 398.196306 
L 477.212593 395.80227 
L 476.483974 391.430554 
L 477.212593 386.954749 
L 474.402204 386.538395 
L 473.98585 387.891545 
L 470.342753 388.203811 
L 471.799992 389.973315 
L 472.320434 393.616412 
L 468.989602 396.947244 
L 465.971036 401.31896 
L 462.848382 401.943491 
L 457.748046 398.404483 
L 455.458099 399.653545 
L 454.833568 401.423049 
L 451.710914 402.568022 
L 451.502737 403.817084 
L 445.465604 403.817084 
L 444.632896 402.568022 
L 440.26118 402.359845 
L 438.075322 403.40073 
L 436.409906 402.880288 
L 432.246366 397.675863 
L 427.87465 398.508571 
L 426.209234 401.31896 
L 424.647907 406.731562 
L 420.704213 408.537218 
L 424.829522 410.905134 
L 420.21209 408.25474 
L 418.109383 406.508751 
L 417.719924 404.624431 
L 418.705009 402.101246 
L 418.68715 399.627252 
L 415.190159 395.836522 
L 414.575818 391.773312 
L 412.347426 389.986196 
L 412.280307 386.464229 
L 411.009408 384.125002 
z
" clip-path="url(#p7856a860a2)" style="fill: #e8edf4; stroke: #b8c5d4; stroke-width: 0.45"/>
    <path d="M 357.971228 373.6898 
L 360.589157 365.703188 
L 368.323086 359.986019 
L 368.642675 352.100009 
L 370.978806 339.796466 
L 372.29758 337.186647 
L 369.774708 335.108223 
L 369.677164 333.179924 
L 367.408498 331.603086 
L 365.919461 322.178324 
L 372.040522 318.863171 
L 420.405181 342.080519 
L 420.70367 366.149012 
L 415.475409 365.725319 
L 412.706728 370.19041 
L 411.103387 373.934228 
L 412.367616 375.350824 
L 410.374474 377.210395 
L 411.061369 379.721512 
L 409.491072 382.249 
L 408.880027 384.475877 
L 411.009408 384.125002 
L 412.280307 386.464229 
L 412.347426 389.986196 
L 414.575818 391.773312 
L 414.50273 393.241899 
L 410.664531 394.275706 
L 407.588645 396.730274 
L 403.205265 403.345605 
L 397.498725 406.15454 
L 391.64367 405.77777 
L 389.933869 406.335171 
L 390.534195 408.469523 
L 384.797889 412.956142 
L 377.16473 415.275825 
L 375.650129 413.902846 
L 374.645931 413.78441 
L 373.52831 415.343972 
L 368.515466 415.7997 
L 369.465146 414.157264 
L 366.699763 407.467831 
L 364.059082 406.438567 
L 360.480314 402.899904 
L 361.797521 400.038801 
L 364.560711 400.6479 
L 366.271451 400.216142 
L 369.657839 400.275516 
L 366.357615 394.764176 
L 366.579447 390.73673 
L 366.174477 386.713971 
L 363.763932 382.83145 
L 364.370211 379.975517 
L 360.48188 379.835931 
L 360.495353 375.935851 
z
" clip-path="url(#p7856a860a2)" style="fill: #e8edf4; stroke: #b8c5d4; stroke-width: 0.45"/>
    <path d="M 441.326258 112.32286 
L 443.924327 110.398591 
L 442.126383 104.74366 
L 446.440619 101.249734 
L 445.527633 100.191441 
L 452.418897 96.840455 
L 446.066526 93.957605 
L 464.680367 82.715463 
L 466.960727 79.623284 
L 457.985921 75.469256 
L 460.464615 71.518261 
L 455.006226 67.005949 
L 459.088067 61.807953 
L 452.036243 54.906223 
L 457.631554 50.334536 
L 448.345932 46.294557 
L 449.231068 42.049353 
L 454.127798 41.490675 
L 464.444443 39.058196 
L 470.699439 36.949187 
L 480.659692 40.614548 
L 497.263589 42.05758 
L 520.172504 48.915133 
L 524.826159 51.79677 
L 525.226813 55.832104 
L 518.49598 59.017688 
L 508.595571 60.634429 
L 481.528179 56.025944 
L 477.076184 56.79645 
L 486.961132 61.236985 
L 487.744128 70.245504 
L 500.28771 73.668399 
L 501.071313 70.728495 
L 497.418921 68.122853 
L 501.277885 65.826371 
L 515.935023 69.600263 
L 521.041112 68.122853 
L 516.960606 63.682439 
L 531.090735 57.744121 
L 536.686727 58.093662 
L 542.347958 60.212736 
L 545.879808 56.04577 
L 540.823923 52.431461 
L 543.792202 48.805329 
L 539.334993 45.044473 
L 556.294737 46.989474 
L 559.758861 50.385024 
L 552.081873 51.133521 
L 552.123405 54.507486 
L 556.895899 56.58339 
L 566.263539 55.268413 
L 567.746587 51.401149 
L 601.570944 43.306833 
L 606.144263 43.605322 
L 600.166656 47.284689 
L 607.687761 47.917016 
L 612.031407 45.845598 
L 623.395827 45.678134 
L 632.399495 43.164712 
L 639.307978 46.817037 
L 646.198272 42.801711 
L 639.845053 39.289263 
L 642.997895 37.288421 
L 660.908463 39.123193 
L 669.300571 41.018264 
L 691.273728 47.945452 
L 695.32707 44.772601 
L 689.165447 41.566828 
L 688.988281 40.28065 
L 681.681327 39.685733 
L 683.680229 36.811069 
L 680.43741 32.080835 
L 680.253939 30.14014 
L 691.44289 24.649768 
L 695.422141 19.139207 
L 699.930947 17.946947 
L 715.9834 19.545863 
L 717.247508 22.918373 
L 711.50012 27.836079 
L 715.271404 29.768953 
L 717.222346 34.007404 
L 715.844918 42.315688 
L 722.533612 46.032101 
L 719.931486 50.079259 
L 708.055579 58.691368 
L 714.985829 59.584653 
L 717.397511 57.401917 
L 724.068318 55.844958 
L 725.678208 52.844726 
L 730.925811 49.957571 
L 727.392566 46.510545 
L 730.221514 42.507709 
L 723.591572 42.008832 
L 722.133443 38.636685 
L 726.971419 32.548547 
L 719.097196 27.604527 
L 729.948551 23.517837 
L 728.544566 19.206447 
L 731.568566 19.068813 
L 734.754755 22.430289 
L 732.362658 28.281236 
L 738.851025 29.388915 
L 736.086346 25.016529 
L 746.233162 22.632738 
L 758.816458 22.311754 
L 770.021053 25.768421 
L 764.629147 20.71872 
L 764.025135 14.259335 
L 774.568421 13.035789 
L 789.151892 13.303114 
L 802.290998 12.509022 
L 797.363227 9.339264 
L 804.379877 5.357224 
L 811.345779 5.190488 
L 823.134316 2.182737 
L 839.144569 1.374336 
L 841.167421 -0.286181 
L 857.088 -0.848842 
L 862.048936 0.512458 
L 875.656664 -2.709565 
L 886.795473 -2.608856 
L 888.466782 -5.225775 
L 894.260251 -7.806558 
L 908.573912 -10.294757 
L 918.97247 -8.330112 
L 910.716632 -6.835604 
L 924.450472 -5.906668 
L 926.086737 -2.910316 
L 931.627251 -4.385785 
L 949.35265 -4.304842 
L 963.020524 -1.347476 
L 967.887178 0.923783 
L 966.378786 4.075715 
L 943.738105 9.235827 
L 939.183158 11.034947 
L 955.670036 13.413282 
L 961.129 12.266193 
L 964.221453 16.158013 
L 966.884574 14.582622 
L 976.579624 13.624825 
L 996.033327 14.626035 
L 997.510737 17.461895 
L 1022.858739 18.363971 
L 1023.205005 13.732871 
L 1036.072421 14.794105 
L 1045.751889 14.760819 
L 1055.542797 17.954769 
L 1058.33373 21.835129 
L 1054.746947 24.373895 
L 1062.362213 29.145357 
L 1071.897075 31.607303 
L 1077.747537 25.245171 
L 1087.473812 27.972864 
L 1097.80707 26.342905 
L 1109.54304 28.208054 
L 1114.008798 26.507944 
L 1123.926548 27.357999 
L 1119.549433 21.729206 
L 1127.554378 19.102525 
L 1182.315789 23.04 
L 1187.476628 26.638909 
L 1203.348278 31.272435 
L 1227.831188 30.125346 
L 1239.90239 31.123887 
L 1244.95009 33.630882 
L 1244.212507 38.064627 
L 1251.681529 39.790808 
L 1259.797309 38.549315 
L 1270.549773 38.390521 
L 1281.996349 39.580355 
L 1293.487852 38.909164 
L 1304.04963 44.298644 
L 1311.563399 42.359464 
L 1306.660244 38.484318 
L 1309.359865 35.790639 
L 1328.704128 37.485898 
L 1341.316224 37.1232 
L 1358.753684 40.016842 
L 1367.242105 42.662584 
L 1367.242105 66.817766 
L 1359.403655 69.51453 
L 1351.546287 69.070221 
L 1357.013558 72.297519 
L 1360.622653 77.293319 
L 1363.424377 78.92643 
L 1364.127825 81.434637 
L 1362.562863 83.040404 
L 1351.26144 81.719848 
L 1334.314853 86.283891 
L 1328.923736 86.990491 
L 1310.845642 94.972214 
L 1308.616522 97.727373 
L 1299.943842 93.533002 
L 1284.146405 98.292581 
L 1281.387789 96.040421 
L 1275.547392 98.637878 
L 1267.438221 97.806558 
L 1265.484793 101.794297 
L 1258.210338 107.661797 
L 1258.426429 110.112283 
L 1265.332002 111.470976 
L 1264.51972 120.297661 
L 1258.890927 120.522301 
L 1256.295168 125.594193 
L 1258.817624 128.204625 
L 1248.214858 131.301747 
L 1246.1107 138.224418 
L 1237.071805 139.703161 
L 1235.254312 145.863269 
L 1226.514937 151.511949 
L 1224.272842 147.334737 
L 1218.292507 125.016071 
L 1221.207431 116.607138 
L 1226.323099 112.988766 
L 1226.639596 110.15521 
L 1236.061622 108.798821 
L 1246.892301 101.165184 
L 1257.329421 94.930863 
L 1268.228857 90.093069 
L 1273.102787 81.545775 
L 1265.735262 82.057142 
L 1262.094275 87.051789 
L 1246.7155 93.710774 
L 1241.748803 86.254727 
L 1226.095912 88.313411 
L 1210.922132 98.476719 
L 1215.928421 102.194829 
L 1193.021689 104.402183 
L 1193.460783 100.018095 
L 1184.035968 99.09789 
L 1176.524322 102.076416 
L 1157.985671 101.03422 
L 1138.041519 102.831279 
L 1095.16511 128.965854 
L 1104.717736 129.730055 
L 1107.699052 133.526986 
L 1113.588076 134.874887 
L 1117.468072 131.846097 
L 1124.118629 132.239414 
L 1132.872616 138.909555 
L 1133.078279 144.068089 
L 1128.338041 150.12579 
L 1127.826675 157.36605 
L 1125.091281 167.059948 
L 1115.952829 175.833701 
L 1113.92161 180.027587 
L 1093.608091 197.6698 
L 1085.528812 201.227298 
L 1081.705384 201.305997 
L 1077.896509 198.358878 
L 1069.758538 202.796019 
L 1068.813474 204.813474 
L 1067.964632 203.752421 
L 1067.927443 200.672248 
L 1071.024634 200.508694 
L 1071.896924 193.344891 
L 1070.300099 188.152158 
L 1075.503891 186.010641 
L 1082.862538 187.084254 
L 1086.940157 181.18579 
L 1089.018038 174.543279 
L 1091.373332 172.324345 
L 1094.559531 166.868838 
L 1084.538855 168.656185 
L 1079.282668 171.04799 
L 1070.070124 171.040896 
L 1067.614747 165.344211 
L 1060.433085 161.033835 
L 1049.880657 159.095626 
L 1047.637626 153.156598 
L 1039.506284 140.708927 
L 1034.181997 138.476191 
L 1025.107018 136.670855 
L 1017.068956 136.835009 
L 1009.534493 137.928347 
L 1004.526348 140.944858 
L 1007.853205 142.385828 
L 1007.928455 145.733396 
L 1004.556611 147.677002 
L 999.083459 154.107769 
L 999.138457 156.775784 
L 990.594156 160.60709 
L 983.315677 158.317957 
L 976.08169 158.823346 
L 972.907108 156.791764 
L 969.271315 156.136607 
L 960.390506 160.40954 
L 952.408305 161.413582 
L 946.834927 162.916276 
L 939.198008 161.928997 
L 933.575751 161.992132 
L 929.895466 158.892904 
L 923.957381 155.979006 
L 917.880807 155.180347 
L 904.480949 157.096626 
L 895.867291 154.546499 
L 894.711168 150.003072 
L 882.078713 147.734867 
L 875.286511 145.228602 
L 869.006591 151.512282 
L 871.468365 155.081024 
L 865.574966 159.303107 
L 856.809216 157.778769 
L 850.757756 157.560657 
L 846.705244 154.728536 
L 840.37921 154.639084 
L 835.107304 152.778418 
L 825.884973 155.630278 
L 814.315858 160.852422 
L 805.550978 162.401801 
L 802.333784 158.693004 
L 794.523911 159.504352 
L 791.942761 156.930879 
L 787.703509 155.75404 
L 784.785538 152.250469 
L 781.438002 151.159481 
L 772.725133 152.717633 
L 764.372899 149.224402 
L 761.141919 152.398984 
L 747.59292 137.0006 
L 739.85793 132.316274 
L 742.076566 130.415347 
L 726.880593 136.136994 
L 721.065168 136.482834 
L 721.567424 133.173524 
L 713.78011 131.105753 
L 707.450058 132.581344 
L 705.540985 126.297194 
L 694.644886 124.990483 
L 689.193703 127.505835 
L 674.022285 129.744 
L 671.061425 131.241735 
L 648.373491 133.351579 
L 645.593329 135.420672 
L 649.970443 139.573916 
L 644.149853 141.150398 
L 645.285333 142.802233 
L 639.46631 145.755767 
L 649.291473 149.925774 
L 647.772173 152.797217 
L 639.255758 152.535749 
L 637.494259 154.335003 
L 629.739709 151.193088 
L 620.127542 151.314897 
L 613.694289 153.872579 
L 593.150998 147.221645 
L 583.679889 147.37862 
L 571.163914 153.973116 
L 570.408807 158.401457 
L 564.173692 154.885197 
L 559.335994 161.546744 
L 561.106892 162.783427 
L 557.607082 167.378613 
L 562.753455 171.491267 
L 567.252379 171.321984 
L 571.117542 175.373033 
L 570.502232 178.493063 
L 573.58177 179.473536 
L 570.818486 183.069231 
L 564.940254 184.06844 
L 558.914082 190.327377 
L 564.425068 196.081556 
L 563.828332 200.165578 
L 570.448391 207.306159 
L 566.828159 209.74998 
L 565.787615 211.292466 
L 563.105576 210.878254 
L 558.938702 207.195463 
L 553.423225 205.58689 
L 551.567166 203.09893 
L 545.912324 201.830444 
L 542.235547 202.782558 
L 541.17316 201.655599 
L 532.917625 198.748497 
L 518.866651 196.730653 
L 518.12721 197.446751 
L 510.396632 192.323368 
L 503.479296 190.036285 
L 498.242789 186.474301 
L 502.65501 185.505287 
L 507.686097 180.434304 
L 504.295397 178.035112 
L 513.232189 175.560253 
L 513.071697 174.234786 
L 507.629031 175.211986 
L 507.820471 172.518667 
L 510.945772 170.825715 
L 516.813136 170.381181 
L 517.767128 168.359283 
L 516.427352 165.015997 
L 518.889837 161.841267 
L 518.8186 160.061002 
L 509.881192 158.087978 
L 506.338142 158.153463 
L 502.596133 155.314135 
L 497.943923 156.274312 
L 490.243399 154.142466 
L 490.375539 152.949585 
L 488.21871 150.320404 
L 483.384146 150.02682 
L 482.88189 148.144693 
L 484.396177 146.917096 
L 480.521633 143.484179 
L 474.234506 144.069936 
L 472.39311 143.765386 
L 470.861447 145.144421 
L 468.597039 144.899288 
L 467.105795 141.016609 
L 465.682059 139.003983 
L 466.848849 138.437477 
L 471.741087 138.647892 
L 474.100404 137.321912 
L 472.353945 135.705325 
L 468.265402 134.638306 
L 468.630109 133.543244 
L 466.162695 132.437216 
L 462.361468 128.467578 
L 463.660816 126.831879 
L 463.06707 123.985658 
L 457.139638 122.539676 
L 453.958162 123.26345 
L 453.096839 121.75825 
L 446.713522 120.237696 
L 444.764657 116.659242 
L 444.247675 113.719024 
z
" clip-path="url(#p7856a860a2)" style="fill: #e8edf4; stroke: #b8c5d4; stroke-width: 0.45"/>
    <path d="M 587.858043 24.162405 
L 594.057753 22.861491 
L 593.85096 19.555313 
L 605.876899 14.384554 
L 600.302894 13.643233 
L 614.819119 8.321766 
L 613.178877 5.569543 
L 626.740409 2.368328 
L 646.757322 -1.527209 
L 666.937476 -2.662063 
L 677.321292 -4.909837 
L 689.120699 -5.69753 
L 693.335512 -3.303277 
L 689.263261 -1.416606 
L 649.264214 4.481374 
L 630.429466 10.252459 
L 611.889869 22.001577 
L 613.123732 27.038078 
L 624.721673 32.010661 
L 621.140085 32.542525 
L 601.328085 31.754833 
L 599.719175 29.062767 
L 588.744119 27.437251 
z
" clip-path="url(#p7856a860a2)" style="fill: #e8edf4; stroke: #b8c5d4; stroke-width: 0.45"/>
    <path d="M -815.494737 66.817766 
L -815.494737 42.662584 
L -800.64 47.292632 
L -784.743916 53.320077 
L -785.265347 57.088573 
L -781.176232 58.597026 
L -782.582824 54.191353 
L -766.124322 55.095431 
L -754.254296 60.769576 
L -760.265856 63.412204 
L -770.204463 64.039619 
L -770.354526 69.964052 
L -772.78179 71.225795 
L -778.459998 71.044446 
L -783.08061 68.930526 
L -791.142245 67.162328 
L -792.498149 64.53219 
L -798.655286 63.54044 
L -805.550733 64.326952 
L -808.845393 62.205332 
L -807.528414 59.951838 
L -814.790016 61.392141 
L -812.054986 64.244554 
z
" clip-path="url(#p7856a860a2)" style="fill: #e8edf4; stroke: #b8c5d4; stroke-width: 0.45"/>
    <path d="M 1134.380924 145.907258 
L 1134.917332 137.621761 
L 1140.522042 134.831626 
L 1138.113846 132.022377 
L 1140.812179 131.17108 
L 1144.486823 141.024442 
L 1144.331729 146.991197 
L 1146.834235 153.109286 
L 1152.934621 163.84841 
L 1143.959815 161.846594 
L 1140.229399 170.607714 
L 1146.139912 176.821523 
L 1145.968838 181.058581 
L 1141.375532 177.403362 
L 1137.400098 182.096305 
L 1136.277777 177.008263 
L 1136.953927 171.10151 
L 1136.262738 164.559025 
L 1137.665482 159.975432 
L 1137.933373 151.867903 
z
" clip-path="url(#p7856a860a2)" style="fill: #e8edf4; stroke: #b8c5d4; stroke-width: 0.45"/>
    <path d="M 472.648468 185.972416 
L 473.719404 184.80999 
L 479.524014 182.7947 
L 478.601359 182.065006 
L 480.198842 180.563432 
L 486.45939 182.102911 
L 487.246234 183.300283 
L 488.160964 183.48495 
L 488.21025 184.009451 
L 491.176473 185.47204 
L 497.36083 185.108273 
L 496.176785 187.27145 
L 489.539364 188.321707 
L 481.308698 191.829351 
L 477.937036 190.596114 
L 479.273983 187.747074 
z
" clip-path="url(#p7856a860a2)" style="fill: #e8edf4; stroke: #b8c5d4; stroke-width: 0.45"/>
    <path d="M 547.787872 -27.828742 
L 559.624251 -28.93289 
L 568.836242 -29.006207 
L 570.075119 -27.372545 
L 573.557697 -28.824167 
L 579.272697 -29.823979 
L 588.265362 -28.495179 
L 585.920457 -27.570878 
L 572.32822 -26.311478 
L 571.482563 -25.316523 
L 564.395837 -24.314362 
L 557.827661 -25.751728 
L 561.281413 -27.644508 
z
" clip-path="url(#p7856a860a2)" style="fill: #e8edf4; stroke: #b8c5d4; stroke-width: 0.45"/>
    <path d="M 828.718909 -26.322957 
L 844.462444 -30.464943 
L 857.578479 -31.834004 
L 869.358922 -28.781659 
L 883.321192 -22.919555 
L 881.824229 -17.467594 
L 868.59551 -16.711276 
L 851.707493 -18.46077 
L 841.644409 -20.775411 
L 836.991057 -25.124453 
z
" clip-path="url(#p7856a860a2)" style="fill: #e8edf4; stroke: #b8c5d4; stroke-width: 0.45"/>
    <path d="M 1106.371038 4.476611 
L 1109.629197 0.30819 
L 1117.628413 -0.829197 
L 1133.638424 -0.563207 
L 1155.554739 2.651874 
L 1150.787368 7.154526 
L 1128.437416 6.986698 
L 1118.382457 8.418816 
z
" clip-path="url(#p7856a860a2)" style="fill: #e8edf4; stroke: #b8c5d4; stroke-width: 0.45"/>
    <path d="M 395.079249 130.80606 
L 396.460688 128.137806 
L 404.827648 126.171395 
L 411.177439 127.233558 
L 413.857599 128.195928 
L 413.210588 129.856223 
L 413.695925 131.403566 
L 402.546661 131.494586 
z
" clip-path="url(#p7856a860a2)" style="fill: #e8edf4; stroke: #b8c5d4; stroke-width: 0.45"/>
    <path d="M 1123.885864 15.947136 
L 1129.637315 13.550794 
L 1137.218445 12.989831 
L 1145.832738 15.307958 
L 1146.566501 16.901416 
L 1137.37342 16.943859 
z
" clip-path="url(#p7856a860a2)" style="fill: #e8edf4; stroke: #b8c5d4; stroke-width: 0.45"/>
    <path d="M 878.782828 -11.647326 
L 889.858762 -19.608192 
L 894.839343 -20.289812 
L 899.395594 -19.894979 
L 914.763365 -16.451409 
L 912.96285 -13.987038 
z
" clip-path="url(#p7856a860a2)" style="fill: #e8edf4; stroke: #b8c5d4; stroke-width: 0.45"/>
    <path d="M -815.494737 31.333192 
L -815.494737 27.188932 
L -809.579096 26.947523 
L -800.809435 28.68189 
L -801.328623 29.510784 
L -807.574919 30.964426 
z
" clip-path="url(#p7856a860a2)" style="fill: #e8edf4; stroke: #b8c5d4; stroke-width: 0.45"/>
    <path d="M 1161.817405 5.014353 
L 1163.268288 3.05086 
L 1189.783599 5.553489 
L 1182.776135 7.949285 
L 1173.084419 7.407027 
z
" clip-path="url(#p7856a860a2)" style="fill: #e8edf4; stroke: #b8c5d4; stroke-width: 0.45"/>
    <path d="M 1359.513398 29.716749 
L 1367.242105 27.188932 
L 1367.242105 31.333192 
L 1360.593398 31.642772 
z
" clip-path="url(#p7856a860a2)" style="fill: #e8edf4; stroke: #b8c5d4; stroke-width: 0.45"/>
    <path d="M 306.141442 85.060054 
L 311.724533 81.158564 
L 327.734366 76.068329 
L 339.704847 69.810968 
L 365.372842 49.653373 
L 392.189477 37.485812 
L 405.494398 34.831815 
L 415.470269 35.153754 
L 424.703253 30.130883 
L 435.759459 30.399087 
L 446.645845 29.191229 
L 465.610621 33.627561 
L 457.801374 35.249631 
L 464.444214 39.05825 
L 454.127798 41.490675 
L 449.231068 42.049353 
L 451.799684 37.794748 
L 444.01895 35.383419 
L 434.604866 37.438187 
L 431.631437 41.883605 
L 425.850013 44.566898 
L 419.340427 43.101489 
L 411.423084 43.401652 
L 404.685087 40.196051 
L 401.051174 41.797911 
L 397.290052 42.047159 
L 396.40053 46.03638 
L 384.97335 45.06508 
L 383.368513 48.441286 
L 377.546043 48.420763 
L 367.478369 59.456133 
L 358.063971 67.986022 
L 360.272267 70.057239 
L 358.162355 72.460108 
L 352.147818 72.356399 
L 348.21061 78.043043 
L 348.583463 86.094644 
L 352.458321 89.167397 
L 350.452744 96.295481 
L 345.407628 100.452015 
L 342.734361 103.945873 
L 338.667124 100.22517 
L 326.695076 107.237325 
L 318.611359 108.658555 
L 310.226539 105.570763 
L 308.058348 99.052404 
z
" clip-path="url(#p7856a860a2)" style="fill: #e8edf4; stroke: #b8c5d4; stroke-width: 0.45"/>
    <path d="M 339.200519 -22.145017 
L 355.730142 -24.316052 
L 359.051237 -22.193523 
L 367.686993 -22.277922 
L 369.989356 -24.350127 
L 378.891891 -24.561004 
L 406.497327 -17.923362 
L 391.239633 -15.537448 
L 387.870639 -11.07551 
L 382.55137 -9.93121 
L 379.664034 -4.907581 
L 372.357625 -4.67136 
L 359.31844 -8.36928 
L 364.817543 -10.52352 
L 355.729112 -12.27747 
L 343.916322 -17.397019 
z
" clip-path="url(#p7856a860a2)" style="fill: #e8edf4; stroke: #b8c5d4; stroke-width: 0.45"/>
    <path d="M 381.178703 -26.18615 
L 399.901594 -27.879344 
L 408.705013 -26.421298 
L 414.836731 -28.237001 
L 430.166655 -26.722401 
L 442.049719 -24.594629 
L 433.058934 -21.329183 
L 415.474656 -20.614808 
L 397.592721 -21.626212 
L 396.513953 -23.296847 
L 387.813304 -23.403064 
z
" clip-path="url(#p7856a860a2)" style="fill: #e8edf4; stroke: #b8c5d4; stroke-width: 0.45"/>
    <path d="M 401.538755 -10.168158 
L 405.722941 -11.732453 
L 402.05952 -13.670178 
L 414.624566 -14.884689 
L 417.032125 -12.608579 
L 425.779928 -11.240185 
L 412.236045 -8.760839 
z
" clip-path="url(#p7856a860a2)" style="fill: #e8edf4; stroke: #b8c5d4; stroke-width: 0.45"/>
    <path d="M -168.5376 -12.394247 
L -167.703188 -14.749905 
L -122.540665 -20.580541 
L -120.195436 -22.786196 
L -136.560384 -24.963294 
L -131.27519 -27.38013 
L -110.284295 -31.613063 
L -101.463552 -32.262669 
L -103.990191 -34.986968 
L -89.628571 -36.582851 
L -70.984057 -37.535434 
L -52.351852 -37.589275 
L -45.736098 -35.701875 
L -29.652541 -39.039643 
L -15.181299 -36.771901 
L -6.668504 -36.29373 
L 5.923705 -34.321718 
L -8.492665 -37.590306 
L -7.662558 -40.186368 
L 12.693585 -43.807286 
L 33.96866 -43.534565 
L 41.701551 -45.771082 
L 63.130388 -46.35363 
L 111.559316 -45.592886 
L 149.484793 -40.784984 
L 138.289597 -38.450425 
L 82.458947 -37.591579 
L 85.51199 -36.509548 
L 106.974356 -37.17795 
L 125.237679 -35.087313 
L 137.007481 -36.943852 
L 142.049179 -34.769118 
L 135.39268 -31.241694 
L 150.829359 -33.496643 
L 180.268719 -35.848118 
L 198.446067 -34.674291 
L 201.851318 -32.083443 
L 177.133157 -27.769506 
L 173.709474 -26.374737 
L 154.330166 -25.326296 
L 168.371773 -25.035507 
L 161.28 -20.614737 
L 156.399219 -16.681445 
L 156.589965 -9.93503 
L 163.869878 -5.976152 
L 154.398134 -5.725683 
L 144.427816 -3.80736 
L 155.616586 -0.594675 
L 157.042095 4.557191 
L 150.559245 5.118215 
L 158.413278 10.333986 
L 144.944519 10.76926 
L 151.975842 13.235085 
L 149.988339 15.373986 
L 141.440074 16.312623 
L 132.98973 16.330328 
L 140.585775 20.437208 
L 140.668052 23.136465 
L 128.670275 20.627591 
L 125.550053 22.250577 
L 133.735316 23.766609 
L 141.678963 27.47229 
L 143.978415 32.35489 
L 133.171018 33.5232 
L 120.999956 27.702932 
L 123.07392 31.817876 
L 116.032108 35.005885 
L 140.368047 35.594011 
L 107.636999 45.65279 
L 89.894137 47.747187 
L 83.206838 47.772955 
L 76.935107 50.10915 
L 68.5018 56.510208 
L 55.460675 60.759512 
L 51.271397 61.009435 
L 34.485908 63.9149 
L 29.291176 67.665024 
L 29.207384 71.914995 
L 26.140093 75.895821 
L 16.253022 80.747136 
L 18.694777 85.484888 
L 12.863596 96.418035 
L 4.32 96.787645 
L -4.63007 91.836955 
L -16.752141 91.80573 
L -22.634253 88.480815 
L -26.680259 82.559838 
L -37.186863 75.019998 
L -40.260217 71.06979 
L -41.087535 65.623377 
L -49.485433 60.02787 
L -47.302393 55.559747 
L -51.349551 53.422545 
L -45.354846 46.337139 
L -36.229551 44.081704 
L -33.834907 41.54591 
L -32.566555 36.808825 
L -42.793283 39.85823 
L -48.240243 40.722442 
L -55.680162 38.743397 
L -56.084271 34.624755 
L -53.712546 31.399185 
L -48.088815 31.311633 
L -35.712849 32.924281 
L -51.562429 26.99809 
L -57.6 27.850892 
L -62.660797 26.347816 
L -55.891341 20.698105 
L -59.578651 18.440428 
L -71.688536 7.819897 
L -79.407906 5.46527 
L -79.337391 2.926868 
L -95.607572 -0.620746 
L -108.479899 -1.062265 
L -139.479188 -0.372339 
L -146.515301 -2.302484 
L -157.051372 -6.115119 
L -141.130368 -8.022285 
L -128.926808 -8.342602 
L -154.870818 -9.919023 
z
" clip-path="url(#p7856a860a2)" style="fill: #e8edf4; stroke: #b8c5d4; stroke-width: 0.45"/>
    <path d="M 248.029542 165.620248 
L 255.890644 164.301318 
L 266.072524 165.861193 
L 264.150605 158.99818 
L 269.874378 161.599069 
L 283.990804 156.871034 
L 285.811207 151.902681 
L 291.113874 150.678531 
L 291.992117 152.81069 
L 294.810452 152.91064 
L 301.860518 158.202968 
L 304.972123 157.730791 
L 311.63273 161.021302 
L 313.382322 160.893154 
L 316.243582 162.480758 
L 324.980889 163.597439 
L 321.915343 167.749274 
L 321.145823 172.068892 
L 319.481142 173.10458 
L 316.718578 172.546552 
L 316.913465 174.087158 
L 312.479327 177.494226 
L 312.389716 180.239556 
L 315.284815 179.289563 
L 317.367469 181.948417 
L 317.117438 183.661663 
L 318.901809 185.938264 
L 316.799729 187.784986 
L 318.361641 192.476362 
L 321.648079 193.245568 
L 320.954383 195.877319 
L 315.461529 199.302716 
L 303.503267 197.661063 
L 294.671963 199.628258 
L 293.978267 203.279404 
L 286.94982 204.065373 
L 280.127539 201.322705 
L 277.923316 202.633489 
L 266.762147 199.877976 
L 264.345491 197.520695 
L 267.480908 193.883962 
L 268.635501 181.804288 
L 262.378767 175.441338 
L 257.906873 172.373598 
L 248.640677 170.04154 
z
" clip-path="url(#p7856a860a2)" style="fill: #e8edf4; stroke: #b8c5d4; stroke-width: 0.45"/>
    <path d="M -54.71851 446.782895 
L -53.172107 444.233078 
L -51.578863 438.85114 
L -53.95933 435.258272 
L -54.438869 431.110197 
L -51.28246 425.89714 
L -44.759088 427.999219 
L -38.339426 433.117027 
L -37.335698 435.600107 
L -40.922299 441.148732 
L -42.784217 445.613576 
L -45.107816 447.916652 
L -48.010904 448.349977 
L -48.837762 446.643154 
L -50.193978 446.389676 
L -52.070779 448.033678 
z
" clip-path="url(#p7856a860a2)" style="fill: #e8edf4; stroke: #b8c5d4; stroke-width: 0.45"/>
    <path d="M 327.678595 204.592068 
L 328.902119 202.338966 
L 332.806742 200.023671 
L 333.837573 205.222786 
L 331.835129 209.906485 
L 329.082279 208.671995 
z
" clip-path="url(#p7856a860a2)" style="fill: #e8edf4; stroke: #b8c5d4; stroke-width: 0.45"/>
    <path d="M 169.010267 371.49247 
L 171.677267 370.340854 
L 174.614665 366.084213 
L 176.055321 362.970728 
L 178.131395 361.02672 
L 181.144929 361.550125 
L 184.103319 360.228688 
L 187.488924 360.162107 
L 190.386059 361.944441 
L 194.410685 363.550688 
L 202.080503 372.175826 
L 202.358577 375.947758 
L 203.554059 379.419839 
L 205.823609 381.122746 
L 206.342001 383.467338 
L 206.062831 385.356202 
L 205.187565 385.698193 
L 201.881544 385.21881 
L 201.4266 385.89308 
L 200.089966 386.028591 
L 195.731966 384.550493 
L 181.600814 384.233411 
L 179.975297 384.91614 
L 177.967527 384.720941 
L 174.75566 385.708689 
L 173.760861 381.061022 
L 179.279721 381.189014 
L 184.07042 378.889698 
L 186.671309 380.170873 
L 189.305724 380.277716 
L 191.929485 378.9168 
L 190.704552 377.164388 
L 188.705398 378.185349 
L 186.823897 378.156994 
L 184.430741 376.664639 
L 182.508508 376.762396 
L 181.13929 378.198039 
L 174.535707 378.371619 
L 172.035395 373.651105 
z
" clip-path="url(#p7856a860a2)" style="fill: #e8edf4; stroke: #b8c5d4; stroke-width: 0.45"/>
    <path d="M 202.080503 372.175826 
L 204.121015 371.070738 
L 205.14041 367.498863 
L 207.062329 367.359121 
L 211.296254 369.047772 
L 214.715541 367.848844 
L 217.059506 368.251307 
L 217.969081 366.902924 
L 242.297466 366.810807 
L 243.646319 362.565603 
L 242.595906 361.818329 
L 236.743357 309.48425 
L 246.022712 309.375214 
L 286.928201 335.833408 
L 288.369797 338.674459 
L 294.952387 341.394723 
L 295.021944 345.252192 
L 301.747722 344.658603 
L 301.764642 358.622284 
L 298.449378 362.672132 
L 297.933022 366.408031 
L 292.547324 367.369618 
L 284.27436 367.89083 
L 282.032539 370.045547 
L 274.259324 370.311558 
L 272.745977 369.148349 
L 269.408154 370.011395 
L 263.741092 372.526434 
L 262.584306 374.421721 
L 257.880084 377.139636 
L 257.05542 378.697161 
L 254.514375 379.931651 
L 251.582304 379.114193 
L 249.920913 380.593858 
L 249.031077 384.751959 
L 244.218289 389.777024 
L 244.358344 391.830695 
L 242.704785 394.400722 
L 243.106308 397.920585 
L 239.188838 399.58417 
L 238.250438 396.990958 
L 236.499749 397.674627 
L 235.453879 397.556348 
L 234.337981 399.325679 
L 229.655692 399.275705 
L 227.977224 398.365346 
L 227.186868 398.916167 
L 225.334976 397.168298 
L 225.656445 395.362778 
L 224.898832 394.655453 
L 223.607317 395.251862 
L 223.843875 393.279184 
L 225.086825 391.718526 
L 222.602179 389.178578 
L 221.879657 387.506376 
L 220.532371 386.174286 
L 219.318874 386.015275 
L 214.240388 388.987451 
L 211.645295 388.503055 
L 209.962128 386.963545 
L 208.957303 386.761296 
L 206.413125 387.576247 
L 206.062831 385.356202 
L 206.342001 383.467338 
L 205.823609 381.122746 
L 203.554059 379.419839 
L 202.358577 375.947758 
z
" clip-path="url(#p7856a860a2)" style="fill: #e8edf4; stroke: #b8c5d4; stroke-width: 0.45"/>
    <path d="M 172.415455 333.475187 
L 173.738615 331.452691 
L 197.482498 331.490603 
L 196.332605 322.734496 
L 197.815246 319.620385 
L 203.496407 319.076144 
L 203.301207 303.561987 
L 223.201251 303.87907 
L 223.218797 294.695278 
L 246.022712 309.375214 
L 236.743357 309.48425 
L 242.595906 361.818329 
L 243.646319 362.565603 
L 242.297466 366.810807 
L 217.969081 366.902924 
L 217.059506 368.251307 
L 214.715541 367.848844 
L 211.296254 369.047772 
L 207.062329 367.359121 
L 205.14041 367.498863 
L 204.121015 371.070738 
L 202.080503 372.175826 
L 194.410685 363.550688 
L 190.386059 361.944441 
L 187.488924 360.162107 
L 184.103319 360.228688 
L 181.144929 361.550125 
L 178.131395 361.02672 
L 176.055321 362.970728 
L 175.530193 359.703559 
L 177.22276 356.713994 
L 177.97583 351.005417 
L 176.573399 341.999592 
L 177.178582 338.975875 
L 175.611343 336.093779 
z
" clip-path="url(#p7856a860a2)" style="fill: #e8edf4; stroke: #b8c5d4; stroke-width: 0.45"/>
    <path d="M 277.666235 373.222323 
L 278.146715 370.283672 
L 282.032539 370.045547 
L 284.27436 367.89083 
L 292.547324 367.369618 
L 297.933022 366.408031 
L 298.449378 362.672132 
L 301.764642 358.622284 
L 301.747722 344.658603 
L 310.297663 341.954787 
L 327.852489 330.043994 
L 348.628582 318.487568 
L 358.220006 321.101774 
L 361.630207 324.431764 
L 365.919461 322.178324 
L 367.408498 331.603086 
L 369.677164 333.179924 
L 369.774708 335.108223 
L 372.29758 337.186647 
L 370.978806 339.796466 
L 368.642675 352.100009 
L 368.323086 359.986019 
L 360.589157 365.703188 
L 357.971228 373.6898 
L 360.495353 375.935851 
L 360.48188 379.835931 
L 364.370211 379.975517 
L 363.763932 382.83145 
L 362.052565 383.179238 
L 361.857365 385.109617 
L 360.729718 385.243562 
L 356.627075 378.605671 
L 355.203965 378.364413 
L 350.463084 381.753464 
L 345.768575 379.98429 
L 342.505323 379.630549 
L 340.75573 380.481846 
L 337.201402 380.297925 
L 333.624827 382.881738 
L 330.532648 383.02994 
L 323.194638 379.896089 
L 320.321159 381.384527 
L 317.227101 381.281131 
L 314.95332 378.991214 
L 308.875806 376.728714 
L 302.359641 377.446848 
L 300.780809 378.758103 
L 299.927946 382.245067 
L 298.189947 384.689765 
L 297.768841 390.102566 
L 293.145457 386.613408 
L 290.971939 386.629074 
L 288.936597 388.404985 
L 289.073832 384.252524 
L 282.082984 382.877352 
L 281.894677 379.943244 
L 278.480403 375.984103 
z
" clip-path="url(#p7856a860a2)" style="fill: #e8edf4; stroke: #b8c5d4; stroke-width: 0.45"/>
    <path d="M 483.630417 271.512086 
L 485.394422 269.514499 
L 484.980523 269.170628 
L 486.584107 266.336783 
L 487.813897 261.762434 
L 488.681174 260.227467 
L 490.877564 260.175926 
L 491.435904 259.11345 
L 493.062674 259.033709 
L 493.155417 261.515379 
L 491.392666 264.390112 
L 489.199409 263.550251 
L 487.930453 267.58788 
L 489.453827 268.268416 
L 487.905388 269.10248 
L 487.644077 270.699171 
L 490.494684 269.8767 
L 490.636305 272.23539 
L 487.614938 281.928801 
z
" clip-path="url(#p7856a860a2)" style="fill: #e8edf4; stroke: #b8c5d4; stroke-width: 0.45"/>
    <path d="M 488.848488 260.164646 
L 491.007906 255.225902 
L 494.137683 250.742416 
L 496.864841 251.051508 
L 497.856506 253.429155 
L 494.550328 255.714215 
L 493.062674 259.033709 
L 491.435904 259.11345 
L 490.877564 260.175926 
z
" clip-path="url(#p7856a860a2)" style="fill: #e8edf4; stroke: #b8c5d4; stroke-width: 0.45"/>
    <path d="M 487.644077 270.699171 
L 487.905388 269.10248 
L 489.453827 268.268416 
L 487.930453 267.58788 
L 489.199409 263.550251 
L 491.392666 264.390112 
L 491.390159 268.097655 
L 490.494684 269.8767 
z
" clip-path="url(#p7856a860a2)" style="fill: #e8edf4; stroke: #b8c5d4; stroke-width: 0.45"/>
    <path d="M 321.495804 254.062223 
L 325.23374 250.680378 
L 326.660924 245.67991 
L 325.699651 239.899895 
L 326.931321 236.787978 
L 333.534277 234.341087 
L 337.778541 235.068621 
L 337.600574 238.13636 
L 342.743448 235.904722 
L 343.174892 237.069498 
L 340.143185 240.04042 
L 340.102453 242.844969 
L 342.201713 244.351423 
L 341.403368 249.598946 
L 337.412267 252.647103 
L 338.564667 255.951714 
L 341.700397 256.054797 
L 343.226277 258.937206 
L 345.532017 259.885163 
L 345.189242 264.54223 
L 342.233672 266.282892 
L 340.366897 268.225491 
L 336.20347 270.561936 
L 336.848287 273.073528 
L 336.323472 275.635251 
L 333.365396 277.040502 
L 330.779233 266.15631 
L 327.041297 263.709262 
L 326.988972 262.24166 
L 322.030332 258.629367 
z
" clip-path="url(#p7856a860a2)" style="fill: #e8edf4; stroke: #b8c5d4; stroke-width: 0.45"/>
    <path d="M 223.218797 294.695278 
L 223.281148 285.930711 
L 233.072472 281.456468 
L 239.127114 280.53201 
L 244.089827 278.902577 
L 246.408882 275.866483 
L 253.497957 273.466904 
L 253.758328 268.978091 
L 257.265972 268.44936 
L 260.008796 266.206911 
L 267.943685 265.18501 
L 269.055353 262.82867 
L 267.457722 261.540288 
L 265.363476 255.139425 
L 265.002528 251.451778 
L 262.717155 247.56846 
L 268.545734 244.255233 
L 275.100908 243.201373 
L 278.928767 240.699651 
L 284.767843 238.854182 
L 305.072386 237.28146 
L 308.130412 238.181949 
L 313.840086 235.792239 
L 320.318966 235.745397 
L 322.784813 237.156131 
L 326.931321 236.787978 
L 325.699651 239.899895 
L 326.660924 245.67991 
L 325.23374 250.680378 
L 321.495804 254.062223 
L 322.030332 258.629367 
L 326.988972 262.24166 
L 327.041297 263.709262 
L 330.779233 266.15631 
L 333.365396 277.040502 
L 335.326794 282.393772 
L 335.656409 285.21101 
L 334.588606 290.15743 
L 335.026631 292.921716 
L 334.256171 296.240114 
L 334.785059 300.052307 
L 332.378744 302.585988 
L 335.963778 307.005244 
L 336.191564 309.603313 
L 338.347535 312.984374 
L 341.182162 311.87349 
L 345.967848 314.690571 
L 348.628582 318.487568 
L 327.852489 330.043994 
L 310.297663 341.954787 
L 301.747722 344.658603 
L 295.021944 345.252192 
L 294.952387 341.394723 
L 288.369797 338.674459 
L 286.928201 335.833408 
z
" clip-path="url(#p7856a860a2)" style="fill: #e8edf4; stroke: #b8c5d4; stroke-width: 0.45"/>
    <path d="M 487.614938 281.928801 
L 490.636305 272.23539 
L 490.494684 269.8767 
L 491.390159 268.097655 
L 491.392666 264.390112 
L 492.449189 262.479002 
L 499.204419 264.881558 
L 511.07777 258.419754 
L 513.521998 265.802725 
L 512.366465 266.717 
L 500.223656 269.759517 
L 506.266705 275.822148 
L 504.261442 276.851882 
L 503.263823 278.882368 
L 498.637305 279.722072 
L 497.186309 281.904989 
L 494.565368 283.77098 
L 487.817657 282.806574 
z
" clip-path="url(#p7856a860a2)" style="fill: #e8edf4; stroke: #b8c5d4; stroke-width: 0.45"/>
    <path d="M 558.227147 284.368016 
L 562.676951 278.547113 
L 566.750768 279.051875 
L 568.015964 281.727805 
L 567.474856 283.11128 
L 569.428108 287.68469 
L 565.139978 287.841978 
L 563.630078 284.953145 
z
" clip-path="url(#p7856a860a2)" style="fill: #e8edf4; stroke: #b8c5d4; stroke-width: 0.45"/>
    <path d="M 511.07777 258.419754 
L 524.5005 252.109911 
L 526.7912 244.779891 
L 526.2197 240.350766 
L 529.538411 238.852929 
L 532.645942 235.069404 
L 535.250277 234.127244 
L 542.302537 234.90961 
L 544.431876 236.453976 
L 547.337495 235.429772 
L 551.266064 242.662459 
L 555.241811 244.482392 
L 555.699262 248.024031 
L 552.647502 250.116554 
L 551.242251 254.847879 
L 555.442024 260.610974 
L 562.871211 263.934384 
L 565.990962 268.54226 
L 564.997103 272.933943 
L 566.933749 272.932219 
L 566.993593 276.161946 
L 570.348962 279.349218 
L 562.676951 278.547113 
L 558.227147 284.368016 
L 546.954434 283.883776 
L 529.859253 271.690053 
L 520.825229 267.445945 
L 513.521998 265.802725 
z
" clip-path="url(#p7856a860a2)" style="fill: #e8edf4; stroke: #b8c5d4; stroke-width: 0.45"/>
    <path d="M 543.314882 221.740984 
L 547.466716 220.013795 
L 548.428929 222.301048 
L 551.491029 225.099957 
L 555.649757 225.905978 
L 557.845207 225.727698 
L 564.99585 221.254551 
L 567.26963 220.806657 
L 569.060894 222.586015 
L 566.970407 225.585763 
L 570.751582 228.760658 
L 572.260542 228.458302 
L 574.178702 232.929099 
L 579.927541 234.192102 
L 584.138906 237.234305 
L 592.758718 238.279549 
L 602.227947 236.675181 
L 602.808846 235.257084 
L 608.13658 234.083849 
L 612.449149 230.617563 
L 616.504167 230.793337 
L 619.165841 229.663967 
L 623.477156 230.222777 
L 630.181315 233.296313 
L 635.023399 233.959147 
L 641.952837 239.328709 
L 646.472512 239.545684 
L 647.004533 244.647982 
L 642.867111 256.61439 
L 645.506226 257.509396 
L 642.913483 260.82936 
L 644.899633 265.669877 
L 645.374317 269.519042 
L 649.966369 270.5411 
L 650.462985 274.443686 
L 644.963865 279.940614 
L 647.965493 283.129609 
L 650.406274 286.791408 
L 656.202425 289.457311 
L 656.369739 294.797264 
L 659.270791 295.778746 
L 659.77242 298.570919 
L 651.026652 301.702889 
L 648.741906 308.746689 
L 630.724616 305.522759 
L 623.882282 304.73491 
L 621.296433 297.30024 
L 618.394441 296.225857 
L 613.735337 297.30917 
L 607.619911 300.24359 
L 600.210777 298.232374 
L 594.090025 293.572957 
L 588.252203 291.845924 
L 584.203138 286.093012 
L 579.728894 278.009295 
L 576.465955 278.991874 
L 572.612716 276.982694 
L 570.348962 279.349218 
L 566.993593 276.161946 
L 566.933749 272.932219 
L 564.997103 272.933943 
L 565.990962 268.54226 
L 562.871211 263.934384 
L 555.442024 260.610974 
L 551.242251 254.847879 
L 552.647502 250.116554 
L 555.699262 248.024031 
L 555.241811 244.482392 
L 551.266064 242.662459 
L 547.337452 235.429693 
L 544.021424 230.572288 
L 545.207662 228.694547 
z
" clip-path="url(#p7856a860a2)" style="fill: #e8edf4; stroke: #b8c5d4; stroke-width: 0.45"/>
    <path d="M 492.449189 262.479002 
L 493.155417 261.515379 
L 493.062674 259.033709 
L 494.550328 255.714215 
L 497.856506 253.429155 
L 496.864841 251.051508 
L 494.137683 250.742416 
L 493.571509 246.103522 
L 495.055404 243.608379 
L 498.30299 240.951719 
L 498.631039 237.56956 
L 500.615309 238.748749 
L 507.290642 237.062135 
L 510.517236 238.203725 
L 515.505328 238.184769 
L 522.482078 235.909735 
L 525.74909 236.012348 
L 532.645942 235.069404 
L 529.538411 238.852929 
L 526.2197 240.350766 
L 526.7912 244.779891 
L 524.5005 252.109911 
L 511.07777 258.419754 
L 499.204419 264.881558 
z
" clip-path="url(#p7856a860a2)" style="fill: #e8edf4; stroke: #b8c5d4; stroke-width: 0.45"/>
    <path d="M 540.122753 211.651847 
L 548.548932 210.706084 
L 549.804101 212.299328 
L 552.113287 213.348644 
L 550.893523 214.869198 
L 554.123564 216.949032 
L 552.41439 218.880038 
L 554.988333 220.529053 
L 557.710478 221.522598 
L 557.845207 225.727698 
L 555.649757 225.905978 
L 553.17451 222.398334 
L 553.202396 221.462911 
L 550.52349 221.47654 
L 548.727839 219.850084 
L 547.466716 220.013795 
L 545.077947 218.243367 
L 540.569551 216.736286 
L 541.152957 213.785729 
z
" clip-path="url(#p7856a860a2)" style="fill: #e8edf4; stroke: #b8c5d4; stroke-width: 0.45"/>
    <path d="M 342.734361 103.945873 
L 345.407628 100.452015 
L 350.452744 96.295481 
L 352.458321 89.167397 
L 348.583463 86.094644 
L 348.21061 78.043043 
L 352.147818 72.356399 
L 358.162355 72.460108 
L 360.272267 70.057239 
L 358.063971 67.986022 
L 367.478369 59.456133 
L 377.546043 48.420763 
L 383.368513 48.441286 
L 384.97335 45.06508 
L 396.40053 46.03638 
L 397.290052 42.047159 
L 401.051174 41.797911 
L 418.597226 48.893253 
L 418.757334 58.23026 
L 420.803642 60.589577 
L 410.373767 62.306584 
L 404.494587 66.537062 
L 405.441133 70.250246 
L 384.087587 80.340479 
L 379.672249 88.878827 
L 383.987951 93.150821 
L 389.786608 96.513867 
L 384.217616 103.354007 
L 377.91169 104.772418 
L 375.598744 114.950695 
L 372.155332 120.630759 
L 364.800089 120.04516 
L 361.368582 124.853875 
L 354.348595 125.133045 
L 352.421662 119.401282 
L 347.34584 112.521193 
z
" clip-path="url(#p7856a860a2)" style="fill: #e8edf4; stroke: #b8c5d4; stroke-width: 0.45"/>
    <path d="M 416.535878 142.563168 
L 420.171985 141.325545 
L 420.206763 138.908576 
L 418.524849 136.60221 
L 418.261658 133.920014 
L 424.12204 133.961216 
L 430.704629 131.677096 
L 432.11176 128.254206 
L 437.082619 126.312704 
L 436.512999 123.596825 
L 446.713522 120.237696 
L 453.096839 121.75825 
L 453.958162 123.26345 
L 457.139638 122.539676 
L 463.06707 123.985658 
L 463.660816 126.831879 
L 462.361468 128.467578 
L 466.162695 132.437216 
L 468.630109 133.543244 
L 468.265402 134.638306 
L 472.353945 135.705325 
L 474.100404 137.321912 
L 471.741087 138.647892 
L 466.848849 138.437477 
L 465.682059 139.003983 
L 467.105795 141.016609 
L 468.597175 144.899302 
L 463.392299 145.258994 
L 461.524271 146.590144 
L 461.134184 149.641747 
L 458.722542 149.055834 
L 453.250994 149.346284 
L 451.661823 147.928657 
L 449.386789 148.98565 
L 447.107055 148.109444 
L 442.332022 147.987719 
L 435.564886 146.532649 
L 429.44006 146.057496 
L 424.743045 146.192068 
L 421.420261 147.835287 
L 418.522029 148.071689 
L 418.406413 145.372417 
z
" clip-path="url(#p7856a860a2)" style="fill: #e8edf4; stroke: #b8c5d4; stroke-width: 0.45"/>
    <path d="M 409.782215 167.208166 
L 410.965947 164.763938 
L 412.647235 163.18542 
L 413.970708 163.539161 
L 412.406603 160.81451 
L 417.912304 155.771586 
L 420.921138 155.065984 
L 421.571282 153.365114 
L 418.522029 148.071689 
L 421.420261 147.835287 
L 424.743045 146.192068 
L 429.44006 146.057496 
L 435.564886 146.532649 
L 442.332022 147.987719 
L 447.107055 148.109444 
L 449.386789 148.98565 
L 451.661823 147.928657 
L 453.250994 149.346284 
L 458.722542 149.055834 
L 461.134184 149.641747 
L 461.524271 146.590144 
L 463.392299 145.258994 
L 470.861447 145.144421 
L 472.39311 143.765386 
L 474.234506 144.069936 
L 480.521633 143.484179 
L 484.396177 146.917096 
L 482.88189 148.144693 
L 483.384146 150.02682 
L 488.21871 150.320404 
L 490.375539 152.949585 
L 490.243399 154.142466 
L 497.943923 156.274312 
L 502.596133 155.314135 
L 506.338142 158.153463 
L 509.881192 158.087978 
L 518.8186 160.061002 
L 518.889837 161.841267 
L 516.427352 165.015997 
L 517.767128 168.359283 
L 516.813136 170.381181 
L 510.945772 170.825715 
L 507.820471 172.518667 
L 507.629031 175.211986 
L 502.7882 175.696852 
L 498.754488 177.658407 
L 493.07834 177.978152 
L 487.855883 180.238303 
L 488.160964 183.48495 
L 487.246234 183.300283 
L 486.45939 182.102911 
L 480.198842 180.563432 
L 478.601359 182.065006 
L 477.768156 181.406056 
L 468.343419 179.873596 
L 467.926073 177.612662 
L 462.308203 178.359309 
L 460.057922 181.698229 
L 455.3631 186.179522 
L 452.613069 185.138978 
L 449.763716 186.114508 
L 447.058177 184.997357 
L 448.58437 184.338753 
L 451.303382 180.325407 
L 450.874443 179.239745 
L 452.142459 178.755975 
L 452.739965 179.595209 
L 456.313093 179.772706 
L 457.91793 179.324342 
L 456.787463 178.709603 
L 457.215775 177.805982 
L 455.098656 176.264592 
L 454.222293 173.729814 
L 452.013684 172.737992 
L 452.449202 170.683381 
L 449.709824 169.052068 
L 447.215778 168.825223 
L 442.747175 166.936202 
L 438.716909 167.535901 
L 437.270926 168.430123 
L 434.712962 168.429183 
L 433.188022 169.84634 
L 428.712212 170.428963 
L 426.642091 171.359844 
L 423.827203 169.878299 
L 419.940126 169.85574 
L 416.188717 169.18429 
L 413.571222 170.482698 
L 413.14855 168.857495 
z
" clip-path="url(#p7856a860a2)" style="fill: #e8edf4; stroke: #b8c5d4; stroke-width: 0.45"/>
    <path d="M 361.209728 139.56624 
L 362.900102 137.94793 
L 361.483572 134.862644 
L 365.626007 133.082033 
L 382.723695 128.226477 
L 388.77489 129.250728 
L 389.232027 130.729452 
L 402.546661 131.494586 
L 413.695925 131.403566 
L 416.805649 132.052143 
L 418.261658 133.920014 
L 418.524849 136.60221 
L 420.206763 138.908576 
L 420.171985 141.325545 
L 416.535878 142.563168 
L 418.406413 145.372417 
L 418.522029 148.071689 
L 421.571282 153.365114 
L 420.921138 155.065984 
L 417.912304 155.771586 
L 412.406603 160.81451 
L 413.970708 163.539161 
L 406.885236 160.854928 
L 402.520656 161.711865 
L 399.658142 161.089293 
L 396.075928 162.388798 
L 393.018215 160.23972 
L 390.525422 161.062661 
L 387.392825 157.711052 
L 382.885056 157.344778 
L 382.309796 155.446357 
L 378.151695 154.768328 
L 377.246507 156.334 
L 373.952862 155.07977 
L 374.331042 153.411642 
L 369.797894 152.884164 
L 366.924101 150.932165 
L 364.438828 147.060754 
L 364.911318 144.970424 
L 363.411131 141.727224 
z
" clip-path="url(#p7856a860a2)" style="fill: #e8edf4; stroke: #b8c5d4; stroke-width: 0.45"/>
    <path d="M 333.352236 175.208226 
L 334.27967 173.724018 
L 334.044992 172.648069 
L 335.875108 172.313754 
L 338.943161 173.997548 
L 339.806677 172.397411 
L 345.153837 172.655902 
L 349.488652 171.568673 
L 352.395343 171.754787 
L 354.286244 172.99617 
L 354.851477 171.965809 
L 353.992034 168.015284 
L 356.170251 167.245451 
L 358.30805 164.449989 
L 362.812685 166.401517 
L 366.223513 163.921101 
L 368.357551 163.46835 
L 373.063966 165.318675 
L 375.91144 165.003943 
L 378.706589 166.148823 
L 378.219686 166.918656 
L 378.824085 169.019639 
L 378.363814 171.497236 
L 374.949227 171.509142 
L 376.123559 172.823216 
L 374.110777 176.726586 
L 372.95493 177.749897 
L 367.652263 177.900918 
L 364.59267 179.27656 
L 350.914268 177.240905 
L 349.559776 175.131932 
L 343.567799 176.185792 
L 342.862823 177.339131 
L 336.095687 176.312217 
z
" clip-path="url(#p7856a860a2)" style="fill: #e8edf4; stroke: #b8c5d4; stroke-width: 0.45"/>
    <path d="M 374.110777 176.726586 
L 376.123559 172.823216 
L 374.949227 171.509142 
L 378.363814 171.497236 
L 378.824085 169.019639 
L 384.144299 171.233105 
L 389.233594 170.490218 
L 389.72175 169.272647 
L 398.586267 167.782329 
L 400.008124 166.355772 
L 401.995214 165.985895 
L 408.488507 167.828388 
L 409.782215 167.208166 
L 413.14855 168.857495 
L 413.571222 170.482698 
L 409.868065 171.754473 
L 406.998659 175.866516 
L 403.333101 179.978246 
L 398.471904 181.121872 
L 394.687596 180.853512 
L 387.775705 183.353041 
L 382.76756 182.187168 
L 376.308733 178.840415 
L 375.130641 176.793637 
z
" clip-path="url(#p7856a860a2)" style="fill: #e8edf4; stroke: #b8c5d4; stroke-width: 0.45"/>
    <path d="M 437.270926 168.430123 
L 438.716909 167.535901 
L 442.747175 166.936202 
L 447.215778 168.825223 
L 449.709824 169.052068 
L 452.449202 170.683381 
L 452.013684 172.737992 
L 454.222293 173.729814 
L 455.098656 176.264592 
L 457.215775 177.805982 
L 456.787463 178.709603 
L 457.91793 179.324342 
L 456.313093 179.772706 
L 452.739965 179.595209 
L 452.142459 178.755975 
L 450.874443 179.239745 
L 451.303382 180.325407 
L 448.58437 184.338753 
L 447.058177 184.997357 
L 445.972202 182.23072 
L 446.612319 179.641894 
L 446.418373 176.980691 
L 439.119215 169.021049 
z
" clip-path="url(#p7856a860a2)" style="fill: #e8edf4; stroke: #b8c5d4; stroke-width: 0.45"/>
    <path d="M 398.471904 181.121872 
L 403.333101 179.978246 
L 406.998659 175.866516 
L 409.868065 171.754473 
L 416.188717 169.18429 
L 419.940126 169.85574 
L 423.827203 169.878299 
L 426.642091 171.359844 
L 428.712212 170.428963 
L 433.188022 169.84634 
L 434.712962 168.429183 
L 437.270926 168.430123 
L 439.119215 169.021049 
L 446.418373 176.980691 
L 446.612319 179.641894 
L 445.972202 182.23072 
L 447.058177 184.997357 
L 449.763716 186.114508 
L 452.613069 185.138978 
L 455.3631 186.179522 
L 455.504095 187.743314 
L 452.563878 189.047988 
L 450.722169 188.480091 
L 449.025841 195.794759 
L 445.46086 195.158088 
L 441.048654 192.954022 
L 433.910857 194.363659 
L 430.904216 195.910061 
L 421.999907 195.591099 
L 417.341117 194.645492 
L 414.991826 195.08947 
L 412.137146 191.539841 
L 413.542083 190.51653 
L 412.046282 189.76158 
L 410.142849 191.120302 
L 406.607633 189.358804 
L 406.131696 186.859431 
L 402.437939 185.433345 
L 401.758029 183.504062 
z
" clip-path="url(#p7856a860a2)" style="fill: #e8edf4; stroke: #b8c5d4; stroke-width: 0.45"/>
    <path d="M 403.538327 121.074737 
L 410.482804 119.215012 
L 420.651368 119.603845 
L 426.607939 119.004459 
L 427.458296 120.265582 
L 430.684577 120.655042 
L 436.512999 123.596825 
L 437.082619 126.312704 
L 432.11176 128.254206 
L 430.704629 131.677096 
L 424.12204 133.961216 
L 418.261658 133.920014 
L 416.805649 132.052143 
L 413.695925 131.403566 
L 413.210588 129.856223 
L 413.857599 128.195928 
L 411.177439 127.233558 
L 404.827648 126.171395 
z
" clip-path="url(#p7856a860a2)" style="fill: #e8edf4; stroke: #b8c5d4; stroke-width: 0.45"/>
    <path d="M 403.538327 121.074737 
L 403.748253 116.510413 
L 406.727948 112.702763 
L 412.442322 110.632172 
L 417.257147 115.162187 
L 422.121476 115.044221 
L 423.286409 110.389348 
L 428.450588 109.317785 
L 436.326259 112.31158 
L 441.326258 112.32286 
L 444.247675 113.719024 
L 444.764657 116.659242 
L 446.713522 120.237696 
L 436.512999 123.596825 
L 430.684577 120.655042 
L 427.458296 120.265582 
L 426.607939 119.004459 
L 420.651368 119.603845 
L 410.482804 119.215012 
z
" clip-path="url(#p7856a860a2)" style="fill: #e8edf4; stroke: #b8c5d4; stroke-width: 0.45"/>
    <path d="M 417.386549 101.938417 
L 425.05292 100.249139 
L 432.692346 99.368547 
L 439.27055 100.370708 
L 445.527674 100.191421 
L 446.440619 101.249734 
L 442.126383 104.74366 
L 443.924327 110.398591 
L 441.326258 112.32286 
L 436.326259 112.31158 
L 428.450588 109.317785 
L 423.286409 110.389348 
L 423.990131 106.812146 
L 421.760529 107.576339 
L 417.912617 105.421621 
z
" clip-path="url(#p7856a860a2)" style="fill: #e8edf4; stroke: #b8c5d4; stroke-width: 0.45"/>
    <path d="M 312.183864 146.415467 
L 315.826236 146.41296 
L 317.363082 144.13072 
L 318.873923 138.579274 
L 317.740636 136.529206 
L 318.924681 135.245211 
L 323.992357 134.915596 
L 325.116871 136.252543 
L 329.233927 133.263447 
L 327.847789 130.990607 
L 327.569559 127.552207 
L 332.152212 128.351806 
L 336.031769 127.428758 
L 336.138925 129.771939 
L 342.265944 131.184867 
L 342.2014 133.336765 
L 348.366331 132.198151 
L 351.774965 130.537543 
L 358.620432 132.931639 
L 361.483572 134.862644 
L 362.900102 137.94793 
L 361.209728 139.56624 
L 363.411131 141.727224 
L 364.911318 144.970424 
L 364.438828 147.060754 
L 366.924101 150.932165 
L 364.218249 151.564763 
L 362.619365 150.867934 
L 361.098812 152.022057 
L 356.744884 153.19639 
L 354.493663 154.707073 
L 350.087411 156.027257 
L 351.148947 157.829331 
L 351.790631 160.386198 
L 354.884689 161.84346 
L 358.30805 164.449989 
L 356.170251 167.245451 
L 353.992034 168.015284 
L 354.851477 171.965809 
L 354.286244 172.99617 
L 352.395343 171.754787 
L 349.488652 171.568673 
L 345.153837 172.655902 
L 339.806677 172.397411 
L 338.943161 173.997548 
L 335.875108 172.313754 
L 334.044992 172.648069 
L 327.547626 170.79414 
L 326.302796 172.111348 
L 321.145823 172.068892 
L 321.915343 167.749274 
L 324.980889 163.597439 
L 316.243582 162.480758 
L 313.382322 160.893154 
L 313.72447 158.234927 
L 312.513792 156.865708 
L 313.202475 152.769018 
z
" clip-path="url(#p7856a860a2)" style="fill: #e8edf4; stroke: #b8c5d4; stroke-width: 0.45"/>
    <path d="M 411.570346 204.205584 
L 412.567651 203.350058 
L 411.9103 202.62879 
L 412.930165 200.699507 
L 415.241544 198.803907 
L 412.295687 196.186725 
L 411.751759 193.972163 
L 413.24756 192.596677 
L 414.991826 195.08947 
L 417.341117 194.645492 
L 421.999907 195.591099 
L 430.904216 195.910061 
L 433.910857 194.363659 
L 441.048654 192.954022 
L 445.46086 195.158088 
L 449.025841 195.794759 
L 445.879145 198.306664 
L 443.664896 202.643516 
L 445.622221 206.102751 
L 440.401957 205.289523 
L 434.225433 207.196873 
L 434.159322 210.216361 
L 428.648295 210.788801 
L 424.376457 208.670272 
L 419.522467 210.33652 
L 415.037571 210.161216 
L 414.607066 206.15163 
z
" clip-path="url(#p7856a860a2)" style="fill: #e8edf4; stroke: #b8c5d4; stroke-width: 0.45"/>
    <path d="M 398.046412 220.547383 
L 400.865687 217.606695 
L 401.229454 215.636211 
L 403.199939 214.757029 
L 403.321508 213.164098 
L 407.287542 212.62722 
L 409.598921 211.301866 
L 412.884733 211.419362 
L 413.88189 210.362476 
L 419.522467 210.33652 
L 424.376457 208.670272 
L 428.648295 210.788801 
L 434.159322 210.216361 
L 434.225433 207.196873 
L 437.179123 208.802337 
L 435.302008 212.596984 
L 433.861039 213.276894 
L 427.003039 212.5315 
L 419.660329 214.107511 
L 423.863235 217.515832 
L 420.782963 218.504051 
L 417.405975 218.510161 
L 414.198494 215.38759 
L 413.060507 216.718113 
L 414.415313 220.339337 
L 417.448587 223.184774 
L 415.163213 224.51326 
L 418.539888 227.307783 
L 421.541203 229.066148 
L 421.632067 232.491701 
L 416.023596 230.884984 
L 417.812041 233.977319 
L 413.961935 234.613834 
L 416.261408 239.964596 
L 412.234276 240.04042 
L 407.262476 237.403029 
L 404.988696 232.552486 
L 403.927786 228.51846 
L 398.456865 222.273945 
z
" clip-path="url(#p7856a860a2)" style="fill: #e8edf4; stroke: #b8c5d4; stroke-width: 0.45"/>
    <path d="M 418.448712 246.891841 
L 419.570406 244.314921 
L 422.885043 246.358096 
L 427.604304 246.012658 
L 432.11646 246.443006 
L 431.969825 247.498119 
L 435.274123 246.770585 
L 434.516196 248.559186 
L 425.785155 249.074601 
L 425.845939 248.074163 
z
" clip-path="url(#p7856a860a2)" style="fill: #e8edf4; stroke: #b8c5d4; stroke-width: 0.45"/>
    <path d="M 434.551288 221.525888 
L 441.276753 215.727075 
L 450.613759 215.484563 
L 453.160443 210.876688 
L 464.716399 211.679263 
L 472.004591 207.746441 
L 479.07001 206.032411 
L 489.101026 205.903478 
L 499.683802 210.177195 
L 508.381631 212.522257 
L 515.444857 211.587459 
L 520.664181 212.127627 
L 527.822657 208.962758 
L 534.282738 208.674658 
L 540.122753 211.651847 
L 541.152957 213.785729 
L 540.569551 216.736286 
L 545.077947 218.243367 
L 547.466716 220.013795 
L 543.314882 221.740984 
L 545.207662 228.694547 
L 544.021424 230.572288 
L 547.337495 235.429772 
L 544.431876 236.453976 
L 542.302537 234.90961 
L 535.250277 234.127244 
L 532.645942 235.069404 
L 525.74909 236.012348 
L 522.482078 235.909735 
L 515.505328 238.184769 
L 510.517236 238.203725 
L 507.290642 237.062135 
L 500.615309 238.748749 
L 498.631039 237.56956 
L 498.30299 240.951719 
L 495.055404 243.608379 
L 492.826115 240.858975 
L 495.122455 238.581591 
L 491.424624 239.097947 
L 486.353502 237.702879 
L 482.184121 241.192663 
L 472.981843 241.87414 
L 468.073335 238.619973 
L 461.53743 238.416314 
L 460.139699 240.931823 
L 455.949326 241.651054 
L 450.085811 238.42258 
L 443.466563 238.531773 
L 439.874635 232.501728 
L 435.445197 229.138055 
L 438.394814 224.42318 
z
" clip-path="url(#p7856a860a2)" style="fill: #e8edf4; stroke: #b8c5d4; stroke-width: 0.45"/>
    <path d="M 433.778635 214.528147 
L 433.861039 213.276894 
L 435.302008 212.596984 
L 437.179123 208.802337 
L 434.225433 207.196873 
L 440.401957 205.289523 
L 445.622221 206.102751 
L 446.342549 208.43387 
L 451.63519 210.391978 
L 450.531669 211.877283 
L 443.332147 212.211598 
L 435.686455 217.352121 
z
" clip-path="url(#p7856a860a2)" style="fill: #e8edf4; stroke: #b8c5d4; stroke-width: 0.45"/>
    <path d="M 392.919832 204.960535 
L 395.548606 201.974416 
L 395.933993 203.115223 
L 397.565507 202.578412 
L 398.857291 204.205584 
L 400.307571 204.826388 
L 400.715605 207.024076 
L 399.945146 209.08746 
L 400.806156 211.687723 
L 403.321508 213.164098 
L 403.199939 214.757029 
L 401.229454 215.636211 
L 400.865687 217.606695 
L 398.046412 220.547383 
L 397.015582 220.122987 
L 396.894326 218.789017 
L 393.535823 216.753205 
L 393.008189 213.864373 
L 393.520471 209.727265 
L 394.347955 207.845137 
L 393.327777 206.889817 
z
" clip-path="url(#p7856a860a2)" style="fill: #e8edf4; stroke: #b8c5d4; stroke-width: 0.45"/>
    <path d="M 358.678083 187.127635 
L 359.030258 184.924353 
L 363.255723 185.131459 
L 364.366138 184.108148 
L 366.428425 185.097933 
L 368.807795 185.215429 
L 368.785236 183.520982 
L 370.892642 182.90029 
L 371.482002 180.451049 
L 376.308733 178.840415 
L 382.76756 182.187168 
L 387.775705 183.353041 
L 390.041885 182.447258 
L 391.514894 184.79589 
L 393.4412 186.523863 
L 391.106938 188.805315 
L 388.364751 187.463204 
L 384.172498 187.547174 
L 378.96038 186.540469 
L 376.127633 186.674885 
L 374.813245 187.932874 
L 372.637848 186.540469 
L 371.368579 189.057075 
L 375.651696 193.77101 
L 380.750391 197.377977 
L 383.039524 199.911031 
L 388.405895 202.206316 
L 387.739046 203.237105 
L 382.039399 200.993717 
L 378.522982 198.810957 
L 372.97749 197.008883 
L 367.878795 192.546546 
L 369.102318 192.093482 
L 366.337875 189.543508 
L 366.224453 187.496729 
L 362.326722 186.540469 
L 360.468407 189.157651 
z
" clip-path="url(#p7856a860a2)" style="fill: #e8edf4; stroke: #b8c5d4; stroke-width: 0.45"/>
    <path d="M 312.389716 180.239556 
L 312.479327 177.494226 
L 316.913465 174.087158 
L 316.718578 172.546552 
L 319.481142 173.10458 
L 321.145823 172.068892 
L 326.302796 172.111348 
L 327.547626 170.79414 
L 334.044992 172.648069 
L 334.27967 173.724018 
L 333.352236 175.208226 
L 336.095687 176.312217 
L 339.189432 176.477025 
L 338.708482 178.962768 
L 336.037409 179.985452 
L 331.550946 179.225645 
L 330.237812 181.670813 
L 327.349606 181.863506 
L 326.298723 180.902547 
L 322.899489 182.958881 
L 319.976191 183.247138 
L 317.367469 181.948417 
L 315.284815 179.289563 
z
" clip-path="url(#p7856a860a2)" style="fill: #e8edf4; stroke: #b8c5d4; stroke-width: 0.45"/>
    <path d="M 310.276357 160.494921 
L 310.933394 157.094433 
L 312.513792 156.865708 
L 313.72447 158.234927 
L 313.382322 160.893154 
L 311.63273 161.021302 
z
" clip-path="url(#p7856a860a2)" style="fill: #e8edf4; stroke: #b8c5d4; stroke-width: 0.45"/>
    <path d="M 291.113874 150.678531 
L 295.972878 149.482423 
L 300.411716 149.958516 
L 306.031779 148.698804 
L 309.869665 151.352801 
L 313.202475 152.769018 
L 312.513792 156.865708 
L 310.933394 157.094433 
L 310.276357 160.494921 
L 304.972123 157.730791 
L 301.860518 158.202968 
L 294.810452 152.91064 
L 291.992117 152.81069 
z
" clip-path="url(#p7856a860a2)" style="fill: #e8edf4; stroke: #b8c5d4; stroke-width: 0.45"/>
    <path d="M 295.972878 149.48258 
L 299.097328 147.816488 
L 304.406889 138.896043 
L 312.702412 136.357975 
L 317.740636 136.529206 
L 318.873923 138.579274 
L 317.363082 144.13072 
L 315.826236 146.41296 
L 312.183864 146.415467 
L 313.202475 152.769018 
L 309.869665 151.352801 
L 306.031779 148.698804 
L 300.411716 149.958516 
z
" clip-path="url(#p7856a860a2)" style="fill: #e8edf4; stroke: #b8c5d4; stroke-width: 0.45"/>
    <path d="M 218.112582 225.928851 
L 218.595099 221.959683 
L 221.012381 219.758594 
L 222.707768 213.66181 
L 222.573353 211.09288 
L 221.361109 208.915446 
L 221.094158 206.871488 
L 223.294308 205.330725 
L 225.768615 204.446843 
L 227.288541 207.415259 
L 230.869816 207.408052 
L 231.907853 206.642449 
L 235.440876 206.854412 
L 237.135637 209.895519 
L 234.334221 211.537015 
L 234.256047 216.267556 
L 233.271432 217.154885 
L 233.027824 220.020531 
L 230.408292 220.519654 
L 232.837167 224.154506 
L 231.163399 228.138087 
L 233.254043 229.940631 
L 232.422015 231.589019 
L 230.175024 233.862643 
L 230.680569 235.870256 
L 228.243861 237.443761 
L 225.047346 236.591211 
L 221.918509 237.258588 
L 222.84469 232.513947 
L 222.275383 228.785724 
L 219.562325 228.226444 
z
" clip-path="url(#p7856a860a2)" style="fill: #e8edf4; stroke: #b8c5d4; stroke-width: 0.45"/>
    <path d="M 218.923147 199.922781 
L 227.500661 195.546921 
L 234.920134 196.640886 
L 243.060563 196.602504 
L 249.512027 197.638034 
L 264.345491 197.520695 
L 266.762147 199.877976 
L 277.923316 202.633489 
L 280.127539 201.322705 
L 286.94982 204.065373 
L 293.978267 203.279404 
L 294.302556 206.80146 
L 288.556851 210.839716 
L 280.788022 212.121204 
L 280.247228 214.160933 
L 276.520572 217.522255 
L 274.183814 222.457396 
L 276.548457 225.922271 
L 273.04144 228.62734 
L 271.730186 232.568465 
L 267.152546 233.776793 
L 262.859403 238.438873 
L 249.384348 238.416471 
L 245.586881 240.557559 
L 243.271115 242.848572 
L 240.304579 242.345533 
L 238.059624 240.297031 
L 236.340738 236.809283 
L 230.680569 235.870256 
L 230.175024 233.862643 
L 232.422015 231.589019 
L 233.254043 229.940631 
L 231.163399 228.138087 
L 232.837167 224.154506 
L 230.408292 220.519654 
L 233.027824 220.020531 
L 233.271432 217.154885 
L 234.256047 216.267556 
L 234.334221 211.537015 
L 237.135637 209.895519 
L 235.440876 206.854412 
L 231.907853 206.642449 
L 230.869816 207.408052 
L 227.288541 207.415259 
L 225.768615 204.446843 
L 223.294308 205.330725 
L 221.094158 206.871488 
L 221.399647 202.553279 
z
" clip-path="url(#p7856a860a2)" style="fill: #e8edf4; stroke: #b8c5d4; stroke-width: 0.45"/>
    <path d="M 215.381038 146.6044 
L 220.297066 140.273408 
L 217.13063 134.108791 
L 229.962434 126.528269 
L 231.212277 129.776796 
L 229.962434 133.025949 
L 233.71212 132.942605 
L 238.294929 134.192448 
L 239.294741 138.523973 
L 234.711775 143.938654 
L 223.963251 147.520868 
z
" clip-path="url(#p7856a860a2)" style="fill: #e8edf4; stroke: #b8c5d4; stroke-width: 0.45"/>
    <path d="M 316.799729 187.784986 
L 318.901809 185.938264 
L 317.117438 183.661663 
L 317.367469 181.948417 
L 319.976191 183.247138 
L 322.899489 182.958881 
L 326.298723 180.902547 
L 327.349606 181.863506 
L 330.237812 181.670813 
L 331.550946 179.225645 
L 336.037409 179.985452 
L 338.708482 178.962768 
L 339.189432 176.477025 
L 342.862823 177.339131 
L 343.567799 176.185792 
L 349.559776 175.131932 
L 350.914268 177.240905 
L 359.584525 178.806733 
L 358.927488 181.793009 
L 360.379737 184.374472 
L 355.553319 183.491216 
L 350.623818 185.643114 
L 350.959073 188.652889 
L 350.216813 190.380235 
L 352.204216 193.467087 
L 357.889451 196.520727 
L 360.938704 201.533258 
L 367.685475 206.419364 
L 372.436695 206.381922 
L 373.914323 207.722001 
L 372.213296 208.929859 
L 382.09517 212.955425 
L 387.294442 216.117474 
L 387.92234 217.249821 
L 386.789366 219.420989 
L 383.424284 216.590121 
L 378.156708 215.592346 
L 375.605011 219.514202 
L 379.987138 221.76182 
L 379.267749 224.925749 
L 376.734851 225.285287 
L 373.496351 230.485498 
L 370.96878 230.952662 
L 370.992279 229.09889 
L 372.229276 225.846917 
L 373.54711 224.551799 
L 369.328851 217.980489 
L 366.811932 217.225069 
L 365.021921 214.6082 
L 361.125758 213.505932 
L 358.502309 211.068911 
L 354.01616 210.676005 
L 343.73198 203.992369 
L 339.609284 200.499764 
L 337.71807 194.506064 
L 334.701402 193.801089 
L 329.768768 191.799899 
L 326.977379 192.61908 
L 323.474122 195.432871 
L 320.954383 195.877319 
L 321.648079 193.245568 
L 318.361641 192.476362 
z
" clip-path="url(#p7856a860a2)" style="fill: #e8edf4; stroke: #b8c5d4; stroke-width: 0.45"/>
    <path d="M 351.244823 232.746746 
L 352.0933 229.633731 
L 359.188485 230.187999 
L 369.976175 228.99847 
L 367.792631 233.77084 
L 368.700013 235.649364 
L 367.427297 238.767235 
L 362.790439 236.483585 
L 359.707347 235.829368 
z
" clip-path="url(#p7856a860a2)" style="fill: #e8edf4; stroke: #b8c5d4; stroke-width: 0.45"/>
    <path d="M 325.349043 212.51364 
L 328.683733 212.816936 
L 331.71544 210.937316 
L 335.353113 215.242052 
L 334.501503 223.261381 
L 331.744579 222.878814 
L 329.271526 224.903033 
L 326.975813 223.294906 
L 326.732988 215.979926 
z
" clip-path="url(#p7856a860a2)" style="fill: #e8edf4; stroke: #b8c5d4; stroke-width: 0.45"/>
    <path d="M 324.924491 117.988982 
L 327.673895 114.533036 
L 333.015728 114.156736 
L 335.14444 112.484064 
L 340.021929 110.773794 
L 339.81639 113.891978 
L 338.021053 115.866849 
L 338.748587 117.564743 
L 342.035966 118.482464 
L 340.554264 120.769718 
L 338.748587 120.111114 
L 334.383067 124.476635 
L 336.031769 127.428758 
L 332.152212 128.351806 
L 327.569559 127.552207 
L 325.108411 124.187281 
z
" clip-path="url(#p7856a860a2)" style="fill: #e8edf4; stroke: #b8c5d4; stroke-width: 0.45"/>
    <path d="M 341.985834 122.597327 
L 350.880429 120.587677 
L 352.815195 123.627844 
L 349.177209 128.538859 
L 342.832431 125.114089 
z
" clip-path="url(#p7856a860a2)" style="fill: #e8edf4; stroke: #b8c5d4; stroke-width: 0.45"/>
    <path d="M 238.585379 116.50352 
L 240.787252 110.235193 
L 245.497271 105.316972 
L 250.338728 105.796982 
L 257.653865 105.286736 
L 251.173419 111.846923 
L 257.350726 111.016306 
L 263.994257 111.047951 
L 262.413545 115.988105 
L 256.962676 121.422055 
L 263.231943 121.808851 
L 269.113318 129.600082 
L 273.263586 130.573888 
L 278.723228 139.877056 
L 286.069071 141.031962 
L 285.332137 144.909483 
L 282.243405 146.687431 
L 284.664447 149.824101 
L 279.210444 152.99931 
L 271.098841 152.943225 
L 260.776436 154.610413 
L 257.949328 153.416812 
L 253.940525 156.257549 
L 248.331742 155.569493 
L 244.072281 157.884632 
L 240.849447 156.673955 
L 249.741536 150.305677 
L 255.168906 148.99599 
L 245.652679 147.980669 
L 243.937239 145.56793 
L 250.27293 143.688622 
L 246.95234 140.422707 
L 248.104426 136.451346 
L 257.1153 136.999797 
L 258.017633 133.480423 
L 253.864388 129.660553 
L 246.502722 128.593691 
L 245.057523 126.952821 
L 247.260962 124.243366 
L 245.266979 122.572888 
L 242.002473 125.439788 
L 241.647166 119.595699 
z
" clip-path="url(#p7856a860a2)" style="fill: #e8edf4; stroke: #b8c5d4; stroke-width: 0.45"/>
    <path d="M 229.962434 133.025949 
L 231.212277 129.776796 
L 229.962434 126.528269 
L 235.045307 126.278238 
L 241.544396 130.026827 
L 238.294929 134.192448 
L 233.71212 132.942605 
z
" clip-path="url(#p7856a860a2)" style="fill: #e8edf4; stroke: #b8c5d4; stroke-width: 0.45"/>
    <path d="M 128.380189 62.989 
L 132.476879 59.039885 
L 141.666154 58.142843 
L 151.116427 62.255825 
L 160.329045 58.954504 
L 167.957818 60.668848 
L 177.845645 57.437554 
L 187.905173 57.867432 
L 186.504935 61.791168 
L 193.355729 65.92671 
L 185.473008 70.550408 
L 162.75792 75.811404 
L 137.858191 72.999336 
L 143.827295 70.319803 
L 130.630471 67.354834 
L 141.366148 66.179561 
L 141.105307 64.399264 
z
" clip-path="url(#p7856a860a2)" style="fill: #e8edf4; stroke: #b8c5d4; stroke-width: 0.45"/>
    <path d="M 548.548932 210.706084 
L 550.03408 209.715828 
L 554.552189 211.459467 
L 557.820454 211.819788 
L 558.646685 211.109016 
L 555.660723 207.828061 
L 557.234228 206.992117 
L 558.938702 207.195463 
L 563.105576 210.878254 
L 565.787615 211.292466 
L 566.828159 209.74998 
L 570.44829 207.306227 
L 573.636967 210.498978 
L 576.720999 214.799954 
L 579.545914 215.08351 
L 581.413315 216.718113 
L 576.419583 217.205956 
L 575.36494 221.914721 
L 574.32189 224.03842 
L 572.098554 225.455577 
L 572.260542 228.458302 
L 570.751582 228.760658 
L 566.970407 225.585763 
L 569.060894 222.586015 
L 567.26963 220.806657 
L 564.99585 221.254551 
L 557.845207 225.727698 
L 557.710478 221.522598 
L 554.988333 220.529053 
L 552.41439 218.880038 
L 554.123564 216.949032 
L 550.893523 214.869198 
L 552.113287 213.348644 
L 549.804101 212.299328 
z
" clip-path="url(#p7856a860a2)" style="fill: #e8edf4; stroke: #b8c5d4; stroke-width: 0.45"/>
    <path d="M 547.466716 220.013795 
L 548.727839 219.850084 
L 550.52349 221.47654 
L 553.202396 221.462911 
L 553.17451 222.398334 
L 555.649757 225.905978 
L 551.491029 225.099957 
L 548.428929 222.301048 
z
" clip-path="url(#p7856a860a2)" style="fill: #e8edf4; stroke: #b8c5d4; stroke-width: 0.45"/>
    <path d="M 518.12721 197.446751 
L 518.866651 196.730653 
L 532.917625 198.748497 
L 541.17316 201.655599 
L 542.235547 202.782558 
L 545.912324 201.830444 
L 551.567166 203.09893 
L 553.423225 205.58689 
L 557.234228 206.992117 
L 555.660723 207.828061 
L 558.646685 211.109016 
L 557.820454 211.819788 
L 554.552189 211.459467 
L 550.03408 209.715828 
L 548.548932 210.706084 
L 540.122753 211.651847 
L 534.282738 208.674658 
L 527.822657 208.962758 
L 528.726592 206.372052 
L 527.212619 202.235883 
L 523.708108 200.001582 
L 520.348666 199.304283 
z
" clip-path="url(#p7856a860a2)" style="fill: #e8edf4; stroke: #b8c5d4; stroke-width: 0.45"/>
    <path d="M 358.927488 181.793009 
L 359.584525 178.806733 
L 364.59267 179.27656 
L 367.652263 177.900918 
L 372.95493 177.749897 
L 374.110777 176.726586 
L 375.130641 176.793637 
L 376.308733 178.840415 
L 371.482002 180.451049 
L 370.892642 182.90029 
L 368.785236 183.520982 
L 368.807795 185.215429 
L 366.428425 185.097933 
L 364.366138 184.108148 
L 363.255723 185.131459 
L 359.030258 184.924353 
L 360.379737 184.374472 
z
" clip-path="url(#p7856a860a2)" style="fill: #e8edf4; stroke: #b8c5d4; stroke-width: 0.45"/>
    <path d="M 401.051174 41.797911 
L 404.685087 40.196051 
L 411.423084 43.401652 
L 419.340427 43.101489 
L 425.850013 44.566898 
L 431.631437 41.883605 
L 434.604866 37.438187 
L 444.01895 35.383419 
L 451.799684 37.794748 
L 449.231068 42.049353 
L 448.345932 46.294557 
L 457.631554 50.334536 
L 452.036243 54.906223 
L 459.088067 61.807953 
L 455.006226 67.005949 
L 460.464615 71.518261 
L 457.985921 75.469256 
L 466.960727 79.623284 
L 464.680367 82.715463 
L 446.066512 93.957626 
L 435.062943 94.439986 
L 424.400583 96.663008 
L 414.536255 97.94199 
L 411.026105 94.634246 
L 405.153817 92.644022 
L 406.50361 86.670844 
L 403.559006 81.201489 
L 406.450031 77.670659 
L 411.947586 73.862539 
L 425.81868 67.286843 
L 429.866179 66.01914 
L 429.235461 63.45491 
L 420.803642 60.589577 
L 418.757334 58.23026 
L 418.597226 48.893253 
z
" clip-path="url(#p7856a860a2)" style="fill: #e8edf4; stroke: #b8c5d4; stroke-width: 0.45"/>
    <path d="M 378.219686 166.918656 
L 379.565719 164.81501 
L 382.251832 164.917779 
L 384.322266 164.290508 
L 384.486133 163.726528 
L 385.646993 163.438584 
L 386.044286 162.059026 
L 387.43575 161.795365 
L 388.375404 160.703907 
L 390.183274 160.696544 
L 390.525422 161.062661 
L 393.018215 160.23972 
L 396.075928 162.388798 
L 399.658142 161.089293 
L 402.520656 161.711865 
L 406.885236 160.854928 
L 412.647235 163.18542 
L 410.965947 164.763938 
L 409.782215 167.208166 
L 408.488507 167.828388 
L 401.995214 165.985895 
L 400.008124 166.355772 
L 398.586267 167.782329 
L 389.72175 169.272647 
L 389.233594 170.490218 
L 384.144299 171.233105 
L 378.824085 169.019639 
z
" clip-path="url(#p7856a860a2)" style="fill: #e8edf4; stroke: #b8c5d4; stroke-width: 0.45"/>
    <path d="M 350.087411 156.027257 
L 354.493663 154.707073 
L 356.744884 153.19639 
L 361.098812 152.022057 
L 362.619365 150.867934 
L 364.218249 151.564763 
L 366.924101 150.932165 
L 369.797894 152.884164 
L 374.331042 153.411642 
L 373.952862 155.07977 
L 377.246507 156.334 
L 378.151695 154.768328 
L 382.309796 155.446357 
L 382.885056 157.344778 
L 387.392825 157.711052 
L 390.183274 160.696544 
L 388.375404 160.703907 
L 387.43575 161.795365 
L 386.044286 162.059026 
L 385.646993 163.438584 
L 384.486133 163.726528 
L 384.322266 164.290508 
L 382.251832 164.917779 
L 379.565719 164.81501 
L 378.706589 166.148823 
L 375.91144 165.003943 
L 373.063966 165.318675 
L 368.357551 163.46835 
L 366.223513 163.921101 
L 362.812685 166.401517 
L 358.30805 164.449989 
L 354.884689 161.84346 
L 351.790631 160.386198 
L 351.148947 157.829331 
z
" clip-path="url(#p7856a860a2)" style="fill: #e8edf4; stroke: #b8c5d4; stroke-width: 0.45"/>
    <path d="M 496.107102 370.928903 
L 498.718323 362.01988 
L 499.316392 357.98976 
L 501.225923 356.130856 
L 505.691621 355.134073 
L 508.760124 351.67342 
L 512.279988 358.692625 
L 513.950309 364.258013 
L 517.274033 367.211233 
L 525.55013 372.938296 
L 534.101011 381.976393 
L 537.08196 383.800086 
L 535.253411 385.280848 
L 532.65788 384.754479 
L 530.585432 382.792502 
L 528.092322 379.237854 
L 525.40416 377.290125 
L 523.836227 375.196456 
L 518.559158 372.765433 
L 514.402014 372.692918 
L 512.93952 371.425172 
L 509.383781 372.851045 
L 505.704172 370.098614 
L 503.810648 374.623731 
L 496.751555 373.35647 
z
" clip-path="url(#p7856a860a2)" style="fill: #e8edf4; stroke: #b8c5d4; stroke-width: 0.45"/>
    <path d="M 534.193754 368.559146 
L 535.407252 368.26431 
L 534.785307 365.493913 
L 535.520361 364.324594 
L 535.251531 361.680154 
L 537.913517 359.746015 
L 537.291573 357.190087 
L 538.89829 354.209765 
L 541.388576 355.786246 
L 543.032265 355.238246 
L 550.02938 355.098974 
L 551.141048 355.705253 
L 557.002056 356.311688 
L 559.326281 356.008392 
L 560.842135 358.029478 
L 563.671749 357.018857 
L 568.016904 350.652616 
L 573.675819 347.924205 
L 591.157954 345.59998 
L 597.879346 359.842048 
L 593.493459 361.470854 
L 592.32038 364.162763 
L 592.177505 366.230378 
L 586.140723 368.790065 
L 576.452169 371.618426 
L 571.023545 375.896373 
L 568.354039 376.230531 
L 566.534889 375.871934 
L 562.991213 378.388225 
L 559.126695 379.555508 
L 552.505567 380.214895 
L 551.180213 381.815816 
L 549.591042 382.258227 
L 548.652328 383.800399 
L 545.651327 383.666611 
L 543.714368 384.489395 
L 539.517728 384.181086 
L 537.940777 380.63929 
L 538.114044 377.324966 
L 537.122692 375.536052 
L 535.93614 371.051626 
z
" clip-path="url(#p7856a860a2)" style="fill: #e8edf4; stroke: #b8c5d4; stroke-width: 0.45"/>
    <path d="M 485.855006 290.676605 
L 487.817657 282.806574 
L 494.565368 283.77098 
L 497.186309 281.904989 
L 498.637305 279.722072 
L 503.263823 278.882368 
L 504.261442 276.851882 
L 506.266705 275.822148 
L 500.223656 269.759517 
L 512.366465 266.717 
L 513.521998 265.802725 
L 520.825229 267.445945 
L 529.859253 271.690053 
L 546.954434 283.883776 
L 563.630078 284.953145 
L 565.139978 287.841978 
L 569.428108 287.68469 
L 571.801838 292.913413 
L 574.784667 294.298298 
L 575.823644 296.427794 
L 579.95574 298.976358 
L 580.32264 301.478237 
L 579.718554 303.4976 
L 580.485881 305.534352 
L 582.229207 307.233499 
L 583.943393 310.708087 
L 585.776329 311.911089 
L 587.45699 311.48027 
L 591.162341 321.340369 
L 609.388616 324.397455 
L 610.610573 323.11581 
L 613.389429 327.410519 
L 609.347258 339.536878 
L 591.157954 345.59998 
L 573.675819 347.924205 
L 568.016904 350.652616 
L 563.671749 357.018857 
L 560.842135 358.029478 
L 559.326281 356.008392 
L 557.002056 356.311688 
L 551.141048 355.705253 
L 550.02938 355.098974 
L 543.032265 355.238246 
L 541.388576 355.786246 
L 538.89829 354.209765 
L 537.291573 357.190087 
L 537.913517 359.746015 
L 535.251531 361.680154 
L 534.464778 359.092737 
L 532.636229 357.266695 
L 532.168752 354.848003 
L 529.037095 352.675425 
L 525.805488 347.591143 
L 524.095374 342.650363 
L 519.901554 338.478006 
L 517.197582 337.482267 
L 513.182043 331.703819 
L 512.480514 327.490103 
L 512.739005 323.895982 
L 509.26144 317.173181 
L 506.418353 314.807127 
L 503.142881 313.553211 
L 501.149211 310.079093 
L 501.480706 308.708464 
L 499.795971 305.565214 
L 498.025387 304.211505 
L 495.657923 299.701073 
L 488.873554 290.647466 
z
" clip-path="url(#p7856a860a2)" style="fill: #e8edf4; stroke: #b8c5d4; stroke-width: 0.45"/>
    <path d="M 474.331636 247.740474 
L 475.63631 246.24483 
L 480.003397 246.326607 
L 485.516304 244.517484 
L 481.419615 247.099417 
L 481.861086 248.23474 
L 478.842851 248.587385 
L 478.285138 247.602926 
L 475.470249 248.05693 
z
" clip-path="url(#p7856a860a2)" style="fill: #e8edf4; stroke: #b8c5d4; stroke-width: 0.45"/>
    <path d="M 471.45095 247.96356 
L 475.470249 248.05693 
L 478.285138 247.602926 
L 478.842851 248.587385 
L 481.211255 248.021994 
L 482.050646 248.72227 
L 475.835583 251.185297 
L 472.86748 250.398388 
z
" clip-path="url(#p7856a860a2)" style="fill: #e8edf4; stroke: #b8c5d4; stroke-width: 0.45"/>
    <path d="M 172.676139 330.91315 
L 172.962203 328.103275 
L 175.291128 326.451126 
L 177.275085 323.291584 
L 176.884059 321.239635 
L 178.968592 316.961532 
L 182.343388 313.106727 
L 184.384683 312.129788 
L 185.98952 308.593318 
L 186.133335 305.363278 
L 188.322048 301.615316 
L 192.36093 299.405453 
L 196.204142 293.21342 
L 199.363685 290.800054 
L 205.001921 290.130327 
L 209.779461 285.986169 
L 212.819314 284.370679 
L 217.880724 279.308016 
L 216.365497 271.764467 
L 218.669043 266.547963 
L 219.482115 263.355208 
L 223.382038 259.259144 
L 233.961838 253.982796 
L 239.919193 243.981546 
L 244.38247 244.010685 
L 248.037689 246.584315 
L 253.803447 246.165089 
L 260.083367 247.503603 
L 262.717155 247.56846 
L 265.002528 251.451778 
L 265.363476 255.139425 
L 267.457722 261.540288 
L 269.055353 262.82867 
L 267.943685 265.18501 
L 260.008796 266.206911 
L 257.265972 268.44936 
L 253.758328 268.978091 
L 253.497957 273.466904 
L 246.408882 275.866483 
L 244.089827 278.902577 
L 239.127114 280.53201 
L 233.072472 281.456468 
L 223.281148 285.930711 
L 223.332846 293.114723 
L 222.409799 293.114723 
L 222.548914 296.362936 
L 218.800952 296.558293 
L 216.84676 297.937851 
L 214.093596 297.937851 
L 211.899713 297.150472 
L 206.798825 297.801556 
L 204.824267 302.52677 
L 202.929294 302.970748 
L 200.078374 310.614874 
L 191.649689 317.157672 
L 189.648499 325.529959 
L 187.164635 328.25367 
L 186.436318 330.438467 
z
" clip-path="url(#p7856a860a2)" style="fill: #e8edf4; stroke: #b8c5d4; stroke-width: 0.45"/>
    <path d="M 425.634109 278.637332 
L 427.195675 274.893878 
L 426.257401 272.300726 
L 428.451961 269.391259 
L 436.519053 269.291035 
L 451.180982 273.630013 
L 455.848947 271.709144 
L 458.344603 269.971806 
L 463.691702 269.471838 
L 468.002789 270.237373 
L 469.654696 273.244699 
L 471.061713 271.263623 
L 475.921031 272.696165 
L 480.647141 273.0394 
L 483.630457 271.512091 
L 487.614922 281.928778 
L 485.912024 284.365622 
L 484.607293 288.945913 
L 482.957871 292.102939 
L 481.544246 293.161566 
L 476.787092 288.499301 
L 472.460847 279.808189 
L 471.837736 280.357814 
L 474.350067 286.755658 
L 478.072482 292.851193 
L 482.654956 302.295289 
L 486.841688 309.016421 
L 492.282402 315.728579 
L 491.077713 316.78563 
L 491.27331 320.726259 
L 499.399458 327.410526 
L 427.452632 327.410526 
L 427.452632 283.521421 
z
" clip-path="url(#p7856a860a2)" style="fill: #e8edf4; stroke: #b8c5d4; stroke-width: 0.45"/>
    <path d="M 332.378744 302.585988 
L 334.785059 300.052307 
L 334.256171 296.240114 
L 335.026631 292.921716 
L 334.588606 290.15743 
L 335.656409 285.21101 
L 335.326794 282.393772 
L 333.365396 277.040502 
L 336.323472 275.635251 
L 336.848287 273.073528 
L 336.20347 270.561936 
L 340.366897 268.225491 
L 342.233672 266.282892 
L 345.189242 264.54223 
L 345.532017 259.885163 
L 352.653332 261.972197 
L 355.199555 261.450523 
L 360.264839 262.462221 
L 368.310346 265.171725 
L 371.149784 270.560781 
L 385.138398 274.275618 
L 391.597602 277.290099 
L 394.554179 275.717133 
L 397.460312 272.928445 
L 396.047475 268.283884 
L 397.949123 265.334703 
L 402.317932 262.493507 
L 406.492173 261.666493 
L 414.694292 262.907136 
L 416.762072 265.617913 
L 419.019567 265.64356 
L 420.949895 266.677875 
L 426.974491 267.389144 
L 428.451961 269.391259 
L 426.257401 272.300726 
L 427.195675 274.893878 
L 425.634109 278.637332 
L 427.452632 283.521421 
L 427.452632 339.51841 
L 420.48 339.536842 
L 420.405181 342.080519 
L 372.040522 318.863171 
L 361.630207 324.431764 
L 358.220006 321.101774 
L 348.628582 318.487568 
L 345.967848 314.690571 
L 341.182162 311.87349 
L 338.347535 312.984374 
L 336.191564 309.603313 
L 335.963778 307.005244 
z
" clip-path="url(#p7856a860a2)" style="fill: #e8edf4; stroke: #b8c5d4; stroke-width: 0.45"/>
    <path d="M 371.368579 189.057075 
L 372.637848 186.540469 
L 374.813245 187.932874 
L 376.127633 186.674885 
L 378.96038 186.540469 
L 384.172498 187.547174 
L 388.364751 187.463204 
L 391.10691 188.805342 
L 393.305108 188.788547 
L 391.786772 191.455912 
L 394.710124 193.787803 
L 393.826358 196.639731 
L 391.265583 197.461713 
L 389.294026 198.870912 
L 388.405895 202.206316 
L 383.039524 199.911031 
L 380.750391 197.377977 
L 375.651696 193.77101 
z
" clip-path="url(#p7856a860a2)" style="fill: #e8edf4; stroke: #b8c5d4; stroke-width: 0.45"/>
    <path d="M 399.945146 209.08746 
L 400.7156 207.024047 
L 401.486006 207.074365 
L 401.757939 205.832933 
L 408.760401 204.306351 
L 411.570346 204.205584 
L 414.607066 206.15163 
L 415.037571 210.161216 
L 413.88189 210.362476 
L 412.884733 211.419362 
L 409.598921 211.301866 
L 407.287542 212.62722 
L 403.321508 213.164098 
L 400.806156 211.687723 
z
" clip-path="url(#p7856a860a2)" style="fill: #e8edf4; stroke: #b8c5d4; stroke-width: 0.45"/>
    <path d="M 390.041885 182.447258 
L 394.687596 180.853512 
L 398.471904 181.121872 
L 401.758029 183.504062 
L 402.437939 185.433345 
L 406.131696 186.859431 
L 406.607633 189.358804 
L 410.142849 191.120302 
L 412.046282 189.76158 
L 413.542083 190.51653 
L 412.137146 191.539841 
L 413.24756 192.596677 
L 411.751759 193.972163 
L 412.295687 196.186725 
L 415.241544 198.803907 
L 412.930165 200.699507 
L 411.9103 202.62879 
L 412.567651 203.350058 
L 411.570346 204.205584 
L 406.696235 204.660534 
L 406.494235 204.205642 
L 407.899251 202.008051 
L 407.0381 202.04158 
L 402.075163 198.434728 
L 400.987432 198.770264 
L 400.148958 200.783353 
L 398.69859 201.219537 
L 399.197103 200.6995 
L 394.893474 198.788029 
L 392.398605 196.908086 
L 393.826358 196.639731 
L 394.710124 193.787803 
L 391.786772 191.455912 
L 393.305108 188.788547 
L 391.10691 188.805342 
L 393.4412 186.523863 
L 391.514894 184.79589 
z
" clip-path="url(#p7856a860a2)" style="fill: #e8edf4; stroke: #b8c5d4; stroke-width: 0.45"/>
    <path d="M 387.73905 203.2371 
L 389.294026 198.870912 
L 392.398605 196.908086 
L 394.893474 198.788029 
L 399.197103 200.6995 
L 397.565507 202.578412 
L 395.933993 203.115223 
L 395.548606 201.974416 
L 392.919832 204.960535 
L 393.327773 206.889798 
L 392.058705 206.420089 
L 390.35908 204.440529 
z
" clip-path="url(#p7856a860a2)" style="fill: #e8edf4; stroke: #b8c5d4; stroke-width: 0.45"/>
    <path d="M 397.565507 202.578412 
L 398.69859 201.219537 
L 400.148958 200.783353 
L 400.987432 198.770264 
L 402.075163 198.434728 
L 407.0381 202.04158 
L 407.899251 202.008051 
L 406.494235 204.205642 
L 406.696235 204.660534 
L 401.757939 205.832933 
L 401.486006 207.074365 
L 400.7156 207.024047 
L 400.307571 204.826388 
L 398.857291 204.205584 
z
" clip-path="url(#p7856a860a2)" style="fill: #e8edf4; stroke: #b8c5d4; stroke-width: 0.45"/>
   </g>
   <g id="PathCollection_1">
    <defs>
     <path id="mf46dfd4d76" d="M 0 2.12132 
C 0.562581 2.12132 1.102195 1.897805 1.5 1.5 
C 1.897805 1.102195 2.12132 0.562581 2.12132 0 
C 2.12132 -0.562581 1.897805 -1.102195 1.5 -1.5 
C 1.102195 -1.897805 0.562581 -2.12132 0 -2.12132 
C -0.562581 -2.12132 -1.102195 -1.897805 -1.5 -1.5 
C -1.897805 -1.102195 -2.12132 -0.562581 -2.12132 0 
C -2.12132 0.562581 -1.897805 1.102195 -1.5 1.5 
C -1.102195 1.897805 -0.562581 2.12132 0 2.12132 
z
" style="stroke: #ffffff; stroke-width: 0.5"/>
    </defs>
    <g clip-path="url(#p7856a860a2)">
     <use xlink:href="#mf46dfd4d76" x="284.968421" y="203.115789" style="fill: #8aa0b7; stroke: #ffffff; stroke-width: 0.5"/>
     <use xlink:href="#mf46dfd4d76" x="397.136842" y="212.210526" style="fill: #8aa0b7; stroke: #ffffff; stroke-width: 0.5"/>
     <use xlink:href="#mf46dfd4d76" x="396.625112" y="95.928253" style="fill: #8aa0b7; stroke: #ffffff; stroke-width: 0.5"/>
     <use xlink:href="#mf46dfd4d76" x="130.357895" y="363.789474" style="fill: #8aa0b7; stroke: #ffffff; stroke-width: 0.5"/>
     <use xlink:href="#mf46dfd4d76" x="475.957895" y="248.589474" style="fill: #8aa0b7; stroke: #ffffff; stroke-width: 0.5"/>
     <use xlink:href="#mf46dfd4d76" x="233.431579" y="84.884211" style="fill: #8aa0b7; stroke: #ffffff; stroke-width: 0.5"/>
     <use xlink:href="#mf46dfd4d76" x="268.753718" y="143.360337" style="fill: #8aa0b7; stroke: #ffffff; stroke-width: 0.5"/>
     <use xlink:href="#mf46dfd4d76" x="236.509844" y="128.613524" style="fill: #8aa0b7; stroke: #ffffff; stroke-width: 0.5"/>
     <use xlink:href="#mf46dfd4d76" x="260.210526" y="160.87579" style="fill: #8aa0b7; stroke: #ffffff; stroke-width: 0.5"/>
     <use xlink:href="#mf46dfd4d76" x="243.435789" y="241.717895" style="fill: #8aa0b7; stroke: #ffffff; stroke-width: 0.5"/>
     <use xlink:href="#mf46dfd4d76" x="486.568421" y="269.810526" style="fill: #8aa0b7; stroke: #ffffff; stroke-width: 0.5"/>
     <use xlink:href="#mf46dfd4d76" x="248.589474" y="131.873684" style="fill: #8aa0b7; stroke: #ffffff; stroke-width: 0.5"/>
     <use xlink:href="#mf46dfd4d76" x="262.736842" y="162.189474" style="fill: #8aa0b7; stroke: #ffffff; stroke-width: 0.5"/>
     <use xlink:href="#mf46dfd4d76" x="553.263158" y="281.936842" style="fill: #8aa0b7; stroke: #ffffff; stroke-width: 0.5"/>
     <use xlink:href="#mf46dfd4d76" x="493.136842" y="255.663158" style="fill: #8aa0b7; stroke: #ffffff; stroke-width: 0.5"/>
     <use xlink:href="#mf46dfd4d76" x="333.675789" y="174.214737" style="fill: #8aa0b7; stroke: #ffffff; stroke-width: 0.5"/>
     <use xlink:href="#mf46dfd4d76" x="313.263158" y="159.157895" style="fill: #8aa0b7; stroke: #ffffff; stroke-width: 0.5"/>
     <use xlink:href="#mf46dfd4d76" x="320.741053" y="195.637895" style="fill: #8aa0b7; stroke: #ffffff; stroke-width: 0.5"/>
     <use xlink:href="#mf46dfd4d76" x="393.343731" y="201.850408" style="fill: #8aa0b7; stroke: #ffffff; stroke-width: 0.5"/>
     <use xlink:href="#mf46dfd4d76" x="409.263158" y="207.157895" style="fill: #8aa0b7; stroke: #ffffff; stroke-width: 0.5"/>
     <use xlink:href="#mf46dfd4d76" x="364.294737" y="243.536842" style="fill: #8aa0b7; stroke: #ffffff; stroke-width: 0.5"/>
     <use xlink:href="#mf46dfd4d76" x="489.498139" y="267.068766" style="fill: #8aa0b7; stroke: #ffffff; stroke-width: 0.5"/>
     <use xlink:href="#mf46dfd4d76" x="365.709474" y="181.187368" style="fill: #8aa0b7; stroke: #ffffff; stroke-width: 0.5"/>
     <use xlink:href="#mf46dfd4d76" x="351.157895" y="195.43579" style="fill: #8aa0b7; stroke: #ffffff; stroke-width: 0.5"/>
     <use xlink:href="#mf46dfd4d76" x="351.380615" y="206.736101" style="fill: #8aa0b7; stroke: #ffffff; stroke-width: 0.5"/>
     <use xlink:href="#mf46dfd4d76" x="402.611874" y="202.493709" style="fill: #8aa0b7; stroke: #ffffff; stroke-width: 0.5"/>
    </g>
   </g>
   <g id="PatchCollection_2">
    <path d="M 248.029542 165.620248 
L 255.890644 164.301318 
L 266.072524 165.861193 
L 264.150605 158.99818 
L 269.874378 161.599069 
L 283.990804 156.871034 
L 285.811207 151.902681 
L 291.113874 150.678531 
L 291.992117 152.81069 
L 294.810452 152.91064 
L 301.860518 158.202968 
L 304.972123 157.730791 
L 311.63273 161.021302 
L 313.382322 160.893154 
L 316.243582 162.480758 
L 324.980889 163.597439 
L 321.915343 167.749274 
L 321.145823 172.068892 
L 319.481142 173.10458 
L 316.718578 172.546552 
L 316.913465 174.087158 
L 312.479327 177.494226 
L 312.389716 180.239556 
L 315.284815 179.289563 
L 317.367469 181.948417 
L 317.117438 183.661663 
L 318.901809 185.938264 
L 316.799729 187.784986 
L 318.361641 192.476362 
L 321.648079 193.245568 
L 320.954383 195.877319 
L 315.461529 199.302716 
L 303.503267 197.661063 
L 294.671963 199.628258 
L 293.978267 203.279404 
L 286.94982 204.065373 
L 280.127539 201.322705 
L 277.923316 202.633489 
L 266.762147 199.877976 
L 264.345491 197.520695 
L 267.480908 193.883962 
L 268.635501 181.804288 
L 262.378767 175.441338 
L 257.906873 172.373598 
L 248.640677 170.04154 
z
" clip-path="url(#p7856a860a2)" style="fill: #f59e0b; stroke: #b45309; stroke-width: 1.15"/>
    <path d="M -54.71851 446.782895 
L -53.172107 444.233078 
L -51.578863 438.85114 
L -53.95933 435.258272 
L -54.438869 431.110197 
L -51.28246 425.89714 
L -44.759088 427.999219 
L -38.339426 433.117027 
L -37.335698 435.600107 
L -40.922299 441.148732 
L -42.784217 445.613576 
L -45.107816 447.916652 
L -48.010904 448.349977 
L -48.837762 446.643154 
L -50.193978 446.389676 
L -52.070779 448.033678 
z
" clip-path="url(#p7856a860a2)" style="fill: #f59e0b; stroke: #b45309; stroke-width: 1.15"/>
    <path d="M 327.678595 204.592068 
L 328.902119 202.338966 
L 332.806742 200.023671 
L 333.837573 205.222786 
L 331.835129 209.906485 
L 329.082279 208.671995 
z
" clip-path="url(#p7856a860a2)" style="fill: #f59e0b; stroke: #b45309; stroke-width: 1.15"/>
   </g>
   <g id="PathCollection_2">
    <path d="M 288 186.029951 
C 289.096672 186.029951 290.148574 185.594239 290.924038 184.818775 
C 291.699502 184.043311 292.135215 182.991409 292.135215 181.894737 
C 292.135215 180.798065 291.699502 179.746163 290.924038 178.970699 
C 290.148574 178.195235 289.096672 177.759522 288 177.759522 
C 286.903328 177.759522 285.851426 178.195235 285.075962 178.970699 
C 284.300498 179.746163 283.864785 180.798065 283.864785 181.894737 
C 283.864785 182.991409 284.300498 184.043311 285.075962 184.818775 
C 285.851426 185.594239 286.903328 186.029951 288 186.029951 
L 288 186.029951 
z
" clip-path="url(#p7856a860a2)" style="fill: none; stroke: #7c2d12; stroke-width: 1.1"/>
   </g>
  </g>
 </g>
 <defs>
  <clipPath id="p7856a860a2">
   <rect x="0" y="0" width="576" height="363.789474"/>
  </clipPath>
 </defs>
</svg>
