<?xml version="1.0" encoding="utf-8" standalone="no"?>
<!DOCTYPE svg PUBLIC "-//W3C//DTD SVG 1.1//EN"
  "http://www.w3.org/Graphics/SVG/1.1/DTD/svg11.dtd">
<svg xmlns:xlink="http://www.w3.org/1999/xlink" width="528pt" height="432pt" viewBox="0 0 528 432" xmlns="http://www.w3.org/2000/svg" version="1.1">
 <metadata>
  <rdf:RDF xmlns:dc="http://purl.org/dc/elements/1.1/" xmlns:cc="http://creativecommons.org/ns#" xmlns:rdf="http://www.w3.org/1999/02/22-rdf-syntax-ns#">
   <cc:Work>
    <dc:type rdf:resource="http://purl.org/dc/dcmitype/StillImage"/>
    <dc:date>2026-06-09T04:57:15.357288</dc:date>
    <dc:format>image/svg+xml</dc:format>
    <dc:creator>
     <cc:Agent>
      <dc:title>Matplotlib v3.10.8, https://matplotlib.org/</dc:title>
     </cc:Agent>
    </dc:creator>
   </cc:Work>
  </rdf:RDF>
 </metadata>
 <defs>
  <style type="text/css">*{stroke-linejoin: round; stroke-linecap: butt}</style>
 </defs>
 <g id="figure_1">
  <g id="patch_1">
   <path d="M 0 432 
L 528 432 
L 528 0 
L 0 0 
z
" style="fill: #eaf3ff"/>
  </g>
  <g id="axes_1">
   <g id="PatchCollection_1">
    <path d="M 439.386558 360.001394 
L 455.402276 366.361412 
L 472.467424 371.643856 
L 483.967259 381.013827 
L 485.371586 386.451777 
L 500.751446 392.156856 
L 502.99484 397.052442 
L 494.500665 398.046061 
L 496.540374 404.197146 
L 504.781254 410.253306 
L 510.776356 420.043049 
L 516.063094 419.736329 
L 515.691977 423.825286 
L 522.819032 425.393706 
L 520.050447 427.134804 
L 529.861178 431.018646 
L 528.836077 433.686581 
L 522.723629 434.330549 
L 520.452092 431.93785 
L 503.197093 429.511761 
L 490.780439 418.546658 
L 485.985979 410.468439 
L 473.946165 406.431953 
L 466.126965 409.064589 
L 460.489622 412.112227 
L 461.666891 418.920636 
L 454.41629 422.093728 
L 449.245467 420.550114 
L 439.697093 420.165164 
z
" clip-path="url(#p68186001e4)" style="fill: #e8edf4; stroke: #b8c5d4; stroke-width: 0.45"/>
    <path d="M 506.944032 389.050546 
L 507.709161 386.194667 
L 515.985341 387.54223 
L 521.035957 386.820032 
L 522.426927 382.39478 
L 523.751593 382.166291 
L 524.648378 387.066648 
L 529.915081 386.361622 
L 532.52005 383.203317 
L 537.672747 379.911449 
L 536.657186 374.472067 
L 542.185769 374.296527 
L 544.049936 375.811998 
L 543.864855 380.932257 
L 540.764269 386.566738 
L 535.930217 387.325666 
L 534.474373 389.914416 
L 524.68797 394.317725 
L 519.784274 394.306277 
z
" clip-path="url(#p68186001e4)" style="fill: #e8edf4; stroke: #b8c5d4; stroke-width: 0.45"/>
    <path d="M 564.130285 383.438008 
L 565.407726 382.545516 
L 566.399914 385.292158 
L 569.196165 387.385769 
L 573.671503 393.236814 
L 578.03045 396.369359 
L 576.738698 398.953817 
L 574.153764 399.876838 
L 570.15687 396.331675 
L 566.115614 390.469183 
z
" clip-path="url(#p68186001e4)" style="fill: #e8edf4; stroke: #b8c5d4; stroke-width: 0.45"/>
    <path d="M 528.572765 361.306026 
L 531.138143 359.076943 
L 543.138364 365.907772 
L 550.338402 372.738601 
L 551.446503 377.538308 
L 548.559619 379.997789 
L 546.818521 374.548867 
L 544.671008 370.982239 
L 535.239502 364.019277 
z
" clip-path="url(#p68186001e4)" style="fill: #e8edf4; stroke: #b8c5d4; stroke-width: 0.45"/>
    <path d="M 234.164022 361.864608 
L 237.978219 355.819419 
L 239.292868 348.490588 
L 243.932298 334.576113 
L 245.868018 330.770978 
L 253.714885 323.914867 
L 260.924463 326.640521 
L 272.562155 327.921301 
L 283.17713 327.534443 
L 292.301439 320.831454 
L 293.912313 322.89382 
L 286.495711 332.050328 
L 279.558508 333.825294 
L 270.674613 332.020276 
L 255.292845 332.481071 
L 247.22846 333.810029 
L 245.915719 340.796842 
L 254.177588 349.005286 
L 259.161422 344.824265 
L 276.374444 341.683133 
L 275.615993 345.934274 
L 271.594295 344.59339 
L 267.58643 350.001766 
L 259.460987 353.579842 
L 268.196053 365.40977 
L 266.509811 368.58 
L 274.808887 379.23409 
L 274.729226 385.297882 
L 269.801679 388.011611 
L 266.182103 384.765536 
L 270.642177 377.207738 
L 261.583695 380.781521 
L 259.287354 378.226638 
L 260.484657 374.662873 
L 253.829369 369.250204 
L 254.51436 360.255165 
L 248.358027 363.060957 
L 249.514307 387.029917 
L 243.660401 388.369848 
L 239.694513 385.660413 
L 242.340982 377.163853 
L 240.912328 368.256108 
L 237.030871 368.187895 
z
" clip-path="url(#p68186001e4)" style="fill: #e8edf4; stroke: #b8c5d4; stroke-width: 0.45"/>
    <path d="M 143.562992 332.165765 
L 144.63818 323.612918 
L 150.122401 317.478766 
L 151.663631 323.647978 
L 157.975947 328.863402 
L 163.930503 326.986355 
L 169.823524 327.651312 
L 175.202325 322.983499 
L 179.629008 322.174246 
L 188.361689 324.761089 
L 195.889435 322.793648 
L 200.621883 309.955552 
L 204.176108 306.745492 
L 207.374005 296.247146 
L 217.986595 296.251439 
L 225.988015 297.807218 
L 220.73753 306.14374 
L 227.523043 314.88286 
L 225.928865 319.129471 
L 236.277667 327.671823 
L 225.340231 328.760844 
L 222.261588 335.05408 
L 222.661325 343.418984 
L 213.785063 349.732254 
L 213.54274 358.924776 
L 209.982313 373.040551 
L 208.623303 369.757269 
L 198.136644 373.910623 
L 194.479861 368.268033 
L 187.898509 367.746181 
L 183.295332 364.788699 
L 172.321165 368.108234 
L 168.953452 363.641005 
L 162.906833 364.148547 
L 155.297041 363.083377 
L 153.885558 350.703453 
L 149.279519 348.137599 
L 144.848066 340.241599 
z
" clip-path="url(#p68186001e4)" style="fill: #e8edf4; stroke: #b8c5d4; stroke-width: 0.45"/>
    <path d="M 342.642075 344.655879 
L 355.084965 342.419641 
L 359.816459 339.411119 
L 374.635829 343.201943 
L 376.092627 346.632622 
L 378.670407 361.561705 
L 388.224028 367.086949 
L 395.938285 357.295775 
L 406.529887 351.724738 
L 414.735945 351.717106 
L 429.477085 358.237399 
L 439.386558 360.001394 
L 439.697093 420.165164 
L 431.477678 412.58924 
L 422.102461 410.732704 
L 419.829015 413.362478 
L 408.133605 413.646301 
L 412.053223 406.134297 
L 417.864198 403.571305 
L 415.457666 393.533993 
L 411.026214 385.784913 
L 393.13154 377.968097 
L 385.519363 377.19629 
L 371.657358 368.66634 
L 368.932659 373.152172 
L 365.390359 373.965956 
L 363.29484 370.581071 
L 363.265742 366.570343 
L 356.213578 362.035856 
L 366.155488 358.711551 
L 372.738747 358.890908 
L 371.965032 356.441922 
L 358.452678 356.423318 
L 354.795895 350.927649 
L 346.54929 349.223281 
z
" clip-path="url(#p68186001e4)" style="fill: #e8edf4; stroke: #b8c5d4; stroke-width: 0.45"/>
    <path d="M 17.474088 285.417038 
L 37.706603 287.572422 
L 45.869254 296.599659 
L 58.098442 306.698506 
L 66.844002 316.621097 
L 76.227806 316.76587 
L 83.984041 323.088919 
L 89.324681 330.818203 
L 96.354425 335.034999 
L 92.655187 342.571808 
L 97.945741 345.777337 
L 101.26146 346.013936 
L 102.826063 352.45266 
L 106.042086 357.603926 
L 112.81949 358.420096 
L 117.310093 364.262553 
L 114.991808 375.743308 
L 114.624508 390.021744 
L 104.403546 390.214935 
L 96.629662 382.498292 
L 84.777791 374.956236 
L 80.826214 369.361348 
L 73.83797 361.844096 
L 69.253873 354.925497 
L 62.233669 342.003209 
L 54.126829 334.309462 
L 48.012474 319.167632 
L 39.688593 313.355225 
L 34.864082 305.457318 
L 27.913999 300.287448 
L 18.28501 290.115857 
z
" clip-path="url(#p68186001e4)" style="fill: #e8edf4; stroke: #b8c5d4; stroke-width: 0.45"/>
    <path d="M 110.450643 399.243841 
L 116.784424 390.423867 
L 127.984695 390.969093 
L 135.434687 394.576267 
L 139.263195 395.279861 
L 140.524418 398.563143 
L 158.208252 399.483302 
L 160.242237 395.678644 
L 177.367488 400.117252 
L 180.727092 406.100429 
L 194.574786 407.783332 
L 205.897172 413.268984 
L 195.36472 416.786002 
L 185.212925 413.067207 
L 167.280567 412.635033 
L 158.64138 410.977889 
L 147.947698 407.452285 
L 141.172202 406.53785 
L 137.3332 407.692222 
L 120.499403 403.891381 
L 118.89807 399.922154 
z
" clip-path="url(#p68186001e4)" style="fill: #e8edf4; stroke: #b8c5d4; stroke-width: 0.45"/>
    <path d="M 313.841448 326.661032 
L 315.697029 319.285931 
L 318.760408 315.926804 
L 319.42298 320.967402 
L 324.872856 321.777132 
L 325.737681 325.547206 
L 325.254943 333.613977 
L 320.493874 332.710037 
L 319.089547 338.326868 
L 322.892297 343.200035 
L 320.307839 344.307659 
L 316.582843 338.460908 
z
" clip-path="url(#p68186001e4)" style="fill: #e8edf4; stroke: #b8c5d4; stroke-width: 0.45"/>
    <path d="M 318.451304 367.324024 
L 320.638886 362.249081 
L 332.039979 361.866039 
L 342.197022 364.557825 
L 345.552333 371.616666 
L 337.758891 367.812009 
L 330.048449 367.039724 
L 324.83708 367.649347 
z
" clip-path="url(#p68186001e4)" style="fill: #e8edf4; stroke: #b8c5d4; stroke-width: 0.45"/>
    <path d="M 277.476822 430.523029 
L 278.307779 427.384759 
L 282.277006 421.754095 
L 291.403223 418.087294 
L 292.338646 419.907577 
L 292.509417 422.706213 
L 286.485694 429.600008 
L 278.584447 431.630654 
z
" clip-path="url(#p68186001e4)" style="fill: #e8edf4; stroke: #b8c5d4; stroke-width: 0.45"/>
    <path d="M 244.808572 413.952544 
L 252.139311 412.03352 
L 257.923096 414.800673 
L 264.06798 414.098033 
L 272.340344 410.716009 
L 270.987534 415.844378 
L 257.118375 418.464612 
L 244.840531 417.326935 
z
" clip-path="url(#p68186001e4)" style="fill: #e8edf4; stroke: #b8c5d4; stroke-width: 0.45"/>
    <path d="M 215.447454 419.380954 
L 218.619115 414.066073 
L 223.680225 413.993567 
L 226.154015 410.729365 
L 229.482614 413.191231 
L 235.185784 412.437073 
L 237.475447 416.36146 
L 220.409822 419.454414 
z
" clip-path="url(#p68186001e4)" style="fill: #e8edf4; stroke: #b8c5d4; stroke-width: 0.45"/>
    <path d="M 375.810235 392.699697 
L 379.381156 386.261926 
L 381.480015 388.962298 
L 381.458072 393.363699 
L 376.708928 399.648348 
z
" clip-path="url(#p68186001e4)" style="fill: #e8edf4; stroke: #b8c5d4; stroke-width: 0.45"/>
    <path d="M 300.821849 365.328678 
L 310.15986 364.88601 
L 312.454293 367.929831 
L 308.999287 370.993687 
L 302.619712 369.298859 
z
" clip-path="url(#p68186001e4)" style="fill: #e8edf4; stroke: #b8c5d4; stroke-width: 0.45"/>
    <path d="M 236.01054 424.227408 
L 244.618243 422.412373 
L 252.696939 428.027773 
L 252.144081 430.519213 
L 248.26167 430.695231 
z
" clip-path="url(#p68186001e4)" style="fill: #e8edf4; stroke: #b8c5d4; stroke-width: 0.45"/>
    <path d="M 291.403223 418.087294 
L 292.488428 415.909729 
L 300.434514 413.834721 
L 306.874193 413.522278 
L 309.759169 412.369337 
L 313.254722 413.513692 
L 309.858387 416.014672 
L 292.509417 422.706213 
L 292.338646 419.907577 
z
" clip-path="url(#p68186001e4)" style="fill: #e8edf4; stroke: #b8c5d4; stroke-width: 0.45"/>
    <path d="M 82.597841 212.360794 
L 88.508511 204.685651 
L 100.443859 202.922372 
L 109.096402 204.247276 
L 116.713349 207.866852 
L 120.8896 201.502303 
L 129.071331 204.900545 
L 131.211212 211.05664 
L 130.07449 222.118099 
L 114.55868 229.222019 
L 118.612339 234.814045 
L 108.922292 235.483294 
L 100.932321 239.201135 
L 93.205661 237.853334 
L 89.452521 233.043133 
L 84.783992 223.508354 
z
" clip-path="url(#p68186001e4)" style="fill: #e8edf4; stroke: #b8c5d4; stroke-width: 0.45"/>
    <path d="M 36.700583 165.734421 
L 40.594918 164.057719 
L 44.803606 154.078126 
L 51.320084 153.664794 
L 56.707471 149.662176 
L 61.993732 147.527542 
L 65.989671 150.376265 
L 66.519633 155.922975 
L 72.757058 156.34537 
L 70.485521 166.071431 
L 70.703516 174.346179 
L 80.433155 168.839062 
L 83.196969 170.466631 
L 88.603437 170.199742 
L 90.463312 166.988012 
L 97.4444 167.621962 
L 104.464127 175.118225 
L 105.039882 184.228939 
L 112.514202 192.274006 
L 112.101585 200.086767 
L 109.096402 204.247276 
L 100.443859 202.922372 
L 88.508511 204.685651 
L 82.597841 212.360794 
L 84.783992 223.508354 
L 76.496842 219.270092 
L 68.601319 219.442294 
L 69.955082 212.190262 
L 61.825823 212.244403 
L 61.095993 222.396913 
L 53.111745 244.033279 
L 53.745219 250.714565 
L 59.758448 251.00435 
L 63.504432 259.429358 
L 65.16253 267.419329 
L 70.313796 272.705828 
L 75.905345 273.77887 
L 80.68788 278.569513 
L 77.670294 282.361768 
L 71.577404 283.464146 
L 70.850913 278.724304 
L 63.319351 274.681617 
L 61.714679 276.32779 
L 58.067913 272.785728 
L 56.488999 268.214272 
L 47.111873 258.624875 
L 45.596879 264.050662 
L 43.846241 258.923008 
L 47.571237 244.311139 
L 52.04419 234.825731 
L 57.113409 226.220651 
L 53.504804 217.802322 
L 53.649339 213.514212 
L 52.594663 208.361515 
L 46.43833 201.027437 
L 44.234529 196.396592 
L 47.421932 194.690793 
L 50.800139 186.666238 
L 47.019333 180.573825 
L 41.161133 173.834344 
z
" clip-path="url(#p68186001e4)" style="fill: #e8edf4; stroke: #b8c5d4; stroke-width: 0.45"/>
    <path d="M 61.993732 147.527542 
L 63.960934 144.128107 
L 71.815434 138.123942 
L 72.646391 140.292444 
L 77.567259 140.544307 
L 76.172473 129.985858 
L 80.957869 128.633048 
L 86.352889 135.92181 
L 90.49718 144.308657 
L 101.861543 144.380924 
L 105.439142 152.430999 
L 99.538965 154.849218 
L 96.891065 158.16756 
L 107.950139 163.689465 
L 121.440073 182.729687 
L 128.424978 189.151954 
L 130.749463 195.672248 
L 129.071331 204.900545 
L 120.8896 201.502303 
L 116.713349 207.866852 
L 109.096402 204.247276 
L 112.101585 200.086767 
L 112.514202 192.274006 
L 105.039882 184.228939 
L 104.464127 175.118225 
L 97.4444 167.621962 
L 90.463312 166.988012 
L 88.603437 170.199742 
L 83.196969 170.466631 
L 80.433155 168.839062 
L 70.703516 174.346179 
L 70.485521 166.071431 
L 72.757058 156.34537 
L 66.519633 155.922975 
L 65.989671 150.376265 
z
" clip-path="url(#p68186001e4)" style="fill: #e8edf4; stroke: #b8c5d4; stroke-width: 0.45"/>
    <path d="M -10.123989 137.764751 
L -6.902242 139.162638 
L -6.713345 132.54241 
L -2.158823 130.352681 
L -3.135746 126.432825 
L -1.04929 123.289308 
L -0.690576 113.736402 
L 6.523772 115.839315 
L 10.639919 108.228569 
L 11.106915 103.730811 
L 16.201416 95.987933 
L 15.920933 90.705488 
L 27.871068 84.326868 
L 34.467684 85.995937 
L 33.710664 80.316379 
L 36.946721 78.622744 
L 36.250282 75.123852 
L 41.649118 74.43743 
L 44.734439 79.871803 
L 48.763293 82.072503 
L 48.66312 96.750438 
L 39.919468 104.458734 
L 38.812797 115.408572 
L 48.556269 113.87736 
L 50.757685 122.374873 
L 56.603005 124.162719 
L 53.91599 131.830945 
L 64.76804 136.995328 
L 71.538766 134.307836 
L 71.815434 138.123942 
L 63.960934 144.128107 
L 61.993732 147.527542 
L 56.707471 149.662176 
L 51.320084 153.664794 
L 44.803606 154.078126 
L 40.594918 164.057719 
L 36.700583 165.734421 
L 41.161133 173.834344 
L 47.019333 180.573825 
L 50.800139 186.666238 
L 47.421932 194.690793 
L 44.234529 196.396592 
L 46.43833 201.027437 
L 52.594663 208.361515 
L 53.649339 213.514212 
L 53.504804 217.802322 
L 57.113409 226.220651 
L 52.04419 234.825731 
L 47.571237 244.311139 
L 46.681607 237.459083 
L 49.518882 230.388077 
L 46.415434 224.926276 
L 47.165299 214.87036 
L 43.417883 210.088064 
L 40.409837 199.040438 
L 38.742199 187.379373 
L 34.749598 179.734759 
L 18.178636 190.944093 
L 13.000658 190.12196 
L 7.281269 187.957513 
L 10.462947 176.517782 
L 8.536768 167.875256 
L 1.301431 157.232376 
L 2.430045 153.90497 
L -2.969745 152.721739 
L -9.521045 145.191847 
z
" clip-path="url(#p68186001e4)" style="fill: #e8edf4; stroke: #b8c5d4; stroke-width: 0.45"/>
    <path d="M 80.957869 128.633048 
L 85.910697 126.380353 
L 93.272442 126.426862 
L 102.247923 125.361691 
L 110.115779 120.442493 
L 114.565359 123.905609 
L 123.003723 125.591373 
L 121.544062 130.908878 
L 125.939262 134.659395 
L 135.232433 137.054955 
L 122.90832 144.952147 
L 115.215528 153.67338 
L 113.187744 160.078475 
L 128.879571 181.869632 
L 137.256878 187.571609 
L 142.865599 194.984395 
L 147.094798 212.067431 
L 145.847409 228.305915 
L 138.148892 234.384733 
L 127.577802 240.32784 
L 120.047195 248.023018 
L 108.53782 256.617603 
L 105.186325 250.698108 
L 107.780323 244.444703 
L 100.932321 239.201135 
L 108.922292 235.483294 
L 118.612339 234.814045 
L 114.55868 229.222019 
L 130.07449 222.118099 
L 131.211212 211.05664 
L 129.071331 204.900545 
L 130.749463 195.672248 
L 128.424978 189.151954 
L 121.440073 182.729687 
L 107.950139 163.689465 
L 96.891065 158.16756 
L 99.538965 154.849218 
L 105.439142 152.430999 
L 101.861543 144.380924 
L 90.49718 144.308657 
L 86.352889 135.92181 
z
" clip-path="url(#p68186001e4)" style="fill: #e8edf4; stroke: #b8c5d4; stroke-width: 0.45"/>
    <path d="M 302.00675 -3.004474 
L 308.862861 -4.559299 
L 302.536235 -12.458638 
L 303.113898 -13.295796 
L 307.234338 -12.967134 
L 310.83054 -17.133368 
L 321.283808 -18.188282 
L 322.612767 -20.420704 
L 330.580796 -9.529777 
L 332.865689 -3.546361 
L 332.938195 7.087933 
L 329.458861 12.161684 
L 321.100158 13.934981 
L 313.721718 17.763012 
L 305.4069 18.553423 
L 304.374643 13.527134 
L 306.085213 6.604241 
z
" clip-path="url(#p68186001e4)" style="fill: #e8edf4; stroke: #b8c5d4; stroke-width: 0.45"/>
    <path d="M -232.830968 117.304938 
L -226.683699 111.146459 
L -206.370091 111.170548 
L -208.202775 103.245212 
L -213.388863 98.564043 
L -214.440677 91.459646 
L -220.482527 87.314163 
L -210.309266 77.638188 
L -199.590779 78.339875 
L -189.9346 68.66223 
L -184.147953 59.294645 
L -175.187259 50.032479 
L -175.329886 43.452559 
L -167.458691 38.112873 
L -174.908684 33.554773 
L -181.385092 19.221241 
L -176.859668 15.241043 
L -162.857899 17.493022 
L -152.568723 16.121132 
L -143.6543 8.362989 
L -133.732902 19.182126 
L -134.666894 26.712018 
L -130.994846 31.436357 
L -131.297273 36.149725 
L -137.922032 34.909252 
L -135.333282 45.083944 
L -126.264306 50.928787 
L -113.434559 57.383253 
L -119.291804 61.570475 
L -122.876081 70.204891 
L -93.191549 83.404563 
L -80.538296 84.600912 
L -75.214351 89.29663 
L -56.977182 92.327095 
L -49.290114 92.172781 
L -48.232576 88.519337 
L -49.448005 82.653982 
L -48.734393 78.678077 
L -43.104683 76.736633 
L -42.13253 85.855695 
L -33.742822 89.359357 
L -27.939002 87.916392 
L -12.613998 88.26175 
L -11.965737 82.591255 
L -15.723171 79.64546 
L -8.278902 78.490372 
L 0.123209 71.62496 
L 10.762989 65.746726 
L 18.505867 68.014924 
L 25.086265 64.127981 
L 29.414683 69.867881 
L 26.296924 73.744329 
L 36.250282 75.123852 
L 36.946721 78.622744 
L 33.710664 80.316379 
L 34.467684 85.995937 
L 27.871068 84.326868 
L 15.920933 90.705488 
L 16.201416 95.987933 
L 11.106915 103.730811 
L 10.639919 108.228569 
L 6.523772 115.839315 
L -0.690576 113.736402 
L -1.04929 123.289308 
L -3.135746 126.432825 
L -2.158823 130.352681 
L -6.713345 132.54241 
L -11.575064 117.900012 
L -14.123745 117.92911 
L -15.632538 123.828332 
L -20.686493 119.044367 
L -17.836339 113.79102 
L -13.706836 113.257719 
L -9.450447 105.445912 
L -14.77296 103.869861 
L -23.333439 104.006764 
L -32.116684 102.74077 
L -32.930945 96.322319 
L -37.337594 95.86701 
L -44.648775 91.878225 
L -47.909638 98.140932 
L -41.247194 103.027455 
L -47.0181 106.466959 
L -49.066872 109.830856 
L -43.385167 112.30417 
L -44.955972 117.866383 
L -41.757121 124.807879 
L -40.320357 132.408846 
L -41.642161 135.779183 
L -47.921563 135.66303 
L -59.30119 137.579431 
L -58.770752 144.523313 
L -63.698298 149.984875 
L -76.982162 156.197734 
L -87.313792 167.058371 
L -94.25338 172.881033 
L -103.451149 178.92336 
L -103.465459 183.169254 
L -116.381546 188.751024 
L -120.693269 189.238293 
L -123.4609 196.279247 
L -121.049598 215.942209 
L -124.961106 224.711859 
L -125.003083 240.394384 
L -129.779894 240.841345 
L -133.981426 247.881822 
L -131.171818 250.924212 
L -139.58824 253.541107 
L -142.696935 259.818839 
L -146.400942 262.471987 
L -155.141733 253.852835 
L -162.955686 231.616148 
L -166.189836 227.250046 
L -171.094009 218.382132 
L -174.979759 201.071799 
L -183.376622 188.39398 
L -189.960836 158.693229 
L -189.927922 147.512277 
L -191.718152 138.867605 
L -205.151322 144.392849 
L -211.657305 143.286179 
L -223.715722 132.098788 
L -219.277591 128.76208 
L -222.003722 125.13988 
z
" clip-path="url(#p68186001e4)" style="fill: #e8edf4; stroke: #b8c5d4; stroke-width: 0.45"/>
    <path d="M -182.073422 -27.980648 
L -179.446033 -30.092386 
L -180.717751 -32.252063 
L -171.905885 -36.613156 
L -165.527742 -38.419128 
L -155.756603 -37.181041 
L -152.266297 -43.075255 
L -140.425875 -44.172146 
L -137.135438 -47.836085 
L -122.589873 -52.836376 
L -121.292398 -54.92307 
L -122.029383 -60.185242 
L -115.696555 -62.587957 
L -124.005172 -78.623234 
L -105.719347 -82.311023 
L -100.994531 -84.365996 
L -94.333995 -100.892596 
L -76.021935 -97.854976 
L -70.887841 -102.02741 
L -70.447081 -111.283852 
L -62.780525 -112.146292 
L -55.75412 -118.29213 
L -52.142176 -119.051058 
L -49.718472 -112.610426 
L -41.960329 -107.714601 
L -28.792379 -104.248146 
L -22.423298 -96.813656 
L -25.977524 -86.028149 
L -22.656558 -82.025292 
L 0.745234 -79.158204 
L 11.897803 -73.40614 
L 17.601927 -72.381516 
L 21.807276 -63.871838 
L 27.225192 -58.39048 
L 37.400838 -58.605135 
L 56.4537 -56.535614 
L 68.731066 -57.819733 
L 77.84345 -56.444981 
L 91.497953 -50.838168 
L 102.667218 -50.846277 
L 106.75379 -47.976088 
L 117.501375 -52.932256 
L 132.413285 -56.137069 
L 146.248577 -56.487197 
L 157.0348 -59.734464 
L 163.658605 -64.678468 
L 170.119272 -67.782631 
L 168.625267 -70.829315 
L 165.677325 -74.376385 
L 170.522826 -80.326887 
L 185.205293 -77.620552 
L 194.403061 -82.521386 
L 208.477814 -86.097554 
L 215.241861 -92.198792 
L 221.738781 -94.825226 
L 235.147623 -96.049958 
L 242.430184 -95.009353 
L 243.441452 -98.289773 
L 235.076071 -104.742093 
L 227.669009 -107.692897 
L 220.573915 -104.286545 
L 211.467255 -105.723786 
L 206.241576 -104.552718 
L 203.864142 -108.326609 
L 214.881239 -124.509521 
L 225.962256 -121.024462 
L 238.970407 -126.85738 
L 238.886677 -130.919262 
L 247.2192 -140.709692 
L 252.352615 -143.668708 
L 252.238052 -148.765166 
L 247.173126 -150.95895 
L 254.797705 -155.551394 
L 266.268442 -157.215932 
L 278.505877 -157.465846 
L 292.32195 -154.717337 
L 300.427836 -151.318141 
L 312.807283 -132.367359 
L 316.222154 -123.325569 
L 332.287549 -120.37477 
L 343.221169 -113.812499 
L 346.959323 -105.139662 
L 360.984831 -105.128862 
L 368.987038 -108.770231 
L 384.242875 -111.491353 
L 379.392092 -103.185692 
L 375.806308 -99.807508 
L 372.642868 -89.694711 
L 366.434954 -80.714677 
L 355.231885 -82.349184 
L 347.309446 -79.088862 
L 349.740509 -71.183259 
L 348.412504 -60.276828 
L 343.697228 -60.027827 
L 343.753843 -55.338686 
L 337.793236 -60.788186 
L 334.123096 -55.615217 
L 319.866602 -51.63955 
L 321.308613 -46.770199 
L 313.327228 -47.106016 
L 308.945384 -49.999101 
L 302.603493 -43.452333 
L 292.430232 -38.49068 
L 284.913458 -32.570708 
L 272.008342 -29.88727 
L 265.212812 -25.573401 
L 255.272811 -23.053579 
L 260.178415 -27.330956 
L 258.246988 -30.925489 
L 265.556262 -37.130239 
L 260.680232 -41.966676 
L 252.633496 -38.708198 
L 242.211712 -32.289747 
L 236.524283 -26.329228 
L 227.471526 -25.885606 
L 222.763406 -21.578177 
L 227.627986 -15.336697 
L 235.182922 -13.821465 
L 235.492026 -9.678128 
L 242.795099 -6.982049 
L 253.139607 -13.573179 
L 261.334695 -9.9796 
L 267.304038 -9.7337 
L 268.799951 -4.897978 
L 255.730743 -2.31996 
L 251.418544 2.663635 
L 242.442109 7.294241 
L 237.70346 13.755147 
L 247.638691 18.827705 
L 251.264945 27.907175 
L 256.883207 36.366289 
L 263.152115 43.456852 
L 263.002333 50.313678 
L 257.20853 52.834455 
L 259.417101 57.757708 
L 264.850282 60.622888 
L 263.431645 68.141332 
L 261.087125 75.456807 
L 255.929181 76.286094 
L 241.712279 98.392795 
L 233.140351 109.4087 
L 207.606787 125.696555 
L 197.20456 126.75624 
L 191.561971 130.857599 
L 188.370275 127.861479 
L 183.148412 132.448915 
L 170.248543 137.072366 
L 160.48122 138.487903 
L 157.329594 148.236622 
L 152.214104 148.777316 
L 149.793739 142.077904 
L 151.979891 138.507222 
L 139.595196 135.551886 
L 135.232433 137.054955 
L 125.939262 134.659395 
L 121.544062 130.908878 
L 123.003723 125.591373 
L 114.565359 123.905609 
L 110.115779 120.442493 
L 102.247923 125.361691 
L 93.272442 126.426862 
L 85.910697 126.380353 
L 76.172473 129.985858 
L 77.567259 140.544307 
L 72.646391 140.292444 
L 71.538766 134.307836 
L 64.76804 136.995328 
L 53.91599 131.830945 
L 56.603005 124.162719 
L 50.757685 122.374873 
L 48.556269 113.87736 
L 38.812797 115.408572 
L 39.919468 104.458734 
L 48.66312 96.750438 
L 48.763293 82.072503 
L 44.734439 79.871803 
L 41.649118 74.43743 
L 36.250282 75.123852 
L 26.296924 73.744329 
L 29.414683 69.867881 
L 25.086265 64.127981 
L 18.505867 68.014924 
L 10.762989 65.746726 
L 0.123209 71.62496 
L -8.278902 78.490372 
L -15.723171 79.64546 
L -19.764427 77.16356 
L -24.64141 76.938887 
L -31.238503 74.802106 
L -36.223291 77.143764 
L -42.330014 84.006315 
L -43.104683 76.736633 
L -48.734393 78.678077 
L -59.496766 77.776045 
L -69.938585 75.659299 
L -77.431032 71.605164 
L -84.60388 69.785597 
L -87.701603 65.351759 
L -92.888168 64.027093 
L -102.207576 58.01291 
L -109.607959 55.17492 
L -113.434559 57.383253 
L -126.264306 50.928787 
L -135.333282 45.083944 
L -137.922032 34.909252 
L -131.297273 36.149725 
L -130.994846 31.436357 
L -134.666894 26.712018 
L -133.732902 19.182126 
L -143.6543 8.362989 
L -158.835246 4.630122 
L -161.567101 -2.462826 
L -168.387436 -6.766439 
L -170.030746 -9.415294 
L -171.415516 -14.676988 
L -171.094009 -18.266274 
L -176.699868 -20.367756 
L -179.733672 -19.438295 
z
" clip-path="url(#p68186001e4)" style="fill: #e8edf4; stroke: #b8c5d4; stroke-width: 0.45"/>
    <path d="M 140.5497 157.219496 
L 145.098975 153.036568 
L 155.183988 150.449963 
L 160.491238 150.668912 
L 162.55432 154.191417 
L 158.498276 158.253423 
L 156.361734 163.584045 
L 148.38655 168.021222 
L 140.817304 165.159859 
z
" clip-path="url(#p68186001e4)" style="fill: #e8edf4; stroke: #b8c5d4; stroke-width: 0.45"/>
    <path d="M 246.518664 118.557575 
L 251.95089 109.491223 
L 259.338871 102.503456 
L 263.549944 105.252961 
L 256.390453 125.622856 
L 252.434582 133.194726 
L 247.570001 125.401284 
z
" clip-path="url(#p68186001e4)" style="fill: #e8edf4; stroke: #b8c5d4; stroke-width: 0.45"/>
    <path d="M 244.465599 184.950422 
L 248.182963 187.988042 
L 249.138898 173.546943 
L 252.146466 165.182517 
L 257.735153 165.193249 
L 263.424012 167.828747 
L 266.270827 165.425078 
L 267.110371 167.770313 
L 265.608733 171.59739 
L 268.759882 178.213802 
L 266.329023 185.885129 
L 260.887256 188.944453 
L 259.431412 196.386337 
L 261.496879 203.738064 
L 266.390081 204.755056 
L 270.473314 203.662696 
L 282.002723 208.780333 
L 281.124065 213.80519 
L 284.134973 216.022824 
L 283.176176 220.276828 
L 275.981863 215.745918 
L 272.572172 210.896125 
L 270.197123 214.284588 
L 264.319843 208.758628 
L 255.935859 210.122886 
L 251.341268 208.083178 
L 251.809695 204.267549 
L 254.693717 201.919451 
L 251.938488 199.784579 
L 250.745955 203.111269 
L 246.188571 197.807359 
L 244.808572 193.787568 
z
" clip-path="url(#p68186001e4)" style="fill: #e8edf4; stroke: #b8c5d4; stroke-width: 0.45"/>
    <path d="M 263.260874 269.611205 
L 266.883312 261.831119 
L 272.699058 259.234736 
L 277.732501 255.756833 
L 280.995272 259.935469 
L 288.013567 257.407776 
L 289.519498 253.288528 
L 296.043608 253.043105 
L 295.496473 245.904602 
L 302.978903 250.282391 
L 305.883913 269.636487 
L 302.739442 278.083437 
L 299.366959 268.673397 
L 295.050943 273.35552 
L 297.998408 280.157013 
L 295.352415 284.483046 
L 284.490347 279.125949 
L 281.895872 272.444902 
L 284.710727 268.055903 
L 278.863499 263.690517 
L 275.963736 267.518071 
L 271.620054 267.162696 
L 264.789224 272.313008 
z
" clip-path="url(#p68186001e4)" style="fill: #e8edf4; stroke: #b8c5d4; stroke-width: 0.45"/>
    <path d="M 284.923952 220.082207 
L 293.788766 220.285653 
L 296.331247 223.728973 
L 298.92429 234.035798 
L 291.802006 231.586573 
L 291.994719 234.684774 
L 294.253377 240.381027 
L 289.862947 242.449118 
L 289.478475 235.956968 
L 286.699396 235.47757 
L 285.254046 229.888883 
L 290.686272 230.625392 
L 290.566065 227.130554 
z
" clip-path="url(#p68186001e4)" style="fill: #e8edf4; stroke: #b8c5d4; stroke-width: 0.45"/>
    <path d="M 267.5082 246.338207 
L 271.726905 241.281628 
L 272.745328 235.551984 
L 277.835536 235.00962 
L 276.348686 241.224148 
L 283.180946 232.313303 
L 282.299426 241.118967 
L 278.98323 244.153009 
L 276.091576 249.985212 
L 273.192766 252.718259 
z
" clip-path="url(#p68186001e4)" style="fill: #e8edf4; stroke: #b8c5d4; stroke-width: 0.45"/>
    <path d="M 262.925057 226.229953 
L 268.466042 229.087501 
L 274.34046 229.073906 
L 274.16158 232.929842 
L 269.886588 236.84946 
L 264.024095 239.621384 
L 263.698772 235.332081 
L 264.354188 230.623006 
z
" clip-path="url(#p68186001e4)" style="fill: #e8edf4; stroke: #b8c5d4; stroke-width: 0.45"/>
    <path d="M 219.454842 258.761539 
L 223.979789 252.305642 
L 230.648434 246.604619 
L 236.190851 240.218843 
L 241.029196 231.049218 
L 242.673937 238.575771 
L 236.579616 243.658585 
L 231.734593 250.002623 
z
" clip-path="url(#p68186001e4)" style="fill: #e8edf4; stroke: #b8c5d4; stroke-width: 0.45"/>
    <path d="M 248.524028 211.694645 
L 256.431953 212.033563 
L 259.637482 215.357629 
L 257.18945 223.33329 
z
" clip-path="url(#p68186001e4)" style="fill: #e8edf4; stroke: #b8c5d4; stroke-width: 0.45"/>
    <path d="M 150.122401 317.478766 
L 156.887403 320.642079 
L 164.020181 318.9172 
L 165.877671 311.101815 
L 169.8178 309.360955 
L 180.882599 307.362508 
L 192.037076 294.222702 
L 196.242424 299.006429 
L 198.180529 295.86172 
L 202.591947 296.154129 
L 203.54502 285.713263 
L 210.652994 279.293619 
L 215.308643 272.079033 
L 219.042702 272.048743 
L 223.785168 276.718464 
L 224.206848 280.73086 
L 237.986805 286.081518 
L 237.329481 289.697278 
L 231.135942 290.15521 
L 232.784499 294.662747 
L 225.988015 297.807218 
L 217.986595 296.251439 
L 207.374005 296.247146 
L 204.176108 306.745492 
L 200.621883 309.955552 
L 195.889435 322.793648 
L 188.361689 324.761089 
L 179.629008 322.174246 
L 175.202325 322.983499 
L 169.823524 327.651312 
L 163.930503 326.986355 
L 157.975947 328.863402 
L 151.663631 323.647978 
z
" clip-path="url(#p68186001e4)" style="fill: #e8edf4; stroke: #b8c5d4; stroke-width: 0.45"/>
    <path d="M 61.714679 276.32779 
L 63.319351 274.681617 
L 70.850913 278.724304 
L 71.577404 283.464146 
L 77.670294 282.361768 
L 80.68788 278.569513 
L 82.810589 279.431953 
L 88.261896 285.00466 
L 92.134289 291.184605 
L 92.663774 297.400564 
L 91.681126 301.599712 
L 93.253362 310.236752 
L 96.504684 312.780425 
L 100.134755 320.943313 
L 99.95826 324.064172 
L 93.412684 324.679996 
L 73.75974 310.515566 
L 72.678828 305.812692 
L 67.342481 299.63871 
L 66.068378 291.994335 
L 62.738826 286.961607 
L 63.750094 280.240968 
z
" clip-path="url(#p68186001e4)" style="fill: #e8edf4; stroke: #b8c5d4; stroke-width: 0.45"/>
    <path d="M 192.037076 294.222702 
L 195.691951 290.769126 
L 203.54502 285.713263 
L 202.591947 296.154129 
L 198.180529 295.86172 
L 196.242424 299.006429 
z
" clip-path="url(#p68186001e4)" style="fill: #e8edf4; stroke: #b8c5d4; stroke-width: 0.45"/>
    <path d="M 332.385814 28.651792 
L 341.113248 25.80784 
L 345.954932 20.005451 
L 355.23904 15.233411 
L 362.009289 8.922526 
L 380.384315 6.169682 
L 390.254196 8.057224 
L 399.912282 -8.353701 
L 406.067184 -3.945144 
L 424.85912 -16.762728 
L 430.659601 -28.050531 
L 429.077348 -38.430577 
L 432.976454 -44.261586 
L 442.790524 -45.955937 
L 447.823967 -33.15338 
L 447.550162 -25.669519 
L 439.010671 -16.375394 
L 439.166654 -6.849916 
L 435.690182 0.517076 
L 437.299148 5.142673 
L 432.491808 11.648179 
L 420.69718 15.991385 
L 404.470144 16.557361 
L 391.319843 27.094106 
L 385.116763 23.547036 
L 384.733245 16.647278 
L 368.679842 18.683647 
L 357.754808 23.031384 
L 346.949028 23.208356 
L 356.308027 30.00007 
L 350.148832 45.689035 
L 344.181397 49.573115 
L 339.714645 45.985499 
L 341.97855 37.666388 
L 336.135615 34.981758 
z
" clip-path="url(#p68186001e4)" style="fill: #e8edf4; stroke: #b8c5d4; stroke-width: 0.45"/>
    <path d="M 428.469633 -56.896236 
L 433.03465 -63.999439 
L 442.897375 -64.512229 
L 445.587252 -77.281157 
L 448.316722 -84.475232 
L 459.164957 -74.864847 
L 472.739322 -69.792765 
L 479.269156 -73.705227 
L 481.321267 -63.342354 
L 467.627648 -60.815615 
L 459.543228 -51.648136 
L 445.029147 -57.958067 
L 440.005721 -47.857789 
L 429.739442 -47.718978 
z
" clip-path="url(#p68186001e4)" style="fill: #e8edf4; stroke: #b8c5d4; stroke-width: 0.45"/>
    <path d="M 359.659522 31.482627 
L 359.733936 27.104839 
L 364.840362 21.597244 
L 370.088939 22.665038 
L 373.884056 18.785251 
L 380.662414 20.776304 
L 381.843499 23.941525 
L 376.646917 29.527589 
L 372.858001 26.566291 
L 368.125552 28.711658 
L 365.675613 34.111686 
z
" clip-path="url(#p68186001e4)" style="fill: #e8edf4; stroke: #b8c5d4; stroke-width: 0.45"/>
   </g>
   <g id="PathCollection_1">
    <defs>
     <path id="mce7ee1f974" d="M 0 2.12132 
C 0.562581 2.12132 1.102195 1.897805 1.5 1.5 
C 1.897805 1.102195 2.12132 0.562581 2.12132 0 
C 2.12132 -0.562581 1.897805 -1.102195 1.5 -1.5 
C 1.102195 -1.897805 0.562581 -2.12132 0 -2.12132 
C -0.562581 -2.12132 -1.102195 -1.897805 -1.5 -1.5 
C -1.897805 -1.102195 -2.12132 -0.562581 -2.12132 0 
C -2.12132 0.562581 -1.897805 1.102195 -1.5 1.5 
C -1.102195 1.897805 -0.562581 2.12132 0 2.12132 
z
" style="stroke: #ffffff; stroke-width: 0.5"/>
    </defs>
    <g clip-path="url(#p68186001e4)">
     <use xlink:href="#mce7ee1f974" x="196.307692" y="294.461538" style="fill: #8aa0b7; stroke: #ffffff; stroke-width: 0.5"/>
     <use xlink:href="#mce7ee1f974" x="474.307692" y="211.692308" style="fill: #8aa0b7; stroke: #ffffff; stroke-width: 0.5"/>
     <use xlink:href="#mce7ee1f974" x="191.692308" y="130.615385" style="fill: #8aa0b7; stroke: #ffffff; stroke-width: 0.5"/>
     <use xlink:href="#mce7ee1f974" x="186" y="131.384615" style="fill: #8aa0b7; stroke: #ffffff; stroke-width: 0.5"/>
     <use xlink:href="#mce7ee1f974" x="483.230769" y="195.692308" style="fill: #8aa0b7; stroke: #ffffff; stroke-width: 0.5"/>
     <use xlink:href="#mce7ee1f974" x="379.384615" y="266.769231" style="fill: #8aa0b7; stroke: #ffffff; stroke-width: 0.5"/>
     <use xlink:href="#mce7ee1f974" x="96" y="323.384615" style="fill: #8aa0b7; stroke: #ffffff; stroke-width: 0.5"/>
     <use xlink:href="#mce7ee1f974" x="300.153846" y="417.538462" style="fill: #8aa0b7; stroke: #ffffff; stroke-width: 0.5"/>
     <use xlink:href="#mce7ee1f974" x="254.769231" y="119.076923" style="fill: #8aa0b7; stroke: #ffffff; stroke-width: 0.5"/>
    </g>
   </g>
   <g id="PatchCollection_2">
    <path d="M 244.465599 184.950422 
L 248.182963 187.988042 
L 249.138898 173.546943 
L 252.146466 165.182517 
L 257.735153 165.193249 
L 263.424012 167.828747 
L 266.270827 165.425078 
L 267.110371 167.770313 
L 265.608733 171.59739 
L 268.759882 178.213802 
L 266.329023 185.885129 
L 260.887256 188.944453 
L 259.431412 196.386337 
L 261.496879 203.738064 
L 266.390081 204.755056 
L 270.473314 203.662696 
L 282.002723 208.780333 
L 281.124065 213.80519 
L 284.134973 216.022824 
L 283.176176 220.276828 
L 275.981863 215.745918 
L 272.572172 210.896125 
L 270.197123 214.284588 
L 264.319843 208.758628 
L 255.935859 210.122886 
L 251.341268 208.083178 
L 251.809695 204.267549 
L 254.693717 201.919451 
L 251.938488 199.784579 
L 250.745955 203.111269 
L 246.188571 197.807359 
L 244.808572 193.787568 
z
" clip-path="url(#p68186001e4)" style="fill: #f59e0b; stroke: #b45309; stroke-width: 1.15"/>
    <path d="M 263.260874 269.611205 
L 266.883312 261.831119 
L 272.699058 259.234736 
L 277.732501 255.756833 
L 280.995272 259.935469 
L 288.013567 257.407776 
L 289.519498 253.288528 
L 296.043608 253.043105 
L 295.496473 245.904602 
L 302.978903 250.282391 
L 305.883913 269.636487 
L 302.739442 278.083437 
L 299.366959 268.673397 
L 295.050943 273.35552 
L 297.998408 280.157013 
L 295.352415 284.483046 
L 284.490347 279.125949 
L 281.895872 272.444902 
L 284.710727 268.055903 
L 278.863499 263.690517 
L 275.963736 267.518071 
L 271.620054 267.162696 
L 264.789224 272.313008 
z
" clip-path="url(#p68186001e4)" style="fill: #f59e0b; stroke: #b45309; stroke-width: 1.15"/>
    <path d="M 284.923952 220.082207 
L 293.788766 220.285653 
L 296.331247 223.728973 
L 298.92429 234.035798 
L 291.802006 231.586573 
L 291.994719 234.684774 
L 294.253377 240.381027 
L 289.862947 242.449118 
L 289.478475 235.956968 
L 286.699396 235.47757 
L 285.254046 229.888883 
L 290.686272 230.625392 
L 290.566065 227.130554 
z
" clip-path="url(#p68186001e4)" style="fill: #f59e0b; stroke: #b45309; stroke-width: 1.15"/>
    <path d="M 267.5082 246.338207 
L 271.726905 241.281628 
L 272.745328 235.551984 
L 277.835536 235.00962 
L 276.348686 241.224148 
L 283.180946 232.313303 
L 282.299426 241.118967 
L 278.98323 244.153009 
L 276.091576 249.985212 
L 273.192766 252.718259 
z
" clip-path="url(#p68186001e4)" style="fill: #f59e0b; stroke: #b45309; stroke-width: 1.15"/>
    <path d="M 262.925057 226.229953 
L 268.466042 229.087501 
L 274.34046 229.073906 
L 274.16158 232.929842 
L 269.886588 236.84946 
L 264.024095 239.621384 
L 263.698772 235.332081 
L 264.354188 230.623006 
z
" clip-path="url(#p68186001e4)" style="fill: #f59e0b; stroke: #b45309; stroke-width: 1.15"/>
    <path d="M 219.454842 258.761539 
L 223.979789 252.305642 
L 230.648434 246.604619 
L 236.190851 240.218843 
L 241.029196 231.049218 
L 242.673937 238.575771 
L 236.579616 243.658585 
L 231.734593 250.002623 
z
" clip-path="url(#p68186001e4)" style="fill: #f59e0b; stroke: #b45309; stroke-width: 1.15"/>
    <path d="M 248.524028 211.694645 
L 256.431953 212.033563 
L 259.637482 215.357629 
L 257.18945 223.33329 
z
" clip-path="url(#p68186001e4)" style="fill: #f59e0b; stroke: #b45309; stroke-width: 1.15"/>
   </g>
   <g id="PathCollection_2">
    <defs>
     <path id="m3cee88ea0a" d="M 0 3.316625 
C 0.879579 3.316625 1.723251 2.967164 2.345208 2.345208 
C 2.967164 1.723251 3.316625 0.879579 3.316625 0 
C 3.316625 -0.879579 2.967164 -1.723251 2.345208 -2.345208 
C 1.723251 -2.967164 0.879579 -3.316625 0 -3.316625 
C -0.879579 -3.316625 -1.723251 -2.967164 -2.345208 -2.345208 
C -2.967164 -1.723251 -3.316625 -0.879579 -3.316625 0 
C -3.316625 0.879579 -2.967164 1.723251 -2.345208 2.345208 
C -1.723251 2.967164 -0.879579 3.316625 0 3.316625 
z
" style="stroke: #ffffff"/>
    </defs>
    <g clip-path="url(#p68186001e4)">
     <use xlink:href="#m3cee88ea0a" x="264" y="216" style="fill: #f97316; stroke: #ffffff"/>
    </g>
   </g>
   <g id="PathCollection_3">
    <path d="M 264 220.449719 
C 265.180079 220.449719 266.311984 219.980869 267.146427 219.146427 
C 267.980869 218.311984 268.449719 217.180079 268.449719 216 
C 268.449719 214.819921 267.980869 213.688016 267.146427 212.853573 
C 266.311984 212.019131 265.180079 211.550281 264 211.550281 
C 262.819921 211.550281 261.688016 212.019131 260.853573 212.853573 
C 260.019131 213.688016 259.550281 214.819921 259.550281 216 
C 259.550281 217.180079 260.019131 218.311984 260.853573 219.146427 
C 261.688016 219.980869 262.819921 220.449719 264 220.449719 
L 264 220.449719 
z
" clip-path="url(#p68186001e4)" style="fill: none; stroke: #7c2d12; stroke-width: 1.1"/>
   </g>
  </g>
 </g>
 <defs>
  <clipPath id="p68186001e4">
   <rect x="0" y="0" width="528" height="432"/>
  </clipPath>
 </defs>
</svg>
