<?xml version="1.0" encoding="utf-8" standalone="no"?>
<!DOCTYPE svg PUBLIC "-//W3C//DTD SVG 1.1//EN"
  "http://www.w3.org/Graphics/SVG/1.1/DTD/svg11.dtd">
<svg xmlns:xlink="http://www.w3.org/1999/xlink" width="576pt" height="406.588235pt" viewBox="0 0 576 406.588235" xmlns="http://www.w3.org/2000/svg" version="1.1">
 <metadata>
  <rdf:RDF xmlns:dc="http://purl.org/dc/elements/1.1/" xmlns:cc="http://creativecommons.org/ns#" xmlns:rdf="http://www.w3.org/1999/02/22-rdf-syntax-ns#">
   <cc:Work>
    <dc:type rdf:resource="http://purl.org/dc/dcmitype/StillImage"/>
    <dc:date>2026-06-09T04:56:57.788152</dc:date>
    <dc:format>image/svg+xml</dc:format>
    <dc:creator>
     <cc:Agent>
      <dc:title>Matplotlib v3.10.8, https://matplotlib.org/</dc:title>
     </cc:Agent>
    </dc:creator>
   </cc:Work>
  </rdf:RDF>
 </metadata>
 <defs>
  <style type="text/css">*{stroke-linejoin: round; stroke-linecap: butt}</style>
 </defs>
 <g id="figure_1">
  <g id="patch_1">
   <path d="M 0 406.588235 
L 576 406.588235 
L 576 0 
L 0 0 
z
" style="fill: #eaf3ff"/>
  </g>
  <g id="axes_1">
   <g id="PatchCollection_1">
    <path d="M 326.764543 -41.921421 
L 334.023854 -47.298056 
L 329.000188 -63.098598 
L 341.05467 -72.861037 
L 338.50368 -75.818033 
L 357.758682 -85.181082 
L 340.009412 -93.236104 
L 392.018672 -124.647972 
L 398.390267 -133.287882 
L 373.313604 -144.894725 
L 380.239364 -155.93427 
L 364.987983 -168.542201 
L 376.393129 -183.066014 
L 356.689502 -202.35026 
L 372.323459 -215.124091 
L 346.378339 -226.412266 
L 348.851513 -238.273868 
L 362.533553 -239.83488 
L 391.359473 -246.631511 
L 408.836668 -252.524329 
L 436.666786 -242.28288 
L 483.060028 -238.25088 
L 547.070231 -219.090071 
L 560.073092 -211.038438 
L 561.192565 -199.763238 
L 542.385826 -190.862344 
L 514.722918 -186.344979 
L 439.09344 -199.221628 
L 426.654042 -197.068744 
L 454.273751 -184.661365 
L 456.461534 -159.490504 
L 491.509779 -149.926532 
L 493.699256 -158.140969 
L 483.494045 -165.42144 
L 494.276442 -171.83808 
L 535.230212 -161.293384 
L 549.497224 -165.42144 
L 538.095812 -177.82848 
L 577.577054 -194.420838 
L 593.212913 -193.444179 
L 609.031059 -187.523238 
L 618.899464 -199.166231 
L 604.772725 -209.265035 
L 613.066447 -219.396875 
L 600.61248 -229.905148 
L 648 -224.470588 
L 657.679172 -214.983021 
L 636.228762 -212.891633 
L 636.344809 -203.464376 
L 649.679718 -197.664056 
L 675.854005 -201.338259 
L 679.997816 -212.143849 
L 774.507049 -234.76032 
L 787.28544 -233.926306 
L 770.583304 -223.645722 
L 791.598155 -221.878927 
L 803.734814 -227.666711 
L 835.488339 -228.134626 
L 860.645647 -235.157421 
L 879.948762 -224.952395 
L 899.201054 -236.171689 
L 881.449412 -245.985882 
L 890.258824 -251.576471 
L 940.303059 -246.449901 
L 963.751595 -241.154852 
L 1025.147181 -221.799473 
L 1036.472696 -230.664791 
L 1019.256395 -239.622099 
L 1018.761374 -243.215831 
L 998.344885 -244.878099 
L 1003.930052 -252.910249 
L 994.869233 -266.127078 
L 994.356593 -271.549609 
L 1025.61984 -286.890353 
L 1036.738334 -302.287511 
L 1049.336471 -305.618824 
L 1094.188913 -301.151266 
L 1097.720979 -291.728075 
L 1081.662099 -277.987426 
L 1092.199511 -272.586748 
L 1097.650673 -260.744019 
L 1093.801976 -237.529694 
L 1112.490974 -227.1456 
L 1105.220329 -215.837365 
L 1072.037647 -191.774118 
L 1091.401581 -189.278174 
L 1098.140104 -195.376998 
L 1116.779125 -199.727322 
L 1121.277346 -208.110325 
L 1135.939765 -216.177374 
L 1126.067464 -225.808772 
L 1133.971878 -236.993167 
L 1115.44704 -238.387087 
L 1111.372856 -247.809261 
L 1124.890729 -264.820235 
L 1102.889224 -278.634409 
L 1133.209186 -290.053101 
L 1129.286287 -302.099633 
L 1137.735699 -302.484198 
L 1146.638287 -293.09184 
L 1139.954485 -276.743605 
L 1158.083746 -273.648621 
L 1150.358908 -285.865581 
L 1178.710306 -292.526174 
L 1213.869515 -293.42304 
L 1245.176471 -283.764706 
L 1230.110852 -297.874165 
L 1228.423172 -315.922447 
L 1257.882353 -319.341176 
L 1298.630287 -318.59424 
L 1335.342494 -320.813026 
L 1321.573722 -329.669704 
L 1341.179068 -340.795991 
L 1360.642616 -341.261873 
L 1393.581176 -349.665882 
L 1438.315708 -351.924649 
L 1443.967793 -356.564329 
L 1488.451765 -358.136471 
L 1502.313205 -354.332838 
L 1540.334795 -363.335548 
L 1571.457939 -363.054155 
L 1576.127774 -370.366136 
L 1592.315407 -377.577148 
L 1632.309459 -384.529468 
L 1661.364254 -379.040019 
L 1638.296471 -374.864188 
L 1676.670438 -372.268631 
L 1681.242353 -363.896471 
L 1696.7232 -368.019106 
L 1746.250052 -367.792941 
L 1784.439699 -359.529713 
L 1798.037704 -353.183548 
L 1793.823078 -344.376678 
L 1730.562353 -329.95872 
L 1717.835294 -324.931765 
L 1763.901572 -318.286419 
L 1779.15456 -321.49152 
L 1787.795238 -310.617318 
L 1795.236311 -315.019144 
L 1822.325421 -317.695341 
L 1876.681355 -314.897845 
L 1880.809412 -306.974118 
L 1951.634711 -304.453609 
L 1952.602221 -317.393449 
L 1988.555294 -314.428235 
L 2015.600866 -314.521242 
L 2042.957816 -305.596969 
L 2050.756009 -294.754786 
L 2040.734118 -287.661176 
L 2062.012066 -274.329148 
L 2088.653591 -267.450184 
L 2105.000471 -285.226729 
L 2132.176828 -277.605233 
L 2161.049167 -282.159529 
L 2193.840847 -276.948085 
L 2206.318701 -281.698391 
L 2234.030061 -279.323238 
L 2221.799887 -295.050748 
L 2244.166645 -302.390005 
L 2397.176471 -291.388235 
L 2411.596461 -281.332461 
L 2455.943718 -268.385845 
L 2524.351849 -271.590946 
L 2558.080207 -268.800904 
L 2572.184075 -261.796066 
L 2570.123181 -249.407661 
L 2590.992508 -244.584508 
L 2613.668951 -248.053384 
L 2643.712602 -248.497073 
L 2675.69568 -245.172536 
L 2707.804292 -247.047925 
L 2737.315144 -231.989082 
L 2758.309496 -237.407379 
L 2744.609506 -248.234993 
L 2752.152565 -255.761449 
L 2806.202711 -251.024696 
L 2841.442391 -252.038118 
L 2890.164706 -243.952941 
L 2913.882353 -236.560428 
L 2913.882353 -169.068006 
L 2891.9808 -161.532932 
L 2870.026391 -162.774381 
L 2885.302588 -153.756932 
L 2895.386824 -139.79808 
L 2903.215172 -135.234974 
L 2905.180687 -128.226748 
L 2900.808 -123.740047 
L 2869.230494 -127.429835 
L 2821.879736 -114.677365 
L 2806.81632 -112.70304 
L 2756.304 -90.401167 
L 2750.075576 -82.702927 
L 2725.843087 -94.422494 
L 2681.703191 -81.123671 
L 2673.995294 -87.416471 
L 2657.676536 -80.158871 
L 2635.01856 -82.481675 
L 2629.560452 -71.339464 
L 2609.234767 -54.944979 
L 2609.838551 -48.098033 
L 2629.133534 -44.301685 
L 2626.863925 -19.638889 
L 2611.136414 -19.011219 
L 2603.883558 -4.839755 
L 2610.931595 2.454099 
L 2581.306221 11.107821 
L 2575.426955 30.450579 
L 2550.171219 34.582362 
L 2545.092932 51.794428 
L 2520.674089 67.577506 
L 2514.409412 55.905882 
L 2497.699652 -6.455096 
L 2505.844292 -29.950645 
L 2520.138071 -40.0608 
L 2521.0224 -47.978089 
L 2547.348649 -51.768 
L 2577.610842 -73.09728 
L 2606.773384 -90.516706 
L 2637.227689 -104.034071 
L 2650.846024 -127.916216 
L 2630.260292 -126.487398 
L 2620.086946 -112.531765 
L 2577.116838 -93.925779 
L 2563.239304 -114.758852 
L 2519.503285 -109.006645 
L 2477.105958 -80.609167 
L 2491.094118 -70.220329 
L 2427.090014 -64.052725 
L 2428.316894 -76.302381 
L 2401.982852 -78.873544 
L 2380.994428 -70.551191 
L 2329.195256 -73.463209 
L 2273.468951 -68.442014 
L 2153.667219 4.581064 
L 2180.358381 6.716329 
L 2188.688527 17.325402 
L 2205.143153 21.091595 
L 2215.98432 12.6288 
L 2234.566758 13.727774 
L 2259.026428 32.364932 
L 2259.601073 46.778485 
L 2246.356292 63.704414 
L 2244.927473 83.934551 
L 2237.284461 111.020442 
L 2211.750551 135.535341 
L 2206.075087 147.253553 
L 2149.316725 196.547972 
L 2126.742268 206.488038 
L 2116.059162 206.707934 
L 2105.416715 198.473336 
L 2082.678268 210.871228 
L 2080.037647 216.508235 
L 2077.665882 213.543529 
L 2077.561972 204.937164 
L 2086.21589 204.480174 
L 2088.653169 184.463667 
L 2084.191454 169.95456 
L 2098.73146 163.970909 
L 2119.292386 166.970711 
L 2130.685734 150.489707 
L 2136.491576 131.929751 
L 2143.072546 125.729788 
L 2151.975159 110.486458 
L 2123.976212 115.480517 
L 2109.289807 122.163501 
L 2083.548875 122.14368 
L 2076.688263 106.226472 
L 2056.621855 94.182775 
L 2027.137129 88.767191 
L 2020.869837 72.172846 
L 1998.149911 37.392589 
L 1983.273227 31.154064 
L 1957.916668 26.109741 
L 1935.457377 26.568407 
L 1914.4052 29.623323 
L 1900.411855 38.05181 
L 1909.707485 42.078048 
L 1909.917741 51.431548 
L 1900.496414 56.862212 
L 1885.203784 74.830532 
L 1885.357452 82.28528 
L 1861.48367 92.990399 
L 1841.146745 86.594292 
L 1820.934134 88.006408 
L 1812.063978 82.329928 
L 1801.905145 80.499342 
L 1777.09112 92.438422 
L 1754.787912 95.243832 
L 1739.215237 99.442536 
L 1717.876786 96.683963 
L 1702.16754 96.860368 
L 1691.884392 88.20076 
L 1675.292682 80.058986 
L 1658.314019 77.82744 
L 1620.87324 83.18175 
L 1596.805666 76.056395 
L 1593.575322 63.361525 
L 1558.278757 57.023894 
L 1539.300545 50.021093 
L 1521.753709 67.578435 
L 1528.632195 77.549919 
L 1512.165346 89.346918 
L 1487.672809 85.087736 
L 1470.764318 84.478306 
L 1459.441124 76.565027 
L 1441.76544 76.315087 
L 1427.035113 71.116167 
L 1401.266837 79.084599 
L 1368.941368 93.675884 
L 1344.451262 98.005031 
L 1335.462043 87.642217 
L 1313.640338 89.909219 
L 1306.428303 82.718632 
L 1294.583335 79.430406 
L 1286.43018 69.641017 
L 1277.07677 66.592667 
L 1252.73199 70.946327 
L 1229.394865 61.185829 
L 1220.367126 70.055985 
L 1182.509628 27.031087 
L 1160.897158 13.942529 
L 1167.096287 8.631116 
L 1124.636951 24.618071 
L 1108.387969 25.58439 
L 1109.791331 16.337787 
L 1088.032659 10.560191 
L 1070.34575 14.683168 
L 1065.011575 -2.875487 
L 1034.566593 -6.526591 
L 1019.335348 0.501599 
L 976.944621 6.755294 
L 968.671627 10.940141 
L 905.278871 16.835294 
L 897.510773 22.616582 
L 909.740943 34.221237 
L 893.47753 38.626111 
L 896.650196 43.241534 
L 880.391161 51.494054 
L 907.843822 63.145545 
L 903.598718 71.168694 
L 879.802852 70.438123 
L 874.881019 75.46545 
L 853.213892 66.686569 
L 826.356367 67.026918 
L 808.381101 74.173384 
L 750.980729 55.589891 
L 724.517337 56.028497 
L 689.54623 74.454294 
L 687.436372 86.827602 
L 670.014727 77.002757 
L 656.497632 95.615902 
L 661.445729 99.071341 
L 651.666846 111.910831 
L 666.046419 123.402071 
L 678.616941 122.929073 
L 689.416662 134.248182 
L 687.697412 142.965911 
L 696.302005 145.705468 
L 688.581064 155.752264 
L 672.156593 158.544169 
L 655.318758 176.032376 
L 670.717101 192.110231 
L 669.049751 203.521468 
L 687.546974 223.473092 
L 677.431621 230.301416 
L 674.524219 234.611303 
L 667.030286 233.453946 
L 655.387549 223.163794 
L 639.976659 218.669252 
L 634.790612 211.717598 
L 618.990318 208.1733 
L 608.716969 210.833619 
L 605.748536 207.684762 
L 582.6816 199.561976 
L 543.421524 193.923883 
L 541.355439 195.924745 
L 519.755294 181.609412 
L 500.427445 175.219031 
L 485.796028 165.266428 
L 498.124292 162.558889 
L 512.181741 148.389967 
L 502.707727 141.686344 
L 527.678174 134.771294 
L 527.229741 131.067784 
L 512.022291 133.798196 
L 512.557197 126.272745 
L 521.289656 121.542438 
L 537.683762 120.30036 
L 540.349327 114.650936 
L 536.605835 105.309402 
L 543.486308 96.438834 
L 543.287266 91.464565 
L 518.315095 85.951704 
L 508.415398 86.134675 
L 497.959785 78.201261 
L 484.960961 80.884107 
L 463.444791 74.92748 
L 463.814005 71.594428 
L 457.787572 64.248186 
L 444.279231 63.427881 
L 442.875869 58.168995 
L 447.106965 54.738945 
L 436.281032 45.146972 
L 418.714061 46.783644 
L 413.568985 45.932697 
L 409.289336 49.785882 
L 402.962315 49.100951 
L 398.795605 38.25229 
L 394.817517 32.628776 
L 398.077666 31.045892 
L 411.747154 31.633816 
L 418.339364 27.928871 
L 413.459553 23.411938 
L 402.035681 20.43056 
L 403.054716 17.370829 
L 396.160472 14.280457 
L 385.539396 3.188822 
L 389.169927 -1.381515 
L 387.510931 -9.33419 
L 370.948987 -13.374435 
L 362.059571 -11.352124 
L 359.652933 -15.557832 
L 341.817195 -19.806437 
L 336.371837 -29.80506 
L 334.927328 -38.020373 
z
" clip-path="url(#p5effc4f754)" style="fill: #e8edf4; stroke: #b8c5d4; stroke-width: 0.45"/>
    <path d="M 736.191591 -288.252103 
L 753.514309 -291.887011 
L 752.936506 -301.124861 
L 786.538394 -315.57257 
L 770.963969 -317.643907 
L 811.52401 -332.512712 
L 806.940979 -340.202749 
L 844.833496 -349.147319 
L 900.763105 -360.031908 
L 957.148829 -363.202822 
L 986.162434 -369.483369 
L 1019.131365 -371.684275 
L 1030.908047 -364.99445 
L 1019.5297 -359.722871 
L 907.767657 -343.24322 
L 855.141156 -327.11813 
L 803.339339 -294.28971 
L 806.786899 -280.217135 
L 839.19291 -266.323154 
L 829.185531 -264.837062 
L 773.828473 -267.037967 
L 769.332988 -274.559916 
L 738.66739 -279.1018 
z
" clip-path="url(#p5effc4f754)" style="fill: #e8edf4; stroke: #b8c5d4; stroke-width: 0.45"/>
    <path d="M -3184.941176 -169.068006 
L -3184.941176 -236.560428 
L -3143.435294 -223.623529 
L -3099.019765 -206.782136 
L -3100.476706 -196.252518 
L -3089.051238 -192.037722 
L -3092.981421 -204.347689 
L -3046.994428 -201.821591 
L -3013.828179 -185.96736 
L -3030.625186 -178.583548 
L -3058.394824 -176.830475 
L -3058.814118 -160.276913 
L -3065.596179 -156.751454 
L -3081.46176 -157.258165 
L -3094.372292 -163.164706 
L -3116.897449 -168.105261 
L -3120.686005 -175.454174 
L -3137.889769 -178.225242 
L -3157.156461 -176.027633 
L -3166.362127 -181.955689 
L -3162.682334 -188.252216 
L -3182.972104 -184.22784 
L -3175.330108 -176.257864 
z
" clip-path="url(#p5effc4f754)" style="fill: #e8edf4; stroke: #b8c5d4; stroke-width: 0.45"/>
    <path d="M 2263.240816 51.917338 
L 2264.739603 28.766686 
L 2280.399824 20.970719 
L 2273.671041 13.121348 
L 2281.210499 10.742724 
L 2291.477889 38.274177 
L 2291.044536 54.945991 
L 2298.036832 72.040652 
L 2315.08203 102.047028 
L 2290.005366 96.453717 
L 2279.582144 120.933317 
L 2296.096814 138.295431 
L 2295.618813 150.134271 
L 2282.784575 139.92116 
L 2271.676745 153.033793 
L 2268.540848 138.817205 
L 2270.43009 122.313042 
L 2268.498826 104.032571 
L 2272.418259 91.225473 
L 2273.166777 68.572081 
z
" clip-path="url(#p5effc4f754)" style="fill: #e8edf4; stroke: #b8c5d4; stroke-width: 0.45"/>
    <path d="M 414.282484 163.864103 
L 417.274805 160.616148 
L 433.493569 154.985192 
L 430.915563 152.946341 
L 435.379118 148.750766 
L 452.871824 153.052251 
L 455.070361 156.397851 
L 457.626223 156.913832 
L 457.763934 158.379349 
L 466.05191 162.465994 
L 483.331731 161.449586 
L 480.023369 167.493759 
L 461.477634 170.428299 
L 438.480187 180.229069 
L 429.059366 176.78326 
L 432.794952 168.822706 
z
" clip-path="url(#p5effc4f754)" style="fill: #e8edf4; stroke: #b8c5d4; stroke-width: 0.45"/>
    <path d="M 624.230819 -433.521485 
L 657.303054 -436.606605 
L 683.042441 -436.811462 
L 686.504008 -432.246816 
L 696.234741 -436.30282 
L 712.203123 -439.096412 
L 737.329688 -435.383588 
L 730.777749 -432.800982 
L 692.799438 -429.282072 
L 690.436572 -426.50205 
L 670.635428 -423.701893 
L 652.283169 -427.718064 
L 661.93336 -433.006715 
z
" clip-path="url(#p5effc4f754)" style="fill: #e8edf4; stroke: #b8c5d4; stroke-width: 0.45"/>
    <path d="M 1409.185186 -429.314146 
L 1453.174475 -440.887341 
L 1489.822221 -444.712659 
L 1522.738165 -436.184047 
L 1561.750391 -419.80464 
L 1557.567699 -404.571219 
L 1520.605101 -402.457976 
L 1473.417995 -407.346268 
L 1445.300555 -413.813647 
L 1432.298541 -425.965384 
z
" clip-path="url(#p5effc4f754)" style="fill: #e8edf4; stroke: #b8c5d4; stroke-width: 0.45"/>
    <path d="M 2184.977901 -343.256527 
L 2194.081581 -354.903586 
L 2216.432329 -358.081581 
L 2261.166184 -357.338372 
L 2322.402946 -348.355059 
L 2309.082353 -335.774118 
L 2246.633958 -336.243049 
L 2218.539219 -332.241544 
z
" clip-path="url(#p5effc4f754)" style="fill: #e8edf4; stroke: #b8c5d4; stroke-width: 0.45"/>
    <path d="M 197.544962 9.722814 
L 201.404863 2.267401 
L 224.783135 -3.226984 
L 242.525198 -0.259176 
L 250.013879 2.429798 
L 248.206055 7.068858 
L 249.562142 11.392315 
L 218.409789 11.646636 
z
" clip-path="url(#p5effc4f754)" style="fill: #e8edf4; stroke: #b8c5d4; stroke-width: 0.45"/>
    <path d="M 2233.916386 -311.206532 
L 2249.986616 -317.902193 
L 2271.169186 -319.469591 
L 2295.238532 -312.992471 
L 2297.288753 -308.54016 
L 2271.602202 -308.421572 
z
" clip-path="url(#p5effc4f754)" style="fill: #e8edf4; stroke: #b8c5d4; stroke-width: 0.45"/>
    <path d="M 1549.069666 -388.308706 
L 1580.017129 -410.552301 
L 1593.933459 -412.456828 
L 1606.66416 -411.353619 
L 1649.60352 -401.731878 
L 1644.572668 -394.846136 
z
" clip-path="url(#p5effc4f754)" style="fill: #e8edf4; stroke: #b8c5d4; stroke-width: 0.45"/>
    <path d="M -3184.941176 -268.216081 
L -3184.941176 -279.795631 
L -3168.412179 -280.470155 
L -3143.908715 -275.624132 
L -3145.359388 -273.308104 
L -3162.812273 -269.246456 
z
" clip-path="url(#p5effc4f754)" style="fill: #e8edf4; stroke: #b8c5d4; stroke-width: 0.45"/>
    <path d="M 2339.901572 -341.754014 
L 2343.955511 -347.240245 
L 2418.042409 -340.247605 
L 2398.462729 -333.553468 
L 2371.382936 -335.068602 
z
" clip-path="url(#p5effc4f754)" style="fill: #e8edf4; stroke: #b8c5d4; stroke-width: 0.45"/>
    <path d="M 2892.287435 -272.732612 
L 2913.882353 -279.795631 
L 2913.882353 -268.216081 
L 2895.305082 -267.351078 
z
" clip-path="url(#p5effc4f754)" style="fill: #e8edf4; stroke: #b8c5d4; stroke-width: 0.45"/>
    <path d="M -213.32922 106.997752 
L -191.364378 103.312505 
L -162.915006 107.67098 
L -168.285075 88.494914 
L -152.29218 95.762104 
L -112.849225 82.551419 
L -107.762805 68.669257 
L -92.946527 65.248837 
L -90.492614 71.206339 
L -82.617856 71.485611 
L -62.91914 86.272998 
L -54.224951 84.95368 
L -35.614432 94.147757 
L -30.725866 93.789694 
L -22.731169 98.225647 
L 1.681896 101.345785 
L -6.8836 112.9465 
L -9.033729 125.016023 
L -13.685045 127.909855 
L -21.403972 126.350661 
L -20.859436 130.655296 
L -33.24894 140.175043 
L -33.499322 147.84582 
L -25.410075 145.191426 
L -19.590896 152.620576 
L -20.289512 157.407589 
L -15.30377 163.768678 
L -21.177228 168.928637 
L -16.813062 182.036893 
L -7.630367 184.186146 
L -9.568635 191.539568 
L -24.916316 201.11053 
L -58.329106 196.52356 
L -83.004809 202.020133 
L -84.943076 212.221863 
L -104.581385 214.417953 
L -123.643641 206.754618 
L -129.802499 210.417103 
L -160.98812 202.717874 
L -167.740539 196.131354 
L -158.979816 185.969895 
L -155.753747 152.217865 
L -173.235799 134.439032 
L -185.730796 125.867407 
L -211.621637 119.351362 
z
" clip-path="url(#p5effc4f754)" style="fill: #e8edf4; stroke: #b8c5d4; stroke-width: 0.45"/>
    <path d="M -1059.242895 892.599266 
L -1054.922064 885.474776 
L -1050.470352 870.437008 
L -1057.121656 860.398113 
L -1058.461547 848.807904 
L -1049.642167 834.242008 
L -1031.415099 840.115466 
L -1013.477808 854.415222 
L -1010.673274 861.353239 
L -1020.694659 876.856753 
L -1025.897078 889.332051 
L -1032.389486 895.767117 
L -1040.501056 896.977877 
L -1042.811394 892.208811 
L -1046.600821 891.500565 
L -1051.844824 896.094101 
z
" clip-path="url(#p5effc4f754)" style="fill: #e8edf4; stroke: #b8c5d4; stroke-width: 0.45"/>
    <path d="M 9.219603 215.889601 
L 12.638273 209.594171 
L 23.54825 203.124963 
L 26.428512 217.651901 
L 20.83345 230.738708 
L 13.141662 227.289397 
z
" clip-path="url(#p5effc4f754)" style="fill: #e8edf4; stroke: #b8c5d4; stroke-width: 0.45"/>
    <path d="M 444.967342 402.872004 
L 449.896179 397.290512 
L 448.739697 396.329695 
L 453.220299 388.411601 
L 456.656478 375.630329 
L 459.07975 371.341453 
L 465.216722 371.19744 
L 466.776791 368.228756 
L 471.322177 368.005952 
L 471.581313 374.940029 
L 466.655977 382.972371 
L 460.52776 380.625701 
L 456.982149 391.907311 
L 461.238633 393.808809 
L 456.912112 396.139282 
L 456.181979 400.600624 
L 464.14691 398.302543 
L 464.542618 404.893003 
L 456.100561 431.977533 
z
" clip-path="url(#p5effc4f754)" style="fill: #e8edf4; stroke: #b8c5d4; stroke-width: 0.45"/>
    <path d="M 459.547246 371.165923 
L 465.580913 357.366492 
L 474.325878 344.839103 
L 481.945878 345.702744 
L 484.716708 352.346169 
L 475.478859 358.730895 
L 471.322177 368.005952 
L 466.776791 368.228756 
L 465.216722 371.19744 
z
" clip-path="url(#p5effc4f754)" style="fill: #e8edf4; stroke: #b8c5d4; stroke-width: 0.45"/>
    <path d="M 456.181979 400.600624 
L 456.912112 396.139282 
L 461.238633 393.808809 
L 456.982149 391.907311 
L 460.52776 380.625701 
L 466.655977 382.972371 
L 466.648973 393.331684 
L 464.14691 398.302543 
z
" clip-path="url(#p5effc4f754)" style="fill: #e8edf4; stroke: #b8c5d4; stroke-width: 0.45"/>
    <path d="M -8.05584 354.115035 
L 2.388392 344.665762 
L 6.37611 330.693865 
L 3.6902 314.543825 
L 7.131632 305.848761 
L 25.581067 299.011859 
L 37.440042 301.044676 
L 36.942781 309.616301 
L 51.312574 303.38084 
L 52.518082 306.635361 
L 44.047135 314.936469 
L 43.933325 322.772707 
L 49.798905 326.981917 
L 47.568234 341.644114 
L 36.41663 350.161022 
L 39.63657 359.394494 
L 48.398169 359.68252 
L 52.661657 367.73631 
L 59.104164 370.385013 
L 58.146411 383.397406 
L 49.888201 388.261022 
L 44.672213 393.688871 
L 33.039107 400.217173 
L 34.840803 407.234857 
L 33.374408 414.392614 
L 25.109194 418.31905 
L 17.883151 387.907336 
L 7.438918 381.069997 
L 7.292717 376.969344 
L -6.562306 366.876171 
z
" clip-path="url(#p5effc4f754)" style="fill: #e8edf4; stroke: #b8c5d4; stroke-width: 0.45"/>
    <path d="M -282.653361 467.64857 
L -282.479145 443.15934 
L -255.121033 430.657777 
L -238.203653 428.074734 
L -224.337249 423.521906 
L -217.857535 415.038703 
L -198.049825 408.333996 
L -197.322318 395.791725 
L -187.521548 394.314387 
L -179.857775 388.048723 
L -157.686762 385.193412 
L -154.580631 378.609518 
L -159.0446 375.009628 
L -164.896171 357.124865 
L -165.904701 346.821144 
L -172.290303 335.970698 
L -156.004566 326.713151 
L -137.688639 323.768543 
L -126.99315 316.778436 
L -110.678085 311.621979 
L -53.944804 307.22761 
L -45.400319 309.74368 
L -29.446819 303.06655 
L -11.344067 302.935669 
L -4.4542 306.877426 
L 7.131632 305.848761 
L 3.6902 314.543825 
L 6.37611 330.693865 
L 2.388392 344.665762 
L -8.05584 354.115035 
L -6.562306 366.876171 
L 7.292717 376.969344 
L 7.438918 381.069997 
L 17.883151 387.907336 
L 25.109194 418.31905 
L 30.589571 433.276715 
L 31.510554 441.148409 
L 28.526988 454.969289 
L 29.750881 462.693031 
L 27.598126 471.965023 
L 29.075901 482.61674 
L 22.352372 489.696144 
L 32.36938 502.044063 
L 33.005839 509.303374 
L 39.029876 518.750458 
L 46.950159 515.646516 
L 60.321928 523.517773 
L 67.756331 534.127029 
L 9.705483 566.417042 
L -39.344765 599.697199 
L -63.234305 607.251978 
L -82.02692 608.910536 
L -82.221272 598.132315 
L -100.613802 590.531576 
L -104.641792 582.593346 
z
" clip-path="url(#p5effc4f754)" style="fill: #e8edf4; stroke: #b8c5d4; stroke-width: 0.45"/>
    <path d="M 456.100561 431.977533 
L 464.542618 404.893003 
L 464.14691 398.302543 
L 466.648973 393.331684 
L 466.655977 382.972371 
L 469.608027 377.632505 
L 488.482935 384.345529 
L 521.658475 366.290489 
L 528.487935 386.91938 
L 525.25924 389.473971 
L 491.330805 397.975121 
L 508.215793 414.914826 
L 502.612852 417.792024 
L 499.825389 423.465439 
L 486.898353 425.811671 
L 482.8441 431.910998 
L 475.520881 437.124797 
L 456.666984 434.430133 
z
" clip-path="url(#p5effc4f754)" style="fill: #e8edf4; stroke: #b8c5d4; stroke-width: 0.45"/>
    <path d="M 521.658475 366.290489 
L 559.163162 348.660046 
L 565.563647 328.179108 
L 563.966809 315.803611 
L 573.239677 311.618477 
L 581.922484 301.046865 
L 589.199304 298.414358 
L 608.904148 300.600381 
L 614.853771 304.915521 
L 622.972412 302.053774 
L 633.949295 322.262752 
L 645.058002 327.347859 
L 646.336172 337.243616 
L 637.809196 343.090373 
L 633.88276 356.31025 
L 645.61742 372.413015 
L 666.375442 381.699015 
L 675.092393 394.573961 
L 672.315435 406.84484 
L 677.72665 406.840025 
L 677.893863 415.864262 
L 687.26916 424.769874 
L 665.832657 422.528698 
L 653.39938 438.792985 
L 621.902096 437.439963 
L 574.136147 403.369265 
L 548.894022 391.510728 
L 528.487935 386.91938 
z
" clip-path="url(#p5effc4f754)" style="fill: #e8edf4; stroke: #b8c5d4; stroke-width: 0.45"/>
    <path d="M 469.608027 377.632505 
L 471.581313 374.940029 
L 471.322177 368.005952 
L 475.478859 358.730895 
L 484.716708 352.346169 
L 481.945878 345.702744 
L 474.325878 344.839103 
L 472.743923 331.877487 
L 476.890099 324.905764 
L 485.964238 317.482743 
L 486.880844 308.032595 
L 492.425129 311.327387 
L 511.076795 306.614788 
L 520.092278 309.804525 
L 534.029594 309.75156 
L 553.523452 303.394848 
L 562.651869 303.681561 
L 581.922484 301.046865 
L 573.239677 311.618477 
L 563.966809 315.803611 
L 565.563647 328.179108 
L 559.163162 348.660046 
L 521.658475 366.290489 
L 488.482935 384.345529 
z
" clip-path="url(#p5effc4f754)" style="fill: #e8edf4; stroke: #b8c5d4; stroke-width: 0.45"/>
    <path d="M 257.497308 42.573559 
L 267.657016 39.115493 
L 267.754192 32.362198 
L 263.054725 25.91794 
L 262.319339 18.423569 
L 278.693934 18.538692 
L 297.086464 12.156592 
L 301.018153 2.592634 
L 314.907319 -2.832151 
L 313.315734 -10.420635 
L 341.817195 -19.806437 
L 359.652933 -15.557832 
L 362.059571 -11.352124 
L 370.948987 -13.374435 
L 387.510931 -9.33419 
L 389.169927 -1.381515 
L 385.539396 3.188822 
L 396.160472 14.280457 
L 403.054716 17.370829 
L 402.035681 20.43056 
L 413.459553 23.411938 
L 418.339364 27.928871 
L 411.747154 31.633816 
L 398.077666 31.045892 
L 394.817517 32.628776 
L 398.795605 38.25229 
L 402.962696 49.100992 
L 388.419658 50.106013 
L 383.200168 53.825403 
L 382.110221 62.351941 
L 375.371809 60.714832 
L 360.083659 61.526383 
L 355.643328 57.565366 
L 349.286616 60.518729 
L 342.916772 58.070506 
L 329.574769 57.73039 
L 310.666593 53.664756 
L 293.553109 52.337121 
L 280.429095 52.713131 
L 271.144847 57.304479 
L 263.046846 57.965013 
L 262.723801 50.422929 
z
" clip-path="url(#p5effc4f754)" style="fill: #e8edf4; stroke: #b8c5d4; stroke-width: 0.45"/>
    <path d="M 238.626777 111.434581 
L 241.934263 104.605121 
L 246.631979 100.194556 
L 250.32992 101.18295 
L 245.959626 93.569953 
L 261.343201 79.479432 
L 269.75024 77.507897 
L 271.566818 72.755465 
L 263.046846 57.965013 
L 271.144847 57.304479 
L 280.429095 52.713131 
L 293.553109 52.337121 
L 310.666593 53.664756 
L 329.574769 57.73039 
L 342.916772 58.070506 
L 349.286616 60.518729 
L 355.643328 57.565366 
L 360.083659 61.526383 
L 375.371809 60.714832 
L 382.110221 62.351941 
L 383.200168 53.825403 
L 388.419658 50.106013 
L 409.289336 49.785882 
L 413.568985 45.932697 
L 418.714061 46.783644 
L 436.281032 45.146972 
L 447.106965 54.738945 
L 442.875869 58.168995 
L 444.279231 63.427881 
L 457.787572 64.248186 
L 463.814005 71.594428 
L 463.444791 74.92748 
L 484.960961 80.884107 
L 497.959785 78.201261 
L 508.415398 86.134675 
L 518.315095 85.951704 
L 543.287266 91.464565 
L 543.486308 96.438834 
L 536.605835 105.309402 
L 540.349327 114.650936 
L 537.683762 120.30036 
L 521.289656 121.542438 
L 512.557197 126.272745 
L 512.022291 133.798196 
L 498.496441 135.152969 
L 487.225775 140.633784 
L 471.36595 141.52719 
L 456.77379 147.842318 
L 457.626223 156.913832 
L 455.070361 156.397851 
L 452.871824 153.052251 
L 435.379118 148.750766 
L 430.915563 152.946341 
L 428.587494 151.105156 
L 402.25367 146.823283 
L 401.087558 140.505967 
L 385.390568 142.592187 
L 379.103018 151.921522 
L 365.985132 164.442782 
L 358.301223 161.535381 
L 350.339794 164.261124 
L 342.7802 161.139673 
L 347.044564 159.299457 
L 354.641802 148.085696 
L 353.443298 145.052228 
L 356.986283 143.700519 
L 358.655784 146.045437 
L 368.639525 146.541385 
L 373.123629 145.288602 
L 369.964971 143.570951 
L 371.161724 141.046125 
L 365.246244 136.739302 
L 362.797583 129.656834 
L 356.626469 126.885567 
L 357.843358 121.144741 
L 350.189215 116.586661 
L 343.220557 115.952828 
L 330.734752 110.674682 
L 319.473716 112.350312 
L 315.43347 114.848873 
L 308.286218 114.846247 
L 304.025357 118.805951 
L 291.519417 120.433868 
L 285.735256 123.034858 
L 277.870127 118.895247 
L 267.009176 118.832214 
L 256.527298 116.956105 
L 249.213709 120.584009 
L 248.032714 116.043 
z
" clip-path="url(#p5effc4f754)" style="fill: #e8edf4; stroke: #b8c5d4; stroke-width: 0.45"/>
    <path d="M 102.909534 34.199788 
L 107.632638 29.678039 
L 103.674686 21.057389 
L 115.249137 16.082152 
L 163.022089 2.515156 
L 179.92984 5.377033 
L 181.207135 9.508764 
L 218.409789 11.646636 
L 249.562142 11.392315 
L 258.251078 13.204517 
L 262.319339 18.423569 
L 263.054725 25.91794 
L 267.754192 32.362198 
L 267.657016 39.115493 
L 257.497308 42.573559 
L 262.723801 50.422929 
L 263.046846 57.965013 
L 271.566818 72.755465 
L 269.75024 77.507897 
L 261.343201 79.479432 
L 245.959626 93.569953 
L 250.32992 101.18295 
L 230.532278 93.682888 
L 218.337126 96.07727 
L 210.338928 94.337731 
L 200.329798 97.9687 
L 191.786189 91.963923 
L 184.821032 94.263317 
L 176.068188 84.898526 
L 163.472951 83.875114 
L 161.865607 78.570705 
L 150.247383 76.67621 
L 147.718181 81.050882 
L 138.51535 77.546417 
L 139.57203 72.88547 
L 126.905881 71.411634 
L 118.876166 65.957521 
L 111.93202 55.140343 
L 113.252213 49.299714 
L 109.060513 40.237832 
z
" clip-path="url(#p5effc4f754)" style="fill: #e8edf4; stroke: #b8c5d4; stroke-width: 0.45"/>
    <path d="M 25.072425 133.78769 
L 27.663785 129.640638 
L 27.008066 126.63431 
L 32.121625 125.700195 
L 40.694125 130.404914 
L 43.106892 125.933942 
L 58.047484 126.656196 
L 70.159467 123.618352 
L 78.281106 124.138375 
L 83.564504 127.606946 
L 85.143833 124.727997 
L 82.742448 113.689765 
L 88.828643 111.538761 
L 94.801903 103.727911 
L 107.388385 109.18071 
L 116.918638 102.250135 
L 122.881393 100.985096 
L 136.031671 106.155122 
L 143.987848 105.275723 
L 151.797822 108.474652 
L 150.437358 110.625656 
L 152.12612 116.496051 
L 150.84007 123.418747 
L 141.299311 123.452014 
L 144.580534 127.123692 
L 138.956581 138.030167 
L 135.727011 140.889418 
L 120.910734 141.311389 
L 112.361871 145.155095 
L 74.142808 139.467234 
L 70.358197 133.574516 
L 53.615908 136.519124 
L 51.646124 139.74169 
L 32.737949 136.872372 
z
" clip-path="url(#p5effc4f754)" style="fill: #e8edf4; stroke: #b8c5d4; stroke-width: 0.45"/>
    <path d="M 138.956581 138.030167 
L 144.580534 127.123692 
L 141.299311 123.452014 
L 150.84007 123.418747 
L 152.12612 116.496051 
L 166.991423 122.680735 
L 181.211513 120.60502 
L 182.575479 117.202984 
L 207.34398 113.038861 
L 211.316816 109.052893 
L 216.86898 108.019413 
L 235.012004 113.167553 
L 238.626777 111.434581 
L 248.032714 116.043 
L 249.213709 120.584009 
L 238.866653 124.137499 
L 230.849194 135.627031 
L 220.607193 147.115686 
L 207.024438 150.311114 
L 196.450637 149.561283 
L 177.137999 156.545261 
L 163.144654 153.287676 
L 145.09793 143.936455 
L 141.806202 138.217515 
z
" clip-path="url(#p5effc4f754)" style="fill: #e8edf4; stroke: #b8c5d4; stroke-width: 0.45"/>
    <path d="M 315.43347 114.848873 
L 319.473716 112.350312 
L 330.734752 110.674682 
L 343.220557 115.952828 
L 350.189215 116.586661 
L 357.843358 121.144741 
L 356.626469 126.885567 
L 362.797583 129.656834 
L 365.246244 136.739302 
L 371.161724 141.046125 
L 369.964971 143.570951 
L 373.123629 145.288602 
L 368.639525 146.541385 
L 358.655784 146.045437 
L 356.986283 143.700519 
L 353.443298 145.052228 
L 354.641802 148.085696 
L 347.044564 159.299457 
L 342.7802 161.139673 
L 339.745858 153.409365 
L 341.534422 146.175881 
L 340.992512 138.740165 
L 320.597806 116.49999 
z
" clip-path="url(#p5effc4f754)" style="fill: #e8edf4; stroke: #b8c5d4; stroke-width: 0.45"/>
    <path d="M 207.024438 150.311114 
L 220.607193 147.115686 
L 230.849194 135.627031 
L 238.866653 124.137499 
L 256.527298 116.956105 
L 267.009176 118.832214 
L 277.870127 118.895247 
L 285.735256 123.034858 
L 291.519417 120.433868 
L 304.025357 118.805951 
L 308.286218 114.846247 
L 315.43347 114.848873 
L 320.597806 116.49999 
L 340.992512 138.740165 
L 341.534422 146.175881 
L 339.745858 153.409365 
L 342.7802 161.139673 
L 350.339794 164.261124 
L 358.301223 161.535381 
L 365.985132 164.442782 
L 366.379088 168.812201 
L 358.163776 172.457614 
L 353.017825 170.870844 
L 348.278087 191.308885 
L 338.317108 189.529951 
L 325.988886 183.371531 
L 306.045042 187.310223 
L 297.644132 191.631054 
L 272.764447 190.739836 
L 259.747239 188.097699 
L 253.183043 189.338225 
L 245.206731 179.420144 
L 249.132291 176.560893 
L 244.952848 174.451473 
L 239.634431 178.247904 
L 229.756621 173.32607 
L 228.426797 166.342529 
L 218.106005 162.357875 
L 216.206257 156.967233 
z
" clip-path="url(#p5effc4f754)" style="fill: #e8edf4; stroke: #b8c5d4; stroke-width: 0.45"/>
    <path d="M 221.180619 -17.467647 
L 240.584304 -22.663937 
L 268.996469 -21.577491 
L 285.639831 -23.252246 
L 288.015828 -19.728521 
L 297.030435 -18.640325 
L 313.315734 -10.420635 
L 314.907319 -2.832151 
L 301.018153 2.592634 
L 297.086464 12.156592 
L 278.693934 18.538692 
L 262.319339 18.423569 
L 258.251078 13.204517 
L 249.562142 11.392315 
L 248.206055 7.068858 
L 250.013879 2.429798 
L 242.525198 -0.259176 
L 224.783135 -3.226984 
z
" clip-path="url(#p5effc4f754)" style="fill: #e8edf4; stroke: #b8c5d4; stroke-width: 0.45"/>
    <path d="M -34.074499 53.337334 
L -23.897281 53.33033 
L -19.603152 46.953483 
L -15.381686 31.44209 
L -18.548223 25.713958 
L -15.239862 22.126325 
L -1.080179 21.205342 
L 2.061846 24.940928 
L 13.565384 16.589043 
L 9.692351 10.23846 
L 8.914943 0.631167 
L 21.719415 2.865339 
L 32.559355 0.286236 
L 32.858762 6.83336 
L 49.978374 10.781245 
L 49.798029 16.793901 
L 67.023571 13.612481 
L 76.547696 8.972545 
L 95.674736 15.661932 
L 103.674686 21.057389 
L 107.632638 29.678039 
L 102.909534 34.199788 
L 109.060513 40.237832 
L 113.252213 49.299714 
L 111.93202 55.140343 
L 118.876166 65.957521 
L 111.315697 67.725074 
L 106.848227 65.778052 
L 102.599621 69.002807 
L 90.434235 72.28403 
L 84.144058 76.505058 
L 71.832471 80.193807 
L 74.798528 85.229012 
L 76.591469 92.3732 
L 85.236632 96.444963 
L 94.801903 103.727911 
L 88.828643 111.538761 
L 82.742448 113.689765 
L 85.143833 124.727997 
L 83.564504 127.606946 
L 78.281106 124.138375 
L 70.159467 123.618352 
L 58.047484 126.656196 
L 43.106892 125.933942 
L 40.694125 130.404914 
L 32.121625 125.700195 
L 27.008066 126.63431 
L 8.853661 121.454216 
L 5.37546 125.134648 
L -9.033729 125.016023 
L -6.8836 112.9465 
L 1.681896 101.345785 
L -22.731169 98.225647 
L -30.725866 93.789694 
L -29.769864 86.362295 
L -33.15264 82.536537 
L -31.228379 71.089903 
z
" clip-path="url(#p5effc4f754)" style="fill: #e8edf4; stroke: #b8c5d4; stroke-width: 0.45"/>
    <path d="M 243.623024 214.809721 
L 246.409612 212.419279 
L 244.572898 210.403971 
L 247.422519 205.013329 
L 253.880784 199.716798 
L 245.649713 192.404085 
L 244.129916 186.216337 
L 248.309359 182.373069 
L 253.183043 189.338225 
L 259.747239 188.097699 
L 272.764447 190.739836 
L 297.644132 191.631054 
L 306.045042 187.310223 
L 325.988886 183.371531 
L 338.317108 189.529951 
L 348.278087 191.308885 
L 339.485846 198.327444 
L 333.298973 210.445118 
L 338.767969 220.110629 
L 324.181938 217.838374 
L 306.924003 223.167734 
L 306.739281 231.604537 
L 291.340823 233.204002 
L 279.404808 227.284582 
L 265.842188 231.940276 
L 253.31086 231.450457 
L 252.107979 220.247201 
z
" clip-path="url(#p5effc4f754)" style="fill: #e8edf4; stroke: #b8c5d4; stroke-width: 0.45"/>
    <path d="M 205.835564 260.470628 
L 213.712949 252.254002 
L 214.729357 246.748237 
L 220.235122 244.291697 
L 220.574801 239.840861 
L 231.656368 238.340761 
L 238.114633 234.637567 
L 247.295577 234.965864 
L 250.081751 232.0128 
L 265.842188 231.940276 
L 279.404808 227.284582 
L 291.340823 233.204002 
L 306.739281 231.604537 
L 306.924003 223.167734 
L 315.176961 227.653588 
L 309.932082 238.256279 
L 305.905844 240.156026 
L 286.743785 238.073308 
L 266.22739 242.47687 
L 277.970805 252.000119 
L 269.364162 254.761318 
L 259.928459 254.77839 
L 250.966379 246.05356 
L 247.78671 249.771199 
L 251.572197 259.889323 
L 260.047521 267.839809 
L 253.661919 271.551757 
L 263.096747 279.359981 
L 271.482774 284.27306 
L 271.736657 293.844459 
L 256.065931 289.355103 
L 261.063054 297.995451 
L 250.305407 299.773947 
L 256.730405 314.724608 
L 245.478123 314.936469 
L 231.586331 307.567288 
L 225.233121 294.014298 
L 222.268815 282.742757 
L 206.982416 265.294848 
z
" clip-path="url(#p5effc4f754)" style="fill: #e8edf4; stroke: #b8c5d4; stroke-width: 0.45"/>
    <path d="M 262.841988 334.080143 
L 265.976133 326.879926 
L 275.23762 332.588798 
L 288.423792 331.623603 
L 301.031285 332.826047 
L 300.62157 335.774157 
L 309.854166 333.74134 
L 307.73643 338.738901 
L 283.340874 340.179032 
L 283.510713 337.38369 
z
" clip-path="url(#p5effc4f754)" style="fill: #e8edf4; stroke: #b8c5d4; stroke-width: 0.45"/>
    <path d="M 307.834481 263.204688 
L 326.626221 247.00212 
L 352.714916 246.324514 
L 359.830651 233.449568 
L 392.11935 235.692058 
L 412.483415 224.70329 
L 432.225028 219.914088 
L 460.252866 219.553837 
L 489.822388 231.495105 
L 514.125145 238.047482 
L 533.86063 235.435548 
L 548.444036 236.944841 
L 568.44566 228.101824 
L 586.495885 227.296839 
L 602.813576 235.615455 
L 605.692087 241.577773 
L 604.061981 249.821975 
L 616.658969 254.032936 
L 623.333473 258.97972 
L 611.732758 263.805691 
L 617.021409 283.234765 
L 613.706919 288.481394 
L 622.972412 302.053774 
L 614.853771 304.915521 
L 608.904148 300.600381 
L 589.199304 298.414358 
L 581.922484 301.046865 
L 562.651869 303.681561 
L 553.523452 303.394848 
L 534.029594 309.75156 
L 520.092278 309.804525 
L 511.076795 306.614788 
L 492.425129 311.327387 
L 486.880844 308.032595 
L 485.964238 317.482743 
L 476.890099 324.905764 
L 470.661205 317.223607 
L 477.077448 310.860329 
L 466.745274 312.303086 
L 452.575961 308.405103 
L 440.926221 318.155971 
L 415.213973 320.060096 
L 401.499024 310.967573 
L 383.236938 310.398524 
L 379.331513 317.427151 
L 367.623116 319.436769 
L 351.239766 310.416033 
L 332.744808 310.721131 
L 322.708539 293.872474 
L 310.332167 284.473978 
L 318.573744 271.300063 
z
" clip-path="url(#p5effc4f754)" style="fill: #e8edf4; stroke: #b8c5d4; stroke-width: 0.45"/>
    <path d="M 305.675598 243.652174 
L 305.905844 240.156026 
L 309.932082 238.256279 
L 315.176961 227.653588 
L 306.924003 223.167734 
L 324.181938 217.838374 
L 338.767969 220.110629 
L 340.780651 226.624048 
L 355.568914 232.095233 
L 352.485545 236.245349 
L 332.369235 237.179464 
L 311.006271 251.542691 
z
" clip-path="url(#p5effc4f754)" style="fill: #e8edf4; stroke: #b8c5d4; stroke-width: 0.45"/>
    <path d="M 191.511294 216.919141 
L 198.8564 208.575574 
L 199.933215 211.763122 
L 204.491859 210.263209 
L 208.101253 214.809721 
L 212.153506 216.54432 
L 213.293604 222.684918 
L 211.140848 228.450257 
L 213.546611 235.715696 
L 220.574801 239.840861 
L 220.235122 244.291697 
L 214.729357 246.748237 
L 213.712949 252.254002 
L 205.835564 260.470628 
L 202.955302 259.284818 
L 202.616499 255.557549 
L 193.232448 249.86925 
L 191.758174 241.797513 
L 193.18955 230.237945 
L 195.501639 224.97906 
L 192.651143 222.309783 
z
" clip-path="url(#p5effc4f754)" style="fill: #e8edf4; stroke: #b8c5d4; stroke-width: 0.45"/>
    <path d="M 95.835821 167.091923 
L 96.819837 160.935691 
L 108.626285 161.51437 
L 111.728914 158.655119 
L 117.491189 161.420696 
L 124.139428 161.748993 
L 124.076395 157.014508 
L 129.964736 155.280222 
L 131.611476 148.436755 
L 145.09793 143.936455 
L 163.144654 153.287676 
L 177.137999 156.545261 
L 183.469973 154.014398 
L 187.585734 160.576753 
L 192.968059 165.404912 
L 186.445857 171.779557 
L 178.783863 168.02954 
L 167.070214 168.264163 
L 152.506945 165.451311 
L 144.591915 165.826884 
L 140.919362 169.341854 
L 134.841046 165.451311 
L 131.294559 172.483003 
L 143.262092 185.654292 
L 157.508445 195.732582 
L 163.904553 202.810235 
L 178.898824 209.223529 
L 177.03557 212.103676 
L 161.110086 205.835385 
L 151.284803 199.736496 
L 135.790044 194.701291 
L 121.543691 182.232996 
L 124.96236 180.967081 
L 117.238181 173.842153 
L 116.921264 168.123214 
L 106.030547 165.451311 
L 100.838197 172.764025 
z
" clip-path="url(#p5effc4f754)" style="fill: #e8edf4; stroke: #b8c5d4; stroke-width: 0.45"/>
    <path d="M -33.499322 147.84582 
L -33.24894 140.175043 
L -20.859436 130.655296 
L -21.403972 126.350661 
L -13.685045 127.909855 
L -9.033729 125.016023 
L 5.37546 125.134648 
L 8.853661 121.454216 
L 27.008066 126.63431 
L 27.663785 129.640638 
L 25.072425 133.78769 
L 32.737949 136.872372 
L 41.382236 137.332864 
L 40.038406 144.278322 
L 32.575113 147.135822 
L 20.039408 145.012832 
L 16.370357 151.844919 
L 8.300371 152.383327 
L 5.364079 149.698292 
L -4.133782 155.443933 
L -12.301819 156.249356 
L -19.590896 152.620576 
L -25.410075 145.191426 
z
" clip-path="url(#p5effc4f754)" style="fill: #e8edf4; stroke: #b8c5d4; stroke-width: 0.45"/>
    <path d="M -21.177228 168.928637 
L -15.30377 163.768678 
L -20.289512 157.407589 
L -19.590896 152.620576 
L -12.301819 156.249356 
L -4.133782 155.443933 
L 5.364079 149.698292 
L 8.300371 152.383327 
L 16.370357 151.844919 
L 20.039408 145.012832 
L 32.575113 147.135822 
L 40.038406 144.278322 
L 41.382236 137.332864 
L 51.646124 139.74169 
L 53.615908 136.519124 
L 70.358197 133.574516 
L 74.142808 139.467234 
L 98.368525 143.842343 
L 96.532687 152.186348 
L 100.590442 159.399259 
L 87.104863 156.931339 
L 73.331257 162.943995 
L 74.267999 171.35366 
L 72.194036 176.180068 
L 77.747075 184.805096 
L 93.632289 193.337325 
L 102.152262 207.342927 
L 121.003532 220.995281 
L 134.279001 220.890663 
L 138.407668 224.635004 
L 133.654798 228.009901 
L 161.265917 239.257805 
L 175.793293 248.092943 
L 177.547714 251.256854 
L 174.382053 257.323351 
L 164.979617 249.413574 
L 150.261391 246.625673 
L 143.131648 257.5838 
L 155.375825 263.863909 
L 153.36577 272.7043 
L 146.288555 273.708889 
L 137.239805 288.238892 
L 130.177473 289.544202 
L 130.243132 284.364545 
L 133.699447 275.278151 
L 137.38163 271.659439 
L 125.595318 253.298425 
L 118.562751 251.187692 
L 113.561251 243.875854 
L 102.674911 240.795987 
L 95.344688 233.986663 
L 82.809858 232.888837 
L 54.074649 214.213971 
L 42.555352 204.455223 
L 37.271078 187.70812 
L 28.842154 185.738336 
L 15.059794 180.146776 
L 7.260325 182.435665 
L -2.528189 190.297729 
L -9.568635 191.539568 
L -7.630367 184.186146 
L -16.813062 182.036893 
z
" clip-path="url(#p5effc4f754)" style="fill: #e8edf4; stroke: #b8c5d4; stroke-width: 0.45"/>
    <path d="M 75.066418 294.557083 
L 77.437163 285.858955 
L 97.261945 287.407643 
L 127.404017 284.083961 
L 121.302939 297.418523 
L 123.83827 302.667341 
L 120.282154 311.379039 
L 107.326228 304.998252 
L 98.711706 303.170292 
z
" clip-path="url(#p5effc4f754)" style="fill: #e8edf4; stroke: #b8c5d4; stroke-width: 0.45"/>
    <path d="M 2.710561 238.023407 
L 12.028077 238.870852 
L 20.499024 233.61897 
L 30.663109 245.646909 
L 28.28361 268.053858 
L 20.580442 266.984922 
L 13.670439 272.640829 
L 7.255947 268.147533 
L 6.577466 247.708616 
z
" clip-path="url(#p5effc4f754)" style="fill: #e8edf4; stroke: #b8c5d4; stroke-width: 0.45"/>
    <path d="M 1.524314 -26.08961 
L 9.206471 -35.745929 
L 24.132181 -36.797356 
L 30.080053 -41.470997 
L 43.708332 -46.249693 
L 43.134031 -37.537119 
L 38.117648 -32.019098 
L 40.150465 -27.274982 
L 49.335786 -24.710761 
L 45.195738 -18.319906 
L 40.150465 -20.160122 
L 27.952687 -7.962344 
L 32.559355 0.286236 
L 21.719415 2.865339 
L 8.914943 0.631167 
L 2.038208 -8.770831 
z
" clip-path="url(#p5effc4f754)" style="fill: #e8edf4; stroke: #b8c5d4; stroke-width: 0.45"/>
    <path d="M 49.195713 -13.213351 
L 74.048259 -18.828548 
L 79.454222 -10.333964 
L 69.289261 3.387989 
L 51.561205 -6.181222 
z
" clip-path="url(#p5effc4f754)" style="fill: #e8edf4; stroke: #b8c5d4; stroke-width: 0.45"/>
    <path d="M 541.355439 195.924745 
L 543.421524 193.923883 
L 582.6816 199.561976 
L 605.748536 207.684762 
L 608.716969 210.833619 
L 618.990318 208.1733 
L 634.790612 211.717598 
L 639.976659 218.669252 
L 650.625049 222.595621 
L 646.228491 224.931347 
L 654.571621 234.098722 
L 652.263034 236.084702 
L 643.131115 235.077923 
L 630.506988 230.205991 
L 626.35731 232.972881 
L 602.813576 235.615455 
L 586.495885 227.296839 
L 568.44566 228.101824 
L 570.971361 220.863086 
L 566.74114 209.306145 
L 556.949125 203.063243 
L 547.562448 201.114907 
z
" clip-path="url(#p5effc4f754)" style="fill: #e8edf4; stroke: #b8c5d4; stroke-width: 0.45"/>
    <path d="M 96.532687 152.186348 
L 98.368525 143.842343 
L 112.361871 145.155095 
L 120.910734 141.311389 
L 135.727011 140.889418 
L 138.956581 138.030167 
L 141.806202 138.217515 
L 145.09793 143.936455 
L 131.611476 148.436755 
L 129.964736 155.280222 
L 124.076395 157.014508 
L 124.139428 161.748993 
L 117.491189 161.420696 
L 111.728914 158.655119 
L 108.626285 161.51437 
L 96.819837 160.935691 
L 100.590442 159.399259 
z
" clip-path="url(#p5effc4f754)" style="fill: #e8edf4; stroke: #b8c5d4; stroke-width: 0.45"/>
    <path d="M 150.437358 110.625656 
L 154.198332 104.747821 
L 161.703647 105.034972 
L 167.488684 103.282302 
L 167.946549 101.706474 
L 171.190127 100.901927 
L 172.30021 97.047279 
L 176.188126 96.31058 
L 178.813629 93.260916 
L 183.86503 93.240343 
L 184.821032 94.263317 
L 191.786189 91.963923 
L 200.329798 97.9687 
L 210.338928 94.337731 
L 218.337126 96.07727 
L 230.532278 93.682888 
L 246.631979 100.194556 
L 241.934263 104.605121 
L 238.626777 111.434581 
L 235.012004 113.167553 
L 216.86898 108.019413 
L 211.316816 109.052893 
L 207.34398 113.038861 
L 182.575479 117.202984 
L 181.211513 120.60502 
L 166.991423 122.680735 
L 152.12612 116.496051 
z
" clip-path="url(#p5effc4f754)" style="fill: #e8edf4; stroke: #b8c5d4; stroke-width: 0.45"/>
    <path d="M 71.832471 80.193807 
L 84.144058 76.505058 
L 90.434235 72.28403 
L 102.599621 69.002807 
L 106.848227 65.778052 
L 111.315697 67.725074 
L 118.876166 65.957521 
L 126.905881 71.411634 
L 139.57203 72.88547 
L 138.51535 77.546417 
L 147.718181 81.050882 
L 150.247383 76.67621 
L 161.865607 78.570705 
L 163.472951 83.875114 
L 176.068188 84.898526 
L 183.86503 93.240343 
L 178.813629 93.260916 
L 176.188126 96.31058 
L 172.30021 97.047279 
L 171.190127 100.901927 
L 167.946549 101.706474 
L 167.488684 103.282302 
L 161.703647 105.034972 
L 154.198332 104.747821 
L 151.797822 108.474652 
L 143.987848 105.275723 
L 136.031671 106.155122 
L 122.881393 100.985096 
L 116.918638 102.250135 
L 107.388385 109.18071 
L 94.801903 103.727911 
L 85.236632 96.444963 
L 76.591469 92.3732 
L 74.798528 85.229012 
z
" clip-path="url(#p5effc4f754)" style="fill: #e8edf4; stroke: #b8c5d4; stroke-width: 0.45"/>
    <path d="M 451.183105 456.419926 
L 456.666984 434.430133 
L 475.520881 437.124797 
L 482.8441 431.910998 
L 486.898353 425.811671 
L 499.825389 423.465439 
L 502.612852 417.792024 
L 508.215793 414.914826 
L 491.330805 397.975121 
L 525.25924 389.473971 
L 528.487935 386.91938 
L 548.894022 391.510728 
L 574.136147 403.369265 
L 621.902096 437.439963 
L 668.495805 440.427906 
L 672.714644 448.499643 
L 684.696184 448.060162 
L 691.328666 462.669832 
L 699.663041 466.539363 
L 702.566064 472.489424 
L 714.111625 479.610412 
L 715.136788 486.600956 
L 713.448902 492.243293 
L 715.592903 497.934218 
L 720.46396 502.681835 
L 725.253599 512.390244 
L 730.375037 515.751571 
L 735.071002 514.547814 
L 745.424187 542.098089 
L 796.350545 550.639948 
L 799.764837 547.05888 
L 807.529288 559.058804 
L 796.234984 592.941278 
L 745.411931 609.882296 
L 696.564789 616.376455 
L 680.753114 623.999957 
L 668.612241 641.787982 
L 660.705966 644.611777 
L 656.470492 638.964625 
L 649.976333 639.81207 
L 633.599987 638.117618 
L 630.493856 636.423603 
L 610.943093 636.812745 
L 606.350433 638.343924 
L 599.39228 633.939049 
L 594.902923 642.26642 
L 596.640711 649.407982 
L 589.202806 654.812194 
L 587.004527 647.582649 
L 581.895345 642.48047 
L 580.58916 635.72236 
L 571.838941 629.651924 
L 562.809451 615.445841 
L 558.031193 601.64072 
L 546.313167 589.982662 
L 538.757951 587.200452 
L 527.538061 571.054789 
L 525.577907 559.281171 
L 526.300161 549.238775 
L 516.583436 530.454477 
L 508.639516 523.843444 
L 499.487462 520.339855 
L 493.916912 510.632759 
L 494.843149 506.803061 
L 490.135803 498.020451 
L 485.188581 494.238028 
L 478.573608 481.63535 
L 459.617282 456.338508 
z
" clip-path="url(#p5effc4f754)" style="fill: #e8edf4; stroke: #b8c5d4; stroke-width: 0.45"/>
    <path d="M 418.985453 336.451325 
L 422.630867 332.272319 
L 434.833022 332.500814 
L 450.236733 327.44591 
L 438.790099 334.660135 
L 440.023622 337.832363 
L 431.59032 338.817692 
L 430.032002 336.066998 
L 422.166873 337.335539 
z
" clip-path="url(#p5effc4f754)" style="fill: #e8edf4; stroke: #b8c5d4; stroke-width: 0.45"/>
    <path d="M 410.936478 337.074652 
L 422.166873 337.335539 
L 430.032002 336.066998 
L 431.59032 338.817692 
L 438.207919 337.237926 
L 440.553275 339.194578 
L 423.187659 346.076565 
L 414.894431 343.877849 
z
" clip-path="url(#p5effc4f754)" style="fill: #e8edf4; stroke: #b8c5d4; stroke-width: 0.45"/>
    <path d="M 282.918833 422.780781 
L 287.282033 412.321129 
L 284.660386 405.075558 
L 290.792245 396.946165 
L 313.332649 396.666127 
L 354.299802 408.789741 
L 367.342645 403.422607 
L 374.315802 398.568282 
L 389.256226 397.171313 
L 401.301911 399.310306 
L 405.917534 407.713129 
L 409.848904 402.177769 
L 423.426409 406.180461 
L 436.631718 407.139501 
L 444.967454 402.872019 
L 456.100518 431.977468 
L 451.342419 438.786296 
L 447.696847 451.584169 
L 443.088169 460.405271 
L 439.138334 463.3632 
L 425.846287 450.336282 
L 413.758249 426.052292 
L 412.017205 427.588009 
L 419.036951 445.464339 
L 429.437816 462.495981 
L 442.241788 488.883896 
L 453.940009 507.663529 
L 469.142005 526.418089 
L 465.775962 529.371614 
L 466.322485 540.382193 
L 489.027896 559.058824 
L 288 559.058824 
L 288 436.4275 
z
" clip-path="url(#p5effc4f754)" style="fill: #e8edf4; stroke: #b8c5d4; stroke-width: 0.45"/>
    <path d="M 22.352372 489.696144 
L 29.075901 482.61674 
L 27.598126 471.965023 
L 29.750881 462.693031 
L 28.526988 454.969289 
L 31.510554 441.148409 
L 30.589571 433.276715 
L 25.109194 418.31905 
L 33.374408 414.392614 
L 34.840803 407.234857 
L 33.039107 400.217173 
L 44.672213 393.688871 
L 49.888201 388.261022 
L 58.146411 383.397406 
L 59.104164 370.385013 
L 79.001958 376.216433 
L 86.116405 374.758814 
L 100.269402 377.585619 
L 122.749496 385.156292 
L 130.683219 400.213948 
L 169.769054 410.593638 
L 187.816828 419.016452 
L 196.077854 414.621402 
L 204.197929 406.829478 
L 200.250296 393.852028 
L 205.563727 385.611671 
L 217.770692 377.673035 
L 229.434014 375.362259 
L 252.351699 378.828762 
L 258.129318 386.402993 
L 264.437026 386.474654 
L 269.830588 389.364649 
L 286.664019 391.352019 
L 290.792245 396.946165 
L 284.660386 405.075558 
L 287.282033 412.321129 
L 282.918833 422.780781 
L 288 436.4275 
L 288 592.889675 
L 268.517647 592.941176 
L 268.308593 600.048508 
L 133.172047 535.176508 
L 104.084401 550.73581 
L 94.555899 541.431426 
L 67.756331 534.127029 
L 60.321928 523.517773 
L 46.950159 515.646516 
L 39.029876 518.750458 
L 33.005839 509.303374 
L 32.36938 502.044063 
z
" clip-path="url(#p5effc4f754)" style="fill: #e8edf4; stroke: #b8c5d4; stroke-width: 0.45"/>
    <path d="M 131.294559 172.483003 
L 134.841046 165.451311 
L 140.919362 169.341854 
L 144.591915 165.826884 
L 152.506945 165.451311 
L 167.070214 168.264163 
L 178.783863 168.02954 
L 186.445779 171.779633 
L 192.587802 171.732706 
L 188.345393 179.185638 
L 196.513581 185.701214 
L 194.044235 193.669835 
L 186.889129 195.966551 
L 181.380367 199.904019 
L 178.898824 209.223529 
L 163.904553 202.810235 
L 157.508445 195.732582 
L 143.262092 185.654292 
z
" clip-path="url(#p5effc4f754)" style="fill: #e8edf4; stroke: #b8c5d4; stroke-width: 0.45"/>
    <path d="M 211.140848 228.450257 
L 213.293589 222.684837 
L 215.446193 222.825431 
L 216.206005 219.356725 
L 235.771708 215.091275 
L 243.623024 214.809721 
L 252.107979 220.247201 
L 253.31086 231.450457 
L 250.081751 232.0128 
L 247.295577 234.965864 
L 238.114633 234.637567 
L 231.656368 238.340761 
L 220.574801 239.840861 
L 213.546611 235.715696 
z
" clip-path="url(#p5effc4f754)" style="fill: #e8edf4; stroke: #b8c5d4; stroke-width: 0.45"/>
    <path d="M 183.469973 154.014398 
L 196.450637 149.561283 
L 207.024438 150.311114 
L 216.206257 156.967233 
L 218.106005 162.357875 
L 228.426797 166.342529 
L 229.756621 173.32607 
L 239.634431 178.247904 
L 244.952848 174.451473 
L 249.132291 176.560893 
L 245.206731 179.420144 
L 248.309359 182.373069 
L 244.129916 186.216337 
L 245.649713 192.404085 
L 253.880784 199.716798 
L 247.422519 205.013329 
L 244.572898 210.403971 
L 246.409612 212.419279 
L 243.623024 214.809721 
L 230.004186 216.080904 
L 229.439774 214.809882 
L 233.365553 208.669553 
L 230.959398 208.763238 
L 217.092367 198.685271 
L 214.05312 199.622795 
L 211.710325 205.247605 
L 207.657826 206.466353 
L 209.050729 205.013308 
L 197.025882 199.672433 
L 190.054927 194.419652 
L 194.044235 193.669835 
L 196.513581 185.701214 
L 188.345393 179.185638 
L 192.587802 171.732706 
L 186.445779 171.779633 
L 192.968059 165.404912 
L 187.585734 160.576753 
z
" clip-path="url(#p5effc4f754)" style="fill: #e8edf4; stroke: #b8c5d4; stroke-width: 0.45"/>
    <path d="M 177.03558 212.103661 
L 181.380367 199.904019 
L 190.054927 194.419652 
L 197.025882 199.672433 
L 209.050729 205.013308 
L 204.491859 210.263209 
L 199.933215 211.763122 
L 198.8564 208.575574 
L 191.511294 216.919141 
L 192.651131 222.30973 
L 189.105205 220.997308 
L 184.356254 215.466184 
z
" clip-path="url(#p5effc4f754)" style="fill: #e8edf4; stroke: #b8c5d4; stroke-width: 0.45"/>
    <path d="M 204.491859 210.263209 
L 207.657826 206.466353 
L 211.710325 205.247605 
L 214.05312 199.622795 
L 217.092367 198.685271 
L 230.959398 208.763238 
L 233.365553 208.669553 
L 229.439774 214.809882 
L 230.004186 216.080904 
L 216.206005 219.356725 
L 215.446193 222.825431 
L 213.293589 222.684837 
L 212.153506 216.54432 
L 208.101253 214.809721 
z
" clip-path="url(#p5effc4f754)" style="fill: #e8edf4; stroke: #b8c5d4; stroke-width: 0.45"/>
   </g>
   <g id="PathCollection_1">
    <defs>
     <path id="mfde0853250" d="M 0 2.12132 
C 0.562581 2.12132 1.102195 1.897805 1.5 1.5 
C 1.897805 1.102195 2.12132 0.562581 2.12132 0 
C 2.12132 -0.562581 1.897805 -1.102195 1.5 -1.5 
C 1.102195 -1.897805 0.562581 -2.12132 0 -2.12132 
C -0.562581 -2.12132 -1.102195 -1.897805 -1.5 -1.5 
C -1.897805 -1.102195 -2.12132 -0.562581 -2.12132 0 
C -2.12132 0.562581 -1.897805 1.102195 -1.5 1.5 
C -1.102195 1.897805 -0.562581 2.12132 0 2.12132 
z
" style="stroke: #ffffff; stroke-width: 0.5"/>
    </defs>
    <g clip-path="url(#p5effc4f754)">
     <use xlink:href="#mfde0853250" x="203.294118" y="237.176471" style="fill: #8aa0b7; stroke: #ffffff; stroke-width: 0.5"/>
     <use xlink:href="#mfde0853250" x="423.529412" y="338.823529" style="fill: #8aa0b7; stroke: #ffffff; stroke-width: 0.5"/>
     <use xlink:href="#mfde0853250" x="453.176471" y="398.117647" style="fill: #8aa0b7; stroke: #ffffff; stroke-width: 0.5"/>
     <use xlink:href="#mfde0853250" x="471.529412" y="358.588235" style="fill: #8aa0b7; stroke: #ffffff; stroke-width: 0.5"/>
     <use xlink:href="#mfde0853250" x="25.976471" y="131.011765" style="fill: #8aa0b7; stroke: #ffffff; stroke-width: 0.5"/>
     <use xlink:href="#mfde0853250" x="192.695718" y="208.229082" style="fill: #8aa0b7; stroke: #ffffff; stroke-width: 0.5"/>
     <use xlink:href="#mfde0853250" x="237.176471" y="223.058824" style="fill: #8aa0b7; stroke: #ffffff; stroke-width: 0.5"/>
     <use xlink:href="#mfde0853250" x="111.529412" y="324.705882" style="fill: #8aa0b7; stroke: #ffffff; stroke-width: 0.5"/>
     <use xlink:href="#mfde0853250" x="461.362447" y="390.456847" style="fill: #8aa0b7; stroke: #ffffff; stroke-width: 0.5"/>
     <use xlink:href="#mfde0853250" x="115.482353" y="150.494118" style="fill: #8aa0b7; stroke: #ffffff; stroke-width: 0.5"/>
     <use xlink:href="#mfde0853250" x="74.823529" y="190.305882" style="fill: #8aa0b7; stroke: #ffffff; stroke-width: 0.5"/>
     <use xlink:href="#mfde0853250" x="75.445835" y="221.880282" style="fill: #8aa0b7; stroke: #ffffff; stroke-width: 0.5"/>
     <use xlink:href="#mfde0853250" x="218.592" y="210.026541" style="fill: #8aa0b7; stroke: #ffffff; stroke-width: 0.5"/>
    </g>
   </g>
   <g id="PatchCollection_2">
    <defs>
     <path id="m57faa8a138" d="M 243.623024 -191.778514 
L 246.409612 -194.168956 
L 244.572898 -196.184264 
L 247.422519 -201.574906 
L 253.880784 -206.871437 
L 245.649713 -214.184151 
L 244.129916 -220.371899 
L 248.309359 -224.215166 
L 253.183043 -217.25001 
L 259.747239 -218.490536 
L 272.764447 -215.848399 
L 297.644132 -214.957181 
L 306.045042 -219.278012 
L 325.988886 -223.216705 
L 338.317108 -217.058284 
L 348.278087 -215.27935 
L 339.485846 -208.260791 
L 333.298973 -196.143118 
L 338.767969 -186.477606 
L 324.181938 -188.749862 
L 306.924003 -183.420502 
L 306.739281 -174.983698 
L 291.340823 -173.384233 
L 279.404808 -179.303653 
L 265.842188 -174.647959 
L 253.31086 -175.137779 
L 252.107979 -186.341035 
z
" style="stroke: #b45309; stroke-width: 1.15"/>
    </defs>
    <g clip-path="url(#p5effc4f754)">
     <use xlink:href="#m57faa8a138" x="0" y="406.588235" style="fill: #f59e0b; stroke: #b45309; stroke-width: 1.15"/>
    </g>
   </g>
   <g id="PathCollection_2">
    <defs>
     <path id="m8578c8a115" d="M 0 3.316625 
C 0.879579 3.316625 1.723251 2.967164 2.345208 2.345208 
C 2.967164 1.723251 3.316625 0.879579 3.316625 0 
C 3.316625 -0.879579 2.967164 -1.723251 2.345208 -2.345208 
C 1.723251 -2.967164 0.879579 -3.316625 0 -3.316625 
C -0.879579 -3.316625 -1.723251 -2.967164 -2.345208 -2.345208 
C -2.967164 -1.723251 -3.316625 -0.879579 -3.316625 0 
C -3.316625 0.879579 -2.967164 1.723251 -2.345208 2.345208 
C -1.723251 2.967164 -0.879579 3.316625 0 3.316625 
z
" style="stroke: #ffffff"/>
    </defs>
    <g clip-path="url(#p5effc4f754)">
     <use xlink:href="#m8578c8a115" x="288" y="203.294118" style="fill: #f97316; stroke: #ffffff"/>
    </g>
   </g>
   <g id="PathCollection_3">
    <path d="M 288 207.743837 
C 289.180079 207.743837 290.311984 207.274986 291.146427 206.440544 
C 291.980869 205.606102 292.449719 204.474197 292.449719 203.294118 
C 292.449719 202.114038 291.980869 200.982133 291.146427 200.147691 
C 290.311984 199.313249 289.180079 198.844399 288 198.844399 
C 286.819921 198.844399 285.688016 199.313249 284.853573 200.147691 
C 284.019131 200.982133 283.550281 202.114038 283.550281 203.294118 
C 283.550281 204.474197 284.019131 205.606102 284.853573 206.440544 
C 285.688016 207.274986 286.819921 207.743837 288 207.743837 
L 288 207.743837 
z
" clip-path="url(#p5effc4f754)" style="fill: none; stroke: #7c2d12; stroke-width: 1.1"/>
   </g>
  </g>
 </g>
 <defs>
  <clipPath id="p5effc4f754">
   <rect x="0" y="0" width="576" height="406.588235"/>
  </clipPath>
 </defs>
</svg>
