<?xml version="1.0" encoding="utf-8" standalone="no"?>
<!DOCTYPE svg PUBLIC "-//W3C//DTD SVG 1.1//EN"
  "http://www.w3.org/Graphics/SVG/1.1/DTD/svg11.dtd">
<svg xmlns:xlink="http://www.w3.org/1999/xlink" width="576pt" height="406.588235pt" viewBox="0 0 576 406.588235" xmlns="http://www.w3.org/2000/svg" version="1.1">
 <metadata>
  <rdf:RDF xmlns:dc="http://purl.org/dc/elements/1.1/" xmlns:cc="http://creativecommons.org/ns#" xmlns:rdf="http://www.w3.org/1999/02/22-rdf-syntax-ns#">
   <cc:Work>
    <dc:type rdf:resource="http://purl.org/dc/dcmitype/StillImage"/>
    <dc:date>2026-06-09T04:57:01.466137</dc:date>
    <dc:format>image/svg+xml</dc:format>
    <dc:creator>
     <cc:Agent>
      <dc:title>Matplotlib v3.10.8, https://matplotlib.org/</dc:title>
     </cc:Agent>
    </dc:creator>
   </cc:Work>
  </rdf:RDF>
 </metadata>
 <defs>
  <style type="text/css">*{stroke-linejoin: round; stroke-linecap: butt}</style>
 </defs>
 <g id="figure_1">
  <g id="patch_1">
   <path d="M 0 406.588235 
L 576 406.588235 
L 576 0 
L 0 0 
z
" style="fill: #eaf3ff"/>
  </g>
  <g id="axes_1">
   <g id="PatchCollection_1">
    <path d="M 487.70572 72.43152 
L 494.96503 67.054886 
L 489.941365 51.254344 
L 501.995846 41.491904 
L 499.444856 38.534908 
L 518.699859 29.171859 
L 500.950588 21.116838 
L 552.959849 -10.295031 
L 559.331444 -18.934941 
L 534.25478 -30.541784 
L 541.180541 -41.581329 
L 525.92916 -54.18926 
L 537.334306 -68.713073 
L 517.630678 -87.997319 
L 533.264635 -100.77115 
L 507.319516 -112.059325 
L 509.792689 -123.920927 
L 523.474729 -125.481939 
L 552.300649 -132.278569 
L 569.777845 -138.171388 
L 597.607962 -127.929939 
L 644.001205 -123.897939 
L 708.011407 -104.737129 
L 721.014268 -96.685496 
L 722.133741 -85.410296 
L 703.327002 -76.509402 
L 675.664094 -71.992038 
L 600.034616 -84.868687 
L 587.595219 -82.715802 
L 615.214927 -70.308424 
L 617.402711 -45.137562 
L 652.450955 -35.573591 
L 654.640433 -43.788028 
L 644.435221 -51.068499 
L 655.217619 -57.485139 
L 696.171388 -46.940442 
L 710.4384 -51.068499 
L 699.036988 -63.475539 
L 738.518231 -80.067896 
L 754.154089 -79.091238 
L 769.972235 -73.170296 
L 779.84064 -84.813289 
L 765.713901 -94.912094 
L 774.007624 -105.043934 
L 761.553656 -115.552207 
L 808.941176 -110.117647 
L 818.620348 -100.63008 
L 797.169939 -98.538692 
L 797.285986 -89.111435 
L 810.620894 -83.311115 
L 836.795181 -86.985318 
L 840.938993 -97.790908 
L 935.448226 -120.407379 
L 948.226616 -119.573365 
L 931.52448 -109.292781 
L 952.539332 -107.525986 
L 964.675991 -113.313769 
L 996.429515 -113.781685 
L 1021.586824 -120.80448 
L 1040.889939 -110.599454 
L 1060.142231 -121.818748 
L 1042.390588 -131.632941 
L 1051.2 -137.223529 
L 1101.244235 -132.09696 
L 1124.692772 -126.801911 
L 1186.088358 -107.446532 
L 1197.413873 -116.311849 
L 1180.197572 -125.269158 
L 1179.702551 -128.862889 
L 1159.286061 -130.525158 
L 1164.871228 -138.557308 
L 1155.810409 -151.774136 
L 1155.297769 -157.196668 
L 1186.561016 -172.537412 
L 1197.679511 -187.934569 
L 1210.277647 -191.265882 
L 1255.130089 -186.798325 
L 1258.662155 -177.375134 
L 1242.603275 -163.634485 
L 1253.140687 -158.233807 
L 1258.591849 -146.391078 
L 1254.743153 -123.176753 
L 1273.432151 -112.792659 
L 1266.161506 -101.484424 
L 1232.978824 -77.421176 
L 1252.342758 -74.925233 
L 1259.08128 -81.024056 
L 1277.720301 -85.374381 
L 1282.218522 -93.757384 
L 1296.880941 -101.824433 
L 1287.00864 -111.455831 
L 1294.913054 -122.640226 
L 1276.388216 -124.034146 
L 1272.314033 -133.45632 
L 1285.831906 -150.467294 
L 1263.8304 -164.281468 
L 1294.150362 -175.70016 
L 1290.227464 -187.746692 
L 1298.676875 -188.131256 
L 1307.579464 -178.738899 
L 1300.895661 -162.390664 
L 1319.024922 -159.29568 
L 1311.300085 -171.51264 
L 1339.651482 -178.173233 
L 1374.810692 -179.070099 
L 1406.117647 -169.411765 
L 1391.052028 -183.521224 
L 1389.364348 -201.569506 
L 1418.823529 -204.988235 
L 1459.571464 -204.241299 
L 1496.283671 -206.460085 
L 1482.514899 -215.316762 
L 1502.120245 -226.443049 
L 1521.583793 -226.908932 
L 1554.522353 -235.312941 
L 1599.256885 -237.571708 
L 1604.908969 -242.211388 
L 1649.392941 -243.783529 
L 1663.254381 -239.979896 
L 1701.275972 -248.982607 
L 1732.399115 -248.701214 
L 1737.068951 -256.013195 
L 1753.256584 -263.224207 
L 1793.250635 -270.176527 
L 1822.305431 -264.687078 
L 1799.237647 -260.511247 
L 1837.611614 -257.915689 
L 1842.183529 -249.543529 
L 1857.664376 -253.666165 
L 1907.191228 -253.44 
L 1945.380875 -245.176772 
L 1958.97888 -238.830607 
L 1954.764254 -230.023736 
L 1891.503529 -215.605779 
L 1878.776471 -210.578824 
L 1924.842748 -203.933478 
L 1940.095736 -207.138579 
L 1948.736414 -196.264376 
L 1956.177487 -200.666202 
L 1983.266598 -203.3424 
L 2037.622532 -200.544904 
L 2041.750588 -192.621176 
L 2112.575887 -190.100668 
L 2113.543398 -203.040508 
L 2149.496471 -200.075294 
L 2176.542042 -200.168301 
L 2203.898993 -191.244028 
L 2211.697186 -180.401845 
L 2201.675294 -173.308235 
L 2222.953242 -159.976207 
L 2249.594767 -153.097242 
L 2265.941647 -170.873788 
L 2293.118005 -163.252292 
L 2321.990344 -167.806588 
L 2354.782024 -162.595144 
L 2367.259878 -167.345449 
L 2394.971238 -164.970296 
L 2382.741064 -180.697807 
L 2405.107821 -188.037064 
L 2558.117647 -177.035294 
L 2572.537638 -166.97952 
L 2616.884894 -154.032904 
L 2685.293026 -157.238005 
L 2719.021384 -154.447962 
L 2733.125252 -147.443125 
L 2731.064358 -135.05472 
L 2751.933685 -130.231567 
L 2774.610127 -133.700442 
L 2804.653779 -134.144132 
L 2836.636856 -130.819595 
L 2868.745468 -132.694984 
L 2898.25632 -117.636141 
L 2919.250673 -123.054438 
L 2905.550682 -133.882052 
L 2913.093741 -141.408508 
L 2967.143887 -136.671755 
L 3002.383567 -137.685176 
L 3051.105882 -129.6 
L 3074.823529 -122.207487 
L 3074.823529 -54.715065 
L 3052.921976 -47.179991 
L 3030.967567 -48.42144 
L 3046.243765 -39.403991 
L 3056.328 -25.445139 
L 3064.156348 -20.882033 
L 3066.121864 -13.873807 
L 3061.749176 -9.387106 
L 3030.171671 -13.076894 
L 2982.820913 -0.324424 
L 2967.757496 1.649901 
L 2917.245176 23.951774 
L 2911.016753 31.650014 
L 2886.784264 19.930447 
L 2842.644367 33.229271 
L 2834.936471 26.936471 
L 2818.617713 34.194071 
L 2795.959736 31.871266 
L 2790.501628 43.013478 
L 2770.175944 59.407962 
L 2770.779727 66.254908 
L 2790.074711 70.051256 
L 2787.805101 94.714052 
L 2772.077591 95.341722 
L 2764.824734 109.513186 
L 2771.872772 116.80704 
L 2742.247398 125.460762 
L 2736.368132 144.80352 
L 2711.112395 148.935304 
L 2706.034108 166.147369 
L 2681.615266 181.930447 
L 2675.350588 170.258824 
L 2658.640828 107.897845 
L 2666.785468 84.402296 
L 2681.079247 74.292141 
L 2681.963576 66.374852 
L 2708.289826 62.584941 
L 2738.552019 41.255661 
L 2767.71456 23.836235 
L 2798.168866 10.318871 
L 2811.7872 -13.563275 
L 2791.201468 -12.134456 
L 2781.028122 1.821176 
L 2738.058014 20.427162 
L 2724.18048 -0.405911 
L 2680.444461 5.346296 
L 2638.047134 33.743774 
L 2652.035294 44.132612 
L 2588.031191 50.300216 
L 2589.258071 38.05056 
L 2562.924028 35.479398 
L 2541.935605 43.801751 
L 2490.136433 40.889732 
L 2434.410127 45.910927 
L 2314.608395 118.934005 
L 2341.299558 121.069271 
L 2349.629704 131.678344 
L 2366.084329 135.444536 
L 2376.925496 126.981741 
L 2395.507934 128.080715 
L 2419.967605 146.717873 
L 2420.542249 161.131426 
L 2407.297468 178.057355 
L 2405.868649 198.287492 
L 2398.225638 225.373384 
L 2372.691727 249.888282 
L 2367.016264 261.606494 
L 2310.257901 310.900913 
L 2287.683445 320.840979 
L 2277.000339 321.060875 
L 2266.357892 312.826278 
L 2243.619445 325.224169 
L 2240.978824 330.861176 
L 2238.607059 327.896471 
L 2238.503149 319.290105 
L 2247.157066 318.833115 
L 2249.594346 298.816608 
L 2245.132631 284.307501 
L 2259.672636 278.32385 
L 2280.233562 281.323652 
L 2291.62691 264.842649 
L 2297.432753 246.282692 
L 2304.013722 240.082729 
L 2312.916336 224.8394 
L 2284.917388 229.833459 
L 2270.230984 236.516442 
L 2244.490052 236.496621 
L 2237.62944 220.579413 
L 2217.563031 208.535716 
L 2188.078306 203.120132 
L 2181.811014 186.525787 
L 2159.091087 151.74553 
L 2144.214403 145.507005 
L 2118.857845 140.462682 
L 2096.398553 140.921348 
L 2075.346377 143.976264 
L 2061.353031 152.404751 
L 2070.648661 156.43099 
L 2070.858918 165.784489 
L 2061.437591 171.215153 
L 2046.14496 189.183473 
L 2046.298629 196.638221 
L 2022.424847 207.34334 
L 2002.087921 200.947233 
L 1981.875311 202.359349 
L 1973.005155 196.682869 
L 1962.846322 194.852283 
L 1938.032296 206.791363 
L 1915.729088 209.596773 
L 1900.156414 213.795477 
L 1878.817962 211.036904 
L 1863.108716 211.213309 
L 1852.825568 202.553701 
L 1836.233859 194.411927 
L 1819.255196 192.180381 
L 1781.814417 197.534691 
L 1757.746842 190.409336 
L 1754.516499 177.714466 
L 1719.219934 171.376835 
L 1700.241722 164.374034 
L 1682.694886 181.931376 
L 1689.573371 191.90286 
L 1673.106522 203.699859 
L 1648.613986 199.440678 
L 1631.705495 198.831247 
L 1620.382301 190.917968 
L 1602.706616 190.668028 
L 1587.97629 185.469108 
L 1562.208013 193.437541 
L 1529.882544 208.028825 
L 1505.392439 212.357973 
L 1496.40322 201.995158 
L 1474.581515 204.26216 
L 1467.369479 197.071573 
L 1455.524511 193.783347 
L 1447.371356 183.993958 
L 1438.017946 180.945608 
L 1413.673167 185.299269 
L 1390.336041 175.53877 
L 1381.308303 184.408926 
L 1343.450805 141.384028 
L 1321.838335 128.29547 
L 1328.037464 122.984057 
L 1285.578127 138.971012 
L 1269.329146 139.937332 
L 1270.732507 130.690728 
L 1248.973836 124.913132 
L 1231.286926 129.036109 
L 1225.952751 111.477455 
L 1195.507769 107.82635 
L 1180.276524 114.85454 
L 1137.885798 121.108235 
L 1129.612804 125.293082 
L 1066.220047 131.188235 
L 1058.451949 136.969524 
L 1070.682119 148.574178 
L 1054.418707 152.979053 
L 1057.591372 157.594475 
L 1041.332337 165.846995 
L 1068.784998 177.498486 
L 1064.539895 185.521635 
L 1040.744029 184.791064 
L 1035.822195 189.818391 
L 1014.155068 181.039511 
L 987.297544 181.379859 
L 969.322278 188.526325 
L 911.921905 169.942832 
L 885.458514 170.381438 
L 850.487406 188.807235 
L 848.377549 201.180543 
L 830.955904 191.355698 
L 817.438808 209.968844 
L 822.386905 213.424282 
L 812.608022 226.263772 
L 826.987595 237.755012 
L 839.558118 237.282014 
L 850.357838 248.601123 
L 848.638588 257.318852 
L 857.243181 260.058409 
L 849.52224 270.105205 
L 833.097769 272.897111 
L 816.259934 290.385318 
L 831.658278 306.463172 
L 829.990927 317.874409 
L 848.488151 337.826033 
L 838.372797 344.654357 
L 835.465396 348.964244 
L 827.971462 347.806887 
L 816.328725 337.516735 
L 800.917835 333.022193 
L 795.731788 326.070539 
L 779.931494 322.526241 
L 769.658146 325.18656 
L 766.689713 322.037704 
L 743.622776 313.914918 
L 704.3627 308.276824 
L 702.296616 310.277687 
L 680.696471 295.962353 
L 661.368621 289.571972 
L 646.737205 279.619369 
L 659.065468 276.911831 
L 673.122918 262.742908 
L 663.648904 256.039285 
L 688.619351 249.124235 
L 688.170918 245.420725 
L 672.963468 248.151137 
L 673.498374 240.625686 
L 682.230833 235.895379 
L 698.624939 234.653301 
L 701.290504 229.003878 
L 697.547012 219.662344 
L 704.427484 210.791776 
L 704.228442 205.817506 
L 679.256271 200.304645 
L 669.356575 200.487616 
L 658.900961 192.554202 
L 645.902138 195.237048 
L 624.385968 189.280421 
L 624.755181 185.947369 
L 618.728748 178.601128 
L 605.220407 177.780822 
L 603.817046 172.521936 
L 608.048142 169.091886 
L 597.222209 159.499913 
L 579.655237 161.136585 
L 574.510161 160.285638 
L 570.230513 164.138824 
L 563.903492 163.453892 
L 559.736781 152.605231 
L 555.758693 146.981717 
L 559.018842 145.398833 
L 572.68833 145.986757 
L 579.280541 142.281812 
L 574.400729 137.764879 
L 562.976857 134.783501 
L 563.995892 131.72377 
L 557.101648 128.633398 
L 546.480573 117.541763 
L 550.111104 112.971426 
L 548.452108 105.018752 
L 531.890164 100.978506 
L 523.000747 103.000817 
L 520.594109 98.79511 
L 502.758371 94.546504 
L 497.313013 84.547881 
L 495.868505 76.332568 
z
" clip-path="url(#pe885d3c5af)" style="fill: #e8edf4; stroke: #b8c5d4; stroke-width: 0.45"/>
    <path d="M 897.132767 -173.899162 
L 914.455485 -177.53407 
L 913.877682 -186.771919 
L 947.479571 -201.219628 
L 931.905145 -203.290966 
L 972.465187 -218.159771 
L 967.882156 -225.849808 
L 1005.774672 -234.794378 
L 1061.704281 -245.678967 
L 1118.090005 -248.849881 
L 1147.10361 -255.130428 
L 1180.072542 -257.331333 
L 1191.849224 -250.641509 
L 1180.470876 -245.369929 
L 1068.708833 -228.890279 
L 1016.082333 -212.765189 
L 964.280515 -179.936769 
L 967.728075 -165.864194 
L 1000.134086 -151.970213 
L 990.126708 -150.484121 
L 934.769649 -152.685026 
L 930.274164 -160.206974 
L 899.608567 -164.748859 
z
" clip-path="url(#pe885d3c5af)" style="fill: #e8edf4; stroke: #b8c5d4; stroke-width: 0.45"/>
    <path d="M -3024 -54.715065 
L -3024 -122.207487 
L -2982.494118 -109.270588 
L -2938.078588 -92.429195 
L -2939.535529 -81.899576 
L -2928.110061 -77.684781 
L -2932.040245 -89.994748 
L -2886.053252 -87.468649 
L -2852.887002 -71.614419 
L -2869.684009 -64.230607 
L -2897.453647 -62.477534 
L -2897.872941 -45.923972 
L -2904.655002 -42.398513 
L -2920.520584 -42.905224 
L -2933.431115 -48.811765 
L -2955.956273 -53.75232 
L -2959.744828 -61.101233 
L -2976.948593 -63.872301 
L -2996.215285 -61.674692 
L -3005.420951 -67.602748 
L -3001.741158 -73.899275 
L -3022.030927 -69.874899 
L -3014.388932 -61.904922 
z
" clip-path="url(#pe885d3c5af)" style="fill: #e8edf4; stroke: #b8c5d4; stroke-width: 0.45"/>
    <path d="M 2424.181993 166.27028 
L 2425.68078 143.119627 
L 2441.341 135.32366 
L 2434.612218 127.474289 
L 2442.151676 125.095666 
L 2452.419065 152.627118 
L 2451.985713 169.298932 
L 2458.978008 186.393593 
L 2476.023206 216.399969 
L 2450.946542 210.806658 
L 2440.523321 235.286259 
L 2457.03799 252.648372 
L 2456.559989 264.487212 
L 2443.725752 254.274101 
L 2432.617921 267.386734 
L 2429.482025 253.170146 
L 2431.371267 236.665983 
L 2429.440003 218.385512 
L 2433.359435 205.578414 
L 2434.107953 182.925022 
z
" clip-path="url(#pe885d3c5af)" style="fill: #e8edf4; stroke: #b8c5d4; stroke-width: 0.45"/>
    <path d="M 575.223661 278.217044 
L 578.215982 274.969089 
L 594.434746 269.338134 
L 591.856739 267.299282 
L 596.320295 263.103707 
L 613.813 267.405192 
L 616.011537 270.750792 
L 618.567399 271.266773 
L 618.705111 272.73229 
L 626.993087 276.818935 
L 644.272907 275.802527 
L 640.964546 281.8467 
L 622.41881 284.78124 
L 599.421363 294.58201 
L 590.000543 291.136201 
L 593.736129 283.175647 
z
" clip-path="url(#pe885d3c5af)" style="fill: #e8edf4; stroke: #b8c5d4; stroke-width: 0.45"/>
    <path d="M 785.171995 -319.168544 
L 818.244231 -322.253663 
L 843.983617 -322.458521 
L 847.445184 -317.893875 
L 857.175917 -321.949879 
L 873.1443 -324.74347 
L 898.270865 -321.030646 
L 891.718925 -318.448041 
L 853.740614 -314.929131 
L 851.377749 -312.149109 
L 831.576604 -309.348952 
L 813.224346 -313.365122 
L 822.874536 -318.653774 
z
" clip-path="url(#pe885d3c5af)" style="fill: #e8edf4; stroke: #b8c5d4; stroke-width: 0.45"/>
    <path d="M 1570.126362 -314.961205 
L 1614.115652 -326.5344 
L 1650.763398 -330.359718 
L 1683.679341 -321.831106 
L 1722.691567 -305.451699 
L 1718.508875 -290.218278 
L 1681.546278 -288.105035 
L 1634.359172 -292.993327 
L 1606.241732 -299.460706 
L 1593.239718 -311.612442 
z
" clip-path="url(#pe885d3c5af)" style="fill: #e8edf4; stroke: #b8c5d4; stroke-width: 0.45"/>
    <path d="M 2345.919078 -228.903586 
L 2355.022758 -240.550645 
L 2377.373506 -243.72864 
L 2422.10736 -242.985431 
L 2483.344122 -234.002118 
L 2470.023529 -221.421176 
L 2407.575134 -221.890108 
L 2379.480395 -217.888602 
z
" clip-path="url(#pe885d3c5af)" style="fill: #e8edf4; stroke: #b8c5d4; stroke-width: 0.45"/>
    <path d="M 358.486138 124.075755 
L 362.346039 116.620342 
L 385.724311 111.125957 
L 403.466375 114.093765 
L 410.955056 116.782739 
L 409.147232 121.4218 
L 410.503319 125.745257 
L 379.350966 125.999578 
z
" clip-path="url(#pe885d3c5af)" style="fill: #e8edf4; stroke: #b8c5d4; stroke-width: 0.45"/>
    <path d="M 2394.857562 -196.853591 
L 2410.927793 -203.549252 
L 2432.110362 -205.116649 
L 2456.179708 -198.639529 
L 2458.229929 -194.187219 
L 2432.543379 -194.068631 
z
" clip-path="url(#pe885d3c5af)" style="fill: #e8edf4; stroke: #b8c5d4; stroke-width: 0.45"/>
    <path d="M 1710.010842 -273.955765 
L 1740.958306 -296.19936 
L 1754.874635 -298.103887 
L 1767.605336 -297.000678 
L 1810.544696 -287.378936 
L 1805.513845 -280.493195 
z
" clip-path="url(#pe885d3c5af)" style="fill: #e8edf4; stroke: #b8c5d4; stroke-width: 0.45"/>
    <path d="M -3024 -153.86314 
L -3024 -165.44269 
L -3007.471002 -166.117214 
L -2982.967539 -161.271191 
L -2984.418212 -158.955162 
L -3001.871096 -154.893515 
z
" clip-path="url(#pe885d3c5af)" style="fill: #e8edf4; stroke: #b8c5d4; stroke-width: 0.45"/>
    <path d="M 2500.842748 -227.401073 
L 2504.896687 -232.887304 
L 2578.983586 -225.894664 
L 2559.403906 -219.200527 
L 2532.324113 -220.715661 
z
" clip-path="url(#pe885d3c5af)" style="fill: #e8edf4; stroke: #b8c5d4; stroke-width: 0.45"/>
    <path d="M 3053.228612 -158.379671 
L 3074.823529 -165.44269 
L 3074.823529 -153.86314 
L 3056.246259 -152.998136 
z
" clip-path="url(#pe885d3c5af)" style="fill: #e8edf4; stroke: #b8c5d4; stroke-width: 0.45"/>
    <path d="M 109.98344 -3.743967 
L 125.583254 -14.645189 
L 170.316611 -28.867905 
L 203.763544 -46.351708 
L 275.482942 -102.674399 
L 350.411774 -136.671995 
L 387.587289 -144.087575 
L 415.461046 -143.188041 
L 441.259088 -157.222533 
L 472.15143 -156.473139 
L 502.569272 -159.848036 
L 555.559088 -147.452404 
L 533.739134 -142.92015 
L 552.300009 -132.278418 
L 523.474729 -125.481939 
L 509.792689 -123.920927 
L 516.969706 -135.808792 
L 495.229419 -142.546329 
L 468.925361 -136.805065 
L 460.61725 -124.384045 
L 444.46327 -116.886609 
L 426.274723 -120.981134 
L 404.152735 -120.142443 
L 385.325977 -129.09927 
L 375.172397 -124.623483 
L 364.663381 -123.927055 
L 362.177951 -112.780704 
L 330.249065 -115.494628 
L 325.764962 -106.061114 
L 309.496297 -106.118457 
L 281.36603 -75.284333 
L 255.061097 -51.450822 
L 261.231336 -45.663597 
L 255.335991 -38.949697 
L 238.530669 -39.239474 
L 227.529644 -23.350321 
L 228.571441 -0.853199 
L 239.39825 7.732433 
L 233.794433 27.649138 
L 219.697783 39.262984 
L 212.228362 49.025234 
L 200.864022 38.629151 
L 167.412712 58.221936 
L 144.825855 62.193021 
L 121.397682 53.565367 
L 115.339502 35.352306 
z
" clip-path="url(#pe885d3c5af)" style="fill: #e8edf4; stroke: #b8c5d4; stroke-width: 0.45"/>
    <path d="M 202.354391 -303.287548 
L 248.540104 -309.353675 
L 257.819633 -303.423078 
L 281.948951 -303.658899 
L 288.382024 -309.448885 
L 313.256753 -310.038099 
L 390.389591 -291.491746 
L 347.757798 -284.825224 
L 338.344433 -272.358042 
L 323.481769 -269.160734 
L 315.414212 -255.124122 
L 294.999247 -254.464094 
L 258.566231 -264.796518 
L 273.931369 -270.815718 
L 248.537224 -275.716461 
L 215.530899 -290.021082 
z
" clip-path="url(#pe885d3c5af)" style="fill: #e8edf4; stroke: #b8c5d4; stroke-width: 0.45"/>
    <path d="M 319.646375 -314.578947 
L 371.960336 -319.309931 
L 396.558123 -315.23598 
L 413.690867 -320.309268 
L 456.524477 -316.077296 
L 489.727156 -310.13205 
L 464.605844 -301.008011 
L 415.473303 -299.011963 
L 365.509075 -301.837946 
L 362.494867 -306.505897 
L 338.184231 -306.802678 
z
" clip-path="url(#pe885d3c5af)" style="fill: #e8edf4; stroke: #b8c5d4; stroke-width: 0.45"/>
    <path d="M 376.534758 -269.822795 
L 388.225864 -274.193619 
L 377.989835 -279.607849 
L 413.098052 -283.001336 
L 419.825054 -276.641619 
L 444.267445 -272.818165 
L 406.424245 -265.890579 
z
" clip-path="url(#pe885d3c5af)" style="fill: #e8edf4; stroke: #b8c5d4; stroke-width: 0.45"/>
    <path d="M -52.388044 221.350693 
L -30.423201 217.665446 
L -1.97383 222.023922 
L -7.343899 202.847855 
L 8.648996 210.115045 
L 48.091951 196.904361 
L 53.178371 183.022198 
L 67.994649 179.601778 
L 70.448562 185.55928 
L 78.323321 185.838552 
L 98.022036 200.625939 
L 106.716225 199.306622 
L 125.326745 208.500698 
L 130.215311 208.142635 
L 138.210007 212.578588 
L 162.623073 215.698726 
L 154.057576 227.299441 
L 151.907448 239.368964 
L 147.256131 242.262796 
L 139.537204 240.703602 
L 140.08174 245.008237 
L 127.692236 254.527984 
L 127.441855 262.198761 
L 135.531101 259.544367 
L 141.350281 266.973517 
L 140.651664 271.76053 
L 145.637406 278.121619 
L 139.763948 283.281578 
L 144.128114 296.389834 
L 153.310809 298.539087 
L 151.372542 305.89251 
L 136.02486 315.463471 
L 102.612071 310.876501 
L 77.936368 316.373074 
L 75.9981 326.574804 
L 56.359791 328.770894 
L 37.297535 321.107559 
L 31.138677 324.770044 
L -0.046943 317.070815 
L -6.799363 310.484295 
L 1.961361 300.322836 
L 5.187429 266.570806 
L -12.294623 248.791973 
L -24.789619 240.220349 
L -50.68046 233.704303 
z
" clip-path="url(#pe885d3c5af)" style="fill: #e8edf4; stroke: #b8c5d4; stroke-width: 0.45"/>
    <path d="M -898.301718 1006.952207 
L -893.980888 999.827718 
L -889.529176 984.789949 
L -896.18048 974.751054 
L -897.520371 963.160845 
L -888.700991 948.594949 
L -870.473923 954.468407 
L -852.536632 968.768163 
L -849.732097 975.70618 
L -859.753483 991.209694 
L -864.955901 1003.684992 
L -871.448309 1010.120058 
L -879.55988 1011.330818 
L -881.870218 1006.561753 
L -885.659644 1005.853506 
L -890.903647 1010.447042 
z
" clip-path="url(#pe885d3c5af)" style="fill: #e8edf4; stroke: #b8c5d4; stroke-width: 0.45"/>
    <path d="M 170.16078 330.242542 
L 173.579449 323.947112 
L 184.489426 317.477904 
L 187.369688 332.004842 
L 181.774626 345.091649 
L 174.082838 341.642338 
z
" clip-path="url(#pe885d3c5af)" style="fill: #e8edf4; stroke: #b8c5d4; stroke-width: 0.45"/>
    <path d="M 212.228362 49.025234 
L 219.697783 39.262984 
L 233.794433 27.649138 
L 239.39825 7.732433 
L 228.571441 -0.853199 
L 227.529644 -23.350321 
L 238.530669 -39.239474 
L 255.335991 -38.949697 
L 261.231336 -45.663597 
L 255.061097 -51.450822 
L 281.36603 -75.284333 
L 309.496297 -106.118457 
L 325.764962 -106.061114 
L 330.249065 -115.494628 
L 362.177951 -112.780704 
L 364.663381 -123.927055 
L 375.172397 -124.623483 
L 424.198132 -104.798264 
L 424.645492 -78.709569 
L 430.363119 -72.117358 
L 401.220821 -67.31984 
L 384.793698 -55.499385 
L 387.438461 -45.124314 
L 327.774141 -16.931014 
L 315.437165 6.926134 
L 327.495745 18.862588 
L 343.697875 28.259333 
L 328.137457 47.371491 
L 310.517958 51.334696 
L 304.055315 79.774 
L 294.434015 95.644768 
L 273.882602 94.008534 
L 264.294569 107.44465 
L 244.679897 108.224685 
L 239.295821 92.209465 
L 225.113376 72.985686 
z
" clip-path="url(#pe885d3c5af)" style="fill: #e8edf4; stroke: #b8c5d4; stroke-width: 0.45"/>
    <path d="M 418.438484 156.9265 
L 428.598192 153.468435 
L 428.695368 146.715139 
L 423.995901 140.270882 
L 423.260515 132.77651 
L 439.635111 132.891633 
L 458.027641 126.509533 
L 461.95933 116.945575 
L 475.848496 111.52079 
L 474.25691 103.932306 
L 502.758371 94.546504 
L 520.594109 98.79511 
L 523.000747 103.000817 
L 531.890164 100.978506 
L 548.452108 105.018752 
L 550.111104 112.971426 
L 546.480573 117.541763 
L 557.101648 128.633398 
L 563.995892 131.72377 
L 562.976857 134.783501 
L 574.400729 137.764879 
L 579.280541 142.281812 
L 572.68833 145.986757 
L 559.018842 145.398833 
L 555.758693 146.981717 
L 559.736781 152.605231 
L 563.903872 163.453933 
L 549.360835 164.458954 
L 544.141345 168.178344 
L 543.051398 176.704882 
L 536.312985 175.067773 
L 521.024835 175.879324 
L 516.584504 171.918307 
L 510.227792 174.87167 
L 503.857949 172.423447 
L 490.515945 172.083331 
L 471.607769 168.017697 
L 454.494286 166.690063 
L 441.370272 167.066072 
L 432.086023 171.65742 
L 423.988022 172.317954 
L 423.664978 164.77587 
z
" clip-path="url(#pe885d3c5af)" style="fill: #e8edf4; stroke: #b8c5d4; stroke-width: 0.45"/>
    <path d="M 399.567953 225.787522 
L 402.875439 218.958062 
L 407.573155 214.547497 
L 411.271097 215.535891 
L 406.900803 207.922895 
L 422.284378 193.832373 
L 430.691416 191.860838 
L 432.507995 187.108406 
L 423.988022 172.317954 
L 432.086023 171.65742 
L 441.370272 167.066072 
L 454.494286 166.690063 
L 471.607769 168.017697 
L 490.515945 172.083331 
L 503.857949 172.423447 
L 510.227792 174.87167 
L 516.584504 171.918307 
L 521.024835 175.879324 
L 536.312985 175.067773 
L 543.051398 176.704882 
L 544.141345 168.178344 
L 549.360835 164.458954 
L 570.230513 164.138824 
L 574.510161 160.285638 
L 579.655237 161.136585 
L 597.222209 159.499913 
L 608.048142 169.091886 
L 603.817046 172.521936 
L 605.220407 177.780822 
L 618.728748 178.601128 
L 624.755181 185.947369 
L 624.385968 189.280421 
L 645.902138 195.237048 
L 658.900961 192.554202 
L 669.356575 200.487616 
L 679.256271 200.304645 
L 704.228442 205.817506 
L 704.427484 210.791776 
L 697.547012 219.662344 
L 701.290504 229.003878 
L 698.624939 234.653301 
L 682.230833 235.895379 
L 673.498374 240.625686 
L 672.963468 248.151137 
L 659.437618 249.50591 
L 648.166951 254.986725 
L 632.307126 255.880131 
L 617.714966 262.195259 
L 618.567399 271.266773 
L 616.011537 270.750792 
L 613.813 267.405192 
L 596.320295 263.103707 
L 591.856739 267.299282 
L 589.52867 265.458097 
L 563.194847 261.176224 
L 562.028734 254.858908 
L 546.331745 256.945128 
L 540.044194 266.274463 
L 526.926308 278.795723 
L 519.242399 275.888322 
L 511.28097 278.614065 
L 503.721377 275.492614 
L 507.98574 273.652398 
L 515.582979 262.438637 
L 514.384474 259.405169 
L 517.927459 258.05346 
L 519.596961 260.398378 
L 529.580701 260.894326 
L 534.064805 259.641543 
L 530.906147 257.923892 
L 532.1029 255.399066 
L 526.18742 251.092243 
L 523.73876 244.009775 
L 517.567645 241.238508 
L 518.784534 235.497682 
L 511.130391 230.939602 
L 504.161733 230.305769 
L 491.675929 225.027623 
L 480.414893 226.703253 
L 476.374647 229.201815 
L 469.227395 229.199188 
L 464.966533 233.158892 
L 452.460593 234.786809 
L 446.676432 237.387799 
L 438.811303 233.248189 
L 427.950352 233.185156 
L 417.468475 231.309046 
L 410.154886 234.93695 
L 408.973891 230.395941 
z
" clip-path="url(#pe885d3c5af)" style="fill: #e8edf4; stroke: #b8c5d4; stroke-width: 0.45"/>
    <path d="M 263.850711 148.552729 
L 268.573815 144.03098 
L 264.615862 135.41033 
L 276.190313 130.435094 
L 323.963266 116.868097 
L 340.871016 119.729974 
L 342.148312 123.861705 
L 379.350966 125.999578 
L 410.503319 125.745257 
L 419.192255 127.557458 
L 423.260515 132.77651 
L 423.995901 140.270882 
L 428.695368 146.715139 
L 428.598192 153.468435 
L 418.438484 156.9265 
L 423.664978 164.77587 
L 423.988022 172.317954 
L 432.507995 187.108406 
L 430.691416 191.860838 
L 422.284378 193.832373 
L 406.900803 207.922895 
L 411.271097 215.535891 
L 391.473454 208.035829 
L 379.278303 210.430211 
L 371.280104 208.690673 
L 361.270975 212.321641 
L 352.727365 206.316864 
L 345.762209 208.616259 
L 337.009364 199.251468 
L 324.414127 198.228055 
L 322.806784 192.923646 
L 311.18856 191.029151 
L 308.659357 195.403823 
L 299.456526 191.899358 
L 300.513206 187.238412 
L 287.847057 185.764575 
L 279.817342 180.310462 
L 272.873197 169.493284 
L 274.19339 163.652656 
L 270.001689 154.590774 
z
" clip-path="url(#pe885d3c5af)" style="fill: #e8edf4; stroke: #b8c5d4; stroke-width: 0.45"/>
    <path d="M 186.013601 248.140631 
L 188.604962 243.993579 
L 187.949242 240.987251 
L 193.062802 240.053136 
L 201.635302 244.757855 
L 204.048068 240.286884 
L 218.988661 241.009138 
L 231.100644 237.971293 
L 239.222282 238.491316 
L 244.505681 241.959887 
L 246.08501 239.080938 
L 243.683624 228.042706 
L 249.769819 225.891702 
L 255.74308 218.080852 
L 268.329562 223.533652 
L 277.859814 216.603076 
L 283.82257 215.338037 
L 296.972848 220.508063 
L 304.929024 219.628664 
L 312.738999 222.827594 
L 311.378535 224.978598 
L 313.067296 230.848992 
L 311.781246 237.771688 
L 302.240488 237.804956 
L 305.52171 241.476633 
L 299.897758 252.383108 
L 296.668188 255.242359 
L 281.85191 255.664331 
L 273.303047 259.508036 
L 235.083985 253.820175 
L 231.299373 247.927457 
L 214.557085 250.872065 
L 212.587301 254.094632 
L 193.679125 251.225313 
z
" clip-path="url(#pe885d3c5af)" style="fill: #e8edf4; stroke: #b8c5d4; stroke-width: 0.45"/>
    <path d="M 299.897758 252.383108 
L 305.52171 241.476633 
L 302.240488 237.804956 
L 311.781246 237.771688 
L 313.067296 230.848992 
L 327.932599 237.033676 
L 342.152689 234.957961 
L 343.516655 231.555925 
L 368.285157 227.391802 
L 372.257992 223.405835 
L 377.810157 222.372355 
L 395.953181 227.520494 
L 399.567953 225.787522 
L 408.973891 230.395941 
L 410.154886 234.93695 
L 399.807829 238.49044 
L 391.790371 249.979972 
L 381.548369 261.468628 
L 367.965614 264.664055 
L 357.391814 263.914224 
L 338.079176 270.898202 
L 324.08583 267.640617 
L 306.039107 258.289396 
L 302.747379 252.570457 
z
" clip-path="url(#pe885d3c5af)" style="fill: #e8edf4; stroke: #b8c5d4; stroke-width: 0.45"/>
    <path d="M 476.374647 229.201815 
L 480.414893 226.703253 
L 491.675929 225.027623 
L 504.161733 230.305769 
L 511.130391 230.939602 
L 518.784534 235.497682 
L 517.567645 241.238508 
L 523.73876 244.009775 
L 526.18742 251.092243 
L 532.1029 255.399066 
L 530.906147 257.923892 
L 534.064805 259.641543 
L 529.580701 260.894326 
L 519.596961 260.398378 
L 517.927459 258.05346 
L 514.384474 259.405169 
L 515.582979 262.438637 
L 507.98574 273.652398 
L 503.721377 275.492614 
L 500.687034 267.762306 
L 502.475598 260.528822 
L 501.933689 253.093106 
L 481.538983 230.852931 
z
" clip-path="url(#pe885d3c5af)" style="fill: #e8edf4; stroke: #b8c5d4; stroke-width: 0.45"/>
    <path d="M 367.965614 264.664055 
L 381.548369 261.468628 
L 391.790371 249.979972 
L 399.807829 238.49044 
L 417.468475 231.309046 
L 427.950352 233.185156 
L 438.811303 233.248189 
L 446.676432 237.387799 
L 452.460593 234.786809 
L 464.966533 233.158892 
L 469.227395 229.199188 
L 476.374647 229.201815 
L 481.538983 230.852931 
L 501.933689 253.093106 
L 502.475598 260.528822 
L 500.687034 267.762306 
L 503.721377 275.492614 
L 511.28097 278.614065 
L 519.242399 275.888322 
L 526.926308 278.795723 
L 527.320265 283.165142 
L 519.104952 286.810555 
L 513.959001 285.223785 
L 509.219263 305.661826 
L 499.258284 303.882892 
L 486.930063 297.724472 
L 466.986218 301.663165 
L 458.585308 305.983995 
L 433.705623 305.092777 
L 420.688415 302.45064 
L 414.124219 303.691167 
L 406.147907 293.773085 
L 410.073468 290.913834 
L 405.894024 288.804415 
L 400.575607 292.600845 
L 390.697797 287.679011 
L 389.367974 280.69547 
L 379.047181 276.710816 
L 377.147434 271.320174 
z
" clip-path="url(#pe885d3c5af)" style="fill: #e8edf4; stroke: #b8c5d4; stroke-width: 0.45"/>
    <path d="M 382.121795 96.885295 
L 401.525481 91.689004 
L 429.937645 92.77545 
L 446.581007 91.100696 
L 448.957004 94.62442 
L 457.971611 95.712616 
L 474.25691 103.932306 
L 475.848496 111.52079 
L 461.95933 116.945575 
L 458.027641 126.509533 
L 439.635111 132.891633 
L 423.260515 132.77651 
L 419.192255 127.557458 
L 410.503319 125.745257 
L 409.147232 121.4218 
L 410.955056 116.782739 
L 403.466375 114.093765 
L 385.724311 111.125957 
z
" clip-path="url(#pe885d3c5af)" style="fill: #e8edf4; stroke: #b8c5d4; stroke-width: 0.45"/>
    <path d="M 382.121795 96.885295 
L 382.708353 84.132037 
L 391.033973 73.493015 
L 407.000605 67.707541 
L 420.453792 80.364935 
L 434.045302 80.035324 
L 437.30026 67.02906 
L 451.729585 64.034988 
L 473.735136 72.400004 
L 487.70572 72.43152 
L 495.868505 76.332568 
L 497.313013 84.547881 
L 502.758371 94.546504 
L 474.25691 103.932306 
L 457.971611 95.712616 
L 448.957004 94.62442 
L 446.581007 91.100696 
L 429.937645 92.77545 
L 401.525481 91.689004 
z
" clip-path="url(#pe885d3c5af)" style="fill: #e8edf4; stroke: #b8c5d4; stroke-width: 0.45"/>
    <path d="M 420.815357 43.416164 
L 442.236101 38.696124 
L 463.581556 36.235645 
L 481.96183 39.035802 
L 499.444973 38.534852 
L 501.995846 41.491904 
L 489.941365 51.254344 
L 494.96503 67.054886 
L 487.70572 72.43152 
L 473.735136 72.400004 
L 451.729585 64.034988 
L 437.30026 67.02906 
L 439.266542 57.033938 
L 433.036772 59.169184 
L 422.285253 53.148648 
z
" clip-path="url(#pe885d3c5af)" style="fill: #e8edf4; stroke: #b8c5d4; stroke-width: 0.45"/>
    <path d="M 126.866678 167.690275 
L 137.043895 167.683271 
L 141.338024 161.306424 
L 145.55949 145.795031 
L 142.392953 140.0669 
L 145.701315 136.479266 
L 159.860998 135.558283 
L 163.003022 139.293869 
L 174.506561 130.941985 
L 170.633528 124.591401 
L 169.85612 114.984108 
L 182.660591 117.218281 
L 193.500531 114.639177 
L 193.799939 121.186301 
L 210.91955 125.134186 
L 210.739206 131.146842 
L 227.964748 127.965422 
L 237.488872 123.325486 
L 256.615913 130.014873 
L 264.615862 135.41033 
L 268.573815 144.03098 
L 263.850711 148.552729 
L 270.001689 154.590774 
L 274.19339 163.652656 
L 272.873197 169.493284 
L 279.817342 180.310462 
L 272.256873 182.078015 
L 267.789403 180.130993 
L 263.540798 183.355748 
L 251.375412 186.636971 
L 245.085235 190.857999 
L 232.773647 194.546748 
L 235.739704 199.581954 
L 237.532645 206.726141 
L 246.177808 210.797904 
L 255.74308 218.080852 
L 249.769819 225.891702 
L 243.683624 228.042706 
L 246.08501 239.080938 
L 244.505681 241.959887 
L 239.222282 238.491316 
L 231.100644 237.971293 
L 218.988661 241.009138 
L 204.048068 240.286884 
L 201.635302 244.757855 
L 193.062802 240.053136 
L 187.949242 240.987251 
L 169.794837 235.807157 
L 166.316637 239.487589 
L 151.907448 239.368964 
L 154.057576 227.299441 
L 162.623073 215.698726 
L 138.210007 212.578588 
L 130.215311 208.142635 
L 131.171313 200.715236 
L 127.788537 196.889478 
L 129.712797 185.442844 
z
" clip-path="url(#pe885d3c5af)" style="fill: #e8edf4; stroke: #b8c5d4; stroke-width: 0.45"/>
    <path d="M 404.564201 329.162662 
L 407.350789 326.77222 
L 405.514075 324.756912 
L 408.363695 319.36627 
L 414.821961 314.06974 
L 406.59089 306.757026 
L 405.071092 300.569278 
L 409.250536 296.72601 
L 414.124219 303.691167 
L 420.688415 302.45064 
L 433.705623 305.092777 
L 458.585308 305.983995 
L 466.986218 301.663165 
L 486.930063 297.724472 
L 499.258284 303.882892 
L 509.219263 305.661826 
L 500.427023 312.680385 
L 494.24015 324.798059 
L 499.709146 334.46357 
L 485.123114 332.191315 
L 467.86518 337.520675 
L 467.680458 345.957479 
L 452.282 347.556943 
L 440.345984 341.637523 
L 426.783365 346.293217 
L 414.252036 345.803398 
L 413.049155 334.600142 
z
" clip-path="url(#pe885d3c5af)" style="fill: #e8edf4; stroke: #b8c5d4; stroke-width: 0.45"/>
    <path d="M 366.77674 374.823569 
L 374.654125 366.606943 
L 375.670534 361.101178 
L 381.176299 358.644639 
L 381.515977 354.193802 
L 392.597544 352.693702 
L 399.055809 348.990508 
L 408.236754 349.318806 
L 411.022927 346.365741 
L 426.783365 346.293217 
L 440.345984 341.637523 
L 452.282 347.556943 
L 467.680458 345.957479 
L 467.86518 337.520675 
L 476.118137 342.00653 
L 470.873259 352.60922 
L 466.84702 354.508968 
L 447.684962 352.426249 
L 427.168567 356.829811 
L 438.911981 366.35306 
L 430.305338 369.114259 
L 420.869635 369.131331 
L 411.907556 360.406501 
L 408.727887 364.12414 
L 412.513374 374.242264 
L 420.988698 382.19275 
L 414.603096 385.904698 
L 424.037923 393.712922 
L 432.42395 398.626001 
L 432.677834 408.197401 
L 417.007108 403.708044 
L 422.004231 412.348392 
L 411.246584 414.126888 
L 417.671581 429.077549 
L 406.4193 429.28941 
L 392.527507 421.920229 
L 386.174297 408.36724 
L 383.209991 397.095698 
L 367.923592 379.647789 
z
" clip-path="url(#pe885d3c5af)" style="fill: #e8edf4; stroke: #b8c5d4; stroke-width: 0.45"/>
    <path d="M 423.783165 448.433084 
L 426.91731 441.232867 
L 436.178797 446.941739 
L 449.364968 445.976545 
L 461.972462 447.178988 
L 461.562746 450.127098 
L 470.795343 448.094281 
L 468.677606 453.091842 
L 444.28205 454.531973 
L 444.451889 451.736631 
z
" clip-path="url(#pe885d3c5af)" style="fill: #e8edf4; stroke: #b8c5d4; stroke-width: 0.45"/>
    <path d="M 468.775658 377.557629 
L 487.567397 361.355061 
L 513.656092 360.677456 
L 520.771827 347.80251 
L 553.060527 350.044999 
L 573.424592 339.056231 
L 593.166205 334.267029 
L 621.194042 333.906778 
L 650.763564 345.848046 
L 675.066322 352.400423 
L 694.801807 349.78849 
L 709.385212 351.297782 
L 729.386837 342.454765 
L 747.437062 341.64978 
L 763.754752 349.968397 
L 766.633263 355.930714 
L 765.003158 364.174917 
L 777.600145 368.385877 
L 784.274649 373.332661 
L 772.673934 378.158632 
L 777.962586 397.587706 
L 774.648096 402.834335 
L 783.913589 416.406716 
L 775.794948 419.268462 
L 769.845325 414.953322 
L 750.140481 412.767299 
L 742.863661 415.399806 
L 723.593045 418.034502 
L 714.464628 417.747789 
L 694.97077 424.104501 
L 681.033454 424.157466 
L 672.017972 420.967729 
L 653.366306 425.680328 
L 647.82202 422.385536 
L 646.905414 431.835684 
L 637.831276 439.258706 
L 631.602381 431.576548 
L 638.018624 425.21327 
L 627.68645 426.656028 
L 613.517138 422.758044 
L 601.867397 432.508912 
L 576.15515 434.413037 
L 562.4402 425.320514 
L 544.178114 424.751465 
L 540.272689 431.780092 
L 528.564293 433.78971 
L 512.180943 424.768974 
L 493.685984 425.074072 
L 483.649716 408.225415 
L 471.273344 398.826919 
L 479.51492 385.653004 
z
" clip-path="url(#pe885d3c5af)" style="fill: #e8edf4; stroke: #b8c5d4; stroke-width: 0.45"/>
    <path d="M 466.616774 358.005115 
L 466.84702 354.508968 
L 470.873259 352.60922 
L 476.118137 342.00653 
L 467.86518 337.520675 
L 485.123114 332.191315 
L 499.709146 334.46357 
L 501.721827 340.976989 
L 516.51009 346.448174 
L 513.426722 350.59829 
L 493.310412 351.532405 
L 471.947448 365.895632 
z
" clip-path="url(#pe885d3c5af)" style="fill: #e8edf4; stroke: #b8c5d4; stroke-width: 0.45"/>
    <path d="M 352.452471 331.272082 
L 359.797576 322.928515 
L 360.874392 326.116063 
L 365.433035 324.616151 
L 369.042429 329.162662 
L 373.094682 330.897261 
L 374.23478 337.037859 
L 372.082025 342.803198 
L 374.487788 350.068637 
L 381.515977 354.193802 
L 381.176299 358.644639 
L 375.670534 361.101178 
L 374.654125 366.606943 
L 366.77674 374.823569 
L 363.896478 373.637759 
L 363.557675 369.91049 
L 354.173624 364.222191 
L 352.69935 356.150454 
L 354.130727 344.590886 
L 356.442815 339.332001 
L 353.592319 336.662724 
z
" clip-path="url(#pe885d3c5af)" style="fill: #e8edf4; stroke: #b8c5d4; stroke-width: 0.45"/>
    <path d="M 256.776997 281.444864 
L 257.761014 275.288632 
L 269.567462 275.867311 
L 272.67009 273.00806 
L 278.432365 275.773637 
L 285.080605 276.101934 
L 285.017572 271.367449 
L 290.905913 269.633163 
L 292.552652 262.789696 
L 306.039107 258.289396 
L 324.08583 267.640617 
L 338.079176 270.898202 
L 344.411149 268.367339 
L 348.52691 274.929694 
L 353.909235 279.757853 
L 347.387033 286.132498 
L 339.72504 282.382481 
L 328.011391 282.617104 
L 313.448121 279.804253 
L 305.533091 280.179825 
L 301.860538 283.694795 
L 295.782223 279.804253 
L 292.235736 286.835944 
L 304.203268 300.007233 
L 318.449621 310.085523 
L 324.845729 317.163176 
L 339.84 323.576471 
L 337.976747 326.456617 
L 322.051262 320.188327 
L 312.225979 314.089438 
L 296.731221 309.054232 
L 282.484867 296.585937 
L 285.903537 295.320022 
L 278.179357 288.195095 
L 277.862441 282.476155 
L 266.971724 279.804253 
L 261.779373 287.116966 
z
" clip-path="url(#pe885d3c5af)" style="fill: #e8edf4; stroke: #b8c5d4; stroke-width: 0.45"/>
    <path d="M 127.441855 262.198761 
L 127.692236 254.527984 
L 140.08174 245.008237 
L 139.537204 240.703602 
L 147.256131 242.262796 
L 151.907448 239.368964 
L 166.316637 239.487589 
L 169.794837 235.807157 
L 187.949242 240.987251 
L 188.604962 243.993579 
L 186.013601 248.140631 
L 193.679125 251.225313 
L 202.323413 251.685805 
L 200.979582 258.631263 
L 193.51629 261.488763 
L 180.980584 259.365774 
L 177.311533 266.19786 
L 169.241547 266.736268 
L 166.305256 264.051233 
L 156.807395 269.796874 
L 148.639357 270.602297 
L 141.350281 266.973517 
L 135.531101 259.544367 
z
" clip-path="url(#pe885d3c5af)" style="fill: #e8edf4; stroke: #b8c5d4; stroke-width: 0.45"/>
    <path d="M 121.53688 207.029926 
L 123.372719 197.528563 
L 127.788537 196.889478 
L 131.171313 200.715236 
L 130.215311 208.142635 
L 125.326745 208.500698 
z
" clip-path="url(#pe885d3c5af)" style="fill: #e8edf4; stroke: #b8c5d4; stroke-width: 0.45"/>
    <path d="M 67.994649 179.601778 
L 81.571276 176.259711 
L 93.973911 177.589972 
L 109.67703 174.070187 
L 120.400534 181.485767 
L 129.712797 185.442844 
L 127.788537 196.889478 
L 123.372719 197.528563 
L 121.53688 207.029926 
L 106.716225 199.306622 
L 98.022036 200.625939 
L 78.323321 185.838552 
L 70.448562 185.55928 
z
" clip-path="url(#pe885d3c5af)" style="fill: #e8edf4; stroke: #b8c5d4; stroke-width: 0.45"/>
    <path d="M 81.571276 176.260149 
L 90.301359 171.604892 
L 105.136896 146.680121 
L 128.315564 139.588461 
L 142.392953 140.0669 
L 145.55949 145.795031 
L 141.338024 161.306424 
L 137.043895 167.683271 
L 126.866678 167.690275 
L 129.712797 185.442844 
L 120.400534 181.485767 
L 109.67703 174.070187 
L 93.973911 177.589972 
z
" clip-path="url(#pe885d3c5af)" style="fill: #e8edf4; stroke: #b8c5d4; stroke-width: 0.45"/>
    <path d="M -133.714735 317.196006 
L -109.748154 304.969338 
L -89.017272 308.026005 
L -66.271957 307.918761 
L -48.245807 310.812155 
L -6.799363 310.484295 
L -0.046943 317.070815 
L 31.138677 324.770044 
L 37.297535 321.107559 
L 56.359791 328.770894 
L 75.9981 326.574804 
L 76.904201 336.415845 
L 60.850024 347.699205 
L 39.143004 351.279835 
L 37.631961 356.979077 
L 27.219245 366.371007 
L 20.690067 380.16037 
L 27.297161 389.84164 
L 17.498142 397.39992 
L 13.834343 408.411888 
L 1.043879 411.788098 
L -10.951668 424.814498 
L -48.602557 424.751903 
L -59.213127 430.734356 
L -65.683648 437.135716 
L -73.972499 435.730166 
L -80.245167 430.006411 
L -85.047938 420.261233 
L -100.863115 417.637481 
L -102.275669 412.027974 
L -95.997311 405.675202 
L -93.672528 401.069409 
L -99.514032 396.03289 
L -94.837327 384.902297 
L -101.62389 374.746091 
L -94.30461 373.351484 
L -93.62394 365.344531 
L -90.872808 362.865229 
L -90.654381 349.647541 
L -82.826897 345.061008 
L -87.562258 336.563798 
L -97.43394 335.971549 
L -100.334338 338.110735 
L -110.34084 338.13087 
L -114.587695 329.836766 
L -121.501199 332.306438 
L -127.648676 336.61151 
L -126.795103 324.545926 
z
" clip-path="url(#pe885d3c5af)" style="fill: #e8edf4; stroke: #b8c5d4; stroke-width: 0.45"/>
    <path d="M 139.763948 283.281578 
L 145.637406 278.121619 
L 140.651664 271.76053 
L 141.350281 266.973517 
L 148.639357 270.602297 
L 156.807395 269.796874 
L 166.305256 264.051233 
L 169.241547 266.736268 
L 177.311533 266.19786 
L 180.980584 259.365774 
L 193.51629 261.488763 
L 200.979582 258.631263 
L 202.323413 251.685805 
L 212.587301 254.094632 
L 214.557085 250.872065 
L 231.299373 247.927457 
L 235.083985 253.820175 
L 259.309702 258.195284 
L 257.473863 266.539289 
L 261.531618 273.752201 
L 248.046039 271.28428 
L 234.272434 277.296936 
L 235.209176 285.706601 
L 233.135212 290.533009 
L 238.688252 299.158037 
L 254.573466 307.690266 
L 263.093438 321.695868 
L 281.944709 335.348222 
L 295.220178 335.243605 
L 299.348845 338.987945 
L 294.595975 342.362842 
L 322.207094 353.610746 
L 336.73447 362.445884 
L 338.488891 365.609795 
L 335.323229 371.676292 
L 325.920793 363.766515 
L 311.202567 360.978614 
L 304.072825 371.936741 
L 316.317002 378.21685 
L 314.306947 387.057241 
L 307.229732 388.061831 
L 298.180982 402.591833 
L 291.118649 403.897143 
L 291.184309 398.717487 
L 294.640623 389.631092 
L 298.322806 386.01238 
L 286.536494 367.651367 
L 279.503928 365.540634 
L 274.502427 358.228795 
L 263.616087 355.148929 
L 256.285865 348.339604 
L 243.751035 347.241778 
L 215.015825 328.566912 
L 203.496529 318.808165 
L 198.212255 302.061061 
L 189.78333 300.091277 
L 176.00097 294.499717 
L 168.201501 296.788606 
L 158.412988 304.65067 
L 151.372542 305.89251 
L 153.310809 298.539087 
L 144.128114 296.389834 
z
" clip-path="url(#pe885d3c5af)" style="fill: #e8edf4; stroke: #b8c5d4; stroke-width: 0.45"/>
    <path d="M 236.007595 408.910025 
L 238.378339 400.211896 
L 258.203121 401.760584 
L 288.345194 398.436902 
L 282.244116 411.771464 
L 284.779447 417.020282 
L 281.22333 425.73198 
L 268.267404 419.351193 
L 259.652882 417.523233 
z
" clip-path="url(#pe885d3c5af)" style="fill: #e8edf4; stroke: #b8c5d4; stroke-width: 0.45"/>
    <path d="M 163.651738 352.376348 
L 172.969254 353.223793 
L 181.4402 347.971911 
L 191.604286 359.99985 
L 189.224787 382.4068 
L 181.521618 381.337864 
L 174.611616 386.99377 
L 168.197124 382.500474 
L 167.518643 362.061557 
z
" clip-path="url(#pe885d3c5af)" style="fill: #e8edf4; stroke: #b8c5d4; stroke-width: 0.45"/>
    <path d="M 162.46549 88.263331 
L 170.147648 78.607012 
L 185.073358 77.555585 
L 191.02123 72.881944 
L 204.649509 68.103248 
L 204.075207 76.815822 
L 199.058824 82.333844 
L 201.091641 87.077959 
L 210.276963 89.64218 
L 206.136915 96.033035 
L 201.091641 94.192819 
L 188.893863 106.390597 
L 193.500531 114.639177 
L 182.660591 117.218281 
L 169.85612 114.984108 
L 162.979385 105.58211 
z
" clip-path="url(#pe885d3c5af)" style="fill: #e8edf4; stroke: #b8c5d4; stroke-width: 0.45"/>
    <path d="M 210.136889 101.13959 
L 234.989435 95.524393 
L 240.395398 104.018977 
L 230.230437 117.74093 
L 212.502381 108.171719 
z
" clip-path="url(#pe885d3c5af)" style="fill: #e8edf4; stroke: #b8c5d4; stroke-width: 0.45"/>
    <path d="M -78.776146 84.112777 
L -72.623854 66.598333 
L -59.463508 52.856245 
L -45.935907 54.197449 
L -25.496553 52.771763 
L -43.603683 71.101697 
L -26.34356 68.780854 
L -7.780753 68.869276 
L -12.197447 82.672646 
L -27.427817 97.855741 
L -9.910746 98.936496 
L 6.522505 120.706111 
L 18.118842 123.42704 
L 33.373725 149.421185 
L 53.898875 152.648129 
L 51.839794 163.482379 
L 43.209513 168.450174 
L 49.974189 177.2144 
L 34.735065 186.086307 
L 12.070292 185.929599 
L -16.771723 190.58792 
L -24.670994 187.252857 
L -35.872062 195.190211 
L -51.543663 193.267702 
L -63.445098 199.736472 
L -72.450075 196.353696 
L -47.604533 178.559981 
L -32.439822 174.90056 
L -59.02928 172.063633 
L -63.822421 165.322157 
L -46.119754 160.071151 
L -55.397874 150.945798 
L -52.178809 139.849348 
L -27.001367 141.381785 
L -24.480144 131.54824 
L -36.084798 120.875075 
L -56.654158 117.894135 
L -60.692216 113.309354 
L -54.535546 105.738817 
L -60.106971 101.071304 
L -69.228384 109.081759 
L -70.221155 92.752688 
z
" clip-path="url(#pe885d3c5af)" style="fill: #e8edf4; stroke: #b8c5d4; stroke-width: 0.45"/>
    <path d="M -102.869669 130.278386 
L -99.37746 121.199871 
L -102.869669 112.123106 
L -88.667526 111.424489 
L -70.508306 121.898487 
L -79.587697 133.537722 
L -92.392606 130.045514 
z
" clip-path="url(#pe885d3c5af)" style="fill: #e8edf4; stroke: #b8c5d4; stroke-width: 0.45"/>
    <path d="M 257.473863 266.539289 
L 259.309702 258.195284 
L 273.303047 259.508036 
L 281.85191 255.664331 
L 296.668188 255.242359 
L 299.897758 252.383108 
L 302.747379 252.570457 
L 306.039107 258.289396 
L 292.552652 262.789696 
L 290.905913 269.633163 
L 285.017572 271.367449 
L 285.080605 276.101934 
L 278.432365 275.773637 
L 272.67009 273.00806 
L 269.567462 275.867311 
L 257.761014 275.288632 
L 261.531618 273.752201 
z
" clip-path="url(#pe885d3c5af)" style="fill: #e8edf4; stroke: #b8c5d4; stroke-width: 0.45"/>
    <path d="M 375.172397 -124.623483 
L 385.325977 -129.09927 
L 404.152735 -120.142443 
L 426.274723 -120.981134 
L 444.46327 -116.886609 
L 460.61725 -124.384045 
L 468.925361 -136.805065 
L 495.229419 -142.546329 
L 516.969706 -135.808792 
L 509.792689 -123.920927 
L 507.319516 -112.059325 
L 533.264635 -100.77115 
L 517.630678 -87.997319 
L 537.334306 -68.713073 
L 525.92916 -54.18926 
L 541.180541 -41.581329 
L 534.25478 -30.541784 
L 559.331444 -18.934941 
L 552.959849 -10.295031 
L 500.950547 21.116896 
L 470.205283 22.464666 
L 440.413394 28.676052 
L 412.851301 32.249678 
L 403.043528 23.007451 
L 386.635665 17.446532 
L 390.407144 0.756771 
L 382.179575 -14.525251 
L 390.257441 -24.390805 
L 405.618254 -35.03114 
L 444.375724 -53.40441 
L 455.684911 -56.94652 
L 453.922611 -64.111281 
L 430.363119 -72.117358 
L 424.645492 -78.709569 
L 424.198132 -104.798264 
z
" clip-path="url(#pe885d3c5af)" style="fill: #e8edf4; stroke: #b8c5d4; stroke-width: 0.45"/>
    <path d="M 311.378535 224.978598 
L 315.139509 219.100762 
L 322.644824 219.387913 
L 328.42986 217.635243 
L 328.887726 216.059416 
L 332.131303 215.254868 
L 333.241386 211.40022 
L 337.129302 210.663521 
L 339.754805 207.613857 
L 344.806207 207.593284 
L 345.762209 208.616259 
L 352.727365 206.316864 
L 361.270975 212.321641 
L 371.280104 208.690673 
L 379.278303 210.430211 
L 391.473454 208.035829 
L 407.573155 214.547497 
L 402.875439 218.958062 
L 399.567953 225.787522 
L 395.953181 227.520494 
L 377.810157 222.372355 
L 372.257992 223.405835 
L 368.285157 227.391802 
L 343.516655 231.555925 
L 342.152689 234.957961 
L 327.932599 237.033676 
L 313.067296 230.848992 
z
" clip-path="url(#pe885d3c5af)" style="fill: #e8edf4; stroke: #b8c5d4; stroke-width: 0.45"/>
    <path d="M 232.773647 194.546748 
L 245.085235 190.857999 
L 251.375412 186.636971 
L 263.540798 183.355748 
L 267.789403 180.130993 
L 272.256873 182.078015 
L 279.817342 180.310462 
L 287.847057 185.764575 
L 300.513206 187.238412 
L 299.456526 191.899358 
L 308.659357 195.403823 
L 311.18856 191.029151 
L 322.806784 192.923646 
L 324.414127 198.228055 
L 337.009364 199.251468 
L 344.806207 207.593284 
L 339.754805 207.613857 
L 337.129302 210.663521 
L 333.241386 211.40022 
L 332.131303 215.254868 
L 328.887726 216.059416 
L 328.42986 217.635243 
L 322.644824 219.387913 
L 315.139509 219.100762 
L 312.738999 222.827594 
L 304.929024 219.628664 
L 296.972848 220.508063 
L 283.82257 215.338037 
L 277.859814 216.603076 
L 268.329562 223.533652 
L 255.74308 218.080852 
L 246.177808 210.797904 
L 237.532645 206.726141 
L 235.739704 199.581954 
z
" clip-path="url(#pe885d3c5af)" style="fill: #e8edf4; stroke: #b8c5d4; stroke-width: 0.45"/>
    <path d="M 292.235736 286.835944 
L 295.782223 279.804253 
L 301.860538 283.694795 
L 305.533091 280.179825 
L 313.448121 279.804253 
L 328.011391 282.617104 
L 339.72504 282.382481 
L 347.386955 286.132574 
L 353.528979 286.085647 
L 349.286569 293.538579 
L 357.454758 300.054155 
L 354.985412 308.022776 
L 347.830306 310.319492 
L 342.321544 314.25696 
L 339.84 323.576471 
L 324.845729 317.163176 
L 318.449621 310.085523 
L 304.203268 300.007233 
z
" clip-path="url(#pe885d3c5af)" style="fill: #e8edf4; stroke: #b8c5d4; stroke-width: 0.45"/>
    <path d="M 372.082025 342.803198 
L 374.234765 337.037778 
L 376.387369 337.178372 
L 377.147181 333.709666 
L 396.712885 329.444216 
L 404.564201 329.162662 
L 413.049155 334.600142 
L 414.252036 345.803398 
L 411.022927 346.365741 
L 408.236754 349.318806 
L 399.055809 348.990508 
L 392.597544 352.693702 
L 381.515977 354.193802 
L 374.487788 350.068637 
z
" clip-path="url(#pe885d3c5af)" style="fill: #e8edf4; stroke: #b8c5d4; stroke-width: 0.45"/>
    <path d="M 344.411149 268.367339 
L 357.391814 263.914224 
L 367.965614 264.664055 
L 377.147434 271.320174 
L 379.047181 276.710816 
L 389.367974 280.69547 
L 390.697797 287.679011 
L 400.575607 292.600845 
L 405.894024 288.804415 
L 410.073468 290.913834 
L 406.147907 293.773085 
L 409.250536 296.72601 
L 405.071092 300.569278 
L 406.59089 306.757026 
L 414.821961 314.06974 
L 408.363695 319.36627 
L 405.514075 324.756912 
L 407.350789 326.77222 
L 404.564201 329.162662 
L 390.945363 330.433846 
L 390.380951 329.162824 
L 394.306729 323.022494 
L 391.900574 323.116179 
L 378.033544 313.038212 
L 374.994296 313.975736 
L 372.651501 319.600546 
L 368.599002 320.819294 
L 369.991906 319.366249 
L 357.967059 314.025375 
L 350.996104 308.772593 
L 354.985412 308.022776 
L 357.454758 300.054155 
L 349.286569 293.538579 
L 353.528979 286.085647 
L 347.386955 286.132574 
L 353.909235 279.757853 
L 348.52691 274.929694 
z
" clip-path="url(#pe885d3c5af)" style="fill: #e8edf4; stroke: #b8c5d4; stroke-width: 0.45"/>
    <path d="M 337.976757 326.456602 
L 342.321544 314.25696 
L 350.996104 308.772593 
L 357.967059 314.025375 
L 369.991906 319.366249 
L 365.433035 324.616151 
L 360.874392 326.116063 
L 359.797576 322.928515 
L 352.452471 331.272082 
L 353.592308 336.662671 
L 350.046381 335.350249 
L 345.297431 329.819125 
z
" clip-path="url(#pe885d3c5af)" style="fill: #e8edf4; stroke: #b8c5d4; stroke-width: 0.45"/>
    <path d="M 365.433035 324.616151 
L 368.599002 320.819294 
L 372.651501 319.600546 
L 374.994296 313.975736 
L 378.033544 313.038212 
L 391.900574 323.116179 
L 394.306729 323.022494 
L 390.380951 329.162824 
L 390.945363 330.433846 
L 377.147181 333.709666 
L 376.387369 337.178372 
L 374.234765 337.037778 
L 373.094682 330.897261 
L 369.042429 329.162662 
z
" clip-path="url(#pe885d3c5af)" style="fill: #e8edf4; stroke: #b8c5d4; stroke-width: 0.45"/>
   </g>
   <g id="PathCollection_1">
    <defs>
     <path id="me2ea7202b9" d="M 0 2.12132 
C 0.562581 2.12132 1.102195 1.897805 1.5 1.5 
C 1.897805 1.102195 2.12132 0.562581 2.12132 0 
C 2.12132 -0.562581 1.897805 -1.102195 1.5 -1.5 
C 1.102195 -1.897805 0.562581 -2.12132 0 -2.12132 
C -0.562581 -2.12132 -1.102195 -1.897805 -1.5 -1.5 
C -1.897805 -1.102195 -2.12132 -0.562581 -2.12132 0 
C -2.12132 0.562581 -1.897805 1.102195 -1.5 1.5 
C -1.102195 1.897805 -0.562581 2.12132 0 2.12132 
z
" style="stroke: #ffffff; stroke-width: 0.5"/>
    </defs>
    <g clip-path="url(#pe885d3c5af)">
     <use xlink:href="#me2ea7202b9" x="50.823529" y="326.117647" style="fill: #8aa0b7; stroke: #ffffff; stroke-width: 0.5"/>
     <use xlink:href="#me2ea7202b9" x="364.235294" y="351.529412" style="fill: #8aa0b7; stroke: #ffffff; stroke-width: 0.5"/>
     <use xlink:href="#me2ea7202b9" x="362.805459" y="26.623059" style="fill: #8aa0b7; stroke: #ffffff; stroke-width: 0.5"/>
     <use xlink:href="#me2ea7202b9" x="5.517741" y="159.153882" style="fill: #8aa0b7; stroke: #ffffff; stroke-width: 0.5"/>
     <use xlink:href="#me2ea7202b9" x="186.917647" y="245.364706" style="fill: #8aa0b7; stroke: #ffffff; stroke-width: 0.5"/>
     <use xlink:href="#me2ea7202b9" x="129.882353" y="203.294118" style="fill: #8aa0b7; stroke: #ffffff; stroke-width: 0.5"/>
     <use xlink:href="#me2ea7202b9" x="150.776471" y="305.223529" style="fill: #8aa0b7; stroke: #ffffff; stroke-width: 0.5"/>
     <use xlink:href="#me2ea7202b9" x="353.636894" y="322.582024" style="fill: #8aa0b7; stroke: #ffffff; stroke-width: 0.5"/>
     <use xlink:href="#me2ea7202b9" x="398.117647" y="337.411765" style="fill: #8aa0b7; stroke: #ffffff; stroke-width: 0.5"/>
     <use xlink:href="#me2ea7202b9" x="276.423529" y="264.847059" style="fill: #8aa0b7; stroke: #ffffff; stroke-width: 0.5"/>
     <use xlink:href="#me2ea7202b9" x="235.764706" y="304.658824" style="fill: #8aa0b7; stroke: #ffffff; stroke-width: 0.5"/>
     <use xlink:href="#me2ea7202b9" x="236.387012" y="336.233224" style="fill: #8aa0b7; stroke: #ffffff; stroke-width: 0.5"/>
     <use xlink:href="#me2ea7202b9" x="379.533176" y="324.379482" style="fill: #8aa0b7; stroke: #ffffff; stroke-width: 0.5"/>
    </g>
   </g>
   <g id="PatchCollection_2">
    <defs>
     <path id="m04651b1a0c" d="M 232.773647 -212.041487 
L 245.085235 -215.730236 
L 251.375412 -219.951264 
L 263.540798 -223.232487 
L 267.789403 -226.457242 
L 272.256873 -224.51022 
L 279.817342 -226.277773 
L 287.847057 -220.82366 
L 300.513206 -219.349824 
L 299.456526 -214.688877 
L 308.659357 -211.184412 
L 311.18856 -215.559084 
L 322.806784 -213.664589 
L 324.414127 -208.36018 
L 337.009364 -207.336768 
L 344.806207 -198.994951 
L 339.754805 -198.974378 
L 337.129302 -195.924715 
L 333.241386 -195.188015 
L 332.131303 -191.333367 
L 328.887726 -190.52882 
L 328.42986 -188.952992 
L 322.644824 -187.200322 
L 315.139509 -187.487473 
L 312.738999 -183.760642 
L 304.929024 -186.959571 
L 296.972848 -186.080172 
L 283.82257 -191.250198 
L 277.859814 -189.985159 
L 268.329562 -183.054584 
L 255.74308 -188.507384 
L 246.177808 -195.790332 
L 237.532645 -199.862094 
L 235.739704 -207.006282 
z
" style="stroke: #b45309; stroke-width: 1.15"/>
    </defs>
    <g clip-path="url(#pe885d3c5af)">
     <use xlink:href="#m04651b1a0c" x="0" y="406.588235" style="fill: #f59e0b; stroke: #b45309; stroke-width: 1.15"/>
    </g>
   </g>
   <g id="PathCollection_2">
    <defs>
     <path id="m086b0050c7" d="M 0 3.316625 
C 0.879579 3.316625 1.723251 2.967164 2.345208 2.345208 
C 2.967164 1.723251 3.316625 0.879579 3.316625 0 
C 3.316625 -0.879579 2.967164 -1.723251 2.345208 -2.345208 
C 1.723251 -2.967164 0.879579 -3.316625 0 -3.316625 
C -0.879579 -3.316625 -1.723251 -2.967164 -2.345208 -2.345208 
C -2.967164 -1.723251 -3.316625 -0.879579 -3.316625 0 
C -3.316625 0.879579 -2.967164 1.723251 -2.345208 2.345208 
C -1.723251 2.967164 -0.879579 3.316625 0 3.316625 
z
" style="stroke: #ffffff"/>
    </defs>
    <g clip-path="url(#pe885d3c5af)">
     <use xlink:href="#m086b0050c7" x="288" y="203.294118" style="fill: #f97316; stroke: #ffffff"/>
    </g>
   </g>
   <g id="PathCollection_3">
    <path d="M 288 207.743837 
C 289.180079 207.743837 290.311984 207.274986 291.146427 206.440544 
C 291.980869 205.606102 292.449719 204.474197 292.449719 203.294118 
C 292.449719 202.114038 291.980869 200.982133 291.146427 200.147691 
C 290.311984 199.313249 289.180079 198.844399 288 198.844399 
C 286.819921 198.844399 285.688016 199.313249 284.853573 200.147691 
C 284.019131 200.982133 283.550281 202.114038 283.550281 203.294118 
C 283.550281 204.474197 284.019131 205.606102 284.853573 206.440544 
C 285.688016 207.274986 286.819921 207.743837 288 207.743837 
L 288 207.743837 
z
" clip-path="url(#pe885d3c5af)" style="fill: none; stroke: #7c2d12; stroke-width: 1.1"/>
   </g>
  </g>
 </g>
 <defs>
  <clipPath id="pe885d3c5af">
   <rect x="0" y="0" width="576" height="406.588235"/>
  </clipPath>
 </defs>
</svg>
