<?xml version="1.0" encoding="utf-8" standalone="no"?>
<!DOCTYPE svg PUBLIC "-//W3C//DTD SVG 1.1//EN"
  "http://www.w3.org/Graphics/SVG/1.1/DTD/svg11.dtd">
<svg xmlns:xlink="http://www.w3.org/1999/xlink" width="566.978644pt" height="432pt" viewBox="0 0 566.978644 432" xmlns="http://www.w3.org/2000/svg" version="1.1">
 <metadata>
  <rdf:RDF xmlns:dc="http://purl.org/dc/elements/1.1/" xmlns:cc="http://creativecommons.org/ns#" xmlns:rdf="http://www.w3.org/1999/02/22-rdf-syntax-ns#">
   <cc:Work>
    <dc:type rdf:resource="http://purl.org/dc/dcmitype/StillImage"/>
    <dc:date>2026-06-09T04:57:07.490638</dc:date>
    <dc:format>image/svg+xml</dc:format>
    <dc:creator>
     <cc:Agent>
      <dc:title>Matplotlib v3.10.8, https://matplotlib.org/</dc:title>
     </cc:Agent>
    </dc:creator>
   </cc:Work>
  </rdf:RDF>
 </metadata>
 <defs>
  <style type="text/css">*{stroke-linejoin: round; stroke-linecap: butt}</style>
 </defs>
 <g id="figure_1">
  <g id="patch_1">
   <path d="M 0 432 
L 566.978644 432 
L 566.978644 0 
L 0 0 
z
" style="fill: #eaf3ff"/>
  </g>
  <g id="axes_1">
   <g id="PatchCollection_1">
    <path d="M 223.219835 64.770344 
L 228.544517 57.779137 
L 225.850237 55.897622 
L 233.210407 45.762611 
L 242.696635 51.11232 
L 243.84547 44.374952 
L 262.887525 34.341955 
L 277.297059 34.10313 
L 308.552033 44.221995 
L 318.339713 40.330685 
L 332.963855 40.145363 
L 344.761784 44.925535 
L 347.441763 42.188115 
L 360.398807 42.585916 
L 362.710301 38.217246 
L 347.762102 31.872913 
L 356.615279 27.379349 
L 354.887737 24.866213 
L 363.743299 22.467723 
L 357.083871 16.148893 
L 361.313664 13.000934 
L 395.83154 9.790975 
L 400.336253 7.512291 
L 423.418352 4.107103 
L 431.71189 0.280196 
L 448.289432 2.268252 
L 451.193934 11.829084 
L 460.824602 9.584089 
L 472.672377 12.730037 
L 471.908235 17.764889 
L 480.755939 17.23872 
L 503.875396 8.533692 
L 500.499919 11.4258 
L 512.268087 18.552627 
L 532.881805 41.980037 
L 537.797483 37.150164 
L 550.504739 42.464836 
L 563.760671 40.094232 
L 568.85368 41.754084 
L 573.29314 47.084486 
L 579.742822 48.874952 
L 583.669835 52.790286 
L 595.551932 51.555885 
L 600.446635 57.198522 
L 593.424919 63.34026 
L 585.763479 64.202124 
L 585.323013 73.452389 
L 580.192345 77.622039 
L 561.892504 74.586446 
L 555.236413 91.102018 
L 550.51475 93.15562 
L 532.241127 96.840948 
L 540.544199 112.865525 
L 534.215597 115.266637 
L 534.952091 120.525297 
L 529.266551 119.172198 
L 524.640703 115.856785 
L 495.658606 114.639783 
L 492.306487 115.65562 
L 479.169729 111.77723 
L 473.934188 113.687347 
L 472.499337 119.133348 
L 457.323754 115.955461 
L 451.250661 117.257076 
L 449.184665 121.298734 
L 443.895735 123.003872 
L 431.729051 129.43401 
L 427.692875 136.034804 
L 424.255904 136.093438 
L 421.727991 131.724052 
L 409.996053 131.424688 
L 408.119782 123.867882 
L 403.625025 123.803289 
L 404.313373 114.550879 
L 393.269782 107.813035 
L 377.449231 108.532606 
L 366.6335 109.875694 
L 357.824178 101.561181 
L 334.253521 90.667034 
L 310.507441 96.118279 
L 310.869729 130.131414 
L 306.138055 130.581414 
L 299.681699 123.348284 
L 293.446529 120.764121 
L 282.975449 122.683533 
L 278.899707 125.752733 
L 278.382017 123.503448 
L 280.649178 119.659142 
L 278.890174 116.445265 
L 268.19886 113.302654 
L 264.037313 105.018411 
L 258.943828 102.684751 
L 258.63493 99.67919 
L 267.609188 100.555355 
L 267.963373 93.810837 
L 275.808818 92.312823 
L 283.866392 93.690472 
L 285.52672 84.690948 
L 283.883553 78.986817 
L 274.652356 79.433003 
L 266.810724 77.181573 
L 256.129898 81.23777 
L 247.524045 83.171802 
L 242.838774 81.68009 
L 243.774919 76.933215 
L 237.894383 70.769868 
L 231.04963 71.027419 
z
" clip-path="url(#p63e8d779db)" style="fill: #e8edf4; stroke: #b8c5d4; stroke-width: 0.45"/>
    <path d="M 310.507441 96.118279 
L 334.253521 90.667034 
L 357.824178 101.561181 
L 366.6335 109.875694 
L 377.449231 108.532606 
L 393.269782 107.813035 
L 404.313373 114.550879 
L 403.625025 123.803289 
L 408.119782 123.867882 
L 409.996053 131.424688 
L 421.727991 131.724052 
L 424.255904 136.093438 
L 427.692875 136.034804 
L 431.729051 129.43401 
L 443.895735 123.003872 
L 449.184665 121.298734 
L 451.923754 122.206838 
L 444.182229 128.181732 
L 450.988479 131.653978 
L 457.558765 129.354163 
L 468.492716 134.214306 
L 456.680216 140.857765 
L 449.663267 139.948946 
L 445.855428 140.187294 
L 444.534029 137.623152 
L 446.457017 133.34553 
L 434.122536 135.489227 
L 431.190385 141.408348 
L 426.806699 146.506838 
L 419.104263 146.073046 
L 416.713161 150.134963 
L 423.482229 152.335864 
L 425.474813 159.203846 
L 420.290279 168.539439 
L 413.332917 166.591663 
L 408.193193 166.530408 
L 408.447271 160.885864 
L 396.177144 156.937638 
L 386.530269 152.420239 
L 369.963214 141.706044 
L 365.428892 132.195742 
L 362.333712 130.521351 
L 352.359824 130.946086 
L 348.830375 129.056706 
L 347.844093 121.696059 
L 335.41475 116.821139 
L 327.643193 122.18062 
L 319.762472 125.358745 
L 321.276932 130.005329 
L 310.869729 130.131414 
z
" clip-path="url(#p63e8d779db)" style="fill: #e8edf4; stroke: #b8c5d4; stroke-width: 0.45"/>
    <path d="M 172.6192 485.501398 
L 183.204993 472.129312 
L 189.118521 471.959026 
L 197.339493 465.456045 
L 209.356669 465.049516 
L 235.423756 437.362957 
L 246.020152 423.998814 
L 246.113093 405.929018 
L 258.202638 403.448034 
L 262.568092 400.290174 
L 266.065879 400.264898 
L 265.45807 413.02936 
L 263.510478 416.361104 
L 260.911075 426.332723 
L 250.766864 448.417176 
L 242.850766 461.936303 
L 224.126745 484.848573 
L 214.895033 492.316171 
L 201.096492 501.475563 
L 192.497496 508.492077 
L 182.402083 519.666401 
L 180.274704 524.530629 
L 178.191602 526.714833 
L 172.729434 519.104899 
z
" clip-path="url(#p63e8d779db)" style="fill: #e8edf4; stroke: #b8c5d4; stroke-width: 0.45"/>
    <path d="M -3.05648 395.066462 
L -2.126824 391.678447 
L 0.262258 387.833076 
L -0.782798 384.012612 
L 2.249608 381.183424 
L 0.326185 379.028187 
L 2.76554 373.332267 
L 6.977866 366.538988 
L 14.932247 367.183603 
L 14.591951 326.695316 
L 25.200252 326.667273 
L 25.200252 308.246096 
L 134.661592 308.246096 
L 137.636436 317.296822 
L 135.613387 318.970259 
L 136.953631 328.46681 
L 140.339893 339.479794 
L 148.903097 345.160148 
L 144.234615 350.425255 
L 137.440413 351.941781 
L 134.535215 354.769954 
L 133.625299 360.90146 
L 129.652537 374.455824 
L 130.63302 378.149173 
L 129.163632 386.071084 
L 125.412998 395.157785 
L 119.849267 399.727842 
L 115.893201 406.774521 
L 114.966312 410.545449 
L 110.596615 413.129078 
L 107.867698 422.782724 
L 107.990939 431.075832 
L 107.884052 423.883172 
L 106.607095 423.700749 
L 106.765458 419.108242 
L 105.656922 415.940996 
L 100.906052 412.298663 
L 99.797516 405.647446 
L 100.906052 398.837867 
L 96.63027 398.204418 
L 95.996821 400.263128 
L 90.45414 400.738215 
L 92.671212 403.430374 
L 93.463024 408.973055 
L 88.39543 414.040649 
L 83.802923 420.691865 
L 79.052054 421.642039 
L 71.292301 416.257721 
L 67.80833 418.158069 
L 66.858157 420.850228 
L 62.107287 422.592213 
L 61.790563 424.492561 
L 52.605549 424.492561 
L 51.338651 422.592213 
L 44.687434 422.275489 
L 41.361825 423.859112 
L 38.828028 423.0673 
L 32.493536 415.149185 
L 25.842319 416.416083 
L 23.308522 420.691865 
L 20.933088 428.926705 
L 14.933073 431.673867 
L 21.2094 435.276462 
L 14.184347 431.2441 
L 10.985248 428.587717 
L 10.392716 425.720874 
L 11.891445 421.88205 
L 11.864273 418.118067 
L 6.543881 412.350773 
L 5.609211 406.168925 
L 2.21889 403.449972 
L 2.116774 398.09158 
L 0.183203 394.532634 
z
" clip-path="url(#p63e8d779db)" style="fill: #e8edf4; stroke: #b8c5d4; stroke-width: 0.45"/>
    <path d="M -80.510144 378.656308 
L -76.527175 366.505318 
L -64.760621 357.807103 
L -64.274392 345.809169 
L -60.720155 327.090313 
L -58.713746 323.119682 
L -62.552093 319.957527 
L -62.7005 317.023774 
L -66.152093 314.624741 
L -68.417544 300.285719 
L -59.104839 295.24198 
L 14.478119 330.565316 
L 14.932247 367.183603 
L 6.977866 366.538988 
L 2.76554 373.332267 
L 0.326185 379.028187 
L 2.249608 381.183424 
L -0.782798 384.012612 
L 0.262258 387.833076 
L -2.126824 391.678447 
L -3.05648 395.066462 
L 0.183203 394.532634 
L 2.116774 398.09158 
L 2.21889 403.449972 
L 5.609211 406.168925 
L 5.498013 408.403263 
L -0.3415 409.976118 
L -5.021214 413.710546 
L -11.690176 423.775244 
L -20.372221 428.048814 
L -29.280218 427.475588 
L -31.881543 428.323628 
L -30.968195 431.570874 
L -39.695526 438.396907 
L -51.308767 441.926118 
L -53.61311 439.837241 
L -55.140918 439.65705 
L -56.841288 442.029799 
L -64.46793 442.723152 
L -63.023068 440.224317 
L -67.230377 430.04688 
L -71.247962 428.480938 
L -76.692771 423.097145 
L -74.688746 418.744206 
L -70.484773 419.670901 
L -67.882019 419.014015 
L -62.729901 419.104349 
L -67.750928 410.719285 
L -67.413428 404.591849 
L -68.029556 398.471542 
L -71.697009 392.564598 
L -70.774604 388.219523 
L -76.690388 388.007156 
L -76.66989 382.073496 
z
" clip-path="url(#p63e8d779db)" style="fill: #e8edf4; stroke: #b8c5d4; stroke-width: 0.45"/>
    <path d="M 46.307864 -18.992579 
L 50.260618 -21.920201 
L 47.525191 -30.523726 
L 54.088955 -35.839454 
L 52.699921 -37.449563 
L 63.184427 -42.54782 
L 53.519804 -46.933845 
L 81.839273 -64.037865 
L 85.308659 -68.742367 
L 71.65421 -75.062389 
L 75.425343 -81.073511 
L 67.120841 -87.938633 
L 73.331037 -95.846969 
L 62.60225 -106.347399 
L 71.115068 -113.302855 
L 56.987737 -119.449359 
L 58.3344 -125.908098 
L 65.784384 -126.758082 
L 81.480334 -130.458903 
L 90.99681 -133.667592 
L 106.150537 -128.091038 
L 131.412039 -125.895581 
L 166.266119 -115.462363 
L 173.346284 -111.078183 
L 173.955846 -104.938744 
L 163.715422 -100.092134 
L 148.652742 -97.632392 
L 107.47187 -104.643833 
L 100.698516 -103.47157 
L 115.737674 -96.71565 
L 116.92894 -83.00991 
L 136.012997 -77.802249 
L 137.205186 -82.275077 
L 131.648364 -86.239353 
L 137.519468 -89.733267 
L 159.819132 -83.991593 
L 167.587637 -86.239353 
L 161.379474 -92.995089 
L 182.877335 -102.029763 
L 191.391188 -101.497965 
L 200.004299 -98.273964 
L 205.377726 -104.613669 
L 197.685601 -110.112551 
L 202.201601 -115.629421 
L 195.420313 -121.351262 
L 221.223207 -118.392099 
L 226.493595 -113.226041 
L 214.813671 -112.087263 
L 214.87686 -106.954045 
L 222.137827 -103.795723 
L 236.389941 -105.796356 
L 238.646281 -111.680089 
L 290.107334 -123.994943 
L 297.065272 -123.540815 
L 287.970822 -117.942953 
L 299.413581 -116.980919 
L 306.022091 -120.132414 
L 323.312146 -120.387198 
L 337.010507 -124.211168 
L 347.521212 -118.654447 
L 358.004243 -124.763445 
L 348.338328 -130.107354 
L 353.135125 -133.151475 
L 380.384622 -130.360016 
L 393.152542 -127.476818 
L 426.582943 -116.937655 
L 432.749779 -121.764893 
L 423.375361 -126.642221 
L 423.105818 -128.599038 
L 411.988872 -129.504156 
L 415.030042 -133.877728 
L 410.096351 -141.0744 
L 409.817215 -144.027013 
L 426.840309 -152.380173 
L 432.894421 -160.764052 
L 439.754209 -162.577979 
L 464.176732 -160.145358 
L 466.099971 -155.014353 
L 457.355779 -147.532457 
L 463.093486 -144.591743 
L 466.061689 -138.14328 
L 463.966042 -125.50289 
L 474.142355 -119.848665 
L 470.183429 -113.691238 
L 452.115186 -100.588603 
L 462.659007 -99.229541 
L 466.328188 -102.5504 
L 476.477288 -104.919188 
L 478.926606 -109.483802 
L 486.910414 -113.876376 
L 481.534865 -119.120751 
L 485.838883 -125.210746 
L 475.751957 -125.969747 
L 473.533531 -131.100198 
L 480.894123 -140.362813 
L 468.914123 -147.884744 
L 485.423591 -154.102316 
L 483.287541 -160.661751 
L 487.888315 -160.87115 
L 492.735847 -155.756934 
L 489.096462 -146.855186 
L 498.967993 -145.169942 
L 494.761756 -151.822177 
L 510.199324 -155.448924 
L 529.343803 -155.937275 
L 546.390697 -150.678233 
L 538.187344 -158.360949 
L 537.268388 -168.188387 
L 553.309154 -170.049913 
L 575.496738 -169.6432 
L 595.486837 -170.851347 
L 587.989627 -175.673881 
L 598.664899 -181.732236 
L 609.262961 -181.985912 
L 627.198277 -186.561964 
L 651.556597 -187.791882 
L 654.634203 -190.318226 
L 678.856091 -191.174269 
L 686.403759 -189.10316 
L 707.106827 -194.00521 
L 724.053634 -193.851989 
L 726.596398 -197.833423 
L 735.410697 -201.759878 
L 757.187786 -205.545473 
L 773.008361 -202.556423 
L 760.447763 -200.282649 
L 781.342703 -198.869346 
L 783.832149 -194.310637 
L 792.261597 -196.555445 
L 819.229374 -196.432297 
L 840.023951 -191.932901 
L 847.428176 -188.477362 
L 845.133277 -183.681949 
L 810.687293 -175.831253 
L 803.757305 -173.094034 
L 828.840772 -169.475589 
L 837.146149 -171.220793 
L 841.851069 -165.299701 
L 845.902794 -167.696531 
L 860.653037 -169.153742 
L 890.25029 -167.630483 
L 892.49805 -163.315948 
L 931.063007 -161.943511 
L 931.589824 -168.98936 
L 951.166567 -167.374776 
L 965.893103 -167.42542 
L 980.789187 -162.56608 
L 985.035367 -156.662422 
L 979.578365 -152.799893 
L 991.164383 -145.540494 
L 1005.670911 -141.794842 
L 1014.571922 -151.474317 
L 1029.369672 -147.324349 
L 1045.090897 -149.804201 
L 1062.946236 -146.966527 
L 1069.74053 -149.553107 
L 1084.829593 -148.259817 
L 1078.170163 -156.823576 
L 1090.349046 -160.819861 
L 1173.664152 -154.829307 
L 1181.515955 -149.353856 
L 1205.6634 -142.304317 
L 1242.912189 -144.049521 
L 1261.277557 -142.53032 
L 1268.957229 -138.716128 
L 1267.835055 -131.97054 
L 1279.198575 -129.344294 
L 1291.546084 -131.233125 
L 1307.905099 -131.474717 
L 1325.320147 -129.66448 
L 1342.80355 -130.685644 
L 1358.872451 -122.485981 
L 1370.304049 -125.436288 
L 1362.844291 -131.332013 
L 1366.951549 -135.43023 
L 1396.382297 -132.851029 
L 1415.570592 -133.402845 
L 1442.100292 -129.0004 
L 1455.014746 -124.975116 
L 1455.014746 -88.224939 
L 1443.08917 -84.122029 
L 1431.134814 -84.798008 
L 1439.452829 -79.887933 
L 1444.943778 -72.287224 
L 1449.206378 -69.802575 
L 1450.276617 -65.986538 
L 1447.895653 -63.543493 
L 1430.701442 -65.552613 
L 1404.918566 -58.608788 
L 1396.716412 -57.533752 
L 1369.212039 -45.390199 
L 1365.820611 -41.198444 
L 1352.625822 -47.579845 
L 1328.591286 -40.338526 
L 1324.394273 -43.765007 
L 1315.508576 -39.813185 
L 1303.171122 -41.077971 
L 1300.199137 -35.010945 
L 1289.131635 -26.084014 
L 1289.4604 -22.355795 
L 1299.966677 -20.288653 
L 1298.730856 -6.859558 
L 1290.167097 -6.517786 
L 1286.217857 1.198692 
L 1290.055572 5.170255 
L 1273.924312 9.882278 
L 1270.723004 20.414568 
L 1256.971048 22.664359 
L 1254.205879 32.03647 
L 1240.909619 40.630485 
L 1237.498451 34.27519 
L 1228.399849 0.319125 
L 1232.834672 -12.474393 
L 1240.617752 -17.979456 
L 1241.099277 -22.290485 
L 1255.434136 -24.354123 
L 1271.912148 -35.968091 
L 1287.791391 -45.453111 
L 1304.374011 -52.813427 
L 1311.789305 -65.817451 
L 1300.580206 -65.039448 
L 1295.040735 -57.440491 
L 1271.643159 -47.309379 
L 1264.086727 -58.653158 
L 1240.272106 -55.521034 
L 1217.186414 -40.058375 
L 1224.803082 -34.401567 
L 1189.952322 -31.043256 
L 1190.620368 -37.713294 
L 1176.281266 -39.113313 
L 1164.852897 -34.581724 
L 1136.647823 -36.167342 
L 1106.304392 -33.43326 
L 1041.071366 6.328405 
L 1055.604923 7.491075 
L 1060.140755 13.267802 
L 1069.100434 15.318525 
L 1075.003539 10.710464 
L 1085.121829 11.308864 
L 1098.44032 21.456949 
L 1098.753219 29.305247 
L 1091.541327 38.521555 
L 1090.763323 49.53703 
L 1086.60164 64.28552 
L 1072.698217 77.634084 
L 1069.60788 84.014747 
L 1038.702486 110.855962 
L 1026.410509 116.26841 
L 1020.59347 116.388145 
L 1014.79857 111.904339 
L 1002.417299 118.655093 
L 1000.979459 121.72449 
L 999.688014 120.110183 
L 999.631434 115.423946 
L 1004.343563 115.175111 
L 1005.670682 104.275959 
L 1003.241242 96.375631 
L 1011.158394 93.117484 
L 1022.353987 94.750901 
L 1028.557758 85.776859 
L 1031.719087 75.67081 
L 1035.302479 72.29488 
L 1040.150025 63.994762 
L 1024.904368 66.714068 
L 1016.907501 70.353007 
L 1002.891352 70.342215 
L 999.155693 61.675164 
L 988.229368 55.117272 
L 972.174693 52.168442 
L 968.762102 43.132686 
L 956.390915 24.19455 
L 948.290438 20.797622 
L 934.483584 18.050947 
L 922.254316 18.300694 
L 910.791233 19.964121 
L 903.171741 24.553501 
L 908.233288 26.745821 
L 908.347774 31.838879 
L 903.217785 34.795919 
L 894.890822 44.579817 
L 894.974496 48.638989 
L 881.975025 54.468014 
L 870.901402 50.985281 
L 859.89547 51.75419 
L 855.065597 48.6633 
L 849.534029 47.666531 
L 836.022589 54.167458 
L 823.878309 55.695027 
L 815.39886 57.981255 
L 803.779898 56.47919 
L 795.226085 56.575244 
L 789.626826 51.860016 
L 780.592504 47.426753 
L 771.347483 46.211658 
L 750.960671 49.127124 
L 737.85568 45.24731 
L 736.096731 38.334849 
L 716.877462 34.883957 
L 706.543669 31.070874 
L 696.989273 40.630991 
L 700.734665 46.060546 
L 691.768331 52.484108 
L 678.431943 50.164949 
L 669.225131 49.833109 
L 663.059559 45.524264 
L 653.435004 45.38817 
L 645.41422 42.557315 
L 631.383182 46.896192 
L 613.781699 54.841266 
L 600.446635 57.198522 
L 595.551932 51.555885 
L 583.669835 52.790286 
L 579.742822 48.874952 
L 573.29314 47.084486 
L 568.85368 41.754084 
L 563.760671 40.094232 
L 550.504739 42.464836 
L 537.797483 37.150164 
L 532.881805 41.980037 
L 512.268087 18.552627 
L 500.499919 11.4258 
L 503.875396 8.533692 
L 480.755939 17.23872 
L 471.908235 17.764889 
L 472.672377 12.730037 
L 460.824602 9.584089 
L 451.193934 11.829084 
L 448.289432 2.268252 
L 431.71189 0.280196 
L 423.418352 4.107103 
L 400.336253 7.512291 
L 395.83154 9.790975 
L 361.313664 13.000934 
L 357.083871 16.148893 
L 363.743299 22.467723 
L 354.887737 24.866213 
L 356.615279 27.379349 
L 347.762102 31.872913 
L 362.710301 38.217246 
L 360.398807 42.585916 
L 347.441763 42.188115 
L 344.761784 44.925535 
L 332.963855 40.145363 
L 318.339713 40.330685 
L 308.552033 44.221995 
L 277.297059 34.10313 
L 262.887525 34.341955 
L 243.84547 44.374952 
L 242.696635 51.11232 
L 233.210407 45.762611 
L 225.850237 55.897622 
L 228.544517 57.779137 
L 223.219835 64.770344 
L 231.04963 71.027419 
L 237.894383 70.769868 
L 243.774919 76.933215 
L 242.838774 81.68009 
L 247.524045 83.171802 
L 243.319929 88.642364 
L 234.37667 90.16258 
L 225.208331 99.685052 
L 233.592855 108.439576 
L 232.684969 114.653088 
L 242.756859 125.516911 
L 237.248966 129.23499 
L 235.665862 131.581759 
L 231.585354 130.951568 
L 225.245788 125.348496 
L 216.854432 122.901181 
L 214.030587 119.115948 
L 205.427197 117.186049 
L 199.833274 118.634614 
L 198.216938 116.920036 
L 185.656802 112.497113 
L 164.279368 109.427124 
L 163.154368 110.51661 
L 151.392912 102.721794 
L 140.868739 99.242179 
L 132.901813 93.822905 
L 139.614654 92.348628 
L 147.26905 84.633533 
L 142.110372 80.983355 
L 155.706985 77.218054 
L 155.46281 75.201462 
L 147.182229 76.688194 
L 147.473489 72.590525 
L 152.228385 70.014833 
L 161.15511 69.338512 
L 162.606532 66.262354 
L 160.56817 61.175812 
L 164.314644 56.345715 
L 164.206264 53.637185 
L 150.608712 50.635387 
L 145.218246 50.735016 
L 139.525078 46.415207 
L 132.447112 47.876038 
L 120.731381 44.632606 
L 120.932421 42.817732 
L 117.650979 38.817643 
L 110.295576 38.37098 
L 109.531434 35.507474 
L 111.835301 33.639783 
L 105.940491 28.416875 
L 96.375131 29.308056 
L 93.573595 28.844709 
L 91.243291 30.9428 
L 87.798176 30.569849 
L 85.529368 24.662664 
L 83.363267 21.600615 
L 85.138445 20.738721 
L 92.581593 21.058851 
L 96.171106 19.041478 
L 93.514008 16.581971 
L 87.293616 14.958586 
L 87.848489 13.292537 
L 84.094517 11.609804 
L 78.311254 5.570318 
L 80.288108 3.081732 
L 79.384771 -1.248564 
L 70.366657 -3.448511 
L 65.526296 -2.347346 
L 64.215862 -4.637389 
L 54.504157 -6.950789 
L 51.539114 -12.395122 
L 50.752568 -16.868427 
z
" clip-path="url(#p63e8d779db)" style="fill: #e8edf4; stroke: #b8c5d4; stroke-width: 0.45"/>
    <path d="M 269.244252 -153.121658 
L 278.676614 -155.100895 
L 278.361996 -160.13098 
L 296.6585 -167.997876 
L 288.178097 -169.125736 
L 310.263373 -177.221923 
L 307.767875 -181.409211 
L 328.400661 -186.279603 
L 358.854792 -192.20635 
L 389.557282 -193.932939 
L 405.355428 -197.352749 
L 423.307282 -198.55116 
L 429.719782 -194.908496 
L 423.524178 -192.038077 
L 362.668828 -183.064772 
L 334.013267 -174.284528 
L 305.806752 -156.409184 
L 307.683977 -148.746552 
L 325.329316 -141.181165 
L 319.880216 -140.371975 
L 289.737843 -141.570386 
L 287.290015 -145.666149 
L 270.592345 -148.139242 
z
" clip-path="url(#p63e8d779db)" style="fill: #e8edf4; stroke: #b8c5d4; stroke-width: 0.45"/>
    <path d="M -1865.844723 -88.224939 
L -1865.844723 -124.975116 
L -1843.244429 -117.930869 
L -1819.059809 -108.760592 
L -1819.853126 -103.027128 
L -1813.631864 -100.732138 
L -1815.771882 -107.435016 
L -1790.731586 -106.059534 
L -1772.672291 -97.426775 
L -1781.8184 -93.406229 
L -1796.939195 -92.451667 
L -1797.167504 -83.438116 
L -1800.860392 -81.518475 
L -1809.499331 -81.794383 
L -1816.529222 -85.010543 
L -1828.794355 -87.700716 
L -1830.857255 -91.702259 
L -1840.224846 -93.211129 
L -1850.715718 -92.014513 
L -1855.728278 -95.242388 
L -1853.724601 -98.670899 
L -1864.772547 -96.479593 
L -1860.611418 -92.139875 
z
" clip-path="url(#p63e8d779db)" style="fill: #e8edf4; stroke: #b8c5d4; stroke-width: 0.45"/>
    <path d="M 1100.735089 32.103395 
L 1101.551191 19.497675 
L 1110.078309 15.252707 
L 1106.414432 10.97866 
L 1110.519729 9.68348 
L 1116.110407 24.674582 
L 1115.874443 33.752521 
L 1119.681805 43.060705 
L 1128.963055 59.399423 
L 1115.308606 56.353819 
L 1109.633076 69.683162 
L 1118.625449 79.136976 
L 1118.365174 85.583321 
L 1111.376826 80.022198 
L 1105.328521 87.162135 
L 1103.621 79.421086 
L 1104.649707 70.434433 
L 1103.598118 60.480567 
L 1105.732282 53.506997 
L 1106.139856 41.172039 
z
" clip-path="url(#p63e8d779db)" style="fill: #e8edf4; stroke: #b8c5d4; stroke-width: 0.45"/>
    <path d="M 93.962102 93.059327 
L 95.591445 91.290789 
L 104.422695 88.224688 
L 103.018949 87.114516 
L 105.449392 84.829991 
L 114.974314 87.172185 
L 116.171435 88.993892 
L 117.563123 89.274848 
L 117.638108 90.072834 
L 122.150979 92.298046 
L 131.559983 91.744603 
L 129.758553 95.035705 
L 119.660248 96.633586 
L 107.137949 101.970186 
L 102.008235 100.093914 
L 104.042292 95.759327 
z
" clip-path="url(#p63e8d779db)" style="fill: #e8edf4; stroke: #b8c5d4; stroke-width: 0.45"/>
    <path d="M 208.280693 -232.222028 
L 226.288796 -233.901901 
L 240.304104 -234.013448 
L 242.188955 -231.527961 
L 247.487419 -233.736488 
L 256.182335 -235.257622 
L 269.863955 -233.235959 
L 266.296371 -231.829709 
L 245.616868 -229.913633 
L 244.330269 -228.399889 
L 233.548383 -226.87518 
L 223.555428 -229.062018 
L 228.810036 -231.941732 
z
" clip-path="url(#p63e8d779db)" style="fill: #e8edf4; stroke: #b8c5d4; stroke-width: 0.45"/>
    <path d="M 635.694788 -229.931098 
L 659.647317 -236.232798 
L 679.602316 -238.315714 
L 697.525317 -233.671815 
L 718.767794 -224.753094 
L 716.490284 -216.458371 
L 696.363847 -215.307693 
L 670.67008 -217.969408 
L 655.359903 -221.490949 
L 648.2802 -228.107669 
z
" clip-path="url(#p63e8d779db)" style="fill: #e8edf4; stroke: #b8c5d4; stroke-width: 0.45"/>
    <path d="M 1058.120289 -183.072018 
L 1063.077318 -189.413937 
L 1075.247484 -191.144382 
L 1099.605434 -190.739698 
L 1132.949354 -185.84821 
L 1125.696182 -178.997785 
L 1091.692518 -179.253122 
L 1076.394702 -177.074269 
z
" clip-path="url(#p63e8d779db)" style="fill: #e8edf4; stroke: #b8c5d4; stroke-width: 0.45"/>
    <path d="M -24.053259 9.12813 
L -21.951511 5.068597 
L -9.22185 2.076859 
L 0.438849 3.692855 
L 4.516498 5.157023 
L 3.532123 7.68303 
L 4.270523 10.037188 
L -12.692189 10.175668 
z
" clip-path="url(#p63e8d779db)" style="fill: #e8edf4; stroke: #b8c5d4; stroke-width: 0.45"/>
    <path d="M 1084.767696 -165.620532 
L 1093.518068 -169.266375 
L 1105.052151 -170.119836 
L 1118.158108 -166.592991 
L 1119.27447 -164.168671 
L 1105.287932 -164.104099 
z
" clip-path="url(#p63e8d779db)" style="fill: #e8edf4; stroke: #b8c5d4; stroke-width: 0.45"/>
    <path d="M 711.863036 -207.603299 
L 728.714184 -219.715119 
L 736.291739 -220.75215 
L 743.223711 -220.151443 
L 766.604544 -214.912326 
L 763.865204 -211.162984 
z
" clip-path="url(#p63e8d779db)" style="fill: #e8edf4; stroke: #b8c5d4; stroke-width: 0.45"/>
    <path d="M -1865.844723 -142.211879 
L -1865.844723 -148.517039 
L -1856.844548 -148.884323 
L -1843.502211 -146.245624 
L -1844.292114 -144.984527 
L -1853.795353 -142.772927 
z
" clip-path="url(#p63e8d779db)" style="fill: #e8edf4; stroke: #b8c5d4; stroke-width: 0.45"/>
    <path d="M 1142.477499 -182.253887 
L 1144.684902 -185.241185 
L 1185.025827 -181.433635 
L 1174.36453 -177.788623 
L 1159.619361 -178.613626 
z
" clip-path="url(#p63e8d779db)" style="fill: #e8edf4; stroke: #b8c5d4; stroke-width: 0.45"/>
    <path d="M 1443.256136 -144.671167 
L 1455.014746 -148.517039 
L 1455.014746 -142.211879 
L 1444.899269 -141.740878 
z
" clip-path="url(#p63e8d779db)" style="fill: #e8edf4; stroke: #b8c5d4; stroke-width: 0.45"/>
    <path d="M -72.032602 460.897145 
L -71.320896 453.746245 
L -69.107125 452.071616 
L -64.46793 442.723152 
L -56.841288 442.029799 
L -55.140918 439.65705 
L -53.61311 439.837241 
L -51.308767 441.926118 
L -39.695526 438.396907 
L -30.968195 431.570874 
L -31.881543 428.323628 
L -29.280218 427.475588 
L -20.372221 428.048814 
L -11.690176 423.775244 
L -5.021214 413.710546 
L -0.3415 409.976118 
L 5.498013 408.403263 
L 6.543881 412.350773 
L 11.864273 418.118067 
L 11.891445 421.88205 
L 10.392716 425.720874 
L 10.985248 428.587717 
L 26.26046 439.003978 
L 26.345311 442.002151 
L 32.549019 446.806044 
L 36.393563 450.797648 
L 38.722695 456.331361 
L 45.618087 459.982129 
L 47.101561 462.906414 
L 44.055957 463.885069 
L 31.200449 462.702151 
L 27.772059 463.492511 
L 26.388691 465.735599 
L 23.40172 466.01232 
L 19.762631 464.060969 
L 9.492716 468.664889 
L 5.288743 467.738432 
L 4.021688 468.449423 
L 1.263532 474.02008 
L -12.366129 471.311499 
L -18.241394 467.908612 
L -25.832284 464.773628 
L -30.771797 467.744153 
L -34.363216 472.42768 
L -35.192665 478.860916 
L -41.12561 478.346086 
L -47.36936 476.796351 
L -52.867083 481.684857 
L -57.702676 490.269418 
L -59.087475 483.388803 
L -63.306225 480.420662 
L -66.711733 475.660148 
L -67.49828 472.348311 
L -71.857655 467.53107 
L -71.114487 464.782209 
z
" clip-path="url(#p63e8d779db)" style="fill: #e8edf4; stroke: #b8c5d4; stroke-width: 0.45"/>
    <path d="M 110.670258 223.201091 
L 113.354051 220.161923 
L 112.724337 219.63875 
L 115.164061 215.327283 
L 117.035089 208.367776 
L 118.35458 206.032447 
L 121.696212 205.954031 
L 122.545682 204.337558 
L 125.020682 204.21624 
L 125.161784 207.991902 
L 122.479898 212.365577 
L 119.143034 211.087797 
L 117.212419 217.230726 
L 119.53011 218.266107 
L 117.174284 219.535069 
L 116.77672 221.964306 
L 121.113691 220.712982 
L 121.329157 224.301541 
L 116.732388 239.04929 
z
" clip-path="url(#p63e8d779db)" style="fill: #e8edf4; stroke: #b8c5d4; stroke-width: 0.45"/>
    <path d="M 118.609135 205.93687 
L 121.894517 198.422966 
L 126.656222 191.6017 
L 130.805375 192.07196 
L 132.314114 195.689359 
L 127.284029 199.165895 
L 125.020682 204.21624 
L 122.545682 204.337558 
L 121.696212 205.954031 
z
" clip-path="url(#p63e8d779db)" style="fill: #e8edf4; stroke: #b8c5d4; stroke-width: 0.45"/>
    <path d="M 116.77672 221.964306 
L 117.174284 219.535069 
L 119.53011 218.266107 
L 117.212419 217.230726 
L 119.143034 211.087797 
L 122.479898 212.365577 
L 122.476085 218.006308 
L 121.113691 220.712982 
z
" clip-path="url(#p63e8d779db)" style="fill: #e8edf4; stroke: #b8c5d4; stroke-width: 0.45"/>
    <path d="M 116.732388 239.04929 
L 121.329157 224.301541 
L 121.113691 220.712982 
L 122.476085 218.006308 
L 122.479898 212.365577 
L 124.087313 209.457977 
L 134.364856 213.113273 
L 152.42921 203.282156 
L 156.147907 214.514757 
L 154.389856 215.905752 
L 135.915544 220.534698 
L 145.109559 229.758507 
L 142.058712 231.325164 
L 140.540915 234.414386 
L 133.502038 235.691928 
L 131.294464 239.013062 
L 127.306911 241.852018 
L 117.040809 240.384751 
z
" clip-path="url(#p63e8d779db)" style="fill: #e8edf4; stroke: #b8c5d4; stroke-width: 0.45"/>
    <path d="M 270.385936 287.532262 
L 272.027197 287.084169 
L 272.368034 289.613989 
L 279.588055 288.160069 
L 292.787737 288.673708 
L 311.816445 270.836022 
L 313.571159 273.980302 
L 314.823913 281.266584 
L 310.113691 281.302574 
L 309.356222 287.309884 
L 310.989856 288.59267 
L 306.814962 290.409354 
L 306.78922 294.179772 
L 304.101614 297.997622 
L 303.860407 301.712029 
L 302.001296 303.661949 
L 274.271477 299.010837 
z
" clip-path="url(#p63e8d779db)" style="fill: #e8edf4; stroke: #b8c5d4; stroke-width: 0.45"/>
    <path d="M 262.677779 276.122092 
L 265.163267 271.283162 
L 267.682599 270.290683 
L 270.474125 273.182315 
L 270.636678 278.582791 
L 268.634082 284.009486 
L 266.077091 284.664942 
L 263.288426 282.834672 
z
" clip-path="url(#p63e8d779db)" style="fill: #e8edf4; stroke: #b8c5d4; stroke-width: 0.45"/>
    <path d="M 224.163214 242.76036 
L 230.933235 233.904322 
L 237.131222 234.672278 
L 239.056116 238.743491 
L 238.232864 240.848337 
L 241.20458 247.806414 
L 234.680534 248.045715 
L 232.383341 243.650588 
z
" clip-path="url(#p63e8d779db)" style="fill: #e8edf4; stroke: #b8c5d4; stroke-width: 0.45"/>
    <path d="M 152.42921 203.282156 
L 172.85082 193.682235 
L 176.335936 182.530196 
L 175.466445 175.791637 
L 180.515597 173.512797 
L 185.243457 167.756467 
L 189.205746 166.323046 
L 199.935195 167.513353 
L 203.174813 169.862982 
L 207.59548 168.304738 
L 213.572483 179.308692 
L 219.621265 182.077574 
L 220.317239 187.465895 
L 215.674231 190.649502 
L 213.536254 197.847834 
L 219.925873 206.615922 
L 231.228786 211.672225 
L 235.975237 218.682739 
L 234.463161 225.364333 
L 237.409612 225.361711 
L 237.500661 230.275482 
L 242.605587 235.124661 
L 230.933235 233.904322 
L 224.163214 242.76036 
L 207.012684 242.023628 
L 181.003733 223.471854 
L 167.259188 217.014783 
L 156.147907 214.514757 
z
" clip-path="url(#p63e8d779db)" style="fill: #e8edf4; stroke: #b8c5d4; stroke-width: 0.45"/>
    <path d="M 274.264803 335.919894 
L 301.938373 326.695371 
L 308.088214 308.246086 
L 303.860407 301.712029 
L 304.101614 297.997622 
L 306.78922 294.179772 
L 306.814962 290.409354 
L 310.989856 288.59267 
L 309.356222 287.309884 
L 310.113691 281.302574 
L 314.823913 281.266584 
L 318.959241 287.567537 
L 324.109453 290.916796 
L 336.339061 293.803422 
L 342.988955 302.155355 
L 346.291021 303.323734 
L 346.273383 305.381626 
L 341.44208 313.468279 
L 337.556063 316.418782 
L 334.113849 322.738088 
L 329.928945 322.254243 
L 328.010724 324.453713 
L 326.529157 329.130567 
L 327.663214 335.296616 
L 326.793246 336.429958 
L 322.548754 336.399688 
L 316.786943 339.847145 
L 315.887896 344.340948 
L 313.778521 346.28777 
L 308.040544 346.213406 
L 304.428627 348.53634 
L 304.47439 352.262664 
L 300.010618 354.823946 
L 294.920947 353.954216 
L 288.752038 357.065842 
L 284.490862 357.588062 
z
" clip-path="url(#p63e8d779db)" style="fill: #e8edf4; stroke: #b8c5d4; stroke-width: 0.45"/>
    <path d="M 311.816445 270.836022 
L 314.502621 267.695318 
L 315.643352 268.496165 
L 314.77386 272.307103 
L 313.571159 273.980302 
z
" clip-path="url(#p63e8d779db)" style="fill: #e8edf4; stroke: #b8c5d4; stroke-width: 0.45"/>
    <path d="M 423.487949 292.638379 
L 429.631116 286.48401 
L 449.931169 286.508083 
L 448.099707 278.588035 
L 442.91708 273.90999 
L 441.865968 266.810334 
L 435.82815 262.667617 
L 445.994623 252.998099 
L 456.705957 253.699317 
L 466.355693 244.02813 
L 472.138479 234.666796 
L 481.093193 225.410811 
L 480.950661 218.835281 
L 488.816604 213.499158 
L 481.371582 208.9441 
L 474.899496 194.620133 
L 479.4219 190.64259 
L 493.414326 192.893067 
L 503.696635 191.522092 
L 512.60511 183.769126 
L 522.519888 194.581044 
L 521.586519 202.105911 
L 525.256116 206.827098 
L 524.953892 211.53732 
L 518.333553 210.297675 
L 520.920576 220.465577 
L 529.9835 226.30652 
L 542.804686 232.756679 
L 536.951349 236.941107 
L 533.369464 245.569762 
L 563.034188 258.760625 
L 575.678998 259.956176 
L 580.99939 264.648761 
L 599.22439 267.677204 
L 606.906328 267.522993 
L 607.963161 263.871986 
L 606.748542 258.010546 
L 607.461678 254.037294 
L 613.087631 252.097145 
L 614.059135 261.210122 
L 622.443246 264.711446 
L 628.243193 263.269444 
L 643.55797 263.614571 
L 644.205799 257.94786 
L 640.450873 255.004031 
L 647.890174 253.849714 
L 656.286678 246.988883 
L 666.919358 241.114571 
L 674.65707 243.381255 
L 681.233076 239.496907 
L 685.558606 245.232977 
L 682.442928 249.106838 
L 692.389644 250.48544 
L 693.085618 253.981997 
L 689.85172 255.674502 
L 690.608235 261.35027 
L 684.016021 259.682315 
L 672.07386 266.056679 
L 672.354157 271.335599 
L 667.263055 279.073311 
L 666.796371 283.568067 
L 662.68297 291.173734 
L 655.473436 289.072225 
L 655.114962 298.618755 
L 653.029898 301.760175 
L 654.006169 305.677415 
L 649.454686 307.865683 
L 644.596212 293.233056 
L 642.049231 293.262135 
L 640.541445 299.157421 
L 635.490862 294.376647 
L 638.339114 289.126806 
L 642.465862 288.593861 
L 646.719411 280.787267 
L 641.400449 279.212267 
L 632.845682 279.349079 
L 624.068299 278.08393 
L 623.25458 271.669762 
L 618.850873 271.214757 
L 611.54457 267.228634 
L 608.285883 273.487161 
L 614.943881 278.370424 
L 609.176826 281.807633 
L 607.129421 285.169285 
L 612.807335 287.640948 
L 611.237578 293.199449 
L 614.434294 300.136314 
L 615.870099 307.732209 
L 614.549178 311.100297 
L 608.273966 310.984222 
L 596.901932 312.899343 
L 597.432017 319.838591 
L 592.507758 325.29651 
L 579.232758 331.505223 
L 568.908023 342.358612 
L 561.973066 348.177389 
L 552.781434 354.215683 
L 552.767133 358.458745 
L 539.859665 364.03679 
L 535.55082 364.523734 
L 532.785036 371.55999 
L 535.194729 391.209831 
L 531.28583 399.973628 
L 531.243881 415.645689 
L 526.470258 416.092352 
L 522.271529 423.12813 
L 525.079263 426.168491 
L 516.668457 428.783639 
L 513.561837 435.057182 
L 509.860301 437.708559 
L 501.125343 429.095159 
L 493.316604 406.873311 
L 490.084612 402.510122 
L 485.183712 393.648125 
L 481.300555 376.349343 
L 472.909294 363.679984 
L 466.329474 333.999052 
L 466.362366 322.825562 
L 464.57333 314.186658 
L 451.149125 319.708215 
L 444.647483 318.602283 
L 432.597112 307.422357 
L 437.032282 304.087876 
L 434.30797 300.468093 
z
" clip-path="url(#p63e8d779db)" style="fill: #e8edf4; stroke: #b8c5d4; stroke-width: 0.45"/>
    <path d="M 533.369464 245.569762 
L 536.951349 236.941107 
L 546.628733 230.54982 
L 554.024178 233.385916 
L 563.337366 239.396086 
L 568.52047 240.719868 
L 571.616127 245.150747 
L 578.784188 246.9691 
L 586.271635 251.02053 
L 596.706487 253.135864 
L 607.461678 254.037294 
L 606.748542 258.010546 
L 607.963161 263.871986 
L 606.906328 267.522993 
L 599.22439 267.677204 
L 580.99939 264.648761 
L 575.678998 259.956176 
L 563.034188 258.760625 
z
" clip-path="url(#p63e8d779db)" style="fill: #e8edf4; stroke: #b8c5d4; stroke-width: 0.45"/>
    <path d="M 356.126191 236.024423 
L 371.583023 240.735122 
L 380.81136 239.35366 
L 386.32529 240.529905 
L 388.192504 238.507765 
L 394.616921 239.318146 
L 406.605322 235.482897 
L 406.928044 227.633162 
L 412.070152 222.411923 
L 418.937896 222.42813 
L 419.946106 219.847304 
L 426.995947 218.644603 
L 430.406699 219.503607 
L 434.014326 216.909433 
L 433.504739 211.369762 
L 437.421741 205.802204 
L 443.292716 203.468067 
L 439.666974 197.36518 
L 448.441974 197.653581 
L 450.978468 194.332209 
L 450.593299 190.787982 
L 455.187684 186.912929 
L 454.133235 182.324979 
L 451.952356 178.415366 
L 457.339008 174.397543 
L 467.243775 172.459778 
L 477.829263 171.388168 
L 487.888479 168.649794 
L 494.704263 172.950535 
L 497.434294 180.03875 
L 512.60511 183.769126 
L 503.696635 191.522092 
L 493.414326 192.893067 
L 479.4219 190.64259 
L 474.899496 194.620133 
L 481.371582 208.9441 
L 488.816604 213.499158 
L 480.950661 218.835281 
L 481.093193 225.410811 
L 472.138479 234.666796 
L 466.355693 244.02813 
L 456.705957 253.699317 
L 445.994623 252.998099 
L 435.82815 262.667617 
L 441.865968 266.810334 
L 442.91708 273.90999 
L 448.099707 278.588035 
L 449.931169 286.508083 
L 429.631116 286.48401 
L 423.487949 292.638379 
L 416.726508 290.305673 
L 413.975502 283.675323 
L 406.848436 276.650509 
L 389.852832 278.385678 
L 374.865544 278.557527 
L 361.874178 279.850562 
L 365.350237 269.133983 
L 378.656222 264.368941 
L 377.893034 260.120874 
L 373.479316 258.627627 
L 373.22476 250.503316 
L 364.406381 246.447357 
L 360.692928 240.876224 
z
" clip-path="url(#p63e8d779db)" style="fill: #e8edf4; stroke: #b8c5d4; stroke-width: 0.45"/>
    <path d="M 352.936148 200.53544 
L 359.230904 182.329508 
L 368.638479 185.829402 
L 375.593934 184.599052 
L 377.520735 180.419153 
L 384.80225 179.028157 
L 390.001085 176.222807 
L 391.842557 168.845477 
L 399.617451 167.061446 
L 401.06279 163.777972 
L 405.414538 166.244391 
L 413.332917 166.591663 
L 423.108977 169.663724 
L 429.786519 166.700588 
L 432.893616 168.482712 
L 435.868669 164.259195 
L 441.383076 164.450826 
L 442.803627 163.095344 
L 443.778945 159.375694 
L 447.75029 156.166584 
L 452.743669 158.264041 
L 451.740703 161.083454 
L 454.531275 161.521536 
L 453.671318 169.271404 
L 457.323754 172.292219 
L 460.537631 170.353978 
L 464.631964 169.438247 
L 470.380428 165.308401 
L 486.246265 166.002707 
L 487.888479 168.649794 
L 477.829263 171.388168 
L 467.243775 172.459778 
L 457.339008 174.397543 
L 451.952356 178.415366 
L 454.133235 182.324979 
L 455.187684 186.912929 
L 450.593299 190.787982 
L 450.978468 194.332209 
L 448.441974 197.653581 
L 439.666974 197.36518 
L 443.292716 203.468067 
L 437.421741 205.802204 
L 433.504739 211.369762 
L 434.014326 216.909433 
L 430.406699 219.503607 
L 426.995947 218.644603 
L 419.946106 219.847304 
L 418.937896 222.42813 
L 412.070152 222.411923 
L 406.928044 227.633162 
L 406.605322 235.482897 
L 394.616921 239.318146 
L 388.192504 238.507765 
L 386.32529 240.529905 
L 380.81136 239.35366 
L 371.583023 240.735122 
L 356.126191 236.024423 
L 364.492663 227.661287 
L 363.737102 221.723814 
L 356.750661 220.168835 
L 356.028468 214.312638 
L 353.006699 206.948178 
L 356.951349 201.897119 
z
" clip-path="url(#p63e8d779db)" style="fill: #e8edf4; stroke: #b8c5d4; stroke-width: 0.45"/>
    <path d="M 416.713161 150.134963 
L 419.104263 146.073046 
L 426.806699 146.506838 
L 431.190385 141.408348 
L 434.122536 135.489227 
L 446.457017 133.34553 
L 444.534029 137.623152 
L 445.855428 140.187294 
L 449.663267 139.948946 
L 446.285407 142.795768 
L 436.245258 141.251038 
L 435.371477 146.569285 
L 445.373489 145.854243 
L 456.770788 148.849794 
L 474.211625 147.449741 
L 476.549813 155.986393 
L 479.581593 155.057553 
L 485.183712 157.157633 
L 484.862419 160.744523 
L 486.246265 166.002707 
L 470.380428 165.308401 
L 464.631964 169.438247 
L 460.537631 170.353978 
L 457.323754 172.292219 
L 453.671318 169.271404 
L 454.531275 161.521536 
L 451.740703 161.083454 
L 452.743669 158.264041 
L 447.75029 156.166584 
L 443.778945 159.375694 
L 442.803627 163.095344 
L 441.383076 164.450826 
L 435.868669 164.259195 
L 432.893616 168.482712 
L 429.786519 166.700588 
L 423.108977 169.663724 
L 420.290279 168.539439 
L 425.474813 159.203846 
L 423.482229 152.335864 
z
" clip-path="url(#p63e8d779db)" style="fill: #e8edf4; stroke: #b8c5d4; stroke-width: 0.45"/>
    <path d="M 435.371477 146.569285 
L 436.245258 141.251038 
L 446.285407 142.795768 
L 449.663267 139.948946 
L 456.680216 140.857765 
L 468.492716 134.214306 
L 457.558765 129.354163 
L 450.988479 131.653978 
L 444.182229 128.181732 
L 451.923754 122.206838 
L 449.184665 121.298734 
L 451.250661 117.257076 
L 457.323754 115.955461 
L 472.499337 119.133348 
L 473.934188 113.687347 
L 479.169729 111.77723 
L 492.306487 115.65562 
L 495.658606 114.639783 
L 524.640703 115.856785 
L 529.266551 119.172198 
L 534.952091 120.525297 
L 533.655481 122.610599 
L 519.119623 127.607553 
L 515.831381 131.269047 
L 503.99886 132.365207 
L 500.510883 138.255487 
L 490.746265 137.018226 
L 484.372377 138.822993 
L 475.566392 143.181176 
L 476.83726 145.339412 
L 474.211625 147.449741 
L 456.770788 148.849794 
L 445.373489 145.854243 
z
" clip-path="url(#p63e8d779db)" style="fill: #e8edf4; stroke: #b8c5d4; stroke-width: 0.45"/>
    <path d="M 278.899707 125.752733 
L 282.975449 122.683533 
L 293.446529 120.764121 
L 299.681699 123.348284 
L 306.138055 130.581414 
L 321.276932 130.005329 
L 319.762472 125.358745 
L 327.643193 122.18062 
L 335.41475 116.821139 
L 347.844093 121.696059 
L 348.830375 129.056706 
L 352.359824 130.946086 
L 362.333712 130.521351 
L 365.428892 132.195742 
L 369.963214 141.706044 
L 386.530269 152.420239 
L 396.177144 156.937638 
L 408.447271 160.885864 
L 408.193193 166.530408 
L 405.414538 166.244391 
L 401.06279 163.777972 
L 399.617451 167.061446 
L 391.842557 168.845477 
L 390.001085 176.222807 
L 384.80225 179.028157 
L 377.520735 180.419153 
L 375.593934 184.599052 
L 368.638479 185.829402 
L 359.230904 182.329508 
L 358.421477 174.566769 
L 351.545152 174.236658 
L 341.002568 166.067299 
L 333.635724 165.058851 
L 323.435883 160.382712 
L 316.876561 159.532527 
L 312.827038 161.250773 
L 306.657652 160.983348 
L 300.096424 166.257023 
L 291.990703 168.042008 
L 290.274125 161.518199 
L 291.615544 151.869656 
L 284.421265 148.747304 
L 286.789962 142.431097 
L 280.666339 141.892908 
L 282.707546 134.117537 
L 291.405322 136.382076 
L 299.511042 133.430382 
L 292.790597 127.893808 
L 290.146847 122.617511 
L 282.721371 124.970477 
L 281.779898 131.729772 
z
" clip-path="url(#p63e8d779db)" style="fill: #e8edf4; stroke: #b8c5d4; stroke-width: 0.45"/>
    <path d="M 201.475396 147.478342 
L 207.79208 144.850562 
L 209.25601 148.330434 
L 213.91475 152.58875 
L 220.241921 153.815048 
L 223.582123 153.543808 
L 234.461254 146.738273 
L 237.920629 146.056838 
L 240.645894 148.763989 
L 237.465385 153.327866 
L 243.21814 158.158215 
L 245.513902 157.698205 
L 248.432229 164.500164 
L 257.178627 166.421722 
L 263.585883 171.050191 
L 276.700237 172.640445 
L 291.106911 170.199529 
L 291.990703 168.042008 
L 300.096424 166.257023 
L 306.657652 160.983348 
L 312.827038 161.250773 
L 316.876561 159.532527 
L 323.435883 160.382712 
L 333.635724 165.058851 
L 341.002568 166.067299 
L 351.545152 174.236658 
L 358.421477 174.566769 
L 359.230904 182.329508 
L 352.936148 200.53544 
L 356.951349 201.897119 
L 353.006699 206.948178 
L 356.028468 214.312638 
L 356.750661 220.168835 
L 363.737102 221.723814 
L 364.492663 227.661287 
L 356.126191 236.024423 
L 360.692928 240.876224 
L 364.406381 246.447357 
L 373.22476 250.503316 
L 373.479316 258.627627 
L 377.893034 260.120874 
L 378.656222 264.368941 
L 365.350237 269.133983 
L 361.874178 279.850562 
L 334.462313 274.945609 
L 324.05225 273.74696 
L 320.118087 262.435705 
L 315.702938 260.801118 
L 308.614485 262.44929 
L 299.310354 266.913777 
L 288.037949 263.853872 
L 278.725714 256.764942 
L 269.843934 254.1374 
L 263.683606 245.384804 
L 256.876402 233.086075 
L 251.912102 234.580991 
L 246.049707 231.524184 
L 242.605587 235.124661 
L 237.500661 230.275482 
L 237.409612 225.361711 
L 234.463161 225.364333 
L 235.975237 218.682739 
L 231.228786 211.672225 
L 219.925873 206.615922 
L 213.536254 197.847834 
L 215.674231 190.649502 
L 220.317239 187.465895 
L 219.621265 182.077574 
L 213.572483 179.308692 
L 207.595414 168.304617 
L 202.550343 160.914465 
L 204.35511 158.057633 
z
" clip-path="url(#p63e8d779db)" style="fill: #e8edf4; stroke: #b8c5d4; stroke-width: 0.45"/>
    <path d="M 124.087313 209.457977 
L 125.161784 207.991902 
L 125.020682 204.21624 
L 127.284029 199.165895 
L 132.314114 195.689359 
L 130.805375 192.07196 
L 126.656222 191.6017 
L 125.794835 184.543994 
L 128.052462 180.747834 
L 132.993404 176.705938 
L 133.492504 171.560254 
L 136.511413 173.354296 
L 146.667398 170.788247 
L 151.576402 172.525085 
L 159.165385 172.496245 
L 169.779951 169.034963 
L 174.750449 169.191081 
L 185.243457 167.756467 
L 180.515597 173.512797 
L 175.466445 175.791637 
L 176.335936 182.530196 
L 172.85082 193.682235 
L 152.42921 203.282156 
L 134.364856 213.113273 
z
" clip-path="url(#p63e8d779db)" style="fill: #e8edf4; stroke: #b8c5d4; stroke-width: 0.45"/>
    <path d="M 196.618828 132.128528 
L 209.438585 130.689624 
L 211.348224 133.113618 
L 214.861466 134.710069 
L 213.005693 137.023469 
L 217.919941 140.18777 
L 215.31957 143.125641 
L 219.235618 145.634486 
L 223.377144 147.146086 
L 223.582123 153.543808 
L 220.241921 153.815048 
L 216.476032 148.478448 
L 216.518457 147.055276 
L 212.442716 147.076012 
L 209.710777 144.601489 
L 207.79208 144.850562 
L 204.157758 142.156997 
L 197.298595 139.864094 
L 198.186201 135.375058 
z
" clip-path="url(#p63e8d779db)" style="fill: #e8edf4; stroke: #b8c5d4; stroke-width: 0.45"/>
    <path d="M 8.591286 27.01563 
L 14.12333 25.132686 
L 14.176243 21.455461 
L 11.617345 17.94651 
L 11.216921 13.865763 
L 20.133023 13.928448 
L 30.147907 10.453342 
L 32.288743 5.245689 
L 39.851508 2.291849 
L 38.984877 -1.840143 
L 54.504157 -6.950789 
L 64.215862 -4.637389 
L 65.526296 -2.347346 
L 70.366657 -3.448511 
L 79.384771 -1.248564 
L 80.288108 3.081732 
L 78.311254 5.570318 
L 84.094517 11.609804 
L 87.848489 13.292537 
L 87.293616 14.958586 
L 93.514008 16.581971 
L 96.171106 19.041478 
L 92.581593 21.058851 
L 85.138445 20.738721 
L 83.363267 21.600615 
L 85.529368 24.662664 
L 87.798384 30.569871 
L 79.87958 31.117114 
L 77.037525 33.142352 
L 76.44404 37.785122 
L 72.774919 36.893702 
L 64.450396 37.335599 
L 62.032599 35.178793 
L 58.571318 36.786923 
L 55.102885 35.453846 
L 47.838055 35.26865 
L 37.542398 33.054878 
L 28.223966 32.331971 
L 21.077832 32.536711 
L 16.022483 35.036737 
L 11.613055 35.396404 
L 11.437154 31.289677 
z
" clip-path="url(#p63e8d779db)" style="fill: #e8edf4; stroke: #b8c5d4; stroke-width: 0.45"/>
    <path d="M -1.683873 64.511022 
L 0.11708 60.792325 
L 2.675025 58.390736 
L 4.688585 58.928925 
L 2.308924 54.783586 
L 10.685407 47.111181 
L 15.263108 46.037664 
L 16.25225 43.449926 
L 11.613055 35.396404 
L 16.022483 35.036737 
L 21.077832 32.536711 
L 28.223966 32.331971 
L 37.542398 33.054878 
L 47.838055 35.26865 
L 55.102885 35.453846 
L 58.571318 36.786923 
L 62.032599 35.178793 
L 64.450396 37.335599 
L 72.774919 36.893702 
L 76.44404 37.785122 
L 77.037525 33.142352 
L 79.87958 31.117114 
L 91.243291 30.9428 
L 93.573595 28.844709 
L 96.375131 29.308056 
L 105.940491 28.416875 
L 111.835301 33.639783 
L 109.531434 35.507474 
L 110.295576 38.37098 
L 117.650979 38.817643 
L 120.932421 42.817732 
L 120.731381 44.632606 
L 132.447112 47.876038 
L 139.525078 46.415207 
L 145.218246 50.735016 
L 150.608712 50.635387 
L 164.206264 53.637185 
L 164.314644 56.345715 
L 160.56817 61.175812 
L 162.606532 66.262354 
L 161.15511 69.338512 
L 152.228385 70.014833 
L 147.473489 72.590525 
L 147.182229 76.688194 
L 139.817292 77.425879 
L 133.680322 80.410228 
L 125.044517 80.896695 
L 117.098966 84.335334 
L 117.563123 89.274848 
L 116.171435 88.993892 
L 114.974314 87.172185 
L 105.449392 84.829991 
L 103.018949 87.114516 
L 101.751296 86.111976 
L 87.412313 83.780461 
L 86.777356 80.34063 
L 78.230216 81.476594 
L 74.806593 86.556494 
L 67.663796 93.374423 
L 63.479845 91.791319 
L 59.144782 93.275509 
L 55.028521 91.575853 
L 57.350502 90.57384 
L 61.48726 84.467855 
L 60.834665 82.816107 
L 62.763849 82.08009 
L 63.672907 83.356918 
L 69.109135 83.626965 
L 71.550767 82.944815 
L 69.830852 82.009539 
L 70.482493 80.634751 
L 67.261466 78.289651 
L 65.92815 74.433189 
L 62.567928 72.924211 
L 63.230534 69.798284 
L 59.06279 67.316372 
L 55.268299 66.971245 
L 48.469676 64.097251 
L 42.337949 65.009645 
L 40.138002 66.370133 
L 36.246265 66.368702 
L 33.926191 68.524794 
L 27.116604 69.411208 
L 23.96708 70.827468 
L 19.684453 68.573416 
L 13.770576 68.539094 
L 8.063108 67.517537 
L 4.080799 69.492961 
L 3.437737 67.020344 
z
" clip-path="url(#p63e8d779db)" style="fill: #e8edf4; stroke: #b8c5d4; stroke-width: 0.45"/>
    <path d="M -75.583026 22.456044 
L -73.011257 19.993914 
L -75.166394 15.2999 
L -68.864011 12.590842 
L -42.851246 5.203501 
L -33.644837 6.761817 
L -32.949339 9.011579 
L -12.692189 10.175668 
L 4.270523 10.037188 
L 9.00172 11.023946 
L 11.216921 13.865763 
L 11.617345 17.94651 
L 14.176243 21.455461 
L 14.12333 25.132686 
L 8.591286 27.01563 
L 11.437154 31.289677 
L 11.613055 35.396404 
L 16.25225 43.449926 
L 15.263108 46.037664 
L 10.685407 47.111181 
L 2.308924 54.783586 
L 4.688585 58.928925 
L -6.091394 54.84508 
L -12.731754 56.14884 
L -17.086839 55.201647 
L -22.536892 57.17874 
L -27.188958 53.909089 
L -30.981543 55.161128 
L -35.747538 50.061923 
L -42.605748 49.504666 
L -43.48096 46.616372 
L -49.807178 45.584804 
L -51.18435 47.966849 
L -56.195367 46.058639 
L -55.619996 43.520715 
L -62.516818 42.718199 
L -66.889064 39.74839 
L -70.670208 33.858348 
L -69.951352 30.678077 
L -72.233767 25.743808 
z
" clip-path="url(#p63e8d779db)" style="fill: #e8edf4; stroke: #b8c5d4; stroke-width: 0.45"/>
    <path d="M -55.955112 78.992537 
L -52.892824 73.053872 
L -54.679477 71.054614 
L -49.484456 71.036499 
L -48.784191 67.267034 
L -40.689911 70.634645 
L -32.946956 69.504402 
L -32.204265 67.651965 
L -18.717612 65.384566 
L -16.554371 63.214174 
L -13.531172 62.651436 
L -3.652146 65.45464 
L -1.683873 64.511022 
L 3.437737 67.020344 
L 4.080799 69.492961 
L -1.553259 71.427866 
L -5.918831 77.68401 
L -11.495684 83.939677 
L -18.891606 85.679614 
L -24.649127 85.271324 
L -35.165017 89.074158 
L -42.784509 87.300376 
L -52.611098 82.208559 
L -54.403471 79.09455 
z
" clip-path="url(#p63e8d779db)" style="fill: #e8edf4; stroke: #b8c5d4; stroke-width: 0.45"/>
    <path d="M 40.138002 66.370133 
L 42.337949 65.009645 
L 48.469676 64.097251 
L 55.268299 66.971245 
L 59.06279 67.316372 
L 63.230534 69.798284 
L 62.567928 72.924211 
L 65.92815 74.433189 
L 67.261466 78.289651 
L 70.482493 80.634751 
L 69.830852 82.009539 
L 71.550767 82.944815 
L 69.109135 83.626965 
L 63.672907 83.356918 
L 62.763849 82.08009 
L 60.834665 82.816107 
L 61.48726 84.467855 
L 57.350502 90.57384 
L 55.028521 91.575853 
L 53.376296 87.366637 
L 54.350184 83.427945 
L 54.05511 79.379137 
L 42.950025 67.269179 
z
" clip-path="url(#p63e8d779db)" style="fill: #e8edf4; stroke: #b8c5d4; stroke-width: 0.45"/>
    <path d="M -18.891606 85.679614 
L -11.495684 83.939677 
L -5.918831 77.68401 
L -1.553259 71.427866 
L 8.063108 67.517537 
L 13.770576 68.539094 
L 19.684453 68.573416 
L 23.96708 70.827468 
L 27.116604 69.411208 
L 33.926191 68.524794 
L 36.246265 66.368702 
L 40.138002 66.370133 
L 42.950025 67.269179 
L 54.05511 79.379137 
L 54.350184 83.427945 
L 53.376296 87.366637 
L 55.028521 91.575853 
L 59.144782 93.275509 
L 63.479845 91.791319 
L 67.663796 93.374423 
L 67.878309 95.753607 
L 63.405004 97.738565 
L 60.602991 96.874555 
L 58.022165 108.003236 
L 52.59833 107.034592 
L 45.885513 103.681282 
L 35.025926 105.825932 
L 30.451561 108.17866 
L 16.904368 107.693385 
L 9.816392 106.254719 
L 6.242133 106.930196 
L 1.898966 101.529719 
L 4.036466 99.972834 
L 1.760724 98.824237 
L -1.135197 100.891425 
L -6.513746 98.211446 
L -7.237846 94.408851 
L -12.857602 92.239174 
L -13.89203 89.303925 
z
" clip-path="url(#p63e8d779db)" style="fill: #e8edf4; stroke: #b8c5d4; stroke-width: 0.45"/>
    <path d="M -11.183449 -5.677299 
L -0.617983 -8.506721 
L 14.852674 -7.915143 
L 23.915121 -8.82706 
L 25.208871 -6.908363 
L 30.117398 -6.315831 
L 38.984877 -1.840143 
L 39.851508 2.291849 
L 32.288743 5.245689 
L 30.147907 10.453342 
L 20.133023 13.928448 
L 11.216921 13.865763 
L 9.00172 11.023946 
L 4.270523 10.037188 
L 3.532123 7.68303 
L 4.516498 5.157023 
L 0.438849 3.692855 
L -9.22185 2.076859 
z
" clip-path="url(#p63e8d779db)" style="fill: #e8edf4; stroke: #b8c5d4; stroke-width: 0.45"/>
    <path d="M 1.036625 120.799635 
L 2.553945 119.498019 
L 1.553839 118.400668 
L 3.105481 115.465419 
L 6.622059 112.581414 
L 2.140174 108.599582 
L 1.312631 105.230302 
L 3.588373 103.137611 
L 6.242133 106.930196 
L 9.816392 106.254719 
L 16.904368 107.693385 
L 30.451561 108.17866 
L 35.025926 105.825932 
L 45.885513 103.681282 
L 52.59833 107.034592 
L 58.022165 108.003236 
L 53.234718 111.8249 
L 49.865915 118.423072 
L 52.843828 123.686022 
L 44.901614 122.448761 
L 35.504527 125.350641 
L 35.403945 129.94455 
L 27.019358 130.815472 
L 20.520099 127.592299 
L 13.135142 130.127362 
L 6.311731 129.860652 
L 5.656752 123.760387 
z
" clip-path="url(#p63e8d779db)" style="fill: #e8edf4; stroke: #b8c5d4; stroke-width: 0.45"/>
    <path d="M -19.538958 145.662373 
L -15.249657 141.188353 
L -14.696214 138.190419 
L -11.69828 136.852813 
L -11.513322 134.429296 
L -5.479318 133.612479 
L -1.96274 131.596059 
L 3.03636 131.77482 
L 4.553454 130.166852 
L 13.135142 130.127362 
L 20.520099 127.592299 
L 27.019358 130.815472 
L 35.403945 129.94455 
L 35.504527 125.350641 
L 39.99833 127.793226 
L 37.142451 133.566478 
L 34.950131 134.600906 
L 24.516233 133.466849 
L 13.344888 135.864624 
L 19.739273 141.050111 
L 15.052885 142.553607 
L 9.915068 142.562903 
L 5.035142 137.812161 
L 3.303786 139.836446 
L 5.365015 145.345848 
L 9.979898 149.674952 
L 6.502885 151.696139 
L 11.640227 155.947781 
L 16.206487 158.622993 
L 16.344729 163.834698 
L 7.81189 161.390207 
L 10.532864 166.094947 
L 4.675237 167.063353 
L 8.173701 175.20411 
L 2.046741 175.319471 
L -5.517454 171.306891 
L -8.976829 163.927177 
L -10.590918 157.78973 
L -18.914487 148.2892 
z
" clip-path="url(#p63e8d779db)" style="fill: #e8edf4; stroke: #b8c5d4; stroke-width: 0.45"/>
    <path d="M 11.501508 185.743358 
L 13.208076 181.822781 
L 18.251032 184.931308 
L 25.43101 184.405752 
L 32.295894 185.060493 
L 32.072801 186.665763 
L 37.100025 185.558877 
L 35.9469 188.28009 
L 22.66332 189.064253 
L 22.755799 187.542166 
z
" clip-path="url(#p63e8d779db)" style="fill: #e8edf4; stroke: #b8c5d4; stroke-width: 0.45"/>
    <path d="M 36.00029 147.151091 
L 46.232546 138.32866 
L 60.438055 137.959698 
L 64.312631 130.949184 
L 81.894093 132.170239 
L 92.982493 126.186764 
L 103.731964 123.579004 
L 118.993352 123.382844 
L 135.094199 129.884963 
L 148.32725 133.452786 
L 159.073383 132.030567 
L 167.014167 132.852389 
L 177.905216 128.037294 
L 187.733712 127.598973 
L 196.618828 132.128528 
L 198.186201 135.375058 
L 197.298595 139.864094 
L 204.157758 142.156997 
L 207.79208 144.850562 
L 201.475396 147.478342 
L 204.35511 158.057633 
L 202.550343 160.914465 
L 207.59548 168.304738 
L 203.174813 169.862982 
L 199.935195 167.513353 
L 189.205746 166.323046 
L 185.243457 167.756467 
L 174.750449 169.191081 
L 169.779951 169.034963 
L 159.165385 172.496245 
L 151.576402 172.525085 
L 146.667398 170.788247 
L 136.511413 173.354296 
L 133.492504 171.560254 
L 132.993404 176.705938 
L 128.052462 180.747834 
L 124.660777 176.564836 
L 128.154474 173.099979 
L 122.528521 173.885572 
L 114.813214 171.763088 
L 108.469835 177.072516 
L 94.469305 178.109327 
L 87.001402 173.158374 
L 77.057546 172.848522 
L 74.93101 176.675668 
L 68.555693 177.769921 
L 59.634824 172.858056 
L 49.564167 173.024184 
L 44.099337 163.849952 
L 37.360301 158.732394 
L 41.847907 151.559089 
z
" clip-path="url(#p63e8d779db)" style="fill: #e8edf4; stroke: #b8c5d4; stroke-width: 0.45"/>
    <path d="M 34.82476 136.504587 
L 34.950131 134.600906 
L 37.142451 133.566478 
L 39.99833 127.793226 
L 35.504527 125.350641 
L 44.901614 122.448761 
L 52.843828 123.686022 
L 53.93975 127.232633 
L 61.99208 130.211737 
L 60.313161 132.47151 
L 49.359665 132.980143 
L 37.727356 140.801038 
z
" clip-path="url(#p63e8d779db)" style="fill: #e8edf4; stroke: #b8c5d4; stroke-width: 0.45"/>
    <path d="M 529.741816 435.537929 
L 533.917186 420.564227 
L 540.291551 425.689889 
L 544.585618 432.186049 
L 549.047006 441.79026 
L 547.657441 451.395662 
L 543.789538 454.021298 
L 535.767239 456.131626 
L 531.377356 448.797198 
z
" clip-path="url(#p63e8d779db)" style="fill: #e8edf4; stroke: #b8c5d4; stroke-width: 0.45"/>
    <path d="M 474.211625 147.449741 
L 476.83726 145.339412 
L 475.566392 143.181176 
L 484.372377 138.822993 
L 490.746265 137.018226 
L 500.510883 138.255487 
L 503.99886 132.365207 
L 515.831381 131.269047 
L 519.119623 127.607553 
L 533.655481 122.610599 
L 534.952091 120.525297 
L 534.215597 115.266637 
L 540.544199 112.865525 
L 532.241127 96.840948 
L 550.51475 93.15562 
L 555.236413 91.102018 
L 561.892504 74.586446 
L 580.192345 77.622039 
L 585.323013 73.452389 
L 585.763479 64.202124 
L 593.424919 63.34026 
L 600.446635 57.198522 
L 604.056169 56.440101 
L 606.478256 62.876436 
L 614.231222 67.768994 
L 627.390385 71.233136 
L 633.755216 78.662664 
L 630.203362 89.440975 
L 633.522112 93.44116 
L 656.908288 96.306335 
L 668.053415 102.054561 
L 673.753733 103.078501 
L 677.956275 111.5825 
L 683.370576 117.060201 
L 693.539432 116.845689 
L 712.57958 118.91383 
L 724.848754 117.630567 
L 733.955057 119.004402 
L 747.600449 124.607474 
L 758.76226 124.59937 
L 762.846106 127.467643 
L 773.586519 122.514783 
L 788.488479 119.312108 
L 802.314538 118.962214 
L 813.093563 115.717114 
L 819.712949 110.776409 
L 826.169305 107.674317 
L 824.676296 104.629666 
L 821.730322 101.084963 
L 826.572589 95.138432 
L 841.245258 97.842961 
L 850.43689 92.945397 
L 864.50225 89.371616 
L 871.261784 83.274449 
L 877.754368 80.649767 
L 891.154263 79.425853 
L 898.431964 80.465763 
L 899.442557 77.187532 
L 891.082758 70.739518 
L 883.68064 67.790683 
L 876.590279 71.194762 
L 867.489697 69.75848 
L 862.267504 70.928766 
L 859.891657 67.157394 
L 870.901402 50.985281 
L 881.975025 54.468014 
L 894.974496 48.638989 
L 894.890822 44.579817 
L 903.217785 34.795919 
L 908.347774 31.838879 
L 908.233288 26.745821 
L 903.171741 24.553501 
L 910.791233 19.964121 
L 922.254316 18.300694 
L 934.483584 18.050947 
L 948.290438 20.797622 
L 956.390915 24.19455 
L 968.762102 43.132686 
L 972.174693 52.168442 
L 988.229368 55.117272 
L 999.155693 61.675164 
L 1002.891352 70.342215 
L 1016.907501 70.353007 
L 1024.904368 66.714068 
L 1040.150025 63.994762 
L 1035.302479 72.29488 
L 1031.719087 75.67081 
L 1028.557758 85.776859 
L 1022.353987 94.750901 
L 1011.158394 93.117484 
L 1003.241242 96.375631 
L 1005.670682 104.275959 
L 1004.343563 115.175111 
L 999.631434 115.423946 
L 999.688011 120.109959 
L 993.731381 114.664094 
L 990.063691 119.833612 
L 975.81671 123.806626 
L 977.257758 128.672728 
L 969.281699 128.337135 
L 964.902779 125.44598 
L 958.565121 131.988379 
L 948.398648 136.946722 
L 940.88689 142.862744 
L 927.990385 145.544391 
L 921.19939 149.855382 
L 911.266021 152.373522 
L 916.168352 148.098999 
L 914.238214 144.506865 
L 921.54261 138.306255 
L 916.669835 133.473046 
L 908.628468 136.729349 
L 898.213638 143.143517 
L 892.530004 149.100058 
L 883.483288 149.543385 
L 878.778309 153.84794 
L 883.639644 160.085254 
L 891.189538 161.599476 
L 891.498436 165.740048 
L 898.796635 168.434327 
L 909.134241 161.847596 
L 917.32386 165.438777 
L 923.28922 165.684513 
L 924.784135 170.517008 
L 911.723648 173.093305 
L 907.414326 178.073575 
L 898.443881 182.701091 
L 893.708394 189.157686 
L 903.636996 194.226859 
L 907.26083 203.30027 
L 912.875343 211.75374 
L 919.140068 218.839571 
L 918.990385 225.691822 
L 913.200449 228.210916 
L 915.407546 233.130885 
L 920.837102 235.994153 
L 919.419411 243.50758 
L 917.076455 250.818173 
L 911.921953 251.646907 
L 897.714538 273.738856 
L 889.14833 284.74741 
L 863.631805 301.024396 
L 853.236519 302.083374 
L 847.597695 306.181997 
L 844.408129 303.187876 
L 839.18975 307.772251 
L 826.298489 312.392617 
L 816.537684 313.807209 
L 813.388161 323.549423 
L 808.276085 324.089757 
L 805.857335 317.394815 
L 808.042027 313.826515 
L 795.665597 310.873152 
L 791.305746 312.375217 
L 782.018775 309.981255 
L 777.626508 306.233242 
L 779.085195 300.919285 
L 770.652462 299.234645 
L 766.205852 295.77384 
L 758.343246 300.689757 
L 749.373754 301.754216 
L 742.016921 301.707739 
L 732.285195 305.310837 
L 733.679051 315.862241 
L 728.761466 315.610546 
L 727.65458 309.629931 
L 720.888373 312.31563 
L 710.043563 307.154693 
L 712.728786 299.491584 
L 706.887366 297.704931 
L 704.687419 289.213088 
L 694.950449 290.743279 
L 696.056381 279.800747 
L 704.794199 272.097596 
L 704.894305 257.429455 
L 700.86814 255.230223 
L 697.784877 249.799476 
L 692.389644 250.48544 
L 682.442928 249.106838 
L 685.558606 245.232977 
L 681.233076 239.496907 
L 674.65707 243.381255 
L 666.919358 241.114571 
L 656.286678 246.988883 
L 647.890174 253.849714 
L 640.450873 255.004031 
L 636.412313 252.523787 
L 631.538585 252.299264 
L 624.945894 250.163909 
L 619.964432 252.504004 
L 613.861784 259.361976 
L 613.087631 252.097145 
L 607.461678 254.037294 
L 596.706487 253.135864 
L 586.271635 251.02053 
L 578.784188 246.9691 
L 571.616127 245.150747 
L 568.52047 240.719868 
L 563.337366 239.396086 
L 554.024178 233.385916 
L 546.628733 230.54982 
L 542.804686 232.756679 
L 529.9835 226.30652 
L 520.920576 220.465577 
L 518.333553 210.297675 
L 524.953892 211.53732 
L 525.256116 206.827098 
L 521.586519 202.105911 
L 522.519888 194.581044 
L 512.60511 183.769126 
L 497.434294 180.03875 
L 494.704263 172.950535 
L 487.888479 168.649794 
L 486.246265 166.002707 
L 484.862419 160.744523 
L 485.183712 157.157633 
L 479.581593 155.057553 
L 476.549813 155.986393 
z
" clip-path="url(#p63e8d779db)" style="fill: #e8edf4; stroke: #b8c5d4; stroke-width: 0.45"/>
    <path d="M 796.619464 332.526303 
L 801.165703 328.346165 
L 811.243987 325.761287 
L 816.547695 325.98009 
L 818.6094 329.500244 
L 814.556063 333.559539 
L 812.420947 338.886605 
L 804.451085 343.320821 
L 796.88689 340.461367 
z
" clip-path="url(#p63e8d779db)" style="fill: #e8edf4; stroke: #b8c5d4; stroke-width: 0.45"/>
    <path d="M 209.438585 130.689624 
L 211.698118 129.18303 
L 218.572059 131.835837 
L 223.544464 132.384036 
L 224.801508 131.302654 
L 220.258606 126.310943 
L 222.652568 125.039121 
L 225.245788 125.348496 
L 231.585354 130.951568 
L 235.665862 131.581759 
L 237.248966 129.23499 
L 242.756706 125.517014 
L 247.608023 130.374529 
L 252.300131 136.91812 
L 256.598013 137.349529 
L 259.439114 139.836446 
L 251.841551 140.57866 
L 250.236996 147.74267 
L 248.650078 150.973708 
L 245.267451 153.129799 
L 245.513902 157.698205 
L 243.21814 158.158215 
L 237.465385 153.327866 
L 240.645894 148.763989 
L 237.920629 146.056838 
L 234.461254 146.738273 
L 223.582123 153.543808 
L 223.377144 147.146086 
L 219.235618 145.634486 
L 215.31957 143.125641 
L 217.919941 140.18777 
L 213.005693 137.023469 
L 214.861466 134.710069 
L 211.348224 133.113618 
z
" clip-path="url(#p63e8d779db)" style="fill: #e8edf4; stroke: #b8c5d4; stroke-width: 0.45"/>
    <path d="M 207.79208 144.850562 
L 209.710777 144.601489 
L 212.442716 147.076012 
L 216.518457 147.055276 
L 216.476032 148.478448 
L 220.241921 153.815048 
L 213.91475 152.58875 
L 209.25601 148.330434 
z
" clip-path="url(#p63e8d779db)" style="fill: #e8edf4; stroke: #b8c5d4; stroke-width: 0.45"/>
    <path d="M 163.154368 110.51661 
L 164.279368 109.427124 
L 185.656802 112.497113 
L 198.216938 116.920036 
L 199.833274 118.634614 
L 205.427197 117.186049 
L 214.030587 119.115948 
L 216.854432 122.901181 
L 222.652568 125.039121 
L 220.258606 126.310943 
L 224.801508 131.302654 
L 223.544464 132.384036 
L 218.572059 131.835837 
L 211.698118 129.18303 
L 209.438585 130.689624 
L 196.618828 132.128528 
L 187.733712 127.598973 
L 177.905216 128.037294 
L 179.280481 124.095742 
L 176.977091 117.802892 
L 171.645258 114.403581 
L 166.534135 113.342696 
z
" clip-path="url(#p63e8d779db)" style="fill: #e8edf4; stroke: #b8c5d4; stroke-width: 0.45"/>
    <path d="M -49.703735 64.070556 
L -47.655854 60.870027 
L -43.569148 61.026383 
L -40.419148 60.072039 
L -40.169837 59.213989 
L -38.403682 58.775906 
L -37.799233 56.677018 
L -35.682231 56.275879 
L -34.252623 54.615313 
L -31.502093 54.60411 
L -30.981543 55.161128 
L -27.188958 53.909089 
L -22.536892 57.17874 
L -17.086839 55.201647 
L -12.731754 56.14884 
L -6.091394 54.84508 
L 2.675025 58.390736 
L 0.11708 60.792325 
L -1.683873 64.511022 
L -3.652146 65.45464 
L -13.531172 62.651436 
L -16.554371 63.214174 
L -18.717612 65.384566 
L -32.204265 67.651965 
L -32.946956 69.504402 
L -40.689911 70.634645 
L -48.784191 67.267034 
z
" clip-path="url(#p63e8d779db)" style="fill: #e8edf4; stroke: #b8c5d4; stroke-width: 0.45"/>
    <path d="M 129.652537 374.455824 
L 133.625299 360.90146 
L 134.535215 354.769954 
L 137.440413 351.941781 
L 144.234615 350.425255 
L 148.903097 345.160148 
L 154.258288 355.839306 
L 156.799549 364.3066 
L 161.856328 368.799688 
L 174.447748 377.512956 
L 187.457229 391.263697 
L 191.992504 394.0383 
L 189.210513 396.29116 
L 185.26162 395.490333 
L 182.108556 392.505341 
L 178.315489 387.097229 
L 174.225666 384.133916 
L 171.840182 380.948566 
L 163.811543 377.249959 
L 157.486781 377.139632 
L 155.261713 375.210859 
L 149.851941 377.38021 
L 144.25371 373.192606 
L 141.372864 380.077209 
L 130.63302 378.149173 
z
" clip-path="url(#p63e8d779db)" style="fill: #e8edf4; stroke: #b8c5d4; stroke-width: 0.45"/>
    <path d="M 187.59833 370.850429 
L 189.44457 370.401859 
L 188.49833 366.186923 
L 189.616657 364.407897 
L 189.207652 360.384592 
L 193.257652 357.441955 
L 192.311413 353.553316 
L 194.755904 349.018994 
L 198.544676 351.417484 
L 201.045417 350.583745 
L 211.690968 350.371854 
L 213.382282 351.294259 
L 222.299337 352.216902 
L 225.83546 351.755461 
L 228.14171 354.830382 
L 232.446741 353.292802 
L 239.057546 343.607076 
L 247.667133 339.456017 
L 274.264803 335.919894 
L 284.490862 357.588062 
L 277.818087 360.06616 
L 276.033341 364.161684 
L 275.815968 367.307394 
L 266.631487 371.201753 
L 251.891127 375.504878 
L 243.631911 382.013432 
L 239.57047 382.521827 
L 236.802779 381.97625 
L 231.41136 385.804587 
L 225.531805 387.580514 
L 215.458288 388.583718 
L 213.441868 391.019391 
L 211.024072 391.692484 
L 209.595894 394.038777 
L 205.03011 393.835228 
L 202.083182 395.087029 
L 195.69833 394.617961 
L 193.299125 389.229402 
L 193.562737 384.186923 
L 192.054474 381.465233 
L 190.249231 374.642537 
z
" clip-path="url(#p63e8d779db)" style="fill: #e8edf4; stroke: #b8c5d4; stroke-width: 0.45"/>
    <path d="M 114.054792 252.358374 
L 117.040809 240.384751 
L 127.306911 241.852018 
L 131.294464 239.013062 
L 133.502038 235.691928 
L 140.540915 234.414386 
L 142.058712 231.325164 
L 145.109559 229.758507 
L 135.915544 220.534698 
L 154.389856 215.905752 
L 156.147907 214.514757 
L 167.259188 217.014783 
L 181.003733 223.471854 
L 207.012684 242.023628 
L 232.383341 243.650588 
L 234.680534 248.045715 
L 241.20458 247.806414 
L 244.816021 255.761499 
L 249.354157 257.868491 
L 250.934877 261.108348 
L 257.221529 264.985784 
L 257.779739 268.792193 
L 256.860671 271.864492 
L 258.028097 274.963247 
L 260.680428 277.548364 
L 263.288426 282.834672 
L 266.077091 284.664942 
L 268.634082 284.009486 
L 274.271477 299.010837 
L 302.001296 303.661949 
L 303.860407 301.712029 
L 308.088214 308.246086 
L 301.938373 326.695371 
L 274.264803 335.919894 
L 247.667133 339.456017 
L 239.057546 343.607076 
L 232.446741 353.292802 
L 228.14171 354.830382 
L 225.83546 351.755461 
L 222.299337 352.216902 
L 213.382282 351.294259 
L 211.690968 350.371854 
L 201.045417 350.583745 
L 198.544676 351.417484 
L 194.755904 349.018994 
L 192.311413 353.553316 
L 193.257652 357.441955 
L 189.207652 360.384592 
L 188.010671 356.448046 
L 185.22868 353.669868 
L 184.517451 349.990021 
L 179.752885 346.684619 
L 174.836254 338.94929 
L 172.234453 331.432288 
L 165.853892 325.08438 
L 161.740015 323.569444 
L 155.630693 314.777998 
L 154.563373 308.367166 
L 154.956646 302.898999 
L 149.665809 292.670795 
L 145.340279 289.071033 
L 140.356911 287.1633 
L 137.323701 281.877707 
L 137.828044 279.792405 
L 135.264856 275.010201 
L 132.571053 272.950641 
L 128.969146 266.088379 
L 118.647271 252.314041 
z
" clip-path="url(#p63e8d779db)" style="fill: #e8edf4; stroke: #b8c5d4; stroke-width: 0.45"/>
    <path d="M 96.522907 187.034486 
L 98.507864 184.758983 
L 105.152038 184.883401 
L 113.539485 182.130964 
L 107.306699 186.059169 
L 107.978362 187.786473 
L 103.38636 188.322993 
L 102.537843 186.825217 
L 98.255216 187.515948 
z
" clip-path="url(#p63e8d779db)" style="fill: #e8edf4; stroke: #b8c5d4; stroke-width: 0.45"/>
    <path d="M 92.140174 187.373893 
L 98.255216 187.515948 
L 102.537843 186.825217 
L 103.38636 188.322993 
L 106.989697 187.462797 
L 108.266763 188.52821 
L 98.811042 192.275509 
L 94.295311 191.078289 
z
" clip-path="url(#p63e8d779db)" style="fill: #e8edf4; stroke: #b8c5d4; stroke-width: 0.45"/>
    <path d="M 22.433515 234.041584 
L 24.809313 228.346218 
L 23.381805 224.400944 
L 26.720652 219.974423 
L 38.994088 219.82194 
L 61.301039 226.423348 
L 68.402973 223.500899 
L 72.199915 220.857679 
L 80.335098 220.097018 
L 86.894072 221.261717 
L 89.407317 225.837124 
L 91.54798 222.823075 
L 98.941044 225.002573 
L 106.131442 225.524778 
L 110.670319 223.201099 
L 116.732364 239.049255 
L 114.14154 242.756718 
L 112.156496 249.725265 
L 109.647033 254.528427 
L 107.496316 256.139044 
L 100.258687 249.04578 
L 93.676651 235.822948 
L 92.728638 236.659159 
L 96.550947 246.392967 
L 102.214304 255.666836 
L 109.186172 270.035273 
L 115.555949 280.260937 
L 123.833561 290.472949 
L 122.000723 292.081167 
L 122.298309 298.076518 
L 134.661592 308.246096 
L 25.200252 308.246096 
L 25.200252 241.472334 
z
" clip-path="url(#p63e8d779db)" style="fill: #e8edf4; stroke: #b8c5d4; stroke-width: 0.45"/>
    <path d="M -119.447062 270.477548 
L -115.786045 266.622754 
L -116.590706 260.822807 
L -115.418513 255.774132 
L -116.084932 251.568491 
L -114.460356 244.042908 
L -114.961839 239.756706 
L -117.945949 231.612135 
L -113.445473 229.474158 
L -112.647009 225.5767 
L -113.628047 221.755514 
L -107.293725 218.2008 
L -104.453576 215.245291 
L -99.956913 212.597013 
L -99.435409 205.511658 
L -88.600897 208.686914 
L -84.727022 207.893229 
L -77.020599 209.432447 
L -64.780003 213.55474 
L -60.460026 221.753758 
L -39.177468 227.405584 
L -29.350307 231.991876 
L -24.852111 229.598735 
L -20.430663 225.355968 
L -22.580182 218.28964 
L -19.686975 213.802698 
L -13.040183 209.480046 
L -6.689408 208.221809 
L 5.78946 210.109349 
L 8.935421 214.23358 
L 12.370019 214.2726 
L 15.306858 215.846226 
L 24.4728 216.928365 
L 26.720652 219.974423 
L 23.381805 224.400944 
L 24.809313 228.346218 
L 22.433515 234.041584 
L 25.200252 241.472334 
L 25.200252 326.667273 
L 14.591951 326.695316 
L 14.478119 330.565316 
L -59.104839 295.24198 
L -74.943301 303.714147 
L -80.131648 298.647834 
L -94.724233 294.67053 
L -98.772326 288.893702 
L -106.053365 284.607739 
L -110.366023 286.29786 
L -113.646161 281.153846 
L -113.992718 277.201091 
z
" clip-path="url(#p63e8d779db)" style="fill: #e8edf4; stroke: #b8c5d4; stroke-width: 0.45"/>
    <path d="M 98.574458 439.374199 
L 101.716544 434.119769 
L 106.612045 433.893028 
L 107.990939 431.075832 
L 107.867698 422.782724 
L 110.596615 413.129078 
L 114.966312 410.545449 
L 115.893201 406.774521 
L 119.849267 399.727842 
L 125.412998 395.157785 
L 129.163632 386.071084 
L 130.63302 378.149173 
L 141.372864 380.077209 
L 144.25371 373.192606 
L 149.851941 377.38021 
L 155.261713 375.210859 
L 157.486781 377.139632 
L 163.811543 377.249959 
L 171.840182 380.948566 
L 174.225666 384.133916 
L 178.315489 387.097229 
L 182.108556 392.505341 
L 185.26162 395.490333 
L 178.898484 403.894229 
L 179.763845 409.247177 
L 184.916435 409.401321 
L 187.137629 408.747204 
L 189.184771 410.391319 
L 187.172959 413.659585 
L 193.982842 423.180305 
L 197.504429 426.472568 
L 227.665121 437.419412 
L 235.423756 437.362957 
L 209.356669 465.049516 
L 197.339493 465.456045 
L 189.118521 471.959026 
L 183.204993 472.129312 
L 180.681814 475.037076 
L 174.378794 475.035433 
L 170.658325 471.918161 
L 162.231275 475.776169 
L 159.504889 479.620341 
L 153.353234 478.894548 
L 151.311182 477.830674 
L 146.235571 477.991782 
L 134.55886 470.157698 
L 128.138397 470.157698 
L 124.986984 467.121865 
L 124.986984 461.944401 
L 120.195348 460.396808 
L 114.743722 450.358403 
L 110.530843 448.219677 
L 108.914507 444.53094 
L 104.239383 440.034958 
z
" clip-path="url(#p63e8d779db)" style="fill: #e8edf4; stroke: #b8c5d4; stroke-width: 0.45"/>
    <path d="M 178.898484 403.894229 
L 185.26162 395.490333 
L 189.210513 396.29116 
L 191.992504 394.0383 
L 194.17529 396.893226 
L 193.884983 400.723469 
L 188.622271 402.930805 
L 192.583606 405.454666 
L 189.184771 410.391319 
L 187.137629 408.747204 
L 184.916435 409.401321 
L 179.763845 409.247177 
z
" clip-path="url(#p63e8d779db)" style="fill: #e8edf4; stroke: #b8c5d4; stroke-width: 0.45"/>
    <path d="M 187.172959 413.659585 
L 192.583606 405.454666 
L 195.584877 407.155037 
L 197.392981 410.969788 
L 201.554527 414.831494 
L 206.134135 414.862241 
L 214.830004 412.502362 
L 224.870629 411.409063 
L 232.99065 408.543173 
L 237.565491 407.935864 
L 240.860407 406.25313 
L 246.113093 405.929018 
L 246.020152 423.998814 
L 235.423756 437.362957 
L 227.665121 437.419412 
L 197.504429 426.472568 
L 193.982842 423.180305 
z
" clip-path="url(#p63e8d779db)" style="fill: #e8edf4; stroke: #b8c5d4; stroke-width: 0.45"/>
    <path d="M -16.650187 128.227018 
L -15.478002 125.0877 
L -14.305891 125.164254 
L -13.892167 123.275515 
L -3.238481 120.952943 
L 1.036625 120.799635 
L 5.656752 123.760387 
L 6.311731 129.860652 
L 4.553454 130.166852 
L 3.03636 131.77482 
L -1.96274 131.596059 
L -5.479318 133.612479 
L -11.513322 134.429296 
L -15.340229 132.183109 
z
" clip-path="url(#p63e8d779db)" style="fill: #e8edf4; stroke: #b8c5d4; stroke-width: 0.45"/>
    <path d="M -31.717205 87.696082 
L -24.649127 85.271324 
L -18.891606 85.679614 
L -13.89203 89.303925 
L -12.857602 92.239174 
L -7.237846 94.408851 
L -6.513746 98.211446 
L -1.135197 100.891425 
L 1.760724 98.824237 
L 4.036466 99.972834 
L 1.898966 101.529719 
L 3.588373 103.137611 
L 1.312631 105.230302 
L 2.140174 108.599582 
L 6.622059 112.581414 
L 3.105481 115.465419 
L 1.553839 118.400668 
L 2.553945 119.498019 
L 1.036625 120.799635 
L -6.378944 121.491804 
L -6.686271 120.799722 
L -4.548653 117.456263 
L -5.858824 117.507275 
L -13.409536 112.019739 
L -15.064431 112.530229 
L -16.340102 115.592984 
L -18.546721 116.256602 
L -17.788274 115.465407 
L -24.335902 112.557257 
L -28.131644 109.697074 
L -25.959433 109.288793 
L -24.614854 104.949814 
L -29.062499 101.402029 
L -26.752472 97.343846 
L -30.096855 97.369398 
L -26.54542 93.898311 
L -29.47614 91.269338 
z
" clip-path="url(#p63e8d779db)" style="fill: #e8edf4; stroke: #b8c5d4; stroke-width: 0.45"/>
    <path d="M 14.933073 431.673867 
L 20.933088 428.926705 
L 23.308522 420.691865 
L 25.842319 416.416083 
L 32.493536 415.149185 
L 38.828028 423.0673 
L 41.361825 423.859112 
L 44.687434 422.275489 
L 51.338651 422.592213 
L 52.605549 424.492561 
L 61.790563 424.492561 
L 62.107287 422.592213 
L 66.858157 420.850228 
L 67.80833 418.158069 
L 71.292301 416.257721 
L 79.052054 421.642039 
L 83.802923 420.691865 
L 88.39543 414.040649 
L 93.463024 408.973055 
L 92.671212 403.430374 
L 90.45414 400.738215 
L 95.996821 400.263128 
L 96.63027 398.204418 
L 100.906052 398.837867 
L 99.797516 405.647446 
L 100.906052 412.298663 
L 105.656922 415.940996 
L 106.765458 419.108242 
L 106.607095 423.700749 
L 107.884052 423.883172 
L 107.990939 431.075832 
L 106.612045 433.893028 
L 101.716544 434.119769 
L 98.574458 439.374199 
L 104.239383 440.034958 
L 108.914507 444.53094 
L 110.530843 448.219677 
L 114.743722 450.358403 
L 120.195348 460.396808 
L 108.267862 471.983979 
L 102.594727 476.226238 
L 96.104476 476.204837 
L 88.678942 478.363857 
L 82.813105 476.300957 
L 79.015263 478.81677 
L 70.894358 472.686764 
L 68.703468 468.74688 
L 63.566127 470.698231 
L 59.300661 470.09116 
L 56.831381 471.64018 
L 52.689379 470.521616 
L 45.618087 459.982129 
L 38.722695 456.331361 
L 36.393563 450.797648 
L 32.549019 446.806044 
L 26.345311 442.002151 
L 26.26046 439.003978 
z
" clip-path="url(#p63e8d779db)" style="fill: #e8edf4; stroke: #b8c5d4; stroke-width: 0.45"/>
   </g>
   <g id="PathCollection_1">
    <defs>
     <path id="m9e23c8bfc1" d="M 0 2.12132 
C 0.562581 2.12132 1.102195 1.897805 1.5 1.5 
C 1.897805 1.102195 2.12132 0.562581 2.12132 0 
C 2.12132 -0.562581 1.897805 -1.102195 1.5 -1.5 
C 1.102195 -1.897805 0.562581 -2.12132 0 -2.12132 
C -0.562581 -2.12132 -1.102195 -1.897805 -1.5 -1.5 
C -1.897805 -1.102195 -2.12132 -0.562581 -2.12132 0 
C -2.12132 0.562581 -1.897805 1.102195 -1.5 1.5 
C -1.102195 1.897805 -0.562581 2.12132 0 2.12132 
z
" style="stroke: #ffffff; stroke-width: 0.5"/>
    </defs>
    <g clip-path="url(#p63e8d779db)">
     <use xlink:href="#m9e23c8bfc1" x="260.889028" y="271.347658" style="fill: #8aa0b7; stroke: #ffffff; stroke-width: 0.5"/>
     <use xlink:href="#m9e23c8bfc1" x="98.997129" y="188.326171" style="fill: #8aa0b7; stroke: #ffffff; stroke-width: 0.5"/>
     <use xlink:href="#m9e23c8bfc1" x="191.243226" y="405.104498" style="fill: #8aa0b7; stroke: #ffffff; stroke-width: 0.5"/>
     <use xlink:href="#m9e23c8bfc1" x="115.140196" y="220.612305" style="fill: #8aa0b7; stroke: #ffffff; stroke-width: 0.5"/>
     <use xlink:href="#m9e23c8bfc1" x="216.610902" y="239.061524" style="fill: #8aa0b7; stroke: #ffffff; stroke-width: 0.5"/>
     <use xlink:href="#m9e23c8bfc1" x="125.133523" y="199.088216" style="fill: #8aa0b7; stroke: #ffffff; stroke-width: 0.5"/>
     <use xlink:href="#m9e23c8bfc1" x="119.597528" y="216.440936" style="fill: #8aa0b7; stroke: #ffffff; stroke-width: 0.5"/>
     <use xlink:href="#m9e23c8bfc1" x="267.346255" y="275.959963" style="fill: #8aa0b7; stroke: #ffffff; stroke-width: 0.5"/>
    </g>
   </g>
   <g id="PatchCollection_2">
    <defs>
     <path id="mb3060f0bc4" d="M 201.475396 -284.521658 
L 207.79208 -287.149438 
L 209.25601 -283.669566 
L 213.91475 -279.41125 
L 220.241921 -278.184952 
L 223.582123 -278.456192 
L 234.461254 -285.261727 
L 237.920629 -285.943162 
L 240.645894 -283.236011 
L 237.465385 -278.672134 
L 243.21814 -273.841785 
L 245.513902 -274.301795 
L 248.432229 -267.499836 
L 257.178627 -265.578278 
L 263.585883 -260.949809 
L 276.700237 -259.359555 
L 291.106911 -261.800471 
L 291.990703 -263.957992 
L 300.096424 -265.742977 
L 306.657652 -271.016652 
L 312.827038 -270.749227 
L 316.876561 -272.467473 
L 323.435883 -271.617288 
L 333.635724 -266.941149 
L 341.002568 -265.932701 
L 351.545152 -257.763342 
L 358.421477 -257.433231 
L 359.230904 -249.670492 
L 352.936148 -231.46456 
L 356.951349 -230.102881 
L 353.006699 -225.051822 
L 356.028468 -217.687362 
L 356.750661 -211.831165 
L 363.737102 -210.276186 
L 364.492663 -204.338713 
L 356.126191 -195.975577 
L 360.692928 -191.123776 
L 364.406381 -185.552643 
L 373.22476 -181.496684 
L 373.479316 -173.372373 
L 377.893034 -171.879126 
L 378.656222 -167.631059 
L 365.350237 -162.866017 
L 361.874178 -152.149438 
L 334.462313 -157.054391 
L 324.05225 -158.25304 
L 320.118087 -169.564295 
L 315.702938 -171.198882 
L 308.614485 -169.55071 
L 299.310354 -165.086223 
L 288.037949 -168.146128 
L 278.725714 -175.235058 
L 269.843934 -177.8626 
L 263.683606 -186.615196 
L 256.876402 -198.913925 
L 251.912102 -197.419009 
L 246.049707 -200.475816 
L 242.605587 -196.875339 
L 237.500661 -201.724518 
L 237.409612 -206.638289 
L 234.463161 -206.635667 
L 235.975237 -213.317261 
L 231.228786 -220.327775 
L 219.925873 -225.384078 
L 213.536254 -234.152166 
L 215.674231 -241.350498 
L 220.317239 -244.534105 
L 219.621265 -249.922426 
L 213.572483 -252.691308 
L 207.595414 -263.695383 
L 202.550343 -271.085535 
L 204.35511 -273.942367 
z
" style="stroke: #b45309; stroke-width: 1.15"/>
    </defs>
    <g clip-path="url(#p63e8d779db)">
     <use xlink:href="#mb3060f0bc4" x="0" y="432" style="fill: #f59e0b; stroke: #b45309; stroke-width: 1.15"/>
    </g>
   </g>
   <g id="PathCollection_2">
    <path d="M 283.489322 220.135215 
C 284.585994 220.135215 285.637896 219.699502 286.41336 218.924038 
C 287.188824 218.148574 287.624537 217.096672 287.624537 216 
C 287.624537 214.903328 287.188824 213.851426 286.41336 213.075962 
C 285.637896 212.300498 284.585994 211.864785 283.489322 211.864785 
C 282.39265 211.864785 281.340748 212.300498 280.565284 213.075962 
C 279.78982 213.851426 279.354107 214.903328 279.354107 216 
C 279.354107 217.096672 279.78982 218.148574 280.565284 218.924038 
C 281.340748 219.699502 282.39265 220.135215 283.489322 220.135215 
L 283.489322 220.135215 
z
" clip-path="url(#p63e8d779db)" style="fill: none; stroke: #7c2d12; stroke-width: 1.1"/>
   </g>
  </g>
 </g>
 <defs>
  <clipPath id="p63e8d779db">
   <rect x="0" y="0" width="566.978644" height="432"/>
  </clipPath>
 </defs>
</svg>
