<?xml version="1.0" encoding="utf-8" standalone="no"?>
<!DOCTYPE svg PUBLIC "-//W3C//DTD SVG 1.1//EN"
  "http://www.w3.org/Graphics/SVG/1.1/DTD/svg11.dtd">
<svg xmlns:xlink="http://www.w3.org/1999/xlink" width="481.27321pt" height="432pt" viewBox="0 0 481.27321 432" xmlns="http://www.w3.org/2000/svg" version="1.1">
 <metadata>
  <rdf:RDF xmlns:dc="http://purl.org/dc/elements/1.1/" xmlns:cc="http://creativecommons.org/ns#" xmlns:rdf="http://www.w3.org/1999/02/22-rdf-syntax-ns#">
   <cc:Work>
    <dc:type rdf:resource="http://purl.org/dc/dcmitype/StillImage"/>
    <dc:date>2026-06-09T04:57:08.455822</dc:date>
    <dc:format>image/svg+xml</dc:format>
    <dc:creator>
     <cc:Agent>
      <dc:title>Matplotlib v3.10.8, https://matplotlib.org/</dc:title>
     </cc:Agent>
    </dc:creator>
   </cc:Work>
  </rdf:RDF>
 </metadata>
 <defs>
  <style type="text/css">*{stroke-linejoin: round; stroke-linecap: butt}</style>
 </defs>
 <g id="figure_1">
  <g id="patch_1">
   <path d="M 0 432 
L 481.27321 432 
L 481.27321 0 
L 0 0 
z
" style="fill: #eaf3ff"/>
  </g>
  <g id="axes_1">
   <g id="PatchCollection_1">
    <path d="M 141.402625 279.023683 
L 146.141044 278.478308 
L 157.58535 265.952836 
L 157.479584 262.228698 
L 155.011913 259.631083 
L 154.347412 255.118689 
L 157.654893 253.668226 
L 158.317514 246.926549 
L 153.767992 240.460815 
L 157.787255 239.084499 
L 193.697699 238.344828 
L 237.183928 262.946941 
L 237.965538 269.594585 
L 254.412707 281.04946 
L 249.122368 295.16887 
L 249.801078 301.662735 
L 257.137401 305.837666 
L 257.481167 308.816976 
L 254.326421 315.736997 
L 254.983474 319.219467 
L 254.232802 324.693377 
L 262.976849 343.1753 
L 267.182145 345.681358 
L 258.06557 352.324991 
L 245.535927 356.774732 
L 238.661551 356.586665 
L 234.578177 360.023987 
L 226.6012 360.319368 
L 223.609636 361.767778 
L 209.839679 358.53876 
L 201.217912 359.465482 
L 198.009549 343.881167 
L 191.818542 335.368934 
L 180.584886 333.231268 
L 174.081847 329.790851 
L 162.232058 325.943184 
L 157.445204 323.026063 
L 151.257258 308.58758 
L 144.611509 302.170996 
L 142.31928 295.524656 
L 143.465099 289.565806 
z
" clip-path="url(#p1f0d120e65)" style="fill: #e8edf4; stroke: #b8c5d4; stroke-width: 0.45"/>
    <path d="M -55.205052 293.805039 
L -52.290469 292.594676 
L -51.931623 287.599262 
L -50.056862 284.653294 
L -45.886912 282.245002 
L -42.876399 283.412138 
L -38.957521 279.025459 
L -32.715623 279.138561 
L -31.981351 282.382382 
L -27.700667 284.412287 
L -11.386815 267.967569 
L -11.770531 258.53988 
L -6.794066 247.40797 
L -1.543434 241.505376 
L 6.001205 235.982352 
L 7.318156 232.326983 
L 7.603575 228.124464 
L 9.471229 224.148147 
L 8.871377 217.653991 
L 10.299653 207.499432 
L 12.539181 200.350353 
L 15.971308 194.223036 
L 17.680857 179.311109 
L 22.142148 173.493192 
L 28.278051 169.803183 
L 37.707517 173.697486 
L 45.005819 177.924579 
L 61.936696 181.2892 
L 65.362901 174.369285 
L 66.936848 173.486086 
L 72.159057 174.636938 
L 84.91643 168.917912 
L 89.436936 171.341896 
L 93.147375 170.99815 
L 94.865807 168.211768 
L 99.124581 167.229976 
L 115.0938 168.699407 
L 118.877074 167.483714 
L 125.818307 176.94338 
L 130.963536 178.33287 
L 134.030896 176.408664 
L 139.329493 177.162773 
L 145.71114 174.738789 
L 148.432681 179.632945 
L 158.520623 187.247753 
L 157.82721 200.64643 
L 162.419959 202.19817 
L 158.736167 206.266863 
L 154.334091 209.31024 
L 149.952742 215.285966 
L 147.542081 220.613578 
L 146.897225 229.811512 
L 144.242597 234.189901 
L 144.146668 242.828841 
L 140.851329 246.022921 
L 140.426755 252.841578 
L 138.852808 253.725073 
L 137.79226 259.993618 
L 140.673683 265.203392 
L 141.402625 279.023683 
L 143.465099 289.565806 
L 142.31928 295.524656 
L 144.611509 302.170996 
L 151.257258 308.58758 
L 157.44527 323.02608 
L 152.931278 321.860128 
L 137.540002 323.794104 
L 134.468498 325.163757 
L 131.202766 332.478639 
L 133.767387 337.532085 
L 130.313351 362.600939 
L 141.42039 369.099241 
L 144.565321 367.015449 
L 145.523427 379.371934 
L 136.753621 379.277189 
L 127.825118 368.087841 
L 119.044061 366.486656 
L 116.472927 360.482211 
L 109.467741 364.099681 
L 100.291717 362.501457 
L 96.462255 357.298789 
L 89.186455 356.241793 
L 83.816207 356.518329 
L 83.158916 352.956521 
L 73.987629 351.992494 
L 59.07363 354.478358 
L 59.68651 340.842227 
L 55.864154 336.589967 
L 55.023294 329.542738 
L 56.711526 322.635258 
L 54.389097 318.214234 
L 54.178882 311.004162 
L 40.275098 311.104236 
L 41.272878 306.975736 
L 35.426539 307.018964 
L 34.808922 309.004457 
L 27.701885 309.452126 
L 23.109728 318.995285 
L 16.777822 317.376927 
L 12.996916 318.988771 
L 5.419709 319.915493 
L -1.602057 310.218373 
L -7.717235 294.808149 
L -41.531616 294.656557 
L -53.599722 297.35915 
z
" clip-path="url(#p1f0d120e65)" style="fill: #e8edf4; stroke: #b8c5d4; stroke-width: 0.45"/>
    <path d="M 274.796117 195.551389 
L 287.945876 178.940473 
L 295.291709 178.728942 
L 305.503868 170.650886 
L 320.431703 170.145893 
L 352.812452 135.753422 
L 365.975383 119.152373 
L 366.090834 96.705924 
L 381.108567 93.624025 
L 386.53137 89.701305 
L 390.87635 89.669908 
L 390.121324 105.526027 
L 387.70201 109.664747 
L 384.47301 122.051573 
L 371.871788 149.485063 
L 362.038345 166.278633 
L 338.779213 194.740444 
L 327.311503 204.016755 
L 310.170844 215.394627 
L 299.489099 224.110599 
L 286.948494 237.991436 
L 284.305846 244.033821 
L 281.718201 246.747056 
L 274.93305 237.293933 
z
" clip-path="url(#p1f0d120e65)" style="fill: #e8edf4; stroke: #b8c5d4; stroke-width: 0.45"/>
    <path d="M 193.58148 226.200545 
L 202.502578 213.972465 
L 206.672352 205.620083 
L 200.291357 186.715671 
L 194.858355 178.759939 
L 209.674777 164.36626 
L 215.626986 166.288693 
L 215.626986 172.720181 
L 219.541697 176.491318 
L 227.517249 176.491318 
L 242.022156 186.222882 
L 248.327121 186.022752 
L 250.863775 187.344306 
L 258.505411 188.245891 
L 261.892151 183.470629 
L 272.360301 178.678179 
L 276.981899 182.550481 
L 284.811562 182.552521 
L 274.796117 195.551389 
L 274.93305 237.293933 
L 281.718201 246.747056 
L 273.692855 251.322589 
L 270.863427 256.103694 
L 266.568522 256.943631 
L 264.943079 265.017447 
L 261.263287 269.640879 
L 259.026856 277.265277 
L 254.412707 281.04946 
L 237.965538 269.594585 
L 237.183928 262.946941 
L 193.697699 238.344828 
z
" clip-path="url(#p1f0d120e65)" style="fill: #e8edf4; stroke: #b8c5d4; stroke-width: 0.45"/>
    <path d="M 56.570343 83.212367 
L 57.725169 79.003747 
L 60.692906 74.226996 
L 59.394729 69.481184 
L 63.161608 65.966744 
L 60.772316 63.28949 
L 63.802504 56.213971 
L 69.03509 47.775304 
L 78.916087 48.576051 
L 78.493369 -1.718833 
L 91.671088 -1.753668 
L 91.671088 -24.636605 
L 227.644864 -24.636605 
L 231.34024 -13.393719 
L 228.827192 -11.314962 
L 230.492053 0.481732 
L 234.698495 14.162152 
L 245.335779 21.218334 
L 239.536552 27.758693 
L 231.096738 29.642534 
L 227.487877 33.155714 
L 226.357572 40.77232 
L 221.422574 57.609664 
L 222.640539 62.197572 
L 220.815253 72.038234 
L 216.156185 83.32581 
L 209.244872 89.002771 
L 204.330614 97.756214 
L 203.179225 102.440492 
L 197.751151 105.649897 
L 194.361269 117.641736 
L 194.51436 127.943503 
L 194.381583 119.008721 
L 192.795338 118.782114 
L 192.992056 113.077265 
L 191.615024 109.142885 
L 185.713455 104.618349 
L 184.336422 96.356153 
L 185.713455 87.897238 
L 180.402043 87.110362 
L 179.615167 89.667709 
L 172.730004 90.257865 
L 175.484069 93.602088 
L 176.467664 100.487251 
L 170.172657 106.782258 
L 164.467807 115.044454 
L 158.566239 116.224768 
L 148.92701 109.536323 
L 144.599193 111.896951 
L 143.418879 115.241173 
L 137.51731 117.405082 
L 137.123872 119.765709 
L 125.714172 119.765709 
L 124.140421 117.405082 
L 115.878225 117.011644 
L 111.747126 118.978833 
L 108.599623 117.995239 
L 100.730865 108.159291 
L 92.468668 109.733042 
L 89.321165 115.044454 
L 86.370381 125.27384 
L 78.917113 128.686386 
L 86.713618 133.16156 
L 77.98704 128.152526 
L 74.013092 124.852746 
L 73.277044 121.29153 
L 75.138777 116.522911 
L 75.105025 111.84726 
L 68.49599 104.683081 
L 67.334935 97.003938 
L 63.12345 93.626432 
L 62.996601 86.970194 
L 60.594703 82.549241 
z
" clip-path="url(#p1f0d120e65)" style="fill: #e8edf4; stroke: #b8c5d4; stroke-width: 0.45"/>
    <path d="M -39.643236 62.82754 
L -34.695559 47.733479 
L -20.079049 36.928485 
L -19.475051 22.024552 
L -15.059949 -1.228164 
L -12.567571 -6.160514 
L -17.335598 -10.08857 
L -17.519949 -13.732902 
L -21.807547 -16.713 
L -24.621708 -34.52505 
L -13.05339 -40.790425 
L 78.351966 3.088514 
L 78.916087 48.576051 
L 69.03509 47.775304 
L 63.802504 56.213971 
L 60.772316 63.28949 
L 63.161608 65.966744 
L 59.394729 69.481184 
L 60.692906 74.226996 
L 57.725169 79.003747 
L 56.570343 83.212367 
L 60.594703 82.549241 
L 62.996601 86.970194 
L 63.12345 93.626432 
L 67.334935 97.003938 
L 67.196803 99.779451 
L 59.942913 101.733264 
L 54.129733 106.372201 
L 45.845494 118.874652 
L 35.060587 124.183316 
L 23.994999 123.47125 
L 20.763613 124.524693 
L 21.89818 128.558448 
L 11.057019 137.037802 
L -3.369045 141.421817 
L -6.23152 138.826997 
L -8.129374 138.603162 
L -10.241589 141.550611 
L -19.715466 142.411899 
L -17.920646 139.307826 
L -23.147 126.665331 
L -28.137677 124.720104 
L -34.901264 118.032313 
L -32.411847 112.625055 
L -27.189638 113.776203 
L -23.956475 112.960215 
L -17.556471 113.072428 
L -23.793633 102.656433 
L -23.374388 95.044881 
L -24.139747 87.442186 
L -28.695487 80.104531 
L -27.549668 74.707044 
L -34.898303 74.443239 
L -34.872841 67.072398 
z
" clip-path="url(#p1f0d120e65)" style="fill: #e8edf4; stroke: #b8c5d4; stroke-width: 0.45"/>
    <path d="M 94.69882 430.699873 
L 107.506526 431.954648 
L 111.228808 433.27456 
L 115.097945 433.008682 
L 121.444063 425.592541 
L 131.409428 416.168405 
L 135.511281 415.267146 
L 136.904621 411.294383 
L 143.428977 406.729465 
L 152.108183 405.160848 
L 152.849561 409.43561 
L 162.407524 409.207631 
L 167.717964 411.625989 
L 170.18784 414.461224 
L 175.644542 415.293793 
L 181.596285 418.975809 
L 181.621748 433.478853 
L 179.38755 441.420235 
L 178.896062 449.983379 
L 180.737662 453.377608 
L 179.443212 460.12343 
L 177.712345 461.166214 
L 174.690581 469.43032 
L 162.617739 482.436398 
L 156.526839 481.291171 
L 152.665401 482.666746 
L 147.121059 480.725664 
L 142.459028 480.600719 
L 135.15362 475.422922 
L 126.292623 473.664223 
L 122.92208 466.397305 
L 122.893657 462.35526 
L 117.986474 461.122986 
L 105.018293 448.536154 
L 101.415626 441.905209 
L 99.109777 439.861092 
z
" clip-path="url(#p1f0d120e65)" style="fill: #e8edf4; stroke: #b8c5d4; stroke-width: 0.45"/>
    <path d="M 33.178721 477.825884 
L 44.473473 477.426772 
L 44.811593 436.608981 
L 53.341576 436.230002 
L 71.009093 432.218156 
L 75.388074 436.941772 
L 82.702957 432.450873 
L 86.178903 432.42541 
L 92.638715 429.843617 
L 94.69882 430.699873 
L 99.109777 439.861092 
L 101.415626 441.905209 
L 105.018293 448.536154 
L 117.986474 461.122986 
L 122.893657 462.35526 
L 122.92208 466.397305 
L 126.292623 473.664223 
L 135.15362 475.422922 
L 142.459028 480.600719 
L 126.24525 489.039511 
L 115.957161 497.594364 
L 112.141318 505.230195 
L 108.696164 509.534565 
L 102.461371 510.451812 
L 99.287424 519.509405 
L 91.959514 522.177652 
L 82.633083 521.61096 
L 77.159208 518.401484 
L 72.329597 517.009921 
L 66.73966 519.665733 
L 63.935217 525.154412 
L 52.778437 533.715187 
L 44.570586 534.8841 
L 42.013663 530.861003 
L 43.069475 523.878911 
L 36.275688 512.99097 
L 33.182274 511.270169 
z
" clip-path="url(#p1f0d120e65)" style="fill: #e8edf4; stroke: #b8c5d4; stroke-width: 0.45"/>
    <path d="M -60.340215 425.719262 
L -47.965965 421.587802 
L -40.537389 421.930067 
L -33.706297 427.111417 
L -31.973653 426.306087 
L 14.476118 425.811639 
L 22.415723 431.302094 
L 50.157562 432.924004 
L 80.600217 425.64998 
L 88.031162 426.30964 
L 92.552852 428.892618 
L 92.638715 429.843617 
L 86.178903 432.42541 
L 82.702957 432.450873 
L 75.388074 436.941772 
L 71.009093 432.218156 
L 53.341576 436.230002 
L 44.811593 436.608981 
L 44.473473 477.426772 
L 33.178721 477.825884 
L 33.17043 553.59144 
L 22.942149 559.450807 
L 16.786112 560.287521 
L 4.440286 557.285891 
L 2.508679 552.386406 
L -2.016565 549.249172 
L -7.505836 554.916089 
L -16.021607 546.259385 
L -20.505992 537.89106 
L -29.69978 500.787853 
L -29.956775 487.078888 
L -31.423542 480.828699 
L -35.881872 476.105676 
L -41.796309 466.638312 
L -50.320963 445.697366 
L -59.644433 434.510978 
z
" clip-path="url(#p1f0d120e65)" style="fill: #e8edf4; stroke: #b8c5d4; stroke-width: 0.45"/>
    <path d="M -29.112363 164.987783 
L -28.228277 156.104876 
L -25.478312 154.024638 
L -19.715466 142.411899 
L -10.241589 141.550611 
L -8.129374 138.603162 
L -6.23152 138.826997 
L -3.369045 141.421817 
L 11.057019 137.037802 
L 21.89818 128.558448 
L 20.763613 124.524693 
L 23.994999 123.47125 
L 35.060587 124.183316 
L 45.845494 118.874652 
L 54.129733 106.372201 
L 59.942913 101.733264 
L 67.196803 99.779451 
L 68.49599 104.683081 
L 75.105025 111.84726 
L 75.138777 116.522911 
L 73.277044 121.29153 
L 74.013092 124.852746 
L 92.988086 137.791911 
L 93.093489 141.516266 
L 100.799786 147.483701 
L 105.575511 152.442105 
L 108.468777 159.316129 
L 117.034289 163.851143 
L 118.877074 167.483714 
L 115.0938 168.699407 
L 99.124581 167.229976 
L 94.865807 168.211768 
L 93.147375 170.99815 
L 89.436936 171.341896 
L 84.91643 168.917912 
L 72.159057 174.636938 
L 66.936848 173.486086 
L 65.362901 174.369285 
L 61.936696 181.2892 
L 45.005819 177.924579 
L 37.707517 173.697486 
L 28.278051 169.803183 
L 22.142148 173.493192 
L 17.680857 179.311109 
L 16.650509 187.302528 
L 9.280556 186.663001 
L 1.524518 184.737907 
L -5.304798 190.81045 
L -11.311612 201.474262 
L -13.03182 192.927106 
L -18.272386 189.240057 
L -22.502737 183.326507 
L -23.479791 179.212515 
L -28.895043 173.228499 
L -27.971874 169.813841 
z
" clip-path="url(#p1f0d120e65)" style="fill: #e8edf4; stroke: #b8c5d4; stroke-width: 0.45"/>
    <path d="M -67.678784 273.051806 
L -58.954574 266.727006 
L -63.275524 259.149799 
L -59.345988 256.268375 
L -51.614228 254.86497 
L -50.702311 249.786654 
L -44.579435 255.289544 
L -34.463662 255.771558 
L -30.948042 250.356899 
L -29.501409 242.738241 
L -30.750854 233.791381 
L -36.172027 227.014767 
L -31.210958 213.743403 
L -34.071064 211.465978 
L -42.596902 212.399805 
L -45.799865 206.478854 
L -44.966704 201.480479 
L -30.505703 201.929924 
L -12.13589 207.661682 
L -11.311612 201.474262 
L -5.304798 190.81045 
L 1.524518 184.737907 
L 9.280556 186.663001 
L 16.650509 187.302528 
L 15.971308 194.223036 
L 12.539181 200.350353 
L 10.299653 207.499432 
L 8.871377 217.653991 
L 9.471229 224.148147 
L 7.603575 228.124464 
L 7.318156 232.326983 
L 6.001205 235.982352 
L -1.543434 241.505376 
L -6.794066 247.40797 
L -11.770531 258.53988 
L -11.386815 267.967569 
L -27.700667 284.412287 
L -31.981351 282.382382 
L -32.715623 279.138561 
L -38.957521 279.025459 
L -42.876399 283.412138 
L -45.886912 282.245002 
L -50.181215 278.31369 
L -53.643541 280.241152 
L -58.268859 285.188601 
z
" clip-path="url(#p1f0d120e65)" style="fill: #e8edf4; stroke: #b8c5d4; stroke-width: 0.45"/>
    <path d="M 56.009231 411.721326 
L 56.536841 375.260607 
L 80.397108 375.405092 
L 79.420645 371.449501 
L 81.127826 367.157566 
L 79.11391 361.783174 
L 80.417241 356.225805 
L 79.206286 352.668142 
L 83.158916 352.956521 
L 83.816207 356.518329 
L 89.186455 356.241793 
L 96.462255 357.298789 
L 100.291717 362.501457 
L 109.467741 364.099681 
L 116.472927 360.482211 
L 119.044061 366.486656 
L 127.825118 368.087841 
L 136.753621 379.277189 
L 145.523427 379.371934 
L 144.565321 367.015449 
L 141.42039 369.099241 
L 130.313351 362.600939 
L 133.767387 337.532085 
L 131.202766 332.478639 
L 134.468498 325.163757 
L 137.540002 323.794104 
L 152.931278 321.860128 
L 157.445204 323.026063 
L 162.232058 325.943184 
L 174.081847 329.790851 
L 180.584886 333.231268 
L 185.993623 338.343336 
L 188.907615 348.070063 
L 186.955282 351.175321 
L 184.651802 360.464446 
L 186.853432 369.959049 
L 183.247804 373.9478 
L 179.768897 384.592959 
L 185.79466 387.560837 
L 151.022172 397.005698 
L 152.108183 405.160848 
L 143.428977 406.729465 
L 136.904621 411.294383 
L 135.511281 415.267146 
L 131.409428 416.168405 
L 121.444063 425.592541 
L 115.097945 433.008682 
L 111.228808 433.27456 
L 107.506526 431.954648 
L 94.69882 430.699873 
L 88.031162 426.30964 
L 80.600217 425.64998 
L 71.217531 428.254275 
L 63.739806 421.096313 
z
" clip-path="url(#p1f0d120e65)" style="fill: #e8edf4; stroke: #b8c5d4; stroke-width: 0.45"/>
    <path d="M 179.768897 384.592959 
L 183.247804 373.9478 
L 186.853432 369.959049 
L 184.651802 360.464446 
L 186.955282 351.175321 
L 188.907615 348.070063 
L 185.993623 338.343336 
L 180.584886 333.231268 
L 191.818542 335.368934 
L 198.009549 343.881167 
L 201.217912 359.465482 
L 198.009619 368.174295 
L 201.217912 383.07053 
L 205.196005 382.903543 
L 209.330426 386.597994 
L 214.130429 394.885194 
L 215.105115 409.619178 
L 210.145231 412.032207 
L 206.647375 419.983063 
L 199.170242 412.90445 
L 198.322277 404.826873 
L 200.732937 399.49926 
L 200.067948 394.907695 
L 195.543889 392.007916 
L 192.391259 393.060766 
L 185.79466 387.560837 
z
" clip-path="url(#p1f0d120e65)" style="fill: #e8edf4; stroke: #b8c5d4; stroke-width: 0.45"/>
    <path d="M 151.022172 397.005698 
L 185.79466 387.560837 
L 192.391259 393.060766 
L 195.543889 392.007916 
L 200.067948 394.907695 
L 200.732937 399.49926 
L 198.322277 404.826873 
L 199.170242 412.90445 
L 206.647375 419.983063 
L 210.145231 412.032207 
L 215.105115 409.619178 
L 214.130429 394.885194 
L 209.330426 386.597994 
L 205.196005 382.903543 
L 201.217912 383.07053 
L 198.009619 368.174295 
L 201.217912 359.465482 
L 209.839679 358.53876 
L 223.609636 361.767778 
L 226.6012 360.319368 
L 234.578177 360.023987 
L 238.661551 356.586665 
L 245.535927 356.774732 
L 258.06557 352.324991 
L 267.182129 345.681313 
L 269.036164 350.818844 
L 268.564809 362.234987 
L 269.98065 372.289768 
L 270.425358 390.1977 
L 272.44046 395.810139 
L 264.577242 411.955819 
L 257.281308 419.061671 
L 233.888843 428.979072 
L 220.941981 441.278118 
L 216.532799 443.370199 
L 208.533386 451.512321 
L 203.81214 454.16162 
L 202.843967 462.332165 
L 208.278168 471.010187 
L 210.539013 477.730547 
L 210.681338 481.158621 
L 212.706092 480.585676 
L 212.378245 491.824413 
L 210.520064 497.14788 
L 213.22088 499.109687 
L 211.51666 503.877122 
L 206.726723 507.953513 
L 183.493548 518.028427 
L 178.467934 522.265291 
L 179.450318 527.092533 
L 182.379113 527.863518 
L 181.395545 533.89461 
L 172.704496 533.798681 
L 169.046166 519.480389 
L 171.087914 506.705251 
L 162.617739 482.436398 
L 174.690581 469.43032 
L 177.712345 461.166214 
L 179.443212 460.12343 
L 180.737662 453.377608 
L 178.896062 449.983379 
L 179.38755 441.420235 
L 181.621748 433.478853 
L 181.596285 418.975809 
L 175.644542 415.293793 
L 170.18784 414.461224 
L 167.717964 411.625989 
L 162.407524 409.207631 
L 152.849561 409.43561 
z
" clip-path="url(#p1f0d120e65)" style="fill: #e8edf4; stroke: #b8c5d4; stroke-width: 0.45"/>
    <path d="M -61.418528 418.514521 
L -59.832146 408.438422 
L -55.878332 397.947816 
L -55.282032 393.029974 
L -51.563895 382.700434 
L -48.832287 378.00465 
L -38.573805 365.408343 
L -37.370548 356.91981 
L -37.9704 350.425061 
L -41.397197 346.328537 
L -47.26367 332.501734 
L -46.648422 330.120089 
L -43.126288 325.577081 
L -48.948942 306.835988 
L -54.689286 299.586242 
L -53.599722 297.35915 
L -41.531616 294.656557 
L -7.717235 294.808149 
L -1.602057 310.218373 
L 5.419709 319.915493 
L 12.996916 318.988771 
L 16.777822 317.376927 
L 23.109728 318.995285 
L 27.701885 309.452126 
L 34.808922 309.004457 
L 35.426539 307.018964 
L 41.272878 306.975736 
L 40.275098 311.104236 
L 54.178882 311.004162 
L 54.389097 318.214234 
L 56.711526 322.635258 
L 55.023294 329.542738 
L 55.864154 336.589967 
L 59.68651 340.842227 
L 59.07363 354.478358 
L 73.987629 351.992494 
L 79.206286 352.668142 
L 80.417241 356.225805 
L 79.11391 361.783174 
L 81.127826 367.157566 
L 79.420645 371.449501 
L 80.397108 375.405092 
L 56.536841 375.260607 
L 56.009231 411.721326 
L 63.739806 421.096313 
L 71.217531 428.254275 
L 50.157562 432.924004 
L 22.415723 431.302094 
L 14.476118 425.811639 
L -31.973653 426.306087 
L -33.706297 427.111417 
L -40.537389 421.930067 
L -47.965965 421.587802 
L -60.340215 425.719262 
z
" clip-path="url(#p1f0d120e65)" style="fill: #e8edf4; stroke: #b8c5d4; stroke-width: 0.45"/>
    <path d="M -58.268859 285.188601 
L -53.643541 280.241152 
L -50.181215 278.31369 
L -45.886912 282.245002 
L -50.056862 284.653294 
L -51.931623 287.599262 
L -52.290469 292.594676 
L -55.205052 293.805039 
z
" clip-path="url(#p1f0d120e65)" style="fill: #e8edf4; stroke: #b8c5d4; stroke-width: 0.45"/>
    <path d="M 137.79226 259.993618 
L 144.750666 260.894285 
L 148.25918 254.369929 
L 154.347454 255.118972 
L 155.011913 259.631083 
L 157.479584 262.228698 
L 157.58535 265.952836 
L 146.141044 278.478308 
L 141.402625 279.023683 
L 140.673683 265.203392 
z
" clip-path="url(#p1f0d120e65)" style="fill: #e8edf4; stroke: #b8c5d4; stroke-width: 0.45"/>
    <path d="M 300.843735 480.212266 
L 302.896142 471.951121 
L 308.171645 469.966811 
L 308.202437 466.152745 
L 313.679272 457.465841 
L 314.711397 450.167539 
L 309.882379 437.516161 
L 308.966908 426.957457 
L 312.970464 420.546794 
L 314.506512 413.278692 
L 320.217841 412.856486 
L 330.852341 408.434277 
L 335.885652 408.280317 
L 342.416523 401.750631 
L 351.846581 394.693336 
L 355.285221 388.928713 
L 353.724894 384.031597 
L 358.592403 385.408948 
L 364.908913 377.446248 
L 365.120312 370.55594 
L 368.914837 365.430252 
L 375.954368 375.224485 
L 378.790788 382.79281 
L 380.634756 396.578163 
L 383.603818 401.937752 
L 382.464513 407.432944 
L 380.438161 410.804079 
L 376.54593 404.089049 
L 374.391673 407.480316 
L 376.577315 415.969441 
L 375.559993 420.828068 
L 372.397889 423.474997 
L 371.676053 433.180999 
L 354.431926 484.040544 
L 350.042878 499.973641 
L 344.863897 513.262176 
L 335.544572 515.97602 
L 325.541308 520.822803 
L 309.845073 513.797484 
L 306.682969 507.750996 
L 305.926788 497.591996 
L 301.891848 488.456831 
z
" clip-path="url(#p1f0d120e65)" style="fill: #e8edf4; stroke: #b8c5d4; stroke-width: 0.45"/>
    <path d="M 401.06112 9.740015 
L 435.437456 -1.718764 
L 443.07684 -24.636618 
L 437.825023 -32.753277 
L 438.124653 -37.367344 
L 441.463219 -42.109908 
L 441.495195 -46.793553 
L 446.681283 -49.050253 
L 444.65197 -50.64374 
L 445.592903 -58.106069 
L 451.44398 -58.150777 
L 456.580919 -50.323681 
L 462.978555 -46.163205 
L 478.170275 -42.577414 
L 486.430828 -32.202574 
L 490.532681 -30.751203 
L 490.510771 -28.194873 
L 484.509287 -18.149567 
L 479.682045 -14.484428 
L 475.406098 -6.634533 
L 470.207575 -7.23557 
L 467.824746 -4.50337 
L 465.98433 1.306256 
L 467.393066 8.965773 
L 466.312384 10.37362 
L 461.039842 10.336018 
L 453.882472 14.618478 
L 452.765669 20.200717 
L 450.145386 22.619075 
L 443.017624 22.526699 
L 438.530871 25.412267 
L 438.587717 30.041138 
L 433.042784 33.222783 
L 426.720352 32.142398 
L 419.057283 36.007685 
L 413.764015 36.65639 
z
" clip-path="url(#p1f0d120e65)" style="fill: #e8edf4; stroke: #b8c5d4; stroke-width: 0.45"/>
    <path d="M 447.708079 -71.107706 
L 451.044868 -75.009115 
L 452.461894 -74.014296 
L 451.381804 -69.280318 
L 449.887799 -67.201856 
z
" clip-path="url(#p1f0d120e65)" style="fill: #e8edf4; stroke: #b8c5d4; stroke-width: 0.45"/>
    <path d="M 221.422574 57.609664 
L 226.357572 40.77232 
L 227.487877 33.155714 
L 231.096738 29.642534 
L 239.536552 27.758693 
L 245.335779 21.218334 
L 251.988041 34.484072 
L 255.144816 45.002214 
L 261.426389 50.583564 
L 277.067554 61.407257 
L 293.228038 78.488542 
L 298.861794 81.935176 
L 295.405982 84.733697 
L 290.500634 83.738903 
L 286.583873 80.030922 
L 281.872093 73.312921 
L 276.791682 69.631868 
L 273.828414 65.675001 
L 263.855172 61.08056 
L 255.998502 60.943512 
L 253.234504 58.547573 
L 246.51444 61.24236 
L 239.560272 56.040484 
L 235.981662 64.592594 
L 222.640539 62.197572 
z
" clip-path="url(#p1f0d120e65)" style="fill: #e8edf4; stroke: #b8c5d4; stroke-width: 0.45"/>
    <path d="M 293.403316 53.131012 
L 295.696729 52.573795 
L 294.521303 47.337966 
L 295.910497 45.128046 
L 295.402429 40.130264 
L 300.433372 36.474895 
L 299.257946 31.644396 
L 302.294513 26.011824 
L 307.000956 28.991248 
L 310.107397 27.95557 
L 323.331388 27.692358 
L 325.432352 28.838176 
L 336.509191 29.984291 
L 340.901792 29.411086 
L 343.766635 33.230777 
L 349.11438 31.320783 
L 357.326377 19.289095 
L 368.021277 14.132615 
L 401.06112 9.740015 
L 413.764015 36.65639 
L 405.475039 39.734705 
L 403.258013 44.822199 
L 402.98799 48.729825 
L 391.578953 53.56743 
L 373.268356 58.912807 
L 363.00869 66.997787 
L 357.963535 67.629319 
L 354.525487 66.951599 
L 347.828221 71.70719 
L 340.52459 73.913261 
L 328.011184 75.15945 
L 325.506371 78.185063 
L 322.502964 79.021184 
L 320.72887 81.935768 
L 315.057216 81.682918 
L 311.396517 83.237916 
L 303.465202 82.655236 
L 300.484889 75.961523 
L 300.812351 69.697714 
L 298.938774 66.316809 
L 296.696286 57.8416 
z
" clip-path="url(#p1f0d120e65)" style="fill: #e8edf4; stroke: #b8c5d4; stroke-width: 0.45"/>
    <path d="M 202.046928 -94.060793 
L 205.756183 -108.934526 
L 218.508818 -107.111875 
L 223.46219 -110.63845 
L 226.204456 -114.763989 
L 234.948207 -116.350963 
L 236.833627 -120.188419 
L 240.623415 -122.134534 
L 229.202534 -133.592425 
L 252.151475 -139.342539 
L 254.335341 -141.070446 
L 268.137866 -137.964892 
L 285.211452 -129.943866 
L 317.519985 -106.898699 
L 349.035624 -104.877676 
L 351.889216 -99.418013 
L 359.99344 -99.715275 
L 364.479601 -89.833403 
L 370.116911 -87.216081 
L 372.080495 -83.191504 
L 379.889826 -78.37492 
L 380.583239 -73.646568 
L 379.441565 -69.830133 
L 380.891751 -65.980834 
L 384.186498 -62.769581 
L 387.426174 -56.202885 
L 390.890277 -53.929309 
L 394.066593 -54.743521 
L 401.06941 -36.10872 
L 435.515621 -30.33107 
L 437.825023 -32.753277 
L 443.07684 -24.636618 
L 435.437456 -1.718764 
L 401.06112 9.740015 
L 368.021277 14.132615 
L 357.326377 19.289095 
L 349.11438 31.320783 
L 343.766635 33.230777 
L 340.901792 29.411086 
L 336.509191 29.984291 
L 325.432352 28.838176 
L 323.331388 27.692358 
L 310.107397 27.95557 
L 307.000956 28.991248 
L 302.294513 26.011824 
L 299.257946 31.644396 
L 300.433372 36.474895 
L 295.402429 40.130264 
L 293.915529 35.240253 
L 290.459716 31.789178 
L 289.576222 27.218042 
L 283.657639 23.112044 
L 277.550159 13.503155 
L 274.318181 4.165474 
L 266.392195 -3.71995 
L 261.281903 -5.601816 
L 253.692853 -16.522623 
L 252.36702 -24.48621 
L 252.855547 -31.278813 
L 246.283226 -43.984373 
L 240.910017 -48.456026 
L 234.719636 -50.825828 
L 230.951758 -57.391635 
L 231.578257 -59.982014 
L 228.394243 -65.922507 
L 225.047979 -68.48091 
L 220.573661 -77.005267 
L 207.751743 -94.115863 
z
" clip-path="url(#p1f0d120e65)" style="fill: #e8edf4; stroke: #b8c5d4; stroke-width: 0.45"/>
    <path d="M -88.010995 -71.553006 
L -83.46325 -76.341462 
L -84.462806 -83.546204 
L -83.006699 -89.817711 
L -83.834531 -95.041993 
L -81.816469 -104.390333 
L -82.439415 -109.714689 
L -86.146301 -119.831942 
L -80.555772 -122.487754 
L -79.563913 -127.329208 
L -80.782567 -132.075917 
L -72.91402 -136.491612 
L -69.385965 -140.162969 
L -63.800173 -143.452683 
L -63.152356 -152.254169 
L -49.693636 -148.30984 
L -44.881477 -149.295762 
L -35.308494 -147.383733 
L -20.103126 -142.262986 
L -14.736815 -132.078099 
L 11.700554 -125.057354 
L 23.907934 -119.360225 
L 29.495631 -122.333004 
L 34.987989 -127.603404 
L 32.31784 -136.381254 
L 35.911805 -141.954971 
L 44.168505 -147.324605 
L 52.05749 -148.887597 
L 67.558841 -146.54288 
L 71.46678 -141.419726 
L 75.733267 -141.371255 
L 79.381432 -139.416484 
L 90.76744 -138.072242 
L 93.559741 -134.288403 
L 89.412197 -128.789742 
L 91.18546 -123.888891 
L 88.234224 -116.81406 
L 91.671088 -107.583521 
L 91.671088 -1.753668 
L 78.493369 -1.718833 
L 78.351966 3.088514 
L -13.05339 -40.790425 
L -32.728058 -30.266229 
L -39.173066 -36.559645 
L -57.300094 -41.500285 
L -62.328669 -48.676308 
L -71.373235 -54.000367 
L -76.730455 -51.900884 
L -80.805069 -58.290822 
L -81.235565 -63.200965 
z
" clip-path="url(#p1f0d120e65)" style="fill: #e8edf4; stroke: #b8c5d4; stroke-width: 0.45"/>
    <path d="M 182.817129 138.251803 
L 186.720255 131.724707 
L 192.801485 131.443047 
L 194.51436 127.943503 
L 194.361269 117.641736 
L 197.751151 105.649897 
L 203.179225 102.440492 
L 204.330614 97.756214 
L 209.244872 89.002771 
L 216.156185 83.32581 
L 220.815253 72.038234 
L 222.640539 62.197572 
L 235.981662 64.592594 
L 239.560272 56.040484 
L 246.51444 61.24236 
L 253.234504 58.547573 
L 255.998502 60.943512 
L 263.855172 61.08056 
L 273.828414 65.675001 
L 276.791682 69.631868 
L 281.872093 73.312921 
L 286.583873 80.030922 
L 290.500634 83.738903 
L 282.596295 94.178292 
L 283.671253 100.827769 
L 290.071843 101.019247 
L 292.831028 100.206697 
L 295.374005 102.249031 
L 292.874916 106.308898 
L 301.334209 118.135614 
L 305.708753 122.22529 
L 343.174612 135.82355 
L 352.812452 135.753422 
L 320.431703 170.145893 
L 305.503868 170.650886 
L 295.291709 178.728942 
L 287.945876 178.940473 
L 284.811562 182.552521 
L 276.981899 182.550481 
L 272.360301 178.678179 
L 261.892151 183.470629 
L 258.505411 188.245891 
L 250.863775 187.344306 
L 248.327121 186.022752 
L 242.022156 186.222882 
L 227.517249 176.491318 
L 219.541697 176.491318 
L 215.626986 172.720181 
L 215.626986 166.288693 
L 209.674777 164.36626 
L 202.902723 151.896471 
L 197.669449 149.239728 
L 195.661623 144.657549 
L 189.854145 139.072603 
z
" clip-path="url(#p1f0d120e65)" style="fill: #e8edf4; stroke: #b8c5d4; stroke-width: 0.45"/>
    <path d="M 282.596295 94.178292 
L 290.500634 83.738903 
L 295.405982 84.733697 
L 298.861794 81.935176 
L 301.573269 85.481588 
L 301.212647 90.239549 
L 294.675263 92.981519 
L 299.596066 96.11668 
L 295.374005 102.249031 
L 292.831028 100.206697 
L 290.071843 101.019247 
L 283.671253 100.827769 
z
" clip-path="url(#p1f0d120e65)" style="fill: #e8edf4; stroke: #b8c5d4; stroke-width: 0.45"/>
    <path d="M 292.874916 106.308898 
L 299.596066 96.11668 
L 303.324269 98.228895 
L 305.570311 102.96761 
L 310.739818 107.764652 
L 316.428645 107.802846 
L 327.230725 104.871386 
L 339.703271 103.51328 
L 349.790029 99.953248 
L 355.472934 99.198844 
L 359.565905 97.108539 
L 366.090834 96.705924 
L 365.975383 119.152373 
L 352.812452 135.753422 
L 343.174612 135.82355 
L 305.708753 122.22529 
L 301.334209 118.135614 
z
" clip-path="url(#p1f0d120e65)" style="fill: #e8edf4; stroke: #b8c5d4; stroke-width: 0.45"/>
    <path d="M 144.146668 242.828841 
L 144.242597 234.189901 
L 146.897225 229.811512 
L 147.542081 220.613578 
L 149.952742 215.285966 
L 154.334091 209.31024 
L 158.736167 206.266863 
L 162.419959 202.19817 
L 157.82721 200.64643 
L 158.520537 187.247689 
L 163.238247 184.122525 
L 170.524838 186.685076 
L 179.748898 184.003124 
L 187.811141 184.029708 
L 194.858355 178.759939 
L 200.291357 186.715671 
L 206.672352 205.620083 
L 202.502578 213.972465 
L 193.58148 226.200545 
L 193.697699 238.344828 
L 157.787255 239.084499 
L 146.920319 243.997753 
z
" clip-path="url(#p1f0d120e65)" style="fill: #e8edf4; stroke: #b8c5d4; stroke-width: 0.45"/>
    <path d="M 137.79226 259.993618 
L 138.852808 253.725073 
L 140.426755 252.841578 
L 140.851329 246.022921 
L 144.146668 242.828841 
L 146.920319 243.997753 
L 153.767992 240.460815 
L 158.317514 246.926549 
L 157.654893 253.668226 
L 154.347454 255.118972 
L 148.25918 254.369929 
L 144.750666 260.894285 
z
" clip-path="url(#p1f0d120e65)" style="fill: #e8edf4; stroke: #b8c5d4; stroke-width: 0.45"/>
    <path d="M 78.917113 128.686386 
L 86.370381 125.27384 
L 89.321165 115.044454 
L 92.468668 109.733042 
L 100.730865 108.159291 
L 108.599623 117.995239 
L 111.747126 118.978833 
L 115.878225 117.011644 
L 124.140421 117.405082 
L 125.714172 119.765709 
L 137.123872 119.765709 
L 137.51731 117.405082 
L 143.418879 115.241173 
L 144.599193 111.896951 
L 148.92701 109.536323 
L 158.566239 116.224768 
L 164.467807 115.044454 
L 170.172657 106.782258 
L 176.467664 100.487251 
L 175.484069 93.602088 
L 172.730004 90.257865 
L 179.615167 89.667709 
L 180.402043 87.110362 
L 185.713455 87.897238 
L 184.336422 96.356153 
L 185.713455 104.618349 
L 191.615024 109.142885 
L 192.992056 113.077265 
L 192.795338 118.782114 
L 194.381583 119.008721 
L 194.51436 127.943503 
L 192.801485 131.443047 
L 186.720255 131.724707 
L 182.817129 138.251803 
L 189.854145 139.072603 
L 195.661623 144.657549 
L 197.669449 149.239728 
L 202.902723 151.896471 
L 209.674777 164.36626 
L 194.858355 178.759939 
L 187.811141 184.029708 
L 179.748898 184.003124 
L 170.524838 186.685076 
L 163.238247 184.122525 
L 158.520537 187.247689 
L 148.432681 179.632945 
L 145.71114 174.738789 
L 139.329493 177.162773 
L 134.030896 176.408664 
L 130.963536 178.33287 
L 125.818307 176.94338 
L 117.034289 163.851143 
L 108.468777 159.316129 
L 105.575511 152.442105 
L 100.799786 147.483701 
L 93.093489 141.516266 
L 92.988086 137.791911 
z
" clip-path="url(#p1f0d120e65)" style="fill: #e8edf4; stroke: #b8c5d4; stroke-width: 0.45"/>
   </g>
   <g id="PathCollection_1">
    <defs>
     <path id="m2fd774b8c8" d="M 0 2.12132 
C 0.562581 2.12132 1.102195 1.897805 1.5 1.5 
C 1.897805 1.102195 2.12132 0.562581 2.12132 0 
C 2.12132 -0.562581 1.897805 -1.102195 1.5 -1.5 
C 1.102195 -1.897805 0.562581 -2.12132 0 -2.12132 
C -0.562581 -2.12132 -1.102195 -1.897805 -1.5 -1.5 
C -1.897805 -1.102195 -2.12132 -0.562581 -2.12132 0 
C -2.12132 0.562581 -1.897805 1.102195 -1.5 1.5 
C -1.102195 1.897805 -0.562581 2.12132 0 2.12132 
z
" style="stroke: #ffffff; stroke-width: 0.5"/>
    </defs>
    <g clip-path="url(#p1f0d120e65)">
     <use xlink:href="#m2fd774b8c8" x="148.965517" y="267.564987" style="fill: #8aa0b7; stroke: #ffffff; stroke-width: 0.5"/>
     <use xlink:href="#m2fd774b8c8" x="297.931034" y="95.681698" style="fill: #8aa0b7; stroke: #ffffff; stroke-width: 0.5"/>
     <use xlink:href="#m2fd774b8c8" x="312.254642" y="366.875331" style="fill: #8aa0b7; stroke: #ffffff; stroke-width: 0.5"/>
     <use xlink:href="#m2fd774b8c8" x="148.965517" y="250.376658" style="fill: #8aa0b7; stroke: #ffffff; stroke-width: 0.5"/>
     <use xlink:href="#m2fd774b8c8" x="443.076923" y="279.97878" style="fill: #8aa0b7; stroke: #ffffff; stroke-width: 0.5"/>
     <use xlink:href="#m2fd774b8c8" x="322.758621" y="374.514589" style="fill: #8aa0b7; stroke: #ffffff; stroke-width: 0.5"/>
    </g>
   </g>
   <g id="PatchCollection_2">
    <defs>
     <path id="mf5cc770e4d" d="M 193.58148 -205.799455 
L 202.502578 -218.027535 
L 206.672352 -226.379917 
L 200.291357 -245.284329 
L 194.858355 -253.240061 
L 209.674777 -267.63374 
L 215.626986 -265.711307 
L 215.626986 -259.279819 
L 219.541697 -255.508682 
L 227.517249 -255.508682 
L 242.022156 -245.777118 
L 248.327121 -245.977248 
L 250.863775 -244.655694 
L 258.505411 -243.754109 
L 261.892151 -248.529371 
L 272.360301 -253.321821 
L 276.981899 -249.449519 
L 284.811562 -249.447479 
L 274.796117 -236.448611 
L 274.93305 -194.706067 
L 281.718201 -185.252944 
L 273.692855 -180.677411 
L 270.863427 -175.896306 
L 266.568522 -175.056369 
L 264.943079 -166.982553 
L 261.263287 -162.359121 
L 259.026856 -154.734723 
L 254.412707 -150.95054 
L 237.965538 -162.405415 
L 237.183928 -169.053059 
L 193.697699 -193.655172 
z
" style="stroke: #b45309; stroke-width: 1.15"/>
    </defs>
    <g clip-path="url(#p1f0d120e65)">
     <use xlink:href="#mf5cc770e4d" x="0" y="432" style="fill: #f59e0b; stroke: #b45309; stroke-width: 1.15"/>
    </g>
   </g>
   <g id="PathCollection_2">
    <defs>
     <path id="m8588eac5b4" d="M 0 3.316625 
C 0.879579 3.316625 1.723251 2.967164 2.345208 2.345208 
C 2.967164 1.723251 3.316625 0.879579 3.316625 0 
C 3.316625 -0.879579 2.967164 -1.723251 2.345208 -2.345208 
C 1.723251 -2.967164 0.879579 -3.316625 0 -3.316625 
C -0.879579 -3.316625 -1.723251 -2.967164 -2.345208 -2.345208 
C -2.967164 -1.723251 -3.316625 -0.879579 -3.316625 0 
C -3.316625 0.879579 -2.967164 1.723251 -2.345208 2.345208 
C -1.723251 2.967164 -0.879579 3.316625 0 3.316625 
z
" style="stroke: #ffffff"/>
    </defs>
    <g clip-path="url(#p1f0d120e65)">
     <use xlink:href="#m8588eac5b4" x="240.636605" y="216" style="fill: #f97316; stroke: #ffffff"/>
    </g>
   </g>
   <g id="PathCollection_3">
    <path d="M 240.636605 220.449719 
C 241.816684 220.449719 242.948589 219.980869 243.783031 219.146427 
C 244.617473 218.311984 245.086324 217.180079 245.086324 216 
C 245.086324 214.819921 244.617473 213.688016 243.783031 212.853573 
C 242.948589 212.019131 241.816684 211.550281 240.636605 211.550281 
C 239.456525 211.550281 238.32462 212.019131 237.490178 212.853573 
C 236.655736 213.688016 236.186886 214.819921 236.186886 216 
C 236.186886 217.180079 236.655736 218.311984 237.490178 219.146427 
C 238.32462 219.980869 239.456525 220.449719 240.636605 220.449719 
L 240.636605 220.449719 
z
" clip-path="url(#p1f0d120e65)" style="fill: none; stroke: #7c2d12; stroke-width: 1.1"/>
   </g>
  </g>
 </g>
 <defs>
  <clipPath id="p1f0d120e65">
   <rect x="0" y="0" width="481.27321" height="432"/>
  </clipPath>
 </defs>
</svg>
