<?xml version="1.0" encoding="utf-8" standalone="no"?>
<!DOCTYPE svg PUBLIC "-//W3C//DTD SVG 1.1//EN"
  "http://www.w3.org/Graphics/SVG/1.1/DTD/svg11.dtd">
<svg xmlns:xlink="http://www.w3.org/1999/xlink" width="463.32pt" height="432pt" viewBox="0 0 463.32 432" xmlns="http://www.w3.org/2000/svg" version="1.1">
 <metadata>
  <rdf:RDF xmlns:dc="http://purl.org/dc/elements/1.1/" xmlns:cc="http://creativecommons.org/ns#" xmlns:rdf="http://www.w3.org/1999/02/22-rdf-syntax-ns#">
   <cc:Work>
    <dc:type rdf:resource="http://purl.org/dc/dcmitype/StillImage"/>
    <dc:date>2026-06-09T04:57:12.160022</dc:date>
    <dc:format>image/svg+xml</dc:format>
    <dc:creator>
     <cc:Agent>
      <dc:title>Matplotlib v3.10.8, https://matplotlib.org/</dc:title>
     </cc:Agent>
    </dc:creator>
   </cc:Work>
  </rdf:RDF>
 </metadata>
 <defs>
  <style type="text/css">*{stroke-linejoin: round; stroke-linecap: butt}</style>
 </defs>
 <g id="figure_1">
  <g id="patch_1">
   <path d="M 0 432 
L 463.32 432 
L 463.32 0 
L 0 0 
z
" style="fill: #eaf3ff"/>
  </g>
  <g id="axes_1">
   <g id="PatchCollection_1">
    <path d="M 197.461515 344.161088 
L 209.953776 349.121901 
L 223.264591 353.242208 
L 232.234462 360.550785 
L 233.329837 364.792386 
L 245.326128 369.242347 
L 247.075975 373.060905 
L 240.450519 373.835927 
L 242.041491 378.633774 
L 248.469378 383.357579 
L 253.145558 390.993578 
L 257.269213 390.754337 
L 256.979742 393.943723 
L 262.538845 395.167091 
L 260.379349 396.525147 
L 268.031719 399.554544 
L 267.23214 401.635533 
L 262.464431 402.137828 
L 260.692632 400.271523 
L 247.233733 398.379174 
L 237.548742 389.826393 
L 233.809064 383.525383 
L 224.418009 380.376924 
L 218.319032 382.43038 
L 213.921906 384.807537 
L 214.840175 390.118096 
L 209.184706 392.593108 
L 205.151464 391.389089 
L 197.703733 391.088828 
z
" clip-path="url(#p07c70c1304)" style="fill: #e8edf4; stroke: #b8c5d4; stroke-width: 0.45"/>
    <path d="M 250.156345 366.819425 
L 250.753146 364.591841 
L 257.208566 365.642939 
L 261.148046 365.079625 
L 262.233003 361.627928 
L 263.266242 361.449707 
L 263.965735 365.271985 
L 268.073763 364.722065 
L 270.105639 362.258588 
L 274.124742 359.69093 
L 273.332605 355.448213 
L 277.6449 355.311291 
L 279.09895 356.493358 
L 278.954587 360.487161 
L 276.53613 364.882055 
L 272.76557 365.474019 
L 271.630011 367.493245 
L 263.996616 370.927826 
L 260.171734 370.918896 
z
" clip-path="url(#p07c70c1304)" style="fill: #e8edf4; stroke: #b8c5d4; stroke-width: 0.45"/>
    <path d="M 294.761622 362.441646 
L 295.758027 361.745503 
L 296.531933 363.887883 
L 298.713009 365.5209 
L 302.203773 370.084715 
L 305.603751 372.5281 
L 304.596185 374.543977 
L 302.579936 375.263933 
L 299.462359 372.498707 
L 296.310179 367.925963 
z
" clip-path="url(#p07c70c1304)" style="fill: #e8edf4; stroke: #b8c5d4; stroke-width: 0.45"/>
    <path d="M 267.026757 345.1787 
L 269.027751 343.440015 
L 278.387924 348.768062 
L 284.003953 354.096109 
L 284.868273 357.839881 
L 282.616503 359.758275 
L 281.258447 355.508116 
L 279.583386 352.726146 
L 272.226812 347.295036 
z
" clip-path="url(#p07c70c1304)" style="fill: #e8edf4; stroke: #b8c5d4; stroke-width: 0.45"/>
    <path d="M 37.387937 345.614394 
L 40.363011 340.899147 
L 41.388437 335.182659 
L 45.007193 324.329368 
L 46.517054 321.361363 
L 52.637611 316.013596 
L 58.261081 318.139606 
L 67.338481 319.138615 
L 75.618161 318.836866 
L 82.735122 313.608534 
L 83.991604 315.21718 
L 78.206655 322.359256 
L 72.795636 323.743729 
L 65.866198 322.335815 
L 53.868419 322.695235 
L 47.578198 323.731823 
L 46.554261 329.181537 
L 52.998519 335.584123 
L 56.885909 332.322926 
L 70.312067 329.872843 
L 69.720475 333.188734 
L 66.58355 332.142844 
L 63.457415 336.361378 
L 57.11957 339.152277 
L 63.932921 348.379621 
L 62.617653 350.8524 
L 69.090932 359.162591 
L 69.028796 363.892348 
L 65.18531 366.009056 
L 62.36204 363.477118 
L 65.840898 357.582036 
L 58.775282 360.369587 
L 56.984136 358.376778 
L 57.918032 355.597041 
L 52.726907 351.375159 
L 53.2612 344.359029 
L 48.459261 346.547547 
L 49.361159 365.243336 
L 44.795113 366.288481 
L 41.70172 364.175122 
L 43.765966 357.547805 
L 42.651615 350.599764 
L 39.624079 350.546558 
z
" clip-path="url(#p07c70c1304)" style="fill: #e8edf4; stroke: #b8c5d4; stroke-width: 0.45"/>
    <path d="M -33.280866 322.449297 
L -32.442219 315.778076 
L -28.164527 310.993438 
L -26.962368 315.805423 
L -22.038761 319.873454 
L -17.394208 318.409357 
L -12.797651 318.928023 
L -8.602186 315.287129 
L -5.149374 314.655912 
L 1.662117 316.673649 
L 7.533759 315.139045 
L 11.225069 305.125331 
L 13.997365 302.621484 
L 16.491724 294.432774 
L 24.769544 294.436123 
L 31.010652 295.64963 
L 26.915274 302.152117 
L 32.207974 308.968631 
L 30.964515 312.280987 
L 39.03658 318.944022 
L 30.50538 319.793459 
L 28.104038 324.702182 
L 28.415833 331.226807 
L 21.492349 336.151158 
L 21.303337 343.321325 
L 18.526204 354.33163 
L 17.466176 351.77067 
L 9.286582 355.010286 
L 6.434291 350.609066 
L 1.300837 350.202021 
L -2.289641 347.895185 
L -10.849491 350.484423 
L -13.476307 346.999984 
L -18.192671 347.395867 
L -24.128308 346.565034 
L -25.229264 336.908693 
L -28.821975 334.907327 
L -32.278509 328.748447 
z
" clip-path="url(#p07c70c1304)" style="fill: #e8edf4; stroke: #b8c5d4; stroke-width: 0.45"/>
    <path d="M 122.000819 332.191586 
L 131.706273 330.44732 
L 135.396838 328.100673 
L 146.955947 331.057515 
L 148.092249 333.733445 
L 150.102917 345.37813 
L 157.554741 349.68782 
L 163.571863 342.050705 
L 171.833312 337.705296 
L 178.234037 337.699342 
L 189.732126 342.785172 
L 197.461515 344.161088 
L 197.703733 391.088828 
L 191.292589 385.179607 
L 183.979919 383.731509 
L 182.206632 385.782733 
L 173.084212 386.004115 
L 176.141514 380.144752 
L 180.674074 378.145618 
L 178.79698 370.316514 
L 175.340447 364.272232 
L 161.382601 358.175116 
L 155.445103 357.573106 
L 144.63274 350.919745 
L 142.507474 354.418694 
L 139.74448 355.053446 
L 138.109975 352.413235 
L 138.087279 349.284868 
L 132.586591 345.747967 
L 140.341281 343.155009 
L 145.476223 343.294908 
L 144.872725 341.384699 
L 134.333089 341.370188 
L 131.480798 337.083566 
L 125.048447 335.754159 
z
" clip-path="url(#p07c70c1304)" style="fill: #e8edf4; stroke: #b8c5d4; stroke-width: 0.45"/>
    <path d="M -131.630212 285.98529 
L -115.848849 287.666489 
L -109.481982 294.707734 
L -99.943216 302.584835 
L -93.121678 310.324455 
L -85.802311 310.437379 
L -79.752448 315.369357 
L -75.586749 321.398198 
L -70.103549 324.6873 
L -72.988954 330.56601 
L -68.862322 333.066323 
L -66.276061 333.25087 
L -65.055671 338.273075 
L -62.547173 342.291062 
L -57.260798 342.927675 
L -53.758128 347.484792 
L -55.566389 356.43978 
L -55.852884 367.576961 
L -63.825234 367.727649 
L -69.888864 361.708668 
L -79.133323 355.825864 
L -82.215553 351.461851 
L -87.666384 345.598395 
L -91.241979 340.201887 
L -96.717738 330.122503 
L -103.041073 324.121381 
L -107.81027 312.310753 
L -114.302897 307.777076 
L -118.066016 301.616708 
L -123.487081 297.58421 
L -130.997692 289.650368 
z
" clip-path="url(#p07c70c1304)" style="fill: #e8edf4; stroke: #b8c5d4; stroke-width: 0.45"/>
    <path d="M -59.108499 374.770196 
L -54.168149 367.890616 
L -45.431938 368.315892 
L -39.620944 371.129488 
L -36.634708 371.678292 
L -35.650954 374.239252 
L -21.857563 374.956975 
L -20.271055 371.989342 
L -6.913359 375.451457 
L -4.292868 380.118335 
L 6.508333 381.430999 
L 15.339794 385.709807 
L 7.124482 388.453082 
L -0.793919 385.552422 
L -14.781158 385.215326 
L -21.519723 383.922754 
L -29.860796 381.172782 
L -35.145682 380.459523 
L -38.140104 381.359933 
L -51.270466 378.395277 
L -52.519506 375.29928 
z
" clip-path="url(#p07c70c1304)" style="fill: #e8edf4; stroke: #b8c5d4; stroke-width: 0.45"/>
    <path d="M 99.536329 318.155605 
L 100.983683 312.403026 
L 103.373118 309.782907 
L 103.889924 313.714574 
L 108.140827 314.346163 
L 108.815391 317.286821 
L 108.438856 323.578902 
L 104.725222 322.873829 
L 103.629847 327.254957 
L 106.595991 331.056027 
L 104.580115 331.919974 
L 101.674617 327.359508 
z
" clip-path="url(#p07c70c1304)" style="fill: #e8edf4; stroke: #b8c5d4; stroke-width: 0.45"/>
    <path d="M 103.132017 349.872739 
L 104.838331 345.914283 
L 113.731184 345.61551 
L 121.653677 347.715103 
L 124.27082 353.221 
L 118.191935 350.253367 
L 112.17779 349.650985 
L 108.112922 350.126491 
z
" clip-path="url(#p07c70c1304)" style="fill: #e8edf4; stroke: #b8c5d4; stroke-width: 0.45"/>
    <path d="M 71.171921 399.167963 
L 71.820068 396.720112 
L 74.916065 392.328194 
L 82.034514 389.46809 
L 82.764144 390.88791 
L 82.897345 393.070846 
L 78.198841 398.448007 
L 72.035868 400.03191 
z
" clip-path="url(#p07c70c1304)" style="fill: #e8edf4; stroke: #b8c5d4; stroke-width: 0.45"/>
    <path d="M 45.690686 386.242984 
L 51.408662 384.746145 
L 55.920015 386.904525 
L 60.713025 386.356466 
L 67.165468 383.718487 
L 66.110277 387.718615 
L 55.292332 389.762397 
L 45.715615 388.875009 
z
" clip-path="url(#p07c70c1304)" style="fill: #e8edf4; stroke: #b8c5d4; stroke-width: 0.45"/>
    <path d="M 22.789014 390.477144 
L 25.262909 386.331537 
L 29.210575 386.274982 
L 31.140132 383.728905 
L 33.736439 385.64916 
L 38.184911 385.060917 
L 39.970849 388.121939 
L 26.659661 390.534443 
z
" clip-path="url(#p07c70c1304)" style="fill: #e8edf4; stroke: #b8c5d4; stroke-width: 0.45"/>
    <path d="M 147.871984 369.665763 
L 150.657302 364.644302 
L 152.294411 366.750592 
L 152.277296 370.183685 
L 148.572964 375.085712 
z
" clip-path="url(#p07c70c1304)" style="fill: #e8edf4; stroke: #b8c5d4; stroke-width: 0.45"/>
    <path d="M 89.381042 348.316369 
L 96.664691 347.971088 
L 98.454349 350.345268 
L 95.759444 352.735076 
L 90.783375 351.41311 
z
" clip-path="url(#p07c70c1304)" style="fill: #e8edf4; stroke: #b8c5d4; stroke-width: 0.45"/>
    <path d="M 38.828221 394.257379 
L 45.54223 392.841651 
L 51.843613 397.221663 
L 51.412383 399.164986 
L 48.384103 399.30228 
z
" clip-path="url(#p07c70c1304)" style="fill: #e8edf4; stroke: #b8c5d4; stroke-width: 0.45"/>
    <path d="M -621.265069 -88.376604 
L -618.179862 -90.661674 
L -620.31492 -97.376904 
L -615.191765 -101.525941 
L -616.275936 -102.782664 
L -608.09256 -106.76196 
L -615.636 -110.185344 
L -593.532064 -123.535388 
L -590.824136 -127.20735 
L -601.481719 -132.140258 
L -598.53827 -136.832065 
L -605.020107 -142.190435 
L -600.17292 -148.363056 
L -608.546962 -156.558861 
L -601.90253 -161.987739 
L -612.929206 -166.785213 
L -611.878107 -171.826394 
L -606.06324 -172.489824 
L -593.812224 -175.378392 
L -586.384416 -177.88284 
L -574.556616 -173.530224 
L -554.839488 -171.816624 
L -527.635152 -163.67328 
L -522.108936 -160.251336 
L -521.63316 -155.459376 
L -529.626024 -151.676496 
L -541.38276 -149.756616 
L -573.525288 -155.229192 
L -578.812032 -154.314216 
L -567.073656 -149.04108 
L -566.143848 -138.343464 
L -551.248344 -134.278776 
L -550.317816 -137.769912 
L -554.655031 -140.864112 
L -550.072512 -143.591184 
L -532.66716 -139.109688 
L -526.60368 -140.864112 
L -531.44928 -146.137104 
L -514.669752 -153.188856 
L -508.024512 -152.773776 
L -501.3018 -150.257376 
L -497.107728 -155.205648 
L -503.111592 -159.49764 
L -499.58676 -163.803672 
L -504.879696 -168.269688 
L -484.74 -165.96 
L -480.626352 -161.927784 
L -489.742776 -161.038944 
L -489.693456 -157.03236 
L -484.02612 -154.567224 
L -472.902048 -156.12876 
L -471.140928 -160.721136 
L -430.974504 -170.333136 
L -425.543688 -169.97868 
L -432.642096 -165.609432 
L -423.710784 -164.858544 
L -418.552704 -167.318352 
L -405.057456 -167.517216 
L -394.3656 -170.501904 
L -386.161776 -166.164768 
L -377.979552 -170.932968 
L -385.524 -175.104 
L -381.78 -177.48 
L -360.5112 -175.301208 
L -350.545572 -173.050812 
L -324.452448 -164.824776 
L -319.639104 -168.592536 
L -326.956032 -172.399392 
L -327.166416 -173.926728 
L -335.843424 -174.633192 
L -333.469728 -178.046856 
L -337.320576 -183.664008 
L -337.538448 -185.968584 
L -324.251568 -192.4884 
L -319.526208 -199.032192 
L -314.172 -200.448 
L -295.109712 -198.549288 
L -293.608584 -194.544432 
L -300.433608 -188.704656 
L -295.955208 -186.409368 
L -293.638464 -181.376208 
L -295.27416 -171.51012 
L -287.331336 -167.09688 
L -290.42136 -162.29088 
L -304.524 -152.064 
L -296.294328 -151.003224 
L -293.430456 -153.595224 
L -285.508872 -155.444112 
L -283.597128 -159.006888 
L -277.3656 -162.435384 
L -281.561328 -166.528728 
L -278.201952 -171.282096 
L -286.075008 -171.874512 
L -287.806536 -175.878936 
L -282.06144 -183.1086 
L -291.41208 -188.979624 
L -278.526096 -193.832568 
L -280.193328 -198.952344 
L -276.602328 -199.115784 
L -272.818728 -195.124032 
L -275.659344 -188.176032 
L -267.954408 -186.860664 
L -271.237464 -192.052872 
L -259.18812 -194.883624 
L -244.245456 -195.264792 
L -230.94 -191.16 
L -237.342888 -197.15652 
L -238.060152 -204.82704 
L -225.54 -206.28 
L -208.222128 -205.962552 
L -192.61944 -206.905536 
L -198.471168 -210.669624 
L -190.138896 -215.398296 
L -181.866888 -215.596296 
L -167.868 -219.168 
L -148.855824 -220.127976 
L -146.453688 -222.09984 
L -127.548 -222.768 
L -121.656888 -221.151456 
L -105.497712 -224.977608 
L -92.270376 -224.858016 
L -90.285696 -227.965608 
L -83.405952 -231.030288 
L -66.40848 -233.985024 
L -54.060192 -231.652008 
L -63.864 -229.87728 
L -47.555064 -228.774168 
L -45.612 -225.216 
L -39.03264 -226.96812 
L -17.983728 -226.872 
L -1.753128 -223.360128 
L 4.026024 -220.663008 
L 2.234808 -216.920088 
L -24.651 -210.792456 
L -30.06 -208.656 
L -10.481832 -205.831728 
L -3.999312 -207.193896 
L -0.327024 -202.57236 
L 2.835432 -204.443136 
L 14.348304 -205.58052 
L 37.449576 -204.391584 
L 39.204 -201.024 
L 69.304752 -199.952784 
L 69.715944 -205.452216 
L 84.996 -204.192 
L 96.490368 -204.231528 
L 108.117072 -200.438712 
L 111.431304 -195.830784 
L 107.172 -192.816 
L 116.215128 -187.149888 
L 127.537776 -184.226328 
L 134.4852 -191.78136 
L 146.035152 -188.542224 
L 158.305896 -190.4778 
L 172.24236 -188.262936 
L 177.545448 -190.281816 
L 189.322776 -189.272376 
L 184.124952 -195.956568 
L 193.630824 -199.075752 
L 258.66 -194.4 
L 264.788496 -190.126296 
L 283.63608 -184.623984 
L 312.709536 -185.986152 
L 327.044088 -184.800384 
L 333.038232 -181.823328 
L 332.162352 -176.558256 
L 341.031816 -174.508416 
L 350.669304 -175.982688 
L 363.437856 -176.171256 
L 377.030664 -174.758328 
L 390.676824 -175.555368 
L 403.218936 -169.15536 
L 412.141536 -171.458136 
L 406.31904 -176.059872 
L 409.52484 -179.258616 
L 432.496152 -177.245496 
L 447.473016 -177.6762 
L 468.18 -174.24 
L 478.26 -171.098182 
L 478.26 -142.413903 
L 468.95184 -139.211496 
L 459.621216 -139.739112 
L 466.1136 -135.906696 
L 470.3994 -129.974184 
L 473.726448 -128.034864 
L 474.561792 -125.056368 
L 472.7034 -123.14952 
L 459.28296 -124.71768 
L 439.158888 -119.29788 
L 432.756936 -118.458792 
L 411.2892 -108.980496 
L 408.64212 -105.708744 
L 398.343312 -110.68956 
L 379.583856 -105.03756 
L 376.308 -107.712 
L 369.372528 -104.62752 
L 359.742888 -105.614712 
L 357.423192 -100.879272 
L 348.784776 -93.911616 
L 349.041384 -91.001664 
L 357.241752 -89.388216 
L 356.277168 -78.906528 
L 349.592976 -78.639768 
L 346.510512 -72.616896 
L 349.505928 -69.517008 
L 336.915144 -65.839176 
L 334.416456 -57.618504 
L 323.682768 -55.862496 
L 321.524496 -48.547368 
L 311.146488 -41.83956 
L 308.484 -46.8 
L 301.382352 -73.303416 
L 304.843824 -83.289024 
L 310.91868 -87.58584 
L 311.29452 -90.950688 
L 322.483176 -92.5614 
L 335.344608 -101.626344 
L 347.738688 -109.0296 
L 360.681768 -114.77448 
L 366.46956 -124.924392 
L 357.720624 -124.317144 
L 353.396952 -118.386 
L 335.134656 -110.478456 
L 329.236704 -119.332512 
L 310.648896 -116.887824 
L 292.630032 -104.818896 
L 298.575 -100.40364 
L 271.373256 -97.782408 
L 271.89468 -102.988512 
L 260.702712 -104.081256 
L 251.782632 -100.544256 
L 229.767984 -101.781864 
L 206.084304 -99.647856 
L 155.168568 -68.613048 
L 166.512312 -67.70556 
L 170.052624 -63.196704 
L 177.04584 -61.596072 
L 181.653336 -65.19276 
L 189.550872 -64.725696 
L 199.946232 -56.804904 
L 200.190456 -50.679144 
L 194.561424 -43.485624 
L 193.954176 -34.887816 
L 190.705896 -23.376312 
L 179.853984 -12.95748 
L 177.441912 -7.97724 
L 153.319608 12.972888 
L 143.725464 17.197416 
L 139.185144 17.290872 
L 134.662104 13.791168 
L 124.998264 19.060272 
L 123.876 21.456 
L 122.868 20.196 
L 122.823838 16.538295 
L 126.501753 16.344074 
L 127.537597 7.837058 
L 125.641368 1.670688 
L 131.82087 -0.872364 
L 140.559264 0.402552 
L 145.401437 -6.601874 
L 147.86892 -14.489856 
L 150.665832 -17.12484 
L 154.449443 -23.603255 
L 142.54989 -21.48078 
L 136.308168 -18.640512 
L 125.368272 -18.648936 
L 122.452512 -25.413749 
L 113.924288 -30.532321 
L 101.39328 -32.833944 
L 98.729681 -39.88654 
L 89.073712 -54.66815 
L 82.751121 -57.319523 
L 71.974584 -59.46336 
L 62.429385 -59.268427 
L 53.48221 -57.970088 
L 47.535038 -54.387981 
L 51.485681 -52.676829 
L 51.57504 -48.701592 
L 47.570976 -46.39356 
L 41.071608 -38.757024 
L 41.136917 -35.588756 
L 30.99056 -31.03908 
L 22.347366 -33.757426 
L 13.757007 -33.157277 
L 9.987191 -35.569781 
L 5.669687 -36.34778 
L -4.876274 -31.273671 
L -14.355137 -30.081371 
L -20.973524 -28.296922 
L -30.042366 -29.469316 
L -36.718796 -29.394344 
L -41.089134 -33.074677 
L -48.14061 -36.534931 
L -55.356542 -37.483338 
L -71.268873 -35.207756 
L -81.497592 -38.236032 
L -82.870488 -43.631352 
L -97.871528 -46.324845 
L -105.937268 -49.301035 
L -113.394674 -41.839165 
L -110.471317 -37.601284 
L -117.469728 -32.58756 
L -127.879056 -34.397712 
L -135.065165 -34.65672 
L -139.877522 -38.019864 
L -147.389688 -38.126088 
L -153.650077 -40.335629 
L -164.601594 -36.949045 
L -178.339919 -30.747749 
L -188.748214 -28.907862 
L -192.568632 -33.312058 
L -201.842856 -32.348582 
L -204.907971 -35.404581 
L -209.942083 -36.802077 
L -213.407174 -40.962568 
L -217.382373 -42.258117 
L -227.728904 -40.407811 
L -237.647182 -44.556023 
L -241.483971 -40.786206 
L -257.573408 -59.071788 
L -266.758708 -64.634425 
L -264.124078 -66.891776 
L -282.169296 -60.09732 
L -289.075113 -59.686634 
L -288.478684 -63.616441 
L -297.72612 -66.071919 
L -305.243056 -64.319654 
L -307.510081 -71.782082 
L -320.449198 -73.333801 
L -326.922477 -70.346821 
L -344.938536 -67.689 
L -348.454558 -65.91044 
L -375.39648 -63.405 
L -378.697922 -60.947952 
L -373.500099 -56.015974 
L -380.41205 -54.143903 
L -379.063667 -52.182348 
L -385.973757 -48.675027 
L -374.306376 -43.723143 
L -376.110545 -40.313305 
L -386.223788 -40.623798 
L -388.315567 -38.487184 
L -397.524096 -42.218208 
L -408.938544 -42.07356 
L -416.578032 -39.036312 
L -440.97319 -46.934296 
L -452.220132 -46.747889 
L -467.082852 -38.916925 
L -467.979542 -33.658269 
L -475.383741 -37.833828 
L -481.128507 -29.923242 
L -479.025565 -28.45468 
L -483.181591 -22.997897 
L -477.070272 -18.11412 
L -471.7278 -18.315144 
L -467.137919 -13.504523 
L -467.8686 -9.799488 
L -464.211648 -8.635176 
L -467.493048 -4.365288 
L -474.473448 -3.178728 
L -481.629528 4.25376 
L -475.085232 11.086848 
L -475.793856 15.936624 
L -467.932536 24.416064 
L -472.231561 27.318102 
L -473.467207 29.149804 
L -476.652129 28.657927 
L -481.600292 24.284613 
L -488.14992 22.374432 
L -490.35399 19.419979 
L -497.069115 17.913653 
L -501.435288 19.044288 
L -502.696872 17.706024 
L -512.50032 14.25384 
L -529.185852 11.85765 
L -530.063938 12.708017 
L -539.244 6.624 
L -547.458336 3.908088 
L -553.676688 -0.321768 
L -548.437176 -1.472472 
L -542.46276 -7.494264 
L -546.489216 -10.343304 
L -535.876776 -13.2822 
L -536.06736 -14.856192 
L -542.530526 -13.695767 
L -542.303191 -16.894083 
L -538.591896 -18.904464 
L -531.624401 -19.432347 
L -530.491536 -21.833352 
L -532.08252 -25.803504 
L -529.158319 -29.573495 
L -529.242912 -31.68756 
L -539.856085 -34.030526 
L -544.063456 -33.952763 
L -548.507092 -37.324464 
L -554.031592 -36.184255 
L -563.175964 -38.715821 
L -563.019048 -40.132368 
L -565.580282 -43.254521 
L -571.321327 -43.603151 
L -571.917756 -45.838177 
L -570.11954 -47.295949 
L -574.720561 -51.372537 
L -582.186524 -50.676951 
L -584.373181 -51.038604 
L -586.192032 -49.401 
L -588.881016 -49.692096 
L -590.651868 -54.302777 
L -592.342555 -56.69277 
L -590.956992 -57.365496 
L -585.14746 -57.115628 
L -582.34577 -58.69023 
L -584.41969 -60.609927 
L -589.274836 -61.877012 
L -588.841746 -63.177398 
L -591.7718 -64.490806 
L -596.285757 -69.204751 
L -594.742781 -71.147144 
L -595.447854 -74.527031 
L -602.48668 -76.244135 
L -606.264682 -75.384653 
L -607.287504 -77.172078 
L -614.867692 -78.977736 
L -617.181969 -83.227151 
L -617.795885 -86.718658 
z
" clip-path="url(#p07c70c1304)" style="fill: #e8edf4; stroke: #b8c5d4; stroke-width: 0.45"/>
    <path d="M -447.258574 -193.067144 
L -439.896419 -194.61198 
L -440.141985 -198.538066 
L -425.861182 -204.678342 
L -432.480313 -205.55866 
L -415.242296 -211.877903 
L -417.190084 -215.146168 
L -401.085764 -218.947611 
L -377.31568 -223.573561 
L -353.351748 -224.9212 
L -341.020966 -227.590432 
L -327.00917 -228.525817 
L -322.00408 -225.682641 
L -326.839878 -223.44222 
L -374.338746 -216.438368 
L -396.705009 -209.585205 
L -418.720781 -195.633127 
L -417.255568 -189.652283 
L -403.483013 -183.747341 
L -407.736149 -183.115751 
L -431.262899 -184.051136 
L -433.17348 -187.247964 
L -446.206359 -189.178265 
z
" clip-path="url(#p07c70c1304)" style="fill: #e8edf4; stroke: #b8c5d4; stroke-width: 0.45"/>
    <path d="M -2113.74 -142.413903 
L -2113.74 -171.098182 
L -2096.1 -165.6 
L -2077.2234 -158.442408 
L -2077.8426 -153.96732 
L -2072.986776 -152.176032 
L -2074.657104 -157.407768 
L -2055.112632 -156.334176 
L -2041.016976 -149.596128 
L -2048.155704 -146.458008 
L -2059.9578 -145.712952 
L -2060.136 -138.677688 
L -2063.018376 -137.179368 
L -2069.761248 -137.39472 
L -2075.248224 -139.905 
L -2084.821416 -142.004736 
L -2086.431552 -145.128024 
L -2093.743152 -146.305728 
L -2101.931496 -145.371744 
L -2105.843904 -147.891168 
L -2104.279992 -150.567192 
L -2112.903144 -148.856832 
L -2109.655296 -145.469592 
z
" clip-path="url(#p07c70c1304)" style="fill: #e8edf4; stroke: #b8c5d4; stroke-width: 0.45"/>
    <path d="M 201.737347 -48.495131 
L 202.374331 -58.334158 
L 209.029925 -61.647445 
L 206.170193 -64.983427 
L 209.374462 -65.994342 
L 213.738103 -54.293475 
L 213.553928 -47.207954 
L 216.525654 -39.942723 
L 223.769863 -27.190013 
L 213.112281 -29.56717 
L 208.682411 -19.16334 
L 215.701146 -11.784442 
L 215.497995 -6.752935 
L 210.043445 -11.093507 
L 205.322616 -5.520638 
L 203.989861 -11.562688 
L 204.792788 -18.576957 
L 203.972001 -26.346158 
L 205.63776 -31.789174 
L 205.95588 -41.416866 
z
" clip-path="url(#p07c70c1304)" style="fill: #e8edf4; stroke: #b8c5d4; stroke-width: 0.45"/>
    <path d="M -584.069944 -0.917756 
L -582.798208 -2.298137 
L -575.905233 -4.691293 
L -577.000886 -5.557805 
L -575.103875 -7.340924 
L -567.669475 -5.512793 
L -566.735097 -4.090914 
L -565.648855 -3.871621 
L -565.590328 -3.248777 
L -562.067938 -1.511952 
L -554.724014 -1.943926 
L -556.130068 0.624847 
L -564.012006 1.872027 
L -573.785921 6.037354 
L -577.789769 4.572885 
L -576.202145 1.18965 
z
" clip-path="url(#p07c70c1304)" style="fill: #e8edf4; stroke: #b8c5d4; stroke-width: 0.45"/>
    <path d="M -494.841902 -254.806631 
L -480.786202 -256.117807 
L -469.846963 -256.204871 
L -468.375797 -254.264897 
L -464.240235 -255.988699 
L -457.453673 -257.175975 
L -446.774883 -255.598025 
L -449.559457 -254.500417 
L -465.700239 -253.004881 
L -466.704457 -251.823371 
L -475.119943 -250.633304 
L -482.919653 -252.340177 
L -478.818322 -254.587854 
z
" clip-path="url(#p07c70c1304)" style="fill: #e8edf4; stroke: #b8c5d4; stroke-width: 0.45"/>
    <path d="M -161.236296 -253.018512 
L -142.540848 -257.93712 
L -126.965556 -259.56288 
L -112.97628 -255.93822 
L -96.396084 -248.976972 
L -98.173728 -242.502768 
L -113.882832 -241.60464 
L -133.937352 -243.682164 
L -145.887264 -246.4308 
L -151.41312 -251.595288 
z
" clip-path="url(#p07c70c1304)" style="fill: #e8edf4; stroke: #b8c5d4; stroke-width: 0.45"/>
    <path d="M 168.475608 -216.444024 
L 172.344672 -221.394024 
L 181.84374 -222.744672 
L 200.855628 -222.428808 
L 226.881252 -218.6109 
L 221.22 -213.264 
L 194.679432 -213.463296 
L 182.739168 -211.762656 
z
" clip-path="url(#p07c70c1304)" style="fill: #e8edf4; stroke: #b8c5d4; stroke-width: 0.45"/>
    <path d="M -676.183391 -66.427804 
L -674.542933 -69.596355 
L -664.607168 -71.931468 
L -657.066791 -70.67015 
L -653.884101 -69.527336 
L -654.652427 -67.555735 
L -654.07609 -65.718266 
L -667.31584 -65.610179 
z
" clip-path="url(#p07c70c1304)" style="fill: #e8edf4; stroke: #b8c5d4; stroke-width: 0.45"/>
    <path d="M 189.274464 -202.822776 
L 196.104312 -205.668432 
L 205.106904 -206.334576 
L 215.336376 -203.5818 
L 216.20772 -201.689568 
L 205.290936 -201.639168 
z
" clip-path="url(#p07c70c1304)" style="fill: #e8edf4; stroke: #b8c5d4; stroke-width: 0.45"/>
    <path d="M -101.785392 -235.5912 
L -88.63272 -245.044728 
L -82.71828 -245.854152 
L -77.307732 -245.385288 
L -59.058504 -241.296048 
L -61.196616 -238.369608 
z
" clip-path="url(#p07c70c1304)" style="fill: #e8edf4; stroke: #b8c5d4; stroke-width: 0.45"/>
    <path d="M -2113.74 -184.551834 
L -2113.74 -189.473143 
L -2106.715176 -189.759816 
L -2096.301204 -187.700256 
L -2096.91774 -186.715944 
L -2104.335216 -184.989744 
z
" clip-path="url(#p07c70c1304)" style="fill: #e8edf4; stroke: #b8c5d4; stroke-width: 0.45"/>
    <path d="M 234.318168 -215.805456 
L 236.041092 -218.137104 
L 267.528024 -215.165232 
L 259.20666 -212.320224 
L 247.697748 -212.964156 
z
" clip-path="url(#p07c70c1304)" style="fill: #e8edf4; stroke: #b8c5d4; stroke-width: 0.45"/>
    <path d="M 469.08216 -186.47136 
L 478.26 -189.473143 
L 478.26 -184.551834 
L 470.36466 -184.184208 
z
" clip-path="url(#p07c70c1304)" style="fill: #e8edf4; stroke: #b8c5d4; stroke-width: 0.45"/>
    <path d="M 82.034514 389.46809 
L 82.880974 387.769589 
L 89.078921 386.151083 
L 94.10187 385.907377 
L 96.352152 385.008083 
L 99.078683 385.900679 
L 96.429542 387.851444 
L 82.897345 393.070846 
L 82.764144 390.88791 
z
" clip-path="url(#p07c70c1304)" style="fill: #e8edf4; stroke: #b8c5d4; stroke-width: 0.45"/>
    <path d="M 381.989786 430.750779 
L 385.43553 432.964225 
L 386.604202 438.76815 
L 384.668693 437.865135 
L 383.170738 438.255437 
L 382.138987 436.267466 
z
" clip-path="url(#p07c70c1304)" style="fill: #e8edf4; stroke: #b8c5d4; stroke-width: 0.45"/>
    <path d="M 385.956056 441.791966 
L 386.22097 439.861293 
L 390.743113 443.997598 
L 388.369304 444.944517 
z
" clip-path="url(#p07c70c1304)" style="fill: #e8edf4; stroke: #b8c5d4; stroke-width: 0.45"/>
    <path d="M 76.972497 37.954848 
L 82.835581 33.337269 
L 90.770725 29.46718 
L 95.7174 24.360701 
L 99.135238 26.617307 
L 105.360718 26.879245 
L 104.235949 23.081151 
L 115.356015 19.980131 
L 118.218724 15.945215 
L 123.875945 21.455931 
L 121.14022 21.023974 
L 115.865007 25.912048 
L 116.137363 31.083639 
L 112.414427 32.674984 
L 108.420252 36.073102 
L 103.625382 37.25703 
L 100.500736 39.190679 
L 100.275261 42.307698 
L 99.435126 43.102999 
L 102.300068 44.273532 
L 106.377958 47.431851 
L 105.34137 49.17314 
L 97.187822 49.995973 
L 94.382783 53.245635 
L 91.16884 52.989279 
L 90.718263 53.642262 
L 87.221546 52.271927 
L 86.352762 53.624961 
L 84.242379 54.222692 
L 83.988627 52.867984 
L 80.187557 51.059908 
L 82.159157 47.890986 
L 83.858031 47.045828 
L 83.216581 45.730373 
L 85.043447 41.846703 
L 84.572033 40.670031 
L 80.369871 39.885521 
z
" clip-path="url(#p07c70c1304)" style="fill: #e8edf4; stroke: #b8c5d4; stroke-width: 0.45"/>
    <path d="M 123.876026 21.455944 
L 123.876035 21.455925 
L 123.876053 21.455948 
z
" clip-path="url(#p07c70c1304)" style="fill: #e8edf4; stroke: #b8c5d4; stroke-width: 0.45"/>
    <path d="M 90.305265 61.01651 
L 95.653031 59.803747 
L 90.718263 53.642262 
L 91.16884 52.989279 
L 94.382783 53.245635 
L 97.187822 49.995973 
L 105.34137 49.17314 
L 106.377958 47.431851 
L 112.593021 55.926774 
L 114.375238 60.593838 
L 114.431792 68.888588 
L 111.717911 72.846113 
L 105.198123 74.229285 
L 99.44294 77.215149 
L 92.957382 77.83167 
L 92.152222 73.911165 
L 93.486466 68.511308 
z
" clip-path="url(#p07c70c1304)" style="fill: #e8edf4; stroke: #b8c5d4; stroke-width: 0.45"/>
    <path d="M -185.930897 -29.499825 
L -178.339919 -30.747749 
L -164.601594 -36.949045 
L -153.650077 -40.335629 
L -147.389688 -38.126088 
L -139.877522 -38.019864 
L -135.065165 -34.65672 
L -127.879056 -34.397712 
L -117.469728 -32.58756 
L -110.471317 -37.601284 
L -113.394674 -41.839165 
L -105.937268 -49.301035 
L -97.871528 -46.324845 
L -82.870488 -43.631352 
L -81.497592 -38.236032 
L -71.268873 -35.207756 
L -55.356542 -37.483338 
L -48.14061 -36.534931 
L -41.089134 -33.074677 
L -36.718796 -29.394344 
L -30.042366 -29.469316 
L -20.973524 -28.296922 
L -14.355137 -30.081371 
L -4.876274 -31.273671 
L 5.669687 -36.34778 
L 9.987191 -35.569781 
L 13.757007 -33.157277 
L 22.347366 -33.757426 
L 13.754031 -21.134755 
L 15.608429 -18.19112 
L 19.684459 -19.104553 
L 26.787654 -17.983505 
L 32.321827 -20.640459 
L 38.099335 -18.338832 
L 44.624332 -13.306023 
L 43.835543 -10.747296 
L 38.155146 -11.558967 
L 27.696249 -10.603677 
L 22.628652 -8.555057 
L 17.352695 -3.796092 
L 6.374388 -1.006681 
L -0.799872 2.815969 
L -12.252196 0.705029 
L -16.031686 5.34642 
L -13.732292 8.113134 
L -12.566968 10.489548 
L -17.606288 12.910795 
L -22.772856 16.767118 
L -31.18611 19.299987 
L -41.977637 19.573086 
L -53.608927 22.072841 
L -61.992044 25.938651 
L -65.17957 23.699904 
L -73.891596 23.706229 
L -84.542109 19.332915 
L -91.649768 18.260608 
L -101.226114 19.262221 
L -116.087346 17.647994 
L -124.02435 17.815426 
L -128.250325 13.539966 
L -131.530497 6.902418 
L -135.979714 6.103211 
L -144.678718 1.616601 
L -162.932115 -0.619728 
L -165.522469 -3.741956 
L -162.750173 -12.154652 
L -167.718055 -17.953554 
L -177.989056 -20.657388 
L -184.040408 -24.476132 
z
" clip-path="url(#p07c70c1304)" style="fill: #e8edf4; stroke: #b8c5d4; stroke-width: 0.45"/>
    <path d="M 331.668021 394.847854 
L 332.121202 391.989238 
L 336.873284 393.122192 
L 339.217327 394.63317 
L 340.396046 396.525147 
L 337.590636 396.685509 
L 333.176022 395.956996 
z
" clip-path="url(#p07c70c1304)" style="fill: #e8edf4; stroke: #b8c5d4; stroke-width: 0.45"/>
    <path d="M 338.43598 385.344062 
L 340.884202 385.344062 
L 343.476044 391.104083 
L 346.355868 394.559872 
L 345.271656 395.887047 
L 339.935423 389.646311 
z
" clip-path="url(#p07c70c1304)" style="fill: #e8edf4; stroke: #b8c5d4; stroke-width: 0.45"/>
    <path d="M 321.380277 378.87748 
L 322.451839 378.14413 
L 331.668021 383.184194 
L 333.360197 385.468706 
L 333.665294 386.915687 
L 328.022476 383.862106 
z
" clip-path="url(#p07c70c1304)" style="fill: #e8edf4; stroke: #b8c5d4; stroke-width: 0.45"/>
    <path d="M 308.997777 374.154792 
L 309.368359 372.955237 
L 316.536665 378.344303 
L 315.103823 378.754325 
L 311.954619 377.113495 
z
" clip-path="url(#p07c70c1304)" style="fill: #e8edf4; stroke: #b8c5d4; stroke-width: 0.45"/>
    <path d="M 343.762538 398.914211 
L 349.516978 400.915577 
L 351.53025 403.389844 
L 346.500232 403.34408 
z
" clip-path="url(#p07c70c1304)" style="fill: #e8edf4; stroke: #b8c5d4; stroke-width: 0.45"/>
    <path d="M -1.699538 513.479125 
L 1.464176 516.592981 
L -0.965071 509.913203 
L 2.605688 512.000889 
L 4.736534 514.788812 
L 4.616356 511.101223 
L -1.306632 501.010304 
L -0.525284 496.845721 
L 0.950347 495.07355 
L 1.932613 491.47191 
L 1.163171 487.263423 
L 4.138245 482.082343 
L 4.682212 487.565916 
L 7.723887 482.612544 
L 13.573204 480.205249 
L 17.081083 477.134552 
L 22.583631 474.492109 
L 25.857478 473.929911 
L 27.839124 474.817671 
L 33.512824 472.1343 
L 37.879814 471.335837 
L 38.972212 469.758258 
L 40.877956 469.101182 
L 44.85762 469.270846 
L 52.424786 467.162696 
L 56.338966 463.96624 
L 58.176993 460.118289 
L 62.399991 456.46307 
L 62.91196 449.675763 
L 67.950536 443.557439 
L 70.983281 449.773618 
L 74.047281 448.337054 
L 71.483344 444.934843 
L 73.742927 441.441475 
L 76.919663 443.001194 
L 77.794029 437.522831 
L 81.7283 433.980721 
L 83.46438 431.138848 
L 87.084624 429.912505 
L 87.197734 427.90072 
L 90.361075 428.740855 
L 90.488323 426.931105 
L 97.134243 424.929367 
L 102.453361 428.233723 
L 106.449768 432.498021 
L 115.534609 433.222442 
L 114.00912 429.268823 
L 117.458212 423.494664 
L 120.704154 421.613104 
L 119.581245 419.814144 
L 122.708124 415.702023 
L 127.06916 413.162271 
L 130.752656 414.017661 
L 136.802148 412.661092 
L 136.671923 408.981689 
L 131.397826 406.611229 
L 135.232011 405.56534 
L 140.000836 407.350161 
L 143.826091 410.302911 
L 149.890093 412.145031 
L 151.946154 411.416517 
L 156.409137 413.629964 
L 160.615392 411.568322 
L 163.320343 412.19526 
L 165.005822 410.811903 
L 168.311666 414.374104 
L 166.3929 418.228008 
L 163.658927 421.136854 
L 161.184659 421.376467 
L 162.018841 424.254803 
L 157.346382 431.391112 
L 157.861327 433.423732 
L 163.585257 437.401908 
L 169.130593 439.709488 
L 178.043165 446.454751 
L 180.073181 446.447681 
L 183.841509 448.29129 
L 184.93614 450.515526 
L 191.809767 452.957796 
L 196.563337 450.497295 
L 199.433488 443.439865 
L 202.515718 433.763432 
L 201.516337 430.281598 
L 202.035747 428.186842 
L 201.203054 424.066164 
L 202.146624 418.641751 
L 203.527377 417.179142 
L 202.406329 414.774824 
L 205.513116 407.001903 
L 205.694687 404.947703 
L 208.369872 402.250937 
L 210.400632 405.772955 
L 210.900695 410.289888 
L 212.694818 411.160533 
L 213.002148 414.18472 
L 215.61929 417.847381 
L 216.159536 421.923039 
L 215.90504 424.538321 
L 218.499115 430.187837 
L 223.11874 427.472467 
L 225.503338 430.520095 
L 228.958011 433.331831 
L 228.218335 436.523078 
L 229.753869 442.696841 
L 230.84664 446.291412 
L 232.660111 447.16987 
L 234.614224 453.323913 
L 233.918452 457.056522 
L 236.249845 461.939573 
L 244.051787 465.701204 
L 253.968577 472.256711 
L 253.025751 474.000976 
L 257.143825 478.515677 
L 259.944027 486.306086 
L 262.817154 484.724043 
L 265.737161 487.844224 
L 267.49631 486.737315 
L 268.736792 494.368105 
L 277.189486 501.536784 
L 282.817421 507.366009 
L 284.840367 513.152447 
L 284.528945 521.714157 
L 287.960177 527.832481 
L 287.547179 534.204557 
L 284.358536 543.961729 
L 284.505132 548.090221 
L 283.079359 553.251209 
L 279.900018 559.800018 
L 274.565646 563.337663 
L 271.936597 568.915369 
L 269.535999 572.474593 
L 267.401804 578.688912 
L 264.623183 582.27753 
L 262.801527 587.66548 
L 261.872095 592.625177 
L 262.240445 594.901876 
L 258.111952 597.403304 
L 250.053282 597.665242 
L 243.408478 600.618364 
L 235.749038 606.497447 
L 229.785495 603.31513 
L 225.37423 602.045626 
L 226.491929 598.292552 
L 222.556913 599.65433 
L 216.25181 604.868151 
L 194.857767 599.179196 
L 190.203539 594.741141 
L 188.867435 589.27394 
L 187.193863 585.636209 
L 183.656218 582.715829 
L 176.729385 581.848533 
L 179.096124 578.356281 
L 177.354463 573.010003 
L 173.838027 577.99314 
L 167.43172 579.31585 
L 171.197072 575.332838 
L 172.287982 571.177928 
L 175.068835 567.651446 
L 174.494359 562.32005 
L 168.637228 568.459955 
L 164.138898 570.922316 
L 161.381113 576.64885 
L 155.75913 573.686426 
L 155.982372 569.865264 
L 151.476601 564.644002 
L 147.678507 561.94612 
L 149.032099 560.284082 
L 139.793593 555.920813 
L 134.734181 555.715058 
L 127.80958 552.209784 
L 114.917716 552.891045 
L 97.400646 557.872322 
L 90.53074 557.394956 
L 82.898089 561.087009 
L 76.655865 562.748303 
L 75.268415 566.523701 
L 72.609601 569.44929 
L 61.978064 570.264496 
L 55.614173 568.95146 
L 45.494605 570.067671 
L 41.212075 573.907436 
L 39.112855 573.581875 
L 32.039798 577.906076 
L 21.960785 577.620698 
L 14.323298 573.022281 
L 10.453023 571.654923 
L 10.610036 567.528663 
L 14.184888 566.548258 
L 15.405651 564.908916 
L 15.151527 562.322655 
L 16.031845 557.316449 
L 15.225197 553.049547 
L 11.418545 545.771479 
L 10.23871 541.661218 
L 10.548273 537.559887 
L 7.682215 532.873662 
L 7.498784 530.75807 
L 4.30977 527.890152 
L 3.411964 522.25031 
L -0.702017 516.550565 
z
" clip-path="url(#p07c70c1304)" style="fill: #e8edf4; stroke: #b8c5d4; stroke-width: 0.45"/>
    <path d="M 224.230114 621.810373 
L 224.415032 618.508621 
L 229.125443 619.146349 
L 236.081669 621.631407 
L 245.622668 619.259459 
L 249.941288 619.74315 
L 250.451025 628.289605 
L 247.984571 630.77057 
L 247.241174 636.562961 
L 244.724863 634.59136 
L 239.72647 639.6091 
L 233.80832 638.998161 
L 229.369893 632.835188 
L 228.384651 628.08199 
z
" clip-path="url(#p07c70c1304)" style="fill: #e8edf4; stroke: #b8c5d4; stroke-width: 0.45"/>
    <path d="M -287.277269 41.535094 
L -285.227906 39.887939 
L -286.219845 38.203391 
L -279.346591 34.801738 
L -274.371638 33.39308 
L -266.75015 34.358788 
L -264.027712 29.761301 
L -254.792182 28.905726 
L -252.225641 26.047854 
L -240.880101 22.147627 
L -239.86807 20.520005 
L -240.442919 16.415511 
L -235.503313 14.541393 
L -241.984034 2.033878 
L -227.721091 -0.842598 
L -224.035734 -2.445477 
L -218.840516 -15.336225 
L -204.557109 -12.966881 
L -200.552516 -16.22138 
L -200.208723 -23.441405 
L -194.228809 -24.114108 
L -188.748214 -28.907862 
L -185.930897 -29.499825 
L -184.040408 -24.476132 
L -177.989056 -20.657388 
L -167.718055 -17.953554 
L -162.750173 -12.154652 
L -165.522469 -3.741956 
L -162.932115 -0.619728 
L -144.678718 1.616601 
L -135.979714 6.103211 
L -131.530497 6.902418 
L -128.250325 13.539966 
L -124.02435 17.815426 
L -116.087346 17.647994 
L -101.226114 19.262221 
L -91.649768 18.260608 
L -84.542109 19.332915 
L -73.891596 23.706229 
L -65.17957 23.699904 
L -61.992044 25.938651 
L -53.608927 22.072841 
L -41.977637 19.573086 
L -31.18611 19.299987 
L -22.772856 16.767118 
L -17.606288 12.910795 
L -12.566968 10.489548 
L -13.732292 8.113134 
L -16.031686 5.34642 
L -12.252196 0.705029 
L -0.799872 2.815969 
L 6.374388 -1.006681 
L 17.352695 -3.796092 
L 22.628652 -8.555057 
L 27.696249 -10.603677 
L 38.155146 -11.558967 
L 43.835543 -10.747296 
L 44.624332 -13.306023 
L 38.099335 -18.338832 
L 32.321827 -20.640459 
L 26.787654 -17.983505 
L 19.684459 -19.104553 
L 15.608429 -18.19112 
L 13.754031 -21.134755 
L 22.347366 -33.757426 
L 30.99056 -31.03908 
L 41.136917 -35.588756 
L 41.071608 -38.757024 
L 47.570976 -46.39356 
L 51.57504 -48.701592 
L 51.485681 -52.676829 
L 47.535038 -54.387981 
L 53.48221 -57.970088 
L 62.429385 -59.268427 
L 71.974584 -59.46336 
L 82.751121 -57.319523 
L 89.073712 -54.66815 
L 98.729681 -39.88654 
L 101.39328 -32.833944 
L 113.924288 -30.532321 
L 122.452512 -25.413749 
L 125.368272 -18.648936 
L 136.308168 -18.640512 
L 142.54989 -21.48078 
L 154.449443 -23.603255 
L 150.665832 -17.12484 
L 147.86892 -14.489856 
L 145.401437 -6.601874 
L 140.559264 0.402552 
L 131.82087 -0.872364 
L 125.641368 1.670688 
L 127.537597 7.837058 
L 126.501753 16.344074 
L 122.823838 16.538295 
L 122.867998 20.195825 
L 118.218724 15.945215 
L 115.356015 19.980131 
L 104.235949 23.081151 
L 105.360718 26.879245 
L 99.135238 26.617307 
L 95.7174 24.360701 
L 90.770725 29.46718 
L 82.835581 33.337269 
L 76.972497 37.954848 
L 66.906507 40.047929 
L 61.605993 43.412747 
L 53.852792 45.378209 
L 57.679163 42.041854 
L 56.172651 39.238118 
L 61.873884 34.398414 
L 58.070581 30.625993 
L 51.794127 33.167605 
L 43.665135 38.173997 
L 39.228941 42.823202 
L 32.16779 43.169227 
L 28.495456 46.529022 
L 32.289829 51.397376 
L 38.182679 52.579258 
L 38.423781 55.81106 
L 44.120177 57.914002 
L 52.188894 52.77292 
L 58.581062 55.575912 
L 63.23715 55.767714 
L 64.403962 59.539577 
L 54.20998 61.550431 
L 50.846464 65.437635 
L 43.844845 69.049508 
L 40.148698 74.089014 
L 47.898179 78.04561 
L 50.726657 85.127596 
L 55.108902 91.725705 
L 59.99865 97.256344 
L 59.88182 102.604669 
L 55.362654 104.570875 
L 57.085339 108.411012 
L 61.32322 110.645853 
L 60.216683 116.510239 
L 58.387957 122.216309 
L 54.364761 122.863154 
L 43.275577 140.10638 
L 36.589474 148.698786 
L 16.673294 161.403313 
L 8.559557 162.229867 
L 4.158337 165.428927 
L 1.668815 163.091954 
L -2.404239 166.670154 
L -12.466136 170.276446 
L -20.084648 171.380564 
L -22.542917 178.984565 
L -26.532999 179.406307 
L -28.420884 174.180765 
L -26.715685 171.395633 
L -36.375747 169.090471 
L -39.778702 170.262865 
L -47.027376 168.394328 
L -50.455632 165.468925 
L -49.317096 161.321271 
L -55.89902 160.006375 
L -59.369692 157.305144 
L -65.50662 161.142119 
L -72.507495 161.972952 
L -78.249656 161.936675 
L -85.845471 164.748969 
L -84.757538 172.984559 
L -88.595815 172.788106 
L -89.459762 168.120112 
L -94.740928 170.216356 
L -103.205528 166.188137 
L -101.109656 160.206921 
L -105.669006 158.812401 
L -107.38611 152.184341 
L -114.986018 153.378686 
L -114.122815 144.837812 
L -107.302766 138.825342 
L -107.224632 127.376552 
L -110.367137 125.660006 
L -112.773688 121.421195 
L -116.98478 121.956604 
L -124.748399 120.880577 
L -122.316548 117.856947 
L -125.692714 113.379825 
L -130.825424 116.41164 
L -136.864869 114.642446 
L -145.163897 119.227468 
L -151.717544 124.58249 
L -157.524073 125.483459 
L -160.676253 123.547577 
L -164.4803 123.372332 
L -169.626032 121.705643 
L -173.514167 123.532136 
L -178.277411 128.884925 
L -178.881653 123.214574 
L -183.272827 124.7289 
L -191.667477 124.025315 
L -199.812096 122.374253 
L -205.656205 119.212028 
L -211.251026 117.792765 
L -213.667251 114.334372 
L -217.712771 113.301133 
L -224.981909 108.61007 
L -230.754208 106.396438 
L -233.738956 108.118937 
L -243.746159 103.084454 
L -250.81996 98.525476 
L -252.839185 90.589217 
L -247.671873 91.556785 
L -247.43598 87.880359 
L -250.300177 84.195374 
L -249.571664 78.322058 
L -257.310354 69.883132 
L -269.151492 66.971495 
L -271.282339 61.438996 
L -276.6022 58.082177 
L -277.883982 56.016071 
L -278.964102 51.911949 
L -278.713327 49.112306 
L -283.085897 47.473151 
L -285.452264 48.19813 
z
" clip-path="url(#p07c70c1304)" style="fill: #e8edf4; stroke: #b8c5d4; stroke-width: 0.45"/>
    <path d="M -35.631234 185.991207 
L -32.0828 182.728523 
L -24.216489 180.710971 
L -20.076835 180.881752 
L -18.467631 183.629305 
L -21.631344 186.79767 
L -23.297847 190.955555 
L -29.518491 194.416553 
L -35.422503 192.18469 
z
" clip-path="url(#p07c70c1304)" style="fill: #e8edf4; stroke: #b8c5d4; stroke-width: 0.45"/>
    <path d="M 47.024558 155.834908 
L 51.261695 148.763154 
L 57.02432 143.312696 
L 60.308956 145.457309 
L 54.724553 161.345828 
L 51.638974 167.251886 
L 47.844601 161.173001 
z
" clip-path="url(#p07c70c1304)" style="fill: #e8edf4; stroke: #b8c5d4; stroke-width: 0.45"/>
    <path d="M 45.423167 207.621329 
L 48.322711 209.990673 
L 49.06834 198.726616 
L 51.414243 192.202363 
L 55.773419 192.210735 
L 60.21073 194.266423 
L 62.431245 192.391561 
L 63.086089 194.220844 
L 61.914812 197.205965 
L 64.372708 202.366766 
L 62.476638 208.350401 
L 58.23206 210.736674 
L 57.096501 216.541342 
L 58.707566 222.27569 
L 62.524263 223.068944 
L 65.709185 222.216903 
L 74.702124 226.208659 
L 74.016771 230.128048 
L 76.365279 231.857803 
L 75.617417 235.175926 
L 70.005853 231.641816 
L 67.346294 227.858977 
L 65.493756 230.501979 
L 60.909478 226.19173 
L 54.36997 227.255851 
L 50.786189 225.664879 
L 51.151562 222.688688 
L 53.401099 220.857172 
L 51.252021 219.191971 
L 50.321845 221.78679 
L 46.767085 217.64974 
L 45.690686 214.514303 
z
" clip-path="url(#p07c70c1304)" style="fill: #e8edf4; stroke: #b8c5d4; stroke-width: 0.45"/>
    <path d="M 60.083482 273.65674 
L 62.908984 267.588273 
L 67.445265 265.563094 
L 71.371351 262.85033 
L 73.916312 266.109666 
L 79.390582 264.138065 
L 80.565208 260.925052 
L 85.654014 260.733622 
L 85.227249 255.16559 
L 91.063544 258.580265 
L 93.329452 273.67646 
L 90.876765 280.265081 
L 88.246228 272.92525 
L 84.879736 276.577306 
L 87.178758 281.88247 
L 85.114884 285.256776 
L 76.642471 281.07824 
L 74.618781 275.867024 
L 76.814367 272.443605 
L 72.25353 269.038603 
L 69.991714 272.024095 
L 66.603642 271.746903 
L 61.275595 275.764146 
z
" clip-path="url(#p07c70c1304)" style="fill: #e8edf4; stroke: #b8c5d4; stroke-width: 0.45"/>
    <path d="M 76.980683 235.024121 
L 83.895238 235.182809 
L 85.878372 237.868599 
L 87.900947 245.907922 
L 82.345565 243.997527 
L 82.495881 246.414124 
L 84.257634 250.857201 
L 80.833099 252.470312 
L 80.53321 247.406435 
L 78.365529 247.032505 
L 77.238156 242.673329 
L 81.475292 243.247805 
L 81.381531 240.521832 
z
" clip-path="url(#p07c70c1304)" style="fill: #e8edf4; stroke: #b8c5d4; stroke-width: 0.45"/>
    <path d="M 63.396396 255.503801 
L 66.686986 251.55967 
L 67.481356 247.090548 
L 71.451718 246.667504 
L 70.291975 251.514836 
L 75.621138 244.564376 
L 74.933552 251.432794 
L 72.346919 253.799347 
L 70.091429 258.348465 
L 67.830358 260.480242 
z
" clip-path="url(#p07c70c1304)" style="fill: #e8edf4; stroke: #b8c5d4; stroke-width: 0.45"/>
    <path d="M 59.821544 239.819363 
L 64.143513 242.048251 
L 68.725559 242.037647 
L 68.586032 245.045277 
L 65.251538 248.102579 
L 60.678794 250.264679 
L 60.425042 246.919023 
L 60.936267 243.245945 
z
" clip-path="url(#p07c70c1304)" style="fill: #e8edf4; stroke: #b8c5d4; stroke-width: 0.45"/>
    <path d="M 25.914777 265.194001 
L 29.444236 260.158401 
L 34.645779 255.711603 
L 38.968864 250.730697 
L 42.742773 243.57839 
L 44.025671 249.449101 
L 39.272101 253.413696 
L 35.492983 258.362046 
z
" clip-path="url(#p07c70c1304)" style="fill: #e8edf4; stroke: #b8c5d4; stroke-width: 0.45"/>
    <path d="M 48.588741 228.481823 
L 54.756923 228.746179 
L 57.257236 231.338951 
L 55.347771 237.559967 
z
" clip-path="url(#p07c70c1304)" style="fill: #e8edf4; stroke: #b8c5d4; stroke-width: 0.45"/>
    <path d="M -28.164527 310.993438 
L -22.887826 313.460822 
L -17.324259 312.115416 
L -15.875417 306.019416 
L -12.802116 304.661545 
L -4.171573 303.102757 
L 4.528919 292.853708 
L 7.809091 296.585015 
L 9.320813 294.132141 
L 12.761719 294.36022 
L 13.505115 286.216345 
L 19.049335 281.209023 
L 22.680741 275.581646 
L 25.593308 275.558019 
L 29.292431 279.200402 
L 29.621341 282.330071 
L 40.369708 286.503584 
L 39.856995 289.323877 
L 35.026034 289.681064 
L 36.311909 293.196943 
L 31.010652 295.64963 
L 24.769544 294.436123 
L 16.491724 294.432774 
L 13.997365 302.621484 
L 11.225069 305.125331 
L 7.533759 315.139045 
L 1.662117 316.673649 
L -5.149374 314.655912 
L -8.602186 315.287129 
L -12.797651 318.928023 
L -17.394208 318.409357 
L -22.038761 319.873454 
L -26.962368 315.805423 
z
" clip-path="url(#p07c70c1304)" style="fill: #e8edf4; stroke: #b8c5d4; stroke-width: 0.45"/>
    <path d="M -97.122551 278.895676 
L -95.870906 277.611661 
L -89.996288 280.764957 
L -89.429625 284.462034 
L -84.677171 283.602179 
L -82.323454 280.64422 
L -80.667741 281.316924 
L -76.415721 285.663635 
L -73.395255 290.483992 
L -72.982257 295.33244 
L -73.748721 298.607775 
L -72.522378 305.344666 
L -69.986346 307.328731 
L -67.154891 313.695784 
L -67.292557 316.130054 
L -72.398106 316.610397 
L -87.727403 305.562141 
L -88.570514 301.8939 
L -92.732865 297.078194 
L -93.726665 291.115581 
L -96.323716 287.190053 
L -95.534927 281.947955 
z
" clip-path="url(#p07c70c1304)" style="fill: #e8edf4; stroke: #b8c5d4; stroke-width: 0.45"/>
    <path d="M 4.528919 292.853708 
L 7.379722 290.159919 
L 13.505115 286.216345 
L 12.761719 294.36022 
L 9.320813 294.132141 
L 7.809091 296.585015 
z
" clip-path="url(#p07c70c1304)" style="fill: #e8edf4; stroke: #b8c5d4; stroke-width: 0.45"/>
    <path d="M 114.000935 85.708398 
L 120.808333 83.490115 
L 124.584847 78.964252 
L 131.826451 75.24206 
L 137.107245 70.31957 
L 151.439766 68.172352 
L 159.138273 69.644634 
L 166.67158 56.844113 
L 171.472404 60.282787 
L 186.130114 50.285072 
L 190.654489 41.480586 
L 189.420331 33.38415 
L 192.461634 28.835963 
L 200.116609 27.514369 
L 204.042695 37.500364 
L 203.829126 43.337775 
L 197.168323 50.587193 
L 197.28999 58.017065 
L 194.578342 63.763319 
L 195.833335 67.371285 
L 192.083611 72.44558 
L 182.8838 75.83328 
L 170.226712 76.274741 
L 159.969478 84.493403 
L 155.131075 81.726688 
L 154.831931 76.344877 
L 142.310277 77.933245 
L 133.78875 81.32448 
L 125.360241 81.462518 
L 132.660261 86.760055 
L 127.856089 98.997447 
L 123.20149 102.02703 
L 119.717423 99.228689 
L 121.483269 92.739783 
L 116.92578 90.645771 
z
" clip-path="url(#p07c70c1304)" style="fill: #e8edf4; stroke: #b8c5d4; stroke-width: 0.45"/>
    <path d="M 188.946314 18.980936 
L 192.507027 13.440437 
L 200.199952 13.040462 
L 202.298057 3.080697 
L 204.427043 -2.530681 
L 212.888666 4.96542 
L 223.476671 8.921643 
L 228.569942 5.869923 
L 230.170588 13.952964 
L 219.489566 15.923821 
L 213.183718 23.074454 
L 201.862735 18.152708 
L 197.944462 26.030925 
L 189.936765 26.139197 
z
" clip-path="url(#p07c70c1304)" style="fill: #e8edf4; stroke: #b8c5d4; stroke-width: 0.45"/>
    <path d="M 135.274427 87.916449 
L 135.33247 84.501774 
L 139.315483 80.20585 
L 143.409372 81.03873 
L 146.369564 78.012496 
L 151.656683 79.565517 
L 152.577929 82.03439 
L 148.524595 86.391519 
L 145.56924 84.081707 
L 141.877931 85.755093 
L 139.966978 89.967115 
z
" clip-path="url(#p07c70c1304)" style="fill: #e8edf4; stroke: #b8c5d4; stroke-width: 0.45"/>
   </g>
   <g id="PathCollection_1">
    <defs>
     <path id="m94f16e8a4e" d="M 0 2.12132 
C 0.562581 2.12132 1.102195 1.897805 1.5 1.5 
C 1.897805 1.102195 2.12132 0.562581 2.12132 0 
C 2.12132 -0.562581 1.897805 -1.102195 1.5 -1.5 
C 1.102195 -1.897805 0.562581 -2.12132 0 -2.12132 
C -0.562581 -2.12132 -1.102195 -1.897805 -1.5 -1.5 
C -1.897805 -1.102195 -2.12132 -0.562581 -2.12132 0 
C -2.12132 0.562581 -1.897805 1.102195 -1.5 1.5 
C -1.102195 1.897805 -0.562581 2.12132 0 2.12132 
z
" style="stroke: #ffffff; stroke-width: 0.5"/>
    </defs>
    <g clip-path="url(#p07c70c1304)">
     <use xlink:href="#m94f16e8a4e" x="7.86" y="293.04" style="fill: #8aa0b7; stroke: #ffffff; stroke-width: 0.5"/>
     <use xlink:href="#m94f16e8a4e" x="321.66" y="275.64" style="fill: #8aa0b7; stroke: #ffffff; stroke-width: 0.5"/>
     <use xlink:href="#m94f16e8a4e" x="224.7" y="228.48" style="fill: #8aa0b7; stroke: #ffffff; stroke-width: 0.5"/>
     <use xlink:href="#m94f16e8a4e" x="4.26" y="165.24" style="fill: #8aa0b7; stroke: #ffffff; stroke-width: 0.5"/>
     <use xlink:href="#m94f16e8a4e" x="427.86" y="315.24" style="fill: #8aa0b7; stroke: #ffffff; stroke-width: 0.5"/>
     <use xlink:href="#m94f16e8a4e" x="391.86" y="260.64" style="fill: #8aa0b7; stroke: #ffffff; stroke-width: 0.5"/>
     <use xlink:href="#m94f16e8a4e" x="231.66" y="216" style="fill: #8aa0b7; stroke: #ffffff; stroke-width: 0.5"/>
     <use xlink:href="#m94f16e8a4e" x="384.06" y="329.28" style="fill: #8aa0b7; stroke: #ffffff; stroke-width: 0.5"/>
     <use xlink:href="#m94f16e8a4e" x="150.66" y="271.44" style="fill: #8aa0b7; stroke: #ffffff; stroke-width: 0.5"/>
     <use xlink:href="#m94f16e8a4e" x="88.86" y="389.04" style="fill: #8aa0b7; stroke: #ffffff; stroke-width: 0.5"/>
     <use xlink:href="#m94f16e8a4e" x="53.46" y="156.24" style="fill: #8aa0b7; stroke: #ffffff; stroke-width: 0.5"/>
     <use xlink:href="#m94f16e8a4e" x="381.78" y="186.60024" style="fill: #8aa0b7; stroke: #ffffff; stroke-width: 0.5"/>
    </g>
   </g>
   <g id="PathCollection_2">
    <defs>
     <path id="m5701daafe7" d="M 0 3.674235 
C 0.974418 3.674235 1.909058 3.287094 2.598076 2.598076 
C 3.287094 1.909058 3.674235 0.974418 3.674235 0 
C 3.674235 -0.974418 3.287094 -1.909058 2.598076 -2.598076 
C 1.909058 -3.287094 0.974418 -3.674235 0 -3.674235 
C -0.974418 -3.674235 -1.909058 -3.287094 -2.598076 -2.598076 
C -3.287094 -1.909058 -3.674235 -0.974418 -3.674235 0 
C -3.674235 0.974418 -3.287094 1.909058 -2.598076 2.598076 
C -1.909058 3.287094 -0.974418 3.674235 0 3.674235 
z
" style="stroke: #ffffff; stroke-width: 1.2"/>
    </defs>
    <g clip-path="url(#p07c70c1304)">
     <use xlink:href="#m5701daafe7" x="231.66" y="216" style="fill: #f97316; stroke: #ffffff; stroke-width: 1.2"/>
    </g>
   </g>
   <g id="PathCollection_3">
    <path d="M 231.66 220.929503 
C 232.967319 220.929503 234.221271 220.410099 235.145685 219.485685 
C 236.070099 218.561271 236.589503 217.307319 236.589503 216 
C 236.589503 214.692681 236.070099 213.438729 235.145685 212.514315 
C 234.221271 211.589901 232.967319 211.070497 231.66 211.070497 
C 230.352681 211.070497 229.098729 211.589901 228.174315 212.514315 
C 227.249901 213.438729 226.730497 214.692681 226.730497 216 
C 226.730497 217.307319 227.249901 218.561271 228.174315 219.485685 
C 229.098729 220.410099 230.352681 220.929503 231.66 220.929503 
L 231.66 220.929503 
z
" clip-path="url(#p07c70c1304)" style="fill: none; stroke: #7c2d12; stroke-width: 1.1"/>
   </g>
  </g>
 </g>
 <defs>
  <clipPath id="p07c70c1304">
   <rect x="0" y="0" width="463.32" height="432"/>
  </clipPath>
 </defs>
</svg>
