<?xml version="1.0" encoding="utf-8" standalone="no"?>
<!DOCTYPE svg PUBLIC "-//W3C//DTD SVG 1.1//EN"
  "http://www.w3.org/Graphics/SVG/1.1/DTD/svg11.dtd">
<svg xmlns:xlink="http://www.w3.org/1999/xlink" width="367.733626pt" height="432pt" viewBox="0 0 367.733626 432" xmlns="http://www.w3.org/2000/svg" version="1.1">
 <metadata>
  <rdf:RDF xmlns:dc="http://purl.org/dc/elements/1.1/" xmlns:cc="http://creativecommons.org/ns#" xmlns:rdf="http://www.w3.org/1999/02/22-rdf-syntax-ns#">
   <cc:Work>
    <dc:type rdf:resource="http://purl.org/dc/dcmitype/StillImage"/>
    <dc:date>2026-06-09T04:57:19.654248</dc:date>
    <dc:format>image/svg+xml</dc:format>
    <dc:creator>
     <cc:Agent>
      <dc:title>Matplotlib v3.10.8, https://matplotlib.org/</dc:title>
     </cc:Agent>
    </dc:creator>
   </cc:Work>
  </rdf:RDF>
 </metadata>
 <defs>
  <style type="text/css">*{stroke-linejoin: round; stroke-linecap: butt}</style>
 </defs>
 <g id="figure_1">
  <g id="patch_1">
   <path d="M 0 432 
L 367.733626 432 
L 367.733626 0 
L 0 0 
z
" style="fill: #eaf3ff"/>
  </g>
  <g id="axes_1">
   <g id="PatchCollection_1">
    <path d="M 271.177142 380.656708 
L 274.668836 380.254827 
L 283.102033 371.024929 
L 283.024096 368.280648 
L 281.205693 366.366491 
L 280.716029 363.041351 
L 283.153279 361.97252 
L 283.641558 357.004644 
L 280.28906 352.240108 
L 283.250815 351.225914 
L 309.71287 350.680857 
L 341.757447 368.809914 
L 342.333408 373.708498 
L 354.453165 382.149483 
L 350.554766 392.553938 
L 351.054901 397.339204 
L 356.460965 400.415669 
L 356.714284 402.611094 
L 354.389582 407.71039 
L 354.873758 410.276588 
L 354.320595 414.310259 
L 360.763998 427.929406 
L 363.862839 429.776096 
L 357.144924 434.671724 
L 347.911953 437.950695 
L 342.846293 437.81211 
L 339.837294 440.345039 
L 333.959138 440.562703 
L 331.754684 441.630021 
L 321.607737 439.25059 
L 315.254441 439.933482 
L 312.89023 428.449553 
L 308.328138 422.176972 
L 300.050166 420.601746 
L 295.258141 418.066537 
L 286.526147 415.231229 
L 282.998762 413.081631 
L 278.438924 402.442054 
L 273.541737 397.713736 
L 271.852616 392.816113 
L 272.696958 388.425095 
z
" clip-path="url(#pdea2fcf4ed)" style="fill: #e8edf4; stroke: #b8c5d4; stroke-width: 0.45"/>
    <path d="M 126.298869 391.548945 
L 128.446597 390.65704 
L 128.711027 386.975968 
L 130.092519 384.805113 
L 133.165315 383.030466 
L 135.383733 383.890518 
L 138.271515 380.658017 
L 142.871109 380.74136 
L 143.412187 383.1317 
L 146.566581 384.627518 
L 158.588099 372.509566 
L 158.305342 365.562394 
L 161.972451 357.359398 
L 165.84159 353.009834 
L 171.401161 348.939972 
L 172.371609 346.246367 
L 172.581931 343.149571 
L 173.958188 340.219463 
L 173.516162 335.433982 
L 174.568645 327.951187 
L 176.218931 322.683101 
L 178.748032 318.167941 
L 180.007782 307.179488 
L 183.295264 302.892322 
L 187.816751 300.17319 
L 194.765232 303.042864 
L 200.143279 306.157768 
L 212.619477 308.637124 
L 215.144214 303.537906 
L 216.304039 302.887086 
L 220.152234 303.735137 
L 229.553018 299.520843 
L 232.884134 301.307053 
L 235.618321 301.05375 
L 236.884616 299.000492 
L 240.022865 298.277019 
L 251.790426 299.359829 
L 254.578284 298.463996 
L 259.69321 305.434731 
L 263.484679 306.458633 
L 265.744987 305.040705 
L 269.649471 305.5964 
L 274.352044 303.81019 
L 276.357522 307.416646 
L 283.791227 313.027924 
L 283.280258 322.901277 
L 286.66461 324.044739 
L 283.950059 327.042919 
L 280.706213 329.285554 
L 277.477639 333.689008 
L 275.701247 337.614873 
L 275.226059 344.39274 
L 273.26989 347.619133 
L 273.1992 353.985083 
L 270.770897 356.338769 
L 270.458033 361.363371 
L 269.298207 362.014409 
L 268.516699 366.63364 
L 270.639992 370.472671 
L 271.177142 380.656708 
L 272.696958 388.425095 
L 271.852616 392.816113 
L 273.541737 397.713736 
L 278.438924 402.442054 
L 282.99881 413.081643 
L 279.672493 412.222465 
L 268.330813 413.647593 
L 266.067451 414.656877 
L 263.660966 420.047142 
L 265.55081 423.770976 
L 263.005564 442.24397 
L 271.190232 447.032505 
L 273.507702 445.496979 
L 274.213721 454.602352 
L 267.751336 454.532536 
L 261.17201 446.287214 
L 254.701335 445.107316 
L 252.806691 440.6827 
L 247.644639 443.348378 
L 240.882916 442.170662 
L 238.061023 438.336867 
L 232.699557 437.557978 
L 228.742274 437.761754 
L 228.257923 435.137093 
L 221.499691 434.42671 
L 210.509711 436.258519 
L 210.961336 426.210188 
L 208.144679 423.076739 
L 207.525059 417.883705 
L 208.7691 412.793651 
L 207.057725 409.535841 
L 206.90282 404.22281 
L 196.657257 404.296554 
L 197.392512 401.254302 
L 193.084401 401.286156 
L 192.629285 402.749247 
L 187.392179 403.079129 
L 184.008264 410.11139 
L 179.342344 408.918838 
L 176.556232 410.10659 
L 170.972662 410.789482 
L 165.798391 403.64377 
L 161.292177 392.288126 
L 136.37469 392.17642 
L 127.481821 394.167934 
z
" clip-path="url(#pdea2fcf4ed)" style="fill: #e8edf4; stroke: #b8c5d4; stroke-width: 0.45"/>
    <path d="M 309.627229 341.731855 
L 316.201099 332.721102 
L 319.273765 326.566313 
L 314.571672 312.635837 
L 310.568146 306.773336 
L 321.486222 296.166775 
L 325.872347 297.583397 
L 325.872347 302.322698 
L 328.757059 305.101612 
L 334.634165 305.101612 
L 345.322689 312.272706 
L 349.968757 312.125232 
L 351.837992 313.099072 
L 357.469039 313.763441 
L 359.964694 310.244598 
L 367.678572 306.713088 
L 371.084182 309.566549 
L 376.853784 309.568053 
L 369.4735 319.146791 
L 369.574406 349.906464 
L 374.574316 356.872377 
L 368.660518 360.244043 
L 366.57554 363.767193 
L 363.410666 364.386133 
L 362.212893 370.33565 
L 359.501291 373.742611 
L 357.853287 379.360956 
L 354.453165 382.149483 
L 342.333408 373.708498 
L 341.757447 368.809914 
L 309.71287 350.680857 
z
" clip-path="url(#pdea2fcf4ed)" style="fill: #e8edf4; stroke: #b8c5d4; stroke-width: 0.45"/>
    <path d="M 208.665063 236.365266 
L 209.516044 233.263975 
L 211.70294 229.744034 
L 210.746326 226.246891 
L 213.522103 223.657134 
L 211.761456 221.684292 
L 213.994372 216.470412 
L 217.850213 210.252041 
L 225.131424 210.842103 
L 224.819927 173.780295 
L 234.530459 173.754626 
L 234.530459 156.892414 
L 334.728204 156.892414 
L 337.45129 165.177186 
L 335.599449 166.709002 
L 336.826269 175.40187 
L 339.925956 185.482838 
L 347.764466 190.68247 
L 343.491072 195.501996 
L 337.271856 196.89018 
L 334.612522 199.479007 
L 333.779611 205.091611 
L 330.143059 217.498884 
L 331.040566 220.879669 
L 329.69553 228.131157 
L 326.262308 236.448861 
L 321.16943 240.632158 
L 317.548161 247.082484 
L 316.699714 250.534283 
L 312.699819 252.899262 
L 310.201848 261.73593 
L 310.314659 269.327202 
L 310.216818 262.743248 
L 309.047929 262.576264 
L 309.192889 258.372416 
L 308.178167 255.473211 
L 303.829359 252.139124 
L 302.814637 246.050793 
L 303.829359 239.817501 
L 299.915431 239.23766 
L 299.33559 241.122143 
L 294.261981 241.557024 
L 296.291424 244.021349 
L 297.016226 249.094959 
L 292.377497 253.733687 
L 288.173649 259.822019 
L 283.824841 260.691781 
L 276.721787 255.763131 
L 273.532661 257.502655 
L 272.6629 259.966979 
L 268.314091 261.561542 
L 268.024171 263.301066 
L 259.616475 263.301066 
L 258.456793 261.561542 
L 252.368461 261.271622 
L 249.324295 262.721225 
L 247.004931 261.996423 
L 241.20652 254.748409 
L 235.118188 255.908092 
L 232.798824 259.822019 
L 230.62442 267.359953 
L 225.13218 269.874625 
L 230.877348 273.172337 
L 224.446818 269.481229 
L 221.518455 267.049653 
L 220.976068 264.425428 
L 222.347961 260.911479 
L 222.323089 257.466038 
L 217.452956 252.186825 
L 216.597386 246.52814 
L 213.493984 244.039288 
L 213.40051 239.134372 
L 211.630575 235.876615 
z
" clip-path="url(#pdea2fcf4ed)" style="fill: #e8edf4; stroke: #b8c5d4; stroke-width: 0.45"/>
    <path d="M 137.766219 221.343886 
L 141.412114 210.22122 
L 152.182877 202.259126 
L 152.627957 191.276564 
L 155.881403 174.141864 
L 157.718011 170.507264 
L 154.204499 167.612718 
L 154.068652 164.927246 
L 150.909163 162.73124 
L 148.835436 149.605715 
L 157.360016 144.988821 
L 224.715728 177.322782 
L 225.131424 210.842103 
L 217.850213 210.252041 
L 213.994372 216.470412 
L 211.761456 221.684292 
L 213.522103 223.657134 
L 210.746326 226.246891 
L 211.70294 229.744034 
L 209.516044 233.263975 
L 208.665063 236.365266 
L 211.630575 235.876615 
L 213.40051 239.134372 
L 213.493984 244.039288 
L 216.597386 246.52814 
L 216.495598 248.573388 
L 211.150277 250.013133 
L 206.866602 253.431521 
L 200.762027 262.644454 
L 192.814735 266.556357 
L 184.660611 266.031643 
L 182.279434 266.807914 
L 183.115486 269.780349 
L 175.12674 276.028702 
L 164.496315 279.25924 
L 162.386986 277.347142 
L 160.988475 277.1822 
L 159.432005 279.354146 
L 152.450797 279.988821 
L 153.773383 277.70146 
L 149.922133 268.385329 
L 146.244552 266.95191 
L 141.260531 262.023743 
L 143.094958 258.039188 
L 146.943153 258.887457 
L 149.325639 258.286163 
L 154.041739 258.368852 
L 149.445636 250.693407 
L 149.754574 245.084529 
L 149.190588 239.482177 
L 145.833508 234.075131 
L 146.677851 230.097776 
L 141.262713 229.903381 
L 141.281476 224.47188 
z
" clip-path="url(#pdea2fcf4ed)" style="fill: #e8edf4; stroke: #b8c5d4; stroke-width: 0.45"/>
    <path d="M -79.33716 219.235429 
L -76.495413 217.696413 
L -75.075739 212.721992 
L -72.399152 212.527379 
L -66.502717 214.879102 
L -61.7408 213.209398 
L -58.476445 213.769893 
L -57.209713 211.892049 
L -23.32845 211.763761 
L -21.449951 205.851618 
L -22.912824 204.810917 
L -31.063457 131.927137 
L -18.140434 131.775286 
L 38.827162 168.622657 
L 40.834821 172.579285 
L 50.002156 176.3677 
L 50.099026 181.739856 
L 59.465774 180.913186 
L 59.489337 200.359901 
L 54.872289 205.999978 
L 54.153179 211.20283 
L 46.652712 212.541996 
L 35.131254 213.267869 
L 32.00915 216.268667 
L 21.183675 216.63913 
L 19.076091 215.019171 
L 14.427626 216.221105 
L 6.535314 219.723708 
L 4.924299 222.363206 
L -1.627101 226.148348 
L -2.775581 228.317457 
L -6.314402 230.036687 
L -10.397791 228.898243 
L -12.711551 230.958918 
L -13.950793 236.749756 
L -20.653389 243.747981 
L -20.45834 246.608055 
L -22.761191 250.187238 
L -22.202005 255.089225 
L -27.657723 257.40604 
L -28.9646 253.794566 
L -31.402721 254.746688 
L -32.859266 254.581965 
L -34.413337 257.046049 
L -40.934192 256.97645 
L -43.271734 255.708628 
L -44.372433 256.475736 
L -46.951496 254.041542 
L -46.503798 251.527059 
L -47.558899 250.541993 
L -49.357545 251.37259 
L -49.028099 248.625314 
L -47.297088 246.451841 
L -50.757365 242.914547 
L -51.763594 240.585732 
L -53.639911 238.730579 
L -55.329905 238.50913 
L -62.402529 242.648372 
L -66.01662 241.973771 
L -68.360707 239.829751 
L -69.76009 239.548086 
L -73.303275 240.683039 
L -73.791117 237.591262 
L -73.402327 234.960709 
L -74.124272 231.695482 
L -77.284993 229.323905 
L -78.949897 224.488462 
z
" clip-path="url(#pdea2fcf4ed)" style="fill: #e8edf4; stroke: #b8c5d4; stroke-width: 0.45"/>
    <path d="M 29.953493 254.244228 
L 31.027793 249.79823 
L 33.93172 248.842617 
L 35.651823 245.150855 
L 39.779284 244.361929 
L 44.45873 239.363945 
L 47.485709 239.342127 
L 53.92453 244.201351 
L 53.59552 247.006663 
L 55.494528 252.015556 
L 53.830715 255.414744 
L 54.720438 257.68596 
L 48.023296 265.501692 
L 46.431481 270.827814 
L 46.160506 289.810031 
L 39.181917 290.795097 
L 37.10226 284.969788 
L 37.486686 265.577836 
L 35.785783 263.838097 
L 35.465064 259.694055 
z
" clip-path="url(#pdea2fcf4ed)" style="fill: #e8edf4; stroke: #b8c5d4; stroke-width: 0.45"/>
    <path d="M 25.928357 220.692847 
L 26.597504 216.600295 
L 32.00915 216.268667 
L 35.131254 213.267869 
L 46.652712 212.541996 
L 54.153179 211.20283 
L 54.872289 205.999978 
L 59.489337 200.359901 
L 59.465774 180.913186 
L 71.372967 177.14768 
L 95.820939 160.559949 
L 124.755053 144.465733 
L 138.112683 148.106442 
L 142.861946 152.743999 
L 148.835436 149.605715 
L 150.909163 162.73124 
L 154.068652 164.927246 
L 154.204499 167.612718 
L 157.718011 170.507264 
L 155.881403 174.141864 
L 152.627957 191.276564 
L 152.182877 202.259126 
L 141.412114 210.22122 
L 137.766219 221.343886 
L 141.281476 224.47188 
L 141.262713 229.903381 
L 146.677851 230.097776 
L 145.833508 234.075131 
L 143.450149 234.559483 
L 143.178302 237.247852 
L 141.607868 237.434393 
L 135.894265 228.190042 
L 133.912351 227.85405 
L 127.309898 232.57386 
L 120.772025 230.109994 
L 116.227411 229.617352 
L 113.790817 230.802922 
L 108.840832 230.546783 
L 103.859865 234.145166 
L 99.5535 234.351561 
L 89.334119 229.987161 
L 85.332328 232.060054 
L 81.023345 231.916058 
L 77.856733 228.726974 
L 69.392799 225.576071 
L 60.317971 226.576191 
L 58.119189 228.402328 
L 56.931437 233.258497 
L 54.510988 236.66314 
L 53.92453 244.201351 
L 47.485709 239.342127 
L 44.45873 239.363945 
L 41.624183 241.837192 
L 41.815305 236.054209 
L 32.079403 234.139057 
L 31.817155 230.052832 
L 27.062219 224.539079 
z
" clip-path="url(#pdea2fcf4ed)" style="fill: #e8edf4; stroke: #b8c5d4; stroke-width: 0.45"/>
    <path d="M 46.160506 289.810031 
L 46.431481 270.827814 
L 48.023296 265.501692 
L 54.720438 257.68596 
L 53.830715 255.414744 
L 55.494528 252.015556 
L 53.59552 247.006663 
L 54.510988 236.66314 
L 56.931437 233.258497 
L 58.119189 228.402328 
L 60.317971 226.576191 
L 69.392799 225.576071 
L 77.856733 228.726974 
L 81.023345 231.916058 
L 85.332328 232.060054 
L 89.334119 229.987161 
L 99.5535 234.351561 
L 103.859865 234.145166 
L 108.840832 230.546783 
L 113.790817 230.802922 
L 116.227411 229.617352 
L 120.772025 230.109994 
L 127.309898 232.57386 
L 133.912351 227.85405 
L 135.894265 228.190042 
L 141.607868 237.434393 
L 143.178302 237.247852 
L 146.520764 240.611041 
L 145.154543 244.942715 
L 138.041121 251.476661 
L 134.61837 261.254235 
L 132.827142 263.136006 
L 131.123184 269.04684 
L 126.60737 272.525226 
L 125.299184 276.797992 
L 123.402359 280.198925 
L 122.612561 283.708728 
L 116.811687 286.553966 
L 112.071151 283.084089 
L 108.870067 283.224159 
L 103.841102 288.16629 
L 101.396218 288.242215 
L 95.207863 302.364772 
L 86.441537 305.403532 
L 83.236962 304.959543 
L 79.990061 306.851787 
L 73.235757 306.66721 
L 68.715143 301.385378 
L 65.93514 295.273385 
L 59.957107 289.710106 
z
" clip-path="url(#pdea2fcf4ed)" style="fill: #e8edf4; stroke: #b8c5d4; stroke-width: 0.45"/>
    <path d="M 95.110993 304.698386 
L 95.207863 302.364772 
L 97.380027 296.389139 
L 101.396218 288.242215 
L 103.841102 288.16629 
L 108.870067 283.224159 
L 112.071151 283.084089 
L 116.811687 286.553966 
L 122.612561 283.708728 
L 123.402359 280.198925 
L 125.299184 276.797992 
L 126.60737 272.525226 
L 131.123184 269.04684 
L 132.827142 263.136006 
L 134.61837 261.254235 
L 138.041121 251.476661 
L 145.154543 244.942715 
L 146.520764 240.611041 
L 143.178302 237.247852 
L 143.450149 234.559483 
L 145.833508 234.075131 
L 149.190588 239.482177 
L 149.754574 245.084529 
L 149.445636 250.693407 
L 154.041739 258.368852 
L 149.325639 258.286163 
L 146.943153 258.887457 
L 143.094958 258.039188 
L 141.260531 262.023743 
L 146.244552 266.95191 
L 149.922133 268.385329 
L 153.773383 277.70146 
L 148.204213 288.546135 
L 146.17779 290.079042 
L 145.526316 296.62477 
L 146.366731 300.181044 
L 145.686457 302.697272 
L 149.676903 307.106835 
L 150.396885 310.138396 
L 153.514189 314.496032 
L 157.375911 317.212983 
L 158.643515 323.511298 
L 158.036112 328.070748 
L 144.499578 323.847072 
L 132.792234 323.055528 
L 127.793813 324.143137 
L 122.662305 323.012111 
L 118.649605 323.566933 
L 104.908857 323.374283 
L 106.14199 316.707468 
L 102.841854 311.124989 
L 98.989296 309.69288 
L 97.273557 305.909265 
z
" clip-path="url(#pdea2fcf4ed)" style="fill: #e8edf4; stroke: #b8c5d4; stroke-width: 0.45"/>
    <path d="M 23.011557 252.250532 
L 23.632923 249.618016 
L 31.027793 249.79823 
L 29.953493 254.244228 
L 35.465064 259.694055 
L 35.785783 263.838097 
L 37.486686 265.577836 
L 37.10226 284.969788 
L 39.181917 290.795097 
L 32.383541 292.596361 
L 28.248226 284.274678 
L 27.577552 280.074783 
L 29.444269 272.469155 
L 27.326213 269.389159 
L 26.53576 256.605114 
z
" clip-path="url(#pdea2fcf4ed)" style="fill: #e8edf4; stroke: #b8c5d4; stroke-width: 0.45"/>
    <path d="M -3.963333 289.880502 
L -1.761279 280.345321 
L 1.796959 273.253062 
L -1.595029 254.881521 
L -1.396706 250.090804 
L 13.270855 249.692851 
L 17.001234 250.308326 
L 19.727566 248.945378 
L 23.632923 249.618016 
L 23.011557 252.250532 
L 26.53576 256.605114 
L 27.326213 269.389159 
L 29.444269 272.469155 
L 27.577552 280.074783 
L 28.248226 284.274678 
L 32.383541 292.596361 
L 19.145472 297.539147 
L 14.450752 300.434783 
L 6.84207 302.88425 
L -0.685015 300.486055 
L -0.301461 297.154284 
z
" clip-path="url(#pdea2fcf4ed)" style="fill: #e8edf4; stroke: #b8c5d4; stroke-width: 0.45"/>
    <path d="M -49.210276 288.047384 
L -47.374322 284.296277 
L -48.218665 280.214416 
L -47.829002 277.758622 
L -46.489835 277.749023 
L -45.992393 274.066206 
L -46.64474 272.435555 
L -45.837924 271.261766 
L -42.701857 270.246374 
L -44.787623 263.486833 
L -46.733974 259.996884 
L -46.0561 257.130265 
L -43.271734 255.708628 
L -40.934192 256.97645 
L -34.413337 257.046049 
L -32.859266 254.581965 
L -31.402721 254.746688 
L -28.9646 253.794566 
L -27.657723 257.40604 
L -22.202005 255.089225 
L -18.404864 256.930197 
L -16.929119 259.722855 
L -13.132413 261.505792 
L -10.178742 259.382063 
L -6.222331 259.061344 
L -0.443276 261.238744 
L 1.796959 273.253062 
L -1.761279 280.345321 
L -3.963333 289.880502 
L -0.301461 297.154284 
L -0.685015 300.486055 
L -4.526665 300.572016 
L -10.418299 298.921076 
L -15.831691 299.018601 
L -25.834205 300.4926 
L -40.057559 306.026862 
L -41.689082 305.804977 
L -41.040662 298.850605 
L -40.232973 297.79354 
L -40.489985 294.466569 
L -44.066332 290.92993 
L -46.748592 290.365508 
z
" clip-path="url(#pdea2fcf4ed)" style="fill: #e8edf4; stroke: #b8c5d4; stroke-width: 0.45"/>
    <path d="M -22.761191 250.187238 
L -20.45834 246.608055 
L -20.653389 243.747981 
L -13.950793 236.749756 
L -12.711551 230.958918 
L -10.397791 228.898243 
L -6.314402 230.036687 
L -2.775581 228.317457 
L -1.627101 226.148348 
L 4.924299 222.363206 
L 6.535314 219.723708 
L 14.427626 216.221105 
L 19.076091 215.019171 
L 21.183675 216.63913 
L 26.597504 216.600295 
L 25.928357 220.692847 
L 27.062219 224.539079 
L 31.817155 230.052832 
L 32.079403 234.139057 
L 41.815305 236.054209 
L 41.624183 241.837192 
L 39.779284 244.361929 
L 35.651823 245.150855 
L 33.93172 248.842617 
L 31.027793 249.79823 
L 19.727566 248.945378 
L 17.001234 250.308326 
L 13.270855 249.692851 
L -1.396706 250.090804 
L -1.595029 254.881521 
L -0.443276 261.238744 
L -6.222331 259.061344 
L -10.178742 259.382063 
L -13.132413 261.505792 
L -16.929119 259.722855 
L -18.404864 256.930197 
L -22.202005 255.089225 
z
" clip-path="url(#pdea2fcf4ed)" style="fill: #e8edf4; stroke: #b8c5d4; stroke-width: 0.45"/>
    <path d="M 145.526316 296.62477 
L 146.17779 290.079042 
L 148.204213 288.546135 
L 152.450797 279.988821 
L 159.432005 279.354146 
L 160.988475 277.1822 
L 162.386986 277.347142 
L 164.496315 279.25924 
L 175.12674 276.028702 
L 183.115486 269.780349 
L 182.279434 266.807914 
L 184.660611 266.031643 
L 192.814735 266.556357 
L 200.762027 262.644454 
L 206.866602 253.431521 
L 211.150277 250.013133 
L 216.495598 248.573388 
L 217.452956 252.186825 
L 222.323089 257.466038 
L 222.347961 260.911479 
L 220.976068 264.425428 
L 221.518455 267.049653 
L 235.500942 276.584397 
L 235.578613 279.328838 
L 241.257307 283.726183 
L 244.776492 287.379982 
L 246.908511 292.445383 
L 253.220354 295.78719 
L 254.578284 298.463996 
L 251.790426 299.359829 
L 240.022865 298.277019 
L 236.884616 299.000492 
L 235.618321 301.05375 
L 232.884134 301.307053 
L 229.553018 299.520843 
L 220.152234 303.735137 
L 216.304039 302.887086 
L 215.144214 303.537906 
L 212.619477 308.637124 
L 200.143279 306.157768 
L 194.765232 303.042864 
L 187.816751 300.17319 
L 183.295264 302.892322 
L 180.007782 307.179488 
L 179.248528 313.068286 
L 173.817682 312.597025 
L 168.102334 311.178442 
L 163.069878 315.65324 
L 158.643515 323.511298 
L 157.375911 317.212983 
L 153.514189 314.496032 
L 150.396885 310.138396 
L 149.676903 307.106835 
L 145.686457 302.697272 
L 146.366731 300.181044 
z
" clip-path="url(#pdea2fcf4ed)" style="fill: #e8edf4; stroke: #b8c5d4; stroke-width: 0.45"/>
    <path d="M 117.107098 376.25609 
L 123.535883 371.595407 
L 120.351817 366.011837 
L 123.247454 363.888544 
L 128.944912 362.854388 
L 129.616895 359.112227 
L 134.128782 363.167253 
L 141.582996 363.522445 
L 144.173622 359.532435 
L 145.239632 353.918321 
L 144.318928 347.325467 
L 140.324118 342.331846 
L 143.979882 332.552309 
L 141.872298 330.874096 
L 135.589691 331.562224 
L 133.229459 327.199133 
L 133.843407 323.51588 
L 144.499578 323.847072 
L 158.036112 328.070748 
L 158.643515 323.511298 
L 163.069878 315.65324 
L 168.102334 311.178442 
L 173.817682 312.597025 
L 179.248528 313.068286 
L 178.748032 318.167941 
L 176.218931 322.683101 
L 174.568645 327.951187 
L 173.516162 335.433982 
L 173.958188 340.219463 
L 172.581931 343.149571 
L 172.371609 346.246367 
L 171.401161 348.939972 
L 165.84159 353.009834 
L 161.972451 357.359398 
L 158.305342 365.562394 
L 158.588099 372.509566 
L 146.566581 384.627518 
L 143.412187 383.1317 
L 142.871109 380.74136 
L 138.271515 380.658017 
L 135.383733 383.890518 
L 133.165315 383.030466 
L 130.000885 380.133521 
L 127.449531 381.553849 
L 124.04118 385.199576 
z
" clip-path="url(#pdea2fcf4ed)" style="fill: #e8edf4; stroke: #b8c5d4; stroke-width: 0.45"/>
    <path d="M 97.721691 352.042877 
L 97.992666 349.237565 
L 99.836257 346.53785 
L 103.589327 334.129724 
L 118.722476 333.728279 
L 118.649605 323.566933 
L 122.662305 323.012111 
L 127.793813 324.143137 
L 132.792234 323.055528 
L 133.843407 323.51588 
L 133.229459 327.199133 
L 135.589691 331.562224 
L 141.872298 330.874096 
L 143.979882 332.552309 
L 140.324118 342.331846 
L 144.318928 347.325467 
L 145.239632 353.918321 
L 144.173622 359.532435 
L 141.582996 363.522445 
L 134.128782 363.167253 
L 129.616895 359.112227 
L 128.944912 362.854388 
L 123.247454 363.888544 
L 120.351817 366.011837 
L 123.535883 371.595407 
L 117.107098 376.25609 
L 108.429788 367.733248 
L 102.849272 360.765568 
z
" clip-path="url(#pdea2fcf4ed)" style="fill: #e8edf4; stroke: #b8c5d4; stroke-width: 0.45"/>
    <path d="M 102.007984 332.856447 
L 104.908857 323.374283 
L 118.649605 323.566933 
L 118.722476 333.728279 
L 103.589327 334.129724 
z
" clip-path="url(#pdea2fcf4ed)" style="fill: #e8edf4; stroke: #b8c5d4; stroke-width: 0.45"/>
    <path d="M 208.251586 478.440302 
L 208.640376 451.572755 
L 226.222773 451.679225 
L 225.503228 448.764389 
L 226.761233 445.601704 
L 225.277197 441.641367 
L 226.237609 437.546196 
L 225.345268 434.924589 
L 228.257923 435.137093 
L 228.742274 437.761754 
L 232.699557 437.557978 
L 238.061023 438.336867 
L 240.882916 442.170662 
L 247.644639 443.348378 
L 252.806691 440.6827 
L 254.701335 445.107316 
L 261.17201 446.287214 
L 267.751336 454.532536 
L 274.213721 454.602352 
L 273.507702 445.496979 
L 271.190232 447.032505 
L 263.005564 442.24397 
L 265.55081 423.770976 
L 263.660966 420.047142 
L 266.067451 414.656877 
L 268.330813 413.647593 
L 279.672493 412.222465 
L 282.998762 413.081631 
L 286.526147 415.231229 
L 295.258141 418.066537 
L 300.050166 420.601746 
L 304.035812 424.36878 
L 306.183104 431.53631 
L 304.744449 433.824544 
L 303.047037 440.669609 
L 304.669396 447.666089 
L 302.012445 450.605361 
L 299.448872 458.449674 
L 303.889198 460.636674 
L 278.265692 467.5965 
L 279.065963 473.60595 
L 272.670341 474.761849 
L 267.862606 478.125692 
L 266.835868 481.053182 
L 263.813253 481.717311 
L 256.469873 488.661865 
L 251.79348 494.126747 
L 248.942352 494.322669 
L 246.199438 493.350039 
L 236.761565 492.425408 
L 231.848233 489.190288 
L 226.372442 488.704191 
L 219.458433 490.623271 
L 213.948171 485.348639 
z
" clip-path="url(#pdea2fcf4ed)" style="fill: #e8edf4; stroke: #b8c5d4; stroke-width: 0.45"/>
    <path d="M 299.448872 458.449674 
L 302.012445 450.605361 
L 304.669396 447.666089 
L 303.047037 440.669609 
L 304.744449 433.824544 
L 306.183104 431.53631 
L 304.035812 424.36878 
L 300.050166 420.601746 
L 308.328138 422.176972 
L 312.89023 428.449553 
L 315.254441 439.933482 
L 312.890282 446.350922 
L 315.254441 457.327811 
L 318.185859 457.20476 
L 321.232474 459.927165 
L 324.769549 466.033921 
L 325.487786 476.89125 
L 321.832895 478.669387 
L 319.255359 484.528296 
L 313.745533 479.312135 
L 313.120676 473.359847 
L 314.897068 469.433982 
L 314.407044 466.050503 
L 311.073309 463.913683 
L 308.750167 464.689518 
L 303.889198 460.636674 
z
" clip-path="url(#pdea2fcf4ed)" style="fill: #e8edf4; stroke: #b8c5d4; stroke-width: 0.45"/>
    <path d="M 278.265692 467.5965 
L 303.889198 460.636674 
L 308.750167 464.689518 
L 311.073309 463.913683 
L 314.407044 466.050503 
L 314.897068 469.433982 
L 313.120676 473.359847 
L 313.745533 479.312135 
L 319.255359 484.528296 
L 321.832895 478.669387 
L 325.487786 476.89125 
L 324.769549 466.033921 
L 321.232474 459.927165 
L 318.185859 457.20476 
L 315.254441 457.327811 
L 312.890282 446.350922 
L 315.254441 439.933482 
L 321.607737 439.25059 
L 331.754684 441.630021 
L 333.959138 440.562703 
L 339.837294 440.345039 
L 342.846293 437.81211 
L 347.911953 437.950695 
L 357.144924 434.671724 
L 363.862827 429.776063 
L 365.229048 433.561859 
L 364.881711 441.974304 
L 365.92503 449.383573 
L 366.252731 462.579753 
L 367.73764 466.715504 
L 361.943312 478.613098 
L 356.56701 483.849331 
L 339.329331 491.157366 
L 329.788915 500.220413 
L 326.539832 501.762047 
L 320.645143 507.761897 
L 317.166103 509.714139 
L 316.452666 515.734935 
L 320.457075 522.129684 
L 322.12307 527.081851 
L 322.227948 529.607965 
L 323.719969 529.185768 
L 323.478381 537.467483 
L 322.109106 541.390294 
L 324.099311 542.835931 
L 322.843488 546.349007 
L 319.313831 549.352859 
L 302.193531 556.776964 
L 298.490205 559.899068 
L 299.214114 563.456216 
L 301.372315 564.024347 
L 300.647533 568.4686 
L 294.243184 568.39791 
L 291.547397 557.846901 
L 293.051941 548.433027 
L 286.810351 530.549546 
L 295.706711 520.965495 
L 297.933419 514.875756 
L 299.208878 514.107339 
L 300.162745 509.136408 
L 298.805688 506.635235 
L 299.167861 500.325138 
L 300.81422 494.473211 
L 300.795457 483.78606 
L 296.409675 481.072818 
L 292.388685 480.459306 
L 290.568658 478.370049 
L 286.655446 476.587985 
L 279.612277 476.755981 
z
" clip-path="url(#pdea2fcf4ed)" style="fill: #e8edf4; stroke: #b8c5d4; stroke-width: 0.45"/>
    <path d="M 121.720219 483.446141 
L 122.889208 476.021163 
L 125.802736 468.290737 
L 126.242143 464.666828 
L 128.982002 457.055091 
L 130.994897 453.594814 
L 138.554272 444.312718 
L 139.44094 438.057602 
L 138.998915 433.271685 
L 136.473742 430.252996 
L 132.150795 420.06416 
L 132.604166 418.309149 
L 135.199592 414.961451 
L 130.908935 401.151323 
L 126.678932 395.809056 
L 127.481821 394.167934 
L 136.37469 392.17642 
L 161.292177 392.288126 
L 165.798391 403.64377 
L 170.972662 410.789482 
L 176.556232 410.10659 
L 179.342344 408.918838 
L 184.008264 410.11139 
L 187.392179 403.079129 
L 192.629285 402.749247 
L 193.084401 401.286156 
L 197.392512 401.254302 
L 196.657257 404.296554 
L 206.90282 404.22281 
L 207.057725 409.535841 
L 208.7691 412.793651 
L 207.525059 417.883705 
L 208.144679 423.076739 
L 210.961336 426.210188 
L 210.509711 436.258519 
L 221.499691 434.42671 
L 225.345268 434.924589 
L 226.237609 437.546196 
L 225.277197 441.641367 
L 226.761233 445.601704 
L 225.503228 448.764389 
L 226.222773 451.679225 
L 208.640376 451.572755 
L 208.251586 478.440302 
L 213.948171 485.348639 
L 219.458433 490.623271 
L 203.939548 494.064348 
L 183.496859 492.869178 
L 177.646241 488.823316 
L 143.417859 489.18767 
L 142.141091 489.78111 
L 137.107326 485.963023 
L 131.633281 485.710812 
L 122.514818 488.755245 
z
" clip-path="url(#pdea2fcf4ed)" style="fill: #e8edf4; stroke: #b8c5d4; stroke-width: 0.45"/>
    <path d="M 124.04118 385.199576 
L 127.449531 381.553849 
L 130.000885 380.133521 
L 133.165315 383.030466 
L 130.092519 384.805113 
L 128.711027 386.975968 
L 128.446597 390.65704 
L 126.298869 391.548945 
z
" clip-path="url(#pdea2fcf4ed)" style="fill: #e8edf4; stroke: #b8c5d4; stroke-width: 0.45"/>
    <path d="M 268.516699 366.63364 
L 273.64428 367.297332 
L 276.22967 362.489598 
L 280.71606 363.04156 
L 281.205693 366.366491 
L 283.024096 368.280648 
L 283.102033 371.024929 
L 274.668836 380.254827 
L 271.177142 380.656708 
L 270.639992 370.472671 
z
" clip-path="url(#pdea2fcf4ed)" style="fill: #e8edf4; stroke: #b8c5d4; stroke-width: 0.45"/>
    <path d="M 312.767231 79.044675 
L 315.223896 76.262708 
L 314.647475 75.783811 
L 316.880728 71.837219 
L 318.593412 65.466687 
L 319.801237 63.328995 
L 322.860069 63.257215 
L 323.63765 61.777543 
L 325.903193 61.666491 
L 326.032354 65.122623 
L 323.577433 69.126159 
L 320.522964 67.956516 
L 318.755736 73.579575 
L 320.877283 74.527334 
L 318.720827 75.688905 
L 318.356909 77.912558 
L 322.326846 76.767132 
L 322.524078 80.051996 
L 318.316328 93.551659 
z
" clip-path="url(#pdea2fcf4ed)" style="fill: #e8edf4; stroke: #b8c5d4; stroke-width: 0.45"/>
    <path d="M 320.034249 63.241506 
L 323.041592 56.363496 
L 327.40032 50.119507 
L 331.198334 50.549969 
L 332.57939 53.861231 
L 327.974996 57.043552 
L 325.903193 61.666491 
L 323.63765 61.777543 
L 322.860069 63.257215 
z
" clip-path="url(#pdea2fcf4ed)" style="fill: #e8edf4; stroke: #b8c5d4; stroke-width: 0.45"/>
    <path d="M 318.356909 77.912558 
L 318.720827 75.688905 
L 320.877283 74.527334 
L 318.755736 73.579575 
L 320.522964 67.956516 
L 323.577433 69.126159 
L 323.573943 74.289521 
L 322.326846 76.767132 
z
" clip-path="url(#pdea2fcf4ed)" style="fill: #e8edf4; stroke: #b8c5d4; stroke-width: 0.45"/>
    <path d="M 86.968214 54.742882 
L 92.173903 50.033109 
L 94.161489 43.069137 
L 92.822759 35.01952 
L 94.538062 30.685665 
L 103.733759 27.277968 
L 109.644594 28.291179 
L 109.396745 32.563509 
L 116.559039 29.455586 
L 117.159897 31.077728 
L 112.937748 35.215224 
L 112.881022 39.121018 
L 115.804585 41.219002 
L 114.692758 48.527037 
L 109.134497 52.772095 
L 110.739403 57.374307 
L 115.106421 57.517867 
L 117.231459 61.532094 
L 120.442578 62.85228 
L 119.965209 69.338009 
L 115.849093 71.762166 
L 113.249304 74.467553 
L 107.451048 77.721436 
L 108.349062 81.219239 
L 107.618171 84.786859 
L 103.498565 86.743901 
L 99.89691 71.58588 
L 94.691221 68.177965 
L 94.618351 66.134089 
L 87.712632 61.103378 
z
" clip-path="url(#pdea2fcf4ed)" style="fill: #e8edf4; stroke: #b8c5d4; stroke-width: 0.45"/>
    <path d="M -49.898623 111.331069 
L -49.811788 99.124974 
L -36.175765 92.893857 
L -27.743685 91.606398 
L -20.832294 89.337146 
L -17.602629 85.108888 
L -7.72993 81.76708 
L -7.367321 75.515673 
L -2.482352 74.779327 
L 1.33748 71.656351 
L 12.388113 70.233186 
L 13.936293 66.951595 
L 11.71133 65.157313 
L 8.794748 56.243063 
L 8.29207 51.107409 
L 5.109313 45.699253 
L 13.226565 41.085041 
L 22.355719 39.617369 
L 27.68664 36.13331 
L 35.81851 33.563193 
L 64.095913 31.37292 
L 68.354715 32.626998 
L 76.306371 29.298936 
L 85.329273 29.233701 
L 88.76337 31.198379 
L 94.538062 30.685665 
L 92.822759 35.01952 
L 94.161489 43.069137 
L 92.173903 50.033109 
L 86.968214 54.742882 
L 87.712632 61.103378 
L 94.618351 66.134089 
L 94.691221 68.177965 
L 99.89691 71.58588 
L 103.498565 86.743901 
L 106.230133 94.199206 
L 106.689176 98.122672 
L 105.202086 105.011372 
L 105.812107 108.861094 
L 104.739116 113.482506 
L 105.475679 118.79161 
L 102.12449 122.320177 
L 107.117238 128.474714 
L 107.434467 132.092951 
L 110.43701 136.801633 
L 114.384693 135.254544 
L 121.049545 139.177792 
L 124.755053 144.465733 
L 95.820939 160.559949 
L 71.372967 177.14768 
L 59.465774 180.913186 
L 50.099026 181.739856 
L 50.002156 176.3677 
L 40.834821 172.579285 
L 38.827162 168.622657 
z
" clip-path="url(#pdea2fcf4ed)" style="fill: #e8edf4; stroke: #b8c5d4; stroke-width: 0.45"/>
    <path d="M 318.316328 93.551659 
L 322.524078 80.051996 
L 322.326846 76.767132 
L 323.573943 74.289521 
L 323.577433 69.126159 
L 325.048815 66.464626 
L 334.45658 69.810579 
L 350.992167 60.811458 
L 354.396155 71.093456 
L 352.786886 72.366733 
L 335.876035 76.603936 
L 344.291971 85.047144 
L 341.499313 86.481217 
L 340.109966 89.309001 
L 333.666781 90.478426 
L 331.646032 93.518496 
L 327.995941 96.117194 
L 318.598649 94.774101 
z
" clip-path="url(#pdea2fcf4ed)" style="fill: #e8edf4; stroke: #b8c5d4; stroke-width: 0.45"/>
    <path d="M 350.992167 60.811458 
L 369.685518 52.023968 
L 372.875693 41.815714 
L 372.079786 35.647432 
L 376.701634 33.561447 
L 381.029381 28.29227 
L 384.656345 26.980157 
L 394.477772 28.06973 
L 397.443225 30.220513 
L 401.489776 28.794141 
L 406.960951 38.866842 
L 412.497831 41.401397 
L 413.134906 46.33371 
L 408.88483 49.247892 
L 406.927788 55.837037 
L 412.776661 63.863091 
L 423.12302 68.491484 
L 427.467785 74.908706 
L 426.083674 81.024844 
L 428.78077 81.022444 
L 428.864113 85.520368 
L 433.537015 89.959166 
L 422.852482 88.842103 
L 416.6554 96.948665 
L 400.956301 96.274281 
L 377.148459 79.292524 
L 364.567101 73.381908 
L 354.396155 71.093456 
z
" clip-path="url(#pdea2fcf4ed)" style="fill: #e8edf4; stroke: #b8c5d4; stroke-width: 0.45"/>
    <path d="M 325.048815 66.464626 
L 326.032354 65.122623 
L 325.903193 61.666491 
L 327.974996 57.043552 
L 332.57939 53.861231 
L 331.198334 50.549969 
L 327.40032 50.119507 
L 326.61183 43.659086 
L 328.678397 40.184191 
L 333.201193 36.484356 
L 333.658054 31.774147 
L 336.421476 33.41636 
L 345.717971 31.067473 
L 350.211532 32.657325 
L 357.158268 32.630925 
L 366.874534 29.462568 
L 371.424384 29.605473 
L 381.029381 28.29227 
L 376.701634 33.561447 
L 372.079786 35.647432 
L 372.875693 41.815714 
L 369.685518 52.023968 
L 350.992167 60.811458 
L 334.45658 69.810579 
z
" clip-path="url(#pdea2fcf4ed)" style="fill: #e8edf4; stroke: #b8c5d4; stroke-width: 0.45"/>
    <path d="M 193.57748 8.067975 
L 197.503781 3.972586 
L 198.010387 1.228364 
L 200.754609 0.003958 
L 200.923914 -2.214459 
L 206.447267 -2.96215 
L 209.666241 -4.807922 
L 214.242273 -4.644289 
L 215.630977 -6.116177 
L 223.486405 -6.152325 
L 230.246382 -8.472848 
L 236.195615 -5.522449 
L 243.870624 -6.319666 
L 243.962694 -10.524797 
L 248.076191 -8.288926 
L 245.462002 -3.004258 
L 243.455216 -2.057372 
L 233.904327 -3.095455 
L 223.678401 -0.900601 
L 229.531636 3.846044 
L 225.241852 5.222301 
L 220.538843 5.230809 
L 216.0719 0.882118 
L 214.487066 2.73509 
L 216.373856 7.778237 
L 220.598187 11.740974 
L 217.41543 13.59111 
L 222.118003 17.48294 
L 226.297826 19.931751 
L 226.424368 24.702396 
L 218.613654 22.464779 
L 221.104356 26.771362 
L 215.742453 27.657813 
L 218.944846 35.109627 
L 213.336404 35.215224 
L 206.412359 31.542225 
L 203.245747 24.787048 
L 201.768257 19.169007 
L 194.149102 10.472497 
z
" clip-path="url(#pdea2fcf4ed)" style="fill: #e8edf4; stroke: #b8c5d4; stroke-width: 0.45"/>
    <path d="M 221.991025 44.75695 
L 223.553167 41.168167 
L 228.169343 44.013623 
L 234.741688 43.532544 
L 241.025604 44.131874 
L 240.821391 45.601292 
L 245.423167 44.588081 
L 244.367629 47.079001 
L 232.208224 47.796801 
L 232.292876 46.403527 
z
" clip-path="url(#pdea2fcf4ed)" style="fill: #e8edf4; stroke: #b8c5d4; stroke-width: 0.45"/>
    <path d="M 244.416501 9.430705 
L 253.782813 1.354906 
L 266.786124 1.017169 
L 270.332799 -5.400052 
L 286.426361 -4.282335 
L 296.576362 -9.759434 
L 306.416116 -12.146502 
L 320.385949 -12.326061 
L 335.1242 -6.37421 
L 347.237352 -3.108328 
L 357.074051 -4.410186 
L 364.342815 -3.657914 
L 374.312166 -8.065513 
L 383.308887 -8.466739 
L 391.442066 -4.320516 
L 392.876794 -1.348735 
L 392.064305 2.760398 
L 398.342985 4.859255 
L 401.669738 7.324866 
L 395.887628 9.730261 
L 398.523635 19.414237 
L 396.871603 22.029299 
L 401.489776 28.794141 
L 397.443225 30.220513 
L 394.477772 28.06973 
L 384.656345 26.980157 
L 381.029381 28.29227 
L 371.424384 29.605473 
L 366.874534 29.462568 
L 357.158268 32.630925 
L 350.211532 32.657325 
L 345.717971 31.067473 
L 336.421476 33.41636 
L 333.658054 31.774147 
L 333.201193 36.484356 
L 328.678397 40.184191 
L 325.573747 36.355196 
L 328.771776 33.183566 
L 323.621941 33.902675 
L 316.559572 31.959815 
L 310.753026 36.819912 
L 297.937346 37.768979 
L 291.101444 33.237019 
L 281.999126 32.95339 
L 280.052557 36.456648 
L 274.216775 37.458296 
L 266.05087 32.962117 
L 256.832482 33.114186 
L 251.830134 24.716359 
L 245.661415 20.031894 
L 249.76924 13.465658 
z
" clip-path="url(#pdea2fcf4ed)" style="fill: #e8edf4; stroke: #b8c5d4; stroke-width: 0.45"/>
    <path d="M 243.340455 -0.314798 
L 243.455216 -2.057372 
L 245.462002 -3.004258 
L 248.076191 -8.288926 
L 243.962694 -10.524797 
L 252.564516 -13.181094 
L 259.834589 -12.048541 
L 260.837764 -8.802077 
L 268.208634 -6.07509 
L 266.6718 -4.00656 
L 256.645287 -3.540972 
L 245.997407 3.61805 
z
" clip-path="url(#pdea2fcf4ed)" style="fill: #e8edf4; stroke: #b8c5d4; stroke-width: 0.45"/>
    <path d="M 186.437876 -13.639265 
L 190.098875 -17.797925 
L 190.635589 -16.209164 
L 192.907741 -16.956761 
L 194.70676 -14.690657 
L 196.726513 -13.826086 
L 197.294769 -10.765446 
L 196.221777 -7.891845 
L 197.420874 -4.270553 
L 200.923914 -2.214459 
L 200.754609 0.003958 
L 198.010387 1.228364 
L 197.503781 3.972586 
L 193.57748 8.067975 
L 192.141879 7.476935 
L 191.97301 5.619163 
L 187.295745 2.783961 
L 186.560927 -1.239211 
L 187.274364 -7.000812 
L 188.426772 -9.621983 
L 187.006007 -10.952423 
z
" clip-path="url(#pdea2fcf4ed)" style="fill: #e8edf4; stroke: #b8c5d4; stroke-width: 0.45"/>
    <path d="M -55.881019 -20.655162 
L -43.935426 -26.749265 
L -33.602593 -25.225739 
L -22.265713 -25.279192 
L -13.280991 -23.837047 
L 7.377038 -24.000461 
L 10.742627 -20.717561 
L 26.286384 -16.880057 
L 29.356126 -18.705538 
L 38.85727 -14.885925 
L 48.645535 -15.980515 
L 49.09716 -11.075474 
L 41.095323 -5.451542 
L 30.275957 -3.666859 
L 29.522812 -0.826203 
L 24.332833 3.854989 
L 21.078514 10.727981 
L 24.371668 15.553388 
L 19.487572 19.320639 
L 17.661436 24.809302 
L 11.286322 26.492097 
L 5.307417 32.984807 
L -13.458805 32.953608 
L -18.7474 35.935425 
L -21.972484 39.126036 
L -26.103871 38.425471 
L -29.230339 35.572597 
L -31.62417 30.715337 
L -39.506882 29.407588 
L -40.210937 26.611657 
L -37.081634 23.445264 
L -35.922899 21.149612 
L -38.834462 18.639275 
L -36.503466 13.091486 
L -39.886073 8.029358 
L -36.237946 7.334248 
L -35.898681 3.343366 
L -34.527443 2.107615 
L -34.418573 -4.480439 
L -30.517143 -6.766491 
L -32.877375 -11.001731 
L -37.797688 -11.296923 
L -39.243325 -10.230695 
L -44.230837 -10.220659 
L -46.347584 -14.354665 
L -49.793462 -13.123714 
L -52.857531 -10.977949 
L -52.432087 -16.991763 
z
" clip-path="url(#pdea2fcf4ed)" style="fill: #e8edf4; stroke: #b8c5d4; stroke-width: 0.45"/>
    <path d="M 80.428159 -37.559031 
L 83.35565 -40.130894 
L 80.870621 -43.301433 
L 81.218831 -45.68741 
L 84.851904 -43.878728 
L 88.923075 -44.280172 
L 93.657065 -47.143955 
L 95.120593 -45.805662 
L 99.142892 -46.074019 
L 100.971646 -49.479315 
L 107.219781 -48.42116 
L 110.939688 -49.845415 
L 111.60949 -53.30722 
L 116.725289 -52.106595 
L 117.707083 -53.71281 
L 126.051893 -55.180482 
L 127.938246 -52.243392 
L 140.012999 -50.062719 
L 139.097967 -45.903841 
L 141.120462 -42.308731 
L 134.398885 -43.538809 
L 127.533747 -40.541939 
L 128.000644 -36.350334 
L 126.966925 -33.944721 
L 129.73471 -29.645774 
L 137.652331 -25.39308 
L 141.898915 -18.412309 
L 151.294899 -11.607606 
L 157.911752 -11.659751 
L 159.969591 -9.79347 
L 157.600632 -8.11133 
L 171.362762 -2.50507 
L 178.603599 1.898602 
L 179.47805 3.475581 
L 177.900198 6.499287 
L 173.21377 2.55684 
L 165.877808 1.167275 
L 162.324151 6.629102 
L 168.42698 9.759278 
L 167.425114 14.165568 
L 163.897639 14.666283 
L 159.387497 21.908429 
L 155.867439 22.559031 
L 155.900166 19.97735 
L 157.622886 15.448445 
L 159.458186 13.644781 
L 153.583569 4.493155 
L 150.078348 3.441109 
L 147.585464 -0.203309 
L 142.159418 -1.738398 
L 138.505837 -5.13235 
L 132.258138 -5.679536 
L 117.935732 -14.987595 
L 112.194203 -19.851619 
L 109.560377 -28.198829 
L 105.359173 -29.180622 
L 98.489672 -31.967607 
L 94.602206 -30.826763 
L 89.723346 -26.908097 
L 86.214197 -26.289131 
L 87.180282 -29.954276 
L 82.603378 -31.025522 
z
" clip-path="url(#pdea2fcf4ed)" style="fill: #e8edf4; stroke: #b8c5d4; stroke-width: 0.45"/>
    <path d="M 128.398598 25.057587 
L 129.580241 20.722204 
L 139.461449 21.494112 
L 154.485074 19.837499 
L 151.444132 26.483806 
L 152.707809 29.099959 
L 150.935344 33.442105 
L 144.47776 30.261748 
L 140.184049 29.350643 
z
" clip-path="url(#pdea2fcf4ed)" style="fill: #e8edf4; stroke: #b8c5d4; stroke-width: 0.45"/>
    <path d="M 92.33448 -3.120328 
L 96.978583 -2.697938 
L 101.200732 -5.315618 
L 106.266787 0.679432 
L 105.08078 11.847662 
L 101.241312 11.314876 
L 97.79718 14.133933 
L 94.600024 11.894352 
L 94.26185 1.707043 
z
" clip-path="url(#pdea2fcf4ed)" style="fill: #e8edf4; stroke: #b8c5d4; stroke-width: 0.45"/>
    <path d="M 330.143059 217.498884 
L 333.779611 205.091611 
L 334.612522 199.479007 
L 337.271856 196.89018 
L 343.491072 195.501996 
L 347.764466 190.68247 
L 352.666452 200.457862 
L 354.992649 208.208577 
L 359.621479 212.32142 
L 371.1473 220.297294 
L 383.055803 232.884325 
L 387.207263 235.424116 
L 384.660708 237.486319 
L 381.046006 236.753265 
L 378.159782 234.02089 
L 374.687718 229.070461 
L 370.944013 226.357929 
L 368.76041 223.442152 
L 361.411226 220.056554 
L 355.621722 219.955564 
L 353.584959 218.190021 
L 348.63301 220.175782 
L 343.508551 216.342571 
L 340.871508 222.644537 
L 331.040566 220.879669 
z
" clip-path="url(#pdea2fcf4ed)" style="fill: #e8edf4; stroke: #b8c5d4; stroke-width: 0.45"/>
    <path d="M 315.865335 105.734409 
L 318.598649 94.774101 
L 327.995941 96.117194 
L 331.646032 93.518496 
L 333.666781 90.478426 
L 340.109966 89.309001 
L 341.499313 86.481217 
L 344.291971 85.047144 
L 335.876035 76.603936 
L 352.786886 72.366733 
L 354.396155 71.093456 
L 364.567101 73.381908 
L 377.148459 79.292524 
L 400.956301 96.274281 
L 424.179867 97.763553 
L 426.282651 101.786726 
L 432.254574 101.567677 
L 435.560383 108.849531 
L 439.714461 110.77821 
L 441.161406 113.743882 
L 446.916026 117.293175 
L 447.426995 120.777451 
L 446.585707 123.589745 
L 447.654335 126.426256 
L 450.082202 128.792597 
L 452.469488 133.63153 
L 455.022151 135.306907 
L 457.362747 134.706922 
L 462.523055 148.438724 
L 487.90613 152.696218 
L 489.607906 150.911317 
L 493.477918 156.892404 
L 487.848531 173.780346 
L 462.516946 182.224208 
L 438.170208 185.461073 
L 430.289241 189.260832 
L 424.237902 198.126865 
L 420.2972 199.534321 
L 418.186125 196.719628 
L 414.949261 197.142017 
L 406.786846 196.297457 
L 405.238667 195.453114 
L 395.494038 195.647073 
L 393.204931 196.410254 
L 389.7368 194.214745 
L 387.499183 198.365332 
L 388.365343 201.92488 
L 384.65809 204.618485 
L 383.562408 201.015084 
L 381.015854 198.47202 
L 380.364815 195.103595 
L 376.00347 192.077926 
L 371.502928 184.99723 
L 369.121314 178.116383 
L 363.280733 172.305692 
L 359.515009 170.918963 
L 353.922712 162.871528 
L 352.945718 157.003238 
L 353.305709 151.997835 
L 348.46263 142.635233 
L 344.503165 139.340115 
L 339.941534 137.593832 
L 337.165021 132.755552 
L 337.626683 130.846727 
L 335.280414 126.469237 
L 332.814585 124.583975 
L 329.517503 118.302459 
L 320.069157 105.693828 
z
" clip-path="url(#pdea2fcf4ed)" style="fill: #e8edf4; stroke: #b8c5d4; stroke-width: 0.45"/>
    <path d="M 299.817154 45.938811 
L 301.634127 43.855881 
L 307.716011 43.969769 
L 315.393638 41.450269 
L 309.688326 45.046033 
L 310.303147 46.627158 
L 306.099761 47.118273 
L 305.323053 45.747252 
L 301.40286 46.379527 
z
" clip-path="url(#pdea2fcf4ed)" style="fill: #e8edf4; stroke: #b8c5d4; stroke-width: 0.45"/>
    <path d="M 295.805327 46.249494 
L 301.40286 46.379527 
L 305.323053 45.747252 
L 306.099761 47.118273 
L 309.398151 46.330874 
L 310.56714 47.306122 
L 301.911647 50.736291 
L 297.778078 49.640391 
z
" clip-path="url(#pdea2fcf4ed)" style="fill: #e8edf4; stroke: #b8c5d4; stroke-width: 0.45"/>
    <path d="M -120.287556 161.770391 
L -119.889166 157.85718 
L -116.645756 155.556292 
L -113.88277 151.156111 
L -114.427339 148.298437 
L -111.524284 142.340477 
L -106.824328 136.972029 
L -103.98149 135.611481 
L -101.746492 130.686368 
L -101.546206 126.188007 
L -98.498064 120.968356 
L -92.873259 117.89076 
L -87.520956 109.267339 
L -83.120775 105.906332 
L -75.268607 104.973628 
L -68.615101 99.202208 
L -64.381606 96.952374 
L -57.332764 89.901786 
L -59.442966 79.396157 
L -56.234901 72.131321 
L -55.102565 67.684886 
L -49.671283 61.980447 
L -34.937178 54.632267 
L -26.640585 40.703887 
L -20.42474 40.744468 
L -15.334249 44.328669 
L -7.304486 43.74483 
L 1.441332 45.608928 
L 5.109313 45.699253 
L 8.29207 51.107409 
L 8.794748 56.243063 
L 11.71133 65.157313 
L 13.936293 66.951595 
L 12.388113 70.233186 
L 1.33748 71.656351 
L -2.482352 74.779327 
L -7.367321 75.515673 
L -7.72993 81.76708 
L -17.602629 85.108888 
L -20.832294 89.337146 
L -27.743685 91.606398 
L -36.175765 92.893857 
L -49.811788 99.124974 
L -49.73979 109.129888 
L -51.025285 109.129888 
L -50.831545 113.653557 
L -56.051196 113.925623 
L -58.772728 115.846884 
L -62.60696 115.846884 
L -65.662302 114.750329 
L -72.766124 115.65707 
L -75.516019 122.237706 
L -78.155081 122.856018 
L -82.125454 133.501716 
L -93.863779 142.613633 
L -96.650764 154.273415 
L -100.109951 158.066629 
L -101.124253 161.109317 
z
" clip-path="url(#pdea2fcf4ed)" style="fill: #e8edf4; stroke: #b8c5d4; stroke-width: 0.45"/>
    <path d="M 231.997867 88.967749 
L 234.172604 83.754375 
L 232.865905 80.142986 
L 235.922189 76.091077 
L 247.156937 75.951498 
L 267.576075 81.994236 
L 274.07698 79.319111 
L 277.552591 76.899584 
L 284.999302 76.203297 
L 291.003198 77.269429 
L 293.303749 81.457623 
L 295.26325 78.69865 
L 302.030647 80.6937 
L 308.61253 81.171711 
L 312.767286 79.044683 
L 318.316307 93.551626 
L 315.944741 96.945331 
L 314.12769 103.324137 
L 311.8306 107.720813 
L 309.861895 109.195125 
L 303.236779 102.702156 
L 297.211774 90.598358 
L 296.34399 91.363801 
L 299.842822 100.273848 
L 305.026895 108.762879 
L 311.408741 121.915331 
L 317.239451 131.275608 
L 324.816537 140.623388 
L 323.13881 142.095505 
L 323.411212 147.583475 
L 334.728204 156.892414 
L 234.530459 156.892414 
L 234.530459 95.769643 
z
" clip-path="url(#pdea2fcf4ed)" style="fill: #e8edf4; stroke: #b8c5d4; stroke-width: 0.45"/>
    <path d="M 102.12449 122.320177 
L 105.475679 118.79161 
L 104.739116 113.482506 
L 105.812107 108.861094 
L 105.202086 105.011372 
L 106.689176 98.122672 
L 106.230133 94.199206 
L 103.498565 86.743901 
L 107.618171 84.786859 
L 108.349062 81.219239 
L 107.451048 77.721436 
L 113.249304 74.467553 
L 115.849093 71.762166 
L 119.965209 69.338009 
L 120.442578 62.85228 
L 130.360177 65.758817 
L 133.90621 65.0323 
L 140.960447 66.441256 
L 152.165135 70.214685 
L 156.119517 77.719828 
L 175.600955 82.893346 
L 184.596454 87.091505 
L 188.713973 84.900893 
L 192.761238 81.017187 
L 190.793631 74.548875 
L 193.441989 70.441658 
L 199.52627 66.484827 
L 205.339586 65.333074 
L 216.76238 67.060873 
L 219.642102 70.836074 
L 222.786035 70.871792 
L 225.474332 72.312244 
L 233.864569 73.302803 
L 235.922189 76.091077 
L 232.865905 80.142986 
L 234.172604 83.754375 
L 231.997867 88.967749 
L 234.530459 95.769643 
L 234.530459 173.754626 
L 224.819927 173.780295 
L 224.715728 177.322782 
L 157.360016 144.988821 
L 142.861946 152.743999 
L 138.112683 148.106442 
L 124.755053 144.465733 
L 121.049545 139.177792 
L 114.384693 135.254544 
L 110.43701 136.801633 
L 107.434467 132.092951 
L 107.117238 128.474714 
z
" clip-path="url(#pdea2fcf4ed)" style="fill: #e8edf4; stroke: #b8c5d4; stroke-width: 0.45"/>
    <path d="M 301.695084 276.923287 
L 304.57126 272.113534 
L 309.052459 271.905982 
L 310.314659 269.327202 
L 310.201848 261.73593 
L 312.699819 252.899262 
L 316.699714 250.534283 
L 317.548161 247.082484 
L 321.16943 240.632158 
L 326.262308 236.448861 
L 329.69553 228.131157 
L 331.040566 220.879669 
L 340.871508 222.644537 
L 343.508551 216.342571 
L 348.63301 220.175782 
L 353.584959 218.190021 
L 355.621722 219.955564 
L 361.411226 220.056554 
L 368.76041 223.442152 
L 370.944013 226.357929 
L 374.687718 229.070461 
L 378.159782 234.02089 
L 381.046006 236.753265 
L 375.221375 244.445948 
L 376.013502 249.345883 
L 380.730034 249.486981 
L 382.76325 248.888221 
L 384.637145 250.393197 
L 382.79559 253.384873 
L 389.029161 262.099864 
L 392.25272 265.113507 
L 419.860945 275.133931 
L 426.962974 275.082255 
L 403.101917 300.42573 
L 392.101742 300.797854 
L 384.576502 306.750495 
L 379.163429 306.90637 
L 376.853784 309.568053 
L 371.084182 309.566549 
L 367.678572 306.713088 
L 359.964694 310.244598 
L 357.469039 313.763441 
L 351.837992 313.099072 
L 349.968757 312.125232 
L 345.322689 312.272706 
L 334.634165 305.101612 
L 328.757059 305.101612 
L 325.872347 302.322698 
L 325.872347 297.583397 
L 321.486222 296.166775 
L 316.495962 286.97791 
L 312.639614 285.020182 
L 311.160067 281.643619 
L 306.880593 277.528126 
z
" clip-path="url(#pdea2fcf4ed)" style="fill: #e8edf4; stroke: #b8c5d4; stroke-width: 0.45"/>
    <path d="M 273.1992 353.985083 
L 273.26989 347.619133 
L 275.226059 344.39274 
L 275.701247 337.614873 
L 277.477639 333.689008 
L 280.706213 329.285554 
L 283.950059 327.042919 
L 286.66461 324.044739 
L 283.280258 322.901277 
L 283.791164 313.027876 
L 287.267598 310.724973 
L 292.637016 312.613292 
L 299.434135 310.636988 
L 305.375123 310.656578 
L 310.568146 306.773336 
L 314.571672 312.635837 
L 319.273765 326.566313 
L 316.201099 332.721102 
L 309.627229 341.731855 
L 309.71287 350.680857 
L 283.250815 351.225914 
L 275.243077 354.846443 
z
" clip-path="url(#pdea2fcf4ed)" style="fill: #e8edf4; stroke: #b8c5d4; stroke-width: 0.45"/>
    <path d="M 268.516699 366.63364 
L 269.298207 362.014409 
L 270.458033 361.363371 
L 270.770897 356.338769 
L 273.1992 353.985083 
L 275.243077 354.846443 
L 280.28906 352.240108 
L 283.641558 357.004644 
L 283.153279 361.97252 
L 280.71606 363.04156 
L 276.22967 362.489598 
L 273.64428 367.297332 
z
" clip-path="url(#pdea2fcf4ed)" style="fill: #e8edf4; stroke: #b8c5d4; stroke-width: 0.45"/>
    <path d="M 225.13218 269.874625 
L 230.62442 267.359953 
L 232.798824 259.822019 
L 235.118188 255.908092 
L 241.20652 254.748409 
L 247.004931 261.996423 
L 249.324295 262.721225 
L 252.368461 261.271622 
L 258.456793 261.561542 
L 259.616475 263.301066 
L 268.024171 263.301066 
L 268.314091 261.561542 
L 272.6629 259.966979 
L 273.532661 257.502655 
L 276.721787 255.763131 
L 283.824841 260.691781 
L 288.173649 259.822019 
L 292.377497 253.733687 
L 297.016226 249.094959 
L 296.291424 244.021349 
L 294.261981 241.557024 
L 299.33559 241.122143 
L 299.915431 239.23766 
L 303.829359 239.817501 
L 302.814637 246.050793 
L 303.829359 252.139124 
L 308.178167 255.473211 
L 309.192889 258.372416 
L 309.047929 262.576264 
L 310.216818 262.743248 
L 310.314659 269.327202 
L 309.052459 271.905982 
L 304.57126 272.113534 
L 301.695084 276.923287 
L 306.880593 277.528126 
L 311.160067 281.643619 
L 312.639614 285.020182 
L 316.495962 286.97791 
L 321.486222 296.166775 
L 310.568146 306.773336 
L 305.375123 310.656578 
L 299.434135 310.636988 
L 292.637016 312.613292 
L 287.267598 310.724973 
L 283.791164 313.027876 
L 276.357522 307.416646 
L 274.352044 303.81019 
L 269.649471 305.5964 
L 265.744987 305.040705 
L 263.484679 306.458633 
L 259.69321 305.434731 
L 253.220354 295.78719 
L 246.908511 292.445383 
L 244.776492 287.379982 
L 241.257307 283.726183 
L 235.578613 279.328838 
L 235.500942 276.584397 
z
" clip-path="url(#pdea2fcf4ed)" style="fill: #e8edf4; stroke: #b8c5d4; stroke-width: 0.45"/>
   </g>
   <g id="PathCollection_1">
    <defs>
     <path id="meb06053c49" d="M 0 2.12132 
C 0.562581 2.12132 1.102195 1.897805 1.5 1.5 
C 1.897805 1.102195 2.12132 0.562581 2.12132 0 
C 2.12132 -0.562581 1.897805 -1.102195 1.5 -1.5 
C 1.102195 -1.897805 0.562581 -2.12132 0 -2.12132 
C -0.562581 -2.12132 -1.102195 -1.897805 -1.5 -1.5 
C -1.897805 -1.102195 -2.12132 -0.562581 -2.12132 0 
C -2.12132 0.562581 -1.897805 1.102195 -1.5 1.5 
C -1.102195 1.897805 -0.562581 2.12132 0 2.12132 
z
" style="stroke: #ffffff; stroke-width: 0.5"/>
    </defs>
    <g clip-path="url(#pdea2fcf4ed)">
     <use xlink:href="#meb06053c49" x="276.750163" y="372.212907" style="fill: #8aa0b7; stroke: #ffffff; stroke-width: 0.5"/>
     <use xlink:href="#meb06053c49" x="302.081986" y="47.121182" style="fill: #8aa0b7; stroke: #ffffff; stroke-width: 0.5"/>
     <use xlink:href="#meb06053c49" x="107.871345" y="325.771232" style="fill: #8aa0b7; stroke: #ffffff; stroke-width: 0.5"/>
     <use xlink:href="#meb06053c49" x="316.858882" y="76.674975" style="fill: #8aa0b7; stroke: #ffffff; stroke-width: 0.5"/>
     <use xlink:href="#meb06053c49" x="326.006485" y="56.972446" style="fill: #8aa0b7; stroke: #ffffff; stroke-width: 0.5"/>
     <use xlink:href="#meb06053c49" x="146.572741" y="40.084565" style="fill: #8aa0b7; stroke: #ffffff; stroke-width: 0.5"/>
     <use xlink:href="#meb06053c49" x="320.938995" y="72.856625" style="fill: #8aa0b7; stroke: #ffffff; stroke-width: 0.5"/>
     <use xlink:href="#meb06053c49" x="276.750163" y="359.546995" style="fill: #8aa0b7; stroke: #ffffff; stroke-width: 0.5"/>
     <use xlink:href="#meb06053c49" x="82.539522" y="334.215173" style="fill: #8aa0b7; stroke: #ffffff; stroke-width: 0.5"/>
     <use xlink:href="#meb06053c49" x="33.2832" y="275.107586" style="fill: #8aa0b7; stroke: #ffffff; stroke-width: 0.5"/>
    </g>
   </g>
   <g id="PatchCollection_2">
    <defs>
     <path id="m039ed7b3eb" d="M 137.766219 -210.656114 
L 141.412114 -221.77878 
L 152.182877 -229.740874 
L 152.627957 -240.723436 
L 155.881403 -257.858136 
L 157.718011 -261.492736 
L 154.204499 -264.387282 
L 154.068652 -267.072754 
L 150.909163 -269.26876 
L 148.835436 -282.394285 
L 157.360016 -287.011179 
L 224.715728 -254.677218 
L 225.131424 -221.157897 
L 217.850213 -221.747959 
L 213.994372 -215.529588 
L 211.761456 -210.315708 
L 213.522103 -208.342866 
L 210.746326 -205.753109 
L 211.70294 -202.255966 
L 209.516044 -198.736025 
L 208.665063 -195.634734 
L 211.630575 -196.123385 
L 213.40051 -192.865628 
L 213.493984 -187.960712 
L 216.597386 -185.47186 
L 216.495598 -183.426612 
L 211.150277 -181.986867 
L 206.866602 -178.568479 
L 200.762027 -169.355546 
L 192.814735 -165.443643 
L 184.660611 -165.968357 
L 182.279434 -165.192086 
L 183.115486 -162.219651 
L 175.12674 -155.971298 
L 164.496315 -152.74076 
L 162.386986 -154.652858 
L 160.988475 -154.8178 
L 159.432005 -152.645854 
L 152.450797 -152.011179 
L 153.773383 -154.29854 
L 149.922133 -163.614671 
L 146.244552 -165.04809 
L 141.260531 -169.976257 
L 143.094958 -173.960812 
L 146.943153 -173.112543 
L 149.325639 -173.713837 
L 154.041739 -173.631148 
L 149.445636 -181.306593 
L 149.754574 -186.915471 
L 149.190588 -192.517823 
L 145.833508 -197.924869 
L 146.677851 -201.902224 
L 141.262713 -202.096619 
L 141.281476 -207.52812 
z
" style="stroke: #b45309; stroke-width: 1.15"/>
    </defs>
    <g clip-path="url(#pdea2fcf4ed)">
     <use xlink:href="#m039ed7b3eb" x="0" y="432" style="fill: #f59e0b; stroke: #b45309; stroke-width: 1.15"/>
    </g>
   </g>
   <g id="PathCollection_2">
    <path d="M 183.866813 220.135215 
C 184.963485 220.135215 186.015387 219.699502 186.790851 218.924038 
C 187.566316 218.148574 188.002028 217.096672 188.002028 216 
C 188.002028 214.903328 187.566316 213.851426 186.790851 213.075962 
C 186.015387 212.300498 184.963485 211.864785 183.866813 211.864785 
C 182.770141 211.864785 181.718239 212.300498 180.942775 213.075962 
C 180.167311 213.851426 179.731599 214.903328 179.731599 216 
C 179.731599 217.096672 180.167311 218.148574 180.942775 218.924038 
C 181.718239 219.699502 182.770141 220.135215 183.866813 220.135215 
L 183.866813 220.135215 
z
" clip-path="url(#pdea2fcf4ed)" style="fill: none; stroke: #7c2d12; stroke-width: 1.1"/>
   </g>
  </g>
 </g>
 <defs>
  <clipPath id="pdea2fcf4ed">
   <rect x="0" y="0" width="367.733626" height="432"/>
  </clipPath>
 </defs>
</svg>
