<?xml version="1.0" encoding="utf-8" standalone="no"?>
<!DOCTYPE svg PUBLIC "-//W3C//DTD SVG 1.1//EN"
  "http://www.w3.org/Graphics/SVG/1.1/DTD/svg11.dtd">
<svg xmlns:xlink="http://www.w3.org/1999/xlink" width="545.202551pt" height="432pt" viewBox="0 0 545.202551 432" xmlns="http://www.w3.org/2000/svg" version="1.1">
 <metadata>
  <rdf:RDF xmlns:dc="http://purl.org/dc/elements/1.1/" xmlns:cc="http://creativecommons.org/ns#" xmlns:rdf="http://www.w3.org/1999/02/22-rdf-syntax-ns#">
   <cc:Work>
    <dc:type rdf:resource="http://purl.org/dc/dcmitype/StillImage"/>
    <dc:date>2026-06-09T04:57:15.486954</dc:date>
    <dc:format>image/svg+xml</dc:format>
    <dc:creator>
     <cc:Agent>
      <dc:title>Matplotlib v3.10.8, https://matplotlib.org/</dc:title>
     </cc:Agent>
    </dc:creator>
   </cc:Work>
  </rdf:RDF>
 </metadata>
 <defs>
  <style type="text/css">*{stroke-linejoin: round; stroke-linecap: butt}</style>
 </defs>
 <g id="figure_1">
  <g id="patch_1">
   <path d="M 0 432 
L 545.202551 432 
L 545.202551 0 
L 0 0 
z
" style="fill: #eaf3ff"/>
  </g>
  <g id="axes_1">
   <g id="PatchCollection_1">
    <path d="M 36.233873 31.251961 
L 42.03144 23.639865 
L 39.097881 21.591253 
L 47.111707 10.556153 
L 57.440407 16.380969 
L 58.691269 9.045256 
L 79.424448 -1.878771 
L 95.113691 -2.138805 
L 129.144416 8.878714 
L 139.801338 4.641818 
L 155.72425 4.440037 
L 168.569951 9.644736 
L 171.487938 6.664205 
L 185.595697 7.097336 
L 188.112474 2.340684 
L 171.836727 -4.567088 
L 181.476154 -9.459726 
L 179.595189 -12.196052 
L 189.237212 -14.807553 
L 181.986361 -21.687557 
L 186.591802 -25.115086 
L 224.175207 -28.610121 
L 229.079983 -31.091174 
L 254.212001 -34.798777 
L 263.242087 -38.965551 
L 281.29188 -36.800936 
L 284.45433 -26.391008 
L 294.940296 -28.83538 
L 307.840271 -25.410041 
L 307.008266 -19.928045 
L 316.641733 -20.500943 
L 341.814428 -29.979063 
L 338.139175 -26.830107 
L 350.952472 -19.070347 
L 373.396893 6.437649 
L 378.749132 1.178835 
L 392.584918 6.965502 
L 407.018108 4.384365 
L 412.563427 6.191628 
L 417.397154 11.995423 
L 424.419632 13.944901 
L 428.695402 18.207955 
L 441.632748 16.863926 
L 446.962149 23.007686 
L 439.316835 29.69487 
L 430.974983 30.633277 
L 430.495399 40.705057 
L 424.909078 45.245014 
L 404.984029 41.93983 
L 397.736811 59.922148 
L 392.595818 62.15813 
L 372.699316 66.170752 
L 381.739783 83.618469 
L 374.849139 86.232824 
L 375.651041 91.958505 
L 369.460568 90.485238 
L 364.4239 86.875383 
L 332.867905 85.550299 
L 329.218085 86.656353 
L 314.914652 82.433523 
L 309.214144 84.513277 
L 307.651864 90.442937 
L 291.128539 86.982823 
L 284.516095 88.400034 
L 282.266618 92.800631 
L 276.507979 94.657202 
L 263.260772 101.6584 
L 258.866144 108.84541 
L 255.123937 108.909251 
L 252.37152 104.151821 
L 239.597669 103.82587 
L 237.554766 95.597944 
L 232.660831 95.527616 
L 233.410311 85.4535 
L 221.385939 78.117269 
L 204.160367 78.900745 
L 192.384092 80.363112 
L 182.792415 71.310188 
L 157.12845 59.448533 
L 131.273483 65.383902 
L 131.667946 102.417741 
L 126.516053 102.907705 
L 119.486308 95.032202 
L 112.697394 92.218539 
L 101.296378 94.308414 
L 96.85867 97.65019 
L 96.295003 95.201146 
L 98.763511 91.015427 
L 96.84829 87.516126 
L 85.207481 84.09442 
L 80.676348 75.074454 
L 75.130511 72.533542 
L 74.79418 69.261057 
L 84.565441 70.215035 
L 84.951081 62.871537 
L 93.493279 61.240485 
L 102.266445 62.740482 
L 104.074227 52.941712 
L 102.28513 46.730997 
L 92.234112 47.216809 
L 83.696066 44.76543 
L 72.066676 49.181857 
L 62.696538 51.28765 
L 57.595168 49.663459 
L 58.614453 44.495015 
L 52.211667 37.784301 
L 44.759032 38.064725 
z
" clip-path="url(#pb0a73e69c0)" style="fill: #e8edf4; stroke: #b8c5d4; stroke-width: 0.45"/>
    <path d="M 131.273483 65.383902 
L 157.12845 59.448533 
L 182.792415 71.310188 
L 192.384092 80.363112 
L 204.160367 78.900745 
L 221.385939 78.117269 
L 233.410311 85.4535 
L 232.660831 95.527616 
L 237.554766 95.597944 
L 239.597669 103.82587 
L 252.37152 104.151821 
L 255.123937 108.909251 
L 258.866144 108.84541 
L 263.260772 101.6584 
L 276.507979 94.657202 
L 282.266618 92.800631 
L 285.248965 93.789384 
L 276.819916 100.294908 
L 284.230628 104.075523 
L 291.384421 101.571462 
L 303.289415 106.863234 
L 290.427848 114.096698 
L 282.787724 113.107167 
L 278.641712 113.366682 
L 277.20296 110.574819 
L 279.296728 105.917302 
L 265.866823 108.25138 
L 262.674268 114.696178 
L 257.901267 120.247465 
L 249.514778 119.775147 
L 246.911323 124.197803 
L 254.281551 126.594165 
L 256.451097 134.072092 
L 250.806125 144.236778 
L 243.23088 142.116021 
L 237.634697 142.049326 
L 237.91134 135.90349 
L 224.551504 131.604623 
L 214.047891 126.686033 
L 196.009518 115.020312 
L 191.072503 104.665401 
L 187.70244 102.842308 
L 176.842772 103.304764 
L 172.999873 101.247588 
L 171.926 93.233243 
L 158.392808 87.925381 
L 149.931059 93.760837 
L 141.350453 97.221211 
L 142.999412 102.280458 
L 131.667946 102.417741 
z
" clip-path="url(#pb0a73e69c0)" style="fill: #e8edf4; stroke: #b8c5d4; stroke-width: 0.45"/>
    <path d="M -18.860599 489.348099 
L -7.334683 474.788438 
L -0.895974 474.603029 
L 8.055101 467.522519 
L 21.139521 467.079887 
L 49.521623 436.934487 
L 61.059085 422.383475 
L 61.160279 402.708903 
L 74.323495 400.007583 
L 79.076645 396.569273 
L 82.885071 396.541753 
L 82.223282 410.439825 
L 80.102725 414.067462 
L 77.272469 424.924659 
L 66.227352 448.97043 
L 57.608225 463.690189 
L 37.221326 488.637296 
L 27.169746 496.76809 
L 12.145759 506.740927 
L 2.783087 514.380578 
L -8.208899 526.547291 
L -10.525211 531.843512 
L -12.793312 534.221694 
L -18.740575 525.935922 
z
" clip-path="url(#pb0a73e69c0)" style="fill: #e8edf4; stroke: #b8c5d4; stroke-width: 0.45"/>
    <path d="M -156.389632 -59.94994 
L -152.085834 -63.137564 
L -155.064194 -72.505167 
L -147.917503 -78.292984 
L -149.429898 -80.046086 
L -138.014263 -85.597119 
L -148.537201 -90.372667 
L -117.702682 -108.995693 
L -113.925181 -114.118002 
L -128.79228 -120.999304 
L -124.686233 -127.544274 
L -133.728257 -135.019086 
L -126.966534 -143.62976 
L -138.648144 -155.062733 
L -129.379303 -162.635902 
L -144.761281 -169.328276 
L -143.29502 -176.360616 
L -135.183405 -177.286087 
L -118.093499 -181.315577 
L -107.731865 -184.809229 
L -91.232337 -178.737422 
L -63.727364 -176.346987 
L -25.777896 -164.987196 
L -18.068943 -160.213657 
L -17.405245 -153.528975 
L -28.55512 -148.251938 
L -44.955516 -145.573747 
L -89.793656 -153.207873 
L -97.168551 -151.931501 
L -80.793767 -144.575589 
L -79.496705 -129.652643 
L -58.717795 -123.98249 
L -57.419728 -128.852551 
L -63.470051 -133.168894 
L -57.077534 -136.973101 
L -32.79744 -130.721509 
L -24.339015 -133.168894 
L -31.098523 -140.524605 
L -7.69144 -150.361648 
L 1.578528 -149.782621 
L 10.956568 -146.272296 
L 16.807209 -153.17503 
L 8.431947 -159.162267 
L 13.349012 -165.16909 
L 5.965479 -171.399087 
L 34.059925 -168.177122 
L 39.798376 -162.552266 
L 27.08116 -161.312354 
L 27.14996 -155.723254 
L 35.055773 -152.284442 
L 50.573616 -154.462752 
L 53.03034 -160.869018 
L 109.061645 -174.277553 
L 116.637517 -173.783094 
L 106.735389 -167.688087 
L 119.194379 -166.640614 
L 126.38979 -170.071994 
L 145.215373 -170.349405 
L 160.130284 -174.512981 
L 171.574444 -168.462769 
L 182.988471 -175.114306 
L 172.464128 -180.932806 
L 177.686928 -184.247276 
L 207.35645 -181.207907 
L 221.258288 -178.068653 
L 257.657639 -166.593508 
L 264.372151 -171.849453 
L 254.165193 -177.159936 
L 253.871712 -179.290537 
L 241.767471 -180.276039 
L 245.078726 -185.038028 
L 239.706875 -192.873835 
L 239.402948 -196.088669 
L 257.937862 -205.183673 
L 264.529639 -214.312124 
L 271.998644 -216.287145 
L 298.590129 -213.638483 
L 300.684171 -208.051794 
L 291.163408 -199.905431 
L 297.410681 -196.703553 
L 300.642489 -189.682403 
L 298.360728 -175.919421 
L 309.440798 -169.763045 
L 305.13028 -163.058778 
L 285.457399 -148.792498 
L 296.937615 -147.312738 
L 300.932656 -150.928523 
L 311.983096 -153.507682 
L 314.649938 -158.477679 
L 323.342787 -163.260358 
L 317.489836 -168.970485 
L 322.176094 -175.601332 
L 311.193349 -176.42774 
L 308.777904 -182.013826 
L 316.79219 -192.099053 
L 303.748247 -200.289006 
L 321.72392 -207.058759 
L 319.398167 -214.200737 
L 324.407535 -214.428733 
L 329.685576 -208.860324 
L 325.722978 -199.168012 
L 336.471199 -197.333102 
L 331.891406 -204.576121 
L 348.699983 -208.52496 
L 369.544681 -209.056681 
L 388.105508 -203.330584 
L 379.173616 -211.695601 
L 378.173048 -222.395813 
L 395.638393 -224.422661 
L 419.796454 -223.979828 
L 441.561871 -225.29527 
L 433.398836 -230.546093 
L 445.022177 -237.142489 
L 456.561452 -237.418695 
L 476.089602 -242.401146 
L 502.611181 -243.740292 
L 505.96211 -246.491 
L 532.335141 -247.423069 
L 540.553117 -245.168025 
L 563.094822 -250.505425 
L 581.546673 -250.338597 
L 584.31526 -254.673621 
L 593.912356 -258.948784 
L 617.623466 -263.070578 
L 634.849065 -259.816071 
L 621.172962 -257.340363 
L 643.923579 -255.801545 
L 646.634112 -250.837977 
L 655.812179 -253.282147 
L 685.174962 -253.148061 
L 707.816302 -248.249075 
L 715.878096 -244.48665 
L 713.379388 -239.265357 
L 675.87426 -230.717441 
L 668.32882 -227.73713 
L 695.639947 -223.797331 
L 704.682924 -225.697526 
L 709.805687 -219.250582 
L 714.217246 -221.860275 
L 730.277456 -223.446901 
L 762.503238 -221.788361 
L 764.950622 -217.090653 
L 806.940528 -215.59633 
L 807.514132 -223.26792 
L 828.829484 -221.509946 
L 844.863882 -221.565086 
L 861.082886 -216.274189 
L 865.706169 -209.846228 
L 859.764531 -205.640668 
L 872.379501 -197.736563 
L 888.174354 -193.658259 
L 897.865862 -204.197368 
L 913.977798 -199.678842 
L 931.095224 -202.378929 
L 950.536294 -199.289241 
L 957.933989 -202.105536 
L 974.36311 -200.697389 
L 967.112256 -210.021694 
L 980.372745 -214.372889 
L 1071.087057 -207.850315 
L 1079.636179 -201.888589 
L 1105.928156 -194.212981 
L 1146.485006 -196.113176 
L 1166.481401 -194.459055 
L 1174.843103 -190.306126 
L 1173.62127 -182.961463 
L 1185.993983 -180.101979 
L 1199.438073 -182.158557 
L 1217.24993 -182.421606 
L 1236.211607 -180.450601 
L 1255.247709 -181.562455 
L 1272.743688 -172.634581 
L 1285.190524 -175.846904 
L 1277.068266 -182.266227 
L 1281.540289 -186.728407 
L 1313.584779 -183.920148 
L 1334.477185 -184.520971 
L 1363.362985 -179.727545 
L 1377.42437 -175.344776 
L 1377.42437 -135.330818 
L 1364.439686 -130.863529 
L 1351.423664 -131.599543 
L 1360.480401 -126.253404 
L 1366.459001 -117.977676 
L 1371.100162 -115.272366 
L 1372.265449 -111.117428 
L 1369.673032 -108.457416 
L 1350.951804 -110.644966 
L 1322.879153 -103.08446 
L 1313.948567 -101.91395 
L 1284.001534 -88.69193 
L 1280.308913 -84.127906 
L 1265.942296 -91.076038 
L 1239.773255 -83.191618 
L 1235.203506 -86.922405 
L 1225.528671 -82.619621 
L 1212.095529 -83.996733 
L 1208.859602 -77.390895 
L 1196.809196 -67.671164 
L 1197.167159 -63.611843 
L 1208.606497 -61.361117 
L 1207.260923 -46.739386 
L 1197.936618 -46.367262 
L 1193.636647 -37.965484 
L 1197.815188 -33.641206 
L 1180.251313 -28.510709 
L 1176.765697 -17.043047 
L 1161.792431 -14.593454 
L 1158.781688 -4.389006 
L 1144.304588 4.968243 
L 1140.590474 -1.951465 
L 1130.683827 -38.923165 
L 1135.512506 -52.852875 
L 1143.986801 -58.846841 
L 1144.511089 -63.540732 
L 1160.119026 -65.787641 
L 1178.060449 -78.433045 
L 1195.349926 -88.760429 
L 1213.405246 -96.774414 
L 1221.479092 -110.933324 
L 1209.274513 -110.086226 
L 1203.243083 -101.812407 
L 1177.76757 -90.781552 
L 1169.540053 -103.132771 
L 1143.610458 -99.722484 
L 1118.474527 -82.886587 
L 1126.76763 -76.727399 
L 1088.821778 -73.070836 
L 1089.549154 -80.33324 
L 1073.936597 -81.857595 
L 1061.493276 -76.923555 
L 1030.783312 -78.649992 
L 997.745084 -75.673096 
L 926.718719 -32.380201 
L 942.543 -31.114275 
L 947.481659 -24.824517 
L 957.237046 -22.59167 
L 963.664405 -27.608973 
L 974.681299 -26.957428 
L 989.182604 -15.908093 
L 989.523292 -7.362788 
L 981.670912 2.672019 
L 980.823814 14.665777 
L 976.292533 30.72408 
L 961.154347 45.258128 
L 957.789558 52.205456 
L 924.139459 81.430438 
L 910.755833 87.323564 
L 904.422183 87.453933 
L 898.112639 82.571921 
L 884.631789 89.922209 
L 883.066254 93.264198 
L 881.660116 91.506525 
L 881.598511 86.404104 
L 886.729124 86.13317 
L 888.174104 74.266065 
L 885.528905 65.66411 
L 894.149179 62.116607 
L 906.339052 63.895087 
L 913.093779 54.124062 
L 916.535866 43.120496 
L 920.437498 39.44475 
L 925.715554 30.407499 
L 909.115932 33.368306 
L 900.408863 37.33042 
L 885.147942 37.318668 
L 881.080519 27.881898 
L 869.183829 20.7416 
L 851.70334 17.530885 
L 847.987676 7.692664 
L 834.517806 -12.927366 
L 825.697926 -16.625975 
L 810.664887 -19.616582 
L 797.349538 -19.344655 
L 784.86842 -17.533499 
L 776.572242 -12.536536 
L 782.083304 -10.149517 
L 782.207958 -4.604145 
L 776.622375 -1.38449 
L 767.555895 9.268315 
L 767.647 13.687981 
L 753.493048 20.034681 
L 741.435978 16.242647 
L 729.45261 17.079843 
L 724.193796 13.714451 
L 718.170971 12.629159 
L 703.45958 19.707433 
L 690.236768 21.370665 
L 681.00426 23.859934 
L 668.353419 22.22447 
L 659.039942 22.329054 
L 652.943414 17.195067 
L 643.106755 12.368087 
L 633.040684 11.045079 
L 610.843322 14.219468 
L 596.574477 9.995087 
L 594.659317 2.468731 
L 573.733186 -1.288634 
L 562.48165 -5.440356 
L 552.078729 4.968793 
L 556.156749 10.880547 
L 546.394115 17.874585 
L 531.873325 15.349462 
L 521.848857 14.988151 
L 515.135721 10.296638 
L 504.65641 10.148457 
L 495.923301 7.066194 
L 480.646168 11.790407 
L 461.481499 20.441082 
L 446.962149 23.007686 
L 441.632748 16.863926 
L 428.695402 18.207955 
L 424.419632 13.944901 
L 417.397154 11.995423 
L 412.563427 6.191628 
L 407.018108 4.384365 
L 392.584918 6.965502 
L 378.749132 1.178835 
L 373.396893 6.437649 
L 350.952472 -19.070347 
L 338.139175 -26.830107 
L 341.814428 -29.979063 
L 316.641733 -20.500943 
L 307.008266 -19.928045 
L 307.840271 -25.410041 
L 294.940296 -28.83538 
L 284.45433 -26.391008 
L 281.29188 -36.800936 
L 263.242087 -38.965551 
L 254.212001 -34.798777 
L 229.079983 -31.091174 
L 224.175207 -28.610121 
L 186.591802 -25.115086 
L 181.986361 -21.687557 
L 189.237212 -14.807553 
L 179.595189 -12.196052 
L 181.476154 -9.459726 
L 171.836727 -4.567088 
L 188.112474 2.340684 
L 185.595697 7.097336 
L 171.487938 6.664205 
L 168.569951 9.644736 
L 155.72425 4.440037 
L 139.801338 4.641818 
L 129.144416 8.878714 
L 95.113691 -2.138805 
L 79.424448 -1.878771 
L 58.691269 9.045256 
L 57.440407 16.380969 
L 47.111707 10.556153 
L 39.097881 21.591253 
L 42.03144 23.639865 
L 36.233873 31.251961 
L 44.759032 38.064725 
L 52.211667 37.784301 
L 58.614453 44.495015 
L 57.595168 49.663459 
L 62.696538 51.28765 
L 58.119055 57.244052 
L 48.381546 58.899278 
L 38.398967 69.26744 
L 47.528121 78.799452 
L 46.539605 85.564786 
L 57.505979 97.393424 
L 51.50893 101.441705 
L 49.785231 103.99689 
L 45.342333 103.310732 
L 38.439751 97.210052 
L 29.30316 94.545391 
L 26.228529 90.423992 
L 16.861073 88.322699 
L 10.770355 89.899911 
L 9.010472 88.033062 
L -4.665129 83.217339 
L -27.94109 79.874705 
L -29.166001 81.060948 
L -41.971991 72.573875 
L -53.430815 68.785235 
L -62.105283 62.884676 
L -54.796276 61.279469 
L -46.462093 52.879198 
L -52.078913 48.904848 
L -37.274786 44.80515 
L -37.540646 42.609465 
L -46.556625 44.228234 
L -46.239498 39.76665 
L -41.06232 36.962212 
L -31.342814 36.225827 
L -29.762491 32.876476 
L -31.98188 27.338199 
L -27.902682 22.079141 
L -28.020687 19.130066 
L -42.825836 15.861679 
L -48.695029 15.970156 
L -54.893806 11.266705 
L -62.600366 12.857273 
L -75.35657 9.325792 
L -75.137676 7.349739 
L -78.710543 2.994403 
L -86.719178 2.508071 
L -87.551183 -0.609743 
L -85.04271 -2.643303 
L -91.461037 -8.330056 
L -101.875896 -7.35973 
L -104.926236 -7.864227 
L -107.463494 -5.579805 
L -111.214569 -5.985877 
L -113.68487 -12.417678 
L -116.043343 -15.751668 
L -114.110511 -16.690106 
L -106.006338 -16.341546 
L -102.098041 -18.538082 
L -104.991115 -21.216018 
L -111.763939 -22.983575 
L -111.159788 -24.797585 
L -115.247151 -26.629762 
L -121.544024 -33.205614 
L -119.391606 -35.915211 
L -120.375168 -40.630081 
L -130.194181 -43.025405 
L -135.464413 -41.826445 
L -136.891227 -44.319866 
L -147.465428 -46.838719 
L -150.693795 -52.766563 
L -151.550195 -57.637142 
z
" clip-path="url(#pb0a73e69c0)" style="fill: #e8edf4; stroke: #b8c5d4; stroke-width: 0.45"/>
    <path d="M 86.345715 -205.991009 
L 96.615764 -208.146022 
L 96.273204 -213.622828 
L 116.194619 -222.188382 
L 106.961073 -223.416408 
L 131.007739 -232.231616 
L 128.290617 -236.790776 
L 150.755798 -242.093707 
L 183.914558 -248.546809 
L 217.343733 -250.426736 
L 234.544911 -254.150259 
L 254.091067 -255.4551 
L 261.07306 -251.488932 
L 254.327226 -248.363592 
L 188.067318 -238.593368 
L 156.866859 -229.033352 
L 126.155327 -209.5705 
L 128.199267 -201.22735 
L 147.411687 -192.990082 
L 141.478654 -192.109028 
L 108.659339 -193.41387 
L 105.99412 -197.873377 
L 87.813532 -200.566106 
z
" clip-path="url(#pb0a73e69c0)" style="fill: #e8edf4; stroke: #b8c5d4; stroke-width: 0.45"/>
    <path d="M -2238.360304 -135.330818 
L -2238.360304 -175.344776 
L -2213.75288 -167.674929 
L -2187.420426 -157.690241 
L -2188.284197 -151.447589 
L -2181.510426 -148.94878 
L -2183.840498 -156.246941 
L -2156.576377 -154.749303 
L -2136.913238 -145.349869 
L -2146.871611 -140.972259 
L -2163.335283 -139.932922 
L -2163.583868 -130.118879 
L -2167.604721 -128.028754 
L -2177.010883 -128.329166 
L -2184.665098 -131.830953 
L -2198.019496 -134.76004 
L -2200.265602 -139.11696 
L -2210.465128 -140.759832 
L -2221.887693 -139.456944 
L -2227.345418 -142.971487 
L -2225.163795 -146.704483 
L -2237.192908 -144.318567 
L -2232.662229 -139.59344 
z
" clip-path="url(#pb0a73e69c0)" style="fill: #e8edf4; stroke: #b8c5d4; stroke-width: 0.45"/>
    <path d="M 991.681171 -4.316137 
L 992.569751 -18.04137 
L 1001.854162 -22.663333 
L 997.864897 -27.316958 
L 1002.334784 -28.727163 
L 1008.42197 -12.404703 
L 1008.16505 -2.520552 
L 1012.310544 7.61429 
L 1022.41606 25.404048 
L 1007.548961 22.087965 
L 1001.369388 36.601086 
L 1011.160373 46.894491 
L 1010.876982 53.913336 
L 1003.268 47.85833 
L 996.682546 55.632364 
L 994.82338 47.203833 
L 995.943447 37.419077 
L 994.798466 26.581209 
L 997.122164 18.988317 
L 997.565935 5.557893 
z
" clip-path="url(#pb0a73e69c0)" style="fill: #e8edf4; stroke: #b8c5d4; stroke-width: 0.45"/>
    <path d="M -104.503227 62.053286 
L -102.729182 60.127684 
L -93.113629 56.789282 
L -94.642041 55.580517 
L -91.995751 53.093103 
L -81.624922 55.643307 
L -80.321484 57.626799 
L -78.806201 57.932707 
L -78.724556 58.801562 
L -73.810898 61.224395 
L -63.566281 60.621801 
L -65.527696 64.205185 
L -76.522831 65.944974 
L -90.157233 71.755516 
L -95.742517 69.712614 
L -93.527815 64.993072 
z
" clip-path="url(#pb0a73e69c0)" style="fill: #e8edf4; stroke: #b8c5d4; stroke-width: 0.45"/>
    <path d="M 19.967987 -292.116276 
L 39.575389 -293.945338 
L 54.835394 -294.066791 
L 56.88764 -291.360568 
L 62.65666 -293.765234 
L 72.12377 -295.42146 
L 87.020454 -293.220253 
L 83.136032 -291.689114 
L 60.619985 -289.602872 
L 59.219123 -287.954692 
L 47.479699 -286.294574 
L 36.59927 -288.675625 
L 42.32054 -291.811086 
z
" clip-path="url(#pb0a73e69c0)" style="fill: #e8edf4; stroke: #b8c5d4; stroke-width: 0.45"/>
    <path d="M 485.340687 -289.621888 
L 511.420438 -296.483241 
L 533.147638 -298.751141 
L 552.662379 -293.694818 
L 575.791399 -283.984026 
L 573.311623 -274.952649 
L 551.397759 -273.69978 
L 523.422131 -276.597881 
L 506.752259 -280.43217 
L 499.043808 -287.63652 
z
" clip-path="url(#pb0a73e69c0)" style="fill: #e8edf4; stroke: #b8c5d4; stroke-width: 0.45"/>
    <path d="M 945.281756 -238.601258 
L 950.679017 -245.506402 
L 963.930014 -247.390527 
L 990.451192 -246.949903 
L 1026.756382 -241.624003 
L 1018.859057 -234.165192 
L 981.835531 -234.443206 
L 965.179117 -232.070849 
z
" clip-path="url(#pb0a73e69c0)" style="fill: #e8edf4; stroke: #b8c5d4; stroke-width: 0.45"/>
    <path d="M -232.999519 -29.331833 
L -230.711115 -33.751893 
L -216.850934 -37.009327 
L -206.33227 -35.249814 
L -201.892486 -33.655613 
L -202.964283 -30.905273 
L -202.160305 -28.342042 
L -220.629474 -28.191264 
z
" clip-path="url(#pb0a73e69c0)" style="fill: #e8edf4; stroke: #b8c5d4; stroke-width: 0.45"/>
    <path d="M 974.295716 -219.599907 
L 983.823208 -223.569537 
L 996.381632 -224.498793 
L 1010.651527 -220.65873 
L 1011.867033 -218.019106 
L 996.638352 -217.948799 
z
" clip-path="url(#pb0a73e69c0)" style="fill: #e8edf4; stroke: #b8c5d4; stroke-width: 0.45"/>
    <path d="M 568.273429 -265.311159 
L 586.621126 -278.498629 
L 594.871644 -279.627758 
L 602.419243 -278.973703 
L 627.876526 -273.269301 
L 624.893905 -269.186979 
z
" clip-path="url(#pb0a73e69c0)" style="fill: #e8edf4; stroke: #b8c5d4; stroke-width: 0.45"/>
    <path d="M -2238.360304 -194.112334 
L -2238.360304 -200.977455 
L -2228.560824 -201.377357 
L -2214.033556 -198.504315 
L -2214.89361 -197.13122 
L -2225.240831 -194.723208 
z
" clip-path="url(#pb0a73e69c0)" style="fill: #e8edf4; stroke: #b8c5d4; stroke-width: 0.45"/>
    <path d="M 1037.130721 -237.710469 
L 1039.534164 -240.963068 
L 1083.457762 -236.81737 
L 1071.849636 -232.848645 
L 1055.79495 -233.746916 
z
" clip-path="url(#pb0a73e69c0)" style="fill: #e8edf4; stroke: #b8c5d4; stroke-width: 0.45"/>
    <path d="M 1364.621479 -196.790031 
L 1377.42437 -200.977455 
L 1377.42437 -194.112334 
L 1366.410539 -193.599503 
z
" clip-path="url(#pb0a73e69c0)" style="fill: #e8edf4; stroke: #b8c5d4; stroke-width: 0.45"/>
    <path d="M 87.588792 273.797342 
L 89.375813 273.309454 
L 89.746919 276.063947 
L 97.60815 274.480905 
L 111.980094 275.04016 
L 132.69874 255.618312 
L 134.60929 259.041834 
L 135.973301 266.97521 
L 130.844764 267.014397 
L 130.020025 273.555215 
L 131.798741 274.951925 
L 127.253075 276.929949 
L 127.225048 281.035218 
L 124.298756 285.19213 
L 124.036127 289.236413 
L 122.011909 291.359506 
L 91.819406 286.295329 
z
" clip-path="url(#pb0a73e69c0)" style="fill: #e8edf4; stroke: #b8c5d4; stroke-width: 0.45"/>
    <path d="M 79.196074 261.373837 
L 81.902297 256.105162 
L 84.645372 255.024541 
L 87.684812 258.172978 
L 87.861802 264.05307 
L 85.681356 269.96171 
L 82.897278 270.675376 
L 79.860952 268.68256 
z
" clip-path="url(#pb0a73e69c0)" style="fill: #e8edf4; stroke: #b8c5d4; stroke-width: 0.45"/>
    <path d="M 37.261034 225.049253 
L 44.6323 215.406711 
L 51.38073 216.242868 
L 53.476574 220.675645 
L 52.580209 222.967423 
L 55.815842 230.543446 
L 48.712396 230.803999 
L 46.21119 226.018541 
z
" clip-path="url(#pb0a73e69c0)" style="fill: #e8edf4; stroke: #b8c5d4; stroke-width: 0.45"/>
    <path d="M -40.84366 182.064993 
L -18.608409 171.612504 
L -14.81378 159.470053 
L -15.760491 152.133043 
L -10.262923 149.65182 
L -5.115182 143.384271 
L -0.801004 141.823548 
L 10.881327 143.119566 
L 14.408656 145.677865 
L 19.221921 143.981233 
L 25.729741 155.962448 
L 32.315715 158.977234 
L 33.073499 164.844092 
L 28.018145 168.310434 
L 25.690295 176.148049 
L 32.647375 185.69483 
L 44.954099 191.200183 
L 50.122082 198.8333 
L 48.475718 206.108286 
L 51.683843 206.105431 
L 51.782978 211.455594 
L 57.341272 216.735428 
L 44.6323 215.406711 
L 37.261034 225.049253 
L 18.587367 224.247092 
L -9.731436 204.047736 
L -24.696633 197.017213 
L -36.794706 194.29516 
z
" clip-path="url(#pb0a73e69c0)" style="fill: #e8edf4; stroke: #b8c5d4; stroke-width: 0.45"/>
    <path d="M 91.81214 326.482276 
L 121.943397 316.438523 
L 128.639405 296.350759 
L 124.036127 289.236413 
L 124.298756 285.19213 
L 127.225048 281.035218 
L 127.253075 276.929949 
L 131.798741 274.951925 
L 130.020025 273.555215 
L 130.844764 267.014397 
L 135.973301 266.97521 
L 140.475887 273.835751 
L 146.083489 277.482456 
L 159.399207 280.625443 
L 166.639678 289.719111 
L 170.235 290.991254 
L 170.215796 293.231907 
L 164.955425 302.036734 
L 160.724291 305.249272 
L 156.976375 312.129795 
L 152.419809 311.602979 
L 150.331232 313.997784 
L 148.718086 319.089989 
L 149.952859 325.803644 
L 149.005629 327.037638 
L 144.384184 327.00468 
L 138.110667 330.758306 
L 137.131776 335.651203 
L 134.835068 337.770922 
L 128.587502 337.689953 
L 124.65481 340.219187 
L 124.704637 344.276446 
L 119.844439 347.065195 
L 114.302754 346.118224 
L 107.585985 349.506193 
L 102.946375 350.074791 
z
" clip-path="url(#pb0a73e69c0)" style="fill: #e8edf4; stroke: #b8c5d4; stroke-width: 0.45"/>
    <path d="M 132.69874 255.618312 
L 135.623474 252.198681 
L 136.865514 253.070652 
L 135.918803 257.220039 
L 134.60929 259.041834 
z
" clip-path="url(#pb0a73e69c0)" style="fill: #e8edf4; stroke: #b8c5d4; stroke-width: 0.45"/>
    <path d="M 496.611535 301.618915 
L 500.117064 303.139933 
L 500.3226 295.936573 
L 505.2783 293.553965 
L 504.215326 289.288835 
L 506.485564 285.868426 
L 506.875875 275.474069 
L 514.725687 277.762214 
L 519.204398 269.481088 
L 519.712529 264.587152 
L 525.25577 256.162255 
L 524.950581 250.414515 
L 537.953324 243.474044 
L 545.130992 245.290131 
L 544.307291 239.110298 
L 547.828391 237.267482 
L 547.070607 233.460396 
L 552.944991 232.713511 
L 556.302078 238.626562 
L 560.685806 241.021108 
L 560.57681 256.991925 
L 551.062987 265.379192 
L 549.858837 277.293529 
L 560.460547 275.627443 
L 562.855871 284.873446 
L 569.216067 286.818771 
L 566.29237 295.16244 
L 578.100306 300.78172 
L 585.467419 297.857504 
L 585.768457 302.009745 
L 577.222107 308.542777 
L 575.081626 312.241646 
L 569.329734 314.564306 
L 563.467808 318.919487 
L 556.377337 319.369227 
L 551.797934 330.227857 
L 547.560572 332.052248 
L 552.414023 340.865639 
L 558.788232 348.198756 
L 562.902065 354.827809 
L 559.226293 363.559194 
L 555.758134 365.415246 
L 558.156053 370.45399 
L 564.854656 378.434079 
L 566.002232 384.040643 
L 565.844966 388.706464 
L 569.771429 397.866308 
L 564.255695 407.229352 
L 559.38875 417.550267 
L 558.420759 410.094658 
L 561.50795 402.400815 
L 558.13114 396.45792 
L 558.947055 385.516245 
L 554.869554 380.312709 
L 551.59655 368.29197 
L 549.782021 355.60376 
L 545.437739 347.285782 
L 527.40715 359.482472 
L 521.773078 358.587923 
L 515.549907 356.232824 
L 519.011838 343.785443 
L 516.915994 334.381655 
L 509.043345 322.801314 
L 510.27137 319.180819 
L 504.395949 317.893365 
L 497.267589 309.700215 
z
" clip-path="url(#pb0a73e69c0)" style="fill: #e8edf4; stroke: #b8c5d4; stroke-width: 0.45"/>
    <path d="M 450.892246 22.181909 
L 461.481499 20.441082 
L 480.646168 11.790407 
L 495.923301 7.066194 
L 504.65641 10.148457 
L 515.135721 10.296638 
L 521.848857 14.988151 
L 531.873325 15.349462 
L 546.394115 17.874585 
L 556.156749 10.880547 
L 552.078729 4.968793 
L 562.48165 -5.440356 
L 573.733186 -1.288634 
L 594.659317 2.468731 
L 596.574477 9.995087 
L 610.843322 14.219468 
L 633.040684 11.045079 
L 643.106755 12.368087 
L 652.943414 17.195067 
L 659.039942 22.329054 
L 668.353419 22.22447 
L 681.00426 23.859934 
L 690.236768 21.370665 
L 703.45958 19.707433 
L 718.170971 12.629159 
L 724.193796 13.714451 
L 729.45261 17.079843 
L 741.435978 16.242647 
L 729.448458 33.851004 
L 732.035304 37.957311 
L 737.721279 36.683092 
L 747.630083 38.24693 
L 755.350138 34.540536 
L 763.409638 37.751256 
L 772.51187 44.771918 
L 771.411526 48.341288 
L 763.487492 47.209024 
L 748.897555 48.541634 
L 741.828365 51.399413 
L 734.468517 58.038069 
L 719.154014 61.929238 
L 709.146074 67.261753 
L 693.170327 64.317036 
L 687.898018 70.791677 
L 691.105625 74.651185 
L 692.731227 77.966231 
L 685.701483 81.34382 
L 678.49423 86.723308 
L 666.757921 90.256605 
L 651.70397 90.637573 
L 635.478569 94.124677 
L 623.784301 99.517401 
L 619.33777 96.394396 
L 607.184679 96.40322 
L 592.327441 90.302539 
L 582.412408 88.806695 
L 569.05361 90.203924 
L 548.322508 87.952111 
L 537.250557 88.185675 
L 531.355413 82.2215 
L 526.779643 72.962261 
L 520.57308 71.847385 
L 508.438156 65.58866 
L 482.975056 62.469029 
L 479.361568 58.113587 
L 483.228862 46.378056 
L 476.298771 38.288712 
L 461.970944 34.51692 
L 453.529438 29.189854 
z
" clip-path="url(#pb0a73e69c0)" style="fill: #e8edf4; stroke: #b8c5d4; stroke-width: 0.45"/>
    <path d="M 254.287779 279.356934 
L 260.976521 272.655995 
L 283.079419 272.682206 
L 281.085306 264.05878 
L 275.44241 258.965277 
L 274.297948 251.235102 
L 267.723913 246.724471 
L 278.793268 236.196204 
L 290.455876 236.959697 
L 300.962603 226.429613 
L 307.258958 216.236899 
L 317.008939 206.158891 
L 316.853749 198.999389 
L 325.418265 193.189366 
L 317.312053 188.229773 
L 310.26518 172.633696 
L 315.189219 168.302908 
L 330.424311 170.75325 
L 341.619791 169.260519 
L 351.319427 160.819013 
L 362.114735 172.591136 
L 361.098474 180.784286 
L 365.093968 185.92476 
L 364.764903 191.053297 
L 357.556612 189.703559 
L 360.373388 200.774472 
L 370.24119 207.134149 
L 384.201024 214.157146 
L 377.827853 218.713192 
L 373.927861 228.108157 
L 406.227107 242.470499 
L 419.9949 243.772227 
L 425.787796 248.88156 
L 445.631356 252.178958 
L 453.995527 252.011052 
L 455.146217 248.0358 
L 453.823728 241.653806 
L 454.600197 237.327689 
L 460.725791 235.215237 
L 461.783574 245.137536 
L 470.912276 248.949812 
L 477.227316 247.379746 
L 493.902198 247.755524 
L 494.607559 241.585553 
L 490.519159 238.380282 
L 498.619143 237.123451 
L 507.76134 229.65331 
L 519.338308 223.257301 
L 527.763205 225.725289 
L 534.923226 221.495972 
L 539.632905 227.741462 
L 536.240524 231.959361 
L 547.070607 233.460396 
L 547.828391 237.267482 
L 544.307291 239.110298 
L 545.130992 245.290131 
L 537.953324 243.474044 
L 524.950581 250.414515 
L 525.25577 256.162255 
L 519.712529 264.587152 
L 519.204398 269.481088 
L 514.725687 277.762214 
L 506.875875 275.474069 
L 506.485564 285.868426 
L 504.215326 289.288835 
L 505.2783 293.553965 
L 500.3226 295.936573 
L 495.032645 280.004424 
L 492.259467 280.036085 
L 490.617775 286.45493 
L 485.11865 281.249577 
L 488.219855 275.533498 
L 492.713099 274.953223 
L 497.344405 266.453325 
L 491.553067 264.73845 
L 482.238552 264.887411 
L 472.68165 263.509905 
L 471.795666 256.526095 
L 467.000865 256.030681 
L 459.04569 251.690551 
L 455.4976 258.504898 
L 462.746894 263.821843 
L 456.467667 267.564309 
L 454.238433 271.22451 
L 460.420601 273.915681 
L 458.711435 279.967832 
L 462.192051 287.520759 
L 463.75537 295.791245 
L 462.317137 299.458452 
L 455.484624 299.332068 
L 443.102641 301.417272 
L 443.679803 308.972794 
L 438.318221 314.915429 
L 423.86427 321.675538 
L 412.622596 333.492816 
L 405.071745 339.828357 
L 395.063806 346.402912 
L 395.048235 351.022799 
L 380.994456 357.096231 
L 376.302943 357.62642 
L 373.29153 365.287564 
L 375.915227 386.682506 
L 371.65918 396.224616 
L 371.613505 413.28851 
L 366.415937 413.774841 
L 361.84432 421.435467 
L 364.901407 424.745841 
L 355.74364 427.59324 
L 352.36112 434.423937 
L 348.330851 437.310782 
L 338.820143 427.932427 
L 330.31791 403.737058 
L 326.798886 398.986375 
L 321.462737 389.337345 
L 317.234717 370.50226 
L 308.098229 356.707737 
L 300.934056 324.390844 
L 300.969869 312.225037 
L 299.021949 302.818913 
L 284.405541 308.830839 
L 277.326489 307.626689 
L 264.205926 295.453875 
L 269.034983 291.823259 
L 266.068725 287.882004 
z
" clip-path="url(#pb0a73e69c0)" style="fill: #e8edf4; stroke: #b8c5d4; stroke-width: 0.45"/>
    <path d="M 454.238433 271.22451 
L 456.467667 267.564309 
L 462.746894 263.821843 
L 455.4976 258.504898 
L 459.04569 251.690551 
L 467.000865 256.030681 
L 471.795666 256.526095 
L 472.68165 263.509905 
L 482.238552 264.887411 
L 491.553067 264.73845 
L 497.344405 266.453325 
L 492.713099 274.953223 
L 488.219855 275.533498 
L 485.11865 281.249577 
L 490.617775 286.45493 
L 492.259467 280.036085 
L 495.032645 280.004424 
L 500.3226 295.936573 
L 500.117064 303.139933 
L 496.611535 301.618915 
L 497.267589 309.700215 
L 494.39839 304.464238 
L 493.819153 299.348158 
L 491.907565 294.513393 
L 487.711206 288.667037 
L 478.460013 288.265308 
L 479.373506 292.405611 
L 476.219879 297.994268 
L 471.946184 295.957594 
L 470.485634 297.785878 
L 463.75537 295.791245 
L 462.192051 287.520759 
L 458.711435 279.967832 
L 460.420601 273.915681 
z
" clip-path="url(#pb0a73e69c0)" style="fill: #e8edf4; stroke: #b8c5d4; stroke-width: 0.45"/>
    <path d="M 461.568696 243.125256 
L 468.21332 235.658229 
L 473.637185 233.11031 
L 480.815371 235.435305 
L 486.121936 235.679769 
L 494.607559 241.585553 
L 493.902198 247.755524 
L 477.227316 247.379746 
L 470.912276 248.949812 
L 461.783574 245.137536 
z
" clip-path="url(#pb0a73e69c0)" style="fill: #e8edf4; stroke: #b8c5d4; stroke-width: 0.45"/>
    <path d="M 373.927861 228.108157 
L 377.827853 218.713192 
L 388.364684 211.754296 
L 396.416918 214.842265 
L 406.55721 221.386197 
L 412.200624 222.827544 
L 415.571206 227.651929 
L 423.375862 229.63177 
L 431.528269 234.043007 
L 442.889839 236.346203 
L 454.600197 237.327689 
L 453.823728 241.653806 
L 455.146217 248.0358 
L 453.995527 252.011052 
L 445.631356 252.178958 
L 425.787796 248.88156 
L 419.9949 243.772227 
L 406.227107 242.470499 
z
" clip-path="url(#pb0a73e69c0)" style="fill: #e8edf4; stroke: #b8c5d4; stroke-width: 0.45"/>
    <path d="M 180.94363 217.715097 
L 197.773182 222.844153 
L 207.821087 221.340004 
L 213.824708 222.620711 
L 215.857749 220.418985 
L 222.852719 221.301336 
L 235.905808 217.125479 
L 236.257191 208.57861 
L 241.855969 202.893672 
L 249.333637 202.911319 
L 250.431385 200.10129 
L 258.107322 198.791777 
L 261.820983 199.72707 
L 265.749003 196.902507 
L 265.19416 190.870858 
L 269.45903 184.808846 
L 275.851406 182.267415 
L 271.903662 175.622531 
L 281.457969 175.936544 
L 284.219729 172.320202 
L 283.800352 168.461213 
L 288.802765 164.242017 
L 287.65467 159.246611 
L 285.280107 154.989785 
L 291.145148 150.61514 
L 301.929556 148.505282 
L 313.45514 147.338502 
L 324.407714 144.356934 
L 331.828807 149.039624 
L 334.801292 156.757342 
L 351.319427 160.819013 
L 341.619791 169.260519 
L 330.424311 170.75325 
L 315.189219 168.302908 
L 310.26518 172.633696 
L 317.312053 188.229773 
L 325.418265 193.189366 
L 316.853749 198.999389 
L 317.008939 206.158891 
L 307.258958 216.236899 
L 300.962603 226.429613 
L 290.455876 236.959697 
L 278.793268 236.196204 
L 267.723913 246.724471 
L 274.297948 251.235102 
L 275.44241 258.965277 
L 281.085306 264.05878 
L 283.079419 272.682206 
L 260.976521 272.655995 
L 254.287779 279.356934 
L 246.925856 276.81706 
L 243.930533 269.597869 
L 236.170513 261.949182 
L 217.665531 263.838451 
L 201.347224 264.025562 
L 187.202095 265.433431 
L 190.986863 253.765114 
L 205.474551 248.576889 
L 204.643584 243.951552 
L 199.837884 242.32569 
L 199.560722 233.479859 
L 189.959183 229.063691 
L 185.915938 222.997786 
z
" clip-path="url(#pb0a73e69c0)" style="fill: #e8edf4; stroke: #b8c5d4; stroke-width: 0.45"/>
    <path d="M 177.47028 179.074341 
L 184.324073 159.251542 
L 194.567133 163.062261 
L 202.140302 161.722644 
L 204.238221 157.171529 
L 212.166407 155.656999 
L 217.82695 152.602506 
L 219.831963 144.569996 
L 228.297345 142.627525 
L 229.871044 139.052446 
L 234.60927 141.737908 
L 243.23088 142.116021 
L 253.87515 145.460911 
L 261.145725 142.23462 
L 264.528763 144.175014 
L 267.76803 139.576407 
L 273.772171 139.785057 
L 275.318881 138.309195 
L 276.380816 134.259202 
L 280.704856 130.765091 
L 286.141697 133.048824 
L 285.049658 136.118628 
L 288.08806 136.595617 
L 287.15173 145.033749 
L 291.128539 148.322843 
L 294.62784 146.212467 
L 299.08579 145.21541 
L 305.344775 140.718792 
L 322.619655 141.474759 
L 324.407714 144.356934 
L 313.45514 147.338502 
L 301.929556 148.505282 
L 291.145148 150.61514 
L 285.280107 154.989785 
L 287.65467 159.246611 
L 288.802765 164.242017 
L 283.800352 168.461213 
L 284.219729 172.320202 
L 281.457969 175.936544 
L 271.903662 175.622531 
L 275.851406 182.267415 
L 269.45903 184.808846 
L 265.19416 190.870858 
L 265.749003 196.902507 
L 261.820983 199.72707 
L 258.107322 198.791777 
L 250.431385 200.10129 
L 249.333637 202.911319 
L 241.855969 202.893672 
L 236.257191 208.57861 
L 235.905808 217.125479 
L 222.852719 221.301336 
L 215.857749 220.418985 
L 213.824708 222.620711 
L 207.821087 221.340004 
L 197.773182 222.844153 
L 180.94363 217.715097 
L 190.053128 208.609232 
L 189.230465 202.144452 
L 181.623559 200.451376 
L 180.837228 194.075091 
L 177.547096 186.056594 
L 181.842071 180.556951 
z
" clip-path="url(#pb0a73e69c0)" style="fill: #e8edf4; stroke: #b8c5d4; stroke-width: 0.45"/>
    <path d="M 246.911323 124.197803 
L 249.514778 119.775147 
L 257.901267 120.247465 
L 262.674268 114.696178 
L 265.866823 108.25138 
L 279.296728 105.917302 
L 277.20296 110.574819 
L 278.641712 113.366682 
L 282.787724 113.107167 
L 279.109877 116.206815 
L 268.178064 114.524898 
L 267.226682 120.315457 
L 278.116972 119.536912 
L 290.526464 122.798498 
L 309.51622 121.274106 
L 312.062063 130.568898 
L 315.363094 129.557568 
L 321.462737 131.844155 
L 321.11291 135.749597 
L 322.619655 141.474759 
L 305.344775 140.718792 
L 299.08579 145.21541 
L 294.62784 146.212467 
L 291.128539 148.322843 
L 287.15173 145.033749 
L 288.08806 136.595617 
L 285.049658 136.118628 
L 286.141697 133.048824 
L 280.704856 130.765091 
L 276.380816 134.259202 
L 275.318881 138.309195 
L 273.772171 139.785057 
L 267.76803 139.576407 
L 264.528763 144.175014 
L 261.145725 142.23462 
L 253.87515 145.460911 
L 250.806125 144.236778 
L 256.451097 134.072092 
L 254.281551 126.594165 
z
" clip-path="url(#pb0a73e69c0)" style="fill: #e8edf4; stroke: #b8c5d4; stroke-width: 0.45"/>
    <path d="M 267.226682 120.315457 
L 268.178064 114.524898 
L 279.109877 116.206815 
L 282.787724 113.107167 
L 290.427848 114.096698 
L 303.289415 106.863234 
L 291.384421 101.571462 
L 284.230628 104.075523 
L 276.819916 100.294908 
L 285.248965 93.789384 
L 282.266618 92.800631 
L 284.516095 88.400034 
L 291.128539 86.982823 
L 307.651864 90.442937 
L 309.214144 84.513277 
L 314.914652 82.433523 
L 329.218085 86.656353 
L 332.867905 85.550299 
L 364.4239 86.875383 
L 369.460568 90.485238 
L 375.651041 91.958505 
L 374.239279 94.229002 
L 358.412493 99.669736 
L 354.832223 103.656406 
L 341.948856 104.849916 
L 338.151113 111.263312 
L 327.519299 109.91617 
L 320.579347 111.881218 
L 310.991303 116.626451 
L 312.375038 118.97636 
L 309.51622 121.274106 
L 290.526464 122.798498 
L 278.116972 119.536912 
z
" clip-path="url(#pb0a73e69c0)" style="fill: #e8edf4; stroke: #b8c5d4; stroke-width: 0.45"/>
    <path d="M 96.85867 97.65019 
L 101.296378 94.308414 
L 112.697394 92.218539 
L 119.486308 95.032202 
L 126.516053 102.907705 
L 142.999412 102.280458 
L 141.350453 97.221211 
L 149.931059 93.760837 
L 158.392808 87.925381 
L 171.926 93.233243 
L 172.999873 101.247588 
L 176.842772 103.304764 
L 187.70244 102.842308 
L 191.072503 104.665401 
L 196.009518 115.020312 
L 214.047891 126.686033 
L 224.551504 131.604623 
L 237.91134 135.90349 
L 237.634697 142.049326 
L 234.60927 141.737908 
L 229.871044 139.052446 
L 228.297345 142.627525 
L 219.831963 144.569996 
L 217.82695 152.602506 
L 212.166407 155.656999 
L 204.238221 157.171529 
L 202.140302 161.722644 
L 194.567133 163.062261 
L 184.324073 159.251542 
L 183.44276 150.799395 
L 175.95575 150.439967 
L 164.476879 141.545088 
L 156.455787 140.44708 
L 145.350099 135.355653 
L 138.208245 134.429963 
L 133.799084 136.300807 
L 127.081795 136.009631 
L 119.937864 141.751662 
L 111.112276 143.69517 
L 109.243248 136.591983 
L 110.703799 126.086554 
L 102.870596 122.686906 
L 105.449657 115.809757 
L 98.782196 115.223772 
L 101.004683 106.757871 
L 110.474907 109.223524 
L 119.300495 106.009689 
L 111.983209 99.981414 
L 109.104667 94.236528 
L 101.019735 96.798461 
L 99.99465 104.158049 
z
" clip-path="url(#pb0a73e69c0)" style="fill: #e8edf4; stroke: #b8c5d4; stroke-width: 0.45"/>
    <path d="M 12.558313 121.305248 
L 19.435982 118.444094 
L 21.029923 122.233014 
L 26.102405 126.869511 
L 32.991492 128.204716 
L 36.628336 127.909388 
L 48.473642 120.499454 
L 52.240244 119.7575 
L 55.207539 122.705072 
L 51.74457 127.674267 
L 58.008226 132.933599 
L 60.507875 132.432735 
L 63.685377 139.838776 
L 73.208543 141.930987 
L 80.184827 146.97051 
L 94.463865 148.701995 
L 110.149994 146.044301 
L 111.112276 143.69517 
L 119.937864 141.751662 
L 127.081795 136.009631 
L 133.799084 136.300807 
L 138.208245 134.429963 
L 145.350099 135.355653 
L 156.455787 140.44708 
L 164.476879 141.545088 
L 175.95575 150.439967 
L 183.44276 150.799395 
L 184.324073 159.251542 
L 177.47028 179.074341 
L 181.842071 180.556951 
L 177.547096 186.056594 
L 180.837228 194.075091 
L 181.623559 200.451376 
L 189.230465 202.144452 
L 190.053128 208.609232 
L 180.94363 217.715097 
L 185.915938 222.997786 
L 189.959183 229.063691 
L 199.560722 233.479859 
L 199.837884 242.32569 
L 204.643584 243.951552 
L 205.474551 248.576889 
L 190.986863 253.765114 
L 187.202095 265.433431 
L 157.355786 260.09287 
L 146.021205 258.787769 
L 141.73765 246.471962 
L 136.930392 244.692208 
L 129.212414 246.486755 
L 119.081984 251.347732 
L 106.808478 248.016077 
L 96.669224 240.29758 
L 86.998654 237.436686 
L 80.291228 227.906773 
L 72.879477 214.515795 
L 67.474298 216.143474 
L 61.091265 212.815193 
L 57.341272 216.735428 
L 51.782978 211.455594 
L 51.683843 206.105431 
L 48.475718 206.108286 
L 50.122082 198.8333 
L 44.954099 191.200183 
L 32.647375 185.69483 
L 25.690295 176.148049 
L 28.018145 168.310434 
L 33.073499 164.844092 
L 32.315715 158.977234 
L 25.729741 155.962448 
L 19.22185 143.981102 
L 13.728726 135.934632 
L 15.693774 132.824084 
z
" clip-path="url(#pb0a73e69c0)" style="fill: #e8edf4; stroke: #b8c5d4; stroke-width: 0.45"/>
    <path d="M 7.270434 104.592218 
L 21.228712 103.025525 
L 23.307946 105.664794 
L 27.133199 107.403026 
L 25.112614 109.921879 
L 30.463296 113.367201 
L 27.631987 116.565984 
L 31.895819 119.297639 
L 36.405153 120.943484 
L 36.628336 127.909388 
L 32.991492 128.204716 
L 28.891154 122.394173 
L 28.937347 120.844609 
L 24.49964 120.867187 
L 21.525078 118.172901 
L 19.435982 118.444094 
L 15.478896 115.511314 
L 8.010571 113.014779 
L 8.977005 108.127073 
z
" clip-path="url(#pb0a73e69c0)" style="fill: #e8edf4; stroke: #b8c5d4; stroke-width: 0.45"/>
    <path d="M -167.612621 120.948934 
L -156.471639 111.342983 
L -141.00454 110.941254 
L -136.785863 103.308137 
L -117.642994 104.637633 
L -105.569833 98.122767 
L -93.865704 95.283412 
L -77.248954 95.069831 
L -59.718192 102.149402 
L -45.309915 106.034084 
L -33.609418 104.485557 
L -24.963414 105.380365 
L -13.105132 100.137642 
L -2.403769 99.660393 
L 7.270434 104.592218 
L 8.977005 108.127073 
L 8.010571 113.014779 
L 15.478896 115.511314 
L 19.435982 118.444094 
L 12.558313 121.305248 
L 15.693774 132.824084 
L 13.728726 135.934632 
L 19.221921 143.981233 
L 14.408656 145.677865 
L 10.881327 143.119566 
L -0.801004 141.823548 
L -5.115182 143.384271 
L -16.540074 144.946292 
L -21.952001 144.77631 
L -33.509245 148.544988 
L -41.772205 148.576389 
L -47.117178 146.685303 
L -58.175115 149.479242 
L -61.462133 147.525872 
L -62.005557 153.128543 
L -67.385305 157.5294 
L -71.078204 152.97491 
L -67.274232 149.20234 
L -73.399826 150.057701 
L -81.800329 147.74672 
L -88.707063 153.527677 
L -103.950978 154.656568 
L -112.082105 149.265921 
L -122.909074 148.928551 
L -125.224467 153.095585 
L -132.165976 154.287018 
L -141.879106 148.938932 
L -152.844137 149.119814 
L -158.794299 139.130819 
L -166.131828 133.558771 
L -161.245678 125.748406 
z
" clip-path="url(#pb0a73e69c0)" style="fill: #e8edf4; stroke: #b8c5d4; stroke-width: 0.45"/>
    <path d="M -168.892549 109.356915 
L -168.756044 107.284168 
L -166.369025 106.157872 
L -163.259515 99.871898 
L -168.152412 97.212388 
L -157.920771 94.052792 
L -149.27321 95.399934 
L -148.079959 99.261519 
L -139.312502 102.505198 
L -141.140526 104.96566 
L -153.066801 105.519465 
L -165.732175 114.034933 
z
" clip-path="url(#pb0a73e69c0)" style="fill: #e8edf4; stroke: #b8c5d4; stroke-width: 0.45"/>
    <path d="M 369.978041 434.947379 
L 374.524226 418.643863 
L 381.464697 424.224735 
L 386.140121 431.297818 
L 390.997724 441.754978 
L 389.484751 452.213435 
L 385.273341 455.072253 
L 376.538582 457.37 
L 371.758834 449.384202 
z
" clip-path="url(#pb0a73e69c0)" style="fill: #e8edf4; stroke: #b8c5d4; stroke-width: 0.45"/>
    <path d="M 309.51622 121.274106 
L 312.375038 118.97636 
L 310.991303 116.626451 
L 320.579347 111.881218 
L 327.519299 109.91617 
L 338.151113 111.263312 
L 341.948856 104.849916 
L 354.832223 103.656406 
L 358.412493 99.669736 
L 374.239279 94.229002 
L 375.651041 91.958505 
L 374.849139 86.232824 
L 381.739783 83.618469 
L 372.699316 66.170752 
L 392.595818 62.15813 
L 397.736811 59.922148 
L 404.984029 41.93983 
L 424.909078 45.245014 
L 430.495399 40.705057 
L 430.974983 30.633277 
L 439.316835 29.69487 
L 446.962149 23.007686 
L 450.892246 22.181909 
L 453.529438 29.189854 
L 461.970944 34.51692 
L 476.298771 38.288712 
L 483.228862 46.378056 
L 479.361568 58.113587 
L 482.975056 62.469029 
L 508.438156 65.58866 
L 520.57308 71.847385 
L 526.779643 72.962261 
L 531.355413 82.2215 
L 537.250557 88.185675 
L 548.322508 87.952111 
L 569.05361 90.203924 
L 582.412408 88.806695 
L 592.327441 90.302539 
L 607.184679 96.40322 
L 619.33777 96.394396 
L 623.784301 99.517401 
L 635.478569 94.124677 
L 651.70397 90.637573 
L 666.757921 90.256605 
L 678.49423 86.723308 
L 685.701483 81.34382 
L 692.731227 77.966231 
L 691.105625 74.651185 
L 687.898018 70.791677 
L 693.170327 64.317036 
L 709.146074 67.261753 
L 719.154014 61.929238 
L 734.468517 58.038069 
L 741.828365 51.399413 
L 748.897555 48.541634 
L 763.487492 47.209024 
L 771.411526 48.341288 
L 772.51187 44.771918 
L 763.409638 37.751256 
L 755.350138 34.540536 
L 747.630083 38.24693 
L 737.721279 36.683092 
L 732.035304 37.957311 
L 729.448458 33.851004 
L 741.435978 16.242647 
L 753.493048 20.034681 
L 767.647 13.687981 
L 767.555895 9.268315 
L 776.622375 -1.38449 
L 782.207958 -4.604145 
L 782.083304 -10.149517 
L 776.572242 -12.536536 
L 784.86842 -17.533499 
L 797.349538 -19.344655 
L 810.664887 -19.616582 
L 825.697926 -16.625975 
L 834.517806 -12.927366 
L 847.987676 7.692664 
L 851.70334 17.530885 
L 869.183829 20.7416 
L 881.080519 27.881898 
L 885.147942 37.318668 
L 900.408863 37.33042 
L 909.115932 33.368306 
L 925.715554 30.407499 
L 920.437498 39.44475 
L 916.535866 43.120496 
L 913.093779 54.124062 
L 906.339052 63.895087 
L 894.149179 62.116607 
L 885.528905 65.66411 
L 888.174104 74.266065 
L 886.729124 86.13317 
L 881.598511 86.404104 
L 881.660113 91.506281 
L 875.174475 85.57677 
L 871.181057 91.205392 
L 855.668803 95.531249 
L 857.237831 100.829509 
L 848.553419 100.464112 
L 843.785608 97.316194 
L 836.885102 104.439623 
L 825.815746 109.838315 
L 817.636869 116.279739 
L 803.595028 119.199543 
L 796.200924 123.893392 
L 785.385374 126.635169 
L 790.72308 121.981025 
L 788.621527 118.069874 
L 796.574626 111.318589 
L 791.2691 106.056142 
L 782.51358 109.601637 
L 771.17381 116.585447 
L 764.985413 123.070989 
L 755.135259 123.553687 
L 750.012432 128.240529 
L 755.305501 135.031779 
L 763.525901 136.680478 
L 763.862232 141.188774 
L 771.808584 144.122332 
L 783.064271 136.950633 
L 791.981209 140.860747 
L 798.476352 141.128307 
L 800.104031 146.389975 
L 785.883643 149.195073 
L 781.191611 154.617641 
L 771.424501 159.656126 
L 766.268456 166.68613 
L 777.078816 172.205496 
L 781.024483 182.084716 
L 787.13762 191.288937 
L 793.958714 199.004061 
L 793.795739 206.464859 
L 787.491599 209.207674 
L 789.894708 214.564584 
L 795.806461 217.682139 
L 794.262866 225.862832 
L 791.711833 233.822679 
L 786.09956 234.725013 
L 770.630385 258.778946 
L 761.303414 270.765168 
L 733.520768 288.487712 
L 722.202278 289.640738 
L 716.06267 294.103359 
L 712.589839 290.84333 
L 706.908016 295.834843 
L 692.871884 300.865543 
L 682.244223 302.405765 
L 678.814991 313.013184 
L 673.248912 313.601505 
L 670.615353 306.311986 
L 672.994068 302.426786 
L 659.518488 299.211134 
L 654.771438 300.846598 
L 644.659693 298.240029 
L 639.877349 294.159154 
L 641.465582 288.373266 
L 632.283938 286.539013 
L 627.442425 282.770855 
L 618.881542 288.123353 
L 609.115471 289.282347 
L 601.105279 289.231742 
L 590.509278 293.154831 
L 592.026922 304.643304 
L 586.672607 304.369256 
L 585.467419 297.857504 
L 578.100306 300.78172 
L 566.29237 295.16244 
L 569.216067 286.818771 
L 562.855871 284.873446 
L 560.460547 275.627443 
L 549.858837 277.293529 
L 551.062987 265.379192 
L 560.57681 256.991925 
L 560.685806 241.021108 
L 556.302078 238.626562 
L 552.944991 232.713511 
L 547.070607 233.460396 
L 536.240524 231.959361 
L 539.632905 227.741462 
L 534.923226 221.495972 
L 527.763205 225.725289 
L 519.338308 223.257301 
L 507.76134 229.65331 
L 498.619143 237.123451 
L 490.519159 238.380282 
L 486.121936 235.679769 
L 480.815371 235.435305 
L 473.637185 233.11031 
L 468.21332 235.658229 
L 461.568696 243.125256 
L 460.725791 235.215237 
L 454.600197 237.327689 
L 442.889839 236.346203 
L 431.528269 234.043007 
L 423.375862 229.63177 
L 415.571206 227.651929 
L 412.200624 222.827544 
L 406.55721 221.386197 
L 396.416918 214.842265 
L 388.364684 211.754296 
L 384.201024 214.157146 
L 370.24119 207.134149 
L 360.373388 200.774472 
L 357.556612 189.703559 
L 364.764903 191.053297 
L 365.093968 185.92476 
L 361.098474 180.784286 
L 362.114735 172.591136 
L 351.319427 160.819013 
L 334.801292 156.757342 
L 331.828807 149.039624 
L 324.407714 144.356934 
L 322.619655 141.474759 
L 321.11291 135.749597 
L 321.462737 131.844155 
L 315.363094 129.557568 
L 312.062063 130.568898 
z
" clip-path="url(#pb0a73e69c0)" style="fill: #e8edf4; stroke: #b8c5d4; stroke-width: 0.45"/>
    <path d="M 660.557067 322.7873 
L 665.507058 318.235925 
L 676.480393 315.421484 
L 682.255123 315.659719 
L 684.499928 319.492497 
L 680.086615 323.912298 
L 677.761879 329.71246 
L 669.084214 334.540478 
L 660.848243 331.427076 
z
" clip-path="url(#pb0a73e69c0)" style="fill: #e8edf4; stroke: #b8c5d4; stroke-width: 0.45"/>
    <path d="M 21.228712 103.025525 
L 23.688915 101.385131 
L 31.173329 104.273533 
L 36.587333 104.870418 
L 37.956015 103.692998 
L 33.009658 98.257974 
L 35.616227 96.873202 
L 38.439751 97.210052 
L 45.342333 103.310732 
L 49.785231 103.99689 
L 51.50893 101.441705 
L 57.505812 97.393537 
L 62.787974 102.682446 
L 67.896788 109.807173 
L 72.576364 110.276895 
L 75.669783 112.984676 
L 67.397481 113.792806 
L 65.650426 121.59305 
L 63.922574 125.111037 
L 60.239536 127.45861 
L 60.507875 132.432735 
L 58.008226 132.933599 
L 51.74457 127.674267 
L 55.207539 122.705072 
L 52.240244 119.7575 
L 48.473642 120.499454 
L 36.628336 127.909388 
L 36.405153 120.943484 
L 31.895819 119.297639 
L 27.631987 116.565984 
L 30.463296 113.367201 
L 25.112614 109.921879 
L 27.133199 107.403026 
L 23.307946 105.664794 
z
" clip-path="url(#pb0a73e69c0)" style="fill: #e8edf4; stroke: #b8c5d4; stroke-width: 0.45"/>
    <path d="M 19.435982 118.444094 
L 21.525078 118.172901 
L 24.49964 120.867187 
L 28.937347 120.844609 
L 28.891154 122.394173 
L 32.991492 128.204716 
L 26.102405 126.869511 
L 21.029923 122.233014 
z
" clip-path="url(#pb0a73e69c0)" style="fill: #e8edf4; stroke: #b8c5d4; stroke-width: 0.45"/>
    <path d="M -29.166001 81.060948 
L -27.94109 79.874705 
L -4.665129 83.217339 
L 9.010472 88.033062 
L 10.770355 89.899911 
L 16.861073 88.322699 
L 26.228529 90.423992 
L 29.30316 94.545391 
L 35.616227 96.873202 
L 33.009658 98.257974 
L 37.956015 103.692998 
L 36.587333 104.870418 
L 31.173329 104.273533 
L 23.688915 101.385131 
L 21.228712 103.025525 
L 7.270434 104.592218 
L -2.403769 99.660393 
L -13.105132 100.137642 
L -11.60773 95.846041 
L -14.115684 88.994324 
L -19.921036 85.29312 
L -25.486077 84.138018 
z
" clip-path="url(#pb0a73e69c0)" style="fill: #e8edf4; stroke: #b8c5d4; stroke-width: 0.45"/>
    <path d="M -65.643127 368.440578 
L -61.317544 353.682451 
L -60.326819 347.006407 
L -57.16361 343.927064 
L -49.766016 342.275856 
L -44.682926 336.543156 
L -38.852142 348.170729 
L -36.085192 357.390002 
L -30.57932 362.28212 
L -16.869658 371.769213 
L -2.704806 386.741156 
L 2.233246 389.762171 
L -0.795813 392.215108 
L -5.095407 391.343159 
L -8.528494 388.093071 
L -12.658423 382.204665 
L -17.111463 378.97818 
L -19.708802 375.509939 
L -28.450463 371.482859 
L -35.336926 371.362735 
L -37.759602 369.262667 
L -43.649816 371.624678 
L -49.745225 367.065174 
L -52.881919 374.561197 
L -64.575567 372.461933 
z
" clip-path="url(#pb0a73e69c0)" style="fill: #e8edf4; stroke: #b8c5d4; stroke-width: 0.45"/>
    <path d="M -2.551173 364.514988 
L -0.54097 364.026581 
L -1.571244 359.437316 
L -0.3536 357.500296 
L -0.798928 353.119681 
L 3.610752 349.915708 
L 2.580478 345.68172 
L 5.242064 340.744705 
L 9.367316 343.356205 
L 12.090148 342.448421 
L 23.681129 342.217713 
L 25.522648 343.222036 
L 35.231626 344.226619 
L 39.081792 343.724198 
L 41.592859 347.072202 
L 46.280221 345.39807 
L 53.478131 334.852156 
L 62.852334 330.332441 
L 91.81214 326.482276 
L 102.946375 350.074791 
L 95.680991 352.772969 
L 93.737742 357.232217 
L 93.501064 360.657297 
L 83.50091 364.897513 
L 67.45146 369.582798 
L 58.458744 376.669376 
L 54.036607 377.222922 
L 51.023118 376.628892 
L 45.152887 380.797223 
L 38.751169 382.73087 
L 27.783024 383.823169 
L 25.587527 386.475153 
L 22.955006 387.208024 
L 21.399992 389.76269 
L 16.428721 389.541065 
L 13.220077 390.904038 
L 6.268187 390.393312 
L 3.655908 384.526195 
L 3.942932 379.035894 
L 2.30072 376.072492 
L 0.335153 368.643873 
z
" clip-path="url(#pb0a73e69c0)" style="fill: #e8edf4; stroke: #b8c5d4; stroke-width: 0.45"/>
    <path d="M -82.626106 235.499665 
L -79.374901 222.462666 
L -68.197068 224.060241 
L -63.855381 220.969157 
L -61.451752 217.353074 
L -53.787753 215.962073 
L -52.135161 212.598498 
L -48.813368 210.892706 
L -58.823903 200.849732 
L -38.708889 195.80969 
L -36.794706 194.29516 
L -24.696633 197.017213 
L -9.731436 204.047736 
L 18.587367 224.247092 
L 46.21119 226.018541 
L 48.712396 230.803999 
L 55.815842 230.543446 
L 59.748015 239.205021 
L 64.689182 241.499135 
L 66.410286 245.026723 
L 73.255255 249.248514 
L 73.86304 253.39297 
L 72.862349 256.738119 
L 74.133454 260.112075 
L 77.021338 262.926775 
L 79.860952 268.68256 
L 82.897278 270.675376 
L 85.681356 269.96171 
L 91.819406 286.295329 
L 122.011909 291.359506 
L 124.036127 289.236413 
L 128.639405 296.350759 
L 121.943397 316.438523 
L 91.81214 326.482276 
L 62.852334 330.332441 
L 53.478131 334.852156 
L 46.280221 345.39807 
L 41.592859 347.072202 
L 39.081792 343.724198 
L 35.231626 344.226619 
L 25.522648 343.222036 
L 23.681129 342.217713 
L 12.090148 342.448421 
L 9.367316 343.356205 
L 5.242064 340.744705 
L 2.580478 345.68172 
L 3.610752 349.915708 
L -0.798928 353.119681 
L -2.102212 348.83353 
L -5.131272 345.808623 
L -5.905665 341.801969 
L -11.093372 338.203014 
L -16.446648 329.780712 
L -19.279515 321.596126 
L -26.226733 314.684461 
L -30.705964 313.034983 
L -37.357854 303.46277 
L -38.519962 296.482593 
L -38.091763 290.528798 
L -43.852478 279.392228 
L -48.562158 275.472772 
L -53.988099 273.395613 
L -57.290688 267.640607 
L -56.741554 265.370109 
L -59.532379 260.163199 
L -62.465418 257.920729 
L -66.38721 250.449031 
L -77.62577 235.451395 
z
" clip-path="url(#pb0a73e69c0)" style="fill: #e8edf4; stroke: #b8c5d4; stroke-width: 0.45"/>
    <path d="M -99.481247 439.124347 
L -96.060113 433.403272 
L -90.729843 433.156394 
L -89.228489 430.089004 
L -89.362675 421.059385 
L -86.391404 410.548399 
L -81.633634 407.735319 
L -80.624428 403.629495 
L -76.317024 395.957001 
L -70.259179 390.981078 
L -66.175451 381.087387 
L -64.575567 372.461933 
L -52.881919 374.561197 
L -49.745225 367.065174 
L -43.649816 371.624678 
L -37.759602 369.262667 
L -35.336926 371.362735 
L -28.450463 371.482859 
L -19.708802 375.509939 
L -17.111463 378.97818 
L -12.658423 382.204665 
L -8.528494 388.093071 
L -5.095407 391.343159 
L -12.023652 400.493404 
L -11.081439 406.321748 
L -5.471248 406.48958 
L -3.05279 405.777371 
L -0.823841 407.5675 
L -3.014322 411.126021 
L 4.400347 421.492275 
L 8.234685 425.076923 
L 41.073945 436.995956 
L 49.521623 436.934487 
L 21.139521 467.079887 
L 8.055101 467.522519 
L -0.895974 474.603029 
L -7.334683 474.788438 
L -10.081945 477.95444 
L -16.944735 477.952652 
L -20.995619 474.558535 
L -30.171075 478.759173 
L -33.139591 482.944745 
L -39.837574 482.154495 
L -42.06098 480.996138 
L -47.587355 481.171554 
L -60.301074 472.641726 
L -67.291738 472.641726 
L -70.723027 469.336281 
L -70.723027 463.699007 
L -75.940208 462.013972 
L -81.875992 451.084057 
L -86.463017 448.755391 
L -88.222899 444.739058 
L -93.313221 439.843788 
z
" clip-path="url(#pb0a73e69c0)" style="fill: #e8edf4; stroke: #b8c5d4; stroke-width: 0.45"/>
    <path d="M -12.023652 400.493404 
L -5.095407 391.343159 
L -0.795813 392.215108 
L 2.233246 389.762171 
L 4.609885 392.870643 
L 4.293796 397.04105 
L -1.436297 399.444419 
L 2.876844 402.192424 
L -0.823841 407.5675 
L -3.05279 405.777371 
L -5.471248 406.48958 
L -11.081439 406.321748 
z
" clip-path="url(#pb0a73e69c0)" style="fill: #e8edf4; stroke: #b8c5d4; stroke-width: 0.45"/>
    <path d="M -3.014322 411.126021 
L 2.876844 402.192424 
L 6.144658 404.043805 
L 8.113339 408.197344 
L 12.644472 412.402007 
L 17.630795 412.435484 
L 27.098943 409.866025 
L 38.031275 408.67563 
L 46.872434 405.555221 
L 51.853566 404.893976 
L 55.441103 403.0618 
L 61.160279 402.708903 
L 61.059085 422.383475 
L 49.521623 436.934487 
L 41.073945 436.995956 
L 8.234685 425.076923 
L 4.400347 421.492275 
z
" clip-path="url(#pb0a73e69c0)" style="fill: #e8edf4; stroke: #b8c5d4; stroke-width: 0.45"/>
   </g>
   <g id="PathCollection_1">
    <defs>
     <path id="m207a3300ff" d="M 0 2.12132 
C 0.562581 2.12132 1.102195 1.897805 1.5 1.5 
C 1.897805 1.102195 2.12132 0.562581 2.12132 0 
C 2.12132 -0.562581 1.897805 -1.102195 1.5 -1.5 
C 1.102195 -1.897805 0.562581 -2.12132 0 -2.12132 
C -0.562581 -2.12132 -1.102195 -1.897805 -1.5 -1.5 
C -1.897805 -1.102195 -2.12132 -0.562581 -2.12132 0 
C -2.12132 0.562581 -1.897805 1.102195 -1.5 1.5 
C -1.102195 1.897805 -0.562581 2.12132 0 2.12132 
z
" style="stroke: #ffffff; stroke-width: 0.5"/>
    </defs>
    <g clip-path="url(#pb0a73e69c0)">
     <use xlink:href="#m207a3300ff" x="77.248464" y="256.175385" style="fill: #8aa0b7; stroke: #ffffff; stroke-width: 0.5"/>
     <use xlink:href="#m207a3300ff" x="478.500125" y="241.109616" style="fill: #8aa0b7; stroke: #ffffff; stroke-width: 0.5"/>
     <use xlink:href="#m207a3300ff" x="1.417425" y="401.811157" style="fill: #8aa0b7; stroke: #ffffff; stroke-width: 0.5"/>
     <use xlink:href="#m207a3300ff" x="29.038002" y="221.021923" style="fill: #8aa0b7; stroke: #ffffff; stroke-width: 0.5"/>
     <use xlink:href="#m207a3300ff" x="84.279157" y="261.197308" style="fill: #8aa0b7; stroke: #ffffff; stroke-width: 0.5"/>
    </g>
   </g>
   <g id="PatchCollection_2">
    <defs>
     <path id="m25dd4ce4ec" d="M 180.94363 -214.284903 
L 197.773182 -209.155847 
L 207.821087 -210.659996 
L 213.824708 -209.379289 
L 215.857749 -211.581015 
L 222.852719 -210.698664 
L 235.905808 -214.874521 
L 236.257191 -223.42139 
L 241.855969 -229.106328 
L 249.333637 -229.088681 
L 250.431385 -231.89871 
L 258.107322 -233.208223 
L 261.820983 -232.27293 
L 265.749003 -235.097493 
L 265.19416 -241.129142 
L 269.45903 -247.191154 
L 275.851406 -249.732585 
L 271.903662 -256.377469 
L 281.457969 -256.063456 
L 284.219729 -259.679798 
L 283.800352 -263.538787 
L 288.802765 -267.757983 
L 287.65467 -272.753389 
L 285.280107 -277.010215 
L 291.145148 -281.38486 
L 301.929556 -283.494718 
L 313.45514 -284.661498 
L 324.407714 -287.643066 
L 331.828807 -282.960376 
L 334.801292 -275.242658 
L 351.319427 -271.180987 
L 341.619791 -262.739481 
L 330.424311 -261.24675 
L 315.189219 -263.697092 
L 310.26518 -259.366304 
L 317.312053 -243.770227 
L 325.418265 -238.810634 
L 316.853749 -233.000611 
L 317.008939 -225.841109 
L 307.258958 -215.763101 
L 300.962603 -205.570387 
L 290.455876 -195.040303 
L 278.793268 -195.803796 
L 267.723913 -185.275529 
L 274.297948 -180.764898 
L 275.44241 -173.034723 
L 281.085306 -167.94122 
L 283.079419 -159.317794 
L 260.976521 -159.344005 
L 254.287779 -152.643066 
L 246.925856 -155.18294 
L 243.930533 -162.402131 
L 236.170513 -170.050818 
L 217.665531 -168.161549 
L 201.347224 -167.974438 
L 187.202095 -166.566569 
L 190.986863 -178.234886 
L 205.474551 -183.423111 
L 204.643584 -188.048448 
L 199.837884 -189.67431 
L 199.560722 -198.520141 
L 189.959183 -202.936309 
L 185.915938 -209.002214 
z
" style="stroke: #b45309; stroke-width: 1.15"/>
    </defs>
    <g clip-path="url(#pb0a73e69c0)">
     <use xlink:href="#m25dd4ce4ec" x="0" y="432" style="fill: #f59e0b; stroke: #b45309; stroke-width: 1.15"/>
    </g>
   </g>
   <g id="PathCollection_2">
    <path d="M 272.601275 220.135215 
C 273.697947 220.135215 274.74985 219.699502 275.525314 218.924038 
C 276.300778 218.148574 276.73649 217.096672 276.73649 216 
C 276.73649 214.903328 276.300778 213.851426 275.525314 213.075962 
C 274.74985 212.300498 273.697947 211.864785 272.601275 211.864785 
C 271.504604 211.864785 270.452701 212.300498 269.677237 213.075962 
C 268.901773 213.851426 268.466061 214.903328 268.466061 216 
C 268.466061 217.096672 268.901773 218.148574 269.677237 218.924038 
C 270.452701 219.699502 271.504604 220.135215 272.601275 220.135215 
L 272.601275 220.135215 
z
" clip-path="url(#pb0a73e69c0)" style="fill: none; stroke: #7c2d12; stroke-width: 1.1"/>
   </g>
  </g>
 </g>
 <defs>
  <clipPath id="pb0a73e69c0">
   <rect x="0" y="0" width="545.202551" height="432"/>
  </clipPath>
 </defs>
</svg>
