<?xml version="1.0" encoding="utf-8" standalone="no"?>
<!DOCTYPE svg PUBLIC "-//W3C//DTD SVG 1.1//EN"
  "http://www.w3.org/Graphics/SVG/1.1/DTD/svg11.dtd">
<svg xmlns:xlink="http://www.w3.org/1999/xlink" width="461.76pt" height="432pt" viewBox="0 0 461.76 432" xmlns="http://www.w3.org/2000/svg" version="1.1">
 <metadata>
  <rdf:RDF xmlns:dc="http://purl.org/dc/elements/1.1/" xmlns:cc="http://creativecommons.org/ns#" xmlns:rdf="http://www.w3.org/1999/02/22-rdf-syntax-ns#">
   <cc:Work>
    <dc:type rdf:resource="http://purl.org/dc/dcmitype/StillImage"/>
    <dc:date>2026-06-09T04:57:01.238277</dc:date>
    <dc:format>image/svg+xml</dc:format>
    <dc:creator>
     <cc:Agent>
      <dc:title>Matplotlib v3.10.8, https://matplotlib.org/</dc:title>
     </cc:Agent>
    </dc:creator>
   </cc:Work>
  </rdf:RDF>
 </metadata>
 <defs>
  <style type="text/css">*{stroke-linejoin: round; stroke-linecap: butt}</style>
 </defs>
 <g id="figure_1">
  <g id="patch_1">
   <path d="M 0 432 
L 461.76 432 
L 461.76 0 
L 0 0 
z
" style="fill: #eaf3ff"/>
  </g>
  <g id="axes_1">
   <g id="PatchCollection_1">
    <path d="M 325.207937 160.574394 
L 328.183011 155.859147 
L 329.208437 150.142659 
L 332.827193 139.289368 
L 334.337054 136.321363 
L 340.457611 130.973596 
L 346.081081 133.099606 
L 355.158481 134.098615 
L 363.438161 133.796866 
L 370.555122 128.568534 
L 371.811604 130.17718 
L 366.026655 137.319256 
L 360.615636 138.703729 
L 353.686198 137.295815 
L 341.688419 137.655235 
L 335.398198 138.691823 
L 334.374261 144.141537 
L 340.818519 150.544123 
L 344.705909 147.282926 
L 358.132067 144.832843 
L 357.540475 148.148734 
L 354.40355 147.102844 
L 351.277415 151.321378 
L 344.93957 154.112277 
L 351.752921 163.339621 
L 350.437653 165.8124 
L 356.910932 174.122591 
L 356.848796 178.852348 
L 353.00531 180.969056 
L 350.18204 178.437118 
L 353.660898 172.542036 
L 346.595282 175.329587 
L 344.804136 173.336778 
L 345.738032 170.557041 
L 340.546907 166.335159 
L 341.0812 159.319029 
L 336.279261 161.507547 
L 337.181159 180.203336 
L 332.615113 181.248481 
L 329.52172 179.135122 
L 331.585966 172.507805 
L 330.471615 165.559764 
L 327.444079 165.506558 
z
" clip-path="url(#pf9e185b119)" style="fill: #e8edf4; stroke: #b8c5d4; stroke-width: 0.45"/>
    <path d="M 254.539134 137.409297 
L 255.377781 130.738076 
L 259.655473 125.953438 
L 260.857632 130.765423 
L 265.781239 134.833454 
L 270.425792 133.369357 
L 275.022349 133.888023 
L 279.217814 130.247129 
L 282.670626 129.615912 
L 289.482117 131.633649 
L 295.353759 130.099045 
L 299.045069 120.085331 
L 301.817364 117.581484 
L 304.311724 109.392774 
L 312.589544 109.396123 
L 318.830652 110.60963 
L 314.735274 117.112117 
L 320.027974 123.928631 
L 318.784515 127.240987 
L 326.85658 133.904022 
L 318.32538 134.753459 
L 315.924038 139.662182 
L 316.235833 146.186807 
L 309.312349 151.111158 
L 309.123337 158.281325 
L 306.346204 169.29163 
L 305.286176 166.73067 
L 297.106582 169.970286 
L 294.254291 165.569066 
L 289.120837 165.162021 
L 285.530359 162.855185 
L 276.970509 165.444423 
L 274.343693 161.959984 
L 269.627329 162.355867 
L 263.691692 161.525034 
L 262.590736 151.868693 
L 258.998025 149.867327 
L 255.541491 143.708447 
z
" clip-path="url(#pf9e185b119)" style="fill: #e8edf4; stroke: #b8c5d4; stroke-width: 0.45"/>
    <path d="M 409.820819 147.151586 
L 419.526273 145.40732 
L 423.216838 143.060673 
L 434.775947 146.017515 
L 435.912249 148.693445 
L 437.922917 160.33813 
L 445.374741 164.64782 
L 451.391863 157.010705 
L 459.653312 152.665296 
L 466.054037 152.659342 
L 477.552126 157.745172 
L 485.281515 159.121088 
L 485.523733 206.048828 
L 479.112589 200.139607 
L 471.799919 198.691509 
L 470.026632 200.742733 
L 460.904212 200.964115 
L 463.961514 195.104752 
L 468.494074 193.105618 
L 466.61698 185.276514 
L 463.160447 179.232232 
L 449.202601 173.135116 
L 443.265103 172.533106 
L 432.452739 165.879745 
L 430.327474 169.378694 
L 427.56448 170.013446 
L 425.929975 167.373235 
L 425.907279 164.244868 
L 420.406591 160.707967 
L 428.161281 158.115009 
L 433.296223 158.254908 
L 432.692725 156.344699 
L 422.153089 156.330188 
L 419.300798 152.043566 
L 412.868447 150.714159 
z
" clip-path="url(#pf9e185b119)" style="fill: #e8edf4; stroke: #b8c5d4; stroke-width: 0.45"/>
    <path d="M 156.189788 100.94529 
L 171.971151 102.626489 
L 178.338018 109.667734 
L 187.876784 117.544835 
L 194.698322 125.284455 
L 202.017689 125.397379 
L 208.067552 130.329357 
L 212.233251 136.358198 
L 217.716451 139.6473 
L 214.831046 145.52601 
L 218.957678 148.026323 
L 221.543939 148.21087 
L 222.764329 153.233075 
L 225.272827 157.251062 
L 230.559202 157.887675 
L 234.061872 162.444792 
L 232.253611 171.39978 
L 231.967116 182.536961 
L 223.994766 182.687649 
L 217.931136 176.668668 
L 208.686677 170.785864 
L 205.604447 166.421851 
L 200.153616 160.558395 
L 196.578021 155.161887 
L 191.102262 145.082503 
L 184.778927 139.081381 
L 180.00973 127.270753 
L 173.517103 122.737076 
L 169.753984 116.576708 
L 164.332919 112.54421 
L 156.822308 104.610368 
z
" clip-path="url(#pf9e185b119)" style="fill: #e8edf4; stroke: #b8c5d4; stroke-width: 0.45"/>
    <path d="M 228.711501 189.730196 
L 233.651851 182.850616 
L 242.388062 183.275892 
L 248.199056 186.089488 
L 251.185292 186.638292 
L 252.169046 189.199252 
L 265.962437 189.916975 
L 267.548945 186.949342 
L 280.906641 190.411457 
L 283.527132 195.078335 
L 294.328333 196.390999 
L 303.159794 200.669807 
L 294.944482 203.413082 
L 287.026081 200.512422 
L 273.038842 200.175326 
L 266.300277 198.882754 
L 257.959204 196.132782 
L 252.674318 195.419523 
L 249.679896 196.319933 
L 236.549534 193.355277 
L 235.300494 190.25928 
z
" clip-path="url(#pf9e185b119)" style="fill: #e8edf4; stroke: #b8c5d4; stroke-width: 0.45"/>
    <path d="M 387.356329 133.115605 
L 388.803683 127.363026 
L 391.193118 124.742907 
L 391.709924 128.674574 
L 395.960827 129.306163 
L 396.635391 132.246821 
L 396.258856 138.538902 
L 392.545222 137.833829 
L 391.449847 142.214957 
L 394.415991 146.016027 
L 392.400114 146.879974 
L 389.494617 142.319508 
z
" clip-path="url(#pf9e185b119)" style="fill: #e8edf4; stroke: #b8c5d4; stroke-width: 0.45"/>
    <path d="M 390.952017 164.832739 
L 392.658331 160.874283 
L 401.551184 160.57551 
L 409.473677 162.675103 
L 412.09082 168.181 
L 406.011935 165.213367 
L 399.99779 164.610985 
L 395.932922 165.086491 
z
" clip-path="url(#pf9e185b119)" style="fill: #e8edf4; stroke: #b8c5d4; stroke-width: 0.45"/>
    <path d="M 358.991921 214.127963 
L 359.640068 211.680112 
L 362.736065 207.288194 
L 369.854514 204.42809 
L 370.584144 205.84791 
L 370.717345 208.030846 
L 366.018841 213.408007 
L 359.855868 214.99191 
z
" clip-path="url(#pf9e185b119)" style="fill: #e8edf4; stroke: #b8c5d4; stroke-width: 0.45"/>
    <path d="M 333.510686 201.202984 
L 339.228662 199.706145 
L 343.740015 201.864525 
L 348.533025 201.316466 
L 354.985468 198.678487 
L 353.930277 202.678615 
L 343.112332 204.722397 
L 333.535614 203.835009 
z
" clip-path="url(#pf9e185b119)" style="fill: #e8edf4; stroke: #b8c5d4; stroke-width: 0.45"/>
    <path d="M 310.609014 205.437144 
L 313.082909 201.291537 
L 317.030575 201.234982 
L 318.960132 198.688905 
L 321.556439 200.60916 
L 326.004911 200.020917 
L 327.790849 203.081939 
L 314.479661 205.494443 
z
" clip-path="url(#pf9e185b119)" style="fill: #e8edf4; stroke: #b8c5d4; stroke-width: 0.45"/>
    <path d="M 435.691984 184.625763 
L 438.477302 179.604302 
L 440.114411 181.710592 
L 440.097296 185.143685 
L 436.392964 190.045712 
z
" clip-path="url(#pf9e185b119)" style="fill: #e8edf4; stroke: #b8c5d4; stroke-width: 0.45"/>
    <path d="M 377.201042 163.276369 
L 384.484691 162.931088 
L 386.274349 165.305268 
L 383.579444 167.695076 
L 378.603375 166.37311 
z
" clip-path="url(#pf9e185b119)" style="fill: #e8edf4; stroke: #b8c5d4; stroke-width: 0.45"/>
    <path d="M 326.648221 209.217379 
L 333.36223 207.801651 
L 339.663613 212.181663 
L 339.232383 214.124986 
L 336.204103 214.26228 
z
" clip-path="url(#pf9e185b119)" style="fill: #e8edf4; stroke: #b8c5d4; stroke-width: 0.45"/>
    <path d="M 369.854514 204.42809 
L 370.700974 202.729589 
L 376.898921 201.111083 
L 381.92187 200.867377 
L 384.172152 199.968083 
L 386.898683 200.860679 
L 384.249542 202.811444 
L 370.717345 208.030846 
L 370.584144 205.84791 
z
" clip-path="url(#pf9e185b119)" style="fill: #e8edf4; stroke: #b8c5d4; stroke-width: 0.45"/>
    <path d="M 206.986316 43.961419 
L 211.596639 37.974808 
L 220.90621 36.59945 
L 227.655194 37.632875 
L 233.596412 40.456145 
L 236.853888 35.491797 
L 243.235638 38.142425 
L 244.904745 42.944179 
L 244.018102 51.572117 
L 231.915771 57.113175 
L 235.077624 61.474955 
L 227.519388 61.996969 
L 221.28721 64.896885 
L 215.260415 63.845601 
L 212.332966 60.093644 
L 208.691514 52.656516 
z
" clip-path="url(#pf9e185b119)" style="fill: #e8edf4; stroke: #b8c5d4; stroke-width: 0.45"/>
    <path d="M 171.186454 7.592848 
L 174.224036 6.285021 
L 177.506813 -1.499062 
L 182.589665 -1.821461 
L 186.791827 -4.943503 
L 190.915111 -6.608517 
L 194.031944 -4.386513 
L 194.445314 -0.06008 
L 199.310505 0.269388 
L 197.538706 7.855716 
L 197.708742 14.31002 
L 205.297861 10.014468 
L 207.453636 11.283972 
L 211.670681 11.075799 
L 213.121383 8.570649 
L 218.566632 9.065131 
L 224.042019 14.912216 
L 224.491108 22.018572 
L 230.321077 28.293724 
L 229.999237 34.387678 
L 227.655194 37.632875 
L 220.90621 36.59945 
L 211.596639 37.974808 
L 206.986316 43.961419 
L 208.691514 52.656516 
L 202.227536 49.350672 
L 196.069029 49.484989 
L 197.124964 43.828404 
L 190.784142 43.870634 
L 190.214874 51.789592 
L 183.987161 68.665958 
L 184.481271 73.877361 
L 189.171589 74.103393 
L 192.093457 80.674899 
L 193.386774 86.907077 
L 197.404761 91.030546 
L 201.766169 91.867518 
L 205.496546 95.60422 
L 203.142829 98.562179 
L 198.390375 99.422034 
L 197.823712 95.724957 
L 191.949094 92.571661 
L 190.697449 93.855676 
L 187.852972 91.092868 
L 186.621419 87.527132 
L 179.307261 80.047403 
L 178.125566 84.279516 
L 176.760068 80.279946 
L 179.665565 68.882689 
L 183.154468 61.484071 
L 187.108459 54.772108 
L 184.293747 48.205811 
L 184.406485 44.861085 
L 183.583837 40.841982 
L 178.781898 35.121401 
L 177.062933 31.509342 
L 179.549107 30.178819 
L 182.184109 23.919666 
L 179.235079 19.167584 
L 174.665684 13.910788 
z
" clip-path="url(#pf9e185b119)" style="fill: #e8edf4; stroke: #b8c5d4; stroke-width: 0.45"/>
    <path d="M 190.915111 -6.608517 
L 192.449529 -9.260076 
L 198.576038 -13.943325 
L 199.224185 -12.251894 
L 203.062462 -12.055441 
L 201.974529 -20.291031 
L 205.707138 -21.346222 
L 209.915253 -15.660988 
L 213.1478 -9.119248 
L 222.012003 -9.062879 
L 224.802531 -2.783821 
L 220.200393 -0.89761 
L 218.135031 1.690697 
L 226.761109 5.997783 
L 237.283257 20.849155 
L 242.731483 25.858524 
L 244.544581 30.944353 
L 243.235638 38.142425 
L 236.853888 35.491797 
L 233.596412 40.456145 
L 227.655194 37.632875 
L 229.999237 34.387678 
L 230.321077 28.293724 
L 224.491108 22.018572 
L 224.042019 14.912216 
L 218.566632 9.065131 
L 213.121383 8.570649 
L 211.670681 11.075799 
L 207.453636 11.283972 
L 205.297861 10.014468 
L 197.708742 14.31002 
L 197.538706 7.855716 
L 199.310505 0.269388 
L 194.445314 -0.06008 
L 194.031944 -4.386513 
z
" clip-path="url(#pf9e185b119)" style="fill: #e8edf4; stroke: #b8c5d4; stroke-width: 0.45"/>
    <path d="M 134.663288 -14.223494 
L 137.176251 -13.133142 
L 137.323591 -18.29692 
L 140.876118 -20.004909 
L 140.114118 -23.062397 
L 141.741554 -25.51434 
L 142.021351 -32.965606 
L 147.648542 -31.325334 
L 150.859137 -37.261716 
L 151.223394 -40.769967 
L 155.197105 -46.809412 
L 154.978327 -50.929719 
L 164.299433 -55.905043 
L 169.444793 -54.603169 
L 168.854318 -59.033224 
L 171.378443 -60.35426 
L 170.83522 -63.083396 
L 175.046312 -63.618805 
L 177.452863 -59.379994 
L 180.595368 -57.663448 
L 180.517234 -46.214658 
L 173.697185 -40.202188 
L 172.833982 -31.661314 
L 180.43389 -32.855659 
L 182.150994 -26.227599 
L 186.710344 -24.833079 
L 184.614472 -18.851863 
L 193.079072 -14.823644 
L 198.360238 -16.919888 
L 198.576038 -13.943325 
L 192.449529 -9.260076 
L 190.915111 -6.608517 
L 186.791827 -4.943503 
L 182.589665 -1.821461 
L 177.506813 -1.499062 
L 174.224036 6.285021 
L 171.186454 7.592848 
L 174.665684 13.910788 
L 179.235079 19.167584 
L 182.184109 23.919666 
L 179.549107 30.178819 
L 177.062933 31.509342 
L 178.781898 35.121401 
L 183.583837 40.841982 
L 184.406485 44.861085 
L 184.293747 48.205811 
L 187.108459 54.772108 
L 183.154468 61.484071 
L 179.665565 68.882689 
L 178.971654 63.538085 
L 181.184728 58.0227 
L 178.764038 53.762495 
L 179.348933 45.918881 
L 176.425948 42.18869 
L 174.079673 33.571542 
L 172.778915 24.475911 
L 169.664687 18.513112 
L 156.739336 27.256392 
L 152.700513 26.615129 
L 148.23939 24.92686 
L 150.721099 16.00387 
L 149.218679 9.2627 
L 143.575116 0.961253 
L 144.455435 -1.634123 
L 140.243599 -2.557044 
L 135.133585 -8.43036 
z
" clip-path="url(#pf9e185b119)" style="fill: #e8edf4; stroke: #b8c5d4; stroke-width: 0.45"/>
    <path d="M 205.707138 -21.346222 
L 209.570344 -23.103325 
L 215.312505 -23.067048 
L 222.31338 -23.897881 
L 228.450308 -27.734856 
L 231.92098 -25.033625 
L 238.502904 -23.718729 
L 237.364368 -19.571075 
L 240.792624 -16.645672 
L 248.041298 -14.777135 
L 238.428489 -8.617325 
L 232.428112 -1.814763 
L 230.846441 3.181211 
L 243.086066 20.178313 
L 249.620364 24.625855 
L 253.995167 30.407828 
L 257.293943 43.732596 
L 256.320979 56.398613 
L 250.316136 61.140092 
L 242.070686 65.775716 
L 236.196812 71.777954 
L 227.219499 78.481731 
L 224.605333 73.864524 
L 226.628652 68.986868 
L 221.28721 64.896885 
L 227.519388 61.996969 
L 235.077624 61.474955 
L 231.915771 57.113175 
L 244.018102 51.572117 
L 244.904745 42.944179 
L 243.235638 38.142425 
L 244.544581 30.944353 
L 242.731483 25.858524 
L 237.283257 20.849155 
L 226.761109 5.997783 
L 218.135031 1.690697 
L 220.200393 -0.89761 
L 224.802531 -2.783821 
L 222.012003 -9.062879 
L 213.1478 -9.119248 
L 209.915253 -15.660988 
z
" clip-path="url(#pf9e185b119)" style="fill: #e8edf4; stroke: #b8c5d4; stroke-width: 0.45"/>
    <path d="M -39.048155 -30.182148 
L -34.253285 -34.985762 
L -18.408671 -34.966972 
L -19.838165 -41.148735 
L -23.883313 -44.800047 
L -24.703728 -50.341476 
L -29.416371 -53.574953 
L -21.481227 -61.122213 
L -13.120807 -60.574898 
L -5.588988 -68.12346 
L -1.075403 -75.430177 
L 5.913938 -82.654666 
L 5.802689 -87.787004 
L 11.942221 -91.951959 
L 6.131227 -95.507277 
L 1.079628 -106.687432 
L 4.609459 -109.791987 
L 15.530839 -108.035443 
L 23.556396 -109.105517 
L 30.509646 -115.156868 
L 38.248336 -106.717942 
L 37.519822 -100.844626 
L 40.38402 -97.159641 
L 40.148127 -93.483215 
L 34.980815 -94.450783 
L 37.00004 -86.514524 
L 44.073841 -81.955546 
L 54.081044 -76.921063 
L 49.512393 -73.65503 
L 46.716656 -66.920185 
L 69.870592 -56.624441 
L 79.740129 -55.691289 
L 83.892806 -52.028629 
L 98.117798 -49.664866 
L 104.113711 -49.785231 
L 104.938591 -52.634917 
L 103.990556 -57.209894 
L 104.547173 -60.3111 
L 108.938347 -61.825426 
L 109.696626 -54.712558 
L 116.240599 -51.979701 
L 120.767578 -53.105214 
L 132.721081 -52.835835 
L 133.226725 -57.258821 
L 130.295927 -59.556541 
L 136.102456 -60.45751 
L 142.656103 -65.812532 
L 150.955131 -70.397554 
L 156.994576 -68.62836 
L 162.127286 -71.660175 
L 165.503452 -67.183053 
L 163.071601 -64.159423 
L 170.83522 -63.083396 
L 171.378443 -60.35426 
L 168.854318 -59.033224 
L 169.444793 -54.603169 
L 164.299433 -55.905043 
L 154.978327 -50.929719 
L 155.197105 -46.809412 
L 151.223394 -40.769967 
L 150.859137 -37.261716 
L 147.648542 -31.325334 
L 142.021351 -32.965606 
L 141.741554 -25.51434 
L 140.114118 -23.062397 
L 140.876118 -20.004909 
L 137.323591 -18.29692 
L 133.53145 -29.717991 
L 131.543479 -29.695294 
L 130.36662 -25.093901 
L 126.424535 -28.825394 
L 128.647656 -32.923004 
L 131.868668 -33.338979 
L 135.188652 -39.432188 
L 131.037091 -40.661509 
L 124.359917 -40.554724 
L 117.508987 -41.542199 
L 116.873863 -46.548591 
L 113.436677 -46.903732 
L 107.733955 -50.014984 
L 105.190483 -45.130073 
L 110.387189 -41.318585 
L 105.885882 -38.635772 
L 104.28784 -36.011932 
L 108.71957 -34.082747 
L 107.494342 -29.744221 
L 109.989446 -24.329854 
L 111.110121 -18.4011 
L 110.079114 -15.772237 
L 105.181181 -15.862836 
L 96.305072 -14.368044 
L 96.718814 -8.951816 
L 92.875327 -4.691797 
L 82.513913 0.154233 
L 74.455242 8.625529 
L 69.042364 13.167206 
L 61.868104 17.88022 
L 61.856942 21.192018 
L 51.782394 25.545799 
L 48.41925 25.925869 
L 46.260498 31.417813 
L 48.141314 46.754923 
L 45.090337 53.59525 
L 45.057595 65.827619 
L 41.331683 66.176249 
L 38.054488 71.667821 
L 40.245982 74.040885 
L 33.681173 76.082063 
L 31.256391 80.978695 
L 28.367265 83.04815 
L 21.549448 76.325211 
L 15.454565 58.980595 
L 12.931928 55.575036 
L 9.106673 48.658063 
L 6.075788 35.156003 
L -0.473765 25.267304 
L -5.609452 2.100718 
L -5.583779 -6.620424 
L -6.980159 -13.363268 
L -17.458031 -9.053577 
L -22.532698 -9.916781 
L -31.938263 -18.642946 
L -28.476521 -21.245577 
L -30.602903 -24.070893 
z
" clip-path="url(#pf9e185b119)" style="fill: #e8edf4; stroke: #b8c5d4; stroke-width: 0.45"/>
    <path d="M 286.120462 328.439125 
L 289.284176 331.552981 
L 286.854929 324.873203 
L 290.425688 326.960889 
L 292.556534 329.748812 
L 292.436356 326.061223 
L 286.513368 315.970304 
L 287.294716 311.805721 
L 288.770347 310.03355 
L 289.752613 306.43191 
L 288.983171 302.223423 
L 291.958245 297.042343 
L 292.502212 302.525916 
L 295.543887 297.572544 
L 301.393204 295.165249 
L 304.901083 292.094552 
L 310.403631 289.452109 
L 313.677478 288.889911 
L 315.659124 289.777671 
L 321.332824 287.0943 
L 325.699814 286.295837 
L 326.792212 284.718258 
L 328.697956 284.061182 
L 332.67762 284.230846 
L 340.244786 282.122696 
L 344.158966 278.92624 
L 345.996993 275.078289 
L 350.219991 271.42307 
L 350.73196 264.635763 
L 355.770536 258.517439 
L 358.803281 264.733618 
L 361.867281 263.297054 
L 359.303344 259.894843 
L 361.562927 256.401475 
L 364.739663 257.961194 
L 365.614029 252.482831 
L 369.5483 248.940721 
L 371.28438 246.098848 
L 374.904624 244.872505 
L 375.017734 242.86072 
L 378.181075 243.700855 
L 378.308323 241.891105 
L 384.954243 239.889367 
L 390.273361 243.193723 
L 394.269768 247.458021 
L 403.354609 248.182442 
L 401.82912 244.228823 
L 405.278212 238.454664 
L 408.524154 236.573104 
L 407.401245 234.774144 
L 410.528124 230.662023 
L 414.88916 228.122271 
L 418.572656 228.977661 
L 424.622148 227.621092 
L 424.491923 223.941689 
L 419.217826 221.571229 
L 423.052011 220.52534 
L 427.820836 222.310161 
L 431.646091 225.262911 
L 437.710093 227.105031 
L 439.766154 226.376517 
L 444.229137 228.589964 
L 448.435392 226.528322 
L 451.140343 227.15526 
L 452.825822 225.771903 
L 456.131666 229.334104 
L 454.2129 233.188008 
L 451.478927 236.096854 
L 449.004659 236.336467 
L 449.838841 239.214803 
L 445.166382 246.351112 
L 445.681327 248.383732 
L 451.405257 252.361908 
L 456.950593 254.669488 
L 465.863165 261.414751 
L 467.893181 261.407681 
L 471.661509 263.25129 
L 472.75614 265.475526 
L 479.629767 267.917796 
L 484.383337 265.457295 
L 487.253488 258.399865 
L 490.335718 248.723432 
L 489.336337 245.241598 
L 489.855747 243.146842 
L 489.023054 239.026164 
L 489.966624 233.601751 
L 491.347377 232.139142 
L 490.226329 229.734824 
L 493.333116 221.961903 
L 493.514687 219.907703 
L 496.189872 217.210937 
L 498.220632 220.732955 
L 498.720695 225.249888 
L 500.514818 226.120533 
L 500.822148 229.14472 
L 503.43929 232.807381 
L 503.979536 236.883039 
L 503.72504 239.498321 
L 506.319114 245.147837 
L 510.938739 242.432467 
L 513.323338 245.480095 
L 516.778011 248.291831 
L 516.038335 251.483078 
L 517.573869 257.656841 
L 518.66664 261.251412 
L 520.480111 262.12987 
L 522.434224 268.283913 
L 521.738452 272.016522 
L 524.069845 276.899573 
L 531.871787 280.661204 
L 541.788577 287.216711 
L 540.845751 288.960976 
L 544.963825 293.475677 
L 547.764027 301.266086 
L 550.637154 299.684043 
L 553.557161 302.804224 
L 555.31631 301.697315 
L 556.556792 309.328105 
L 565.009486 316.496784 
L 570.637421 322.326009 
L 572.660367 328.112447 
L 572.348945 336.674157 
L 575.780177 342.792481 
L 575.367179 349.164557 
L 572.178536 358.921729 
L 572.325132 363.050221 
L 570.899359 368.211209 
L 567.720018 374.760018 
L 562.385646 378.297663 
L 559.756597 383.875369 
L 557.355999 387.434593 
L 555.221804 393.648912 
L 552.443183 397.23753 
L 550.621527 402.62548 
L 549.692095 407.585177 
L 550.060445 409.861876 
L 545.931952 412.363304 
L 537.873281 412.625242 
L 531.228478 415.578364 
L 523.569038 421.457447 
L 517.605495 418.27513 
L 513.19423 417.005626 
L 514.311929 413.252552 
L 510.376913 414.61433 
L 504.07181 419.828151 
L 482.677767 414.139196 
L 478.023539 409.701141 
L 476.687435 404.23394 
L 475.013863 400.596209 
L 471.476218 397.675829 
L 464.549385 396.808533 
L 466.916124 393.316281 
L 465.174463 387.970003 
L 461.658027 392.95314 
L 455.25172 394.27585 
L 459.017072 390.292838 
L 460.107982 386.137928 
L 462.888835 382.611446 
L 462.314359 377.28005 
L 456.457228 383.419955 
L 451.958898 385.882316 
L 449.201113 391.60885 
L 443.57913 388.646426 
L 443.802372 384.825264 
L 439.296601 379.604002 
L 435.498507 376.90612 
L 436.852099 375.244082 
L 427.613593 370.880813 
L 422.554181 370.675058 
L 415.62958 367.169784 
L 402.737716 367.851045 
L 385.220646 372.832322 
L 378.350739 372.354956 
L 370.718089 376.047009 
L 364.475865 377.708303 
L 363.088415 381.483701 
L 360.429601 384.40929 
L 349.798064 385.224496 
L 343.434173 383.91146 
L 333.314605 385.027671 
L 329.032075 388.867436 
L 326.932855 388.541875 
L 319.859798 392.866076 
L 309.780785 392.580698 
L 302.143298 387.982281 
L 298.273023 386.614923 
L 298.430036 382.488663 
L 302.004888 381.508258 
L 303.225651 379.868916 
L 302.971527 377.282655 
L 303.851845 372.276449 
L 303.045197 368.009547 
L 299.238545 360.731479 
L 298.05871 356.621218 
L 298.368273 352.519887 
L 295.502215 347.833662 
L 295.318784 345.71807 
L 292.12977 342.850152 
L 291.231964 337.21031 
L 287.117983 331.510565 
z
" clip-path="url(#pf9e185b119)" style="fill: #e8edf4; stroke: #b8c5d4; stroke-width: 0.45"/>
    <path d="M 512.050114 436.770373 
L 512.235032 433.468621 
L 516.945443 434.106349 
L 523.901669 436.591407 
L 533.442668 434.219459 
L 537.761288 434.70315 
L 538.271025 443.249605 
L 535.804571 445.73057 
L 535.061174 451.522961 
L 532.544863 449.55136 
L 527.54647 454.5691 
L 521.62832 453.958161 
L 517.189893 447.795188 
L 516.204651 443.04199 
z
" clip-path="url(#pf9e185b119)" style="fill: #e8edf4; stroke: #b8c5d4; stroke-width: 0.45"/>
    <path d="M 43.885201 81.353927 
L 47.144165 69.666641 
L 52.119489 73.667327 
L 55.471099 78.737715 
L 58.953305 86.234002 
L 57.86872 93.731218 
L 54.849741 95.780582 
L 48.58817 97.427737 
L 45.161775 91.703063 
z
" clip-path="url(#pf9e185b119)" style="fill: #e8edf4; stroke: #b8c5d4; stroke-width: 0.45"/>
    <path d="M 0.542731 -143.504906 
L 2.592094 -145.152061 
L 1.600155 -146.836609 
L 8.473409 -150.238262 
L 13.448362 -151.64692 
L 21.06985 -150.681212 
L 23.792288 -155.278699 
L 33.027818 -156.134274 
L 35.594359 -158.992146 
L 46.939899 -162.892373 
L 47.95193 -164.519995 
L 47.377081 -168.624489 
L 52.316687 -170.498607 
L 45.835966 -183.006122 
L 60.098909 -185.882598 
L 63.784266 -187.485477 
L 68.979484 -200.376225 
L 83.262891 -198.006881 
L 87.267484 -201.26138 
L 87.611277 -208.481405 
L 93.591191 -209.154108 
L 99.071786 -213.947862 
L 101.889103 -214.539825 
L 103.779592 -209.516132 
L 109.830944 -205.697388 
L 120.101945 -202.993554 
L 125.069827 -197.194652 
L 122.297531 -188.781956 
L 124.887885 -185.659728 
L 143.141282 -183.423399 
L 151.840286 -178.936789 
L 156.289503 -178.137582 
L 159.569675 -171.500034 
L 163.79565 -167.224574 
L 171.732654 -167.392006 
L 186.593886 -165.777779 
L 196.170232 -166.779392 
L 203.277891 -165.707085 
L 213.928404 -161.333771 
L 222.64043 -161.340096 
L 225.827956 -159.101349 
L 234.211073 -162.967159 
L 245.842363 -165.466914 
L 256.63389 -165.740013 
L 265.047144 -168.272882 
L 270.213712 -172.129205 
L 275.253032 -174.550452 
L 274.087708 -176.926866 
L 271.788314 -179.69358 
L 275.567804 -184.334971 
L 287.020128 -182.224031 
L 294.194388 -186.046681 
L 305.172695 -188.836092 
L 310.448652 -193.595057 
L 315.516249 -195.643677 
L 325.975146 -196.598967 
L 331.655543 -195.787296 
L 332.444332 -198.346023 
L 325.919335 -203.378832 
L 320.141827 -205.680459 
L 314.607654 -203.023505 
L 307.504459 -204.144553 
L 303.428429 -203.23112 
L 301.574031 -206.174755 
L 310.167366 -218.797426 
L 318.81056 -216.07908 
L 328.956917 -220.628756 
L 328.891608 -223.797024 
L 335.390976 -231.43356 
L 339.39504 -233.741592 
L 339.305681 -237.716829 
L 335.355038 -239.427981 
L 341.30221 -243.010088 
L 350.249385 -244.308427 
L 359.794584 -244.50336 
L 370.571121 -242.359523 
L 376.893712 -239.70815 
L 386.549681 -224.92654 
L 389.21328 -217.873944 
L 401.744288 -215.572321 
L 410.272512 -210.453749 
L 413.188272 -203.688936 
L 424.128168 -203.680512 
L 430.36989 -206.52078 
L 442.269443 -208.643255 
L 438.485832 -202.16484 
L 435.68892 -199.529856 
L 433.221437 -191.641874 
L 428.379264 -184.637448 
L 419.64087 -185.912364 
L 413.461368 -183.369312 
L 415.357597 -177.202942 
L 414.321753 -168.695926 
L 410.643838 -168.501705 
L 410.687998 -164.844175 
L 406.038724 -169.094785 
L 403.176015 -165.059869 
L 392.055949 -161.958849 
L 393.180718 -158.160755 
L 386.955238 -158.422693 
L 383.5374 -160.679299 
L 378.590725 -155.57282 
L 370.655581 -151.702731 
L 364.792497 -147.085152 
L 354.726507 -144.992071 
L 349.425993 -141.627253 
L 341.672792 -139.661791 
L 345.499163 -142.998146 
L 343.992651 -145.801882 
L 349.693884 -150.641586 
L 345.890581 -154.414007 
L 339.614127 -151.872395 
L 331.485135 -146.866003 
L 327.048941 -142.216798 
L 319.98779 -141.870773 
L 316.315456 -138.510978 
L 320.109829 -133.642624 
L 326.002679 -132.460742 
L 326.243781 -129.22894 
L 331.940177 -127.125998 
L 340.008894 -132.26708 
L 346.401062 -129.464088 
L 351.05715 -129.272286 
L 352.223962 -125.500423 
L 342.02998 -123.489569 
L 338.666464 -119.602365 
L 331.664845 -115.990492 
L 327.968698 -110.950986 
L 335.718179 -106.99439 
L 338.546657 -99.912404 
L 342.928902 -93.314295 
L 347.81865 -87.783656 
L 347.70182 -82.435331 
L 343.182654 -80.469125 
L 344.905339 -76.628988 
L 349.14322 -74.394147 
L 348.036683 -68.529761 
L 346.207957 -62.823691 
L 342.184761 -62.176846 
L 331.095577 -44.93362 
L 324.409474 -36.341214 
L 304.493294 -23.636687 
L 296.379557 -22.810133 
L 291.978337 -19.611073 
L 289.488815 -21.948046 
L 285.415761 -18.369846 
L 275.353864 -14.763554 
L 267.735352 -13.659436 
L 265.277083 -6.055435 
L 261.287001 -5.633693 
L 259.399116 -10.859235 
L 261.104315 -13.644367 
L 251.444253 -15.949529 
L 248.041298 -14.777135 
L 240.792624 -16.645672 
L 237.364368 -19.571075 
L 238.502904 -23.718729 
L 231.92098 -25.033625 
L 228.450308 -27.734856 
L 222.31338 -23.897881 
L 215.312505 -23.067048 
L 209.570344 -23.103325 
L 201.974529 -20.291031 
L 203.062462 -12.055441 
L 199.224185 -12.251894 
L 198.360238 -16.919888 
L 193.079072 -14.823644 
L 184.614472 -18.851863 
L 186.710344 -24.833079 
L 182.150994 -26.227599 
L 180.43389 -32.855659 
L 172.833982 -31.661314 
L 173.697185 -40.202188 
L 180.517234 -46.214658 
L 180.595368 -57.663448 
L 177.452863 -59.379994 
L 175.046312 -63.618805 
L 170.83522 -63.083396 
L 163.071601 -64.159423 
L 165.503452 -67.183053 
L 162.127286 -71.660175 
L 156.994576 -68.62836 
L 150.955131 -70.397554 
L 142.656103 -65.812532 
L 136.102456 -60.45751 
L 130.295927 -59.556541 
L 127.143747 -61.492423 
L 123.3397 -61.667668 
L 118.193968 -63.334357 
L 114.305833 -61.507864 
L 109.542589 -56.155075 
L 108.938347 -61.825426 
L 104.547173 -60.3111 
L 96.152523 -61.014685 
L 88.007904 -62.665747 
L 82.163795 -65.827972 
L 76.568974 -67.247235 
L 74.152749 -70.705628 
L 70.107229 -71.738867 
L 62.838091 -76.42993 
L 57.065792 -78.643562 
L 54.081044 -76.921063 
L 44.073841 -81.955546 
L 37.00004 -86.514524 
L 34.980815 -94.450783 
L 40.148127 -93.483215 
L 40.38402 -97.159641 
L 37.519822 -100.844626 
L 38.248336 -106.717942 
L 30.509646 -115.156868 
L 18.668508 -118.068505 
L 16.537661 -123.601004 
L 11.2178 -126.957823 
L 9.936018 -129.023929 
L 8.855898 -133.128051 
L 9.106673 -135.927694 
L 4.734103 -137.566849 
L 2.367736 -136.84187 
z
" clip-path="url(#pf9e185b119)" style="fill: #e8edf4; stroke: #b8c5d4; stroke-width: 0.45"/>
    <path d="M 252.188766 0.951207 
L 255.7372 -2.311477 
L 263.603511 -4.329029 
L 267.743165 -4.158248 
L 269.352369 -1.410695 
L 266.188656 1.75767 
L 264.522153 5.915555 
L 258.301509 9.376553 
L 252.397497 7.14469 
z
" clip-path="url(#pf9e185b119)" style="fill: #e8edf4; stroke: #b8c5d4; stroke-width: 0.45"/>
    <path d="M 333.243167 22.581329 
L 336.142711 24.950673 
L 336.88834 13.686616 
L 339.234243 7.162363 
L 343.593419 7.170735 
L 348.03073 9.226423 
L 350.251245 7.351561 
L 350.906089 9.180844 
L 349.734812 12.165965 
L 352.192708 17.326766 
L 350.296638 23.310401 
L 346.05206 25.696674 
L 344.916501 31.501342 
L 346.527566 37.23569 
L 350.344263 38.028944 
L 353.529185 37.176903 
L 362.522124 41.168659 
L 361.836771 45.088048 
L 364.185279 46.817803 
L 363.437417 50.135926 
L 357.825853 46.601816 
L 355.166294 42.818977 
L 353.313756 45.461979 
L 348.729478 41.15173 
L 342.18997 42.215851 
L 338.606189 40.624879 
L 338.971562 37.648688 
L 341.221099 35.817172 
L 339.072021 34.151971 
L 338.141845 36.74679 
L 334.587085 32.60974 
L 333.510686 29.474303 
z
" clip-path="url(#pf9e185b119)" style="fill: #e8edf4; stroke: #b8c5d4; stroke-width: 0.45"/>
    <path d="M 347.903482 88.61674 
L 350.728984 82.548273 
L 355.265265 80.523094 
L 359.191351 77.81033 
L 361.736312 81.069666 
L 367.210582 79.098065 
L 368.385208 75.885052 
L 373.474014 75.693622 
L 373.047249 70.12559 
L 378.883544 73.540265 
L 381.149452 88.63646 
L 378.696765 95.225081 
L 376.066228 87.88525 
L 372.699736 91.537306 
L 374.998758 96.84247 
L 372.934884 100.216776 
L 364.462471 96.03824 
L 362.438781 90.827024 
L 364.634367 87.403605 
L 360.07353 83.998603 
L 357.811714 86.984095 
L 354.423642 86.706903 
L 349.095595 90.724146 
z
" clip-path="url(#pf9e185b119)" style="fill: #e8edf4; stroke: #b8c5d4; stroke-width: 0.45"/>
    <path d="M 364.800683 49.984121 
L 371.715238 50.142809 
L 373.698372 52.828599 
L 375.720947 60.867922 
L 370.165565 58.957527 
L 370.315881 61.374124 
L 372.077634 65.817201 
L 368.653099 67.430312 
L 368.35321 62.366435 
L 366.185529 61.992505 
L 365.058156 57.633329 
L 369.295292 58.207805 
L 369.201531 55.481832 
z
" clip-path="url(#pf9e185b119)" style="fill: #e8edf4; stroke: #b8c5d4; stroke-width: 0.45"/>
    <path d="M 351.216396 70.463801 
L 354.506986 66.51967 
L 355.301356 62.050548 
L 359.271718 61.627504 
L 358.111975 66.474836 
L 363.441138 59.524376 
L 362.753552 66.392794 
L 360.166919 68.759347 
L 357.911429 73.308465 
L 355.650358 75.440242 
z
" clip-path="url(#pf9e185b119)" style="fill: #e8edf4; stroke: #b8c5d4; stroke-width: 0.45"/>
    <path d="M 347.641544 54.779363 
L 351.963513 57.008251 
L 356.545559 56.997647 
L 356.406032 60.005277 
L 353.071538 63.062579 
L 348.498794 65.224679 
L 348.245042 61.879023 
L 348.756267 58.205945 
z
" clip-path="url(#pf9e185b119)" style="fill: #e8edf4; stroke: #b8c5d4; stroke-width: 0.45"/>
    <path d="M 313.734777 80.154001 
L 317.264236 75.118401 
L 322.465779 70.671603 
L 326.788864 65.690697 
L 330.562773 58.53839 
L 331.845671 64.409101 
L 327.092101 68.373696 
L 323.312983 73.322046 
z
" clip-path="url(#pf9e185b119)" style="fill: #e8edf4; stroke: #b8c5d4; stroke-width: 0.45"/>
    <path d="M 336.408741 43.441823 
L 342.576923 43.706179 
L 345.077236 46.298951 
L 343.167771 52.519967 
z
" clip-path="url(#pf9e185b119)" style="fill: #e8edf4; stroke: #b8c5d4; stroke-width: 0.45"/>
    <path d="M 259.655473 125.953438 
L 264.932174 128.420822 
L 270.495741 127.075416 
L 271.944583 120.979416 
L 275.017884 119.621545 
L 283.648427 118.062757 
L 292.348919 107.813708 
L 295.629091 111.545015 
L 297.140813 109.092141 
L 300.581719 109.32022 
L 301.325115 101.176345 
L 306.869335 96.169023 
L 310.500741 90.541646 
L 313.413308 90.518019 
L 317.112431 94.160402 
L 317.441341 97.290071 
L 328.189708 101.463584 
L 327.676995 104.283877 
L 322.846034 104.641064 
L 324.131909 108.156943 
L 318.830652 110.60963 
L 312.589544 109.396123 
L 304.311724 109.392774 
L 301.817364 117.581484 
L 299.045069 120.085331 
L 295.353759 130.099045 
L 289.482117 131.633649 
L 282.670626 129.615912 
L 279.217814 130.247129 
L 275.022349 133.888023 
L 270.425792 133.369357 
L 265.781239 134.833454 
L 260.857632 130.765423 
z
" clip-path="url(#pf9e185b119)" style="fill: #e8edf4; stroke: #b8c5d4; stroke-width: 0.45"/>
    <path d="M 190.697449 93.855676 
L 191.949094 92.571661 
L 197.823712 95.724957 
L 198.390375 99.422034 
L 203.142829 98.562179 
L 205.496546 95.60422 
L 207.152259 96.276924 
L 211.404279 100.623635 
L 214.424745 105.443992 
L 214.837743 110.29244 
L 214.071279 113.567775 
L 215.297622 120.304666 
L 217.833654 122.288731 
L 220.665109 128.655784 
L 220.527443 131.090054 
L 215.421894 131.570397 
L 200.092597 120.522141 
L 199.249486 116.8539 
L 195.087135 112.038194 
L 194.093335 106.075581 
L 191.496284 102.150053 
L 192.285073 96.907955 
z
" clip-path="url(#pf9e185b119)" style="fill: #e8edf4; stroke: #b8c5d4; stroke-width: 0.45"/>
    <path d="M 292.348919 107.813708 
L 295.199722 105.119919 
L 301.325115 101.176345 
L 300.581719 109.32022 
L 297.140813 109.092141 
L 295.629091 111.545015 
z
" clip-path="url(#pf9e185b119)" style="fill: #e8edf4; stroke: #b8c5d4; stroke-width: 0.45"/>
   </g>
   <g id="PathCollection_1">
    <defs>
     <path id="me97d24f240" d="M 0 2.12132 
C 0.562581 2.12132 1.102195 1.897805 1.5 1.5 
C 1.897805 1.102195 2.12132 0.562581 2.12132 0 
C 2.12132 -0.562581 1.897805 -1.102195 1.5 -1.5 
C 1.102195 -1.897805 0.562581 -2.12132 0 -2.12132 
C -0.562581 -2.12132 -1.102195 -1.897805 -1.5 -1.5 
C -1.897805 -1.102195 -2.12132 -0.562581 -2.12132 0 
C -2.12132 0.562581 -1.897805 1.102195 -1.5 1.5 
C -1.102195 1.897805 -0.562581 2.12132 0 2.12132 
z
" style="stroke: #ffffff; stroke-width: 0.5"/>
    </defs>
    <g clip-path="url(#pf9e185b119)">
     <use xlink:href="#me97d24f240" x="295.68" y="108" style="fill: #8aa0b7; stroke: #ffffff; stroke-width: 0.5"/>
     <use xlink:href="#me97d24f240" x="167.28" y="230.4" style="fill: #8aa0b7; stroke: #ffffff; stroke-width: 0.5"/>
     <use xlink:href="#me97d24f240" x="230.88" y="216" style="fill: #8aa0b7; stroke: #ffffff; stroke-width: 0.5"/>
     <use xlink:href="#me97d24f240" x="53.28" y="90" style="fill: #8aa0b7; stroke: #ffffff; stroke-width: 0.5"/>
     <use xlink:href="#me97d24f240" x="438.48" y="86.4" style="fill: #8aa0b7; stroke: #ffffff; stroke-width: 0.5"/>
     <use xlink:href="#me97d24f240" x="217.44" y="130.56" style="fill: #8aa0b7; stroke: #ffffff; stroke-width: 0.5"/>
     <use xlink:href="#me97d24f240" x="376.68" y="204" style="fill: #8aa0b7; stroke: #ffffff; stroke-width: 0.5"/>
    </g>
   </g>
   <g id="PathCollection_2">
    <defs>
     <path id="mcdecf7ad4e" d="M 0 3.674235 
C 0.974418 3.674235 1.909058 3.287094 2.598076 2.598076 
C 3.287094 1.909058 3.674235 0.974418 3.674235 0 
C 3.674235 -0.974418 3.287094 -1.909058 2.598076 -2.598076 
C 1.909058 -3.287094 0.974418 -3.674235 0 -3.674235 
C -0.974418 -3.674235 -1.909058 -3.287094 -2.598076 -2.598076 
C -3.287094 -1.909058 -3.674235 -0.974418 -3.674235 0 
C -3.674235 0.974418 -3.287094 1.909058 -2.598076 2.598076 
C -1.909058 3.287094 -0.974418 3.674235 0 3.674235 
z
" style="stroke: #ffffff; stroke-width: 1.2"/>
    </defs>
    <g clip-path="url(#pf9e185b119)">
     <use xlink:href="#mcdecf7ad4e" x="230.88" y="216" style="fill: #f97316; stroke: #ffffff; stroke-width: 1.2"/>
    </g>
   </g>
   <g id="PathCollection_3">
    <path d="M 230.88 220.929503 
C 232.187319 220.929503 233.44127 220.410099 234.365685 219.485685 
C 235.290099 218.561271 235.809503 217.307319 235.809503 216 
C 235.809503 214.692681 235.290099 213.438729 234.365685 212.514315 
C 233.44127 211.589901 232.187319 211.070497 230.88 211.070497 
C 229.57268 211.070497 228.318729 211.589901 227.394315 212.514315 
C 226.4699 213.438729 225.950497 214.692681 225.950497 216 
C 225.950497 217.307319 226.4699 218.561271 227.394315 219.485685 
C 228.318729 220.410099 229.57268 220.929503 230.88 220.929503 
L 230.88 220.929503 
z
" clip-path="url(#pf9e185b119)" style="fill: none; stroke: #7c2d12; stroke-width: 1.1"/>
   </g>
  </g>
 </g>
 <defs>
  <clipPath id="pf9e185b119">
   <rect x="0" y="0" width="461.76" height="432"/>
  </clipPath>
 </defs>
</svg>
