<?xml version="1.0" encoding="utf-8" standalone="no"?>
<!DOCTYPE svg PUBLIC "-//W3C//DTD SVG 1.1//EN"
  "http://www.w3.org/Graphics/SVG/1.1/DTD/svg11.dtd">
<svg xmlns:xlink="http://www.w3.org/1999/xlink" width="511.242604pt" height="432pt" viewBox="0 0 511.242604 432" xmlns="http://www.w3.org/2000/svg" version="1.1">
 <metadata>
  <rdf:RDF xmlns:dc="http://purl.org/dc/elements/1.1/" xmlns:cc="http://creativecommons.org/ns#" xmlns:rdf="http://www.w3.org/1999/02/22-rdf-syntax-ns#">
   <cc:Work>
    <dc:type rdf:resource="http://purl.org/dc/dcmitype/StillImage"/>
    <dc:date>2026-06-09T04:57:18.853360</dc:date>
    <dc:format>image/svg+xml</dc:format>
    <dc:creator>
     <cc:Agent>
      <dc:title>Matplotlib v3.10.8, https://matplotlib.org/</dc:title>
     </cc:Agent>
    </dc:creator>
   </cc:Work>
  </rdf:RDF>
 </metadata>
 <defs>
  <style type="text/css">*{stroke-linejoin: round; stroke-linecap: butt}</style>
 </defs>
 <g id="figure_1">
  <g id="patch_1">
   <path d="M 0 432 
L 511.242604 432 
L 511.242604 0 
L 0 0 
z
" style="fill: #eaf3ff"/>
  </g>
  <g id="axes_1">
   <g id="PatchCollection_1">
    <path d="M 247.185768 362.982037 
L 252.470928 362.373735 
L 265.23573 348.403015 
L 265.117761 344.249169 
L 262.365359 341.35183 
L 261.624185 336.318774 
L 265.313298 334.70095 
L 266.052375 327.181387 
L 260.977908 319.969608 
L 265.460933 318.434485 
L 305.514889 317.609467 
L 354.01876 345.050286 
L 354.890556 352.464966 
L 373.235475 365.241557 
L 367.334712 380.99013 
L 368.091735 388.233288 
L 376.274556 392.889941 
L 376.657988 396.213018 
L 373.139233 403.931503 
L 373.872099 407.815796 
L 373.034812 413.921311 
L 382.787787 434.535763 
L 387.47831 437.330982 
L 377.309822 444.741188 
L 363.334451 449.704361 
L 355.666878 449.494594 
L 351.112346 453.32853 
L 342.214948 453.657993 
L 338.878203 455.273527 
L 323.519405 451.671931 
L 313.902819 452.705581 
L 310.32426 435.323077 
L 303.418907 425.828663 
L 290.889059 423.444343 
L 283.635669 419.606955 
L 270.418597 415.315326 
L 265.079414 412.061614 
L 258.177474 395.957153 
L 250.764908 388.800194 
L 248.208191 381.386968 
L 249.486219 374.740559 
z
" clip-path="url(#p5d6cd26fe7)" style="fill: #e8edf4; stroke: #b8c5d4; stroke-width: 0.45"/>
    <path d="M 27.89259 379.468934 
L 31.143471 378.118914 
L 31.543722 372.547106 
L 33.634801 369.261218 
L 38.2859 366.575047 
L 41.64378 367.876853 
L 46.014836 362.984018 
L 52.976954 363.11017 
L 53.795949 366.728278 
L 58.570557 368.992403 
L 76.766777 350.650217 
L 76.338786 340.134718 
L 81.889459 327.718357 
L 87.745934 321.134694 
L 96.161107 314.974399 
L 97.630014 310.897256 
L 97.948366 306.209831 
L 100.031519 301.774709 
L 99.362453 294.531226 
L 100.95553 283.204988 
L 103.453465 275.231015 
L 107.281606 268.396699 
L 109.188412 251.764166 
L 114.164467 245.274951 
L 121.008359 241.159171 
L 131.52584 245.502817 
L 139.666254 250.217652 
L 158.550694 253.970499 
L 162.37223 246.252131 
L 164.127786 245.267025 
L 169.952557 246.550668 
L 184.181935 240.171754 
L 189.224038 242.875428 
L 193.362605 242.492019 
L 195.279318 239.384131 
L 200.029489 238.289056 
L 217.841309 239.928037 
L 222.061115 238.572072 
L 229.803259 249.123237 
L 235.542169 250.673053 
L 238.963454 248.526824 
L 244.873428 249.367945 
L 251.991419 246.664271 
L 255.026985 252.123137 
L 266.278919 260.616577 
L 265.505498 275.561255 
L 270.628179 277.292042 
L 266.519334 281.830199 
L 261.609327 285.224735 
L 256.722437 291.889967 
L 254.033623 297.832305 
L 253.314361 308.091538 
L 250.353429 312.975126 
L 250.246432 322.610866 
L 246.570861 326.173495 
L 246.097297 333.77892 
L 244.341742 334.764356 
L 243.158822 341.756196 
L 246.372717 347.567097 
L 247.185768 362.982037 
L 249.486219 374.740559 
L 248.208191 381.386968 
L 250.764908 388.800194 
L 258.177474 395.957153 
L 265.079488 412.061633 
L 260.04465 410.761148 
L 242.877458 412.918276 
L 239.451549 414.445966 
L 235.809003 422.604873 
L 238.669541 428.241408 
L 234.816962 456.202822 
L 247.205582 463.450928 
L 250.713391 461.1267 
L 251.782047 474.908932 
L 242.000341 474.803256 
L 232.041626 462.322829 
L 222.24737 460.536891 
L 219.379567 453.839625 
L 211.56609 457.874497 
L 201.331294 456.091862 
L 197.059971 450.288886 
L 188.944655 449.109929 
L 182.954764 449.418373 
L 182.221631 445.445587 
L 171.992119 444.370326 
L 155.357274 447.14302 
L 156.04087 431.93349 
L 151.777473 427.190585 
L 150.839592 419.330214 
L 152.72262 411.625717 
L 150.132218 406.694574 
L 149.897747 398.652571 
L 134.389681 398.764193 
L 135.502589 394.159327 
L 128.981672 394.207542 
L 128.292791 396.422131 
L 120.365712 396.921454 
L 115.243691 407.565747 
L 108.18118 405.760656 
L 103.964016 407.558482 
L 95.512516 408.592133 
L 87.680546 397.776115 
L 80.859771 380.587787 
L 43.14373 380.418704 
L 29.68315 383.433134 
z
" clip-path="url(#p5d6cd26fe7)" style="fill: #e8edf4; stroke: #b8c5d4; stroke-width: 0.45"/>
    <path d="M 395.970817 269.878324 
L 410.637856 251.350764 
L 418.831285 251.114826 
L 430.22177 242.104686 
L 446.872047 241.541425 
L 482.989037 203.180592 
L 497.670768 184.664037 
L 497.79954 159.627613 
L 514.550088 156.190111 
L 520.598599 151.814769 
L 525.444923 151.779749 
L 524.602779 169.46542 
L 521.904312 174.081685 
L 518.302736 187.897761 
L 504.247527 218.496653 
L 493.279456 237.227943 
L 467.336578 268.973808 
L 454.545671 279.320464 
L 435.427243 292.011167 
L 423.512989 301.732828 
L 409.525392 317.215299 
L 406.577822 323.954883 
L 403.691602 326.981183 
L 396.12355 316.437316 
z
" clip-path="url(#p5d6cd26fe7)" style="fill: #e8edf4; stroke: #b8c5d4; stroke-width: 0.45"/>
    <path d="M 305.38526 304.063922 
L 315.335716 290.424909 
L 319.986618 281.108791 
L 312.869354 260.023101 
L 306.809467 251.149399 
L 323.335476 235.094911 
L 329.974479 237.239164 
L 329.974479 244.412747 
L 334.340887 248.619015 
L 343.236695 248.619015 
L 359.415245 259.473451 
L 366.447707 259.25023 
L 369.277051 260.72427 
L 377.800414 261.729884 
L 381.577931 256.403631 
L 393.253946 251.058206 
L 398.408805 255.377311 
L 407.14189 255.379587 
L 395.970817 269.878324 
L 396.12355 316.437316 
L 403.691602 326.981183 
L 394.740256 332.084663 
L 391.584355 337.417434 
L 386.793884 338.354286 
L 384.98089 347.359697 
L 380.876507 352.516601 
L 378.382026 361.020738 
L 373.235475 365.241557 
L 354.890556 352.464966 
L 354.01876 345.050286 
L 305.514889 317.609467 
z
" clip-path="url(#p5d6cd26fe7)" style="fill: #e8edf4; stroke: #b8c5d4; stroke-width: 0.45"/>
    <path d="M 152.565146 144.577108 
L 153.853221 139.882878 
L 157.163389 134.554963 
L 155.715422 129.261557 
L 159.916942 125.341605 
L 157.251962 122.355437 
L 160.631787 114.463512 
L 166.468133 105.051153 
L 177.489245 105.944293 
L 177.017751 49.846154 
L 191.715976 49.807299 
L 191.715976 24.284024 
L 343.379034 24.284024 
L 347.5008 36.824166 
L 344.697785 39.142779 
L 346.554746 52.30063 
L 351.246547 67.55956 
L 363.111209 75.429917 
L 356.64284 82.724933 
L 347.229202 84.82614 
L 343.203934 88.744686 
L 341.943209 97.240133 
L 336.438788 116.020246 
L 337.797288 121.137529 
L 335.761392 132.113652 
L 330.564738 144.70364 
L 322.855967 151.035636 
L 317.374679 160.799091 
L 316.090438 166.023863 
L 310.036047 169.603583 
L 306.255025 182.979096 
L 306.42578 194.469529 
L 306.277683 184.50381 
L 304.508409 184.251057 
L 304.727826 177.887955 
L 303.191905 173.499609 
L 296.609386 168.453011 
L 295.073465 159.237484 
L 296.609386 149.80254 
L 290.685119 148.924871 
L 289.80745 151.777296 
L 282.127844 152.435548 
L 285.199687 156.165642 
L 286.296773 163.845248 
L 279.275419 170.866601 
L 272.912318 180.082128 
L 266.329799 181.398632 
L 255.578351 173.938444 
L 250.75117 176.571451 
L 249.434667 180.301545 
L 242.852148 182.715136 
L 242.413313 185.348143 
L 229.68711 185.348143 
L 227.931771 182.715136 
L 218.716244 182.276301 
L 214.108481 184.470474 
L 210.597804 183.373387 
L 201.821112 172.402522 
L 192.605586 174.157861 
L 189.094909 180.082128 
L 185.803649 191.491828 
L 177.49039 195.298129 
L 186.186492 200.289669 
L 176.453 194.70267 
L 172.02052 191.022146 
L 171.199543 187.05002 
L 173.276092 181.731176 
L 173.238445 176.516027 
L 165.866829 168.525212 
L 164.571806 159.960014 
L 159.874381 156.192795 
L 159.732895 148.76853 
L 157.053856 143.837467 
z
" clip-path="url(#p5d6cd26fe7)" style="fill: #e8edf4; stroke: #b8c5d4; stroke-width: 0.45"/>
    <path d="M 45.25 121.840185 
L 50.768563 105.004502 
L 67.071593 92.952778 
L 67.745283 76.329161 
L 72.669821 50.393438 
L 75.44978 44.891971 
L 70.131597 40.510678 
L 69.925974 36.445846 
L 65.143653 33.12189 
L 62.004781 13.254604 
L 74.907905 6.266301 
L 176.860033 55.208194 
L 177.489245 105.944293 
L 166.468133 105.051153 
L 160.631787 114.463512 
L 157.251962 122.355437 
L 159.916942 125.341605 
L 155.715422 129.261557 
L 157.163389 134.554963 
L 153.853221 139.882878 
L 152.565146 144.577108 
L 157.053856 143.837467 
L 159.732895 148.76853 
L 159.874381 156.192795 
L 164.571806 159.960014 
L 164.417736 163.055778 
L 156.326858 165.235031 
L 149.842928 170.409231 
L 140.602815 184.354272 
L 128.573495 190.275474 
L 116.231108 189.481247 
L 112.62687 190.65624 
L 113.892349 195.155429 
L 101.800284 204.61317 
L 85.709674 209.503033 
L 82.516915 206.60881 
L 80.400077 206.359149 
L 78.044145 209.646687 
L 67.477128 210.607355 
L 69.479042 207.14512 
L 63.649647 193.043875 
L 58.083123 190.874199 
L 50.539122 183.414739 
L 53.31578 177.383568 
L 59.140551 178.66754 
L 62.746771 177.757399 
L 69.885238 177.88256 
L 62.928403 166.26472 
L 63.396023 157.774912 
L 62.542353 149.294982 
L 57.460951 141.110675 
L 58.73898 135.090401 
L 50.542425 134.796157 
L 50.570825 126.574835 
z
" clip-path="url(#p5d6cd26fe7)" style="fill: #e8edf4; stroke: #b8c5d4; stroke-width: 0.45"/>
    <path d="M -124.031975 120.854749 
L -123.019129 114.660108 
L -114.827858 114.158144 
L -110.102125 109.616024 
L -92.662815 108.517316 
L -81.309827 106.490303 
L -80.221356 98.615071 
L -73.232819 90.078039 
L -73.268485 60.642764 
L -55.245311 54.943153 
L -18.239946 29.835342 
L 25.555812 5.474534 
L 45.774421 10.985248 
L 52.963083 18.004827 
L 62.004781 13.254604 
L 65.143653 33.12189 
L 69.925974 36.445846 
L 70.131597 40.510678 
L 75.44978 44.891971 
L 72.669821 50.393438 
L 67.745283 76.329161 
L 67.071593 92.952778 
L 50.768563 105.004502 
L 45.25 121.840185 
L 50.570825 126.574835 
L 50.542425 134.796157 
L 58.73898 135.090401 
L 57.460951 141.110675 
L 53.85341 141.843808 
L 53.441931 145.913024 
L 51.064864 146.195379 
L 42.416541 132.202783 
L 39.416642 131.694214 
L 29.422921 138.838294 
L 19.526952 135.108895 
L 12.648054 134.363213 
L 8.959935 136.157737 
L 1.467451 135.770035 
L -6.071926 141.216682 
L -12.590202 141.529089 
L -28.05864 134.92297 
L -34.1159 138.060579 
L -40.638139 137.842621 
L -45.431241 133.015504 
L -58.242568 128.246179 
L -71.978568 129.759999 
L -75.306726 132.524107 
L -77.104552 139.874587 
L -80.768234 145.027981 
L -81.655918 156.4381 
L -91.401959 149.082997 
L -95.983708 149.116021 
L -100.274185 152.859621 
L -99.984895 144.106281 
L -114.721521 141.207435 
L -115.118469 135.022372 
L -122.315718 126.676548 
z
" clip-path="url(#p5d6cd26fe7)" style="fill: #e8edf4; stroke: #b8c5d4; stroke-width: 0.45"/>
    <path d="M -93.407836 225.473105 
L -92.997678 196.740911 
L -90.588248 188.679094 
L -80.451203 176.848909 
L -81.797922 173.411111 
L -79.279512 168.265974 
L -82.15392 160.684325 
L -80.768234 145.027981 
L -77.104552 139.874587 
L -75.306726 132.524107 
L -71.978568 129.759999 
L -58.242568 128.246179 
L -45.431241 133.015504 
L -40.638139 137.842621 
L -34.1159 138.060579 
L -28.05864 134.92297 
L -12.590202 141.529089 
L -6.071926 141.216682 
L 1.467451 135.770035 
L 8.959935 136.157737 
L 12.648054 134.363213 
L 19.526952 135.108895 
L 29.422921 138.838294 
L 39.416642 131.694214 
L 42.416541 132.202783 
L 51.064864 146.195379 
L 53.441931 145.913024 
L 58.501207 151.003672 
L 56.433245 157.560256 
L 45.666102 167.450281 
L 40.485298 182.249983 
L 37.774028 185.098302 
L 35.194855 194.045162 
L 28.359549 199.310177 
L 26.37943 205.777596 
L 23.508324 210.925376 
L 22.312856 216.237946 
L 13.532437 220.544604 
L 6.356984 215.292469 
L 1.511704 215.504483 
L -6.100327 222.985077 
L -9.800995 223.100001 
L -19.16792 244.476431 
L -32.43696 249.076013 
L -37.287524 248.403974 
L -42.202155 251.268145 
L -52.425722 250.988762 
L -59.268294 242.993984 
L -63.476211 233.742643 
L -72.524785 225.321855 
z
" clip-path="url(#p5d6cd26fe7)" style="fill: #e8edf4; stroke: #b8c5d4; stroke-width: 0.45"/>
    <path d="M -19.314547 248.008677 
L -19.16792 244.476431 
L -15.880052 235.43149 
L -9.800995 223.100001 
L -6.100327 222.985077 
L 1.511704 215.504483 
L 6.356984 215.292469 
L 13.532437 220.544604 
L 22.312856 216.237946 
L 23.508324 210.925376 
L 26.37943 205.777596 
L 28.359549 199.310177 
L 35.194855 194.045162 
L 37.774028 185.098302 
L 40.485298 182.249983 
L 45.666102 167.450281 
L 56.433245 157.560256 
L 58.501207 151.003672 
L 53.441931 145.913024 
L 53.85341 141.843808 
L 57.460951 141.110675 
L 62.542353 149.294982 
L 63.396023 157.774912 
L 62.928403 166.26472 
L 69.885238 177.88256 
L 62.746771 177.757399 
L 59.140551 178.66754 
L 53.31578 177.383568 
L 50.539122 183.414739 
L 58.083123 190.874199 
L 63.649647 193.043875 
L 69.479042 207.14512 
L 61.049338 223.560025 
L 57.98207 225.880291 
L 56.995973 235.788149 
L 58.268058 241.17106 
L 57.23837 244.979717 
L 63.278458 251.654196 
L 64.368249 256.24288 
L 69.086717 262.838762 
L 74.931964 266.951239 
L 76.850658 276.484605 
L 75.93127 283.385959 
L 55.441864 276.992845 
L 37.72119 275.794734 
L 30.155393 277.44098 
L 22.388151 275.729016 
L 16.314378 276.568817 
L -4.484132 276.277215 
L -2.617616 266.186073 
L -7.612825 257.736224 
L -13.444202 255.56853 
L -16.041209 249.841509 
z
" clip-path="url(#p5d6cd26fe7)" style="fill: #e8edf4; stroke: #b8c5d4; stroke-width: 0.45"/>
    <path d="M 56.995973 235.788149 
L 57.98207 225.880291 
L 61.049338 223.560025 
L 67.477128 210.607355 
L 78.044145 209.646687 
L 80.400077 206.359149 
L 82.516915 206.60881 
L 85.709674 209.503033 
L 101.800284 204.61317 
L 113.892349 195.155429 
L 112.62687 190.65624 
L 116.231108 189.481247 
L 128.573495 190.275474 
L 140.602815 184.354272 
L 149.842928 170.409231 
L 156.326858 165.235031 
L 164.417736 163.055778 
L 165.866829 168.525212 
L 173.238445 176.516027 
L 173.276092 181.731176 
L 171.199543 187.05002 
L 172.02052 191.022146 
L 193.184936 205.454291 
L 193.302501 209.608379 
L 201.897986 216.264365 
L 207.224756 221.794893 
L 210.451861 229.462073 
L 220.005701 234.520358 
L 222.061115 238.572072 
L 217.841309 239.928037 
L 200.029489 238.289056 
L 195.279318 239.384131 
L 193.362605 242.492019 
L 189.224038 242.875428 
L 184.181935 240.171754 
L 169.952557 246.550668 
L 164.127786 245.267025 
L 162.37223 246.252131 
L 158.550694 253.970499 
L 139.666254 250.217652 
L 131.52584 245.502817 
L 121.008359 241.159171 
L 114.164467 245.274951 
L 109.188412 251.764166 
L 108.039177 260.677671 
L 99.818845 259.964353 
L 91.16788 257.817133 
L 83.550566 264.590354 
L 76.850658 276.484605 
L 74.931964 266.951239 
L 69.086717 262.838762 
L 64.368249 256.24288 
L 63.278458 251.654196 
L 57.23837 244.979717 
L 58.268058 241.17106 
z
" clip-path="url(#p5d6cd26fe7)" style="fill: #e8edf4; stroke: #b8c5d4; stroke-width: 0.45"/>
    <path d="M 13.979582 356.321097 
L 23.710431 349.266512 
L 18.89091 340.815012 
L 23.273854 337.601117 
L 31.897739 336.03578 
L 32.914878 330.371505 
L 39.74424 336.509344 
L 51.027217 337.046974 
L 54.948486 331.007547 
L 56.562038 322.509813 
L 55.168426 312.530623 
L 49.121733 304.972092 
L 54.655233 290.169417 
L 51.465115 287.629212 
L 41.955526 288.670789 
L 38.382991 282.066651 
L 39.312286 276.49154 
L 55.441864 276.992845 
L 75.93127 283.385959 
L 76.850658 276.484605 
L 83.550566 264.590354 
L 91.16788 257.817133 
L 99.818845 259.964353 
L 108.039177 260.677671 
L 107.281606 268.396699 
L 103.453465 275.231015 
L 100.95553 283.204988 
L 99.362453 294.531226 
L 100.031519 301.774709 
L 97.948366 306.209831 
L 97.630014 310.897256 
L 96.161107 314.974399 
L 87.745934 321.134694 
L 81.889459 327.718357 
L 76.338786 340.134718 
L 76.766777 350.650217 
L 58.570557 368.992403 
L 53.795949 366.728278 
L 52.976954 363.11017 
L 46.014836 362.984018 
L 41.64378 367.876853 
L 38.2859 366.575047 
L 33.496101 362.190121 
L 29.634275 364.339983 
L 24.475267 369.858292 
z
" clip-path="url(#p5d6cd26fe7)" style="fill: #e8edf4; stroke: #b8c5d4; stroke-width: 0.45"/>
    <path d="M -15.362896 319.671071 
L -14.952738 315.424846 
L -12.162211 311.338457 
L -6.481423 292.557052 
L 16.424678 291.949411 
L 16.314378 276.568817 
L 22.388151 275.729016 
L 30.155393 277.44098 
L 37.72119 275.794734 
L 39.312286 276.49154 
L 38.382991 282.066651 
L 41.955526 288.670789 
L 51.465115 287.629212 
L 54.655233 290.169417 
L 49.121733 304.972092 
L 55.168426 312.530623 
L 56.562038 322.509813 
L 54.948486 331.007547 
L 51.027217 337.046974 
L 39.74424 336.509344 
L 32.914878 330.371505 
L 31.897739 336.03578 
L 23.273854 337.601117 
L 18.89091 340.815012 
L 23.710431 349.266512 
L 13.979582 356.321097 
L 0.845279 343.420605 
L -7.601597 332.874063 
z
" clip-path="url(#p5d6cd26fe7)" style="fill: #e8edf4; stroke: #b8c5d4; stroke-width: 0.45"/>
    <path d="M -8.875002 290.629772 
L -4.484132 276.277215 
L 16.314378 276.568817 
L 16.424678 291.949411 
L -6.481423 292.557052 
z
" clip-path="url(#p5d6cd26fe7)" style="fill: #e8edf4; stroke: #b8c5d4; stroke-width: 0.45"/>
    <path d="M 151.939291 510.990946 
L 152.527778 470.323221 
L 179.141153 470.484378 
L 178.052022 466.072373 
L 179.956185 461.285215 
L 177.709893 455.2907 
L 179.163609 449.092096 
L 177.812928 445.123933 
L 182.221631 445.445587 
L 182.954764 449.418373 
L 188.944655 449.109929 
L 197.059971 450.288886 
L 201.331294 456.091862 
L 211.56609 457.874497 
L 219.379567 453.839625 
L 222.24737 460.536891 
L 232.041626 462.322829 
L 242.000341 474.803256 
L 251.782047 474.908932 
L 250.713391 461.1267 
L 247.205582 463.450928 
L 234.816962 456.202822 
L 238.669541 428.241408 
L 235.809003 422.604873 
L 239.451549 414.445966 
L 242.877458 412.918276 
L 260.04465 410.761148 
L 265.079414 412.061614 
L 270.418597 415.315326 
L 283.635669 419.606955 
L 290.889059 423.444343 
L 296.921882 429.146265 
L 300.172103 439.995307 
L 297.994501 443.458864 
L 295.425234 453.819811 
L 297.880899 464.409945 
L 293.859237 468.858937 
L 289.978918 480.732383 
L 296.699961 484.042708 
L 257.915263 494.577362 
L 259.126583 503.67349 
L 249.44593 505.423101 
L 242.168763 510.51474 
L 240.614654 514.9459 
L 236.03951 515.95115 
L 224.924295 526.462687 
L 217.845932 534.734536 
L 213.530357 535.031092 
L 209.378581 533.558882 
L 195.093062 532.159325 
L 187.656059 527.262528 
L 179.367698 526.526753 
L 168.902394 529.431544 
L 160.561855 521.447663 
z
" clip-path="url(#p5d6cd26fe7)" style="fill: #e8edf4; stroke: #b8c5d4; stroke-width: 0.45"/>
    <path d="M 289.978918 480.732383 
L 293.859237 468.858937 
L 297.880899 464.409945 
L 295.425234 453.819811 
L 297.994501 443.458864 
L 300.172103 439.995307 
L 296.921882 429.146265 
L 290.889059 423.444343 
L 303.418907 425.828663 
L 310.32426 435.323077 
L 313.902819 452.705581 
L 310.324339 462.419259 
L 313.902819 479.03429 
L 318.339922 478.848034 
L 322.951392 482.968768 
L 328.305242 492.212183 
L 329.392392 508.646243 
L 323.860213 511.337698 
L 319.958758 520.205961 
L 311.618879 512.310585 
L 310.673072 503.30098 
L 313.361886 497.358642 
L 312.620167 492.237282 
L 307.574101 489.002912 
L 304.057706 490.177245 
L 296.699961 484.042708 
z
" clip-path="url(#p5d6cd26fe7)" style="fill: #e8edf4; stroke: #b8c5d4; stroke-width: 0.45"/>
    <path d="M 20.962175 518.567971 
L 22.7316 507.329246 
L 27.141624 495.628185 
L 27.806727 490.1429 
L 31.95388 478.62149 
L 35.000674 473.383884 
L 46.442826 459.334157 
L 47.784922 449.866179 
L 47.115855 442.622036 
L 43.293659 438.052836 
L 36.750285 422.630632 
L 37.436523 419.974182 
L 41.365057 414.90698 
L 34.870559 394.003454 
L 28.467867 385.917199 
L 29.68315 383.433134 
L 43.14373 380.418704 
L 80.859771 380.587787 
L 87.680546 397.776115 
L 95.512516 408.592133 
L 103.964016 407.558482 
L 108.18118 405.760656 
L 115.243691 407.565747 
L 120.365712 396.921454 
L 128.292791 396.422131 
L 128.981672 394.207542 
L 135.502589 394.159327 
L 134.389681 398.764193 
L 149.897747 398.652571 
L 150.132218 406.694574 
L 152.72262 411.625717 
L 150.839592 419.330214 
L 151.777473 427.190585 
L 156.04087 431.93349 
L 155.357274 447.14302 
L 171.992119 444.370326 
L 177.812928 445.123933 
L 179.163609 449.092096 
L 177.709893 455.2907 
L 179.956185 461.285215 
L 178.052022 466.072373 
L 179.141153 470.484378 
L 152.527778 470.323221 
L 151.939291 510.990946 
L 160.561855 521.447663 
L 168.902394 529.431544 
L 145.412429 534.640088 
L 114.469609 532.831033 
L 105.613895 526.707064 
L 53.804535 527.258565 
L 51.871971 528.156818 
L 44.252675 522.377619 
L 35.966956 521.995862 
L 22.164908 526.604029 
z
" clip-path="url(#p5d6cd26fe7)" style="fill: #e8edf4; stroke: #b8c5d4; stroke-width: 0.45"/>
    <path d="M 24.475267 369.858292 
L 29.634275 364.339983 
L 33.496101 362.190121 
L 38.2859 366.575047 
L 33.634801 369.261218 
L 31.543722 372.547106 
L 31.143471 378.118914 
L 27.89259 379.468934 
z
" clip-path="url(#p5d6cd26fe7)" style="fill: #e8edf4; stroke: #b8c5d4; stroke-width: 0.45"/>
    <path d="M 243.158822 341.756196 
L 250.920121 342.760786 
L 254.833464 335.483619 
L 261.624231 336.31909 
L 262.365359 341.35183 
L 265.117761 344.249169 
L 265.23573 348.403015 
L 252.470928 362.373735 
L 247.185768 362.982037 
L 246.372717 347.567097 
z
" clip-path="url(#p5d6cd26fe7)" style="fill: #e8edf4; stroke: #b8c5d4; stroke-width: 0.45"/>
    <path d="M -238.80653 -44.679333 
L -238.675094 -63.154936 
L -218.035099 -72.586588 
L -205.271987 -74.535334 
L -194.810646 -77.970159 
L -189.922105 -84.370209 
L -174.978418 -89.428494 
L -174.429559 -98.890858 
L -167.035487 -100.005418 
L -161.253647 -104.732472 
L -144.526995 -106.886627 
L -142.183612 -111.853766 
L -145.551399 -114.569659 
L -149.966046 -128.062602 
L -150.726919 -135.836119 
L -155.544459 -144.022107 
L -143.257883 -151.006351 
L -129.439654 -153.227875 
L -121.370572 -158.501476 
L -109.061869 -162.391702 
L -66.260133 -165.706981 
L -59.81385 -163.808762 
L -47.777926 -168.846242 
L -34.120524 -168.944983 
L -28.922547 -165.971173 
L -20.181757 -166.747237 
L -22.778103 -160.187351 
L -20.751751 -148.003149 
L -23.760237 -137.462221 
L -31.639761 -130.333332 
L -30.512983 -120.705847 
L -20.060229 -113.091175 
L -19.949928 -109.997487 
L -12.070404 -104.83914 
L -6.618803 -81.895391 
L -2.484199 -70.610763 
L -1.789375 -64.672058 
L -4.04029 -54.245063 
L -3.116939 -48.417979 
L -4.741059 -41.422837 
L -3.626169 -33.386779 
L -8.698654 -28.045809 
L -1.141444 -18.730071 
L -0.661275 -13.253372 
L 3.883487 -6.126134 
L 9.858848 -8.467865 
L 19.947017 -2.529491 
L 25.555812 5.474534 
L -18.239946 29.835342 
L -55.245311 54.943153 
L -73.268485 60.642764 
L -87.446345 61.894043 
L -87.592972 53.762546 
L -101.468993 48.02826 
L -104.507861 42.039359 
z
" clip-path="url(#p5d6cd26fe7)" style="fill: #e8edf4; stroke: #b8c5d4; stroke-width: 0.45"/>
    <path d="M 336.438788 116.020246 
L 341.943209 97.240133 
L 343.203934 88.744686 
L 347.229202 84.82614 
L 356.64284 82.724933 
L 363.111209 75.429917 
L 370.53104 90.226317 
L 374.052058 101.95809 
L 381.058428 108.183443 
L 398.504342 120.256024 
L 416.529498 139.308225 
L 422.813303 143.152548 
L 418.958743 146.273976 
L 413.487394 145.164398 
L 409.118698 141.028573 
L 403.863252 133.535418 
L 398.196639 129.429628 
L 394.891456 125.016199 
L 383.767456 119.891631 
L 375.004246 119.738769 
L 371.921325 117.066376 
L 364.42587 120.072099 
L 356.669297 114.270007 
L 352.67777 123.808899 
L 337.797288 121.137529 
z
" clip-path="url(#p5d6cd26fe7)" style="fill: #e8edf4; stroke: #b8c5d4; stroke-width: 0.45"/>
    <path d="M 416.725 111.024827 
L 419.283038 110.403316 
L 417.971986 104.563353 
L 419.521472 102.098442 
L 418.95478 96.523992 
L 424.566217 92.44685 
L 423.255164 87.058986 
L 426.642105 80.776502 
L 431.891599 84.099706 
L 435.356476 82.944527 
L 450.106312 82.650943 
L 452.449694 83.928972 
L 464.80463 85.207331 
L 469.70407 84.567986 
L 472.899471 88.828411 
L 478.864265 86.698034 
L 488.023799 73.278074 
L 499.952726 67.526615 
L 536.804859 62.627176 
L 550.973473 92.649287 
L 541.728076 96.082792 
L 539.255239 101.757304 
L 538.95406 106.115811 
L 526.228595 111.511601 
L 505.805237 117.473752 
L 494.361764 126.491614 
L 488.734475 127.196016 
L 484.899729 126.440097 
L 477.429702 131.74441 
L 469.283344 134.205028 
L 455.326084 135.595008 
L 452.532254 138.96973 
L 449.1823 139.902327 
L 447.203503 143.153209 
L 440.877427 142.871184 
L 436.79434 144.605604 
L 427.947873 143.955692 
L 424.623678 136.489628 
L 424.988924 129.503072 
L 422.899165 125.732062 
L 420.397928 116.278944 
z
" clip-path="url(#p5d6cd26fe7)" style="fill: #e8edf4; stroke: #b8c5d4; stroke-width: 0.45"/>
    <path d="M 314.82749 -53.150648 
L 318.964736 -69.74058 
L 333.18883 -67.707623 
L 338.713744 -71.641111 
L 341.772426 -76.242674 
L 351.525072 -78.01276 
L 353.628039 -82.293 
L 357.85511 -84.463667 
L 345.116436 -97.243622 
L 370.713332 -103.657211 
L 373.149182 -105.584491 
L 388.544306 -102.120605 
L 407.587922 -93.174075 
L 443.624362 -67.469851 
L 478.776421 -65.215633 
L 481.959273 -59.126009 
L 490.9986 -59.45757 
L 496.002396 -48.435482 
L 502.290164 -45.516161 
L 504.480315 -41.02721 
L 513.190723 -35.654867 
L 513.964145 -30.380935 
L 512.69074 -26.124143 
L 514.308255 -21.830693 
L 517.983165 -18.248911 
L 521.59665 -10.92452 
L 525.460457 -8.388608 
L 529.003271 -9.296767 
L 536.814106 11.488203 
L 575.234879 17.932505 
L 577.81075 15.230812 
L 583.668546 24.284009 
L 575.147695 49.84623 
L 536.804859 62.627176 
L 499.952726 67.526615 
L 488.023799 73.278074 
L 478.864265 86.698034 
L 472.899471 88.828411 
L 469.70407 84.567986 
L 464.80463 85.207331 
L 452.449694 83.928972 
L 450.106312 82.650943 
L 435.356476 82.944527 
L 431.891599 84.099706 
L 426.642105 80.776502 
L 423.255164 87.058986 
L 424.566217 92.44685 
L 418.95478 96.523992 
L 417.296315 91.06975 
L 413.441755 87.220473 
L 412.456319 82.121899 
L 405.854823 77.542132 
L 399.042633 66.824525 
L 395.437734 56.409419 
L 386.597212 47.614139 
L 380.897271 45.515134 
L 372.432561 33.334234 
L 370.953747 24.451771 
L 371.498642 16.875407 
L 364.167977 2.703821 
L 358.174783 -2.283792 
L 351.270126 -4.927033 
L 347.067493 -12.250433 
L 347.766281 -15.139702 
L 344.214881 -21.765636 
L 340.482509 -24.619239 
L 335.491923 -34.127177 
L 321.190553 -53.212072 
z
" clip-path="url(#p5d6cd26fe7)" style="fill: #e8edf4; stroke: #b8c5d4; stroke-width: 0.45"/>
    <path d="M 187.882551 -78.529292 
L 191.174315 -86.42045 
L 189.196445 -91.886783 
L 193.822551 -98.019905 
L 210.827886 -98.231176 
L 241.735058 -89.084663 
L 251.575072 -93.133832 
L 256.835886 -96.796118 
L 268.107508 -97.850045 
L 277.195228 -96.236308 
L 280.67743 -89.896899 
L 283.643404 -94.072985 
L 293.886788 -91.053202 
L 303.849373 -90.329666 
L 310.138168 -93.549217 
L 318.537373 -71.590963 
L 314.947683 -66.454125 
L 312.197325 -56.798925 
L 308.720364 -50.143953 
L 305.740459 -47.912379 
L 295.712436 -57.740379 
L 286.592762 -76.061141 
L 285.279252 -74.902537 
L 290.575214 -61.415957 
L 298.422021 -48.566641 
L 308.081822 -28.658599 
L 316.907404 -14.490533 
L 328.376364 -0.341382 
L 325.836895 1.886869 
L 326.249212 10.193666 
L 343.379034 24.284024 
L 191.715976 24.284024 
L 191.715976 -68.233691 
z
" clip-path="url(#p5d6cd26fe7)" style="fill: #e8edf4; stroke: #b8c5d4; stroke-width: 0.45"/>
    <path d="M -8.698654 -28.045809 
L -3.626169 -33.386779 
L -4.741059 -41.422837 
L -3.116939 -48.417979 
L -4.04029 -54.245063 
L -1.789375 -64.672058 
L -2.484199 -70.610763 
L -6.618803 -81.895391 
L -0.383213 -84.857643 
L 0.723091 -90.257726 
L -0.636177 -95.552133 
L 8.140279 -100.477331 
L 12.075418 -104.572306 
L 18.305725 -108.241602 
L 19.02829 -118.058644 
L 34.039938 -113.6592 
L 39.407347 -114.758883 
L 50.084904 -112.626234 
L 67.044738 -106.914632 
L 73.030239 -95.554566 
L 102.518073 -87.723735 
L 116.133998 -81.369245 
L 122.366428 -84.685037 
L 128.492521 -90.56356 
L 125.514277 -100.354239 
L 129.52293 -106.571077 
L 138.732327 -112.560284 
L 147.531579 -114.303621 
L 164.821548 -111.68836 
L 169.180402 -105.974073 
L 173.939176 -105.920009 
L 178.008284 -103.739688 
L 190.708062 -102.240341 
L 193.822551 -98.019905 
L 189.196445 -91.886783 
L 191.174315 -86.42045 
L 187.882551 -78.529292 
L 191.715976 -68.233691 
L 191.715976 49.807299 
L 177.017751 49.846154 
L 176.860033 55.208194 
L 74.907905 6.266301 
L 52.963083 18.004827 
L 45.774421 10.985248 
L 25.555812 5.474534 
L 19.947017 -2.529491 
L 9.858848 -8.467865 
L 3.883487 -6.126134 
L -0.661275 -13.253372 
L -1.141444 -18.730071 
z
" clip-path="url(#p5d6cd26fe7)" style="fill: #e8edf4; stroke: #b8c5d4; stroke-width: 0.45"/>
    <path d="M 293.378869 205.967247 
L 297.732355 198.687025 
L 304.515266 198.372866 
L 306.42578 194.469529 
L 306.255025 182.979096 
L 310.036047 169.603583 
L 316.090438 166.023863 
L 317.374679 160.799091 
L 322.855967 151.035636 
L 330.564738 144.70364 
L 335.761392 132.113652 
L 337.797288 121.137529 
L 352.67777 123.808899 
L 356.669297 114.270007 
L 364.42587 120.072099 
L 371.921325 117.066376 
L 375.004246 119.738769 
L 383.767456 119.891631 
L 394.891456 125.016199 
L 398.196639 129.429628 
L 403.863252 133.535418 
L 409.118698 141.028573 
L 413.487394 145.164398 
L 404.671015 156.808331 
L 405.870007 164.225056 
L 413.009127 164.438627 
L 416.086679 163.532322 
L 418.923077 165.810309 
L 416.135631 170.338622 
L 425.570996 183.52996 
L 430.450296 188.091522 
L 472.239138 203.258812 
L 482.989037 203.180592 
L 446.872047 241.541425 
L 430.22177 242.104686 
L 418.831285 251.114826 
L 410.637856 251.350764 
L 407.14189 255.379587 
L 398.408805 255.377311 
L 393.253946 251.058206 
L 381.577931 256.403631 
L 377.800414 261.729884 
L 369.277051 260.72427 
L 366.447707 259.25023 
L 359.415245 259.473451 
L 343.236695 248.619015 
L 334.340887 248.619015 
L 329.974479 244.412747 
L 329.974479 237.239164 
L 323.335476 235.094911 
L 315.782031 221.186301 
L 309.944918 218.223011 
L 307.70542 213.112118 
L 301.227849 206.882755 
z
" clip-path="url(#p5d6cd26fe7)" style="fill: #e8edf4; stroke: #b8c5d4; stroke-width: 0.45"/>
    <path d="M 404.671015 156.808331 
L 413.487394 145.164398 
L 418.958743 146.273976 
L 422.813303 143.152548 
L 425.83764 147.108162 
L 425.435408 152.415118 
L 418.143711 155.47347 
L 423.632298 158.97038 
L 418.923077 165.810309 
L 416.086679 163.532322 
L 413.009127 164.438627 
L 405.870007 164.225056 
z
" clip-path="url(#p5d6cd26fe7)" style="fill: #e8edf4; stroke: #b8c5d4; stroke-width: 0.45"/>
    <path d="M 416.135631 170.338622 
L 423.632298 158.97038 
L 427.790679 161.326312 
L 430.295879 166.611802 
L 436.061868 171.962349 
L 442.407098 172.00495 
L 454.455571 168.735244 
L 468.367258 167.220434 
L 479.617872 163.249629 
L 485.956497 162.408178 
L 490.521734 160.076684 
L 497.79954 159.627613 
L 497.670768 184.664037 
L 482.989037 203.180592 
L 472.239138 203.258812 
L 430.450296 188.091522 
L 425.570996 183.52996 
z
" clip-path="url(#p5d6cd26fe7)" style="fill: #e8edf4; stroke: #b8c5d4; stroke-width: 0.45"/>
    <path d="M 250.246432 322.610866 
L 250.353429 312.975126 
L 253.314361 308.091538 
L 254.033623 297.832305 
L 256.722437 291.889967 
L 261.609327 285.224735 
L 266.519334 281.830199 
L 270.628179 277.292042 
L 265.505498 275.561255 
L 266.278824 260.616505 
L 271.540885 257.130746 
L 279.668237 259.988975 
L 289.956611 256.997567 
L 298.949112 257.027219 
L 306.809467 251.149399 
L 312.869354 260.023101 
L 319.986618 281.108791 
L 315.335716 290.424909 
L 305.38526 304.063922 
L 305.514889 317.609467 
L 265.460933 318.434485 
L 253.340119 323.914654 
z
" clip-path="url(#p5d6cd26fe7)" style="fill: #e8edf4; stroke: #b8c5d4; stroke-width: 0.45"/>
    <path d="M 243.158822 341.756196 
L 244.341742 334.764356 
L 246.097297 333.77892 
L 246.570861 326.173495 
L 250.246432 322.610866 
L 253.340119 323.914654 
L 260.977908 319.969608 
L 266.052375 327.181387 
L 265.313298 334.70095 
L 261.624231 336.31909 
L 254.833464 335.483619 
L 250.920121 342.760786 
z
" clip-path="url(#p5d6cd26fe7)" style="fill: #e8edf4; stroke: #b8c5d4; stroke-width: 0.45"/>
    <path d="M 177.49039 195.298129 
L 185.803649 191.491828 
L 189.094909 180.082128 
L 192.605586 174.157861 
L 201.821112 172.402522 
L 210.597804 183.373387 
L 214.108481 184.470474 
L 218.716244 182.276301 
L 227.931771 182.715136 
L 229.68711 185.348143 
L 242.413313 185.348143 
L 242.852148 182.715136 
L 249.434667 180.301545 
L 250.75117 176.571451 
L 255.578351 173.938444 
L 266.329799 181.398632 
L 272.912318 180.082128 
L 279.275419 170.866601 
L 286.296773 163.845248 
L 285.199687 156.165642 
L 282.127844 152.435548 
L 289.80745 151.777296 
L 290.685119 148.924871 
L 296.609386 149.80254 
L 295.073465 159.237484 
L 296.609386 168.453011 
L 303.191905 173.499609 
L 304.727826 177.887955 
L 304.508409 184.251057 
L 306.277683 184.50381 
L 306.42578 194.469529 
L 304.515266 198.372866 
L 297.732355 198.687025 
L 293.378869 205.967247 
L 301.227849 206.882755 
L 307.70542 213.112118 
L 309.944918 218.223011 
L 315.782031 221.186301 
L 323.335476 235.094911 
L 306.809467 251.149399 
L 298.949112 257.027219 
L 289.956611 256.997567 
L 279.668237 259.988975 
L 271.540885 257.130746 
L 266.278824 260.616505 
L 255.026985 252.123137 
L 251.991419 246.664271 
L 244.873428 249.367945 
L 238.963454 248.526824 
L 235.542169 250.673053 
L 229.803259 249.123237 
L 220.005701 234.520358 
L 210.451861 229.462073 
L 207.224756 221.794893 
L 201.897986 216.264365 
L 193.302501 209.608379 
L 193.184936 205.454291 
z
" clip-path="url(#p5d6cd26fe7)" style="fill: #e8edf4; stroke: #b8c5d4; stroke-width: 0.45"/>
   </g>
   <g id="PathCollection_1">
    <defs>
     <path id="m1c91d4eb1e" d="M 0 2.12132 
C 0.562581 2.12132 1.102195 1.897805 1.5 1.5 
C 1.897805 1.102195 2.12132 0.562581 2.12132 0 
C 2.12132 -0.562581 1.897805 -1.102195 1.5 -1.5 
C 1.102195 -1.897805 0.562581 -2.12132 0 -2.12132 
C -0.562581 -2.12132 -1.102195 -1.897805 -1.5 -1.5 
C -1.897805 -1.102195 -2.12132 -0.562581 -2.12132 0 
C -2.12132 0.562581 -1.897805 1.102195 -1.5 1.5 
C -1.102195 1.897805 -0.562581 2.12132 0 2.12132 
z
" style="stroke: #ffffff; stroke-width: 0.5"/>
    </defs>
    <g clip-path="url(#p5d6cd26fe7)">
     <use xlink:href="#m1c91d4eb1e" x="255.621302" y="350.201183" style="fill: #8aa0b7; stroke: #ffffff; stroke-width: 0.5"/>
     <use xlink:href="#m1c91d4eb1e" x="421.775148" y="158.485207" style="fill: #8aa0b7; stroke: #ffffff; stroke-width: 0.5"/>
     <use xlink:href="#m1c91d4eb1e" x="0" y="279.905325" style="fill: #8aa0b7; stroke: #ffffff; stroke-width: 0.5"/>
     <use xlink:href="#m1c91d4eb1e" x="255.621302" y="331.029586" style="fill: #8aa0b7; stroke: #ffffff; stroke-width: 0.5"/>
    </g>
   </g>
   <g id="PatchCollection_2">
    <defs>
     <path id="m7986004b99" d="M 177.49039 -236.701871 
L 185.803649 -240.508172 
L 189.094909 -251.917872 
L 192.605586 -257.842139 
L 201.821112 -259.597478 
L 210.597804 -248.626613 
L 214.108481 -247.529526 
L 218.716244 -249.723699 
L 227.931771 -249.284864 
L 229.68711 -246.651857 
L 242.413313 -246.651857 
L 242.852148 -249.284864 
L 249.434667 -251.698455 
L 250.75117 -255.428549 
L 255.578351 -258.061556 
L 266.329799 -250.601368 
L 272.912318 -251.917872 
L 279.275419 -261.133399 
L 286.296773 -268.154752 
L 285.199687 -275.834358 
L 282.127844 -279.564452 
L 289.80745 -280.222704 
L 290.685119 -283.075129 
L 296.609386 -282.19746 
L 295.073465 -272.762516 
L 296.609386 -263.546989 
L 303.191905 -258.500391 
L 304.727826 -254.112045 
L 304.508409 -247.748943 
L 306.277683 -247.49619 
L 306.42578 -237.530471 
L 304.515266 -233.627134 
L 297.732355 -233.312975 
L 293.378869 -226.032753 
L 301.227849 -225.117245 
L 307.70542 -218.887882 
L 309.944918 -213.776989 
L 315.782031 -210.813699 
L 323.335476 -196.905089 
L 306.809467 -180.850601 
L 298.949112 -174.972781 
L 289.956611 -175.002433 
L 279.668237 -172.011025 
L 271.540885 -174.869254 
L 266.278824 -171.383495 
L 255.026985 -179.876863 
L 251.991419 -185.335729 
L 244.873428 -182.632055 
L 238.963454 -183.473176 
L 235.542169 -181.326947 
L 229.803259 -182.876763 
L 220.005701 -197.479642 
L 210.451861 -202.537927 
L 207.224756 -210.205107 
L 201.897986 -215.735635 
L 193.302501 -222.391621 
L 193.184936 -226.545709 
z
" style="stroke: #b45309; stroke-width: 1.15"/>
    </defs>
    <g clip-path="url(#p5d6cd26fe7)">
     <use xlink:href="#m7986004b99" x="0" y="432" style="fill: #f59e0b; stroke: #b45309; stroke-width: 1.15"/>
    </g>
   </g>
   <g id="PathCollection_2">
    <path d="M 255.621302 220.135215 
C 256.717974 220.135215 257.769876 219.699502 258.54534 218.924038 
C 259.320804 218.148574 259.756516 217.096672 259.756516 216 
C 259.756516 214.903328 259.320804 213.851426 258.54534 213.075962 
C 257.769876 212.300498 256.717974 211.864785 255.621302 211.864785 
C 254.52463 211.864785 253.472727 212.300498 252.697263 213.075962 
C 251.921799 213.851426 251.486087 214.903328 251.486087 216 
C 251.486087 217.096672 251.921799 218.148574 252.697263 218.924038 
C 253.472727 219.699502 254.52463 220.135215 255.621302 220.135215 
L 255.621302 220.135215 
z
" clip-path="url(#p5d6cd26fe7)" style="fill: none; stroke: #7c2d12; stroke-width: 1.1"/>
   </g>
  </g>
 </g>
 <defs>
  <clipPath id="p5d6cd26fe7">
   <rect x="0" y="0" width="511.242604" height="432"/>
  </clipPath>
 </defs>
</svg>
