<?xml version="1.0" encoding="utf-8" standalone="no"?>
<!DOCTYPE svg PUBLIC "-//W3C//DTD SVG 1.1//EN"
  "http://www.w3.org/Graphics/SVG/1.1/DTD/svg11.dtd">
<svg xmlns:xlink="http://www.w3.org/1999/xlink" width="576pt" height="422.4pt" viewBox="0 0 576 422.4" xmlns="http://www.w3.org/2000/svg" version="1.1">
 <metadata>
  <rdf:RDF xmlns:dc="http://purl.org/dc/elements/1.1/" xmlns:cc="http://creativecommons.org/ns#" xmlns:rdf="http://www.w3.org/1999/02/22-rdf-syntax-ns#">
   <cc:Work>
    <dc:type rdf:resource="http://purl.org/dc/dcmitype/StillImage"/>
    <dc:date>2026-06-09T04:57:09.890969</dc:date>
    <dc:format>image/svg+xml</dc:format>
    <dc:creator>
     <cc:Agent>
      <dc:title>Matplotlib v3.10.8, https://matplotlib.org/</dc:title>
     </cc:Agent>
    </dc:creator>
   </cc:Work>
  </rdf:RDF>
 </metadata>
 <defs>
  <style type="text/css">*{stroke-linejoin: round; stroke-linecap: butt}</style>
 </defs>
 <g id="figure_1">
  <g id="patch_1">
   <path d="M 0 422.4 
L 576 422.4 
L 576 0 
L 0 0 
z
" style="fill: #eaf3ff"/>
  </g>
  <g id="axes_1">
   <g id="PatchCollection_1">
    <path d="M 628.893149 15.209056 
L 637.120368 9.115537 
L 631.42688 -8.791744 
L 645.088626 -19.855842 
L 642.197504 -23.207104 
L 664.01984 -33.81856 
L 643.904 -42.947584 
L 702.847829 -78.547701 
L 710.068969 -88.3396 
L 681.648751 -101.494022 
L 689.497946 -114.005506 
L 672.213048 -128.294494 
L 685.13888 -144.754816 
L 662.808102 -166.610295 
L 680.526587 -181.087303 
L 651.122118 -193.880569 
L 653.925048 -207.323717 
L 669.43136 -209.092864 
L 702.100736 -216.795712 
L 721.908224 -223.47424 
L 753.449024 -211.867264 
L 806.028032 -207.297664 
L 878.572928 -185.58208 
L 893.309504 -176.456896 
L 894.57824 -163.678336 
L 873.263936 -153.590656 
L 841.91264 -148.470976 
L 756.199232 -163.064512 
L 742.101248 -160.624576 
L 773.403584 -146.56288 
L 775.883072 -118.035904 
L 815.604416 -107.196736 
L 818.085824 -116.506432 
L 806.519918 -124.757632 
L 818.739968 -132.029824 
L 865.15424 -120.079168 
L 881.32352 -124.757632 
L 868.40192 -138.818944 
L 913.147328 -157.623616 
L 930.867968 -156.516736 
L 948.7952 -149.806336 
L 959.979392 -163.001728 
L 943.969088 -174.44704 
L 953.36864 -185.929792 
L 939.254144 -197.839168 
L 992.96 -191.68 
L 1003.929728 -180.927424 
L 979.619264 -178.557184 
L 979.750784 -167.87296 
L 994.86368 -161.299264 
L 1024.527872 -165.46336 
L 1029.224192 -177.709696 
L 1136.334656 -203.341696 
L 1150.816832 -202.39648 
L 1131.887744 -190.745152 
L 1155.704576 -188.742784 
L 1169.459456 -195.302272 
L 1205.446784 -195.832576 
L 1233.9584 -203.791744 
L 1255.835264 -192.226048 
L 1277.654528 -204.941248 
L 1257.536 -216.064 
L 1267.52 -222.4 
L 1324.2368 -216.589888 
L 1350.811808 -210.588832 
L 1420.393472 -188.652736 
L 1433.229056 -198.700096 
L 1413.717248 -208.851712 
L 1413.156224 -212.924608 
L 1390.017536 -214.808512 
L 1396.347392 -223.911616 
L 1386.078464 -238.890688 
L 1385.497472 -245.036224 
L 1420.929152 -262.4224 
L 1433.530112 -279.872512 
L 1447.808 -283.648 
L 1498.640768 -278.584768 
L 1502.643776 -267.905152 
L 1484.443712 -252.332416 
L 1496.386112 -246.211648 
L 1502.564096 -232.789888 
L 1498.20224 -206.48032 
L 1519.383104 -194.71168 
L 1511.14304 -181.89568 
L 1473.536 -154.624 
L 1495.481792 -151.795264 
L 1503.118784 -158.707264 
L 1524.243008 -163.637632 
L 1529.340992 -173.138368 
L 1545.9584 -182.281024 
L 1534.769792 -193.196608 
L 1543.728128 -205.872256 
L 1522.733312 -207.452032 
L 1518.115904 -218.130496 
L 1533.43616 -237.4096 
L 1508.50112 -253.065664 
L 1542.863744 -266.006848 
L 1538.417792 -279.659584 
L 1547.993792 -280.095424 
L 1558.083392 -269.450752 
L 1550.508416 -250.922752 
L 1571.054912 -247.415104 
L 1562.300096 -261.260992 
L 1594.43168 -268.809664 
L 1634.278784 -269.826112 
L 1669.76 -258.88 
L 1652.685632 -274.87072 
L 1650.772928 -295.32544 
L 1684.16 -299.2 
L 1730.340992 -298.353472 
L 1771.94816 -300.868096 
L 1756.343552 -310.905664 
L 1778.562944 -323.515456 
L 1800.621632 -324.043456 
L 1837.952 -333.568 
L 1888.651136 -336.127936 
L 1895.056832 -341.38624 
L 1945.472 -343.168 
L 1961.181632 -338.857216 
L 2004.272768 -349.060288 
L 2039.545664 -348.741376 
L 2044.838144 -357.028288 
L 2063.184128 -365.200768 
L 2108.51072 -373.080064 
L 2141.439488 -366.858688 
L 2115.296 -362.12608 
L 2158.786496 -359.184448 
L 2163.968 -349.696 
L 2181.51296 -354.36832 
L 2237.643392 -354.112 
L 2280.924992 -344.747008 
L 2296.336064 -337.554688 
L 2291.559488 -327.573568 
L 2219.864 -311.233216 
L 2205.44 -305.536 
L 2257.648448 -298.004608 
L 2274.935168 -301.637056 
L 2284.727936 -289.31296 
L 2293.161152 -294.301696 
L 2323.862144 -297.33472 
L 2385.465536 -294.164224 
L 2390.144 -285.184 
L 2470.412672 -282.327424 
L 2471.509184 -296.992576 
L 2512.256 -293.632 
L 2542.907648 -293.737408 
L 2573.912192 -283.623232 
L 2582.750144 -271.335424 
L 2571.392 -263.296 
L 2595.507008 -248.186368 
L 2625.700736 -240.390208 
L 2644.2272 -260.53696 
L 2675.027072 -251.899264 
L 2707.749056 -257.0608 
L 2744.91296 -251.154496 
L 2759.054528 -256.538176 
L 2790.460736 -253.846336 
L 2776.599872 -271.670848 
L 2801.948864 -279.988672 
L 2975.36 -267.52 
L 2991.702656 -256.123456 
L 3041.96288 -241.450624 
L 3119.492096 -245.083072 
L 3157.717568 -241.921024 
L 3173.701952 -233.982208 
L 3171.366272 -219.942016 
L 3195.018176 -214.475776 
L 3220.718144 -218.407168 
L 3254.767616 -218.910016 
L 3291.015104 -215.142208 
L 3327.404864 -217.267648 
L 3360.850496 -200.20096 
L 3384.644096 -206.341696 
L 3369.11744 -218.612992 
L 3377.66624 -227.142976 
L 3438.923072 -221.774656 
L 3478.861376 -222.9232 
L 3534.08 -213.76 
L 3560.96 -205.381818 
L 3560.96 -128.890407 
L 3536.13824 -120.350656 
L 3511.256576 -121.757632 
L 3528.5696 -111.537856 
L 3539.9984 -95.717824 
L 3548.870528 -90.546304 
L 3551.098112 -82.603648 
L 3546.1424 -77.51872 
L 3510.35456 -81.70048 
L 3456.690368 -67.24768 
L 3439.618496 -65.010112 
L 3382.3712 -39.734656 
L 3375.31232 -31.009984 
L 3347.848832 -44.29216 
L 3297.823616 -29.22016 
L 3289.088 -36.352 
L 3270.593408 -28.12672 
L 3244.914368 -30.759232 
L 3238.728512 -18.131392 
L 3215.692736 0.449024 
L 3216.377024 8.208896 
L 3238.244672 12.511424 
L 3235.672448 40.462592 
L 3217.847936 41.173952 
L 3209.628032 57.234944 
L 3217.615808 65.501312 
L 3184.040384 75.308864 
L 3177.377216 97.230656 
L 3148.754048 101.913344 
L 3142.998656 121.420352 
L 3115.323968 139.30784 
L 3108.224 126.08 
L 3089.286272 55.404224 
L 3098.516864 28.775936 
L 3114.71648 17.31776 
L 3115.71872 8.344832 
L 3145.555136 4.0496 
L 3179.852288 -20.123584 
L 3212.903168 -39.8656 
L 3247.418048 -55.18528 
L 3262.85216 -82.251712 
L 3239.521664 -80.632384 
L 3227.991872 -64.816 
L 3179.292416 -43.729216 
L 3163.564544 -67.340032 
L 3113.997056 -60.820864 
L 3065.946752 -28.637056 
L 3081.8 -16.86304 
L 3009.262016 -9.873088 
L 3010.65248 -23.756032 
L 2980.807232 -26.670016 
L 2957.020352 -17.238016 
L 2898.314624 -20.538304 
L 2835.158144 -14.847616 
L 2699.382848 67.911872 
L 2729.632832 70.33184 
L 2739.073664 82.355456 
L 2757.72224 86.623808 
L 2770.008896 77.03264 
L 2791.068992 78.278144 
L 2818.789952 99.400256 
L 2819.441216 115.735616 
L 2804.430464 134.918336 
L 2802.811136 157.845824 
L 2794.149056 188.543168 
L 2765.210624 216.32672 
L 2758.778432 229.60736 
L 2694.452288 285.474368 
L 2668.867904 296.739776 
L 2656.760384 296.988992 
L 2644.698944 287.656448 
L 2618.928704 301.707392 
L 2615.936 308.096 
L 2613.248 304.736 
L 2613.130235 294.982119 
L 2622.938009 294.464197 
L 2625.700259 271.778822 
L 2620.643648 255.335168 
L 2637.122321 248.553697 
L 2660.424704 251.953472 
L 2673.337165 233.275002 
L 2679.91712 212.240384 
L 2687.375552 205.21376 
L 2697.46518 187.937986 
L 2665.73304 193.59792 
L 2649.088448 201.171968 
L 2619.915392 201.149504 
L 2612.140032 183.110002 
L 2589.398102 169.460478 
L 2555.98208 163.322816 
L 2548.879149 144.515892 
L 2523.129899 105.098267 
L 2506.269657 98.027939 
L 2477.532224 92.31104 
L 2452.07836 92.830861 
L 2428.219227 96.293099 
L 2412.360102 105.845385 
L 2422.895149 110.408455 
L 2423.13344 121.009088 
L 2412.455936 127.16384 
L 2395.124288 147.527936 
L 2395.298446 155.97665 
L 2368.241493 168.109119 
L 2345.192977 160.860197 
L 2322.285352 162.460595 
L 2312.232509 156.027252 
L 2300.719165 153.952588 
L 2272.596602 167.483545 
L 2247.319634 170.66301 
L 2229.670602 175.421541 
L 2205.487024 172.295158 
L 2187.683212 172.495084 
L 2176.028977 162.680861 
L 2157.22504 153.453517 
L 2137.982555 150.924431 
L 2095.549673 156.99265 
L 2068.273088 148.917248 
L 2064.612032 134.529728 
L 2024.609259 127.34708 
L 2003.100618 119.410572 
L 1983.214204 139.308892 
L 1991.009821 150.609908 
L 1972.347392 163.97984 
L 1944.589184 159.152768 
L 1925.426227 158.46208 
L 1912.593274 149.493697 
L 1892.560832 149.210432 
L 1875.866462 143.318322 
L 1846.662415 152.349213 
L 1810.026884 168.886002 
L 1782.27143 173.792369 
L 1772.083649 162.047845 
L 1747.352384 164.617115 
L 1739.178743 156.467783 
L 1725.754446 152.741127 
L 1716.514204 141.646486 
L 1705.913673 138.191689 
L 1678.322923 143.125838 
L 1651.87418 132.063939 
L 1641.642743 142.116783 
L 1598.737579 93.355232 
L 1574.243446 78.521533 
L 1581.269126 72.501931 
L 1533.148544 90.62048 
L 1514.733032 91.715642 
L 1516.323509 81.236158 
L 1491.66368 74.688217 
L 1471.618516 79.360924 
L 1465.573118 59.461115 
L 1431.068805 55.323197 
L 1413.806727 63.288478 
L 1365.763904 70.376 
L 1356.387844 75.118826 
L 1284.54272 81.8 
L 1275.738876 88.352127 
L 1289.599735 101.504068 
L 1271.167868 106.49626 
L 1274.763555 111.727072 
L 1256.336649 121.079927 
L 1287.449665 134.284951 
L 1282.638548 143.377853 
L 1255.669899 142.549873 
L 1250.091821 148.24751 
L 1225.535744 138.298112 
L 1195.097216 138.68384 
L 1174.725248 146.783168 
L 1109.671493 125.721877 
L 1079.679649 126.218963 
L 1040.045727 147.101533 
L 1037.654555 161.124615 
L 1017.910024 149.989791 
L 1002.590649 171.084689 
L 1008.198493 175.000853 
L 997.115759 189.552275 
L 1013.412608 202.57568 
L 1027.6592 202.039616 
L 1039.898884 214.867939 
L 1037.9504 224.748032 
L 1047.702272 227.852864 
L 1038.951872 239.239232 
L 1020.337472 242.403392 
L 1001.254592 262.22336 
L 1018.706048 280.444928 
L 1016.816384 293.377664 
L 1037.779904 315.989504 
L 1026.315837 323.728271 
L 1023.020782 328.61281 
L 1014.527657 327.301138 
L 1001.332555 315.638967 
L 983.86688 310.545152 
L 977.98936 302.666611 
L 960.08236 298.64974 
L 948.439232 301.664768 
L 945.075008 298.096064 
L 918.93248 288.89024 
L 874.437727 282.5004 
L 872.096165 284.768045 
L 847.616 268.544 
L 825.711104 261.301568 
L 809.128832 250.021952 
L 823.100864 246.953408 
L 839.03264 230.895296 
L 828.295424 223.297856 
L 856.595264 215.4608 
L 856.08704 211.263488 
L 838.85193 214.357955 
L 839.458157 205.829111 
L 849.354944 200.468096 
L 867.93493 199.060408 
L 870.955904 192.657728 
L 866.71328 182.070656 
L 874.511149 172.017345 
L 874.285568 166.37984 
L 845.983774 160.131931 
L 834.764118 160.339299 
L 822.914423 151.348095 
L 808.182423 154.388654 
L 783.79743 147.63781 
L 784.215872 143.860352 
L 777.385915 135.534611 
L 762.076462 134.604931 
L 760.485985 128.644861 
L 765.281227 124.75747 
L 753.011837 113.886568 
L 733.102602 115.741463 
L 727.271516 114.777056 
L 722.421248 119.144 
L 715.250624 118.367744 
L 710.528352 106.072595 
L 706.019852 99.699279 
L 709.714688 97.905344 
L 725.206774 98.571658 
L 732.677946 94.37272 
L 727.147493 89.253529 
L 714.200438 85.874635 
L 715.355344 82.406939 
L 707.541868 78.904517 
L 695.504649 66.333998 
L 699.619251 61.154283 
L 697.739055 52.141252 
L 678.968852 47.562306 
L 668.89418 49.85426 
L 666.166657 45.087791 
L 645.952821 40.272705 
L 639.781415 28.940931 
L 638.144305 19.630244 
z
" clip-path="url(#pbea295d298)" style="fill: #e8edf4; stroke: #b8c5d4; stroke-width: 0.45"/>
    <path d="M 1092.910469 -263.965717 
L 1112.542884 -268.08528 
L 1111.88804 -278.554842 
L 1149.97018 -294.928912 
L 1132.319165 -297.276428 
L 1178.287212 -314.12774 
L 1173.09311 -322.843115 
L 1216.037962 -332.980295 
L 1279.424852 -345.316162 
L 1343.328673 -348.909865 
L 1376.210759 -356.027819 
L 1413.575548 -358.522178 
L 1426.922454 -350.940377 
L 1414.026993 -344.96592 
L 1287.363344 -326.288983 
L 1227.719977 -308.013881 
L 1169.011251 -270.808338 
L 1172.918485 -254.85942 
L 1209.645298 -239.112908 
L 1198.303602 -237.42867 
L 1135.565602 -239.92303 
L 1130.470719 -248.447905 
L 1095.716376 -253.595373 
z
" clip-path="url(#pbea295d298)" style="fill: #e8edf4; stroke: #b8c5d4; stroke-width: 0.45"/>
    <path d="M -3351.04 -128.890407 
L -3351.04 -205.381818 
L -3304 -190.72 
L -3253.6624 -171.633088 
L -3255.3136 -159.69952 
L -3242.364736 -154.922752 
L -3246.818944 -168.874048 
L -3194.700352 -166.011136 
L -3157.111936 -148.043008 
L -3176.148544 -139.674688 
L -3207.6208 -137.687872 
L -3208.096 -118.927168 
L -3215.782336 -114.931648 
L -3233.763328 -115.50592 
L -3248.395264 -122.2 
L -3273.923776 -127.799296 
L -3278.217472 -136.128064 
L -3297.715072 -139.268608 
L -3319.550656 -136.777984 
L -3329.983744 -143.496448 
L -3325.813312 -150.632512 
L -3348.808384 -146.071552 
L -3340.147456 -137.038912 
z
" clip-path="url(#pbea295d298)" style="fill: #e8edf4; stroke: #b8c5d4; stroke-width: 0.45"/>
    <path d="M 2823.566259 121.55965 
L 2825.264884 95.322244 
L 2843.013134 86.486814 
L 2835.38718 77.590861 
L 2843.931899 74.895088 
L 2855.568274 106.0974 
L 2855.077141 124.992123 
L 2863.001743 144.366072 
L 2882.319634 178.373299 
L 2853.899415 172.034213 
L 2842.08643 199.77776 
L 2860.803055 219.454822 
L 2860.261321 232.872174 
L 2845.715852 221.297314 
L 2833.126977 236.158299 
L 2829.572962 220.046166 
L 2831.714102 201.341447 
L 2829.525337 180.62358 
L 2833.96736 166.108869 
L 2834.81568 140.435025 
z
" clip-path="url(#pbea295d298)" style="fill: #e8edf4; stroke: #b8c5d4; stroke-width: 0.45"/>
    <path d="M 728.080149 248.43265 
L 731.471446 244.751635 
L 749.852712 238.369885 
L 746.930971 236.059186 
L 751.989668 231.304202 
L 771.814734 236.179218 
L 774.306409 239.970897 
L 777.203052 240.555676 
L 777.359126 242.216595 
L 786.752165 246.848127 
L 806.335962 245.696197 
L 802.586485 252.54626 
L 781.567985 255.872072 
L 755.504212 266.979611 
L 744.827282 263.074361 
L 749.060946 254.0524 
z
" clip-path="url(#pbea295d298)" style="fill: #e8edf4; stroke: #b8c5d4; stroke-width: 0.45"/>
    <path d="M 966.021594 -428.60435 
L 1003.503462 -432.100819 
L 1032.674766 -432.33299 
L 1036.597876 -427.159725 
L 1047.62604 -431.75653 
L 1065.72354 -434.9226 
L 1094.200313 -430.714733 
L 1086.774782 -427.78778 
L 1043.732696 -423.799682 
L 1041.054782 -420.64899 
L 1018.613485 -417.475479 
L 997.814259 -422.027139 
L 1008.751141 -428.020944 
z
" clip-path="url(#pbea295d298)" style="fill: #e8edf4; stroke: #b8c5d4; stroke-width: 0.45"/>
    <path d="M 1855.636544 -423.836032 
L 1905.491072 -436.95232 
L 1947.025184 -441.28768 
L 1984.32992 -431.62192 
L 2028.543776 -413.058592 
L 2023.803392 -395.794048 
L 1981.912448 -393.39904 
L 1928.433728 -398.939104 
L 1896.567296 -406.2688 
L 1881.83168 -420.040768 
z
" clip-path="url(#pbea295d298)" style="fill: #e8edf4; stroke: #b8c5d4; stroke-width: 0.45"/>
    <path d="M 2734.868288 -326.304064 
L 2745.185792 -339.504064 
L 2770.51664 -343.105792 
L 2821.215008 -342.263488 
L 2890.616672 -332.0824 
L 2875.52 -317.824 
L 2804.745152 -318.355456 
L 2772.904448 -313.820416 
z
" clip-path="url(#pbea295d298)" style="fill: #e8edf4; stroke: #b8c5d4; stroke-width: 0.45"/>
    <path d="M 482.44429 73.739189 
L 486.818844 65.28972 
L 513.314219 59.062752 
L 533.421891 62.426267 
L 541.909063 65.473771 
L 539.860196 70.731373 
L 541.397094 75.631291 
L 506.091094 75.919521 
z
" clip-path="url(#pbea295d298)" style="fill: #e8edf4; stroke: #b8c5d4; stroke-width: 0.45"/>
    <path d="M 2790.331904 -289.980736 
L 2808.544832 -297.569152 
L 2832.551744 -299.345536 
L 2859.830336 -292.0048 
L 2862.15392 -286.958848 
L 2833.042496 -286.824448 
z
" clip-path="url(#pbea295d298)" style="fill: #e8edf4; stroke: #b8c5d4; stroke-width: 0.45"/>
    <path d="M 2014.172288 -377.3632 
L 2049.24608 -402.572608 
L 2065.01792 -404.731072 
L 2079.446048 -403.480768 
L 2128.110656 -392.576128 
L 2122.409024 -384.772288 
z
" clip-path="url(#pbea295d298)" style="fill: #e8edf4; stroke: #b8c5d4; stroke-width: 0.45"/>
    <path d="M -3351.04 -241.258225 
L -3351.04 -254.381715 
L -3332.307136 -255.146176 
L -3304.536544 -249.654016 
L -3306.18064 -247.029184 
L -3325.960576 -242.425984 
z
" clip-path="url(#pbea295d298)" style="fill: #e8edf4; stroke: #b8c5d4; stroke-width: 0.45"/>
    <path d="M 2910.448448 -324.601216 
L 2915.042912 -330.818944 
L 2999.008064 -322.893952 
L 2976.81776 -315.307264 
L 2946.127328 -317.024416 
z
" clip-path="url(#pbea295d298)" style="fill: #e8edf4; stroke: #b8c5d4; stroke-width: 0.45"/>
    <path d="M 3536.48576 -246.37696 
L 3560.96 -254.381715 
L 3560.96 -241.258225 
L 3539.90576 -240.277888 
z
" clip-path="url(#pbea295d298)" style="fill: #e8edf4; stroke: #b8c5d4; stroke-width: 0.45"/>
    <path d="M 200.807899 -71.123162 
L 218.487688 -83.477881 
L 269.185493 -99.596959 
L 307.092016 -119.411936 
L 388.374001 -183.244319 
L 473.293344 -221.774928 
L 515.425594 -230.179252 
L 547.015852 -229.15978 
L 576.253634 -245.065537 
L 611.264954 -244.216225 
L 645.738509 -248.041108 
L 705.793634 -233.992725 
L 681.064352 -228.85617 
L 702.10001 -216.795541 
L 669.43136 -209.092864 
L 653.925048 -207.323717 
L 662.059001 -220.796631 
L 637.420009 -228.432506 
L 607.608743 -221.92574 
L 598.192884 -207.848584 
L 579.88504 -199.35149 
L 559.271352 -203.991951 
L 534.199766 -203.041436 
L 512.862774 -213.192506 
L 501.355384 -208.119948 
L 489.445165 -207.330662 
L 486.628344 -194.698131 
L 450.442274 -197.773912 
L 445.36029 -187.082596 
L 426.922469 -187.147584 
L 395.041501 -152.202244 
L 365.229243 -125.190932 
L 372.22218 -118.632076 
L 365.54079 -111.02299 
L 346.494759 -111.351405 
L 334.02693 -93.343698 
L 335.207634 -67.846959 
L 347.478016 -58.116576 
L 341.127024 -35.544311 
L 325.150821 -22.381951 
L 316.685477 -11.318069 
L 303.805891 -23.100295 
L 265.894407 -0.895139 
L 240.295969 3.605424 
L 213.74404 -6.172584 
L 206.878102 -26.814053 
z
" clip-path="url(#pbea295d298)" style="fill: #e8edf4; stroke: #b8c5d4; stroke-width: 0.45"/>
    <path d="M 305.494976 -410.605888 
L 357.838784 -417.480832 
L 368.355584 -410.759488 
L 395.702144 -411.026752 
L 402.99296 -417.588736 
L 431.18432 -418.256512 
L 518.601536 -397.237312 
L 470.285504 -389.68192 
L 459.617024 -375.552448 
L 442.772672 -371.928832 
L 433.62944 -356.020672 
L 410.49248 -355.27264 
L 369.201728 -366.98272 
L 386.615552 -373.80448 
L 357.83552 -379.358656 
L 320.428352 -395.57056 
z
" clip-path="url(#pbea295d298)" style="fill: #e8edf4; stroke: #b8c5d4; stroke-width: 0.45"/>
    <path d="M 438.425891 -423.402807 
L 497.715048 -428.764588 
L 525.59254 -424.147444 
L 545.009649 -429.89717 
L 593.554407 -425.100936 
L 631.18411 -418.36299 
L 602.71329 -408.022412 
L 547.029743 -405.760225 
L 490.403618 -408.963006 
L 486.987516 -414.25335 
L 459.435462 -414.589701 
z
" clip-path="url(#pbea295d298)" style="fill: #e8edf4; stroke: #b8c5d4; stroke-width: 0.45"/>
    <path d="M 502.899392 -372.679168 
L 516.149312 -377.632768 
L 504.54848 -383.768896 
L 544.337792 -387.614848 
L 551.961728 -380.407168 
L 579.663104 -376.07392 
L 536.774144 -368.222656 
z
" clip-path="url(#pbea295d298)" style="fill: #e8edf4; stroke: #b8c5d4; stroke-width: 0.45"/>
    <path d="M 16.786884 183.984119 
L 41.680372 179.807506 
L 73.922993 184.747111 
L 67.836915 163.014236 
L 85.962196 171.250385 
L 130.664212 156.278275 
L 136.428821 140.545158 
L 153.220602 136.668681 
L 156.001704 143.420517 
L 164.92643 143.737025 
L 187.251641 160.496064 
L 197.105055 159.000838 
L 218.196977 169.420791 
L 223.737352 169.014986 
L 232.798009 174.0424 
L 260.466149 177.578556 
L 250.758587 190.726033 
L 248.321774 204.404826 
L 243.050282 207.684502 
L 234.302165 205.917416 
L 234.919305 210.796002 
L 220.877868 221.585049 
L 220.594102 230.278595 
L 229.761915 227.270283 
L 236.356985 235.689986 
L 235.565219 241.115267 
L 241.215727 248.324502 
L 234.559141 254.172455 
L 239.505196 269.028478 
L 249.912251 271.464299 
L 247.715548 279.798177 
L 230.321509 290.645267 
L 192.45368 285.446701 
L 164.487884 291.67615 
L 162.29118 303.238111 
L 140.03443 305.727013 
L 118.43054 297.0419 
L 111.450501 301.192717 
L 76.106798 292.466924 
L 68.454055 285.002201 
L 78.382876 273.485881 
L 82.039087 235.23358 
L 62.226094 215.084236 
L 48.065098 205.369728 
L 18.722145 197.984877 
z
" clip-path="url(#pbea295d298)" style="fill: #e8edf4; stroke: #b8c5d4; stroke-width: 0.45"/>
    <path d="M -941.915281 1074.332502 
L -937.018339 1066.25808 
L -931.973066 1049.215275 
L -939.51121 1037.837861 
L -941.029753 1024.702291 
L -931.034456 1008.194275 
L -910.377113 1014.850861 
L -890.048183 1031.057252 
L -886.86971 1038.920338 
L -898.227281 1056.490986 
L -904.123355 1070.629658 
L -911.481417 1077.922732 
L -920.674531 1079.294927 
L -923.292913 1073.889986 
L -927.587597 1073.087306 
L -933.5308 1078.293314 
z
" clip-path="url(#pbea295d298)" style="fill: #e8edf4; stroke: #b8c5d4; stroke-width: 0.45"/>
    <path d="M 269.008884 307.394881 
L 272.883376 300.26006 
L 285.248016 292.928291 
L 288.512313 309.392154 
L 282.171243 324.223869 
L 273.453884 320.31465 
z
" clip-path="url(#pbea295d298)" style="fill: #e8edf4; stroke: #b8c5d4; stroke-width: 0.45"/>
    <path d="M 249.430048 464.050373 
L 261.266844 453.341197 
L 265.786259 437.506381 
L 262.742227 419.203002 
L 266.642516 409.348595 
L 287.551876 401.600107 
L 300.992048 403.903967 
L 300.428485 413.618474 
L 316.714251 406.551619 
L 318.080493 410.240076 
L 308.480087 419.647998 
L 308.351102 428.529068 
L 314.998759 433.299506 
L 312.470665 449.916662 
L 299.83218 459.569158 
L 303.481446 470.03376 
L 313.411259 470.360189 
L 318.243212 479.487818 
L 325.544719 482.489681 
L 324.459266 497.23706 
L 315.099962 502.749158 
L 309.188509 508.90072 
L 296.004321 516.299463 
L 298.046243 524.252838 
L 296.384329 532.364963 
L 287.017087 536.814924 
L 278.827571 502.348314 
L 266.990774 494.59933 
L 266.825079 489.951924 
L 251.122719 478.512994 
z
" clip-path="url(#pbea295d298)" style="fill: #e8edf4; stroke: #b8c5d4; stroke-width: 0.45"/>
    <path d="M -61.780476 592.721713 
L -61.583031 564.967252 
L -30.577171 550.798814 
L -11.40414 547.871365 
L 4.311118 542.711494 
L 11.654794 533.097197 
L 34.103532 525.498529 
L 34.92804 511.283955 
L 46.035579 509.609638 
L 54.721188 502.508552 
L 79.848337 499.272533 
L 83.368618 491.810787 
L 78.309454 487.730912 
L 71.677673 467.461513 
L 70.534673 455.783963 
L 63.297657 443.486791 
L 81.754825 432.994904 
L 102.512876 429.657681 
L 114.63443 421.73556 
L 133.124837 415.891576 
L 197.422555 410.911291 
L 207.106305 413.762838 
L 225.186938 406.195424 
L 245.703391 406.047092 
L 253.511907 410.514416 
L 266.642516 409.348595 
L 262.742227 419.203002 
L 265.786259 437.506381 
L 261.266844 453.341197 
L 249.430048 464.050373 
L 251.122719 478.512994 
L 266.825079 489.951924 
L 266.990774 494.59933 
L 278.827571 502.348314 
L 287.017087 536.814924 
L 293.22818 553.766943 
L 294.271962 562.688197 
L 290.890587 578.351861 
L 292.277665 587.105435 
L 289.837876 597.613693 
L 291.512688 609.685638 
L 283.892688 617.708963 
L 295.245298 631.703271 
L 295.966618 639.93049 
L 302.79386 650.637185 
L 311.77018 647.119385 
L 326.924852 656.040142 
L 335.350509 668.063967 
L 269.559548 704.659314 
L 213.969266 742.376826 
L 186.894454 750.938908 
L 165.596157 752.818607 
L 165.375891 740.603291 
L 144.531024 731.989119 
L 139.965969 722.992459 
z
" clip-path="url(#pbea295d298)" style="fill: #e8edf4; stroke: #b8c5d4; stroke-width: 0.45"/>
    <path d="M 316.685477 -11.318069 
L 325.150821 -22.381951 
L 341.127024 -35.544311 
L 347.478016 -58.116576 
L 335.207634 -67.846959 
L 334.02693 -93.343698 
L 346.494759 -111.351405 
L 365.54079 -111.02299 
L 372.22218 -118.632076 
L 365.229243 -125.190932 
L 395.041501 -152.202244 
L 426.922469 -187.147584 
L 445.36029 -187.082596 
L 450.442274 -197.773912 
L 486.628344 -194.698131 
L 489.445165 -207.330662 
L 501.355384 -208.119948 
L 556.917884 -185.651365 
L 557.424891 -156.084178 
L 563.904868 -148.613006 
L 530.87693 -143.175819 
L 512.259524 -129.779303 
L 515.256923 -118.020889 
L 447.63736 -86.068483 
L 433.655454 -59.030381 
L 447.321844 -45.502401 
L 465.684259 -34.852756 
L 448.049118 -13.192311 
L 428.080352 -8.700678 
L 420.756024 23.530533 
L 409.851884 41.517404 
L 386.560282 39.663006 
L 375.693844 54.890603 
L 353.463884 55.774642 
L 347.36193 37.62406 
L 331.288493 15.837111 
z
" clip-path="url(#pbea295d298)" style="fill: #e8edf4; stroke: #b8c5d4; stroke-width: 0.45"/>
    <path d="M 550.390282 110.970033 
L 561.904618 107.050892 
L 562.014751 99.397158 
L 556.688688 92.093666 
L 555.855251 83.600045 
L 574.413126 83.730517 
L 595.257993 76.49747 
L 599.713907 65.658318 
L 615.454962 59.510228 
L 613.651165 50.909947 
L 645.952821 40.272705 
L 666.166657 45.087791 
L 668.89418 49.85426 
L 678.968852 47.562306 
L 697.739055 52.141252 
L 699.619251 61.154283 
L 695.504649 66.333998 
L 707.541868 78.904517 
L 715.355344 82.406939 
L 714.200438 85.874635 
L 727.147493 89.253529 
L 732.677946 94.37272 
L 725.206774 98.571658 
L 709.714688 97.905344 
L 706.019852 99.699279 
L 710.528352 106.072595 
L 715.251055 118.367791 
L 698.768946 119.506814 
L 692.853524 123.722123 
L 691.618251 133.385533 
L 683.981384 131.530142 
L 666.654813 132.4499 
L 661.622438 127.960748 
L 654.418165 131.307892 
L 647.199009 128.53324 
L 632.078071 128.147775 
L 610.648805 123.540056 
L 591.253524 122.035404 
L 576.379641 122.461549 
L 565.857493 127.665076 
L 556.679759 128.413681 
L 556.313641 119.865986 
z
" clip-path="url(#pbea295d298)" style="fill: #e8edf4; stroke: #b8c5d4; stroke-width: 0.45"/>
    <path d="M 529.00368 189.012525 
L 532.752165 181.27247 
L 538.076243 176.27383 
L 542.267243 177.39401 
L 537.314243 168.765947 
L 554.748962 152.796689 
L 564.276938 150.562283 
L 566.335727 145.176193 
L 556.679759 128.413681 
L 565.857493 127.665076 
L 576.379641 122.461549 
L 591.253524 122.035404 
L 610.648805 123.540056 
L 632.078071 128.147775 
L 647.199009 128.53324 
L 654.418165 131.307892 
L 661.622438 127.960748 
L 666.654813 132.4499 
L 683.981384 131.530142 
L 691.618251 133.385533 
L 692.853524 123.722123 
L 698.768946 119.506814 
L 722.421248 119.144 
L 727.271516 114.777056 
L 733.102602 115.741463 
L 753.011837 113.886568 
L 765.281227 124.75747 
L 760.485985 128.644861 
L 762.076462 134.604931 
L 777.385915 135.534611 
L 784.215872 143.860352 
L 783.79743 147.63781 
L 808.182423 154.388654 
L 822.914423 151.348095 
L 834.764118 160.339299 
L 845.983774 160.131931 
L 874.285568 166.37984 
L 874.511149 172.017345 
L 866.71328 182.070656 
L 870.955904 192.657728 
L 867.93493 199.060408 
L 849.354944 200.468096 
L 839.458157 205.829111 
L 838.85193 214.357955 
L 823.522634 215.893365 
L 810.749212 222.104955 
L 792.774743 223.117482 
L 776.236962 230.274627 
L 777.203052 240.555676 
L 774.306409 239.970897 
L 771.814734 236.179218 
L 751.989668 231.304202 
L 746.930971 236.059186 
L 744.292493 233.97251 
L 714.447493 229.11972 
L 713.125899 221.960095 
L 695.335977 224.324478 
L 688.210087 234.897724 
L 673.343149 249.088486 
L 664.634719 245.793431 
L 655.611766 248.882607 
L 647.044227 245.344963 
L 651.877173 243.259385 
L 660.487376 230.550455 
L 659.129071 227.112525 
L 663.144454 225.580588 
L 665.036555 228.238162 
L 676.351462 228.800236 
L 681.433446 227.380416 
L 677.853634 225.433744 
L 679.209954 222.572275 
L 672.505743 217.691209 
L 669.730594 209.664412 
L 662.736665 206.523642 
L 664.115805 200.017373 
L 655.44111 194.851549 
L 647.543298 194.133205 
L 633.392719 188.151306 
L 620.630212 190.050353 
L 616.051266 192.882056 
L 607.951048 192.87908 
L 603.122071 197.366744 
L 588.948673 199.211717 
L 582.39329 202.159506 
L 573.479477 197.467947 
L 561.170399 197.39651 
L 549.290938 195.270252 
L 541.002204 199.381877 
L 539.663743 194.2354 
z
" clip-path="url(#pbea295d298)" style="fill: #e8edf4; stroke: #b8c5d4; stroke-width: 0.45"/>
    <path d="M 375.190805 101.47976 
L 380.543657 96.355111 
L 376.057977 86.585041 
L 389.175688 80.946439 
L 443.318368 65.57051 
L 462.480485 68.81397 
L 463.928087 73.496599 
L 506.091094 75.919521 
L 541.397094 75.631291 
L 551.244555 77.685119 
L 555.855251 83.600045 
L 556.688688 92.093666 
L 562.014751 99.397158 
L 561.904618 107.050892 
L 550.390282 110.970033 
L 556.313641 119.865986 
L 556.679759 128.413681 
L 566.335727 145.176193 
L 564.276938 150.562283 
L 554.748962 152.796689 
L 537.314243 168.765947 
L 542.267243 177.39401 
L 519.829915 168.893939 
L 506.008743 171.607572 
L 496.944118 169.636095 
L 485.600438 173.751193 
L 475.91768 166.945779 
L 468.023837 169.55176 
L 458.103946 158.93833 
L 443.829344 157.778463 
L 442.007688 151.766799 
L 428.840368 149.619705 
L 425.973938 154.577666 
L 415.544063 150.605939 
L 416.741634 145.323533 
L 402.386665 143.653185 
L 393.286321 137.471857 
L 385.41629 125.212388 
L 386.912509 118.59301 
L 382.161915 108.322877 
z
" clip-path="url(#pbea295d298)" style="fill: #e8edf4; stroke: #b8c5d4; stroke-width: 0.45"/>
    <path d="M 286.975415 214.346049 
L 289.91229 209.646056 
L 289.169141 206.238885 
L 294.964509 205.18022 
L 304.680009 210.512236 
L 307.414477 205.445135 
L 324.347149 206.263689 
L 338.074063 202.820799 
L 347.278587 203.410158 
L 353.266438 207.341205 
L 355.056344 204.078396 
L 352.334774 191.5684 
L 359.232462 189.130595 
L 366.002157 180.278299 
L 380.266837 186.458138 
L 391.06779 178.603486 
L 397.825579 177.169775 
L 412.729227 183.029138 
L 421.746227 182.032486 
L 430.597532 185.657939 
L 429.055673 188.095744 
L 430.969602 194.748857 
L 429.512079 202.59458 
L 418.699219 202.632283 
L 422.417938 206.793517 
L 416.044126 219.154189 
L 412.383946 222.394674 
L 395.592165 222.872908 
L 385.903454 227.229107 
L 342.588516 220.782865 
L 338.29929 214.104451 
L 319.324696 217.441674 
L 317.092274 221.093916 
L 295.663009 217.842021 
z
" clip-path="url(#pbea295d298)" style="fill: #e8edf4; stroke: #b8c5d4; stroke-width: 0.45"/>
    <path d="M 416.044126 219.154189 
L 422.417938 206.793517 
L 418.699219 202.632283 
L 429.512079 202.59458 
L 430.969602 194.748857 
L 447.816946 201.758166 
L 463.933048 199.405689 
L 465.478876 195.550049 
L 493.549844 190.830709 
L 498.052391 186.313279 
L 504.344844 185.142002 
L 524.906938 190.97656 
L 529.00368 189.012525 
L 539.663743 194.2354 
L 541.002204 199.381877 
L 529.27554 203.409166 
L 520.189087 216.430635 
L 508.581485 229.451111 
L 493.187696 233.072595 
L 481.204055 232.222787 
L 459.316399 240.137963 
L 443.457274 236.446033 
L 423.004321 225.847982 
L 419.273696 219.366517 
z
" clip-path="url(#pbea295d298)" style="fill: #e8edf4; stroke: #b8c5d4; stroke-width: 0.45"/>
    <path d="M 493.187696 233.072595 
L 508.581485 229.451111 
L 520.189087 216.430635 
L 529.27554 203.409166 
L 549.290938 195.270252 
L 561.170399 197.39651 
L 573.479477 197.467947 
L 582.39329 202.159506 
L 588.948673 199.211717 
L 603.122071 197.366744 
L 607.951048 192.87908 
L 616.051266 192.882056 
L 621.90418 194.753322 
L 645.01818 219.958853 
L 645.632344 228.385998 
L 643.605305 236.583947 
L 647.044227 245.344963 
L 655.611766 248.882607 
L 664.634719 245.793431 
L 673.343149 249.088486 
L 673.789634 254.040494 
L 664.478946 258.171963 
L 658.646868 256.373623 
L 653.275165 279.536736 
L 641.986055 277.520611 
L 628.014071 270.541068 
L 605.411048 275.00492 
L 595.890016 279.901861 
L 567.69304 278.891814 
L 552.940204 275.897392 
L 545.500782 277.303322 
L 536.460962 266.06283 
L 540.90993 262.822345 
L 536.173227 260.43167 
L 530.145688 264.734291 
L 518.950837 259.156213 
L 517.443704 251.241533 
L 505.746805 246.725592 
L 503.593759 240.616197 
z
" clip-path="url(#pbea295d298)" style="fill: #e8edf4; stroke: #b8c5d4; stroke-width: 0.45"/>
    <path d="M 509.231368 42.923334 
L 531.222212 37.034205 
L 563.422665 38.26551 
L 582.285141 36.367455 
L 584.977938 40.36101 
L 595.194493 41.594299 
L 613.651165 50.909947 
L 615.454962 59.510228 
L 599.713907 65.658318 
L 595.257993 76.49747 
L 574.413126 83.730517 
L 555.855251 83.600045 
L 551.244555 77.685119 
L 541.397094 75.631291 
L 539.860196 70.731373 
L 541.909063 65.473771 
L 533.421891 62.426267 
L 513.314219 59.062752 
z
" clip-path="url(#pbea295d298)" style="fill: #e8edf4; stroke: #b8c5d4; stroke-width: 0.45"/>
    <path d="M 509.231368 42.923334 
L 509.896134 28.469642 
L 519.331837 16.412084 
L 537.427352 9.855213 
L 552.674298 24.20026 
L 568.078009 23.826701 
L 571.766962 9.086267 
L 588.120196 5.692986 
L 613.059821 15.173338 
L 628.893149 15.209056 
L 638.144305 19.630244 
L 639.781415 28.940931 
L 645.952821 40.272705 
L 613.651165 50.909947 
L 595.194493 41.594299 
L 584.977938 40.36101 
L 582.285141 36.367455 
L 563.422665 38.26551 
L 531.222212 37.034205 
z
" clip-path="url(#pbea295d298)" style="fill: #e8edf4; stroke: #b8c5d4; stroke-width: 0.45"/>
    <path d="M 553.084071 -17.675014 
L 577.360915 -23.024393 
L 601.55243 -25.812936 
L 622.383407 -22.639424 
L 642.197636 -23.207168 
L 645.088626 -19.855842 
L 631.42688 -8.791744 
L 637.120368 9.115537 
L 628.893149 15.209056 
L 613.059821 15.173338 
L 588.120196 5.692986 
L 571.766962 9.086267 
L 573.995415 -2.241537 
L 566.935009 0.178408 
L 554.749954 -6.644865 
z
" clip-path="url(#pbea295d298)" style="fill: #e8edf4; stroke: #b8c5d4; stroke-width: 0.45"/>
    <path d="M 219.942235 123.168978 
L 231.476415 123.161041 
L 236.343094 115.933947 
L 241.127423 98.354369 
L 237.53868 91.862486 
L 241.288157 87.796502 
L 257.335798 86.75272 
L 260.896759 90.986385 
L 273.934102 81.520916 
L 269.544665 74.323588 
L 268.663602 63.435322 
L 283.175337 65.967385 
L 295.460602 63.0444 
L 295.79993 70.464474 
L 315.202157 74.938744 
L 314.997766 81.753088 
L 334.520048 78.147478 
L 345.314055 72.888885 
L 366.991368 80.470189 
L 376.057977 86.585041 
L 380.543657 96.355111 
L 375.190805 101.47976 
L 382.161915 108.322877 
L 386.912509 118.59301 
L 385.41629 125.212388 
L 393.286321 137.471857 
L 384.71779 139.475084 
L 379.654657 137.268459 
L 374.839571 140.923181 
L 361.052134 144.6419 
L 353.923266 149.425732 
L 339.970134 153.606314 
L 343.331665 159.312881 
L 345.363665 167.409627 
L 355.161516 172.024291 
L 366.002157 180.278299 
L 359.232462 189.130595 
L 352.334774 191.5684 
L 355.056344 204.078396 
L 353.266438 207.341205 
L 347.278587 203.410158 
L 338.074063 202.820799 
L 324.347149 206.263689 
L 307.414477 205.445135 
L 304.680009 210.512236 
L 294.964509 205.18022 
L 289.169141 206.238885 
L 268.594149 200.368111 
L 264.652188 204.539267 
L 248.321774 204.404826 
L 250.758587 190.726033 
L 260.466149 177.578556 
L 232.798009 174.0424 
L 223.737352 169.014986 
L 224.820821 160.597267 
L 220.987009 156.261408 
L 223.167837 143.288556 
z
" clip-path="url(#pbea295d298)" style="fill: #e8edf4; stroke: #b8c5d4; stroke-width: 0.45"/>
    <path d="M 534.666094 306.171017 
L 537.824227 303.461849 
L 535.742618 301.177834 
L 538.972188 295.068439 
L 546.291555 289.065705 
L 536.963009 280.777963 
L 535.240571 273.765181 
L 539.977274 269.409478 
L 545.500782 277.303322 
L 552.940204 275.897392 
L 567.69304 278.891814 
L 595.890016 279.901861 
L 605.411048 275.00492 
L 628.014071 270.541068 
L 641.986055 277.520611 
L 653.275165 279.536736 
L 643.310626 287.491103 
L 636.298837 301.224467 
L 642.497032 312.178713 
L 625.966196 309.60349 
L 606.407204 315.643431 
L 606.197852 325.205142 
L 588.746266 327.017869 
L 575.218782 320.309193 
L 559.847813 325.585646 
L 545.645641 325.030517 
L 544.282376 312.333494 
z
" clip-path="url(#pbea295d298)" style="fill: #e8edf4; stroke: #b8c5d4; stroke-width: 0.45"/>
    <path d="M 491.840305 357.920045 
L 500.768009 348.607869 
L 501.919938 342.368002 
L 508.159805 339.583924 
L 508.544774 334.539642 
L 521.103884 332.839529 
L 528.423251 328.642576 
L 538.828321 329.014646 
L 541.985984 325.66784 
L 559.847813 325.585646 
L 575.218782 320.309193 
L 588.746266 327.017869 
L 606.197852 325.205142 
L 606.407204 315.643431 
L 615.760555 320.7274 
L 609.81636 332.743783 
L 605.25329 334.89683 
L 583.53629 332.536416 
L 560.284376 337.527119 
L 573.593579 348.320135 
L 563.839384 351.449494 
L 553.145587 351.468842 
L 542.988563 341.580701 
L 539.384938 345.794025 
L 543.675157 357.261232 
L 553.280524 366.271783 
L 546.043509 370.478658 
L 556.736313 379.327978 
L 566.240477 384.896135 
L 566.528212 395.74372 
L 548.768055 390.655783 
L 554.431462 400.448177 
L 542.239462 402.463806 
L 549.521126 419.407888 
L 536.76854 419.647998 
L 521.024509 411.29626 
L 513.824204 395.936205 
L 510.464657 383.161791 
L 493.140071 363.387494 
z
" clip-path="url(#pbea295d298)" style="fill: #e8edf4; stroke: #b8c5d4; stroke-width: 0.45"/>
    <path d="M 556.447587 441.344162 
L 559.999618 433.183916 
L 570.495969 439.65397 
L 585.440298 438.560084 
L 599.72879 439.922853 
L 599.264446 443.264045 
L 609.728055 440.960185 
L 607.327954 446.624088 
L 579.679657 448.256236 
L 579.872141 445.088181 
z
" clip-path="url(#pbea295d298)" style="fill: #e8edf4; stroke: #b8c5d4; stroke-width: 0.45"/>
    <path d="M 475.606134 308.561693 
L 483.930587 299.10565 
L 485.150977 302.718205 
L 490.31744 301.018304 
L 494.408087 306.171017 
L 499.00064 308.136896 
L 500.292751 315.09624 
L 497.852962 321.630291 
L 500.579493 329.864455 
L 508.544774 334.539642 
L 508.159805 339.583924 
L 501.919938 342.368002 
L 500.768009 348.607869 
L 491.840305 357.920045 
L 488.576009 356.576127 
L 488.192032 352.351888 
L 477.556774 345.90515 
L 475.88593 336.757181 
L 477.508157 323.656338 
L 480.128524 317.696267 
L 476.897962 314.671088 
z
" clip-path="url(#pbea295d298)" style="fill: #e8edf4; stroke: #b8c5d4; stroke-width: 0.45"/>
    <path d="M 367.17393 252.090845 
L 368.289149 245.113783 
L 381.66979 245.769619 
L 385.186102 242.529135 
L 391.71668 245.663455 
L 399.251352 246.035525 
L 399.179915 240.669775 
L 405.853368 238.704252 
L 407.719673 230.948322 
L 423.004321 225.847982 
L 443.457274 236.446033 
L 459.316399 240.137963 
L 466.492636 237.269651 
L 471.157165 244.706986 
L 477.257134 250.1789 
L 469.865304 257.403498 
L 461.181712 253.153478 
L 447.906243 253.419385 
L 431.401204 250.231486 
L 422.430837 250.657135 
L 418.26861 254.640767 
L 411.379852 250.231486 
L 407.360501 258.200736 
L 420.923704 273.128197 
L 437.069571 284.55026 
L 444.318493 292.571599 
L 461.312 299.84 
L 459.200313 303.104166 
L 441.15143 296.000103 
L 430.01611 289.088029 
L 412.455384 283.381463 
L 396.309516 269.250728 
L 400.184009 267.816025 
L 391.429938 259.741107 
L 391.070766 253.259642 
L 378.727954 250.231486 
L 372.84329 258.519228 
z
" clip-path="url(#pbea295d298)" style="fill: #e8edf4; stroke: #b8c5d4; stroke-width: 0.45"/>
    <path d="M 220.594102 230.278595 
L 220.877868 221.585049 
L 234.919305 210.796002 
L 234.302165 205.917416 
L 243.050282 207.684502 
L 248.321774 204.404826 
L 264.652188 204.539267 
L 268.594149 200.368111 
L 289.169141 206.238885 
L 289.91229 209.646056 
L 286.975415 214.346049 
L 295.663009 217.842021 
L 305.459868 218.363912 
L 303.93686 226.235431 
L 295.478462 229.473931 
L 281.271329 227.067877 
L 277.113071 234.810908 
L 267.967087 235.421103 
L 264.63929 232.378064 
L 253.875048 238.889791 
L 244.617938 239.802603 
L 236.356985 235.689986 
L 229.761915 227.270283 
z
" clip-path="url(#pbea295d298)" style="fill: #e8edf4; stroke: #b8c5d4; stroke-width: 0.45"/>
    <path d="M 213.901798 167.753916 
L 215.982415 156.985705 
L 220.987009 156.261408 
L 224.820821 160.597267 
L 223.737352 169.014986 
L 218.196977 169.420791 
z
" clip-path="url(#pbea295d298)" style="fill: #e8edf4; stroke: #b8c5d4; stroke-width: 0.45"/>
    <path d="M 153.220602 136.668681 
L 168.607446 132.881006 
L 182.663766 134.388635 
L 200.460634 130.399545 
L 212.613938 138.803869 
L 223.167837 143.288556 
L 220.987009 156.261408 
L 215.982415 156.985705 
L 213.901798 167.753916 
L 197.105055 159.000838 
L 187.251641 160.496064 
L 164.92643 143.737025 
L 156.001704 143.420517 
z
" clip-path="url(#pbea295d298)" style="fill: #e8edf4; stroke: #b8c5d4; stroke-width: 0.45"/>
    <path d="M 168.607446 132.881502 
L 178.50154 127.605545 
L 195.315149 99.35747 
L 221.584305 91.320256 
L 237.53868 91.862486 
L 241.127423 98.354369 
L 236.343094 115.933947 
L 231.476415 123.161041 
L 219.942235 123.168978 
L 223.167837 143.288556 
L 212.613938 138.803869 
L 200.460634 130.399545 
L 182.663766 134.388635 
z
" clip-path="url(#pbea295d298)" style="fill: #e8edf4; stroke: #b8c5d4; stroke-width: 0.45"/>
    <path d="M -75.383366 292.608806 
L -48.221241 278.751916 
L -24.726241 282.216138 
L 1.051782 282.094595 
L 21.481419 285.373775 
L 68.454055 285.002201 
L 76.106798 292.466924 
L 111.450501 301.192717 
L 118.43054 297.0419 
L 140.03443 305.727013 
L 162.29118 303.238111 
L 163.318094 314.391291 
L 145.12336 327.179099 
L 120.522071 331.237146 
L 118.809555 337.696287 
L 107.008477 348.340474 
L 99.608743 363.96842 
L 107.096782 374.940525 
L 95.991227 383.506576 
L 91.838923 395.986806 
L 77.343063 399.813177 
L 63.74811 414.576431 
L 21.077102 414.50549 
L 9.05179 421.285603 
L 1.718532 428.540478 
L -7.675499 426.947521 
L -14.784523 420.460599 
L -20.227663 409.416064 
L -38.151531 406.442478 
L -39.752425 400.085037 
L -32.636952 392.885228 
L -30.002198 387.66533 
L -36.62257 381.957275 
L -31.322304 369.342603 
L -39.013741 357.832236 
L -30.718558 356.251681 
L -29.947132 347.177135 
L -26.829183 344.36726 
L -26.581632 329.387213 
L -17.710484 324.189142 
L -23.077226 314.55897 
L -34.265132 313.887756 
L -37.552249 316.312166 
L -48.892952 316.334986 
L -53.706054 306.935002 
L -61.541359 309.733963 
L -68.508499 314.613045 
L -67.541116 300.938717 
z
" clip-path="url(#pbea295d298)" style="fill: #e8edf4; stroke: #b8c5d4; stroke-width: 0.45"/>
    <path d="M 234.559141 254.172455 
L 241.215727 248.324502 
L 235.565219 241.115267 
L 236.356985 235.689986 
L 244.617938 239.802603 
L 253.875048 238.889791 
L 264.63929 232.378064 
L 267.967087 235.421103 
L 277.113071 234.810908 
L 281.271329 227.067877 
L 295.478462 229.473931 
L 303.93686 226.235431 
L 305.459868 218.363912 
L 317.092274 221.093916 
L 319.324696 217.441674 
L 338.29929 214.104451 
L 342.588516 220.782865 
L 370.044329 225.741322 
L 367.963712 235.197861 
L 372.562501 243.372494 
L 357.278844 240.575517 
L 341.668759 247.389861 
L 342.730399 256.920814 
L 340.379907 262.390744 
L 346.673352 272.165775 
L 364.676594 281.835635 
L 374.332563 297.70865 
L 395.697337 313.181318 
L 410.742868 313.062752 
L 415.422024 317.306338 
L 410.035438 321.13122 
L 441.32804 333.878845 
L 457.792399 343.892002 
L 459.780743 347.477767 
L 456.192993 354.353131 
L 445.536899 345.388717 
L 428.856243 342.229095 
L 420.775868 354.648306 
L 434.652602 361.765763 
L 432.37454 371.784873 
L 424.353696 372.923408 
L 414.098446 389.390744 
L 406.094469 390.870095 
L 406.168884 384.999818 
L 410.08604 374.701904 
L 414.25918 370.600697 
L 400.90136 349.791549 
L 392.931118 347.399385 
L 387.262751 339.112635 
L 374.924899 335.622119 
L 366.617313 327.904885 
L 352.411173 326.660681 
L 319.844602 305.495834 
L 306.789399 294.43592 
L 300.800555 275.455869 
L 291.247774 273.223447 
L 275.627766 266.886345 
L 266.788368 269.48042 
L 255.694719 278.39076 
L 247.715548 279.798177 
L 249.912251 271.464299 
L 239.505196 269.028478 
z
" clip-path="url(#pbea295d298)" style="fill: #e8edf4; stroke: #b8c5d4; stroke-width: 0.45"/>
    <path d="M 343.635274 396.551361 
L 346.322118 386.693482 
L 368.790204 388.448662 
L 402.951219 384.681822 
L 396.036665 399.794326 
L 398.91004 405.742986 
L 394.879774 415.616244 
L 380.196391 408.384685 
L 370.433266 406.312998 
z
" clip-path="url(#pbea295d298)" style="fill: #e8edf4; stroke: #b8c5d4; stroke-width: 0.45"/>
    <path d="M 261.631969 332.479861 
L 272.191821 333.440299 
L 281.792227 327.488166 
L 293.311524 341.11983 
L 290.614759 366.514373 
L 281.884501 365.302912 
L 274.053165 371.712939 
L 266.783407 366.620537 
L 266.014462 343.456431 
z
" clip-path="url(#pbea295d298)" style="fill: #e8edf4; stroke: #b8c5d4; stroke-width: 0.45"/>
    <path d="M 260.287555 33.151775 
L 268.994001 22.207947 
L 285.909805 21.01633 
L 292.650727 15.719537 
L 308.09611 10.303681 
L 307.445235 20.177931 
L 301.760001 26.431689 
L 304.06386 31.808353 
L 314.473891 34.71447 
L 309.781837 41.957439 
L 304.06386 39.871861 
L 290.239712 53.69601 
L 295.460602 63.0444 
L 283.175337 65.967385 
L 268.663602 63.435322 
L 260.869969 52.779724 
z
" clip-path="url(#pbea295d298)" style="fill: #e8edf4; stroke: #b8c5d4; stroke-width: 0.45"/>
    <path d="M 314.315141 47.744869 
L 342.48136 41.380978 
L 348.608118 51.008174 
L 337.087829 66.55972 
L 316.996032 55.714615 
z
" clip-path="url(#pbea295d298)" style="fill: #e8edf4; stroke: #b8c5d4; stroke-width: 0.45"/>
    <path d="M -13.119632 28.447814 
L -6.147034 8.598111 
L 8.768024 -6.976256 
L 24.099305 -5.456225 
L 47.263907 -7.072002 
L 26.742493 13.701924 
L 46.303966 11.071635 
L 67.341813 11.171845 
L 62.336227 26.815666 
L 45.075141 44.023174 
L 64.927821 45.248029 
L 83.552173 69.92026 
L 96.694688 73.003978 
L 113.983555 102.46401 
L 137.245391 106.121213 
L 134.911766 118.400029 
L 125.130782 124.030197 
L 132.797415 133.962986 
L 115.526407 144.017814 
L 89.839665 143.840213 
L 57.152048 149.119642 
L 48.19954 145.339904 
L 35.504997 154.335572 
L 17.743848 152.156728 
L 4.255555 159.488002 
L -5.950085 155.654189 
L 22.208196 135.487978 
L 39.394868 131.340635 
L 9.260149 128.125451 
L 3.827923 120.485111 
L 23.890946 114.53397 
L 13.375743 104.191904 
L 17.024016 91.615927 
L 45.558451 93.35269 
L 48.415837 82.208006 
L 35.263895 70.111752 
L 11.951954 66.733353 
L 7.375489 61.537267 
L 14.353048 52.957326 
L 8.038766 47.667478 
L -2.298835 56.745994 
L -3.423976 38.239713 
z
" clip-path="url(#pbea295d298)" style="fill: #e8edf4; stroke: #b8c5d4; stroke-width: 0.45"/>
    <path d="M -40.425624 80.768838 
L -36.467788 70.479853 
L -40.425624 60.192853 
L -24.329863 59.401088 
L -3.749413 71.271619 
L -14.03939 84.462752 
L -28.55162 80.504916 
z
" clip-path="url(#pbea295d298)" style="fill: #e8edf4; stroke: #b8c5d4; stroke-width: 0.45"/>
    <path d="M 367.963712 235.197861 
L 370.044329 225.741322 
L 385.903454 227.229107 
L 395.592165 222.872908 
L 412.383946 222.394674 
L 416.044126 219.154189 
L 419.273696 219.366517 
L 423.004321 225.847982 
L 407.719673 230.948322 
L 405.853368 238.704252 
L 399.179915 240.669775 
L 399.251352 246.035525 
L 391.71668 245.663455 
L 385.186102 242.529135 
L 381.66979 245.769619 
L 368.289149 245.113783 
L 372.562501 243.372494 
z
" clip-path="url(#pbea295d298)" style="fill: #e8edf4; stroke: #b8c5d4; stroke-width: 0.45"/>
    <path d="M 429.055673 188.095744 
L 433.31811 181.434197 
L 441.824134 181.759635 
L 448.380509 179.773275 
L 448.899423 177.987338 
L 452.575477 177.075517 
L 453.833571 172.706916 
L 458.239876 171.87199 
L 461.215446 168.415705 
L 466.940368 168.392388 
L 468.023837 169.55176 
L 475.91768 166.945779 
L 485.600438 173.751193 
L 496.944118 169.636095 
L 506.008743 171.607572 
L 519.829915 168.893939 
L 538.076243 176.27383 
L 532.752165 181.27247 
L 529.00368 189.012525 
L 524.906938 190.97656 
L 504.344844 185.142002 
L 498.052391 186.313279 
L 493.549844 190.830709 
L 465.478876 195.550049 
L 463.933048 199.405689 
L 447.816946 201.758166 
L 430.969602 194.748857 
z
" clip-path="url(#pbea295d298)" style="fill: #e8edf4; stroke: #b8c5d4; stroke-width: 0.45"/>
    <path d="M 339.970134 153.606314 
L 353.923266 149.425732 
L 361.052134 144.6419 
L 374.839571 140.923181 
L 379.654657 137.268459 
L 384.71779 139.475084 
L 393.286321 137.471857 
L 402.386665 143.653185 
L 416.741634 145.323533 
L 415.544063 150.605939 
L 425.973938 154.577666 
L 428.840368 149.619705 
L 442.007688 151.766799 
L 443.829344 157.778463 
L 458.103946 158.93833 
L 466.940368 168.392388 
L 461.215446 168.415705 
L 458.239876 171.87199 
L 453.833571 172.706916 
L 452.575477 177.075517 
L 448.899423 177.987338 
L 448.380509 179.773275 
L 441.824134 181.759635 
L 433.31811 181.434197 
L 430.597532 185.657939 
L 421.746227 182.032486 
L 412.729227 183.029138 
L 397.825579 177.169775 
L 391.06779 178.603486 
L 380.266837 186.458138 
L 366.002157 180.278299 
L 355.161516 172.024291 
L 345.363665 167.409627 
L 343.331665 159.312881 
z
" clip-path="url(#pbea295d298)" style="fill: #e8edf4; stroke: #b8c5d4; stroke-width: 0.45"/>
    <path d="M 407.360501 258.200736 
L 411.379852 250.231486 
L 418.26861 254.640767 
L 422.430837 250.657135 
L 431.401204 250.231486 
L 447.906243 253.419385 
L 461.181712 253.153478 
L 469.865216 257.403584 
L 476.826176 257.3504 
L 472.018112 265.797056 
L 481.275392 273.181376 
L 478.4768 282.21248 
L 470.36768 284.815424 
L 464.124416 289.277888 
L 461.312 299.84 
L 444.318493 292.571599 
L 437.069571 284.55026 
L 420.923704 273.128197 
z
" clip-path="url(#pbea295d298)" style="fill: #e8edf4; stroke: #b8c5d4; stroke-width: 0.45"/>
    <path d="M 497.852962 321.630291 
L 500.292734 315.096149 
L 502.732352 315.255488 
L 503.593472 311.324288 
L 525.767936 306.490112 
L 534.666094 306.171017 
L 544.282376 312.333494 
L 545.645641 325.030517 
L 541.985984 325.66784 
L 538.828321 329.014646 
L 528.423251 328.642576 
L 521.103884 332.839529 
L 508.544774 334.539642 
L 500.579493 329.864455 
z
" clip-path="url(#pbea295d298)" style="fill: #e8edf4; stroke: #b8c5d4; stroke-width: 0.45"/>
    <path d="M 466.492636 237.269651 
L 481.204055 232.222787 
L 493.187696 233.072595 
L 503.593759 240.616197 
L 505.746805 246.725592 
L 517.443704 251.241533 
L 518.950837 259.156213 
L 530.145688 264.734291 
L 536.173227 260.43167 
L 540.90993 262.822345 
L 536.460962 266.06283 
L 539.977274 269.409478 
L 535.240571 273.765181 
L 536.963009 280.777963 
L 546.291555 289.065705 
L 538.972188 295.068439 
L 535.742618 301.177834 
L 537.824227 303.461849 
L 534.666094 306.171017 
L 519.231411 307.611691 
L 518.591744 306.1712 
L 523.04096 299.21216 
L 520.313984 299.318336 
L 504.598016 287.89664 
L 501.153536 288.959168 
L 498.498368 295.333952 
L 493.905536 296.7152 
L 495.48416 295.068416 
L 481.856 289.015424 
L 473.955584 283.062272 
L 478.4768 282.21248 
L 481.275392 273.181376 
L 472.018112 265.797056 
L 476.826176 257.3504 
L 469.865216 257.403584 
L 477.257134 250.1789 
L 471.157165 244.706986 
z
" clip-path="url(#pbea295d298)" style="fill: #e8edf4; stroke: #b8c5d4; stroke-width: 0.45"/>
    <path d="M 459.200324 303.104149 
L 464.124416 289.277888 
L 473.955584 283.062272 
L 481.856 289.015424 
L 495.48416 295.068416 
L 490.31744 301.018304 
L 485.150977 302.718205 
L 483.930587 299.10565 
L 475.606134 308.561693 
L 476.897949 314.671027 
L 472.879232 313.183616 
L 467.497088 306.915008 
z
" clip-path="url(#pbea295d298)" style="fill: #e8edf4; stroke: #b8c5d4; stroke-width: 0.45"/>
    <path d="M 490.31744 301.018304 
L 493.905536 296.7152 
L 498.498368 295.333952 
L 501.153536 288.959168 
L 504.598016 287.89664 
L 520.313984 299.318336 
L 523.04096 299.21216 
L 518.591744 306.1712 
L 519.231411 307.611691 
L 503.593472 311.324288 
L 502.732352 315.255488 
L 500.292734 315.096149 
L 499.00064 308.136896 
L 494.408087 306.171017 
z
" clip-path="url(#pbea295d298)" style="fill: #e8edf4; stroke: #b8c5d4; stroke-width: 0.45"/>
   </g>
   <g id="PathCollection_1">
    <defs>
     <path id="m61b4bc9a4c" d="M 0 2.12132 
C 0.562581 2.12132 1.102195 1.897805 1.5 1.5 
C 1.897805 1.102195 2.12132 0.562581 2.12132 0 
C 2.12132 -0.562581 1.897805 -1.102195 1.5 -1.5 
C 1.102195 -1.897805 0.562581 -2.12132 0 -2.12132 
C -0.562581 -2.12132 -1.102195 -1.897805 -1.5 -1.5 
C -1.897805 -1.102195 -2.12132 -0.562581 -2.12132 0 
C -2.12132 0.562581 -1.897805 1.102195 -1.5 1.5 
C -1.102195 1.897805 -0.562581 2.12132 0 2.12132 
z
" style="stroke: #ffffff; stroke-width: 0.5"/>
    </defs>
    <g clip-path="url(#pbea295d298)">
     <use xlink:href="#m61b4bc9a4c" x="133.76" y="302.72" style="fill: #8aa0b7; stroke: #ffffff; stroke-width: 0.5"/>
     <use xlink:href="#m61b4bc9a4c" x="488.96" y="331.52" style="fill: #8aa0b7; stroke: #ffffff; stroke-width: 0.5"/>
     <use xlink:href="#m61b4bc9a4c" x="82.41344" y="113.4944" style="fill: #8aa0b7; stroke: #ffffff; stroke-width: 0.5"/>
     <use xlink:href="#m61b4bc9a4c" x="55.36" y="168.96" style="fill: #8aa0b7; stroke: #ffffff; stroke-width: 0.5"/>
     <use xlink:href="#m61b4bc9a4c" x="18.56" y="77.12" style="fill: #8aa0b7; stroke: #ffffff; stroke-width: 0.5"/>
     <use xlink:href="#m61b4bc9a4c" x="63.36" y="173.12" style="fill: #8aa0b7; stroke: #ffffff; stroke-width: 0.5"/>
     <use xlink:href="#m61b4bc9a4c" x="288" y="211.2" style="fill: #8aa0b7; stroke: #ffffff; stroke-width: 0.5"/>
     <use xlink:href="#m61b4bc9a4c" x="223.36" y="163.52" style="fill: #8aa0b7; stroke: #ffffff; stroke-width: 0.5"/>
     <use xlink:href="#m61b4bc9a4c" x="247.04" y="279.04" style="fill: #8aa0b7; stroke: #ffffff; stroke-width: 0.5"/>
     <use xlink:href="#m61b4bc9a4c" x="476.94848" y="298.71296" style="fill: #8aa0b7; stroke: #ffffff; stroke-width: 0.5"/>
     <use xlink:href="#m61b4bc9a4c" x="527.36" y="315.52" style="fill: #8aa0b7; stroke: #ffffff; stroke-width: 0.5"/>
     <use xlink:href="#m61b4bc9a4c" x="389.44" y="233.28" style="fill: #8aa0b7; stroke: #ffffff; stroke-width: 0.5"/>
     <use xlink:href="#m61b4bc9a4c" x="343.36" y="278.4" style="fill: #8aa0b7; stroke: #ffffff; stroke-width: 0.5"/>
     <use xlink:href="#m61b4bc9a4c" x="344.06528" y="314.18432" style="fill: #8aa0b7; stroke: #ffffff; stroke-width: 0.5"/>
     <use xlink:href="#m61b4bc9a4c" x="506.2976" y="300.75008" style="fill: #8aa0b7; stroke: #ffffff; stroke-width: 0.5"/>
    </g>
   </g>
   <g id="PathCollection_2">
    <defs>
     <path id="m68770e529f" d="M 0 3.674235 
C 0.974418 3.674235 1.909058 3.287094 2.598076 2.598076 
C 3.287094 1.909058 3.674235 0.974418 3.674235 0 
C 3.674235 -0.974418 3.287094 -1.909058 2.598076 -2.598076 
C 1.909058 -3.287094 0.974418 -3.674235 0 -3.674235 
C -0.974418 -3.674235 -1.909058 -3.287094 -2.598076 -2.598076 
C -3.287094 -1.909058 -3.674235 -0.974418 -3.674235 0 
C -3.674235 0.974418 -3.287094 1.909058 -2.598076 2.598076 
C -1.909058 3.287094 -0.974418 3.674235 0 3.674235 
z
" style="stroke: #ffffff; stroke-width: 1.2"/>
    </defs>
    <g clip-path="url(#pbea295d298)">
     <use xlink:href="#m68770e529f" x="288" y="211.2" style="fill: #f97316; stroke: #ffffff; stroke-width: 1.2"/>
    </g>
   </g>
   <g id="PathCollection_3">
    <path d="M 288 216.129503 
C 289.307319 216.129503 290.561271 215.610099 291.485685 214.685685 
C 292.410099 213.761271 292.929503 212.507319 292.929503 211.2 
C 292.929503 209.892681 292.410099 208.638729 291.485685 207.714315 
C 290.561271 206.789901 289.307319 206.270497 288 206.270497 
C 286.692681 206.270497 285.438729 206.789901 284.514315 207.714315 
C 283.589901 208.638729 283.070497 209.892681 283.070497 211.2 
C 283.070497 212.507319 283.589901 213.761271 284.514315 214.685685 
C 285.438729 215.610099 286.692681 216.129503 288 216.129503 
L 288 216.129503 
z
" clip-path="url(#pbea295d298)" style="fill: none; stroke: #7c2d12; stroke-width: 1.1"/>
   </g>
  </g>
 </g>
 <defs>
  <clipPath id="pbea295d298">
   <rect x="0" y="0" width="576" height="422.4"/>
  </clipPath>
 </defs>
</svg>
