<?xml version="1.0" encoding="utf-8" standalone="no"?>
<!DOCTYPE svg PUBLIC "-//W3C//DTD SVG 1.1//EN"
  "http://www.w3.org/Graphics/SVG/1.1/DTD/svg11.dtd">
<svg xmlns:xlink="http://www.w3.org/1999/xlink" width="441.523046pt" height="432pt" viewBox="0 0 441.523046 432" xmlns="http://www.w3.org/2000/svg" version="1.1">
 <metadata>
  <rdf:RDF xmlns:dc="http://purl.org/dc/elements/1.1/" xmlns:cc="http://creativecommons.org/ns#" xmlns:rdf="http://www.w3.org/1999/02/22-rdf-syntax-ns#">
   <cc:Work>
    <dc:type rdf:resource="http://purl.org/dc/dcmitype/StillImage"/>
    <dc:date>2026-06-09T04:57:09.606120</dc:date>
    <dc:format>image/svg+xml</dc:format>
    <dc:creator>
     <cc:Agent>
      <dc:title>Matplotlib v3.10.8, https://matplotlib.org/</dc:title>
     </cc:Agent>
    </dc:creator>
   </cc:Work>
  </rdf:RDF>
 </metadata>
 <defs>
  <style type="text/css">*{stroke-linejoin: round; stroke-linecap: butt}</style>
 </defs>
 <g id="figure_1">
  <g id="patch_1">
   <path d="M 0 432 
L 441.523046 432 
L 441.523046 0 
L 0 0 
z
" style="fill: #eaf3ff"/>
  </g>
  <g id="axes_1">
   <g id="PatchCollection_1">
    <path d="M 358.290647 423.795521 
L 362.418236 417.253634 
L 363.840902 409.322634 
L 368.861528 394.264885 
L 370.956295 390.147104 
L 379.447895 382.727666 
L 387.249843 385.677271 
L 399.843738 387.063286 
L 411.330885 386.644642 
L 421.204887 379.390906 
L 422.948117 381.622725 
L 414.922135 391.531571 
L 407.414941 393.452376 
L 397.801108 391.49905 
L 381.155507 391.997705 
L 372.428516 393.435857 
L 371.007916 400.996737 
L 379.948615 409.879621 
L 385.341943 405.35507 
L 403.969261 401.955849 
L 403.148493 406.556283 
L 398.796354 405.105226 
L 394.459186 410.957977 
L 385.666121 414.830044 
L 395.118898 427.63197 
L 393.294107 431.062679 
L 402.275071 442.592156 
L 402.188865 449.154175 
L 396.856449 452.090875 
L 392.939473 448.578089 
L 397.766006 440.39931 
L 387.963241 444.26673 
L 385.478222 441.501927 
L 386.7739 437.645347 
L 379.571785 431.78795 
L 380.313057 422.05384 
L 373.650894 425.090168 
L 374.902179 451.028522 
L 368.56729 452.478546 
L 364.275548 449.546492 
L 367.139463 440.351819 
L 365.593424 430.712175 
L 361.39305 430.638357 
z
" clip-path="url(#pf5cb5dd27d)" style="fill: #e8edf4; stroke: #b8c5d4; stroke-width: 0.45"/>
    <path d="M 260.245446 391.656493 
L 261.408975 382.400907 
L 267.343804 375.762747 
L 269.011668 382.438848 
L 275.842631 388.082794 
L 282.286439 386.051521 
L 288.663656 386.771113 
L 294.484403 381.719772 
L 299.274801 380.844027 
L 308.724997 383.643416 
L 316.871255 381.514322 
L 321.992541 367.621393 
L 325.838798 364.14758 
L 329.299447 352.786645 
L 340.784014 352.791291 
L 349.442865 354.474899 
L 343.760978 363.496385 
L 351.104018 372.95355 
L 349.378855 377.54908 
L 360.577959 386.79331 
L 348.741856 387.971809 
L 345.410258 394.782124 
L 345.842839 403.834325 
L 336.237265 410.66632 
L 335.975032 420.61414 
L 332.122065 435.889728 
L 330.651393 432.336677 
L 319.303105 436.831289 
L 315.345864 430.72508 
L 308.22376 430.16035 
L 303.242366 426.959868 
L 291.366515 430.552151 
L 287.722095 425.717875 
L 281.178659 426.267119 
L 272.943614 425.11443 
L 271.416158 411.717317 
L 266.431667 408.940641 
L 261.636106 400.395872 
z
" clip-path="url(#pf5cb5dd27d)" style="fill: #e8edf4; stroke: #b8c5d4; stroke-width: 0.45"/>
    <path d="M 475.681727 405.172849 
L 489.146979 402.752872 
L 494.267233 399.497156 
L 510.304227 403.599451 
L 511.880722 407.312009 
L 514.670303 423.46773 
L 525.00889 429.446952 
L 533.356985 418.851294 
L 544.818838 412.822516 
L 553.699142 412.814256 
L 569.651478 419.870286 
L 580.375155 421.779218 
L 580.711206 486.886303 
L 571.816448 478.687909 
L 561.670922 476.678832 
L 559.210681 479.52468 
L 546.554325 479.831823 
L 550.795996 471.7026 
L 557.084426 468.929021 
L 554.480163 458.067 
L 549.684603 449.681222 
L 530.319625 441.222143 
L 522.081998 440.386921 
L 507.081032 431.156113 
L 504.132459 436.01052 
L 500.299108 436.891169 
L 498.031412 433.228166 
L 497.999924 428.8879 
L 490.368324 423.98084 
L 501.127104 420.383395 
L 508.251273 420.577489 
L 507.413985 417.927284 
L 492.791398 417.907152 
L 488.834158 411.959934 
L 479.909977 410.115528 
z
" clip-path="url(#pf5cb5dd27d)" style="fill: #e8edf4; stroke: #b8c5d4; stroke-width: 0.45"/>
    <path d="M 123.796531 341.066688 
L 145.691438 343.399168 
L 154.524766 353.168122 
L 167.758757 364.096734 
L 177.222891 374.834607 
L 187.377709 374.991276 
L 195.77123 381.833854 
L 201.55068 390.198209 
L 209.158018 394.761476 
L 205.154835 402.917542 
L 210.880083 406.386451 
L 214.468236 406.642489 
L 216.161394 413.610247 
L 219.64166 419.184763 
L 226.975924 420.067993 
L 231.835494 426.390492 
L 229.32673 438.814555 
L 228.92925 454.26617 
L 217.86849 454.475234 
L 209.455869 446.124558 
L 196.630198 437.962814 
L 192.353941 431.908226 
L 184.791513 423.773325 
L 179.830767 416.286263 
L 172.233753 402.302223 
L 163.460821 393.976326 
L 156.844083 377.590377 
L 147.836276 371.300398 
L 142.615362 362.753564 
L 135.09423 357.158916 
L 124.674082 346.151582 
z
" clip-path="url(#pf5cb5dd27d)" style="fill: #e8edf4; stroke: #b8c5d4; stroke-width: 0.45"/>
    <path d="M 224.412442 464.245994 
L 231.266634 454.701332 
L 243.387167 455.291357 
L 251.449284 459.194912 
L 255.592358 459.956316 
L 256.957209 463.509367 
L 276.094023 464.50513 
L 278.295129 460.387865 
L 296.827465 465.191168 
L 300.463109 471.665949 
L 315.448589 473.487126 
L 327.701271 479.423503 
L 316.303428 483.229495 
L 305.317517 479.205148 
L 285.911759 478.737465 
L 276.562739 476.944162 
L 264.990418 473.128879 
L 257.658218 472.139311 
L 253.503786 473.388531 
L 235.286852 469.275396 
L 233.553946 464.98004 
z
" clip-path="url(#pf5cb5dd27d)" style="fill: #e8edf4; stroke: #b8c5d4; stroke-width: 0.45"/>
    <path d="M 444.514716 385.699468 
L 446.52276 377.718396 
L 449.837839 374.083268 
L 450.554851 379.538024 
L 456.452512 380.414285 
L 457.388395 384.494125 
L 456.865994 393.223696 
L 451.713735 392.245485 
L 450.194022 398.323818 
L 454.309222 403.597386 
L 451.512414 404.796018 
L 447.481356 398.468873 
z
" clip-path="url(#pf5cb5dd27d)" style="fill: #e8edf4; stroke: #b8c5d4; stroke-width: 0.45"/>
    <path d="M 449.503338 429.703507 
L 451.870661 424.211584 
L 464.208518 423.79707 
L 475.200107 426.710024 
L 478.831105 434.348851 
L 470.39732 430.231586 
L 462.053355 429.395848 
L 456.413797 430.05556 
z
" clip-path="url(#pf5cb5dd27d)" style="fill: #e8edf4; stroke: #b8c5d4; stroke-width: 0.45"/>
    <path d="M 405.162215 498.095215 
L 406.061447 494.699092 
L 410.356803 488.605788 
L 420.232869 484.637707 
L 421.245151 486.607552 
L 421.429953 489.636136 
L 414.911295 497.096356 
L 406.360847 499.293847 
z
" clip-path="url(#pf5cb5dd27d)" style="fill: #e8edf4; stroke: #b8c5d4; stroke-width: 0.45"/>
    <path d="M 369.8098 480.163227 
L 377.742864 478.086528 
L 384.00187 481.081043 
L 390.651645 480.32067 
L 399.603701 476.660765 
L 398.139739 482.210503 
L 383.13103 485.046026 
L 369.844386 483.814874 
z
" clip-path="url(#pf5cb5dd27d)" style="fill: #e8edf4; stroke: #b8c5d4; stroke-width: 0.45"/>
    <path d="M 338.036245 486.03766 
L 341.468504 480.286085 
L 346.945457 480.207621 
L 349.622505 476.675219 
L 353.224595 479.339362 
L 359.396362 478.523239 
L 361.874154 482.770071 
L 343.406344 486.117155 
z
" clip-path="url(#pf5cb5dd27d)" style="fill: #e8edf4; stroke: #b8c5d4; stroke-width: 0.45"/>
    <path d="M 511.575127 457.164154 
L 515.439451 450.197429 
L 517.71076 453.119675 
L 517.687015 457.882714 
L 512.547661 464.683737 
z
" clip-path="url(#pf5cb5dd27d)" style="fill: #e8edf4; stroke: #b8c5d4; stroke-width: 0.45"/>
    <path d="M 430.425371 427.544214 
L 440.530633 427.065175 
L 443.013587 430.35909 
L 439.274702 433.674685 
L 432.370954 431.840603 
z
" clip-path="url(#pf5cb5dd27d)" style="fill: #e8edf4; stroke: #b8c5d4; stroke-width: 0.45"/>
    <path d="M 360.288884 491.28232 
L 369.603833 489.318153 
L 378.34631 495.394938 
L 377.748026 498.091086 
L 373.54662 498.281566 
z
" clip-path="url(#pf5cb5dd27d)" style="fill: #e8edf4; stroke: #b8c5d4; stroke-width: 0.45"/>
    <path d="M 194.271133 262.007827 
L 200.66745 253.702061 
L 213.583458 251.793903 
L 222.946931 253.227667 
L 231.18972 257.144644 
L 235.709109 250.257156 
L 244.563086 253.934612 
L 246.87879 260.596518 
L 245.648669 272.566835 
L 228.858014 280.254443 
L 233.244738 286.305934 
L 222.758516 287.030172 
L 214.112054 291.053487 
L 205.750538 289.594945 
L 201.689023 284.389517 
L 196.636908 274.071319 
z
" clip-path="url(#pf5cb5dd27d)" style="fill: #e8edf4; stroke: #b8c5d4; stroke-width: 0.45"/>
    <path d="M 144.602758 211.550429 
L 148.817069 209.735963 
L 153.371561 198.936403 
L 160.42346 198.48911 
L 166.253499 194.157619 
L 171.974101 191.847594 
L 176.298365 194.930381 
L 176.87187 200.932832 
L 183.621789 201.389933 
L 181.163613 211.915129 
L 181.399519 220.869767 
L 191.928587 214.910161 
L 194.919489 216.671458 
L 200.770175 216.38264 
L 202.782865 212.907021 
L 210.33755 213.593059 
L 217.934048 221.705247 
L 218.557109 231.564537 
L 226.645552 240.270621 
L 226.199033 248.725312 
L 222.946931 253.227667 
L 213.583458 251.793903 
L 200.66745 253.702061 
L 194.271133 262.007827 
L 196.636908 274.071319 
L 187.66885 269.484823 
L 179.124596 269.671173 
L 180.589591 261.823283 
L 171.792397 261.881872 
L 171.0026 272.868557 
L 162.362333 296.282661 
L 163.047855 303.51291 
L 169.555157 303.826505 
L 173.608928 312.943748 
L 175.403262 321.59021 
L 180.977778 327.311071 
L 187.028753 328.472277 
L 192.204242 333.656541 
L 188.938718 337.760384 
L 182.34521 338.953338 
L 181.559027 333.82405 
L 173.40864 329.449199 
L 171.67212 331.230628 
L 167.72572 327.397535 
L 166.017076 322.450468 
L 155.869485 312.073165 
L 154.230012 317.944758 
L 152.335534 312.395794 
L 156.366592 296.583351 
L 161.207062 286.318581 
L 166.692791 277.00647 
L 162.787687 267.896455 
L 162.944098 263.256015 
L 161.802765 257.67995 
L 155.140601 249.743272 
L 152.755726 244.731937 
L 156.205019 242.885982 
L 159.860795 234.202095 
L 155.769341 227.609103 
L 149.429806 220.315877 
z
" clip-path="url(#pf5cb5dd27d)" style="fill: #e8edf4; stroke: #b8c5d4; stroke-width: 0.45"/>
    <path d="M 171.974101 191.847594 
L 174.102938 188.168847 
L 182.602797 181.671354 
L 183.502029 184.018029 
L 188.827217 184.290586 
L 187.317829 172.864609 
L 192.496415 171.400647 
L 198.334712 179.288285 
L 202.819516 188.364231 
L 215.117624 188.442437 
L 218.989174 197.153941 
L 212.604214 199.770851 
L 209.73875 203.361843 
L 221.706486 209.337451 
L 236.304812 229.942099 
L 243.863626 236.892048 
L 246.379101 243.948078 
L 244.563086 253.934612 
L 235.709109 250.257156 
L 231.18972 257.144644 
L 222.946931 253.227667 
L 226.199033 248.725312 
L 226.645552 240.270621 
L 218.557109 231.564537 
L 217.934048 221.705247 
L 210.33755 213.593059 
L 202.782865 212.907021 
L 200.770175 216.38264 
L 194.919489 216.671458 
L 191.928587 214.910161 
L 181.399519 220.869767 
L 181.163613 211.915129 
L 183.621789 201.389933 
L 176.87187 200.932832 
L 176.298365 194.930381 
z
" clip-path="url(#pf5cb5dd27d)" style="fill: #e8edf4; stroke: #b8c5d4; stroke-width: 0.45"/>
    <path d="M 93.930876 181.28265 
L 97.417336 182.795394 
L 97.621754 175.631219 
L 102.550496 173.261572 
L 101.493304 169.019644 
L 103.751192 165.617842 
L 104.13938 155.280028 
L 111.94649 157.555726 
L 116.400837 149.319648 
L 116.906204 144.452335 
L 122.419291 136.073268 
L 122.115762 130.356795 
L 135.047772 123.454079 
L 142.186394 125.260286 
L 141.367174 119.114071 
L 144.86912 117.281279 
L 144.115459 113.494903 
L 149.957886 112.752082 
L 153.296711 118.632967 
L 157.656592 121.014486 
L 157.548189 136.898424 
L 148.08612 145.240066 
L 146.888521 157.089591 
L 157.432559 155.432567 
L 159.814853 164.628273 
L 166.140449 166.563016 
L 163.232657 174.861297 
L 174.976359 180.450009 
L 182.303397 177.5417 
L 182.602797 181.671354 
L 174.102938 188.168847 
L 171.974101 191.847594 
L 166.253499 194.157619 
L 160.42346 198.48911 
L 153.371561 198.936403 
L 148.817069 209.735963 
L 144.602758 211.550429 
L 149.429806 220.315877 
L 155.769341 227.609103 
L 159.860795 234.202095 
L 156.205019 242.885982 
L 152.755726 244.731937 
L 155.140601 249.743272 
L 161.802765 257.67995 
L 162.944098 263.256015 
L 162.787687 267.896455 
L 166.692791 277.00647 
L 161.207062 286.318581 
L 156.366592 296.583351 
L 155.403866 289.1683 
L 158.474264 281.51631 
L 155.115823 275.605743 
L 155.9273 264.72359 
L 151.87198 259.54836 
L 148.616781 247.593013 
L 146.812122 234.973824 
L 142.491472 226.701096 
L 124.558968 238.831437 
L 118.955544 237.941755 
L 112.766226 235.599467 
L 116.209325 223.219798 
L 114.124882 213.867165 
L 106.295059 202.349819 
L 107.516404 198.74902 
L 101.672944 197.468569 
L 94.583362 189.319988 
z
" clip-path="url(#pf5cb5dd27d)" style="fill: #e8edf4; stroke: #b8c5d4; stroke-width: 0.45"/>
    <path d="M 192.496415 171.400647 
L 197.856189 168.962861 
L 205.822806 169.013191 
L 215.535752 167.860502 
L 224.050065 162.53712 
L 228.865241 166.284781 
L 237.996937 168.109055 
L 236.417345 173.863469 
L 241.173673 177.922144 
L 251.230412 180.514534 
L 237.893696 189.060594 
L 229.568831 198.498401 
L 227.374436 205.429767 
L 244.355571 229.011379 
L 253.421193 235.181855 
L 259.490751 243.203707 
L 264.06744 261.69036 
L 262.717559 279.263068 
L 254.3865 285.841348 
L 242.946843 292.272767 
L 234.797488 300.600213 
L 222.342453 309.900967 
L 218.715585 303.4951 
L 221.522717 296.727889 
L 214.112054 291.053487 
L 222.758516 287.030172 
L 233.244738 286.305934 
L 228.858014 280.254443 
L 245.648669 272.566835 
L 246.87879 260.596518 
L 244.563086 253.934612 
L 246.379101 243.948078 
L 243.863626 236.892048 
L 236.304812 229.942099 
L 221.706486 209.337451 
L 209.73875 203.361843 
L 212.604214 199.770851 
L 218.989174 197.153941 
L 215.117624 188.442437 
L 202.819516 188.364231 
L 198.334712 179.288285 
z
" clip-path="url(#pf5cb5dd27d)" style="fill: #e8edf4; stroke: #b8c5d4; stroke-width: 0.45"/>
    <path d="M 413.209877 -3.048307 
L 421.344262 -9.45469 
L 432.353403 -14.824014 
L 439.216371 -21.908693 
L 443.958245 -18.777899 
L 452.595416 -18.41449 
L 451.034923 -23.683928 
L 466.462792 -27.986252 
L 470.434486 -33.584256 
L 478.283259 -25.938742 
L 474.487741 -26.538035 
L 467.168963 -19.756369 
L 467.546826 -12.581354 
L 462.381662 -10.373538 
L 456.840183 -5.659023 
L 450.187828 -4.016453 
L 445.852724 -1.333727 
L 445.539903 2.990795 
L 444.374308 4.094187 
L 448.349099 5.718173 
L 454.006725 10.099993 
L 452.568573 12.515841 
L 441.256419 13.657432 
L 437.364737 18.165981 
L 432.905744 17.810315 
L 432.280617 18.716257 
L 427.429307 16.815068 
L 426.223964 18.692254 
L 423.29604 19.52154 
L 422.943987 17.642031 
L 417.670419 15.133525 
L 420.405799 10.736993 
L 422.762798 9.564429 
L 421.872858 7.73938 
L 424.407433 2.351215 
L 423.753399 0.718711 
L 417.923361 -0.369711 
z
" clip-path="url(#pf5cb5dd27d)" style="fill: #e8edf4; stroke: #b8c5d4; stroke-width: 0.45"/>
    <path d="M 478.283372 -25.938724 
L 478.283384 -25.93875 
L 478.283409 -25.938719 
z
" clip-path="url(#pf5cb5dd27d)" style="fill: #e8edf4; stroke: #b8c5d4; stroke-width: 0.45"/>
    <path d="M 431.707628 28.947216 
L 439.127067 27.26464 
L 432.280617 18.716257 
L 432.905744 17.810315 
L 437.364737 18.165981 
L 441.256419 13.657432 
L 452.568573 12.515841 
L 454.006725 10.099993 
L 462.629441 21.885767 
L 465.102071 28.360805 
L 465.180535 39.868859 
L 461.415323 45.359492 
L 452.369833 47.27849 
L 444.385148 51.421049 
L 435.387149 52.276403 
L 434.270078 46.837133 
L 436.121195 39.345425 
z
" clip-path="url(#pf5cb5dd27d)" style="fill: #e8edf4; stroke: #b8c5d4; stroke-width: 0.45"/>
    <path d="M -147.074672 159.141771 
L -140.422316 152.477284 
L -118.439654 152.503353 
L -120.42292 143.926836 
L -126.035119 138.861042 
L -127.173355 131.172918 
L -133.711629 126.686823 
L -122.702489 116.215829 
L -111.103325 116.975169 
L -100.653752 106.502368 
L -94.391649 96.3651 
L -84.694706 86.341915 
L -84.849052 79.22136 
L -76.331126 73.442942 
L -84.393242 68.510329 
L -91.40178 52.999092 
L -86.504527 48.691864 
L -71.352312 51.128876 
L -60.217734 49.644265 
L -50.570863 41.24868 
L -39.83428 52.956764 
L -40.845013 61.105344 
L -36.871254 66.217855 
L -37.198529 71.318494 
L -44.367607 69.976098 
L -41.566153 80.986787 
L -31.752032 87.311868 
L -17.868137 94.29666 
L -24.206639 98.827923 
L -28.085416 108.17178 
L 4.038127 122.455993 
L 17.731025 123.75064 
L 23.492408 128.832178 
L 43.228023 132.11164 
L 51.546693 131.944647 
L 52.691124 127.99102 
L 51.375829 121.643742 
L 52.148074 117.341159 
L 58.240346 115.240198 
L 59.292375 125.108522 
L 68.371418 128.90006 
L 74.652105 127.338534 
L 91.236277 127.712268 
L 91.937802 121.575861 
L 87.871642 118.388027 
L 95.927564 117.138032 
L 105.020028 109.708527 
L 116.534019 103.347312 
L 124.913086 105.801875 
L 132.034157 101.595565 
L 136.718217 107.80708 
L 133.34429 112.002034 
L 144.115459 113.494903 
L 144.86912 117.281279 
L 141.367174 119.114071 
L 142.186394 125.260286 
L 135.047772 123.454079 
L 122.115762 130.356795 
L 122.419291 136.073268 
L 116.906204 144.452335 
L 116.400837 149.319648 
L 111.94649 157.555726 
L 104.13938 155.280028 
L 103.751192 165.617842 
L 101.493304 169.019644 
L 102.550496 173.261572 
L 97.621754 175.631219 
L 92.360576 159.785738 
L 89.602483 159.817227 
L 87.969721 166.201155 
L 82.500512 161.024118 
L 85.584847 155.339134 
L 90.053648 154.762015 
L 94.65976 146.308356 
L 88.899926 144.602809 
L 79.636081 144.75096 
L 70.131167 143.380948 
L 69.250002 136.435129 
L 64.481285 135.942409 
L 56.569385 131.625889 
L 53.040596 138.403167 
L 60.250455 143.691188 
L 54.005386 147.413296 
L 51.788278 151.053586 
L 57.936816 153.730118 
L 56.236947 159.749346 
L 59.69863 167.261186 
L 61.253444 175.486681 
L 59.823035 179.13394 
L 53.02769 179.008243 
L 40.713064 181.082104 
L 41.287085 188.596524 
L 35.95467 194.506833 
L 21.579346 201.230167 
L 10.398826 212.983161 
L 2.889051 219.284238 
L -7.064447 225.823028 
L -7.079933 230.417784 
L -21.057262 236.458177 
L -25.723254 236.985482 
L -28.718285 244.604951 
L -26.10886 265.883507 
L -30.341755 275.373709 
L -30.387181 292.344778 
L -35.556475 292.828464 
L -40.103224 300.447416 
L -37.062766 303.739782 
L -46.170717 306.571692 
L -49.534836 313.365231 
L -53.543181 316.236372 
L -63.002153 306.909033 
L -71.458134 282.845284 
L -74.958016 278.120444 
L -80.265137 268.523904 
L -84.470156 249.791279 
L -93.556943 236.071796 
L -100.682144 203.930702 
L -100.646526 191.831076 
L -102.583849 182.47612 
L -117.120746 188.455342 
L -124.161289 187.257742 
L -137.210478 175.151147 
L -132.407691 171.540281 
L -135.357812 167.620466 
z
" clip-path="url(#pf5cb5dd27d)" style="fill: #e8edf4; stroke: #b8c5d4; stroke-width: 0.45"/>
    <path d="M 51.788278 151.053586 
L 54.005386 147.413296 
L 60.250455 143.691188 
L 53.040596 138.403167 
L 56.569385 131.625889 
L 64.481285 135.942409 
L 69.250002 136.435129 
L 70.131167 143.380948 
L 79.636081 144.75096 
L 88.899926 144.602809 
L 94.65976 146.308356 
L 90.053648 154.762015 
L 85.584847 155.339134 
L 82.500512 161.024118 
L 87.969721 166.201155 
L 89.602483 159.817227 
L 92.360576 159.785738 
L 97.621754 175.631219 
L 97.417336 182.795394 
L 93.930876 181.28265 
L 94.583362 189.319988 
L 91.729771 184.112495 
L 91.153684 179.024246 
L 89.252495 174.21578 
L 85.078964 168.401228 
L 75.878096 168.001684 
L 76.78662 172.119465 
L 73.650148 177.677721 
L 69.399702 175.652125 
L 67.947096 177.470464 
L 61.253444 175.486681 
L 59.69863 167.261186 
L 56.236947 159.749346 
L 57.936816 153.730118 
z
" clip-path="url(#pf5cb5dd27d)" style="fill: #e8edf4; stroke: #b8c5d4; stroke-width: 0.45"/>
    <path d="M 59.078665 123.107188 
L 65.687143 115.680781 
L 71.081503 113.146722 
L 78.220642 115.45907 
L 83.498339 115.702203 
L 91.937802 121.575861 
L 91.236277 127.712268 
L 74.652105 127.338534 
L 68.371418 128.90006 
L 59.292375 125.108522 
z
" clip-path="url(#pf5cb5dd27d)" style="fill: #e8edf4; stroke: #b8c5d4; stroke-width: 0.45"/>
    <path d="M -28.085416 108.17178 
L -24.206639 98.827923 
L -13.727127 91.906881 
L -5.718696 94.978053 
L 4.366434 101.486387 
L 9.97915 102.919893 
L 13.331396 107.718034 
L 21.093596 109.687105 
L 29.201654 114.074345 
L 40.501419 116.365013 
L 52.148074 117.341159 
L 51.375829 121.643742 
L 52.691124 127.99102 
L 51.546693 131.944647 
L 43.228023 132.11164 
L 23.492408 128.832178 
L 17.731025 123.75064 
L 4.038127 122.455993 
z
" clip-path="url(#pf5cb5dd27d)" style="fill: #e8edf4; stroke: #b8c5d4; stroke-width: 0.45"/>
    <path d="M -92.146666 1.918892 
L -89.3034 -0.366355 
L -90.679607 -2.703481 
L -81.143721 -7.422901 
L -74.241521 -9.377259 
L -63.667543 -8.037445 
L -59.890459 -14.415953 
L -47.077176 -15.60297 
L -43.516382 -19.567954 
L -27.775692 -24.97909 
L -26.371609 -27.237237 
L -27.169149 -32.931771 
L -20.315989 -35.531904 
L -29.307277 -52.884708 
L -9.51901 -56.875502 
L -4.405982 -59.09932 
L 2.801812 -76.983817 
L 22.61847 -73.696613 
L 28.174403 -78.211873 
L 28.651378 -88.228864 
L 36.947852 -89.162166 
L 44.551577 -95.812973 
L 48.460294 -96.634258 
L 51.08314 -89.664435 
L 59.478725 -84.366347 
L 73.728611 -80.615073 
L 80.621003 -72.569734 
L 76.774747 -60.898043 
L 80.368578 -56.566294 
L 105.693162 -53.463634 
L 117.762074 -47.238955 
L 123.934874 -46.130143 
L 128.485752 -36.921274 
L 134.348828 -30.989543 
L 145.360549 -31.221836 
L 165.978877 -28.982273 
L 179.265005 -30.371902 
L 189.126101 -28.884194 
L 203.902518 -22.816701 
L 215.989497 -22.825476 
L 220.41184 -19.71946 
L 232.042493 -25.082848 
L 248.17963 -28.550983 
L 263.151689 -28.929878 
L 274.824155 -32.443955 
L 281.992201 -37.79418 
L 288.983705 -41.153395 
L 287.366945 -44.450407 
L 284.176788 -48.28892 
L 289.420415 -54.72834 
L 305.309257 -51.799641 
L 315.262755 -57.103149 
L 330.49395 -60.973151 
L 337.81376 -67.575692 
L 344.844496 -70.417926 
L 359.355066 -71.743287 
L 367.235993 -70.617182 
L 368.330351 -74.167136 
L 359.277635 -81.149605 
L 351.261977 -84.34286 
L 343.583919 -80.656628 
L 333.729017 -82.211959 
L 328.073973 -80.944671 
L 325.501198 -85.028641 
L 337.423508 -102.541211 
L 349.41499 -98.769805 
L 363.491946 -105.08198 
L 363.401337 -109.477604 
L 372.418496 -120.072459 
L 377.973695 -123.2746 
L 377.849719 -128.789805 
L 372.368636 -131.163839 
L 380.619684 -136.133619 
L 393.032906 -137.934923 
L 406.275822 -138.205371 
L 421.227084 -135.231032 
L 429.998984 -131.552543 
L 443.39558 -111.044684 
L 447.091031 -101.259981 
L 464.476429 -98.066731 
L 476.308402 -90.965276 
L 480.353699 -81.57984 
L 495.531603 -81.568153 
L 504.191307 -85.508713 
L 520.700629 -88.453414 
L 515.451285 -79.465324 
L 511.570877 -75.809573 
L 508.147515 -64.865865 
L 501.429532 -55.147993 
L 489.305971 -56.916798 
L 480.73259 -53.388594 
L 483.363399 -44.833432 
L 481.92628 -33.030882 
L 476.823577 -32.761422 
L 476.884843 -27.687001 
L 470.434486 -33.584256 
L 466.462792 -27.986252 
L 451.034923 -23.683928 
L 452.595416 -18.41449 
L 443.958245 -18.777899 
L 439.216371 -21.908693 
L 432.353403 -14.824014 
L 421.344262 -9.45469 
L 413.209877 -3.048307 
L 399.244422 -0.144386 
L 391.890541 4.523929 
L 381.133826 7.250791 
L 386.442496 2.621965 
L 384.352375 -1.26791 
L 392.26221 -7.982469 
L 386.985545 -13.216289 
L 378.277654 -9.690081 
L 366.999571 -2.744261 
L 360.844838 3.705999 
L 351.048268 4.186071 
L 345.953308 8.847418 
L 351.217583 15.601724 
L 359.393265 17.241455 
L 359.727767 21.725226 
L 367.630891 24.642826 
L 378.82535 17.510141 
L 387.693781 21.398984 
L 394.153591 21.665088 
L 395.772415 26.898134 
L 381.629384 29.687973 
L 376.962876 35.081042 
L 367.248898 40.092118 
L 362.120901 47.08388 
L 372.872454 52.573222 
L 376.796657 62.3987 
L 382.87654 71.552852 
L 389.660528 79.226006 
L 389.498439 86.646219 
L 383.228593 89.374113 
L 385.61863 94.701883 
L 391.498224 97.802478 
L 389.963025 105.93867 
L 387.425869 113.855216 
L 381.844126 114.752641 
L 366.459102 138.675724 
L 357.182868 150.596743 
L 329.551356 168.222879 
L 318.294437 169.369632 
L 312.188228 173.807977 
L 308.734289 170.565683 
L 303.083374 175.530043 
L 289.123597 180.533376 
L 278.553748 182.065219 
L 275.143171 192.614935 
L 269.60737 193.200056 
L 266.988137 185.950191 
L 269.353913 182.086126 
L 255.951638 178.887967 
L 251.230412 180.514534 
L 241.173673 177.922144 
L 236.417345 173.863469 
L 237.996937 168.109055 
L 228.865241 166.284781 
L 224.050065 162.53712 
L 215.535752 167.860502 
L 205.822806 169.013191 
L 197.856189 168.962861 
L 187.317829 172.864609 
L 188.827217 184.290586 
L 183.502029 184.018029 
L 182.303397 177.5417 
L 174.976359 180.450009 
L 163.232657 174.861297 
L 166.140449 166.563016 
L 159.814853 164.628273 
L 157.432559 155.432567 
L 146.888521 157.089591 
L 148.08612 145.240066 
L 157.548189 136.898424 
L 157.656592 121.014486 
L 153.296711 118.632967 
L 149.957886 112.752082 
L 144.115459 113.494903 
L 133.34429 112.002034 
L 136.718217 107.80708 
L 132.034157 101.595565 
L 124.913086 105.801875 
L 116.534019 103.347312 
L 105.020028 109.708527 
L 95.927564 117.138032 
L 87.871642 118.388027 
L 83.498339 115.702203 
L 78.220642 115.45907 
L 71.081503 113.146722 
L 65.687143 115.680781 
L 59.078665 123.107188 
L 58.240346 115.240198 
L 52.148074 117.341159 
L 40.501419 116.365013 
L 29.201654 114.074345 
L 21.093596 109.687105 
L 13.331396 107.718034 
L 9.97915 102.919893 
L 4.366434 101.486387 
L -5.718696 94.978053 
L -13.727127 91.906881 
L -17.868137 94.29666 
L -31.752032 87.311868 
L -41.566153 80.986787 
L -44.367607 69.976098 
L -37.198529 71.318494 
L -36.871254 66.217855 
L -40.845013 61.105344 
L -39.83428 52.956764 
L -50.570863 41.24868 
L -66.999141 37.209104 
L -69.955457 29.533369 
L -77.33618 24.876152 
L -79.114512 22.009656 
L -80.61306 16.315638 
L -80.265137 12.431441 
L -86.331598 10.157292 
L -89.614672 11.163121 
z
" clip-path="url(#pf5cb5dd27d)" style="fill: #e8edf4; stroke: #b8c5d4; stroke-width: 0.45"/>
    <path d="M 256.984568 202.335882 
L 261.907631 197.809265 
L 272.821273 195.010135 
L 278.564589 195.247073 
L 280.797183 199.059002 
L 276.407877 203.45476 
L 274.095787 209.22337 
L 265.465328 214.025124 
L 257.27416 210.928658 
z
" clip-path="url(#pf5cb5dd27d)" style="fill: #e8edf4; stroke: #b8c5d4; stroke-width: 0.45"/>
    <path d="M 371.660401 160.497329 
L 377.538963 150.686047 
L 385.533972 143.124135 
L 390.091045 146.09955 
L 382.343298 168.143125 
L 378.062396 176.337132 
L 372.79812 167.903347 
z
" clip-path="url(#pf5cb5dd27d)" style="fill: #e8edf4; stroke: #b8c5d4; stroke-width: 0.45"/>
    <path d="M 369.438647 232.3453 
L 373.461446 235.632504 
L 374.495924 220.004863 
L 377.750607 210.953178 
L 383.798485 210.964793 
L 389.954766 213.816835 
L 393.035487 211.215669 
L 393.944011 213.753599 
L 392.318993 217.895126 
L 395.729054 225.055171 
L 393.098465 233.356807 
L 387.209579 236.667498 
L 385.634116 244.720839 
L 387.869291 252.676616 
L 393.164539 253.777169 
L 397.583268 252.595056 
L 410.059984 258.133179 
L 409.109131 263.570901 
L 412.367428 265.970746 
L 411.329853 270.574277 
L 403.544423 265.671088 
L 399.854578 260.422814 
L 397.284385 264.089688 
L 390.924202 258.109692 
L 381.851353 259.586043 
L 376.87925 257.378743 
L 377.386165 253.249606 
L 380.507151 250.708578 
L 377.525541 248.398295 
L 376.235024 251.998321 
L 371.303186 246.258619 
L 369.8098 241.908545 
z
" clip-path="url(#pf5cb5dd27d)" style="fill: #e8edf4; stroke: #b8c5d4; stroke-width: 0.45"/>
    <path d="M 389.778223 323.96218 
L 393.698297 315.542848 
L 399.991889 312.733135 
L 405.438902 308.969472 
L 408.969756 313.491443 
L 416.564705 310.756064 
L 418.194369 306.298361 
L 425.254528 306.032773 
L 424.662439 298.307739 
L 432.759657 303.045226 
L 435.903356 323.989539 
L 432.500521 333.130527 
L 428.85094 322.947317 
L 424.180302 328.014144 
L 427.369943 335.374477 
L 424.506545 340.055956 
L 412.752002 334.258696 
L 409.944354 327.028705 
L 412.99049 322.279088 
L 406.662828 317.555022 
L 403.524807 321.697065 
L 398.824229 321.312491 
L 391.432149 326.885974 
z
" clip-path="url(#pf5cb5dd27d)" style="fill: #e8edf4; stroke: #b8c5d4; stroke-width: 0.45"/>
    <path d="M 413.221234 270.363664 
L 422.814419 270.583827 
L 425.565801 274.310065 
L 428.3719 285.463743 
L 420.664418 282.813279 
L 420.872966 286.166042 
L 423.317204 292.330324 
L 418.566038 294.568338 
L 418.149975 287.542765 
L 415.142555 287.023977 
L 413.578449 280.9761 
L 419.457011 281.773123 
L 419.326927 277.991135 
z
" clip-path="url(#pf5cb5dd27d)" style="fill: #e8edf4; stroke: #b8c5d4; stroke-width: 0.45"/>
    <path d="M 394.374528 298.776971 
L 398.93986 293.304922 
L 400.041961 287.104506 
L 405.550403 286.517579 
L 403.941386 293.242719 
L 411.335015 283.59972 
L 410.381065 293.128896 
L 406.792396 296.412228 
L 403.663151 302.72363 
L 400.526163 305.681236 
z
" clip-path="url(#pf5cb5dd27d)" style="fill: #e8edf4; stroke: #b8c5d4; stroke-width: 0.45"/>
    <path d="M 389.414814 277.016536 
L 395.411071 280.108873 
L 401.768156 280.094161 
L 401.574579 284.266917 
L 396.948334 288.508588 
L 390.604154 291.508265 
L 390.252101 286.866534 
L 390.961369 281.770542 
z
" clip-path="url(#pf5cb5dd27d)" style="fill: #e8edf4; stroke: #b8c5d4; stroke-width: 0.45"/>
    <path d="M 342.372898 312.221058 
L 347.269635 305.234717 
L 354.486204 299.065273 
L 360.48401 292.154814 
L 365.719894 282.231773 
L 367.499775 290.37674 
L 360.904718 295.87718 
L 355.661607 302.742471 
z
" clip-path="url(#pf5cb5dd27d)" style="fill: #e8edf4; stroke: #b8c5d4; stroke-width: 0.45"/>
    <path d="M 373.830534 261.286944 
L 382.388208 261.653709 
L 385.857117 265.250895 
L 383.207944 273.881871 
z
" clip-path="url(#pf5cb5dd27d)" style="fill: #e8edf4; stroke: #b8c5d4; stroke-width: 0.45"/>
    <path d="M 267.343804 375.762747 
L 274.664647 379.185972 
L 282.383486 377.319368 
L 284.393595 368.861838 
L 288.657462 366.977941 
L 300.631392 364.815293 
L 312.70237 350.595864 
L 317.253248 355.772643 
L 319.350596 352.36955 
L 324.124475 352.685985 
L 325.155856 341.387253 
L 332.847852 334.440143 
L 337.886029 326.632775 
L 341.926895 326.599996 
L 347.059022 331.653401 
L 347.515349 335.995474 
L 362.427528 341.785764 
L 361.716195 345.698611 
L 355.013767 346.194169 
L 356.797778 351.072065 
L 349.442865 354.474899 
L 340.784014 352.791291 
L 329.299447 352.786645 
L 325.838798 364.14758 
L 321.992541 367.621393 
L 316.871255 381.514322 
L 308.724997 383.643416 
L 299.274801 380.844027 
L 294.484403 381.719772 
L 288.663656 386.771113 
L 282.286439 386.051521 
L 275.842631 388.082794 
L 269.011668 382.438848 
z
" clip-path="url(#pf5cb5dd27d)" style="fill: #e8edf4; stroke: #b8c5d4; stroke-width: 0.45"/>
    <path d="M 171.67212 331.230628 
L 173.40864 329.449199 
L 181.559027 333.82405 
L 182.34521 338.953338 
L 188.938718 337.760384 
L 192.204242 333.656541 
L 194.501361 334.589843 
L 200.400571 340.620428 
L 204.591137 347.308143 
L 205.164127 354.034833 
L 204.100741 358.579 
L 205.802158 367.925697 
L 209.320623 370.678369 
L 213.248956 379.511956 
L 213.057959 382.889238 
L 205.974571 383.555661 
L 184.706856 368.22742 
L 183.537131 363.138138 
L 177.762327 356.456875 
L 176.383539 348.184404 
L 172.780416 342.738166 
L 173.874774 335.46533 
z
" clip-path="url(#pf5cb5dd27d)" style="fill: #e8edf4; stroke: #b8c5d4; stroke-width: 0.45"/>
    <path d="M 312.70237 350.595864 
L 316.657545 346.858527 
L 325.155856 341.387253 
L 324.124475 352.685985 
L 319.350596 352.36955 
L 317.253248 355.772643 
z
" clip-path="url(#pf5cb5dd27d)" style="fill: #e8edf4; stroke: #b8c5d4; stroke-width: 0.45"/>
   </g>
   <g id="PathCollection_1">
    <defs>
     <path id="m5921aea0aa" d="M 0 2.12132 
C 0.562581 2.12132 1.102195 1.897805 1.5 1.5 
C 1.897805 1.102195 2.12132 0.562581 2.12132 0 
C 2.12132 -0.562581 1.897805 -1.102195 1.5 -1.5 
C 1.102195 -1.897805 0.562581 -2.12132 0 -2.12132 
C -0.562581 -2.12132 -1.102195 -1.897805 -1.5 -1.5 
C -1.897805 -1.102195 -2.12132 -0.562581 -2.12132 0 
C -2.12132 0.562581 -1.897805 1.102195 -1.5 1.5 
C -1.102195 1.897805 -0.562581 2.12132 0 2.12132 
z
" style="stroke: #ffffff; stroke-width: 0.5"/>
    </defs>
    <g clip-path="url(#pf5cb5dd27d)">
     <use xlink:href="#m5921aea0aa" x="317.323878" y="350.854324" style="fill: #8aa0b7; stroke: #ffffff; stroke-width: 0.5"/>
     <use xlink:href="#m5921aea0aa" x="75.91799" y="121.102513" style="fill: #8aa0b7; stroke: #ffffff; stroke-width: 0.5"/>
     <use xlink:href="#m5921aea0aa" x="312.329274" y="173.545861" style="fill: #8aa0b7; stroke: #ffffff; stroke-width: 0.5"/>
     <use xlink:href="#m5921aea0aa" x="306.169261" y="174.378295" style="fill: #8aa0b7; stroke: #ffffff; stroke-width: 0.5"/>
     <use xlink:href="#m5921aea0aa" x="208.774472" y="382.153846" style="fill: #8aa0b7; stroke: #ffffff; stroke-width: 0.5"/>
     <use xlink:href="#m5921aea0aa" x="380.58887" y="161.059349" style="fill: #8aa0b7; stroke: #ffffff; stroke-width: 0.5"/>
    </g>
   </g>
   <g id="PatchCollection_2">
    <defs>
     <path id="mf39bca19f3" d="M 171.974101 -240.152406 
L 174.102938 -243.831153 
L 182.602797 -250.328646 
L 183.502029 -247.981971 
L 188.827217 -247.709414 
L 187.317829 -259.135391 
L 192.496415 -260.599353 
L 198.334712 -252.711715 
L 202.819516 -243.635769 
L 215.117624 -243.557563 
L 218.989174 -234.846059 
L 212.604214 -232.229149 
L 209.73875 -228.638157 
L 221.706486 -222.662549 
L 236.304812 -202.057901 
L 243.863626 -195.107952 
L 246.379101 -188.051922 
L 244.563086 -178.065388 
L 235.709109 -181.742844 
L 231.18972 -174.855356 
L 222.946931 -178.772333 
L 226.199033 -183.274688 
L 226.645552 -191.729379 
L 218.557109 -200.435463 
L 217.934048 -210.294753 
L 210.33755 -218.406941 
L 202.782865 -219.092979 
L 200.770175 -215.61736 
L 194.919489 -215.328542 
L 191.928587 -217.089839 
L 181.399519 -211.130233 
L 181.163613 -220.084871 
L 183.621789 -230.610067 
L 176.87187 -231.067168 
L 176.298365 -237.069619 
z
" style="stroke: #b45309; stroke-width: 1.15"/>
    </defs>
    <g clip-path="url(#pf5cb5dd27d)">
     <use xlink:href="#mf39bca19f3" x="0" y="432" style="fill: #f59e0b; stroke: #b45309; stroke-width: 1.15"/>
    </g>
   </g>
   <g id="PathCollection_2">
    <defs>
     <path id="m2daf598eb8" d="M 0 3.316625 
C 0.879579 3.316625 1.723251 2.967164 2.345208 2.345208 
C 2.967164 1.723251 3.316625 0.879579 3.316625 0 
C 3.316625 -0.879579 2.967164 -1.723251 2.345208 -2.345208 
C 1.723251 -2.967164 0.879579 -3.316625 0 -3.316625 
C -0.879579 -3.316625 -1.723251 -2.967164 -2.345208 -2.345208 
C -2.967164 -1.723251 -3.316625 -0.879579 -3.316625 0 
C -3.316625 0.879579 -2.967164 1.723251 -2.345208 2.345208 
C -1.723251 2.967164 -0.879579 3.316625 0 3.316625 
z
" style="stroke: #ffffff"/>
    </defs>
    <g clip-path="url(#pf5cb5dd27d)">
     <use xlink:href="#m2daf598eb8" x="220.761523" y="216" style="fill: #f97316; stroke: #ffffff"/>
    </g>
   </g>
   <g id="PathCollection_3">
    <path d="M 220.761523 220.449719 
C 221.941602 220.449719 223.073507 219.980869 223.90795 219.146427 
C 224.742392 218.311984 225.211242 217.180079 225.211242 216 
C 225.211242 214.819921 224.742392 213.688016 223.90795 212.853573 
C 223.073507 212.019131 221.941602 211.550281 220.761523 211.550281 
C 219.581444 211.550281 218.449538 212.019131 217.615096 212.853573 
C 216.780654 213.688016 216.311804 214.819921 216.311804 216 
C 216.311804 217.180079 216.780654 218.311984 217.615096 219.146427 
C 218.449538 219.980869 219.581444 220.449719 220.761523 220.449719 
L 220.761523 220.449719 
z
" clip-path="url(#pf5cb5dd27d)" style="fill: none; stroke: #7c2d12; stroke-width: 1.1"/>
   </g>
  </g>
 </g>
 <defs>
  <clipPath id="pf5cb5dd27d">
   <rect x="0" y="0" width="441.523046" height="432"/>
  </clipPath>
 </defs>
</svg>
