<?xml version="1.0" encoding="utf-8" standalone="no"?>
<!DOCTYPE svg PUBLIC "-//W3C//DTD SVG 1.1//EN"
  "http://www.w3.org/Graphics/SVG/1.1/DTD/svg11.dtd">
<svg xmlns:xlink="http://www.w3.org/1999/xlink" width="494.736671pt" height="432pt" viewBox="0 0 494.736671 432" xmlns="http://www.w3.org/2000/svg" version="1.1">
 <metadata>
  <rdf:RDF xmlns:dc="http://purl.org/dc/elements/1.1/" xmlns:cc="http://creativecommons.org/ns#" xmlns:rdf="http://www.w3.org/1999/02/22-rdf-syntax-ns#">
   <cc:Work>
    <dc:type rdf:resource="http://purl.org/dc/dcmitype/StillImage"/>
    <dc:date>2026-06-09T04:57:02.284151</dc:date>
    <dc:format>image/svg+xml</dc:format>
    <dc:creator>
     <cc:Agent>
      <dc:title>Matplotlib v3.10.8, https://matplotlib.org/</dc:title>
     </cc:Agent>
    </dc:creator>
   </cc:Work>
  </rdf:RDF>
 </metadata>
 <defs>
  <style type="text/css">*{stroke-linejoin: round; stroke-linecap: butt}</style>
 </defs>
 <g id="figure_1">
  <g id="patch_1">
   <path d="M 0 432 
L 494.736671 432 
L 494.736671 0 
L 0 0 
z
" style="fill: #eaf3ff"/>
  </g>
  <g id="axes_1">
   <g id="PatchCollection_1">
    <path d="M 97.401021 268.32449 
L 97.722392 265.16601 
L 114.685943 264.58082 
L 115.583814 261.887402 
L 118.645921 258.52961 
L 121.112988 248.208253 
L 131.503873 240.14229 
L 135.018488 230.71861 
L 137.354612 230.171274 
L 139.788847 224.346029 
L 146.077223 223.543372 
L 148.781843 224.514054 
L 152.175943 224.514054 
L 154.585071 222.813334 
L 159.20556 222.572498 
L 159.034059 218.5681 
L 160.171992 218.5681 
L 160.009761 231.838389 
L 135.476983 231.44749 
L 135.717626 250.573347 
L 128.713889 251.244287 
L 126.886088 255.083364 
L 128.303677 265.877894 
L 99.032213 265.831156 
z
" clip-path="url(#pf53bdef3f9)" style="fill: #e8edf4; stroke: #b8c5d4; stroke-width: 0.45"/>
    <path d="M 316.003203 468.568322 
L 317.904394 467.778799 
L 318.13847 464.520277 
L 319.361382 462.598614 
L 322.081452 461.027679 
L 324.045217 461.789005 
L 326.601512 458.927562 
L 330.673119 459.001338 
L 331.152087 461.117292 
L 333.944388 462.441404 
L 344.585958 451.71447 
L 344.335659 445.564763 
L 347.581821 438.303388 
L 351.006823 434.45311 
L 355.928211 430.850426 
L 356.787262 428.46602 
L 356.973441 425.724705 
L 358.191717 423.130943 
L 357.800432 418.894787 
L 358.732101 412.270941 
L 360.192951 407.607577 
L 362.431736 403.610711 
L 363.54688 393.883621 
L 366.456992 390.088578 
L 370.459458 387.681575 
L 376.610324 390.221839 
L 381.371027 392.979184 
L 392.415084 395.173935 
L 394.650007 390.660056 
L 395.676696 390.083943 
L 399.083157 390.834647 
L 407.404826 387.10411 
L 410.353565 388.685281 
L 412.773894 388.461055 
L 413.894832 386.643491 
L 416.672842 386.003065 
L 427.089606 386.961579 
L 429.557446 386.168579 
L 434.085232 392.339145 
L 437.441478 393.245513 
L 439.442325 391.990348 
L 442.898615 392.482255 
L 447.06138 390.901084 
L 448.836649 394.093555 
L 455.417041 399.060716 
L 454.964726 407.800709 
L 457.960588 408.812913 
L 455.557641 411.466932 
L 452.686155 413.452135 
L 449.828189 417.350117 
L 448.255708 420.825334 
L 447.835067 426.825171 
L 446.103446 429.681206 
L 446.040871 435.316409 
L 443.891313 437.399917 
L 443.614362 441.847746 
L 442.587672 442.424051 
L 441.895874 446.513041 
L 443.775434 449.91139 
L 444.250924 458.926403 
L 445.596282 465.803059 
L 444.848861 469.690033 
L 446.344088 474.025458 
L 450.679128 478.211014 
L 454.715586 487.629286 
L 451.771096 486.868733 
L 441.731325 488.13027 
L 439.727774 489.023699 
L 437.597529 493.795216 
L 439.270438 497.091592 
L 437.017361 513.444074 
L 444.262512 517.682934 
L 446.31396 516.323671 
L 446.938935 524.38384 
L 441.218367 524.322038 
L 435.39428 517.023195 
L 429.666373 515.978738 
L 427.989215 512.062022 
L 423.419713 514.421708 
L 417.434168 513.379182 
L 414.936199 509.985467 
L 410.190175 509.295986 
L 406.687148 509.476371 
L 406.258395 507.152994 
L 400.27594 506.524157 
L 390.547498 508.145692 
L 390.947281 499.250808 
L 388.453948 496.477047 
L 387.905453 491.88012 
L 389.006691 487.374352 
L 387.491764 484.490506 
L 387.354641 479.787357 
L 378.285165 479.852635 
L 378.936019 477.159604 
L 375.122436 477.187801 
L 374.719563 478.482944 
L 370.083624 478.774959 
L 367.088147 484.999988 
L 362.957827 483.944329 
L 360.491533 484.995739 
L 355.5489 485.600242 
L 350.968583 479.274785 
L 346.979636 469.222653 
L 324.922423 469.12377 
L 317.050365 470.886678 
z
" clip-path="url(#pf53bdef3f9)" style="fill: #e8edf4; stroke: #b8c5d4; stroke-width: 0.45"/>
    <path d="M 478.287333 424.469727 
L 484.10659 416.493317 
L 486.826545 411.045036 
L 482.664204 398.713637 
L 479.120242 393.524091 
L 488.785034 384.135055 
L 492.667677 385.389064 
L 492.667677 389.584341 
L 495.221253 392.044264 
L 500.423727 392.044264 
L 509.885317 398.392189 
L 513.998063 398.261644 
L 515.652729 399.123697 
L 520.637389 399.711803 
L 522.846569 396.596887 
L 529.674972 393.470759 
L 532.689653 395.996672 
L 537.796963 395.998003 
L 531.263861 404.4772 
L 531.353183 431.705974 
L 535.779155 437.872272 
L 530.5442 440.856905 
L 528.698557 443.975633 
L 525.896979 444.523525 
L 524.836698 449.790098 
L 522.436359 452.805975 
L 520.977529 457.779391 
L 517.967707 460.247823 
L 507.239175 452.775777 
L 506.729328 448.439501 
L 478.363143 432.391476 
z
" clip-path="url(#pf53bdef3f9)" style="fill: #e8edf4; stroke: #b8c5d4; stroke-width: 0.45"/>
    <path d="M 388.914597 331.198151 
L 389.667893 328.452857 
L 391.603756 325.336969 
L 390.756951 322.241263 
L 393.214097 319.948784 
L 391.655555 318.202404 
L 393.632155 313.587024 
L 397.045385 308.082459 
L 403.490786 308.604788 
L 403.215046 275.797299 
L 411.810908 275.774576 
L 411.810908 260.847974 
L 500.506971 260.847974 
L 502.917474 268.181739 
L 501.278206 269.537718 
L 502.3642 277.232733 
L 505.108074 286.156508 
L 512.046803 290.759275 
L 508.263951 295.025569 
L 502.758638 296.254403 
L 500.404568 298.54606 
L 499.667267 303.514394 
L 496.448154 314.497438 
L 497.242636 317.490143 
L 496.051997 323.909234 
L 493.012874 331.27215 
L 488.504606 334.975247 
L 485.299023 340.685142 
L 484.547968 343.740709 
L 481.007221 345.834213 
L 478.795992 353.656522 
L 478.895853 360.376393 
L 478.809243 354.54821 
L 477.77453 354.400394 
L 477.902851 350.679105 
L 477.004608 348.112698 
L 473.154999 345.161331 
L 472.256757 339.771878 
L 473.154999 334.254105 
L 469.690351 333.740824 
L 469.177069 335.408988 
L 464.685859 335.793949 
L 466.482343 337.975394 
L 467.123944 342.466605 
L 463.017695 346.572855 
L 459.296406 351.962308 
L 455.446796 352.73223 
L 449.159101 348.369339 
L 446.336054 349.909183 
L 445.566132 352.090628 
L 441.716523 353.502152 
L 441.459882 355.041995 
L 434.017304 355.041995 
L 432.990742 353.502152 
L 427.601289 353.245511 
L 424.906562 354.528714 
L 422.853437 353.887112 
L 417.720625 347.471097 
L 412.331172 348.497659 
L 410.278047 351.962308 
L 408.353242 358.634964 
L 403.491456 360.860977 
L 408.577137 363.780145 
L 402.884766 360.512739 
L 400.292549 358.360283 
L 399.812423 356.037292 
L 401.026837 352.926709 
L 401.00482 349.87677 
L 396.693729 345.203556 
L 395.936369 340.19443 
L 393.189207 337.991274 
L 393.106462 333.649392 
L 391.539698 330.765592 
z
" clip-path="url(#pf53bdef3f9)" style="fill: #e8edf4; stroke: #b8c5d4; stroke-width: 0.45"/>
    <path d="M 326.154218 317.901073 
L 329.381602 308.055176 
L 338.915991 301.007049 
L 339.30998 291.285174 
L 342.189963 276.117363 
L 343.815748 272.899978 
L 340.705551 270.337697 
L 340.585298 267.960489 
L 337.788486 266.016563 
L 335.952802 254.397714 
L 343.498847 250.310793 
L 403.122809 278.933144 
L 403.490786 308.604788 
L 397.045385 308.082459 
L 393.632155 313.587024 
L 391.655555 318.202404 
L 393.214097 319.948784 
L 390.756951 322.241263 
L 391.603756 325.336969 
L 389.667893 328.452857 
L 388.914597 331.198151 
L 391.539698 330.765592 
L 393.106462 333.649392 
L 393.189207 337.991274 
L 395.936369 340.19443 
L 395.846266 342.004905 
L 391.114533 343.279383 
L 387.322581 346.305374 
L 381.918749 354.460756 
L 374.883725 357.923612 
L 367.665612 357.45913 
L 365.55777 358.146293 
L 366.297851 360.777523 
L 359.226132 366.308628 
L 349.815971 369.168333 
L 347.948772 367.475725 
L 346.710796 367.329717 
L 345.332993 369.252345 
L 339.153157 369.814166 
L 340.323923 367.789371 
L 336.914758 359.542637 
L 333.659326 358.27376 
L 329.247419 353.911296 
L 330.871273 350.384127 
L 334.277734 351.135024 
L 336.386735 350.602753 
L 340.561475 350.67595 
L 336.492957 343.881568 
L 336.766432 338.916532 
L 336.267186 333.957273 
L 333.295465 329.170901 
L 334.042886 325.650106 
L 329.249351 325.478025 
L 329.26596 320.670005 
z
" clip-path="url(#pf53bdef3f9)" style="fill: #e8edf4; stroke: #b8c5d4; stroke-width: 0.45"/>
    <path d="M 428.914317 -4.312148 
L 432.117217 -6.684387 
L 429.900712 -13.655787 
L 435.219302 -17.9631 
L 434.093773 -19.267764 
L 442.589325 -23.39886 
L 434.758121 -26.952838 
L 457.705268 -40.812153 
L 460.516497 -44.624192 
L 449.452354 -49.745278 
L 452.508087 -54.616066 
L 445.778984 -60.178845 
L 450.81108 -66.586936 
L 442.117589 -75.095391 
L 449.015489 -80.731367 
L 437.568173 -85.711854 
L 438.659368 -90.945343 
L 444.696059 -91.634081 
L 457.414421 -94.632841 
L 465.125582 -97.232828 
L 477.404583 -92.71417 
L 497.873871 -90.9352 
L 526.115986 -82.481208 
L 531.853014 -78.928725 
L 532.346939 -73.953963 
L 524.049167 -70.026776 
L 511.843941 -68.033657 
L 478.475254 -73.714998 
L 472.986833 -72.765118 
L 485.173 -67.290825 
L 486.138278 -56.185121 
L 501.602009 -51.965375 
L 502.568034 -55.58969 
L 498.065365 -58.801926 
L 502.822696 -61.633029 
L 520.892019 -56.980575 
L 527.186806 -58.801926 
L 522.156358 -64.27607 
L 539.575984 -71.596829 
L 546.474724 -71.165914 
L 553.453891 -68.55352 
L 557.807957 -73.690556 
L 551.57506 -78.146277 
L 555.234356 -82.616574 
L 549.739507 -87.252957 
L 570.647483 -84.855161 
L 574.918057 -80.669125 
L 565.453864 -79.746378 
L 565.505065 -75.586953 
L 571.388596 -73.027778 
L 582.937024 -74.648883 
L 584.765326 -79.416447 
L 626.464001 -89.395121 
L 632.10199 -89.027143 
L 624.732795 -84.491219 
L 634.004814 -83.711687 
L 639.359662 -86.26533 
L 653.369721 -86.471781 
L 664.469445 -89.570327 
L 672.986225 -85.06774 
L 681.480581 -90.017835 
L 673.648331 -94.347982 
L 677.535155 -96.81462 
L 699.615308 -94.552713 
L 709.9611 -92.21647 
L 737.049613 -83.676631 
L 742.046574 -87.588121 
L 734.450523 -91.5402 
L 734.232114 -93.1258 
L 725.224099 -93.859214 
L 727.688346 -97.4031 
L 723.690597 -103.234533 
L 723.464414 -105.627023 
L 737.258156 -112.395554 
L 742.163777 -119.188976 
L 747.722235 -120.658793 
L 767.511702 -118.68765 
L 769.070095 -114.530019 
L 761.984713 -108.467469 
L 766.633953 -106.084622 
L 769.039075 -100.859459 
L 767.340981 -90.617004 
L 775.586804 -86.03541 
L 772.378904 -81.046073 
L 757.738282 -70.429062 
L 766.281896 -69.32782 
L 769.255018 -72.018699 
L 777.478791 -73.938117 
L 779.463463 -77.636804 
L 785.932709 -81.196089 
L 781.576924 -85.445584 
L 785.064452 -90.380281 
L 776.891058 -90.995297 
L 775.093477 -95.15248 
L 781.057734 -102.657938 
L 771.35039 -108.752927 
L 784.727943 -113.790999 
L 782.99711 -119.106082 
L 786.725098 -119.275757 
L 790.653033 -115.131729 
L 787.704054 -107.91868 
L 795.702915 -106.553134 
L 792.294618 -111.943412 
L 804.803615 -114.88215 
L 820.316305 -115.277859 
L 834.129332 -111.016479 
L 827.482189 -117.241751 
L 826.737563 -125.204883 
L 839.735329 -126.71327 
L 857.713835 -126.383712 
L 873.911727 -127.362668 
L 867.83677 -131.270347 
L 876.486898 -136.179406 
L 885.074463 -136.38496 
L 899.607374 -140.092915 
L 919.344818 -141.089512 
L 921.83859 -143.136598 
L 941.465484 -143.830247 
L 947.581327 -142.152035 
L 964.356936 -146.124146 
L 978.088862 -145.999992 
L 980.149253 -149.226131 
L 987.291443 -152.407721 
L 1004.937327 -155.475173 
L 1017.756671 -153.053158 
L 1007.578872 -151.210728 
L 1024.509954 -150.065535 
L 1026.527141 -146.371632 
L 1033.357488 -148.190591 
L 1055.209364 -148.090804 
L 1072.059122 -144.444963 
L 1078.058734 -141.644954 
L 1076.199188 -137.759251 
L 1048.287752 -131.397865 
L 1042.672412 -129.179908 
L 1062.997439 -126.247897 
L 1069.727251 -127.662029 
L 1073.539628 -122.864192 
L 1076.822724 -124.806334 
L 1088.774784 -125.987106 
L 1112.757313 -124.752815 
L 1114.578664 -121.256766 
L 1145.827686 -120.144686 
L 1146.254564 -125.853908 
L 1162.117517 -124.545618 
L 1174.050367 -124.586654 
L 1186.120601 -120.649151 
L 1189.561263 -115.865442 
L 1185.139477 -112.735651 
L 1194.527578 -106.853391 
L 1206.282157 -103.818304 
L 1213.494609 -111.661542 
L 1225.485163 -108.298841 
L 1238.224006 -110.308255 
L 1252.692112 -108.008899 
L 1258.1975 -110.104794 
L 1270.424104 -109.056847 
L 1265.027996 -115.996024 
L 1274.896493 -119.234197 
L 1342.406373 -114.380077 
L 1348.768656 -109.943342 
L 1368.33523 -104.23113 
L 1398.517767 -105.645261 
L 1413.399147 -104.414259 
L 1419.621953 -101.323636 
L 1418.71266 -95.857714 
L 1427.920472 -93.729678 
L 1437.925607 -95.26019 
L 1451.181248 -95.455951 
L 1465.292588 -93.989123 
L 1479.459316 -94.816568 
L 1492.479879 -88.172416 
L 1501.742854 -90.563037 
L 1495.698244 -95.340318 
L 1499.026338 -98.661086 
L 1522.873949 -96.571171 
L 1538.422144 -97.018305 
L 1559.919048 -93.451022 
L 1570.383576 -90.189351 
L 1570.383576 -60.410837 
L 1560.720332 -57.086267 
L 1551.033768 -57.63401 
L 1557.77382 -53.655397 
L 1562.223113 -47.496574 
L 1565.67708 -45.483273 
L 1566.54429 -42.391155 
L 1564.615005 -40.411566 
L 1550.682608 -42.039547 
L 1529.790852 -36.412995 
L 1523.144681 -35.541898 
L 1500.858004 -25.702028 
L 1498.109944 -22.305467 
L 1487.418262 -27.476289 
L 1467.943178 -21.608679 
L 1464.542356 -24.385142 
L 1457.342313 -21.182997 
L 1447.345326 -22.207848 
L 1444.937139 -17.291762 
L 1435.969189 -10.058307 
L 1436.235586 -7.037348 
L 1444.748778 -5.36235 
L 1443.747397 5.519188 
L 1436.80822 5.796125 
L 1433.608167 12.048754 
L 1436.717851 15.266896 
L 1423.646759 19.085028 
L 1421.052753 27.619298 
L 1409.909601 29.442294 
L 1407.668996 37.036476 
L 1396.895092 44.00017 
L 1394.131037 38.850502 
L 1386.758478 11.336045 
L 1390.351997 0.969511 
L 1396.658594 -3.491218 
L 1397.048771 -6.984427 
L 1408.664247 -8.656584 
L 1422.016311 -18.067333 
L 1434.883195 -25.753005 
L 1448.320022 -31.717038 
L 1454.328604 -42.254145 
L 1445.245918 -41.623732 
L 1440.757308 -35.466329 
L 1421.79835 -27.257131 
L 1415.675406 -36.448948 
L 1396.378518 -33.911001 
L 1377.672279 -21.381673 
L 1383.844033 -16.797986 
L 1355.604609 -14.07676 
L 1356.145924 -19.481464 
L 1344.52701 -20.615894 
L 1335.26665 -16.943966 
L 1312.412198 -18.228786 
L 1287.825043 -16.013371 
L 1234.966996 16.205339 
L 1246.743477 17.147446 
L 1250.418843 21.828304 
L 1257.678833 23.489996 
L 1262.462094 19.756103 
L 1270.660901 20.240984 
L 1281.452819 28.463935 
L 1281.706359 34.823378 
L 1275.862593 42.291313 
L 1275.23218 51.217106 
L 1271.859987 63.167746 
L 1260.594101 73.984031 
L 1258.090014 79.154255 
L 1233.047503 100.903579 
L 1223.087366 105.289262 
L 1218.373844 105.386284 
L 1213.678261 101.753074 
L 1203.645769 107.223182 
L 1202.480694 109.710301 
L 1201.434241 108.402235 
L 1201.388394 104.604997 
L 1205.206613 104.403368 
L 1206.281971 95.57183 
L 1204.313406 89.170228 
L 1210.728641 86.530165 
L 1219.800383 87.853716 
L 1224.827273 80.582088 
L 1227.388885 72.393199 
L 1230.292492 69.657696 
L 1234.220438 62.932146 
L 1221.866947 65.135588 
L 1215.387118 68.084205 
L 1204.029892 68.07546 
L 1201.002903 61.052586 
L 1192.149348 55.738753 
L 1179.140313 53.349329 
L 1176.375104 46.027693 
L 1166.350784 30.682201 
L 1159.787001 27.929685 
L 1148.599366 25.704066 
L 1138.690041 25.906435 
L 1129.401553 27.254303 
L 1123.227511 30.973058 
L 1127.328861 32.749486 
L 1127.421629 36.876369 
L 1123.26482 39.272446 
L 1116.517517 47.200298 
L 1116.585317 50.489427 
L 1106.051901 55.212662 
L 1097.078991 52.390618 
L 1088.160931 53.013662 
L 1084.247305 50.509127 
L 1079.765099 49.701449 
L 1068.816835 54.969123 
L 1058.976377 56.206905 
L 1052.105515 58.059427 
L 1042.690719 56.842309 
L 1035.7596 56.920141 
L 1031.222544 53.099412 
L 1023.902071 49.507158 
L 1016.410869 48.522571 
L 999.891522 50.884961 
L 989.272602 47.741164 
L 987.847333 42.140026 
L 972.27404 39.343783 
L 963.900612 36.254058 
L 956.158725 44.00058 
L 959.1936 48.400126 
L 951.928217 53.605112 
L 941.121799 51.725907 
L 933.661557 51.457018 
L 928.66562 47.965579 
L 920.866884 47.855302 
L 914.367676 45.561472 
L 902.998385 49.077246 
L 888.735977 55.515107 
L 877.930632 57.425181 
L 873.964474 52.852976 
L 864.33646 53.853206 
L 861.154419 50.680628 
L 855.928268 49.229821 
L 852.330993 44.910618 
L 848.204149 43.565647 
L 837.462923 45.486537 
L 827.166287 41.180081 
L 823.183134 45.093707 
L 806.479925 26.110575 
L 796.944228 20.335737 
L 799.679363 17.992274 
L 780.945764 25.045922 
L 773.776507 25.472274 
L 774.395688 21.392555 
L 764.795485 18.843406 
L 756.991796 20.662516 
L 754.63829 12.915415 
L 741.205577 11.304501 
L 734.485358 14.405428 
L 715.782031 17.164638 
L 712.131881 19.011045 
L 684.162191 21.612062 
L 680.734807 24.16284 
L 686.130914 29.28296 
L 678.95529 31.226447 
L 680.35511 33.26283 
L 673.181417 36.903947 
L 685.29388 42.044733 
L 683.420886 45.584648 
L 672.921848 45.262311 
L 670.750272 47.480431 
L 661.19046 43.607078 
L 649.340579 43.757244 
L 641.409663 46.910355 
L 616.08389 38.711082 
L 604.407905 38.904601 
L 588.978208 47.034297 
L 588.047312 52.493557 
L 580.360661 48.158711 
L 574.396746 56.371067 
L 576.57991 57.895651 
L 572.265342 63.560597 
L 578.609793 68.630678 
L 584.156067 68.421985 
L 588.921041 73.41612 
L 588.162486 77.262493 
L 591.958942 78.47122 
L 588.552364 82.903994 
L 581.305679 84.135818 
L 573.876612 91.851838 
L 580.670557 98.945591 
L 579.934901 103.980374 
L 588.096111 112.783284 
L 583.633088 115.796028 
L 582.350306 117.697605 
L 579.043887 117.186964 
L 573.906964 112.646818 
L 567.107483 110.663769 
L 564.819333 107.596611 
L 557.848043 106.032822 
L 553.315311 107.206588 
L 552.0056 105.817273 
L 541.828175 102.233396 
L 524.50613 99.745798 
L 523.594548 100.628604 
L 514.064289 94.312497 
L 505.536596 91.492979 
L 499.081029 87.101765 
L 504.520416 85.907164 
L 510.722741 79.655655 
L 506.542686 76.697931 
L 517.559964 73.646924 
L 517.36211 72.012888 
L 510.65239 73.21758 
L 510.888397 69.897256 
L 514.741269 67.810184 
L 521.974557 67.262164 
L 523.150638 64.769566 
L 521.498962 60.647963 
L 524.534714 56.734155 
L 524.446894 54.539444 
L 513.428855 52.1071 
L 509.060983 52.187829 
L 504.447833 48.687506 
L 498.712587 49.871212 
L 489.21938 47.243072 
L 489.382281 45.772488 
L 486.723342 42.531232 
L 480.763291 42.169303 
L 480.14411 39.849016 
L 482.010923 38.335634 
L 477.234384 34.103534 
L 469.483613 34.825654 
L 467.21354 34.450206 
L 465.325305 36.15028 
L 462.533742 35.848079 
L 460.695337 31.061513 
L 458.940154 28.580346 
L 460.378573 27.881958 
L 466.409725 28.141358 
L 469.318292 26.506689 
L 467.165257 24.51376 
L 462.124899 23.198339 
L 462.574511 21.848346 
L 459.532682 20.484835 
L 454.846529 15.591065 
L 456.448365 13.574574 
L 455.716395 10.065753 
L 448.409055 8.283145 
L 444.486932 9.175415 
L 443.425092 7.319803 
L 435.555738 5.445264 
L 433.153177 1.033744 
L 432.515841 -2.590956 
z
" clip-path="url(#pf53bdef3f9)" style="fill: #e8edf4; stroke: #b8c5d4; stroke-width: 0.45"/>
    <path d="M 609.558734 -112.996376 
L 617.201737 -114.600143 
L 616.946803 -118.676 
L 631.772384 -125.050513 
L 624.900749 -125.964413 
L 642.796355 -132.524719 
L 640.774263 -135.917661 
L 657.492923 -139.864119 
L 682.169778 -144.666538 
L 707.047876 -146.065585 
L 719.849047 -148.836643 
L 734.395359 -149.80771 
L 739.59138 -146.856074 
L 734.571109 -144.530187 
L 685.260275 -137.259155 
L 662.040794 -130.144561 
L 639.185174 -115.660244 
L 640.706281 -109.451246 
L 655.004225 -103.321045 
L 650.588842 -102.665362 
L 626.164604 -103.636429 
L 624.181139 -106.955208 
L 610.651088 -108.959145 
z
" clip-path="url(#pf53bdef3f9)" style="fill: #e8edf4; stroke: #b8c5d4; stroke-width: 0.45"/>
    <path d="M -1120.494879 -60.410837 
L -1120.494879 -90.189351 
L -1102.181956 -84.481427 
L -1082.58526 -77.050791 
L -1083.228081 -72.404989 
L -1078.187019 -70.545368 
L -1079.921066 -75.976682 
L -1059.63102 -74.862135 
L -1044.997649 -67.867047 
L -1052.408702 -64.609215 
L -1064.66102 -63.835737 
L -1064.846017 -56.532095 
L -1067.838349 -54.976618 
L -1074.838445 -55.200185 
L -1080.534736 -57.806226 
L -1090.473122 -59.986062 
L -1092.14468 -63.228496 
L -1099.7352 -64.451126 
L -1108.235909 -63.481513 
L -1112.297566 -66.097047 
L -1110.673995 -68.875155 
L -1119.626099 -67.099549 
L -1116.254353 -63.583094 
z
" clip-path="url(#pf53bdef3f9)" style="fill: #e8edf4; stroke: #b8c5d4; stroke-width: 0.45"/>
    <path d="M 1283.31226 37.090705 
L 1283.973544 26.876343 
L 1290.883032 23.436663 
L 1287.914208 19.973421 
L 1291.240713 18.923943 
L 1295.770816 31.071169 
L 1295.579615 38.426985 
L 1298.664705 45.969367 
L 1306.185262 59.208562 
L 1295.12112 56.740722 
L 1290.522262 67.541433 
L 1297.808744 75.201818 
L 1297.597844 80.425264 
L 1291.935215 75.91911 
L 1287.034299 81.70457 
L 1285.650702 75.432031 
L 1286.484259 68.150184 
L 1285.632161 60.084608 
L 1287.361465 54.433954 
L 1287.69172 44.43899 
z
" clip-path="url(#pf53bdef3f9)" style="fill: #e8edf4; stroke: #b8c5d4; stroke-width: 0.45"/>
    <path d="M 467.528345 86.483041 
L 468.848595 85.050002 
L 476.00452 82.565553 
L 474.867071 81.665985 
L 476.836448 79.814844 
L 484.554452 81.712714 
L 485.524474 83.188835 
L 486.652153 83.416493 
L 486.712913 84.063098 
L 490.369673 85.866177 
L 497.99375 85.417725 
L 496.534059 88.084491 
L 488.351445 89.379247 
L 478.204679 93.703472 
L 474.048093 92.183137 
L 475.696281 88.67084 
z
" clip-path="url(#pf53bdef3f9)" style="fill: #e8edf4; stroke: #b8c5d4; stroke-width: 0.45"/>
    <path d="M 560.160218 -177.091073 
L 574.752109 -178.452267 
L 586.108653 -178.542653 
L 587.635941 -176.528673 
L 591.929264 -178.318234 
L 598.974717 -179.550802 
L 610.060877 -177.912656 
L 607.170078 -176.773178 
L 590.413564 -175.22059 
L 589.371038 -173.994009 
L 580.634522 -172.758544 
L 572.537272 -174.53053 
L 576.795059 -176.86395 
z
" clip-path="url(#pf53bdef3f9)" style="fill: #e8edf4; stroke: #b8c5d4; stroke-width: 0.45"/>
    <path d="M 906.492061 -175.234742 
L 925.900695 -180.340982 
L 942.070146 -182.028761 
L 956.593079 -178.265829 
L 973.805769 -171.039027 
L 971.960312 -164.317848 
L 955.651944 -163.385458 
L 934.832393 -165.542235 
L 922.426621 -168.395725 
L 916.689968 -173.757225 
z
" clip-path="url(#pf53bdef3f9)" style="fill: #e8edf4; stroke: #b8c5d4; stroke-width: 0.45"/>
    <path d="M 1248.781667 -137.265026 
L 1252.798327 -142.403857 
L 1262.659761 -143.806029 
L 1282.396906 -143.478115 
L 1309.415344 -139.514563 
L 1303.538129 -133.963692 
L 1275.985103 -134.170591 
L 1263.589347 -132.405076 
z
" clip-path="url(#pf53bdef3f9)" style="fill: #e8edf4; stroke: #b8c5d4; stroke-width: 0.45"/>
    <path d="M 371.900995 18.473945 
L 373.604033 15.184522 
L 383.918823 12.76033 
L 391.746847 14.069764 
L 395.050948 15.256174 
L 394.253314 17.302986 
L 394.851636 19.21055 
L 381.106822 19.32276 
z
" clip-path="url(#pf53bdef3f9)" style="fill: #e8edf4; stroke: #b8c5d4; stroke-width: 0.45"/>
    <path d="M 1270.373949 -123.124161 
L 1277.464339 -126.078372 
L 1286.810358 -126.769928 
L 1297.430059 -123.91214 
L 1298.334643 -121.947724 
L 1287.00141 -121.895401 
z
" clip-path="url(#pf53bdef3f9)" style="fill: #e8edf4; stroke: #b8c5d4; stroke-width: 0.45"/>
    <path d="M 968.210872 -157.14262 
L 981.865286 -166.956777 
L 988.005348 -167.797079 
L 993.622295 -167.310329 
L 1012.567686 -163.065094 
L 1010.34801 -160.027018 
z
" clip-path="url(#pf53bdef3f9)" style="fill: #e8edf4; stroke: #b8c5d4; stroke-width: 0.45"/>
    <path d="M -1120.494879 -104.156228 
L -1120.494879 -109.265273 
L -1113.202075 -109.562881 
L -1102.390835 -107.424754 
L -1103.030891 -106.402893 
L -1110.731325 -104.610843 
z
" clip-path="url(#pf53bdef3f9)" style="fill: #e8edf4; stroke: #b8c5d4; stroke-width: 0.45"/>
    <path d="M 1317.13596 -136.602099 
L 1318.924609 -139.022693 
L 1351.612691 -135.937452 
L 1342.973887 -132.983914 
L 1331.025938 -133.65241 
z
" clip-path="url(#pf53bdef3f9)" style="fill: #e8edf4; stroke: #b8c5d4; stroke-width: 0.45"/>
    <path d="M 1560.855623 -106.148979 
L 1570.383576 -109.265273 
L 1570.383576 -104.156228 
L 1562.187048 -103.774577 
z
" clip-path="url(#pf53bdef3f9)" style="fill: #e8edf4; stroke: #b8c5d4; stroke-width: 0.45"/>
    <path d="M 190.618084 61.392884 
L 200.309252 59.766906 
L 212.861476 61.689921 
L 210.492133 53.229197 
L 217.548402 56.435573 
L 234.951135 50.606851 
L 237.195328 44.481865 
L 243.732458 42.972732 
L 244.815156 45.601258 
L 248.289599 45.724476 
L 256.980923 52.248859 
L 260.81691 51.666759 
L 269.028107 55.723303 
L 271.185005 55.565321 
L 274.712367 57.52252 
L 285.483721 58.899164 
L 281.704516 64.017547 
L 280.755851 69.342774 
L 278.703631 70.619569 
L 275.297943 69.931633 
L 275.538199 71.830893 
L 270.071792 76.031126 
L 269.961321 79.415571 
L 273.530399 78.244418 
L 276.097895 81.522254 
L 275.789657 83.634345 
L 277.98943 86.440938 
L 275.397985 88.717577 
L 277.323511 94.501107 
L 281.375032 95.449384 
L 280.519844 98.693808 
L 273.748252 102.916638 
L 259.006105 100.892808 
L 248.118871 103.317966 
L 247.263683 107.819099 
L 238.599011 108.788042 
L 230.188501 105.406881 
L 227.471135 107.022816 
L 213.711643 103.625818 
L 210.732389 100.719762 
L 214.597732 96.236397 
L 216.021115 81.344572 
L 208.307811 73.500325 
L 202.79486 69.718416 
L 191.371492 66.843454 
z
" clip-path="url(#pf53bdef3f9)" style="fill: #e8edf4; stroke: #b8c5d4; stroke-width: 0.45"/>
    <path d="M -182.60978 408.010257 
L -180.703375 404.866841 
L -178.739223 398.231987 
L -181.673863 393.802699 
L -182.26504 388.688951 
L -178.373817 382.262292 
L -170.331803 384.853737 
L -162.417643 391.162971 
L -161.180246 394.224112 
L -165.601809 401.06446 
L -167.897182 406.56872 
L -170.761715 409.407953 
L -174.340643 409.942156 
L -175.359993 407.837983 
L -177.031937 407.525496 
L -179.345657 409.552222 
z
" clip-path="url(#pf53bdef3f9)" style="fill: #e8edf4; stroke: #b8c5d4; stroke-width: 0.45"/>
    <path d="M 288.809453 109.437352 
L 290.317814 106.659728 
L 295.131434 103.805431 
L 296.402243 110.214901 
L 293.93363 115.988966 
L 290.539916 114.467087 
z
" clip-path="url(#pf53bdef3f9)" style="fill: #e8edf4; stroke: #b8c5d4; stroke-width: 0.45"/>
    <path d="M 93.203105 315.192204 
L 96.490983 313.772491 
L 100.112207 308.524903 
L 101.888248 304.686599 
L 104.447633 302.290025 
L 108.162719 302.935279 
L 111.809823 301.306211 
L 115.983597 301.22413 
L 119.555186 303.421392 
L 124.516746 305.401574 
L 133.972099 316.034646 
L 134.314908 320.684683 
L 135.788698 324.965067 
L 138.586601 327.064411 
L 139.225674 329.954824 
L 138.881513 332.283415 
L 137.802485 332.705022 
L 133.726822 332.114039 
L 133.165966 332.945279 
L 131.518165 333.112338 
L 126.14562 331.290138 
L 108.724733 330.899239 
L 106.720796 331.740908 
L 104.245617 331.500265 
L 100.286026 332.717962 
L 99.059638 326.988317 
L 105.86329 327.146106 
L 111.769265 324.311508 
L 114.975641 325.890941 
L 118.223348 326.022657 
L 121.457922 324.34492 
L 119.947823 322.184546 
L 117.483266 323.443187 
L 115.163752 323.40823 
L 112.213468 321.568455 
L 109.843739 321.68897 
L 108.155766 323.458831 
L 100.014869 323.672821 
L 96.932483 317.853369 
z
" clip-path="url(#pf53bdef3f9)" style="fill: #e8edf4; stroke: #b8c5d4; stroke-width: 0.45"/>
    <path d="M 133.972099 316.034646 
L 136.487643 314.672293 
L 137.744352 310.268885 
L 140.113695 310.096611 
L 145.333279 312.17838 
L 149.548577 310.700341 
L 152.438217 311.196497 
L 153.559541 309.534211 
L 183.551579 309.420649 
L 185.214445 304.18716 
L 183.919496 303.265921 
L 176.704473 238.748457 
L 188.144064 238.614037 
L 238.572359 271.231705 
L 240.349559 274.734152 
L 248.464577 278.087695 
L 248.550328 282.843183 
L 256.841868 282.111406 
L 256.862726 299.325836 
L 252.775668 304.31849 
L 252.139105 308.924107 
L 245.499615 310.109551 
L 235.300704 310.752101 
L 232.536986 313.408438 
L 222.954165 313.736376 
L 221.08851 312.302371 
L 216.973641 313.366335 
L 209.987286 316.466875 
L 208.5612 318.803385 
L 202.761834 322.154031 
L 201.745188 324.074149 
L 198.612588 325.596029 
L 194.99793 324.588266 
L 192.949766 326.412398 
L 191.852777 331.538506 
L 185.91957 337.733406 
L 186.09223 340.265172 
L 184.053722 343.433502 
L 184.54872 347.77279 
L 179.719262 349.823658 
L 178.562402 346.626745 
L 176.404152 347.469573 
L 175.114804 347.323759 
L 173.739125 349.504991 
L 167.966797 349.443382 
L 165.897582 348.321092 
L 164.923231 349.000144 
L 162.640218 346.845371 
L 163.036525 344.619525 
L 162.102539 343.747534 
L 160.510359 344.482788 
L 160.801989 342.05087 
L 162.334297 340.12689 
L 159.271225 336.995642 
L 158.3805 334.934151 
L 156.719566 333.29195 
L 155.223566 333.095921 
L 148.962807 336.760021 
L 145.763577 336.162857 
L 143.688567 334.264949 
L 142.449819 334.015616 
L 139.313356 335.020288 
L 138.881513 332.283415 
L 139.225674 329.954824 
L 138.586601 327.064411 
L 135.788698 324.965067 
L 134.314908 320.684683 
z
" clip-path="url(#pf53bdef3f9)" style="fill: #e8edf4; stroke: #b8c5d4; stroke-width: 0.45"/>
    <path d="M 97.401021 268.32449 
L 99.032213 265.831156 
L 128.303677 265.877894 
L 126.886088 255.083364 
L 128.713889 251.244287 
L 135.717626 250.573347 
L 135.476983 231.44749 
L 160.009761 231.838389 
L 160.031392 220.516609 
L 188.144064 238.614037 
L 176.704473 238.748457 
L 183.919496 303.265921 
L 185.214445 304.18716 
L 183.551579 309.420649 
L 153.559541 309.534211 
L 152.438217 311.196497 
L 149.548577 310.700341 
L 145.333279 312.17838 
L 140.113695 310.096611 
L 137.744352 310.268885 
L 136.487643 314.672293 
L 133.972099 316.034646 
L 124.516746 305.401574 
L 119.555186 303.421392 
L 115.983597 301.22413 
L 111.809823 301.306211 
L 108.162719 302.935279 
L 104.447633 302.290025 
L 101.888248 304.686599 
L 101.24087 300.658832 
L 103.327468 296.973296 
L 104.255853 289.935761 
L 102.526936 278.833378 
L 103.273004 275.105738 
L 101.340912 271.55269 
z
" clip-path="url(#pf53bdef3f9)" style="fill: #e8edf4; stroke: #b8c5d4; stroke-width: 0.45"/>
    <path d="M 230.717297 347.02479 
L 231.668278 343.089148 
L 234.238864 342.24323 
L 235.761517 338.975244 
L 239.415187 338.276879 
L 243.557481 333.852612 
L 246.236993 333.833299 
L 251.936703 338.134734 
L 251.64546 340.618024 
L 253.326481 345.051947 
L 251.853656 348.060943 
L 252.641248 350.071447 
L 246.71287 356.990012 
L 245.30378 361.704749 
L 245.06391 378.508001 
L 238.886391 379.379991 
L 237.045458 374.223369 
L 237.385756 357.057415 
L 235.8801 355.517381 
L 235.596196 351.849033 
z
" clip-path="url(#pf53bdef3f9)" style="fill: #e8edf4; stroke: #b8c5d4; stroke-width: 0.45"/>
    <path d="M 227.154205 317.324767 
L 227.746541 313.701998 
L 232.536986 313.408438 
L 235.300704 310.752101 
L 245.499615 310.109551 
L 252.139105 308.924107 
L 252.775668 304.31849 
L 256.862726 299.325836 
L 256.841868 282.111406 
L 267.382237 278.778142 
L 289.02383 264.094514 
L 314.636602 249.84775 
L 326.460912 253.070543 
L 330.665008 257.175755 
L 335.952802 254.397714 
L 337.788486 266.016563 
L 340.585298 267.960489 
L 340.705551 270.337697 
L 343.815748 272.899978 
L 342.189963 276.117363 
L 339.30998 291.285174 
L 338.915991 301.007049 
L 329.381602 308.055176 
L 326.154218 317.901073 
L 329.26596 320.670005 
L 329.249351 325.478025 
L 334.042886 325.650106 
L 333.295465 329.170901 
L 331.185692 329.599654 
L 330.945049 331.979426 
L 329.554886 332.144554 
L 324.497146 323.96136 
L 322.742736 323.663937 
L 316.898177 327.84196 
L 311.110785 325.660921 
L 307.087847 325.224829 
L 304.930949 326.274308 
L 300.549172 326.047571 
L 296.139969 329.232896 
L 292.327931 329.415599 
L 283.281631 325.552188 
L 279.739205 327.387134 
L 275.924849 327.259667 
L 273.121732 324.436658 
L 265.629371 321.647446 
L 257.596241 322.532763 
L 255.649858 324.149277 
L 254.598447 328.448008 
L 252.455842 331.461832 
L 251.936703 338.134734 
L 246.236993 333.833299 
L 243.557481 333.852612 
L 241.04831 336.041956 
L 241.217494 330.922801 
L 232.599174 329.227489 
L 232.36703 325.610321 
L 228.157912 320.72949 
z
" clip-path="url(#pf53bdef3f9)" style="fill: #e8edf4; stroke: #b8c5d4; stroke-width: 0.45"/>
    <path d="M 245.06391 378.508001 
L 245.30378 361.704749 
L 246.71287 356.990012 
L 252.641248 350.071447 
L 251.853656 348.060943 
L 253.326481 345.051947 
L 251.64546 340.618024 
L 252.455842 331.461832 
L 254.598447 328.448008 
L 255.649858 324.149277 
L 257.596241 322.532763 
L 265.629371 321.647446 
L 273.121732 324.436658 
L 275.924849 327.259667 
L 279.739205 327.387134 
L 283.281631 325.552188 
L 292.327931 329.415599 
L 296.139969 329.232896 
L 300.549172 326.047571 
L 304.930949 326.274308 
L 307.087847 325.224829 
L 311.110785 325.660921 
L 316.898177 327.84196 
L 322.742736 323.663937 
L 324.497146 323.96136 
L 329.554886 332.144554 
L 330.945049 331.979426 
L 333.903831 334.956555 
L 332.694438 338.790996 
L 326.397565 344.574912 
L 323.367711 353.23012 
L 321.782097 354.895883 
L 320.273737 360.128213 
L 316.276292 363.207316 
L 315.118273 366.989612 
L 313.439184 370.000152 
L 312.740046 373.107066 
L 307.605054 375.6257 
L 303.408683 372.554129 
L 300.575051 372.67812 
L 296.12336 377.052945 
L 293.959124 377.120155 
L 288.481129 389.621585 
L 280.721088 392.311527 
L 277.884366 391.918503 
L 275.010176 393.593537 
L 269.031198 393.430147 
L 265.029504 388.754616 
L 262.568616 383.344218 
L 257.276801 378.419546 
z
" clip-path="url(#pf53bdef3f9)" style="fill: #e8edf4; stroke: #b8c5d4; stroke-width: 0.45"/>
    <path d="M 288.395379 391.687324 
L 288.481129 389.621585 
L 290.403951 384.331894 
L 293.959124 377.120155 
L 296.12336 377.052945 
L 300.575051 372.67812 
L 303.408683 372.554129 
L 307.605054 375.6257 
L 312.740046 373.107066 
L 313.439184 370.000152 
L 315.118273 366.989612 
L 316.276292 363.207316 
L 320.273737 360.128213 
L 321.782097 354.895883 
L 323.367711 353.23012 
L 326.397565 344.574912 
L 332.694438 338.790996 
L 333.903831 334.956555 
L 330.945049 331.979426 
L 331.185692 329.599654 
L 333.295465 329.170901 
L 336.267186 333.957273 
L 336.766432 338.916532 
L 336.492957 343.881568 
L 340.561475 350.67595 
L 336.386735 350.602753 
L 334.277734 351.135024 
L 330.871273 350.384127 
L 329.247419 353.911296 
L 333.659326 358.27376 
L 336.914758 359.542637 
L 340.323923 367.789371 
L 335.394037 377.389187 
L 333.600227 378.746132 
L 333.023535 384.540477 
L 333.767479 387.688528 
L 333.165294 389.915918 
L 336.697677 393.819308 
L 337.335013 396.502876 
L 340.094482 400.360301 
L 343.512917 402.765373 
L 344.635014 408.340705 
L 344.097334 412.376777 
L 332.114656 408.637936 
L 321.751196 407.937253 
L 317.326543 408.900016 
L 312.78408 407.89882 
L 309.231998 408.389954 
L 297.068548 408.219419 
L 298.16013 402.317886 
L 295.238816 397.376219 
L 291.828492 396.108501 
L 290.309702 392.759207 
z
" clip-path="url(#pf53bdef3f9)" style="fill: #e8edf4; stroke: #b8c5d4; stroke-width: 0.45"/>
    <path d="M 224.572224 345.259951 
L 225.122264 342.929621 
L 231.668278 343.089148 
L 230.717297 347.02479 
L 235.596196 351.849033 
L 235.8801 355.517381 
L 237.385756 357.057415 
L 237.045458 374.223369 
L 238.886391 379.379991 
L 232.8684 380.974489 
L 229.207777 373.60805 
L 228.61409 369.89026 
L 230.266527 363.157681 
L 228.391602 360.431237 
L 227.691885 349.114671 
z
" clip-path="url(#pf53bdef3f9)" style="fill: #e8edf4; stroke: #b8c5d4; stroke-width: 0.45"/>
    <path d="M 200.693777 378.570382 
L 202.643058 370.129744 
L 205.792847 363.851604 
L 202.790225 347.588929 
L 202.965782 343.348137 
L 215.949656 342.995865 
L 219.251826 343.54069 
L 221.665202 342.334195 
L 225.122264 342.929621 
L 224.572224 345.259951 
L 227.691885 349.114671 
L 228.391602 360.431237 
L 230.266527 363.157681 
L 228.61409 369.89026 
L 229.207777 373.60805 
L 232.8684 380.974489 
L 221.149926 385.349893 
L 216.994113 387.91314 
L 210.25883 390.081432 
L 203.595778 387.958526 
L 203.935304 385.009208 
z
" clip-path="url(#pf53bdef3f9)" style="fill: #e8edf4; stroke: #b8c5d4; stroke-width: 0.45"/>
    <path d="M 160.640723 376.947688 
L 162.265929 373.62717 
L 161.518508 370.013865 
L 161.863442 367.839972 
L 163.048886 367.831474 
L 163.489226 364.571407 
L 162.911762 363.127938 
L 163.625964 362.088889 
L 166.402042 361.190053 
L 164.555701 355.206439 
L 162.832771 352.1171 
L 163.432832 349.57954 
L 165.897582 348.321092 
L 167.966797 349.443382 
L 173.739125 349.504991 
L 175.114804 347.323759 
L 176.404152 347.469573 
L 178.562402 346.626745 
L 179.719262 349.823658 
L 184.54872 347.77279 
L 187.909988 349.402438 
L 189.216332 351.874526 
L 192.577214 353.452801 
L 195.191835 351.572854 
L 198.694089 351.28895 
L 203.809768 353.216407 
L 205.792847 363.851604 
L 202.643058 370.129744 
L 200.693777 378.570382 
L 203.935304 385.009208 
L 203.595778 387.958526 
L 200.195111 388.03462 
L 194.979776 386.573191 
L 190.187786 386.659521 
L 181.333459 387.96432 
L 168.742801 392.863305 
L 167.298561 392.66689 
L 167.872549 386.510809 
L 168.587523 385.575085 
L 168.360014 382.630016 
L 165.194195 379.499347 
L 162.819831 378.999715 
z
" clip-path="url(#pf53bdef3f9)" style="fill: #e8edf4; stroke: #b8c5d4; stroke-width: 0.45"/>
    <path d="M 111.85038 342.767197 
L 115.173795 339.123956 
L 117.442322 339.262624 
L 119.391603 338.008039 
L 121.040564 337.996065 
L 122.218862 337.005298 
L 121.582685 334.528381 
L 122.401371 333.746969 
L 122.537916 331.213078 
L 126.14562 331.290138 
L 131.518165 333.112338 
L 133.165966 332.945279 
L 133.726822 332.114039 
L 137.802485 332.705022 
L 138.881513 332.283415 
L 139.313356 335.020288 
L 142.449819 334.015616 
L 143.688567 334.264949 
L 145.763577 336.162857 
L 148.962807 336.760021 
L 155.223566 333.095921 
L 156.719566 333.29195 
L 158.3805 334.934151 
L 159.271225 336.995642 
L 162.334297 340.12689 
L 160.801989 342.05087 
L 160.510359 344.482788 
L 162.102539 343.747534 
L 163.036525 344.619525 
L 162.640218 346.845371 
L 164.923231 349.000144 
L 163.432832 349.57954 
L 162.832771 352.1171 
L 164.555701 355.206439 
L 166.402042 361.190053 
L 163.625964 362.088889 
L 162.911762 363.127938 
L 163.489226 364.571407 
L 163.048886 367.831474 
L 159.749419 367.648385 
L 158.225029 370.65796 
L 156.111779 370.621458 
L 154.657496 369.029471 
L 155.151334 366.027428 
L 152.026459 361.449043 
L 146.419453 362.885365 
L 146.502886 360.144822 
L 145.303536 358.189168 
L 145.545531 356.016048 
L 141.84493 350.201038 
L 135.866723 350.192734 
L 134.124673 351.601052 
L 132.064728 351.771008 
L 129.926757 355.456931 
L 125.930858 358.743264 
L 119.745614 351.394787 
L 115.966022 348.940852 
L 115.1174 345.638296 
L 114.023694 343.991846 
z
" clip-path="url(#pf53bdef3f9)" style="fill: #e8edf4; stroke: #b8c5d4; stroke-width: 0.45"/>
    <path d="M 100.286026 332.717962 
L 104.245617 331.500265 
L 106.720796 331.740908 
L 108.724733 330.899239 
L 122.537916 331.213078 
L 122.401371 333.746969 
L 121.582685 334.528381 
L 122.218862 337.005298 
L 121.040564 337.996065 
L 119.391603 338.008039 
L 117.442322 339.262624 
L 115.173795 339.123956 
L 111.85038 342.767197 
L 107.859888 339.642322 
L 104.712803 339.148097 
L 102.996826 337.040835 
L 103.040474 335.903287 
L 100.761517 334.317095 
z
" clip-path="url(#pf53bdef3f9)" style="fill: #e8edf4; stroke: #b8c5d4; stroke-width: 0.45"/>
    <path d="M 139.443334 374.568109 
L 141.229611 372.176749 
L 141.626497 370.002663 
L 148.477853 362.456998 
L 152.026459 361.449043 
L 155.151334 366.027428 
L 154.657496 369.029471 
L 156.111779 370.621458 
L 158.225029 370.65796 
L 159.749419 367.648385 
L 161.863442 367.839972 
L 161.518508 370.013865 
L 162.265929 373.62717 
L 160.640723 376.947688 
L 162.819831 378.999715 
L 165.194195 379.499347 
L 168.360014 382.630016 
L 168.587523 385.575085 
L 167.872549 386.510809 
L 167.298561 392.66689 
L 165.340589 392.732748 
L 157.636556 389.16985 
L 150.844878 383.480569 
L 144.476739 379.390807 
z
" clip-path="url(#pf53bdef3f9)" style="fill: #e8edf4; stroke: #b8c5d4; stroke-width: 0.45"/>
    <path d="M 125.930858 358.743264 
L 129.926757 355.456931 
L 132.064728 351.771008 
L 134.124673 351.601052 
L 135.866723 350.192734 
L 141.84493 350.201038 
L 145.545531 356.016048 
L 145.303536 358.189168 
L 146.502886 360.144822 
L 146.419453 362.885365 
L 148.477853 362.456998 
L 141.626497 370.002663 
L 141.229611 372.176749 
L 139.443334 374.568109 
L 137.429547 374.013627 
L 132.048505 371.002507 
L 128.154579 366.998303 
L 126.846689 364.267803 
z
" clip-path="url(#pf53bdef3f9)" style="fill: #e8edf4; stroke: #b8c5d4; stroke-width: 0.45"/>
    <path d="M 184.053722 343.433502 
L 186.09223 340.265172 
L 185.91957 337.733406 
L 191.852777 331.538506 
L 192.949766 326.412398 
L 194.99793 324.588266 
L 198.612588 325.596029 
L 201.745188 324.074149 
L 202.761834 322.154031 
L 208.5612 318.803385 
L 209.987286 316.466875 
L 216.973641 313.366335 
L 221.08851 312.302371 
L 222.954165 313.736376 
L 227.746541 313.701998 
L 227.154205 317.324767 
L 228.157912 320.72949 
L 232.36703 325.610321 
L 232.599174 329.227489 
L 241.217494 330.922801 
L 241.04831 336.041956 
L 239.415187 338.276879 
L 235.761517 338.975244 
L 234.238864 342.24323 
L 231.668278 343.089148 
L 221.665202 342.334195 
L 219.251826 343.54069 
L 215.949656 342.995865 
L 202.965782 343.348137 
L 202.790225 347.588929 
L 203.809768 353.216407 
L 198.694089 351.28895 
L 195.191835 351.572854 
L 192.577214 353.452801 
L 189.216332 351.874526 
L 187.909988 349.402438 
L 184.54872 347.77279 
z
" clip-path="url(#pf53bdef3f9)" style="fill: #e8edf4; stroke: #b8c5d4; stroke-width: 0.45"/>
    <path d="M 333.023535 384.540477 
L 333.600227 378.746132 
L 335.394037 377.389187 
L 339.153157 369.814166 
L 345.332993 369.252345 
L 346.710796 367.329717 
L 347.948772 367.475725 
L 349.815971 369.168333 
L 359.226132 366.308628 
L 366.297851 360.777523 
L 365.55777 358.146293 
L 367.665612 357.45913 
L 374.883725 357.923612 
L 381.918749 354.460756 
L 387.322581 346.305374 
L 391.114533 343.279383 
L 395.846266 342.004905 
L 396.693729 345.203556 
L 401.00482 349.87677 
L 401.026837 352.926709 
L 399.812423 356.037292 
L 400.292549 358.360283 
L 412.669989 366.800535 
L 412.738744 369.229942 
L 417.765582 373.122516 
L 420.880801 376.356897 
L 422.768086 380.840841 
L 428.355393 383.799043 
L 429.557446 386.168579 
L 427.089606 386.961579 
L 416.672842 386.003065 
L 413.894832 386.643491 
L 412.773894 388.461055 
L 410.353565 388.685281 
L 407.404826 387.10411 
L 399.083157 390.834647 
L 395.676696 390.083943 
L 394.650007 390.660056 
L 392.415084 395.173935 
L 381.371027 392.979184 
L 376.610324 390.221839 
L 370.459458 387.681575 
L 366.456992 390.088578 
L 363.54688 393.883621 
L 362.874781 399.096445 
L 358.06734 398.67928 
L 353.008056 397.423536 
L 348.553275 401.384672 
L 344.635014 408.340705 
L 343.512917 402.765373 
L 340.094482 400.360301 
L 337.335013 396.502876 
L 336.697677 393.819308 
L 333.165294 389.915918 
L 333.767479 387.688528 
z
" clip-path="url(#pf53bdef3f9)" style="fill: #e8edf4; stroke: #b8c5d4; stroke-width: 0.45"/>
    <path d="M 307.866555 455.030932 
L 313.55738 450.905247 
L 310.738813 445.962615 
L 313.30206 444.083055 
L 318.345508 443.167609 
L 318.940354 439.85501 
L 322.934323 443.44456 
L 329.532868 443.758979 
L 331.826117 440.226982 
L 332.76976 435.257311 
L 331.954743 429.42125 
L 328.418497 425.000846 
L 331.654616 416.3439 
L 329.788961 414.858329 
L 324.227534 415.467467 
L 322.138233 411.605215 
L 322.681706 408.344761 
L 332.114656 408.637936 
L 344.097334 412.376777 
L 344.635014 408.340705 
L 348.553275 401.384672 
L 353.008056 397.423536 
L 358.06734 398.67928 
L 362.874781 399.096445 
L 362.431736 403.610711 
L 360.192951 407.607577 
L 358.732101 412.270941 
L 357.800432 418.894787 
L 358.191717 423.130943 
L 356.973441 425.724705 
L 356.787262 428.46602 
L 355.928211 430.850426 
L 351.006823 434.45311 
L 347.581821 438.303388 
L 344.335659 445.564763 
L 344.585958 451.71447 
L 333.944388 462.441404 
L 331.152087 461.117292 
L 330.673119 459.001338 
L 326.601512 458.927562 
L 324.045217 461.789005 
L 322.081452 461.027679 
L 319.280266 458.463273 
L 317.021781 459.720562 
L 314.004674 462.947796 
z
" clip-path="url(#pf53bdef3f9)" style="fill: #e8edf4; stroke: #b8c5d4; stroke-width: 0.45"/>
    <path d="M 290.706395 433.597149 
L 290.946265 431.113858 
L 292.57823 428.724044 
L 295.900486 417.740244 
L 309.296504 417.384881 
L 309.231998 408.389954 
L 312.78408 407.89882 
L 317.326543 408.900016 
L 321.751196 407.937253 
L 322.681706 408.344761 
L 322.138233 411.605215 
L 324.227534 415.467467 
L 329.788961 414.858329 
L 331.654616 416.3439 
L 328.418497 425.000846 
L 331.954743 429.42125 
L 332.76976 435.257311 
L 331.826117 440.226982 
L 329.532868 443.758979 
L 322.934323 443.44456 
L 318.940354 439.85501 
L 318.345508 443.167609 
L 313.30206 444.083055 
L 310.738813 445.962615 
L 313.55738 450.905247 
L 307.866555 455.030932 
L 300.185311 447.486426 
L 295.245382 441.318564 
z
" clip-path="url(#pf53bdef3f9)" style="fill: #e8edf4; stroke: #b8c5d4; stroke-width: 0.45"/>
    <path d="M 294.500665 416.613126 
L 297.068548 408.219419 
L 309.231998 408.389954 
L 309.296504 417.384881 
L 295.900486 417.740244 
z
" clip-path="url(#pf53bdef3f9)" style="fill: #e8edf4; stroke: #b8c5d4; stroke-width: 0.45"/>
    <path d="M 481.066894 191.936364 
L 483.24156 189.473739 
L 482.731305 189.049814 
L 484.708204 185.556251 
L 486.224289 179.916991 
L 487.293468 178.024684 
L 490.001178 177.961144 
L 490.6895 176.651323 
L 492.694982 176.553019 
L 492.809316 179.612422 
L 490.636195 183.156393 
L 487.932348 182.121013 
L 486.36798 187.098602 
L 488.245995 187.937568 
L 486.337078 188.965802 
L 486.014934 190.934203 
L 489.529163 189.92026 
L 489.703754 192.828055 
L 485.979012 204.778094 
z
" clip-path="url(#pf53bdef3f9)" style="fill: #e8edf4; stroke: #b8c5d4; stroke-width: 0.45"/>
    <path d="M 487.499733 177.947239 
L 490.161863 171.858754 
L 494.020253 166.331511 
L 497.382294 166.71256 
L 498.604819 169.643724 
L 494.528963 172.460746 
L 492.694982 176.553019 
L 490.6895 176.651323 
L 490.001178 177.961144 
z
" clip-path="url(#pf53bdef3f9)" style="fill: #e8edf4; stroke: #b8c5d4; stroke-width: 0.45"/>
    <path d="M 486.014934 190.934203 
L 486.337078 188.965802 
L 488.245995 187.937568 
L 486.36798 187.098602 
L 487.932348 182.121013 
L 490.636195 183.156393 
L 490.633105 187.727054 
L 489.529163 189.92026 
z
" clip-path="url(#pf53bdef3f9)" style="fill: #e8edf4; stroke: #b8c5d4; stroke-width: 0.45"/>
    <path d="M 99.059638 326.988317 
L 100.014869 323.672821 
L 108.155766 323.458831 
L 109.843739 321.68897 
L 112.213468 321.568455 
L 115.163752 323.40823 
L 117.483266 323.443187 
L 119.947823 322.184546 
L 121.457922 324.34492 
L 118.223348 326.022657 
L 114.975641 325.890941 
L 111.769265 324.311508 
L 105.86329 327.146106 
z
" clip-path="url(#pf53bdef3f9)" style="fill: #e8edf4; stroke: #b8c5d4; stroke-width: 0.45"/>
    <path d="M 281.187308 170.42417 
L 285.795436 166.255031 
L 287.554868 160.090452 
L 286.369811 152.964849 
L 287.888214 149.128476 
L 296.028339 146.111949 
L 301.26067 147.008853 
L 301.041272 150.790763 
L 307.381407 148.039598 
L 307.913293 149.475534 
L 304.175803 153.138089 
L 304.125589 156.595537 
L 306.713557 158.452693 
L 305.729357 164.921841 
L 300.809127 168.679609 
L 302.229806 172.753534 
L 306.095535 172.880615 
L 307.97664 176.43405 
L 310.819156 177.602691 
L 310.396583 183.343924 
L 306.752956 185.489813 
L 304.451596 187.884649 
L 299.318921 190.765019 
L 300.113852 193.861311 
L 299.46686 197.019404 
L 295.820143 198.751798 
L 292.631921 185.333763 
L 288.023793 182.317042 
L 287.959287 180.507782 
L 281.846274 176.054545 
z
" clip-path="url(#pf53bdef3f9)" style="fill: #e8edf4; stroke: #b8c5d4; stroke-width: 0.45"/>
    <path d="M 160.031392 220.516609 
L 160.108259 209.711649 
L 172.179005 204.195801 
L 179.643168 203.056129 
L 185.761202 201.047364 
L 188.620134 197.304467 
L 197.359548 194.346265 
L 197.680533 188.812455 
L 202.004757 188.160635 
L 205.386111 185.396144 
L 215.168244 184.136345 
L 216.538708 181.231447 
L 214.569149 179.64313 
L 211.987361 171.752145 
L 211.542385 167.206012 
L 208.724976 162.418658 
L 215.91045 158.33411 
L 223.99167 157.034912 
L 228.710656 153.950788 
L 235.909069 151.675694 
L 260.940514 149.736842 
L 264.71045 150.846964 
L 271.749336 147.90093 
L 279.736501 147.843183 
L 282.776398 149.582336 
L 287.888214 149.128476 
L 286.369811 152.964849 
L 287.554868 160.090452 
L 285.795436 166.255031 
L 281.187308 170.42417 
L 281.846274 176.054545 
L 287.959287 180.507782 
L 288.023793 182.317042 
L 292.631921 185.333763 
L 295.820143 198.751798 
L 298.238155 205.351309 
L 298.644504 208.824401 
L 297.328117 214.922349 
L 297.868114 218.330162 
L 296.918291 222.421083 
L 297.570305 227.120755 
L 294.603798 230.244278 
L 299.023429 235.692337 
L 299.304243 238.895237 
L 301.962125 243.063411 
L 305.456654 241.693912 
L 311.356449 245.166811 
L 314.636602 249.84775 
L 289.02383 264.094514 
L 267.382237 278.778142 
L 256.841868 282.111406 
L 248.550328 282.843183 
L 248.464577 278.087695 
L 240.349559 274.734152 
L 238.572359 271.231705 
z
" clip-path="url(#pf53bdef3f9)" style="fill: #e8edf4; stroke: #b8c5d4; stroke-width: 0.45"/>
    <path d="M 485.979012 204.778094 
L 489.703754 192.828055 
L 489.529163 189.92026 
L 490.633105 187.727054 
L 490.636195 183.156393 
L 491.938677 180.800377 
L 500.266527 183.762248 
L 514.903997 175.796135 
L 517.917241 184.897864 
L 516.4927 186.024982 
L 501.523043 189.775797 
L 508.972915 197.24981 
L 506.500826 198.519267 
L 505.270962 201.02245 
L 499.567389 202.057637 
L 497.778601 204.748737 
L 494.547504 207.049132 
L 486.228925 205.860212 
z
" clip-path="url(#pf53bdef3f9)" style="fill: #e8edf4; stroke: #b8c5d4; stroke-width: 0.45"/>
    <path d="M 491.938677 180.800377 
L 492.809316 179.612422 
L 492.694982 176.553019 
L 494.528963 172.460746 
L 498.604819 169.643724 
L 497.382294 166.71256 
L 494.020253 166.331511 
L 493.322275 160.612681 
L 495.15162 157.536669 
L 499.155245 154.261537 
L 499.559664 150.092012 
L 502.005873 151.545716 
L 510.235225 149.466457 
L 514.21297 150.87381 
L 520.362291 150.850441 
L 528.963229 148.045779 
L 532.990803 148.17228 
L 541.493244 147.009819 
L 537.662278 151.674149 
L 533.570971 153.520683 
L 534.275517 158.980909 
L 531.451541 168.01736 
L 514.903997 175.796135 
L 500.266527 183.762248 
z
" clip-path="url(#pf53bdef3f9)" style="fill: #e8edf4; stroke: #b8c5d4; stroke-width: 0.45"/>
    <path d="M 307.370206 -14.639299 
L 310.665809 -18.946527 
L 316.88543 -24.070704 
L 319.357905 -32.858208 
L 314.58098 -36.646297 
L 314.121326 -46.572314 
L 318.975118 -53.58281 
L 326.389839 -53.454957 
L 328.99094 -56.417214 
L 326.268552 -58.970612 
L 337.874623 -69.48626 
L 350.286054 -83.090667 
L 357.463996 -83.065367 
L 359.44244 -87.227553 
L 373.52987 -86.030135 
L 374.626473 -90.948047 
L 379.263185 -91.25532 
L 400.893962 -82.508181 
L 401.091343 -70.997517 
L 403.614033 -68.08895 
L 390.75608 -65.972224 
L 383.508225 -60.756889 
L 384.675128 -56.179276 
L 358.350472 -43.740034 
L 352.907241 -33.213957 
L 358.22764 -27.947442 
L 365.376226 -23.801478 
L 358.510771 -15.368951 
L 350.736824 -13.620335 
L 347.885424 -1.072553 
L 343.640384 5.929832 
L 334.57284 5.207905 
L 330.342478 11.13609 
L 321.688235 11.480251 
L 319.312712 4.414133 
L 313.055237 -4.067643 
z
" clip-path="url(#pf53bdef3f9)" style="fill: #e8edf4; stroke: #b8c5d4; stroke-width: 0.45"/>
    <path d="M 398.352732 32.968111 
L 402.835325 31.442369 
L 402.8782 28.462729 
L 400.804735 25.619441 
L 400.480274 22.312829 
L 407.704953 22.363622 
L 415.819971 19.547759 
L 417.554682 15.328019 
L 423.682759 12.934535 
L 422.980531 9.586399 
L 435.555738 5.445264 
L 443.425092 7.319803 
L 444.486932 9.175415 
L 448.409055 8.283145 
L 455.716395 10.065753 
L 456.448365 13.574574 
L 454.846529 15.591065 
L 459.532682 20.484835 
L 462.574511 21.848346 
L 462.124899 23.198339 
L 467.165257 24.51376 
L 469.318292 26.506689 
L 466.409725 28.141358 
L 460.378573 27.881958 
L 458.940154 28.580346 
L 460.695337 31.061513 
L 462.53391 35.848098 
L 456.117337 36.291526 
L 453.814432 37.932568 
L 453.333533 41.694585 
L 450.36046 40.972271 
L 443.615134 41.330338 
L 441.656004 39.582687 
L 438.851342 40.885748 
L 436.040886 39.805561 
L 430.154224 39.655498 
L 421.811697 37.861688 
L 414.26101 37.275919 
L 408.470528 37.441819 
L 404.3742 39.46758 
L 400.801259 39.759016 
L 400.658728 36.431353 
z
" clip-path="url(#pf53bdef3f9)" style="fill: #e8edf4; stroke: #b8c5d4; stroke-width: 0.45"/>
    <path d="M 390.026814 63.350469 
L 391.486119 60.337225 
L 393.558811 58.391227 
L 395.19039 58.827319 
L 393.26216 55.468369 
L 400.049589 49.251451 
L 403.758881 48.381585 
L 404.560379 46.284752 
L 400.801259 39.759016 
L 404.3742 39.46758 
L 408.470528 37.441819 
L 414.26101 37.275919 
L 421.811697 37.861688 
L 430.154224 39.655498 
L 436.040886 39.805561 
L 438.851342 40.885748 
L 441.656004 39.582687 
L 443.615134 41.330338 
L 450.36046 40.972271 
L 453.333533 41.694585 
L 453.814432 37.932568 
L 456.117337 36.291526 
L 465.325305 36.15028 
L 467.21354 34.450206 
L 469.483613 34.825654 
L 477.234384 34.103534 
L 482.010923 38.335634 
L 480.14411 39.849016 
L 480.763291 42.169303 
L 486.723342 42.531232 
L 489.382281 45.772488 
L 489.21938 47.243072 
L 498.712587 49.871212 
L 504.447833 48.687506 
L 509.060983 52.187829 
L 513.428855 52.1071 
L 524.446894 54.539444 
L 524.534714 56.734155 
L 521.498962 60.647963 
L 523.150638 64.769566 
L 521.974557 67.262164 
L 514.741269 67.810184 
L 510.888397 69.897256 
L 510.65239 73.21758 
L 504.684613 73.815324 
L 499.711852 76.233529 
L 492.714295 76.627711 
L 486.276049 79.414026 
L 486.652153 83.416493 
L 485.524474 83.188835 
L 484.554452 81.712714 
L 476.836448 79.814844 
L 474.867071 81.665985 
L 473.839897 80.853631 
L 462.221079 78.964414 
L 461.706576 76.177134 
L 454.780864 77.097601 
L 452.006717 81.213822 
L 446.218939 86.738361 
L 442.828701 85.455579 
L 439.316017 86.658212 
L 435.980628 85.280988 
L 437.86212 84.469061 
L 441.214118 79.521407 
L 440.685323 78.183003 
L 442.248532 77.586611 
L 442.985138 78.621219 
L 447.390091 78.840037 
L 449.368535 78.287294 
L 447.974895 77.529444 
L 448.502917 76.415459 
L 445.892932 74.515234 
L 444.812552 71.390359 
L 442.089778 70.167641 
L 442.626685 67.634715 
L 439.24958 65.623632 
L 436.174919 65.343977 
L 430.666024 63.015192 
L 425.697511 63.754501 
L 423.914903 64.856899 
L 420.761445 64.85574 
L 418.881499 66.602811 
L 413.363719 67.321069 
L 410.811674 68.468659 
L 407.341479 66.64221 
L 402.549489 66.614399 
L 397.924752 65.786636 
L 394.697903 67.387313 
L 394.176833 65.383762 
z
" clip-path="url(#pf53bdef3f9)" style="fill: #e8edf4; stroke: #b8c5d4; stroke-width: 0.45"/>
    <path d="M 330.146642 29.273497 
L 332.230535 27.278444 
L 330.484236 23.474904 
L 335.591031 21.279766 
L 356.669065 15.293835 
L 364.12898 16.556531 
L 364.692539 18.379504 
L 381.106822 19.32276 
L 394.851636 19.21055 
L 398.685305 20.010117 
L 400.480274 22.312829 
L 400.804735 25.619441 
L 402.8782 28.462729 
L 402.835325 31.442369 
L 398.352732 32.968111 
L 400.658728 36.431353 
L 400.801259 39.759016 
L 404.560379 46.284752 
L 403.758881 48.381585 
L 400.049589 49.251451 
L 393.26216 55.468369 
L 395.19039 58.827319 
L 386.455418 55.518197 
L 381.074762 56.574628 
L 377.545856 55.807122 
L 373.129701 57.409151 
L 369.360151 54.759767 
L 366.287036 55.77429 
L 362.42517 51.642425 
L 356.867991 51.190882 
L 356.158811 48.850509 
L 351.032703 48.014634 
L 349.916786 49.944795 
L 345.85638 48.398581 
L 346.322601 46.342112 
L 340.734135 45.691837 
L 337.191322 43.285413 
L 334.127477 38.512736 
L 334.709963 35.935776 
L 332.860532 31.937559 
z
" clip-path="url(#pf53bdef3f9)" style="fill: #e8edf4; stroke: #b8c5d4; stroke-width: 0.45"/>
    <path d="M 295.80392 73.212945 
L 296.947261 71.383213 
L 296.657949 70.056783 
L 298.914117 69.644639 
L 302.696413 71.720421 
L 303.760956 69.747772 
L 310.352935 70.06644 
L 315.696896 68.726104 
L 319.280266 68.955545 
L 321.611369 70.485922 
L 322.308189 69.215693 
L 321.248667 64.345485 
L 323.933973 63.396435 
L 326.569452 59.950188 
L 332.122768 62.356033 
L 336.327636 59.298175 
L 338.95848 58.740024 
L 344.76055 61.021105 
L 348.270916 60.633103 
L 351.716776 62.044511 
L 351.116522 62.993562 
L 351.861625 65.583654 
L 351.294203 68.638036 
L 347.084699 68.652714 
L 348.532416 70.272704 
L 346.051057 75.08478 
L 344.62613 76.346318 
L 338.089 76.532497 
L 334.317133 78.228389 
L 317.454397 75.718832 
L 315.784578 73.11889 
L 308.397668 74.418088 
L 307.528574 75.839926 
L 299.186046 74.573946 
z
" clip-path="url(#pf53bdef3f9)" style="fill: #e8edf4; stroke: #b8c5d4; stroke-width: 0.45"/>
    <path d="M 346.051057 75.08478 
L 348.532416 70.272704 
L 347.084699 68.652714 
L 351.294203 68.638036 
L 351.861625 65.583654 
L 358.420386 68.312415 
L 364.69447 67.396584 
L 365.296269 65.895562 
L 376.224447 64.058298 
L 377.977312 62.299638 
L 380.426998 61.843654 
L 388.431931 64.115079 
L 390.026814 63.350469 
L 394.176833 65.383762 
L 394.697903 67.387313 
L 390.13265 68.955158 
L 386.595246 74.024486 
L 382.076345 79.093427 
L 376.08346 80.50329 
L 371.418165 80.172455 
L 362.897184 83.253875 
L 356.723142 81.816587 
L 348.760698 77.690709 
L 347.308346 75.16744 
z
" clip-path="url(#pf53bdef3f9)" style="fill: #e8edf4; stroke: #b8c5d4; stroke-width: 0.45"/>
    <path d="M 423.914903 64.856899 
L 425.697511 63.754501 
L 430.666024 63.015192 
L 436.174919 65.343977 
L 439.24958 65.623632 
L 442.626685 67.634715 
L 442.089778 70.167641 
L 444.812552 71.390359 
L 445.892932 74.515234 
L 448.502917 76.415459 
L 447.974895 77.529444 
L 449.368535 78.287294 
L 447.390091 78.840037 
L 442.985138 78.621219 
L 442.248532 77.586611 
L 440.685323 78.183003 
L 441.214118 79.521407 
L 437.86212 84.469061 
L 435.980628 85.280988 
L 434.641838 81.870278 
L 435.430975 78.678772 
L 435.191878 75.39804 
L 426.193474 65.585392 
z
" clip-path="url(#pf53bdef3f9)" style="fill: #e8edf4; stroke: #b8c5d4; stroke-width: 0.45"/>
    <path d="M 376.08346 80.50329 
L 382.076345 79.093427 
L 386.595246 74.024486 
L 390.13265 68.955158 
L 397.924752 65.786636 
L 402.549489 66.614399 
L 407.341479 66.64221 
L 410.811674 68.468659 
L 413.363719 67.321069 
L 418.881499 66.602811 
L 420.761445 64.85574 
L 423.914903 64.856899 
L 426.193474 65.585392 
L 435.191878 75.39804 
L 435.430975 78.678772 
L 434.641838 81.870278 
L 435.980628 85.280988 
L 439.316017 86.658212 
L 442.828701 85.455579 
L 446.218939 86.738361 
L 446.392758 88.666204 
L 442.768057 90.274607 
L 440.497598 89.574504 
L 438.406366 98.592027 
L 434.011455 97.807139 
L 428.572087 95.089966 
L 419.77261 96.827767 
L 416.066021 98.734172 
L 405.088788 98.340956 
L 399.34543 97.175211 
L 396.449224 97.722547 
L 392.929973 93.346564 
L 394.661981 92.085026 
L 392.817957 91.154323 
L 390.471404 92.829356 
L 386.113188 90.657781 
L 385.526454 87.576554 
L 380.972789 85.818474 
L 380.134596 83.440054 
z
" clip-path="url(#pf53bdef3f9)" style="fill: #e8edf4; stroke: #b8c5d4; stroke-width: 0.45"/>
    <path d="M 382.329347 6.477168 
L 390.8905 4.184499 
L 403.426308 4.663852 
L 410.769571 3.92493 
L 411.817891 5.479642 
L 415.79525 5.959768 
L 422.980531 9.586399 
L 423.682759 12.934535 
L 417.554682 15.328019 
L 415.819971 19.547759 
L 407.704953 22.363622 
L 400.480274 22.312829 
L 398.685305 20.010117 
L 394.851636 19.21055 
L 394.253314 17.302986 
L 395.050948 15.256174 
L 391.746847 14.069764 
L 383.918823 12.76033 
z
" clip-path="url(#pf53bdef3f9)" style="fill: #e8edf4; stroke: #b8c5d4; stroke-width: 0.45"/>
    <path d="M 382.329347 6.477168 
L 382.588144 0.850269 
L 386.261514 -3.843803 
L 393.306195 -6.396428 
L 399.241912 -0.811824 
L 405.238658 -0.957253 
L 406.674788 -6.695782 
L 413.041189 -8.016805 
L 422.750318 -4.326053 
L 428.914317 -4.312148 
L 432.515841 -2.590956 
L 433.153177 1.033744 
L 435.555738 5.445264 
L 422.980531 9.586399 
L 415.79525 5.959768 
L 411.817891 5.479642 
L 410.769571 3.92493 
L 403.426308 4.663852 
L 390.8905 4.184499 
z
" clip-path="url(#pf53bdef3f9)" style="fill: #e8edf4; stroke: #b8c5d4; stroke-width: 0.45"/>
    <path d="M 269.707546 37.717226 
L 274.197863 37.714135 
L 276.092488 34.900589 
L 277.955052 28.056766 
L 276.557936 25.529441 
L 278.017627 23.946532 
L 284.265059 23.540182 
L 285.65136 25.18837 
L 290.726867 21.503413 
L 289.018036 18.701455 
L 288.675034 14.462595 
L 294.324529 15.44834 
L 299.107249 14.310407 
L 299.239351 17.199081 
L 306.792741 18.940938 
L 306.713171 21.593798 
L 314.313299 20.190116 
L 318.515464 18.142917 
L 326.954557 21.094359 
L 330.484236 23.474904 
L 332.230535 27.278444 
L 330.146642 29.273497 
L 332.860532 31.937559 
L 334.709963 35.935776 
L 334.127477 38.512736 
L 337.191322 43.285413 
L 333.855548 44.065279 
L 331.884443 43.206228 
L 330.009904 44.629031 
L 324.642381 46.076748 
L 321.867075 47.93912 
L 316.435046 49.566643 
L 317.743708 51.788239 
L 318.534777 54.940346 
L 322.349133 56.736859 
L 326.569452 59.950188 
L 323.933973 63.396435 
L 321.248667 64.345485 
L 322.308189 69.215693 
L 321.611369 70.485922 
L 319.280266 68.955545 
L 315.696896 68.726104 
L 310.352935 70.06644 
L 303.760956 69.747772 
L 302.696413 71.720421 
L 298.914117 69.644639 
L 296.657949 70.056783 
L 288.647995 67.77126 
L 287.113369 69.395113 
L 280.755851 69.342774 
L 281.704516 64.017547 
L 285.483721 58.899164 
L 274.712367 57.52252 
L 271.185005 55.565321 
L 271.606805 52.288258 
L 270.114281 50.600285 
L 270.963289 45.549885 
z
" clip-path="url(#pf53bdef3f9)" style="fill: #e8edf4; stroke: #b8c5d4; stroke-width: 0.45"/>
    <path d="M 392.231222 108.960895 
L 393.4607 107.906202 
L 392.650318 107.017022 
L 393.907607 104.638602 
L 396.757076 102.301706 
L 393.125423 99.075243 
L 392.454869 96.34513 
L 394.298893 94.649432 
L 396.449224 97.722547 
L 399.34543 97.175211 
L 405.088788 98.340956 
L 416.066021 98.734172 
L 419.77261 96.827767 
L 428.572087 95.089966 
L 434.011455 97.807139 
L 438.406366 98.592027 
L 434.527117 101.688705 
L 431.797391 107.035176 
L 434.210381 111.299723 
L 427.774838 110.297175 
L 420.160419 112.648556 
L 420.078917 116.370981 
L 413.284921 117.076686 
L 408.0186 114.464962 
L 402.034599 116.519114 
L 396.505618 116.302999 
L 395.974892 111.35998 
z
" clip-path="url(#pf53bdef3f9)" style="fill: #e8edf4; stroke: #b8c5d4; stroke-width: 0.45"/>
    <path d="M 375.558914 129.107067 
L 379.034517 125.481788 
L 379.482969 123.052574 
L 381.912182 121.968718 
L 382.062053 120.004952 
L 386.951381 119.343089 
L 389.80085 117.709193 
L 393.851599 117.854042 
L 395.080894 116.551112 
L 402.034599 116.519114 
L 408.0186 114.464962 
L 413.284921 117.076686 
L 420.078917 116.370981 
L 420.160419 112.648556 
L 423.801728 114.627773 
L 421.487621 119.305814 
L 419.711194 120.144007 
L 411.25665 119.225085 
L 402.204556 121.167993 
L 407.385899 125.369771 
L 403.588539 126.588047 
L 399.425387 126.59558 
L 395.471204 122.746074 
L 394.068293 124.386343 
L 395.738498 128.850588 
L 399.477919 132.358444 
L 396.66051 133.996202 
L 400.823276 137.44129 
L 404.523298 139.609003 
L 404.635314 143.832026 
L 397.721191 141.851265 
L 399.925985 145.663496 
L 395.179574 146.448191 
L 398.014365 153.044613 
L 393.049715 153.138089 
L 386.92048 149.886712 
L 384.117363 143.906961 
L 382.809473 138.933814 
L 376.06492 131.235574 
z
" clip-path="url(#pf53bdef3f9)" style="fill: #e8edf4; stroke: #b8c5d4; stroke-width: 0.45"/>
    <path d="M 400.710873 161.584521 
L 402.093698 158.407694 
L 406.179984 160.92652 
L 411.99789 160.500665 
L 417.560476 161.031198 
L 417.379705 162.331942 
L 421.453244 161.435037 
L 420.518871 163.640024 
L 409.755242 164.275428 
L 409.830177 163.042088 
z
" clip-path="url(#pf53bdef3f9)" style="fill: #e8edf4; stroke: #b8c5d4; stroke-width: 0.45"/>
    <path d="M 420.562133 130.313369 
L 428.853287 123.164591 
L 440.363951 122.865622 
L 443.503504 117.185033 
L 457.749688 118.174448 
L 466.734573 113.326063 
L 475.444823 111.213007 
L 487.811061 111.054059 
L 500.85751 116.322698 
L 511.580196 119.21369 
L 520.287743 118.061272 
L 526.722126 118.727191 
L 535.547097 114.82554 
L 543.511086 114.47037 
L 550.710659 118.140649 
L 551.980694 120.7713 
L 551.261471 124.408747 
L 556.819422 126.266676 
L 559.764298 128.44926 
L 554.645915 130.57854 
L 556.979335 139.150894 
L 555.51694 141.465773 
L 559.604993 147.45408 
L 556.022946 148.716719 
L 553.397896 146.812824 
L 544.703869 145.848323 
L 541.493244 147.009819 
L 532.990803 148.17228 
L 528.963229 148.045779 
L 520.362291 150.850441 
L 514.21297 150.87381 
L 510.235225 149.466457 
L 502.005873 151.545716 
L 499.559664 150.092012 
L 499.155245 154.261537 
L 495.15162 157.536669 
L 492.403353 154.147203 
L 495.234281 151.339644 
L 490.675594 151.976207 
L 484.423913 150.256367 
L 479.2839 154.558574 
L 467.93933 155.398698 
L 461.88812 151.386961 
L 453.830655 151.13589 
L 452.107532 154.237009 
L 446.941639 155.123678 
L 439.713096 151.143615 
L 431.552886 151.278228 
L 427.124756 143.844386 
L 421.664144 139.697651 
L 425.300432 133.885152 
z
" clip-path="url(#pf53bdef3f9)" style="fill: #e8edf4; stroke: #b8c5d4; stroke-width: 0.45"/>
    <path d="M 419.609606 121.686552 
L 419.711194 120.144007 
L 421.487621 119.305814 
L 423.801728 114.627773 
L 420.160419 112.648556 
L 427.774838 110.297175 
L 434.210381 111.299723 
L 435.098402 114.173526 
L 441.623171 116.587482 
L 440.26275 118.418566 
L 431.387178 118.83071 
L 421.961567 125.167948 
z
" clip-path="url(#pf53bdef3f9)" style="fill: #e8edf4; stroke: #b8c5d4; stroke-width: 0.45"/>
    <path d="M 369.238864 109.891598 
L 372.479618 106.21031 
L 372.954723 107.616697 
L 374.966054 106.954916 
L 376.558565 108.960895 
L 378.346471 109.726222 
L 378.849496 112.435532 
L 377.899673 114.979273 
L 378.961126 118.184877 
L 382.062053 120.004952 
L 381.912182 121.968718 
L 379.482969 123.052574 
L 379.034517 125.481788 
L 375.558914 129.107067 
L 374.288106 128.583873 
L 374.138622 126.939354 
L 369.998259 124.429605 
L 369.347791 120.868252 
L 369.979332 115.768024 
L 370.999455 113.447736 
L 369.74178 112.270018 
z
" clip-path="url(#pf53bdef3f9)" style="fill: #e8edf4; stroke: #b8c5d4; stroke-width: 0.45"/>
    <path d="M 327.02563 87.907196 
L 327.45979 85.190988 
L 332.668945 85.446309 
L 334.037864 84.184771 
L 336.580253 85.404978 
L 339.513541 85.549827 
L 339.48573 83.460912 
L 342.083741 82.695723 
L 342.810303 79.676299 
L 348.760698 77.690709 
L 356.723142 81.816587 
L 362.897184 83.253875 
L 365.690931 82.137226 
L 367.506857 85.03262 
L 369.881608 87.162865 
L 367.003929 89.97544 
L 363.62336 88.320884 
L 358.455149 88.424403 
L 352.02965 87.183337 
L 348.537438 87.349045 
L 346.917061 88.899894 
L 344.235231 87.183337 
L 342.670476 90.285809 
L 347.950703 96.097149 
L 354.236375 100.543819 
L 357.058419 103.666569 
L 363.674082 106.496196 
L 362.851991 107.766953 
L 355.825465 105.001304 
L 351.490425 102.310397 
L 344.653941 100.0888 
L 338.368269 94.58763 
L 339.876629 94.029092 
L 336.468623 90.885483 
L 336.328795 88.362215 
L 331.523673 87.183337 
L 329.232741 90.4098 
z
" clip-path="url(#pf53bdef3f9)" style="fill: #e8edf4; stroke: #b8c5d4; stroke-width: 0.45"/>
    <path d="M 269.961321 79.415571 
L 270.071792 76.031126 
L 275.538199 71.830893 
L 275.297943 69.931633 
L 278.703631 70.619569 
L 280.755851 69.342774 
L 287.113369 69.395113 
L 288.647995 67.77126 
L 296.657949 70.056783 
L 296.947261 71.383213 
L 295.80392 73.212945 
L 299.186046 74.573946 
L 303.000016 74.777121 
L 302.407101 77.841545 
L 299.114201 79.102311 
L 293.583289 78.165621 
L 291.964457 81.180024 
L 288.403876 81.417576 
L 287.108347 80.232905 
L 282.91777 82.767955 
L 279.313928 83.123318 
L 276.097895 81.522254 
L 273.530399 78.244418 
z
" clip-path="url(#pf53bdef3f9)" style="fill: #e8edf4; stroke: #b8c5d4; stroke-width: 0.45"/>
    <path d="M 267.355971 55.074379 
L 268.165966 50.882257 
L 270.114281 50.600285 
L 271.606805 52.288258 
L 271.185005 55.565321 
L 269.028107 55.723303 
z
" clip-path="url(#pf53bdef3f9)" style="fill: #e8edf4; stroke: #b8c5d4; stroke-width: 0.45"/>
    <path d="M 243.732458 42.972732 
L 249.722638 41.49817 
L 255.194839 42.085098 
L 262.123254 40.532124 
L 266.854601 43.803972 
L 270.963289 45.549885 
L 270.114281 50.600285 
L 268.165966 50.882257 
L 267.355971 55.074379 
L 260.81691 51.666759 
L 256.980923 52.248859 
L 248.289599 45.724476 
L 244.815156 45.601258 
z
" clip-path="url(#pf53bdef3f9)" style="fill: #e8edf4; stroke: #b8c5d4; stroke-width: 0.45"/>
    <path d="M 249.722638 41.498363 
L 253.574462 39.444404 
L 260.12009 28.447279 
L 270.346812 25.318348 
L 276.557936 25.529441 
L 277.955052 28.056766 
L 276.092488 34.900589 
L 274.197863 37.714135 
L 269.707546 37.717226 
L 270.963289 45.549885 
L 266.854601 43.803972 
L 262.123254 40.532124 
L 255.194839 42.085098 
z
" clip-path="url(#pf53bdef3f9)" style="fill: #e8edf4; stroke: #b8c5d4; stroke-width: 0.45"/>
    <path d="M 153.73645 135.741343 
L 154.331296 130.848152 
L 157.311322 128.134648 
L 159.401396 120.618532 
L 159.235688 117.451555 
L 157.741234 114.767214 
L 157.412137 112.247421 
L 160.124482 110.347969 
L 163.174808 109.258318 
L 165.048574 112.917782 
L 169.46357 112.908898 
L 170.743262 111.965062 
L 175.098774 112.22637 
L 177.188075 115.975447 
L 173.73449 117.999084 
L 173.638117 123.830896 
L 172.424283 124.924795 
L 172.123962 128.457565 
L 168.894603 129.072883 
L 171.888921 133.55393 
L 169.825499 138.464889 
L 172.402845 140.687065 
L 171.377121 142.7192 
L 168.60703 145.522124 
L 169.230266 147.997109 
L 166.226292 149.936927 
L 162.285628 148.885903 
L 158.428397 149.708645 
L 159.570193 143.859451 
L 158.868352 139.263297 
L 155.523693 138.573816 
z
" clip-path="url(#pf53bdef3f9)" style="fill: #e8edf4; stroke: #b8c5d4; stroke-width: 0.45"/>
    <path d="M 154.735714 103.681054 
L 165.310074 98.286493 
L 174.456803 99.635133 
L 184.492325 99.587816 
L 192.445692 100.864418 
L 210.732389 100.719762 
L 213.711643 103.625818 
L 227.471135 107.022816 
L 230.188501 105.406881 
L 238.599011 108.788042 
L 247.263683 107.819099 
L 247.663466 112.161091 
L 240.580159 117.139453 
L 231.002746 118.719273 
L 230.336054 121.233851 
L 225.741832 125.37769 
L 222.861075 131.461732 
L 225.776209 135.733231 
L 221.452757 139.06804 
L 219.836243 143.926661 
L 214.192928 145.416287 
L 208.90034 151.163701 
L 192.288289 151.136083 
L 187.606771 153.775617 
L 184.751894 156.599979 
L 181.094748 155.979832 
L 178.327167 153.454439 
L 176.208124 149.154742 
L 169.230266 147.997109 
L 168.60703 145.522124 
L 171.377121 142.7192 
L 172.402845 140.687065 
L 169.825499 138.464889 
L 171.888921 133.55393 
L 168.894603 129.072883 
L 172.123962 128.457565 
L 172.424283 124.924795 
L 173.638117 123.830896 
L 173.73449 117.999084 
L 177.188075 115.975447 
L 175.098774 112.22637 
L 170.743262 111.965062 
L 169.46357 112.908898 
L 165.048574 112.917782 
L 163.174808 109.258318 
L 160.124482 110.347969 
L 157.412137 112.247421 
L 157.788744 106.923932 
z
" clip-path="url(#pf53bdef3f9)" style="fill: #e8edf4; stroke: #b8c5d4; stroke-width: 0.45"/>
    <path d="M 150.369001 37.950143 
L 156.429481 30.145295 
L 152.525899 22.545553 
L 168.34495 13.200284 
L 169.885756 17.205068 
L 168.34495 21.210625 
L 172.967563 21.107879 
L 178.617251 22.648685 
L 179.849819 27.98859 
L 174.199938 34.66381 
L 160.949155 39.079964 
z
" clip-path="url(#pf53bdef3f9)" style="fill: #e8edf4; stroke: #b8c5d4; stroke-width: 0.45"/>
    <path d="M 275.397985 88.717577 
L 277.98943 86.440938 
L 275.789657 83.634345 
L 276.097895 81.522254 
L 279.313928 83.123318 
L 282.91777 82.767955 
L 287.108347 80.232905 
L 288.403876 81.417576 
L 291.964457 81.180024 
L 293.583289 78.165621 
L 299.114201 79.102311 
L 302.407101 77.841545 
L 303.000016 74.777121 
L 307.528574 75.839926 
L 308.397668 74.418088 
L 315.784578 73.11889 
L 317.454397 75.718832 
L 328.143091 77.649186 
L 327.333096 81.330667 
L 329.123429 84.513095 
L 323.17342 83.424217 
L 317.09633 86.077078 
L 317.509633 89.787528 
L 316.594573 91.917001 
L 319.044645 95.722473 
L 326.053403 99.487001 
L 329.812524 105.66645 
L 338.129944 111.690043 
L 343.987249 111.643884 
L 345.80887 113.295935 
L 343.711843 114.784982 
L 355.89422 119.7477 
L 362.303883 123.645875 
L 363.077955 125.041833 
L 361.681225 127.718449 
L 357.532751 124.228554 
L 351.038883 122.998497 
L 347.89315 127.833362 
L 353.295436 130.604226 
L 352.408574 134.504719 
L 349.286017 134.947957 
L 345.293594 141.358778 
L 342.177603 141.934698 
L 342.206573 139.649368 
L 343.731543 135.640335 
L 345.356168 134.043713 
L 340.155898 125.9426 
L 337.05304 125.011318 
L 334.846314 121.785242 
L 330.043123 120.426366 
L 326.808936 117.422005 
L 321.278409 116.937631 
L 308.60007 108.698043 
L 303.51761 104.392359 
L 301.186121 97.003324 
L 297.467172 96.13423 
L 291.38622 93.667163 
L 287.944995 94.67705 
L 283.626178 98.145893 
L 280.519844 98.693808 
L 281.375032 95.449384 
L 277.323511 94.501107 
z
" clip-path="url(#pf53bdef3f9)" style="fill: #e8edf4; stroke: #b8c5d4; stroke-width: 0.45"/>
    <path d="M 317.861905 144.146445 
L 318.907908 140.30872 
L 327.654853 140.992021 
L 340.953919 139.52557 
L 338.262046 145.408948 
L 339.380666 147.724793 
L 337.811662 151.568505 
L 332.095343 148.753221 
L 328.294506 147.946702 
z
" clip-path="url(#pf53bdef3f9)" style="fill: #e8edf4; stroke: #b8c5d4; stroke-width: 0.45"/>
    <path d="M 285.937581 119.203068 
L 290.048588 119.576972 
L 293.786077 117.259775 
L 298.270601 122.566654 
L 297.220736 132.452885 
L 293.822 131.981257 
L 290.773219 134.476715 
L 287.943064 132.494215 
L 287.643709 123.476306 
z
" clip-path="url(#pf53bdef3f9)" style="fill: #e8edf4; stroke: #b8c5d4; stroke-width: 0.45"/>
    <path d="M 285.414194 2.673048 
L 288.803659 -1.587442 
L 295.389072 -2.051345 
L 298.013349 -4.113415 
L 304.026319 -6.221836 
L 303.77293 -2.377738 
L 301.559638 0.056883 
L 302.456543 2.150047 
L 306.509223 3.281414 
L 304.682581 6.10114 
L 302.456543 5.289214 
L 297.074728 10.671028 
L 299.107249 14.310407 
L 294.324529 15.44834 
L 288.675034 14.462595 
L 285.640931 10.314314 
z
" clip-path="url(#pf53bdef3f9)" style="fill: #e8edf4; stroke: #b8c5d4; stroke-width: 0.45"/>
    <path d="M 306.447421 8.354218 
L 317.41268 5.876721 
L 319.79786 9.624639 
L 315.31295 15.67894 
L 307.491106 11.456882 
z
" clip-path="url(#pf53bdef3f9)" style="fill: #e8edf4; stroke: #b8c5d4; stroke-width: 0.45"/>
    <path d="M 178.975318 0.841771 
L 181.689787 -6.885824 
L 187.496299 -12.949008 
L 193.464849 -12.357252 
L 202.482952 -12.986283 
L 194.493856 -4.898883 
L 202.109241 -5.922868 
L 210.299388 -5.883855 
L 208.350686 0.206367 
L 201.630854 6.905342 
L 209.359608 7.382185 
L 216.610167 16.987215 
L 221.726618 18.187724 
L 228.457267 29.656671 
L 237.513223 31.080439 
L 236.604731 35.860648 
L 232.796941 38.052503 
L 235.781602 41.91939 
L 229.057907 45.833789 
L 219.057921 45.764647 
L 206.332458 47.819957 
L 202.847199 46.348485 
L 197.905145 49.850547 
L 190.990636 49.002311 
L 185.739571 51.856415 
L 181.766461 50.363891 
L 192.72863 42.513078 
L 199.419493 40.898495 
L 187.687886 39.646807 
L 185.573091 36.672382 
L 193.383733 34.355571 
L 189.290109 30.329349 
L 190.710401 25.433455 
L 201.819009 26.109585 
L 202.931404 21.7709 
L 197.811283 17.061764 
L 188.73582 15.746536 
L 186.954178 13.723672 
L 189.670579 10.383455 
L 187.212395 8.324089 
L 183.187912 11.858404 
L 182.749889 4.65381 
z
" clip-path="url(#pf53bdef3f9)" style="fill: #e8edf4; stroke: #b8c5d4; stroke-width: 0.45"/>
    <path d="M 168.34495 21.210625 
L 169.885756 17.205068 
L 168.34495 13.200284 
L 174.611116 12.892046 
L 182.623194 17.513307 
L 178.617251 22.648685 
L 172.967563 21.107879 
z
" clip-path="url(#pf53bdef3f9)" style="fill: #e8edf4; stroke: #b8c5d4; stroke-width: 0.45"/>
    <path d="M 327.333096 81.330667 
L 328.143091 77.649186 
L 334.317133 78.228389 
L 338.089 76.532497 
L 344.62613 76.346318 
L 346.051057 75.08478 
L 347.308346 75.16744 
L 348.760698 77.690709 
L 342.810303 79.676299 
L 342.083741 82.695723 
L 339.48573 83.460912 
L 339.513541 85.549827 
L 336.580253 85.404978 
L 334.037864 84.184771 
L 332.668945 85.446309 
L 327.45979 85.190988 
L 329.123429 84.513095 
z
" clip-path="url(#pf53bdef3f9)" style="fill: #e8edf4; stroke: #b8c5d4; stroke-width: 0.45"/>
    <path d="M 351.116522 62.993562 
L 352.775911 60.400186 
L 356.087352 60.52688 
L 358.639783 59.75358 
L 358.841799 59.058305 
L 360.272907 58.703329 
L 360.76269 57.002609 
L 362.478088 56.677568 
L 363.636493 55.332017 
L 365.865236 55.32294 
L 366.287036 55.77429 
L 369.360151 54.759767 
L 373.129701 57.409151 
L 377.545856 55.807122 
L 381.074762 56.574628 
L 386.455418 55.518197 
L 393.558811 58.391227 
L 391.486119 60.337225 
L 390.026814 63.350469 
L 388.431931 64.115079 
L 380.426998 61.843654 
L 377.977312 62.299638 
L 376.224447 64.058298 
L 365.296269 65.895562 
L 364.69447 67.396584 
L 358.420386 68.312415 
L 351.861625 65.583654 
z
" clip-path="url(#pf53bdef3f9)" style="fill: #e8edf4; stroke: #b8c5d4; stroke-width: 0.45"/>
    <path d="M 316.435046 49.566643 
L 321.867075 47.93912 
L 324.642381 46.076748 
L 330.009904 44.629031 
L 331.884443 43.206228 
L 333.855548 44.065279 
L 337.191322 43.285413 
L 340.734135 45.691837 
L 346.322601 46.342112 
L 345.85638 48.398581 
L 349.916786 49.944795 
L 351.032703 48.014634 
L 356.158811 48.850509 
L 356.867991 51.190882 
L 362.42517 51.642425 
L 365.865236 55.32294 
L 363.636493 55.332017 
L 362.478088 56.677568 
L 360.76269 57.002609 
L 360.272907 58.703329 
L 358.841799 59.058305 
L 358.639783 59.75358 
L 356.087352 60.52688 
L 352.775911 60.400186 
L 351.716776 62.044511 
L 348.270916 60.633103 
L 344.76055 61.021105 
L 338.95848 58.740024 
L 336.327636 59.298175 
L 332.122768 62.356033 
L 326.569452 59.950188 
L 322.349133 56.736859 
L 318.534777 54.940346 
L 317.743708 51.788239 
z
" clip-path="url(#pf53bdef3f9)" style="fill: #e8edf4; stroke: #b8c5d4; stroke-width: 0.45"/>
    <path d="M 483.809368 215.562388 
L 486.228925 205.860212 
L 494.547504 207.049132 
L 497.778601 204.748737 
L 499.567389 202.057637 
L 505.270962 201.02245 
L 506.500826 198.519267 
L 508.972915 197.24981 
L 501.523043 189.775797 
L 516.4927 186.024982 
L 517.917241 184.897864 
L 526.920666 186.923625 
L 538.057813 192.155762 
L 559.132756 207.188187 
L 579.690493 208.506506 
L 581.551898 212.067859 
L 586.838306 211.873954 
L 589.764641 218.319926 
L 593.441873 220.027212 
L 594.722724 222.652455 
L 599.816772 225.794325 
L 600.269087 228.878642 
L 599.524371 231.368113 
L 600.470331 233.879021 
L 602.619503 235.97373 
L 604.732753 240.257204 
L 606.992397 241.740264 
L 609.064316 241.209151 
L 613.632273 253.364682 
L 636.101629 257.133459 
L 637.608058 255.553447 
L 641.033833 260.847966 
L 636.050642 275.797344 
L 613.626865 283.271936 
L 592.074885 286.137242 
L 585.098573 289.500828 
L 579.741866 297.34913 
L 576.253517 298.595024 
L 574.384772 296.103429 
L 571.519467 296.477333 
L 564.294014 295.729719 
L 562.92355 294.982298 
L 554.297505 295.153993 
L 552.271165 295.829568 
L 549.201139 293.886081 
L 547.220378 297.560224 
L 547.987112 300.711171 
L 544.705414 303.095578 
L 543.735505 299.905811 
L 541.481269 297.654665 
L 540.904964 294.672901 
L 537.044256 291.994547 
L 533.06033 285.726643 
L 530.952102 279.635648 
L 525.78196 274.491965 
L 522.448503 273.264418 
L 517.498145 266.140747 
L 516.6333 260.946077 
L 516.951968 256.515244 
L 512.664825 248.227373 
L 509.159866 245.310501 
L 505.121864 243.764673 
L 502.664067 239.481779 
L 503.072734 237.792068 
L 500.995793 233.917068 
L 498.813016 232.248215 
L 495.894406 226.687754 
L 487.530634 215.526466 
z
" clip-path="url(#pf53bdef3f9)" style="fill: #e8edf4; stroke: #b8c5d4; stroke-width: 0.45"/>
    <path d="M 469.603354 162.630717 
L 471.211757 160.786886 
L 476.595503 160.887701 
L 483.391816 158.657413 
L 478.341416 161.840421 
L 478.885662 163.240048 
L 475.164782 163.674788 
L 474.477232 162.461147 
L 471.007037 163.020843 
z
" clip-path="url(#pf53bdef3f9)" style="fill: #e8edf4; stroke: #b8c5d4; stroke-width: 0.45"/>
    <path d="M 466.052044 162.905737 
L 471.007037 163.020843 
L 474.477232 162.461147 
L 475.164782 163.674788 
L 478.084551 162.977775 
L 479.119352 163.841075 
L 471.457421 166.877495 
L 467.798343 165.907393 
z
" clip-path="url(#pf53bdef3f9)" style="fill: #e8edf4; stroke: #b8c5d4; stroke-width: 0.45"/>
    <path d="M 97.722392 265.16601 
L 98.075051 261.701995 
L 100.946151 259.665226 
L 103.391974 255.770141 
L 102.909916 253.240499 
L 105.47973 247.966452 
L 109.640178 243.214247 
L 112.156687 242.009876 
L 114.135131 237.650116 
L 114.312426 233.668121 
L 117.010673 229.047633 
L 121.989807 226.323314 
L 126.72772 218.689774 
L 130.622805 215.714576 
L 137.573624 214.888937 
L 143.463375 209.780018 
L 147.210908 207.788441 
L 153.450614 201.547189 
L 151.582642 192.2475 
L 154.422454 185.816593 
L 155.424809 181.880564 
L 160.232636 176.830936 
L 173.275415 170.326252 
L 180.619643 157.996709 
L 186.121972 158.032631 
L 190.628127 161.205403 
L 197.736155 160.688582 
L 205.478042 162.338701 
L 208.724976 162.418658 
L 211.542385 167.206012 
L 211.987361 171.752145 
L 214.569149 179.64313 
L 216.538708 181.231447 
L 215.168244 184.136345 
L 205.386111 185.396144 
L 202.004757 188.160635 
L 197.680533 188.812455 
L 197.359548 194.346265 
L 188.620134 197.304467 
L 185.761202 201.047364 
L 179.643168 203.056129 
L 172.179005 204.195801 
L 160.108259 209.711649 
L 160.171992 218.5681 
L 159.034059 218.5681 
L 159.20556 222.572498 
L 154.585071 222.813334 
L 152.175943 224.514054 
L 148.781843 224.514054 
L 146.077223 223.543372 
L 139.788847 224.346029 
L 137.354612 230.171274 
L 135.018488 230.71861 
L 131.503873 240.14229 
L 121.112988 248.208253 
L 118.645921 258.52961 
L 115.583814 261.887402 
L 114.685943 264.58082 
z
" clip-path="url(#pf53bdef3f9)" style="fill: #e8edf4; stroke: #b8c5d4; stroke-width: 0.45"/>
    <path d="M 409.569032 200.72037 
L 411.494132 196.105439 
L 410.337428 192.9086 
L 413.042882 189.321809 
L 422.987995 189.198253 
L 441.063223 194.547345 
L 446.817891 192.179297 
L 449.894537 190.037508 
L 456.486442 189.421147 
L 461.801151 190.364898 
L 463.837622 194.07233 
L 465.572193 191.630059 
L 471.562761 193.396098 
L 477.389111 193.819238 
L 481.066943 191.936371 
L 485.978993 204.778065 
L 483.879659 207.782207 
L 482.271186 213.428791 
L 480.237779 217.320773 
L 478.495062 218.625849 
L 472.630442 212.878207 
L 467.297046 202.163802 
L 466.528875 202.84138 
L 469.626076 210.728644 
L 474.21507 218.243221 
L 479.864345 229.885905 
L 485.025749 238.171717 
L 491.733062 246.446467 
L 490.247922 247.7496 
L 490.489054 252.607607 
L 500.506971 260.847974 
L 411.810908 260.847974 
L 411.810908 206.741476 
z
" clip-path="url(#pf53bdef3f9)" style="fill: #e8edf4; stroke: #b8c5d4; stroke-width: 0.45"/>
    <path d="M 294.603798 230.244278 
L 297.570305 227.120755 
L 296.918291 222.421083 
L 297.868114 218.330162 
L 297.328117 214.922349 
L 298.644504 208.824401 
L 298.238155 205.351309 
L 295.820143 198.751798 
L 299.46686 197.019404 
L 300.113852 193.861311 
L 299.318921 190.765019 
L 304.451596 187.884649 
L 306.752956 185.489813 
L 310.396583 183.343924 
L 310.819156 177.602691 
L 319.598315 180.175588 
L 322.7373 179.532468 
L 328.981782 180.77969 
L 338.900285 184.119967 
L 342.400744 190.763596 
L 359.645912 195.343247 
L 367.608819 199.0595 
L 371.253689 197.120348 
L 374.836369 193.682452 
L 373.094623 187.956636 
L 375.438976 184.320886 
L 380.824844 180.818259 
L 385.97085 179.798715 
L 396.082424 181.328181 
L 398.631583 184.670027 
L 401.414624 184.701645 
L 403.794332 185.976748 
L 411.221456 186.853601 
L 413.042882 189.321809 
L 410.337428 192.9086 
L 411.494132 196.105439 
L 409.569032 200.72037 
L 411.810908 206.741476 
L 411.810908 275.774576 
L 403.215046 275.797299 
L 403.122809 278.933144 
L 343.498847 250.310793 
L 330.665008 257.175755 
L 326.460912 253.070543 
L 314.636602 249.84775 
L 311.356449 245.166811 
L 305.456654 241.693912 
L 301.962125 243.063411 
L 299.304243 238.895237 
L 299.023429 235.692337 
z
" clip-path="url(#pf53bdef3f9)" style="fill: #e8edf4; stroke: #b8c5d4; stroke-width: 0.45"/>
    <path d="M 471.265718 367.100524 
L 473.811737 362.842882 
L 477.778541 362.659154 
L 478.895853 360.376393 
L 478.795992 353.656522 
L 481.007221 345.834213 
L 484.547968 343.740709 
L 485.299023 340.685142 
L 488.504606 334.975247 
L 493.012874 331.27215 
L 496.051997 323.909234 
L 497.242636 317.490143 
L 505.945086 319.052423 
L 508.279424 313.473858 
L 512.815647 316.867056 
L 517.199162 315.109239 
L 519.002126 316.672116 
L 524.127053 316.761513 
L 530.632626 319.758479 
L 532.565573 322.339555 
L 535.87954 324.740715 
L 538.953046 329.122886 
L 541.50796 331.541612 
L 536.351938 338.351253 
L 537.053136 342.688725 
L 541.228259 342.813627 
L 543.028082 342.283599 
L 544.686873 343.615818 
L 543.05671 346.264081 
L 548.57473 353.97868 
L 551.428258 356.646387 
L 575.867339 365.516568 
L 582.154128 365.470823 
L 561.032077 387.905126 
L 551.294611 388.234534 
L 544.633191 393.503872 
L 539.841484 393.641854 
L 537.796963 395.998003 
L 532.689653 395.996672 
L 529.674972 393.470759 
L 522.846569 396.596887 
L 520.637389 399.711803 
L 515.652729 399.123697 
L 513.998063 398.261644 
L 509.885317 398.392189 
L 500.423727 392.044264 
L 495.221253 392.044264 
L 492.667677 389.584341 
L 492.667677 385.389064 
L 488.785034 384.135055 
L 484.367605 376.000978 
L 480.953927 374.267978 
L 479.644216 371.27901 
L 475.855983 367.635934 
z
" clip-path="url(#pf53bdef3f9)" style="fill: #e8edf4; stroke: #b8c5d4; stroke-width: 0.45"/>
    <path d="M 446.040871 435.316409 
L 446.103446 429.681206 
L 447.835067 426.825171 
L 448.255708 420.825334 
L 449.828189 417.350117 
L 452.686155 413.452135 
L 455.557641 411.466932 
L 457.960588 408.812913 
L 454.964726 407.800709 
L 455.416985 399.060674 
L 458.49436 397.022121 
L 463.247423 398.69368 
L 469.264302 396.944235 
L 474.523325 396.961576 
L 479.120242 393.524091 
L 482.664204 398.713637 
L 486.826545 411.045036 
L 484.10659 416.493317 
L 478.287333 424.469727 
L 478.363143 432.391476 
L 454.938663 432.873965 
L 447.850131 436.078894 
z
" clip-path="url(#pf53bdef3f9)" style="fill: #e8edf4; stroke: #b8c5d4; stroke-width: 0.45"/>
    <path d="M 342.670476 90.285809 
L 344.235231 87.183337 
L 346.917061 88.899894 
L 348.537438 87.349045 
L 352.02965 87.183337 
L 358.455149 88.424403 
L 363.62336 88.320884 
L 367.003895 89.975473 
L 369.713833 89.954768 
L 367.842029 93.243097 
L 371.445937 96.117852 
L 370.35643 99.633709 
L 367.199507 100.647049 
L 364.768971 102.38431 
L 363.674082 106.496196 
L 357.058419 103.666569 
L 354.236375 100.543819 
L 347.950703 96.097149 
z
" clip-path="url(#pf53bdef3f9)" style="fill: #e8edf4; stroke: #b8c5d4; stroke-width: 0.45"/>
    <path d="M 377.899673 114.979273 
L 378.84949 112.435496 
L 379.799246 112.497528 
L 380.134485 110.967091 
L 388.767122 109.08512 
L 392.231222 108.960895 
L 395.974892 111.35998 
L 396.505618 116.302999 
L 395.080894 116.551112 
L 393.851599 117.854042 
L 389.80085 117.709193 
L 386.951381 119.343089 
L 382.062053 120.004952 
L 378.961126 118.184877 
z
" clip-path="url(#pf53bdef3f9)" style="fill: #e8edf4; stroke: #b8c5d4; stroke-width: 0.45"/>
    <path d="M 365.690931 82.137226 
L 371.418165 80.172455 
L 376.08346 80.50329 
L 380.134596 83.440054 
L 380.972789 85.818474 
L 385.526454 87.576554 
L 386.113188 90.657781 
L 390.471404 92.829356 
L 392.817957 91.154323 
L 394.661981 92.085026 
L 392.929973 93.346564 
L 394.298893 94.649432 
L 392.454869 96.34513 
L 393.125423 99.075243 
L 396.757076 102.301706 
L 393.907607 104.638602 
L 392.650318 107.017022 
L 393.4607 107.906202 
L 392.231222 108.960895 
L 386.222418 109.521757 
L 385.973392 108.960966 
L 387.705495 106.251775 
L 386.643869 106.29311 
L 380.525559 101.846583 
L 379.184604 102.26023 
L 378.150933 104.741968 
L 376.362919 105.279695 
L 376.977486 104.638593 
L 371.671971 102.282131 
L 368.596297 99.964537 
L 370.35643 99.633709 
L 371.445937 96.117852 
L 367.842029 93.243097 
L 369.713833 89.954768 
L 367.003895 89.975473 
L 369.881608 87.162865 
L 367.506857 85.03262 
z
" clip-path="url(#pf53bdef3f9)" style="fill: #e8edf4; stroke: #b8c5d4; stroke-width: 0.45"/>
    <path d="M 362.851995 107.766947 
L 364.768971 102.38431 
L 368.596297 99.964537 
L 371.671971 102.282131 
L 376.977486 104.638593 
L 374.966054 106.954916 
L 372.954723 107.616697 
L 372.479618 106.21031 
L 369.238864 109.891598 
L 369.741775 112.269994 
L 368.177267 111.690937 
L 366.08197 109.250535 
z
" clip-path="url(#pf53bdef3f9)" style="fill: #e8edf4; stroke: #b8c5d4; stroke-width: 0.45"/>
    <path d="M 374.966054 106.954916 
L 376.362919 105.279695 
L 378.150933 104.741968 
L 379.184604 102.26023 
L 380.525559 101.846583 
L 386.643869 106.29311 
L 387.705495 106.251775 
L 385.973392 108.960966 
L 386.222418 109.521757 
L 380.134485 110.967091 
L 379.799246 112.497528 
L 378.84949 112.435496 
L 378.346471 109.726222 
L 376.558565 108.960895 
z
" clip-path="url(#pf53bdef3f9)" style="fill: #e8edf4; stroke: #b8c5d4; stroke-width: 0.45"/>
    <path d="M 403.491456 360.860977 
L 408.353242 358.634964 
L 410.278047 351.962308 
L 412.331172 348.497659 
L 417.720625 347.471097 
L 422.853437 353.887112 
L 424.906562 354.528714 
L 427.601289 353.245511 
L 432.990742 353.502152 
L 434.017304 355.041995 
L 441.459882 355.041995 
L 441.716523 353.502152 
L 445.566132 352.090628 
L 446.336054 349.909183 
L 449.159101 348.369339 
L 455.446796 352.73223 
L 459.296406 351.962308 
L 463.017695 346.572855 
L 467.123944 342.466605 
L 466.482343 337.975394 
L 464.685859 335.793949 
L 469.177069 335.408988 
L 469.690351 333.740824 
L 473.154999 334.254105 
L 472.256757 339.771878 
L 473.154999 345.161331 
L 477.004608 348.112698 
L 477.902851 350.679105 
L 477.77453 354.400394 
L 478.809243 354.54821 
L 478.895853 360.376393 
L 477.778541 362.659154 
L 473.811737 362.842882 
L 471.265718 367.100524 
L 475.855983 367.635934 
L 479.644216 371.27901 
L 480.953927 374.267978 
L 484.367605 376.000978 
L 488.785034 384.135055 
L 479.120242 393.524091 
L 474.523325 396.961576 
L 469.264302 396.944235 
L 463.247423 398.69368 
L 458.49436 397.022121 
L 455.416985 399.060674 
L 448.836649 394.093555 
L 447.06138 390.901084 
L 442.898615 392.482255 
L 439.442325 391.990348 
L 437.441478 393.245513 
L 434.085232 392.339145 
L 428.355393 383.799043 
L 422.768086 380.840841 
L 420.880801 376.356897 
L 417.765582 373.122516 
L 412.738744 369.229942 
L 412.669989 366.800535 
z
" clip-path="url(#pf53bdef3f9)" style="fill: #e8edf4; stroke: #b8c5d4; stroke-width: 0.45"/>
   </g>
   <g id="PathCollection_1">
    <defs>
     <path id="maa2d7125ac" d="M 0 2.12132 
C 0.562581 2.12132 1.102195 1.897805 1.5 1.5 
C 1.897805 1.102195 2.12132 0.562581 2.12132 0 
C 2.12132 -0.562581 1.897805 -1.102195 1.5 -1.5 
C 1.102195 -1.897805 0.562581 -2.12132 0 -2.12132 
C -0.562581 -2.12132 -1.102195 -1.897805 -1.5 -1.5 
C -1.897805 -1.102195 -2.12132 -0.562581 -2.12132 0 
C -2.12132 0.562581 -1.897805 1.102195 -1.5 1.5 
C -1.102195 1.897805 -0.562581 2.12132 0 2.12132 
z
" style="stroke: #ffffff; stroke-width: 0.5"/>
    </defs>
    <g clip-path="url(#pf53bdef3f9)">
     <use xlink:href="#maa2d7125ac" x="236.156342" y="107.617396" style="fill: #8aa0b7; stroke: #ffffff; stroke-width: 0.5"/>
     <use xlink:href="#maa2d7125ac" x="374.437596" y="118.829389" style="fill: #8aa0b7; stroke: #ffffff; stroke-width: 0.5"/>
     <use xlink:href="#maa2d7125ac" x="45.552451" y="305.695948" style="fill: #8aa0b7; stroke: #ffffff; stroke-width: 0.5"/>
     <use xlink:href="#maa2d7125ac" x="471.608207" y="163.677363" style="fill: #8aa0b7; stroke: #ffffff; stroke-width: 0.5"/>
     <use xlink:href="#maa2d7125ac" x="216.166852" y="33.950861" style="fill: #8aa0b7; stroke: #ffffff; stroke-width: 0.5"/>
     <use xlink:href="#maa2d7125ac" x="176.416598" y="15.770987" style="fill: #8aa0b7; stroke: #ffffff; stroke-width: 0.5"/>
     <use xlink:href="#maa2d7125ac" x="205.634804" y="55.543914" style="fill: #8aa0b7; stroke: #ffffff; stroke-width: 0.5"/>
     <use xlink:href="#maa2d7125ac" x="184.954905" y="155.206079" style="fill: #8aa0b7; stroke: #ffffff; stroke-width: 0.5"/>
     <use xlink:href="#maa2d7125ac" x="101.114108" y="324.63176" style="fill: #8aa0b7; stroke: #ffffff; stroke-width: 0.5"/>
     <use xlink:href="#maa2d7125ac" x="299.690972" y="410.341222" style="fill: #8aa0b7; stroke: #ffffff; stroke-width: 0.5"/>
     <use xlink:href="#maa2d7125ac" x="112.824413" y="335.594598" style="fill: #8aa0b7; stroke: #ffffff; stroke-width: 0.5"/>
     <use xlink:href="#maa2d7125ac" x="484.688866" y="189.838682" style="fill: #8aa0b7; stroke: #ffffff; stroke-width: 0.5"/>
     <use xlink:href="#maa2d7125ac" x="191.308368" y="19.790113" style="fill: #8aa0b7; stroke: #ffffff; stroke-width: 0.5"/>
     <use xlink:href="#maa2d7125ac" x="208.749247" y="57.163425" style="fill: #8aa0b7; stroke: #ffffff; stroke-width: 0.5"/>
     <use xlink:href="#maa2d7125ac" x="492.786417" y="172.397803" style="fill: #8aa0b7; stroke: #ffffff; stroke-width: 0.5"/>
     <use xlink:href="#maa2d7125ac" x="296.202796" y="71.988172" style="fill: #8aa0b7; stroke: #ffffff; stroke-width: 0.5"/>
     <use xlink:href="#maa2d7125ac" x="271.0381" y="53.426093" style="fill: #8aa0b7; stroke: #ffffff; stroke-width: 0.5"/>
     <use xlink:href="#maa2d7125ac" x="280.25685" y="98.398645" style="fill: #8aa0b7; stroke: #ffffff; stroke-width: 0.5"/>
     <use xlink:href="#maa2d7125ac" x="369.761447" y="106.057434" style="fill: #8aa0b7; stroke: #ffffff; stroke-width: 0.5"/>
     <use xlink:href="#maa2d7125ac" x="389.386921" y="112.600504" style="fill: #8aa0b7; stroke: #ffffff; stroke-width: 0.5"/>
     <use xlink:href="#maa2d7125ac" x="333.949841" y="157.448478" style="fill: #8aa0b7; stroke: #ffffff; stroke-width: 0.5"/>
     <use xlink:href="#maa2d7125ac" x="488.300623" y="186.458639" style="fill: #8aa0b7; stroke: #ffffff; stroke-width: 0.5"/>
     <use xlink:href="#maa2d7125ac" x="335.693929" y="80.584033" style="fill: #8aa0b7; stroke: #ffffff; stroke-width: 0.5"/>
     <use xlink:href="#maa2d7125ac" x="317.754739" y="98.14949" style="fill: #8aa0b7; stroke: #ffffff; stroke-width: 0.5"/>
     <use xlink:href="#maa2d7125ac" x="277.266985" y="417.815884" style="fill: #8aa0b7; stroke: #ffffff; stroke-width: 0.5"/>
     <use xlink:href="#maa2d7125ac" x="233.664788" y="365.493247" style="fill: #8aa0b7; stroke: #ffffff; stroke-width: 0.5"/>
     <use xlink:href="#maa2d7125ac" x="318.029309" y="112.080516" style="fill: #8aa0b7; stroke: #ffffff; stroke-width: 0.5"/>
     <use xlink:href="#maa2d7125ac" x="381.187216" y="106.850495" style="fill: #8aa0b7; stroke: #ffffff; stroke-width: 0.5"/>
    </g>
   </g>
   <g id="PatchCollection_2">
    <defs>
     <path id="mab80fde433" d="M 160.031392 -211.483391 
L 160.108259 -222.288351 
L 172.179005 -227.804199 
L 179.643168 -228.943871 
L 185.761202 -230.952636 
L 188.620134 -234.695533 
L 197.359548 -237.653735 
L 197.680533 -243.187545 
L 202.004757 -243.839365 
L 205.386111 -246.603856 
L 215.168244 -247.863655 
L 216.538708 -250.768553 
L 214.569149 -252.35687 
L 211.987361 -260.247855 
L 211.542385 -264.793988 
L 208.724976 -269.581342 
L 215.91045 -273.66589 
L 223.99167 -274.965088 
L 228.710656 -278.049212 
L 235.909069 -280.324306 
L 260.940514 -282.263158 
L 264.71045 -281.153036 
L 271.749336 -284.09907 
L 279.736501 -284.156817 
L 282.776398 -282.417664 
L 287.888214 -282.871524 
L 286.369811 -279.035151 
L 287.554868 -271.909548 
L 285.795436 -265.744969 
L 281.187308 -261.57583 
L 281.846274 -255.945455 
L 287.959287 -251.492218 
L 288.023793 -249.682958 
L 292.631921 -246.666237 
L 295.820143 -233.248202 
L 298.238155 -226.648691 
L 298.644504 -223.175599 
L 297.328117 -217.077651 
L 297.868114 -213.669838 
L 296.918291 -209.578917 
L 297.570305 -204.879245 
L 294.603798 -201.755722 
L 299.023429 -196.307663 
L 299.304243 -193.104763 
L 301.962125 -188.936589 
L 305.456654 -190.306088 
L 311.356449 -186.833189 
L 314.636602 -182.15225 
L 289.02383 -167.905486 
L 267.382237 -153.221858 
L 256.841868 -149.888594 
L 248.550328 -149.156817 
L 248.464577 -153.912305 
L 240.349559 -157.265848 
L 238.572359 -160.768295 
z
" style="stroke: #b45309; stroke-width: 1.15"/>
    </defs>
    <g clip-path="url(#pf53bdef3f9)">
     <use xlink:href="#mab80fde433" x="0" y="432" style="fill: #f59e0b; stroke: #b45309; stroke-width: 1.15"/>
    </g>
   </g>
   <g id="PathCollection_2">
    <path d="M 247.368336 220.135215 
C 248.465007 220.135215 249.51691 219.699502 250.292374 218.924038 
C 251.067838 218.148574 251.50355 217.096672 251.50355 216 
C 251.50355 214.903328 251.067838 213.851426 250.292374 213.075962 
C 249.51691 212.300498 248.465007 211.864785 247.368336 211.864785 
C 246.271664 211.864785 245.219761 212.300498 244.444297 213.075962 
C 243.668833 213.851426 243.233121 214.903328 243.233121 216 
C 243.233121 217.096672 243.668833 218.148574 244.444297 218.924038 
C 245.219761 219.699502 246.271664 220.135215 247.368336 220.135215 
L 247.368336 220.135215 
z
" clip-path="url(#pf53bdef3f9)" style="fill: none; stroke: #7c2d12; stroke-width: 1.1"/>
   </g>
  </g>
 </g>
 <defs>
  <clipPath id="pf53bdef3f9">
   <rect x="0" y="0" width="494.736671" height="432"/>
  </clipPath>
 </defs>
</svg>
