<?xml version="1.0" encoding="utf-8" standalone="no"?>
<!DOCTYPE svg PUBLIC "-//W3C//DTD SVG 1.1//EN"
  "http://www.w3.org/Graphics/SVG/1.1/DTD/svg11.dtd">
<svg xmlns:xlink="http://www.w3.org/1999/xlink" width="576pt" height="292.430769pt" viewBox="0 0 576 292.430769" xmlns="http://www.w3.org/2000/svg" version="1.1">
 <metadata>
  <rdf:RDF xmlns:dc="http://purl.org/dc/elements/1.1/" xmlns:cc="http://creativecommons.org/ns#" xmlns:rdf="http://www.w3.org/1999/02/22-rdf-syntax-ns#">
   <cc:Work>
    <dc:type rdf:resource="http://purl.org/dc/dcmitype/StillImage"/>
    <dc:date>2026-06-09T04:57:04.866976</dc:date>
    <dc:format>image/svg+xml</dc:format>
    <dc:creator>
     <cc:Agent>
      <dc:title>Matplotlib v3.10.8, https://matplotlib.org/</dc:title>
     </cc:Agent>
    </dc:creator>
   </cc:Work>
  </rdf:RDF>
 </metadata>
 <defs>
  <style type="text/css">*{stroke-linejoin: round; stroke-linecap: butt}</style>
 </defs>
 <g id="figure_1">
  <g id="patch_1">
   <path d="M 0 292.430769 
L 576 292.430769 
L 576 0 
L 0 0 
z
" style="fill: #eaf3ff"/>
  </g>
  <g id="axes_1">
   <g id="PatchCollection_1">
    <path d="M -606.995712 218.823375 
L -606.891323 135.4752 
L -590.3603 137.610654 
L -576.410821 141.873054 
L -567.170186 142.688138 
L -559.39135 138.992167 
L -548.658964 136.22462 
L -535.496123 137.306526 
L -522.222513 133.414804 
L -507.719276 131.206686 
L -501.631577 134.879084 
L -495.019362 132.809118 
L -493.039783 128.63551 
L -486.916017 129.580416 
L -471.932928 137.525937 
L -460.133878 131.519409 
L -458.936241 138.242747 
L -448.048955 136.789189 
L -444.703015 134.203303 
L -433.969566 134.715057 
L -420.416906 138.436194 
L -399.679134 141.684657 
L -387.483441 143.189081 
L -378.803298 142.618398 
L -366.849438 147.111286 
L -379.317179 151.509179 
L -363.298885 153.409625 
L -339.3792 152.364229 
L -331.830853 150.814169 
L -322.384542 156.127547 
L -312.744871 151.644318 
L -321.788958 147.884544 
L -316.066353 144.851417 
L -298.190769 143.556923 
L -291.037913 145.672881 
L -282.132864 150.486646 
L -272.236652 149.779938 
L -256.579909 153.775252 
L -242.823434 152.368305 
L -229.896665 152.581071 
L -230.919286 147.066624 
L -223.040315 145.518513 
L -209.308741 148.52479 
L -209.361644 156.907894 
L -203.721718 149.842412 
L -196.593231 150.080522 
L -192.58622 141.172903 
L -202.079232 135.70817 
L -212.422686 132.127665 
L -211.712345 122.335134 
L -201.234905 115.904226 
L -189.548042 117.32544 
L -180.582026 121.237455 
L -168.543271 131.227953 
L -176.405937 135.581804 
L -159.925071 137.374582 
L -159.96415 146.437012 
L -148.121945 139.49187 
L -137.528064 145.195599 
L -140.167296 151.768202 
L -131.595353 157.746727 
L -122.34302 151.342139 
L -115.879148 143.693745 
L -115.394688 133.967764 
L -89.701632 135.951419 
L -77.808118 140.348869 
L -77.274388 144.747294 
L -83.86879 149.471734 
L -77.620697 154.215936 
L -78.748327 158.526011 
L -96.099486 164.722353 
L -108.424645 166.089157 
L -117.587564 163.421568 
L -120.229809 167.870769 
L -128.770826 175.343527 
L -131.356711 179.219033 
L -141.633615 185.215281 
L -154.31873 185.80227 
L -161.315269 189.546801 
L -161.900662 195.306447 
L -172.209999 196.415291 
L -183.052623 203.596593 
L -192.663404 213.57504 
L -196.099732 220.561831 
L -196.589686 230.853534 
L -183.566946 232.330752 
L -175.432143 247.351326 
L -163.031838 245.600374 
L -146.565681 249.437066 
L -137.706358 252.805337 
L -131.365307 256.992236 
L -120.261799 259.431906 
L -110.873886 263.164652 
L -86.602486 264.53181 
L -88.050018 272.206346 
L -85.292485 281.114319 
L -78.874338 291.03171 
L -65.68961 299.445386 
L -58.867289 296.560866 
L -54.07231 287.449876 
L -58.700692 273.454228 
L -64.951355 268.790666 
L -50.76545 264.636997 
L -40.724086 258.425413 
L -35.812756 252.250516 
L -36.537807 246.327463 
L -42.555412 238.799941 
L -53.318814 232.131722 
L -42.861135 222.844564 
L -46.724411 214.822479 
L -49.685494 200.982882 
L -43.516091 198.936842 
L -19.213588 202.210471 
L -11.873398 199.882634 
L -3.620204 202.884303 
L 7.292337 208.021514 
L 9.980839 211.461386 
L 25.783355 212.132736 
L 25.518306 219.577846 
L 28.464148 230.777856 
L 36.557834 232.162914 
L 42.980588 237.382361 
L 55.811919 232.461991 
L 64.288955 222.68417 
L 70.152192 218.564706 
L 98.393649 248.41152 
L 94.830336 253.976566 
L 106.617334 258.974208 
L 114.58306 264.03778 
L 128.713137 266.329196 
L 134.401182 269.155938 
L 137.913098 276.654395 
L 144.814287 277.831473 
L 148.374764 281.173425 
L 149.021125 291.131313 
L 136.229228 297.572943 
L 121.62621 300.722511 
L 110.476002 308.00253 
L 95.494951 309.440847 
L 76.54145 307.575227 
L 54.063803 308.12482 
L 46.644391 314.482176 
L 35.347436 318.40961 
L 22.564844 330.137679 
L 12.365568 338.318385 
L 19.892204 336.861991 
L 34.116923 325.218462 
L 52.70462 317.835914 
L 65.962988 316.952596 
L 73.807842 321.297408 
L 65.438474 327.249083 
L 68.246784 336.800758 
L 71.138747 343.486612 
L 82.648999 347.912684 
L 97.293312 346.629977 
L 106.177625 336.66819 
L 106.793945 343.095375 
L 112.516106 346.305378 
L 101.554294 352.111015 
L 81.927493 357.384606 
L 73.138176 360.970073 
L 63.235407 367.353039 
L 56.506486 366.702247 
L 56.166823 359.201398 
L 71.552581 351.873615 
L 57.369157 352.163653 
L 47.520798 353.242811 
L 41.725972 348.233561 
L 41.73377 336.15041 
L 37.799424 333.593856 
L 31.857231 335.099077 
L 28.913286 332.770433 
L 22.154112 339.458334 
L 19.451077 346.353231 
L 16.305231 350.385231 
L 9.703385 352.201846 
L 8.816699 354.388874 
L -20.975262 354.457285 
L -24.973676 356.088074 
L -35.446154 363.159503 
L -38.282149 366.612619 
L -55.12125 366.645361 
L -59.121292 368.052131 
L -57.688615 369.792 
L -57.062655 373.393229 
L -68.654306 377.80106 
L -77.784339 379.193862 
L -88.077292 383.925223 
L -90.299868 383.925223 
L -93.310318 382.527841 
L -94.304489 381.261657 
L -92.16 377.235692 
L -87.995077 372.361846 
L -85.404339 367.123901 
L -89.066655 351.382007 
L -98.299723 347.222604 
L -97.207096 345.647087 
L -98.506022 344.563847 
L -100.939705 344.563847 
L -102.721636 343.159367 
L -103.16709 341.060891 
L -104.891372 341.977669 
L -107.268037 341.704468 
L -106.726143 340.826429 
L -108.812942 339.954297 
L -109.671108 337.623877 
L -140.70452 325.192607 
L -148.633853 327.701391 
L -151.532308 327.788308 
L -162.432 325.484308 
L -169.609846 326.636308 
L -178.205538 323.889231 
L -193.439764 321.933135 
L -196.194462 320.433231 
L -197.768094 315.567803 
L -200.767813 315.610338 
L -200.794216 319.015385 
L -447.279153 318.992896 
L -464.435358 310.290668 
L -470.765775 306.462484 
L -486.814021 302.793364 
L -491.751227 294.948953 
L -490.48899 289.509918 
L -501.827062 285.73694 
L -503.38173 278.592679 
L -514.101888 272.15938 
L -514.289221 267.593826 
L -509.361231 263.320615 
L -509.607404 257.730491 
L -524.672286 252.091983 
L -539.273886 235.625826 
L -553.358769 228.002422 
L -558.06274 223.419057 
L -566.95875 226.289221 
L -575.579077 231.241846 
L -589.637908 221.538462 
L -598.269046 219.08541 
z
" clip-path="url(#p6a22815555)" style="fill: #e8edf4; stroke: #b8c5d4; stroke-width: 0.45"/>
    <path d="M -156.894959 113.116879 
L -150.084126 105.191209 
L -140.971494 101.571938 
L -118.0902 99.215417 
L -124.612536 104.943239 
L -117.631352 110.466823 
L -109.440997 103.323073 
L -86.98123 99.683882 
L -71.779238 108.850321 
L -73.098313 114.651412 
L -55.567505 112.079204 
L -47.18436 108.557244 
L -27.522562 113.040634 
L -15.318198 117.26346 
L -14.170848 121.129786 
L 2.284277 119.12633 
L 11.519863 124.770351 
L 32.911273 128.270559 
L 40.630416 131.842434 
L 49.012873 140.135595 
L 32.742296 144.264087 
L 53.613494 150.050983 
L 67.681645 151.997197 
L 80.419042 160.14153 
L 94.357827 160.729515 
L 91.600156 166.949157 
L 76.045785 177.242568 
L 65.142408 173.455465 
L 51.20889 164.93059 
L 39.743858 166.041077 
L 38.624899 171.118176 
L 47.944059 176.26969 
L 59.974179 180.346436 
L 63.624361 182.700668 
L 69.391107 191.471911 
L 66.339215 197.841068 
L 55.162681 195.440355 
L 32.936688 188.346062 
L 54.690781 201.333491 
L 56.132811 204.427742 
L 32.102106 200.889754 
L 13.084619 195.74511 
L 2.344953 191.428407 
L 5.438517 188.928095 
L -20.686543 180.074653 
L -20.5455 182.644342 
L -46.168437 184.058209 
L -53.665024 181.015476 
L -47.828214 174.490851 
L -31.177323 174.333322 
L -12.936032 173.200854 
L -15.896567 170.037226 
L -12.804148 165.617031 
L -1.339574 156.985916 
L -3.775547 153.066012 
L -7.192182 150.030834 
L -20.765307 145.731304 
L -38.716956 142.71742 
L -33.041567 140.475152 
L -42.423463 134.965306 
L -50.232818 134.460664 
L -57.2211 131.444262 
L -61.963909 134.059057 
L -78.03002 135.198852 
L -110.279242 133.218751 
L -143.394874 129.283277 
L -150.765072 126.170251 
L -141.498575 122.128079 
L -154.085771 122.089384 
z
" clip-path="url(#p6a22815555)" style="fill: #e8edf4; stroke: #b8c5d4; stroke-width: 0.45"/>
    <path d="M -169.140362 27.521369 
L -155.963077 25.831385 
L -128.228588 24.106841 
L -115.2 20.804469 
L -104.211737 21.267692 
L -94.641231 23.748923 
L -87.906462 18.963692 
L -60.317302 16.566114 
L -33.230769 16.198371 
L -28.523343 17.155584 
L -2.937866 15.656212 
L 59.129945 17.474865 
L 78.158769 18.609231 
L 94.375385 21.014252 
L 93.98654 23.37984 
L 72.363323 27.224862 
L 50.92354 29.019146 
L 42.911557 31.00289 
L 62.205253 30.957164 
L 41.294769 36.332308 
L 26.85312 38.84163 
L 11.697231 46.08 
L -6.582351 47.549686 
L -12.228923 49.357332 
L -39.059269 50.306156 
L -26.843727 51.417659 
L -32.968999 53.000241 
L -25.640418 57.371284 
L -34.059678 60.409462 
L -47.750489 62.917721 
L -51.952453 66.385418 
L -64.330427 69.03422 
L -63.091052 71.039764 
L -47.94881 70.696955 
L -47.755806 72.859968 
L -71.435077 78.175429 
L -94.591518 75.730442 
L -120.621844 77.104158 
L -150.563564 75.567744 
L -151.674978 71.31651 
L -135.292564 69.31203 
L -139.657846 62.916923 
L -134.252308 62.294646 
L -110.559567 66.118331 
L -122.643692 60.435692 
L -137.016399 58.735961 
L -129.839084 55.307786 
L -114.124918 53.196702 
L -111.610634 50.10819 
L -124.126582 46.645012 
L -127.887862 42.079458 
L -103.666176 42.461302 
L -96.667826 43.421538 
L -82.8397 40.192217 
L -102.793846 39.168 
L -133.799926 39.732746 
L -149.46429 36.724962 
L -156.849231 33.142154 
L -167.198267 30.544837 
z
" clip-path="url(#p6a22815555)" style="fill: #e8edf4; stroke: #b8c5d4; stroke-width: 0.45"/>
    <path d="M -415.623788 119.111572 
L -408.186122 112.471975 
L -402.016276 108.944286 
L -378.291013 103.55071 
L -369.23523 105.262228 
L -373.658644 109.415454 
L -353.938885 106.733686 
L -341.615764 111.208763 
L -331.601871 106.68291 
L -323.504108 109.587545 
L -316.253686 118.293652 
L -311.802004 114.619746 
L -318.097241 105.545088 
L -310.299618 104.247316 
L -301.49249 105.664896 
L -291.566415 109.239818 
L -286.004736 117.87264 
L -283.25695 124.123835 
L -252.383527 132.707564 
L -253.345093 136.605312 
L -267.894587 137.318223 
L -262.242078 140.724598 
L -265.227973 143.97501 
L -281.265231 142.582154 
L -296.507077 140.189538 
L -306.80897 140.728143 
L -323.446154 143.734154 
L -361.667742 145.900446 
L -366.468569 141.718686 
L -378.564923 139.303385 
L -386.433438 140.294016 
L -397.351385 133.277538 
L -377.77731 130.820234 
L -365.28511 131.218383 
L -353.718055 129.676386 
L -370.855385 127.606154 
L -402.356382 128.132884 
L -407.031552 124.866166 
L -386.479252 121.321728 
L -400.148795 121.445612 
z
" clip-path="url(#p6a22815555)" style="fill: #e8edf4; stroke: #b8c5d4; stroke-width: 0.45"/>
    <path d="M 115.913405 328.767917 
L 121.433326 325.648021 
L 117.57822 323.240669 
L 125.020313 317.902548 
L 134.175303 303.788833 
L 139.669809 298.745163 
L 147.358727 295.69098 
L 151.470505 296.079307 
L 139.162648 311.81708 
L 144.947254 308.823574 
L 150.898776 310.722621 
L 147.789184 313.812522 
L 155.65166 316.241626 
L 159.740083 314.082244 
L 168.577039 316.807631 
L 165.834709 323.297453 
L 172.03672 321.781925 
L 173.16644 326.484206 
L 175.918387 331.992679 
L 172.187151 339.791272 
L 168.179095 340.120984 
L 162.352818 338.448156 
L 164.276364 331.198166 
L 161.80742 330.072109 
L 151.525457 337.757593 
L 146.237708 337.449863 
L 152.496274 333.286339 
L 143.992922 331.133139 
L 117.273465 331.391871 
z
" clip-path="url(#p6a22815555)" style="fill: #e8edf4; stroke: #b8c5d4; stroke-width: 0.45"/>
    <path d="M -218.183297 73.098141 
L -214.849089 69.462156 
L -196.58513 70.024955 
L -186.747362 72.87467 
L -169.299898 72.854979 
L -161.650819 75.769721 
L -163.669615 79.097976 
L -153.501678 81.102805 
L -147.873227 83.208379 
L -122.990996 84.340389 
L -108.904986 82.419361 
L -90.861294 81.665146 
L -76.462058 82.288393 
L -66.971174 85.630385 
L -64.989928 89.296595 
L -70.518092 91.6522 
L -83.731282 93.556056 
L -95.074503 92.478769 
L -120.494347 93.843408 
L -138.686181 94.000479 
L -176.543477 90.053099 
L -179.608191 85.187565 
L -180.685936 80.7937 
L -189.582194 76.924856 
L -207.913469 75.842532 
z
" clip-path="url(#p6a22815555)" style="fill: #e8edf4; stroke: #b8c5d4; stroke-width: 0.45"/>
    <path d="M -400.633698 86.646351 
L -388.543193 77.990134 
L -380.203156 75.510321 
L -355.264039 78.501356 
L -339.522934 83.748716 
L -324.040763 84.422016 
L -336.714181 75.94498 
L -328.595594 72.716278 
L -319.445967 73.742887 
L -316.458033 77.966651 
L -312.984487 81.122777 
L -305.093287 79.640241 
L -295.807015 80.025009 
L -294.247207 84.366188 
L -299.639365 88.568684 
L -329.649231 89.944615 
L -352.007513 93.782016 
L -365.483609 93.983084 
L -366.613809 91.094046 
L -348.207153 87.175385 
L -388.243584 88.230528 
z
" clip-path="url(#p6a22815555)" style="fill: #e8edf4; stroke: #b8c5d4; stroke-width: 0.45"/>
    <path d="M -214.535365 42.909607 
L -208.391838 38.970122 
L -202.25088 36.267707 
L -193.167626 35.647577 
L -197.04003 33.616601 
L -176.431813 33.165282 
L -165.116071 37.896812 
L -135.670154 41.472 
L -128.669538 47.320615 
L -117.985625 50.183778 
L -130.154378 52.820972 
L -146.52864 59.48547 
L -162.20479 60.122614 
L -180.568822 58.988337 
L -190.090279 55.375842 
L -189.953634 52.161408 
L -182.948588 49.80096 
L -199.154215 49.868485 
L -208.920871 46.921669 
z
" clip-path="url(#p6a22815555)" style="fill: #e8edf4; stroke: #b8c5d4; stroke-width: 0.45"/>
    <path d="M -130.45942 190.157644 
L -122.756764 185.77477 
L -121.623609 178.799997 
L -118.601482 170.684056 
L -112.198667 171.406216 
L -110.55446 175.303223 
L -106.019553 173.936294 
L -100.867581 176.259387 
L -81.012306 182.059104 
L -80.22741 186.273001 
L -73.704616 185.582896 
L -67.378276 188.520534 
L -75.243499 191.309574 
L -89.033455 189.178584 
L -94.010268 185.189532 
L -102.797538 189.905323 
L -115.407402 194.489687 
L -118.450136 189.306805 
z
" clip-path="url(#p6a22815555)" style="fill: #e8edf4; stroke: #b8c5d4; stroke-width: 0.45"/>
    <path d="M -265.846154 110.680615 
L -265.668923 107.844923 
L -247.576852 108.944817 
L -257.339077 103.148308 
L -246.850737 98.860298 
L -236.28291 100.725652 
L -220.475077 99.603692 
L -218.171077 102.173538 
L -226.444121 106.422469 
L -213.031385 110.237538 
L -214.626462 118.212923 
L -229.156372 121.643668 
L -237.691806 120.903375 
L -243.823636 117.51933 
z
" clip-path="url(#p6a22815555)" style="fill: #e8edf4; stroke: #b8c5d4; stroke-width: 0.45"/>
    <path d="M -473.462684 116.363622 
L -463.523062 106.138545 
L -455.837538 100.312615 
L -464.501908 94.882708 
L -434.55106 93.498713 
L -421.895897 95.338191 
L -399.262287 95.830715 
L -381.141947 102.127547 
L -392.282053 104.363047 
L -414.011077 110.592 
L -424.999385 116.795077 
L -424.999385 120.662236 
L -448.324638 124.933159 
L -453.001846 121.048615 
z
" clip-path="url(#p6a22815555)" style="fill: #e8edf4; stroke: #b8c5d4; stroke-width: 0.45"/>
    <path d="M -495.755084 305.376257 
L -494.991481 303.324718 
L -480.251086 306.601227 
L -471.92129 307.539531 
L -464.528653 314.803717 
L -455.682539 318.461684 
L -452.027091 323.357442 
L -456.483463 324.590655 
L -471.03519 320.566113 
L -473.693489 317.420345 
L -481.624655 314.318766 
L -483.219634 311.793268 
L -492.341196 310.198517 
z
" clip-path="url(#p6a22815555)" style="fill: #e8edf4; stroke: #b8c5d4; stroke-width: 0.45"/>
    <path d="M -266.426762 76.771052 
L -256.893607 77.047798 
L -243.546004 74.026279 
L -231.08225 74.538033 
L -230.4 73.373538 
L -223.626107 77.48033 
L -223.349893 82.027362 
L -227.387077 88.615385 
L -241.99745 89.524224 
L -251.522895 88.107087 
L -251.339106 82.937354 
L -265.864674 83.619249 
z
" clip-path="url(#p6a22815555)" style="fill: #e8edf4; stroke: #b8c5d4; stroke-width: 0.45"/>
    <path d="M -208.545187 106.867701 
L -208.408036 102.462159 
L -203.778108 98.696121 
L -194.986258 96.281442 
L -176.521954 96.590547 
L -159.594472 98.746494 
L -172.835138 106.63759 
L -183.401019 108.358959 
L -192.907244 114.982039 
L -203.016566 114.651641 
z
" clip-path="url(#p6a22815555)" style="fill: #e8edf4; stroke: #b8c5d4; stroke-width: 0.45"/>
    <path d="M -292.36244 50.496644 
L -274.967179 51.703984 
L -251.004477 54.937447 
L -244.2257 59.152946 
L -240.776322 62.850066 
L -255.247224 61.862534 
L -269.832151 58.989235 
L -289.560807 58.66044 
L -281.00319 56.027784 
L -291.718128 53.892902 
z
" clip-path="url(#p6a22815555)" style="fill: #e8edf4; stroke: #b8c5d4; stroke-width: 0.45"/>
    <path d="M -446.2221 78.721097 
L -431.180621 72.092979 
L -412.982598 66.353251 
L -399.390697 66.476435 
L -387.236706 65.174074 
L -388.452746 71.982617 
L -395.278233 75.056949 
L -403.558114 75.489924 
L -420.030876 79.282294 
L -434.215341 80.639835 
z
" clip-path="url(#p6a22815555)" style="fill: #e8edf4; stroke: #b8c5d4; stroke-width: 0.45"/>
    <path d="M -538.246873 276.027351 
L -537.71819 273.201448 
L -533.553301 274.353148 
L -525.046062 273.644269 
L -527.70001 283.705508 
L -519.986592 290.831857 
L -523.520459 290.814684 
L -528.860412 286.76198 
L -532.135318 282.682944 
L -536.607016 279.922984 
z
" clip-path="url(#p6a22815555)" style="fill: #e8edf4; stroke: #b8c5d4; stroke-width: 0.45"/>
    <path d="M -74.22512 103.385945 
L -73.851044 100.195786 
L -69.590174 99.606175 
L -49.30948 100.561343 
L -34.028308 105.428515 
L -33.243209 107.876953 
L -52.209262 107.431483 
L -61.908939 108.622942 
L -64.475075 108.085051 
z
" clip-path="url(#p6a22815555)" style="fill: #e8edf4; stroke: #b8c5d4; stroke-width: 0.45"/>
    <path d="M 71.843948 339.153497 
L 75.191394 336.419358 
L 78.296123 340.726065 
L 84.722511 341.914752 
L 92.939106 341.673098 
L 88.580736 345.304113 
L 85.298245 345.881974 
L 74.057649 342.120517 
z
" clip-path="url(#p6a22815555)" style="fill: #e8edf4; stroke: #b8c5d4; stroke-width: 0.45"/>
    <path d="M -41.971791 154.29631 
L -38.207941 149.329684 
L -30.086784 148.101031 
L -23.168492 150.554348 
L -23.069509 154.3501 
L -24.067673 155.570954 
L -29.826875 158.188564 
L -39.760571 158.632793 
z
" clip-path="url(#p6a22815555)" style="fill: #e8edf4; stroke: #b8c5d4; stroke-width: 0.45"/>
    <path d="M -241.896971 138.239731 
L -234.098817 135.492654 
L -227.903361 131.651089 
L -213.185586 135.7585 
L -205.124067 140.830313 
L -210.634526 143.937612 
L -222.578817 141.252654 
L -229.795654 142.221486 
z
" clip-path="url(#p6a22815555)" style="fill: #e8edf4; stroke: #b8c5d4; stroke-width: 0.45"/>
    <path d="M 70.722875 311.278907 
L 73.788081 310.533297 
L 85.440384 312.755505 
L 94.503124 316.458388 
L 94.76259 318.084391 
L 90.448128 318.242924 
L 78.962865 315.464655 
z
" clip-path="url(#p6a22815555)" style="fill: #e8edf4; stroke: #b8c5d4; stroke-width: 0.45"/>
    <path d="M -215.520876 89.256754 
L -210.803482 85.267245 
L -198.06265 82.880042 
L -190.325877 85.988031 
L -187.091498 88.79264 
L -191.91353 92.227822 
L -204.778462 91.567483 
z
" clip-path="url(#p6a22815555)" style="fill: #e8edf4; stroke: #b8c5d4; stroke-width: 0.45"/>
    <path d="M -231.569585 54.304126 
L -214.931288 55.244491 
L -204.340678 58.323859 
L -206.742306 61.526182 
L -219.853377 63.354708 
L -227.070625 61.296529 
L -230.86849 57.971251 
z
" clip-path="url(#p6a22815555)" style="fill: #e8edf4; stroke: #b8c5d4; stroke-width: 0.45"/>
    <path d="M -69.670745 203.669258 
L -65.835825 200.398375 
L -62.208177 200.592354 
L -59.955574 202.40928 
L -63.426639 207.06686 
L -67.343793 206.313452 
z
" clip-path="url(#p6a22815555)" style="fill: #e8edf4; stroke: #b8c5d4; stroke-width: 0.45"/>
    <path d="M -101.851599 199.80288 
L -95.265792 195.715141 
L -83.094558 195.799414 
L -83.282954 197.516603 
L -93.65379 202.40445 
L -99.910479 202.199838 
z
" clip-path="url(#p6a22815555)" style="fill: #e8edf4; stroke: #b8c5d4; stroke-width: 0.45"/>
    <path d="M -363.626841 64.403831 
L -356.451723 61.578387 
L -343.512605 60.675343 
L -331.017912 62.063337 
L -333.964251 64.715684 
L -350.484402 67.265911 
z
" clip-path="url(#p6a22815555)" style="fill: #e8edf4; stroke: #b8c5d4; stroke-width: 0.45"/>
    <path d="M -212.112483 63.496209 
L -194.267762 63.625804 
L -188.047662 65.271156 
L -189.105258 66.284332 
L -209.74955 65.973167 
z
" clip-path="url(#p6a22815555)" style="fill: #e8edf4; stroke: #b8c5d4; stroke-width: 0.45"/>
    <path d="M -305.191385 102.262154 
L -302.178462 101.021538 
L -290.304 100.667077 
L -283.569231 102.616615 
L -291.367385 108.465231 
z
" clip-path="url(#p6a22815555)" style="fill: #e8edf4; stroke: #b8c5d4; stroke-width: 0.45"/>
    <path d="M -354.834533 58.416132 
L -354.690971 57.152009 
L -345.600092 54.498518 
L -329.322645 56.696366 
L -340.117492 58.424833 
z
" clip-path="url(#p6a22815555)" style="fill: #e8edf4; stroke: #b8c5d4; stroke-width: 0.45"/>
    <path d="M -7.062646 61.639178 
L -5.843121 58.196293 
L 60.163643 49.674594 
L 63.591286 46.450944 
L 39.673285 43.269031 
L 47.397799 39.736734 
L 78.0768 33.550139 
L 90.968655 32.600714 
L 87.275874 28.619047 
L 108.265935 26.286602 
L 135.515609 24.894366 
L 162.747294 24.815675 
L 172.416473 27.574183 
L 195.92321 22.695906 
L 217.073487 26.010299 
L 229.515264 26.709164 
L 247.919262 29.591335 
L 226.849182 24.814169 
L 228.062415 21.019924 
L 257.813701 15.727813 
L 288.908042 16.126405 
L 300.209959 12.857649 
L 331.529029 12.006233 
L 402.30977 13.11809 
L 457.739313 20.145024 
L 441.377103 23.557071 
L 359.778462 24.812308 
L 364.240601 26.393738 
L 395.608674 25.416842 
L 422.301223 28.472389 
L 439.503242 25.758986 
L 446.871877 28.937442 
L 437.143148 34.092908 
L 459.704448 30.797214 
L 502.731205 27.360443 
L 529.298097 29.076037 
L 534.275003 32.862661 
L 498.14846 39.167646 
L 493.144615 41.206154 
L 464.821012 42.738491 
L 485.34336 43.16349 
L 474.978462 49.624615 
L 467.845012 55.373273 
L 468.123796 65.233418 
L 478.763668 71.019471 
L 464.92035 71.385541 
L 450.348347 74.189243 
L 466.701164 78.884706 
L 468.784601 86.414356 
L 459.309666 87.234314 
L 470.788638 94.857364 
L 451.103527 95.493534 
L 461.380076 99.097433 
L 458.475264 102.223518 
L 445.981647 103.595372 
L 433.631143 103.621248 
L 444.733056 109.623611 
L 444.853307 113.568679 
L 427.318095 109.901863 
L 422.75777 112.27392 
L 434.720847 114.489659 
L 446.330791 119.905654 
L 449.69153 127.041762 
L 433.896103 128.749292 
L 416.107628 120.242747 
L 419.138806 126.256896 
L 408.846927 130.916293 
L 444.414838 131.775862 
L 396.577152 146.477154 
L 370.645278 149.538196 
L 360.871532 149.575857 
L 351.705157 152.990297 
L 339.379554 162.345689 
L 320.319449 168.556209 
L 314.196657 168.921482 
L 289.66402 173.167931 
L 282.071719 178.648881 
L 281.949253 184.860377 
L 277.466289 190.678508 
L 263.015956 197.768891 
L 266.584674 204.693297 
L 258.062178 220.672512 
L 245.575385 221.212711 
L 232.494513 213.977088 
L 214.777639 213.931451 
L 206.180706 209.071961 
L 200.267313 200.418225 
L 184.911508 189.398459 
L 180.419682 183.625078 
L 179.210526 175.664935 
L 166.936674 167.486887 
L 170.127271 160.956554 
L 164.212194 157.83295 
L 172.973686 147.477356 
L 186.310656 144.180953 
L 189.810521 140.474791 
L 191.664266 133.55136 
L 176.717509 138.008182 
L 168.756569 139.271262 
L 157.882841 136.378811 
L 157.292219 130.359257 
L 160.758587 125.644962 
L 168.977886 125.517002 
L 187.065836 127.87395 
L 163.901066 119.212593 
L 155.076923 120.458995 
L 147.680374 118.262193 
L 157.574193 110.004923 
L 152.185049 106.705241 
L 134.485986 91.182927 
L 123.20383 87.741548 
L 123.30689 84.031577 
L 99.527394 78.846602 
L 80.713994 78.201305 
L 35.40734 79.209659 
L 25.123791 76.388677 
L 9.724918 70.816364 
L 32.994078 68.028967 
L 50.83005 67.560812 
L 12.911882 65.256812 
z
" clip-path="url(#p6a22815555)" style="fill: #e8edf4; stroke: #b8c5d4; stroke-width: 0.45"/>
    <path d="M 554.049209 294.021816 
L 561.234173 284.768828 
L 556.606306 275.759002 
L 575.360481 264.679778 
L 577.187175 269.427625 
L 575.360481 274.176387 
L 580.840791 274.054577 
L 587.538743 275.88127 
L 589.000006 282.211961 
L 582.301825 290.125724 
L 566.592444 295.361269 
z
" clip-path="url(#p6a22815555)" style="fill: #e8edf4; stroke: #b8c5d4; stroke-width: 0.45"/>
    <path d="M 587.963247 250.028222 
L 591.181369 240.866821 
L 598.065242 233.678651 
L 605.141218 234.380204 
L 615.832572 233.634461 
L 606.361151 243.222426 
L 615.389523 242.008447 
L 625.099298 242.054698 
L 622.789028 249.274923 
L 614.822373 257.216849 
L 623.985148 257.782167 
L 632.581003 269.169351 
L 638.646779 270.592605 
L 646.626256 284.189543 
L 657.362488 285.877483 
L 656.285431 291.544629 
L 651.77113 294.143168 
L 655.309576 298.727532 
L 647.338342 303.368222 
L 635.482922 303.286252 
L 620.39633 305.722912 
L 616.264403 303.978417 
L 610.405383 308.130264 
L 602.20793 307.124644 
L 595.982564 310.508309 
L 591.272268 308.738857 
L 604.268398 299.431375 
L 612.200708 297.517216 
L 598.292377 296.033285 
L 595.785195 292.506974 
L 605.045052 289.760294 
L 600.191881 284.987033 
L 601.8757 279.182736 
L 615.045439 279.984318 
L 616.364232 274.840618 
L 610.294105 269.257732 
L 599.534748 267.698471 
L 597.422533 265.300277 
L 600.642945 261.340304 
L 597.728661 258.898836 
L 592.957461 263.08892 
L 592.438165 254.54756 
z
" clip-path="url(#p6a22815555)" style="fill: #e8edf4; stroke: #b8c5d4; stroke-width: 0.45"/>
    <path d="M 575.360481 274.176387 
L 577.187175 269.427625 
L 575.360481 264.679778 
L 582.789294 264.314348 
L 592.287963 269.793055 
L 587.538743 275.88127 
L 580.840791 274.054577 
z
" clip-path="url(#p6a22815555)" style="fill: #e8edf4; stroke: #b8c5d4; stroke-width: 0.45"/>
    <path d="M 426.894123 171.814692 
L 432.881593 166.042908 
L 446.312072 164.731847 
L 460.124009 170.743129 
L 473.588604 165.918122 
L 484.738349 168.4237 
L 499.189789 163.701041 
L 513.892176 164.329324 
L 511.845675 170.064015 
L 521.858373 176.108269 
L 510.337473 182.865982 
L 477.138498 190.555129 
L 440.746587 186.445184 
L 449.470663 182.528943 
L 430.182995 178.195526 
L 445.873601 176.477821 
L 445.492372 173.875847 
z
" clip-path="url(#p6a22815555)" style="fill: #e8edf4; stroke: #b8c5d4; stroke-width: 0.45"/>
   </g>
   <g id="PatchCollection_2">
    <defs>
     <path id="m9e98fa1b0f" d="M -7.062646 -230.791591 
L -5.843121 -234.234476 
L 60.163643 -242.756175 
L 63.591286 -245.979825 
L 39.673285 -249.161738 
L 47.397799 -252.694036 
L 78.0768 -258.88063 
L 90.968655 -259.830055 
L 87.275874 -263.811722 
L 108.265935 -266.144167 
L 135.515609 -267.536404 
L 162.747294 -267.615094 
L 172.416473 -264.856586 
L 195.92321 -269.734863 
L 217.073487 -266.42047 
L 229.515264 -265.721605 
L 247.919262 -262.839434 
L 226.849182 -267.616601 
L 228.062415 -271.410846 
L 257.813701 -276.702956 
L 288.908042 -276.304364 
L 300.209959 -279.57312 
L 331.529029 -280.424537 
L 402.30977 -279.312679 
L 457.739313 -272.285745 
L 441.377103 -268.873698 
L 359.778462 -267.618462 
L 364.240601 -266.037031 
L 395.608674 -267.013927 
L 422.301223 -263.95838 
L 439.503242 -266.671783 
L 446.871877 -263.493327 
L 437.143148 -258.337861 
L 459.704448 -261.633556 
L 502.731205 -265.070326 
L 529.298097 -263.354732 
L 534.275003 -259.568108 
L 498.14846 -253.263124 
L 493.144615 -251.224615 
L 464.821012 -249.692278 
L 485.34336 -249.267279 
L 474.978462 -242.806154 
L 467.845012 -237.057497 
L 468.123796 -227.197351 
L 478.763668 -221.411298 
L 464.92035 -221.045228 
L 450.348347 -218.241526 
L 466.701164 -213.546063 
L 468.784601 -206.016414 
L 459.309666 -205.196455 
L 470.788638 -197.573406 
L 451.103527 -196.937236 
L 461.380076 -193.333337 
L 458.475264 -190.207252 
L 445.981647 -188.835397 
L 433.631143 -188.809521 
L 444.733056 -182.807158 
L 444.853307 -178.86209 
L 427.318095 -182.528906 
L 422.75777 -180.156849 
L 434.720847 -177.94111 
L 446.330791 -172.525115 
L 449.69153 -165.389007 
L 433.896103 -163.681477 
L 416.107628 -172.188022 
L 419.138806 -166.173873 
L 408.846927 -161.514476 
L 444.414838 -160.654907 
L 396.577152 -145.953615 
L 370.645278 -142.892574 
L 360.871532 -142.854912 
L 351.705157 -139.440473 
L 339.379554 -130.085081 
L 320.319449 -123.87456 
L 314.196657 -123.509287 
L 289.66402 -119.262838 
L 282.071719 -113.781888 
L 281.949253 -107.570393 
L 277.466289 -101.752261 
L 263.015956 -94.661878 
L 266.584674 -87.737472 
L 258.062178 -71.758257 
L 245.575385 -71.218058 
L 232.494513 -78.453681 
L 214.777639 -78.499318 
L 206.180706 -83.358809 
L 200.267313 -92.012544 
L 184.911508 -103.03231 
L 180.419682 -108.805691 
L 179.210526 -116.765834 
L 166.936674 -124.943882 
L 170.127271 -131.474215 
L 164.212194 -134.597819 
L 172.973686 -144.953413 
L 186.310656 -148.249817 
L 189.810521 -151.955978 
L 191.664266 -158.879409 
L 176.717509 -154.422587 
L 168.756569 -153.159508 
L 157.882841 -156.051958 
L 157.292219 -162.071513 
L 160.758587 -166.785807 
L 168.977886 -166.913767 
L 187.065836 -164.55682 
L 163.901066 -173.218176 
L 155.076923 -171.971774 
L 147.680374 -174.168576 
L 157.574193 -182.425846 
L 152.185049 -185.725529 
L 134.485986 -201.247842 
L 123.20383 -204.689221 
L 123.30689 -208.399193 
L 99.527394 -213.584167 
L 80.713994 -214.229465 
L 35.40734 -213.22111 
L 25.123791 -216.042092 
L 9.724918 -221.614405 
L 32.994078 -224.401802 
L 50.83005 -224.869957 
L 12.911882 -227.173957 
z
" style="stroke: #b45309; stroke-width: 1.15"/>
    </defs>
    <g clip-path="url(#p6a22815555)">
     <use xlink:href="#m9e98fa1b0f" x="0" y="292.430769" style="fill: #f59e0b; stroke: #b45309; stroke-width: 1.15"/>
    </g>
   </g>
   <g id="PathCollection_1">
    <path d="M 288 119.335215 
C 289.096672 119.335215 290.148574 118.899502 290.924038 118.124038 
C 291.699502 117.348574 292.135215 116.296672 292.135215 115.2 
C 292.135215 114.103328 291.699502 113.051426 290.924038 112.275962 
C 290.148574 111.500498 289.096672 111.064785 288 111.064785 
C 286.903328 111.064785 285.851426 111.500498 285.075962 112.275962 
C 284.300498 113.051426 283.864785 114.103328 283.864785 115.2 
C 283.864785 116.296672 284.300498 117.348574 285.075962 118.124038 
C 285.851426 118.899502 286.903328 119.335215 288 119.335215 
L 288 119.335215 
z
" clip-path="url(#p6a22815555)" style="fill: none; stroke: #7c2d12; stroke-width: 1.1"/>
   </g>
  </g>
 </g>
 <defs>
  <clipPath id="p6a22815555">
   <rect x="0" y="0" width="576" height="292.430769"/>
  </clipPath>
 </defs>
</svg>
