<?xml version="1.0" encoding="utf-8" standalone="no"?>
<!DOCTYPE svg PUBLIC "-//W3C//DTD SVG 1.1//EN"
  "http://www.w3.org/Graphics/SVG/1.1/DTD/svg11.dtd">
<svg xmlns:xlink="http://www.w3.org/1999/xlink" width="576pt" height="384pt" viewBox="0 0 576 384" xmlns="http://www.w3.org/2000/svg" version="1.1">
 <metadata>
  <rdf:RDF xmlns:dc="http://purl.org/dc/elements/1.1/" xmlns:cc="http://creativecommons.org/ns#" xmlns:rdf="http://www.w3.org/1999/02/22-rdf-syntax-ns#">
   <cc:Work>
    <dc:type rdf:resource="http://purl.org/dc/dcmitype/StillImage"/>
    <dc:date>2026-06-09T04:57:00.238885</dc:date>
    <dc:format>image/svg+xml</dc:format>
    <dc:creator>
     <cc:Agent>
      <dc:title>Matplotlib v3.10.8, https://matplotlib.org/</dc:title>
     </cc:Agent>
    </dc:creator>
   </cc:Work>
  </rdf:RDF>
 </metadata>
 <defs>
  <style type="text/css">*{stroke-linejoin: round; stroke-linecap: butt}</style>
 </defs>
 <g id="figure_1">
  <g id="patch_1">
   <path d="M 0 384 
L 576 384 
L 576 0 
L 0 0 
z
" style="fill: #eaf3ff"/>
  </g>
  <g id="axes_1">
   <g id="PatchCollection_1">
    <path d="M 122.558767 13.717685 
L 123.14841 7.922602 
L 154.272623 6.848913 
L 155.920009 1.907111 
L 161.538271 -4.253665 
L 166.064772 -23.190981 
L 185.129654 -37.990166 
L 191.578165 -55.280451 
L 195.864415 -56.284686 
L 200.330676 -66.972672 
L 211.868399 -68.445361 
L 216.830754 -66.664385 
L 223.058148 -66.664385 
L 227.478343 -69.784815 
L 235.955877 -70.226692 
L 235.641211 -77.573841 
L 237.729057 -77.573841 
L 237.431401 -53.225914 
L 192.419398 -53.943124 
L 192.860921 -18.851578 
L 180.010676 -17.620557 
L 176.657082 -10.576734 
L 179.258031 9.228746 
L 125.55163 9.142992 
z
" clip-path="url(#p44f8f06cb4)" style="fill: #e8edf4; stroke: #b8c5d4; stroke-width: 0.45"/>
    <path d="M 523.643477 381.119047 
L 527.131725 379.670453 
L 527.5612 373.691815 
L 529.804961 370.166006 
L 534.795665 367.283701 
L 538.398723 368.680559 
L 543.088935 363.43047 
L 550.559398 363.565833 
L 551.438192 367.448121 
L 556.561423 369.877563 
L 576.086256 350.196106 
L 575.627015 338.912808 
L 581.582975 325.589856 
L 587.867065 318.525481 
L 596.89668 311.915386 
L 598.472841 307.540548 
L 598.814437 302.510866 
L 601.049694 297.75191 
L 600.331775 289.979538 
L 602.041172 277.826304 
L 604.721496 269.270105 
L 608.829152 261.936776 
L 610.875185 244.089803 
L 616.214571 237.126773 
L 623.558176 232.710476 
L 634.8436 237.371276 
L 643.578393 242.43037 
L 663.841697 246.457233 
L 667.942266 238.175303 
L 669.826005 237.118269 
L 676.076077 238.495637 
L 691.344426 231.650961 
L 696.754682 234.552047 
L 701.19543 234.140643 
L 703.252093 230.80583 
L 708.349102 229.630797 
L 727.461468 231.389449 
L 731.989387 229.934477 
L 740.296831 241.256045 
L 746.454772 242.919022 
L 750.125865 240.616084 
L 756.467361 241.51862 
L 764.105079 238.617535 
L 767.362288 244.474985 
L 779.435793 253.588581 
L 778.605899 269.624457 
L 784.102618 271.48162 
L 779.693762 276.351134 
L 774.425246 279.993525 
L 769.181535 287.145425 
L 766.296396 293.521648 
L 765.524615 304.529968 
L 762.347489 309.770135 
L 762.232679 320.109438 
L 758.288734 323.932194 
L 757.780592 332.092937 
L 755.896853 333.150325 
L 754.627562 340.65268 
L 758.076122 346.88787 
L 758.948538 363.428344 
L 761.416959 376.045425 
L 760.045614 383.177127 
L 762.789013 391.131636 
L 770.742813 398.811168 
L 778.148784 416.09153 
L 772.746323 414.696089 
L 754.325653 417.010721 
L 750.649599 418.649957 
L 746.741089 427.404594 
L 749.810492 433.452685 
L 745.676613 463.455727 
L 758.9698 471.233059 
L 762.733734 468.739125 
L 763.880419 483.52768 
L 753.384493 483.414287 
L 742.698633 470.022591 
L 732.189242 468.106251 
L 729.112043 460.919979 
L 720.728059 465.24946 
L 709.74596 463.336664 
L 705.162763 457.109979 
L 696.4549 455.84494 
L 690.027651 456.175905 
L 689.240988 451.913043 
L 678.26456 450.75927 
L 660.415106 453.734415 
L 661.148617 437.414348 
L 656.573923 432.325135 
L 655.567562 423.890833 
L 657.588081 415.623785 
L 654.808538 410.332591 
L 654.556948 401.703394 
L 637.916546 401.823165 
L 639.110715 396.882072 
L 632.113667 396.933807 
L 631.374487 399.310096 
L 622.868605 399.845877 
L 617.372595 411.267373 
L 609.794409 409.330481 
L 605.269325 411.259577 
L 596.200731 412.368701 
L 587.796903 400.762942 
L 580.478103 382.319594 
L 540.008192 382.138165 
L 525.564777 385.372697 
z
" clip-path="url(#p44f8f06cb4)" style="fill: #e8edf4; stroke: #b8c5d4; stroke-width: 0.45"/>
    <path d="M 542.268254 104.679309 
L 548.18976 86.614354 
L 565.68317 73.682663 
L 566.40605 55.845258 
L 571.690157 28.015816 
L 574.673098 22.112655 
L 568.966602 17.411458 
L 568.745966 13.049829 
L 563.614459 9.483171 
L 560.2464 -11.834743 
L 574.091657 -19.333303 
L 683.487909 33.182126 
L 684.163063 87.622766 
L 672.337234 86.664411 
L 666.074743 96.764023 
L 662.448137 105.232183 
L 665.307703 108.436389 
L 660.799406 112.64256 
L 662.353097 118.322469 
L 658.801234 124.039406 
L 657.419109 129.076389 
L 662.235566 128.282743 
L 665.110217 133.573851 
L 665.262034 141.540206 
L 670.302446 145.582491 
L 670.137127 148.904295 
L 661.455486 151.242669 
L 654.498125 156.794666 
L 644.583338 171.757917 
L 631.675687 178.111461 
L 618.43211 177.259242 
L 614.564705 178.520029 
L 615.922584 183.34773 
L 602.947606 193.496036 
L 585.682127 198.742937 
L 582.256245 195.63739 
L 579.984844 195.369499 
L 577.456892 198.89708 
L 566.118315 199.927892 
L 568.266401 196.212858 
L 562.011368 181.081999 
L 556.038399 178.753902 
L 547.943566 170.749784 
L 550.922964 164.278241 
L 557.173036 165.655964 
L 561.042567 164.679368 
L 568.702255 164.813668 
L 561.237461 152.34754 
L 561.739225 143.237842 
L 560.823223 134.138743 
L 555.370798 125.356851 
L 556.742143 118.897002 
L 547.94711 118.581274 
L 547.977584 109.759664 
z
" clip-path="url(#p44f8f06cb4)" style="fill: #e8edf4; stroke: #b8c5d4; stroke-width: 0.45"/>
    <path d="M 114.856557 99.709159 
L 120.889057 97.104312 
L 127.53317 87.476196 
L 130.791797 80.43379 
L 135.487679 76.036628 
L 142.304007 77.22052 
L 148.995603 74.231555 
L 156.653519 74.080956 
L 163.206563 78.112426 
L 172.309883 81.745604 
L 189.658282 101.254845 
L 190.287258 109.786594 
L 192.991323 117.640113 
L 198.12483 121.491927 
L 199.297383 126.795169 
L 198.665927 131.067599 
L 196.686158 131.841151 
L 189.208254 130.756832 
L 188.179214 132.281966 
L 185.155877 132.588481 
L 175.298494 129.245163 
L 143.335173 128.527953 
L 139.65841 130.072222 
L 135.117026 129.630699 
L 127.852088 131.864892 
L 125.601948 121.352312 
L 138.085084 121.641818 
L 148.921189 116.440983 
L 154.804152 119.33888 
L 160.762947 119.580548 
L 166.697646 116.502286 
L 163.926962 112.538497 
L 159.405067 114.847814 
L 155.149292 114.783676 
L 149.7362 111.408112 
L 145.388293 111.629228 
L 142.29125 114.876516 
L 127.354576 115.269139 
L 121.699108 104.591784 
z
" clip-path="url(#p44f8f06cb4)" style="fill: #e8edf4; stroke: #b8c5d4; stroke-width: 0.45"/>
    <path d="M 189.658282 101.254845 
L 194.273725 98.755241 
L 196.579498 90.676 
L 200.926697 90.359918 
L 210.503432 94.179485 
L 218.237534 91.467624 
L 223.539359 92.377956 
L 225.59673 89.328043 
L 280.625221 89.119683 
L 283.676197 79.517434 
L 281.300263 77.827172 
L 268.062355 -40.547529 
L 289.051373 -40.794159 
L 381.575692 19.051756 
L 384.836446 25.477942 
L 399.725637 31.630922 
L 399.882969 40.356148 
L 415.096038 39.013506 
L 415.134309 70.598023 
L 407.635497 79.758394 
L 406.467551 88.208642 
L 394.285614 90.383659 
L 375.572958 91.562591 
L 370.502171 96.436357 
L 352.9199 97.038048 
L 349.496853 94.40698 
L 341.947015 96.359108 
L 329.128661 102.047886 
L 326.512121 106.334845 
L 315.871619 112.48251 
L 314.006306 116.005484 
L 308.258706 118.797783 
L 301.626641 116.948771 
L 297.868731 120.295632 
L 295.856008 129.700861 
L 284.969939 141.067077 
L 285.28673 145.712286 
L 281.546538 151.525442 
L 282.454744 159.487038 
L 273.593801 163.249909 
L 271.471228 157.384309 
L 267.511337 158.930704 
L 265.145678 158.663168 
L 262.621624 162.665227 
L 252.030731 162.552189 
L 248.234197 160.493045 
L 246.446488 161.738949 
L 242.257685 157.785437 
L 242.984816 153.701522 
L 241.271167 152.10162 
L 238.349883 153.45064 
L 238.884956 148.988631 
L 241.69639 145.45857 
L 236.076356 139.71345 
L 234.442082 135.931089 
L 231.394649 132.918029 
L 228.649833 132.558361 
L 217.162782 139.28114 
L 211.29293 138.185481 
L 207.485765 134.703257 
L 205.212947 134.245788 
L 199.458259 136.089131 
L 198.665927 131.067599 
L 199.297383 126.795169 
L 198.12483 121.491927 
L 192.991323 117.640113 
L 190.287258 109.786594 
z
" clip-path="url(#p44f8f06cb4)" style="fill: #e8edf4; stroke: #b8c5d4; stroke-width: 0.45"/>
    <path d="M 122.558767 13.717685 
L 125.55163 9.142992 
L 179.258031 9.228746 
L 176.657082 -10.576734 
L 180.010676 -17.620557 
L 192.860921 -18.851578 
L 192.419398 -53.943124 
L 237.431401 -53.225914 
L 237.471089 -73.998777 
L 289.051373 -40.794159 
L 268.062355 -40.547529 
L 281.300263 77.827172 
L 283.676197 79.517434 
L 280.625221 89.119683 
L 225.59673 89.328043 
L 223.539359 92.377956 
L 218.237534 91.467624 
L 210.503432 94.179485 
L 200.926697 90.359918 
L 196.579498 90.676 
L 194.273725 98.755241 
L 189.658282 101.254845 
L 172.309883 81.745604 
L 163.206563 78.112426 
L 156.653519 74.080956 
L 148.995603 74.231555 
L 142.304007 77.22052 
L 135.487679 76.036628 
L 130.791797 80.43379 
L 129.604007 73.043765 
L 133.432434 66.281653 
L 135.135807 53.369396 
L 131.963642 32.999078 
L 133.332506 26.159717 
L 129.787562 19.64069 
z
" clip-path="url(#p44f8f06cb4)" style="fill: #e8edf4; stroke: #b8c5d4; stroke-width: 0.45"/>
    <path d="M 367.16346 158.11463 
L 368.908293 150.893631 
L 373.624727 149.341567 
L 376.418444 143.345565 
L 383.122088 142.064226 
L 390.722244 133.946714 
L 395.638533 133.911279 
L 406.096189 141.803422 
L 405.561825 146.359689 
L 408.646111 154.494918 
L 405.943817 160.015732 
L 407.388868 163.704544 
L 396.511658 176.39852 
L 393.926301 185.048977 
L 393.486195 215.879078 
L 382.15187 217.47898 
L 378.77418 208.017764 
L 379.39855 176.522189 
L 376.636016 173.696581 
L 376.115118 166.966006 
z
" clip-path="url(#p44f8f06cb4)" style="fill: #e8edf4; stroke: #b8c5d4; stroke-width: 0.45"/>
    <path d="M 360.626008 103.621921 
L 361.712807 96.974973 
L 370.502171 96.436357 
L 375.572958 91.562591 
L 394.285614 90.383659 
L 406.467551 88.208642 
L 407.635497 79.758394 
L 415.134309 70.598023 
L 415.096038 39.013506 
L 434.43519 32.897733 
L 474.142534 5.956653 
L 521.136077 -20.182881 
L 542.830966 -14.269798 
L 550.544515 -6.737677 
L 560.2464 -11.834743 
L 563.614459 9.483171 
L 568.745966 13.049829 
L 568.966602 17.411458 
L 574.673098 22.112655 
L 571.690157 28.015816 
L 566.40605 55.845258 
L 565.68317 73.682663 
L 548.18976 86.614354 
L 542.268254 104.679309 
L 547.977584 109.759664 
L 547.94711 118.581274 
L 556.742143 118.897002 
L 555.370798 125.356851 
L 551.49985 126.143514 
L 551.058326 130.509848 
L 548.507696 130.812819 
L 539.227908 115.798542 
L 536.008968 115.252839 
L 525.285547 122.91855 
L 514.667015 118.916846 
L 507.285849 118.116717 
L 503.328438 120.04227 
L 495.288884 119.62626 
L 487.199013 125.470598 
L 480.2048 125.805816 
L 463.60692 118.717345 
L 457.107383 122.08405 
L 450.108918 121.850177 
L 444.965843 116.670604 
L 431.219085 111.553043 
L 416.48014 113.177395 
L 412.908974 116.143327 
L 410.979878 124.030509 
L 407.048689 129.560183 
L 406.096189 141.803422 
L 395.638533 133.911279 
L 390.722244 133.946714 
L 386.118494 137.963656 
L 386.428907 128.571184 
L 370.616273 125.460677 
L 370.190341 118.824005 
L 362.467579 109.868804 
z
" clip-path="url(#p44f8f06cb4)" style="fill: #e8edf4; stroke: #b8c5d4; stroke-width: 0.45"/>
    <path d="M 393.486195 215.879078 
L 393.926301 185.048977 
L 396.511658 176.39852 
L 407.388868 163.704544 
L 405.943817 160.015732 
L 408.646111 154.494918 
L 405.561825 146.359689 
L 407.048689 129.560183 
L 410.979878 124.030509 
L 412.908974 116.143327 
L 416.48014 113.177395 
L 431.219085 111.553043 
L 444.965843 116.670604 
L 450.108918 121.850177 
L 457.107383 122.08405 
L 463.60692 118.717345 
L 480.2048 125.805816 
L 487.199013 125.470598 
L 495.288884 119.62626 
L 503.328438 120.04227 
L 507.285849 118.116717 
L 514.667015 118.916846 
L 525.285547 122.91855 
L 536.008968 115.252839 
L 539.227908 115.798542 
L 548.507696 130.812819 
L 551.058326 130.509848 
L 556.487009 135.972194 
L 554.268053 143.007512 
L 542.714738 153.619666 
L 537.155653 169.499982 
L 534.246418 172.556274 
L 531.478923 182.156396 
L 524.144532 187.805841 
L 522.019833 194.745484 
L 518.939091 200.269134 
L 517.656334 205.969605 
L 508.234805 210.590718 
L 500.53543 204.955093 
L 495.336368 205.182588 
L 487.168538 213.209385 
L 483.197662 213.332699 
L 473.146803 236.269948 
L 458.908912 241.205372 
L 453.70418 240.484265 
L 448.430704 243.557565 
L 437.460653 243.257783 
L 430.118466 234.679259 
L 425.603304 224.752423 
L 415.894041 215.716784 
z
" clip-path="url(#p44f8f06cb4)" style="fill: #e8edf4; stroke: #b8c5d4; stroke-width: 0.45"/>
    <path d="M 472.98947 240.060105 
L 473.146803 236.269948 
L 476.674738 226.564583 
L 483.197662 213.332699 
L 487.168538 213.209385 
L 495.336368 205.182588 
L 500.53543 204.955093 
L 508.234805 210.590718 
L 517.656334 205.969605 
L 518.939091 200.269134 
L 522.019833 194.745484 
L 524.144532 187.805841 
L 531.478923 182.156396 
L 534.246418 172.556274 
L 537.155653 169.499982 
L 542.714738 153.619666 
L 554.268053 143.007512 
L 556.487009 135.972194 
L 551.058326 130.509848 
L 551.49985 126.143514 
L 555.370798 125.356851 
L 560.823223 134.138743 
L 561.739225 143.237842 
L 561.237461 152.34754 
L 568.702255 164.813668 
L 561.042567 164.679368 
L 557.173036 165.655964 
L 550.922964 164.278241 
L 547.943566 170.749784 
L 556.038399 178.753902 
L 562.011368 181.081999 
L 568.266401 196.212858 
L 559.221195 213.826313 
L 555.929967 216.315995 
L 554.87187 226.947284 
L 556.236836 232.723232 
L 555.131965 236.809982 
L 561.613075 243.971804 
L 562.782439 248.895534 
L 567.84543 255.97302 
L 574.117473 260.385774 
L 576.176262 270.615227 
L 575.189744 278.02049 
L 553.204286 271.160576 
L 534.189721 269.874985 
L 526.071502 271.641433 
L 517.737127 269.804468 
L 511.219872 270.705587 
L 488.90274 270.392694 
L 490.905542 259.564739 
L 485.545603 250.497917 
L 479.288444 248.171946 
L 476.501814 242.026762 
z
" clip-path="url(#p44f8f06cb4)" style="fill: #e8edf4; stroke: #b8c5d4; stroke-width: 0.45"/>
    <path d="M 355.888667 154.876555 
L 356.897863 150.600936 
L 368.908293 150.893631 
L 367.16346 158.11463 
L 376.115118 166.966006 
L 376.636016 173.696581 
L 379.39855 176.522189 
L 378.77418 208.017764 
L 382.15187 217.47898 
L 371.11024 220.404516 
L 364.39384 206.888796 
L 363.30456 200.067507 
L 366.336401 187.714773 
L 362.896345 182.712376 
L 361.612526 161.949081 
z
" clip-path="url(#p44f8f06cb4)" style="fill: #e8edf4; stroke: #b8c5d4; stroke-width: 0.45"/>
    <path d="M 312.07721 215.993534 
L 315.653692 200.506904 
L 321.43283 188.987962 
L 315.923709 159.149694 
L 316.245815 151.368818 
L 340.068237 150.722479 
L 346.126959 151.722108 
L 350.55495 149.508467 
L 356.897863 150.600936 
L 355.888667 154.876555 
L 361.612526 161.949081 
L 362.896345 182.712376 
L 366.336401 187.714773 
L 363.30456 200.067507 
L 364.39384 206.888796 
L 371.11024 220.404516 
L 349.609537 228.432376 
L 341.984576 233.135344 
L 329.626881 237.113662 
L 317.401714 233.218617 
L 318.024666 227.807298 
z
" clip-path="url(#p44f8f06cb4)" style="fill: #e8edf4; stroke: #b8c5d4; stroke-width: 0.45"/>
    <path d="M 238.589071 213.016262 
L 241.570949 206.923877 
L 240.199604 200.294293 
L 240.832478 196.305699 
L 243.007495 196.290107 
L 243.815419 190.308634 
L 242.755904 187.660202 
L 244.066301 185.753785 
L 249.159766 184.104627 
L 245.772154 173.126073 
L 242.610974 167.457847 
L 243.711948 162.802007 
L 248.234197 160.493045 
L 252.030731 162.552189 
L 262.621624 162.665227 
L 265.145678 158.663168 
L 267.511337 158.930704 
L 271.471228 157.384309 
L 273.593801 163.249909 
L 282.454744 159.487038 
L 288.621898 162.477066 
L 291.018739 167.01278 
L 297.185185 169.90855 
L 301.982411 166.459281 
L 308.408243 165.938383 
L 317.794336 169.474823 
L 321.43283 188.987962 
L 315.653692 200.506904 
L 312.07721 215.993534 
L 318.024666 227.807298 
L 317.401714 233.218617 
L 311.162272 233.358232 
L 301.593332 230.676846 
L 292.801133 230.835241 
L 276.55548 233.229248 
L 253.454521 242.217758 
L 250.804671 241.857381 
L 251.857807 230.56239 
L 253.169621 228.845551 
L 252.752194 223.442027 
L 246.943644 217.69797 
L 242.587233 216.78126 
z
" clip-path="url(#p44f8f06cb4)" style="fill: #e8edf4; stroke: #b8c5d4; stroke-width: 0.45"/>
    <path d="M 149.070017 150.302925 
L 155.167718 143.618416 
L 159.329945 143.872842 
L 162.906426 141.570967 
L 165.931889 141.548997 
L 168.093795 139.731168 
L 166.926557 135.186594 
L 168.428658 133.752884 
L 168.679186 129.103776 
L 175.298494 129.245163 
L 185.155877 132.588481 
L 188.179214 132.281966 
L 189.208254 130.756832 
L 196.686158 131.841151 
L 198.665927 131.067599 
L 199.458259 136.089131 
L 205.212947 134.245788 
L 207.485765 134.703257 
L 211.29293 138.185481 
L 217.162782 139.28114 
L 228.649833 132.558361 
L 231.394649 132.918029 
L 234.442082 135.931089 
L 236.076356 139.71345 
L 241.69639 145.45857 
L 238.884956 148.988631 
L 238.349883 153.45064 
L 241.271167 152.10162 
L 242.984816 153.701522 
L 242.257685 157.785437 
L 246.446488 161.738949 
L 243.711948 162.802007 
L 242.610974 167.457847 
L 245.772154 173.126073 
L 249.159766 184.104627 
L 244.066301 185.753785 
L 242.755904 187.660202 
L 243.815419 190.308634 
L 243.007495 196.290107 
L 236.953734 195.954181 
L 234.156828 201.476059 
L 230.279501 201.409086 
L 227.611225 198.488157 
L 228.517305 192.980099 
L 222.783879 184.579814 
L 212.496312 187.215135 
L 212.649392 182.186871 
L 210.448862 178.598696 
L 210.892866 174.611519 
L 204.103114 163.942314 
L 193.134481 163.927077 
L 189.93822 166.511017 
L 186.158695 166.822847 
L 182.236011 173.585668 
L 174.904454 179.615333 
L 163.555955 166.132568 
L 156.621273 161.630163 
L 155.064247 155.570732 
L 153.057548 152.549876 
z
" clip-path="url(#p44f8f06cb4)" style="fill: #e8edf4; stroke: #b8c5d4; stroke-width: 0.45"/>
    <path d="M 127.852088 131.864892 
L 135.117026 129.630699 
L 139.65841 130.072222 
L 143.335173 128.527953 
L 168.679186 129.103776 
L 168.428658 133.752884 
L 166.926557 135.186594 
L 168.093795 139.731168 
L 165.931889 141.548997 
L 162.906426 141.570967 
L 159.329945 143.872842 
L 155.167718 143.618416 
L 149.070017 150.302925 
L 141.748382 144.569499 
L 135.974205 143.662711 
L 132.825782 139.796368 
L 132.905865 137.709231 
L 128.724504 134.798933 
z
" clip-path="url(#p44f8f06cb4)" style="fill: #e8edf4; stroke: #b8c5d4; stroke-width: 0.45"/>
    <path d="M 199.696739 208.650283 
L 202.974147 204.262688 
L 203.702341 200.27374 
L 216.273003 186.429181 
L 222.783879 184.579814 
L 228.517305 192.980099 
L 227.611225 198.488157 
L 230.279501 201.409086 
L 234.156828 201.476059 
L 236.953734 195.954181 
L 240.832478 196.305699 
L 240.199604 200.294293 
L 241.570949 206.923877 
L 238.589071 213.016262 
L 242.587233 216.78126 
L 246.943644 217.69797 
L 252.752194 223.442027 
L 253.169621 228.845551 
L 251.857807 230.56239 
L 250.804671 241.857381 
L 247.212244 241.978216 
L 233.077115 235.441117 
L 220.615949 225.002596 
L 208.931878 217.498824 
z
" clip-path="url(#p44f8f06cb4)" style="fill: #e8edf4; stroke: #b8c5d4; stroke-width: 0.45"/>
    <path d="M 174.904454 179.615333 
L 182.236011 173.585668 
L 186.158695 166.822847 
L 189.93822 166.511017 
L 193.134481 163.927077 
L 204.103114 163.942314 
L 210.892866 174.611519 
L 210.448862 178.598696 
L 212.649392 182.186871 
L 212.496312 187.215135 
L 216.273003 186.429181 
L 203.702341 200.27374 
L 202.974147 204.262688 
L 199.696739 208.650283 
L 196.001903 207.632937 
L 186.128929 202.108224 
L 178.98447 194.76143 
L 176.584794 189.751592 
z
" clip-path="url(#p44f8f06cb4)" style="fill: #e8edf4; stroke: #b8c5d4; stroke-width: 0.45"/>
    <path d="M 281.546538 151.525442 
L 285.28673 145.712286 
L 284.969939 141.067077 
L 295.856008 129.700861 
L 297.868731 120.295632 
L 301.626641 116.948771 
L 308.258706 118.797783 
L 314.006306 116.005484 
L 315.871619 112.48251 
L 326.512121 106.334845 
L 329.128661 102.047886 
L 341.947015 96.359108 
L 349.496853 94.40698 
L 352.9199 97.038048 
L 361.712807 96.974973 
L 360.626008 103.621921 
L 362.467579 109.868804 
L 370.190341 118.824005 
L 370.616273 125.460677 
L 386.428907 128.571184 
L 386.118494 137.963656 
L 383.122088 142.064226 
L 376.418444 143.345565 
L 373.624727 149.341567 
L 368.908293 150.893631 
L 350.55495 149.508467 
L 346.126959 151.722108 
L 340.068237 150.722479 
L 316.245815 151.368818 
L 315.923709 159.149694 
L 317.794336 169.474823 
L 308.408243 165.938383 
L 301.982411 166.459281 
L 297.185185 169.90855 
L 291.018739 167.01278 
L 288.621898 162.477066 
L 282.454744 159.487038 
z
" clip-path="url(#p44f8f06cb4)" style="fill: #e8edf4; stroke: #b8c5d4; stroke-width: 0.45"/>
    <path d="M 554.87187 226.947284 
L 555.929967 216.315995 
L 559.221195 213.826313 
L 566.118315 199.927892 
L 577.456892 198.89708 
L 579.984844 195.369499 
L 582.256245 195.63739 
L 585.682127 198.742937 
L 602.947606 193.496036 
L 615.922584 183.34773 
L 614.564705 178.520029 
L 618.43211 177.259242 
L 631.675687 178.111461 
L 644.583338 171.757917 
L 654.498125 156.794666 
L 661.455486 151.242669 
L 670.137127 148.904295 
L 671.692026 154.773084 
L 679.601887 163.347356 
L 679.642283 168.943294 
L 677.414113 174.650498 
L 678.295034 178.912652 
L 701.004788 194.398573 
L 701.130938 198.855975 
L 710.354029 205.997953 
L 716.069738 211.932298 
L 719.532473 220.159304 
L 729.783896 225.586924 
L 731.989387 229.934477 
L 727.461468 231.389449 
L 708.349102 229.630797 
L 703.252093 230.80583 
L 701.19543 234.140643 
L 696.754682 234.552047 
L 691.344426 231.650961 
L 676.076077 238.495637 
L 669.826005 237.118269 
L 667.942266 238.175303 
L 663.841697 246.457233 
L 643.578393 242.43037 
L 634.8436 237.371276 
L 623.558176 232.710476 
L 616.214571 237.126773 
L 610.875185 244.089803 
L 609.642037 253.654136 
L 600.82149 252.888735 
L 591.538868 250.584733 
L 583.365369 257.852507 
L 576.176262 270.615227 
L 574.117473 260.385774 
L 567.84543 255.97302 
L 562.782439 248.895534 
L 561.613075 243.971804 
L 555.131965 236.809982 
L 556.236836 232.723232 
z
" clip-path="url(#p44f8f06cb4)" style="fill: #e8edf4; stroke: #b8c5d4; stroke-width: 0.45"/>
    <path d="M 508.714599 356.28105 
L 519.155955 348.711368 
L 513.984532 339.642775 
L 518.6875 336.194214 
L 527.941066 334.514583 
L 529.032473 328.436726 
L 536.360486 335.022725 
L 548.4673 335.599611 
L 552.674883 329.119209 
L 554.40625 320.001006 
L 552.910882 309.293177 
L 546.422685 301.182752 
L 552.360218 285.299248 
L 548.937171 282.573567 
L 538.733231 283.691196 
L 534.899844 276.604851 
L 535.896993 270.622669 
L 553.204286 271.160576 
L 575.189744 278.02049 
L 576.176262 270.615227 
L 583.365369 257.852507 
L 591.538868 250.584733 
L 600.82149 252.888735 
L 609.642037 253.654136 
L 608.829152 261.936776 
L 604.721496 269.270105 
L 602.041172 277.826304 
L 600.331775 289.979538 
L 601.049694 297.75191 
L 598.814437 302.510866 
L 598.472841 307.540548 
L 596.89668 311.915386 
L 587.867065 318.525481 
L 581.582975 325.589856 
L 575.627015 338.912808 
L 576.086256 350.196106 
L 556.561423 369.877563 
L 551.438192 367.448121 
L 550.559398 363.565833 
L 543.088935 363.43047 
L 538.398723 368.680559 
L 534.795665 367.283701 
L 529.656133 362.578606 
L 525.512333 364.885442 
L 519.976636 370.806675 
z
" clip-path="url(#p44f8f06cb4)" style="fill: #e8edf4; stroke: #b8c5d4; stroke-width: 0.45"/>
    <path d="M 477.229654 316.95499 
L 477.669761 312.398723 
L 480.664041 308.013963 
L 486.759615 287.861218 
L 511.338226 287.209209 
L 511.219872 270.705587 
L 517.737127 269.804468 
L 526.071502 271.641433 
L 534.189721 269.874985 
L 535.896993 270.622669 
L 534.899844 276.604851 
L 538.733231 283.691196 
L 548.937171 282.573567 
L 552.360218 285.299248 
L 546.422685 301.182752 
L 552.910882 309.293177 
L 554.40625 320.001006 
L 552.674883 329.119209 
L 548.4673 335.599611 
L 536.360486 335.022725 
L 529.032473 328.436726 
L 527.941066 334.514583 
L 518.6875 336.194214 
L 513.984532 339.642775 
L 519.155955 348.711368 
L 508.714599 356.28105 
L 494.621284 342.438617 
L 485.557651 331.12201 
z
" clip-path="url(#p44f8f06cb4)" style="fill: #e8edf4; stroke: #b8c5d4; stroke-width: 0.45"/>
    <path d="M 484.191267 285.793216 
L 488.90274 270.392694 
L 511.219872 270.705587 
L 511.338226 287.209209 
L 486.759615 287.861218 
z
" clip-path="url(#p44f8f06cb4)" style="fill: #e8edf4; stroke: #b8c5d4; stroke-width: 0.45"/>
    <path d="M 516.207032 530.374521 
L 518.105653 518.315191 
L 522.837679 505.759767 
L 523.551345 499.873969 
L 528.001306 487.511313 
L 531.270564 481.891279 
L 543.548176 466.815699 
L 544.988265 456.656408 
L 544.270346 448.883327 
L 540.169069 443.980504 
L 533.147925 427.432233 
L 533.884269 424.581821 
L 538.099649 419.144633 
L 531.130949 396.714817 
L 524.260759 388.038137 
L 525.564777 385.372697 
L 540.008192 382.138165 
L 580.478103 382.319594 
L 587.796903 400.762942 
L 596.200731 412.368701 
L 605.269325 411.259577 
L 609.794409 409.330481 
L 617.372595 411.267373 
L 622.868605 399.845877 
L 631.374487 399.310096 
L 632.113667 396.933807 
L 639.110715 396.882072 
L 637.916546 401.823165 
L 654.556948 401.703394 
L 654.808538 410.332591 
L 657.588081 415.623785 
L 655.567562 423.890833 
L 656.573923 432.325135 
L 661.148617 437.414348 
L 660.415106 453.734415 
L 678.26456 450.75927 
L 684.51038 451.567903 
L 685.959682 455.825805 
L 684.399822 462.477005 
L 686.810129 468.909214 
L 684.766931 474.045911 
L 685.935586 478.780063 
L 657.379013 478.607139 
L 656.747556 522.244254 
L 665.999705 533.464477 
L 674.949236 542.031307 
L 649.74413 547.620158 
L 616.541993 545.679014 
L 607.039671 539.107898 
L 551.447406 539.699666 
L 549.373734 540.663506 
L 541.198109 534.462334 
L 532.3074 534.052702 
L 517.497584 538.997339 
z
" clip-path="url(#p44f8f06cb4)" style="fill: #e8edf4; stroke: #b8c5d4; stroke-width: 0.45"/>
    <path d="M 519.976636 370.806675 
L 525.512333 364.885442 
L 529.656133 362.578606 
L 534.795665 367.283701 
L 529.804961 370.166006 
L 527.5612 373.691815 
L 527.131725 379.670453 
L 523.643477 381.119047 
z
" clip-path="url(#p44f8f06cb4)" style="fill: #e8edf4; stroke: #b8c5d4; stroke-width: 0.45"/>
    <path d="M 125.601948 121.352312 
L 127.354576 115.269139 
L 142.29125 114.876516 
L 145.388293 111.629228 
L 149.7362 111.408112 
L 155.149292 114.783676 
L 159.405067 114.847814 
L 163.926962 112.538497 
L 166.697646 116.502286 
L 160.762947 119.580548 
L 154.804152 119.33888 
L 148.921189 116.440983 
L 138.085084 121.641818 
z
" clip-path="url(#p44f8f06cb4)" style="fill: #e8edf4; stroke: #b8c5d4; stroke-width: 0.45"/>
    <path d="M 237.471089 -73.998777 
L 237.612121 -93.823392 
L 259.759163 -103.943704 
L 273.454186 -106.034739 
L 284.67937 -109.720361 
L 289.924853 -116.587716 
L 305.959666 -122.015336 
L 306.5486 -132.168604 
L 314.482556 -133.364544 
L 320.686563 -138.436748 
L 338.634526 -140.748191 
L 341.149013 -146.078009 
L 337.535324 -148.992206 
L 332.798338 -163.470347 
L 331.981909 -171.811455 
L 326.812612 -180.595149 
L 339.996303 -188.089354 
L 354.823483 -190.473085 
L 363.481736 -196.131743 
L 376.689169 -200.306017 
L 422.616111 -203.863364 
L 429.533075 -201.826544 
L 442.447813 -207.23184 
L 457.102422 -207.337792 
L 462.679934 -204.146846 
L 472.05894 -204.979575 
L 469.273019 -197.940713 
L 471.447327 -184.866871 
L 468.219175 -173.556288 
L 459.76432 -165.906876 
L 460.973371 -155.576433 
L 472.189342 -147.405769 
L 472.307696 -144.086193 
L 480.762551 -138.551204 
L 486.612205 -113.932197 
L 491.0487 -101.823612 
L 491.794258 -95.451288 
L 489.37899 -84.262956 
L 490.369761 -78.010403 
L 488.627054 -70.504505 
L 489.823349 -61.881687 
L 484.380492 -56.150741 
L 492.489498 -46.154806 
L 493.004727 -40.278221 
L 497.881329 -32.630582 
L 504.292986 -35.143297 
L 515.117752 -28.771327 
L 521.136077 -20.182881 
L 474.142534 5.956653 
L 434.43519 32.897733 
L 415.096038 39.013506 
L 399.882969 40.356148 
L 399.725637 31.630922 
L 384.836446 25.477942 
L 381.575692 19.051756 
z
" clip-path="url(#p44f8f06cb4)" style="fill: #e8edf4; stroke: #b8c5d4; stroke-width: 0.45"/>
    <path d="M 123.14841 7.922602 
L 123.795458 1.566932 
L 129.063265 -2.170071 
L 133.550787 -9.316656 
L 132.666323 -13.957967 
L 137.38134 -23.63463 
L 145.014805 -32.353832 
L 149.632021 -34.563576 
L 153.262009 -42.562733 
L 153.587305 -49.868777 
L 158.537966 -58.34631 
L 167.673533 -63.344809 
L 176.366513 -77.350599 
L 183.513098 -82.809402 
L 196.26625 -84.324259 
L 207.07259 -93.697951 
L 213.948449 -97.352036 
L 225.396875 -108.803297 
L 221.969576 -125.866087 
L 227.179978 -137.665322 
L 229.019069 -144.88703 
L 237.840324 -154.151935 
L 261.770824 -166.086533 
L 275.245793 -188.708408 
L 285.341301 -188.642499 
L 293.609057 -182.821193 
L 306.650653 -183.769441 
L 320.855235 -180.741851 
L 326.812612 -180.595149 
L 331.981909 -171.811455 
L 332.798338 -163.470347 
L 337.535324 -148.992206 
L 341.149013 -146.078009 
L 338.634526 -140.748191 
L 320.686563 -138.436748 
L 314.482556 -133.364544 
L 306.5486 -132.168604 
L 305.959666 -122.015336 
L 289.924853 -116.587716 
L 284.67937 -109.720361 
L 273.454186 -106.034739 
L 259.759163 -103.943704 
L 237.612121 -93.823392 
L 237.729057 -77.573841 
L 235.641211 -77.573841 
L 235.955877 -70.226692 
L 227.478343 -69.784815 
L 223.058148 -66.664385 
L 216.830754 -66.664385 
L 211.868399 -68.445361 
L 200.330676 -66.972672 
L 195.864415 -56.284686 
L 191.578165 -55.280451 
L 185.129654 -37.990166 
L 166.064772 -23.190981 
L 161.538271 -4.253665 
L 155.920009 1.907111 
L 154.272623 6.848913 
z
" clip-path="url(#p44f8f06cb4)" style="fill: #e8edf4; stroke: #b8c5d4; stroke-width: 0.45"/>
   </g>
   <g id="PathCollection_1">
    <defs>
     <path id="m88c74b3c09" d="M 0 2.12132 
C 0.562581 2.12132 1.102195 1.897805 1.5 1.5 
C 1.897805 1.102195 2.12132 0.562581 2.12132 0 
C 2.12132 -0.562581 1.897805 -1.102195 1.5 -1.5 
C 1.102195 -1.897805 0.562581 -2.12132 0 -2.12132 
C -0.562581 -2.12132 -1.102195 -1.897805 -1.5 -1.5 
C -1.897805 -1.102195 -2.12132 -0.562581 -2.12132 0 
C -2.12132 0.562581 -1.897805 1.102195 -1.5 1.5 
C -1.102195 1.897805 -0.562581 2.12132 0 2.12132 
z
" style="stroke: #ffffff; stroke-width: 0.5"/>
    </defs>
    <g clip-path="url(#p44f8f06cb4)">
     <use xlink:href="#m88c74b3c09" x="27.428571" y="82.285714" style="fill: #8aa0b7; stroke: #ffffff; stroke-width: 0.5"/>
     <use xlink:href="#m88c74b3c09" x="129.371429" y="117.028572" style="fill: #8aa0b7; stroke: #ffffff; stroke-width: 0.5"/>
     <use xlink:href="#m88c74b3c09" x="493.714286" y="274.285714" style="fill: #8aa0b7; stroke: #ffffff; stroke-width: 0.5"/>
     <use xlink:href="#m88c74b3c09" x="150.857143" y="137.142857" style="fill: #8aa0b7; stroke: #ffffff; stroke-width: 0.5"/>
     <use xlink:href="#m88c74b3c09" x="452.571429" y="288" style="fill: #8aa0b7; stroke: #ffffff; stroke-width: 0.5"/>
     <use xlink:href="#m88c74b3c09" x="372.571428" y="192" style="fill: #8aa0b7; stroke: #ffffff; stroke-width: 0.5"/>
    </g>
   </g>
   <g id="PatchCollection_2">
    <defs>
     <path id="m21cff727bc" d="M 238.589071 -170.983738 
L 241.570949 -177.076123 
L 240.199604 -183.705707 
L 240.832478 -187.694301 
L 243.007495 -187.709893 
L 243.815419 -193.691366 
L 242.755904 -196.339798 
L 244.066301 -198.246215 
L 249.159766 -199.895373 
L 245.772154 -210.873927 
L 242.610974 -216.542153 
L 243.711948 -221.197993 
L 248.234197 -223.506955 
L 252.030731 -221.447811 
L 262.621624 -221.334773 
L 265.145678 -225.336832 
L 267.511337 -225.069296 
L 271.471228 -226.615691 
L 273.593801 -220.750091 
L 282.454744 -224.512962 
L 288.621898 -221.522934 
L 291.018739 -216.98722 
L 297.185185 -214.09145 
L 301.982411 -217.540719 
L 308.408243 -218.061617 
L 317.794336 -214.525177 
L 321.43283 -195.012038 
L 315.653692 -183.493096 
L 312.07721 -168.006466 
L 318.024666 -156.192702 
L 317.401714 -150.781383 
L 311.162272 -150.641768 
L 301.593332 -153.323154 
L 292.801133 -153.164759 
L 276.55548 -150.770752 
L 253.454521 -141.782242 
L 250.804671 -142.142619 
L 251.857807 -153.43761 
L 253.169621 -155.154449 
L 252.752194 -160.557973 
L 246.943644 -166.30203 
L 242.587233 -167.21874 
z
" style="stroke: #b45309; stroke-width: 1.15"/>
    </defs>
    <g clip-path="url(#p44f8f06cb4)">
     <use xlink:href="#m21cff727bc" x="0" y="384" style="fill: #f59e0b; stroke: #b45309; stroke-width: 1.15"/>
    </g>
   </g>
   <g id="PathCollection_2">
    <defs>
     <path id="m60e483983f" d="M 0 3.316625 
C 0.879579 3.316625 1.723251 2.967164 2.345208 2.345208 
C 2.967164 1.723251 3.316625 0.879579 3.316625 0 
C 3.316625 -0.879579 2.967164 -1.723251 2.345208 -2.345208 
C 1.723251 -2.967164 0.879579 -3.316625 0 -3.316625 
C -0.879579 -3.316625 -1.723251 -2.967164 -2.345208 -2.345208 
C -2.967164 -1.723251 -3.316625 -0.879579 -3.316625 0 
C -3.316625 0.879579 -2.967164 1.723251 -2.345208 2.345208 
C -1.723251 2.967164 -0.879579 3.316625 0 3.316625 
z
" style="stroke: #ffffff"/>
    </defs>
    <g clip-path="url(#p44f8f06cb4)">
     <use xlink:href="#m60e483983f" x="288" y="192" style="fill: #f97316; stroke: #ffffff"/>
    </g>
   </g>
   <g id="PathCollection_3">
    <path d="M 288 196.449719 
C 289.180079 196.449719 290.311984 195.980869 291.146427 195.146427 
C 291.980869 194.311984 292.449719 193.180079 292.449719 192 
C 292.449719 190.819921 291.980869 189.688016 291.146427 188.853573 
C 290.311984 188.019131 289.180079 187.550281 288 187.550281 
C 286.819921 187.550281 285.688016 188.019131 284.853573 188.853573 
C 284.019131 189.688016 283.550281 190.819921 283.550281 192 
C 283.550281 193.180079 284.019131 194.311984 284.853573 195.146427 
C 285.688016 195.980869 286.819921 196.449719 288 196.449719 
L 288 196.449719 
z
" clip-path="url(#p44f8f06cb4)" style="fill: none; stroke: #7c2d12; stroke-width: 1.1"/>
   </g>
  </g>
 </g>
 <defs>
  <clipPath id="p44f8f06cb4">
   <rect x="0" y="-0" width="576" height="384"/>
  </clipPath>
 </defs>
</svg>
