<?xml version="1.0" encoding="utf-8" standalone="no"?>
<!DOCTYPE svg PUBLIC "-//W3C//DTD SVG 1.1//EN"
  "http://www.w3.org/Graphics/SVG/1.1/DTD/svg11.dtd">
<svg xmlns:xlink="http://www.w3.org/1999/xlink" width="471.829787pt" height="432pt" viewBox="0 0 471.829787 432" xmlns="http://www.w3.org/2000/svg" version="1.1">
 <metadata>
  <rdf:RDF xmlns:dc="http://purl.org/dc/elements/1.1/" xmlns:cc="http://creativecommons.org/ns#" xmlns:rdf="http://www.w3.org/1999/02/22-rdf-syntax-ns#">
   <cc:Work>
    <dc:type rdf:resource="http://purl.org/dc/dcmitype/StillImage"/>
    <dc:date>2026-06-09T04:56:58.888106</dc:date>
    <dc:format>image/svg+xml</dc:format>
    <dc:creator>
     <cc:Agent>
      <dc:title>Matplotlib v3.10.8, https://matplotlib.org/</dc:title>
     </cc:Agent>
    </dc:creator>
   </cc:Work>
  </rdf:RDF>
 </metadata>
 <defs>
  <style type="text/css">*{stroke-linejoin: round; stroke-linecap: butt}</style>
 </defs>
 <g id="figure_1">
  <g id="patch_1">
   <path d="M 0 432 
L 471.829787 432 
L 471.829787 0 
L 0 0 
z
" style="fill: #eaf3ff"/>
  </g>
  <g id="axes_1">
   <g id="PatchCollection_1">
    <path d="M -452.558912 -122.450902 
L -450.846339 -125.212336 
L -430.397381 -120.408511 
L -422.865451 -107.05964 
L -419.367594 -110.792799 
L -421.630114 -122.388216 
L -426.43797 -133.983633 
L -35.008773 -133.983633 
L -34.966641 -139.417218 
L -30.179855 -139.485093 
L -27.66874 -131.721113 
L -23.272945 -129.327649 
L 1.036989 -126.206219 
L 14.753519 -121.822586 
L 26.207529 -123.660884 
L 43.600655 -119.984288 
L 48.225848 -120.122984 
L 60.87904 -124.126363 
L 110.400442 -104.289231 
L 111.769855 -100.570476 
L 115.099854 -99.178775 
L 114.235129 -97.77765 
L 118.027679 -97.34169 
L 120.779194 -98.804634 
L 121.490025 -95.456001 
L 124.333531 -93.21481 
L 128.217068 -93.21481 
L 130.289823 -91.486236 
L 128.546268 -88.972113 
L 143.279887 -82.334768 
L 149.12401 -57.214724 
L 144.989853 -48.856301 
L 135.232733 -36.129624 
L 134.921641 -34.654475 
L 136.508086 -32.633969 
L 141.311995 -30.404105 
L 144.858659 -30.404105 
L 161.283584 -37.954148 
L 175.852786 -40.176705 
L 194.3501 -47.210478 
L 193.351228 -52.957119 
L 191.065042 -55.733507 
L 197.448088 -57.978351 
L 224.318994 -58.030599 
L 228.844517 -63.540892 
L 245.555918 -74.825087 
L 251.936367 -77.427409 
L 299.476729 -77.536576 
L 300.891653 -81.026514 
L 311.426514 -83.925368 
L 316.446481 -90.359411 
L 320.759835 -101.361906 
L 331.545751 -112.034088 
L 336.243535 -108.318167 
L 345.725759 -110.720115 
L 352.00397 -106.640508 
L 351.991526 -87.358884 
L 361.238589 -79.3654 
L 363.681404 -74.729637 
L 348.581059 -67.878442 
L 319.11668 -58.812098 
L 309.236253 -47.234357 
L 309.09329 -39.735516 
L 313.759738 -32.240917 
L 319.628151 -31.887398 
L 318.143372 -37.048773 
L 322.386022 -33.907121 
L 321.253913 -29.867674 
L 311.709329 -27.574468 
L 304.916253 -27.849506 
L 294.457611 -25.382651 
L 280.084525 -23.977768 
L 268.297218 -19.883346 
L 289.066307 -22.547148 
L 293.255647 -19.867758 
L 273.458593 -15.625532 
L 264.450933 -15.59725 
L 264.87056 -17.333028 
L 260.566327 -13.412645 
L 264.727526 -12.763868 
L 261.673972 -2.605575 
L 251.384312 8.278845 
L 250.332664 4.646651 
L 247.227213 3.910625 
L 242.588622 0.37473 
L 245.530606 7.989525 
L 249.039849 10.506124 
L 249.253442 15.850087 
L 236.760087 32.638413 
L 235.472712 32.076884 
L 239.845316 22.454809 
L 232.621937 17.050708 
L 230.96563 5.302782 
L 228.240354 11.417032 
L 231.25792 20.387289 
L 221.915578 18.170984 
L 231.64976 22.724968 
L 232.256115 36.18053 
L 236.313663 37.158222 
L 239.76839 56.199028 
L 230.779255 66.694295 
L 216.151283 70.887453 
L 206.856212 79.18157 
L 199.794462 80.088558 
L 192.634716 85.283588 
L 190.614002 90.028659 
L 175.09092 99.206502 
L 167.120414 105.938278 
L 160.455736 114.321058 
L 158.276221 124.368063 
L 160.775034 134.188391 
L 165.493944 146.286088 
L 171.778307 156.295903 
L 171.857283 162.406547 
L 178.552374 178.80982 
L 177.491525 193.844622 
L 173.963831 202.479178 
L 169.73617 204.263175 
L 162.777082 202.548467 
L 160.544681 196.344354 
L 155.171195 193.09198 
L 141.099025 170.112691 
L 138.976356 164.580829 
L 141.878887 155.194763 
L 137.919476 147.417349 
L 126.895487 135.58776 
L 121.374796 133.418003 
L 107.109321 139.835784 
L 104.577844 139.129171 
L 97.715902 132.532651 
L 88.851064 129.03437 
L 72.866923 130.811438 
L 60.31757 129.247895 
L 49.532842 130.222476 
L 43.687887 132.428235 
L 46.234582 136.186904 
L 46.004583 141.921686 
L 49.007089 144.715334 
L 46.312427 146.574418 
L 41.065501 144.488233 
L 35.757769 147.170875 
L 25.497309 146.731027 
L 14.940389 139.258134 
L 2.605764 141.021486 
L -7.678947 137.748609 
L -16.475202 138.740158 
L -28.375777 142.043863 
L -41.247539 152.527392 
L -55.300336 158.624178 
L -63.020622 165.376105 
L -66.272995 171.739444 
L -66.414402 181.496563 
L -65.707365 188.284124 
L -63.020622 193.09198 
L -68.535515 193.516203 
L -89.605237 186.021604 
L -93.564648 179.37545 
L -96.675614 169.476923 
L -105.018658 161.416694 
L -117.00436 143.447898 
L -126.970763 137.811535 
L -138.532242 138.084452 
L -147.440916 149.255646 
L -159.177741 145.013421 
L -166.488086 140.743479 
L -174.695379 125.583743 
L -190.328406 114.894324 
L -195.485397 109.880437 
L -219.982979 109.875718 
L -220.010412 115.71067 
L -259.34532 115.816725 
L -312.958429 98.981311 
L -311.634713 96.216086 
L -345.662596 98.839055 
L -348.040755 91.614762 
L -357.204844 83.483662 
L -363.802952 81.791398 
L -365.348431 77.734807 
L -373.28288 77.024681 
L -378.343016 73.19993 
L -391.478918 71.805188 
L -395.085942 69.522304 
L -396.803619 61.768788 
L -410.523543 47.561998 
L -422.301376 27.903099 
L -421.799945 24.627677 
L -428.038562 19.956703 
L -438.983646 8.107459 
L -440.934646 -3.421921 
L -448.470253 -11.145741 
L -445.370459 -22.86588 
L -445.863123 -34.993273 
L -450.376002 -45.830039 
L -444.85121 -59.156143 
L -441.412038 -84.822033 
L -443.967343 -103.789591 
L -448.436315 -115.885874 
z
" clip-path="url(#padeb6cbeac)" style="fill: #e8edf4; stroke: #b8c5d4; stroke-width: 0.45"/>
    <path d="M -1066.597772 -369.709942 
L -1046.725929 -375.625312 
L -1015.18411 -382.530839 
L -1003.557613 -382.530839 
L -1005.482026 -375.468202 
L -975.63334 -376.018452 
L -987.114785 -384.777876 
L -1004.507945 -390.163092 
L -1014.565901 -397.232671 
L -1028.131061 -403.262768 
L -1047.562631 -407.732727 
L -1039.647581 -415.14466 
L -1014.563343 -415.604297 
L -996.714929 -422.046534 
L -993.348759 -428.932331 
L -978.901591 -435.65298 
L -965.127073 -437.270116 
L -938.321569 -443.547935 
L -925.319813 -442.601622 
L -903.558632 -450.139243 
L -882.163188 -447.169866 
L -871.930585 -440.787185 
L -865.649843 -443.524551 
L -841.751968 -442.676158 
L -842.600361 -439.423983 
L -820.964868 -437.020202 
L -806.54145 -438.434191 
L -776.751954 -433.966059 
L -749.554029 -432.636471 
L -738.665949 -430.79792 
L -719.850761 -433.096108 
L -683.035897 -426.866884 
L -683.20265 -293.8645 
L -669.277119 -293.446358 
L -655.504026 -289.531915 
L -633.069722 -274.047791 
L -619.31388 -281.950916 
L -605.11812 -286.530964 
L -597.611784 -279.217084 
L -575.135906 -267.052077 
L -551.83548 -240.776296 
L -527.795776 -231.778676 
L -527.402946 -222.858265 
L -535.266763 -216.038935 
L -543.040048 -221.358018 
L -555.503612 -225.867072 
L -559.502607 -238.200929 
L -577.732446 -249.639259 
L -585.352641 -262.990677 
L -621.411552 -264.25121 
L -637.983722 -268.320721 
L -667.223699 -282.995515 
L -705.497859 -290.726052 
L -725.074847 -289.520325 
L -752.885124 -296.017002 
L -769.695893 -302.041618 
L -785.391171 -299.048492 
L -782.474773 -289.22547 
L -806.652523 -285.369701 
L -819.101837 -280.597945 
L -834.771904 -277.594589 
L -836.794603 -285.925797 
L -830.435306 -299.795312 
L -815.406832 -304.147621 
L -819.283793 -307.694651 
L -837.309412 -299.815042 
L -846.960343 -290.403794 
L -867.334938 -280.344377 
L -856.988704 -273.47831 
L -870.351448 -263.320242 
L -899.705421 -253.088004 
L -903.208971 -246.826627 
L -925.284372 -239.524671 
L -929.75433 -232.88623 
L -946.299098 -226.841519 
L -956.0052 -227.928865 
L -995.312632 -214.440799 
L -1019.579899 -210.402709 
L -1021.795148 -212.779088 
L -1006.326766 -219.385741 
L -992.492327 -223.749742 
L -977.420739 -231.483933 
L -959.878142 -233.0828 
L -952.906116 -238.88052 
L -933.305379 -247.345455 
L -930.147105 -250.177087 
L -919.706605 -255.169893 
L -917.267383 -265.893191 
L -910.075404 -274.244129 
L -926.380487 -269.958317 
L -930.940693 -272.390232 
L -938.596329 -267.24872 
L -947.831102 -274.420969 
L -951.643757 -269.346685 
L -956.932149 -276.3969 
L -971.069115 -270.736559 
L -979.749985 -270.748251 
L -980.967404 -279.165688 
L -978.410532 -284.351045 
L -987.515598 -289.386599 
L -1005.902569 -286.676271 
L -1017.835613 -293.314346 
L -1027.510294 -296.708285 
L -1027.573138 -304.717601 
L -1038.469257 -310.743313 
L -1032.997814 -318.873933 
L -1021.469236 -326.765599 
L -1016.425644 -334.024075 
L -1004.983294 -335.057347 
L -995.28121 -332.794965 
L -983.874302 -339.617553 
L -973.606623 -338.399769 
L -962.832173 -342.787519 
L -965.459927 -349.245466 
L -973.374977 -351.790646 
L -962.906709 -357.246378 
L -971.591232 -357.085615 
L -986.596322 -354.005895 
L -990.905517 -350.883062 
L -1002.057031 -354.001876 
L -1022.058216 -352.415066 
L -1042.76676 -355.804986 
L -1048.70186 -361.49273 
z
" clip-path="url(#padeb6cbeac)" style="fill: #e8edf4; stroke: #b8c5d4; stroke-width: 0.45"/>
    <path d="M -896.384257 280.298852 
L -893.225354 276.419336 
L -894.200924 273.638416 
L -893.380902 272.319649 
L -882.084986 278.090632 
L -878.481215 283.04541 
L -888.870426 289.058482 
L -890.935824 291.424089 
L -894.449519 289.399133 
L -894.045235 285.446934 
z
" clip-path="url(#padeb6cbeac)" style="fill: #e8edf4; stroke: #b8c5d4; stroke-width: 0.45"/>
    <path d="M -1118.643528 -337.693139 
L -1117.802807 -343.01953 
L -1109.074805 -340.328201 
L -1100.260575 -341.78165 
L -1088.826264 -338.050473 
L -1074.783563 -336.161135 
L -1075.950195 -334.621093 
L -1086.661801 -331.627967 
L -1102.809774 -337.268577 
L -1115.277357 -336.447952 
z
" clip-path="url(#padeb6cbeac)" style="fill: #e8edf4; stroke: #b8c5d4; stroke-width: 0.45"/>
    <path d="M -876.552173 -253.631312 
L -856.157483 -260.811599 
L -846.768888 -259.856517 
L -840.778252 -255.467671 
L -853.012362 -248.747752 
L -867.13581 -243.357787 
L -874.366153 -247.007121 
z
" clip-path="url(#padeb6cbeac)" style="fill: #e8edf4; stroke: #b8c5d4; stroke-width: 0.45"/>
    <path d="M -905.393047 262.993116 
L -904.007678 261.780829 
L -895.283965 265.294099 
L -896.466131 266.991979 
L -901.20597 268.003891 
z
" clip-path="url(#padeb6cbeac)" style="fill: #e8edf4; stroke: #b8c5d4; stroke-width: 0.45"/>
    <path d="M -927.765132 253.768254 
L -923.983188 251.819093 
L -918.717596 257.40172 
L -919.484025 258.218349 
L -925.41805 257.53931 
z
" clip-path="url(#padeb6cbeac)" style="fill: #e8edf4; stroke: #b8c5d4; stroke-width: 0.45"/>
    <path d="M -949.087408 246.892879 
L -946.198311 244.476931 
L -942.938726 244.777281 
L -942.647851 248.071227 
L -944.324944 249.471303 
z
" clip-path="url(#padeb6cbeac)" style="fill: #e8edf4; stroke: #b8c5d4; stroke-width: 0.45"/>
    <path d="M -1057.331577 -292.544873 
L -1043.367797 -294.964365 
L -1032.149055 -293.683737 
L -1030.801929 -288.259062 
L -1039.478779 -286.059523 
z
" clip-path="url(#padeb6cbeac)" style="fill: #e8edf4; stroke: #b8c5d4; stroke-width: 0.45"/>
    <path d="M -914.084802 260.574905 
L -913.025094 258.85242 
L -906.06742 259.456796 
L -906.507056 260.985553 
z
" clip-path="url(#padeb6cbeac)" style="fill: #e8edf4; stroke: #b8c5d4; stroke-width: 0.45"/>
    <path d="M 257.719459 299.535791 
L 258.965377 294.977412 
L 282.650971 298.075765 
L 287.742428 294.927722 
L 281.283385 288.801898 
L 281.390073 283.400606 
L 272.468424 281.195221 
L 275.65337 277.290493 
L 296.545331 280.136009 
L 297.78248 287.837316 
L 296.70171 293.273318 
L 293.254062 295.656273 
L 296.893531 299.901894 
L 296.602695 303.743413 
L 287.210812 301.339997 
L 280.537295 302.320655 
L 271.909405 301.298345 
L 265.293252 303.941445 
z
" clip-path="url(#padeb6cbeac)" style="fill: #e8edf4; stroke: #b8c5d4; stroke-width: 0.45"/>
    <path d="M 293.254062 295.656273 
L 296.70171 293.273318 
L 297.78248 287.837316 
L 296.545331 280.136009 
L 298.313731 277.725651 
L 309.351979 277.791052 
L 317.728128 281.430886 
L 321.454921 281.075745 
L 324.022389 286.091935 
L 331.759137 285.809868 
L 331.303519 290.024066 
L 337.595222 290.534856 
L 344.544959 295.722771 
L 339.29347 301.478839 
L 332.567705 298.403138 
L 321.424961 298.323122 
L 318.875396 300.902282 
L 313.446701 301.773694 
L 311.295027 298.343218 
L 306.619363 300.373223 
L 300.959388 310.056308 
L 297.318823 307.807809 
L 296.893531 299.901894 
z
" clip-path="url(#padeb6cbeac)" style="fill: #e8edf4; stroke: #b8c5d4; stroke-width: 0.45"/>
    <path d="M 201.857173 211.395205 
L 204.934343 202.420635 
L 209.188871 202.990507 
L 214.138134 214.727332 
L 214.213646 222.932504 
L 210.744354 223.636007 
L 207.151895 215.488812 
z
" clip-path="url(#padeb6cbeac)" style="fill: #e8edf4; stroke: #b8c5d4; stroke-width: 0.45"/>
    <path d="M 210.602946 176.5473 
L 221.774141 182.910638 
L 219.334154 192.962168 
L 216.734235 191.149748 
L 216.966285 183.759083 
L 210.630945 178.171224 
z
" clip-path="url(#padeb6cbeac)" style="fill: #e8edf4; stroke: #b8c5d4; stroke-width: 0.45"/>
    <path d="M 193.77545 180.082488 
L 200.421604 178.951227 
L 209.754501 179.37545 
L 210.178724 183.052046 
L 194.765303 185.314566 
z
" clip-path="url(#padeb6cbeac)" style="fill: #e8edf4; stroke: #b8c5d4; stroke-width: 0.45"/>
    <path d="M -345.662596 98.839055 
L -311.634713 96.216086 
L -312.958429 98.981311 
L -259.34532 115.816725 
L -220.010412 115.71067 
L -219.982979 109.875718 
L -195.485397 109.880437 
L -190.328406 114.894324 
L -174.695379 125.583743 
L -166.488086 140.743479 
L -159.177741 145.013421 
L -147.440916 149.255646 
L -138.532242 138.084452 
L -126.970763 137.811535 
L -117.00436 143.447898 
L -105.018658 161.416694 
L -96.675614 169.476923 
L -93.564648 179.37545 
L -89.605237 186.021604 
L -68.535515 193.516203 
L -63.020739 193.092016 
L -68.508259 205.505524 
L -70.981095 215.684053 
L -72.014732 234.629313 
L -73.376838 241.535206 
L -70.925924 249.249301 
L -66.541097 256.145329 
L -63.718234 267.112695 
L -54.332197 277.640519 
L -51.031063 285.70866 
L -45.498602 292.67082 
L -30.483647 296.422458 
L -24.638794 302.338193 
L -12.236247 298.386331 
L -1.453394 296.958093 
L 18.035539 291.991228 
L 27.029532 286.221276 
L 30.398991 277.973007 
L 31.560143 266.093308 
L 34.004481 261.959491 
L 43.581972 258.256447 
L 58.53518 254.976504 
L 71.056107 255.469026 
L 79.632845 254.271337 
L 83.025323 257.269578 
L 82.54559 264.080474 
L 74.946586 272.486584 
L 71.584435 281.096206 
L 74.190632 283.558812 
L 68.528099 300.705712 
L 64.943802 297.073916 
L 59.295153 297.495555 
L 54.229638 306.031372 
L 51.662901 304.358334 
L 49.951134 305.009427 
L 50.061842 307.090219 
L 23.782108 306.959051 
L 23.771512 314.919407 
L 17.384812 314.954482 
L 27.878657 322.939684 
L 29.447929 326.004057 
L 31.738445 326.86195 
L 31.376361 331.677551 
L 13.226881 331.719934 
L 6.4211 343.246319 
L 8.429549 345.888688 
L 6.789029 349.204438 
L 6.442291 353.323274 
L -9.560995 338.099326 
L -16.853451 333.507333 
L -28.399201 329.81927 
L -36.297809 330.846695 
L -47.655027 336.166875 
L -54.782701 337.560768 
L -75.365923 331.143743 
L -88.582518 324.656931 
L -99.184147 322.67552 
L -115.192913 316.101385 
L -127.022923 309.342736 
L -130.592605 305.566253 
L -138.505828 304.72261 
L -152.969803 300.246439 
L -158.859962 293.794338 
L -174.05395 285.768581 
L -181.138875 276.85095 
L -184.50943 269.959672 
L -179.791749 268.579298 
L -181.24666 264.546689 
L -177.995581 260.878721 
L -177.925795 255.988584 
L -182.69609 249.638787 
L -183.972333 244.011696 
L -188.713764 236.875253 
L -201.175501 222.819034 
L -215.39358 211.773112 
L -222.272435 202.957786 
L -234.409357 197.184181 
L -237.009708 193.729955 
L -234.854014 184.990261 
L -242.063166 181.69205 
L -250.410085 174.820502 
L -253.935193 164.953636 
L -261.541503 163.80308 
L -276.379619 149.47612 
L -276.996001 145.058043 
L -284.600485 134.392109 
L -289.609367 123.563584 
L -289.395259 118.132332 
L -299.622017 112.523509 
L -304.342986 113.139526 
L -312.413319 109.243931 
L -314.679355 114.98575 
L -312.339514 121.771435 
L -310.963159 132.390237 
L -293.289392 151.28946 
L -291.138814 152.298982 
L -289.273225 157.156235 
L -286.759832 156.959665 
L -283.921624 166.080077 
L -279.627409 169.677528 
L -276.616014 174.684583 
L -267.729075 181.880947 
L -263.03697 195.035064 
L -254.910736 207.854865 
L -254.13359 215.312835 
L -247.315021 215.780145 
L -236.514995 228.5192 
L -236.858444 231.051592 
L -242.809255 236.245718 
L -245.31461 236.177758 
L -249.043229 227.581655 
L -258.297367 219.521553 
L -275.726334 209.093475 
L -275.259023 198.746511 
L -277.404487 191.083933 
L -293.863757 180.390961 
L -295.731172 182.211243 
L -299.297567 178.526103 
L -308.019723 175.103665 
L -316.35422 166.893029 
L -315.323506 165.825778 
L -309.499114 166.627769 
L -304.252374 161.345954 
L -303.724777 154.966927 
L -314.610666 144.879377 
L -322.908625 140.964052 
L -339.918145 111.560023 
z
" clip-path="url(#padeb6cbeac)" style="fill: #e8edf4; stroke: #b8c5d4; stroke-width: 0.45"/>
    <path d="M 193.620818 534.996013 
L 198.896787 533.934973 
L 198.27054 526.851144 
L 201.586654 521.729362 
L 208.601428 520.781222 
L 219.968511 504.476504 
L 214.756482 501.111429 
L 217.424427 492.904447 
L 214.234 479.968092 
L 217.265856 476.255549 
L 215.033799 464.295833 
L 209.308057 456.763693 
L 211.120302 449.890318 
L 215.67795 450.905321 
L 218.344068 446.702449 
L 215.061202 438.373432 
L 216.777354 436.305793 
L 224.083694 436.754835 
L 234.693361 426.883585 
L 240.516292 425.378618 
L 243.262061 408.752738 
L 251.37222 402.19066 
L 260.282908 401.922112 
L 261.407523 398.974657 
L 272.472078 400.154808 
L 289.109649 389.852784 
L 295.955256 383.040427 
L 300.964869 383.906723 
L 304.674855 387.626574 
L 301.929816 392.387734 
L 292.846672 394.757901 
L 289.259817 401.827846 
L 283.786182 405.882377 
L 279.676479 411.13752 
L 277.946809 421.227994 
L 274.024908 429.497089 
L 281.324672 430.444133 
L 283.138012 436.945194 
L 286.257922 440.056335 
L 287.374498 445.749924 
L 285.694884 450.983876 
L 286.192521 453.935349 
L 289.673053 455.114039 
L 293.04105 460.046559 
L 311.225241 458.686645 
L 319.439895 460.488293 
L 329.392624 472.656637 
L 335.10777 471.144363 
L 345.292875 471.901413 
L 353.352613 470.288662 
L 358.353457 472.71875 
L 355.806815 480.334926 
L 352.651099 485.082567 
L 351.543657 495.224193 
L 354.388442 504.620095 
L 358.408263 508.821871 
L 358.894572 511.987818 
L 351.728535 519.027071 
L 356.859451 522.143328 
L 360.618031 527.087539 
L 364.930515 541.189796 
L 362.261839 542.932619 
L 359.505109 534.591181 
L 355.576631 530.106241 
L 350.899506 534.980667 
L 323.347547 534.66462 
L 323.52256 543.51283 
L 331.808463 544.975048 
L 331.330556 550.39132 
L 328.502944 548.92764 
L 320.539299 551.257251 
L 320.467321 561.531507 
L 326.740025 566.690557 
L 328.954178 574.787928 
L 322.263489 619.692856 
L 315.187333 612.175696 
L 310.964365 611.840285 
L 320.084777 597.449019 
L 309.256252 590.82702 
L 300.769395 592.042247 
L 295.662958 589.595717 
L 287.871039 593.334933 
L 277.341753 591.56361 
L 269.011276 576.737552 
L 262.465639 573.094064 
L 257.951836 566.419451 
L 248.547896 559.722186 
L 244.777989 561.0631 
L 231.781348 553.030035 
L 227.76445 555.279995 
L 215.764543 553.317948 
L 212.319452 547.234507 
L 209.682929 547.460307 
L 195.539385 539.385955 
z
" clip-path="url(#padeb6cbeac)" style="fill: #e8edf4; stroke: #b8c5d4; stroke-width: 0.45"/>
    <path d="M 137.413477 442.605169 
L 139.336794 436.930944 
L 138.78691 434.37188 
L 140.900586 432.697016 
L 137.959708 430.595397 
L 137.878596 424.904 
L 143.34675 423.64091 
L 148.424323 428.713001 
L 148.134948 431.70905 
L 153.777385 432.344797 
L 155.112454 431.194607 
L 158.999279 434.669293 
L 165.956324 433.647348 
L 171.971806 430.075838 
L 180.559506 427.223746 
L 185.385702 422.997855 
L 193.192967 423.827615 
L 192.666101 425.218585 
L 200.55046 425.700876 
L 206.842528 428.143387 
L 216.777354 436.305793 
L 215.061202 438.373432 
L 218.344068 446.702449 
L 215.67795 450.905321 
L 211.120302 449.890318 
L 209.308057 456.763693 
L 204.59403 452.684316 
L 201.564732 445.051333 
L 205.058418 441.273754 
L 201.475581 440.304788 
L 198.836135 435.632413 
L 191.791401 431.701743 
L 185.603829 432.60275 
L 182.737487 437.521751 
L 177.025995 441.073896 
L 173.940795 441.567513 
L 172.554574 444.510218 
L 179.299704 452.185584 
L 173.396391 456.087755 
L 166.817506 456.809364 
L 164.369149 448.361968 
L 162.528406 450.766114 
L 157.8648 449.935989 
L 155.011246 444.246419 
L 145.54227 441.65301 
L 139.473809 441.674202 
L 139.03719 444.743325 
z
" clip-path="url(#padeb6cbeac)" style="fill: #e8edf4; stroke: #b8c5d4; stroke-width: 0.45"/>
    <path d="M 95.331411 404.845817 
L 100.703108 400.294746 
L 110.019724 404.039442 
L 113.271168 402.196141 
L 117.755742 403.375926 
L 120.099602 406.285748 
L 124.272879 407.227676 
L 127.65878 404.230897 
L 131.24052 411.913935 
L 143.34675 423.64091 
L 137.878596 424.904 
L 137.959708 430.595397 
L 140.900586 432.697016 
L 138.78691 434.37188 
L 139.336794 436.930944 
L 137.413477 442.605169 
L 129.739938 439.467356 
L 126.868846 436.499075 
L 128.497308 434.044142 
L 127.983596 430.919847 
L 124.063156 427.534312 
L 113.630694 422.942319 
L 112.701554 418.805944 
L 108.992299 416.279398 
L 109.901344 420.390562 
L 107.079577 423.76952 
L 103.847498 419.845427 
L 99.304099 418.448245 
L 97.371648 415.598345 
L 97.45276 411.293169 
L 99.324925 406.838921 
z
" clip-path="url(#padeb6cbeac)" style="fill: #e8edf4; stroke: #b8c5d4; stroke-width: 0.45"/>
    <path d="M 70.913612 376.35741 
L 72.483615 374.17066 
L 74.817975 376.299316 
L 80.285034 374.718718 
L 82.055626 371.488831 
L 84.130573 371.363143 
L 83.829872 364.409386 
L 90.093441 364.175914 
L 93.146122 360.402719 
L 97.317207 363.261023 
L 106.309739 355.931664 
L 106.544673 353.021112 
L 107.901664 353.143511 
L 109.715735 349.764553 
L 111.192933 349.353144 
L 113.603291 351.513588 
L 116.434923 352.152623 
L 119.559948 350.354628 
L 123.132188 350.345128 
L 128.040959 348.497808 
L 130.000813 346.571934 
L 134.847836 346.860943 
L 132.911365 351.374746 
L 134.354219 356.549142 
L 131.096564 361.365839 
L 129.578809 367.055774 
L 129.120998 373.286826 
L 130.236478 383.298014 
L 128.076035 384.687157 
L 126.753754 390.735523 
L 127.726008 394.469988 
L 124.832629 398.086073 
L 125.490664 401.907862 
L 127.65878 404.230897 
L 124.272879 407.227676 
L 120.099602 406.285748 
L 117.755742 403.375926 
L 113.271168 402.196141 
L 110.019724 404.039442 
L 100.703108 400.294746 
L 98.57226 402.114298 
L 87.07145 391.955134 
L 83.958482 387.188493 
z
" clip-path="url(#padeb6cbeac)" style="fill: #e8edf4; stroke: #b8c5d4; stroke-width: 0.45"/>
    <path d="M 47.088811 354.94516 
L 50.027131 351.355016 
L 48.900325 348.579652 
L 49.895963 345.862747 
L 63.043868 336.51142 
L 64.512663 337.063862 
L 67.614304 334.577873 
L 81.73556 336.101473 
L 88.272062 335.732082 
L 94.47973 332.584769 
L 102.369569 334.276806 
L 108.878303 332.718861 
L 117.58146 334.992204 
L 125.985012 340.80527 
L 131.126524 342.971194 
L 134.847836 346.860943 
L 130.000813 346.571934 
L 128.040959 348.497808 
L 123.132188 350.345128 
L 119.559948 350.354628 
L 116.434923 352.152623 
L 113.603291 351.513588 
L 111.192933 349.353144 
L 109.715735 349.764553 
L 107.901664 353.143511 
L 106.544673 353.021112 
L 106.309739 355.931664 
L 97.317207 363.261023 
L 93.146122 360.402719 
L 90.093441 364.175914 
L 83.829872 364.409386 
L 84.130573 371.363143 
L 82.055626 371.488831 
L 80.285034 374.718718 
L 75.88888 375.300024 
L 73.446004 370.876102 
L 69.151424 369.646626 
L 70.135735 363.982267 
L 68.212418 362.451359 
L 65.301866 361.442932 
L 59.098949 363.127662 
L 58.572448 361.223344 
L 51.257704 356.134445 
z
" clip-path="url(#padeb6cbeac)" style="fill: #e8edf4; stroke: #b8c5d4; stroke-width: 0.45"/>
    <path d="M 36.59314 364.685242 
L 37.029759 362.611757 
L 44.530843 357.48084 
L 43.779639 355.815475 
L 47.088811 354.94516 
L 51.257704 356.134445 
L 58.572448 361.223344 
L 59.098949 363.127662 
L 65.301866 361.442932 
L 70.135735 363.982267 
L 67.581786 372.97626 
L 59.391611 372.765075 
L 54.301982 371.410641 
L 48.454571 368.59947 
L 40.59725 367.721482 
z
" clip-path="url(#padeb6cbeac)" style="fill: #e8edf4; stroke: #b8c5d4; stroke-width: 0.45"/>
    <path d="M 6.4211 343.246319 
L 13.226881 331.719934 
L 31.376361 331.677551 
L 31.738445 326.86195 
L 29.447929 326.004057 
L 27.878657 322.939684 
L 17.384812 314.954482 
L 23.771512 314.919407 
L 23.782108 306.959051 
L 50.061842 307.090219 
L 48.845154 334.259999 
L 53.066294 334.255249 
L 57.676556 336.813217 
L 58.895802 334.706118 
L 63.043868 336.51142 
L 49.895963 345.862747 
L 48.900325 348.579652 
L 50.027131 351.355016 
L 47.088811 354.94516 
L 43.779639 355.815475 
L 44.530843 357.48084 
L 37.029759 362.611757 
L 36.59314 364.685242 
L 29.337952 362.218617 
L 20.517145 361.963222 
L 14.050064 359.157897 
L 6.442291 353.323274 
L 6.789029 349.204438 
L 8.429549 345.888688 
z
" clip-path="url(#padeb6cbeac)" style="fill: #e8edf4; stroke: #b8c5d4; stroke-width: 0.45"/>
    <path d="M 48.845154 334.259999 
L 49.951134 305.009427 
L 51.662901 304.358334 
L 54.229638 306.031372 
L 59.295153 297.495555 
L 61.983194 297.309581 
L 62.035442 299.384162 
L 64.715444 299.449198 
L 64.47978 303.295467 
L 62.190725 309.411792 
L 63.427874 311.598907 
L 61.199837 325.155664 
L 58.422645 328.907302 
L 55.868696 329.35744 
L 53.066294 334.255249 
z
" clip-path="url(#padeb6cbeac)" style="fill: #e8edf4; stroke: #b8c5d4; stroke-width: 0.45"/>
    <path d="M 274.024908 429.497089 
L 277.946809 421.227994 
L 279.676479 411.13752 
L 283.786182 405.882377 
L 289.259817 401.827846 
L 292.846672 394.757901 
L 301.929816 392.387734 
L 301.527907 395.729059 
L 293.226659 397.379444 
L 297.839113 403.796835 
L 297.666657 411.191961 
L 291.42903 419.405519 
L 296.781727 430.624627 
L 302.87759 429.706447 
L 306.053037 419.485536 
L 301.66821 414.508806 
L 300.953542 403.803777 
L 318.563368 398.055382 
L 316.604245 391.390269 
L 321.561975 386.929079 
L 326.637721 396.865731 
L 336.554643 397.095185 
L 345.742283 404.98064 
L 346.295821 409.662514 
L 358.992492 409.786741 
L 374.100252 408.333657 
L 382.197622 414.666281 
L 393.012263 416.413855 
L 400.944851 411.996509 
L 401.107076 408.435596 
L 435.568947 407.386248 
L 423.561002 411.562813 
L 428.391583 418.238156 
L 439.700572 419.300658 
L 450.421677 426.254049 
L 452.674925 437.583133 
L 460.044475 437.263798 
L 465.584973 440.597085 
L 454.381212 448.903814 
L 453.145524 454.059576 
L 457.98597 459.307046 
L 454.474381 461.955992 
L 445.773051 464.225682 
L 446.054753 470.755607 
L 442.224195 474.647548 
L 451.793648 485.377422 
L 453.665814 489.367648 
L 448.494341 494.76419 
L 432.677394 500.057697 
L 422.508731 502.251755 
L 418.426797 505.594542 
L 407.182844 502.059934 
L 396.71421 500.250613 
L 394.064169 501.552068 
L 400.393139 505.217843 
L 399.822794 514.698146 
L 401.785937 523.603719 
L 413.765018 524.818946 
L 414.529741 527.79088 
L 404.429037 531.814355 
L 402.785594 537.803164 
L 386.447262 543.425141 
L 383.710262 547.752605 
L 372.715858 548.668957 
L 364.930515 541.189796 
L 360.618031 527.087539 
L 356.859451 522.143328 
L 351.728535 519.027071 
L 358.894572 511.987818 
L 358.408263 508.821871 
L 354.388442 504.620095 
L 351.543657 495.224193 
L 352.651099 485.082567 
L 355.806815 480.334926 
L 358.353457 472.71875 
L 353.352613 470.288662 
L 345.292875 471.901413 
L 335.10777 471.144363 
L 329.392624 472.656637 
L 319.439895 460.488293 
L 311.225241 458.686645 
L 293.04105 460.046559 
L 289.673053 455.114039 
L 286.192521 453.935349 
L 285.694884 450.983876 
L 287.374498 445.749924 
L 286.257922 440.056335 
L 283.138012 436.945194 
L 281.324672 430.444133 
z
" clip-path="url(#padeb6cbeac)" style="fill: #e8edf4; stroke: #b8c5d4; stroke-width: 0.45"/>
    <path d="M 359.753562 299.084557 
L 361.757991 297.018014 
L 373.328587 297.100588 
L 380.556372 298.34614 
L 383.105937 301.155119 
L 379.48364 304.720417 
L 360.577475 305.13548 
z
" clip-path="url(#padeb6cbeac)" style="fill: #e8edf4; stroke: #b8c5d4; stroke-width: 0.45"/>
    <path d="M 202.857783 301.184349 
L 204.55457 297.95227 
L 213.719557 297.443307 
L 223.236031 298.711147 
L 230.748442 302.107278 
L 233.091571 305.979489 
L 223.151996 306.242922 
L 218.856319 308.606147 
L 210.942 306.336822 
z
" clip-path="url(#padeb6cbeac)" style="fill: #e8edf4; stroke: #b8c5d4; stroke-width: 0.45"/>
    <path d="M 109.002894 249.286934 
L 116.467076 244.918549 
L 119.531449 239.816496 
L 125.924725 236.672107 
L 133.1463 233.915741 
L 143.852425 232.562404 
L 147.278517 231.008843 
L 170.602027 232.177302 
L 183.883659 236.99473 
L 189.512212 242.171683 
L 202.720403 240.574278 
L 228.507616 259.032862 
L 233.162819 258.838485 
L 241.596331 261.722364 
L 240.566348 265.703456 
L 250.990406 266.285859 
L 261.678994 272.073348 
L 260.001572 275.385809 
L 250.598728 277.180881 
L 241.080792 277.883126 
L 231.338152 276.764357 
L 211.091072 278.141809 
L 220.570644 270.253066 
L 214.807634 266.579983 
L 205.691972 265.634766 
L 200.805855 261.552832 
L 197.453934 253.499671 
L 189.462521 254.050287 
L 176.276617 250.258458 
L 172.033554 247.292369 
L 153.602372 245.100869 
L 148.666564 242.342677 
L 153.969205 238.809532 
L 140.098595 238.08573 
L 129.937604 245.433723 
L 124.078502 245.631024 
L 122.051419 249.08123 
L 115.053452 250.627484 
z
" clip-path="url(#padeb6cbeac)" style="fill: #e8edf4; stroke: #b8c5d4; stroke-width: 0.45"/>
    <path d="M 434.592471 416.233061 
L 438.69329 412.344354 
L 438.410475 406.758756 
L 446.541408 404.920458 
L 449.510966 405.415385 
L 448.945336 415.950245 
L 437.137807 417.505728 
z
" clip-path="url(#padeb6cbeac)" style="fill: #e8edf4; stroke: #b8c5d4; stroke-width: 0.45"/>
   </g>
   <g id="PathCollection_1">
    <defs>
     <path id="mc60a19f236" d="M 0 2.12132 
C 0.562581 2.12132 1.102195 1.897805 1.5 1.5 
C 1.897805 1.102195 2.12132 0.562581 2.12132 0 
C 2.12132 -0.562581 1.897805 -1.102195 1.5 -1.5 
C 1.102195 -1.897805 0.562581 -2.12132 0 -2.12132 
C -0.562581 -2.12132 -1.102195 -1.897805 -1.5 -1.5 
C -1.897805 -1.102195 -2.12132 -0.562581 -2.12132 0 
C -2.12132 0.562581 -1.897805 1.102195 -1.5 1.5 
C -1.102195 1.897805 -0.562581 2.12132 0 2.12132 
z
" style="stroke: #ffffff; stroke-width: 0.5"/>
    </defs>
    <g clip-path="url(#padeb6cbeac)">
     <use xlink:href="#mc60a19f236" x="436.713584" y="317.813421" style="fill: #8aa0b7; stroke: #ffffff; stroke-width: 0.5"/>
     <use xlink:href="#mc60a19f236" x="417.387889" y="300.844517" style="fill: #8aa0b7; stroke: #ffffff; stroke-width: 0.5"/>
     <use xlink:href="#mc60a19f236" x="321.230769" y="382.153846" style="fill: #8aa0b7; stroke: #ffffff; stroke-width: 0.5"/>
     <use xlink:href="#mc60a19f236" x="468.765958" y="372.726678" style="fill: #8aa0b7; stroke: #ffffff; stroke-width: 0.5"/>
     <use xlink:href="#mc60a19f236" x="422.101944" y="305.793781" style="fill: #8aa0b7; stroke: #ffffff; stroke-width: 0.5"/>
     <use xlink:href="#mc60a19f236" x="394.998363" y="101.695581" style="fill: #8aa0b7; stroke: #ffffff; stroke-width: 0.5"/>
     <use xlink:href="#mc60a19f236" x="345.668347" y="386.701512" style="fill: #8aa0b7; stroke: #ffffff; stroke-width: 0.5"/>
     <use xlink:href="#mc60a19f236" x="235.914894" y="216" style="fill: #8aa0b7; stroke: #ffffff; stroke-width: 0.5"/>
     <use xlink:href="#mc60a19f236" x="55.620295" y="314.98527" style="fill: #8aa0b7; stroke: #ffffff; stroke-width: 0.5"/>
     <use xlink:href="#mc60a19f236" x="335.041571" y="386.825951" style="fill: #8aa0b7; stroke: #ffffff; stroke-width: 0.5"/>
     <use xlink:href="#mc60a19f236" x="443.312602" y="340.909984" style="fill: #8aa0b7; stroke: #ffffff; stroke-width: 0.5"/>
     <use xlink:href="#mc60a19f236" x="438.599018" y="387.574468" style="fill: #8aa0b7; stroke: #ffffff; stroke-width: 0.5"/>
     <use xlink:href="#mc60a19f236" x="439.777419" y="329.126023" style="fill: #8aa0b7; stroke: #ffffff; stroke-width: 0.5"/>
     <use xlink:href="#mc60a19f236" x="286.585925" y="290.238953" style="fill: #8aa0b7; stroke: #ffffff; stroke-width: 0.5"/>
     <use xlink:href="#mc60a19f236" x="214.703764" y="300.844517" style="fill: #8aa0b7; stroke: #ffffff; stroke-width: 0.5"/>
     <use xlink:href="#mc60a19f236" x="423.279869" y="313.806874" style="fill: #8aa0b7; stroke: #ffffff; stroke-width: 0.5"/>
     <use xlink:href="#mc60a19f236" x="172.281506" y="283.168576" style="fill: #8aa0b7; stroke: #ffffff; stroke-width: 0.5"/>
     <use xlink:href="#mc60a19f236" x="448.497545" y="362.592471" style="fill: #8aa0b7; stroke: #ffffff; stroke-width: 0.5"/>
     <use xlink:href="#mc60a19f236" x="419.036229" y="303.37854" style="fill: #8aa0b7; stroke: #ffffff; stroke-width: 0.5"/>
     <use xlink:href="#mc60a19f236" x="448.026187" y="351.515544" style="fill: #8aa0b7; stroke: #ffffff; stroke-width: 0.5"/>
     <use xlink:href="#mc60a19f236" x="431.057283" y="322.055646" style="fill: #8aa0b7; stroke: #ffffff; stroke-width: 0.5"/>
     <use xlink:href="#mc60a19f236" x="370.252046" y="300.844517" style="fill: #8aa0b7; stroke: #ffffff; stroke-width: 0.5"/>
     <use xlink:href="#mc60a19f236" x="53.263503" y="363.299509" style="fill: #8aa0b7; stroke: #ffffff; stroke-width: 0.5"/>
     <use xlink:href="#mc60a19f236" x="418.969768" y="303.778723" style="fill: #8aa0b7; stroke: #ffffff; stroke-width: 0.5"/>
     <use xlink:href="#mc60a19f236" x="295.335751" y="252.143764" style="fill: #8aa0b7; stroke: #ffffff; stroke-width: 0.5"/>
     <use xlink:href="#mc60a19f236" x="448.026187" y="403.364975" style="fill: #8aa0b7; stroke: #ffffff; stroke-width: 0.5"/>
     <use xlink:href="#mc60a19f236" x="445.198036" y="371.548282" style="fill: #8aa0b7; stroke: #ffffff; stroke-width: 0.5"/>
     <use xlink:href="#mc60a19f236" x="396.553846" y="298.430691" style="fill: #8aa0b7; stroke: #ffffff; stroke-width: 0.5"/>
     <use xlink:href="#mc60a19f236" x="392.929571" y="299.631241" style="fill: #8aa0b7; stroke: #ffffff; stroke-width: 0.5"/>
    </g>
   </g>
   <g id="PatchCollection_2">
    <path d="M 201.857173 211.395205 
L 204.934343 202.420635 
L 209.188871 202.990507 
L 214.138134 214.727332 
L 214.213646 222.932504 
L 210.744354 223.636007 
L 207.151895 215.488812 
z
" clip-path="url(#padeb6cbeac)" style="fill: #f59e0b; stroke: #b45309; stroke-width: 1.15"/>
    <path d="M 210.602946 176.5473 
L 221.774141 182.910638 
L 219.334154 192.962168 
L 216.734235 191.149748 
L 216.966285 183.759083 
L 210.630945 178.171224 
z
" clip-path="url(#padeb6cbeac)" style="fill: #f59e0b; stroke: #b45309; stroke-width: 1.15"/>
    <path d="M 193.77545 180.082488 
L 200.421604 178.951227 
L 209.754501 179.37545 
L 210.178724 183.052046 
L 194.765303 185.314566 
z
" clip-path="url(#padeb6cbeac)" style="fill: #f59e0b; stroke: #b45309; stroke-width: 1.15"/>
   </g>
   <g id="PathCollection_2">
    <defs>
     <path id="me969c5f124" d="M 0 3.316625 
C 0.879579 3.316625 1.723251 2.967164 2.345208 2.345208 
C 2.967164 1.723251 3.316625 0.879579 3.316625 0 
C 3.316625 -0.879579 2.967164 -1.723251 2.345208 -2.345208 
C 1.723251 -2.967164 0.879579 -3.316625 0 -3.316625 
C -0.879579 -3.316625 -1.723251 -2.967164 -2.345208 -2.345208 
C -2.967164 -1.723251 -3.316625 -0.879579 -3.316625 0 
C -3.316625 0.879579 -2.967164 1.723251 -2.345208 2.345208 
C -1.723251 2.967164 -0.879579 3.316625 0 3.316625 
z
" style="stroke: #ffffff"/>
    </defs>
    <g clip-path="url(#padeb6cbeac)">
     <use xlink:href="#me969c5f124" x="235.914894" y="216" style="fill: #f97316; stroke: #ffffff"/>
    </g>
   </g>
   <g id="PathCollection_3">
    <path d="M 235.914894 220.449719 
C 237.094973 220.449719 238.226878 219.980869 239.06132 219.146427 
C 239.895762 218.311984 240.364613 217.180079 240.364613 216 
C 240.364613 214.819921 239.895762 213.688016 239.06132 212.853573 
C 238.226878 212.019131 237.094973 211.550281 235.914894 211.550281 
C 234.734814 211.550281 233.602909 212.019131 232.768467 212.853573 
C 231.934025 213.688016 231.465175 214.819921 231.465175 216 
C 231.465175 217.180079 231.934025 218.311984 232.768467 219.146427 
C 233.602909 219.980869 234.734814 220.449719 235.914894 220.449719 
L 235.914894 220.449719 
z
" clip-path="url(#padeb6cbeac)" style="fill: none; stroke: #7c2d12; stroke-width: 1.1"/>
   </g>
  </g>
 </g>
 <defs>
  <clipPath id="padeb6cbeac">
   <rect x="0" y="0" width="471.829787" height="432"/>
  </clipPath>
 </defs>
</svg>
