<?xml version="1.0" encoding="utf-8" standalone="no"?>
<!DOCTYPE svg PUBLIC "-//W3C//DTD SVG 1.1//EN"
  "http://www.w3.org/Graphics/SVG/1.1/DTD/svg11.dtd">
<svg xmlns:xlink="http://www.w3.org/1999/xlink" width="558.276923pt" height="432pt" viewBox="0 0 558.276923 432" xmlns="http://www.w3.org/2000/svg" version="1.1">
 <metadata>
  <rdf:RDF xmlns:dc="http://purl.org/dc/elements/1.1/" xmlns:cc="http://creativecommons.org/ns#" xmlns:rdf="http://www.w3.org/1999/02/22-rdf-syntax-ns#">
   <cc:Work>
    <dc:type rdf:resource="http://purl.org/dc/dcmitype/StillImage"/>
    <dc:date>2026-06-09T04:57:05.779147</dc:date>
    <dc:format>image/svg+xml</dc:format>
    <dc:creator>
     <cc:Agent>
      <dc:title>Matplotlib v3.10.8, https://matplotlib.org/</dc:title>
     </cc:Agent>
    </dc:creator>
   </cc:Work>
  </rdf:RDF>
 </metadata>
 <defs>
  <style type="text/css">*{stroke-linejoin: round; stroke-linecap: butt}</style>
 </defs>
 <g id="figure_1">
  <g id="patch_1">
   <path d="M 0 432 
L 558.276923 432 
L 558.276923 0 
L 0 0 
z
" style="fill: #eaf3ff"/>
  </g>
  <g id="axes_1">
   <g id="PatchCollection_1">
    <path d="M 251.710805 96.372526 
L 252.282305 90.755752 
L 282.44885 89.7151 
L 284.045547 84.925353 
L 289.490939 78.95414 
L 293.878163 60.599511 
L 312.356434 46.255685 
L 318.606529 29.497409 
L 322.760894 28.524073 
L 327.089732 18.164949 
L 338.272448 16.737573 
L 343.082115 18.46375 
L 349.117897 18.46375 
L 353.402086 15.439334 
L 361.618773 15.011052 
L 361.31379 7.88997 
L 363.337394 7.88997 
L 363.048896 31.48873 
L 319.421878 30.793588 
L 319.849816 64.805394 
L 307.394963 65.998537 
L 304.144556 72.825627 
L 306.665476 92.021707 
L 254.61158 91.938593 
z
" clip-path="url(#pc3a796f1f7)" style="fill: #e8edf4; stroke: #b8c5d4; stroke-width: 0.45"/>
    <path d="M 244.245586 179.718108 
L 250.092471 177.19341 
L 256.532149 167.861543 
L 259.690511 161.035828 
L 264.241904 156.773963 
L 270.848499 157.921427 
L 277.3342 155.024431 
L 284.756488 154.878465 
L 291.107899 158.78589 
L 299.931118 162.307278 
L 316.745719 181.216234 
L 317.355342 189.485469 
L 319.976205 197.09734 
L 324.951759 200.830636 
L 326.088233 205.970702 
L 325.476206 210.111673 
L 323.557354 210.861423 
L 316.309538 209.810468 
L 315.312161 211.288674 
L 312.38185 211.585758 
L 302.827771 208.345312 
L 271.847937 207.65017 
L 268.284305 209.146923 
L 263.882656 208.718985 
L 256.841254 210.884434 
L 254.66035 200.695317 
L 266.759389 200.975916 
L 277.262076 195.935107 
L 282.964024 198.743837 
L 288.739472 198.97807 
L 294.491564 195.994524 
L 291.806132 192.152697 
L 287.423373 194.390958 
L 283.298544 194.328794 
L 278.052009 191.057094 
L 273.837884 191.271406 
L 270.836135 194.418777 
L 256.359051 194.799319 
L 250.877597 184.450499 
z
" clip-path="url(#pc3a796f1f7)" style="fill: #e8edf4; stroke: #b8c5d4; stroke-width: 0.45"/>
    <path d="M 316.745719 181.216234 
L 321.219149 178.793542 
L 323.453975 170.962892 
L 327.667414 170.656536 
L 336.949481 174.358578 
L 344.44561 171.730159 
L 349.584302 172.612481 
L 351.578369 169.656411 
L 404.913676 169.454462 
L 407.870776 160.147667 
L 405.567947 158.509413 
L 392.73736 43.77701 
L 413.080562 43.537969 
L 502.757979 101.542472 
L 505.918401 107.770929 
L 520.349463 113.734586 
L 520.501955 122.191344 
L 535.24693 120.890013 
L 535.284022 151.502699 
L 528.015943 160.381213 
L 526.883934 168.571453 
L 515.076826 170.679547 
L 496.939944 171.822203 
L 492.025181 176.546008 
L 474.983903 177.129185 
L 471.666181 174.579072 
L 464.348645 176.471136 
L 451.924702 181.984874 
L 449.388671 186.139927 
L 439.075569 192.098432 
L 437.267651 195.513008 
L 431.696899 198.21939 
L 425.268898 196.42727 
L 421.626616 199.671151 
L 419.675823 208.786988 
L 409.12471 219.803475 
L 409.431754 224.305755 
L 405.806644 229.940044 
L 406.686906 237.656668 
L 398.098607 241.303758 
L 396.041344 235.618638 
L 392.203296 237.117452 
L 389.910427 236.858148 
L 387.464036 240.737066 
L 377.199017 240.627506 
L 373.519299 238.631721 
L 371.786596 239.839289 
L 367.726679 236.007423 
L 368.431437 232.049167 
L 366.770515 230.498493 
L 363.939118 231.806005 
L 364.457726 227.481289 
L 367.182655 224.059845 
L 361.735546 218.491498 
L 360.151556 214.825517 
L 357.19789 211.905166 
L 354.537531 211.556565 
L 343.403927 218.072489 
L 337.714686 217.010543 
L 334.024665 213.635465 
L 331.821779 213.192072 
L 326.244159 214.978696 
L 325.476206 210.111673 
L 326.088233 205.970702 
L 324.951759 200.830636 
L 319.976205 197.09734 
L 317.355342 189.485469 
z
" clip-path="url(#pc3a796f1f7)" style="fill: #e8edf4; stroke: #b8c5d4; stroke-width: 0.45"/>
    <path d="M 251.710805 96.372526 
L 254.61158 91.938593 
L 306.665476 92.021707 
L 304.144556 72.825627 
L 307.394963 65.998537 
L 319.849816 64.805394 
L 319.421878 30.793588 
L 363.048896 31.48873 
L 363.087363 11.355032 
L 413.080562 43.537969 
L 392.73736 43.77701 
L 405.567947 158.509413 
L 407.870776 160.147667 
L 404.913676 169.454462 
L 351.578369 169.656411 
L 349.584302 172.612481 
L 344.44561 171.730159 
L 336.949481 174.358578 
L 327.667414 170.656536 
L 323.453975 170.962892 
L 321.219149 178.793542 
L 316.745719 181.216234 
L 299.931118 162.307278 
L 291.107899 158.78589 
L 284.756488 154.878465 
L 277.3342 155.024431 
L 270.848499 157.921427 
L 264.241904 156.773963 
L 259.690511 161.035828 
L 258.539268 153.873188 
L 262.249897 147.319141 
L 263.900859 134.804184 
L 260.826299 115.060645 
L 262.153044 108.431725 
L 258.717175 102.113285 
z
" clip-path="url(#pc3a796f1f7)" style="fill: #e8edf4; stroke: #b8c5d4; stroke-width: 0.45"/>
    <path d="M 488.7892 236.326488 
L 490.480345 229.327673 
L 495.051659 227.823365 
L 497.759415 222.011855 
L 504.256793 220.769942 
L 511.623098 212.9022 
L 516.388116 212.867855 
L 526.523999 220.517163 
L 526.006077 224.933237 
L 528.995461 232.818151 
L 526.376315 238.169094 
L 527.776902 241.744404 
L 517.234376 254.047796 
L 514.728568 262.432086 
L 514.302004 292.313568 
L 503.316428 293.864242 
L 500.042667 284.69414 
L 500.647825 254.16766 
L 497.970293 251.428993 
L 497.465422 244.905513 
z
" clip-path="url(#pc3a796f1f7)" style="fill: #e8edf4; stroke: #b8c5d4; stroke-width: 0.45"/>
    <path d="M 482.4529 183.510477 
L 483.506259 177.068051 
L 492.025181 176.546008 
L 496.939944 171.822203 
L 515.076826 170.679547 
L 526.883934 168.571453 
L 528.015943 160.381213 
L 535.284022 151.502699 
L 535.24693 120.890013 
L 553.991031 114.962418 
L 592.47661 88.850295 
L 638.024198 63.515054 
L 659.051552 69.246196 
L 666.527761 76.546559 
L 675.931126 71.606326 
L 679.195553 92.268304 
L 684.169167 95.725218 
L 684.383014 99.952644 
L 689.913925 104.509188 
L 687.022767 110.230714 
L 681.901248 137.203865 
L 681.200611 154.492427 
L 664.24546 167.02622 
L 658.506154 184.535331 
L 664.039812 189.459366 
L 664.010276 198.009542 
L 672.534693 198.315556 
L 671.205543 204.57664 
L 667.453701 205.339098 
L 667.025762 209.571083 
L 664.553613 209.864733 
L 655.559357 195.312433 
L 652.439461 194.783521 
L 642.045992 202.213364 
L 631.754184 198.334789 
L 624.60013 197.55928 
L 620.764486 199.425584 
L 612.972303 199.022375 
L 605.131351 204.686888 
L 598.352344 205.011791 
L 582.265169 198.141427 
L 575.965618 201.404541 
L 569.18249 201.177864 
L 564.197663 196.157662 
L 550.873883 191.197564 
L 536.588443 192.771937 
L 533.127159 195.646609 
L 531.25742 203.291109 
L 527.447191 208.650639 
L 526.523999 220.517163 
L 516.388116 212.867855 
L 511.623098 212.9022 
L 507.161002 216.795544 
L 507.461863 207.692071 
L 492.135772 204.677271 
L 491.722946 198.244805 
L 484.237807 189.565149 
z
" clip-path="url(#pc3a796f1f7)" style="fill: #e8edf4; stroke: #b8c5d4; stroke-width: 0.45"/>
    <path d="M 514.302004 292.313568 
L 514.728568 262.432086 
L 517.234376 254.047796 
L 527.776902 241.744404 
L 526.376315 238.169094 
L 528.995461 232.818151 
L 526.006077 224.933237 
L 527.447191 208.650639 
L 531.25742 203.291109 
L 533.127159 195.646609 
L 536.588443 192.771937 
L 550.873883 191.197564 
L 564.197663 196.157662 
L 569.18249 201.177864 
L 575.965618 201.404541 
L 582.265169 198.141427 
L 598.352344 205.011791 
L 605.131351 204.686888 
L 612.972303 199.022375 
L 620.764486 199.425584 
L 624.60013 197.55928 
L 631.754184 198.334789 
L 642.045992 202.213364 
L 652.439461 194.783521 
L 655.559357 195.312433 
L 664.553613 209.864733 
L 667.025762 209.571083 
L 672.287409 214.865358 
L 670.136728 221.684204 
L 658.9389 231.969831 
L 653.550864 247.361521 
L 650.731143 250.323773 
L 648.048803 259.628507 
L 640.940085 265.104123 
L 638.880761 271.830238 
L 635.894811 277.183929 
L 634.651524 282.709002 
L 625.519888 287.187927 
L 618.057417 281.725706 
L 613.018326 281.9462 
L 605.101814 289.726019 
L 601.253119 289.845539 
L 591.511517 312.077027 
L 577.711715 316.860592 
L 572.667128 316.161672 
L 567.555913 319.14041 
L 556.923402 318.849851 
L 549.807128 310.535282 
L 545.430895 300.913887 
L 536.020378 292.156268 
z
" clip-path="url(#pc3a796f1f7)" style="fill: #e8edf4; stroke: #b8c5d4; stroke-width: 0.45"/>
    <path d="M 477.861323 233.188046 
L 478.839467 229.043984 
L 490.480345 229.327673 
L 488.7892 236.326488 
L 497.465422 244.905513 
L 497.970293 251.428993 
L 500.647825 254.16766 
L 500.042667 284.69414 
L 503.316428 293.864242 
L 492.614541 296.699761 
L 486.104799 283.59991 
L 485.049035 276.988507 
L 487.987589 265.015856 
L 484.653381 260.16738 
L 483.409063 240.042955 
z
" clip-path="url(#pc3a796f1f7)" style="fill: #e8edf4; stroke: #b8c5d4; stroke-width: 0.45"/>
    <path d="M 435.397912 292.424502 
L 438.864348 277.414384 
L 444.465666 266.249871 
L 439.126056 237.329704 
L 439.438252 229.788239 
L 462.527676 229.161787 
L 468.399976 230.130658 
L 472.691721 227.985129 
L 478.839467 229.043984 
L 477.861323 233.188046 
L 483.409063 240.042955 
L 484.653381 260.16738 
L 487.987589 265.015856 
L 485.049035 276.988507 
L 486.104799 283.59991 
L 492.614541 296.699761 
L 471.775398 304.48061 
L 464.385051 309.038872 
L 452.407592 312.89478 
L 440.558584 309.119583 
L 441.162368 303.874765 
z
" clip-path="url(#pc3a796f1f7)" style="fill: #e8edf4; stroke: #b8c5d4; stroke-width: 0.45"/>
    <path d="M 364.170946 289.538839 
L 367.061074 283.633911 
L 365.731924 277.208314 
L 366.345325 273.342447 
L 368.453418 273.327335 
L 369.236483 267.529907 
L 368.209569 264.962965 
L 369.479645 263.115207 
L 374.416389 261.516793 
L 371.133011 250.87604 
L 368.069098 245.382221 
L 369.136196 240.869638 
L 373.519299 238.631721 
L 377.199017 240.627506 
L 387.464036 240.737066 
L 389.910427 236.858148 
L 392.203296 237.117452 
L 396.041344 235.618638 
L 398.098607 241.303758 
L 406.686906 237.656668 
L 412.664301 240.554695 
L 414.987393 244.950849 
L 420.964102 247.757518 
L 425.613722 244.41438 
L 431.841835 243.90951 
L 440.939126 247.337136 
L 444.465666 266.249871 
L 438.864348 277.414384 
L 435.397912 292.424502 
L 441.162368 303.874765 
L 440.558584 309.119583 
L 434.511125 309.254902 
L 425.236614 306.65602 
L 416.714945 306.809542 
L 400.969158 309.129886 
L 378.578997 317.841827 
L 376.010681 317.492539 
L 377.031413 306.545085 
L 378.302863 304.881072 
L 377.89828 299.643811 
L 372.268455 294.076494 
L 368.046087 293.18799 
z
" clip-path="url(#pc3a796f1f7)" style="fill: #e8edf4; stroke: #b8c5d4; stroke-width: 0.45"/>
    <path d="M 277.406324 228.755143 
L 283.316404 222.276311 
L 287.350562 222.522908 
L 290.816998 220.29186 
L 293.74937 220.270566 
L 295.844755 218.50867 
L 294.713433 214.10393 
L 296.169315 212.714333 
L 296.412134 208.208276 
L 302.827771 208.345312 
L 312.38185 211.585758 
L 315.312161 211.288674 
L 316.309538 209.810468 
L 323.557354 210.861423 
L 325.476206 210.111673 
L 326.244159 214.978696 
L 331.821779 213.192072 
L 334.024665 213.635465 
L 337.714686 217.010543 
L 343.403927 218.072489 
L 354.537531 211.556565 
L 357.19789 211.905166 
L 360.151556 214.825517 
L 361.735546 218.491498 
L 367.182655 224.059845 
L 364.457726 227.481289 
L 363.939118 231.806005 
L 366.770515 230.498493 
L 368.431437 232.049167 
L 367.726679 236.007423 
L 371.786596 239.839289 
L 369.136196 240.869638 
L 368.069098 245.382221 
L 371.133011 250.87604 
L 374.416389 261.516793 
L 369.479645 263.115207 
L 368.209569 264.962965 
L 369.236483 267.529907 
L 368.453418 273.327335 
L 362.585927 273.001745 
L 359.875079 278.353719 
L 356.117055 278.288807 
L 353.53088 275.457752 
L 354.40908 270.119173 
L 348.852067 261.977359 
L 338.881041 264.531593 
L 339.029411 259.658044 
L 336.896589 256.180274 
L 337.326932 252.31578 
L 330.746095 241.974859 
L 320.114959 241.96009 
L 317.017044 244.464524 
L 313.353812 244.76676 
L 309.551826 251.321494 
L 302.445855 257.165631 
L 291.446541 244.09772 
L 284.725234 239.73385 
L 283.216116 233.860864 
L 281.271162 230.932956 
z
" clip-path="url(#pc3a796f1f7)" style="fill: #e8edf4; stroke: #b8c5d4; stroke-width: 0.45"/>
    <path d="M 256.841254 210.884434 
L 263.882656 208.718985 
L 268.284305 209.146923 
L 271.847937 207.65017 
L 296.412134 208.208276 
L 296.169315 212.714333 
L 294.713433 214.10393 
L 295.844755 218.50867 
L 293.74937 220.270566 
L 290.816998 220.29186 
L 287.350562 222.522908 
L 283.316404 222.276311 
L 277.406324 228.755143 
L 270.30997 223.19813 
L 264.71346 222.319243 
L 261.661912 218.571865 
L 261.739531 216.548947 
L 257.686827 213.728196 
z
" clip-path="url(#pc3a796f1f7)" style="fill: #e8edf4; stroke: #b8c5d4; stroke-width: 0.45"/>
    <path d="M 326.475301 285.307197 
L 329.651865 281.054606 
L 330.357654 277.188394 
L 342.541526 263.769822 
L 348.852067 261.977359 
L 354.40908 270.119173 
L 353.53088 275.457752 
L 356.117055 278.288807 
L 359.875079 278.353719 
L 362.585927 273.001745 
L 366.345325 273.342447 
L 365.731924 277.208314 
L 367.061074 283.633911 
L 364.170946 289.538839 
L 368.046087 293.18799 
L 372.268455 294.076494 
L 377.89828 299.643811 
L 378.302863 304.881072 
L 377.031413 306.545085 
L 376.010681 317.492539 
L 372.52879 317.609655 
L 358.828589 311.273698 
L 346.750843 301.156362 
L 335.426282 293.883475 
z
" clip-path="url(#pc3a796f1f7)" style="fill: #e8edf4; stroke: #b8c5d4; stroke-width: 0.45"/>
    <path d="M 302.445855 257.165631 
L 309.551826 251.321494 
L 313.353812 244.76676 
L 317.017044 244.464524 
L 320.114959 241.96009 
L 330.746095 241.974859 
L 337.326932 252.31578 
L 336.896589 256.180274 
L 339.029411 259.658044 
L 338.881041 264.531593 
L 342.541526 263.769822 
L 330.357654 277.188394 
L 329.651865 281.054606 
L 326.475301 285.307197 
L 322.894152 284.321154 
L 313.324962 278.966432 
L 306.400333 271.845694 
L 304.074493 266.990004 
z
" clip-path="url(#pc3a796f1f7)" style="fill: #e8edf4; stroke: #b8c5d4; stroke-width: 0.45"/>
    <path d="M 405.806644 229.940044 
L 409.431754 224.305755 
L 409.12471 219.803475 
L 419.675823 208.786988 
L 421.626616 199.671151 
L 425.268898 196.42727 
L 431.696899 198.21939 
L 437.267651 195.513008 
L 439.075569 192.098432 
L 449.388671 186.139927 
L 451.924702 181.984874 
L 464.348645 176.471136 
L 471.666181 174.579072 
L 474.983903 177.129185 
L 483.506259 177.068051 
L 482.4529 183.510477 
L 484.237807 189.565149 
L 491.722946 198.244805 
L 492.135772 204.677271 
L 507.461863 207.692071 
L 507.161002 216.795544 
L 504.256793 220.769942 
L 497.759415 222.011855 
L 495.051659 227.823365 
L 490.480345 229.327673 
L 472.691721 227.985129 
L 468.399976 230.130658 
L 462.527676 229.161787 
L 439.438252 229.788239 
L 439.126056 237.329704 
L 440.939126 247.337136 
L 431.841835 243.90951 
L 425.613722 244.41438 
L 420.964102 247.757518 
L 414.987393 244.950849 
L 412.664301 240.554695 
L 406.686906 237.656668 
z
" clip-path="url(#pc3a796f1f7)" style="fill: #e8edf4; stroke: #b8c5d4; stroke-width: 0.45"/>
    <path d="M 254.66035 200.695317 
L 256.359051 194.799319 
L 270.836135 194.418777 
L 273.837884 191.271406 
L 278.052009 191.057094 
L 283.298544 194.328794 
L 287.423373 194.390958 
L 291.806132 192.152697 
L 294.491564 195.994524 
L 288.739472 198.97807 
L 282.964024 198.743837 
L 277.262076 195.935107 
L 266.759389 200.975916 
z
" clip-path="url(#pc3a796f1f7)" style="fill: #e8edf4; stroke: #b8c5d4; stroke-width: 0.45"/>
    <path d="M 363.087363 11.355032 
L 363.224056 -7.859595 
L 384.689651 -17.668513 
L 397.963288 -19.695209 
L 408.843082 -23.267427 
L 413.927165 -29.923479 
L 429.468599 -35.184095 
L 430.039412 -45.024954 
L 437.729247 -46.184096 
L 443.742361 -51.100233 
L 461.138079 -53.340554 
L 463.575197 -58.506378 
L 460.072699 -61.330907 
L 455.481466 -75.363568 
L 454.690158 -83.448026 
L 449.679916 -91.961452 
L 462.457956 -99.225066 
L 476.828914 -101.535451 
L 485.220759 -107.019997 
L 498.02181 -111.065832 
L 542.535615 -114.513722 
L 549.23975 -112.539574 
L 561.757111 -117.778553 
L 575.960809 -117.881244 
L 581.366705 -114.788481 
L 590.457127 -115.595588 
L 587.756927 -108.773306 
L 589.864333 -96.101736 
L 586.735508 -85.139171 
L 578.540802 -77.725126 
L 579.712652 -67.712543 
L 590.583516 -59.793284 
L 590.698228 -56.575848 
L 598.892934 -51.211167 
L 604.562598 -27.349668 
L 608.862586 -15.613655 
L 609.585204 -9.437402 
L 607.244252 1.406673 
L 608.204537 7.46684 
L 606.515452 14.741788 
L 607.674938 23.099288 
L 602.399553 28.653897 
L 610.259052 38.342265 
L 610.758428 44.038032 
L 615.48498 51.450359 
L 621.699356 49.014959 
L 632.191052 55.190868 
L 638.024198 63.515054 
L 592.47661 88.850295 
L 553.991031 114.962418 
L 535.24693 120.890013 
L 520.501955 122.191344 
L 520.349463 113.734586 
L 505.918401 107.770929 
L 502.757979 101.542472 
z
" clip-path="url(#pc3a796f1f7)" style="fill: #e8edf4; stroke: #b8c5d4; stroke-width: 0.45"/>
    <path d="M 252.282305 90.755752 
L 252.909444 84.595642 
L 258.015165 80.973623 
L 262.364609 74.046933 
L 261.507359 69.548432 
L 266.077299 60.169512 
L 273.475888 51.718593 
L 277.951035 49.576842 
L 281.469332 41.823813 
L 281.784619 34.74257 
L 286.582952 26.525884 
L 295.437424 21.681185 
L 303.862928 8.106343 
L 310.789618 2.815503 
L 323.150366 1.347256 
L 333.624202 -7.738014 
L 340.288497 -11.279665 
L 351.384664 -22.37858 
L 348.06282 -38.916361 
L 353.112902 -50.352543 
L 354.895405 -57.352044 
L 363.445237 -66.331876 
L 386.639414 -77.899255 
L 399.699768 -99.825073 
L 409.484645 -99.761191 
L 417.498009 -94.119002 
L 430.138326 -95.038073 
L 443.905843 -92.103641 
L 449.679916 -91.961452 
L 454.690158 -83.448026 
L 455.481466 -75.363568 
L 460.072699 -61.330907 
L 463.575197 -58.506378 
L 461.138079 -53.340554 
L 443.742361 -51.100233 
L 437.729247 -46.184096 
L 430.039412 -45.024954 
L 429.468599 -35.184095 
L 413.927165 -29.923479 
L 408.843082 -23.267427 
L 397.963288 -19.695209 
L 384.689651 -17.668513 
L 363.224056 -7.859595 
L 363.337394 7.88997 
L 361.31379 7.88997 
L 361.618773 15.011052 
L 353.402086 15.439334 
L 349.117897 18.46375 
L 343.082115 18.46375 
L 338.272448 16.737573 
L 327.089732 18.164949 
L 322.760894 28.524073 
L 318.606529 29.497409 
L 312.356434 46.255685 
L 293.878163 60.599511 
L 289.490939 78.95414 
L 284.045547 84.925353 
L 282.44885 89.7151 
z
" clip-path="url(#pc3a796f1f7)" style="fill: #e8edf4; stroke: #b8c5d4; stroke-width: 0.45"/>
   </g>
   <g id="PathCollection_1">
    <defs>
     <path id="m2f80bad98f" d="M 0 2.12132 
C 0.562581 2.12132 1.102195 1.897805 1.5 1.5 
C 1.897805 1.102195 2.12132 0.562581 2.12132 0 
C 2.12132 -0.562581 1.897805 -1.102195 1.5 -1.5 
C 1.102195 -1.897805 0.562581 -2.12132 0 -2.12132 
C -0.562581 -2.12132 -1.102195 -1.897805 -1.5 -1.5 
C -1.897805 -1.102195 -2.12132 -0.562581 -2.12132 0 
C -2.12132 0.562581 -1.897805 1.102195 -1.5 1.5 
C -1.102195 1.897805 -0.562581 2.12132 0 2.12132 
z
" style="stroke: #ffffff; stroke-width: 0.5"/>
    </defs>
    <g clip-path="url(#pc3a796f1f7)">
     <use xlink:href="#m2f80bad98f" x="159.507692" y="162.830769" style="fill: #8aa0b7; stroke: #ffffff; stroke-width: 0.5"/>
     <use xlink:href="#m2f80bad98f" x="258.313846" y="196.504615" style="fill: #8aa0b7; stroke: #ffffff; stroke-width: 0.5"/>
     <use xlink:href="#m2f80bad98f" x="279.138462" y="216" style="fill: #8aa0b7; stroke: #ffffff; stroke-width: 0.5"/>
     <use xlink:href="#m2f80bad98f" x="494.030769" y="269.169231" style="fill: #8aa0b7; stroke: #ffffff; stroke-width: 0.5"/>
    </g>
   </g>
   <g id="PatchCollection_2">
    <defs>
     <path id="m5b9887d795" d="M 256.841254 -221.115566 
L 263.882656 -223.281015 
L 268.284305 -222.853077 
L 271.847937 -224.34983 
L 296.412134 -223.791724 
L 296.169315 -219.285667 
L 294.713433 -217.89607 
L 295.844755 -213.49133 
L 293.74937 -211.729434 
L 290.816998 -211.70814 
L 287.350562 -209.477092 
L 283.316404 -209.723689 
L 277.406324 -203.244857 
L 270.30997 -208.80187 
L 264.71346 -209.680757 
L 261.661912 -213.428135 
L 261.739531 -215.451053 
L 257.686827 -218.271804 
z
" style="stroke: #b45309; stroke-width: 1.15"/>
    </defs>
    <g clip-path="url(#pc3a796f1f7)">
     <use xlink:href="#m5b9887d795" x="0" y="432" style="fill: #f59e0b; stroke: #b45309; stroke-width: 1.15"/>
    </g>
   </g>
   <g id="PathCollection_2">
    <defs>
     <path id="m2f8f1686f8" d="M 0 3.316625 
C 0.879579 3.316625 1.723251 2.967164 2.345208 2.345208 
C 2.967164 1.723251 3.316625 0.879579 3.316625 0 
C 3.316625 -0.879579 2.967164 -1.723251 2.345208 -2.345208 
C 1.723251 -2.967164 0.879579 -3.316625 0 -3.316625 
C -0.879579 -3.316625 -1.723251 -2.967164 -2.345208 -2.345208 
C -2.967164 -1.723251 -3.316625 -0.879579 -3.316625 0 
C -3.316625 0.879579 -2.967164 1.723251 -2.345208 2.345208 
C -1.723251 2.967164 -0.879579 3.316625 0 3.316625 
z
" style="stroke: #ffffff"/>
    </defs>
    <g clip-path="url(#pc3a796f1f7)">
     <use xlink:href="#m2f8f1686f8" x="279.138462" y="216" style="fill: #f97316; stroke: #ffffff"/>
    </g>
   </g>
   <g id="PathCollection_3">
    <path d="M 279.138462 220.449719 
C 280.318541 220.449719 281.450446 219.980869 282.284888 219.146427 
C 283.11933 218.311984 283.588181 217.180079 283.588181 216 
C 283.588181 214.819921 283.11933 213.688016 282.284888 212.853573 
C 281.450446 212.019131 280.318541 211.550281 279.138462 211.550281 
C 277.958382 211.550281 276.826477 212.019131 275.992035 212.853573 
C 275.157593 213.688016 274.688742 214.819921 274.688742 216 
C 274.688742 217.180079 275.157593 218.311984 275.992035 219.146427 
C 276.826477 219.980869 277.958382 220.449719 279.138462 220.449719 
L 279.138462 220.449719 
z
" clip-path="url(#pc3a796f1f7)" style="fill: none; stroke: #7c2d12; stroke-width: 1.1"/>
   </g>
  </g>
 </g>
 <defs>
  <clipPath id="pc3a796f1f7">
   <rect x="0" y="0" width="558.276923" height="432"/>
  </clipPath>
 </defs>
</svg>
