<?xml version="1.0" encoding="utf-8" standalone="no"?>
<!DOCTYPE svg PUBLIC "-//W3C//DTD SVG 1.1//EN"
  "http://www.w3.org/Graphics/SVG/1.1/DTD/svg11.dtd">
<svg xmlns:xlink="http://www.w3.org/1999/xlink" width="478.840688pt" height="432pt" viewBox="0 0 478.840688 432" xmlns="http://www.w3.org/2000/svg" version="1.1">
 <metadata>
  <rdf:RDF xmlns:dc="http://purl.org/dc/elements/1.1/" xmlns:cc="http://creativecommons.org/ns#" xmlns:rdf="http://www.w3.org/1999/02/22-rdf-syntax-ns#">
   <cc:Work>
    <dc:type rdf:resource="http://purl.org/dc/dcmitype/StillImage"/>
    <dc:date>2026-06-09T04:57:11.412599</dc:date>
    <dc:format>image/svg+xml</dc:format>
    <dc:creator>
     <cc:Agent>
      <dc:title>Matplotlib v3.10.8, https://matplotlib.org/</dc:title>
     </cc:Agent>
    </dc:creator>
   </cc:Work>
  </rdf:RDF>
 </metadata>
 <defs>
  <style type="text/css">*{stroke-linejoin: round; stroke-linecap: butt}</style>
 </defs>
 <g id="figure_1">
  <g id="patch_1">
   <path d="M 0 432 
L 478.840688 432 
L 478.840688 0 
L 0 0 
z
" style="fill: #eaf3ff"/>
  </g>
  <g id="axes_1">
   <g id="PatchCollection_1">
    <path d="M 63.613115 61.695663 
L 67.7297 61.22186 
L 77.672141 50.340136 
L 77.580255 47.104726 
L 75.436423 44.848003 
L 74.859126 40.927781 
L 77.732558 39.667666 
L 78.308221 33.810716 
L 74.355744 28.193497 
L 77.84755 26.997798 
L 109.045376 26.355195 
L 146.8248 47.728712 
L 147.503838 53.503969 
L 161.792603 63.455593 
L 157.196529 75.722077 
L 157.78617 81.363737 
L 164.159729 84.990781 
L 164.458382 87.579109 
L 161.717641 93.590998 
L 162.288467 96.616455 
L 161.636308 101.37201 
L 169.232852 117.428504 
L 172.886277 119.605686 
L 164.966092 125.377459 
L 154.080745 129.243249 
L 148.108511 129.079863 
L 144.561008 132.066096 
L 137.630869 132.322714 
L 135.031896 133.581045 
L 123.069004 130.775779 
L 115.578693 131.580885 
L 112.791372 118.041739 
L 107.412826 110.646587 
L 97.653391 108.789452 
L 92.003762 105.80053 
L 81.70905 102.457801 
L 77.550387 99.923501 
L 72.1745 87.379817 
L 66.40089 81.805297 
L 64.409475 76.031172 
L 65.404925 70.854318 
z
" clip-path="url(#p1185190427)" style="fill: #e8edf4; stroke: #b8c5d4; stroke-width: 0.45"/>
    <path d="M -107.193248 74.537226 
L -104.661152 73.485701 
L -104.349399 69.145848 
L -102.720668 66.586487 
L -99.09795 64.494241 
L -96.482514 65.508211 
L -93.077921 61.697206 
L -87.655162 61.795465 
L -87.017251 64.613592 
L -83.298332 66.377108 
L -69.125387 52.090471 
L -69.458747 43.9 
L -65.135356 34.228959 
L -60.573777 29.100977 
L -54.01924 24.302753 
L -52.875115 21.127088 
L -52.627153 17.476075 
L -51.004595 14.021581 
L -51.525728 8.379668 
L -50.284888 -0.442282 
L -48.339259 -6.65317 
L -45.357539 -11.976384 
L -43.872337 -24.931382 
L -39.996513 -29.985799 
L -34.665839 -33.191559 
L -26.473826 -29.808315 
L -20.133298 -26.135954 
L -5.424302 -23.21288 
L -2.447726 -29.224678 
L -1.080333 -29.991972 
L 3.456553 -28.992149 
L 14.539744 -33.960654 
L 18.467013 -31.854775 
L 21.690522 -32.15341 
L 23.18344 -34.574129 
L 26.883324 -35.427078 
L 40.756862 -34.150484 
L 44.043648 -35.206638 
L 50.073966 -26.988388 
L 54.543974 -25.781244 
L 57.208796 -27.452931 
L 61.812045 -26.797786 
L 67.356213 -28.903665 
L 69.7206 -24.651781 
L 78.484676 -18.036283 
L 77.882261 -6.395948 
L 81.872292 -5.047846 
L 78.671933 -1.513098 
L 74.847553 1.130889 
L 71.041179 6.322405 
L 68.946875 10.950862 
L 68.386645 18.941728 
L 66.080391 22.74553 
L 65.997051 30.25076 
L 63.134167 33.025673 
L 62.765311 38.949501 
L 61.397917 39.717053 
L 60.476547 45.162962 
L 62.979834 49.689044 
L 63.613115 61.695663 
L 65.404925 70.854318 
L 64.409475 76.031172 
L 66.40089 81.805297 
L 72.1745 87.379817 
L 77.550444 99.923516 
L 73.628834 98.910575 
L 60.257394 100.590751 
L 57.588971 101.780661 
L 54.751809 108.135593 
L 56.979868 112.525862 
L 53.979114 134.304868 
L 63.628549 139.950382 
L 66.360763 138.140052 
L 67.193134 148.874964 
L 59.574212 148.792653 
L 51.817418 139.071711 
L 44.188721 137.680653 
L 41.955004 132.464186 
L 35.869126 135.606927 
L 27.897294 134.218442 
L 24.570382 129.698533 
L 18.249403 128.780249 
L 13.583906 129.020495 
L 13.012873 125.926111 
L 5.045157 125.088596 
L -7.911641 127.248234 
L -7.379191 115.401607 
L -10.69993 111.707381 
L -11.430441 105.584977 
L -9.96376 99.583983 
L -11.981411 95.743141 
L -12.164039 89.479265 
L -24.243195 89.566206 
L -23.376356 85.979499 
L -28.455466 86.017054 
L -28.992031 87.741986 
L -35.166394 88.130906 
L -39.155911 96.421693 
L -44.656865 95.015716 
L -47.941593 96.416034 
L -54.524424 97.22114 
L -60.624707 88.796597 
L -65.937375 75.408695 
L -95.314211 75.276997 
L -105.798589 77.624921 
z
" clip-path="url(#p1185190427)" style="fill: #e8edf4; stroke: #b8c5d4; stroke-width: 0.45"/>
    <path d="M 179.501048 -10.822354 
L 190.925131 -25.253378 
L 197.306953 -25.437149 
L 206.178945 -32.455102 
L 219.147762 -32.893824 
L 247.279105 -62.772885 
L 258.714632 -77.195338 
L 258.814932 -96.696083 
L 271.86185 -99.373536 
L 276.573006 -102.781468 
L 280.347783 -102.808745 
L 279.691841 -89.033464 
L 277.590019 -85.437878 
L 274.78477 -74.676606 
L 263.837237 -50.843281 
L 255.294261 -36.253573 
L 235.087483 -11.526877 
L 225.12471 -3.467919 
L 210.233461 6.416807 
L 200.953509 13.98896 
L 190.058639 26.04818 
L 187.762792 31.297608 
L 185.514729 33.654778 
L 179.620011 25.442212 
z
" clip-path="url(#p1185190427)" style="fill: #e8edf4; stroke: #b8c5d4; stroke-width: 0.45"/>
    <path d="M 108.944409 15.804637 
L 116.69477 5.181278 
L 120.317334 -2.075 
L 114.773733 -18.498539 
L 110.053717 -25.41022 
L 122.925743 -37.914981 
L 128.096829 -36.244833 
L 128.096829 -30.657366 
L 131.497802 -27.381124 
L 138.426703 -27.381124 
L 151.028095 -18.926658 
L 156.505644 -19.100524 
L 158.709407 -17.952401 
L 165.348212 -17.169134 
L 168.290501 -21.317726 
L 177.38489 -25.48125 
L 181.399984 -22.117121 
L 188.202141 -22.115348 
L 179.501048 -10.822354 
L 179.620011 25.442212 
L 185.514729 33.654778 
L 178.54257 37.629853 
L 176.084455 41.783522 
L 172.353181 42.513231 
L 170.941048 49.527501 
L 167.744165 53.544188 
L 165.801226 60.168018 
L 161.792603 63.455593 
L 147.503838 53.503969 
L 146.8248 47.728712 
L 109.045376 26.355195 
z
" clip-path="url(#p1185190427)" style="fill: #e8edf4; stroke: #b8c5d4; stroke-width: 0.45"/>
    <path d="M -65.753718 301.382023 
L -60.984818 296.45879 
L -57.053433 299.184317 
L -55.375315 303.44083 
L -44.649663 306.048549 
L -39.301498 305.321639 
L -30.415499 300.231211 
L -30.40521 263.463866 
L -27.717753 264.958841 
L -21.815531 274.417932 
L -22.732786 280.483746 
L -20.511415 283.978882 
L -13.3807 282.963369 
L -3.688052 275.526045 
L -1.251643 270.757659 
L 3.604713 268.450376 
L 7.800522 269.65932 
L 12.556046 272.447609 
L 20.658546 272.939933 
L 27.024797 270.621846 
L 29.782219 262.752904 
L 35.198805 261.956029 
L 38.191842 258.216532 
L 41.506922 251.582771 
L 50.44488 244.150592 
L 64.530884 236.819244 
L 68.581105 236.927792 
L 73.397849 238.614141 
L 76.752541 237.419086 
L 82.044117 238.414022 
L 89.40273 259.498014 
L 87.628926 270.596638 
L 88.478788 274.170998 
L 83.455238 272.347807 
L 80.577436 273.057226 
L 79.637546 275.956121 
L 76.919221 279.69356 
L 77.012336 283.135707 
L 82.953655 288.531715 
L 88.780253 287.457041 
L 90.807164 283.035905 
L 98.357665 283.119245 
L 95.870326 290.366224 
L 94.694306 298.637462 
L 92.118483 303.131135 
L 83.379615 309.597701 
L 70.738171 326.902584 
L 52.460988 343.146168 
L 44.943411 347.675851 
L 34.538772 351.5383 
L 29.463778 352.05686 
L 28.17921 354.820456 
L 22.128829 353.349145 
L 17.200965 355.243844 
L 6.411522 353.32548 
L 0.380175 354.539569 
L -3.741554 354.018437 
L -14.008837 357.948278 
L -22.507974 359.524536 
L -28.658157 363.287183 
L -33.186297 363.526399 
L -37.398568 359.976733 
L -40.763035 359.794619 
L -45.050415 355.350334 
L -45.520617 356.730588 
L -46.843769 354.054963 
L -46.788209 348.218076 
L -50.022521 341.54676 
L -46.809815 339.733343 
L -47.070124 332.092814 
L -53.589164 322.775711 
z
M 40.310839 314.316186 
L 47.778515 321.973177 
L 51.340528 320.983901 
L 53.170922 317.803091 
L 58.719205 316.248439 
L 63.46547 308.158286 
L 55.665977 302.086812 
L 51.013342 304.117325 
L 45.619391 308.012184 
z
" clip-path="url(#p1185190427)" style="fill: #e8edf4; stroke: #b8c5d4; stroke-width: 0.45"/>
    <path d="M 40.310839 314.316186 
L 45.619391 308.012184 
L 51.013342 304.117325 
L 55.665977 302.086812 
L 63.46547 308.158286 
L 58.719205 316.248439 
L 53.170922 317.803091 
L 51.340528 320.983901 
L 47.778515 321.973177 
z
" clip-path="url(#p1185190427)" style="fill: #e8edf4; stroke: #b8c5d4; stroke-width: 0.45"/>
    <path d="M 23.038366 193.46701 
L 34.165286 194.557117 
L 37.399083 195.703814 
L 40.760464 195.472829 
L 46.273765 189.029926 
L 54.931351 180.842543 
L 58.494907 180.059558 
L 59.705395 176.60815 
L 65.373544 172.642298 
L 72.913757 171.279535 
L 73.557841 174.993309 
L 81.861489 174.795248 
L 86.475027 176.896239 
L 88.620775 179.359399 
L 93.36138 180.082708 
L 98.532062 183.281524 
L 98.554183 195.881298 
L 96.613184 202.780512 
L 96.186195 210.219893 
L 97.786117 213.168689 
L 96.661542 219.02924 
L 95.15782 219.935177 
L 92.53261 227.114764 
L 82.044117 238.414022 
L 76.752541 237.419086 
L 73.397849 238.614141 
L 68.581105 236.927792 
L 64.530884 236.819244 
L 58.184183 232.320942 
L 50.486036 230.793042 
L 47.557818 224.479779 
L 47.533125 220.968181 
L 43.269924 219.897623 
L 32.00359 208.962591 
L 28.87371 203.201842 
L 26.870463 201.42598 
z
" clip-path="url(#p1185190427)" style="fill: #e8edf4; stroke: #b8c5d4; stroke-width: 0.45"/>
    <path d="M -30.408297 234.408557 
L -20.595784 234.061822 
L -20.302036 198.600651 
L -12.891463 198.271406 
L 2.457502 194.786045 
L 6.261818 198.889769 
L 12.616751 194.988222 
L 15.63654 194.966101 
L 21.248614 192.723123 
L 23.038366 193.46701 
L 26.870463 201.42598 
L 28.87371 203.201842 
L 32.00359 208.962591 
L 43.269924 219.897623 
L 47.533125 220.968181 
L 47.557818 224.479779 
L 50.486036 230.793042 
L 58.184183 232.320942 
L 64.530884 236.819244 
L 50.44488 244.150592 
L 41.506922 251.582771 
L 38.191842 258.216532 
L 35.198805 261.956029 
L 29.782219 262.752904 
L 27.024797 270.621846 
L 20.658546 272.939933 
L 12.556046 272.447609 
L 7.800522 269.65932 
L 3.604713 268.450376 
L -1.251643 270.757659 
L -3.688052 275.526045 
L -13.3807 282.963369 
L -20.511415 283.978882 
L -22.732786 280.483746 
L -21.815531 274.417932 
L -27.717753 264.958841 
L -30.40521 263.463866 
z
" clip-path="url(#p1185190427)" style="fill: #e8edf4; stroke: #b8c5d4; stroke-width: 0.45"/>
    <path d="M -111.65451 189.140017 
L -100.904164 185.550738 
L -94.450459 185.848087 
L -88.515827 190.349476 
L -87.010563 189.649832 
L -46.656511 189.220271 
L -39.75884 193.9902 
L -15.657631 195.399263 
L 10.789958 189.079827 
L 17.245722 189.652918 
L 21.17402 191.896925 
L 21.248614 192.723123 
L 15.63654 194.966101 
L 12.616751 194.988222 
L 6.261818 198.889769 
L 2.457502 194.786045 
L -12.891463 198.271406 
L -20.302036 198.600651 
L -20.595784 234.061822 
L -30.408297 234.408557 
L -30.415499 300.231211 
L -39.301498 305.321639 
L -44.649663 306.048549 
L -55.375315 303.44083 
L -57.053433 299.184317 
L -60.984818 296.45879 
L -65.753718 301.382023 
L -73.151944 293.86136 
L -77.047832 286.591231 
L -85.035096 254.35717 
L -85.258365 242.447266 
L -86.532644 237.017305 
L -90.405896 232.914096 
L -95.544168 224.689158 
L -102.95011 206.496344 
L -111.050038 196.777974 
z
" clip-path="url(#p1185190427)" style="fill: #e8edf4; stroke: #b8c5d4; stroke-width: 0.45"/>
    <path d="M -10.573891 176.979065 
L -10.115521 145.303176 
L 10.613504 145.428701 
L 9.765185 141.992212 
L 11.248328 138.263518 
L 9.498703 133.59442 
L 10.630995 128.766359 
L 9.578956 125.675577 
L 13.012873 125.926111 
L 13.583906 129.020495 
L 18.249403 128.780249 
L 24.570382 129.698533 
L 27.897294 134.218442 
L 35.869126 135.606927 
L 41.955004 132.464186 
L 44.188721 137.680653 
L 51.817418 139.071711 
L 59.574212 148.792653 
L 67.193134 148.874964 
L 66.360763 138.140052 
L 63.628549 139.950382 
L 53.979114 134.304868 
L 56.979868 112.525862 
L 54.751809 108.135593 
L 57.588971 101.780661 
L 60.257394 100.590751 
L 73.628834 98.910575 
L 77.550387 99.923501 
L 81.70905 102.457801 
L 92.003762 105.80053 
L 97.653391 108.789452 
L 102.352326 113.230651 
L 104.883907 121.680916 
L 103.187784 124.378662 
L 101.186595 132.448753 
L 103.0993 140.697355 
L 99.966847 144.162653 
L 96.944486 153.410821 
L 102.179473 155.989217 
L 71.970265 164.194606 
L 72.913757 171.279535 
L 65.373544 172.642298 
L 59.705395 176.60815 
L 58.494907 180.059558 
L 54.931351 180.842543 
L 46.273765 189.029926 
L 40.760464 195.472829 
L 37.399083 195.703814 
L 34.165286 194.557117 
L 23.038366 193.46701 
L 17.245722 189.652918 
L 10.789958 189.079827 
L 2.638586 191.342354 
L -3.857819 185.123749 
z
" clip-path="url(#p1185190427)" style="fill: #e8edf4; stroke: #b8c5d4; stroke-width: 0.45"/>
    <path d="M 96.944486 153.410821 
L 99.966847 144.162653 
L 103.0993 140.697355 
L 101.186595 132.448753 
L 103.187784 124.378662 
L 104.883907 121.680916 
L 102.352326 113.230651 
L 97.653391 108.789452 
L 107.412826 110.646587 
L 112.791372 118.041739 
L 115.578693 131.580885 
L 112.791433 139.146819 
L 115.578693 152.088184 
L 119.034731 151.943111 
L 122.626582 155.15273 
L 126.796669 162.35238 
L 127.643445 175.152787 
L 123.334458 177.249148 
L 120.295634 184.156594 
L 113.799744 178.006925 
L 113.06306 170.989388 
L 115.157363 166.360931 
L 114.579642 162.371929 
L 110.649286 159.852694 
L 107.910384 160.767377 
L 102.179473 155.989217 
z
" clip-path="url(#p1185190427)" style="fill: #e8edf4; stroke: #b8c5d4; stroke-width: 0.45"/>
    <path d="M 71.970265 164.194606 
L 102.179473 155.989217 
L 107.910384 160.767377 
L 110.649286 159.852694 
L 114.579642 162.371929 
L 115.157363 166.360931 
L 113.06306 170.989388 
L 113.799744 178.006925 
L 120.295634 184.156594 
L 123.334458 177.249148 
L 127.643445 175.152787 
L 126.796669 162.35238 
L 122.626582 155.15273 
L 119.034731 151.943111 
L 115.578693 152.088184 
L 112.791433 139.146819 
L 115.578693 131.580885 
L 123.069004 130.775779 
L 135.031896 133.581045 
L 137.630869 132.322714 
L 144.561008 132.066096 
L 148.108511 129.079863 
L 154.080745 129.243249 
L 164.966092 125.377459 
L 172.886262 119.605647 
L 174.496988 124.068967 
L 174.08749 133.986942 
L 175.317527 142.722208 
L 175.703875 158.280038 
L 177.454529 163.155942 
L 170.623221 177.182785 
L 164.284751 183.356118 
L 143.962137 191.972034 
L 132.714324 202.657045 
L 128.88377 204.474578 
L 121.93414 211.548189 
L 117.832474 213.849814 
L 116.991358 220.948118 
L 121.712414 228.487302 
L 123.676563 234.325732 
L 123.800211 237.303931 
L 125.559251 236.806175 
L 125.274428 246.570024 
L 123.660101 251.19488 
L 126.006482 252.899234 
L 124.525911 257.041027 
L 120.36457 260.582462 
L 100.180342 269.33522 
L 95.814252 273.016071 
L 96.667715 277.209822 
L 99.212157 277.879628 
L 98.357665 283.119245 
L 90.807164 283.035905 
L 87.628926 270.596638 
L 89.40273 259.498014 
L 82.044117 238.414022 
L 92.53261 227.114764 
L 95.15782 219.935177 
L 96.661542 219.02924 
L 97.786117 213.168689 
L 96.186195 210.219893 
L 96.613184 202.780512 
L 98.554183 195.881298 
L 98.532062 183.281524 
L 93.36138 180.082708 
L 88.620775 179.359399 
L 86.475027 176.896239 
L 81.861489 174.795248 
L 73.557841 174.993309 
z
" clip-path="url(#p1185190427)" style="fill: #e8edf4; stroke: #b8c5d4; stroke-width: 0.45"/>
    <path d="M 76.919221 279.69356 
L 79.637546 275.956121 
L 80.577436 273.057226 
L 83.455238 272.347807 
L 88.478788 274.170998 
L 90.807164 283.035905 
L 88.780253 287.457041 
L 82.953655 288.531715 
L 77.012336 283.135707 
z
" clip-path="url(#p1185190427)" style="fill: #e8edf4; stroke: #b8c5d4; stroke-width: 0.45"/>
    <path d="M -112.591314 182.880772 
L -111.213117 174.126985 
L -107.778171 165.013087 
L -107.260126 160.740626 
L -104.029929 151.766656 
L -101.656797 147.687112 
L -92.744561 136.743849 
L -91.69921 129.369288 
L -92.220342 123.726861 
L -95.197432 120.167935 
L -100.294033 108.155656 
L -99.759525 106.086561 
L -96.69961 102.139743 
L -101.758142 85.85809 
L -106.745167 79.559747 
L -105.798589 77.624921 
L -95.314211 75.276997 
L -65.937375 75.408695 
L -60.624707 88.796597 
L -54.524424 97.22114 
L -47.941593 96.416034 
L -44.656865 95.015716 
L -39.155911 96.421693 
L -35.166394 88.130906 
L -28.992031 87.741986 
L -28.455466 86.017054 
L -23.376356 85.979499 
L -24.243195 89.566206 
L -12.164039 89.479265 
L -11.981411 95.743141 
L -9.96376 99.583983 
L -11.430441 105.584977 
L -10.69993 111.707381 
L -7.379191 115.401607 
L -7.911641 127.248234 
L 5.045157 125.088596 
L 9.578956 125.675577 
L 10.630995 128.766359 
L 9.498703 133.59442 
L 11.248328 138.263518 
L 9.765185 141.992212 
L 10.613504 145.428701 
L -10.115521 145.303176 
L -10.573891 176.979065 
L -3.857819 185.123749 
L 2.638586 191.342354 
L -15.657631 195.399263 
L -39.75884 193.9902 
L -46.656511 189.220271 
L -87.010563 189.649832 
L -88.515827 190.349476 
L -94.450459 185.848087 
L -100.904164 185.550738 
L -111.65451 189.140017 
z
" clip-path="url(#p1185190427)" style="fill: #e8edf4; stroke: #b8c5d4; stroke-width: 0.45"/>
    <path d="M -109.854983 67.051544 
L -105.836658 62.753361 
L -102.828701 61.078844 
L -99.09795 64.494241 
L -102.720668 66.586487 
L -104.349399 69.145848 
L -104.661152 73.485701 
L -107.193248 74.537226 
z
" clip-path="url(#p1185190427)" style="fill: #e8edf4; stroke: #b8c5d4; stroke-width: 0.45"/>
    <path d="M 60.476547 45.162962 
L 66.521784 45.945432 
L 69.569868 40.277283 
L 74.859162 40.928027 
L 75.436423 44.848003 
L 77.580255 47.104726 
L 77.672141 50.340136 
L 67.7297 61.22186 
L 63.613115 61.695663 
L 62.979834 49.689044 
z
" clip-path="url(#p1185190427)" style="fill: #e8edf4; stroke: #b8c5d4; stroke-width: 0.45"/>
    <path d="M 202.130372 236.481769 
L 203.913436 229.304754 
L 208.496622 227.580851 
L 208.523373 224.267314 
L 213.28147 216.720414 
L 214.178147 210.379886 
L 209.982852 199.38878 
L 209.187521 190.215721 
L 212.66568 184.646345 
L 214.000149 178.332054 
L 218.961966 177.965255 
L 228.200874 174.123384 
L 232.573652 173.989628 
L 238.24746 168.316849 
L 246.439988 162.1857 
L 249.427366 157.177583 
L 248.071805 152.923128 
L 252.300539 154.119725 
L 257.788118 147.201991 
L 257.971774 141.215915 
L 261.268335 136.762884 
L 267.38405 145.271795 
L 269.848239 151.84691 
L 271.450219 163.823177 
L 274.029644 168.479413 
L 273.039853 173.253458 
L 271.279424 176.18219 
L 267.89798 170.34839 
L 266.026431 173.294614 
L 267.925246 180.669689 
L 267.04143 184.890706 
L 264.294297 187.190273 
L 263.667189 195.622532 
L 248.686052 239.807652 
L 244.87299 253.649809 
L 240.373658 265.194457 
L 232.277332 267.552156 
L 223.586821 271.762884 
L 209.950442 265.659515 
L 207.203309 260.406522 
L 206.546363 251.580713 
L 203.040939 243.644379 
z
" clip-path="url(#p1185190427)" style="fill: #e8edf4; stroke: #b8c5d4; stroke-width: 0.45"/>
    <path d="M 65.997051 30.25076 
L 66.080391 22.74553 
L 68.386645 18.941728 
L 68.946875 10.950862 
L 71.041179 6.322405 
L 74.847553 1.130889 
L 78.671933 -1.513098 
L 81.872292 -5.047846 
L 77.882261 -6.395948 
L 78.484601 -18.036339 
L 82.583195 -20.75138 
L 88.913548 -18.525119 
L 96.927111 -20.855112 
L 103.931326 -20.832016 
L 110.053717 -25.41022 
L 114.773733 -18.498539 
L 120.317334 -2.075 
L 116.69477 5.181278 
L 108.944409 15.804637 
L 109.045376 26.355195 
L 77.84755 26.997798 
L 68.406709 31.266273 
z
" clip-path="url(#p1185190427)" style="fill: #e8edf4; stroke: #b8c5d4; stroke-width: 0.45"/>
    <path d="M 60.476547 45.162962 
L 61.397917 39.717053 
L 62.765311 38.949501 
L 63.134167 33.025673 
L 65.997051 30.25076 
L 68.406709 31.266273 
L 74.355744 28.193497 
L 78.308221 33.810716 
L 77.732558 39.667666 
L 74.859162 40.928027 
L 69.569868 40.277283 
L 66.521784 45.945432 
z
" clip-path="url(#p1185190427)" style="fill: #e8edf4; stroke: #b8c5d4; stroke-width: 0.45"/>
   </g>
   <g id="PathCollection_1">
    <defs>
     <path id="mcc22a3a713" d="M 0 2.12132 
C 0.562581 2.12132 1.102195 1.897805 1.5 1.5 
C 1.897805 1.102195 2.12132 0.562581 2.12132 0 
C 2.12132 -0.562581 1.897805 -1.102195 1.5 -1.5 
C 1.102195 -1.897805 0.562581 -2.12132 0 -2.12132 
C -0.562581 -2.12132 -1.102195 -1.897805 -1.5 -1.5 
C -1.897805 -1.102195 -2.12132 -0.562581 -2.12132 0 
C -2.12132 0.562581 -1.897805 1.102195 -1.5 1.5 
C -1.102195 1.897805 -0.562581 2.12132 0 2.12132 
z
" style="stroke: #ffffff; stroke-width: 0.5"/>
    </defs>
    <g clip-path="url(#p1185190427)">
     <use xlink:href="#mcc22a3a713" x="70.18351" y="51.74072" style="fill: #8aa0b7; stroke: #ffffff; stroke-width: 0.5"/>
     <use xlink:href="#mcc22a3a713" x="212.043797" y="138.018322" style="fill: #8aa0b7; stroke: #ffffff; stroke-width: 0.5"/>
     <use xlink:href="#mcc22a3a713" x="55.250849" y="310.573525" style="fill: #8aa0b7; stroke: #ffffff; stroke-width: 0.5"/>
     <use xlink:href="#mcc22a3a713" x="344.446732" y="218.820614" style="fill: #8aa0b7; stroke: #ffffff; stroke-width: 0.5"/>
     <use xlink:href="#mcc22a3a713" x="324.038761" y="227.448374" style="fill: #8aa0b7; stroke: #ffffff; stroke-width: 0.5"/>
     <use xlink:href="#mcc22a3a713" x="70.18351" y="36.808059" style="fill: #8aa0b7; stroke: #ffffff; stroke-width: 0.5"/>
     <use xlink:href="#mcc22a3a713" x="325.697945" y="62.52542" style="fill: #8aa0b7; stroke: #ffffff; stroke-width: 0.5"/>
     <use xlink:href="#mcc22a3a713" x="85.116172" y="280.708201" style="fill: #8aa0b7; stroke: #ffffff; stroke-width: 0.5"/>
     <use xlink:href="#mcc22a3a713" x="221.169313" y="144.65506" style="fill: #8aa0b7; stroke: #ffffff; stroke-width: 0.5"/>
    </g>
   </g>
   <g id="PatchCollection_2">
    <defs>
     <path id="m0f8df38c7a" d="M 202.130372 -195.518231 
L 203.913436 -202.695246 
L 208.496622 -204.419149 
L 208.523373 -207.732686 
L 213.28147 -215.279586 
L 214.178147 -221.620114 
L 209.982852 -232.61122 
L 209.187521 -241.784279 
L 212.66568 -247.353655 
L 214.000149 -253.667946 
L 218.961966 -254.034745 
L 228.200874 -257.876616 
L 232.573652 -258.010372 
L 238.24746 -263.683151 
L 246.439988 -269.8143 
L 249.427366 -274.822417 
L 248.071805 -279.076872 
L 252.300539 -277.880275 
L 257.788118 -284.798009 
L 257.971774 -290.784085 
L 261.268335 -295.237116 
L 267.38405 -286.728205 
L 269.848239 -280.15309 
L 271.450219 -268.176823 
L 274.029644 -263.520587 
L 273.039853 -258.746542 
L 271.279424 -255.81781 
L 267.89798 -261.65161 
L 266.026431 -258.705386 
L 267.925246 -251.330311 
L 267.04143 -247.109294 
L 264.294297 -244.809727 
L 263.667189 -236.377468 
L 248.686052 -192.192348 
L 244.87299 -178.350191 
L 240.373658 -166.805543 
L 232.277332 -164.447844 
L 223.586821 -160.237116 
L 209.950442 -166.340485 
L 207.203309 -171.593478 
L 206.546363 -180.419287 
L 203.040939 -188.355621 
z
" style="stroke: #b45309; stroke-width: 1.15"/>
    </defs>
    <g clip-path="url(#p1185190427)">
     <use xlink:href="#m0f8df38c7a" x="0" y="432" style="fill: #f59e0b; stroke: #b45309; stroke-width: 1.15"/>
    </g>
   </g>
   <g id="PathCollection_2">
    <defs>
     <path id="m645d5e9c62" d="M 0 3.316625 
C 0.879579 3.316625 1.723251 2.967164 2.345208 2.345208 
C 2.967164 1.723251 3.316625 0.879579 3.316625 0 
C 3.316625 -0.879579 2.967164 -1.723251 2.345208 -2.345208 
C 1.723251 -2.967164 0.879579 -3.316625 0 -3.316625 
C -0.879579 -3.316625 -1.723251 -2.967164 -2.345208 -2.345208 
C -2.967164 -1.723251 -3.316625 -0.879579 -3.316625 0 
C -3.316625 0.879579 -2.967164 1.723251 -2.345208 2.345208 
C -1.723251 2.967164 -0.879579 3.316625 0 3.316625 
z
" style="stroke: #ffffff"/>
    </defs>
    <g clip-path="url(#p1185190427)">
     <use xlink:href="#m645d5e9c62" x="239.420344" y="216" style="fill: #f97316; stroke: #ffffff"/>
    </g>
   </g>
   <g id="PathCollection_3">
    <path d="M 239.420344 220.449719 
C 240.600423 220.449719 241.732328 219.980869 242.566771 219.146427 
C 243.401213 218.311984 243.870063 217.180079 243.870063 216 
C 243.870063 214.819921 243.401213 213.688016 242.566771 212.853573 
C 241.732328 212.019131 240.600423 211.550281 239.420344 211.550281 
C 238.240265 211.550281 237.108359 212.019131 236.273917 212.853573 
C 235.439475 213.688016 234.970625 214.819921 234.970625 216 
C 234.970625 217.180079 235.439475 218.311984 236.273917 219.146427 
C 237.108359 219.980869 238.240265 220.449719 239.420344 220.449719 
L 239.420344 220.449719 
z
" clip-path="url(#p1185190427)" style="fill: none; stroke: #7c2d12; stroke-width: 1.1"/>
   </g>
  </g>
 </g>
 <defs>
  <clipPath id="p1185190427">
   <rect x="0" y="0" width="478.840688" height="432"/>
  </clipPath>
 </defs>
</svg>
