<?xml version="1.0" encoding="utf-8" standalone="no"?>
<!DOCTYPE svg PUBLIC "-//W3C//DTD SVG 1.1//EN"
  "http://www.w3.org/Graphics/SVG/1.1/DTD/svg11.dtd">
<svg xmlns:xlink="http://www.w3.org/1999/xlink" width="576pt" height="374.4pt" viewBox="0 0 576 374.4" xmlns="http://www.w3.org/2000/svg" version="1.1">
 <metadata>
  <rdf:RDF xmlns:dc="http://purl.org/dc/elements/1.1/" xmlns:cc="http://creativecommons.org/ns#" xmlns:rdf="http://www.w3.org/1999/02/22-rdf-syntax-ns#">
   <cc:Work>
    <dc:type rdf:resource="http://purl.org/dc/dcmitype/StillImage"/>
    <dc:date>2026-06-09T04:57:08.216101</dc:date>
    <dc:format>image/svg+xml</dc:format>
    <dc:creator>
     <cc:Agent>
      <dc:title>Matplotlib v3.10.8, https://matplotlib.org/</dc:title>
     </cc:Agent>
    </dc:creator>
   </cc:Work>
  </rdf:RDF>
 </metadata>
 <defs>
  <style type="text/css">*{stroke-linejoin: round; stroke-linecap: butt}</style>
 </defs>
 <g id="figure_1">
  <g id="patch_1">
   <path d="M 0 374.4 
L 576 374.4 
L 576 0 
L 0 0 
z
" style="fill: #eaf3ff"/>
  </g>
  <g id="axes_1">
   <g id="PatchCollection_1">
    <path d="M -1306.250138 -122.033208 
L -1300.079724 -126.603347 
L -1304.34984 -140.033808 
L -1294.103531 -148.331881 
L -1296.271872 -150.845328 
L -1279.90512 -158.80392 
L -1294.992 -165.650688 
L -1250.784128 -192.350776 
L -1245.368273 -199.6947 
L -1266.683437 -209.560516 
L -1260.796541 -218.944129 
L -1273.760214 -229.660871 
L -1264.06584 -242.006112 
L -1280.813923 -258.397721 
L -1267.52506 -269.255477 
L -1289.578412 -278.850426 
L -1287.476214 -288.932788 
L -1275.84648 -290.259648 
L -1251.344448 -296.036784 
L -1236.488832 -301.04568 
L -1212.833232 -292.340448 
L -1173.398976 -288.913248 
L -1118.990304 -272.62656 
L -1107.937872 -265.782672 
L -1106.98632 -256.198752 
L -1122.972048 -248.632992 
L -1146.48552 -244.793232 
L -1210.770576 -255.738384 
L -1221.344064 -253.908432 
L -1197.867312 -243.36216 
L -1196.007696 -221.966928 
L -1166.216688 -213.837552 
L -1164.355632 -220.819824 
L -1173.030062 -227.008224 
L -1163.865024 -232.462368 
L -1129.05432 -223.499376 
L -1116.92736 -227.008224 
L -1126.61856 -237.554208 
L -1093.059504 -251.657712 
L -1079.769024 -250.827552 
L -1066.3236 -245.794752 
L -1057.935456 -255.691296 
L -1069.943184 -264.27528 
L -1062.89352 -272.887344 
L -1073.479392 -281.819376 
L -1033.2 -277.2 
L -1024.972704 -269.135568 
L -1043.205552 -267.357888 
L -1043.106912 -259.34472 
L -1031.77224 -254.414448 
L -1009.524096 -257.53752 
L -1006.001856 -266.722272 
L -925.669008 -285.946272 
L -914.807376 -285.23736 
L -929.004192 -276.498864 
L -911.141568 -274.997088 
L -900.825408 -279.916704 
L -873.834912 -280.314432 
L -852.4512 -286.283808 
L -836.043552 -277.609536 
L -819.679104 -287.145936 
L -834.768 -295.488 
L -827.28 -300.24 
L -784.7424 -295.882416 
L -764.811144 -291.381624 
L -712.624896 -274.929552 
L -702.998208 -282.465072 
L -717.632064 -290.078784 
L -718.052832 -293.133456 
L -735.406848 -294.546384 
L -730.659456 -301.373712 
L -738.361152 -312.608016 
L -738.796896 -317.217168 
L -712.223136 -330.2568 
L -702.772416 -343.344384 
L -692.064 -346.176 
L -653.939424 -342.378576 
L -650.937168 -334.368864 
L -664.587216 -322.689312 
L -655.630416 -318.098736 
L -650.996928 -308.032416 
L -654.26832 -288.30024 
L -638.382672 -279.47376 
L -644.56272 -269.86176 
L -672.768 -249.408 
L -656.308656 -247.286448 
L -650.580912 -252.470448 
L -634.737744 -256.168224 
L -630.914256 -263.293776 
L -618.4512 -270.150768 
L -626.842656 -278.337456 
L -620.123904 -287.844192 
L -635.870016 -289.029024 
L -639.333072 -297.037872 
L -627.84288 -311.4972 
L -646.54416 -323.239248 
L -620.772192 -332.945136 
L -624.106656 -343.184688 
L -616.924656 -343.511568 
L -609.357456 -335.528064 
L -615.038688 -321.632064 
L -599.628816 -319.001328 
L -606.194928 -329.385744 
L -582.09624 -335.047248 
L -552.210912 -335.809584 
L -525.6 -327.6 
L -538.405776 -339.59304 
L -539.840304 -354.93408 
L -514.8 -357.84 
L -480.164256 -357.205104 
L -448.95888 -359.091072 
L -460.662336 -366.619248 
L -443.997792 -376.076592 
L -427.453776 -376.472592 
L -399.456 -383.616 
L -361.431648 -385.535952 
L -356.627376 -389.47968 
L -318.816 -390.816 
L -307.033776 -387.582912 
L -274.715424 -395.235216 
L -248.260752 -394.996032 
L -244.291392 -401.211216 
L -230.531904 -407.340576 
L -196.53696 -413.250048 
L -171.840384 -408.584016 
L -191.448 -405.03456 
L -158.830128 -402.828336 
L -154.944 -395.712 
L -141.78528 -399.21624 
L -99.687456 -399.024 
L -67.226256 -392.000256 
L -55.667952 -386.606016 
L -59.250384 -379.120176 
L -113.022 -366.864912 
L -123.84 -362.592 
L -84.683664 -356.943456 
L -71.718624 -359.667792 
L -64.374048 -350.42472 
L -58.049136 -354.166272 
L -35.023392 -356.44104 
L 11.179152 -354.063168 
L 14.688 -347.328 
L 74.889504 -345.185568 
L 75.711888 -356.184432 
L 106.272 -353.664 
L 129.260736 -353.743056 
L 152.514144 -346.157424 
L 159.142608 -336.941568 
L 150.624 -330.912 
L 168.710256 -319.579776 
L 191.355552 -313.732656 
L 205.2504 -328.84272 
L 228.350304 -322.364448 
L 252.891792 -326.2356 
L 280.76472 -321.805872 
L 291.370896 -325.843632 
L 314.925552 -323.824752 
L 304.529904 -337.193136 
L 323.541648 -343.431504 
L 453.6 -334.08 
L 465.856992 -325.532592 
L 503.55216 -314.527968 
L 561.699072 -317.252304 
L 590.368176 -314.880768 
L 602.356464 -308.926656 
L 600.604704 -298.396512 
L 618.343632 -294.296832 
L 637.618608 -297.245376 
L 663.155712 -297.622512 
L 690.341328 -294.796656 
L 717.633648 -296.390736 
L 742.717872 -283.59072 
L 760.563072 -288.196272 
L 748.91808 -297.399744 
L 755.32968 -303.797232 
L 801.272304 -299.770992 
L 831.226032 -300.6324 
L 872.64 -293.76 
L 892.8 -287.476364 
L 892.8 -230.107805 
L 874.18368 -223.702992 
L 855.522432 -224.758224 
L 868.5072 -217.093392 
L 877.0788 -205.228368 
L 883.732896 -201.349728 
L 885.403584 -195.392736 
L 881.6868 -191.57904 
L 854.84592 -194.71536 
L 814.597776 -183.87576 
L 801.793872 -182.197584 
L 758.8584 -163.240992 
L 753.56424 -156.697488 
L 732.966624 -166.65912 
L 695.447712 -155.35512 
L 688.896 -160.704 
L 675.025056 -154.53504 
L 655.765776 -156.509424 
L 651.126384 -147.038544 
L 633.849552 -133.103232 
L 634.362768 -127.283328 
L 650.763504 -124.056432 
L 648.834336 -103.093056 
L 635.465952 -102.559536 
L 629.301024 -90.513792 
L 635.291856 -84.314016 
L 610.110288 -76.958352 
L 605.112912 -60.517008 
L 583.645536 -57.004992 
L 579.328992 -42.374736 
L 558.572976 -28.95912 
L 553.248 -38.88 
L 539.044704 -91.886832 
L 545.967648 -111.858048 
L 558.11736 -120.45168 
L 558.86904 -127.181376 
L 581.246352 -130.4028 
L 606.969216 -148.532688 
L 631.757376 -163.3392 
L 657.643536 -174.82896 
L 669.21912 -195.128784 
L 651.721248 -193.914288 
L 643.073904 -182.052 
L 606.549312 -166.236912 
L 594.753408 -183.945024 
L 557.577792 -179.055648 
L 521.540064 -154.917792 
L 533.43 -146.08728 
L 479.026512 -140.844816 
L 480.06936 -151.257024 
L 457.685424 -153.442512 
L 439.845264 -146.368512 
L 395.815968 -148.843728 
L 348.448608 -144.575712 
L 246.617136 -82.506096 
L 269.304624 -80.69112 
L 276.385248 -71.673408 
L 290.37168 -68.472144 
L 299.586672 -75.66552 
L 315.381744 -74.731392 
L 336.172464 -58.889808 
L 336.660912 -46.638288 
L 325.402848 -32.251248 
L 324.188352 -15.055632 
L 317.691792 7.967376 
L 295.987968 28.80504 
L 291.163824 38.76552 
L 242.919216 80.665776 
L 223.730928 89.114832 
L 214.650288 89.301744 
L 205.604208 82.302336 
L 186.276528 92.840544 
L 184.032 97.632 
L 182.016 95.112 
L 181.927676 87.796589 
L 189.283506 87.408148 
L 191.355194 70.394117 
L 187.562736 58.061376 
L 199.921741 52.975273 
L 217.398528 55.525104 
L 227.082874 41.516251 
L 232.01784 25.740288 
L 237.611664 20.47032 
L 245.178885 7.51349 
L 221.37978 11.75844 
L 208.896336 17.438976 
L 187.016544 17.422128 
L 181.185024 3.892501 
L 164.128577 -6.344641 
L 139.06656 -10.947888 
L 133.739362 -25.053081 
L 114.427424 -54.616299 
L 101.782243 -59.919046 
L 80.229168 -64.20672 
L 61.13877 -63.816854 
L 43.24442 -61.220175 
L 31.350077 -54.055962 
L 39.251362 -50.633659 
L 39.43008 -42.683184 
L 31.421952 -38.06712 
L 18.423216 -22.794048 
L 18.553834 -16.457512 
L -1.73888 -7.358161 
L -19.025267 -12.794852 
L -36.205986 -11.594553 
L -43.745619 -16.419561 
L -52.380626 -17.975559 
L -73.472548 -7.827341 
L -92.430275 -5.442743 
L -105.667048 -1.873844 
L -123.804732 -4.218631 
L -137.157591 -4.068687 
L -145.898267 -11.429354 
L -160.00122 -18.349862 
L -174.433083 -20.246676 
L -206.257746 -15.695512 
L -226.715184 -21.752064 
L -229.460976 -32.542704 
L -259.463056 -37.92969 
L -275.594537 -43.882071 
L -290.509347 -28.958331 
L -284.662634 -20.482569 
L -298.659456 -10.45512 
L -319.478112 -14.075424 
L -333.85033 -14.59344 
L -343.475044 -21.319727 
L -358.499376 -21.532176 
L -371.020154 -25.951258 
L -392.923189 -19.17809 
L -420.399837 -6.775499 
L -441.216427 -3.095723 
L -448.857263 -11.904116 
L -467.405712 -9.977164 
L -473.535943 -16.089163 
L -483.604166 -18.884155 
L -490.534347 -27.205135 
L -498.484746 -29.796233 
L -519.177808 -26.095622 
L -539.014365 -34.392046 
L -546.687943 -26.852413 
L -578.866816 -63.423576 
L -597.237416 -74.54885 
L -591.968156 -79.063551 
L -628.058592 -65.47464 
L -641.870226 -64.653268 
L -640.677369 -72.512881 
L -659.17224 -77.423837 
L -674.206113 -73.919307 
L -678.740162 -88.844164 
L -704.618396 -91.947602 
L -717.564955 -85.973641 
L -753.597072 -80.658 
L -760.629117 -77.10088 
L -814.51296 -72.09 
L -821.115843 -67.175905 
L -810.720199 -57.311949 
L -824.544099 -53.567805 
L -821.847333 -49.644696 
L -835.667513 -42.630054 
L -812.332751 -32.726287 
L -815.941089 -25.90661 
L -836.167576 -26.527595 
L -840.351134 -22.254368 
L -858.768192 -29.716416 
L -881.597088 -29.42712 
L -896.876064 -23.352624 
L -945.66638 -39.148592 
L -968.160263 -38.775778 
L -997.885705 -23.11385 
L -999.679083 -12.596539 
L -1014.487482 -20.947657 
L -1025.977013 -5.126483 
L -1021.77113 -2.18936 
L -1030.083181 8.724206 
L -1017.860544 18.49176 
L -1007.1756 18.089712 
L -997.995837 27.710954 
L -999.4572 35.121024 
L -992.143296 37.449648 
L -998.706096 45.989424 
L -1012.666896 48.362544 
L -1026.979056 63.22752 
L -1013.890464 76.893696 
L -1015.307712 86.593248 
L -999.585072 103.552128 
L -1008.183123 109.356204 
L -1010.654414 113.019608 
L -1017.024257 112.035854 
L -1026.920583 103.289225 
L -1040.01984 99.468864 
L -1044.42798 93.559958 
L -1057.85823 90.547305 
L -1066.590576 92.808576 
L -1069.113744 90.132048 
L -1088.72064 83.22768 
L -1122.091705 78.4353 
L -1123.847876 80.136034 
L -1142.208 67.968 
L -1158.636672 62.536176 
L -1171.073376 54.076464 
L -1160.594352 51.775056 
L -1148.64552 39.731472 
L -1156.698432 34.033392 
L -1135.473552 28.1556 
L -1135.85472 25.007616 
L -1148.781052 27.328466 
L -1148.326382 20.931833 
L -1140.903792 16.911072 
L -1126.968802 15.855306 
L -1124.703072 11.053296 
L -1127.88504 3.112992 
L -1122.036638 -4.426991 
L -1122.205824 -8.65512 
L -1143.432169 -13.341051 
L -1151.846912 -13.185526 
L -1160.734183 -19.928928 
L -1171.783183 -17.648509 
L -1190.071927 -22.711642 
L -1189.758096 -25.544736 
L -1194.880564 -31.789042 
L -1206.362654 -32.486301 
L -1207.555511 -36.956354 
L -1203.95908 -39.871897 
L -1213.161123 -48.025074 
L -1228.093048 -46.633903 
L -1232.466363 -47.357208 
L -1236.104064 -44.082 
L -1241.482032 -44.664192 
L -1245.023736 -53.885553 
L -1248.405111 -58.665541 
L -1245.633984 -60.010992 
L -1234.014919 -59.511256 
L -1228.411541 -62.66046 
L -1232.55938 -66.499853 
L -1242.269671 -69.034024 
L -1241.403492 -71.634796 
L -1247.263599 -74.261612 
L -1256.291513 -83.689502 
L -1253.205562 -87.574288 
L -1254.615708 -94.334061 
L -1268.693361 -97.76827 
L -1276.249365 -96.049305 
L -1278.295007 -99.624157 
L -1293.455384 -103.235471 
L -1298.083939 -111.734301 
L -1299.311771 -118.717317 
z
" clip-path="url(#pa5022d1ae3)" style="fill: #e8edf4; stroke: #b8c5d4; stroke-width: 0.45"/>
    <path d="M -958.237148 -331.414288 
L -943.512837 -334.50396 
L -944.00397 -342.356131 
L -915.442365 -354.636684 
L -928.680626 -356.397321 
L -894.204591 -369.035805 
L -898.100167 -375.572337 
L -865.891529 -383.175221 
L -818.351361 -392.427122 
L -770.423496 -395.122399 
L -745.761931 -400.460864 
L -717.738339 -402.331633 
L -707.72816 -396.645283 
L -717.399755 -392.16444 
L -812.397492 -378.156737 
L -857.130017 -364.450411 
L -901.161562 -336.546254 
L -898.231136 -324.584565 
L -870.686027 -312.774681 
L -879.192298 -311.511503 
L -926.245798 -313.382272 
L -930.06696 -319.775928 
L -956.132718 -323.63653 
z
" clip-path="url(#pa5022d1ae3)" style="fill: #e8edf4; stroke: #b8c5d4; stroke-width: 0.45"/>
    <path d="M -4291.2 -230.107805 
L -4291.2 -287.476364 
L -4255.92 -276.48 
L -4218.1668 -262.164816 
L -4219.4052 -253.21464 
L -4209.693552 -249.632064 
L -4213.034208 -260.095536 
L -4173.945264 -257.948352 
L -4145.753952 -244.472256 
L -4160.031408 -238.196016 
L -4183.6356 -236.705904 
L -4183.992 -222.635376 
L -4189.756752 -219.638736 
L -4203.242496 -220.06944 
L -4214.216448 -225.09 
L -4233.362832 -229.289472 
L -4236.583104 -235.536048 
L -4251.206304 -237.891456 
L -4267.582992 -236.023488 
L -4275.407808 -241.062336 
L -4272.279984 -246.414384 
L -4289.526288 -242.993664 
L -4283.030592 -236.219184 
z
" clip-path="url(#pa5022d1ae3)" style="fill: #e8edf4; stroke: #b8c5d4; stroke-width: 0.45"/>
    <path d="M 339.754694 -42.270262 
L 341.028663 -61.948317 
L 354.33985 -68.574889 
L 348.620385 -75.246854 
L 355.028924 -77.268684 
L 363.756206 -53.86695 
L 363.387856 -39.695908 
L 369.331307 -25.165446 
L 383.819725 0.339974 
L 362.504561 -4.41434 
L 353.644823 16.39332 
L 367.682292 31.151117 
L 367.275991 41.21413 
L 356.366889 32.532986 
L 346.925233 43.678724 
L 344.259721 31.594624 
L 345.865577 17.566085 
L 344.224002 2.027685 
L 347.55552 -8.858348 
L 348.19176 -28.113731 
z
" clip-path="url(#pa5022d1ae3)" style="fill: #e8edf4; stroke: #b8c5d4; stroke-width: 0.45"/>
    <path d="M -1231.859888 52.884488 
L -1229.316416 50.123726 
L -1215.530466 45.337413 
L -1217.721771 43.60439 
L -1213.927749 40.038151 
L -1199.05895 43.694413 
L -1197.190193 46.538173 
L -1195.017711 46.976757 
L -1194.900656 48.222447 
L -1187.855876 51.696095 
L -1173.168029 50.832148 
L -1175.980136 55.969695 
L -1191.744011 58.464054 
L -1211.291841 66.794708 
L -1219.299539 63.865771 
L -1216.124291 57.0993 
z
" clip-path="url(#pa5022d1ae3)" style="fill: #e8edf4; stroke: #b8c5d4; stroke-width: 0.45"/>
    <path d="M -1053.403804 -454.893262 
L -1025.292404 -457.515614 
L -1003.413925 -457.689743 
L -1000.471593 -453.809794 
L -992.20047 -457.257397 
L -978.627345 -459.63195 
L -957.269765 -456.476049 
L -962.838914 -454.280835 
L -995.120478 -451.289761 
L -997.128914 -448.926743 
L -1013.959886 -446.546609 
L -1029.559306 -449.960354 
L -1021.356644 -454.455708 
z
" clip-path="url(#pa5022d1ae3)" style="fill: #e8edf4; stroke: #b8c5d4; stroke-width: 0.45"/>
    <path d="M -386.192592 -451.317024 
L -348.801696 -461.15424 
L -317.651112 -464.40576 
L -289.67256 -457.15644 
L -256.512168 -443.233944 
L -260.067456 -430.285536 
L -291.485664 -428.48928 
L -331.594704 -432.644328 
L -355.494528 -438.1416 
L -366.54624 -448.470576 
z
" clip-path="url(#pa5022d1ae3)" style="fill: #e8edf4; stroke: #b8c5d4; stroke-width: 0.45"/>
    <path d="M 273.231216 -378.168048 
L 280.969344 -388.068048 
L 299.96748 -390.769344 
L 337.991256 -390.137616 
L 390.042504 -382.5018 
L 378.72 -371.808 
L 325.638864 -372.206592 
L 301.758336 -368.805312 
z
" clip-path="url(#pa5022d1ae3)" style="fill: #e8edf4; stroke: #b8c5d4; stroke-width: 0.45"/>
    <path d="M -1416.086783 -78.135608 
L -1412.805867 -84.47271 
L -1392.934335 -89.142936 
L -1377.853582 -86.620299 
L -1371.488203 -84.334671 
L -1373.024853 -80.39147 
L -1371.872179 -76.716532 
L -1398.351679 -76.500359 
z
" clip-path="url(#pa5022d1ae3)" style="fill: #e8edf4; stroke: #b8c5d4; stroke-width: 0.45"/>
    <path d="M 314.828928 -350.925552 
L 328.488624 -356.616864 
L 346.493808 -357.949152 
L 366.952752 -352.4436 
L 368.69544 -348.659136 
L 346.861872 -348.558336 
z
" clip-path="url(#pa5022d1ae3)" style="fill: #e8edf4; stroke: #b8c5d4; stroke-width: 0.45"/>
    <path d="M -267.290784 -416.4624 
L -240.98544 -435.369456 
L -229.15656 -436.988304 
L -218.335464 -436.050576 
L -181.837008 -427.872096 
L -186.113232 -422.019216 
z
" clip-path="url(#pa5022d1ae3)" style="fill: #e8edf4; stroke: #b8c5d4; stroke-width: 0.45"/>
    <path d="M -4291.2 -314.383669 
L -4291.2 -324.226286 
L -4277.150352 -324.799632 
L -4256.322408 -320.680512 
L -4257.55548 -318.711888 
L -4272.390432 -315.259488 
z
" clip-path="url(#pa5022d1ae3)" style="fill: #e8edf4; stroke: #b8c5d4; stroke-width: 0.45"/>
    <path d="M 404.916336 -376.890912 
L 408.362184 -381.554208 
L 471.336048 -375.610464 
L 454.69332 -369.920448 
L 431.675496 -371.208312 
z
" clip-path="url(#pa5022d1ae3)" style="fill: #e8edf4; stroke: #b8c5d4; stroke-width: 0.45"/>
    <path d="M 874.44432 -318.22272 
L 892.8 -324.226286 
L 892.8 -314.383669 
L 877.00932 -313.648416 
z
" clip-path="url(#pa5022d1ae3)" style="fill: #e8edf4; stroke: #b8c5d4; stroke-width: 0.45"/>
    <path d="M 90.224995 130.629696 
L 101.951163 121.394538 
L 117.82145 113.65436 
L 127.714799 103.441402 
L 134.550475 107.954615 
L 147.001436 108.47849 
L 144.751899 100.882302 
L 166.99203 94.680262 
L 172.717448 86.610429 
L 184.031889 97.631862 
L 178.56044 96.767949 
L 168.010014 106.544096 
L 168.554725 116.887279 
L 161.108854 120.069968 
L 153.120504 126.866204 
L 143.530764 129.23406 
L 137.281471 133.101359 
L 136.830522 139.335397 
L 135.150252 140.925997 
L 140.880135 143.267064 
L 149.035917 149.583702 
L 146.962741 153.06628 
L 130.655643 154.711947 
L 125.045567 161.211271 
L 118.61768 160.698558 
L 117.716526 162.004525 
L 110.723092 159.263855 
L 108.985524 161.969922 
L 104.764758 163.165384 
L 104.257254 160.455968 
L 96.655114 156.839817 
L 100.598315 150.501971 
L 103.996061 148.811656 
L 102.713163 146.180746 
L 106.366893 138.413407 
L 105.424067 136.060062 
L 97.019743 134.491041 
z
" clip-path="url(#pa5022d1ae3)" style="fill: #e8edf4; stroke: #b8c5d4; stroke-width: 0.45"/>
    <path d="M 184.032053 97.631887 
L 184.03207 97.631851 
L 184.032106 97.631896 
z
" clip-path="url(#pa5022d1ae3)" style="fill: #e8edf4; stroke: #b8c5d4; stroke-width: 0.45"/>
    <path d="M 116.89053 176.75302 
L 127.586063 174.327494 
L 117.716526 162.004525 
L 118.61768 160.698558 
L 125.045567 161.211271 
L 130.655643 154.711947 
L 146.962741 153.06628 
L 149.035917 149.583702 
L 161.466042 166.573548 
L 165.030475 175.907676 
L 165.143584 192.497175 
L 159.715823 200.412227 
L 146.676247 203.17857 
L 135.165879 209.150298 
L 122.194764 210.383339 
L 120.584444 202.542329 
L 123.252932 191.742617 
z
" clip-path="url(#pa5022d1ae3)" style="fill: #e8edf4; stroke: #b8c5d4; stroke-width: 0.45"/>
    <path d="M -435.581794 -4.279651 
L -420.399837 -6.775499 
L -392.923189 -19.17809 
L -371.020154 -25.951258 
L -358.499376 -21.532176 
L -343.475044 -21.319727 
L -333.85033 -14.59344 
L -319.478112 -14.075424 
L -298.659456 -10.45512 
L -284.662634 -20.482569 
L -290.509347 -28.958331 
L -275.594537 -43.882071 
L -259.463056 -37.92969 
L -229.460976 -32.542704 
L -226.715184 -21.752064 
L -206.257746 -15.695512 
L -174.433083 -20.246676 
L -160.00122 -18.349862 
L -145.898267 -11.429354 
L -137.157591 -4.068687 
L -123.804732 -4.218631 
L -105.667048 -1.873844 
L -92.430275 -5.442743 
L -73.472548 -7.827341 
L -52.380626 -17.975559 
L -43.745619 -16.419561 
L -36.205986 -11.594553 
L -19.025267 -12.794852 
L -36.211939 12.450491 
L -32.503142 18.337759 
L -24.351082 16.510894 
L -10.144693 18.75299 
L 0.923655 13.439081 
L 12.47867 18.042335 
L 25.528665 28.107954 
L 23.951086 33.225409 
L 12.590292 31.602066 
L -8.327501 33.512647 
L -18.462697 37.609885 
L -29.014611 47.127816 
L -50.971224 52.706638 
L -65.319744 60.351939 
L -88.224392 56.130057 
L -95.783373 65.412839 
L -91.184583 70.946269 
L -88.853935 75.699095 
L -98.932576 80.54159 
L -109.265712 88.254236 
L -126.09222 93.319973 
L -147.675275 93.866172 
L -170.937855 98.865681 
L -187.704087 106.597302 
L -194.07914 102.119808 
L -211.503193 102.132458 
L -232.804218 93.385829 
L -247.019537 91.241216 
L -266.172228 93.244443 
L -295.894693 90.015989 
L -311.768701 90.350852 
L -320.22065 81.799932 
L -326.780994 68.524835 
L -335.679427 66.926421 
L -353.077435 57.953202 
L -389.58423 53.480544 
L -394.764937 47.236088 
L -389.220345 30.410697 
L -399.156111 18.812893 
L -419.698113 13.405223 
L -431.800816 5.767736 
z
" clip-path="url(#pa5022d1ae3)" style="fill: #e8edf4; stroke: #b8c5d4; stroke-width: 0.45"/>
    <path d="M -638.274539 137.790189 
L -634.175812 134.495878 
L -636.159691 131.126782 
L -622.413181 124.323476 
L -612.463277 121.50616 
L -597.2203 123.437577 
L -591.775423 114.242603 
L -573.304365 112.531452 
L -568.171283 106.815707 
L -545.480203 99.015253 
L -543.45614 95.76001 
L -544.605837 87.551023 
L -534.726626 83.802787 
L -547.688068 58.787755 
L -519.162181 53.034804 
L -511.791468 49.829046 
L -501.401033 24.04755 
L -472.834218 28.786238 
L -464.825033 22.27724 
L -464.137447 7.837191 
L -452.177619 6.491785 
L -441.216427 -3.095723 
L -435.581794 -4.279651 
L -431.800816 5.767736 
L -419.698113 13.405223 
L -399.156111 18.812893 
L -389.220345 30.410697 
L -394.764937 47.236088 
L -389.58423 53.480544 
L -353.077435 57.953202 
L -335.679427 66.926421 
L -326.780994 68.524835 
L -320.22065 81.799932 
L -311.768701 90.350852 
L -295.894693 90.015989 
L -266.172228 93.244443 
L -247.019537 91.241216 
L -232.804218 93.385829 
L -211.503193 102.132458 
L -194.07914 102.119808 
L -187.704087 106.597302 
L -170.937855 98.865681 
L -147.675275 93.866172 
L -126.09222 93.319973 
L -109.265712 88.254236 
L -98.932576 80.54159 
L -88.853935 75.699095 
L -91.184583 70.946269 
L -95.783373 65.412839 
L -88.224392 56.130057 
L -65.319744 60.351939 
L -50.971224 52.706638 
L -29.014611 47.127816 
L -18.462697 37.609885 
L -8.327501 33.512647 
L 12.590292 31.602066 
L 23.951086 33.225409 
L 25.528665 28.107954 
L 12.47867 18.042335 
L 0.923655 13.439081 
L -10.144693 18.75299 
L -24.351082 16.510894 
L -32.503142 18.337759 
L -36.211939 12.450491 
L -19.025267 -12.794852 
L -1.73888 -7.358161 
L 18.553834 -16.457512 
L 18.423216 -22.794048 
L 31.421952 -38.06712 
L 39.43008 -42.683184 
L 39.251362 -50.633659 
L 31.350077 -54.055962 
L 43.24442 -61.220175 
L 61.13877 -63.816854 
L 80.229168 -64.20672 
L 101.782243 -59.919046 
L 114.427424 -54.616299 
L 133.739362 -25.053081 
L 139.06656 -10.947888 
L 164.128577 -6.344641 
L 181.185024 3.892501 
L 187.016544 17.422128 
L 208.896336 17.438976 
L 221.37978 11.75844 
L 245.178885 7.51349 
L 237.611664 20.47032 
L 232.01784 25.740288 
L 227.082874 41.516251 
L 217.398528 55.525104 
L 199.921741 52.975273 
L 187.562736 58.061376 
L 191.355194 70.394117 
L 189.283506 87.408148 
L 181.927676 87.796589 
L 182.015996 95.11165 
L 172.717448 86.610429 
L 166.99203 94.680262 
L 144.751899 100.882302 
L 147.001436 108.47849 
L 134.550475 107.954615 
L 127.714799 103.441402 
L 117.82145 113.65436 
L 101.951163 121.394538 
L 90.224995 130.629696 
L 70.093014 134.815859 
L 59.491987 141.545495 
L 43.985584 145.476417 
L 51.638327 138.803708 
L 48.625301 133.196237 
L 60.027768 123.516828 
L 52.421163 115.971986 
L 39.868254 121.05521 
L 23.61027 131.067995 
L 14.737881 140.366404 
L 0.615581 141.058454 
L -6.729087 147.778044 
L 0.859659 157.514752 
L 12.645358 159.878515 
L 13.127561 166.342121 
L 24.520354 170.548003 
L 40.657788 160.26584 
L 53.442124 165.871824 
L 62.754299 166.255428 
L 65.087924 173.799154 
L 44.699959 177.820862 
L 37.972928 185.595271 
L 23.96969 192.819016 
L 16.577397 202.898029 
L 32.076358 210.81122 
L 37.733315 224.975193 
L 46.497803 238.171411 
L 56.277299 249.232689 
L 56.043639 259.929338 
L 47.005307 263.861749 
L 50.450678 271.542025 
L 58.92644 276.011705 
L 56.713366 287.740478 
L 53.055915 299.152619 
L 45.009522 300.446307 
L 22.831155 334.93276 
L 9.458948 352.117572 
L -30.373412 377.526625 
L -46.600886 379.179734 
L -55.403326 385.577855 
L -60.382371 380.903908 
L -68.528478 388.060308 
L -88.652273 395.272891 
L -103.889296 397.481128 
L -108.805833 412.68913 
L -116.785998 413.532614 
L -120.561767 403.081531 
L -117.151371 397.511266 
L -136.471494 392.900943 
L -143.277404 395.24573 
L -157.774751 391.508656 
L -164.631263 385.65785 
L -162.354193 377.362542 
L -175.518041 374.732749 
L -182.459384 369.330288 
L -194.73324 377.004239 
L -208.73499 378.665905 
L -220.219312 378.593351 
L -235.410943 384.217938 
L -233.235076 400.689119 
L -240.91163 400.296212 
L -242.639525 390.960224 
L -253.201857 395.152712 
L -270.131056 387.096274 
L -265.939312 375.133841 
L -275.058011 372.344802 
L -278.49222 359.088681 
L -293.692037 361.477372 
L -291.96563 344.395624 
L -278.325533 332.370684 
L -278.169263 309.473105 
L -284.454275 306.040012 
L -289.267376 297.56239 
L -297.68956 298.633208 
L -313.216798 296.481154 
L -308.353095 290.433895 
L -315.105427 281.479651 
L -325.370847 287.543281 
L -337.449738 284.004892 
L -354.047794 293.174937 
L -367.155087 303.884981 
L -378.768146 305.686917 
L -385.072505 301.815154 
L -392.680599 301.464663 
L -402.972064 298.131286 
L -410.748333 301.784272 
L -420.274822 312.489851 
L -421.483306 301.149148 
L -430.265654 304.1778 
L -447.054955 302.77063 
L -463.344193 299.468506 
L -475.03241 293.144055 
L -486.222052 290.305531 
L -491.054501 283.388744 
L -499.145542 281.322265 
L -513.683818 271.94014 
L -525.228416 267.512875 
L -531.197912 270.957874 
L -551.212318 260.888908 
L -565.359919 251.770953 
L -569.398371 235.898433 
L -559.063746 237.833571 
L -558.59196 230.480717 
L -564.320355 223.110748 
L -562.863328 211.364117 
L -578.340708 194.486263 
L -602.022984 188.662991 
L -606.284677 177.597992 
L -616.9244 170.884355 
L -619.487964 166.752142 
L -621.648205 158.543899 
L -621.146654 152.944613 
L -629.891794 149.666301 
L -634.624529 151.116259 
z
" clip-path="url(#pa5022d1ae3)" style="fill: #e8edf4; stroke: #b8c5d4; stroke-width: 0.45"/>
    <path d="M -134.982468 426.702414 
L -127.885599 420.177045 
L -112.152978 416.141943 
L -103.873669 416.483503 
L -100.655261 421.97861 
L -106.982689 428.315339 
L -110.315695 436.631111 
L -122.756982 443.553107 
L -134.565005 439.089379 
z
" clip-path="url(#pa5022d1ae3)" style="fill: #e8edf4; stroke: #b8c5d4; stroke-width: 0.45"/>
    <path d="M 30.329116 366.389817 
L 38.803389 352.246308 
L 50.328639 341.345392 
L 56.897913 345.634619 
L 45.729106 377.411656 
L 39.557948 389.223772 
L 31.969202 377.066002 
z
" clip-path="url(#pa5022d1ae3)" style="fill: #e8edf4; stroke: #b8c5d4; stroke-width: 0.45"/>
    <path d="M 164.28187 226.136796 
L 177.896667 221.70023 
L 185.449694 212.648503 
L 199.932903 205.204121 
L 210.494491 195.35914 
L 239.159532 191.064704 
L 254.556545 194.009269 
L 269.623161 168.408227 
L 279.224807 175.285575 
L 308.540227 155.290144 
L 317.588977 137.681172 
L 315.120663 121.4883 
L 321.203268 112.391925 
L 336.513217 109.748738 
L 344.365389 129.720728 
L 343.938252 141.39555 
L 330.616647 155.894386 
L 330.859981 170.75413 
L 325.436684 182.246638 
L 327.94667 189.46257 
L 320.447221 199.61116 
L 302.0476 206.38656 
L 276.733424 207.269483 
L 256.218956 223.706805 
L 246.542151 218.173375 
L 245.943862 207.409753 
L 220.900553 210.58649 
L 203.8575 217.368959 
L 187.000483 217.645036 
L 201.600522 228.24011 
L 191.992178 252.714895 
L 182.682979 258.77406 
L 175.714846 253.177378 
L 179.246538 240.199566 
L 170.131559 236.011542 
z
" clip-path="url(#pa5022d1ae3)" style="fill: #e8edf4; stroke: #b8c5d4; stroke-width: 0.45"/>
    <path d="M 314.172627 92.681872 
L 321.294053 81.600874 
L 336.679905 80.800923 
L 340.876114 60.881395 
L 345.134086 49.658638 
L 362.057333 64.650839 
L 383.233342 72.563287 
L 393.419883 66.459845 
L 396.621176 82.625928 
L 375.259131 86.567641 
L 362.647436 100.868908 
L 340.005469 91.025415 
L 332.168924 106.781849 
L 316.15353 106.998394 
z
" clip-path="url(#pa5022d1ae3)" style="fill: #e8edf4; stroke: #b8c5d4; stroke-width: 0.45"/>
    <path d="M 206.828854 230.552899 
L 206.94494 223.723548 
L 214.910965 215.131701 
L 223.098745 216.797459 
L 229.019127 210.744992 
L 239.593366 213.851035 
L 241.435858 218.78878 
L 233.32919 227.503038 
L 227.418481 222.883413 
L 220.035862 226.230186 
L 216.213956 234.65423 
z
" clip-path="url(#pa5022d1ae3)" style="fill: #e8edf4; stroke: #b8c5d4; stroke-width: 0.45"/>
   </g>
   <g id="PathCollection_1">
    <defs>
     <path id="md9089c45fb" d="M 0 2.12132 
C 0.562581 2.12132 1.102195 1.897805 1.5 1.5 
C 1.897805 1.102195 2.12132 0.562581 2.12132 0 
C 2.12132 -0.562581 1.897805 -1.102195 1.5 -1.5 
C 1.102195 -1.897805 0.562581 -2.12132 0 -2.12132 
C -0.562581 -2.12132 -1.102195 -1.897805 -1.5 -1.5 
C -1.897805 -1.102195 -2.12132 -0.562581 -2.12132 0 
C -2.12132 0.562581 -1.897805 1.102195 -1.5 1.5 
C -1.102195 1.897805 -0.562581 2.12132 0 2.12132 
z
" style="stroke: #ffffff; stroke-width: 0.5"/>
    </defs>
    <g clip-path="url(#pa5022d1ae3)">
     <use xlink:href="#md9089c45fb" x="43.2" y="367.2" style="fill: #8aa0b7; stroke: #ffffff; stroke-width: 0.5"/>
    </g>
   </g>
   <g id="PatchCollection_2">
    <path d="M 164.28187 226.136796 
L 177.896667 221.70023 
L 185.449694 212.648503 
L 199.932903 205.204121 
L 210.494491 195.35914 
L 239.159532 191.064704 
L 254.556545 194.009269 
L 269.623161 168.408227 
L 279.224807 175.285575 
L 308.540227 155.290144 
L 317.588977 137.681172 
L 315.120663 121.4883 
L 321.203268 112.391925 
L 336.513217 109.748738 
L 344.365389 129.720728 
L 343.938252 141.39555 
L 330.616647 155.894386 
L 330.859981 170.75413 
L 325.436684 182.246638 
L 327.94667 189.46257 
L 320.447221 199.61116 
L 302.0476 206.38656 
L 276.733424 207.269483 
L 256.218956 223.706805 
L 246.542151 218.173375 
L 245.943862 207.409753 
L 220.900553 210.58649 
L 203.8575 217.368959 
L 187.000483 217.645036 
L 201.600522 228.24011 
L 191.992178 252.714895 
L 182.682979 258.77406 
L 175.714846 253.177378 
L 179.246538 240.199566 
L 170.131559 236.011542 
z
" clip-path="url(#pa5022d1ae3)" style="fill: #f59e0b; stroke: #b45309; stroke-width: 1.15"/>
    <path d="M 314.172627 92.681872 
L 321.294053 81.600874 
L 336.679905 80.800923 
L 340.876114 60.881395 
L 345.134086 49.658638 
L 362.057333 64.650839 
L 383.233342 72.563287 
L 393.419883 66.459845 
L 396.621176 82.625928 
L 375.259131 86.567641 
L 362.647436 100.868908 
L 340.005469 91.025415 
L 332.168924 106.781849 
L 316.15353 106.998394 
z
" clip-path="url(#pa5022d1ae3)" style="fill: #f59e0b; stroke: #b45309; stroke-width: 1.15"/>
    <path d="M 206.828854 230.552899 
L 206.94494 223.723548 
L 214.910965 215.131701 
L 223.098745 216.797459 
L 229.019127 210.744992 
L 239.593366 213.851035 
L 241.435858 218.78878 
L 233.32919 227.503038 
L 227.418481 222.883413 
L 220.035862 226.230186 
L 216.213956 234.65423 
z
" clip-path="url(#pa5022d1ae3)" style="fill: #f59e0b; stroke: #b45309; stroke-width: 1.15"/>
   </g>
   <g id="PathCollection_2">
    <path d="M 288 191.335215 
C 289.096672 191.335215 290.148574 190.899502 290.924038 190.124038 
C 291.699502 189.348574 292.135215 188.296672 292.135215 187.2 
C 292.135215 186.103328 291.699502 185.051426 290.924038 184.275962 
C 290.148574 183.500498 289.096672 183.064785 288 183.064785 
C 286.903328 183.064785 285.851426 183.500498 285.075962 184.275962 
C 284.300498 185.051426 283.864785 186.103328 283.864785 187.2 
C 283.864785 188.296672 284.300498 189.348574 285.075962 190.124038 
C 285.851426 190.899502 286.903328 191.335215 288 191.335215 
L 288 191.335215 
z
" clip-path="url(#pa5022d1ae3)" style="fill: none; stroke: #7c2d12; stroke-width: 1.1"/>
   </g>
  </g>
 </g>
 <defs>
  <clipPath id="pa5022d1ae3">
   <rect x="0" y="0" width="576" height="374.4"/>
  </clipPath>
 </defs>
</svg>
