<?xml version="1.0" encoding="utf-8" standalone="no"?>
<!DOCTYPE svg PUBLIC "-//W3C//DTD SVG 1.1//EN"
  "http://www.w3.org/Graphics/SVG/1.1/DTD/svg11.dtd">
<svg xmlns:xlink="http://www.w3.org/1999/xlink" width="576pt" height="422.414473pt" viewBox="0 0 576 422.414473" xmlns="http://www.w3.org/2000/svg" version="1.1">
 <metadata>
  <rdf:RDF xmlns:dc="http://purl.org/dc/elements/1.1/" xmlns:cc="http://creativecommons.org/ns#" xmlns:rdf="http://www.w3.org/1999/02/22-rdf-syntax-ns#">
   <cc:Work>
    <dc:type rdf:resource="http://purl.org/dc/dcmitype/StillImage"/>
    <dc:date>2026-06-09T04:57:13.794418</dc:date>
    <dc:format>image/svg+xml</dc:format>
    <dc:creator>
     <cc:Agent>
      <dc:title>Matplotlib v3.10.8, https://matplotlib.org/</dc:title>
     </cc:Agent>
    </dc:creator>
   </cc:Work>
  </rdf:RDF>
 </metadata>
 <defs>
  <style type="text/css">*{stroke-linejoin: round; stroke-linecap: butt}</style>
 </defs>
 <g id="figure_1">
  <g id="patch_1">
   <path d="M 0 422.414473 
L 576 422.414473 
L 576 0 
L 0 0 
z
" style="fill: #eaf3ff"/>
  </g>
  <g id="axes_1">
   <g id="PatchCollection_1">
    <path d="M -55.726947 60.353493 
L -55.137304 54.55841 
L -24.013091 53.484721 
L -22.365705 48.542919 
L -16.747444 42.382143 
L -12.220943 23.444827 
L 6.84394 8.645642 
L 13.29245 -8.644643 
L 17.5787 -9.648878 
L 22.044961 -20.336864 
L 33.582685 -21.809553 
L 38.54504 -20.028577 
L 44.772434 -20.028577 
L 49.192629 -23.149007 
L 57.670162 -23.590884 
L 57.355497 -30.938033 
L 59.443343 -30.938033 
L 59.145687 -6.590106 
L 14.133684 -7.307316 
L 14.575207 27.78423 
L 1.724961 29.015251 
L -1.628632 36.059074 
L 0.972316 55.864554 
L -52.734084 55.7788 
z
" clip-path="url(#p6a571f37db)" style="fill: #e8edf4; stroke: #b8c5d4; stroke-width: 0.45"/>
    <path d="M 345.357763 427.754855 
L 348.846011 426.306261 
L 349.275486 420.327623 
L 351.519247 416.801814 
L 356.50995 413.919509 
L 360.113008 415.316367 
L 364.80322 410.066278 
L 372.273684 410.201641 
L 373.152478 414.083929 
L 378.275709 416.513371 
L 397.800542 396.831914 
L 397.341301 385.548616 
L 403.297261 372.225664 
L 409.581351 365.161289 
L 418.610966 358.551194 
L 420.187127 354.176356 
L 420.528723 349.146674 
L 422.763979 344.387718 
L 422.046061 336.615346 
L 423.755458 324.462112 
L 426.435782 315.905913 
L 430.543438 308.572584 
L 432.58947 290.725611 
L 437.928856 283.762581 
L 445.272461 279.346284 
L 456.557886 284.007084 
L 465.292679 289.066178 
L 485.555983 293.093041 
L 489.656552 284.811111 
L 491.540291 283.754077 
L 497.790363 285.131446 
L 513.058711 278.286769 
L 518.468968 281.187855 
L 522.909716 280.776451 
L 524.966379 277.441638 
L 530.063388 276.266605 
L 549.175754 278.025257 
L 553.703672 276.570285 
L 562.011117 287.891853 
L 568.169057 289.55483 
L 571.840151 287.251892 
L 578.181647 288.154428 
L 585.819364 285.253343 
L 589.076574 291.110793 
L 601.150079 300.224389 
L 600.320185 316.260265 
L 605.816903 318.117428 
L 601.408047 322.986942 
L 596.139532 326.629333 
L 590.895821 333.781233 
L 588.010681 340.157456 
L 587.238901 351.165776 
L 584.061775 356.405943 
L 583.946965 366.745246 
L 580.003019 370.568002 
L 579.494878 378.728745 
L 577.611139 379.786133 
L 576.341848 387.288488 
L 579.790408 393.523678 
L 580.662824 410.064152 
L 583.131245 422.681233 
L 581.7599 429.812935 
L 584.503298 437.767444 
L 592.457099 445.446976 
L 599.86307 462.727338 
L 594.460609 461.331898 
L 576.039939 463.646529 
L 572.363884 465.285765 
L 568.455374 474.040402 
L 571.524777 480.088493 
L 567.390899 510.091535 
L 580.684085 517.868867 
L 584.448019 515.374933 
L 585.594705 530.163488 
L 575.098778 530.050095 
L 564.412919 516.658399 
L 553.903527 514.742059 
L 550.826329 507.555787 
L 542.442344 511.885268 
L 531.460246 509.972472 
L 526.877048 503.745787 
L 518.169186 502.480748 
L 511.741937 502.811713 
L 510.955274 498.548851 
L 499.978845 497.395078 
L 482.129392 500.370223 
L 482.862902 484.050156 
L 478.288209 478.960943 
L 477.281848 470.526641 
L 479.302367 462.259593 
L 476.522824 456.968399 
L 476.271234 448.339202 
L 459.630832 448.458973 
L 460.825 443.51788 
L 453.827952 443.569615 
L 453.088773 445.945904 
L 444.582891 446.481685 
L 439.086881 457.903181 
L 431.508695 455.966289 
L 426.983611 457.895385 
L 417.915017 459.004509 
L 409.511189 447.39875 
L 402.192389 428.955402 
L 361.722478 428.773973 
L 347.279063 432.008505 
z
" clip-path="url(#p6a571f37db)" style="fill: #e8edf4; stroke: #b8c5d4; stroke-width: 0.45"/>
    <path d="M 479.133394 175.712197 
L 480.51552 170.675214 
L 484.067383 164.958277 
L 482.513691 159.278368 
L 487.021989 155.072197 
L 484.162423 151.867991 
L 487.789029 143.399831 
L 494.05152 133.300219 
L 505.877349 134.258574 
L 505.371429 74.064379 
L 521.142857 74.022688 
L 521.142857 46.635808 
L 683.879726 46.635808 
L 688.302446 60.091579 
L 685.294766 62.579488 
L 687.287314 76.698071 
L 692.321691 93.071145 
L 705.052662 101.516164 
L 698.112 109.343831 
L 688.011017 111.598459 
L 683.69184 115.803122 
L 682.339063 124.918871 
L 676.432731 145.070231 
L 677.890423 150.561157 
L 675.705874 162.338711 
L 670.129783 175.847968 
L 661.858149 182.642299 
L 655.97664 193.118642 
L 654.598629 198.724905 
L 648.102171 202.566002 
L 644.045074 216.918139 
L 644.228297 229.247557 
L 644.069387 218.554182 
L 642.170928 218.282974 
L 642.406366 211.455264 
L 640.758298 206.7465 
L 633.695151 201.33142 
L 632.047083 191.443014 
L 633.695151 181.319169 
L 627.338318 180.377416 
L 626.396565 183.438113 
L 618.156227 184.144428 
L 621.452362 188.146878 
L 622.629553 196.387217 
L 615.095529 203.921241 
L 608.26782 213.809647 
L 601.204673 215.222276 
L 589.668199 207.217376 
L 584.488557 210.042635 
L 583.075928 214.045085 
L 576.012781 216.634906 
L 575.541904 219.460165 
L 561.886486 219.460165 
L 560.00298 216.634906 
L 550.114573 216.164029 
L 545.17037 218.518412 
L 541.403358 217.341221 
L 531.985829 205.569308 
L 522.097422 207.452814 
L 518.33041 213.809647 
L 514.798837 226.052436 
L 505.878577 230.136658 
L 515.209632 235.492659 
L 504.765441 229.497721 
L 500.00932 225.54846 
L 499.128399 221.286306 
L 501.356569 215.579102 
L 501.316172 209.983164 
L 493.406312 201.408892 
L 492.016731 192.218299 
L 486.97632 188.176014 
L 486.824503 180.209659 
L 483.949851 174.918551 
z
" clip-path="url(#p6a571f37db)" style="fill: #e8edf4; stroke: #b8c5d4; stroke-width: 0.45"/>
    <path d="M 363.98254 151.315117 
L 369.904046 133.250162 
L 387.397456 120.318471 
L 388.120335 102.481066 
L 393.404442 74.651624 
L 396.387383 68.748463 
L 390.680888 64.047266 
L 390.460251 59.685637 
L 385.328745 56.118979 
L 381.960686 34.801065 
L 395.805943 27.302505 
L 505.202194 79.817934 
L 505.877349 134.258574 
L 494.05152 133.300219 
L 487.789029 143.399831 
L 484.162423 151.867991 
L 487.021989 155.072197 
L 482.513691 159.278368 
L 484.067383 164.958277 
L 480.51552 170.675214 
L 479.133394 175.712197 
L 483.949851 174.918551 
L 486.824503 180.209659 
L 486.97632 188.176014 
L 492.016731 192.218299 
L 491.851412 195.540103 
L 483.169772 197.878477 
L 476.212411 203.430475 
L 466.297623 218.393725 
L 453.389973 224.747269 
L 440.146396 223.89505 
L 436.27899 225.155837 
L 437.63687 229.983538 
L 424.661892 240.131844 
L 407.396412 245.378745 
L 403.970531 242.273198 
L 401.69913 242.005307 
L 399.171178 245.532888 
L 387.832601 246.5637 
L 389.980687 242.848666 
L 383.725653 227.717807 
L 377.752685 225.38971 
L 369.657852 217.385592 
L 372.637249 210.914049 
L 378.887322 212.291772 
L 382.756853 211.315176 
L 390.416541 211.449476 
L 382.951747 198.983348 
L 383.453511 189.87365 
L 382.537509 180.774551 
L 377.085084 171.992659 
L 378.456429 165.53281 
L 369.661396 165.217082 
L 369.69187 156.395472 
z
" clip-path="url(#p6a571f37db)" style="fill: #e8edf4; stroke: #b8c5d4; stroke-width: 0.45"/>
    <path d="M -63.429157 146.344967 
L -57.396657 143.74012 
L -50.752544 134.112004 
L -47.493917 127.069598 
L -42.798035 122.672436 
L -35.981707 123.856328 
L -29.290111 120.867363 
L -21.632195 120.716764 
L -15.079151 124.748234 
L -5.975831 128.381412 
L 11.372567 147.890653 
L 12.001543 156.422403 
L 14.705609 164.275921 
L 19.839116 168.127735 
L 21.011669 173.430977 
L 20.380213 177.703407 
L 18.400444 178.476959 
L 10.92254 177.39264 
L 9.893499 178.917774 
L 6.870162 179.224289 
L -2.987221 175.880971 
L -34.950541 175.163761 
L -38.627304 176.70803 
L -43.168688 176.266507 
L -50.433627 178.500701 
L -52.683766 167.98812 
L -40.20063 168.277626 
L -29.364525 163.076791 
L -23.481562 165.974688 
L -17.522767 166.216356 
L -11.588069 163.138094 
L -14.358752 159.174305 
L -18.880647 161.483622 
L -23.136423 161.419484 
L -28.549514 158.04392 
L -32.897421 158.265036 
L -35.994464 161.512324 
L -50.931138 161.904947 
L -56.586607 151.227592 
z
" clip-path="url(#p6a571f37db)" style="fill: #e8edf4; stroke: #b8c5d4; stroke-width: 0.45"/>
    <path d="M 11.372567 147.890653 
L 15.988011 145.391049 
L 18.293784 137.311808 
L 22.640983 136.995726 
L 32.217718 140.815293 
L 39.95182 138.103432 
L 45.253644 139.013764 
L 47.311016 135.963851 
L 102.339507 135.755491 
L 105.390483 126.153242 
L 103.014548 124.46298 
L 89.776641 6.088279 
L 110.765659 5.841649 
L 203.289978 65.687564 
L 206.550731 72.11375 
L 221.439922 78.26673 
L 221.597255 86.991956 
L 236.810324 85.649314 
L 236.848594 117.233831 
L 229.349783 126.394202 
L 228.181836 134.844451 
L 215.9999 137.019467 
L 197.287244 138.198399 
L 192.216457 143.072165 
L 174.634186 143.673856 
L 171.211139 141.042788 
L 163.661301 142.994916 
L 150.842947 148.683694 
L 148.226407 152.970653 
L 137.585904 159.118318 
L 135.720592 162.641292 
L 129.972992 165.433591 
L 123.340927 163.584579 
L 119.583017 166.93144 
L 117.570293 176.336669 
L 106.684225 187.702885 
L 107.001016 192.348094 
L 103.260824 198.16125 
L 104.169029 206.122846 
L 95.308086 209.885717 
L 93.185514 204.020117 
L 89.225623 205.566512 
L 86.859964 205.298976 
L 84.33591 209.301035 
L 73.745017 209.187997 
L 69.948483 207.128853 
L 68.160773 208.374757 
L 63.97197 204.421245 
L 64.699102 200.33733 
L 62.985452 198.737428 
L 60.064169 200.086448 
L 60.599242 195.624439 
L 63.410676 192.094378 
L 57.790642 186.349258 
L 56.156368 182.566898 
L 53.108935 179.553837 
L 50.364119 179.194169 
L 38.877068 185.916948 
L 33.007216 184.821289 
L 29.200051 181.339065 
L 26.927233 180.881596 
L 21.172545 182.724939 
L 20.380213 177.703407 
L 21.011669 173.430977 
L 19.839116 168.127735 
L 14.705609 164.275921 
L 12.001543 156.422403 
z
" clip-path="url(#p6a571f37db)" style="fill: #e8edf4; stroke: #b8c5d4; stroke-width: 0.45"/>
    <path d="M -55.726947 60.353493 
L -52.734084 55.7788 
L 0.972316 55.864554 
L -1.628632 36.059074 
L 1.724961 29.015251 
L 14.575207 27.78423 
L 14.133684 -7.307316 
L 59.145687 -6.590106 
L 59.185374 -27.362969 
L 110.765659 5.841649 
L 89.776641 6.088279 
L 103.014548 124.46298 
L 105.390483 126.153242 
L 102.339507 135.755491 
L 47.311016 135.963851 
L 45.253644 139.013764 
L 39.95182 138.103432 
L 32.217718 140.815293 
L 22.640983 136.995726 
L 18.293784 137.311808 
L 15.988011 145.391049 
L 11.372567 147.890653 
L -5.975831 128.381412 
L -15.079151 124.748234 
L -21.632195 120.716764 
L -29.290111 120.867363 
L -35.981707 123.856328 
L -42.798035 122.672436 
L -47.493917 127.069598 
L -48.681707 119.679573 
L -44.853281 112.917461 
L -43.149907 100.005204 
L -46.322073 79.634886 
L -44.953208 72.795525 
L -48.498152 66.276499 
z
" clip-path="url(#p6a571f37db)" style="fill: #e8edf4; stroke: #b8c5d4; stroke-width: 0.45"/>
    <path d="M 188.877746 204.750438 
L 190.622579 197.529439 
L 195.339013 195.977375 
L 198.132729 189.981373 
L 204.836373 188.700034 
L 212.436529 180.582523 
L 217.352819 180.547087 
L 227.810475 188.43923 
L 227.276111 192.995497 
L 230.360397 201.130726 
L 227.658103 206.65154 
L 229.103153 210.340352 
L 218.225944 223.034328 
L 215.640586 231.684785 
L 215.20048 262.514886 
L 203.866156 264.114788 
L 200.488466 254.653572 
L 201.112835 223.157997 
L 198.350302 220.332389 
L 197.829403 213.601814 
z
" clip-path="url(#p6a571f37db)" style="fill: #e8edf4; stroke: #b8c5d4; stroke-width: 0.45"/>
    <path d="M 182.340293 150.257729 
L 183.427093 143.610781 
L 192.216457 143.072165 
L 197.287244 138.198399 
L 215.9999 137.019467 
L 228.181836 134.844451 
L 229.349783 126.394202 
L 236.848594 117.233831 
L 236.810324 85.649314 
L 256.149476 79.533541 
L 295.85682 52.592461 
L 342.850363 26.452927 
L 364.545252 32.36601 
L 372.258801 39.898131 
L 381.960686 34.801065 
L 385.328745 56.118979 
L 390.460251 59.685637 
L 390.680888 64.047266 
L 396.387383 68.748463 
L 393.404442 74.651624 
L 388.120335 102.481066 
L 387.397456 120.318471 
L 369.904046 133.250162 
L 363.98254 151.315117 
L 369.69187 156.395472 
L 369.661396 165.217082 
L 378.456429 165.53281 
L 377.085084 171.992659 
L 373.214136 172.779322 
L 372.772612 177.145656 
L 370.221981 177.448627 
L 360.942194 162.43435 
L 357.723254 161.888647 
L 346.999833 169.554358 
L 336.381301 165.552654 
L 329.000134 164.752525 
L 325.042724 166.678078 
L 317.00317 166.262068 
L 308.913298 172.106406 
L 301.919085 172.441624 
L 285.321206 165.353153 
L 278.821669 168.719858 
L 271.823204 168.485985 
L 266.680129 163.306412 
L 252.933371 158.188851 
L 238.194426 159.813203 
L 234.623259 162.779135 
L 232.694163 170.666317 
L 228.762975 176.195991 
L 227.810475 188.43923 
L 217.352819 180.547087 
L 212.436529 180.582523 
L 207.832779 184.599464 
L 208.143192 175.206992 
L 192.330559 172.096485 
L 191.904627 165.459813 
L 184.181864 156.504612 
z
" clip-path="url(#p6a571f37db)" style="fill: #e8edf4; stroke: #b8c5d4; stroke-width: 0.45"/>
    <path d="M 215.20048 262.514886 
L 215.640586 231.684785 
L 218.225944 223.034328 
L 229.103153 210.340352 
L 227.658103 206.65154 
L 230.360397 201.130726 
L 227.276111 192.995497 
L 228.762975 176.195991 
L 232.694163 170.666317 
L 234.623259 162.779135 
L 238.194426 159.813203 
L 252.933371 158.188851 
L 266.680129 163.306412 
L 271.823204 168.485985 
L 278.821669 168.719858 
L 285.321206 165.353153 
L 301.919085 172.441624 
L 308.913298 172.106406 
L 317.00317 166.262068 
L 325.042724 166.678078 
L 329.000134 164.752525 
L 336.381301 165.552654 
L 346.999833 169.554358 
L 357.723254 161.888647 
L 360.942194 162.43435 
L 370.221981 177.448627 
L 372.772612 177.145656 
L 378.201295 182.608002 
L 375.982339 189.643321 
L 364.429024 200.255475 
L 358.869939 216.13579 
L 355.960704 219.192082 
L 353.193209 228.792204 
L 345.858817 234.441649 
L 343.734119 241.381292 
L 340.653377 246.904942 
L 339.37062 252.605413 
L 329.949091 257.226526 
L 322.249716 251.590901 
L 317.050653 251.818396 
L 308.882824 259.845193 
L 304.911948 259.968507 
L 294.861089 282.905756 
L 280.623198 287.84118 
L 275.418466 287.120073 
L 270.144989 290.193374 
L 259.174939 289.893591 
L 251.832752 281.315067 
L 247.31759 271.388231 
L 237.608326 262.352592 
z
" clip-path="url(#p6a571f37db)" style="fill: #e8edf4; stroke: #b8c5d4; stroke-width: 0.45"/>
    <path d="M 294.703756 286.695913 
L 294.861089 282.905756 
L 298.389024 273.200391 
L 304.911948 259.968507 
L 308.882824 259.845193 
L 317.050653 251.818396 
L 322.249716 251.590901 
L 329.949091 257.226526 
L 339.37062 252.605413 
L 340.653377 246.904942 
L 343.734119 241.381292 
L 345.858817 234.441649 
L 353.193209 228.792204 
L 355.960704 219.192082 
L 358.869939 216.13579 
L 364.429024 200.255475 
L 375.982339 189.643321 
L 378.201295 182.608002 
L 372.772612 177.145656 
L 373.214136 172.779322 
L 377.085084 171.992659 
L 382.537509 180.774551 
L 383.453511 189.87365 
L 382.951747 198.983348 
L 390.416541 211.449476 
L 382.756853 211.315176 
L 378.887322 212.291772 
L 372.637249 210.914049 
L 369.657852 217.385592 
L 377.752685 225.38971 
L 383.725653 227.717807 
L 389.980687 242.848666 
L 380.93548 260.462121 
L 377.644253 262.951803 
L 376.586156 273.583092 
L 377.951122 279.35904 
L 376.84625 283.44579 
L 383.327361 290.607612 
L 384.496725 295.531342 
L 389.559716 302.608828 
L 395.831758 307.021582 
L 397.890547 317.251035 
L 396.904029 324.656298 
L 374.918572 317.796384 
L 355.904007 316.510793 
L 347.785787 318.277241 
L 339.451412 316.440276 
L 332.934158 317.341395 
L 310.617026 317.028502 
L 312.619827 306.200547 
L 307.259889 297.133725 
L 301.002729 294.807754 
L 298.2161 288.66257 
z
" clip-path="url(#p6a571f37db)" style="fill: #e8edf4; stroke: #b8c5d4; stroke-width: 0.45"/>
    <path d="M 177.602952 201.512363 
L 178.612149 197.236744 
L 190.622579 197.529439 
L 188.877746 204.750438 
L 197.829403 213.601814 
L 198.350302 220.332389 
L 201.112835 223.157997 
L 200.488466 254.653572 
L 203.866156 264.114788 
L 192.824526 267.040324 
L 186.108125 253.524604 
L 185.018845 246.703315 
L 188.050687 234.350581 
L 184.610631 229.348184 
L 183.326811 208.584889 
z
" clip-path="url(#p6a571f37db)" style="fill: #e8edf4; stroke: #b8c5d4; stroke-width: 0.45"/>
    <path d="M 133.791496 262.629342 
L 137.367978 247.142712 
L 143.147115 235.62377 
L 137.637994 205.785502 
L 137.960101 198.004626 
L 161.782523 197.358287 
L 167.841245 198.357916 
L 172.269236 196.144275 
L 178.612149 197.236744 
L 177.602952 201.512363 
L 183.326811 208.584889 
L 184.610631 229.348184 
L 188.050687 234.350581 
L 185.018845 246.703315 
L 186.108125 253.524604 
L 192.824526 267.040324 
L 171.323823 275.068184 
L 163.698862 279.771153 
L 151.341167 283.74947 
L 139.115999 279.854425 
L 139.738951 274.443106 
z
" clip-path="url(#p6a571f37db)" style="fill: #e8edf4; stroke: #b8c5d4; stroke-width: 0.45"/>
    <path d="M 60.303357 259.652071 
L 63.285235 253.559685 
L 61.91389 246.930101 
L 62.546764 242.941507 
L 64.721781 242.925915 
L 65.529705 236.944442 
L 64.47019 234.29601 
L 65.780586 232.389593 
L 70.874052 230.740435 
L 67.48644 219.761881 
L 64.32526 214.093655 
L 65.426234 209.437815 
L 69.948483 207.128853 
L 73.745017 209.187997 
L 84.33591 209.301035 
L 86.859964 205.298976 
L 89.225623 205.566512 
L 93.185514 204.020117 
L 95.308086 209.885717 
L 104.169029 206.122846 
L 110.336184 209.112874 
L 112.733025 213.648588 
L 118.89947 216.544358 
L 123.696697 213.095089 
L 130.122528 212.574191 
L 139.508622 216.110631 
L 143.147115 235.62377 
L 137.367978 247.142712 
L 133.791496 262.629342 
L 139.738951 274.443106 
L 139.115999 279.854425 
L 132.876557 279.99404 
L 123.307618 277.312654 
L 114.515419 277.471049 
L 98.269766 279.865056 
L 75.168806 288.853566 
L 72.518957 288.493189 
L 73.572093 277.198198 
L 74.883907 275.481359 
L 74.466479 270.077835 
L 68.65793 264.333778 
L 64.301518 263.417068 
z
" clip-path="url(#p6a571f37db)" style="fill: #e8edf4; stroke: #b8c5d4; stroke-width: 0.45"/>
    <path d="M -29.215697 196.938733 
L -23.117996 190.254225 
L -18.95577 190.50865 
L -15.379288 188.206775 
L -12.353825 188.184805 
L -10.191919 186.366976 
L -11.359157 181.822403 
L -9.857056 180.388692 
L -9.606529 175.739584 
L -2.987221 175.880971 
L 6.870162 179.224289 
L 9.893499 178.917774 
L 10.92254 177.39264 
L 18.400444 178.476959 
L 20.380213 177.703407 
L 21.172545 182.724939 
L 26.927233 180.881596 
L 29.200051 181.339065 
L 33.007216 184.821289 
L 38.877068 185.916948 
L 50.364119 179.194169 
L 53.108935 179.553837 
L 56.156368 182.566898 
L 57.790642 186.349258 
L 63.410676 192.094378 
L 60.599242 195.624439 
L 60.064169 200.086448 
L 62.985452 198.737428 
L 64.699102 200.33733 
L 63.97197 204.421245 
L 68.160773 208.374757 
L 65.426234 209.437815 
L 64.32526 214.093655 
L 67.48644 219.761881 
L 70.874052 230.740435 
L 65.780586 232.389593 
L 64.47019 234.29601 
L 65.529705 236.944442 
L 64.721781 242.925915 
L 58.668019 242.589989 
L 55.871114 248.111867 
L 51.993787 248.044894 
L 49.325511 245.123965 
L 50.231591 239.615907 
L 44.498165 231.215622 
L 34.210598 233.850943 
L 34.363678 228.822679 
L 32.163148 225.234504 
L 32.607152 221.247327 
L 25.8174 210.578122 
L 14.848767 210.562885 
L 11.652506 213.146825 
L 7.87298 213.458655 
L 3.950296 220.221476 
L -3.381261 226.251141 
L -14.72976 212.768376 
L -21.664441 208.265971 
L -23.221467 202.20654 
L -25.228166 199.185684 
z
" clip-path="url(#p6a571f37db)" style="fill: #e8edf4; stroke: #b8c5d4; stroke-width: 0.45"/>
    <path d="M 21.411024 255.286091 
L 24.688432 250.898496 
L 25.416627 246.909548 
L 37.987288 233.064989 
L 44.498165 231.215622 
L 50.231591 239.615907 
L 49.325511 245.123965 
L 51.993787 248.044894 
L 55.871114 248.111867 
L 58.668019 242.589989 
L 62.546764 242.941507 
L 61.91389 246.930101 
L 63.285235 253.559685 
L 60.303357 259.652071 
L 64.301518 263.417068 
L 68.65793 264.333778 
L 74.466479 270.077835 
L 74.883907 275.481359 
L 73.572093 277.198198 
L 72.518957 288.493189 
L 68.926529 288.614024 
L 54.791401 282.076925 
L 42.330235 271.638404 
L 30.646164 264.134632 
z
" clip-path="url(#p6a571f37db)" style="fill: #e8edf4; stroke: #b8c5d4; stroke-width: 0.45"/>
    <path d="M -3.381261 226.251141 
L 3.950296 220.221476 
L 7.87298 213.458655 
L 11.652506 213.146825 
L 14.848767 210.562885 
L 25.8174 210.578122 
L 32.607152 221.247327 
L 32.163148 225.234504 
L 34.363678 228.822679 
L 34.210598 233.850943 
L 37.987288 233.064989 
L 25.416627 246.909548 
L 24.688432 250.898496 
L 21.411024 255.286091 
L 17.716189 254.268745 
L 7.843215 248.744032 
L 0.698756 241.397238 
L -1.70092 236.3874 
z
" clip-path="url(#p6a571f37db)" style="fill: #e8edf4; stroke: #b8c5d4; stroke-width: 0.45"/>
    <path d="M 103.260824 198.16125 
L 107.001016 192.348094 
L 106.684225 187.702885 
L 117.570293 176.336669 
L 119.583017 166.93144 
L 123.340927 163.584579 
L 129.972992 165.433591 
L 135.720592 162.641292 
L 137.585904 159.118318 
L 148.226407 152.970653 
L 150.842947 148.683694 
L 163.661301 142.994916 
L 171.211139 141.042788 
L 174.634186 143.673856 
L 183.427093 143.610781 
L 182.340293 150.257729 
L 184.181864 156.504612 
L 191.904627 165.459813 
L 192.330559 172.096485 
L 208.143192 175.206992 
L 207.832779 184.599464 
L 204.836373 188.700034 
L 198.132729 189.981373 
L 195.339013 195.977375 
L 190.622579 197.529439 
L 172.269236 196.144275 
L 167.841245 198.357916 
L 161.782523 197.358287 
L 137.960101 198.004626 
L 137.637994 205.785502 
L 139.508622 216.110631 
L 130.122528 212.574191 
L 123.696697 213.095089 
L 118.89947 216.544358 
L 112.733025 213.648588 
L 110.336184 209.112874 
L 104.169029 206.122846 
z
" clip-path="url(#p6a571f37db)" style="fill: #e8edf4; stroke: #b8c5d4; stroke-width: 0.45"/>
    <path d="M 376.586156 273.583092 
L 377.644253 262.951803 
L 380.93548 260.462121 
L 387.832601 246.5637 
L 399.171178 245.532888 
L 401.69913 242.005307 
L 403.970531 242.273198 
L 407.396412 245.378745 
L 424.661892 240.131844 
L 437.63687 229.983538 
L 436.27899 225.155837 
L 440.146396 223.89505 
L 453.389973 224.747269 
L 466.297623 218.393725 
L 476.212411 203.430475 
L 483.169772 197.878477 
L 491.851412 195.540103 
L 493.406312 201.408892 
L 501.316172 209.983164 
L 501.356569 215.579102 
L 499.128399 221.286306 
L 500.00932 225.54846 
L 522.719074 241.034381 
L 522.845224 245.491783 
L 532.068315 252.633761 
L 537.784024 258.568106 
L 541.246758 266.795112 
L 551.498181 272.222732 
L 553.703672 276.570285 
L 549.175754 278.025257 
L 530.063388 276.266605 
L 524.966379 277.441638 
L 522.909716 280.776451 
L 518.468968 281.187855 
L 513.058711 278.286769 
L 497.790363 285.131446 
L 491.540291 283.754077 
L 489.656552 284.811111 
L 485.555983 293.093041 
L 465.292679 289.066178 
L 456.557886 284.007084 
L 445.272461 279.346284 
L 437.928856 283.762581 
L 432.58947 290.725611 
L 431.356323 300.289944 
L 422.535776 299.524543 
L 413.253153 297.220541 
L 405.079654 304.488315 
L 397.890547 317.251035 
L 395.831758 307.021582 
L 389.559716 302.608828 
L 384.496725 295.531342 
L 383.327361 290.607612 
L 376.84625 283.44579 
L 377.951122 279.35904 
z
" clip-path="url(#p6a571f37db)" style="fill: #e8edf4; stroke: #b8c5d4; stroke-width: 0.45"/>
    <path d="M 330.428884 402.916858 
L 340.87024 395.347177 
L 335.698817 386.278583 
L 340.401786 382.830023 
L 349.655352 381.150391 
L 350.746758 375.072534 
L 358.074772 381.658533 
L 370.181585 382.235419 
L 374.389169 375.755017 
L 376.120536 366.636814 
L 374.625168 355.928985 
L 368.13697 347.81856 
L 374.074504 331.935056 
L 370.651457 329.209375 
L 360.447517 330.327004 
L 356.61413 323.240659 
L 357.611278 317.258477 
L 374.918572 317.796384 
L 396.904029 324.656298 
L 397.890547 317.251035 
L 405.079654 304.488315 
L 413.253153 297.220541 
L 422.535776 299.524543 
L 431.356323 300.289944 
L 430.543438 308.572584 
L 426.435782 315.905913 
L 423.755458 324.462112 
L 422.046061 336.615346 
L 422.763979 344.387718 
L 420.528723 349.146674 
L 420.187127 354.176356 
L 418.610966 358.551194 
L 409.581351 365.161289 
L 403.297261 372.225664 
L 397.341301 385.548616 
L 397.800542 396.831914 
L 378.275709 416.513371 
L 373.152478 414.083929 
L 372.273684 410.201641 
L 364.80322 410.066278 
L 360.113008 415.316367 
L 356.50995 413.919509 
L 351.370419 409.214414 
L 347.226619 411.52125 
L 341.690921 417.442483 
z
" clip-path="url(#p6a571f37db)" style="fill: #e8edf4; stroke: #b8c5d4; stroke-width: 0.45"/>
    <path d="M 298.94394 363.590798 
L 299.384046 359.034531 
L 302.378326 354.649771 
L 308.473901 334.497026 
L 333.052512 333.845017 
L 332.934158 317.341395 
L 339.451412 316.440276 
L 347.785787 318.277241 
L 355.904007 316.510793 
L 357.611278 317.258477 
L 356.61413 323.240659 
L 360.447517 330.327004 
L 370.651457 329.209375 
L 374.074504 331.935056 
L 368.13697 347.81856 
L 374.625168 355.928985 
L 376.120536 366.636814 
L 374.389169 375.755017 
L 370.181585 382.235419 
L 358.074772 381.658533 
L 350.746758 375.072534 
L 349.655352 381.150391 
L 340.401786 382.830023 
L 335.698817 386.278583 
L 340.87024 395.347177 
L 330.428884 402.916858 
L 316.33557 389.074425 
L 307.271937 377.757818 
z
" clip-path="url(#p6a571f37db)" style="fill: #e8edf4; stroke: #b8c5d4; stroke-width: 0.45"/>
    <path d="M 305.905553 332.429024 
L 310.617026 317.028502 
L 332.934158 317.341395 
L 333.052512 333.845017 
L 308.473901 334.497026 
z
" clip-path="url(#p6a571f37db)" style="fill: #e8edf4; stroke: #b8c5d4; stroke-width: 0.45"/>
    <path d="M 337.921317 577.010329 
L 339.819939 564.950999 
L 344.551965 552.395575 
L 345.265631 546.509777 
L 349.715592 534.147121 
L 352.98485 528.527087 
L 365.262461 513.451507 
L 366.702551 503.292216 
L 365.984632 495.519135 
L 361.883354 490.616312 
L 354.86221 474.068041 
L 355.598555 471.217629 
L 359.813935 465.780441 
L 352.845235 443.350625 
L 345.975045 434.673946 
L 347.279063 432.008505 
L 361.722478 428.773973 
L 402.192389 428.955402 
L 409.511189 447.39875 
L 417.915017 459.004509 
L 426.983611 457.895385 
L 431.508695 455.966289 
L 439.086881 457.903181 
L 444.582891 446.481685 
L 453.088773 445.945904 
L 453.827952 443.569615 
L 460.825 443.51788 
L 459.630832 448.458973 
L 476.271234 448.339202 
L 476.522824 456.968399 
L 479.302367 462.259593 
L 477.281848 470.526641 
L 478.288209 478.960943 
L 482.862902 484.050156 
L 482.129392 500.370223 
L 499.978845 497.395078 
L 506.224666 498.203711 
L 507.673968 502.461613 
L 506.114108 509.112813 
L 508.524415 515.545023 
L 506.481217 520.681719 
L 507.649872 525.415871 
L 479.093298 525.242947 
L 478.461842 568.880062 
L 487.71399 580.100285 
L 496.663522 588.667115 
L 471.458416 594.255966 
L 438.256278 592.314822 
L 428.753957 585.743706 
L 373.161691 586.335475 
L 371.088019 587.299314 
L 362.912394 581.098142 
L 354.021686 580.68851 
L 339.21187 585.633148 
z
" clip-path="url(#p6a571f37db)" style="fill: #e8edf4; stroke: #b8c5d4; stroke-width: 0.45"/>
    <path d="M 341.690921 417.442483 
L 347.226619 411.52125 
L 351.370419 409.214414 
L 356.50995 413.919509 
L 351.519247 416.801814 
L 349.275486 420.327623 
L 348.846011 426.306261 
L 345.357763 427.754855 
z
" clip-path="url(#p6a571f37db)" style="fill: #e8edf4; stroke: #b8c5d4; stroke-width: 0.45"/>
    <path d="M 59.185374 -27.362969 
L 59.326407 -47.187584 
L 81.473449 -57.307896 
L 95.168471 -59.398931 
L 106.393656 -63.084553 
L 111.639138 -69.951908 
L 127.673951 -75.379528 
L 128.262886 -85.532796 
L 136.196842 -86.728736 
L 142.400849 -91.80094 
L 160.348812 -94.112383 
L 162.863298 -99.442201 
L 159.24961 -102.356398 
L 154.512623 -116.834539 
L 153.696195 -125.175647 
L 148.526898 -133.959341 
L 161.710589 -141.453546 
L 176.537768 -143.837277 
L 185.196022 -149.495935 
L 198.403455 -153.670209 
L 244.330397 -157.227556 
L 251.247361 -155.190736 
L 264.162099 -160.596032 
L 278.816708 -160.701984 
L 284.394219 -157.511038 
L 293.773226 -158.343767 
L 290.987305 -151.304905 
L 293.161613 -138.231063 
L 289.93346 -126.92048 
L 281.478605 -119.271068 
L 282.687657 -108.940625 
L 293.903628 -100.769961 
L 294.021981 -97.450385 
L 302.476836 -91.915396 
L 308.32649 -67.296389 
L 312.762986 -55.187804 
L 313.508544 -48.81548 
L 311.093276 -37.627148 
L 312.084046 -31.374595 
L 310.34134 -23.868697 
L 311.537634 -15.245879 
L 306.094777 -9.514933 
L 314.203784 0.481002 
L 314.719013 6.357587 
L 319.595614 14.005226 
L 326.007272 11.492511 
L 336.832037 17.864481 
L 342.850363 26.452927 
L 295.85682 52.592461 
L 256.149476 79.533541 
L 236.810324 85.649314 
L 221.597255 86.991956 
L 221.439922 78.26673 
L 206.550731 72.11375 
L 203.289978 65.687564 
z
" clip-path="url(#p6a571f37db)" style="fill: #e8edf4; stroke: #b8c5d4; stroke-width: 0.45"/>
    <path d="M -55.137304 54.55841 
L -54.490256 48.20274 
L -49.222449 44.465737 
L -44.734927 37.319152 
L -45.619391 32.677841 
L -40.904375 23.001178 
L -33.270909 14.281976 
L -28.653694 12.072232 
L -25.023705 4.073075 
L -24.698409 -3.232969 
L -19.747748 -11.710502 
L -10.612181 -16.709001 
L -1.919202 -30.714791 
L 5.227383 -36.173594 
L 17.980536 -37.688451 
L 28.786875 -47.062143 
L 35.662735 -50.716227 
L 47.111161 -62.167489 
L 43.683862 -79.230279 
L 48.894264 -91.029514 
L 50.733354 -98.251222 
L 59.55461 -107.516127 
L 83.485109 -119.450725 
L 96.960079 -142.0726 
L 107.055586 -142.006691 
L 115.323343 -136.185385 
L 128.364939 -137.133633 
L 142.569521 -134.106043 
L 148.526898 -133.959341 
L 153.696195 -125.175647 
L 154.512623 -116.834539 
L 159.24961 -102.356398 
L 162.863298 -99.442201 
L 160.348812 -94.112383 
L 142.400849 -91.80094 
L 136.196842 -86.728736 
L 128.262886 -85.532796 
L 127.673951 -75.379528 
L 111.639138 -69.951908 
L 106.393656 -63.084553 
L 95.168471 -59.398931 
L 81.473449 -57.307896 
L 59.326407 -47.187584 
L 59.443343 -30.938033 
L 57.355497 -30.938033 
L 57.670162 -23.590884 
L 49.192629 -23.149007 
L 44.772434 -20.028577 
L 38.54504 -20.028577 
L 33.582685 -21.809553 
L 22.044961 -20.336864 
L 17.5787 -9.648878 
L 13.29245 -8.644643 
L 6.84394 8.645642 
L -12.220943 23.444827 
L -16.747444 42.382143 
L -22.365705 48.542919 
L -24.013091 53.484721 
z
" clip-path="url(#p6a571f37db)" style="fill: #e8edf4; stroke: #b8c5d4; stroke-width: 0.45"/>
    <path d="M 517.029531 -63.684512 
L 520.561646 -72.151849 
L 518.43936 -78.017312 
L 523.403246 -84.598249 
L 541.65024 -84.824946 
L 574.814126 -75.010592 
L 585.372617 -79.355415 
L 591.017554 -83.285106 
L 603.112183 -84.415986 
L 612.863451 -82.684421 
L 616.599909 -75.882135 
L 619.782446 -80.363141 
L 630.77376 -77.122866 
L 641.463771 -76.346501 
L 648.211749 -79.801129 
L 657.224229 -56.239575 
L 653.372434 -50.727666 
L 650.421257 -40.367483 
L 646.690423 -33.226592 
L 643.492937 -30.832078 
L 632.732709 -41.377678 
L 622.947154 -61.036146 
L 621.537737 -59.792946 
L 627.220389 -45.321632 
L 635.640137 -31.534112 
L 646.005257 -10.172466 
L 655.475246 5.030094 
L 667.781623 20.212357 
L 665.056731 22.603305 
L 665.499154 31.516631 
L 683.879726 46.635808 
L 521.142857 46.635808 
L 521.142857 -52.637168 
z
" clip-path="url(#p6a571f37db)" style="fill: #e8edf4; stroke: #b8c5d4; stroke-width: 0.45"/>
    <path d="M 306.094777 -9.514933 
L 311.537634 -15.245879 
L 310.34134 -23.868697 
L 312.084046 -31.374595 
L 311.093276 -37.627148 
L 313.508544 -48.81548 
L 312.762986 -55.187804 
L 308.32649 -67.296389 
L 315.017378 -70.474933 
L 316.204459 -76.269308 
L 314.745944 -81.95029 
L 324.16322 -87.235106 
L 328.385687 -91.629079 
L 335.070904 -95.566292 
L 335.846228 -106.100134 
L 351.953966 -101.379461 
L 357.71328 -102.559438 
L 369.170469 -100.271072 
L 387.36864 -94.142432 
L 393.791177 -81.952901 
L 425.432091 -73.550295 
L 440.042194 -66.731826 
L 446.729691 -70.289723 
L 453.303086 -76.597472 
L 450.107383 -87.103026 
L 454.408731 -93.773792 
L 464.29056 -100.200306 
L 473.732297 -102.070935 
L 492.284709 -99.264718 
L 496.961829 -93.133198 
L 502.068069 -93.075186 
L 506.434286 -90.735666 
L 520.061349 -89.126843 
L 523.403246 -84.598249 
L 518.43936 -78.017312 
L 520.561646 -72.151849 
L 517.029531 -63.684512 
L 521.142857 -52.637168 
L 521.142857 74.022688 
L 505.371429 74.064379 
L 505.202194 79.817934 
L 395.805943 27.302505 
L 372.258801 39.898131 
L 364.545252 32.36601 
L 342.850363 26.452927 
L 336.832037 17.864481 
L 326.007272 11.492511 
L 319.595614 14.005226 
L 314.719013 6.357587 
L 314.203784 0.481002 
z
" clip-path="url(#p6a571f37db)" style="fill: #e8edf4; stroke: #b8c5d4; stroke-width: 0.45"/>
    <path d="M 505.878577 230.136658 
L 514.798837 226.052436 
L 518.33041 213.809647 
L 522.097422 207.452814 
L 531.985829 205.569308 
L 541.403358 217.341221 
L 545.17037 218.518412 
L 550.114573 216.164029 
L 560.00298 216.634906 
L 561.886486 219.460165 
L 575.541904 219.460165 
L 576.012781 216.634906 
L 583.075928 214.045085 
L 584.488557 210.042635 
L 589.668199 207.217376 
L 601.204673 215.222276 
L 608.26782 213.809647 
L 615.095529 203.921241 
L 622.629553 196.387217 
L 621.452362 188.146878 
L 618.156227 184.144428 
L 626.396565 183.438113 
L 627.338318 180.377416 
L 633.695151 181.319169 
L 632.047083 191.443014 
L 633.695151 201.33142 
L 640.758298 206.7465 
L 642.406366 211.455264 
L 642.170928 218.282974 
L 644.069387 218.554182 
L 644.228297 229.247557 
L 642.178286 233.435899 
L 634.900114 233.772997 
L 630.228754 241.584791 
L 638.650834 242.567145 
L 645.601371 249.251351 
L 648.004389 254.735419 
L 654.267703 257.915077 
L 662.372669 272.839237 
L 644.64 290.065957 
L 636.205714 296.372951 
L 626.556617 296.341134 
L 615.517029 299.550962 
L 606.796251 296.484037 
L 601.149976 300.224312 
L 589.076574 291.110793 
L 585.819364 285.253343 
L 578.181647 288.154428 
L 571.840151 287.251892 
L 568.169057 289.55483 
L 562.011117 287.891853 
L 551.498181 272.222732 
L 541.246758 266.795112 
L 537.784024 258.568106 
L 532.068315 252.633761 
L 522.845224 245.491783 
L 522.719074 241.034381 
z
" clip-path="url(#p6a571f37db)" style="fill: #e8edf4; stroke: #b8c5d4; stroke-width: 0.45"/>
   </g>
   <g id="PathCollection_1">
    <defs>
     <path id="m3033b96818" d="M 0 2.12132 
C 0.562581 2.12132 1.102195 1.897805 1.5 1.5 
C 1.897805 1.102195 2.12132 0.562581 2.12132 0 
C 2.12132 -0.562581 1.897805 -1.102195 1.5 -1.5 
C 1.102195 -1.897805 0.562581 -2.12132 0 -2.12132 
C -0.562581 -2.12132 -1.102195 -1.897805 -1.5 -1.5 
C -1.897805 -1.102195 -2.12132 -0.562581 -2.12132 0 
C -2.12132 0.562581 -1.897805 1.102195 -1.5 1.5 
C -1.102195 1.897805 -0.562581 2.12132 0 2.12132 
z
" style="stroke: #ffffff; stroke-width: 0.5"/>
    </defs>
    <g clip-path="url(#p6a571f37db)">
     <use xlink:href="#m3033b96818" x="315.428571" y="320.921522" style="fill: #8aa0b7; stroke: #ffffff; stroke-width: 0.5"/>
     <use xlink:href="#m3033b96818" x="274.285714" y="334.635808" style="fill: #8aa0b7; stroke: #ffffff; stroke-width: 0.5"/>
     <use xlink:href="#m3033b96818" x="194.285714" y="238.635808" style="fill: #8aa0b7; stroke: #ffffff; stroke-width: 0.5"/>
    </g>
   </g>
   <g id="PatchCollection_2">
    <defs>
     <path id="m983a3c5e9a" d="M 215.20048 -159.899587 
L 215.640586 -190.729688 
L 218.225944 -199.380145 
L 229.103153 -212.074121 
L 227.658103 -215.762933 
L 230.360397 -221.283748 
L 227.276111 -229.418976 
L 228.762975 -246.218483 
L 232.694163 -251.748156 
L 234.623259 -259.635338 
L 238.194426 -262.60127 
L 252.933371 -264.225623 
L 266.680129 -259.108061 
L 271.823204 -253.928488 
L 278.821669 -253.694615 
L 285.321206 -257.06132 
L 301.919085 -249.972849 
L 308.913298 -250.308067 
L 317.00317 -256.152406 
L 325.042724 -255.736395 
L 329.000134 -257.661948 
L 336.381301 -256.86182 
L 346.999833 -252.860115 
L 357.723254 -260.525826 
L 360.942194 -259.980123 
L 370.221981 -244.965846 
L 372.772612 -245.268817 
L 378.201295 -239.806471 
L 375.982339 -232.771153 
L 364.429024 -222.158999 
L 358.869939 -206.278683 
L 355.960704 -203.222392 
L 353.193209 -193.622269 
L 345.858817 -187.972824 
L 343.734119 -181.033181 
L 340.653377 -175.509532 
L 339.37062 -169.80906 
L 329.949091 -165.187947 
L 322.249716 -170.823572 
L 317.050653 -170.596077 
L 308.882824 -162.569281 
L 304.911948 -162.445966 
L 294.861089 -139.508717 
L 280.623198 -134.573293 
L 275.418466 -135.2944 
L 270.144989 -132.2211 
L 259.174939 -132.520882 
L 251.832752 -141.099406 
L 247.31759 -151.026242 
L 237.608326 -160.061881 
z
" style="stroke: #b45309; stroke-width: 1.15"/>
    </defs>
    <g clip-path="url(#p6a571f37db)">
     <use xlink:href="#m983a3c5e9a" x="0" y="422.414473" style="fill: #f59e0b; stroke: #b45309; stroke-width: 1.15"/>
    </g>
   </g>
   <g id="PathCollection_2">
    <path d="M 288 215.342451 
C 289.096672 215.342451 290.148574 214.906739 290.924038 214.131275 
C 291.699502 213.355811 292.135215 212.303908 292.135215 211.207237 
C 292.135215 210.110565 291.699502 209.058662 290.924038 208.283198 
C 290.148574 207.507734 289.096672 207.072022 288 207.072022 
C 286.903328 207.072022 285.851426 207.507734 285.075962 208.283198 
C 284.300498 209.058662 283.864785 210.110565 283.864785 211.207237 
C 283.864785 212.303908 284.300498 213.355811 285.075962 214.131275 
C 285.851426 214.906739 286.903328 215.342451 288 215.342451 
L 288 215.342451 
z
" clip-path="url(#p6a571f37db)" style="fill: none; stroke: #7c2d12; stroke-width: 1.1"/>
   </g>
  </g>
 </g>
 <defs>
  <clipPath id="p6a571f37db">
   <rect x="0" y="0" width="576" height="422.414473"/>
  </clipPath>
 </defs>
</svg>
