<?xml version="1.0" encoding="utf-8" standalone="no"?>
<!DOCTYPE svg PUBLIC "-//W3C//DTD SVG 1.1//EN"
  "http://www.w3.org/Graphics/SVG/1.1/DTD/svg11.dtd">
<svg xmlns:xlink="http://www.w3.org/1999/xlink" width="451.636364pt" height="432pt" viewBox="0 0 451.636364 432" xmlns="http://www.w3.org/2000/svg" version="1.1">
 <metadata>
  <rdf:RDF xmlns:dc="http://purl.org/dc/elements/1.1/" xmlns:cc="http://creativecommons.org/ns#" xmlns:rdf="http://www.w3.org/1999/02/22-rdf-syntax-ns#">
   <cc:Work>
    <dc:type rdf:resource="http://purl.org/dc/dcmitype/StillImage"/>
    <dc:date>2026-06-09T04:57:14.610252</dc:date>
    <dc:format>image/svg+xml</dc:format>
    <dc:creator>
     <cc:Agent>
      <dc:title>Matplotlib v3.10.8, https://matplotlib.org/</dc:title>
     </cc:Agent>
    </dc:creator>
   </cc:Work>
  </rdf:RDF>
 </metadata>
 <defs>
  <style type="text/css">*{stroke-linejoin: round; stroke-linecap: butt}</style>
 </defs>
 <g id="figure_1">
  <g id="patch_1">
   <path d="M 0 432 
L 451.636364 432 
L 451.636364 0 
L 0 0 
z
" style="fill: #eaf3ff"/>
  </g>
  <g id="axes_1">
   <g id="PatchCollection_1">
    <path d="M 307.03429 88.935183 
L 314.320103 87.394812 
L 325.007315 98.303237 
L 340.286213 103.395188 
L 345.835811 120.889258 
L 360.064456 141.56047 
L 360.47644 128.150717 
L 369.33814 133.5065 
L 372.275804 148.360224 
L 388.077292 154.759157 
L 401.343966 156.32997 
L 412.56696 148.840195 
L 422.517473 151.109147 
L 417.758356 168.535229 
L 411.783583 179.993642 
L 396.791855 179.589776 
L 391.548708 185.558461 
L 393.37422 194.006148 
L 373.33519 221.687165 
L 358.15878 229.515862 
L 354.787823 224.363027 
L 346.600923 221.533939 
L 357.924376 205.381352 
L 351.493986 194.575416 
L 330.363098 186.71932 
L 330.917145 179.606012 
L 345.1052 172.754506 
L 348.417303 157.636951 
L 347.505054 144.93853 
L 339.552558 131.781447 
L 340.082251 128.320179 
L 330.695932 120.213443 
L 315.245543 102.838098 
z
" clip-path="url(#p810978a217)" style="fill: #e8edf4; stroke: #b8c5d4; stroke-width: 0.45"/>
    <path d="M 186.725016 311.289475 
L 197.275239 296.723937 
L 221.96481 277.343471 
L 234.642937 273.648813 
L 265.580245 255.894971 
L 277.365403 245.70498 
L 286.096202 231.069425 
L 293.538285 226.101271 
L 296.454639 215.138051 
L 310.226653 206.063256 
L 319.036601 222.519249 
L 333.001415 214.560665 
L 338.679884 222.856142 
L 338.69815 231.120162 
L 318.555616 254.684389 
L 308.511747 262.583104 
L 315.754941 272.029293 
L 300.604915 272.271815 
L 283.802896 279.671279 
L 278.544527 292.524955 
L 267.382418 312.39351 
L 242.162139 326.773351 
L 224.077493 326.355279 
L 211.360806 319.880241 
L 190.018853 318.500198 
z
" clip-path="url(#p810978a217)" style="fill: #e8edf4; stroke: #b8c5d4; stroke-width: 0.45"/>
   </g>
   <g id="PatchCollection_2">
    <path d="M 307.03429 88.935183 
L 314.320103 87.394812 
L 325.007315 98.303237 
L 340.286213 103.395188 
L 345.835811 120.889258 
L 360.064456 141.56047 
L 360.47644 128.150717 
L 369.33814 133.5065 
L 372.275804 148.360224 
L 388.077292 154.759157 
L 401.343966 156.32997 
L 412.56696 148.840195 
L 422.517473 151.109147 
L 417.758356 168.535229 
L 411.783583 179.993642 
L 396.791855 179.589776 
L 391.548708 185.558461 
L 393.37422 194.006148 
L 373.33519 221.687165 
L 358.15878 229.515862 
L 354.787823 224.363027 
L 346.600923 221.533939 
L 357.924376 205.381352 
L 351.493986 194.575416 
L 330.363098 186.71932 
L 330.917145 179.606012 
L 345.1052 172.754506 
L 348.417303 157.636951 
L 347.505054 144.93853 
L 339.552558 131.781447 
L 340.082251 128.320179 
L 330.695932 120.213443 
L 315.245543 102.838098 
z
" clip-path="url(#p810978a217)" style="fill: #f59e0b; stroke: #b45309; stroke-width: 1.15"/>
    <path d="M 186.725016 311.289475 
L 197.275239 296.723937 
L 221.96481 277.343471 
L 234.642937 273.648813 
L 265.580245 255.894971 
L 277.365403 245.70498 
L 286.096202 231.069425 
L 293.538285 226.101271 
L 296.454639 215.138051 
L 310.226653 206.063256 
L 319.036601 222.519249 
L 333.001415 214.560665 
L 338.679884 222.856142 
L 338.69815 231.120162 
L 318.555616 254.684389 
L 308.511747 262.583104 
L 315.754941 272.029293 
L 300.604915 272.271815 
L 283.802896 279.671279 
L 278.544527 292.524955 
L 267.382418 312.39351 
L 242.162139 326.773351 
L 224.077493 326.355279 
L 211.360806 319.880241 
L 190.018853 318.500198 
z
" clip-path="url(#p810978a217)" style="fill: #f59e0b; stroke: #b45309; stroke-width: 1.15"/>
   </g>
   <g id="PathCollection_1">
    <path d="M 333.818182 220.135215 
C 334.914854 220.135215 335.966756 219.699502 336.74222 218.924038 
C 337.517684 218.148574 337.953396 217.096672 337.953396 216 
C 337.953396 214.903328 337.517684 213.851426 336.74222 213.075962 
C 335.966756 212.300498 334.914854 211.864785 333.818182 211.864785 
C 332.72151 211.864785 331.669608 212.300498 330.894144 213.075962 
C 330.118679 213.851426 329.682967 214.903328 329.682967 216 
C 329.682967 217.096672 330.118679 218.148574 330.894144 218.924038 
C 331.669608 219.699502 332.72151 220.135215 333.818182 220.135215 
L 333.818182 220.135215 
z
" clip-path="url(#p810978a217)" style="fill: none; stroke: #7c2d12; stroke-width: 1.1"/>
   </g>
  </g>
 </g>
 <defs>
  <clipPath id="p810978a217">
   <rect x="0" y="0" width="451.636364" height="432"/>
  </clipPath>
 </defs>
</svg>
