<?xml version="1.0" encoding="utf-8" standalone="no"?>
<!DOCTYPE svg PUBLIC "-//W3C//DTD SVG 1.1//EN"
  "http://www.w3.org/Graphics/SVG/1.1/DTD/svg11.dtd">
<svg xmlns:xlink="http://www.w3.org/1999/xlink" width="576pt" height="384pt" viewBox="0 0 576 384" xmlns="http://www.w3.org/2000/svg" version="1.1">
 <metadata>
  <rdf:RDF xmlns:dc="http://purl.org/dc/elements/1.1/" xmlns:cc="http://creativecommons.org/ns#" xmlns:rdf="http://www.w3.org/1999/02/22-rdf-syntax-ns#">
   <cc:Work>
    <dc:type rdf:resource="http://purl.org/dc/dcmitype/StillImage"/>
    <dc:date>2026-06-09T04:57:11.296487</dc:date>
    <dc:format>image/svg+xml</dc:format>
    <dc:creator>
     <cc:Agent>
      <dc:title>Matplotlib v3.10.8, https://matplotlib.org/</dc:title>
     </cc:Agent>
    </dc:creator>
   </cc:Work>
  </rdf:RDF>
 </metadata>
 <defs>
  <style type="text/css">*{stroke-linejoin: round; stroke-linecap: butt}</style>
 </defs>
 <g id="figure_1">
  <g id="patch_1">
   <path d="M 0 384 
L 576 384 
L 576 0 
L 0 0 
z
" style="fill: #eaf3ff"/>
  </g>
  <g id="axes_1">
   <g id="PatchCollection_1">
    <path d="M 68.967675 186.782401 
L 70.659354 180.593135 
L 102.819128 184.80001 
L 109.732194 180.525667 
L 100.962249 172.208159 
L 101.107108 164.874405 
L 88.993491 161.879983 
L 93.31794 156.578229 
L 121.684581 160.441807 
L 123.364354 170.898471 
L 121.896909 178.279354 
L 117.215768 181.514877 
L 122.157358 187.279487 
L 121.762468 192.495417 
L 109.010378 189.232112 
L 99.949225 190.563627 
L 88.234468 189.175557 
L 79.251202 192.764299 
z
" clip-path="url(#p7dab32dc7d)" style="fill: #e8edf4; stroke: #b8c5d4; stroke-width: 0.45"/>
    <path d="M 117.215768 181.514877 
L 121.896909 178.279354 
L 123.364354 170.898471 
L 121.684581 160.441807 
L 124.085675 157.169077 
L 139.073163 157.257877 
L 150.446112 162.199963 
L 155.506268 161.71776 
L 158.992319 168.528631 
L 169.497104 168.145647 
L 168.878475 173.867592 
L 177.42121 174.561131 
L 186.857409 181.605167 
L 179.727053 189.420627 
L 170.59496 185.24451 
L 155.465589 185.135866 
L 152.003846 188.637792 
L 144.632885 189.820975 
L 141.711389 185.163151 
L 135.362878 187.919448 
L 127.677889 201.066924 
L 122.734811 198.013963 
L 122.157358 187.279487 
z
" clip-path="url(#p7dab32dc7d)" style="fill: #e8edf4; stroke: #b8c5d4; stroke-width: 0.45"/>
    <path d="M -6.880896 67.107072 
L -2.702784 54.9216 
L 3.07392 55.69536 
L 9.79392 71.63136 
L 9.896448 82.77216 
L 5.18592 83.72736 
L 0.30816 72.66528 
z
" clip-path="url(#p7dab32dc7d)" style="fill: #e8edf4; stroke: #b8c5d4; stroke-width: 0.45"/>
    <path d="M 4.99392 19.79136 
L 20.16192 28.43136 
L 16.84896 42.079104 
L 13.318848 39.61824 
L 13.63392 29.58336 
L 5.031936 21.996288 
z
" clip-path="url(#p7dab32dc7d)" style="fill: #e8edf4; stroke: #b8c5d4; stroke-width: 0.45"/>
    <path d="M -17.85408 24.59136 
L -8.83008 23.05536 
L 3.84192 23.63136 
L 4.41792 28.62336 
L -16.51008 31.69536 
z
" clip-path="url(#p7dab32dc7d)" style="fill: #e8edf4; stroke: #b8c5d4; stroke-width: 0.45"/>
    <path d="M -18.064036 506.485057 
L -10.900443 505.044401 
L -11.750747 495.426135 
L -7.2482 488.471893 
L 2.276303 487.18453 
L 17.710276 465.046346 
L 10.633499 460.477323 
L 14.255975 449.334065 
L 9.924085 431.76937 
L 14.040671 426.728561 
L 11.010034 410.489924 
L 3.235749 400.262952 
L 5.696374 390.930436 
L 11.884647 392.308584 
L 15.504643 386.602018 
L 11.047241 375.293065 
L 13.377393 372.48567 
L 23.29778 373.09537 
L 37.70335 359.692405 
L 45.609596 357.648995 
L 49.337741 335.074745 
L 60.349534 326.164901 
L 72.448268 325.800272 
L 73.975245 321.798284 
L 88.998452 323.400667 
L 111.588577 309.412807 
L 120.883389 300.163139 
L 127.685331 301.339377 
L 132.722667 306.390108 
L 128.995514 312.854706 
L 116.662624 316.072866 
L 111.792471 325.67228 
L 104.360491 331.177432 
L 98.780428 338.312749 
L 96.431921 352.01337 
L 91.10685 363.240963 
L 101.018307 364.526838 
L 103.480421 373.353834 
L 107.716565 377.578073 
L 109.232628 385.308702 
L 106.952085 392.415245 
L 107.627764 396.42269 
L 112.353553 398.023088 
L 116.926546 404.720354 
L 141.616635 402.873893 
L 152.770311 405.320131 
L 166.283905 421.842038 
L 174.043803 419.788706 
L 187.872913 420.816612 
L 198.816245 418.626854 
L 205.60628 421.926374 
L 202.148507 432.267448 
L 197.863745 438.71369 
L 196.360085 452.483764 
L 200.222671 465.241311 
L 205.680694 470.946389 
L 206.340995 475.245042 
L 196.611108 484.802784 
L 203.577753 489.033967 
L 208.681069 495.747108 
L 214.536464 514.894838 
L 210.912995 517.261206 
L 207.169968 505.935385 
L 201.835968 499.845834 
L 195.485471 506.464221 
L 158.076034 506.0351 
L 158.313663 518.049002 
L 169.564077 520.03437 
L 168.915186 527.388463 
L 165.075917 525.401112 
L 154.263057 528.564206 
L 154.165327 542.514362 
L 162.682264 549.519206 
L 165.688593 560.513635 
L 156.604124 621.484549 
L 146.996276 611.277917 
L 141.262425 610.822502 
L 153.645917 591.282362 
L 138.943186 582.291159 
L 127.419921 583.941167 
L 120.486514 580.619323 
L 109.906819 585.696346 
L 95.610389 583.291284 
L 84.299452 563.160792 
L 75.411932 558.213745 
L 69.28319 549.151104 
L 56.514729 540.057706 
L 51.396034 541.87837 
L 33.749483 530.971252 
L 28.295428 534.026198 
L 12.002221 531.362174 
L 7.324553 523.102213 
L 3.744741 523.408799 
L -15.459048 512.445624 
z
" clip-path="url(#p7dab32dc7d)" style="fill: #e8edf4; stroke: #b8c5d4; stroke-width: 0.45"/>
    <path d="M -94.381115 381.038823 
L -91.769677 373.334487 
L -92.516298 369.859846 
L -89.646396 367.585752 
L -93.639454 364.732221 
L -93.749587 357.004569 
L -86.325048 355.289573 
L -79.430833 362.176346 
L -79.82374 366.244315 
L -72.162564 367.107518 
L -70.349837 365.545815 
L -65.072392 370.263667 
L -55.626271 368.876092 
L -47.458583 364.026776 
L -35.798396 360.154268 
L -29.245493 354.416448 
L -18.644962 355.543077 
L -19.360329 357.431706 
L -8.655122 358.086549 
L -0.111892 361.402936 
L 13.377393 372.48567 
L 11.047241 375.293065 
L 15.504643 386.602018 
L 11.884647 392.308584 
L 5.696374 390.930436 
L 3.235749 400.262952 
L -3.164853 394.724065 
L -7.277966 384.36017 
L -2.534318 379.231057 
L -7.399013 377.915417 
L -10.982794 371.57137 
L -20.547978 366.234393 
L -28.949325 367.45776 
L -32.841181 374.13667 
L -40.596118 378.959694 
L -44.785134 379.629917 
L -46.667314 383.625456 
L -37.508927 394.046897 
L -45.524314 399.345178 
L -54.456978 400.324963 
L -57.781302 388.855276 
L -60.280622 392.119573 
L -66.612763 390.992448 
L -70.487255 383.267276 
L -83.344021 379.746002 
L -91.583642 379.774776 
L -92.176474 383.941963 
z
" clip-path="url(#p7dab32dc7d)" style="fill: #e8edf4; stroke: #b8c5d4; stroke-width: 0.45"/>
    <path d="M 91.10685 363.240963 
L 96.431921 352.01337 
L 98.780428 338.312749 
L 104.360491 331.177432 
L 111.792471 325.67228 
L 116.662624 316.072866 
L 128.995514 312.854706 
L 128.449811 317.391483 
L 117.178561 319.632338 
L 123.441249 328.345729 
L 123.207093 338.386667 
L 114.73778 349.538854 
L 122.005553 364.771909 
L 130.282382 363.525225 
L 134.593932 349.647499 
L 128.640311 342.890206 
L 127.669952 328.355155 
L 151.580182 320.550112 
L 148.920128 311.50037 
L 155.651624 305.443065 
L 162.543358 318.934831 
L 176.008335 319.246377 
L 188.483108 329.953073 
L 189.23469 336.310018 
L 206.473948 336.47869 
L 226.986928 334.505725 
L 237.981358 343.104022 
L 252.665237 345.476838 
L 263.435928 339.479065 
L 263.656194 334.644135 
L 310.447757 333.219354 
L 294.143635 338.890202 
L 300.702491 347.953834 
L 316.057585 349.396475 
L 330.614464 358.837635 
L 333.673874 374.220014 
L 343.680085 373.786428 
L 351.20285 378.312292 
L 335.990632 389.590983 
L 334.312843 396.591362 
L 340.885093 403.71626 
L 336.117135 407.31294 
L 324.302663 410.394674 
L 324.685151 419.260862 
L 319.484104 424.545252 
L 332.477296 439.114038 
L 335.01928 444.531877 
L 327.997569 451.859182 
L 306.521671 459.046588 
L 292.714885 462.025631 
L 287.172526 466.564393 
L 271.905737 461.765182 
L 257.691659 459.308526 
L 254.093491 461.075612 
L 262.686827 466.05292 
L 261.912425 478.925065 
L 264.577936 491.016854 
L 280.842866 492.666862 
L 281.88119 496.702088 
L 268.166678 502.165073 
L 265.935249 510.296545 
L 243.751425 517.92994 
L 240.035186 523.805674 
L 225.107229 525.049877 
L 214.536464 514.894838 
L 208.681069 495.747108 
L 203.577753 489.033967 
L 196.611108 484.802784 
L 206.340995 475.245042 
L 205.680694 470.946389 
L 200.222671 465.241311 
L 196.360085 452.483764 
L 197.863745 438.71369 
L 202.148507 432.267448 
L 205.60628 421.926374 
L 198.816245 418.626854 
L 187.872913 420.816612 
L 174.043803 419.788706 
L 166.283905 421.842038 
L 152.770311 405.320131 
L 141.616635 402.873893 
L 116.926546 404.720354 
L 112.353553 398.023088 
L 107.627764 396.42269 
L 106.952085 392.415245 
L 109.232628 385.308702 
L 107.716565 377.578073 
L 103.480421 373.353834 
L 101.018307 364.526838 
z
" clip-path="url(#p7dab32dc7d)" style="fill: #e8edf4; stroke: #b8c5d4; stroke-width: 0.45"/>
    <path d="M 319.484104 424.545252 
L 324.685151 419.260862 
L 324.302663 410.394674 
L 336.117135 407.31294 
L 340.885093 403.71626 
L 334.312843 396.591362 
L 335.990632 389.590983 
L 351.20285 378.312292 
L 363.809585 385.374682 
L 375.689046 397.883686 
L 376.2283 407.769842 
L 383.462339 408.22476 
L 401.331139 424.274881 
L 398.2628 441.546881 
L 386.607573 446.556932 
L 387.645897 451.08478 
L 384.103788 460.99078 
L 392.611796 474.933991 
L 398.758397 474.956315 
L 401.280042 485.795963 
L 413.005714 502.488526 
L 408.333999 503.176112 
L 397.71412 501.547436 
L 391.471276 506.653729 
L 376.71596 510.851674 
L 374.593671 514.612065 
L 365.169378 513.659565 
L 353.357882 504.650999 
L 351.965843 495.766456 
L 347.051042 486.058893 
L 350.105987 469.714588 
L 355.431553 462.95035 
L 351.027729 454.028104 
L 344.430675 451.120002 
L 346.927514 442.689385 
L 342.459198 438.265221 
L 332.477296 439.114038 
z
" clip-path="url(#p7dab32dc7d)" style="fill: #e8edf4; stroke: #b8c5d4; stroke-width: 0.45"/>
    <path d="M 207.507311 186.169725 
L 210.228882 183.363819 
L 225.939178 183.475936 
L 235.752905 185.16712 
L 239.214647 188.981088 
L 234.296374 193.821971 
L 208.626003 194.385534 
z
" clip-path="url(#p7dab32dc7d)" style="fill: #e8edf4; stroke: #b8c5d4; stroke-width: 0.45"/>
    <path d="M -5.52229 189.020776 
L -3.218431 184.632331 
L 9.225585 183.941272 
L 22.146843 185.662717 
L 32.347026 190.273909 
L 35.528475 195.53151 
L 22.032741 195.889194 
L 16.200167 199.097928 
L 5.45428 196.01669 
z
" clip-path="url(#p7dab32dc7d)" style="fill: #e8edf4; stroke: #b8c5d4; stroke-width: 0.45"/>
    <path d="M -132.956372 118.55562 
L -122.821673 112.624323 
L -118.660935 105.69687 
L -109.980286 101.427487 
L -100.174993 97.684956 
L -85.638454 95.847424 
L -80.986583 93.738034 
L -49.318439 95.324542 
L -31.284935 101.865538 
L -23.642611 108.89469 
L -5.708822 106.725768 
L 29.304483 131.788424 
L 35.625214 131.524502 
L 47.07605 135.44017 
L 45.677561 140.845608 
L 59.831116 141.636381 
L 74.343843 149.494506 
L 72.066276 153.992092 
L 59.299303 156.429401 
L 46.376061 157.382893 
L 33.147721 155.863854 
L 5.656686 157.734127 
L 18.527839 147.022967 
L 10.702952 142.035737 
L -1.674091 140.752342 
L -8.308353 135.209983 
L -12.859517 124.275581 
L -23.710079 125.023194 
L -41.613607 119.874733 
L -47.374743 115.847444 
L -72.400193 112.871874 
L -79.101923 109.126862 
L -71.902115 104.329635 
L -90.735322 103.346874 
L -104.531689 113.323815 
L -112.487048 113.591706 
L -115.239376 118.276319 
L -124.74106 120.375788 
z
" clip-path="url(#p7dab32dc7d)" style="fill: #e8edf4; stroke: #b8c5d4; stroke-width: 0.45"/>
    <path d="M 309.12192 345.23136 
L 314.68992 339.95136 
L 314.30592 332.36736 
L 325.34592 329.87136 
L 329.37792 330.54336 
L 328.60992 344.84736 
L 312.57792 346.95936 
z
" clip-path="url(#p7dab32dc7d)" style="fill: #e8edf4; stroke: #b8c5d4; stroke-width: 0.45"/>
   </g>
   <g id="PathCollection_1">
    <defs>
     <path id="meaf504045e" d="M 0 2.12132 
C 0.562581 2.12132 1.102195 1.897805 1.5 1.5 
C 1.897805 1.102195 2.12132 0.562581 2.12132 0 
C 2.12132 -0.562581 1.897805 -1.102195 1.5 -1.5 
C 1.102195 -1.897805 0.562581 -2.12132 0 -2.12132 
C -0.562581 -2.12132 -1.102195 -1.897805 -1.5 -1.5 
C -1.897805 -1.102195 -2.12132 -0.562581 -2.12132 0 
C -2.12132 0.562581 -1.897805 1.102195 -1.5 1.5 
C -1.102195 1.897805 -0.562581 2.12132 0 2.12132 
z
" style="stroke: #ffffff; stroke-width: 0.5"/>
    </defs>
    <g clip-path="url(#p7dab32dc7d)">
     <use xlink:href="#meaf504045e" x="312.00192" y="211.59936" style="fill: #8aa0b7; stroke: #ffffff; stroke-width: 0.5"/>
     <use xlink:href="#meaf504045e" x="285.76192" y="188.55936" style="fill: #8aa0b7; stroke: #ffffff; stroke-width: 0.5"/>
     <use xlink:href="#meaf504045e" x="155.20192" y="298.95936" style="fill: #8aa0b7; stroke: #ffffff; stroke-width: 0.5"/>
     <use xlink:href="#meaf504045e" x="355.52192" y="286.15936" style="fill: #8aa0b7; stroke: #ffffff; stroke-width: 0.5"/>
     <use xlink:href="#meaf504045e" x="292.16256" y="195.27936" style="fill: #8aa0b7; stroke: #ffffff; stroke-width: 0.5"/>
     <use xlink:href="#meaf504045e" x="188.38272" y="305.13408" style="fill: #8aa0b7; stroke: #ffffff; stroke-width: 0.5"/>
     <use xlink:href="#meaf504045e" x="39.36192" y="73.35936" style="fill: #8aa0b7; stroke: #ffffff; stroke-width: 0.5"/>
     <use xlink:href="#meaf504045e" x="173.95392" y="305.30304" style="fill: #8aa0b7; stroke: #ffffff; stroke-width: 0.5"/>
     <use xlink:href="#meaf504045e" x="320.96192" y="242.95936" style="fill: #8aa0b7; stroke: #ffffff; stroke-width: 0.5"/>
     <use xlink:href="#meaf504045e" x="314.56192" y="306.31936" style="fill: #8aa0b7; stroke: #ffffff; stroke-width: 0.5"/>
     <use xlink:href="#meaf504045e" x="316.161926" y="226.95936" style="fill: #8aa0b7; stroke: #ffffff; stroke-width: 0.5"/>
     <use xlink:href="#meaf504045e" x="108.16192" y="174.15936" style="fill: #8aa0b7; stroke: #ffffff; stroke-width: 0.5"/>
     <use xlink:href="#meaf504045e" x="10.56192" y="188.55936" style="fill: #8aa0b7; stroke: #ffffff; stroke-width: 0.5"/>
     <use xlink:href="#meaf504045e" x="293.76192" y="206.15936" style="fill: #8aa0b7; stroke: #ffffff; stroke-width: 0.5"/>
     <use xlink:href="#meaf504045e" x="328.00192" y="272.39936" style="fill: #8aa0b7; stroke: #ffffff; stroke-width: 0.5"/>
     <use xlink:href="#meaf504045e" x="288" y="192" style="fill: #8aa0b7; stroke: #ffffff; stroke-width: 0.5"/>
     <use xlink:href="#meaf504045e" x="327.36192" y="257.359354" style="fill: #8aa0b7; stroke: #ffffff; stroke-width: 0.5"/>
     <use xlink:href="#meaf504045e" x="304.32192" y="217.35936" style="fill: #8aa0b7; stroke: #ffffff; stroke-width: 0.5"/>
     <use xlink:href="#meaf504045e" x="221.76192" y="188.55936" style="fill: #8aa0b7; stroke: #ffffff; stroke-width: 0.5"/>
     <use xlink:href="#meaf504045e" x="287.90976" y="192.54336" style="fill: #8aa0b7; stroke: #ffffff; stroke-width: 0.5"/>
     <use xlink:href="#meaf504045e" x="120.04224" y="122.43456" style="fill: #8aa0b7; stroke: #ffffff; stroke-width: 0.5"/>
     <use xlink:href="#meaf504045e" x="327.36192" y="327.75936" style="fill: #8aa0b7; stroke: #ffffff; stroke-width: 0.5"/>
     <use xlink:href="#meaf504045e" x="323.52192" y="284.55936" style="fill: #8aa0b7; stroke: #ffffff; stroke-width: 0.5"/>
     <use xlink:href="#meaf504045e" x="257.47392" y="185.28192" style="fill: #8aa0b7; stroke: #ffffff; stroke-width: 0.5"/>
     <use xlink:href="#meaf504045e" x="252.55296" y="186.912" style="fill: #8aa0b7; stroke: #ffffff; stroke-width: 0.5"/>
    </g>
   </g>
   <g id="PathCollection_2">
    <defs>
     <path id="mfabeffc655" d="M 0 3.674235 
C 0.974418 3.674235 1.909058 3.287094 2.598076 2.598076 
C 3.287094 1.909058 3.674235 0.974418 3.674235 0 
C 3.674235 -0.974418 3.287094 -1.909058 2.598076 -2.598076 
C 1.909058 -3.287094 0.974418 -3.674235 0 -3.674235 
C -0.974418 -3.674235 -1.909058 -3.287094 -2.598076 -2.598076 
C -3.287094 -1.909058 -3.674235 -0.974418 -3.674235 0 
C -3.674235 0.974418 -3.287094 1.909058 -2.598076 2.598076 
C -1.909058 3.287094 -0.974418 3.674235 0 3.674235 
z
" style="stroke: #ffffff; stroke-width: 1.2"/>
    </defs>
    <g clip-path="url(#p7dab32dc7d)">
     <use xlink:href="#mfabeffc655" x="288" y="192" style="fill: #f97316; stroke: #ffffff; stroke-width: 1.2"/>
    </g>
   </g>
   <g id="PathCollection_3">
    <path d="M 288 196.929503 
C 289.307319 196.929503 290.561271 196.410099 291.485685 195.485685 
C 292.410099 194.561271 292.929503 193.307319 292.929503 192 
C 292.929503 190.692681 292.410099 189.438729 291.485685 188.514315 
C 290.561271 187.589901 289.307319 187.070497 288 187.070497 
C 286.692681 187.070497 285.438729 187.589901 284.514315 188.514315 
C 283.589901 189.438729 283.070497 190.692681 283.070497 192 
C 283.070497 193.307319 283.589901 194.561271 284.514315 195.485685 
C 285.438729 196.410099 286.692681 196.929503 288 196.929503 
L 288 196.929503 
z
" clip-path="url(#p7dab32dc7d)" style="fill: none; stroke: #7c2d12; stroke-width: 1.1"/>
   </g>
  </g>
 </g>
 <defs>
  <clipPath id="p7dab32dc7d">
   <rect x="0" y="-0" width="576" height="384"/>
  </clipPath>
 </defs>
</svg>
