<?xml version="1.0" encoding="utf-8" standalone="no"?>
<!DOCTYPE svg PUBLIC "-//W3C//DTD SVG 1.1//EN"
  "http://www.w3.org/Graphics/SVG/1.1/DTD/svg11.dtd">
<svg xmlns:xlink="http://www.w3.org/1999/xlink" width="576pt" height="422.4pt" viewBox="0 0 576 422.4" xmlns="http://www.w3.org/2000/svg" version="1.1">
 <metadata>
  <rdf:RDF xmlns:dc="http://purl.org/dc/elements/1.1/" xmlns:cc="http://creativecommons.org/ns#" xmlns:rdf="http://www.w3.org/1999/02/22-rdf-syntax-ns#">
   <cc:Work>
    <dc:type rdf:resource="http://purl.org/dc/dcmitype/StillImage"/>
    <dc:date>2026-06-09T04:57:23.201906</dc:date>
    <dc:format>image/svg+xml</dc:format>
    <dc:creator>
     <cc:Agent>
      <dc:title>Matplotlib v3.10.8, https://matplotlib.org/</dc:title>
     </cc:Agent>
    </dc:creator>
   </cc:Work>
  </rdf:RDF>
 </metadata>
 <defs>
  <style type="text/css">*{stroke-linejoin: round; stroke-linecap: butt}</style>
 </defs>
 <g id="figure_1">
  <g id="patch_1">
   <path d="M 0 422.4 
L 576 422.4 
L 576 0 
L 0 0 
z
" style="fill: #eaf3ff"/>
  </g>
  <g id="axes_1">
   <g id="PatchCollection_1">
    <path d="M 410.595549 -74.341023 
L 418.822768 -80.434543 
L 413.12928 -98.341824 
L 426.791026 -109.405922 
L 423.899904 -112.757184 
L 445.72224 -123.36864 
L 425.6064 -132.497664 
L 484.550229 -168.097781 
L 491.771369 -177.88968 
L 463.351151 -191.044102 
L 471.200346 -203.555586 
L 453.915448 -217.844574 
L 466.84128 -234.304896 
L 444.510502 -256.160375 
L 462.228987 -270.637383 
L 432.824518 -283.430648 
L 435.627448 -296.873797 
L 451.13376 -298.642944 
L 483.803136 -306.345792 
L 503.610624 -313.02432 
L 535.151424 -301.417344 
L 587.730432 -296.847744 
L 660.275328 -275.13216 
L 675.011904 -266.006976 
L 676.28064 -253.228416 
L 654.966336 -243.140736 
L 623.61504 -238.021056 
L 537.901632 -252.614592 
L 523.803648 -250.174656 
L 555.105984 -236.11296 
L 557.585472 -207.585984 
L 597.306816 -196.746816 
L 599.788224 -206.056512 
L 588.222317 -214.307712 
L 600.442368 -221.579904 
L 646.85664 -209.629248 
L 663.02592 -214.307712 
L 650.10432 -228.369024 
L 694.849728 -247.173696 
L 712.570368 -246.066816 
L 730.4976 -239.356416 
L 741.681792 -252.551808 
L 725.671488 -263.99712 
L 735.07104 -275.479872 
L 720.956544 -287.389248 
L 774.6624 -281.23008 
L 785.632128 -270.477504 
L 761.321664 -268.107264 
L 761.453184 -257.42304 
L 776.56608 -250.849344 
L 806.230272 -255.01344 
L 810.926592 -267.259776 
L 918.037056 -292.891776 
L 932.519232 -291.94656 
L 913.590144 -280.295232 
L 937.406976 -278.292864 
L 951.161856 -284.852352 
L 987.149184 -285.382656 
L 1015.6608 -293.341824 
L 1037.537664 -281.776128 
L 1059.356928 -294.491328 
L 1039.2384 -305.61408 
L 1049.2224 -311.95008 
L 1105.9392 -306.139968 
L 1132.514208 -300.138912 
L 1202.095872 -278.202816 
L 1214.931456 -288.250176 
L 1195.419648 -298.401792 
L 1194.858624 -302.474688 
L 1171.719936 -304.358592 
L 1178.049792 -313.461696 
L 1167.780864 -328.440768 
L 1167.199872 -334.586304 
L 1202.631552 -351.97248 
L 1215.232512 -369.422592 
L 1229.5104 -373.19808 
L 1280.343168 -368.134848 
L 1284.346176 -357.455232 
L 1266.146112 -341.882496 
L 1278.088512 -335.761728 
L 1284.266496 -322.339968 
L 1279.90464 -296.0304 
L 1301.085504 -284.26176 
L 1292.84544 -271.44576 
L 1255.2384 -244.17408 
L 1277.184192 -241.345344 
L 1284.821184 -248.257344 
L 1305.945408 -253.187712 
L 1311.043392 -262.688448 
L 1327.6608 -271.831104 
L 1316.472192 -282.746688 
L 1325.430528 -295.422336 
L 1304.435712 -297.002112 
L 1299.818304 -307.680576 
L 1315.13856 -326.95968 
L 1290.20352 -342.615744 
L 1324.566144 -355.556928 
L 1320.120192 -369.209664 
L 1329.696192 -369.645504 
L 1339.785792 -359.000832 
L 1332.210816 -340.472832 
L 1352.757312 -336.965184 
L 1344.002496 -350.811072 
L 1376.13408 -358.359744 
L 1415.981184 -359.376192 
L 1451.4624 -348.43008 
L 1434.388032 -364.4208 
L 1432.475328 -384.87552 
L 1465.8624 -388.75008 
L 1512.043392 -387.903552 
L 1553.65056 -390.418176 
L 1538.045952 -400.455744 
L 1560.265344 -413.065536 
L 1582.324032 -413.593536 
L 1619.6544 -423.11808 
L 1670.353536 -425.678016 
L 1676.759232 -430.93632 
L 1727.1744 -432.71808 
L 1742.884032 -428.407296 
L 1785.975168 -438.610368 
L 1821.248064 -438.291456 
L 1826.540544 -446.578368 
L 1844.886528 -454.750848 
L 1890.21312 -462.630144 
L 1923.141888 -456.408768 
L 1896.9984 -451.67616 
L 1940.488896 -448.734528 
L 1945.6704 -439.24608 
L 1963.21536 -443.9184 
L 2019.345792 -443.66208 
L 2062.627392 -434.297088 
L 2078.038464 -427.104768 
L 2073.261888 -417.123648 
L 2001.5664 -400.783296 
L 1987.1424 -395.08608 
L 2039.350848 -387.554688 
L 2056.637568 -391.187136 
L 2066.430336 -378.86304 
L 2074.863552 -383.851776 
L 2105.564544 -386.8848 
L 2167.167936 -383.714304 
L 2171.8464 -374.73408 
L 2252.115072 -371.877504 
L 2253.211584 -386.542656 
L 2293.9584 -383.18208 
L 2324.610048 -383.287488 
L 2355.614592 -373.173312 
L 2364.452544 -360.885504 
L 2353.0944 -352.84608 
L 2377.209408 -337.736448 
L 2407.403136 -329.940288 
L 2425.9296 -350.08704 
L 2456.729472 -341.449344 
L 2489.451456 -346.61088 
L 2526.61536 -340.704576 
L 2540.756928 -346.088256 
L 2572.163136 -343.396416 
L 2558.302272 -361.220928 
L 2583.651264 -369.538752 
L 2757.0624 -357.07008 
L 2773.405056 -345.673536 
L 2823.66528 -331.000704 
L 2901.194496 -334.633152 
L 2939.419968 -331.471104 
L 2955.404352 -323.532288 
L 2953.068672 -309.492096 
L 2976.720576 -304.025856 
L 3002.420544 -307.957248 
L 3036.470016 -308.460096 
L 3072.717504 -304.692288 
L 3109.107264 -306.817728 
L 3142.552896 -289.75104 
L 3166.346496 -295.891776 
L 3150.81984 -308.163072 
L 3159.36864 -316.693056 
L 3220.625472 -311.324736 
L 3260.563776 -312.47328 
L 3315.7824 -303.31008 
L 3342.6624 -294.931898 
L 3342.6624 -218.440487 
L 3317.84064 -209.900736 
L 3292.958976 -211.307712 
L 3310.272 -201.087936 
L 3321.7008 -185.267904 
L 3330.572928 -180.096384 
L 3332.800512 -172.153728 
L 3327.8448 -167.0688 
L 3292.05696 -171.25056 
L 3238.392768 -156.79776 
L 3221.320896 -154.560192 
L 3164.0736 -129.284736 
L 3157.01472 -120.560064 
L 3129.551232 -133.84224 
L 3079.526016 -118.77024 
L 3070.7904 -125.90208 
L 3052.295808 -117.6768 
L 3026.616768 -120.309312 
L 3020.430912 -107.681472 
L 2997.395136 -89.101056 
L 2998.079424 -81.341184 
L 3019.947072 -77.038656 
L 3017.374848 -49.087488 
L 2999.550336 -48.376128 
L 2991.330432 -32.315136 
L 2999.318208 -24.048768 
L 2965.742784 -14.241216 
L 2959.079616 7.680576 
L 2930.456448 12.363264 
L 2924.701056 31.870272 
L 2897.026368 49.75776 
L 2889.9264 36.52992 
L 2870.988672 -34.145856 
L 2880.219264 -60.774144 
L 2896.41888 -72.23232 
L 2897.42112 -81.205248 
L 2927.257536 -85.50048 
L 2961.554688 -109.673664 
L 2994.605568 -129.41568 
L 3029.120448 -144.73536 
L 3044.55456 -171.801792 
L 3021.224064 -170.182464 
L 3009.694272 -154.36608 
L 2960.994816 -133.279296 
L 2945.266944 -156.890112 
L 2895.699456 -150.370944 
L 2847.649152 -118.187136 
L 2863.5024 -106.41312 
L 2790.964416 -99.423168 
L 2792.35488 -113.306112 
L 2762.509632 -116.220096 
L 2738.722752 -106.788096 
L 2680.017024 -110.088384 
L 2616.860544 -104.397696 
L 2481.085248 -21.638208 
L 2511.335232 -19.21824 
L 2520.776064 -7.194624 
L 2539.42464 -2.926272 
L 2551.711296 -12.51744 
L 2572.771392 -11.271936 
L 2600.492352 9.850176 
L 2601.143616 26.185536 
L 2586.132864 45.368256 
L 2584.513536 68.295744 
L 2575.851456 98.993088 
L 2546.913024 126.77664 
L 2540.480832 140.05728 
L 2476.154688 195.924288 
L 2450.570304 207.189696 
L 2438.462784 207.438912 
L 2426.401344 198.106368 
L 2400.631104 212.157312 
L 2397.6384 218.54592 
L 2394.9504 215.18592 
L 2394.832635 205.432039 
L 2404.640408 204.914117 
L 2407.402658 182.228742 
L 2402.346048 165.785088 
L 2418.824721 159.003617 
L 2442.127104 162.403392 
L 2455.039565 143.724922 
L 2461.61952 122.690304 
L 2469.077952 115.66368 
L 2479.16758 98.387906 
L 2447.43544 104.04784 
L 2430.790848 111.621888 
L 2401.617792 111.599424 
L 2393.842432 93.559922 
L 2371.100502 79.910398 
L 2337.68448 73.772736 
L 2330.581549 54.965812 
L 2304.832299 15.548187 
L 2287.972057 8.477859 
L 2259.234624 2.76096 
L 2233.78076 3.280781 
L 2209.921627 6.743019 
L 2194.062502 16.295305 
L 2204.597549 20.858375 
L 2204.83584 31.459008 
L 2194.158336 37.61376 
L 2176.826688 57.977856 
L 2177.000846 66.42657 
L 2149.943893 78.559039 
L 2126.895377 71.310117 
L 2103.987752 72.910516 
L 2093.934908 66.477172 
L 2082.421565 64.402508 
L 2054.299002 77.933465 
L 2029.022033 81.11293 
L 2011.373002 85.871461 
L 1987.189424 82.745078 
L 1969.385612 82.945004 
L 1957.731377 73.130781 
L 1938.92744 63.903437 
L 1919.684955 61.374352 
L 1877.252073 67.44257 
L 1849.975488 59.367168 
L 1846.314432 44.979648 
L 1806.311658 37.797 
L 1784.803018 29.860492 
L 1764.916604 49.758812 
L 1772.712221 61.059828 
L 1754.049792 74.42976 
L 1726.291584 69.602688 
L 1707.128627 68.912 
L 1694.295674 59.943617 
L 1674.263232 59.660352 
L 1657.568862 53.768242 
L 1628.364815 62.799133 
L 1591.729283 79.335922 
L 1563.97383 84.242289 
L 1553.786049 72.497766 
L 1529.054783 75.067035 
L 1520.881143 66.917703 
L 1507.456846 63.191047 
L 1498.216604 52.096406 
L 1487.616073 48.641609 
L 1460.025323 53.575758 
L 1433.57658 42.513859 
L 1423.345143 52.566703 
L 1380.439979 3.805152 
L 1355.945846 -11.028547 
L 1362.971526 -17.048148 
L 1314.850944 1.0704 
L 1296.435432 2.165562 
L 1298.025908 -8.313922 
L 1273.36608 -14.861863 
L 1253.320916 -10.189156 
L 1247.275518 -30.088965 
L 1212.771205 -34.226883 
L 1195.509127 -26.261602 
L 1147.466304 -19.17408 
L 1138.090244 -14.431254 
L 1066.24512 -7.75008 
L 1057.441276 -1.197953 
L 1071.302135 11.953988 
L 1052.870268 16.94618 
L 1056.465955 22.176992 
L 1038.039049 31.529848 
L 1069.152065 44.734871 
L 1064.340948 53.827773 
L 1037.372299 52.999793 
L 1031.794221 58.69743 
L 1007.238144 48.748032 
L 976.799616 49.13376 
L 956.427648 57.233088 
L 891.373893 36.171797 
L 861.382049 36.668883 
L 821.748127 57.551453 
L 819.356955 71.574535 
L 799.612424 60.439711 
L 784.293049 81.534609 
L 789.900893 85.450773 
L 778.818158 100.002195 
L 795.115008 113.0256 
L 809.3616 112.489536 
L 821.601283 125.317859 
L 819.6528 135.197952 
L 829.404672 138.302784 
L 820.654272 149.689152 
L 802.039872 152.853312 
L 782.956992 172.67328 
L 800.408448 190.894848 
L 798.518784 203.827584 
L 819.482304 226.439424 
L 808.018237 234.178191 
L 804.723182 239.06273 
L 796.230057 237.751059 
L 783.034955 226.088887 
L 765.56928 220.995072 
L 759.69176 213.116531 
L 741.78476 209.09966 
L 730.141632 212.114688 
L 726.777408 208.545984 
L 700.63488 199.34016 
L 656.140127 192.95032 
L 653.798565 195.217965 
L 629.3184 178.99392 
L 607.413504 171.751488 
L 590.831232 160.471872 
L 604.803264 157.403328 
L 620.73504 141.345216 
L 609.997824 133.747776 
L 638.297664 125.91072 
L 637.78944 121.713408 
L 620.55433 124.807875 
L 621.160557 116.279031 
L 631.057344 110.918016 
L 649.63733 109.510328 
L 652.658304 103.107648 
L 648.41568 92.520576 
L 656.213549 82.467266 
L 655.987968 76.82976 
L 627.686174 70.581852 
L 616.466518 70.789219 
L 604.616823 61.798016 
L 589.884823 64.838574 
L 565.49983 58.08773 
L 565.918272 54.310272 
L 559.088315 45.984531 
L 543.778862 45.054852 
L 542.188385 39.094781 
L 546.983627 35.207391 
L 534.714237 24.336488 
L 514.805002 26.191383 
L 508.973916 25.226977 
L 504.123648 29.59392 
L 496.953024 28.817664 
L 492.230752 16.522516 
L 487.722252 10.149199 
L 491.417088 8.355264 
L 506.909174 9.021578 
L 514.380346 4.822641 
L 508.849893 -0.296551 
L 495.902838 -3.675445 
L 497.057744 -7.143141 
L 489.244268 -10.645563 
L 477.207049 -23.216082 
L 481.321651 -28.395797 
L 479.441455 -37.408828 
L 460.671252 -41.987773 
L 450.59658 -39.69582 
L 447.869057 -44.462289 
L 427.655221 -49.277375 
L 421.483815 -60.609148 
L 419.846705 -69.919836 
z
" clip-path="url(#p86a79901a0)" style="fill: #e8edf4; stroke: #b8c5d4; stroke-width: 0.45"/>
    <path d="M 874.612869 -353.515797 
L 894.245283 -357.635359 
L 893.59044 -368.104922 
L 931.67258 -384.478992 
L 914.021565 -386.826508 
L 959.989612 -403.67782 
L 954.79551 -412.393195 
L 997.740362 -422.530375 
L 1061.127252 -434.866242 
L 1125.031073 -438.459945 
L 1157.913158 -445.577898 
L 1195.277948 -448.072258 
L 1208.624854 -440.490457 
L 1195.729393 -434.516 
L 1069.065744 -415.839063 
L 1009.422377 -397.563961 
L 950.713651 -360.358418 
L 954.620885 -344.4095 
L 991.347698 -328.662988 
L 980.006002 -326.97875 
L 917.268002 -329.473109 
L 912.173119 -337.997984 
L 877.418776 -343.145453 
z
" clip-path="url(#p86a79901a0)" style="fill: #e8edf4; stroke: #b8c5d4; stroke-width: 0.45"/>
    <path d="M -3569.3376 -218.440487 
L -3569.3376 -294.931898 
L -3522.2976 -280.27008 
L -3471.96 -261.183168 
L -3473.6112 -249.2496 
L -3460.662336 -244.472832 
L -3465.116544 -258.424128 
L -3412.997952 -255.561216 
L -3375.409536 -237.593088 
L -3394.446144 -229.224768 
L -3425.9184 -227.237952 
L -3426.3936 -208.477248 
L -3434.079936 -204.481728 
L -3452.060928 -205.056 
L -3466.692864 -211.75008 
L -3492.221376 -217.349376 
L -3496.515072 -225.678144 
L -3516.012672 -228.818688 
L -3537.848256 -226.328064 
L -3548.281344 -233.046528 
L -3544.110912 -240.182592 
L -3567.105984 -235.621632 
L -3558.445056 -226.588992 
z
" clip-path="url(#p86a79901a0)" style="fill: #e8edf4; stroke: #b8c5d4; stroke-width: 0.45"/>
    <path d="M 2605.268658 32.00957 
L 2606.967283 5.772164 
L 2624.715533 -3.063266 
L 2617.08958 -11.959219 
L 2625.634299 -14.654992 
L 2637.270674 16.54732 
L 2636.779541 35.442043 
L 2644.704143 54.815992 
L 2664.022033 88.823219 
L 2635.601815 82.484133 
L 2623.78883 110.22768 
L 2642.505455 129.904742 
L 2641.963721 143.322094 
L 2627.418252 131.747234 
L 2614.829377 146.608219 
L 2611.275362 130.496086 
L 2613.416502 111.791367 
L 2611.227737 91.0735 
L 2615.66976 76.558789 
L 2616.51808 50.884945 
z
" clip-path="url(#p86a79901a0)" style="fill: #e8edf4; stroke: #b8c5d4; stroke-width: 0.45"/>
    <path d="M 509.782549 158.88257 
L 513.173846 155.201555 
L 531.555112 148.819805 
L 528.633371 146.509106 
L 533.692068 141.754122 
L 553.517134 146.629138 
L 556.008809 150.420817 
L 558.905452 151.005596 
L 559.061526 152.666516 
L 568.454565 157.298047 
L 588.038362 156.146117 
L 584.288885 162.99618 
L 563.270385 166.321992 
L 537.206612 177.429531 
L 526.529682 173.524281 
L 530.763346 164.50232 
z
" clip-path="url(#p86a79901a0)" style="fill: #e8edf4; stroke: #b8c5d4; stroke-width: 0.45"/>
    <path d="M 747.723994 -518.15443 
L 785.205862 -521.650898 
L 814.377166 -521.88307 
L 818.300276 -516.709805 
L 829.32844 -521.306609 
L 847.42594 -524.47268 
L 875.902713 -520.264813 
L 868.477182 -517.337859 
L 825.435096 -513.349762 
L 822.757182 -510.19907 
L 800.315885 -507.025559 
L 779.516658 -511.577219 
L 790.453541 -517.571023 
z
" clip-path="url(#p86a79901a0)" style="fill: #e8edf4; stroke: #b8c5d4; stroke-width: 0.45"/>
    <path d="M 1637.338944 -513.386112 
L 1687.193472 -526.5024 
L 1728.727584 -530.83776 
L 1766.03232 -521.172 
L 1810.246176 -502.608672 
L 1805.505792 -485.344128 
L 1763.614848 -482.94912 
L 1710.136128 -488.489184 
L 1678.269696 -495.81888 
L 1663.53408 -509.590848 
z
" clip-path="url(#p86a79901a0)" style="fill: #e8edf4; stroke: #b8c5d4; stroke-width: 0.45"/>
    <path d="M 2516.570688 -415.854144 
L 2526.888192 -429.054144 
L 2552.21904 -432.655872 
L 2602.917408 -431.813568 
L 2672.319072 -421.63248 
L 2657.2224 -407.37408 
L 2586.447552 -407.905536 
L 2554.606848 -403.370496 
z
" clip-path="url(#p86a79901a0)" style="fill: #e8edf4; stroke: #b8c5d4; stroke-width: 0.45"/>
    <path d="M 264.14669 -15.810891 
L 268.521244 -24.260359 
L 295.016619 -30.487328 
L 315.124291 -27.123813 
L 323.611463 -24.076309 
L 321.562596 -18.818707 
L 323.099494 -13.918789 
L 287.793494 -13.630559 
z
" clip-path="url(#p86a79901a0)" style="fill: #e8edf4; stroke: #b8c5d4; stroke-width: 0.45"/>
    <path d="M 2572.034304 -379.530816 
L 2590.247232 -387.119232 
L 2614.254144 -388.895616 
L 2641.532736 -381.55488 
L 2643.85632 -376.508928 
L 2614.744896 -376.374528 
z
" clip-path="url(#p86a79901a0)" style="fill: #e8edf4; stroke: #b8c5d4; stroke-width: 0.45"/>
    <path d="M 1795.874688 -466.91328 
L 1830.94848 -492.122688 
L 1846.72032 -494.281152 
L 1861.148448 -493.030848 
L 1909.813056 -482.126208 
L 1904.111424 -474.322368 
z
" clip-path="url(#p86a79901a0)" style="fill: #e8edf4; stroke: #b8c5d4; stroke-width: 0.45"/>
    <path d="M -3569.3376 -330.808305 
L -3569.3376 -343.931795 
L -3550.604736 -344.696256 
L -3522.834144 -339.204096 
L -3524.47824 -336.579264 
L -3544.258176 -331.976064 
z
" clip-path="url(#p86a79901a0)" style="fill: #e8edf4; stroke: #b8c5d4; stroke-width: 0.45"/>
    <path d="M 2692.150848 -414.151296 
L 2696.745312 -420.369024 
L 2780.710464 -412.444032 
L 2758.52016 -404.857344 
L 2727.829728 -406.574496 
z
" clip-path="url(#p86a79901a0)" style="fill: #e8edf4; stroke: #b8c5d4; stroke-width: 0.45"/>
    <path d="M 3318.18816 -335.92704 
L 3342.6624 -343.931795 
L 3342.6624 -330.808305 
L 3321.60816 -329.827968 
z
" clip-path="url(#p86a79901a0)" style="fill: #e8edf4; stroke: #b8c5d4; stroke-width: 0.45"/>
    <path d="M -201.510717 94.434039 
L -176.617228 90.257426 
L -144.374607 95.197031 
L -150.460685 73.464156 
L -132.335404 81.700305 
L -87.633388 66.728195 
L -81.868779 50.995078 
L -65.076998 47.118602 
L -62.295896 53.870437 
L -53.37117 54.186945 
L -31.045959 70.945984 
L -21.192545 69.450758 
L -0.100623 79.870711 
L 5.439752 79.464906 
L 14.500408 84.49232 
L 42.168549 88.028477 
L 32.460987 101.175953 
L 30.024174 114.854746 
L 24.752682 118.134422 
L 16.004565 116.367336 
L 16.621705 121.245922 
L 2.580268 132.034969 
L 2.296502 140.728516 
L 11.464315 137.720203 
L 18.059385 146.139906 
L 17.267619 151.565187 
L 22.918127 158.774422 
L 16.261541 164.622375 
L 21.207596 179.478398 
L 31.614651 181.914219 
L 29.417948 190.248098 
L 12.023908 201.095187 
L -25.84392 195.896621 
L -53.809717 202.12607 
L -56.00642 213.688031 
L -78.26317 216.176934 
L -99.86706 207.49182 
L -106.847099 211.642637 
L -142.190802 202.916844 
L -149.843545 195.452121 
L -139.914724 183.935801 
L -136.258513 145.6835 
L -156.071506 125.534156 
L -170.232502 115.819648 
L -199.575455 108.434797 
z
" clip-path="url(#p86a79901a0)" style="fill: #e8edf4; stroke: #b8c5d4; stroke-width: 0.45"/>
    <path d="M -1160.212881 984.782422 
L -1155.315939 976.708 
L -1150.270666 959.665195 
L -1157.80881 948.287781 
L -1159.327353 935.152211 
L -1149.332056 918.644195 
L -1128.674713 925.300781 
L -1108.345783 941.507172 
L -1105.16731 949.370258 
L -1116.524881 966.940906 
L -1122.420955 981.079578 
L -1129.779017 988.372652 
L -1138.972131 989.744848 
L -1141.590513 984.339906 
L -1145.885197 983.537227 
L -1151.8284 988.743234 
z
" clip-path="url(#p86a79901a0)" style="fill: #e8edf4; stroke: #b8c5d4; stroke-width: 0.45"/>
    <path d="M 50.711283 217.844801 
L 54.585776 210.70998 
L 66.950416 203.378211 
L 70.214713 219.842074 
L 63.873643 234.673789 
L 55.156283 230.76457 
z
" clip-path="url(#p86a79901a0)" style="fill: #e8edf4; stroke: #b8c5d4; stroke-width: 0.45"/>
    <path d="M 544.558721 429.758191 
L 550.144737 423.4325 
L 548.834057 422.343574 
L 553.912073 413.369734 
L 557.806408 398.884293 
L 560.552783 394.023566 
L 567.508018 393.860352 
L 569.276096 390.495844 
L 574.427533 390.243332 
L 574.721221 398.101953 
L 569.139174 407.205273 
L 562.193862 404.545715 
L 558.175502 417.331539 
L 562.999518 419.48657 
L 558.096127 422.127773 
L 557.268643 427.183961 
L 566.295565 424.579469 
L 566.744033 432.048656 
L 557.176369 462.744457 
z
" clip-path="url(#p86a79901a0)" style="fill: #e8edf4; stroke: #b8c5d4; stroke-width: 0.45"/>
    <path d="M 561.082612 393.824633 
L 567.920768 378.185277 
L 577.831729 363.98757 
L 586.467729 364.966363 
L 589.608002 372.495578 
L 579.13844 379.731602 
L 574.427533 390.243332 
L 569.276096 390.495844 
L 567.508018 393.860352 
z
" clip-path="url(#p86a79901a0)" style="fill: #e8edf4; stroke: #b8c5d4; stroke-width: 0.45"/>
    <path d="M 557.268643 427.183961 
L 558.096127 422.127773 
L 562.999518 419.48657 
L 558.175502 417.331539 
L 562.193862 404.545715 
L 569.139174 407.205273 
L 569.131237 418.945828 
L 566.295565 424.579469 
z
" clip-path="url(#p86a79901a0)" style="fill: #e8edf4; stroke: #b8c5d4; stroke-width: 0.45"/>
    <path d="M 31.132448 374.500293 
L 42.969244 363.791117 
L 47.488658 347.956301 
L 44.444627 329.652922 
L 48.344916 319.798516 
L 69.254276 312.050027 
L 82.694448 314.353887 
L 82.130885 324.068394 
L 98.416651 317.001539 
L 99.782893 320.689996 
L 90.182487 330.097918 
L 90.053502 338.978988 
L 96.701158 343.749426 
L 94.173065 360.366582 
L 81.53458 370.019078 
L 85.183846 380.48368 
L 95.113658 380.810109 
L 99.945612 389.937738 
L 107.247119 392.939602 
L 106.161666 407.68698 
L 96.802362 413.199078 
L 90.890908 419.350641 
L 77.706721 426.749383 
L 79.748643 434.702758 
L 78.086729 442.814883 
L 68.719487 447.264844 
L 60.529971 412.798234 
L 48.693174 405.04925 
L 48.527479 400.401844 
L 32.825119 388.962914 
z
" clip-path="url(#p86a79901a0)" style="fill: #e8edf4; stroke: #b8c5d4; stroke-width: 0.45"/>
    <path d="M -280.078076 503.171633 
L -279.880631 475.417172 
L -248.874771 461.248734 
L -229.70174 458.321285 
L -213.986482 453.161414 
L -206.642806 443.547117 
L -184.194068 435.948449 
L -183.36956 421.733875 
L -172.262021 420.059559 
L -163.576412 412.958473 
L -138.449263 409.722453 
L -134.928982 402.260707 
L -139.988146 398.180832 
L -146.619927 377.911434 
L -147.762927 366.233883 
L -154.999943 353.936711 
L -136.542775 343.444824 
L -115.784724 340.107602 
L -103.66317 332.18548 
L -85.172763 326.341496 
L -20.875045 321.361211 
L -11.191295 324.212758 
L 6.889338 316.645344 
L 27.405791 316.497012 
L 35.214307 320.964336 
L 48.344916 319.798516 
L 44.444627 329.652922 
L 47.488658 347.956301 
L 42.969244 363.791117 
L 31.132448 374.500293 
L 32.825119 388.962914 
L 48.527479 400.401844 
L 48.693174 405.04925 
L 60.529971 412.798234 
L 68.719487 447.264844 
L 74.93058 464.216863 
L 75.974362 473.138117 
L 72.592987 488.801781 
L 73.980065 497.555355 
L 71.540276 508.063613 
L 73.215088 520.135559 
L 65.595088 528.158883 
L 76.947698 542.153191 
L 77.669018 550.38041 
L 84.49626 561.087105 
L 93.47258 557.569305 
L 108.627252 566.490062 
L 117.052908 578.513887 
L 51.261948 615.109234 
L -4.328334 652.826746 
L -31.403146 661.388828 
L -52.701443 663.268527 
L -52.921709 651.053211 
L -73.766576 642.439039 
L -78.331631 633.442379 
z
" clip-path="url(#p86a79901a0)" style="fill: #e8edf4; stroke: #b8c5d4; stroke-width: 0.45"/>
    <path d="M 557.176369 462.744457 
L 566.744033 432.048656 
L 566.295565 424.579469 
L 569.131237 418.945828 
L 569.139174 407.205273 
L 572.48483 401.153426 
L 593.876393 408.761519 
L 631.475338 388.299141 
L 639.215393 411.678551 
L 635.556205 414.573754 
L 597.103979 424.208391 
L 616.240299 443.406723 
L 609.890299 446.667547 
L 606.731174 453.097418 
L 592.080533 455.75648 
L 587.485713 462.669051 
L 579.186065 468.578023 
L 557.818315 465.52407 
z
" clip-path="url(#p86a79901a0)" style="fill: #e8edf4; stroke: #b8c5d4; stroke-width: 0.45"/>
    <path d="M 572.48483 401.153426 
L 574.721221 398.101953 
L 574.427533 390.243332 
L 579.13844 379.731602 
L 589.608002 372.495578 
L 586.467729 364.966363 
L 577.831729 363.98757 
L 576.038846 349.297738 
L 580.737846 341.396453 
L 591.021869 332.983695 
L 592.06069 322.273527 
L 598.344213 326.007625 
L 619.482768 320.66668 
L 629.700315 324.281715 
L 645.49594 324.221687 
L 667.588979 317.017414 
L 677.934518 317.342355 
L 699.774549 314.356367 
L 689.934033 326.337527 
L 679.424783 331.08068 
L 681.234533 345.106242 
L 673.980651 368.317973 
L 631.475338 388.299141 
L 593.876393 408.761519 
z
" clip-path="url(#p86a79901a0)" style="fill: #e8edf4; stroke: #b8c5d4; stroke-width: 0.45"/>
    <path d="M 332.092682 21.419953 
L 343.607018 17.500812 
L 343.717151 9.847078 
L 338.391088 2.543586 
L 337.557651 -5.950035 
L 356.115526 -5.819563 
L 376.960393 -13.052609 
L 381.416307 -23.891762 
L 397.157362 -30.039852 
L 395.353565 -38.640133 
L 427.655221 -49.277375 
L 447.869057 -44.462289 
L 450.59658 -39.69582 
L 460.671252 -41.987773 
L 479.441455 -37.408828 
L 481.321651 -28.395797 
L 477.207049 -23.216082 
L 489.244268 -10.645563 
L 497.057744 -7.143141 
L 495.902838 -3.675445 
L 508.849893 -0.296551 
L 514.380346 4.822641 
L 506.909174 9.021578 
L 491.417088 8.355264 
L 487.722252 10.149199 
L 492.230752 16.522516 
L 496.953455 28.817711 
L 480.471346 29.956734 
L 474.555924 34.172043 
L 473.320651 43.835453 
L 465.683783 41.980062 
L 448.357213 42.89982 
L 443.324838 38.410668 
L 436.120565 41.757812 
L 428.901408 38.98316 
L 413.780471 38.597695 
L 392.351205 33.989977 
L 372.955924 32.485324 
L 358.082041 32.911469 
L 347.559893 38.114996 
L 338.382158 38.863602 
L 338.016041 30.315906 
z
" clip-path="url(#p86a79901a0)" style="fill: #e8edf4; stroke: #b8c5d4; stroke-width: 0.45"/>
    <path d="M 310.70608 99.462445 
L 314.454565 91.722391 
L 319.778643 86.72375 
L 323.969643 87.84393 
L 319.016643 79.215867 
L 336.451362 63.246609 
L 345.979338 61.012203 
L 348.038127 55.626113 
L 338.382158 38.863602 
L 347.559893 38.114996 
L 358.082041 32.911469 
L 372.955924 32.485324 
L 392.351205 33.989977 
L 413.780471 38.597695 
L 428.901408 38.98316 
L 436.120565 41.757812 
L 443.324838 38.410668 
L 448.357213 42.89982 
L 465.683783 41.980062 
L 473.320651 43.835453 
L 474.555924 34.172043 
L 480.471346 29.956734 
L 504.123648 29.59392 
L 508.973916 25.226977 
L 514.805002 26.191383 
L 534.714237 24.336488 
L 546.983627 35.207391 
L 542.188385 39.094781 
L 543.778862 45.054852 
L 559.088315 45.984531 
L 565.918272 54.310272 
L 565.49983 58.08773 
L 589.884823 64.838574 
L 604.616823 61.798016 
L 616.466518 70.789219 
L 627.686174 70.581852 
L 655.987968 76.82976 
L 656.213549 82.467266 
L 648.41568 92.520576 
L 652.658304 103.107648 
L 649.63733 109.510328 
L 631.057344 110.918016 
L 621.160557 116.279031 
L 620.55433 124.807875 
L 605.225033 126.343285 
L 592.451612 132.554875 
L 574.477143 133.567402 
L 557.939362 140.724547 
L 558.905452 151.005596 
L 556.008809 150.420817 
L 553.517134 146.629138 
L 533.692068 141.754122 
L 528.633371 146.509106 
L 525.994893 144.42243 
L 496.149893 139.569641 
L 494.828299 132.410016 
L 477.038377 134.774398 
L 469.912487 145.347644 
L 455.045549 159.538406 
L 446.337119 156.243352 
L 437.314166 159.332527 
L 428.746627 155.794883 
L 433.579573 153.709305 
L 442.189776 141.000375 
L 440.831471 137.562445 
L 444.846854 136.030508 
L 446.738955 138.688082 
L 458.053862 139.250156 
L 463.135846 137.830336 
L 459.556033 135.883664 
L 460.912354 133.022195 
L 454.208143 128.141129 
L 451.432994 120.114332 
L 444.439065 116.973562 
L 445.818205 110.467293 
L 437.14351 105.301469 
L 429.245698 104.583125 
L 415.095119 98.601227 
L 402.332612 100.500273 
L 397.753666 103.331977 
L 389.653448 103.329 
L 384.824471 107.816664 
L 370.651073 109.661637 
L 364.09569 112.609426 
L 355.181877 107.917867 
L 342.872799 107.84643 
L 330.993338 105.720172 
L 322.704604 109.831797 
L 321.366143 104.68532 
z
" clip-path="url(#p86a79901a0)" style="fill: #e8edf4; stroke: #b8c5d4; stroke-width: 0.45"/>
    <path d="M 156.893205 11.92968 
L 162.246057 6.805031 
L 157.760377 -2.965039 
L 170.878088 -8.603641 
L 225.020768 -23.97957 
L 244.182885 -20.736109 
L 245.630487 -16.053481 
L 287.793494 -13.630559 
L 323.099494 -13.918789 
L 332.946955 -11.864961 
L 337.557651 -5.950035 
L 338.391088 2.543586 
L 343.717151 9.847078 
L 343.607018 17.500812 
L 332.092682 21.419953 
L 338.016041 30.315906 
L 338.382158 38.863602 
L 348.038127 55.626113 
L 345.979338 61.012203 
L 336.451362 63.246609 
L 319.016643 79.215867 
L 323.969643 87.84393 
L 301.532315 79.343859 
L 287.711143 82.057492 
L 278.646518 80.086016 
L 267.302838 84.201113 
L 257.62008 77.395699 
L 249.726237 80.00168 
L 239.806346 69.38825 
L 225.531744 68.228383 
L 223.710088 62.216719 
L 210.542768 60.069625 
L 207.676338 65.027586 
L 197.246463 61.055859 
L 198.444033 55.773453 
L 184.089065 54.103105 
L 174.988721 47.921777 
L 167.11869 35.662309 
L 168.614908 29.04293 
L 163.864315 18.772797 
z
" clip-path="url(#p86a79901a0)" style="fill: #e8edf4; stroke: #b8c5d4; stroke-width: 0.45"/>
    <path d="M 68.677815 124.795969 
L 71.61469 120.095977 
L 70.871541 116.688805 
L 76.666908 115.630141 
L 86.382408 120.962156 
L 89.116877 115.895055 
L 106.049549 116.713609 
L 119.776463 113.270719 
L 128.980987 113.860078 
L 134.968838 117.791125 
L 136.758744 114.528316 
L 134.037174 102.01832 
L 140.934862 99.580516 
L 147.704557 90.728219 
L 161.969237 96.908059 
L 172.77019 89.053406 
L 179.527979 87.619695 
L 194.431627 93.479059 
L 203.448627 92.482406 
L 212.299932 96.107859 
L 210.758073 98.545664 
L 212.672002 105.198777 
L 211.214479 113.0445 
L 200.401619 113.082203 
L 204.120338 117.243437 
L 197.746526 129.604109 
L 194.086346 132.844594 
L 177.294565 133.322828 
L 167.605854 137.679027 
L 124.290916 131.232785 
L 120.00169 124.554371 
L 101.027096 127.891594 
L 98.794674 131.543836 
L 77.365408 128.291941 
z
" clip-path="url(#p86a79901a0)" style="fill: #e8edf4; stroke: #b8c5d4; stroke-width: 0.45"/>
    <path d="M 197.746526 129.604109 
L 204.120338 117.243437 
L 200.401619 113.082203 
L 211.214479 113.0445 
L 212.672002 105.198777 
L 229.519346 112.208086 
L 245.635448 109.855609 
L 247.181276 105.999969 
L 275.252244 101.280629 
L 279.754791 96.763199 
L 286.047244 95.591922 
L 306.609338 101.42648 
L 310.70608 99.462445 
L 321.366143 104.68532 
L 322.704604 109.831797 
L 310.97794 113.859086 
L 301.891487 126.880555 
L 290.283885 139.901031 
L 274.890096 143.522516 
L 262.906455 142.672707 
L 241.018799 150.587883 
L 225.159674 146.895953 
L 204.706721 136.297902 
L 200.976096 129.816437 
z
" clip-path="url(#p86a79901a0)" style="fill: #e8edf4; stroke: #b8c5d4; stroke-width: 0.45"/>
    <path d="M 397.753666 103.331977 
L 402.332612 100.500273 
L 415.095119 98.601227 
L 429.245698 104.583125 
L 437.14351 105.301469 
L 445.818205 110.467293 
L 444.439065 116.973562 
L 451.432994 120.114332 
L 454.208143 128.141129 
L 460.912354 133.022195 
L 459.556033 135.883664 
L 463.135846 137.830336 
L 458.053862 139.250156 
L 446.738955 138.688082 
L 444.846854 136.030508 
L 440.831471 137.562445 
L 442.189776 141.000375 
L 433.579573 153.709305 
L 428.746627 155.794883 
L 425.307705 147.033867 
L 427.334744 138.835918 
L 426.72058 130.408773 
L 403.60658 105.203242 
z
" clip-path="url(#p86a79901a0)" style="fill: #e8edf4; stroke: #b8c5d4; stroke-width: 0.45"/>
    <path d="M 274.890096 143.522516 
L 290.283885 139.901031 
L 301.891487 126.880555 
L 310.97794 113.859086 
L 330.993338 105.720172 
L 342.872799 107.84643 
L 355.181877 107.917867 
L 364.09569 112.609426 
L 370.651073 109.661637 
L 384.824471 107.816664 
L 389.653448 103.329 
L 397.753666 103.331977 
L 403.60658 105.203242 
L 426.72058 130.408773 
L 427.334744 138.835918 
L 425.307705 147.033867 
L 428.746627 155.794883 
L 437.314166 159.332527 
L 446.337119 156.243352 
L 455.045549 159.538406 
L 455.492033 164.490414 
L 446.181346 168.621883 
L 440.349268 166.823543 
L 434.977565 189.986656 
L 423.688455 187.970531 
L 409.716471 180.990988 
L 387.113448 185.45484 
L 377.592416 190.351781 
L 349.39544 189.341734 
L 334.642604 186.347312 
L 327.203182 187.753242 
L 318.163362 176.51275 
L 322.61233 173.272266 
L 317.875627 170.88159 
L 311.848088 175.184211 
L 300.653237 169.606133 
L 299.146104 161.691453 
L 287.449205 157.175512 
L 285.296158 151.066117 
z
" clip-path="url(#p86a79901a0)" style="fill: #e8edf4; stroke: #b8c5d4; stroke-width: 0.45"/>
    <path d="M 1.644635 33.618898 
L 13.178815 33.610961 
L 18.045494 26.383867 
L 22.829823 8.804289 
L 19.24108 2.312406 
L 22.990557 -1.753578 
L 39.038198 -2.797359 
L 42.599158 1.436305 
L 55.636502 -8.029164 
L 51.247065 -15.226492 
L 50.366002 -26.114758 
L 64.877737 -23.582695 
L 77.163002 -26.50568 
L 77.50233 -19.085606 
L 96.904557 -14.611336 
L 96.700166 -7.796992 
L 116.222448 -11.402602 
L 127.016455 -16.661195 
L 148.693768 -9.079891 
L 157.760377 -2.965039 
L 162.246057 6.805031 
L 156.893205 11.92968 
L 163.864315 18.772797 
L 168.614908 29.04293 
L 167.11869 35.662309 
L 174.988721 47.921777 
L 166.42019 49.925004 
L 161.357057 47.718379 
L 156.541971 51.373102 
L 142.754533 55.09182 
L 135.625666 59.875652 
L 121.672533 64.056234 
L 125.034065 69.762801 
L 127.066065 77.859547 
L 136.863916 82.474211 
L 147.704557 90.728219 
L 140.934862 99.580516 
L 134.037174 102.01832 
L 136.758744 114.528316 
L 134.968838 117.791125 
L 128.980987 113.860078 
L 119.776463 113.270719 
L 106.049549 116.713609 
L 89.116877 115.895055 
L 86.382408 120.962156 
L 76.666908 115.630141 
L 70.871541 116.688805 
L 50.296549 110.818031 
L 46.354588 114.989187 
L 30.024174 114.854746 
L 32.460987 101.175953 
L 42.168549 88.028477 
L 14.500408 84.49232 
L 5.439752 79.464906 
L 6.523221 71.047187 
L 2.689408 66.711328 
L 4.870237 53.738477 
z
" clip-path="url(#p86a79901a0)" style="fill: #e8edf4; stroke: #b8c5d4; stroke-width: 0.45"/>
    <path d="M 316.368494 216.620937 
L 319.526627 213.911769 
L 317.445018 211.627754 
L 320.674588 205.518359 
L 327.993955 199.515625 
L 318.665408 191.227883 
L 316.942971 184.215102 
L 321.679674 179.859398 
L 327.203182 187.753242 
L 334.642604 186.347312 
L 349.39544 189.341734 
L 377.592416 190.351781 
L 387.113448 185.45484 
L 409.716471 180.990988 
L 423.688455 187.970531 
L 434.977565 189.986656 
L 425.013026 197.941023 
L 418.001237 211.674387 
L 424.199432 222.628633 
L 407.668596 220.05341 
L 388.109604 226.093352 
L 387.900252 235.655062 
L 370.448666 237.467789 
L 356.921182 230.759113 
L 341.550213 236.035566 
L 327.348041 235.480437 
L 325.984776 222.783414 
z
" clip-path="url(#p86a79901a0)" style="fill: #e8edf4; stroke: #b8c5d4; stroke-width: 0.45"/>
    <path d="M 273.542705 268.369965 
L 282.470408 259.057789 
L 283.622338 252.817922 
L 289.862205 250.033844 
L 290.247174 244.989562 
L 302.806283 243.289449 
L 310.125651 239.092496 
L 320.530721 239.464566 
L 323.688384 236.11776 
L 341.550213 236.035566 
L 356.921182 230.759113 
L 370.448666 237.467789 
L 387.900252 235.655062 
L 388.109604 226.093352 
L 397.462955 231.17732 
L 391.51876 243.193703 
L 386.95569 245.34675 
L 365.23869 242.986336 
L 341.986776 247.977039 
L 355.295979 258.770055 
L 345.541783 261.899414 
L 334.847987 261.918762 
L 324.690963 252.030621 
L 321.087338 256.243945 
L 325.377557 267.711152 
L 334.982924 276.721703 
L 327.745908 280.928578 
L 338.438713 289.777898 
L 347.942877 295.346055 
L 348.230612 306.193641 
L 330.470455 301.105703 
L 336.133862 310.898098 
L 323.941862 312.913727 
L 331.223526 329.857809 
L 318.47094 330.097918 
L 302.726908 321.74618 
L 295.526604 306.386125 
L 292.167057 293.611711 
L 274.842471 273.837414 
z
" clip-path="url(#p86a79901a0)" style="fill: #e8edf4; stroke: #b8c5d4; stroke-width: 0.45"/>
    <path d="M 338.149987 351.794082 
L 341.702018 343.633836 
L 352.198369 350.103891 
L 367.142698 349.010004 
L 381.43119 350.372773 
L 380.966846 353.713965 
L 391.430455 351.410105 
L 389.030354 357.074008 
L 361.382057 358.706156 
L 361.574541 355.538102 
z
" clip-path="url(#p86a79901a0)" style="fill: #e8edf4; stroke: #b8c5d4; stroke-width: 0.45"/>
    <path d="M 389.141479 271.468566 
L 410.438783 253.105656 
L 440.005971 252.337703 
L 448.070471 237.746098 
L 484.66433 240.287586 
L 507.743604 227.833648 
L 530.117432 222.405887 
L 561.882315 221.997602 
L 595.39444 235.531039 
L 622.937565 242.957066 
L 645.304448 239.996875 
L 661.832307 241.707406 
L 684.500815 231.68532 
L 704.957737 230.773004 
L 723.451119 240.200769 
L 726.713432 246.958062 
L 724.865979 256.301492 
L 739.142565 261.073914 
L 746.707002 266.680269 
L 733.559526 272.149703 
L 739.55333 294.16932 
L 735.796908 300.1155 
L 746.2978 315.497531 
L 737.096674 318.740844 
L 730.353768 313.850352 
L 708.021612 311.372859 
L 699.774549 314.356367 
L 677.934518 317.342355 
L 667.588979 317.017414 
L 645.49594 324.221687 
L 629.700315 324.281715 
L 619.482768 320.66668 
L 598.344213 326.007625 
L 592.06069 322.273527 
L 591.021869 332.983695 
L 580.737846 341.396453 
L 573.678432 332.690008 
L 580.950174 325.478293 
L 569.240377 327.113418 
L 553.181823 322.695703 
L 539.978783 333.746687 
L 510.838237 335.904695 
L 495.294627 325.599836 
L 474.597596 324.954914 
L 470.171448 332.920691 
L 456.901932 335.198258 
L 438.334135 324.974758 
L 417.373182 325.320535 
L 405.998744 306.225391 
L 391.97219 295.573762 
L 401.312643 280.643324 
z
" clip-path="url(#p86a79901a0)" style="fill: #e8edf4; stroke: #b8c5d4; stroke-width: 0.45"/>
    <path d="M 386.694744 249.309051 
L 386.95569 245.34675 
L 391.51876 243.193703 
L 397.462955 231.17732 
L 388.109604 226.093352 
L 407.668596 220.05341 
L 424.199432 222.628633 
L 426.480471 230.010508 
L 443.240502 236.211184 
L 439.746018 240.914648 
L 416.947533 241.973312 
L 392.736174 258.251637 
z
" clip-path="url(#p86a79901a0)" style="fill: #e8edf4; stroke: #b8c5d4; stroke-width: 0.45"/>
    <path d="M 257.308533 219.011613 
L 265.632987 209.55557 
L 266.853377 213.168125 
L 272.01984 211.468224 
L 276.110487 216.620937 
L 280.70304 218.586816 
L 281.995151 225.54616 
L 279.555362 232.080211 
L 282.281893 240.314375 
L 290.247174 244.989562 
L 289.862205 250.033844 
L 283.622338 252.817922 
L 282.470408 259.057789 
L 273.542705 268.369965 
L 270.278408 267.026047 
L 269.894432 262.801809 
L 259.259174 256.35507 
L 257.58833 247.207102 
L 259.210557 234.106258 
L 261.830924 228.146187 
L 258.600362 225.121008 
z
" clip-path="url(#p86a79901a0)" style="fill: #e8edf4; stroke: #b8c5d4; stroke-width: 0.45"/>
    <path d="M 148.87633 162.540766 
L 149.991549 155.563703 
L 163.37219 156.219539 
L 166.888502 152.979055 
L 173.41908 156.113375 
L 180.953752 156.485445 
L 180.882315 151.119695 
L 187.555768 149.154172 
L 189.422073 141.398242 
L 204.706721 136.297902 
L 225.159674 146.895953 
L 241.018799 150.587883 
L 248.195036 147.719571 
L 252.859565 155.156906 
L 258.959533 160.62882 
L 251.567704 167.853418 
L 242.884112 163.603398 
L 229.608643 163.869305 
L 213.103604 160.681406 
L 204.133237 161.107055 
L 199.97101 165.090687 
L 193.082252 160.681406 
L 189.062901 168.650656 
L 202.626104 183.578117 
L 218.771971 195.00018 
L 226.020893 203.021519 
L 243.0144 210.28992 
L 240.902713 213.554086 
L 222.85383 206.450023 
L 211.71851 199.537949 
L 194.157783 193.831383 
L 178.011916 179.700648 
L 181.886408 178.265945 
L 173.132338 170.191027 
L 172.773166 163.709562 
L 160.430354 160.681406 
L 154.54569 168.969148 
z
" clip-path="url(#p86a79901a0)" style="fill: #e8edf4; stroke: #b8c5d4; stroke-width: 0.45"/>
    <path d="M 2.296502 140.728516 
L 2.580268 132.034969 
L 16.621705 121.245922 
L 16.004565 116.367336 
L 24.752682 118.134422 
L 30.024174 114.854746 
L 46.354588 114.989187 
L 50.296549 110.818031 
L 70.871541 116.688805 
L 71.61469 120.095977 
L 68.677815 124.795969 
L 77.365408 128.291941 
L 87.162268 128.813832 
L 85.63926 136.685352 
L 77.180862 139.923852 
L 62.973729 137.517797 
L 58.815471 145.260828 
L 49.669487 145.871023 
L 46.34169 142.827984 
L 35.577448 149.339711 
L 26.320338 150.252523 
L 18.059385 146.139906 
L 11.464315 137.720203 
z
" clip-path="url(#p86a79901a0)" style="fill: #e8edf4; stroke: #b8c5d4; stroke-width: 0.45"/>
    <path d="M -4.395802 78.203836 
L -2.315185 67.435625 
L 2.689408 66.711328 
L 6.523221 71.047187 
L 5.439752 79.464906 
L -0.100623 79.870711 
z
" clip-path="url(#p86a79901a0)" style="fill: #e8edf4; stroke: #b8c5d4; stroke-width: 0.45"/>
    <path d="M -65.076998 47.118602 
L -49.690154 43.330926 
L -35.633834 44.838555 
L -17.836967 40.849465 
L -5.683662 49.253789 
L 4.870237 53.738477 
L 2.689408 66.711328 
L -2.315185 67.435625 
L -4.395802 78.203836 
L -21.192545 69.450758 
L -31.045959 70.945984 
L -53.37117 54.186945 
L -62.295896 53.870437 
z
" clip-path="url(#p86a79901a0)" style="fill: #e8edf4; stroke: #b8c5d4; stroke-width: 0.45"/>
    <path d="M -49.690154 43.331422 
L -39.79606 38.055465 
L -22.982451 9.807391 
L 3.286705 1.770176 
L 19.24108 2.312406 
L 22.829823 8.804289 
L 18.045494 26.383867 
L 13.178815 33.610961 
L 1.644635 33.618898 
L 4.870237 53.738477 
L -5.683662 49.253789 
L -17.836967 40.849465 
L -35.633834 44.838555 
z
" clip-path="url(#p86a79901a0)" style="fill: #e8edf4; stroke: #b8c5d4; stroke-width: 0.45"/>
    <path d="M 16.261541 164.622375 
L 22.918127 158.774422 
L 17.267619 151.565187 
L 18.059385 146.139906 
L 26.320338 150.252523 
L 35.577448 149.339711 
L 46.34169 142.827984 
L 49.669487 145.871023 
L 58.815471 145.260828 
L 62.973729 137.517797 
L 77.180862 139.923852 
L 85.63926 136.685352 
L 87.162268 128.813832 
L 98.794674 131.543836 
L 101.027096 127.891594 
L 120.00169 124.554371 
L 124.290916 131.232785 
L 151.746729 136.191242 
L 149.666112 145.647781 
L 154.264901 153.822414 
L 138.981244 151.025437 
L 123.371158 157.839781 
L 124.432799 167.370734 
L 122.082307 172.840664 
L 128.375752 182.615695 
L 146.378994 192.285555 
L 156.034963 208.15857 
L 177.399737 223.631238 
L 192.445268 223.512672 
L 197.124424 227.756258 
L 191.737838 231.581141 
L 223.03044 244.328766 
L 239.494799 254.341922 
L 241.483143 257.927687 
L 237.895393 264.803051 
L 227.239299 255.838637 
L 210.558643 252.679016 
L 202.478268 265.098227 
L 216.355002 272.215684 
L 214.07694 282.234793 
L 206.056096 283.373328 
L 195.800846 299.840664 
L 187.796869 301.320016 
L 187.871283 295.449738 
L 191.78844 285.151824 
L 195.96158 281.050617 
L 182.60376 260.241469 
L 174.633518 257.849305 
L 168.965151 249.562555 
L 156.627299 246.072039 
L 148.319713 238.354805 
L 134.113573 237.110602 
L 101.547002 215.945754 
L 88.491799 204.88584 
L 82.502955 185.905789 
L 72.950174 183.673367 
L 57.330166 177.336266 
L 48.490768 179.93034 
L 37.397119 188.84068 
L 29.417948 190.248098 
L 31.614651 181.914219 
L 21.207596 179.478398 
z
" clip-path="url(#p86a79901a0)" style="fill: #e8edf4; stroke: #b8c5d4; stroke-width: 0.45"/>
    <path d="M 125.337674 307.001281 
L 128.024518 297.143402 
L 150.492604 298.898582 
L 184.653619 295.131742 
L 177.739065 310.244246 
L 180.61244 316.192906 
L 176.582174 326.066164 
L 161.898791 318.834605 
L 152.135666 316.762918 
z
" clip-path="url(#p86a79901a0)" style="fill: #e8edf4; stroke: #b8c5d4; stroke-width: 0.45"/>
    <path d="M 43.334369 242.929781 
L 53.894221 243.890219 
L 63.494627 237.938086 
L 75.013924 251.56975 
L 72.317158 276.964293 
L 63.586901 275.752832 
L 55.755565 282.162859 
L 48.485807 277.070457 
L 47.716862 253.906352 
z
" clip-path="url(#p86a79901a0)" style="fill: #e8edf4; stroke: #b8c5d4; stroke-width: 0.45"/>
    <path d="M 149.666112 145.647781 
L 151.746729 136.191242 
L 167.605854 137.679027 
L 177.294565 133.322828 
L 194.086346 132.844594 
L 197.746526 129.604109 
L 200.976096 129.816437 
L 204.706721 136.297902 
L 189.422073 141.398242 
L 187.555768 149.154172 
L 180.882315 151.119695 
L 180.953752 156.485445 
L 173.41908 156.113375 
L 166.888502 152.979055 
L 163.37219 156.219539 
L 149.991549 155.563703 
L 154.264901 153.822414 
z
" clip-path="url(#p86a79901a0)" style="fill: #e8edf4; stroke: #b8c5d4; stroke-width: 0.45"/>
    <path d="M 210.758073 98.545664 
L 215.02051 91.884117 
L 223.526533 92.209555 
L 230.082908 90.223195 
L 230.601823 88.437258 
L 234.277877 87.525437 
L 235.535971 83.156836 
L 239.942276 82.32191 
L 242.917846 78.865625 
L 248.642768 78.842309 
L 249.726237 80.00168 
L 257.62008 77.395699 
L 267.302838 84.201113 
L 278.646518 80.086016 
L 287.711143 82.057492 
L 301.532315 79.343859 
L 319.778643 86.72375 
L 314.454565 91.722391 
L 310.70608 99.462445 
L 306.609338 101.42648 
L 286.047244 95.591922 
L 279.754791 96.763199 
L 275.252244 101.280629 
L 247.181276 105.999969 
L 245.635448 109.855609 
L 229.519346 112.208086 
L 212.672002 105.198777 
z
" clip-path="url(#p86a79901a0)" style="fill: #e8edf4; stroke: #b8c5d4; stroke-width: 0.45"/>
    <path d="M 121.672533 64.056234 
L 135.625666 59.875652 
L 142.754533 55.09182 
L 156.541971 51.373102 
L 161.357057 47.718379 
L 166.42019 49.925004 
L 174.988721 47.921777 
L 184.089065 54.103105 
L 198.444033 55.773453 
L 197.246463 61.055859 
L 207.676338 65.027586 
L 210.542768 60.069625 
L 223.710088 62.216719 
L 225.531744 68.228383 
L 239.806346 69.38825 
L 248.642768 78.842309 
L 242.917846 78.865625 
L 239.942276 82.32191 
L 235.535971 83.156836 
L 234.277877 87.525437 
L 230.601823 88.437258 
L 230.082908 90.223195 
L 223.526533 92.209555 
L 215.02051 91.884117 
L 212.299932 96.107859 
L 203.448627 92.482406 
L 194.431627 93.479059 
L 179.527979 87.619695 
L 172.77019 89.053406 
L 161.969237 96.908059 
L 147.704557 90.728219 
L 136.863916 82.474211 
L 127.066065 77.859547 
L 125.034065 69.762801 
z
" clip-path="url(#p86a79901a0)" style="fill: #e8edf4; stroke: #b8c5d4; stroke-width: 0.45"/>
    <path d="M 515.11258 354.481422 
L 519.244049 349.745215 
L 533.073158 350.004176 
L 550.530698 344.275285 
L 537.557846 352.451406 
L 538.955838 356.046598 
L 529.398096 357.163305 
L 527.632002 354.045852 
L 518.71819 355.483531 
z
" clip-path="url(#p86a79901a0)" style="fill: #e8edf4; stroke: #b8c5d4; stroke-width: 0.45"/>
    <path d="M 505.990408 355.187859 
L 518.71819 355.483531 
L 527.632002 354.045852 
L 529.398096 357.163305 
L 536.898041 355.372902 
L 539.556112 357.590441 
L 519.87508 365.390027 
L 510.476088 362.898148 
z
" clip-path="url(#p86a79901a0)" style="fill: #e8edf4; stroke: #b8c5d4; stroke-width: 0.45"/>
    <path d="M 65.595088 528.158883 
L 73.215088 520.135559 
L 71.540276 508.063613 
L 73.980065 497.555355 
L 72.592987 488.801781 
L 75.974362 473.138117 
L 74.93058 464.216863 
L 68.719487 447.264844 
L 78.086729 442.814883 
L 79.748643 434.702758 
L 77.706721 426.749383 
L 90.890908 419.350641 
L 96.802362 413.199078 
L 106.161666 407.68698 
L 107.247119 392.939602 
L 129.797952 399.548544 
L 137.860992 397.896576 
L 153.901056 401.100288 
L 179.378496 409.680384 
L 188.370048 426.745728 
L 232.667328 438.509376 
L 253.121472 448.055232 
L 262.483968 443.074176 
L 271.68672 434.243328 
L 267.212736 419.535552 
L 273.234624 410.19648 
L 287.069184 401.19936 
L 300.287616 398.58048 
L 326.260992 402.509184 
L 332.80896 411.093312 
L 339.957696 411.174528 
L 346.0704 414.449856 
L 365.148288 416.702208 
L 369.826944 423.04224 
L 362.877504 432.255552 
L 365.848704 440.4672 
L 360.903744 452.321472 
L 366.6624 467.787753 
L 366.6624 645.111552 
L 344.5824 645.16992 
L 344.345472 653.224896 
L 191.19072 579.703296 
L 158.224721 597.337172 
L 147.425752 586.792203 
L 117.052908 578.513887 
L 108.627252 566.490062 
L 93.47258 557.569305 
L 84.49626 561.087105 
L 77.669018 550.38041 
L 76.947698 542.153191 
z
" clip-path="url(#p86a79901a0)" style="fill: #e8edf4; stroke: #b8c5d4; stroke-width: 0.45"/>
    <path d="M 189.062901 168.650656 
L 193.082252 160.681406 
L 199.97101 165.090687 
L 204.133237 161.107055 
L 213.103604 160.681406 
L 229.608643 163.869305 
L 242.884112 163.603398 
L 251.567616 167.853504 
L 258.528576 167.80032 
L 253.720512 176.246976 
L 262.977792 183.631296 
L 260.1792 192.6624 
L 252.07008 195.265344 
L 245.826816 199.727808 
L 243.0144 210.28992 
L 226.020893 203.021519 
L 218.771971 195.00018 
L 202.626104 183.578117 
z
" clip-path="url(#p86a79901a0)" style="fill: #e8edf4; stroke: #b8c5d4; stroke-width: 0.45"/>
    <path d="M 279.555362 232.080211 
L 281.995134 225.546069 
L 284.434752 225.705408 
L 285.295872 221.774208 
L 307.470336 216.940032 
L 316.368494 216.620937 
L 325.984776 222.783414 
L 327.348041 235.480437 
L 323.688384 236.11776 
L 320.530721 239.464566 
L 310.125651 239.092496 
L 302.806283 243.289449 
L 290.247174 244.989562 
L 282.281893 240.314375 
z
" clip-path="url(#p86a79901a0)" style="fill: #e8edf4; stroke: #b8c5d4; stroke-width: 0.45"/>
    <path d="M 248.195036 147.719571 
L 262.906455 142.672707 
L 274.890096 143.522516 
L 285.296158 151.066117 
L 287.449205 157.175512 
L 299.146104 161.691453 
L 300.653237 169.606133 
L 311.848088 175.184211 
L 317.875627 170.88159 
L 322.61233 173.272266 
L 318.163362 176.51275 
L 321.679674 179.859398 
L 316.942971 184.215102 
L 318.665408 191.227883 
L 327.993955 199.515625 
L 320.674588 205.518359 
L 317.445018 211.627754 
L 319.526627 213.911769 
L 316.368494 216.620937 
L 300.933811 218.061612 
L 300.294144 216.62112 
L 304.74336 209.66208 
L 302.016384 209.768256 
L 286.300416 198.34656 
L 282.855936 199.409088 
L 280.200768 205.783872 
L 275.607936 207.16512 
L 277.18656 205.518336 
L 263.5584 199.465345 
L 255.657984 193.512192 
L 260.1792 192.6624 
L 262.977792 183.631296 
L 253.720512 176.246976 
L 258.528576 167.80032 
L 251.567616 167.853504 
L 258.959533 160.62882 
L 252.859565 155.156906 
z
" clip-path="url(#p86a79901a0)" style="fill: #e8edf4; stroke: #b8c5d4; stroke-width: 0.45"/>
    <path d="M 240.902724 213.554069 
L 245.826816 199.727808 
L 255.657984 193.512192 
L 263.5584 199.465345 
L 277.18656 205.518336 
L 272.01984 211.468224 
L 266.853377 213.168125 
L 265.632987 209.55557 
L 257.308533 219.011613 
L 258.600349 225.120947 
L 254.581632 223.633536 
L 249.199488 217.364928 
z
" clip-path="url(#p86a79901a0)" style="fill: #e8edf4; stroke: #b8c5d4; stroke-width: 0.45"/>
    <path d="M 272.01984 211.468224 
L 275.607936 207.16512 
L 280.200768 205.783872 
L 282.855936 199.409088 
L 286.300416 198.34656 
L 302.016384 209.768256 
L 304.74336 209.66208 
L 300.294144 216.62112 
L 300.933811 218.061612 
L 285.295872 221.774208 
L 284.434752 225.705408 
L 281.995134 225.546069 
L 280.70304 218.586816 
L 276.110487 216.620937 
z
" clip-path="url(#p86a79901a0)" style="fill: #e8edf4; stroke: #b8c5d4; stroke-width: 0.45"/>
   </g>
   <g id="PathCollection_1">
    <defs>
     <path id="m0c53d66508" d="M 0 2.12132 
C 0.562581 2.12132 1.102195 1.897805 1.5 1.5 
C 1.897805 1.102195 2.12132 0.562581 2.12132 0 
C 2.12132 -0.562581 1.897805 -1.102195 1.5 -1.5 
C 1.102195 -1.897805 0.562581 -2.12132 0 -2.12132 
C -0.562581 -2.12132 -1.102195 -1.897805 -1.5 -1.5 
C -1.897805 -1.102195 -2.12132 -0.562581 -2.12132 0 
C -2.12132 0.562581 -1.897805 1.102195 -1.5 1.5 
C -1.102195 1.897805 -0.562581 2.12132 0 2.12132 
z
" style="stroke: #ffffff; stroke-width: 0.5"/>
    </defs>
    <g clip-path="url(#p86a79901a0)">
     <use xlink:href="#m0c53d66508" x="270.6624" y="241.96992" style="fill: #8aa0b7; stroke: #ffffff; stroke-width: 0.5"/>
     <use xlink:href="#m0c53d66508" x="520.2624" y="357.16992" style="fill: #8aa0b7; stroke: #ffffff; stroke-width: 0.5"/>
     <use xlink:href="#m0c53d66508" x="574.6624" y="379.56992" style="fill: #8aa0b7; stroke: #ffffff; stroke-width: 0.5"/>
     <use xlink:href="#m0c53d66508" x="69.7024" y="121.64992" style="fill: #8aa0b7; stroke: #ffffff; stroke-width: 0.5"/>
     <use xlink:href="#m0c53d66508" x="5.0624" y="73.96992" style="fill: #8aa0b7; stroke: #ffffff; stroke-width: 0.5"/>
     <use xlink:href="#m0c53d66508" x="28.7424" y="189.48992" style="fill: #8aa0b7; stroke: #ffffff; stroke-width: 0.5"/>
     <use xlink:href="#m0c53d66508" x="258.65088" y="209.16288" style="fill: #8aa0b7; stroke: #ffffff; stroke-width: 0.5"/>
     <use xlink:href="#m0c53d66508" x="309.0624" y="225.96992" style="fill: #8aa0b7; stroke: #ffffff; stroke-width: 0.5"/>
     <use xlink:href="#m0c53d66508" x="166.6624" y="341.16992" style="fill: #8aa0b7; stroke: #ffffff; stroke-width: 0.5"/>
     <use xlink:href="#m0c53d66508" x="563.13984" y="415.68768" style="fill: #8aa0b7; stroke: #ffffff; stroke-width: 0.5"/>
     <use xlink:href="#m0c53d66508" x="171.1424" y="143.72992" style="fill: #8aa0b7; stroke: #ffffff; stroke-width: 0.5"/>
     <use xlink:href="#m0c53d66508" x="125.0624" y="188.84992" style="fill: #8aa0b7; stroke: #ffffff; stroke-width: 0.5"/>
     <use xlink:href="#m0c53d66508" x="125.76768" y="224.63424" style="fill: #8aa0b7; stroke: #ffffff; stroke-width: 0.5"/>
     <use xlink:href="#m0c53d66508" x="288" y="211.2" style="fill: #8aa0b7; stroke: #ffffff; stroke-width: 0.5"/>
    </g>
   </g>
   <g id="PatchCollection_2">
    <defs>
     <path id="mfec61cdefa" d="M 272.01984 -210.931776 
L 275.607936 -215.23488 
L 280.200768 -216.616128 
L 282.855936 -222.990912 
L 286.300416 -224.05344 
L 302.016384 -212.631744 
L 304.74336 -212.73792 
L 300.294144 -205.77888 
L 300.933811 -204.338388 
L 285.295872 -200.625792 
L 284.434752 -196.694592 
L 281.995134 -196.853931 
L 280.70304 -203.813184 
L 276.110487 -205.779063 
z
" style="stroke: #b45309; stroke-width: 1.15"/>
    </defs>
    <g clip-path="url(#p86a79901a0)">
     <use xlink:href="#mfec61cdefa" x="0" y="422.4" style="fill: #f59e0b; stroke: #b45309; stroke-width: 1.15"/>
    </g>
   </g>
   <g id="PathCollection_2">
    <defs>
     <path id="meb3d9b07f4" d="M 0 3.316625 
C 0.879579 3.316625 1.723251 2.967164 2.345208 2.345208 
C 2.967164 1.723251 3.316625 0.879579 3.316625 0 
C 3.316625 -0.879579 2.967164 -1.723251 2.345208 -2.345208 
C 1.723251 -2.967164 0.879579 -3.316625 0 -3.316625 
C -0.879579 -3.316625 -1.723251 -2.967164 -2.345208 -2.345208 
C -2.967164 -1.723251 -3.316625 -0.879579 -3.316625 0 
C -3.316625 0.879579 -2.967164 1.723251 -2.345208 2.345208 
C -1.723251 2.967164 -0.879579 3.316625 0 3.316625 
z
" style="stroke: #ffffff"/>
    </defs>
    <g clip-path="url(#p86a79901a0)">
     <use xlink:href="#meb3d9b07f4" x="288" y="211.2" style="fill: #f97316; stroke: #ffffff"/>
    </g>
   </g>
   <g id="PathCollection_3">
    <path d="M 288 215.649719 
C 289.180079 215.649719 290.311984 215.180869 291.146427 214.346427 
C 291.980869 213.511984 292.449719 212.380079 292.449719 211.2 
C 292.449719 210.019921 291.980869 208.888016 291.146427 208.053573 
C 290.311984 207.219131 289.180079 206.750281 288 206.750281 
C 286.819921 206.750281 285.688016 207.219131 284.853573 208.053573 
C 284.019131 208.888016 283.550281 210.019921 283.550281 211.2 
C 283.550281 212.380079 284.019131 213.511984 284.853573 214.346427 
C 285.688016 215.180869 286.819921 215.649719 288 215.649719 
L 288 215.649719 
z
" clip-path="url(#p86a79901a0)" style="fill: none; stroke: #7c2d12; stroke-width: 1.1"/>
   </g>
  </g>
 </g>
 <defs>
  <clipPath id="p86a79901a0">
   <rect x="0" y="0" width="576" height="422.4"/>
  </clipPath>
 </defs>
</svg>
