<?xml version="1.0" encoding="utf-8" standalone="no"?>
<!DOCTYPE svg PUBLIC "-//W3C//DTD SVG 1.1//EN"
  "http://www.w3.org/Graphics/SVG/1.1/DTD/svg11.dtd">
<svg xmlns:xlink="http://www.w3.org/1999/xlink" width="474.725275pt" height="432pt" viewBox="0 0 474.725275 432" xmlns="http://www.w3.org/2000/svg" version="1.1">
 <metadata>
  <rdf:RDF xmlns:dc="http://purl.org/dc/elements/1.1/" xmlns:cc="http://creativecommons.org/ns#" xmlns:rdf="http://www.w3.org/1999/02/22-rdf-syntax-ns#">
   <cc:Work>
    <dc:type rdf:resource="http://purl.org/dc/dcmitype/StillImage"/>
    <dc:date>2026-06-09T04:57:05.282565</dc:date>
    <dc:format>image/svg+xml</dc:format>
    <dc:creator>
     <cc:Agent>
      <dc:title>Matplotlib v3.10.8, https://matplotlib.org/</dc:title>
     </cc:Agent>
    </dc:creator>
   </cc:Work>
  </rdf:RDF>
 </metadata>
 <defs>
  <style type="text/css">*{stroke-linejoin: round; stroke-linecap: butt}</style>
 </defs>
 <g id="figure_1">
  <g id="patch_1">
   <path d="M 0 432 
L 474.725275 432 
L 474.725275 0 
L 0 0 
z
" style="fill: #eaf3ff"/>
  </g>
  <g id="axes_1">
   <g id="PatchCollection_1">
    <path d="M 466.892279 293.14266 
L 471.799927 292.577808 
L 483.652958 279.604998 
L 483.543415 275.747855 
L 480.987613 273.057468 
L 480.29938 268.383916 
L 483.724985 266.881651 
L 484.411271 259.8992 
L 479.699266 253.202548 
L 483.862075 251.777077 
L 521.055034 251.010989 
L 566.094343 276.491749 
L 566.903868 283.376809 
L 583.938435 295.240787 
L 578.459156 309.864462 
L 579.162105 316.590251 
L 586.76044 320.914286 
L 587.116484 324 
L 583.849068 331.167165 
L 584.529587 334.774009 
L 583.752105 340.443415 
L 592.80844 359.585407 
L 597.163925 362.180967 
L 587.721758 369.061873 
L 574.744628 373.670533 
L 567.624738 373.475749 
L 563.39553 377.035833 
L 555.13366 377.341763 
L 552.035255 378.841902 
L 537.773514 375.497562 
L 528.843826 376.457381 
L 525.520879 360.316484 
L 519.108765 351.500242 
L 507.473906 349.286231 
L 500.738616 345.722942 
L 488.46562 341.737858 
L 483.507808 338.716554 
L 477.098863 323.762412 
L 470.215767 317.116663 
L 467.841672 310.232954 
L 469.028412 304.061288 
z
" clip-path="url(#p50483b2a60)" style="fill: #e8edf4; stroke: #b8c5d4; stroke-width: 0.45"/>
    <path d="M 263.262899 308.451923 
L 266.281575 307.198332 
L 266.653236 302.02451 
L 268.594953 298.973329 
L 272.913831 296.479027 
L 276.031862 297.687847 
L 280.090699 293.1445 
L 286.555523 293.261641 
L 287.316018 296.621313 
L 291.749583 298.723715 
L 308.646073 281.691685 
L 308.248653 271.927293 
L 313.402849 260.397815 
L 318.841004 254.284414 
L 326.655094 248.564139 
L 328.019079 244.778222 
L 328.314691 240.425612 
L 330.249048 236.307285 
L 329.627772 229.581194 
L 331.107058 219.063972 
L 333.426569 211.659568 
L 336.981272 205.313419 
L 338.751877 189.868923 
L 343.372499 183.843224 
L 349.727542 180.021428 
L 359.493775 184.054813 
L 367.05273 188.432875 
L 384.588282 191.917661 
L 388.136851 184.750605 
L 389.76701 183.835864 
L 395.175726 185.027818 
L 408.38872 179.104541 
L 413.070673 181.615095 
L 416.913628 181.259073 
L 418.693432 178.373177 
L 423.104305 177.356321 
L 439.643853 178.878232 
L 443.562244 177.619121 
L 450.751378 187.416632 
L 456.080366 188.855747 
L 459.257274 186.86282 
L 464.745106 187.643861 
L 471.35467 185.133306 
L 474.173409 190.202253 
L 484.621634 198.089019 
L 483.903456 211.96622 
L 488.660232 213.57338 
L 484.844876 217.787383 
L 480.285584 220.939452 
L 475.747757 227.128596 
L 473.251002 232.646481 
L 472.583115 242.172912 
L 469.833679 246.707672 
L 469.734324 255.655145 
L 466.321294 258.9633 
L 465.881556 266.025481 
L 464.251398 266.940528 
L 463.152972 273.432951 
L 466.137303 278.828788 
L 466.892279 293.14266 
L 469.028412 304.061288 
L 467.841672 310.232954 
L 470.215767 317.116663 
L 477.098863 323.762412 
L 483.507876 338.716572 
L 478.83267 337.508979 
L 462.891706 339.512025 
L 459.710504 340.930594 
L 456.32814 348.506723 
L 458.984354 353.740648 
L 455.406959 379.704818 
L 466.910678 386.435202 
L 470.167929 384.27699 
L 471.160253 397.074778 
L 462.07724 396.976649 
L 452.829861 385.387681 
L 443.735195 383.729311 
L 441.072235 377.510421 
L 433.816864 381.257088 
L 424.313125 379.601784 
L 420.346896 374.213306 
L 412.811246 373.118561 
L 407.249204 373.404973 
L 406.568438 369.715957 
L 397.069605 368.7175 
L 381.622963 371.292145 
L 382.257731 357.16901 
L 378.298862 352.764884 
L 377.427972 345.465968 
L 379.176499 338.311792 
L 376.771125 333.732874 
L 376.553403 326.2653 
L 362.153055 326.368948 
L 363.18647 322.093002 
L 357.131333 322.137773 
L 356.491658 324.194177 
L 349.130799 324.657833 
L 344.374636 334.54182 
L 337.81659 332.865664 
L 333.900652 334.535074 
L 326.052831 335.494892 
L 318.780287 325.451447 
L 312.44671 309.490857 
L 277.424672 309.333852 
L 264.925563 312.132965 
z
" clip-path="url(#p50483b2a60)" style="fill: #e8edf4; stroke: #b8c5d4; stroke-width: 0.45"/>
    <path d="M 379.030273 90.338084 
L 380.226343 85.979156 
L 383.30007 81.031807 
L 381.95553 76.116501 
L 385.856941 72.476545 
L 383.382316 69.703675 
L 386.520725 62.375459 
L 391.940189 53.635411 
L 402.174079 54.464756 
L 401.736264 2.373626 
L 415.384615 2.337547 
L 415.384615 -21.362637 
L 556.214598 -21.362637 
L 560.041952 -9.71822 
L 557.439152 -7.565222 
L 559.163473 4.652782 
L 563.520145 18.821789 
L 574.537331 26.129978 
L 568.530989 32.903921 
L 559.789754 34.855042 
L 556.052004 38.493692 
L 554.881332 46.382321 
L 549.770084 63.820998 
L 551.031547 68.57276 
L 549.141073 78.764875 
L 544.315609 90.455578 
L 537.157464 96.335288 
L 532.067697 105.401354 
L 530.875187 110.252927 
L 525.253253 113.576954 
L 521.742303 125.997073 
L 521.900862 136.66676 
L 521.763343 127.412879 
L 520.120446 127.178179 
L 520.32419 121.269585 
L 518.897978 117.194692 
L 512.785639 112.508565 
L 511.359426 103.95129 
L 512.785639 95.190271 
L 507.284534 94.375293 
L 506.469555 97.023973 
L 499.338493 97.635207 
L 502.190918 101.098866 
L 503.209641 108.229928 
L 496.689813 114.749756 
L 490.781218 123.307031 
L 484.668879 124.529499 
L 474.685392 117.602181 
L 470.20301 120.047117 
L 468.980542 123.510776 
L 462.868203 125.751967 
L 462.460714 128.196902 
L 450.643525 128.196902 
L 449.013568 125.751967 
L 440.456293 125.344477 
L 436.177656 127.381924 
L 432.917741 126.3632 
L 424.767956 116.175969 
L 416.210681 117.805926 
L 412.950767 123.307031 
L 409.894598 133.901752 
L 402.175142 137.436175 
L 410.250094 142.071176 
L 401.211852 136.883249 
L 397.095977 133.465619 
L 396.333642 129.777217 
L 398.261866 124.83829 
L 398.226907 119.995652 
L 391.381836 112.575609 
L 390.179314 104.622211 
L 385.81742 101.124079 
L 385.68604 94.230119 
L 383.19836 89.651275 
z
" clip-path="url(#p50483b2a60)" style="fill: #e8edf4; stroke: #b8c5d4; stroke-width: 0.45"/>
    <path d="M 279.380494 69.225226 
L 284.504875 53.592092 
L 299.643403 42.401206 
L 300.268971 26.96499 
L 304.841757 2.881819 
L 307.423148 -2.226686 
L 302.484834 -6.29503 
L 302.293899 -10.069516 
L 297.853172 -13.156047 
L 294.938505 -31.604242 
L 306.919978 -38.09338 
L 401.589811 7.352664 
L 402.174079 54.464756 
L 391.940189 53.635411 
L 386.520725 62.375459 
L 383.382316 69.703675 
L 385.856941 72.476545 
L 381.95553 76.116501 
L 383.30007 81.031807 
L 380.226343 85.979156 
L 379.030273 90.338084 
L 383.19836 89.651275 
L 385.68604 94.230119 
L 385.81742 101.124079 
L 390.179314 104.622211 
L 390.03625 107.496849 
L 382.523291 109.520441 
L 376.502499 114.325055 
L 367.922394 127.274022 
L 356.752311 132.77228 
L 345.291524 132.034784 
L 341.944731 133.125849 
L 343.119819 137.303668 
L 331.891473 146.085856 
L 316.950192 150.626442 
L 313.985487 147.93895 
L 312.019851 147.707121 
L 309.832201 150.759836 
L 300.019971 151.651885 
L 301.878891 148.436952 
L 296.465881 135.342939 
L 291.296966 133.328239 
L 284.291823 126.401599 
L 286.870147 120.801225 
L 292.278864 121.993485 
L 295.627497 121.148354 
L 302.256072 121.264575 
L 295.796155 110.47658 
L 296.230373 102.593187 
L 295.437679 94.718967 
L 290.719235 87.119253 
L 291.905976 81.528999 
L 284.294889 81.255773 
L 284.321261 73.621687 
z
" clip-path="url(#p50483b2a60)" style="fill: #e8edf4; stroke: #b8c5d4; stroke-width: 0.45"/>
    <path d="M 418.520481 450.235857 
L 431.785605 451.535446 
L 435.640826 452.902497 
L 439.648146 452.627124 
L 446.220911 444.946121 
L 456.542183 435.185408 
L 460.79053 434.251962 
L 462.233632 430.137314 
L 468.991001 425.409363 
L 477.980179 423.784724 
L 478.748034 428.212157 
L 488.647353 427.976035 
L 494.147452 430.480763 
L 496.705537 433.417257 
L 502.357122 434.27956 
L 508.521427 438.093077 
L 508.547799 453.114087 
L 506.233808 461.339089 
L 505.724767 470.20806 
L 507.632138 473.723511 
L 506.291459 480.710256 
L 504.498775 481.790282 
L 501.369091 490.349534 
L 488.865075 503.820115 
L 482.556644 502.633988 
L 478.557297 504.05869 
L 472.814943 502.048284 
L 467.986411 501.918877 
L 460.420096 496.556158 
L 451.242634 494.734649 
L 447.751715 487.208198 
L 447.722276 483.021793 
L 442.639837 481.745511 
L 429.208507 468.709148 
L 425.477174 461.841384 
L 423.088973 459.724263 
z
" clip-path="url(#p50483b2a60)" style="fill: #e8edf4; stroke: #b8c5d4; stroke-width: 0.45"/>
    <path d="M -25.762751 66.261748 
L -21.768617 64.098629 
L -19.773236 57.106978 
L -16.011238 56.833445 
L -7.723678 60.13884 
L -1.030706 57.792037 
L 3.557412 58.579825 
L 5.33783 55.940476 
L 52.958639 55.760165 
L 55.598907 47.450527 
L 53.54281 45.9878 
L 42.086928 -56.451845 
L 60.250502 -56.665275 
L 140.319624 -4.875541 
L 143.14143 0.685582 
L 156.026306 6.010276 
L 156.16246 13.560952 
L 169.327616 12.39905 
L 169.360734 39.731806 
L 162.871378 47.65905 
L 161.860655 54.971765 
L 151.318595 56.853991 
L 135.12495 57.87422 
L 130.736769 62.091903 
L 115.521342 62.612597 
L 112.55909 60.33571 
L 106.025576 62.025053 
L 94.93277 66.948034 
L 92.668456 70.657902 
L 83.460329 75.977996 
L 81.846117 79.026724 
L 76.872232 81.443136 
L 71.132945 79.84303 
L 67.880907 82.739352 
L 66.139128 90.878492 
L 56.718491 100.714641 
L 56.992638 104.734534 
L 53.755932 109.765149 
L 54.54188 116.654992 
L 46.873756 119.911323 
L 45.036914 114.835323 
L 41.610086 116.173549 
L 39.562881 115.942027 
L 37.378603 119.405348 
L 28.213408 119.307526 
L 24.927945 117.525575 
L 23.380889 118.603761 
L 19.755963 115.182452 
L 20.385212 111.648295 
L 18.902246 110.263764 
L 16.374212 111.431186 
L 16.837256 107.569832 
L 19.270228 104.514971 
L 14.406737 99.543233 
L 12.992461 96.270036 
L 10.355259 93.66258 
L 7.979938 93.351329 
L -1.960779 99.169118 
L -7.040459 98.220952 
L -10.335121 95.207489 
L -12.301983 94.811602 
L -17.282001 96.406803 
L -17.967673 92.061246 
L -17.421221 88.363951 
L -18.43593 83.774607 
L -22.878388 80.441307 
L -25.218445 73.644992 
z
" clip-path="url(#p50483b2a60)" style="fill: #e8edf4; stroke: #b8c5d4; stroke-width: 0.45"/>
    <path d="M -83.829638 -9.491563 
L -81.239661 -13.450432 
L -34.762968 -13.376223 
L -37.013789 -30.51558 
L -34.111641 -36.611196 
L -22.991236 -37.676503 
L -23.373323 -68.044187 
L 15.579372 -67.423524 
L 15.613717 -85.40004 
L 60.250502 -56.665275 
L 42.086928 -56.451845 
L 53.54281 45.9878 
L 55.598907 47.450527 
L 52.958639 55.760165 
L 5.33783 55.940476 
L 3.557412 58.579825 
L -1.030706 57.792037 
L -7.723678 60.13884 
L -16.011238 56.833445 
L -19.773236 57.106978 
L -21.768617 64.098629 
L -25.762751 66.261748 
L -40.775788 49.378751 
L -48.653661 46.234654 
L -54.324565 42.745882 
L -60.951607 42.876209 
L -66.742411 45.462813 
L -72.641157 44.438291 
L -76.704901 48.243527 
L -77.732796 41.848313 
L -74.419735 35.996486 
L -72.945662 24.822417 
L -75.690805 7.194257 
L -74.50621 1.275579 
L -77.573951 -4.365886 
z
" clip-path="url(#p50483b2a60)" style="fill: #e8edf4; stroke: #b8c5d4; stroke-width: 0.45"/>
    <path d="M 127.8475 115.467331 
L 129.357451 109.21839 
L 133.438981 107.875257 
L 135.85662 102.686409 
L 141.65785 101.577558 
L 148.234909 94.552789 
L 152.48939 94.522123 
L 161.539285 101.351863 
L 161.076854 105.294786 
L 163.745948 112.334887 
L 161.407424 117.112516 
L 162.657949 120.304756 
L 153.244979 131.289928 
L 151.00765 138.775901 
L 150.626789 165.455795 
L 140.818239 166.840326 
L 137.895238 158.652735 
L 138.435558 131.396949 
L 136.044904 128.951711 
L 135.594127 123.127175 
z
" clip-path="url(#p50483b2a60)" style="fill: #e8edf4; stroke: #b8c5d4; stroke-width: 0.45"/>
    <path d="M 122.190089 68.310179 
L 123.130589 62.558013 
L 130.736769 62.091903 
L 135.12495 57.87422 
L 151.318595 56.853991 
L 161.860655 54.971765 
L 162.871378 47.65905 
L 169.360734 39.731806 
L 169.327616 12.39905 
L 186.06342 7.106555 
L 220.425544 -16.207841 
L 261.093034 -38.828592 
L 279.867457 -33.711501 
L 286.542643 -27.19332 
L 294.938505 -31.604242 
L 297.853172 -13.156047 
L 302.293899 -10.069516 
L 302.484834 -6.29503 
L 307.423148 -2.226686 
L 304.841757 2.881819 
L 300.268971 26.96499 
L 299.643403 42.401206 
L 284.504875 53.592092 
L 279.380494 69.225226 
L 284.321261 73.621687 
L 284.294889 81.255773 
L 291.905976 81.528999 
L 290.719235 87.119253 
L 287.369376 87.800019 
L 286.987288 91.578577 
L 284.780011 91.840764 
L 276.749426 78.847639 
L 273.963805 78.375396 
L 264.683921 85.009185 
L 255.494807 81.546171 
L 249.107259 80.853753 
L 245.682577 82.520096 
L 238.725271 82.160087 
L 231.72442 87.217688 
L 225.671736 87.50778 
L 211.308186 81.373527 
L 205.683587 84.287021 
L 199.627223 84.084631 
L 195.176485 79.602308 
L 183.280252 75.17365 
L 170.525396 76.579339 
L 167.434963 79.146011 
L 165.765554 85.971457 
L 162.363563 90.756751 
L 161.539285 101.351863 
L 152.48939 94.522123 
L 148.234909 94.552789 
L 144.250894 98.028988 
L 144.519521 89.900888 
L 130.835511 87.209102 
L 130.466916 81.465829 
L 123.783756 73.716136 
z
" clip-path="url(#p50483b2a60)" style="fill: #e8edf4; stroke: #b8c5d4; stroke-width: 0.45"/>
    <path d="M 150.626789 165.455795 
L 151.00765 138.775901 
L 153.244979 131.289928 
L 162.657949 120.304756 
L 161.407424 117.112516 
L 163.745948 112.334887 
L 161.076854 105.294786 
L 162.363563 90.756751 
L 165.765554 85.971457 
L 167.434963 79.146011 
L 170.525396 76.579339 
L 183.280252 75.17365 
L 195.176485 79.602308 
L 199.627223 84.084631 
L 205.683587 84.287021 
L 211.308186 81.373527 
L 225.671736 87.50778 
L 231.72442 87.217688 
L 238.725271 82.160087 
L 245.682577 82.520096 
L 249.107259 80.853753 
L 255.494807 81.546171 
L 264.683921 85.009185 
L 273.963805 78.375396 
L 276.749426 78.847639 
L 284.780011 91.840764 
L 286.987288 91.578577 
L 291.685187 96.305608 
L 289.764936 102.393864 
L 279.766875 111.577459 
L 274.956129 125.320039 
L 272.438521 127.964907 
L 270.043574 136.272706 
L 263.696504 141.161648 
L 261.857823 147.167108 
L 259.191796 151.94719 
L 258.081718 156.88029 
L 249.928471 160.87933 
L 243.265551 156.002347 
L 238.766362 156.199217 
L 231.698048 163.145484 
L 228.261713 163.252199 
L 219.563854 183.101741 
L 207.242603 187.372781 
L 202.738508 186.748746 
L 198.174922 189.408333 
L 188.681609 189.148906 
L 182.327793 181.725183 
L 178.420442 173.134652 
L 170.018195 165.315349 
z
" clip-path="url(#p50483b2a60)" style="fill: #e8edf4; stroke: #b8c5d4; stroke-width: 0.45"/>
    <path d="M 219.427701 186.381684 
L 219.563854 183.101741 
L 222.616875 174.702867 
L 228.261713 163.252199 
L 231.698048 163.145484 
L 238.766362 156.199217 
L 243.265551 156.002347 
L 249.928471 160.87933 
L 258.081718 156.88029 
L 259.191796 151.94719 
L 261.857823 147.167108 
L 263.696504 141.161648 
L 270.043574 136.272706 
L 272.438521 127.964907 
L 274.956129 125.320039 
L 279.766875 111.577459 
L 289.764936 102.393864 
L 291.685187 96.305608 
L 286.987288 91.578577 
L 287.369376 87.800019 
L 290.719235 87.119253 
L 295.437679 94.718967 
L 296.230373 102.593187 
L 295.796155 110.47658 
L 302.256072 121.264575 
L 295.627497 121.148354 
L 292.278864 121.993485 
L 286.870147 120.801225 
L 284.291823 126.401599 
L 291.296966 133.328239 
L 296.465881 135.342939 
L 301.878891 148.436952 
L 294.051309 163.679364 
L 291.203131 165.833896 
L 290.28747 175.03405 
L 291.468691 180.032468 
L 290.512552 183.569078 
L 296.121205 189.766808 
L 297.133155 194.027729 
L 301.514589 200.152476 
L 306.942318 203.971206 
L 308.723963 212.823617 
L 307.870245 219.232017 
L 288.844369 213.295553 
L 272.389457 212.183022 
L 265.364074 213.711679 
L 258.151634 212.121999 
L 252.511703 212.901813 
L 233.1988 212.63104 
L 234.931994 203.260694 
L 230.293585 195.414406 
L 224.878735 193.401547 
L 222.467229 188.083599 
z
" clip-path="url(#p50483b2a60)" style="fill: #e8edf4; stroke: #b8c5d4; stroke-width: 0.45"/>
    <path d="M 118.090467 112.665151 
L 118.96381 108.965096 
L 129.357451 109.21839 
L 127.8475 115.467331 
L 135.594127 123.127175 
L 136.044904 128.951711 
L 138.435558 131.396949 
L 137.895238 158.652735 
L 140.818239 166.840326 
L 131.262983 169.37204 
L 125.450713 157.675744 
L 124.508067 151.772705 
L 127.131776 141.082839 
L 124.154804 136.753842 
L 123.043806 118.785605 
z
" clip-path="url(#p50483b2a60)" style="fill: #e8edf4; stroke: #b8c5d4; stroke-width: 0.45"/>
    <path d="M 80.176707 165.554844 
L 83.271739 152.152953 
L 88.272916 142.184637 
L 83.505407 116.36306 
L 83.784153 109.629609 
L 104.399711 109.070277 
L 109.642836 109.935341 
L 113.474751 108.01969 
L 118.96381 108.965096 
L 118.090467 112.665151 
L 123.043806 118.785605 
L 124.154804 136.753842 
L 127.131776 141.082839 
L 124.508067 151.772705 
L 125.450713 157.675744 
L 131.262983 169.37204 
L 112.656605 176.319226 
L 106.058081 180.389103 
L 95.363922 183.831878 
L 84.78445 180.461166 
L 85.323543 175.778293 
z
" clip-path="url(#p50483b2a60)" style="fill: #e8edf4; stroke: #b8c5d4; stroke-width: 0.45"/>
    <path d="M 16.581202 162.978359 
L 19.161673 157.706102 
L 17.974932 151.968962 
L 18.522612 148.517294 
L 20.404838 148.503802 
L 21.104003 143.327527 
L 20.187115 141.035615 
L 21.321112 139.38583 
L 25.728918 137.958675 
L 22.797331 128.458003 
L 20.061695 123.552807 
L 21.014461 119.523715 
L 24.927945 117.525575 
L 28.213408 119.307526 
L 37.378603 119.405348 
L 39.562881 115.942027 
L 41.610086 116.173549 
L 45.036914 114.835323 
L 46.873756 119.911323 
L 54.54188 116.654992 
L 59.87884 119.242516 
L 61.95303 123.167653 
L 67.289377 125.673608 
L 71.440823 122.688664 
L 77.001639 122.237886 
L 85.12422 125.298267 
L 88.272916 142.184637 
L 83.271739 152.152953 
L 80.176707 165.554844 
L 85.323543 175.778293 
L 84.78445 180.461166 
L 79.384933 180.581987 
L 71.10412 178.261556 
L 63.495486 178.398629 
L 49.436748 180.470366 
L 29.445533 188.248884 
L 27.152394 187.93702 
L 28.063762 178.162508 
L 29.198985 176.676782 
L 28.83775 172.000655 
L 23.811121 167.029837 
L 20.041149 166.23653 
z
" clip-path="url(#p50483b2a60)" style="fill: #e8edf4; stroke: #b8c5d4; stroke-width: 0.45"/>
    <path d="M -60.88721 108.707202 
L -55.610354 102.922531 
L -52.008427 103.142706 
L -48.913395 101.150699 
L -46.295206 101.131687 
L -44.424326 99.558565 
L -45.434435 95.625762 
L -44.13454 94.38505 
L -43.917738 90.361785 
L -38.18949 90.484138 
L -29.659063 93.377394 
L -27.042713 93.112141 
L -26.152198 91.792313 
L -19.680934 92.730666 
L -17.967673 92.061246 
L -17.282001 96.406803 
L -12.301983 94.811602 
L -10.335121 95.207489 
L -7.040459 98.220952 
L -1.960779 99.169118 
L 7.979938 93.351329 
L 10.355259 93.66258 
L 12.992461 96.270036 
L 14.406737 99.543233 
L 19.270228 104.514971 
L 16.837256 107.569832 
L 16.374212 111.431186 
L 18.902246 110.263764 
L 20.385212 111.648295 
L 19.755963 115.182452 
L 23.380889 118.603761 
L 21.014461 119.523715 
L 20.061695 123.552807 
L 22.797331 128.458003 
L 25.728918 137.958675 
L 21.321112 139.38583 
L 20.187115 141.035615 
L 21.104003 143.327527 
L 20.404838 148.503802 
L 15.166006 148.213096 
L 12.745607 152.991644 
L 9.390228 152.933687 
L 7.081143 150.40596 
L 7.86525 145.639371 
L 2.903631 138.369894 
L -5.999071 140.65046 
L -5.866597 136.299078 
L -7.770902 133.193926 
L -7.386668 129.743485 
L -13.262415 120.510519 
L -22.754501 120.497333 
L -25.520496 122.733435 
L -28.79124 123.003288 
L -32.18587 128.855729 
L -38.530487 134.073709 
L -48.351303 122.405931 
L -54.35247 118.509619 
L -55.699896 113.265881 
L -57.436463 110.651678 
z
" clip-path="url(#p50483b2a60)" style="fill: #e8edf4; stroke: #b8c5d4; stroke-width: 0.45"/>
    <path d="M -17.075624 159.200108 
L -14.239406 155.403151 
L -13.609238 151.951176 
L -2.730781 139.970308 
L 2.903631 138.369894 
L 7.86525 145.639371 
L 7.081143 150.40596 
L 9.390228 152.933687 
L 12.745607 152.991644 
L 15.166006 148.213096 
L 18.522612 148.517294 
L 17.974932 151.968962 
L 19.161673 157.706102 
L 16.581202 162.978359 
L 20.041149 166.23653 
L 23.811121 167.029837 
L 28.83775 172.000655 
L 29.198985 176.676782 
L 28.063762 178.162508 
L 27.152394 187.93702 
L 24.043563 188.041588 
L 11.81124 182.384483 
L 1.027538 173.351148 
L -9.083677 166.857499 
z
" clip-path="url(#p50483b2a60)" style="fill: #e8edf4; stroke: #b8c5d4; stroke-width: 0.45"/>
    <path d="M 53.755932 109.765149 
L 56.992638 104.734534 
L 56.718491 100.714641 
L 66.139128 90.878492 
L 67.880907 82.739352 
L 71.132945 79.84303 
L 76.872232 81.443136 
L 81.846117 79.026724 
L 83.460329 75.977996 
L 92.668456 70.657902 
L 94.93277 66.948034 
L 106.025576 62.025053 
L 112.55909 60.33571 
L 115.521342 62.612597 
L 123.130589 62.558013 
L 122.190089 68.310179 
L 123.783756 73.716136 
L 130.466916 81.465829 
L 130.835511 87.209102 
L 144.519521 89.900888 
L 144.250894 98.028988 
L 141.65785 101.577558 
L 135.85662 102.686409 
L 133.438981 107.875257 
L 129.357451 109.21839 
L 113.474751 108.01969 
L 109.642836 109.935341 
L 104.399711 109.070277 
L 83.784153 109.629609 
L 83.505407 116.36306 
L 85.12422 125.298267 
L 77.001639 122.237886 
L 71.440823 122.688664 
L 67.289377 125.673608 
L 61.95303 123.167653 
L 59.87884 119.242516 
L 54.54188 116.654992 
z
" clip-path="url(#p50483b2a60)" style="fill: #e8edf4; stroke: #b8c5d4; stroke-width: 0.45"/>
    <path d="M 290.28747 175.03405 
L 291.203131 165.833896 
L 294.051309 163.679364 
L 300.019971 151.651885 
L 309.832201 150.759836 
L 312.019851 147.707121 
L 313.985487 147.93895 
L 316.950192 150.626442 
L 331.891473 146.085856 
L 343.119819 137.303668 
L 341.944731 133.125849 
L 345.291524 132.034784 
L 356.752311 132.77228 
L 367.922394 127.274022 
L 376.502499 114.325055 
L 382.523291 109.520441 
L 390.03625 107.496849 
L 391.381836 112.575609 
L 398.226907 119.995652 
L 398.261866 124.83829 
L 396.333642 129.777217 
L 397.095977 133.465619 
L 416.748649 146.866897 
L 416.857817 150.724264 
L 424.839339 156.904822 
L 429.785625 162.040313 
L 432.782222 169.159837 
L 441.653646 173.856816 
L 443.562244 177.619121 
L 439.643853 178.878232 
L 423.104305 177.356321 
L 418.693432 178.373177 
L 416.913628 181.259073 
L 413.070673 181.615095 
L 408.38872 179.104541 
L 395.175726 185.027818 
L 389.76701 183.835864 
L 388.136851 184.750605 
L 384.588282 191.917661 
L 367.05273 188.432875 
L 359.493775 184.054813 
L 349.727542 180.021428 
L 343.372499 183.843224 
L 338.751877 189.868923 
L 337.68473 198.14575 
L 330.051565 197.483383 
L 322.018526 195.489536 
L 314.945305 201.778955 
L 308.723963 212.823617 
L 306.942318 203.971206 
L 301.514589 200.152476 
L 297.133155 194.027729 
L 296.121205 189.766808 
L 290.512552 183.569078 
L 291.468691 180.032468 
z
" clip-path="url(#p50483b2a60)" style="fill: #e8edf4; stroke: #b8c5d4; stroke-width: 0.45"/>
    <path d="M 250.343677 286.957502 
L 259.379466 280.406816 
L 254.904196 272.558995 
L 258.974073 269.574664 
L 266.981967 268.121136 
L 267.926453 262.861452 
L 274.268003 268.560874 
L 284.745053 269.060103 
L 288.386231 263.452063 
L 289.88453 255.56131 
L 288.590461 246.294919 
L 282.975675 239.276283 
L 288.113925 225.530943 
L 285.151673 223.17218 
L 276.32134 224.139359 
L 273.003986 218.006945 
L 273.866903 212.830057 
L 288.844369 213.295553 
L 307.870245 219.232017 
L 308.723963 212.823617 
L 314.945305 201.778955 
L 322.018526 195.489536 
L 330.051565 197.483383 
L 337.68473 198.14575 
L 336.981272 205.313419 
L 333.426569 211.659568 
L 331.107058 219.063972 
L 329.627772 229.581194 
L 330.249048 236.307285 
L 328.314691 240.425612 
L 328.019079 244.778222 
L 326.655094 248.564139 
L 318.841004 254.284414 
L 313.402849 260.397815 
L 308.248653 271.927293 
L 308.646073 281.691685 
L 291.749583 298.723715 
L 287.316018 296.621313 
L 286.555523 293.261641 
L 280.090699 293.1445 
L 276.031862 297.687847 
L 272.913831 296.479027 
L 268.466159 292.40731 
L 264.880178 294.403611 
L 260.089671 299.527755 
z
" clip-path="url(#p50483b2a60)" style="fill: #e8edf4; stroke: #b8c5d4; stroke-width: 0.45"/>
    <path d="M 223.097091 252.925335 
L 223.477952 248.982412 
L 226.069156 245.187908 
L 231.344173 227.748032 
L 252.614124 227.183793 
L 252.511703 212.901813 
L 258.151634 212.121999 
L 265.364074 213.711679 
L 272.389457 212.183022 
L 273.866903 212.830057 
L 273.003986 218.006945 
L 276.32134 224.139359 
L 285.151673 223.17218 
L 288.113925 225.530943 
L 282.975675 239.276283 
L 288.590461 246.294919 
L 289.88453 255.56131 
L 288.386231 263.452063 
L 284.745053 269.060103 
L 274.268003 268.560874 
L 267.926453 262.861452 
L 266.981967 268.121136 
L 258.974073 269.574664 
L 254.904196 272.558995 
L 259.379466 280.406816 
L 250.343677 286.957502 
L 238.14754 274.978474 
L 230.304011 265.185256 
z
" clip-path="url(#p50483b2a60)" style="fill: #e8edf4; stroke: #b8c5d4; stroke-width: 0.45"/>
    <path d="M 229.121564 225.958415 
L 233.1988 212.63104 
L 252.511703 212.901813 
L 252.614124 227.183793 
L 231.344173 227.748032 
z
" clip-path="url(#p50483b2a60)" style="fill: #e8edf4; stroke: #b8c5d4; stroke-width: 0.45"/>
    <path d="M 378.449122 430.579505 
L 378.995574 392.816617 
L 403.707994 392.966263 
L 402.696658 388.869401 
L 404.464809 384.424183 
L 402.378967 378.857847 
L 403.728846 373.102001 
L 402.474642 369.417279 
L 406.568438 369.715957 
L 407.249204 373.404973 
L 412.811246 373.118561 
L 420.346896 374.213306 
L 424.313125 379.601784 
L 433.816864 381.257088 
L 441.072235 377.510421 
L 443.735195 383.729311 
L 452.829861 385.387681 
L 462.07724 396.976649 
L 471.160253 397.074778 
L 470.167929 384.27699 
L 466.910678 386.435202 
L 455.406959 379.704818 
L 458.984354 353.740648 
L 456.32814 348.506723 
L 459.710504 340.930594 
L 462.891706 339.512025 
L 478.83267 337.508979 
L 483.507808 338.716554 
L 488.46562 341.737858 
L 500.738616 345.722942 
L 507.473906 349.286231 
L 513.075813 354.580873 
L 516.093876 364.654983 
L 514.071817 367.871143 
L 511.686069 377.492022 
L 513.966329 387.325718 
L 510.231929 391.456925 
L 506.628775 402.482268 
L 512.869744 405.556141 
L 476.855382 415.338319 
L 477.980179 423.784724 
L 468.991001 425.409363 
L 462.233632 430.137314 
L 460.79053 434.251962 
L 456.542183 435.185408 
L 446.220911 444.946121 
L 439.648146 452.627124 
L 435.640826 452.902497 
L 431.785605 451.535446 
L 418.520481 450.235857 
L 411.614692 445.688831 
L 403.918357 445.005612 
L 394.200575 447.702917 
L 386.455788 440.289314 
z
" clip-path="url(#p50483b2a60)" style="fill: #e8edf4; stroke: #b8c5d4; stroke-width: 0.45"/>
    <path d="M 256.827514 437.615314 
L 258.470552 427.179355 
L 262.565574 416.314084 
L 263.18317 411.220605 
L 267.034097 400.522152 
L 269.863263 395.658662 
L 280.488119 382.612487 
L 281.73435 373.820792 
L 281.113075 367.094088 
L 277.563892 362.85126 
L 271.487902 348.530642 
L 272.125123 346.063938 
L 275.773048 341.35868 
L 269.742442 321.948262 
L 263.797086 314.439597 
L 264.925563 312.132965 
L 277.424672 309.333852 
L 312.44671 309.490857 
L 318.780287 325.451447 
L 326.052831 335.494892 
L 333.900652 334.535074 
L 337.81659 332.865664 
L 344.374636 334.54182 
L 349.130799 324.657833 
L 356.491658 324.194177 
L 357.131333 322.137773 
L 363.18647 322.093002 
L 362.153055 326.368948 
L 376.553403 326.2653 
L 376.771125 333.732874 
L 379.176499 338.311792 
L 377.427972 345.465968 
L 378.298862 352.764884 
L 382.257731 357.16901 
L 381.622963 371.292145 
L 397.069605 368.7175 
L 402.474642 369.417279 
L 403.728846 373.102001 
L 402.378967 378.857847 
L 404.464809 384.424183 
L 402.696658 388.869401 
L 403.707994 392.966263 
L 378.995574 392.816617 
L 378.449122 430.579505 
L 386.455788 440.289314 
L 394.200575 447.702917 
L 372.388464 452.539422 
L 343.655845 450.859586 
L 335.432683 445.173043 
L 287.323991 445.685151 
L 285.529467 446.519243 
L 278.454407 441.152844 
L 270.760525 440.798355 
L 257.944338 445.077368 
z
" clip-path="url(#p50483b2a60)" style="fill: #e8edf4; stroke: #b8c5d4; stroke-width: 0.45"/>
    <path d="M 260.089671 299.527755 
L 264.880178 294.403611 
L 268.466159 292.40731 
L 272.913831 296.479027 
L 268.594953 298.973329 
L 266.653236 302.02451 
L 266.281575 307.198332 
L 263.262899 308.451923 
z
" clip-path="url(#p50483b2a60)" style="fill: #e8edf4; stroke: #b8c5d4; stroke-width: 0.45"/>
    <path d="M 463.152972 273.432951 
L 470.359893 274.365784 
L 473.993711 267.608415 
L 480.299423 268.38421 
L 480.987613 273.057468 
L 483.543415 275.747855 
L 483.652958 279.604998 
L 471.799927 292.577808 
L 466.892279 293.14266 
L 466.137303 278.828788 
z
" clip-path="url(#p50483b2a60)" style="fill: #e8edf4; stroke: #b8c5d4; stroke-width: 0.45"/>
    <path d="M 15.613717 -85.40004 
L 15.735764 -102.555957 
L 34.901474 -111.31392 
L 46.752935 -113.123469 
L 56.467037 -116.31295 
L 61.006397 -122.255853 
L 74.882678 -126.952832 
L 75.392332 -135.739314 
L 82.258256 -136.774262 
L 87.627108 -141.163669 
L 103.158999 -143.163956 
L 105.334997 -147.776299 
L 102.207767 -150.2982 
L 98.108451 -162.827361 
L 97.401927 -170.045627 
L 92.928497 -177.646901 
L 104.33746 -184.132271 
L 117.168673 -186.195114 
L 124.661392 -191.09203 
L 136.090902 -194.704383 
L 175.835371 -197.782856 
L 181.821205 -196.020224 
L 192.997421 -200.697884 
L 205.679294 -200.789572 
L 210.505986 -198.028177 
L 218.622435 -198.748808 
L 216.211542 -192.657485 
L 218.093154 -181.343583 
L 215.29956 -171.555579 
L 207.982859 -164.935896 
L 209.029153 -155.996089 
L 218.735282 -148.925322 
L 218.837704 -146.052612 
L 226.154405 -141.262718 
L 231.216606 -119.957808 
L 235.055881 -109.479225 
L 235.701075 -103.964713 
L 233.61094 -94.282503 
L 234.468337 -88.87164 
L 232.960225 -82.376151 
L 233.99548 -74.914097 
L 229.285315 -69.954625 
L 236.302725 -61.304297 
L 236.748596 -56.21879 
L 240.968732 -49.600641 
L 246.517282 -51.775106 
L 255.884867 -46.260901 
L 261.093034 -38.828592 
L 220.425544 -16.207841 
L 186.06342 7.106555 
L 169.327616 12.39905 
L 156.16246 13.560952 
L 156.026306 6.010276 
L 143.14143 0.685582 
L 140.319624 -4.875541 
z
" clip-path="url(#p50483b2a60)" style="fill: #e8edf4; stroke: #b8c5d4; stroke-width: 0.45"/>
    <path d="M 229.285315 -69.954625 
L 233.99548 -74.914097 
L 232.960225 -82.376151 
L 234.468337 -88.87164 
L 233.61094 -94.282503 
L 235.701075 -103.964713 
L 235.055881 -109.479225 
L 231.216606 -119.957808 
L 237.006797 -122.708471 
L 238.034079 -127.722834 
L 236.771902 -132.639068 
L 244.921468 -137.212467 
L 248.575526 -141.014943 
L 254.36081 -144.422147 
L 255.031763 -153.537972 
L 268.971152 -149.452774 
L 273.955174 -150.473908 
L 283.870048 -148.493591 
L 299.618466 -143.18996 
L 305.176431 -132.641327 
L 332.557991 -125.369842 
L 345.201349 -119.469244 
L 350.988607 -122.548193 
L 356.677121 -128.006822 
L 353.911609 -137.098167 
L 357.63393 -142.870945 
L 366.185512 -148.432352 
L 374.356246 -150.051165 
L 390.411218 -147.622708 
L 394.458725 -142.316585 
L 398.877587 -142.266382 
L 402.656044 -140.241798 
L 414.448695 -138.849547 
L 417.340721 -134.930571 
L 413.045051 -129.23553 
L 414.881644 -124.159648 
L 411.825007 -116.832145 
L 415.384615 -107.271944 
L 415.384615 2.337547 
L 401.736264 2.373626 
L 401.589811 7.352664 
L 306.919978 -38.09338 
L 286.542643 -27.19332 
L 279.867457 -33.711501 
L 261.093034 -38.828592 
L 255.884867 -46.260901 
L 246.517282 -51.775106 
L 240.968732 -49.600641 
L 236.748596 -56.21879 
L 236.302725 -61.304297 
z
" clip-path="url(#p50483b2a60)" style="fill: #e8edf4; stroke: #b8c5d4; stroke-width: 0.45"/>
    <path d="M 469.734324 255.655145 
L 469.833679 246.707672 
L 472.583115 242.172912 
L 473.251002 232.646481 
L 475.747757 227.128596 
L 480.285584 220.939452 
L 484.844876 217.787383 
L 488.660232 213.57338 
L 483.903456 211.96622 
L 484.621545 198.088952 
L 489.507745 194.852176 
L 497.054571 197.506246 
L 506.608062 194.72851 
L 514.958242 194.756044 
L 522.257143 189.298069 
L 527.88418 197.537934 
L 534.493068 217.117503 
L 530.174374 225.768185 
L 520.934665 238.432982 
L 521.055034 251.010989 
L 483.862075 251.777077 
L 472.607034 256.865805 
z
" clip-path="url(#p50483b2a60)" style="fill: #e8edf4; stroke: #b8c5d4; stroke-width: 0.45"/>
    <path d="M 463.152972 273.432951 
L 464.251398 266.940528 
L 465.881556 266.025481 
L 466.321294 258.9633 
L 469.734324 255.655145 
L 472.607034 256.865805 
L 479.699266 253.202548 
L 484.411271 259.8992 
L 483.724985 266.881651 
L 480.299423 268.38421 
L 473.993711 267.608415 
L 470.359893 274.365784 
z
" clip-path="url(#p50483b2a60)" style="fill: #e8edf4; stroke: #b8c5d4; stroke-width: 0.45"/>
    <path d="M 402.175142 137.436175 
L 409.894598 133.901752 
L 412.950767 123.307031 
L 416.210681 117.805926 
L 424.767956 116.175969 
L 432.917741 126.3632 
L 436.177656 127.381924 
L 440.456293 125.344477 
L 449.013568 125.751967 
L 450.643525 128.196902 
L 462.460714 128.196902 
L 462.868203 125.751967 
L 468.980542 123.510776 
L 470.20301 120.047117 
L 474.685392 117.602181 
L 484.668879 124.529499 
L 490.781218 123.307031 
L 496.689813 114.749756 
L 503.209641 108.229928 
L 502.190918 101.098866 
L 499.338493 97.635207 
L 506.469555 97.023973 
L 507.284534 94.375293 
L 512.785639 95.190271 
L 511.359426 103.95129 
L 512.785639 112.508565 
L 518.897978 117.194692 
L 520.32419 121.269585 
L 520.120446 127.178179 
L 521.763343 127.412879 
L 521.900862 136.66676 
L 520.126813 140.291288 
L 513.828396 140.583007 
L 509.785873 147.343213 
L 517.074211 148.193327 
L 523.089099 153.977736 
L 525.168633 158.723565 
L 530.588809 161.475191 
L 537.602722 174.39033 
L 522.257143 189.298069 
L 514.958242 194.756044 
L 506.608062 194.72851 
L 497.054571 197.506246 
L 489.507745 194.852176 
L 484.621545 198.088952 
L 474.173409 190.202253 
L 471.35467 185.133306 
L 464.745106 187.643861 
L 459.257274 186.86282 
L 456.080366 188.855747 
L 450.751378 187.416632 
L 441.653646 173.856816 
L 432.782222 169.159837 
L 429.785625 162.040313 
L 424.839339 156.904822 
L 416.857817 150.724264 
L 416.748649 146.866897 
z
" clip-path="url(#p50483b2a60)" style="fill: #e8edf4; stroke: #b8c5d4; stroke-width: 0.45"/>
   </g>
   <g id="PathCollection_1">
    <defs>
     <path id="m0bdf23c07b" d="M 0 2.12132 
C 0.562581 2.12132 1.102195 1.897805 1.5 1.5 
C 1.897805 1.102195 2.12132 0.562581 2.12132 0 
C 2.12132 -0.562581 1.897805 -1.102195 1.5 -1.5 
C 1.102195 -1.897805 0.562581 -2.12132 0 -2.12132 
C -0.562581 -2.12132 -1.102195 -1.897805 -1.5 -1.5 
C -1.897805 -1.102195 -2.12132 -0.562581 -2.12132 0 
C -2.12132 0.562581 -1.897805 1.102195 -1.5 1.5 
C -1.102195 1.897805 -0.562581 2.12132 0 2.12132 
z
" style="stroke: #ffffff; stroke-width: 0.5"/>
    </defs>
    <g clip-path="url(#p50483b2a60)">
     <use xlink:href="#m0bdf23c07b" x="474.725275" y="281.274725" style="fill: #8aa0b7; stroke: #ffffff; stroke-width: 0.5"/>
     <use xlink:href="#m0bdf23c07b" x="237.362637" y="216" style="fill: #8aa0b7; stroke: #ffffff; stroke-width: 0.5"/>
     <use xlink:href="#m0bdf23c07b" x="474.725275" y="263.472527" style="fill: #8aa0b7; stroke: #ffffff; stroke-width: 0.5"/>
     <use xlink:href="#m0bdf23c07b" x="51.032967" y="429.032967" style="fill: #8aa0b7; stroke: #ffffff; stroke-width: 0.5"/>
     <use xlink:href="#m0bdf23c07b" x="201.758242" y="227.868132" style="fill: #8aa0b7; stroke: #ffffff; stroke-width: 0.5"/>
     <use xlink:href="#m0bdf23c07b" x="132.527472" y="144.791209" style="fill: #8aa0b7; stroke: #ffffff; stroke-width: 0.5"/>
    </g>
   </g>
   <g id="PatchCollection_2">
    <defs>
     <path id="m18b6e92f0e" d="M 229.121564 -206.041585 
L 233.1988 -219.36896 
L 252.511703 -219.098187 
L 252.614124 -204.816207 
L 231.344173 -204.251968 
z
" style="stroke: #b45309; stroke-width: 1.15"/>
    </defs>
    <g clip-path="url(#p50483b2a60)">
     <use xlink:href="#m18b6e92f0e" x="0" y="432" style="fill: #f59e0b; stroke: #b45309; stroke-width: 1.15"/>
    </g>
   </g>
   <g id="PathCollection_2">
    <defs>
     <path id="m2bcbe9c432" d="M 0 3.316625 
C 0.879579 3.316625 1.723251 2.967164 2.345208 2.345208 
C 2.967164 1.723251 3.316625 0.879579 3.316625 0 
C 3.316625 -0.879579 2.967164 -1.723251 2.345208 -2.345208 
C 1.723251 -2.967164 0.879579 -3.316625 0 -3.316625 
C -0.879579 -3.316625 -1.723251 -2.967164 -2.345208 -2.345208 
C -2.967164 -1.723251 -3.316625 -0.879579 -3.316625 0 
C -3.316625 0.879579 -2.967164 1.723251 -2.345208 2.345208 
C -1.723251 2.967164 -0.879579 3.316625 0 3.316625 
z
" style="stroke: #ffffff"/>
    </defs>
    <g clip-path="url(#p50483b2a60)">
     <use xlink:href="#m2bcbe9c432" x="237.362637" y="216" style="fill: #f97316; stroke: #ffffff"/>
    </g>
   </g>
   <g id="PathCollection_3">
    <path d="M 237.362637 220.449719 
C 238.542717 220.449719 239.674622 219.980869 240.509064 219.146427 
C 241.343506 218.311984 241.812356 217.180079 241.812356 216 
C 241.812356 214.819921 241.343506 213.688016 240.509064 212.853573 
C 239.674622 212.019131 238.542717 211.550281 237.362637 211.550281 
C 236.182558 211.550281 235.050653 212.019131 234.216211 212.853573 
C 233.381769 213.688016 232.912918 214.819921 232.912918 216 
C 232.912918 217.180079 233.381769 218.311984 234.216211 219.146427 
C 235.050653 219.980869 236.182558 220.449719 237.362637 220.449719 
L 237.362637 220.449719 
z
" clip-path="url(#p50483b2a60)" style="fill: none; stroke: #7c2d12; stroke-width: 1.1"/>
   </g>
  </g>
 </g>
 <defs>
  <clipPath id="p50483b2a60">
   <rect x="0" y="0" width="474.725275" height="432"/>
  </clipPath>
 </defs>
</svg>
