<?xml version="1.0" encoding="utf-8" standalone="no"?>
<!DOCTYPE svg PUBLIC "-//W3C//DTD SVG 1.1//EN"
  "http://www.w3.org/Graphics/SVG/1.1/DTD/svg11.dtd">
<svg xmlns:xlink="http://www.w3.org/1999/xlink" width="570.840504pt" height="432pt" viewBox="0 0 570.840504 432" xmlns="http://www.w3.org/2000/svg" version="1.1">
 <metadata>
  <rdf:RDF xmlns:dc="http://purl.org/dc/elements/1.1/" xmlns:cc="http://creativecommons.org/ns#" xmlns:rdf="http://www.w3.org/1999/02/22-rdf-syntax-ns#">
   <cc:Work>
    <dc:type rdf:resource="http://purl.org/dc/dcmitype/StillImage"/>
    <dc:date>2026-06-09T04:57:13.598075</dc:date>
    <dc:format>image/svg+xml</dc:format>
    <dc:creator>
     <cc:Agent>
      <dc:title>Matplotlib v3.10.8, https://matplotlib.org/</dc:title>
     </cc:Agent>
    </dc:creator>
   </cc:Work>
  </rdf:RDF>
 </metadata>
 <defs>
  <style type="text/css">*{stroke-linejoin: round; stroke-linecap: butt}</style>
 </defs>
 <g id="figure_1">
  <g id="patch_1">
   <path d="M 0 432 
L 570.840504 432 
L 570.840504 0 
L 0 0 
z
" style="fill: #eaf3ff"/>
  </g>
  <g id="axes_1">
   <g id="PatchCollection_1">
    <path d="M 529.326561 450.305335 
L 534.052844 449.761358 
L 545.467839 437.267965 
L 545.362344 433.553365 
L 542.900993 430.962403 
L 542.238194 426.461566 
L 545.537204 425.014818 
L 546.198128 418.290407 
L 541.660258 411.841234 
L 545.669227 410.468442 
L 581.487698 409.730666 
L 624.862551 434.269769 
L 625.64216 440.900387 
L 642.047204 452.325924 
L 636.770415 466.409172 
L 637.447387 472.886405 
L 644.76492 477.050643 
L 645.107806 480.022323 
L 641.96114 486.924621 
L 642.61651 490.398172 
L 641.867761 495.858062 
L 650.589412 514.292649 
L 654.783938 516.792289 
L 645.690712 523.418906 
L 633.19316 527.857251 
L 626.33639 527.669666 
L 622.263475 531.098184 
L 614.306928 531.392809 
L 611.323026 532.837508 
L 597.588336 529.616761 
L 588.98865 530.541109 
L 585.788505 514.996709 
L 579.613354 506.506276 
L 568.408469 504.374085 
L 561.922085 500.94248 
L 550.102646 497.104667 
L 545.328052 494.195018 
L 539.155954 479.793515 
L 532.527227 473.393364 
L 530.240868 466.764046 
L 531.383752 460.820459 
z
" clip-path="url(#p607bbf8044)" style="fill: #e8edf4; stroke: #b8c5d4; stroke-width: 0.45"/>
    <path d="M -1.043091 158.855144 
L -0.55168 154.0255 
L 25.387357 153.130683 
L 26.760294 149.012167 
L 31.442575 143.877753 
L 35.214978 128.095322 
L 51.103724 115.761625 
L 56.477937 101.351836 
L 60.050114 100.514902 
L 63.772313 91.607494 
L 73.387895 90.380149 
L 77.523541 91.864422 
L 82.713474 91.864422 
L 86.397282 89.263844 
L 93.462491 88.895581 
L 93.200247 82.77244 
L 94.940266 82.77244 
L 94.692198 103.064095 
L 57.179024 102.466369 
L 57.546991 131.711797 
L 46.837548 132.737734 
L 44.04265 138.608083 
L 46.21029 155.114045 
L 1.451172 155.042578 
z
" clip-path="url(#p607bbf8044)" style="fill: #e8edf4; stroke: #b8c5d4; stroke-width: 0.45"/>
    <path d="M 333.222429 465.048834 
L 336.129548 463.841571 
L 336.487475 458.858951 
L 338.357434 455.920528 
L 342.516705 453.518404 
L 345.519507 454.682551 
L 349.428347 450.307107 
L 355.65426 450.419919 
L 356.38665 453.655432 
L 360.656371 455.680138 
L 376.92844 439.277538 
L 376.545707 429.873995 
L 381.509427 418.770596 
L 386.746611 412.883119 
L 394.271927 407.374241 
L 395.585505 403.728234 
L 395.870192 399.536478 
L 397.733064 395.570345 
L 397.134748 389.092821 
L 398.559366 378.96427 
L 400.793158 371.833501 
L 404.216494 365.721877 
L 405.921665 350.848142 
L 410.37153 345.045126 
L 416.491718 341.364567 
L 425.897034 345.248896 
L 433.176644 349.465164 
L 450.064158 352.821167 
L 453.481588 345.918975 
L 455.051503 345.038039 
L 460.260337 346.185943 
L 472.985037 340.481564 
L 477.493965 342.899339 
L 481.194901 342.556474 
L 482.908932 339.777228 
L 487.156798 338.797951 
L 503.085117 340.263619 
L 506.858701 339.051039 
L 513.782157 348.486477 
L 518.914208 349.872409 
L 521.973712 347.953131 
L 527.258738 348.705308 
L 533.624041 346.287533 
L 536.338612 351.169154 
L 546.400716 358.76446 
L 545.70908 372.12882 
L 550.290066 373.676586 
L 546.615709 377.734858 
L 542.224908 380.77044 
L 537.854779 386.730861 
L 535.450293 392.044829 
L 534.807088 401.219205 
L 532.159259 405.58638 
L 532.063576 414.203194 
L 528.776677 417.389094 
L 528.35319 424.190288 
L 526.783275 425.071519 
L 525.725442 431.32401 
L 528.599486 436.520441 
L 529.326561 450.305335 
L 531.383752 460.820459 
L 530.240868 466.764046 
L 532.527227 473.393364 
L 539.155954 479.793515 
L 545.328118 494.195035 
L 540.825687 493.032069 
L 525.473831 494.961092 
L 522.410193 496.327237 
L 519.152826 503.623385 
L 521.710878 508.663887 
L 518.265688 533.668536 
L 529.34428 540.150194 
L 532.481157 538.07174 
L 533.436809 550.396578 
L 524.689464 550.302076 
L 515.783828 539.141385 
L 507.025261 537.544301 
L 504.460712 531.555234 
L 497.473468 535.16344 
L 488.320945 533.569309 
L 484.501291 528.379965 
L 477.244125 527.325677 
L 471.887632 527.601505 
L 471.232024 524.048819 
L 462.084226 523.087261 
L 447.208424 525.566758 
L 447.819735 511.965552 
L 444.007168 507.724183 
L 443.168462 500.695003 
L 444.852371 493.805214 
L 442.535889 489.395512 
L 442.326213 482.203907 
L 428.458039 482.303725 
L 429.453263 478.185799 
L 423.621897 478.228915 
L 423.005862 480.209324 
L 415.917028 480.655846 
L 411.336632 490.174563 
L 405.020943 488.560351 
L 401.249721 490.168066 
L 393.691921 491.092415 
L 386.688138 481.420131 
L 380.588622 466.049375 
L 346.860845 465.898171 
L 334.823648 468.593842 
z
" clip-path="url(#p607bbf8044)" style="fill: #e8edf4; stroke: #b8c5d4; stroke-width: 0.45"/>
    <path d="M 444.711548 254.995526 
L 445.863417 250.797685 
L 448.823553 246.033168 
L 447.528701 241.29951 
L 451.285933 237.794071 
L 448.90276 235.123674 
L 451.925187 228.066277 
L 457.144371 219.649223 
L 467.000061 220.447919 
L 466.578426 170.281849 
L 479.722394 170.247103 
L 479.722394 147.422773 
L 615.347918 147.422773 
L 619.03383 158.636864 
L 616.527218 160.710297 
L 618.187816 172.476777 
L 622.383485 186.12216 
L 632.993524 193.16027 
L 627.20915 199.683878 
L 618.790952 201.562894 
L 615.191334 205.067076 
L 614.063924 212.664175 
L 609.141565 229.458395 
L 610.356411 234.034553 
L 608.5358 243.850012 
L 603.888664 255.108678 
L 596.995052 260.7711 
L 592.093381 269.502124 
L 590.944941 274.174404 
L 585.530769 277.375589 
L 582.149569 289.336715 
L 582.302267 299.612098 
L 582.169831 290.700199 
L 580.587648 290.474173 
L 580.783863 284.783934 
L 579.410357 280.859631 
L 573.523903 276.346684 
L 572.150397 268.105648 
L 573.523903 259.668398 
L 568.226095 258.883537 
L 567.441234 261.434334 
L 560.573705 262.022979 
L 563.320717 265.358636 
L 564.301792 272.226166 
L 558.022908 278.50505 
L 552.332669 286.746085 
L 546.446216 287.923376 
L 536.831674 281.252062 
L 532.514941 283.606643 
L 531.337651 286.9423 
L 525.451197 289.100667 
L 525.058767 291.455248 
L 513.678289 291.455248 
L 512.108568 289.100667 
L 503.867533 288.708237 
L 499.747015 290.670388 
L 496.607573 289.689312 
L 488.758968 279.878556 
L 480.517932 281.448277 
L 477.37849 286.746085 
L 474.435263 296.949272 
L 467.001085 300.353078 
L 474.777622 304.81679 
L 466.073394 299.820586 
L 462.109624 296.529257 
L 461.375461 292.977161 
L 463.232426 288.220756 
L 463.19876 283.55708 
L 456.606652 276.41125 
L 455.448571 268.751774 
L 451.247872 265.382918 
L 451.121347 258.743728 
L 448.725602 254.334098 
z
" clip-path="url(#p607bbf8044)" style="fill: #e8edf4; stroke: #b8c5d4; stroke-width: 0.45"/>
    <path d="M 348.744389 234.662907 
L 353.679395 219.607505 
L 368.258469 208.830185 
L 368.860919 193.964423 
L 373.264714 170.771261 
L 375.750709 165.851544 
L 370.994894 161.933548 
L 370.811014 158.29855 
L 366.534397 155.326084 
L 363.727444 137.559654 
L 375.266134 131.310325 
L 466.437385 175.076883 
L 467.000061 220.447919 
L 457.144371 219.649223 
L 451.925187 228.066277 
L 448.90276 235.123674 
L 451.285933 237.794071 
L 447.528701 241.29951 
L 448.823553 246.033168 
L 445.863417 250.797685 
L 444.711548 254.995526 
L 448.725602 254.334098 
L 451.121347 258.743728 
L 451.247872 265.382918 
L 455.448571 268.751774 
L 455.310793 271.520178 
L 448.075481 273.468988 
L 442.27719 278.096044 
L 434.014168 290.566474 
L 423.256883 295.861541 
L 412.219636 295.151299 
L 408.996526 296.202043 
L 410.128187 300.225468 
L 399.314792 308.683105 
L 384.925675 313.055891 
L 382.070532 310.467717 
L 380.177538 310.244456 
L 378.070734 313.184355 
L 368.621121 314.043438 
L 370.411344 310.947315 
L 365.198375 298.337199 
L 360.22048 296.396954 
L 353.474216 289.726291 
L 355.957257 284.332883 
L 361.166091 285.481083 
L 364.390973 284.667184 
L 370.774586 284.77911 
L 364.553398 274.389792 
L 364.97157 266.797734 
L 364.20817 259.214511 
L 359.664099 251.895649 
L 360.806983 246.511986 
L 353.477169 246.248857 
L 353.502566 238.896894 
z
" clip-path="url(#p607bbf8044)" style="fill: #e8edf4; stroke: #b8c5d4; stroke-width: 0.45"/>
    <path d="M -7.462142 230.520765 
L -2.434633 228.349876 
L 3.102595 220.325767 
L 5.818348 214.4566 
L 9.731913 210.791988 
L 15.412667 211.778648 
L 20.989468 209.287633 
L 27.371605 209.162123 
L 32.832936 212.521966 
L 40.419678 215.54987 
L 54.877899 231.808946 
L 55.40209 238.919338 
L 57.655668 245.46449 
L 61.933953 248.674606 
L 62.911163 253.094348 
L 62.384905 256.655008 
L 60.734958 257.299689 
L 54.502844 256.396013 
L 53.645238 257.667066 
L 51.125578 257.922516 
L 42.910397 255.136183 
L 16.272045 254.538458 
L 13.207816 255.825457 
L 9.42301 255.45749 
L 3.368382 257.319475 
L 1.493107 248.558251 
L 11.896601 248.799526 
L 20.927452 244.465131 
L 25.830335 246.880249 
L 30.796417 247.081656 
L 35.742418 244.516221 
L 33.43332 241.212784 
L 29.664756 243.137377 
L 26.117976 243.083925 
L 21.606685 240.270717 
L 17.983122 240.454996 
L 15.402036 243.161298 
L 2.953755 243.488512 
L -1.759535 234.589963 
z
" clip-path="url(#p607bbf8044)" style="fill: #e8edf4; stroke: #b8c5d4; stroke-width: 0.45"/>
    <path d="M 54.877899 231.808946 
L 58.724427 229.725766 
L 60.646067 222.992496 
L 64.269039 222.729072 
L 72.250327 225.912314 
L 78.695957 223.652238 
L 83.114517 224.410913 
L 84.829139 221.869103 
L 130.690092 221.695456 
L 133.232787 213.692905 
L 131.252674 212.284234 
L 120.220152 113.630308 
L 137.712479 113.424766 
L 214.822598 163.300579 
L 217.540122 168.656187 
L 229.94883 173.784104 
L 230.079952 181.05574 
L 242.758582 179.936777 
L 242.790476 206.259434 
L 236.540938 213.893722 
L 235.567567 220.936191 
L 225.415095 222.748858 
L 209.819896 223.731384 
L 205.593883 227.7932 
L 190.940752 228.294651 
L 188.087972 226.101908 
L 181.795908 227.72882 
L 171.113043 232.469869 
L 168.932409 236.042637 
L 160.064574 241.166124 
L 158.510015 244.102184 
L 153.719943 246.429297 
L 148.192755 244.888323 
L 145.060898 247.67761 
L 143.383487 255.515963 
L 134.310996 264.988611 
L 134.575011 268.859946 
L 131.457921 273.704652 
L 132.214823 280.339876 
L 124.830079 283.475867 
L 123.061119 278.587454 
L 119.760931 279.876226 
L 117.789382 279.65326 
L 115.685826 282.988591 
L 106.859336 282.894385 
L 103.695289 281.178287 
L 102.205406 282.216628 
L 98.714441 278.921755 
L 99.320436 275.518205 
L 97.892274 274.184841 
L 95.457665 275.30912 
L 95.903596 271.590464 
L 98.246656 268.648498 
L 93.562899 263.860493 
L 92.200888 260.708259 
L 89.661146 258.197163 
L 87.373606 257.897414 
L 77.800254 263.500204 
L 72.908297 262.587078 
L 69.735391 259.684979 
L 67.841216 259.303723 
L 63.045238 260.839972 
L 62.384905 256.655008 
L 62.911163 253.094348 
L 61.933953 248.674606 
L 57.655668 245.46449 
L 55.40209 238.919338 
z
" clip-path="url(#p607bbf8044)" style="fill: #e8edf4; stroke: #b8c5d4; stroke-width: 0.45"/>
    <path d="M -1.043091 158.855144 
L 1.451172 155.042578 
L 46.21029 155.114045 
L 44.04265 138.608083 
L 46.837548 132.737734 
L 57.546991 131.711797 
L 57.179024 102.466369 
L 94.692198 103.064095 
L 94.725274 85.751912 
L 137.712479 113.424766 
L 120.220152 113.630308 
L 131.252674 212.284234 
L 133.232787 213.692905 
L 130.690092 221.695456 
L 84.829139 221.869103 
L 83.114517 224.410913 
L 78.695957 223.652238 
L 72.250327 225.912314 
L 64.269039 222.729072 
L 60.646067 222.992496 
L 58.724427 229.725766 
L 54.877899 231.808946 
L 40.419678 215.54987 
L 32.832936 212.521966 
L 27.371605 209.162123 
L 20.989468 209.287633 
L 15.412667 211.778648 
L 9.731913 210.791988 
L 5.818348 214.4566 
L 4.828439 208.297725 
L 8.019064 202.662155 
L 9.438662 191.90103 
L 6.794967 174.92433 
L 7.935784 169.224381 
L 4.981414 163.791399 
z
" clip-path="url(#p607bbf8044)" style="fill: #e8edf4; stroke: #b8c5d4; stroke-width: 0.45"/>
    <path d="M 202.811389 279.196106 
L 204.265539 273.178099 
L 208.196233 271.884602 
L 210.524527 266.887511 
L 216.11137 265.819638 
L 222.445369 259.054474 
L 226.542623 259.024942 
L 235.258073 265.602284 
L 234.812732 269.399494 
L 237.383188 276.179424 
L 235.131086 280.780492 
L 236.335396 283.854762 
L 227.270288 294.433969 
L 225.115642 301.643294 
L 224.748856 327.337216 
L 215.302786 328.670581 
L 212.487807 320.785567 
L 213.008159 294.537036 
L 210.705853 292.182163 
L 210.271734 286.572876 
z
" clip-path="url(#p607bbf8044)" style="fill: #e8edf4; stroke: #b8c5d4; stroke-width: 0.45"/>
    <path d="M 197.363051 233.781676 
L 198.268794 228.242084 
L 205.593883 227.7932 
L 209.819896 223.731384 
L 225.415095 222.748858 
L 235.567567 220.936191 
L 236.540938 213.893722 
L 242.790476 206.259434 
L 242.758582 179.936777 
L 258.875904 174.839869 
L 291.968155 152.387071 
L 331.132753 130.602284 
L 349.213355 135.53027 
L 355.641856 141.807567 
L 363.727444 137.559654 
L 366.534397 155.326084 
L 370.811014 158.29855 
L 370.994894 161.933548 
L 375.750709 165.851544 
L 373.264714 170.771261 
L 368.860919 193.964423 
L 368.258469 208.830185 
L 353.679395 219.607505 
L 348.744389 234.662907 
L 353.502566 238.896894 
L 353.477169 246.248857 
L 360.806983 246.511986 
L 359.664099 251.895649 
L 356.438036 252.551257 
L 356.070069 256.190176 
L 353.944363 256.442674 
L 346.210553 243.929718 
L 343.527876 243.474927 
L 334.590937 249.86356 
L 325.741412 246.528524 
L 319.58992 245.861694 
L 316.291798 247.466457 
L 309.591604 247.119752 
L 302.849474 251.990446 
L 297.02047 252.269818 
L 283.187735 246.362259 
L 277.770996 249.168084 
L 271.938448 248.973174 
L 267.65219 244.656498 
L 256.19559 240.391503 
L 243.912097 241.745244 
L 240.935874 244.217063 
L 239.328158 250.790271 
L 236.05189 255.398721 
L 235.258073 265.602284 
L 226.542623 259.024942 
L 222.445369 259.054474 
L 218.608586 262.402208 
L 218.867285 254.574486 
L 205.688976 251.982177 
L 205.334003 246.45115 
L 198.897823 238.987852 
z
" clip-path="url(#p607bbf8044)" style="fill: #e8edf4; stroke: #b8c5d4; stroke-width: 0.45"/>
    <path d="M 224.748856 327.337216 
L 225.115642 301.643294 
L 227.270288 294.433969 
L 236.335396 283.854762 
L 235.131086 280.780492 
L 237.383188 276.179424 
L 234.812732 269.399494 
L 236.05189 255.398721 
L 239.328158 250.790271 
L 240.935874 244.217063 
L 243.912097 241.745244 
L 256.19559 240.391503 
L 267.65219 244.656498 
L 271.938448 248.973174 
L 277.770996 249.168084 
L 283.187735 246.362259 
L 297.02047 252.269818 
L 302.849474 251.990446 
L 309.591604 247.119752 
L 316.291798 247.466457 
L 319.58992 245.861694 
L 325.741412 246.528524 
L 334.590937 249.86356 
L 343.527876 243.474927 
L 346.210553 243.929718 
L 353.944363 256.442674 
L 356.070069 256.190176 
L 360.594354 260.742516 
L 358.745067 266.605777 
L 349.116491 275.449987 
L 344.483528 288.684702 
L 342.05896 291.231827 
L 339.75252 299.232606 
L 333.64001 303.940874 
L 331.869278 309.724399 
L 329.301776 314.32783 
L 328.232722 319.078624 
L 320.380783 322.929878 
L 313.964095 318.233126 
L 309.631177 318.422721 
L 302.824077 325.112284 
L 299.514734 325.215055 
L 291.138309 344.331045 
L 279.272397 348.444246 
L 274.934754 347.843273 
L 270.539818 350.404573 
L 261.397337 350.154733 
L 255.27833 343.005359 
L 251.515377 334.732296 
L 243.42364 327.20196 
z
" clip-path="url(#p607bbf8044)" style="fill: #e8edf4; stroke: #b8c5d4; stroke-width: 0.45"/>
    <path d="M 291.007188 347.489776 
L 291.138309 344.331045 
L 294.078504 336.242557 
L 299.514734 325.215055 
L 302.824077 325.112284 
L 309.631177 318.422721 
L 313.964095 318.233126 
L 320.380783 322.929878 
L 328.232722 319.078624 
L 329.301776 314.32783 
L 331.869278 309.724399 
L 333.64001 303.940874 
L 339.75252 299.232606 
L 342.05896 291.231827 
L 344.483528 288.684702 
L 349.116491 275.449987 
L 358.745067 266.605777 
L 360.594354 260.742516 
L 356.070069 256.190176 
L 356.438036 252.551257 
L 359.664099 251.895649 
L 364.20817 259.214511 
L 364.97157 266.797734 
L 364.553398 274.389792 
L 370.774586 284.77911 
L 364.390973 284.667184 
L 361.166091 285.481083 
L 355.957257 284.332883 
L 353.474216 289.726291 
L 360.22048 296.396954 
L 365.198375 298.337199 
L 370.411344 310.947315 
L 362.873034 325.626434 
L 360.130112 327.701345 
L 359.24829 336.561501 
L 360.385859 341.375199 
L 359.465054 344.781111 
L 364.866436 350.749801 
L 365.840989 354.853257 
L 370.060505 360.75166 
L 375.287649 364.429266 
L 377.003451 372.954531 
L 376.181284 379.126105 
L 357.85852 373.409027 
L 342.011709 372.33761 
L 335.245954 373.809775 
L 328.300054 372.278842 
L 322.86855 373.029838 
L 304.269367 372.769071 
L 305.93851 363.745012 
L 301.471516 356.188688 
L 296.256776 354.250215 
L 293.934388 349.128796 
z
" clip-path="url(#p607bbf8044)" style="fill: #e8edf4; stroke: #b8c5d4; stroke-width: 0.45"/>
    <path d="M 193.414933 276.497483 
L 194.256001 272.934165 
L 204.265539 273.178099 
L 202.811389 279.196106 
L 210.271734 286.572876 
L 210.705853 292.182163 
L 213.008159 294.537036 
L 212.487807 320.785567 
L 215.302786 328.670581 
L 206.100651 331.108734 
L 200.503177 319.844681 
L 199.595367 314.159793 
L 202.122115 303.864977 
L 199.255159 299.695961 
L 198.185219 282.391752 
z
" clip-path="url(#p607bbf8044)" style="fill: #e8edf4; stroke: #b8c5d4; stroke-width: 0.45"/>
    <path d="M 156.902299 327.432604 
L 159.882952 314.525989 
L 164.699308 304.926058 
L 160.107985 280.058733 
L 160.37643 273.574121 
L 180.230127 273.03546 
L 185.279489 273.868554 
L 188.969794 272.023697 
L 194.256001 272.934165 
L 193.414933 276.497483 
L 198.185219 282.391752 
L 199.255159 299.695961 
L 202.122115 303.864977 
L 199.595367 314.159793 
L 200.503177 319.844681 
L 206.100651 331.108734 
L 188.181883 337.799183 
L 181.827212 341.718655 
L 171.528261 345.0342 
L 161.33976 341.788055 
L 161.858931 337.27824 
z
" clip-path="url(#p607bbf8044)" style="fill: #e8edf4; stroke: #b8c5d4; stroke-width: 0.45"/>
    <path d="M 95.657005 324.951335 
L 98.142113 319.873918 
L 96.999229 314.348797 
L 97.526669 311.024688 
L 99.339336 311.011694 
L 100.012663 306.026712 
L 99.12966 303.819498 
L 100.221749 302.230683 
L 104.466662 300.856269 
L 101.643414 291.7067 
L 99.008874 286.982779 
L 99.92643 283.102584 
L 103.695289 281.178287 
L 106.859336 282.894385 
L 115.685826 282.988591 
L 117.789382 279.65326 
L 119.760931 279.876226 
L 123.061119 278.587454 
L 124.830079 283.475867 
L 132.214823 280.339876 
L 137.354553 282.831777 
L 139.352089 286.611859 
L 144.491228 289.025204 
L 148.489255 286.15057 
L 153.844568 285.716452 
L 161.666974 288.663734 
L 164.699308 304.926058 
L 159.882952 314.525989 
L 156.902299 327.432604 
L 161.858931 337.27824 
L 161.33976 341.788055 
L 156.139786 341.90441 
L 148.164995 339.669732 
L 140.837543 339.80174 
L 127.298355 341.796914 
L 108.045927 349.287973 
L 105.837532 348.987633 
L 106.71522 339.574344 
L 107.808491 338.143524 
L 107.460605 333.640207 
L 102.619738 328.853088 
L 98.989088 328.089098 
z
" clip-path="url(#p607bbf8044)" style="fill: #e8edf4; stroke: #b8c5d4; stroke-width: 0.45"/>
    <path d="M 21.051485 272.685802 
L 26.133333 267.114907 
L 29.602148 267.326946 
L 32.582801 265.408554 
L 35.104234 265.390245 
L 36.905974 263.875259 
L 35.933194 260.087794 
L 37.185051 258.892934 
L 37.393841 255.018351 
L 42.910397 255.136183 
L 51.125578 257.922516 
L 53.645238 257.667066 
L 54.502844 256.396013 
L 60.734958 257.299689 
L 62.384905 256.655008 
L 63.045238 260.839972 
L 67.841216 259.303723 
L 69.735391 259.684979 
L 72.908297 262.587078 
L 77.800254 263.500204 
L 87.373606 257.897414 
L 89.661146 258.197163 
L 92.200888 260.708259 
L 93.562899 263.860493 
L 98.246656 268.648498 
L 95.903596 271.590464 
L 95.457665 275.30912 
L 97.892274 274.184841 
L 99.320436 275.518205 
L 98.714441 278.921755 
L 102.205406 282.216628 
L 99.92643 283.102584 
L 99.008874 286.982779 
L 101.643414 291.7067 
L 104.466662 300.856269 
L 100.221749 302.230683 
L 99.12966 303.819498 
L 100.012663 306.026712 
L 99.339336 311.011694 
L 94.294108 310.731732 
L 91.963157 315.333686 
L 88.731778 315.27787 
L 86.508027 312.843557 
L 87.263157 308.25312 
L 82.484898 301.252291 
L 73.9112 303.448578 
L 74.038778 299.258003 
L 72.204848 296.267604 
L 72.574882 292.944676 
L 66.916278 284.052921 
L 57.774977 284.040222 
L 55.111201 286.193687 
L 51.96133 286.453568 
L 48.69215 292.089728 
L 42.582003 297.114874 
L 33.124121 285.878286 
L 27.344731 282.125965 
L 26.047099 277.076012 
L 24.374709 274.558419 
z
" clip-path="url(#p607bbf8044)" style="fill: #e8edf4; stroke: #b8c5d4; stroke-width: 0.45"/>
    <path d="M 3.368382 257.319475 
L 9.42301 255.45749 
L 13.207816 255.825457 
L 16.272045 254.538458 
L 37.393841 255.018351 
L 37.185051 258.892934 
L 35.933194 260.087794 
L 36.905974 263.875259 
L 35.104234 265.390245 
L 32.582801 265.408554 
L 29.602148 267.326946 
L 26.133333 267.114907 
L 21.051485 272.685802 
L 14.949607 267.907543 
L 10.137386 267.151822 
L 7.513478 263.929598 
L 7.58022 262.190169 
L 4.095457 259.764716 
z
" clip-path="url(#p607bbf8044)" style="fill: #e8edf4; stroke: #b8c5d4; stroke-width: 0.45"/>
    <path d="M 63.243987 321.312711 
L 65.975392 317.656073 
L 66.582272 314.331669 
L 77.058709 302.793561 
L 82.484898 301.252291 
L 87.263157 308.25312 
L 86.508027 312.843557 
L 88.731778 315.27787 
L 91.963157 315.333686 
L 94.294108 310.731732 
L 97.526669 311.024688 
L 96.999229 314.348797 
L 98.142113 319.873918 
L 95.657005 324.951335 
L 98.989088 328.089098 
L 102.619738 328.853088 
L 107.460605 333.640207 
L 107.808491 338.143524 
L 106.71522 339.574344 
L 105.837532 348.987633 
L 102.84359 349.088337 
L 91.06332 343.640294 
L 80.678137 334.940791 
L 70.940588 328.687119 
z
" clip-path="url(#p607bbf8044)" style="fill: #e8edf4; stroke: #b8c5d4; stroke-width: 0.45"/>
    <path d="M 42.582003 297.114874 
L 48.69215 292.089728 
L 51.96133 286.453568 
L 55.111201 286.193687 
L 57.774977 284.040222 
L 66.916278 284.052921 
L 72.574882 292.944676 
L 72.204848 296.267604 
L 74.038778 299.258003 
L 73.9112 303.448578 
L 77.058709 302.793561 
L 66.582272 314.331669 
L 65.975392 317.656073 
L 63.243987 321.312711 
L 60.164698 320.464851 
L 51.936523 315.860535 
L 45.982304 309.737688 
L 43.982405 305.56247 
z
" clip-path="url(#p607bbf8044)" style="fill: #e8edf4; stroke: #b8c5d4; stroke-width: 0.45"/>
    <path d="M 131.457921 273.704652 
L 134.575011 268.859946 
L 134.310996 264.988611 
L 143.383487 255.515963 
L 145.060898 247.67761 
L 148.192755 244.888323 
L 153.719943 246.429297 
L 158.510015 244.102184 
L 160.064574 241.166124 
L 168.932409 236.042637 
L 171.113043 232.469869 
L 181.795908 227.72882 
L 188.087972 226.101908 
L 190.940752 228.294651 
L 198.268794 228.242084 
L 197.363051 233.781676 
L 198.897823 238.987852 
L 205.334003 246.45115 
L 205.688976 251.982177 
L 218.867285 254.574486 
L 218.608586 262.402208 
L 216.11137 265.819638 
L 210.524527 266.887511 
L 208.196233 271.884602 
L 204.265539 273.178099 
L 188.969794 272.023697 
L 185.279489 273.868554 
L 180.230127 273.03546 
L 160.37643 273.574121 
L 160.107985 280.058733 
L 161.666974 288.663734 
L 153.844568 285.716452 
L 148.489255 286.15057 
L 144.491228 289.025204 
L 139.352089 286.611859 
L 137.354553 282.831777 
L 132.214823 280.339876 
z
" clip-path="url(#p607bbf8044)" style="fill: #e8edf4; stroke: #b8c5d4; stroke-width: 0.45"/>
    <path d="M 359.24829 336.561501 
L 360.130112 327.701345 
L 362.873034 325.626434 
L 368.621121 314.043438 
L 378.070734 313.184355 
L 380.177538 310.244456 
L 382.070532 310.467717 
L 384.925675 313.055891 
L 399.314792 308.683105 
L 410.128187 300.225468 
L 408.996526 296.202043 
L 412.219636 295.151299 
L 423.256883 295.861541 
L 434.014168 290.566474 
L 442.27719 278.096044 
L 448.075481 273.468988 
L 455.310793 271.520178 
L 456.606652 276.41125 
L 463.19876 283.55708 
L 463.232426 288.220756 
L 461.375461 292.977161 
L 462.109624 296.529257 
L 481.036019 309.435282 
L 481.141153 313.150098 
L 488.827713 319.10225 
L 493.591206 324.047955 
L 496.477062 330.904373 
L 505.020637 335.427772 
L 506.858701 339.051039 
L 503.085117 340.263619 
L 487.156798 338.797951 
L 482.908932 339.777228 
L 481.194901 342.556474 
L 477.493965 342.899339 
L 472.985037 340.481564 
L 460.260337 346.185943 
L 455.051503 345.038039 
L 453.481588 345.918975 
L 450.064158 352.821167 
L 433.176644 349.465164 
L 425.897034 345.248896 
L 416.491718 341.364567 
L 410.37153 345.045126 
L 405.921665 350.848142 
L 404.893956 358.819094 
L 397.542879 358.181205 
L 389.806705 356.261042 
L 382.99488 362.318032 
L 377.003451 372.954531 
L 375.287649 364.429266 
L 370.060505 360.75166 
L 365.840989 354.853257 
L 364.866436 350.749801 
L 359.465054 344.781111 
L 360.385859 341.375199 
z
" clip-path="url(#p607bbf8044)" style="fill: #e8edf4; stroke: #b8c5d4; stroke-width: 0.45"/>
    <path d="M 320.780645 444.348753 
L 329.482511 438.040152 
L 325.172627 430.482351 
L 329.092099 427.608308 
L 336.804056 426.208497 
L 337.713638 421.143188 
L 343.820833 426.631984 
L 353.910697 427.112763 
L 357.417313 421.711972 
L 358.860241 414.112827 
L 357.613996 405.188881 
L 352.206707 398.429623 
L 357.15507 385.19225 
L 354.30229 382.920657 
L 345.798288 383.852093 
L 342.603528 377.946306 
L 343.434556 372.960733 
L 357.85852 373.409027 
L 376.181284 379.126105 
L 377.003451 372.954531 
L 382.99488 362.318032 
L 389.806705 356.261042 
L 397.542879 358.181205 
L 404.893956 358.819094 
L 404.216494 365.721877 
L 400.793158 371.833501 
L 398.559366 378.96427 
L 397.134748 389.092821 
L 397.733064 395.570345 
L 395.870192 399.536478 
L 395.585505 403.728234 
L 394.271927 407.374241 
L 386.746611 412.883119 
L 381.509427 418.770596 
L 376.545707 429.873995 
L 376.92844 439.277538 
L 360.656371 455.680138 
L 356.38665 453.655432 
L 355.65426 450.419919 
L 349.428347 450.307107 
L 345.519507 454.682551 
L 342.516705 453.518404 
L 338.2334 449.59716 
L 334.779941 451.519686 
L 330.166469 456.454465 
z
" clip-path="url(#p607bbf8044)" style="fill: #e8edf4; stroke: #b8c5d4; stroke-width: 0.45"/>
    <path d="M 294.540973 411.574266 
L 294.907759 407.777056 
L 297.403204 404.12278 
L 302.483279 387.327405 
L 322.967186 386.784019 
L 322.86855 373.029838 
L 328.300054 372.278842 
L 335.245954 373.809775 
L 342.011709 372.33761 
L 343.434556 372.960733 
L 342.603528 377.946306 
L 345.798288 383.852093 
L 354.30229 382.920657 
L 357.15507 385.19225 
L 352.206707 398.429623 
L 357.613996 405.188881 
L 358.860241 414.112827 
L 357.417313 421.711972 
L 353.910697 427.112763 
L 343.820833 426.631984 
L 337.713638 421.143188 
L 336.804056 426.208497 
L 329.092099 427.608308 
L 325.172627 430.482351 
L 329.482511 438.040152 
L 320.780645 444.348753 
L 309.035223 432.812417 
L 301.481557 423.381114 
z
" clip-path="url(#p607bbf8044)" style="fill: #e8edf4; stroke: #b8c5d4; stroke-width: 0.45"/>
    <path d="M 300.342808 385.603924 
L 304.269367 372.769071 
L 322.86855 373.029838 
L 322.967186 386.784019 
L 302.483279 387.327405 
z
" clip-path="url(#p607bbf8044)" style="fill: #e8edf4; stroke: #b8c5d4; stroke-width: 0.45"/>
    <path d="M 525.725442 431.32401 
L 532.666027 432.22237 
L 536.165555 425.714724 
L 542.238236 426.461849 
L 542.900993 430.962403 
L 545.362344 433.553365 
L 545.467839 437.267965 
L 534.052844 449.761358 
L 529.326561 450.305335 
L 528.599486 436.520441 
z
" clip-path="url(#p607bbf8044)" style="fill: #e8edf4; stroke: #b8c5d4; stroke-width: 0.45"/>
    <path d="M 1.493107 248.558251 
L 2.953755 243.488512 
L 15.402036 243.161298 
L 17.983122 240.454996 
L 21.606685 240.270717 
L 26.117976 243.083925 
L 29.664756 243.137377 
L 33.43332 241.212784 
L 35.742418 244.516221 
L 30.796417 247.081656 
L 25.830335 246.880249 
L 20.927452 244.465131 
L 11.896601 248.799526 
z
" clip-path="url(#p607bbf8044)" style="fill: #e8edf4; stroke: #b8c5d4; stroke-width: 0.45"/>
    <path d="M 279.985297 9.155352 
L 287.031605 2.780304 
L 289.72196 -6.645979 
L 287.909883 -17.541769 
L 290.23168 -23.407983 
L 302.67878 -28.020568 
L 310.679559 -26.649107 
L 310.344076 -20.866173 
L 320.038804 -25.07299 
L 320.852112 -22.877294 
L 315.137102 -17.276867 
L 315.060319 -11.990069 
L 319.017592 -9.150283 
L 317.512647 0.741718 
L 309.989103 6.487737 
L 312.161469 12.717193 
L 318.072571 12.911513 
L 320.948977 18.345085 
L 325.29548 20.132059 
L 324.649322 28.911003 
L 319.077837 32.192291 
L 315.558817 35.854245 
L 307.710423 40.258631 
L 308.925955 44.993183 
L 307.936637 49.822237 
L 302.360426 52.471247 
L 297.485302 31.953674 
L 290.438994 27.340793 
L 290.340358 24.574246 
L 280.992925 17.764783 
z
" clip-path="url(#p607bbf8044)" style="fill: #e8edf4; stroke: #b8c5d4; stroke-width: 0.45"/>
    <path d="M 94.725274 85.751912 
L 94.842811 69.230003 
L 113.30024 60.795696 
L 124.713724 59.053019 
L 134.068835 55.981407 
L 138.44044 50.258128 
L 151.803914 45.734729 
L 152.294734 37.272957 
L 158.906924 36.276256 
L 164.077366 32.049062 
L 179.035267 30.122697 
L 181.13085 25.680806 
L 178.119188 23.252103 
L 174.171365 11.185965 
L 173.490951 4.234454 
L 169.182839 -3.08591 
L 180.170177 -9.331609 
L 192.527205 -11.318219 
L 199.743026 -16.034166 
L 210.750151 -19.513022 
L 249.025839 -22.477728 
L 254.790463 -20.780235 
L 265.553654 -25.285029 
L 277.766862 -25.37333 
L 282.41518 -22.713983 
L 290.23168 -23.407983 
L 287.909883 -17.541769 
L 289.72196 -6.645979 
L 287.031605 2.780304 
L 279.985297 9.155352 
L 280.992925 17.764783 
L 290.340358 24.574246 
L 290.438994 27.340793 
L 297.485302 31.953674 
L 302.360426 52.471247 
L 306.057818 62.562588 
L 306.679169 67.873308 
L 304.666276 77.197706 
L 305.491987 82.408607 
L 304.039609 88.664051 
L 305.036606 95.850341 
L 300.500508 100.626533 
L 307.258585 108.957183 
L 307.687979 113.854751 
L 311.752157 120.228322 
L 317.095656 118.134216 
L 326.117057 123.44464 
L 331.132753 130.602284 
L 291.968155 152.387071 
L 258.875904 174.839869 
L 242.758582 179.936777 
L 230.079952 181.05574 
L 229.94883 173.784104 
L 217.540122 168.656187 
L 214.822598 163.300579 
z
" clip-path="url(#p607bbf8044)" style="fill: #e8edf4; stroke: #b8c5d4; stroke-width: 0.45"/>
    <path d="M 562.662745 -2.341116 
L 570.239446 -2.165106 
L 575.545735 -3.02094 
L 576.597071 -1.165156 
L 581.061701 -2.230962 
L 582.64402 -0.910886 
L 570.92813 3.732117 
L 565.333018 2.24873 
z
" clip-path="url(#p607bbf8044)" style="fill: #e8edf4; stroke: #b8c5d4; stroke-width: 0.45"/>
    <path d="M -0.55168 154.0255 
L -0.012428 148.72866 
L 4.377782 145.614228 
L 8.1177 139.658237 
L 7.380584 135.79015 
L 11.310097 127.725583 
L 17.671856 120.458967 
L 21.519861 118.617358 
L 24.545108 111.95083 
L 24.81621 105.861946 
L 28.94211 98.796737 
L 36.555726 94.630969 
L 43.800488 82.958491 
L 49.756479 78.409104 
L 60.385005 77.146615 
L 69.39105 69.334545 
L 75.121417 66.289217 
L 84.662579 56.745693 
L 81.806255 42.525499 
L 86.148623 32.691971 
L 87.681328 26.673372 
L 95.032996 18.951965 
L 114.976765 9.005626 
L 126.206856 -9.847531 
L 134.620491 -9.792601 
L 141.51087 -4.941103 
L 152.379786 -5.731376 
L 164.217938 -3.208172 
L 169.182839 -3.08591 
L 173.490951 4.234454 
L 174.171365 11.185965 
L 178.119188 23.252103 
L 181.13085 25.680806 
L 179.035267 30.122697 
L 164.077366 32.049062 
L 158.906924 36.276256 
L 152.294734 37.272957 
L 151.803914 45.734729 
L 138.44044 50.258128 
L 134.068835 55.981407 
L 124.713724 59.053019 
L 113.30024 60.795696 
L 94.842811 69.230003 
L 94.940266 82.77244 
L 93.200247 82.77244 
L 93.462491 88.895581 
L 86.397282 89.263844 
L 82.713474 91.864422 
L 77.523541 91.864422 
L 73.387895 90.380149 
L 63.772313 91.607494 
L 60.050114 100.514902 
L 56.477937 101.351836 
L 51.103724 115.761625 
L 35.214978 128.095322 
L 31.442575 143.877753 
L 26.760294 149.012167 
L 25.387357 153.130683 
z
" clip-path="url(#p607bbf8044)" style="fill: #e8edf4; stroke: #b8c5d4; stroke-width: 0.45"/>
    <path d="M 476.294333 55.4814 
L 479.23801 48.424689 
L 477.469289 43.53639 
L 481.606211 38.051812 
L 496.813325 37.862881 
L 524.452233 46.042202 
L 533.25172 42.42121 
L 537.956232 39.14619 
L 548.035942 38.20371 
L 556.162686 39.646804 
L 559.276663 45.315854 
L 561.929002 41.581367 
L 571.089205 44.281824 
L 579.998301 44.92885 
L 585.622091 42.04975 
L 593.133126 61.686039 
L 589.923026 66.279684 
L 587.463504 74.9139 
L 584.354212 80.865146 
L 581.689416 82.860743 
L 572.7218 74.072 
L 564.566482 57.688558 
L 563.391868 58.724645 
L 568.127812 70.785094 
L 575.144862 82.275665 
L 583.783193 100.078542 
L 591.675517 112.748413 
L 601.931698 125.401369 
L 599.660764 127.393994 
L 600.02948 134.822394 
L 615.347918 147.422773 
L 479.722394 147.422773 
L 479.722394 64.688298 
z
" clip-path="url(#p607bbf8044)" style="fill: #e8edf4; stroke: #b8c5d4; stroke-width: 0.45"/>
    <path d="M 300.500508 100.626533 
L 305.036606 95.850341 
L 304.039609 88.664051 
L 305.491987 82.408607 
L 304.666276 77.197706 
L 306.679169 67.873308 
L 306.057818 62.562588 
L 302.360426 52.471247 
L 307.936637 49.822237 
L 308.925955 44.993183 
L 307.710423 40.258631 
L 315.558817 35.854245 
L 319.077837 32.192291 
L 324.649322 28.911003 
L 325.29548 20.132059 
L 338.71973 24.066286 
L 343.519564 23.082889 
L 353.068029 24.990022 
L 368.234454 30.097654 
L 373.587021 40.256455 
L 399.956679 47.259219 
L 412.132794 52.941756 
L 417.706179 49.976591 
L 423.184471 44.71969 
L 420.52116 35.964321 
L 424.105921 30.404879 
L 432.341474 25.048998 
L 440.210254 23.490009 
L 455.671904 25.828721 
L 459.569833 30.938753 
L 463.825393 30.9871 
L 467.464215 32.936865 
L 478.821061 34.277664 
L 481.606211 38.051812 
L 477.469289 43.53639 
L 479.23801 48.424689 
L 476.294333 55.4814 
L 479.722394 64.688298 
L 479.722394 170.247103 
L 466.578426 170.281849 
L 466.437385 175.076883 
L 375.266134 131.310325 
L 355.641856 141.807567 
L 349.213355 135.53027 
L 331.132753 130.602284 
L 326.117057 123.44464 
L 317.095656 118.134216 
L 311.752157 120.228322 
L 307.687979 113.854751 
L 307.258585 108.957183 
z
" clip-path="url(#p607bbf8044)" style="fill: #e8edf4; stroke: #b8c5d4; stroke-width: 0.45"/>
    <path d="M 570.634995 309.893996 
L 574.528124 303.383617 
L 580.59378 303.102679 
L 582.302267 299.612098 
L 582.149569 289.336715 
L 585.530769 277.375589 
L 590.944941 274.174404 
L 592.093381 269.502124 
L 596.995052 260.7711 
L 603.888664 255.108678 
L 608.5358 243.850012 
L 610.356411 234.034553 
L 623.663364 236.423441 
L 627.232809 227.893234 
L 634.169167 233.081787 
L 640.872019 230.393903 
L 643.628938 232.783705 
L 651.465486 232.920402 
L 661.413185 237.503075 
L 664.368863 241.449809 
L 669.436263 245.121434 
L 674.135975 251.822229 
L 678.042705 255.520713 
L 670.15861 265.933365 
L 671.230815 272.565811 
L 677.615012 272.756799 
L 680.36713 271.94633 
L 682.903594 273.983433 
L 680.410905 278.032902 
L 688.848533 289.829328 
L 693.211873 293.90853 
L 730.581776 307.471962 
L 740.194931 307.402014 
L 707.897115 341.7064 
L 693.007513 342.2101 
L 682.821509 350.267467 
L 675.49449 350.478456 
L 672.368203 354.081253 
L 664.558593 354.079217 
L 659.948832 350.216834 
L 649.507492 354.997009 
L 646.129427 359.760041 
L 638.507362 358.860764 
L 635.977206 357.542596 
L 629.688388 357.742213 
L 615.22063 348.035573 
L 607.265505 348.035573 
L 603.360821 344.274095 
L 603.360821 337.859079 
L 597.423856 335.94157 
L 590.669146 323.503718 
L 585.449276 320.85378 
L 583.446593 316.283336 
L 577.653989 310.712694 
z
" clip-path="url(#p607bbf8044)" style="fill: #e8edf4; stroke: #b8c5d4; stroke-width: 0.45"/>
    <path d="M 532.063576 414.203194 
L 532.159259 405.58638 
L 534.807088 401.219205 
L 535.450293 392.044829 
L 537.854779 386.730861 
L 542.224908 380.77044 
L 546.615709 377.734858 
L 550.290066 373.676586 
L 545.70908 372.12882 
L 546.400631 358.764395 
L 551.106258 355.647236 
L 558.374187 358.203223 
L 567.574622 355.52814 
L 575.616216 355.554656 
L 582.645382 350.298384 
L 588.064469 358.23374 
L 594.429121 377.089734 
L 590.270027 385.420724 
L 581.371777 397.617487 
L 581.487698 409.730666 
L 545.669227 410.468442 
L 534.830123 415.369113 
z
" clip-path="url(#p607bbf8044)" style="fill: #e8edf4; stroke: #b8c5d4; stroke-width: 0.45"/>
    <path d="M 525.725442 431.32401 
L 526.783275 425.071519 
L 528.35319 424.190288 
L 528.776677 417.389094 
L 532.063576 414.203194 
L 534.830123 415.369113 
L 541.660258 411.841234 
L 546.198128 418.290407 
L 545.537204 425.014818 
L 542.238236 426.461849 
L 536.165555 425.714724 
L 532.666027 432.22237 
z
" clip-path="url(#p607bbf8044)" style="fill: #e8edf4; stroke: #b8c5d4; stroke-width: 0.45"/>
    <path d="M 467.001085 300.353078 
L 474.435263 296.949272 
L 477.37849 286.746085 
L 480.517932 281.448277 
L 488.758968 279.878556 
L 496.607573 289.689312 
L 499.747015 290.670388 
L 503.867533 288.708237 
L 512.108568 289.100667 
L 513.678289 291.455248 
L 525.058767 291.455248 
L 525.451197 289.100667 
L 531.337651 286.9423 
L 532.514941 283.606643 
L 536.831674 281.252062 
L 546.446216 287.923376 
L 552.332669 286.746085 
L 558.022908 278.50505 
L 564.301792 272.226166 
L 563.320717 265.358636 
L 560.573705 262.022979 
L 567.441234 261.434334 
L 568.226095 258.883537 
L 573.523903 259.668398 
L 572.150397 268.105648 
L 573.523903 276.346684 
L 579.410357 280.859631 
L 580.783863 284.783934 
L 580.587648 290.474173 
L 582.169831 290.700199 
L 582.302267 299.612098 
L 580.59378 303.102679 
L 574.528124 303.383617 
L 570.634995 309.893996 
L 577.653989 310.712694 
L 583.446593 316.283336 
L 585.449276 320.85378 
L 590.669146 323.503718 
L 597.423856 335.94157 
L 582.645382 350.298384 
L 575.616216 355.554656 
L 567.574622 355.52814 
L 558.374187 358.203223 
L 551.106258 355.647236 
L 546.400631 358.764395 
L 536.338612 351.169154 
L 533.624041 346.287533 
L 527.258738 348.705308 
L 521.973712 347.953131 
L 518.914208 349.872409 
L 513.782157 348.486477 
L 505.020637 335.427772 
L 496.477062 330.904373 
L 493.591206 324.047955 
L 488.827713 319.10225 
L 481.141153 313.150098 
L 481.036019 309.435282 
z
" clip-path="url(#p607bbf8044)" style="fill: #e8edf4; stroke: #b8c5d4; stroke-width: 0.45"/>
   </g>
   <g id="PathCollection_1">
    <defs>
     <path id="maabd582a4f" d="M 0 2.12132 
C 0.562581 2.12132 1.102195 1.897805 1.5 1.5 
C 1.897805 1.102195 2.12132 0.562581 2.12132 0 
C 2.12132 -0.562581 1.897805 -1.102195 1.5 -1.5 
C 1.102195 -1.897805 0.562581 -2.12132 0 -2.12132 
C -0.562581 -2.12132 -1.102195 -1.897805 -1.5 -1.5 
C -1.897805 -1.102195 -2.12132 -0.562581 -2.12132 0 
C -2.12132 0.562581 -1.897805 1.102195 -1.5 1.5 
C -1.102195 1.897805 -0.562581 2.12132 0 2.12132 
z
" style="stroke: #ffffff; stroke-width: 0.5"/>
    </defs>
    <g clip-path="url(#p607bbf8044)">
     <use xlink:href="#maabd582a4f" x="4.634607" y="244.954829" style="fill: #8aa0b7; stroke: #ffffff; stroke-width: 0.5"/>
     <use xlink:href="#maabd582a4f" x="308.279327" y="376.013529" style="fill: #8aa0b7; stroke: #ffffff; stroke-width: 0.5"/>
     <use xlink:href="#maabd582a4f" x="22.540883" y="261.718151" style="fill: #8aa0b7; stroke: #ffffff; stroke-width: 0.5"/>
     <use xlink:href="#maabd582a4f" x="536.870083" y="421.73168" style="fill: #8aa0b7; stroke: #ffffff; stroke-width: 0.5"/>
     <use xlink:href="#maabd582a4f" x="273.990714" y="387.443067" style="fill: #8aa0b7; stroke: #ffffff; stroke-width: 0.5"/>
     <use xlink:href="#maabd582a4f" x="207.31841" y="307.436302" style="fill: #8aa0b7; stroke: #ffffff; stroke-width: 0.5"/>
    </g>
   </g>
   <g id="PatchCollection_2">
    <defs>
     <path id="m313752af34" d="M 197.363051 -198.218324 
L 198.268794 -203.757916 
L 205.593883 -204.2068 
L 209.819896 -208.268616 
L 225.415095 -209.251142 
L 235.567567 -211.063809 
L 236.540938 -218.106278 
L 242.790476 -225.740566 
L 242.758582 -252.063223 
L 258.875904 -257.160131 
L 291.968155 -279.612929 
L 331.132753 -301.397716 
L 349.213355 -296.46973 
L 355.641856 -290.192433 
L 363.727444 -294.440346 
L 366.534397 -276.673916 
L 370.811014 -273.70145 
L 370.994894 -270.066452 
L 375.750709 -266.148456 
L 373.264714 -261.228739 
L 368.860919 -238.035577 
L 368.258469 -223.169815 
L 353.679395 -212.392495 
L 348.744389 -197.337093 
L 353.502566 -193.103106 
L 353.477169 -185.751143 
L 360.806983 -185.488014 
L 359.664099 -180.104351 
L 356.438036 -179.448743 
L 356.070069 -175.809824 
L 353.944363 -175.557326 
L 346.210553 -188.070282 
L 343.527876 -188.525073 
L 334.590937 -182.13644 
L 325.741412 -185.471476 
L 319.58992 -186.138306 
L 316.291798 -184.533543 
L 309.591604 -184.880248 
L 302.849474 -180.009554 
L 297.02047 -179.730182 
L 283.187735 -185.637741 
L 277.770996 -182.831916 
L 271.938448 -183.026826 
L 267.65219 -187.343502 
L 256.19559 -191.608497 
L 243.912097 -190.254756 
L 240.935874 -187.782937 
L 239.328158 -181.209729 
L 236.05189 -176.601279 
L 235.258073 -166.397716 
L 226.542623 -172.975058 
L 222.445369 -172.945526 
L 218.608586 -169.597792 
L 218.867285 -177.425514 
L 205.688976 -180.017823 
L 205.334003 -185.54885 
L 198.897823 -193.012148 
z
" style="stroke: #b45309; stroke-width: 1.15"/>
    </defs>
    <g clip-path="url(#p607bbf8044)">
     <use xlink:href="#m313752af34" x="0" y="432" style="fill: #f59e0b; stroke: #b45309; stroke-width: 1.15"/>
    </g>
   </g>
   <g id="PathCollection_2">
    <path d="M 285.420252 220.135215 
C 286.516924 220.135215 287.568826 219.699502 288.34429 218.924038 
C 289.119754 218.148574 289.555466 217.096672 289.555466 216 
C 289.555466 214.903328 289.119754 213.851426 288.34429 213.075962 
C 287.568826 212.300498 286.516924 211.864785 285.420252 211.864785 
C 284.32358 211.864785 283.271678 212.300498 282.496214 213.075962 
C 281.72075 213.851426 281.285037 214.903328 281.285037 216 
C 281.285037 217.096672 281.72075 218.148574 282.496214 218.924038 
C 283.271678 219.699502 284.32358 220.135215 285.420252 220.135215 
L 285.420252 220.135215 
z
" clip-path="url(#p607bbf8044)" style="fill: none; stroke: #7c2d12; stroke-width: 1.1"/>
   </g>
  </g>
 </g>
 <defs>
  <clipPath id="p607bbf8044">
   <rect x="0" y="0" width="570.840504" height="432"/>
  </clipPath>
 </defs>
</svg>
