<?xml version="1.0" encoding="utf-8" standalone="no"?>
<!DOCTYPE svg PUBLIC "-//W3C//DTD SVG 1.1//EN"
  "http://www.w3.org/Graphics/SVG/1.1/DTD/svg11.dtd">
<svg xmlns:xlink="http://www.w3.org/1999/xlink" width="576pt" height="384pt" viewBox="0 0 576 384" xmlns="http://www.w3.org/2000/svg" version="1.1">
 <metadata>
  <rdf:RDF xmlns:dc="http://purl.org/dc/elements/1.1/" xmlns:cc="http://creativecommons.org/ns#" xmlns:rdf="http://www.w3.org/1999/02/22-rdf-syntax-ns#">
   <cc:Work>
    <dc:type rdf:resource="http://purl.org/dc/dcmitype/StillImage"/>
    <dc:date>2026-06-09T04:57:04.658718</dc:date>
    <dc:format>image/svg+xml</dc:format>
    <dc:creator>
     <cc:Agent>
      <dc:title>Matplotlib v3.10.8, https://matplotlib.org/</dc:title>
     </cc:Agent>
    </dc:creator>
   </cc:Work>
  </rdf:RDF>
 </metadata>
 <defs>
  <style type="text/css">*{stroke-linejoin: round; stroke-linecap: butt}</style>
 </defs>
 <g id="figure_1">
  <g id="patch_1">
   <path d="M 0 384 
L 576 384 
L 576 0 
L 0 0 
z
" style="fill: #eaf3ff"/>
  </g>
  <g id="axes_1">
   <g id="PatchCollection_1">
    <path d="M 81.41591 13.717685 
L 82.005553 7.922602 
L 113.129766 6.848913 
L 114.777152 1.907111 
L 120.395413 -4.253665 
L 124.921915 -23.190981 
L 143.986797 -37.990166 
L 150.435307 -55.280451 
L 154.721557 -56.284686 
L 159.187819 -66.972672 
L 170.725542 -68.445361 
L 175.687897 -66.664385 
L 181.915291 -66.664385 
L 186.335486 -69.784815 
L 194.813019 -70.226692 
L 194.498354 -77.573841 
L 196.5862 -77.573841 
L 196.288544 -53.225914 
L 151.276541 -53.943124 
L 151.718064 -18.851578 
L 138.867819 -17.620557 
L 135.514225 -10.576734 
L 138.115173 9.228746 
L 84.408773 9.142992 
z
" clip-path="url(#pd91d51d885)" style="fill: #e8edf4; stroke: #b8c5d4; stroke-width: 0.45"/>
    <path d="M 482.50062 381.119047 
L 485.988868 379.670453 
L 486.418343 373.691815 
L 488.662104 370.166006 
L 493.652807 367.283701 
L 497.255865 368.680559 
L 501.946077 363.43047 
L 509.416541 363.565833 
L 510.295335 367.448121 
L 515.418566 369.877563 
L 534.943399 350.196106 
L 534.484158 338.912808 
L 540.440118 325.589856 
L 546.724208 318.525481 
L 555.753823 311.915386 
L 557.329984 307.540548 
L 557.67158 302.510866 
L 559.906836 297.75191 
L 559.188918 289.979538 
L 560.898315 277.826304 
L 563.578639 269.270105 
L 567.686295 261.936776 
L 569.732327 244.089803 
L 575.071714 237.126773 
L 582.415319 232.710476 
L 593.700743 237.371276 
L 602.435536 242.43037 
L 622.69884 246.457233 
L 626.799409 238.175303 
L 628.683148 237.118269 
L 634.93322 238.495637 
L 650.201569 231.650961 
L 655.611825 234.552047 
L 660.052573 234.140643 
L 662.109236 230.80583 
L 667.206245 229.630797 
L 686.318611 231.389449 
L 690.846529 229.934477 
L 699.153974 241.256045 
L 705.311915 242.919022 
L 708.983008 240.616084 
L 715.324504 241.51862 
L 722.962221 238.617535 
L 726.219431 244.474985 
L 738.292936 253.588581 
L 737.463042 269.624457 
L 742.959761 271.48162 
L 738.550904 276.351134 
L 733.282389 279.993525 
L 728.038678 287.145425 
L 725.153538 293.521648 
L 724.381758 304.529968 
L 721.204632 309.770135 
L 721.089822 320.109438 
L 717.145877 323.932194 
L 716.637735 332.092937 
L 714.753996 333.150325 
L 713.484705 340.65268 
L 716.933265 346.88787 
L 717.805681 363.428344 
L 720.274102 376.045425 
L 718.902757 383.177127 
L 721.646156 391.131636 
L 729.599956 398.811168 
L 737.005927 416.09153 
L 731.603466 414.696089 
L 713.182796 417.010721 
L 709.506742 418.649957 
L 705.598231 427.404594 
L 708.667634 433.452685 
L 704.533756 463.455727 
L 717.826942 471.233059 
L 721.590877 468.739125 
L 722.737562 483.52768 
L 712.241636 483.414287 
L 701.555776 470.022591 
L 691.046384 468.106251 
L 687.969186 460.919979 
L 679.585201 465.24946 
L 668.603103 463.336664 
L 664.019906 457.109979 
L 655.312043 455.84494 
L 648.884794 456.175905 
L 648.098131 451.913043 
L 637.121702 450.75927 
L 619.272249 453.734415 
L 620.005759 437.414348 
L 615.431066 432.325135 
L 614.424705 423.890833 
L 616.445224 415.623785 
L 613.665681 410.332591 
L 613.414091 401.703394 
L 596.773689 401.823165 
L 597.967858 396.882072 
L 590.97081 396.933807 
L 590.23163 399.310096 
L 581.725748 399.845877 
L 576.229738 411.267373 
L 568.651552 409.330481 
L 564.126468 411.259577 
L 555.057874 412.368701 
L 546.654046 400.762942 
L 539.335246 382.319594 
L 498.865335 382.138165 
L 484.42192 385.372697 
z
" clip-path="url(#pd91d51d885)" style="fill: #e8edf4; stroke: #b8c5d4; stroke-width: 0.45"/>
    <path d="M 501.125397 104.679309 
L 507.046903 86.614354 
L 524.540313 73.682663 
L 525.263192 55.845258 
L 530.5473 28.015816 
L 533.53024 22.112655 
L 527.823745 17.411458 
L 527.603109 13.049829 
L 522.471602 9.483171 
L 519.103543 -11.834743 
L 532.9488 -19.333303 
L 642.345051 33.182126 
L 643.020206 87.622766 
L 631.194377 86.664411 
L 624.931886 96.764023 
L 621.30528 105.232183 
L 624.164846 108.436389 
L 619.656549 112.64256 
L 621.21024 118.322469 
L 617.658377 124.039406 
L 616.276251 129.076389 
L 621.092709 128.282743 
L 623.96736 133.573851 
L 624.119177 141.540206 
L 629.159589 145.582491 
L 628.994269 148.904295 
L 620.312629 151.242669 
L 613.355268 156.794666 
L 603.44048 171.757917 
L 590.53283 178.111461 
L 577.289253 177.259242 
L 573.421848 178.520029 
L 574.779727 183.34773 
L 561.804749 193.496036 
L 544.539269 198.742937 
L 541.113388 195.63739 
L 538.841987 195.369499 
L 536.314035 198.89708 
L 524.975458 199.927892 
L 527.123544 196.212858 
L 520.868511 181.081999 
L 514.895542 178.753902 
L 506.800709 170.749784 
L 509.780106 164.278241 
L 516.030179 165.655964 
L 519.89971 164.679368 
L 527.559398 164.813668 
L 520.094604 152.34754 
L 520.596368 143.237842 
L 519.680366 134.138743 
L 514.227941 125.356851 
L 515.599286 118.897002 
L 506.804253 118.581274 
L 506.834727 109.759664 
z
" clip-path="url(#pd91d51d885)" style="fill: #e8edf4; stroke: #b8c5d4; stroke-width: 0.45"/>
    <path d="M 73.7137 99.709159 
L 79.7462 97.104312 
L 86.390313 87.476196 
L 89.64894 80.43379 
L 94.344822 76.036628 
L 101.16115 77.22052 
L 107.852746 74.231555 
L 115.510662 74.080956 
L 122.063706 78.112426 
L 131.167026 81.745604 
L 148.515425 101.254845 
L 149.144401 109.786594 
L 151.848466 117.640113 
L 156.981973 121.491927 
L 158.154526 126.795169 
L 157.52307 131.067599 
L 155.543301 131.841151 
L 148.065397 130.756832 
L 147.036356 132.281966 
L 144.013019 132.588481 
L 134.155637 129.245163 
L 102.192316 128.527953 
L 98.515553 130.072222 
L 93.974169 129.630699 
L 86.70923 131.864892 
L 84.459091 121.352312 
L 96.942227 121.641818 
L 107.778332 116.440983 
L 113.661295 119.33888 
L 119.62009 119.580548 
L 125.554788 116.502286 
L 122.784105 112.538497 
L 118.26221 114.847814 
L 114.006435 114.783676 
L 108.593343 111.408112 
L 104.245436 111.629228 
L 101.148393 114.876516 
L 86.211719 115.269139 
L 80.55625 104.591784 
z
" clip-path="url(#pd91d51d885)" style="fill: #e8edf4; stroke: #b8c5d4; stroke-width: 0.45"/>
    <path d="M 148.515425 101.254845 
L 153.130868 98.755241 
L 155.436641 90.676 
L 159.78384 90.359918 
L 169.360575 94.179485 
L 177.094677 91.467624 
L 182.396502 92.377956 
L 184.453873 89.328043 
L 239.482364 89.119683 
L 242.53334 79.517434 
L 240.157406 77.827172 
L 226.919498 -40.547529 
L 247.908516 -40.794159 
L 340.432835 19.051756 
L 343.693589 25.477942 
L 358.582779 31.630922 
L 358.740112 40.356148 
L 373.953181 39.013506 
L 373.991451 70.598023 
L 366.49264 79.758394 
L 365.324694 88.208642 
L 353.142757 90.383659 
L 334.430101 91.562591 
L 329.359314 96.436357 
L 311.777043 97.038048 
L 308.353996 94.40698 
L 300.804158 96.359108 
L 287.985804 102.047886 
L 285.369264 106.334845 
L 274.728762 112.48251 
L 272.863449 116.005484 
L 267.115849 118.797783 
L 260.483784 116.948771 
L 256.725874 120.295632 
L 254.713151 129.700861 
L 243.827082 141.067077 
L 244.143873 145.712286 
L 240.403681 151.525442 
L 241.311887 159.487038 
L 232.450944 163.249909 
L 230.328371 157.384309 
L 226.36848 158.930704 
L 224.002821 158.663168 
L 221.478767 162.665227 
L 210.887874 162.552189 
L 207.09134 160.493045 
L 205.30363 161.738949 
L 201.114827 157.785437 
L 201.841959 153.701522 
L 200.12831 152.10162 
L 197.207026 153.45064 
L 197.742099 148.988631 
L 200.553533 145.45857 
L 194.933499 139.71345 
L 193.299225 135.931089 
L 190.251792 132.918029 
L 187.506976 132.558361 
L 176.019925 139.28114 
L 170.150073 138.185481 
L 166.342908 134.703257 
L 164.07009 134.245788 
L 158.315402 136.089131 
L 157.52307 131.067599 
L 158.154526 126.795169 
L 156.981973 121.491927 
L 151.848466 117.640113 
L 149.144401 109.786594 
z
" clip-path="url(#pd91d51d885)" style="fill: #e8edf4; stroke: #b8c5d4; stroke-width: 0.45"/>
    <path d="M 81.41591 13.717685 
L 84.408773 9.142992 
L 138.115173 9.228746 
L 135.514225 -10.576734 
L 138.867819 -17.620557 
L 151.718064 -18.851578 
L 151.276541 -53.943124 
L 196.288544 -53.225914 
L 196.328231 -73.998777 
L 247.908516 -40.794159 
L 226.919498 -40.547529 
L 240.157406 77.827172 
L 242.53334 79.517434 
L 239.482364 89.119683 
L 184.453873 89.328043 
L 182.396502 92.377956 
L 177.094677 91.467624 
L 169.360575 94.179485 
L 159.78384 90.359918 
L 155.436641 90.676 
L 153.130868 98.755241 
L 148.515425 101.254845 
L 131.167026 81.745604 
L 122.063706 78.112426 
L 115.510662 74.080956 
L 107.852746 74.231555 
L 101.16115 77.22052 
L 94.344822 76.036628 
L 89.64894 80.43379 
L 88.46115 73.043765 
L 92.289576 66.281653 
L 93.99295 53.369396 
L 90.820785 32.999078 
L 92.189649 26.159717 
L 88.644705 19.64069 
z
" clip-path="url(#pd91d51d885)" style="fill: #e8edf4; stroke: #b8c5d4; stroke-width: 0.45"/>
    <path d="M 326.020603 158.11463 
L 327.765436 150.893631 
L 332.48187 149.341567 
L 335.275586 143.345565 
L 341.97923 142.064226 
L 349.579387 133.946714 
L 354.495676 133.911279 
L 364.953332 141.803422 
L 364.418968 146.359689 
L 367.503254 154.494918 
L 364.80096 160.015732 
L 366.246011 163.704544 
L 355.368801 176.39852 
L 352.783444 185.048977 
L 352.343338 215.879078 
L 341.009013 217.47898 
L 337.631323 208.017764 
L 338.255692 176.522189 
L 335.493159 173.696581 
L 334.972261 166.966006 
z
" clip-path="url(#pd91d51d885)" style="fill: #e8edf4; stroke: #b8c5d4; stroke-width: 0.45"/>
    <path d="M 319.483151 103.621921 
L 320.56995 96.974973 
L 329.359314 96.436357 
L 334.430101 91.562591 
L 353.142757 90.383659 
L 365.324694 88.208642 
L 366.49264 79.758394 
L 373.991451 70.598023 
L 373.953181 39.013506 
L 393.292333 32.897733 
L 432.999677 5.956653 
L 479.99322 -20.182881 
L 501.688109 -14.269798 
L 509.401658 -6.737677 
L 519.103543 -11.834743 
L 522.471602 9.483171 
L 527.603109 13.049829 
L 527.823745 17.411458 
L 533.53024 22.112655 
L 530.5473 28.015816 
L 525.263192 55.845258 
L 524.540313 73.682663 
L 507.046903 86.614354 
L 501.125397 104.679309 
L 506.834727 109.759664 
L 506.804253 118.581274 
L 515.599286 118.897002 
L 514.227941 125.356851 
L 510.356993 126.143514 
L 509.915469 130.509848 
L 507.364839 130.812819 
L 498.085051 115.798542 
L 494.866111 115.252839 
L 484.14269 122.91855 
L 473.524158 118.916846 
L 466.142992 118.116717 
L 462.185581 120.04227 
L 454.146027 119.62626 
L 446.056156 125.470598 
L 439.061942 125.805816 
L 422.464063 118.717345 
L 415.964526 122.08405 
L 408.966061 121.850177 
L 403.822986 116.670604 
L 390.076228 111.553043 
L 375.337283 113.177395 
L 371.766117 116.143327 
L 369.837021 124.030509 
L 365.905832 129.560183 
L 364.953332 141.803422 
L 354.495676 133.911279 
L 349.579387 133.946714 
L 344.975637 137.963656 
L 345.28605 128.571184 
L 329.473416 125.460677 
L 329.047484 118.824005 
L 321.324721 109.868804 
z
" clip-path="url(#pd91d51d885)" style="fill: #e8edf4; stroke: #b8c5d4; stroke-width: 0.45"/>
    <path d="M 352.343338 215.879078 
L 352.783444 185.048977 
L 355.368801 176.39852 
L 366.246011 163.704544 
L 364.80096 160.015732 
L 367.503254 154.494918 
L 364.418968 146.359689 
L 365.905832 129.560183 
L 369.837021 124.030509 
L 371.766117 116.143327 
L 375.337283 113.177395 
L 390.076228 111.553043 
L 403.822986 116.670604 
L 408.966061 121.850177 
L 415.964526 122.08405 
L 422.464063 118.717345 
L 439.061942 125.805816 
L 446.056156 125.470598 
L 454.146027 119.62626 
L 462.185581 120.04227 
L 466.142992 118.116717 
L 473.524158 118.916846 
L 484.14269 122.91855 
L 494.866111 115.252839 
L 498.085051 115.798542 
L 507.364839 130.812819 
L 509.915469 130.509848 
L 515.344152 135.972194 
L 513.125196 143.007512 
L 501.571881 153.619666 
L 496.012796 169.499982 
L 493.103561 172.556274 
L 490.336066 182.156396 
L 483.001675 187.805841 
L 480.876976 194.745484 
L 477.796234 200.269134 
L 476.513477 205.969605 
L 467.091948 210.590718 
L 459.392573 204.955093 
L 454.193511 205.182588 
L 446.025681 213.209385 
L 442.054805 213.332699 
L 432.003946 236.269948 
L 417.766055 241.205372 
L 412.561323 240.484265 
L 407.287846 243.557565 
L 396.317796 243.257783 
L 388.975609 234.679259 
L 384.460447 224.752423 
L 374.751184 215.716784 
z
" clip-path="url(#pd91d51d885)" style="fill: #e8edf4; stroke: #b8c5d4; stroke-width: 0.45"/>
    <path d="M 431.846613 240.060105 
L 432.003946 236.269948 
L 435.531881 226.564583 
L 442.054805 213.332699 
L 446.025681 213.209385 
L 454.193511 205.182588 
L 459.392573 204.955093 
L 467.091948 210.590718 
L 476.513477 205.969605 
L 477.796234 200.269134 
L 480.876976 194.745484 
L 483.001675 187.805841 
L 490.336066 182.156396 
L 493.103561 172.556274 
L 496.012796 169.499982 
L 501.571881 153.619666 
L 513.125196 143.007512 
L 515.344152 135.972194 
L 509.915469 130.509848 
L 510.356993 126.143514 
L 514.227941 125.356851 
L 519.680366 134.138743 
L 520.596368 143.237842 
L 520.094604 152.34754 
L 527.559398 164.813668 
L 519.89971 164.679368 
L 516.030179 165.655964 
L 509.780106 164.278241 
L 506.800709 170.749784 
L 514.895542 178.753902 
L 520.868511 181.081999 
L 527.123544 196.212858 
L 518.078338 213.826313 
L 514.78711 216.315995 
L 513.729013 226.947284 
L 515.093979 232.723232 
L 513.989108 236.809982 
L 520.470218 243.971804 
L 521.639582 248.895534 
L 526.702573 255.97302 
L 532.974615 260.385774 
L 535.033404 270.615227 
L 534.046887 278.02049 
L 512.061429 271.160576 
L 493.046864 269.874985 
L 484.928644 271.641433 
L 476.594269 269.804468 
L 470.077015 270.705587 
L 447.759883 270.392694 
L 449.762685 259.564739 
L 444.402746 250.497917 
L 438.145586 248.171946 
L 435.358957 242.026762 
z
" clip-path="url(#pd91d51d885)" style="fill: #e8edf4; stroke: #b8c5d4; stroke-width: 0.45"/>
    <path d="M 314.74581 154.876555 
L 315.755006 150.600936 
L 327.765436 150.893631 
L 326.020603 158.11463 
L 334.972261 166.966006 
L 335.493159 173.696581 
L 338.255692 176.522189 
L 337.631323 208.017764 
L 341.009013 217.47898 
L 329.967383 220.404516 
L 323.250983 206.888796 
L 322.161702 200.067507 
L 325.193544 187.714773 
L 321.753488 182.712376 
L 320.469668 161.949081 
z
" clip-path="url(#pd91d51d885)" style="fill: #e8edf4; stroke: #b8c5d4; stroke-width: 0.45"/>
    <path d="M 270.934353 215.993534 
L 274.510835 200.506904 
L 280.289973 188.987962 
L 274.780851 159.149694 
L 275.102958 151.368818 
L 298.92538 150.722479 
L 304.984102 151.722108 
L 309.412093 149.508467 
L 315.755006 150.600936 
L 314.74581 154.876555 
L 320.469668 161.949081 
L 321.753488 182.712376 
L 325.193544 187.714773 
L 322.161702 200.067507 
L 323.250983 206.888796 
L 329.967383 220.404516 
L 308.46668 228.432376 
L 300.841719 233.135344 
L 288.484024 237.113662 
L 276.258856 233.218617 
L 276.881809 227.807298 
z
" clip-path="url(#pd91d51d885)" style="fill: #e8edf4; stroke: #b8c5d4; stroke-width: 0.45"/>
    <path d="M 197.446214 213.016262 
L 200.428092 206.923877 
L 199.056747 200.294293 
L 199.689621 196.305699 
L 201.864638 196.290107 
L 202.672562 190.308634 
L 201.613047 187.660202 
L 202.923444 185.753785 
L 208.016909 184.104627 
L 204.629297 173.126073 
L 201.468117 167.457847 
L 202.569091 162.802007 
L 207.09134 160.493045 
L 210.887874 162.552189 
L 221.478767 162.665227 
L 224.002821 158.663168 
L 226.36848 158.930704 
L 230.328371 157.384309 
L 232.450944 163.249909 
L 241.311887 159.487038 
L 247.479041 162.477066 
L 249.875882 167.01278 
L 256.042327 169.90855 
L 260.839554 166.459281 
L 267.265386 165.938383 
L 276.651479 169.474823 
L 280.289973 188.987962 
L 274.510835 200.506904 
L 270.934353 215.993534 
L 276.881809 227.807298 
L 276.258856 233.218617 
L 270.019415 233.358232 
L 260.450475 230.676846 
L 251.658276 230.835241 
L 235.412623 233.229248 
L 212.311663 242.217758 
L 209.661814 241.857381 
L 210.71495 230.56239 
L 212.026764 228.845551 
L 211.609336 223.442027 
L 205.800787 217.69797 
L 201.444375 216.78126 
z
" clip-path="url(#pd91d51d885)" style="fill: #e8edf4; stroke: #b8c5d4; stroke-width: 0.45"/>
    <path d="M 107.92716 150.302925 
L 114.024861 143.618416 
L 118.187088 143.872842 
L 121.763569 141.570967 
L 124.789032 141.548997 
L 126.950938 139.731168 
L 125.7837 135.186594 
L 127.285801 133.752884 
L 127.536329 129.103776 
L 134.155637 129.245163 
L 144.013019 132.588481 
L 147.036356 132.281966 
L 148.065397 130.756832 
L 155.543301 131.841151 
L 157.52307 131.067599 
L 158.315402 136.089131 
L 164.07009 134.245788 
L 166.342908 134.703257 
L 170.150073 138.185481 
L 176.019925 139.28114 
L 187.506976 132.558361 
L 190.251792 132.918029 
L 193.299225 135.931089 
L 194.933499 139.71345 
L 200.553533 145.45857 
L 197.742099 148.988631 
L 197.207026 153.45064 
L 200.12831 152.10162 
L 201.841959 153.701522 
L 201.114827 157.785437 
L 205.30363 161.738949 
L 202.569091 162.802007 
L 201.468117 167.457847 
L 204.629297 173.126073 
L 208.016909 184.104627 
L 202.923444 185.753785 
L 201.613047 187.660202 
L 202.672562 190.308634 
L 201.864638 196.290107 
L 195.810877 195.954181 
L 193.013971 201.476059 
L 189.136644 201.409086 
L 186.468368 198.488157 
L 187.374448 192.980099 
L 181.641022 184.579814 
L 171.353455 187.215135 
L 171.506535 182.186871 
L 169.306005 178.598696 
L 169.750009 174.611519 
L 162.960257 163.942314 
L 151.991624 163.927077 
L 148.795363 166.511017 
L 145.015838 166.822847 
L 141.093153 173.585668 
L 133.761596 179.615333 
L 122.413098 166.132568 
L 115.478416 161.630163 
L 113.92139 155.570732 
L 111.914691 152.549876 
z
" clip-path="url(#pd91d51d885)" style="fill: #e8edf4; stroke: #b8c5d4; stroke-width: 0.45"/>
    <path d="M 86.70923 131.864892 
L 93.974169 129.630699 
L 98.515553 130.072222 
L 102.192316 128.527953 
L 127.536329 129.103776 
L 127.285801 133.752884 
L 125.7837 135.186594 
L 126.950938 139.731168 
L 124.789032 141.548997 
L 121.763569 141.570967 
L 118.187088 143.872842 
L 114.024861 143.618416 
L 107.92716 150.302925 
L 100.605525 144.569499 
L 94.831348 143.662711 
L 91.682925 139.796368 
L 91.763008 137.709231 
L 87.581647 134.798933 
z
" clip-path="url(#pd91d51d885)" style="fill: #e8edf4; stroke: #b8c5d4; stroke-width: 0.45"/>
    <path d="M 158.553882 208.650283 
L 161.83129 204.262688 
L 162.559484 200.27374 
L 175.130146 186.429181 
L 181.641022 184.579814 
L 187.374448 192.980099 
L 186.468368 198.488157 
L 189.136644 201.409086 
L 193.013971 201.476059 
L 195.810877 195.954181 
L 199.689621 196.305699 
L 199.056747 200.294293 
L 200.428092 206.923877 
L 197.446214 213.016262 
L 201.444375 216.78126 
L 205.800787 217.69797 
L 211.609336 223.442027 
L 212.026764 228.845551 
L 210.71495 230.56239 
L 209.661814 241.857381 
L 206.069387 241.978216 
L 191.934258 235.441117 
L 179.473092 225.002596 
L 167.789021 217.498824 
z
" clip-path="url(#pd91d51d885)" style="fill: #e8edf4; stroke: #b8c5d4; stroke-width: 0.45"/>
    <path d="M 133.761596 179.615333 
L 141.093153 173.585668 
L 145.015838 166.822847 
L 148.795363 166.511017 
L 151.991624 163.927077 
L 162.960257 163.942314 
L 169.750009 174.611519 
L 169.306005 178.598696 
L 171.506535 182.186871 
L 171.353455 187.215135 
L 175.130146 186.429181 
L 162.559484 200.27374 
L 161.83129 204.262688 
L 158.553882 208.650283 
L 154.859046 207.632937 
L 144.986072 202.108224 
L 137.841613 194.76143 
L 135.441937 189.751592 
z
" clip-path="url(#pd91d51d885)" style="fill: #e8edf4; stroke: #b8c5d4; stroke-width: 0.45"/>
    <path d="M 240.403681 151.525442 
L 244.143873 145.712286 
L 243.827082 141.067077 
L 254.713151 129.700861 
L 256.725874 120.295632 
L 260.483784 116.948771 
L 267.115849 118.797783 
L 272.863449 116.005484 
L 274.728762 112.48251 
L 285.369264 106.334845 
L 287.985804 102.047886 
L 300.804158 96.359108 
L 308.353996 94.40698 
L 311.777043 97.038048 
L 320.56995 96.974973 
L 319.483151 103.621921 
L 321.324721 109.868804 
L 329.047484 118.824005 
L 329.473416 125.460677 
L 345.28605 128.571184 
L 344.975637 137.963656 
L 341.97923 142.064226 
L 335.275586 143.345565 
L 332.48187 149.341567 
L 327.765436 150.893631 
L 309.412093 149.508467 
L 304.984102 151.722108 
L 298.92538 150.722479 
L 275.102958 151.368818 
L 274.780851 159.149694 
L 276.651479 169.474823 
L 267.265386 165.938383 
L 260.839554 166.459281 
L 256.042327 169.90855 
L 249.875882 167.01278 
L 247.479041 162.477066 
L 241.311887 159.487038 
z
" clip-path="url(#pd91d51d885)" style="fill: #e8edf4; stroke: #b8c5d4; stroke-width: 0.45"/>
    <path d="M 513.729013 226.947284 
L 514.78711 216.315995 
L 518.078338 213.826313 
L 524.975458 199.927892 
L 536.314035 198.89708 
L 538.841987 195.369499 
L 541.113388 195.63739 
L 544.539269 198.742937 
L 561.804749 193.496036 
L 574.779727 183.34773 
L 573.421848 178.520029 
L 577.289253 177.259242 
L 590.53283 178.111461 
L 603.44048 171.757917 
L 613.355268 156.794666 
L 620.312629 151.242669 
L 628.994269 148.904295 
L 630.549169 154.773084 
L 638.459029 163.347356 
L 638.499426 168.943294 
L 636.271256 174.650498 
L 637.152177 178.912652 
L 659.861931 194.398573 
L 659.988081 198.855975 
L 669.211172 205.997953 
L 674.926881 211.932298 
L 678.389615 220.159304 
L 688.641038 225.586924 
L 690.846529 229.934477 
L 686.318611 231.389449 
L 667.206245 229.630797 
L 662.109236 230.80583 
L 660.052573 234.140643 
L 655.611825 234.552047 
L 650.201569 231.650961 
L 634.93322 238.495637 
L 628.683148 237.118269 
L 626.799409 238.175303 
L 622.69884 246.457233 
L 602.435536 242.43037 
L 593.700743 237.371276 
L 582.415319 232.710476 
L 575.071714 237.126773 
L 569.732327 244.089803 
L 568.49918 253.654136 
L 559.678633 252.888735 
L 550.396011 250.584733 
L 542.222512 257.852507 
L 535.033404 270.615227 
L 532.974615 260.385774 
L 526.702573 255.97302 
L 521.639582 248.895534 
L 520.470218 243.971804 
L 513.989108 236.809982 
L 515.093979 232.723232 
z
" clip-path="url(#pd91d51d885)" style="fill: #e8edf4; stroke: #b8c5d4; stroke-width: 0.45"/>
    <path d="M 467.571742 356.28105 
L 478.013098 348.711368 
L 472.841675 339.642775 
L 477.544643 336.194214 
L 486.798209 334.514583 
L 487.889615 328.436726 
L 495.217629 335.022725 
L 507.324442 335.599611 
L 511.532026 329.119209 
L 513.263393 320.001006 
L 511.768025 309.293177 
L 505.279827 301.182752 
L 511.217361 285.299248 
L 507.794314 282.573567 
L 497.590374 283.691196 
L 493.756987 276.604851 
L 494.754136 270.622669 
L 512.061429 271.160576 
L 534.046887 278.02049 
L 535.033404 270.615227 
L 542.222512 257.852507 
L 550.396011 250.584733 
L 559.678633 252.888735 
L 568.49918 253.654136 
L 567.686295 261.936776 
L 563.578639 269.270105 
L 560.898315 277.826304 
L 559.188918 289.979538 
L 559.906836 297.75191 
L 557.67158 302.510866 
L 557.329984 307.540548 
L 555.753823 311.915386 
L 546.724208 318.525481 
L 540.440118 325.589856 
L 534.484158 338.912808 
L 534.943399 350.196106 
L 515.418566 369.877563 
L 510.295335 367.448121 
L 509.416541 363.565833 
L 501.946077 363.43047 
L 497.255865 368.680559 
L 493.652807 367.283701 
L 488.513276 362.578606 
L 484.369476 364.885442 
L 478.833778 370.806675 
z
" clip-path="url(#pd91d51d885)" style="fill: #e8edf4; stroke: #b8c5d4; stroke-width: 0.45"/>
    <path d="M 436.086797 316.95499 
L 436.526903 312.398723 
L 439.521184 308.013963 
L 445.616758 287.861218 
L 470.195369 287.209209 
L 470.077015 270.705587 
L 476.594269 269.804468 
L 484.928644 271.641433 
L 493.046864 269.874985 
L 494.754136 270.622669 
L 493.756987 276.604851 
L 497.590374 283.691196 
L 507.794314 282.573567 
L 511.217361 285.299248 
L 505.279827 301.182752 
L 511.768025 309.293177 
L 513.263393 320.001006 
L 511.532026 329.119209 
L 507.324442 335.599611 
L 495.217629 335.022725 
L 487.889615 328.436726 
L 486.798209 334.514583 
L 477.544643 336.194214 
L 472.841675 339.642775 
L 478.013098 348.711368 
L 467.571742 356.28105 
L 453.478427 342.438617 
L 444.414794 331.12201 
z
" clip-path="url(#pd91d51d885)" style="fill: #e8edf4; stroke: #b8c5d4; stroke-width: 0.45"/>
    <path d="M 443.04841 285.793216 
L 447.759883 270.392694 
L 470.077015 270.705587 
L 470.195369 287.209209 
L 445.616758 287.861218 
z
" clip-path="url(#pd91d51d885)" style="fill: #e8edf4; stroke: #b8c5d4; stroke-width: 0.45"/>
    <path d="M 475.064175 530.374521 
L 476.962796 518.315191 
L 481.694822 505.759767 
L 482.408488 499.873969 
L 486.858449 487.511313 
L 490.127707 481.891279 
L 502.405319 466.815699 
L 503.845408 456.656408 
L 503.127489 448.883327 
L 499.026211 443.980504 
L 492.005067 427.432233 
L 492.741412 424.581821 
L 496.956792 419.144633 
L 489.988092 396.714817 
L 483.117902 388.038137 
L 484.42192 385.372697 
L 498.865335 382.138165 
L 539.335246 382.319594 
L 546.654046 400.762942 
L 555.057874 412.368701 
L 564.126468 411.259577 
L 568.651552 409.330481 
L 576.229738 411.267373 
L 581.725748 399.845877 
L 590.23163 399.310096 
L 590.97081 396.933807 
L 597.967858 396.882072 
L 596.773689 401.823165 
L 613.414091 401.703394 
L 613.665681 410.332591 
L 616.445224 415.623785 
L 614.424705 423.890833 
L 615.431066 432.325135 
L 620.005759 437.414348 
L 619.272249 453.734415 
L 637.121702 450.75927 
L 643.367523 451.567903 
L 644.816825 455.825805 
L 643.256965 462.477005 
L 645.667272 468.909214 
L 643.624074 474.045911 
L 644.792729 478.780063 
L 616.236156 478.607139 
L 615.604699 522.244254 
L 624.856848 533.464477 
L 633.806379 542.031307 
L 608.601273 547.620158 
L 575.399136 545.679014 
L 565.896814 539.107898 
L 510.304548 539.699666 
L 508.230877 540.663506 
L 500.055252 534.462334 
L 491.164543 534.052702 
L 476.354727 538.997339 
z
" clip-path="url(#pd91d51d885)" style="fill: #e8edf4; stroke: #b8c5d4; stroke-width: 0.45"/>
    <path d="M 478.833778 370.806675 
L 484.369476 364.885442 
L 488.513276 362.578606 
L 493.652807 367.283701 
L 488.662104 370.166006 
L 486.418343 373.691815 
L 485.988868 379.670453 
L 482.50062 381.119047 
z
" clip-path="url(#pd91d51d885)" style="fill: #e8edf4; stroke: #b8c5d4; stroke-width: 0.45"/>
    <path d="M 84.459091 121.352312 
L 86.211719 115.269139 
L 101.148393 114.876516 
L 104.245436 111.629228 
L 108.593343 111.408112 
L 114.006435 114.783676 
L 118.26221 114.847814 
L 122.784105 112.538497 
L 125.554788 116.502286 
L 119.62009 119.580548 
L 113.661295 119.33888 
L 107.778332 116.440983 
L 96.942227 121.641818 
z
" clip-path="url(#pd91d51d885)" style="fill: #e8edf4; stroke: #b8c5d4; stroke-width: 0.45"/>
    <path d="M 196.328231 -73.998777 
L 196.469264 -93.823392 
L 218.616306 -103.943704 
L 232.311329 -106.034739 
L 243.536513 -109.720361 
L 248.781995 -116.587716 
L 264.816809 -122.015336 
L 265.405743 -132.168604 
L 273.339699 -133.364544 
L 279.543706 -138.436748 
L 297.491669 -140.748191 
L 300.006156 -146.078009 
L 296.392467 -148.992206 
L 291.65548 -163.470347 
L 290.839052 -171.811455 
L 285.669755 -180.595149 
L 298.853446 -188.089354 
L 313.680625 -190.473085 
L 322.338879 -196.131743 
L 335.546312 -200.306017 
L 381.473254 -203.863364 
L 388.390218 -201.826544 
L 401.304956 -207.23184 
L 415.959565 -207.337792 
L 421.537076 -204.146846 
L 430.916083 -204.979575 
L 428.130162 -197.940713 
L 430.30447 -184.866871 
L 427.076317 -173.556288 
L 418.621463 -165.906876 
L 419.830514 -155.576433 
L 431.046485 -147.405769 
L 431.164839 -144.086193 
L 439.619694 -138.551204 
L 445.469348 -113.932197 
L 449.905843 -101.823612 
L 450.651401 -95.451288 
L 448.236133 -84.262956 
L 449.226903 -78.010403 
L 447.484197 -70.504505 
L 448.680492 -61.881687 
L 443.237634 -56.150741 
L 451.346641 -46.154806 
L 451.86187 -40.278221 
L 456.738471 -32.630582 
L 463.150129 -35.143297 
L 473.974894 -28.771327 
L 479.99322 -20.182881 
L 432.999677 5.956653 
L 393.292333 32.897733 
L 373.953181 39.013506 
L 358.740112 40.356148 
L 358.582779 31.630922 
L 343.693589 25.477942 
L 340.432835 19.051756 
z
" clip-path="url(#pd91d51d885)" style="fill: #e8edf4; stroke: #b8c5d4; stroke-width: 0.45"/>
    <path d="M 82.005553 7.922602 
L 82.652601 1.566932 
L 87.920408 -2.170071 
L 92.40793 -9.316656 
L 91.523466 -13.957967 
L 96.238483 -23.63463 
L 103.871948 -32.353832 
L 108.489163 -34.563576 
L 112.119152 -42.562733 
L 112.444448 -49.868777 
L 117.395109 -58.34631 
L 126.530676 -63.344809 
L 135.223656 -77.350599 
L 142.37024 -82.809402 
L 155.123393 -84.324259 
L 165.929733 -93.697951 
L 172.805592 -97.352036 
L 184.254018 -108.803297 
L 180.826719 -125.866087 
L 186.037121 -137.665322 
L 187.876211 -144.88703 
L 196.697467 -154.151935 
L 220.627966 -166.086533 
L 234.102936 -188.708408 
L 244.198444 -188.642499 
L 252.4662 -182.821193 
L 265.507796 -183.769441 
L 279.712378 -180.741851 
L 285.669755 -180.595149 
L 290.839052 -171.811455 
L 291.65548 -163.470347 
L 296.392467 -148.992206 
L 300.006156 -146.078009 
L 297.491669 -140.748191 
L 279.543706 -138.436748 
L 273.339699 -133.364544 
L 265.405743 -132.168604 
L 264.816809 -122.015336 
L 248.781995 -116.587716 
L 243.536513 -109.720361 
L 232.311329 -106.034739 
L 218.616306 -103.943704 
L 196.469264 -93.823392 
L 196.5862 -77.573841 
L 194.498354 -77.573841 
L 194.813019 -70.226692 
L 186.335486 -69.784815 
L 181.915291 -66.664385 
L 175.687897 -66.664385 
L 170.725542 -68.445361 
L 159.187819 -66.972672 
L 154.721557 -56.284686 
L 150.435307 -55.280451 
L 143.986797 -37.990166 
L 124.921915 -23.190981 
L 120.395413 -4.253665 
L 114.777152 1.907111 
L 113.129766 6.848913 
z
" clip-path="url(#pd91d51d885)" style="fill: #e8edf4; stroke: #b8c5d4; stroke-width: 0.45"/>
    <path d="M 443.237634 -56.150741 
L 448.680492 -61.881687 
L 447.484197 -70.504505 
L 449.226903 -78.010403 
L 448.236133 -84.262956 
L 450.651401 -95.451288 
L 449.905843 -101.823612 
L 445.469348 -113.932197 
L 452.160235 -117.110741 
L 453.347316 -122.905116 
L 451.888801 -128.586098 
L 461.306077 -133.870914 
L 465.528544 -138.264887 
L 472.213762 -142.2021 
L 472.989085 -152.735942 
L 489.096823 -148.015269 
L 494.856137 -149.195246 
L 506.313326 -146.90688 
L 524.511497 -140.77824 
L 530.934034 -128.588709 
L 562.574949 -120.186103 
L 577.185051 -113.367634 
L 583.872549 -116.925531 
L 590.445943 -123.23328 
L 587.25024 -133.738834 
L 591.551589 -140.4096 
L 601.433417 -146.836114 
L 610.875154 -148.706743 
L 629.427566 -145.900526 
L 634.104686 -139.769006 
L 639.210926 -139.710994 
L 643.577143 -137.371474 
L 657.204206 -135.762651 
L 660.546103 -131.234057 
L 655.582217 -124.65312 
L 657.704503 -118.787657 
L 654.172389 -110.32032 
L 658.285714 -99.272976 
L 658.285714 27.38688 
L 642.514286 27.428571 
L 642.345051 33.182126 
L 532.9488 -19.333303 
L 509.401658 -6.737677 
L 501.688109 -14.269798 
L 479.99322 -20.182881 
L 473.974894 -28.771327 
L 463.150129 -35.143297 
L 456.738471 -32.630582 
L 451.86187 -40.278221 
L 451.346641 -46.154806 
z
" clip-path="url(#pd91d51d885)" style="fill: #e8edf4; stroke: #b8c5d4; stroke-width: 0.45"/>
   </g>
   <g id="PathCollection_1">
    <defs>
     <path id="m28f1c0d86d" d="M 0 2.12132 
C 0.562581 2.12132 1.102195 1.897805 1.5 1.5 
C 1.897805 1.102195 2.12132 0.562581 2.12132 0 
C 2.12132 -0.562581 1.897805 -1.102195 1.5 -1.5 
C 1.102195 -1.897805 0.562581 -2.12132 0 -2.12132 
C -0.562581 -2.12132 -1.102195 -1.897805 -1.5 -1.5 
C -1.897805 -1.102195 -2.12132 -0.562581 -2.12132 0 
C -2.12132 0.562581 -1.897805 1.102195 -1.5 1.5 
C -1.102195 1.897805 -0.562581 2.12132 0 2.12132 
z
" style="stroke: #ffffff; stroke-width: 0.5"/>
    </defs>
    <g clip-path="url(#pd91d51d885)">
     <use xlink:href="#m28f1c0d86d" x="88.228572" y="117.028572" style="fill: #8aa0b7; stroke: #ffffff; stroke-width: 0.5"/>
     <use xlink:href="#m28f1c0d86d" x="452.571429" y="274.285714" style="fill: #8aa0b7; stroke: #ffffff; stroke-width: 0.5"/>
     <use xlink:href="#m28f1c0d86d" x="109.714286" y="137.142857" style="fill: #8aa0b7; stroke: #ffffff; stroke-width: 0.5"/>
     <use xlink:href="#m28f1c0d86d" x="411.428571" y="288" style="fill: #8aa0b7; stroke: #ffffff; stroke-width: 0.5"/>
     <use xlink:href="#m28f1c0d86d" x="331.428571" y="192" style="fill: #8aa0b7; stroke: #ffffff; stroke-width: 0.5"/>
    </g>
   </g>
   <g id="PatchCollection_2">
    <defs>
     <path id="m7298d2ee86" d="M 270.934353 -168.006466 
L 274.510835 -183.493096 
L 280.289973 -195.012038 
L 274.780851 -224.850306 
L 275.102958 -232.631182 
L 298.92538 -233.277521 
L 304.984102 -232.277892 
L 309.412093 -234.491533 
L 315.755006 -233.399064 
L 314.74581 -229.123445 
L 320.469668 -222.050919 
L 321.753488 -201.287624 
L 325.193544 -196.285227 
L 322.161702 -183.932493 
L 323.250983 -177.111204 
L 329.967383 -163.595484 
L 308.46668 -155.567624 
L 300.841719 -150.864656 
L 288.484024 -146.886338 
L 276.258856 -150.781383 
L 276.881809 -156.192702 
z
" style="stroke: #b45309; stroke-width: 1.15"/>
    </defs>
    <g clip-path="url(#pd91d51d885)">
     <use xlink:href="#m7298d2ee86" x="0" y="384" style="fill: #f59e0b; stroke: #b45309; stroke-width: 1.15"/>
    </g>
   </g>
   <g id="PathCollection_2">
    <defs>
     <path id="m75554684f1" d="M 0 3.316625 
C 0.879579 3.316625 1.723251 2.967164 2.345208 2.345208 
C 2.967164 1.723251 3.316625 0.879579 3.316625 0 
C 3.316625 -0.879579 2.967164 -1.723251 2.345208 -2.345208 
C 1.723251 -2.967164 0.879579 -3.316625 0 -3.316625 
C -0.879579 -3.316625 -1.723251 -2.967164 -2.345208 -2.345208 
C -2.967164 -1.723251 -3.316625 -0.879579 -3.316625 0 
C -3.316625 0.879579 -2.967164 1.723251 -2.345208 2.345208 
C -1.723251 2.967164 -0.879579 3.316625 0 3.316625 
z
" style="stroke: #ffffff"/>
    </defs>
    <g clip-path="url(#pd91d51d885)">
     <use xlink:href="#m75554684f1" x="288" y="192" style="fill: #f97316; stroke: #ffffff"/>
    </g>
   </g>
   <g id="PathCollection_3">
    <path d="M 288 196.449719 
C 289.180079 196.449719 290.311984 195.980869 291.146427 195.146427 
C 291.980869 194.311984 292.449719 193.180079 292.449719 192 
C 292.449719 190.819921 291.980869 189.688016 291.146427 188.853573 
C 290.311984 188.019131 289.180079 187.550281 288 187.550281 
C 286.819921 187.550281 285.688016 188.019131 284.853573 188.853573 
C 284.019131 189.688016 283.550281 190.819921 283.550281 192 
C 283.550281 193.180079 284.019131 194.311984 284.853573 195.146427 
C 285.688016 195.980869 286.819921 196.449719 288 196.449719 
L 288 196.449719 
z
" clip-path="url(#pd91d51d885)" style="fill: none; stroke: #7c2d12; stroke-width: 1.1"/>
   </g>
  </g>
 </g>
 <defs>
  <clipPath id="pd91d51d885">
   <rect x="0" y="-0" width="576" height="384"/>
  </clipPath>
 </defs>
</svg>
