<?xml version="1.0" encoding="utf-8" standalone="no"?>
<!DOCTYPE svg PUBLIC "-//W3C//DTD SVG 1.1//EN"
  "http://www.w3.org/Graphics/SVG/1.1/DTD/svg11.dtd">
<svg xmlns:xlink="http://www.w3.org/1999/xlink" width="408.6pt" height="432pt" viewBox="0 0 408.6 432" xmlns="http://www.w3.org/2000/svg" version="1.1">
 <metadata>
  <rdf:RDF xmlns:dc="http://purl.org/dc/elements/1.1/" xmlns:cc="http://creativecommons.org/ns#" xmlns:rdf="http://www.w3.org/1999/02/22-rdf-syntax-ns#">
   <cc:Work>
    <dc:type rdf:resource="http://purl.org/dc/dcmitype/StillImage"/>
    <dc:date>2026-06-09T04:57:13.468912</dc:date>
    <dc:format>image/svg+xml</dc:format>
    <dc:creator>
     <cc:Agent>
      <dc:title>Matplotlib v3.10.8, https://matplotlib.org/</dc:title>
     </cc:Agent>
    </dc:creator>
   </cc:Work>
  </rdf:RDF>
 </metadata>
 <defs>
  <style type="text/css">*{stroke-linejoin: round; stroke-linecap: butt}</style>
 </defs>
 <g id="figure_1">
  <g id="patch_1">
   <path d="M 0 432 
L 408.6 432 
L 408.6 0 
L 0 0 
z
" style="fill: #eaf3ff"/>
  </g>
  <g id="axes_1">
   <g id="PatchCollection_1">
    <path d="M 389.052288 188.81748 
L 391.830264 186.344208 
L 395.104104 187.234632 
L 396.88992 186.047424 
L 399.370032 188.124912 
L 398.179512 191.884248 
L 393.715152 192.873528 
L 389.746512 191.983104 
z
" clip-path="url(#p647d059906)" style="fill: #e8edf4; stroke: #b8c5d4; stroke-width: 0.45"/>
    <path d="M 398.497238 181.00188 
L 404.377267 179.129191 
L 408.6 176.883355 
L 408.6 180.397559 
L 399.420427 183.6867 
z
" clip-path="url(#p647d059906)" style="fill: #e8edf4; stroke: #b8c5d4; stroke-width: 0.45"/>
    <path d="M -2183.4 180.397559 
L -2183.4 176.883355 
L -2181.911905 176.550352 
L -2182.80506 180.012839 
z
" clip-path="url(#p647d059906)" style="fill: #e8edf4; stroke: #b8c5d4; stroke-width: 0.45"/>
    <path d="M 127.801515 79.921088 
L 140.293776 84.881901 
L 153.604591 89.002208 
L 162.574462 96.310785 
L 163.669837 100.552386 
L 175.666128 105.002347 
L 177.415975 108.820905 
L 170.790519 109.595927 
L 172.381491 114.393774 
L 178.809378 119.117579 
L 183.485558 126.753578 
L 187.609213 126.514337 
L 187.319742 129.703723 
L 192.878845 130.927091 
L 190.719349 132.285147 
L 198.371719 135.314544 
L 197.57214 137.395533 
L 192.804431 137.897828 
L 191.032632 136.031523 
L 177.573733 134.139174 
L 167.888742 125.586393 
L 164.149064 119.285383 
L 154.758009 116.136924 
L 148.659032 118.19038 
L 144.261906 120.567537 
L 145.180175 125.878096 
L 139.524706 128.353108 
L 135.491464 127.149089 
L 128.043733 126.848828 
z
" clip-path="url(#p647d059906)" style="fill: #e8edf4; stroke: #b8c5d4; stroke-width: 0.45"/>
    <path d="M 180.496345 102.579425 
L 181.093146 100.351841 
L 187.548566 101.402939 
L 191.488046 100.839625 
L 192.573003 97.387928 
L 193.606242 97.209707 
L 194.305735 101.031985 
L 198.413763 100.482065 
L 200.445639 98.018588 
L 204.464742 95.45093 
L 203.672605 91.208213 
L 207.9849 91.071291 
L 209.43895 92.253358 
L 209.294587 96.247161 
L 206.87613 100.642055 
L 203.10557 101.234019 
L 201.970011 103.253245 
L 194.336616 106.687826 
L 190.511734 106.678896 
z
" clip-path="url(#p647d059906)" style="fill: #e8edf4; stroke: #b8c5d4; stroke-width: 0.45"/>
    <path d="M 225.101622 98.201646 
L 226.098027 97.505503 
L 226.871933 99.647883 
L 229.053009 101.2809 
L 232.543773 105.844715 
L 235.943751 108.2881 
L 234.936185 110.303977 
L 232.919936 111.023933 
L 229.802359 108.258707 
L 226.650179 103.685963 
z
" clip-path="url(#p647d059906)" style="fill: #e8edf4; stroke: #b8c5d4; stroke-width: 0.45"/>
    <path d="M 197.366757 80.9387 
L 199.367751 79.200015 
L 208.727924 84.528062 
L 214.343953 89.856109 
L 215.208273 93.599881 
L 212.956503 95.518275 
L 211.598447 91.268116 
L 209.923386 88.486146 
L 202.566812 83.055036 
z
" clip-path="url(#p647d059906)" style="fill: #e8edf4; stroke: #b8c5d4; stroke-width: 0.45"/>
    <path d="M -32.272063 81.374394 
L -29.296989 76.659147 
L -28.271563 70.942659 
L -24.652807 60.089368 
L -23.142946 57.121363 
L -17.022389 51.773596 
L -11.398919 53.899606 
L -2.321519 54.898615 
L 5.958161 54.596866 
L 13.075122 49.368534 
L 14.331604 50.97718 
L 8.546655 58.119256 
L 3.135636 59.503729 
L -3.793802 58.095815 
L -15.791581 58.455235 
L -22.081802 59.491823 
L -23.105739 64.941537 
L -16.661481 71.344123 
L -12.774091 68.082926 
L 0.652067 65.632843 
L 0.060475 68.948734 
L -3.07645 67.902844 
L -6.202585 72.121378 
L -12.54043 74.912277 
L -5.727079 84.139621 
L -7.042347 86.6124 
L -0.569068 94.922591 
L -0.631204 99.652348 
L -4.47469 101.769056 
L -7.29796 99.237118 
L -3.819102 93.342036 
L -10.884718 96.129587 
L -12.675864 94.136778 
L -11.741968 91.357041 
L -16.933093 87.135159 
L -16.3988 80.119029 
L -21.200739 82.307547 
L -20.298841 101.003336 
L -24.864887 102.048481 
L -27.95828 99.935122 
L -25.894034 93.307805 
L -27.008385 86.359764 
L -30.035921 86.306558 
z
" clip-path="url(#p647d059906)" style="fill: #e8edf4; stroke: #b8c5d4; stroke-width: 0.45"/>
    <path d="M -102.940866 58.209297 
L -102.102219 51.538076 
L -97.824527 46.753438 
L -96.622368 51.565423 
L -91.698761 55.633454 
L -87.054208 54.169357 
L -82.457651 54.688023 
L -78.262186 51.047129 
L -74.809374 50.415912 
L -67.997883 52.433649 
L -62.126241 50.899045 
L -58.434931 40.885331 
L -55.662635 38.381484 
L -53.168276 30.192774 
L -44.890456 30.196123 
L -38.649348 31.40963 
L -42.744726 37.912117 
L -37.452026 44.728631 
L -38.695485 48.040987 
L -30.62342 54.704022 
L -39.15462 55.553459 
L -41.555962 60.462182 
L -41.244167 66.986807 
L -48.167651 71.911158 
L -48.356663 79.081325 
L -51.133796 90.09163 
L -52.193824 87.53067 
L -60.373418 90.770286 
L -63.225709 86.369066 
L -68.359163 85.962021 
L -71.949641 83.655185 
L -80.509491 86.244423 
L -83.136307 82.759984 
L -87.852671 83.155867 
L -93.788308 82.325034 
L -94.889264 72.668693 
L -98.481975 70.667327 
L -101.938509 64.508447 
z
" clip-path="url(#p647d059906)" style="fill: #e8edf4; stroke: #b8c5d4; stroke-width: 0.45"/>
    <path d="M 52.340819 67.951586 
L 62.046273 66.20732 
L 65.736838 63.860673 
L 77.295947 66.817515 
L 78.432249 69.493445 
L 80.442917 81.13813 
L 87.894741 85.44782 
L 93.911863 77.810705 
L 102.173312 73.465296 
L 108.574037 73.459342 
L 120.072126 78.545172 
L 127.801515 79.921088 
L 128.043733 126.848828 
L 121.632589 120.939607 
L 114.319919 119.491509 
L 112.546632 121.542733 
L 103.424212 121.764115 
L 106.481514 115.904752 
L 111.014074 113.905618 
L 109.13698 106.076514 
L 105.680447 100.032232 
L 91.722601 93.935116 
L 85.785103 93.333106 
L 74.97274 86.679745 
L 72.847474 90.178694 
L 70.08448 90.813446 
L 68.449975 88.173235 
L 68.427279 85.044868 
L 62.926591 81.507967 
L 70.681281 78.915009 
L 75.816223 79.054908 
L 75.212725 77.144699 
L 64.673089 77.130188 
L 61.820798 72.843566 
L 55.388447 71.514159 
z
" clip-path="url(#p647d059906)" style="fill: #e8edf4; stroke: #b8c5d4; stroke-width: 0.45"/>
    <path d="M -201.290212 21.74529 
L -185.508849 23.426489 
L -179.141982 30.467734 
L -169.603216 38.344835 
L -162.781678 46.084455 
L -155.462311 46.197379 
L -149.412448 51.129357 
L -145.246749 57.158198 
L -139.763549 60.4473 
L -142.648954 66.32601 
L -138.522322 68.826323 
L -135.936061 69.01087 
L -134.715671 74.033075 
L -132.207173 78.051062 
L -126.920798 78.687675 
L -123.418128 83.244792 
L -125.226389 92.19978 
L -125.512884 103.336961 
L -133.485234 103.487649 
L -139.548864 97.468668 
L -148.793323 91.585864 
L -151.875553 87.221851 
L -157.326384 81.358395 
L -160.901979 75.961887 
L -166.377738 65.882503 
L -172.701073 59.881381 
L -177.47027 48.070753 
L -183.962897 43.537076 
L -187.726016 37.376708 
L -193.147081 33.34421 
L -200.657692 25.410368 
z
" clip-path="url(#p647d059906)" style="fill: #e8edf4; stroke: #b8c5d4; stroke-width: 0.45"/>
    <path d="M -128.768499 110.530196 
L -123.828149 103.650616 
L -115.091938 104.075892 
L -109.280944 106.889488 
L -106.294708 107.438292 
L -105.310954 109.999252 
L -91.517563 110.716975 
L -89.931055 107.749342 
L -76.573359 111.211457 
L -73.952868 115.878335 
L -63.151667 117.190999 
L -54.320206 121.469807 
L -62.535518 124.213082 
L -70.453919 121.312422 
L -84.441158 120.975326 
L -91.179723 119.682754 
L -99.520796 116.932782 
L -104.805682 116.219523 
L -107.800104 117.119933 
L -120.930466 114.155277 
L -122.179506 111.05928 
z
" clip-path="url(#p647d059906)" style="fill: #e8edf4; stroke: #b8c5d4; stroke-width: 0.45"/>
    <path d="M 29.876329 53.915605 
L 31.323683 48.163026 
L 33.713118 45.542907 
L 34.229924 49.474574 
L 38.480827 50.106163 
L 39.155391 53.046821 
L 38.778856 59.338902 
L 35.065222 58.633829 
L 33.969847 63.014957 
L 36.935991 66.816027 
L 34.920115 67.679974 
L 32.014617 63.119508 
z
" clip-path="url(#p647d059906)" style="fill: #e8edf4; stroke: #b8c5d4; stroke-width: 0.45"/>
    <path d="M 33.472017 85.632739 
L 35.178331 81.674283 
L 44.071184 81.37551 
L 51.993677 83.475103 
L 54.61082 88.981 
L 48.531935 86.013367 
L 42.51779 85.410985 
L 38.452922 85.886491 
z
" clip-path="url(#p647d059906)" style="fill: #e8edf4; stroke: #b8c5d4; stroke-width: 0.45"/>
    <path d="M 1.511921 134.927963 
L 2.160068 132.480112 
L 5.256065 128.088194 
L 12.374514 125.22809 
L 13.104144 126.64791 
L 13.237345 128.830846 
L 8.538841 134.208007 
L 2.375868 135.79191 
z
" clip-path="url(#p647d059906)" style="fill: #e8edf4; stroke: #b8c5d4; stroke-width: 0.45"/>
    <path d="M -23.969314 122.002984 
L -18.251338 120.506145 
L -13.739985 122.664525 
L -8.946975 122.116466 
L -2.494532 119.478487 
L -3.549723 123.478615 
L -14.367668 125.522397 
L -23.944385 124.635009 
z
" clip-path="url(#p647d059906)" style="fill: #e8edf4; stroke: #b8c5d4; stroke-width: 0.45"/>
    <path d="M -46.870986 126.237144 
L -44.397091 122.091537 
L -40.449425 122.034982 
L -38.519868 119.488905 
L -35.923561 121.40916 
L -31.475089 120.820917 
L -29.689151 123.881939 
L -43.000339 126.294443 
z
" clip-path="url(#p647d059906)" style="fill: #e8edf4; stroke: #b8c5d4; stroke-width: 0.45"/>
    <path d="M 78.211984 105.425763 
L 80.997302 100.404302 
L 82.634411 102.510592 
L 82.617296 105.943685 
L 78.912964 110.845712 
z
" clip-path="url(#p647d059906)" style="fill: #e8edf4; stroke: #b8c5d4; stroke-width: 0.45"/>
    <path d="M 19.721042 84.076369 
L 27.004691 83.731088 
L 28.794349 86.105268 
L 26.099444 88.495076 
L 21.123375 87.17311 
z
" clip-path="url(#p647d059906)" style="fill: #e8edf4; stroke: #b8c5d4; stroke-width: 0.45"/>
    <path d="M -30.831779 130.017379 
L -24.11777 128.601651 
L -17.816387 132.981663 
L -18.247617 134.924986 
L -21.275897 135.06228 
z
" clip-path="url(#p647d059906)" style="fill: #e8edf4; stroke: #b8c5d4; stroke-width: 0.45"/>
    <path d="M 12.374514 125.22809 
L 13.220974 123.529589 
L 19.418921 121.911083 
L 24.44187 121.667377 
L 26.692152 120.768083 
L 29.418683 121.660679 
L 26.769542 123.611444 
L 13.237345 128.830846 
L 13.104144 126.64791 
z
" clip-path="url(#p647d059906)" style="fill: #e8edf4; stroke: #b8c5d4; stroke-width: 0.45"/>
    <path d="M 312.329786 166.510779 
L 315.77553 168.724225 
L 316.944202 174.52815 
L 315.008693 173.625135 
L 313.510738 174.015437 
L 312.478987 172.027466 
z
" clip-path="url(#p647d059906)" style="fill: #e8edf4; stroke: #b8c5d4; stroke-width: 0.45"/>
    <path d="M 316.296056 177.551966 
L 316.56097 175.621293 
L 321.083113 179.757598 
L 318.709304 180.704517 
z
" clip-path="url(#p647d059906)" style="fill: #e8edf4; stroke: #b8c5d4; stroke-width: 0.45"/>
    <path d="M 293.613161 205.96065 
L 296.711763 206.064086 
L 300.744261 208.511936 
L 315.864082 220.751933 
L 313.128249 222.479828 
L 304.015503 217.293168 
L 299.37467 213.478703 
L 294.609566 208.402175 
z
" clip-path="url(#p647d059906)" style="fill: #e8edf4; stroke: #b8c5d4; stroke-width: 0.45"/>
    <path d="M 262.008021 130.607854 
L 262.461202 127.749238 
L 267.213284 128.882192 
L 269.557327 130.39317 
L 270.736046 132.285147 
L 267.930636 132.445509 
L 263.516022 131.716996 
z
" clip-path="url(#p647d059906)" style="fill: #e8edf4; stroke: #b8c5d4; stroke-width: 0.45"/>
    <path d="M 268.77598 121.104062 
L 271.224202 121.104062 
L 273.816044 126.864083 
L 276.695868 130.319872 
L 275.611656 131.647047 
L 270.275423 125.406311 
z
" clip-path="url(#p647d059906)" style="fill: #e8edf4; stroke: #b8c5d4; stroke-width: 0.45"/>
    <path d="M 251.720277 114.63748 
L 252.791839 113.90413 
L 262.008021 118.944194 
L 263.700197 121.228706 
L 264.005294 122.675687 
L 258.362476 119.622106 
z
" clip-path="url(#p647d059906)" style="fill: #e8edf4; stroke: #b8c5d4; stroke-width: 0.45"/>
    <path d="M 239.337777 109.914792 
L 239.708359 108.715237 
L 246.876665 114.104303 
L 245.443823 114.514325 
L 242.294619 112.873495 
z
" clip-path="url(#p647d059906)" style="fill: #e8edf4; stroke: #b8c5d4; stroke-width: 0.45"/>
    <path d="M 274.102538 134.674211 
L 279.856978 136.675577 
L 281.87025 139.149844 
L 276.840232 139.10408 
z
" clip-path="url(#p647d059906)" style="fill: #e8edf4; stroke: #b8c5d4; stroke-width: 0.45"/>
    <path d="M 355.57924 309.809567 
L 358.250704 309.244764 
L 362.169349 313.24452 
L 367.771612 315.111569 
L 369.806464 321.526061 
L 375.023634 329.105506 
L 375.174695 324.188596 
L 378.423985 326.152383 
L 379.501128 331.598749 
L 385.295007 333.945024 
L 390.159454 334.520989 
L 394.274552 331.774738 
L 397.923073 332.606687 
L 396.178064 338.996251 
L 393.987314 343.197669 
L 388.490347 343.049585 
L 386.56786 345.238102 
L 387.237214 348.335588 
L 379.88957 358.485294 
L 374.324886 361.355816 
L 373.088868 359.466443 
L 370.087005 358.429111 
L 374.238938 352.506496 
L 371.881128 348.544319 
L 364.133136 345.663751 
L 364.336286 343.055538 
L 369.538573 340.543319 
L 370.753011 335.000216 
L 370.41852 330.344128 
L 367.502605 325.519864 
L 367.696825 324.250732 
L 364.255175 321.278262 
L 358.590032 314.907302 
z
" clip-path="url(#p647d059906)" style="fill: #e8edf4; stroke: #b8c5d4; stroke-width: 0.45"/>
    <path d="M 311.465839 391.339474 
L 315.334254 385.998777 
L 324.387097 378.892606 
L 329.035743 377.537898 
L 340.379423 371.028156 
L 344.700648 367.291826 
L 347.901941 361.925456 
L 350.630704 360.1038 
L 351.700034 356.083952 
L 356.749773 352.756527 
L 359.980087 358.790391 
L 365.100519 355.872244 
L 367.182624 358.913919 
L 367.189322 361.944059 
L 359.803726 370.584276 
L 356.120974 373.480471 
L 358.776812 376.944074 
L 353.221802 377.032999 
L 347.061062 379.746135 
L 345.132993 384.45915 
L 341.04022 391.744287 
L 331.792784 397.016895 
L 325.161747 396.863602 
L 320.498962 394.489422 
L 312.673579 393.983406 
z
" clip-path="url(#p647d059906)" style="fill: #e8edf4; stroke: #b8c5d4; stroke-width: 0.45"/>
    <path d="M -71.359538 249.239125 
L -68.195824 252.352981 
L -70.625071 245.673203 
L -67.054312 247.760889 
L -64.923466 250.548812 
L -65.043644 246.861223 
L -70.966632 236.770304 
L -70.185284 232.605721 
L -68.709653 230.83355 
L -67.727387 227.23191 
L -68.496829 223.023423 
L -65.521755 217.842343 
L -64.977788 223.325916 
L -61.936113 218.372544 
L -56.086796 215.965249 
L -52.578917 212.894552 
L -47.076369 210.252109 
L -43.802522 209.689911 
L -41.820876 210.577671 
L -36.147176 207.8943 
L -31.780186 207.095837 
L -30.687788 205.518258 
L -28.782044 204.861182 
L -24.80238 205.030846 
L -17.235214 202.922696 
L -13.321034 199.72624 
L -11.483007 195.878289 
L -7.260009 192.22307 
L -6.74804 185.435763 
L -1.709464 179.317439 
L 1.323281 185.533618 
L 4.387281 184.097054 
L 1.823344 180.694843 
L 4.082927 177.201475 
L 7.259663 178.761194 
L 8.134029 173.282831 
L 12.0683 169.740721 
L 13.80438 166.898848 
L 17.424624 165.672505 
L 17.537734 163.66072 
L 20.701075 164.500855 
L 20.828323 162.691105 
L 27.474243 160.689367 
L 32.793361 163.993723 
L 36.789768 168.258021 
L 45.874609 168.982442 
L 44.34912 165.028823 
L 47.798212 159.254664 
L 51.044154 157.373104 
L 49.921245 155.574144 
L 53.048124 151.462023 
L 57.40916 148.922271 
L 61.092656 149.777661 
L 67.142148 148.421092 
L 67.011923 144.741689 
L 61.737826 142.371229 
L 65.572011 141.32534 
L 70.340836 143.110161 
L 74.166091 146.062911 
L 80.230093 147.905031 
L 82.286154 147.176517 
L 86.749137 149.389964 
L 90.955392 147.328322 
L 93.660343 147.95526 
L 95.345822 146.571903 
L 98.651666 150.134104 
L 96.7329 153.988008 
L 93.998927 156.896854 
L 91.524659 157.136467 
L 92.358841 160.014803 
L 87.686382 167.151112 
L 88.201327 169.183732 
L 93.925257 173.161908 
L 99.470593 175.469488 
L 108.383165 182.214751 
L 110.413181 182.207681 
L 114.181509 184.05129 
L 115.27614 186.275526 
L 122.149767 188.717796 
L 126.903337 186.257295 
L 129.773488 179.199865 
L 132.855718 169.523432 
L 131.856337 166.041598 
L 132.375747 163.946842 
L 131.543054 159.826164 
L 132.486624 154.401751 
L 133.867377 152.939142 
L 132.746329 150.534824 
L 135.853116 142.761903 
L 136.034687 140.707703 
L 138.709872 138.010937 
L 140.740632 141.532955 
L 141.240695 146.049888 
L 143.034818 146.920533 
L 143.342148 149.94472 
L 145.95929 153.607381 
L 146.499536 157.683039 
L 146.24504 160.298321 
L 148.839115 165.947837 
L 153.45874 163.232467 
L 155.843338 166.280095 
L 159.298011 169.091831 
L 158.558335 172.283078 
L 160.093869 178.456841 
L 161.18664 182.051412 
L 163.000111 182.92987 
L 164.954224 189.083913 
L 164.258452 192.816522 
L 166.589845 197.699573 
L 174.391787 201.461204 
L 184.308577 208.016711 
L 183.365751 209.760976 
L 187.483825 214.275677 
L 190.284027 222.066086 
L 193.157154 220.484043 
L 196.077161 223.604224 
L 197.83631 222.497315 
L 199.076792 230.128105 
L 207.529486 237.296784 
L 213.157421 243.126009 
L 215.180367 248.912447 
L 214.868945 257.474157 
L 218.300177 263.592481 
L 217.887179 269.964557 
L 214.698536 279.721729 
L 214.845132 283.850221 
L 213.419359 289.011209 
L 210.240018 295.560018 
L 204.905646 299.097663 
L 202.276597 304.675369 
L 199.875999 308.234593 
L 197.741804 314.448912 
L 194.963183 318.03753 
L 193.141527 323.42548 
L 192.212095 328.385177 
L 192.580445 330.661876 
L 188.451952 333.163304 
L 180.393282 333.425242 
L 173.748478 336.378364 
L 166.089038 342.257447 
L 160.125495 339.07513 
L 155.71423 337.805626 
L 156.831929 334.052552 
L 152.896913 335.41433 
L 146.59181 340.628151 
L 125.197767 334.939196 
L 120.543539 330.501141 
L 119.207435 325.03394 
L 117.533863 321.396209 
L 113.996218 318.475829 
L 107.069385 317.608533 
L 109.436124 314.116281 
L 107.694463 308.770003 
L 104.178027 313.75314 
L 97.77172 315.07585 
L 101.537072 311.092838 
L 102.627982 306.937928 
L 105.408835 303.411446 
L 104.834359 298.08005 
L 98.977228 304.219955 
L 94.478898 306.682316 
L 91.721113 312.40885 
L 86.09913 309.446426 
L 86.322372 305.625264 
L 81.816601 300.404002 
L 78.018507 297.70612 
L 79.372099 296.044082 
L 70.133593 291.680813 
L 65.074181 291.475058 
L 58.14958 287.969784 
L 45.257716 288.651045 
L 27.740646 293.632322 
L 20.87074 293.154956 
L 13.238089 296.847009 
L 6.995865 298.508303 
L 5.608415 302.283701 
L 2.949601 305.20929 
L -7.681936 306.024496 
L -14.045827 304.71146 
L -24.165395 305.827671 
L -28.447925 309.667436 
L -30.547145 309.341875 
L -37.620202 313.666076 
L -47.699215 313.380698 
L -55.336702 308.782281 
L -59.206977 307.414923 
L -59.049964 303.288663 
L -55.475112 302.308258 
L -54.254349 300.668916 
L -54.508473 298.082655 
L -53.628155 293.076449 
L -54.434803 288.809547 
L -58.241455 281.531479 
L -59.42129 277.421218 
L -59.111727 273.319887 
L -61.977785 268.633662 
L -62.161216 266.51807 
L -65.35023 263.650152 
L -66.248036 258.01031 
L -70.362017 252.310565 
z
" clip-path="url(#p647d059906)" style="fill: #e8edf4; stroke: #b8c5d4; stroke-width: 0.45"/>
    <path d="M 154.570114 357.570373 
L 154.755032 354.268621 
L 159.465443 354.906349 
L 166.421669 357.391407 
L 175.962668 355.019459 
L 180.281288 355.50315 
L 180.791025 364.049605 
L 178.324571 366.53057 
L 177.581174 372.322961 
L 175.064863 370.35136 
L 170.06647 375.3691 
L 164.14832 374.758161 
L 159.709893 368.595188 
L 158.724651 363.84199 
z
" clip-path="url(#p647d059906)" style="fill: #e8edf4; stroke: #b8c5d4; stroke-width: 0.45"/>
    <path d="M -24.236833 -56.618671 
L -21.337289 -54.249327 
L -20.59166 -65.513384 
L -18.245757 -72.037637 
L -13.886581 -72.029265 
L -9.44927 -69.973577 
L -7.228755 -71.848439 
L -6.573911 -70.019156 
L -7.745188 -67.034035 
L -5.287292 -61.873234 
L -7.183362 -55.889599 
L -11.42794 -53.503326 
L -12.563499 -47.698658 
L -10.952434 -41.96431 
L -7.135737 -41.171056 
L -3.950815 -42.023097 
L 5.042124 -38.031341 
L 4.356771 -34.111952 
L 6.705279 -32.382197 
L 5.957417 -29.064074 
L 0.345853 -32.598184 
L -2.313706 -36.381023 
L -4.166244 -33.738021 
L -8.750522 -38.04827 
L -15.29003 -36.984149 
L -18.873811 -38.575121 
L -18.508438 -41.551312 
L -16.258901 -43.382828 
L -18.407979 -45.048029 
L -19.338155 -42.45321 
L -22.892915 -46.59026 
L -23.969314 -49.725697 
z
" clip-path="url(#p647d059906)" style="fill: #e8edf4; stroke: #b8c5d4; stroke-width: 0.45"/>
    <path d="M -9.576518 9.41674 
L -6.751016 3.348273 
L -2.214735 1.323094 
L 1.711351 -1.38967 
L 4.256312 1.869666 
L 9.730582 -0.101935 
L 10.905208 -3.314948 
L 15.994014 -3.506378 
L 15.567249 -9.07441 
L 21.403544 -5.659735 
L 23.669452 9.43646 
L 21.216765 16.025081 
L 18.586228 8.68525 
L 15.219736 12.337306 
L 17.518758 17.64247 
L 15.454884 21.016776 
L 6.982471 16.83824 
L 4.958781 11.627024 
L 7.154367 8.203605 
L 2.59353 4.798603 
L 0.331714 7.784095 
L -3.056358 7.506903 
L -8.384405 11.524146 
z
" clip-path="url(#p647d059906)" style="fill: #e8edf4; stroke: #b8c5d4; stroke-width: 0.45"/>
    <path d="M 7.320683 -29.215879 
L 14.235238 -29.057191 
L 16.218372 -26.371401 
L 18.240947 -18.332078 
L 12.685565 -20.242473 
L 12.835881 -17.825876 
L 14.597634 -13.382799 
L 11.173099 -11.769688 
L 10.87321 -16.833565 
L 8.705529 -17.207495 
L 7.578156 -21.566671 
L 11.815292 -20.992195 
L 11.721531 -23.718168 
z
" clip-path="url(#p647d059906)" style="fill: #e8edf4; stroke: #b8c5d4; stroke-width: 0.45"/>
    <path d="M -6.263604 -8.736199 
L -2.973014 -12.68033 
L -2.178644 -17.149452 
L 1.791718 -17.572496 
L 0.631975 -12.725164 
L 5.961138 -19.675624 
L 5.273552 -12.807206 
L 2.686919 -10.440653 
L 0.431429 -5.891535 
L -1.829642 -3.759758 
z
" clip-path="url(#p647d059906)" style="fill: #e8edf4; stroke: #b8c5d4; stroke-width: 0.45"/>
    <path d="M -9.838456 -24.420637 
L -5.516487 -22.191749 
L -0.934441 -22.202353 
L -1.073968 -19.194723 
L -4.408462 -16.137421 
L -8.981206 -13.975321 
L -9.234958 -17.320977 
L -8.723733 -20.994055 
z
" clip-path="url(#p647d059906)" style="fill: #e8edf4; stroke: #b8c5d4; stroke-width: 0.45"/>
    <path d="M -43.745223 0.954001 
L -40.215764 -4.081599 
L -35.014221 -8.528397 
L -30.691136 -13.509303 
L -26.917227 -20.66161 
L -25.634329 -14.790899 
L -30.387899 -10.826304 
L -34.167017 -5.877954 
z
" clip-path="url(#p647d059906)" style="fill: #e8edf4; stroke: #b8c5d4; stroke-width: 0.45"/>
    <path d="M -21.071259 -35.758177 
L -14.903077 -35.493821 
L -12.402764 -32.901049 
L -14.312229 -26.680033 
z
" clip-path="url(#p647d059906)" style="fill: #e8edf4; stroke: #b8c5d4; stroke-width: 0.45"/>
   </g>
   <g id="PathCollection_1">
    <defs>
     <path id="m746f05ae58" d="M 0 2.12132 
C 0.562581 2.12132 1.102195 1.897805 1.5 1.5 
C 1.897805 1.102195 2.12132 0.562581 2.12132 0 
C 2.12132 -0.562581 1.897805 -1.102195 1.5 -1.5 
C 1.102195 -1.897805 0.562581 -2.12132 0 -2.12132 
C -0.562581 -2.12132 -1.102195 -1.897805 -1.5 -1.5 
C -1.897805 -1.102195 -2.12132 -0.562581 -2.12132 0 
C -2.12132 0.562581 -1.897805 1.102195 -1.5 1.5 
C -1.102195 1.897805 -0.562581 2.12132 0 2.12132 
z
" style="stroke: #ffffff; stroke-width: 0.5"/>
    </defs>
    <g clip-path="url(#p647d059906)">
     <use xlink:href="#m746f05ae58" x="252" y="11.4" style="fill: #8aa0b7; stroke: #ffffff; stroke-width: 0.5"/>
     <use xlink:href="#m746f05ae58" x="358.2" y="51" style="fill: #8aa0b7; stroke: #ffffff; stroke-width: 0.5"/>
     <use xlink:href="#m746f05ae58" x="321.84" y="270.24" style="fill: #8aa0b7; stroke: #ffffff; stroke-width: 0.5"/>
     <use xlink:href="#m746f05ae58" x="314.4" y="65.04" style="fill: #8aa0b7; stroke: #ffffff; stroke-width: 0.5"/>
     <use xlink:href="#m746f05ae58" x="81" y="7.2" style="fill: #8aa0b7; stroke: #ffffff; stroke-width: 0.5"/>
     <use xlink:href="#m746f05ae58" x="19.2" y="124.8" style="fill: #8aa0b7; stroke: #ffffff; stroke-width: 0.5"/>
     <use xlink:href="#m746f05ae58" x="394.2" y="118.8" style="fill: #8aa0b7; stroke: #ffffff; stroke-width: 0.5"/>
     <use xlink:href="#m746f05ae58" x="315" y="176.4" style="fill: #8aa0b7; stroke: #ffffff; stroke-width: 0.5"/>
    </g>
   </g>
   <g id="PatchCollection_2">
    <defs>
     <path id="m8386c55602" d="M 293.613161 -226.03935 
L 296.711763 -225.935914 
L 300.744261 -223.488064 
L 315.864082 -211.248067 
L 313.128249 -209.520172 
L 304.015503 -214.706832 
L 299.37467 -218.521297 
L 294.609566 -223.597825 
z
" style="stroke: #b45309; stroke-width: 1.15"/>
    </defs>
    <g clip-path="url(#p647d059906)">
     <use xlink:href="#m8386c55602" x="0" y="432" style="fill: #f59e0b; stroke: #b45309; stroke-width: 1.15"/>
    </g>
   </g>
   <g id="PathCollection_2">
    <defs>
     <path id="m46f78c94d1" d="M 0 3.316625 
C 0.879579 3.316625 1.723251 2.967164 2.345208 2.345208 
C 2.967164 1.723251 3.316625 0.879579 3.316625 0 
C 3.316625 -0.879579 2.967164 -1.723251 2.345208 -2.345208 
C 1.723251 -2.967164 0.879579 -3.316625 0 -3.316625 
C -0.879579 -3.316625 -1.723251 -2.967164 -2.345208 -2.345208 
C -2.967164 -1.723251 -3.316625 -0.879579 -3.316625 0 
C -3.316625 0.879579 -2.967164 1.723251 -2.345208 2.345208 
C -1.723251 2.967164 -0.879579 3.316625 0 3.316625 
z
" style="stroke: #ffffff"/>
    </defs>
    <g clip-path="url(#p647d059906)">
     <use xlink:href="#m46f78c94d1" x="304.2" y="216" style="fill: #f97316; stroke: #ffffff"/>
    </g>
   </g>
   <g id="PathCollection_3">
    <path d="M 304.2 220.449719 
C 305.380079 220.449719 306.511984 219.980869 307.346427 219.146427 
C 308.180869 218.311984 308.649719 217.180079 308.649719 216 
C 308.649719 214.819921 308.180869 213.688016 307.346427 212.853573 
C 306.511984 212.019131 305.380079 211.550281 304.2 211.550281 
C 303.019921 211.550281 301.888016 212.019131 301.053573 212.853573 
C 300.219131 213.688016 299.750281 214.819921 299.750281 216 
C 299.750281 217.180079 300.219131 218.311984 301.053573 219.146427 
C 301.888016 219.980869 303.019921 220.449719 304.2 220.449719 
L 304.2 220.449719 
z
" clip-path="url(#p647d059906)" style="fill: none; stroke: #7c2d12; stroke-width: 1.1"/>
   </g>
  </g>
 </g>
 <defs>
  <clipPath id="p647d059906">
   <rect x="0" y="0" width="408.6" height="432"/>
  </clipPath>
 </defs>
</svg>
