<?xml version="1.0" encoding="utf-8" standalone="no"?>
<!DOCTYPE svg PUBLIC "-//W3C//DTD SVG 1.1//EN"
  "http://www.w3.org/Graphics/SVG/1.1/DTD/svg11.dtd">
<svg xmlns:xlink="http://www.w3.org/1999/xlink" width="549.818182pt" height="432pt" viewBox="0 0 549.818182 432" xmlns="http://www.w3.org/2000/svg" version="1.1">
 <metadata>
  <rdf:RDF xmlns:dc="http://purl.org/dc/elements/1.1/" xmlns:cc="http://creativecommons.org/ns#" xmlns:rdf="http://www.w3.org/1999/02/22-rdf-syntax-ns#">
   <cc:Work>
    <dc:type rdf:resource="http://purl.org/dc/dcmitype/StillImage"/>
    <dc:date>2026-06-09T04:57:04.545787</dc:date>
    <dc:format>image/svg+xml</dc:format>
    <dc:creator>
     <cc:Agent>
      <dc:title>Matplotlib v3.10.8, https://matplotlib.org/</dc:title>
     </cc:Agent>
    </dc:creator>
   </cc:Work>
  </rdf:RDF>
 </metadata>
 <defs>
  <style type="text/css">*{stroke-linejoin: round; stroke-linecap: butt}</style>
 </defs>
 <g id="figure_1">
  <g id="patch_1">
   <path d="M 0 432 
L 549.818182 432 
L 549.818182 0 
L 0 0 
z
" style="fill: #eaf3ff"/>
  </g>
  <g id="axes_1">
   <g id="PatchCollection_1">
    <path d="M 423.662624 -29.539598 
L 441.744226 -42.175106 
L 493.594254 -58.660526 
L 532.362289 -78.925843 
L 615.491592 -144.208962 
L 702.34092 -183.615267 
L 745.430721 -192.210599 
L 777.73894 -191.167956 
L 807.641216 -207.435209 
L 843.448248 -206.566594 
L 878.705293 -210.478406 
L 940.125307 -196.110741 
L 914.833997 -190.857447 
L 936.347738 -178.522712 
L 902.936618 -170.644975 
L 887.077889 -168.83562 
L 895.396705 -182.614736 
L 870.197736 -190.424154 
L 839.708941 -183.769507 
L 830.079085 -169.372416 
L 811.355154 -160.682206 
L 790.272974 -165.428132 
L 764.631579 -164.456014 
L 742.809655 -174.83779 
L 731.040733 -169.649946 
L 718.859827 -168.842723 
L 715.978989 -155.923089 
L 678.970508 -159.068774 
L 673.773024 -148.134473 
L 654.916162 -148.200938 
L 622.310626 -112.461386 
L 591.820816 -84.83618 
L 598.972684 -78.12826 
L 592.139444 -70.34624 
L 572.660548 -70.682118 
L 559.909361 -52.265145 
L 561.116898 -26.188936 
L 573.666153 -16.237408 
L 567.17082 6.847864 
L 550.831521 20.309368 
L 542.173783 31.624703 
L 529.00148 19.574698 
L 490.228371 42.284517 
L 464.04815 46.887365 
L 436.892768 36.88713 
L 429.870786 15.776537 
z
" clip-path="url(#pff3ff9379d)" style="fill: #e8edf4; stroke: #b8c5d4; stroke-width: 0.45"/>
    <path d="M 530.728953 -376.73784 
L 584.262393 -383.769033 
L 595.018211 -376.894931 
L 622.986284 -377.168269 
L 630.4428 -383.879389 
L 659.274873 -384.562342 
L 748.678844 -363.065433 
L 699.26472 -355.338327 
L 688.353774 -340.887731 
L 671.126596 -337.18176 
L 661.775564 -320.912051 
L 638.112764 -320.147018 
L 595.883585 -332.123236 
L 613.693178 -339.100036 
L 584.259054 -344.780444 
L 546.001724 -361.3608 
z
" clip-path="url(#pff3ff9379d)" style="fill: #e8edf4; stroke: #b8c5d4; stroke-width: 0.45"/>
    <path d="M 666.681025 -389.825598 
L 727.317662 -395.309238 
L 755.828734 -390.587158 
L 775.687141 -396.46756 
L 825.335189 -391.562321 
L 863.820112 -384.67124 
L 834.702228 -374.095649 
L 777.753146 -371.782048 
L 719.840064 -375.05762 
L 716.346323 -380.468199 
L 688.168086 -380.812195 
z
" clip-path="url(#pff3ff9379d)" style="fill: #e8edf4; stroke: #b8c5d4; stroke-width: 0.45"/>
    <path d="M 732.619833 -337.949149 
L 746.170887 -343.015331 
L 734.3064 -349.290916 
L 775.000014 -353.224276 
L 782.797222 -345.852786 
L 811.128174 -341.421055 
L 767.264465 -333.391353 
z
" clip-path="url(#pff3ff9379d)" style="fill: #e8edf4; stroke: #b8c5d4; stroke-width: 0.45"/>
    <path d="M 235.459313 231.365576 
L 260.918562 227.09404 
L 293.89397 232.145909 
L 287.669572 209.919105 
L 306.206791 218.342439 
L 351.924762 203.030054 
L 357.820385 186.939366 
L 374.993798 182.974788 
L 377.838106 189.880075 
L 386.965667 190.203776 
L 409.798269 207.343702 
L 419.875625 205.814493 
L 441.446908 216.471263 
L 447.113201 216.056236 
L 456.379781 221.197909 
L 484.676743 224.814433 
L 474.748554 238.260716 
L 472.25636 252.25039 
L 466.865061 255.604604 
L 457.918123 253.797357 
L 458.549289 258.78682 
L 444.188728 269.821072 
L 443.898514 278.7122 
L 453.274685 275.635517 
L 460.019644 284.246577 
L 459.209883 289.79516 
L 464.988812 297.16824 
L 458.18094 303.149102 
L 463.239405 318.342762 
L 473.882984 320.833942 
L 471.636355 329.357227 
L 453.846997 340.450842 
L 415.118537 335.134126 
L 386.517153 341.505154 
L 384.270525 353.329886 
L 361.50794 355.875355 
L 339.413052 346.992852 
L 332.274376 351.238006 
L 296.127407 342.313899 
L 288.300738 334.679524 
L 298.455214 322.901469 
L 302.19452 283.779798 
L 281.931233 263.172514 
L 267.448396 253.237222 
L 237.438558 245.684533 
z
" clip-path="url(#pff3ff9379d)" style="fill: #e8edf4; stroke: #b8c5d4; stroke-width: 0.45"/>
    <path d="M -745.031537 1141.949149 
L -740.023302 1133.691218 
L -734.863363 1116.261077 
L -742.572829 1104.625085 
L -744.125884 1091.190979 
L -733.903421 1074.307781 
L -712.776593 1081.115653 
L -691.985642 1097.690371 
L -688.734931 1105.732163 
L -700.350628 1123.702145 
L -706.380704 1138.16215 
L -713.905995 1145.620976 
L -723.308043 1147.024358 
L -725.985934 1141.496577 
L -730.378224 1140.675654 
L -736.4565 1145.99998 
z
" clip-path="url(#pff3ff9379d)" style="fill: #e8edf4; stroke: #b8c5d4; stroke-width: 0.45"/>
    <path d="M 493.413631 357.581128 
L 497.37618 350.284153 
L 510.021835 342.785752 
L 513.36032 359.623794 
L 506.875135 374.792593 
L 497.959653 370.794529 
z
" clip-path="url(#pff3ff9379d)" style="fill: #e8edf4; stroke: #b8c5d4; stroke-width: 0.45"/>
    <path d="M 542.173783 31.624703 
L 550.831521 20.309368 
L 567.17082 6.847864 
L 573.666153 -16.237408 
L 561.116898 -26.188936 
L 559.909361 -52.265145 
L 572.660548 -70.682118 
L 592.139444 -70.34624 
L 598.972684 -78.12826 
L 591.820816 -84.83618 
L 622.310626 -112.461386 
L 654.916162 -148.200938 
L 673.773024 -148.134473 
L 678.970508 -159.068774 
L 715.978989 -155.923089 
L 718.859827 -168.842723 
L 731.040733 -169.649946 
L 787.866017 -146.670715 
L 788.384548 -116.431546 
L 795.011797 -108.790574 
L 761.233224 -103.229814 
L 742.192695 -89.528833 
L 745.258216 -77.503182 
L 676.101845 -44.824585 
L 661.802169 -17.171981 
L 675.779159 -3.336546 
L 694.558901 7.555136 
L 676.522961 29.707864 
L 656.10036 34.301579 
L 648.60957 67.265318 
L 637.457608 85.660981 
L 613.636652 83.764438 
L 602.52325 99.338117 
L 579.788063 100.242248 
L 573.547429 81.679153 
L 557.108686 59.397045 
z
" clip-path="url(#pff3ff9379d)" style="fill: #e8edf4; stroke: #b8c5d4; stroke-width: 0.45"/>
    <path d="M 511.788492 262.41755 
L 514.792114 257.610739 
L 514.032076 254.126132 
L 519.959156 253.043407 
L 529.895463 258.496605 
L 532.692079 253.314342 
L 550.009584 254.1515 
L 564.048474 250.630362 
L 573.462191 251.233116 
L 579.58613 255.253505 
L 581.416716 251.916542 
L 578.633292 239.122227 
L 585.687745 236.629018 
L 592.611297 227.575533 
L 607.200174 233.895823 
L 618.246603 225.862656 
L 625.157978 224.396361 
L 640.400346 230.388892 
L 649.622278 229.369588 
L 658.674748 233.077438 
L 657.097847 235.570647 
L 659.055275 242.374968 
L 657.564626 250.399002 
L 646.50602 250.437562 
L 650.309255 254.69337 
L 643.790583 267.334966 
L 640.047217 270.649098 
L 622.873805 271.138201 
L 612.964896 275.593405 
L 568.665528 269.000657 
L 564.278819 262.170461 
L 544.872984 265.58353 
L 542.589826 269.318777 
L 520.673531 265.992976 
z
" clip-path="url(#pff3ff9379d)" style="fill: #e8edf4; stroke: #b8c5d4; stroke-width: 0.45"/>
    <path d="M 443.231831 169.168273 
L 455.028151 169.160155 
L 460.005437 161.768809 
L 464.8985 143.789695 
L 461.228196 137.15027 
L 465.062888 132.991877 
L 481.475247 131.924373 
L 485.117139 136.254257 
L 498.450786 126.573664 
L 493.961589 119.21276 
L 493.060502 108.077034 
L 507.902049 110.666643 
L 520.466525 107.677227 
L 520.813565 115.26594 
L 540.656751 119.841897 
L 540.447715 126.811112 
L 560.413685 123.123557 
L 571.453011 117.74545 
L 593.62299 125.499057 
L 602.895658 131.752883 
L 607.483285 141.745 
L 602.008778 146.986118 
L 609.138322 153.98476 
L 613.996884 164.488305 
L 612.46666 171.258125 
L 620.515555 183.796218 
L 611.752285 185.844972 
L 606.574081 183.588196 
L 601.649561 187.325981 
L 587.548773 191.129216 
L 580.257886 196.021772 
L 565.987636 200.297367 
L 569.425566 206.133628 
L 571.503748 214.414391 
L 581.524278 219.133934 
L 592.611297 227.575533 
L 585.687745 236.629018 
L 578.633292 239.122227 
L 581.416716 251.916542 
L 579.58613 255.253505 
L 573.462191 251.233116 
L 564.048474 250.630362 
L 550.009584 254.1515 
L 532.692079 253.314342 
L 529.895463 258.496605 
L 519.959156 253.043407 
L 514.032076 254.126132 
L 492.989471 248.121932 
L 488.95792 252.387887 
L 472.25636 252.25039 
L 474.748554 238.260716 
L 484.676743 224.814433 
L 456.379781 221.197909 
L 447.113201 216.056236 
L 448.221294 207.447205 
L 444.30035 203.012804 
L 446.530742 189.745114 
z
" clip-path="url(#pff3ff9379d)" style="fill: #e8edf4; stroke: #b8c5d4; stroke-width: 0.45"/>
    <path d="M 443.898514 278.7122 
L 444.188728 269.821072 
L 458.549289 258.78682 
L 457.918123 253.797357 
L 466.865061 255.604604 
L 472.25636 252.25039 
L 488.95792 252.387887 
L 492.989471 248.121932 
L 514.032076 254.126132 
L 514.792114 257.610739 
L 511.788492 262.41755 
L 520.673531 265.992976 
L 530.693047 266.526728 
L 529.135425 274.577146 
L 520.48479 277.889248 
L 505.954768 275.42851 
L 501.702004 283.347519 
L 492.348157 283.971583 
L 488.944728 280.859384 
L 477.935844 287.519104 
L 468.468346 288.452662 
L 460.019644 284.246577 
L 453.274685 275.635517 
z
" clip-path="url(#pff3ff9379d)" style="fill: #e8edf4; stroke: #b8c5d4; stroke-width: 0.45"/>
    <path d="M 437.054111 214.766505 
L 439.182015 203.753562 
L 444.30035 203.012804 
L 448.221294 207.447205 
L 447.113201 216.056236 
L 441.446908 216.471263 
z
" clip-path="url(#pff3ff9379d)" style="fill: #e8edf4; stroke: #b8c5d4; stroke-width: 0.45"/>
    <path d="M 374.993798 182.974788 
L 390.730342 179.101028 
L 405.106125 180.642922 
L 423.307466 176.563171 
L 435.736982 185.158502 
L 446.530742 189.745114 
L 444.30035 203.012804 
L 439.182015 203.753562 
L 437.054111 214.766505 
L 419.875625 205.814493 
L 409.798269 207.343702 
L 386.965667 190.203776 
L 377.838106 189.880075 
z
" clip-path="url(#pff3ff9379d)" style="fill: #e8edf4; stroke: #b8c5d4; stroke-width: 0.45"/>
    <path d="M 390.730342 179.101536 
L 400.849302 173.705671 
L 418.045039 144.815595 
L 444.911221 136.595716 
L 461.228196 137.15027 
L 464.8985 143.789695 
L 460.005437 161.768809 
L 455.028151 169.160155 
L 443.231831 169.168273 
L 446.530742 189.745114 
L 435.736982 185.158502 
L 423.307466 176.563171 
L 405.106125 180.642922 
z
" clip-path="url(#pff3ff9379d)" style="fill: #e8edf4; stroke: #b8c5d4; stroke-width: 0.45"/>
    <path d="M 138.569159 426.68321 
L 140.131854 413.828519 
L 147.960552 406.69999 
L 153.451295 386.954726 
L 153.015973 378.634896 
L 149.089954 371.582979 
L 148.225398 364.963341 
L 155.350883 359.973371 
L 163.364263 357.110797 
L 168.286753 366.724418 
L 179.885199 366.701079 
L 183.247024 364.221568 
L 194.689201 364.908038 
L 200.177914 374.757077 
L 191.105149 380.073286 
L 190.851972 395.393788 
L 187.66316 398.267524 
L 186.874202 407.548311 
L 178.390492 409.164787 
L 186.256734 420.936753 
L 180.836008 433.838122 
L 187.606842 439.675906 
L 184.912208 445.014438 
L 177.63502 452.377879 
L 179.272298 458.879807 
L 171.380687 463.975818 
L 161.028338 461.214718 
L 150.895172 463.376108 
L 153.894735 448.009942 
L 152.050958 435.935584 
L 143.264348 434.124278 
z
" clip-path="url(#pff3ff9379d)" style="fill: #e8edf4; stroke: #b8c5d4; stroke-width: 0.45"/>
    <path d="M 141.194284 342.459007 
L 168.97373 328.287187 
L 193.002707 331.830142 
L 219.366595 331.705836 
L 240.260542 335.059543 
L 288.300738 334.679524 
L 296.127407 342.313899 
L 332.274376 351.238006 
L 339.413052 346.992852 
L 361.50794 355.875355 
L 384.270525 353.329886 
L 385.320778 364.736547 
L 366.712527 377.814988 
L 341.552118 381.965263 
L 339.800682 388.571202 
L 327.731397 399.457303 
L 320.163487 415.440429 
L 327.821709 426.661901 
L 316.463755 435.422634 
L 312.21708 448.186507 
L 297.391769 452.099841 
L 283.48784 467.198623 
L 239.847036 467.126069 
L 227.548421 474.060276 
L 220.048498 481.480035 
L 210.440967 479.850874 
L 203.170374 473.216522 
L 197.603526 461.920975 
L 179.272298 458.879807 
L 177.63502 452.377879 
L 184.912208 445.014438 
L 187.606842 439.675906 
L 180.836008 433.838122 
L 186.256734 420.936753 
L 178.390492 409.164787 
L 186.874202 407.548311 
L 187.66316 398.267524 
L 190.851972 395.393788 
L 191.105149 380.073286 
L 200.177914 374.757077 
L 194.689201 364.908038 
L 183.247024 364.221568 
L 179.885199 366.701079 
L 168.286753 366.724418 
L 163.364263 357.110797 
L 155.350883 359.973371 
L 148.225398 364.963341 
L 149.214767 350.978233 
z
" clip-path="url(#pff3ff9379d)" style="fill: #e8edf4; stroke: #b8c5d4; stroke-width: 0.45"/>
    <path d="M 129.72268 169.78016 
L 145.643907 149.27638 
L 135.388973 129.311425 
L 176.94652 104.760873 
L 180.994307 115.281668 
L 176.94652 125.804493 
L 189.090388 125.534573 
L 203.932442 129.58236 
L 207.170468 143.610594 
L 192.327907 161.146776 
L 157.517347 172.748266 
z
" clip-path="url(#pff3ff9379d)" style="fill: #e8edf4; stroke: #b8c5d4; stroke-width: 0.45"/>
    <path d="M 458.18094 303.149102 
L 464.988812 297.16824 
L 459.209883 289.79516 
L 460.019644 284.246577 
L 468.468346 288.452662 
L 477.935844 287.519104 
L 488.944728 280.859384 
L 492.348157 283.971583 
L 501.702004 283.347519 
L 505.954768 275.42851 
L 520.48479 277.889248 
L 529.135425 274.577146 
L 530.693047 266.526728 
L 542.589826 269.318777 
L 544.872984 265.58353 
L 564.278819 262.170461 
L 568.665528 269.000657 
L 596.745336 274.071807 
L 594.617432 283.743267 
L 599.320739 292.103687 
L 583.689727 289.243143 
L 567.724867 296.212358 
L 568.810635 305.959924 
L 566.406723 311.55417 
L 572.843201 321.551361 
L 591.255608 331.44099 
L 601.13103 347.674756 
L 622.981367 363.499075 
L 638.368842 363.377814 
L 643.154343 367.717845 
L 637.645334 371.629657 
L 669.649131 384.667001 
L 686.487681 394.907729 
L 688.521214 398.574989 
L 684.851924 405.606611 
L 673.953647 396.43846 
L 656.893885 393.207029 
L 648.629865 405.908495 
L 662.821979 413.187713 
L 660.492143 423.434529 
L 652.289007 424.59894 
L 641.800683 441.440534 
L 633.614798 442.953507 
L 633.690903 436.949814 
L 637.697086 426.417856 
L 641.965071 422.22344 
L 628.303664 400.941356 
L 620.15228 398.494825 
L 614.355086 390.01974 
L 601.736829 386.449894 
L 593.240434 378.557268 
L 578.711426 377.284788 
L 545.404707 355.638921 
L 532.052794 344.327645 
L 525.927841 324.91623 
L 516.157951 322.633071 
L 500.182943 316.151944 
L 491.142649 318.804975 
L 479.796872 327.917822 
L 471.636355 329.357227 
L 473.882984 320.833942 
L 463.239405 318.342762 
z
" clip-path="url(#pff3ff9379d)" style="fill: #e8edf4; stroke: #b8c5d4; stroke-width: 0.45"/>
    <path d="M 569.736076 448.763892 
L 572.483984 438.68197 
L 595.462708 440.477041 
L 630.400111 436.624591 
L 623.328407 452.080561 
L 626.267086 458.164418 
L 622.145223 468.262068 
L 607.128127 460.866155 
L 597.143113 458.747384 
z
" clip-path="url(#pff3ff9379d)" style="fill: #e8edf4; stroke: #b8c5d4; stroke-width: 0.45"/>
    <path d="M 485.86906 383.236222 
L 496.668908 384.218487 
L 506.487505 378.131079 
L 518.268604 392.072553 
L 515.510548 418.044245 
L 506.581876 416.805251 
L 498.572555 423.360961 
L 491.137575 418.152822 
L 490.351154 394.462259 
z
" clip-path="url(#pff3ff9379d)" style="fill: #e8edf4; stroke: #b8c5d4; stroke-width: 0.45"/>
    <path d="M 484.494091 77.105225 
L 493.39841 65.912673 
L 510.698664 64.693974 
L 517.592789 59.276799 
L 533.389203 53.737856 
L 532.723536 63.836521 
L 526.909092 70.232409 
L 529.265311 75.73127 
L 539.911934 78.703436 
L 535.113242 86.111017 
L 529.265311 83.97804 
L 515.126978 98.116373 
L 520.466525 107.677227 
L 507.902049 110.666643 
L 493.060502 108.077034 
L 485.089741 97.179264 
z
" clip-path="url(#pff3ff9379d)" style="fill: #e8edf4; stroke: #b8c5d4; stroke-width: 0.45"/>
    <path d="M 539.749576 92.02998 
L 568.555936 85.521455 
L 574.821939 95.36745 
L 563.039825 111.272441 
L 542.491396 100.180856 
z
" clip-path="url(#pff3ff9379d)" style="fill: #e8edf4; stroke: #b8c5d4; stroke-width: 0.45"/>
    <path d="M 204.873103 72.294355 
L 212.004169 51.993523 
L 227.258206 36.065193 
L 242.937926 37.61977 
L 266.628996 35.96727 
L 245.641186 57.213331 
L 265.647237 54.523263 
L 287.163218 54.625751 
L 282.043869 70.625113 
L 264.390485 88.2237 
L 284.694362 89.476393 
L 303.741995 114.709356 
L 317.183204 117.86316 
L 334.865 147.992737 
L 358.655514 151.733058 
L 356.268852 164.290939 
L 346.265572 170.049065 
L 354.106447 180.207599 
L 336.442916 190.490946 
L 310.172384 190.309308 
L 276.741867 195.708725 
L 267.585893 191.843084 
L 254.602838 201.043199 
L 236.438027 198.814836 
L 222.643182 206.312729 
L 212.205595 202.391784 
L 241.003837 181.76725 
L 258.581115 177.525649 
L 227.761516 174.237393 
L 222.20583 166.423409 
L 242.724831 160.337015 
L 231.970646 149.759902 
L 235.701835 136.898108 
L 264.884779 138.674342 
L 267.807106 127.276369 
L 254.356256 114.905201 
L 230.514498 111.45002 
L 225.834023 106.135842 
L 232.970162 97.360902 
L 226.512375 91.95083 
L 215.939827 101.235676 
L 214.789115 82.308797 
z
" clip-path="url(#pff3ff9379d)" style="fill: #e8edf4; stroke: #b8c5d4; stroke-width: 0.45"/>
    <path d="M 176.94652 125.804493 
L 180.994307 115.281668 
L 176.94652 104.760873 
L 193.408095 103.951112 
L 214.456282 116.091428 
L 203.932442 129.58236 
L 189.090388 125.534573 
z
" clip-path="url(#pff3ff9379d)" style="fill: #e8edf4; stroke: #b8c5d4; stroke-width: 0.45"/>
   </g>
   <g id="PathCollection_1">
    <defs>
     <path id="mc26651d87d" d="M 0 2.12132 
C 0.562581 2.12132 1.102195 1.897805 1.5 1.5 
C 1.897805 1.102195 2.12132 0.562581 2.12132 0 
C 2.12132 -0.562581 1.897805 -1.102195 1.5 -1.5 
C 1.102195 -1.897805 0.562581 -2.12132 0 -2.12132 
C -0.562581 -2.12132 -1.102195 -1.897805 -1.5 -1.5 
C -1.897805 -1.102195 -2.12132 -0.562581 -2.12132 0 
C -2.12132 0.562581 -1.897805 1.102195 -1.5 1.5 
C -1.102195 1.897805 -0.562581 2.12132 0 2.12132 
z
" style="stroke: #ffffff; stroke-width: 0.5"/>
    </defs>
    <g clip-path="url(#pff3ff9379d)">
     <use xlink:href="#mc26651d87d" x="355.090909" y="352.8" style="fill: #8aa0b7; stroke: #ffffff; stroke-width: 0.5"/>
     <use xlink:href="#mc26651d87d" x="302.577382" y="159.273818" style="fill: #8aa0b7; stroke: #ffffff; stroke-width: 0.5"/>
     <use xlink:href="#mc26651d87d" x="198.1512" y="111.514254" style="fill: #8aa0b7; stroke: #ffffff; stroke-width: 0.5"/>
     <use xlink:href="#mc26651d87d" x="274.909091" y="216" style="fill: #8aa0b7; stroke: #ffffff; stroke-width: 0.5"/>
     <use xlink:href="#mc26651d87d" x="237.272727" y="122.072727" style="fill: #8aa0b7; stroke: #ffffff; stroke-width: 0.5"/>
     <use xlink:href="#mc26651d87d" x="283.090909" y="220.254545" style="fill: #8aa0b7; stroke: #ffffff; stroke-width: 0.5"/>
     <use xlink:href="#mc26651d87d" x="512.836364" y="259.2" style="fill: #8aa0b7; stroke: #ffffff; stroke-width: 0.5"/>
     <use xlink:href="#mc26651d87d" x="446.727273" y="210.436364" style="fill: #8aa0b7; stroke: #ffffff; stroke-width: 0.5"/>
     <use xlink:href="#mc26651d87d" x="470.945454" y="328.581818" style="fill: #8aa0b7; stroke: #ffffff; stroke-width: 0.5"/>
    </g>
   </g>
   <g id="PathCollection_2">
    <defs>
     <path id="m7dcf92a76e" d="M 0 3.674235 
C 0.974418 3.674235 1.909058 3.287094 2.598076 2.598076 
C 3.287094 1.909058 3.674235 0.974418 3.674235 0 
C 3.674235 -0.974418 3.287094 -1.909058 2.598076 -2.598076 
C 1.909058 -3.287094 0.974418 -3.674235 0 -3.674235 
C -0.974418 -3.674235 -1.909058 -3.287094 -2.598076 -2.598076 
C -3.287094 -1.909058 -3.674235 -0.974418 -3.674235 0 
C -3.674235 0.974418 -3.287094 1.909058 -2.598076 2.598076 
C -1.909058 3.287094 -0.974418 3.674235 0 3.674235 
z
" style="stroke: #ffffff; stroke-width: 1.2"/>
    </defs>
    <g clip-path="url(#pff3ff9379d)">
     <use xlink:href="#m7dcf92a76e" x="274.909091" y="216" style="fill: #f97316; stroke: #ffffff; stroke-width: 1.2"/>
    </g>
   </g>
   <g id="PathCollection_3">
    <path d="M 274.909091 220.929503 
C 276.21641 220.929503 277.470361 220.410099 278.394776 219.485685 
C 279.31919 218.561271 279.838594 217.307319 279.838594 216 
C 279.838594 214.692681 279.31919 213.438729 278.394776 212.514315 
C 277.470361 211.589901 276.21641 211.070497 274.909091 211.070497 
C 273.601771 211.070497 272.34782 211.589901 271.423406 212.514315 
C 270.498991 213.438729 269.979588 214.692681 269.979588 216 
C 269.979588 217.307319 270.498991 218.561271 271.423406 219.485685 
C 272.34782 220.410099 273.601771 220.929503 274.909091 220.929503 
L 274.909091 220.929503 
z
" clip-path="url(#pff3ff9379d)" style="fill: none; stroke: #7c2d12; stroke-width: 1.1"/>
   </g>
  </g>
 </g>
 <defs>
  <clipPath id="pff3ff9379d">
   <rect x="0" y="0" width="549.818182" height="432"/>
  </clipPath>
 </defs>
</svg>
