<?xml version="1.0" encoding="utf-8" standalone="no"?>
<!DOCTYPE svg PUBLIC "-//W3C//DTD SVG 1.1//EN"
  "http://www.w3.org/Graphics/SVG/1.1/DTD/svg11.dtd">
<svg xmlns:xlink="http://www.w3.org/1999/xlink" width="576pt" height="384pt" viewBox="0 0 576 384" xmlns="http://www.w3.org/2000/svg" version="1.1">
 <metadata>
  <rdf:RDF xmlns:dc="http://purl.org/dc/elements/1.1/" xmlns:cc="http://creativecommons.org/ns#" xmlns:rdf="http://www.w3.org/1999/02/22-rdf-syntax-ns#">
   <cc:Work>
    <dc:type rdf:resource="http://purl.org/dc/dcmitype/StillImage"/>
    <dc:date>2026-06-09T04:56:57.028012</dc:date>
    <dc:format>image/svg+xml</dc:format>
    <dc:creator>
     <cc:Agent>
      <dc:title>Matplotlib v3.10.8, https://matplotlib.org/</dc:title>
     </cc:Agent>
    </dc:creator>
   </cc:Work>
  </rdf:RDF>
 </metadata>
 <defs>
  <style type="text/css">*{stroke-linejoin: round; stroke-linecap: butt}</style>
 </defs>
 <g id="figure_1">
  <g id="patch_1">
   <path d="M 0 384 
L 576 384 
L 576 0 
L 0 0 
z
" style="fill: #eaf3ff"/>
  </g>
  <g id="axes_1">
   <g id="PatchCollection_1">
    <path d="M 274.122908 86.008584 
L 281.873072 75.832765 
L 277.951503 73.094188 
L 288.664353 58.342511 
L 302.471717 66.129101 
L 304.143865 56.32275 
L 331.859894 41.719554 
L 352.833212 41.371942 
L 398.325348 56.100117 
L 412.57148 50.436252 
L 433.857164 50.166512 
L 451.029245 57.124133 
L 454.929999 53.139771 
L 473.789194 53.718779 
L 477.153612 47.360106 
L 455.396258 38.125824 
L 468.282207 31.585365 
L 465.76774 27.927454 
L 478.657157 24.436411 
L 468.964249 15.23925 
L 475.120783 10.657343 
L 525.362129 5.985193 
L 531.918814 2.668531 
L 565.515194 -2.287777 
L 577.586577 -7.857904 
L 601.715467 -4.964255 
L 605.943018 8.951695 
L 619.960616 5.684068 
L 637.205251 10.263048 
L 636.093029 17.591358 
L 648.97101 16.82551 
L 682.621766 4.155197 
L 677.708703 8.364708 
L 694.837468 18.737925 
L 724.841079 52.836911 
L 731.99593 45.806951 
L 750.491554 53.542544 
L 769.785785 50.09209 
L 777.198744 52.508032 
L 783.660452 60.266522 
L 793.048072 62.872576 
L 798.763905 68.571409 
L 816.058496 66.774717 
L 823.182818 74.987671 
L 812.962593 83.927072 
L 801.811238 85.18153 
L 801.170133 98.645445 
L 793.702361 104.714441 
L 767.066636 100.296084 
L 757.378584 124.334775 
L 750.506125 127.323827 
L 723.908561 132.687884 
L 735.993821 156.011922 
L 726.782436 159.506781 
L 727.854415 167.160849 
L 719.579016 165.191391 
L 712.846018 160.365752 
L 670.662091 158.594385 
L 665.783026 160.072953 
L 646.662255 154.427891 
L 639.041838 157.208098 
L 636.953388 165.134843 
L 614.865074 160.509376 
L 606.025585 162.403899 
L 603.018494 168.2866 
L 595.320368 170.768456 
L 577.611555 180.127629 
L 571.736834 189.735196 
L 566.734266 189.820538 
L 563.054846 183.460824 
L 545.978814 183.025094 
L 543.24787 172.026037 
L 536.705677 171.932022 
L 537.707578 158.464984 
L 521.633447 148.657939 
L 498.606371 149.705287 
L 482.863894 151.660174 
L 470.041778 139.558262 
L 435.734294 123.701648 
L 401.171477 131.636026 
L 401.698793 181.142713 
L 394.811763 181.797696 
L 385.414429 171.269754 
L 376.339036 167.508461 
L 361.098203 170.302198 
L 355.165893 174.76947 
L 354.412386 171.495598 
L 357.712276 165.900146 
L 355.152016 161.222294 
L 339.590631 156.648171 
L 333.53343 144.590318 
L 326.119778 141.193637 
L 325.670171 136.818992 
L 338.732354 138.094265 
L 339.247875 128.277506 
L 350.667051 126.097122 
L 362.394985 128.102312 
L 364.811621 115.003356 
L 362.419963 106.700897 
L 348.983802 107.350329 
L 337.570176 104.073335 
L 322.024055 109.977198 
L 309.498092 112.792213 
L 302.678601 110.621001 
L 304.041177 103.711846 
L 295.481958 94.74099 
L 285.519306 95.11586 
z
" clip-path="url(#p1f685814e2)" style="fill: #e8edf4; stroke: #b8c5d4; stroke-width: 0.45"/>
    <path d="M 401.171477 131.636026 
L 435.734294 123.701648 
L 470.041778 139.558262 
L 482.863894 151.660174 
L 498.606371 149.705287 
L 521.633447 148.657939 
L 537.707578 158.464984 
L 536.705677 171.932022 
L 543.24787 172.026037 
L 545.978814 183.025094 
L 563.054846 183.460824 
L 566.734266 189.820538 
L 571.736834 189.735196 
L 577.611555 180.127629 
L 595.320368 170.768456 
L 603.018494 168.2866 
L 607.005283 169.60836 
L 595.737364 178.304918 
L 605.643974 183.35883 
L 615.207136 180.011411 
L 631.121684 187.085431 
L 613.928393 196.755096 
L 603.715106 195.432295 
L 598.172733 195.779213 
L 596.249416 192.047062 
L 599.048356 185.820912 
L 581.095313 188.941099 
L 576.827519 197.556478 
L 570.44699 204.977416 
L 559.235965 204.346024 
L 555.755677 210.258213 
L 565.608168 213.46166 
L 568.508408 223.458122 
L 560.962233 237.046234 
L 550.835676 234.211215 
L 543.354721 234.122057 
L 543.724536 225.906328 
L 525.865161 220.159619 
L 511.823973 213.584469 
L 487.710348 197.989779 
L 481.110566 184.147376 
L 476.60548 181.710272 
L 462.08832 182.328481 
L 456.951148 179.578457 
L 455.515598 168.864913 
L 437.424481 161.769385 
L 426.11285 169.570199 
L 414.64233 174.196013 
L 416.846651 180.959193 
L 401.698793 181.142713 
z
" clip-path="url(#p1f685814e2)" style="fill: #e8edf4; stroke: #b8c5d4; stroke-width: 0.45"/>
    <path d="M 16.62458 -35.909751 
L 22.37788 -40.170953 
L 18.39642 -52.693527 
L 27.950088 -60.430659 
L 25.928324 -62.774199 
L 41.188699 -70.194797 
L 27.121678 -76.57873 
L 68.341139 -101.473917 
L 73.390888 -108.321398 
L 53.516609 -117.520295 
L 59.005557 -126.269585 
L 46.918215 -136.261884 
L 55.957259 -147.772599 
L 40.34133 -163.05615 
L 52.731879 -173.179932 
L 32.169313 -182.126272 
L 34.129404 -191.527075 
L 44.972979 -192.764241 
L 67.818697 -198.150848 
L 81.670087 -202.821147 
L 103.72659 -194.70438 
L 140.495127 -191.508856 
L 191.225824 -176.323133 
L 201.531122 -169.941885 
L 202.41835 -161.005829 
L 187.513242 -153.951508 
L 165.589259 -150.371312 
L 105.649813 -160.576582 
L 95.791083 -158.870333 
L 117.680828 -149.036979 
L 119.414736 -129.088045 
L 147.191899 -121.508207 
L 148.92715 -128.018484 
L 140.839103 -133.788554 
L 149.384593 -138.874003 
L 181.842126 -130.516901 
L 193.149315 -133.788554 
L 184.113231 -143.621639 
L 215.403726 -156.771759 
L 227.795782 -155.997717 
L 240.332308 -151.30513 
L 248.153421 -160.532677 
L 236.957404 -168.536392 
L 243.530517 -176.566288 
L 233.660241 -184.894523 
L 271.216783 -180.587413 
L 278.887922 -173.068129 
L 261.887597 -171.410618 
L 261.979569 -163.939133 
L 272.548028 -159.342143 
L 293.292218 -162.254098 
L 296.576358 -170.817969 
L 371.47878 -188.742445 
L 381.606176 -188.081455 
L 368.369052 -179.933673 
L 385.024179 -178.533415 
L 394.642976 -183.12047 
L 419.80894 -183.491312 
L 439.747133 -189.057164 
L 455.045639 -180.969264 
L 470.303866 -189.861013 
L 456.234965 -197.639161 
L 463.216783 -202.06993 
L 502.878881 -198.006915 
L 521.462803 -193.810372 
L 570.121309 -178.470445 
L 579.097242 -185.496571 
L 565.452621 -192.595603 
L 565.060297 -195.443782 
L 548.879396 -196.761197 
L 553.305869 -203.127004 
L 546.1248 -213.60188 
L 545.718512 -217.899457 
L 570.49591 -230.057622 
L 579.307771 -242.260498 
L 589.292308 -244.900699 
L 624.839698 -241.359978 
L 627.639004 -233.891715 
L 614.911687 -223.00169 
L 623.263015 -218.721432 
L 627.583284 -209.335586 
L 624.533035 -190.937287 
L 639.344828 -182.707469 
L 633.582545 -173.745231 
L 607.283916 -154.674126 
L 622.630624 -152.695989 
L 627.971178 -157.529555 
L 642.743362 -160.977365 
L 646.308386 -167.621236 
L 657.928951 -174.014702 
L 650.10475 -181.647978 
L 656.36932 -190.512067 
L 641.687631 -191.616806 
L 638.458674 -199.084263 
L 649.17214 -212.566154 
L 631.735049 -223.51445 
L 655.764856 -232.564229 
L 652.655799 -242.111597 
L 659.352302 -242.41638 
L 666.407966 -234.972554 
L 661.11078 -222.01591 
L 675.478959 -219.56301 
L 669.35671 -229.245449 
L 691.82635 -234.524241 
L 719.691457 -235.235043 
L 744.503497 -227.58042 
L 732.563379 -238.762741 
L 731.225824 -253.066741 
L 754.573427 -255.776224 
L 786.867827 -255.184246 
L 815.963748 -256.942724 
L 805.051435 -263.962003 
L 820.589471 -272.780039 
L 836.015127 -273.14927 
L 862.12028 -279.80979 
L 897.574221 -281.599955 
L 902.053729 -285.277091 
L 937.309091 -286.523077 
L 948.294848 -283.508543 
L 978.428509 -290.643558 
L 1003.09487 -290.420543 
L 1006.795905 -296.215586 
L 1019.625264 -301.930607 
L 1051.322182 -307.440604 
L 1074.349292 -303.089992 
L 1056.067133 -299.780476 
L 1086.480067 -297.72339 
L 1090.103497 -291.088112 
L 1102.372699 -294.355469 
L 1141.62475 -294.176224 
L 1171.891603 -287.627278 
L 1182.668576 -282.597684 
L 1179.328313 -275.61788 
L 1129.191608 -264.19106 
L 1119.104895 -260.206993 
L 1155.614299 -254.940285 
L 1167.702915 -257.480459 
L 1174.551004 -248.86221 
L 1180.448358 -252.350836 
L 1201.917583 -254.471832 
L 1244.996878 -252.254702 
L 1248.268531 -245.974825 
L 1304.40047 -243.97722 
L 1305.167262 -254.232571 
L 1333.661538 -251.882517 
L 1355.096257 -251.956229 
L 1376.777757 -244.883379 
L 1382.958143 -236.290506 
L 1375.015385 -230.668531 
L 1391.879027 -220.102355 
L 1412.993522 -214.650495 
L 1425.949091 -228.739133 
L 1447.487463 -222.698786 
L 1470.369969 -226.308252 
L 1496.358713 -222.177969 
L 1506.247922 -225.94278 
L 1528.210305 -224.060375 
L 1518.517393 -236.525069 
L 1536.243961 -242.341729 
L 1657.51049 -233.622378 
L 1668.93892 -225.652766 
L 1704.08593 -215.392045 
L 1758.302165 -217.932218 
L 1785.033264 -215.720996 
L 1796.211155 -210.169376 
L 1794.577813 -200.35106 
L 1811.117606 -196.528515 
L 1829.089611 -199.27774 
L 1852.900431 -199.629382 
L 1878.248324 -196.994551 
L 1903.695709 -198.480873 
L 1927.084263 -186.546126 
L 1943.723144 -190.840347 
L 1932.865343 -199.421673 
L 1938.843524 -205.386697 
L 1981.68047 -201.632627 
L 2009.609354 -202.435804 
L 2048.223776 -196.027972 
L 2067.020979 -190.169104 
L 2067.020979 -136.678606 
L 2049.663105 -130.706752 
L 2032.26334 -131.690652 
L 2044.37035 -124.543955 
L 2052.362517 -113.480996 
L 2058.566803 -109.864548 
L 2060.124554 -104.310243 
L 2056.659021 -100.75435 
L 2031.632559 -103.678657 
L 1994.105152 -93.571804 
L 1982.16678 -92.007071 
L 1942.133706 -74.331927 
L 1937.197427 -68.230758 
L 1917.99219 -77.518993 
L 1883.009522 -66.979133 
L 1876.900699 -71.966434 
L 1863.967418 -66.21449 
L 1846.010048 -68.055407 
L 1841.684274 -59.22475 
L 1825.57534 -46.231452 
L 1826.053863 -40.804968 
L 1841.345924 -37.796207 
L 1839.547166 -18.249936 
L 1827.082473 -17.752481 
L 1821.334288 -6.521018 
L 1826.920145 -0.740341 
L 1803.440828 6.118087 
L 1798.78127 21.448011 
L 1778.765069 24.722618 
L 1774.740319 38.363883 
L 1755.38739 50.872615 
L 1750.422378 41.622378 
L 1737.179211 -7.801242 
L 1743.634171 -26.422422 
L 1754.962573 -34.435133 
L 1755.663441 -40.709908 
L 1776.528067 -43.713566 
L 1800.51209 -60.617891 
L 1823.624593 -74.423497 
L 1847.760873 -85.136559 
L 1858.553958 -104.064134 
L 1842.238926 -102.931737 
L 1834.176134 -91.871329 
L 1800.120571 -77.125326 
L 1789.122059 -93.636386 
L 1754.45948 -89.077527 
L 1720.857869 -66.571368 
L 1731.944056 -58.33779 
L 1681.218193 -53.449712 
L 1682.190545 -63.158064 
L 1661.319743 -65.195815 
L 1644.685561 -58.600011 
L 1603.632604 -60.907905 
L 1559.467234 -56.928403 
L 1464.519474 0.945365 
L 1485.673309 2.63765 
L 1492.27529 11.045773 
L 1505.316252 14.030635 
L 1513.908319 7.323524 
L 1528.635659 8.194506 
L 1548.020945 22.965214 
L 1548.476375 34.388543 
L 1537.979345 47.803032 
L 1536.846948 63.836241 
L 1530.78955 85.302915 
L 1510.552884 104.731972 
L 1506.054848 114.019133 
L 1461.07153 153.086971 
L 1443.180352 160.964878 
L 1434.713555 161.139155 
L 1426.278982 154.612901 
L 1408.257835 164.438736 
L 1406.165035 168.906294 
L 1404.285315 166.556643 
L 1404.202962 159.735748 
L 1411.061544 159.373564 
L 1412.993188 143.509666 
L 1409.457097 132.010607 
L 1420.980644 127.26832 
L 1437.276017 129.645785 
L 1446.30571 116.583917 
L 1450.907077 101.874394 
L 1456.122764 96.960671 
L 1463.178448 84.879711 
L 1440.98814 88.837706 
L 1429.348565 94.134243 
L 1408.947827 94.118534 
L 1403.510512 81.503498 
L 1387.607064 71.958376 
L 1364.239217 67.666305 
L 1359.272132 54.51461 
L 1341.265664 26.949837 
L 1329.475285 22.005552 
L 1309.379178 18.00772 
L 1291.579273 18.371232 
L 1274.894564 20.792377 
L 1263.804267 27.472297 
L 1271.171433 30.663255 
L 1271.33807 38.076285 
L 1263.871284 42.380308 
L 1251.75125 56.620934 
L 1251.873039 62.529126 
L 1232.952093 71.01337 
L 1216.83425 65.944194 
L 1200.814932 67.063354 
L 1193.784971 62.564512 
L 1185.733682 61.113698 
L 1166.067554 70.575905 
L 1148.391352 72.799307 
L 1136.049372 76.126952 
L 1119.137779 73.94067 
L 1106.687561 74.080478 
L 1098.537746 67.217385 
L 1085.38814 60.764698 
L 1071.931857 58.996106 
L 1042.258512 63.239616 
L 1023.183978 57.592481 
L 1020.623799 47.531278 
L 992.649831 42.508448 
L 977.608824 36.958442 
L 963.70224 50.873351 
L 969.153721 58.776159 
L 956.103071 68.125762 
L 936.691737 64.750187 
L 923.291068 64.267189 
L 914.316975 57.995592 
L 900.308274 57.797505 
L 888.633889 53.677148 
L 868.211479 59.992456 
L 842.592226 71.556645 
L 823.182818 74.987671 
L 816.058496 66.774717 
L 798.763905 68.571409 
L 793.048072 62.872576 
L 783.660452 60.266522 
L 777.198744 52.508032 
L 769.785785 50.09209 
L 750.491554 53.542544 
L 731.99593 45.806951 
L 724.841079 52.836911 
L 694.837468 18.737925 
L 677.708703 8.364708 
L 682.621766 4.155197 
L 648.97101 16.82551 
L 636.093029 17.591358 
L 637.205251 10.263048 
L 619.960616 5.684068 
L 605.943018 8.951695 
L 601.715467 -4.964255 
L 577.586577 -7.857904 
L 565.515194 -2.287777 
L 531.918814 2.668531 
L 525.362129 5.985193 
L 475.120783 10.657343 
L 468.964249 15.23925 
L 478.657157 24.436411 
L 465.76774 27.927454 
L 468.282207 31.585365 
L 455.396258 38.125824 
L 477.153612 47.360106 
L 473.789194 53.718779 
L 454.929999 53.139771 
L 451.029245 57.124133 
L 433.857164 50.166512 
L 412.57148 50.436252 
L 398.325348 56.100117 
L 352.833212 41.371942 
L 331.859894 41.719554 
L 304.143865 56.32275 
L 302.471717 66.129101 
L 288.664353 58.342511 
L 277.951503 73.094188 
L 281.873072 75.832765 
L 274.122908 86.008584 
L 285.519306 95.11586 
L 295.481958 94.74099 
L 304.041177 103.711846 
L 302.678601 110.621001 
L 309.498092 112.792213 
L 303.378931 120.754708 
L 290.361869 122.967407 
L 277.017197 136.827524 
L 289.221013 149.56988 
L 287.899569 158.613751 
L 302.559373 174.426227 
L 294.542543 179.837952 
L 292.238309 183.253714 
L 286.299061 182.336461 
L 277.071717 174.181096 
L 264.857958 170.618987 
L 260.747804 165.109518 
L 248.225427 162.300518 
L 240.083379 164.408929 
L 237.730775 161.913331 
L 219.449287 155.475692 
L 188.334075 151.007273 
L 186.696619 152.593038 
L 169.577622 141.247552 
L 154.259513 136.182915 
L 142.663519 128.295071 
L 152.434171 126.149236 
L 163.575273 114.919787 
L 156.06673 109.606892 
L 175.856828 104.126434 
L 175.501427 101.19125 
L 163.448902 103.355213 
L 163.872837 97.390987 
L 170.793667 93.642025 
L 183.786665 92.657628 
L 185.899234 88.180229 
L 182.932364 80.776683 
L 188.385419 73.746396 
L 188.22767 69.804084 
L 168.436206 65.434917 
L 160.590292 65.579929 
L 152.303792 59.292375 
L 142.001694 61.418639 
L 124.949252 56.69777 
L 125.241869 54.05619 
L 120.465675 48.233994 
L 109.759763 47.583868 
L 108.647542 43.415987 
L 112.000858 40.697532 
L 103.420865 33.095502 
L 89.498323 34.392631 
L 85.420641 33.718221 
L 82.028845 36.772028 
L 77.014422 36.229192 
L 73.712134 27.631186 
L 70.559337 23.174321 
L 73.143138 21.919821 
L 83.976765 22.385775 
L 89.201361 19.449455 
L 85.333911 15.869601 
L 76.280027 13.506738 
L 77.087653 11.081776 
L 71.623684 8.63253 
L 63.206048 -0.158043 
L 66.083392 -3.780222 
L 64.76857 -10.083041 
L 51.642554 -13.2851 
L 44.597329 -11.682336 
L 42.68997 -15.015531 
L 28.55442 -18.382724 
L 24.238752 -26.307041 
L 23.09392 -32.818011 
z
" clip-path="url(#p1f685814e2)" style="fill: #e8edf4; stroke: #b8c5d4; stroke-width: 0.45"/>
    <path d="M 341.112216 -231.136865 
L 354.841177 -234.017678 
L 354.383245 -241.33905 
L 381.014112 -252.789449 
L 368.670745 -254.431068 
L 400.816232 -266.215203 
L 397.183993 -272.309871 
L 427.215358 -279.398808 
L 471.541855 -288.025288 
L 516.229841 -290.538367 
L 539.224307 -295.515957 
L 565.35353 -297.260264 
L 574.687031 -291.958306 
L 565.669226 -287.780364 
L 477.093248 -274.719568 
L 435.384599 -261.939777 
L 394.329546 -235.921915 
L 397.061878 -224.768825 
L 422.744963 -213.757279 
L 414.813708 -212.57949 
L 370.940981 -214.323797 
L 367.378125 -220.285248 
L 343.074389 -223.884876 
z
" clip-path="url(#p1f685814e2)" style="fill: #e8edf4; stroke: #b8c5d4; stroke-width: 0.45"/>
    <path d="M -2766.545455 -136.678606 
L -2766.545455 -190.169104 
L -2733.65035 -179.916084 
L -2698.449231 -166.568593 
L -2699.603916 -158.223441 
L -2690.548766 -154.883043 
L -2693.663597 -164.639194 
L -2657.217029 -162.637158 
L -2630.931424 -150.072034 
L -2644.243737 -144.220062 
L -2666.252308 -142.83068 
L -2666.584615 -129.711306 
L -2671.959676 -126.917236 
L -2684.533796 -127.318825 
L -2694.765919 -132 
L -2712.618025 -135.915592 
L -2715.62061 -141.739905 
L -2729.255295 -143.93609 
L -2744.524934 -142.194394 
L -2751.8208 -146.892621 
L -2748.904414 -151.882876 
L -2764.984884 -148.693393 
L -2758.928291 -142.376862 
z
" clip-path="url(#p1f685814e2)" style="fill: #e8edf4; stroke: #b8c5d4; stroke-width: 0.45"/>
    <path d="M 1551.36102 38.461294 
L 1552.54887 20.113457 
L 1564.960233 13.934835 
L 1559.627399 7.713889 
L 1565.602727 5.828733 
L 1573.740052 27.648532 
L 1573.396602 40.861624 
L 1578.938282 54.409841 
L 1592.447296 78.191118 
L 1572.573017 73.758191 
L 1564.312189 93.159272 
L 1577.400738 106.919456 
L 1577.021903 116.302219 
L 1566.850246 108.207912 
L 1558.046837 118.600209 
L 1555.561512 107.332983 
L 1557.058813 94.25276 
L 1555.528207 79.764741 
L 1558.634518 69.614594 
L 1559.227748 51.660857 
z
" clip-path="url(#p1f685814e2)" style="fill: #e8edf4; stroke: #b8c5d4; stroke-width: 0.45"/>
    <path d="M 85.986118 127.183672 
L 88.357655 124.609535 
L 101.211686 120.146772 
L 99.168511 118.5309 
L 102.706061 115.205735 
L 116.569744 118.614838 
L 118.312174 121.266362 
L 120.337799 121.675298 
L 120.446941 122.83678 
L 127.0155 126.075613 
L 140.710463 125.270068 
L 138.088451 130.060321 
L 123.390199 132.386064 
L 105.163784 140.153574 
L 97.6974 137.42263 
L 100.658004 131.113567 
z
" clip-path="url(#p1f685814e2)" style="fill: #e8edf4; stroke: #b8c5d4; stroke-width: 0.45"/>
    <path d="M 252.378737 -346.268776 
L 278.589833 -348.713859 
L 298.989347 -348.876217 
L 301.73278 -345.258549 
L 309.444783 -348.473098 
L 322.100377 -350.687133 
L 342.014205 -347.744568 
L 336.821526 -345.697748 
L 306.722165 -342.908868 
L 304.849498 -340.705588 
L 289.156283 -338.486349 
L 274.61137 -341.669328 
L 282.259539 -345.8608 
z
" clip-path="url(#p1f685814e2)" style="fill: #e8edf4; stroke: #b8c5d4; stroke-width: 0.45"/>
    <path d="M 874.487094 -342.934288 
L 909.3504 -352.106517 
L 938.395234 -355.138238 
L 964.482462 -348.378965 
L 995.401242 -335.397617 
L 992.086288 -323.324509 
L 962.791922 -321.649678 
L 925.394215 -325.523849 
L 903.109997 -330.64951 
L 892.805371 -340.280257 
z
" clip-path="url(#p1f685814e2)" style="fill: #e8edf4; stroke: #b8c5d4; stroke-width: 0.45"/>
    <path d="M 1489.334467 -274.730115 
L 1496.549505 -283.960884 
L 1514.263385 -286.479575 
L 1549.716789 -285.890551 
L 1598.249421 -278.770909 
L 1587.692308 -268.8 
L 1538.199407 -269.171648 
L 1515.93318 -266.000291 
z
" clip-path="url(#p1f685814e2)" style="fill: #e8edf4; stroke: #b8c5d4; stroke-width: 0.45"/>
    <path d="M -85.78721 5.020412 
L -82.728081 -0.888307 
L -64.199847 -5.242831 
L -50.138538 -2.890722 
L -44.203452 -0.7596 
L -45.636227 2.917044 
L -44.561472 6.34356 
L -69.250983 6.54512 
z
" clip-path="url(#p1f685814e2)" style="fill: #e8edf4; stroke: #b8c5d4; stroke-width: 0.45"/>
    <path d="M 1528.120213 -249.329186 
L 1540.856526 -254.635771 
L 1557.644576 -255.877997 
L 1576.720515 -250.744615 
L 1578.345399 -247.215978 
L 1557.987759 -247.121992 
z
" clip-path="url(#p1f685814e2)" style="fill: #e8edf4; stroke: #b8c5d4; stroke-width: 0.45"/>
    <path d="M 985.35125 -310.435804 
L 1009.878378 -328.064761 
L 1020.907636 -329.574176 
L 1030.997236 -328.699838 
L 1065.028431 -321.074215 
L 1061.041276 -315.616985 
z
" clip-path="url(#p1f685814e2)" style="fill: #e8edf4; stroke: #b8c5d4; stroke-width: 0.45"/>
    <path d="M -2766.545455 -215.2575 
L -2766.545455 -224.434766 
L -2753.44555 -224.969354 
L -2734.025555 -221.128683 
L -2735.175273 -219.293136 
L -2749.007396 -216.074115 
z
" clip-path="url(#p1f685814e2)" style="fill: #e8edf4; stroke: #b8c5d4; stroke-width: 0.45"/>
    <path d="M 1612.117796 -273.539312 
L 1615.330708 -277.887373 
L 1674.047597 -272.345421 
L 1658.529902 -267.040045 
L 1637.068062 -268.24085 
z
" clip-path="url(#p1f685814e2)" style="fill: #e8edf4; stroke: #b8c5d4; stroke-width: 0.45"/>
    <path d="M 2049.906126 -218.837035 
L 2067.020979 -224.434766 
L 2067.020979 -215.2575 
L 2052.297734 -214.57195 
z
" clip-path="url(#p1f685814e2)" style="fill: #e8edf4; stroke: #b8c5d4; stroke-width: 0.45"/>
    <path d="M 110.30512 316.607183 
L 114.211424 312.183622 
L 113.294865 311.422136 
L 116.845925 305.146723 
L 119.569237 295.017044 
L 121.489779 291.617935 
L 126.353579 291.503798 
L 127.589997 289.150996 
L 131.192401 288.974414 
L 131.397777 294.469953 
L 127.494248 300.835911 
L 122.637386 298.97608 
L 119.827344 307.917216 
L 123.200782 309.424231 
L 119.771837 311.271226 
L 119.193177 314.807022 
L 125.50571 312.985698 
L 125.819324 318.208906 
L 119.12865 339.674501 
z
" clip-path="url(#p1f685814e2)" style="fill: #e8edf4; stroke: #b8c5d4; stroke-width: 0.45"/>
    <path d="M 121.860288 291.47882 
L 126.642215 280.542208 
L 133.572957 270.613741 
L 139.612118 271.298212 
L 141.808113 276.563397 
L 134.486741 281.623554 
L 131.192401 288.974414 
L 127.589997 289.150996 
L 126.353579 291.503798 
z
" clip-path="url(#p1f685814e2)" style="fill: #e8edf4; stroke: #b8c5d4; stroke-width: 0.45"/>
    <path d="M 119.193177 314.807022 
L 119.771837 311.271226 
L 123.200782 309.424231 
L 119.827344 307.917216 
L 122.637386 298.97608 
L 127.494248 300.835911 
L 127.488697 309.04609 
L 125.50571 312.985698 
z
" clip-path="url(#p1f685814e2)" style="fill: #e8edf4; stroke: #b8c5d4; stroke-width: 0.45"/>
    <path d="M 119.12865 339.674501 
L 125.819324 318.208906 
L 125.50571 312.985698 
L 127.488697 309.04609 
L 127.494248 300.835911 
L 129.833867 296.60385 
L 144.793002 301.924195 
L 171.085971 287.61484 
L 176.498596 303.964077 
L 173.939724 305.988695 
L 147.050055 312.726203 
L 160.432097 326.15161 
L 155.991538 328.431907 
L 153.78236 332.92832 
L 143.537156 334.787804 
L 140.323995 339.62177 
L 134.520045 343.753918 
L 119.577563 341.618287 
z
" clip-path="url(#p1f685814e2)" style="fill: #e8edf4; stroke: #b8c5d4; stroke-width: 0.45"/>
    <path d="M 275.496012 345.076026 
L 285.349891 332.185914 
L 294.371165 333.303686 
L 297.172881 339.229405 
L 295.974623 342.293044 
L 300.300006 352.420642 
L 290.804147 352.768948 
L 287.460545 346.371767 
z
" clip-path="url(#p1f685814e2)" style="fill: #e8edf4; stroke: #b8c5d4; stroke-width: 0.45"/>
    <path d="M 171.085971 287.61484 
L 200.809965 273.641995 
L 205.882611 257.410015 
L 204.617051 247.60193 
L 211.966177 244.28504 
L 218.847657 235.906606 
L 224.614833 233.820237 
L 240.231726 235.552749 
L 244.947045 238.972674 
L 251.381399 236.704623 
L 260.081026 252.721062 
L 268.885129 256.751217 
L 269.898132 264.594008 
L 263.140156 269.227801 
L 260.028295 279.705093 
L 269.328492 292.467192 
L 285.78007 299.826725 
L 292.68861 310.030645 
L 290.487757 319.755817 
L 294.776366 319.752001 
L 294.908889 326.904077 
L 302.339194 333.962138 
L 285.349891 332.185914 
L 275.496012 345.076026 
L 250.53313 344.0037 
L 212.676667 317.001282 
L 192.671253 307.602908 
L 176.498596 303.964077 
z
" clip-path="url(#p1f685814e2)" style="fill: #e8edf4; stroke: #b8c5d4; stroke-width: 0.45"/>
    <path d="M 348.419712 480.671284 
L 388.699055 467.244836 
L 397.650252 440.391593 
L 391.496608 430.881164 
L 391.847689 425.474783 
L 395.759545 419.917839 
L 395.797012 414.429932 
L 401.87364 411.785718 
L 399.495859 409.918601 
L 400.598367 401.174862 
L 407.454174 401.122477 
L 413.473214 410.29362 
L 420.969433 415.168522 
L 438.769832 419.370054 
L 448.448864 431.526433 
L 453.255076 433.227028 
L 453.229404 436.222324 
L 446.197362 447.992582 
L 440.541199 452.287089 
L 435.530999 461.484944 
L 429.439801 460.780699 
L 426.647799 463.982065 
L 424.491352 470.789304 
L 426.141991 479.764091 
L 424.875738 481.41369 
L 418.69781 481.369631 
L 410.311397 486.387463 
L 409.00282 492.928268 
L 405.932589 495.7619 
L 397.580868 495.653662 
L 392.323662 499.034731 
L 392.39027 504.458458 
L 385.893177 508.186447 
L 378.485075 506.920541 
L 369.506125 511.449564 
L 363.303912 512.209663 
z
" clip-path="url(#p1f685814e2)" style="fill: #e8edf4; stroke: #b8c5d4; stroke-width: 0.45"/>
    <path d="M 403.076754 385.940621 
L 406.986528 381.369273 
L 408.646881 382.53492 
L 407.381321 388.081803 
L 405.63077 390.517172 
z
" clip-path="url(#p1f685814e2)" style="fill: #e8edf4; stroke: #b8c5d4; stroke-width: 0.45"/>
    <path d="M 467.570329 335.271756 
L 490.068007 342.128257 
L 503.500006 340.117517 
L 511.525623 341.82956 
L 514.243384 338.886302 
L 523.594231 340.065826 
L 541.043548 334.483557 
L 541.513276 323.058136 
L 548.9977 315.458535 
L 558.993816 315.482125 
L 560.461282 311.72569 
L 570.722444 309.975138 
L 575.68685 311.225433 
L 580.937812 307.44957 
L 580.1961 299.386485 
L 585.897362 291.282811 
L 594.442663 287.885436 
L 589.165336 279.002583 
L 601.937495 279.422354 
L 605.629404 274.588042 
L 605.068783 269.429361 
L 611.755988 263.789157 
L 610.22122 257.111318 
L 607.046914 251.420811 
L 614.887276 245.572802 
L 629.30383 242.752353 
L 644.711184 241.192607 
L 659.352541 237.206858 
L 669.273028 243.466659 
L 673.246635 253.783674 
L 695.328011 259.213299 
L 682.361577 270.497871 
L 667.395504 272.493347 
L 647.029295 269.217741 
L 640.446859 275.00712 
L 649.86709 295.855893 
L 660.703442 302.485857 
L 649.254431 310.252673 
L 649.461889 319.823466 
L 636.428153 333.295707 
L 628.011211 346.921286 
L 613.96586 360.99786 
L 598.375334 359.977225 
L 583.577863 374.05137 
L 592.366008 380.081164 
L 593.895919 390.414831 
L 601.43932 397.223805 
L 604.105043 408.751567 
L 574.557977 408.716528 
L 565.616494 417.674316 
L 555.775104 414.279022 
L 551.770969 404.628438 
L 541.397405 394.403703 
L 516.66002 396.929271 
L 494.845772 397.179399 
L 475.936621 399.061433 
L 480.996083 383.463274 
L 500.363167 376.527676 
L 499.252333 370.344543 
L 492.828093 368.171098 
L 492.457584 356.346027 
L 479.622285 350.442511 
L 474.217292 342.333633 
z
" clip-path="url(#p1f685814e2)" style="fill: #e8edf4; stroke: #b8c5d4; stroke-width: 0.45"/>
    <path d="M 462.927169 283.616948 
L 472.089292 257.11791 
L 485.782174 262.212064 
L 495.905955 260.42127 
L 498.710446 254.337356 
L 509.308813 252.312739 
L 516.875804 248.229506 
L 519.556097 237.491678 
L 530.872586 234.894991 
L 532.976301 230.115839 
L 539.310342 233.705754 
L 550.835676 234.211215 
L 565.064893 238.68265 
L 574.784168 234.369757 
L 579.3066 236.963668 
L 583.636839 230.816268 
L 591.663151 231.095191 
L 593.730786 229.122264 
L 595.150377 223.708251 
L 600.930737 219.037337 
L 608.198684 222.090222 
L 606.73885 226.193923 
L 610.800574 226.83156 
L 609.548891 238.111622 
L 614.865074 242.508469 
L 619.542926 239.687326 
L 625.502295 238.354465 
L 633.86928 232.343404 
L 656.962271 233.353979 
L 659.352541 237.206858 
L 644.711184 241.192607 
L 629.30383 242.752353 
L 614.887276 245.572802 
L 607.046914 251.420811 
L 610.22122 257.111318 
L 611.755988 263.789157 
L 605.068783 269.429361 
L 605.629404 274.588042 
L 601.937495 279.422354 
L 589.165336 279.002583 
L 594.442663 287.885436 
L 585.897362 291.282811 
L 580.1961 299.386485 
L 580.937812 307.44957 
L 575.68685 311.225433 
L 570.722444 309.975138 
L 560.461282 311.72569 
L 558.993816 315.482125 
L 548.9977 315.458535 
L 541.513276 323.058136 
L 541.043548 334.483557 
L 523.594231 340.065826 
L 514.243384 338.886302 
L 511.525623 341.82956 
L 503.500006 340.117517 
L 490.068007 342.128257 
L 467.570329 335.271756 
L 479.74787 323.099073 
L 478.648137 314.456981 
L 468.479256 312.193683 
L 467.428093 303.66989 
L 463.029857 292.950796 
L 468.771362 285.598895 
z
" clip-path="url(#p1f685814e2)" style="fill: #e8edf4; stroke: #b8c5d4; stroke-width: 0.45"/>
    <path d="M 555.755677 210.258213 
L 559.235965 204.346024 
L 570.44699 204.977416 
L 576.827519 197.556478 
L 581.095313 188.941099 
L 599.048356 185.820912 
L 596.249416 192.047062 
L 598.172733 195.779213 
L 603.715106 195.432295 
L 598.798575 199.575892 
L 584.184971 197.327512 
L 582.913167 205.068309 
L 597.471264 204.027553 
L 614.060222 208.387627 
L 639.445652 206.349826 
L 642.848924 218.775067 
L 647.26173 217.423125 
L 655.415707 220.479825 
L 654.948061 225.700605 
L 656.962271 233.353979 
L 633.86928 232.343404 
L 625.502295 238.354465 
L 619.542926 239.687326 
L 614.865074 242.508469 
L 609.548891 238.111622 
L 610.800574 226.83156 
L 606.73885 226.193923 
L 608.198684 222.090222 
L 600.930737 219.037337 
L 595.150377 223.708251 
L 593.730786 229.122264 
L 591.663151 231.095191 
L 583.636839 230.816268 
L 579.3066 236.963668 
L 574.784168 234.369757 
L 565.064893 238.68265 
L 560.962233 237.046234 
L 568.508408 223.458122 
L 565.608168 213.46166 
z
" clip-path="url(#p1f685814e2)" style="fill: #e8edf4; stroke: #b8c5d4; stroke-width: 0.45"/>
    <path d="M 355.165893 174.76947 
L 361.098203 170.302198 
L 376.339036 167.508461 
L 385.414429 171.269754 
L 394.811763 181.797696 
L 416.846651 180.959193 
L 414.64233 174.196013 
L 426.11285 169.570199 
L 437.424481 161.769385 
L 455.515598 168.864913 
L 456.951148 179.578457 
L 462.08832 182.328481 
L 476.60548 181.710272 
L 481.110566 184.147376 
L 487.710348 197.989779 
L 511.823973 213.584469 
L 525.865161 220.159619 
L 543.724536 225.906328 
L 543.354721 234.122057 
L 539.310342 233.705754 
L 532.976301 230.115839 
L 530.872586 234.894991 
L 519.556097 237.491678 
L 516.875804 248.229506 
L 509.308813 252.312739 
L 498.710446 254.337356 
L 495.905955 260.42127 
L 485.782174 262.212064 
L 472.089292 257.11791 
L 470.911156 245.819115 
L 460.902552 245.338632 
L 445.557644 233.447994 
L 434.83508 231.98018 
L 419.989041 225.173982 
L 410.441838 223.936523 
L 404.547689 226.43746 
L 395.568046 226.048218 
L 386.018068 233.724141 
L 374.220056 236.322215 
L 371.721548 226.826703 
L 373.674006 212.783087 
L 363.202612 208.238452 
L 366.65029 199.045106 
L 357.737255 198.261764 
L 360.708266 186.944582 
L 373.368024 190.240656 
L 385.166035 185.944415 
L 375.384315 177.88584 
L 371.536293 170.206101 
L 360.728388 173.630883 
L 359.358059 183.46915 
z
" clip-path="url(#p1f685814e2)" style="fill: #e8edf4; stroke: #b8c5d4; stroke-width: 0.45"/>
    <path d="M 242.473514 206.391457 
L 251.667554 202.566678 
L 253.798329 207.631691 
L 260.579202 213.829741 
L 269.788506 215.614637 
L 274.650224 215.219844 
L 290.484982 205.314274 
L 295.52016 204.322434 
L 299.486828 208.262736 
L 294.857545 214.905536 
L 303.230775 221.93619 
L 306.572296 221.266637 
L 310.819969 231.167003 
L 323.550498 233.963862 
L 332.876366 240.700676 
L 351.964527 243.015318 
L 372.933682 239.462523 
L 374.220056 236.322215 
L 386.018068 233.724141 
L 395.568046 226.048218 
L 404.547689 226.43746 
L 410.441838 223.936523 
L 419.989041 225.173982 
L 434.83508 231.98018 
L 445.557644 233.447994 
L 460.902552 245.338632 
L 470.911156 245.819115 
L 472.089292 257.11791 
L 462.927169 283.616948 
L 468.771362 285.598895 
L 463.029857 292.950796 
L 467.428093 303.66989 
L 468.479256 312.193683 
L 478.648137 314.456981 
L 479.74787 323.099073 
L 467.570329 335.271756 
L 474.217292 342.333633 
L 479.622285 350.442511 
L 492.457584 356.346027 
L 492.828093 368.171098 
L 499.252333 370.344543 
L 500.363167 376.527676 
L 480.996083 383.463274 
L 475.936621 399.061433 
L 436.038194 391.922193 
L 420.886173 390.177539 
L 415.159933 373.713818 
L 408.733611 371.334649 
L 398.416248 373.733592 
L 384.87393 380.231727 
L 368.466756 375.777984 
L 354.912643 365.459928 
L 341.985064 361.635496 
L 333.018603 348.895948 
L 323.110605 330.994942 
L 315.884982 333.170816 
L 307.352169 328.721584 
L 302.339194 333.962138 
L 294.908889 326.904077 
L 294.776366 319.752001 
L 290.487757 319.755817 
L 292.68861 310.030645 
L 285.78007 299.826725 
L 269.328492 292.467192 
L 260.028295 279.705093 
L 263.140156 269.227801 
L 269.898132 264.594008 
L 268.885129 256.751217 
L 260.081026 252.721062 
L 251.381303 236.704448 
L 244.038118 225.947958 
L 246.664986 221.78979 
z
" clip-path="url(#p1f685814e2)" style="fill: #e8edf4; stroke: #b8c5d4; stroke-width: 0.45"/>
    <path d="M 129.833867 296.60385 
L 131.397777 294.469953 
L 131.192401 288.974414 
L 134.486741 281.623554 
L 141.808113 276.563397 
L 139.612118 271.298212 
L 133.572957 270.613741 
L 132.319193 260.341132 
L 135.605207 254.815757 
L 142.796832 248.93271 
L 143.52328 241.443082 
L 147.917352 244.054339 
L 162.699558 240.319412 
L 169.844696 242.847409 
L 180.890587 242.805432 
L 196.340265 237.767478 
L 203.574908 237.99471 
L 218.847657 235.906606 
L 211.966177 244.28504 
L 204.617051 247.60193 
L 205.882611 257.410015 
L 200.809965 273.641995 
L 171.085971 287.61484 
L 144.793002 301.924195 
z
" clip-path="url(#p1f685814e2)" style="fill: #e8edf4; stroke: #b8c5d4; stroke-width: 0.45"/>
    <path d="M 235.404699 184.049545 
L 254.064068 181.955197 
L 256.843581 185.48336 
L 261.957163 187.807022 
L 259.256054 191.174215 
L 266.408824 195.779907 
L 262.623941 200.056027 
L 268.323815 203.707694 
L 274.351874 205.907852 
L 274.650224 215.219844 
L 269.788506 215.614637 
L 264.30719 207.847128 
L 264.368942 205.775676 
L 258.436632 205.805858 
L 254.46025 202.204148 
L 251.667554 202.566678 
L 246.377738 198.64615 
L 236.394111 195.308792 
L 237.686036 188.774925 
z
" clip-path="url(#p1f685814e2)" style="fill: #e8edf4; stroke: #b8c5d4; stroke-width: 0.45"/>
    <path d="M -38.27253 31.055967 
L -30.220547 28.315309 
L -30.143531 22.963048 
L -33.86805 17.85571 
L -34.450874 11.916115 
L -21.473339 12.007355 
L -6.896508 6.94928 
L -3.780485 -0.630547 
L 7.227246 -4.92991 
L 5.965849 -10.944093 
L 28.55442 -18.382724 
L 42.68997 -15.015531 
L 44.597329 -11.682336 
L 51.642554 -13.2851 
L 64.76857 -10.083041 
L 66.083392 -3.780222 
L 63.206048 -0.158043 
L 71.623684 8.63253 
L 77.087653 11.081776 
L 76.280027 13.506738 
L 85.333911 15.869601 
L 89.201361 19.449455 
L 83.976765 22.385775 
L 73.143138 21.919821 
L 70.559337 23.174321 
L 73.712134 27.631186 
L 77.014724 36.229224 
L 65.488773 37.025744 
L 61.352115 39.973513 
L 60.488287 46.731142 
L 55.147821 45.433666 
L 43.031338 46.076853 
L 39.512195 42.937586 
L 34.474241 45.278246 
L 29.42588 43.33793 
L 18.851798 43.068374 
L 3.866297 39.846193 
L -9.696836 38.793989 
L -20.098153 39.091992 
L -27.456299 42.730822 
L -33.874295 43.254323 
L -34.130321 37.276913 
z
" clip-path="url(#p1f685814e2)" style="fill: #e8edf4; stroke: #b8c5d4; stroke-width: 0.45"/>
    <path d="M -53.228196 85.631137 
L -50.606878 80.218511 
L -46.883746 76.722958 
L -43.952977 77.5063 
L -47.416613 71.47269 
L -35.224502 60.305377 
L -28.561582 58.742855 
L -27.121869 54.976359 
L -33.874295 43.254323 
L -27.456299 42.730822 
L -20.098153 39.091992 
L -9.696836 38.793989 
L 3.866297 39.846193 
L 18.851798 43.068374 
L 29.42588 43.33793 
L 34.474241 45.278246 
L 39.512195 42.937586 
L 43.031338 46.076853 
L 55.147821 45.433666 
L 60.488287 46.731142 
L 61.352115 39.973513 
L 65.488773 37.025744 
L 82.028845 36.772028 
L 85.420641 33.718221 
L 89.498323 34.392631 
L 103.420865 33.095502 
L 112.000858 40.697532 
L 108.647542 43.415987 
L 109.759763 47.583868 
L 120.465675 48.233994 
L 125.241869 54.05619 
L 124.949252 56.69777 
L 142.001694 61.418639 
L 152.303792 59.292375 
L 160.590292 65.579929 
L 168.436206 65.434917 
L 188.22767 69.804084 
L 188.385419 73.746396 
L 182.932364 80.776683 
L 185.899234 88.180229 
L 183.786665 92.657628 
L 170.793667 93.642025 
L 163.872837 97.390987 
L 163.448902 103.355213 
L 152.729114 104.428927 
L 143.796651 108.772696 
L 131.227093 109.480757 
L 119.662211 114.485753 
L 120.337799 121.675298 
L 118.312174 121.266362 
L 116.569744 118.614838 
L 102.706061 115.205735 
L 99.168511 118.5309 
L 97.323422 117.071685 
L 76.452792 113.678126 
L 75.528601 108.671396 
L 63.088096 110.32481 
L 58.104956 117.718688 
L 47.708496 127.642298 
L 41.618685 125.338064 
L 35.308927 127.498327 
L 29.317641 125.024449 
L 32.697323 123.566003 
L 38.718445 114.67864 
L 37.768581 112.274493 
L 40.576541 111.203208 
L 41.899689 113.061652 
L 49.812211 113.454711 
L 53.366046 112.461829 
L 50.862681 111.10052 
L 51.811156 109.099493 
L 47.122897 105.68616 
L 45.182234 100.073015 
L 40.291374 97.876673 
L 41.255808 93.326834 
L 35.189587 89.71437 
L 29.666642 89.212031 
L 19.771132 85.028886 
L 10.846302 86.35689 
L 7.644242 88.337102 
L 1.979754 88.335021 
L -1.397153 91.473248 
L -11.308621 92.763438 
L -15.892804 94.824829 
L -22.12624 91.544019 
L -30.733987 91.494063 
L -39.041302 90.007169 
L -44.83762 92.882431 
L -45.773606 89.283497 
z
" clip-path="url(#p1f685814e2)" style="fill: #e8edf4; stroke: #b8c5d4; stroke-width: 0.45"/>
    <path d="M 7.644242 88.337102 
L 10.846302 86.35689 
L 19.771132 85.028886 
L 29.666642 89.212031 
L 35.189587 89.71437 
L 41.255808 93.326834 
L 40.291374 97.876673 
L 45.182234 100.073015 
L 47.122897 105.68616 
L 51.811156 109.099493 
L 50.862681 111.10052 
L 53.366046 112.461829 
L 49.812211 113.454711 
L 41.899689 113.061652 
L 40.576541 111.203208 
L 37.768581 112.274493 
L 38.718445 114.67864 
L 32.697323 123.566003 
L 29.317641 125.024449 
L 26.912801 118.897865 
L 28.330311 113.165034 
L 27.900825 107.271925 
L 11.737189 89.64568 
z
" clip-path="url(#p1f685814e2)" style="fill: #e8edf4; stroke: #b8c5d4; stroke-width: 0.45"/>
    <path d="M -78.274338 116.442375 
L -67.509451 113.909868 
L -59.392247 104.80464 
L -53.038084 95.698717 
L -39.041302 90.007169 
L -30.733987 91.494063 
L -22.12624 91.544019 
L -15.892804 94.824829 
L -11.308621 92.763438 
L -1.397153 91.473248 
L 1.979754 88.335021 
L 7.644242 88.337102 
L 11.737189 89.64568 
L 27.900825 107.271925 
L 28.330311 113.165034 
L 26.912801 118.897865 
L 29.317641 125.024449 
L 35.308927 127.498327 
L 41.618685 125.338064 
L 47.708496 127.642298 
L 48.020723 131.105241 
L 41.509752 133.99438 
L 37.431376 132.736799 
L 33.67494 148.934781 
L 25.780458 147.524903 
L 16.00984 142.644104 
L 0.20353 145.765678 
L -6.454534 149.190113 
L -26.172699 148.483786 
L -36.489368 146.389785 
L -41.691761 147.372953 
L -48.013314 139.512468 
L -44.902147 137.246396 
L -48.214526 135.574594 
L -52.429589 138.58342 
L -60.258156 134.682666 
L -61.312095 129.147925 
L -69.491745 125.989924 
L -70.997372 121.71762 
z
" clip-path="url(#p1f685814e2)" style="fill: #e8edf4; stroke: #b8c5d4; stroke-width: 0.45"/>
    <path d="M -49.268465 167.560152 
L -47.059981 165.665629 
L -48.515652 164.068415 
L -46.257211 159.796111 
L -41.138772 155.598395 
L -47.662232 149.802771 
L -48.866734 144.898728 
L -45.554354 141.852782 
L -41.691761 147.372953 
L -36.489368 146.389785 
L -26.172699 148.483786 
L -6.454534 149.190113 
L 0.20353 145.765678 
L 16.00984 142.644104 
L 25.780458 147.524903 
L 33.67494 148.934781 
L 26.706731 154.497275 
L 21.803382 164.101026 
L 26.137785 171.761338 
L 14.577759 169.960483 
L 0.900143 174.184218 
L 0.753743 180.870729 
L -11.450163 182.13837 
L -20.909943 177.446988 
L -31.658872 181.136816 
L -41.590461 180.748614 
L -42.543793 171.869576 
z
" clip-path="url(#p1f685814e2)" style="fill: #e8edf4; stroke: #b8c5d4; stroke-width: 0.45"/>
    <path d="M -79.21657 203.748283 
L -72.973421 197.236272 
L -72.167875 192.872729 
L -67.804332 190.925821 
L -67.535123 187.398351 
L -58.752529 186.209461 
L -53.63409 183.274529 
L -46.357818 183.534718 
L -44.149662 181.194294 
L -31.658872 181.136816 
L -20.909943 177.446988 
L -11.450163 182.13837 
L 0.753743 180.870729 
L 0.900143 174.184218 
L 7.440948 177.739441 
L 3.284168 186.142506 
L 0.09321 187.648133 
L -15.093504 185.997494 
L -31.353583 189.487496 
L -22.046448 197.035059 
L -28.867564 199.223422 
L -36.345744 199.236952 
L -43.448557 192.322169 
L -45.968575 195.268549 
L -42.968422 203.287575 
L -36.251382 209.588659 
L -41.312232 212.53053 
L -33.834746 218.718866 
L -27.188477 222.612682 
L -26.987265 230.198406 
L -39.406954 226.640408 
L -35.44653 233.488236 
L -43.972404 234.897767 
L -38.880332 246.746775 
L -47.798224 246.914684 
L -58.808036 241.074307 
L -63.843214 230.33301 
L -66.192548 221.399854 
L -78.307643 207.571674 
z
" clip-path="url(#p1f685814e2)" style="fill: #e8edf4; stroke: #b8c5d4; stroke-width: 0.45"/>
    <path d="M -34.036653 262.086827 
L -31.552715 256.380361 
L -24.212609 260.904875 
L -13.76203 260.139919 
L -3.770077 261.092904 
L -4.094793 263.429402 
L 3.222416 261.818311 
L 1.544024 265.779082 
L -17.79045 266.920445 
L -17.655845 264.705022 
z
" clip-path="url(#p1f685814e2)" style="fill: #e8edf4; stroke: #b8c5d4; stroke-width: 0.45"/>
    <path d="M 1.621733 205.915137 
L 16.514953 193.073941 
L 37.191308 192.536911 
L 42.830819 182.332991 
L 68.42093 184.110256 
L 84.560282 175.401209 
L 100.206316 171.605571 
L 122.419521 171.320057 
L 145.854573 180.783999 
L 165.1155 185.977025 
L 180.756677 183.906962 
L 192.31462 185.103137 
L 208.166724 178.094685 
L 222.472263 177.456702 
L 235.404699 184.049545 
L 237.686036 188.774925 
L 236.394111 195.308792 
L 246.377738 198.64615 
L 251.667554 202.566678 
L 242.473514 206.391457 
L 246.664986 221.78979 
L 244.038118 225.947958 
L 251.381399 236.704623 
L 244.947045 238.972674 
L 240.231726 235.552749 
L 224.614833 233.820237 
L 218.847657 235.906606 
L 203.574908 237.99471 
L 196.340265 237.767478 
L 180.890587 242.805432 
L 169.844696 242.847409 
L 162.699558 240.319412 
L 147.917352 244.054339 
L 143.52328 241.443082 
L 142.796832 248.93271 
L 135.605207 254.815757 
L 130.668554 248.727334 
L 135.753688 243.684177 
L 127.565019 244.827621 
L 116.335261 241.73831 
L 107.102366 249.466271 
L 86.724361 250.975367 
L 75.854704 243.769172 
L 61.381256 243.318178 
L 58.286047 248.888651 
L 49.006666 250.481355 
L 36.022192 243.332054 
L 21.364183 243.573857 
L 13.410031 230.220609 
L 3.601252 222.771917 
L 10.133037 212.331052 
z
" clip-path="url(#p1f685814e2)" style="fill: #e8edf4; stroke: #b8c5d4; stroke-width: 0.45"/>
    <path d="M -0.08927 190.418973 
L 0.09321 187.648133 
L 3.284168 186.142506 
L 7.440948 177.739441 
L 0.900143 174.184218 
L 14.577759 169.960483 
L 26.137785 171.761338 
L 27.732917 176.923488 
L 39.453218 181.259625 
L 37.009523 184.548761 
L 21.066527 185.289086 
L 4.135506 196.672529 
z
" clip-path="url(#p1f685814e2)" style="fill: #e8edf4; stroke: #b8c5d4; stroke-width: 0.45"/>
    <path d="M 254.064068 181.955197 
L 257.352858 179.762324 
L 267.357993 183.623529 
L 274.595411 184.421442 
L 276.425061 182.847472 
L 269.81279 175.581953 
L 273.297242 173.730795 
L 277.071717 174.181096 
L 286.299061 182.336461 
L 292.238309 183.253714 
L 294.542543 179.837952 
L 302.55915 174.426377 
L 309.620324 181.49657 
L 316.449766 191.020876 
L 322.705404 191.648799 
L 326.840675 195.268549 
L 315.782294 196.348854 
L 313.446837 206.77619 
L 311.137052 211.47902 
L 306.213582 214.617246 
L 306.572296 221.266637 
L 303.230775 221.93619 
L 294.857545 214.905536 
L 299.486828 208.262736 
L 295.52016 204.322434 
L 290.484982 205.314274 
L 274.650224 215.219844 
L 274.351874 205.907852 
L 268.323815 203.707694 
L 262.623941 200.056027 
L 266.408824 195.779907 
L 259.256054 191.174215 
L 261.957163 187.807022 
L 256.843581 185.48336 
z
" clip-path="url(#p1f685814e2)" style="fill: #e8edf4; stroke: #b8c5d4; stroke-width: 0.45"/>
    <path d="M 251.667554 202.566678 
L 254.46025 202.204148 
L 258.436632 205.805858 
L 264.368942 205.775676 
L 264.30719 207.847128 
L 269.788506 215.614637 
L 260.579202 213.829741 
L 253.798329 207.631691 
z
" clip-path="url(#p1f685814e2)" style="fill: #e8edf4; stroke: #b8c5d4; stroke-width: 0.45"/>
    <path d="M 186.696619 152.593038 
L 188.334075 151.007273 
L 219.449287 155.475692 
L 237.730775 161.913331 
L 240.083379 164.408929 
L 248.225427 162.300518 
L 260.747804 165.109518 
L 264.857958 170.618987 
L 273.297242 173.730795 
L 269.81279 175.581953 
L 276.425061 182.847472 
L 274.595411 184.421442 
L 267.357993 183.623529 
L 257.352858 179.762324 
L 254.064068 181.955197 
L 235.404699 184.049545 
L 222.472263 177.456702 
L 208.166724 178.094685 
L 210.168445 172.357691 
L 206.815822 163.198343 
L 199.055251 158.250589 
L 191.615926 156.706453 
z
" clip-path="url(#p1f685814e2)" style="fill: #e8edf4; stroke: #b8c5d4; stroke-width: 0.45"/>
    <path d="M 115.231365 359.046095 
L 119.577563 341.618287 
L 134.520045 343.753918 
L 140.323995 339.62177 
L 143.537156 334.787804 
L 153.78236 332.92832 
L 155.991538 328.431907 
L 160.432097 326.15161 
L 147.050055 312.726203 
L 173.939724 305.988695 
L 176.498596 303.964077 
L 192.671253 307.602908 
L 212.676667 317.001282 
L 250.53313 344.0037 
L 287.460545 346.371767 
L 290.804147 352.768948 
L 300.300006 352.420642 
L 305.556518 363.9994 
L 312.16185 367.066162 
L 314.462615 371.781828 
L 323.612943 377.425501 
L 324.425427 382.965793 
L 323.087708 387.437575 
L 324.786916 391.947865 
L 328.647427 395.710545 
L 332.443412 403.404855 
L 336.502361 406.068844 
L 340.224104 405.114818 
L 348.429426 426.949534 
L 388.790642 433.719306 
L 391.496608 430.881164 
L 397.650252 440.391593 
L 388.699055 467.244836 
L 348.419712 480.671284 
L 309.70636 485.818169 
L 297.174962 491.860106 
L 287.552825 505.957841 
L 281.286779 508.195814 
L 277.929994 503.720215 
L 272.783108 504.39185 
L 259.804185 503.048928 
L 257.34245 501.706352 
L 241.847673 502.014763 
L 238.207802 503.228285 
L 232.693182 499.737242 
L 229.135184 506.337023 
L 230.512451 511.997002 
L 224.617609 516.28006 
L 222.875383 510.550351 
L 218.826148 506.506666 
L 217.790942 501.150589 
L 210.856037 496.33952 
L 203.699798 485.08062 
L 199.912834 474.139498 
L 190.62582 464.900012 
L 184.638003 462.694997 
L 175.745783 449.8989 
L 174.192281 440.567828 
L 174.764697 432.608819 
L 167.063795 417.721497 
L 160.767915 412.481983 
L 153.514538 409.705246 
L 149.099651 402.011977 
L 149.833731 398.976785 
L 146.102967 392.016208 
L 142.182092 389.018484 
L 136.939456 379.030347 
L 121.915795 358.981568 
z
" clip-path="url(#p1f685814e2)" style="fill: #e8edf4; stroke: #b8c5d4; stroke-width: 0.45"/>
    <path d="M 89.713413 263.966085 
L 92.602552 260.654052 
L 102.273258 260.835144 
L 114.481327 256.828927 
L 105.409403 262.546494 
L 106.38702 265.060614 
L 99.703284 265.841528 
L 98.468253 263.661491 
L 92.234818 264.666861 
z
" clip-path="url(#p1f685814e2)" style="fill: #e8edf4; stroke: #b8c5d4; stroke-width: 0.45"/>
    <path d="M 83.334272 264.460097 
L 92.234818 264.666861 
L 98.468253 263.661491 
L 99.703284 265.841528 
L 104.948001 264.589498 
L 106.806791 266.140225 
L 93.043832 271.594481 
L 86.471111 269.851908 
z
" clip-path="url(#p1f685814e2)" style="fill: #e8edf4; stroke: #b8c5d4; stroke-width: 0.45"/>
    <path d="M -18.124934 332.385701 
L -14.66692 324.096 
L -16.744683 318.353589 
L -11.884934 311.910713 
L 5.979256 311.688772 
L 38.447396 321.297231 
L 48.78438 317.043558 
L 54.310892 313.196308 
L 66.151787 312.089152 
L 75.698484 313.784392 
L 79.356554 320.443972 
L 82.472324 316.056973 
L 93.233052 319.22927 
L 103.698797 319.989348 
L 110.305208 316.607194 
L 119.128615 339.67445 
L 115.357628 345.070724 
L 112.468364 355.213561 
L 108.815799 362.204643 
L 105.685393 364.548923 
L 95.150903 354.224559 
L 85.570641 334.978506 
L 84.190792 336.195625 
L 89.754227 350.363345 
L 97.997337 363.861617 
L 108.145007 384.775116 
L 117.416324 399.658741 
L 129.464526 414.522495 
L 126.7968 416.863284 
L 127.229941 425.589617 
L 145.224906 440.391608 
L -14.097902 440.391608 
L -14.097902 343.201282 
z
" clip-path="url(#p1f685814e2)" style="fill: #e8edf4; stroke: #b8c5d4; stroke-width: 0.45"/>
   </g>
   <g id="PathCollection_1">
    <defs>
     <path id="m1fd827ed7e" d="M 0 2.12132 
C 0.562581 2.12132 1.102195 1.897805 1.5 1.5 
C 1.897805 1.102195 2.12132 0.562581 2.12132 0 
C 2.12132 -0.562581 1.897805 -1.102195 1.5 -1.5 
C 1.102195 -1.897805 0.562581 -2.12132 0 -2.12132 
C -0.562581 -2.12132 -1.102195 -1.897805 -1.5 -1.5 
C -1.897805 -1.102195 -2.12132 -0.562581 -2.12132 0 
C -2.12132 0.562581 -1.897805 1.102195 -1.5 1.5 
C -1.102195 1.897805 -0.562581 2.12132 0 2.12132 
z
" style="stroke: #ffffff; stroke-width: 0.5"/>
    </defs>
    <g clip-path="url(#p1f685814e2)">
     <use xlink:href="#m1fd827ed7e" x="93.314685" y="265.846154" style="fill: #8aa0b7; stroke: #ffffff; stroke-width: 0.5"/>
     <use xlink:href="#m1fd827ed7e" x="116.811189" y="312.839161" style="fill: #8aa0b7; stroke: #ffffff; stroke-width: 0.5"/>
     <use xlink:href="#m1fd827ed7e" x="264.503497" y="339.692308" style="fill: #8aa0b7; stroke: #ffffff; stroke-width: 0.5"/>
     <use xlink:href="#m1fd827ed7e" x="131.356643" y="281.51049" style="fill: #8aa0b7; stroke: #ffffff; stroke-width: 0.5"/>
     <use xlink:href="#m1fd827ed7e" x="123.298909" y="306.767664" style="fill: #8aa0b7; stroke: #ffffff; stroke-width: 0.5"/>
    </g>
   </g>
   <g id="PatchCollection_2">
    <path d="M 254.064068 181.955197 
L 257.352858 179.762324 
L 267.357993 183.623529 
L 274.595411 184.421442 
L 276.425061 182.847472 
L 269.81279 175.581953 
L 273.297242 173.730795 
L 277.071717 174.181096 
L 286.299061 182.336461 
L 292.238309 183.253714 
L 294.542543 179.837952 
L 302.55915 174.426377 
L 309.620324 181.49657 
L 316.449766 191.020876 
L 322.705404 191.648799 
L 326.840675 195.268549 
L 315.782294 196.348854 
L 313.446837 206.77619 
L 311.137052 211.47902 
L 306.213582 214.617246 
L 306.572296 221.266637 
L 303.230775 221.93619 
L 294.857545 214.905536 
L 299.486828 208.262736 
L 295.52016 204.322434 
L 290.484982 205.314274 
L 274.650224 215.219844 
L 274.351874 205.907852 
L 268.323815 203.707694 
L 262.623941 200.056027 
L 266.408824 195.779907 
L 259.256054 191.174215 
L 261.957163 187.807022 
L 256.843581 185.48336 
z
" clip-path="url(#p1f685814e2)" style="fill: #f59e0b; stroke: #b45309; stroke-width: 1.15"/>
    <path d="M 251.667554 202.566678 
L 254.46025 202.204148 
L 258.436632 205.805858 
L 264.368942 205.775676 
L 264.30719 207.847128 
L 269.788506 215.614637 
L 260.579202 213.829741 
L 253.798329 207.631691 
z
" clip-path="url(#p1f685814e2)" style="fill: #f59e0b; stroke: #b45309; stroke-width: 1.15"/>
   </g>
   <g id="PathCollection_2">
    <defs>
     <path id="m0b693841c8" d="M 0 3.316625 
C 0.879579 3.316625 1.723251 2.967164 2.345208 2.345208 
C 2.967164 1.723251 3.316625 0.879579 3.316625 0 
C 3.316625 -0.879579 2.967164 -1.723251 2.345208 -2.345208 
C 1.723251 -2.967164 0.879579 -3.316625 0 -3.316625 
C -0.879579 -3.316625 -1.723251 -2.967164 -2.345208 -2.345208 
C -2.967164 -1.723251 -3.316625 -0.879579 -3.316625 0 
C -3.316625 0.879579 -2.967164 1.723251 -2.345208 2.345208 
C -1.723251 2.967164 -0.879579 3.316625 0 3.316625 
z
" style="stroke: #ffffff"/>
    </defs>
    <g clip-path="url(#p1f685814e2)">
     <use xlink:href="#m0b693841c8" x="288" y="192" style="fill: #f97316; stroke: #ffffff"/>
    </g>
   </g>
   <g id="PathCollection_3">
    <path d="M 288 196.449719 
C 289.180079 196.449719 290.311984 195.980869 291.146427 195.146427 
C 291.980869 194.311984 292.449719 193.180079 292.449719 192 
C 292.449719 190.819921 291.980869 189.688016 291.146427 188.853573 
C 290.311984 188.019131 289.180079 187.550281 288 187.550281 
C 286.819921 187.550281 285.688016 188.019131 284.853573 188.853573 
C 284.019131 189.688016 283.550281 190.819921 283.550281 192 
C 283.550281 193.180079 284.019131 194.311984 284.853573 195.146427 
C 285.688016 195.980869 286.819921 196.449719 288 196.449719 
L 288 196.449719 
z
" clip-path="url(#p1f685814e2)" style="fill: none; stroke: #7c2d12; stroke-width: 1.1"/>
   </g>
  </g>
 </g>
 <defs>
  <clipPath id="p1f685814e2">
   <rect x="0" y="-0" width="576" height="384"/>
  </clipPath>
 </defs>
</svg>
