<?xml version="1.0" encoding="utf-8" standalone="no"?>
<!DOCTYPE svg PUBLIC "-//W3C//DTD SVG 1.1//EN"
  "http://www.w3.org/Graphics/SVG/1.1/DTD/svg11.dtd">
<svg xmlns:xlink="http://www.w3.org/1999/xlink" width="576pt" height="431.042128pt" viewBox="0 0 576 431.042128" xmlns="http://www.w3.org/2000/svg" version="1.1">
 <metadata>
  <rdf:RDF xmlns:dc="http://purl.org/dc/elements/1.1/" xmlns:cc="http://creativecommons.org/ns#" xmlns:rdf="http://www.w3.org/1999/02/22-rdf-syntax-ns#">
   <cc:Work>
    <dc:type rdf:resource="http://purl.org/dc/dcmitype/StillImage"/>
    <dc:date>2026-06-09T04:57:13.922620</dc:date>
    <dc:format>image/svg+xml</dc:format>
    <dc:creator>
     <cc:Agent>
      <dc:title>Matplotlib v3.10.8, https://matplotlib.org/</dc:title>
     </cc:Agent>
    </dc:creator>
   </cc:Work>
  </rdf:RDF>
 </metadata>
 <defs>
  <style type="text/css">*{stroke-linejoin: round; stroke-linecap: butt}</style>
 </defs>
 <g id="figure_1">
  <g id="patch_1">
   <path d="M 0 431.042128 
L 576 431.042128 
L 576 0 
L 0 0 
z
" style="fill: #eaf3ff"/>
  </g>
  <g id="axes_1">
   <g id="PatchCollection_1">
    <path d="M -296.849898 -302.973735 
L -295.065177 -305.851505 
L -273.754733 -300.845301 
L -265.905493 -286.934061 
L -262.260276 -290.824492 
L -264.618113 -302.908409 
L -269.628518 -314.992325 
L 138.291045 -314.992325 
L 138.334952 -320.654818 
L 143.323399 -320.725553 
L 145.940304 -312.634487 
L 150.521287 -310.14019 
L 175.855364 -306.887259 
L 190.149753 -302.318949 
L 202.086304 -304.234692 
L 220.212178 -300.403206 
L 225.032225 -300.547746 
L 238.218478 -304.719781 
L 289.826147 -284.046938 
L 291.253252 -280.171518 
L 294.723539 -278.721186 
L 293.822384 -277.261033 
L 297.774709 -276.806708 
L 300.642141 -278.331283 
L 301.382918 -274.841577 
L 304.346218 -272.505968 
L 308.393363 -272.505968 
L 310.553439 -270.704572 
L 308.736432 -268.084532 
L 324.090757 -261.167565 
L 330.181084 -234.989248 
L 325.872761 -226.278697 
L 315.704588 -213.015862 
L 315.38039 -211.478568 
L 317.033669 -209.37294 
L 322.03996 -207.049135 
L 325.73604 -207.049135 
L 342.852925 -214.917251 
L 358.035907 -217.233441 
L 377.312487 -224.563538 
L 376.271533 -230.552277 
L 373.889034 -233.445629 
L 380.540988 -235.785046 
L 408.543928 -235.839495 
L 413.260106 -241.581929 
L 430.675534 -253.341511 
L 437.324782 -256.053466 
L 486.867954 -256.167232 
L 488.342487 -259.804196 
L 499.321167 -262.825175 
L 504.552618 -269.530274 
L 509.047687 -280.99629 
L 520.287999 -292.118076 
L 525.183694 -288.245608 
L 535.06539 -290.748747 
L 541.608094 -286.497272 
L 541.595126 -266.40334 
L 551.231754 -258.073101 
L 553.777482 -253.24204 
L 538.040981 -246.102214 
L 507.335308 -236.653918 
L 497.038633 -224.588422 
L 496.889647 -216.773665 
L 501.752686 -208.963329 
L 507.868327 -208.594917 
L 506.320996 -213.973733 
L 510.742383 -210.699729 
L 509.56258 -206.490105 
L 499.615896 -204.10029 
L 492.536637 -204.386914 
L 481.637387 -201.816135 
L 466.658783 -200.352065 
L 454.374893 -196.085151 
L 476.018955 -198.861175 
L 480.384786 -196.068907 
L 459.75371 -191.647962 
L 450.36657 -191.618489 
L 450.803875 -193.427392 
L 446.318311 -189.341849 
L 450.654816 -188.66574 
L 447.472619 -178.079492 
L 436.74947 -166.736527 
L 435.653518 -170.52174 
L 432.417239 -171.288774 
L 427.58323 -174.973631 
L 430.649156 -167.038035 
L 434.306238 -164.415416 
L 434.52883 -158.846319 
L 421.509147 -141.350724 
L 420.167537 -141.93591 
L 424.724353 -151.96335 
L 417.196662 -157.595118 
L 415.470578 -169.837967 
L 412.630489 -163.466133 
L 415.775181 -154.117971 
L 406.039259 -156.427646 
L 416.183529 -151.681809 
L 416.81543 -137.659383 
L 421.043916 -136.640502 
L 424.644186 -116.797533 
L 415.276351 -105.860115 
L 400.032123 -101.490306 
L 390.345464 -92.846769 
L 382.986212 -91.901571 
L 375.524836 -86.487682 
L 373.418992 -81.542708 
L 357.241944 -71.978215 
L 348.935652 -64.962838 
L 341.9902 -56.226904 
L 339.718866 -45.756632 
L 342.32295 -35.522587 
L 347.240662 -22.915231 
L 353.789776 -12.483717 
L 353.872079 -6.11564 
L 360.849225 10.97868 
L 359.743683 26.646877 
L 356.067373 35.645195 
L 351.661607 37.504349 
L 344.409341 35.717403 
L 342.082893 29.251919 
L 336.483029 25.862528 
L 321.818018 1.915153 
L 319.605925 -3.849759 
L 322.630735 -13.631247 
L 318.50452 -21.736312 
L 307.016105 -34.064265 
L 301.262835 -36.325431 
L 286.396376 -29.637278 
L 283.758251 -30.37366 
L 276.607225 -37.248082 
L 267.368924 -40.89374 
L 250.711393 -39.041807 
L 237.633354 -40.671219 
L 226.39428 -39.655581 
L 220.303085 -37.356896 
L 222.957069 -33.43988 
L 222.71738 -27.463499 
L 225.846378 -24.55216 
L 223.038193 -22.614754 
L 217.570221 -24.788828 
L 212.038883 -21.993169 
L 201.346164 -22.451548 
L 190.344495 -30.239263 
L 177.49023 -28.401624 
L 166.772238 -31.812383 
L 157.605409 -30.779061 
L 145.20348 -27.336176 
L 131.789448 -16.41099 
L 117.144626 -10.057355 
L 109.099096 -3.020979 
L 105.709705 3.610438 
L 105.56234 13.778612 
L 106.299164 20.852123 
L 109.099096 25.862528 
L 103.351868 26.304622 
L 81.394508 18.494286 
L 77.268293 11.568139 
L 74.026267 1.252601 
L 65.331742 -7.147194 
L 52.841099 -25.872991 
L 42.454825 -31.746805 
L 30.406277 -31.462391 
L 21.122292 -19.82057 
L 8.891012 -24.241515 
L 1.272692 -28.691343 
L -7.280363 -44.489737 
L -23.571987 -55.629487 
L -28.946235 -60.854601 
L -54.475865 -60.859519 
L -54.504454 -54.778749 
L -95.496487 -54.668226 
L -151.368241 -72.212893 
L -149.988759 -75.094612 
L -185.45019 -72.361142 
L -187.928537 -79.889785 
L -197.478697 -88.363436 
L -204.354773 -90.126992 
L -205.965361 -94.354482 
L -214.234078 -95.094525 
L -219.50739 -99.080407 
L -233.19669 -100.533908 
L -236.955672 -102.912966 
L -238.745712 -110.993127 
L -253.043637 -125.798429 
L -265.317654 -146.28553 
L -264.795099 -149.698942 
L -271.29654 -154.566697 
L -282.702725 -166.915133 
L -284.735918 -178.930229 
L -292.58899 -186.979444 
L -289.358605 -199.193336 
L -289.872024 -211.831638 
L -294.575025 -223.124942 
L -288.817482 -237.012456 
L -285.233422 -263.759615 
L -287.896378 -283.526249 
L -292.553622 -296.132132 
z
" clip-path="url(#pf977ebcfe5)" style="fill: #e8edf4; stroke: #b8c5d4; stroke-width: 0.45"/>
    <path d="M -936.757357 -560.649453 
L -916.048341 -566.814029 
L -883.177709 -574.010477 
L -871.061404 -574.010477 
L -873.066891 -566.650301 
L -841.960721 -567.223732 
L -853.925863 -576.352178 
L -872.051773 -581.964265 
L -882.533456 -589.331676 
L -896.670097 -595.615813 
L -916.920292 -600.274085 
L -908.671792 -607.998272 
L -882.530791 -608.477274 
L -863.930448 -615.190912 
L -860.422465 -622.366799 
L -845.366659 -629.37058 
L -831.01184 -631.055843 
L -803.077057 -637.598138 
L -789.527555 -636.611958 
L -766.849606 -644.467128 
L -744.552802 -641.372655 
L -733.889113 -634.721082 
L -727.343773 -637.573769 
L -702.439113 -636.689634 
L -703.323248 -633.300449 
L -680.776282 -630.7954 
L -665.745226 -632.268959 
L -634.70074 -627.61259 
L -606.357004 -626.226989 
L -595.010224 -624.310982 
L -575.402379 -626.70599 
L -537.036556 -620.214337 
L -537.210334 -481.608749 
L -522.698141 -481.172991 
L -508.344806 -477.093638 
L -484.965376 -460.957189 
L -470.63002 -469.193262 
L -455.836212 -473.966261 
L -448.013645 -466.344258 
L -424.590889 -453.666756 
L -400.308849 -426.284013 
L -375.256386 -416.907336 
L -374.847006 -407.61112 
L -383.042115 -400.504502 
L -391.142878 -406.04767 
L -404.131514 -410.746684 
L -408.298981 -423.600149 
L -427.296818 -435.52036 
L -435.238041 -449.434254 
L -472.816064 -450.747892 
L -490.086396 -454.988846 
L -520.558212 -470.281869 
L -560.44481 -478.338083 
L -580.846549 -477.08156 
L -609.828434 -483.851932 
L -627.347417 -490.130357 
L -643.703915 -487.011135 
L -640.664653 -476.774283 
L -665.860978 -472.756076 
L -678.834765 -467.783292 
L -695.16499 -464.653409 
L -697.272902 -473.335599 
L -690.645697 -487.789417 
L -674.984094 -492.325083 
L -679.024385 -496.021544 
L -697.809399 -487.809979 
L -707.86691 -478.002248 
L -729.099858 -467.519042 
L -718.317752 -460.363717 
L -732.243449 -449.777704 
L -762.834064 -439.114396 
L -766.485214 -432.589236 
L -789.49062 -424.979659 
L -794.148893 -418.06155 
L -811.390668 -411.762183 
L -821.505675 -412.895338 
L -862.469074 -398.839038 
L -887.758686 -394.630829 
L -890.067261 -397.107321 
L -873.947218 -403.992304 
L -859.529953 -408.540154 
L -843.823421 -416.600176 
L -825.541778 -418.266401 
L -818.276031 -424.308371 
L -797.849542 -433.129921 
L -794.558214 -436.080846 
L -783.677871 -441.283992 
L -781.135887 -452.459047 
L -773.64092 -461.161799 
L -790.632914 -456.695432 
L -795.385235 -459.2298 
L -803.363392 -453.871683 
L -812.987213 -461.346089 
L -816.96049 -456.058032 
L -822.471674 -463.405263 
L -837.204212 -457.50646 
L -846.250794 -457.518645 
L -847.519501 -466.290696 
L -844.854911 -471.694505 
L -854.343561 -476.9422 
L -873.50515 -474.11769 
L -885.940917 -481.035418 
L -896.023178 -484.572339 
L -896.08867 -492.919076 
L -907.443827 -499.198643 
L -901.741879 -507.671794 
L -889.727619 -515.895925 
L -884.471547 -523.460191 
L -872.547147 -524.536993 
L -862.436328 -522.179299 
L -850.548863 -529.289314 
L -839.848621 -528.020226 
L -828.620258 -532.592826 
L -831.358716 -539.322837 
L -839.607216 -541.975242 
L -828.697934 -547.660817 
L -837.748324 -547.493281 
L -853.385558 -544.283817 
L -857.876294 -541.029423 
L -869.497605 -544.279629 
L -890.341411 -542.625969 
L -911.922378 -546.158701 
L -918.107515 -552.086061 
z
" clip-path="url(#pf977ebcfe5)" style="fill: #e8edf4; stroke: #b8c5d4; stroke-width: 0.45"/>
    <path d="M -759.372984 116.743303 
L -756.081001 112.700349 
L -757.097671 109.802272 
L -756.243102 108.427947 
L -744.471305 114.442054 
L -740.715712 119.60557 
L -751.542606 125.871964 
L -753.695017 128.337231 
L -757.356738 126.226966 
L -756.935422 122.108267 
z
" clip-path="url(#pf977ebcfe5)" style="fill: #e8edf4; stroke: #b8c5d4; stroke-width: 0.45"/>
    <path d="M -990.995728 -527.283827 
L -990.119589 -532.834611 
L -981.023888 -530.029901 
L -971.838327 -531.544581 
L -959.922304 -527.656215 
L -945.288004 -525.687282 
L -946.503785 -524.08236 
L -957.666656 -520.963138 
L -974.49492 -526.841379 
L -987.487745 -525.986182 
z
" clip-path="url(#pf977ebcfe5)" style="fill: #e8edf4; stroke: #b8c5d4; stroke-width: 0.45"/>
    <path d="M -738.705403 -439.680593 
L -717.451513 -447.163375 
L -707.66739 -446.168057 
L -701.424376 -441.594315 
L -714.173892 -434.591295 
L -728.892342 -428.974258 
L -736.427289 -432.777333 
z
" clip-path="url(#pf977ebcfe5)" style="fill: #e8edf4; stroke: #b8c5d4; stroke-width: 0.45"/>
    <path d="M -768.761303 98.7085 
L -767.317569 97.445141 
L -758.226338 101.106421 
L -759.458308 102.87583 
L -764.39783 103.930373 
z
" clip-path="url(#pf977ebcfe5)" style="fill: #e8edf4; stroke: #b8c5d4; stroke-width: 0.45"/>
    <path d="M -792.075892 89.095008 
L -788.13462 87.063731 
L -782.647196 92.881547 
L -783.445913 93.732579 
L -789.629931 93.024933 
z
" clip-path="url(#pf977ebcfe5)" style="fill: #e8edf4; stroke: #b8c5d4; stroke-width: 0.45"/>
    <path d="M -814.296446 81.929983 
L -811.285635 79.412254 
L -807.888728 79.725257 
L -807.585599 83.157974 
L -809.333346 84.617033 
z
" clip-path="url(#pf977ebcfe5)" style="fill: #e8edf4; stroke: #b8c5d4; stroke-width: 0.45"/>
    <path d="M -927.100791 -480.233528 
L -912.548735 -482.75495 
L -900.857364 -481.420371 
L -899.453485 -475.767161 
L -908.495879 -473.474959 
z
" clip-path="url(#pf977ebcfe5)" style="fill: #e8edf4; stroke: #b8c5d4; stroke-width: 0.45"/>
    <path d="M -777.819229 96.188414 
L -776.714877 94.393363 
L -769.464085 95.0232 
L -769.922243 96.616362 
z
" clip-path="url(#pf977ebcfe5)" style="fill: #e8edf4; stroke: #b8c5d4; stroke-width: 0.45"/>
    <path d="M 443.351509 136.790668 
L 444.649915 132.04025 
L 469.333351 135.269133 
L 474.639303 131.988466 
L 467.908149 125.60457 
L 468.019332 119.975729 
L 458.721827 117.677435 
L 462.04095 113.608206 
L 483.81306 116.573599 
L 485.102329 124.599352 
L 483.976028 130.264365 
L 480.383134 132.747711 
L 484.175929 137.172193 
L 483.87284 141.175551 
L 474.085291 138.670882 
L 467.130628 139.692854 
L 458.139257 138.627475 
L 451.244375 141.381925 
z
" clip-path="url(#pf977ebcfe5)" style="fill: #e8edf4; stroke: #b8c5d4; stroke-width: 0.45"/>
    <path d="M 480.383134 132.747711 
L 483.976028 130.264365 
L 485.102329 124.599352 
L 483.81306 116.573599 
L 485.65596 114.061696 
L 497.159235 114.129853 
L 505.888259 117.923028 
L 509.772056 117.552925 
L 512.447688 122.78044 
L 520.510375 122.48649 
L 520.035562 126.878227 
L 526.592325 127.410536 
L 533.834846 132.81701 
L 528.362118 138.815573 
L 521.353007 135.610298 
L 509.740834 135.52691 
L 507.08386 138.214726 
L 501.426462 139.12285 
L 499.18414 135.547852 
L 494.311497 137.66338 
L 488.413076 147.754399 
L 484.619139 145.411174 
L 484.175929 137.172193 
z
" clip-path="url(#pf977ebcfe5)" style="fill: #e8edf4; stroke: #b8c5d4; stroke-width: 0.45"/>
    <path d="M 385.135823 44.936842 
L 388.342629 35.584186 
L 392.776394 36.178066 
L 397.934163 48.409347 
L 398.012856 56.960191 
L 394.397407 57.693331 
L 390.653604 49.202906 
z
" clip-path="url(#pf977ebcfe5)" style="fill: #e8edf4; stroke: #b8c5d4; stroke-width: 0.45"/>
    <path d="M 394.250043 8.620843 
L 405.891864 15.25226 
L 403.349084 25.727247 
L 400.639634 23.838472 
L 400.88146 16.136449 
L 394.279221 10.31318 
z
" clip-path="url(#pf977ebcfe5)" style="fill: #e8edf4; stroke: #b8c5d4; stroke-width: 0.45"/>
    <path d="M 376.713628 12.304963 
L 383.639775 11.126045 
L 393.365854 11.568139 
L 393.807948 15.399625 
L 377.745182 17.757462 
z
" clip-path="url(#pf977ebcfe5)" style="fill: #e8edf4; stroke: #b8c5d4; stroke-width: 0.45"/>
    <path d="M -185.45019 -72.361142 
L -149.988759 -75.094612 
L -151.368241 -72.212893 
L -95.496487 -54.668226 
L -54.504454 -54.778749 
L -54.475865 -60.859519 
L -28.946235 -60.854601 
L -23.571987 -55.629487 
L -7.280363 -44.489737 
L 1.272692 -28.691343 
L 8.891012 -24.241515 
L 21.122292 -19.82057 
L 30.406277 -31.462391 
L 42.454825 -31.746805 
L 52.841099 -25.872991 
L 65.331742 -7.147194 
L 74.026267 1.252601 
L 77.268293 11.568139 
L 81.394508 18.494286 
L 103.351868 26.304622 
L 109.098974 25.862565 
L 103.380273 38.799037 
L 100.803259 49.406372 
L 99.726076 69.14977 
L 98.306587 76.346598 
L 100.860754 84.385678 
L 105.430308 91.572226 
L 108.372094 103.001632 
L 118.153552 113.972978 
L 121.593759 122.381018 
L 127.359294 129.636485 
L 143.006808 133.546174 
L 149.097897 139.711131 
L 162.022945 135.592783 
L 173.260065 134.104374 
L 193.57004 128.928263 
L 202.942938 122.915231 
L 206.454347 114.319474 
L 207.664416 101.939299 
L 210.211731 97.63133 
L 220.192709 93.772283 
L 235.775874 90.35416 
L 248.82429 90.867431 
L 257.762355 89.619285 
L 261.297752 92.743838 
L 260.797809 99.841668 
L 252.87867 108.601915 
L 249.374876 117.574248 
L 252.090868 120.1406 
L 246.189781 138.009875 
L 242.454482 134.225077 
L 236.567864 134.664479 
L 231.288946 143.559898 
L 228.614076 141.816377 
L 226.830194 142.494899 
L 226.945566 144.663353 
L 199.558703 144.526659 
L 199.547661 152.822373 
L 192.891899 152.858927 
L 203.827834 161.180533 
L 205.463217 164.374005 
L 207.85023 165.26804 
L 207.472892 170.286515 
L 188.558799 170.330683 
L 181.4663 182.342659 
L 183.559362 185.096347 
L 181.84973 188.551785 
L 181.488385 192.844142 
L 164.810903 176.97883 
L 157.211225 172.193383 
L 145.179069 168.349947 
L 136.947704 169.420656 
L 125.112022 174.964967 
L 117.684069 176.417584 
L 96.233705 169.730218 
L 82.460313 162.970126 
L 71.412052 160.905241 
L 54.728859 154.054146 
L 42.400468 147.010766 
L 38.680399 143.075184 
L 30.433803 142.195999 
L 15.360482 137.531254 
L 9.222178 130.807335 
L -6.611911 122.443464 
L -13.995314 113.150146 
L -17.507866 105.968548 
L -12.591435 104.53002 
L -14.107639 100.327523 
L -10.719598 96.505029 
L -10.646872 91.408878 
L -15.618132 84.791573 
L -16.948142 78.92742 
L -21.889322 71.490329 
L -34.876055 56.84194 
L -49.693122 45.33067 
L -56.861774 36.143966 
L -69.510007 30.127127 
L -72.219907 26.52738 
L -69.973397 17.419495 
L -77.48626 13.982334 
L -86.184824 6.821297 
L -89.858439 -3.461246 
L -97.785193 -4.660273 
L -113.248417 -19.590808 
L -113.890767 -24.195012 
L -121.815617 -35.310287 
L -127.035517 -46.595003 
L -126.812389 -52.255066 
L -137.469985 -58.100181 
L -142.389842 -57.458212 
L -150.800167 -61.517922 
L -153.161668 -55.534209 
L -150.723253 -48.462652 
L -149.288913 -37.396496 
L -130.870576 -17.701075 
L -128.629397 -16.649022 
L -126.685213 -11.58714 
L -124.065935 -11.791991 
L -121.108157 -2.287349 
L -116.633032 1.461657 
L -113.494772 6.679653 
L -104.233439 14.179189 
L -99.343662 27.88747 
L -90.87508 41.247352 
L -90.065194 49.019516 
L -82.959368 49.506513 
L -71.704352 62.782246 
L -72.062271 65.421324 
L -78.263781 70.834272 
L -80.874683 70.763449 
L -84.760384 61.805205 
L -94.404385 53.405541 
L -112.56761 42.538143 
L -112.080613 31.755275 
L -114.316462 23.769884 
L -131.469138 12.626432 
L -133.415225 14.5234 
L -137.131866 10.68301 
L -146.221475 7.11639 
L -154.907092 -1.440149 
L -153.832956 -2.552362 
L -147.76319 -1.716584 
L -142.295413 -7.220914 
L -141.745589 -13.868681 
L -153.090085 -24.381206 
L -161.737626 -28.461477 
L -179.463733 -59.104257 
z
" clip-path="url(#pf977ebcfe5)" style="fill: #e8edf4; stroke: #b8c5d4; stroke-width: 0.45"/>
    <path d="M 450.289417 517.970134 
L 454.177403 515.275845 
L 454.161411 509.051108 
L 463.069014 504.797208 
L 461.600025 496.82857 
L 465.360835 491.701196 
L 466.430402 484.823829 
L 483.281894 474.794494 
L 495.359361 471.959322 
L 497.335148 469.744034 
L 510.614688 470.435502 
L 517.587246 423.638792 
L 515.279814 415.200291 
L 508.74285 409.823897 
L 508.817861 399.116801 
L 517.117002 396.689047 
L 520.063738 398.214389 
L 520.561778 392.569937 
L 511.926802 391.046118 
L 511.744416 381.825146 
L 540.457101 382.154507 
L 545.331266 377.074729 
L 549.425245 381.748612 
L 552.298113 390.441464 
L 555.079216 388.625218 
L 563.192545 396.419466 
L 574.650127 395.464509 
L 577.502434 390.954735 
L 594.529077 385.095912 
L 596.241755 378.854802 
L 606.767988 374.661824 
L 605.971048 371.564687 
L 593.487306 370.298264 
L 591.441458 361.017512 
L 592.035832 351.137817 
L 585.44023 347.317607 
L 588.201914 345.961325 
L 599.111577 347.84687 
L 610.829222 351.530385 
L 615.083122 348.046771 
L 625.680177 345.760281 
L 642.163469 340.243766 
L 647.552809 334.619875 
L 645.601772 330.461547 
L 653.263133 329.810059 
L 656.692678 333.205716 
L 654.776291 339.676427 
L 659.839697 341.908468 
L 663.219742 348.756516 
L 659.132236 353.948239 
L 656.787489 366.492904 
L 660.559722 373.943703 
L 661.628147 380.762813 
L 670.693767 387.677114 
L 677.927149 388.408182 
L 679.55606 385.521988 
L 690.881136 382.299959 
L 695.672676 378.380751 
L 715.421404 380.309323 
L 716.74913 377.298237 
L 714.277207 374.368636 
L 715.751146 370.101409 
L 721.698306 371.410858 
L 728.656395 369.904173 
L 743.533242 376.066845 
L 748.0948 372.071103 
L 751.391078 372.68718 
L 753.400752 376.835609 
L 760.456698 375.782414 
L 766.104196 370.184796 
L 770.629581 359.33301 
L 779.346802 345.847095 
L 784.366801 345.150677 
L 788.012239 353.30132 
L 796.277874 379.07298 
L 804.158936 381.505684 
L 804.556454 391.678187 
L 793.472401 403.809342 
L 798.056044 408.25134 
L 824.1049 410.565626 
L 824.636447 425.33624 
L 835.829398 415.666346 
L 854.373388 420.96278 
L 878.848926 429.962528 
L 886.041566 438.598265 
L 883.625235 446.755762 
L 900.760777 442.214004 
L 929.439954 450.008252 
L 951.456134 449.434059 
L 973.24081 461.629944 
L 992.061234 478.139128 
L 1003.412964 482.389983 
L 1016.014744 482.980929 
L 1021.355346 487.629301 
L 1028.803098 515.308591 
L 1022.934757 539.670661 
L 1015.437505 549.291817 
L 994.665663 569.796743 
L 985.277154 586.455948 
L 974.368253 599.231357 
L 970.683976 599.519215 
L 966.566771 610.361101 
L 967.61273 637.972615 
L 961.938579 670.403083 
L 957.279164 676.217356 
L 954.666359 695.917346 
L 939.724782 715.154327 
L 937.219352 730.374243 
L 925.291525 736.760424 
L 921.841419 745.593397 
L 905.831417 745.558367 
L 882.649336 751.221096 
L 872.270078 757.777098 
L 855.765843 762.08202 
L 838.422785 773.815657 
L 825.948561 788.431681 
L 823.803715 799.435011 
L 826.253934 807.572709 
L 823.501388 822.459837 
L 820.157134 829.650954 
L 809.858218 837.761236 
L 793.507432 863.697386 
L 780.548876 875.386854 
L 770.530202 882.278691 
L 763.81009 896.296152 
L 754.060998 904.722469 
L 749.980726 896.376113 
L 756.478852 889.38604 
L 747.955821 879.358989 
L 721.230346 861.773003 
L 715.752288 862.203267 
L 700.974821 850.806226 
L 691.409256 852.37726 
L 711.07117 832.283559 
L 727.702961 817.976716 
L 750.00738 803.85264 
L 750.307803 792.083973 
L 742.9145 783.577696 
L 735.616388 786.401445 
L 740.506165 769.182515 
L 740.51378 761.08061 
L 735.210493 758.406882 
L 729.683317 760.789706 
L 724.188886 760.136314 
L 722.466307 754.463686 
L 721.095175 740.959494 
L 718.335394 736.557857 
L 708.382973 732.569731 
L 702.367657 735.455925 
L 686.811145 732.626845 
L 687.790852 712.622243 
L 683.433003 704.428954 
L 688.039491 701.382839 
L 686.621905 692.983176 
L 690.659531 686.526172 
L 693.277287 674.918949 
L 689.796719 665.756995 
L 681.746978 661.619609 
L 680.166425 655.804575 
L 682.330309 647.293728 
L 654.077969 646.685266 
L 648.410671 629.526498 
L 652.711025 629.280524 
L 652.516835 622.925566 
L 649.64511 618.622928 
L 648.995145 610.104466 
L 640.435941 605.734052 
L 631.165469 605.878742 
L 625.066385 601.59895 
L 615.104826 598.679248 
L 609.306925 593.173395 
L 592.804214 590.741071 
L 576.801447 577.541491 
L 577.986005 567.662177 
L 576.174328 561.997164 
L 577.742315 550.952711 
L 558.460024 553.448241 
L 550.695475 558.98151 
L 537.810026 564.953419 
L 534.522887 569.410648 
L 515.978136 568.48539 
L 507.665668 571.023566 
L 500.961548 569.331449 
L 501.945824 546.946308 
L 489.854269 555.630783 
L 476.84964 555.250018 
L 471.277153 547.389518 
L 461.496838 546.535082 
L 464.61111 540.207539 
L 456.42239 531.242059 
z
" clip-path="url(#pf977ebcfe5)" style="fill: #e8edf4; stroke: #b8c5d4; stroke-width: 0.45"/>
    <path d="M 340.890084 476.898598 
L 345.477153 466.577597 
L 357.223736 457.270953 
L 358.970683 463.405829 
L 354.766663 466.914954 
L 355.165324 472.314956 
L 361.256412 471.14144 
L 367.208903 472.734558 
L 373.393659 480.175457 
L 381.725547 474.113687 
L 384.513885 464.171166 
L 393.544094 451.349304 
L 411.264871 445.538078 
L 427.33351 430.10798 
L 431.92058 420.526424 
L 429.864832 409.335757 
L 433.79356 407.938351 
L 443.593675 414.917763 
L 448.297639 421.873568 
L 455.119033 425.670551 
L 463.800463 441.12121 
L 474.773332 442.967156 
L 482.893514 439.070413 
L 488.215078 441.620012 
L 497.059474 440.353589 
L 508.34419 447.254564 
L 498.839548 462.252113 
L 503.240423 462.601655 
L 510.614688 470.435502 
L 497.335148 469.744034 
L 495.359361 471.959322 
L 483.281894 474.794494 
L 466.430402 484.823829 
L 465.360835 491.701196 
L 461.600025 496.82857 
L 463.069014 504.797208 
L 454.161411 509.051108 
L 454.177403 515.275845 
L 450.289417 517.970134 
L 456.42239 531.242059 
L 464.61111 540.207539 
L 461.496838 546.535082 
L 471.277153 547.389518 
L 476.84964 555.250018 
L 489.854269 555.630783 
L 501.945824 546.946308 
L 500.961548 569.331449 
L 507.665668 571.023566 
L 515.978136 568.48539 
L 528.719275 592.20473 
L 525.550935 597.191982 
L 524.536959 620.091155 
L 518.780181 627.452855 
L 521.420783 632.916825 
L 518.039975 637.87057 
L 524.378561 650.257598 
L 511.133289 673.718018 
L 503.556839 677.479971 
L 488.780894 669.018624 
L 487.501906 662.972084 
L 458.286994 648.174817 
L 431.859276 632.05782 
L 420.492697 622.974304 
L 414.3879 610.800503 
L 416.808039 606.554218 
L 404.326962 587.215193 
L 389.797372 560.026328 
L 375.87434 530.683859 
L 369.8476 523.967936 
L 365.210651 513.114626 
L 353.761826 503.496517 
L 343.261866 497.5307 
L 348.031321 490.954136 
z
" clip-path="url(#pf977ebcfe5)" style="fill: #e8edf4; stroke: #b8c5d4; stroke-width: 0.45"/>
    <path d="M 376.552481 382.170499 
L 382.050719 381.064759 
L 381.398089 373.682498 
L 384.853907 368.344943 
L 392.164204 367.356859 
L 404.010166 350.365246 
L 398.578561 346.858406 
L 401.358903 338.305675 
L 398.034068 324.824329 
L 401.193651 320.955382 
L 398.867561 308.49182 
L 392.900602 300.642361 
L 394.789194 293.47942 
L 399.538849 294.537184 
L 402.317287 290.157251 
L 398.896119 281.477345 
L 400.684569 279.322599 
L 408.298716 279.790558 
L 419.355353 269.503445 
L 425.423596 267.935077 
L 428.285041 250.608772 
L 436.736869 243.770243 
L 446.022952 243.490381 
L 447.194945 240.418754 
L 458.725634 241.648623 
L 476.064123 230.912589 
L 483.198126 223.813237 
L 488.418787 224.716029 
L 492.285069 228.592592 
L 489.424386 233.554333 
L 479.958582 236.024352 
L 476.220618 243.392144 
L 470.516386 247.617487 
L 466.233547 253.094021 
L 464.431008 263.609593 
L 460.343883 272.227053 
L 467.951176 273.213995 
L 469.84091 279.988936 
L 473.092257 283.231146 
L 474.255873 289.164598 
L 472.505499 294.619048 
L 473.0241 297.694863 
L 476.651262 298.923209 
L 480.161149 304.063529 
L 499.111414 302.646324 
L 507.672141 304.523873 
L 518.044164 317.204852 
L 524.000081 315.628868 
L 534.61427 316.417812 
L 543.013553 314.737118 
L 548.225076 317.269582 
L 545.571148 325.206617 
L 542.282485 330.15427 
L 541.128388 340.723148 
L 544.09302 350.514886 
L 548.28219 354.893677 
L 548.788988 358.193001 
L 541.321055 365.528809 
L 546.66813 368.776349 
L 550.585054 373.928853 
L 555.079216 388.625218 
L 552.298113 390.441464 
L 549.425245 381.748612 
L 545.331266 377.074729 
L 540.457101 382.154507 
L 511.744416 381.825146 
L 511.926802 391.046118 
L 520.561778 392.569937 
L 520.063738 398.214389 
L 517.117002 396.689047 
L 508.817861 399.116801 
L 508.74285 409.823897 
L 515.279814 415.200291 
L 517.587246 423.638792 
L 510.614688 470.435502 
L 503.240423 462.601655 
L 498.839548 462.252113 
L 508.34419 447.254564 
L 497.059474 440.353589 
L 488.215078 441.620012 
L 482.893514 439.070413 
L 474.773332 442.967156 
L 463.800463 441.12121 
L 455.119033 425.670551 
L 448.297639 421.873568 
L 443.593675 414.917763 
L 433.79356 407.938351 
L 429.864832 409.335757 
L 416.320661 400.96427 
L 412.134537 403.309017 
L 399.62909 401.264312 
L 396.038862 394.924585 
L 393.291266 395.159897 
L 378.551875 386.745384 
z
" clip-path="url(#pf977ebcfe5)" style="fill: #e8edf4; stroke: #b8c5d4; stroke-width: 0.45"/>
    <path d="M 317.977204 285.887358 
L 319.981548 279.974087 
L 319.408497 277.307213 
L 321.611219 275.561788 
L 318.546446 273.371631 
L 318.461917 267.440464 
L 324.160437 266.124161 
L 329.451921 271.409933 
L 329.150355 274.532201 
L 335.0305 275.194731 
L 336.421814 273.996085 
L 340.472386 277.617155 
L 347.722521 276.552157 
L 353.991427 272.830184 
L 362.940914 269.857937 
L 367.970431 265.454016 
L 376.106606 266.318732 
L 375.557544 267.768302 
L 383.774059 268.270911 
L 390.331204 270.816321 
L 400.684569 279.322599 
L 398.896119 281.477345 
L 402.317287 290.157251 
L 399.538849 294.537184 
L 394.789194 293.47942 
L 392.900602 300.642361 
L 387.987979 296.391126 
L 384.831061 288.436576 
L 388.471931 284.499853 
L 384.738155 283.490065 
L 381.987513 278.62085 
L 374.645993 274.524586 
L 368.197748 275.463551 
L 365.210651 280.589783 
L 359.258541 284.291575 
L 356.043366 284.805987 
L 354.598746 287.872664 
L 361.628038 295.871383 
L 355.476027 299.937947 
L 348.619983 300.689956 
L 346.06848 291.886683 
L 344.150189 294.392113 
L 339.290112 293.527016 
L 336.316342 287.597752 
L 326.448451 284.895086 
L 320.124334 284.917171 
L 319.669321 288.115592 
z
" clip-path="url(#pf977ebcfe5)" style="fill: #e8edf4; stroke: #b8c5d4; stroke-width: 0.45"/>
    <path d="M 274.122279 246.537258 
L 279.720278 241.794456 
L 289.42939 245.696911 
L 292.817813 243.775954 
L 297.491316 245.005443 
L 299.933919 248.037851 
L 304.283011 249.019461 
L 307.811555 245.896431 
L 311.544188 253.903146 
L 324.160437 266.124161 
L 318.461917 267.440464 
L 318.546446 273.371631 
L 321.611219 275.561788 
L 319.408497 277.307213 
L 319.981548 279.974087 
L 317.977204 285.887358 
L 309.980389 282.617353 
L 306.988342 279.524023 
L 308.685409 276.965667 
L 308.150054 273.70975 
L 304.064452 270.181587 
L 293.192485 265.39614 
L 292.224201 261.085505 
L 288.358681 258.452519 
L 289.306023 262.736881 
L 286.365379 266.25819 
L 282.997137 262.16878 
L 278.262331 260.712737 
L 276.248468 257.742774 
L 276.332997 253.256227 
L 278.284034 248.614328 
z
" clip-path="url(#pf977ebcfe5)" style="fill: #e8edf4; stroke: #b8c5d4; stroke-width: 0.45"/>
    <path d="M 248.675792 216.848674 
L 250.311937 214.569799 
L 252.744641 216.788133 
L 258.442019 215.140946 
L 260.287203 211.774988 
L 262.449565 211.644005 
L 262.136196 204.397297 
L 268.66364 204.153988 
L 271.844927 200.221834 
L 276.191734 203.200554 
L 285.563108 195.562419 
L 285.80794 192.52925 
L 287.222099 192.656806 
L 289.112594 189.135496 
L 290.652025 188.706756 
L 293.163928 190.958216 
L 296.114852 191.624173 
L 299.37153 189.750431 
L 303.094264 189.740531 
L 308.209834 187.815386 
L 310.252255 185.808377 
L 315.303476 186.109562 
L 313.285424 190.813525 
L 314.789063 196.205911 
L 311.394167 201.225529 
L 309.812472 207.155173 
L 309.335374 213.64873 
L 310.497848 224.081675 
L 308.246388 225.529342 
L 306.868401 231.832516 
L 307.881615 235.72431 
L 304.866342 239.492735 
L 305.552099 243.475531 
L 307.811555 245.896431 
L 304.283011 249.019461 
L 299.933919 248.037851 
L 297.491316 245.005443 
L 292.817813 243.775954 
L 289.42939 245.696911 
L 279.720278 241.794456 
L 277.49966 243.690663 
L 265.514338 233.103508 
L 262.270225 228.136055 
z
" clip-path="url(#pf977ebcfe5)" style="fill: #e8edf4; stroke: #b8c5d4; stroke-width: 0.45"/>
    <path d="M 223.847286 194.534355 
L 226.909393 190.792964 
L 225.735116 187.900677 
L 226.772699 185.069313 
L 240.474507 175.324028 
L 242.00518 175.899744 
L 245.237489 173.309023 
L 259.953654 174.89681 
L 266.76553 174.511858 
L 273.234717 171.231953 
L 281.456944 172.995273 
L 288.239882 171.371693 
L 297.309691 173.74081 
L 306.067273 179.798772 
L 311.42539 182.055943 
L 315.303476 186.109562 
L 310.252255 185.808377 
L 308.209834 187.815386 
L 303.094264 189.740531 
L 299.37153 189.750431 
L 296.114852 191.624173 
L 293.163928 190.958216 
L 290.652025 188.706756 
L 289.112594 189.135496 
L 287.222099 192.656806 
L 285.80794 192.52925 
L 285.563108 195.562419 
L 276.191734 203.200554 
L 271.844927 200.221834 
L 268.66364 204.153988 
L 262.136196 204.397297 
L 262.449565 211.644005 
L 260.287203 211.774988 
L 258.442019 215.140946 
L 253.860661 215.746742 
L 251.31487 211.136446 
L 246.839365 209.855174 
L 247.865145 203.952183 
L 245.860801 202.35678 
L 242.827631 201.30587 
L 236.363393 203.061575 
L 235.814712 201.077031 
L 228.191808 195.773744 
z
" clip-path="url(#pf977ebcfe5)" style="fill: #e8edf4; stroke: #b8c5d4; stroke-width: 0.45"/>
    <path d="M 212.909447 204.684774 
L 213.36446 202.523936 
L 221.181554 197.176861 
L 220.398702 195.441336 
L 223.847286 194.534355 
L 228.191808 195.773744 
L 235.814712 201.077031 
L 236.363393 203.061575 
L 242.827631 201.30587 
L 247.865145 203.952183 
L 245.203601 213.32508 
L 236.668386 213.104998 
L 231.364337 211.693505 
L 225.270583 208.763903 
L 217.082244 207.848926 
z
" clip-path="url(#pf977ebcfe5)" style="fill: #e8edf4; stroke: #b8c5d4; stroke-width: 0.45"/>
    <path d="M 181.4663 182.342659 
L 188.558799 170.330683 
L 207.472892 170.286515 
L 207.85023 165.26804 
L 205.463217 164.374005 
L 203.827834 161.180533 
L 192.891899 152.858927 
L 199.547661 152.822373 
L 199.558703 144.526659 
L 226.945566 144.663353 
L 225.67762 172.977758 
L 230.076592 172.972808 
L 234.881077 175.63854 
L 236.151688 173.442671 
L 240.474507 175.324028 
L 226.772699 185.069313 
L 225.735116 187.900677 
L 226.909393 190.792964 
L 223.847286 194.534355 
L 220.398702 195.441336 
L 221.181554 197.176861 
L 213.36446 202.523936 
L 212.909447 204.684774 
L 205.348607 202.114233 
L 196.156192 201.848079 
L 189.416662 198.924569 
L 181.488385 192.844142 
L 181.84973 188.551785 
L 183.559362 185.096347 
z
" clip-path="url(#pf977ebcfe5)" style="fill: #e8edf4; stroke: #b8c5d4; stroke-width: 0.45"/>
    <path d="M 225.67762 172.977758 
L 226.830194 142.494899 
L 228.614076 141.816377 
L 231.288946 143.559898 
L 236.567864 134.664479 
L 239.369148 134.47067 
L 239.423597 136.63265 
L 242.216504 136.700426 
L 241.970911 140.708734 
L 239.585422 147.08273 
L 240.87469 149.361986 
L 238.552789 163.48987 
L 235.658598 167.399559 
L 232.997055 167.868661 
L 230.076592 172.972808 
z
" clip-path="url(#pf977ebcfe5)" style="fill: #e8edf4; stroke: #b8c5d4; stroke-width: 0.45"/>
    <path d="M 460.343883 272.227053 
L 464.431008 263.609593 
L 466.233547 253.094021 
L 470.516386 247.617487 
L 476.220618 243.392144 
L 479.958582 236.024352 
L 489.424386 233.554333 
L 489.005545 237.036424 
L 480.354577 238.756337 
L 485.161347 245.444083 
L 484.981626 253.150755 
L 478.481216 261.71034 
L 484.059415 273.402093 
L 490.412089 272.445231 
L 493.721312 261.793727 
L 489.151759 256.607335 
L 488.406983 245.451318 
L 506.758687 239.460751 
L 504.717028 232.514846 
L 509.88362 227.865712 
L 515.1732 238.220982 
L 525.507908 238.460102 
L 535.082611 246.67776 
L 535.659469 251.556875 
L 548.891033 251.686335 
L 564.635261 250.172035 
L 573.073763 256.771444 
L 584.344009 258.592641 
L 592.610786 253.989199 
L 592.779845 250.278268 
L 628.693547 249.184713 
L 616.179723 253.537231 
L 621.21381 260.493797 
L 632.999231 261.60106 
L 644.172002 268.847388 
L 646.520176 280.653751 
L 654.200194 280.320963 
L 659.974106 283.794677 
L 648.298346 292.451356 
L 647.0106 297.824323 
L 652.054968 303.292862 
L 648.395441 306.053404 
L 639.327536 308.418713 
L 639.621105 315.223735 
L 635.629171 319.279638 
L 645.601772 330.461547 
L 647.552809 334.619875 
L 642.163469 340.243766 
L 625.680177 345.760281 
L 615.083122 348.046771 
L 610.829222 351.530385 
L 599.111577 347.84687 
L 588.201914 345.961325 
L 585.44023 347.317607 
L 592.035832 351.137817 
L 591.441458 361.017512 
L 593.487306 370.298264 
L 605.971048 371.564687 
L 606.767988 374.661824 
L 596.241755 378.854802 
L 594.529077 385.095912 
L 577.502434 390.954735 
L 574.650127 395.464509 
L 563.192545 396.419466 
L 555.079216 388.625218 
L 550.585054 373.928853 
L 546.66813 368.776349 
L 541.321055 365.528809 
L 548.788988 358.193001 
L 548.28219 354.893677 
L 544.09302 350.514886 
L 541.128388 340.723148 
L 542.282485 330.15427 
L 545.571148 325.206617 
L 548.225076 317.269582 
L 543.013553 314.737118 
L 534.61427 316.417812 
L 524.000081 315.628868 
L 518.044164 317.204852 
L 507.672141 304.523873 
L 499.111414 302.646324 
L 480.161149 304.063529 
L 476.651262 298.923209 
L 473.0241 297.694863 
L 472.505499 294.619048 
L 474.255873 289.164598 
L 473.092257 283.231146 
L 469.84091 279.988936 
L 467.951176 273.213995 
z
" clip-path="url(#pf977ebcfe5)" style="fill: #e8edf4; stroke: #b8c5d4; stroke-width: 0.45"/>
    <path d="M 347.420956 440.207376 
L 350.41186 436.053236 
L 347.923565 422.678504 
L 353.085588 420.456363 
L 355.797773 411.276132 
L 361.374449 401.785198 
L 360.347147 395.771405 
L 368.420495 392.610298 
L 378.551875 386.745384 
L 393.291266 395.159897 
L 396.038862 394.924585 
L 399.62909 401.264312 
L 412.134537 403.309017 
L 416.320661 400.96427 
L 429.864832 409.335757 
L 431.92058 420.526424 
L 427.33351 430.10798 
L 411.264871 445.538078 
L 393.544094 451.349304 
L 384.513885 464.171166 
L 381.725547 474.113687 
L 373.393659 480.175457 
L 367.208903 472.734558 
L 361.256412 471.14144 
L 355.165324 472.314956 
L 354.766663 466.914954 
L 358.970683 463.405829 
L 357.223736 457.270953 
L 365.067483 446.257722 
L 361.880485 439.822042 
L 356.247837 446.66514 
z
" clip-path="url(#pf977ebcfe5)" style="fill: #e8edf4; stroke: #b8c5d4; stroke-width: 0.45"/>
    <path d="M 549.684165 136.320423 
L 551.773039 134.16682 
L 563.831087 134.252873 
L 571.363369 135.550899 
L 574.020343 138.478215 
L 570.245445 142.193715 
L 550.542789 142.626263 
z
" clip-path="url(#pf977ebcfe5)" style="fill: #e8edf4; stroke: #b8c5d4; stroke-width: 0.45"/>
    <path d="M 386.178587 138.508677 
L 387.946857 135.140434 
L 397.497952 134.61003 
L 407.415342 135.931282 
L 415.24424 139.470488 
L 417.686082 143.505829 
L 407.327766 143.78036 
L 402.851119 146.243145 
L 394.60338 143.878217 
z
" clip-path="url(#pf977ebcfe5)" style="fill: #e8edf4; stroke: #b8c5d4; stroke-width: 0.45"/>
    <path d="M 288.369723 84.424896 
L 296.148359 79.872477 
L 299.341831 74.555482 
L 306.004447 71.278624 
L 313.530256 68.406137 
L 324.687415 66.995785 
L 328.257843 65.376775 
L 352.563941 66.59446 
L 366.405109 71.614839 
L 372.270785 77.00989 
L 386.035419 75.345188 
L 412.909011 94.581407 
L 417.760331 94.37884 
L 426.549136 97.384214 
L 425.475761 101.533023 
L 436.33897 102.139962 
L 447.477853 108.17127 
L 445.729763 111.623281 
L 435.930791 113.493976 
L 426.011877 114.225806 
L 415.858793 113.059905 
L 394.758732 114.495387 
L 404.637666 106.274302 
L 398.631868 102.446477 
L 389.132176 101.46144 
L 384.040214 97.207539 
L 380.547081 88.81511 
L 372.219001 89.388922 
L 358.477593 85.437349 
L 354.055776 82.346303 
L 334.848114 80.062478 
L 329.704367 77.188088 
L 335.230402 73.506096 
L 320.775441 72.751801 
L 310.186383 80.409355 
L 304.080444 80.614968 
L 301.967963 84.210526 
L 294.675182 85.821921 
z
" clip-path="url(#pf977ebcfe5)" style="fill: #e8edf4; stroke: #b8c5d4; stroke-width: 0.45"/>
   </g>
   <g id="PathCollection_1">
    <defs>
     <path id="m589b69a643" d="M 0 2.12132 
C 0.562581 2.12132 1.102195 1.897805 1.5 1.5 
C 1.897805 1.102195 2.12132 0.562581 2.12132 0 
C 2.12132 -0.562581 1.897805 -1.102195 1.5 -1.5 
C 1.102195 -1.897805 0.562581 -2.12132 0 -2.12132 
C -0.562581 -2.12132 -1.102195 -1.897805 -1.5 -1.5 
C -1.897805 -1.102195 -2.12132 -0.562581 -2.12132 0 
C -2.12132 0.562581 -1.897805 1.102195 -1.5 1.5 
C -1.102195 1.897805 -0.562581 2.12132 0 2.12132 
z
" style="stroke: #ffffff; stroke-width: 0.5"/>
    </defs>
    <g clip-path="url(#pf977ebcfe5)">
     <use xlink:href="#m589b69a643" x="509.538462" y="222.889306" style="fill: #8aa0b7; stroke: #ffffff; stroke-width: 0.5"/>
     <use xlink:href="#m589b69a643" x="535.00556" y="227.628559" style="fill: #8aa0b7; stroke: #ffffff; stroke-width: 0.5"/>
     <use xlink:href="#m589b69a643" x="420.628347" y="49.73563" style="fill: #8aa0b7; stroke: #ffffff; stroke-width: 0.5"/>
     <use xlink:href="#m589b69a643" x="232.738189" y="152.891011" style="fill: #8aa0b7; stroke: #ffffff; stroke-width: 0.5"/>
     <use xlink:href="#m589b69a643" x="523.931093" y="227.75824" style="fill: #8aa0b7; stroke: #ffffff; stroke-width: 0.5"/>
     <use xlink:href="#m589b69a643" x="473.434078" y="127.102166" style="fill: #8aa0b7; stroke: #ffffff; stroke-width: 0.5"/>
     <use xlink:href="#m589b69a643" x="398.523623" y="138.154528" style="fill: #8aa0b7; stroke: #ffffff; stroke-width: 0.5"/>
     <use xlink:href="#m589b69a643" x="354.314174" y="119.733925" style="fill: #8aa0b7; stroke: #ffffff; stroke-width: 0.5"/>
     <use xlink:href="#m589b69a643" x="560.624936" y="138.154528" style="fill: #8aa0b7; stroke: #ffffff; stroke-width: 0.5"/>
     <use xlink:href="#m589b69a643" x="230.282108" y="203.240662" style="fill: #8aa0b7; stroke: #ffffff; stroke-width: 0.5"/>
     <use xlink:href="#m589b69a643" x="482.552523" y="87.402081" style="fill: #8aa0b7; stroke: #ffffff; stroke-width: 0.5"/>
    </g>
   </g>
   <g id="PatchCollection_2">
    <defs>
     <path id="ma35e275b7c" d="M 248.675792 -214.193454 
L 250.311937 -216.472329 
L 252.744641 -214.253996 
L 258.442019 -215.901183 
L 260.287203 -219.26714 
L 262.449565 -219.398123 
L 262.136196 -226.644832 
L 268.66364 -226.88814 
L 271.844927 -230.820295 
L 276.191734 -227.841575 
L 285.563108 -235.479709 
L 285.80794 -238.512879 
L 287.222099 -238.385322 
L 289.112594 -241.906632 
L 290.652025 -242.335373 
L 293.163928 -240.083913 
L 296.114852 -239.417956 
L 299.37153 -241.291697 
L 303.094264 -241.301597 
L 308.209834 -243.226742 
L 310.252255 -245.233752 
L 315.303476 -244.932567 
L 313.285424 -240.228603 
L 314.789063 -234.836217 
L 311.394167 -229.8166 
L 309.812472 -223.886955 
L 309.335374 -217.393398 
L 310.497848 -206.960453 
L 308.246388 -205.512787 
L 306.868401 -199.209612 
L 307.881615 -195.317819 
L 304.866342 -191.549393 
L 305.552099 -187.566597 
L 307.811555 -185.145697 
L 304.283011 -182.022667 
L 299.933919 -183.004278 
L 297.491316 -186.036686 
L 292.817813 -187.266174 
L 289.42939 -185.345218 
L 279.720278 -189.247672 
L 277.49966 -187.351465 
L 265.514338 -197.93862 
L 262.270225 -202.906073 
z
" style="stroke: #b45309; stroke-width: 1.15"/>
    </defs>
    <g clip-path="url(#pf977ebcfe5)">
     <use xlink:href="#ma35e275b7c" x="0" y="431.042128" style="fill: #f59e0b; stroke: #b45309; stroke-width: 1.15"/>
    </g>
   </g>
   <g id="PathCollection_2">
    <defs>
     <path id="mba5929b88f" d="M 0 3.316625 
C 0.879579 3.316625 1.723251 2.967164 2.345208 2.345208 
C 2.967164 1.723251 3.316625 0.879579 3.316625 0 
C 3.316625 -0.879579 2.967164 -1.723251 2.345208 -2.345208 
C 1.723251 -2.967164 0.879579 -3.316625 0 -3.316625 
C -0.879579 -3.316625 -1.723251 -2.967164 -2.345208 -2.345208 
C -2.967164 -1.723251 -3.316625 -0.879579 -3.316625 0 
C -3.316625 0.879579 -2.967164 1.723251 -2.345208 2.345208 
C -1.723251 2.967164 -0.879579 3.316625 0 3.316625 
z
" style="stroke: #ffffff"/>
    </defs>
    <g clip-path="url(#pf977ebcfe5)">
     <use xlink:href="#mba5929b88f" x="288" y="215.521064" style="fill: #f97316; stroke: #ffffff"/>
    </g>
   </g>
   <g id="PathCollection_3">
    <path d="M 288 219.970783 
C 289.180079 219.970783 290.311984 219.501933 291.146427 218.667491 
C 291.980869 217.833049 292.449719 216.701144 292.449719 215.521064 
C 292.449719 214.340985 291.980869 213.20908 291.146427 212.374638 
C 290.311984 211.540196 289.180079 211.071345 288 211.071345 
C 286.819921 211.071345 285.688016 211.540196 284.853573 212.374638 
C 284.019131 213.20908 283.550281 214.340985 283.550281 215.521064 
C 283.550281 216.701144 284.019131 217.833049 284.853573 218.667491 
C 285.688016 219.501933 286.819921 219.970783 288 219.970783 
L 288 219.970783 
z
" clip-path="url(#pf977ebcfe5)" style="fill: none; stroke: #7c2d12; stroke-width: 1.1"/>
   </g>
  </g>
 </g>
 <defs>
  <clipPath id="pf977ebcfe5">
   <rect x="0" y="-0" width="576" height="431.042128"/>
  </clipPath>
 </defs>
</svg>
