<?xml version="1.0" encoding="utf-8" standalone="no"?>
<!DOCTYPE svg PUBLIC "-//W3C//DTD SVG 1.1//EN"
  "http://www.w3.org/Graphics/SVG/1.1/DTD/svg11.dtd">
<svg xmlns:xlink="http://www.w3.org/1999/xlink" width="576pt" height="384pt" viewBox="0 0 576 384" xmlns="http://www.w3.org/2000/svg" version="1.1">
 <metadata>
  <rdf:RDF xmlns:dc="http://purl.org/dc/elements/1.1/" xmlns:cc="http://creativecommons.org/ns#" xmlns:rdf="http://www.w3.org/1999/02/22-rdf-syntax-ns#">
   <cc:Work>
    <dc:type rdf:resource="http://purl.org/dc/dcmitype/StillImage"/>
    <dc:date>2026-06-09T04:57:02.156334</dc:date>
    <dc:format>image/svg+xml</dc:format>
    <dc:creator>
     <cc:Agent>
      <dc:title>Matplotlib v3.10.8, https://matplotlib.org/</dc:title>
     </cc:Agent>
    </dc:creator>
   </cc:Work>
  </rdf:RDF>
 </metadata>
 <defs>
  <style type="text/css">*{stroke-linejoin: round; stroke-linecap: butt}</style>
 </defs>
 <g id="figure_1">
  <g id="patch_1">
   <path d="M 0 384 
L 576 384 
L 576 0 
L 0 0 
z
" style="fill: #eaf3ff"/>
  </g>
  <g id="axes_1">
   <g id="PatchCollection_1">
    <path d="M -749.194434 -368.341113 
L -746.869141 -372.090527 
L -719.104 -365.568 
L -708.877312 -347.4432 
L -704.128 -352.512 
L -707.2 -368.256 
L -713.728 -384 
L -182.254135 -384 
L -182.196928 -391.3776 
L -175.697536 -391.46976 
L -172.288 -380.928 
L -166.319488 -377.678208 
L -133.312 -373.44 
L -114.688 -367.488 
L -99.136 -369.984 
L -75.52 -364.992 
L -69.240015 -365.180318 
L -52.059792 -370.616018 
L 15.179266 -343.6816 
L 17.038626 -338.632358 
L 21.560024 -336.742736 
L 20.38592 -334.84032 
L 25.53536 -334.248384 
L 29.271305 -336.234736 
L 30.236456 -331.688037 
L 34.097305 -328.644998 
L 39.370286 -328.644998 
L 42.184626 -326.297979 
L 39.817266 -322.884358 
L 59.822247 -313.872318 
L 67.757266 -279.764881 
L 62.144 -268.416 
L 48.896 -251.136 
L 48.473606 -249.133076 
L 50.627645 -246.389678 
L 57.150286 -243.362018 
L 61.965868 -243.362018 
L 84.267266 -253.613299 
L 104.049004 -256.631037 
L 129.164247 -266.181338 
L 127.808 -273.984 
L 124.703868 -277.753717 
L 133.370626 -280.801717 
L 169.855344 -280.872658 
L 176 -288.354411 
L 198.690368 -303.67584 
L 207.3536 -307.209216 
L 271.902848 -307.35744 
L 273.824 -312.096 
L 288.128 -316.032 
L 294.944 -324.768 
L 300.800576 -339.706944 
L 315.445453 -354.197395 
L 321.824 -349.152 
L 334.698752 -352.413312 
L 343.223168 -346.874112 
L 343.206272 -320.693952 
L 355.761728 -309.840576 
L 359.078528 -303.54624 
L 338.575616 -294.24384 
L 298.569536 -281.93376 
L 285.154112 -266.21376 
L 284.96 -256.032 
L 291.296 -245.856 
L 299.264 -245.376 
L 297.248 -252.384 
L 303.008576 -248.118336 
L 301.471424 -242.633664 
L 288.512 -239.52 
L 279.288512 -239.89344 
L 265.088 -236.544 
L 245.572544 -234.63648 
L 229.568 -229.077165 
L 257.767808 -232.694016 
L 263.456 -229.056 
L 236.576 -223.296 
L 224.3456 -223.2576 
L 224.91536 -225.6144 
L 219.071168 -220.291392 
L 224.721152 -219.410496 
L 220.575104 -205.617792 
L 206.604032 -190.839168 
L 205.176128 -195.77088 
L 200.959616 -196.77024 
L 194.66144 -201.5712 
L 198.656 -191.232 
L 203.420772 -187.815019 
L 203.710784 -180.559104 
L 186.747584 -157.764288 
L 184.999616 -158.52672 
L 190.93664 -171.59136 
L 181.128896 -178.928928 
L 178.88 -194.88 
L 175.17968 -186.578208 
L 179.276864 -174.398592 
L 166.59204 -177.407842 
L 179.808896 -171.224544 
L 180.632192 -152.95488 
L 186.14144 -151.627392 
L 190.832192 -125.774208 
L 178.626944 -111.523968 
L 158.765408 -105.830592 
L 146.144768 -94.569024 
L 136.55648 -93.337536 
L 126.835136 -86.28384 
L 124.091456 -79.841088 
L 103.01456 -67.379616 
L 92.192384 -58.23936 
L 83.143232 -46.857408 
L 80.183936 -33.215808 
L 83.576768 -19.881984 
L 89.984 -3.456 
L 98.516768 10.135104 
L 98.624 18.432 
L 107.714446 40.704 
L 106.274048 61.11792 
L 101.484224 72.841728 
L 95.744 75.264 
L 86.295104 72.935808 
L 83.264 64.512 
L 75.968 60.096 
L 56.86112 28.895232 
L 53.979008 21.384192 
L 57.92 8.64 
L 52.544 -1.92 
L 37.575872 -17.981952 
L 30.08 -20.928 
L 10.710656 -12.21408 
L 7.273472 -13.173504 
L -2.04352 -22.130112 
L -14.08 -26.88 
L -35.782912 -24.467136 
L -52.822144 -26.59008 
L -67.465408 -25.266816 
L -75.401559 -22.271885 
L -71.943712 -17.168448 
L -72.256 -9.381888 
L -68.179264 -5.588736 
L -71.838016 -3.064512 
L -78.962176 -5.897088 
L -86.168896 -2.254656 
L -100.10032 -2.851872 
L -114.434272 -12.9984 
L -131.181952 -10.60416 
L -145.146304 -15.048 
L -157.089664 -13.701696 
L -173.248 -9.216 
L -190.724992 5.018304 
L -209.805568 13.296384 
L -220.288 22.464 
L -224.704 31.104 
L -224.896 44.352 
L -223.936 53.568 
L -220.288 60.096 
L -227.776 60.672 
L -256.384 50.496 
L -261.76 41.472 
L -265.984 28.032 
L -277.312 17.088 
L -293.58592 -7.309632 
L -307.11808 -14.96256 
L -322.816 -14.592 
L -334.912 0.576 
L -350.848 -5.184 
L -360.773824 -10.981632 
L -371.917504 -31.565184 
L -393.14368 -46.07904 
L -400.145728 -52.886784 
L -433.408 -52.893191 
L -433.445248 -44.970624 
L -486.853312 -44.826624 
L -559.648 -67.685376 
L -557.850688 -71.439936 
L -604.052992 -67.878528 
L -607.282004 -77.687513 
L -619.7248 -88.727739 
L -628.683564 -91.025457 
L -630.781981 -96.533406 
L -641.5552 -97.4976 
L -648.42574 -102.690762 
L -666.261376 -104.584512 
L -671.158912 -107.68416 
L -673.491136 -118.211712 
L -692.119744 -137.501376 
L -708.111424 -164.193792 
L -707.430592 -168.641088 
L -715.901248 -174.983232 
L -730.76224 -191.071872 
L -733.411264 -206.726208 
L -743.642944 -217.21344 
L -739.434112 -233.126784 
L -740.10304 -249.593088 
L -746.230528 -264.307008 
L -738.729088 -282.400896 
L -734.059456 -317.249472 
L -737.528992 -343.0032 
L -743.596864 -359.427264 
z
" clip-path="url(#p827d84e501)" style="fill: #e8edf4; stroke: #b8c5d4; stroke-width: 0.45"/>
    <path d="M -1582.922753 -704.063943 
L -1555.941207 -712.095701 
L -1513.114425 -721.471873 
L -1497.328226 -721.471873 
L -1499.941152 -711.882381 
L -1459.413269 -712.629498 
L -1475.002519 -724.52285 
L -1498.618566 -731.834776 
L -1512.275035 -741.433693 
L -1530.693507 -749.621225 
L -1557.077261 -755.690436 
L -1546.330382 -765.754193 
L -1512.271562 -766.378279 
L -1488.037382 -775.125404 
L -1483.466871 -784.474787 
L -1463.850828 -793.599936 
L -1445.148093 -795.795647 
L -1408.752175 -804.319529 
L -1391.098679 -803.034647 
L -1361.551832 -813.269061 
L -1332.501574 -809.237307 
L -1318.607972 -800.571045 
L -1310.080121 -804.287779 
L -1277.632117 -803.13585 
L -1278.784046 -798.720119 
L -1249.407855 -795.456318 
L -1229.824058 -797.376201 
L -1189.376542 -791.309471 
L -1152.447804 -789.504186 
L -1137.664211 -787.007842 
L -1112.117367 -790.128272 
L -1062.130962 -781.670369 
L -1062.357376 -601.082688 
L -1043.4496 -600.514944 
L -1024.7488 -595.2 
L -994.288 -574.176 
L -975.610624 -584.906688 
L -956.335936 -591.125376 
L -946.144 -581.194752 
L -915.626752 -564.677376 
L -883.989952 -529.000704 
L -851.349376 -516.783936 
L -850.816 -504.672 
L -861.493316 -495.412865 
L -872.04771 -502.634998 
L -888.97046 -508.757291 
L -894.400206 -525.503928 
L -919.152277 -541.034639 
L -929.498808 -559.162897 
L -978.458796 -560.87442 
L -1000.960121 -566.399912 
L -1040.661511 -586.325022 
L -1092.629316 -596.821373 
L -1119.210515 -595.184264 
L -1156.970691 -604.005307 
L -1179.79598 -612.185397 
L -1201.106679 -608.121397 
L -1197.146859 -594.783916 
L -1229.974871 -589.548639 
L -1246.878273 -583.069654 
L -1268.154742 -578.991764 
L -1270.901117 -590.303693 
L -1262.266605 -609.135412 
L -1241.861277 -615.044881 
L -1247.125328 -619.860959 
L -1271.600113 -609.162201 
L -1284.703933 -596.383818 
L -1312.368105 -582.725365 
L -1298.320218 -573.402772 
L -1316.463855 -559.610373 
L -1356.320027 -545.717268 
L -1361.07707 -537.215709 
L -1391.050558 -527.301276 
L -1397.119769 -518.287748 
L -1419.583886 -510.080373 
L -1432.762617 -511.556748 
L -1486.133374 -493.242951 
L -1519.082929 -487.760123 
L -1522.090746 -490.986717 
L -1501.088121 -499.957084 
L -1482.304027 -505.882428 
L -1461.84016 -516.38374 
L -1438.02121 -518.554647 
L -1428.554749 -526.426662 
L -1401.941304 -537.920162 
L -1397.65307 -541.764889 
L -1383.477191 -548.54401 
L -1380.165269 -563.103865 
L -1370.40016 -574.442584 
L -1392.538839 -568.623404 
L -1398.730585 -571.925404 
L -1409.125238 -564.944373 
L -1421.664007 -574.682693 
L -1426.840746 -567.792943 
L -1434.021207 -577.365568 
L -1453.216066 -569.680084 
L -1465.002757 -569.695959 
L -1466.655742 -581.124967 
L -1463.184078 -588.165529 
L -1475.546734 -595.002693 
L -1500.512156 -591.32267 
L -1516.714578 -600.335701 
L -1529.850644 -604.943916 
L -1529.935972 -615.818787 
L -1544.73048 -624.000365 
L -1537.301476 -635.03994 
L -1521.64823 -645.755068 
L -1514.800152 -655.610467 
L -1499.263984 -657.01342 
L -1486.09071 -653.941608 
L -1470.602664 -663.205166 
L -1456.661437 -661.551686 
L -1442.032128 -667.509276 
L -1445.600035 -676.277733 
L -1456.346914 -679.733522 
L -1442.133332 -687.141193 
L -1453.924984 -686.922912 
L -1474.298562 -682.741338 
L -1480.149492 -678.501225 
L -1495.290769 -682.735881 
L -1522.447933 -680.581346 
L -1550.565535 -685.184104 
L -1558.624082 -692.906795 
z
" clip-path="url(#p827d84e501)" style="fill: #e8edf4; stroke: #b8c5d4; stroke-width: 0.45"/>
    <path d="M -1351.810624 178.503552 
L -1347.521536 173.236032 
L -1348.846144 169.46016 
L -1347.732736 167.669568 
L -1332.395392 175.50528 
L -1327.502272 182.232768 
L -1341.608512 190.397184 
L -1344.412864 193.609152 
L -1349.18368 190.859712 
L -1348.634752 185.493504 
z
" clip-path="url(#p827d84e501)" style="fill: #e8edf4; stroke: #b8c5d4; stroke-width: 0.45"/>
    <path d="M -1653.589324 -660.59224 
L -1652.447812 -667.824295 
L -1640.597124 -664.170068 
L -1628.629359 -666.143529 
L -1613.104105 -661.07742 
L -1594.037238 -658.512119 
L -1595.621265 -656.421084 
L -1610.165246 -652.357084 
L -1632.090605 -660.015779 
L -1649.018812 -658.901553 
z
" clip-path="url(#p827d84e501)" style="fill: #e8edf4; stroke: #b8c5d4; stroke-width: 0.45"/>
    <path d="M -1324.883062 -546.454959 
L -1297.191605 -556.204193 
L -1284.44398 -554.907404 
L -1276.310027 -548.948326 
L -1292.92123 -539.82417 
L -1312.097734 -532.505795 
L -1321.914933 -537.460779 
z
" clip-path="url(#p827d84e501)" style="fill: #e8edf4; stroke: #b8c5d4; stroke-width: 0.45"/>
    <path d="M -1364.04256 155.006208 
L -1362.161536 153.360192 
L -1350.316672 158.130432 
L -1351.921792 160.435776 
L -1358.35744 161.809728 
z
" clip-path="url(#p827d84e501)" style="fill: #e8edf4; stroke: #b8c5d4; stroke-width: 0.45"/>
    <path d="M -1394.41888 142.480896 
L -1389.28384 139.834368 
L -1382.134336 147.414336 
L -1383.174976 148.523136 
L -1391.232064 147.601152 
z
" clip-path="url(#p827d84e501)" style="fill: #e8edf4; stroke: #b8c5d4; stroke-width: 0.45"/>
    <path d="M -1423.369792 133.145664 
L -1419.44704 129.865344 
L -1415.021248 130.273152 
L -1414.626304 134.7456 
L -1416.903424 136.646592 
z
" clip-path="url(#p827d84e501)" style="fill: #e8edf4; stroke: #b8c5d4; stroke-width: 0.45"/>
    <path d="M -1570.34132 -599.290928 
L -1551.381609 -602.576061 
L -1536.14905 -600.837252 
L -1534.319953 -593.471748 
L -1546.101187 -590.485264 
z
" clip-path="url(#p827d84e501)" style="fill: #e8edf4; stroke: #b8c5d4; stroke-width: 0.45"/>
    <path d="M -1375.844032 151.722816 
L -1374.405184 149.384064 
L -1364.958208 150.204672 
L -1365.555136 152.280384 
z
" clip-path="url(#p827d84e501)" style="fill: #e8edf4; stroke: #b8c5d4; stroke-width: 0.45"/>
    <path d="M 215.205754 204.623041 
L 216.897434 198.433775 
L 249.057208 202.64065 
L 255.970274 198.366307 
L 247.200329 190.048799 
L 247.345188 182.715045 
L 235.231571 179.720623 
L 239.55602 174.418869 
L 267.922661 178.282447 
L 269.602434 188.739111 
L 268.134989 196.119994 
L 263.453848 199.355517 
L 268.395438 205.120127 
L 268.000547 210.336057 
L 255.248458 207.072752 
L 246.187305 208.404267 
L 234.472547 207.016197 
L 225.489282 210.604939 
z
" clip-path="url(#p827d84e501)" style="fill: #e8edf4; stroke: #b8c5d4; stroke-width: 0.45"/>
    <path d="M 263.453848 199.355517 
L 268.134989 196.119994 
L 269.602434 188.739111 
L 267.922661 178.282447 
L 270.323754 175.009717 
L 285.311243 175.098517 
L 296.684192 180.040603 
L 301.744348 179.5584 
L 305.230399 186.369271 
L 315.735184 185.986287 
L 315.116555 191.708232 
L 323.65929 192.401771 
L 333.095489 199.445807 
L 325.965133 207.261267 
L 316.83304 203.08515 
L 301.703668 202.976506 
L 298.241926 206.478432 
L 290.870965 207.661615 
L 287.949469 203.003791 
L 281.600958 205.760088 
L 273.915969 218.907564 
L 268.972891 215.854603 
L 268.395438 205.120127 
z
" clip-path="url(#p827d84e501)" style="fill: #e8edf4; stroke: #b8c5d4; stroke-width: 0.45"/>
    <path d="M 139.357184 84.947712 
L 143.535296 72.76224 
L 149.312 73.536 
L 156.032 89.472 
L 156.134528 100.6128 
L 151.424 101.568 
L 146.54624 90.50592 
z
" clip-path="url(#p827d84e501)" style="fill: #e8edf4; stroke: #b8c5d4; stroke-width: 0.45"/>
    <path d="M 151.232 37.632 
L 166.4 46.272 
L 163.08704 59.919744 
L 159.556928 57.45888 
L 159.872 47.424 
L 151.270016 39.836928 
z
" clip-path="url(#p827d84e501)" style="fill: #e8edf4; stroke: #b8c5d4; stroke-width: 0.45"/>
    <path d="M 128.384 42.432 
L 137.408 40.896 
L 150.08 41.472 
L 150.656 46.464 
L 129.728 49.536 
z
" clip-path="url(#p827d84e501)" style="fill: #e8edf4; stroke: #b8c5d4; stroke-width: 0.45"/>
    <path d="M 128.174043 524.325697 
L 135.337637 522.885041 
L 134.487333 513.266775 
L 138.989879 506.312533 
L 148.514383 505.02517 
L 163.948356 482.886986 
L 156.871579 478.317963 
L 160.494055 467.174705 
L 156.162165 449.61001 
L 160.278751 444.569201 
L 157.248114 428.330564 
L 149.473829 418.103592 
L 151.934454 408.771076 
L 158.122727 410.149224 
L 161.742723 404.442658 
L 157.285321 393.133705 
L 159.615473 390.32631 
L 169.53586 390.93601 
L 183.94143 377.533045 
L 191.847676 375.489635 
L 195.575821 352.915385 
L 206.587614 344.005541 
L 218.686348 343.640912 
L 220.213325 339.638924 
L 235.236532 341.241307 
L 257.826657 327.253447 
L 267.121469 318.003779 
L 273.923411 319.180017 
L 278.960747 324.230748 
L 275.233594 330.695346 
L 262.900704 333.913506 
L 258.030551 343.51292 
L 250.598571 349.018072 
L 245.018508 356.153389 
L 242.670001 369.85401 
L 237.34493 381.081603 
L 247.256387 382.367478 
L 249.718501 391.194474 
L 253.954645 395.418713 
L 255.470708 403.149342 
L 253.190165 410.255885 
L 253.865844 414.26333 
L 258.591633 415.863728 
L 263.164626 422.560994 
L 287.854715 420.714533 
L 299.008391 423.160771 
L 312.521985 439.682678 
L 320.281883 437.629346 
L 334.110993 438.657252 
L 345.054325 436.467494 
L 351.84436 439.767014 
L 348.386586 450.108088 
L 344.101825 456.55433 
L 342.598165 470.324404 
L 346.460751 483.081951 
L 351.918774 488.787029 
L 352.579075 493.085682 
L 342.849188 502.643424 
L 349.815833 506.874607 
L 354.919149 513.587748 
L 360.774543 532.735478 
L 357.151075 535.101846 
L 353.408047 523.776025 
L 348.074047 517.686474 
L 341.723551 524.304861 
L 304.314114 523.87574 
L 304.551743 535.889642 
L 315.802157 537.87501 
L 315.153266 545.229103 
L 311.313997 543.241752 
L 300.501137 546.404846 
L 300.403407 560.355002 
L 308.920344 567.359846 
L 311.926672 578.354275 
L 302.842204 639.325189 
L 293.234356 629.118557 
L 287.500504 628.663142 
L 299.883997 609.123002 
L 285.181266 600.131799 
L 273.658001 601.781807 
L 266.724594 598.459963 
L 256.144899 603.536986 
L 241.848469 601.131924 
L 230.537532 581.001432 
L 221.650012 576.054385 
L 215.52127 566.991744 
L 202.752809 557.898346 
L 197.634114 559.71901 
L 179.987563 548.811892 
L 174.533508 551.866838 
L 158.240301 549.202814 
L 153.562633 540.942853 
L 149.982821 541.249439 
L 130.779032 530.286264 
z
" clip-path="url(#p827d84e501)" style="fill: #e8edf4; stroke: #b8c5d4; stroke-width: 0.45"/>
    <path d="M 51.856965 398.879463 
L 54.468403 391.175127 
L 53.721782 387.700486 
L 56.591684 385.426392 
L 52.598626 382.572861 
L 52.488493 374.845209 
L 59.913032 373.130213 
L 66.807247 380.016986 
L 66.41434 384.084955 
L 74.075516 384.948158 
L 75.888243 383.386455 
L 81.165688 388.104307 
L 90.611809 386.716732 
L 98.779497 381.867416 
L 110.439684 377.994908 
L 116.992586 372.257088 
L 127.593118 373.383717 
L 126.877751 375.272346 
L 137.582958 375.927189 
L 146.126188 379.243576 
L 159.615473 390.32631 
L 157.285321 393.133705 
L 161.742723 404.442658 
L 158.122727 410.149224 
L 151.934454 408.771076 
L 149.473829 418.103592 
L 143.073227 412.564705 
L 138.960114 402.20081 
L 143.703762 397.071697 
L 138.839067 395.756057 
L 135.255286 389.41201 
L 125.690102 384.075033 
L 117.288754 385.2984 
L 113.396899 391.97731 
L 105.641961 396.800334 
L 101.452946 397.470557 
L 99.570766 401.466096 
L 108.729153 411.887537 
L 100.713766 417.185818 
L 91.781102 418.165603 
L 88.456778 406.695916 
L 85.957458 409.960213 
L 79.625317 408.833088 
L 75.750825 401.107916 
L 62.894059 397.586642 
L 54.654438 397.615416 
L 54.061606 401.782603 
z
" clip-path="url(#p827d84e501)" style="fill: #e8edf4; stroke: #b8c5d4; stroke-width: 0.45"/>
    <path d="M -5.281128 347.610654 
L 2.012442 341.43131 
L 14.662336 346.515775 
L 19.077075 344.012982 
L 25.166129 345.614869 
L 28.348571 349.56576 
L 34.014954 350.844689 
L 38.612254 346.775728 
L 43.475461 357.207588 
L 59.913032 373.130213 
L 52.488493 374.845209 
L 52.598626 382.572861 
L 56.591684 385.426392 
L 53.721782 387.700486 
L 54.468403 391.175127 
L 51.856965 398.879463 
L 41.438004 394.61901 
L 37.5397 390.588744 
L 39.75079 387.25549 
L 39.053282 383.013392 
L 33.730196 378.416588 
L 19.565231 372.181682 
L 18.303665 366.565404 
L 13.267321 363.134916 
L 14.501602 368.716963 
L 10.67027 373.304838 
L 6.281825 367.976791 
L 0.112899 366.079728 
L -2.510941 362.210197 
L -2.400808 356.364724 
L 0.141176 350.316846 
z
" clip-path="url(#p827d84e501)" style="fill: #e8edf4; stroke: #b8c5d4; stroke-width: 0.45"/>
    <path d="M -38.435074 308.929728 
L -36.303359 305.960607 
L -33.133816 308.850849 
L -25.710765 306.704748 
L -23.306695 302.319279 
L -20.489378 302.148623 
L -20.897664 292.706967 
L -12.393128 292.389963 
L -8.248265 287.266803 
L -2.584859 291.147744 
L 9.625001 281.196103 
L 9.943989 277.244221 
L 11.786481 277.410412 
L 14.249586 272.822537 
L 16.255293 272.263935 
L 19.528024 275.197338 
L 23.372751 276.065006 
L 27.61584 273.623728 
L 32.466149 273.61083 
L 39.131168 271.10258 
L 41.792215 268.48767 
L 48.373395 268.88008 
L 45.744098 275.008822 
L 47.703172 282.034502 
L 43.280001 288.574506 
L 41.219227 296.300174 
L 40.597622 304.760557 
L 42.112196 318.353525 
L 39.178793 320.239674 
L 37.38343 328.45201 
L 38.703536 333.522584 
L 34.774969 338.432424 
L 35.668434 343.621564 
L 38.612254 346.775728 
L 34.014954 350.844689 
L 28.348571 349.56576 
L 25.166129 345.614869 
L 19.077075 344.012982 
L 14.662336 346.515775 
L 2.012442 341.43131 
L -0.880777 343.901857 
L -16.49632 330.107971 
L -20.723039 323.635932 
z
" clip-path="url(#p827d84e501)" style="fill: #e8edf4; stroke: #b8c5d4; stroke-width: 0.45"/>
    <path d="M -70.783859 279.85665 
L -66.794273 274.982033 
L -68.324226 271.213705 
L -66.972371 267.524752 
L -49.120437 254.827728 
L -47.12614 255.577822 
L -42.9148 252.2024 
L -23.741273 254.271111 
L -14.866156 253.76956 
L -6.437523 249.496209 
L 4.275126 251.793619 
L 13.11254 249.678275 
L 24.929493 252.764971 
L 36.339649 260.657822 
L 43.32068 263.598666 
L 48.373395 268.88008 
L 41.792215 268.48767 
L 39.131168 271.10258 
L 32.466149 273.61083 
L 27.61584 273.623728 
L 23.372751 276.065006 
L 19.528024 275.197338 
L 16.255293 272.263935 
L 14.249586 272.822537 
L 11.786481 277.410412 
L 9.943989 277.244221 
L 9.625001 281.196103 
L -2.584859 291.147744 
L -8.248265 287.266803 
L -12.393128 292.389963 
L -20.897664 292.706967 
L -20.489378 302.148623 
L -23.306695 302.319279 
L -25.710765 306.704748 
L -31.679765 307.494033 
L -34.996648 301.48733 
L -40.827734 299.817974 
L -39.491257 292.127033 
L -42.102695 290.0484 
L -46.054578 288.679182 
L -54.476761 290.96667 
L -55.191632 288.381029 
L -65.123429 281.471435 
z
" clip-path="url(#p827d84e501)" style="fill: #e8edf4; stroke: #b8c5d4; stroke-width: 0.45"/>
    <path d="M 237.34493 381.081603 
L 242.670001 369.85401 
L 245.018508 356.153389 
L 250.598571 349.018072 
L 258.030551 343.51292 
L 262.900704 333.913506 
L 275.233594 330.695346 
L 274.687891 335.232123 
L 263.416641 337.472978 
L 269.679329 346.186369 
L 269.445172 356.227307 
L 260.97586 367.379494 
L 268.243633 382.612549 
L 276.520461 381.365865 
L 280.832012 367.488139 
L 274.878391 360.730846 
L 273.908032 346.195795 
L 297.818262 338.390752 
L 295.158208 329.34101 
L 301.889704 323.283705 
L 308.781438 336.775471 
L 322.246415 337.087017 
L 334.721188 347.793713 
L 335.47277 354.150658 
L 352.712028 354.31933 
L 373.225008 352.346365 
L 384.219438 360.944662 
L 398.903317 363.317478 
L 409.674008 357.319705 
L 409.894274 352.484775 
L 456.685836 351.059994 
L 440.381715 356.730842 
L 446.940571 365.794474 
L 462.295665 367.237115 
L 476.852543 376.678275 
L 479.911954 392.060654 
L 489.918165 391.627068 
L 497.44093 396.152932 
L 482.228711 407.431623 
L 480.550922 414.432002 
L 487.123172 421.5569 
L 482.355215 425.15358 
L 470.540743 428.235314 
L 470.923231 437.101502 
L 465.722184 442.385892 
L 478.715376 456.954678 
L 481.25736 462.372517 
L 474.235649 469.699822 
L 452.759751 476.887228 
L 438.952965 479.866271 
L 433.410606 484.405033 
L 418.143817 479.605822 
L 403.929739 477.149166 
L 400.331571 478.916252 
L 408.924907 483.89356 
L 408.150504 496.765705 
L 410.816016 508.857494 
L 427.080946 510.507502 
L 428.11927 514.542728 
L 414.404758 520.005713 
L 412.173329 528.137185 
L 389.989504 535.77058 
L 386.273266 541.646314 
L 371.345309 542.890517 
L 360.774543 532.735478 
L 354.919149 513.587748 
L 349.815833 506.874607 
L 342.849188 502.643424 
L 352.579075 493.085682 
L 351.918774 488.787029 
L 346.460751 483.081951 
L 342.598165 470.324404 
L 344.101825 456.55433 
L 348.386586 450.108088 
L 351.84436 439.767014 
L 345.054325 436.467494 
L 334.110993 438.657252 
L 320.281883 437.629346 
L 312.521985 439.682678 
L 299.008391 423.160771 
L 287.854715 420.714533 
L 263.164626 422.560994 
L 258.591633 415.863728 
L 253.865844 414.26333 
L 253.190165 410.255885 
L 255.470708 403.149342 
L 253.954645 395.418713 
L 249.718501 391.194474 
L 247.256387 382.367478 
z
" clip-path="url(#p827d84e501)" style="fill: #e8edf4; stroke: #b8c5d4; stroke-width: 0.45"/>
    <path d="M 353.745391 204.010365 
L 356.466961 201.204459 
L 372.177258 201.316576 
L 381.990985 203.00776 
L 385.452727 206.821728 
L 380.534454 211.662611 
L 354.864083 212.226174 
z
" clip-path="url(#p827d84e501)" style="fill: #e8edf4; stroke: #b8c5d4; stroke-width: 0.45"/>
    <path d="M 140.71579 206.861416 
L 143.019649 202.472971 
L 155.463665 201.781912 
L 168.384922 203.503357 
L 178.585106 208.114549 
L 181.766555 213.37215 
L 168.270821 213.729834 
L 162.438247 216.938568 
L 151.69236 213.85733 
z
" clip-path="url(#p827d84e501)" style="fill: #e8edf4; stroke: #b8c5d4; stroke-width: 0.45"/>
    <path d="M 13.281708 136.39626 
L 23.416407 130.464963 
L 27.577145 123.53751 
L 36.257793 119.268127 
L 46.063086 115.525596 
L 60.599626 113.688064 
L 65.251497 111.578674 
L 96.919641 113.165182 
L 114.953145 119.706178 
L 122.595469 126.73533 
L 140.529258 124.566408 
L 175.542563 149.629064 
L 181.863293 149.365142 
L 193.314129 153.28081 
L 191.915641 158.686248 
L 206.069196 159.477021 
L 220.581922 167.335146 
L 218.304356 171.832732 
L 205.537383 174.270041 
L 192.614141 175.223533 
L 179.385801 173.704494 
L 151.894766 175.574767 
L 164.765918 164.863607 
L 156.941032 159.876377 
L 144.563989 158.592982 
L 137.929727 153.050623 
L 133.378563 142.116221 
L 122.528001 142.863834 
L 104.624473 137.715373 
L 98.863336 133.688084 
L 73.837887 130.712514 
L 67.136157 126.967502 
L 74.335965 122.170275 
L 55.502758 121.187514 
L 41.706391 131.164455 
L 33.751032 131.432346 
L 30.998704 136.116959 
L 21.49702 138.216428 
z
" clip-path="url(#p827d84e501)" style="fill: #e8edf4; stroke: #b8c5d4; stroke-width: 0.45"/>
    <path d="M 455.36 363.072 
L 460.928 357.792 
L 460.544 350.208 
L 471.584 347.712 
L 475.616 348.384 
L 474.848 362.688 
L 458.816 364.8 
z
" clip-path="url(#p827d84e501)" style="fill: #e8edf4; stroke: #b8c5d4; stroke-width: 0.45"/>
   </g>
   <g id="PathCollection_1">
    <defs>
     <path id="m37b3d5a6d2" d="M 0 2.12132 
C 0.562581 2.12132 1.102195 1.897805 1.5 1.5 
C 1.897805 1.102195 2.12132 0.562581 2.12132 0 
C 2.12132 -0.562581 1.897805 -1.102195 1.5 -1.5 
C 1.102195 -1.897805 0.562581 -2.12132 0 -2.12132 
C -0.562581 -2.12132 -1.102195 -1.897805 -1.5 -1.5 
C -1.897805 -1.102195 -2.12132 -0.562581 -2.12132 0 
C -2.12132 0.562581 -1.897805 1.102195 -1.5 1.5 
C -1.102195 1.897805 -0.562581 2.12132 0 2.12132 
z
" style="stroke: #ffffff; stroke-width: 0.5"/>
    </defs>
    <g clip-path="url(#p827d84e501)">
     <use xlink:href="#m37b3d5a6d2" x="458.24" y="229.44" style="fill: #8aa0b7; stroke: #ffffff; stroke-width: 0.5"/>
     <use xlink:href="#m37b3d5a6d2" x="432" y="206.4" style="fill: #8aa0b7; stroke: #ffffff; stroke-width: 0.5"/>
     <use xlink:href="#m37b3d5a6d2" x="301.44" y="316.8" style="fill: #8aa0b7; stroke: #ffffff; stroke-width: 0.5"/>
     <use xlink:href="#m37b3d5a6d2" x="501.76" y="304" style="fill: #8aa0b7; stroke: #ffffff; stroke-width: 0.5"/>
     <use xlink:href="#m37b3d5a6d2" x="438.40064" y="213.12" style="fill: #8aa0b7; stroke: #ffffff; stroke-width: 0.5"/>
     <use xlink:href="#m37b3d5a6d2" x="334.6208" y="322.97472" style="fill: #8aa0b7; stroke: #ffffff; stroke-width: 0.5"/>
     <use xlink:href="#m37b3d5a6d2" x="185.6" y="91.2" style="fill: #8aa0b7; stroke: #ffffff; stroke-width: 0.5"/>
     <use xlink:href="#m37b3d5a6d2" x="320.192" y="323.14368" style="fill: #8aa0b7; stroke: #ffffff; stroke-width: 0.5"/>
     <use xlink:href="#m37b3d5a6d2" x="467.2" y="260.8" style="fill: #8aa0b7; stroke: #ffffff; stroke-width: 0.5"/>
     <use xlink:href="#m37b3d5a6d2" x="460.8" y="324.16" style="fill: #8aa0b7; stroke: #ffffff; stroke-width: 0.5"/>
     <use xlink:href="#m37b3d5a6d2" x="462.400006" y="244.8" style="fill: #8aa0b7; stroke: #ffffff; stroke-width: 0.5"/>
     <use xlink:href="#m37b3d5a6d2" x="254.4" y="192" style="fill: #8aa0b7; stroke: #ffffff; stroke-width: 0.5"/>
     <use xlink:href="#m37b3d5a6d2" x="156.8" y="206.4" style="fill: #8aa0b7; stroke: #ffffff; stroke-width: 0.5"/>
     <use xlink:href="#m37b3d5a6d2" x="440" y="224" style="fill: #8aa0b7; stroke: #ffffff; stroke-width: 0.5"/>
     <use xlink:href="#m37b3d5a6d2" x="99.2" y="182.4" style="fill: #8aa0b7; stroke: #ffffff; stroke-width: 0.5"/>
     <use xlink:href="#m37b3d5a6d2" x="474.24" y="290.24" style="fill: #8aa0b7; stroke: #ffffff; stroke-width: 0.5"/>
     <use xlink:href="#m37b3d5a6d2" x="434.23808" y="209.84064" style="fill: #8aa0b7; stroke: #ffffff; stroke-width: 0.5"/>
     <use xlink:href="#m37b3d5a6d2" x="473.6" y="275.199994" style="fill: #8aa0b7; stroke: #ffffff; stroke-width: 0.5"/>
     <use xlink:href="#m37b3d5a6d2" x="450.56" y="235.2" style="fill: #8aa0b7; stroke: #ffffff; stroke-width: 0.5"/>
     <use xlink:href="#m37b3d5a6d2" x="368" y="206.4" style="fill: #8aa0b7; stroke: #ffffff; stroke-width: 0.5"/>
     <use xlink:href="#m37b3d5a6d2" x="434.14784" y="210.384" style="fill: #8aa0b7; stroke: #ffffff; stroke-width: 0.5"/>
     <use xlink:href="#m37b3d5a6d2" x="266.28032" y="140.2752" style="fill: #8aa0b7; stroke: #ffffff; stroke-width: 0.5"/>
     <use xlink:href="#m37b3d5a6d2" x="473.6" y="345.6" style="fill: #8aa0b7; stroke: #ffffff; stroke-width: 0.5"/>
     <use xlink:href="#m37b3d5a6d2" x="469.76" y="302.4" style="fill: #8aa0b7; stroke: #ffffff; stroke-width: 0.5"/>
     <use xlink:href="#m37b3d5a6d2" x="403.712" y="203.12256" style="fill: #8aa0b7; stroke: #ffffff; stroke-width: 0.5"/>
     <use xlink:href="#m37b3d5a6d2" x="398.79104" y="204.75264" style="fill: #8aa0b7; stroke: #ffffff; stroke-width: 0.5"/>
    </g>
   </g>
   <g id="PatchCollection_2">
    <defs>
     <path id="m3e6fb0ded5" d="M 263.453848 -184.644483 
L 268.134989 -187.880006 
L 269.602434 -195.260889 
L 267.922661 -205.717553 
L 270.323754 -208.990283 
L 285.311243 -208.901483 
L 296.684192 -203.959397 
L 301.744348 -204.4416 
L 305.230399 -197.630729 
L 315.735184 -198.013713 
L 315.116555 -192.291768 
L 323.65929 -191.598229 
L 333.095489 -184.554193 
L 325.965133 -176.738733 
L 316.83304 -180.91485 
L 301.703668 -181.023494 
L 298.241926 -177.521568 
L 290.870965 -176.338385 
L 287.949469 -180.996209 
L 281.600958 -178.239912 
L 273.915969 -165.092436 
L 268.972891 -168.145397 
L 268.395438 -178.879873 
z
" style="stroke: #b45309; stroke-width: 1.15"/>
    </defs>
    <g clip-path="url(#p827d84e501)">
     <use xlink:href="#m3e6fb0ded5" x="0" y="384" style="fill: #f59e0b; stroke: #b45309; stroke-width: 1.15"/>
    </g>
   </g>
   <g id="PathCollection_2">
    <defs>
     <path id="m4020baaddd" d="M 0 3.316625 
C 0.879579 3.316625 1.723251 2.967164 2.345208 2.345208 
C 2.967164 1.723251 3.316625 0.879579 3.316625 0 
C 3.316625 -0.879579 2.967164 -1.723251 2.345208 -2.345208 
C 1.723251 -2.967164 0.879579 -3.316625 0 -3.316625 
C -0.879579 -3.316625 -1.723251 -2.967164 -2.345208 -2.345208 
C -2.967164 -1.723251 -3.316625 -0.879579 -3.316625 0 
C -3.316625 0.879579 -2.967164 1.723251 -2.345208 2.345208 
C -1.723251 2.967164 -0.879579 3.316625 0 3.316625 
z
" style="stroke: #ffffff"/>
    </defs>
    <g clip-path="url(#p827d84e501)">
     <use xlink:href="#m4020baaddd" x="288" y="192" style="fill: #f97316; stroke: #ffffff"/>
    </g>
   </g>
   <g id="PathCollection_3">
    <path d="M 288 196.449719 
C 289.180079 196.449719 290.311984 195.980869 291.146427 195.146427 
C 291.980869 194.311984 292.449719 193.180079 292.449719 192 
C 292.449719 190.819921 291.980869 189.688016 291.146427 188.853573 
C 290.311984 188.019131 289.180079 187.550281 288 187.550281 
C 286.819921 187.550281 285.688016 188.019131 284.853573 188.853573 
C 284.019131 189.688016 283.550281 190.819921 283.550281 192 
C 283.550281 193.180079 284.019131 194.311984 284.853573 195.146427 
C 285.688016 195.980869 286.819921 196.449719 288 196.449719 
L 288 196.449719 
z
" clip-path="url(#p827d84e501)" style="fill: none; stroke: #7c2d12; stroke-width: 1.1"/>
   </g>
  </g>
 </g>
 <defs>
  <clipPath id="p827d84e501">
   <rect x="0" y="-0" width="576" height="384"/>
  </clipPath>
 </defs>
</svg>
