<?xml version="1.0" encoding="utf-8" standalone="no"?>
<!DOCTYPE svg PUBLIC "-//W3C//DTD SVG 1.1//EN"
  "http://www.w3.org/Graphics/SVG/1.1/DTD/svg11.dtd">
<svg xmlns:xlink="http://www.w3.org/1999/xlink" width="576pt" height="384pt" viewBox="0 0 576 384" xmlns="http://www.w3.org/2000/svg" version="1.1">
 <metadata>
  <rdf:RDF xmlns:dc="http://purl.org/dc/elements/1.1/" xmlns:cc="http://creativecommons.org/ns#" xmlns:rdf="http://www.w3.org/1999/02/22-rdf-syntax-ns#">
   <cc:Work>
    <dc:type rdf:resource="http://purl.org/dc/dcmitype/StillImage"/>
    <dc:date>2026-06-09T04:57:05.165916</dc:date>
    <dc:format>image/svg+xml</dc:format>
    <dc:creator>
     <cc:Agent>
      <dc:title>Matplotlib v3.10.8, https://matplotlib.org/</dc:title>
     </cc:Agent>
    </dc:creator>
   </cc:Work>
  </rdf:RDF>
 </metadata>
 <defs>
  <style type="text/css">*{stroke-linejoin: round; stroke-linecap: butt}</style>
 </defs>
 <g id="figure_1">
  <g id="patch_1">
   <path d="M 0 384 
L 576 384 
L 576 0 
L 0 0 
z
" style="fill: #eaf3ff"/>
  </g>
  <g id="axes_1">
   <g id="PatchCollection_1">
    <path d="M 40.805748 151.823041 
L 42.497428 145.633775 
L 74.657201 149.84065 
L 81.570268 145.566307 
L 72.800322 137.248799 
L 72.945182 129.915045 
L 60.831565 126.920623 
L 65.156014 121.618869 
L 93.522654 125.482447 
L 95.202428 135.939111 
L 93.734983 143.319994 
L 89.053842 146.555517 
L 93.995432 152.320127 
L 93.600541 157.536057 
L 80.848451 154.272752 
L 71.787299 155.604267 
L 60.072541 154.216197 
L 51.089276 157.804939 
z
" clip-path="url(#p69f1ea355d)" style="fill: #e8edf4; stroke: #b8c5d4; stroke-width: 0.45"/>
    <path d="M 89.053842 146.555517 
L 93.734983 143.319994 
L 95.202428 135.939111 
L 93.522654 125.482447 
L 95.923748 122.209717 
L 110.911236 122.298517 
L 122.284186 127.240603 
L 127.344342 126.7584 
L 130.830393 133.569271 
L 141.335178 133.186287 
L 140.716549 138.908232 
L 149.259283 139.601771 
L 158.695483 146.645807 
L 151.565127 154.461267 
L 142.433033 150.28515 
L 127.303662 150.176506 
L 123.84192 153.678432 
L 116.470959 154.861615 
L 113.549463 150.203791 
L 107.200951 152.960088 
L 99.515963 166.107564 
L 94.572885 163.054603 
L 93.995432 152.320127 
z
" clip-path="url(#p69f1ea355d)" style="fill: #e8edf4; stroke: #b8c5d4; stroke-width: 0.45"/>
    <path d="M -46.225963 471.525697 
L -39.062369 470.085041 
L -39.912674 460.466775 
L -35.410127 453.512533 
L -25.885623 452.22517 
L -10.45165 430.086986 
L -17.528428 425.517963 
L -13.905951 414.374705 
L -18.237842 396.81001 
L -14.121256 391.769201 
L -17.151892 375.530564 
L -24.926178 365.303592 
L -22.465553 355.971076 
L -16.277279 357.349224 
L -12.657283 351.642658 
L -17.114685 340.333705 
L -14.784533 337.52631 
L -4.864146 338.13601 
L 9.541424 324.733045 
L 17.44767 322.689635 
L 21.175815 300.115385 
L 32.187608 291.205541 
L 44.286342 290.840912 
L 45.813318 286.838924 
L 60.836526 288.441307 
L 83.426651 274.453447 
L 92.721463 265.203779 
L 99.523404 266.380017 
L 104.56074 271.430748 
L 100.833588 277.895346 
L 88.500697 281.113506 
L 83.630545 290.71292 
L 76.198565 296.218072 
L 70.618502 303.353389 
L 68.269994 317.05401 
L 62.944924 328.281603 
L 72.856381 329.567478 
L 75.318494 338.394474 
L 79.554639 342.618713 
L 81.070701 350.349342 
L 78.790158 357.455885 
L 79.465838 361.46333 
L 84.191627 363.063728 
L 88.764619 369.760994 
L 113.454709 367.914533 
L 124.608385 370.360771 
L 138.121979 386.882678 
L 145.881877 384.829346 
L 159.710986 385.857252 
L 170.654318 383.667494 
L 177.444354 386.967014 
L 173.98658 397.308088 
L 169.701818 403.75433 
L 168.198158 417.524404 
L 172.060744 430.281951 
L 177.518768 435.987029 
L 178.179068 440.285682 
L 168.449182 449.843424 
L 175.415826 454.074607 
L 180.519143 460.787748 
L 186.374537 479.935478 
L 182.751068 482.301846 
L 179.008041 470.976025 
L 173.674041 464.886474 
L 167.323545 471.504861 
L 129.914108 471.07574 
L 130.151736 483.089642 
L 141.402151 485.07501 
L 140.75326 492.429103 
L 136.91399 490.441752 
L 126.101131 493.604846 
L 126.003401 507.555002 
L 134.520338 514.559846 
L 137.526666 525.554275 
L 128.442197 586.525189 
L 118.83435 576.318557 
L 113.100498 575.863142 
L 125.48399 556.323002 
L 110.78126 547.331799 
L 99.257994 548.981807 
L 92.324588 545.659963 
L 81.744893 550.736986 
L 67.448463 548.331924 
L 56.137526 528.201432 
L 47.250006 523.254385 
L 41.121264 514.191744 
L 28.352803 505.098346 
L 23.234108 506.91901 
L 5.587557 496.011892 
L 0.133502 499.066838 
L -16.159705 496.402814 
L -20.837373 488.142853 
L -24.417185 488.449439 
L -43.620974 477.486264 
z
" clip-path="url(#p69f1ea355d)" style="fill: #e8edf4; stroke: #b8c5d4; stroke-width: 0.45"/>
    <path d="M 62.944924 328.281603 
L 68.269994 317.05401 
L 70.618502 303.353389 
L 76.198565 296.218072 
L 83.630545 290.71292 
L 88.500697 281.113506 
L 100.833588 277.895346 
L 100.287885 282.432123 
L 89.016635 284.672978 
L 95.279322 293.386369 
L 95.045166 303.427307 
L 86.575854 314.579494 
L 93.843627 329.812549 
L 102.120455 328.565865 
L 106.432006 314.688139 
L 100.478385 307.930846 
L 99.508026 293.395795 
L 123.418256 285.590752 
L 120.758201 276.54101 
L 127.489697 270.483705 
L 134.381432 283.975471 
L 147.846408 284.287017 
L 160.321182 294.993713 
L 161.072764 301.350658 
L 178.312022 301.51933 
L 198.825002 299.546365 
L 209.819432 308.144662 
L 224.503311 310.517478 
L 235.274002 304.519705 
L 235.494268 299.684775 
L 282.28583 298.259994 
L 265.981709 303.930842 
L 272.540565 312.994474 
L 287.895658 314.437115 
L 302.452537 323.878275 
L 305.511947 339.260654 
L 315.518158 338.827068 
L 323.040924 343.352932 
L 307.828705 354.631623 
L 306.150916 361.632002 
L 312.723166 368.7569 
L 307.955209 372.35358 
L 296.140736 375.435314 
L 296.523225 384.301502 
L 291.322178 389.585892 
L 304.315369 404.154678 
L 306.857354 409.572517 
L 299.835643 416.899822 
L 278.359744 424.087228 
L 264.552959 427.066271 
L 259.0106 431.605033 
L 243.743811 426.805822 
L 229.529733 424.349166 
L 225.931565 426.116252 
L 234.524901 431.09356 
L 233.750498 443.965705 
L 236.41601 456.057494 
L 252.68094 457.707502 
L 253.719264 461.742728 
L 240.004752 467.205713 
L 237.773322 475.337185 
L 215.589498 482.97058 
L 211.87326 488.846314 
L 196.945303 490.090517 
L 186.374537 479.935478 
L 180.519143 460.787748 
L 175.415826 454.074607 
L 168.449182 449.843424 
L 178.179068 440.285682 
L 177.518768 435.987029 
L 172.060744 430.281951 
L 168.198158 417.524404 
L 169.701818 403.75433 
L 173.98658 397.308088 
L 177.444354 386.967014 
L 170.654318 383.667494 
L 159.710986 385.857252 
L 145.881877 384.829346 
L 138.121979 386.882678 
L 124.608385 370.360771 
L 113.454709 367.914533 
L 88.764619 369.760994 
L 84.191627 363.063728 
L 79.465838 361.46333 
L 78.790158 357.455885 
L 81.070701 350.349342 
L 79.554639 342.618713 
L 75.318494 338.394474 
L 72.856381 329.567478 
z
" clip-path="url(#p69f1ea355d)" style="fill: #e8edf4; stroke: #b8c5d4; stroke-width: 0.45"/>
    <path d="M 291.322178 389.585892 
L 296.523225 384.301502 
L 296.140736 375.435314 
L 307.955209 372.35358 
L 312.723166 368.7569 
L 306.150916 361.632002 
L 307.828705 354.631623 
L 323.040924 343.352932 
L 335.647658 350.415322 
L 347.527119 362.924326 
L 348.066373 372.810482 
L 355.300412 373.2654 
L 373.169213 389.315521 
L 370.100873 406.587521 
L 358.445647 411.597572 
L 359.483971 416.12542 
L 355.941861 426.03142 
L 364.449869 439.974631 
L 370.596471 439.996955 
L 373.118115 450.836603 
L 384.843787 467.529166 
L 380.172072 468.216752 
L 369.552193 466.588076 
L 363.30935 471.694369 
L 348.554033 475.892314 
L 346.431744 479.652705 
L 337.007451 478.700205 
L 325.195955 469.691639 
L 323.803916 460.807096 
L 318.889115 451.099533 
L 321.944061 434.755228 
L 327.269627 427.99099 
L 322.865803 419.068744 
L 316.268748 416.160642 
L 318.765588 407.730025 
L 314.297272 403.305861 
L 304.315369 404.154678 
z
" clip-path="url(#p69f1ea355d)" style="fill: #e8edf4; stroke: #b8c5d4; stroke-width: 0.45"/>
    <path d="M 179.345385 151.210365 
L 182.066955 148.404459 
L 197.777252 148.516576 
L 207.590979 150.20776 
L 211.052721 154.021728 
L 206.134447 158.862611 
L 180.464076 159.426174 
z
" clip-path="url(#p69f1ea355d)" style="fill: #e8edf4; stroke: #b8c5d4; stroke-width: 0.45"/>
    <path d="M -33.684217 154.061416 
L -31.380357 149.672971 
L -18.936342 148.981912 
L -6.015084 150.703357 
L 4.1851 155.314549 
L 7.366549 160.57215 
L -6.129185 160.929834 
L -11.96176 164.138568 
L -22.707646 161.05733 
z
" clip-path="url(#p69f1ea355d)" style="fill: #e8edf4; stroke: #b8c5d4; stroke-width: 0.45"/>
    <path d="M -161.118299 83.59626 
L -150.9836 77.664963 
L -146.822861 70.73751 
L -138.142213 66.468127 
L -128.33692 62.725596 
L -113.800381 60.888064 
L -109.14851 58.778674 
L -77.480365 60.365182 
L -59.446861 66.906178 
L -51.804537 73.93533 
L -33.870748 71.766408 
L 1.142557 96.829064 
L 7.463287 96.565142 
L 18.914123 100.48081 
L 17.515635 105.886248 
L 31.66919 106.677021 
L 46.181916 114.535146 
L 43.90435 119.032732 
L 31.137377 121.470041 
L 18.214135 122.423533 
L 4.985795 120.904494 
L -22.50524 122.774767 
L -9.634088 112.063607 
L -17.458974 107.076377 
L -29.836017 105.792982 
L -36.470279 100.250623 
L -41.021443 89.316221 
L -51.872006 90.063834 
L -69.775533 84.915373 
L -75.53667 80.888084 
L -100.562119 77.912514 
L -107.263849 74.167502 
L -100.064041 69.370275 
L -118.897248 68.387514 
L -132.693615 78.364455 
L -140.648975 78.632346 
L -143.401303 83.316959 
L -152.902986 85.416428 
z
" clip-path="url(#p69f1ea355d)" style="fill: #e8edf4; stroke: #b8c5d4; stroke-width: 0.45"/>
    <path d="M 280.959994 310.272 
L 286.527994 304.992 
L 286.143994 297.408 
L 297.183994 294.912 
L 301.215994 295.584 
L 300.447994 309.888 
L 284.415994 312 
z
" clip-path="url(#p69f1ea355d)" style="fill: #e8edf4; stroke: #b8c5d4; stroke-width: 0.45"/>
   </g>
   <g id="PathCollection_1">
    <defs>
     <path id="mc2d4ff35f3" d="M 0 2.12132 
C 0.562581 2.12132 1.102195 1.897805 1.5 1.5 
C 1.897805 1.102195 2.12132 0.562581 2.12132 0 
C 2.12132 -0.562581 1.897805 -1.102195 1.5 -1.5 
C 1.102195 -1.897805 0.562581 -2.12132 0 -2.12132 
C -0.562581 -2.12132 -1.102195 -1.897805 -1.5 -1.5 
C -1.897805 -1.102195 -2.12132 -0.562581 -2.12132 0 
C -2.12132 0.562581 -1.897805 1.102195 -1.5 1.5 
C -1.102195 1.897805 -0.562581 2.12132 0 2.12132 
z
" style="stroke: #ffffff; stroke-width: 0.5"/>
    </defs>
    <g clip-path="url(#p69f1ea355d)">
     <use xlink:href="#mc2d4ff35f3" x="283.839994" y="176.64" style="fill: #8aa0b7; stroke: #ffffff; stroke-width: 0.5"/>
     <use xlink:href="#mc2d4ff35f3" x="257.599994" y="153.6" style="fill: #8aa0b7; stroke: #ffffff; stroke-width: 0.5"/>
     <use xlink:href="#mc2d4ff35f3" x="127.039994" y="264" style="fill: #8aa0b7; stroke: #ffffff; stroke-width: 0.5"/>
     <use xlink:href="#mc2d4ff35f3" x="327.359994" y="251.2" style="fill: #8aa0b7; stroke: #ffffff; stroke-width: 0.5"/>
     <use xlink:href="#mc2d4ff35f3" x="264.000634" y="160.32" style="fill: #8aa0b7; stroke: #ffffff; stroke-width: 0.5"/>
     <use xlink:href="#mc2d4ff35f3" x="160.220794" y="270.17472" style="fill: #8aa0b7; stroke: #ffffff; stroke-width: 0.5"/>
     <use xlink:href="#mc2d4ff35f3" x="11.199994" y="38.4" style="fill: #8aa0b7; stroke: #ffffff; stroke-width: 0.5"/>
     <use xlink:href="#mc2d4ff35f3" x="145.791994" y="270.34368" style="fill: #8aa0b7; stroke: #ffffff; stroke-width: 0.5"/>
     <use xlink:href="#mc2d4ff35f3" x="292.799994" y="208" style="fill: #8aa0b7; stroke: #ffffff; stroke-width: 0.5"/>
     <use xlink:href="#mc2d4ff35f3" x="286.399994" y="271.36" style="fill: #8aa0b7; stroke: #ffffff; stroke-width: 0.5"/>
     <use xlink:href="#mc2d4ff35f3" x="288" y="192" style="fill: #8aa0b7; stroke: #ffffff; stroke-width: 0.5"/>
     <use xlink:href="#mc2d4ff35f3" x="79.999994" y="139.2" style="fill: #8aa0b7; stroke: #ffffff; stroke-width: 0.5"/>
     <use xlink:href="#mc2d4ff35f3" x="265.599994" y="171.2" style="fill: #8aa0b7; stroke: #ffffff; stroke-width: 0.5"/>
     <use xlink:href="#mc2d4ff35f3" x="299.839994" y="237.44" style="fill: #8aa0b7; stroke: #ffffff; stroke-width: 0.5"/>
     <use xlink:href="#mc2d4ff35f3" x="259.838074" y="157.04064" style="fill: #8aa0b7; stroke: #ffffff; stroke-width: 0.5"/>
     <use xlink:href="#mc2d4ff35f3" x="299.199994" y="222.399994" style="fill: #8aa0b7; stroke: #ffffff; stroke-width: 0.5"/>
     <use xlink:href="#mc2d4ff35f3" x="276.159994" y="182.4" style="fill: #8aa0b7; stroke: #ffffff; stroke-width: 0.5"/>
     <use xlink:href="#mc2d4ff35f3" x="193.599994" y="153.6" style="fill: #8aa0b7; stroke: #ffffff; stroke-width: 0.5"/>
     <use xlink:href="#mc2d4ff35f3" x="259.747834" y="157.584" style="fill: #8aa0b7; stroke: #ffffff; stroke-width: 0.5"/>
     <use xlink:href="#mc2d4ff35f3" x="91.880314" y="87.4752" style="fill: #8aa0b7; stroke: #ffffff; stroke-width: 0.5"/>
     <use xlink:href="#mc2d4ff35f3" x="299.199994" y="292.8" style="fill: #8aa0b7; stroke: #ffffff; stroke-width: 0.5"/>
     <use xlink:href="#mc2d4ff35f3" x="295.359994" y="249.6" style="fill: #8aa0b7; stroke: #ffffff; stroke-width: 0.5"/>
     <use xlink:href="#mc2d4ff35f3" x="229.311994" y="150.32256" style="fill: #8aa0b7; stroke: #ffffff; stroke-width: 0.5"/>
     <use xlink:href="#mc2d4ff35f3" x="224.391034" y="151.95264" style="fill: #8aa0b7; stroke: #ffffff; stroke-width: 0.5"/>
    </g>
   </g>
   <g id="PathCollection_2">
    <defs>
     <path id="mb2c6ba7eb7" d="M 0 3.674235 
C 0.974418 3.674235 1.909058 3.287094 2.598076 2.598076 
C 3.287094 1.909058 3.674235 0.974418 3.674235 0 
C 3.674235 -0.974418 3.287094 -1.909058 2.598076 -2.598076 
C 1.909058 -3.287094 0.974418 -3.674235 0 -3.674235 
C -0.974418 -3.674235 -1.909058 -3.287094 -2.598076 -2.598076 
C -3.287094 -1.909058 -3.674235 -0.974418 -3.674235 0 
C -3.674235 0.974418 -3.287094 1.909058 -2.598076 2.598076 
C -1.909058 3.287094 -0.974418 3.674235 0 3.674235 
z
" style="stroke: #ffffff; stroke-width: 1.2"/>
    </defs>
    <g clip-path="url(#p69f1ea355d)">
     <use xlink:href="#mb2c6ba7eb7" x="288" y="192" style="fill: #f97316; stroke: #ffffff; stroke-width: 1.2"/>
    </g>
   </g>
   <g id="PathCollection_3">
    <path d="M 288 196.929503 
C 289.307319 196.929503 290.561271 196.410099 291.485685 195.485685 
C 292.410099 194.561271 292.929503 193.307319 292.929503 192 
C 292.929503 190.692681 292.410099 189.438729 291.485685 188.514315 
C 290.561271 187.589901 289.307319 187.070497 288 187.070497 
C 286.692681 187.070497 285.438729 187.589901 284.514315 188.514315 
C 283.589901 189.438729 283.070497 190.692681 283.070497 192 
C 283.070497 193.307319 283.589901 194.561271 284.514315 195.485685 
C 285.438729 196.410099 286.692681 196.929503 288 196.929503 
L 288 196.929503 
z
" clip-path="url(#p69f1ea355d)" style="fill: none; stroke: #7c2d12; stroke-width: 1.1"/>
   </g>
  </g>
 </g>
 <defs>
  <clipPath id="p69f1ea355d">
   <rect x="0" y="-0" width="576" height="384"/>
  </clipPath>
 </defs>
</svg>
