<?xml version="1.0" encoding="utf-8" standalone="no"?>
<!DOCTYPE svg PUBLIC "-//W3C//DTD SVG 1.1//EN"
  "http://www.w3.org/Graphics/SVG/1.1/DTD/svg11.dtd">
<svg xmlns:xlink="http://www.w3.org/1999/xlink" width="576pt" height="424.360975pt" viewBox="0 0 576 424.360975" xmlns="http://www.w3.org/2000/svg" version="1.1">
 <metadata>
  <rdf:RDF xmlns:dc="http://purl.org/dc/elements/1.1/" xmlns:cc="http://creativecommons.org/ns#" xmlns:rdf="http://www.w3.org/1999/02/22-rdf-syntax-ns#">
   <cc:Work>
    <dc:type rdf:resource="http://purl.org/dc/dcmitype/StillImage"/>
    <dc:date>2026-06-09T04:57:05.409325</dc:date>
    <dc:format>image/svg+xml</dc:format>
    <dc:creator>
     <cc:Agent>
      <dc:title>Matplotlib v3.10.8, https://matplotlib.org/</dc:title>
     </cc:Agent>
    </dc:creator>
   </cc:Work>
  </rdf:RDF>
 </metadata>
 <defs>
  <style type="text/css">*{stroke-linejoin: round; stroke-linecap: butt}</style>
 </defs>
 <g id="figure_1">
  <g id="patch_1">
   <path d="M 0 424.360975 
L 576 424.360975 
L 576 0 
L 0 0 
z
" style="fill: #eaf3ff"/>
  </g>
  <g id="axes_1">
   <g id="PatchCollection_1">
    <path d="M 389.533149 -142.530456 
L 397.760368 -148.623976 
L 392.06688 -166.531256 
L 405.728626 -177.595354 
L 402.837504 -180.946616 
L 424.65984 -191.558072 
L 404.544 -200.687096 
L 463.487829 -236.287214 
L 470.708969 -246.079112 
L 442.288751 -259.233534 
L 450.137946 -271.745018 
L 432.853048 -286.034007 
L 445.77888 -302.494328 
L 423.448102 -324.349808 
L 441.166587 -338.826815 
L 411.762118 -351.620081 
L 414.565048 -365.063229 
L 430.07136 -366.832376 
L 462.740736 -374.535224 
L 482.548224 -381.213752 
L 514.089024 -369.606776 
L 566.668032 -365.037176 
L 639.212928 -343.321592 
L 653.949504 -334.196408 
L 655.21824 -321.417848 
L 633.903936 -311.330168 
L 602.55264 -306.210488 
L 516.839232 -320.804024 
L 502.741248 -318.364088 
L 534.043584 -304.302392 
L 536.523072 -275.775416 
L 576.244416 -264.936248 
L 578.725824 -274.245944 
L 567.159917 -282.497144 
L 579.379968 -289.769336 
L 625.79424 -277.81868 
L 641.96352 -282.497144 
L 629.04192 -296.558456 
L 673.787328 -315.363128 
L 691.507968 -314.256248 
L 709.4352 -307.545848 
L 720.619392 -320.74124 
L 704.609088 -332.186552 
L 714.00864 -343.669304 
L 699.894144 -355.57868 
L 753.6 -349.419512 
L 764.569728 -338.666936 
L 740.259264 -336.296696 
L 740.390784 -325.612472 
L 755.50368 -319.038776 
L 785.167872 -323.202872 
L 789.864192 -335.449208 
L 896.974656 -361.081208 
L 911.456832 -360.135992 
L 892.527744 -348.484664 
L 916.344576 -346.482296 
L 930.099456 -353.041784 
L 966.086784 -353.572088 
L 994.5984 -361.531256 
L 1016.475264 -349.96556 
L 1038.294528 -362.68076 
L 1018.176 -373.803512 
L 1028.16 -380.139512 
L 1084.8768 -374.3294 
L 1111.451808 -368.328344 
L 1181.033472 -346.392248 
L 1193.869056 -356.439608 
L 1174.357248 -366.591224 
L 1173.796224 -370.66412 
L 1150.657536 -372.548024 
L 1156.987392 -381.651128 
L 1146.718464 -396.6302 
L 1146.137472 -402.775736 
L 1181.569152 -420.161912 
L 1194.170112 -437.612024 
L 1208.448 -441.387512 
L 1259.280768 -436.32428 
L 1263.283776 -425.644664 
L 1245.083712 -410.071928 
L 1257.026112 -403.95116 
L 1263.204096 -390.5294 
L 1258.84224 -364.219832 
L 1280.023104 -352.451192 
L 1271.78304 -339.635192 
L 1234.176 -312.363512 
L 1256.121792 -309.534776 
L 1263.758784 -316.446776 
L 1284.883008 -321.377144 
L 1289.980992 -330.87788 
L 1306.5984 -340.020536 
L 1295.409792 -350.93612 
L 1304.368128 -363.611768 
L 1283.373312 -365.191544 
L 1278.755904 -375.870008 
L 1294.07616 -395.149112 
L 1269.14112 -410.805176 
L 1303.503744 -423.74636 
L 1299.057792 -437.399096 
L 1308.633792 -437.834936 
L 1318.723392 -427.190264 
L 1311.148416 -408.662264 
L 1331.694912 -405.154616 
L 1322.940096 -419.000504 
L 1355.07168 -426.549176 
L 1394.918784 -427.565624 
L 1430.4 -416.619512 
L 1413.325632 -432.610232 
L 1411.412928 -453.064952 
L 1444.8 -456.939512 
L 1490.980992 -456.092984 
L 1532.58816 -458.607608 
L 1516.983552 -468.645176 
L 1539.202944 -481.254968 
L 1561.261632 -481.782968 
L 1598.592 -491.307512 
L 1649.291136 -493.867448 
L 1655.696832 -499.125752 
L 1706.112 -500.907512 
L 1721.821632 -496.596728 
L 1764.912768 -506.7998 
L 1800.185664 -506.480888 
L 1805.478144 -514.7678 
L 1823.824128 -522.94028 
L 1869.15072 -530.819576 
L 1902.079488 -524.5982 
L 1875.936 -519.865592 
L 1919.426496 -516.92396 
L 1924.608 -507.435512 
L 1942.15296 -512.107832 
L 1998.283392 -511.851512 
L 2041.564992 -502.48652 
L 2056.976064 -495.2942 
L 2052.199488 -485.31308 
L 1980.504 -468.972728 
L 1966.08 -463.275512 
L 2018.288448 -455.74412 
L 2035.575168 -459.376568 
L 2045.367936 -447.052472 
L 2053.801152 -452.041208 
L 2084.502144 -455.074232 
L 2146.105536 -451.903736 
L 2150.784 -442.923512 
L 2231.052672 -440.066936 
L 2232.149184 -454.732088 
L 2272.896 -451.371512 
L 2303.547648 -451.47692 
L 2334.552192 -441.362744 
L 2343.390144 -429.074936 
L 2332.032 -421.035512 
L 2356.147008 -405.92588 
L 2386.340736 -398.12972 
L 2404.8672 -418.276472 
L 2435.667072 -409.638776 
L 2468.389056 -414.800312 
L 2505.55296 -408.894008 
L 2519.694528 -414.277688 
L 2551.100736 -411.585848 
L 2537.239872 -429.41036 
L 2562.588864 -437.728184 
L 2736 -425.259512 
L 2752.342656 -413.862968 
L 2802.60288 -399.190136 
L 2880.132096 -402.822584 
L 2918.357568 -399.660536 
L 2934.341952 -391.72172 
L 2932.006272 -377.681528 
L 2955.658176 -372.215288 
L 2981.358144 -376.14668 
L 3015.407616 -376.649528 
L 3051.655104 -372.88172 
L 3088.044864 -375.00716 
L 3121.490496 -357.940472 
L 3145.284096 -364.081208 
L 3129.75744 -376.352504 
L 3138.30624 -384.882488 
L 3199.563072 -379.514168 
L 3239.501376 -380.662712 
L 3294.72 -371.499512 
L 3321.6 -363.121331 
L 3321.6 -286.62992 
L 3296.77824 -278.090168 
L 3271.896576 -279.497144 
L 3289.2096 -269.277368 
L 3300.6384 -253.457336 
L 3309.510528 -248.285816 
L 3311.738112 -240.34316 
L 3306.7824 -235.258232 
L 3270.99456 -239.439992 
L 3217.330368 -224.987192 
L 3200.258496 -222.749624 
L 3143.0112 -197.474168 
L 3135.95232 -188.749496 
L 3108.488832 -202.031672 
L 3058.463616 -186.959672 
L 3049.728 -194.091512 
L 3031.233408 -185.866232 
L 3005.554368 -188.498744 
L 2999.368512 -175.870904 
L 2976.332736 -157.290488 
L 2977.017024 -149.530616 
L 2998.884672 -145.228088 
L 2996.312448 -117.27692 
L 2978.487936 -116.56556 
L 2970.268032 -100.504568 
L 2978.255808 -92.2382 
L 2944.680384 -82.430648 
L 2938.017216 -60.508856 
L 2909.394048 -55.826168 
L 2903.638656 -36.31916 
L 2875.963968 -18.431672 
L 2868.864 -31.659512 
L 2849.926272 -102.335288 
L 2859.156864 -128.963576 
L 2875.35648 -140.421752 
L 2876.35872 -149.39468 
L 2906.195136 -153.689912 
L 2940.492288 -177.863096 
L 2973.543168 -197.605112 
L 3008.058048 -212.924792 
L 3023.49216 -239.991224 
L 3000.161664 -238.371896 
L 2988.631872 -222.555512 
L 2939.932416 -201.468728 
L 2924.204544 -225.079544 
L 2874.637056 -218.560376 
L 2826.586752 -186.376568 
L 2842.44 -174.602552 
L 2769.902016 -167.6126 
L 2771.29248 -181.495544 
L 2741.447232 -184.409528 
L 2717.660352 -174.977528 
L 2658.954624 -178.277816 
L 2595.798144 -172.587128 
L 2460.022848 -89.82764 
L 2490.272832 -87.407672 
L 2499.713664 -75.384056 
L 2518.36224 -71.115704 
L 2530.648896 -80.706872 
L 2551.708992 -79.461368 
L 2579.429952 -58.339256 
L 2580.081216 -42.003896 
L 2565.070464 -22.821176 
L 2563.451136 0.106312 
L 2554.789056 30.803656 
L 2525.850624 58.587208 
L 2519.418432 71.867848 
L 2455.092288 127.734856 
L 2429.507904 139.000264 
L 2417.400384 139.24948 
L 2405.338944 129.916936 
L 2379.568704 143.96788 
L 2376.576 150.356488 
L 2373.888 146.996488 
L 2373.770235 137.242607 
L 2383.578008 136.724685 
L 2386.340258 114.03931 
L 2381.283648 97.595656 
L 2397.762321 90.814185 
L 2421.064704 94.21396 
L 2433.977165 75.535489 
L 2440.55712 54.500872 
L 2448.015552 47.474248 
L 2458.10518 30.198474 
L 2426.37304 35.858407 
L 2409.728448 43.432456 
L 2380.555392 43.409992 
L 2372.780032 25.370489 
L 2350.038102 11.720966 
L 2316.62208 5.583304 
L 2309.519149 -13.22362 
L 2283.769899 -52.641245 
L 2266.909657 -59.711573 
L 2238.172224 -65.428472 
L 2212.71836 -64.908651 
L 2188.859227 -61.446413 
L 2173.000102 -51.894128 
L 2183.535149 -47.331058 
L 2183.77344 -36.730424 
L 2173.095936 -30.575672 
L 2155.764288 -10.211576 
L 2155.938446 -1.762862 
L 2128.881493 10.369607 
L 2105.832977 3.120685 
L 2082.925352 4.721083 
L 2072.872508 -1.712261 
L 2061.359165 -3.786925 
L 2033.236602 9.744032 
L 2007.959633 12.923497 
L 1990.310602 17.682028 
L 1966.127024 14.555646 
L 1948.323212 14.755571 
L 1936.668977 4.941349 
L 1917.86504 -4.285995 
L 1898.622555 -6.815081 
L 1856.189673 -0.746862 
L 1828.913088 -8.822264 
L 1825.252032 -23.209784 
L 1785.249258 -30.392433 
L 1763.740618 -38.32894 
L 1743.854204 -18.43062 
L 1751.649821 -7.129604 
L 1732.987392 6.240328 
L 1705.229184 1.413256 
L 1686.066227 0.722567 
L 1673.233274 -8.245815 
L 1653.200832 -8.52908 
L 1636.506462 -14.42119 
L 1607.302415 -5.3903 
L 1570.666883 11.146489 
L 1542.91143 16.052857 
L 1532.723649 4.308333 
L 1507.992383 6.877603 
L 1499.818743 -1.271729 
L 1486.394446 -4.998386 
L 1477.154204 -16.093026 
L 1466.553673 -19.547823 
L 1438.962923 -14.613675 
L 1412.51418 -25.675573 
L 1402.282743 -15.622729 
L 1359.377579 -64.38428 
L 1334.883446 -79.217979 
L 1341.909126 -85.237581 
L 1293.788544 -67.119032 
L 1275.373032 -66.02387 
L 1276.963508 -76.503354 
L 1252.30368 -83.051296 
L 1232.258516 -78.378589 
L 1226.213118 -98.278397 
L 1191.708805 -102.416315 
L 1174.446727 -94.451034 
L 1126.403904 -87.363512 
L 1117.027844 -82.620686 
L 1045.18272 -75.939512 
L 1036.378876 -69.387386 
L 1050.239735 -56.235444 
L 1031.807868 -51.243253 
L 1035.403555 -46.01244 
L 1016.976649 -36.659585 
L 1048.089665 -23.454561 
L 1043.278548 -14.361659 
L 1016.309899 -15.18964 
L 1010.731821 -9.492003 
L 986.175744 -19.4414 
L 955.737216 -19.055672 
L 935.365248 -10.956344 
L 870.311493 -32.017636 
L 840.319649 -31.52055 
L 800.685727 -10.637979 
L 798.294555 3.385103 
L 778.550024 -7.749722 
L 763.230649 13.345177 
L 768.838493 17.261341 
L 757.755758 31.812763 
L 774.052608 44.836168 
L 788.2992 44.300104 
L 800.538883 57.128427 
L 798.5904 67.00852 
L 808.342272 70.113352 
L 799.591872 81.49972 
L 780.977472 84.66388 
L 761.894592 104.483848 
L 779.346048 122.705416 
L 777.456384 135.638152 
L 798.419904 158.249992 
L 786.955837 165.988759 
L 783.660782 170.873298 
L 775.167657 169.561626 
L 761.972555 157.899454 
L 744.50688 152.80564 
L 738.62936 144.927099 
L 720.72236 140.910228 
L 709.079232 143.925256 
L 705.715008 140.356552 
L 679.57248 131.150728 
L 635.077727 124.760888 
L 632.736165 127.028532 
L 608.256 110.804488 
L 586.351104 103.562056 
L 569.768832 92.28244 
L 583.740864 89.213896 
L 599.67264 73.155784 
L 588.935424 65.558344 
L 617.235264 57.721288 
L 616.72704 53.523976 
L 599.49193 56.618442 
L 600.098157 48.089599 
L 609.994944 42.728584 
L 628.57493 41.320896 
L 631.595904 34.918216 
L 627.35328 24.331144 
L 635.151149 14.277833 
L 634.925568 8.640328 
L 606.623774 2.392419 
L 595.404118 2.599786 
L 583.554423 -6.391417 
L 568.822423 -3.350858 
L 544.43743 -10.101702 
L 544.855872 -13.87916 
L 538.025915 -22.204901 
L 522.716462 -23.134581 
L 521.125985 -29.094651 
L 525.921227 -32.982042 
L 513.651837 -43.852944 
L 493.742602 -41.99805 
L 487.911516 -42.962456 
L 483.061248 -38.595512 
L 475.890624 -39.371768 
L 471.168352 -51.666917 
L 466.659852 -58.040233 
L 470.354688 -59.834168 
L 485.846774 -59.167854 
L 493.317946 -63.366792 
L 487.787493 -68.485983 
L 474.840438 -71.864878 
L 475.995344 -75.332573 
L 468.181868 -78.834995 
L 456.144649 -91.405515 
L 460.259251 -96.585229 
L 458.379055 -105.598261 
L 439.608852 -110.177206 
L 429.53418 -107.885253 
L 426.806657 -112.651722 
L 406.592821 -117.466808 
L 400.421415 -128.798581 
L 398.784305 -138.109268 
z
" clip-path="url(#p07fc875598)" style="fill: #e8edf4; stroke: #b8c5d4; stroke-width: 0.45"/>
    <path d="M 853.550469 -421.705229 
L 873.182883 -425.824792 
L 872.52804 -436.294354 
L 910.61018 -452.668425 
L 892.959165 -455.01594 
L 938.927212 -471.867253 
L 933.73311 -480.582628 
L 976.677962 -490.719808 
L 1040.064852 -503.055675 
L 1103.968673 -506.649378 
L 1136.850758 -513.767331 
L 1174.215548 -516.26169 
L 1187.562454 -508.67989 
L 1174.666993 -502.705433 
L 1048.003344 -484.028495 
L 988.359977 -465.753393 
L 929.651251 -428.547851 
L 933.558485 -412.598933 
L 970.285298 -396.852421 
L 958.943602 -395.168183 
L 896.205602 -397.662542 
L 891.110719 -406.187417 
L 856.356376 -411.334886 
z
" clip-path="url(#p07fc875598)" style="fill: #e8edf4; stroke: #b8c5d4; stroke-width: 0.45"/>
    <path d="M -3590.4 -286.62992 
L -3590.4 -363.121331 
L -3543.36 -348.459512 
L -3493.0224 -329.3726 
L -3494.6736 -317.439032 
L -3481.724736 -312.662264 
L -3486.178944 -326.61356 
L -3434.060352 -323.750648 
L -3396.471936 -305.78252 
L -3415.508544 -297.4142 
L -3446.9808 -295.427384 
L -3447.456 -276.66668 
L -3455.142336 -272.67116 
L -3473.123328 -273.245432 
L -3487.755264 -279.939512 
L -3513.283776 -285.538808 
L -3517.577472 -293.867576 
L -3537.075072 -297.00812 
L -3558.910656 -294.517496 
L -3569.343744 -301.23596 
L -3565.173312 -308.372024 
L -3588.168384 -303.811064 
L -3579.507456 -294.778424 
z
" clip-path="url(#p07fc875598)" style="fill: #e8edf4; stroke: #b8c5d4; stroke-width: 0.45"/>
    <path d="M 2584.206258 -36.179862 
L 2585.904883 -62.417268 
L 2603.653133 -71.252698 
L 2596.02718 -80.148651 
L 2604.571899 -82.844425 
L 2616.208274 -51.642112 
L 2615.717141 -32.74739 
L 2623.641743 -13.37344 
L 2642.959633 20.633786 
L 2614.539415 14.2947 
L 2602.72643 42.038247 
L 2621.443055 61.71531 
L 2620.901321 75.132661 
L 2606.355852 63.557802 
L 2593.766977 78.418786 
L 2590.212962 62.306653 
L 2592.354102 43.601935 
L 2590.165337 22.884067 
L 2594.60736 8.369357 
L 2595.45568 -17.304487 
z
" clip-path="url(#p07fc875598)" style="fill: #e8edf4; stroke: #b8c5d4; stroke-width: 0.45"/>
    <path d="M 488.720149 90.693138 
L 492.111446 87.012122 
L 510.492712 80.630372 
L 507.570971 78.319674 
L 512.629668 73.564689 
L 532.454734 78.439705 
L 534.946409 82.231385 
L 537.843052 82.816164 
L 537.999126 84.477083 
L 547.392165 89.108614 
L 566.975962 87.956685 
L 563.226485 94.806747 
L 542.207985 98.13256 
L 516.144212 109.240099 
L 505.467282 105.334849 
L 509.700946 96.312888 
z
" clip-path="url(#p07fc875598)" style="fill: #e8edf4; stroke: #b8c5d4; stroke-width: 0.45"/>
    <path d="M 726.661594 -586.343862 
L 764.143462 -589.840331 
L 793.314766 -590.072503 
L 797.237876 -584.899237 
L 808.26604 -589.496042 
L 826.36354 -592.662112 
L 854.840313 -588.454245 
L 847.414782 -585.527292 
L 804.372696 -581.539194 
L 801.694782 -578.388503 
L 779.253485 -575.214991 
L 758.454258 -579.766651 
L 769.391141 -585.760456 
z
" clip-path="url(#p07fc875598)" style="fill: #e8edf4; stroke: #b8c5d4; stroke-width: 0.45"/>
    <path d="M 1616.276544 -581.575544 
L 1666.131072 -594.691832 
L 1707.665184 -599.027192 
L 1744.96992 -589.361432 
L 1789.183776 -570.798104 
L 1784.443392 -553.53356 
L 1742.552448 -551.138552 
L 1689.073728 -556.678616 
L 1657.207296 -564.008312 
L 1642.47168 -577.78028 
z
" clip-path="url(#p07fc875598)" style="fill: #e8edf4; stroke: #b8c5d4; stroke-width: 0.45"/>
    <path d="M 2495.508288 -484.043576 
L 2505.825792 -497.243576 
L 2531.15664 -500.845304 
L 2581.855008 -500.003 
L 2651.256672 -489.821912 
L 2636.16 -475.563512 
L 2565.385152 -476.094968 
L 2533.544448 -471.559928 
z
" clip-path="url(#p07fc875598)" style="fill: #e8edf4; stroke: #b8c5d4; stroke-width: 0.45"/>
    <path d="M 243.08429 -84.000323 
L 247.458844 -92.449792 
L 273.954219 -98.676761 
L 294.061891 -95.313245 
L 302.549063 -92.265741 
L 300.500196 -87.00814 
L 302.037094 -82.108222 
L 266.731094 -81.819991 
z
" clip-path="url(#p07fc875598)" style="fill: #e8edf4; stroke: #b8c5d4; stroke-width: 0.45"/>
    <path d="M 2550.971904 -447.720248 
L 2569.184832 -455.308664 
L 2593.191744 -457.085048 
L 2620.470336 -449.744312 
L 2622.79392 -444.69836 
L 2593.682496 -444.56396 
z
" clip-path="url(#p07fc875598)" style="fill: #e8edf4; stroke: #b8c5d4; stroke-width: 0.45"/>
    <path d="M 1774.812288 -535.102712 
L 1809.88608 -560.31212 
L 1825.65792 -562.470584 
L 1840.086048 -561.22028 
L 1888.750656 -550.31564 
L 1883.049024 -542.5118 
z
" clip-path="url(#p07fc875598)" style="fill: #e8edf4; stroke: #b8c5d4; stroke-width: 0.45"/>
    <path d="M -3590.4 -398.997737 
L -3590.4 -412.121228 
L -3571.667136 -412.885688 
L -3543.896544 -407.393528 
L -3545.54064 -404.768696 
L -3565.320576 -400.165496 
z
" clip-path="url(#p07fc875598)" style="fill: #e8edf4; stroke: #b8c5d4; stroke-width: 0.45"/>
    <path d="M 2671.088448 -482.340728 
L 2675.682912 -488.558456 
L 2759.648064 -480.633464 
L 2737.45776 -473.046776 
L 2706.767328 -474.763928 
z
" clip-path="url(#p07fc875598)" style="fill: #e8edf4; stroke: #b8c5d4; stroke-width: 0.45"/>
    <path d="M 3297.12576 -404.116472 
L 3321.6 -412.121228 
L 3321.6 -398.997737 
L 3300.54576 -398.0174 
z
" clip-path="url(#p07fc875598)" style="fill: #e8edf4; stroke: #b8c5d4; stroke-width: 0.45"/>
    <path d="M -222.573117 26.244607 
L -197.679628 22.067993 
L -165.437007 27.007599 
L -171.523085 5.274724 
L -153.397804 13.510872 
L -108.695788 -1.461237 
L -102.931179 -17.194354 
L -86.139398 -21.070831 
L -83.358296 -14.318995 
L -74.43357 -14.002487 
L -52.108359 2.756552 
L -42.254945 1.261325 
L -21.163023 11.681278 
L -15.622648 11.275474 
L -6.561992 16.302888 
L 21.106149 19.839044 
L 11.398587 32.986521 
L 8.961774 46.665314 
L 3.690282 49.944989 
L -5.057835 48.177903 
L -4.440695 53.056489 
L -18.482132 63.845536 
L -18.765898 72.539083 
L -9.598085 69.530771 
L -3.003015 77.950474 
L -3.794781 83.375755 
L 1.855727 90.584989 
L -4.800859 96.432942 
L 0.145196 111.288966 
L 10.552251 113.724786 
L 8.355548 122.058665 
L -9.038492 132.905755 
L -46.90632 127.707189 
L -74.872117 133.936638 
L -77.06882 145.498599 
L -99.32557 147.987501 
L -120.92946 139.302388 
L -127.909499 143.453204 
L -163.253202 134.727411 
L -170.905945 127.262689 
L -160.977124 115.746368 
L -157.320913 77.494067 
L -177.133906 57.344724 
L -191.294902 47.630216 
L -220.637855 40.245364 
z
" clip-path="url(#p07fc875598)" style="fill: #e8edf4; stroke: #b8c5d4; stroke-width: 0.45"/>
    <path d="M -1181.275281 916.592989 
L -1176.378339 908.518567 
L -1171.333066 891.475763 
L -1178.87121 880.098349 
L -1180.389753 866.962778 
L -1170.394456 850.454763 
L -1149.737113 857.111349 
L -1129.408183 873.317739 
L -1126.22971 881.180825 
L -1137.587281 898.751474 
L -1143.483355 912.890146 
L -1150.841417 920.18322 
L -1160.034531 921.555415 
L -1162.652913 916.150474 
L -1166.947597 915.347794 
L -1172.8908 920.553802 
z
" clip-path="url(#p07fc875598)" style="fill: #e8edf4; stroke: #b8c5d4; stroke-width: 0.45"/>
    <path d="M 29.648883 149.655368 
L 33.523376 142.520548 
L 45.888016 135.188778 
L 49.152313 151.652642 
L 42.811243 166.484357 
L 34.093883 162.575138 
z
" clip-path="url(#p07fc875598)" style="fill: #e8edf4; stroke: #b8c5d4; stroke-width: 0.45"/>
    <path d="M 523.496321 361.568759 
L 529.082337 355.243067 
L 527.771657 354.154142 
L 532.849673 345.180302 
L 536.744008 330.69486 
L 539.490383 325.834134 
L 546.445618 325.670919 
L 548.213696 322.306411 
L 553.365133 322.053899 
L 553.658821 329.912521 
L 548.076774 339.015841 
L 541.131462 336.356282 
L 537.113102 349.142107 
L 541.937118 351.297138 
L 537.033727 353.938341 
L 536.206243 358.994528 
L 545.233165 356.390036 
L 545.681633 363.859224 
L 536.113969 394.555024 
z
" clip-path="url(#p07fc875598)" style="fill: #e8edf4; stroke: #b8c5d4; stroke-width: 0.45"/>
    <path d="M 540.020212 325.6352 
L 546.858368 309.995845 
L 556.769329 295.798138 
L 565.405329 296.776931 
L 568.545602 304.306146 
L 558.07604 311.542169 
L 553.365133 322.053899 
L 548.213696 322.306411 
L 546.445618 325.670919 
z
" clip-path="url(#p07fc875598)" style="fill: #e8edf4; stroke: #b8c5d4; stroke-width: 0.45"/>
    <path d="M 536.206243 358.994528 
L 537.033727 353.938341 
L 541.937118 351.297138 
L 537.113102 349.142107 
L 541.131462 336.356282 
L 548.076774 339.015841 
L 548.068837 350.756396 
L 545.233165 356.390036 
z
" clip-path="url(#p07fc875598)" style="fill: #e8edf4; stroke: #b8c5d4; stroke-width: 0.45"/>
    <path d="M 10.070048 306.31086 
L 21.906844 295.601685 
L 26.426258 279.766868 
L 23.382227 261.463489 
L 27.282516 251.609083 
L 48.191876 243.860595 
L 61.632048 246.164454 
L 61.068485 255.878962 
L 77.354251 248.812107 
L 78.720493 252.500564 
L 69.120087 261.908485 
L 68.991102 270.789556 
L 75.638758 275.559993 
L 73.110665 292.177149 
L 60.47218 301.829646 
L 64.121446 312.294247 
L 74.051258 312.620677 
L 78.883212 321.748306 
L 86.184719 324.750169 
L 85.099266 339.497548 
L 75.739962 345.009646 
L 69.828508 351.161208 
L 56.644321 358.55995 
L 58.686243 366.513325 
L 57.024329 374.62545 
L 47.657087 379.075411 
L 39.467571 344.608802 
L 27.630774 336.859817 
L 27.465079 332.212411 
L 11.762719 320.773482 
z
" clip-path="url(#p07fc875598)" style="fill: #e8edf4; stroke: #b8c5d4; stroke-width: 0.45"/>
    <path d="M -301.140476 434.9822 
L -300.943031 407.227739 
L -269.937171 393.059302 
L -250.76414 390.131853 
L -235.048882 384.971982 
L -227.705206 375.357685 
L -205.256468 367.759017 
L -204.43196 353.544442 
L -193.324421 351.870126 
L -184.638812 344.76904 
L -159.511663 341.533021 
L -155.991382 334.071274 
L -161.050546 329.991399 
L -167.682327 309.722001 
L -168.825327 298.04445 
L -176.062343 285.747278 
L -157.605175 275.255392 
L -136.847124 271.918169 
L -124.72557 263.996048 
L -106.235163 258.152064 
L -41.937445 253.171778 
L -32.253695 256.023325 
L -14.173062 248.455911 
L 6.343391 248.307579 
L 14.151907 252.774903 
L 27.282516 251.609083 
L 23.382227 261.463489 
L 26.426258 279.766868 
L 21.906844 295.601685 
L 10.070048 306.31086 
L 11.762719 320.773482 
L 27.465079 332.212411 
L 27.630774 336.859817 
L 39.467571 344.608802 
L 47.657087 379.075411 
L 53.86818 396.027431 
L 54.911962 404.948685 
L 51.530587 420.612349 
L 52.917665 429.365923 
L 50.477876 439.874181 
L 52.152688 451.946126 
L 44.532688 459.96945 
L 55.885298 473.963759 
L 56.606618 482.190978 
L 63.43386 492.897673 
L 72.41018 489.379872 
L 87.564852 498.30063 
L 95.990508 510.324454 
L 30.199548 546.919802 
L -25.390734 584.637314 
L -52.465546 593.199396 
L -73.763843 595.079095 
L -73.984109 582.863778 
L -94.828976 574.249607 
L -99.394031 565.252946 
z
" clip-path="url(#p07fc875598)" style="fill: #e8edf4; stroke: #b8c5d4; stroke-width: 0.45"/>
    <path d="M 536.113969 394.555024 
L 545.681633 363.859224 
L 545.233165 356.390036 
L 548.068837 350.756396 
L 548.076774 339.015841 
L 551.42243 332.963993 
L 572.813993 340.572087 
L 610.412938 320.109708 
L 618.152993 343.489118 
L 614.493805 346.384321 
L 576.041579 356.018958 
L 595.177899 375.21729 
L 588.827899 378.478114 
L 585.668774 384.907985 
L 571.018133 387.567048 
L 566.423313 394.479618 
L 558.123665 400.388591 
L 536.755915 397.334638 
z
" clip-path="url(#p07fc875598)" style="fill: #e8edf4; stroke: #b8c5d4; stroke-width: 0.45"/>
    <path d="M 551.42243 332.963993 
L 553.658821 329.912521 
L 553.365133 322.053899 
L 558.07604 311.542169 
L 568.545602 304.306146 
L 565.405329 296.776931 
L 556.769329 295.798138 
L 554.976446 281.108306 
L 559.675446 273.207021 
L 569.959469 264.794263 
L 570.99829 254.084095 
L 577.281813 257.818192 
L 598.420368 252.477247 
L 608.637915 256.092282 
L 624.43354 256.032255 
L 646.526579 248.827982 
L 656.872118 249.152923 
L 678.712149 246.166935 
L 668.871633 258.148095 
L 658.362383 262.891247 
L 660.172133 276.91681 
L 652.918251 300.12854 
L 610.412938 320.109708 
L 572.813993 340.572087 
z
" clip-path="url(#p07fc875598)" style="fill: #e8edf4; stroke: #b8c5d4; stroke-width: 0.45"/>
    <path d="M 289.64368 31.273013 
L 293.392165 23.532958 
L 298.716243 18.534317 
L 302.907243 19.654497 
L 297.954243 11.026435 
L 315.388962 -4.942823 
L 324.916938 -7.177229 
L 326.975727 -12.563319 
L 317.319758 -29.325831 
L 326.497493 -30.074436 
L 337.019641 -35.277964 
L 351.893524 -35.704108 
L 371.288805 -34.199456 
L 392.718071 -29.591737 
L 407.839008 -29.206272 
L 415.058165 -26.43162 
L 422.262438 -29.778765 
L 427.294813 -25.289612 
L 444.621383 -26.20937 
L 452.258251 -24.353979 
L 453.493524 -34.01739 
L 459.408946 -38.232698 
L 483.061248 -38.595512 
L 487.911516 -42.962456 
L 493.742602 -41.99805 
L 513.651837 -43.852944 
L 525.921227 -32.982042 
L 521.125985 -29.094651 
L 522.716462 -23.134581 
L 538.025915 -22.204901 
L 544.855872 -13.87916 
L 544.43743 -10.101702 
L 568.822423 -3.350858 
L 583.554423 -6.391417 
L 595.404118 2.599786 
L 606.623774 2.392419 
L 634.925568 8.640328 
L 635.151149 14.277833 
L 627.35328 24.331144 
L 631.595904 34.918216 
L 628.57493 41.320896 
L 609.994944 42.728584 
L 600.098157 48.089599 
L 599.49193 56.618442 
L 584.162633 58.153853 
L 571.389212 64.365442 
L 553.414743 65.37797 
L 536.876962 72.535114 
L 537.843052 82.816164 
L 534.946409 82.231385 
L 532.454734 78.439705 
L 512.629668 73.564689 
L 507.570971 78.319674 
L 504.932493 76.232997 
L 475.087493 71.380208 
L 473.765899 64.220583 
L 455.975977 66.584966 
L 448.850087 77.158212 
L 433.983149 91.348974 
L 425.274719 88.053919 
L 416.251766 91.143095 
L 407.684227 87.60545 
L 412.517173 85.519872 
L 421.127376 72.810942 
L 419.769071 69.373013 
L 423.784454 67.841075 
L 425.676555 70.498649 
L 436.991462 71.060724 
L 442.073446 69.640903 
L 438.493633 67.694232 
L 439.849954 64.832763 
L 433.145743 59.951696 
L 430.370594 51.924899 
L 423.376665 48.78413 
L 424.755805 42.27786 
L 416.08111 37.112036 
L 408.183298 36.393692 
L 394.032719 30.411794 
L 381.270212 32.310841 
L 376.691266 35.142544 
L 368.591048 35.139567 
L 363.762071 39.627232 
L 349.588673 41.472204 
L 343.03329 44.419993 
L 334.119477 39.728435 
L 321.810399 39.656997 
L 309.930938 37.530739 
L 301.642204 41.642364 
L 300.303743 36.495888 
z
" clip-path="url(#p07fc875598)" style="fill: #e8edf4; stroke: #b8c5d4; stroke-width: 0.45"/>
    <path d="M 135.830805 -56.259753 
L 141.183657 -61.384401 
L 136.697977 -71.154472 
L 149.815688 -76.793073 
L 203.958368 -92.169003 
L 223.120485 -88.925542 
L 224.568087 -84.242913 
L 266.731094 -81.819991 
L 302.037094 -82.108222 
L 311.884555 -80.054393 
L 316.495251 -74.139468 
L 317.328688 -65.645847 
L 322.654751 -58.342354 
L 322.544618 -50.68862 
L 311.030282 -46.769479 
L 316.953641 -37.873526 
L 317.319758 -29.325831 
L 326.975727 -12.563319 
L 324.916938 -7.177229 
L 315.388962 -4.942823 
L 297.954243 11.026435 
L 302.907243 19.654497 
L 280.469915 11.154427 
L 266.648743 13.86806 
L 257.584118 11.896583 
L 246.240438 16.011681 
L 236.55768 9.206267 
L 228.663837 11.812247 
L 218.743946 1.198817 
L 204.469344 0.03895 
L 202.647688 -5.972714 
L 189.480368 -8.119808 
L 186.613938 -3.161847 
L 176.184063 -7.133573 
L 177.381633 -12.415979 
L 163.026665 -14.086327 
L 153.926321 -20.267655 
L 146.05629 -32.527124 
L 147.552508 -39.146503 
L 142.801915 -49.416636 
z
" clip-path="url(#p07fc875598)" style="fill: #e8edf4; stroke: #b8c5d4; stroke-width: 0.45"/>
    <path d="M 47.615415 56.606536 
L 50.55229 51.906544 
L 49.809141 48.499372 
L 55.604508 47.440708 
L 65.320008 52.772724 
L 68.054477 47.705622 
L 84.987149 48.524177 
L 98.714063 45.081286 
L 107.918587 45.670646 
L 113.906438 49.601692 
L 115.696344 46.338884 
L 112.974774 33.828888 
L 119.872462 31.391083 
L 126.642157 22.538786 
L 140.906837 28.718626 
L 151.70779 20.863974 
L 158.465579 19.430263 
L 173.369227 25.289626 
L 182.386227 24.292974 
L 191.237532 27.918427 
L 189.695673 30.356232 
L 191.609602 37.009345 
L 190.152079 44.855067 
L 179.339219 44.892771 
L 183.057938 49.054005 
L 176.684126 61.414677 
L 173.023946 64.655161 
L 156.232165 65.133396 
L 146.543454 69.489595 
L 103.228516 63.043353 
L 98.93929 56.364939 
L 79.964696 59.702161 
L 77.732274 63.354403 
L 56.303008 60.102509 
z
" clip-path="url(#p07fc875598)" style="fill: #e8edf4; stroke: #b8c5d4; stroke-width: 0.45"/>
    <path d="M 176.684126 61.414677 
L 183.057938 49.054005 
L 179.339219 44.892771 
L 190.152079 44.855067 
L 191.609602 37.009345 
L 208.456946 44.018653 
L 224.573048 41.666177 
L 226.118876 37.810536 
L 254.189844 33.091196 
L 258.692391 28.573767 
L 264.984844 27.402489 
L 285.546938 33.237048 
L 289.64368 31.273013 
L 300.303743 36.495888 
L 301.642204 41.642364 
L 289.91554 45.669653 
L 280.829087 58.691122 
L 269.221485 71.711599 
L 253.827696 75.333083 
L 241.844055 74.483274 
L 219.956399 82.39845 
L 204.097274 78.706521 
L 183.644321 68.10847 
L 179.913696 61.627005 
z
" clip-path="url(#p07fc875598)" style="fill: #e8edf4; stroke: #b8c5d4; stroke-width: 0.45"/>
    <path d="M 376.691266 35.142544 
L 381.270212 32.310841 
L 394.032719 30.411794 
L 408.183298 36.393692 
L 416.08111 37.112036 
L 424.755805 42.27786 
L 423.376665 48.78413 
L 430.370594 51.924899 
L 433.145743 59.951696 
L 439.849954 64.832763 
L 438.493633 67.694232 
L 442.073446 69.640903 
L 436.991462 71.060724 
L 425.676555 70.498649 
L 423.784454 67.841075 
L 419.769071 69.373013 
L 421.127376 72.810942 
L 412.517173 85.519872 
L 407.684227 87.60545 
L 404.245305 78.844435 
L 406.272344 70.646485 
L 405.65818 62.219341 
L 382.54418 37.01381 
z
" clip-path="url(#p07fc875598)" style="fill: #e8edf4; stroke: #b8c5d4; stroke-width: 0.45"/>
    <path d="M 253.827696 75.333083 
L 269.221485 71.711599 
L 280.829087 58.691122 
L 289.91554 45.669653 
L 309.930938 37.530739 
L 321.810399 39.656997 
L 334.119477 39.728435 
L 343.03329 44.419993 
L 349.588673 41.472204 
L 363.762071 39.627232 
L 368.591048 35.139567 
L 376.691266 35.142544 
L 382.54418 37.01381 
L 405.65818 62.219341 
L 406.272344 70.646485 
L 404.245305 78.844435 
L 407.684227 87.60545 
L 416.251766 91.143095 
L 425.274719 88.053919 
L 433.983149 91.348974 
L 434.429633 96.300982 
L 425.118946 100.43245 
L 419.286868 98.63411 
L 413.915165 121.797224 
L 402.626055 119.781099 
L 388.654071 112.801556 
L 366.051048 117.265407 
L 356.530016 122.162349 
L 328.33304 121.152302 
L 313.580204 118.15788 
L 306.140782 119.56381 
L 297.100962 108.323317 
L 301.54993 105.082833 
L 296.813227 102.692157 
L 290.785688 106.994778 
L 279.590837 101.4167 
L 278.083704 93.502021 
L 266.386805 88.986079 
L 264.233758 82.876685 
z
" clip-path="url(#p07fc875598)" style="fill: #e8edf4; stroke: #b8c5d4; stroke-width: 0.45"/>
    <path d="M -19.417765 -34.570534 
L -7.883585 -34.578472 
L -3.016906 -41.805565 
L 1.767423 -59.385143 
L -1.82132 -65.877026 
L 1.928157 -69.943011 
L 17.975798 -70.986792 
L 21.536758 -66.753128 
L 34.574102 -76.218597 
L 30.184665 -83.415925 
L 29.303602 -94.30419 
L 43.815337 -91.772128 
L 56.100602 -94.695112 
L 56.43993 -87.275038 
L 75.842157 -82.800768 
L 75.637766 -75.986425 
L 95.160048 -79.592034 
L 105.954055 -84.850628 
L 127.631368 -77.269323 
L 136.697977 -71.154472 
L 141.183657 -61.384401 
L 135.830805 -56.259753 
L 142.801915 -49.416636 
L 147.552508 -39.146503 
L 146.05629 -32.527124 
L 153.926321 -20.267655 
L 145.35779 -18.264429 
L 140.294657 -20.471054 
L 135.479571 -16.816331 
L 121.692133 -13.097612 
L 114.563266 -8.31378 
L 100.610133 -4.133198 
L 103.971665 1.573368 
L 106.003665 9.670114 
L 115.801516 14.284778 
L 126.642157 22.538786 
L 119.872462 31.391083 
L 112.974774 33.828888 
L 115.696344 46.338884 
L 113.906438 49.601692 
L 107.918587 45.670646 
L 98.714063 45.081286 
L 84.987149 48.524177 
L 68.054477 47.705622 
L 65.320008 52.772724 
L 55.604508 47.440708 
L 49.809141 48.499372 
L 29.234149 42.628599 
L 25.292188 46.799755 
L 8.961774 46.665314 
L 11.398587 32.986521 
L 21.106149 19.839044 
L -6.561992 16.302888 
L -15.622648 11.275474 
L -14.539179 2.857755 
L -18.372992 -1.478104 
L -16.192163 -14.450956 
z
" clip-path="url(#p07fc875598)" style="fill: #e8edf4; stroke: #b8c5d4; stroke-width: 0.45"/>
    <path d="M 295.306094 148.431505 
L 298.464227 145.722337 
L 296.382618 143.438321 
L 299.612188 137.328927 
L 306.931555 131.326192 
L 297.603008 123.03845 
L 295.880571 116.025669 
L 300.617274 111.669966 
L 306.140782 119.56381 
L 313.580204 118.15788 
L 328.33304 121.152302 
L 356.530016 122.162349 
L 366.051048 117.265407 
L 388.654071 112.801556 
L 402.626055 119.781099 
L 413.915165 121.797224 
L 403.950626 129.751591 
L 396.938837 143.484954 
L 403.137032 154.4392 
L 386.606196 151.863978 
L 367.047204 157.903919 
L 366.837852 167.46563 
L 349.386266 169.278357 
L 335.858782 162.569681 
L 320.487813 167.846134 
L 306.285641 167.291005 
L 304.922376 154.593982 
z
" clip-path="url(#p07fc875598)" style="fill: #e8edf4; stroke: #b8c5d4; stroke-width: 0.45"/>
    <path d="M 252.480305 200.180532 
L 261.408008 190.868357 
L 262.559938 184.628489 
L 268.799805 181.844411 
L 269.184774 176.80013 
L 281.743883 175.100017 
L 289.063251 170.903064 
L 299.468321 171.275134 
L 302.625984 167.928328 
L 320.487813 167.846134 
L 335.858782 162.569681 
L 349.386266 169.278357 
L 366.837852 167.46563 
L 367.047204 157.903919 
L 376.400555 162.987888 
L 370.45636 175.004271 
L 365.89329 177.157317 
L 344.17629 174.796903 
L 320.924376 179.787607 
L 334.233579 190.580622 
L 324.479383 193.709982 
L 313.785587 193.729329 
L 303.628563 183.841189 
L 300.024938 188.054513 
L 304.315157 199.52172 
L 313.920524 208.532271 
L 306.683508 212.739146 
L 317.376313 221.588466 
L 326.880477 227.156622 
L 327.168212 238.004208 
L 309.408055 232.916271 
L 315.071462 242.708665 
L 302.879462 244.724294 
L 310.161126 261.668376 
L 297.40854 261.908485 
L 281.664508 253.556747 
L 274.464204 238.196692 
L 271.104657 225.422278 
L 253.780071 205.647982 
z
" clip-path="url(#p07fc875598)" style="fill: #e8edf4; stroke: #b8c5d4; stroke-width: 0.45"/>
    <path d="M 317.087587 283.604649 
L 320.639618 275.444403 
L 331.135969 281.914458 
L 346.080298 280.820571 
L 360.36879 282.183341 
L 359.904446 285.524532 
L 370.368055 283.220673 
L 367.967954 288.884575 
L 340.319657 290.516724 
L 340.512141 287.348669 
z
" clip-path="url(#p07fc875598)" style="fill: #e8edf4; stroke: #b8c5d4; stroke-width: 0.45"/>
    <path d="M 368.079079 203.279134 
L 389.376383 184.916224 
L 418.943571 184.148271 
L 427.008071 169.556665 
L 463.60193 172.098153 
L 486.681204 159.644216 
L 509.055032 154.216454 
L 540.819915 153.808169 
L 574.33204 167.341607 
L 601.875165 174.767634 
L 624.242048 171.807442 
L 640.769907 173.517974 
L 663.438415 163.495888 
L 683.895337 162.583571 
L 702.388719 172.011337 
L 705.651032 178.76863 
L 703.803579 188.11206 
L 718.080165 192.884482 
L 725.644602 198.490837 
L 712.497126 203.960271 
L 718.49093 225.979888 
L 714.734508 231.926067 
L 725.2354 247.308099 
L 716.034274 250.551411 
L 709.291368 245.660919 
L 686.959212 243.183427 
L 678.712149 246.166935 
L 656.872118 249.152923 
L 646.526579 248.827982 
L 624.43354 256.032255 
L 608.637915 256.092282 
L 598.420368 252.477247 
L 577.281813 257.818192 
L 570.99829 254.084095 
L 569.959469 264.794263 
L 559.675446 273.207021 
L 552.616032 264.500575 
L 559.887774 257.28886 
L 548.177977 258.923985 
L 532.119423 254.506271 
L 518.916383 265.557255 
L 489.775837 267.715263 
L 474.232227 257.410403 
L 453.535196 256.765482 
L 449.109048 264.731259 
L 435.839532 267.008825 
L 417.271735 256.785325 
L 396.310782 257.131103 
L 384.936344 238.035958 
L 370.90979 227.384329 
L 380.250243 212.453892 
z
" clip-path="url(#p07fc875598)" style="fill: #e8edf4; stroke: #b8c5d4; stroke-width: 0.45"/>
    <path d="M 365.632344 181.119618 
L 365.89329 177.157317 
L 370.45636 175.004271 
L 376.400555 162.987888 
L 367.047204 157.903919 
L 386.606196 151.863978 
L 403.137032 154.4392 
L 405.418071 161.821075 
L 422.178102 168.021751 
L 418.683618 172.725216 
L 395.885133 173.78388 
L 371.673774 190.062204 
z
" clip-path="url(#p07fc875598)" style="fill: #e8edf4; stroke: #b8c5d4; stroke-width: 0.45"/>
    <path d="M 236.246133 150.822181 
L 244.570587 141.366138 
L 245.790977 144.978692 
L 250.95744 143.278792 
L 255.048087 148.431505 
L 259.64064 150.397384 
L 260.932751 157.356728 
L 258.492962 163.890778 
L 261.219493 172.124942 
L 269.184774 176.80013 
L 268.799805 181.844411 
L 262.559938 184.628489 
L 261.408008 190.868357 
L 252.480305 200.180532 
L 249.216008 198.836614 
L 248.832032 194.612376 
L 238.196774 188.165638 
L 236.52593 179.017669 
L 238.148157 165.916825 
L 240.768524 159.956755 
L 237.537962 156.931575 
z
" clip-path="url(#p07fc875598)" style="fill: #e8edf4; stroke: #b8c5d4; stroke-width: 0.45"/>
    <path d="M 127.81393 94.351333 
L 128.929149 87.374271 
L 142.30979 88.030107 
L 145.826102 84.789622 
L 152.35668 87.923942 
L 159.891352 88.296013 
L 159.819915 82.930263 
L 166.493368 80.964739 
L 168.359673 73.20881 
L 183.644321 68.10847 
L 204.097274 78.706521 
L 219.956399 82.39845 
L 227.132636 79.530138 
L 231.797165 86.967474 
L 237.897133 92.439388 
L 230.505304 99.663985 
L 221.821712 95.413966 
L 208.546243 95.679872 
L 192.041204 92.491974 
L 183.070837 92.917622 
L 178.90861 96.901255 
L 172.019852 92.491974 
L 168.000501 100.461224 
L 181.563704 115.388685 
L 197.709571 126.810747 
L 204.958493 134.832087 
L 221.952 142.100488 
L 219.840313 145.364653 
L 201.79143 138.260591 
L 190.65611 131.348517 
L 173.095383 125.64195 
L 156.949516 111.511216 
L 160.824008 110.076513 
L 152.069938 102.001595 
L 151.710766 95.52013 
L 139.367954 92.491974 
L 133.48329 100.779716 
z
" clip-path="url(#p07fc875598)" style="fill: #e8edf4; stroke: #b8c5d4; stroke-width: 0.45"/>
    <path d="M -18.765898 72.539083 
L -18.482132 63.845536 
L -4.440695 53.056489 
L -5.057835 48.177903 
L 3.690282 49.944989 
L 8.961774 46.665314 
L 25.292188 46.799755 
L 29.234149 42.628599 
L 49.809141 48.499372 
L 50.55229 51.906544 
L 47.615415 56.606536 
L 56.303008 60.102509 
L 66.099868 60.624399 
L 64.57686 68.495919 
L 56.118462 71.734419 
L 41.911329 69.328364 
L 37.753071 77.071396 
L 28.607087 77.681591 
L 25.27929 74.638552 
L 14.515048 81.150278 
L 5.257938 82.063091 
L -3.003015 77.950474 
L -9.598085 69.530771 
z
" clip-path="url(#p07fc875598)" style="fill: #e8edf4; stroke: #b8c5d4; stroke-width: 0.45"/>
    <path d="M -4.800859 96.432942 
L 1.855727 90.584989 
L -3.794781 83.375755 
L -3.003015 77.950474 
L 5.257938 82.063091 
L 14.515048 81.150278 
L 25.27929 74.638552 
L 28.607087 77.681591 
L 37.753071 77.071396 
L 41.911329 69.328364 
L 56.118462 71.734419 
L 64.57686 68.495919 
L 66.099868 60.624399 
L 77.732274 63.354403 
L 79.964696 59.702161 
L 98.93929 56.364939 
L 103.228516 63.043353 
L 130.684329 68.00181 
L 128.603712 77.458349 
L 133.202501 85.632982 
L 117.918844 82.836005 
L 102.308758 89.650349 
L 103.370399 99.181302 
L 101.019907 104.651232 
L 107.313352 114.426263 
L 125.316594 124.096122 
L 134.972563 139.969138 
L 156.337337 155.441806 
L 171.382868 155.323239 
L 176.062024 159.566825 
L 170.675438 163.391708 
L 201.96804 176.139333 
L 218.432399 186.152489 
L 220.420743 189.738255 
L 216.832993 196.613618 
L 206.176899 187.649204 
L 189.496243 184.489583 
L 181.415868 196.908794 
L 195.292602 204.026251 
L 193.01454 214.04536 
L 184.993696 215.183896 
L 174.738446 231.651232 
L 166.734469 233.130583 
L 166.808883 227.260306 
L 170.72604 216.962392 
L 174.89918 212.861185 
L 161.54136 192.052036 
L 153.571118 189.659872 
L 147.902751 181.373122 
L 135.564899 177.882607 
L 127.257313 170.165372 
L 113.051173 168.921169 
L 80.484602 147.756321 
L 67.429399 136.696407 
L 61.440555 117.716357 
L 51.887774 115.483935 
L 36.267766 109.146833 
L 27.428368 111.740907 
L 16.334719 120.651247 
L 8.355548 122.058665 
L 10.552251 113.724786 
L 0.145196 111.288966 
z
" clip-path="url(#p07fc875598)" style="fill: #e8edf4; stroke: #b8c5d4; stroke-width: 0.45"/>
    <path d="M 104.275274 238.811849 
L 106.962118 228.95397 
L 129.430204 230.709149 
L 163.591219 226.94231 
L 156.676665 242.054814 
L 159.55004 248.003474 
L 155.519774 257.876732 
L 140.836391 250.645173 
L 131.073266 248.573485 
z
" clip-path="url(#p07fc875598)" style="fill: #e8edf4; stroke: #b8c5d4; stroke-width: 0.45"/>
    <path d="M 22.271969 174.740349 
L 32.831821 175.700786 
L 42.432227 169.748653 
L 53.951524 183.380317 
L 51.254758 208.77486 
L 42.524501 207.563399 
L 34.693165 213.973427 
L 27.423407 208.881024 
L 26.654462 185.716919 
z
" clip-path="url(#p07fc875598)" style="fill: #e8edf4; stroke: #b8c5d4; stroke-width: 0.45"/>
    <path d="M 128.603712 77.458349 
L 130.684329 68.00181 
L 146.543454 69.489595 
L 156.232165 65.133396 
L 173.023946 64.655161 
L 176.684126 61.414677 
L 179.913696 61.627005 
L 183.644321 68.10847 
L 168.359673 73.20881 
L 166.493368 80.964739 
L 159.819915 82.930263 
L 159.891352 88.296013 
L 152.35668 87.923942 
L 145.826102 84.789622 
L 142.30979 88.030107 
L 128.929149 87.374271 
L 133.202501 85.632982 
z
" clip-path="url(#p07fc875598)" style="fill: #e8edf4; stroke: #b8c5d4; stroke-width: 0.45"/>
    <path d="M 189.695673 30.356232 
L 193.95811 23.694685 
L 202.464133 24.020122 
L 209.020508 22.033763 
L 209.539423 20.247825 
L 213.215477 19.336005 
L 214.473571 14.967403 
L 218.879876 14.132478 
L 221.855446 10.676192 
L 227.580368 10.652876 
L 228.663837 11.812247 
L 236.55768 9.206267 
L 246.240438 16.011681 
L 257.584118 11.896583 
L 266.648743 13.86806 
L 280.469915 11.154427 
L 298.716243 18.534317 
L 293.392165 23.532958 
L 289.64368 31.273013 
L 285.546938 33.237048 
L 264.984844 27.402489 
L 258.692391 28.573767 
L 254.189844 33.091196 
L 226.118876 37.810536 
L 224.573048 41.666177 
L 208.456946 44.018653 
L 191.609602 37.009345 
z
" clip-path="url(#p07fc875598)" style="fill: #e8edf4; stroke: #b8c5d4; stroke-width: 0.45"/>
    <path d="M 100.610133 -4.133198 
L 114.563266 -8.31378 
L 121.692133 -13.097612 
L 135.479571 -16.816331 
L 140.294657 -20.471054 
L 145.35779 -18.264429 
L 153.926321 -20.267655 
L 163.026665 -14.086327 
L 177.381633 -12.415979 
L 176.184063 -7.133573 
L 186.613938 -3.161847 
L 189.480368 -8.119808 
L 202.647688 -5.972714 
L 204.469344 0.03895 
L 218.743946 1.198817 
L 227.580368 10.652876 
L 221.855446 10.676192 
L 218.879876 14.132478 
L 214.473571 14.967403 
L 213.215477 19.336005 
L 209.539423 20.247825 
L 209.020508 22.033763 
L 202.464133 24.020122 
L 193.95811 23.694685 
L 191.237532 27.918427 
L 182.386227 24.292974 
L 173.369227 25.289626 
L 158.465579 19.430263 
L 151.70779 20.863974 
L 140.906837 28.718626 
L 126.642157 22.538786 
L 115.801516 14.284778 
L 106.003665 9.670114 
L 103.971665 1.573368 
z
" clip-path="url(#p07fc875598)" style="fill: #e8edf4; stroke: #b8c5d4; stroke-width: 0.45"/>
    <path d="M 530.540852 422.256403 
L 536.755915 397.334638 
L 558.123665 400.388591 
L 566.423313 394.479618 
L 571.018133 387.567048 
L 585.668774 384.907985 
L 588.827899 378.478114 
L 595.177899 375.21729 
L 576.041579 356.018958 
L 614.493805 346.384321 
L 618.152993 343.489118 
L 641.279891 348.692646 
L 669.887633 362.132321 
L 724.022376 400.745778 
L 776.828579 404.132114 
L 781.60993 413.280083 
L 795.189008 412.782005 
L 802.705821 429.33963 
L 812.151446 433.725099 
L 815.44154 440.468501 
L 828.526508 448.538954 
L 829.68836 456.461571 
L 827.775423 462.85622 
L 830.20529 469.305935 
L 835.725821 474.686567 
L 841.154079 485.689431 
L 846.958376 489.498935 
L 852.280469 488.134677 
L 864.014079 519.358321 
L 921.730618 529.039095 
L 925.600149 524.980552 
L 934.39986 538.580466 
L 921.599649 576.980603 
L 864.000188 596.180423 
L 808.640094 603.54047 
L 790.720196 612.180439 
L 776.96054 632.3402 
L 768.000094 635.540501 
L 763.199891 629.140396 
L 755.839844 630.100833 
L 737.279985 628.180454 
L 733.759704 626.260571 
L 711.602173 626.701599 
L 706.397157 628.436935 
L 698.511251 623.444743 
L 693.423313 632.882431 
L 695.392805 640.9762 
L 686.96318 647.100974 
L 684.471798 638.907489 
L 678.681391 633.125021 
L 677.201048 625.465829 
L 667.284133 618.586001 
L 657.050712 602.485774 
L 651.635352 586.83997 
L 638.354923 573.627505 
L 629.792344 570.474333 
L 617.076469 552.175915 
L 614.854962 538.832482 
L 615.673516 527.451099 
L 604.661227 506.162228 
L 595.658118 498.669724 
L 585.28579 494.698989 
L 578.972501 483.697614 
L 580.022235 479.35729 
L 574.687243 469.403665 
L 569.080391 465.116919 
L 561.583423 450.833884 
L 540.099587 422.16413 
z
" clip-path="url(#p07fc875598)" style="fill: #e8edf4; stroke: #b8c5d4; stroke-width: 0.45"/>
    <path d="M 494.05018 286.291989 
L 498.181649 281.555782 
L 512.010758 281.814743 
L 529.468298 276.085853 
L 516.495446 284.261974 
L 517.893438 287.857165 
L 508.335696 288.973872 
L 506.569602 285.856419 
L 497.65579 287.294099 
z
" clip-path="url(#p07fc875598)" style="fill: #e8edf4; stroke: #b8c5d4; stroke-width: 0.45"/>
    <path d="M 484.928008 286.998427 
L 497.65579 287.294099 
L 506.569602 285.856419 
L 508.335696 288.973872 
L 515.835641 287.18347 
L 518.493712 289.401009 
L 498.81268 297.200595 
L 489.413688 294.708716 
z
" clip-path="url(#p07fc875598)" style="fill: #e8edf4; stroke: #b8c5d4; stroke-width: 0.45"/>
    <path d="M 339.841344 384.13204 
L 344.786304 372.277768 
L 341.815104 364.06612 
L 348.764544 354.852808 
L 374.310336 354.535432 
L 420.739776 368.275528 
L 435.521664 362.192776 
L 443.424576 356.691208 
L 460.357056 355.107976 
L 474.008832 357.532168 
L 479.239872 367.055368 
L 483.695424 360.78196 
L 499.083264 365.318344 
L 514.04928 366.405256 
L 523.496448 361.568776 
L 536.11392 394.554952 
L 530.721408 402.271624 
L 526.58976 416.77588 
L 521.366592 426.773128 
L 516.890112 430.125448 
L 501.825792 415.361608 
L 488.126016 387.839752 
L 486.152832 389.580232 
L 494.108544 409.840072 
L 505.896192 429.1426 
L 520.40736 459.048904 
L 533.665344 480.332488 
L 550.894272 501.587656 
L 547.079424 504.934984 
L 547.698816 517.41364 
L 573.431616 538.580488 
L 345.6 538.580488 
L 345.6 399.598321 
z
" clip-path="url(#p07fc875598)" style="fill: #e8edf4; stroke: #b8c5d4; stroke-width: 0.45"/>
    <path d="M 44.532688 459.96945 
L 52.152688 451.946126 
L 50.477876 439.874181 
L 52.917665 429.365923 
L 51.530587 420.612349 
L 54.911962 404.948685 
L 53.86818 396.027431 
L 47.657087 379.075411 
L 57.024329 374.62545 
L 58.686243 366.513325 
L 56.644321 358.55995 
L 69.828508 351.161208 
L 75.739962 345.009646 
L 85.099266 339.497548 
L 86.184719 324.750169 
L 108.735552 331.359112 
L 116.798592 329.707144 
L 132.838656 332.910856 
L 158.316096 341.490952 
L 167.307648 358.556296 
L 211.604928 370.319944 
L 232.059072 379.8658 
L 241.421568 374.884744 
L 250.62432 366.053896 
L 246.150336 351.34612 
L 252.172224 342.007048 
L 266.006784 333.009928 
L 279.225216 330.391048 
L 305.198592 334.319752 
L 311.74656 342.90388 
L 318.895296 342.985096 
L 325.008 346.260424 
L 344.085888 348.512776 
L 348.764544 354.852808 
L 341.815104 364.06612 
L 344.786304 372.277768 
L 339.841344 384.13204 
L 345.6 399.598321 
L 345.6 576.92212 
L 323.52 576.980488 
L 323.283072 585.035464 
L 170.12832 511.513864 
L 137.162321 529.147739 
L 126.363352 518.602771 
L 95.990508 510.324454 
L 87.564852 498.30063 
L 72.41018 489.379872 
L 63.43386 492.897673 
L 56.606618 482.190978 
L 55.885298 473.963759 
z
" clip-path="url(#p07fc875598)" style="fill: #e8edf4; stroke: #b8c5d4; stroke-width: 0.45"/>
    <path d="M 168.000501 100.461224 
L 172.019852 92.491974 
L 178.90861 96.901255 
L 183.070837 92.917622 
L 192.041204 92.491974 
L 208.546243 95.679872 
L 221.821712 95.413966 
L 230.505216 99.664072 
L 237.466176 99.610888 
L 232.658112 108.057544 
L 241.915392 115.441864 
L 239.1168 124.472968 
L 231.00768 127.075912 
L 224.764416 131.538376 
L 221.952 142.100488 
L 204.958493 134.832087 
L 197.709571 126.810747 
L 181.563704 115.388685 
z
" clip-path="url(#p07fc875598)" style="fill: #e8edf4; stroke: #b8c5d4; stroke-width: 0.45"/>
    <path d="M 258.492962 163.890778 
L 260.932734 157.356636 
L 263.372352 157.515976 
L 264.233472 153.584776 
L 286.407936 148.7506 
L 295.306094 148.431505 
L 304.922376 154.593982 
L 306.285641 167.291005 
L 302.625984 167.928328 
L 299.468321 171.275134 
L 289.063251 170.903064 
L 281.743883 175.100017 
L 269.184774 176.80013 
L 261.219493 172.124942 
z
" clip-path="url(#p07fc875598)" style="fill: #e8edf4; stroke: #b8c5d4; stroke-width: 0.45"/>
    <path d="M 227.132636 79.530138 
L 241.844055 74.483274 
L 253.827696 75.333083 
L 264.233758 82.876685 
L 266.386805 88.986079 
L 278.083704 93.502021 
L 279.590837 101.4167 
L 290.785688 106.994778 
L 296.813227 102.692157 
L 301.54993 105.082833 
L 297.100962 108.323317 
L 300.617274 111.669966 
L 295.880571 116.025669 
L 297.603008 123.03845 
L 306.931555 131.326192 
L 299.612188 137.328927 
L 296.382618 143.438321 
L 298.464227 145.722337 
L 295.306094 148.431505 
L 279.871411 149.872179 
L 279.231744 148.431688 
L 283.68096 141.472648 
L 280.953984 141.578824 
L 265.238016 130.157128 
L 261.793536 131.219656 
L 259.138368 137.59444 
L 254.545536 138.975688 
L 256.12416 137.328904 
L 242.496 131.275912 
L 234.595584 125.32276 
L 239.1168 124.472968 
L 241.915392 115.441864 
L 232.658112 108.057544 
L 237.466176 99.610888 
L 230.505216 99.664072 
L 237.897133 92.439388 
L 231.797165 86.967474 
z
" clip-path="url(#p07fc875598)" style="fill: #e8edf4; stroke: #b8c5d4; stroke-width: 0.45"/>
    <path d="M 219.840324 145.364636 
L 224.764416 131.538376 
L 234.595584 125.32276 
L 242.496 131.275912 
L 256.12416 137.328904 
L 250.95744 143.278792 
L 245.790977 144.978692 
L 244.570587 141.366138 
L 236.246133 150.822181 
L 237.537949 156.931514 
L 233.519232 155.444104 
L 228.137088 149.175496 
z
" clip-path="url(#p07fc875598)" style="fill: #e8edf4; stroke: #b8c5d4; stroke-width: 0.45"/>
    <path d="M 250.95744 143.278792 
L 254.545536 138.975688 
L 259.138368 137.59444 
L 261.793536 131.219656 
L 265.238016 130.157128 
L 280.953984 141.578824 
L 283.68096 141.472648 
L 279.231744 148.431688 
L 279.871411 149.872179 
L 264.233472 153.584776 
L 263.372352 157.515976 
L 260.932734 157.356636 
L 259.64064 150.397384 
L 255.048087 148.431505 
z
" clip-path="url(#p07fc875598)" style="fill: #e8edf4; stroke: #b8c5d4; stroke-width: 0.45"/>
   </g>
   <g id="PathCollection_1">
    <defs>
     <path id="me219aafcc2" d="M 0 2.12132 
C 0.562581 2.12132 1.102195 1.897805 1.5 1.5 
C 1.897805 1.102195 2.12132 0.562581 2.12132 0 
C 2.12132 -0.562581 1.897805 -1.102195 1.5 -1.5 
C 1.102195 -1.897805 0.562581 -2.12132 0 -2.12132 
C -0.562581 -2.12132 -1.102195 -1.897805 -1.5 -1.5 
C -1.897805 -1.102195 -2.12132 -0.562581 -2.12132 0 
C -2.12132 0.562581 -1.897805 1.102195 -1.5 1.5 
C -1.102195 1.897805 -0.562581 2.12132 0 2.12132 
z
" style="stroke: #ffffff; stroke-width: 0.5"/>
    </defs>
    <g clip-path="url(#p07fc875598)">
     <use xlink:href="#me219aafcc2" x="249.6" y="173.780488" style="fill: #8aa0b7; stroke: #ffffff; stroke-width: 0.5"/>
     <use xlink:href="#me219aafcc2" x="499.2" y="288.980488" style="fill: #8aa0b7; stroke: #ffffff; stroke-width: 0.5"/>
     <use xlink:href="#me219aafcc2" x="532.8" y="356.180488" style="fill: #8aa0b7; stroke: #ffffff; stroke-width: 0.5"/>
     <use xlink:href="#me219aafcc2" x="553.6" y="311.380488" style="fill: #8aa0b7; stroke: #ffffff; stroke-width: 0.5"/>
     <use xlink:href="#me219aafcc2" x="48.64" y="53.460488" style="fill: #8aa0b7; stroke: #ffffff; stroke-width: 0.5"/>
     <use xlink:href="#me219aafcc2" x="7.68" y="121.300488" style="fill: #8aa0b7; stroke: #ffffff; stroke-width: 0.5"/>
     <use xlink:href="#me219aafcc2" x="237.58848" y="140.973448" style="fill: #8aa0b7; stroke: #ffffff; stroke-width: 0.5"/>
     <use xlink:href="#me219aafcc2" x="288" y="157.780488" style="fill: #8aa0b7; stroke: #ffffff; stroke-width: 0.5"/>
     <use xlink:href="#me219aafcc2" x="145.6" y="272.980488" style="fill: #8aa0b7; stroke: #ffffff; stroke-width: 0.5"/>
     <use xlink:href="#me219aafcc2" x="542.07744" y="347.498248" style="fill: #8aa0b7; stroke: #ffffff; stroke-width: 0.5"/>
     <use xlink:href="#me219aafcc2" x="150.08" y="75.540488" style="fill: #8aa0b7; stroke: #ffffff; stroke-width: 0.5"/>
     <use xlink:href="#me219aafcc2" x="104" y="120.660488" style="fill: #8aa0b7; stroke: #ffffff; stroke-width: 0.5"/>
     <use xlink:href="#me219aafcc2" x="104.70528" y="156.444808" style="fill: #8aa0b7; stroke: #ffffff; stroke-width: 0.5"/>
     <use xlink:href="#me219aafcc2" x="266.9376" y="143.010568" style="fill: #8aa0b7; stroke: #ffffff; stroke-width: 0.5"/>
    </g>
   </g>
   <g id="PatchCollection_2">
    <path d="M 252.480305 200.180532 
L 261.408008 190.868357 
L 262.559938 184.628489 
L 268.799805 181.844411 
L 269.184774 176.80013 
L 281.743883 175.100017 
L 289.063251 170.903064 
L 299.468321 171.275134 
L 302.625984 167.928328 
L 320.487813 167.846134 
L 335.858782 162.569681 
L 349.386266 169.278357 
L 366.837852 167.46563 
L 367.047204 157.903919 
L 376.400555 162.987888 
L 370.45636 175.004271 
L 365.89329 177.157317 
L 344.17629 174.796903 
L 320.924376 179.787607 
L 334.233579 190.580622 
L 324.479383 193.709982 
L 313.785587 193.729329 
L 303.628563 183.841189 
L 300.024938 188.054513 
L 304.315157 199.52172 
L 313.920524 208.532271 
L 306.683508 212.739146 
L 317.376313 221.588466 
L 326.880477 227.156622 
L 327.168212 238.004208 
L 309.408055 232.916271 
L 315.071462 242.708665 
L 302.879462 244.724294 
L 310.161126 261.668376 
L 297.40854 261.908485 
L 281.664508 253.556747 
L 274.464204 238.196692 
L 271.104657 225.422278 
L 253.780071 205.647982 
z
" clip-path="url(#p07fc875598)" style="fill: #f59e0b; stroke: #b45309; stroke-width: 1.15"/>
    <path d="M 317.087587 283.604649 
L 320.639618 275.444403 
L 331.135969 281.914458 
L 346.080298 280.820571 
L 360.36879 282.183341 
L 359.904446 285.524532 
L 370.368055 283.220673 
L 367.967954 288.884575 
L 340.319657 290.516724 
L 340.512141 287.348669 
z
" clip-path="url(#p07fc875598)" style="fill: #f59e0b; stroke: #b45309; stroke-width: 1.15"/>
   </g>
   <g id="PathCollection_2">
    <defs>
     <path id="m875c431922" d="M 0 3.316625 
C 0.879579 3.316625 1.723251 2.967164 2.345208 2.345208 
C 2.967164 1.723251 3.316625 0.879579 3.316625 0 
C 3.316625 -0.879579 2.967164 -1.723251 2.345208 -2.345208 
C 1.723251 -2.967164 0.879579 -3.316625 0 -3.316625 
C -0.879579 -3.316625 -1.723251 -2.967164 -2.345208 -2.345208 
C -2.967164 -1.723251 -3.316625 -0.879579 -3.316625 0 
C -3.316625 0.879579 -2.967164 1.723251 -2.345208 2.345208 
C -1.723251 2.967164 -0.879579 3.316625 0 3.316625 
z
" style="stroke: #ffffff"/>
    </defs>
    <g clip-path="url(#p07fc875598)">
     <use xlink:href="#m875c431922" x="288" y="212.180488" style="fill: #f97316; stroke: #ffffff"/>
    </g>
   </g>
   <g id="PathCollection_3">
    <path d="M 288 216.630207 
C 289.180079 216.630207 290.311984 216.161356 291.146427 215.326914 
C 291.980869 214.492472 292.449719 213.360567 292.449719 212.180488 
C 292.449719 211.000408 291.980869 209.868503 291.146427 209.034061 
C 290.311984 208.199619 289.180079 207.730768 288 207.730768 
C 286.819921 207.730768 285.688016 208.199619 284.853573 209.034061 
C 284.019131 209.868503 283.550281 211.000408 283.550281 212.180488 
C 283.550281 213.360567 284.019131 214.492472 284.853573 215.326914 
C 285.688016 216.161356 286.819921 216.630207 288 216.630207 
L 288 216.630207 
z
" clip-path="url(#p07fc875598)" style="fill: none; stroke: #7c2d12; stroke-width: 1.1"/>
   </g>
  </g>
 </g>
 <defs>
  <clipPath id="p07fc875598">
   <rect x="0" y="-0" width="576" height="424.360975"/>
  </clipPath>
 </defs>
</svg>
