<?xml version="1.0" encoding="utf-8" standalone="no"?>
<!DOCTYPE svg PUBLIC "-//W3C//DTD SVG 1.1//EN"
  "http://www.w3.org/Graphics/SVG/1.1/DTD/svg11.dtd">
<svg xmlns:xlink="http://www.w3.org/1999/xlink" width="576pt" height="422.4pt" viewBox="0 0 576 422.4" xmlns="http://www.w3.org/2000/svg" version="1.1">
 <metadata>
  <rdf:RDF xmlns:dc="http://purl.org/dc/elements/1.1/" xmlns:cc="http://creativecommons.org/ns#" xmlns:rdf="http://www.w3.org/1999/02/22-rdf-syntax-ns#">
   <cc:Work>
    <dc:type rdf:resource="http://purl.org/dc/dcmitype/StillImage"/>
    <dc:date>2026-06-09T04:57:10.975464</dc:date>
    <dc:format>image/svg+xml</dc:format>
    <dc:creator>
     <cc:Agent>
      <dc:title>Matplotlib v3.10.8, https://matplotlib.org/</dc:title>
     </cc:Agent>
    </dc:creator>
   </cc:Work>
  </rdf:RDF>
 </metadata>
 <defs>
  <style type="text/css">*{stroke-linejoin: round; stroke-linecap: butt}</style>
 </defs>
 <g id="figure_1">
  <g id="patch_1">
   <path d="M 0 422.4 
L 576 422.4 
L 576 0 
L 0 0 
z
" style="fill: #eaf3ff"/>
  </g>
  <g id="axes_1">
   <g id="PatchCollection_1">
    <path d="M 669.853149 -52.630944 
L 678.080368 -58.724463 
L 672.38688 -76.631744 
L 686.048626 -87.695842 
L 683.157504 -91.047104 
L 704.97984 -101.65856 
L 684.864 -110.787584 
L 743.807829 -146.387701 
L 751.028969 -156.1796 
L 722.608751 -169.334022 
L 730.457946 -181.845506 
L 713.173048 -196.134494 
L 726.09888 -212.594816 
L 703.768102 -234.450295 
L 721.486587 -248.927303 
L 692.082118 -261.720569 
L 694.885048 -275.163717 
L 710.39136 -276.932864 
L 743.060736 -284.635712 
L 762.868224 -291.31424 
L 794.409024 -279.707264 
L 846.988032 -275.137664 
L 919.532928 -253.42208 
L 934.269504 -244.296896 
L 935.53824 -231.518336 
L 914.223936 -221.430656 
L 882.87264 -216.310976 
L 797.159232 -230.904512 
L 783.061248 -228.464576 
L 814.363584 -214.40288 
L 816.843072 -185.875904 
L 856.564416 -175.036736 
L 859.045824 -184.346432 
L 847.479917 -192.597632 
L 859.699968 -199.869824 
L 906.11424 -187.919168 
L 922.28352 -192.597632 
L 909.36192 -206.658944 
L 954.107328 -225.463616 
L 971.827968 -224.356736 
L 989.7552 -217.646336 
L 1000.939392 -230.841728 
L 984.929088 -242.28704 
L 994.32864 -253.769792 
L 980.214144 -265.679168 
L 1033.92 -259.52 
L 1044.889728 -248.767424 
L 1020.579264 -246.397184 
L 1020.710784 -235.71296 
L 1035.82368 -229.139264 
L 1065.487872 -233.30336 
L 1070.184192 -245.549696 
L 1177.294656 -271.181696 
L 1191.776832 -270.23648 
L 1172.847744 -258.585152 
L 1196.664576 -256.582784 
L 1210.419456 -263.142272 
L 1246.406784 -263.672576 
L 1274.9184 -271.631744 
L 1296.795264 -260.066048 
L 1318.614528 -272.781248 
L 1298.496 -283.904 
L 1308.48 -290.24 
L 1365.1968 -284.429888 
L 1391.771808 -278.428832 
L 1461.353472 -256.492736 
L 1474.189056 -266.540096 
L 1454.677248 -276.691712 
L 1454.116224 -280.764608 
L 1430.977536 -282.648512 
L 1437.307392 -291.751616 
L 1427.038464 -306.730688 
L 1426.457472 -312.876224 
L 1461.889152 -330.2624 
L 1474.490112 -347.712512 
L 1488.768 -351.488 
L 1539.600768 -346.424768 
L 1543.603776 -335.745152 
L 1525.403712 -320.172416 
L 1537.346112 -314.051648 
L 1543.524096 -300.629888 
L 1539.16224 -274.32032 
L 1560.343104 -262.55168 
L 1552.10304 -249.73568 
L 1514.496 -222.464 
L 1536.441792 -219.635264 
L 1544.078784 -226.547264 
L 1565.203008 -231.477632 
L 1570.300992 -240.978368 
L 1586.9184 -250.121024 
L 1575.729792 -261.036608 
L 1584.688128 -273.712256 
L 1563.693312 -275.292032 
L 1559.075904 -285.970496 
L 1574.39616 -305.2496 
L 1549.46112 -320.905664 
L 1583.823744 -333.846848 
L 1579.377792 -347.499584 
L 1588.953792 -347.935424 
L 1599.043392 -337.290752 
L 1591.468416 -318.762752 
L 1612.014912 -315.255104 
L 1603.260096 -329.100992 
L 1635.39168 -336.649664 
L 1675.238784 -337.666112 
L 1710.72 -326.72 
L 1693.645632 -342.71072 
L 1691.732928 -363.16544 
L 1725.12 -367.04 
L 1771.300992 -366.193472 
L 1812.90816 -368.708096 
L 1797.303552 -378.745664 
L 1819.522944 -391.355456 
L 1841.581632 -391.883456 
L 1878.912 -401.408 
L 1929.611136 -403.967936 
L 1936.016832 -409.22624 
L 1986.432 -411.008 
L 2002.141632 -406.697216 
L 2045.232768 -416.900288 
L 2080.505664 -416.581376 
L 2085.798144 -424.868288 
L 2104.144128 -433.040768 
L 2149.47072 -440.920064 
L 2182.399488 -434.698688 
L 2156.256 -429.96608 
L 2199.746496 -427.024448 
L 2204.928 -417.536 
L 2222.47296 -422.20832 
L 2278.603392 -421.952 
L 2321.884992 -412.587008 
L 2337.296064 -405.394688 
L 2332.519488 -395.413568 
L 2260.824 -379.073216 
L 2246.4 -373.376 
L 2298.608448 -365.844608 
L 2315.895168 -369.477056 
L 2325.687936 -357.15296 
L 2334.121152 -362.141696 
L 2364.822144 -365.17472 
L 2426.425536 -362.004224 
L 2431.104 -353.024 
L 2511.372672 -350.167424 
L 2512.469184 -364.832576 
L 2553.216 -361.472 
L 2583.867648 -361.577408 
L 2614.872192 -351.463232 
L 2623.710144 -339.175424 
L 2612.352 -331.136 
L 2636.467008 -316.026368 
L 2666.660736 -308.230208 
L 2685.1872 -328.37696 
L 2715.987072 -319.739264 
L 2748.709056 -324.9008 
L 2785.87296 -318.994496 
L 2800.014528 -324.378176 
L 2831.420736 -321.686336 
L 2817.559872 -339.510848 
L 2842.908864 -347.828672 
L 3016.32 -335.36 
L 3032.662656 -323.963456 
L 3082.92288 -309.290624 
L 3160.452096 -312.923072 
L 3198.677568 -309.761024 
L 3214.661952 -301.822208 
L 3212.326272 -287.782016 
L 3235.978176 -282.315776 
L 3261.678144 -286.247168 
L 3295.727616 -286.750016 
L 3331.975104 -282.982208 
L 3368.364864 -285.107648 
L 3401.810496 -268.04096 
L 3425.604096 -274.181696 
L 3410.07744 -286.452992 
L 3418.62624 -294.982976 
L 3479.883072 -289.614656 
L 3519.821376 -290.7632 
L 3575.04 -281.6 
L 3601.92 -273.221818 
L 3601.92 -196.730407 
L 3577.09824 -188.190656 
L 3552.216576 -189.597632 
L 3569.5296 -179.377856 
L 3580.9584 -163.557824 
L 3589.830528 -158.386304 
L 3592.058112 -150.443648 
L 3587.1024 -145.35872 
L 3551.31456 -149.54048 
L 3497.650368 -135.08768 
L 3480.578496 -132.850112 
L 3423.3312 -107.574656 
L 3416.27232 -98.849984 
L 3388.808832 -112.13216 
L 3338.783616 -97.06016 
L 3330.048 -104.192 
L 3311.553408 -95.96672 
L 3285.874368 -98.599232 
L 3279.688512 -85.971392 
L 3256.652736 -67.390976 
L 3257.337024 -59.631104 
L 3279.204672 -55.328576 
L 3276.632448 -27.377408 
L 3258.807936 -26.666048 
L 3250.588032 -10.605056 
L 3258.575808 -2.338688 
L 3225.000384 7.468864 
L 3218.337216 29.390656 
L 3189.714048 34.073344 
L 3183.958656 53.580352 
L 3156.283968 71.46784 
L 3149.184 58.24 
L 3130.246272 -12.435776 
L 3139.476864 -39.064064 
L 3155.67648 -50.52224 
L 3156.67872 -59.495168 
L 3186.515136 -63.7904 
L 3220.812288 -87.963584 
L 3253.863168 -107.7056 
L 3288.378048 -123.02528 
L 3303.81216 -150.091712 
L 3280.481664 -148.472384 
L 3268.951872 -132.656 
L 3220.252416 -111.569216 
L 3204.524544 -135.180032 
L 3154.957056 -128.660864 
L 3106.906752 -96.477056 
L 3122.76 -84.70304 
L 3050.222016 -77.713088 
L 3051.61248 -91.596032 
L 3021.767232 -94.510016 
L 2997.980352 -85.078016 
L 2939.274624 -88.378304 
L 2876.118144 -82.687616 
L 2740.342848 0.071872 
L 2770.592832 2.49184 
L 2780.033664 14.515456 
L 2798.68224 18.783808 
L 2810.968896 9.19264 
L 2832.028992 10.438144 
L 2859.749952 31.560256 
L 2860.401216 47.895616 
L 2845.390464 67.078336 
L 2843.771136 90.005824 
L 2835.109056 120.703168 
L 2806.170624 148.48672 
L 2799.738432 161.76736 
L 2735.412288 217.634368 
L 2709.827904 228.899776 
L 2697.720384 229.148992 
L 2685.658944 219.816448 
L 2659.888704 233.867392 
L 2656.896 240.256 
L 2654.208 236.896 
L 2654.090235 227.142119 
L 2663.898008 226.624197 
L 2666.660258 203.938822 
L 2661.603648 187.495168 
L 2678.082321 180.713697 
L 2701.384704 184.113472 
L 2714.297165 165.435002 
L 2720.87712 144.400384 
L 2728.335552 137.37376 
L 2738.42518 120.097986 
L 2706.69304 125.75792 
L 2690.048448 133.331968 
L 2660.875392 133.309504 
L 2653.100032 115.270002 
L 2630.358102 101.620478 
L 2596.94208 95.482816 
L 2589.839149 76.675892 
L 2564.089899 37.258267 
L 2547.229657 30.187939 
L 2518.492224 24.47104 
L 2493.03836 24.990861 
L 2469.179227 28.453099 
L 2453.320102 38.005385 
L 2463.855149 42.568455 
L 2464.09344 53.169088 
L 2453.415936 59.32384 
L 2436.084288 79.687936 
L 2436.258446 88.13665 
L 2409.201493 100.269119 
L 2386.152977 93.020197 
L 2363.245352 94.620596 
L 2353.192508 88.187252 
L 2341.679165 86.112588 
L 2313.556602 99.643545 
L 2288.279633 102.82301 
L 2270.630602 107.581541 
L 2246.447024 104.455158 
L 2228.643212 104.655084 
L 2216.988977 94.840861 
L 2198.18504 85.613517 
L 2178.942555 83.084431 
L 2136.509673 89.15265 
L 2109.233088 81.077248 
L 2105.572032 66.689728 
L 2065.569258 59.50708 
L 2044.060618 51.570572 
L 2024.174204 71.468892 
L 2031.969821 82.769908 
L 2013.307392 96.13984 
L 1985.549184 91.312768 
L 1966.386227 90.62208 
L 1953.553274 81.653697 
L 1933.520832 81.370432 
L 1916.826462 75.478322 
L 1887.622415 84.509213 
L 1850.986883 101.046002 
L 1823.23143 105.952369 
L 1813.043649 94.207846 
L 1788.312383 96.777115 
L 1780.138743 88.627783 
L 1766.714446 84.901127 
L 1757.474204 73.806486 
L 1746.873673 70.351689 
L 1719.282923 75.285838 
L 1692.83418 64.223939 
L 1682.602743 74.276783 
L 1639.697579 25.515232 
L 1615.203446 10.681533 
L 1622.229126 4.661931 
L 1574.108544 22.78048 
L 1555.693032 23.875642 
L 1557.283508 13.396158 
L 1532.62368 6.848217 
L 1512.578516 11.520924 
L 1506.533118 -8.378885 
L 1472.028805 -12.516803 
L 1454.766727 -4.551522 
L 1406.723904 2.536 
L 1397.347844 7.278826 
L 1325.50272 13.96 
L 1316.698876 20.512127 
L 1330.559735 33.664068 
L 1312.127868 38.65626 
L 1315.723555 43.887072 
L 1297.296649 53.239928 
L 1328.409665 66.444951 
L 1323.598548 75.537853 
L 1296.629899 74.709873 
L 1291.051821 80.40751 
L 1266.495744 70.458112 
L 1236.057216 70.84384 
L 1215.685248 78.943168 
L 1150.631493 57.881877 
L 1120.639649 58.378963 
L 1081.005727 79.261533 
L 1078.614555 93.284615 
L 1058.870024 82.149791 
L 1043.550649 103.244689 
L 1049.158493 107.160853 
L 1038.075758 121.712275 
L 1054.372608 134.73568 
L 1068.6192 134.199616 
L 1080.858883 147.027939 
L 1078.9104 156.908032 
L 1088.662272 160.012864 
L 1079.911872 171.399232 
L 1061.297472 174.563392 
L 1042.214592 194.38336 
L 1059.666048 212.604928 
L 1057.776384 225.537664 
L 1078.739904 248.149504 
L 1067.275837 255.888271 
L 1063.980782 260.77281 
L 1055.487657 259.461138 
L 1042.292555 247.798967 
L 1024.82688 242.705152 
L 1018.94936 234.826611 
L 1001.04236 230.80974 
L 989.399232 233.824768 
L 986.035008 230.256064 
L 959.89248 221.05024 
L 915.397727 214.6604 
L 913.056165 216.928045 
L 888.576 200.704 
L 866.671104 193.461568 
L 850.088832 182.181952 
L 864.060864 179.113408 
L 879.99264 163.055296 
L 869.255424 155.457856 
L 897.555264 147.6208 
L 897.04704 143.423488 
L 879.81193 146.517955 
L 880.418157 137.989111 
L 890.314944 132.628096 
L 908.89493 131.220408 
L 911.915904 124.817728 
L 907.67328 114.230656 
L 915.471149 104.177346 
L 915.245568 98.53984 
L 886.943774 92.291931 
L 875.724118 92.499299 
L 863.874423 83.508096 
L 849.142423 86.548654 
L 824.75743 79.79781 
L 825.175872 76.020352 
L 818.345915 67.694611 
L 803.036462 66.764931 
L 801.445985 60.804861 
L 806.241227 56.917471 
L 793.971837 46.046568 
L 774.062602 47.901463 
L 768.231516 46.937056 
L 763.381248 51.304 
L 756.210624 50.527744 
L 751.488352 38.232596 
L 746.979852 31.859279 
L 750.674688 30.065344 
L 766.166774 30.731658 
L 773.637946 26.532721 
L 768.107493 21.413529 
L 755.160438 18.034635 
L 756.315344 14.566939 
L 748.501868 11.064517 
L 736.464649 -1.506002 
L 740.579251 -6.685717 
L 738.699055 -15.698748 
L 719.928852 -20.277694 
L 709.85418 -17.98574 
L 707.126657 -22.752209 
L 686.912821 -27.567295 
L 680.741415 -38.899069 
L 679.104305 -48.209756 
z
" clip-path="url(#p2cfa999a9f)" style="fill: #e8edf4; stroke: #b8c5d4; stroke-width: 0.45"/>
    <path d="M 1133.870469 -331.805717 
L 1153.502883 -335.925279 
L 1152.84804 -346.394842 
L 1190.93018 -362.768912 
L 1173.279165 -365.116428 
L 1219.247212 -381.96774 
L 1214.05311 -390.683115 
L 1256.997962 -400.820295 
L 1320.384852 -413.156162 
L 1384.288673 -416.749865 
L 1417.170758 -423.867819 
L 1454.535548 -426.362178 
L 1467.882454 -418.780377 
L 1454.986993 -412.80592 
L 1328.323344 -394.128983 
L 1268.679977 -375.853881 
L 1209.971251 -338.648338 
L 1213.878485 -322.69942 
L 1250.605298 -306.952908 
L 1239.263602 -305.26867 
L 1176.525602 -307.763029 
L 1171.430719 -316.287904 
L 1136.676376 -321.435373 
z
" clip-path="url(#p2cfa999a9f)" style="fill: #e8edf4; stroke: #b8c5d4; stroke-width: 0.45"/>
    <path d="M -3310.08 -196.730407 
L -3310.08 -273.221818 
L -3263.04 -258.56 
L -3212.7024 -239.473088 
L -3214.3536 -227.53952 
L -3201.404736 -222.762752 
L -3205.858944 -236.714048 
L -3153.740352 -233.851136 
L -3116.151936 -215.883008 
L -3135.188544 -207.514688 
L -3166.6608 -205.527872 
L -3167.136 -186.767168 
L -3174.822336 -182.771648 
L -3192.803328 -183.34592 
L -3207.435264 -190.04 
L -3232.963776 -195.639296 
L -3237.257472 -203.968064 
L -3256.755072 -207.108608 
L -3278.590656 -204.617984 
L -3289.023744 -211.336448 
L -3284.853312 -218.472512 
L -3307.848384 -213.911552 
L -3299.187456 -204.878912 
z
" clip-path="url(#p2cfa999a9f)" style="fill: #e8edf4; stroke: #b8c5d4; stroke-width: 0.45"/>
    <path d="M 2864.526258 53.71965 
L 2866.224883 27.482244 
L 2883.973133 18.646814 
L 2876.34718 9.750861 
L 2884.891899 7.055088 
L 2896.528274 38.2574 
L 2896.037141 57.152123 
L 2903.961743 76.526072 
L 2923.279633 110.533299 
L 2894.859415 104.194213 
L 2883.04643 131.93776 
L 2901.763055 151.614822 
L 2901.221321 165.032174 
L 2886.675852 153.457314 
L 2874.086977 168.318299 
L 2870.532962 152.206166 
L 2872.674102 133.501447 
L 2870.485337 112.78358 
L 2874.92736 98.268869 
L 2875.77568 72.595025 
z
" clip-path="url(#p2cfa999a9f)" style="fill: #e8edf4; stroke: #b8c5d4; stroke-width: 0.45"/>
    <path d="M 769.040149 180.59265 
L 772.431446 176.911635 
L 790.812712 170.529885 
L 787.890971 168.219186 
L 792.949668 163.464202 
L 812.774734 168.339218 
L 815.266409 172.130897 
L 818.163052 172.715676 
L 818.319126 174.376596 
L 827.712165 179.008127 
L 847.295962 177.856197 
L 843.546485 184.70626 
L 822.527985 188.032072 
L 796.464212 199.139611 
L 785.787282 195.234361 
L 790.020946 186.2124 
z
" clip-path="url(#p2cfa999a9f)" style="fill: #e8edf4; stroke: #b8c5d4; stroke-width: 0.45"/>
    <path d="M 1006.981594 -496.44435 
L 1044.463462 -499.940819 
L 1073.634766 -500.17299 
L 1077.557876 -494.999725 
L 1088.58604 -499.596529 
L 1106.68354 -502.7626 
L 1135.160313 -498.554733 
L 1127.734782 -495.627779 
L 1084.692696 -491.639682 
L 1082.014782 -488.48899 
L 1059.573485 -485.315479 
L 1038.774258 -489.867139 
L 1049.711141 -495.860944 
z
" clip-path="url(#p2cfa999a9f)" style="fill: #e8edf4; stroke: #b8c5d4; stroke-width: 0.45"/>
    <path d="M 1896.596544 -491.676032 
L 1946.451072 -504.79232 
L 1987.985184 -509.12768 
L 2025.28992 -499.46192 
L 2069.503776 -480.898592 
L 2064.763392 -463.634048 
L 2022.872448 -461.23904 
L 1969.393728 -466.779104 
L 1937.527296 -474.1088 
L 1922.79168 -487.880768 
z
" clip-path="url(#p2cfa999a9f)" style="fill: #e8edf4; stroke: #b8c5d4; stroke-width: 0.45"/>
    <path d="M 2775.828288 -394.144064 
L 2786.145792 -407.344064 
L 2811.47664 -410.945792 
L 2862.175008 -410.103488 
L 2931.576672 -399.9224 
L 2916.48 -385.664 
L 2845.705152 -386.195456 
L 2813.864448 -381.660416 
z
" clip-path="url(#p2cfa999a9f)" style="fill: #e8edf4; stroke: #b8c5d4; stroke-width: 0.45"/>
    <path d="M 523.40429 5.899189 
L 527.778844 -2.550279 
L 554.274219 -8.777248 
L 574.381891 -5.413733 
L 582.869063 -2.366229 
L 580.820196 2.891373 
L 582.357094 7.791291 
L 547.051094 8.079521 
z
" clip-path="url(#p2cfa999a9f)" style="fill: #e8edf4; stroke: #b8c5d4; stroke-width: 0.45"/>
    <path d="M 2831.291904 -357.820736 
L 2849.504832 -365.409152 
L 2873.511744 -367.185536 
L 2900.790336 -359.8448 
L 2903.11392 -354.798848 
L 2874.002496 -354.664448 
z
" clip-path="url(#p2cfa999a9f)" style="fill: #e8edf4; stroke: #b8c5d4; stroke-width: 0.45"/>
    <path d="M 2055.132288 -445.2032 
L 2090.20608 -470.412608 
L 2105.97792 -472.571072 
L 2120.406048 -471.320768 
L 2169.070656 -460.416128 
L 2163.369024 -452.612288 
z
" clip-path="url(#p2cfa999a9f)" style="fill: #e8edf4; stroke: #b8c5d4; stroke-width: 0.45"/>
    <path d="M -3310.08 -309.098225 
L -3310.08 -322.221715 
L -3291.347136 -322.986176 
L -3263.576544 -317.494016 
L -3265.22064 -314.869184 
L -3285.000576 -310.265984 
z
" clip-path="url(#p2cfa999a9f)" style="fill: #e8edf4; stroke: #b8c5d4; stroke-width: 0.45"/>
    <path d="M 2951.408448 -392.441216 
L 2956.002912 -398.658944 
L 3039.968064 -390.733952 
L 3017.77776 -383.147264 
L 2987.087328 -384.864416 
z
" clip-path="url(#p2cfa999a9f)" style="fill: #e8edf4; stroke: #b8c5d4; stroke-width: 0.45"/>
    <path d="M 3577.44576 -314.21696 
L 3601.92 -322.221715 
L 3601.92 -309.098225 
L 3580.86576 -308.117888 
z
" clip-path="url(#p2cfa999a9f)" style="fill: #e8edf4; stroke: #b8c5d4; stroke-width: 0.45"/>
    <path d="M 57.746883 116.144119 
L 82.640372 111.967506 
L 114.882993 116.907111 
L 108.796915 95.174236 
L 126.922196 103.410385 
L 171.624212 88.438275 
L 177.388821 72.705158 
L 194.180602 68.828681 
L 196.961704 75.580517 
L 205.88643 75.897025 
L 228.211641 92.656064 
L 238.065055 91.160838 
L 259.156977 101.580791 
L 264.697352 101.174986 
L 273.758008 106.2024 
L 301.426149 109.738556 
L 291.718587 122.886033 
L 289.281774 136.564826 
L 284.010282 139.844502 
L 275.262165 138.077416 
L 275.879305 142.956002 
L 261.837868 153.745049 
L 261.554102 162.438596 
L 270.721915 159.430283 
L 277.316985 167.849986 
L 276.525219 173.275267 
L 282.175727 180.484502 
L 275.519141 186.332455 
L 280.465196 201.188478 
L 290.872251 203.624299 
L 288.675548 211.958178 
L 271.281508 222.805267 
L 233.41368 217.606701 
L 205.447883 223.83615 
L 203.25118 235.398111 
L 180.99443 237.887013 
L 159.39054 229.2019 
L 152.410501 233.352717 
L 117.066798 224.626924 
L 109.414055 217.162201 
L 119.342876 205.645881 
L 122.999087 167.39358 
L 103.186094 147.244236 
L 89.025098 137.529728 
L 59.682145 130.144877 
z
" clip-path="url(#p2cfa999a9f)" style="fill: #e8edf4; stroke: #b8c5d4; stroke-width: 0.45"/>
    <path d="M -900.955281 1006.492502 
L -896.058339 998.41808 
L -891.013066 981.375275 
L -898.55121 969.997861 
L -900.069753 956.862291 
L -890.074456 940.354275 
L -869.417113 947.010861 
L -849.088183 963.217252 
L -845.90971 971.080338 
L -857.267281 988.650986 
L -863.163355 1002.789658 
L -870.521417 1010.082732 
L -879.714531 1011.454928 
L -882.332913 1006.049986 
L -886.627597 1005.247306 
L -892.5708 1010.453314 
z
" clip-path="url(#p2cfa999a9f)" style="fill: #e8edf4; stroke: #b8c5d4; stroke-width: 0.45"/>
    <path d="M 309.968883 239.554881 
L 313.843376 232.42006 
L 326.208016 225.088291 
L 329.472313 241.552154 
L 323.131243 256.383869 
L 314.413883 252.47465 
z
" clip-path="url(#p2cfa999a9f)" style="fill: #e8edf4; stroke: #b8c5d4; stroke-width: 0.45"/>
    <path d="M 290.390048 396.210373 
L 302.226844 385.501197 
L 306.746258 369.666381 
L 303.702227 351.363002 
L 307.602516 341.508596 
L 328.511876 333.760107 
L 341.952048 336.063967 
L 341.388485 345.778474 
L 357.674251 338.711619 
L 359.040493 342.400076 
L 349.440087 351.807998 
L 349.311102 360.689068 
L 355.958758 365.459506 
L 353.430665 382.076662 
L 340.79218 391.729158 
L 344.441446 402.19376 
L 354.371258 402.520189 
L 359.203212 411.647818 
L 366.504719 414.649681 
L 365.419266 429.39706 
L 356.059962 434.909158 
L 350.148508 441.060721 
L 336.964321 448.459463 
L 339.006243 456.412838 
L 337.344329 464.524963 
L 327.977087 468.974924 
L 319.787571 434.508314 
L 307.950774 426.75933 
L 307.785079 422.111924 
L 292.082719 410.672994 
z
" clip-path="url(#p2cfa999a9f)" style="fill: #e8edf4; stroke: #b8c5d4; stroke-width: 0.45"/>
    <path d="M -20.820476 524.881713 
L -20.623031 497.127252 
L 10.382829 482.958814 
L 29.55586 480.031365 
L 45.271118 474.871494 
L 52.614794 465.257197 
L 75.063532 457.658529 
L 75.88804 443.443955 
L 86.995579 441.769638 
L 95.681188 434.668553 
L 120.808337 431.432533 
L 124.328618 423.970787 
L 119.269454 419.890912 
L 112.637673 399.621513 
L 111.494673 387.943963 
L 104.257657 375.646791 
L 122.714825 365.154904 
L 143.472876 361.817681 
L 155.59443 353.89556 
L 174.084837 348.051576 
L 238.382555 343.071291 
L 248.066305 345.922838 
L 266.146938 338.355424 
L 286.663391 338.207092 
L 294.471907 342.674416 
L 307.602516 341.508596 
L 303.702227 351.363002 
L 306.746258 369.666381 
L 302.226844 385.501197 
L 290.390048 396.210373 
L 292.082719 410.672994 
L 307.785079 422.111924 
L 307.950774 426.75933 
L 319.787571 434.508314 
L 327.977087 468.974924 
L 334.18818 485.926943 
L 335.231962 494.848197 
L 331.850587 510.511861 
L 333.237665 519.265435 
L 330.797876 529.773693 
L 332.472688 541.845638 
L 324.852688 549.868963 
L 336.205298 563.863271 
L 336.926618 572.09049 
L 343.75386 582.797185 
L 352.73018 579.279385 
L 367.884852 588.200142 
L 376.310508 600.223967 
L 310.519548 636.819314 
L 254.929266 674.536826 
L 227.854454 683.098908 
L 206.556157 684.978607 
L 206.335891 672.763291 
L 185.491024 664.149119 
L 180.925969 655.152459 
z
" clip-path="url(#p2cfa999a9f)" style="fill: #e8edf4; stroke: #b8c5d4; stroke-width: 0.45"/>
    <path d="M 569.96368 121.172525 
L 573.712165 113.432471 
L 579.036243 108.43383 
L 583.227243 109.55401 
L 578.274243 100.925947 
L 595.708962 84.956689 
L 605.236938 82.722283 
L 607.295727 77.336193 
L 597.639758 60.573681 
L 606.817493 59.825076 
L 617.339641 54.621549 
L 632.213524 54.195404 
L 651.608805 55.700056 
L 673.038071 60.307775 
L 688.159008 60.69324 
L 695.378165 63.467892 
L 702.582438 60.120748 
L 707.614813 64.6099 
L 724.941383 63.690142 
L 732.578251 65.545533 
L 733.813524 55.882123 
L 739.728946 51.666814 
L 763.381248 51.304 
L 768.231516 46.937056 
L 774.062602 47.901463 
L 793.971837 46.046568 
L 806.241227 56.917471 
L 801.445985 60.804861 
L 803.036462 66.764931 
L 818.345915 67.694611 
L 825.175872 76.020352 
L 824.75743 79.79781 
L 849.142423 86.548654 
L 863.874423 83.508096 
L 875.724118 92.499299 
L 886.943774 92.291931 
L 915.245568 98.53984 
L 915.471149 104.177346 
L 907.67328 114.230656 
L 911.915904 124.817728 
L 908.89493 131.220408 
L 890.314944 132.628096 
L 880.418157 137.989111 
L 879.81193 146.517955 
L 864.482633 148.053365 
L 851.709212 154.264955 
L 833.734743 155.277482 
L 817.196962 162.434627 
L 818.163052 172.715676 
L 815.266409 172.130897 
L 812.774734 168.339218 
L 792.949668 163.464202 
L 787.890971 168.219186 
L 785.252493 166.13251 
L 755.407493 161.279721 
L 754.085899 154.120096 
L 736.295977 156.484478 
L 729.170087 167.057724 
L 714.303149 181.248486 
L 705.594719 177.953431 
L 696.571766 181.042607 
L 688.004227 177.504963 
L 692.837173 175.419385 
L 701.447376 162.710455 
L 700.089071 159.272525 
L 704.104454 157.740588 
L 705.996555 160.398162 
L 717.311462 160.960236 
L 722.393446 159.540416 
L 718.813633 157.593744 
L 720.169954 154.732275 
L 713.465743 149.851209 
L 710.690594 141.824412 
L 703.696665 138.683642 
L 705.075805 132.177373 
L 696.40111 127.011549 
L 688.503298 126.293205 
L 674.352719 120.311306 
L 661.590212 122.210353 
L 657.011266 125.042056 
L 648.911048 125.03908 
L 644.082071 129.526744 
L 629.908673 131.371717 
L 623.35329 134.319506 
L 614.439477 129.627947 
L 602.130399 129.55651 
L 590.250938 127.430252 
L 581.962204 131.541877 
L 580.623743 126.3954 
z
" clip-path="url(#p2cfa999a9f)" style="fill: #e8edf4; stroke: #b8c5d4; stroke-width: 0.45"/>
    <path d="M 416.150805 33.63976 
L 421.503657 28.515111 
L 417.017977 18.745041 
L 430.135688 13.106439 
L 484.278368 -2.26949 
L 503.440485 0.973971 
L 504.888087 5.656599 
L 547.051094 8.079521 
L 582.357094 7.791291 
L 592.204555 9.845119 
L 596.815251 15.760045 
L 597.648688 24.253666 
L 602.974751 31.557158 
L 602.864618 39.210892 
L 591.350282 43.130033 
L 597.273641 52.025986 
L 597.639758 60.573681 
L 607.295727 77.336193 
L 605.236938 82.722283 
L 595.708962 84.956689 
L 578.274243 100.925947 
L 583.227243 109.55401 
L 560.789915 101.053939 
L 546.968743 103.767572 
L 537.904118 101.796096 
L 526.560438 105.911193 
L 516.87768 99.105779 
L 508.983837 101.71176 
L 499.063946 91.09833 
L 484.789344 89.938463 
L 482.967688 83.926799 
L 469.800368 81.779705 
L 466.933938 86.737666 
L 456.504063 82.765939 
L 457.701633 77.483533 
L 443.346665 75.813185 
L 434.246321 69.631857 
L 426.37629 57.372388 
L 427.872508 50.75301 
L 423.121915 40.482877 
z
" clip-path="url(#p2cfa999a9f)" style="fill: #e8edf4; stroke: #b8c5d4; stroke-width: 0.45"/>
    <path d="M 327.935415 146.506049 
L 330.87229 141.806056 
L 330.129141 138.398885 
L 335.924508 137.340221 
L 345.640008 142.672236 
L 348.374477 137.605135 
L 365.307149 138.423689 
L 379.034063 134.980799 
L 388.238587 135.570158 
L 394.226438 139.501205 
L 396.016344 136.238396 
L 393.294774 123.7284 
L 400.192462 121.290596 
L 406.962157 112.438299 
L 421.226837 118.618138 
L 432.02779 110.763486 
L 438.785579 109.329775 
L 453.689227 115.189138 
L 462.706227 114.192486 
L 471.557532 117.817939 
L 470.015673 120.255744 
L 471.929602 126.908857 
L 470.472079 134.75458 
L 459.659219 134.792283 
L 463.377938 138.953517 
L 457.004126 151.314189 
L 453.343946 154.554674 
L 436.552165 155.032908 
L 426.863454 159.389107 
L 383.548516 152.942865 
L 379.25929 146.264451 
L 360.284696 149.601674 
L 358.052274 153.253916 
L 336.623008 150.002021 
z
" clip-path="url(#p2cfa999a9f)" style="fill: #e8edf4; stroke: #b8c5d4; stroke-width: 0.45"/>
    <path d="M 457.004126 151.314189 
L 463.377938 138.953517 
L 459.659219 134.792283 
L 470.472079 134.75458 
L 471.929602 126.908857 
L 488.776946 133.918166 
L 504.893048 131.565689 
L 506.438876 127.710049 
L 534.509844 122.990709 
L 539.012391 118.473279 
L 545.304844 117.302002 
L 565.866938 123.13656 
L 569.96368 121.172525 
L 580.623743 126.3954 
L 581.962204 131.541877 
L 570.23554 135.569166 
L 561.149087 148.590635 
L 549.541485 161.611111 
L 534.147696 165.232596 
L 522.164055 164.382787 
L 500.276399 172.297963 
L 484.417274 168.606033 
L 463.964321 158.007982 
L 460.233696 151.526517 
z
" clip-path="url(#p2cfa999a9f)" style="fill: #e8edf4; stroke: #b8c5d4; stroke-width: 0.45"/>
    <path d="M 534.147696 165.232596 
L 549.541485 161.611111 
L 561.149087 148.590635 
L 570.23554 135.569166 
L 590.250938 127.430252 
L 602.130399 129.55651 
L 614.439477 129.627947 
L 623.35329 134.319506 
L 629.908673 131.371717 
L 644.082071 129.526744 
L 648.911048 125.03908 
L 657.011266 125.042056 
L 662.86418 126.913322 
L 685.97818 152.118853 
L 686.592344 160.545998 
L 684.565305 168.743947 
L 688.004227 177.504963 
L 696.571766 181.042607 
L 705.594719 177.953431 
L 714.303149 181.248486 
L 714.749633 186.200494 
L 705.438946 190.331963 
L 699.606868 188.533623 
L 694.235165 211.696736 
L 682.946055 209.680611 
L 668.974071 202.701068 
L 646.371048 207.16492 
L 636.850016 212.061861 
L 608.65304 211.051814 
L 593.900204 208.057392 
L 586.460782 209.463322 
L 577.420962 198.22283 
L 581.86993 194.982346 
L 577.133227 192.59167 
L 571.105688 196.894291 
L 559.910837 191.316213 
L 558.403704 183.401533 
L 546.706805 178.885592 
L 544.553758 172.776197 
z
" clip-path="url(#p2cfa999a9f)" style="fill: #e8edf4; stroke: #b8c5d4; stroke-width: 0.45"/>
    <path d="M 260.902235 55.328978 
L 272.436415 55.321041 
L 277.303094 48.093947 
L 282.087423 30.514369 
L 278.49868 24.022486 
L 282.248157 19.956502 
L 298.295798 18.912721 
L 301.856758 23.146385 
L 314.894102 13.680916 
L 310.504665 6.483588 
L 309.623602 -4.404678 
L 324.135337 -1.872615 
L 336.420602 -4.7956 
L 336.75993 2.624474 
L 356.162157 7.098744 
L 355.957766 13.913088 
L 375.480048 10.307478 
L 386.274055 5.048885 
L 407.951368 12.630189 
L 417.017977 18.745041 
L 421.503657 28.515111 
L 416.150805 33.63976 
L 423.121915 40.482877 
L 427.872508 50.75301 
L 426.37629 57.372388 
L 434.246321 69.631857 
L 425.67779 71.635084 
L 420.614657 69.428459 
L 415.799571 73.083181 
L 402.012133 76.8019 
L 394.883266 81.585732 
L 380.930133 85.766314 
L 384.291665 91.472881 
L 386.323665 99.569627 
L 396.121516 104.184291 
L 406.962157 112.438299 
L 400.192462 121.290596 
L 393.294774 123.7284 
L 396.016344 136.238396 
L 394.226438 139.501205 
L 388.238587 135.570158 
L 379.034063 134.980799 
L 365.307149 138.423689 
L 348.374477 137.605135 
L 345.640008 142.672236 
L 335.924508 137.340221 
L 330.129141 138.398885 
L 309.554149 132.528111 
L 305.612188 136.699267 
L 289.281774 136.564826 
L 291.718587 122.886033 
L 301.426149 109.738556 
L 273.758008 106.2024 
L 264.697352 101.174986 
L 265.780821 92.757267 
L 261.947008 88.421408 
L 264.127837 75.448556 
z
" clip-path="url(#p2cfa999a9f)" style="fill: #e8edf4; stroke: #b8c5d4; stroke-width: 0.45"/>
    <path d="M 575.626094 238.331017 
L 578.784227 235.621849 
L 576.702618 233.337834 
L 579.932188 227.228439 
L 587.251555 221.225705 
L 577.923008 212.937963 
L 576.200571 205.925181 
L 580.937274 201.569478 
L 586.460782 209.463322 
L 593.900204 208.057392 
L 608.65304 211.051814 
L 636.850016 212.061861 
L 646.371048 207.16492 
L 668.974071 202.701068 
L 682.946055 209.680611 
L 694.235165 211.696736 
L 684.270626 219.651103 
L 677.258837 233.384467 
L 683.457032 244.338713 
L 666.926196 241.76349 
L 647.367204 247.803431 
L 647.157852 257.365142 
L 629.706266 259.177869 
L 616.178782 252.469193 
L 600.807813 257.745646 
L 586.605641 257.190517 
L 585.242376 244.493494 
z
" clip-path="url(#p2cfa999a9f)" style="fill: #e8edf4; stroke: #b8c5d4; stroke-width: 0.45"/>
    <path d="M 532.800305 290.080045 
L 541.728008 280.767869 
L 542.879938 274.528002 
L 549.119805 271.743924 
L 549.504774 266.699642 
L 562.063883 264.999529 
L 569.383251 260.802576 
L 579.788321 261.174646 
L 582.945984 257.82784 
L 600.807813 257.745646 
L 616.178782 252.469193 
L 629.706266 259.177869 
L 647.157852 257.365142 
L 647.367204 247.803431 
L 656.720555 252.8874 
L 650.77636 264.903783 
L 646.21329 267.05683 
L 624.49629 264.696416 
L 601.244376 269.687119 
L 614.553579 280.480135 
L 604.799383 283.609494 
L 594.105587 283.628842 
L 583.948563 273.740701 
L 580.344938 277.954025 
L 584.635157 289.421232 
L 594.240524 298.431783 
L 587.003508 302.638658 
L 597.696313 311.487978 
L 607.200477 317.056135 
L 607.488212 327.903721 
L 589.728055 322.815783 
L 595.391462 332.608178 
L 583.199462 334.623806 
L 590.481126 351.567888 
L 577.72854 351.807998 
L 561.984508 343.45626 
L 554.784204 328.096205 
L 551.424657 315.321791 
L 534.100071 295.547494 
z
" clip-path="url(#p2cfa999a9f)" style="fill: #e8edf4; stroke: #b8c5d4; stroke-width: 0.45"/>
    <path d="M 597.407587 373.504162 
L 600.959618 365.343916 
L 611.455969 371.813971 
L 626.400298 370.720084 
L 640.68879 372.082853 
L 640.224446 375.424045 
L 650.688055 373.120185 
L 648.287954 378.784088 
L 620.639657 380.416236 
L 620.832141 377.248181 
z
" clip-path="url(#p2cfa999a9f)" style="fill: #e8edf4; stroke: #b8c5d4; stroke-width: 0.45"/>
    <path d="M 516.566133 240.721693 
L 524.890587 231.26565 
L 526.110977 234.878205 
L 531.27744 233.178304 
L 535.368087 238.331017 
L 539.96064 240.296896 
L 541.252751 247.25624 
L 538.812962 253.790291 
L 541.539493 262.024455 
L 549.504774 266.699642 
L 549.119805 271.743924 
L 542.879938 274.528002 
L 541.728008 280.767869 
L 532.800305 290.080045 
L 529.536008 288.736127 
L 529.152032 284.511888 
L 518.516774 278.06515 
L 516.84593 268.917181 
L 518.468157 255.816338 
L 521.088524 249.856267 
L 517.857962 246.831088 
z
" clip-path="url(#p2cfa999a9f)" style="fill: #e8edf4; stroke: #b8c5d4; stroke-width: 0.45"/>
    <path d="M 408.13393 184.250846 
L 409.249149 177.273783 
L 422.62979 177.929619 
L 426.146102 174.689135 
L 432.67668 177.823455 
L 440.211352 178.195525 
L 440.139915 172.829775 
L 446.813368 170.864252 
L 448.679673 163.108322 
L 463.964321 158.007982 
L 484.417274 168.606033 
L 500.276399 172.297963 
L 507.452636 169.429651 
L 512.117165 176.866986 
L 518.217133 182.3389 
L 510.825304 189.563498 
L 502.141712 185.313478 
L 488.866243 185.579385 
L 472.361204 182.391486 
L 463.390837 182.817135 
L 459.22861 186.800767 
L 452.339852 182.391486 
L 448.320501 190.360736 
L 461.883704 205.288197 
L 478.029571 216.71026 
L 485.278493 224.731599 
L 502.272 232 
L 500.160313 235.264166 
L 482.11143 228.160103 
L 470.97611 221.248029 
L 453.415383 215.541463 
L 437.269516 201.410728 
L 441.144008 199.976025 
L 432.389938 191.901107 
L 432.030766 185.419642 
L 419.687954 182.391486 
L 413.80329 190.679228 
z
" clip-path="url(#p2cfa999a9f)" style="fill: #e8edf4; stroke: #b8c5d4; stroke-width: 0.45"/>
    <path d="M 261.554102 162.438596 
L 261.837868 153.745049 
L 275.879305 142.956002 
L 275.262165 138.077416 
L 284.010282 139.844502 
L 289.281774 136.564826 
L 305.612188 136.699267 
L 309.554149 132.528111 
L 330.129141 138.398885 
L 330.87229 141.806056 
L 327.935415 146.506049 
L 336.623008 150.002021 
L 346.419868 150.523912 
L 344.89686 158.395431 
L 336.438462 161.633931 
L 322.231329 159.227877 
L 318.073071 166.970908 
L 308.927087 167.581103 
L 305.59929 164.538064 
L 294.835048 171.049791 
L 285.577938 171.962603 
L 277.316985 167.849986 
L 270.721915 159.430283 
z
" clip-path="url(#p2cfa999a9f)" style="fill: #e8edf4; stroke: #b8c5d4; stroke-width: 0.45"/>
    <path d="M 254.861798 99.913916 
L 256.942415 89.145705 
L 261.947008 88.421408 
L 265.780821 92.757267 
L 264.697352 101.174986 
L 259.156977 101.580791 
z
" clip-path="url(#p2cfa999a9f)" style="fill: #e8edf4; stroke: #b8c5d4; stroke-width: 0.45"/>
    <path d="M 194.180602 68.828681 
L 209.567446 65.041006 
L 223.623766 66.548635 
L 241.420633 62.559545 
L 253.573938 70.963869 
L 264.127837 75.448556 
L 261.947008 88.421408 
L 256.942415 89.145705 
L 254.861798 99.913916 
L 238.065055 91.160838 
L 228.211641 92.656064 
L 205.88643 75.897025 
L 196.961704 75.580517 
z
" clip-path="url(#p2cfa999a9f)" style="fill: #e8edf4; stroke: #b8c5d4; stroke-width: 0.45"/>
    <path d="M 209.567446 65.041502 
L 219.46154 59.765545 
L 236.275149 31.517471 
L 262.544305 23.480256 
L 278.49868 24.022486 
L 282.087423 30.514369 
L 277.303094 48.093947 
L 272.436415 55.321041 
L 260.902235 55.328978 
L 264.127837 75.448556 
L 253.573938 70.963869 
L 241.420633 62.559545 
L 223.623766 66.548635 
z
" clip-path="url(#p2cfa999a9f)" style="fill: #e8edf4; stroke: #b8c5d4; stroke-width: 0.45"/>
    <path d="M -36.990156 307.121361 
L -35.462187 294.55233 
L -27.80746 287.582213 
L -22.438734 268.275732 
L -22.864382 260.140787 
L -26.703156 253.24558 
L -27.548499 246.773045 
L -20.581359 241.893963 
L -12.746054 239.095002 
L -7.932952 248.494986 
L 3.407751 248.472166 
L 6.694868 246.047756 
L 17.882774 246.718971 
L 23.249516 256.349142 
L 14.378368 261.547213 
L 14.130817 276.52726 
L 11.012868 279.337135 
L 10.241442 288.411681 
L 1.946258 289.992236 
L 9.637696 301.502603 
L 4.33743 314.117275 
L 10.957801 319.82533 
L 8.323048 325.045228 
L 1.207575 332.245037 
L 2.808469 338.602478 
L -4.907773 343.585244 
L -15.03007 340.885502 
L -24.938054 342.998861 
L -22.005148 327.974166 
L -23.807952 316.168127 
L -32.399304 314.397072 
z
" clip-path="url(#p2cfa999a9f)" style="fill: #e8edf4; stroke: #b8c5d4; stroke-width: 0.45"/>
    <path d="M -34.423367 224.768806 
L -7.261242 210.911916 
L 16.233758 214.376138 
L 42.011782 214.254596 
L 62.441419 217.533775 
L 109.414055 217.162201 
L 117.066798 224.626924 
L 152.410501 233.352717 
L 159.39054 229.2019 
L 180.99443 237.887013 
L 203.25118 235.398111 
L 204.278094 246.551291 
L 186.08336 259.339099 
L 161.482071 263.397146 
L 159.769555 269.856287 
L 147.968477 280.500474 
L 140.568743 296.12842 
L 148.056782 307.100525 
L 136.951227 315.666576 
L 132.798923 328.146806 
L 118.303063 331.973178 
L 104.70811 346.736431 
L 62.037102 346.66549 
L 50.01179 353.445603 
L 42.678532 360.700478 
L 33.284501 359.107521 
L 26.175477 352.620599 
L 20.732337 341.576064 
L 2.808469 338.602478 
L 1.207575 332.245037 
L 8.323048 325.045228 
L 10.957801 319.82533 
L 4.33743 314.117275 
L 9.637696 301.502603 
L 1.946258 289.992236 
L 10.241442 288.411681 
L 11.012868 279.337135 
L 14.130817 276.52726 
L 14.378368 261.547213 
L 23.249516 256.349142 
L 17.882774 246.718971 
L 6.694868 246.047756 
L 3.407751 248.472166 
L -7.932952 248.494986 
L -12.746054 239.095002 
L -20.581359 241.893963 
L -27.548499 246.773045 
L -26.581117 233.098717 
z
" clip-path="url(#p2cfa999a9f)" style="fill: #e8edf4; stroke: #b8c5d4; stroke-width: 0.45"/>
    <path d="M -45.640046 55.927267 
L -30.072624 35.879127 
L -40.099671 16.357838 
L 0.534376 -7.647147 
L 4.492212 2.639853 
L 0.534376 12.928838 
L 12.40838 12.664916 
L 26.92061 16.622752 
L 30.08668 30.339248 
L 15.573954 47.485736 
L -18.463038 58.829416 
z
" clip-path="url(#p2cfa999a9f)" style="fill: #e8edf4; stroke: #b8c5d4; stroke-width: 0.45"/>
    <path d="M 275.519141 186.332455 
L 282.175727 180.484502 
L 276.525219 173.275267 
L 277.316985 167.849986 
L 285.577938 171.962603 
L 294.835048 171.049791 
L 305.59929 164.538064 
L 308.927087 167.581103 
L 318.073071 166.970908 
L 322.231329 159.227877 
L 336.438462 161.633931 
L 344.89686 158.395431 
L 346.419868 150.523912 
L 358.052274 153.253916 
L 360.284696 149.601674 
L 379.25929 146.264451 
L 383.548516 152.942865 
L 411.004329 157.901322 
L 408.923712 167.357861 
L 413.522501 175.532494 
L 398.238844 172.735517 
L 382.628758 179.549861 
L 383.690399 189.080814 
L 381.339907 194.550744 
L 387.633352 204.325775 
L 405.636594 213.995635 
L 415.292563 229.86865 
L 436.657337 245.341318 
L 451.702868 245.222752 
L 456.382024 249.466338 
L 450.995438 253.291221 
L 482.28804 266.038846 
L 498.752399 276.052002 
L 500.740743 279.637767 
L 497.152993 286.513131 
L 486.496899 277.548717 
L 469.816243 274.389096 
L 461.735868 286.808306 
L 475.612602 293.925763 
L 473.33454 303.944873 
L 465.313696 305.083408 
L 455.058446 321.550744 
L 447.054469 323.030096 
L 447.128883 317.159818 
L 451.04604 306.861904 
L 455.21918 302.760697 
L 441.86136 281.951549 
L 433.891118 279.559385 
L 428.222751 271.272635 
L 415.884899 267.782119 
L 407.577313 260.064885 
L 393.371173 258.820681 
L 360.804602 237.655834 
L 347.749399 226.59592 
L 341.760555 207.615869 
L 332.207774 205.383447 
L 316.587766 199.046346 
L 307.748368 201.64042 
L 296.654719 210.55076 
L 288.675548 211.958178 
L 290.872251 203.624299 
L 280.465196 201.188478 
z
" clip-path="url(#p2cfa999a9f)" style="fill: #e8edf4; stroke: #b8c5d4; stroke-width: 0.45"/>
    <path d="M 384.595274 328.711361 
L 387.282118 318.853482 
L 409.750204 320.608662 
L 443.911219 316.841822 
L 436.996665 331.954326 
L 439.87004 337.902986 
L 435.839774 347.776244 
L 421.156391 340.544685 
L 411.393266 338.472998 
z
" clip-path="url(#p2cfa999a9f)" style="fill: #e8edf4; stroke: #b8c5d4; stroke-width: 0.45"/>
    <path d="M 302.591969 264.639861 
L 313.151821 265.600299 
L 322.752227 259.648166 
L 334.271524 273.27983 
L 331.574758 298.674373 
L 322.844501 297.462912 
L 315.013165 303.872939 
L 307.743407 298.780537 
L 306.974462 275.616431 
z
" clip-path="url(#p2cfa999a9f)" style="fill: #e8edf4; stroke: #b8c5d4; stroke-width: 0.45"/>
    <path d="M 27.840368 -39.392186 
L 34.812965 -59.241889 
L 49.728024 -74.816256 
L 65.059305 -73.296225 
L 88.223907 -74.912002 
L 67.702493 -54.138076 
L 87.263965 -56.768365 
L 108.301813 -56.668154 
L 103.296227 -41.024334 
L 86.035141 -23.816826 
L 105.887821 -22.591971 
L 124.512173 2.08026 
L 137.654688 5.163978 
L 154.943555 34.62401 
L 178.205391 38.281213 
L 175.871766 50.560029 
L 166.090782 56.190197 
L 173.757415 66.122986 
L 156.486407 76.177814 
L 130.799665 76.000213 
L 98.112048 81.279642 
L 89.15954 77.499904 
L 76.464997 86.495572 
L 58.703848 84.316728 
L 45.215555 91.648002 
L 35.009915 87.814189 
L 63.168196 67.647978 
L 80.354868 63.500635 
L 50.220149 60.285451 
L 44.787923 52.645111 
L 64.850946 46.693971 
L 54.335743 36.351904 
L 57.984016 23.775928 
L 86.518451 25.51269 
L 89.375837 14.368006 
L 76.223895 2.271752 
L 52.911954 -1.106647 
L 48.335489 -6.302733 
L 55.313048 -14.882674 
L 48.998766 -20.172522 
L 38.661165 -11.094006 
L 37.536024 -29.600287 
z
" clip-path="url(#p2cfa999a9f)" style="fill: #e8edf4; stroke: #b8c5d4; stroke-width: 0.45"/>
    <path d="M 0.534376 12.928838 
L 4.492212 2.639853 
L 0.534376 -7.647147 
L 16.630137 -8.438912 
L 37.210587 3.431619 
L 26.92061 16.622752 
L 12.40838 12.664916 
z
" clip-path="url(#p2cfa999a9f)" style="fill: #e8edf4; stroke: #b8c5d4; stroke-width: 0.45"/>
    <path d="M 408.923712 167.357861 
L 411.004329 157.901322 
L 426.863454 159.389107 
L 436.552165 155.032908 
L 453.343946 154.554674 
L 457.004126 151.314189 
L 460.233696 151.526517 
L 463.964321 158.007982 
L 448.679673 163.108322 
L 446.813368 170.864252 
L 440.139915 172.829775 
L 440.211352 178.195525 
L 432.67668 177.823455 
L 426.146102 174.689135 
L 422.62979 177.929619 
L 409.249149 177.273783 
L 413.522501 175.532494 
z
" clip-path="url(#p2cfa999a9f)" style="fill: #e8edf4; stroke: #b8c5d4; stroke-width: 0.45"/>
    <path d="M 470.015673 120.255744 
L 474.27811 113.594197 
L 482.784133 113.919635 
L 489.340508 111.933275 
L 489.859423 110.147338 
L 493.535477 109.235517 
L 494.793571 104.866916 
L 499.199876 104.03199 
L 502.175446 100.575705 
L 507.900368 100.552388 
L 508.983837 101.71176 
L 516.87768 99.105779 
L 526.560438 105.911193 
L 537.904118 101.796096 
L 546.968743 103.767572 
L 560.789915 101.053939 
L 579.036243 108.43383 
L 573.712165 113.432471 
L 569.96368 121.172525 
L 565.866938 123.13656 
L 545.304844 117.302002 
L 539.012391 118.473279 
L 534.509844 122.990709 
L 506.438876 127.710049 
L 504.893048 131.565689 
L 488.776946 133.918166 
L 471.929602 126.908857 
z
" clip-path="url(#p2cfa999a9f)" style="fill: #e8edf4; stroke: #b8c5d4; stroke-width: 0.45"/>
    <path d="M 380.930133 85.766314 
L 394.883266 81.585732 
L 402.012133 76.8019 
L 415.799571 73.083181 
L 420.614657 69.428459 
L 425.67779 71.635084 
L 434.246321 69.631857 
L 443.346665 75.813185 
L 457.701633 77.483533 
L 456.504063 82.765939 
L 466.933938 86.737666 
L 469.800368 81.779705 
L 482.967688 83.926799 
L 484.789344 89.938463 
L 499.063946 91.09833 
L 507.900368 100.552388 
L 502.175446 100.575705 
L 499.199876 104.03199 
L 494.793571 104.866916 
L 493.535477 109.235517 
L 489.859423 110.147338 
L 489.340508 111.933275 
L 482.784133 113.919635 
L 474.27811 113.594197 
L 471.557532 117.817939 
L 462.706227 114.192486 
L 453.689227 115.189138 
L 438.785579 109.329775 
L 432.02779 110.763486 
L 421.226837 118.618138 
L 406.962157 112.438299 
L 396.121516 104.184291 
L 386.323665 99.569627 
L 384.291665 91.472881 
z
" clip-path="url(#p2cfa999a9f)" style="fill: #e8edf4; stroke: #b8c5d4; stroke-width: 0.45"/>
    <path d="M -180.872226 639.571642 
L -179.966359 630.673705 
L -172.591429 625.4419 
L -166.308898 615.436681 
L -167.547148 608.938846 
L -160.946124 595.391517 
L -150.259273 583.184635 
L -143.795171 580.090994 
L -138.713187 568.892174 
L -138.257773 558.663713 
L -131.326847 546.795166 
L -118.537054 539.797267 
L -106.366882 520.189162 
L -96.361663 512.546838 
L -78.507249 510.426037 
L -63.378374 497.302869 
L -53.752171 492.18715 
L -37.724374 476.155385 
L -42.522593 452.267478 
L -35.228031 435.748549 
L -32.653304 425.638158 
L -20.303546 412.667291 
L 13.199153 395.958853 
L 32.06411 364.288228 
L 46.197821 364.380502 
L 57.77268 372.53033 
L 76.030915 371.202783 
L 95.917329 375.441408 
L 104.257657 375.646791 
L 111.494673 387.943963 
L 112.637673 399.621513 
L 119.269454 419.890912 
L 124.328618 423.970787 
L 120.808337 431.432533 
L 95.681188 434.668553 
L 86.995579 441.769638 
L 75.88804 443.443955 
L 75.063532 457.658529 
L 52.614794 465.257197 
L 45.271118 474.871494 
L 29.55586 480.031365 
L 10.382829 482.958814 
L -20.623031 497.127252 
L -20.45932 519.876623 
L -23.382304 519.876623 
L -22.941773 530.162631 
L -34.81032 530.78126 
L -40.998593 535.149861 
L -49.716945 535.149861 
L -56.664242 532.656494 
L -72.817054 534.71826 
L -79.06982 549.681439 
L -85.07057 551.087369 
L -94.098484 575.293767 
L -120.78932 596.012627 
L -127.126421 622.524869 
L -134.991988 631.149955 
L -137.298327 638.068478 
z
" clip-path="url(#p2cfa999a9f)" style="fill: #e8edf4; stroke: #b8c5d4; stroke-width: 0.45"/>
    <path d="M 324.852688 549.868963 
L 332.472688 541.845638 
L 330.797876 529.773693 
L 333.237665 519.265435 
L 331.850587 510.511861 
L 335.231962 494.848197 
L 334.18818 485.926943 
L 327.977087 468.974924 
L 337.344329 464.524963 
L 339.006243 456.412838 
L 336.964321 448.459463 
L 350.148508 441.060721 
L 356.059962 434.909158 
L 365.419266 429.39706 
L 366.504719 414.649681 
L 389.055552 421.258624 
L 397.118592 419.606656 
L 413.158656 422.810368 
L 438.636096 431.390464 
L 447.627648 448.455808 
L 491.924928 460.219456 
L 512.379072 469.765312 
L 521.741568 464.784256 
L 530.94432 455.953408 
L 526.470336 441.245632 
L 532.492224 431.90656 
L 546.326784 422.90944 
L 559.545216 420.29056 
L 585.518592 424.219264 
L 592.06656 432.803392 
L 599.215296 432.884608 
L 605.328 436.159936 
L 624.405888 438.412288 
L 629.084544 444.75232 
L 622.135104 453.965632 
L 625.106304 462.17728 
L 620.161344 474.031552 
L 625.92 489.497833 
L 625.92 666.821632 
L 603.84 666.88 
L 603.603072 674.934976 
L 450.44832 601.413376 
L 417.482321 619.047252 
L 406.683352 608.502283 
L 376.310508 600.223967 
L 367.884852 588.200142 
L 352.73018 579.279385 
L 343.75386 582.797185 
L 336.926618 572.09049 
L 336.205298 563.863271 
z
" clip-path="url(#p2cfa999a9f)" style="fill: #e8edf4; stroke: #b8c5d4; stroke-width: 0.45"/>
    <path d="M 448.320501 190.360736 
L 452.339852 182.391486 
L 459.22861 186.800767 
L 463.390837 182.817135 
L 472.361204 182.391486 
L 488.866243 185.579385 
L 502.141712 185.313478 
L 510.825216 189.563584 
L 517.786176 189.5104 
L 512.978112 197.957056 
L 522.235392 205.341376 
L 519.4368 214.37248 
L 511.32768 216.975424 
L 505.084416 221.437888 
L 502.272 232 
L 485.278493 224.731599 
L 478.029571 216.71026 
L 461.883704 205.288197 
z
" clip-path="url(#p2cfa999a9f)" style="fill: #e8edf4; stroke: #b8c5d4; stroke-width: 0.45"/>
    <path d="M 538.812962 253.790291 
L 541.252734 247.256149 
L 543.692352 247.415488 
L 544.553472 243.484288 
L 566.727936 238.650112 
L 575.626094 238.331017 
L 585.242376 244.493494 
L 586.605641 257.190517 
L 582.945984 257.82784 
L 579.788321 261.174646 
L 569.383251 260.802576 
L 562.063883 264.999529 
L 549.504774 266.699642 
L 541.539493 262.024455 
z
" clip-path="url(#p2cfa999a9f)" style="fill: #e8edf4; stroke: #b8c5d4; stroke-width: 0.45"/>
    <path d="M 507.452636 169.429651 
L 522.164055 164.382787 
L 534.147696 165.232596 
L 544.553758 172.776197 
L 546.706805 178.885592 
L 558.403704 183.401533 
L 559.910837 191.316213 
L 571.105688 196.894291 
L 577.133227 192.59167 
L 581.86993 194.982346 
L 577.420962 198.22283 
L 580.937274 201.569478 
L 576.200571 205.925181 
L 577.923008 212.937963 
L 587.251555 221.225705 
L 579.932188 227.228439 
L 576.702618 233.337834 
L 578.784227 235.621849 
L 575.626094 238.331017 
L 560.191411 239.771692 
L 559.551744 238.3312 
L 564.00096 231.37216 
L 561.273984 231.478336 
L 545.558016 220.05664 
L 542.113536 221.119168 
L 539.458368 227.493952 
L 534.865536 228.8752 
L 536.44416 227.228416 
L 522.816 221.175425 
L 514.915584 215.222272 
L 519.4368 214.37248 
L 522.235392 205.341376 
L 512.978112 197.957056 
L 517.786176 189.5104 
L 510.825216 189.563584 
L 518.217133 182.3389 
L 512.117165 176.866986 
z
" clip-path="url(#p2cfa999a9f)" style="fill: #e8edf4; stroke: #b8c5d4; stroke-width: 0.45"/>
    <path d="M 500.160324 235.264149 
L 505.084416 221.437888 
L 514.915584 215.222272 
L 522.816 221.175425 
L 536.44416 227.228416 
L 531.27744 233.178304 
L 526.110977 234.878205 
L 524.890587 231.26565 
L 516.566133 240.721693 
L 517.857949 246.831027 
L 513.839232 245.343616 
L 508.457088 239.075008 
z
" clip-path="url(#p2cfa999a9f)" style="fill: #e8edf4; stroke: #b8c5d4; stroke-width: 0.45"/>
    <path d="M 531.27744 233.178304 
L 534.865536 228.8752 
L 539.458368 227.493952 
L 542.113536 221.119168 
L 545.558016 220.05664 
L 561.273984 231.478336 
L 564.00096 231.37216 
L 559.551744 238.3312 
L 560.191411 239.771692 
L 544.553472 243.484288 
L 543.692352 247.415488 
L 541.252734 247.256149 
L 539.96064 240.296896 
L 535.368087 238.331017 
z
" clip-path="url(#p2cfa999a9f)" style="fill: #e8edf4; stroke: #b8c5d4; stroke-width: 0.45"/>
   </g>
   <g id="PathCollection_1">
    <defs>
     <path id="m4c9df2f76f" d="M 0 2.12132 
C 0.562581 2.12132 1.102195 1.897805 1.5 1.5 
C 1.897805 1.102195 2.12132 0.562581 2.12132 0 
C 2.12132 -0.562581 1.897805 -1.102195 1.5 -1.5 
C 1.102195 -1.897805 0.562581 -2.12132 0 -2.12132 
C -0.562581 -2.12132 -1.102195 -1.897805 -1.5 -1.5 
C -1.897805 -1.102195 -2.12132 -0.562581 -2.12132 0 
C -2.12132 0.562581 -1.897805 1.102195 -1.5 1.5 
C -1.102195 1.897805 -0.562581 2.12132 0 2.12132 
z
" style="stroke: #ffffff; stroke-width: 0.5"/>
    </defs>
    <g clip-path="url(#p2cfa999a9f)">
     <use xlink:href="#m4c9df2f76f" x="174.72" y="234.88" style="fill: #8aa0b7; stroke: #ffffff; stroke-width: 0.5"/>
     <use xlink:href="#m4c9df2f76f" x="529.92" y="263.68" style="fill: #8aa0b7; stroke: #ffffff; stroke-width: 0.5"/>
     <use xlink:href="#m4c9df2f76f" x="123.37344" y="45.6544" style="fill: #8aa0b7; stroke: #ffffff; stroke-width: 0.5"/>
     <use xlink:href="#m4c9df2f76f" x="96.32" y="101.12" style="fill: #8aa0b7; stroke: #ffffff; stroke-width: 0.5"/>
     <use xlink:href="#m4c9df2f76f" x="43.2" y="357.12" style="fill: #8aa0b7; stroke: #ffffff; stroke-width: 0.5"/>
     <use xlink:href="#m4c9df2f76f" x="59.52" y="9.28" style="fill: #8aa0b7; stroke: #ffffff; stroke-width: 0.5"/>
     <use xlink:href="#m4c9df2f76f" x="104.32" y="105.28" style="fill: #8aa0b7; stroke: #ffffff; stroke-width: 0.5"/>
     <use xlink:href="#m4c9df2f76f" x="328.96" y="143.36" style="fill: #8aa0b7; stroke: #ffffff; stroke-width: 0.5"/>
     <use xlink:href="#m4c9df2f76f" x="264.32" y="95.68" style="fill: #8aa0b7; stroke: #ffffff; stroke-width: 0.5"/>
     <use xlink:href="#m4c9df2f76f" x="288" y="211.2" style="fill: #8aa0b7; stroke: #ffffff; stroke-width: 0.5"/>
     <use xlink:href="#m4c9df2f76f" x="517.90848" y="230.87296" style="fill: #8aa0b7; stroke: #ffffff; stroke-width: 0.5"/>
     <use xlink:href="#m4c9df2f76f" x="568.32" y="247.68" style="fill: #8aa0b7; stroke: #ffffff; stroke-width: 0.5"/>
     <use xlink:href="#m4c9df2f76f" x="425.92" y="362.88" style="fill: #8aa0b7; stroke: #ffffff; stroke-width: 0.5"/>
     <use xlink:href="#m4c9df2f76f" x="430.4" y="165.44" style="fill: #8aa0b7; stroke: #ffffff; stroke-width: 0.5"/>
     <use xlink:href="#m4c9df2f76f" x="384.32" y="210.56" style="fill: #8aa0b7; stroke: #ffffff; stroke-width: 0.5"/>
     <use xlink:href="#m4c9df2f76f" x="385.02528" y="246.34432" style="fill: #8aa0b7; stroke: #ffffff; stroke-width: 0.5"/>
     <use xlink:href="#m4c9df2f76f" x="547.2576" y="232.91008" style="fill: #8aa0b7; stroke: #ffffff; stroke-width: 0.5"/>
    </g>
   </g>
   <g id="PathCollection_2">
    <defs>
     <path id="m903c73f175" d="M 0 3.674235 
C 0.974418 3.674235 1.909058 3.287094 2.598076 2.598076 
C 3.287094 1.909058 3.674235 0.974418 3.674235 0 
C 3.674235 -0.974418 3.287094 -1.909058 2.598076 -2.598076 
C 1.909058 -3.287094 0.974418 -3.674235 0 -3.674235 
C -0.974418 -3.674235 -1.909058 -3.287094 -2.598076 -2.598076 
C -3.287094 -1.909058 -3.674235 -0.974418 -3.674235 0 
C -3.674235 0.974418 -3.287094 1.909058 -2.598076 2.598076 
C -1.909058 3.287094 -0.974418 3.674235 0 3.674235 
z
" style="stroke: #ffffff; stroke-width: 1.2"/>
    </defs>
    <g clip-path="url(#p2cfa999a9f)">
     <use xlink:href="#m903c73f175" x="288" y="211.2" style="fill: #f97316; stroke: #ffffff; stroke-width: 1.2"/>
    </g>
   </g>
   <g id="PathCollection_3">
    <path d="M 288 216.129503 
C 289.307319 216.129503 290.561271 215.610099 291.485685 214.685685 
C 292.410099 213.761271 292.929503 212.507319 292.929503 211.2 
C 292.929503 209.892681 292.410099 208.638729 291.485685 207.714315 
C 290.561271 206.789901 289.307319 206.270497 288 206.270497 
C 286.692681 206.270497 285.438729 206.789901 284.514315 207.714315 
C 283.589901 208.638729 283.070497 209.892681 283.070497 211.2 
C 283.070497 212.507319 283.589901 213.761271 284.514315 214.685685 
C 285.438729 215.610099 286.692681 216.129503 288 216.129503 
L 288 216.129503 
z
" clip-path="url(#p2cfa999a9f)" style="fill: none; stroke: #7c2d12; stroke-width: 1.1"/>
   </g>
  </g>
 </g>
 <defs>
  <clipPath id="p2cfa999a9f">
   <rect x="0" y="0" width="576" height="422.4"/>
  </clipPath>
 </defs>
</svg>
