<?xml version="1.0" encoding="utf-8" standalone="no"?>
<!DOCTYPE svg PUBLIC "-//W3C//DTD SVG 1.1//EN"
  "http://www.w3.org/Graphics/SVG/1.1/DTD/svg11.dtd">
<svg xmlns:xlink="http://www.w3.org/1999/xlink" width="421.2pt" height="432pt" viewBox="0 0 421.2 432" xmlns="http://www.w3.org/2000/svg" version="1.1">
 <metadata>
  <rdf:RDF xmlns:dc="http://purl.org/dc/elements/1.1/" xmlns:cc="http://creativecommons.org/ns#" xmlns:rdf="http://www.w3.org/1999/02/22-rdf-syntax-ns#">
   <cc:Work>
    <dc:type rdf:resource="http://purl.org/dc/dcmitype/StillImage"/>
    <dc:date>2026-06-09T04:57:09.147969</dc:date>
    <dc:format>image/svg+xml</dc:format>
    <dc:creator>
     <cc:Agent>
      <dc:title>Matplotlib v3.10.8, https://matplotlib.org/</dc:title>
     </cc:Agent>
    </dc:creator>
   </cc:Work>
  </rdf:RDF>
 </metadata>
 <defs>
  <style type="text/css">*{stroke-linejoin: round; stroke-linecap: butt}</style>
 </defs>
 <g id="figure_1">
  <g id="patch_1">
   <path d="M 0 432 
L 421.2 432 
L 421.2 0 
L 0 0 
z
" style="fill: #eaf3ff"/>
  </g>
  <g id="axes_1">
   <g id="PatchCollection_1">
    <path d="M -510.925069 68.583396 
L -507.839862 66.298326 
L -509.97492 59.583096 
L -504.851765 55.434059 
L -505.935936 54.177336 
L -497.75256 50.19804 
L -505.296 46.774656 
L -483.192064 33.424612 
L -480.484136 29.75265 
L -491.141719 24.819742 
L -488.19827 20.127935 
L -494.680107 14.769565 
L -489.83292 8.596944 
L -498.206962 0.401139 
L -491.56253 -5.027739 
L -502.589206 -9.825213 
L -501.538107 -14.866394 
L -495.72324 -15.529824 
L -483.472224 -18.418392 
L -476.044416 -20.92284 
L -464.216616 -16.570224 
L -444.499488 -14.856624 
L -417.295152 -6.71328 
L -411.768936 -3.291336 
L -411.29316 1.500624 
L -419.286024 5.283504 
L -431.04276 7.203384 
L -463.185288 1.730808 
L -468.472032 2.645784 
L -456.733656 7.91892 
L -455.803848 18.616536 
L -440.908344 22.681224 
L -439.977816 19.190088 
L -444.315031 16.095888 
L -439.732512 13.368816 
L -422.32716 17.850312 
L -416.26368 16.095888 
L -421.10928 10.822896 
L -404.329752 3.771144 
L -397.684512 4.186224 
L -390.9618 6.702624 
L -386.767728 1.754352 
L -392.771592 -2.53764 
L -389.24676 -6.843672 
L -394.539696 -11.309688 
L -374.4 -9 
L -370.286352 -4.967784 
L -379.402776 -4.078944 
L -379.353456 -0.07236 
L -373.68612 2.392776 
L -362.562048 0.83124 
L -360.800928 -3.761136 
L -320.634504 -13.373136 
L -315.203688 -13.01868 
L -322.302096 -8.649432 
L -313.370784 -7.898544 
L -308.212704 -10.358352 
L -294.717456 -10.557216 
L -284.0256 -13.541904 
L -275.821776 -9.204768 
L -267.639552 -13.972968 
L -275.184 -18.144 
L -271.44 -20.52 
L -250.1712 -18.341208 
L -240.205572 -16.090812 
L -214.112448 -7.864776 
L -209.299104 -11.632536 
L -216.616032 -15.439392 
L -216.826416 -16.966728 
L -225.503424 -17.673192 
L -223.129728 -21.086856 
L -226.980576 -26.704008 
L -227.198448 -29.008584 
L -213.911568 -35.5284 
L -209.186208 -42.072192 
L -203.832 -43.488 
L -184.769712 -41.589288 
L -183.268584 -37.584432 
L -190.093608 -31.744656 
L -185.615208 -29.449368 
L -183.298464 -24.416208 
L -184.93416 -14.55012 
L -176.991336 -10.13688 
L -180.08136 -5.33088 
L -194.184 4.896 
L -185.954328 5.956776 
L -183.090456 3.364776 
L -175.168872 1.515888 
L -173.257128 -2.046888 
L -167.0256 -5.475384 
L -171.221328 -9.568728 
L -167.861952 -14.322096 
L -175.735008 -14.914512 
L -177.466536 -18.918936 
L -171.72144 -26.1486 
L -181.07208 -32.019624 
L -168.186096 -36.872568 
L -169.853328 -41.992344 
L -166.262328 -42.155784 
L -162.478728 -38.164032 
L -165.319344 -31.216032 
L -157.614408 -29.900664 
L -160.897464 -35.092872 
L -148.84812 -37.923624 
L -133.905456 -38.304792 
L -120.6 -34.2 
L -127.002888 -40.19652 
L -127.720152 -47.86704 
L -115.2 -49.32 
L -97.882128 -49.002552 
L -82.27944 -49.945536 
L -88.131168 -53.709624 
L -79.798896 -58.438296 
L -71.526888 -58.636296 
L -57.528 -62.208 
L -38.515824 -63.167976 
L -36.113688 -65.13984 
L -17.208 -65.808 
L -11.316888 -64.191456 
L 4.842288 -68.017608 
L 18.069624 -67.898016 
L 20.054304 -71.005608 
L 26.934048 -74.070288 
L 43.93152 -77.025024 
L 56.279808 -74.692008 
L 46.476 -72.91728 
L 62.784936 -71.814168 
L 64.728 -68.256 
L 71.30736 -70.00812 
L 92.356272 -69.912 
L 108.586872 -66.400128 
L 114.366024 -63.703008 
L 112.574808 -59.960088 
L 85.689 -53.832456 
L 80.28 -51.696 
L 99.858168 -48.871728 
L 106.340688 -50.233896 
L 110.012976 -45.61236 
L 113.175432 -47.483136 
L 124.688304 -48.62052 
L 147.789576 -47.431584 
L 149.544 -44.064 
L 179.644752 -42.992784 
L 180.055944 -48.492216 
L 195.336 -47.232 
L 206.830368 -47.271528 
L 218.457072 -43.478712 
L 221.771304 -38.870784 
L 217.512 -35.856 
L 226.555128 -30.189888 
L 237.877776 -27.266328 
L 244.8252 -34.82136 
L 256.375152 -31.582224 
L 268.645896 -33.5178 
L 282.58236 -31.302936 
L 287.885448 -33.321816 
L 299.662776 -32.312376 
L 294.464952 -38.996568 
L 303.970824 -42.115752 
L 369 -37.44 
L 375.128496 -33.166296 
L 393.97608 -27.663984 
L 423.049536 -29.026152 
L 437.384088 -27.840384 
L 443.378232 -24.863328 
L 442.502352 -19.598256 
L 451.371816 -17.548416 
L 461.009304 -19.022688 
L 473.777856 -19.211256 
L 487.370664 -17.798328 
L 501.016824 -18.595368 
L 513.558936 -12.19536 
L 522.481536 -14.498136 
L 516.65904 -19.099872 
L 519.86484 -22.298616 
L 542.836152 -20.285496 
L 557.813016 -20.7162 
L 578.52 -17.28 
L 588.6 -14.138182 
L 588.6 14.546097 
L 579.29184 17.748504 
L 569.961216 17.220888 
L 576.4536 21.053304 
L 580.7394 26.985816 
L 584.066448 28.925136 
L 584.901792 31.903632 
L 583.0434 33.81048 
L 569.62296 32.24232 
L 549.498888 37.66212 
L 543.096936 38.501208 
L 521.6292 47.979504 
L 518.98212 51.251256 
L 508.683312 46.27044 
L 489.923856 51.92244 
L 486.648 49.248 
L 479.712528 52.33248 
L 470.082888 51.345288 
L 467.763192 56.080728 
L 459.124776 63.048384 
L 459.381384 65.958336 
L 467.581752 67.571784 
L 466.617168 78.053472 
L 459.932976 78.320232 
L 456.850512 84.343104 
L 459.845928 87.442992 
L 447.255144 91.120824 
L 444.756456 99.341496 
L 434.022768 101.097504 
L 431.864496 108.412632 
L 421.486488 115.12044 
L 418.824 110.16 
L 411.722352 83.656584 
L 415.183824 73.670976 
L 421.25868 69.37416 
L 421.63452 66.009312 
L 432.823176 64.3986 
L 445.684608 55.333656 
L 458.078688 47.9304 
L 471.021768 42.18552 
L 476.80956 32.035608 
L 468.060624 32.642856 
L 463.736952 38.574 
L 445.474656 46.481544 
L 439.576704 37.627488 
L 420.988896 40.072176 
L 402.970032 52.141104 
L 408.915 56.55636 
L 381.713256 59.177592 
L 382.23468 53.971488 
L 371.042712 52.878744 
L 362.122632 56.415744 
L 340.107984 55.178136 
L 316.424304 57.312144 
L 265.508568 88.346952 
L 276.852312 89.25444 
L 280.392624 93.763296 
L 287.38584 95.363928 
L 291.993336 91.76724 
L 299.890872 92.234304 
L 310.286232 100.155096 
L 310.530456 106.280856 
L 304.901424 113.474376 
L 304.294176 122.072184 
L 301.045896 133.583688 
L 290.193984 144.00252 
L 287.781912 148.98276 
L 263.659608 169.932888 
L 254.065464 174.157416 
L 249.525144 174.250872 
L 245.002104 170.751168 
L 235.338264 176.020272 
L 234.216 178.416 
L 233.208 177.156 
L 233.163838 173.498295 
L 236.841753 173.304074 
L 237.877597 164.797058 
L 235.981368 158.630688 
L 242.16087 156.087636 
L 250.899264 157.362552 
L 255.741437 150.358126 
L 258.20892 142.470144 
L 261.005832 139.83516 
L 264.789443 133.356745 
L 252.88989 135.47922 
L 246.648168 138.319488 
L 235.708272 138.311064 
L 232.792512 131.546251 
L 224.264288 126.427679 
L 211.73328 124.126056 
L 209.069681 117.07346 
L 199.413712 102.29185 
L 193.091121 99.640477 
L 182.314584 97.49664 
L 172.769385 97.691573 
L 163.82221 98.989912 
L 157.875038 102.572019 
L 161.825681 104.283171 
L 161.91504 108.258408 
L 157.910976 110.56644 
L 151.411608 118.202976 
L 151.476917 121.371244 
L 141.33056 125.92092 
L 132.687366 123.202574 
L 124.097007 123.802723 
L 120.327191 121.390219 
L 116.009687 120.61222 
L 105.463726 125.686329 
L 95.984863 126.878629 
L 89.366476 128.663078 
L 80.297634 127.490684 
L 73.621204 127.565656 
L 69.250866 123.885323 
L 62.19939 120.425069 
L 54.983458 119.476662 
L 39.071127 121.752244 
L 28.842408 118.723968 
L 27.469512 113.328648 
L 12.468472 110.635155 
L 4.402732 107.658965 
L -3.054674 115.120835 
L -0.131317 119.358716 
L -7.129728 124.37244 
L -17.539056 122.562288 
L -24.725165 122.30328 
L -29.537522 118.940136 
L -37.049688 118.833912 
L -43.310077 116.624371 
L -54.261594 120.010955 
L -67.999919 126.212251 
L -78.408214 128.052138 
L -82.228632 123.647942 
L -91.502856 124.611418 
L -94.567971 121.555419 
L -99.602083 120.157923 
L -103.067174 115.997432 
L -107.042373 114.701883 
L -117.388904 116.552189 
L -127.307182 112.403977 
L -131.143971 116.173794 
L -147.233408 97.888212 
L -156.418708 92.325575 
L -153.784078 90.068224 
L -171.829296 96.86268 
L -178.735113 97.273366 
L -178.138684 93.343559 
L -187.38612 90.888081 
L -194.903056 92.640346 
L -197.170081 85.177918 
L -210.109198 83.626199 
L -216.582477 86.613179 
L -234.598536 89.271 
L -238.114558 91.04956 
L -265.05648 93.555 
L -268.357922 96.012048 
L -263.160099 100.944026 
L -270.07205 102.816097 
L -268.723667 104.777652 
L -275.633757 108.284973 
L -263.966376 113.236857 
L -265.770545 116.646695 
L -275.883788 116.336202 
L -277.975567 118.472816 
L -287.184096 114.741792 
L -298.598544 114.88644 
L -306.238032 117.923688 
L -330.63319 110.025704 
L -341.880132 110.212111 
L -356.742852 118.043075 
L -357.639542 123.301731 
L -365.043741 119.126172 
L -370.788507 127.036758 
L -368.685565 128.50532 
L -372.841591 133.962103 
L -366.730272 138.84588 
L -361.3878 138.644856 
L -356.797919 143.455477 
L -357.5286 147.160512 
L -353.871648 148.324824 
L -357.153048 152.594712 
L -364.133448 153.781272 
L -371.289528 161.21376 
L -364.745232 168.046848 
L -365.453856 172.896624 
L -357.592536 181.376064 
L -361.891561 184.278102 
L -363.127207 186.109804 
L -366.312129 185.617927 
L -371.260292 181.244613 
L -377.80992 179.334432 
L -380.01399 176.379979 
L -386.729115 174.873653 
L -391.095288 176.004288 
L -392.356872 174.666024 
L -402.16032 171.21384 
L -418.845852 168.81765 
L -419.723938 169.668017 
L -428.904 163.584 
L -437.118336 160.868088 
L -443.336688 156.638232 
L -438.097176 155.487528 
L -432.12276 149.465736 
L -436.149216 146.616696 
L -425.536776 143.6778 
L -425.72736 142.103808 
L -432.190526 143.264233 
L -431.963191 140.065917 
L -428.251896 138.055536 
L -421.284401 137.527653 
L -420.151536 135.126648 
L -421.74252 131.156496 
L -418.818319 127.386505 
L -418.902912 125.27244 
L -429.516085 122.929474 
L -433.723456 123.007237 
L -438.167092 119.635536 
L -443.691592 120.775745 
L -452.835964 118.244179 
L -452.679048 116.827632 
L -455.240282 113.705479 
L -460.981327 113.356849 
L -461.577756 111.121823 
L -459.77954 109.664051 
L -464.380561 105.587463 
L -471.846524 106.283049 
L -474.033181 105.921396 
L -475.852032 107.559 
L -478.541016 107.267904 
L -480.311868 102.657223 
L -482.002555 100.26723 
L -480.616992 99.594504 
L -474.80746 99.844372 
L -472.00577 98.26977 
L -474.07969 96.350073 
L -478.934836 95.082988 
L -478.501746 93.782602 
L -481.4318 92.469194 
L -485.945757 87.755249 
L -484.402781 85.812856 
L -485.107854 82.432969 
L -492.14668 80.715865 
L -495.924682 81.575347 
L -496.947504 79.787922 
L -504.527692 77.982264 
L -506.841969 73.732849 
L -507.455885 70.241342 
z
" clip-path="url(#pecfa19b418)" style="fill: #e8edf4; stroke: #b8c5d4; stroke-width: 0.45"/>
    <path d="M -336.918574 -36.107144 
L -329.556419 -37.65198 
L -329.801985 -41.578066 
L -315.521182 -47.718342 
L -322.140313 -48.59866 
L -304.902296 -54.917903 
L -306.850084 -58.186168 
L -290.745764 -61.987611 
L -266.97568 -66.613561 
L -243.011748 -67.9612 
L -230.680966 -70.630432 
L -216.66917 -71.565817 
L -211.66408 -68.722641 
L -216.499878 -66.48222 
L -263.998746 -59.478368 
L -286.365009 -52.625205 
L -308.380781 -38.673127 
L -306.915568 -32.692283 
L -293.143013 -26.787341 
L -297.396149 -26.155751 
L -320.922899 -27.091136 
L -322.83348 -30.287964 
L -335.866359 -32.218265 
z
" clip-path="url(#pecfa19b418)" style="fill: #e8edf4; stroke: #b8c5d4; stroke-width: 0.45"/>
    <path d="M -2003.4 14.546097 
L -2003.4 -14.138182 
L -1985.76 -8.64 
L -1966.8834 -1.482408 
L -1967.5026 2.99268 
L -1962.646776 4.783968 
L -1964.317104 -0.447768 
L -1944.772632 0.625824 
L -1930.676976 7.363872 
L -1937.815704 10.501992 
L -1949.6178 11.247048 
L -1949.796 18.282312 
L -1952.678376 19.780632 
L -1959.421248 19.56528 
L -1964.908224 17.055 
L -1974.481416 14.955264 
L -1976.091552 11.831976 
L -1983.403152 10.654272 
L -1991.591496 11.588256 
L -1995.503904 9.068832 
L -1993.939992 6.392808 
L -2002.563144 8.103168 
L -1999.315296 11.490408 
z
" clip-path="url(#pecfa19b418)" style="fill: #e8edf4; stroke: #b8c5d4; stroke-width: 0.45"/>
    <path d="M 312.077347 108.464869 
L 312.714331 98.625842 
L 319.369925 95.312555 
L 316.510193 91.976573 
L 319.714462 90.965658 
L 324.078103 102.666525 
L 323.893928 109.752046 
L 326.865654 117.017277 
L 334.109863 129.769987 
L 323.452281 127.39283 
L 319.022411 137.79666 
L 326.041146 145.175558 
L 325.837995 150.207065 
L 320.383445 145.866493 
L 315.662616 151.439362 
L 314.329861 145.397312 
L 315.132788 138.383043 
L 314.312001 130.613842 
L 315.97776 125.170826 
L 316.29588 115.543134 
z
" clip-path="url(#pecfa19b418)" style="fill: #e8edf4; stroke: #b8c5d4; stroke-width: 0.45"/>
    <path d="M -473.729944 156.042244 
L -472.458208 154.661863 
L -465.565233 152.268707 
L -466.660886 151.402195 
L -464.763875 149.619076 
L -457.329475 151.447207 
L -456.395097 152.869086 
L -455.308855 153.088379 
L -455.250328 153.711223 
L -451.727938 155.448048 
L -444.384014 155.016074 
L -445.790068 157.584847 
L -453.672006 158.832027 
L -463.445921 162.997354 
L -467.449769 161.532885 
L -465.862145 158.14965 
z
" clip-path="url(#pecfa19b418)" style="fill: #e8edf4; stroke: #b8c5d4; stroke-width: 0.45"/>
    <path d="M -384.501902 -97.846631 
L -370.446202 -99.157807 
L -359.506963 -99.244871 
L -358.035797 -97.304897 
L -353.900235 -99.028699 
L -347.113673 -100.215975 
L -336.434883 -98.638025 
L -339.219457 -97.540417 
L -355.360239 -96.044881 
L -356.364457 -94.863371 
L -364.779943 -93.673304 
L -372.579653 -95.380177 
L -368.478322 -97.627854 
z
" clip-path="url(#pecfa19b418)" style="fill: #e8edf4; stroke: #b8c5d4; stroke-width: 0.45"/>
    <path d="M -50.896296 -96.058512 
L -32.200848 -100.97712 
L -16.625556 -102.60288 
L -2.63628 -98.97822 
L 13.943916 -92.016972 
L 12.166272 -85.542768 
L -3.542832 -84.64464 
L -23.597352 -86.722164 
L -35.547264 -89.4708 
L -41.07312 -94.635288 
z
" clip-path="url(#pecfa19b418)" style="fill: #e8edf4; stroke: #b8c5d4; stroke-width: 0.45"/>
    <path d="M 278.815608 -59.484024 
L 282.684672 -64.434024 
L 292.18374 -65.784672 
L 311.195628 -65.468808 
L 337.221252 -61.6509 
L 331.56 -56.304 
L 305.019432 -56.503296 
L 293.079168 -54.802656 
z
" clip-path="url(#pecfa19b418)" style="fill: #e8edf4; stroke: #b8c5d4; stroke-width: 0.45"/>
    <path d="M -565.843391 90.532196 
L -564.202933 87.363645 
L -554.267168 85.028532 
L -546.726791 86.28985 
L -543.544101 87.432664 
L -544.312427 89.404265 
L -543.73609 91.241734 
L -556.97584 91.349821 
z
" clip-path="url(#pecfa19b418)" style="fill: #e8edf4; stroke: #b8c5d4; stroke-width: 0.45"/>
    <path d="M 299.614464 -45.862776 
L 306.444312 -48.708432 
L 315.446904 -49.374576 
L 325.676376 -46.6218 
L 326.54772 -44.729568 
L 315.630936 -44.679168 
z
" clip-path="url(#pecfa19b418)" style="fill: #e8edf4; stroke: #b8c5d4; stroke-width: 0.45"/>
    <path d="M 8.554608 -78.6312 
L 21.70728 -88.084728 
L 27.62172 -88.894152 
L 33.032268 -88.425288 
L 51.281496 -84.336048 
L 49.143384 -81.409608 
z
" clip-path="url(#pecfa19b418)" style="fill: #e8edf4; stroke: #b8c5d4; stroke-width: 0.45"/>
    <path d="M -2003.4 -27.591834 
L -2003.4 -32.513143 
L -1996.375176 -32.799816 
L -1985.961204 -30.740256 
L -1986.57774 -29.755944 
L -1993.995216 -28.029744 
z
" clip-path="url(#pecfa19b418)" style="fill: #e8edf4; stroke: #b8c5d4; stroke-width: 0.45"/>
    <path d="M 344.658168 -58.845456 
L 346.381092 -61.177104 
L 377.868024 -58.205232 
L 369.54666 -55.360224 
L 358.037748 -56.004156 
z
" clip-path="url(#pecfa19b418)" style="fill: #e8edf4; stroke: #b8c5d4; stroke-width: 0.45"/>
    <path d="M 579.42216 -29.51136 
L 588.6 -32.513143 
L 588.6 -27.591834 
L 580.70466 -27.224208 
z
" clip-path="url(#pecfa19b418)" style="fill: #e8edf4; stroke: #b8c5d4; stroke-width: 0.45"/>
    <path d="M 29.506316 385.961419 
L 34.116639 379.974808 
L 43.42621 378.59945 
L 50.175194 379.632875 
L 56.116412 382.456145 
L 59.373888 377.491797 
L 65.755638 380.142425 
L 67.424745 384.944179 
L 66.538102 393.572117 
L 54.435771 399.113175 
L 57.597624 403.474955 
L 50.039388 403.996969 
L 43.80721 406.896885 
L 37.780415 405.845601 
L 34.852966 402.093644 
L 31.211514 394.656516 
z
" clip-path="url(#pecfa19b418)" style="fill: #e8edf4; stroke: #b8c5d4; stroke-width: 0.45"/>
    <path d="M -6.293546 349.592848 
L -3.255964 348.285021 
L 0.026813 340.500938 
L 5.109665 340.178539 
L 9.311827 337.056497 
L 13.435111 335.391483 
L 16.551944 337.613487 
L 16.965314 341.93992 
L 21.830505 342.269388 
L 20.058706 349.855716 
L 20.228742 356.31002 
L 27.817861 352.014468 
L 29.973636 353.283972 
L 34.190681 353.075799 
L 35.641383 350.570649 
L 41.086632 351.065131 
L 46.562019 356.912216 
L 47.011108 364.018572 
L 52.841077 370.293724 
L 52.519237 376.387678 
L 50.175194 379.632875 
L 43.42621 378.59945 
L 34.116639 379.974808 
L 29.506316 385.961419 
L 31.211514 394.656516 
L 24.747536 391.350672 
L 18.589029 391.484989 
L 19.644964 385.828404 
L 13.304142 385.870634 
L 12.734874 393.789592 
L 6.507161 410.665958 
L 7.001271 415.877361 
L 11.691589 416.103393 
L 14.613457 422.674899 
L 15.906774 428.907077 
L 19.924761 433.030546 
L 24.286169 433.867518 
L 28.016546 437.60422 
L 25.662829 440.562179 
L 20.910375 441.422034 
L 20.343712 437.724957 
L 14.469094 434.571661 
L 13.217449 435.855676 
L 10.372972 433.092868 
L 9.141419 429.527132 
L 1.827261 422.047403 
L 0.645566 426.279516 
L -0.719932 422.279946 
L 2.185565 410.882689 
L 5.674468 403.484071 
L 9.628459 396.772108 
L 6.813747 390.205811 
L 6.926485 386.861085 
L 6.103837 382.841982 
L 1.301898 377.121401 
L -0.417067 373.509342 
L 2.069107 372.178819 
L 4.704109 365.919666 
L 1.755079 361.167584 
L -2.814316 355.910788 
z
" clip-path="url(#pecfa19b418)" style="fill: #e8edf4; stroke: #b8c5d4; stroke-width: 0.45"/>
    <path d="M 13.435111 335.391483 
L 14.969529 332.739924 
L 21.096038 328.056675 
L 21.744185 329.748106 
L 25.582462 329.944559 
L 24.494529 321.708969 
L 28.227138 320.653778 
L 32.435253 326.339012 
L 35.6678 332.880752 
L 44.532003 332.937121 
L 47.322531 339.216179 
L 42.720393 341.10239 
L 40.655031 343.690697 
L 49.281109 347.997783 
L 59.803257 362.849155 
L 65.251483 367.858524 
L 67.064581 372.944353 
L 65.755638 380.142425 
L 59.373888 377.491797 
L 56.116412 382.456145 
L 50.175194 379.632875 
L 52.519237 376.387678 
L 52.841077 370.293724 
L 47.011108 364.018572 
L 46.562019 356.912216 
L 41.086632 351.065131 
L 35.641383 350.570649 
L 34.190681 353.075799 
L 29.973636 353.283972 
L 27.817861 352.014468 
L 20.228742 356.31002 
L 20.058706 349.855716 
L 21.830505 342.269388 
L 16.965314 341.93992 
L 16.551944 337.613487 
z
" clip-path="url(#pecfa19b418)" style="fill: #e8edf4; stroke: #b8c5d4; stroke-width: 0.45"/>
    <path d="M -42.816712 327.776506 
L -40.303749 328.866858 
L -40.156409 323.70308 
L -36.603882 321.995091 
L -37.365882 318.937603 
L -35.738446 316.48566 
L -35.458649 309.034394 
L -29.831458 310.674666 
L -26.620863 304.738284 
L -26.256606 301.230033 
L -22.282895 295.190588 
L -22.501673 291.070281 
L -13.180567 286.094957 
L -8.035207 287.396831 
L -8.625682 282.966776 
L -6.101557 281.64574 
L -6.64478 278.916604 
L -2.433688 278.381195 
L -0.027137 282.620006 
L 3.115368 284.336552 
L 3.037234 295.785342 
L -3.782815 301.797812 
L -4.646018 310.338686 
L 2.95389 309.144341 
L 4.670994 315.772401 
L 9.230344 317.166921 
L 7.134472 323.148137 
L 15.599072 327.176356 
L 20.880238 325.080112 
L 21.096038 328.056675 
L 14.969529 332.739924 
L 13.435111 335.391483 
L 9.311827 337.056497 
L 5.109665 340.178539 
L 0.026813 340.500938 
L -3.255964 348.285021 
L -6.293546 349.592848 
L -2.814316 355.910788 
L 1.755079 361.167584 
L 4.704109 365.919666 
L 2.069107 372.178819 
L -0.417067 373.509342 
L 1.301898 377.121401 
L 6.103837 382.841982 
L 6.926485 386.861085 
L 6.813747 390.205811 
L 9.628459 396.772108 
L 5.674468 403.484071 
L 2.185565 410.882689 
L 1.491654 405.538085 
L 3.704728 400.0227 
L 1.284038 395.762495 
L 1.868933 387.918881 
L -1.054052 384.18869 
L -3.400327 375.571542 
L -4.701085 366.475911 
L -7.815313 360.513112 
L -20.740664 369.256392 
L -24.779487 368.615129 
L -29.24061 366.92686 
L -26.758901 358.00387 
L -28.261321 351.2627 
L -33.904884 342.961253 
L -33.024565 340.365877 
L -37.236401 339.442956 
L -42.346415 333.56964 
z
" clip-path="url(#pecfa19b418)" style="fill: #e8edf4; stroke: #b8c5d4; stroke-width: 0.45"/>
    <path d="M 28.227138 320.653778 
L 32.090344 318.896675 
L 37.832505 318.932952 
L 44.83338 318.102119 
L 50.970308 314.265144 
L 54.44098 316.966375 
L 61.022904 318.281271 
L 59.884368 322.428925 
L 63.312624 325.354328 
L 70.561298 327.222865 
L 60.94849 333.382675 
L 54.948112 340.185237 
L 53.366441 345.181211 
L 65.606066 362.178313 
L 72.140365 366.625855 
L 76.515167 372.407828 
L 79.813943 385.732596 
L 78.840979 398.398613 
L 72.836136 403.140092 
L 64.590686 407.775716 
L 58.716812 413.777954 
L 49.739499 420.481731 
L 47.125333 415.864524 
L 49.148652 410.986868 
L 43.80721 406.896885 
L 50.039388 403.996969 
L 57.597624 403.474955 
L 54.435771 399.113175 
L 66.538102 393.572117 
L 67.424745 384.944179 
L 65.755638 380.142425 
L 67.064581 372.944353 
L 65.251483 367.858524 
L 59.803257 362.849155 
L 49.281109 347.997783 
L 40.655031 343.690697 
L 42.720393 341.10239 
L 47.322531 339.216179 
L 44.532003 332.937121 
L 35.6678 332.880752 
L 32.435253 326.339012 
z
" clip-path="url(#pecfa19b418)" style="fill: #e8edf4; stroke: #b8c5d4; stroke-width: 0.45"/>
    <path d="M 187.312497 194.914848 
L 193.175581 190.297269 
L 201.110725 186.42718 
L 206.0574 181.320701 
L 209.475238 183.577307 
L 215.700718 183.839245 
L 214.575949 180.041151 
L 225.696015 176.940131 
L 228.558724 172.905215 
L 234.215945 178.415931 
L 231.48022 177.983974 
L 226.205007 182.872048 
L 226.477363 188.043639 
L 222.754427 189.634984 
L 218.760252 193.033102 
L 213.965382 194.21703 
L 210.840736 196.150679 
L 210.615261 199.267698 
L 209.775126 200.062999 
L 212.640068 201.233532 
L 216.717958 204.391851 
L 215.68137 206.13314 
L 207.527822 206.955973 
L 204.722783 210.205635 
L 201.50884 209.949279 
L 201.058263 210.602262 
L 197.561546 209.231927 
L 196.692762 210.584961 
L 194.582379 211.182692 
L 194.328627 209.827984 
L 190.527557 208.019908 
L 192.499157 204.850986 
L 194.198031 204.005828 
L 193.556581 202.690373 
L 195.383447 198.806703 
L 194.912033 197.630031 
L 190.709871 196.845521 
z
" clip-path="url(#pecfa19b418)" style="fill: #e8edf4; stroke: #b8c5d4; stroke-width: 0.45"/>
    <path d="M 234.216026 178.415944 
L 234.216035 178.415925 
L 234.216053 178.415948 
z
" clip-path="url(#pecfa19b418)" style="fill: #e8edf4; stroke: #b8c5d4; stroke-width: 0.45"/>
    <path d="M 200.645265 217.97651 
L 205.993031 216.763747 
L 201.058263 210.602262 
L 201.50884 209.949279 
L 204.722783 210.205635 
L 207.527822 206.955973 
L 215.68137 206.13314 
L 216.717958 204.391851 
L 222.933021 212.886774 
L 224.715238 217.553838 
L 224.771792 225.848588 
L 222.057911 229.806113 
L 215.538123 231.189285 
L 209.78294 234.175149 
L 203.297382 234.79167 
L 202.492222 230.871165 
L 203.826466 225.471308 
z
" clip-path="url(#pecfa19b418)" style="fill: #e8edf4; stroke: #b8c5d4; stroke-width: 0.45"/>
    <path d="M -75.590897 127.460175 
L -67.999919 126.212251 
L -54.261594 120.010955 
L -43.310077 116.624371 
L -37.049688 118.833912 
L -29.537522 118.940136 
L -24.725165 122.30328 
L -17.539056 122.562288 
L -7.129728 124.37244 
L -0.131317 119.358716 
L -3.054674 115.120835 
L 4.402732 107.658965 
L 12.468472 110.635155 
L 27.469512 113.328648 
L 28.842408 118.723968 
L 39.071127 121.752244 
L 54.983458 119.476662 
L 62.19939 120.425069 
L 69.250866 123.885323 
L 73.621204 127.565656 
L 80.297634 127.490684 
L 89.366476 128.663078 
L 95.984863 126.878629 
L 105.463726 125.686329 
L 116.009687 120.61222 
L 120.327191 121.390219 
L 124.097007 123.802723 
L 132.687366 123.202574 
L 124.094031 135.825245 
L 125.948429 138.76888 
L 130.024459 137.855447 
L 137.127654 138.976495 
L 142.661827 136.319541 
L 148.439335 138.621168 
L 154.964332 143.653977 
L 154.175543 146.212704 
L 148.495146 145.401033 
L 138.036249 146.356323 
L 132.968652 148.404943 
L 127.692695 153.163908 
L 116.714388 155.953319 
L 109.540128 159.775969 
L 98.087804 157.665029 
L 94.308314 162.30642 
L 96.607708 165.073134 
L 97.773032 167.449548 
L 92.733712 169.870795 
L 87.567144 173.727118 
L 79.15389 176.259987 
L 68.362363 176.533086 
L 56.731073 179.032841 
L 48.347956 182.898651 
L 45.16043 180.659904 
L 36.448404 180.666229 
L 25.797891 176.292915 
L 18.690232 175.220608 
L 9.113886 176.222221 
L -5.747346 174.607994 
L -13.68435 174.775426 
L -17.910325 170.499966 
L -21.190497 163.862418 
L -25.639714 163.063211 
L -34.338718 158.576601 
L -52.592115 156.340272 
L -55.182469 153.218044 
L -52.410173 144.805348 
L -57.378055 139.006446 
L -67.649056 136.302612 
L -73.700408 132.483868 
z
" clip-path="url(#pecfa19b418)" style="fill: #e8edf4; stroke: #b8c5d4; stroke-width: 0.45"/>
    <path d="M -176.937269 198.495094 
L -174.887906 196.847939 
L -175.879845 195.163391 
L -169.006591 191.761738 
L -164.031638 190.35308 
L -156.41015 191.318788 
L -153.687712 186.721301 
L -144.452182 185.865726 
L -141.885641 183.007854 
L -130.540101 179.107627 
L -129.52807 177.480005 
L -130.102919 173.375511 
L -125.163313 171.501393 
L -131.644034 158.993878 
L -117.381091 156.117402 
L -113.695734 154.514523 
L -108.500516 141.623775 
L -94.217109 143.993119 
L -90.212516 140.73862 
L -89.868723 133.518595 
L -83.888809 132.845892 
L -78.408214 128.052138 
L -75.590897 127.460175 
L -73.700408 132.483868 
L -67.649056 136.302612 
L -57.378055 139.006446 
L -52.410173 144.805348 
L -55.182469 153.218044 
L -52.592115 156.340272 
L -34.338718 158.576601 
L -25.639714 163.063211 
L -21.190497 163.862418 
L -17.910325 170.499966 
L -13.68435 174.775426 
L -5.747346 174.607994 
L 9.113886 176.222221 
L 18.690232 175.220608 
L 25.797891 176.292915 
L 36.448404 180.666229 
L 45.16043 180.659904 
L 48.347956 182.898651 
L 56.731073 179.032841 
L 68.362363 176.533086 
L 79.15389 176.259987 
L 87.567144 173.727118 
L 92.733712 169.870795 
L 97.773032 167.449548 
L 96.607708 165.073134 
L 94.308314 162.30642 
L 98.087804 157.665029 
L 109.540128 159.775969 
L 116.714388 155.953319 
L 127.692695 153.163908 
L 132.968652 148.404943 
L 138.036249 146.356323 
L 148.495146 145.401033 
L 154.175543 146.212704 
L 154.964332 143.653977 
L 148.439335 138.621168 
L 142.661827 136.319541 
L 137.127654 138.976495 
L 130.024459 137.855447 
L 125.948429 138.76888 
L 124.094031 135.825245 
L 132.687366 123.202574 
L 141.33056 125.92092 
L 151.476917 121.371244 
L 151.411608 118.202976 
L 157.910976 110.56644 
L 161.91504 108.258408 
L 161.825681 104.283171 
L 157.875038 102.572019 
L 163.82221 98.989912 
L 172.769385 97.691573 
L 182.314584 97.49664 
L 193.091121 99.640477 
L 199.413712 102.29185 
L 209.069681 117.07346 
L 211.73328 124.126056 
L 224.264288 126.427679 
L 232.792512 131.546251 
L 235.708272 138.311064 
L 246.648168 138.319488 
L 252.88989 135.47922 
L 264.789443 133.356745 
L 261.005832 139.83516 
L 258.20892 142.470144 
L 255.741437 150.358126 
L 250.899264 157.362552 
L 242.16087 156.087636 
L 235.981368 158.630688 
L 237.877597 164.797058 
L 236.841753 173.304074 
L 233.163838 173.498295 
L 233.207998 177.155825 
L 228.558724 172.905215 
L 225.696015 176.940131 
L 214.575949 180.041151 
L 215.700718 183.839245 
L 209.475238 183.577307 
L 206.0574 181.320701 
L 201.110725 186.42718 
L 193.175581 190.297269 
L 187.312497 194.914848 
L 177.246507 197.007929 
L 171.945993 200.372747 
L 164.192792 202.338209 
L 168.019163 199.001854 
L 166.512651 196.198118 
L 172.213884 191.358414 
L 168.410581 187.585993 
L 162.134127 190.127605 
L 154.005135 195.133997 
L 149.568941 199.783202 
L 142.50779 200.129227 
L 138.835456 203.489022 
L 142.629829 208.357376 
L 148.522679 209.539258 
L 148.763781 212.77106 
L 154.460177 214.874002 
L 162.528894 209.73292 
L 168.921062 212.535912 
L 173.57715 212.727714 
L 174.743962 216.499577 
L 164.54998 218.510431 
L 161.186464 222.397635 
L 154.184845 226.009508 
L 150.488698 231.049014 
L 158.238179 235.00561 
L 161.066657 242.087596 
L 165.448902 248.685705 
L 170.33865 254.216344 
L 170.22182 259.564669 
L 165.702654 261.530875 
L 167.425339 265.371012 
L 171.66322 267.605853 
L 170.556683 273.470239 
L 168.727957 279.176309 
L 164.704761 279.823154 
L 153.615577 297.06638 
L 146.929474 305.658786 
L 127.013294 318.363313 
L 118.899557 319.189867 
L 114.498337 322.388927 
L 112.008815 320.051954 
L 107.935761 323.630154 
L 97.873864 327.236446 
L 90.255352 328.340564 
L 87.797083 335.944565 
L 83.807001 336.366307 
L 81.919116 331.140765 
L 83.624315 328.355633 
L 73.964253 326.050471 
L 70.561298 327.222865 
L 63.312624 325.354328 
L 59.884368 322.428925 
L 61.022904 318.281271 
L 54.44098 316.966375 
L 50.970308 314.265144 
L 44.83338 318.102119 
L 37.832505 318.932952 
L 32.090344 318.896675 
L 24.494529 321.708969 
L 25.582462 329.944559 
L 21.744185 329.748106 
L 20.880238 325.080112 
L 15.599072 327.176356 
L 7.134472 323.148137 
L 9.230344 317.166921 
L 4.670994 315.772401 
L 2.95389 309.144341 
L -4.646018 310.338686 
L -3.782815 301.797812 
L 3.037234 295.785342 
L 3.115368 284.336552 
L -0.027137 282.620006 
L -2.433688 278.381195 
L -6.64478 278.916604 
L -14.408399 277.840577 
L -11.976548 274.816947 
L -15.352714 270.339825 
L -20.485424 273.37164 
L -26.524869 271.602446 
L -34.823897 276.187468 
L -41.377544 281.54249 
L -47.184073 282.443459 
L -50.336253 280.507577 
L -54.1403 280.332332 
L -59.286032 278.665643 
L -63.174167 280.492136 
L -67.937411 285.844925 
L -68.541653 280.174574 
L -72.932827 281.6889 
L -81.327477 280.985315 
L -89.472096 279.334253 
L -95.316205 276.172028 
L -100.911026 274.752765 
L -103.327251 271.294372 
L -107.372771 270.261133 
L -114.641909 265.57007 
L -120.414208 263.356438 
L -123.398956 265.078937 
L -133.406159 260.044454 
L -140.47996 255.485476 
L -142.499185 247.549217 
L -137.331873 248.516785 
L -137.09598 244.840359 
L -139.960177 241.155374 
L -139.231664 235.282058 
L -146.970354 226.843132 
L -158.811492 223.931495 
L -160.942339 218.398996 
L -166.2622 215.042177 
L -167.543982 212.976071 
L -168.624102 208.871949 
L -168.373327 206.072306 
L -172.745897 204.433151 
L -175.112264 205.15813 
z
" clip-path="url(#pecfa19b418)" style="fill: #e8edf4; stroke: #b8c5d4; stroke-width: 0.45"/>
    <path d="M 74.708766 342.951207 
L 78.2572 339.688523 
L 86.123511 337.670971 
L 90.263165 337.841752 
L 91.872369 340.589305 
L 88.708656 343.75767 
L 87.042153 347.915555 
L 80.821509 351.376553 
L 74.917497 349.14469 
z
" clip-path="url(#pecfa19b418)" style="fill: #e8edf4; stroke: #b8c5d4; stroke-width: 0.45"/>
    <path d="M 157.364558 312.794908 
L 161.601695 305.723154 
L 167.36432 300.272696 
L 170.648956 302.417309 
L 165.064553 318.305828 
L 161.978974 324.211886 
L 158.184601 318.133001 
z
" clip-path="url(#pecfa19b418)" style="fill: #e8edf4; stroke: #b8c5d4; stroke-width: 0.45"/>
    <path d="M 155.763167 364.581329 
L 158.662711 366.950673 
L 159.40834 355.686616 
L 161.754243 349.162363 
L 166.113419 349.170735 
L 170.55073 351.226423 
L 172.771245 349.351561 
L 173.426089 351.180844 
L 172.254812 354.165965 
L 174.712708 359.326766 
L 172.816638 365.310401 
L 168.57206 367.696674 
L 167.436501 373.501342 
L 169.047566 379.23569 
L 172.864263 380.028944 
L 176.049185 379.176903 
L 185.042124 383.168659 
L 184.356771 387.088048 
L 186.705279 388.817803 
L 185.957417 392.135926 
L 180.345853 388.601816 
L 177.686294 384.818977 
L 175.833756 387.461979 
L 171.249478 383.15173 
L 164.70997 384.215851 
L 161.126189 382.624879 
L 161.491562 379.648688 
L 163.741099 377.817172 
L 161.592021 376.151971 
L 160.661845 378.74679 
L 157.107085 374.60974 
L 156.030686 371.474303 
z
" clip-path="url(#pecfa19b418)" style="fill: #e8edf4; stroke: #b8c5d4; stroke-width: 0.45"/>
    <path d="M 170.423482 430.61674 
L 173.248984 424.548273 
L 177.785265 422.523094 
L 181.711351 419.81033 
L 184.256312 423.069666 
L 189.730582 421.098065 
L 190.905208 417.885052 
L 195.994014 417.693622 
L 195.567249 412.12559 
L 201.403544 415.540265 
L 203.669452 430.63646 
L 201.216765 437.225081 
L 198.586228 429.88525 
L 195.219736 433.537306 
L 197.518758 438.84247 
L 195.454884 442.216776 
L 186.982471 438.03824 
L 184.958781 432.827024 
L 187.154367 429.403605 
L 182.59353 425.998603 
L 180.331714 428.984095 
L 176.943642 428.706903 
L 171.615595 432.724146 
z
" clip-path="url(#pecfa19b418)" style="fill: #e8edf4; stroke: #b8c5d4; stroke-width: 0.45"/>
    <path d="M 187.320683 391.984121 
L 194.235238 392.142809 
L 196.218372 394.828599 
L 198.240947 402.867922 
L 192.685565 400.957527 
L 192.835881 403.374124 
L 194.597634 407.817201 
L 191.173099 409.430312 
L 190.87321 404.366435 
L 188.705529 403.992505 
L 187.578156 399.633329 
L 191.815292 400.207805 
L 191.721531 397.481832 
z
" clip-path="url(#pecfa19b418)" style="fill: #e8edf4; stroke: #b8c5d4; stroke-width: 0.45"/>
    <path d="M 173.736396 412.463801 
L 177.026986 408.51967 
L 177.821356 404.050548 
L 181.791718 403.627504 
L 180.631975 408.474836 
L 185.961138 401.524376 
L 185.273552 408.392794 
L 182.686919 410.759347 
L 180.431429 415.308465 
L 178.170358 417.440242 
z
" clip-path="url(#pecfa19b418)" style="fill: #e8edf4; stroke: #b8c5d4; stroke-width: 0.45"/>
    <path d="M 170.161544 396.779363 
L 174.483513 399.008251 
L 179.065559 398.997647 
L 178.926032 402.005277 
L 175.591538 405.062579 
L 171.018794 407.224679 
L 170.765042 403.879023 
L 171.276267 400.205945 
z
" clip-path="url(#pecfa19b418)" style="fill: #e8edf4; stroke: #b8c5d4; stroke-width: 0.45"/>
    <path d="M 136.254777 422.154001 
L 139.784236 417.118401 
L 144.985779 412.671603 
L 149.308864 407.690697 
L 153.082773 400.53839 
L 154.365671 406.409101 
L 149.612101 410.373696 
L 145.832983 415.322046 
z
" clip-path="url(#pecfa19b418)" style="fill: #e8edf4; stroke: #b8c5d4; stroke-width: 0.45"/>
    <path d="M 158.928741 385.441823 
L 165.096923 385.706179 
L 167.597236 388.298951 
L 165.687771 394.519967 
z
" clip-path="url(#pecfa19b418)" style="fill: #e8edf4; stroke: #b8c5d4; stroke-width: 0.45"/>
    <path d="M 224.340935 242.668398 
L 231.148333 240.450115 
L 234.924847 235.924252 
L 242.166451 232.20206 
L 247.447245 227.27957 
L 261.779766 225.132352 
L 269.478273 226.604634 
L 277.01158 213.804113 
L 281.812404 217.242787 
L 296.470114 207.245072 
L 300.994489 198.440586 
L 299.760331 190.34415 
L 302.801634 185.795963 
L 310.456609 184.474369 
L 314.382695 194.460364 
L 314.169126 200.297775 
L 307.508323 207.547193 
L 307.62999 214.977065 
L 304.918342 220.723319 
L 306.173335 224.331285 
L 302.423611 229.40558 
L 293.2238 232.79328 
L 280.566712 233.234741 
L 270.309478 241.453403 
L 265.471075 238.686688 
L 265.171931 233.304877 
L 252.650277 234.893245 
L 244.12875 238.28448 
L 235.700241 238.422518 
L 243.000261 243.720055 
L 238.196089 255.957447 
L 233.54149 258.98703 
L 230.057423 256.188689 
L 231.823269 249.699783 
L 227.26578 247.605771 
z
" clip-path="url(#pecfa19b418)" style="fill: #e8edf4; stroke: #b8c5d4; stroke-width: 0.45"/>
    <path d="M 299.286314 175.940936 
L 302.847027 170.400437 
L 310.539952 170.000462 
L 312.638057 160.040697 
L 314.767043 154.429319 
L 323.228666 161.92542 
L 333.816671 165.881643 
L 338.909942 162.829923 
L 340.510588 170.912964 
L 329.829566 172.883821 
L 323.523718 180.034454 
L 312.202735 175.112708 
L 308.284462 182.990925 
L 300.276765 183.099197 
z
" clip-path="url(#pecfa19b418)" style="fill: #e8edf4; stroke: #b8c5d4; stroke-width: 0.45"/>
    <path d="M 245.614427 244.876449 
L 245.67247 241.461774 
L 249.655483 237.16585 
L 253.749372 237.99873 
L 256.709564 234.972496 
L 261.996683 236.525517 
L 262.917929 238.99439 
L 258.864595 243.351519 
L 255.90924 241.041707 
L 252.217931 242.715093 
L 250.306978 246.927115 
z
" clip-path="url(#pecfa19b418)" style="fill: #e8edf4; stroke: #b8c5d4; stroke-width: 0.45"/>
   </g>
   <g id="PathCollection_1">
    <defs>
     <path id="m83c91071d8" d="M 0 2.12132 
C 0.562581 2.12132 1.102195 1.897805 1.5 1.5 
C 1.897805 1.102195 2.12132 0.562581 2.12132 0 
C 2.12132 -0.562581 1.897805 -1.102195 1.5 -1.5 
C 1.102195 -1.897805 0.562581 -2.12132 0 -2.12132 
C -0.562581 -2.12132 -1.102195 -1.897805 -1.5 -1.5 
C -1.897805 -1.102195 -2.12132 -0.562581 -2.12132 0 
C -2.12132 0.562581 -1.897805 1.102195 -1.5 1.5 
C -1.102195 1.897805 -0.562581 2.12132 0 2.12132 
z
" style="stroke: #ffffff; stroke-width: 0.5"/>
    </defs>
    <g clip-path="url(#pecfa19b418)">
     <use xlink:href="#m83c91071d8" x="335.04" y="385.44" style="fill: #8aa0b7; stroke: #ffffff; stroke-width: 0.5"/>
     <use xlink:href="#m83c91071d8" x="114.6" y="322.2" style="fill: #8aa0b7; stroke: #ffffff; stroke-width: 0.5"/>
     <use xlink:href="#m83c91071d8" x="110.16" y="322.8" style="fill: #8aa0b7; stroke: #ffffff; stroke-width: 0.5"/>
     <use xlink:href="#m83c91071d8" x="342" y="372.96" style="fill: #8aa0b7; stroke: #ffffff; stroke-width: 0.5"/>
     <use xlink:href="#m83c91071d8" x="261" y="428.4" style="fill: #8aa0b7; stroke: #ffffff; stroke-width: 0.5"/>
     <use xlink:href="#m83c91071d8" x="163.8" y="313.2" style="fill: #8aa0b7; stroke: #ffffff; stroke-width: 0.5"/>
    </g>
   </g>
   <g id="PatchCollection_2">
    <defs>
     <path id="m7dacfa8929" d="M 200.645265 -214.02349 
L 205.993031 -215.236253 
L 201.058263 -221.397738 
L 201.50884 -222.050721 
L 204.722783 -221.794365 
L 207.527822 -225.044027 
L 215.68137 -225.86686 
L 216.717958 -227.608149 
L 222.933021 -219.113226 
L 224.715238 -214.446162 
L 224.771792 -206.151412 
L 222.057911 -202.193887 
L 215.538123 -200.810715 
L 209.78294 -197.824851 
L 203.297382 -197.20833 
L 202.492222 -201.128835 
L 203.826466 -206.528692 
z
" style="stroke: #b45309; stroke-width: 1.15"/>
    </defs>
    <g clip-path="url(#pecfa19b418)">
     <use xlink:href="#m7dacfa8929" x="0" y="432" style="fill: #f59e0b; stroke: #b45309; stroke-width: 1.15"/>
    </g>
   </g>
   <g id="PathCollection_2">
    <defs>
     <path id="m26fc0e04a5" d="M 0 3.316625 
C 0.879579 3.316625 1.723251 2.967164 2.345208 2.345208 
C 2.967164 1.723251 3.316625 0.879579 3.316625 0 
C 3.316625 -0.879579 2.967164 -1.723251 2.345208 -2.345208 
C 1.723251 -2.967164 0.879579 -3.316625 0 -3.316625 
C -0.879579 -3.316625 -1.723251 -2.967164 -2.345208 -2.345208 
C -2.967164 -1.723251 -3.316625 -0.879579 -3.316625 0 
C -3.316625 0.879579 -2.967164 1.723251 -2.345208 2.345208 
C -1.723251 2.967164 -0.879579 3.316625 0 3.316625 
z
" style="stroke: #ffffff"/>
    </defs>
    <g clip-path="url(#pecfa19b418)">
     <use xlink:href="#m26fc0e04a5" x="210.6" y="216" style="fill: #f97316; stroke: #ffffff"/>
    </g>
   </g>
   <g id="PathCollection_3">
    <path d="M 210.6 220.449719 
C 211.780079 220.449719 212.911984 219.980869 213.746427 219.146427 
C 214.580869 218.311984 215.049719 217.180079 215.049719 216 
C 215.049719 214.819921 214.580869 213.688016 213.746427 212.853573 
C 212.911984 212.019131 211.780079 211.550281 210.6 211.550281 
C 209.419921 211.550281 208.288016 212.019131 207.453573 212.853573 
C 206.619131 213.688016 206.150281 214.819921 206.150281 216 
C 206.150281 217.180079 206.619131 218.311984 207.453573 219.146427 
C 208.288016 219.980869 209.419921 220.449719 210.6 220.449719 
L 210.6 220.449719 
z
" clip-path="url(#pecfa19b418)" style="fill: none; stroke: #7c2d12; stroke-width: 1.1"/>
   </g>
  </g>
 </g>
 <defs>
  <clipPath id="pecfa19b418">
   <rect x="0" y="0" width="421.2" height="432"/>
  </clipPath>
 </defs>
</svg>
