<?xml version="1.0" encoding="utf-8" standalone="no"?>
<!DOCTYPE svg PUBLIC "-//W3C//DTD SVG 1.1//EN"
  "http://www.w3.org/Graphics/SVG/1.1/DTD/svg11.dtd">
<svg xmlns:xlink="http://www.w3.org/1999/xlink" width="345.6pt" height="432pt" viewBox="0 0 345.6 432" xmlns="http://www.w3.org/2000/svg" version="1.1">
 <metadata>
  <rdf:RDF xmlns:dc="http://purl.org/dc/elements/1.1/" xmlns:cc="http://creativecommons.org/ns#" xmlns:rdf="http://www.w3.org/1999/02/22-rdf-syntax-ns#">
   <cc:Work>
    <dc:type rdf:resource="http://purl.org/dc/dcmitype/StillImage"/>
    <dc:date>2026-06-09T04:56:58.563340</dc:date>
    <dc:format>image/svg+xml</dc:format>
    <dc:creator>
     <cc:Agent>
      <dc:title>Matplotlib v3.10.8, https://matplotlib.org/</dc:title>
     </cc:Agent>
    </dc:creator>
   </cc:Work>
  </rdf:RDF>
 </metadata>
 <defs>
  <style type="text/css">*{stroke-linejoin: round; stroke-linecap: butt}</style>
 </defs>
 <g id="figure_1">
  <g id="patch_1">
   <path d="M 0 432 
L 345.6 432 
L 345.6 0 
L 0 0 
z
" style="fill: #eaf3ff"/>
  </g>
  <g id="axes_1">
   <g id="PatchCollection_1">
    <path d="M 112.208863 448.692742 
L 117.732618 445.526051 
L 120.015642 440.958516 
L 119.179042 437.317436 
L 122.995739 431.170835 
L 125.625532 421.637277 
L 124.852928 417.410558 
L 127.995992 416.046549 
L 127.225434 413.334156 
L 123.885917 411.891639 
L 126.258796 408.8708 
L 123.008948 406.141665 
L 121.327934 397.835195 
L 124.223013 396.369982 
L 123.006715 387.592843 
L 126.62268 373.79536 
L 130.934417 371.181566 
L 128.7459 364.153158 
L 128.722459 357.538492 
L 134.173661 352.836639 
L 134.006044 346.821751 
L 138.115374 339.793715 
L 138.133606 333.171979 
L 136.264324 331.856711 
L 132.947504 319.428074 
L 137.38314 312.021642 
L 136.702437 305.049045 
L 139.275862 298.505816 
L 143.991109 291.75274 
L 149.072101 287.275246 
L 146.917442 284.449744 
L 148.420792 282.132118 
L 148.192899 270.133594 
L 156.035211 266.582183 
L 158.506316 259.10171 
L 157.63195 257.298657 
L 163.631956 250.792635 
L 173.052777 252.546203 
L 177.285448 257.746258 
L 180.094765 251.954239 
L 188.305427 252.251895 
L 202.704734 265.541131 
L 208.591445 266.636133 
L 217.388675 271.954507 
L 224.804036 274.768846 
L 225.837648 277.946327 
L 218.74915 288.890775 
L 226.00973 290.850469 
L 234.095748 291.949193 
L 239.789912 290.792426 
L 246.320677 285.276856 
L 247.497907 278.922639 
L 251.063643 277.543003 
L 254.675887 281.699028 
L 254.529106 287.449003 
L 243.631538 294.349791 
L 235.505523 301.339876 
L 225.899039 311.157323 
L 222.174429 324.320426 
L 222.244937 331.492082 
L 220.6828 333.094961 
L 219.632817 341.506726 
L 228.774027 347.673792 
L 227.791017 352.63721 
L 232.290091 355.774507 
L 231.924346 359.291315 
L 225.006071 368.523868 
L 214.330629 372.385586 
L 199.890394 373.884657 
L 191.98111 373.159492 
L 193.494506 377.453555 
L 192.020177 382.842622 
L 193.34884 386.473656 
L 189.03022 389.007083 
L 181.652438 390.000883 
L 174.728953 387.379275 
L 171.950146 389.263067 
L 172.954364 396.417607 
L 177.815463 398.584917 
L 181.757176 396.314544 
L 183.901975 400.054594 
L 177.272612 402.289621 
L 171.491011 406.766743 
L 170.432471 414.009836 
L 168.730064 417.864856 
L 161.928246 417.88532 
L 156.284684 421.573653 
L 154.220066 426.972765 
L 161.301122 432.244258 
L 168.184609 433.700169 
L 165.707365 440.159681 
L 157.203511 444.220829 
L 152.524169 452.661616 
L 145.953035 455.502373 
L 143.002518 458.874074 
L 145.327957 466.351949 
L 150.120037 470.519881 
L 140.411792 469.027879 
L 123.013412 468.064961 
L 120.028292 463.866885 
L 120.168191 458.47447 
L 115.374623 458.938442 
L 112.838033 456.327253 
z
" clip-path="url(#pcea7b0d2a8)" style="fill: #e8edf4; stroke: #b8c5d4; stroke-width: 0.45"/>
    <path d="M 146.635126 472.581867 
L 153 481.32 
L 162.36 485.64 
L 172.44 487.44 
L 169.2 491.04 
L 162.36 491.4 
L 158.688576 488.857032 
L 146.63988 488.6604 
z
" clip-path="url(#pcea7b0d2a8)" style="fill: #e8edf4; stroke: #b8c5d4; stroke-width: 0.45"/>
    <path d="M 96.160354 429.463032 
L 103.016493 423.10063 
L 105.467693 411.141918 
L 113.469437 413.675717 
L 117.231812 398.760162 
L 112.399921 396.846232 
L 110.150384 405.833591 
L 105.61001 404.819699 
L 110.324885 381.183932 
L 113.633334 376.262558 
L 111.559972 369.236755 
L 110.965962 361.12525 
L 113.999637 360.891217 
L 123.395529 337.745467 
L 126.443156 327.016076 
L 124.785211 316.228641 
L 126.935406 310.288911 
L 126.07276 301.402383 
L 130.283108 292.610734 
L 131.580331 278.682654 
L 136.14303 247.631898 
L 135.616178 235.846571 
L 134.117479 225.705423 
L 137.819206 223.867395 
L 139.748949 220.176086 
L 143.278222 225.072903 
L 144.238907 230.268121 
L 148.015979 233.316493 
L 145.748397 240.283137 
L 149.616626 248.359296 
L 152.437105 258.285015 
L 157.63195 257.298657 
L 158.506316 259.10171 
L 156.035211 266.582183 
L 148.192899 270.133594 
L 148.420792 282.132118 
L 146.917442 284.449744 
L 149.072101 287.275246 
L 143.991109 291.75274 
L 139.275862 298.505816 
L 136.702437 305.049045 
L 137.38314 312.021642 
L 132.947504 319.428074 
L 136.264324 331.856711 
L 138.133606 333.171979 
L 138.115374 339.793715 
L 134.006044 346.821751 
L 134.173661 352.836639 
L 128.722459 357.538492 
L 128.7459 364.153158 
L 130.934417 371.181566 
L 126.62268 373.79536 
L 123.006715 387.592843 
L 124.223013 396.369982 
L 121.327934 397.835195 
L 123.008948 406.141665 
L 126.258796 408.8708 
L 123.885917 411.891639 
L 127.225434 413.334156 
L 127.995992 416.046549 
L 124.852928 417.410558 
L 125.625532 421.637277 
L 122.995739 431.170835 
L 119.179042 437.317436 
L 120.015642 440.958516 
L 117.732618 445.526051 
L 112.208863 448.692742 
L 112.838033 456.327253 
L 115.374623 458.938442 
L 120.168191 458.47447 
L 120.028292 463.866885 
L 123.013412 468.064961 
L 140.411792 469.027879 
L 147.084873 470.155996 
L 140.678753 470.102046 
L 130.715268 474.474244 
L 129.554408 481.199415 
L 126.505478 481.366474 
L 118.382811 479.026152 
L 110.140152 474.012499 
L 101.183303 469.891826 
L 98.927813 465.331354 
L 100.968246 461.112449 
L 97.34577 456.324276 
L 96.422291 444.051165 
L 99.484058 437.12582 
L 107.088617 431.562625 
z
" clip-path="url(#pcea7b0d2a8)" style="fill: #e8edf4; stroke: #b8c5d4; stroke-width: 0.45"/>
    <path d="M 103.229784 474.029928 
L 109.16568 475.541496 
L 119.273904 480.35088 
L 128.824344 482.935176 
L 132.539184 479.633976 
L 134.874144 474.704856 
L 141.51132 471.73176 
L 146.635126 472.581867 
L 146.63988 488.6604 
L 158.688576 488.857032 
L 156.304584 491.768928 
L 150.129864 494.005176 
L 142.32888 493.193232 
L 137.101752 491.028696 
L 129.559104 489.987576 
L 113.14656 482.094144 
z
" clip-path="url(#pcea7b0d2a8)" style="fill: #e8edf4; stroke: #b8c5d4; stroke-width: 0.45"/>
    <path d="M 220.125066 337.748072 
L 220.6828 333.094961 
L 222.244937 331.492082 
L 222.174429 324.320426 
L 225.899039 311.157323 
L 230.572615 310.389742 
L 237.792639 315.958146 
L 240.469127 315.747926 
L 253.526748 324.340146 
L 257.690959 329.239196 
L 254.516083 332.654429 
L 256.509636 336.73232 
L 253.393733 341.257067 
L 245.261764 345.259055 
L 239.946554 343.819143 
L 236.049862 344.590817 
L 229.394268 341.499285 
L 224.511403 341.730341 
z
" clip-path="url(#pcea7b0d2a8)" style="fill: #e8edf4; stroke: #b8c5d4; stroke-width: 0.45"/>
    <path d="M 108.091905 147.771575 
L 109.99151 146.45519 
L 109.983696 143.413887 
L 114.335802 141.335503 
L 113.618079 137.442159 
L 115.455548 134.937009 
L 115.978121 131.576842 
L 124.211479 126.676676 
L 130.112328 125.291459 
L 131.077664 124.209106 
L 137.565826 124.546946 
L 140.972502 101.682853 
L 139.845129 97.559942 
L 136.651278 94.933126 
L 136.687927 89.701817 
L 140.742749 88.515657 
L 142.182475 89.260914 
L 142.425809 86.503129 
L 138.206904 85.758616 
L 138.117793 81.253403 
L 152.146332 81.414323 
L 154.527768 78.932428 
L 156.528018 81.216009 
L 157.931653 85.463192 
L 159.290454 84.575804 
L 163.254491 88.383944 
L 168.852475 87.917368 
L 170.246064 85.713967 
L 178.564998 82.851445 
L 179.401784 79.802142 
L 184.544726 77.753523 
L 184.155355 76.240313 
L 178.056006 75.62156 
L 177.056439 71.087139 
L 177.34684 66.260085 
L 174.124339 64.393594 
L 175.473652 63.730937 
L 180.803931 64.652183 
L 186.528977 66.451887 
L 188.607362 64.749852 
L 193.784906 63.632711 
L 201.838368 60.937433 
L 204.47151 58.189694 
L 203.518266 56.158004 
L 207.261479 55.839698 
L 208.937098 57.498759 
L 208.000783 60.660241 
L 210.474678 61.750779 
L 212.126113 65.096621 
L 210.129025 67.633211 
L 208.983421 73.762325 
L 210.826471 77.402661 
L 211.348486 80.734364 
L 215.777797 84.112577 
L 219.311906 84.469764 
L 220.107765 83.059618 
L 225.641009 81.485388 
L 227.982075 79.570529 
L 237.630974 80.512797 
L 238.279679 79.041631 
L 237.071939 77.610276 
L 237.792081 75.52538 
L 240.697764 76.165155 
L 244.09737 75.429014 
L 251.36595 78.439993 
L 253.594651 76.48774 
L 255.205157 76.788745 
L 256.187051 78.815598 
L 259.634469 78.301025 
L 262.393742 75.566122 
L 264.60477 70.26412 
L 268.863859 63.675127 
L 271.316546 63.334868 
L 273.097647 67.317137 
L 277.136098 79.90874 
L 280.986654 81.097319 
L 281.180874 86.067434 
L 275.765391 91.994514 
L 278.004882 94.1648 
L 290.731919 95.295522 
L 290.991624 102.512198 
L 296.460314 97.787649 
L 305.520598 100.375398 
L 317.478938 104.772525 
L 320.993142 108.991802 
L 319.812563 112.97742 
L 328.184703 110.758392 
L 342.196871 114.566532 
L 352.95361 114.285991 
L 363.597239 120.244697 
L 372.792585 128.310809 
L 378.338851 130.387706 
L 384.49587 130.676432 
L 387.105199 132.94755 
L 390.744047 146.471189 
L 387.876873 158.374091 
L 384.213841 163.074827 
L 374.065065 173.093192 
L 369.477996 181.232602 
L 364.148089 187.474454 
L 362.348013 187.615096 
L 360.336415 192.912261 
L 360.847453 206.402787 
L 358.075157 222.247773 
L 355.798645 225.08853 
L 354.522072 234.713617 
L 347.221866 244.112485 
L 345.997755 251.548682 
L 340.170018 254.668864 
L 338.484353 258.984508 
L 330.662133 258.967392 
L 319.335755 261.734107 
L 314.264622 264.93726 
L 306.200928 267.040574 
L 297.727399 272.773433 
L 291.632701 279.914579 
L 290.584765 285.290623 
L 291.781902 289.266566 
L 290.437053 296.540169 
L 288.803107 300.053629 
L 283.771228 304.016177 
L 275.782506 316.688148 
L 269.451172 322.399427 
L 264.556215 325.766664 
L 261.27288 332.615362 
L 256.509636 336.73232 
L 254.516083 332.654429 
L 257.690959 329.239196 
L 253.526748 324.340146 
L 240.469127 315.747926 
L 237.792639 315.958146 
L 230.572615 310.389742 
L 225.899039 311.157323 
L 235.505523 301.339876 
L 243.631538 294.349791 
L 254.529106 287.449003 
L 254.675887 281.699028 
L 251.063643 277.543003 
L 247.497907 278.922639 
L 249.88697 270.509758 
L 249.890691 266.551301 
L 247.299594 265.244963 
L 244.599107 266.409171 
L 241.91462 266.089934 
L 241.072997 263.318383 
L 240.403084 256.72046 
L 239.054701 254.569893 
L 234.192115 252.621361 
L 231.253131 254.031508 
L 223.652479 252.649266 
L 224.131147 242.875351 
L 222.001975 238.872247 
L 224.252628 237.383966 
L 223.560019 233.28003 
L 225.532736 230.125246 
L 226.811728 224.45415 
L 225.11118 219.977772 
L 221.178211 217.956314 
L 220.405979 215.115185 
L 221.463217 210.956927 
L 207.659594 210.659643 
L 204.890647 202.276155 
L 206.991728 202.155976 
L 206.89685 199.05105 
L 205.493773 196.948852 
L 205.176211 192.786874 
L 200.994327 190.651562 
L 196.464929 190.722256 
L 193.485018 188.63122 
L 188.617966 187.204703 
L 185.785209 184.514634 
L 177.722259 183.326242 
L 169.903573 176.877147 
L 170.482329 172.050279 
L 169.597174 169.282448 
L 170.363266 163.886312 
L 160.94226 165.105587 
L 157.148631 167.80905 
L 150.853015 170.726825 
L 149.246974 172.904552 
L 140.186318 172.452487 
L 136.124984 173.692597 
L 132.849463 172.865857 
L 133.330364 161.92885 
L 127.422632 166.17194 
L 121.068787 165.985905 
L 118.346162 162.145395 
L 113.567663 161.727932 
L 115.089245 158.6364 
L 111.088373 154.256016 
z
" clip-path="url(#pcea7b0d2a8)" style="fill: #e8edf4; stroke: #b8c5d4; stroke-width: 0.45"/>
    <path d="M 139.748949 220.176086 
L 144.290625 212.405025 
L 141.193698 206.352929 
L 142.845504 203.932612 
L 141.55535 201.263008 
L 144.368016 197.666204 
L 144.863427 186.47805 
L 146.411426 184.041361 
L 140.186318 172.452487 
L 149.246974 172.904552 
L 150.853015 170.726825 
L 157.148631 167.80905 
L 160.94226 165.105587 
L 170.363266 163.886312 
L 169.597174 169.282448 
L 170.482329 172.050279 
L 169.903573 176.877147 
L 177.722259 183.326242 
L 185.785209 184.514634 
L 188.617966 187.204703 
L 193.485018 188.63122 
L 196.464929 190.722256 
L 200.994327 190.651562 
L 205.176211 192.786874 
L 205.493773 196.948852 
L 206.89685 199.05105 
L 206.991728 202.155976 
L 204.890647 202.276155 
L 207.659594 210.659643 
L 221.463217 210.956927 
L 220.405979 215.115185 
L 221.178211 217.956314 
L 225.11118 219.977772 
L 226.811728 224.45415 
L 225.532736 230.125246 
L 223.560019 233.28003 
L 224.252628 237.383966 
L 222.001975 238.872247 
L 221.879006 236.652475 
L 215.171694 232.969723 
L 208.486335 232.867776 
L 195.938449 234.962904 
L 192.485079 241.298889 
L 192.303509 245.171769 
L 189.467589 253.79301 
L 188.305427 252.251895 
L 180.094765 251.954239 
L 177.285448 257.746258 
L 173.052777 252.546203 
L 163.631956 250.792635 
L 157.63195 257.298657 
L 152.437105 258.285015 
L 149.616626 248.359296 
L 145.748397 240.283137 
L 148.015979 233.316493 
L 144.238907 230.268121 
L 143.278222 225.072903 
z
" clip-path="url(#pcea7b0d2a8)" style="fill: #e8edf4; stroke: #b8c5d4; stroke-width: 0.45"/>
    <path d="M 54.641214 127.704707 
L 56.882379 122.662038 
L 62.621564 118.114967 
L 63.475093 121.112365 
L 61.421079 122.826865 
L 61.615858 125.465216 
L 64.591862 124.891855 
L 67.50015 125.670226 
L 70.521919 129.305725 
L 74.59274 126.344046 
L 75.955075 121.486296 
L 80.367085 115.221748 
L 89.025161 112.382479 
L 96.876031 104.843591 
L 99.117197 100.162202 
L 98.112793 94.694629 
L 100.032303 94.01188 
L 104.820476 97.421904 
L 107.118755 100.820394 
L 110.451574 102.675537 
L 114.693176 110.224471 
L 120.054337 111.12637 
L 124.021723 109.222486 
L 126.62175 110.468177 
L 130.942975 109.849425 
L 136.456499 113.221126 
L 131.812689 120.548678 
L 133.962884 120.719459 
L 137.565826 124.546946 
L 131.077664 124.209106 
L 130.112328 125.291459 
L 124.211479 126.676676 
L 115.978121 131.576842 
L 115.455548 134.937009 
L 113.618079 137.442159 
L 114.335802 141.335503 
L 109.983696 143.413887 
L 109.99151 146.45519 
L 108.091905 147.771575 
L 111.088373 154.256016 
L 115.089245 158.6364 
L 113.567663 161.727932 
L 118.346162 162.145395 
L 121.068787 165.985905 
L 127.422632 166.17194 
L 133.330364 161.92885 
L 132.849463 172.865857 
L 136.124984 173.692597 
L 140.186318 172.452487 
L 146.411426 184.041361 
L 144.863427 186.47805 
L 144.368016 197.666204 
L 141.55535 201.263008 
L 142.845504 203.932612 
L 141.193698 206.352929 
L 144.290625 212.405025 
L 137.819206 223.867395 
L 134.117479 225.705423 
L 126.898198 221.571349 
L 126.273306 218.617111 
L 111.999387 211.387413 
L 99.087245 203.512917 
L 93.533723 199.074862 
L 90.551022 193.126946 
L 91.733461 191.052282 
L 85.635415 181.603556 
L 78.536499 168.31953 
L 71.733938 153.983289 
L 68.789373 150.702001 
L 66.523837 145.399255 
L 60.930132 140.700007 
L 55.800027 137.785208 
L 58.130303 134.572008 
z
" clip-path="url(#pcea7b0d2a8)" style="fill: #e8edf4; stroke: #b8c5d4; stroke-width: 0.45"/>
    <path d="M 72.065266 81.422136 
L 74.751614 80.88189 
L 74.43275 77.275041 
L 76.121205 74.6672 
L 79.692894 74.184439 
L 85.480634 65.88262 
L 82.826842 64.169236 
L 84.185271 59.990514 
L 82.560812 53.403754 
L 84.104531 51.51345 
L 82.968043 45.423962 
L 80.052686 41.588847 
L 80.97542 38.089154 
L 83.296023 38.605959 
L 84.653521 36.465997 
L 82.981995 32.225139 
L 83.855802 31.172366 
L 87.575948 31.401004 
L 92.978036 26.374892 
L 95.942879 25.608613 
L 97.340933 17.143269 
L 101.470355 13.802078 
L 106.007381 13.665342 
L 106.579997 12.164596 
L 112.213699 12.76549 
L 120.684996 7.520043 
L 124.170551 4.051417 
L 126.721279 4.492507 
L 128.61028 6.38653 
L 127.212598 8.810755 
L 122.587764 10.017565 
L 120.761457 13.617345 
L 117.974464 15.681777 
L 115.881941 18.357521 
L 115.00125 23.495254 
L 113.004349 27.705601 
L 116.721145 28.187804 
L 117.644438 31.497928 
L 119.232992 33.082017 
L 119.801515 35.981003 
L 118.946312 38.645957 
L 119.199692 40.148749 
L 120.971863 40.748898 
L 122.686735 43.260373 
L 131.945518 42.56795 
L 136.128147 43.485289 
L 141.195744 49.681004 
L 144.105706 48.911005 
L 149.291622 49.296469 
L 153.395372 48.47531 
L 155.941635 49.71263 
L 154.64497 53.590533 
L 153.038184 56.007874 
L 152.474312 61.171652 
L 153.922781 65.955732 
L 155.96954 68.095136 
L 156.217153 69.707131 
L 152.568446 73.291284 
L 155.180937 74.877978 
L 157.094681 77.395405 
L 159.290454 84.575804 
L 157.931653 85.463192 
L 156.528018 81.216009 
L 154.527768 78.932428 
L 152.146332 81.414323 
L 138.117793 81.253403 
L 138.206904 85.758616 
L 142.425809 86.503129 
L 142.182475 89.260914 
L 140.742749 88.515657 
L 136.687927 89.701817 
L 136.651278 94.933126 
L 139.845129 97.559942 
L 140.972502 101.682853 
L 137.565826 124.546946 
L 133.962884 120.719459 
L 131.812689 120.548678 
L 136.456499 113.221126 
L 130.942975 109.849425 
L 126.62175 110.468177 
L 124.021723 109.222486 
L 120.054337 111.12637 
L 114.693176 110.224471 
L 110.451574 102.675537 
L 107.118755 100.820394 
L 104.820476 97.421904 
L 100.032303 94.01188 
L 98.112793 94.694629 
L 91.495336 90.60446 
L 89.450066 91.750064 
L 83.340113 90.751055 
L 81.585988 87.65357 
L 80.243558 87.76854 
L 73.042137 83.657349 
z
" clip-path="url(#pcea7b0d2a8)" style="fill: #e8edf4; stroke: #b8c5d4; stroke-width: 0.45"/>
    <path d="M 43.446362 34.379799 
L 44.425651 31.490673 
L 44.145668 30.187682 
L 45.221882 29.334897 
L 43.724485 28.264823 
L 43.683185 25.366953 
L 46.467387 24.72383 
L 49.052718 27.30637 
L 48.905378 28.831858 
L 51.778319 29.155559 
L 52.458091 28.569921 
L 54.437133 30.339115 
L 57.979428 29.818775 
L 61.042311 28.000281 
L 65.414882 26.548091 
L 67.87222 24.396408 
L 71.847419 24.818894 
L 71.579156 25.52713 
L 75.593609 25.772696 
L 78.797321 27.016341 
L 83.855802 31.172366 
L 82.981995 32.225139 
L 84.653521 36.465997 
L 83.296023 38.605959 
L 80.97542 38.089154 
L 80.052686 41.588847 
L 77.65246 39.511764 
L 76.110043 35.625304 
L 77.888911 33.701886 
L 76.06465 33.208521 
L 74.720732 30.829504 
L 71.133788 28.828137 
L 67.983283 29.2869 
L 66.523837 31.791491 
L 63.615736 33.600125 
L 62.044855 33.851459 
L 61.339037 35.349786 
L 64.773432 39.257826 
L 61.767662 41.244682 
L 58.417913 41.612101 
L 57.171292 37.310968 
L 56.234047 38.53508 
L 53.859494 38.112408 
L 52.406559 35.215468 
L 47.585272 33.894991 
L 44.495414 33.905781 
L 44.273102 35.468476 
z
" clip-path="url(#pcea7b0d2a8)" style="fill: #e8edf4; stroke: #b8c5d4; stroke-width: 0.45"/>
    <path d="M 22.019577 15.153995 
L 24.754666 12.836741 
L 29.498376 14.743416 
L 31.153903 13.804868 
L 33.437299 14.405576 
L 34.630714 15.88716 
L 36.755608 16.366758 
L 38.479595 14.840898 
L 40.303298 18.752845 
L 46.467387 24.72383 
L 43.683185 25.366953 
L 43.724485 28.264823 
L 45.221882 29.334897 
L 44.145668 30.187682 
L 44.425651 31.490673 
L 43.446362 34.379799 
L 39.539252 32.782129 
L 38.077387 31.270779 
L 38.906546 30.020809 
L 38.644981 28.430022 
L 36.648823 26.70622 
L 31.336962 24.368131 
L 30.863874 22.262027 
L 28.975245 20.975593 
L 29.438101 23.068861 
L 28.001351 24.789314 
L 26.355684 22.791297 
L 24.042337 22.079898 
L 23.058397 20.628824 
L 23.099697 18.436772 
L 24.052941 16.168817 
z
" clip-path="url(#pcea7b0d2a8)" style="fill: #e8edf4; stroke: #b8c5d4; stroke-width: 0.45"/>
    <path d="M 9.586847 0.648648 
L 10.38624 -0.464772 
L 11.574819 0.619069 
L 14.358463 -0.18572 
L 15.25999 -1.83027 
L 16.316483 -1.894266 
L 16.163376 -5.434887 
L 19.352577 -5.553764 
L 20.906901 -7.474949 
L 23.030678 -6.019596 
L 27.609375 -9.751461 
L 27.728996 -11.233417 
L 28.41993 -11.171096 
L 29.343595 -12.891549 
L 30.095735 -13.101024 
L 31.323009 -12.000998 
L 32.764781 -11.675623 
L 34.35594 -12.591102 
L 36.174806 -12.595939 
L 38.674188 -13.536533 
L 39.672081 -14.517124 
L 42.140023 -14.36997 
L 41.154037 -12.071692 
L 41.88869 -9.437062 
L 40.23 -6.98456 
L 39.45721 -4.087435 
L 39.224108 -0.914791 
L 39.792073 4.182572 
L 38.692048 4.889878 
L 38.018786 7.969504 
L 38.513826 9.870969 
L 37.040614 11.712159 
L 37.375663 13.658087 
L 38.479595 14.840898 
L 36.755608 16.366758 
L 34.630714 15.88716 
L 33.437299 14.405576 
L 31.153903 13.804868 
L 29.498376 14.743416 
L 24.754666 12.836741 
L 23.669709 13.763196 
L 17.81388 8.590489 
L 16.228861 6.163474 
z
" clip-path="url(#pcea7b0d2a8)" style="fill: #e8edf4; stroke: #b8c5d4; stroke-width: 0.45"/>
    <path d="M -2.543947 -10.253756 
L -1.047852 -12.081738 
L -1.621585 -13.494861 
L -1.114639 -14.878218 
L 5.579836 -19.639602 
L 6.327698 -19.358317 
L 7.90695 -20.6241 
L 15.097023 -19.848333 
L 18.425192 -20.036415 
L 21.585929 -21.638922 
L 25.603172 -20.777393 
L 28.917202 -21.570647 
L 33.34856 -20.413136 
L 37.627368 -17.453317 
L 40.245255 -16.3505 
L 42.140023 -14.36997 
L 39.672081 -14.517124 
L 38.674188 -13.536533 
L 36.174806 -12.595939 
L 34.35594 -12.591102 
L 32.764781 -11.675623 
L 31.323009 -12.000998 
L 30.095735 -13.101024 
L 29.343595 -12.891549 
L 28.41993 -11.171096 
L 27.728996 -11.233417 
L 27.609375 -9.751461 
L 23.030678 -6.019596 
L 20.906901 -7.474949 
L 19.352577 -5.553764 
L 16.163376 -5.434887 
L 16.316483 -1.894266 
L 15.25999 -1.83027 
L 14.358463 -0.18572 
L 12.120088 0.110262 
L 10.876257 -2.142251 
L 8.6896 -2.76826 
L 9.190779 -5.652363 
L 8.21149 -6.43185 
L 6.729533 -6.945307 
L 3.571215 -6.087499 
L 3.303138 -7.057114 
L -0.421286 -9.648212 
z
" clip-path="url(#pcea7b0d2a8)" style="fill: #e8edf4; stroke: #b8c5d4; stroke-width: 0.45"/>
    <path d="M 113.004349 27.705601 
L 115.00125 23.495254 
L 115.881941 18.357521 
L 117.974464 15.681777 
L 120.761457 13.617345 
L 122.587764 10.017565 
L 127.212598 8.810755 
L 127.007959 10.512046 
L 122.78124 11.352367 
L 125.129748 14.619888 
L 125.04194 18.38524 
L 121.865948 22.56731 
L 124.591363 28.279706 
L 127.695173 27.812199 
L 129.312005 22.608052 
L 127.079397 20.074067 
L 126.715512 14.623423 
L 135.681848 11.696532 
L 134.684328 8.302879 
L 137.208639 6.031389 
L 139.793039 11.090801 
L 144.842406 11.207632 
L 149.520446 15.222642 
L 149.802289 17.606497 
L 156.26701 17.669749 
L 163.959378 16.929887 
L 168.082289 20.154248 
L 173.588744 21.044054 
L 177.627753 18.794889 
L 177.710353 16.981791 
L 195.257189 16.447498 
L 189.143143 18.574066 
L 191.602714 21.972928 
L 197.360874 22.513918 
L 202.819704 26.054353 
L 203.966983 31.822745 
L 207.719312 31.660151 
L 210.540349 33.357349 
L 204.835767 37.586859 
L 204.206596 40.212001 
L 206.67119 42.883838 
L 204.883206 44.232592 
L 200.452779 45.388243 
L 200.596212 48.713063 
L 198.645819 50.69471 
L 203.518266 56.158004 
L 204.47151 58.189694 
L 201.838368 60.937433 
L 193.784906 63.632711 
L 188.607362 64.749852 
L 186.528977 66.451887 
L 180.803931 64.652183 
L 175.473652 63.730937 
L 174.124339 64.393594 
L 177.34684 66.260085 
L 177.056439 71.087139 
L 178.056006 75.62156 
L 184.155355 76.240313 
L 184.544726 77.753523 
L 179.401784 79.802142 
L 178.564998 82.851445 
L 170.246064 85.713967 
L 168.852475 87.917368 
L 163.254491 88.383944 
L 159.290454 84.575804 
L 157.094681 77.395405 
L 155.180937 74.877978 
L 152.568446 73.291284 
L 156.217153 69.707131 
L 155.96954 68.095136 
L 153.922781 65.955732 
L 152.474312 61.171652 
L 153.038184 56.007874 
L 154.64497 53.590533 
L 155.941635 49.71263 
L 153.395372 48.47531 
L 149.291622 49.296469 
L 144.105706 48.911005 
L 141.195744 49.681004 
L 136.128147 43.485289 
L 131.945518 42.56795 
L 122.686735 43.260373 
L 120.971863 40.748898 
L 119.199692 40.148749 
L 118.946312 38.645957 
L 119.801515 35.981003 
L 119.232992 33.082017 
L 117.644438 31.497928 
L 116.721145 28.187804 
z
" clip-path="url(#pcea7b0d2a8)" style="fill: #e8edf4; stroke: #b8c5d4; stroke-width: 0.45"/>
    <path d="M 198.645819 50.69471 
L 200.596212 48.713063 
L 200.452779 45.388243 
L 204.883206 44.232592 
L 206.67119 42.883838 
L 204.206596 40.212001 
L 204.835767 37.586859 
L 210.540349 33.357349 
L 215.267874 36.005746 
L 219.722672 40.696622 
L 219.924892 44.403931 
L 222.637657 44.574525 
L 229.338457 50.593321 
L 228.18783 57.070321 
L 223.81712 58.94909 
L 224.206491 60.647032 
L 222.8782 64.361782 
L 226.068703 69.590487 
L 228.373679 69.598858 
L 229.319296 73.663726 
L 233.716423 79.923437 
L 231.96453 80.181282 
L 227.982075 79.570529 
L 225.641009 81.485388 
L 220.107765 83.059618 
L 219.311906 84.469764 
L 215.777797 84.112577 
L 211.348486 80.734364 
L 210.826471 77.402661 
L 208.983421 73.762325 
L 210.129025 67.633211 
L 212.126113 65.096621 
L 210.474678 61.750779 
L 208.000783 60.660241 
L 208.937098 57.498759 
L 207.261479 55.839698 
L 203.518266 56.158004 
z
" clip-path="url(#pcea7b0d2a8)" style="fill: #e8edf4; stroke: #b8c5d4; stroke-width: 0.45"/>
    <path d="M 222.8782 64.361782 
L 224.206491 60.647032 
L 223.81712 58.94909 
L 228.18783 57.070321 
L 229.338457 50.593321 
L 237.964907 52.035279 
L 238.739186 50.737498 
L 244.560598 50.217902 
L 252.302079 52.152853 
L 248.553843 58.343359 
L 249.123296 63.269198 
L 251.9501 67.535728 
L 250.058123 73.92678 
L 248.22177 76.954688 
L 244.09737 75.429014 
L 240.697764 76.165155 
L 237.792081 75.52538 
L 237.071939 77.610276 
L 238.279679 79.041631 
L 237.630974 80.512797 
L 233.716423 79.923437 
L 229.319296 73.663726 
L 228.373679 69.598858 
L 226.068703 69.590487 
z
" clip-path="url(#pcea7b0d2a8)" style="fill: #e8edf4; stroke: #b8c5d4; stroke-width: 0.45"/>
    <path d="M 607.735081 -256.925955 
L 617.070139 -258.492185 
L 629.161122 -256.639833 
L 626.878843 -264.789661 
L 633.675823 -261.701106 
L 650.439079 -267.315647 
L 652.600808 -273.215566 
L 658.897726 -274.669244 
L 659.940639 -272.137306 
L 663.287411 -272.018616 
L 671.659365 -265.733976 
L 675.354396 -266.294686 
L 683.263866 -262.387203 
L 685.341507 -262.53938 
L 688.739253 -260.6541 
L 699.114806 -259.328041 
L 695.47447 -254.397738 
L 694.560665 -249.26819 
L 692.583856 -248.038312 
L 689.303312 -248.700969 
L 689.53474 -246.871499 
L 684.2692 -242.825607 
L 684.162788 -239.565527 
L 687.600718 -240.693644 
L 690.073869 -237.536255 
L 689.776957 -235.501775 
L 691.895898 -232.798312 
L 689.399678 -230.605329 
L 691.254448 -225.034321 
L 695.157094 -224.120888 
L 694.33333 -220.995683 
L 687.810566 -216.928025 
L 673.61013 -218.877487 
L 663.122956 -216.541444 
L 662.299193 -212.205708 
L 653.952911 -211.27237 
L 645.851452 -214.529287 
L 643.233938 -212.972731 
L 629.980049 -216.244904 
L 627.110271 -219.044175 
L 630.833578 -223.362795 
L 632.204657 -237.707408 
L 624.774785 -245.263411 
L 619.464412 -248.906352 
L 608.460804 -251.675671 
z
" clip-path="url(#pcea7b0d2a8)" style="fill: #e8edf4; stroke: #b8c5d4; stroke-width: 0.45"/>
    <path d="M 248.22177 76.954688 
L 250.058123 73.92678 
L 251.9501 67.535728 
L 249.123296 63.269198 
L 248.553843 58.343359 
L 252.302079 52.152853 
L 260.048583 54.649073 
L 267.671931 60.726469 
L 268.863859 63.675127 
L 264.60477 70.26412 
L 262.393742 75.566122 
L 259.634469 78.301025 
L 256.187051 78.815598 
L 255.205157 76.788745 
L 253.594651 76.48774 
L 251.36595 78.439993 
z
" clip-path="url(#pcea7b0d2a8)" style="fill: #e8edf4; stroke: #b8c5d4; stroke-width: 0.45"/>
    <path d="M 702.318331 -210.64692 
L 703.771266 -213.322477 
L 708.408006 -216.071891 
L 709.632117 -209.897942 
L 707.254216 -204.336049 
L 703.985206 -205.802006 
z
" clip-path="url(#pcea7b0d2a8)" style="fill: #e8edf4; stroke: #b8c5d4; stroke-width: 0.45"/>
    <path d="M 57.832089 109.777987 
L 59.293395 107.748343 
L 58.077655 101.213673 
L 60.599734 100.127971 
L 61.924862 95.642664 
L 64.649533 91.005551 
L 64.14761 88.067312 
L 68.092114 86.522848 
L 73.042137 83.657349 
L 80.243558 87.76854 
L 81.585988 87.65357 
L 83.340113 90.751055 
L 89.450066 91.750064 
L 91.495336 90.60446 
L 98.112793 94.694629 
L 99.117197 100.162202 
L 96.876031 104.843591 
L 89.025161 112.382479 
L 80.367085 115.221748 
L 75.955075 121.486296 
L 74.59274 126.344046 
L 70.521919 129.305725 
L 67.50015 125.670226 
L 64.591862 124.891855 
L 61.615858 125.465216 
L 61.421079 122.826865 
L 63.475093 121.112365 
L 62.621564 118.114967 
L 66.453888 112.734086 
L 64.896774 109.589719 
L 62.144756 112.933143 
z
" clip-path="url(#pcea7b0d2a8)" style="fill: #e8edf4; stroke: #b8c5d4; stroke-width: 0.45"/>
    <path d="M 189.467589 253.79301 
L 192.303509 245.171769 
L 192.485079 241.298889 
L 195.938449 234.962904 
L 208.486335 232.867776 
L 215.171694 232.969723 
L 221.879006 236.652475 
L 222.001975 238.872247 
L 224.131147 242.875351 
L 223.652479 252.649266 
L 231.253131 254.031508 
L 234.192115 252.621361 
L 239.054701 254.569893 
L 240.403084 256.72046 
L 241.072997 263.318383 
L 241.91462 266.089934 
L 244.599107 266.409171 
L 247.299594 265.244963 
L 249.890691 266.551301 
L 249.88697 270.509758 
L 246.320677 285.276856 
L 239.789912 290.792426 
L 234.095748 291.949193 
L 226.00973 290.850469 
L 218.74915 288.890775 
L 225.837648 277.946327 
L 224.804036 274.768846 
L 217.388675 271.954507 
L 208.591445 266.636133 
L 202.704734 265.541131 
z
" clip-path="url(#pcea7b0d2a8)" style="fill: #e8edf4; stroke: #b8c5d4; stroke-width: 0.45"/>
    <path d="M 194.76 20.952 
L 196.848 18.972 
L 196.704 16.128 
L 200.844 15.192 
L 202.356 15.444 
L 202.068 20.808 
L 196.056 21.6 
z
" clip-path="url(#pcea7b0d2a8)" style="fill: #e8edf4; stroke: #b8c5d4; stroke-width: 0.45"/>
   </g>
   <g id="PathCollection_1">
    <defs>
     <path id="m2d4f7a53da" d="M 0 2.12132 
C 0.562581 2.12132 1.102195 1.897805 1.5 1.5 
C 1.897805 1.102195 2.12132 0.562581 2.12132 0 
C 2.12132 -0.562581 1.897805 -1.102195 1.5 -1.5 
C 1.102195 -1.897805 0.562581 -2.12132 0 -2.12132 
C -0.562581 -2.12132 -1.102195 -1.897805 -1.5 -1.5 
C -1.897805 -1.102195 -2.12132 -0.562581 -2.12132 0 
C -2.12132 0.562581 -1.897805 1.102195 -1.5 1.5 
C -1.102195 1.897805 -0.562581 2.12132 0 2.12132 
z
" style="stroke: #ffffff; stroke-width: 0.5"/>
    </defs>
    <g clip-path="url(#pcea7b0d2a8)">
     <use xlink:href="#m2d4f7a53da" x="137.04" y="3.6" style="fill: #8aa0b7; stroke: #ffffff; stroke-width: 0.5"/>
     <use xlink:href="#m2d4f7a53da" x="149.4828" y="5.91552" style="fill: #8aa0b7; stroke: #ffffff; stroke-width: 0.5"/>
     <use xlink:href="#m2d4f7a53da" x="144.072" y="5.97888" style="fill: #8aa0b7; stroke: #ffffff; stroke-width: 0.5"/>
     <use xlink:href="#m2d4f7a53da" x="196.8" y="6.36" style="fill: #8aa0b7; stroke: #ffffff; stroke-width: 0.5"/>
     <use xlink:href="#m2d4f7a53da" x="259.2" y="64.8" style="fill: #8aa0b7; stroke: #ffffff; stroke-width: 0.5"/>
     <use xlink:href="#m2d4f7a53da" x="201.6" y="14.4" style="fill: #8aa0b7; stroke: #ffffff; stroke-width: 0.5"/>
    </g>
   </g>
   <g id="PatchCollection_2">
    <defs>
     <path id="m07c8b1fb1d" d="M 139.748949 -211.823914 
L 144.290625 -219.594975 
L 141.193698 -225.647071 
L 142.845504 -228.067388 
L 141.55535 -230.736992 
L 144.368016 -234.333796 
L 144.863427 -245.52195 
L 146.411426 -247.958639 
L 140.186318 -259.547513 
L 149.246974 -259.095448 
L 150.853015 -261.273175 
L 157.148631 -264.19095 
L 160.94226 -266.894413 
L 170.363266 -268.113688 
L 169.597174 -262.717552 
L 170.482329 -259.949721 
L 169.903573 -255.122853 
L 177.722259 -248.673758 
L 185.785209 -247.485366 
L 188.617966 -244.795297 
L 193.485018 -243.36878 
L 196.464929 -241.277744 
L 200.994327 -241.348438 
L 205.176211 -239.213126 
L 205.493773 -235.051148 
L 206.89685 -232.94895 
L 206.991728 -229.844024 
L 204.890647 -229.723845 
L 207.659594 -221.340357 
L 221.463217 -221.043073 
L 220.405979 -216.884815 
L 221.178211 -214.043686 
L 225.11118 -212.022228 
L 226.811728 -207.54585 
L 225.532736 -201.874754 
L 223.560019 -198.71997 
L 224.252628 -194.616034 
L 222.001975 -193.127753 
L 221.879006 -195.347525 
L 215.171694 -199.030277 
L 208.486335 -199.132224 
L 195.938449 -197.037096 
L 192.485079 -190.701111 
L 192.303509 -186.828231 
L 189.467589 -178.20699 
L 188.305427 -179.748105 
L 180.094765 -180.045761 
L 177.285448 -174.253742 
L 173.052777 -179.453797 
L 163.631956 -181.207365 
L 157.63195 -174.701343 
L 152.437105 -173.714985 
L 149.616626 -183.640704 
L 145.748397 -191.716863 
L 148.015979 -198.683507 
L 144.238907 -201.731879 
L 143.278222 -206.927097 
z
" style="stroke: #b45309; stroke-width: 1.15"/>
    </defs>
    <g clip-path="url(#pcea7b0d2a8)">
     <use xlink:href="#m07c8b1fb1d" x="0" y="432" style="fill: #f59e0b; stroke: #b45309; stroke-width: 1.15"/>
    </g>
   </g>
   <g id="PathCollection_2">
    <path d="M 172.8 220.135215 
C 173.896672 220.135215 174.948574 219.699502 175.724038 218.924038 
C 176.499502 218.148574 176.935215 217.096672 176.935215 216 
C 176.935215 214.903328 176.499502 213.851426 175.724038 213.075962 
C 174.948574 212.300498 173.896672 211.864785 172.8 211.864785 
C 171.703328 211.864785 170.651426 212.300498 169.875962 213.075962 
C 169.100498 213.851426 168.664785 214.903328 168.664785 216 
C 168.664785 217.096672 169.100498 218.148574 169.875962 218.924038 
C 170.651426 219.699502 171.703328 220.135215 172.8 220.135215 
L 172.8 220.135215 
z
" clip-path="url(#pcea7b0d2a8)" style="fill: none; stroke: #7c2d12; stroke-width: 1.1"/>
   </g>
  </g>
 </g>
 <defs>
  <clipPath id="pcea7b0d2a8">
   <rect x="0" y="0" width="345.6" height="432"/>
  </clipPath>
 </defs>
</svg>
