<?xml version="1.0" encoding="utf-8" standalone="no"?>
<!DOCTYPE svg PUBLIC "-//W3C//DTD SVG 1.1//EN"
  "http://www.w3.org/Graphics/SVG/1.1/DTD/svg11.dtd">
<svg xmlns:xlink="http://www.w3.org/1999/xlink" width="576pt" height="384pt" viewBox="0 0 576 384" xmlns="http://www.w3.org/2000/svg" version="1.1">
 <metadata>
  <rdf:RDF xmlns:dc="http://purl.org/dc/elements/1.1/" xmlns:cc="http://creativecommons.org/ns#" xmlns:rdf="http://www.w3.org/1999/02/22-rdf-syntax-ns#">
   <cc:Work>
    <dc:type rdf:resource="http://purl.org/dc/dcmitype/StillImage"/>
    <dc:date>2026-06-09T04:57:08.922426</dc:date>
    <dc:format>image/svg+xml</dc:format>
    <dc:creator>
     <cc:Agent>
      <dc:title>Matplotlib v3.10.8, https://matplotlib.org/</dc:title>
     </cc:Agent>
    </dc:creator>
   </cc:Work>
  </rdf:RDF>
 </metadata>
 <defs>
  <style type="text/css">*{stroke-linejoin: round; stroke-linecap: butt}</style>
 </defs>
 <g id="figure_1">
  <g id="patch_1">
   <path d="M 0 384 
L 576 384 
L 576 0 
L 0 0 
z
" style="fill: #eaf3ff"/>
  </g>
  <g id="axes_1">
   <g id="PatchCollection_1">
    <path d="M 63.205755 172.623041 
L 64.897434 166.433775 
L 97.057208 170.64065 
L 103.970274 166.366306 
L 95.200329 158.048799 
L 95.345188 150.715045 
L 83.231571 147.720623 
L 87.55602 142.418869 
L 115.922661 146.282447 
L 117.602434 156.739111 
L 116.134989 164.119994 
L 111.453848 167.355517 
L 116.395438 173.120127 
L 116.000548 178.336056 
L 103.248458 175.072752 
L 94.187305 176.404267 
L 82.472548 175.016197 
L 73.489282 178.604939 
z
" clip-path="url(#pf36f443b48)" style="fill: #e8edf4; stroke: #b8c5d4; stroke-width: 0.45"/>
    <path d="M 111.453848 167.355517 
L 116.134989 164.119994 
L 117.602434 156.739111 
L 115.922661 146.282447 
L 118.323755 143.009717 
L 133.311243 143.098517 
L 144.684192 148.040603 
L 149.744348 147.5584 
L 153.230399 154.369271 
L 163.735184 153.986287 
L 163.116555 159.708232 
L 171.65929 160.401771 
L 181.095489 167.445806 
L 173.965133 175.261267 
L 164.83304 171.08515 
L 149.703669 170.976506 
L 146.241926 174.478431 
L 138.870965 175.661615 
L 135.949469 171.003791 
L 129.600958 173.760088 
L 121.915969 186.907564 
L 116.972891 183.854603 
L 116.395438 173.120127 
z
" clip-path="url(#pf36f443b48)" style="fill: #e8edf4; stroke: #b8c5d4; stroke-width: 0.45"/>
    <path d="M -12.642816 52.947712 
L -8.464704 40.76224 
L -2.688 41.536 
L 4.032 57.472 
L 4.134528 68.6128 
L -0.576 69.568 
L -5.45376 58.50592 
z
" clip-path="url(#pf36f443b48)" style="fill: #e8edf4; stroke: #b8c5d4; stroke-width: 0.45"/>
    <path d="M -0.768 5.632 
L 14.4 14.272 
L 11.08704 27.919744 
L 7.556928 25.45888 
L 7.872 15.424 
L -0.729984 7.836928 
z
" clip-path="url(#pf36f443b48)" style="fill: #e8edf4; stroke: #b8c5d4; stroke-width: 0.45"/>
    <path d="M -23.616 10.432 
L -14.592 8.896 
L -1.92 9.472 
L -1.344 14.464 
L -22.272 17.536 
z
" clip-path="url(#pf36f443b48)" style="fill: #e8edf4; stroke: #b8c5d4; stroke-width: 0.45"/>
    <path d="M -23.825956 492.325697 
L -16.662363 490.885041 
L -17.512667 481.266775 
L -13.01012 474.312533 
L -3.485617 473.02517 
L 11.948356 450.886986 
L 4.871579 446.317963 
L 8.494055 435.174705 
L 4.162165 417.61001 
L 8.278751 412.569201 
L 5.248114 396.330564 
L -2.526171 386.103592 
L -0.065546 376.771076 
L 6.122727 378.149224 
L 9.742723 372.442658 
L 5.285321 361.133705 
L 7.615473 358.32631 
L 17.53586 358.93601 
L 31.94143 345.533045 
L 39.847676 343.489635 
L 43.575821 320.915385 
L 54.587614 312.005541 
L 66.686348 311.640912 
L 68.213325 307.638924 
L 83.236532 309.241306 
L 105.826657 295.253447 
L 115.121469 286.003779 
L 121.923411 287.180017 
L 126.960747 292.230748 
L 123.233594 298.695346 
L 110.900704 301.913506 
L 106.030551 311.51292 
L 98.598571 317.018072 
L 93.018508 324.153388 
L 90.670001 337.85401 
L 85.34493 349.081603 
L 95.256387 350.367478 
L 97.718501 359.194474 
L 101.954645 363.418713 
L 103.470708 371.149342 
L 101.190165 378.255885 
L 101.865844 382.26333 
L 106.591633 383.863728 
L 111.164626 390.560994 
L 135.854715 388.714533 
L 147.008391 391.160771 
L 160.521985 407.682678 
L 168.281883 405.629346 
L 182.110993 406.657252 
L 193.054325 404.467494 
L 199.84436 407.767013 
L 196.386587 418.108088 
L 192.101825 424.55433 
L 190.598165 438.324404 
L 194.460751 451.081951 
L 199.918774 456.787029 
L 200.579075 461.085681 
L 190.849188 470.643424 
L 197.815833 474.874607 
L 202.919149 481.587748 
L 208.774544 500.735478 
L 205.151075 503.101846 
L 201.408048 491.776025 
L 196.074048 485.686474 
L 189.723551 492.304861 
L 152.314114 491.87574 
L 152.551743 503.889642 
L 163.802157 505.87501 
L 163.153266 513.229103 
L 159.313997 511.241752 
L 148.501137 514.404846 
L 148.403407 528.355002 
L 156.920344 535.359846 
L 159.926673 546.354275 
L 150.842204 607.325189 
L 141.234356 597.118556 
L 135.500505 596.663142 
L 147.883997 577.123002 
L 133.181266 568.131799 
L 121.658001 569.781806 
L 114.724594 566.459963 
L 104.144899 571.536986 
L 89.848469 569.131924 
L 78.537532 549.001431 
L 69.650012 544.054385 
L 63.52127 534.991744 
L 50.752809 525.898346 
L 45.634114 527.71901 
L 27.987563 516.811892 
L 22.533508 519.866838 
L 6.240301 517.202814 
L 1.562633 508.942853 
L -2.017179 509.249439 
L -21.220968 498.286263 
z
" clip-path="url(#pf36f443b48)" style="fill: #e8edf4; stroke: #b8c5d4; stroke-width: 0.45"/>
    <path d="M -100.143035 366.879463 
L -97.531597 359.175127 
L -98.278218 355.700486 
L -95.408316 353.426392 
L -99.401374 350.572861 
L -99.511507 342.845209 
L -92.086968 341.130213 
L -85.192753 348.016986 
L -85.58566 352.084955 
L -77.924484 352.948158 
L -76.111757 351.386455 
L -70.834312 356.104306 
L -61.388191 354.716732 
L -53.220503 349.867416 
L -41.560316 345.994908 
L -35.007413 340.257088 
L -24.406882 341.383717 
L -25.122249 343.272346 
L -14.417042 343.927189 
L -5.873812 347.243576 
L 7.615473 358.32631 
L 5.285321 361.133705 
L 9.742723 372.442658 
L 6.122727 378.149224 
L -0.065546 376.771076 
L -2.526171 386.103592 
L -8.926773 380.564705 
L -13.039886 370.20081 
L -8.296238 365.071697 
L -13.160933 363.756056 
L -16.744714 357.41201 
L -26.309898 352.075033 
L -34.711245 353.2984 
L -38.603101 359.97731 
L -46.358038 364.800334 
L -50.547054 365.470556 
L -52.429234 369.466096 
L -43.270847 379.887537 
L -51.286234 385.185818 
L -60.218898 386.165603 
L -63.543222 374.695916 
L -66.042542 377.960213 
L -72.374683 376.833088 
L -76.249175 369.107916 
L -89.105941 365.586642 
L -97.345562 365.615416 
L -97.938394 369.782603 
z
" clip-path="url(#pf36f443b48)" style="fill: #e8edf4; stroke: #b8c5d4; stroke-width: 0.45"/>
    <path d="M 85.34493 349.081603 
L 90.670001 337.85401 
L 93.018508 324.153388 
L 98.598571 317.018072 
L 106.030551 311.51292 
L 110.900704 301.913506 
L 123.233594 298.695346 
L 122.687891 303.232123 
L 111.416641 305.472978 
L 117.679329 314.186369 
L 117.445173 324.227306 
L 108.97586 335.379494 
L 116.243633 350.612549 
L 124.520462 349.365865 
L 128.832012 335.488138 
L 122.878391 328.730846 
L 121.908032 314.195795 
L 145.818262 306.390752 
L 143.158208 297.34101 
L 149.889704 291.283705 
L 156.781438 304.775471 
L 170.246415 305.087017 
L 182.721188 315.793713 
L 183.47277 322.150658 
L 200.712028 322.31933 
L 221.225008 320.346365 
L 232.219438 328.944662 
L 246.903317 331.317478 
L 257.674008 325.319705 
L 257.894274 320.484775 
L 304.685837 319.059994 
L 288.381715 324.730842 
L 294.940571 333.794474 
L 310.295665 335.237115 
L 324.852544 344.678275 
L 327.911954 360.060654 
L 337.918165 359.627068 
L 345.44093 364.152931 
L 330.228712 375.431623 
L 328.550923 382.432002 
L 335.123173 389.5569 
L 330.355215 393.15358 
L 318.540743 396.235314 
L 318.923231 405.101502 
L 313.722184 410.385892 
L 326.715376 424.954678 
L 329.25736 430.372517 
L 322.235649 437.699822 
L 300.759751 444.887228 
L 286.952965 447.866271 
L 281.410606 452.405033 
L 266.143817 447.605822 
L 251.929739 445.149166 
L 248.331571 446.916252 
L 256.924907 451.89356 
L 256.150505 464.765705 
L 258.816016 476.857494 
L 275.080946 478.507502 
L 276.11927 482.542728 
L 262.404758 488.005713 
L 260.173329 496.137185 
L 237.989505 503.77058 
L 234.273266 509.646314 
L 219.345309 510.890517 
L 208.774544 500.735478 
L 202.919149 481.587748 
L 197.815833 474.874607 
L 190.849188 470.643424 
L 200.579075 461.085681 
L 199.918774 456.787029 
L 194.460751 451.081951 
L 190.598165 438.324404 
L 192.101825 424.55433 
L 196.386587 418.108088 
L 199.84436 407.767013 
L 193.054325 404.467494 
L 182.110993 406.657252 
L 168.281883 405.629346 
L 160.521985 407.682678 
L 147.008391 391.160771 
L 135.854715 388.714533 
L 111.164626 390.560994 
L 106.591633 383.863728 
L 101.865844 382.26333 
L 101.190165 378.255885 
L 103.470708 371.149342 
L 101.954645 363.418713 
L 97.718501 359.194474 
L 95.256387 350.367478 
z
" clip-path="url(#pf36f443b48)" style="fill: #e8edf4; stroke: #b8c5d4; stroke-width: 0.45"/>
    <path d="M 313.722184 410.385892 
L 318.923231 405.101502 
L 318.540743 396.235314 
L 330.355215 393.15358 
L 335.123173 389.5569 
L 328.550923 382.432002 
L 330.228712 375.431623 
L 345.44093 364.152931 
L 358.047665 371.215322 
L 369.927126 383.724326 
L 370.46638 393.610482 
L 377.700419 394.0654 
L 395.569219 410.115521 
L 392.50088 427.387521 
L 380.845653 432.397572 
L 381.883977 436.92542 
L 378.341868 446.83142 
L 386.849876 460.774631 
L 392.996477 460.796955 
L 395.518122 471.636603 
L 407.243794 488.329166 
L 402.572079 489.016752 
L 391.9522 487.388076 
L 385.709356 492.494369 
L 370.95404 496.692314 
L 368.831751 500.452705 
L 359.407458 499.500205 
L 347.595962 490.491638 
L 346.203923 481.607096 
L 341.289122 471.899533 
L 344.344067 455.555228 
L 349.669633 448.79099 
L 345.265809 439.868744 
L 338.668755 436.960642 
L 341.165594 428.530025 
L 336.697278 424.105861 
L 326.715376 424.954678 
z
" clip-path="url(#pf36f443b48)" style="fill: #e8edf4; stroke: #b8c5d4; stroke-width: 0.45"/>
    <path d="M 201.745391 172.010365 
L 204.466962 169.204459 
L 220.177258 169.316576 
L 229.990985 171.00776 
L 233.452727 174.821728 
L 228.534454 179.662611 
L 202.864083 180.226174 
z
" clip-path="url(#pf36f443b48)" style="fill: #e8edf4; stroke: #b8c5d4; stroke-width: 0.45"/>
    <path d="M -11.28421 174.861416 
L -8.980351 170.472971 
L 3.463665 169.781912 
L 16.384923 171.503357 
L 26.585106 176.114549 
L 29.766555 181.37215 
L 16.270821 181.729834 
L 10.438247 184.938568 
L -0.30764 181.85733 
z
" clip-path="url(#pf36f443b48)" style="fill: #e8edf4; stroke: #b8c5d4; stroke-width: 0.45"/>
    <path d="M -138.718292 104.39626 
L -128.583593 98.464963 
L -124.422855 91.53751 
L -115.742206 87.268127 
L -105.936913 83.525596 
L -91.400374 81.688064 
L -86.748503 79.578674 
L -55.080359 81.165181 
L -37.046855 87.706178 
L -29.404531 94.73533 
L -11.470742 92.566408 
L 23.542563 117.629064 
L 29.863294 117.365142 
L 41.31413 121.28081 
L 39.915641 126.686248 
L 54.069196 127.477021 
L 68.581923 135.335146 
L 66.304356 139.832732 
L 53.537383 142.270041 
L 40.614141 143.223533 
L 27.385801 141.704494 
L -0.105234 143.574767 
L 12.765919 132.863607 
L 4.941032 127.876377 
L -7.436011 126.592982 
L -14.070273 121.050623 
L -18.621437 110.116221 
L -29.471999 110.863834 
L -47.375527 105.715373 
L -53.136663 101.688084 
L -78.162113 98.712513 
L -84.863843 94.967502 
L -77.664035 90.170275 
L -96.497242 89.187513 
L -110.293609 99.164455 
L -118.248968 99.432346 
L -121.001296 104.116959 
L -130.50298 106.216428 
z
" clip-path="url(#pf36f443b48)" style="fill: #e8edf4; stroke: #b8c5d4; stroke-width: 0.45"/>
    <path d="M 303.36 331.072 
L 308.928 325.792 
L 308.544 318.208 
L 319.584 315.712 
L 323.616 316.384 
L 322.848 330.688 
L 306.816 332.8 
z
" clip-path="url(#pf36f443b48)" style="fill: #e8edf4; stroke: #b8c5d4; stroke-width: 0.45"/>
   </g>
   <g id="PathCollection_1">
    <defs>
     <path id="ma6b392fa34" d="M 0 2.12132 
C 0.562581 2.12132 1.102195 1.897805 1.5 1.5 
C 1.897805 1.102195 2.12132 0.562581 2.12132 0 
C 2.12132 -0.562581 1.897805 -1.102195 1.5 -1.5 
C 1.102195 -1.897805 0.562581 -2.12132 0 -2.12132 
C -0.562581 -2.12132 -1.102195 -1.897805 -1.5 -1.5 
C -1.897805 -1.102195 -2.12132 -0.562581 -2.12132 0 
C -2.12132 0.562581 -1.897805 1.102195 -1.5 1.5 
C -1.102195 1.897805 -0.562581 2.12132 0 2.12132 
z
" style="stroke: #ffffff; stroke-width: 0.5"/>
    </defs>
    <g clip-path="url(#pf36f443b48)">
     <use xlink:href="#ma6b392fa34" x="306.24" y="197.44" style="fill: #8aa0b7; stroke: #ffffff; stroke-width: 0.5"/>
     <use xlink:href="#ma6b392fa34" x="280" y="174.4" style="fill: #8aa0b7; stroke: #ffffff; stroke-width: 0.5"/>
     <use xlink:href="#ma6b392fa34" x="149.44" y="284.8" style="fill: #8aa0b7; stroke: #ffffff; stroke-width: 0.5"/>
     <use xlink:href="#ma6b392fa34" x="349.76" y="272" style="fill: #8aa0b7; stroke: #ffffff; stroke-width: 0.5"/>
     <use xlink:href="#ma6b392fa34" x="286.40064" y="181.12" style="fill: #8aa0b7; stroke: #ffffff; stroke-width: 0.5"/>
     <use xlink:href="#ma6b392fa34" x="182.6208" y="290.97472" style="fill: #8aa0b7; stroke: #ffffff; stroke-width: 0.5"/>
     <use xlink:href="#ma6b392fa34" x="33.6" y="59.2" style="fill: #8aa0b7; stroke: #ffffff; stroke-width: 0.5"/>
     <use xlink:href="#ma6b392fa34" x="168.192" y="291.14368" style="fill: #8aa0b7; stroke: #ffffff; stroke-width: 0.5"/>
     <use xlink:href="#ma6b392fa34" x="315.2" y="228.8" style="fill: #8aa0b7; stroke: #ffffff; stroke-width: 0.5"/>
     <use xlink:href="#ma6b392fa34" x="308.8" y="292.16" style="fill: #8aa0b7; stroke: #ffffff; stroke-width: 0.5"/>
     <use xlink:href="#ma6b392fa34" x="310.400006" y="212.8" style="fill: #8aa0b7; stroke: #ffffff; stroke-width: 0.5"/>
     <use xlink:href="#ma6b392fa34" x="102.4" y="160" style="fill: #8aa0b7; stroke: #ffffff; stroke-width: 0.5"/>
     <use xlink:href="#ma6b392fa34" x="4.8" y="174.4" style="fill: #8aa0b7; stroke: #ffffff; stroke-width: 0.5"/>
     <use xlink:href="#ma6b392fa34" x="288" y="192" style="fill: #8aa0b7; stroke: #ffffff; stroke-width: 0.5"/>
     <use xlink:href="#ma6b392fa34" x="322.24" y="258.24" style="fill: #8aa0b7; stroke: #ffffff; stroke-width: 0.5"/>
     <use xlink:href="#ma6b392fa34" x="282.23808" y="177.84064" style="fill: #8aa0b7; stroke: #ffffff; stroke-width: 0.5"/>
     <use xlink:href="#ma6b392fa34" x="321.6" y="243.199994" style="fill: #8aa0b7; stroke: #ffffff; stroke-width: 0.5"/>
     <use xlink:href="#ma6b392fa34" x="298.56" y="203.2" style="fill: #8aa0b7; stroke: #ffffff; stroke-width: 0.5"/>
     <use xlink:href="#ma6b392fa34" x="216" y="174.4" style="fill: #8aa0b7; stroke: #ffffff; stroke-width: 0.5"/>
     <use xlink:href="#ma6b392fa34" x="282.14784" y="178.384" style="fill: #8aa0b7; stroke: #ffffff; stroke-width: 0.5"/>
     <use xlink:href="#ma6b392fa34" x="114.28032" y="108.2752" style="fill: #8aa0b7; stroke: #ffffff; stroke-width: 0.5"/>
     <use xlink:href="#ma6b392fa34" x="321.6" y="313.6" style="fill: #8aa0b7; stroke: #ffffff; stroke-width: 0.5"/>
     <use xlink:href="#ma6b392fa34" x="317.76" y="270.4" style="fill: #8aa0b7; stroke: #ffffff; stroke-width: 0.5"/>
     <use xlink:href="#ma6b392fa34" x="251.712" y="171.12256" style="fill: #8aa0b7; stroke: #ffffff; stroke-width: 0.5"/>
     <use xlink:href="#ma6b392fa34" x="246.79104" y="172.75264" style="fill: #8aa0b7; stroke: #ffffff; stroke-width: 0.5"/>
    </g>
   </g>
   <g id="PathCollection_2">
    <defs>
     <path id="m02e70a00cd" d="M 0 3.674235 
C 0.974418 3.674235 1.909058 3.287094 2.598076 2.598076 
C 3.287094 1.909058 3.674235 0.974418 3.674235 0 
C 3.674235 -0.974418 3.287094 -1.909058 2.598076 -2.598076 
C 1.909058 -3.287094 0.974418 -3.674235 0 -3.674235 
C -0.974418 -3.674235 -1.909058 -3.287094 -2.598076 -2.598076 
C -3.287094 -1.909058 -3.674235 -0.974418 -3.674235 0 
C -3.674235 0.974418 -3.287094 1.909058 -2.598076 2.598076 
C -1.909058 3.287094 -0.974418 3.674235 0 3.674235 
z
" style="stroke: #ffffff; stroke-width: 1.2"/>
    </defs>
    <g clip-path="url(#pf36f443b48)">
     <use xlink:href="#m02e70a00cd" x="288" y="192" style="fill: #f97316; stroke: #ffffff; stroke-width: 1.2"/>
    </g>
   </g>
   <g id="PathCollection_3">
    <path d="M 288 196.929503 
C 289.307319 196.929503 290.561271 196.410099 291.485685 195.485685 
C 292.410099 194.561271 292.929503 193.307319 292.929503 192 
C 292.929503 190.692681 292.410099 189.438729 291.485685 188.514315 
C 290.561271 187.589901 289.307319 187.070497 288 187.070497 
C 286.692681 187.070497 285.438729 187.589901 284.514315 188.514315 
C 283.589901 189.438729 283.070497 190.692681 283.070497 192 
C 283.070497 193.307319 283.589901 194.561271 284.514315 195.485685 
C 285.438729 196.410099 286.692681 196.929503 288 196.929503 
L 288 196.929503 
z
" clip-path="url(#pf36f443b48)" style="fill: none; stroke: #7c2d12; stroke-width: 1.1"/>
   </g>
  </g>
 </g>
 <defs>
  <clipPath id="pf36f443b48">
   <rect x="0" y="-0" width="576" height="384"/>
  </clipPath>
 </defs>
</svg>
