<?xml version="1.0" encoding="utf-8" standalone="no"?>
<!DOCTYPE svg PUBLIC "-//W3C//DTD SVG 1.1//EN"
  "http://www.w3.org/Graphics/SVG/1.1/DTD/svg11.dtd">
<svg xmlns:xlink="http://www.w3.org/1999/xlink" width="576pt" height="422.4pt" viewBox="0 0 576 422.4" xmlns="http://www.w3.org/2000/svg" version="1.1">
 <metadata>
  <rdf:RDF xmlns:dc="http://purl.org/dc/elements/1.1/" xmlns:cc="http://creativecommons.org/ns#" xmlns:rdf="http://www.w3.org/1999/02/22-rdf-syntax-ns#">
   <cc:Work>
    <dc:type rdf:resource="http://purl.org/dc/dcmitype/StillImage"/>
    <dc:date>2026-06-09T04:56:56.602298</dc:date>
    <dc:format>image/svg+xml</dc:format>
    <dc:creator>
     <cc:Agent>
      <dc:title>Matplotlib v3.10.8, https://matplotlib.org/</dc:title>
     </cc:Agent>
    </dc:creator>
   </cc:Work>
  </rdf:RDF>
 </metadata>
 <defs>
  <style type="text/css">*{stroke-linejoin: round; stroke-linecap: butt}</style>
 </defs>
 <g id="figure_1">
  <g id="patch_1">
   <path d="M 0 422.4 
L 576 422.4 
L 576 0 
L 0 0 
z
" style="fill: #eaf3ff"/>
  </g>
  <g id="axes_1">
   <g id="PatchCollection_1">
    <path d="M 555.933149 16.489056 
L 564.160368 10.395537 
L 558.46688 -7.511744 
L 572.128626 -18.575842 
L 569.237504 -21.927104 
L 591.05984 -32.53856 
L 570.944 -41.667584 
L 629.887829 -77.267701 
L 637.108969 -87.0596 
L 608.688751 -100.214022 
L 616.537946 -112.725506 
L 599.253048 -127.014494 
L 612.17888 -143.474816 
L 589.848102 -165.330295 
L 607.566587 -179.807303 
L 578.162118 -192.600569 
L 580.965048 -206.043717 
L 596.47136 -207.812864 
L 629.140736 -215.515712 
L 648.948224 -222.19424 
L 680.489024 -210.587264 
L 733.068032 -206.017664 
L 805.612928 -184.30208 
L 820.349504 -175.176896 
L 821.61824 -162.398336 
L 800.303936 -152.310656 
L 768.95264 -147.190976 
L 683.239232 -161.784512 
L 669.141248 -159.344576 
L 700.443584 -145.28288 
L 702.923072 -116.755904 
L 742.644416 -105.916736 
L 745.125824 -115.226432 
L 733.559918 -123.477632 
L 745.779968 -130.749824 
L 792.19424 -118.799168 
L 808.36352 -123.477632 
L 795.44192 -137.538944 
L 840.187328 -156.343616 
L 857.907968 -155.236736 
L 875.8352 -148.526336 
L 887.019392 -161.721728 
L 871.009088 -173.16704 
L 880.40864 -184.649792 
L 866.294144 -196.559168 
L 920 -190.4 
L 930.969728 -179.647424 
L 906.659264 -177.277184 
L 906.790784 -166.59296 
L 921.90368 -160.019264 
L 951.567872 -164.18336 
L 956.264192 -176.429696 
L 1063.374656 -202.061696 
L 1077.856832 -201.11648 
L 1058.927744 -189.465152 
L 1082.744576 -187.462784 
L 1096.499456 -194.022272 
L 1132.486784 -194.552576 
L 1160.9984 -202.511744 
L 1182.875264 -190.946048 
L 1204.694528 -203.661248 
L 1184.576 -214.784 
L 1194.56 -221.12 
L 1251.2768 -215.309888 
L 1277.851808 -209.308832 
L 1347.433472 -187.372736 
L 1360.269056 -197.420096 
L 1340.757248 -207.571712 
L 1340.196224 -211.644608 
L 1317.057536 -213.528512 
L 1323.387392 -222.631616 
L 1313.118464 -237.610688 
L 1312.537472 -243.756224 
L 1347.969152 -261.1424 
L 1360.570112 -278.592512 
L 1374.848 -282.368 
L 1425.680768 -277.304768 
L 1429.683776 -266.625152 
L 1411.483712 -251.052416 
L 1423.426112 -244.931648 
L 1429.604096 -231.509888 
L 1425.24224 -205.20032 
L 1446.423104 -193.43168 
L 1438.18304 -180.61568 
L 1400.576 -153.344 
L 1422.521792 -150.515264 
L 1430.158784 -157.427264 
L 1451.283008 -162.357632 
L 1456.380992 -171.858368 
L 1472.9984 -181.001024 
L 1461.809792 -191.916608 
L 1470.768128 -204.592256 
L 1449.773312 -206.172032 
L 1445.155904 -216.850496 
L 1460.47616 -236.1296 
L 1435.54112 -251.785664 
L 1469.903744 -264.726848 
L 1465.457792 -278.379584 
L 1475.033792 -278.815424 
L 1485.123392 -268.170752 
L 1477.548416 -249.642752 
L 1498.094912 -246.135104 
L 1489.340096 -259.980992 
L 1521.47168 -267.529664 
L 1561.318784 -268.546112 
L 1596.8 -257.6 
L 1579.725632 -273.59072 
L 1577.812928 -294.04544 
L 1611.2 -297.92 
L 1657.380992 -297.073472 
L 1698.98816 -299.588096 
L 1683.383552 -309.625664 
L 1705.602944 -322.235456 
L 1727.661632 -322.763456 
L 1764.992 -332.288 
L 1815.691136 -334.847936 
L 1822.096832 -340.10624 
L 1872.512 -341.888 
L 1888.221632 -337.577216 
L 1931.312768 -347.780288 
L 1966.585664 -347.461376 
L 1971.878144 -355.748288 
L 1990.224128 -363.920768 
L 2035.55072 -371.800064 
L 2068.479488 -365.578688 
L 2042.336 -360.84608 
L 2085.826496 -357.904448 
L 2091.008 -348.416 
L 2108.55296 -353.08832 
L 2164.683392 -352.832 
L 2207.964992 -343.467008 
L 2223.376064 -336.274688 
L 2218.599488 -326.293568 
L 2146.904 -309.953216 
L 2132.48 -304.256 
L 2184.688448 -296.724608 
L 2201.975168 -300.357056 
L 2211.767936 -288.03296 
L 2220.201152 -293.021696 
L 2250.902144 -296.05472 
L 2312.505536 -292.884224 
L 2317.184 -283.904 
L 2397.452672 -281.047424 
L 2398.549184 -295.712576 
L 2439.296 -292.352 
L 2469.947648 -292.457408 
L 2500.952192 -282.343232 
L 2509.790144 -270.055424 
L 2498.432 -262.016 
L 2522.547008 -246.906368 
L 2552.740736 -239.110208 
L 2571.2672 -259.25696 
L 2602.067072 -250.619264 
L 2634.789056 -255.7808 
L 2671.95296 -249.874496 
L 2686.094528 -255.258176 
L 2717.500736 -252.566336 
L 2703.639872 -270.390848 
L 2728.988864 -278.708672 
L 2902.4 -266.24 
L 2918.742656 -254.843456 
L 2969.00288 -240.170624 
L 3046.532096 -243.803072 
L 3084.757568 -240.641024 
L 3100.741952 -232.702208 
L 3098.406272 -218.662016 
L 3122.058176 -213.195776 
L 3147.758144 -217.127168 
L 3181.807616 -217.630016 
L 3218.055104 -213.862208 
L 3254.444864 -215.987648 
L 3287.890496 -198.92096 
L 3311.684096 -205.061696 
L 3296.15744 -217.332992 
L 3304.70624 -225.862976 
L 3365.963072 -220.494656 
L 3405.901376 -221.6432 
L 3461.12 -212.48 
L 3488 -204.101818 
L 3488 -127.610407 
L 3463.17824 -119.070656 
L 3438.296576 -120.477632 
L 3455.6096 -110.257856 
L 3467.0384 -94.437824 
L 3475.910528 -89.266304 
L 3478.138112 -81.323648 
L 3473.1824 -76.23872 
L 3437.39456 -80.42048 
L 3383.730368 -65.96768 
L 3366.658496 -63.730112 
L 3309.4112 -38.454656 
L 3302.35232 -29.729984 
L 3274.888832 -43.01216 
L 3224.863616 -27.94016 
L 3216.128 -35.072 
L 3197.633408 -26.84672 
L 3171.954368 -29.479232 
L 3165.768512 -16.851392 
L 3142.732736 1.729024 
L 3143.417024 9.488896 
L 3165.284672 13.791424 
L 3162.712448 41.742592 
L 3144.887936 42.453952 
L 3136.668032 58.514944 
L 3144.655808 66.781312 
L 3111.080384 76.588864 
L 3104.417216 98.510656 
L 3075.794048 103.193344 
L 3070.038656 122.700352 
L 3042.363968 140.58784 
L 3035.264 127.36 
L 3016.326272 56.684224 
L 3025.556864 30.055936 
L 3041.75648 18.59776 
L 3042.75872 9.624832 
L 3072.595136 5.3296 
L 3106.892288 -18.843584 
L 3139.943168 -38.5856 
L 3174.458048 -53.90528 
L 3189.89216 -80.971712 
L 3166.561664 -79.352384 
L 3155.031872 -63.536 
L 3106.332416 -42.449216 
L 3090.604544 -66.060032 
L 3041.037056 -59.540864 
L 2992.986752 -27.357056 
L 3008.84 -15.58304 
L 2936.302016 -8.593088 
L 2937.69248 -22.476032 
L 2907.847232 -25.390016 
L 2884.060352 -15.958016 
L 2825.354624 -19.258304 
L 2762.198144 -13.567616 
L 2626.422848 69.191872 
L 2656.672832 71.61184 
L 2666.113664 83.635456 
L 2684.76224 87.903808 
L 2697.048896 78.31264 
L 2718.108992 79.558144 
L 2745.829952 100.680256 
L 2746.481216 117.015616 
L 2731.470464 136.198336 
L 2729.851136 159.125824 
L 2721.189056 189.823168 
L 2692.250624 217.60672 
L 2685.818432 230.88736 
L 2621.492288 286.754368 
L 2595.907904 298.019776 
L 2583.800384 298.268992 
L 2571.738944 288.936448 
L 2545.968704 302.987392 
L 2542.976 309.376 
L 2540.288 306.016 
L 2540.170235 296.262119 
L 2549.978009 295.744197 
L 2552.740259 273.058822 
L 2547.683648 256.615168 
L 2564.162321 249.833697 
L 2587.464704 253.233472 
L 2600.377165 234.555002 
L 2606.95712 213.520384 
L 2614.415552 206.49376 
L 2624.50518 189.217986 
L 2592.77304 194.87792 
L 2576.128448 202.451968 
L 2546.955392 202.429504 
L 2539.180032 184.390002 
L 2516.438102 170.740478 
L 2483.02208 164.602816 
L 2475.919149 145.795892 
L 2450.169899 106.378267 
L 2433.309657 99.307939 
L 2404.572224 93.59104 
L 2379.11836 94.110861 
L 2355.259227 97.573099 
L 2339.400102 107.125385 
L 2349.935149 111.688455 
L 2350.17344 122.289088 
L 2339.495936 128.44384 
L 2322.164288 148.807936 
L 2322.338446 157.25665 
L 2295.281493 169.389119 
L 2272.232977 162.140197 
L 2249.325352 163.740596 
L 2239.272509 157.307252 
L 2227.759165 155.232588 
L 2199.636602 168.763545 
L 2174.359634 171.94301 
L 2156.710602 176.701541 
L 2132.527024 173.575158 
L 2114.723212 173.775084 
L 2103.068977 163.960861 
L 2084.26504 154.733517 
L 2065.022555 152.204431 
L 2022.589673 158.27265 
L 1995.313088 150.197248 
L 1991.652032 135.809728 
L 1951.649259 128.62708 
L 1930.140618 120.690572 
L 1910.254204 140.588892 
L 1918.049821 151.889908 
L 1899.387392 165.25984 
L 1871.629184 160.432768 
L 1852.466227 159.74208 
L 1839.633274 150.773697 
L 1819.600832 150.490432 
L 1802.906462 144.598322 
L 1773.702415 153.629213 
L 1737.066884 170.166002 
L 1709.31143 175.072369 
L 1699.123649 163.327846 
L 1674.392384 165.897115 
L 1666.218743 157.747783 
L 1652.794446 154.021127 
L 1643.554204 142.926486 
L 1632.953673 139.471689 
L 1605.362923 144.405838 
L 1578.91418 133.343939 
L 1568.682743 143.396783 
L 1525.777579 94.635232 
L 1501.283446 79.801533 
L 1508.309126 73.781931 
L 1460.188544 91.90048 
L 1441.773032 92.995642 
L 1443.363509 82.516158 
L 1418.70368 75.968217 
L 1398.658516 80.640924 
L 1392.613118 60.741115 
L 1358.108805 56.603197 
L 1340.846727 64.568478 
L 1292.803904 71.656 
L 1283.427844 76.398826 
L 1211.58272 83.08 
L 1202.778876 89.632127 
L 1216.639735 102.784068 
L 1198.207868 107.77626 
L 1201.803555 113.007072 
L 1183.376649 122.359928 
L 1214.489665 135.564951 
L 1209.678548 144.657853 
L 1182.709899 143.829873 
L 1177.131821 149.52751 
L 1152.575744 139.578112 
L 1122.137216 139.96384 
L 1101.765248 148.063168 
L 1036.711493 127.001877 
L 1006.719649 127.498963 
L 967.085727 148.381533 
L 964.694555 162.404615 
L 944.950024 151.269791 
L 929.630649 172.364689 
L 935.238493 176.280853 
L 924.155759 190.832275 
L 940.452608 203.85568 
L 954.6992 203.319616 
L 966.938884 216.147939 
L 964.9904 226.028032 
L 974.742272 229.132864 
L 965.991872 240.519232 
L 947.377472 243.683392 
L 928.294592 263.50336 
L 945.746048 281.724928 
L 943.856384 294.657664 
L 964.819904 317.269504 
L 953.355837 325.008271 
L 950.060782 329.89281 
L 941.567657 328.581138 
L 928.372555 316.918967 
L 910.90688 311.825152 
L 905.02936 303.946611 
L 887.12236 299.92974 
L 875.479232 302.944768 
L 872.115008 299.376064 
L 845.97248 290.17024 
L 801.477727 283.7804 
L 799.136165 286.048045 
L 774.656 269.824 
L 752.751104 262.581568 
L 736.168832 251.301952 
L 750.140864 248.233408 
L 766.07264 232.175296 
L 755.335424 224.577856 
L 783.635264 216.7408 
L 783.12704 212.543488 
L 765.89193 215.637955 
L 766.498157 207.109111 
L 776.394944 201.748096 
L 794.97493 200.340408 
L 797.995904 193.937728 
L 793.75328 183.350656 
L 801.551149 173.297346 
L 801.325568 167.65984 
L 773.023774 161.411931 
L 761.804118 161.619299 
L 749.954423 152.628096 
L 735.222423 155.668654 
L 710.83743 148.91781 
L 711.255872 145.140352 
L 704.425915 136.814611 
L 689.116462 135.884931 
L 687.525985 129.924861 
L 692.321227 126.037471 
L 680.051837 115.166568 
L 660.142602 117.021463 
L 654.311516 116.057056 
L 649.461248 120.424 
L 642.290624 119.647744 
L 637.568352 107.352596 
L 633.059852 100.979279 
L 636.754688 99.185344 
L 652.246774 99.851658 
L 659.717946 95.652721 
L 654.187493 90.533529 
L 641.240438 87.154635 
L 642.395344 83.686939 
L 634.581868 80.184517 
L 622.544649 67.613998 
L 626.659251 62.434283 
L 624.779055 53.421252 
L 606.008852 48.842306 
L 595.93418 51.13426 
L 593.206657 46.367791 
L 572.992821 41.552705 
L 566.821415 30.220931 
L 565.184305 20.910244 
z
" clip-path="url(#pdc9402d9ed)" style="fill: #e8edf4; stroke: #b8c5d4; stroke-width: 0.45"/>
    <path d="M 1019.950469 -262.685717 
L 1039.582884 -266.805279 
L 1038.92804 -277.274842 
L 1077.01018 -293.648912 
L 1059.359165 -295.996428 
L 1105.327212 -312.84774 
L 1100.13311 -321.563115 
L 1143.077962 -331.700295 
L 1206.464852 -344.036162 
L 1270.368673 -347.629865 
L 1303.250759 -354.747819 
L 1340.615548 -357.242178 
L 1353.962454 -349.660377 
L 1341.066993 -343.68592 
L 1214.403344 -325.008983 
L 1154.759977 -306.733881 
L 1096.051251 -269.528338 
L 1099.958485 -253.57942 
L 1136.685298 -237.832908 
L 1125.343602 -236.14867 
L 1062.605602 -238.643029 
L 1057.510719 -247.167904 
L 1022.756376 -252.315373 
z
" clip-path="url(#pdc9402d9ed)" style="fill: #e8edf4; stroke: #b8c5d4; stroke-width: 0.45"/>
    <path d="M -3424 -127.610407 
L -3424 -204.101818 
L -3376.96 -189.44 
L -3326.6224 -170.353088 
L -3328.2736 -158.41952 
L -3315.324736 -153.642752 
L -3319.778944 -167.594048 
L -3267.660352 -164.731136 
L -3230.071936 -146.763008 
L -3249.108544 -138.394688 
L -3280.5808 -136.407872 
L -3281.056 -117.647168 
L -3288.742336 -113.651648 
L -3306.723328 -114.22592 
L -3321.355264 -120.92 
L -3346.883776 -126.519296 
L -3351.177472 -134.848064 
L -3370.675072 -137.988608 
L -3392.510656 -135.497984 
L -3402.943744 -142.216448 
L -3398.773312 -149.352512 
L -3421.768384 -144.791552 
L -3413.107456 -135.758912 
z
" clip-path="url(#pdc9402d9ed)" style="fill: #e8edf4; stroke: #b8c5d4; stroke-width: 0.45"/>
    <path d="M 2750.606259 122.83965 
L 2752.304884 96.602244 
L 2770.053134 87.766814 
L 2762.42718 78.870861 
L 2770.971899 76.175088 
L 2782.608274 107.3774 
L 2782.117141 126.272123 
L 2790.041743 145.646072 
L 2809.359634 179.653299 
L 2780.939415 173.314213 
L 2769.12643 201.05776 
L 2787.843055 220.734822 
L 2787.301321 234.152174 
L 2772.755852 222.577314 
L 2760.166977 237.438299 
L 2756.612962 221.326166 
L 2758.754102 202.621447 
L 2756.565337 181.90358 
L 2761.00736 167.388869 
L 2761.85568 141.715025 
z
" clip-path="url(#pdc9402d9ed)" style="fill: #e8edf4; stroke: #b8c5d4; stroke-width: 0.45"/>
    <path d="M 655.120149 249.71265 
L 658.511446 246.031635 
L 676.892712 239.649885 
L 673.970971 237.339186 
L 679.029668 232.584202 
L 698.854734 237.459218 
L 701.346409 241.250897 
L 704.243052 241.835676 
L 704.399126 243.496596 
L 713.792165 248.128127 
L 733.375962 246.976197 
L 729.626485 253.82626 
L 708.607985 257.152072 
L 682.544212 268.259611 
L 671.867282 264.354361 
L 676.100946 255.3324 
z
" clip-path="url(#pdc9402d9ed)" style="fill: #e8edf4; stroke: #b8c5d4; stroke-width: 0.45"/>
    <path d="M 893.061594 -427.32435 
L 930.543462 -430.820819 
L 959.714766 -431.05299 
L 963.637876 -425.879725 
L 974.66604 -430.476529 
L 992.76354 -433.6426 
L 1021.240313 -429.434733 
L 1013.814782 -426.507779 
L 970.772696 -422.519682 
L 968.094782 -419.36899 
L 945.653485 -416.195479 
L 924.854259 -420.747139 
L 935.791141 -426.740944 
z
" clip-path="url(#pdc9402d9ed)" style="fill: #e8edf4; stroke: #b8c5d4; stroke-width: 0.45"/>
    <path d="M 1782.676544 -422.556032 
L 1832.531072 -435.67232 
L 1874.065184 -440.00768 
L 1911.36992 -430.34192 
L 1955.583776 -411.778592 
L 1950.843392 -394.514048 
L 1908.952448 -392.11904 
L 1855.473728 -397.659104 
L 1823.607296 -404.9888 
L 1808.87168 -418.760768 
z
" clip-path="url(#pdc9402d9ed)" style="fill: #e8edf4; stroke: #b8c5d4; stroke-width: 0.45"/>
    <path d="M 2661.908288 -325.024064 
L 2672.225792 -338.224064 
L 2697.55664 -341.825792 
L 2748.255008 -340.983488 
L 2817.656672 -330.8024 
L 2802.56 -316.544 
L 2731.785152 -317.075456 
L 2699.944448 -312.540416 
z
" clip-path="url(#pdc9402d9ed)" style="fill: #e8edf4; stroke: #b8c5d4; stroke-width: 0.45"/>
    <path d="M 409.48429 75.019189 
L 413.858844 66.569721 
L 440.354219 60.342752 
L 460.461891 63.706267 
L 468.949063 66.753771 
L 466.900196 72.011373 
L 468.437094 76.911291 
L 433.131094 77.199521 
z
" clip-path="url(#pdc9402d9ed)" style="fill: #e8edf4; stroke: #b8c5d4; stroke-width: 0.45"/>
    <path d="M 2717.371904 -288.700736 
L 2735.584832 -296.289152 
L 2759.591744 -298.065536 
L 2786.870336 -290.7248 
L 2789.19392 -285.678848 
L 2760.082496 -285.544448 
z
" clip-path="url(#pdc9402d9ed)" style="fill: #e8edf4; stroke: #b8c5d4; stroke-width: 0.45"/>
    <path d="M 1941.212288 -376.0832 
L 1976.28608 -401.292608 
L 1992.05792 -403.451072 
L 2006.486048 -402.200768 
L 2055.150656 -391.296128 
L 2049.449024 -383.492288 
z
" clip-path="url(#pdc9402d9ed)" style="fill: #e8edf4; stroke: #b8c5d4; stroke-width: 0.45"/>
    <path d="M -3424 -239.978225 
L -3424 -253.101715 
L -3405.267136 -253.866176 
L -3377.496544 -248.374016 
L -3379.14064 -245.749184 
L -3398.920576 -241.145984 
z
" clip-path="url(#pdc9402d9ed)" style="fill: #e8edf4; stroke: #b8c5d4; stroke-width: 0.45"/>
    <path d="M 2837.488448 -323.321216 
L 2842.082912 -329.538944 
L 2926.048064 -321.613952 
L 2903.85776 -314.027264 
L 2873.167328 -315.744416 
z
" clip-path="url(#pdc9402d9ed)" style="fill: #e8edf4; stroke: #b8c5d4; stroke-width: 0.45"/>
    <path d="M 3463.52576 -245.09696 
L 3488 -253.101715 
L 3488 -239.978225 
L 3466.94576 -238.997888 
z
" clip-path="url(#pdc9402d9ed)" style="fill: #e8edf4; stroke: #b8c5d4; stroke-width: 0.45"/>
    <path d="M 127.847899 -69.843162 
L 145.527688 -82.197881 
L 196.225493 -98.316959 
L 234.132016 -118.131936 
L 315.414001 -181.964319 
L 400.333344 -220.494928 
L 442.465594 -228.899252 
L 474.055852 -227.879779 
L 503.293634 -243.785537 
L 538.304954 -242.936225 
L 572.778509 -246.761108 
L 632.833634 -232.712725 
L 608.104352 -227.57617 
L 629.14001 -215.515541 
L 596.47136 -207.812864 
L 580.965048 -206.043717 
L 589.099001 -219.516631 
L 564.460009 -227.152506 
L 534.648743 -220.64574 
L 525.232884 -206.568584 
L 506.92504 -198.07149 
L 486.311352 -202.711951 
L 461.239766 -201.761436 
L 439.902774 -211.912506 
L 428.395384 -206.839947 
L 416.485165 -206.050662 
L 413.668344 -193.418131 
L 377.482274 -196.493912 
L 372.40029 -185.802596 
L 353.962469 -185.867584 
L 322.081501 -150.922244 
L 292.269243 -123.910932 
L 299.26218 -117.352076 
L 292.58079 -109.74299 
L 273.534759 -110.071404 
L 261.06693 -92.063697 
L 262.247634 -66.566959 
L 274.518016 -56.836576 
L 268.167024 -34.264311 
L 252.190821 -21.101951 
L 243.725477 -10.038069 
L 230.845891 -21.820295 
L 192.934407 0.384861 
L 167.335969 4.885424 
L 140.78404 -4.892584 
L 133.918102 -25.534053 
z
" clip-path="url(#pdc9402d9ed)" style="fill: #e8edf4; stroke: #b8c5d4; stroke-width: 0.45"/>
    <path d="M 232.534976 -409.325888 
L 284.878784 -416.200832 
L 295.395584 -409.479488 
L 322.742144 -409.746752 
L 330.03296 -416.308736 
L 358.22432 -416.976512 
L 445.641536 -395.957312 
L 397.325504 -388.40192 
L 386.657024 -374.272448 
L 369.812672 -370.648832 
L 360.66944 -354.740672 
L 337.53248 -353.99264 
L 296.241728 -365.70272 
L 313.655552 -372.52448 
L 284.87552 -378.078656 
L 247.468352 -394.29056 
z
" clip-path="url(#pdc9402d9ed)" style="fill: #e8edf4; stroke: #b8c5d4; stroke-width: 0.45"/>
    <path d="M 365.465891 -422.122807 
L 424.755048 -427.484588 
L 452.63254 -422.867444 
L 472.049649 -428.61717 
L 520.594407 -423.820936 
L 558.22411 -417.08299 
L 529.75329 -406.742412 
L 474.069743 -404.480225 
L 417.443618 -407.683006 
L 414.027516 -412.97335 
L 386.475462 -413.309701 
z
" clip-path="url(#pdc9402d9ed)" style="fill: #e8edf4; stroke: #b8c5d4; stroke-width: 0.45"/>
    <path d="M 429.939392 -371.399168 
L 443.189312 -376.352768 
L 431.58848 -382.488896 
L 471.377792 -386.334848 
L 479.001728 -379.127168 
L 506.703104 -374.79392 
L 463.814144 -366.942656 
z
" clip-path="url(#pdc9402d9ed)" style="fill: #e8edf4; stroke: #b8c5d4; stroke-width: 0.45"/>
    <path d="M -56.173116 185.264119 
L -31.279628 181.087506 
L 0.962993 186.027111 
L -5.123085 164.294236 
L 13.002196 172.530385 
L 57.704212 157.558275 
L 63.468821 141.825158 
L 80.260602 137.948681 
L 83.041704 144.700517 
L 91.96643 145.017025 
L 114.291641 161.776064 
L 124.145055 160.280838 
L 145.236977 170.700791 
L 150.777352 170.294986 
L 159.838009 175.3224 
L 187.506149 178.858556 
L 177.798587 192.006033 
L 175.361774 205.684826 
L 170.090282 208.964502 
L 161.342165 207.197416 
L 161.959305 212.076002 
L 147.917868 222.865049 
L 147.634102 231.558596 
L 156.801915 228.550283 
L 163.396985 236.969986 
L 162.605219 242.395267 
L 168.255727 249.604502 
L 161.599141 255.452455 
L 166.545196 270.308478 
L 176.952251 272.744299 
L 174.755548 281.078178 
L 157.361509 291.925267 
L 119.49368 286.726701 
L 91.527884 292.95615 
L 89.33118 304.518111 
L 67.07443 307.007013 
L 45.47054 298.3219 
L 38.490501 302.472717 
L 3.146798 293.746924 
L -4.505945 286.282201 
L 5.422876 274.765881 
L 9.079087 236.51358 
L -10.733906 216.364236 
L -24.894902 206.649728 
L -54.237855 199.264877 
z
" clip-path="url(#pdc9402d9ed)" style="fill: #e8edf4; stroke: #b8c5d4; stroke-width: 0.45"/>
    <path d="M -1014.875281 1075.612502 
L -1009.978339 1067.53808 
L -1004.933066 1050.495275 
L -1012.47121 1039.117861 
L -1013.989753 1025.982291 
L -1003.994456 1009.474275 
L -983.337113 1016.130861 
L -963.008183 1032.337252 
L -959.82971 1040.200338 
L -971.187281 1057.770986 
L -977.083355 1071.909658 
L -984.441417 1079.202732 
L -993.634531 1080.574928 
L -996.252913 1075.169986 
L -1000.547597 1074.367306 
L -1006.4908 1079.573314 
z
" clip-path="url(#pdc9402d9ed)" style="fill: #e8edf4; stroke: #b8c5d4; stroke-width: 0.45"/>
    <path d="M 196.048884 308.674881 
L 199.923376 301.54006 
L 212.288016 294.208291 
L 215.552313 310.672154 
L 209.211243 325.503869 
L 200.493884 321.59465 
z
" clip-path="url(#pdc9402d9ed)" style="fill: #e8edf4; stroke: #b8c5d4; stroke-width: 0.45"/>
    <path d="M 176.470048 465.330373 
L 188.306844 454.621197 
L 192.826259 438.786381 
L 189.782227 420.483002 
L 193.682516 410.628596 
L 214.591876 402.880107 
L 228.032048 405.183967 
L 227.468485 414.898474 
L 243.754251 407.831619 
L 245.120493 411.520076 
L 235.520087 420.927998 
L 235.391102 429.809068 
L 242.038759 434.579506 
L 239.510665 451.196662 
L 226.87218 460.849158 
L 230.521446 471.31376 
L 240.451259 471.640189 
L 245.283212 480.767818 
L 252.584719 483.769681 
L 251.499266 498.51706 
L 242.139962 504.029158 
L 236.228509 510.180721 
L 223.044321 517.579463 
L 225.086243 525.532838 
L 223.424329 533.644963 
L 214.057087 538.094924 
L 205.867571 503.628314 
L 194.030774 495.87933 
L 193.865079 491.231924 
L 178.162719 479.792994 
z
" clip-path="url(#pdc9402d9ed)" style="fill: #e8edf4; stroke: #b8c5d4; stroke-width: 0.45"/>
    <path d="M -134.740476 594.001713 
L -134.543031 566.247252 
L -103.537171 552.078814 
L -84.36414 549.151365 
L -68.648882 543.991494 
L -61.305206 534.377197 
L -38.856468 526.778529 
L -38.03196 512.563955 
L -26.924421 510.889638 
L -18.238812 503.788553 
L 6.888337 500.552533 
L 10.408618 493.090787 
L 5.349454 489.010912 
L -1.282327 468.741513 
L -2.425327 457.063963 
L -9.662343 444.766791 
L 8.794825 434.274904 
L 29.552876 430.937681 
L 41.67443 423.01556 
L 60.164837 417.171576 
L 124.462555 412.191291 
L 134.146305 415.042838 
L 152.226938 407.475424 
L 172.743391 407.327092 
L 180.551907 411.794416 
L 193.682516 410.628596 
L 189.782227 420.483002 
L 192.826259 438.786381 
L 188.306844 454.621197 
L 176.470048 465.330373 
L 178.162719 479.792994 
L 193.865079 491.231924 
L 194.030774 495.87933 
L 205.867571 503.628314 
L 214.057087 538.094924 
L 220.26818 555.046943 
L 221.311962 563.968197 
L 217.930587 579.631861 
L 219.317665 588.385435 
L 216.877876 598.893693 
L 218.552688 610.965638 
L 210.932688 618.988963 
L 222.285298 632.983271 
L 223.006618 641.21049 
L 229.83386 651.917185 
L 238.81018 648.399385 
L 253.964852 657.320142 
L 262.390509 669.343967 
L 196.599548 705.939314 
L 141.009266 743.656826 
L 113.934454 752.218908 
L 92.636157 754.098607 
L 92.415891 741.883291 
L 71.571024 733.269119 
L 67.005969 724.272459 
z
" clip-path="url(#pdc9402d9ed)" style="fill: #e8edf4; stroke: #b8c5d4; stroke-width: 0.45"/>
    <path d="M 243.725477 -10.038069 
L 252.190821 -21.101951 
L 268.167024 -34.264311 
L 274.518016 -56.836576 
L 262.247634 -66.566959 
L 261.06693 -92.063697 
L 273.534759 -110.071404 
L 292.58079 -109.74299 
L 299.26218 -117.352076 
L 292.269243 -123.910932 
L 322.081501 -150.922244 
L 353.962469 -185.867584 
L 372.40029 -185.802596 
L 377.482274 -196.493912 
L 413.668344 -193.418131 
L 416.485165 -206.050662 
L 428.395384 -206.839947 
L 483.957884 -184.371365 
L 484.464891 -154.804178 
L 490.944868 -147.333006 
L 457.91693 -141.895819 
L 439.299524 -128.499303 
L 442.296923 -116.740889 
L 374.67736 -84.788483 
L 360.695454 -57.750381 
L 374.361844 -44.222401 
L 392.724259 -33.572756 
L 375.089118 -11.912311 
L 355.120352 -7.420678 
L 347.796024 24.810533 
L 336.891884 42.797404 
L 313.600282 40.943006 
L 302.733844 56.170603 
L 280.503884 57.054642 
L 274.40193 38.90406 
L 258.328493 17.117111 
z
" clip-path="url(#pdc9402d9ed)" style="fill: #e8edf4; stroke: #b8c5d4; stroke-width: 0.45"/>
    <path d="M 477.430282 112.250033 
L 488.944618 108.330892 
L 489.054751 100.677158 
L 483.728688 93.373666 
L 482.895251 84.880045 
L 501.453126 85.010517 
L 522.297993 77.777471 
L 526.753907 66.938318 
L 542.494962 60.790228 
L 540.691165 52.189947 
L 572.992821 41.552705 
L 593.206657 46.367791 
L 595.93418 51.13426 
L 606.008852 48.842306 
L 624.779055 53.421252 
L 626.659251 62.434283 
L 622.544649 67.613998 
L 634.581868 80.184517 
L 642.395344 83.686939 
L 641.240438 87.154635 
L 654.187493 90.533529 
L 659.717946 95.652721 
L 652.246774 99.851658 
L 636.754688 99.185344 
L 633.059852 100.979279 
L 637.568352 107.352596 
L 642.291055 119.647791 
L 625.808946 120.786814 
L 619.893524 125.002123 
L 618.658251 134.665533 
L 611.021384 132.810142 
L 593.694813 133.7299 
L 588.662438 129.240748 
L 581.458165 132.587892 
L 574.239009 129.81324 
L 559.118071 129.427775 
L 537.688805 124.820056 
L 518.293524 123.315404 
L 503.419641 123.741549 
L 492.897493 128.945076 
L 483.719759 129.693681 
L 483.353641 121.145986 
z
" clip-path="url(#pdc9402d9ed)" style="fill: #e8edf4; stroke: #b8c5d4; stroke-width: 0.45"/>
    <path d="M 456.04368 190.292525 
L 459.792165 182.552471 
L 465.116243 177.55383 
L 469.307243 178.67401 
L 464.354243 170.045947 
L 481.788962 154.076689 
L 491.316938 151.842283 
L 493.375727 146.456193 
L 483.719759 129.693681 
L 492.897493 128.945076 
L 503.419641 123.741549 
L 518.293524 123.315404 
L 537.688805 124.820056 
L 559.118071 129.427775 
L 574.239009 129.81324 
L 581.458165 132.587892 
L 588.662438 129.240748 
L 593.694813 133.7299 
L 611.021384 132.810142 
L 618.658251 134.665533 
L 619.893524 125.002123 
L 625.808946 120.786814 
L 649.461248 120.424 
L 654.311516 116.057056 
L 660.142602 117.021463 
L 680.051837 115.166568 
L 692.321227 126.037471 
L 687.525985 129.924861 
L 689.116462 135.884931 
L 704.425915 136.814611 
L 711.255872 145.140352 
L 710.83743 148.91781 
L 735.222423 155.668654 
L 749.954423 152.628096 
L 761.804118 161.619299 
L 773.023774 161.411931 
L 801.325568 167.65984 
L 801.551149 173.297346 
L 793.75328 183.350656 
L 797.995904 193.937728 
L 794.97493 200.340408 
L 776.394944 201.748096 
L 766.498157 207.109111 
L 765.89193 215.637955 
L 750.562634 217.173365 
L 737.789212 223.384955 
L 719.814743 224.397482 
L 703.276962 231.554627 
L 704.243052 241.835676 
L 701.346409 241.250897 
L 698.854734 237.459218 
L 679.029668 232.584202 
L 673.970971 237.339186 
L 671.332493 235.25251 
L 641.487493 230.399721 
L 640.165899 223.240096 
L 622.375977 225.604478 
L 615.250087 236.177724 
L 600.383149 250.368486 
L 591.674719 247.073431 
L 582.651766 250.162607 
L 574.084227 246.624963 
L 578.917173 244.539385 
L 587.527376 231.830455 
L 586.169071 228.392525 
L 590.184454 226.860588 
L 592.076555 229.518162 
L 603.391462 230.080236 
L 608.473446 228.660416 
L 604.893634 226.713744 
L 606.249954 223.852275 
L 599.545743 218.971209 
L 596.770594 210.944412 
L 589.776665 207.803642 
L 591.155805 201.297373 
L 582.48111 196.131549 
L 574.583298 195.413205 
L 560.432719 189.431306 
L 547.670212 191.330353 
L 543.091266 194.162056 
L 534.991048 194.15908 
L 530.162071 198.646744 
L 515.988673 200.491717 
L 509.43329 203.439506 
L 500.519477 198.747947 
L 488.210399 198.67651 
L 476.330938 196.550252 
L 468.042204 200.661877 
L 466.703743 195.5154 
z
" clip-path="url(#pdc9402d9ed)" style="fill: #e8edf4; stroke: #b8c5d4; stroke-width: 0.45"/>
    <path d="M 302.230805 102.75976 
L 307.583657 97.635111 
L 303.097977 87.865041 
L 316.215688 82.226439 
L 370.358368 66.85051 
L 389.520485 70.093971 
L 390.968087 74.776599 
L 433.131094 77.199521 
L 468.437094 76.911291 
L 478.284555 78.965119 
L 482.895251 84.880045 
L 483.728688 93.373666 
L 489.054751 100.677158 
L 488.944618 108.330892 
L 477.430282 112.250033 
L 483.353641 121.145986 
L 483.719759 129.693681 
L 493.375727 146.456193 
L 491.316938 151.842283 
L 481.788962 154.076689 
L 464.354243 170.045947 
L 469.307243 178.67401 
L 446.869915 170.173939 
L 433.048743 172.887572 
L 423.984118 170.916096 
L 412.640438 175.031193 
L 402.95768 168.225779 
L 395.063837 170.83176 
L 385.143946 160.21833 
L 370.869344 159.058463 
L 369.047688 153.046799 
L 355.880368 150.899705 
L 353.013938 155.857666 
L 342.584063 151.885939 
L 343.781634 146.603533 
L 329.426665 144.933185 
L 320.326321 138.751857 
L 312.45629 126.492388 
L 313.952509 119.87301 
L 309.201915 109.602877 
z
" clip-path="url(#pdc9402d9ed)" style="fill: #e8edf4; stroke: #b8c5d4; stroke-width: 0.45"/>
    <path d="M 214.015415 215.626049 
L 216.95229 210.926056 
L 216.209141 207.518885 
L 222.004509 206.460221 
L 231.720009 211.792236 
L 234.454477 206.725135 
L 251.387149 207.543689 
L 265.114063 204.100799 
L 274.318587 204.690158 
L 280.306438 208.621205 
L 282.096344 205.358396 
L 279.374774 192.8484 
L 286.272462 190.410596 
L 293.042157 181.558299 
L 307.306837 187.738138 
L 318.10779 179.883486 
L 324.865579 178.449775 
L 339.769227 184.309138 
L 348.786227 183.312486 
L 357.637532 186.937939 
L 356.095673 189.375744 
L 358.009602 196.028857 
L 356.552079 203.87458 
L 345.739219 203.912283 
L 349.457938 208.073517 
L 343.084126 220.434189 
L 339.423946 223.674674 
L 322.632165 224.152908 
L 312.943454 228.509107 
L 269.628516 222.062865 
L 265.33929 215.384451 
L 246.364696 218.721674 
L 244.132274 222.373916 
L 222.703009 219.122021 
z
" clip-path="url(#pdc9402d9ed)" style="fill: #e8edf4; stroke: #b8c5d4; stroke-width: 0.45"/>
    <path d="M 343.084126 220.434189 
L 349.457938 208.073517 
L 345.739219 203.912283 
L 356.552079 203.87458 
L 358.009602 196.028857 
L 374.856946 203.038166 
L 390.973048 200.685689 
L 392.518876 196.830049 
L 420.589844 192.110709 
L 425.092391 187.593279 
L 431.384844 186.422002 
L 451.946938 192.25656 
L 456.04368 190.292525 
L 466.703743 195.5154 
L 468.042204 200.661877 
L 456.31554 204.689166 
L 447.229087 217.710635 
L 435.621485 230.731111 
L 420.227696 234.352596 
L 408.244055 233.502787 
L 386.356399 241.417963 
L 370.497274 237.726033 
L 350.044321 227.127982 
L 346.313696 220.646517 
z
" clip-path="url(#pdc9402d9ed)" style="fill: #e8edf4; stroke: #b8c5d4; stroke-width: 0.45"/>
    <path d="M 543.091266 194.162056 
L 547.670212 191.330353 
L 560.432719 189.431306 
L 574.583298 195.413205 
L 582.48111 196.131549 
L 591.155805 201.297373 
L 589.776665 207.803642 
L 596.770594 210.944412 
L 599.545743 218.971209 
L 606.249954 223.852275 
L 604.893634 226.713744 
L 608.473446 228.660416 
L 603.391462 230.080236 
L 592.076555 229.518162 
L 590.184454 226.860588 
L 586.169071 228.392525 
L 587.527376 231.830455 
L 578.917173 244.539385 
L 574.084227 246.624963 
L 570.645305 237.863947 
L 572.672344 229.665998 
L 572.05818 221.238853 
L 548.94418 196.033322 
z
" clip-path="url(#pdc9402d9ed)" style="fill: #e8edf4; stroke: #b8c5d4; stroke-width: 0.45"/>
    <path d="M 420.227696 234.352596 
L 435.621485 230.731111 
L 447.229087 217.710635 
L 456.31554 204.689166 
L 476.330938 196.550252 
L 488.210399 198.67651 
L 500.519477 198.747947 
L 509.43329 203.439506 
L 515.988673 200.491717 
L 530.162071 198.646744 
L 534.991048 194.15908 
L 543.091266 194.162056 
L 548.94418 196.033322 
L 572.05818 221.238853 
L 572.672344 229.665998 
L 570.645305 237.863947 
L 574.084227 246.624963 
L 582.651766 250.162607 
L 591.674719 247.073431 
L 600.383149 250.368486 
L 600.829634 255.320494 
L 591.518946 259.451963 
L 585.686868 257.653623 
L 580.315165 280.816736 
L 569.026055 278.800611 
L 555.054071 271.821068 
L 532.451048 276.28492 
L 522.930016 281.181861 
L 494.73304 280.171814 
L 479.980204 277.177392 
L 472.540782 278.583322 
L 463.500962 267.34283 
L 467.94993 264.102346 
L 463.213227 261.71167 
L 457.185688 266.014291 
L 445.990837 260.436213 
L 444.483704 252.521533 
L 432.786805 248.005592 
L 430.633759 241.896197 
z
" clip-path="url(#pdc9402d9ed)" style="fill: #e8edf4; stroke: #b8c5d4; stroke-width: 0.45"/>
    <path d="M 436.271368 44.203334 
L 458.262212 38.314205 
L 490.462665 39.54551 
L 509.325141 37.647455 
L 512.017938 41.64101 
L 522.234493 42.874299 
L 540.691165 52.189947 
L 542.494962 60.790228 
L 526.753907 66.938318 
L 522.297993 77.777471 
L 501.453126 85.010517 
L 482.895251 84.880045 
L 478.284555 78.965119 
L 468.437094 76.911291 
L 466.900196 72.011373 
L 468.949063 66.753771 
L 460.461891 63.706267 
L 440.354219 60.342752 
z
" clip-path="url(#pdc9402d9ed)" style="fill: #e8edf4; stroke: #b8c5d4; stroke-width: 0.45"/>
    <path d="M 436.271368 44.203334 
L 436.936134 29.749642 
L 446.371837 17.692084 
L 464.467352 11.135213 
L 479.714298 25.48026 
L 495.118009 25.106701 
L 498.806962 10.366267 
L 515.160196 6.972986 
L 540.099821 16.453338 
L 555.933149 16.489056 
L 565.184305 20.910244 
L 566.821415 30.220931 
L 572.992821 41.552705 
L 540.691165 52.189947 
L 522.234493 42.874299 
L 512.017938 41.64101 
L 509.325141 37.647455 
L 490.462665 39.54551 
L 458.262212 38.314205 
z
" clip-path="url(#pdc9402d9ed)" style="fill: #e8edf4; stroke: #b8c5d4; stroke-width: 0.45"/>
    <path d="M 480.124071 -16.395014 
L 504.400915 -21.744393 
L 528.59243 -24.532936 
L 549.423407 -21.359424 
L 569.237636 -21.927168 
L 572.128626 -18.575842 
L 558.46688 -7.511744 
L 564.160368 10.395537 
L 555.933149 16.489056 
L 540.099821 16.453338 
L 515.160196 6.972986 
L 498.806962 10.366267 
L 501.035415 -0.961537 
L 493.975009 1.458408 
L 481.789954 -5.364865 
z
" clip-path="url(#pdc9402d9ed)" style="fill: #e8edf4; stroke: #b8c5d4; stroke-width: 0.45"/>
    <path d="M 146.982235 124.448978 
L 158.516415 124.441041 
L 163.383094 117.213947 
L 168.167423 99.634369 
L 164.57868 93.142486 
L 168.328157 89.076502 
L 184.375798 88.032721 
L 187.936759 92.266385 
L 200.974102 82.800916 
L 196.584665 75.603588 
L 195.703602 64.715322 
L 210.215337 67.247385 
L 222.500602 64.3244 
L 222.83993 71.744474 
L 242.242157 76.218744 
L 242.037766 83.033088 
L 261.560048 79.427478 
L 272.354055 74.168885 
L 294.031368 81.750189 
L 303.097977 87.865041 
L 307.583657 97.635111 
L 302.230805 102.75976 
L 309.201915 109.602877 
L 313.952509 119.87301 
L 312.45629 126.492388 
L 320.326321 138.751857 
L 311.75779 140.755084 
L 306.694657 138.548459 
L 301.879571 142.203181 
L 288.092134 145.9219 
L 280.963266 150.705732 
L 267.010134 154.886314 
L 270.371665 160.592881 
L 272.403665 168.689627 
L 282.201516 173.304291 
L 293.042157 181.558299 
L 286.272462 190.410596 
L 279.374774 192.8484 
L 282.096344 205.358396 
L 280.306438 208.621205 
L 274.318587 204.690158 
L 265.114063 204.100799 
L 251.387149 207.543689 
L 234.454477 206.725135 
L 231.720009 211.792236 
L 222.004509 206.460221 
L 216.209141 207.518885 
L 195.634149 201.648111 
L 191.692188 205.819267 
L 175.361774 205.684826 
L 177.798587 192.006033 
L 187.506149 178.858556 
L 159.838009 175.3224 
L 150.777352 170.294986 
L 151.860821 161.877267 
L 148.027009 157.541408 
L 150.207837 144.568556 
z
" clip-path="url(#pdc9402d9ed)" style="fill: #e8edf4; stroke: #b8c5d4; stroke-width: 0.45"/>
    <path d="M 461.706094 307.451017 
L 464.864227 304.741849 
L 462.782618 302.457834 
L 466.012188 296.348439 
L 473.331555 290.345705 
L 464.003009 282.057963 
L 462.280571 275.045181 
L 467.017274 270.689478 
L 472.540782 278.583322 
L 479.980204 277.177392 
L 494.73304 280.171814 
L 522.930016 281.181861 
L 532.451048 276.28492 
L 555.054071 271.821068 
L 569.026055 278.800611 
L 580.315165 280.816736 
L 570.350626 288.771103 
L 563.338837 302.504467 
L 569.537032 313.458713 
L 553.006196 310.88349 
L 533.447204 316.923431 
L 533.237852 326.485142 
L 515.786266 328.297869 
L 502.258782 321.589193 
L 486.887813 326.865646 
L 472.685641 326.310517 
L 471.322376 313.613494 
z
" clip-path="url(#pdc9402d9ed)" style="fill: #e8edf4; stroke: #b8c5d4; stroke-width: 0.45"/>
    <path d="M 418.880305 359.200045 
L 427.808009 349.887869 
L 428.959938 343.648002 
L 435.199805 340.863924 
L 435.584774 335.819642 
L 448.143884 334.119529 
L 455.463251 329.922576 
L 465.868321 330.294646 
L 469.025984 326.94784 
L 486.887813 326.865646 
L 502.258782 321.589193 
L 515.786266 328.297869 
L 533.237852 326.485142 
L 533.447204 316.923431 
L 542.800555 322.0074 
L 536.85636 334.023783 
L 532.29329 336.17683 
L 510.57629 333.816416 
L 487.324376 338.807119 
L 500.633579 349.600135 
L 490.879384 352.729494 
L 480.185587 352.748842 
L 470.028563 342.860701 
L 466.424938 347.074025 
L 470.715157 358.541232 
L 480.320524 367.551783 
L 473.083509 371.758658 
L 483.776313 380.607978 
L 493.280477 386.176135 
L 493.568212 397.023721 
L 475.808055 391.935783 
L 481.471462 401.728178 
L 469.279462 403.743806 
L 476.561126 420.687888 
L 463.80854 420.927998 
L 448.064509 412.57626 
L 440.864204 397.216205 
L 437.504657 384.441791 
L 420.180071 364.667494 
z
" clip-path="url(#pdc9402d9ed)" style="fill: #e8edf4; stroke: #b8c5d4; stroke-width: 0.45"/>
    <path d="M 483.487587 442.624162 
L 487.039618 434.463916 
L 497.535969 440.933971 
L 512.480298 439.840084 
L 526.76879 441.202853 
L 526.304446 444.544045 
L 536.768055 442.240185 
L 534.367954 447.904088 
L 506.719657 449.536236 
L 506.912141 446.368181 
z
" clip-path="url(#pdc9402d9ed)" style="fill: #e8edf4; stroke: #b8c5d4; stroke-width: 0.45"/>
    <path d="M 534.479079 362.298646 
L 555.776384 343.935736 
L 585.343571 343.167783 
L 593.408071 328.576178 
L 630.00193 331.117666 
L 653.081204 318.663728 
L 675.455032 313.235967 
L 707.219915 312.827681 
L 740.73204 326.361119 
L 768.275165 333.787146 
L 790.642048 330.826955 
L 807.169907 332.537486 
L 829.838415 322.5154 
L 850.295337 321.603084 
L 868.788719 331.030849 
L 872.051032 337.788142 
L 870.203579 347.131572 
L 884.480165 351.903994 
L 892.044602 357.510349 
L 878.897126 362.979783 
L 884.89093 384.9994 
L 881.134509 390.94558 
L 891.6354 406.327611 
L 882.434274 409.570924 
L 875.691368 404.680431 
L 853.359212 402.202939 
L 845.112149 405.186447 
L 823.272118 408.172435 
L 812.926579 407.847494 
L 790.83354 415.051767 
L 775.037915 415.111795 
L 764.820368 411.49676 
L 743.681813 416.837705 
L 737.39829 413.103607 
L 736.359469 423.813775 
L 726.075446 432.226533 
L 719.016032 423.520088 
L 726.287774 416.308373 
L 714.577977 417.943498 
L 698.519423 413.525783 
L 685.316384 424.576767 
L 656.175837 426.734775 
L 640.632227 416.429916 
L 619.935196 415.784994 
L 615.509048 423.750771 
L 602.239532 426.028338 
L 583.671735 415.804838 
L 562.710782 416.150615 
L 551.336344 397.055471 
L 537.30979 386.403842 
L 546.650243 371.473404 
z
" clip-path="url(#pdc9402d9ed)" style="fill: #e8edf4; stroke: #b8c5d4; stroke-width: 0.45"/>
    <path d="M 532.032344 340.139131 
L 532.29329 336.17683 
L 536.85636 334.023783 
L 542.800555 322.0074 
L 533.447204 316.923431 
L 553.006196 310.88349 
L 569.537032 313.458713 
L 571.818071 320.840588 
L 588.578102 327.041263 
L 585.083618 331.744728 
L 562.285134 332.803392 
L 538.073774 349.081717 
z
" clip-path="url(#pdc9402d9ed)" style="fill: #e8edf4; stroke: #b8c5d4; stroke-width: 0.45"/>
    <path d="M 402.646134 309.841693 
L 410.970587 300.38565 
L 412.190977 303.998205 
L 417.35744 302.298304 
L 421.448087 307.451017 
L 426.04064 309.416896 
L 427.332751 316.37624 
L 424.892962 322.910291 
L 427.619493 331.144455 
L 435.584774 335.819642 
L 435.199805 340.863924 
L 428.959938 343.648002 
L 427.808009 349.887869 
L 418.880305 359.200045 
L 415.616009 357.856127 
L 415.232032 353.631888 
L 404.596774 347.18515 
L 402.92593 338.037181 
L 404.548157 324.936338 
L 407.168524 318.976267 
L 403.937962 315.951088 
z
" clip-path="url(#pdc9402d9ed)" style="fill: #e8edf4; stroke: #b8c5d4; stroke-width: 0.45"/>
    <path d="M 294.21393 253.370846 
L 295.329149 246.393783 
L 308.70979 247.049619 
L 312.226102 243.809135 
L 318.75668 246.943455 
L 326.291352 247.315525 
L 326.219915 241.949775 
L 332.893368 239.984252 
L 334.759673 232.228322 
L 350.044321 227.127982 
L 370.497274 237.726033 
L 386.356399 241.417963 
L 393.532636 238.549651 
L 398.197165 245.986986 
L 404.297134 251.4589 
L 396.905304 258.683498 
L 388.221712 254.433478 
L 374.946243 254.699385 
L 358.441204 251.511486 
L 349.470837 251.937135 
L 345.30861 255.920767 
L 338.419852 251.511486 
L 334.400501 259.480736 
L 347.963704 274.408197 
L 364.109571 285.83026 
L 371.358493 293.851599 
L 388.352 301.12 
L 386.240313 304.384166 
L 368.19143 297.280103 
L 357.05611 290.368029 
L 339.495384 284.661463 
L 323.349516 270.530728 
L 327.224009 269.096025 
L 318.469938 261.021107 
L 318.110766 254.539642 
L 305.767954 251.511486 
L 299.88329 259.799228 
z
" clip-path="url(#pdc9402d9ed)" style="fill: #e8edf4; stroke: #b8c5d4; stroke-width: 0.45"/>
    <path d="M 147.634102 231.558596 
L 147.917868 222.865049 
L 161.959305 212.076002 
L 161.342165 207.197416 
L 170.090282 208.964502 
L 175.361774 205.684826 
L 191.692188 205.819267 
L 195.634149 201.648111 
L 216.209141 207.518885 
L 216.95229 210.926056 
L 214.015415 215.626049 
L 222.703009 219.122021 
L 232.499868 219.643912 
L 230.97686 227.515431 
L 222.518462 230.753931 
L 208.311329 228.347877 
L 204.153071 236.090908 
L 195.007087 236.701103 
L 191.67929 233.658064 
L 180.915048 240.169791 
L 171.657938 241.082603 
L 163.396985 236.969986 
L 156.801915 228.550283 
z
" clip-path="url(#pdc9402d9ed)" style="fill: #e8edf4; stroke: #b8c5d4; stroke-width: 0.45"/>
    <path d="M 140.941798 169.033916 
L 143.022415 158.265705 
L 148.027009 157.541408 
L 151.860821 161.877267 
L 150.777352 170.294986 
L 145.236977 170.700791 
z
" clip-path="url(#pdc9402d9ed)" style="fill: #e8edf4; stroke: #b8c5d4; stroke-width: 0.45"/>
    <path d="M 80.260602 137.948681 
L 95.647446 134.161006 
L 109.703766 135.668635 
L 127.500634 131.679545 
L 139.653938 140.083869 
L 150.207837 144.568556 
L 148.027009 157.541408 
L 143.022415 158.265705 
L 140.941798 169.033916 
L 124.145055 160.280838 
L 114.291641 161.776064 
L 91.96643 145.017025 
L 83.041704 144.700517 
z
" clip-path="url(#pdc9402d9ed)" style="fill: #e8edf4; stroke: #b8c5d4; stroke-width: 0.45"/>
    <path d="M 95.647446 134.161502 
L 105.54154 128.885545 
L 122.355149 100.637471 
L 148.624305 92.600256 
L 164.57868 93.142486 
L 168.167423 99.634369 
L 163.383094 117.213947 
L 158.516415 124.441041 
L 146.982235 124.448978 
L 150.207837 144.568556 
L 139.653938 140.083869 
L 127.500634 131.679545 
L 109.703766 135.668635 
z
" clip-path="url(#pdc9402d9ed)" style="fill: #e8edf4; stroke: #b8c5d4; stroke-width: 0.45"/>
    <path d="M -148.343366 293.888806 
L -121.181241 280.031916 
L -97.686241 283.496138 
L -71.908218 283.374596 
L -51.478581 286.653775 
L -4.505945 286.282201 
L 3.146798 293.746924 
L 38.490501 302.472717 
L 45.47054 298.3219 
L 67.07443 307.007013 
L 89.33118 304.518111 
L 90.358094 315.671291 
L 72.16336 328.459099 
L 47.562071 332.517146 
L 45.849555 338.976287 
L 34.048477 349.620474 
L 26.648743 365.24842 
L 34.136782 376.220525 
L 23.031227 384.786576 
L 18.878923 397.266806 
L 4.383063 401.093178 
L -9.21189 415.856431 
L -51.882898 415.78549 
L -63.90821 422.565603 
L -71.241468 429.820478 
L -80.635499 428.227521 
L -87.744523 421.740599 
L -93.187663 410.696064 
L -111.111531 407.722478 
L -112.712425 401.365037 
L -105.596952 394.165228 
L -102.962198 388.94533 
L -109.58257 383.237275 
L -104.282304 370.622603 
L -111.973741 359.112236 
L -103.678558 357.531681 
L -102.907132 348.457135 
L -99.789183 345.64726 
L -99.541632 330.667213 
L -90.670484 325.469142 
L -96.037226 315.838971 
L -107.225132 315.167756 
L -110.512249 317.592166 
L -121.852952 317.614986 
L -126.666054 308.215002 
L -134.501359 311.013963 
L -141.468499 315.893045 
L -140.501116 302.218717 
z
" clip-path="url(#pdc9402d9ed)" style="fill: #e8edf4; stroke: #b8c5d4; stroke-width: 0.45"/>
    <path d="M 161.599141 255.452455 
L 168.255727 249.604502 
L 162.605219 242.395267 
L 163.396985 236.969986 
L 171.657938 241.082603 
L 180.915048 240.169791 
L 191.67929 233.658064 
L 195.007087 236.701103 
L 204.153071 236.090908 
L 208.311329 228.347877 
L 222.518462 230.753931 
L 230.97686 227.515431 
L 232.499868 219.643912 
L 244.132274 222.373916 
L 246.364696 218.721674 
L 265.33929 215.384451 
L 269.628516 222.062865 
L 297.084329 227.021322 
L 295.003712 236.477861 
L 299.602501 244.652494 
L 284.318844 241.855517 
L 268.708759 248.669861 
L 269.770399 258.200814 
L 267.419907 263.670744 
L 273.713352 273.445775 
L 291.716594 283.115635 
L 301.372563 298.98865 
L 322.737337 314.461318 
L 337.782868 314.342752 
L 342.462024 318.586338 
L 337.075438 322.411221 
L 368.36804 335.158846 
L 384.832399 345.172002 
L 386.820743 348.757767 
L 383.232993 355.633131 
L 372.576899 346.668717 
L 355.896243 343.509096 
L 347.815868 355.928306 
L 361.692602 363.045763 
L 359.41454 373.064873 
L 351.393696 374.203408 
L 341.138446 390.670744 
L 333.134469 392.150096 
L 333.208884 386.279818 
L 337.12604 375.981904 
L 341.29918 371.880697 
L 327.94136 351.071549 
L 319.971118 348.679385 
L 314.302751 340.392635 
L 301.964899 336.902119 
L 293.657313 329.184885 
L 279.451173 327.940681 
L 246.884602 306.775834 
L 233.829399 295.71592 
L 227.840555 276.735869 
L 218.287774 274.503447 
L 202.667766 268.166346 
L 193.828368 270.76042 
L 182.734719 279.67076 
L 174.755548 281.078178 
L 176.952251 272.744299 
L 166.545196 270.308478 
z
" clip-path="url(#pdc9402d9ed)" style="fill: #e8edf4; stroke: #b8c5d4; stroke-width: 0.45"/>
    <path d="M 270.675274 397.831361 
L 273.362118 387.973482 
L 295.830204 389.728662 
L 329.991219 385.961822 
L 323.076665 401.074326 
L 325.95004 407.022986 
L 321.919774 416.896244 
L 307.236391 409.664685 
L 297.473266 407.592998 
z
" clip-path="url(#pdc9402d9ed)" style="fill: #e8edf4; stroke: #b8c5d4; stroke-width: 0.45"/>
    <path d="M 188.671969 333.759861 
L 199.231821 334.720299 
L 208.832227 328.768166 
L 220.351524 342.39983 
L 217.654759 367.794373 
L 208.924501 366.582912 
L 201.093165 372.992939 
L 193.823407 367.900537 
L 193.054462 344.736431 
z
" clip-path="url(#pdc9402d9ed)" style="fill: #e8edf4; stroke: #b8c5d4; stroke-width: 0.45"/>
    <path d="M 187.327555 34.431775 
L 196.034001 23.487947 
L 212.949805 22.29633 
L 219.690727 16.999537 
L 235.13611 11.583681 
L 234.485235 21.457931 
L 228.800001 27.711689 
L 231.10386 33.088353 
L 241.513891 35.994471 
L 236.821837 43.237439 
L 231.10386 41.151861 
L 217.279712 54.97601 
L 222.500602 64.3244 
L 210.215337 67.247385 
L 195.703602 64.715322 
L 187.909969 54.059724 
z
" clip-path="url(#pdc9402d9ed)" style="fill: #e8edf4; stroke: #b8c5d4; stroke-width: 0.45"/>
    <path d="M 241.355141 49.024869 
L 269.52136 42.660978 
L 275.648118 52.288174 
L 264.127829 67.839721 
L 244.036032 56.994615 
z
" clip-path="url(#pdc9402d9ed)" style="fill: #e8edf4; stroke: #b8c5d4; stroke-width: 0.45"/>
    <path d="M -86.079632 29.727814 
L -79.107034 9.878111 
L -64.191976 -5.696256 
L -48.860695 -4.176225 
L -25.696093 -5.792002 
L -46.217507 14.981924 
L -26.656034 12.351635 
L -5.618187 12.451846 
L -10.623773 28.095666 
L -27.884859 45.303174 
L -8.032179 46.528029 
L 10.592173 71.20026 
L 23.734688 74.283978 
L 41.023555 103.74401 
L 64.285391 107.401213 
L 61.951766 119.680029 
L 52.170782 125.310197 
L 59.837415 135.242986 
L 42.566407 145.297814 
L 16.879665 145.120213 
L -15.807952 150.399642 
L -24.76046 146.619904 
L -37.455003 155.615572 
L -55.216152 153.436728 
L -68.704445 160.768002 
L -78.910085 156.934189 
L -50.751804 136.767978 
L -33.565132 132.620635 
L -63.699851 129.405451 
L -69.132077 121.765111 
L -49.069054 115.813971 
L -59.584257 105.471904 
L -55.935984 92.895928 
L -27.401549 94.63269 
L -24.544163 83.488006 
L -37.696105 71.391752 
L -61.008046 68.013353 
L -65.584511 62.817267 
L -58.606952 54.237326 
L -64.921234 48.947478 
L -75.258835 58.025994 
L -76.383976 39.519713 
z
" clip-path="url(#pdc9402d9ed)" style="fill: #e8edf4; stroke: #b8c5d4; stroke-width: 0.45"/>
    <path d="M -113.385624 82.048838 
L -109.427788 71.759853 
L -113.385624 61.472853 
L -97.289863 60.681088 
L -76.709413 72.551619 
L -86.99939 85.742752 
L -101.51162 81.784916 
z
" clip-path="url(#pdc9402d9ed)" style="fill: #e8edf4; stroke: #b8c5d4; stroke-width: 0.45"/>
    <path d="M 295.003712 236.477861 
L 297.084329 227.021322 
L 312.943454 228.509107 
L 322.632165 224.152908 
L 339.423946 223.674674 
L 343.084126 220.434189 
L 346.313696 220.646517 
L 350.044321 227.127982 
L 334.759673 232.228322 
L 332.893368 239.984252 
L 326.219915 241.949775 
L 326.291352 247.315525 
L 318.75668 246.943455 
L 312.226102 243.809135 
L 308.70979 247.049619 
L 295.329149 246.393783 
L 299.602501 244.652494 
z
" clip-path="url(#pdc9402d9ed)" style="fill: #e8edf4; stroke: #b8c5d4; stroke-width: 0.45"/>
    <path d="M 356.095673 189.375744 
L 360.35811 182.714197 
L 368.864134 183.039635 
L 375.420509 181.053275 
L 375.939423 179.267338 
L 379.615477 178.355517 
L 380.873571 173.986916 
L 385.279876 173.15199 
L 388.255446 169.695705 
L 393.980368 169.672388 
L 395.063837 170.83176 
L 402.95768 168.225779 
L 412.640438 175.031193 
L 423.984118 170.916096 
L 433.048743 172.887572 
L 446.869915 170.173939 
L 465.116243 177.55383 
L 459.792165 182.552471 
L 456.04368 190.292525 
L 451.946938 192.25656 
L 431.384844 186.422002 
L 425.092391 187.593279 
L 420.589844 192.110709 
L 392.518876 196.830049 
L 390.973048 200.685689 
L 374.856946 203.038166 
L 358.009602 196.028857 
z
" clip-path="url(#pdc9402d9ed)" style="fill: #e8edf4; stroke: #b8c5d4; stroke-width: 0.45"/>
    <path d="M 267.010134 154.886314 
L 280.963266 150.705732 
L 288.092134 145.9219 
L 301.879571 142.203181 
L 306.694657 138.548459 
L 311.75779 140.755084 
L 320.326321 138.751857 
L 329.426665 144.933185 
L 343.781634 146.603533 
L 342.584063 151.885939 
L 353.013938 155.857666 
L 355.880368 150.899705 
L 369.047688 153.046799 
L 370.869344 159.058463 
L 385.143946 160.21833 
L 393.980368 169.672388 
L 388.255446 169.695705 
L 385.279876 173.15199 
L 380.873571 173.986916 
L 379.615477 178.355517 
L 375.939423 179.267338 
L 375.420509 181.053275 
L 368.864134 183.039635 
L 360.35811 182.714197 
L 357.637532 186.937939 
L 348.786227 183.312486 
L 339.769227 184.309138 
L 324.865579 178.449775 
L 318.10779 179.883486 
L 307.306837 187.738138 
L 293.042157 181.558299 
L 282.201516 173.304291 
L 272.403665 168.689627 
L 270.371665 160.592881 
z
" clip-path="url(#pdc9402d9ed)" style="fill: #e8edf4; stroke: #b8c5d4; stroke-width: 0.45"/>
    <path d="M 334.400501 259.480736 
L 338.419852 251.511486 
L 345.30861 255.920767 
L 349.470837 251.937135 
L 358.441204 251.511486 
L 374.946243 254.699385 
L 388.221712 254.433478 
L 396.905216 258.683584 
L 403.866176 258.6304 
L 399.058112 267.077056 
L 408.315392 274.461376 
L 405.5168 283.49248 
L 397.40768 286.095424 
L 391.164416 290.557888 
L 388.352 301.12 
L 371.358493 293.851599 
L 364.109571 285.83026 
L 347.963704 274.408197 
z
" clip-path="url(#pdc9402d9ed)" style="fill: #e8edf4; stroke: #b8c5d4; stroke-width: 0.45"/>
    <path d="M 424.892962 322.910291 
L 427.332734 316.376149 
L 429.772352 316.535488 
L 430.633472 312.604288 
L 452.807936 307.770112 
L 461.706094 307.451017 
L 471.322376 313.613494 
L 472.685641 326.310517 
L 469.025984 326.94784 
L 465.868321 330.294646 
L 455.463251 329.922576 
L 448.143884 334.119529 
L 435.584774 335.819642 
L 427.619493 331.144455 
z
" clip-path="url(#pdc9402d9ed)" style="fill: #e8edf4; stroke: #b8c5d4; stroke-width: 0.45"/>
    <path d="M 393.532636 238.549651 
L 408.244055 233.502787 
L 420.227696 234.352596 
L 430.633759 241.896197 
L 432.786805 248.005592 
L 444.483704 252.521533 
L 445.990837 260.436213 
L 457.185688 266.014291 
L 463.213227 261.71167 
L 467.94993 264.102346 
L 463.500962 267.34283 
L 467.017274 270.689478 
L 462.280571 275.045181 
L 464.003009 282.057963 
L 473.331555 290.345705 
L 466.012188 296.348439 
L 462.782618 302.457834 
L 464.864227 304.741849 
L 461.706094 307.451017 
L 446.271411 308.891692 
L 445.631744 307.4512 
L 450.08096 300.49216 
L 447.353984 300.598336 
L 431.638016 289.17664 
L 428.193536 290.239168 
L 425.538368 296.613952 
L 420.945536 297.9952 
L 422.52416 296.348416 
L 408.896 290.295425 
L 400.995584 284.342272 
L 405.5168 283.49248 
L 408.315392 274.461376 
L 399.058112 267.077056 
L 403.866176 258.6304 
L 396.905216 258.683584 
L 404.297134 251.4589 
L 398.197165 245.986986 
z
" clip-path="url(#pdc9402d9ed)" style="fill: #e8edf4; stroke: #b8c5d4; stroke-width: 0.45"/>
    <path d="M 386.240324 304.384149 
L 391.164416 290.557888 
L 400.995584 284.342272 
L 408.896 290.295425 
L 422.52416 296.348416 
L 417.35744 302.298304 
L 412.190977 303.998205 
L 410.970587 300.38565 
L 402.646134 309.841693 
L 403.937949 315.951027 
L 399.919232 314.463616 
L 394.537088 308.195008 
z
" clip-path="url(#pdc9402d9ed)" style="fill: #e8edf4; stroke: #b8c5d4; stroke-width: 0.45"/>
    <path d="M 417.35744 302.298304 
L 420.945536 297.9952 
L 425.538368 296.613952 
L 428.193536 290.239168 
L 431.638016 289.17664 
L 447.353984 300.598336 
L 450.08096 300.49216 
L 445.631744 307.4512 
L 446.271411 308.891692 
L 430.633472 312.604288 
L 429.772352 316.535488 
L 427.332734 316.376149 
L 426.04064 309.416896 
L 421.448087 307.451017 
z
" clip-path="url(#pdc9402d9ed)" style="fill: #e8edf4; stroke: #b8c5d4; stroke-width: 0.45"/>
   </g>
   <g id="PathCollection_1">
    <defs>
     <path id="m539363d423" d="M 0 2.12132 
C 0.562581 2.12132 1.102195 1.897805 1.5 1.5 
C 1.897805 1.102195 2.12132 0.562581 2.12132 0 
C 2.12132 -0.562581 1.897805 -1.102195 1.5 -1.5 
C 1.102195 -1.897805 0.562581 -2.12132 0 -2.12132 
C -0.562581 -2.12132 -1.102195 -1.897805 -1.5 -1.5 
C -1.897805 -1.102195 -2.12132 -0.562581 -2.12132 0 
C -2.12132 0.562581 -1.897805 1.102195 -1.5 1.5 
C -1.102195 1.897805 -0.562581 2.12132 0 2.12132 
z
" style="stroke: #ffffff; stroke-width: 0.5"/>
    </defs>
    <g clip-path="url(#pdc9402d9ed)">
     <use xlink:href="#m539363d423" x="60.8" y="304" style="fill: #8aa0b7; stroke: #ffffff; stroke-width: 0.5"/>
     <use xlink:href="#m539363d423" x="416" y="332.8" style="fill: #8aa0b7; stroke: #ffffff; stroke-width: 0.5"/>
     <use xlink:href="#m539363d423" x="9.45344" y="114.7744" style="fill: #8aa0b7; stroke: #ffffff; stroke-width: 0.5"/>
     <use xlink:href="#m539363d423" x="215.04" y="212.48" style="fill: #8aa0b7; stroke: #ffffff; stroke-width: 0.5"/>
     <use xlink:href="#m539363d423" x="150.4" y="164.8" style="fill: #8aa0b7; stroke: #ffffff; stroke-width: 0.5"/>
     <use xlink:href="#m539363d423" x="174.08" y="280.32" style="fill: #8aa0b7; stroke: #ffffff; stroke-width: 0.5"/>
     <use xlink:href="#m539363d423" x="403.98848" y="299.99296" style="fill: #8aa0b7; stroke: #ffffff; stroke-width: 0.5"/>
     <use xlink:href="#m539363d423" x="454.4" y="316.8" style="fill: #8aa0b7; stroke: #ffffff; stroke-width: 0.5"/>
     <use xlink:href="#m539363d423" x="316.48" y="234.56" style="fill: #8aa0b7; stroke: #ffffff; stroke-width: 0.5"/>
     <use xlink:href="#m539363d423" x="270.4" y="279.68" style="fill: #8aa0b7; stroke: #ffffff; stroke-width: 0.5"/>
     <use xlink:href="#m539363d423" x="271.10528" y="315.46432" style="fill: #8aa0b7; stroke: #ffffff; stroke-width: 0.5"/>
     <use xlink:href="#m539363d423" x="433.3376" y="302.03008" style="fill: #8aa0b7; stroke: #ffffff; stroke-width: 0.5"/>
    </g>
   </g>
   <g id="PatchCollection_2">
    <defs>
     <path id="mbbd1e3694c" d="M 214.015415 -206.773951 
L 216.95229 -211.473944 
L 216.209141 -214.881115 
L 222.004509 -215.939779 
L 231.720009 -210.607764 
L 234.454477 -215.674865 
L 251.387149 -214.856311 
L 265.114063 -218.299201 
L 274.318587 -217.709842 
L 280.306438 -213.778795 
L 282.096344 -217.041604 
L 279.374774 -229.5516 
L 286.272462 -231.989404 
L 293.042157 -240.841701 
L 307.306837 -234.661862 
L 318.10779 -242.516514 
L 324.865579 -243.950225 
L 339.769227 -238.090862 
L 348.786227 -239.087514 
L 357.637532 -235.462061 
L 356.095673 -233.024256 
L 358.009602 -226.371143 
L 356.552079 -218.52542 
L 345.739219 -218.487717 
L 349.457938 -214.326483 
L 343.084126 -201.965811 
L 339.423946 -198.725326 
L 322.632165 -198.247092 
L 312.943454 -193.890893 
L 269.628516 -200.337135 
L 265.33929 -207.015549 
L 246.364696 -203.678326 
L 244.132274 -200.026084 
L 222.703009 -203.277979 
z
" style="stroke: #b45309; stroke-width: 1.15"/>
    </defs>
    <g clip-path="url(#pdc9402d9ed)">
     <use xlink:href="#mbbd1e3694c" x="0" y="422.4" style="fill: #f59e0b; stroke: #b45309; stroke-width: 1.15"/>
    </g>
   </g>
   <g id="PathCollection_2">
    <defs>
     <path id="m7fc4c1cc29" d="M 0 3.316625 
C 0.879579 3.316625 1.723251 2.967164 2.345208 2.345208 
C 2.967164 1.723251 3.316625 0.879579 3.316625 0 
C 3.316625 -0.879579 2.967164 -1.723251 2.345208 -2.345208 
C 1.723251 -2.967164 0.879579 -3.316625 0 -3.316625 
C -0.879579 -3.316625 -1.723251 -2.967164 -2.345208 -2.345208 
C -2.967164 -1.723251 -3.316625 -0.879579 -3.316625 0 
C -3.316625 0.879579 -2.967164 1.723251 -2.345208 2.345208 
C -1.723251 2.967164 -0.879579 3.316625 0 3.316625 
z
" style="stroke: #ffffff"/>
    </defs>
    <g clip-path="url(#pdc9402d9ed)">
     <use xlink:href="#m7fc4c1cc29" x="288" y="211.2" style="fill: #f97316; stroke: #ffffff"/>
    </g>
   </g>
   <g id="PathCollection_3">
    <path d="M 288 215.649719 
C 289.180079 215.649719 290.311984 215.180869 291.146427 214.346427 
C 291.980869 213.511984 292.449719 212.380079 292.449719 211.2 
C 292.449719 210.019921 291.980869 208.888016 291.146427 208.053573 
C 290.311984 207.219131 289.180079 206.750281 288 206.750281 
C 286.819921 206.750281 285.688016 207.219131 284.853573 208.053573 
C 284.019131 208.888016 283.550281 210.019921 283.550281 211.2 
C 283.550281 212.380079 284.019131 213.511984 284.853573 214.346427 
C 285.688016 215.180869 286.819921 215.649719 288 215.649719 
L 288 215.649719 
z
" clip-path="url(#pdc9402d9ed)" style="fill: none; stroke: #7c2d12; stroke-width: 1.1"/>
   </g>
  </g>
 </g>
 <defs>
  <clipPath id="pdc9402d9ed">
   <rect x="0" y="0" width="576" height="422.4"/>
  </clipPath>
 </defs>
</svg>
