<?xml version="1.0" encoding="utf-8" standalone="no"?>
<!DOCTYPE svg PUBLIC "-//W3C//DTD SVG 1.1//EN"
  "http://www.w3.org/Graphics/SVG/1.1/DTD/svg11.dtd">
<svg xmlns:xlink="http://www.w3.org/1999/xlink" width="576pt" height="358.880023pt" viewBox="0 0 576 358.880023" xmlns="http://www.w3.org/2000/svg" version="1.1">
 <metadata>
  <rdf:RDF xmlns:dc="http://purl.org/dc/elements/1.1/" xmlns:cc="http://creativecommons.org/ns#" xmlns:rdf="http://www.w3.org/1999/02/22-rdf-syntax-ns#">
   <cc:Work>
    <dc:type rdf:resource="http://purl.org/dc/dcmitype/StillImage"/>
    <dc:date>2026-06-09T04:57:20.445137</dc:date>
    <dc:format>image/svg+xml</dc:format>
    <dc:creator>
     <cc:Agent>
      <dc:title>Matplotlib v3.10.8, https://matplotlib.org/</dc:title>
     </cc:Agent>
    </dc:creator>
   </cc:Work>
  </rdf:RDF>
 </metadata>
 <defs>
  <style type="text/css">*{stroke-linejoin: round; stroke-linecap: butt}</style>
 </defs>
 <g id="figure_1">
  <g id="patch_1">
   <path d="M 0 358.880023 
L 576 358.880023 
L 576 0 
L 0 0 
z
" style="fill: #eaf3ff"/>
  </g>
  <g id="axes_1">
   <g id="PatchCollection_1">
    <path d="M 114.538491 71.850955 
L 121.936876 62.137014 
L 118.193306 59.522741 
L 128.419902 45.44064 
L 141.600552 52.873799 
L 143.196802 43.512556 
L 169.654806 29.572196 
L 189.676148 29.240362 
L 233.103405 43.300028 
L 246.702907 37.893244 
L 267.022437 37.635748 
L 283.415081 44.277564 
L 287.138781 40.474052 
L 305.14196 41.026778 
L 308.353667 34.956724 
L 287.583876 26.141584 
L 299.884934 19.897996 
L 297.484598 16.406117 
L 309.788967 13.073532 
L 300.536018 4.293828 
L 306.413109 -0.080107 
L 354.374009 -4.540189 
L 360.633087 -7.706308 
L 392.704533 -12.43765 
L 404.227999 -17.75495 
L 427.261682 -14.992643 
L 431.297346 -1.708336 
L 444.678687 -4.827646 
L 461.140591 -0.456505 
L 460.078853 6.539175 
L 472.372305 5.808089 
L 504.495659 -6.287122 
L 499.8056 -2.268679 
L 516.156892 7.633699 
L 544.798645 40.184938 
L 551.628739 33.474066 
L 569.28485 40.858543 
L 587.703319 37.564705 
L 594.779805 39.870987 
L 600.948217 47.277321 
L 609.909735 49.765086 
L 615.366127 55.20525 
L 631.87572 53.49011 
L 638.676671 61.330279 
L 628.92034 69.863922 
L 618.275143 71.061441 
L 617.663137 83.914231 
L 610.534325 89.707756 
L 585.107592 85.489948 
L 575.859279 108.437527 
L 569.298759 111.290906 
L 543.908454 116.41149 
L 555.445167 138.676854 
L 546.651884 142.013082 
L 547.675206 149.319733 
L 539.775426 147.439669 
L 533.348037 142.833064 
L 493.078831 141.142099 
L 488.421226 142.553555 
L 470.168343 137.164722 
L 462.893816 139.818736 
L 460.90016 147.385688 
L 439.814431 142.97017 
L 431.376165 144.778701 
L 428.505565 150.394386 
L 421.156855 152.763592 
L 404.251843 161.697953 
L 398.643774 170.869434 
L 393.868272 170.950903 
L 390.35586 164.879855 
L 374.054906 164.463903 
L 371.447919 153.964091 
L 365.202675 153.874343 
L 366.1591 141.018572 
L 350.814571 131.656667 
L 328.832689 132.656476 
L 313.804761 134.522631 
L 301.564639 122.970022 
L 268.814365 107.833138 
L 235.820348 115.407376 
L 236.323729 162.666963 
L 229.7493 163.292216 
L 220.77851 153.242136 
L 212.115047 149.651567 
L 197.565993 152.318496 
L 191.902949 156.583 
L 191.183644 153.457729 
L 194.333753 148.116253 
L 191.889703 143.650728 
L 177.034646 139.284224 
L 171.25238 127.773674 
L 164.175232 124.531168 
L 163.746033 120.355087 
L 176.215326 121.572476 
L 176.707448 112.201298 
L 187.608309 110.119881 
L 198.803914 112.034056 
L 201.110859 99.529659 
L 198.827759 91.604048 
L 186.001462 92.224002 
L 175.105899 89.09575 
L 160.265414 94.731637 
L 148.308002 97.418879 
L 141.798046 95.346219 
L 143.098775 88.750669 
L 134.928057 80.186999 
L 125.417609 80.544853 
z
" clip-path="url(#pb1b177371e)" style="fill: #e8edf4; stroke: #b8c5d4; stroke-width: 0.45"/>
    <path d="M 235.820348 115.407376 
L 268.814365 107.833138 
L 301.564639 122.970022 
L 313.804761 134.522631 
L 328.832689 132.656476 
L 350.814571 131.656667 
L 366.1591 141.018572 
L 365.202675 153.874343 
L 371.447919 153.964091 
L 374.054906 164.463903 
L 390.35586 164.879855 
L 393.868272 170.950903 
L 398.643774 170.869434 
L 404.251843 161.697953 
L 421.156855 152.763592 
L 428.505565 150.394386 
L 432.311395 151.656152 
L 421.554924 159.957975 
L 431.011876 164.782491 
L 440.140967 161.587011 
L 455.333157 168.339942 
L 438.920266 177.570702 
L 429.170559 176.307943 
L 423.879753 176.639115 
L 422.043734 173.076365 
L 424.715631 167.132819 
L 407.577473 170.111381 
L 403.503394 178.33571 
L 397.412476 185.419813 
L 386.710318 184.81708 
L 383.387999 190.460915 
L 392.793287 193.518959 
L 395.561886 203.061683 
L 388.35823 216.033033 
L 378.691316 213.326695 
L 371.54992 213.241584 
L 371.902949 205.398765 
L 354.854208 199.912899 
L 341.450348 193.636194 
L 318.431235 178.749344 
L 312.131017 165.535245 
L 307.830415 163.208761 
L 293.972187 163.798909 
L 289.06819 161.173708 
L 287.697799 150.94645 
L 270.427835 144.172987 
L 259.629637 151.619723 
L 248.679762 156.035572 
L 250.784029 162.491773 
L 236.323729 162.666963 
z
" clip-path="url(#pb1b177371e)" style="fill: #e8edf4; stroke: #b8c5d4; stroke-width: 0.45"/>
    <path d="M -131.272035 -44.533528 
L -125.779876 -48.601316 
L -129.580618 -60.555492 
L -120.460589 -67.941437 
L -122.390585 -70.178604 
L -107.822876 -77.262383 
L -121.251397 -83.35655 
L -81.902881 -107.121749 
L -77.082339 -113.658425 
L -96.054528 -122.439785 
L -90.814723 -130.791946 
L -102.353422 -140.330697 
L -93.724659 -151.318942 
L -108.631783 -165.908776 
L -96.803639 -175.573041 
L -116.432874 -184.113308 
L -114.561751 -193.08741 
L -104.210364 -194.268421 
L -82.40161 -199.410531 
L -69.178931 -203.868846 
L -48.123569 -196.120499 
L -13.023949 -193.070018 
L 35.40409 -178.573572 
L 45.241633 -172.481969 
L 46.088589 -163.951519 
L 31.860022 -157.217391 
L 10.931164 -153.7997 
L -46.287641 -163.541755 
L -55.698885 -161.912952 
L -34.802711 -152.525932 
L -33.147505 -133.482477 
L -6.631142 -126.246686 
L -4.974655 -132.461463 
L -12.695586 -137.96963 
L -4.537974 -142.824252 
L 26.446317 -134.846477 
L 37.240274 -137.96963 
L 28.614337 -147.356394 
L 58.484562 -159.909632 
L 70.314145 -159.170724 
L 82.28164 -154.691132 
L 89.747754 -163.499843 
L 79.059923 -171.14027 
L 85.334683 -178.805691 
L 75.912417 -186.755909 
L 111.764275 -182.644297 
L 119.087221 -175.466312 
L 102.858539 -173.884036 
L 102.946336 -166.75168 
L 113.035094 -162.363346 
L 132.837709 -165.143128 
L 135.972783 -173.318287 
L 207.475398 -190.429174 
L 217.143113 -189.798186 
L 204.506819 -182.020231 
L 220.405973 -180.683531 
L 229.588175 -185.06238 
L 253.61186 -185.416389 
L 272.645062 -190.729608 
L 287.249172 -183.008817 
L 301.81483 -191.49697 
L 288.384514 -198.92207 
L 295.049429 -203.151727 
L 332.911271 -199.273131 
L 350.651672 -195.267069 
L 397.101578 -180.623418 
L 405.670095 -187.33063 
L 392.6448 -194.107438 
L 392.270284 -196.826339 
L 376.823831 -198.083957 
L 381.049387 -204.160821 
L 374.194266 -214.160244 
L 373.806419 -218.262755 
L 397.459176 -229.869063 
L 405.871067 -241.518052 
L 415.402408 -244.038416 
L 449.336309 -240.658407 
L 452.008555 -233.529127 
L 439.858928 -223.133398 
L 447.831191 -219.047421 
L 451.955364 -210.087596 
L 449.043565 -192.524393 
L 463.183053 -184.668124 
L 457.68232 -176.112681 
L 432.577381 -157.90721 
L 447.227504 -156.01886 
L 452.325651 -160.633032 
L 466.427329 -163.924346 
L 469.830537 -170.266654 
L 480.923647 -176.369921 
L 473.454584 -183.656723 
L 479.434807 -192.118474 
L 465.419517 -193.173068 
L 462.337122 -200.301579 
L 472.564305 -213.171529 
L 455.918681 -223.622885 
L 478.857779 -232.261896 
L 475.889842 -241.37591 
L 482.282392 -241.666859 
L 489.017801 -234.560907 
L 483.961053 -222.192363 
L 497.677063 -219.850799 
L 491.832702 -229.093754 
L 513.282448 -234.132942 
L 539.882764 -234.811482 
L 563.568589 -227.5043 
L 552.170431 -238.179058 
L 550.893587 -251.833802 
L 573.181447 -254.420302 
L 604.01001 -253.855194 
L 631.785273 -255.533855 
L 621.368267 -262.23453 
L 636.201035 -270.652317 
L 650.926523 -271.004789 
L 675.846767 -277.362989 
L 709.691461 -279.071899 
L 713.967644 -282.58213 
L 747.622772 -283.771561 
L 758.109887 -280.893856 
L 786.875787 -287.705014 
L 810.422546 -287.492121 
L 813.955592 -293.024129 
L 826.202629 -298.479746 
L 856.460829 -303.739645 
L 878.442743 -299.586506 
L 860.990408 -296.427209 
L 890.022904 -294.463494 
L 893.481867 -288.12939 
L 905.194173 -291.248442 
L 942.66458 -291.077333 
L 971.557626 -284.825643 
L 981.845434 -280.024341 
L 978.656785 -273.361349 
L 930.795777 -262.45319 
L 921.166897 -258.649959 
L 956.019146 -253.622307 
L 967.559062 -256.047182 
L 974.096318 -247.820114 
L 979.725992 -251.150392 
L 1000.220732 -253.175116 
L 1041.344666 -251.058621 
L 1044.467819 -245.063787 
L 1098.051939 -243.156852 
L 1098.783926 -252.946715 
L 1125.984853 -250.70333 
L 1146.446654 -250.773696 
L 1167.144034 -244.021881 
L 1173.043893 -235.819038 
L 1165.461656 -230.452243 
L 1181.55986 -220.365664 
L 1201.715972 -215.161263 
L 1214.08349 -228.61042 
L 1234.644239 -222.844243 
L 1256.488113 -226.289876 
L 1281.297233 -222.347066 
L 1290.737572 -225.940993 
L 1311.703086 -224.14403 
L 1302.450134 -236.042953 
L 1319.372096 -241.595596 
L 1435.134359 -233.272015 
L 1446.044055 -225.664143 
L 1479.595748 -215.869153 
L 1531.351118 -218.294029 
L 1556.868898 -216.183174 
L 1567.539426 -210.883541 
L 1565.98022 -201.510876 
L 1581.769275 -197.861836 
L 1598.925535 -200.486274 
L 1621.655586 -200.821955 
L 1645.852943 -198.306719 
L 1670.145275 -199.725577 
L 1692.472227 -188.332546 
L 1708.355872 -192.431853 
L 1697.990904 -200.623674 
L 1703.697738 -206.317946 
L 1744.590322 -202.734273 
L 1771.251519 -203.500994 
L 1808.113239 -197.384013 
L 1826.057241 -191.791077 
L 1826.057241 -140.728504 
L 1809.487237 -135.027711 
L 1792.877244 -135.966952 
L 1804.434719 -129.144642 
L 1812.064124 -118.583829 
L 1817.986798 -115.131531 
L 1819.473843 -109.829335 
L 1816.16561 -106.434843 
L 1792.275095 -109.226417 
L 1756.45105 -99.578312 
L 1745.054559 -98.084602 
L 1706.838579 -81.211729 
L 1702.126356 -75.387491 
L 1683.792842 -84.254135 
L 1650.39803 -74.192677 
L 1644.566486 -78.953605 
L 1632.220244 -73.462741 
L 1615.077956 -75.220099 
L 1610.948528 -66.790264 
L 1595.570776 -54.386729 
L 1596.027579 -49.206553 
L 1610.625536 -46.334359 
L 1608.908423 -27.675289 
L 1597.0095 -27.200414 
L 1591.522224 -16.478745 
L 1596.854541 -10.960452 
L 1574.440945 -4.413327 
L 1569.992884 10.220775 
L 1550.885214 13.346748 
L 1547.043147 26.368838 
L 1528.568644 38.309802 
L 1523.828993 29.47943 
L 1511.186931 -17.70086 
L 1517.348901 -35.476828 
L 1528.16311 -43.125843 
L 1528.832165 -49.115807 
L 1548.74975 -51.98313 
L 1571.645142 -68.120171 
L 1593.708573 -81.299142 
L 1616.749311 -91.525941 
L 1627.0525 -109.594397 
L 1611.478004 -108.513399 
L 1603.781181 -97.955021 
L 1571.271394 -83.878336 
L 1560.772102 -99.639962 
L 1527.682852 -95.288029 
L 1495.606411 -73.80342 
L 1506.189399 -65.943563 
L 1457.765974 -61.277354 
L 1458.694191 -70.545046 
L 1438.77071 -72.490304 
L 1422.891551 -66.193882 
L 1383.701981 -68.397021 
L 1341.541268 -64.598148 
L 1250.903171 -9.35126 
L 1271.096837 -7.735787 
L 1277.399155 0.290693 
L 1289.84819 3.140072 
L 1298.050265 -3.262604 
L 1312.109133 -2.431156 
L 1330.614525 11.669112 
L 1331.049283 22.573938 
L 1321.028712 35.379546 
L 1319.947714 50.68501 
L 1314.165259 71.177316 
L 1294.847132 89.724492 
L 1290.553261 98.59011 
L 1247.611728 135.884666 
L 1230.532628 143.404996 
L 1222.450137 143.571363 
L 1214.398407 137.341334 
L 1197.195237 146.721176 
L 1195.197429 150.985952 
L 1193.403029 148.742952 
L 1193.324414 142.231656 
L 1199.871687 141.885912 
L 1201.715653 126.742073 
L 1198.340065 115.764954 
L 1209.34056 111.237919 
L 1224.896289 113.507471 
L 1233.516126 101.038479 
L 1237.908638 86.996619 
L 1242.887585 82.305929 
L 1249.623013 70.773321 
L 1228.439919 74.551664 
L 1217.328663 79.607792 
L 1197.85391 79.592796 
L 1192.663394 67.550354 
L 1177.481802 58.438484 
L 1155.174616 54.341229 
L 1150.432987 41.786487 
L 1133.243829 15.472874 
L 1121.988613 10.753009 
L 1102.804664 6.936638 
L 1085.812694 7.28365 
L 1069.885302 9.5949 
L 1059.298391 15.971619 
L 1066.331162 19.017741 
L 1066.490236 26.094295 
L 1059.362366 30.202958 
L 1047.792458 43.797205 
L 1047.908719 49.437225 
L 1029.846591 57.536371 
L 1014.460334 52.697284 
L 999.16813 53.765645 
L 992.457258 49.471005 
L 984.771415 48.086043 
L 965.99793 57.118763 
L 949.124047 59.241245 
L 937.342268 62.417848 
L 921.198289 60.330801 
L 909.313183 60.464264 
L 901.533288 53.912685 
L 888.980539 47.752884 
L 876.135035 46.064568 
L 847.808558 50.115466 
L 829.599813 44.724654 
L 827.15584 35.120127 
L 800.451606 30.325282 
L 786.093307 25.02719 
L 772.817941 38.310504 
L 778.02198 45.854605 
L 765.563697 54.779831 
L 747.03344 51.557473 
L 734.241025 51.096398 
L 725.674264 45.109468 
L 712.301416 44.920372 
L 701.156929 40.987037 
L 681.661488 47.015695 
L 657.205089 58.054986 
L 638.676671 61.330279 
L 631.87572 53.49011 
L 615.366127 55.20525 
L 609.909735 49.765086 
L 600.948217 47.277321 
L 594.779805 39.870987 
L 587.703319 37.564705 
L 569.28485 40.858543 
L 551.628739 33.474066 
L 544.798645 40.184938 
L 516.156892 7.633699 
L 499.8056 -2.268679 
L 504.495659 -6.287122 
L 472.372305 5.808089 
L 460.078853 6.539175 
L 461.140591 -0.456505 
L 444.678687 -4.827646 
L 431.297346 -1.708336 
L 427.261682 -14.992643 
L 404.227999 -17.75495 
L 392.704533 -12.43765 
L 360.633087 -7.706308 
L 354.374009 -4.540189 
L 306.413109 -0.080107 
L 300.536018 4.293828 
L 309.788967 13.073532 
L 297.484598 16.406117 
L 299.884934 19.897996 
L 287.583876 26.141584 
L 308.353667 34.956724 
L 305.14196 41.026778 
L 287.138781 40.474052 
L 283.415081 44.277564 
L 267.022437 37.635748 
L 246.702907 37.893244 
L 233.103405 43.300028 
L 189.676148 29.240362 
L 169.654806 29.572196 
L 143.196802 43.512556 
L 141.600552 52.873799 
L 128.419902 45.44064 
L 118.193306 59.522741 
L 121.936876 62.137014 
L 114.538491 71.850955 
L 125.417609 80.544853 
L 134.928057 80.186999 
L 143.098775 88.750669 
L 141.798046 95.346219 
L 148.308002 97.418879 
L 142.466589 105.019958 
L 130.040368 107.132224 
L 117.301409 120.363233 
L 128.951295 132.527215 
L 127.689832 141.160586 
L 141.68423 156.255337 
L 134.031282 161.421425 
L 131.831637 164.682146 
L 126.16197 163.806526 
L 117.353454 156.021332 
L 105.694075 152.620907 
L 101.770481 147.361512 
L 89.816491 144.680011 
L 82.04401 146.692722 
L 79.79819 144.3104 
L 62.346495 138.164964 
L 32.643598 133.899365 
L 31.080465 135.413153 
L 14.738497 124.582636 
L 0.115674 119.747882 
L -10.95398 112.218066 
L -1.626817 110.16963 
L 9.008593 99.449884 
L 1.840862 94.37814 
L 20.732691 89.146439 
L 20.393421 86.344483 
L 8.887958 88.410224 
L 9.292651 82.716713 
L 15.899346 79.137916 
L 28.302593 78.1982 
L 30.319273 73.92403 
L 27.487069 66.856528 
L 32.692611 60.145345 
L 32.542022 56.381974 
L 13.648889 52.211123 
L 6.1591 52.349553 
L -1.751277 46.347389 
L -11.585765 48.377143 
L -27.8642 43.870553 
L -27.584865 41.348875 
L -32.144268 35.790947 
L -42.36424 35.17033 
L -43.425978 31.191628 
L -40.224868 28.596563 
L -48.415417 21.339588 
L -61.706017 22.577841 
L -65.598614 21.934042 
L -68.836457 24.849237 
L -73.623276 24.33104 
L -76.775674 16.123296 
L -79.785366 11.868728 
L -77.318843 10.671169 
L -66.976953 11.115974 
L -61.989501 8.312933 
L -65.681407 4.895568 
L -74.324338 2.639954 
L -73.553369 0.325061 
L -78.76933 -2.013014 
L -86.80489 -10.404585 
L -84.058149 -13.862353 
L -85.313291 -19.879088 
L -97.84352 -22.935807 
L -104.568963 -21.405792 
L -106.389748 -24.587694 
L -119.883687 -27.80205 
L -124.003469 -35.366684 
L -125.096337 -41.582122 
z
" clip-path="url(#pb1b177371e)" style="fill: #e8edf4; stroke: #b8c5d4; stroke-width: 0.45"/>
    <path d="M 178.487167 -230.899319 
L 191.592972 -233.649373 
L 191.155825 -240.638429 
L 216.577922 -251.569096 
L 204.794818 -253.136203 
L 235.481228 -264.385458 
L 232.013855 -270.20349 
L 260.682102 -276.970661 
L 302.996627 -285.205587 
L 345.656234 -287.604598 
L 367.606985 -292.356256 
L 392.550207 -294.021389 
L 401.460062 -288.960086 
L 392.851574 -284.97178 
L 308.296043 -272.503811 
L 268.480543 -260.304092 
L 229.288971 -235.467176 
L 231.897283 -224.820324 
L 256.414618 -214.308589 
L 248.843361 -213.18426 
L 206.962008 -214.849393 
L 203.560871 -220.540255 
L 180.360276 -223.976497 
z
" clip-path="url(#pb1b177371e)" style="fill: #e8edf4; stroke: #b8c5d4; stroke-width: 0.45"/>
    <path d="M -2788.114481 -140.728504 
L -2788.114481 -191.791077 
L -2756.712479 -182.00344 
L -2723.109133 -169.261789 
L -2724.211407 -161.295422 
L -2715.567269 -158.106645 
L -2718.540718 -167.419966 
L -2683.748454 -165.508802 
L -2658.655947 -153.514006 
L -2671.364017 -147.927654 
L -2692.373622 -146.601336 
L -2692.690846 -134.077448 
L -2697.821934 -131.410201 
L -2709.825317 -131.793562 
L -2719.593006 -136.262259 
L -2736.634808 -140.000122 
L -2739.501106 -145.560071 
L -2752.516915 -147.656571 
L -2767.093468 -145.993931 
L -2774.058176 -150.478906 
L -2771.274164 -155.242654 
L -2786.624745 -152.197942 
L -2780.843059 -146.168116 
z
" clip-path="url(#pb1b177371e)" style="fill: #e8edf4; stroke: #b8c5d4; stroke-width: 0.45"/>
    <path d="M 1333.802994 26.461828 
L 1334.936928 8.946796 
L 1346.784942 3.048621 
L 1341.694164 -2.889958 
L 1347.398273 -4.689547 
L 1355.166246 16.139855 
L 1354.838386 28.753208 
L 1360.128529 41.686473 
L 1373.024372 64.388322 
L 1354.052183 60.156605 
L 1346.166312 78.677075 
L 1358.660774 91.812686 
L 1358.299134 100.769568 
L 1348.589168 93.042659 
L 1340.185344 102.963252 
L 1337.812826 92.207443 
L 1339.242165 79.720929 
L 1337.781034 65.890519 
L 1340.746349 56.201085 
L 1341.312654 39.062265 
z
" clip-path="url(#pb1b177371e)" style="fill: #e8edf4; stroke: #b8c5d4; stroke-width: 0.45"/>
    <path d="M -65.058804 111.157113 
L -62.794911 108.699815 
L -50.524321 104.439617 
L -52.474757 102.897088 
L -49.097776 99.722853 
L -35.863363 102.977217 
L -34.200022 105.508388 
L -32.26634 105.898763 
L -32.162152 107.007526 
L -25.891739 110.099349 
L -12.818388 109.330367 
L -15.321387 113.903192 
L -29.352487 116.12337 
L -46.751609 123.538314 
L -53.879095 120.931327 
L -51.052872 114.90863 
z
" clip-path="url(#pb1b177371e)" style="fill: #e8edf4; stroke: #b8c5d4; stroke-width: 0.45"/>
    <path d="M 93.781284 -340.805413 
L 118.802663 -343.139515 
L 138.276247 -343.294503 
L 140.895156 -339.84104 
L 148.257112 -342.909681 
L 160.338272 -345.023222 
L 179.348214 -342.21422 
L 174.39123 -340.260304 
L 145.658073 -337.598011 
L 143.870406 -335.494737 
L 128.889504 -333.376229 
L 115.004781 -336.414733 
L 122.305802 -340.415955 
z
" clip-path="url(#pb1b177371e)" style="fill: #e8edf4; stroke: #b8c5d4; stroke-width: 0.45"/>
    <path d="M 687.652254 -337.622277 
L 720.933121 -346.378181 
L 748.659615 -349.272292 
L 773.562748 -342.819821 
L 803.078131 -330.427694 
L 799.913642 -318.902583 
L 771.948942 -317.303772 
L 736.248711 -321.002095 
L 714.975969 -325.895104 
L 705.139068 -335.088713 
z
" clip-path="url(#pb1b177371e)" style="fill: #e8edf4; stroke: #b8c5d4; stroke-width: 0.45"/>
    <path d="M 1274.591816 -272.513879 
L 1281.479364 -281.325665 
L 1298.389214 -283.730033 
L 1332.233395 -283.167745 
L 1378.563139 -276.371263 
L 1368.485211 -266.852931 
L 1321.238785 -267.20771 
L 1299.983218 -264.1803 
z
" clip-path="url(#pb1b177371e)" style="fill: #e8edf4; stroke: #b8c5d4; stroke-width: 0.45"/>
    <path d="M -229.035372 -5.461178 
L -226.115096 -11.101702 
L -208.427855 -15.258575 
L -195.004786 -13.013228 
L -189.339093 -10.978837 
L -190.706834 -7.469075 
L -189.680863 -4.198088 
L -213.249721 -4.005677 
z
" clip-path="url(#pb1b177371e)" style="fill: #e8edf4; stroke: #b8c5d4; stroke-width: 0.45"/>
    <path d="M 1311.617083 -248.265894 
L 1323.775297 -253.331614 
L 1339.801341 -254.517456 
L 1358.011426 -249.617077 
L 1359.562557 -246.248604 
L 1340.128947 -246.158884 
z
" clip-path="url(#pb1b177371e)" style="fill: #e8edf4; stroke: #b8c5d4; stroke-width: 0.45"/>
    <path d="M 793.484307 -306.598894 
L 816.898152 -323.427675 
L 827.426795 -324.868579 
L 837.058429 -324.033926 
L 869.544954 -316.754429 
L 865.738775 -311.544901 
z
" clip-path="url(#pb1b177371e)" style="fill: #e8edf4; stroke: #b8c5d4; stroke-width: 0.45"/>
    <path d="M -2788.114481 -215.740716 
L -2788.114481 -224.501427 
L -2775.609179 -225.01175 
L -2757.070654 -221.345406 
L -2758.168186 -219.593175 
L -2771.372472 -216.520264 
z
" clip-path="url(#pb1b177371e)" style="fill: #e8edf4; stroke: #b8c5d4; stroke-width: 0.45"/>
    <path d="M 1391.802031 -271.377127 
L 1394.869109 -275.52783 
L 1450.92085 -270.237426 
L 1436.1075 -265.17286 
L 1415.619809 -266.319161 
z
" clip-path="url(#pb1b177371e)" style="fill: #e8edf4; stroke: #b8c5d4; stroke-width: 0.45"/>
    <path d="M 1809.719228 -219.157776 
L 1826.057241 -224.501427 
L 1826.057241 -215.740716 
L 1812.002281 -215.086282 
z
" clip-path="url(#pb1b177371e)" style="fill: #e8edf4; stroke: #b8c5d4; stroke-width: 0.45"/>
    <path d="M -33.420606 314.003022 
L -27.03362 293.511746 
L -27.333 288.525619 
L -25.44002 284.764828 
L -25.434721 276.927309 
L -23.201296 272.88734 
L -8.921154 277.966196 
L 16.178382 264.306339 
L 21.345329 279.913488 
L 18.902604 281.846208 
L -6.766548 288.277902 
L 6.008086 301.093932 
L 1.769082 303.270727 
L -0.339822 307.563049 
L -10.119997 309.338131 
L -13.187313 313.952684 
L -18.727823 317.897275 
L -32.992069 315.858579 
z
" clip-path="url(#pb1b177371e)" style="fill: #e8edf4; stroke: #b8c5d4; stroke-width: 0.45"/>
    <path d="M 180.073481 381.367738 
L 182.353932 380.745134 
L 182.827508 384.260195 
L 192.859375 382.240045 
L 211.199687 382.953721 
L 237.639145 358.16913 
L 240.077234 362.537953 
L 241.817875 372.661885 
L 235.273251 372.711892 
L 234.220786 381.058754 
L 236.49064 382.841123 
L 230.689829 385.365317 
L 230.654063 390.604129 
L 226.919766 395.908844 
L 226.584619 401.06983 
L 224.001477 403.77915 
L 185.472249 397.316657 
z
" clip-path="url(#pb1b177371e)" style="fill: #e8edf4; stroke: #b8c5d4; stroke-width: 0.45"/>
    <path d="M 169.363374 365.513866 
L 172.816837 358.790409 
L 176.317327 357.411409 
L 180.196015 361.429189 
L 180.421874 368.932887 
L 177.639366 376.473014 
L 174.086551 377.383737 
L 170.211837 374.840667 
z
" clip-path="url(#pb1b177371e)" style="fill: #e8edf4; stroke: #b8c5d4; stroke-width: 0.45"/>
    <path d="M 115.84927 319.159372 
L 125.255883 306.85434 
L 133.867683 307.921377 
L 136.542229 313.578128 
L 135.398361 316.502709 
L 139.527415 326.170617 
L 130.462571 326.503114 
L 127.270734 320.3963 
z
" clip-path="url(#pb1b177371e)" style="fill: #e8edf4; stroke: #b8c5d4; stroke-width: 0.45"/>
    <path d="M 16.178382 264.306339 
L 44.55321 250.967719 
L 49.395608 235.472506 
L 48.187493 226.109608 
L 55.203043 222.943271 
L 61.772173 214.945133 
L 67.277579 212.953464 
L 82.185623 214.607337 
L 86.686915 217.872032 
L 92.829215 215.706928 
L 101.133968 230.996384 
L 109.538454 234.84361 
L 110.505477 242.330419 
L 104.054244 246.753885 
L 101.08363 256.755614 
L 109.961692 268.938443 
L 125.666537 275.963929 
L 132.261498 285.704695 
L 130.160542 294.988443 
L 134.254492 294.9848 
L 134.381 301.812245 
L 141.474045 308.549942 
L 125.255883 306.85434 
L 115.84927 319.159372 
L 92.019448 318.135719 
L 55.881283 292.358936 
L 36.783911 283.387152 
L 21.345329 279.913488 
z
" clip-path="url(#pb1b177371e)" style="fill: #e8edf4; stroke: #b8c5d4; stroke-width: 0.45"/>
    <path d="M 185.462976 448.599985 
L 223.914047 435.782962 
L 232.458951 410.148583 
L 226.584619 401.06983 
L 226.919766 395.908844 
L 230.654063 390.604129 
L 230.689829 385.365317 
L 236.49064 382.841123 
L 234.220786 381.058754 
L 235.273251 372.711892 
L 241.817875 372.661885 
L 247.563711 381.416752 
L 254.719679 386.070382 
L 271.712121 390.081208 
L 280.951823 401.68581 
L 285.539882 403.309216 
L 285.515375 406.168556 
L 278.802516 417.404564 
L 273.403086 421.504144 
L 268.620298 430.284511 
L 262.805577 429.612231 
L 260.140304 432.668288 
L 258.081738 439.166547 
L 259.657455 447.73397 
L 258.448677 449.308694 
L 252.551164 449.266635 
L 244.545409 454.056709 
L 243.296227 460.300628 
L 240.365354 463.005642 
L 232.392716 462.902316 
L 227.374134 466.12992 
L 227.437719 471.307465 
L 221.235527 474.86624 
L 214.163678 473.657793 
L 205.592281 477.981245 
L 199.671585 478.706844 
z
" clip-path="url(#pb1b177371e)" style="fill: #e8edf4; stroke: #b8c5d4; stroke-width: 0.45"/>
    <path d="M 237.639145 358.16913 
L 241.371455 353.805275 
L 242.956445 354.918014 
L 241.748329 360.213125 
L 240.077234 362.537953 
z
" clip-path="url(#pb1b177371e)" style="fill: #e8edf4; stroke: #b8c5d4; stroke-width: 0.45"/>
    <path d="M 392.801235 388.462439 
L 401.336866 379.911243 
L 429.542796 379.944691 
L 426.998069 368.940173 
L 419.797063 362.440257 
L 418.336594 352.575633 
L 409.947341 346.81953 
L 424.073157 333.384208 
L 438.956033 334.358517 
L 452.363867 320.920876 
L 460.398766 307.91376 
L 472.840903 295.053021 
L 472.642862 285.916645 
L 483.572204 278.502363 
L 473.227712 272.173333 
L 464.235064 252.270881 
L 470.518724 246.744281 
L 489.960515 249.871208 
L 504.24728 247.966306 
L 516.62517 237.193939 
L 530.401268 252.216569 
L 529.104398 262.672004 
L 534.203124 269.231862 
L 533.783198 275.776485 
L 524.584561 274.054059 
L 528.179103 288.181862 
L 540.771592 296.297566 
L 558.586003 305.259747 
L 550.453078 311.073804 
L 545.476223 323.062898 
L 586.693906 341.390957 
L 604.26325 343.052116 
L 611.655674 349.572233 
L 636.97842 353.780106 
L 647.652098 353.565838 
L 649.120515 348.492943 
L 647.432862 340.348758 
L 648.423729 334.828119 
L 656.240716 332.132378 
L 657.590573 344.794413 
L 669.239884 349.659331 
L 677.298627 347.65574 
L 698.57776 348.135277 
L 699.477886 340.26166 
L 694.260601 336.171353 
L 704.597145 334.567486 
L 716.263677 325.034697 
L 731.037266 316.872628 
L 741.788437 320.022075 
L 750.925477 314.624963 
L 756.935588 322.594952 
L 752.606506 327.977492 
L 766.426982 329.892992 
L 767.394004 334.751287 
L 762.900661 337.10294 
L 763.951801 344.989142 
L 754.792242 342.6716 
L 738.199194 351.528467 
L 738.588652 358.863267 
L 731.514816 369.614439 
L 730.866381 375.859683 
L 725.151012 386.427386 
L 715.133718 383.507441 
L 714.635635 396.771878 
L 711.738541 401.136727 
L 713.095022 406.579541 
L 706.770959 409.620032 
L 700.020346 389.288713 
L 696.481441 389.329116 
L 694.386446 397.520327 
L 687.368909 390.877677 
L 691.326416 383.58328 
L 697.06033 382.842779 
L 702.970428 371.995898 
L 695.57999 369.807513 
L 683.69356 369.997605 
L 671.497816 368.239744 
L 670.367194 359.327571 
L 664.248458 358.695363 
L 654.096707 353.15684 
L 649.568922 361.852758 
L 658.819884 368.637813 
L 650.806843 373.413646 
L 647.962075 378.084498 
L 655.851257 381.518753 
L 653.670158 389.242018 
L 658.111838 398.880451 
L 660.106819 409.434576 
L 658.271463 414.114369 
L 649.552363 413.953088 
L 633.751479 416.614057 
L 634.488005 426.255802 
L 627.645989 433.839312 
L 609.201026 442.466015 
L 594.855312 457.546269 
L 585.219528 465.631174 
L 572.448206 474.021089 
L 572.428336 479.916615 
L 554.49404 487.667037 
L 548.50711 488.343621 
L 544.664189 498.120154 
L 548.012339 525.422646 
L 542.581116 537.599514 
L 542.52283 559.375075 
L 535.890115 559.995692 
L 530.056186 569.771562 
L 533.957394 573.995994 
L 522.270992 577.629614 
L 517.954495 586.346396 
L 512.811391 590.030355 
L 500.674595 578.062456 
L 489.824734 547.186285 
L 485.33404 541.123848 
L 478.524479 528.810537 
L 473.129022 504.774727 
L 461.469776 487.171272 
L 452.327439 445.931069 
L 452.37314 430.406051 
L 449.887362 418.402717 
L 431.235086 426.074651 
L 422.201372 424.538012 
L 405.457972 409.004052 
L 411.620423 404.370954 
L 407.835125 399.341443 
z
" clip-path="url(#pb1b177371e)" style="fill: #e8edf4; stroke: #b8c5d4; stroke-width: 0.45"/>
    <path d="M 545.476223 323.062898 
L 550.453078 311.073804 
L 563.899329 302.193424 
L 574.174937 306.134041 
L 587.115157 314.484877 
L 594.316826 316.324207 
L 598.61809 322.480697 
L 608.57776 325.007209 
L 618.981202 330.636473 
L 633.479918 333.575626 
L 648.423729 334.828119 
L 647.432862 340.348758 
L 649.120515 348.492943 
L 647.652098 353.565838 
L 636.97842 353.780106 
L 611.655674 349.572233 
L 604.26325 343.052116 
L 586.693906 341.390957 
z
" clip-path="url(#pb1b177371e)" style="fill: #e8edf4; stroke: #b8c5d4; stroke-width: 0.45"/>
    <path d="M 299.205368 309.800116 
L 320.681881 316.345402 
L 333.504203 314.425929 
L 341.16554 316.060263 
L 343.759942 313.250599 
L 352.686356 314.376584 
L 369.343651 309.047693 
L 369.792058 298.14087 
L 376.936766 290.886214 
L 386.47916 290.908733 
L 387.880018 287.322802 
L 397.675427 285.651707 
L 402.4145 286.845251 
L 407.427121 283.240774 
L 406.719075 275.543671 
L 412.161558 267.807822 
L 420.31899 264.564653 
L 415.2812 256.084991 
L 427.473633 256.485709 
L 430.997966 251.870825 
L 430.462792 246.946296 
L 436.846466 241.562099 
L 435.381361 235.187367 
L 432.351136 229.755151 
L 439.835626 224.172582 
L 453.597815 221.480153 
L 468.305831 219.991203 
L 482.28262 216.186366 
L 491.752818 222.162036 
L 495.546064 232.010764 
L 516.62517 237.193939 
L 504.24728 247.966306 
L 489.960515 249.871208 
L 470.518724 246.744281 
L 464.235064 252.270881 
L 473.227712 272.173333 
L 483.572204 278.502363 
L 472.642862 285.916645 
L 472.840903 295.053021 
L 460.398766 307.91376 
L 452.363867 320.920876 
L 438.956033 334.358517 
L 424.073157 333.384208 
L 409.947341 346.81953 
L 418.336594 352.575633 
L 419.797063 362.440257 
L 426.998069 368.940173 
L 429.542796 379.944691 
L 401.336866 379.911243 
L 392.801235 388.462439 
L 383.406545 385.221257 
L 379.584156 376.008711 
L 369.681447 366.248075 
L 346.066887 368.659008 
L 325.242784 368.897783 
L 307.191916 370.694392 
L 312.02173 355.80423 
L 330.509745 349.183437 
L 329.449332 343.280956 
L 323.316686 341.206163 
L 322.962995 329.91783 
L 310.710288 324.282274 
L 305.550626 316.541456 
z
" clip-path="url(#pb1b177371e)" style="fill: #e8edf4; stroke: #b8c5d4; stroke-width: 0.45"/>
    <path d="M 294.772961 260.489911 
L 303.519217 235.193659 
L 316.590581 240.056591 
L 326.254846 238.34708 
L 328.932041 232.539315 
L 339.04935 230.606594 
L 346.272876 226.708698 
L 348.831512 216.458258 
L 359.634347 213.979435 
L 361.642575 209.417208 
L 367.689115 212.844177 
L 378.691316 213.326695 
L 392.274672 217.595172 
L 401.55279 213.47804 
L 405.86995 215.954214 
L 410.00364 210.085844 
L 417.665639 210.352107 
L 419.639425 208.468731 
L 420.994581 203.300459 
L 426.512571 198.841557 
L 433.450627 201.755872 
L 432.057055 205.673307 
L 435.934418 206.282001 
L 434.739549 217.050063 
L 439.814431 221.247339 
L 444.279956 218.554247 
L 449.968831 217.281884 
L 457.95604 211.543664 
L 480.000844 212.508368 
L 482.28262 216.186366 
L 468.305831 219.991203 
L 453.597815 221.480153 
L 439.835626 224.172582 
L 432.351136 229.755151 
L 435.381361 235.187367 
L 436.846466 241.562099 
L 430.462792 246.946296 
L 430.997966 251.870825 
L 427.473633 256.485709 
L 415.2812 256.084991 
L 420.31899 264.564653 
L 412.161558 267.807822 
L 406.719075 275.543671 
L 407.427121 283.240774 
L 402.4145 286.845251 
L 397.675427 285.651707 
L 387.880018 287.322802 
L 386.47916 290.908733 
L 376.936766 290.886214 
L 369.792058 298.14087 
L 369.343651 309.047693 
L 352.686356 314.376584 
L 343.759942 313.250599 
L 341.16554 316.060263 
L 333.504203 314.425929 
L 320.681881 316.345402 
L 299.205368 309.800116 
L 310.830173 298.179949 
L 309.780357 289.93012 
L 300.073039 287.769553 
L 299.069588 279.632654 
L 294.870988 269.400097 
L 300.351886 262.381898 
z
" clip-path="url(#pb1b177371e)" style="fill: #e8edf4; stroke: #b8c5d4; stroke-width: 0.45"/>
    <path d="M 383.387999 190.460915 
L 386.710318 184.81708 
L 397.412476 185.419813 
L 403.503394 178.33571 
L 407.577473 170.111381 
L 424.715631 167.132819 
L 422.043734 173.076365 
L 423.879753 176.639115 
L 429.170559 176.307943 
L 424.477187 180.263463 
L 410.526892 178.117136 
L 409.312815 185.50658 
L 423.210123 184.513064 
L 439.046111 188.675235 
L 463.279301 186.72993 
L 466.528099 198.591191 
L 470.740609 197.300613 
L 478.524479 200.218571 
L 478.078059 205.20238 
L 480.000844 212.508368 
L 457.95604 211.543664 
L 449.968831 217.281884 
L 444.279956 218.554247 
L 439.814431 221.247339 
L 434.739549 217.050063 
L 435.934418 206.282001 
L 432.057055 205.673307 
L 433.450627 201.755872 
L 426.512571 198.841557 
L 420.994581 203.300459 
L 419.639425 208.468731 
L 417.665639 210.352107 
L 410.00364 210.085844 
L 405.86995 215.954214 
L 401.55279 213.47804 
L 392.274672 217.595172 
L 388.35823 216.033033 
L 395.561886 203.061683 
L 392.793287 193.518959 
z
" clip-path="url(#pb1b177371e)" style="fill: #e8edf4; stroke: #b8c5d4; stroke-width: 0.45"/>
    <path d="M 409.312815 185.50658 
L 410.526892 178.117136 
L 424.477187 180.263463 
L 429.170559 176.307943 
L 438.920266 177.570702 
L 455.333157 168.339942 
L 440.140967 161.587011 
L 431.011876 164.782491 
L 421.554924 159.957975 
L 432.311395 151.656152 
L 428.505565 150.394386 
L 431.376165 144.778701 
L 439.814431 142.97017 
L 460.90016 147.385688 
L 462.893816 139.818736 
L 470.168343 137.164722 
L 488.421226 142.553555 
L 493.078831 141.142099 
L 533.348037 142.833064 
L 539.775426 147.439669 
L 547.675206 149.319733 
L 545.87363 152.217158 
L 525.676766 159.160181 
L 521.107916 164.247648 
L 504.667206 165.770708 
L 499.820833 173.954965 
L 486.253374 172.235851 
L 477.397169 174.743486 
L 465.161683 180.798968 
L 466.927493 183.797732 
L 463.279301 186.72993 
L 439.046111 188.675235 
L 423.210123 184.513064 
z
" clip-path="url(#pb1b177371e)" style="fill: #e8edf4; stroke: #b8c5d4; stroke-width: 0.45"/>
    <path d="M 191.902949 156.583 
L 197.565993 152.318496 
L 212.115047 149.651567 
L 220.77851 153.242136 
L 229.7493 163.292216 
L 250.784029 162.491773 
L 248.679762 156.035572 
L 259.629637 151.619723 
L 270.427835 144.172987 
L 287.697799 150.94645 
L 289.06819 161.173708 
L 293.972187 163.798909 
L 307.830415 163.208761 
L 312.131017 165.535245 
L 318.431235 178.749344 
L 341.450348 193.636194 
L 354.854208 199.912899 
L 371.902949 205.398765 
L 371.54992 213.241584 
L 367.689115 212.844177 
L 361.642575 209.417208 
L 359.634347 213.979435 
L 348.831512 216.458258 
L 346.272876 226.708698 
L 339.04935 230.606594 
L 328.932041 232.539315 
L 326.254846 238.34708 
L 316.590581 240.056591 
L 303.519217 235.193659 
L 302.394556 224.407714 
L 292.84024 223.949041 
L 278.191835 212.598116 
L 267.955966 211.196927 
L 253.783786 204.699661 
L 244.669929 203.51837 
L 239.043315 205.90579 
L 230.471256 205.534215 
L 221.354749 212.861729 
L 210.092247 215.341877 
L 207.707146 206.277365 
L 209.570983 192.871186 
L 199.574883 188.532831 
L 202.866072 179.75677 
L 194.357597 179.008983 
L 197.193755 168.205486 
L 209.278889 171.351952 
L 220.54139 167.250717 
L 211.203661 159.557919 
L 207.5303 152.226762 
L 197.212963 155.496093 
L 195.904833 164.887803 
z
" clip-path="url(#pb1b177371e)" style="fill: #e8edf4; stroke: #b8c5d4; stroke-width: 0.45"/>
    <path d="M 84.325658 186.769671 
L 93.102381 183.118498 
L 95.136441 187.953611 
L 101.609531 193.870332 
L 110.400826 195.574213 
L 115.041872 195.197339 
L 130.157893 185.741381 
L 134.964525 184.79456 
L 138.751148 188.556013 
L 134.331987 194.897297 
L 142.325157 201.608831 
L 145.515007 200.969669 
L 149.569879 210.420659 
L 161.722571 213.090569 
L 170.62514 219.521601 
L 188.846893 221.731181 
L 208.864261 218.339647 
L 210.092247 215.341877 
L 221.354749 212.861729 
L 230.471256 205.534215 
L 239.043315 205.90579 
L 244.669929 203.51837 
L 253.783786 204.699661 
L 267.955966 211.196927 
L 278.191835 212.598116 
L 292.84024 223.949041 
L 302.394556 224.407714 
L 303.519217 235.193659 
L 294.772961 260.489911 
L 300.351886 262.381898 
L 294.870988 269.400097 
L 299.069588 279.632654 
L 300.073039 287.769553 
L 309.780357 289.93012 
L 310.830173 298.179949 
L 299.205368 309.800116 
L 305.550626 316.541456 
L 310.710288 324.282274 
L 322.962995 329.91783 
L 323.316686 341.206163 
L 329.449332 343.280956 
L 330.509745 349.183437 
L 312.02173 355.80423 
L 307.191916 370.694392 
L 269.104471 363.8792 
L 254.640197 362.213736 
L 249.17387 346.4973 
L 243.039238 344.226121 
L 233.190179 346.516177 
L 220.262544 352.719362 
L 204.600089 348.467774 
L 191.661194 338.618053 
L 179.320396 334.967211 
L 170.760921 322.805908 
L 161.302645 305.717426 
L 154.404992 307.794538 
L 146.259482 303.547255 
L 141.474045 308.549942 
L 134.381 301.812245 
L 134.254492 294.9848 
L 130.160542 294.988443 
L 132.261498 285.704695 
L 125.666537 275.963929 
L 109.961692 268.938443 
L 101.08363 256.755614 
L 104.054244 246.753885 
L 110.505477 242.330419 
L 109.538454 234.84361 
L 101.133968 230.996384 
L 92.829124 215.70676 
L 85.819244 205.438506 
L 88.326879 201.469077 
z
" clip-path="url(#pb1b177371e)" style="fill: #e8edf4; stroke: #b8c5d4; stroke-width: 0.45"/>
    <path d="M -23.201296 272.88734 
L -21.708372 270.8503 
L -21.904426 265.604202 
L -18.759616 258.586996 
L -11.770559 253.756519 
L -13.866879 248.73032 
L -19.631923 248.076917 
L -20.828779 238.27058 
L -17.691917 232.996001 
L -10.826718 227.379984 
L -10.133244 220.230309 
L -5.938618 222.723042 
L 8.172627 219.157642 
L 14.993448 221.570894 
L 25.537968 221.530822 
L 40.286388 216.72154 
L 47.192651 216.938458 
L 61.772173 214.945133 
L 55.203043 222.943271 
L 48.187493 226.109608 
L 49.395608 235.472506 
L 44.55321 250.967719 
L 16.178382 264.306339 
L -8.921154 277.966196 
z
" clip-path="url(#pb1b177371e)" style="fill: #e8edf4; stroke: #b8c5d4; stroke-width: 0.45"/>
    <path d="M 77.577694 165.441854 
L 95.390118 163.442568 
L 98.043469 166.810589 
L 102.924947 169.02878 
L 100.34644 172.243136 
L 107.174547 176.639778 
L 103.561459 180.721805 
L 109.002618 184.207723 
L 114.757064 186.308017 
L 115.041872 195.197339 
L 110.400826 195.574213 
L 105.168307 188.159269 
L 105.227255 186.18184 
L 99.564212 186.210652 
L 95.768317 182.772423 
L 93.102381 183.118498 
L 88.052669 179.375922 
L 78.522197 176.190046 
L 79.755482 169.95275 
z
" clip-path="url(#pb1b177371e)" style="fill: #e8edf4; stroke: #b8c5d4; stroke-width: 0.45"/>
    <path d="M -197.954205 71.49064 
L -195.451868 66.323692 
L -191.897729 62.986802 
L -189.099987 63.734588 
L -192.406409 57.974843 
L -180.767696 47.314412 
L -174.407204 45.822813 
L -173.03284 42.227277 
L -179.478774 31.037302 
L -173.35209 30.537563 
L -166.327929 27.063899 
L -156.398726 26.779422 
L -143.451221 27.783867 
L -129.145909 30.859794 
L -119.051783 31.117114 
L -114.232566 32.96936 
L -109.423285 30.734942 
L -106.063874 33.731718 
L -94.497357 33.117725 
L -89.399293 34.356309 
L -88.574674 27.905407 
L -84.625778 25.091437 
L -68.836457 24.849237 
L -65.598614 21.934042 
L -61.706017 22.577841 
L -48.415417 21.339588 
L -40.224868 28.596563 
L -43.425978 31.191628 
L -42.36424 35.17033 
L -32.144268 35.790947 
L -27.584865 41.348875 
L -27.8642 43.870553 
L -11.585765 48.377143 
L -1.751277 46.347389 
L 6.1591 52.349553 
L 13.648889 52.211123 
L 32.542022 56.381974 
L 32.692611 60.145345 
L 27.487069 66.856528 
L 30.319273 73.92403 
L 28.302593 78.1982 
L 15.899346 79.137916 
L 9.292651 82.716713 
L 8.887958 88.410224 
L -1.34526 89.435201 
L -9.87228 93.581808 
L -21.871309 94.25773 
L -32.911263 99.03555 
L -32.26634 105.898763 
L -34.200022 105.508388 
L -35.863363 102.977217 
L -49.097776 99.722853 
L -52.474757 102.897088 
L -54.236099 101.504107 
L -74.159414 98.264582 
L -75.041656 93.485105 
L -86.917489 95.063472 
L -91.674445 102.121743 
L -101.599012 111.594922 
L -107.412407 109.395277 
L -113.435766 111.457486 
L -119.155109 109.095897 
L -115.92883 107.70365 
L -110.181006 99.219682 
L -111.087756 96.924659 
L -108.407248 95.902 
L -107.144158 97.676089 
L -99.590784 98.051307 
L -96.198257 97.103492 
L -98.587995 95.803973 
L -97.68257 93.893772 
L -102.15803 90.635369 
L -104.010607 85.277004 
L -108.679472 83.180354 
L -107.758813 78.837031 
L -113.549689 75.388536 
L -118.82195 74.908998 
L -128.268303 70.915725 
L -136.788038 72.183452 
L -139.844756 74.073782 
L -145.252135 74.071795 
L -148.475764 77.067578 
L -157.937352 78.299207 
L -162.31346 80.267032 
L -168.263961 77.135137 
L -176.481004 77.087449 
L -184.411252 75.668045 
L -189.944476 78.4128 
L -190.837978 74.97722 
z
" clip-path="url(#pb1b177371e)" style="fill: #e8edf4; stroke: #b8c5d4; stroke-width: 0.45"/>
    <path d="M -145.593904 186.314971 
L -131.376685 174.056635 
L -111.638826 173.54398 
L -106.255292 163.803215 
L -81.826711 165.499809 
L -66.419921 157.186064 
L -51.484058 153.56271 
L -30.279107 153.290155 
L -7.907767 162.324531 
L 10.478909 167.281847 
L 25.410136 165.305743 
L 36.443467 166.447624 
L 51.576046 159.757285 
L 65.23226 159.148259 
L 77.577694 165.441854 
L 79.755482 169.95275 
L 78.522197 176.190046 
L 88.052669 179.375922 
L 93.102381 183.118498 
L 84.325658 186.769671 
L 88.326879 201.469077 
L 85.819244 205.438506 
L 92.829215 215.706928 
L 86.686915 217.872032 
L 82.185623 214.607337 
L 67.277579 212.953464 
L 61.772173 214.945133 
L 47.192651 216.938458 
L 40.286388 216.72154 
L 25.537968 221.530822 
L 14.993448 221.570894 
L 8.172627 219.157642 
L -5.938618 222.723042 
L -10.133244 220.230309 
L -10.826718 227.379984 
L -17.691917 232.996001 
L -22.404496 227.18393 
L -17.550175 222.369681 
L -25.367162 223.461224 
L -36.087204 220.512136 
L -44.901019 227.889327 
L -64.35407 229.329926 
L -74.730355 222.450818 
L -88.546856 222.020294 
L -91.501574 227.337925 
L -100.359766 228.858336 
L -112.754876 222.033541 
L -126.747561 222.264368 
L -134.340675 209.517222 
L -143.704236 202.406625 
L -137.468927 192.439669 
z
" clip-path="url(#pb1b177371e)" style="fill: #e8edf4; stroke: #b8c5d4; stroke-width: 0.45"/>
    <path d="M -147.227245 171.522175 
L -147.053049 168.877103 
L -144.006928 167.439816 
L -140.038823 159.418165 
L -146.282742 156.024313 
L -133.22595 151.992292 
L -122.190632 153.711406 
L -120.667903 158.639248 
L -109.479584 162.778568 
L -111.81236 165.918411 
L -127.031707 166.625132 
L -143.194231 177.491883 
z
" clip-path="url(#pb1b177371e)" style="fill: #e8edf4; stroke: #b8c5d4; stroke-width: 0.45"/>
    <path d="M 463.279301 186.72993 
L 466.927493 183.797732 
L 465.161683 180.798968 
L 477.397169 174.743486 
L 486.253374 172.235851 
L 499.820833 173.954965 
L 504.667206 165.770708 
L 521.107916 164.247648 
L 525.676766 159.160181 
L 545.87363 152.217158 
L 547.675206 149.319733 
L 546.651884 142.013082 
L 555.445167 138.676854 
L 543.908454 116.41149 
L 569.298759 111.290906 
L 575.859279 108.437527 
L 585.107592 85.489948 
L 610.534325 89.707756 
L 617.663137 83.914231 
L 618.275143 71.061441 
L 628.92034 69.863922 
L 638.676671 61.330279 
L 643.691941 60.276489 
L 647.057312 69.219461 
L 657.829679 76.017432 
L 676.113693 80.830687 
L 684.957313 91.153654 
L 680.022186 106.129588 
L 684.633427 111.68765 
L 717.127374 115.66867 
L 732.612982 123.655549 
L 740.533295 125.078264 
L 746.372522 136.894155 
L 753.895428 144.505152 
L 768.024556 144.207097 
L 794.47991 147.080678 
L 811.527327 145.297647 
L 824.180089 147.206523 
L 843.139693 154.991718 
L 858.648484 154.980458 
L 864.322787 158.965783 
L 879.246066 152.084027 
L 899.95161 147.634067 
L 919.162243 147.147906 
L 934.139171 142.638997 
L 943.336483 135.77413 
L 952.307274 131.463925 
L 950.232812 127.233532 
L 946.139524 122.30834 
L 952.867617 114.045927 
L 973.254573 117.803737 
L 986.025895 110.998812 
L 1005.569025 106.033217 
L 1014.961066 97.561503 
L 1023.982195 93.914636 
L 1042.600692 92.214067 
L 1052.712702 93.658971 
L 1054.116872 89.104029 
L 1042.501341 80.14483 
L 1032.216459 76.047568 
L 1022.364751 80.777369 
L 1009.719936 78.781725 
L 1002.463955 80.40778 
L 999.162831 75.167644 
L 1014.460334 52.697284 
L 1029.846591 57.536371 
L 1047.908719 49.437225 
L 1047.792458 43.797205 
L 1059.362366 30.202958 
L 1066.490236 26.094295 
L 1066.331162 19.017741 
L 1059.298391 15.971619 
L 1069.885302 9.5949 
L 1085.812694 7.28365 
L 1102.804664 6.936638 
L 1121.988613 10.753009 
L 1133.243829 15.472874 
L 1150.432987 41.786487 
L 1155.174616 54.341229 
L 1177.481802 58.438484 
L 1192.663394 67.550354 
L 1197.85391 79.592796 
L 1217.328663 79.607792 
L 1228.439919 74.551664 
L 1249.623013 70.773321 
L 1242.887585 82.305929 
L 1237.908638 86.996619 
L 1233.516126 101.038479 
L 1224.896289 113.507471 
L 1209.34056 111.237919 
L 1198.340065 115.764954 
L 1201.715653 126.742073 
L 1199.871687 141.885912 
L 1193.324414 142.231656 
L 1193.403025 148.742641 
L 1185.126579 141.175879 
L 1180.030502 148.358671 
L 1160.235019 153.87898 
L 1162.237286 160.64019 
L 1151.154942 160.173899 
L 1145.070648 156.156781 
L 1136.264781 165.247125 
L 1122.138965 172.136499 
L 1111.701744 180.356522 
L 1093.782682 184.08254 
L 1084.346926 190.07245 
L 1070.544997 193.571284 
L 1077.356545 187.632043 
L 1074.674713 182.640948 
L 1084.823814 174.025505 
L 1078.053331 167.309996 
L 1066.880246 171.83447 
L 1052.409348 180.746643 
L 1044.512218 189.022966 
L 1031.942249 189.638946 
L 1025.404911 195.619915 
L 1032.159497 204.286358 
L 1042.649706 206.390295 
L 1043.078905 212.143417 
L 1053.219395 215.886987 
L 1067.582993 206.735045 
L 1078.962067 211.724815 
L 1087.250643 212.066254 
L 1089.327755 218.780769 
L 1071.180847 222.360408 
L 1065.193255 229.28025 
L 1052.729261 235.709957 
L 1046.149533 244.681078 
L 1059.944839 251.724447 
L 1064.97998 264.331508 
L 1072.781071 276.07719 
L 1081.485599 285.922606 
L 1081.277623 295.443473 
L 1073.23279 298.943632 
L 1076.299443 305.779687 
L 1083.843545 309.758058 
L 1081.873733 320.197597 
L 1078.618311 330.355308 
L 1071.456382 331.506794 
L 1051.715874 362.202476 
L 1039.813548 377.498323 
L 1004.359584 400.114399 
L 989.915843 401.585797 
L 982.080973 407.280632 
L 977.649227 403.120448 
L 970.398545 409.490213 
L 952.486769 415.909985 
L 938.924608 417.875491 
L 934.5485 431.411821 
L 927.44552 432.162588 
L 924.084785 422.860294 
L 927.120309 417.902316 
L 909.923865 413.798762 
L 903.866064 415.885809 
L 890.962273 412.559516 
L 884.859433 407.351834 
L 886.886207 399.968352 
L 875.169337 397.627627 
L 868.99099 392.819008 
L 858.066284 399.649433 
L 845.603614 401.128448 
L 835.381655 401.063869 
L 821.859897 406.070198 
L 823.796592 420.730857 
L 816.963848 420.381139 
L 815.425885 412.071368 
L 806.024571 415.803016 
L 790.956239 408.632146 
L 794.687224 397.984631 
L 786.570857 395.502164 
L 783.514139 383.703164 
L 769.985095 385.829289 
L 771.521734 370.625177 
L 783.662504 359.922025 
L 783.801596 339.541361 
L 778.207436 336.485635 
L 773.923394 328.939878 
L 766.426982 329.892992 
L 752.606506 327.977492 
L 756.935588 322.594952 
L 750.925477 314.624963 
L 741.788437 320.022075 
L 731.037266 316.872628 
L 716.263677 325.034697 
L 704.597145 334.567486 
L 694.260601 336.171353 
L 688.64922 332.725176 
L 681.877412 332.413212 
L 672.717191 329.446241 
L 665.795694 332.697689 
L 657.316363 342.226504 
L 656.240716 332.132378 
L 648.423729 334.828119 
L 633.479918 333.575626 
L 618.981202 330.636473 
L 608.57776 325.007209 
L 598.61809 322.480697 
L 594.316826 316.324207 
L 587.115157 314.484877 
L 574.174937 306.134041 
L 563.899329 302.193424 
L 558.586003 305.259747 
L 540.771592 296.297566 
L 528.179103 288.181862 
L 524.584561 274.054059 
L 533.783198 275.776485 
L 534.203124 269.231862 
L 529.104398 262.672004 
L 530.401268 252.216569 
L 516.62517 237.193939 
L 495.546064 232.010764 
L 491.752818 222.162036 
L 482.28262 216.186366 
L 480.000844 212.508368 
L 478.078059 205.20238 
L 478.524479 200.218571 
L 470.740609 197.300613 
L 466.528099 198.591191 
z
" clip-path="url(#pb1b177371e)" style="fill: #e8edf4; stroke: #b8c5d4; stroke-width: 0.45"/>
    <path d="M 911.249216 443.884757 
L 917.565993 438.07666 
L 931.569275 434.485098 
L 938.938517 434.789114 
L 941.803156 439.680195 
L 936.171243 445.320388 
L 933.204603 452.722085 
L 922.130869 458.883211 
L 911.620791 454.910139 
z
" clip-path="url(#pb1b177371e)" style="fill: #e8edf4; stroke: #b8c5d4; stroke-width: 0.45"/>
    <path d="M 95.390118 163.442568 
L 98.52963 161.349229 
L 108.080634 165.035175 
L 114.989547 165.796871 
L 116.736149 164.294343 
L 110.424008 157.358605 
L 113.750301 155.591471 
L 117.353454 156.021332 
L 126.16197 163.806526 
L 131.831637 164.682146 
L 134.031282 161.421425 
L 141.684017 156.25548 
L 148.424685 163.004759 
L 154.94414 172.096758 
L 160.915836 172.69618 
L 164.863407 176.15163 
L 154.306965 177.1829 
L 152.077514 187.136941 
L 149.87257 191.62631 
L 145.172575 194.622093 
L 145.515007 200.969669 
L 142.325157 201.608831 
L 134.331987 194.897297 
L 138.751148 188.556013 
L 134.964525 184.79456 
L 130.157893 185.741381 
L 115.041872 195.197339 
L 114.757064 186.308017 
L 109.002618 184.207723 
L 103.561459 180.721805 
L 107.174547 176.639778 
L 100.34644 172.243136 
L 102.924947 169.02878 
L 98.043469 166.810589 
z
" clip-path="url(#pb1b177371e)" style="fill: #e8edf4; stroke: #b8c5d4; stroke-width: 0.45"/>
    <path d="M 93.102381 183.118498 
L 95.768317 182.772423 
L 99.564212 186.210652 
L 105.227255 186.18184 
L 105.168307 188.159269 
L 110.400826 195.574213 
L 101.609531 193.870332 
L 95.136441 187.953611 
z
" clip-path="url(#pb1b177371e)" style="fill: #e8edf4; stroke: #b8c5d4; stroke-width: 0.45"/>
    <path d="M 31.080465 135.413153 
L 32.643598 133.899365 
L 62.346495 138.164964 
L 79.79819 144.3104 
L 82.04401 146.692722 
L 89.816491 144.680011 
L 101.770481 147.361512 
L 105.694075 152.620907 
L 113.750301 155.591471 
L 110.424008 157.358605 
L 116.736149 164.294343 
L 114.989547 165.796871 
L 108.080634 165.035175 
L 98.52963 161.349229 
L 95.390118 163.442568 
L 77.577694 165.441854 
L 65.23226 159.148259 
L 51.576046 159.757285 
L 53.486909 154.280691 
L 50.286461 145.537085 
L 42.878141 140.813908 
L 35.776486 139.339861 
z
" clip-path="url(#pb1b177371e)" style="fill: #e8edf4; stroke: #b8c5d4; stroke-width: 0.45"/>
    <path d="M -37.140993 332.495342 
L -32.992069 315.858579 
L -18.727823 317.897275 
L -13.187313 313.952684 
L -10.119997 309.338131 
L -0.339822 307.563049 
L 1.769082 303.270727 
L 6.008086 301.093932 
L -6.766548 288.277902 
L 18.902604 281.846208 
L 21.345329 279.913488 
L 36.783911 283.387152 
L 55.881283 292.358936 
L 92.019448 318.135719 
L 127.270734 320.3963 
L 130.462571 326.503114 
L 139.527415 326.170617 
L 144.545335 337.223818 
L 150.850852 340.15138 
L 153.047186 344.653002 
L 161.782182 350.040511 
L 162.557787 355.329329 
L 161.280787 359.598138 
L 162.902868 363.903707 
L 166.588152 367.4956 
L 170.211837 374.840667 
L 174.086551 377.383737 
L 177.639366 376.473014 
L 185.472249 397.316657 
L 224.001477 403.77915 
L 226.584619 401.06983 
L 232.458951 410.148583 
L 223.914047 435.782962 
L 185.462976 448.599985 
L 148.506816 453.513255 
L 136.544216 459.280949 
L 127.358826 472.738791 
L 121.377195 474.875182 
L 118.172774 470.60273 
L 113.259504 471.24388 
L 100.869692 469.961912 
L 98.519695 468.680276 
L 83.728223 468.974688 
L 80.253565 470.133128 
L 74.989253 466.800543 
L 71.592752 473.100762 
L 72.907505 478.503835 
L 67.280228 482.592486 
L 65.617082 477.122847 
L 61.751641 473.262705 
L 60.763423 468.149738 
L 54.143292 463.557043 
L 47.311873 452.809183 
L 43.696798 442.364677 
L 34.831321 433.544569 
L 29.11529 431.439639 
L 20.626686 419.224355 
L 19.143697 410.316818 
L 19.690131 402.719068 
L 12.338772 388.507478 
L 6.32866 383.505785 
L -0.595487 380.855084 
L -4.809983 373.51101 
L -4.109223 370.613586 
L -7.670648 363.968948 
L -11.413555 361.10729 
L -16.418229 351.572513 
L -30.759969 332.433744 
z
" clip-path="url(#pb1b177371e)" style="fill: #e8edf4; stroke: #b8c5d4; stroke-width: 0.45"/>
   </g>
   <g id="PathCollection_1">
    <defs>
     <path id="md30b8e65f2" d="M 0 2.12132 
C 0.562581 2.12132 1.102195 1.897805 1.5 1.5 
C 1.897805 1.102195 2.12132 0.562581 2.12132 0 
C 2.12132 -0.562581 1.897805 -1.102195 1.5 -1.5 
C 1.102195 -1.897805 0.562581 -2.12132 0 -2.12132 
C -0.562581 -2.12132 -1.102195 -1.897805 -1.5 -1.5 
C -1.897805 -1.102195 -2.12132 -0.562581 -2.12132 0 
C -2.12132 0.562581 -1.897805 1.102195 -1.5 1.5 
C -1.102195 1.897805 -0.562581 2.12132 0 2.12132 
z
" style="stroke: #ffffff; stroke-width: 0.5"/>
    </defs>
    <g clip-path="url(#pb1b177371e)">
     <use xlink:href="#md30b8e65f2" x="166.877992" y="358.880023" style="fill: #8aa0b7; stroke: #ffffff; stroke-width: 0.5"/>
     <use xlink:href="#md30b8e65f2" x="105.355703" y="314.02002" style="fill: #8aa0b7; stroke: #ffffff; stroke-width: 0.5"/>
    </g>
   </g>
   <g id="PatchCollection_2">
    <defs>
     <path id="mfe2ed1fd7c" d="M 191.902949 -202.297023 
L 197.565993 -206.561526 
L 212.115047 -209.228456 
L 220.77851 -205.637887 
L 229.7493 -195.587807 
L 250.784029 -196.38825 
L 248.679762 -202.84445 
L 259.629637 -207.2603 
L 270.427835 -214.707036 
L 287.697799 -207.933572 
L 289.06819 -197.706315 
L 293.972187 -195.081113 
L 307.830415 -195.671262 
L 312.131017 -193.344778 
L 318.431235 -180.130679 
L 341.450348 -165.243829 
L 354.854208 -158.967124 
L 371.902949 -153.481258 
L 371.54992 -145.638439 
L 367.689115 -146.035846 
L 361.642575 -149.462815 
L 359.634347 -144.900588 
L 348.831512 -142.421764 
L 346.272876 -132.171325 
L 339.04935 -128.273429 
L 328.932041 -126.340708 
L 326.254846 -120.532943 
L 316.590581 -118.823432 
L 303.519217 -123.686364 
L 302.394556 -134.472309 
L 292.84024 -134.930982 
L 278.191835 -146.281907 
L 267.955966 -147.683096 
L 253.783786 -154.180362 
L 244.669929 -155.361653 
L 239.043315 -152.974233 
L 230.471256 -153.345808 
L 221.354749 -146.018294 
L 210.092247 -143.538146 
L 207.707146 -152.602658 
L 209.570983 -166.008837 
L 199.574883 -170.347192 
L 202.866072 -179.123253 
L 194.357597 -179.87104 
L 197.193755 -190.674537 
L 209.278889 -187.528071 
L 220.54139 -191.629306 
L 211.203661 -199.322104 
L 207.5303 -206.653261 
L 197.212963 -203.38393 
L 195.904833 -193.992219 
z
" style="stroke: #b45309; stroke-width: 1.15"/>
    </defs>
    <g clip-path="url(#pb1b177371e)">
     <use xlink:href="#mfe2ed1fd7c" x="0" y="358.880023" style="fill: #f59e0b; stroke: #b45309; stroke-width: 1.15"/>
    </g>
   </g>
   <g id="PathCollection_2">
    <defs>
     <path id="m785e943950" d="M 0 3.316625 
C 0.879579 3.316625 1.723251 2.967164 2.345208 2.345208 
C 2.967164 1.723251 3.316625 0.879579 3.316625 0 
C 3.316625 -0.879579 2.967164 -1.723251 2.345208 -2.345208 
C 1.723251 -2.967164 0.879579 -3.316625 0 -3.316625 
C -0.879579 -3.316625 -1.723251 -2.967164 -2.345208 -2.345208 
C -2.967164 -1.723251 -3.316625 -0.879579 -3.316625 0 
C -3.316625 0.879579 -2.967164 1.723251 -2.345208 2.345208 
C -1.723251 2.967164 -0.879579 3.316625 0 3.316625 
z
" style="stroke: #ffffff"/>
    </defs>
    <g clip-path="url(#pb1b177371e)">
     <use xlink:href="#m785e943950" x="288" y="179.440011" style="fill: #f97316; stroke: #ffffff"/>
    </g>
   </g>
   <g id="PathCollection_3">
    <path d="M 288 183.88973 
C 289.180079 183.88973 290.311984 183.42088 291.146427 182.586438 
C 291.980869 181.751996 292.449719 180.620091 292.449719 179.440011 
C 292.449719 178.259932 291.980869 177.128027 291.146427 176.293585 
C 290.311984 175.459143 289.180079 174.990292 288 174.990292 
C 286.819921 174.990292 285.688016 175.459143 284.853573 176.293585 
C 284.019131 177.128027 283.550281 178.259932 283.550281 179.440011 
C 283.550281 180.620091 284.019131 181.751996 284.853573 182.586438 
C 285.688016 183.42088 286.819921 183.88973 288 183.88973 
L 288 183.88973 
z
" clip-path="url(#pb1b177371e)" style="fill: none; stroke: #7c2d12; stroke-width: 1.1"/>
   </g>
  </g>
 </g>
 <defs>
  <clipPath id="pb1b177371e">
   <rect x="0" y="0" width="576" height="358.880023"/>
  </clipPath>
 </defs>
</svg>
