<?xml version="1.0" encoding="utf-8" standalone="no"?>
<!DOCTYPE svg PUBLIC "-//W3C//DTD SVG 1.1//EN"
  "http://www.w3.org/Graphics/SVG/1.1/DTD/svg11.dtd">
<svg xmlns:xlink="http://www.w3.org/1999/xlink" width="576pt" height="403.2pt" viewBox="0 0 576 403.2" xmlns="http://www.w3.org/2000/svg" version="1.1">
 <metadata>
  <rdf:RDF xmlns:dc="http://purl.org/dc/elements/1.1/" xmlns:cc="http://creativecommons.org/ns#" xmlns:rdf="http://www.w3.org/1999/02/22-rdf-syntax-ns#">
   <cc:Work>
    <dc:type rdf:resource="http://purl.org/dc/dcmitype/StillImage"/>
    <dc:date>2026-06-09T04:56:56.072539</dc:date>
    <dc:format>image/svg+xml</dc:format>
    <dc:creator>
     <cc:Agent>
      <dc:title>Matplotlib v3.10.8, https://matplotlib.org/</dc:title>
     </cc:Agent>
    </dc:creator>
   </cc:Work>
  </rdf:RDF>
 </metadata>
 <defs>
  <style type="text/css">*{stroke-linejoin: round; stroke-linecap: butt}</style>
 </defs>
 <g id="figure_1">
  <g id="patch_1">
   <path d="M 0 403.2 
L 576 403.2 
L 576 0 
L 0 0 
z
" style="fill: #eaf3ff"/>
  </g>
  <g id="axes_1">
   <g id="PatchCollection_1">
    <path d="M 309.658276 77.624827 
L 318.183456 66.431426 
L 313.86973 63.418992 
L 325.653865 47.192147 
L 340.841966 55.757396 
L 342.681329 44.97041 
L 373.168961 28.906894 
L 396.23961 28.524521 
L 446.28096 44.725514 
L 461.951705 38.495262 
L 485.365957 38.198548 
L 504.255247 45.85193 
L 508.546076 41.469133 
L 529.29119 42.106041 
L 532.99205 35.111501 
L 509.058961 24.95379 
L 523.233504 17.759286 
L 520.467591 13.735584 
L 534.64595 9.895437 
L 523.983751 -0.221441 
L 530.755938 -5.261538 
L 586.021419 -10.400903 
L 593.233772 -14.049231 
L 630.18979 -19.50117 
L 643.468312 -25.62831 
L 670.010091 -22.445296 
L 674.660397 -7.137751 
L 690.079754 -10.732141 
L 709.048853 -5.695263 
L 707.825409 2.365879 
L 721.991188 1.523446 
L 759.00702 -12.413899 
L 753.602651 -7.783436 
L 772.444291 3.627102 
L 805.448264 41.135987 
L 813.3186 33.40303 
L 833.663787 41.912183 
L 854.88744 38.116684 
L 863.041695 40.77422 
L 870.149574 49.308559 
L 880.475956 52.175218 
L 886.763372 58.443935 
L 905.787422 56.467574 
L 913.624177 65.501822 
L 902.38193 75.335164 
L 890.115439 76.715068 
L 889.410223 91.525374 
L 881.195674 98.201269 
L 851.896377 93.341077 
L 841.23952 119.783637 
L 833.679814 123.071594 
L 804.422495 128.972057 
L 817.716281 154.628499 
L 807.583757 158.472844 
L 808.762933 166.892318 
L 799.659995 164.725915 
L 792.253696 159.417712 
L 745.851377 157.469208 
L 740.484406 159.095632 
L 719.451557 152.886065 
L 711.069099 155.944292 
L 708.771803 164.663712 
L 684.474658 159.575699 
L 674.75122 161.659674 
L 671.44342 168.130644 
L 662.975481 170.860686 
L 643.495788 181.155777 
L 637.033594 191.7241 
L 631.53077 191.817976 
L 627.483408 184.822291 
L 608.699772 184.342988 
L 605.695734 172.244025 
L 598.499321 172.140608 
L 599.601413 157.326867 
L 581.919868 146.539118 
L 556.590085 147.6912 
L 539.27336 149.841576 
L 525.169033 136.529473 
L 487.4308 119.087198 
L 449.411701 127.815013 
L 449.991749 182.272369 
L 442.416016 182.99285 
L 432.078949 171.412114 
L 422.096016 167.274692 
L 405.3311 170.347802 
L 398.805559 175.261801 
L 397.976701 171.660542 
L 401.606581 165.505545 
L 398.790295 160.359908 
L 381.672771 155.328373 
L 375.00985 142.064734 
L 366.854832 138.328385 
L 366.360265 133.516275 
L 380.728666 134.919076 
L 381.29574 124.120641 
L 393.856833 121.722219 
L 406.757561 123.927928 
L 409.41586 109.519076 
L 406.785037 100.386372 
L 392.005259 101.100747 
L 379.450271 97.496053 
L 362.349538 103.990302 
L 348.570978 107.086818 
L 341.069538 104.698486 
L 342.568372 97.098415 
L 333.153231 87.230474 
L 322.194314 87.642831 
z
" clip-path="url(#pcfc9dfad56)" style="fill: #e8edf4; stroke: #b8c5d4; stroke-width: 0.45"/>
    <path d="M 449.411701 127.815013 
L 487.4308 119.087198 
L 525.169033 136.529473 
L 539.27336 149.841576 
L 556.590085 147.6912 
L 581.919868 146.539118 
L 599.601413 157.326867 
L 598.499321 172.140608 
L 605.695734 172.244025 
L 608.699772 184.342988 
L 627.483408 184.822291 
L 631.53077 191.817976 
L 637.033594 191.7241 
L 643.495788 181.155777 
L 662.975481 170.860686 
L 671.44342 168.130644 
L 675.828889 169.584581 
L 663.434177 179.150795 
L 674.331449 184.710098 
L 684.850926 181.027937 
L 702.35693 188.809358 
L 683.444309 199.44599 
L 672.209694 197.990909 
L 666.113083 198.372519 
L 663.997434 194.267153 
L 667.076269 187.418388 
L 647.327921 190.850593 
L 642.633348 200.32751 
L 635.614766 208.490542 
L 623.282639 207.796011 
L 619.454321 214.299418 
L 630.292062 217.823211 
L 633.482326 228.819319 
L 625.181533 243.766242 
L 614.04232 240.647721 
L 605.81327 240.549647 
L 606.220067 231.512345 
L 586.574754 225.190966 
L 571.129448 217.958301 
L 544.60446 200.804142 
L 537.3447 185.577498 
L 532.389105 182.896684 
L 516.420229 183.576714 
L 510.769339 180.551687 
L 509.190235 168.766789 
L 489.290007 160.961708 
L 476.847212 169.542604 
L 464.22964 174.630999 
L 466.654394 182.070497 
L 449.991749 182.272369 
z
" clip-path="url(#pcfc9dfad56)" style="fill: #e8edf4; stroke: #b8c5d4; stroke-width: 0.45"/>
    <path d="M 26.410115 -56.485341 
L 32.738744 -61.172664 
L 28.359138 -74.947495 
L 38.868174 -83.45834 
L 36.644234 -86.036234 
L 53.430646 -94.198892 
L 37.956923 -101.221218 
L 83.29833 -128.605924 
L 88.853053 -136.138154 
L 66.991347 -146.25694 
L 73.029189 -155.881158 
L 59.733113 -166.872688 
L 69.676062 -179.534474 
L 52.49854 -196.346381 
L 66.128144 -207.482541 
L 43.509321 -217.323514 
L 45.665421 -227.664398 
L 57.593354 -229.02528 
L 82.723643 -234.950548 
L 97.960172 -240.087877 
L 122.222326 -231.159434 
L 162.667717 -227.644357 
L 218.471483 -210.940062 
L 229.807311 -203.920689 
L 230.783262 -194.091028 
L 214.387643 -186.331274 
L 190.271262 -182.393058 
L 124.337871 -193.618855 
L 113.493268 -191.741982 
L 137.571988 -180.925292 
L 139.479286 -158.981465 
L 170.034166 -150.643643 
L 171.942942 -157.804948 
L 163.04609 -164.152025 
L 172.446129 -169.746018 
L 208.149415 -160.553206 
L 220.587323 -164.152025 
L 210.647631 -174.968418 
L 245.067175 -189.433551 
L 258.698437 -188.582105 
L 272.488615 -183.420258 
L 281.09184 -193.57056 
L 268.776222 -202.374646 
L 276.006646 -211.207532 
L 265.149342 -220.368591 
L 306.461538 -215.630769 
L 314.899791 -207.359557 
L 296.199434 -205.536295 
L 296.300603 -197.317662 
L 307.925908 -192.260972 
L 330.744517 -195.464123 
L 334.357071 -204.884382 
L 416.749735 -224.601305 
L 427.889871 -223.874215 
L 413.329034 -214.911655 
L 431.649674 -213.371372 
L 442.230351 -218.417132 
L 469.912911 -218.825058 
L 491.844923 -224.947495 
L 508.67328 -216.050806 
L 525.457329 -225.831729 
L 509.981538 -234.387692 
L 517.661538 -239.261538 
L 561.289846 -234.792222 
L 581.73216 -230.176025 
L 635.256517 -213.302105 
L 645.130043 -221.030843 
L 630.12096 -228.839778 
L 629.689403 -231.972775 
L 611.890412 -233.421932 
L 616.759532 -240.42432 
L 608.860357 -251.946683 
L 608.41344 -256.674018 
L 635.668578 -270.048 
L 645.361625 -283.471163 
L 656.344615 -286.375385 
L 695.446745 -282.480591 
L 698.525982 -274.265502 
L 684.525932 -262.286474 
L 693.712394 -257.578191 
L 698.464689 -247.25376 
L 695.109415 -227.015631 
L 711.402388 -217.962831 
L 705.063877 -208.104369 
L 676.135385 -187.126154 
L 693.016763 -184.950203 
L 698.891372 -190.267126 
L 715.140775 -194.059717 
L 719.062302 -201.367975 
L 731.844923 -208.400788 
L 723.238302 -216.797391 
L 730.129329 -226.547889 
L 713.979471 -227.763102 
L 710.427618 -235.977305 
L 722.212431 -250.807385 
L 703.031631 -262.850511 
L 729.464418 -272.805268 
L 726.044455 -283.307372 
L 733.410609 -283.642634 
L 741.17184 -275.454425 
L 735.344935 -261.202117 
L 751.149932 -258.503926 
L 744.415458 -269.154609 
L 769.132062 -274.96128 
L 799.78368 -275.743163 
L 827.076923 -267.323077 
L 813.942794 -279.623631 
L 812.471483 -295.358031 
L 838.153846 -298.338462 
L 873.677686 -297.687286 
L 905.6832 -299.621612 
L 893.679655 -307.342818 
L 910.771495 -317.042658 
L 927.739717 -317.448812 
L 956.455385 -324.775385 
L 995.45472 -326.744566 
L 1000.382178 -330.789415 
L 1039.163077 -332.16 
L 1051.247409 -328.844012 
L 1084.394437 -336.692529 
L 1111.527434 -336.447212 
L 1115.598572 -342.82176 
L 1129.710868 -349.108283 
L 1164.577477 -355.16928 
L 1189.907298 -350.383606 
L 1169.796923 -346.743138 
L 1203.251151 -344.480345 
L 1207.236923 -337.181538 
L 1220.733046 -340.775631 
L 1263.910302 -340.578462 
L 1297.20384 -333.374622 
L 1309.058511 -327.842068 
L 1305.384222 -320.164283 
L 1250.233846 -307.594782 
L 1239.138462 -303.212308 
L 1279.298806 -297.418929 
L 1292.596283 -300.21312 
L 1300.129182 -290.733046 
L 1306.616271 -294.570535 
L 1330.232418 -296.903631 
L 1377.619643 -294.464788 
L 1381.218462 -287.556923 
L 1442.963594 -285.359557 
L 1443.807065 -296.640443 
L 1475.150769 -294.055385 
L 1498.72896 -294.136468 
L 1522.578609 -286.356332 
L 1529.377034 -276.904172 
L 1520.64 -270.72 
L 1539.190006 -259.097206 
L 1562.415951 -253.10016 
L 1576.667077 -268.597662 
L 1600.359286 -261.95328 
L 1625.530043 -265.923692 
L 1654.117662 -261.380382 
L 1664.995791 -265.521674 
L 1689.154412 -263.451028 
L 1678.492209 -277.162191 
L 1697.991434 -283.560517 
L 1831.384615 -273.969231 
L 1843.955889 -265.202658 
L 1882.6176 -253.915865 
L 1942.255458 -256.710055 
L 1971.659668 -254.277711 
L 1983.955348 -248.170929 
L 1982.158671 -237.370782 
L 2000.352443 -233.165982 
L 2020.121649 -236.190129 
L 2046.313551 -236.576935 
L 2074.196234 -233.678622 
L 2102.188357 -235.313575 
L 2127.915766 -222.185354 
L 2146.218535 -226.908997 
L 2134.274954 -236.348455 
L 2140.850954 -242.909982 
L 2187.971594 -238.780505 
L 2218.693366 -239.664 
L 2261.169231 -232.615385 
L 2281.846154 -226.170629 
L 2281.846154 -167.331082 
L 2262.752492 -160.762043 
L 2243.612751 -161.844332 
L 2256.930462 -153.982966 
L 2265.721846 -141.813711 
L 2272.54656 -137.835618 
L 2274.260086 -131.725883 
L 2270.448 -127.8144 
L 2242.918892 -131.031138 
L 2201.638745 -119.9136 
L 2188.506535 -118.192394 
L 2144.470154 -98.749735 
L 2139.040246 -92.038449 
L 2117.914486 -102.255508 
L 2079.433551 -90.661662 
L 2072.713846 -96.147692 
L 2058.487237 -89.820554 
L 2038.734129 -91.845563 
L 2033.975778 -82.13184 
L 2016.255951 -67.839212 
L 2016.782326 -61.87008 
L 2033.603594 -58.560443 
L 2031.62496 -37.059545 
L 2017.913797 -36.512345 
L 2011.590794 -24.157735 
L 2017.735237 -17.798991 
L 1991.907988 -10.25472 
L 1986.782474 6.608197 
L 1964.764652 10.210265 
L 1960.337428 25.215655 
L 1939.049206 38.975262 
L 1933.587692 28.8 
L 1919.020209 -25.565982 
L 1926.120665 -46.04928 
L 1938.581908 -54.863262 
L 1939.352862 -61.765514 
L 1962.303951 -65.069538 
L 1988.686375 -83.664295 
L 2014.110129 -98.850462 
L 2040.660037 -110.634831 
L 2052.532431 -131.455163 
L 2034.585895 -130.209526 
L 2025.716825 -118.043077 
L 1988.255705 -101.822474 
L 1976.157342 -119.98464 
L 1938.028505 -114.969895 
L 1901.066732 -90.21312 
L 1913.261538 -81.156185 
L 1857.463089 -75.779298 
L 1858.532677 -86.458486 
L 1835.574794 -88.700012 
L 1817.277194 -81.444628 
L 1772.118942 -83.983311 
L 1723.537034 -79.605858 
L 1619.094498 -15.944714 
L 1642.363717 -14.0832 
L 1649.625895 -4.834265 
L 1663.970954 -1.550917 
L 1673.422228 -8.928738 
L 1689.622302 -7.970658 
L 1710.946117 8.27712 
L 1711.447089 20.842782 
L 1699.900357 35.59872 
L 1698.65472 53.235249 
L 1691.991582 76.848591 
L 1669.731249 98.220554 
L 1664.783409 108.436431 
L 1615.30176 151.411052 
L 1595.621465 160.076751 
L 1586.307988 160.268455 
L 1577.029957 153.089575 
L 1557.206695 163.897994 
L 1554.904615 168.812308 
L 1552.836923 166.227692 
L 1552.746335 158.724707 
L 1560.290776 158.326305 
L 1562.415583 140.876017 
L 1558.525883 128.227052 
L 1571.201785 123.010536 
L 1589.126695 125.625748 
L 1599.059357 111.257694 
L 1604.120862 95.077218 
L 1609.858117 89.672123 
L 1617.61937 76.383066 
L 1593.210031 80.736861 
L 1580.406498 86.563052 
L 1557.965686 86.545772 
L 1551.98464 72.669232 
L 1534.490848 62.169599 
L 1508.786215 57.44832 
L 1503.322422 42.981456 
L 1483.515307 12.660206 
L 1470.54589 7.221492 
L 1448.440172 2.823877 
L 1428.860277 3.223739 
L 1410.507098 5.887 
L 1398.307771 13.234911 
L 1406.411653 16.744965 
L 1406.594954 24.899298 
L 1398.381489 29.633723 
L 1385.049452 45.298412 
L 1385.18342 51.797423 
L 1364.370379 61.130092 
L 1346.640752 55.553998 
L 1329.019502 56.785074 
L 1321.286545 51.836348 
L 1312.430127 50.240452 
L 1290.797386 60.648881 
L 1271.353564 63.094623 
L 1257.777386 66.755031 
L 1239.174634 64.350122 
L 1225.479394 64.503911 
L 1216.514598 56.954509 
L 1202.050031 49.856552 
L 1187.24812 47.911101 
L 1154.60744 52.578962 
L 1133.625452 46.367114 
L 1130.809255 35.299791 
L 1100.037891 29.774677 
L 1083.492783 23.669671 
L 1068.195541 38.976071 
L 1074.19217 47.66916 
L 1059.836455 57.953723 
L 1038.483988 54.240591 
L 1023.743252 53.709292 
L 1013.871749 46.810536 
L 998.462178 46.59264 
L 985.620355 42.060248 
L 963.155704 49.007087 
L 934.974526 61.727694 
L 913.624177 65.501822 
L 905.787422 56.467574 
L 886.763372 58.443935 
L 880.475956 52.175218 
L 870.149574 49.308559 
L 863.041695 40.77422 
L 854.88744 38.116684 
L 833.663787 41.912183 
L 813.3186 33.40303 
L 805.448264 41.135987 
L 772.444291 3.627102 
L 753.602651 -7.783436 
L 759.00702 -12.413899 
L 721.991188 1.523446 
L 707.825409 2.365879 
L 709.048853 -5.695263 
L 690.079754 -10.732141 
L 674.660397 -7.137751 
L 670.010091 -22.445296 
L 643.468312 -25.62831 
L 630.18979 -19.50117 
L 593.233772 -14.049231 
L 586.021419 -10.400903 
L 530.755938 -5.261538 
L 523.983751 -0.221441 
L 534.64595 9.895437 
L 520.467591 13.735584 
L 523.233504 17.759286 
L 509.058961 24.95379 
L 532.99205 35.111501 
L 529.29119 42.106041 
L 508.546076 41.469133 
L 504.255247 45.85193 
L 485.365957 38.198548 
L 461.951705 38.495262 
L 446.28096 44.725514 
L 396.23961 28.524521 
L 373.168961 28.906894 
L 342.681329 44.97041 
L 340.841966 55.757396 
L 325.653865 47.192147 
L 313.86973 63.418992 
L 318.183456 66.431426 
L 309.658276 77.624827 
L 322.194314 87.642831 
L 333.153231 87.230474 
L 342.568372 97.098415 
L 341.069538 104.698486 
L 348.570978 107.086818 
L 341.839902 115.845563 
L 327.521132 118.279532 
L 312.841994 133.525662 
L 326.266191 147.542252 
L 324.812603 157.490511 
L 340.938388 174.884234 
L 332.119874 180.837132 
L 329.585217 184.59447 
L 323.052044 183.585491 
L 312.901966 174.61459 
L 299.466831 170.696271 
L 294.945662 164.635855 
L 281.171046 161.545954 
L 272.214794 163.865206 
L 269.626929 161.120049 
L 249.517292 154.038646 
L 215.290559 149.123385 
L 213.489357 150.867727 
L 194.658462 138.387692 
L 177.808542 132.816591 
L 165.052948 124.139963 
L 175.800665 121.779545 
L 188.055877 109.427151 
L 179.79648 103.582966 
L 201.565588 97.554462 
L 201.174646 94.32576 
L 187.916869 96.706119 
L 188.383198 90.14547 
L 195.996111 86.021612 
L 210.288408 84.938775 
L 212.612234 80.013637 
L 209.348677 71.869735 
L 215.347038 64.13642 
L 215.173514 59.799877 
L 193.402903 54.993793 
L 184.772398 55.153307 
L 175.657248 48.236997 
L 164.32494 50.575888 
L 145.567254 45.382931 
L 145.889132 42.477194 
L 140.635319 36.072778 
L 128.858817 35.35764 
L 127.635373 30.77297 
L 131.324021 27.78267 
L 121.886028 19.420437 
L 106.571232 20.847279 
L 102.085782 20.105428 
L 98.354806 23.464615 
L 92.838942 22.867495 
L 89.206425 13.409689 
L 85.738348 8.507138 
L 88.580529 7.127188 
L 100.497519 7.639737 
L 106.244574 4.409785 
L 101.990379 0.471946 
L 92.031106 -2.127204 
L 92.919496 -4.794662 
L 86.909129 -7.488833 
L 77.64973 -17.158463 
L 80.814808 -21.142859 
L 79.368504 -28.07596 
L 64.929886 -31.598226 
L 57.180139 -29.835185 
L 55.082044 -33.501699 
L 39.532939 -37.205612 
L 34.785704 -45.92236 
L 33.526389 -53.084428 
z
" clip-path="url(#pcfc9dfad56)" style="fill: #e8edf4; stroke: #b8c5d4; stroke-width: 0.45"/>
    <path d="M 383.346515 -271.235167 
L 398.448372 -274.404061 
L 397.944646 -282.457571 
L 427.2386 -295.053009 
L 413.660896 -296.858791 
L 449.020932 -309.821339 
L 445.025469 -316.525473 
L 478.05997 -324.323304 
L 526.819117 -333.812432 
L 575.975902 -336.57682 
L 601.269814 -342.052168 
L 630.01196 -343.970906 
L 640.278811 -338.138752 
L 630.359225 -333.543015 
L 532.92565 -319.17614 
L 487.046136 -305.11837 
L 441.885577 -276.498722 
L 444.891142 -264.230323 
L 473.142537 -252.117622 
L 464.418156 -250.822054 
L 416.158156 -252.740792 
L 412.239015 -259.298388 
L 385.504904 -263.257979 
z
" clip-path="url(#pcfc9dfad56)" style="fill: #e8edf4; stroke: #b8c5d4; stroke-width: 0.45"/>
    <path d="M -3035.076923 -167.331082 
L -3035.076923 -226.170629 
L -2998.892308 -214.892308 
L -2960.171077 -200.210068 
L -2961.441231 -191.0304 
L -2951.480566 -187.355963 
L -2954.90688 -198.087729 
L -2914.815655 -195.885489 
L -2885.901489 -182.063852 
L -2900.545034 -175.626683 
L -2924.754462 -174.098363 
L -2925.12 -159.667052 
L -2931.032566 -156.593575 
L -2944.864098 -157.035323 
L -2956.119434 -162.184615 
L -2975.756751 -166.491766 
L -2979.059594 -172.898511 
L -2994.057748 -175.314314 
L -3010.854351 -173.398449 
L -3018.879803 -178.566498 
L -3015.671778 -184.055778 
L -3033.360295 -180.547348 
L -3026.698043 -173.599163 
z
" clip-path="url(#pcfc9dfad56)" style="fill: #e8edf4; stroke: #b8c5d4; stroke-width: 0.45"/>
    <path d="M 1714.620199 25.322808 
L 1715.926833 5.140188 
L 1729.579333 -1.656297 
L 1723.713216 -8.499338 
L 1730.286076 -10.573009 
L 1739.237134 13.428769 
L 1738.859339 27.963171 
L 1744.955187 42.866209 
L 1759.815103 69.025614 
L 1737.953396 64.149394 
L 1728.866485 85.490584 
L 1743.263889 100.626786 
L 1742.84717 110.947826 
L 1731.658348 102.044088 
L 1721.974598 113.475614 
L 1719.24074 101.081666 
L 1720.887771 86.693421 
L 1719.204105 70.7566 
L 1722.621046 59.591438 
L 1723.2736 39.842327 
z
" clip-path="url(#pcfc9dfad56)" style="fill: #e8edf4; stroke: #b8c5d4; stroke-width: 0.45"/>
    <path d="M 102.707807 122.917423 
L 105.316497 120.085873 
L 119.455932 115.176834 
L 117.20844 113.399374 
L 121.099744 109.741694 
L 136.349795 113.491706 
L 138.266468 116.408383 
L 140.494656 116.858212 
L 140.614712 118.135843 
L 147.840127 121.698559 
L 162.904586 120.812459 
L 160.020373 126.081738 
L 143.852296 128.640055 
L 123.80324 137.184316 
L 115.590217 134.180278 
L 118.846882 127.240308 
z
" clip-path="url(#pcfc9dfad56)" style="fill: #e8edf4; stroke: #b8c5d4; stroke-width: 0.45"/>
    <path d="M 285.739688 -397.880269 
L 314.571894 -400.56986 
L 337.011359 -400.748454 
L 340.029135 -396.769019 
L 348.512338 -400.305023 
L 362.433492 -402.740461 
L 384.338702 -399.50364 
L 378.626755 -397.252138 
L 345.517458 -394.184371 
L 343.457525 -391.760762 
L 326.194988 -389.319599 
L 310.195583 -392.820876 
L 318.60857 -397.431495 
z
" clip-path="url(#pcfc9dfad56)" style="fill: #e8edf4; stroke: #b8c5d4; stroke-width: 0.45"/>
    <path d="M 970.05888 -394.212332 
L 1008.408517 -404.301785 
L 1040.357834 -407.636677 
L 1069.053785 -400.201477 
L 1103.064443 -385.921994 
L 1099.417994 -372.641575 
L 1067.194191 -370.799262 
L 1026.056714 -375.060849 
L 1001.544074 -380.699077 
L 990.208985 -391.292898 
z
" clip-path="url(#pcfc9dfad56)" style="fill: #e8edf4; stroke: #b8c5d4; stroke-width: 0.45"/>
    <path d="M 1646.390991 -319.187742 
L 1654.327532 -329.341588 
L 1673.8128 -332.112148 
L 1712.811545 -331.464222 
L 1766.19744 -323.632615 
L 1754.584615 -312.664615 
L 1700.142425 -313.073428 
L 1675.649575 -309.584935 
z
" clip-path="url(#pcfc9dfad56)" style="fill: #e8edf4; stroke: #b8c5d4; stroke-width: 0.45"/>
    <path d="M -86.242854 -11.462162 
L -82.877812 -17.961753 
L -62.496754 -22.751729 
L -47.029314 -20.16441 
L -40.500721 -17.820176 
L -42.076772 -13.775867 
L -40.894543 -10.006699 
L -68.053004 -9.784984 
z
" clip-path="url(#pcfc9dfad56)" style="fill: #e8edf4; stroke: #b8c5d4; stroke-width: 0.45"/>
    <path d="M 1689.055311 -291.24672 
L 1703.065255 -297.083963 
L 1721.532111 -298.450412 
L 1742.515643 -292.803692 
L 1744.303015 -288.922191 
L 1721.909612 -288.818806 
z
" clip-path="url(#pcfc9dfad56)" style="fill: #e8edf4; stroke: #b8c5d4; stroke-width: 0.45"/>
    <path d="M 1092.009452 -358.464 
L 1118.989292 -377.855852 
L 1131.121477 -379.516209 
L 1142.220037 -378.554437 
L 1179.654351 -370.166252 
L 1175.26848 -364.163298 
z
" clip-path="url(#pcfc9dfad56)" style="fill: #e8edf4; stroke: #b8c5d4; stroke-width: 0.45"/>
    <path d="M -3035.076923 -253.767865 
L -3035.076923 -263.862858 
L -3020.667028 -264.450905 
L -2999.305034 -260.226166 
L -3000.569723 -258.207065 
L -3015.785058 -254.666142 
z
" clip-path="url(#pcfc9dfad56)" style="fill: #e8edf4; stroke: #b8c5d4; stroke-width: 0.45"/>
    <path d="M 1781.452652 -317.877858 
L 1784.986855 -322.660726 
L 1849.575434 -316.564578 
L 1832.505969 -310.728665 
L 1808.897945 -312.049551 
z
" clip-path="url(#pcfc9dfad56)" style="fill: #e8edf4; stroke: #b8c5d4; stroke-width: 0.45"/>
    <path d="M 2263.019815 -257.705354 
L 2281.846154 -263.862858 
L 2281.846154 -253.767865 
L 2265.650585 -253.01376 
z
" clip-path="url(#pcfc9dfad56)" style="fill: #e8edf4; stroke: #b8c5d4; stroke-width: 0.45"/>
    <path d="M 129.458708 331.283286 
L 133.755644 326.417369 
L 132.747428 325.579734 
L 136.653594 318.67678 
L 139.649237 307.534133 
L 141.761833 303.795113 
L 147.112014 303.669563 
L 148.472074 301.08148 
L 152.434718 300.88724 
L 152.660632 306.932333 
L 148.366749 313.934887 
L 143.024201 311.889073 
L 139.933156 321.724322 
L 143.643937 323.382039 
L 139.872098 325.413733 
L 139.235571 329.303108 
L 146.179357 327.299653 
L 146.524333 333.045182 
L 139.164592 356.657336 
z
" clip-path="url(#pcfc9dfad56)" style="fill: #e8edf4; stroke: #b8c5d4; stroke-width: 0.45"/>
    <path d="M 142.169394 303.642087 
L 147.429514 291.611813 
L 155.05333 280.6905 
L 161.696407 281.443418 
L 164.112002 287.235122 
L 156.058492 292.801293 
L 152.434718 300.88724 
L 148.472074 301.08148 
L 147.112014 303.669563 
z
" clip-path="url(#pcfc9dfad56)" style="fill: #e8edf4; stroke: #b8c5d4; stroke-width: 0.45"/>
    <path d="M 139.235571 329.303108 
L 139.872098 325.413733 
L 143.643937 323.382039 
L 139.933156 321.724322 
L 143.024201 311.889073 
L 148.366749 313.934887 
L 148.360644 322.966083 
L 146.179357 327.299653 
z
" clip-path="url(#pcfc9dfad56)" style="fill: #e8edf4; stroke: #b8c5d4; stroke-width: 0.45"/>
    <path d="M 139.164592 356.657336 
L 146.524333 333.045182 
L 146.179357 327.299653 
L 148.360644 322.966083 
L 148.366749 313.934887 
L 150.940331 309.27962 
L 167.395379 315.132 
L 196.317645 299.391708 
L 202.271533 317.37587 
L 199.456773 319.602949 
L 169.878138 327.014208 
L 184.598384 341.782156 
L 179.713769 344.290482 
L 177.283672 349.236537 
L 166.013949 351.28197 
L 162.479472 356.599331 
L 156.095127 361.144695 
L 139.658396 358.7955 
z
" clip-path="url(#pcfc9dfad56)" style="fill: #e8edf4; stroke: #b8c5d4; stroke-width: 0.45"/>
    <path d="M 311.16869 362.599013 
L 322.007957 348.41989 
L 331.931359 349.64944 
L 335.013246 356.16773 
L 333.695163 359.537733 
L 338.453083 370.67809 
L 328.007639 371.061227 
L 324.329676 364.024328 
z
" clip-path="url(#pcfc9dfad56)" style="fill: #e8edf4; stroke: #b8c5d4; stroke-width: 0.45"/>
    <path d="M 196.317645 299.391708 
L 229.014039 284.021579 
L 234.593949 266.166402 
L 233.201833 255.377507 
L 241.285872 251.728929 
L 248.855499 242.512652 
L 255.199394 240.217646 
L 272.377975 242.123409 
L 277.564826 245.885326 
L 284.642616 243.39047 
L 294.212206 261.008553 
L 303.896719 265.441723 
L 305.011022 274.068793 
L 297.577248 279.165966 
L 294.154201 290.690987 
L 304.384418 304.729295 
L 322.481154 312.824782 
L 330.080547 324.049094 
L 327.65961 334.746783 
L 332.37708 334.742586 
L 332.522855 342.609869 
L 340.69619 350.373736 
L 322.007957 348.41989 
L 311.16869 362.599013 
L 283.70952 361.419455 
L 242.06741 331.716795 
L 220.061455 321.378583 
L 202.271533 317.37587 
z
" clip-path="url(#pcfc9dfad56)" style="fill: #e8edf4; stroke: #b8c5d4; stroke-width: 0.45"/>
    <path d="M 391.38476 511.753796 
L 435.692038 496.984704 
L 445.538354 467.446137 
L 438.769345 456.984665 
L 439.155535 451.037646 
L 443.458576 444.925007 
L 443.49979 438.88831 
L 450.184081 435.979674 
L 447.568522 433.925846 
L 448.781281 424.307733 
L 456.322669 424.25011 
L 462.943612 434.338367 
L 471.189454 439.700759 
L 490.769892 444.322444 
L 501.416827 457.694461 
L 506.70366 459.565116 
L 506.675421 462.859941 
L 498.940175 475.807225 
L 492.718396 480.531182 
L 487.207176 490.648824 
L 480.506857 489.874154 
L 477.435656 493.395656 
L 475.063564 500.883619 
L 476.879267 510.755885 
L 475.486389 512.570443 
L 468.690668 512.521979 
L 459.465613 518.041594 
L 458.026178 525.23648 
L 454.648925 528.353475 
L 445.462032 528.234412 
L 439.679105 531.953589 
L 439.752374 537.919689 
L 432.605571 542.020476 
L 424.456659 540.627979 
L 414.579814 545.609905 
L 407.75738 546.446014 
z
" clip-path="url(#pcfc9dfad56)" style="fill: #e8edf4; stroke: #b8c5d4; stroke-width: 0.45"/>
    <path d="M 451.507507 407.550068 
L 455.808258 402.521585 
L 457.634646 403.803796 
L 456.242531 409.905368 
L 454.316924 412.584274 
z
" clip-path="url(#pcfc9dfad56)" style="fill: #e8edf4; stroke: #b8c5d4; stroke-width: 0.45"/>
    <path d="M 522.450439 351.814316 
L 547.197885 359.356468 
L 561.973083 357.144653 
L 570.801263 359.027901 
L 573.7908 355.790317 
L 584.076731 357.087793 
L 603.27098 350.947297 
L 603.787681 338.379334 
L 612.020547 330.019773 
L 623.016275 330.045723 
L 624.630487 325.913643 
L 635.917765 323.988036 
L 641.378612 325.363361 
L 647.15467 321.209911 
L 646.338787 312.340518 
L 652.610175 303.426477 
L 662.010007 299.689364 
L 656.204946 289.918226 
L 670.254321 290.379974 
L 674.315421 285.062231 
L 673.698738 279.387682 
L 681.054664 273.183457 
L 679.366419 265.837835 
L 675.874682 259.578277 
L 684.499081 253.145467 
L 700.35729 250.042973 
L 717.305379 248.327252 
L 733.410872 243.942928 
L 744.323408 250.828709 
L 748.694376 262.177426 
L 772.983889 268.150013 
L 758.720812 280.563042 
L 742.258132 282.758066 
L 719.855301 279.154899 
L 712.614622 285.523217 
L 722.976876 308.456867 
L 734.896863 315.749827 
L 722.302951 324.293325 
L 722.531154 334.821197 
L 708.194045 349.640662 
L 698.935409 364.628799 
L 683.485523 380.11303 
L 666.335944 378.990332 
L 650.058726 394.471891 
L 659.725686 401.104665 
L 661.408588 412.471699 
L 669.706329 419.96157 
L 672.638624 432.642108 
L 640.136851 432.603565 
L 630.30122 442.457132 
L 619.475692 438.722309 
L 615.071142 428.106666 
L 603.660223 416.859458 
L 576.449099 419.637583 
L 552.453426 419.912724 
L 531.65336 421.982961 
L 537.218769 404.824986 
L 558.522561 397.195828 
L 557.300644 390.394382 
L 550.233979 388.003592 
L 549.826419 374.996014 
L 535.707591 368.502147 
L 529.762098 359.582381 
z
" clip-path="url(#pcfc9dfad56)" style="fill: #e8edf4; stroke: #b8c5d4; stroke-width: 0.45"/>
    <path d="M 517.342963 294.994028 
L 527.421299 265.845086 
L 542.483468 271.448655 
L 553.619628 269.478781 
L 556.704568 262.786477 
L 568.362771 260.559397 
L 576.686461 256.067841 
L 579.634784 244.25623 
L 592.082921 241.399875 
L 594.397008 236.142808 
L 601.364454 240.091714 
L 614.04232 240.647721 
L 629.69446 245.566299 
L 640.385662 240.822117 
L 645.360337 243.675419 
L 650.1236 236.91328 
L 658.952543 237.220095 
L 661.226942 235.049875 
L 662.788492 229.094461 
L 669.146888 223.956456 
L 677.141629 227.314629 
L 675.535812 231.8287 
L 680.003708 232.530101 
L 678.626857 244.938168 
L 684.474658 249.774701 
L 689.620295 246.671444 
L 696.175601 245.205296 
L 705.379285 238.593129 
L 730.781575 239.704761 
L 733.410872 243.942928 
L 717.305379 248.327252 
L 700.35729 250.042973 
L 684.499081 253.145467 
L 675.874682 259.578277 
L 679.366419 265.837835 
L 681.054664 273.183457 
L 673.698738 279.387682 
L 674.315421 285.062231 
L 670.254321 290.379974 
L 656.204946 289.918226 
L 662.010007 299.689364 
L 652.610175 303.426477 
L 646.338787 312.340518 
L 647.15467 321.209911 
L 641.378612 325.363361 
L 635.917765 323.988036 
L 624.630487 325.913643 
L 623.016275 330.045723 
L 612.020547 330.019773 
L 603.787681 338.379334 
L 603.27098 350.947297 
L 584.076731 357.087793 
L 573.7908 355.790317 
L 570.801263 359.027901 
L 561.973083 357.144653 
L 547.197885 359.356468 
L 522.450439 351.814316 
L 535.845734 338.424364 
L 534.636028 328.918063 
L 523.450259 326.428436 
L 522.293979 317.052264 
L 517.45592 305.26126 
L 523.771575 297.174169 
z
" clip-path="url(#pcfc9dfad56)" style="fill: #e8edf4; stroke: #b8c5d4; stroke-width: 0.45"/>
    <path d="M 398.805559 175.261801 
L 405.3311 170.347802 
L 422.096016 167.274692 
L 432.078949 171.412114 
L 442.416016 182.99285 
L 466.654394 182.070497 
L 464.22964 174.630999 
L 476.847212 169.542604 
L 489.290007 160.961708 
L 509.190235 168.766789 
L 510.769339 180.551687 
L 516.420229 183.576714 
L 532.389105 182.896684 
L 537.3447 185.577498 
L 544.60446 200.804142 
L 571.129448 217.958301 
L 586.574754 225.190966 
L 606.220067 231.512345 
L 605.81327 240.549647 
L 601.364454 240.091714 
L 594.397008 236.142808 
L 592.082921 241.399875 
L 579.634784 244.25623 
L 576.686461 256.067841 
L 568.362771 260.559397 
L 556.704568 262.786477 
L 553.619628 269.478781 
L 542.483468 271.448655 
L 527.421299 265.845086 
L 526.125349 253.416411 
L 515.115884 252.88788 
L 498.236485 239.808177 
L 486.441665 238.193583 
L 470.111022 230.706765 
L 459.609099 229.34556 
L 453.125535 232.096591 
L 443.247927 231.668424 
L 432.742951 240.11194 
L 419.765139 242.969821 
L 417.016779 232.524758 
L 419.164484 217.07678 
L 407.64595 212.077682 
L 411.438396 201.965001 
L 401.634057 201.103325 
L 404.90217 188.654424 
L 418.827903 192.280107 
L 431.805716 187.554241 
L 421.045824 178.689809 
L 416.812999 170.242096 
L 404.924303 174.009355 
L 403.416942 184.83145 
z
" clip-path="url(#pcfc9dfad56)" style="fill: #e8edf4; stroke: #b8c5d4; stroke-width: 0.45"/>
    <path d="M 274.843943 210.045987 
L 284.957386 205.83873 
L 287.301238 211.410245 
L 294.760199 218.228099 
L 304.890433 220.191486 
L 310.238324 219.757213 
L 327.656557 208.861086 
L 333.195253 207.770062 
L 337.558588 212.104394 
L 332.466377 219.411474 
L 341.67693 227.145194 
L 345.352603 226.408685 
L 350.025043 237.299088 
L 364.028624 240.375632 
L 374.28708 247.786128 
L 395.284057 250.332234 
L 418.350127 246.42416 
L 419.765139 242.969821 
L 432.742951 240.11194 
L 443.247927 231.668424 
L 453.125535 232.096591 
L 459.609099 229.34556 
L 470.111022 230.706765 
L 486.441665 238.193583 
L 498.236485 239.808177 
L 515.115884 252.88788 
L 526.125349 253.416411 
L 527.421299 265.845086 
L 517.342963 294.994028 
L 523.771575 297.174169 
L 517.45592 305.26126 
L 522.293979 317.052264 
L 523.450259 326.428436 
L 534.636028 328.918063 
L 535.845734 338.424364 
L 522.450439 351.814316 
L 529.762098 359.582381 
L 535.707591 368.502147 
L 549.826419 374.996014 
L 550.233979 388.003592 
L 557.300644 390.394382 
L 558.522561 397.195828 
L 537.218769 404.824986 
L 531.65336 421.982961 
L 487.765091 414.129797 
L 471.097867 412.210677 
L 464.799003 394.100584 
L 457.730049 391.483499 
L 446.38095 394.122336 
L 431.4844 401.270284 
L 413.436509 396.371167 
L 398.526984 385.021305 
L 384.306647 380.81443 
L 374.44354 366.800927 
L 363.544742 347.109821 
L 355.596557 349.503283 
L 346.210463 344.609127 
L 340.69619 350.373736 
L 332.522855 342.609869 
L 332.37708 334.742586 
L 327.65961 334.746783 
L 330.080547 324.049094 
L 322.481154 312.824782 
L 304.384418 304.729295 
L 294.154201 290.690987 
L 297.577248 279.165966 
L 305.011022 274.068793 
L 303.896719 265.441723 
L 294.212206 261.008553 
L 284.642511 243.390277 
L 276.565007 231.558138 
L 279.454562 226.984154 
z
" clip-path="url(#pcfc9dfad56)" style="fill: #e8edf4; stroke: #b8c5d4; stroke-width: 0.45"/>
    <path d="M 150.940331 309.27962 
L 152.660632 306.932333 
L 152.434718 300.88724 
L 156.058492 292.801293 
L 164.112002 287.235122 
L 161.696407 281.443418 
L 155.05333 280.6905 
L 153.674189 269.390629 
L 157.288805 263.312718 
L 165.199592 256.841366 
L 165.998684 248.602775 
L 170.832164 251.475158 
L 187.092591 247.366738 
L 194.952242 250.147534 
L 207.102723 250.10136 
L 224.097368 244.559611 
L 232.055475 244.809566 
L 248.855499 242.512652 
L 241.285872 251.728929 
L 233.201833 255.377507 
L 234.593949 266.166402 
L 229.014039 284.021579 
L 196.317645 299.391708 
L 167.395379 315.132 
z
" clip-path="url(#pcfc9dfad56)" style="fill: #e8edf4; stroke: #b8c5d4; stroke-width: 0.45"/>
    <path d="M 267.068246 185.469884 
L 287.593552 183.166101 
L 290.651016 187.047081 
L 296.275956 189.603108 
L 293.304736 193.307021 
L 301.172783 198.373283 
L 297.009412 203.077015 
L 303.279273 207.093848 
L 309.910139 209.514022 
L 310.238324 219.757213 
L 304.890433 220.191486 
L 298.860986 211.647225 
L 298.928913 209.368628 
L 292.403372 209.401828 
L 288.029351 205.439947 
L 284.957386 205.83873 
L 279.138588 201.526149 
L 268.156599 197.855055 
L 269.577717 190.667802 
z
" clip-path="url(#pcfc9dfad56)" style="fill: #e8edf4; stroke: #b8c5d4; stroke-width: 0.45"/>
    <path d="M -33.976706 17.176949 
L -25.119525 14.162225 
L -25.034807 8.274737 
L -29.131778 2.656666 
L -29.772884 -3.876889 
L -15.497596 -3.776525 
L 0.536918 -9.340407 
L 3.964544 -17.678217 
L 16.073047 -22.407517 
L 14.685511 -29.023118 
L 39.532939 -37.205612 
L 55.082044 -33.501699 
L 57.180139 -29.835185 
L 64.929886 -31.598226 
L 79.368504 -28.07596 
L 80.814808 -21.142859 
L 77.64973 -17.158463 
L 86.909129 -7.488833 
L 92.919496 -4.794662 
L 92.031106 -2.127204 
L 101.990379 0.471946 
L 106.244574 4.409785 
L 100.497519 7.639737 
L 88.580529 7.127188 
L 85.738348 8.507138 
L 89.206425 13.409689 
L 92.839273 22.867531 
L 80.160728 23.743703 
L 75.610403 26.986248 
L 74.660193 34.419641 
L 68.78568 32.992417 
L 55.457549 33.699923 
L 51.586491 30.246729 
L 46.044742 32.821456 
L 40.491545 30.687108 
L 28.860055 30.390596 
L 12.376004 26.846197 
L -2.543443 25.688772 
L -13.984891 26.016576 
L -22.078852 30.019289 
L -29.138647 30.59514 
L -29.420276 24.019989 
z
" clip-path="url(#pcfc9dfad56)" style="fill: #e8edf4; stroke: #b8c5d4; stroke-width: 0.45"/>
    <path d="M -50.427938 77.209635 
L -47.544489 71.255747 
L -43.449044 67.410638 
L -40.225198 68.272315 
L -44.035198 61.635344 
L -30.623876 49.351299 
L -23.294663 47.632525 
L -21.710979 43.489379 
L -29.138647 30.59514 
L -22.078852 30.019289 
L -13.984891 26.016576 
L -2.543443 25.688772 
L 12.376004 26.846197 
L 28.860055 30.390596 
L 40.491545 30.687108 
L 46.044742 32.821456 
L 51.586491 30.246729 
L 55.457549 33.699923 
L 68.78568 32.992417 
L 74.660193 34.419641 
L 75.610403 26.986248 
L 80.160728 23.743703 
L 98.354806 23.464615 
L 102.085782 20.105428 
L 106.571232 20.847279 
L 121.886028 19.420437 
L 131.324021 27.78267 
L 127.635373 30.77297 
L 128.858817 35.35764 
L 140.635319 36.072778 
L 145.889132 42.477194 
L 145.567254 45.382931 
L 164.32494 50.575888 
L 175.657248 48.236997 
L 184.772398 55.153307 
L 193.402903 54.993793 
L 215.173514 59.799877 
L 215.347038 64.13642 
L 209.348677 71.869735 
L 212.612234 80.013637 
L 210.288408 84.938775 
L 195.996111 86.021612 
L 188.383198 90.14547 
L 187.916869 96.706119 
L 176.125103 97.887204 
L 166.299394 102.66535 
L 152.472879 103.444217 
L 139.751509 108.949713 
L 140.494656 116.858212 
L 138.266468 116.408383 
L 136.349795 113.491706 
L 121.099744 109.741694 
L 117.20844 113.399374 
L 115.178841 111.794238 
L 92.221148 108.061324 
L 91.204538 102.55392 
L 77.519982 104.372676 
L 72.038528 112.505942 
L 60.602422 123.421912 
L 53.90363 120.887255 
L 46.962897 123.263544 
L 40.372482 120.542279 
L 44.090133 118.937988 
L 50.713366 109.161888 
L 49.668516 106.517327 
L 52.757272 105.338914 
L 54.212735 107.383202 
L 62.916509 107.815566 
L 66.825728 106.723397 
L 64.072026 105.225957 
L 65.115349 103.024827 
L 59.958264 99.270161 
L 57.823534 93.095702 
L 52.443588 90.679725 
L 53.504466 85.674902 
L 46.831623 81.701191 
L 40.756383 81.148619 
L 29.871323 76.547159 
L 20.054009 78.007964 
L 16.531743 80.186197 
L 10.300806 80.183908 
L 6.586208 83.635957 
L -4.316406 85.055167 
L -9.359008 87.322697 
L -16.215787 83.713805 
L -25.684308 83.658854 
L -34.822355 82.023271 
L -41.198305 85.186059 
L -42.22789 81.227231 
z
" clip-path="url(#pcfc9dfad56)" style="fill: #e8edf4; stroke: #b8c5d4; stroke-width: 0.45"/>
    <path d="M 16.531743 80.186197 
L 20.054009 78.007964 
L 29.871323 76.547159 
L 40.756383 81.148619 
L 46.831623 81.701191 
L 53.504466 85.674902 
L 52.443588 90.679725 
L 57.823534 93.095702 
L 59.958264 99.270161 
L 65.115349 103.024827 
L 64.072026 105.225957 
L 66.825728 106.723397 
L 62.916509 107.815566 
L 54.212735 107.383202 
L 52.757272 105.338914 
L 49.668516 106.517327 
L 50.713366 109.161888 
L 44.090133 118.937988 
L 40.372482 120.542279 
L 37.727158 113.803036 
L 39.286419 107.496921 
L 38.813985 101.014503 
L 21.033985 81.625632 
z
" clip-path="url(#pcfc9dfad56)" style="fill: #e8edf4; stroke: #b8c5d4; stroke-width: 0.45"/>
    <path d="M -77.978695 111.101997 
L -66.137319 108.316239 
L -57.208395 98.300488 
L -50.218816 88.283974 
L -34.822355 82.023271 
L -25.684308 83.658854 
L -16.215787 83.713805 
L -9.359008 87.322697 
L -4.316406 85.055167 
L 6.586208 83.635957 
L 10.300806 80.183908 
L 16.531743 80.186197 
L 21.033985 81.625632 
L 38.813985 101.014503 
L 39.286419 107.496921 
L 37.727158 113.803036 
L 40.372482 120.542279 
L 46.962897 123.263544 
L 53.90363 120.887255 
L 60.602422 123.421912 
L 60.945872 127.231149 
L 53.783805 130.409202 
L 49.297591 129.025864 
L 45.165511 146.843643 
L 36.481581 145.292778 
L 25.733901 139.923899 
L 8.34696 143.357631 
L 1.023089 147.124509 
L -20.666893 146.347549 
L -32.015228 144.044148 
L -37.73786 145.125632 
L -44.691568 136.4791 
L -41.269284 133.98642 
L -44.912902 132.147438 
L -49.549471 135.457147 
L -58.160895 131.166318 
L -59.320228 125.078102 
L -68.317842 121.604301 
L -69.974032 116.904767 
z
" clip-path="url(#pcfc9dfad56)" style="fill: #e8edf4; stroke: #b8c5d4; stroke-width: 0.45"/>
    <path d="M -46.072235 167.331552 
L -43.642902 165.247577 
L -45.24414 163.490641 
L -42.759855 158.791107 
L -37.129573 154.173619 
L -44.305378 147.798433 
L -45.63033 142.403986 
L -41.986712 139.053445 
L -37.73786 145.125632 
L -32.015228 144.044148 
L -20.666893 146.347549 
L 1.023089 147.124509 
L 8.34696 143.357631 
L 25.733901 139.923899 
L 36.481581 145.292778 
L 45.165511 146.843643 
L 37.500481 152.962387 
L 32.106797 163.526513 
L 36.87464 171.952856 
L 24.158612 169.971915 
L 9.113234 174.618024 
L 8.952194 181.973187 
L -4.472103 183.367592 
L -14.87786 178.207072 
L -26.701682 182.265882 
L -37.62643 181.83886 
L -38.675096 172.071918 
z
" clip-path="url(#pcfc9dfad56)" style="fill: #e8edf4; stroke: #b8c5d4; stroke-width: 0.45"/>
    <path d="M -79.01515 207.138496 
L -72.147686 199.975284 
L -71.261586 195.175386 
L -66.461688 193.033787 
L -66.165558 189.153571 
L -56.504705 187.845792 
L -50.874423 184.617366 
L -42.870522 184.903574 
L -40.441551 182.329108 
L -26.701682 182.265882 
L -14.87786 178.207072 
L -4.472103 183.367592 
L 8.952194 181.973187 
L 9.113234 174.618024 
L 16.308119 178.528769 
L 11.735662 187.772141 
L 8.225607 189.428331 
L -8.479777 187.612628 
L -26.365865 191.45163 
L -16.128016 199.75395 
L -23.631243 202.161149 
L -31.857241 202.176032 
L -39.670336 194.56977 
L -42.442355 197.810789 
L -39.142187 206.631717 
L -31.753443 213.56291 
L -37.320378 216.798968 
L -29.095144 223.606137 
L -21.784248 227.889334 
L -21.562914 236.233631 
L -35.224573 232.319833 
L -30.868106 239.852444 
L -40.246568 241.402928 
L -34.645288 254.436837 
L -44.454969 254.621537 
L -56.565763 248.197123 
L -62.104459 236.381696 
L -64.688725 226.555224 
L -78.01533 211.344226 
z
" clip-path="url(#pcfc9dfad56)" style="fill: #e8edf4; stroke: #b8c5d4; stroke-width: 0.45"/>
    <path d="M -29.317241 271.310894 
L -26.584909 265.033781 
L -18.510793 270.010747 
L -7.015156 269.169295 
L 3.975992 270.21758 
L 3.618805 272.787727 
L 11.667735 271.015527 
L 9.821503 275.372375 
L -11.446418 276.627874 
L -11.298353 274.190909 
z
" clip-path="url(#pcfc9dfad56)" style="fill: #e8edf4; stroke: #b8c5d4; stroke-width: 0.45"/>
    <path d="M 9.906984 209.522036 
L 26.289526 195.39672 
L 49.033516 194.805987 
L 55.236978 183.581675 
L 83.3861 185.536666 
L 101.139388 175.956714 
L 118.350025 171.781513 
L 142.78455 171.467447 
L 168.563107 181.877784 
L 189.750127 187.590113 
L 206.955421 185.313042 
L 219.669159 186.628836 
L 237.106473 178.919539 
L 252.842567 178.217757 
L 267.068246 185.469884 
L 269.577717 190.667802 
L 268.156599 197.855055 
L 279.138588 201.526149 
L 284.957386 205.83873 
L 274.843943 210.045987 
L 279.454562 226.984154 
L 276.565007 231.558138 
L 284.642616 243.39047 
L 277.564826 245.885326 
L 272.377975 242.123409 
L 255.199394 240.217646 
L 248.855499 242.512652 
L 232.055475 244.809566 
L 224.097368 244.559611 
L 207.102723 250.10136 
L 194.952242 250.147534 
L 187.092591 247.366738 
L 170.832164 251.475158 
L 165.998684 248.602775 
L 165.199592 256.841366 
L 157.288805 263.312718 
L 151.858486 256.615452 
L 157.452134 251.067979 
L 148.444598 252.325768 
L 136.091863 248.927525 
L 125.93568 257.428283 
L 103.519874 259.088289 
L 91.563252 251.161474 
L 75.642458 250.66538 
L 72.237729 256.792901 
L 62.030409 258.544875 
L 47.747488 250.680644 
L 31.623678 250.946627 
L 22.874111 236.258054 
L 12.084454 228.064494 
L 19.269418 216.579542 
z
" clip-path="url(#pcfc9dfad56)" style="fill: #e8edf4; stroke: #b8c5d4; stroke-width: 0.45"/>
    <path d="M 8.02488 192.476254 
L 8.225607 189.428331 
L 11.735662 187.772141 
L 16.308119 178.528769 
L 9.113234 174.618024 
L 24.158612 169.971915 
L 36.87464 171.952856 
L 38.629285 177.631221 
L 51.521617 182.400972 
L 48.833552 186.019022 
L 31.296257 186.833379 
L 12.672134 199.355167 
z
" clip-path="url(#pcfc9dfad56)" style="fill: #e8edf4; stroke: #b8c5d4; stroke-width: 0.45"/>
    <path d="M 287.593552 183.166101 
L 291.21122 180.753941 
L 302.216869 185.001266 
L 310.178029 185.878971 
L 312.190644 184.147604 
L 304.917146 176.155533 
L 308.750043 174.119259 
L 312.901966 174.61459 
L 323.052044 183.585491 
L 329.585217 184.59447 
L 332.119874 180.837132 
L 340.938142 174.884399 
L 348.705433 182.661612 
L 356.217819 193.138349 
L 363.099021 193.829064 
L 367.647819 197.810789 
L 355.4836 198.999124 
L 352.914598 210.469193 
L 350.373835 215.642306 
L 344.958017 219.094355 
L 345.352603 226.408685 
L 341.67693 227.145194 
L 332.466377 219.411474 
L 337.558588 212.104394 
L 333.195253 207.770062 
L 327.656557 208.861086 
L 310.238324 219.757213 
L 309.910139 209.514022 
L 303.279273 207.093848 
L 297.009412 203.077015 
L 301.172783 198.373283 
L 293.304736 193.307021 
L 296.275956 189.603108 
L 290.651016 187.047081 
z
" clip-path="url(#pcfc9dfad56)" style="fill: #e8edf4; stroke: #b8c5d4; stroke-width: 0.45"/>
    <path d="M 284.957386 205.83873 
L 288.029351 205.439947 
L 292.403372 209.401828 
L 298.928913 209.368628 
L 298.860986 211.647225 
L 304.890433 220.191486 
L 294.760199 218.228099 
L 287.301238 211.410245 
z
" clip-path="url(#pcfc9dfad56)" style="fill: #e8edf4; stroke: #b8c5d4; stroke-width: 0.45"/>
    <path d="M 213.489357 150.867727 
L 215.290559 149.123385 
L 249.517292 154.038646 
L 269.626929 161.120049 
L 272.214794 163.865206 
L 281.171046 161.545954 
L 294.945662 164.635855 
L 299.466831 170.696271 
L 308.750043 174.119259 
L 304.917146 176.155533 
L 312.190644 184.147604 
L 310.178029 185.878971 
L 302.216869 185.001266 
L 291.21122 180.753941 
L 287.593552 183.166101 
L 267.068246 185.469884 
L 252.842567 178.217757 
L 237.106473 178.919539 
L 239.308366 172.608845 
L 235.620481 162.533562 
L 227.083853 157.091032 
L 218.900595 155.392483 
z
" clip-path="url(#pcfc9dfad56)" style="fill: #e8edf4; stroke: #b8c5d4; stroke-width: 0.45"/>
    <path d="M 134.877579 377.966089 
L 139.658396 358.7955 
L 156.095127 361.144695 
L 162.479472 356.599331 
L 166.013949 351.28197 
L 177.283672 349.236537 
L 179.713769 344.290482 
L 184.598384 341.782156 
L 169.878138 327.014208 
L 199.456773 319.602949 
L 202.271533 317.37587 
L 220.061455 321.378583 
L 242.06741 331.716795 
L 283.70952 361.419455 
L 324.329676 364.024328 
L 328.007639 371.061227 
L 338.453083 370.67809 
L 344.235247 383.414725 
L 351.501112 386.788162 
L 354.031954 391.975395 
L 364.097314 398.183436 
L 364.991046 404.277757 
L 363.519556 409.196717 
L 365.388684 414.158036 
L 369.635247 418.296985 
L 373.81083 426.760726 
L 378.275674 429.691113 
L 382.369592 428.641684 
L 391.395445 452.659872 
L 435.792783 460.106621 
L 438.769345 456.984665 
L 445.538354 467.446137 
L 435.692038 496.984704 
L 391.38476 511.753796 
L 348.800073 517.415371 
L 335.015535 524.061501 
L 324.431184 539.56901 
L 317.538534 542.03078 
L 313.84607 537.107622 
L 308.184496 537.84642 
L 293.907681 536.369205 
L 291.199772 534.892372 
L 274.155517 535.231624 
L 270.151659 536.566498 
L 264.085577 532.726351 
L 260.171779 539.98611 
L 261.686773 546.212087 
L 255.202446 550.923451 
L 253.285998 544.620771 
L 248.831839 540.172718 
L 247.693113 534.281032 
L 240.064718 528.988857 
L 232.192855 516.604067 
L 228.027194 504.568833 
L 217.811479 494.405398 
L 211.22488 491.979881 
L 201.443438 477.904175 
L 199.734586 467.639995 
L 200.364243 458.885086 
L 191.893252 442.509031 
L 184.967783 436.745566 
L 176.989069 433.691155 
L 172.132693 425.228559 
L 172.940181 421.889848 
L 168.836341 414.233214 
L 164.523378 410.935717 
L 158.756479 399.948766 
L 142.230451 377.89511 
z
" clip-path="url(#pcfc9dfad56)" style="fill: #e8edf4; stroke: #b8c5d4; stroke-width: 0.45"/>
    <path d="M 106.807831 273.378078 
L 109.985884 269.734842 
L 120.62366 269.934043 
L 134.052537 265.527204 
L 124.07342 271.816528 
L 125.148799 274.58206 
L 117.796689 275.441065 
L 116.438156 273.043024 
L 109.581377 274.148932 
z
" clip-path="url(#pcfc9dfad56)" style="fill: #e8edf4; stroke: #b8c5d4; stroke-width: 0.45"/>
    <path d="M 99.790776 273.921492 
L 109.581377 274.148932 
L 116.438156 273.043024 
L 117.796689 275.441065 
L 123.565878 274.063833 
L 125.610547 275.769632 
L 110.471293 281.769313 
L 103.241299 279.852483 
z
" clip-path="url(#pcfc9dfad56)" style="fill: #e8edf4; stroke: #b8c5d4; stroke-width: 0.45"/>
    <path d="M -11.814351 348.639655 
L -8.010535 339.520985 
L -10.296074 333.204332 
L -4.950351 326.117169 
L 14.700258 325.873034 
L 50.415212 336.442338 
L 61.785895 331.763298 
L 67.865058 327.531323 
L 80.890043 326.313452 
L 91.391409 328.178215 
L 95.415286 335.503754 
L 98.842634 330.678055 
L 110.679434 334.167582 
L 122.191754 335.003668 
L 129.458806 331.283298 
L 139.164554 356.65728 
L 135.016468 362.593182 
L 131.838277 373.750302 
L 127.820455 381.440492 
L 124.377009 384.0192 
L 112.789071 372.6624 
L 102.250782 351.491742 
L 100.732948 352.830572 
L 106.852726 368.415065 
L 115.920148 383.263163 
L 127.082585 406.268012 
L 137.281034 422.64 
L 150.534055 438.990129 
L 147.599557 441.564997 
L 148.076012 451.163963 
L 167.870474 467.446154 
L -7.384615 467.446154 
L -7.384615 360.536795 
z
" clip-path="url(#pcfc9dfad56)" style="fill: #e8edf4; stroke: #b8c5d4; stroke-width: 0.45"/>
   </g>
   <g id="PathCollection_1">
    <defs>
     <path id="m3596193187" d="M 0 2.12132 
C 0.562581 2.12132 1.102195 1.897805 1.5 1.5 
C 1.897805 1.102195 2.12132 0.562581 2.12132 0 
C 2.12132 -0.562581 1.897805 -1.102195 1.5 -1.5 
C 1.102195 -1.897805 0.562581 -2.12132 0 -2.12132 
C -0.562581 -2.12132 -1.102195 -1.897805 -1.5 -1.5 
C -1.897805 -1.102195 -2.12132 -0.562581 -2.12132 0 
C -2.12132 0.562581 -1.897805 1.102195 -1.5 1.5 
C -1.102195 1.897805 -0.562581 2.12132 0 2.12132 
z
" style="stroke: #ffffff; stroke-width: 0.5"/>
    </defs>
    <g clip-path="url(#pcfc9dfad56)">
     <use xlink:href="#m3596193187" x="110.769231" y="275.446154" style="fill: #8aa0b7; stroke: #ffffff; stroke-width: 0.5"/>
     <use xlink:href="#m3596193187" x="136.615385" y="327.138462" style="fill: #8aa0b7; stroke: #ffffff; stroke-width: 0.5"/>
     <use xlink:href="#m3596193187" x="299.076923" y="356.676923" style="fill: #8aa0b7; stroke: #ffffff; stroke-width: 0.5"/>
     <use xlink:href="#m3596193187" x="152.615385" y="292.676923" style="fill: #8aa0b7; stroke: #ffffff; stroke-width: 0.5"/>
     <use xlink:href="#m3596193187" x="143.751877" y="320.459815" style="fill: #8aa0b7; stroke: #ffffff; stroke-width: 0.5"/>
    </g>
   </g>
   <g id="PatchCollection_2">
    <defs>
     <path id="m89abcc9e00" d="M 267.068246 -217.730116 
L 287.593552 -220.033899 
L 290.651016 -216.152919 
L 296.275956 -213.596892 
L 293.304736 -209.892979 
L 301.172783 -204.826717 
L 297.009412 -200.122985 
L 303.279273 -196.106152 
L 309.910139 -193.685978 
L 310.238324 -183.442787 
L 304.890433 -183.008514 
L 298.860986 -191.552775 
L 298.928913 -193.831372 
L 292.403372 -193.798172 
L 288.029351 -197.760053 
L 284.957386 -197.36127 
L 279.138588 -201.673851 
L 268.156599 -205.344945 
L 269.577717 -212.532198 
z
" style="stroke: #b45309; stroke-width: 1.15"/>
    </defs>
    <g clip-path="url(#pcfc9dfad56)">
     <use xlink:href="#m89abcc9e00" x="0" y="403.2" style="fill: #f59e0b; stroke: #b45309; stroke-width: 1.15"/>
    </g>
   </g>
   <g id="PathCollection_2">
    <defs>
     <path id="mfe17328f22" d="M 0 3.316625 
C 0.879579 3.316625 1.723251 2.967164 2.345208 2.345208 
C 2.967164 1.723251 3.316625 0.879579 3.316625 0 
C 3.316625 -0.879579 2.967164 -1.723251 2.345208 -2.345208 
C 1.723251 -2.967164 0.879579 -3.316625 0 -3.316625 
C -0.879579 -3.316625 -1.723251 -2.967164 -2.345208 -2.345208 
C -2.967164 -1.723251 -3.316625 -0.879579 -3.316625 0 
C -3.316625 0.879579 -2.967164 1.723251 -2.345208 2.345208 
C -1.723251 2.967164 -0.879579 3.316625 0 3.316625 
z
" style="stroke: #ffffff"/>
    </defs>
    <g clip-path="url(#pcfc9dfad56)">
     <use xlink:href="#mfe17328f22" x="288" y="201.6" style="fill: #f97316; stroke: #ffffff"/>
    </g>
   </g>
   <g id="PathCollection_3">
    <path d="M 288 206.049719 
C 289.180079 206.049719 290.311984 205.580869 291.146427 204.746427 
C 291.980869 203.911984 292.449719 202.780079 292.449719 201.6 
C 292.449719 200.419921 291.980869 199.288016 291.146427 198.453573 
C 290.311984 197.619131 289.180079 197.150281 288 197.150281 
C 286.819921 197.150281 285.688016 197.619131 284.853573 198.453573 
C 284.019131 199.288016 283.550281 200.419921 283.550281 201.6 
C 283.550281 202.780079 284.019131 203.911984 284.853573 204.746427 
C 285.688016 205.580869 286.819921 206.049719 288 206.049719 
L 288 206.049719 
z
" clip-path="url(#pcfc9dfad56)" style="fill: none; stroke: #7c2d12; stroke-width: 1.1"/>
   </g>
  </g>
 </g>
 <defs>
  <clipPath id="pcfc9dfad56">
   <rect x="0" y="0" width="576" height="403.2"/>
  </clipPath>
 </defs>
</svg>
