<?xml version="1.0" encoding="utf-8" standalone="no"?>
<!DOCTYPE svg PUBLIC "-//W3C//DTD SVG 1.1//EN"
  "http://www.w3.org/Graphics/SVG/1.1/DTD/svg11.dtd">
<svg xmlns:xlink="http://www.w3.org/1999/xlink" width="387.201089pt" height="432pt" viewBox="0 0 387.201089 432" xmlns="http://www.w3.org/2000/svg" version="1.1">
 <metadata>
  <rdf:RDF xmlns:dc="http://purl.org/dc/elements/1.1/" xmlns:cc="http://creativecommons.org/ns#" xmlns:rdf="http://www.w3.org/1999/02/22-rdf-syntax-ns#">
   <cc:Work>
    <dc:type rdf:resource="http://purl.org/dc/dcmitype/StillImage"/>
    <dc:date>2026-06-09T04:57:00.745164</dc:date>
    <dc:format>image/svg+xml</dc:format>
    <dc:creator>
     <cc:Agent>
      <dc:title>Matplotlib v3.10.8, https://matplotlib.org/</dc:title>
     </cc:Agent>
    </dc:creator>
   </cc:Work>
  </rdf:RDF>
 </metadata>
 <defs>
  <style type="text/css">*{stroke-linejoin: round; stroke-linecap: butt}</style>
 </defs>
 <g id="figure_1">
  <g id="patch_1">
   <path d="M 0 432 
L 387.201089 432 
L 387.201089 0 
L 0 0 
z
" style="fill: #eaf3ff"/>
  </g>
  <g id="axes_1">
   <g id="PatchCollection_1">
    <path d="M -231.410812 -140.422095 
L -230.433864 -141.997374 
L -218.768615 -139.256999 
L -214.471974 -131.642045 
L -212.476598 -133.771651 
L -213.767268 -140.386336 
L -216.509942 -147.001021 
L 6.783525 -147.001021 
L 6.80756 -150.100647 
L 9.538215 -150.139367 
L 10.970698 -145.710351 
L 13.478309 -144.344983 
L 27.346077 -142.564342 
L 35.170766 -140.063668 
L 41.704784 -141.112338 
L 51.626812 -139.014999 
L 54.265285 -139.094119 
L 61.483385 -141.377874 
L 89.733208 -130.061646 
L 90.514399 -127.940257 
L 92.41402 -127.146351 
L 91.920732 -126.34707 
L 94.084218 -126.098374 
L 95.653838 -126.93292 
L 96.059337 -125.022669 
L 97.681434 -123.744167 
L 99.896825 -123.744167 
L 101.079242 -122.75809 
L 100.084619 -121.323891 
L 108.489513 -117.537572 
L 111.823333 -103.207671 
L 109.464975 -98.439551 
L 103.898959 -91.179531 
L 103.721494 -90.338022 
L 104.626492 -89.185411 
L 107.366915 -87.913369 
L 109.390134 -87.913369 
L 118.759845 -92.220343 
L 127.070946 -93.488216 
L 137.622866 -97.50068 
L 137.053052 -100.778891 
L 135.748882 -102.3627 
L 139.390134 -103.643287 
L 154.718826 -103.673093 
L 157.300442 -106.816477 
L 166.833575 -113.253623 
L 170.473346 -114.738136 
L 197.593072 -114.800411 
L 198.400225 -116.791269 
L 204.409908 -118.444941 
L 207.273583 -122.115284 
L 209.734165 -128.391733 
L 215.887065 -134.479753 
L 218.566948 -132.35998 
L 223.976147 -133.730188 
L 227.557596 -131.402948 
L 227.550497 -120.403614 
L 232.825548 -115.843675 
L 234.219068 -113.199173 
L 225.604973 -109.290862 
L 208.796816 -104.118904 
L 203.160459 -97.514302 
L 203.078905 -93.236537 
L 205.740912 -88.961191 
L 209.088588 -88.759524 
L 208.241586 -91.703866 
L 210.661835 -89.911689 
L 210.016015 -87.607359 
L 204.571242 -86.299184 
L 200.696085 -86.456081 
L 194.729881 -85.048847 
L 186.530656 -84.247421 
L 179.806506 -81.91173 
L 191.654375 -83.431314 
L 194.044213 -81.902838 
L 182.750847 -79.482831 
L 177.612366 -79.466698 
L 177.851745 -80.456884 
L 175.396366 -78.220475 
L 177.770151 -77.850375 
L 176.02823 -72.055508 
L 170.158423 -65.846416 
L 169.558503 -67.918425 
L 167.786977 -68.338297 
L 165.140861 -70.355372 
L 166.819136 -66.01146 
L 168.821008 -64.575849 
L 168.942853 -61.527349 
L 161.815933 -51.950333 
L 161.081542 -52.270661 
L 163.575923 -57.75964 
L 159.455297 -60.842446 
L 158.510446 -67.544131 
L 156.955793 -64.056215 
L 158.677184 -58.939071 
L 153.347781 -60.203377 
L 158.900712 -57.605526 
L 159.246612 -49.929708 
L 161.561268 -49.371977 
L 163.532041 -38.510019 
L 158.404127 -32.522922 
L 150.0595 -30.130906 
L 144.757063 -25.39947 
L 140.728639 -24.882073 
L 136.644313 -21.918533 
L 135.491583 -19.211674 
L 126.636335 -13.976111 
L 122.089505 -10.135923 
L 118.287593 -5.353909 
L 117.044275 0.377474 
L 118.469739 5.979548 
L 121.161674 12.880762 
L 124.746632 18.590929 
L 124.791684 22.076788 
L 128.610945 31.434147 
L 128.005776 40.010853 
L 125.993379 44.936495 
L 123.581681 45.954188 
L 119.611821 44.976022 
L 118.338333 41.436842 
L 115.272991 39.581504 
L 107.245425 26.472811 
L 106.034534 23.317122 
L 107.690303 17.962776 
L 105.43163 13.526097 
L 99.14292 6.777827 
L 95.993603 5.540075 
L 87.855766 9.201142 
L 86.411667 8.798049 
L 82.497225 5.035019 
L 77.440218 3.039401 
L 68.321955 4.053142 
L 61.163091 3.161208 
L 55.010869 3.717164 
L 51.676574 4.975455 
L 53.129354 7.119613 
L 52.998149 10.391059 
L 54.710949 11.984714 
L 53.173761 13.045242 
L 50.180616 11.855163 
L 47.152784 13.385495 
L 41.299635 13.13458 
L 35.277367 8.871617 
L 28.240995 9.877534 
L 22.374012 8.010498 
L 17.356127 8.576135 
L 10.567363 10.460755 
L 3.224578 16.441157 
L -4.791936 19.91911 
L -9.196026 23.770793 
L -11.051364 27.400803 
L -11.132031 32.966818 
L -10.728697 36.838829 
L -9.196026 39.581504 
L -12.342035 39.823504 
L -24.361402 35.548159 
L -26.620075 31.756815 
L -28.394747 26.110132 
L -33.154093 21.51212 
L -39.991419 11.261697 
L -45.676822 8.046395 
L -52.272147 8.202082 
L -57.354161 14.574767 
L -64.049514 12.15476 
L -68.21975 9.718942 
L -72.901656 1.070967 
L -81.819623 -5.026885 
L -84.761464 -7.887091 
L -98.736278 -7.889783 
L -98.751927 -4.561195 
L -121.190795 -4.500695 
L -151.77476 -14.104573 
L -151.019637 -15.682014 
L -170.431077 -14.185724 
L -171.787714 -18.306871 
L -177.015431 -22.945313 
L -180.779367 -23.910676 
L -181.660996 -26.224786 
L -186.187257 -26.629883 
L -189.073846 -28.811738 
L -196.567312 -29.607378 
L -198.624963 -30.909665 
L -199.604823 -35.332711 
L -207.431448 -43.437072 
L -214.150194 -54.651625 
L -213.864149 -56.520113 
L -217.423011 -59.184701 
L -223.666709 -65.944184 
L -224.77967 -72.521198 
L -229.078409 -76.927304 
L -227.31011 -83.613137 
L -227.591154 -90.531292 
L -230.165557 -96.713199 
L -227.013901 -104.315166 
L -225.052002 -118.95645 
L -226.509693 -129.776623 
L -229.059049 -136.67703 
z
" clip-path="url(#pa79e613718)" style="fill: #e8edf4; stroke: #b8c5d4; stroke-width: 0.45"/>
    <path d="M -581.693488 -281.472709 
L -570.357459 -284.847172 
L -552.364212 -288.786478 
L -545.731797 -288.786478 
L -546.829592 -284.757548 
L -529.802204 -285.071442 
L -536.351873 -290.068315 
L -546.27392 -293.140348 
L -552.01155 -297.173238 
L -559.749888 -300.613148 
L -570.834761 -303.163067 
L -566.319566 -307.391255 
L -552.010091 -307.653459 
L -541.828341 -311.328476 
L -539.908086 -315.256527 
L -531.6666 -319.090367 
L -523.808832 -320.012873 
L -508.517449 -323.594098 
L -501.100507 -323.054267 
L -488.686693 -327.354155 
L -476.481515 -325.660253 
L -470.644257 -322.019209 
L -467.061364 -323.580759 
L -453.428658 -323.096787 
L -453.91263 -321.241561 
L -441.570514 -319.870308 
L -433.342577 -320.676928 
L -416.348955 -318.128051 
L -400.833712 -317.369578 
L -394.622532 -316.320764 
L -383.889279 -317.631782 
L -362.887988 -314.078278 
L -362.983113 -238.206157 
L -355.039199 -237.967625 
L -347.182243 -235.734604 
L -334.384441 -226.901579 
L -326.537327 -231.409971 
L -318.439258 -234.022691 
L -314.157217 -229.850438 
L -301.335698 -222.910827 
L -288.043811 -207.921627 
L -274.330197 -202.788873 
L -274.106104 -197.700164 
L -278.592073 -193.81003 
L -283.026397 -196.844338 
L -290.136322 -199.416558 
L -292.417576 -206.452491 
L -302.816913 -212.977565 
L -307.163905 -220.593973 
L -327.733958 -221.313052 
L -337.187666 -223.634533 
L -353.867811 -232.00587 
L -375.701568 -236.415808 
L -386.869395 -235.727993 
L -402.733958 -239.434066 
L -412.323776 -242.87085 
L -421.277255 -241.163401 
L -419.613576 -235.559791 
L -433.405939 -233.360241 
L -440.507736 -230.63816 
L -449.446833 -228.924875 
L -450.600695 -233.67747 
L -446.972991 -241.589429 
L -438.399895 -244.072234 
L -440.611533 -246.095661 
L -450.894371 -241.600684 
L -456.399811 -236.231974 
L -468.022638 -230.49351 
L -462.120558 -226.576715 
L -469.743427 -220.781976 
L -486.488602 -214.944925 
L -488.487226 -211.37308 
L -501.08029 -207.207629 
L -503.630209 -203.420685 
L -513.068284 -199.972438 
L -518.605197 -200.592722 
L -541.028391 -192.898362 
L -554.871819 -190.594807 
L -556.135523 -191.950428 
L -547.311479 -195.719239 
L -539.419529 -198.208713 
L -530.821838 -202.620735 
L -520.814543 -203.53282 
L -516.837303 -206.840169 
L -505.655929 -211.669049 
L -503.85427 -213.284373 
L -497.898415 -216.132553 
L -496.506944 -222.249732 
L -492.40423 -227.013582 
L -501.705576 -224.568711 
L -504.306977 -225.956014 
L -508.674187 -223.023003 
L -513.942227 -227.114461 
L -516.117182 -224.219801 
L -519.133981 -228.241645 
L -527.198511 -225.012665 
L -532.150572 -225.019335 
L -532.845057 -229.821119 
L -531.386472 -232.779141 
L -536.580519 -235.651708 
L -547.069493 -234.105582 
L -553.87678 -237.892318 
L -559.395768 -239.828414 
L -559.431617 -244.397383 
L -565.647383 -247.834792 
L -562.526161 -252.472959 
L -555.949605 -256.974814 
L -553.072453 -261.115462 
L -546.545086 -261.704899 
L -541.010466 -260.414307 
L -534.503317 -264.306299 
L -528.646049 -263.611606 
L -522.49969 -266.114628 
L -523.998711 -269.798608 
L -528.513905 -271.250524 
L -522.54221 -274.362784 
L -527.496356 -274.271075 
L -536.056112 -272.514228 
L -538.514322 -270.732787 
L -544.875779 -272.511935 
L -556.285592 -271.606729 
L -568.098923 -273.540532 
L -571.484642 -276.785144 
z
" clip-path="url(#pa79e613718)" style="fill: #e8edf4; stroke: #b8c5d4; stroke-width: 0.45"/>
    <path d="M -484.594021 89.329261 
L -482.792003 87.116165 
L -483.348524 85.52977 
L -482.880737 84.77747 
L -476.436904 88.069567 
L -474.381108 90.896054 
L -480.307705 94.326252 
L -481.485926 95.675729 
L -483.490337 94.520579 
L -483.25971 92.26602 
z
" clip-path="url(#pa79e613718)" style="fill: #e8edf4; stroke: #b8c5d4; stroke-width: 0.45"/>
    <path d="M -611.383345 -263.208505 
L -610.903751 -266.246981 
L -605.924802 -264.711694 
L -600.896664 -265.540824 
L -594.373883 -263.412348 
L -586.363128 -262.334562 
L -587.028641 -261.456035 
L -593.13915 -259.748585 
L -602.350872 -262.96631 
L -609.46309 -262.498179 
z
" clip-path="url(#pa79e613718)" style="fill: #e8edf4; stroke: #b8c5d4; stroke-width: 0.45"/>
    <path d="M -473.280673 -215.254859 
L -461.646383 -219.350903 
L -456.290595 -218.80607 
L -452.873195 -216.302423 
L -459.852227 -212.468999 
L -467.909045 -209.394256 
L -472.033643 -211.476044 
z
" clip-path="url(#pa79e613718)" style="fill: #e8edf4; stroke: #b8c5d4; stroke-width: 0.45"/>
    <path d="M -489.733148 79.457085 
L -488.942854 78.765528 
L -483.966352 80.769697 
L -484.640727 81.738264 
L -487.344601 82.315517 
z
" clip-path="url(#pa79e613718)" style="fill: #e8edf4; stroke: #b8c5d4; stroke-width: 0.45"/>
    <path d="M -502.495457 74.1947 
L -500.338021 73.082787 
L -497.334228 76.267436 
L -497.771442 76.733287 
L -501.156548 76.345924 
z
" clip-path="url(#pa79e613718)" style="fill: #e8edf4; stroke: #b8c5d4; stroke-width: 0.45"/>
    <path d="M -514.658895 70.272595 
L -513.01079 68.894401 
L -511.151337 69.065737 
L -510.985405 70.944792 
L -511.942115 71.743475 
z
" clip-path="url(#pa79e613718)" style="fill: #e8edf4; stroke: #b8c5d4; stroke-width: 0.45"/>
    <path d="M -576.407523 -237.453367 
L -568.441789 -238.833583 
L -562.041981 -238.10304 
L -561.273503 -235.008496 
L -566.223272 -233.753754 
z
" clip-path="url(#pa79e613718)" style="fill: #e8edf4; stroke: #b8c5d4; stroke-width: 0.45"/>
    <path d="M -494.691419 78.077601 
L -494.086901 77.094997 
L -490.117848 77.439768 
L -490.368641 78.311857 
z
" clip-path="url(#pa79e613718)" style="fill: #e8edf4; stroke: #b8c5d4; stroke-width: 0.45"/>
    <path d="M 182.182664 646.103263 
L 188.371334 642.555387 
L 190.929173 637.438042 
L 189.991868 633.358672 
L 194.267995 626.472182 
L 197.214345 615.791037 
L 196.34874 611.055533 
L 199.870146 609.527333 
L 199.006833 606.48844 
L 195.265327 604.872282 
L 197.923837 601.487815 
L 194.282793 598.430163 
L 192.39943 589.123814 
L 195.643 587.482229 
L 194.280292 577.648555 
L 198.331524 562.19022 
L 203.16228 559.261794 
L 200.710323 551.387352 
L 200.684061 543.976455 
L 206.791443 538.708624 
L 206.603649 531.969702 
L 211.207634 524.095677 
L 211.22806 516.67686 
L 209.133767 515.203267 
L 205.417688 501.278552 
L 210.387258 492.980582 
L 209.624617 485.168668 
L 212.507813 477.837808 
L 217.790651 470.271841 
L 223.48326 465.255375 
L 221.069237 462.089757 
L 222.753551 459.49315 
L 222.498225 446.050322 
L 231.284544 442.071415 
L 234.053105 433.690491 
L 233.073489 431.670398 
L 239.795737 424.381224 
L 250.350574 426.345875 
L 255.092748 432.171878 
L 258.240232 425.682654 
L 267.43924 426.01614 
L 283.571842 440.905047 
L 290.167157 442.13186 
L 300.023341 448.090424 
L 308.331316 451.243536 
L 309.489346 454.803501 
L 301.547581 467.065371 
L 309.682143 469.260961 
L 318.741504 470.491941 
L 325.121094 469.195931 
L 332.437989 463.016432 
L 333.756927 455.897336 
L 337.751883 454.351627 
L 341.798947 459.007928 
L 341.634496 465.450047 
L 329.42515 473.181508 
L 320.320977 481.013014 
L 309.558128 492.012222 
L 305.385174 506.759814 
L 305.464168 514.794747 
L 303.713991 516.59057 
L 302.537618 526.014889 
L 312.779187 532.924306 
L 311.677849 538.485188 
L 316.718493 542.000133 
L 316.308722 545.940272 
L 308.557669 556.28418 
L 296.597187 560.610746 
L 280.418731 562.290266 
L 271.557377 561.47781 
L 273.252946 566.288765 
L 271.601148 572.326532 
L 273.089746 576.394647 
L 268.251279 579.233031 
L 259.985407 580.346458 
L 252.228518 577.409279 
L 249.115216 579.519829 
L 250.240315 587.535586 
L 255.686562 589.963783 
L 260.102752 587.420117 
L 262.505729 591.610371 
L 255.078366 594.114435 
L 248.600814 599.130484 
L 247.414854 607.245453 
L 245.507521 611.564516 
L 237.886945 611.587444 
L 231.564047 615.719754 
L 229.250904 621.768777 
L 237.184331 627.674817 
L 244.896408 629.305981 
L 242.120969 636.543048 
L 232.593477 641.09305 
L 227.350866 650.549885 
L 219.988742 653.732593 
L 216.68306 657.510158 
L 219.288421 665.888171 
L 224.65734 670.557811 
L 213.78048 668.886212 
L 194.287796 667.807384 
L 190.943346 663.103972 
L 191.100085 657.062453 
L 185.729498 657.582275 
L 182.88757 654.656767 
z
" clip-path="url(#pa79e613718)" style="fill: #e8edf4; stroke: #b8c5d4; stroke-width: 0.45"/>
    <path d="M 220.752938 672.868007 
L 227.883974 682.657979 
L 238.370671 687.497993 
L 249.664036 689.514665 
L 246.034025 693.54801 
L 238.370671 693.951344 
L 234.257304 691.10227 
L 220.758264 690.881969 
z
" clip-path="url(#pa79e613718)" style="fill: #e8edf4; stroke: #b8c5d4; stroke-width: 0.45"/>
    <path d="M 164.20234 624.558805 
L 171.883777 617.430538 
L 174.630036 604.032314 
L 183.594978 606.871115 
L 187.810243 590.160123 
L 182.39672 588.015807 
L 179.876399 598.085005 
L 174.789484 596.949068 
L 180.071905 570.468181 
L 183.778604 564.954403 
L 181.455664 557.082879 
L 180.790151 547.994964 
L 184.189 547.73276 
L 194.715908 521.800875 
L 198.13039 509.779948 
L 196.272872 497.693992 
L 198.681893 491.039276 
L 197.715408 481.083046 
L 202.43257 471.233115 
L 203.885945 455.628462 
L 208.997871 420.840018 
L 208.4076 407.636049 
L 206.728498 396.274175 
L 210.875815 394.214898 
L 213.037848 390.079252 
L 216.991952 395.565517 
L 218.068278 401.386101 
L 222.300009 404.801417 
L 219.75947 412.606661 
L 224.093331 421.654975 
L 227.253321 432.775488 
L 233.073489 431.670398 
L 234.053105 433.690491 
L 231.284544 442.071415 
L 222.498225 446.050322 
L 222.753551 459.49315 
L 221.069237 462.089757 
L 223.48326 465.255375 
L 217.790651 470.271841 
L 212.507813 477.837808 
L 209.624617 485.168668 
L 210.387258 492.980582 
L 205.417688 501.278552 
L 209.133767 515.203267 
L 211.22806 516.67686 
L 211.207634 524.095677 
L 206.603649 531.969702 
L 206.791443 538.708624 
L 200.684061 543.976455 
L 200.710323 551.387352 
L 203.16228 559.261794 
L 198.331524 562.19022 
L 194.280292 577.648555 
L 195.643 587.482229 
L 192.39943 589.123814 
L 194.282793 598.430163 
L 197.923837 601.487815 
L 195.265327 604.872282 
L 199.006833 606.48844 
L 199.870146 609.527333 
L 196.34874 611.055533 
L 197.214345 615.791037 
L 194.267995 626.472182 
L 189.991868 633.358672 
L 190.929173 637.438042 
L 188.371334 642.555387 
L 182.182664 646.103263 
L 182.88757 654.656767 
L 185.729498 657.582275 
L 191.100085 657.062453 
L 190.943346 663.103972 
L 194.287796 667.807384 
L 213.78048 668.886212 
L 221.256823 670.150125 
L 214.079575 670.08968 
L 202.916751 674.988175 
L 201.616154 682.522879 
L 198.200214 682.710048 
L 189.099793 680.088013 
L 179.864935 674.470848 
L 169.829919 669.854156 
L 167.302928 664.744724 
L 169.588975 660.017974 
L 165.530448 654.653432 
L 164.495808 640.902963 
L 167.92613 633.14399 
L 176.446076 626.911134 
z
" clip-path="url(#pa79e613718)" style="fill: #e8edf4; stroke: #b8c5d4; stroke-width: 0.45"/>
    <path d="M 172.122742 674.490376 
L 178.773163 676.183897 
L 190.098149 681.572203 
L 200.79821 684.46758 
L 204.960218 680.769003 
L 207.576245 675.246547 
L 215.012362 671.915569 
L 220.752938 672.868007 
L 220.758264 690.881969 
L 234.257304 691.10227 
L 231.586343 694.364682 
L 224.66835 696.870115 
L 215.928334 695.960434 
L 210.071998 693.535345 
L 201.621415 692.368902 
L 183.233235 683.52531 
z
" clip-path="url(#pa79e613718)" style="fill: #e8edf4; stroke: #b8c5d4; stroke-width: 0.45"/>
    <path d="M 173.772351 100.303105 
L 174.483093 97.702746 
L 187.994703 99.470223 
L 190.899159 97.6744 
L 187.214554 94.179882 
L 187.275415 91.098678 
L 182.185999 89.840601 
L 184.002873 87.613122 
L 195.920836 89.236366 
L 196.626576 93.62963 
L 196.010043 96.730634 
L 194.043309 98.090007 
L 196.119468 100.511951 
L 195.953559 102.703372 
L 190.595895 101.332327 
L 186.788942 101.89175 
L 181.867103 101.308566 
L 178.092873 102.81634 
z
" clip-path="url(#pa79e613718)" style="fill: #e8edf4; stroke: #b8c5d4; stroke-width: 0.45"/>
    <path d="M 194.043309 98.090007 
L 196.010043 96.730634 
L 196.626576 93.62963 
L 195.920836 89.236366 
L 196.929631 87.861361 
L 203.226476 87.89867 
L 208.004707 89.975038 
L 210.130682 89.772445 
L 211.595312 92.633965 
L 216.008793 92.473058 
L 215.748882 94.877076 
L 219.338027 95.16846 
L 223.302552 98.127941 
L 220.306804 101.41153 
L 216.470046 99.656975 
L 210.113591 99.61133 
L 208.659174 101.082629 
L 205.562338 101.579732 
L 204.3349 99.622793 
L 201.667636 100.780824 
L 198.438865 106.304606 
L 196.36208 105.021934 
L 196.119468 100.511951 
z
" clip-path="url(#pa79e613718)" style="fill: #e8edf4; stroke: #b8c5d4; stroke-width: 0.45"/>
    <path d="M 141.905327 50.022704 
L 143.660719 44.903099 
L 146.087744 45.228186 
L 148.911086 51.923538 
L 148.954162 56.604235 
L 146.97508 57.005553 
L 144.925738 52.35793 
z
" clip-path="url(#pa79e613718)" style="fill: #e8edf4; stroke: #b8c5d4; stroke-width: 0.45"/>
    <path d="M 146.894413 30.143477 
L 153.267098 33.773487 
L 151.875191 39.507452 
L 150.392049 38.473544 
L 150.524423 34.257489 
L 146.910385 31.069856 
z
" clip-path="url(#pa79e613718)" style="fill: #e8edf4; stroke: #b8c5d4; stroke-width: 0.45"/>
    <path d="M 137.295053 32.16015 
L 141.086397 31.514814 
L 146.410412 31.756815 
L 146.652413 33.854154 
L 137.859721 35.144825 
z
" clip-path="url(#pa79e613718)" style="fill: #e8edf4; stroke: #b8c5d4; stroke-width: 0.45"/>
    <path d="M -170.431077 -14.185724 
L -151.019637 -15.682014 
L -151.77476 -14.104573 
L -121.190795 -4.500695 
L -98.751927 -4.561195 
L -98.736278 -7.889783 
L -84.761464 -7.887091 
L -81.819623 -5.026885 
L -72.901656 1.070967 
L -68.21975 9.718942 
L -64.049514 12.15476 
L -57.354161 14.574767 
L -52.272147 8.202082 
L -45.676822 8.046395 
L -39.991419 11.261697 
L -33.154093 21.51212 
L -28.394747 26.110132 
L -26.620075 31.756815 
L -24.361402 35.548159 
L -12.342035 39.823504 
L -9.196093 39.581524 
L -12.326486 46.662895 
L -13.737133 52.469306 
L -14.326778 63.27676 
L -15.103801 67.216273 
L -13.70566 71.616832 
L -11.204305 75.550718 
L -9.593984 81.807128 
L -4.239655 87.812797 
L -2.3565 92.415323 
L 0.79953 96.386935 
L 9.364914 98.527083 
L 12.699151 101.901754 
L 19.774269 99.647388 
L 25.925421 98.832639 
L 37.043017 95.999257 
L 42.173702 92.707749 
L 44.095833 88.002467 
L 44.75822 81.225611 
L 46.152609 78.867447 
L 51.616154 76.75502 
L 60.146314 74.883954 
L 67.288963 75.164917 
L 72.181622 74.481687 
L 74.116884 76.192054 
L 73.843217 80.077376 
L 69.508313 84.872699 
L 67.590351 89.784117 
L 69.077074 91.188928 
L 65.846843 100.970494 
L 63.802156 98.898711 
L 60.579846 99.139238 
L 57.690188 104.008553 
L 56.225976 103.054157 
L 55.249486 103.425578 
L 55.31264 104.61258 
L 40.321186 104.537754 
L 40.315141 109.078794 
L 36.671805 109.098803 
L 42.65809 113.654016 
L 43.553292 115.402109 
L 44.859933 115.8915 
L 44.65338 118.638592 
L 34.299884 118.66277 
L 30.41748 125.238075 
L 31.563213 126.745433 
L 30.627368 128.636925 
L 30.429569 130.986543 
L 21.300385 122.301938 
L 17.140353 119.682404 
L 10.554001 117.578523 
L 6.048186 118.164625 
L -0.430617 121.199557 
L -4.496647 121.994714 
L -16.238487 118.334077 
L -23.777985 114.633631 
L -29.825756 113.503322 
L -38.958067 109.753061 
L -45.706577 105.897544 
L -47.742927 103.743223 
L -52.257079 103.261961 
L -60.508153 100.708499 
L -63.868234 97.027854 
L -72.535749 92.449505 
L -76.577393 87.362382 
L -78.500149 83.431205 
L -75.808915 82.643761 
L -76.638879 80.343332 
L -74.784279 78.250914 
L -74.744469 75.461302 
L -77.465716 71.839017 
L -78.193758 68.629004 
L -80.89854 64.557972 
L -88.007423 56.539505 
L -96.118224 50.238284 
L -100.042314 45.20952 
L -106.965904 41.915927 
L -108.449292 39.945441 
L -107.219562 34.959823 
L -111.332072 33.078335 
L -116.093629 29.158414 
L -118.104551 23.529792 
L -122.443623 22.87345 
L -130.908128 14.700537 
L -131.259747 12.180215 
L -135.597777 6.09576 
L -138.455128 -0.081446 
L -138.332989 -3.179741 
L -144.166913 -6.379333 
L -146.860022 -6.027922 
L -151.463799 -8.25019 
L -152.756475 -4.974731 
L -151.421696 -1.10379 
L -150.636545 4.953778 
L -140.554424 15.73497 
L -139.327611 16.310858 
L -138.263374 19.081712 
L -136.829592 18.969577 
L -135.210516 24.172378 
L -132.760852 26.224569 
L -131.042981 29.080878 
L -125.973366 33.186093 
L -123.296722 40.689949 
L -118.661056 48.003092 
L -118.217728 52.257542 
L -114.328028 52.524123 
L -108.16708 59.791204 
L -108.363003 61.235824 
L -111.757684 64.198849 
L -113.18688 64.160081 
L -115.313897 59.256375 
L -120.592983 54.658434 
L -130.535457 48.709666 
L -130.268876 42.807169 
L -131.492771 38.435999 
L -140.882074 32.33612 
L -141.947354 33.374513 
L -143.981828 31.272299 
L -148.957442 29.319946 
L -153.711913 24.636133 
L -153.123935 24.027312 
L -149.80137 24.484813 
L -146.808332 21.471766 
L -146.507361 17.832806 
L -152.71729 12.078294 
L -157.450918 9.84477 
L -167.154115 -6.92896 
z
" clip-path="url(#pa79e613718)" style="fill: #e8edf4; stroke: #b8c5d4; stroke-width: 0.45"/>
    <path d="M 177.570133 308.959156 
L 179.6984 307.484313 
L 179.689646 304.076918 
L 184.565631 301.748351 
L 183.761513 297.386351 
L 185.820165 294.579648 
L 186.405641 290.815006 
L 195.630077 285.32499 
L 202.241233 283.773029 
L 203.32277 282.56039 
L 210.591935 282.938896 
L 214.408684 257.322572 
L 213.145605 252.703372 
L 209.567299 249.760356 
L 209.608359 243.899337 
L 214.151275 242.570394 
L 215.764306 243.40536 
L 216.036931 240.315611 
L 211.310181 239.481478 
L 211.210343 234.433957 
L 226.927547 234.614248 
L 229.595645 231.833598 
L 231.836672 234.392062 
L 233.409268 239.150493 
L 234.931632 238.156288 
L 239.372835 242.422826 
L 245.644667 241.900087 
L 247.206008 239.431455 
L 256.526322 236.22436 
L 257.463835 232.808003 
L 263.225851 230.512784 
L 262.789609 228.817424 
L 255.95606 228.12419 
L 254.836172 223.043944 
L 255.161529 217.635841 
L 251.551125 215.544674 
L 253.062859 214.80225 
L 259.034763 215.83439 
L 265.448953 217.850731 
L 267.77752 215.943815 
L 273.578304 214.6922 
L 282.601189 211.672483 
L 285.551291 208.593988 
L 284.483302 206.317737 
L 288.677099 205.961115 
L 290.554418 207.819883 
L 289.505395 211.361924 
L 292.277082 212.583734 
L 294.127305 216.332327 
L 291.889821 219.174254 
L 290.606317 226.041152 
L 292.671221 230.119688 
L 293.256073 233.85244 
L 298.218555 237.6373 
L 302.178079 238.037483 
L 303.069737 236.457592 
L 309.269037 234.693867 
L 311.891906 232.548509 
L 322.702277 233.604201 
L 323.429069 231.955946 
L 322.075948 230.352294 
L 322.882777 228.016432 
L 326.138227 228.733219 
L 329.947056 227.908466 
L 338.09058 231.281887 
L 340.587558 229.094634 
L 342.391927 229.431872 
L 343.492014 231.702705 
L 347.354409 231.12619 
L 350.445826 228.062078 
L 352.923003 222.121855 
L 357.694774 214.739722 
L 360.4427 214.358505 
L 362.438198 218.820134 
L 366.962772 232.927433 
L 371.276832 234.259085 
L 371.494432 239.82747 
L 365.427068 246.468014 
L 367.936134 248.899545 
L 382.19517 250.166376 
L 382.486136 258.251748 
L 388.613111 252.958489 
L 398.764014 255.857734 
L 412.161821 260.784159 
L 416.099042 265.511325 
L 414.776353 269.976705 
L 424.156277 267.490566 
L 439.855139 271.757105 
L 451.906704 271.442794 
L 463.831545 278.11877 
L 474.133767 287.155829 
L 480.347656 289.482729 
L 487.245818 289.806211 
L 490.169241 292.35071 
L 494.24611 307.502238 
L 491.033804 320.837933 
L 486.92984 326.104514 
L 475.55942 337.328825 
L 470.42019 346.448005 
L 464.448703 353.44121 
L 462.431945 353.598782 
L 460.178204 359.533586 
L 460.750758 374.648013 
L 457.644751 392.400316 
L 455.094207 395.583025 
L 453.663968 406.366717 
L 445.485011 416.89696 
L 444.113549 425.228279 
L 437.584306 428.724048 
L 435.695733 433.559181 
L 426.931924 433.540005 
L 414.24215 436.639759 
L 408.560587 440.228487 
L 399.526238 442.584984 
L 390.03272 449.007928 
L 383.204382 457.008678 
L 382.030303 463.031856 
L 383.371542 467.486397 
L 381.86481 475.635549 
L 380.034179 479.571936 
L 374.396595 484.011471 
L 365.446243 498.208812 
L 358.352784 504.607578 
L 352.868603 508.38014 
L 349.190042 516.05324 
L 343.85343 520.665771 
L 341.619906 516.09701 
L 345.176953 512.270673 
L 340.511481 506.781908 
L 325.882068 497.155412 
L 322.883402 497.390937 
L 314.794278 491.152244 
L 309.558128 492.012222 
L 320.320977 481.013014 
L 329.42515 473.181508 
L 341.634496 465.450047 
L 341.798947 459.007928 
L 337.751883 454.351627 
L 333.756927 455.897336 
L 336.433571 446.471766 
L 336.437739 442.036816 
L 333.534742 440.573229 
L 330.509189 441.877577 
L 327.50156 441.519913 
L 326.558628 438.414739 
L 325.808076 431.022601 
L 324.297383 428.613164 
L 318.84947 426.43008 
L 315.55671 428.009971 
L 307.041141 426.461344 
L 307.577428 415.510908 
L 305.19196 411.025936 
L 307.713532 409.358505 
L 306.937552 404.760565 
L 309.147731 401.226028 
L 310.58068 394.872282 
L 308.675432 389.857067 
L 304.269037 387.592279 
L 303.403849 384.409154 
L 304.58835 379.750352 
L 289.123137 379.417282 
L 286.020882 370.024644 
L 288.374877 369.889999 
L 288.268578 366.411321 
L 286.696608 364.056075 
L 286.34082 359.393104 
L 281.655547 357.000758 
L 276.58093 357.079961 
L 273.242316 354.737221 
L 267.7894 353.138988 
L 264.615654 350.125107 
L 255.582139 348.793663 
L 246.822291 341.568268 
L 247.470713 336.160373 
L 246.479008 333.059368 
L 247.337318 327.013681 
L 236.782272 328.379723 
L 232.531991 331.408612 
L 225.47855 334.67761 
L 223.679183 337.117478 
L 213.527864 336.610996 
L 208.977653 338.000383 
L 205.307846 337.074125 
L 205.846635 324.820592 
L 199.227768 329.574438 
L 192.109089 329.366009 
L 189.058732 325.063203 
L 183.705028 324.595489 
L 185.409768 321.131818 
L 180.927297 316.224152 
z
" clip-path="url(#pa79e613718)" style="fill: #e8edf4; stroke: #b8c5d4; stroke-width: 0.45"/>
    <path d="M 213.037848 390.079252 
L 218.126222 381.372762 
L 214.656506 374.592154 
L 216.507146 371.880495 
L 215.061692 368.88954 
L 218.212928 364.859777 
L 218.767974 352.324865 
L 220.502311 349.594864 
L 213.527864 336.610996 
L 223.679183 337.117478 
L 225.47855 334.67761 
L 232.531991 331.408612 
L 236.782272 328.379723 
L 247.337318 327.013681 
L 246.479008 333.059368 
L 247.470713 336.160373 
L 246.822291 341.568268 
L 255.582139 348.793663 
L 264.615654 350.125107 
L 267.7894 353.138988 
L 273.242316 354.737221 
L 276.58093 357.079961 
L 281.655547 357.000758 
L 286.34082 359.393104 
L 286.696608 364.056075 
L 288.268578 366.411321 
L 288.374877 369.889999 
L 286.020882 370.024644 
L 289.123137 379.417282 
L 304.58835 379.750352 
L 303.403849 384.409154 
L 304.269037 387.592279 
L 308.675432 389.857067 
L 310.58068 394.872282 
L 309.147731 401.226028 
L 306.937552 404.760565 
L 307.713532 409.358505 
L 305.19196 411.025936 
L 305.054188 408.538963 
L 297.539494 404.412905 
L 290.049395 404.298686 
L 275.991076 406.646012 
L 272.122011 413.744682 
L 271.918585 418.083754 
L 268.741295 427.742765 
L 267.43924 426.01614 
L 258.240232 425.682654 
L 255.092748 432.171878 
L 250.350574 426.345875 
L 239.795737 424.381224 
L 233.073489 431.670398 
L 227.253321 432.775488 
L 224.093331 421.654975 
L 219.75947 412.606661 
L 222.300009 404.801417 
L 218.068278 401.386101 
L 216.991952 395.565517 
z
" clip-path="url(#pa79e613718)" style="fill: #e8edf4; stroke: #b8c5d4; stroke-width: 0.45"/>
    <path d="M 117.685394 286.476768 
L 120.196337 280.827095 
L 126.626367 275.732677 
L 127.582639 279.090883 
L 125.281376 281.011763 
L 125.499601 283.967701 
L 128.833838 283.325323 
L 132.092206 284.19739 
L 135.477716 288.270507 
L 140.038556 284.952319 
L 141.564881 279.509825 
L 146.50798 272.491191 
L 156.208259 269.31015 
L 165.004166 260.863779 
L 167.515108 255.618875 
L 166.389801 249.49315 
L 168.54037 248.728216 
L 173.904912 252.548717 
L 176.479842 256.356296 
L 180.213845 258.434749 
L 184.966023 266.892375 
L 190.972526 267.902838 
L 195.41748 265.769777 
L 198.330482 267.165417 
L 203.171867 266.472182 
L 209.349074 270.249747 
L 204.146272 278.459343 
L 206.555293 278.650681 
L 210.591935 282.938896 
L 203.32277 282.56039 
L 202.241233 283.773029 
L 195.630077 285.32499 
L 186.405641 290.815006 
L 185.820165 294.579648 
L 183.761513 297.386351 
L 184.565631 301.748351 
L 179.689646 304.076918 
L 179.6984 307.484313 
L 177.570133 308.959156 
L 180.927297 316.224152 
L 185.409768 321.131818 
L 183.705028 324.595489 
L 189.058732 325.063203 
L 192.109089 329.366009 
L 199.227768 329.574438 
L 205.846635 324.820592 
L 205.307846 337.074125 
L 208.977653 338.000383 
L 213.527864 336.610996 
L 220.502311 349.594864 
L 218.767974 352.324865 
L 218.212928 364.859777 
L 215.061692 368.88954 
L 216.507146 371.880495 
L 214.656506 374.592154 
L 218.126222 381.372762 
L 210.875815 394.214898 
L 206.728498 396.274175 
L 198.640207 391.642469 
L 197.940095 388.332618 
L 181.947973 380.232656 
L 167.481551 371.410279 
L 161.259533 366.438 
L 157.917793 359.774112 
L 159.242567 357.449714 
L 152.410477 346.863612 
L 144.45704 331.98054 
L 136.83563 315.918595 
L 133.536618 312.242327 
L 130.998371 306.301271 
L 124.731332 301.036358 
L 118.983698 297.770694 
L 121.594478 294.170711 
z
" clip-path="url(#pa79e613718)" style="fill: #e8edf4; stroke: #b8c5d4; stroke-width: 0.45"/>
    <path d="M 137.206842 234.623002 
L 140.216555 234.017724 
L 139.859308 229.976705 
L 141.751008 227.05495 
L 145.752634 226.514077 
L 152.237064 217.212939 
L 149.263826 215.293309 
L 150.785774 210.61158 
L 148.965773 203.231947 
L 150.695316 201.114102 
L 149.422024 194.2916 
L 146.155735 189.994839 
L 147.189542 186.073875 
L 149.789484 186.65289 
L 151.310389 184.255333 
L 149.437656 179.503989 
L 150.416646 178.32449 
L 154.584598 178.580649 
L 160.636956 172.949526 
L 163.958686 172.091008 
L 165.525029 162.606661 
L 170.151525 158.863278 
L 175.234688 158.710083 
L 175.876232 157.028687 
L 182.188083 157.701913 
L 191.6791 151.825052 
L 195.584223 147.938896 
L 198.441991 148.433081 
L 200.558378 150.555095 
L 198.992452 153.271132 
L 193.81091 154.62321 
L 191.764764 158.656308 
L 188.642291 160.969244 
L 186.297884 163.967076 
L 185.311181 169.723256 
L 183.073906 174.440418 
L 187.238106 174.980665 
L 188.272539 178.68924 
L 190.052313 180.464012 
L 190.689271 183.711959 
L 189.731124 186.697702 
L 190.015004 188.381391 
L 192.000497 189.053782 
L 193.921794 191.867572 
L 204.295091 191.0918 
L 208.981197 192.119562 
L 214.658799 199.061077 
L 217.919043 198.19839 
L 223.729206 198.630255 
L 228.326939 197.71025 
L 231.179704 199.09651 
L 229.726955 203.44121 
L 227.926755 206.149535 
L 227.295007 211.934894 
L 228.917834 217.294851 
L 231.210969 219.691783 
L 231.488388 221.497819 
L 227.400472 225.51341 
L 230.327439 227.291099 
L 232.471546 230.111559 
L 234.931632 238.156288 
L 233.409268 239.150493 
L 231.836672 234.392062 
L 229.595645 231.833598 
L 226.927547 234.614248 
L 211.210343 234.433957 
L 211.310181 239.481478 
L 216.036931 240.315611 
L 215.764306 243.40536 
L 214.151275 242.570394 
L 209.608359 243.899337 
L 209.567299 249.760356 
L 213.145605 252.703372 
L 214.408684 257.322572 
L 210.591935 282.938896 
L 206.555293 278.650681 
L 204.146272 278.459343 
L 209.349074 270.249747 
L 203.171867 266.472182 
L 198.330482 267.165417 
L 195.41748 265.769777 
L 190.972526 267.902838 
L 184.966023 266.892375 
L 180.213845 258.434749 
L 176.479842 256.356296 
L 173.904912 252.548717 
L 168.54037 248.728216 
L 166.389801 249.49315 
L 158.975778 244.910633 
L 156.684311 246.194138 
L 149.838881 245.074875 
L 147.873606 241.604535 
L 146.369583 241.733344 
L 138.301302 237.127274 
z
" clip-path="url(#pa79e613718)" style="fill: #e8edf4; stroke: #b8c5d4; stroke-width: 0.45"/>
    <path d="M 105.142979 181.918012 
L 106.240149 178.681112 
L 105.926463 177.221276 
L 107.132224 176.265838 
L 105.45458 175.066955 
L 105.408309 171.820259 
L 108.527656 171.09972 
L 111.424191 173.99313 
L 111.259116 175.702246 
L 114.477883 176.064912 
L 115.239482 175.408778 
L 117.456748 177.390937 
L 121.425442 176.807961 
L 124.857015 174.770569 
L 129.755927 173.143573 
L 132.509064 170.732885 
L 136.962772 171.206227 
L 136.662217 171.999716 
L 141.159904 172.274842 
L 144.749257 173.668189 
L 150.416646 178.32449 
L 149.437656 179.503989 
L 151.310389 184.255333 
L 149.789484 186.65289 
L 147.189542 186.073875 
L 146.155735 189.994839 
L 143.466586 187.66773 
L 141.738502 183.313443 
L 143.731499 181.158497 
L 141.687645 180.605744 
L 140.181955 177.940355 
L 136.163238 175.698078 
L 132.633496 176.212063 
L 130.998371 179.018141 
L 127.740211 181.044486 
L 125.980238 181.326074 
L 125.189459 183.00476 
L 129.037264 187.383225 
L 125.669679 189.609245 
L 121.916709 190.020892 
L 120.520027 185.202017 
L 119.469962 186.573479 
L 116.809576 186.099928 
L 115.181747 182.854274 
L 109.780105 181.374846 
L 106.31831 181.386935 
L 106.069237 183.137737 
z
" clip-path="url(#pa79e613718)" style="fill: #e8edf4; stroke: #b8c5d4; stroke-width: 0.45"/>
    <path d="M 81.136976 160.377931 
L 84.201298 157.781741 
L 89.516025 159.917928 
L 91.370834 158.866405 
L 93.929089 159.539422 
L 95.266161 161.199349 
L 97.646835 161.736679 
L 99.578345 160.027145 
L 101.621574 164.409987 
L 108.527656 171.09972 
L 105.408309 171.820259 
L 105.45458 175.066955 
L 107.132224 176.265838 
L 105.926463 177.221276 
L 106.240149 178.681112 
L 105.142979 181.918012 
L 100.765556 180.128025 
L 99.127722 178.434749 
L 100.05669 177.034315 
L 99.763639 175.25204 
L 97.527197 173.320738 
L 91.575928 170.701204 
L 91.045893 168.341581 
L 88.929923 166.900295 
L 89.448494 169.245537 
L 87.838798 171.173087 
L 85.995036 168.934561 
L 83.403223 168.137529 
L 82.300843 166.511784 
L 82.347114 164.055867 
L 83.415104 161.51491 
z
" clip-path="url(#pa79e613718)" style="fill: #e8edf4; stroke: #b8c5d4; stroke-width: 0.45"/>
    <path d="M 67.207676 144.126524 
L 68.103294 142.879077 
L 69.434946 144.093384 
L 72.553667 143.191721 
L 73.563714 141.349209 
L 74.747381 141.27751 
L 74.575844 137.310692 
L 78.14894 137.177506 
L 79.890363 135.025061 
L 82.269787 136.6556 
L 87.399638 132.474517 
L 87.533658 130.814172 
L 88.307763 130.883996 
L 89.342612 128.956446 
L 90.18529 128.721755 
L 91.560295 129.954195 
L 93.175619 130.318737 
L 94.958311 129.293059 
L 96.99612 129.287639 
L 99.796362 128.233823 
L 100.914374 127.135195 
L 103.679392 127.300062 
L 102.574719 129.874992 
L 103.397804 132.826762 
L 101.539453 135.574479 
L 100.673639 138.820342 
L 100.412478 142.374888 
L 101.048811 148.085839 
L 99.816371 148.878285 
L 99.062067 152.328617 
L 99.616696 154.458968 
L 97.966148 156.521788 
L 98.341529 158.701954 
L 99.578345 160.027145 
L 97.646835 161.736679 
L 95.266161 161.199349 
L 93.929089 159.539422 
L 91.370834 158.866405 
L 89.516025 159.917928 
L 84.201298 157.781741 
L 82.98574 158.819717 
L 76.425025 153.024352 
L 74.649211 150.305189 
z
" clip-path="url(#pa79e613718)" style="fill: #e8edf4; stroke: #b8c5d4; stroke-width: 0.45"/>
    <path d="M 53.616655 131.911759 
L 55.29284 129.863737 
L 54.650045 128.280511 
L 55.218014 126.730634 
L 62.718326 121.396106 
L 63.55621 121.71125 
L 65.325563 120.2931 
L 73.38113 121.162249 
L 77.109922 120.951527 
L 80.651129 119.156121 
L 85.151942 120.121355 
L 88.864893 119.232614 
L 93.829669 120.529459 
L 98.623533 123.845562 
L 101.556544 125.081128 
L 103.679392 127.300062 
L 100.914374 127.135195 
L 99.796362 128.233823 
L 96.99612 129.287639 
L 94.958311 129.293059 
L 93.175619 130.318737 
L 91.560295 129.954195 
L 90.18529 128.721755 
L 89.342612 128.956446 
L 88.307763 130.883996 
L 87.533658 130.814172 
L 87.399638 132.474517 
L 82.269787 136.6556 
L 79.890363 135.025061 
L 78.14894 137.177506 
L 74.575844 137.310692 
L 74.747381 141.27751 
L 73.563714 141.349209 
L 72.553667 143.191721 
L 70.045851 143.523331 
L 68.652296 140.999674 
L 66.202423 140.298311 
L 66.76393 137.067038 
L 65.666761 136.193721 
L 64.006417 135.618458 
L 60.46792 136.579523 
L 60.167574 135.493192 
L 55.994828 132.590195 
z
" clip-path="url(#pa79e613718)" style="fill: #e8edf4; stroke: #b8c5d4; stroke-width: 0.45"/>
    <path d="M 47.629327 137.468056 
L 47.8784 136.285222 
L 52.157444 133.358255 
L 51.728914 132.408236 
L 53.616655 131.911759 
L 55.994828 132.590195 
L 60.167574 135.493192 
L 60.46792 136.579523 
L 64.006417 135.618458 
L 66.76393 137.067038 
L 65.307013 142.197723 
L 60.634871 142.077251 
L 57.731457 141.304606 
L 54.395762 139.700954 
L 49.913499 139.200099 
z
" clip-path="url(#pa79e613718)" style="fill: #e8edf4; stroke: #b8c5d4; stroke-width: 0.45"/>
    <path d="M 30.41748 125.238075 
L 34.299884 118.66277 
L 44.65338 118.638592 
L 44.859933 115.8915 
L 43.553292 115.402109 
L 42.65809 113.654016 
L 36.671805 109.098803 
L 40.315141 109.078794 
L 40.321186 104.537754 
L 55.31264 104.61258 
L 54.618572 120.111767 
L 57.026551 120.109058 
L 59.656506 121.568268 
L 60.352033 120.366259 
L 62.718326 121.396106 
L 55.218014 126.730634 
L 54.650045 128.280511 
L 55.29284 129.863737 
L 53.616655 131.911759 
L 51.728914 132.408236 
L 52.157444 133.358255 
L 47.8784 136.285222 
L 47.629327 137.468056 
L 43.490555 136.060952 
L 38.458666 135.91526 
L 34.769475 134.314944 
L 30.429569 130.986543 
L 30.627368 128.636925 
L 31.563213 126.745433 
z
" clip-path="url(#pa79e613718)" style="fill: #e8edf4; stroke: #b8c5d4; stroke-width: 0.45"/>
    <path d="M 54.618572 120.111767 
L 55.249486 103.425578 
L 56.225976 103.054157 
L 57.690188 104.008553 
L 60.579846 99.139238 
L 62.113257 99.033148 
L 62.143063 100.216607 
L 63.671888 100.253707 
L 63.537452 102.447838 
L 62.231645 105.936937 
L 62.937385 107.184592 
L 61.666386 114.918137 
L 60.082118 117.058284 
L 58.6252 117.315069 
L 57.026551 120.109058 
z
" clip-path="url(#pa79e613718)" style="fill: #e8edf4; stroke: #b8c5d4; stroke-width: 0.45"/>
    <path d="M 183.073906 174.440418 
L 185.311181 169.723256 
L 186.297884 163.967076 
L 188.642291 160.969244 
L 191.764764 158.656308 
L 193.81091 154.62321 
L 198.992452 153.271132 
L 198.76318 155.177214 
L 194.027676 156.118687 
L 196.658882 159.779532 
L 196.560504 163.998132 
L 193.002206 168.683613 
L 196.055689 175.083629 
L 199.533116 174.559848 
L 201.344572 168.729259 
L 198.843217 165.890249 
L 198.43553 159.783492 
L 208.481176 156.50428 
L 207.36358 152.702121 
L 210.191752 150.157205 
L 213.087245 155.825636 
L 218.744422 155.956529 
L 223.985574 160.454841 
L 224.301343 163.125649 
L 231.544246 163.196514 
L 240.162572 162.367593 
L 244.781772 165.980082 
L 250.951058 166.976997 
L 255.476257 164.457092 
L 255.568799 162.425744 
L 275.22781 161.827137 
L 268.377795 164.209687 
L 271.133433 168.017682 
L 277.584723 168.623794 
L 283.700651 172.590403 
L 284.986032 179.053157 
L 289.190042 178.87099 
L 292.350658 180.772487 
L 285.959395 185.511117 
L 285.254489 188.452257 
L 288.015754 191.445712 
L 286.012544 192.956821 
L 281.048811 194.251581 
L 281.20951 197.976622 
L 279.024341 200.196806 
L 284.483302 206.317737 
L 285.551291 208.593988 
L 282.601189 211.672483 
L 273.578304 214.6922 
L 267.77752 215.943815 
L 265.448953 217.850731 
L 259.034763 215.83439 
L 253.062859 214.80225 
L 251.551125 215.544674 
L 255.161529 217.635841 
L 254.836172 223.043944 
L 255.95606 228.12419 
L 262.789609 228.817424 
L 263.225851 230.512784 
L 257.463835 232.808003 
L 256.526322 236.22436 
L 247.206008 239.431455 
L 245.644667 241.900087 
L 239.372835 242.422826 
L 234.931632 238.156288 
L 232.471546 230.111559 
L 230.327439 227.291099 
L 227.400472 225.51341 
L 231.488388 221.497819 
L 231.210969 219.691783 
L 228.917834 217.294851 
L 227.295007 211.934894 
L 227.926755 206.149535 
L 229.726955 203.44121 
L 231.179704 199.09651 
L 228.326939 197.71025 
L 223.729206 198.630255 
L 217.919043 198.19839 
L 214.658799 199.061077 
L 208.981197 192.119562 
L 204.295091 191.0918 
L 193.921794 191.867572 
L 192.000497 189.053782 
L 190.015004 188.381391 
L 189.731124 186.697702 
L 190.689271 183.711959 
L 190.052313 180.464012 
L 188.272539 178.68924 
L 187.238106 174.980665 
z
" clip-path="url(#pa79e613718)" style="fill: #e8edf4; stroke: #b8c5d4; stroke-width: 0.45"/>
    <path d="M 279.024341 200.196806 
L 281.20951 197.976622 
L 281.048811 194.251581 
L 286.012544 192.956821 
L 288.015754 191.445712 
L 285.254489 188.452257 
L 285.959395 185.511117 
L 292.350658 180.772487 
L 297.647252 183.73968 
L 302.63829 188.995214 
L 302.864852 193.148784 
L 305.904161 193.339913 
L 313.411561 200.083212 
L 312.122428 207.339872 
L 307.2256 209.444795 
L 307.661842 211.347125 
L 306.17366 215.509033 
L 309.748215 221.367134 
L 312.330649 221.376514 
L 313.390092 225.930684 
L 318.316517 232.943899 
L 316.353742 233.232781 
L 311.891906 232.548509 
L 309.269037 234.693867 
L 303.069737 236.457592 
L 302.178079 238.037483 
L 298.218555 237.6373 
L 293.256073 233.85244 
L 292.671221 230.119688 
L 290.606317 226.041152 
L 291.889821 219.174254 
L 294.127305 216.332327 
L 292.277082 212.583734 
L 289.505395 211.361924 
L 290.554418 207.819883 
L 288.677099 205.961115 
L 284.483302 206.317737 
z
" clip-path="url(#pa79e613718)" style="fill: #e8edf4; stroke: #b8c5d4; stroke-width: 0.45"/>
    <path d="M 306.17366 215.509033 
L 307.661842 211.347125 
L 307.2256 209.444795 
L 312.122428 207.339872 
L 313.411561 200.083212 
L 323.076407 201.698745 
L 323.943888 200.244745 
L 330.466044 199.662603 
L 339.139394 201.830472 
L 334.939969 208.76615 
L 335.57797 214.28493 
L 338.745047 219.065037 
L 336.625325 226.225403 
L 334.567924 229.617791 
L 329.947056 227.908466 
L 326.138227 228.733219 
L 322.882777 228.016432 
L 322.075948 230.352294 
L 323.429069 231.955946 
L 322.702277 233.604201 
L 318.316517 232.943899 
L 313.390092 225.930684 
L 312.330649 221.376514 
L 309.748215 221.367134 
z
" clip-path="url(#pa79e613718)" style="fill: #e8edf4; stroke: #b8c5d4; stroke-width: 0.45"/>
    <path d="M 737.357119 -144.453242 
L 747.815871 -146.208004 
L 761.362288 -144.132678 
L 758.805283 -153.26353 
L 766.42044 -149.803194 
L 785.201548 -156.093577 
L 787.623491 -162.70369 
L 794.678391 -164.332353 
L 795.846843 -161.495636 
L 799.596479 -161.362659 
L 808.976194 -154.321515 
L 813.116008 -154.949719 
L 821.97757 -150.571879 
L 824.305304 -150.742374 
L 828.112048 -148.630156 
L 839.736543 -147.144475 
L 835.658007 -141.620693 
L 834.634204 -135.873684 
L 832.419439 -134.495761 
L 828.744005 -135.238185 
L 829.00329 -133.188495 
L 823.10392 -128.655584 
L 822.984698 -125.003077 
L 826.836464 -126.26699 
L 829.607317 -122.729535 
L 829.274665 -120.450157 
L 831.648669 -117.421269 
L 828.851971 -114.964309 
L 830.930007 -108.722699 
L 835.302427 -107.699313 
L 834.379504 -104.197916 
L 827.071571 -99.640619 
L 811.161779 -101.824745 
L 799.412228 -99.207504 
L 798.489305 -94.349861 
L 789.138352 -93.304173 
L 780.061692 -96.953138 
L 777.129098 -95.209213 
L 762.279792 -98.875269 
L 759.064568 -102.011498 
L 763.236064 -106.849965 
L 764.772184 -122.92129 
L 756.447952 -131.386836 
L 750.49835 -135.46829 
L 738.1702 -138.570962 
z
" clip-path="url(#pa79e613718)" style="fill: #e8edf4; stroke: #b8c5d4; stroke-width: 0.45"/>
    <path d="M 334.567924 229.617791 
L 336.625325 226.225403 
L 338.745047 219.065037 
L 335.57797 214.28493 
L 334.939969 208.76615 
L 339.139394 201.830472 
L 347.818372 204.62717 
L 356.35937 211.436124 
L 357.694774 214.739722 
L 352.923003 222.121855 
L 350.445826 228.062078 
L 347.354409 231.12619 
L 343.492014 231.702705 
L 342.391927 229.431872 
L 340.587558 229.094634 
L 338.09058 231.281887 
z
" clip-path="url(#pa79e613718)" style="fill: #e8edf4; stroke: #b8c5d4; stroke-width: 0.45"/>
    <path d="M 843.325688 -92.603436 
L 844.953517 -95.601059 
L 850.148398 -98.68143 
L 851.51986 -91.764301 
L 848.855723 -85.532903 
L 845.193211 -87.175323 
z
" clip-path="url(#pa79e613718)" style="fill: #e8edf4; stroke: #b8c5d4; stroke-width: 0.45"/>
    <path d="M 121.260366 266.392146 
L 122.897575 264.118187 
L 121.535492 256.796915 
L 124.361163 255.580524 
L 125.845801 250.555304 
L 128.89845 245.360006 
L 128.336109 242.068081 
L 132.755427 240.337704 
L 138.301302 237.127274 
L 146.369583 241.733344 
L 147.873606 241.604535 
L 149.838881 245.074875 
L 156.684311 246.194138 
L 158.975778 244.910633 
L 166.389801 249.49315 
L 167.515108 255.618875 
L 165.004166 260.863779 
L 156.208259 269.31015 
L 146.50798 272.491191 
L 141.564881 279.509825 
L 140.038556 284.952319 
L 135.477716 288.270507 
L 132.092206 284.19739 
L 128.833838 283.325323 
L 125.499601 283.967701 
L 125.281376 281.011763 
L 127.582639 279.090883 
L 126.626367 275.732677 
L 130.920002 269.70408 
L 129.175452 266.181216 
L 126.092164 269.927099 
z
" clip-path="url(#pa79e613718)" style="fill: #e8edf4; stroke: #b8c5d4; stroke-width: 0.45"/>
    <path d="M 231.978404 100.045695 
L 233.121845 98.866822 
L 239.72237 98.913927 
L 243.84551 99.624461 
L 245.299926 101.226862 
L 243.233562 103.26071 
L 232.448411 103.497486 
z
" clip-path="url(#pa79e613718)" style="fill: #e8edf4; stroke: #b8c5d4; stroke-width: 0.45"/>
    <path d="M 142.476132 101.243536 
L 143.444076 99.399774 
L 148.672305 99.109433 
L 154.101043 99.832681 
L 158.386549 101.770027 
L 159.723203 103.978956 
L 154.053105 104.129234 
L 151.602607 105.477351 
L 147.087829 104.1828 
z
" clip-path="url(#pa79e613718)" style="fill: #e8edf4; stroke: #b8c5d4; stroke-width: 0.45"/>
    <path d="M 88.935968 71.6383 
L 93.193961 69.146325 
L 94.942054 66.235824 
L 98.589142 64.442085 
L 102.708738 62.869698 
L 108.816121 62.097677 
L 110.770558 61.211438 
L 124.075615 61.877993 
L 131.652213 64.626128 
L 134.863059 67.579357 
L 142.397763 66.668106 
L 157.108255 77.197932 
L 159.763847 77.087048 
L 164.574802 78.732177 
L 163.987241 81.003217 
L 169.933717 81.335453 
L 176.031095 84.636966 
L 175.074198 86.526582 
L 169.710281 87.550593 
L 164.280709 87.951194 
L 158.722953 87.312984 
L 147.172868 88.098761 
L 152.580555 83.598574 
L 149.293006 81.503238 
L 144.092915 80.964033 
L 141.305595 78.635466 
L 139.393469 74.041485 
L 134.834713 74.355587 
L 127.312724 72.192513 
L 124.892239 70.500487 
L 114.378045 69.250331 
L 111.56238 67.676901 
L 114.587308 65.661394 
L 106.674723 65.248497 
L 100.878316 69.440209 
L 97.535951 69.552761 
L 96.379588 71.520955 
L 92.38755 72.403026 
z
" clip-path="url(#pa79e613718)" style="fill: #e8edf4; stroke: #b8c5d4; stroke-width: 0.45"/>
    <path d="M 268.741295 427.742765 
L 271.918585 418.083754 
L 272.122011 413.744682 
L 275.991076 406.646012 
L 290.049395 404.298686 
L 297.539494 404.412905 
L 305.054188 408.538963 
L 305.19196 411.025936 
L 307.577428 415.510908 
L 307.041141 426.461344 
L 315.55671 428.009971 
L 318.84947 426.43008 
L 324.297383 428.613164 
L 325.808076 431.022601 
L 326.558628 438.414739 
L 327.50156 441.519913 
L 330.509189 441.877577 
L 333.534742 440.573229 
L 336.437739 442.036816 
L 336.433571 446.471766 
L 332.437989 463.016432 
L 325.121094 469.195931 
L 318.741504 470.491941 
L 309.682143 469.260961 
L 301.547581 467.065371 
L 309.489346 454.803501 
L 308.331316 451.243536 
L 300.023341 448.090424 
L 290.167157 442.13186 
L 283.571842 440.905047 
z
" clip-path="url(#pa79e613718)" style="fill: #e8edf4; stroke: #b8c5d4; stroke-width: 0.45"/>
    <path d="M 274.670773 166.873862 
L 277.010113 164.655522 
L 276.848779 161.46918 
L 281.487125 160.42051 
L 283.18113 160.702844 
L 282.858462 166.712528 
L 276.122777 167.599864 
z
" clip-path="url(#pa79e613718)" style="fill: #e8edf4; stroke: #b8c5d4; stroke-width: 0.45"/>
   </g>
   <g id="PathCollection_1">
    <defs>
     <path id="mc39a7e4ae8" d="M 0 2.12132 
C 0.562581 2.12132 1.102195 1.897805 1.5 1.5 
C 1.897805 1.102195 2.12132 0.562581 2.12132 0 
C 2.12132 -0.562581 1.897805 -1.102195 1.5 -1.5 
C 1.102195 -1.897805 0.562581 -2.12132 0 -2.12132 
C -0.562581 -2.12132 -1.102195 -1.897805 -1.5 -1.5 
C -1.897805 -1.102195 -2.12132 -0.562581 -2.12132 0 
C -2.12132 0.562581 -1.897805 1.102195 -1.5 1.5 
C -1.102195 1.897805 -0.562581 2.12132 0 2.12132 
z
" style="stroke: #ffffff; stroke-width: 0.5"/>
    </defs>
    <g clip-path="url(#pa79e613718)">
     <use xlink:href="#mc39a7e4ae8" x="275.880776" y="110.729704" style="fill: #8aa0b7; stroke: #ffffff; stroke-width: 0.5"/>
     <use xlink:href="#mc39a7e4ae8" x="264.856301" y="101.049677" style="fill: #8aa0b7; stroke: #ffffff; stroke-width: 0.5"/>
     <use xlink:href="#mc39a7e4ae8" x="210.002813" y="147.43314" style="fill: #8aa0b7; stroke: #ffffff; stroke-width: 0.5"/>
     <use xlink:href="#mc39a7e4ae8" x="294.165272" y="142.055348" style="fill: #8aa0b7; stroke: #ffffff; stroke-width: 0.5"/>
     <use xlink:href="#mc39a7e4ae8" x="267.545466" y="103.873018" style="fill: #8aa0b7; stroke: #ffffff; stroke-width: 0.5"/>
     <use xlink:href="#mc39a7e4ae8" x="223.943397" y="150.027388" style="fill: #8aa0b7; stroke: #ffffff; stroke-width: 0.5"/>
     <use xlink:href="#mc39a7e4ae8" x="161.333787" y="52.64954" style="fill: #8aa0b7; stroke: #ffffff; stroke-width: 0.5"/>
     <use xlink:href="#mc39a7e4ae8" x="58.483498" y="109.116366" style="fill: #8aa0b7; stroke: #ffffff; stroke-width: 0.5"/>
     <use xlink:href="#mc39a7e4ae8" x="217.88128" y="150.098375" style="fill: #8aa0b7; stroke: #ffffff; stroke-width: 0.5"/>
     <use xlink:href="#mc39a7e4ae8" x="279.645231" y="123.905297" style="fill: #8aa0b7; stroke: #ffffff; stroke-width: 0.5"/>
     <use xlink:href="#mc39a7e4ae8" x="276.956335" y="150.525371" style="fill: #8aa0b7; stroke: #ffffff; stroke-width: 0.5"/>
     <use xlink:href="#mc39a7e4ae8" x="346.867642" y="216" style="fill: #8aa0b7; stroke: #ffffff; stroke-width: 0.5"/>
     <use xlink:href="#mc39a7e4ae8" x="277.628561" y="117.183055" style="fill: #8aa0b7; stroke: #ffffff; stroke-width: 0.5"/>
     <use xlink:href="#mc39a7e4ae8" x="190.239424" y="94.99966" style="fill: #8aa0b7; stroke: #ffffff; stroke-width: 0.5"/>
     <use xlink:href="#mc39a7e4ae8" x="149.233753" y="101.049677" style="fill: #8aa0b7; stroke: #ffffff; stroke-width: 0.5"/>
     <use xlink:href="#mc39a7e4ae8" x="268.217421" y="108.444142" style="fill: #8aa0b7; stroke: #ffffff; stroke-width: 0.5"/>
     <use xlink:href="#mc39a7e4ae8" x="125.033685" y="90.966315" style="fill: #8aa0b7; stroke: #ffffff; stroke-width: 0.5"/>
     <use xlink:href="#mc39a7e4ae8" x="282.603017" y="136.27422" style="fill: #8aa0b7; stroke: #ffffff; stroke-width: 0.5"/>
     <use xlink:href="#mc39a7e4ae8" x="265.796608" y="102.495227" style="fill: #8aa0b7; stroke: #ffffff; stroke-width: 0.5"/>
     <use xlink:href="#mc39a7e4ae8" x="282.334128" y="129.955311" style="fill: #8aa0b7; stroke: #ffffff; stroke-width: 0.5"/>
     <use xlink:href="#mc39a7e4ae8" x="272.6541" y="113.149711" style="fill: #8aa0b7; stroke: #ffffff; stroke-width: 0.5"/>
     <use xlink:href="#mc39a7e4ae8" x="237.967336" y="101.049677" style="fill: #8aa0b7; stroke: #ffffff; stroke-width: 0.5"/>
     <use xlink:href="#mc39a7e4ae8" x="57.13905" y="136.677555" style="fill: #8aa0b7; stroke: #ffffff; stroke-width: 0.5"/>
     <use xlink:href="#mc39a7e4ae8" x="265.758694" y="102.723515" style="fill: #8aa0b7; stroke: #ffffff; stroke-width: 0.5"/>
     <use xlink:href="#mc39a7e4ae8" x="195.230823" y="73.267998" style="fill: #8aa0b7; stroke: #ffffff; stroke-width: 0.5"/>
     <use xlink:href="#mc39a7e4ae8" x="282.334128" y="159.533174" style="fill: #8aa0b7; stroke: #ffffff; stroke-width: 0.5"/>
     <use xlink:href="#mc39a7e4ae8" x="280.72079" y="141.383123" style="fill: #8aa0b7; stroke: #ffffff; stroke-width: 0.5"/>
     <use xlink:href="#mc39a7e4ae8" x="252.971378" y="99.672693" style="fill: #8aa0b7; stroke: #ffffff; stroke-width: 0.5"/>
     <use xlink:href="#mc39a7e4ae8" x="250.903886" y="100.357555" style="fill: #8aa0b7; stroke: #ffffff; stroke-width: 0.5"/>
    </g>
   </g>
   <g id="PatchCollection_2">
    <defs>
     <path id="m4f5247b23e" d="M 137.206842 -197.376998 
L 140.216555 -197.982276 
L 139.859308 -202.023295 
L 141.751008 -204.94505 
L 145.752634 -205.485923 
L 152.237064 -214.787061 
L 149.263826 -216.706691 
L 150.785774 -221.38842 
L 148.965773 -228.768053 
L 150.695316 -230.885898 
L 149.422024 -237.7084 
L 146.155735 -242.005161 
L 147.189542 -245.926125 
L 149.789484 -245.34711 
L 151.310389 -247.744667 
L 149.437656 -252.496011 
L 150.416646 -253.67551 
L 154.584598 -253.419351 
L 160.636956 -259.050474 
L 163.958686 -259.908992 
L 165.525029 -269.393339 
L 170.151525 -273.136722 
L 175.234688 -273.289917 
L 175.876232 -274.971313 
L 182.188083 -274.298087 
L 191.6791 -280.174948 
L 195.584223 -284.061104 
L 198.441991 -283.566919 
L 200.558378 -281.444905 
L 198.992452 -278.728868 
L 193.81091 -277.37679 
L 191.764764 -273.343692 
L 188.642291 -271.030756 
L 186.297884 -268.032924 
L 185.311181 -262.276744 
L 183.073906 -257.559582 
L 187.238106 -257.019335 
L 188.272539 -253.31076 
L 190.052313 -251.535988 
L 190.689271 -248.288041 
L 189.731124 -245.302298 
L 190.015004 -243.618609 
L 192.000497 -242.946218 
L 193.921794 -240.132428 
L 204.295091 -240.9082 
L 208.981197 -239.880438 
L 214.658799 -232.938923 
L 217.919043 -233.80161 
L 223.729206 -233.369745 
L 228.326939 -234.28975 
L 231.179704 -232.90349 
L 229.726955 -228.55879 
L 227.926755 -225.850465 
L 227.295007 -220.065106 
L 228.917834 -214.705149 
L 231.210969 -212.308217 
L 231.488388 -210.502181 
L 227.400472 -206.48659 
L 230.327439 -204.708901 
L 232.471546 -201.888441 
L 234.931632 -193.843712 
L 233.409268 -192.849507 
L 231.836672 -197.607938 
L 229.595645 -200.166402 
L 226.927547 -197.385752 
L 211.210343 -197.566043 
L 211.310181 -192.518522 
L 216.036931 -191.684389 
L 215.764306 -188.59464 
L 214.151275 -189.429606 
L 209.608359 -188.100663 
L 209.567299 -182.239644 
L 213.145605 -179.296628 
L 214.408684 -174.677428 
L 210.591935 -149.061104 
L 206.555293 -153.349319 
L 204.146272 -153.540657 
L 209.349074 -161.750253 
L 203.171867 -165.527818 
L 198.330482 -164.834583 
L 195.41748 -166.230223 
L 190.972526 -164.097162 
L 184.966023 -165.107625 
L 180.213845 -173.565251 
L 176.479842 -175.643704 
L 173.904912 -179.451283 
L 168.54037 -183.271784 
L 166.389801 -182.50685 
L 158.975778 -187.089367 
L 156.684311 -185.805862 
L 149.838881 -186.925125 
L 147.873606 -190.395465 
L 146.369583 -190.266656 
L 138.301302 -194.872726 
z
" style="stroke: #b45309; stroke-width: 1.15"/>
    </defs>
    <g clip-path="url(#pa79e613718)">
     <use xlink:href="#m4f5247b23e" x="0" y="432" style="fill: #f59e0b; stroke: #b45309; stroke-width: 1.15"/>
    </g>
   </g>
   <g id="PathCollection_2">
    <path d="M 193.600545 220.135215 
C 194.697216 220.135215 195.749119 219.699502 196.524583 218.924038 
C 197.300047 218.148574 197.735759 217.096672 197.735759 216 
C 197.735759 214.903328 197.300047 213.851426 196.524583 213.075962 
C 195.749119 212.300498 194.697216 211.864785 193.600545 211.864785 
C 192.503873 211.864785 191.45197 212.300498 190.676506 213.075962 
C 189.901042 213.851426 189.46533 214.903328 189.46533 216 
C 189.46533 217.096672 189.901042 218.148574 190.676506 218.924038 
C 191.45197 219.699502 192.503873 220.135215 193.600545 220.135215 
L 193.600545 220.135215 
z
" clip-path="url(#pa79e613718)" style="fill: none; stroke: #7c2d12; stroke-width: 1.1"/>
   </g>
  </g>
 </g>
 <defs>
  <clipPath id="pa79e613718">
   <rect x="0" y="0" width="387.201089" height="432"/>
  </clipPath>
 </defs>
</svg>
