<?xml version="1.0" encoding="utf-8" standalone="no"?>
<!DOCTYPE svg PUBLIC "-//W3C//DTD SVG 1.1//EN"
  "http://www.w3.org/Graphics/SVG/1.1/DTD/svg11.dtd">
<svg xmlns:xlink="http://www.w3.org/1999/xlink" width="398.329519pt" height="432pt" viewBox="0 0 398.329519 432" xmlns="http://www.w3.org/2000/svg" version="1.1">
 <metadata>
  <rdf:RDF xmlns:dc="http://purl.org/dc/elements/1.1/" xmlns:cc="http://creativecommons.org/ns#" xmlns:rdf="http://www.w3.org/1999/02/22-rdf-syntax-ns#">
   <cc:Work>
    <dc:type rdf:resource="http://purl.org/dc/dcmitype/StillImage"/>
    <dc:date>2026-06-09T04:57:05.981322</dc:date>
    <dc:format>image/svg+xml</dc:format>
    <dc:creator>
     <cc:Agent>
      <dc:title>Matplotlib v3.10.8, https://matplotlib.org/</dc:title>
     </cc:Agent>
    </dc:creator>
   </cc:Work>
  </rdf:RDF>
 </metadata>
 <defs>
  <style type="text/css">*{stroke-linejoin: round; stroke-linecap: butt}</style>
 </defs>
 <g id="figure_1">
  <g id="patch_1">
   <path d="M 0 432 
L 398.329519 432 
L 398.329519 0 
L 0 0 
z
" style="fill: #eaf3ff"/>
  </g>
  <g id="axes_1">
   <g id="PatchCollection_1">
    <path d="M 237.873157 426.758786 
L 241.349388 421.249247 
L 242.547548 414.569806 
L 246.77589 401.888258 
L 248.54009 398.420288 
L 255.691666 392.17168 
L 262.26242 394.65582 
L 272.868924 395.823114 
L 282.543332 395.470535 
L 290.859158 389.361481 
L 292.327296 391.241106 
L 285.567861 399.586277 
L 279.245347 401.203968 
L 271.148633 399.558888 
L 257.129806 399.978853 
L 249.779987 401.190056 
L 248.583565 407.557784 
L 256.11337 415.038897 
L 260.655598 411.228346 
L 276.343416 408.365543 
L 275.652169 412.240001 
L 271.986824 411.017929 
L 268.334086 415.947082 
L 260.928619 419.208113 
L 268.889692 429.98982 
L 267.352864 432.879143 
L 274.916579 442.5892 
L 274.843976 448.115694 
L 270.353047 450.588966 
L 267.054193 447.630517 
L 271.11907 440.742398 
L 262.863239 443.999517 
L 260.770371 441.671016 
L 261.861584 438.423027 
L 255.796005 433.489962 
L 256.4203 425.291952 
L 250.809466 427.849129 
L 251.86329 449.694258 
L 246.528085 450.91546 
L 242.913605 448.446101 
L 245.325577 440.702402 
L 244.023512 432.583951 
L 240.485982 432.521782 
z
" clip-path="url(#p3175f96a1f)" style="fill: #e8edf4; stroke: #b8c5d4; stroke-width: 0.45"/>
    <path d="M 155.300067 399.691486 
L 156.279985 391.896486 
L 161.278262 386.305867 
L 162.682927 391.92844 
L 168.435924 396.681738 
L 173.862861 394.971011 
L 179.233716 395.577047 
L 184.135915 391.322838 
L 188.17036 390.585291 
L 196.129259 392.94292 
L 202.989989 391.149809 
L 207.303106 379.449267 
L 210.542401 376.523642 
L 213.456939 366.95553 
L 223.129173 366.959442 
L 230.421607 368.377367 
L 225.636355 375.97521 
L 231.82062 383.939978 
L 230.367698 387.810306 
L 239.799517 395.595742 
L 229.831221 396.588267 
L 227.025369 402.323874 
L 227.389686 409.947584 
L 219.299929 415.70145 
L 219.079077 424.079445 
L 215.834132 436.944455 
L 214.59554 433.952097 
L 205.038079 437.737432 
L 201.705314 432.594819 
L 195.70712 432.119207 
L 191.511819 429.42378 
L 181.510048 432.449179 
L 178.440739 428.377781 
L 172.929896 428.840351 
L 165.994389 427.869562 
L 164.707975 416.586594 
L 160.510066 414.248094 
L 156.471273 407.051739 
z
" clip-path="url(#p3175f96a1f)" style="fill: #e8edf4; stroke: #b8c5d4; stroke-width: 0.45"/>
    <path d="M 336.739231 411.074881 
L 348.079586 409.036791 
L 352.391834 406.294846 
L 365.898095 409.749774 
L 367.22581 412.876469 
L 369.575179 426.482722 
L 378.282276 431.518388 
L 385.312992 422.594787 
L 394.966097 417.517385 
L 402.445037 417.510429 
L 415.879999 423.452976 
L 424.911418 425.060667 
L 425.194437 479.89347 
L 417.703325 472.98883 
L 409.158823 471.296798 
L 407.086822 473.693554 
L 396.427714 473.952228 
L 400.000024 467.105844 
L 405.296103 464.769953 
L 403.102808 455.622023 
L 399.064015 448.55957 
L 382.754945 441.435384 
L 375.817265 440.731964 
L 363.18354 432.957832 
L 360.700269 437.046186 
L 357.471844 437.787863 
L 355.562004 434.702904 
L 355.535484 431.047557 
L 349.108196 426.91486 
L 358.169177 423.885113 
L 364.16911 424.048578 
L 363.463951 421.816591 
L 351.148895 421.799636 
L 347.81613 416.790924 
L 340.300237 415.237576 
z
" clip-path="url(#p3175f96a1f)" style="fill: #e8edf4; stroke: #b8c5d4; stroke-width: 0.45"/>
    <path d="M 40.383597 357.085051 
L 58.823358 359.049452 
L 66.262736 367.276807 
L 77.408325 376.480819 
L 85.378962 385.524193 
L 93.93129 385.656139 
L 101.000263 391.418917 
L 105.867682 398.463328 
L 112.274537 402.306484 
L 108.90308 409.175475 
L 113.724851 412.096969 
L 116.746772 412.312603 
L 118.172739 418.180808 
L 121.103798 422.875633 
L 127.280673 423.619483 
L 131.373374 428.944255 
L 129.260507 439.407727 
L 128.925752 452.420986 
L 119.610445 452.597058 
L 112.525386 445.564169 
L 101.723681 438.690396 
L 98.122243 433.591258 
L 91.753211 426.740092 
L 87.5753 420.434533 
L 81.17714 408.657257 
L 73.788627 401.645235 
L 68.21605 387.845086 
L 60.629729 382.547703 
L 56.232705 375.34961 
L 49.898453 370.63783 
L 41.122665 361.367519 
z
" clip-path="url(#p3175f96a1f)" style="fill: #e8edf4; stroke: #b8c5d4; stroke-width: 0.45"/>
    <path d="M 125.121723 460.825935 
L 130.894283 452.787477 
L 141.102125 453.284392 
L 147.891991 456.571943 
L 151.381265 457.213194 
L 152.530734 460.205552 
L 168.647646 461.044178 
L 170.501404 457.576642 
L 186.109228 461.621955 
L 189.171146 467.074977 
L 201.791829 468.608762 
L 212.110965 473.608344 
L 202.511768 476.813727 
L 193.259499 473.424446 
L 176.916084 473.030566 
L 169.042395 471.520257 
L 159.296254 468.307048 
L 153.121119 467.47364 
L 149.622281 468.525725 
L 134.280087 465.061667 
L 132.820644 461.444144 
z
" clip-path="url(#p3175f96a1f)" style="fill: #e8edf4; stroke: #b8c5d4; stroke-width: 0.45"/>
    <path d="M 310.490558 394.674514 
L 312.181721 387.952903 
L 314.973661 384.89142 
L 315.577524 389.485383 
L 320.544499 390.223365 
L 321.332694 393.659382 
L 320.892731 401.011375 
L 316.553529 400.187531 
L 315.273636 405.306668 
L 318.739433 409.748036 
L 316.383978 410.757516 
L 312.989045 405.428832 
z
" clip-path="url(#p3175f96a1f)" style="fill: #e8edf4; stroke: #b8c5d4; stroke-width: 0.45"/>
    <path d="M 314.691946 431.734456 
L 316.685692 427.109191 
L 327.076561 426.76009 
L 336.333613 429.213363 
L 339.391618 435.646738 
L 332.288734 432.179202 
L 325.261496 431.475348 
L 320.511893 432.030953 
z
" clip-path="url(#p3175f96a1f)" style="fill: #e8edf4; stroke: #b8c5d4; stroke-width: 0.45"/>
    <path d="M 277.348114 489.333549 
L 278.105442 486.473354 
L 281.722966 481.341609 
L 290.04053 477.999715 
L 290.893068 479.658707 
L 291.048707 482.209363 
L 285.558732 488.492315 
L 278.357595 490.34303 
z
" clip-path="url(#p3175f96a1f)" style="fill: #e8edf4; stroke: #b8c5d4; stroke-width: 0.45"/>
    <path d="M 247.574519 474.231335 
L 254.255699 472.482351 
L 259.526997 475.004314 
L 265.127398 474.363932 
L 272.666767 471.281582 
L 271.433827 475.955538 
L 258.79358 478.343599 
L 247.603647 477.30673 
z
" clip-path="url(#p3175f96a1f)" style="fill: #e8edf4; stroke: #b8c5d4; stroke-width: 0.45"/>
    <path d="M 220.815019 479.178747 
L 223.705647 474.334804 
L 228.318304 474.268723 
L 230.572898 471.293755 
L 233.606557 473.53748 
L 238.804383 472.850146 
L 240.891165 476.426803 
L 225.337684 479.245698 
z
" clip-path="url(#p3175f96a1f)" style="fill: #e8edf4; stroke: #b8c5d4; stroke-width: 0.45"/>
    <path d="M 366.96844 454.861651 
L 370.222951 448.994316 
L 372.135834 451.455415 
L 372.115836 455.466818 
L 367.787502 461.1946 
z
" clip-path="url(#p3175f96a1f)" style="fill: #e8edf4; stroke: #b8c5d4; stroke-width: 0.45"/>
    <path d="M 298.624595 429.915913 
L 307.135187 429.512468 
L 309.226316 432.286584 
L 306.077449 435.078959 
L 300.263153 433.534306 
z
" clip-path="url(#p3175f96a1f)" style="fill: #e8edf4; stroke: #b8c5d4; stroke-width: 0.45"/>
    <path d="M 239.55606 483.595769 
L 247.401055 481.941559 
L 254.763917 487.059392 
L 254.260046 489.330071 
L 250.721647 489.490493 
z
" clip-path="url(#p3175f96a1f)" style="fill: #e8edf4; stroke: #b8c5d4; stroke-width: 0.45"/>
    <path d="M -531.731134 -80.338778 
L -528.126219 -83.008772 
L -530.620931 -90.855195 
L -524.634772 -95.703144 
L -525.901573 -97.171565 
L -516.339692 -101.82118 
L -525.153838 -105.821239 
L -499.326455 -121.420122 
L -496.162372 -125.710633 
L -508.615243 -131.474498 
L -505.175965 -136.956648 
L -512.749679 -143.217646 
L -507.085975 -150.430056 
L -516.870639 -160.006458 
L -509.106941 -166.349841 
L -521.99108 -171.955458 
L -520.762922 -177.845835 
L -513.96853 -178.621021 
L -499.653808 -181.996174 
L -490.974772 -184.9225 
L -477.154558 -179.836678 
L -454.116044 -177.834419 
L -422.329089 -168.319315 
L -415.871972 -164.320938 
L -415.316051 -158.721764 
L -424.655327 -154.301651 
L -438.392506 -152.058363 
L -475.949501 -158.452805 
L -482.126807 -157.383699 
L -468.41108 -151.222294 
L -467.324644 -138.722645 
L -449.919966 -133.973253 
L -448.832689 -138.052478 
L -453.900515 -141.667901 
L -448.546063 -144.854353 
L -428.208748 -139.617941 
L -421.123864 -141.667901 
L -426.785714 -147.829138 
L -407.179644 -156.06877 
L -399.415001 -155.583769 
L -391.559836 -152.643477 
L -386.659265 -158.425295 
L -393.674491 -163.44028 
L -389.555895 -168.471671 
L -395.740435 -173.689996 
L -372.208171 -170.991237 
L -367.401572 -166.279787 
L -378.053674 -165.24122 
L -377.996046 -160.55972 
L -371.374037 -157.679327 
L -358.376095 -159.503907 
L -356.318311 -164.869877 
L -309.385781 -176.101035 
L -303.040134 -175.68687 
L -311.334282 -170.581615 
L -300.898474 -169.704238 
L -294.871506 -172.578405 
L -279.102959 -172.810768 
L -266.610041 -176.298233 
L -257.024268 -171.230498 
L -247.463734 -176.80191 
L -256.279057 -181.67556 
L -251.904374 -184.451801 
L -227.052806 -181.905988 
L -215.40845 -179.276509 
L -184.919893 -169.664782 
L -179.295732 -174.067228 
L -187.84521 -178.515356 
L -188.091033 -180.299974 
L -198.229699 -181.125443 
L -195.45615 -185.114145 
L -199.95568 -191.677517 
L -200.210253 -194.370303 
L -184.685174 -201.988393 
L -179.163819 -209.634499 
L -172.907685 -211.288802 
L -150.63432 -209.070249 
L -148.880324 -204.390768 
L -156.855036 -197.567271 
L -151.622241 -194.885337 
L -148.915237 -189.004333 
L -150.826469 -177.476284 
L -141.545662 -172.319626 
L -145.156206 -166.704047 
L -161.634462 -154.75443 
L -152.018486 -153.514965 
L -148.67219 -156.543592 
L -139.416201 -158.703928 
L -137.18242 -162.86686 
L -129.90118 -166.872893 
L -134.803686 -171.655768 
L -130.878417 -177.209849 
L -140.077704 -177.902059 
L -142.100911 -182.581035 
L -135.388043 -191.028549 
L -146.313815 -197.888558 
L -131.257164 -203.558989 
L -133.205244 -209.5412 
L -129.009334 -209.732172 
L -124.588379 -205.068002 
L -127.907502 -196.949599 
L -118.904656 -195.412655 
L -122.740749 -201.4795 
L -108.661671 -204.787097 
L -91.201888 -205.232474 
L -75.655104 -200.436222 
L -83.13657 -207.442867 
L -83.974659 -216.4055 
L -69.345464 -218.103213 
L -49.110366 -217.732291 
L -30.879377 -218.834122 
L -37.716839 -223.232277 
L -27.980981 -228.757503 
L -18.315538 -228.988856 
L -1.958512 -233.16222 
L 20.256299 -234.283906 
L 23.063079 -236.587934 
L 45.153464 -237.368647 
L 52.036945 -235.479793 
L 70.918163 -239.950467 
L 86.373668 -239.81073 
L 88.692671 -243.441801 
L 96.73132 -247.022732 
L 116.592047 -250.475198 
L 131.020426 -247.749182 
L 119.565149 -245.675498 
L 138.621355 -244.386564 
L 140.891731 -240.229017 
L 148.579396 -242.276284 
L 173.174035 -242.163973 
L 192.138709 -238.06052 
L 198.89137 -234.909065 
L 196.79842 -230.535643 
L 165.383649 -223.375801 
L 159.063494 -220.879455 
L 181.939639 -217.579429 
L 189.514151 -219.171057 
L 193.805043 -213.771015 
L 197.50022 -215.956926 
L 210.952456 -217.285905 
L 237.945179 -215.89669 
L 239.995139 -211.961831 
L 275.166417 -210.710166 
L 275.646875 -217.135988 
L 293.500884 -215.663486 
L 306.931499 -215.709672 
L 320.516742 -211.27795 
L 324.389263 -205.893808 
L 319.412471 -202.371178 
L 329.97893 -195.750599 
L 343.208899 -192.33456 
L 351.326629 -201.162251 
L 364.822191 -197.377477 
L 379.159964 -199.639104 
L 395.444051 -197.051142 
L 401.640453 -199.410106 
L 415.401693 -198.230624 
L 409.328287 -206.040781 
L 420.43544 -209.685397 
L 496.418898 -204.222006 
L 503.57975 -199.228389 
L 525.602243 -192.799202 
L 559.573175 -194.39083 
L 576.322409 -193.005317 
L 583.326277 -189.526771 
L 582.302853 -183.374788 
L 592.666395 -180.979649 
L 603.927335 -182.702264 
L 618.846772 -182.922597 
L 634.729313 -181.271659 
L 650.674194 -182.202962 
L 665.329047 -174.724861 
L 675.754675 -177.415544 
L 668.951369 -182.79245 
L 672.697192 -186.530028 
L 699.538063 -184.177795 
L 717.037806 -184.681052 
L 741.232919 -180.666018 
L 753.010913 -176.994954 
L 753.010913 -143.478757 
L 742.134777 -139.736899 
L 731.232393 -140.353393 
L 738.81843 -135.875399 
L 743.826181 -128.943545 
L 747.713676 -126.677543 
L 748.689736 -123.197314 
L 746.518294 -120.969254 
L 730.837157 -122.801574 
L 707.323149 -116.468798 
L 699.842776 -115.488365 
L 674.758761 -104.413433 
L 671.665776 -100.590548 
L 659.632115 -106.410391 
L 637.712595 -99.806302 
L 633.884915 -102.931256 
L 625.781151 -99.32719 
L 614.52938 -100.480676 
L 611.818927 -94.947543 
L 601.725355 -86.806173 
L 602.025189 -83.406034 
L 611.606923 -81.520798 
L 610.479854 -69.27345 
L 602.669697 -68.961754 
L 599.067987 -61.924319 
L 602.567986 -58.302249 
L 587.856262 -54.004879 
L 584.936665 -44.39942 
L 572.394868 -42.34761 
L 569.873031 -33.800235 
L 557.746829 -25.962485 
L 554.63584 -31.75852 
L 546.337907 -62.726484 
L 550.38247 -74.394186 
L 557.480647 -79.414808 
L 557.919797 -83.346471 
L 570.993203 -85.22851 
L 586.021166 -95.82046 
L 600.503051 -104.470808 
L 615.626416 -111.183424 
L 622.389172 -123.043107 
L 612.166462 -122.333567 
L 607.11446 -115.403311 
L 585.775847 -106.163727 
L 578.884375 -116.509264 
L 557.165417 -113.652764 
L 536.111243 -99.550804 
L 543.057651 -94.39179 
L 511.273725 -91.329006 
L 511.882983 -97.412088 
L 498.805708 -98.688907 
L 488.383025 -94.556093 
L 462.65997 -96.002178 
L 434.986731 -93.508693 
L 375.494148 -57.246015 
L 388.748766 -56.185659 
L 392.88545 -50.917278 
L 401.056685 -49.047017 
L 406.440322 -53.249574 
L 415.668213 -52.703832 
L 427.81469 -43.448768 
L 428.100054 -36.291113 
L 421.522801 -27.885831 
L 420.813261 -17.839707 
L 417.017803 -4.38907 
L 404.337866 7.784833 
L 401.519477 13.604004 
L 373.333727 38.083219 
L 362.123432 43.019376 
L 356.818287 43.128575 
L 351.533333 39.039339 
L 340.241602 45.196033 
L 338.93029 47.995326 
L 337.752491 46.523077 
L 337.70089 42.249224 
L 341.998356 42.022287 
L 343.20869 32.082249 
L 340.993038 24.877143 
L 348.213488 21.90571 
L 358.42388 23.395387 
L 364.081726 15.211052 
L 366.964861 5.994326 
L 370.232918 2.915474 
L 374.653884 -4.654242 
L 360.74983 -2.174232 
L 353.456679 1.144485 
L 340.673938 1.134641 
L 337.267013 -6.769717 
L 327.302195 -12.750521 
L 312.660315 -15.439857 
L 309.548028 -23.680476 
L 298.265494 -40.952074 
L 290.877852 -44.050075 
L 278.285987 -46.555046 
L 267.132882 -46.327276 
L 256.67854 -44.810229 
L 249.729556 -40.62471 
L 254.345691 -38.625312 
L 254.450103 -33.980439 
L 249.771547 -31.283614 
L 242.177349 -22.36069 
L 242.25366 -18.658722 
L 230.39813 -13.342645 
L 220.298975 -16.518901 
L 210.261555 -15.817655 
L 205.856706 -18.63655 
L 200.811911 -19.545604 
L 188.489463 -13.616753 
L 177.413869 -12.223608 
L 169.680603 -10.138565 
L 159.084098 -11.508451 
L 151.283012 -11.420849 
L 146.176483 -15.721142 
L 137.937172 -19.764282 
L 129.505704 -20.87245 
L 110.912912 -18.213542 
L 98.961147 -21.751936 
L 97.356984 -28.056107 
L 79.828992 -31.203324 
L 70.404563 -34.680859 
L 61.690944 -25.962024 
L 65.106745 -21.010264 
L 56.92944 -15.151969 
L 44.766641 -17.267044 
L 36.37002 -17.569683 
L 30.747012 -21.499354 
L 21.969408 -21.623472 
L 14.654446 -24.205214 
L 1.858125 -20.248154 
L -14.194444 -13.002239 
L -26.356035 -10.852419 
L -30.82001 -15.99851 
L -41.656494 -14.872734 
L -45.237934 -18.443523 
L -51.12005 -20.076429 
L -55.168842 -24.937762 
L -59.81367 -26.451548 
L -71.903093 -24.289555 
L -83.492124 -29.136541 
L -87.975227 -24.731692 
L -106.774958 -46.097513 
L -117.507538 -52.597186 
L -114.4291 -55.234791 
L -135.514067 -47.295797 
L -143.583182 -46.815931 
L -142.886284 -51.40772 
L -153.691466 -54.276828 
L -162.474644 -52.229391 
L -165.123553 -60.948878 
L -180.242288 -62.761988 
L -187.806003 -59.271845 
L -208.856899 -56.16631 
L -212.965202 -54.088148 
L -244.445538 -51.160662 
L -248.303114 -48.28972 
L -242.229709 -42.526942 
L -250.30599 -40.339516 
L -248.730469 -38.047534 
L -256.804576 -33.949399 
L -243.171804 -28.163361 
L -245.279889 -24.179129 
L -257.096726 -24.541925 
L -259.540869 -22.045395 
L -270.300591 -26.404917 
L -283.637824 -26.235903 
L -292.564197 -22.687025 
L -321.068764 -31.915439 
L -334.210273 -31.697631 
L -351.576645 -22.547527 
L -352.624384 -16.403041 
L -361.275834 -21.281981 
L -367.988315 -12.038841 
L -365.53113 -10.322898 
L -370.387245 -3.94691 
L -363.246464 1.759548 
L -357.004043 1.524661 
L -351.640988 7.14564 
L -352.494754 11.474795 
L -348.221782 12.835237 
L -352.055939 17.824396 
L -360.2122 19.210834 
L -368.573735 27.895338 
L -360.92704 35.879472 
L -361.755033 41.546201 
L -352.56946 51.454018 
L -357.592664 54.84491 
L -359.036456 56.985165 
L -362.757884 56.410431 
L -368.539574 51.300424 
L -376.192499 49.06847 
L -378.767848 45.616334 
L -386.614148 43.856264 
L -391.715811 45.177357 
L -393.189911 43.61366 
L -404.644767 39.579949 
L -424.141008 36.780117 
L -425.167009 37.773729 
L -435.893468 30.664849 
L -445.491524 27.491437 
L -452.757369 22.549054 
L -446.635251 21.204512 
L -439.654434 14.168338 
L -444.359154 10.839372 
L -431.959029 7.405414 
L -432.181718 5.56628 
L -439.733616 6.922181 
L -439.467986 3.185102 
L -435.131516 0.836069 
L -426.990334 0.219264 
L -425.666636 -2.586195 
L -427.525624 -7.225126 
L -424.108836 -11.63018 
L -424.207679 -14.100362 
L -436.60866 -16.838005 
L -441.52477 -16.747143 
L -446.716944 -20.686813 
L -453.172056 -19.354533 
L -463.856814 -22.312547 
L -463.673466 -23.967713 
L -466.666144 -27.615798 
L -473.374279 -28.023156 
L -474.071177 -30.634676 
L -471.970048 -32.338012 
L -477.34612 -37.101309 
L -486.069738 -36.288551 
L -488.624742 -36.711124 
L -490.749981 -34.797663 
L -493.891929 -35.137795 
L -495.961084 -40.525153 
L -497.936571 -43.317745 
L -496.317607 -44.103793 
L -489.529449 -43.811834 
L -486.255809 -45.65168 
L -488.679085 -47.894754 
L -494.352088 -49.375282 
L -493.846044 -50.89472 
L -497.26967 -52.429374 
L -502.544012 -57.937391 
L -500.741119 -60.206984 
L -501.564963 -64.156219 
L -509.789492 -66.162573 
L -514.203905 -65.158309 
L -515.399023 -67.24683 
L -524.256108 -69.356653 
L -526.960229 -74.32189 
L -527.67756 -78.401548 
z
" clip-path="url(#p3175f96a1f)" style="fill: #e8edf4; stroke: #b8c5d4; stroke-width: 0.45"/>
    <path d="M -328.412932 -202.664628 
L -319.810608 -204.469694 
L -320.097541 -209.057136 
L -303.411111 -216.231753 
L -311.145246 -217.260363 
L -291.003454 -224.644093 
L -293.27935 -228.462904 
L -274.462229 -232.904706 
L -246.688032 -238.309906 
L -218.687331 -239.884556 
L -204.279407 -243.003426 
L -187.907299 -244.096378 
L -182.059092 -240.774265 
L -187.709489 -238.15644 
L -243.209627 -229.972777 
L -269.343527 -221.965186 
L -295.067896 -205.662855 
L -293.355865 -198.674527 
L -277.263299 -191.774887 
L -282.232883 -191.036905 
L -309.722757 -192.129857 
L -311.955178 -195.865197 
L -327.183469 -198.12066 
z
" clip-path="url(#p3175f96a1f)" style="fill: #e8edf4; stroke: #b8c5d4; stroke-width: 0.45"/>
    <path d="M -2275.616156 -143.478757 
L -2275.616156 -176.994954 
L -2255.004666 -170.570594 
L -2232.948269 -162.207293 
L -2233.671774 -156.978368 
L -2227.997978 -154.885334 
L -2229.949676 -160.998366 
L -2207.112902 -159.743925 
L -2190.642807 -151.870841 
L -2198.984067 -148.204099 
L -2212.774247 -147.333537 
L -2212.982465 -139.11317 
L -2216.350383 -137.362455 
L -2224.229104 -137.614084 
L -2230.640371 -140.547225 
L -2241.826184 -143.000665 
L -2243.707551 -146.650077 
L -2252.250803 -148.026167 
L -2261.818488 -146.934852 
L -2266.389948 -149.878677 
L -2264.562592 -153.005482 
L -2274.63833 -151.007009 
L -2270.843376 -147.049182 
z
" clip-path="url(#p3175f96a1f)" style="fill: #e8edf4; stroke: #b8c5d4; stroke-width: 0.45"/>
    <path d="M 429.907521 -33.739199 
L 430.651807 -45.235628 
L 438.428547 -49.107043 
L 435.087088 -53.004978 
L 438.831122 -54.186184 
L 443.929826 -40.514284 
L 443.714627 -32.235194 
L 447.186945 -23.746122 
L 455.651454 -8.845195 
L 443.198583 -11.622789 
L 438.022494 0.533585 
L 446.223547 9.155472 
L 445.986176 15.034545 
L 439.612796 9.962796 
L 434.096736 16.474425 
L 432.539475 9.414581 
L 433.477657 1.218745 
L 432.518607 -7.859191 
L 434.464966 -14.219093 
L 434.836674 -25.468587 
z
" clip-path="url(#p3175f96a1f)" style="fill: #e8edf4; stroke: #b8c5d4; stroke-width: 0.45"/>
    <path d="M -488.270423 21.852671 
L -486.784461 20.239762 
L -478.730352 17.443474 
L -480.01057 16.430997 
L -477.794004 14.347508 
L -469.107266 16.483591 
L -468.01549 18.144989 
L -466.746269 18.401221 
L -466.677883 19.128985 
L -462.56214 21.158381 
L -453.981119 20.65364 
L -455.624025 23.655128 
L -464.833689 25.112398 
L -476.254038 29.979382 
L -480.932342 28.268221 
L -479.07728 24.315073 
z
" clip-path="url(#p3175f96a1f)" style="fill: #e8edf4; stroke: #b8c5d4; stroke-width: 0.45"/>
    <path d="M -384.011757 -274.804243 
L -367.588349 -276.336289 
L -354.806375 -276.438019 
L -353.087388 -274.171252 
L -348.255184 -276.185432 
L -340.325413 -277.572707 
L -327.847762 -275.728948 
L -331.101402 -274.446447 
L -349.961128 -272.698984 
L -351.134508 -271.318448 
L -360.967599 -269.927912 
L -370.081184 -271.92231 
L -365.288976 -274.548612 
z
" clip-path="url(#p3175f96a1f)" style="fill: #e8edf4; stroke: #b8c5d4; stroke-width: 0.45"/>
    <path d="M 5.790314 -272.714912 
L 27.635044 -278.462068 
L 45.834022 -280.36169 
L 62.179817 -276.12645 
L 81.552977 -267.992567 
L 79.475885 -260.427772 
L 61.120555 -259.378352 
L 37.687815 -261.805839 
L 23.724918 -265.017488 
L 17.268222 -271.051943 
z
" clip-path="url(#p3175f96a1f)" style="fill: #e8edf4; stroke: #b8c5d4; stroke-width: 0.45"/>
    <path d="M 391.042782 -229.979385 
L 395.563597 -235.763222 
L 406.6628 -237.341389 
L 428.877275 -236.972317 
L 459.286962 -232.511276 
L 452.672062 -226.263681 
L 421.660688 -226.496548 
L 407.709065 -224.509433 
z
" clip-path="url(#p3175f96a1f)" style="fill: #e8edf4; stroke: #b8c5d4; stroke-width: 0.45"/>
    <path d="M -595.900547 -54.692663 
L -593.983751 -58.394962 
L -582.374288 -61.123429 
L -573.56372 -59.649639 
L -569.844901 -58.314316 
L -570.742652 -56.010596 
L -570.06923 -53.863602 
L -585.53924 -53.737308 
z
" clip-path="url(#p3175f96a1f)" style="fill: #e8edf4; stroke: #b8c5d4; stroke-width: 0.45"/>
    <path d="M 415.345243 -214.063614 
L 423.325591 -217.388626 
L 433.844686 -218.166983 
L 445.797331 -214.950497 
L 446.815455 -212.739515 
L 434.059719 -212.680625 
z
" clip-path="url(#p3175f96a1f)" style="fill: #e8edf4; stroke: #b8c5d4; stroke-width: 0.45"/>
    <path d="M 75.25583 -252.351938 
L 90.624093 -263.39793 
L 97.534832 -264.343702 
L 103.856796 -263.795857 
L 125.180139 -259.017778 
L 122.681859 -255.598374 
z
" clip-path="url(#p3175f96a1f)" style="fill: #e8edf4; stroke: #b8c5d4; stroke-width: 0.45"/>
    <path d="M -2275.616156 -192.714899 
L -2275.616156 -198.465211 
L -2267.407988 -198.800174 
L -2255.239763 -196.393678 
L -2255.960156 -195.243557 
L -2264.627119 -193.226575 
z
" clip-path="url(#p3175f96a1f)" style="fill: #e8edf4; stroke: #b8c5d4; stroke-width: 0.45"/>
    <path d="M 467.97664 -229.233249 
L 469.989794 -231.957668 
L 506.780756 -228.485179 
L 497.057644 -225.160924 
L 483.610035 -225.913327 
z
" clip-path="url(#p3175f96a1f)" style="fill: #e8edf4; stroke: #b8c5d4; stroke-width: 0.45"/>
    <path d="M 742.28705 -194.957772 
L 753.010913 -198.465211 
L 753.010913 -192.714899 
L 743.785589 -192.285345 
z
" clip-path="url(#p3175f96a1f)" style="fill: #e8edf4; stroke: #b8c5d4; stroke-width: 0.45"/>
    <path d="M 99.736891 290.502145 
L 105.123831 283.507078 
L 116.001617 281.900039 
L 123.887478 283.107546 
L 130.829506 286.406401 
L 134.635709 280.605799 
L 142.092477 283.702931 
L 144.042748 289.313549 
L 143.006748 299.394879 
L 128.865757 305.869337 
L 132.560231 310.965867 
L 123.728796 311.575816 
L 116.446797 314.964228 
L 109.404777 313.735853 
L 105.984194 309.351872 
L 101.729333 300.661947 
z
" clip-path="url(#p3175f96a1f)" style="fill: #e8edf4; stroke: #b8c5d4; stroke-width: 0.45"/>
    <path d="M 57.906478 248.007223 
L 61.455746 246.47909 
L 65.291512 237.383764 
L 71.230581 237.007057 
L 76.140605 233.359101 
L 80.958462 231.413612 
L 84.600331 234.009916 
L 85.083334 239.065145 
L 90.768076 239.450113 
L 88.697815 248.314371 
L 88.896494 255.855914 
L 97.764012 250.836769 
L 100.282932 252.320123 
L 105.210346 252.076882 
L 106.905421 249.149736 
L 113.267932 249.727514 
L 119.665658 256.559551 
L 120.190396 264.862986 
L 127.002435 272.195199 
L 126.62638 279.31569 
L 123.887478 283.107546 
L 116.001617 281.900039 
L 105.123831 283.507078 
L 99.736891 290.502145 
L 101.729333 300.661947 
L 94.176487 296.799227 
L 86.980567 296.95617 
L 88.214377 290.346723 
L 80.805432 290.396067 
L 80.14027 299.648988 
L 72.863487 319.368208 
L 73.44083 325.457481 
L 78.921241 325.721589 
L 82.335304 333.400077 
L 83.846481 340.682076 
L 88.541306 345.500151 
L 93.637401 346.478113 
L 97.996167 350.844269 
L 95.245962 354.300502 
L 89.692949 355.3052 
L 89.03083 350.985344 
L 82.166622 347.30087 
L 80.704136 348.801179 
L 77.380501 345.572971 
L 75.941491 341.406581 
L 67.395249 332.666877 
L 66.014495 337.611898 
L 64.418977 332.938594 
L 67.81391 319.621447 
L 71.890525 310.976519 
L 76.510574 303.133914 
L 73.221718 295.461513 
L 73.353446 291.553361 
L 72.392223 286.857233 
L 66.781388 280.173009 
L 64.77286 275.952493 
L 67.677834 274.397841 
L 70.756707 267.084322 
L 67.310909 261.531743 
L 61.97179 255.389431 
z
" clip-path="url(#p3175f96a1f)" style="fill: #e8edf4; stroke: #b8c5d4; stroke-width: 0.45"/>
    <path d="M 80.958462 231.413612 
L 82.751356 228.315393 
L 89.909887 222.843242 
L 90.667215 224.819598 
L 95.152057 225.049144 
L 93.880859 215.426254 
L 98.242233 214.193314 
L 103.159213 220.836236 
L 106.936288 228.479944 
L 117.293682 228.545808 
L 120.554279 235.882585 
L 115.176903 238.086531 
L 112.763627 241.110844 
L 122.842783 246.143466 
L 135.137407 263.496579 
L 141.503396 269.349785 
L 143.621914 275.292331 
L 142.092477 283.702931 
L 134.635709 280.605799 
L 130.829506 286.406401 
L 123.887478 283.107546 
L 126.62638 279.31569 
L 127.002435 272.195199 
L 120.190396 264.862986 
L 119.665658 256.559551 
L 113.267932 249.727514 
L 106.905421 249.149736 
L 105.210346 252.076882 
L 100.282932 252.320123 
L 97.764012 250.836769 
L 88.896494 255.855914 
L 88.697815 248.314371 
L 90.768076 239.450113 
L 85.083334 239.065145 
L 84.600331 234.009916 
z
" clip-path="url(#p3175f96a1f)" style="fill: #e8edf4; stroke: #b8c5d4; stroke-width: 0.45"/>
    <path d="M 15.230919 222.515878 
L 18.167195 223.789902 
L 18.339355 217.756276 
L 22.490312 215.760574 
L 21.599951 212.188047 
L 23.501531 209.323069 
L 23.828461 200.616624 
L 30.403562 202.533202 
L 34.154988 195.596826 
L 34.580604 191.497604 
L 39.223694 184.440803 
L 38.968063 179.626424 
L 49.859326 173.812997 
L 55.871431 175.334174 
L 55.181489 170.157868 
L 58.130807 168.614302 
L 57.496078 165.425438 
L 62.416536 164.799838 
L 65.228474 169.752685 
L 68.900341 171.758386 
L 68.809044 185.135745 
L 60.840146 192.161027 
L 59.831535 202.140627 
L 68.711661 200.745091 
L 70.718015 208.48966 
L 76.045395 210.119089 
L 73.59647 217.107852 
L 83.486946 221.814632 
L 89.657734 219.365272 
L 89.909887 222.843242 
L 82.751356 228.315393 
L 80.958462 231.413612 
L 76.140605 233.359101 
L 71.230581 237.007057 
L 65.291512 237.383764 
L 61.455746 246.47909 
L 57.906478 248.007223 
L 61.97179 255.389431 
L 67.310909 261.531743 
L 70.756707 267.084322 
L 67.677834 274.397841 
L 64.77286 275.952493 
L 66.781388 280.173009 
L 72.392223 286.857233 
L 73.353446 291.553361 
L 73.221718 295.461513 
L 76.510574 303.133914 
L 71.890525 310.976519 
L 67.81391 319.621447 
L 67.003108 313.376535 
L 69.588979 306.932074 
L 66.76052 301.95423 
L 67.443941 292.789345 
L 64.028575 288.430797 
L 61.287065 278.362074 
L 59.767192 267.734268 
L 56.128366 260.767025 
L 41.025717 270.983126 
L 36.306547 270.233841 
L 31.093939 268.26118 
L 33.993697 257.835096 
L 32.238192 249.958364 
L 25.643961 240.258524 
L 26.67257 237.225951 
L 21.751243 236.147563 
L 15.780438 229.284877 
z
" clip-path="url(#p3175f96a1f)" style="fill: #e8edf4; stroke: #b8c5d4; stroke-width: 0.45"/>
    <path d="M 98.242233 214.193314 
L 102.756203 212.140225 
L 109.465642 212.182612 
L 117.645827 211.211824 
L 124.816531 206.728503 
L 128.871844 209.884761 
L 136.562505 211.421154 
L 135.232181 216.267488 
L 139.237933 219.68568 
L 147.707659 221.868976 
L 136.475555 229.066417 
L 129.464403 237.014882 
L 127.616297 242.852437 
L 141.917709 262.712731 
L 149.552722 267.909471 
L 154.664468 274.665427 
L 158.518928 290.234776 
L 157.382067 305.034407 
L 150.365697 310.574596 
L 140.731286 315.991099 
L 133.867948 323.004425 
L 123.378391 330.837465 
L 120.323864 325.442482 
L 122.688014 319.743176 
L 116.446797 314.964228 
L 123.728796 311.575816 
L 132.560231 310.965867 
L 128.865757 305.869337 
L 143.006748 299.394879 
L 144.042748 289.313549 
L 142.092477 283.702931 
L 143.621914 275.292331 
L 141.503396 269.349785 
L 135.137407 263.496579 
L 122.842783 246.143466 
L 112.763627 241.110844 
L 115.176903 238.086531 
L 120.554279 235.882585 
L 117.293682 228.545808 
L 106.936288 228.479944 
L 103.159213 220.836236 
z
" clip-path="url(#p3175f96a1f)" style="fill: #e8edf4; stroke: #b8c5d4; stroke-width: 0.45"/>
    <path d="M 284.125808 67.273435 
L 290.976539 61.878017 
L 300.248372 57.356004 
L 306.028323 51.389329 
L 310.021902 54.026065 
L 317.296076 54.332126 
L 315.981838 49.894237 
L 328.975098 46.270844 
L 332.320036 41.556239 
L 338.930226 47.995245 
L 335.733663 47.490525 
L 329.569831 53.202004 
L 329.888065 59.244759 
L 325.537995 61.104168 
L 320.870994 65.074706 
L 315.268419 66.458068 
L 311.61742 68.717444 
L 311.353964 72.359531 
L 310.372307 73.288801 
L 313.719853 74.656512 
L 318.484672 78.346856 
L 317.273469 80.381468 
L 307.74644 81.342909 
L 304.468888 85.139983 
L 300.71355 84.840443 
L 300.187073 85.603422 
L 296.101328 84.002252 
L 295.086195 85.583207 
L 292.620314 86.281627 
L 292.323818 84.698716 
L 287.88245 82.586066 
L 290.18617 78.883333 
L 292.171222 77.895807 
L 291.421719 76.358761 
L 293.556323 71.82088 
L 293.0055 70.445995 
L 288.095476 69.529333 
z
" clip-path="url(#p3175f96a1f)" style="fill: #e8edf4; stroke: #b8c5d4; stroke-width: 0.45"/>
    <path d="M 338.930321 47.99526 
L 338.930331 47.995239 
L 338.930352 47.995265 
z
" clip-path="url(#p3175f96a1f)" style="fill: #e8edf4; stroke: #b8c5d4; stroke-width: 0.45"/>
    <path d="M 299.704504 94.219875 
L 305.953112 92.80282 
L 300.187073 85.603422 
L 300.71355 84.840443 
L 304.468888 85.139983 
L 307.74644 81.342909 
L 317.273469 80.381468 
L 318.484672 78.346856 
L 325.746673 88.272764 
L 327.829107 93.726004 
L 327.895189 103.418019 
L 324.72415 108.042197 
L 317.106091 109.658366 
L 310.381437 113.147204 
L 302.803375 113.867579 
L 301.862585 109.286658 
L 303.421584 102.977186 
z
" clip-path="url(#p3175f96a1f)" style="fill: #e8edf4; stroke: #b8c5d4; stroke-width: 0.45"/>
    <path d="M -23.064137 -11.5441 
L -14.194444 -13.002239 
L 1.858125 -20.248154 
L 14.654446 -24.205214 
L 21.969408 -21.623472 
L 30.747012 -21.499354 
L 36.37002 -17.569683 
L 44.766641 -17.267044 
L 56.92944 -15.151969 
L 65.106745 -21.010264 
L 61.690944 -25.962024 
L 70.404563 -34.680859 
L 79.828992 -31.203324 
L 97.356984 -28.056107 
L 98.961147 -21.751936 
L 110.912912 -18.213542 
L 129.505704 -20.87245 
L 137.937172 -19.764282 
L 146.176483 -15.721142 
L 151.283012 -11.420849 
L 159.084098 -11.508451 
L 169.680603 -10.138565 
L 177.413869 -12.223608 
L 188.489463 -13.616753 
L 200.811911 -19.545604 
L 205.856706 -18.63655 
L 210.261555 -15.817655 
L 220.298975 -16.518901 
L 210.258077 -1.769918 
L 212.424852 1.669577 
L 217.187497 0.602275 
L 225.487237 1.912165 
L 231.953652 -1.192357 
L 238.704392 1.496983 
L 246.328536 7.377578 
L 245.406874 10.367327 
L 238.769604 9.418928 
L 226.548887 10.535139 
L 220.627644 12.928852 
L 214.462942 18.489474 
L 201.63532 21.748766 
L 193.252543 26.215349 
L 179.871054 23.748816 
L 175.454902 29.172058 
L 178.141634 32.404831 
L 179.503259 35.181555 
L 173.615056 38.010666 
L 167.57817 42.516593 
L 157.747688 45.476128 
L 145.138309 45.795232 
L 131.547707 48.716075 
L 121.75244 53.233088 
L 118.027969 50.61722 
L 107.848386 50.624611 
L 95.403775 45.514603 
L 87.098818 44.261665 
L 75.90932 45.432002 
L 58.544686 43.545855 
L 49.270679 43.741491 
L 44.332832 38.745822 
L 40.500109 30.990167 
L 35.301413 30.056332 
L 25.137047 24.813944 
L 3.808832 22.200902 
L 0.782128 18.552729 
L 4.021422 8.7229 
L -1.783309 1.947162 
L -13.784479 -1.212138 
L -20.855191 -5.674156 
z
" clip-path="url(#p3175f96a1f)" style="fill: #e8edf4; stroke: #b8c5d4; stroke-width: 0.45"/>
    <path d="M -187.74253 203.86896 
L -182.139955 198.256169 
L -163.626287 198.278124 
L -165.296582 191.055033 
L -170.023143 186.78865 
L -170.981758 180.313757 
L -176.488254 176.535595 
L -167.216421 167.716986 
L -157.447674 168.356497 
L -148.647106 159.536366 
L -143.373199 150.998819 
L -135.206491 142.557352 
L -135.336481 136.560462 
L -128.162733 131.693913 
L -134.9526 127.539696 
L -140.855149 114.476224 
L -136.730712 110.848701 
L -123.969606 112.901138 
L -114.59213 111.650808 
L -106.467592 104.580095 
L -97.425305 114.440574 
L -98.276538 121.303261 
L -94.929862 125.608988 
L -95.205491 129.904715 
L -101.243247 128.774158 
L -98.883879 138.047295 
L -90.618484 143.37424 
L -78.925549 149.256791 
L -84.263798 153.072994 
L -87.530481 160.942335 
L -60.476224 172.972415 
L -48.944145 174.062759 
L -44.091942 178.342401 
L -27.470725 181.104344 
L -20.464789 180.963703 
L -19.500957 177.633982 
L -20.60869 172.288342 
L -19.95831 168.664732 
L -14.827435 166.895315 
L -13.941422 175.206359 
L -6.295106 178.39957 
L -1.005548 177.084463 
L 12.961544 177.399219 
L 13.552364 172.231173 
L 10.127868 169.546398 
L 16.912518 168.49366 
L 24.570138 162.236575 
L 34.267152 156.879197 
L 41.323953 158.946415 
L 47.321277 155.403886 
L 51.266164 160.635187 
L 48.424663 164.168152 
L 57.496078 165.425438 
L 58.130807 168.614302 
L 55.181489 170.157868 
L 55.871431 175.334174 
L 49.859326 173.812997 
L 38.968063 179.626424 
L 39.223694 184.440803 
L 34.580604 191.497604 
L 34.154988 195.596826 
L 30.403562 202.533202 
L 23.828461 200.616624 
L 23.501531 209.323069 
L 21.599951 212.188047 
L 22.490312 215.760574 
L 18.339355 217.756276 
L 13.908421 204.411306 
L 11.585572 204.437826 
L 10.21047 209.814332 
L 5.604333 205.454262 
L 8.201942 200.666402 
L 11.96554 200.180356 
L 15.844781 193.060734 
L 10.993882 191.624333 
L 3.191927 191.749105 
L -4.813056 190.595288 
L -5.555167 184.745561 
L -9.571353 184.330595 
L -16.234708 180.695247 
L -19.206634 186.403031 
L -13.134533 190.856571 
L -18.394093 193.991309 
L -20.261328 197.057139 
L -15.083066 199.311298 
L -16.514685 204.380656 
L -13.599277 210.707084 
L -12.289821 217.634547 
L -13.494503 220.706247 
L -19.217502 220.600386 
L -29.588808 222.346979 
L -29.105371 228.67558 
L -33.596299 233.653207 
L -45.703112 239.315559 
L -55.119281 249.213861 
L -61.443969 254.520591 
L -69.826745 260.027521 
L -69.839788 263.897198 
L -81.611411 268.984381 
L -85.541082 269.428474 
L -88.06348 275.845546 
L -85.865838 293.76622 
L -89.430757 301.758812 
L -89.469015 316.051746 
L -93.822563 316.459103 
L -97.651808 322.87574 
L -95.091153 325.648552 
L -102.761815 328.033569 
L -105.595056 333.755047 
L -108.970861 336.173106 
L -116.937151 328.317676 
L -124.058729 308.051329 
L -127.006308 304.072096 
L -131.475934 295.989947 
L -135.017377 280.213441 
L -142.670215 268.658973 
L -148.671017 241.589934 
L -148.641019 231.3997 
L -150.272622 223.521011 
L -162.51551 228.556677 
L -168.445014 227.548066 
L -179.434964 217.351962 
L -175.390085 214.310912 
L -177.87466 211.009667 
z
" clip-path="url(#p3175f96a1f)" style="fill: #e8edf4; stroke: #b8c5d4; stroke-width: 0.45"/>
    <path d="M -20.261328 197.057139 
L -18.394093 193.991309 
L -13.134533 190.856571 
L -19.206634 186.403031 
L -16.234708 180.695247 
L -9.571353 184.330595 
L -5.555167 184.745561 
L -4.813056 190.595288 
L 3.191927 191.749105 
L 10.993882 191.624333 
L 15.844781 193.060734 
L 11.96554 200.180356 
L 8.201942 200.666402 
L 5.604333 205.454262 
L 10.21047 209.814332 
L 11.585572 204.437826 
L 13.908421 204.411306 
L 18.339355 217.756276 
L 18.167195 223.789902 
L 15.230919 222.515878 
L 15.780438 229.284877 
L 13.377161 224.899157 
L 12.891984 220.613863 
L 11.290814 216.564202 
L 7.775891 211.667221 
L 0.026974 211.330727 
L 0.792127 214.798698 
L -1.849391 219.479828 
L -5.429091 217.773884 
L -6.652467 219.305277 
L -12.289821 217.634547 
L -13.599277 210.707084 
L -16.514685 204.380656 
L -15.083066 199.311298 
z
" clip-path="url(#p3175f96a1f)" style="fill: #e8edf4; stroke: #b8c5d4; stroke-width: 0.45"/>
    <path d="M -14.121407 173.520848 
L -8.555786 167.266371 
L -4.012688 165.132202 
L 1.999852 167.079648 
L 6.444698 167.284413 
L 13.552364 172.231173 
L 12.961544 177.399219 
L -1.005548 177.084463 
L -6.295106 178.39957 
L -13.941422 175.206359 
z
" clip-path="url(#p3175f96a1f)" style="fill: #e8edf4; stroke: #b8c5d4; stroke-width: 0.45"/>
    <path d="M -141.482488 71.45678 
L -139.087906 69.532159 
L -140.246939 67.563845 
L -132.215872 63.589178 
L -126.40288 61.943229 
L -117.497539 63.071612 
L -114.316501 57.699671 
L -103.52523 56.699972 
L -100.52635 53.360686 
L -87.269633 48.803459 
L -86.087124 46.901661 
L -86.758807 42.105758 
L -80.987116 39.915941 
L -88.559526 25.301512 
L -71.893964 21.940489 
L -67.587802 20.067603 
L -61.517441 5.005385 
L -44.827968 7.773849 
L -40.148794 3.971123 
L -39.747089 -4.465127 
L -32.759847 -5.251148 
L -26.356035 -10.852419 
L -23.064137 -11.5441 
L -20.855191 -5.674156 
L -13.784479 -1.212138 
L -1.783309 1.947162 
L 4.021422 8.7229 
L 0.782128 18.552729 
L 3.808832 22.200902 
L 25.137047 24.813944 
L 35.301413 30.056332 
L 40.500109 30.990167 
L 44.332832 38.745822 
L 49.270679 43.741491 
L 58.544686 43.545855 
L 75.90932 45.432002 
L 87.098818 44.261665 
L 95.403775 45.514603 
L 107.848386 50.624611 
L 118.027969 50.61722 
L 121.75244 53.233088 
L 131.547707 48.716075 
L 145.138309 45.795232 
L 157.747688 45.476128 
L 167.57817 42.516593 
L 173.615056 38.010666 
L 179.503259 35.181555 
L 178.141634 32.404831 
L 175.454902 29.172058 
L 179.871054 23.748816 
L 193.252543 26.215349 
L 201.63532 21.748766 
L 214.462942 18.489474 
L 220.627644 12.928852 
L 226.548887 10.535139 
L 238.769604 9.418928 
L 245.406874 10.367327 
L 246.328536 7.377578 
L 238.704392 1.496983 
L 231.953652 -1.192357 
L 225.487237 1.912165 
L 217.187497 0.602275 
L 212.424852 1.669577 
L 210.258077 -1.769918 
L 220.298975 -16.518901 
L 230.39813 -13.342645 
L 242.25366 -18.658722 
L 242.177349 -22.36069 
L 249.771547 -31.283614 
L 254.450103 -33.980439 
L 254.345691 -38.625312 
L 249.729556 -40.62471 
L 256.67854 -44.810229 
L 267.132882 -46.327276 
L 278.285987 -46.555046 
L 290.877852 -44.050075 
L 298.265494 -40.952074 
L 309.548028 -23.680476 
L 312.660315 -15.439857 
L 327.302195 -12.750521 
L 337.267013 -6.769717 
L 340.673938 1.134641 
L 353.456679 1.144485 
L 360.74983 -2.174232 
L 374.653884 -4.654242 
L 370.232918 2.915474 
L 366.964861 5.994326 
L 364.081726 15.211052 
L 358.42388 23.395387 
L 348.213488 21.90571 
L 340.993038 24.877143 
L 343.20869 32.082249 
L 341.998356 42.022287 
L 337.70089 42.249224 
L 337.752488 46.522873 
L 332.320036 41.556239 
L 328.975098 46.270844 
L 315.981838 49.894237 
L 317.296076 54.332126 
L 310.021902 54.026065 
L 306.028323 51.389329 
L 300.248372 57.356004 
L 290.976539 61.878017 
L 284.125808 67.273435 
L 272.364184 69.7191 
L 266.170789 73.650727 
L 257.111547 75.947274 
L 261.582477 72.048905 
L 259.82219 68.772874 
L 266.483806 63.117913 
L 262.03983 58.710021 
L 254.706096 61.679772 
L 245.20776 67.5295 
L 240.024281 72.961872 
L 231.773667 73.366186 
L 227.482722 77.291944 
L 231.916264 82.980381 
L 238.801775 84.361353 
L 239.08349 88.137558 
L 245.739455 90.594744 
L 255.167362 84.587638 
L 262.636302 87.862799 
L 268.076716 88.08691 
L 269.44008 92.49415 
L 257.528903 94.843736 
L 253.598797 99.385747 
L 245.417743 103.606046 
L 241.098974 109.494467 
L 250.153868 114.117558 
L 253.458809 122.392518 
L 258.57925 130.10209 
L 264.292685 136.564375 
L 264.156175 142.813635 
L 258.875747 145.111051 
L 260.888622 149.598067 
L 265.840382 152.20937 
L 264.547446 159.061623 
L 262.410669 165.728891 
L 257.709758 166.484697 
L 244.752581 186.632577 
L 236.940191 196.672389 
L 213.669095 211.517016 
L 204.188584 212.482805 
L 199.045971 216.220753 
L 196.137084 213.490112 
L 191.377917 217.671066 
L 179.621075 221.884844 
L 170.719211 223.174953 
L 167.846843 232.059862 
L 163.184625 232.552647 
L 160.978722 226.446853 
L 162.971164 223.19256 
L 151.683848 220.49909 
L 147.707659 221.868976 
L 139.237933 219.68568 
L 135.232181 216.267488 
L 136.562505 211.421154 
L 128.871844 209.884761 
L 124.816531 206.728503 
L 117.645827 211.211824 
L 109.465642 212.182612 
L 102.756203 212.140225 
L 93.880859 215.426254 
L 95.152057 225.049144 
L 90.667215 224.819598 
L 89.657734 219.365272 
L 83.486946 221.814632 
L 73.59647 217.107852 
L 76.045395 210.119089 
L 70.718015 208.48966 
L 68.711661 200.745091 
L 59.831535 202.140627 
L 60.840146 192.161027 
L 68.809044 185.135745 
L 68.900341 171.758386 
L 65.228474 169.752685 
L 62.416536 164.799838 
L 57.496078 165.425438 
L 48.424663 164.168152 
L 51.266164 160.635187 
L 47.321277 155.403886 
L 41.323953 158.946415 
L 34.267152 156.879197 
L 24.570138 162.236575 
L 16.912518 168.49366 
L 10.127868 169.546398 
L 6.444698 167.284413 
L 1.999852 167.079648 
L -4.012688 165.132202 
L -8.555786 167.266371 
L -14.121407 173.520848 
L -14.827435 166.895315 
L -19.95831 168.664732 
L -29.767054 167.842627 
L -39.283649 165.913441 
L -46.112208 162.218533 
L -52.649487 160.560193 
L -55.472729 156.519227 
L -60.199725 155.311937 
L -68.693362 149.830656 
L -75.438015 147.244134 
L -78.925549 149.256791 
L -90.618484 143.37424 
L -98.883879 138.047295 
L -101.243247 128.774158 
L -95.205491 129.904715 
L -94.929862 125.608988 
L -98.276538 121.303261 
L -97.425305 114.440574 
L -106.467592 104.580095 
L -120.303391 101.177989 
L -122.793182 94.71353 
L -129.009184 90.791249 
L -130.506885 88.377103 
L -131.768953 83.581635 
L -131.475934 80.310387 
L -136.585072 78.395113 
L -139.350058 79.242216 
z
" clip-path="url(#p3175f96a1f)" style="fill: #e8edf4; stroke: #b8c5d4; stroke-width: 0.45"/>
    <path d="M 152.553775 240.246785 
L 156.69995 236.434496 
L 165.891355 234.077084 
L 170.728341 234.276633 
L 172.608619 237.487016 
L 168.911971 241.189098 
L 166.964743 246.047387 
L 159.696221 250.091396 
L 152.797668 247.483571 
z
" clip-path="url(#p3175f96a1f)" style="fill: #e8edf4; stroke: #b8c5d4; stroke-width: 0.45"/>
    <path d="M 249.133084 205.010604 
L 254.083974 196.7476 
L 260.817324 190.379002 
L 264.655263 192.884879 
L 258.130157 211.449848 
L 254.524807 218.350792 
L 250.091265 211.247908 
z
" clip-path="url(#p3175f96a1f)" style="fill: #e8edf4; stroke: #b8c5d4; stroke-width: 0.45"/>
    <path d="M 247.261936 265.52054 
L 250.649914 268.289004 
L 251.521145 255.127497 
L 254.26222 247.504222 
L 259.355707 247.514003 
L 264.54049 249.915976 
L 267.135056 247.72529 
L 267.900209 249.86272 
L 266.531628 253.350689 
L 269.403562 259.380836 
L 267.188095 266.372425 
L 262.22851 269.16067 
L 260.901665 275.943146 
L 262.784116 282.643455 
L 267.243742 283.570334 
L 270.96517 282.574765 
L 281.472986 287.23894 
L 280.672184 291.818557 
L 283.416302 293.839692 
L 282.542462 297.716759 
L 275.98562 293.587322 
L 272.878054 289.167257 
L 270.713452 292.255477 
L 265.356944 287.219159 
L 257.715844 288.462533 
L 253.528369 286.603558 
L 253.955289 283.126023 
L 256.583765 280.985985 
L 254.072671 279.040278 
L 252.985805 282.072198 
L 248.83224 277.238255 
L 247.574519 273.574649 
z
" clip-path="url(#p3175f96a1f)" style="fill: #e8edf4; stroke: #b8c5d4; stroke-width: 0.45"/>
    <path d="M 264.391807 342.679735 
L 267.69327 335.589024 
L 272.993696 333.2227 
L 277.581138 330.052966 
L 280.554802 333.861343 
L 286.951224 331.557622 
L 288.323718 327.803371 
L 294.269742 327.579694 
L 293.771088 321.073717 
L 300.590517 325.063601 
L 303.238122 342.702777 
L 300.372274 350.401263 
L 297.298619 341.825024 
L 293.365035 346.092276 
L 296.051332 352.291105 
L 293.639794 356.233818 
L 283.740188 351.351401 
L 281.375603 345.262345 
L 283.941041 341.262245 
L 278.611922 337.283665 
L 275.969099 340.772069 
L 272.0103 340.448183 
L 265.784734 345.142138 
z
" clip-path="url(#p3175f96a1f)" style="fill: #e8edf4; stroke: #b8c5d4; stroke-width: 0.45"/>
    <path d="M 284.135372 297.539382 
L 292.214696 297.724801 
L 294.531894 300.863017 
L 296.895174 310.256579 
L 290.403978 308.024374 
L 290.579616 310.848051 
L 292.638139 316.039573 
L 288.636735 317.924415 
L 288.286329 312.007519 
L 285.753498 311.570599 
L 284.436217 306.477113 
L 289.387107 307.148361 
L 289.277551 303.963192 
z
" clip-path="url(#p3175f96a1f)" style="fill: #e8edf4; stroke: #b8c5d4; stroke-width: 0.45"/>
    <path d="M 268.262788 321.468901 
L 272.107683 316.860374 
L 273.035866 311.63842 
L 277.675043 311.144113 
L 276.319939 316.807987 
L 282.54681 308.68671 
L 281.743399 316.712126 
L 278.721043 319.477329 
L 276.085611 324.792754 
L 273.443658 327.283632 
z
" clip-path="url(#p3175f96a1f)" style="fill: #e8edf4; stroke: #b8c5d4; stroke-width: 0.45"/>
    <path d="M 264.085746 303.142392 
L 269.135758 305.746739 
L 274.489658 305.734349 
L 274.326628 309.24862 
L 270.430432 312.820929 
L 265.087401 315.34724 
L 264.790904 311.438002 
L 265.388246 307.146187 
z
" clip-path="url(#p3175f96a1f)" style="fill: #e8edf4; stroke: #b8c5d4; stroke-width: 0.45"/>
    <path d="M 224.467322 332.791432 
L 228.591325 326.907577 
L 234.669077 321.711707 
L 239.720394 315.891759 
L 244.130025 307.534633 
L 245.62903 314.394276 
L 240.074712 319.026714 
L 235.658994 324.808622 
z
" clip-path="url(#p3175f96a1f)" style="fill: #e8edf4; stroke: #b8c5d4; stroke-width: 0.45"/>
    <path d="M 250.960757 289.895022 
L 258.16798 290.203909 
L 261.089475 293.233438 
L 258.858357 300.502395 
z
" clip-path="url(#p3175f96a1f)" style="fill: #e8edf4; stroke: #b8c5d4; stroke-width: 0.45"/>
    <path d="M 161.278262 386.305867 
L 167.443833 389.188886 
L 173.944594 387.616844 
L 175.637496 380.493962 
L 179.228499 378.907356 
L 189.312873 377.085986 
L 199.478979 365.110467 
L 203.311701 369.470319 
L 205.078075 366.604255 
L 209.098608 366.870754 
L 209.967231 357.355029 
L 216.445385 351.504214 
L 220.688508 344.928895 
L 224.091701 344.901288 
L 228.413948 349.157236 
L 228.798264 352.814104 
L 241.357213 357.690653 
L 240.758133 360.986029 
L 235.113388 361.403386 
L 236.615871 365.51152 
L 230.421607 368.377367 
L 223.129173 366.959442 
L 213.456939 366.95553 
L 210.542401 376.523642 
L 207.303106 379.449267 
L 202.989989 391.149809 
L 196.129259 392.94292 
L 188.17036 390.585291 
L 184.135915 391.322838 
L 179.233716 395.577047 
L 173.862861 394.971011 
L 168.435924 396.681738 
L 162.682927 391.92844 
z
" clip-path="url(#p3175f96a1f)" style="fill: #e8edf4; stroke: #b8c5d4; stroke-width: 0.45"/>
    <path d="M 80.704136 348.801179 
L 82.166622 347.30087 
L 89.03083 350.985344 
L 89.692949 355.3052 
L 95.245962 354.300502 
L 97.996167 350.844269 
L 99.930788 351.63029 
L 104.899067 356.709213 
L 108.428337 362.341568 
L 108.910906 368.006746 
L 108.015328 371.833817 
L 109.448252 379.70555 
L 112.411482 382.023834 
L 115.719901 389.463429 
L 115.559045 392.307756 
L 109.593457 392.869013 
L 91.681913 379.959659 
L 90.696778 375.673496 
L 85.833272 370.046575 
L 84.672064 363.07955 
L 81.637536 358.49276 
L 82.559198 352.36762 
z
" clip-path="url(#p3175f96a1f)" style="fill: #e8edf4; stroke: #b8c5d4; stroke-width: 0.45"/>
    <path d="M 199.478979 365.110467 
L 202.810004 361.962904 
L 209.967231 357.355029 
L 209.098608 366.870754 
L 205.078075 366.604255 
L 203.311701 369.470319 
z
" clip-path="url(#p3175f96a1f)" style="fill: #e8edf4; stroke: #b8c5d4; stroke-width: 0.45"/>
    <path d="M 327.391752 123.071157 
L 335.345869 120.4792 
L 339.758544 115.190946 
L 348.220009 110.841745 
L 354.390363 105.090053 
L 371.137222 102.581132 
L 380.132556 104.301423 
L 388.934863 89.344631 
L 394.544394 93.362556 
L 411.671221 81.680707 
L 416.957735 71.39309 
L 415.515682 61.932795 
L 419.069298 56.618457 
L 428.013767 55.074238 
L 432.601209 66.742392 
L 432.351665 73.563126 
L 424.568838 82.033721 
L 424.711 90.715169 
L 421.542569 97.429389 
L 423.008968 101.645124 
L 418.627596 107.574193 
L 407.87806 111.532557 
L 393.088863 112.048383 
L 381.103779 121.651493 
L 375.450339 118.41872 
L 375.100803 112.130333 
L 360.469854 113.986265 
L 350.512861 117.948759 
L 340.664555 118.11005 
L 349.194276 124.299967 
L 343.580832 138.59877 
L 338.142157 142.138691 
L 334.071193 138.868965 
L 336.134499 131.286991 
L 330.809293 128.840239 
z
" clip-path="url(#p3175f96a1f)" style="fill: #e8edf4; stroke: #b8c5d4; stroke-width: 0.45"/>
    <path d="M 414.961815 45.103333 
L 419.122337 38.629527 
L 428.11115 38.162175 
L 430.562684 26.524671 
L 433.050302 19.968046 
L 442.9373 28.726878 
L 455.308874 33.349534 
L 461.260115 29.783746 
L 463.130393 39.22839 
L 450.650133 41.531241 
L 443.282054 49.886411 
L 430.054031 44.135588 
L 425.475718 53.340905 
L 416.11911 53.467416 
z
" clip-path="url(#p3175f96a1f)" style="fill: #e8edf4; stroke: #b8c5d4; stroke-width: 0.45"/>
    <path d="M 352.248803 125.651158 
L 352.316623 121.661275 
L 356.970581 116.641695 
L 361.754094 117.614874 
L 365.212935 114.078866 
L 371.390679 115.893496 
L 372.467111 118.778255 
L 367.730985 123.869351 
L 364.277796 121.170446 
L 359.964679 123.125717 
L 357.731822 128.047262 
z
" clip-path="url(#p3175f96a1f)" style="fill: #e8edf4; stroke: #b8c5d4; stroke-width: 0.45"/>
   </g>
   <g id="PathCollection_1">
    <defs>
     <path id="ma04fee5ef9" d="M 0 2.12132 
C 0.562581 2.12132 1.102195 1.897805 1.5 1.5 
C 1.897805 1.102195 2.12132 0.562581 2.12132 0 
C 2.12132 -0.562581 1.897805 -1.102195 1.5 -1.5 
C 1.102195 -1.897805 0.562581 -2.12132 0 -2.12132 
C -0.562581 -2.12132 -1.102195 -1.897805 -1.5 -1.5 
C -1.897805 -1.102195 -2.12132 -0.562581 -2.12132 0 
C -2.12132 0.562581 -1.897805 1.102195 -1.5 1.5 
C -1.102195 1.897805 -0.562581 2.12132 0 2.12132 
z
" style="stroke: #ffffff; stroke-width: 0.5"/>
    </defs>
    <g clip-path="url(#p3175f96a1f)">
     <use xlink:href="#ma04fee5ef9" x="203.371186" y="365.32814" style="fill: #8aa0b7; stroke: #ffffff; stroke-width: 0.5"/>
     <use xlink:href="#ma04fee5ef9" x="0.060573" y="171.832522" style="fill: #8aa0b7; stroke: #ffffff; stroke-width: 0.5"/>
     <use xlink:href="#ma04fee5ef9" x="199.164759" y="216" style="fill: #8aa0b7; stroke: #ffffff; stroke-width: 0.5"/>
     <use xlink:href="#ma04fee5ef9" x="193.976833" y="216.701071" style="fill: #8aa0b7; stroke: #ffffff; stroke-width: 0.5"/>
     <use xlink:href="#ma04fee5ef9" x="370.226103" y="340.089581" style="fill: #8aa0b7; stroke: #ffffff; stroke-width: 0.5"/>
     <use xlink:href="#ma04fee5ef9" x="111.951517" y="391.688413" style="fill: #8aa0b7; stroke: #ffffff; stroke-width: 0.5"/>
     <use xlink:href="#ma04fee5ef9" x="256.652588" y="205.483934" style="fill: #8aa0b7; stroke: #ffffff; stroke-width: 0.5"/>
    </g>
   </g>
   <g id="PathCollection_2">
    <defs>
     <path id="maaef8986fd" d="M 0 3.674235 
C 0.974418 3.674235 1.909058 3.287094 2.598076 2.598076 
C 3.287094 1.909058 3.674235 0.974418 3.674235 0 
C 3.674235 -0.974418 3.287094 -1.909058 2.598076 -2.598076 
C 1.909058 -3.287094 0.974418 -3.674235 0 -3.674235 
C -0.974418 -3.674235 -1.909058 -3.287094 -2.598076 -2.598076 
C -3.287094 -1.909058 -3.674235 -0.974418 -3.674235 0 
C -3.674235 0.974418 -3.287094 1.909058 -2.598076 2.598076 
C -1.909058 3.287094 -0.974418 3.674235 0 3.674235 
z
" style="stroke: #ffffff; stroke-width: 1.2"/>
    </defs>
    <g clip-path="url(#p3175f96a1f)">
     <use xlink:href="#maaef8986fd" x="199.164759" y="216" style="fill: #f97316; stroke: #ffffff; stroke-width: 1.2"/>
    </g>
   </g>
   <g id="PathCollection_3">
    <path d="M 199.164759 220.929503 
C 200.472079 220.929503 201.72603 220.410099 202.650444 219.485685 
C 203.574859 218.561271 204.094262 217.307319 204.094262 216 
C 204.094262 214.692681 203.574859 213.438729 202.650444 212.514315 
C 201.72603 211.589901 200.472079 211.070497 199.164759 211.070497 
C 197.85744 211.070497 196.603489 211.589901 195.679074 212.514315 
C 194.75466 213.438729 194.235256 214.692681 194.235256 216 
C 194.235256 217.307319 194.75466 218.561271 195.679074 219.485685 
C 196.603489 220.410099 197.85744 220.929503 199.164759 220.929503 
L 199.164759 220.929503 
z
" clip-path="url(#p3175f96a1f)" style="fill: none; stroke: #7c2d12; stroke-width: 1.1"/>
   </g>
  </g>
 </g>
 <defs>
  <clipPath id="p3175f96a1f">
   <rect x="0" y="0" width="398.329519" height="432"/>
  </clipPath>
 </defs>
</svg>
