<?xml version="1.0" encoding="utf-8" standalone="no"?>
<!DOCTYPE svg PUBLIC "-//W3C//DTD SVG 1.1//EN"
  "http://www.w3.org/Graphics/SVG/1.1/DTD/svg11.dtd">
<svg xmlns:xlink="http://www.w3.org/1999/xlink" width="481.27321pt" height="432pt" viewBox="0 0 481.27321 432" xmlns="http://www.w3.org/2000/svg" version="1.1">
 <metadata>
  <rdf:RDF xmlns:dc="http://purl.org/dc/elements/1.1/" xmlns:cc="http://creativecommons.org/ns#" xmlns:rdf="http://www.w3.org/1999/02/22-rdf-syntax-ns#">
   <cc:Work>
    <dc:type rdf:resource="http://purl.org/dc/dcmitype/StillImage"/>
    <dc:date>2026-06-09T04:57:12.850917</dc:date>
    <dc:format>image/svg+xml</dc:format>
    <dc:creator>
     <cc:Agent>
      <dc:title>Matplotlib v3.10.8, https://matplotlib.org/</dc:title>
     </cc:Agent>
    </dc:creator>
   </cc:Work>
  </rdf:RDF>
 </metadata>
 <defs>
  <style type="text/css">*{stroke-linejoin: round; stroke-linecap: butt}</style>
 </defs>
 <g id="figure_1">
  <g id="patch_1">
   <path d="M 0 432 
L 481.27321 432 
L 481.27321 0 
L 0 0 
z
" style="fill: #eaf3ff"/>
  </g>
  <g id="axes_1">
   <g id="PatchCollection_1">
    <path d="M 187.238169 112.869836 
L 191.976588 112.324462 
L 203.420893 99.79899 
L 203.315128 96.074852 
L 200.847457 93.477237 
L 200.182956 88.964842 
L 203.490437 87.51438 
L 204.153058 80.772702 
L 199.603536 74.306969 
L 203.622799 72.930653 
L 239.533242 72.190981 
L 283.019472 96.793095 
L 283.801082 103.440738 
L 300.24825 114.895614 
L 294.957912 129.015024 
L 295.636622 135.508889 
L 302.972944 139.68382 
L 303.316711 142.66313 
L 300.161965 149.583151 
L 300.819018 153.065621 
L 300.068346 158.539531 
L 308.812393 177.021454 
L 313.017689 179.527512 
L 303.901114 186.171145 
L 291.371471 190.620886 
L 284.497095 190.432819 
L 280.413721 193.870141 
L 272.436743 194.165522 
L 269.44518 195.613931 
L 255.675223 192.384914 
L 247.053455 193.311635 
L 243.845093 177.727321 
L 237.654086 169.215088 
L 226.420429 167.077422 
L 219.91739 163.637005 
L 208.067602 159.789337 
L 203.280748 156.872216 
L 197.092801 142.433734 
L 190.447053 136.01715 
L 188.154824 129.370809 
L 189.300642 123.41196 
z
" clip-path="url(#p46607d4b11)" style="fill: #e8edf4; stroke: #b8c5d4; stroke-width: 0.45"/>
    <path d="M -9.369509 127.651193 
L -6.454925 126.44083 
L -6.096079 121.445416 
L -4.221319 118.499448 
L -0.051368 116.091156 
L 2.959145 117.258292 
L 6.878022 112.871613 
L 13.119921 112.984714 
L 13.854193 116.228536 
L 18.134876 118.258441 
L 34.448729 101.813723 
L 34.065013 92.386033 
L 39.041478 81.254124 
L 44.29211 75.351529 
L 51.836749 69.828506 
L 53.1537 66.173137 
L 53.439118 61.970618 
L 55.306773 57.994301 
L 54.706921 51.500145 
L 56.135197 41.345586 
L 58.374725 34.196506 
L 61.806851 28.069189 
L 63.516401 13.157263 
L 67.977692 7.339346 
L 74.113595 3.649336 
L 83.543061 7.543639 
L 90.841363 11.770733 
L 107.77224 15.135354 
L 111.198445 8.215439 
L 112.772391 7.33224 
L 117.994601 8.483092 
L 130.751974 2.764066 
L 135.27248 5.188049 
L 138.982919 4.844304 
L 140.701351 2.057922 
L 144.960125 1.07613 
L 160.929343 2.545561 
L 164.712617 1.329868 
L 171.653851 10.789533 
L 176.79908 12.179024 
L 179.866439 10.254818 
L 185.165036 11.008927 
L 191.546684 8.584943 
L 194.268225 13.479099 
L 204.356166 21.093907 
L 203.662754 34.492584 
L 208.255503 36.044324 
L 204.571711 40.113017 
L 200.169635 43.156394 
L 195.788285 49.132119 
L 193.377625 54.459732 
L 192.732769 63.657665 
L 190.078141 68.036055 
L 189.982212 76.674994 
L 186.686873 79.869075 
L 186.262298 86.687732 
L 184.688352 87.571226 
L 183.627804 93.839772 
L 186.509227 99.049546 
L 187.238169 112.869836 
L 189.300642 123.41196 
L 188.154824 129.370809 
L 190.447053 136.01715 
L 197.092801 142.433734 
L 203.280814 156.872234 
L 198.766822 155.706282 
L 183.375546 157.640258 
L 180.304041 159.009911 
L 177.03831 166.324793 
L 179.602931 171.378239 
L 176.148894 196.447093 
L 187.255933 202.945394 
L 190.400865 200.861603 
L 191.358971 213.218088 
L 182.589165 213.123343 
L 173.660662 201.933995 
L 164.879605 200.332809 
L 162.308471 194.328364 
L 155.303285 197.945835 
L 146.127261 196.347611 
L 142.297799 191.144943 
L 135.021999 190.087947 
L 129.651751 190.364483 
L 128.99446 186.802675 
L 119.823173 185.838648 
L 104.909174 188.324512 
L 105.522054 174.688381 
L 101.699697 170.436121 
L 100.858838 163.388892 
L 102.54707 156.481412 
L 100.224641 152.060387 
L 100.014426 144.850316 
L 86.110642 144.95039 
L 87.108422 140.82189 
L 81.262082 140.865117 
L 80.644465 142.850611 
L 73.537429 143.29828 
L 68.945272 152.841439 
L 62.613366 151.223081 
L 58.83246 152.834925 
L 51.255253 153.761647 
L 44.233487 144.064527 
L 38.118309 128.654303 
L 4.303927 128.502711 
L -7.764178 131.205304 
z
" clip-path="url(#p46607d4b11)" style="fill: #e8edf4; stroke: #b8c5d4; stroke-width: 0.45"/>
    <path d="M 320.63166 29.397543 
L 333.78142 12.786627 
L 341.127253 12.575096 
L 351.339412 4.49704 
L 366.267247 3.992047 
L 398.647996 -30.400424 
L 411.810927 -47.001474 
L 411.926378 -69.447922 
L 426.94411 -72.529821 
L 432.366914 -76.452541 
L 436.711894 -76.483938 
L 435.956868 -60.62782 
L 433.537553 -56.489099 
L 430.308554 -44.102273 
L 417.707332 -16.668783 
L 407.873889 0.124787 
L 384.614756 28.586597 
L 373.147047 37.862909 
L 356.006387 49.240781 
L 345.324643 57.956753 
L 332.784038 71.837589 
L 330.14139 77.879975 
L 327.553744 80.59321 
L 320.768594 71.140087 
z
" clip-path="url(#p46607d4b11)" style="fill: #e8edf4; stroke: #b8c5d4; stroke-width: 0.45"/>
    <path d="M 239.417024 60.046699 
L 248.338122 47.818619 
L 252.507896 39.466237 
L 246.126901 20.561825 
L 240.693899 12.606093 
L 255.51032 -1.787586 
L 261.46253 0.134847 
L 261.46253 6.566335 
L 265.377241 10.337472 
L 273.352793 10.337472 
L 287.8577 20.069036 
L 294.162665 19.868906 
L 296.699319 21.190459 
L 304.340955 22.092045 
L 307.727694 17.316783 
L 318.195845 12.524333 
L 322.817443 16.396634 
L 330.647106 16.398675 
L 320.63166 29.397543 
L 320.768594 71.140087 
L 327.553744 80.59321 
L 319.528399 85.168743 
L 316.698971 89.949848 
L 312.404066 90.789785 
L 310.778623 98.863601 
L 307.098831 103.487032 
L 304.8624 111.111431 
L 300.24825 114.895614 
L 283.801082 103.440738 
L 283.019472 96.793095 
L 239.533242 72.190981 
z
" clip-path="url(#p46607d4b11)" style="fill: #e8edf4; stroke: #b8c5d4; stroke-width: 0.45"/>
    <path d="M 38.329708 388.762243 
L 43.818979 383.095326 
L 48.344222 386.23256 
L 50.27583 391.132045 
L 62.621656 394.133675 
L 68.777692 393.296961 
L 79.005974 387.437594 
L 79.017817 345.116323 
L 82.111232 346.837123 
L 88.905018 357.725065 
L 87.849207 364.707157 
L 90.40613 368.730254 
L 98.613981 367.561341 
L 109.770761 359.000566 
L 112.575204 353.511887 
L 118.165141 350.856075 
L 122.994752 352.247638 
L 128.468627 355.457114 
L 137.795057 356.023806 
L 145.122967 353.355558 
L 148.296915 344.297966 
L 154.531708 343.380719 
L 157.976862 339.076349 
L 161.792704 331.440518 
L 172.080794 322.885665 
L 188.294572 314.446873 
L 192.956603 314.571818 
L 198.500944 316.512899 
L 202.362383 315.137325 
L 208.453282 316.282551 
L 216.923458 340.551405 
L 214.88171 353.326543 
L 215.859949 357.440831 
L 210.077562 355.342236 
L 206.76505 356.158817 
L 205.683184 359.495607 
L 202.554241 363.797608 
L 202.661421 367.759713 
L 209.500211 373.97082 
L 216.206951 372.733809 
L 218.540039 367.644835 
L 227.231089 367.740764 
L 224.368023 376.082442 
L 223.014358 385.6031 
L 220.049441 390.775568 
L 209.990515 398.218948 
L 195.439506 418.137836 
L 174.401447 436.835109 
L 165.748295 442.049028 
L 153.771974 446.494923 
L 147.930371 447.091815 
L 146.451762 450.272868 
L 139.487435 448.579306 
L 133.815188 450.760211 
L 121.395935 448.552067 
L 114.453518 449.949551 
L 109.709177 449.349699 
L 97.890961 453.873166 
L 88.107979 455.687527 
L 81.028773 460.018544 
L 75.816631 460.293896 
L 70.968071 456.208031 
L 67.095382 455.998408 
L 62.160367 450.882787 
L 61.619138 452.471537 
L 60.096117 449.391742 
L 60.16007 442.673159 
L 56.437196 434.994101 
L 60.1352 432.906757 
L 59.83557 424.112081 
L 52.33179 413.387574 
z
M 160.415946 403.650188 
L 169.011658 412.463813 
L 173.111735 411.3251 
L 175.21862 407.66381 
L 181.605004 405.874319 
L 187.06822 396.5621 
L 178.090568 389.573495 
L 172.735125 391.910728 
L 166.526386 396.393928 
z
" clip-path="url(#p46607d4b11)" style="fill: #e8edf4; stroke: #b8c5d4; stroke-width: 0.45"/>
    <path d="M 160.415946 403.650188 
L 166.526386 396.393928 
L 172.735125 391.910728 
L 178.090568 389.573495 
L 187.06822 396.5621 
L 181.605004 405.874319 
L 175.21862 407.66381 
L 173.111735 411.3251 
L 169.011658 412.463813 
z
" clip-path="url(#p46607d4b11)" style="fill: #e8edf4; stroke: #b8c5d4; stroke-width: 0.45"/>
    <path d="M 140.534363 264.546026 
L 153.34207 265.800802 
L 157.064352 267.120714 
L 160.933488 266.854836 
L 167.279607 259.438695 
L 177.244972 250.014559 
L 181.346825 249.1133 
L 182.740164 245.140536 
L 189.264521 240.575619 
L 197.943727 239.007002 
L 198.685104 243.281764 
L 208.243068 243.053785 
L 213.553508 245.472143 
L 216.023383 248.307378 
L 221.480086 249.139947 
L 227.431829 252.821963 
L 227.457292 267.325007 
L 225.223093 275.266389 
L 224.731605 283.829533 
L 226.573205 287.223761 
L 225.278756 293.969584 
L 223.547889 295.012367 
L 220.526125 303.276473 
L 208.453282 316.282551 
L 202.362383 315.137325 
L 198.500944 316.512899 
L 192.956603 314.571818 
L 188.294572 314.446873 
L 180.989164 309.269075 
L 172.128166 307.510377 
L 168.757624 300.243459 
L 168.7292 296.201413 
L 163.822017 294.96914 
L 150.853837 282.382307 
L 147.25117 275.751363 
L 144.945321 273.707246 
z
" clip-path="url(#p46607d4b11)" style="fill: #e8edf4; stroke: #b8c5d4; stroke-width: 0.45"/>
    <path d="M 79.014264 311.672038 
L 90.309016 311.272926 
L 90.647137 270.455135 
L 99.17712 270.076156 
L 116.844637 266.06431 
L 121.223618 270.787925 
L 128.538501 266.297027 
L 132.014447 266.271564 
L 138.474259 263.689771 
L 140.534363 264.546026 
L 144.945321 273.707246 
L 147.25117 275.751363 
L 150.853837 282.382307 
L 163.822017 294.96914 
L 168.7292 296.201413 
L 168.757624 300.243459 
L 172.128166 307.510377 
L 180.989164 309.269075 
L 188.294572 314.446873 
L 172.080794 322.885665 
L 161.792704 331.440518 
L 157.976862 339.076349 
L 154.531708 343.380719 
L 148.296915 344.297966 
L 145.122967 353.355558 
L 137.795057 356.023806 
L 128.468627 355.457114 
L 122.994752 352.247638 
L 118.165141 350.856075 
L 112.575204 353.511887 
L 109.770761 359.000566 
L 98.613981 367.561341 
L 90.40613 368.730254 
L 87.849207 364.707157 
L 88.905018 357.725065 
L 82.111232 346.837123 
L 79.017817 345.116323 
z
" clip-path="url(#p46607d4b11)" style="fill: #e8edf4; stroke: #b8c5d4; stroke-width: 0.45"/>
    <path d="M -14.504671 259.565416 
L -2.130422 255.433955 
L 5.298155 255.776221 
L 12.129247 260.957571 
L 13.861891 260.152241 
L 60.311662 259.657792 
L 68.251267 265.148247 
L 95.993106 266.770158 
L 126.435761 259.496134 
L 133.866706 260.155794 
L 138.388396 262.738771 
L 138.474259 263.689771 
L 132.014447 266.271564 
L 128.538501 266.297027 
L 121.223618 270.787925 
L 116.844637 266.06431 
L 99.17712 270.076156 
L 90.647137 270.455135 
L 90.309016 311.272926 
L 79.014264 311.672038 
L 79.005974 387.437594 
L 68.777692 393.296961 
L 62.621656 394.133675 
L 50.27583 391.132045 
L 48.344222 386.23256 
L 43.818979 383.095326 
L 38.329708 388.762243 
L 29.813936 380.105539 
L 25.329552 371.737214 
L 16.135763 334.634007 
L 15.878768 320.925042 
L 14.412002 314.674852 
L 9.953672 309.951829 
L 4.039234 300.484466 
L -4.48542 279.54352 
L -13.80889 268.357132 
z
" clip-path="url(#p46607d4b11)" style="fill: #e8edf4; stroke: #b8c5d4; stroke-width: 0.45"/>
    <path d="M -51.693148 9.790273 
L -51.56169 6.623432 
L -48.613946 -1.485826 
L -43.163757 -12.541644 
L -39.845916 -12.644679 
L -33.021337 -19.351419 
L -28.677293 -19.5415 
L -22.244128 -14.832689 
L -14.372028 -18.693831 
L -13.300229 -23.456825 
L -10.726134 -28.072076 
L -8.950855 -33.870451 
L -2.82265 -38.590809 
L -0.510287 -46.612132 
L 1.920506 -49.165798 
L 6.565365 -62.434496 
L 16.218665 -71.301415 
L 18.0727 -77.179731 
L 13.536798 -81.743761 
L 13.90571 -85.392024 
L 17.140057 -86.049315 
L 21.695796 -78.71166 
L 22.461156 -71.108965 
L 22.041911 -63.497413 
L 28.279072 -53.081418 
L 21.879068 -53.193632 
L 18.645906 -52.377643 
L 13.423696 -53.528791 
L 10.93428 -48.121534 
L 17.697866 -41.433742 
L 22.688543 -39.488515 
L 27.914898 -26.84602 
L 20.357232 -12.129208 
L 17.607267 -10.04897 
L 16.72318 -1.166063 
L 17.86367 3.659995 
L 16.940501 7.074653 
L 22.355753 13.058669 
L 23.332807 17.172661 
L 27.563158 23.086211 
L 32.803724 26.77326 
L 34.523932 35.320415 
L 33.699653 41.507836 
L 15.329841 35.776078 
L -0.55766 34.70191 
L -7.340788 36.177855 
L -14.304523 34.642991 
L -19.749974 35.395915 
L -38.396914 35.134479 
L -36.723486 26.087249 
L -41.20195 18.511522 
L -46.43008 16.568072 
L -48.758431 11.433501 
z
" clip-path="url(#p46607d4b11)" style="fill: #e8edf4; stroke: #b8c5d4; stroke-width: 0.45"/>
    <path d="M 16.72318 -1.166063 
L 17.607267 -10.04897 
L 20.357232 -12.129208 
L 26.120078 -23.741947 
L 35.593955 -24.603236 
L 37.70617 -27.550684 
L 39.604024 -27.326849 
L 42.466498 -24.732029 
L 56.892562 -29.116044 
L 67.733724 -37.595398 
L 66.599156 -41.629153 
L 69.830543 -42.682596 
L 80.896131 -41.97053 
L 91.681038 -47.279194 
L 99.965277 -59.781645 
L 105.778456 -64.420582 
L 113.032347 -66.374395 
L 114.331534 -61.470765 
L 120.940568 -54.306586 
L 120.974321 -49.630935 
L 119.112588 -44.862316 
L 119.848636 -41.3011 
L 138.82363 -28.361935 
L 138.929033 -24.637581 
L 146.63533 -18.670145 
L 151.411054 -13.711741 
L 154.304321 -6.837717 
L 162.869833 -2.302703 
L 164.712617 1.329868 
L 160.929343 2.545561 
L 144.960125 1.07613 
L 140.701351 2.057922 
L 138.982919 4.844304 
L 135.27248 5.188049 
L 130.751974 2.764066 
L 117.994601 8.483092 
L 112.772391 7.33224 
L 111.198445 8.215439 
L 107.77224 15.135354 
L 90.841363 11.770733 
L 83.543061 7.543639 
L 74.113595 3.649336 
L 67.977692 7.339346 
L 63.516401 13.157263 
L 62.486052 21.148682 
L 55.116099 20.509155 
L 47.360062 18.584061 
L 40.530746 24.656604 
L 34.523932 35.320415 
L 32.803724 26.77326 
L 27.563158 23.086211 
L 23.332807 17.172661 
L 22.355753 13.058669 
L 16.940501 7.074653 
L 17.86367 3.659995 
z
" clip-path="url(#p46607d4b11)" style="fill: #e8edf4; stroke: #b8c5d4; stroke-width: 0.45"/>
    <path d="M -21.84324 106.89796 
L -13.11903 100.573159 
L -17.43998 92.995952 
L -13.510444 90.114529 
L -5.778685 88.711124 
L -4.866767 83.632808 
L 1.256109 89.135698 
L 11.371882 89.617712 
L 14.887502 84.203053 
L 16.334135 76.584395 
L 15.084689 67.637535 
L 9.663516 60.86092 
L 14.624585 47.589557 
L 11.76448 45.312132 
L 3.238642 46.245959 
L 0.035679 40.325008 
L 0.86884 35.326633 
L 15.329841 35.776078 
L 33.699653 41.507836 
L 34.523932 35.320415 
L 40.530746 24.656604 
L 47.360062 18.584061 
L 55.116099 20.509155 
L 62.486052 21.148682 
L 61.806851 28.069189 
L 58.374725 34.196506 
L 56.135197 41.345586 
L 54.706921 51.500145 
L 55.306773 57.994301 
L 53.439118 61.970618 
L 53.1537 66.173137 
L 51.836749 69.828506 
L 44.29211 75.351529 
L 39.041478 81.254124 
L 34.065013 92.386033 
L 34.448729 101.813723 
L 18.134876 118.258441 
L 13.854193 116.228536 
L 13.119921 112.984714 
L 6.878022 112.871613 
L 2.959145 117.258292 
L -0.051368 116.091156 
L -4.345671 112.159843 
L -7.807998 114.087306 
L -12.433315 119.034755 
z
" clip-path="url(#p46607d4b11)" style="fill: #e8edf4; stroke: #b8c5d4; stroke-width: 0.45"/>
    <path d="M -48.150289 74.039315 
L -47.782561 70.232355 
L -45.280709 66.568696 
L -40.187589 49.730195 
L -19.651084 49.185413 
L -19.749974 35.395915 
L -14.304523 34.642991 
L -7.340788 36.177855 
L -0.55766 34.70191 
L 0.86884 35.326633 
L 0.035679 40.325008 
L 3.238642 46.245959 
L 11.76448 45.312132 
L 14.624585 47.589557 
L 9.663516 60.86092 
L 15.084689 67.637535 
L 16.334135 76.584395 
L 14.887502 84.203053 
L 11.371882 89.617712 
L 1.256109 89.135698 
L -4.866767 83.632808 
L -5.778685 88.711124 
L -13.510444 90.114529 
L -17.43998 92.995952 
L -13.11903 100.573159 
L -21.84324 106.89796 
L -33.618821 95.332001 
L -41.191883 85.876481 
z
" clip-path="url(#p46607d4b11)" style="fill: #e8edf4; stroke: #b8c5d4; stroke-width: 0.45"/>
    <path d="M 101.844775 245.56748 
L 102.372385 209.10676 
L 126.232652 209.251246 
L 125.256189 205.295655 
L 126.96337 201.00372 
L 124.949453 195.629327 
L 126.252785 190.071959 
L 125.041829 186.514296 
L 128.99446 186.802675 
L 129.651751 190.364483 
L 135.021999 190.087947 
L 142.297799 191.144943 
L 146.127261 196.347611 
L 155.303285 197.945835 
L 162.308471 194.328364 
L 164.879605 200.332809 
L 173.660662 201.933995 
L 182.589165 213.123343 
L 191.358971 213.218088 
L 190.400865 200.861603 
L 187.255933 202.945394 
L 176.148894 196.447093 
L 179.602931 171.378239 
L 177.03831 166.324793 
L 180.304041 159.009911 
L 183.375546 157.640258 
L 198.766822 155.706282 
L 203.280748 156.872216 
L 208.067602 159.789337 
L 219.91739 163.637005 
L 226.420429 167.077422 
L 231.829167 172.18949 
L 234.743159 181.916217 
L 232.790826 185.021475 
L 230.487345 194.3106 
L 232.688975 203.805203 
L 229.083348 207.793954 
L 225.604441 218.439113 
L 231.630203 221.40699 
L 196.857716 230.851852 
L 197.943727 239.007002 
L 189.264521 240.575619 
L 182.740164 245.140536 
L 181.346825 249.1133 
L 177.244972 250.014559 
L 167.279607 259.438695 
L 160.933488 266.854836 
L 157.064352 267.120714 
L 153.34207 265.800802 
L 140.534363 264.546026 
L 133.866706 260.155794 
L 126.435761 259.496134 
L 117.053075 262.100429 
L 109.57535 254.942467 
z
" clip-path="url(#p46607d4b11)" style="fill: #e8edf4; stroke: #b8c5d4; stroke-width: 0.45"/>
    <path d="M 225.604441 218.439113 
L 229.083348 207.793954 
L 232.688975 203.805203 
L 230.487345 194.3106 
L 232.790826 185.021475 
L 234.743159 181.916217 
L 231.829167 172.18949 
L 226.420429 167.077422 
L 237.654086 169.215088 
L 243.845093 177.727321 
L 247.053455 193.311635 
L 243.845163 202.020449 
L 247.053455 216.916684 
L 251.031548 216.749696 
L 255.16597 220.444147 
L 259.965973 228.731347 
L 260.940659 243.465332 
L 255.980774 245.878361 
L 252.482919 253.829217 
L 245.005786 246.750604 
L 244.157821 238.673027 
L 246.568481 233.345414 
L 245.903492 228.753849 
L 241.379432 225.854069 
L 238.226803 226.90692 
L 231.630203 221.40699 
z
" clip-path="url(#p46607d4b11)" style="fill: #e8edf4; stroke: #b8c5d4; stroke-width: 0.45"/>
    <path d="M 196.857716 230.851852 
L 231.630203 221.40699 
L 238.226803 226.90692 
L 241.379432 225.854069 
L 245.903492 228.753849 
L 246.568481 233.345414 
L 244.157821 238.673027 
L 245.005786 246.750604 
L 252.482919 253.829217 
L 255.980774 245.878361 
L 260.940659 243.465332 
L 259.965973 228.731347 
L 255.16597 220.444147 
L 251.031548 216.749696 
L 247.053455 216.916684 
L 243.845163 202.020449 
L 247.053455 193.311635 
L 255.675223 192.384914 
L 269.44518 195.613931 
L 272.436743 194.165522 
L 280.413721 193.870141 
L 284.497095 190.432819 
L 291.371471 190.620886 
L 303.901114 186.171145 
L 313.017673 179.527467 
L 314.871708 184.664998 
L 314.400353 196.081141 
L 315.816194 206.135922 
L 316.260902 224.043854 
L 318.276003 229.656293 
L 310.412786 245.801973 
L 303.116852 252.907825 
L 279.724387 262.825226 
L 266.777524 275.124272 
L 262.368343 277.216353 
L 254.36893 285.358475 
L 249.647684 288.007774 
L 248.679511 296.178319 
L 254.113712 304.856341 
L 256.374557 311.576701 
L 256.516882 315.004775 
L 258.541636 314.43183 
L 258.213788 325.670566 
L 256.355608 330.994034 
L 259.056424 332.955841 
L 257.352204 337.723276 
L 252.562267 341.799666 
L 229.329092 351.87458 
L 224.303478 356.111445 
L 225.285862 360.938687 
L 228.214657 361.709672 
L 227.231089 367.740764 
L 218.540039 367.644835 
L 214.88171 353.326543 
L 216.923458 340.551405 
L 208.453282 316.282551 
L 220.526125 303.276473 
L 223.547889 295.012367 
L 225.278756 293.969584 
L 226.573205 287.223761 
L 224.731605 283.829533 
L 225.223093 275.266389 
L 227.457292 267.325007 
L 227.431829 252.821963 
L 221.480086 249.139947 
L 216.023383 248.307378 
L 213.553508 245.472143 
L 208.243068 243.053785 
L 198.685104 243.281764 
z
" clip-path="url(#p46607d4b11)" style="fill: #e8edf4; stroke: #b8c5d4; stroke-width: 0.45"/>
    <path d="M 202.554241 363.797608 
L 205.683184 359.495607 
L 206.76505 356.158817 
L 210.077562 355.342236 
L 215.859949 357.440831 
L 218.540039 367.644835 
L 216.206951 372.733809 
L 209.500211 373.97082 
L 202.661421 367.759713 
z
" clip-path="url(#p46607d4b11)" style="fill: #e8edf4; stroke: #b8c5d4; stroke-width: 0.45"/>
    <path d="M -15.582984 252.360674 
L -13.996603 242.284576 
L -10.042788 231.79397 
L -9.446489 226.876128 
L -5.728352 216.546588 
L -2.996744 211.850804 
L 7.261738 199.254496 
L 8.464996 190.765964 
L 7.865144 184.271215 
L 4.438346 180.174691 
L -1.428127 166.347887 
L -0.812878 163.966243 
L 2.709256 159.423234 
L -3.113398 140.682142 
L -8.853742 133.432396 
L -7.764178 131.205304 
L 4.303927 128.502711 
L 38.118309 128.654303 
L 44.233487 144.064527 
L 51.255253 153.761647 
L 58.83246 152.834925 
L 62.613366 151.223081 
L 68.945272 152.841439 
L 73.537429 143.29828 
L 80.644465 142.850611 
L 81.262082 140.865117 
L 87.108422 140.82189 
L 86.110642 144.95039 
L 100.014426 144.850316 
L 100.224641 152.060387 
L 102.54707 156.481412 
L 100.858838 163.388892 
L 101.699697 170.436121 
L 105.522054 174.688381 
L 104.909174 188.324512 
L 119.823173 185.838648 
L 125.041829 186.514296 
L 126.252785 190.071959 
L 124.949453 195.629327 
L 126.96337 201.00372 
L 125.256189 205.295655 
L 126.232652 209.251246 
L 102.372385 209.10676 
L 101.844775 245.56748 
L 109.57535 254.942467 
L 117.053075 262.100429 
L 95.993106 266.770158 
L 68.251267 265.148247 
L 60.311662 259.657792 
L 13.861891 260.152241 
L 12.129247 260.957571 
L 5.298155 255.776221 
L -2.130422 255.433955 
L -14.504671 259.565416 
z
" clip-path="url(#p46607d4b11)" style="fill: #e8edf4; stroke: #b8c5d4; stroke-width: 0.45"/>
    <path d="M -12.433315 119.034755 
L -7.807998 114.087306 
L -4.345671 112.159843 
L -0.051368 116.091156 
L -4.221319 118.499448 
L -6.096079 121.445416 
L -6.454925 126.44083 
L -9.369509 127.651193 
z
" clip-path="url(#p46607d4b11)" style="fill: #e8edf4; stroke: #b8c5d4; stroke-width: 0.45"/>
    <path d="M 183.627804 93.839772 
L 190.586209 94.740439 
L 194.094724 88.216083 
L 200.182998 88.965126 
L 200.847457 93.477237 
L 203.315128 96.074852 
L 203.420893 99.79899 
L 191.976588 112.324462 
L 187.238169 112.869836 
L 186.509227 99.049546 
z
" clip-path="url(#p46607d4b11)" style="fill: #e8edf4; stroke: #b8c5d4; stroke-width: 0.45"/>
    <path d="M 346.679279 314.05842 
L 348.731686 305.797274 
L 354.007189 303.812965 
L 354.037981 299.998899 
L 359.514816 291.311995 
L 360.546941 284.013693 
L 355.717923 271.362315 
L 354.802452 260.803611 
L 358.806007 254.392948 
L 360.342056 247.124846 
L 366.053384 246.70264 
L 376.687884 242.280431 
L 381.721196 242.126471 
L 388.252066 235.596785 
L 397.682124 228.539489 
L 401.120765 222.774867 
L 399.560438 217.87775 
L 404.427947 219.255101 
L 410.744457 211.292402 
L 410.955856 204.402094 
L 414.750381 199.276406 
L 421.789912 209.070639 
L 424.626331 216.638964 
L 426.4703 230.424317 
L 429.439362 235.783906 
L 428.300057 241.279098 
L 426.273705 244.650233 
L 422.381474 237.935202 
L 420.227217 241.32647 
L 422.412858 249.815595 
L 421.395537 254.674221 
L 418.233433 257.321151 
L 417.511597 267.027153 
L 400.26747 317.886698 
L 395.878422 333.819794 
L 390.69944 347.10833 
L 381.380115 349.822173 
L 371.376852 354.668957 
L 355.680617 347.643638 
L 352.518513 341.59715 
L 351.762332 331.43815 
L 347.727392 322.302985 
z
" clip-path="url(#p46607d4b11)" style="fill: #e8edf4; stroke: #b8c5d4; stroke-width: 0.45"/>
    <path d="M 228.652673 -27.902044 
L 232.555798 -34.42914 
L 238.637029 -34.710799 
L 240.349903 -38.210343 
L 240.196813 -48.51211 
L 243.586695 -60.503949 
L 249.014769 -63.713354 
L 250.166158 -68.397632 
L 255.080416 -77.151075 
L 261.991728 -82.828036 
L 266.650797 -94.115612 
L 268.476083 -103.956274 
L 281.817205 -101.561252 
L 285.395815 -110.113362 
L 292.349984 -104.911486 
L 299.070048 -107.606273 
L 301.834046 -105.210334 
L 309.690716 -105.073286 
L 319.663958 -100.478846 
L 322.627225 -96.521978 
L 327.707637 -92.840925 
L 332.419416 -86.122924 
L 336.336178 -82.414943 
L 328.431839 -71.975554 
L 329.506797 -65.326077 
L 335.907387 -65.134599 
L 338.666572 -65.947149 
L 341.209549 -63.904815 
L 338.710459 -59.844949 
L 347.169753 -48.018232 
L 351.544297 -43.928556 
L 389.010156 -30.330296 
L 398.647996 -30.400424 
L 366.267247 3.992047 
L 351.339412 4.49704 
L 341.127253 12.575096 
L 333.78142 12.786627 
L 330.647106 16.398675 
L 322.817443 16.396634 
L 318.195845 12.524333 
L 307.727694 17.316783 
L 304.340955 22.092045 
L 296.699319 21.190459 
L 294.162665 19.868906 
L 287.8577 20.069036 
L 273.352793 10.337472 
L 265.377241 10.337472 
L 261.46253 6.566335 
L 261.46253 0.134847 
L 255.51032 -1.787586 
L 248.738266 -14.257375 
L 243.504993 -16.914118 
L 241.497167 -21.496297 
L 235.689689 -27.081244 
z
" clip-path="url(#p46607d4b11)" style="fill: #e8edf4; stroke: #b8c5d4; stroke-width: 0.45"/>
    <path d="M 189.982212 76.674994 
L 190.078141 68.036055 
L 192.732769 63.657665 
L 193.377625 54.459732 
L 195.788285 49.132119 
L 200.169635 43.156394 
L 204.571711 40.113017 
L 208.255503 36.044324 
L 203.662754 34.492584 
L 204.356081 21.093843 
L 209.073791 17.968679 
L 216.360382 20.53123 
L 225.584441 17.849277 
L 233.646684 17.875862 
L 240.693899 12.606093 
L 246.126901 20.561825 
L 252.507896 39.466237 
L 248.338122 47.818619 
L 239.417024 60.046699 
L 239.533242 72.190981 
L 203.622799 72.930653 
L 192.755863 77.843907 
z
" clip-path="url(#p46607d4b11)" style="fill: #e8edf4; stroke: #b8c5d4; stroke-width: 0.45"/>
    <path d="M 183.627804 93.839772 
L 184.688352 87.571226 
L 186.262298 86.687732 
L 186.686873 79.869075 
L 189.982212 76.674994 
L 192.755863 77.843907 
L 199.603536 74.306969 
L 204.153058 80.772702 
L 203.490437 87.51438 
L 200.182998 88.965126 
L 194.094724 88.216083 
L 190.586209 94.740439 
z
" clip-path="url(#p46607d4b11)" style="fill: #e8edf4; stroke: #b8c5d4; stroke-width: 0.45"/>
    <path d="M 124.752657 -37.46746 
L 132.205924 -40.880006 
L 135.156709 -51.109392 
L 138.304212 -56.420804 
L 146.566408 -57.994555 
L 154.435167 -48.158608 
L 157.58267 -47.175013 
L 161.713768 -49.142202 
L 169.975965 -48.748764 
L 171.549716 -46.388137 
L 182.959416 -46.388137 
L 183.352854 -48.748764 
L 189.254423 -50.912673 
L 190.434736 -54.256895 
L 194.762553 -56.617523 
L 204.401782 -49.929078 
L 210.303351 -51.109392 
L 216.008201 -59.371588 
L 222.303208 -65.666595 
L 221.319613 -72.551758 
L 218.565547 -75.895981 
L 225.450711 -76.486138 
L 226.237587 -79.043484 
L 231.548999 -78.256608 
L 230.171966 -69.797693 
L 231.548999 -61.535497 
L 237.450568 -57.010961 
L 238.8276 -53.076582 
L 238.630881 -47.371732 
L 240.217127 -47.145125 
L 240.349903 -38.210343 
L 238.637029 -34.710799 
L 232.555798 -34.42914 
L 228.652673 -27.902044 
L 235.689689 -27.081244 
L 241.497167 -21.496297 
L 243.504993 -16.914118 
L 248.738266 -14.257375 
L 255.51032 -1.787586 
L 240.693899 12.606093 
L 233.646684 17.875862 
L 225.584441 17.849277 
L 216.360382 20.53123 
L 209.073791 17.968679 
L 204.356081 21.093843 
L 194.268225 13.479099 
L 191.546684 8.584943 
L 185.165036 11.008927 
L 179.866439 10.254818 
L 176.79908 12.179024 
L 171.653851 10.789533 
L 162.869833 -2.302703 
L 154.304321 -6.837717 
L 151.411054 -13.711741 
L 146.63533 -18.670145 
L 138.929033 -24.637581 
L 138.82363 -28.361935 
z
" clip-path="url(#p46607d4b11)" style="fill: #e8edf4; stroke: #b8c5d4; stroke-width: 0.45"/>
   </g>
   <g id="PathCollection_1">
    <defs>
     <path id="m444978d432" d="M 0 2.12132 
C 0.562581 2.12132 1.102195 1.897805 1.5 1.5 
C 1.897805 1.102195 2.12132 0.562581 2.12132 0 
C 2.12132 -0.562581 1.897805 -1.102195 1.5 -1.5 
C 1.102195 -1.897805 0.562581 -2.12132 0 -2.12132 
C -0.562581 -2.12132 -1.102195 -1.897805 -1.5 -1.5 
C -1.897805 -1.102195 -2.12132 -0.562581 -2.12132 0 
C -2.12132 0.562581 -1.897805 1.102195 -1.5 1.5 
C -1.102195 1.897805 -0.562581 2.12132 0 2.12132 
z
" style="stroke: #ffffff; stroke-width: 0.5"/>
    </defs>
    <g clip-path="url(#p46607d4b11)">
     <use xlink:href="#m444978d432" x="194.801061" y="101.411141" style="fill: #8aa0b7; stroke: #ffffff; stroke-width: 0.5"/>
     <use xlink:href="#m444978d432" x="358.090186" y="200.721485" style="fill: #8aa0b7; stroke: #ffffff; stroke-width: 0.5"/>
     <use xlink:href="#m444978d432" x="177.612732" y="399.342175" style="fill: #8aa0b7; stroke: #ffffff; stroke-width: 0.5"/>
     <use xlink:href="#m444978d432" x="194.801061" y="84.222812" style="fill: #8aa0b7; stroke: #ffffff; stroke-width: 0.5"/>
     <use xlink:href="#m444978d432" x="211.98939" y="364.965517" style="fill: #8aa0b7; stroke: #ffffff; stroke-width: 0.5"/>
     <use xlink:href="#m444978d432" x="368.594164" y="208.360743" style="fill: #8aa0b7; stroke: #ffffff; stroke-width: 0.5"/>
    </g>
   </g>
   <g id="PatchCollection_2">
    <defs>
     <path id="m00e76998ae" d="M 225.604441 -213.560887 
L 229.083348 -224.206046 
L 232.688975 -228.194797 
L 230.487345 -237.6894 
L 232.790826 -246.978525 
L 234.743159 -250.083783 
L 231.829167 -259.81051 
L 226.420429 -264.922578 
L 237.654086 -262.784912 
L 243.845093 -254.272679 
L 247.053455 -238.688365 
L 243.845163 -229.979551 
L 247.053455 -215.083316 
L 251.031548 -215.250304 
L 255.16597 -211.555853 
L 259.965973 -203.268653 
L 260.940659 -188.534668 
L 255.980774 -186.121639 
L 252.482919 -178.170783 
L 245.005786 -185.249396 
L 244.157821 -193.326973 
L 246.568481 -198.654586 
L 245.903492 -203.246151 
L 241.379432 -206.145931 
L 238.226803 -205.09308 
L 231.630203 -210.59301 
z
" style="stroke: #b45309; stroke-width: 1.15"/>
    </defs>
    <g clip-path="url(#p46607d4b11)">
     <use xlink:href="#m00e76998ae" x="0" y="432" style="fill: #f59e0b; stroke: #b45309; stroke-width: 1.15"/>
    </g>
   </g>
   <g id="PathCollection_2">
    <defs>
     <path id="m89ae13d371" d="M 0 3.316625 
C 0.879579 3.316625 1.723251 2.967164 2.345208 2.345208 
C 2.967164 1.723251 3.316625 0.879579 3.316625 0 
C 3.316625 -0.879579 2.967164 -1.723251 2.345208 -2.345208 
C 1.723251 -2.967164 0.879579 -3.316625 0 -3.316625 
C -0.879579 -3.316625 -1.723251 -2.967164 -2.345208 -2.345208 
C -2.967164 -1.723251 -3.316625 -0.879579 -3.316625 0 
C -3.316625 0.879579 -2.967164 1.723251 -2.345208 2.345208 
C -1.723251 2.967164 -0.879579 3.316625 0 3.316625 
z
" style="stroke: #ffffff"/>
    </defs>
    <g clip-path="url(#p46607d4b11)">
     <use xlink:href="#m89ae13d371" x="240.636605" y="216" style="fill: #f97316; stroke: #ffffff"/>
    </g>
   </g>
   <g id="PathCollection_3">
    <path d="M 240.636605 220.449719 
C 241.816684 220.449719 242.948589 219.980869 243.783031 219.146427 
C 244.617473 218.311984 245.086324 217.180079 245.086324 216 
C 245.086324 214.819921 244.617473 213.688016 243.783031 212.853573 
C 242.948589 212.019131 241.816684 211.550281 240.636605 211.550281 
C 239.456525 211.550281 238.32462 212.019131 237.490178 212.853573 
C 236.655736 213.688016 236.186886 214.819921 236.186886 216 
C 236.186886 217.180079 236.655736 218.311984 237.490178 219.146427 
C 238.32462 219.980869 239.456525 220.449719 240.636605 220.449719 
L 240.636605 220.449719 
z
" clip-path="url(#p46607d4b11)" style="fill: none; stroke: #7c2d12; stroke-width: 1.1"/>
   </g>
  </g>
 </g>
 <defs>
  <clipPath id="p46607d4b11">
   <rect x="0" y="0" width="481.27321" height="432"/>
  </clipPath>
 </defs>
</svg>
