<?xml version="1.0" encoding="utf-8" standalone="no"?>
<!DOCTYPE svg PUBLIC "-//W3C//DTD SVG 1.1//EN"
  "http://www.w3.org/Graphics/SVG/1.1/DTD/svg11.dtd">
<svg xmlns:xlink="http://www.w3.org/1999/xlink" width="576pt" height="422.4pt" viewBox="0 0 576 422.4" xmlns="http://www.w3.org/2000/svg" version="1.1">
 <metadata>
  <rdf:RDF xmlns:dc="http://purl.org/dc/elements/1.1/" xmlns:cc="http://creativecommons.org/ns#" xmlns:rdf="http://www.w3.org/1999/02/22-rdf-syntax-ns#">
   <cc:Work>
    <dc:type rdf:resource="http://purl.org/dc/dcmitype/StillImage"/>
    <dc:date>2026-06-09T04:56:57.145243</dc:date>
    <dc:format>image/svg+xml</dc:format>
    <dc:creator>
     <cc:Agent>
      <dc:title>Matplotlib v3.10.8, https://matplotlib.org/</dc:title>
     </cc:Agent>
    </dc:creator>
   </cc:Work>
  </rdf:RDF>
 </metadata>
 <defs>
  <style type="text/css">*{stroke-linejoin: round; stroke-linecap: butt}</style>
 </defs>
 <g id="figure_1">
  <g id="patch_1">
   <path d="M 0 422.4 
L 576 422.4 
L 576 0 
L 0 0 
z
" style="fill: #eaf3ff"/>
  </g>
  <g id="axes_1">
   <g id="PatchCollection_1">
    <path d="M 466.333149 -47.510943 
L 474.560368 -53.604463 
L 468.86688 -71.511744 
L 482.528626 -82.575842 
L 479.637504 -85.927104 
L 501.45984 -96.53856 
L 481.344 -105.667584 
L 540.287829 -141.267701 
L 547.508969 -151.0596 
L 519.088751 -164.214022 
L 526.937946 -176.725506 
L 509.653048 -191.014494 
L 522.57888 -207.474816 
L 500.248102 -229.330295 
L 517.966587 -243.807303 
L 488.562118 -256.600568 
L 491.365048 -270.043717 
L 506.87136 -271.812864 
L 539.540736 -279.515712 
L 559.348224 -286.19424 
L 590.889024 -274.587264 
L 643.468032 -270.017664 
L 716.012928 -248.30208 
L 730.749504 -239.176896 
L 732.01824 -226.398336 
L 710.703936 -216.310656 
L 679.35264 -211.190976 
L 593.639232 -225.784512 
L 579.541248 -223.344576 
L 610.843584 -209.28288 
L 613.323072 -180.755904 
L 653.044416 -169.916736 
L 655.525824 -179.226432 
L 643.959917 -187.477632 
L 656.179968 -194.749824 
L 702.59424 -182.799168 
L 718.76352 -187.477632 
L 705.84192 -201.538944 
L 750.587328 -220.343616 
L 768.307968 -219.236736 
L 786.2352 -212.526336 
L 797.419392 -225.721728 
L 781.409088 -237.16704 
L 790.80864 -248.649792 
L 776.694144 -260.559168 
L 830.4 -254.4 
L 841.369728 -243.647424 
L 817.059264 -241.277184 
L 817.190784 -230.59296 
L 832.30368 -224.019264 
L 861.967872 -228.18336 
L 866.664192 -240.429696 
L 973.774656 -266.061696 
L 988.256832 -265.11648 
L 969.327744 -253.465152 
L 993.144576 -251.462784 
L 1006.899456 -258.022272 
L 1042.886784 -258.552576 
L 1071.3984 -266.511744 
L 1093.275264 -254.946048 
L 1115.094528 -267.661248 
L 1094.976 -278.784 
L 1104.96 -285.12 
L 1161.6768 -279.309888 
L 1188.251808 -273.308832 
L 1257.833472 -251.372736 
L 1270.669056 -261.420096 
L 1251.157248 -271.571712 
L 1250.596224 -275.644608 
L 1227.457536 -277.528512 
L 1233.787392 -286.631616 
L 1223.518464 -301.610688 
L 1222.937472 -307.756224 
L 1258.369152 -325.1424 
L 1270.970112 -342.592512 
L 1285.248 -346.368 
L 1336.080768 -341.304768 
L 1340.083776 -330.625152 
L 1321.883712 -315.052416 
L 1333.826112 -308.931648 
L 1340.004096 -295.509888 
L 1335.64224 -269.20032 
L 1356.823104 -257.43168 
L 1348.58304 -244.61568 
L 1310.976 -217.344 
L 1332.921792 -214.515264 
L 1340.558784 -221.427264 
L 1361.683008 -226.357632 
L 1366.780992 -235.858368 
L 1383.3984 -245.001024 
L 1372.209792 -255.916608 
L 1381.168128 -268.592256 
L 1360.173312 -270.172032 
L 1355.555904 -280.850496 
L 1370.87616 -300.1296 
L 1345.94112 -315.785664 
L 1380.303744 -328.726848 
L 1375.857792 -342.379584 
L 1385.433792 -342.815424 
L 1395.523392 -332.170752 
L 1387.948416 -313.642752 
L 1408.494912 -310.135104 
L 1399.740096 -323.980992 
L 1431.87168 -331.529664 
L 1471.718784 -332.546112 
L 1507.2 -321.6 
L 1490.125632 -337.59072 
L 1488.212928 -358.04544 
L 1521.6 -361.92 
L 1567.780992 -361.073472 
L 1609.38816 -363.588096 
L 1593.783552 -373.625664 
L 1616.002944 -386.235456 
L 1638.061632 -386.763456 
L 1675.392 -396.288 
L 1726.091136 -398.847936 
L 1732.496832 -404.10624 
L 1782.912 -405.888 
L 1798.621632 -401.577216 
L 1841.712768 -411.780288 
L 1876.985664 -411.461376 
L 1882.278144 -419.748288 
L 1900.624128 -427.920768 
L 1945.95072 -435.800064 
L 1978.879488 -429.578688 
L 1952.736 -424.84608 
L 1996.226496 -421.904448 
L 2001.408 -412.416 
L 2018.95296 -417.08832 
L 2075.083392 -416.832 
L 2118.364992 -407.467008 
L 2133.776064 -400.274688 
L 2128.999488 -390.293568 
L 2057.304 -373.953216 
L 2042.88 -368.256 
L 2095.088448 -360.724608 
L 2112.375168 -364.357056 
L 2122.167936 -352.03296 
L 2130.601152 -357.021696 
L 2161.302144 -360.05472 
L 2222.905536 -356.884224 
L 2227.584 -347.904 
L 2307.852672 -345.047424 
L 2308.949184 -359.712576 
L 2349.696 -356.352 
L 2380.347648 -356.457408 
L 2411.352192 -346.343232 
L 2420.190144 -334.055424 
L 2408.832 -326.016 
L 2432.947008 -310.906368 
L 2463.140736 -303.110208 
L 2481.6672 -323.25696 
L 2512.467072 -314.619264 
L 2545.189056 -319.7808 
L 2582.35296 -313.874496 
L 2596.494528 -319.258176 
L 2627.900736 -316.566336 
L 2614.039872 -334.390848 
L 2639.388864 -342.708672 
L 2812.8 -330.24 
L 2829.142656 -318.843456 
L 2879.40288 -304.170624 
L 2956.932096 -307.803072 
L 2995.157568 -304.641024 
L 3011.141952 -296.702208 
L 3008.806272 -282.662016 
L 3032.458176 -277.195776 
L 3058.158144 -281.127168 
L 3092.207616 -281.630016 
L 3128.455104 -277.862208 
L 3164.844864 -279.987648 
L 3198.290496 -262.92096 
L 3222.084096 -269.061696 
L 3206.55744 -281.332992 
L 3215.10624 -289.862976 
L 3276.363072 -284.494656 
L 3316.301376 -285.6432 
L 3371.52 -276.48 
L 3398.4 -268.101818 
L 3398.4 -191.610407 
L 3373.57824 -183.070656 
L 3348.696576 -184.477632 
L 3366.0096 -174.257856 
L 3377.4384 -158.437824 
L 3386.310528 -153.266304 
L 3388.538112 -145.323648 
L 3383.5824 -140.23872 
L 3347.79456 -144.42048 
L 3294.130368 -129.96768 
L 3277.058496 -127.730112 
L 3219.8112 -102.454656 
L 3212.75232 -93.729984 
L 3185.288832 -107.01216 
L 3135.263616 -91.94016 
L 3126.528 -99.072 
L 3108.033408 -90.84672 
L 3082.354368 -93.479232 
L 3076.168512 -80.851392 
L 3053.132736 -62.270976 
L 3053.817024 -54.511104 
L 3075.684672 -50.208576 
L 3073.112448 -22.257408 
L 3055.287936 -21.546048 
L 3047.068032 -5.485056 
L 3055.055808 2.781312 
L 3021.480384 12.588864 
L 3014.817216 34.510656 
L 2986.194048 39.193344 
L 2980.438656 58.700352 
L 2952.763968 76.58784 
L 2945.664 63.36 
L 2926.726272 -7.315776 
L 2935.956864 -33.944064 
L 2952.15648 -45.40224 
L 2953.15872 -54.375168 
L 2982.995136 -58.6704 
L 3017.292288 -82.843584 
L 3050.343168 -102.5856 
L 3084.858048 -117.90528 
L 3100.29216 -144.971712 
L 3076.961664 -143.352384 
L 3065.431872 -127.536 
L 3016.732416 -106.449216 
L 3001.004544 -130.060032 
L 2951.437056 -123.540864 
L 2903.386752 -91.357056 
L 2919.24 -79.58304 
L 2846.702016 -72.593088 
L 2848.09248 -86.476032 
L 2818.247232 -89.390016 
L 2794.460352 -79.958016 
L 2735.754624 -83.258304 
L 2672.598144 -77.567616 
L 2536.822848 5.191872 
L 2567.072832 7.61184 
L 2576.513664 19.635456 
L 2595.16224 23.903808 
L 2607.448896 14.31264 
L 2628.508992 15.558144 
L 2656.229952 36.680256 
L 2656.881216 53.015616 
L 2641.870464 72.198336 
L 2640.251136 95.125824 
L 2631.589056 125.823168 
L 2602.650624 153.60672 
L 2596.218432 166.88736 
L 2531.892288 222.754368 
L 2506.307904 234.019776 
L 2494.200384 234.268992 
L 2482.138944 224.936448 
L 2456.368704 238.987392 
L 2453.376 245.376 
L 2450.688 242.016 
L 2450.570235 232.262119 
L 2460.378008 231.744197 
L 2463.140258 209.058822 
L 2458.083648 192.615168 
L 2474.562321 185.833697 
L 2497.864704 189.233472 
L 2510.777165 170.555002 
L 2517.35712 149.520384 
L 2524.815552 142.49376 
L 2534.90518 125.217986 
L 2503.17304 130.87792 
L 2486.528448 138.451968 
L 2457.355392 138.429504 
L 2449.580032 120.390002 
L 2426.838102 106.740478 
L 2393.42208 100.602816 
L 2386.319149 81.795892 
L 2360.569899 42.378267 
L 2343.709657 35.307939 
L 2314.972224 29.59104 
L 2289.51836 30.110861 
L 2265.659227 33.573099 
L 2249.800102 43.125385 
L 2260.335149 47.688455 
L 2260.57344 58.289088 
L 2249.895936 64.44384 
L 2232.564288 84.807936 
L 2232.738446 93.25665 
L 2205.681493 105.389119 
L 2182.632977 98.140197 
L 2159.725352 99.740596 
L 2149.672508 93.307252 
L 2138.159165 91.232588 
L 2110.036602 104.763545 
L 2084.759633 107.94301 
L 2067.110602 112.701541 
L 2042.927024 109.575158 
L 2025.123212 109.775084 
L 2013.468977 99.960861 
L 1994.66504 90.733517 
L 1975.422555 88.204432 
L 1932.989673 94.27265 
L 1905.713088 86.197248 
L 1902.052032 71.809728 
L 1862.049258 64.62708 
L 1840.540618 56.690572 
L 1820.654204 76.588892 
L 1828.449821 87.889908 
L 1809.787392 101.25984 
L 1782.029184 96.432768 
L 1762.866227 95.74208 
L 1750.033274 86.773697 
L 1730.000832 86.490432 
L 1713.306462 80.598322 
L 1684.102415 89.629213 
L 1647.466883 106.166002 
L 1619.71143 111.072369 
L 1609.523649 99.327846 
L 1584.792383 101.897115 
L 1576.618743 93.747783 
L 1563.194446 90.021127 
L 1553.954204 78.926486 
L 1543.353673 75.471689 
L 1515.762923 80.405838 
L 1489.31418 69.343939 
L 1479.082743 79.396783 
L 1436.177579 30.635232 
L 1411.683446 15.801533 
L 1418.709126 9.781932 
L 1370.588544 27.90048 
L 1352.173032 28.995642 
L 1353.763508 18.516158 
L 1329.10368 11.968217 
L 1309.058516 16.640924 
L 1303.013118 -3.258885 
L 1268.508805 -7.396803 
L 1251.246727 0.568478 
L 1203.203904 7.656 
L 1193.827844 12.398826 
L 1121.98272 19.08 
L 1113.178876 25.632127 
L 1127.039735 38.784068 
L 1108.607868 43.77626 
L 1112.203555 49.007072 
L 1093.776649 58.359928 
L 1124.889665 71.564951 
L 1120.078548 80.657853 
L 1093.109899 79.829873 
L 1087.531821 85.52751 
L 1062.975744 75.578112 
L 1032.537216 75.96384 
L 1012.165248 84.063168 
L 947.111493 63.001877 
L 917.119649 63.498963 
L 877.485727 84.381533 
L 875.094555 98.404615 
L 855.350024 87.269791 
L 840.030649 108.364689 
L 845.638493 112.280853 
L 834.555758 126.832275 
L 850.852608 139.85568 
L 865.0992 139.319616 
L 877.338883 152.147939 
L 875.3904 162.028032 
L 885.142272 165.132864 
L 876.391872 176.519232 
L 857.777472 179.683392 
L 838.694592 199.50336 
L 856.146048 217.724928 
L 854.256384 230.657664 
L 875.219904 253.269504 
L 863.755837 261.008271 
L 860.460782 265.89281 
L 851.967657 264.581139 
L 838.772555 252.918967 
L 821.30688 247.825152 
L 815.42936 239.946611 
L 797.52236 235.92974 
L 785.879232 238.944768 
L 782.515008 235.376064 
L 756.37248 226.17024 
L 711.877727 219.7804 
L 709.536165 222.048045 
L 685.056 205.824 
L 663.151104 198.581568 
L 646.568832 187.301952 
L 660.540864 184.233408 
L 676.47264 168.175296 
L 665.735424 160.577856 
L 694.035264 152.7408 
L 693.52704 148.543488 
L 676.29193 151.637955 
L 676.898157 143.109111 
L 686.794944 137.748096 
L 705.37493 136.340408 
L 708.395904 129.937728 
L 704.15328 119.350656 
L 711.951149 109.297346 
L 711.725568 103.65984 
L 683.423774 97.411932 
L 672.204118 97.619299 
L 660.354423 88.628096 
L 645.622423 91.668654 
L 621.23743 84.91781 
L 621.655872 81.140352 
L 614.825915 72.814611 
L 599.516462 71.884932 
L 597.925985 65.924861 
L 602.721227 62.037471 
L 590.451837 51.166568 
L 570.542602 53.021463 
L 564.711516 52.057057 
L 559.861248 56.424 
L 552.690624 55.647744 
L 547.968352 43.352596 
L 543.459852 36.979279 
L 547.154688 35.185344 
L 562.646774 35.851658 
L 570.117946 31.652721 
L 564.587493 26.533529 
L 551.640438 23.154635 
L 552.795344 19.686939 
L 544.981868 16.184517 
L 532.944649 3.613998 
L 537.059251 -1.565717 
L 535.179055 -10.578748 
L 516.408852 -15.157693 
L 506.33418 -12.86574 
L 503.606657 -17.632209 
L 483.392821 -22.447295 
L 477.221415 -33.779068 
L 475.584305 -43.089756 
z
" clip-path="url(#p155a06e023)" style="fill: #e8edf4; stroke: #b8c5d4; stroke-width: 0.45"/>
    <path d="M 930.350469 -326.685717 
L 949.982883 -330.805279 
L 949.32804 -341.274842 
L 987.41018 -357.648912 
L 969.759165 -359.996428 
L 1015.727212 -376.84774 
L 1010.53311 -385.563115 
L 1053.477962 -395.700295 
L 1116.864852 -408.036162 
L 1180.768673 -411.629865 
L 1213.650758 -418.747818 
L 1251.015548 -421.242178 
L 1264.362454 -413.660377 
L 1251.466993 -407.68592 
L 1124.803344 -389.008983 
L 1065.159977 -370.733881 
L 1006.451251 -333.528338 
L 1010.358485 -317.57942 
L 1047.085298 -301.832908 
L 1035.743602 -300.14867 
L 973.005602 -302.643029 
L 967.910719 -311.167904 
L 933.156376 -316.315373 
z
" clip-path="url(#p155a06e023)" style="fill: #e8edf4; stroke: #b8c5d4; stroke-width: 0.45"/>
    <path d="M -3513.6 -191.610407 
L -3513.6 -268.101818 
L -3466.56 -253.44 
L -3416.2224 -234.353088 
L -3417.8736 -222.41952 
L -3404.924736 -217.642752 
L -3409.378944 -231.594048 
L -3357.260352 -228.731136 
L -3319.671936 -210.763008 
L -3338.708544 -202.394688 
L -3370.1808 -200.407872 
L -3370.656 -181.647168 
L -3378.342336 -177.651648 
L -3396.323328 -178.22592 
L -3410.955264 -184.92 
L -3436.483776 -190.519296 
L -3440.777472 -198.848064 
L -3460.275072 -201.988608 
L -3482.110656 -199.497984 
L -3492.543744 -206.216448 
L -3488.373312 -213.352512 
L -3511.368384 -208.791552 
L -3502.707456 -199.758912 
z
" clip-path="url(#p155a06e023)" style="fill: #e8edf4; stroke: #b8c5d4; stroke-width: 0.45"/>
    <path d="M 2661.006258 58.83965 
L 2662.704883 32.602244 
L 2680.453133 23.766814 
L 2672.82718 14.870861 
L 2681.371899 12.175088 
L 2693.008274 43.3774 
L 2692.517141 62.272123 
L 2700.441743 81.646072 
L 2719.759633 115.653299 
L 2691.339415 109.314213 
L 2679.52643 137.05776 
L 2698.243055 156.734822 
L 2697.701321 170.152174 
L 2683.155852 158.577314 
L 2670.566977 173.438299 
L 2667.012962 157.326166 
L 2669.154102 138.621447 
L 2666.965337 117.90358 
L 2671.40736 103.388869 
L 2672.25568 77.715025 
z
" clip-path="url(#p155a06e023)" style="fill: #e8edf4; stroke: #b8c5d4; stroke-width: 0.45"/>
    <path d="M 565.520149 185.71265 
L 568.911446 182.031635 
L 587.292712 175.649885 
L 584.370971 173.339186 
L 589.429668 168.584202 
L 609.254734 173.459218 
L 611.746409 177.250897 
L 614.643052 177.835676 
L 614.799126 179.496596 
L 624.192165 184.128127 
L 643.775962 182.976197 
L 640.026485 189.82626 
L 619.007985 193.152072 
L 592.944212 204.259611 
L 582.267282 200.354361 
L 586.500946 191.3324 
z
" clip-path="url(#p155a06e023)" style="fill: #e8edf4; stroke: #b8c5d4; stroke-width: 0.45"/>
    <path d="M 803.461594 -491.32435 
L 840.943462 -494.820818 
L 870.114766 -495.05299 
L 874.037876 -489.879725 
L 885.06604 -494.476529 
L 903.16354 -497.6426 
L 931.640313 -493.434733 
L 924.214782 -490.507779 
L 881.172696 -486.519682 
L 878.494782 -483.36899 
L 856.053485 -480.195479 
L 835.254258 -484.747139 
L 846.191141 -490.740943 
z
" clip-path="url(#p155a06e023)" style="fill: #e8edf4; stroke: #b8c5d4; stroke-width: 0.45"/>
    <path d="M 1693.076544 -486.556032 
L 1742.931072 -499.67232 
L 1784.465184 -504.00768 
L 1821.76992 -494.34192 
L 1865.983776 -475.778592 
L 1861.243392 -458.514048 
L 1819.352448 -456.11904 
L 1765.873728 -461.659104 
L 1734.007296 -468.9888 
L 1719.27168 -482.760768 
z
" clip-path="url(#p155a06e023)" style="fill: #e8edf4; stroke: #b8c5d4; stroke-width: 0.45"/>
    <path d="M 2572.308288 -389.024064 
L 2582.625792 -402.224064 
L 2607.95664 -405.825792 
L 2658.655008 -404.983488 
L 2728.056672 -394.8024 
L 2712.96 -380.544 
L 2642.185152 -381.075456 
L 2610.344448 -376.540416 
z
" clip-path="url(#p155a06e023)" style="fill: #e8edf4; stroke: #b8c5d4; stroke-width: 0.45"/>
    <path d="M 319.88429 11.019189 
L 324.258844 2.569721 
L 350.754219 -3.657248 
L 370.861891 -0.293733 
L 379.349063 2.753771 
L 377.300196 8.011373 
L 378.837094 12.911291 
L 343.531094 13.199521 
z
" clip-path="url(#p155a06e023)" style="fill: #e8edf4; stroke: #b8c5d4; stroke-width: 0.45"/>
    <path d="M 2627.771904 -352.700736 
L 2645.984832 -360.289152 
L 2669.991744 -362.065536 
L 2697.270336 -354.7248 
L 2699.59392 -349.678848 
L 2670.482496 -349.544448 
z
" clip-path="url(#p155a06e023)" style="fill: #e8edf4; stroke: #b8c5d4; stroke-width: 0.45"/>
    <path d="M 1851.612288 -440.0832 
L 1886.68608 -465.292608 
L 1902.45792 -467.451072 
L 1916.886048 -466.200768 
L 1965.550656 -455.296128 
L 1959.849024 -447.492288 
z
" clip-path="url(#p155a06e023)" style="fill: #e8edf4; stroke: #b8c5d4; stroke-width: 0.45"/>
    <path d="M -3513.6 -303.978225 
L -3513.6 -317.101715 
L -3494.867136 -317.866176 
L -3467.096544 -312.374016 
L -3468.74064 -309.749184 
L -3488.520576 -305.145984 
z
" clip-path="url(#p155a06e023)" style="fill: #e8edf4; stroke: #b8c5d4; stroke-width: 0.45"/>
    <path d="M 2747.888448 -387.321216 
L 2752.482912 -393.538944 
L 2836.448064 -385.613952 
L 2814.25776 -378.027264 
L 2783.567328 -379.744416 
z
" clip-path="url(#p155a06e023)" style="fill: #e8edf4; stroke: #b8c5d4; stroke-width: 0.45"/>
    <path d="M 3373.92576 -309.09696 
L 3398.4 -317.101715 
L 3398.4 -303.978225 
L 3377.34576 -302.997888 
z
" clip-path="url(#p155a06e023)" style="fill: #e8edf4; stroke: #b8c5d4; stroke-width: 0.45"/>
    <path d="M -145.773117 121.264119 
L -120.879628 117.087506 
L -88.637007 122.027111 
L -94.723085 100.294236 
L -76.597804 108.530385 
L -31.895788 93.558275 
L -26.131179 77.825158 
L -9.339398 73.948682 
L -6.558296 80.700517 
L 2.36643 81.017025 
L 24.691641 97.776064 
L 34.545055 96.280838 
L 55.636977 106.700791 
L 61.177352 106.294986 
L 70.238008 111.3224 
L 97.906149 114.858557 
L 88.198587 128.006033 
L 85.761774 141.684826 
L 80.490282 144.964502 
L 71.742165 143.197416 
L 72.359305 148.076002 
L 58.317868 158.865049 
L 58.034102 167.558596 
L 67.201915 164.550283 
L 73.796985 172.969986 
L 73.005219 178.395267 
L 78.655727 185.604502 
L 71.999141 191.452455 
L 76.945196 206.308478 
L 87.352251 208.744299 
L 85.155548 217.078178 
L 67.761508 227.925267 
L 29.89368 222.726701 
L 1.927883 228.95615 
L -0.26882 240.518111 
L -22.52557 243.007014 
L -44.12946 234.3219 
L -51.109499 238.472717 
L -86.453202 229.746924 
L -94.105945 222.282201 
L -84.177124 210.765881 
L -80.520913 172.51358 
L -100.333906 152.364236 
L -114.494902 142.649728 
L -143.837855 135.264877 
z
" clip-path="url(#p155a06e023)" style="fill: #e8edf4; stroke: #b8c5d4; stroke-width: 0.45"/>
    <path d="M -1104.475281 1011.612502 
L -1099.578339 1003.53808 
L -1094.533066 986.495275 
L -1102.07121 975.117861 
L -1103.589753 961.982291 
L -1093.594456 945.474275 
L -1072.937113 952.130861 
L -1052.608183 968.337252 
L -1049.42971 976.200338 
L -1060.787281 993.770986 
L -1066.683355 1007.909658 
L -1074.041417 1015.202732 
L -1083.234531 1016.574928 
L -1085.852913 1011.169986 
L -1090.147597 1010.367307 
L -1096.0908 1015.573314 
z
" clip-path="url(#p155a06e023)" style="fill: #e8edf4; stroke: #b8c5d4; stroke-width: 0.45"/>
    <path d="M 106.448883 244.674881 
L 110.323376 237.54006 
L 122.688016 230.208291 
L 125.952313 246.672154 
L 119.611243 261.503869 
L 110.893883 257.59465 
z
" clip-path="url(#p155a06e023)" style="fill: #e8edf4; stroke: #b8c5d4; stroke-width: 0.45"/>
    <path d="M 86.870048 401.330373 
L 98.706844 390.621197 
L 103.226258 374.786381 
L 100.182227 356.483002 
L 104.082516 346.628596 
L 124.991876 338.880107 
L 138.432048 341.183967 
L 137.868485 350.898474 
L 154.154251 343.831619 
L 155.520493 347.520076 
L 145.920087 356.927998 
L 145.791102 365.809068 
L 152.438758 370.579506 
L 149.910665 387.196662 
L 137.27218 396.849158 
L 140.921446 407.31376 
L 150.851258 407.640189 
L 155.683212 416.767818 
L 162.984719 419.769682 
L 161.899266 434.51706 
L 152.539962 440.029158 
L 146.628508 446.180721 
L 133.444321 453.579463 
L 135.486243 461.532838 
L 133.824329 469.644963 
L 124.457087 474.094924 
L 116.267571 439.628314 
L 104.430774 431.87933 
L 104.265079 427.231924 
L 88.562719 415.792994 
z
" clip-path="url(#p155a06e023)" style="fill: #e8edf4; stroke: #b8c5d4; stroke-width: 0.45"/>
    <path d="M -224.340476 530.001713 
L -224.143031 502.247252 
L -193.137171 488.078814 
L -173.96414 485.151365 
L -158.248882 479.991494 
L -150.905206 470.377197 
L -128.456468 462.778529 
L -127.63196 448.563955 
L -116.524421 446.889639 
L -107.838812 439.788553 
L -82.711663 436.552533 
L -79.191382 429.090787 
L -84.250546 425.010912 
L -90.882327 404.741514 
L -92.025327 393.063963 
L -99.262343 380.766791 
L -80.805175 370.274904 
L -60.047124 366.937682 
L -47.92557 359.01556 
L -29.435163 353.171576 
L 34.862555 348.191291 
L 44.546305 351.042838 
L 62.626938 343.475424 
L 83.143391 343.327092 
L 90.951907 347.794416 
L 104.082516 346.628596 
L 100.182227 356.483002 
L 103.226258 374.786381 
L 98.706844 390.621197 
L 86.870048 401.330373 
L 88.562719 415.792994 
L 104.265079 427.231924 
L 104.430774 431.87933 
L 116.267571 439.628314 
L 124.457087 474.094924 
L 130.66818 491.046943 
L 131.711962 499.968197 
L 128.330587 515.631861 
L 129.717665 524.385435 
L 127.277876 534.893693 
L 128.952688 546.965639 
L 121.332688 554.988963 
L 132.685298 568.983271 
L 133.406618 577.21049 
L 140.23386 587.917185 
L 149.21018 584.399385 
L 164.364852 593.320142 
L 172.790508 605.343967 
L 106.999548 641.939314 
L 51.409266 679.656826 
L 24.334454 688.218908 
L 3.036157 690.098607 
L 2.815891 677.883291 
L -18.028976 669.269119 
L -22.594031 660.272459 
z
" clip-path="url(#p155a06e023)" style="fill: #e8edf4; stroke: #b8c5d4; stroke-width: 0.45"/>
    <path d="M 387.830282 48.250033 
L 399.344618 44.330892 
L 399.454751 36.677158 
L 394.128688 29.373666 
L 393.295251 20.880045 
L 411.853126 21.010517 
L 432.697993 13.777471 
L 437.153907 2.938318 
L 452.894962 -3.209772 
L 451.091165 -11.810053 
L 483.392821 -22.447295 
L 503.606657 -17.632209 
L 506.33418 -12.86574 
L 516.408852 -15.157693 
L 535.179055 -10.578748 
L 537.059251 -1.565717 
L 532.944649 3.613998 
L 544.981868 16.184517 
L 552.795344 19.686939 
L 551.640438 23.154635 
L 564.587493 26.533529 
L 570.117946 31.652721 
L 562.646774 35.851658 
L 547.154688 35.185344 
L 543.459852 36.979279 
L 547.968352 43.352596 
L 552.691055 55.647791 
L 536.208946 56.786814 
L 530.293524 61.002123 
L 529.058251 70.665533 
L 521.421383 68.810142 
L 504.094813 69.7299 
L 499.062438 65.240748 
L 491.858165 68.587892 
L 484.639008 65.81324 
L 469.518071 65.427775 
L 448.088805 60.820057 
L 428.693524 59.315404 
L 413.819641 59.741549 
L 403.297493 64.945076 
L 394.119758 65.693682 
L 393.753641 57.145986 
z
" clip-path="url(#p155a06e023)" style="fill: #e8edf4; stroke: #b8c5d4; stroke-width: 0.45"/>
    <path d="M 366.44368 126.292525 
L 370.192165 118.552471 
L 375.516243 113.55383 
L 379.707243 114.67401 
L 374.754243 106.045947 
L 392.188962 90.076689 
L 401.716938 87.842283 
L 403.775727 82.456193 
L 394.119758 65.693682 
L 403.297493 64.945076 
L 413.819641 59.741549 
L 428.693524 59.315404 
L 448.088805 60.820057 
L 469.518071 65.427775 
L 484.639008 65.81324 
L 491.858165 68.587892 
L 499.062438 65.240748 
L 504.094813 69.7299 
L 521.421383 68.810142 
L 529.058251 70.665533 
L 530.293524 61.002123 
L 536.208946 56.786814 
L 559.861248 56.424 
L 564.711516 52.057057 
L 570.542602 53.021463 
L 590.451837 51.166568 
L 602.721227 62.037471 
L 597.925985 65.924861 
L 599.516462 71.884932 
L 614.825915 72.814611 
L 621.655872 81.140352 
L 621.23743 84.91781 
L 645.622423 91.668654 
L 660.354423 88.628096 
L 672.204118 97.619299 
L 683.423774 97.411932 
L 711.725568 103.65984 
L 711.951149 109.297346 
L 704.15328 119.350656 
L 708.395904 129.937728 
L 705.37493 136.340408 
L 686.794944 137.748096 
L 676.898157 143.109111 
L 676.29193 151.637955 
L 660.962633 153.173365 
L 648.189212 159.384955 
L 630.214743 160.397482 
L 613.676962 167.554627 
L 614.643052 177.835676 
L 611.746409 177.250897 
L 609.254734 173.459218 
L 589.429668 168.584202 
L 584.370971 173.339186 
L 581.732493 171.25251 
L 551.887493 166.399721 
L 550.565899 159.240096 
L 532.775977 161.604478 
L 525.650087 172.177724 
L 510.783149 186.368486 
L 502.074719 183.073432 
L 493.051766 186.162607 
L 484.484227 182.624963 
L 489.317173 180.539385 
L 497.927376 167.830455 
L 496.569071 164.392525 
L 500.584454 162.860588 
L 502.476555 165.518162 
L 513.791462 166.080236 
L 518.873446 164.660416 
L 515.293633 162.713744 
L 516.649954 159.852275 
L 509.945743 154.971209 
L 507.170594 146.944412 
L 500.176665 143.803642 
L 501.555805 137.297373 
L 492.88111 132.131549 
L 484.983298 131.413205 
L 470.832719 125.431307 
L 458.070212 127.330353 
L 453.491266 130.162057 
L 445.391048 130.15908 
L 440.562071 134.646744 
L 426.388673 136.491717 
L 419.83329 139.439506 
L 410.919477 134.747947 
L 398.610399 134.67651 
L 386.730938 132.550252 
L 378.442204 136.661877 
L 377.103743 131.5154 
z
" clip-path="url(#p155a06e023)" style="fill: #e8edf4; stroke: #b8c5d4; stroke-width: 0.45"/>
    <path d="M 212.630805 38.75976 
L 217.983657 33.635111 
L 213.497977 23.865041 
L 226.615688 18.226439 
L 280.758368 2.85051 
L 299.920485 6.093971 
L 301.368087 10.776599 
L 343.531094 13.199521 
L 378.837094 12.911291 
L 388.684555 14.965119 
L 393.295251 20.880045 
L 394.128688 29.373666 
L 399.454751 36.677158 
L 399.344618 44.330892 
L 387.830282 48.250033 
L 393.753641 57.145986 
L 394.119758 65.693682 
L 403.775727 82.456193 
L 401.716938 87.842283 
L 392.188962 90.076689 
L 374.754243 106.045947 
L 379.707243 114.67401 
L 357.269915 106.173939 
L 343.448743 108.887572 
L 334.384118 106.916096 
L 323.040438 111.031193 
L 313.35768 104.225779 
L 305.463837 106.83176 
L 295.543946 96.21833 
L 281.269344 95.058463 
L 279.447688 89.046799 
L 266.280368 86.899705 
L 263.413938 91.857666 
L 252.984063 87.885939 
L 254.181633 82.603533 
L 239.826665 80.933185 
L 230.726321 74.751857 
L 222.85629 62.492389 
L 224.352508 55.87301 
L 219.601915 45.602877 
z
" clip-path="url(#p155a06e023)" style="fill: #e8edf4; stroke: #b8c5d4; stroke-width: 0.45"/>
    <path d="M 124.415415 151.626049 
L 127.35229 146.926057 
L 126.609141 143.518885 
L 132.404508 142.460221 
L 142.120008 147.792236 
L 144.854477 142.725135 
L 161.787149 143.543689 
L 175.514063 140.100799 
L 184.718587 140.690158 
L 190.706438 144.621205 
L 192.496344 141.358396 
L 189.774774 128.8484 
L 196.672462 126.410596 
L 203.442157 117.558299 
L 217.706837 123.738139 
L 228.50779 115.883486 
L 235.265579 114.449775 
L 250.169227 120.309139 
L 259.186227 119.312486 
L 268.037532 122.937939 
L 266.495673 125.375744 
L 268.409602 132.028857 
L 266.952079 139.87458 
L 256.139219 139.912283 
L 259.857938 144.073517 
L 253.484126 156.434189 
L 249.823946 159.674674 
L 233.032165 160.152908 
L 223.343454 164.509107 
L 180.028516 158.062865 
L 175.73929 151.384451 
L 156.764696 154.721674 
L 154.532274 158.373916 
L 133.103008 155.122021 
z
" clip-path="url(#p155a06e023)" style="fill: #e8edf4; stroke: #b8c5d4; stroke-width: 0.45"/>
    <path d="M 253.484126 156.434189 
L 259.857938 144.073517 
L 256.139219 139.912283 
L 266.952079 139.87458 
L 268.409602 132.028857 
L 285.256946 139.038166 
L 301.373048 136.685689 
L 302.918876 132.830049 
L 330.989844 128.110709 
L 335.492391 123.593279 
L 341.784844 122.422002 
L 362.346938 128.25656 
L 366.44368 126.292525 
L 377.103743 131.5154 
L 378.442204 136.661877 
L 366.71554 140.689166 
L 357.629087 153.710635 
L 346.021485 166.731111 
L 330.627696 170.352596 
L 318.644055 169.502787 
L 296.756399 177.417963 
L 280.897274 173.726033 
L 260.444321 163.127982 
L 256.713696 156.646517 
z
" clip-path="url(#p155a06e023)" style="fill: #e8edf4; stroke: #b8c5d4; stroke-width: 0.45"/>
    <path d="M 453.491266 130.162057 
L 458.070212 127.330353 
L 470.832719 125.431307 
L 484.983298 131.413205 
L 492.88111 132.131549 
L 501.555805 137.297373 
L 500.176665 143.803642 
L 507.170594 146.944412 
L 509.945743 154.971209 
L 516.649954 159.852275 
L 515.293633 162.713744 
L 518.873446 164.660416 
L 513.791462 166.080236 
L 502.476555 165.518162 
L 500.584454 162.860588 
L 496.569071 164.392525 
L 497.927376 167.830455 
L 489.317173 180.539385 
L 484.484227 182.624963 
L 481.045305 173.863947 
L 483.072344 165.665998 
L 482.45818 157.238853 
L 459.34418 132.033322 
z
" clip-path="url(#p155a06e023)" style="fill: #e8edf4; stroke: #b8c5d4; stroke-width: 0.45"/>
    <path d="M 330.627696 170.352596 
L 346.021485 166.731111 
L 357.629087 153.710635 
L 366.71554 140.689166 
L 386.730938 132.550252 
L 398.610399 134.67651 
L 410.919477 134.747947 
L 419.83329 139.439506 
L 426.388673 136.491717 
L 440.562071 134.646744 
L 445.391048 130.15908 
L 453.491266 130.162057 
L 459.34418 132.033322 
L 482.45818 157.238853 
L 483.072344 165.665998 
L 481.045305 173.863947 
L 484.484227 182.624963 
L 493.051766 186.162607 
L 502.074719 183.073432 
L 510.783149 186.368486 
L 511.229633 191.320494 
L 501.918946 195.451963 
L 496.086868 193.653623 
L 490.715165 216.816736 
L 479.426055 214.800611 
L 465.454071 207.821068 
L 442.851048 212.28492 
L 433.330016 217.181861 
L 405.13304 216.171814 
L 390.380204 213.177392 
L 382.940782 214.583322 
L 373.900962 203.34283 
L 378.34993 200.102346 
L 373.613227 197.71167 
L 367.585688 202.014291 
L 356.390837 196.436213 
L 354.883704 188.521533 
L 343.186805 184.005592 
L 341.033758 177.896197 
z
" clip-path="url(#p155a06e023)" style="fill: #e8edf4; stroke: #b8c5d4; stroke-width: 0.45"/>
    <path d="M 346.671368 -19.796666 
L 368.662212 -25.685795 
L 400.862665 -24.45449 
L 419.725141 -26.352545 
L 422.417938 -22.35899 
L 432.634493 -21.125701 
L 451.091165 -11.810053 
L 452.894962 -3.209772 
L 437.153907 2.938318 
L 432.697993 13.777471 
L 411.853126 21.010517 
L 393.295251 20.880045 
L 388.684555 14.965119 
L 378.837094 12.911291 
L 377.300196 8.011373 
L 379.349063 2.753771 
L 370.861891 -0.293733 
L 350.754219 -3.657248 
z
" clip-path="url(#p155a06e023)" style="fill: #e8edf4; stroke: #b8c5d4; stroke-width: 0.45"/>
    <path d="M 57.382235 60.448978 
L 68.916415 60.441041 
L 73.783094 53.213947 
L 78.567423 35.634369 
L 74.97868 29.142486 
L 78.728157 25.076502 
L 94.775798 24.032721 
L 98.336758 28.266385 
L 111.374102 18.800916 
L 106.984665 11.603588 
L 106.103602 0.715322 
L 120.615337 3.247385 
L 132.900602 0.3244 
L 133.23993 7.744474 
L 152.642157 12.218744 
L 152.437766 19.033088 
L 171.960048 15.427478 
L 182.754055 10.168885 
L 204.431368 17.750189 
L 213.497977 23.865041 
L 217.983657 33.635111 
L 212.630805 38.75976 
L 219.601915 45.602877 
L 224.352508 55.87301 
L 222.85629 62.492389 
L 230.726321 74.751857 
L 222.15779 76.755084 
L 217.094657 74.548459 
L 212.279571 78.203182 
L 198.492133 81.9219 
L 191.363266 86.705732 
L 177.410133 90.886314 
L 180.771665 96.592881 
L 182.803665 104.689627 
L 192.601516 109.304291 
L 203.442157 117.558299 
L 196.672462 126.410596 
L 189.774774 128.8484 
L 192.496344 141.358396 
L 190.706438 144.621205 
L 184.718587 140.690158 
L 175.514063 140.100799 
L 161.787149 143.543689 
L 144.854477 142.725135 
L 142.120008 147.792236 
L 132.404508 142.460221 
L 126.609141 143.518885 
L 106.034149 137.648111 
L 102.092188 141.819267 
L 85.761774 141.684826 
L 88.198587 128.006033 
L 97.906149 114.858557 
L 70.238008 111.3224 
L 61.177352 106.294986 
L 62.260821 97.877267 
L 58.427008 93.541408 
L 60.607837 80.568557 
z
" clip-path="url(#p155a06e023)" style="fill: #e8edf4; stroke: #b8c5d4; stroke-width: 0.45"/>
    <path d="M 372.106094 243.451017 
L 375.264227 240.741849 
L 373.182618 238.457834 
L 376.412188 232.348439 
L 383.731555 226.345705 
L 374.403008 218.057963 
L 372.680571 211.045182 
L 377.417274 206.689478 
L 382.940782 214.583322 
L 390.380204 213.177392 
L 405.13304 216.171814 
L 433.330016 217.181861 
L 442.851048 212.28492 
L 465.454071 207.821068 
L 479.426055 214.800611 
L 490.715165 216.816736 
L 480.750626 224.771103 
L 473.738837 238.504467 
L 479.937032 249.458713 
L 463.406196 246.88349 
L 443.847204 252.923432 
L 443.637852 262.485142 
L 426.186266 264.297869 
L 412.658782 257.589193 
L 397.287813 262.865646 
L 383.085641 262.310517 
L 381.722376 249.613494 
z
" clip-path="url(#p155a06e023)" style="fill: #e8edf4; stroke: #b8c5d4; stroke-width: 0.45"/>
    <path d="M 329.280305 295.200045 
L 338.208008 285.887869 
L 339.359938 279.648002 
L 345.599805 276.863924 
L 345.984774 271.819642 
L 358.543883 270.119529 
L 365.863251 265.922576 
L 376.268321 266.294646 
L 379.425984 262.94784 
L 397.287813 262.865646 
L 412.658782 257.589193 
L 426.186266 264.297869 
L 443.637852 262.485142 
L 443.847204 252.923432 
L 453.200555 258.0074 
L 447.25636 270.023783 
L 442.69329 272.17683 
L 420.97629 269.816416 
L 397.724376 274.807119 
L 411.033579 285.600135 
L 401.279383 288.729494 
L 390.585587 288.748842 
L 380.428563 278.860701 
L 376.824938 283.074025 
L 381.115157 294.541232 
L 390.720524 303.551783 
L 383.483508 307.758658 
L 394.176313 316.607978 
L 403.680477 322.176135 
L 403.968212 333.023721 
L 386.208055 327.935783 
L 391.871462 337.728178 
L 379.679462 339.743807 
L 386.961126 356.687889 
L 374.20854 356.927998 
L 358.464508 348.57626 
L 351.264204 333.216205 
L 347.904657 320.441791 
L 330.580071 300.667494 
z
" clip-path="url(#p155a06e023)" style="fill: #e8edf4; stroke: #b8c5d4; stroke-width: 0.45"/>
    <path d="M 393.887587 378.624162 
L 397.439618 370.463916 
L 407.935969 376.933971 
L 422.880298 375.840084 
L 437.16879 377.202853 
L 436.704446 380.544045 
L 447.168055 378.240185 
L 444.767954 383.904088 
L 417.119657 385.536236 
L 417.312141 382.368182 
z
" clip-path="url(#p155a06e023)" style="fill: #e8edf4; stroke: #b8c5d4; stroke-width: 0.45"/>
    <path d="M 444.879079 298.298646 
L 466.176383 279.935736 
L 495.743571 279.167783 
L 503.808071 264.576178 
L 540.40193 267.117666 
L 563.481204 254.663728 
L 585.855032 249.235967 
L 617.619915 248.827682 
L 651.13204 262.361119 
L 678.675165 269.787146 
L 701.042048 266.826955 
L 717.569907 268.537486 
L 740.238415 258.5154 
L 760.695337 257.603084 
L 779.188719 267.030849 
L 782.451032 273.788142 
L 780.603579 283.131572 
L 794.880165 287.903994 
L 802.444602 293.510349 
L 789.297126 298.979783 
L 795.29093 320.9994 
L 791.534508 326.94558 
L 802.0354 342.327611 
L 792.834274 345.570924 
L 786.091368 340.680432 
L 763.759212 338.202939 
L 755.512149 341.186447 
L 733.672118 344.172435 
L 723.326579 343.847494 
L 701.23354 351.051767 
L 685.437915 351.111795 
L 675.220368 347.49676 
L 654.081813 352.837705 
L 647.79829 349.103607 
L 646.759469 359.813775 
L 636.475446 368.226533 
L 629.416032 359.520088 
L 636.687774 352.308373 
L 624.977977 353.943498 
L 608.919423 349.525783 
L 595.716383 360.576767 
L 566.575837 362.734775 
L 551.032227 352.429916 
L 530.335196 351.784994 
L 525.909048 359.750771 
L 512.639532 362.028338 
L 494.071735 351.804838 
L 473.110782 352.150615 
L 461.736344 333.055471 
L 447.70979 322.403842 
L 457.050243 307.473404 
z
" clip-path="url(#p155a06e023)" style="fill: #e8edf4; stroke: #b8c5d4; stroke-width: 0.45"/>
    <path d="M 442.432344 276.139131 
L 442.69329 272.17683 
L 447.25636 270.023783 
L 453.200555 258.0074 
L 443.847204 252.923432 
L 463.406196 246.88349 
L 479.937032 249.458713 
L 482.218071 256.840588 
L 498.978102 263.041264 
L 495.483618 267.744728 
L 472.685133 268.803392 
L 448.473774 285.081717 
z
" clip-path="url(#p155a06e023)" style="fill: #e8edf4; stroke: #b8c5d4; stroke-width: 0.45"/>
    <path d="M 313.046133 245.841693 
L 321.370587 236.38565 
L 322.590977 239.998205 
L 327.75744 238.298304 
L 331.848087 243.451017 
L 336.44064 245.416896 
L 337.732751 252.37624 
L 335.292962 258.910291 
L 338.019493 267.144455 
L 345.984774 271.819642 
L 345.599805 276.863924 
L 339.359938 279.648002 
L 338.208008 285.887869 
L 329.280305 295.200045 
L 326.016008 293.856127 
L 325.632032 289.631889 
L 314.996774 283.18515 
L 313.32593 274.037182 
L 314.948157 260.936338 
L 317.568524 254.976267 
L 314.337962 251.951088 
z
" clip-path="url(#p155a06e023)" style="fill: #e8edf4; stroke: #b8c5d4; stroke-width: 0.45"/>
    <path d="M 204.61393 189.370846 
L 205.729149 182.393783 
L 219.10979 183.049619 
L 222.626102 179.809135 
L 229.15668 182.943455 
L 236.691352 183.315525 
L 236.619915 177.949775 
L 243.293368 175.984252 
L 245.159673 168.228322 
L 260.444321 163.127982 
L 280.897274 173.726033 
L 296.756399 177.417963 
L 303.932636 174.549651 
L 308.597165 181.986986 
L 314.697133 187.4589 
L 307.305304 194.683498 
L 298.621712 190.433478 
L 285.346243 190.699385 
L 268.841204 187.511486 
L 259.870837 187.937135 
L 255.70861 191.920767 
L 248.819852 187.511486 
L 244.800501 195.480736 
L 258.363704 210.408197 
L 274.509571 221.83026 
L 281.758493 229.851599 
L 298.752 237.12 
L 296.640313 240.384166 
L 278.59143 233.280103 
L 267.45611 226.368029 
L 249.895383 220.661463 
L 233.749516 206.530728 
L 237.624008 205.096025 
L 228.869938 197.021107 
L 228.510766 190.539642 
L 216.167954 187.511486 
L 210.28329 195.799228 
z
" clip-path="url(#p155a06e023)" style="fill: #e8edf4; stroke: #b8c5d4; stroke-width: 0.45"/>
    <path d="M 58.034102 167.558596 
L 58.317868 158.865049 
L 72.359305 148.076002 
L 71.742165 143.197416 
L 80.490282 144.964502 
L 85.761774 141.684826 
L 102.092188 141.819267 
L 106.034149 137.648111 
L 126.609141 143.518885 
L 127.35229 146.926057 
L 124.415415 151.626049 
L 133.103008 155.122021 
L 142.899868 155.643912 
L 141.37686 163.515432 
L 132.918462 166.753932 
L 118.711329 164.347877 
L 114.553071 172.090908 
L 105.407087 172.701103 
L 102.07929 169.658064 
L 91.315048 176.169791 
L 82.057938 177.082603 
L 73.796985 172.969986 
L 67.201915 164.550283 
z
" clip-path="url(#p155a06e023)" style="fill: #e8edf4; stroke: #b8c5d4; stroke-width: 0.45"/>
    <path d="M 51.341798 105.033916 
L 53.422415 94.265705 
L 58.427008 93.541408 
L 62.260821 97.877267 
L 61.177352 106.294986 
L 55.636977 106.700791 
z
" clip-path="url(#p155a06e023)" style="fill: #e8edf4; stroke: #b8c5d4; stroke-width: 0.45"/>
    <path d="M -9.339398 73.948682 
L 6.047446 70.161006 
L 20.103766 71.668635 
L 37.900633 67.679545 
L 50.053938 76.083869 
L 60.607837 80.568557 
L 58.427008 93.541408 
L 53.422415 94.265705 
L 51.341798 105.033916 
L 34.545055 96.280838 
L 24.691641 97.776064 
L 2.36643 81.017025 
L -6.558296 80.700517 
z
" clip-path="url(#p155a06e023)" style="fill: #e8edf4; stroke: #b8c5d4; stroke-width: 0.45"/>
    <path d="M 6.047446 70.161502 
L 15.94154 64.885545 
L 32.755149 36.637471 
L 59.024305 28.600256 
L 74.97868 29.142486 
L 78.567423 35.634369 
L 73.783094 53.213947 
L 68.916415 60.441041 
L 57.382235 60.448978 
L 60.607837 80.568557 
L 50.053938 76.083869 
L 37.900633 67.679545 
L 20.103766 71.668635 
z
" clip-path="url(#p155a06e023)" style="fill: #e8edf4; stroke: #b8c5d4; stroke-width: 0.45"/>
    <path d="M -237.943367 229.888807 
L -210.781242 216.031916 
L -187.286242 219.496139 
L -161.508218 219.374596 
L -141.078581 222.653775 
L -94.105945 222.282201 
L -86.453202 229.746924 
L -51.109499 238.472717 
L -44.12946 234.3219 
L -22.52557 243.007014 
L -0.26882 240.518111 
L 0.758094 251.671291 
L -17.43664 264.459099 
L -42.037929 268.517146 
L -43.750445 274.976287 
L -55.551523 285.620474 
L -62.951257 301.24842 
L -55.463218 312.220525 
L -66.568773 320.786576 
L -70.721077 333.266807 
L -85.216937 337.093178 
L -98.81189 351.856432 
L -141.482898 351.78549 
L -153.50821 358.565603 
L -160.841468 365.820478 
L -170.235499 364.227521 
L -177.344523 357.740599 
L -182.787663 346.696064 
L -200.711531 343.722478 
L -202.312425 337.365037 
L -195.196952 330.165228 
L -192.562199 324.94533 
L -199.18257 319.237275 
L -193.882304 306.622603 
L -201.573742 295.112236 
L -193.278558 293.531682 
L -192.507132 284.457135 
L -189.389183 281.64726 
L -189.141632 266.667213 
L -180.270484 261.469142 
L -185.637226 251.838971 
L -196.825132 251.167756 
L -200.112249 253.592166 
L -211.452952 253.614986 
L -216.266054 244.215002 
L -224.101359 247.013963 
L -231.068499 251.893045 
L -230.101117 238.218717 
z
" clip-path="url(#p155a06e023)" style="fill: #e8edf4; stroke: #b8c5d4; stroke-width: 0.45"/>
    <path d="M 71.999141 191.452455 
L 78.655727 185.604502 
L 73.005219 178.395267 
L 73.796985 172.969986 
L 82.057938 177.082603 
L 91.315048 176.169791 
L 102.07929 169.658064 
L 105.407087 172.701103 
L 114.553071 172.090908 
L 118.711329 164.347877 
L 132.918462 166.753932 
L 141.37686 163.515432 
L 142.899868 155.643912 
L 154.532274 158.373916 
L 156.764696 154.721674 
L 175.73929 151.384451 
L 180.028516 158.062865 
L 207.484329 163.021322 
L 205.403712 172.477861 
L 210.002501 180.652494 
L 194.718844 177.855517 
L 179.108758 184.669861 
L 180.170399 194.200814 
L 177.819907 199.670744 
L 184.113352 209.445775 
L 202.116594 219.115635 
L 211.772563 234.98865 
L 233.137337 250.461318 
L 248.182868 250.342752 
L 252.862024 254.586338 
L 247.475438 258.411221 
L 278.76804 271.158846 
L 295.232399 281.172002 
L 297.220743 284.757767 
L 293.632993 291.633131 
L 282.976899 282.668717 
L 266.296243 279.509096 
L 258.215868 291.928307 
L 272.092602 299.045764 
L 269.81454 309.064873 
L 261.793696 310.203408 
L 251.538446 326.670744 
L 243.534469 328.150096 
L 243.608883 322.279818 
L 247.52604 311.981904 
L 251.69918 307.880697 
L 238.34136 287.071549 
L 230.371118 284.679385 
L 224.702751 276.392635 
L 212.364899 272.902119 
L 204.057313 265.184885 
L 189.851173 263.940682 
L 157.284602 242.775834 
L 144.229399 231.71592 
L 138.240555 212.735869 
L 128.687774 210.503447 
L 113.067766 204.166346 
L 104.228368 206.76042 
L 93.134719 215.67076 
L 85.155548 217.078178 
L 87.352251 208.744299 
L 76.945196 206.308478 
z
" clip-path="url(#p155a06e023)" style="fill: #e8edf4; stroke: #b8c5d4; stroke-width: 0.45"/>
    <path d="M 181.075274 333.831361 
L 183.762118 323.973482 
L 206.230204 325.728662 
L 240.391219 321.961822 
L 233.476665 337.074326 
L 236.35004 343.022986 
L 232.319774 352.896244 
L 217.636391 345.664685 
L 207.873266 343.592998 
z
" clip-path="url(#p155a06e023)" style="fill: #e8edf4; stroke: #b8c5d4; stroke-width: 0.45"/>
    <path d="M 99.071969 269.759861 
L 109.631821 270.720299 
L 119.232227 264.768166 
L 130.751524 278.39983 
L 128.054758 303.794373 
L 119.324501 302.582912 
L 111.493165 308.992939 
L 104.223407 303.900537 
L 103.454462 280.736432 
z
" clip-path="url(#p155a06e023)" style="fill: #e8edf4; stroke: #b8c5d4; stroke-width: 0.45"/>
    <path d="M 97.727555 -29.568225 
L 106.434001 -40.512053 
L 123.349805 -41.70367 
L 130.090727 -47.000463 
L 145.53611 -52.416318 
L 144.885235 -42.542068 
L 139.200001 -36.288311 
L 141.50386 -30.911647 
L 151.913891 -28.005529 
L 147.221837 -20.762561 
L 141.50386 -22.848139 
L 127.679712 -9.02399 
L 132.900602 0.3244 
L 120.615337 3.247385 
L 106.103602 0.715322 
L 98.309969 -9.940276 
z
" clip-path="url(#p155a06e023)" style="fill: #e8edf4; stroke: #b8c5d4; stroke-width: 0.45"/>
    <path d="M 151.755141 -14.975131 
L 179.92136 -21.339022 
L 186.048118 -11.711826 
L 174.527829 3.839721 
L 154.436032 -7.005385 
z
" clip-path="url(#p155a06e023)" style="fill: #e8edf4; stroke: #b8c5d4; stroke-width: 0.45"/>
    <path d="M 205.403712 172.477861 
L 207.484329 163.021322 
L 223.343454 164.509107 
L 233.032165 160.152908 
L 249.823946 159.674674 
L 253.484126 156.434189 
L 256.713696 156.646517 
L 260.444321 163.127982 
L 245.159673 168.228322 
L 243.293368 175.984252 
L 236.619915 177.949775 
L 236.691352 183.315525 
L 229.15668 182.943455 
L 222.626102 179.809135 
L 219.10979 183.049619 
L 205.729149 182.393783 
L 210.002501 180.652494 
z
" clip-path="url(#p155a06e023)" style="fill: #e8edf4; stroke: #b8c5d4; stroke-width: 0.45"/>
    <path d="M 266.495673 125.375744 
L 270.75811 118.714197 
L 279.264133 119.039635 
L 285.820508 117.053275 
L 286.339423 115.267338 
L 290.015477 114.355517 
L 291.273571 109.986916 
L 295.679876 109.15199 
L 298.655446 105.695705 
L 304.380368 105.672389 
L 305.463837 106.83176 
L 313.35768 104.225779 
L 323.040438 111.031193 
L 334.384118 106.916096 
L 343.448743 108.887572 
L 357.269915 106.173939 
L 375.516243 113.55383 
L 370.192165 118.552471 
L 366.44368 126.292525 
L 362.346938 128.25656 
L 341.784844 122.422002 
L 335.492391 123.593279 
L 330.989844 128.110709 
L 302.918876 132.830049 
L 301.373048 136.685689 
L 285.256946 139.038166 
L 268.409602 132.028857 
z
" clip-path="url(#p155a06e023)" style="fill: #e8edf4; stroke: #b8c5d4; stroke-width: 0.45"/>
    <path d="M 177.410133 90.886314 
L 191.363266 86.705732 
L 198.492133 81.9219 
L 212.279571 78.203182 
L 217.094657 74.548459 
L 222.15779 76.755084 
L 230.726321 74.751857 
L 239.826665 80.933185 
L 254.181633 82.603533 
L 252.984063 87.885939 
L 263.413938 91.857666 
L 266.280368 86.899705 
L 279.447688 89.046799 
L 281.269344 95.058463 
L 295.543946 96.21833 
L 304.380368 105.672389 
L 298.655446 105.695705 
L 295.679876 109.15199 
L 291.273571 109.986916 
L 290.015477 114.355517 
L 286.339423 115.267338 
L 285.820508 117.053275 
L 279.264133 119.039635 
L 270.75811 118.714197 
L 268.037532 122.937939 
L 259.186227 119.312486 
L 250.169227 120.309139 
L 235.265579 114.449775 
L 228.50779 115.883486 
L 217.706837 123.738139 
L 203.442157 117.558299 
L 192.601516 109.304291 
L 182.803665 104.689627 
L 180.771665 96.592881 
z
" clip-path="url(#p155a06e023)" style="fill: #e8edf4; stroke: #b8c5d4; stroke-width: 0.45"/>
    <path d="M 570.85018 381.311502 
L 574.981649 376.575295 
L 588.810758 376.834256 
L 606.268298 371.105365 
L 593.295446 379.281486 
L 594.693438 382.876678 
L 585.135696 383.993385 
L 583.369602 380.875932 
L 574.45579 382.313611 
z
" clip-path="url(#p155a06e023)" style="fill: #e8edf4; stroke: #b8c5d4; stroke-width: 0.45"/>
    <path d="M 561.728008 382.017939 
L 574.45579 382.313611 
L 583.369602 380.875932 
L 585.135696 383.993385 
L 592.635641 382.202982 
L 595.293712 384.420521 
L 575.61268 392.220107 
L 566.213688 389.728228 
z
" clip-path="url(#p155a06e023)" style="fill: #e8edf4; stroke: #b8c5d4; stroke-width: 0.45"/>
    <path d="M 121.332688 554.988963 
L 128.952688 546.965639 
L 127.277876 534.893693 
L 129.717665 524.385435 
L 128.330587 515.631861 
L 131.711962 499.968197 
L 130.66818 491.046943 
L 124.457087 474.094924 
L 133.824329 469.644963 
L 135.486243 461.532838 
L 133.444321 453.579463 
L 146.628508 446.180721 
L 152.539962 440.029158 
L 161.899266 434.51706 
L 162.984719 419.769682 
L 185.535552 426.378624 
L 193.598592 424.726656 
L 209.638656 427.930368 
L 235.116096 436.510464 
L 244.107648 453.575808 
L 288.404928 465.339456 
L 308.859072 474.885312 
L 318.221568 469.904256 
L 327.42432 461.073408 
L 322.950336 446.365632 
L 328.972224 437.02656 
L 342.806784 428.02944 
L 356.025216 425.41056 
L 381.998592 429.339264 
L 388.54656 437.923392 
L 395.695296 438.004608 
L 401.808 441.279936 
L 420.885888 443.532288 
L 425.564544 449.87232 
L 418.615104 459.085632 
L 421.586304 467.29728 
L 416.641344 479.151552 
L 422.4 494.617833 
L 422.4 671.941632 
L 400.32 672 
L 400.083072 680.054976 
L 246.92832 606.533376 
L 213.962321 624.167252 
L 203.163352 613.622283 
L 172.790508 605.343967 
L 164.364852 593.320142 
L 149.21018 584.399385 
L 140.23386 587.917185 
L 133.406618 577.21049 
L 132.685298 568.983271 
z
" clip-path="url(#p155a06e023)" style="fill: #e8edf4; stroke: #b8c5d4; stroke-width: 0.45"/>
    <path d="M 244.800501 195.480736 
L 248.819852 187.511486 
L 255.70861 191.920767 
L 259.870837 187.937135 
L 268.841204 187.511486 
L 285.346243 190.699385 
L 298.621712 190.433478 
L 307.305216 194.683584 
L 314.266176 194.6304 
L 309.458112 203.077056 
L 318.715392 210.461376 
L 315.9168 219.49248 
L 307.80768 222.095424 
L 301.564416 226.557888 
L 298.752 237.12 
L 281.758493 229.851599 
L 274.509571 221.83026 
L 258.363704 210.408197 
z
" clip-path="url(#p155a06e023)" style="fill: #e8edf4; stroke: #b8c5d4; stroke-width: 0.45"/>
    <path d="M 335.292962 258.910291 
L 337.732734 252.376149 
L 340.172352 252.535488 
L 341.033472 248.604288 
L 363.207936 243.770112 
L 372.106094 243.451017 
L 381.722376 249.613494 
L 383.085641 262.310517 
L 379.425984 262.94784 
L 376.268321 266.294646 
L 365.863251 265.922576 
L 358.543883 270.119529 
L 345.984774 271.819642 
L 338.019493 267.144455 
z
" clip-path="url(#p155a06e023)" style="fill: #e8edf4; stroke: #b8c5d4; stroke-width: 0.45"/>
    <path d="M 303.932636 174.549651 
L 318.644055 169.502787 
L 330.627696 170.352596 
L 341.033758 177.896197 
L 343.186805 184.005592 
L 354.883704 188.521533 
L 356.390837 196.436213 
L 367.585688 202.014291 
L 373.613227 197.71167 
L 378.34993 200.102346 
L 373.900962 203.34283 
L 377.417274 206.689478 
L 372.680571 211.045182 
L 374.403008 218.057963 
L 383.731555 226.345705 
L 376.412188 232.348439 
L 373.182618 238.457834 
L 375.264227 240.741849 
L 372.106094 243.451017 
L 356.671411 244.891692 
L 356.031744 243.4512 
L 360.48096 236.49216 
L 357.753984 236.598336 
L 342.038016 225.17664 
L 338.593536 226.239168 
L 335.938368 232.613952 
L 331.345536 233.9952 
L 332.92416 232.348416 
L 319.296 226.295425 
L 311.395584 220.342272 
L 315.9168 219.49248 
L 318.715392 210.461376 
L 309.458112 203.077056 
L 314.266176 194.6304 
L 307.305216 194.683584 
L 314.697133 187.4589 
L 308.597165 181.986986 
z
" clip-path="url(#p155a06e023)" style="fill: #e8edf4; stroke: #b8c5d4; stroke-width: 0.45"/>
    <path d="M 296.640324 240.384149 
L 301.564416 226.557888 
L 311.395584 220.342272 
L 319.296 226.295425 
L 332.92416 232.348416 
L 327.75744 238.298304 
L 322.590977 239.998205 
L 321.370587 236.38565 
L 313.046133 245.841693 
L 314.337949 251.951027 
L 310.319232 250.463616 
L 304.937088 244.195008 
z
" clip-path="url(#p155a06e023)" style="fill: #e8edf4; stroke: #b8c5d4; stroke-width: 0.45"/>
    <path d="M 327.75744 238.298304 
L 331.345536 233.9952 
L 335.938368 232.613952 
L 338.593536 226.239168 
L 342.038016 225.17664 
L 357.753984 236.598336 
L 360.48096 236.49216 
L 356.031744 243.4512 
L 356.671411 244.891692 
L 341.033472 248.604288 
L 340.172352 252.535488 
L 337.732734 252.376149 
L 336.44064 245.416896 
L 331.848087 243.451017 
z
" clip-path="url(#p155a06e023)" style="fill: #e8edf4; stroke: #b8c5d4; stroke-width: 0.45"/>
   </g>
   <g id="PathCollection_1">
    <defs>
     <path id="mf275443876" d="M 0 2.12132 
C 0.562581 2.12132 1.102195 1.897805 1.5 1.5 
C 1.897805 1.102195 2.12132 0.562581 2.12132 0 
C 2.12132 -0.562581 1.897805 -1.102195 1.5 -1.5 
C 1.102195 -1.897805 0.562581 -2.12132 0 -2.12132 
C -0.562581 -2.12132 -1.102195 -1.897805 -1.5 -1.5 
C -1.897805 -1.102195 -2.12132 -0.562581 -2.12132 0 
C -2.12132 0.562581 -1.897805 1.102195 -1.5 1.5 
C -1.102195 1.897805 -0.562581 2.12132 0 2.12132 
z
" style="stroke: #ffffff; stroke-width: 0.5"/>
    </defs>
    <g clip-path="url(#p155a06e023)">
     <use xlink:href="#mf275443876" x="326.4" y="268.8" style="fill: #8aa0b7; stroke: #ffffff; stroke-width: 0.5"/>
     <use xlink:href="#mf275443876" x="576" y="384" style="fill: #8aa0b7; stroke: #ffffff; stroke-width: 0.5"/>
     <use xlink:href="#mf275443876" x="125.44" y="148.48" style="fill: #8aa0b7; stroke: #ffffff; stroke-width: 0.5"/>
     <use xlink:href="#mf275443876" x="60.8" y="100.8" style="fill: #8aa0b7; stroke: #ffffff; stroke-width: 0.5"/>
     <use xlink:href="#mf275443876" x="84.48" y="216.32" style="fill: #8aa0b7; stroke: #ffffff; stroke-width: 0.5"/>
     <use xlink:href="#mf275443876" x="314.38848" y="235.99296" style="fill: #8aa0b7; stroke: #ffffff; stroke-width: 0.5"/>
     <use xlink:href="#mf275443876" x="364.8" y="252.8" style="fill: #8aa0b7; stroke: #ffffff; stroke-width: 0.5"/>
     <use xlink:href="#mf275443876" x="222.4" y="368" style="fill: #8aa0b7; stroke: #ffffff; stroke-width: 0.5"/>
     <use xlink:href="#mf275443876" x="226.88" y="170.56" style="fill: #8aa0b7; stroke: #ffffff; stroke-width: 0.5"/>
     <use xlink:href="#mf275443876" x="180.8" y="215.68" style="fill: #8aa0b7; stroke: #ffffff; stroke-width: 0.5"/>
     <use xlink:href="#mf275443876" x="181.50528" y="251.46432" style="fill: #8aa0b7; stroke: #ffffff; stroke-width: 0.5"/>
     <use xlink:href="#mf275443876" x="343.7376" y="238.03008" style="fill: #8aa0b7; stroke: #ffffff; stroke-width: 0.5"/>
    </g>
   </g>
   <g id="PatchCollection_2">
    <defs>
     <path id="mc8d1765999" d="M 244.800501 -226.919264 
L 248.819852 -234.888514 
L 255.70861 -230.479233 
L 259.870837 -234.462865 
L 268.841204 -234.888514 
L 285.346243 -231.700615 
L 298.621712 -231.966522 
L 307.305216 -227.716416 
L 314.266176 -227.7696 
L 309.458112 -219.322944 
L 318.715392 -211.938624 
L 315.9168 -202.90752 
L 307.80768 -200.304576 
L 301.564416 -195.842112 
L 298.752 -185.28 
L 281.758493 -192.548401 
L 274.509571 -200.56974 
L 258.363704 -211.991803 
z
" style="stroke: #b45309; stroke-width: 1.15"/>
    </defs>
    <g clip-path="url(#p155a06e023)">
     <use xlink:href="#mc8d1765999" x="0" y="422.4" style="fill: #f59e0b; stroke: #b45309; stroke-width: 1.15"/>
    </g>
   </g>
   <g id="PathCollection_2">
    <defs>
     <path id="m7ec183f7a5" d="M 0 3.316625 
C 0.879579 3.316625 1.723251 2.967164 2.345208 2.345208 
C 2.967164 1.723251 3.316625 0.879579 3.316625 0 
C 3.316625 -0.879579 2.967164 -1.723251 2.345208 -2.345208 
C 1.723251 -2.967164 0.879579 -3.316625 0 -3.316625 
C -0.879579 -3.316625 -1.723251 -2.967164 -2.345208 -2.345208 
C -2.967164 -1.723251 -3.316625 -0.879579 -3.316625 0 
C -3.316625 0.879579 -2.967164 1.723251 -2.345208 2.345208 
C -1.723251 2.967164 -0.879579 3.316625 0 3.316625 
z
" style="stroke: #ffffff"/>
    </defs>
    <g clip-path="url(#p155a06e023)">
     <use xlink:href="#m7ec183f7a5" x="288" y="211.2" style="fill: #f97316; stroke: #ffffff"/>
    </g>
   </g>
   <g id="PathCollection_3">
    <path d="M 288 215.649719 
C 289.180079 215.649719 290.311984 215.180869 291.146427 214.346427 
C 291.980869 213.511984 292.449719 212.380079 292.449719 211.2 
C 292.449719 210.019921 291.980869 208.888016 291.146427 208.053573 
C 290.311984 207.219131 289.180079 206.750281 288 206.750281 
C 286.819921 206.750281 285.688016 207.219131 284.853573 208.053573 
C 284.019131 208.888016 283.550281 210.019921 283.550281 211.2 
C 283.550281 212.380079 284.019131 213.511984 284.853573 214.346427 
C 285.688016 215.180869 286.819921 215.649719 288 215.649719 
L 288 215.649719 
z
" clip-path="url(#p155a06e023)" style="fill: none; stroke: #7c2d12; stroke-width: 1.1"/>
   </g>
  </g>
 </g>
 <defs>
  <clipPath id="p155a06e023">
   <rect x="0" y="0" width="576" height="422.4"/>
  </clipPath>
 </defs>
</svg>
