<?xml version="1.0" encoding="utf-8" standalone="no"?>
<!DOCTYPE svg PUBLIC "-//W3C//DTD SVG 1.1//EN"
  "http://www.w3.org/Graphics/SVG/1.1/DTD/svg11.dtd">
<svg xmlns:xlink="http://www.w3.org/1999/xlink" width="562.235591pt" height="432pt" viewBox="0 0 562.235591 432" xmlns="http://www.w3.org/2000/svg" version="1.1">
 <metadata>
  <rdf:RDF xmlns:dc="http://purl.org/dc/elements/1.1/" xmlns:cc="http://creativecommons.org/ns#" xmlns:rdf="http://www.w3.org/1999/02/22-rdf-syntax-ns#">
   <cc:Work>
    <dc:type rdf:resource="http://purl.org/dc/dcmitype/StillImage"/>
    <dc:date>2026-06-09T04:57:16.007869</dc:date>
    <dc:format>image/svg+xml</dc:format>
    <dc:creator>
     <cc:Agent>
      <dc:title>Matplotlib v3.10.8, https://matplotlib.org/</dc:title>
     </cc:Agent>
    </dc:creator>
   </cc:Work>
  </rdf:RDF>
 </metadata>
 <defs>
  <style type="text/css">*{stroke-linejoin: round; stroke-linecap: butt}</style>
 </defs>
 <g id="figure_1">
  <g id="patch_1">
   <path d="M 0 432 
L 562.235591 432 
L 562.235591 0 
L 0 0 
z
" style="fill: #eaf3ff"/>
  </g>
  <g id="axes_1">
   <g id="PatchCollection_1">
    <path d="M 466.874577 -55.889729 
L 476.419778 -68.422399 
L 471.589923 -71.795265 
L 484.784007 -89.963621 
L 501.789335 -80.373556 
L 503.848774 -92.451184 
L 537.984193 -110.436669 
L 563.815201 -110.864793 
L 619.843903 -92.725382 
L 637.389622 -99.701072 
L 663.605345 -100.033287 
L 684.754702 -91.464192 
L 689.558921 -96.371382 
L 712.786148 -95.65827 
L 716.929808 -103.489693 
L 690.133171 -114.862754 
L 706.003672 -122.918067 
L 702.906822 -127.423197 
L 718.781595 -131.722811 
L 706.843683 -143.050154 
L 714.426151 -148.693289 
L 776.30404 -154.447569 
L 784.379338 -158.532412 
L 825.757072 -164.636666 
L 840.624343 -171.496906 
L 870.341795 -167.93305 
L 875.548502 -150.793987 
L 892.812755 -154.818439 
L 914.05147 -149.178908 
L 912.681644 -140.153266 
L 928.542331 -141.096494 
L 969.987036 -156.701416 
L 963.936045 -151.516927 
L 985.032052 -138.74114 
L 1021.984886 -96.744389 
L 1030.796893 -105.402579 
L 1053.576342 -95.875323 
L 1077.339365 -100.124945 
L 1086.469261 -97.14944 
L 1094.427584 -87.593984 
L 1105.989498 -84.384335 
L 1113.029191 -77.365578 
L 1134.329432 -79.578407 
L 1143.10384 -69.463228 
L 1130.516479 -58.453346 
L 1116.782327 -56.908339 
L 1115.992732 -40.326008 
L 1106.795328 -32.851355 
L 1073.990426 -38.29306 
L 1062.058497 -8.686698 
L 1053.594287 -5.005344 
L 1020.836385 1.601098 
L 1035.720747 30.327285 
L 1024.375886 34.631598 
L 1025.696149 44.058446 
L 1015.504061 41.632837 
L 1007.211614 35.689518 
L 955.257346 33.507879 
L 949.248227 35.328902 
L 925.698838 28.376372 
L 916.313435 31.80051 
L 913.741272 41.563192 
L 886.53702 35.866407 
L 875.650192 38.199726 
L 871.94662 45.444936 
L 862.465508 48.501622 
L 840.655107 60.0285 
L 833.419724 71.861303 
L 827.258497 71.966411 
L 822.726876 64.133706 
L 801.695815 63.597055 
L 798.332349 50.050474 
L 790.2749 49.934684 
L 791.508854 33.348508 
L 771.711747 21.270025 
L 743.351303 22.559951 
L 723.962665 24.967615 
L 708.170783 10.062744 
L 665.917242 -9.466465 
L 623.349231 0.305617 
L 623.998681 61.278691 
L 615.516526 62.085376 
L 603.942648 49.119027 
L 592.765277 44.48657 
L 573.994471 47.927372 
L 566.688162 53.429322 
L 565.760132 49.397179 
L 569.82432 42.505749 
L 566.671071 36.744446 
L 547.505468 31.110897 
L 540.045342 16.260289 
L 530.914591 12.076893 
L 530.36085 6.689024 
L 546.448403 8.259667 
L 547.083326 -3.83078 
L 561.14733 -6.516169 
L 575.591605 -4.046551 
L 578.567964 -20.179394 
L 575.622368 -30.404809 
L 559.074218 -29.604961 
L 545.01705 -33.640949 
L 525.870247 -26.369676 
L 510.44311 -22.902667 
L 502.044137 -25.576758 
L 503.722303 -34.086164 
L 493.180658 -45.134785 
L 480.910528 -44.67309 
z
" clip-path="url(#p1ee41f687a)" style="fill: #e8edf4; stroke: #b8c5d4; stroke-width: 0.45"/>
    <path d="M 61.244158 536.210036 
L 62.91069 530.136569 
L 67.193437 523.24323 
L 65.320035 516.394539 
L 70.756026 511.322843 
L 67.308034 507.459292 
L 71.680904 497.248598 
L 79.232058 485.07074 
L 93.491345 486.2263 
L 92.88132 413.645654 
L 111.898112 413.595383 
L 111.898112 380.572972 
L 308.122136 380.572972 
L 313.454941 396.797603 
L 309.828356 399.79746 
L 312.230921 416.821293 
L 318.301246 436.563534 
L 333.651931 446.746325 
L 325.283055 456.184729 
L 313.103544 458.903304 
L 307.895588 463.973181 
L 306.264444 474.964721 
L 299.142738 499.262724 
L 300.900385 505.883544 
L 298.266312 520.084623 
L 291.542801 536.373746 
L 281.569072 544.56618 
L 274.477297 557.198291 
L 272.815725 563.958181 
L 264.982461 568.58968 
L 260.090515 585.895126 
L 260.311441 600.761627 
L 260.119831 587.867825 
L 257.830716 587.540809 
L 258.114602 579.308129 
L 256.127403 573.630418 
L 247.610838 567.101051 
L 245.623639 555.17786 
L 247.610838 542.970782 
L 239.945929 541.83524 
L 238.810387 545.525752 
L 228.874393 546.377408 
L 232.848791 551.203462 
L 234.268218 561.139455 
L 225.183882 570.223792 
L 216.951202 582.146984 
L 208.434636 583.850297 
L 194.524246 574.198189 
L 188.278764 577.604815 
L 186.575451 582.430869 
L 178.058886 585.55361 
L 177.491115 588.960236 
L 161.025755 588.960236 
L 158.754671 585.55361 
L 146.831479 584.985839 
L 140.869883 587.824694 
L 136.327715 586.405267 
L 124.972294 572.210991 
L 113.049102 574.482075 
L 108.506934 582.146984 
L 104.248651 596.909031 
L 93.492827 601.833683 
L 104.743978 608.291815 
L 92.150635 601.063269 
L 86.415823 596.301349 
L 85.353631 591.162151 
L 88.040302 584.280548 
L 87.991594 577.533107 
L 78.454083 567.194466 
L 76.778562 556.11268 
L 70.70096 551.238593 
L 70.517903 541.632964 
L 67.05172 535.253078 
z
" clip-path="url(#p1ee41f687a)" style="fill: #e8edf4; stroke: #b8c5d4; stroke-width: 0.45"/>
    <path d="M -77.601848 506.792651 
L -70.461845 485.010383 
L -49.368731 469.417675 
L -48.497101 447.90978 
L -42.125657 414.353739 
L -38.528902 407.235855 
L -45.409651 401.56727 
L -45.675689 396.308127 
L -51.86313 392.007541 
L -55.924251 366.302937 
L -39.229988 357.261361 
L 92.677261 420.583145 
L 93.491345 486.2263 
L 79.232058 485.07074 
L 71.680904 497.248598 
L 67.308034 507.459292 
L 70.756026 511.322843 
L 65.320035 516.394539 
L 67.193437 523.24323 
L 62.91069 530.136569 
L 61.244158 536.210036 
L 67.05172 535.253078 
L 70.517903 541.632964 
L 70.70096 551.238593 
L 76.778562 556.11268 
L 76.579224 560.118028 
L 66.11112 562.937579 
L 57.72211 569.632039 
L 45.767108 587.67435 
L 30.203387 595.335293 
L 14.234615 594.30771 
L 9.571395 595.827935 
L 11.208692 601.649055 
L -4.43621 613.885628 
L -25.254492 620.212208 
L -29.385334 616.467618 
L -32.124132 616.144602 
L -35.172273 620.39807 
L -48.844044 621.640997 
L -46.253936 617.161503 
L -53.796098 598.917094 
L -60.998153 596.109933 
L -70.758699 586.458768 
L -67.166216 578.655544 
L -59.630036 580.316768 
L -54.964253 579.139213 
L -45.728394 579.301149 
L -54.729254 564.269806 
L -54.124241 553.28556 
L -55.228733 542.314096 
L -61.803129 531.725111 
L -60.149596 523.935987 
L -70.754426 523.55529 
L -70.717681 512.918415 
z
" clip-path="url(#p1ee41f687a)" style="fill: #e8edf4; stroke: #b8c5d4; stroke-width: 0.45"/>
    <path d="M 149.736316 -206.045922 
L 156.822155 -211.294073 
L 151.918537 -226.717037 
L 163.684958 -236.246188 
L 161.194928 -239.132522 
L 179.989803 -248.271827 
L 162.664678 -256.134361 
L 213.431097 -286.795594 
L 219.650433 -295.22904 
L 195.173015 -306.55852 
L 201.933274 -317.334258 
L 187.046348 -329.640903 
L 198.178951 -343.817647 
L 178.946172 -362.641066 
L 194.206531 -375.109646 
L 168.88141 -386.128074 
L 171.295483 -397.706224 
L 184.65057 -399.229933 
L 212.78765 -405.864148 
L 229.847201 -411.616149 
L 257.012275 -401.619434 
L 302.296879 -397.683785 
L 364.777459 -378.980853 
L 377.469597 -371.121626 
L 378.562318 -360.115865 
L 360.204996 -351.427671 
L 333.203135 -347.018256 
L 259.380941 -359.587198 
L 247.238802 -357.48576 
L 274.198494 -345.374874 
L 276.333997 -320.80551 
L 310.54471 -311.470084 
L 312.681867 -319.488225 
L 302.720524 -326.594717 
L 313.24526 -332.858022 
L 353.220376 -322.565307 
L 367.146455 -326.594717 
L 356.017498 -338.705272 
L 394.555275 -354.90113 
L 409.817491 -353.947809 
L 425.257638 -348.168358 
L 434.890222 -359.533124 
L 421.101063 -369.390602 
L 429.196594 -379.280326 
L 417.040234 -389.537488 
L 463.295356 -384.232795 
L 472.743229 -374.971948 
L 451.80541 -372.930537 
L 451.918684 -363.728559 
L 464.934934 -358.066847 
L 490.483746 -361.653248 
L 494.528535 -372.200623 
L 586.779324 -394.276638 
L 599.252355 -393.462554 
L 582.949342 -383.42764 
L 603.462012 -381.703066 
L 615.308646 -387.352541 
L 646.303371 -387.809275 
L 670.859507 -394.66425 
L 689.701344 -384.703088 
L 708.493573 -395.65428 
L 691.166134 -405.233948 
L 699.765031 -410.69094 
L 748.613382 -405.686878 
L 771.501579 -400.518362 
L 831.430023 -381.62551 
L 842.484898 -390.278977 
L 825.680006 -399.022237 
L 825.196815 -402.530091 
L 805.268209 -404.152637 
L 810.71991 -411.992847 
L 801.875613 -424.893838 
L 801.375223 -430.18679 
L 831.891387 -445.160943 
L 842.744187 -460.190162 
L 855.041272 -463.441868 
L 898.821896 -459.081069 
L 902.269558 -449.883061 
L 886.594429 -436.470765 
L 896.880033 -431.199145 
L 902.200932 -419.639416 
L 898.444206 -396.979833 
L 916.686601 -386.843883 
L 909.5897 -375.805876 
L 877.199969 -352.317657 
L 896.101172 -349.881358 
L 902.678667 -355.834441 
L 920.87228 -360.080808 
L 925.263009 -368.263485 
L 939.575047 -376.13776 
L 929.938659 -385.539001 
L 937.654185 -396.456127 
L 919.572027 -397.816738 
L 915.595203 -407.013754 
L 928.790045 -423.618225 
L 907.314299 -437.102288 
L 936.909719 -448.248112 
L 933.080564 -460.006774 
L 941.328064 -460.382149 
L 950.017911 -451.214236 
L 943.493829 -435.256667 
L 961.189863 -432.235643 
L 953.649622 -444.16066 
L 981.32352 -450.662088 
L 1015.642546 -451.537521 
L 1046.201373 -442.109988 
L 1031.49577 -455.88228 
L 1029.84842 -473.49927 
L 1058.603629 -476.836304 
L 1098.377828 -476.107217 
L 1134.21274 -478.272981 
L 1120.772994 -486.918015 
L 1139.90984 -497.778422 
L 1158.908277 -498.233172 
L 1191.059719 -506.436354 
L 1234.72525 -508.641145 
L 1240.24227 -513.169952 
L 1283.663228 -514.704525 
L 1297.193428 -510.991785 
L 1334.306434 -519.779362 
L 1364.685842 -519.504694 
L 1369.244084 -526.641944 
L 1385.044889 -533.680637 
L 1424.083221 -540.466821 
L 1452.443707 -535.10855 
L 1429.927164 -531.032508 
L 1467.384125 -528.498975 
L 1471.846788 -520.326881 
L 1486.957696 -524.350999 
L 1535.301027 -524.130239 
L 1572.578074 -516.064473 
L 1585.851133 -509.86996 
L 1581.737222 -501.273543 
L 1519.98821 -487.200125 
L 1507.565284 -482.293297 
L 1552.530737 -475.806751 
L 1567.419231 -478.935262 
L 1575.853427 -468.320915 
L 1583.116684 -472.617553 
L 1609.558458 -475.229798 
L 1662.615473 -472.499153 
L 1666.644884 -464.764775 
L 1735.777703 -462.304498 
L 1736.722093 -474.935121 
L 1771.816012 -472.040765 
L 1798.215288 -472.13155 
L 1824.918502 -463.420536 
L 1832.530345 -452.837443 
L 1822.747942 -445.913347 
L 1843.517421 -432.899908 
L 1869.522305 -426.185326 
L 1885.478551 -443.537074 
L 1912.005488 -436.097705 
L 1940.187877 -440.54317 
L 1972.19595 -435.456261 
L 1984.375626 -440.093051 
L 2011.42478 -437.774656 
L 1999.486865 -453.126333 
L 2021.319135 -460.290207 
L 2170.672554 -449.551342 
L 2184.747957 -439.735866 
L 2228.035467 -427.098629 
L 2294.808881 -430.227139 
L 2327.731248 -427.503769 
L 2341.498082 -420.666323 
L 2339.486436 -408.573958 
L 2359.857059 -403.866062 
L 2381.991612 -407.252043 
L 2411.317325 -407.68513 
L 2442.536117 -404.440038 
L 2473.877444 -406.270611 
L 2502.683089 -391.571623 
L 2523.175749 -396.860441 
L 2509.803141 -407.429313 
L 2517.165947 -414.775913 
L 2569.924481 -410.152352 
L 2604.322054 -411.141556 
L 2651.880075 -403.249587 
L 2675.030952 -396.033729 
L 2675.030952 -330.154143 
L 2653.652771 -322.799131 
L 2632.222996 -324.010914 
L 2647.134145 -315.20895 
L 2656.977402 -301.583667 
L 2664.61868 -297.129604 
L 2666.537226 -290.28885 
L 2662.269031 -285.909366 
L 2631.446118 -289.510981 
L 2585.22688 -277.06325 
L 2570.523427 -275.136105 
L 2521.218177 -253.36717 
L 2515.138591 -245.852891 
L 2491.485175 -257.292401 
L 2448.400069 -244.311373 
L 2440.876365 -250.453797 
L 2424.947569 -243.369629 
L 2402.83104 -245.636926 
L 2397.503362 -234.760975 
L 2377.663391 -218.758262 
L 2378.252746 -212.074934 
L 2397.086646 -208.369305 
L 2394.871272 -184.295866 
L 2379.519595 -183.683194 
L 2372.440057 -169.85038 
L 2379.31967 -162.730824 
L 2350.40224 -154.283895 
L 2344.663469 -135.403363 
L 2320.011257 -131.370315 
L 2315.054323 -114.569558 
L 2291.219007 -99.163641 
L 2285.104033 -110.556353 
L 2268.793579 -171.42712 
L 2276.74359 -194.361206 
L 2290.695797 -204.229763 
L 2291.558994 -211.957857 
L 2317.256137 -215.657202 
L 2346.795168 -236.476786 
L 2375.260826 -253.479947 
L 2404.987379 -266.674294 
L 2418.280282 -289.985739 
L 2398.186478 -288.591064 
L 2388.25624 -274.968922 
L 2346.312969 -256.807555 
L 2332.76706 -277.14279 
L 2290.07618 -271.528041 
L 2248.692003 -243.809165 
L 2262.345894 -233.668584 
L 2199.871268 -227.648364 
L 2201.068829 -239.605296 
L 2175.36408 -242.115016 
L 2154.877207 -233.991539 
L 2104.315856 -236.833971 
L 2049.921217 -231.932764 
L 1932.982332 -160.654686 
L 1959.035668 -158.570446 
L 1967.166752 -148.214893 
L 1983.228169 -144.538699 
L 1993.81027 -152.799263 
L 2011.948652 -151.72655 
L 2035.823821 -133.534756 
L 2036.384733 -119.465637 
L 2023.456457 -102.944179 
L 2022.061782 -83.197473 
L 2014.601411 -56.75884 
L 1989.677673 -32.829763 
L 1984.137833 -21.391576 
L 1928.7358 26.724877 
L 1906.700795 36.427409 
L 1896.272978 36.642051 
L 1885.884849 28.604232 
L 1863.689772 40.705857 
L 1861.112253 46.208159 
L 1858.797165 43.314299 
L 1858.695738 34.913596 
L 1867.142857 34.467527 
L 1869.521894 14.929345 
L 1865.166798 0.766955 
L 1879.359348 -5.073707 
L 1899.428939 -2.14559 
L 1910.550025 -18.232754 
L 1916.217128 -36.349192 
L 1922.640835 -42.400997 
L 1931.330707 -57.280064 
L 1904.000837 -52.405346 
L 1889.665387 -45.882062 
L 1864.539575 -45.90141 
L 1857.842908 -61.438251 
L 1838.256017 -73.194146 
L 1809.475875 -78.480316 
L 1803.358349 -94.678113 
L 1781.18135 -128.627243 
L 1766.660167 -134.716688 
L 1741.909543 -139.640469 
L 1719.986951 -139.192764 
L 1699.437849 -136.21085 
L 1685.778896 -127.983775 
L 1694.852392 -124.053749 
L 1695.057625 -114.923766 
L 1685.861435 -109.622876 
L 1670.934245 -92.083937 
L 1671.084242 -84.807332 
L 1647.78096 -74.358028 
L 1627.930017 -80.601291 
L 1608.200418 -79.222919 
L 1599.542228 -84.763751 
L 1589.626156 -86.550592 
L 1565.4051 -74.896815 
L 1543.634862 -72.158444 
L 1528.43432 -68.060075 
L 1507.605784 -70.752727 
L 1492.271935 -70.580538 
L 1482.234519 -79.033211 
L 1466.039293 -86.980425 
L 1449.466362 -89.158645 
L 1412.920288 -83.932284 
L 1389.427846 -90.887368 
L 1386.274696 -103.278875 
L 1351.821597 -109.465058 
L 1333.296899 -116.300516 
L 1316.169371 -99.162734 
L 1322.883485 -89.429534 
L 1306.810137 -77.914443 
L 1282.902887 -82.071844 
L 1266.398451 -82.666712 
L 1255.345842 -90.390891 
L 1238.092545 -90.634858 
L 1223.714222 -95.709542 
L 1198.561718 -87.931527 
L 1167.008717 -73.688924 
L 1143.10384 -69.463228 
L 1134.329432 -79.578407 
L 1113.029191 -77.365578 
L 1105.989498 -84.384335 
L 1094.427584 -87.593984 
L 1086.469261 -97.14944 
L 1077.339365 -100.124945 
L 1053.576342 -95.875323 
L 1030.796893 -105.402579 
L 1021.984886 -96.744389 
L 985.032052 -138.74114 
L 963.936045 -151.516927 
L 969.987036 -156.701416 
L 928.542331 -141.096494 
L 912.681644 -140.153266 
L 914.05147 -149.178908 
L 892.812755 -154.818439 
L 875.548502 -150.793987 
L 870.341795 -167.93305 
L 840.624343 -171.496906 
L 825.757072 -164.636666 
L 784.379338 -158.532412 
L 776.30404 -154.447569 
L 714.426151 -148.693289 
L 706.843683 -143.050154 
L 718.781595 -131.722811 
L 702.906822 -127.423197 
L 706.003672 -122.918067 
L 690.133171 -114.862754 
L 716.929808 -103.489693 
L 712.786148 -95.65827 
L 689.558921 -96.371382 
L 684.754702 -91.464192 
L 663.605345 -100.033287 
L 637.389622 -99.701072 
L 619.843903 -92.725382 
L 563.815201 -110.864793 
L 537.984193 -110.436669 
L 503.848774 -92.451184 
L 501.789335 -80.373556 
L 484.784007 -89.963621 
L 471.589923 -71.795265 
L 476.419778 -68.422399 
L 466.874577 -55.889729 
L 480.910528 -44.67309 
L 493.180658 -45.134785 
L 503.722303 -34.086164 
L 502.044137 -25.576758 
L 510.44311 -22.902667 
L 502.906672 -13.095955 
L 486.87469 -10.370766 
L 470.439221 6.699533 
L 485.469597 22.393182 
L 483.84209 33.531731 
L 501.897294 53.006579 
L 492.023662 59.67173 
L 489.185738 63.878626 
L 481.870883 62.748925 
L 470.506368 52.704673 
L 455.463745 48.317534 
L 450.401626 41.532001 
L 434.978905 38.0724 
L 424.951054 40.669146 
L 422.053556 37.595536 
L 399.53784 29.666857 
L 361.215944 24.163494 
L 359.199232 26.116543 
L 338.115255 12.143297 
L 319.249275 5.905623 
L 304.967498 -3.809146 
L 317.001159 -6.451984 
L 330.722684 -20.282318 
L 321.475066 -26.825748 
L 345.848806 -33.575552 
L 345.411089 -37.190561 
L 330.567045 -34.525397 
L 331.089168 -41.871015 
L 339.612952 -46.488284 
L 355.615295 -47.700681 
L 358.217162 -53.215103 
L 354.563127 -62.333406 
L 361.27918 -70.991998 
L 361.084894 -75.8474 
L 336.709472 -81.228522 
L 327.046344 -81.049924 
L 316.840583 -88.793757 
L 304.152386 -86.175022 
L 283.150379 -91.989306 
L 283.510769 -95.242709 
L 277.628347 -102.413401 
L 264.442809 -103.214104 
L 263.072983 -108.347321 
L 267.20297 -111.695405 
L 256.63574 -121.058163 
L 239.488558 -119.460602 
L 234.466432 -120.291214 
L 230.289052 -116.530106 
L 224.113225 -117.19867 
L 220.046085 -127.788085 
L 216.163059 -133.277217 
L 219.345302 -134.822276 
L 232.688136 -134.248401 
L 239.122815 -137.86481 
L 234.359614 -142.273805 
L 223.208734 -145.183938 
L 224.203417 -148.170552 
L 217.473922 -151.187075 
L 207.106653 -162.013658 
L 210.650427 -166.474779 
L 209.031076 -174.237413 
L 192.864905 -178.181111 
L 184.187915 -176.207125 
L 181.838787 -180.312331 
L 164.429262 -184.459409 
L 159.114028 -194.2191 
L 157.704039 -202.238095 
z
" clip-path="url(#p1ee41f687a)" style="fill: #e8edf4; stroke: #b8c5d4; stroke-width: 0.45"/>
    <path d="M 549.379472 -446.490152 
L 566.288238 -450.038198 
L 565.724242 -459.055295 
L 598.523162 -473.157754 
L 583.320911 -475.179593 
L 622.911707 -489.693085 
L 618.438195 -497.199357 
L 655.425211 -505.930183 
L 710.018296 -516.554668 
L 765.056596 -519.649808 
L 793.376876 -525.780272 
L 825.557964 -527.928583 
L 837.053224 -521.398622 
L 825.94678 -516.253015 
L 716.855464 -500.167171 
L 665.486555 -484.427416 
L 614.922621 -452.383481 
L 618.287796 -438.647192 
L 649.919416 -425.085229 
L 640.151179 -423.634649 
L 586.116963 -425.782961 
L 581.728905 -433.125161 
L 551.796109 -437.558509 
z
" clip-path="url(#p1ee41f687a)" style="fill: #e8edf4; stroke: #b8c5d4; stroke-width: 0.45"/>
    <path d="M -3278.051774 -330.154143 
L -3278.051774 -396.033729 
L -3237.537739 -383.405978 
L -3194.183587 -366.967036 
L -3195.605712 -356.689039 
L -3184.453273 -352.574962 
L -3188.289539 -364.590764 
L -3143.401476 -362.12503 
L -3111.027786 -346.649661 
L -3127.423402 -339.442297 
L -3154.529442 -337.731116 
L -3154.938716 -321.573127 
L -3161.558709 -318.131914 
L -3177.045158 -318.626516 
L -3189.647173 -324.391911 
L -3211.634057 -329.214404 
L -3215.332079 -336.387704 
L -3232.124733 -339.092553 
L -3250.931017 -336.947459 
L -3259.9167 -342.733855 
L -3256.324841 -348.879917 
L -3276.129755 -344.951709 
L -3268.670377 -337.172188 
z
" clip-path="url(#p1ee41f687a)" style="fill: #e8edf4; stroke: #b8c5d4; stroke-width: 0.45"/>
    <path d="M 2039.937499 -114.449584 
L 2041.40047 -137.047016 
L 2056.686466 -144.656687 
L 2050.118478 -152.318485 
L 2057.477769 -154.640267 
L 2067.499804 -127.766722 
L 2067.076807 -111.493306 
L 2073.90201 -94.807149 
L 2090.539887 -65.517821 
L 2066.062469 -70.977471 
L 2055.888326 -47.082849 
L 2072.008352 -30.135629 
L 2071.541773 -18.579697 
L 2059.01423 -28.54875 
L 2048.171838 -15.749464 
L 2045.110879 -29.626324 
L 2046.954974 -45.736095 
L 2045.069861 -63.579726 
L 2048.895633 -76.080779 
L 2049.626264 -98.192833 
z
" clip-path="url(#p1ee41f687a)" style="fill: #e8edf4; stroke: #b8c5d4; stroke-width: 0.45"/>
    <path d="M 235.162881 -5.17796 
L 238.083696 -8.348301 
L 253.914887 -13.844696 
L 251.398487 -15.834826 
L 255.755378 -19.930141 
L 272.830069 -15.731447 
L 274.976068 -12.465795 
L 277.470854 -11.962144 
L 277.605275 -10.531648 
L 285.695196 -6.542659 
L 302.562089 -7.534779 
L 299.332786 -1.635041 
L 281.23023 1.229374 
L 258.782342 10.795939 
L 249.586647 7.432473 
L 253.232965 -0.337851 
z
" clip-path="url(#p1ee41f687a)" style="fill: #e8edf4; stroke: #b8c5d4; stroke-width: 0.45"/>
    <path d="M 440.094176 -588.288098 
L 472.376099 -591.299494 
L 497.500404 -591.499456 
L 500.879251 -587.043889 
L 510.377453 -591.002969 
L 525.964246 -593.729803 
L 550.490373 -590.105703 
L 544.095003 -587.584812 
L 507.024242 -584.149992 
L 504.717841 -581.436403 
L 485.389875 -578.70316 
L 467.476172 -582.623358 
L 476.895757 -587.785629 
z
" clip-path="url(#p1ee41f687a)" style="fill: #e8edf4; stroke: #b8c5d4; stroke-width: 0.45"/>
    <path d="M 1206.290847 -584.1813 
L 1249.228944 -595.477935 
L 1285.000936 -599.211841 
L 1317.130302 -590.887034 
L 1355.21027 -574.899038 
L 1351.12753 -560.029643 
L 1315.048211 -557.9669 
L 1268.988714 -562.738378 
L 1241.543184 -569.051209 
L 1228.851873 -580.912561 
z
" clip-path="url(#p1ee41f687a)" style="fill: #e8edf4; stroke: #b8c5d4; stroke-width: 0.45"/>
    <path d="M 1963.544797 -500.18016 
L 1972.430931 -511.548895 
L 1994.247574 -514.650947 
L 2037.912443 -513.925498 
L 2097.685859 -505.156855 
L 2084.683582 -492.876555 
L 2023.727487 -493.334281 
L 1996.304116 -489.428397 
z
" clip-path="url(#p1ee41f687a)" style="fill: #e8edf4; stroke: #b8c5d4; stroke-width: 0.45"/>
    <path d="M 23.604636 -155.635805 
L 27.372299 -162.91306 
L 50.191911 -168.276148 
L 67.51 -165.37926 
L 74.819728 -162.754543 
L 73.055105 -158.226341 
L 74.378786 -154.006199 
L 43.970866 -153.757956 
z
" clip-path="url(#p1ee41f687a)" style="fill: #e8edf4; stroke: #b8c5d4; stroke-width: 0.45"/>
    <path d="M 2011.313821 -468.896049 
L 2027.000029 -475.431707 
L 2047.676408 -476.961649 
L 2071.17058 -470.63931 
L 2073.171808 -466.293394 
L 2048.099077 -466.17764 
z
" clip-path="url(#p1ee41f687a)" style="fill: #e8edf4; stroke: #b8c5d4; stroke-width: 0.45"/>
    <path d="M 1342.832571 -544.155748 
L 1373.040497 -565.867798 
L 1386.624274 -567.726814 
L 1399.050756 -566.649967 
L 1440.964014 -557.258152 
L 1436.053382 -550.536956 
z
" clip-path="url(#p1ee41f687a)" style="fill: #e8edf4; stroke: #b8c5d4; stroke-width: 0.45"/>
    <path d="M -3278.051774 -426.932921 
L -3278.051774 -438.235761 
L -3261.917762 -438.894166 
L -3237.999847 -434.163946 
L -3239.415854 -431.903262 
L -3256.451675 -427.938675 
z
" clip-path="url(#p1ee41f687a)" style="fill: #e8edf4; stroke: #b8c5d4; stroke-width: 0.45"/>
    <path d="M 2114.766328 -498.713552 
L 2118.723391 -504.068681 
L 2191.039869 -497.243141 
L 2171.928076 -490.708971 
L 2145.495397 -492.187899 
z
" clip-path="url(#p1ee41f687a)" style="fill: #e8edf4; stroke: #b8c5d4; stroke-width: 0.45"/>
    <path d="M 2653.952078 -431.341523 
L 2675.030952 -438.235761 
L 2675.030952 -426.932921 
L 2656.897614 -426.088589 
z
" clip-path="url(#p1ee41f687a)" style="fill: #e8edf4; stroke: #b8c5d4; stroke-width: 0.45"/>
    <path d="M 265.114477 228.118478 
L 269.925532 222.670364 
L 268.796686 221.732507 
L 273.170217 214.003628 
L 276.524283 201.527785 
L 278.889647 197.341397 
L 284.879966 197.200826 
L 286.402755 194.303084 
L 290.839522 194.085603 
L 291.092465 200.85398 
L 286.284828 208.694377 
L 280.303055 206.403785 
L 276.842171 217.415803 
L 280.99694 219.271862 
L 276.773808 221.546645 
L 276.061123 225.901376 
L 283.835719 223.658211 
L 284.221971 230.091181 
L 275.98165 256.528485 
z
" clip-path="url(#p1ee41f687a)" style="fill: #e8edf4; stroke: #b8c5d4; stroke-width: 0.45"/>
    <path d="M 279.345971 197.170062 
L 285.235454 183.70039 
L 293.771445 171.472363 
L 301.209354 172.315365 
L 303.91397 178.800035 
L 294.896873 185.032189 
L 290.839522 194.085603 
L 286.402755 194.303084 
L 284.879966 197.200826 
z
" clip-path="url(#p1ee41f687a)" style="fill: #e8edf4; stroke: #b8c5d4; stroke-width: 0.45"/>
    <path d="M 276.061123 225.901376 
L 276.773808 221.546645 
L 280.99694 219.271862 
L 276.842171 217.415803 
L 280.303055 206.403785 
L 286.284828 208.694377 
L 286.277992 218.806138 
L 283.835719 223.658211 
z
" clip-path="url(#p1ee41f687a)" style="fill: #e8edf4; stroke: #b8c5d4; stroke-width: 0.45"/>
    <path d="M 275.98165 256.528485 
L 284.221971 230.091181 
L 283.835719 223.658211 
L 286.277992 218.806138 
L 286.284828 208.694377 
L 289.166334 203.482115 
L 307.590197 210.034721 
L 339.972957 192.411134 
L 346.639216 212.547066 
L 343.487676 215.040611 
L 310.370013 223.338613 
L 326.851509 239.873518 
L 321.382458 242.68196 
L 318.661606 248.219801 
L 306.043482 250.509966 
L 302.086111 256.46354 
L 294.937891 261.552747 
L 276.534537 258.922476 
z
" clip-path="url(#p1ee41f687a)" style="fill: #e8edf4; stroke: #b8c5d4; stroke-width: 0.45"/>
    <path d="M 551.426093 343.440666 
L 554.368272 342.637399 
L 554.979267 347.172438 
L 567.922116 344.566094 
L 591.584304 345.48686 
L 625.695796 313.510434 
L 628.841354 319.146974 
L 631.087083 332.208604 
L 622.643382 332.273122 
L 621.28552 343.042023 
L 624.214025 345.341588 
L 616.729972 348.598237 
L 616.683826 355.357214 
L 611.865935 362.201217 
L 611.433538 368.859786 
L 608.100836 372.355278 
L 558.391442 364.01754 
z
" clip-path="url(#p1ee41f687a)" style="fill: #e8edf4; stroke: #b8c5d4; stroke-width: 0.45"/>
    <path d="M 537.608196 322.986418 
L 542.063763 314.311991 
L 546.580002 312.532841 
L 551.584183 317.716475 
L 551.875581 327.397549 
L 548.285662 337.125622 
L 543.701915 338.300613 
L 538.702861 335.01961 
z
" clip-path="url(#p1ee41f687a)" style="fill: #e8edf4; stroke: #b8c5d4; stroke-width: 0.45"/>
    <path d="M 468.56571 263.181072 
L 480.701874 247.305444 
L 491.812591 248.682107 
L 495.26322 255.980298 
L 493.787431 259.753515 
L 499.114628 272.226795 
L 487.419406 272.655774 
L 483.301382 264.776923 
z
" clip-path="url(#p1ee41f687a)" style="fill: #e8edf4; stroke: #b8c5d4; stroke-width: 0.45"/>
    <path d="M 339.972957 192.411134 
L 376.581412 175.201998 
L 382.828947 155.210483 
L 381.270268 143.130719 
L 390.321546 139.045595 
L 398.796865 128.726608 
L 405.899794 126.157009 
L 425.13376 128.290793 
L 430.941207 132.502816 
L 438.865841 129.709455 
L 449.580414 149.435508 
L 460.423661 154.399099 
L 461.671288 164.058381 
L 453.348077 169.765421 
L 449.515469 182.669388 
L 460.969711 198.387353 
L 481.231688 207.45145 
L 489.740334 220.018729 
L 487.029736 231.996376 
L 492.311642 231.991676 
L 492.474859 240.800265 
L 501.626118 249.493064 
L 480.701874 247.305444 
L 468.56571 263.181072 
L 437.821102 261.860381 
L 391.196594 228.603856 
L 366.557668 217.028697 
L 346.639216 212.547066 
z
" clip-path="url(#p1ee41f687a)" style="fill: #e8edf4; stroke: #b8c5d4; stroke-width: 0.45"/>
    <path d="M 558.379478 430.181939 
L 607.988037 413.645753 
L 619.012446 380.572953 
L 611.433538 368.859786 
L 611.865935 362.201217 
L 616.683826 355.357214 
L 616.729972 348.598237 
L 624.214025 345.341588 
L 621.28552 343.042023 
L 622.643382 332.273122 
L 631.087083 332.208604 
L 638.50021 343.503902 
L 647.73265 349.507893 
L 669.655851 354.682555 
L 681.576671 369.654507 
L 687.496064 371.748983 
L 687.464446 375.438028 
L 678.803692 389.934429 
L 671.837489 395.223599 
L 665.666862 406.551797 
L 658.164864 405.684439 
L 654.726198 409.627283 
L 652.070291 418.011166 
L 654.103239 429.064629 
L 652.543705 431.096296 
L 644.934889 431.042033 
L 634.606075 437.222059 
L 632.994414 445.2778 
L 629.213079 448.767737 
L 618.926992 448.634429 
L 612.452149 452.798598 
L 612.534185 459.47853 
L 604.53228 464.069969 
L 595.408366 462.510862 
L 584.349776 468.088866 
L 576.711051 469.025014 
z
" clip-path="url(#p1ee41f687a)" style="fill: #e8edf4; stroke: #b8c5d4; stroke-width: 0.45"/>
    <path d="M 625.695796 313.510434 
L 630.511124 307.880303 
L 632.556036 309.315929 
L 630.997356 316.147541 
L 628.841354 319.146974 
z
" clip-path="url(#p1ee41f687a)" style="fill: #e8edf4; stroke: #b8c5d4; stroke-width: 0.45"/>
    <path d="M 427.894776 92.375369 
L 439.218273 87.664722 
L 441.842563 93.902857 
L 450.193973 101.536455 
L 461.536271 103.734757 
L 467.524026 103.248524 
L 487.026318 91.048697 
L 493.227708 89.827133 
L 498.113108 94.680061 
L 492.411623 102.861418 
L 502.724201 111.520463 
L 506.839661 110.695833 
L 512.07115 122.889251 
L 527.750233 126.333898 
L 539.236093 134.631046 
L 562.745318 137.481788 
L 588.571199 133.106121 
L 590.155515 129.238477 
L 604.686098 126.038655 
L 616.447974 116.584889 
L 627.507419 117.064285 
L 634.766728 113.984099 
L 646.525186 115.50817 
L 664.80976 123.890771 
L 678.015807 125.698548 
L 696.914794 140.343212 
L 709.24152 140.93498 
L 710.692528 154.850722 
L 699.408339 187.48728 
L 706.606122 189.928271 
L 699.534811 198.982967 
L 704.951734 212.184742 
L 706.246361 222.682755 
L 718.770486 225.470261 
L 720.12493 236.113973 
L 705.126914 251.106007 
L 713.313399 259.803506 
L 719.970259 269.790504 
L 735.778377 277.06135 
L 736.234701 291.62526 
L 744.146879 294.302104 
L 745.514996 301.917329 
L 721.662246 310.459302 
L 715.430947 329.670195 
L 666.29153 320.877415 
L 647.630106 318.728677 
L 640.577594 298.451746 
L 632.662853 295.521531 
L 619.955857 298.4761 
L 603.276963 306.479286 
L 583.069676 300.994 
L 566.376255 288.286149 
L 550.454483 283.575929 
L 539.411274 267.885737 
L 527.208455 245.838628 
L 518.309285 248.518462 
L 507.800163 243.03873 
L 501.626118 249.493064 
L 492.474859 240.800265 
L 492.311642 231.991676 
L 487.029736 231.996376 
L 489.740334 220.018729 
L 481.231688 207.45145 
L 460.969711 198.387353 
L 449.515469 182.669388 
L 453.348077 169.765421 
L 461.671288 164.058381 
L 460.423661 154.399099 
L 449.580414 149.435508 
L 438.865723 129.709239 
L 429.821761 116.461408 
L 433.057046 111.340155 
z
" clip-path="url(#p1ee41f687a)" style="fill: #e8edf4; stroke: #b8c5d4; stroke-width: 0.45"/>
    <path d="M 289.166334 203.482115 
L 291.092465 200.85398 
L 290.839522 194.085603 
L 294.896873 185.032189 
L 303.91397 178.800035 
L 301.209354 172.315365 
L 293.771445 171.472363 
L 292.227293 158.820484 
L 296.274391 152.015362 
L 305.131688 144.769725 
L 306.026391 135.545402 
L 311.438187 138.76146 
L 329.644142 134.161476 
L 338.444186 137.27499 
L 352.048449 137.22329 
L 371.076471 131.018481 
L 379.98675 131.298343 
L 398.796865 128.726608 
L 390.321546 139.045595 
L 381.270268 143.130719 
L 382.828947 155.210483 
L 376.581412 175.201998 
L 339.972957 192.411134 
L 307.590197 210.034721 
z
" clip-path="url(#p1ee41f687a)" style="fill: #e8edf4; stroke: #b8c5d4; stroke-width: 0.45"/>
    <path d="M 419.188731 64.858782 
L 442.169851 62.279356 
L 445.593135 66.624688 
L 451.891088 69.486539 
L 448.564367 73.633617 
L 457.373811 79.306048 
L 452.7123 84.572572 
L 459.732339 89.070012 
L 467.156575 91.779755 
L 467.524026 103.248524 
L 461.536271 103.734757 
L 454.785412 94.168192 
L 454.861466 91.616965 
L 447.555157 91.654138 
L 442.657793 87.218225 
L 439.218273 87.664722 
L 432.703267 82.836149 
L 420.407304 78.725816 
L 421.998456 70.678621 
z
" clip-path="url(#p1ee41f687a)" style="fill: #e8edf4; stroke: #b8c5d4; stroke-width: 0.45"/>
    <path d="M 32.857585 -18.40708 
L 46.115759 -21.526148 
L 56.113012 -32.740265 
L 63.938882 -43.955236 
L 81.177499 -50.96502 
L 91.408895 -49.133743 
L 102.010308 -49.072216 
L 109.687487 -45.031528 
L 115.333427 -47.570363 
L 127.540518 -49.159379 
L 131.69956 -53.024459 
L 138.676017 -53.021896 
L 143.716943 -51.410235 
L 163.624286 -29.701524 
L 164.153246 -22.443496 
L 162.407422 -15.382866 
L 165.369255 -7.837286 
L 172.7482 -4.790427 
L 180.519378 -7.451034 
L 188.019668 -4.61311 
L 188.404211 -0.348105 
L 180.385216 3.210195 
L 175.362235 1.661343 
L 170.73576 21.610986 
L 161.012814 19.874562 
L 148.979195 13.863307 
L 129.511939 17.707878 
L 121.311782 21.925456 
L 97.026636 21.055535 
L 84.320494 18.476536 
L 77.913159 19.687418 
L 70.127454 10.006345 
L 73.959207 7.21542 
L 69.879637 5.156408 
L 64.688312 8.862117 
L 55.046548 4.057898 
L 53.748503 -2.75876 
L 43.674341 -6.648195 
L 41.819991 -11.91002 
z
" clip-path="url(#p1ee41f687a)" style="fill: #e8edf4; stroke: #b8c5d4; stroke-width: 0.45"/>
    <path d="M 68.581592 44.550233 
L 71.30159 42.216914 
L 69.508767 40.249765 
L 72.290292 34.987941 
L 78.594227 29.817979 
L 70.55985 22.680014 
L 69.076371 16.640132 
L 73.15594 12.888705 
L 77.913159 19.687418 
L 84.320494 18.476536 
L 97.026636 21.055535 
L 121.311782 21.925456 
L 129.511939 17.707878 
L 148.979195 13.863307 
L 161.012814 19.874562 
L 170.73576 21.610986 
L 162.153624 28.461826 
L 156.114596 40.289929 
L 161.452902 49.724468 
L 147.215426 47.506511 
L 130.369897 52.708518 
L 130.189589 60.943712 
L 115.159101 62.504955 
L 103.508315 56.726988 
L 90.269795 61.271427 
L 78.037922 60.793313 
L 76.863785 49.857776 
z
" clip-path="url(#p1ee41f687a)" style="fill: #e8edf4; stroke: #b8c5d4; stroke-width: 0.45"/>
    <path d="M 31.697121 89.120002 
L 39.386264 81.099725 
L 40.378384 75.725529 
L 45.75258 73.327692 
L 46.084142 68.983215 
L 56.900897 67.518963 
L 63.204832 63.904262 
L 72.166384 64.224714 
L 74.885977 61.342218 
L 90.269795 61.271427 
L 103.508315 56.726988 
L 115.159101 62.504955 
L 130.189589 60.943712 
L 130.369897 52.708518 
L 138.425637 57.087177 
L 133.306093 67.4365 
L 129.376068 69.29085 
L 110.671916 67.257901 
L 90.645792 71.556233 
L 102.10858 80.851909 
L 93.707606 83.547125 
L 84.497383 83.563789 
L 75.749466 75.047452 
L 72.64578 78.676252 
L 76.340807 88.552588 
L 84.613601 96.313085 
L 78.380592 99.936331 
L 87.58996 107.557965 
L 95.77559 112.353638 
L 96.023407 121.696314 
L 80.727157 117.314238 
L 85.604866 125.748112 
L 75.104289 127.484108 
L 81.375752 142.077499 
L 70.392361 142.284298 
L 56.832534 135.091215 
L 50.631144 121.862095 
L 47.737675 110.859904 
L 32.816567 93.82894 
z
" clip-path="url(#p1ee41f687a)" style="fill: #e8edf4; stroke: #b8c5d4; stroke-width: 0.45"/>
    <path d="M 87.341289 160.970504 
L 90.400539 153.942347 
L 99.440708 159.514797 
L 112.311776 158.572668 
L 124.617994 159.746377 
L 124.21807 162.624037 
L 133.230039 160.639798 
L 131.162909 165.517934 
L 107.350322 166.923651 
L 107.516103 164.195108 
z
" clip-path="url(#p1ee41f687a)" style="fill: #e8edf4; stroke: #b8c5d4; stroke-width: 0.45"/>
    <path d="M 131.258617 91.788728 
L 149.601299 75.973345 
L 175.066564 75.311932 
L 182.012258 62.744653 
L 213.529369 64.933555 
L 233.406803 54.20738 
L 252.67666 49.532624 
L 280.034729 49.180981 
L 308.897642 60.836894 
L 332.619648 67.232692 
L 351.883523 64.683175 
L 366.118435 66.1564 
L 385.64209 57.524701 
L 403.260977 56.738952 
L 419.188731 64.858782 
L 421.998456 70.678621 
L 420.407304 78.725816 
L 432.703267 82.836149 
L 439.218273 87.664722 
L 427.894776 92.375369 
L 433.057046 111.340155 
L 429.821761 116.461408 
L 438.865841 129.709455 
L 430.941207 132.502816 
L 425.13376 128.290793 
L 405.899794 126.157009 
L 398.796865 128.726608 
L 379.98675 131.298343 
L 371.076471 131.018481 
L 352.048449 137.22329 
L 338.444186 137.27499 
L 329.644142 134.161476 
L 311.438187 138.76146 
L 306.026391 135.545402 
L 305.131688 144.769725 
L 296.274391 152.015362 
L 290.194345 144.516781 
L 296.457262 138.305564 
L 286.371991 139.713844 
L 272.541276 135.909009 
L 261.169924 145.426865 
L 236.072111 147.285488 
L 222.684901 138.410245 
L 204.859216 137.854794 
L 201.047117 144.715461 
L 189.618511 146.677056 
L 173.626666 137.871885 
L 155.573673 138.169692 
L 145.777237 121.72366 
L 133.696617 112.549755 
L 141.741249 99.690651 
z
" clip-path="url(#p1ee41f687a)" style="fill: #e8edf4; stroke: #b8c5d4; stroke-width: 0.45"/>
    <path d="M 129.151324 72.703451 
L 129.376068 69.29085 
L 133.306093 67.4365 
L 138.425637 57.087177 
L 130.369897 52.708518 
L 147.215426 47.506511 
L 161.452902 49.724468 
L 163.417487 56.082239 
L 177.852362 61.422681 
L 174.842675 65.473623 
L 155.207076 66.385417 
L 134.354613 80.405412 
z
" clip-path="url(#p1ee41f687a)" style="fill: #e8edf4; stroke: #b8c5d4; stroke-width: 0.45"/>
    <path d="M 17.715152 46.609245 
L 24.884736 38.465061 
L 25.935819 41.576437 
L 30.385526 40.112367 
L 33.908668 44.550233 
L 37.864087 46.243381 
L 38.97694 52.23724 
L 36.875628 57.864807 
L 39.223902 64.956627 
L 46.084142 68.983215 
L 45.75258 73.327692 
L 40.378384 75.725529 
L 39.386264 81.099725 
L 31.697121 89.120002 
L 28.885688 87.962529 
L 28.554981 84.324329 
L 19.395176 78.771961 
L 17.956132 70.89311 
L 19.353304 59.609776 
L 21.610142 54.47656 
L 18.827762 51.87107 
z
" clip-path="url(#p1ee41f687a)" style="fill: #e8edf4; stroke: #b8c5d4; stroke-width: 0.45"/>
    <path d="M -75.674008 -2.027275 
L -74.713506 -8.036394 
L -63.189191 -7.471543 
L -60.160705 -10.262468 
L -54.536129 -7.562979 
L -48.046759 -7.242527 
L -48.108285 -11.863874 
L -42.360655 -13.556716 
L -40.753267 -20.236649 
L -27.589093 -24.629407 
L -9.973623 -15.501647 
L 3.685329 -12.321907 
L 9.865991 -14.792292 
L 13.883399 -8.386755 
L 19.137106 -3.673972 
L 12.770761 2.548341 
L 5.291863 -1.112063 
L -6.14187 -0.883047 
L -20.357128 -3.628681 
L -28.083016 -3.262084 
L -31.667808 0.168891 
L -37.600873 -3.628681 
L -41.062611 3.234977 
L -29.381061 16.091518 
L -15.475146 25.928972 
L -9.231884 32.837493 
L 5.404076 39.097532 
L 3.585348 41.908853 
L -11.959572 35.790353 
L -21.550065 29.837206 
L -36.674552 24.922325 
L -50.580467 12.751979 
L -47.243492 11.516315 
L -54.78309 4.561649 
L -55.092434 -1.020628 
L -65.7229 -3.628681 
L -70.791171 3.509284 
z
" clip-path="url(#p1ee41f687a)" style="fill: #e8edf4; stroke: #b8c5d4; stroke-width: 0.45"/>
    <path d="M -189.890849 -0.234452 
L -184.157747 -5.271105 
L -189.024347 -11.480186 
L -188.342425 -16.152806 
L -181.227532 -12.610742 
L -173.254682 -13.396918 
L -163.983788 -19.005258 
L -161.117663 -16.384386 
L -153.240522 -16.909928 
L -149.659149 -23.578751 
L -137.423003 -21.506494 
L -130.138057 -24.295709 
L -128.82634 -31.075195 
L -118.807723 -28.723931 
L -116.88501 -31.869489 
L -100.542805 -34.743732 
L -96.848632 -28.991829 
L -73.201826 -24.72127 
L -74.993795 -16.576658 
L -71.033006 -9.53611 
L -84.196326 -11.945056 
L -97.64079 -6.076081 
L -96.726433 2.132622 
L -98.750836 6.843696 
L -93.330495 15.262615 
L -77.824883 23.590953 
L -69.508508 37.261869 
L -51.107718 50.587979 
L -38.149487 50.485862 
L -34.11948 54.140726 
L -38.758773 57.434974 
L -11.807464 68.414092 
L 2.372757 77.038101 
L 4.085254 80.126405 
L 0.99524 86.047934 
L -8.18251 78.327173 
L -22.549021 75.605893 
L -29.508387 86.302159 
L -17.556803 92.432196 
L -19.518825 101.061331 
L -26.426919 102.041915 
L -35.259436 116.224701 
L -42.153002 117.498818 
L -42.088912 112.442938 
L -38.715192 103.573676 
L -35.121 100.041439 
L -46.62566 82.11919 
L -53.490173 80.058897 
L -58.372155 72.921786 
L -68.998348 69.915518 
L -76.153404 63.268912 
L -88.388695 62.19732 
L -116.437232 43.96872 
L -127.681257 34.443172 
L -132.839255 18.096266 
L -141.066758 16.173554 
L -154.519767 10.715612 
L -162.132856 12.949805 
L -171.687458 20.623993 
L -178.559661 21.836157 
L -176.667711 14.658456 
L -185.630972 12.560562 
z
" clip-path="url(#p1ee41f687a)" style="fill: #e8edf4; stroke: #b8c5d4; stroke-width: 0.45"/>
    <path d="M -95.947093 122.391909 
L -93.633002 113.901636 
L -74.281964 115.413316 
L -44.860182 112.169058 
L -50.815465 125.18497 
L -48.34072 130.308359 
L -51.811858 138.811878 
L -64.458182 132.58357 
L -72.866847 130.799292 
z
" clip-path="url(#p1ee41f687a)" style="fill: #e8edf4; stroke: #b8c5d4; stroke-width: 0.45"/>
    <path d="M -166.573896 67.209192 
L -157.479036 68.036386 
L -149.210516 62.910006 
L -139.289317 74.650519 
L -141.611954 96.52202 
L -149.131043 95.478628 
L -155.875921 100.999377 
L -162.137129 96.613455 
L -162.799396 76.662958 
z
" clip-path="url(#p1ee41f687a)" style="fill: #e8edf4; stroke: #b8c5d4; stroke-width: 0.45"/>
    <path d="M 442.169851 62.279356 
L 446.220367 59.578585 
L 458.54282 64.334095 
L 467.456518 65.316815 
L 469.709937 63.378293 
L 461.56618 54.429987 
L 465.857675 52.150077 
L 470.506368 52.704673 
L 481.870883 62.748925 
L 489.185738 63.878626 
L 492.023662 59.67173 
L 501.897019 53.006765 
L 510.593652 61.714506 
L 519.00488 73.444764 
L 526.709405 74.218122 
L 531.802458 78.676252 
L 518.182813 80.00677 
L 515.306435 92.849211 
L 512.461674 98.641277 
L 506.397865 102.506357 
L 506.839661 110.695833 
L 502.724201 111.520463 
L 492.411623 102.861418 
L 498.113108 94.680061 
L 493.227708 89.827133 
L 487.026318 91.048697 
L 467.524026 103.248524 
L 467.156575 91.779755 
L 459.732339 89.070012 
L 452.7123 84.572572 
L 457.373811 79.306048 
L 448.564367 73.633617 
L 451.891088 69.486539 
L 445.593135 66.624688 
z
" clip-path="url(#p1ee41f687a)" style="fill: #e8edf4; stroke: #b8c5d4; stroke-width: 0.45"/>
    <path d="M 439.218273 87.664722 
L 442.657793 87.218225 
L 447.555157 91.654138 
L 454.861466 91.616965 
L 454.785412 94.168192 
L 461.536271 103.734757 
L 450.193973 101.536455 
L 441.842563 93.902857 
z
" clip-path="url(#p1ee41f687a)" style="fill: #e8edf4; stroke: #b8c5d4; stroke-width: 0.45"/>
    <path d="M 359.199232 26.116543 
L 361.215944 24.163494 
L 399.53784 29.666857 
L 422.053556 37.595536 
L 424.951054 40.669146 
L 434.978905 38.0724 
L 450.401626 41.532001 
L 455.463745 48.317534 
L 465.857675 52.150077 
L 461.56618 54.429987 
L 469.709937 63.378293 
L 467.456518 65.316815 
L 458.54282 64.334095 
L 446.220367 59.578585 
L 442.169851 62.279356 
L 419.188731 64.858782 
L 403.260977 56.738952 
L 385.64209 57.524701 
L 388.107435 50.458944 
L 383.978302 39.178173 
L 374.420282 33.084455 
L 365.257914 31.182678 
z
" clip-path="url(#p1ee41f687a)" style="fill: #e8edf4; stroke: #b8c5d4; stroke-width: 0.45"/>
    <path d="M 403.018288 492.799574 
L 406.327918 491.995452 
L 404.631658 484.439617 
L 406.636406 481.250478 
L 405.903212 474.038168 
L 413.163376 468.763098 
L 411.467116 461.792195 
L 415.849192 453.663819 
L 422.641069 457.963433 
L 427.123981 456.468844 
L 446.207549 456.089001 
L 449.239453 457.742534 
L 465.224462 459.396495 
L 471.563433 458.569301 
L 475.697693 464.081505 
L 483.415036 461.325189 
L 495.265784 443.962237 
L 510.699614 436.52091 
L 558.379478 430.181939 
L 576.711051 469.025014 
L 564.749213 473.467335 
L 561.549818 480.809108 
L 561.160148 486.448212 
L 544.695744 493.429369 
L 518.271685 501.143293 
L 503.465941 512.810743 
L 496.185268 513.722109 
L 491.223814 512.744089 
L 481.558977 519.606892 
L 471.019091 522.790478 
L 452.960971 524.588855 
L 449.346271 528.955123 
L 445.012048 530.161732 
L 442.451849 534.367774 
L 434.267074 534.002885 
L 428.984313 536.246905 
L 417.538616 535.406039 
L 413.237721 525.746329 
L 413.710281 516.707014 
L 411.006519 511.828023 
L 407.77038 499.597432 
z
" clip-path="url(#p1ee41f687a)" style="fill: #e8edf4; stroke: #b8c5d4; stroke-width: 0.45"/>
    <path d="M 271.181704 280.386789 
L 276.534537 258.922476 
L 294.937891 261.552747 
L 302.086111 256.46354 
L 306.043482 250.509966 
L 318.661606 248.219801 
L 321.382458 242.68196 
L 326.851509 239.873518 
L 310.370013 223.338613 
L 343.487676 215.040611 
L 346.639216 212.547066 
L 366.557668 217.028697 
L 391.196594 228.603856 
L 437.821102 261.860381 
L 483.301382 264.776923 
L 487.419406 272.655774 
L 499.114628 272.226795 
L 505.588616 286.487344 
L 513.723828 290.264407 
L 516.55748 296.072282 
L 527.827142 303.023103 
L 528.827807 309.846597 
L 527.180256 315.354102 
L 529.273022 320.909033 
L 534.027677 325.543199 
L 538.702861 335.01961 
L 543.701915 338.300613 
L 548.285662 337.125622 
L 558.391442 364.01754 
L 608.100836 372.355278 
L 611.433538 368.859786 
L 619.012446 380.572953 
L 607.988037 413.645753 
L 558.379478 430.181939 
L 510.699614 436.52091 
L 495.265784 443.962237 
L 483.415036 461.325189 
L 475.697693 464.081505 
L 471.563433 458.569301 
L 465.224462 459.396495 
L 449.239453 457.742534 
L 446.207549 456.089001 
L 427.123981 456.468844 
L 422.641069 457.963433 
L 415.849192 453.663819 
L 411.467116 461.792195 
L 413.163376 468.763098 
L 405.903212 474.038168 
L 403.757464 466.981384 
L 398.770374 462.00113 
L 397.495402 455.404515 
L 388.954283 449.479141 
L 380.140567 435.612535 
L 375.476493 422.137308 
L 364.038487 410.757838 
L 356.663814 408.042113 
L 345.712041 392.282275 
L 343.798728 380.790006 
L 344.503723 370.987588 
L 335.019193 352.65217 
L 327.265106 346.199118 
L 318.331754 342.779253 
L 312.894321 333.304123 
L 313.798424 329.565942 
L 309.203567 320.993205 
L 304.374567 317.301169 
L 297.917669 304.999652 
L 279.414334 280.307317 
z
" clip-path="url(#p1ee41f687a)" style="fill: #e8edf4; stroke: #b8c5d4; stroke-width: 0.45"/>
    <path d="M 239.753465 163.285023 
L 243.311766 159.205881 
L 255.222332 159.428916 
L 270.257948 154.494807 
L 259.084849 161.536636 
L 260.288894 164.633059 
L 252.057119 165.594843 
L 250.53604 162.909881 
L 242.85886 164.148108 
z
" clip-path="url(#p1ee41f687a)" style="fill: #e8edf4; stroke: #b8c5d4; stroke-width: 0.45"/>
    <path d="M 231.896833 163.893455 
L 242.85886 164.148108 
L 250.53604 162.909881 
L 252.057119 165.594843 
L 258.51658 164.052827 
L 260.805891 165.962722 
L 243.855253 172.680254 
L 235.760204 170.534079 
z
" clip-path="url(#p1ee41f687a)" style="fill: #e8edf4; stroke: #b8c5d4; stroke-width: 0.45"/>
    <path d="M 106.938367 247.551504 
L 111.197302 237.341802 
L 108.638303 230.269374 
L 114.623631 222.334245 
L 136.625398 222.0609 
L 176.613578 233.894801 
L 189.344741 228.655923 
L 196.151265 223.9176 
L 210.734664 222.554013 
L 222.492498 224.641892 
L 226.997824 232.843917 
L 230.835248 227.440833 
L 244.088298 231.347874 
L 256.978045 232.283996 
L 265.114586 228.118492 
L 275.981608 256.528422 
L 271.337211 263.174543 
L 267.778756 275.666591 
L 263.28021 284.276898 
L 259.424762 287.164143 
L 246.450349 274.448524 
L 234.651174 250.744837 
L 232.951734 252.243856 
L 239.803732 269.693003 
L 249.956053 286.317648 
L 262.454054 312.074983 
L 273.872728 330.405848 
L 288.711449 348.712239 
L 285.425843 351.595184 
L 285.959305 362.342648 
L 308.122136 380.572972 
L 111.898112 380.572972 
L 111.898112 260.872113 
z
" clip-path="url(#p1ee41f687a)" style="fill: #e8edf4; stroke: #b8c5d4; stroke-width: 0.45"/>
    <path d="M -147.401456 312.86782 
L -140.838596 305.95759 
L -142.281058 295.560413 
L -140.179746 286.509989 
L -141.374392 278.970818 
L -138.462123 265.480209 
L -139.361098 257.796621 
L -144.710513 243.196393 
L -136.642809 239.363785 
L -135.211456 232.377073 
L -136.970097 225.527088 
L -125.614982 219.15479 
L -120.523638 213.856647 
L -112.462771 209.109255 
L -111.527905 196.407813 
L -92.1056 202.099883 
L -85.161163 200.677096 
L -71.346374 203.43635 
L -49.403476 210.82611 
L -41.659342 225.52394 
L -3.507523 235.655591 
L 14.108971 243.877129 
L 22.172587 239.587106 
L 30.098621 231.981381 
L 26.245323 219.314048 
L 31.431781 211.270607 
L 43.347041 203.521677 
L 54.73165 201.26612 
L 77.101682 204.649786 
L 82.741235 212.043019 
L 88.898211 212.112968 
L 94.162886 214.933902 
L 110.594056 216.87378 
L 114.623631 222.334245 
L 108.638303 230.269374 
L 111.197302 237.341802 
L 106.938367 247.551504 
L 111.898112 260.872113 
L 111.898112 413.595383 
L 92.88132 413.645654 
L 92.677261 420.583145 
L -39.229988 357.261361 
L -67.62254 372.44885 
L -76.923344 363.366809 
L -103.082495 356.236962 
L -110.339241 345.881229 
L -123.391471 338.198068 
L -131.122486 341.227837 
L -137.00257 332.006505 
L -137.62382 324.920667 
z
" clip-path="url(#p1ee41f687a)" style="fill: #e8edf4; stroke: #b8c5d4; stroke-width: 0.45"/>
    <path d="M -41.062611 3.234977 
L -37.600873 -3.628681 
L -31.667808 0.168891 
L -28.083016 -3.262084 
L -20.357128 -3.628681 
L -6.14187 -0.883047 
L 5.291863 -1.112063 
L 12.770685 2.548415 
L 18.765936 2.50261 
L 14.624905 9.777442 
L 22.597902 16.137319 
L 20.187565 23.915518 
L 13.203441 26.157349 
L 7.826319 30.000726 
L 5.404076 39.097532 
L -9.231884 32.837493 
L -15.475146 25.928972 
L -29.381061 16.091518 
z
" clip-path="url(#p1ee41f687a)" style="fill: #e8edf4; stroke: #b8c5d4; stroke-width: 0.45"/>
    <path d="M 36.875628 57.864807 
L 38.976925 52.237161 
L 41.07809 52.374395 
L 41.819745 48.988579 
L 60.917896 44.825059 
L 68.581592 44.550233 
L 76.863785 49.857776 
L 78.037922 60.793313 
L 74.885977 61.342218 
L 72.166384 64.224714 
L 63.204832 63.904262 
L 56.900897 67.518963 
L 46.084142 68.983215 
L 39.223902 64.956627 
z
" clip-path="url(#p1ee41f687a)" style="fill: #e8edf4; stroke: #b8c5d4; stroke-width: 0.45"/>
    <path d="M 9.865991 -14.792292 
L 22.536462 -19.138993 
L 32.857585 -18.40708 
L 41.819991 -11.91002 
L 43.674341 -6.648195 
L 53.748503 -2.75876 
L 55.046548 4.057898 
L 64.688312 8.862117 
L 69.879637 5.156408 
L 73.959207 7.21542 
L 70.127454 10.006345 
L 73.15594 12.888705 
L 69.076371 16.640132 
L 70.55985 22.680014 
L 78.594227 29.817979 
L 72.290292 34.987941 
L 69.508767 40.249765 
L 71.30159 42.216914 
L 68.581592 44.550233 
L 55.288197 45.79104 
L 54.737273 44.550391 
L 58.569239 38.556794 
L 56.220583 38.64824 
L 42.684926 28.811101 
L 39.718306 29.726223 
L 37.431496 35.216618 
L 33.475838 36.406243 
L 34.835456 34.987921 
L 23.097961 29.774674 
L 16.293587 24.647416 
L 20.187565 23.915518 
L 22.597902 16.137319 
L 14.624905 9.777442 
L 18.765936 2.50261 
L 12.770685 2.548415 
L 19.137106 -3.673972 
L 13.883399 -8.386755 
z
" clip-path="url(#p1ee41f687a)" style="fill: #e8edf4; stroke: #b8c5d4; stroke-width: 0.45"/>
    <path d="M 3.585358 41.908838 
L 7.826319 30.000726 
L 16.293587 24.647416 
L 23.097961 29.774674 
L 34.835456 34.987921 
L 30.385526 40.112367 
L 25.935819 41.576437 
L 24.884736 38.465061 
L 17.715152 46.609245 
L 18.827751 51.871018 
L 15.36656 50.589958 
L 10.731093 45.191009 
z
" clip-path="url(#p1ee41f687a)" style="fill: #e8edf4; stroke: #b8c5d4; stroke-width: 0.45"/>
    <path d="M 30.385526 40.112367 
L 33.475838 36.406243 
L 37.431496 35.216618 
L 39.718306 29.726223 
L 42.684926 28.811101 
L 56.220583 38.64824 
L 58.569239 38.556794 
L 54.737273 44.550391 
L 55.288197 45.79104 
L 41.819745 48.988579 
L 41.07809 52.374395 
L 38.976925 52.237161 
L 37.864087 46.243381 
L 33.908668 44.550233 
z
" clip-path="url(#p1ee41f687a)" style="fill: #e8edf4; stroke: #b8c5d4; stroke-width: 0.45"/>
   </g>
   <g id="PathCollection_1">
    <defs>
     <path id="mfe8d1cda14" d="M 0 2.12132 
C 0.562581 2.12132 1.102195 1.897805 1.5 1.5 
C 1.897805 1.102195 2.12132 0.562581 2.12132 0 
C 2.12132 -0.562581 1.897805 -1.102195 1.5 -1.5 
C 1.102195 -1.897805 0.562581 -2.12132 0 -2.12132 
C -0.562581 -2.12132 -1.102195 -1.897805 -1.5 -1.5 
C -1.897805 -1.102195 -2.12132 -0.562581 -2.12132 0 
C -2.12132 0.562581 -1.897805 1.102195 -1.5 1.5 
C -1.102195 1.897805 -0.562581 2.12132 0 2.12132 
z
" style="stroke: #ffffff; stroke-width: 0.5"/>
    </defs>
    <g clip-path="url(#p1ee41f687a)">
     <use xlink:href="#mfe8d1cda14" x="29.216407" y="66.382495" style="fill: #8aa0b7; stroke: #ffffff; stroke-width: 0.5"/>
     <use xlink:href="#mfe8d1cda14" x="534.401622" y="314.427608" style="fill: #8aa0b7; stroke: #ffffff; stroke-width: 0.5"/>
     <use xlink:href="#mfe8d1cda14" x="244.188839" y="165.60054" style="fill: #8aa0b7; stroke: #ffffff; stroke-width: 0.5"/>
     <use xlink:href="#mfe8d1cda14" x="273.127435" y="223.477733" style="fill: #8aa0b7; stroke: #ffffff; stroke-width: 0.5"/>
     <use xlink:href="#mfe8d1cda14" x="455.027185" y="256.550415" style="fill: #8aa0b7; stroke: #ffffff; stroke-width: 0.5"/>
     <use xlink:href="#mfe8d1cda14" x="291.041805" y="184.892938" style="fill: #8aa0b7; stroke: #ffffff; stroke-width: 0.5"/>
     <use xlink:href="#mfe8d1cda14" x="18.871272" y="38.126849" style="fill: #8aa0b7; stroke: #ffffff; stroke-width: 0.5"/>
     <use xlink:href="#mfe8d1cda14" x="62.289089" y="52.602211" style="fill: #8aa0b7; stroke: #ffffff; stroke-width: 0.5"/>
     <use xlink:href="#mfe8d1cda14" x="281.117795" y="216" style="fill: #8aa0b7; stroke: #ffffff; stroke-width: 0.5"/>
     <use xlink:href="#mfe8d1cda14" x="545.97706" y="322.695779" style="fill: #8aa0b7; stroke: #ffffff; stroke-width: 0.5"/>
     <use xlink:href="#mfe8d1cda14" x="44.148723" y="39.881355" style="fill: #8aa0b7; stroke: #ffffff; stroke-width: 0.5"/>
    </g>
   </g>
   <g id="PatchCollection_2">
    <defs>
     <path id="mc56f9d032b" d="M 276.061123 -206.098624 
L 276.773808 -210.453355 
L 280.99694 -212.728138 
L 276.842171 -214.584197 
L 280.303055 -225.596215 
L 286.284828 -223.305623 
L 286.277992 -213.193862 
L 283.835719 -208.341789 
z
" style="stroke: #b45309; stroke-width: 1.15"/>
    </defs>
    <g clip-path="url(#p1ee41f687a)">
     <use xlink:href="#mc56f9d032b" x="0" y="432" style="fill: #f59e0b; stroke: #b45309; stroke-width: 1.15"/>
    </g>
   </g>
   <g id="PathCollection_2">
    <defs>
     <path id="m8bd1004955" d="M 0 3.316625 
C 0.879579 3.316625 1.723251 2.967164 2.345208 2.345208 
C 2.967164 1.723251 3.316625 0.879579 3.316625 0 
C 3.316625 -0.879579 2.967164 -1.723251 2.345208 -2.345208 
C 1.723251 -2.967164 0.879579 -3.316625 0 -3.316625 
C -0.879579 -3.316625 -1.723251 -2.967164 -2.345208 -2.345208 
C -2.967164 -1.723251 -3.316625 -0.879579 -3.316625 0 
C -3.316625 0.879579 -2.967164 1.723251 -2.345208 2.345208 
C -1.723251 2.967164 -0.879579 3.316625 0 3.316625 
z
" style="stroke: #ffffff"/>
    </defs>
    <g clip-path="url(#p1ee41f687a)">
     <use xlink:href="#m8bd1004955" x="281.117795" y="216" style="fill: #f97316; stroke: #ffffff"/>
    </g>
   </g>
   <g id="PathCollection_3">
    <path d="M 281.117795 220.449719 
C 282.297875 220.449719 283.42978 219.980869 284.264222 219.146427 
C 285.098664 218.311984 285.567514 217.180079 285.567514 216 
C 285.567514 214.819921 285.098664 213.688016 284.264222 212.853573 
C 283.42978 212.019131 282.297875 211.550281 281.117795 211.550281 
C 279.937716 211.550281 278.805811 212.019131 277.971369 212.853573 
C 277.136927 213.688016 276.668076 214.819921 276.668076 216 
C 276.668076 217.180079 277.136927 218.311984 277.971369 219.146427 
C 278.805811 219.980869 279.937716 220.449719 281.117795 220.449719 
L 281.117795 220.449719 
z
" clip-path="url(#p1ee41f687a)" style="fill: none; stroke: #7c2d12; stroke-width: 1.1"/>
   </g>
  </g>
 </g>
 <defs>
  <clipPath id="p1ee41f687a">
   <rect x="0" y="0" width="562.235591" height="432"/>
  </clipPath>
 </defs>
</svg>
