<?xml version="1.0" encoding="utf-8" standalone="no"?>
<!DOCTYPE svg PUBLIC "-//W3C//DTD SVG 1.1//EN"
  "http://www.w3.org/Graphics/SVG/1.1/DTD/svg11.dtd">
<svg xmlns:xlink="http://www.w3.org/1999/xlink" width="485.53313pt" height="432pt" viewBox="0 0 485.53313 432" xmlns="http://www.w3.org/2000/svg" version="1.1">
 <metadata>
  <rdf:RDF xmlns:dc="http://purl.org/dc/elements/1.1/" xmlns:cc="http://creativecommons.org/ns#" xmlns:rdf="http://www.w3.org/1999/02/22-rdf-syntax-ns#">
   <cc:Work>
    <dc:type rdf:resource="http://purl.org/dc/dcmitype/StillImage"/>
    <dc:date>2026-06-09T04:57:04.017579</dc:date>
    <dc:format>image/svg+xml</dc:format>
    <dc:creator>
     <cc:Agent>
      <dc:title>Matplotlib v3.10.8, https://matplotlib.org/</dc:title>
     </cc:Agent>
    </dc:creator>
   </cc:Work>
  </rdf:RDF>
 </metadata>
 <defs>
  <style type="text/css">*{stroke-linejoin: round; stroke-linecap: butt}</style>
 </defs>
 <g id="figure_1">
  <g id="patch_1">
   <path d="M 0 432 
L 485.53313 432 
L 485.53313 0 
L 0 0 
z
" style="fill: #eaf3ff"/>
  </g>
  <g id="axes_1">
   <g id="PatchCollection_1">
    <path d="M 351.576999 91.955653 
L 365.906799 81.941922 
L 406.998319 68.877108 
L 437.722265 52.816699 
L 503.602835 1.079358 
L 572.431552 -30.150422 
L 606.580529 -36.962284 
L 632.185024 -36.135982 
L 655.882793 -49.027897 
L 684.260123 -48.339513 
L 712.201584 -51.439652 
L 760.877387 -40.053175 
L 740.833842 -35.889901 
L 757.883636 -26.114536 
L 731.405084 -19.871372 
L 718.836927 -18.437445 
L 725.429649 -29.357494 
L 705.459284 -35.546514 
L 681.296696 -30.272658 
L 673.664965 -18.86286 
L 658.826115 -11.975806 
L 642.118336 -15.736987 
L 621.797346 -14.966576 
L 604.503315 -23.194209 
L 595.17636 -19.082805 
L 585.522904 -18.443074 
L 583.239819 -8.204172 
L 553.910332 -10.69715 
L 549.791288 -2.031638 
L 534.84709 -2.084312 
L 509.006968 26.23954 
L 484.843575 48.132714 
L 490.511482 53.448789 
L 485.09609 59.616096 
L 469.658925 59.34991 
L 459.553517 73.945494 
L 460.510499 94.611077 
L 470.455874 102.497734 
L 465.308276 120.792978 
L 452.359264 131.461317 
L 445.497945 140.428801 
L 435.058799 130.879086 
L 404.330832 148.87678 
L 383.582819 152.52457 
L 362.061983 144.599312 
L 356.497013 127.869015 
z
" clip-path="url(#pd775530b5b)" style="fill: #e8edf4; stroke: #b8c5d4; stroke-width: 0.45"/>
    <path d="M 436.427834 -183.201449 
L 478.85347 -188.77372 
L 487.377533 -183.325945 
L 509.542432 -183.542567 
L 515.451775 -188.861178 
L 538.301399 -189.402423 
L 609.154689 -172.365968 
L 569.993641 -166.242181 
L 561.346638 -154.78998 
L 547.693976 -151.852971 
L 540.283215 -138.95911 
L 521.530276 -138.352816 
L 488.063349 -147.844055 
L 502.177579 -153.373219 
L 478.850825 -157.874983 
L 448.531615 -171.015034 
z
" clip-path="url(#pd775530b5b)" style="fill: #e8edf4; stroke: #b8c5d4; stroke-width: 0.45"/>
    <path d="M 544.170829 -193.573591 
L 592.225799 -197.919415 
L 614.821028 -194.177133 
L 630.558959 -198.837394 
L 669.905393 -194.949956 
L 700.404972 -189.488725 
L 677.328839 -181.107493 
L 632.196283 -179.273948 
L 586.299749 -181.869862 
L 583.530934 -186.157785 
L 561.199478 -186.430404 
z
" clip-path="url(#pd775530b5b)" style="fill: #e8edf4; stroke: #b8c5d4; stroke-width: 0.45"/>
    <path d="M 596.427807 -152.461133 
L 607.167115 -156.476118 
L 597.764424 -161.449565 
L 630.014406 -164.566781 
L 636.193749 -158.724821 
L 658.646232 -155.212643 
L 623.883928 -148.849046 
z
" clip-path="url(#pd775530b5b)" style="fill: #e8edf4; stroke: #b8c5d4; stroke-width: 0.45"/>
    <path d="M 202.424523 298.724878 
L 222.601161 295.339655 
L 248.734408 299.343298 
L 243.801528 281.728396 
L 258.492408 288.403948 
L 294.724228 276.268774 
L 299.396552 263.516788 
L 313.006605 260.374831 
L 315.26074 265.84732 
L 322.494397 266.103856 
L 340.589399 279.687371 
L 348.575775 278.475461 
L 365.671173 286.921028 
L 370.16175 286.592116 
L 377.505582 290.666929 
L 399.931127 293.53305 
L 392.062966 304.189326 
L 390.087884 315.276244 
L 385.815241 317.934482 
L 378.724728 316.502226 
L 379.224932 320.456411 
L 367.844085 329.201136 
L 367.614087 336.247418 
L 375.044771 333.809124 
L 380.390199 340.633451 
L 379.748458 345.030743 
L 384.3283 350.873963 
L 378.933013 355.613838 
L 382.941883 367.654923 
L 391.376995 369.629201 
L 389.596526 376.383966 
L 375.498332 385.175735 
L 344.805749 380.9622 
L 322.138947 386.011285 
L 320.358478 395.382471 
L 302.318966 397.399773 
L 284.808608 390.360326 
L 279.151156 393.72464 
L 250.504423 386.652222 
L 244.301732 380.601924 
L 252.349227 371.267731 
L 255.312654 340.263526 
L 239.253853 323.932105 
L 227.776101 316.058315 
L 203.993088 310.072755 
z
" clip-path="url(#pd775530b5b)" style="fill: #e8edf4; stroke: #b8c5d4; stroke-width: 0.45"/>
    <path d="M -574.621522 1020.368904 
L -570.652459 1013.824434 
L -566.56317 1000.010922 
L -572.672978 990.789315 
L -573.903785 980.142689 
L -565.80241 966.762633 
L -549.059246 972.157921 
L -532.582268 985.293504 
L -530.006057 991.666682 
L -539.21158 1005.908021 
L -543.990459 1017.36768 
L -549.954306 1023.278853 
L -557.405496 1024.391043 
L -559.527745 1020.010237 
L -563.008666 1019.35965 
L -567.825743 1023.579216 
z
" clip-path="url(#pd775530b5b)" style="fill: #e8edf4; stroke: #b8c5d4; stroke-width: 0.45"/>
    <path d="M 406.855173 398.75161 
L 409.995522 392.968705 
L 420.017294 387.026168 
L 422.663068 400.370438 
L 417.523512 412.39182 
L 410.457929 409.223325 
z
" clip-path="url(#pd775530b5b)" style="fill: #e8edf4; stroke: #b8c5d4; stroke-width: 0.45"/>
    <path d="M 445.497945 140.428801 
L 452.359264 131.461317 
L 465.308276 120.792978 
L 470.455874 102.497734 
L 460.510499 94.611077 
L 459.553517 73.945494 
L 469.658925 59.34991 
L 485.09609 59.616096 
L 490.511482 53.448789 
L 484.843575 48.132714 
L 509.006968 26.23954 
L 534.84709 -2.084312 
L 549.791288 -2.031638 
L 553.910332 -10.69715 
L 583.239819 -8.204172 
L 585.522904 -18.443074 
L 595.17636 -19.082805 
L 640.210806 -0.871599 
L 640.621745 23.09316 
L 645.873887 29.148685 
L 619.104126 33.555627 
L 604.01437 44.413754 
L 606.443817 53.944168 
L 551.636896 79.842191 
L 540.3043 101.757079 
L 551.381165 112.72176 
L 566.264245 121.353496 
L 551.970634 138.909692 
L 535.785576 142.550245 
L 529.849071 168.674244 
L 521.01106 183.25294 
L 502.132782 181.749915 
L 493.325331 194.092168 
L 475.307531 194.808698 
L 470.361784 180.097312 
L 457.333962 162.438582 
z
" clip-path="url(#pd775530b5b)" style="fill: #e8edf4; stroke: #b8c5d4; stroke-width: 0.45"/>
    <path d="M 421.417383 323.333791 
L 423.797775 319.524359 
L 423.19544 316.762782 
L 427.892693 315.904715 
L 435.767288 320.226414 
L 437.983626 316.119433 
L 451.707873 316.782887 
L 462.833794 313.99236 
L 470.294232 314.470047 
L 475.147498 317.656234 
L 476.598251 315.011666 
L 474.392367 304.87208 
L 479.983072 302.896194 
L 485.470037 295.721242 
L 497.031826 300.730118 
L 505.786201 294.363775 
L 511.263515 293.201725 
L 523.343201 297.950849 
L 530.651649 297.143043 
L 537.825797 300.081541 
L 536.576091 302.057427 
L 538.127367 307.4499 
L 536.946017 313.809005 
L 528.181992 313.839564 
L 531.196083 317.212323 
L 526.029989 327.230879 
L 523.063345 329.857352 
L 509.453292 330.24497 
L 501.60041 333.775751 
L 466.492843 328.550951 
L 463.016344 323.137971 
L 447.637081 325.842853 
L 445.827661 328.803063 
L 428.45884 326.167342 
z
" clip-path="url(#pd775530b5b)" style="fill: #e8edf4; stroke: #b8c5d4; stroke-width: 0.45"/>
    <path d="M 367.085737 249.433069 
L 376.434405 249.426635 
L 380.37894 243.568941 
L 384.256728 229.320364 
L 381.347985 224.058571 
L 384.387006 220.763015 
L 397.393919 219.91701 
L 400.280144 223.348474 
L 410.847155 215.676535 
L 407.289434 209.842966 
L 406.575316 201.017823 
L 418.337349 203.070107 
L 428.294786 200.700973 
L 428.569818 206.715082 
L 444.295686 210.341561 
L 444.130023 215.864715 
L 459.953198 212.942301 
L 468.701943 208.680112 
L 486.271811 214.824901 
L 493.620467 219.781103 
L 497.256194 227.699928 
L 492.917608 231.853551 
L 498.567823 237.400026 
L 502.418268 245.724161 
L 501.205554 251.089291 
L 507.584362 261.02582 
L 500.639407 262.649472 
L 496.535643 260.860962 
L 492.632926 263.823183 
L 481.45795 266.837274 
L 475.67987 270.714659 
L 464.370594 274.103099 
L 467.095178 278.728378 
L 468.742152 285.290942 
L 476.683494 289.031214 
L 485.470037 295.721242 
L 479.983072 302.896194 
L 474.392367 304.87208 
L 476.598251 315.011666 
L 475.147498 317.656234 
L 470.294232 314.470047 
L 462.833794 313.99236 
L 451.707873 316.782887 
L 437.983626 316.119433 
L 435.767288 320.226414 
L 427.892693 315.904715 
L 423.19544 316.762782 
L 406.519023 312.004411 
L 403.32399 315.385211 
L 390.087884 315.276244 
L 392.062966 304.189326 
L 399.931127 293.53305 
L 377.505582 290.666929 
L 370.16175 286.592116 
L 371.039922 279.769398 
L 367.932545 276.255102 
L 369.700147 265.740363 
z
" clip-path="url(#pd775530b5b)" style="fill: #e8edf4; stroke: #b8c5d4; stroke-width: 0.45"/>
    <path d="M 367.614087 336.247418 
L 367.844085 329.201136 
L 379.224932 320.456411 
L 378.724728 316.502226 
L 385.815241 317.934482 
L 390.087884 315.276244 
L 403.32399 315.385211 
L 406.519023 312.004411 
L 423.19544 316.762782 
L 423.797775 319.524359 
L 421.417383 323.333791 
L 428.45884 326.167342 
L 436.399378 326.590344 
L 435.164952 332.970358 
L 428.309262 335.595223 
L 416.794115 333.64507 
L 413.423769 339.920942 
L 406.010778 340.415517 
L 403.313536 337.949077 
L 394.588916 343.226953 
L 387.085856 343.966804 
L 380.390199 340.633451 
L 375.044771 333.809124 
z
" clip-path="url(#pd775530b5b)" style="fill: #e8edf4; stroke: #b8c5d4; stroke-width: 0.45"/>
    <path d="M 362.189849 285.569995 
L 363.876228 276.842159 
L 367.932545 276.255102 
L 371.039922 279.769398 
L 370.16175 286.592116 
L 365.671173 286.921028 
z
" clip-path="url(#pd775530b5b)" style="fill: #e8edf4; stroke: #b8c5d4; stroke-width: 0.45"/>
    <path d="M 313.006605 260.374831 
L 325.477929 257.304849 
L 336.87084 258.52681 
L 351.295534 255.293578 
L 361.146015 262.10544 
L 369.700147 265.740363 
L 367.932545 276.255102 
L 363.876228 276.842159 
L 362.189849 285.569995 
L 348.575775 278.475461 
L 340.589399 279.687371 
L 322.494397 266.103856 
L 315.26074 265.84732 
z
" clip-path="url(#pd775530b5b)" style="fill: #e8edf4; stroke: #b8c5d4; stroke-width: 0.45"/>
    <path d="M 325.477929 257.305251 
L 333.497278 253.028989 
L 347.125023 230.133396 
L 368.416665 223.619083 
L 381.347985 224.058571 
L 384.256728 229.320364 
L 380.37894 243.568941 
L 376.434405 249.426635 
L 367.085737 249.433069 
L 369.700147 265.740363 
L 361.146015 262.10544 
L 351.295534 255.293578 
L 336.87084 258.52681 
z
" clip-path="url(#pd775530b5b)" style="fill: #e8edf4; stroke: #b8c5d4; stroke-width: 0.45"/>
    <path d="M 125.63838 453.515507 
L 126.876827 443.328072 
L 133.081126 437.678661 
L 137.432579 422.030398 
L 137.087583 415.436872 
L 133.976186 409.848178 
L 133.291019 404.602067 
L 138.938017 400.64748 
L 145.288678 398.37887 
L 149.189786 405.997733 
L 158.381639 405.979237 
L 161.045909 404.014207 
L 170.113916 404.558239 
L 174.463761 412.363674 
L 167.273529 416.576807 
L 167.072885 428.718415 
L 164.545728 430.995871 
L 163.920473 438.350961 
L 157.197072 439.632031 
L 163.431126 448.961399 
L 159.135161 459.185826 
L 164.501096 463.812311 
L 162.365579 468.043137 
L 156.598355 473.878716 
L 157.89591 479.031542 
L 151.641751 483.070166 
L 143.43744 480.881975 
L 135.406833 482.594892 
L 137.784009 470.417095 
L 136.322802 460.84808 
L 129.359351 459.412607 
z
" clip-path="url(#pd775530b5b)" style="fill: #e8edf4; stroke: #b8c5d4; stroke-width: 0.45"/>
    <path d="M 127.71881 386.76722 
L 149.734221 375.535951 
L 168.777358 378.343768 
L 189.670928 378.245256 
L 206.229531 380.903092 
L 244.301732 380.601924 
L 250.504423 386.652222 
L 279.151156 393.72464 
L 284.808608 390.360326 
L 302.318966 397.399773 
L 320.358478 395.382471 
L 321.190811 404.422331 
L 306.443638 414.78709 
L 286.503833 418.076213 
L 285.115807 423.311467 
L 275.550813 431.93878 
L 269.553189 444.605522 
L 275.622385 453.498619 
L 266.621125 460.441563 
L 263.255605 470.557024 
L 251.506439 473.658369 
L 240.487475 485.624263 
L 205.901825 485.566763 
L 196.155084 491.062172 
L 190.211342 496.942384 
L 182.597304 495.651263 
L 176.835307 490.393491 
L 172.42354 481.441689 
L 157.89591 479.031542 
L 156.598355 473.878716 
L 162.365579 468.043137 
L 164.501096 463.812311 
L 159.135161 459.185826 
L 163.431126 448.961399 
L 157.197072 439.632031 
L 163.920473 438.350961 
L 164.545728 430.995871 
L 167.072885 428.718415 
L 167.273529 416.576807 
L 174.463761 412.363674 
L 170.113916 404.558239 
L 161.045909 404.014207 
L 158.381639 405.979237 
L 149.189786 405.997733 
L 145.288678 398.37887 
L 138.938017 400.64748 
L 133.291019 404.602067 
L 134.075101 393.518768 
z
" clip-path="url(#pd775530b5b)" style="fill: #e8edf4; stroke: #b8c5d4; stroke-width: 0.45"/>
    <path d="M 118.627481 249.917993 
L 131.245168 233.6686 
L 123.118059 217.84623 
L 156.052714 198.389741 
L 159.260614 206.727547 
L 156.052714 215.066961 
L 165.676817 214.853048 
L 177.439251 218.060948 
L 180.00541 229.178425 
L 168.242574 243.075974 
L 140.654955 252.270239 
z
" clip-path="url(#pd775530b5b)" style="fill: #e8edf4; stroke: #b8c5d4; stroke-width: 0.45"/>
    <path d="M 378.933013 355.613838 
L 384.3283 350.873963 
L 379.748458 345.030743 
L 380.390199 340.633451 
L 387.085856 343.966804 
L 394.588916 343.226953 
L 403.313536 337.949077 
L 406.010778 340.415517 
L 413.423769 339.920942 
L 416.794115 333.64507 
L 428.309262 335.595223 
L 435.164952 332.970358 
L 436.399378 326.590344 
L 445.827661 328.803063 
L 447.637081 325.842853 
L 463.016344 323.137971 
L 466.492843 328.550951 
L 488.746292 332.569873 
L 487.059913 340.234575 
L 490.787318 346.860268 
L 478.399629 344.593266 
L 465.747362 350.116419 
L 466.607841 357.841435 
L 464.702723 362.274915 
L 469.803679 370.197761 
L 484.395643 378.035363 
L 492.221987 390.900739 
L 509.538535 403.441626 
L 521.73322 403.345526 
L 525.525764 406.785032 
L 521.159835 409.885171 
L 546.523074 420.217359 
L 559.867746 428.33321 
L 561.479335 431.23954 
L 558.571397 436.81215 
L 549.934433 429.546325 
L 536.414449 426.985393 
L 529.865154 437.051396 
L 541.112507 442.820228 
L 539.266095 450.940904 
L 532.765051 451.863708 
L 524.452979 465.210792 
L 517.965606 466.409834 
L 518.02592 461.651864 
L 521.200848 453.305212 
L 524.583257 449.981107 
L 513.756494 433.114903 
L 507.296463 431.176009 
L 502.702146 424.459443 
L 492.702086 421.630315 
L 485.968632 415.375352 
L 474.454289 414.366902 
L 448.058475 397.212397 
L 437.476988 388.24813 
L 432.622918 372.864443 
L 424.88021 371.055024 
L 412.219902 365.918684 
L 405.055404 368.02123 
L 396.063794 375.243227 
L 389.596526 376.383966 
L 391.376995 369.629201 
L 382.941883 367.654923 
z
" clip-path="url(#pd775530b5b)" style="fill: #e8edf4; stroke: #b8c5d4; stroke-width: 0.45"/>
    <path d="M 467.341259 471.014606 
L 469.518997 463.024611 
L 487.729801 464.447217 
L 515.417943 461.394122 
L 509.813567 473.64309 
L 512.142491 478.46459 
L 508.875886 486.46705 
L 496.974729 480.605737 
L 489.061534 478.926595 
z
" clip-path="url(#pd775530b5b)" style="fill: #e8edf4; stroke: #b8c5d4; stroke-width: 0.45"/>
    <path d="M 400.876046 419.083456 
L 409.435004 419.861909 
L 417.216313 415.037594 
L 426.552918 426.086313 
L 424.367139 446.669065 
L 417.291102 445.687153 
L 410.943658 450.8826 
L 405.051383 446.755113 
L 404.428138 427.980172 
z
" clip-path="url(#pd775530b5b)" style="fill: #e8edf4; stroke: #b8c5d4; stroke-width: 0.45"/>
    <path d="M 399.786374 176.472441 
L 406.843111 167.602264 
L 420.553687 166.636436 
L 426.01733 162.343286 
L 438.536102 157.953634 
L 438.008556 165.956898 
L 433.400567 171.025686 
L 435.267888 175.383573 
L 443.705413 177.739035 
L 439.902415 183.609597 
L 435.267888 181.919197 
L 424.063157 193.123928 
L 428.294786 200.700973 
L 418.337349 203.070107 
L 406.575316 201.017823 
L 400.258431 192.381261 
z
" clip-path="url(#pd775530b5b)" style="fill: #e8edf4; stroke: #b8c5d4; stroke-width: 0.45"/>
    <path d="M 443.576743 188.300417 
L 466.405991 183.142364 
L 471.371842 190.945386 
L 462.034433 203.550206 
L 445.749655 194.760045 
z
" clip-path="url(#pd775530b5b)" style="fill: #e8edf4; stroke: #b8c5d4; stroke-width: 0.45"/>
    <path d="M 178.184732 172.659793 
L 183.836153 156.571237 
L 195.925087 143.947921 
L 208.351377 145.179935 
L 227.12672 143.870317 
L 210.49373 160.707973 
L 226.34867 158.576074 
L 243.400239 158.657297 
L 239.343118 171.336906 
L 225.352685 185.283913 
L 241.443653 186.276681 
L 256.539039 206.273986 
L 267.191294 208.773398 
L 281.204244 232.651304 
L 300.058397 235.615536 
L 298.166951 245.567746 
L 290.23928 250.131103 
L 296.453229 258.181814 
L 282.454754 266.331441 
L 261.635169 266.187491 
L 235.141243 270.466568 
L 227.885068 267.403019 
L 217.595904 274.694176 
L 203.20016 272.928183 
L 192.267647 278.870317 
L 183.995784 275.76294 
L 206.818598 259.417849 
L 220.748717 256.056349 
L 196.323964 253.450383 
L 191.921042 247.257744 
L 208.182498 242.434233 
L 199.659729 234.051795 
L 202.616723 223.858731 
L 225.744416 225.266409 
L 228.060381 216.233434 
L 217.400486 206.429194 
L 198.505722 203.690939 
L 194.796411 199.479414 
L 200.451853 192.525211 
L 195.33401 188.23769 
L 186.95519 195.595997 
L 186.043243 180.59631 
z
" clip-path="url(#pd775530b5b)" style="fill: #e8edf4; stroke: #b8c5d4; stroke-width: 0.45"/>
    <path d="M 156.052714 215.066961 
L 159.260614 206.727547 
L 156.052714 198.389741 
L 169.09863 197.748 
L 185.77947 207.369288 
L 177.439251 218.060948 
L 165.676817 214.853048 
z
" clip-path="url(#pd775530b5b)" style="fill: #e8edf4; stroke: #b8c5d4; stroke-width: 0.45"/>
    <path d="M -104.672602 35.307145 
L -94.157863 25.171178 
L -70.572279 22.868792 
L -46.316806 33.425349 
L -22.67131 24.952037 
L -3.090976 29.352144 
L 22.287543 21.058568 
L 48.106756 22.161912 
L 44.512846 32.23274 
L 62.096385 42.847198 
L 41.864258 54.714579 
L -16.437256 68.217675 
L -80.34596 61.000101 
L -65.025402 54.122698 
L -98.896935 46.51268 
L -71.342287 43.496177 
L -72.011772 38.926789 
z
" clip-path="url(#pd775530b5b)" style="fill: #e8edf4; stroke: #b8c5d4; stroke-width: 0.45"/>
    <path d="M 464.370594 274.103099 
L 475.67987 270.714659 
L 481.45795 266.837274 
L 492.632926 263.823183 
L 496.535643 260.860962 
L 500.639407 262.649472 
L 507.584362 261.02582 
L 514.960361 266.035902 
L 526.595332 267.38975 
L 525.624679 271.671239 
L 534.078287 274.890398 
L 536.401582 270.871878 
L 547.073942 272.612137 
L 548.550428 277.484704 
L 560.12026 278.424798 
L 567.282345 286.087489 
L 562.642189 286.106387 
L 560.230434 288.907771 
L 556.659041 289.584494 
L 555.639333 293.125328 
L 552.659822 293.864375 
L 552.239232 295.311911 
L 546.925167 296.921892 
L 540.030876 296.658119 
L 537.825797 300.081541 
L 530.651649 297.143043 
L 523.343201 297.950849 
L 511.263515 293.201725 
L 505.786201 294.363775 
L 497.031826 300.730118 
L 485.470037 295.721242 
L 476.683494 289.031214 
L 468.742152 285.290942 
L 467.095178 278.728378 
z
" clip-path="url(#pd775530b5b)" style="fill: #e8edf4; stroke: #b8c5d4; stroke-width: 0.45"/>
   </g>
   <g id="PathCollection_1">
    <defs>
     <path id="m47a140b35c" d="M 0 2.12132 
C 0.562581 2.12132 1.102195 1.897805 1.5 1.5 
C 1.897805 1.102195 2.12132 0.562581 2.12132 0 
C 2.12132 -0.562581 1.897805 -1.102195 1.5 -1.5 
C 1.102195 -1.897805 0.562581 -2.12132 0 -2.12132 
C -0.562581 -2.12132 -1.102195 -1.897805 -1.5 -1.5 
C -1.897805 -1.102195 -2.12132 -0.562581 -2.12132 0 
C -2.12132 0.562581 -1.897805 1.102195 -1.5 1.5 
C -1.102195 1.897805 -0.562581 2.12132 0 2.12132 
z
" style="stroke: #ffffff; stroke-width: 0.5"/>
    </defs>
    <g clip-path="url(#pd775530b5b)">
     <use xlink:href="#m47a140b35c" x="297.233422" y="394.962532" style="fill: #8aa0b7; stroke: #ffffff; stroke-width: 0.5"/>
     <use xlink:href="#m47a140b35c" x="164.956768" y="91.504326" style="fill: #8aa0b7; stroke: #ffffff; stroke-width: 0.5"/>
     <use xlink:href="#m47a140b35c" x="255.616075" y="241.591642" style="fill: #8aa0b7; stroke: #ffffff; stroke-width: 0.5"/>
     <use xlink:href="#m47a140b35c" x="172.857575" y="203.741845" style="fill: #8aa0b7; stroke: #ffffff; stroke-width: 0.5"/>
     <use xlink:href="#m47a140b35c" x="233.688755" y="286.547549" style="fill: #8aa0b7; stroke: #ffffff; stroke-width: 0.5"/>
     <use xlink:href="#m47a140b35c" x="203.861667" y="212.10951" style="fill: #8aa0b7; stroke: #ffffff; stroke-width: 0.5"/>
     <use xlink:href="#m47a140b35c" x="240.172905" y="289.919307" style="fill: #8aa0b7; stroke: #ffffff; stroke-width: 0.5"/>
     <use xlink:href="#m47a140b35c" x="422.247829" y="320.783859" style="fill: #8aa0b7; stroke: #ffffff; stroke-width: 0.5"/>
     <use xlink:href="#m47a140b35c" x="369.855899" y="282.138327" style="fill: #8aa0b7; stroke: #ffffff; stroke-width: 0.5"/>
     <use xlink:href="#m47a140b35c" x="389.048982" y="375.769449" style="fill: #8aa0b7; stroke: #ffffff; stroke-width: 0.5"/>
     <use xlink:href="#m47a140b35c" x="467.118145" y="375.250717" style="fill: #8aa0b7; stroke: #ffffff; stroke-width: 0.5"/>
     <use xlink:href="#m47a140b35c" x="467.689787" y="404.254578" style="fill: #8aa0b7; stroke: #ffffff; stroke-width: 0.5"/>
    </g>
   </g>
   <g id="PatchCollection_2">
    <path d="M 178.184732 172.659793 
L 183.836153 156.571237 
L 195.925087 143.947921 
L 208.351377 145.179935 
L 227.12672 143.870317 
L 210.49373 160.707973 
L 226.34867 158.576074 
L 243.400239 158.657297 
L 239.343118 171.336906 
L 225.352685 185.283913 
L 241.443653 186.276681 
L 256.539039 206.273986 
L 267.191294 208.773398 
L 281.204244 232.651304 
L 300.058397 235.615536 
L 298.166951 245.567746 
L 290.23928 250.131103 
L 296.453229 258.181814 
L 282.454754 266.331441 
L 261.635169 266.187491 
L 235.141243 270.466568 
L 227.885068 267.403019 
L 217.595904 274.694176 
L 203.20016 272.928183 
L 192.267647 278.870317 
L 183.995784 275.76294 
L 206.818598 259.417849 
L 220.748717 256.056349 
L 196.323964 253.450383 
L 191.921042 247.257744 
L 208.182498 242.434233 
L 199.659729 234.051795 
L 202.616723 223.858731 
L 225.744416 225.266409 
L 228.060381 216.233434 
L 217.400486 206.429194 
L 198.505722 203.690939 
L 194.796411 199.479414 
L 200.451853 192.525211 
L 195.33401 188.23769 
L 186.95519 195.595997 
L 186.043243 180.59631 
z
" clip-path="url(#pd775530b5b)" style="fill: #f59e0b; stroke: #b45309; stroke-width: 1.15"/>
    <path d="M 156.052714 215.066961 
L 159.260614 206.727547 
L 156.052714 198.389741 
L 169.09863 197.748 
L 185.77947 207.369288 
L 177.439251 218.060948 
L 165.676817 214.853048 
z
" clip-path="url(#pd775530b5b)" style="fill: #f59e0b; stroke: #b45309; stroke-width: 1.15"/>
   </g>
   <g id="PathCollection_2">
    <defs>
     <path id="m252e724250" d="M 0 3.316625 
C 0.879579 3.316625 1.723251 2.967164 2.345208 2.345208 
C 2.967164 1.723251 3.316625 0.879579 3.316625 0 
C 3.316625 -0.879579 2.967164 -1.723251 2.345208 -2.345208 
C 1.723251 -2.967164 0.879579 -3.316625 0 -3.316625 
C -0.879579 -3.316625 -1.723251 -2.967164 -2.345208 -2.345208 
C -2.967164 -1.723251 -3.316625 -0.879579 -3.316625 0 
C -3.316625 0.879579 -2.967164 1.723251 -2.345208 2.345208 
C -1.723251 2.967164 -0.879579 3.316625 0 3.316625 
z
" style="stroke: #ffffff"/>
    </defs>
    <g clip-path="url(#pd775530b5b)">
     <use xlink:href="#m252e724250" x="242.766565" y="216" style="fill: #f97316; stroke: #ffffff"/>
    </g>
   </g>
   <g id="PathCollection_3">
    <path d="M 242.766565 220.449719 
C 243.946644 220.449719 245.078549 219.980869 245.912991 219.146427 
C 246.747434 218.311984 247.216284 217.180079 247.216284 216 
C 247.216284 214.819921 246.747434 213.688016 245.912991 212.853573 
C 245.078549 212.019131 243.946644 211.550281 242.766565 211.550281 
C 241.586486 211.550281 240.45458 212.019131 239.620138 212.853573 
C 238.785696 213.688016 238.316846 214.819921 238.316846 216 
C 238.316846 217.180079 238.785696 218.311984 239.620138 219.146427 
C 240.45458 219.980869 241.586486 220.449719 242.766565 220.449719 
L 242.766565 220.449719 
z
" clip-path="url(#pd775530b5b)" style="fill: none; stroke: #7c2d12; stroke-width: 1.1"/>
   </g>
  </g>
 </g>
 <defs>
  <clipPath id="pd775530b5b">
   <rect x="0" y="0" width="485.53313" height="432"/>
  </clipPath>
 </defs>
</svg>
