<?xml version="1.0" encoding="utf-8" standalone="no"?>
<!DOCTYPE svg PUBLIC "-//W3C//DTD SVG 1.1//EN"
  "http://www.w3.org/Graphics/SVG/1.1/DTD/svg11.dtd">
<svg xmlns:xlink="http://www.w3.org/1999/xlink" width="468pt" height="432pt" viewBox="0 0 468 432" xmlns="http://www.w3.org/2000/svg" version="1.1">
 <metadata>
  <rdf:RDF xmlns:dc="http://purl.org/dc/elements/1.1/" xmlns:cc="http://creativecommons.org/ns#" xmlns:rdf="http://www.w3.org/1999/02/22-rdf-syntax-ns#">
   <cc:Work>
    <dc:type rdf:resource="http://purl.org/dc/dcmitype/StillImage"/>
    <dc:date>2026-06-09T04:57:12.737097</dc:date>
    <dc:format>image/svg+xml</dc:format>
    <dc:creator>
     <cc:Agent>
      <dc:title>Matplotlib v3.10.8, https://matplotlib.org/</dc:title>
     </cc:Agent>
    </dc:creator>
   </cc:Work>
  </rdf:RDF>
 </metadata>
 <defs>
  <style type="text/css">*{stroke-linejoin: round; stroke-linecap: butt}</style>
 </defs>
 <g id="figure_1">
  <g id="patch_1">
   <path d="M 0 432 
L 468 432 
L 468 0 
L 0 0 
z
" style="fill: #eaf3ff"/>
  </g>
  <g id="axes_1">
   <g id="PatchCollection_1">
    <path d="M 563.527937 259.574394 
L 566.503011 254.859147 
L 567.528437 249.142659 
L 571.147193 238.289368 
L 572.657054 235.321363 
L 578.777611 229.973596 
L 584.401081 232.099606 
L 593.478481 233.098615 
L 601.758161 232.796866 
L 608.875122 227.568534 
L 610.131604 229.17718 
L 604.346655 236.319256 
L 598.935636 237.703729 
L 592.006198 236.295815 
L 580.008419 236.655235 
L 573.718198 237.691823 
L 572.694261 243.141537 
L 579.138519 249.544123 
L 583.025909 246.282926 
L 596.452067 243.832843 
L 595.860475 247.148734 
L 592.72355 246.102844 
L 589.597415 250.321378 
L 583.25957 253.112277 
L 590.072921 262.339621 
L 588.757653 264.8124 
L 595.230932 273.122591 
L 595.168796 277.852348 
L 591.32531 279.969056 
L 588.50204 277.437118 
L 591.980898 271.542036 
L 584.915282 274.329587 
L 583.124136 272.336778 
L 584.058032 269.557041 
L 578.866907 265.335159 
L 579.4012 258.319029 
L 574.599261 260.507547 
L 575.501159 279.203336 
L 570.935113 280.248481 
L 567.84172 278.135122 
L 569.905966 271.507805 
L 568.791615 264.559764 
L 565.764079 264.506558 
z
" clip-path="url(#p93e29deab4)" style="fill: #e8edf4; stroke: #b8c5d4; stroke-width: 0.45"/>
    <path d="M 492.859134 236.409297 
L 493.697781 229.738076 
L 497.975473 224.953438 
L 499.177632 229.765423 
L 504.101239 233.833454 
L 508.745792 232.369357 
L 513.342349 232.888023 
L 517.537814 229.247129 
L 520.990626 228.615912 
L 527.802117 230.633649 
L 533.673759 229.099045 
L 537.365069 219.085331 
L 540.137365 216.581484 
L 542.631724 208.392774 
L 550.909544 208.396123 
L 557.150652 209.60963 
L 553.055274 216.112117 
L 558.347974 222.928631 
L 557.104515 226.240987 
L 565.17658 232.904022 
L 556.64538 233.753459 
L 554.244038 238.662182 
L 554.555833 245.186807 
L 547.632349 250.111158 
L 547.443337 257.281325 
L 544.666204 268.29163 
L 543.606176 265.73067 
L 535.426582 268.970286 
L 532.574291 264.569066 
L 527.440837 264.162021 
L 523.850359 261.855185 
L 515.290509 264.444423 
L 512.663693 260.959984 
L 507.947329 261.355867 
L 502.011692 260.525034 
L 500.910736 250.868693 
L 497.318025 248.867327 
L 493.861491 242.708447 
z
" clip-path="url(#p93e29deab4)" style="fill: #e8edf4; stroke: #b8c5d4; stroke-width: 0.45"/>
    <path d="M 648.140819 246.151586 
L 657.846273 244.40732 
L 661.536838 242.060673 
L 673.095947 245.017515 
L 674.232249 247.693445 
L 676.242917 259.33813 
L 683.694741 263.64782 
L 689.711863 256.010705 
L 697.973312 251.665296 
L 704.374037 251.659342 
L 715.872126 256.745172 
L 723.601515 258.121088 
L 723.843733 305.048828 
L 717.432589 299.139607 
L 710.119919 297.691509 
L 708.346632 299.742733 
L 699.224212 299.964115 
L 702.281514 294.104752 
L 706.814074 292.105618 
L 704.93698 284.276514 
L 701.480447 278.232232 
L 687.522601 272.135116 
L 681.585103 271.533106 
L 670.77274 264.879745 
L 668.647474 268.378694 
L 665.88448 269.013446 
L 664.249975 266.373235 
L 664.227279 263.244868 
L 658.726591 259.707967 
L 666.481281 257.115009 
L 671.616223 257.254908 
L 671.012725 255.344699 
L 660.473089 255.330188 
L 657.620798 251.043566 
L 651.188447 249.714159 
z
" clip-path="url(#p93e29deab4)" style="fill: #e8edf4; stroke: #b8c5d4; stroke-width: 0.45"/>
    <path d="M 394.509788 199.94529 
L 410.291151 201.626489 
L 416.658018 208.667734 
L 426.196784 216.544835 
L 433.018322 224.284455 
L 440.337689 224.397379 
L 446.387552 229.329357 
L 450.553251 235.358198 
L 456.036451 238.6473 
L 453.151046 244.52601 
L 457.277678 247.026323 
L 459.863939 247.21087 
L 461.084329 252.233075 
L 463.592827 256.251062 
L 468.879202 256.887675 
L 472.381872 261.444792 
L 470.573611 270.39978 
L 470.287116 281.536961 
L 462.314766 281.687649 
L 456.251136 275.668668 
L 447.006677 269.785864 
L 443.924447 265.421851 
L 438.473616 259.558395 
L 434.898021 254.161887 
L 429.422262 244.082503 
L 423.098927 238.081381 
L 418.32973 226.270753 
L 411.837103 221.737076 
L 408.073984 215.576708 
L 402.652919 211.54421 
L 395.142308 203.610368 
z
" clip-path="url(#p93e29deab4)" style="fill: #e8edf4; stroke: #b8c5d4; stroke-width: 0.45"/>
    <path d="M 467.031501 288.730196 
L 471.971851 281.850616 
L 480.708062 282.275892 
L 486.519056 285.089488 
L 489.505292 285.638292 
L 490.489046 288.199252 
L 504.282437 288.916975 
L 505.868945 285.949342 
L 519.226641 289.411457 
L 521.847132 294.078335 
L 532.648333 295.390999 
L 541.479794 299.669807 
L 533.264482 302.413082 
L 525.346081 299.512422 
L 511.358842 299.175326 
L 504.620277 297.882754 
L 496.279204 295.132782 
L 490.994318 294.419523 
L 487.999896 295.319933 
L 474.869534 292.355277 
L 473.620494 289.25928 
z
" clip-path="url(#p93e29deab4)" style="fill: #e8edf4; stroke: #b8c5d4; stroke-width: 0.45"/>
    <path d="M 625.676329 232.115605 
L 627.123683 226.363026 
L 629.513118 223.742907 
L 630.029924 227.674574 
L 634.280827 228.306163 
L 634.955391 231.246821 
L 634.578856 237.538902 
L 630.865222 236.833829 
L 629.769847 241.214957 
L 632.735991 245.016027 
L 630.720115 245.879974 
L 627.814617 241.319508 
z
" clip-path="url(#p93e29deab4)" style="fill: #e8edf4; stroke: #b8c5d4; stroke-width: 0.45"/>
    <path d="M 629.272017 263.832739 
L 630.978331 259.874283 
L 639.871184 259.57551 
L 647.793677 261.675103 
L 650.41082 267.181 
L 644.331935 264.213367 
L 638.31779 263.610985 
L 634.252922 264.086491 
z
" clip-path="url(#p93e29deab4)" style="fill: #e8edf4; stroke: #b8c5d4; stroke-width: 0.45"/>
    <path d="M 597.311921 313.127963 
L 597.960068 310.680112 
L 601.056065 306.288194 
L 608.174514 303.42809 
L 608.904144 304.84791 
L 609.037345 307.030846 
L 604.338841 312.408007 
L 598.175868 313.99191 
z
" clip-path="url(#p93e29deab4)" style="fill: #e8edf4; stroke: #b8c5d4; stroke-width: 0.45"/>
    <path d="M 571.830686 300.202984 
L 577.548662 298.706145 
L 582.060015 300.864525 
L 586.853025 300.316466 
L 593.305468 297.678487 
L 592.250277 301.678615 
L 581.432332 303.722397 
L 571.855615 302.835009 
z
" clip-path="url(#p93e29deab4)" style="fill: #e8edf4; stroke: #b8c5d4; stroke-width: 0.45"/>
    <path d="M 548.929014 304.437144 
L 551.402909 300.291537 
L 555.350575 300.234982 
L 557.280132 297.688905 
L 559.876439 299.60916 
L 564.324911 299.020917 
L 566.110849 302.081939 
L 552.799661 304.494443 
z
" clip-path="url(#p93e29deab4)" style="fill: #e8edf4; stroke: #b8c5d4; stroke-width: 0.45"/>
    <path d="M 674.011984 283.625763 
L 676.797302 278.604302 
L 678.434411 280.710592 
L 678.417296 284.143685 
L 674.712964 289.045712 
z
" clip-path="url(#p93e29deab4)" style="fill: #e8edf4; stroke: #b8c5d4; stroke-width: 0.45"/>
    <path d="M 615.521042 262.276369 
L 622.804691 261.931088 
L 624.594349 264.305268 
L 621.899444 266.695076 
L 616.923375 265.37311 
z
" clip-path="url(#p93e29deab4)" style="fill: #e8edf4; stroke: #b8c5d4; stroke-width: 0.45"/>
    <path d="M 564.968221 308.217379 
L 571.68223 306.801651 
L 577.983613 311.181663 
L 577.552383 313.124986 
L 574.524103 313.26228 
z
" clip-path="url(#p93e29deab4)" style="fill: #e8edf4; stroke: #b8c5d4; stroke-width: 0.45"/>
    <path d="M 3.46356 219.351456 
L 11.725992 208.914264 
L 16.341624 208.781352 
L 22.758264 203.70564 
L 32.13792 203.388336 
L 52.483824 181.7784 
L 60.754532 171.347407 
L 60.827074 157.243556 
L 70.263216 155.307096 
L 73.670544 152.84232 
L 76.40064 152.822592 
L 75.926232 162.78552 
L 74.406096 165.386016 
L 72.377208 173.169072 
L 64.45944 190.406448 
L 58.28076 200.958408 
L 43.666272 218.841912 
L 36.460728 224.670528 
L 25.69068 231.819624 
L 18.978984 237.29616 
L 11.099304 246.017952 
L 9.43884 249.814584 
L 7.812936 251.5194 
L 3.5496 245.579688 
z
" clip-path="url(#p93e29deab4)" style="fill: #e8edf4; stroke: #b8c5d4; stroke-width: 0.45"/>
    <path d="M -47.566303 238.609343 
L -41.96088 230.926032 
L -39.340872 225.677952 
L -43.350264 213.79968 
L -46.764 208.800828 
L -37.454349 199.7568 
L -33.714377 200.964729 
L -33.714377 205.005847 
L -31.254634 207.375378 
L -26.243329 207.375378 
L -17.129412 213.490044 
L -13.167792 213.364296 
L -11.573928 214.194672 
L -6.772433 214.761168 
L -4.644432 211.760712 
L 1.933056 208.749456 
L 4.83696 211.182552 
L 9.756598 211.183834 
L 3.46356 219.351456 
L 3.5496 245.579688 
L 7.812936 251.5194 
L 2.770344 254.39436 
L 0.99252 257.398488 
L -1.706112 257.926248 
L -2.727432 262.999296 
L -5.039568 265.904352 
L -6.444792 270.695016 
L -9.344016 273.072744 
L -19.67832 265.875264 
L -20.169432 261.698328 
L -47.493279 246.24 
z
" clip-path="url(#p93e29deab4)" style="fill: #e8edf4; stroke: #b8c5d4; stroke-width: 0.45"/>
    <path d="M -74.307735 345.931914 
L -52.459022 339.997392 
L -48.314159 343.453181 
L -46.333257 342.79164 
L -43.490639 344.613669 
L -43.072804 347.498702 
L -44.587503 350.846218 
L -44.054698 355.92163 
L -39.356566 360.369358 
L -37.158747 355.37357 
L -34.042286 353.857383 
L -34.654714 344.59953 
L -37.670716 339.392406 
L -40.26851 337.071059 
L -42.768079 337.175983 
L -44.783956 327.816182 
L -42.768079 322.344144 
L -37.350735 321.761854 
L -28.698612 323.790754 
L -26.818913 322.88067 
L -21.806712 322.695072 
L -19.240992 320.535288 
L -14.921593 320.653457 
L -7.0488 317.857536 
L -1.320562 313.683092 
L -0.15561 316.911174 
L -0.451778 324.084317 
L 0.437842 330.402071 
L 0.717267 341.654221 
L 1.983422 345.180704 
L -2.9573 355.325573 
L -7.541578 359.790417 
L -22.239844 366.02185 
L -30.374789 373.749751 
L -33.145224 375.064275 
L -38.171522 380.180242 
L -41.138039 381.844884 
L -41.746374 386.978711 
L -38.331885 392.431401 
L -36.91132 396.654027 
L -36.821893 398.808 
L -35.549672 398.448 
L -35.75567 405.509673 
L -36.923226 408.854585 
L -35.226214 410.087254 
L -36.297032 413.082792 
L -39.306709 415.644124 
L -53.904887 421.974528 
L -57.062648 424.636691 
L -56.445384 427.669808 
L -54.605124 428.154244 
L -55.223133 431.94378 
L -60.684009 431.883505 
L -62.982659 422.886844 
L -61.69976 414.8598 
L -67.021854 399.61087 
L -59.436085 391.438717 
L -57.53741 386.246104 
L -56.449848 385.590888 
L -55.636503 381.352263 
L -56.793641 379.219556 
L -56.484823 373.839048 
L -55.081002 368.849213 
L -55.097001 359.736467 
L -58.836679 357.422933 
L -62.265307 356.899802 
L -63.817213 355.11833 
L -67.153939 353.598795 
L -73.159526 353.742042 
z
" clip-path="url(#p93e29deab4)" style="fill: #e8edf4; stroke: #b8c5d4; stroke-width: 0.45"/>
    <path d="M 19.830147 398.213374 
L 21.119742 393.022621 
L 24.434517 391.775813 
L 24.453865 389.379308 
L 27.895143 383.921037 
L 28.543661 379.33527 
L 25.509428 371.385988 
L 24.934207 364.751602 
L 27.449775 360.723569 
L 28.414925 356.156778 
L 32.003543 355.891492 
L 38.685554 353.112871 
L 41.848152 353.016133 
L 45.951715 348.913313 
L 51.876935 344.478979 
L 54.037547 340.856875 
L 53.057142 337.779853 
L 56.11556 338.645289 
L 60.084434 333.642059 
L 60.217263 329.312649 
L 62.60149 326.092008 
L 67.024661 332.246051 
L 68.806878 337.001482 
L 69.965505 345.663279 
L 71.831066 349.030887 
L 71.115202 352.4837 
L 69.841978 354.601896 
L 67.39636 350.382619 
L 66.042768 352.513466 
L 67.416079 357.847466 
L 66.776863 360.900302 
L 64.790007 362.563457 
L 64.336453 368.662061 
L 53.501394 400.618808 
L 50.743609 410.630104 
L 47.489482 418.979734 
L 41.633839 420.684932 
L 35.348455 423.730328 
L 25.485988 419.316086 
L 23.499132 415.516876 
L 23.023998 409.133637 
L 20.488711 403.393709 
z
" clip-path="url(#p93e29deab4)" style="fill: #e8edf4; stroke: #b8c5d4; stroke-width: 0.45"/>
    <path d="M 79.772534 64.832421 
L 81.053573 64.482675 
L 81.319603 66.457252 
L 86.95498 65.322437 
L 97.257607 65.723343 
L 112.109909 51.800658 
L 113.4795 54.254834 
L 114.457301 59.941928 
L 110.780874 59.97002 
L 110.189655 64.65885 
L 111.46474 65.660091 
L 108.206148 67.078051 
L 108.186056 70.020941 
L 106.088323 73.000852 
L 105.900056 75.900024 
L 104.448982 77.421978 
L 82.80528 73.791688 
z
" clip-path="url(#p93e29deab4)" style="fill: #e8edf4; stroke: #b8c5d4; stroke-width: 0.45"/>
    <path d="M 73.756157 55.926546 
L 75.696132 52.14966 
L 77.662524 51.375009 
L 79.841367 53.631988 
L 79.968243 57.847173 
L 78.405176 62.082821 
L 76.409391 62.594418 
L 74.23278 61.165854 
z
" clip-path="url(#p93e29deab4)" style="fill: #e8edf4; stroke: #b8c5d4; stroke-width: 0.45"/>
    <path d="M 43.694737 29.887019 
L 48.978879 22.974696 
L 53.816537 23.574102 
L 55.318957 26.751768 
L 54.676392 28.394645 
L 56.995878 33.825569 
L 51.903724 34.012348 
L 50.110717 30.58186 
z
" clip-path="url(#p93e29deab4)" style="fill: #e8edf4; stroke: #b8c5d4; stroke-width: 0.45"/>
    <path d="M -12.295148 -0.926542 
L 3.644344 -8.41948 
L 6.36455 -17.123879 
L 5.685894 -22.383465 
L 9.626863 -24.162147 
L 13.317056 -28.655082 
L 16.409704 -29.773898 
L 24.784263 -28.844838 
L 27.312853 -27.010904 
L 30.763275 -28.227146 
L 35.42845 -19.63833 
L 40.149651 -17.47716 
L 40.692873 -13.271463 
L 37.068908 -10.786592 
L 35.400173 -5.168144 
L 40.387404 1.675531 
L 49.209563 5.622081 
L 52.914267 11.093933 
L 51.73406 16.309057 
L 54.033826 16.30701 
L 54.104892 20.142311 
L 58.089393 23.927196 
L 48.978879 22.974696 
L 43.694737 29.887019 
L 30.308391 29.311984 
L 10.007863 14.831938 
L -0.720041 9.792059 
L -9.392628 7.840737 
z
" clip-path="url(#p93e29deab4)" style="fill: #e8edf4; stroke: #b8c5d4; stroke-width: 0.45"/>
    <path d="M 82.800071 102.599976 
L 104.399868 95.400043 
L 109.199948 80.999992 
L 105.900056 75.900024 
L 106.088323 73.000852 
L 108.186056 70.020941 
L 108.206148 67.078051 
L 111.46474 65.660091 
L 110.189655 64.65885 
L 110.780874 59.97002 
L 114.457301 59.941928 
L 117.685011 64.859954 
L 121.704859 67.47412 
L 131.250323 69.727192 
L 136.440703 76.24605 
L 139.018034 77.157994 
L 139.004268 78.764221 
L 135.233335 85.076022 
L 132.200218 87.378951 
L 129.513498 92.311301 
L 126.247093 91.93365 
L 124.749882 93.650383 
L 123.593488 97.300764 
L 124.478643 102.113494 
L 123.799615 102.998091 
L 120.4867 102.974465 
L 115.989487 105.665277 
L 115.287762 109.172784 
L 113.641351 110.692319 
L 109.16274 110.634276 
L 106.343564 112.447375 
L 106.379282 115.355848 
L 102.895216 117.354982 
L 98.922621 116.67614 
L 94.107659 119.104829 
L 90.781723 119.512432 
z
" clip-path="url(#p93e29deab4)" style="fill: #e8edf4; stroke: #b8c5d4; stroke-width: 0.45"/>
    <path d="M 112.109909 51.800658 
L 114.206526 49.349273 
L 115.09689 49.974351 
L 114.418234 52.948867 
L 113.4795 54.254834 
z
" clip-path="url(#p93e29deab4)" style="fill: #e8edf4; stroke: #b8c5d4; stroke-width: 0.45"/>
    <path d="M 445.306316 142.961419 
L 449.916639 136.974808 
L 459.22621 135.59945 
L 465.975194 136.632875 
L 471.916412 139.456145 
L 475.173888 134.491797 
L 481.555638 137.142425 
L 483.224745 141.944179 
L 482.338102 150.572117 
L 470.235771 156.113175 
L 473.397624 160.474955 
L 465.839388 160.996969 
L 459.60721 163.896885 
L 453.580415 162.845601 
L 450.652966 159.093644 
L 447.011514 151.656516 
z
" clip-path="url(#p93e29deab4)" style="fill: #e8edf4; stroke: #b8c5d4; stroke-width: 0.45"/>
    <path d="M 409.506454 106.592848 
L 412.544036 105.285021 
L 415.826813 97.500938 
L 420.909665 97.178539 
L 425.111827 94.056497 
L 429.235111 92.391483 
L 432.351944 94.613487 
L 432.765314 98.93992 
L 437.630505 99.269388 
L 435.858706 106.855716 
L 436.028742 113.31002 
L 443.617861 109.014468 
L 445.773636 110.283972 
L 449.990681 110.075799 
L 451.441383 107.570649 
L 456.886632 108.065131 
L 462.362019 113.912216 
L 462.811108 121.018572 
L 468.641077 127.293724 
L 468.319237 133.387678 
L 465.975194 136.632875 
L 459.22621 135.59945 
L 449.916639 136.974808 
L 445.306316 142.961419 
L 447.011514 151.656516 
L 440.547536 148.350672 
L 434.389029 148.484989 
L 435.444964 142.828404 
L 429.104142 142.870634 
L 428.534874 150.789592 
L 422.307161 167.665958 
L 422.801271 172.877361 
L 427.491589 173.103393 
L 430.413457 179.674899 
L 431.706774 185.907077 
L 435.724761 190.030546 
L 440.086169 190.867518 
L 443.816546 194.60422 
L 441.462829 197.562179 
L 436.710375 198.422034 
L 436.143712 194.724957 
L 430.269094 191.571661 
L 429.017449 192.855676 
L 426.172972 190.092868 
L 424.941419 186.527132 
L 417.627261 179.047403 
L 416.445566 183.279516 
L 415.080068 179.279946 
L 417.985565 167.882689 
L 421.474468 160.484071 
L 425.428459 153.772108 
L 422.613747 147.205811 
L 422.726485 143.861085 
L 421.903837 139.841982 
L 417.101898 134.121401 
L 415.382933 130.509342 
L 417.869107 129.178819 
L 420.504109 122.919666 
L 417.555079 118.167584 
L 412.985684 112.910788 
z
" clip-path="url(#p93e29deab4)" style="fill: #e8edf4; stroke: #b8c5d4; stroke-width: 0.45"/>
    <path d="M 429.235111 92.391483 
L 430.769529 89.739924 
L 436.896038 85.056675 
L 437.544185 86.748106 
L 441.382462 86.944559 
L 440.294529 78.708969 
L 444.027138 77.653778 
L 448.235253 83.339012 
L 451.4678 89.880752 
L 460.332003 89.937121 
L 463.122531 96.216179 
L 458.520393 98.10239 
L 456.455031 100.690697 
L 465.081109 104.997783 
L 475.603257 119.849155 
L 481.051483 124.858524 
L 482.864581 129.944353 
L 481.555638 137.142425 
L 475.173888 134.491797 
L 471.916412 139.456145 
L 465.975194 136.632875 
L 468.319237 133.387678 
L 468.641077 127.293724 
L 462.811108 121.018572 
L 462.362019 113.912216 
L 456.886632 108.065131 
L 451.441383 107.570649 
L 449.990681 110.075799 
L 445.773636 110.283972 
L 443.617861 109.014468 
L 436.028742 113.31002 
L 435.858706 106.855716 
L 437.630505 99.269388 
L 432.765314 98.93992 
L 432.351944 94.613487 
z
" clip-path="url(#p93e29deab4)" style="fill: #e8edf4; stroke: #b8c5d4; stroke-width: 0.45"/>
    <path d="M 372.983288 84.776506 
L 375.496251 85.866858 
L 375.643591 80.70308 
L 379.196118 78.995091 
L 378.434118 75.937603 
L 380.061554 73.48566 
L 380.341351 66.034394 
L 385.968542 67.674666 
L 389.179137 61.738284 
L 389.543394 58.230033 
L 393.517105 52.190588 
L 393.298327 48.070281 
L 402.619433 43.094957 
L 407.764793 44.396831 
L 407.174318 39.966776 
L 409.698443 38.64574 
L 409.15522 35.916604 
L 413.366312 35.381195 
L 415.772863 39.620006 
L 418.915368 41.336552 
L 418.837234 52.785342 
L 412.017185 58.797812 
L 411.153982 67.338686 
L 418.75389 66.144341 
L 420.470994 72.772401 
L 425.030344 74.166921 
L 422.934472 80.148137 
L 431.399072 84.176356 
L 436.680238 82.080112 
L 436.896038 85.056675 
L 430.769529 89.739924 
L 429.235111 92.391483 
L 425.111827 94.056497 
L 420.909665 97.178539 
L 415.826813 97.500938 
L 412.544036 105.285021 
L 409.506454 106.592848 
L 412.985684 112.910788 
L 417.555079 118.167584 
L 420.504109 122.919666 
L 417.869107 129.178819 
L 415.382933 130.509342 
L 417.101898 134.121401 
L 421.903837 139.841982 
L 422.726485 143.861085 
L 422.613747 147.205811 
L 425.428459 153.772108 
L 421.474468 160.484071 
L 417.985565 167.882689 
L 417.291654 162.538085 
L 419.504728 157.0227 
L 417.084038 152.762495 
L 417.668933 144.918881 
L 414.745948 141.18869 
L 412.399673 132.571542 
L 411.098915 123.475911 
L 407.984687 117.513112 
L 395.059336 126.256392 
L 391.020513 125.615129 
L 386.55939 123.92686 
L 389.041099 115.00387 
L 387.538679 108.2627 
L 381.895116 99.961253 
L 382.775435 97.365877 
L 378.563599 96.442956 
L 373.453585 90.56964 
z
" clip-path="url(#p93e29deab4)" style="fill: #e8edf4; stroke: #b8c5d4; stroke-width: 0.45"/>
    <path d="M 444.027138 77.653778 
L 447.890344 75.896675 
L 453.632505 75.932952 
L 460.63338 75.102119 
L 466.770308 71.265144 
L 470.24098 73.966375 
L 476.822904 75.281271 
L 475.684368 79.428925 
L 479.112624 82.354328 
L 486.361298 84.222865 
L 476.74849 90.382675 
L 470.748112 97.185237 
L 469.166441 102.181211 
L 481.406066 119.178313 
L 487.940365 123.625855 
L 492.315167 129.407828 
L 495.613943 142.732596 
L 494.640979 155.398613 
L 488.636136 160.140092 
L 480.390686 164.775716 
L 474.516812 170.777954 
L 465.539499 177.481731 
L 462.925333 172.864524 
L 464.948652 167.986868 
L 459.60721 163.896885 
L 465.839388 160.996969 
L 473.397624 160.474955 
L 470.235771 156.113175 
L 482.338102 150.572117 
L 483.224745 141.944179 
L 481.555638 137.142425 
L 482.864581 129.944353 
L 481.051483 124.858524 
L 475.603257 119.849155 
L 465.081109 104.997783 
L 456.455031 100.690697 
L 458.520393 98.10239 
L 463.122531 96.216179 
L 460.332003 89.937121 
L 451.4678 89.880752 
L 448.235253 83.339012 
z
" clip-path="url(#p93e29deab4)" style="fill: #e8edf4; stroke: #b8c5d4; stroke-width: 0.45"/>
    <path d="M 199.271845 68.817852 
L 204.066715 64.014238 
L 219.911329 64.033028 
L 218.481835 57.851265 
L 214.436687 54.199953 
L 213.616272 48.658524 
L 208.903629 45.425047 
L 216.838773 37.877787 
L 225.199193 38.425102 
L 232.731012 30.87654 
L 237.244597 23.569823 
L 244.233938 16.345334 
L 244.122689 11.212996 
L 250.262221 7.048041 
L 244.451227 3.492723 
L 239.399628 -7.687432 
L 242.929459 -10.791987 
L 253.850839 -9.035443 
L 261.876396 -10.105517 
L 268.829646 -16.156868 
L 276.568336 -7.717942 
L 275.839823 -1.844626 
L 278.70402 1.840359 
L 278.468127 5.516785 
L 273.300815 4.549217 
L 275.32004 12.485476 
L 282.393841 17.044454 
L 292.401044 22.078937 
L 287.832393 25.34497 
L 285.036656 32.079815 
L 308.190592 42.375559 
L 318.060129 43.308711 
L 322.212806 46.971371 
L 336.437798 49.335134 
L 342.433711 49.214769 
L 343.258591 46.365083 
L 342.310556 41.790106 
L 342.867173 38.6889 
L 347.258347 37.174574 
L 348.016626 44.287442 
L 354.560599 47.020299 
L 359.087578 45.894786 
L 371.041081 46.164165 
L 371.546725 41.741179 
L 368.615927 39.443459 
L 374.422456 38.54249 
L 380.976103 33.187468 
L 389.275131 28.602446 
L 395.314576 30.37164 
L 400.447286 27.339825 
L 403.823452 31.816947 
L 401.391601 34.840577 
L 409.15522 35.916604 
L 409.698443 38.64574 
L 407.174318 39.966776 
L 407.764793 44.396831 
L 402.619433 43.094957 
L 393.298327 48.070281 
L 393.517105 52.190588 
L 389.543394 58.230033 
L 389.179137 61.738284 
L 385.968542 67.674666 
L 380.341351 66.034394 
L 380.061554 73.48566 
L 378.434118 75.937603 
L 379.196118 78.995091 
L 375.643591 80.70308 
L 371.85145 69.282009 
L 369.863479 69.304706 
L 368.68662 73.906099 
L 364.744535 70.174606 
L 366.967656 66.076996 
L 370.188668 65.661021 
L 373.508652 59.567812 
L 369.357091 58.338491 
L 362.679917 58.445276 
L 355.828987 57.457801 
L 355.193863 52.451409 
L 351.756677 52.096268 
L 346.053955 48.985016 
L 343.510483 53.869927 
L 348.707189 57.681415 
L 344.205882 60.364228 
L 342.60784 62.988068 
L 347.03957 64.917253 
L 345.814342 69.255779 
L 348.309446 74.670146 
L 349.430121 80.5989 
L 348.399115 83.227763 
L 343.501181 83.137164 
L 334.625072 84.631956 
L 335.038814 90.048184 
L 331.195327 94.308203 
L 320.833913 99.154233 
L 312.775242 107.625529 
L 307.362364 112.167206 
L 300.188104 116.88022 
L 300.176942 120.192018 
L 290.102394 124.545799 
L 286.73925 124.925869 
L 284.580498 130.417813 
L 286.461314 145.754923 
L 283.410337 152.59525 
L 283.377595 164.827619 
L 279.651683 165.176249 
L 276.374488 170.667821 
L 278.565982 173.040885 
L 272.001173 175.082063 
L 269.576391 179.978695 
L 266.687265 182.04815 
L 259.869448 175.325211 
L 253.774565 157.980595 
L 251.251928 154.575036 
L 247.426673 147.658063 
L 244.395788 134.156003 
L 237.846235 124.267304 
L 232.710548 101.100718 
L 232.736221 92.379576 
L 231.339841 85.636732 
L 220.861969 89.946423 
L 215.787302 89.083219 
L 206.381737 80.357054 
L 209.843479 77.754423 
L 207.717097 74.929107 
z
" clip-path="url(#p93e29deab4)" style="fill: #e8edf4; stroke: #b8c5d4; stroke-width: 0.45"/>
    <path d="M 342.60784 62.988068 
L 344.205882 60.364228 
L 348.707189 57.681415 
L 343.510483 53.869927 
L 346.053955 48.985016 
L 351.756677 52.096268 
L 355.193863 52.451409 
L 355.828987 57.457801 
L 362.679917 58.445276 
L 369.357091 58.338491 
L 373.508652 59.567812 
L 370.188668 65.661021 
L 366.967656 66.076996 
L 364.744535 70.174606 
L 368.68662 73.906099 
L 369.863479 69.304706 
L 371.85145 69.282009 
L 375.643591 80.70308 
L 375.496251 85.866858 
L 372.983288 84.776506 
L 373.453585 90.56964 
L 371.396781 86.816195 
L 370.98155 83.148698 
L 369.611215 79.682863 
L 366.603027 75.491863 
L 359.971245 75.203881 
L 360.626089 78.171885 
L 358.36539 82.178153 
L 355.301763 80.718149 
L 354.254757 82.028766 
L 349.430121 80.5989 
L 348.309446 74.670146 
L 345.814342 69.255779 
L 347.03957 64.917253 
z
" clip-path="url(#p93e29deab4)" style="fill: #e8edf4; stroke: #b8c5d4; stroke-width: 0.45"/>
    <path d="M 347.862589 42.844925 
L 352.625833 37.492136 
L 356.513968 35.665643 
L 361.6597 37.332332 
L 365.463747 37.507577 
L 371.546725 41.741179 
L 371.041081 46.164165 
L 359.087578 45.894786 
L 354.560599 47.020299 
L 348.016626 44.287442 
z
" clip-path="url(#p93e29deab4)" style="fill: #e8edf4; stroke: #b8c5d4; stroke-width: 0.45"/>
    <path d="M 285.036656 32.079815 
L 287.832393 25.34497 
L 295.385792 20.356438 
L 301.158091 22.57007 
L 308.427229 27.261133 
L 312.472749 28.294372 
L 314.888974 31.752765 
L 320.483795 33.172028 
L 326.327904 36.334253 
L 334.472523 37.985315 
L 342.867173 38.6889 
L 342.310556 41.790106 
L 343.258591 46.365083 
L 342.433711 49.214769 
L 336.437798 49.335134 
L 322.212806 46.971371 
L 318.060129 43.308711 
L 308.190592 42.375559 
z
" clip-path="url(#p93e29deab4)" style="fill: #e8edf4; stroke: #b8c5d4; stroke-width: 0.45"/>
    <path d="M 146.694589 24.629479 
L 158.758969 28.306278 
L 165.961878 27.228018 
L 170.265615 28.146102 
L 171.723015 26.567779 
L 176.737406 27.200299 
L 186.094603 24.206807 
L 186.346494 18.079925 
L 190.360017 14.004639 
L 195.720434 14.01729 
L 196.507363 12.002901 
L 202.00991 11.064168 
L 204.672073 11.734638 
L 207.487902 9.709832 
L 207.090158 5.386003 
L 210.14746 1.040407 
L 214.729878 -0.781435 
L 211.899911 -5.544865 
L 218.748982 -5.319762 
L 220.728768 -7.912162 
L 220.428135 -10.678505 
L 224.014149 -13.703065 
L 223.191129 -17.284055 
L 221.488907 -20.33559 
L 225.693302 -23.471585 
L 233.424179 -24.984051 
L 241.686372 -25.820465 
L 249.5378 -27.957823 
L 254.857661 -24.601004 
L 256.988508 -19.068505 
L 268.829646 -16.156868 
L 261.876396 -10.105517 
L 253.850839 -9.035443 
L 242.929459 -10.791987 
L 239.399628 -7.687432 
L 244.451227 3.492723 
L 250.262221 7.048041 
L 244.122689 11.212996 
L 244.233938 16.345334 
L 237.244597 23.569823 
L 232.731012 30.87654 
L 225.199193 38.425102 
L 216.838773 37.877787 
L 208.903629 45.425047 
L 213.616272 48.658524 
L 214.436687 54.199953 
L 218.481835 57.851265 
L 219.911329 64.033028 
L 204.066715 64.014238 
L 199.271845 68.817852 
L 193.9944 66.997126 
L 191.847182 61.822 
L 186.284359 56.338986 
L 173.018936 57.693321 
L 161.321045 57.827453 
L 151.181013 58.836694 
L 153.89415 50.472181 
L 164.279748 46.752966 
L 163.684064 43.437261 
L 160.239065 42.271751 
L 160.040379 35.930557 
L 153.15745 32.764797 
L 150.259023 28.416411 
z
" clip-path="url(#p93e29deab4)" style="fill: #e8edf4; stroke: #b8c5d4; stroke-width: 0.45"/>
    <path d="M 144.204695 -3.070411 
L 149.117883 -17.280521 
L 156.460691 -14.548781 
L 161.889569 -15.509094 
L 163.393477 -18.771593 
L 169.076851 -19.857294 
L 173.13465 -22.046928 
L 174.571957 -27.805088 
L 180.640424 -29.197561 
L 181.768541 -31.760381 
L 185.165171 -29.835289 
L 191.345631 -29.564236 
L 198.976049 -27.166429 
L 204.18801 -29.479218 
L 206.613164 -28.088233 
L 208.935255 -31.384776 
L 213.239365 -31.235204 
L 214.348134 -32.293186 
L 215.10939 -35.19645 
L 218.209108 -37.701228 
L 222.106544 -36.064118 
L 221.323708 -33.863509 
L 223.501808 -33.521576 
L 222.830593 -27.472643 
L 225.681396 -25.114833 
L 228.189894 -26.627671 
L 231.385606 -27.342418 
L 235.872402 -30.565849 
L 248.256018 -30.023929 
L 249.5378 -27.957823 
L 241.686372 -25.820465 
L 233.424179 -24.984051 
L 225.693302 -23.471585 
L 221.488907 -20.33559 
L 223.191129 -17.284055 
L 224.014149 -13.703065 
L 220.428135 -10.678505 
L 220.728768 -7.912162 
L 218.748982 -5.319762 
L 211.899911 -5.544865 
L 214.729878 -0.781435 
L 210.14746 1.040407 
L 207.090158 5.386003 
L 207.487902 9.709832 
L 204.672073 11.734638 
L 202.00991 11.064168 
L 196.507363 12.002901 
L 195.720434 14.01729 
L 190.360017 14.004639 
L 186.346494 18.079925 
L 186.094603 24.206807 
L 176.737406 27.200299 
L 171.723015 26.567779 
L 170.265615 28.146102 
L 165.961878 27.228018 
L 158.758969 28.306278 
L 146.694589 24.629479 
L 153.224795 18.101878 
L 152.635064 13.467556 
L 147.182001 12.253863 
L 146.618315 7.682979 
L 144.259761 1.934864 
L 147.338643 -2.007593 
z
" clip-path="url(#p93e29deab4)" style="fill: #e8edf4; stroke: #b8c5d4; stroke-width: 0.45"/>
    <path d="M 25.986422 -44.482581 
L 30.916726 -46.533619 
L 32.059354 -43.817506 
L 35.695597 -40.493802 
L 40.634086 -39.536651 
L 43.241183 -39.748359 
L 51.732572 -45.060221 
L 54.432686 -45.592095 
L 56.559812 -43.479108 
L 54.077359 -39.916907 
L 58.567503 -36.146718 
L 60.359394 -36.505766 
L 62.637208 -31.196695 
L 69.463954 -29.696879 
L 74.464951 -26.084262 
L 84.700978 -24.843036 
L 95.945687 -26.748222 
L 96.635505 -28.432212 
L 102.962189 -29.825429 
L 108.083365 -33.941643 
L 112.898698 -33.732912 
L 116.059436 -35.074039 
L 121.179123 -34.410452 
L 129.140312 -30.760628 
L 134.890286 -29.973513 
L 143.118993 -23.597158 
L 148.486108 -23.3395 
L 149.117883 -17.280521 
L 144.204695 -3.070411 
L 147.338643 -2.007593 
L 144.259761 1.934864 
L 146.618315 7.682979 
L 147.182001 12.253863 
L 152.635064 13.467556 
L 153.224795 18.101878 
L 146.694589 24.629479 
L 150.259023 28.416411 
L 153.15745 32.764797 
L 160.040379 35.930557 
L 160.239065 42.271751 
L 163.684064 43.437261 
L 164.279748 46.752966 
L 153.89415 50.472181 
L 151.181013 58.836694 
L 129.785482 55.008276 
L 121.66021 54.072705 
L 118.589514 45.244035 
L 115.143399 43.968206 
L 109.610713 45.254639 
L 102.348645 48.739263 
L 93.550298 46.350944 
L 86.281905 40.817886 
L 79.34949 38.767035 
L 74.541226 31.935452 
L 69.228062 22.336038 
L 65.353322 23.50285 
L 60.777601 21.116949 
L 58.089393 23.927196 
L 54.104892 20.142311 
L 54.033826 16.30701 
L 51.73406 16.309057 
L 52.914267 11.093933 
L 49.209563 5.622081 
L 40.387404 1.675531 
L 35.400173 -5.168144 
L 37.068908 -10.786592 
L 40.692873 -13.271463 
L 40.149651 -17.47716 
L 35.42845 -19.63833 
L 30.763224 -28.22724 
L 26.825441 -33.995408 
L 28.234099 -36.225225 
z
" clip-path="url(#p93e29deab4)" style="fill: #e8edf4; stroke: #b8c5d4; stroke-width: 0.45"/>
    <path d="M 282.205201 180.353927 
L 285.464165 168.666641 
L 290.43949 172.667327 
L 293.791099 177.737715 
L 297.273305 185.234002 
L 296.18872 192.731218 
L 293.169741 194.780582 
L 286.90817 196.427737 
L 283.481775 190.703063 
z
" clip-path="url(#p93e29deab4)" style="fill: #e8edf4; stroke: #b8c5d4; stroke-width: 0.45"/>
    <path d="M 238.862731 -44.504906 
L 240.912094 -46.152061 
L 239.920155 -47.836609 
L 246.793409 -51.238262 
L 251.768362 -52.64692 
L 259.38985 -51.681212 
L 262.112288 -56.278699 
L 271.347818 -57.134274 
L 273.914359 -59.992146 
L 285.259899 -63.892373 
L 286.27193 -65.519995 
L 285.697081 -69.624489 
L 290.636687 -71.498607 
L 284.155966 -84.006122 
L 298.418909 -86.882598 
L 302.104266 -88.485477 
L 307.299484 -101.376225 
L 321.582891 -99.006881 
L 325.587484 -102.26138 
L 325.931277 -109.481405 
L 331.911191 -110.154108 
L 337.391786 -114.947862 
L 340.209103 -115.539825 
L 342.099592 -110.516132 
L 348.150944 -106.697388 
L 358.421945 -103.993554 
L 363.389827 -98.194652 
L 360.617531 -89.781956 
L 363.207885 -86.659728 
L 381.461282 -84.423399 
L 390.160286 -79.936789 
L 394.609503 -79.137582 
L 397.889675 -72.500034 
L 402.11565 -68.224574 
L 410.052654 -68.392006 
L 424.913886 -66.777779 
L 434.490232 -67.779392 
L 441.597891 -66.707085 
L 452.248404 -62.333771 
L 460.96043 -62.340096 
L 464.147956 -60.101349 
L 472.531073 -63.967159 
L 484.162363 -66.466914 
L 494.95389 -66.740013 
L 503.367144 -69.272882 
L 508.533712 -73.129205 
L 513.573032 -75.550452 
L 512.407708 -77.926866 
L 510.108314 -80.69358 
L 513.887804 -85.334971 
L 525.340128 -83.224031 
L 532.514388 -87.046681 
L 543.492695 -89.836092 
L 548.768652 -94.595057 
L 553.836249 -96.643677 
L 564.295146 -97.598967 
L 569.975543 -96.787296 
L 570.764332 -99.346023 
L 564.239335 -104.378832 
L 558.461827 -106.680459 
L 552.927654 -104.023505 
L 545.824459 -105.144553 
L 541.748429 -104.23112 
L 539.894031 -107.174755 
L 548.487366 -119.797426 
L 557.13056 -117.07908 
L 567.276917 -121.628756 
L 567.211608 -124.797024 
L 573.710976 -132.43356 
L 577.71504 -134.741592 
L 577.625681 -138.716829 
L 573.675038 -140.427981 
L 579.62221 -144.010088 
L 588.569385 -145.308427 
L 598.114584 -145.50336 
L 608.891121 -143.359523 
L 615.213712 -140.70815 
L 624.869681 -125.92654 
L 627.53328 -118.873944 
L 640.064288 -116.572321 
L 648.592512 -111.453749 
L 651.508272 -104.688936 
L 662.448168 -104.680512 
L 668.68989 -107.52078 
L 680.589443 -109.643255 
L 676.805832 -103.16484 
L 674.00892 -100.529856 
L 671.541437 -92.641874 
L 666.699264 -85.637448 
L 657.96087 -86.912364 
L 651.781368 -84.369312 
L 653.677597 -78.202942 
L 652.641753 -69.695926 
L 648.963838 -69.501705 
L 649.007998 -65.844175 
L 644.358724 -70.094785 
L 641.496015 -66.059869 
L 630.375949 -62.958849 
L 631.500718 -59.160755 
L 625.275238 -59.422693 
L 621.8574 -61.679299 
L 616.910725 -56.57282 
L 608.975581 -52.702731 
L 603.112497 -48.085152 
L 593.046507 -45.992071 
L 587.745993 -42.627253 
L 579.992792 -40.661791 
L 583.819163 -43.998146 
L 582.312651 -46.801882 
L 588.013884 -51.641586 
L 584.210581 -55.414007 
L 577.934127 -52.872395 
L 569.805135 -47.866003 
L 565.368941 -43.216798 
L 558.30779 -42.870773 
L 554.635456 -39.510978 
L 558.429829 -34.642624 
L 564.322679 -33.460742 
L 564.563781 -30.22894 
L 570.260177 -28.125998 
L 578.328894 -33.26708 
L 584.721062 -30.464088 
L 589.37715 -30.272286 
L 590.543962 -26.500423 
L 580.34998 -24.489569 
L 576.986464 -20.602365 
L 569.984845 -16.990492 
L 566.288698 -11.950986 
L 574.038179 -7.99439 
L 576.866657 -0.912404 
L 581.248902 5.685705 
L 586.13865 11.216344 
L 586.02182 16.564669 
L 581.502654 18.530875 
L 583.225339 22.371012 
L 587.46322 24.605853 
L 586.356683 30.470239 
L 584.527957 36.176309 
L 580.504761 36.823154 
L 569.415577 54.06638 
L 562.729474 62.658786 
L 542.813294 75.363313 
L 534.699557 76.189867 
L 530.298337 79.388927 
L 527.808815 77.051954 
L 523.735761 80.630154 
L 513.673864 84.236446 
L 506.055352 85.340564 
L 503.597083 92.944565 
L 499.607001 93.366307 
L 497.719116 88.140765 
L 499.424315 85.355633 
L 489.764253 83.050471 
L 486.361298 84.222865 
L 479.112624 82.354328 
L 475.684368 79.428925 
L 476.822904 75.281271 
L 470.24098 73.966375 
L 466.770308 71.265144 
L 460.63338 75.102119 
L 453.632505 75.932952 
L 447.890344 75.896675 
L 440.294529 78.708969 
L 441.382462 86.944559 
L 437.544185 86.748106 
L 436.680238 82.080112 
L 431.399072 84.176356 
L 422.934472 80.148137 
L 425.030344 74.166921 
L 420.470994 72.772401 
L 418.75389 66.144341 
L 411.153982 67.338686 
L 412.017185 58.797812 
L 418.837234 52.785342 
L 418.915368 41.336552 
L 415.772863 39.620006 
L 413.366312 35.381195 
L 409.15522 35.916604 
L 401.391601 34.840577 
L 403.823452 31.816947 
L 400.447286 27.339825 
L 395.314576 30.37164 
L 389.275131 28.602446 
L 380.976103 33.187468 
L 374.422456 38.54249 
L 368.615927 39.443459 
L 365.463747 37.507577 
L 361.6597 37.332332 
L 356.513968 35.665643 
L 352.625833 37.492136 
L 347.862589 42.844925 
L 347.258347 37.174574 
L 342.867173 38.6889 
L 334.472523 37.985315 
L 326.327904 36.334253 
L 320.483795 33.172028 
L 314.888974 31.752765 
L 312.472749 28.294372 
L 308.427229 27.261133 
L 301.158091 22.57007 
L 295.385792 20.356438 
L 292.401044 22.078937 
L 282.393841 17.044454 
L 275.32004 12.485476 
L 273.300815 4.549217 
L 278.468127 5.516785 
L 278.70402 1.840359 
L 275.839823 -1.844626 
L 276.568336 -7.717942 
L 268.829646 -16.156868 
L 256.988508 -19.068505 
L 254.857661 -24.601004 
L 249.5378 -27.957823 
L 248.256018 -30.023929 
L 247.175898 -34.128051 
L 247.426673 -36.927694 
L 243.054103 -38.566849 
L 240.687736 -37.84187 
z
" clip-path="url(#p93e29deab4)" style="fill: #e8edf4; stroke: #b8c5d4; stroke-width: 0.45"/>
    <path d="M 490.508766 99.951207 
L 494.0572 96.688523 
L 501.923511 94.670971 
L 506.063165 94.841752 
L 507.672369 97.589305 
L 504.508656 100.75767 
L 502.842153 104.915555 
L 496.621509 108.376553 
L 490.717497 106.14469 
z
" clip-path="url(#p93e29deab4)" style="fill: #e8edf4; stroke: #b8c5d4; stroke-width: 0.45"/>
    <path d="M 497.975473 224.953438 
L 503.252174 227.420822 
L 508.815741 226.075416 
L 510.264583 219.979416 
L 513.337884 218.621545 
L 521.968427 217.062757 
L 530.668919 206.813708 
L 533.949091 210.545015 
L 535.460813 208.092141 
L 538.901719 208.32022 
L 539.645115 200.176345 
L 545.189335 195.169023 
L 548.820741 189.541646 
L 551.733308 189.518019 
L 555.432431 193.160402 
L 555.761341 196.290071 
L 566.509708 200.463584 
L 565.996995 203.283877 
L 561.166034 203.641064 
L 562.451909 207.156943 
L 557.150652 209.60963 
L 550.909544 208.396123 
L 542.631724 208.392774 
L 540.137365 216.581484 
L 537.365069 219.085331 
L 533.673759 229.099045 
L 527.802117 230.633649 
L 520.990626 228.615912 
L 517.537814 229.247129 
L 513.342349 232.888023 
L 508.745792 232.369357 
L 504.101239 233.833454 
L 499.177632 229.765423 
z
" clip-path="url(#p93e29deab4)" style="fill: #e8edf4; stroke: #b8c5d4; stroke-width: 0.45"/>
    <path d="M 429.017449 192.855676 
L 430.269094 191.571661 
L 436.143712 194.724957 
L 436.710375 198.422034 
L 441.462829 197.562179 
L 443.816546 194.60422 
L 445.472259 195.276924 
L 449.724279 199.623635 
L 452.744745 204.443992 
L 453.157743 209.29244 
L 452.391279 212.567775 
L 453.617622 219.304666 
L 456.153654 221.288731 
L 458.985109 227.655784 
L 458.847443 230.090054 
L 453.741894 230.570397 
L 438.412597 219.522141 
L 437.569486 215.8539 
L 433.407135 211.038194 
L 432.413335 205.075581 
L 429.816284 201.150053 
L 430.605073 195.907955 
z
" clip-path="url(#p93e29deab4)" style="fill: #e8edf4; stroke: #b8c5d4; stroke-width: 0.45"/>
    <path d="M -30.072816 132.678072 
L -26.971992 122.098608 
L -26.261784 117.31284 
L -23.994216 115.105392 
L -18.6912 113.921712 
L -15.047352 109.812187 
L -10.867514 118.147492 
L -8.884008 124.756391 
L -4.937086 128.26334 
L 4.89078 135.064227 
L 15.04495 145.796967 
L 18.584827 147.962602 
L 16.413425 149.721007 
L 13.331232 149.095944 
L 10.8702 146.766096 
L 7.909632 142.544952 
L 4.71744 140.232024 
L 2.85552 137.745792 
L -3.411 134.858952 
L -8.347608 134.77284 
L -10.08432 133.267392 
L -14.30676 134.960616 
L -18.676296 131.692104 
L -20.924856 137.06568 
L -29.307528 135.560808 
z
" clip-path="url(#p93e29deab4)" style="fill: #e8edf4; stroke: #b8c5d4; stroke-width: 0.45"/>
    <path d="M 15.155083 129.863986 
L 16.596112 129.513868 
L 15.857552 126.224022 
L 16.730429 124.835456 
L 16.411193 121.695182 
L 19.572302 119.398392 
L 18.833742 116.363229 
L 20.741719 112.824096 
L 23.698934 114.696168 
L 25.650815 114.045417 
L 33.959889 113.880031 
L 35.279994 114.599988 
L 42.239942 115.32013 
L 44.999959 114.959966 
L 46.800035 117.360005 
L 50.160202 116.159892 
L 55.320073 108.599982 
L 62.040035 105.359993 
L 82.800071 102.599976 
L 90.781723 119.512432 
L 85.573483 121.446639 
L 84.180451 124.643281 
L 84.010787 127.098573 
L 76.842109 130.138202 
L 65.33695 133.496881 
L 58.89046 138.576943 
L 55.720421 138.973756 
L 53.560181 138.547921 
L 49.352066 141.536018 
L 44.76295 142.922166 
L 36.900361 143.705188 
L 35.326503 145.606281 
L 33.439363 146.131644 
L 32.32464 147.962974 
L 28.76095 147.8041 
L 26.460812 148.781157 
L 21.477302 148.41504 
L 19.604672 144.209157 
L 19.810427 140.273397 
L 18.633197 138.149062 
L 17.224166 132.823805 
z
" clip-path="url(#p93e29deab4)" style="fill: #e8edf4; stroke: #b8c5d4; stroke-width: 0.45"/>
    <path d="M -42.24718 37.378468 
L -39.916532 28.032806 
L -31.903626 29.178039 
L -28.791258 26.962174 
L -27.0682 24.36996 
L -21.57421 23.372812 
L -20.389538 20.96161 
L -18.008288 19.738801 
L -25.184408 12.539426 
L -10.764823 8.926438 
L -9.392628 7.840737 
L -0.720041 9.792059 
L 10.007863 14.831938 
L 30.308391 29.311984 
L 50.110717 30.58186 
L 51.903724 34.012348 
L 56.995878 33.825569 
L 59.814683 40.034678 
L 63.356792 41.679229 
L 64.590577 44.208005 
L 69.497441 47.234425 
L 69.933135 50.205406 
L 69.215783 52.6034 
L 70.126984 55.022043 
L 72.197183 57.03978 
L 74.23278 61.165854 
L 76.409391 62.594418 
L 78.405176 62.082821 
L 82.80528 73.791688 
L 104.448982 77.421978 
L 105.900056 75.900024 
L 109.199948 80.999992 
L 104.399868 95.400043 
L 82.800071 102.599976 
L 62.040035 105.359993 
L 55.320073 108.599982 
L 50.160202 116.159892 
L 46.800035 117.360005 
L 44.999959 114.959966 
L 42.239942 115.32013 
L 35.279994 114.599988 
L 33.959889 113.880031 
L 25.650815 114.045417 
L 23.698934 114.696168 
L 20.741719 112.824096 
L 18.833742 116.363229 
L 19.572302 119.398392 
L 16.411193 121.695182 
L 15.476924 118.622626 
L 13.305522 116.4542 
L 12.750393 113.582003 
L 9.03155 111.002068 
L 5.194017 104.964483 
L 3.163257 99.097306 
L -1.816904 94.142632 
L -5.027871 92.960192 
L -9.796324 86.098285 
L -10.629389 81.094498 
L -10.322431 76.826479 
L -14.45204 68.843153 
L -17.828206 66.033464 
L -21.717829 64.544438 
L -24.085312 60.418923 
L -23.691662 58.791301 
L -25.692284 55.058692 
L -27.794853 53.451162 
L -30.606217 48.095024 
L -38.662655 37.343866 
z
" clip-path="url(#p93e29deab4)" style="fill: #e8edf4; stroke: #b8c5d4; stroke-width: 0.45"/>
    <path d="M -54.329904 183.348216 
L -51.87744 179.247024 
L -48.0564 179.070048 
L -46.980144 176.871168 
L -47.076336 170.398224 
L -44.94636 162.863352 
L -41.53572 160.846776 
L -40.812264 157.903488 
L -37.724472 152.403408 
L -33.381864 148.836384 
L -30.454416 141.744024 
L -29.307528 135.560808 
L -20.924856 137.06568 
L -18.676296 131.692104 
L -14.30676 134.960616 
L -10.08432 133.267392 
L -8.347608 134.77284 
L -3.411 134.858952 
L 2.85552 137.745792 
L 4.71744 140.232024 
L 7.909632 142.544952 
L 10.8702 146.766096 
L 13.331232 149.095944 
L 8.364672 155.65536 
L 9.040104 159.833448 
L 13.061808 159.95376 
L 14.795496 159.443208 
L 16.393333 160.726474 
L 14.823072 163.277424 
L 20.138328 170.708544 
L 22.887 173.278224 
L 46.428048 181.822464 
L 52.483824 181.7784 
L 32.13792 203.388336 
L 22.758264 203.70564 
L 16.341624 208.781352 
L 11.725992 208.914264 
L 9.756598 211.183834 
L 4.83696 211.182552 
L 1.933056 208.749456 
L -4.644432 211.760712 
L -6.772433 214.761168 
L -11.573928 214.194672 
L -13.167792 213.364296 
L -17.129412 213.490044 
L -26.243329 207.375378 
L -31.254634 207.375378 
L -33.714377 205.005847 
L -33.714377 200.964729 
L -37.454349 199.7568 
L -41.709456 191.921616 
L -44.997696 190.252296 
L -46.25928 187.37316 
L -49.908312 183.863952 
z
" clip-path="url(#p93e29deab4)" style="fill: #e8edf4; stroke: #b8c5d4; stroke-width: 0.45"/>
    <path d="M 8.364672 155.65536 
L 13.331232 149.095944 
L 16.413425 149.721007 
L 18.584827 147.962602 
L 20.288537 150.190931 
L 20.061947 153.180516 
L 15.95429 154.903388 
L 19.046195 156.873314 
L 16.393333 160.726474 
L 14.795496 159.443208 
L 13.061808 159.95376 
L 9.040104 159.833448 
z
" clip-path="url(#p93e29deab4)" style="fill: #e8edf4; stroke: #b8c5d4; stroke-width: 0.45"/>
    <path d="M 14.823072 163.277424 
L 19.046195 156.873314 
L 21.388749 158.200489 
L 22.800012 161.177982 
L 26.048186 164.192123 
L 29.622665 164.216122 
L 36.409972 162.374188 
L 44.246889 161.520844 
L 50.584735 159.283958 
L 54.155493 158.80994 
L 56.727243 157.496532 
L 60.827074 157.243556 
L 60.754532 171.347407 
L 52.483824 181.7784 
L 46.428048 181.822464 
L 22.887 173.278224 
L 20.138328 170.708544 
z
" clip-path="url(#p93e29deab4)" style="fill: #e8edf4; stroke: #b8c5d4; stroke-width: 0.45"/>
   </g>
   <g id="PathCollection_1">
    <defs>
     <path id="m3c17f17819" d="M 0 2.12132 
C 0.562581 2.12132 1.102195 1.897805 1.5 1.5 
C 1.897805 1.102195 2.12132 0.562581 2.12132 0 
C 2.12132 -0.562581 1.897805 -1.102195 1.5 -1.5 
C 1.102195 -1.897805 0.562581 -2.12132 0 -2.12132 
C -0.562581 -2.12132 -1.102195 -1.897805 -1.5 -1.5 
C -1.897805 -1.102195 -2.12132 -0.562581 -2.12132 0 
C -2.12132 0.562581 -1.897805 1.102195 -1.5 1.5 
C -1.102195 1.897805 -0.562581 2.12132 0 2.12132 
z
" style="stroke: #ffffff; stroke-width: 0.5"/>
    </defs>
    <g clip-path="url(#p93e29deab4)">
     <use xlink:href="#m3c17f17819" x="72.36" y="52.2" style="fill: #8aa0b7; stroke: #ffffff; stroke-width: 0.5"/>
     <use xlink:href="#m3c17f17819" x="360" y="41.4" style="fill: #8aa0b7; stroke: #ffffff; stroke-width: 0.5"/>
     <use xlink:href="#m3c17f17819" x="405.6" y="329.4" style="fill: #8aa0b7; stroke: #ffffff; stroke-width: 0.5"/>
     <use xlink:href="#m3c17f17819" x="18" y="156.6" style="fill: #8aa0b7; stroke: #ffffff; stroke-width: 0.5"/>
     <use xlink:href="#m3c17f17819" x="223.2" y="282.6" style="fill: #8aa0b7; stroke: #ffffff; stroke-width: 0.5"/>
     <use xlink:href="#m3c17f17819" x="27" y="327" style="fill: #8aa0b7; stroke: #ffffff; stroke-width: 0.5"/>
     <use xlink:href="#m3c17f17819" x="37.8" y="27" style="fill: #8aa0b7; stroke: #ffffff; stroke-width: 0.5"/>
     <use xlink:href="#m3c17f17819" x="291.6" y="189" style="fill: #8aa0b7; stroke: #ffffff; stroke-width: 0.5"/>
     <use xlink:href="#m3c17f17819" x="122.76" y="385.44" style="fill: #8aa0b7; stroke: #ffffff; stroke-width: 0.5"/>
     <use xlink:href="#m3c17f17819" x="234" y="216" style="fill: #8aa0b7; stroke: #ffffff; stroke-width: 0.5"/>
     <use xlink:href="#m3c17f17819" x="77.4" y="55.8" style="fill: #8aa0b7; stroke: #ffffff; stroke-width: 0.5"/>
     <use xlink:href="#m3c17f17819" x="108" y="391.68" style="fill: #8aa0b7; stroke: #ffffff; stroke-width: 0.5"/>
     <use xlink:href="#m3c17f17819" x="109.2" y="272.4" style="fill: #8aa0b7; stroke: #ffffff; stroke-width: 0.5"/>
     <use xlink:href="#m3c17f17819" x="455.76" y="229.56" style="fill: #8aa0b7; stroke: #ffffff; stroke-width: 0.5"/>
     <use xlink:href="#m3c17f17819" x="33.6" y="331.8" style="fill: #8aa0b7; stroke: #ffffff; stroke-width: 0.5"/>
    </g>
   </g>
   <g id="PathCollection_2">
    <defs>
     <path id="m89d031ddc5" d="M 0 3.674235 
C 0.974418 3.674235 1.909058 3.287094 2.598076 2.598076 
C 3.287094 1.909058 3.674235 0.974418 3.674235 0 
C 3.674235 -0.974418 3.287094 -1.909058 2.598076 -2.598076 
C 1.909058 -3.287094 0.974418 -3.674235 0 -3.674235 
C -0.974418 -3.674235 -1.909058 -3.287094 -2.598076 -2.598076 
C -3.287094 -1.909058 -3.674235 -0.974418 -3.674235 0 
C -3.674235 0.974418 -3.287094 1.909058 -2.598076 2.598076 
C -1.909058 3.287094 -0.974418 3.674235 0 3.674235 
z
" style="stroke: #ffffff; stroke-width: 1.2"/>
    </defs>
    <g clip-path="url(#p93e29deab4)">
     <use xlink:href="#m89d031ddc5" x="234" y="216" style="fill: #f97316; stroke: #ffffff; stroke-width: 1.2"/>
    </g>
   </g>
   <g id="PathCollection_3">
    <path d="M 234 220.929503 
C 235.307319 220.929503 236.561271 220.410099 237.485685 219.485685 
C 238.410099 218.561271 238.929503 217.307319 238.929503 216 
C 238.929503 214.692681 238.410099 213.438729 237.485685 212.514315 
C 236.561271 211.589901 235.307319 211.070497 234 211.070497 
C 232.692681 211.070497 231.438729 211.589901 230.514315 212.514315 
C 229.589901 213.438729 229.070497 214.692681 229.070497 216 
C 229.070497 217.307319 229.589901 218.561271 230.514315 219.485685 
C 231.438729 220.410099 232.692681 220.929503 234 220.929503 
L 234 220.929503 
z
" clip-path="url(#p93e29deab4)" style="fill: none; stroke: #7c2d12; stroke-width: 1.1"/>
   </g>
  </g>
 </g>
 <defs>
  <clipPath id="p93e29deab4">
   <rect x="0" y="0" width="468" height="432"/>
  </clipPath>
 </defs>
</svg>
