<?xml version="1.0" encoding="utf-8" standalone="no"?>
<!DOCTYPE svg PUBLIC "-//W3C//DTD SVG 1.1//EN"
  "http://www.w3.org/Graphics/SVG/1.1/DTD/svg11.dtd">
<svg xmlns:xlink="http://www.w3.org/1999/xlink" width="576pt" height="363.789474pt" viewBox="0 0 576 363.789474" xmlns="http://www.w3.org/2000/svg" version="1.1">
 <metadata>
  <rdf:RDF xmlns:dc="http://purl.org/dc/elements/1.1/" xmlns:cc="http://creativecommons.org/ns#" xmlns:rdf="http://www.w3.org/1999/02/22-rdf-syntax-ns#">
   <cc:Work>
    <dc:type rdf:resource="http://purl.org/dc/dcmitype/StillImage"/>
    <dc:date>2026-06-09T04:57:11.977469</dc:date>
    <dc:format>image/svg+xml</dc:format>
    <dc:creator>
     <cc:Agent>
      <dc:title>Matplotlib v3.10.8, https://matplotlib.org/</dc:title>
     </cc:Agent>
    </dc:creator>
   </cc:Work>
  </rdf:RDF>
 </metadata>
 <defs>
  <style type="text/css">*{stroke-linejoin: round; stroke-linecap: butt}</style>
 </defs>
 <g id="figure_1">
  <g id="patch_1">
   <path d="M 0 363.789474 
L 576 363.789474 
L 576 0 
L 0 0 
z
" style="fill: #eaf3ff"/>
  </g>
  <g id="axes_1">
   <g id="PatchCollection_1">
    <path d="M -66.898182 167.378613 
L -63.398371 162.783427 
L -65.169269 161.546744 
L -60.331571 154.885197 
L -54.096456 158.401457 
L -53.341349 153.973116 
L -40.825374 147.37862 
L -31.354265 147.221645 
L -10.810974 153.872579 
L -4.377721 151.314897 
L 5.234445 151.193088 
L 12.988996 154.335003 
L 14.750494 152.535749 
L 23.26691 152.797217 
L 24.78621 149.925774 
L 14.961047 145.755767 
L 20.78007 142.802233 
L 19.64459 141.150398 
L 25.465179 139.573916 
L 21.088066 135.420672 
L 23.868227 133.351579 
L 46.556161 131.241735 
L 49.517022 129.744 
L 64.68844 127.505835 
L 70.139623 124.990483 
L 81.035721 126.297194 
L 82.944795 132.581344 
L 89.274846 131.105753 
L 97.062161 133.173524 
L 96.559905 136.482834 
L 102.37533 136.136994 
L 117.571303 130.415347 
L 115.352667 132.316274 
L 123.087656 137.0006 
L 136.636656 152.398984 
L 139.867636 149.224402 
L 148.21987 152.717633 
L 156.932739 151.159481 
L 160.280275 152.250469 
L 163.198246 155.75404 
L 167.437498 156.930879 
L 170.018647 159.504352 
L 177.828521 158.693004 
L 181.045715 162.401801 
L 176.430476 166.438646 
L 171.394759 167.005133 
L 171.105249 173.085154 
L 167.732961 175.825784 
L 155.704828 173.830547 
L 151.329908 184.685914 
L 148.22645 186.035707 
L 136.21555 188.458002 
L 141.672999 198.990647 
L 137.513332 200.568852 
L 137.997415 204.025267 
L 134.260419 203.135902 
L 131.219939 200.956745 
L 112.170565 200.156833 
L 109.967282 200.824523 
L 101.332744 198.275332 
L 97.891525 199.530815 
L 96.948425 203.110366 
L 86.973807 201.021603 
L 82.98208 201.877129 
L 81.624141 204.533633 
L 78.147829 205.654387 
L 70.150902 209.880793 
L 67.498002 214.219367 
L 65.238948 214.257906 
L 63.577399 211.385993 
L 55.866222 211.189227 
L 54.632985 206.222284 
L 51.678669 206.179829 
L 52.131106 200.098398 
L 44.872367 195.669743 
L 34.473824 196.142703 
L 27.364853 197.025489 
L 21.574656 191.56052 
L 6.082118 184.400008 
L -9.525723 187.983006 
L -9.287598 210.339183 
L -12.397635 210.634959 
L -16.641274 205.880763 
L -20.73953 204.182242 
L -27.621969 205.443834 
L -30.300876 207.461161 
L -30.641144 205.982749 
L -29.150983 203.455961 
L -30.307142 201.343541 
L -37.334336 199.277964 
L -40.06964 193.832891 
L -43.41749 192.299021 
L -43.620523 190.323524 
L -37.721916 190.89941 
L -37.489117 186.466369 
L -32.332458 185.481753 
L -27.03637 186.387255 
L -25.945068 180.472042 
L -27.02509 176.722826 
L -33.092578 177.016096 
L -38.246731 175.536274 
L -45.267032 178.202334 
L -50.923493 179.473536 
L -54.003032 178.493063 
L -53.387721 175.373033 
L -57.252884 171.321984 
L -61.751808 171.491267 
z
" clip-path="url(#pa51054991b)" style="fill: #e8edf4; stroke: #b8c5d4; stroke-width: 0.45"/>
    <path d="M -9.525723 187.983006 
L 6.082118 184.400008 
L 21.574656 191.56052 
L 27.364853 197.025489 
L 34.473824 196.142703 
L 44.872367 195.669743 
L 52.131106 200.098398 
L 51.678669 206.179829 
L 54.632985 206.222284 
L 55.866222 211.189227 
L 63.577399 211.385993 
L 65.238948 214.257906 
L 67.498002 214.219367 
L 70.150902 209.880793 
L 78.147829 205.654387 
L 81.624141 204.533633 
L 83.424491 205.130512 
L 78.336136 209.057695 
L 82.809753 211.339935 
L 87.128275 209.828311 
L 94.31495 213.022789 
L 86.550822 217.389406 
L 81.938716 216.792057 
L 79.435897 216.948719 
L 78.567368 215.263357 
L 79.83131 212.451759 
L 71.724094 213.86077 
L 69.796848 217.751294 
L 66.915536 221.102433 
L 61.852873 220.81731 
L 60.281248 223.48713 
L 64.730425 224.933739 
L 66.040113 229.447931 
L 62.632419 235.584036 
L 58.059479 234.303801 
L 54.681237 234.263539 
L 54.848238 230.553489 
L 46.78332 227.958397 
L 40.442615 224.989197 
L 29.55341 217.946964 
L 26.573087 211.696026 
L 24.538685 210.595481 
L 17.983041 210.874651 
L 15.663203 209.632798 
L 15.014939 204.794787 
L 6.845371 201.590596 
L 1.737277 205.113279 
L -3.442569 207.2022 
L -2.447144 210.256309 
L -9.287598 210.339183 
z
" clip-path="url(#pa51054991b)" style="fill: #e8edf4; stroke: #b8c5d4; stroke-width: 0.45"/>
    <path d="M -183.179006 112.32286 
L -180.580936 110.398591 
L -182.37888 104.74366 
L -178.064645 101.249734 
L -178.97763 100.191441 
L -172.086366 96.840455 
L -178.438737 93.957605 
L -159.824896 82.715463 
L -157.544536 79.623284 
L -166.519342 75.469256 
L -164.040649 71.518261 
L -169.499038 67.005949 
L -165.417196 61.807953 
L -172.46902 54.906223 
L -166.873709 50.334536 
L -176.159331 46.294557 
L -175.274196 42.049353 
L -170.377465 41.490675 
L -160.06082 39.058196 
L -153.805824 36.949187 
L -143.845571 40.614548 
L -127.241674 42.05758 
L -104.33276 48.915133 
L -99.679104 51.79677 
L -99.278451 55.832104 
L -106.009283 59.017688 
L -115.909693 60.634429 
L -142.977085 56.025944 
L -147.42908 56.79645 
L -137.544131 61.236985 
L -136.761135 70.245504 
L -124.217553 73.668399 
L -123.43395 70.728495 
L -127.086342 68.122853 
L -123.227379 65.826371 
L -108.57024 69.600263 
L -103.464152 68.122853 
L -107.544657 63.682439 
L -93.414528 57.744121 
L -87.818536 58.093662 
L -82.157305 60.212736 
L -78.625455 56.04577 
L -83.681341 52.431461 
L -80.713061 48.805329 
L -85.17027 45.044473 
L -68.210526 46.989474 
L -64.746402 50.385024 
L -72.42339 51.133521 
L -72.381858 54.507486 
L -67.609364 56.58339 
L -58.241725 55.268413 
L -56.758676 51.401149 
L -22.934319 43.306833 
L -18.361 43.605322 
L -24.338607 47.284689 
L -16.817502 47.917016 
L -12.473856 45.845598 
L -1.109437 45.678134 
L 7.894232 43.164712 
L 14.802715 46.817037 
L 21.693009 42.801711 
L 15.339789 39.289263 
L 18.492632 37.288421 
L 36.4032 39.123193 
L 44.795308 41.018264 
L 66.768465 47.945452 
L 70.821807 44.772601 
L 64.660184 41.566828 
L 64.483018 40.28065 
L 57.176064 39.685733 
L 59.174966 36.811069 
L 55.932147 32.080835 
L 55.748675 30.14014 
L 66.937627 24.649768 
L 70.916877 19.139207 
L 75.425684 17.946947 
L 91.478137 19.545863 
L 92.742245 22.918373 
L 86.994856 27.836079 
L 90.766141 29.768953 
L 92.717083 34.007404 
L 91.339655 42.315688 
L 98.028349 46.032101 
L 95.426223 50.079259 
L 83.550316 58.691368 
L 90.480566 59.584653 
L 92.892248 57.401917 
L 99.563055 55.844958 
L 101.172945 52.844726 
L 106.420547 49.957571 
L 102.887303 46.510545 
L 105.716251 42.507709 
L 99.086309 42.008832 
L 97.62818 38.636685 
L 102.466156 32.548547 
L 94.591933 27.604527 
L 105.443288 23.517837 
L 104.039303 19.206447 
L 107.063303 19.068813 
L 110.249492 22.430289 
L 107.857395 28.281236 
L 114.345762 29.388915 
L 111.581083 25.016529 
L 121.727899 22.632738 
L 134.311195 22.311754 
L 145.515789 25.768421 
L 140.123884 20.71872 
L 139.519872 14.259335 
L 150.063158 13.035789 
L 164.646629 13.303114 
L 177.785735 12.509022 
L 172.857964 9.339264 
L 179.874614 5.357224 
L 186.840515 5.190488 
L 198.629053 2.182737 
L 214.639306 1.374336 
L 216.662157 -0.286181 
L 232.582737 -0.848842 
L 237.543673 0.512458 
L 251.1514 -2.709565 
L 262.29021 -2.608856 
L 263.961519 -5.225775 
L 269.754988 -7.806558 
L 284.068648 -10.294757 
L 294.467207 -8.330112 
L 286.211368 -6.835604 
L 299.945209 -5.906668 
L 301.581474 -2.910316 
L 307.121987 -4.385785 
L 324.847387 -4.304842 
L 338.515261 -1.347476 
L 343.381915 0.923783 
L 341.873523 4.075715 
L 319.232842 9.235827 
L 314.677895 11.034947 
L 331.164773 13.413282 
L 336.623737 12.266193 
L 339.71619 16.158013 
L 342.379311 14.582622 
L 352.074361 13.624825 
L 371.528064 14.626035 
L 373.005474 17.461895 
L 398.353475 18.363971 
L 398.699742 13.732871 
L 411.567158 14.794105 
L 421.246626 14.760819 
L 431.037534 17.954769 
L 433.828467 21.835129 
L 430.241684 24.373895 
L 437.85695 29.145357 
L 447.391811 31.607303 
L 453.242274 25.245171 
L 462.968549 27.972864 
L 473.301807 26.342905 
L 485.037777 28.208054 
L 489.503535 26.507944 
L 499.421285 27.357999 
L 495.04417 21.729206 
L 503.049115 19.102525 
L 557.810526 23.04 
L 562.971365 26.638909 
L 578.843015 31.272435 
L 603.325925 30.125346 
L 615.397127 31.123887 
L 620.444827 33.630882 
L 619.707244 38.064627 
L 627.176266 39.790808 
L 635.292045 38.549315 
L 646.04451 38.390521 
L 657.491085 39.580355 
L 668.982589 38.909164 
L 679.544367 44.298644 
L 687.058136 42.359464 
L 682.154981 38.484318 
L 684.854602 35.790639 
L 704.198865 37.485898 
L 716.810961 37.1232 
L 734.248421 40.016842 
L 742.736842 42.662584 
L 742.736842 66.817766 
L 734.898392 69.51453 
L 727.041024 69.070221 
L 732.508295 72.297519 
L 736.117389 77.293319 
L 738.919114 78.92643 
L 739.622562 81.434637 
L 738.0576 83.040404 
L 726.756177 81.719848 
L 709.80959 86.283891 
L 704.418472 86.990491 
L 686.340379 94.972214 
L 684.111259 97.727373 
L 675.438579 93.533002 
L 659.641142 98.292581 
L 656.882526 96.040421 
L 651.042129 98.637878 
L 642.932958 97.806558 
L 640.97953 101.794297 
L 633.705075 107.661797 
L 633.921165 110.112283 
L 640.826739 111.470976 
L 640.014457 120.297661 
L 634.385664 120.522301 
L 631.789905 125.594193 
L 634.31236 128.204625 
L 623.709595 131.301747 
L 621.605437 138.224418 
L 612.566541 139.703161 
L 610.749049 145.863269 
L 602.009674 151.511949 
L 599.767579 147.334737 
L 593.787244 125.016071 
L 596.702168 116.607138 
L 601.817836 112.988766 
L 602.134333 110.15521 
L 611.556359 108.798821 
L 622.387038 101.165184 
L 632.824158 94.930863 
L 643.723594 90.093069 
L 648.597524 81.545775 
L 641.229999 82.057142 
L 637.589012 87.051789 
L 622.210237 93.710774 
L 617.24354 86.254727 
L 601.590649 88.313411 
L 586.416869 98.476719 
L 591.423158 102.194829 
L 568.516426 104.402183 
L 568.95552 100.018095 
L 559.530705 99.09789 
L 552.019059 102.076416 
L 533.480408 101.03422 
L 513.536256 102.831279 
L 470.659847 128.965854 
L 480.212473 129.730055 
L 483.193789 133.526986 
L 489.082813 134.874887 
L 492.962809 131.846097 
L 499.613366 132.239414 
L 508.367353 138.909555 
L 508.573016 144.068089 
L 503.832778 150.12579 
L 503.321411 157.36605 
L 500.586018 167.059948 
L 491.447565 175.833701 
L 489.416347 180.027587 
L 469.102828 197.6698 
L 461.023549 201.227298 
L 457.200121 201.305997 
L 453.391245 198.358878 
L 445.253275 202.796019 
L 444.308211 204.813474 
L 443.459368 203.752421 
L 443.422179 200.672248 
L 446.519371 200.508694 
L 447.391661 193.344891 
L 445.794836 188.152158 
L 450.998628 186.010641 
L 458.357275 187.084254 
L 462.434894 181.18579 
L 464.512775 174.543279 
L 466.868069 172.324345 
L 470.054267 166.868838 
L 460.033591 168.656185 
L 454.777405 171.04799 
L 445.564861 171.040896 
L 443.109484 165.344211 
L 435.927822 161.033835 
L 425.375394 159.095626 
L 423.132363 153.156598 
L 415.001021 140.708927 
L 409.676734 138.476191 
L 400.601755 136.670855 
L 392.563693 136.835009 
L 385.02923 137.928347 
L 380.021085 140.944858 
L 383.347942 142.385828 
L 383.423192 145.733396 
L 380.051348 147.677002 
L 374.578196 154.107769 
L 374.633193 156.775784 
L 366.088892 160.60709 
L 358.810414 158.317957 
L 351.576427 158.823346 
L 348.401845 156.791764 
L 344.766052 156.136607 
L 335.885243 160.40954 
L 327.903042 161.413582 
L 322.329664 162.916276 
L 314.692744 161.928997 
L 309.070488 161.992132 
L 305.390203 158.892904 
L 299.452118 155.979006 
L 293.375544 155.180347 
L 279.975686 157.096626 
L 271.362028 154.546499 
L 270.205905 150.003072 
L 257.57345 147.734867 
L 250.781248 145.228602 
L 244.501328 151.512282 
L 246.963101 155.081024 
L 241.069703 159.303107 
L 232.303953 157.778769 
L 226.252493 157.560657 
L 222.199981 154.728536 
L 215.873947 154.639084 
L 210.602041 152.778418 
L 201.37971 155.630278 
L 189.810595 160.852422 
L 181.045715 162.401801 
L 177.828521 158.693004 
L 170.018647 159.504352 
L 167.437498 156.930879 
L 163.198246 155.75404 
L 160.280275 152.250469 
L 156.932739 151.159481 
L 148.21987 152.717633 
L 139.867636 149.224402 
L 136.636656 152.398984 
L 123.087656 137.0006 
L 115.352667 132.316274 
L 117.571303 130.415347 
L 102.37533 136.136994 
L 96.559905 136.482834 
L 97.062161 133.173524 
L 89.274846 131.105753 
L 82.944795 132.581344 
L 81.035721 126.297194 
L 70.139623 124.990483 
L 64.68844 127.505835 
L 49.517022 129.744 
L 46.556161 131.241735 
L 23.868227 133.351579 
L 21.088066 135.420672 
L 25.465179 139.573916 
L 19.64459 141.150398 
L 20.78007 142.802233 
L 14.961047 145.755767 
L 24.78621 149.925774 
L 23.26691 152.797217 
L 14.750494 152.535749 
L 12.988996 154.335003 
L 5.234445 151.193088 
L -4.377721 151.314897 
L -10.810974 153.872579 
L -31.354265 147.221645 
L -40.825374 147.37862 
L -53.341349 153.973116 
L -54.096456 158.401457 
L -60.331571 154.885197 
L -65.169269 161.546744 
L -63.398371 162.783427 
L -66.898182 167.378613 
L -61.751808 171.491267 
L -57.252884 171.321984 
L -53.387721 175.373033 
L -54.003032 178.493063 
L -50.923493 179.473536 
L -53.686777 183.069231 
L -59.565009 184.06844 
L -65.591181 190.327377 
L -60.080195 196.081556 
L -60.676931 200.165578 
L -54.056872 207.306159 
L -57.677104 209.74998 
L -58.717648 211.292466 
L -61.399687 210.878254 
L -65.566561 207.195463 
L -71.082038 205.58689 
L -72.938097 203.09893 
L -78.592939 201.830444 
L -82.269716 202.782558 
L -83.332103 201.655599 
L -91.587638 198.748497 
L -105.638612 196.730653 
L -106.378053 197.446751 
L -114.108632 192.323368 
L -121.025967 190.036285 
L -126.262474 186.474301 
L -121.850253 185.505287 
L -116.819166 180.434304 
L -120.209866 178.035112 
L -111.273075 175.560253 
L -111.433566 174.234786 
L -116.876233 175.211986 
L -116.684793 172.518667 
L -113.559491 170.825715 
L -107.692127 170.381181 
L -106.738136 168.359283 
L -108.077912 165.015997 
L -105.615427 161.841267 
L -105.686663 160.061002 
L -114.624071 158.087978 
L -118.167121 158.153463 
L -121.90913 155.314135 
L -126.56134 156.274312 
L -134.261864 154.142466 
L -134.129725 152.949585 
L -136.286553 150.320404 
L -141.121117 150.02682 
L -141.623373 148.144693 
L -140.109086 146.917096 
L -143.983631 143.484179 
L -150.270757 144.069936 
L -152.112153 143.765386 
L -153.643816 145.144421 
L -155.908224 144.899288 
L -157.399468 141.016609 
L -158.823205 139.003983 
L -157.656414 138.437477 
L -152.764177 138.647892 
L -150.404859 137.321912 
L -152.151318 135.705325 
L -156.239862 134.638306 
L -155.875154 133.543244 
L -158.342568 132.437216 
L -162.143795 128.467578 
L -160.844447 126.831879 
L -161.438193 123.985658 
L -167.365626 122.539676 
L -170.547101 123.26345 
L -171.408424 121.75825 
L -177.791741 120.237696 
L -179.740606 116.659242 
L -180.257588 113.719024 
z
" clip-path="url(#pa51054991b)" style="fill: #e8edf4; stroke: #b8c5d4; stroke-width: 0.45"/>
    <path d="M -36.64722 24.162405 
L -30.44751 22.861491 
L -30.654303 19.555313 
L -18.628364 14.384554 
L -24.202369 13.643233 
L -9.686144 8.321766 
L -11.326386 5.569543 
L 2.235146 2.368328 
L 22.252059 -1.527209 
L 42.432212 -2.662063 
L 52.816029 -4.909837 
L 64.615436 -5.69753 
L 68.830249 -3.303277 
L 64.757998 -1.416606 
L 24.758951 4.481374 
L 5.924203 10.252459 
L -12.615395 22.001577 
L -11.381531 27.038078 
L 0.21641 32.010661 
L -3.365178 32.542525 
L -23.177178 31.754833 
L -24.786089 29.062767 
L -35.761145 27.437251 
z
" clip-path="url(#pa51054991b)" style="fill: #e8edf4; stroke: #b8c5d4; stroke-width: 0.45"/>
    <path d="M -1440 66.817766 
L -1440 42.662584 
L -1425.145263 47.292632 
L -1409.249179 53.320077 
L -1409.770611 57.088573 
L -1405.681496 58.597026 
L -1407.088088 54.191353 
L -1390.629585 55.095431 
L -1378.759559 60.769576 
L -1384.771119 63.412204 
L -1394.709726 64.039619 
L -1394.859789 69.964052 
L -1397.287053 71.225795 
L -1402.965261 71.044446 
L -1407.585873 68.930526 
L -1415.647508 67.162328 
L -1417.003412 64.53219 
L -1423.160549 63.54044 
L -1430.055997 64.326952 
L -1433.350656 62.205332 
L -1432.033677 59.951838 
L -1439.295279 61.392141 
L -1436.560249 64.244554 
z
" clip-path="url(#pa51054991b)" style="fill: #e8edf4; stroke: #b8c5d4; stroke-width: 0.45"/>
    <path d="M 509.875661 145.907258 
L 510.412068 137.621761 
L 516.016779 134.831626 
L 513.608583 132.022377 
L 516.306916 131.17108 
L 519.98156 141.024442 
L 519.826466 146.991197 
L 522.328971 153.109286 
L 528.429358 163.84841 
L 519.454552 161.846594 
L 515.724136 170.607714 
L 521.634649 176.821523 
L 521.463575 181.058581 
L 516.870269 177.403362 
L 512.894835 182.096305 
L 511.772514 177.008263 
L 512.448664 171.10151 
L 511.757475 164.559025 
L 513.160219 159.975432 
L 513.42811 151.867903 
z
" clip-path="url(#pa51054991b)" style="fill: #e8edf4; stroke: #b8c5d4; stroke-width: 0.45"/>
    <path d="M -151.856795 185.972416 
L -150.785859 184.80999 
L -144.981249 182.7947 
L -145.903904 182.065006 
L -144.306421 180.563432 
L -138.045874 182.102911 
L -137.259029 183.300283 
L -136.344299 183.48495 
L -136.295013 184.009451 
L -133.32879 185.47204 
L -127.144433 185.108273 
L -128.328478 187.27145 
L -134.965899 188.321707 
L -143.196565 191.829351 
L -146.568227 190.596114 
L -145.23128 187.747074 
z
" clip-path="url(#pa51054991b)" style="fill: #e8edf4; stroke: #b8c5d4; stroke-width: 0.45"/>
    <path d="M -76.717391 -27.828742 
L -64.881012 -28.93289 
L -55.669021 -29.006207 
L -54.430145 -27.372545 
L -50.947566 -28.824167 
L -45.232566 -29.823979 
L -36.239901 -28.495179 
L -38.584806 -27.570878 
L -52.177043 -26.311478 
L -53.0227 -25.316523 
L -60.109426 -24.314362 
L -66.677603 -25.751728 
L -63.22385 -27.644508 
z
" clip-path="url(#pa51054991b)" style="fill: #e8edf4; stroke: #b8c5d4; stroke-width: 0.45"/>
    <path d="M 204.213645 -26.322957 
L 219.957181 -30.464943 
L 233.073216 -31.834004 
L 244.853659 -28.781659 
L 258.815929 -22.919555 
L 257.318966 -17.467594 
L 244.090247 -16.711276 
L 227.20223 -18.46077 
L 217.139146 -20.775411 
L 212.485794 -25.124453 
z
" clip-path="url(#pa51054991b)" style="fill: #e8edf4; stroke: #b8c5d4; stroke-width: 0.45"/>
    <path d="M 481.865775 4.476611 
L 485.123934 0.30819 
L 493.123149 -0.829197 
L 509.13316 -0.563207 
L 531.049475 2.651874 
L 526.282105 7.154526 
L 503.932153 6.986698 
L 493.877194 8.418816 
z
" clip-path="url(#pa51054991b)" style="fill: #e8edf4; stroke: #b8c5d4; stroke-width: 0.45"/>
    <path d="M -229.426014 130.80606 
L -228.044575 128.137806 
L -219.677615 126.171395 
L -213.327824 127.233558 
L -210.647664 128.195928 
L -211.294675 129.856223 
L -210.809339 131.403566 
L -221.958602 131.494586 
z
" clip-path="url(#pa51054991b)" style="fill: #e8edf4; stroke: #b8c5d4; stroke-width: 0.45"/>
    <path d="M 499.380601 15.947136 
L 505.132052 13.550794 
L 512.713182 12.989831 
L 521.327475 15.307958 
L 522.061238 16.901416 
L 512.868157 16.943859 
z
" clip-path="url(#pa51054991b)" style="fill: #e8edf4; stroke: #b8c5d4; stroke-width: 0.45"/>
    <path d="M 254.277565 -11.647326 
L 265.353499 -19.608192 
L 270.33408 -20.289812 
L 274.890331 -19.894979 
L 290.258102 -16.451409 
L 288.457587 -13.987038 
z
" clip-path="url(#pa51054991b)" style="fill: #e8edf4; stroke: #b8c5d4; stroke-width: 0.45"/>
    <path d="M -1440 31.333192 
L -1440 27.188932 
L -1434.084359 26.947523 
L -1425.314698 28.68189 
L -1425.833886 29.510784 
L -1432.080182 30.964426 
z
" clip-path="url(#pa51054991b)" style="fill: #e8edf4; stroke: #b8c5d4; stroke-width: 0.45"/>
    <path d="M 537.312141 5.014353 
L 538.763025 3.05086 
L 565.278336 5.553489 
L 558.270872 7.949285 
L 548.579156 7.407027 
z
" clip-path="url(#pa51054991b)" style="fill: #e8edf4; stroke: #b8c5d4; stroke-width: 0.45"/>
    <path d="M 735.008135 29.716749 
L 742.736842 27.188932 
L 742.736842 31.333192 
L 736.088135 31.642772 
z
" clip-path="url(#pa51054991b)" style="fill: #e8edf4; stroke: #b8c5d4; stroke-width: 0.45"/>
    <path d="M -33.347309 345.59998 
L -15.158006 339.536878 
L -11.115834 327.410519 
L -13.89469 323.11581 
L -13.736149 320.674402 
L -11.969637 318.165003 
L -11.952718 315.68678 
L -9.20864 314.492708 
L -10.282396 313.649558 
L -9.784527 309.701069 
L -6.688589 309.677413 
L -3.970517 313.818908 
L -0.585382 316.020311 
L 7.452903 317.917635 
L 11.82375 323.4072 
L 13.994134 324.175153 
L 13.982541 325.527765 
L 10.807019 330.842966 
L 8.252815 332.782275 
L 5.990314 336.935833 
L 3.239657 336.617811 
L 1.978848 338.06348 
L 1.005042 341.137486 
L 1.750436 345.190311 
L 1.178623 345.935235 
L -1.6112 345.915339 
L -5.398327 348.181286 
L -5.989253 351.134976 
L -7.375705 352.414584 
L -11.147166 352.365706 
L -13.521209 353.892526 
L -13.491131 356.341767 
L -16.425081 358.025248 
L -19.770424 357.453591 
L -23.825129 359.498803 
L -26.625918 359.842048 
z
" clip-path="url(#pa51054991b)" style="fill: #e8edf4; stroke: #b8c5d4; stroke-width: 0.45"/>
    <path d="M -8.665339 302.821607 
L -6.899768 300.757282 
L -6.149987 301.283664 
L -6.721487 303.788519 
L -7.512 304.888281 
z
" clip-path="url(#pa51054991b)" style="fill: #e8edf4; stroke: #b8c5d4; stroke-width: 0.45"/>
    <path d="M 241.773856 348.962399 
L 244.33182 347.86107 
L 247.096263 341.306053 
L 251.37656 341.034559 
L 254.915223 338.405471 
L 258.387462 337.003354 
L 261.012163 338.874515 
L 261.360264 342.517827 
L 265.457267 342.795274 
L 263.965226 349.183761 
L 264.108415 354.618964 
L 270.499251 351.001657 
L 272.314641 352.070713 
L 275.865837 351.895409 
L 277.08748 349.78581 
L 281.672953 350.202215 
L 286.283805 355.126076 
L 286.661985 361.110377 
L 291.571434 366.394715 
L 291.30041 371.526466 
L 289.326479 374.259263 
L 283.643124 373.38901 
L 275.803485 374.547207 
L 271.921108 379.588563 
L 273.357064 386.910751 
L 267.913715 384.126881 
L 262.727603 384.239991 
L 263.616812 379.476551 
L 258.277172 379.512113 
L 257.797789 386.180709 
L 252.553399 400.392385 
L 252.969491 404.780935 
L 256.919233 404.971279 
L 259.379753 410.505178 
L 260.468862 415.753328 
L 263.85243 419.225723 
L 267.525195 419.930542 
L 270.666565 423.077238 
L 268.684488 425.568151 
L 264.682421 426.292239 
L 264.205231 423.178911 
L 259.258184 420.523504 
L 258.204168 421.60478 
L 255.808818 419.278205 
L 254.771721 416.27548 
L 248.61243 409.97676 
L 247.617318 413.540645 
L 246.467425 410.172587 
L 248.91416 400.574896 
L 251.852184 394.34448 
L 255.18186 388.692302 
L 252.811577 383.162788 
L 252.906513 380.346177 
L 252.213758 376.961669 
L 248.170019 372.144337 
L 246.72247 369.102604 
L 248.81609 367.982163 
L 251.035039 362.711297 
L 248.551646 358.709544 
L 244.703734 354.282769 
z
" clip-path="url(#pa51054991b)" style="fill: #e8edf4; stroke: #b8c5d4; stroke-width: 0.45"/>
    <path d="M 258.387462 337.003354 
L 259.679603 334.770462 
L 264.838769 330.826673 
L 265.384577 332.251037 
L 268.61681 332.416471 
L 267.700656 325.481237 
L 270.843906 324.592655 
L 274.387582 329.380221 
L 277.109726 334.889054 
L 284.574318 334.936523 
L 286.924236 340.224151 
L 283.048752 341.812539 
L 281.309499 343.992166 
L 288.573565 347.619186 
L 297.434322 360.125605 
L 302.022301 364.34402 
L 303.549121 368.626824 
L 302.446853 374.688358 
L 297.072748 372.45625 
L 294.32961 376.636753 
L 289.326479 374.259263 
L 291.30041 371.526466 
L 291.571434 366.394715 
L 286.661985 361.110377 
L 286.283805 355.126076 
L 281.672953 350.202215 
L 277.08748 349.78581 
L 275.865837 351.895409 
L 272.314641 352.070713 
L 270.499251 351.001657 
L 264.108415 354.618964 
L 263.965226 349.183761 
L 265.457267 342.795274 
L 261.360264 342.517827 
L 261.012163 338.874515 
z
" clip-path="url(#pa51054991b)" style="fill: #e8edf4; stroke: #b8c5d4; stroke-width: 0.45"/>
    <path d="M 211.017506 330.590742 
L 213.133685 331.508933 
L 213.257761 327.160488 
L 216.249363 325.722182 
L 215.607679 323.147455 
L 216.978151 321.082661 
L 217.213769 314.807911 
L 221.952457 316.189192 
L 224.656115 311.190134 
L 224.962858 308.235817 
L 228.309141 303.149969 
L 228.124907 299.680237 
L 235.974259 295.49049 
L 240.307194 296.586805 
L 239.809952 292.856232 
L 241.935531 291.743781 
L 241.47808 289.445561 
L 245.024263 288.994691 
L 247.050832 292.564216 
L 249.697152 294.009728 
L 249.631355 303.650814 
L 243.888156 308.713947 
L 243.161248 315.906262 
L 249.56117 314.900497 
L 251.007153 320.482022 
L 254.846605 321.656354 
L 253.081661 326.693168 
L 260.209744 330.085353 
L 264.657042 328.320094 
L 264.838769 330.826673 
L 259.679603 334.770462 
L 258.387462 337.003354 
L 254.915223 338.405471 
L 251.37656 341.034559 
L 247.096263 341.306053 
L 244.33182 347.86107 
L 241.773856 348.962399 
L 244.703734 354.282769 
L 248.551646 358.709544 
L 251.035039 362.711297 
L 248.81609 367.982163 
L 246.72247 369.102604 
L 248.170019 372.144337 
L 252.213758 376.961669 
L 252.906513 380.346177 
L 252.811577 383.162788 
L 255.18186 388.692302 
L 251.852184 394.34448 
L 248.91416 400.574896 
L 248.329814 396.074177 
L 250.193455 391.429642 
L 248.15498 387.842101 
L 248.647522 381.236952 
L 246.186062 378.095739 
L 244.210251 370.839193 
L 243.114876 363.179714 
L 240.492368 358.15841 
L 229.607862 365.521172 
L 226.206748 364.981161 
L 222.450013 363.559461 
L 224.539873 356.045364 
L 223.274677 350.368589 
L 218.522203 343.377897 
L 219.263524 341.192317 
L 215.716715 340.415121 
L 211.413545 335.469171 
z
" clip-path="url(#pa51054991b)" style="fill: #e8edf4; stroke: #b8c5d4; stroke-width: 0.45"/>
    <path d="M 270.843906 324.592655 
L 274.097132 323.11299 
L 278.932636 323.143539 
L 284.82811 322.44389 
L 289.996049 319.212753 
L 292.91872 321.487473 
L 298.461392 322.594755 
L 297.502626 326.087516 
L 300.389578 328.551013 
L 306.493725 330.124518 
L 298.398728 335.311726 
L 293.345778 341.040199 
L 292.013845 345.247335 
L 302.320897 359.560684 
L 307.823465 363.305983 
L 311.507509 368.175013 
L 314.285425 379.39587 
L 313.466087 390.06199 
L 308.409378 394.054814 
L 301.465841 397.958497 
L 296.51942 403.013014 
L 288.959578 408.6583 
L 286.758175 404.770126 
L 288.462022 400.662626 
L 283.963966 397.21843 
L 289.212116 394.776395 
L 295.576947 394.336804 
L 292.914333 390.663726 
L 303.10577 385.997573 
L 303.852417 378.73194 
L 302.446853 374.688358 
L 303.549121 368.626824 
L 302.022301 364.34402 
L 297.434322 360.125605 
L 288.573565 347.619186 
L 281.309499 343.992166 
L 283.048752 341.812539 
L 286.924236 340.224151 
L 284.574318 334.936523 
L 277.109726 334.889054 
L 274.387582 329.380221 
z
" clip-path="url(#pa51054991b)" style="fill: #e8edf4; stroke: #b8c5d4; stroke-width: 0.45"/>
    <path d="M 404.810524 218.70724 
L 409.747858 214.818753 
L 416.430084 211.55973 
L 420.595705 207.259538 
L 423.473884 209.159838 
L 428.716394 209.380417 
L 427.769221 206.182022 
L 437.133486 203.570637 
L 439.544189 200.172812 
L 444.308164 204.813415 
L 442.004396 204.449663 
L 437.562111 208.565935 
L 437.791463 212.920959 
L 434.65636 214.261039 
L 431.292844 217.122612 
L 427.255059 218.119604 
L 424.623777 219.747941 
L 424.433904 222.372799 
L 423.726422 223.042525 
L 426.139004 224.028237 
L 429.573017 226.687874 
L 428.700101 228.154223 
L 421.833955 228.847135 
L 419.471818 231.583693 
L 416.765339 231.367814 
L 416.385906 231.917695 
L 413.441302 230.763728 
L 412.709694 231.903125 
L 410.93253 232.406478 
L 410.718844 231.265671 
L 407.517943 229.743081 
L 409.178238 227.074514 
L 410.608868 226.362802 
L 410.0687 225.255051 
L 411.607113 221.984592 
L 411.210133 220.99371 
L 407.671471 220.33307 
z
" clip-path="url(#pa51054991b)" style="fill: #e8edf4; stroke: #b8c5d4; stroke-width: 0.45"/>
    <path d="M 444.308233 204.813426 
L 444.30824 204.813411 
L 444.308255 204.81343 
z
" clip-path="url(#pa51054991b)" style="fill: #e8edf4; stroke: #b8c5d4; stroke-width: 0.45"/>
    <path d="M 416.038118 238.127587 
L 420.5415 237.106313 
L 416.385906 231.917695 
L 416.765339 231.367814 
L 419.471818 231.583693 
L 421.833955 228.847135 
L 428.700101 228.154223 
L 429.573017 226.687874 
L 434.806754 233.841494 
L 436.307568 237.771653 
L 436.355193 244.756705 
L 434.06982 248.089359 
L 428.579472 249.254135 
L 423.733002 251.768547 
L 418.27148 252.287722 
L 417.59345 248.986244 
L 418.717024 244.438996 
z
" clip-path="url(#pa51054991b)" style="fill: #e8edf4; stroke: #b8c5d4; stroke-width: 0.45"/>
    <path d="M 183.418192 161.903305 
L 189.810595 160.852422 
L 201.37971 155.630278 
L 210.602041 152.778418 
L 215.873947 154.639084 
L 222.199981 154.728536 
L 226.252493 157.560657 
L 232.303953 157.778769 
L 241.069703 159.303107 
L 246.963101 155.081024 
L 244.501328 151.512282 
L 250.781248 145.228602 
L 257.57345 147.734867 
L 270.205905 150.003072 
L 271.362028 154.546499 
L 279.975686 157.096626 
L 293.375544 155.180347 
L 299.452118 155.979006 
L 305.390203 158.892904 
L 309.070488 161.992132 
L 314.692744 161.928997 
L 322.329664 162.916276 
L 327.903042 161.413582 
L 335.885243 160.40954 
L 344.766052 156.136607 
L 348.401845 156.791764 
L 351.576427 158.823346 
L 358.810414 158.317957 
L 351.57392 168.947575 
L 353.135519 171.426425 
L 356.567966 170.657219 
L 362.549603 171.601259 
L 367.20996 169.363824 
L 372.07523 171.302036 
L 377.569964 175.540191 
L 376.905721 177.694909 
L 372.122228 177.011396 
L 363.314736 177.815851 
L 359.047286 179.541004 
L 354.604374 183.548554 
L 345.359485 185.897532 
L 339.318003 189.116606 
L 329.67394 187.338971 
L 326.491212 191.247511 
L 328.427544 193.577376 
L 329.408869 195.578566 
L 325.165231 197.617512 
L 320.814437 200.864941 
L 313.729591 202.997883 
L 304.64199 203.227862 
L 294.847219 205.332918 
L 287.787753 208.588338 
L 285.10352 206.703077 
L 277.767077 206.708404 
L 268.798224 203.025612 
L 262.812827 202.122617 
L 254.748536 202.966081 
L 242.233814 201.606732 
L 235.550021 201.747727 
L 231.991305 198.14734 
L 229.229055 192.557825 
L 225.482346 191.884809 
L 218.156869 188.106611 
L 202.785587 186.223387 
L 200.604237 183.594142 
L 202.938802 176.509767 
L 198.755322 171.626481 
L 190.106058 169.349568 
L 185.010183 166.133783 
z
" clip-path="url(#pa51054991b)" style="fill: #e8edf4; stroke: #b8c5d4; stroke-width: 0.45"/>
    <path d="M 64.734185 317.151875 
L 68.771971 313.106727 
L 82.114804 313.12255 
L 80.911019 307.916855 
L 77.504578 304.842066 
L 76.813703 300.175599 
L 72.845161 297.452671 
L 79.527388 291.097084 
L 86.567741 291.557981 
L 92.910326 285.201297 
L 96.71124 279.048272 
L 102.597 272.964492 
L 102.503317 268.642523 
L 107.673449 265.135192 
L 102.77998 262.14124 
L 98.526003 252.726373 
L 101.498492 250.112011 
L 110.695443 251.591206 
L 117.453807 250.690091 
L 123.309175 245.594216 
L 129.825967 252.700681 
L 129.212482 257.646631 
L 131.624438 260.749776 
L 131.425791 263.845714 
L 127.07437 263.030919 
L 128.774771 269.714085 
L 134.731656 273.553224 
L 143.158774 277.792789 
L 139.311489 280.543133 
L 136.957184 286.214581 
L 156.455235 294.884681 
L 164.766425 295.670494 
L 168.263416 298.754839 
L 180.242356 300.745376 
L 185.291546 300.644016 
L 185.986182 298.24428 
L 185.187837 294.391668 
L 185.656567 291.780126 
L 189.354397 290.504904 
L 189.992948 296.494688 
L 195.503662 298.796041 
L 199.315855 297.848241 
L 209.381963 298.075086 
L 209.807768 294.350466 
L 207.339728 292.415544 
L 212.229437 291.656834 
L 217.748297 287.147342 
L 224.736953 283.28627 
L 229.822801 284.776118 
L 234.145083 282.223011 
L 236.98817 285.993219 
L 234.940295 288.539433 
L 241.47808 289.445561 
L 241.935531 291.743781 
L 239.809952 292.856232 
L 240.307194 296.586805 
L 235.974259 295.49049 
L 228.124907 299.680237 
L 228.309141 303.149969 
L 224.962858 308.235817 
L 224.656115 311.190134 
L 221.952457 316.189192 
L 217.213769 314.807911 
L 216.978151 321.082661 
L 215.607679 323.147455 
L 216.249363 325.722182 
L 213.257761 327.160488 
L 210.064379 317.542745 
L 208.390298 317.561857 
L 207.399259 321.436715 
L 204.079609 318.294405 
L 205.95171 314.843786 
L 208.664142 314.493492 
L 211.459917 309.362368 
L 207.963866 308.327151 
L 202.340983 308.417074 
L 196.571778 307.585517 
L 196.036937 303.369607 
L 193.142465 303.070541 
L 188.340173 300.45054 
L 186.198301 304.564149 
L 190.574475 307.773823 
L 186.783901 310.033034 
L 185.438181 312.242584 
L 189.170164 313.86716 
L 188.138393 317.520656 
L 190.239533 322.080123 
L 191.18326 327.072758 
L 190.315044 329.286537 
L 186.190468 329.210243 
L 178.71585 330.469016 
L 179.064264 335.03005 
L 175.827644 338.617434 
L 167.102243 342.698301 
L 160.315994 349.832025 
L 155.75778 353.656594 
L 149.716298 357.625449 
L 149.706898 360.414331 
L 141.223068 364.080673 
L 138.390948 364.400732 
L 136.573051 369.025526 
L 138.156896 381.940988 
L 135.587652 387.701263 
L 135.56008 398.002206 
L 132.42247 398.295789 
L 129.662726 402.92027 
L 131.508195 404.91864 
L 125.979935 406.637527 
L 123.938013 410.761006 
L 121.505065 412.503705 
L 115.763746 406.842283 
L 110.631212 392.236291 
L 108.506887 389.368451 
L 105.285619 383.543632 
L 102.733295 372.173476 
L 97.217882 363.846151 
L 92.893093 344.337447 
L 92.914712 336.993327 
L 91.738814 331.315143 
L 82.915342 334.944356 
L 78.641939 334.217448 
L 70.721462 326.869098 
L 73.636614 324.677408 
L 71.845976 322.298195 
z
" clip-path="url(#pa51054991b)" style="fill: #e8edf4; stroke: #b8c5d4; stroke-width: 0.45"/>
    <path d="M 185.438181 312.242584 
L 186.783901 310.033034 
L 190.574475 307.773823 
L 186.198301 304.564149 
L 188.340173 300.45054 
L 193.142465 303.070541 
L 196.036937 303.369607 
L 196.571778 307.585517 
L 202.340983 308.417074 
L 207.963866 308.327151 
L 211.459917 309.362368 
L 208.664142 314.493492 
L 205.95171 314.843786 
L 204.079609 318.294405 
L 207.399259 321.436715 
L 208.390298 317.561857 
L 210.064379 317.542745 
L 213.257761 327.160488 
L 213.133685 331.508933 
L 211.017506 330.590742 
L 211.413545 335.469171 
L 209.681499 332.308375 
L 209.331832 329.219956 
L 208.177865 326.301358 
L 205.644654 322.772095 
L 200.059996 322.529584 
L 200.611443 325.028956 
L 198.707697 328.402655 
L 196.1278 327.173178 
L 195.246111 328.276856 
L 191.18326 327.072758 
L 190.239533 322.080123 
L 188.138393 317.520656 
L 189.170164 313.86716 
z
" clip-path="url(#pa51054991b)" style="fill: #e8edf4; stroke: #b8c5d4; stroke-width: 0.45"/>
    <path d="M 189.863233 295.279937 
L 193.874386 290.772325 
L 197.148605 289.234225 
L 201.481853 290.637753 
L 204.685261 290.785328 
L 209.807768 294.350466 
L 209.381963 298.075086 
L 199.315855 297.848241 
L 195.503662 298.796041 
L 189.992948 296.494688 
z
" clip-path="url(#pa51054991b)" style="fill: #e8edf4; stroke: #b8c5d4; stroke-width: 0.45"/>
    <path d="M 136.957184 286.214581 
L 139.311489 280.543133 
L 145.672246 276.342263 
L 150.533129 278.206375 
L 156.654508 282.156743 
L 160.061263 283.026839 
L 162.095978 285.939171 
L 166.807406 287.134339 
L 171.728761 289.797266 
L 178.587388 291.187634 
L 185.656567 291.780126 
L 185.187837 294.391668 
L 185.986182 298.24428 
L 185.291546 300.644016 
L 180.242356 300.745376 
L 168.263416 298.754839 
L 164.766425 295.670494 
L 156.455235 294.884681 
z
" clip-path="url(#pa51054991b)" style="fill: #e8edf4; stroke: #b8c5d4; stroke-width: 0.45"/>
    <path d="M 20.458601 279.940614 
L 30.618079 283.036866 
L 36.683687 282.128857 
L 40.307887 282.90198 
L 41.53517 281.572867 
L 45.757816 282.105515 
L 53.63756 279.58468 
L 53.849679 274.4252 
L 57.229488 270.993381 
L 61.743523 271.004033 
L 62.4062 269.307706 
L 67.039925 268.517194 
L 69.281746 269.081801 
L 71.65297 267.3767 
L 71.318028 263.735581 
L 73.892598 260.076133 
L 77.751476 258.54195 
L 75.368346 254.53064 
L 81.135985 254.7202 
L 82.803173 252.537126 
L 82.550008 250.207575 
L 85.569809 247.660577 
L 84.87674 244.645006 
L 83.443291 242.075293 
L 86.983833 239.434455 
L 93.494045 238.1608 
L 100.451682 237.456451 
L 107.063411 235.65657 
L 111.543294 238.483365 
L 113.337691 243.142312 
L 123.309175 245.594216 
L 117.453807 250.690091 
L 110.695443 251.591206 
L 101.498492 250.112011 
L 98.526003 252.726373 
L 102.77998 262.14124 
L 107.673449 265.135192 
L 102.503317 268.642523 
L 102.597 272.964492 
L 96.71124 279.048272 
L 92.910326 285.201297 
L 86.567741 291.557981 
L 79.527388 291.097084 
L 72.845161 297.452671 
L 76.813703 300.175599 
L 77.504578 304.842066 
L 80.911019 307.916855 
L 82.114804 313.12255 
L 68.771971 313.106727 
L 64.734185 317.151875 
L 60.290021 315.618632 
L 58.481837 311.260631 
L 53.797355 306.643356 
L 42.626472 307.78385 
L 32.775617 307.896802 
L 24.236642 308.746689 
L 26.521389 301.702889 
L 35.267156 298.570919 
L 34.765527 295.778746 
L 31.864476 294.797264 
L 31.697161 289.457311 
L 25.901011 286.791408 
L 23.46023 283.129609 
z
" clip-path="url(#pa51054991b)" style="fill: #e8edf4; stroke: #b8c5d4; stroke-width: 0.45"/>
    <path d="M 18.361848 256.61439 
L 22.49927 244.647982 
L 28.682687 246.948395 
L 33.254374 246.13971 
L 34.520823 243.392343 
L 39.306822 242.478068 
L 42.723916 240.634166 
L 43.93428 235.785189 
L 49.044568 234.61258 
L 49.994561 232.454416 
L 52.854881 234.075546 
L 58.059479 234.303801 
L 64.485094 236.323007 
L 68.874114 234.375395 
L 70.916349 235.546751 
L 72.871794 232.770715 
L 76.496307 232.89667 
L 77.430008 232.005738 
L 78.071065 229.560884 
L 80.681354 227.451598 
L 83.963406 228.830216 
L 83.304175 230.683361 
L 85.138365 230.971304 
L 84.573131 236.065143 
L 86.973807 238.050667 
L 89.086226 236.776698 
L 91.777352 236.174806 
L 95.555707 233.460337 
L 105.984015 233.916691 
L 107.063411 235.65657 
L 100.451682 237.456451 
L 93.494045 238.1608 
L 86.983833 239.434455 
L 83.443291 242.075293 
L 84.87674 244.645006 
L 85.569809 247.660577 
L 82.550008 250.207575 
L 82.803173 252.537126 
L 81.135985 254.7202 
L 75.368346 254.53064 
L 77.751476 258.54195 
L 73.892598 260.076133 
L 71.318028 263.735581 
L 71.65297 267.3767 
L 69.281746 269.081801 
L 67.039925 268.517194 
L 62.4062 269.307706 
L 61.743523 271.004033 
L 57.229488 270.993381 
L 53.849679 274.4252 
L 53.63756 279.58468 
L 45.757816 282.105515 
L 41.53517 281.572867 
L 40.307887 282.90198 
L 36.683687 282.128857 
L 30.618079 283.036866 
L 20.458601 279.940614 
L 25.957722 274.443686 
L 25.461106 270.5411 
L 20.869054 269.519042 
L 20.39437 265.669877 
L 18.40822 260.82936 
L 21.000962 257.509396 
z
" clip-path="url(#pa51054991b)" style="fill: #e8edf4; stroke: #b8c5d4; stroke-width: 0.45"/>
    <path d="M 60.281248 223.48713 
L 61.852873 220.81731 
L 66.915536 221.102433 
L 69.796848 217.751294 
L 71.724094 213.86077 
L 79.83131 212.451759 
L 78.567368 215.263357 
L 79.435897 216.948719 
L 81.938716 216.792057 
L 79.718514 218.663219 
L 73.119318 217.647897 
L 72.544999 221.143478 
L 79.119128 220.673495 
L 86.610353 222.642413 
L 98.073878 221.722185 
L 99.610725 227.333162 
L 101.603455 226.722653 
L 105.285619 228.102995 
L 105.07444 230.460589 
L 105.984015 233.916691 
L 95.555707 233.460337 
L 91.777352 236.174806 
L 89.086226 236.776698 
L 86.973807 238.050667 
L 84.573131 236.065143 
L 85.138365 230.971304 
L 83.304175 230.683361 
L 83.963406 228.830216 
L 80.681354 227.451598 
L 78.071065 229.560884 
L 77.430008 232.005738 
L 76.496307 232.89667 
L 72.871794 232.770715 
L 70.916349 235.546751 
L 68.874114 234.375395 
L 64.485094 236.323007 
L 62.632419 235.584036 
L 66.040113 229.447931 
L 64.730425 224.933739 
z
" clip-path="url(#pa51054991b)" style="fill: #e8edf4; stroke: #b8c5d4; stroke-width: 0.45"/>
    <path d="M 72.544999 221.143478 
L 73.119318 217.647897 
L 79.718514 218.663219 
L 81.938716 216.792057 
L 86.550822 217.389406 
L 94.31495 213.022789 
L 87.128275 209.828311 
L 82.809753 211.339935 
L 78.336136 209.057695 
L 83.424491 205.130512 
L 81.624141 204.533633 
L 82.98208 201.877129 
L 86.973807 201.021603 
L 96.948425 203.110366 
L 97.891525 199.530815 
L 101.332744 198.275332 
L 109.967282 200.824523 
L 112.170565 200.156833 
L 131.219939 200.956745 
L 134.260419 203.135902 
L 137.997415 204.025267 
L 137.145178 205.395896 
L 127.591039 208.680298 
L 125.429741 211.086927 
L 117.652453 211.807412 
L 115.359874 215.67898 
L 108.941778 214.865751 
L 104.752345 216.05199 
L 98.964341 218.91654 
L 99.799658 220.335107 
L 98.073878 221.722185 
L 86.610353 222.642413 
L 79.119128 220.673495 
z
" clip-path="url(#pa51054991b)" style="fill: #e8edf4; stroke: #b8c5d4; stroke-width: 0.45"/>
    <path d="M -30.300876 207.461161 
L -27.621969 205.443834 
L -20.73953 204.182242 
L -16.641274 205.880763 
L -12.397635 210.634959 
L -2.447144 210.256309 
L -3.442569 207.2022 
L 1.737277 205.113279 
L 6.845371 201.590596 
L 15.014939 204.794787 
L 15.663203 209.632798 
L 17.983041 210.874651 
L 24.538685 210.595481 
L 26.573087 211.696026 
L 29.55341 217.946964 
L 40.442615 224.989197 
L 46.78332 227.958397 
L 54.848238 230.553489 
L 54.681237 234.263539 
L 52.854881 234.075546 
L 49.994561 232.454416 
L 49.044568 234.61258 
L 43.93428 235.785189 
L 42.723916 240.634166 
L 39.306822 242.478068 
L 34.520823 243.392343 
L 33.254374 246.13971 
L 28.682687 246.948395 
L 22.49927 244.647982 
L 21.967249 239.545684 
L 17.447573 239.328709 
L 10.518136 233.959147 
L 5.676052 233.296313 
L -1.028107 230.222777 
L -5.339422 229.663967 
L -8.001096 230.793337 
L -12.056114 230.617563 
L -16.368683 234.083849 
L -21.696417 235.257084 
L -22.824691 230.969111 
L -21.943001 224.62731 
L -26.671663 222.575048 
L -25.114764 218.423527 
L -29.139703 218.069786 
L -27.798057 212.959185 
L -22.081177 214.447623 
L -16.753443 212.507531 
L -21.170662 208.868448 
L -22.908348 205.400439 
L -27.78897 206.946999 
L -28.407782 211.389753 
z
" clip-path="url(#pa51054991b)" style="fill: #e8edf4; stroke: #b8c5d4; stroke-width: 0.45"/>
    <path d="M -81.190381 221.740984 
L -77.038547 220.013795 
L -76.076334 222.301048 
L -73.014234 225.099957 
L -68.855506 225.905978 
L -66.660057 225.727698 
L -59.509413 221.254551 
L -57.235633 220.806657 
L -55.444369 222.586015 
L -57.534856 225.585763 
L -53.753682 228.760658 
L -52.244721 228.458302 
L -50.326561 232.929099 
L -44.577723 234.192102 
L -40.366357 237.234305 
L -31.746545 238.279549 
L -22.277316 236.675181 
L -21.696417 235.257084 
L -16.368683 234.083849 
L -12.056114 230.617563 
L -8.001096 230.793337 
L -5.339422 229.663967 
L -1.028107 230.222777 
L 5.676052 233.296313 
L 10.518136 233.959147 
L 17.447573 239.328709 
L 21.967249 239.545684 
L 22.49927 244.647982 
L 18.361848 256.61439 
L 21.000962 257.509396 
L 18.40822 260.82936 
L 20.39437 265.669877 
L 20.869054 269.519042 
L 25.461106 270.5411 
L 25.957722 274.443686 
L 20.458601 279.940614 
L 23.46023 283.129609 
L 25.901011 286.791408 
L 31.697161 289.457311 
L 31.864476 294.797264 
L 34.765527 295.778746 
L 35.267156 298.570919 
L 26.521389 301.702889 
L 24.236642 308.746689 
L 6.219353 305.522759 
L -0.622981 304.73491 
L -3.20883 297.30024 
L -6.110822 296.225857 
L -10.769926 297.30917 
L -16.885352 300.24359 
L -24.294486 298.232374 
L -30.415238 293.572957 
L -36.253061 291.845924 
L -40.302126 286.093012 
L -44.776369 278.009295 
L -48.039308 278.991874 
L -51.892547 276.982694 
L -54.156301 279.349218 
L -57.51167 276.161946 
L -57.571515 272.932219 
L -59.50816 272.933943 
L -58.514302 268.54226 
L -61.634052 263.934384 
L -69.063239 260.610974 
L -73.263012 254.847879 
L -71.857761 250.116554 
L -68.806001 248.024031 
L -69.263452 244.482392 
L -73.2392 242.662459 
L -77.167811 235.429693 
L -80.483839 230.572288 
L -79.297601 228.694547 
z
" clip-path="url(#pa51054991b)" style="fill: #e8edf4; stroke: #b8c5d4; stroke-width: 0.45"/>
    <path d="M 98.073878 221.722185 
L 99.799658 220.335107 
L 98.964341 218.91654 
L 104.752345 216.05199 
L 108.941778 214.865751 
L 115.359874 215.67898 
L 117.652453 211.807412 
L 125.429741 211.086927 
L 127.591039 208.680298 
L 137.145178 205.395896 
L 137.997415 204.025267 
L 137.513332 200.568852 
L 141.672999 198.990647 
L 136.21555 188.458002 
L 148.22645 186.035707 
L 151.329908 184.685914 
L 155.704828 173.830547 
L 167.732961 175.825784 
L 171.105249 173.085154 
L 171.394759 167.005133 
L 176.430476 166.438646 
L 181.045715 162.401801 
L 183.418192 161.903305 
L 185.010183 166.133783 
L 190.106058 169.349568 
L 198.755322 171.626481 
L 202.938802 176.509767 
L 200.604237 183.594142 
L 202.785587 186.223387 
L 218.156869 188.106611 
L 225.482346 191.884809 
L 229.229055 192.557825 
L 231.991305 198.14734 
L 235.550021 201.747727 
L 242.233814 201.606732 
L 254.748536 202.966081 
L 262.812827 202.122617 
L 268.798224 203.025612 
L 277.767077 206.708404 
L 285.10352 206.703077 
L 287.787753 208.588338 
L 294.847219 205.332918 
L 304.64199 203.227862 
L 313.729591 202.997883 
L 320.814437 200.864941 
L 325.165231 197.617512 
L 329.408869 195.578566 
L 328.427544 193.577376 
L 326.491212 191.247511 
L 329.67394 187.338971 
L 339.318003 189.116606 
L 345.359485 185.897532 
L 354.604374 183.548554 
L 359.047286 179.541004 
L 363.314736 177.815851 
L 372.122228 177.011396 
L 376.905721 177.694909 
L 377.569964 175.540191 
L 372.07523 171.302036 
L 367.20996 169.363824 
L 362.549603 171.601259 
L 356.567966 170.657219 
L 353.135519 171.426425 
L 351.57392 168.947575 
L 358.810414 158.317957 
L 366.088892 160.60709 
L 374.633193 156.775784 
L 374.578196 154.107769 
L 380.051348 147.677002 
L 383.423192 145.733396 
L 383.347942 142.385828 
L 380.021085 140.944858 
L 385.02923 137.928347 
L 392.563693 136.835009 
L 400.601755 136.670855 
L 409.676734 138.476191 
L 415.001021 140.708927 
L 423.132363 153.156598 
L 425.375394 159.095626 
L 435.927822 161.033835 
L 443.109484 165.344211 
L 445.564861 171.040896 
L 454.777405 171.04799 
L 460.033591 168.656185 
L 470.054267 166.868838 
L 466.868069 172.324345 
L 464.512775 174.543279 
L 462.434894 181.18579 
L 458.357275 187.084254 
L 450.998628 186.010641 
L 445.794836 188.152158 
L 447.391661 193.344891 
L 446.519371 200.508694 
L 443.422179 200.672248 
L 443.459367 203.752274 
L 439.544189 200.172812 
L 437.133486 203.570637 
L 427.769221 206.182022 
L 428.716394 209.380417 
L 423.473884 209.159838 
L 420.595705 207.259538 
L 416.430084 211.55973 
L 409.747858 214.818753 
L 404.810524 218.70724 
L 396.333901 220.469835 
L 391.87031 223.303366 
L 385.341299 224.958492 
L 388.563506 222.14893 
L 387.294864 219.787889 
L 392.095902 215.712348 
L 388.893121 212.535573 
L 383.607686 214.675878 
L 376.762219 218.891787 
L 373.026476 222.806907 
L 367.080244 223.098297 
L 363.987753 225.927598 
L 367.183014 230.027264 
L 372.145414 231.022533 
L 372.348447 233.744051 
L 377.145412 235.514949 
L 383.940121 231.185617 
L 389.322999 233.546031 
L 393.243916 233.707549 
L 394.226494 236.883854 
L 385.642088 238.577205 
L 382.809654 241.85064 
L 376.913554 244.892217 
L 373.801009 249.136012 
L 380.326888 252.467882 
L 382.708764 258.43166 
L 386.399075 263.987962 
L 390.516758 268.645343 
L 390.418374 273.149195 
L 386.612761 274.804947 
L 388.063443 278.038747 
L 391.632185 279.920718 
L 390.700365 284.859149 
L 389.160385 289.66426 
L 385.77243 290.208971 
L 376.43417 304.729583 
L 370.803767 311.965293 
L 354.032248 322.663842 
L 347.199627 323.359888 
L 343.493337 326.053834 
L 341.396897 324.085856 
L 337.966957 327.099077 
L 329.49378 330.135954 
L 323.078191 331.065738 
L 321.00807 337.469107 
L 317.648001 337.824258 
L 316.058203 333.423802 
L 317.49416 331.078428 
L 309.359371 329.137239 
L 306.493725 330.124518 
L 300.389578 328.551013 
L 297.502626 326.087516 
L 298.461392 322.594755 
L 292.91872 321.487473 
L 289.996049 319.212753 
L 284.82811 322.44389 
L 278.932636 323.143539 
L 274.097132 323.11299 
L 267.700656 325.481237 
L 268.61681 332.416471 
L 265.384577 332.251037 
L 264.657042 328.320094 
L 260.209744 330.085353 
L 253.081661 326.693168 
L 254.846605 321.656354 
L 251.007153 320.482022 
L 249.56117 314.900497 
L 243.161248 315.906262 
L 243.888156 308.713947 
L 249.631355 303.650814 
L 249.697152 294.009728 
L 247.050832 292.564216 
L 245.024263 288.994691 
L 241.47808 289.445561 
L 234.940295 288.539433 
L 236.98817 285.993219 
L 234.145083 282.223011 
L 229.822801 284.776118 
L 224.736953 283.28627 
L 217.748297 287.147342 
L 212.229437 291.656834 
L 207.339728 292.415544 
L 204.685261 290.785328 
L 201.481853 290.637753 
L 197.148605 289.234225 
L 193.874386 290.772325 
L 189.863233 295.279937 
L 189.354397 290.504904 
L 185.656567 291.780126 
L 178.587388 291.187634 
L 171.728761 289.797266 
L 166.807406 287.134339 
L 162.095978 285.939171 
L 160.061263 283.026839 
L 156.654508 282.156743 
L 150.533129 278.206375 
L 145.672246 276.342263 
L 143.158774 277.792789 
L 134.731656 273.553224 
L 128.774771 269.714085 
L 127.07437 263.030919 
L 131.425791 263.845714 
L 131.624438 260.749776 
L 129.212482 257.646631 
L 129.825967 252.700681 
L 123.309175 245.594216 
L 113.337691 243.142312 
L 111.543294 238.483365 
L 107.063411 235.65657 
L 105.984015 233.916691 
L 105.07444 230.460589 
L 105.285619 228.102995 
L 101.603455 226.722653 
L 99.610725 227.333162 
z
" clip-path="url(#pa51054991b)" style="fill: #e8edf4; stroke: #b8c5d4; stroke-width: 0.45"/>
    <path d="M 309.986329 343.369438 
L 312.974485 340.621914 
L 319.598746 338.922923 
L 323.084771 339.066738 
L 324.43989 341.380467 
L 321.77571 344.048564 
L 320.372339 347.549941 
L 315.133902 350.464466 
L 310.162103 348.585002 
z
" clip-path="url(#pa51054991b)" style="fill: #e8edf4; stroke: #b8c5d4; stroke-width: 0.45"/>
    <path d="M 379.591207 317.97466 
L 383.159322 312.019498 
L 388.012059 307.429639 
L 390.778068 309.235629 
L 386.075413 322.615434 
L 383.477031 327.588957 
L 380.281769 322.469896 
z
" clip-path="url(#pa51054991b)" style="fill: #e8edf4; stroke: #b8c5d4; stroke-width: 0.45"/>
    <path d="M 378.242667 361.584277 
L 380.684388 363.579514 
L 381.312286 354.093992 
L 383.287784 348.599885 
L 386.958669 348.606934 
L 390.695351 350.33804 
L 392.565259 348.759209 
L 393.116707 350.299658 
L 392.130368 352.813444 
L 394.200175 357.159382 
L 392.603485 362.198232 
L 389.029103 364.207725 
L 388.072843 369.095867 
L 389.429529 373.924792 
L 392.64359 374.592795 
L 395.325629 373.875287 
L 402.898631 377.236766 
L 402.321491 380.537304 
L 404.299182 381.993939 
L 403.669404 384.788148 
L 398.943876 381.812056 
L 396.704248 378.626507 
L 395.144216 380.852193 
L 391.283771 377.22251 
L 385.776817 378.118612 
L 382.758896 376.778845 
L 383.066578 374.27258 
L 384.960925 372.73025 
L 383.151175 371.327976 
L 382.367869 373.513086 
L 379.374388 370.029255 
L 378.467946 367.388887 
z
" clip-path="url(#pa51054991b)" style="fill: #e8edf4; stroke: #b8c5d4; stroke-width: 0.45"/>
    <path d="M 390.588195 417.193044 
L 392.967565 412.082756 
L 396.787591 410.377343 
L 400.093769 408.092909 
L 402.236894 410.837613 
L 406.846806 409.177318 
L 407.835965 406.471623 
L 412.121275 406.310418 
L 411.761894 401.621549 
L 416.676669 404.497065 
L 418.584802 417.20965 
L 416.519381 422.757963 
L 414.304192 416.577052 
L 411.469251 419.652468 
L 413.40527 424.119975 
L 411.667271 426.961496 
L 404.532607 423.442729 
L 402.828447 419.054336 
L 404.677362 416.171457 
L 400.836656 413.304087 
L 398.93197 415.818186 
L 396.078856 415.58476 
L 391.59208 418.967702 
z
" clip-path="url(#pa51054991b)" style="fill: #e8edf4; stroke: #b8c5d4; stroke-width: 0.45"/>
    <path d="M 404.817417 384.660313 
L 410.6402 384.793945 
L 412.310208 387.055662 
L 414.013429 393.825619 
L 409.335212 392.216865 
L 409.461795 394.251894 
L 410.945376 397.993433 
L 408.061557 399.351842 
L 407.809019 395.087524 
L 405.983603 394.772635 
L 405.034236 391.101751 
L 408.602351 391.58552 
L 408.523394 389.289964 
z
" clip-path="url(#pa51054991b)" style="fill: #e8edf4; stroke: #b8c5d4; stroke-width: 0.45"/>
    <path d="M 393.378017 401.906359 
L 396.149041 398.584985 
L 396.817984 394.821514 
L 400.161447 394.465266 
L 399.184821 398.54723 
L 403.672537 392.694212 
L 403.093517 398.478142 
L 400.9153 400.471029 
L 399.01594 404.301865 
L 397.11188 406.097046 
z
" clip-path="url(#pa51054991b)" style="fill: #e8edf4; stroke: #b8c5d4; stroke-width: 0.45"/>
    <path d="M 390.367616 388.698411 
L 394.007169 390.575369 
L 397.865734 390.566439 
L 397.748238 393.099181 
L 394.940243 395.673751 
L 391.089511 397.494467 
L 390.875825 394.677072 
L 391.30633 391.583954 
z
" clip-path="url(#pa51054991b)" style="fill: #e8edf4; stroke: #b8c5d4; stroke-width: 0.45"/>
    <path d="M 361.814549 410.066527 
L 364.786725 405.826022 
L 369.166971 402.08135 
L 372.807464 397.886903 
L 375.985493 391.863907 
L 377.065828 396.807664 
L 373.062822 400.146271 
L 369.880406 404.313302 
z
" clip-path="url(#pa51054991b)" style="fill: #e8edf4; stroke: #b8c5d4; stroke-width: 0.45"/>
    <path d="M 380.908414 379.151009 
L 386.102672 379.373624 
L 388.208198 381.557011 
L 386.600228 386.795761 
z
" clip-path="url(#pa51054991b)" style="fill: #e8edf4; stroke: #b8c5d4; stroke-width: 0.45"/>
    <path d="M 435.992366 258.920756 
L 441.724912 257.052728 
L 444.905134 253.241475 
L 451.003328 250.106998 
L 455.450312 245.961743 
L 467.519803 244.15356 
L 474.002756 245.393376 
L 480.346594 234.61399 
L 484.389392 237.509716 
L 496.732727 229.090587 
L 500.542727 221.676283 
L 499.503437 214.858232 
L 502.064534 211.028179 
L 508.510828 209.915258 
L 511.817006 218.324517 
L 511.637159 223.240232 
L 506.028062 229.345005 
L 506.130518 235.601739 
L 503.847025 240.44069 
L 504.903861 243.478977 
L 501.746198 247.752067 
L 493.99899 250.604867 
L 483.340389 250.976624 
L 474.702718 257.897602 
L 470.628274 255.567737 
L 470.376363 251.035686 
L 459.831812 252.373259 
L 452.65579 255.229036 
L 445.558098 255.345278 
L 451.705483 259.806362 
L 447.659865 270.111535 
L 443.740202 272.662762 
L 440.806251 270.306265 
L 442.293279 264.841922 
L 438.455393 263.078544 
z
" clip-path="url(#pa51054991b)" style="fill: #e8edf4; stroke: #b8c5d4; stroke-width: 0.45"/>
    <path d="M 499.104264 202.729209 
L 502.102759 198.063526 
L 508.581013 197.726705 
L 510.347837 189.339535 
L 512.140668 184.614163 
L 519.266245 190.926669 
L 528.18246 194.258226 
L 532.47153 191.688356 
L 533.819443 198.495128 
L 524.824897 200.154796 
L 519.51471 206.176382 
L 509.98125 202.031754 
L 506.681652 208.666042 
L 499.938328 208.757219 
z
" clip-path="url(#pa51054991b)" style="fill: #e8edf4; stroke: #b8c5d4; stroke-width: 0.45"/>
    <path d="M 453.906886 260.780168 
L 453.955764 257.904652 
L 457.30988 254.287032 
L 460.757366 254.988404 
L 463.250159 252.439996 
L 467.70247 253.747804 
L 468.478256 255.826855 
L 465.064922 259.496016 
L 462.576203 257.550911 
L 459.467731 258.960078 
L 457.858508 262.507044 
z
" clip-path="url(#pa51054991b)" style="fill: #e8edf4; stroke: #b8c5d4; stroke-width: 0.45"/>
   </g>
   <g id="PathCollection_1">
    <defs>
     <path id="me1e530aac4" d="M 0 2.12132 
C 0.562581 2.12132 1.102195 1.897805 1.5 1.5 
C 1.897805 1.102195 2.12132 0.562581 2.12132 0 
C 2.12132 -0.562581 1.897805 -1.102195 1.5 -1.5 
C 1.102195 -1.897805 0.562581 -2.12132 0 -2.12132 
C -0.562581 -2.12132 -1.102195 -1.897805 -1.5 -1.5 
C -1.897805 -1.102195 -2.12132 -0.562581 -2.12132 0 
C -2.12132 0.562581 -1.897805 1.102195 -1.5 1.5 
C -1.102195 1.897805 -0.562581 2.12132 0 2.12132 
z
" style="stroke: #ffffff; stroke-width: 0.5"/>
    </defs>
    <g clip-path="url(#pa51054991b)">
     <use xlink:href="#me1e530aac4" x="200.084211" y="294.063158" style="fill: #8aa0b7; stroke: #ffffff; stroke-width: 0.5"/>
     <use xlink:href="#me1e530aac4" x="343.578947" y="325.894737" style="fill: #8aa0b7; stroke: #ffffff; stroke-width: 0.5"/>
     <use xlink:href="#me1e530aac4" x="339.84" y="326.4" style="fill: #8aa0b7; stroke: #ffffff; stroke-width: 0.5"/>
     <use xlink:href="#me1e530aac4" x="385.010526" y="318.315789" style="fill: #8aa0b7; stroke: #ffffff; stroke-width: 0.5"/>
    </g>
   </g>
   <g id="PatchCollection_2">
    <defs>
     <path id="m5367570002" d="M 183.418192 -201.886169 
L 189.810595 -202.937052 
L 201.37971 -208.159196 
L 210.602041 -211.011056 
L 215.873947 -209.15039 
L 222.199981 -209.060938 
L 226.252493 -206.228817 
L 232.303953 -206.010705 
L 241.069703 -204.486366 
L 246.963101 -208.70845 
L 244.501328 -212.277192 
L 250.781248 -218.560872 
L 257.57345 -216.054606 
L 270.205905 -213.786402 
L 271.362028 -209.242974 
L 279.975686 -206.692847 
L 293.375544 -208.609127 
L 299.452118 -207.810468 
L 305.390203 -204.89657 
L 309.070488 -201.797342 
L 314.692744 -201.860476 
L 322.329664 -200.873198 
L 327.903042 -202.375892 
L 335.885243 -203.379933 
L 344.766052 -207.652867 
L 348.401845 -206.99771 
L 351.576427 -204.966128 
L 358.810414 -205.471517 
L 351.57392 -194.841899 
L 353.135519 -192.363049 
L 356.567966 -193.132255 
L 362.549603 -192.188215 
L 367.20996 -194.42565 
L 372.07523 -192.487438 
L 377.569964 -188.249283 
L 376.905721 -186.094565 
L 372.122228 -186.778078 
L 363.314736 -185.973622 
L 359.047286 -184.248469 
L 354.604374 -180.24092 
L 345.359485 -177.891942 
L 339.318003 -174.672868 
L 329.67394 -176.450502 
L 326.491212 -172.541962 
L 328.427544 -170.212097 
L 329.408869 -168.210907 
L 325.165231 -166.171962 
L 320.814437 -162.924532 
L 313.729591 -160.79159 
L 304.64199 -160.561612 
L 294.847219 -158.456555 
L 287.787753 -155.201136 
L 285.10352 -157.086397 
L 277.767077 -157.08107 
L 268.798224 -160.763861 
L 262.812827 -161.666856 
L 254.748536 -160.823393 
L 242.233814 -162.182742 
L 235.550021 -162.041747 
L 231.991305 -165.642134 
L 229.229055 -171.231648 
L 225.482346 -171.904665 
L 218.156869 -175.682862 
L 202.785587 -177.566087 
L 200.604237 -180.195331 
L 202.938802 -187.279707 
L 198.755322 -192.162992 
L 190.106058 -194.439906 
L 185.010183 -197.65569 
z
" style="stroke: #b45309; stroke-width: 1.15"/>
    </defs>
    <g clip-path="url(#pa51054991b)">
     <use xlink:href="#m5367570002" x="0" y="363.789474" style="fill: #f59e0b; stroke: #b45309; stroke-width: 1.15"/>
    </g>
   </g>
   <g id="PathCollection_2">
    <path d="M 288 186.029951 
C 289.096672 186.029951 290.148574 185.594239 290.924038 184.818775 
C 291.699502 184.043311 292.135215 182.991409 292.135215 181.894737 
C 292.135215 180.798065 291.699502 179.746163 290.924038 178.970699 
C 290.148574 178.195235 289.096672 177.759522 288 177.759522 
C 286.903328 177.759522 285.851426 178.195235 285.075962 178.970699 
C 284.300498 179.746163 283.864785 180.798065 283.864785 181.894737 
C 283.864785 182.991409 284.300498 184.043311 285.075962 184.818775 
C 285.851426 185.594239 286.903328 186.029951 288 186.029951 
L 288 186.029951 
z
" clip-path="url(#pa51054991b)" style="fill: none; stroke: #7c2d12; stroke-width: 1.1"/>
   </g>
  </g>
 </g>
 <defs>
  <clipPath id="pa51054991b">
   <rect x="0" y="0" width="576" height="363.789474"/>
  </clipPath>
 </defs>
</svg>
