<?xml version="1.0" encoding="utf-8" standalone="no"?>
<!DOCTYPE svg PUBLIC "-//W3C//DTD SVG 1.1//EN"
  "http://www.w3.org/Graphics/SVG/1.1/DTD/svg11.dtd">
<svg xmlns:xlink="http://www.w3.org/1999/xlink" width="552pt" height="432pt" viewBox="0 0 552 432" xmlns="http://www.w3.org/2000/svg" version="1.1">
 <metadata>
  <rdf:RDF xmlns:dc="http://purl.org/dc/elements/1.1/" xmlns:cc="http://creativecommons.org/ns#" xmlns:rdf="http://www.w3.org/1999/02/22-rdf-syntax-ns#">
   <cc:Work>
    <dc:type rdf:resource="http://purl.org/dc/dcmitype/StillImage"/>
    <dc:date>2026-06-09T04:56:56.426161</dc:date>
    <dc:format>image/svg+xml</dc:format>
    <dc:creator>
     <cc:Agent>
      <dc:title>Matplotlib v3.10.8, https://matplotlib.org/</dc:title>
     </cc:Agent>
    </dc:creator>
   </cc:Work>
  </rdf:RDF>
 </metadata>
 <defs>
  <style type="text/css">*{stroke-linejoin: round; stroke-linecap: butt}</style>
 </defs>
 <g id="figure_1">
  <g id="patch_1">
   <path d="M 0 432 
L 552 432 
L 552 0 
L 0 0 
z
" style="fill: #eaf3ff"/>
  </g>
  <g id="axes_1">
   <g id="PatchCollection_1">
    <path d="M 163.014771 399.821236 
L 172.221031 394.543419 
L 176.02607 386.930861 
L 174.631736 380.862394 
L 180.992898 370.618058 
L 185.375887 354.728795 
L 184.088213 347.684264 
L 189.326653 345.410914 
L 188.042391 340.89026 
L 182.476529 338.486066 
L 186.431326 333.451334 
L 181.014913 328.902775 
L 178.213223 315.058658 
L 183.038355 312.616637 
L 181.011192 297.988072 
L 187.037801 274.992267 
L 194.224029 270.635944 
L 190.576499 258.92193 
L 190.537432 247.897486 
L 199.622769 240.061066 
L 199.343406 230.036251 
L 206.19229 218.322858 
L 206.222676 207.286632 
L 203.107207 205.094518 
L 197.579173 184.380123 
L 204.9719 172.03607 
L 203.837395 160.415074 
L 208.126436 149.509694 
L 215.985181 138.254567 
L 224.453501 130.792076 
L 220.862403 126.082906 
L 223.367986 122.220196 
L 222.988164 102.222657 
L 236.058684 96.303639 
L 240.177193 83.836183 
L 238.719917 80.831095 
L 248.719927 69.987726 
L 264.421294 72.910338 
L 271.475747 81.577096 
L 276.157942 71.923732 
L 289.842378 72.419825 
L 313.841224 94.568551 
L 323.652408 96.393556 
L 338.314458 105.257511 
L 350.673394 109.948077 
L 352.39608 115.243878 
L 340.581917 133.484625 
L 352.682884 136.750782 
L 366.15958 138.581988 
L 375.649854 136.654044 
L 386.534461 127.461427 
L 388.496512 116.871066 
L 394.439405 114.571671 
L 400.459812 121.49838 
L 400.215176 131.081671 
L 382.052564 142.582985 
L 368.509205 154.233126 
L 352.498399 170.595538 
L 346.290716 192.534044 
L 346.408228 204.486803 
L 343.804666 207.158268 
L 342.054695 221.177877 
L 357.290044 231.45632 
L 355.651695 239.728683 
L 363.150152 244.957511 
L 362.540577 250.818859 
L 351.010118 266.206446 
L 333.217715 272.642643 
L 309.150657 275.141095 
L 295.968516 273.932486 
L 298.490843 281.089259 
L 296.033628 290.071036 
L 298.248067 296.12276 
L 291.050367 300.345138 
L 278.754063 302.001471 
L 267.214922 297.632125 
L 262.583577 300.771778 
L 264.257273 312.696012 
L 272.359104 316.308195 
L 278.928626 312.524239 
L 282.503291 318.757657 
L 271.454353 322.482701 
L 261.818352 329.944571 
L 260.054119 342.016393 
L 257.216773 348.441427 
L 245.880411 348.475533 
L 236.474473 354.622755 
L 233.033443 363.621276 
L 244.835203 372.407096 
L 256.307681 374.833614 
L 252.178941 385.599469 
L 238.005852 392.368048 
L 230.206949 406.436027 
L 219.255059 411.170621 
L 214.33753 416.790123 
L 218.213262 429.253248 
L 226.200061 436.199801 
L 210.019654 433.713131 
L 181.022354 432.108268 
L 176.047154 425.111476 
L 176.280318 416.124117 
L 168.291038 416.897403 
L 164.063389 412.545421 
z
" clip-path="url(#pfa50552ac4)" style="fill: #e8edf4; stroke: #b8c5d4; stroke-width: 0.45"/>
    <path d="M 220.391877 439.636446 
L 231 454.2 
L 246.6 461.4 
L 263.4 464.4 
L 258 470.4 
L 246.6 471 
L 240.48096 466.76172 
L 220.3998 466.434 
z
" clip-path="url(#pfa50552ac4)" style="fill: #e8edf4; stroke: #b8c5d4; stroke-width: 0.45"/>
    <path d="M 136.267256 367.77172 
L 147.694156 357.167716 
L 151.779488 337.236529 
L 165.115728 341.459528 
L 171.386353 316.60027 
L 163.333201 313.410387 
L 159.583973 328.389318 
L 152.016683 326.699498 
L 159.874808 287.306554 
L 165.38889 279.104264 
L 161.933287 267.394591 
L 160.943269 253.875416 
L 165.999395 253.485362 
L 181.659214 214.909112 
L 186.738594 197.026793 
L 183.975352 179.047736 
L 187.559009 169.148185 
L 186.121267 154.337306 
L 193.138514 139.684557 
L 195.300552 116.47109 
L 202.905049 64.71983 
L 202.026963 45.077618 
L 199.529131 28.175704 
L 205.698677 25.112325 
L 208.914915 18.960143 
L 214.797037 27.121505 
L 216.398179 35.780201 
L 222.693299 40.860821 
L 218.913995 52.471896 
L 225.361043 65.932159 
L 230.061841 82.475026 
L 238.719917 80.831095 
L 240.177193 83.836183 
L 236.058684 96.303639 
L 222.988164 102.222657 
L 223.367986 122.220196 
L 220.862403 126.082906 
L 224.453501 130.792076 
L 215.985181 138.254567 
L 208.126436 149.509694 
L 203.837395 160.415074 
L 204.9719 172.03607 
L 197.579173 184.380123 
L 203.107207 205.094518 
L 206.222676 207.286632 
L 206.19229 218.322858 
L 199.343406 230.036251 
L 199.622769 240.061066 
L 190.537432 247.897486 
L 190.576499 258.92193 
L 194.224029 270.635944 
L 187.037801 274.992267 
L 181.011192 297.988072 
L 183.038355 312.616637 
L 178.213223 315.058658 
L 181.014913 328.902775 
L 186.431326 333.451334 
L 182.476529 338.486066 
L 188.042391 340.89026 
L 189.326653 345.410914 
L 184.088213 347.684264 
L 185.375887 354.728795 
L 180.992898 370.618058 
L 174.631736 380.862394 
L 176.02607 386.930861 
L 172.221031 394.543419 
L 163.014771 399.821236 
L 164.063389 412.545421 
L 168.291038 416.897403 
L 176.280318 416.124117 
L 176.047154 425.111476 
L 181.022354 432.108268 
L 210.019654 433.713131 
L 221.141455 435.593326 
L 210.464588 435.503409 
L 193.85878 442.790406 
L 191.924014 453.999025 
L 186.842464 454.277457 
L 173.304685 450.37692 
L 159.566919 442.020831 
L 144.638838 435.153043 
L 140.879688 427.552257 
L 144.280411 420.520748 
L 138.24295 412.54046 
L 136.703819 392.085275 
L 141.806763 380.543033 
L 154.481028 371.271041 
z
" clip-path="url(#pfa50552ac4)" style="fill: #e8edf4; stroke: #b8c5d4; stroke-width: 0.45"/>
    <path d="M 148.04964 442.04988 
L 157.9428 444.56916 
L 174.78984 452.5848 
L 190.70724 456.89196 
L 196.89864 451.38996 
L 200.79024 443.17476 
L 211.8522 438.2196 
L 220.391877 439.636446 
L 220.3998 466.434 
L 240.48096 466.76172 
L 236.50764 471.61488 
L 226.21644 475.34196 
L 213.2148 473.98872 
L 204.50292 470.38116 
L 191.93184 468.64596 
L 164.5776 455.49024 
z
" clip-path="url(#pfa50552ac4)" style="fill: #e8edf4; stroke: #b8c5d4; stroke-width: 0.45"/>
    <path d="M 309.6 430.2 
L 324 423 
L 334.2 426 
L 341.4 421.2 
L 351 426.6 
L 347.4 430.8 
L 331.2 434.4 
L 325.8 430.2 
L 315.6 435.6 
z
" clip-path="url(#pfa50552ac4)" style="fill: #e8edf4; stroke: #b8c5d4; stroke-width: 0.45"/>
    <path d="M 342.87511 214.913453 
L 343.804666 207.158268 
L 346.408228 204.486803 
L 346.290716 192.534044 
L 352.498399 170.595538 
L 360.287691 169.316236 
L 372.321065 178.59691 
L 376.781878 178.246544 
L 398.54458 192.56691 
L 405.484932 200.731993 
L 400.193472 206.424049 
L 403.51606 213.220533 
L 398.322889 220.761778 
L 384.769607 227.431759 
L 375.910923 225.031905 
L 369.416436 226.318028 
L 358.32378 221.165475 
L 350.185672 221.550568 
z
" clip-path="url(#pfa50552ac4)" style="fill: #e8edf4; stroke: #b8c5d4; stroke-width: 0.45"/>
    <path d="M 156.153174 -101.714042 
L 159.319183 -103.908016 
L 159.30616 -108.976854 
L 166.559671 -112.440829 
L 165.363465 -118.929735 
L 168.425913 -123.104984 
L 169.296868 -128.705263 
L 183.019131 -136.872206 
L 192.85388 -139.180902 
L 194.462774 -140.984823 
L 205.276377 -140.421757 
L 210.95417 -178.528578 
L 209.075215 -185.400097 
L 203.752129 -189.778124 
L 203.813211 -198.496972 
L 210.571248 -200.473905 
L 212.970791 -199.23181 
L 213.376348 -203.828119 
L 206.344839 -205.068973 
L 206.196321 -212.577662 
L 229.57722 -212.309462 
L 233.54628 -216.445953 
L 236.88003 -212.639984 
L 239.219422 -205.561347 
L 241.48409 -207.040326 
L 248.090818 -200.693427 
L 257.420791 -201.471054 
L 259.74344 -205.143388 
L 273.60833 -209.914259 
L 275.002974 -214.99643 
L 283.574544 -218.410795 
L 282.925591 -220.932811 
L 272.76001 -221.964066 
L 271.094065 -229.521434 
L 271.578067 -237.566525 
L 266.207232 -240.677343 
L 268.456087 -241.781771 
L 277.339886 -240.246361 
L 286.881629 -237.246854 
L 290.345603 -240.08358 
L 298.974844 -241.945482 
L 312.397281 -246.437611 
L 316.78585 -251.017177 
L 315.19711 -254.403326 
L 321.435799 -254.933837 
L 324.228497 -252.168734 
L 322.667972 -246.899598 
L 326.791131 -245.082035 
L 329.543521 -239.505631 
L 326.215042 -235.277982 
L 324.305701 -225.062792 
L 327.377452 -218.995565 
L 328.247476 -213.442726 
L 335.629661 -207.812372 
L 341.519844 -207.217059 
L 342.846275 -209.567304 
L 352.068348 -212.191019 
L 355.970125 -215.382452 
L 372.051624 -213.812006 
L 373.132798 -216.263949 
L 371.119898 -218.64954 
L 372.320135 -222.124367 
L 377.16294 -221.058075 
L 382.828951 -222.284977 
L 394.94325 -217.266679 
L 398.657752 -220.520433 
L 401.341929 -220.018759 
L 402.978418 -216.64067 
L 408.724114 -217.498292 
L 413.322903 -222.056464 
L 417.00795 -230.893134 
L 424.106431 -241.874789 
L 428.194244 -242.441886 
L 431.162745 -235.804772 
L 437.893497 -214.818766 
L 444.311089 -212.837802 
L 444.63479 -204.554276 
L 435.608985 -194.675809 
L 439.34147 -191.058666 
L 460.553199 -189.17413 
L 460.98604 -177.146337 
L 470.100523 -185.020585 
L 485.200997 -180.70767 
L 505.131563 -173.379125 
L 510.98857 -166.346996 
L 509.020938 -159.704301 
L 522.974505 -163.40268 
L 546.328118 -157.05578 
L 564.256016 -157.523348 
L 581.995398 -147.592172 
L 597.320975 -134.148651 
L 606.564751 -130.687157 
L 616.826451 -130.205946 
L 621.175332 -126.420751 
L 627.240079 -103.881351 
L 622.461455 -84.043182 
L 616.356402 -76.208622 
L 599.441775 -59.511347 
L 591.796661 -45.945663 
L 582.913482 -35.542577 
L 579.913355 -35.308173 
L 576.560691 -26.479564 
L 577.412422 -3.995355 
L 572.791929 22.412955 
L 568.997742 27.14755 
L 566.87012 43.189361 
L 554.703111 58.854142 
L 552.662925 71.247804 
L 542.95003 76.448107 
L 540.140589 83.640846 
L 527.103555 83.61232 
L 508.226258 88.223512 
L 499.774371 93.562101 
L 486.334881 97.067623 
L 472.212332 106.622389 
L 462.054502 118.524298 
L 460.307942 127.484371 
L 462.303169 134.110944 
L 460.061756 146.233614 
L 457.338511 152.089381 
L 448.952046 158.693629 
L 435.63751 179.81358 
L 425.085286 189.332379 
L 416.927024 194.94444 
L 411.4548 206.358937 
L 403.51606 213.220533 
L 400.193472 206.424049 
L 405.484932 200.731993 
L 398.54458 192.56691 
L 376.781878 178.246544 
L 372.321065 178.59691 
L 360.287691 169.316236 
L 352.498399 170.595538 
L 368.509205 154.233126 
L 382.052564 142.582985 
L 400.215176 131.081671 
L 400.459812 121.49838 
L 394.439405 114.571671 
L 388.496512 116.871066 
L 392.478284 102.849596 
L 392.484485 96.252169 
L 388.165989 94.074938 
L 383.665179 96.015284 
L 379.191033 95.483224 
L 377.788328 90.863971 
L 376.671807 79.867433 
L 374.424502 76.283155 
L 366.320191 73.035602 
L 361.421885 75.385846 
L 348.754131 73.082111 
L 349.551912 56.792252 
L 346.003291 50.120411 
L 349.75438 47.639943 
L 348.600032 40.80005 
L 351.887893 35.542076 
L 354.019546 26.09025 
L 351.185301 18.62962 
L 344.630352 15.260524 
L 343.343299 10.525309 
L 345.105362 3.594879 
L 322.099324 3.099405 
L 317.484412 -10.873075 
L 320.986214 -11.073373 
L 320.828084 -16.248251 
L 318.489622 -19.751913 
L 317.960352 -26.688544 
L 310.990545 -30.247396 
L 303.441548 -30.129574 
L 298.47503 -33.614633 
L 290.363277 -35.992162 
L 285.642015 -40.475609 
L 272.203765 -42.456264 
L 259.172622 -53.204755 
L 260.137215 -61.249535 
L 258.661956 -65.862587 
L 259.938777 -74.856146 
L 244.2371 -72.824022 
L 237.914385 -68.318251 
L 227.421692 -63.455292 
L 224.744956 -59.825746 
L 209.643863 -60.579188 
L 202.874974 -58.512338 
L 197.415772 -59.890238 
L 198.217273 -78.118583 
L 188.371053 -71.046766 
L 177.781311 -71.356825 
L 173.243604 -77.757675 
L 165.279439 -78.453446 
L 167.815408 -83.606 
L 161.147288 -90.906639 
z
" clip-path="url(#pfa50552ac4)" style="fill: #e8edf4; stroke: #b8c5d4; stroke-width: 0.45"/>
    <path d="M 208.914915 18.960143 
L 216.484375 6.008375 
L 211.32283 -4.078451 
L 214.07584 -8.112313 
L 211.925584 -12.561654 
L 216.61336 -18.556327 
L 217.439046 -37.203251 
L 220.019043 -41.264398 
L 209.643863 -60.579188 
L 224.744956 -59.825746 
L 227.421692 -63.455292 
L 237.914385 -68.318251 
L 244.2371 -72.824022 
L 259.938777 -74.856146 
L 258.661956 -65.862587 
L 260.137215 -61.249535 
L 259.172622 -53.204755 
L 272.203765 -42.456264 
L 285.642015 -40.475609 
L 290.363277 -35.992162 
L 298.47503 -33.614633 
L 303.441548 -30.129574 
L 310.990545 -30.247396 
L 317.960352 -26.688544 
L 318.489622 -19.751913 
L 320.828084 -16.248251 
L 320.986214 -11.073373 
L 317.484412 -10.873075 
L 322.099324 3.099405 
L 345.105362 3.594879 
L 343.343299 10.525309 
L 344.630352 15.260524 
L 351.185301 18.62962 
L 354.019546 26.09025 
L 351.887893 35.542076 
L 348.600032 40.80005 
L 349.75438 47.639943 
L 346.003291 50.120411 
L 345.798343 46.420792 
L 334.61949 40.282872 
L 323.477225 40.11296 
L 302.564082 43.60484 
L 296.808465 54.164816 
L 296.505848 60.619615 
L 291.779314 74.988351 
L 289.842378 72.419825 
L 276.157942 71.923732 
L 271.475747 81.577096 
L 264.421294 72.910338 
L 248.719927 69.987726 
L 238.719917 80.831095 
L 230.061841 82.475026 
L 225.361043 65.932159 
L 218.913995 52.471896 
L 222.693299 40.860821 
L 216.398179 35.780201 
L 214.797037 27.121505 
z
" clip-path="url(#pfa50552ac4)" style="fill: #e8edf4; stroke: #b8c5d4; stroke-width: 0.45"/>
    <path d="M 67.068689 -135.158822 
L 70.803965 -143.56327 
L 80.369273 -151.141722 
L 81.791822 -146.146058 
L 78.368465 -143.288558 
L 78.693096 -138.891307 
L 83.653103 -139.846908 
L 88.500249 -138.549623 
L 93.536531 -132.490458 
L 100.321233 -137.426591 
L 102.591792 -145.522841 
L 109.945142 -155.963754 
L 124.375269 -160.695868 
L 137.460052 -173.260682 
L 141.195328 -181.062997 
L 139.521321 -190.175619 
L 142.720506 -191.313534 
L 150.700794 -185.63016 
L 154.531258 -179.96601 
L 160.085957 -176.874105 
L 167.155293 -164.292548 
L 176.090562 -162.789384 
L 182.702872 -165.962523 
L 187.03625 -163.886371 
L 194.238291 -164.917626 
L 203.427498 -159.298124 
L 195.687815 -147.085536 
L 199.271473 -146.800902 
L 205.276377 -140.421757 
L 194.462774 -140.984823 
L 192.85388 -139.180902 
L 183.019131 -136.872206 
L 169.296868 -128.705263 
L 168.425913 -123.104984 
L 165.363465 -118.929735 
L 166.559671 -112.440829 
L 159.30616 -108.976854 
L 159.319183 -103.908016 
L 156.153174 -101.714042 
L 161.147288 -90.906639 
L 167.815408 -83.606 
L 165.279439 -78.453446 
L 173.243604 -77.757675 
L 177.781311 -71.356825 
L 188.371053 -71.046766 
L 198.217273 -78.118583 
L 197.415772 -59.890238 
L 202.874974 -58.512338 
L 209.643863 -60.579188 
L 220.019043 -41.264398 
L 217.439046 -37.203251 
L 216.61336 -18.556327 
L 211.925584 -12.561654 
L 214.07584 -8.112313 
L 211.32283 -4.078451 
L 216.484375 6.008375 
L 205.698677 25.112325 
L 199.529131 28.175704 
L 187.496997 21.285582 
L 186.455511 16.361852 
L 162.665645 4.312355 
L 141.145408 -8.811805 
L 131.889539 -16.208563 
L 126.91837 -26.121757 
L 128.889102 -29.57953 
L 118.725691 -45.327406 
L 106.894165 -67.46745 
L 95.556563 -91.361185 
L 90.648955 -96.829999 
L 86.873062 -105.667909 
L 77.55022 -113.499989 
L 69.000044 -118.357987 
L 72.883838 -123.713319 
z
" clip-path="url(#pfa50552ac4)" style="fill: #e8edf4; stroke: #b8c5d4; stroke-width: 0.45"/>
    <path d="M 291.779314 74.988351 
L 296.505848 60.619615 
L 296.808465 54.164816 
L 302.564082 43.60484 
L 323.477225 40.11296 
L 334.61949 40.282872 
L 345.798343 46.420792 
L 346.003291 50.120411 
L 349.551912 56.792252 
L 348.754131 73.082111 
L 361.421885 75.385846 
L 366.320191 73.035602 
L 374.424502 76.283155 
L 376.671807 79.867433 
L 377.788328 90.863971 
L 379.191033 95.483224 
L 383.665179 96.015284 
L 388.165989 94.074938 
L 392.484485 96.252169 
L 392.478284 102.849596 
L 386.534461 127.461427 
L 375.649854 136.654044 
L 366.15958 138.581988 
L 352.682884 136.750782 
L 340.581917 133.484625 
L 352.39608 115.243878 
L 350.673394 109.948077 
L 338.314458 105.257511 
L 323.652408 96.393556 
L 313.841224 94.568551 
z
" clip-path="url(#pfa50552ac4)" style="fill: #e8edf4; stroke: #b8c5d4; stroke-width: 0.45"/>
   </g>
   <g id="PathCollection_1">
    <defs>
     <path id="m97757908a7" d="M 0 2.12132 
C 0.562581 2.12132 1.102195 1.897805 1.5 1.5 
C 1.897805 1.102195 2.12132 0.562581 2.12132 0 
C 2.12132 -0.562581 1.897805 -1.102195 1.5 -1.5 
C 1.102195 -1.897805 0.562581 -2.12132 0 -2.12132 
C -0.562581 -2.12132 -1.102195 -1.897805 -1.5 -1.5 
C -1.897805 -1.102195 -2.12132 -0.562581 -2.12132 0 
C -2.12132 0.562581 -1.897805 1.102195 -1.5 1.5 
C -1.102195 1.897805 -0.562581 2.12132 0 2.12132 
z
" style="stroke: #ffffff; stroke-width: 0.5"/>
    </defs>
    <g clip-path="url(#pfa50552ac4)">
     <use xlink:href="#m97757908a7" x="336" y="429" style="fill: #8aa0b7; stroke: #ffffff; stroke-width: 0.5"/>
    </g>
   </g>
   <g id="PatchCollection_2">
    <path d="M 163.014771 399.821236 
L 172.221031 394.543419 
L 176.02607 386.930861 
L 174.631736 380.862394 
L 180.992898 370.618058 
L 185.375887 354.728795 
L 184.088213 347.684264 
L 189.326653 345.410914 
L 188.042391 340.89026 
L 182.476529 338.486066 
L 186.431326 333.451334 
L 181.014913 328.902775 
L 178.213223 315.058658 
L 183.038355 312.616637 
L 181.011192 297.988072 
L 187.037801 274.992267 
L 194.224029 270.635944 
L 190.576499 258.92193 
L 190.537432 247.897486 
L 199.622769 240.061066 
L 199.343406 230.036251 
L 206.19229 218.322858 
L 206.222676 207.286632 
L 203.107207 205.094518 
L 197.579173 184.380123 
L 204.9719 172.03607 
L 203.837395 160.415074 
L 208.126436 149.509694 
L 215.985181 138.254567 
L 224.453501 130.792076 
L 220.862403 126.082906 
L 223.367986 122.220196 
L 222.988164 102.222657 
L 236.058684 96.303639 
L 240.177193 83.836183 
L 238.719917 80.831095 
L 248.719927 69.987726 
L 264.421294 72.910338 
L 271.475747 81.577096 
L 276.157942 71.923732 
L 289.842378 72.419825 
L 313.841224 94.568551 
L 323.652408 96.393556 
L 338.314458 105.257511 
L 350.673394 109.948077 
L 352.39608 115.243878 
L 340.581917 133.484625 
L 352.682884 136.750782 
L 366.15958 138.581988 
L 375.649854 136.654044 
L 386.534461 127.461427 
L 388.496512 116.871066 
L 394.439405 114.571671 
L 400.459812 121.49838 
L 400.215176 131.081671 
L 382.052564 142.582985 
L 368.509205 154.233126 
L 352.498399 170.595538 
L 346.290716 192.534044 
L 346.408228 204.486803 
L 343.804666 207.158268 
L 342.054695 221.177877 
L 357.290044 231.45632 
L 355.651695 239.728683 
L 363.150152 244.957511 
L 362.540577 250.818859 
L 351.010118 266.206446 
L 333.217715 272.642643 
L 309.150657 275.141095 
L 295.968516 273.932486 
L 298.490843 281.089259 
L 296.033628 290.071036 
L 298.248067 296.12276 
L 291.050367 300.345138 
L 278.754063 302.001471 
L 267.214922 297.632125 
L 262.583577 300.771778 
L 264.257273 312.696012 
L 272.359104 316.308195 
L 278.928626 312.524239 
L 282.503291 318.757657 
L 271.454353 322.482701 
L 261.818352 329.944571 
L 260.054119 342.016393 
L 257.216773 348.441427 
L 245.880411 348.475533 
L 236.474473 354.622755 
L 233.033443 363.621276 
L 244.835203 372.407096 
L 256.307681 374.833614 
L 252.178941 385.599469 
L 238.005852 392.368048 
L 230.206949 406.436027 
L 219.255059 411.170621 
L 214.33753 416.790123 
L 218.213262 429.253248 
L 226.200061 436.199801 
L 210.019654 433.713131 
L 181.022354 432.108268 
L 176.047154 425.111476 
L 176.280318 416.124117 
L 168.291038 416.897403 
L 164.063389 412.545421 
z
" clip-path="url(#pfa50552ac4)" style="fill: #f59e0b; stroke: #b45309; stroke-width: 1.15"/>
    <path d="M 220.391877 439.636446 
L 231 454.2 
L 246.6 461.4 
L 263.4 464.4 
L 258 470.4 
L 246.6 471 
L 240.48096 466.76172 
L 220.3998 466.434 
z
" clip-path="url(#pfa50552ac4)" style="fill: #f59e0b; stroke: #b45309; stroke-width: 1.15"/>
   </g>
   <g id="PathCollection_2">
    <path d="M 276 220.135215 
C 277.096672 220.135215 278.148574 219.699502 278.924038 218.924038 
C 279.699502 218.148574 280.135215 217.096672 280.135215 216 
C 280.135215 214.903328 279.699502 213.851426 278.924038 213.075962 
C 278.148574 212.300498 277.096672 211.864785 276 211.864785 
C 274.903328 211.864785 273.851426 212.300498 273.075962 213.075962 
C 272.300498 213.851426 271.864785 214.903328 271.864785 216 
C 271.864785 217.096672 272.300498 218.148574 273.075962 218.924038 
C 273.851426 219.699502 274.903328 220.135215 276 220.135215 
L 276 220.135215 
z
" clip-path="url(#pfa50552ac4)" style="fill: none; stroke: #7c2d12; stroke-width: 1.1"/>
   </g>
  </g>
 </g>
 <defs>
  <clipPath id="pfa50552ac4">
   <rect x="0" y="0" width="552" height="432"/>
  </clipPath>
 </defs>
</svg>
