<?xml version="1.0" encoding="utf-8" standalone="no"?>
<!DOCTYPE svg PUBLIC "-//W3C//DTD SVG 1.1//EN"
  "http://www.w3.org/Graphics/SVG/1.1/DTD/svg11.dtd">
<svg xmlns:xlink="http://www.w3.org/1999/xlink" width="569.454545pt" height="432pt" viewBox="0 0 569.454545 432" xmlns="http://www.w3.org/2000/svg" version="1.1">
 <metadata>
  <rdf:RDF xmlns:dc="http://purl.org/dc/elements/1.1/" xmlns:cc="http://creativecommons.org/ns#" xmlns:rdf="http://www.w3.org/1999/02/22-rdf-syntax-ns#">
   <cc:Work>
    <dc:type rdf:resource="http://purl.org/dc/dcmitype/StillImage"/>
    <dc:date>2026-06-09T04:57:04.390560</dc:date>
    <dc:format>image/svg+xml</dc:format>
    <dc:creator>
     <cc:Agent>
      <dc:title>Matplotlib v3.10.8, https://matplotlib.org/</dc:title>
     </cc:Agent>
    </dc:creator>
   </cc:Work>
  </rdf:RDF>
 </metadata>
 <defs>
  <style type="text/css">*{stroke-linejoin: round; stroke-linecap: butt}</style>
 </defs>
 <g id="figure_1">
  <g id="patch_1">
   <path d="M 0 432 
L 569.454545 432 
L 569.454545 0 
L 0 0 
z
" style="fill: #eaf3ff"/>
  </g>
  <g id="axes_1">
   <g id="PatchCollection_1">
    <path d="M 329.535125 119.417 
L 338.254059 107.969203 
L 333.842294 104.888305 
L 345.89425 88.292668 
L 361.427535 97.052582 
L 363.308701 86.020437 
L 394.489234 69.591841 
L 418.084216 69.200777 
L 469.26287 85.769975 
L 485.289768 79.398126 
L 509.236162 79.094669 
L 528.554754 86.921992 
L 532.943102 82.439585 
L 554.159696 83.090969 
L 557.944666 75.937461 
L 533.467644 65.548894 
L 547.964336 58.190878 
L 545.13556 54.075729 
L 559.636155 50.148305 
L 548.731633 39.801498 
L 555.657734 34.646853 
L 612.179248 29.390685 
L 619.555519 25.659441 
L 657.351446 20.083593 
L 670.931752 13.817201 
L 698.076754 17.072556 
L 702.832749 32.727999 
L 718.602546 29.051919 
L 738.00276 34.203271 
L 736.751511 42.447621 
L 751.239239 41.586042 
L 789.09634 27.331939 
L 783.569145 32.06764 
L 802.839004 43.737508 
L 836.593067 82.098868 
L 844.642275 74.190162 
L 865.449852 82.892705 
L 887.155861 79.010944 
L 895.49544 81.728879 
L 902.764861 90.45718 
L 913.325934 93.38899 
L 919.756246 99.800178 
L 939.212661 97.778899 
L 947.227524 107.018472 
L 935.729771 117.075299 
L 923.184496 118.486564 
L 922.463252 133.633468 
L 914.062009 140.461088 
L 884.096819 135.490437 
L 873.197761 162.533965 
L 865.466244 165.896648 
L 835.543985 171.931212 
L 849.139902 198.170755 
L 838.777094 202.102472 
L 839.98307 210.713297 
L 830.673246 208.497658 
L 823.098623 203.068814 
L 775.641705 201.076026 
L 770.152757 202.739414 
L 748.64189 196.38872 
L 740.068921 199.516453 
L 737.719414 208.434041 
L 712.870061 203.230391 
L 702.925636 205.361729 
L 699.542659 211.979767 
L 690.882267 214.771856 
L 670.959853 225.300925 
L 664.350791 236.109438 
L 658.722903 236.205448 
L 654.583555 229.05077 
L 635.373019 228.560574 
L 632.300707 216.186634 
L 624.94074 216.080867 
L 626.067878 200.93045 
L 607.984481 189.897525 
L 582.07902 191.075791 
L 564.368733 193.275038 
L 549.943854 179.660387 
L 511.347933 161.821697 
L 472.464764 170.747872 
L 473.057995 226.442895 
L 465.310086 227.17975 
L 454.738086 215.335816 
L 444.528268 211.104361 
L 427.382332 214.247315 
L 420.708483 219.272996 
L 419.860787 215.58989 
L 423.573164 209.295007 
L 420.692872 204.032424 
L 403.186313 198.886535 
L 396.371962 185.32145 
L 388.031603 181.500184 
L 387.525795 176.578708 
L 402.220751 178.013391 
L 402.800713 166.969537 
L 415.647286 164.516605 
L 428.841211 166.772444 
L 431.559927 152.036118 
L 428.869312 142.695852 
L 413.75363 143.426463 
L 400.913302 139.739845 
L 383.423915 146.38169 
L 369.332207 149.548582 
L 361.66028 147.105969 
L 363.193178 139.333169 
L 353.564056 129.240957 
L 342.356073 129.662685 
z
" clip-path="url(#p01c94e151b)" style="fill: #e8edf4; stroke: #b8c5d4; stroke-width: 0.45"/>
    <path d="M 472.464764 170.747872 
L 511.347933 161.821697 
L 549.943854 179.660387 
L 564.368733 193.275038 
L 582.07902 191.075791 
L 607.984481 189.897525 
L 626.067878 200.93045 
L 624.94074 216.080867 
L 632.300707 216.186634 
L 635.373019 228.560574 
L 654.583555 229.05077 
L 658.722903 236.205448 
L 664.350791 236.109438 
L 670.959853 225.300925 
L 690.882267 214.771856 
L 699.542659 211.979767 
L 704.027797 213.466748 
L 691.351388 223.250376 
L 702.496324 228.936026 
L 713.254881 225.17018 
L 731.158748 233.128452 
L 711.816295 244.006825 
L 700.326348 242.518674 
L 694.091178 242.908958 
L 691.927446 238.710287 
L 695.076254 231.705869 
L 674.87908 235.216079 
L 670.077812 244.90838 
L 662.899717 253.256936 
L 650.287314 252.54662 
L 646.37199 259.197832 
L 657.456042 262.80171 
L 660.718813 274.04773 
L 652.229365 289.334356 
L 640.836988 286.144959 
L 632.420914 286.044656 
L 632.836956 276.801961 
L 612.745159 270.336914 
L 596.948823 262.93987 
L 569.820995 245.395845 
L 562.39624 229.823141 
L 557.328018 227.081399 
L 540.996213 227.776884 
L 535.216894 224.683107 
L 533.601901 212.63037 
L 513.249395 204.647901 
L 500.52381 213.423817 
L 487.619474 218.627857 
L 490.099336 226.236435 
L 473.057995 226.442895 
z
" clip-path="url(#p01c94e151b)" style="fill: #e8edf4; stroke: #b8c5d4; stroke-width: 0.45"/>
    <path d="M 39.849505 -17.741127 
L 46.321968 -22.53498 
L 41.842825 -36.622876 
L 52.590702 -45.327148 
L 50.316218 -47.963631 
L 67.48414 -56.311804 
L 51.658741 -63.493729 
L 98.030635 -91.500814 
L 103.711602 -99.204231 
L 81.353038 -109.552989 
L 87.528104 -119.39594 
L 73.929845 -130.637277 
L 84.098769 -143.586831 
L 66.53085 -160.780827 
L 80.470217 -172.170081 
L 57.33733 -182.234713 
L 59.542433 -192.810616 
L 71.741455 -194.202428 
L 97.442887 -200.262361 
L 113.025701 -205.516448 
L 137.839267 -196.385085 
L 179.203871 -192.79012 
L 236.275905 -175.706182 
L 247.869365 -168.527278 
L 248.867497 -158.474215 
L 232.09925 -150.538103 
L 207.434769 -146.510383 
L 140.002892 -157.991312 
L 128.911821 -156.071782 
L 153.537785 -145.009259 
L 155.488431 -122.566708 
L 186.73774 -114.03939 
L 188.689897 -121.363452 
L 179.590844 -127.85478 
L 189.20452 -133.57591 
L 225.719245 -124.174171 
L 238.439832 -127.85478 
L 228.274238 -138.917001 
L 263.476045 -153.710887 
L 277.417108 -152.84009 
L 291.520699 -147.560929 
L 300.319452 -157.941919 
L 287.723933 -166.946098 
L 295.118685 -175.979731 
L 284.014624 -185.348996 
L 326.265734 -180.503497 
L 334.895765 -172.044302 
L 315.7704 -170.179603 
L 315.873869 -161.774182 
L 327.763385 -156.602568 
L 351.100599 -159.878517 
L 354.795256 -169.512873 
L 439.060481 -189.677908 
L 450.453801 -188.934294 
L 435.562036 -179.768039 
L 454.299055 -178.19275 
L 465.120201 -183.353186 
L 493.43191 -183.770383 
L 515.862378 -190.031966 
L 533.073197 -180.93308 
L 550.238702 -190.936297 
L 534.411189 -199.686713 
L 542.265734 -204.671329 
L 586.885594 -200.100436 
L 607.792506 -195.379326 
L 662.533326 -178.121908 
L 672.63125 -186.026299 
L 657.281052 -194.01271 
L 656.839687 -197.216912 
L 638.636173 -198.699004 
L 643.615955 -205.860537 
L 635.537253 -217.644772 
L 635.080179 -222.479547 
L 662.954752 -236.157483 
L 672.868095 -249.885717 
L 684.100699 -252.855944 
L 724.091513 -248.872632 
L 727.240733 -240.470836 
L 712.922501 -228.219558 
L 722.317745 -223.404269 
L 727.178048 -212.845192 
L 723.746517 -192.147105 
L 740.409785 -182.888559 
L 733.927217 -172.806042 
L 704.341259 -151.351049 
L 721.606305 -149.125645 
L 727.614428 -154.563407 
L 744.233136 -158.442193 
L 748.243787 -165.916548 
L 761.316923 -173.109197 
L 752.514697 -181.696632 
L 759.562338 -191.668733 
L 743.045438 -192.911564 
L 739.412862 -201.312453 
L 751.46551 -216.47958 
L 731.848783 -228.796414 
L 758.882316 -238.977415 
L 755.384627 -249.718204 
L 762.918193 -250.061085 
L 770.855815 -241.68678 
L 764.896481 -227.110557 
L 781.060683 -224.351043 
L 774.173152 -235.243787 
L 799.451497 -241.182428 
L 830.799743 -241.982081 
L 858.713287 -233.370629 
L 845.280655 -245.950741 
L 843.775905 -262.042741 
L 870.041958 -265.090909 
L 906.373158 -264.424934 
L 939.10607 -266.403222 
L 926.829717 -274.29991 
L 944.310008 -284.220201 
L 961.663871 -284.635586 
L 991.032168 -292.128671 
L 1030.917852 -294.142607 
L 1035.957298 -298.279385 
L 1075.61958 -299.681119 
L 1087.978557 -296.289768 
L 1121.878926 -304.31666 
L 1149.628582 -304.065768 
L 1153.792246 -310.585192 
L 1168.225276 -317.01459 
L 1203.884308 -323.213337 
L 1229.789807 -318.318898 
L 1209.222378 -314.595692 
L 1243.436929 -312.281471 
L 1247.513287 -304.816783 
L 1261.31614 -308.492559 
L 1305.474697 -308.290909 
L 1339.524906 -300.923345 
L 1351.649001 -295.265052 
L 1347.891206 -287.412772 
L 1291.487413 -274.5576 
L 1280.13986 -270.075524 
L 1321.21294 -264.150478 
L 1334.812632 -267.008173 
L 1342.516733 -257.312643 
L 1349.151256 -261.237348 
L 1373.304134 -263.623469 
L 1421.768341 -261.129197 
L 1425.448951 -254.064336 
L 1488.597382 -251.817029 
L 1489.460022 -263.354299 
L 1521.516084 -260.71049 
L 1545.630143 -260.793415 
L 1570.021829 -252.836459 
L 1576.974764 -243.169477 
L 1568.039161 -236.844755 
L 1587.010758 -224.957807 
L 1610.764565 -218.824464 
L 1625.33958 -234.674182 
L 1649.570249 -227.878792 
L 1675.313069 -231.939441 
L 1704.550406 -227.292873 
L 1715.675765 -231.528285 
L 1740.383446 -229.410579 
L 1729.47892 -243.433359 
L 1749.421309 -249.977102 
L 1885.846154 -240.167832 
L 1898.703138 -231.20202 
L 1938.243524 -219.658708 
L 1999.236789 -222.516403 
L 2029.309276 -220.028778 
L 2041.884403 -213.783206 
L 2040.046892 -202.7376 
L 2058.654159 -198.437236 
L 2078.872666 -201.530115 
L 2105.659838 -201.925712 
L 2134.176218 -198.961527 
L 2162.804526 -200.633639 
L 2189.116649 -187.207049 
L 2207.83539 -192.038048 
L 2195.620364 -201.692039 
L 2202.345818 -208.402691 
L 2250.537382 -204.179362 
L 2281.957376 -205.082937 
L 2325.398601 -197.874126 
L 2346.545455 -191.282899 
L 2346.545455 -131.106089 
L 2327.017846 -124.387754 
L 2307.44311 -125.494641 
L 2321.063497 -117.454607 
L 2330.054685 -105.008778 
L 2337.034506 -100.940274 
L 2338.786976 -94.691681 
L 2334.888252 -90.691301 
L 2306.733483 -93.981147 
L 2264.51515 -82.610937 
L 2251.084481 -80.850613 
L 2206.047273 -60.966076 
L 2200.493958 -54.10226 
L 2178.888067 -64.551524 
L 2139.532565 -52.694182 
L 2132.66014 -58.304895 
L 2118.110199 -51.833958 
L 2097.908157 -53.90499 
L 2093.041662 -43.970501 
L 2074.91911 -29.353041 
L 2075.457449 -23.248246 
L 2092.661018 -19.86339 
L 2090.637415 2.126165 
L 2076.614635 2.685801 
L 2070.147927 15.321197 
L 2076.432017 21.824459 
L 2050.017785 29.54019 
L 2044.775782 46.786355 
L 2022.257555 50.470288 
L 2017.729712 65.81671 
L 1995.957667 79.889035 
L 1990.372028 69.482517 
L 1975.473466 13.880945 
L 1982.735295 -7.067883 
L 1995.479748 -16.082182 
L 1996.268224 -23.141303 
L 2019.740929 -26.52042 
L 2046.722954 -45.537785 
L 2072.72452 -61.069091 
L 2099.877835 -73.121287 
L 2112.020056 -94.414808 
L 2093.665645 -93.140862 
L 2084.595004 -80.697902 
L 2046.282495 -64.108649 
L 2033.909169 -82.683592 
L 1994.913768 -77.554876 
L 1957.111955 -52.235446 
L 1969.583916 -42.972671 
L 1912.51732 -37.473583 
L 1913.611217 -48.39548 
L 1890.131564 -50.68795 
L 1871.418109 -43.26767 
L 1825.233533 -45.86405 
L 1775.547491 -41.38711 
L 1668.731262 23.720878 
L 1692.529326 25.624699 
L 1699.956554 35.083838 
L 1714.627636 38.441807 
L 1724.293712 30.896308 
L 1740.861969 31.876162 
L 1762.670417 48.493208 
L 1763.182775 61.344453 
L 1751.373617 76.435754 
L 1750.09967 94.473113 
L 1743.285097 118.623122 
L 1720.518848 140.480811 
L 1715.458557 150.928867 
L 1664.852324 194.880185 
L 1644.72475 203.742831 
L 1635.199603 203.938892 
L 1625.710708 196.596856 
L 1605.436917 207.65092 
L 1603.082517 212.676923 
L 1600.967832 210.033566 
L 1600.875185 202.360059 
L 1608.591091 201.952603 
L 1610.764189 184.105717 
L 1606.786087 171.169276 
L 1619.750078 165.834202 
L 1638.082372 168.50885 
L 1648.240776 153.81425 
L 1653.417315 137.266036 
L 1659.284962 131.738098 
L 1667.222607 118.147017 
L 1642.25851 122.599762 
L 1629.163989 128.558366 
L 1606.213158 128.540694 
L 1600.096179 114.348778 
L 1582.204801 103.610516 
L 1555.915972 98.781936 
L 1550.328002 83.986279 
L 1530.070725 52.97591 
L 1516.806548 47.413589 
L 1494.198428 42.916028 
L 1474.173535 43.324978 
L 1455.403238 46.048767 
L 1442.926654 53.563677 
L 1451.214715 57.153505 
L 1451.402182 65.493164 
L 1443.002048 70.335189 
L 1429.36701 86.355894 
L 1429.504022 93.002609 
L 1408.217958 102.547384 
L 1390.085384 96.844561 
L 1372.063651 98.103615 
L 1364.154945 93.042418 
L 1355.097245 91.410253 
L 1332.972851 102.055236 
L 1313.087124 104.556564 
L 1299.202397 108.300163 
L 1280.176855 105.840596 
L 1266.170359 105.997881 
L 1257.001818 98.276901 
L 1242.20851 91.017627 
L 1227.070192 89.027962 
L 1193.687679 93.80191 
L 1172.228828 87.448884 
L 1169.348627 76.130031 
L 1137.877913 70.479346 
L 1120.95678 64.23559 
L 1105.311874 79.889863 
L 1111.444789 88.780522 
L 1096.762808 99.298825 
L 1074.925057 95.501303 
L 1059.849305 94.95793 
L 1049.75345 87.902384 
L 1033.993662 87.679536 
L 1020.859979 83.044135 
L 997.884767 90.148856 
L 969.063108 103.158568 
L 947.227524 107.018472 
L 939.212661 97.778899 
L 919.756246 99.800178 
L 913.325934 93.38899 
L 902.764861 90.45718 
L 895.49544 81.728879 
L 887.155861 79.010944 
L 865.449852 82.892705 
L 844.642275 74.190162 
L 836.593067 82.098868 
L 802.839004 43.737508 
L 783.569145 32.06764 
L 789.09634 27.331939 
L 751.239239 41.586042 
L 736.751511 42.447621 
L 738.00276 34.203271 
L 718.602546 29.051919 
L 702.832749 32.727999 
L 698.076754 17.072556 
L 670.931752 13.817201 
L 657.351446 20.083593 
L 619.555519 25.659441 
L 612.179248 29.390685 
L 555.657734 34.646853 
L 548.731633 39.801498 
L 559.636155 50.148305 
L 545.13556 54.075729 
L 547.964336 58.190878 
L 533.467644 65.548894 
L 557.944666 75.937461 
L 554.159696 83.090969 
L 532.943102 82.439585 
L 528.554754 86.921992 
L 509.236162 79.094669 
L 485.289768 79.398126 
L 469.26287 85.769975 
L 418.084216 69.200777 
L 394.489234 69.591841 
L 363.308701 86.020437 
L 361.427535 97.052582 
L 345.89425 88.292668 
L 333.842294 104.888305 
L 338.254059 107.969203 
L 329.535125 119.417 
L 342.356073 129.662685 
L 353.564056 129.240957 
L 363.193178 139.333169 
L 361.66028 147.105969 
L 369.332207 149.548582 
L 362.448151 158.506389 
L 347.803955 160.995676 
L 332.7912 176.588308 
L 346.520492 190.923457 
L 345.033869 201.097813 
L 361.526148 218.886848 
L 352.507214 224.975039 
L 349.914951 228.81777 
L 343.233297 227.785861 
L 332.852535 218.611075 
L 319.112056 214.603703 
L 314.488133 208.405551 
L 300.400458 205.245425 
L 291.240655 207.617387 
L 288.593975 204.809841 
L 268.027301 197.567497 
L 233.022687 192.540525 
L 231.180549 194.324511 
L 211.921678 181.560839 
L 194.688806 175.863122 
L 181.643312 166.989298 
L 192.635295 164.575234 
L 205.169035 151.942103 
L 196.721924 145.965097 
L 218.985785 139.79958 
L 218.585958 136.497499 
L 205.026868 138.931958 
L 205.503795 132.222203 
L 213.289729 128.004621 
L 227.906851 126.897174 
L 230.283491 121.860101 
L 226.945762 113.53111 
L 233.080449 105.622038 
L 232.902982 101.186937 
L 210.637585 96.271624 
L 201.810932 96.434763 
L 192.488619 89.361264 
L 180.898759 91.753312 
L 161.714762 86.442333 
L 162.043955 83.470557 
L 156.670737 76.920586 
L 144.626587 76.189194 
L 143.375338 71.500328 
L 147.147819 68.442066 
L 137.495326 59.889783 
L 121.832467 61.349053 
L 117.245074 60.590342 
L 113.429303 64.025874 
L 107.788078 63.415183 
L 104.073004 53.742427 
L 100.526108 48.728454 
L 103.432884 47.317141 
L 115.620714 47.841339 
L 121.498384 44.537979 
L 117.147503 40.510644 
L 106.961883 37.852422 
L 107.870463 35.12434 
L 101.723497 32.368939 
L 92.253658 22.479544 
L 95.490669 18.404593 
L 94.011495 11.313922 
L 79.244726 7.711605 
L 71.318848 9.514715 
L 69.173069 5.76487 
L 53.270576 1.976778 
L 48.415449 -6.938078 
L 47.127513 -14.26292 
z
" clip-path="url(#p01c94e151b)" style="fill: #e8edf4; stroke: #b8c5d4; stroke-width: 0.45"/>
    <path d="M 404.898097 -237.37163 
L 420.343178 -240.612545 
L 419.828003 -248.849089 
L 449.787729 -261.730788 
L 435.901441 -263.577609 
L 472.065114 -276.834761 
L 467.978845 -283.691262 
L 501.764131 -291.666316 
L 551.63144 -301.371107 
L 601.905424 -304.198321 
L 627.774198 -309.798109 
L 657.169574 -311.760455 
L 667.669763 -305.795751 
L 657.524732 -301.095566 
L 557.876757 -286.402172 
L 510.954528 -272.024906 
L 464.767592 -242.754811 
L 467.841466 -230.207586 
L 496.734937 -217.819596 
L 487.812274 -216.494583 
L 438.455456 -218.456929 
L 434.447244 -225.163561 
L 407.10554 -229.213143 
z
" clip-path="url(#p01c94e151b)" style="fill: #e8edf4; stroke: #b8c5d4; stroke-width: 0.45"/>
    <path d="M -3091.216783 -131.106089 
L -3091.216783 -191.282899 
L -3054.20979 -179.748252 
L -3014.608531 -164.732324 
L -3015.907552 -155.344028 
L -3005.720509 -151.586081 
L -3009.224694 -162.561751 
L -2968.222305 -160.30946 
L -2938.650999 -146.173695 
L -2953.627351 -139.590227 
L -2978.386993 -138.027172 
L -2978.760839 -123.267877 
L -2984.807782 -120.124548 
L -2998.953667 -120.576336 
L -3010.464806 -125.842657 
L -3030.548425 -130.247698 
L -3033.926333 -136.80005 
L -3049.265354 -139.270758 
L -3066.443698 -137.311351 
L -3074.651547 -142.596856 
L -3071.370613 -148.210892 
L -3089.461141 -144.622724 
L -3082.647474 -137.516627 
z
" clip-path="url(#p01c94e151b)" style="fill: #e8edf4; stroke: #b8c5d4; stroke-width: 0.45"/>
    <path d="M 1766.428001 65.926298 
L 1767.764331 45.284982 
L 1781.727115 38.334032 
L 1775.727677 31.335468 
L 1782.449921 29.214667 
L 1791.604411 53.761941 
L 1791.218031 68.62667 
L 1797.45242 83.868413 
L 1812.650061 110.62235 
L 1790.291498 105.635307 
L 1780.998066 127.461524 
L 1795.722683 142.941731 
L 1795.296494 153.497339 
L 1783.85338 144.391244 
L 1773.949545 156.082578 
L 1771.153554 143.406949 
L 1772.838017 128.691698 
L 1771.116086 112.392677 
L 1774.610685 100.973761 
L 1775.27807 80.775807 
z
" clip-path="url(#p01c94e151b)" style="fill: #e8edf4; stroke: #b8c5d4; stroke-width: 0.45"/>
    <path d="M 117.881236 165.738973 
L 120.549214 162.843069 
L 135.01 157.822462 
L 132.711429 156.004605 
L 136.691172 152.263795 
L 152.287815 156.099035 
L 154.248049 159.082 
L 156.526877 159.542053 
L 156.649662 160.84872 
L 164.03929 164.492407 
L 179.446124 163.586169 
L 176.496361 168.975204 
L 159.960827 171.591665 
L 139.456111 180.330114 
L 131.056428 177.257802 
L 134.387108 170.160105 
z
" clip-path="url(#p01c94e151b)" style="fill: #e8edf4; stroke: #b8c5d4; stroke-width: 0.45"/>
    <path d="M 305.072933 -366.89503 
L 334.560416 -369.645749 
L 357.509869 -369.828402 
L 360.596231 -365.758525 
L 369.272234 -369.374892 
L 383.509778 -371.865682 
L 405.912834 -368.555297 
L 400.07107 -366.252624 
L 366.209289 -363.115134 
L 364.102538 -360.636443 
L 346.447672 -358.1398 
L 330.084644 -361.720651 
L 338.688835 -366.436057 
z
" clip-path="url(#p01c94e151b)" style="fill: #e8edf4; stroke: #b8c5d4; stroke-width: 0.45"/>
    <path d="M 1004.944834 -363.143731 
L 1044.166053 -373.46249 
L 1076.841491 -376.873175 
L 1106.189622 -369.268993 
L 1140.97325 -354.664976 
L 1137.243927 -341.08273 
L 1104.287765 -339.198545 
L 1062.215345 -343.556987 
L 1037.1456 -349.323357 
L 1025.552895 -360.157947 
z
" clip-path="url(#p01c94e151b)" style="fill: #e8edf4; stroke: #b8c5d4; stroke-width: 0.45"/>
    <path d="M 1696.648129 -286.414036 
L 1704.765046 -296.798652 
L 1724.693161 -299.632179 
L 1764.578241 -298.969527 
L 1819.177452 -290.95993 
L 1807.300699 -279.742657 
L 1751.621186 -280.160761 
L 1726.571681 -276.592985 
z
" clip-path="url(#p01c94e151b)" style="fill: #e8edf4; stroke: #b8c5d4; stroke-width: 0.45"/>
    <path d="M -75.363758 28.305306 
L -71.922238 21.657997 
L -51.077974 16.759158 
L -35.259002 19.40528 
L -28.582031 21.802792 
L -30.193902 25.939017 
L -28.984803 29.793848 
L -56.760503 30.020602 
z
" clip-path="url(#p01c94e151b)" style="fill: #e8edf4; stroke: #b8c5d4; stroke-width: 0.45"/>
    <path d="M 1740.282092 -257.837992 
L 1754.610445 -263.807899 
L 1773.497001 -265.205404 
L 1794.957432 -259.43035 
L 1796.785427 -255.460632 
L 1773.883083 -255.354898 
z
" clip-path="url(#p01c94e151b)" style="fill: #e8edf4; stroke: #b8c5d4; stroke-width: 0.45"/>
    <path d="M 1129.66701 -326.582937 
L 1157.260028 -346.415513 
L 1169.667944 -348.113606 
L 1181.018744 -347.129975 
L 1219.303838 -338.55115 
L 1214.818288 -332.411765 
z
" clip-path="url(#p01c94e151b)" style="fill: #e8edf4; stroke: #b8c5d4; stroke-width: 0.45"/>
    <path d="M -3091.216783 -219.507345 
L -3091.216783 -229.831769 
L -3076.47939 -230.43318 
L -3054.631897 -226.112425 
L -3055.925329 -224.047435 
L -3071.486467 -220.426036 
z
" clip-path="url(#p01c94e151b)" style="fill: #e8edf4; stroke: #b8c5d4; stroke-width: 0.45"/>
    <path d="M 1834.779373 -285.074383 
L 1838.393899 -289.965952 
L 1904.4504 -283.731256 
L 1886.992993 -277.762708 
L 1862.848422 -279.113614 
z
" clip-path="url(#p01c94e151b)" style="fill: #e8edf4; stroke: #b8c5d4; stroke-width: 0.45"/>
    <path d="M 2327.291245 -223.534322 
L 2346.545455 -229.831769 
L 2346.545455 -219.507345 
L 2329.981804 -218.736101 
z
" clip-path="url(#p01c94e151b)" style="fill: #e8edf4; stroke: #b8c5d4; stroke-width: 0.45"/>
    <path d="M 145.240113 378.840423 
L 149.634705 373.863918 
L 148.603576 373.007245 
L 152.598519 365.947406 
L 155.662244 354.551517 
L 157.822854 350.727519 
L 163.294629 350.599116 
L 164.6856 347.952213 
L 168.738304 347.753558 
L 168.969352 353.93604 
L 164.577882 361.097743 
L 159.113912 359.005433 
L 155.952615 369.064211 
L 159.747733 370.759602 
L 155.89017 372.837472 
L 155.239177 376.815242 
L 162.340776 374.766253 
L 162.693593 380.642362 
L 155.166584 404.791157 
z
" clip-path="url(#p01c94e151b)" style="fill: #e8edf4; stroke: #b8c5d4; stroke-width: 0.45"/>
    <path d="M 158.239677 350.571015 
L 163.619345 338.267327 
L 171.41643 327.097802 
L 178.210486 327.867831 
L 180.680981 333.791165 
L 172.444437 339.48384 
L 168.738304 347.753558 
L 164.6856 347.952213 
L 163.294629 350.599116 
z
" clip-path="url(#p01c94e151b)" style="fill: #e8edf4; stroke: #b8c5d4; stroke-width: 0.45"/>
    <path d="M 155.239177 376.815242 
L 155.89017 372.837472 
L 159.747733 370.759602 
L 155.952615 369.064211 
L 159.113912 359.005433 
L 164.577882 361.097743 
L 164.571637 370.334193 
L 162.340776 374.766253 
z
" clip-path="url(#p01c94e151b)" style="fill: #e8edf4; stroke: #b8c5d4; stroke-width: 0.45"/>
    <path d="M 155.166584 404.791157 
L 162.693593 380.642362 
L 162.340776 374.766253 
L 164.571637 370.334193 
L 164.577882 361.097743 
L 167.209954 356.336674 
L 184.03898 362.322063 
L 213.61857 346.224037 
L 219.707774 364.61693 
L 216.829043 366.894625 
L 186.578165 374.474321 
L 201.632963 389.577904 
L 196.637333 392.143238 
L 194.152008 397.201703 
L 182.626154 399.293623 
L 179.011348 404.731834 
L 172.481904 409.380501 
L 155.671611 406.977915 
z
" clip-path="url(#p01c94e151b)" style="fill: #e8edf4; stroke: #b8c5d4; stroke-width: 0.45"/>
    <path d="M 331.079867 410.867872 
L 342.165481 396.366496 
L 352.314414 397.62399 
L 355.466344 404.290423 
L 354.118305 407.737017 
L 358.98436 419.130564 
L 348.301519 419.522409 
L 344.539966 412.325581 
z
" clip-path="url(#p01c94e151b)" style="fill: #e8edf4; stroke: #b8c5d4; stroke-width: 0.45"/>
    <path d="M 213.61857 346.224037 
L 247.058064 330.504587 
L 252.76479 312.24361 
L 251.341036 301.209514 
L 259.608803 297.478013 
L 267.350467 288.052275 
L 273.838541 285.70511 
L 291.407545 287.654186 
L 296.712279 291.501601 
L 303.950927 288.950044 
L 313.738008 306.968538 
L 323.642624 311.502462 
L 324.782252 320.325602 
L 317.179528 325.538619 
L 313.678685 337.325572 
L 324.141406 351.682933 
L 342.649432 359.962408 
L 350.421539 371.441818 
L 347.94558 382.382637 
L 352.770265 382.378344 
L 352.919354 390.424429 
L 361.278446 398.364748 
L 342.165481 396.366496 
L 331.079867 410.867872 
L 302.996624 409.661505 
L 260.408103 379.283785 
L 237.902012 368.710614 
L 219.707774 364.61693 
z
" clip-path="url(#p01c94e151b)" style="fill: #e8edf4; stroke: #b8c5d4; stroke-width: 0.45"/>
    <path d="M 547.163474 399.838068 
L 572.473362 407.551632 
L 587.58436 405.289549 
L 596.613179 407.215598 
L 599.670661 403.904433 
L 610.190363 405.231397 
L 629.820845 398.951344 
L 630.349289 386.097746 
L 638.769266 377.548194 
L 650.014896 377.574734 
L 651.665796 373.348744 
L 663.209602 371.379373 
L 668.79456 372.785955 
L 674.701892 368.538109 
L 673.867465 359.467138 
L 680.281385 350.350505 
L 689.894849 346.528458 
L 683.957856 336.535248 
L 698.326535 337.007491 
L 702.479933 331.56889 
L 701.849234 325.765374 
L 709.37234 319.420144 
L 707.645725 311.907576 
L 704.074631 305.505755 
L 712.895039 298.926745 
L 729.113662 295.75374 
L 746.446935 293.999025 
L 762.918462 289.515058 
L 774.07901 296.557334 
L 778.549318 308.163976 
L 803.390865 314.272304 
L 788.803627 326.967447 
L 771.966795 329.212358 
L 749.05481 325.527301 
L 741.64957 332.040353 
L 752.247329 355.495223 
L 764.438226 362.953932 
L 751.558088 371.6916 
L 751.791478 382.458742 
L 737.128525 397.615013 
L 727.659466 412.94379 
L 711.858446 428.779935 
L 694.319104 427.631721 
L 677.671949 443.465134 
L 687.558612 450.248652 
L 689.279762 461.874028 
L 697.766088 469.534123 
L 700.765027 482.502855 
L 667.524577 482.463436 
L 657.465409 492.540948 
L 646.393845 488.721243 
L 641.889193 477.864335 
L 630.218934 466.361508 
L 602.389376 469.202772 
L 577.848347 469.484167 
L 556.575552 471.601455 
L 562.267447 454.053526 
L 584.055416 446.250978 
L 582.805728 439.294954 
L 575.578457 436.849828 
L 575.161635 423.546623 
L 560.721924 416.905168 
L 554.641306 407.78268 
z
" clip-path="url(#p01c94e151b)" style="fill: #e8edf4; stroke: #b8c5d4; stroke-width: 0.45"/>
    <path d="M 541.939919 341.72641 
L 552.247307 311.914991 
L 567.651799 317.645915 
L 579.041053 315.631271 
L 582.196105 308.786869 
L 594.119267 306.509174 
L 602.632132 301.915537 
L 605.647463 289.83548 
L 618.378512 286.914208 
L 620.745191 281.537662 
L 627.870988 285.576316 
L 640.836988 286.144959 
L 656.844858 291.175324 
L 667.779042 286.323319 
L 672.866778 289.241469 
L 677.738297 282.325644 
L 686.767898 282.639432 
L 689.093987 280.41989 
L 690.691028 274.329125 
L 697.193932 269.074347 
L 705.370372 272.508842 
L 703.728059 277.125506 
L 708.297499 277.842848 
L 706.889356 290.532917 
L 712.870061 295.479371 
L 718.132644 292.305585 
L 724.836935 290.806116 
L 734.249794 284.043673 
L 760.229408 285.180569 
L 762.918462 289.515058 
L 746.446935 293.999025 
L 729.113662 295.75374 
L 712.895039 298.926745 
L 704.074631 305.505755 
L 707.645725 311.907576 
L 709.37234 319.420144 
L 701.849234 325.765374 
L 702.479933 331.56889 
L 698.326535 337.007491 
L 683.957856 336.535248 
L 689.894849 346.528458 
L 680.281385 350.350505 
L 673.867465 359.467138 
L 674.701892 368.538109 
L 668.79456 372.785955 
L 663.209602 371.379373 
L 651.665796 373.348744 
L 650.014896 377.574734 
L 638.769266 377.548194 
L 630.349289 386.097746 
L 629.820845 398.951344 
L 610.190363 405.231397 
L 599.670661 403.904433 
L 596.613179 407.215598 
L 587.58436 405.289549 
L 572.473362 407.551632 
L 547.163474 399.838068 
L 560.863207 386.143799 
L 559.626008 376.421446 
L 548.186017 373.875236 
L 547.003457 364.285969 
L 542.055443 352.226988 
L 548.514635 343.956099 
z
" clip-path="url(#p01c94e151b)" style="fill: #e8edf4; stroke: #b8c5d4; stroke-width: 0.45"/>
    <path d="M 420.708483 219.272996 
L 427.382332 214.247315 
L 444.528268 211.104361 
L 454.738086 215.335816 
L 465.310086 227.17975 
L 490.099336 226.236435 
L 487.619474 218.627857 
L 500.52381 213.423817 
L 513.249395 204.647901 
L 533.601901 212.63037 
L 535.216894 224.683107 
L 540.996213 227.776884 
L 557.328018 227.081399 
L 562.39624 229.823141 
L 569.820995 245.395845 
L 596.948823 262.93987 
L 612.745159 270.336914 
L 632.836956 276.801961 
L 632.420914 286.044656 
L 627.870988 285.576316 
L 620.745191 281.537662 
L 618.378512 286.914208 
L 605.647463 289.83548 
L 602.632132 301.915537 
L 594.119267 306.509174 
L 582.196105 308.786869 
L 579.041053 315.631271 
L 567.651799 317.645915 
L 552.247307 311.914991 
L 550.921904 299.203847 
L 539.662224 298.663304 
L 522.399202 285.286335 
L 510.336318 283.635046 
L 493.634524 275.978073 
L 482.893921 274.585931 
L 476.263004 277.399485 
L 466.160905 276.961587 
L 455.417179 285.597001 
L 442.144416 288.519835 
L 439.333594 277.837384 
L 441.53011 262.038315 
L 429.749792 256.925601 
L 433.628429 246.583087 
L 423.601265 245.701827 
L 426.943653 232.969997 
L 441.18588 236.678081 
L 454.458643 231.84481 
L 443.454208 222.778913 
L 439.125183 214.139206 
L 426.966289 217.992085 
L 425.424669 229.060137 
z
" clip-path="url(#p01c94e151b)" style="fill: #e8edf4; stroke: #b8c5d4; stroke-width: 0.45"/>
    <path d="M 293.929557 254.847731 
L 304.272851 250.544855 
L 306.669973 256.242995 
L 314.298455 263.215801 
L 324.658922 265.22381 
L 330.128356 264.779667 
L 347.942458 253.635901 
L 353.607033 252.52008 
L 358.069535 256.952921 
L 352.861592 264.42607 
L 362.281475 272.335557 
L 366.040686 271.582309 
L 370.819318 282.720221 
L 385.141163 285.866687 
L 395.632765 293.445603 
L 417.106946 296.049575 
L 440.697245 292.052681 
L 442.144416 288.519835 
L 455.417179 285.597001 
L 466.160905 276.961587 
L 476.263004 277.399485 
L 482.893921 274.585931 
L 493.634524 275.978073 
L 510.336318 283.635046 
L 522.399202 285.286335 
L 539.662224 298.663304 
L 550.921904 299.203847 
L 552.247307 311.914991 
L 541.939919 341.72641 
L 548.514635 343.956099 
L 542.055443 352.226988 
L 547.003457 364.285969 
L 548.186017 373.875236 
L 559.626008 376.421446 
L 560.863207 386.143799 
L 547.163474 399.838068 
L 554.641306 407.78268 
L 560.721924 416.905168 
L 575.161635 423.546623 
L 575.578457 436.849828 
L 582.805728 439.294954 
L 584.055416 446.250978 
L 562.267447 454.053526 
L 556.575552 471.601455 
L 511.689822 463.56981 
L 494.643798 461.607074 
L 488.201777 443.085388 
L 480.972165 440.408823 
L 469.365132 443.107634 
L 454.130024 450.418035 
L 435.671954 445.407575 
L 420.423576 433.799762 
L 405.88005 429.497276 
L 395.792781 415.165284 
L 384.646283 395.026653 
L 376.517458 397.474511 
L 366.918044 392.469125 
L 361.278446 398.364748 
L 352.919354 390.424429 
L 352.770265 382.378344 
L 347.94558 382.382637 
L 350.421539 371.441818 
L 342.649432 359.962408 
L 324.141406 351.682933 
L 313.678685 337.325572 
L 317.179528 325.538619 
L 324.782252 320.325602 
L 323.642624 311.502462 
L 313.738008 306.968538 
L 303.95082 288.949846 
L 295.689736 276.848795 
L 298.644963 272.170857 
z
" clip-path="url(#p01c94e151b)" style="fill: #e8edf4; stroke: #b8c5d4; stroke-width: 0.45"/>
    <path d="M 167.209954 356.336674 
L 168.969352 353.93604 
L 168.738304 347.753558 
L 172.444437 339.48384 
L 180.680981 333.791165 
L 178.210486 327.867831 
L 171.41643 327.097802 
L 170.005945 315.541116 
L 173.702711 309.32507 
L 181.793289 302.706641 
L 182.610543 294.28081 
L 187.553874 297.218474 
L 204.183856 293.016682 
L 212.222136 295.860678 
L 224.648764 295.813453 
L 242.029651 290.145756 
L 250.168624 290.401392 
L 267.350467 288.052275 
L 259.608803 297.478013 
L 251.341036 301.209514 
L 252.76479 312.24361 
L 247.058064 330.504587 
L 213.61857 346.224037 
L 184.03898 362.322063 
z
" clip-path="url(#p01c94e151b)" style="fill: #e8edf4; stroke: #b8c5d4; stroke-width: 0.45"/>
    <path d="M 285.977139 229.713081 
L 306.96893 227.356939 
L 310.095882 231.326123 
L 315.848661 233.940242 
L 312.809914 237.728334 
L 320.85678 242.909738 
L 316.598786 247.720373 
L 323.011145 251.828498 
L 329.792712 254.303676 
L 330.128356 264.779667 
L 324.658922 265.22381 
L 318.492442 256.485361 
L 318.561913 254.154978 
L 311.888064 254.188933 
L 307.414634 250.137009 
L 304.272851 250.544855 
L 298.321808 246.134261 
L 287.090228 242.379733 
L 288.543644 235.029133 
z
" clip-path="url(#p01c94e151b)" style="fill: #e8edf4; stroke: #b8c5d4; stroke-width: 0.45"/>
    <path d="M -21.909743 57.595306 
L -12.851262 54.512066 
L -12.764619 48.490771 
L -16.954703 42.745017 
L -17.61038 36.062972 
L -3.010653 36.165617 
L 13.388281 30.475283 
L 16.893808 21.947978 
L 29.277505 17.111194 
L 27.858434 10.345238 
L 53.270576 1.976778 
L 69.173069 5.76487 
L 71.318848 9.514715 
L 79.244726 7.711605 
L 94.011495 11.313922 
L 95.490669 18.404593 
L 92.253658 22.479544 
L 101.723497 32.368939 
L 107.870463 35.12434 
L 106.961883 37.852422 
L 117.147503 40.510644 
L 121.498384 44.537979 
L 115.620714 47.841339 
L 103.432884 47.317141 
L 100.526108 48.728454 
L 104.073004 53.742427 
L 107.788417 63.41522 
L 94.821723 64.311305 
L 90.167982 67.627544 
L 89.196176 75.229877 
L 83.188151 73.770217 
L 69.557108 74.493803 
L 65.598072 70.962127 
L 59.930374 73.59537 
L 54.250968 71.412514 
L 42.355126 71.109264 
L 25.496438 67.48431 
L 10.237912 66.30058 
L -1.463569 66.635834 
L -9.741483 70.729518 
L -16.961728 71.318456 
L -17.249758 64.59387 
z
" clip-path="url(#p01c94e151b)" style="fill: #e8edf4; stroke: #b8c5d4; stroke-width: 0.45"/>
    <path d="M -38.734867 118.992371 
L -35.785884 112.903167 
L -31.597361 108.97067 
L -28.300246 109.851931 
L -32.196837 103.064119 
L -18.480712 90.500892 
L -10.984926 88.743055 
L -9.36525 84.505746 
L -16.961728 71.318456 
L -9.741483 70.729518 
L -1.463569 66.635834 
L 10.237912 66.30058 
L 25.496438 67.48431 
L 42.355126 71.109264 
L 54.250968 71.412514 
L 59.930374 73.59537 
L 65.598072 70.962127 
L 69.557108 74.493803 
L 83.188151 73.770217 
L 89.196176 75.229877 
L 90.167982 67.627544 
L 94.821723 64.311305 
L 113.429303 64.025874 
L 117.245074 60.590342 
L 121.832467 61.349053 
L 137.495326 59.889783 
L 147.147819 68.442066 
L 143.375338 71.500328 
L 144.626587 76.189194 
L 156.670737 76.920586 
L 162.043955 83.470557 
L 161.714762 86.442333 
L 180.898759 91.753312 
L 192.488619 89.361264 
L 201.810932 96.434763 
L 210.637585 96.271624 
L 232.902982 101.186937 
L 233.080449 105.622038 
L 226.945762 113.53111 
L 230.283491 121.860101 
L 227.906851 126.897174 
L 213.289729 128.004621 
L 205.503795 132.222203 
L 205.026868 138.931958 
L 192.967107 140.139885 
L 182.918086 145.026625 
L 168.777333 145.823194 
L 155.76684 151.453815 
L 156.526877 159.542053 
L 154.248049 159.082 
L 152.287815 156.099035 
L 136.691172 152.263795 
L 132.711429 156.004605 
L 130.635702 154.362988 
L 107.156244 150.545235 
L 106.116529 144.912663 
L 92.120961 146.772754 
L 86.514928 155.090867 
L 74.818911 166.254928 
L 67.967874 163.662665 
L 60.869397 166.09296 
L 54.1292 163.309848 
L 57.931342 161.669096 
L 64.705103 151.670812 
L 63.636507 148.966147 
L 66.795462 147.760952 
L 68.284003 149.851701 
L 77.18559 150.293892 
L 81.183655 149.176901 
L 78.367369 147.645428 
L 79.434404 145.394272 
L 74.160112 141.554273 
L 71.976866 135.239485 
L 66.474649 132.7686 
L 67.559637 127.650031 
L 60.735139 123.586009 
L 54.521825 123.020878 
L 43.389377 118.314839 
L 33.348943 119.808844 
L 29.746626 122.036583 
L 23.374076 122.034241 
L 19.575056 125.564746 
L 8.424655 127.016211 
L 3.267448 129.335275 
L -3.745167 125.644364 
L -13.428882 125.588163 
L -22.774612 123.915408 
L -29.295469 127.150078 
L -30.348454 123.101276 
z
" clip-path="url(#p01c94e151b)" style="fill: #e8edf4; stroke: #b8c5d4; stroke-width: 0.45"/>
    <path d="M 29.746626 122.036583 
L 33.348943 119.808844 
L 43.389377 118.314839 
L 54.521825 123.020878 
L 60.735139 123.586009 
L 67.559637 127.650031 
L 66.474649 132.7686 
L 71.976866 135.239485 
L 74.160112 141.554273 
L 79.434404 145.394272 
L 78.367369 147.645428 
L 81.183655 149.176901 
L 77.18559 150.293892 
L 68.284003 149.851701 
L 66.795462 147.760952 
L 63.636507 148.966147 
L 64.705103 151.670812 
L 57.931342 161.669096 
L 54.1292 163.309848 
L 51.423754 156.417441 
L 53.018453 149.968005 
L 52.535282 143.338259 
L 34.351191 123.508732 
z
" clip-path="url(#p01c94e151b)" style="fill: #e8edf4; stroke: #b8c5d4; stroke-width: 0.45"/>
    <path d="M -66.911778 153.655014 
L -54.801279 150.805944 
L -45.669425 140.562562 
L -38.520991 130.3184 
L -22.774612 123.915408 
L -13.428882 125.588163 
L -3.745167 125.644364 
L 3.267448 129.335275 
L 8.424655 127.016211 
L 19.575056 125.564746 
L 23.374076 122.034241 
L 29.746626 122.036583 
L 34.351191 123.508732 
L 52.535282 143.338259 
L 53.018453 149.968005 
L 51.423754 156.417441 
L 54.1292 163.309848 
L 60.869397 166.09296 
L 67.967874 163.662665 
L 74.818911 166.254928 
L 75.170166 170.150738 
L 67.845325 173.40102 
L 63.257151 171.986242 
L 59.031161 190.208971 
L 50.149869 188.622858 
L 39.157923 183.131959 
L 21.375824 186.643731 
L 13.885502 190.496219 
L -8.297434 189.701602 
L -19.903686 187.345851 
L -25.756378 188.451914 
L -32.868125 179.60887 
L -29.368062 177.059538 
L -33.094489 175.178761 
L -37.836434 178.56369 
L -46.643573 174.175342 
L -47.829254 167.948759 
L -57.031359 164.396007 
L -58.72519 159.589666 
z
" clip-path="url(#p01c94e151b)" style="fill: #e8edf4; stroke: #b8c5d4; stroke-width: 0.45"/>
    <path d="M -54.290008 4.062063 
L -36.989519 -0.570993 
L -11.656995 0.397691 
L 3.182366 -1.095534 
L 5.300825 2.046249 
L 13.338325 3.016494 
L 27.858434 10.345238 
L 29.277505 17.111194 
L 16.893808 21.947978 
L 13.388281 30.475283 
L -3.010653 36.165617 
L -17.61038 36.062972 
L -21.237675 31.409622 
L -28.984803 29.793848 
L -30.193902 25.939017 
L -28.582031 21.802792 
L -35.259002 19.40528 
L -51.077974 16.759158 
z
" clip-path="url(#p01c94e151b)" style="fill: #e8edf4; stroke: #b8c5d4; stroke-width: 0.45"/>
    <path d="M -54.290008 4.062063 
L -53.767028 -7.308848 
L -46.343835 -16.794689 
L -32.107852 -21.953067 
L -20.112878 -10.667628 
L -7.994574 -10.961511 
L -5.092425 -22.558006 
L 7.772881 -25.227546 
L 27.393216 -17.769227 
L 39.849505 -17.741127 
L 47.127513 -14.26292 
L 48.415449 -6.938078 
L 53.270576 1.976778 
L 27.858434 10.345238 
L 13.338325 3.016494 
L 5.300825 2.046249 
L 3.182366 -1.095534 
L -11.656995 0.397691 
L -36.989519 -0.570993 
z
" clip-path="url(#p01c94e151b)" style="fill: #e8edf4; stroke: #b8c5d4; stroke-width: 0.45"/>
    <path d="M -34.28017 211.162514 
L -31.795625 209.031175 
L -33.433255 207.23431 
L -30.892509 202.427968 
L -25.134266 197.705537 
L -32.473158 191.18546 
L -33.828222 185.668412 
L -30.101795 182.241723 
L -25.756378 188.451914 
L -19.903686 187.345851 
L -8.297434 189.701602 
L 13.885502 190.496219 
L 21.375824 186.643731 
L 39.157923 183.131959 
L 50.149869 188.622858 
L 59.031161 190.208971 
L 51.191926 196.466777 
L 45.675658 207.270997 
L 50.551861 215.888847 
L 37.546832 213.862886 
L 22.159513 218.614588 
L 21.994814 226.136913 
L 8.265419 227.563009 
L -2.376832 222.285204 
L -14.469378 226.43626 
L -25.642415 225.999533 
L -26.714914 216.010616 
z
" clip-path="url(#p01c94e151b)" style="fill: #e8edf4; stroke: #b8c5d4; stroke-width: 0.45"/>
    <path d="M -67.971788 251.874161 
L -60.948245 244.548149 
L -60.042007 239.639162 
L -55.13302 237.448891 
L -54.83016 233.480488 
L -44.949742 232.142986 
L -39.191499 228.841187 
L -31.005692 229.1339 
L -28.521516 226.500923 
L -14.469378 226.43626 
L -2.376832 222.285204 
L 8.265419 227.563009 
L 21.994814 226.136913 
L 22.159513 218.614588 
L 29.517919 222.614213 
L 24.841542 232.067662 
L 21.251714 233.761492 
L 4.166661 231.904523 
L -14.125928 235.830775 
L -3.655401 244.321784 
L -11.329156 246.783693 
L -19.742108 246.798914 
L -27.732774 239.019782 
L -30.567793 242.33446 
L -27.192621 251.355865 
L -19.635951 258.444585 
L -25.329408 261.754189 
L -16.917236 268.716067 
L -9.440184 273.096609 
L -9.21382 281.630549 
L -23.18597 277.627801 
L -18.730493 285.331608 
L -28.322102 286.91733 
L -22.59352 300.247465 
L -32.626149 300.436362 
L -45.012187 293.865939 
L -50.676763 281.781979 
L -53.319763 271.732178 
L -66.949245 256.175476 
z
" clip-path="url(#p01c94e151b)" style="fill: #e8edf4; stroke: #b8c5d4; stroke-width: 0.45"/>
    <path d="M -17.144381 317.505023 
L -14.349951 311.085249 
L -6.092332 316.175327 
L 5.66457 315.314751 
L 16.905516 316.38686 
L 16.540211 319.01542 
L 24.772072 317.202943 
L 22.88388 321.65881 
L 1.132597 322.942843 
L 1.284027 320.450492 
z
" clip-path="url(#p01c94e151b)" style="fill: #e8edf4; stroke: #b8c5d4; stroke-width: 0.45"/>
    <path d="M 22.971303 254.311872 
L 39.726176 239.865527 
L 62.987075 239.261368 
L 69.331524 227.781958 
L 98.1204 229.781381 
L 116.277171 219.983702 
L 133.878959 215.71361 
L 158.868814 215.392407 
L 185.233248 226.039342 
L 206.90179 231.881496 
L 224.498114 229.552674 
L 237.500801 230.898372 
L 255.334417 223.013864 
L 271.428149 222.296132 
L 285.977139 229.713081 
L 288.543644 235.029133 
L 287.090228 242.379733 
L 298.321808 246.134261 
L 304.272851 250.544855 
L 293.929557 254.847731 
L 298.644963 272.170857 
L 295.689736 276.848795 
L 303.950927 288.950044 
L 296.712279 291.501601 
L 291.407545 287.654186 
L 273.838541 285.70511 
L 267.350467 288.052275 
L 250.168624 290.401392 
L 242.029651 290.145756 
L 224.648764 295.813453 
L 212.222136 295.860678 
L 204.183856 293.016682 
L 187.553874 297.218474 
L 182.610543 294.28081 
L 181.793289 302.706641 
L 173.702711 309.32507 
L 168.148976 302.475594 
L 173.869752 296.802042 
L 164.6575 298.088416 
L 152.024021 294.612941 
L 141.637015 303.306897 
L 118.71176 305.004631 
L 106.483396 296.897661 
L 90.200766 296.390292 
L 86.718656 302.657075 
L 76.279352 304.448867 
L 61.67182 296.405904 
L 45.181559 296.677931 
L 36.233138 281.655528 
L 25.198261 273.27575 
L 32.54652 261.529776 
z
" clip-path="url(#p01c94e151b)" style="fill: #e8edf4; stroke: #b8c5d4; stroke-width: 0.45"/>
    <path d="M 21.046425 236.878687 
L 21.251714 233.761492 
L 24.841542 232.067662 
L 29.517919 222.614213 
L 22.159513 218.614588 
L 37.546832 213.862886 
L 50.551861 215.888847 
L 52.346385 221.696267 
L 65.531724 226.574421 
L 62.782566 230.274699 
L 44.846696 231.107564 
L 25.799298 243.913938 
z
" clip-path="url(#p01c94e151b)" style="fill: #e8edf4; stroke: #b8c5d4; stroke-width: 0.45"/>
    <path d="M 306.96893 227.356939 
L 310.668818 224.889957 
L 321.924596 229.233813 
L 330.066691 230.131465 
L 332.125046 228.360748 
L 324.686242 220.18704 
L 328.60625 218.104487 
L 332.852535 218.611075 
L 343.233297 227.785861 
L 349.914951 228.81777 
L 352.507214 224.975039 
L 361.525897 218.887017 
L 369.469718 226.840984 
L 377.152839 237.555829 
L 384.190432 238.262242 
L 388.842612 242.33446 
L 376.401934 243.549803 
L 373.774545 255.280556 
L 371.176037 260.57124 
L 365.637133 264.101745 
L 366.040686 271.582309 
L 362.281475 272.335557 
L 352.861592 264.42607 
L 358.069535 256.952921 
L 353.607033 252.52008 
L 347.942458 253.635901 
L 330.128356 264.779667 
L 329.792712 254.303676 
L 323.011145 251.828498 
L 316.598786 247.720373 
L 320.85678 242.909738 
L 312.809914 237.728334 
L 315.848661 233.940242 
L 310.095882 231.326123 
z
" clip-path="url(#p01c94e151b)" style="fill: #e8edf4; stroke: #b8c5d4; stroke-width: 0.45"/>
    <path d="M 304.272851 250.544855 
L 307.414634 250.137009 
L 311.888064 254.188933 
L 318.561913 254.154978 
L 318.492442 256.485361 
L 324.658922 265.22381 
L 314.298455 263.215801 
L 306.669973 256.242995 
z
" clip-path="url(#p01c94e151b)" style="fill: #e8edf4; stroke: #b8c5d4; stroke-width: 0.45"/>
    <path d="M 231.180549 194.324511 
L 233.022687 192.540525 
L 268.027301 197.567497 
L 288.593975 204.809841 
L 291.240655 207.617387 
L 300.400458 205.245425 
L 314.488133 208.405551 
L 319.112056 214.603703 
L 328.60625 218.104487 
L 324.686242 220.18704 
L 332.125046 228.360748 
L 330.066691 230.131465 
L 321.924596 229.233813 
L 310.668818 224.889957 
L 306.96893 227.356939 
L 285.977139 229.713081 
L 271.428149 222.296132 
L 255.334417 223.013864 
L 257.586353 216.559745 
L 253.814653 206.255479 
L 245.08401 200.689255 
L 236.71477 198.952103 
z
" clip-path="url(#p01c94e151b)" style="fill: #e8edf4; stroke: #b8c5d4; stroke-width: 0.45"/>
    <path d="M 150.782139 426.5842 
L 155.671611 406.977915 
L 172.481904 409.380501 
L 179.011348 404.731834 
L 182.626154 399.293623 
L 194.152008 397.201703 
L 196.637333 392.143238 
L 201.632963 389.577904 
L 186.578165 374.474321 
L 216.829043 366.894625 
L 219.707774 364.61693 
L 237.902012 368.710614 
L 260.408103 379.283785 
L 302.996624 409.661505 
L 344.539966 412.325581 
L 348.301519 419.522409 
L 358.98436 419.130564 
L 364.897936 432.156668 
L 372.328935 435.606775 
L 374.917295 440.911899 
L 385.211414 447.261031 
L 386.125458 453.49386 
L 384.620525 458.524615 
L 386.532134 463.598691 
L 390.875209 467.831706 
L 395.145691 476.487805 
L 399.712009 479.484792 
L 403.898971 478.411513 
L 413.129957 502.975569 
L 458.536325 510.591562 
L 461.580537 507.398652 
L 468.503386 518.097885 
L 458.43329 548.307783 
L 413.119029 563.412537 
L 369.566508 569.202783 
L 355.468686 575.999961 
L 344.643781 591.859914 
L 337.59448 594.377633 
L 333.818096 589.342585 
L 328.02785 590.098174 
L 313.426562 588.587386 
L 310.65711 587.076989 
L 293.225485 587.423951 
L 289.13063 588.789163 
L 282.926683 584.86174 
L 278.923935 592.286494 
L 280.473361 598.65397 
L 273.841663 603.47241 
L 271.881659 597.026487 
L 267.326269 592.477342 
L 266.161663 586.451755 
L 258.359895 581.039303 
L 250.309126 568.37304 
L 246.048791 556.064278 
L 235.600901 545.669856 
L 228.864607 543.189214 
L 218.860859 528.793606 
L 217.113169 518.296149 
L 217.757137 509.342264 
L 209.093623 492.594026 
L 202.010757 486.699574 
L 193.850709 483.575744 
L 188.88396 474.920817 
L 189.7098 471.506226 
L 185.512691 463.675577 
L 181.101706 460.303137 
L 175.203742 449.066483 
L 158.302122 426.511607 
z
" clip-path="url(#p01c94e151b)" style="fill: #e8edf4; stroke: #b8c5d4; stroke-width: 0.45"/>
    <path d="M 122.074443 319.619188 
L 125.324724 315.893151 
L 136.204268 316.09688 
L 149.938346 311.589885 
L 139.732431 318.022148 
L 140.83225 320.850533 
L 133.313048 321.729061 
L 131.923638 319.27652 
L 124.911023 320.407561 
z
" clip-path="url(#p01c94e151b)" style="fill: #e8edf4; stroke: #b8c5d4; stroke-width: 0.45"/>
    <path d="M 114.897909 320.174952 
L 124.911023 320.407561 
L 131.923638 319.27652 
L 133.313048 321.729061 
L 139.213354 320.320528 
L 141.304493 322.065095 
L 125.821165 328.201133 
L 118.426853 326.240739 
z
" clip-path="url(#p01c94e151b)" style="fill: #e8edf4; stroke: #b8c5d4; stroke-width: 0.45"/>
    <path d="M 0.756302 396.591256 
L 4.646568 387.265343 
L 2.309085 380.80513 
L 7.776302 373.556895 
L 27.873516 373.307211 
L 64.400173 384.116727 
L 76.029281 379.331345 
L 82.246607 375.003189 
L 95.567614 373.757639 
L 106.307648 375.664783 
L 110.422976 383.156811 
L 113.928218 378.221438 
L 126.034036 381.790271 
L 137.808 382.645359 
L 145.240213 378.840436 
L 155.166545 404.791099 
L 150.924185 410.861908 
L 147.673762 422.272599 
L 143.564627 430.137566 
L 140.04292 432.774881 
L 128.19162 421.159972 
L 117.413824 399.508162 
L 115.861494 400.877421 
L 122.120358 416.816106 
L 131.393857 432.001662 
L 142.809986 455.529348 
L 153.240218 472.273427 
L 166.794445 488.99515 
L 163.793253 491.628537 
L 164.280537 501.445662 
L 184.524873 518.097902 
L 5.286713 518.097902 
L 5.286713 408.758785 
z
" clip-path="url(#p01c94e151b)" style="fill: #e8edf4; stroke: #b8c5d4; stroke-width: 0.45"/>
    <path d="M -231.566941 456.253555 
L -225.572186 449.941499 
L -226.889783 440.444339 
L -224.970369 432.177353 
L -226.061601 425.2908 
L -223.401429 412.967987 
L -224.222585 405.949518 
L -229.108935 392.613139 
L -221.739601 389.112296 
L -220.432152 382.730379 
L -222.038559 376.473354 
L -211.666383 370.652665 
L -207.015764 365.813149 
L -199.652675 361.476708 
L -198.798735 349.874749 
L -181.057695 355.074092 
L -174.714394 353.774467 
L -162.095463 356.29487 
L -142.052022 363.044945 
L -134.978249 376.470478 
L -100.12899 385.725097 
L -84.037443 393.234948 
L -76.671843 389.316285 
L -69.431916 382.36894 
L -72.951659 370.798137 
L -68.214159 363.450965 
L -57.330327 356.372811 
L -46.931211 354.312503 
L -26.497611 357.403267 
L -21.346238 364.156515 
L -15.722232 364.220408 
L -10.913287 366.797152 
L 4.095541 368.569108 
L 7.776302 373.556895 
L 2.309085 380.80513 
L 4.646568 387.265343 
L 0.756302 396.591256 
L 5.286713 408.758785 
L 5.286713 548.261773 
L -12.083916 548.307692 
L -12.27031 554.644649 
L -132.759189 496.804229 
L -158.693978 510.677034 
L -167.18967 502.381167 
L -191.08439 495.868505 
L -197.712966 486.409203 
L -209.635348 479.391124 
L -216.697138 482.158625 
L -222.06822 473.735525 
L -222.635693 467.263063 
z
" clip-path="url(#p01c94e151b)" style="fill: #e8edf4; stroke: #b8c5d4; stroke-width: 0.45"/>
   </g>
   <g id="PathCollection_1">
    <defs>
     <path id="me9cd27e910" d="M 0 2.12132 
C 0.562581 2.12132 1.102195 1.897805 1.5 1.5 
C 1.897805 1.102195 2.12132 0.562581 2.12132 0 
C 2.12132 -0.562581 1.897805 -1.102195 1.5 -1.5 
C 1.102195 -1.897805 0.562581 -2.12132 0 -2.12132 
C -0.562581 -2.12132 -1.102195 -1.897805 -1.5 -1.5 
C -1.897805 -1.102195 -2.12132 -0.562581 -2.12132 0 
C -2.12132 0.562581 -1.897805 1.102195 -1.5 1.5 
C -1.102195 1.897805 -0.562581 2.12132 0 2.12132 
z
" style="stroke: #ffffff; stroke-width: 0.5"/>
    </defs>
    <g clip-path="url(#p01c94e151b)">
     <use xlink:href="#me9cd27e910" x="126.125874" y="321.734266" style="fill: #8aa0b7; stroke: #ffffff; stroke-width: 0.5"/>
     <use xlink:href="#me9cd27e910" x="152.559441" y="374.601399" style="fill: #8aa0b7; stroke: #ffffff; stroke-width: 0.5"/>
     <use xlink:href="#me9cd27e910" x="318.713287" y="404.811189" style="fill: #8aa0b7; stroke: #ffffff; stroke-width: 0.5"/>
     <use xlink:href="#me9cd27e910" x="168.923077" y="339.356643" style="fill: #8aa0b7; stroke: #ffffff; stroke-width: 0.5"/>
     <use xlink:href="#me9cd27e910" x="159.858126" y="367.770965" style="fill: #8aa0b7; stroke: #ffffff; stroke-width: 0.5"/>
    </g>
   </g>
   <g id="PatchCollection_2">
    <defs>
     <path id="m6dcec885d8" d="M 231.180549 -237.675489 
L 233.022687 -239.459475 
L 268.027301 -234.432503 
L 288.593975 -227.190159 
L 291.240655 -224.382613 
L 300.400458 -226.754575 
L 314.488133 -223.594449 
L 319.112056 -217.396297 
L 328.60625 -213.895513 
L 324.686242 -211.81296 
L 332.125046 -203.639252 
L 330.066691 -201.868535 
L 321.924596 -202.766187 
L 310.668818 -207.110043 
L 306.96893 -204.643061 
L 285.977139 -202.286919 
L 271.428149 -209.703868 
L 255.334417 -208.986136 
L 257.586353 -215.440255 
L 253.814653 -225.744521 
L 245.08401 -231.310745 
L 236.71477 -233.047897 
z
" style="stroke: #b45309; stroke-width: 1.15"/>
    </defs>
    <g clip-path="url(#p01c94e151b)">
     <use xlink:href="#m6dcec885d8" x="0" y="432" style="fill: #f59e0b; stroke: #b45309; stroke-width: 1.15"/>
    </g>
   </g>
   <g id="PathCollection_2">
    <defs>
     <path id="m03349a736b" d="M 0 3.316625 
C 0.879579 3.316625 1.723251 2.967164 2.345208 2.345208 
C 2.967164 1.723251 3.316625 0.879579 3.316625 0 
C 3.316625 -0.879579 2.967164 -1.723251 2.345208 -2.345208 
C 1.723251 -2.967164 0.879579 -3.316625 0 -3.316625 
C -0.879579 -3.316625 -1.723251 -2.967164 -2.345208 -2.345208 
C -2.967164 -1.723251 -3.316625 -0.879579 -3.316625 0 
C -3.316625 0.879579 -2.967164 1.723251 -2.345208 2.345208 
C -1.723251 2.967164 -0.879579 3.316625 0 3.316625 
z
" style="stroke: #ffffff"/>
    </defs>
    <g clip-path="url(#p01c94e151b)">
     <use xlink:href="#m03349a736b" x="284.727273" y="216" style="fill: #f97316; stroke: #ffffff"/>
    </g>
   </g>
   <g id="PathCollection_3">
    <path d="M 284.727273 220.449719 
C 285.907352 220.449719 287.039257 219.980869 287.873699 219.146427 
C 288.708141 218.311984 289.176992 217.180079 289.176992 216 
C 289.176992 214.819921 288.708141 213.688016 287.873699 212.853573 
C 287.039257 212.019131 285.907352 211.550281 284.727273 211.550281 
C 283.547193 211.550281 282.415288 212.019131 281.580846 212.853573 
C 280.746404 213.688016 280.277554 214.819921 280.277554 216 
C 280.277554 217.180079 280.746404 218.311984 281.580846 219.146427 
C 282.415288 219.980869 283.547193 220.449719 284.727273 220.449719 
L 284.727273 220.449719 
z
" clip-path="url(#p01c94e151b)" style="fill: none; stroke: #7c2d12; stroke-width: 1.1"/>
   </g>
  </g>
 </g>
 <defs>
  <clipPath id="p01c94e151b">
   <rect x="0" y="0" width="569.454545" height="432"/>
  </clipPath>
 </defs>
</svg>
