<?xml version="1.0" encoding="utf-8" standalone="no"?>
<!DOCTYPE svg PUBLIC "-//W3C//DTD SVG 1.1//EN"
  "http://www.w3.org/Graphics/SVG/1.1/DTD/svg11.dtd">
<svg xmlns:xlink="http://www.w3.org/1999/xlink" width="481.27321pt" height="432pt" viewBox="0 0 481.27321 432" xmlns="http://www.w3.org/2000/svg" version="1.1">
 <metadata>
  <rdf:RDF xmlns:dc="http://purl.org/dc/elements/1.1/" xmlns:cc="http://creativecommons.org/ns#" xmlns:rdf="http://www.w3.org/1999/02/22-rdf-syntax-ns#">
   <cc:Work>
    <dc:type rdf:resource="http://purl.org/dc/dcmitype/StillImage"/>
    <dc:date>2026-06-09T04:57:21.488326</dc:date>
    <dc:format>image/svg+xml</dc:format>
    <dc:creator>
     <cc:Agent>
      <dc:title>Matplotlib v3.10.8, https://matplotlib.org/</dc:title>
     </cc:Agent>
    </dc:creator>
   </cc:Work>
  </rdf:RDF>
 </metadata>
 <defs>
  <style type="text/css">*{stroke-linejoin: round; stroke-linecap: butt}</style>
 </defs>
 <g id="figure_1">
  <g id="patch_1">
   <path d="M 0 432 
L 481.27321 432 
L 481.27321 0 
L 0 0 
z
" style="fill: #eaf3ff"/>
  </g>
  <g id="axes_1">
   <g id="PatchCollection_1">
    <path d="M 210.155941 279.023683 
L 214.89436 278.478308 
L 226.338665 265.952836 
L 226.2329 262.228698 
L 223.765229 259.631083 
L 223.100728 255.118689 
L 226.408209 253.668226 
L 227.070829 246.926549 
L 222.521308 240.460815 
L 226.540571 239.084499 
L 262.451014 238.344828 
L 305.937244 262.946941 
L 306.718854 269.594585 
L 323.166022 281.04946 
L 317.875684 295.16887 
L 318.554394 301.662735 
L 325.890716 305.837666 
L 326.234483 308.816976 
L 323.079737 315.736997 
L 323.736789 319.219467 
L 322.986118 324.693377 
L 331.730164 343.1753 
L 335.935461 345.681358 
L 326.818886 352.324991 
L 314.289243 356.774732 
L 307.414867 356.586665 
L 303.331493 360.023987 
L 295.354515 360.319368 
L 292.362952 361.767778 
L 278.592995 358.53876 
L 269.971227 359.465482 
L 266.762865 343.881167 
L 260.571858 335.368934 
L 249.338201 333.231268 
L 242.835162 329.790851 
L 230.985373 325.943184 
L 226.19852 323.026063 
L 220.010573 308.58758 
L 213.364825 302.170996 
L 211.072596 295.524656 
L 212.218414 289.565806 
z
" clip-path="url(#pe4dcbbcb37)" style="fill: #e8edf4; stroke: #b8c5d4; stroke-width: 0.45"/>
    <path d="M 13.548263 293.805039 
L 16.462847 292.594676 
L 16.821693 287.599262 
L 18.696453 284.653294 
L 22.866404 282.245002 
L 25.876917 283.412138 
L 29.795794 279.025459 
L 36.037693 279.138561 
L 36.771965 282.382382 
L 41.052648 284.412287 
L 57.3665 267.967569 
L 56.982784 258.53988 
L 61.95925 247.40797 
L 67.209882 241.505376 
L 74.754521 235.982352 
L 76.071472 232.326983 
L 76.35689 228.124464 
L 78.224545 224.148147 
L 77.624693 217.653991 
L 79.052969 207.499432 
L 81.292497 200.350353 
L 84.724623 194.223036 
L 86.434173 179.311109 
L 90.895464 173.493192 
L 97.031367 169.803183 
L 106.460833 173.697486 
L 113.759135 177.924579 
L 130.690012 181.2892 
L 134.116217 174.369285 
L 135.690163 173.486086 
L 140.912372 174.636938 
L 153.669746 168.917912 
L 158.190252 171.341896 
L 161.900691 170.99815 
L 163.619123 168.211768 
L 167.877897 167.229976 
L 183.847115 168.699407 
L 187.630389 167.483714 
L 194.571623 176.94338 
L 199.716852 178.33287 
L 202.784211 176.408664 
L 208.082808 177.162773 
L 214.464456 174.738789 
L 217.185997 179.632945 
L 227.273938 187.247753 
L 226.580526 200.64643 
L 231.173275 202.19817 
L 227.489483 206.266863 
L 223.087407 209.31024 
L 218.706057 215.285966 
L 216.295397 220.613578 
L 215.650541 229.811512 
L 212.995913 234.189901 
L 212.899984 242.828841 
L 209.604645 246.022921 
L 209.18007 252.841578 
L 207.606124 253.725073 
L 206.545576 259.993618 
L 209.426999 265.203392 
L 210.155941 279.023683 
L 212.218414 289.565806 
L 211.072596 295.524656 
L 213.364825 302.170996 
L 220.010573 308.58758 
L 226.198586 323.02608 
L 221.684594 321.860128 
L 206.293318 323.794104 
L 203.221813 325.163757 
L 199.956082 332.478639 
L 202.520702 337.532085 
L 199.066666 362.600939 
L 210.173705 369.099241 
L 213.318637 367.015449 
L 214.276743 379.371934 
L 205.506937 379.277189 
L 196.578434 368.087841 
L 187.797377 366.486656 
L 185.226243 360.482211 
L 178.221057 364.099681 
L 169.045033 362.501457 
L 165.215571 357.298789 
L 157.939771 356.241793 
L 152.569523 356.518329 
L 151.912232 352.956521 
L 142.740945 351.992494 
L 127.826946 354.478358 
L 128.439825 340.842227 
L 124.617469 336.589967 
L 123.77661 329.542738 
L 125.464842 322.635258 
L 123.142413 318.214234 
L 122.932198 311.004162 
L 109.028414 311.104236 
L 110.026194 306.975736 
L 104.179854 307.018964 
L 103.562237 309.004457 
L 96.455201 309.452126 
L 91.863044 318.995285 
L 85.531137 317.376927 
L 81.750232 318.988771 
L 74.173025 319.915493 
L 67.151259 310.218373 
L 61.036081 294.808149 
L 27.221699 294.656557 
L 15.153594 297.35915 
z
" clip-path="url(#pe4dcbbcb37)" style="fill: #e8edf4; stroke: #b8c5d4; stroke-width: 0.45"/>
    <path d="M 343.549432 195.551389 
L 356.699192 178.940473 
L 364.045025 178.728942 
L 374.257184 170.650886 
L 389.185019 170.145893 
L 421.565768 135.753422 
L 434.728699 119.152373 
L 434.84415 96.705924 
L 449.861882 93.624025 
L 455.284685 89.701305 
L 459.629666 89.669908 
L 458.87464 105.526027 
L 456.455325 109.664747 
L 453.226326 122.051573 
L 440.625103 149.485063 
L 430.79166 166.278633 
L 407.532528 194.740444 
L 396.064819 204.016755 
L 378.924159 215.394627 
L 368.242415 224.110599 
L 355.70181 237.991436 
L 353.059162 244.033821 
L 350.471516 246.747056 
L 343.686366 237.293933 
z
" clip-path="url(#pe4dcbbcb37)" style="fill: #e8edf4; stroke: #b8c5d4; stroke-width: 0.45"/>
    <path d="M 262.334796 226.200545 
L 271.255894 213.972465 
L 275.425668 205.620083 
L 269.044673 186.715671 
L 263.611671 178.759939 
L 278.428092 164.36626 
L 284.380302 166.288693 
L 284.380302 172.720181 
L 288.295012 176.491318 
L 296.270564 176.491318 
L 310.775472 186.222882 
L 317.080437 186.022752 
L 319.617091 187.344306 
L 327.258727 188.245891 
L 330.645466 183.470629 
L 341.113617 178.678179 
L 345.735215 182.550481 
L 353.564878 182.552521 
L 343.549432 195.551389 
L 343.686366 237.293933 
L 350.471516 246.747056 
L 342.446171 251.322589 
L 339.616743 256.103694 
L 335.321838 256.943631 
L 333.696395 265.017447 
L 330.016603 269.640879 
L 327.780172 277.265277 
L 323.166022 281.04946 
L 306.718854 269.594585 
L 305.937244 262.946941 
L 262.451014 238.344828 
z
" clip-path="url(#pe4dcbbcb37)" style="fill: #e8edf4; stroke: #b8c5d4; stroke-width: 0.45"/>
    <path d="M 125.323658 83.212367 
L 126.478485 79.003747 
L 129.446222 74.226996 
L 128.148045 69.481184 
L 131.914924 65.966744 
L 129.525632 63.28949 
L 132.55582 56.213971 
L 137.788405 47.775304 
L 147.669403 48.576051 
L 147.246684 -1.718833 
L 160.424403 -1.753668 
L 160.424403 -24.636605 
L 296.398179 -24.636605 
L 300.093555 -13.393719 
L 297.580507 -11.314962 
L 299.245369 0.481732 
L 303.451811 14.162152 
L 314.089094 21.218334 
L 308.289867 27.758693 
L 299.850054 29.642534 
L 296.241193 33.155714 
L 295.110888 40.77232 
L 290.17589 57.609664 
L 291.393855 62.197572 
L 289.568569 72.038234 
L 284.9095 83.32581 
L 277.998188 89.002771 
L 273.08393 97.756214 
L 271.932541 102.440492 
L 266.504467 105.649897 
L 263.114585 117.641736 
L 263.267675 127.943503 
L 263.134899 119.008721 
L 261.548653 118.782114 
L 261.745372 113.077265 
L 260.368339 109.142885 
L 254.466771 104.618349 
L 253.089738 96.356153 
L 254.466771 87.897238 
L 249.155359 87.110362 
L 248.368483 89.667709 
L 241.483319 90.257865 
L 244.237385 93.602088 
L 245.22098 100.487251 
L 238.925973 106.782258 
L 233.221123 115.044454 
L 227.319554 116.224768 
L 217.680325 109.536323 
L 213.352508 111.896951 
L 212.172194 115.241173 
L 206.270626 117.405082 
L 205.877188 119.765709 
L 194.467488 119.765709 
L 192.893736 117.405082 
L 184.63154 117.011644 
L 180.500442 118.978833 
L 177.352939 117.995239 
L 169.48418 108.159291 
L 161.221984 109.733042 
L 158.074481 115.044454 
L 155.123696 125.27384 
L 147.670429 128.686386 
L 155.466934 133.16156 
L 146.740355 128.152526 
L 142.766408 124.852746 
L 142.03036 121.29153 
L 143.892093 116.522911 
L 143.85834 111.84726 
L 137.249306 104.683081 
L 136.08825 97.003938 
L 131.876766 93.626432 
L 131.749916 86.970194 
L 129.348019 82.549241 
z
" clip-path="url(#pe4dcbbcb37)" style="fill: #e8edf4; stroke: #b8c5d4; stroke-width: 0.45"/>
    <path d="M 29.110079 62.82754 
L 34.057757 47.733479 
L 48.674267 36.928485 
L 49.278264 22.024552 
L 53.693367 -1.228164 
L 56.185745 -6.160514 
L 51.417718 -10.08857 
L 51.233367 -13.732902 
L 46.945768 -16.713 
L 44.131607 -34.52505 
L 55.699926 -40.790425 
L 147.105282 3.088514 
L 147.669403 48.576051 
L 137.788405 47.775304 
L 132.55582 56.213971 
L 129.525632 63.28949 
L 131.914924 65.966744 
L 128.148045 69.481184 
L 129.446222 74.226996 
L 126.478485 79.003747 
L 125.323658 83.212367 
L 129.348019 82.549241 
L 131.749916 86.970194 
L 131.876766 93.626432 
L 136.08825 97.003938 
L 135.950119 99.779451 
L 128.696228 101.733264 
L 122.883049 106.372201 
L 114.59881 118.874652 
L 103.813903 124.183316 
L 92.748315 123.47125 
L 89.516928 124.524693 
L 90.651496 128.558448 
L 79.810334 137.037802 
L 65.38427 141.421817 
L 62.521796 138.826997 
L 60.623941 138.603162 
L 58.511727 141.550611 
L 49.03785 142.411899 
L 50.832669 139.307826 
L 45.606315 126.665331 
L 40.615638 124.720104 
L 33.852051 118.032313 
L 36.341468 112.625055 
L 41.563677 113.776203 
L 44.79684 112.960215 
L 51.196844 113.072428 
L 44.959683 102.656433 
L 45.378928 95.044881 
L 44.613568 87.442186 
L 40.057829 80.104531 
L 41.203648 74.707044 
L 33.855012 74.443239 
L 33.880475 67.072398 
z
" clip-path="url(#pe4dcbbcb37)" style="fill: #e8edf4; stroke: #b8c5d4; stroke-width: 0.45"/>
    <path d="M 163.452135 430.699873 
L 176.259842 431.954648 
L 179.982124 433.27456 
L 183.85126 433.008682 
L 190.197378 425.592541 
L 200.162744 416.168405 
L 204.264597 415.267146 
L 205.657936 411.294383 
L 212.182293 406.729465 
L 220.861499 405.160848 
L 221.602876 409.43561 
L 231.160839 409.207631 
L 236.47128 411.625989 
L 238.941155 414.461224 
L 244.397858 415.293793 
L 250.349601 418.975809 
L 250.375064 433.478853 
L 248.140865 441.420235 
L 247.649377 449.983379 
L 249.490977 453.377608 
L 248.196528 460.12343 
L 246.465661 461.166214 
L 243.443897 469.43032 
L 231.371054 482.436398 
L 225.280155 481.291171 
L 221.418716 482.666746 
L 215.874375 480.725664 
L 211.212344 480.600719 
L 203.906936 475.422922 
L 195.045938 473.664223 
L 191.675396 466.397305 
L 191.646972 462.35526 
L 186.739789 461.122986 
L 173.771609 448.536154 
L 170.168942 441.905209 
L 167.863093 439.861092 
z
" clip-path="url(#pe4dcbbcb37)" style="fill: #e8edf4; stroke: #b8c5d4; stroke-width: 0.45"/>
    <path d="M 101.932036 477.825884 
L 113.226788 477.426772 
L 113.564908 436.608981 
L 122.094892 436.230002 
L 139.762409 432.218156 
L 144.14139 436.941772 
L 151.456273 432.450873 
L 154.932219 432.42541 
L 161.39203 429.843617 
L 163.452135 430.699873 
L 167.863093 439.861092 
L 170.168942 441.905209 
L 173.771609 448.536154 
L 186.739789 461.122986 
L 191.646972 462.35526 
L 191.675396 466.397305 
L 195.045938 473.664223 
L 203.906936 475.422922 
L 211.212344 480.600719 
L 194.998566 489.039511 
L 184.710476 497.594364 
L 180.894634 505.230195 
L 177.44948 509.534565 
L 171.214687 510.451812 
L 168.040739 519.509405 
L 160.712829 522.177652 
L 151.386398 521.61096 
L 145.912524 518.401484 
L 141.082913 517.009921 
L 135.492976 519.665733 
L 132.688533 525.154412 
L 121.531753 533.715187 
L 113.323902 534.8841 
L 110.766979 530.861003 
L 111.82279 523.878911 
L 105.029004 512.99097 
L 101.935589 511.270169 
z
" clip-path="url(#pe4dcbbcb37)" style="fill: #e8edf4; stroke: #b8c5d4; stroke-width: 0.45"/>
    <path d="M 8.413101 425.719262 
L 20.78735 421.587802 
L 28.215926 421.930067 
L 35.047019 427.111417 
L 36.779663 426.306087 
L 83.229434 425.811639 
L 91.169039 431.302094 
L 118.910878 432.924004 
L 149.353533 425.64998 
L 156.784477 426.30964 
L 161.306168 428.892618 
L 161.39203 429.843617 
L 154.932219 432.42541 
L 151.456273 432.450873 
L 144.14139 436.941772 
L 139.762409 432.218156 
L 122.094892 436.230002 
L 113.564908 436.608981 
L 113.226788 477.426772 
L 101.932036 477.825884 
L 101.923746 553.59144 
L 91.695464 559.450807 
L 85.539428 560.287521 
L 73.193602 557.285891 
L 71.261994 552.386406 
L 66.736751 549.249172 
L 61.24748 554.916089 
L 52.731708 546.259385 
L 48.247324 537.89106 
L 39.053535 500.787853 
L 38.79654 487.078888 
L 37.329774 480.828699 
L 32.871444 476.105676 
L 26.957006 466.638312 
L 18.432352 445.697366 
L 9.108882 434.510978 
z
" clip-path="url(#pe4dcbbcb37)" style="fill: #e8edf4; stroke: #b8c5d4; stroke-width: 0.45"/>
    <path d="M -122.659967 61.944045 
L -121.751898 56.39023 
L -114.408 55.940192 
L -110.171136 51.867947 
L -94.535893 50.882898 
L -84.357352 49.065577 
L -83.381481 42.005024 
L -77.115896 34.351133 
L -77.147872 7.960887 
L -60.989165 2.850891 
L -27.811941 -19.65956 
L 11.453221 -41.500285 
L 29.58025 -36.559645 
L 36.025258 -30.266229 
L 44.131607 -34.52505 
L 46.945768 -16.713 
L 51.233367 -13.732902 
L 51.417718 -10.08857 
L 56.185745 -6.160514 
L 53.693367 -1.228164 
L 49.278264 22.024552 
L 48.674267 36.928485 
L 34.057757 47.733479 
L 29.110079 62.82754 
L 33.880475 67.072398 
L 33.855012 74.443239 
L 41.203648 74.707044 
L 40.057829 80.104531 
L 36.823482 80.761822 
L 36.45457 84.410085 
L 34.323406 84.663231 
L 26.569737 72.118145 
L 23.880172 71.662186 
L 14.920285 78.067224 
L 6.048036 74.723624 
L -0.119251 74.055082 
L -3.425841 75.663965 
L -10.14324 75.316371 
L -16.902682 80.199572 
L -22.746653 80.479661 
L -36.614908 74.556933 
L -42.045555 77.369962 
L -47.893079 77.174551 
L -52.190343 72.846791 
L -63.676361 68.570845 
L -75.991395 69.928062 
L -78.975261 72.406228 
L -80.587105 78.996314 
L -83.871785 83.616598 
L -84.66764 93.846361 
L -93.40547 87.25213 
L -97.513245 87.281738 
L -101.359879 90.638068 
L -101.100516 82.790247 
L -114.312663 80.191281 
L -114.668548 74.646052 
L -121.121254 67.16359 
z
" clip-path="url(#pe4dcbbcb37)" style="fill: #e8edf4; stroke: #b8c5d4; stroke-width: 0.45"/>
    <path d="M -95.203843 155.739813 
L -94.836115 129.979915 
L -92.675936 122.752079 
L -83.587551 112.145706 
L -84.794954 109.063543 
L -82.537069 104.450661 
L -85.114125 97.653321 
L -83.871785 83.616598 
L -80.587105 78.996314 
L -78.975261 72.406228 
L -75.991395 69.928062 
L -63.676361 68.570845 
L -52.190343 72.846791 
L -47.893079 77.174551 
L -42.045555 77.369962 
L -36.614908 74.556933 
L -22.746653 80.479661 
L -16.902682 80.199572 
L -10.14324 75.316371 
L -3.425841 75.663965 
L -0.119251 74.055082 
L 6.048036 74.723624 
L 14.920285 78.067224 
L 23.880172 71.662186 
L 26.569737 72.118145 
L 34.323406 84.663231 
L 36.45457 84.410085 
L 40.990472 88.974115 
L 39.136437 94.852431 
L 29.483137 103.71935 
L 24.838278 116.988048 
L 22.407484 119.541714 
L 20.095122 127.563037 
L 13.966916 132.283395 
L 12.191638 138.08177 
L 9.617543 142.697021 
L 8.545743 147.460015 
L 0.673644 151.321157 
L -5.759521 146.612346 
L -10.103565 146.802427 
L -16.928144 153.509168 
L -20.245985 153.612202 
L -28.643918 172.777278 
L -40.540299 176.901041 
L -44.88908 176.298524 
L -49.295301 178.866401 
L -58.461258 178.61592 
L -64.595977 171.448187 
L -68.368592 163.153881 
L -76.481107 155.60421 
z
" clip-path="url(#pe4dcbbcb37)" style="fill: #e8edf4; stroke: #b8c5d4; stroke-width: 0.45"/>
    <path d="M -28.775376 175.944119 
L -28.643918 172.777278 
L -25.696174 164.66802 
L -20.245985 153.612202 
L -16.928144 153.509168 
L -10.103565 146.802427 
L -5.759521 146.612346 
L 0.673644 151.321157 
L 8.545743 147.460015 
L 9.617543 142.697021 
L 12.191638 138.08177 
L 13.966916 132.283395 
L 20.095122 127.563037 
L 22.407484 119.541714 
L 24.838278 116.988048 
L 29.483137 103.71935 
L 39.136437 94.852431 
L 40.990472 88.974115 
L 36.45457 84.410085 
L 36.823482 80.761822 
L 40.057829 80.104531 
L 44.613568 87.442186 
L 45.378928 95.044881 
L 44.959683 102.656433 
L 51.196844 113.072428 
L 44.79684 112.960215 
L 41.563677 113.776203 
L 36.341468 112.625055 
L 33.852051 118.032313 
L 40.615638 124.720104 
L 45.606315 126.665331 
L 50.832669 139.307826 
L 43.275004 154.024638 
L 40.525039 156.104876 
L 39.640952 164.987783 
L 40.781442 169.813841 
L 39.858273 173.228499 
L 45.273524 179.212515 
L 46.250579 183.326507 
L 50.48093 189.240057 
L 55.721496 192.927106 
L 57.441704 201.474262 
L 56.617425 207.661682 
L 38.247613 201.929924 
L 22.360112 200.855756 
L 15.576984 202.331701 
L 8.613249 200.796837 
L 3.167798 201.549761 
L -15.479143 201.288325 
L -13.805714 192.241095 
L -18.284178 184.665368 
L -23.512308 182.721918 
L -25.840659 177.587347 
z
" clip-path="url(#pe4dcbbcb37)" style="fill: #e8edf4; stroke: #b8c5d4; stroke-width: 0.45"/>
    <path d="M 39.640952 164.987783 
L 40.525039 156.104876 
L 43.275004 154.024638 
L 49.03785 142.411899 
L 58.511727 141.550611 
L 60.623941 138.603162 
L 62.521796 138.826997 
L 65.38427 141.421817 
L 79.810334 137.037802 
L 90.651496 128.558448 
L 89.516928 124.524693 
L 92.748315 123.47125 
L 103.813903 124.183316 
L 114.59881 118.874652 
L 122.883049 106.372201 
L 128.696228 101.733264 
L 135.950119 99.779451 
L 137.249306 104.683081 
L 143.85834 111.84726 
L 143.892093 116.522911 
L 142.03036 121.29153 
L 142.766408 124.852746 
L 161.741401 137.791911 
L 161.846805 141.516266 
L 169.553102 147.483701 
L 174.328826 152.442105 
L 177.222092 159.316129 
L 185.787605 163.851143 
L 187.630389 167.483714 
L 183.847115 168.699407 
L 167.877897 167.229976 
L 163.619123 168.211768 
L 161.900691 170.99815 
L 158.190252 171.341896 
L 153.669746 168.917912 
L 140.912372 174.636938 
L 135.690163 173.486086 
L 134.116217 174.369285 
L 130.690012 181.2892 
L 113.759135 177.924579 
L 106.460833 173.697486 
L 97.031367 169.803183 
L 90.895464 173.493192 
L 86.434173 179.311109 
L 85.403824 187.302528 
L 78.033871 186.663001 
L 70.277834 184.737907 
L 63.448518 190.81045 
L 57.441704 201.474262 
L 55.721496 192.927106 
L 50.48093 189.240057 
L 46.250579 183.326507 
L 45.273524 179.212515 
L 39.858273 173.228499 
L 40.781442 169.813841 
z
" clip-path="url(#pe4dcbbcb37)" style="fill: #e8edf4; stroke: #b8c5d4; stroke-width: 0.45"/>
    <path d="M 1.074532 273.051806 
L 9.798742 266.727006 
L 5.477792 259.149799 
L 9.407328 256.268375 
L 17.139087 254.86497 
L 18.051005 249.786654 
L 24.173881 255.289544 
L 34.289653 255.771558 
L 37.805274 250.356899 
L 39.251907 242.738241 
L 38.002461 233.791381 
L 32.581288 227.014767 
L 37.542357 213.743403 
L 34.682252 211.465978 
L 26.156414 212.399805 
L 22.953451 206.478854 
L 23.786612 201.480479 
L 38.247613 201.929924 
L 56.617425 207.661682 
L 57.441704 201.474262 
L 63.448518 190.81045 
L 70.277834 184.737907 
L 78.033871 186.663001 
L 85.403824 187.302528 
L 84.724623 194.223036 
L 81.292497 200.350353 
L 79.052969 207.499432 
L 77.624693 217.653991 
L 78.224545 224.148147 
L 76.35689 228.124464 
L 76.071472 232.326983 
L 74.754521 235.982352 
L 67.209882 241.505376 
L 61.95925 247.40797 
L 56.982784 258.53988 
L 57.3665 267.967569 
L 41.052648 284.412287 
L 36.771965 282.382382 
L 36.037693 279.138561 
L 29.795794 279.025459 
L 25.876917 283.412138 
L 22.866404 282.245002 
L 18.572101 278.31369 
L 15.109774 280.241152 
L 10.484457 285.188601 
z
" clip-path="url(#pe4dcbbcb37)" style="fill: #e8edf4; stroke: #b8c5d4; stroke-width: 0.45"/>
    <path d="M -25.232517 240.193162 
L -24.864789 236.386201 
L -22.362937 232.722542 
L -17.269817 215.884041 
L 3.266687 215.339259 
L 3.167798 201.549761 
L 8.613249 200.796837 
L 15.576984 202.331701 
L 22.360112 200.855756 
L 23.786612 201.480479 
L 22.953451 206.478854 
L 26.156414 212.399805 
L 34.682252 211.465978 
L 37.542357 213.743403 
L 32.581288 227.014767 
L 38.002461 233.791381 
L 39.251907 242.738241 
L 37.805274 250.356899 
L 34.289653 255.771558 
L 24.173881 255.289544 
L 18.051005 249.786654 
L 17.139087 254.86497 
L 9.407328 256.268375 
L 5.477792 259.149799 
L 9.798742 266.727006 
L 1.074532 273.051806 
L -10.701049 261.485847 
L -18.274111 252.030327 
z
" clip-path="url(#pe4dcbbcb37)" style="fill: #e8edf4; stroke: #b8c5d4; stroke-width: 0.45"/>
    <path d="M -19.415785 214.156135 
L -15.479143 201.288325 
L 3.167798 201.549761 
L 3.266687 215.339259 
L -17.269817 215.884041 
z
" clip-path="url(#pe4dcbbcb37)" style="fill: #e8edf4; stroke: #b8c5d4; stroke-width: 0.45"/>
    <path d="M 124.762547 411.721326 
L 125.290157 375.260607 
L 149.150424 375.405092 
L 148.173961 371.449501 
L 149.881142 367.157566 
L 147.867225 361.783174 
L 149.170557 356.225805 
L 147.959601 352.668142 
L 151.912232 352.956521 
L 152.569523 356.518329 
L 157.939771 356.241793 
L 165.215571 357.298789 
L 169.045033 362.501457 
L 178.221057 364.099681 
L 185.226243 360.482211 
L 187.797377 366.486656 
L 196.578434 368.087841 
L 205.506937 379.277189 
L 214.276743 379.371934 
L 213.318637 367.015449 
L 210.173705 369.099241 
L 199.066666 362.600939 
L 202.520702 337.532085 
L 199.956082 332.478639 
L 203.221813 325.163757 
L 206.293318 323.794104 
L 221.684594 321.860128 
L 226.19852 323.026063 
L 230.985373 325.943184 
L 242.835162 329.790851 
L 249.338201 333.231268 
L 254.746939 338.343336 
L 257.660931 348.070063 
L 255.708598 351.175321 
L 253.405117 360.464446 
L 255.606747 369.959049 
L 252.001119 373.9478 
L 248.522213 384.592959 
L 254.547975 387.560837 
L 219.775488 397.005698 
L 220.861499 405.160848 
L 212.182293 406.729465 
L 205.657936 411.294383 
L 204.264597 415.267146 
L 200.162744 416.168405 
L 190.197378 425.592541 
L 183.85126 433.008682 
L 179.982124 433.27456 
L 176.259842 431.954648 
L 163.452135 430.699873 
L 156.784477 426.30964 
L 149.353533 425.64998 
L 139.970847 428.254275 
L 132.493122 421.096313 
z
" clip-path="url(#pe4dcbbcb37)" style="fill: #e8edf4; stroke: #b8c5d4; stroke-width: 0.45"/>
    <path d="M 248.522213 384.592959 
L 252.001119 373.9478 
L 255.606747 369.959049 
L 253.405117 360.464446 
L 255.708598 351.175321 
L 257.660931 348.070063 
L 254.746939 338.343336 
L 249.338201 333.231268 
L 260.571858 335.368934 
L 266.762865 343.881167 
L 269.971227 359.465482 
L 266.762935 368.174295 
L 269.971227 383.07053 
L 273.94932 382.903543 
L 278.083742 386.597994 
L 282.883745 394.885194 
L 283.858431 409.619178 
L 278.898546 412.032207 
L 275.40069 419.983063 
L 267.923558 412.90445 
L 267.075593 404.826873 
L 269.486253 399.49926 
L 268.821264 394.907695 
L 264.297204 392.007916 
L 261.144575 393.060766 
L 254.547975 387.560837 
z
" clip-path="url(#pe4dcbbcb37)" style="fill: #e8edf4; stroke: #b8c5d4; stroke-width: 0.45"/>
    <path d="M 219.775488 397.005698 
L 254.547975 387.560837 
L 261.144575 393.060766 
L 264.297204 392.007916 
L 268.821264 394.907695 
L 269.486253 399.49926 
L 267.075593 404.826873 
L 267.923558 412.90445 
L 275.40069 419.983063 
L 278.898546 412.032207 
L 283.858431 409.619178 
L 282.883745 394.885194 
L 278.083742 386.597994 
L 273.94932 382.903543 
L 269.971227 383.07053 
L 266.762935 368.174295 
L 269.971227 359.465482 
L 278.592995 358.53876 
L 292.362952 361.767778 
L 295.354515 360.319368 
L 303.331493 360.023987 
L 307.414867 356.586665 
L 314.289243 356.774732 
L 326.818886 352.324991 
L 335.935445 345.681313 
L 337.78948 350.818844 
L 337.318125 362.234987 
L 338.733966 372.289768 
L 339.178674 390.1977 
L 341.193775 395.810139 
L 333.330558 411.955819 
L 326.034624 419.061671 
L 302.642159 428.979072 
L 289.695296 441.278118 
L 285.286115 443.370199 
L 277.286702 451.512321 
L 272.565455 454.16162 
L 271.597283 462.332165 
L 277.031484 471.010187 
L 279.292329 477.730547 
L 279.434654 481.158621 
L 281.459408 480.585676 
L 281.13156 491.824413 
L 279.27338 497.14788 
L 281.974196 499.109687 
L 280.269976 503.877122 
L 275.480039 507.953513 
L 252.246863 518.028427 
L 247.22125 522.265291 
L 248.203634 527.092533 
L 251.132429 527.863518 
L 250.148861 533.89461 
L 241.457811 533.798681 
L 237.799482 519.480389 
L 239.84123 506.705251 
L 231.371054 482.436398 
L 243.443897 469.43032 
L 246.465661 461.166214 
L 248.196528 460.12343 
L 249.490977 453.377608 
L 247.649377 449.983379 
L 248.140865 441.420235 
L 250.375064 433.478853 
L 250.349601 418.975809 
L 244.397858 415.293793 
L 238.941155 414.461224 
L 236.47128 411.625989 
L 231.160839 409.207631 
L 221.602876 409.43561 
z
" clip-path="url(#pe4dcbbcb37)" style="fill: #e8edf4; stroke: #b8c5d4; stroke-width: 0.45"/>
    <path d="M 7.334788 418.514521 
L 8.921169 408.438422 
L 12.874984 397.947816 
L 13.471283 393.029974 
L 17.18942 382.700434 
L 19.921028 378.00465 
L 30.17951 365.408343 
L 31.382768 356.91981 
L 30.782915 350.425061 
L 27.356118 346.328537 
L 21.489645 332.501734 
L 22.104894 330.120089 
L 25.627028 325.577081 
L 19.804374 306.835988 
L 14.06403 299.586242 
L 15.153594 297.35915 
L 27.221699 294.656557 
L 61.036081 294.808149 
L 67.151259 310.218373 
L 74.173025 319.915493 
L 81.750232 318.988771 
L 85.531137 317.376927 
L 91.863044 318.995285 
L 96.455201 309.452126 
L 103.562237 309.004457 
L 104.179854 307.018964 
L 110.026194 306.975736 
L 109.028414 311.104236 
L 122.932198 311.004162 
L 123.142413 318.214234 
L 125.464842 322.635258 
L 123.77661 329.542738 
L 124.617469 336.589967 
L 128.439825 340.842227 
L 127.826946 354.478358 
L 142.740945 351.992494 
L 147.959601 352.668142 
L 149.170557 356.225805 
L 147.867225 361.783174 
L 149.881142 367.157566 
L 148.173961 371.449501 
L 149.150424 375.405092 
L 125.290157 375.260607 
L 124.762547 411.721326 
L 132.493122 421.096313 
L 139.970847 428.254275 
L 118.910878 432.924004 
L 91.169039 431.302094 
L 83.229434 425.811639 
L 36.779663 426.306087 
L 35.047019 427.111417 
L 28.215926 421.930067 
L 20.78735 421.587802 
L 8.413101 425.719262 
z
" clip-path="url(#pe4dcbbcb37)" style="fill: #e8edf4; stroke: #b8c5d4; stroke-width: 0.45"/>
    <path d="M 10.484457 285.188601 
L 15.109774 280.241152 
L 18.572101 278.31369 
L 22.866404 282.245002 
L 18.696453 284.653294 
L 16.821693 287.599262 
L 16.462847 292.594676 
L 13.548263 293.805039 
z
" clip-path="url(#pe4dcbbcb37)" style="fill: #e8edf4; stroke: #b8c5d4; stroke-width: 0.45"/>
    <path d="M 206.545576 259.993618 
L 213.503981 260.894285 
L 217.012496 254.369929 
L 223.10077 255.118972 
L 223.765229 259.631083 
L 226.2329 262.228698 
L 226.338665 265.952836 
L 214.89436 278.478308 
L 210.155941 279.023683 
L 209.426999 265.203392 
z
" clip-path="url(#pe4dcbbcb37)" style="fill: #e8edf4; stroke: #b8c5d4; stroke-width: 0.45"/>
    <path d="M 369.597051 480.212266 
L 371.649457 471.951121 
L 376.924961 469.966811 
L 376.955753 466.152745 
L 382.432588 457.465841 
L 383.464713 450.167539 
L 378.635694 437.516161 
L 377.720224 426.957457 
L 381.723779 420.546794 
L 383.259828 413.278692 
L 388.971156 412.856486 
L 399.605656 408.434277 
L 404.638968 408.280317 
L 411.169838 401.750631 
L 420.599896 394.693336 
L 424.038537 388.928713 
L 422.47821 384.031597 
L 427.345719 385.408948 
L 433.662229 377.446248 
L 433.873628 370.55594 
L 437.668153 365.430252 
L 444.707684 375.224485 
L 447.544103 382.79281 
L 449.388072 396.578163 
L 452.357134 401.937752 
L 451.217829 407.432944 
L 449.191477 410.804079 
L 445.299246 404.089049 
L 443.144989 407.480316 
L 445.33063 415.969441 
L 444.313309 420.828068 
L 441.151205 423.474997 
L 440.429369 433.180999 
L 423.185242 484.040544 
L 418.796194 499.973641 
L 413.617212 513.262176 
L 404.297887 515.97602 
L 394.294624 520.822803 
L 378.598389 513.797484 
L 375.436284 507.750996 
L 374.680103 497.591996 
L 370.645164 488.456831 
z
" clip-path="url(#pe4dcbbcb37)" style="fill: #e8edf4; stroke: #b8c5d4; stroke-width: 0.45"/>
    <path d="M 469.814436 9.740015 
L 504.190772 -1.718764 
L 511.830155 -24.636618 
L 506.578338 -32.753277 
L 506.877968 -37.367344 
L 510.216535 -42.109908 
L 510.248511 -46.793553 
L 515.434599 -49.050253 
L 513.405286 -50.64374 
L 514.346219 -58.106069 
L 520.197296 -58.150777 
L 525.334235 -50.323681 
L 531.731871 -46.163205 
L 546.92359 -42.577414 
L 555.184143 -32.202574 
L 559.285996 -30.751203 
L 559.264087 -28.194873 
L 553.262602 -18.149567 
L 548.43536 -14.484428 
L 544.159414 -6.634533 
L 538.960891 -7.23557 
L 536.578062 -4.50337 
L 534.737646 1.306256 
L 536.146381 8.965773 
L 535.065699 10.37362 
L 529.793157 10.336018 
L 522.635788 14.618478 
L 521.518985 20.200717 
L 518.898702 22.619075 
L 511.77094 22.526699 
L 507.284186 25.412267 
L 507.341033 30.041138 
L 501.7961 33.222783 
L 495.473668 32.142398 
L 487.810599 36.007685 
L 482.517331 36.65639 
z
" clip-path="url(#pe4dcbbcb37)" style="fill: #e8edf4; stroke: #b8c5d4; stroke-width: 0.45"/>
    <path d="M 516.461394 -71.107706 
L 519.798184 -75.009115 
L 521.215209 -74.014296 
L 520.13512 -69.280318 
L 518.641114 -67.201856 
z
" clip-path="url(#pe4dcbbcb37)" style="fill: #e8edf4; stroke: #b8c5d4; stroke-width: 0.45"/>
    <path d="M 290.17589 57.609664 
L 295.110888 40.77232 
L 296.241193 33.155714 
L 299.850054 29.642534 
L 308.289867 27.758693 
L 314.089094 21.218334 
L 320.741356 34.484072 
L 323.898131 45.002214 
L 330.179704 50.583564 
L 345.820869 61.407257 
L 361.981353 78.488542 
L 367.61511 81.935176 
L 364.159297 84.733697 
L 359.25395 83.738903 
L 355.337188 80.030922 
L 350.625409 73.312921 
L 345.544997 69.631868 
L 342.581729 65.675001 
L 332.608488 61.08056 
L 324.751818 60.943512 
L 321.98782 58.547573 
L 315.267756 61.24236 
L 308.313587 56.040484 
L 304.734977 64.592594 
L 291.393855 62.197572 
z
" clip-path="url(#pe4dcbbcb37)" style="fill: #e8edf4; stroke: #b8c5d4; stroke-width: 0.45"/>
    <path d="M 362.156631 53.131012 
L 364.450045 52.573795 
L 363.274619 47.337966 
L 364.663813 45.128046 
L 364.155744 40.130264 
L 369.186688 36.474895 
L 368.011261 31.644396 
L 371.047829 26.011824 
L 375.754271 28.991248 
L 378.860713 27.95557 
L 392.084704 27.692358 
L 394.185667 28.838176 
L 405.262507 29.984291 
L 409.655108 29.411086 
L 412.51995 33.230777 
L 417.867696 31.320783 
L 426.079693 19.289095 
L 436.774592 14.132615 
L 469.814436 9.740015 
L 482.517331 36.65639 
L 474.228354 39.734705 
L 472.011329 44.822199 
L 471.741306 48.729825 
L 460.332268 53.56743 
L 442.021672 58.912807 
L 431.762006 66.997787 
L 426.716851 67.629319 
L 423.278803 66.951599 
L 416.581537 71.70719 
L 409.277905 73.913261 
L 396.7645 75.15945 
L 394.259687 78.185063 
L 391.25628 79.021184 
L 389.482186 81.935768 
L 383.810531 81.682918 
L 380.149833 83.237916 
L 372.218518 82.655236 
L 369.238205 75.961523 
L 369.565666 69.697714 
L 367.69209 66.316809 
L 365.449601 57.8416 
z
" clip-path="url(#pe4dcbbcb37)" style="fill: #e8edf4; stroke: #b8c5d4; stroke-width: 0.45"/>
    <path d="M 270.800243 -94.060793 
L 274.509498 -108.934526 
L 287.262134 -107.111875 
L 292.215505 -110.63845 
L 294.957772 -114.763989 
L 303.701523 -116.350963 
L 305.586942 -120.188419 
L 309.37673 -122.134534 
L 297.955849 -133.592425 
L 320.904791 -139.342539 
L 323.088656 -141.070446 
L 336.891182 -137.964892 
L 353.964768 -129.943866 
L 386.273301 -106.898699 
L 417.78894 -104.877676 
L 420.642531 -99.418013 
L 428.746756 -99.715275 
L 433.232917 -89.833403 
L 438.870226 -87.216081 
L 440.83381 -83.191504 
L 448.643142 -78.37492 
L 449.336554 -73.646568 
L 448.194881 -69.830133 
L 449.645067 -65.980834 
L 452.939814 -62.769581 
L 456.17949 -56.202885 
L 459.643593 -53.929309 
L 462.819909 -54.743521 
L 469.822726 -36.10872 
L 504.268936 -30.33107 
L 506.578338 -32.753277 
L 511.830155 -24.636618 
L 504.190772 -1.718764 
L 469.814436 9.740015 
L 436.774592 14.132615 
L 426.079693 19.289095 
L 417.867696 31.320783 
L 412.51995 33.230777 
L 409.655108 29.411086 
L 405.262507 29.984291 
L 394.185667 28.838176 
L 392.084704 27.692358 
L 378.860713 27.95557 
L 375.754271 28.991248 
L 371.047829 26.011824 
L 368.011261 31.644396 
L 369.186688 36.474895 
L 364.155744 40.130264 
L 362.668845 35.240253 
L 359.213032 31.789178 
L 358.329538 27.218042 
L 352.410955 23.112044 
L 346.303475 13.503155 
L 343.071497 4.165474 
L 335.145511 -3.71995 
L 330.035219 -5.601816 
L 322.446169 -16.522623 
L 321.120335 -24.48621 
L 321.608863 -31.278813 
L 315.036541 -43.984373 
L 309.663333 -48.456026 
L 303.472951 -50.825828 
L 299.705073 -57.391635 
L 300.331573 -59.982014 
L 297.147559 -65.922507 
L 293.801295 -68.48091 
L 289.326976 -77.005267 
L 276.505058 -94.115863 
z
" clip-path="url(#pe4dcbbcb37)" style="fill: #e8edf4; stroke: #b8c5d4; stroke-width: 0.45"/>
    <path d="M -19.257679 -71.553006 
L -14.709934 -76.341462 
L -15.709491 -83.546204 
L -14.253383 -89.817711 
L -15.081215 -95.041993 
L -13.063153 -104.390333 
L -13.686099 -109.714689 
L -17.392985 -119.831942 
L -11.802456 -122.487754 
L -10.810598 -127.329208 
L -12.029251 -132.075917 
L -4.160704 -136.491612 
L -0.632649 -140.162969 
L 4.953143 -143.452683 
L 5.60096 -152.254169 
L 19.05968 -148.30984 
L 23.871839 -149.295762 
L 33.444821 -147.383733 
L 48.65019 -142.262986 
L 54.016501 -132.078099 
L 80.453869 -125.057354 
L 92.66125 -119.360225 
L 98.248946 -122.333004 
L 103.741305 -127.603404 
L 101.071155 -136.381254 
L 104.66512 -141.954971 
L 112.921821 -147.324605 
L 120.810805 -148.887597 
L 136.312157 -146.54288 
L 140.220095 -141.419726 
L 144.486582 -141.371255 
L 148.134748 -139.416484 
L 159.520755 -138.072242 
L 162.313057 -134.288403 
L 158.165513 -128.789742 
L 159.938776 -123.888891 
L 156.98754 -116.81406 
L 160.424403 -107.583521 
L 160.424403 -1.753668 
L 147.246684 -1.718833 
L 147.105282 3.088514 
L 55.699926 -40.790425 
L 36.025258 -30.266229 
L 29.58025 -36.559645 
L 11.453221 -41.500285 
L 6.424647 -48.676308 
L -2.619919 -54.000367 
L -7.977139 -51.900884 
L -12.051753 -58.290822 
L -12.482249 -63.200965 
z
" clip-path="url(#pe4dcbbcb37)" style="fill: #e8edf4; stroke: #b8c5d4; stroke-width: 0.45"/>
    <path d="M 251.570445 138.251803 
L 255.47357 131.724707 
L 261.554801 131.443047 
L 263.267675 127.943503 
L 263.114585 117.641736 
L 266.504467 105.649897 
L 271.932541 102.440492 
L 273.08393 97.756214 
L 277.998188 89.002771 
L 284.9095 83.32581 
L 289.568569 72.038234 
L 291.393855 62.197572 
L 304.734977 64.592594 
L 308.313587 56.040484 
L 315.267756 61.24236 
L 321.98782 58.547573 
L 324.751818 60.943512 
L 332.608488 61.08056 
L 342.581729 65.675001 
L 345.544997 69.631868 
L 350.625409 73.312921 
L 355.337188 80.030922 
L 359.25395 83.738903 
L 351.349611 94.178292 
L 352.424569 100.827769 
L 358.825159 101.019247 
L 361.584344 100.206697 
L 364.127321 102.249031 
L 361.628231 106.308898 
L 370.087525 118.135614 
L 374.462069 122.22529 
L 411.927928 135.82355 
L 421.565768 135.753422 
L 389.185019 170.145893 
L 374.257184 170.650886 
L 364.045025 178.728942 
L 356.699192 178.940473 
L 353.564878 182.552521 
L 345.735215 182.550481 
L 341.113617 178.678179 
L 330.645466 183.470629 
L 327.258727 188.245891 
L 319.617091 187.344306 
L 317.080437 186.022752 
L 310.775472 186.222882 
L 296.270564 176.491318 
L 288.295012 176.491318 
L 284.380302 172.720181 
L 284.380302 166.288693 
L 278.428092 164.36626 
L 271.656038 151.896471 
L 266.422765 149.239728 
L 264.414939 144.657549 
L 258.607461 139.072603 
z
" clip-path="url(#pe4dcbbcb37)" style="fill: #e8edf4; stroke: #b8c5d4; stroke-width: 0.45"/>
    <path d="M 351.349611 94.178292 
L 359.25395 83.738903 
L 364.159297 84.733697 
L 367.61511 81.935176 
L 370.326585 85.481588 
L 369.965963 90.239549 
L 363.428579 92.981519 
L 368.349381 96.11668 
L 364.127321 102.249031 
L 361.584344 100.206697 
L 358.825159 101.019247 
L 352.424569 100.827769 
z
" clip-path="url(#pe4dcbbcb37)" style="fill: #e8edf4; stroke: #b8c5d4; stroke-width: 0.45"/>
    <path d="M 361.628231 106.308898 
L 368.349381 96.11668 
L 372.077585 98.228895 
L 374.323626 102.96761 
L 379.493134 107.764652 
L 385.181961 107.802846 
L 395.98404 104.871386 
L 408.456587 103.51328 
L 418.543344 99.953248 
L 424.226249 99.198844 
L 428.31922 97.108539 
L 434.84415 96.705924 
L 434.728699 119.152373 
L 421.565768 135.753422 
L 411.927928 135.82355 
L 374.462069 122.22529 
L 370.087525 118.135614 
z
" clip-path="url(#pe4dcbbcb37)" style="fill: #e8edf4; stroke: #b8c5d4; stroke-width: 0.45"/>
    <path d="M 212.899984 242.828841 
L 212.995913 234.189901 
L 215.650541 229.811512 
L 216.295397 220.613578 
L 218.706057 215.285966 
L 223.087407 209.31024 
L 227.489483 206.266863 
L 231.173275 202.19817 
L 226.580526 200.64643 
L 227.273853 187.247689 
L 231.991563 184.122525 
L 239.278154 186.685076 
L 248.502213 184.003124 
L 256.564456 184.029708 
L 263.611671 178.759939 
L 269.044673 186.715671 
L 275.425668 205.620083 
L 271.255894 213.972465 
L 262.334796 226.200545 
L 262.451014 238.344828 
L 226.540571 239.084499 
L 215.673635 243.997753 
z
" clip-path="url(#pe4dcbbcb37)" style="fill: #e8edf4; stroke: #b8c5d4; stroke-width: 0.45"/>
    <path d="M 206.545576 259.993618 
L 207.606124 253.725073 
L 209.18007 252.841578 
L 209.604645 246.022921 
L 212.899984 242.828841 
L 215.673635 243.997753 
L 222.521308 240.460815 
L 227.070829 246.926549 
L 226.408209 253.668226 
L 223.10077 255.118972 
L 217.012496 254.369929 
L 213.503981 260.894285 
z
" clip-path="url(#pe4dcbbcb37)" style="fill: #e8edf4; stroke: #b8c5d4; stroke-width: 0.45"/>
    <path d="M 147.670429 128.686386 
L 155.123696 125.27384 
L 158.074481 115.044454 
L 161.221984 109.733042 
L 169.48418 108.159291 
L 177.352939 117.995239 
L 180.500442 118.978833 
L 184.63154 117.011644 
L 192.893736 117.405082 
L 194.467488 119.765709 
L 205.877188 119.765709 
L 206.270626 117.405082 
L 212.172194 115.241173 
L 213.352508 111.896951 
L 217.680325 109.536323 
L 227.319554 116.224768 
L 233.221123 115.044454 
L 238.925973 106.782258 
L 245.22098 100.487251 
L 244.237385 93.602088 
L 241.483319 90.257865 
L 248.368483 89.667709 
L 249.155359 87.110362 
L 254.466771 87.897238 
L 253.089738 96.356153 
L 254.466771 104.618349 
L 260.368339 109.142885 
L 261.745372 113.077265 
L 261.548653 118.782114 
L 263.134899 119.008721 
L 263.267675 127.943503 
L 261.554801 131.443047 
L 255.47357 131.724707 
L 251.570445 138.251803 
L 258.607461 139.072603 
L 264.414939 144.657549 
L 266.422765 149.239728 
L 271.656038 151.896471 
L 278.428092 164.36626 
L 263.611671 178.759939 
L 256.564456 184.029708 
L 248.502213 184.003124 
L 239.278154 186.685076 
L 231.991563 184.122525 
L 227.273853 187.247689 
L 217.185997 179.632945 
L 214.464456 174.738789 
L 208.082808 177.162773 
L 202.784211 176.408664 
L 199.716852 178.33287 
L 194.571623 176.94338 
L 185.787605 163.851143 
L 177.222092 159.316129 
L 174.328826 152.442105 
L 169.553102 147.483701 
L 161.846805 141.516266 
L 161.741401 137.791911 
z
" clip-path="url(#pe4dcbbcb37)" style="fill: #e8edf4; stroke: #b8c5d4; stroke-width: 0.45"/>
   </g>
   <g id="PathCollection_1">
    <defs>
     <path id="mb1c86f5467" d="M 0 2.12132 
C 0.562581 2.12132 1.102195 1.897805 1.5 1.5 
C 1.897805 1.102195 2.12132 0.562581 2.12132 0 
C 2.12132 -0.562581 1.897805 -1.102195 1.5 -1.5 
C 1.102195 -1.897805 0.562581 -2.12132 0 -2.12132 
C -0.562581 -2.12132 -1.102195 -1.897805 -1.5 -1.5 
C -1.897805 -1.102195 -2.12132 -0.562581 -2.12132 0 
C -2.12132 0.562581 -1.897805 1.102195 -1.5 1.5 
C -1.102195 1.897805 -0.562581 2.12132 0 2.12132 
z
" style="stroke: #ffffff; stroke-width: 0.5"/>
    </defs>
    <g clip-path="url(#pe4dcbbcb37)">
     <use xlink:href="#mb1c86f5467" x="217.718833" y="267.564987" style="fill: #8aa0b7; stroke: #ffffff; stroke-width: 0.5"/>
     <use xlink:href="#mb1c86f5467" x="366.68435" y="95.681698" style="fill: #8aa0b7; stroke: #ffffff; stroke-width: 0.5"/>
     <use xlink:href="#mb1c86f5467" x="381.007958" y="366.875331" style="fill: #8aa0b7; stroke: #ffffff; stroke-width: 0.5"/>
     <use xlink:href="#mb1c86f5467" x="217.718833" y="250.376658" style="fill: #8aa0b7; stroke: #ffffff; stroke-width: 0.5"/>
     <use xlink:href="#mb1c86f5467" x="391.511936" y="374.514589" style="fill: #8aa0b7; stroke: #ffffff; stroke-width: 0.5"/>
    </g>
   </g>
   <g id="PatchCollection_2">
    <defs>
     <path id="mf1e342025e" d="M 212.899984 -189.171159 
L 212.995913 -197.810099 
L 215.650541 -202.188488 
L 216.295397 -211.386422 
L 218.706057 -216.714034 
L 223.087407 -222.68976 
L 227.489483 -225.733137 
L 231.173275 -229.80183 
L 226.580526 -231.35357 
L 227.273853 -244.752311 
L 231.991563 -247.877475 
L 239.278154 -245.314924 
L 248.502213 -247.996876 
L 256.564456 -247.970292 
L 263.611671 -253.240061 
L 269.044673 -245.284329 
L 275.425668 -226.379917 
L 271.255894 -218.027535 
L 262.334796 -205.799455 
L 262.451014 -193.655172 
L 226.540571 -192.915501 
L 215.673635 -188.002247 
z
" style="stroke: #b45309; stroke-width: 1.15"/>
    </defs>
    <g clip-path="url(#pe4dcbbcb37)">
     <use xlink:href="#mf1e342025e" x="0" y="432" style="fill: #f59e0b; stroke: #b45309; stroke-width: 1.15"/>
    </g>
   </g>
   <g id="PathCollection_2">
    <defs>
     <path id="md7fbde2f72" d="M 0 3.316625 
C 0.879579 3.316625 1.723251 2.967164 2.345208 2.345208 
C 2.967164 1.723251 3.316625 0.879579 3.316625 0 
C 3.316625 -0.879579 2.967164 -1.723251 2.345208 -2.345208 
C 1.723251 -2.967164 0.879579 -3.316625 0 -3.316625 
C -0.879579 -3.316625 -1.723251 -2.967164 -2.345208 -2.345208 
C -2.967164 -1.723251 -3.316625 -0.879579 -3.316625 0 
C -3.316625 0.879579 -2.967164 1.723251 -2.345208 2.345208 
C -1.723251 2.967164 -0.879579 3.316625 0 3.316625 
z
" style="stroke: #ffffff"/>
    </defs>
    <g clip-path="url(#pe4dcbbcb37)">
     <use xlink:href="#md7fbde2f72" x="240.636605" y="216" style="fill: #f97316; stroke: #ffffff"/>
    </g>
   </g>
   <g id="PathCollection_3">
    <path d="M 240.636605 220.449719 
C 241.816684 220.449719 242.948589 219.980869 243.783031 219.146427 
C 244.617473 218.311984 245.086324 217.180079 245.086324 216 
C 245.086324 214.819921 244.617473 213.688016 243.783031 212.853573 
C 242.948589 212.019131 241.816684 211.550281 240.636605 211.550281 
C 239.456525 211.550281 238.32462 212.019131 237.490178 212.853573 
C 236.655736 213.688016 236.186886 214.819921 236.186886 216 
C 236.186886 217.180079 236.655736 218.311984 237.490178 219.146427 
C 238.32462 219.980869 239.456525 220.449719 240.636605 220.449719 
L 240.636605 220.449719 
z
" clip-path="url(#pe4dcbbcb37)" style="fill: none; stroke: #7c2d12; stroke-width: 1.1"/>
   </g>
  </g>
 </g>
 <defs>
  <clipPath id="pe4dcbbcb37">
   <rect x="0" y="0" width="481.27321" height="432"/>
  </clipPath>
 </defs>
</svg>
