<?xml version="1.0" encoding="utf-8" standalone="no"?>
<!DOCTYPE svg PUBLIC "-//W3C//DTD SVG 1.1//EN"
  "http://www.w3.org/Graphics/SVG/1.1/DTD/svg11.dtd">
<svg xmlns:xlink="http://www.w3.org/1999/xlink" width="576pt" height="384pt" viewBox="0 0 576 384" xmlns="http://www.w3.org/2000/svg" version="1.1">
 <metadata>
  <rdf:RDF xmlns:dc="http://purl.org/dc/elements/1.1/" xmlns:cc="http://creativecommons.org/ns#" xmlns:rdf="http://www.w3.org/1999/02/22-rdf-syntax-ns#">
   <cc:Work>
    <dc:type rdf:resource="http://purl.org/dc/dcmitype/StillImage"/>
    <dc:date>2026-06-09T04:56:56.810724</dc:date>
    <dc:format>image/svg+xml</dc:format>
    <dc:creator>
     <cc:Agent>
      <dc:title>Matplotlib v3.10.8, https://matplotlib.org/</dc:title>
     </cc:Agent>
    </dc:creator>
   </cc:Work>
  </rdf:RDF>
 </metadata>
 <defs>
  <style type="text/css">*{stroke-linejoin: round; stroke-linecap: butt}</style>
 </defs>
 <g id="figure_1">
  <g id="patch_1">
   <path d="M 0 384 
L 576 384 
L 576 0 
L 0 0 
z
" style="fill: #eaf3ff"/>
  </g>
  <g id="axes_1">
   <g id="PatchCollection_1">
    <path d="M 201.765754 79.823041 
L 203.457434 73.633775 
L 235.617208 77.84065 
L 242.530274 73.566307 
L 233.760329 65.248799 
L 233.905188 57.915045 
L 221.791571 54.920623 
L 226.11602 49.618869 
L 254.482661 53.482447 
L 256.162434 63.939111 
L 254.694989 71.319994 
L 250.013848 74.555517 
L 254.955438 80.320127 
L 254.560547 85.536057 
L 241.808458 82.272752 
L 232.747305 83.604267 
L 221.032547 82.216197 
L 212.049282 85.804939 
z
" clip-path="url(#pe643e5e607)" style="fill: #e8edf4; stroke: #b8c5d4; stroke-width: 0.45"/>
    <path d="M 250.013848 74.555517 
L 254.694989 71.319994 
L 256.162434 63.939111 
L 254.482661 53.482447 
L 256.883754 50.209717 
L 271.871243 50.298517 
L 283.244192 55.240603 
L 288.304348 54.7584 
L 291.790399 61.569271 
L 302.295184 61.186287 
L 301.676555 66.908232 
L 310.21929 67.601771 
L 319.655489 74.645807 
L 312.525133 82.461267 
L 303.39304 78.28515 
L 288.263668 78.176506 
L 284.801926 81.678432 
L 277.430965 82.861615 
L 274.509469 78.203791 
L 268.160958 80.960088 
L 260.475969 94.107564 
L 255.532891 91.054603 
L 254.955438 80.320127 
z
" clip-path="url(#pe643e5e607)" style="fill: #e8edf4; stroke: #b8c5d4; stroke-width: 0.45"/>
    <path d="M 210.805079 576.457533 
L 215.870692 572.947174 
L 215.849856 564.837033 
L 227.455473 559.294674 
L 225.541543 548.912424 
L 230.441461 542.232025 
L 231.834989 533.27158 
L 253.79061 520.204471 
L 269.526208 516.510557 
L 272.100438 513.624283 
L 289.402204 514.525189 
L 298.486672 453.554275 
L 295.480344 442.559846 
L 286.963407 435.555002 
L 287.061137 421.604846 
L 297.873997 418.441752 
L 301.713266 420.429103 
L 302.362157 413.07501 
L 291.111743 411.089642 
L 290.874114 399.07574 
L 328.283551 399.504861 
L 334.634047 392.886474 
L 339.968047 398.976025 
L 343.711075 410.301846 
L 347.334543 407.935478 
L 357.905309 418.090517 
L 372.833266 416.846314 
L 376.549504 410.97058 
L 398.733329 403.337185 
L 400.964758 395.205713 
L 414.67927 389.742728 
L 413.640946 385.707502 
L 397.376016 384.057494 
L 394.710504 371.965705 
L 395.484907 359.09356 
L 386.891571 354.116252 
L 390.489739 352.349166 
L 404.703817 354.805822 
L 419.970606 359.605033 
L 425.512965 355.066271 
L 439.319751 352.087228 
L 460.795649 344.899822 
L 467.81736 337.572517 
L 465.275376 332.154678 
L 475.257278 331.305861 
L 479.725594 335.730025 
L 477.228754 344.160642 
L 483.825809 347.068744 
L 488.229633 355.99099 
L 482.904067 362.755228 
L 479.849122 379.099533 
L 484.763922 388.807096 
L 486.155961 397.691639 
L 497.967458 406.700205 
L 507.391751 407.652705 
L 509.51404 403.892314 
L 524.269356 399.694369 
L 530.5122 394.588076 
L 556.242598 397.100791 
L 557.972477 393.177682 
L 554.751836 389.360736 
L 556.672215 383.801014 
L 564.420704 385.50708 
L 573.486321 383.544037 
L 592.8692 391.573314 
L 598.812403 386.367307 
L 603.107086 387.169986 
L 605.725469 392.574928 
L 614.918583 391.202732 
L 622.276645 383.909658 
L 628.172719 369.770986 
L 639.53029 352.200338 
L 646.07079 351.292982 
L 650.820391 361.912365 
L 661.589594 395.489974 
L 671.857743 398.659517 
L 672.375665 411.913158 
L 657.934376 427.718705 
L 663.906352 433.506135 
L 697.845118 436.521392 
L 698.537665 455.765861 
L 713.120836 443.167064 
L 737.281594 450.067728 
L 769.170501 461.7934 
L 778.541711 473.044807 
L 775.393501 483.673119 
L 797.719208 477.755713 
L 835.084989 487.910752 
L 863.769626 487.162642 
L 892.152637 503.052525 
L 916.673559 524.562158 
L 931.463602 530.100549 
L 947.882321 530.870486 
L 954.840532 536.926799 
L 964.544126 572.989838 
L 956.898329 604.730908 
L 947.130243 617.266205 
L 920.06684 643.981846 
L 907.834657 665.686939 
L 893.621571 682.331877 
L 888.821368 682.706924 
L 883.457106 696.832697 
L 884.819876 732.807432 
L 877.427086 775.060728 
L 871.356387 782.63608 
L 867.952192 808.302978 
L 848.484977 833.366627 
L 845.22068 853.196486 
L 829.680047 861.516971 
L 825.184942 873.025353 
L 804.325688 872.979713 
L 774.122012 880.357619 
L 760.598993 888.899361 
L 739.095809 894.508197 
L 716.499731 909.795822 
L 700.247204 928.838877 
L 697.452708 943.174994 
L 700.645071 953.77751 
L 697.058809 973.173783 
L 692.701618 982.54301 
L 679.283274 993.109807 
L 657.980016 1026.901728 
L 641.096458 1042.131807 
L 628.043239 1051.111103 
L 619.28768 1069.374299 
L 606.585696 1080.352853 
L 601.269555 1069.478478 
L 609.735891 1060.371189 
L 598.631329 1047.307057 
L 563.811004 1024.394471 
L 556.673704 1024.955057 
L 537.420305 1010.105978 
L 524.957438 1012.152861 
L 550.574727 985.973002 
L 572.244102 967.332775 
L 601.304282 948.930674 
L 601.6957 933.597408 
L 592.063047 922.514674 
L 582.554418 926.193705 
L 588.925254 903.759353 
L 588.935176 893.203471 
L 582.025583 889.7199 
L 574.824286 892.824455 
L 567.665653 891.973158 
L 565.421325 884.582353 
L 563.634891 866.987892 
L 560.039204 861.253049 
L 547.072305 856.056963 
L 539.235016 859.817353 
L 518.96661 856.131377 
L 520.243059 830.067603 
L 514.565266 819.392658 
L 520.567008 815.423908 
L 518.720051 804.48008 
L 523.980629 796.067322 
L 527.391274 780.9444 
L 522.856481 769.007392 
L 512.368563 763.616838 
L 510.309278 756.040494 
L 513.128579 744.951807 
L 476.318918 744.159049 
L 468.935059 721.80308 
L 474.537942 721.482603 
L 474.284934 713.202799 
L 470.543395 707.596939 
L 469.696563 696.49833 
L 458.544872 690.804166 
L 446.466477 690.992682 
L 438.520047 685.416588 
L 425.541243 681.612541 
L 417.987223 674.439025 
L 396.486024 671.269978 
L 375.636196 654.072392 
L 377.179543 641.200744 
L 374.819129 633.819861 
L 376.862043 619.430166 
L 351.73936 622.681564 
L 341.623016 629.890799 
L 324.834708 637.671533 
L 320.55193 643.478807 
L 296.39018 642.273299 
L 285.559958 645.58026 
L 276.825235 643.375619 
L 278.107637 614.210267 
L 262.353684 625.525174 
L 245.410098 625.02908 
L 238.149766 614.787721 
L 225.407102 613.674486 
L 229.464653 605.4304 
L 218.795661 593.749377 
z
" clip-path="url(#pe643e5e607)" style="fill: #e8edf4; stroke: #b8c5d4; stroke-width: 0.45"/>
    <path d="M 114.734043 399.525697 
L 121.897637 398.085041 
L 121.047333 388.466775 
L 125.549879 381.512533 
L 135.074383 380.22517 
L 150.508356 358.086986 
L 143.431579 353.517963 
L 147.054055 342.374705 
L 142.722165 324.81001 
L 146.838751 319.769201 
L 143.808114 303.530564 
L 136.033829 293.303592 
L 138.494454 283.971076 
L 144.682727 285.349224 
L 148.302723 279.642658 
L 143.845321 268.333705 
L 146.175473 265.52631 
L 156.09586 266.13601 
L 170.50143 252.733045 
L 178.407676 250.689635 
L 182.135821 228.115385 
L 193.147614 219.205541 
L 205.246348 218.840912 
L 206.773325 214.838924 
L 221.796532 216.441307 
L 244.386657 202.453447 
L 253.681469 193.203779 
L 260.483411 194.380017 
L 265.520747 199.430748 
L 261.793594 205.895346 
L 249.460704 209.113506 
L 244.590551 218.71292 
L 237.158571 224.218072 
L 231.578508 231.353389 
L 229.230001 245.05401 
L 223.90493 256.281603 
L 233.816387 257.567478 
L 236.278501 266.394474 
L 240.514645 270.618713 
L 242.030708 278.349342 
L 239.750165 285.455885 
L 240.425844 289.46333 
L 245.151633 291.063728 
L 249.724626 297.760994 
L 274.414715 295.914533 
L 285.568391 298.360771 
L 299.081985 314.882678 
L 306.841883 312.829346 
L 320.670993 313.857252 
L 331.614325 311.667494 
L 338.40436 314.967014 
L 334.946586 325.308088 
L 330.661825 331.75433 
L 329.158165 345.524404 
L 333.020751 358.281951 
L 338.478774 363.987029 
L 339.139075 368.285682 
L 329.409188 377.843424 
L 336.375833 382.074607 
L 341.479149 388.787748 
L 347.334543 407.935478 
L 343.711075 410.301846 
L 339.968047 398.976025 
L 334.634047 392.886474 
L 328.283551 399.504861 
L 290.874114 399.07574 
L 291.111743 411.089642 
L 302.362157 413.07501 
L 301.713266 420.429103 
L 297.873997 418.441752 
L 287.061137 421.604846 
L 286.963407 435.555002 
L 295.480344 442.559846 
L 298.486672 453.554275 
L 289.402204 514.525189 
L 279.794356 504.318557 
L 274.060504 503.863142 
L 286.443997 484.323002 
L 271.741266 475.331799 
L 260.218001 476.981807 
L 253.284594 473.659963 
L 242.704899 478.736986 
L 228.408469 476.331924 
L 217.097532 456.201432 
L 208.210012 451.254385 
L 202.08127 442.191744 
L 189.312809 433.098346 
L 184.194114 434.91901 
L 166.547563 424.011892 
L 161.093508 427.066838 
L 144.800301 424.402814 
L 140.122633 416.142853 
L 136.542821 416.449439 
L 117.339032 405.486264 
z
" clip-path="url(#pe643e5e607)" style="fill: #e8edf4; stroke: #b8c5d4; stroke-width: 0.45"/>
    <path d="M 38.416965 274.079463 
L 41.028403 266.375127 
L 40.281782 262.900486 
L 43.151684 260.626392 
L 39.158626 257.772861 
L 39.048493 250.045209 
L 46.473032 248.330213 
L 53.367247 255.216986 
L 52.97434 259.284955 
L 60.635516 260.148158 
L 62.448243 258.586455 
L 67.725688 263.304307 
L 77.171809 261.916732 
L 85.339497 257.067416 
L 96.999684 253.194908 
L 103.552586 247.457088 
L 114.153118 248.583717 
L 113.437751 250.472346 
L 124.142958 251.127189 
L 132.686188 254.443576 
L 146.175473 265.52631 
L 143.845321 268.333705 
L 148.302723 279.642658 
L 144.682727 285.349224 
L 138.494454 283.971076 
L 136.033829 293.303592 
L 129.633227 287.764705 
L 125.520114 277.40081 
L 130.263762 272.271697 
L 125.399067 270.956057 
L 121.815286 264.61201 
L 112.250102 259.275033 
L 103.848754 260.4984 
L 99.956899 267.17731 
L 92.201961 272.000334 
L 88.012946 272.670557 
L 86.130766 276.666096 
L 95.289153 287.087537 
L 87.273766 292.385818 
L 78.341102 293.365603 
L 75.016778 281.895916 
L 72.517458 285.160213 
L 66.185317 284.033088 
L 62.310825 276.307916 
L 49.454059 272.786642 
L 41.214438 272.815416 
L 40.621606 276.982603 
z
" clip-path="url(#pe643e5e607)" style="fill: #e8edf4; stroke: #b8c5d4; stroke-width: 0.45"/>
    <path d="M -18.721128 222.810654 
L -11.427558 216.63131 
L 1.222336 221.715775 
L 5.637075 219.212982 
L 11.726129 220.814869 
L 14.908571 224.76576 
L 20.574954 226.044689 
L 25.172254 221.975728 
L 30.035461 232.407588 
L 46.473032 248.330213 
L 39.048493 250.045209 
L 39.158626 257.772861 
L 43.151684 260.626392 
L 40.281782 262.900486 
L 41.028403 266.375127 
L 38.416965 274.079463 
L 27.998004 269.81901 
L 24.0997 265.788744 
L 26.31079 262.45549 
L 25.613282 258.213392 
L 20.290196 253.616588 
L 6.125231 247.381682 
L 4.863665 241.765404 
L -0.172679 238.334916 
L 1.061602 243.916963 
L -2.76973 248.504838 
L -7.158175 243.176791 
L -13.327101 241.279728 
L -15.950941 237.410197 
L -15.840808 231.564724 
L -13.298824 225.516846 
z
" clip-path="url(#pe643e5e607)" style="fill: #e8edf4; stroke: #b8c5d4; stroke-width: 0.45"/>
    <path d="M -51.875074 184.129728 
L -49.743359 181.160607 
L -46.573816 184.050849 
L -39.150765 181.904748 
L -36.746695 177.519279 
L -33.929378 177.348623 
L -34.337664 167.906967 
L -25.833128 167.589963 
L -21.688265 162.466803 
L -16.024859 166.347744 
L -3.814999 156.396103 
L -3.496011 152.444221 
L -1.653519 152.610412 
L 0.809586 148.022537 
L 2.815293 147.463935 
L 6.088024 150.397338 
L 9.932751 151.265006 
L 14.17584 148.823728 
L 19.026149 148.81083 
L 25.691168 146.30258 
L 28.352215 143.68767 
L 34.933395 144.08008 
L 32.304098 150.208822 
L 34.263172 157.234502 
L 29.840001 163.774506 
L 27.779227 171.500174 
L 27.157622 179.960557 
L 28.672196 193.553525 
L 25.738793 195.439674 
L 23.94343 203.65201 
L 25.263536 208.722584 
L 21.334969 213.632424 
L 22.228434 218.821564 
L 25.172254 221.975728 
L 20.574954 226.044689 
L 14.908571 224.76576 
L 11.726129 220.814869 
L 5.637075 219.212982 
L 1.222336 221.715775 
L -11.427558 216.63131 
L -14.320777 219.101857 
L -29.93632 205.307971 
L -34.163039 198.835932 
z
" clip-path="url(#pe643e5e607)" style="fill: #e8edf4; stroke: #b8c5d4; stroke-width: 0.45"/>
    <path d="M -84.223859 155.05665 
L -80.234273 150.182033 
L -81.764226 146.413705 
L -80.412371 142.724752 
L -62.560437 130.027728 
L -60.56614 130.777822 
L -56.3548 127.4024 
L -37.181273 129.471111 
L -28.306156 128.96956 
L -19.877523 124.696209 
L -9.164874 126.993619 
L -0.32746 124.878275 
L 11.489493 127.964971 
L 22.899649 135.857822 
L 29.88068 138.798666 
L 34.933395 144.08008 
L 28.352215 143.68767 
L 25.691168 146.30258 
L 19.026149 148.81083 
L 14.17584 148.823728 
L 9.932751 151.265006 
L 6.088024 150.397338 
L 2.815293 147.463935 
L 0.809586 148.022537 
L -1.653519 152.610412 
L -3.496011 152.444221 
L -3.814999 156.396103 
L -16.024859 166.347744 
L -21.688265 162.466803 
L -25.833128 167.589963 
L -34.337664 167.906967 
L -33.929378 177.348623 
L -36.746695 177.519279 
L -39.150765 181.904748 
L -45.119765 182.694033 
L -48.436648 176.68733 
L -54.267734 175.017974 
L -52.931257 167.327033 
L -55.542695 165.2484 
L -59.494578 163.879182 
L -67.916761 166.16667 
L -68.631632 163.581029 
L -78.563429 156.671435 
z
" clip-path="url(#pe643e5e607)" style="fill: #e8edf4; stroke: #b8c5d4; stroke-width: 0.45"/>
    <path d="M 223.90493 256.281603 
L 229.230001 245.05401 
L 231.578508 231.353389 
L 237.158571 224.218072 
L 244.590551 218.71292 
L 249.460704 209.113506 
L 261.793594 205.895346 
L 261.247891 210.432123 
L 249.976641 212.672978 
L 256.239329 221.386369 
L 256.005172 231.427307 
L 247.53586 242.579494 
L 254.803633 257.812549 
L 263.080461 256.565865 
L 267.392012 242.688139 
L 261.438391 235.930846 
L 260.468032 221.395795 
L 284.378262 213.590752 
L 281.718208 204.54101 
L 288.449704 198.483705 
L 295.341438 211.975471 
L 308.806415 212.287017 
L 321.281188 222.993713 
L 322.03277 229.350658 
L 339.272028 229.51933 
L 359.785008 227.546365 
L 370.779438 236.144662 
L 385.463317 238.517478 
L 396.234008 232.519705 
L 396.454274 227.684775 
L 443.245836 226.259994 
L 426.941715 231.930842 
L 433.500571 240.994474 
L 448.855665 242.437115 
L 463.412543 251.878275 
L 466.471954 267.260654 
L 476.478165 266.827068 
L 484.00093 271.352932 
L 468.788711 282.631623 
L 467.110922 289.632002 
L 473.683172 296.7569 
L 468.915215 300.35358 
L 457.100743 303.435314 
L 457.483231 312.301502 
L 452.282184 317.585892 
L 465.275376 332.154678 
L 467.81736 337.572517 
L 460.795649 344.899822 
L 439.319751 352.087228 
L 425.512965 355.066271 
L 419.970606 359.605033 
L 404.703817 354.805822 
L 390.489739 352.349166 
L 386.891571 354.116252 
L 395.484907 359.09356 
L 394.710504 371.965705 
L 397.376016 384.057494 
L 413.640946 385.707502 
L 414.67927 389.742728 
L 400.964758 395.205713 
L 398.733329 403.337185 
L 376.549504 410.97058 
L 372.833266 416.846314 
L 357.905309 418.090517 
L 347.334543 407.935478 
L 341.479149 388.787748 
L 336.375833 382.074607 
L 329.409188 377.843424 
L 339.139075 368.285682 
L 338.478774 363.987029 
L 333.020751 358.281951 
L 329.158165 345.524404 
L 330.661825 331.75433 
L 334.946586 325.308088 
L 338.40436 314.967014 
L 331.614325 311.667494 
L 320.670993 313.857252 
L 306.841883 312.829346 
L 299.081985 314.882678 
L 285.568391 298.360771 
L 274.414715 295.914533 
L 249.724626 297.760994 
L 245.151633 291.063728 
L 240.425844 289.46333 
L 239.750165 285.455885 
L 242.030708 278.349342 
L 240.514645 270.618713 
L 236.278501 266.394474 
L 233.816387 257.567478 
z
" clip-path="url(#pe643e5e607)" style="fill: #e8edf4; stroke: #b8c5d4; stroke-width: 0.45"/>
    <path d="M 452.282184 317.585892 
L 457.483231 312.301502 
L 457.100743 303.435314 
L 468.915215 300.35358 
L 473.683172 296.7569 
L 467.110922 289.632002 
L 468.788711 282.631623 
L 484.00093 271.352932 
L 496.607665 278.415322 
L 508.487126 290.924326 
L 509.026379 300.810482 
L 516.260418 301.2654 
L 534.129219 317.315521 
L 531.060879 334.587521 
L 519.405653 339.597572 
L 520.443977 344.12542 
L 516.901868 354.03142 
L 525.409876 367.974631 
L 531.556477 367.996955 
L 534.078122 378.836603 
L 545.803793 395.529166 
L 541.132079 396.216752 
L 530.5122 394.588076 
L 524.269356 399.694369 
L 509.51404 403.892314 
L 507.391751 407.652705 
L 497.967458 406.700205 
L 486.155961 397.691639 
L 484.763922 388.807096 
L 479.849122 379.099533 
L 482.904067 362.755228 
L 488.229633 355.99099 
L 483.825809 347.068744 
L 477.228754 344.160642 
L 479.725594 335.730025 
L 475.257278 331.305861 
L 465.275376 332.154678 
z
" clip-path="url(#pe643e5e607)" style="fill: #e8edf4; stroke: #b8c5d4; stroke-width: 0.45"/>
    <path d="M 516.901868 354.03142 
L 520.443977 344.12542 
L 519.405653 339.597572 
L 531.060879 334.587521 
L 534.129219 317.315521 
L 557.133086 321.160744 
L 559.197829 317.699994 
L 574.721594 316.314404 
L 595.365543 321.474275 
L 585.370247 337.982291 
L 586.88879 351.117861 
L 594.426934 362.495275 
L 589.381661 379.53808 
L 584.484719 387.612502 
L 573.486321 383.544037 
L 564.420704 385.50708 
L 556.672215 383.801014 
L 554.751836 389.360736 
L 557.972477 393.177682 
L 556.242598 397.100791 
L 545.803793 395.529166 
L 534.078122 378.836603 
L 531.556477 367.996955 
L 525.409876 367.974631 
z
" clip-path="url(#pe643e5e607)" style="fill: #e8edf4; stroke: #b8c5d4; stroke-width: 0.45"/>
    <path d="M 340.305391 79.210365 
L 343.026961 76.404459 
L 358.737258 76.516576 
L 368.550985 78.20776 
L 372.012727 82.021728 
L 367.094454 86.862611 
L 341.424083 87.426174 
z
" clip-path="url(#pe643e5e607)" style="fill: #e8edf4; stroke: #b8c5d4; stroke-width: 0.45"/>
    <path d="M 127.27579 82.061416 
L 129.579649 77.672971 
L 142.023665 76.981912 
L 154.944922 78.703357 
L 165.145106 83.314549 
L 168.326555 88.57215 
L 154.830821 88.929834 
L 148.998247 92.138568 
L 138.25236 89.05733 
z
" clip-path="url(#pe643e5e607)" style="fill: #e8edf4; stroke: #b8c5d4; stroke-width: 0.45"/>
    <path d="M -0.158292 11.59626 
L 9.976407 5.664963 
L 14.137145 -1.26249 
L 22.817793 -5.531873 
L 32.623086 -9.274404 
L 47.159626 -11.111936 
L 51.811497 -13.221326 
L 83.479641 -11.634818 
L 101.513145 -5.093822 
L 109.155469 1.93533 
L 127.089258 -0.233592 
L 162.102563 24.829064 
L 168.423293 24.565142 
L 179.874129 28.48081 
L 178.475641 33.886248 
L 192.629196 34.677021 
L 207.141922 42.535146 
L 204.864356 47.032732 
L 192.097383 49.470041 
L 179.174141 50.423533 
L 165.945801 48.904494 
L 138.454766 50.774767 
L 151.325918 40.063607 
L 143.501032 35.076377 
L 131.123989 33.792982 
L 124.489727 28.250623 
L 119.938563 17.316221 
L 109.088001 18.063834 
L 91.184473 12.915373 
L 85.423336 8.888084 
L 60.397887 5.912514 
L 53.696157 2.167502 
L 60.895965 -2.629725 
L 42.062758 -3.612486 
L 28.266391 6.364455 
L 20.311032 6.632346 
L 17.558704 11.316959 
L 8.05702 13.416428 
z
" clip-path="url(#pe643e5e607)" style="fill: #e8edf4; stroke: #b8c5d4; stroke-width: 0.45"/>
    <path d="M 441.92 238.272 
L 447.488 232.992 
L 447.104 225.408 
L 458.144 222.912 
L 462.176 223.584 
L 461.408 237.888 
L 445.376 240 
z
" clip-path="url(#pe643e5e607)" style="fill: #e8edf4; stroke: #b8c5d4; stroke-width: 0.45"/>
   </g>
   <g id="PathCollection_1">
    <defs>
     <path id="md3b0192ffe" d="M 0 2.12132 
C 0.562581 2.12132 1.102195 1.897805 1.5 1.5 
C 1.897805 1.102195 2.12132 0.562581 2.12132 0 
C 2.12132 -0.562581 1.897805 -1.102195 1.5 -1.5 
C 1.102195 -1.897805 0.562581 -2.12132 0 -2.12132 
C -0.562581 -2.12132 -1.102195 -1.897805 -1.5 -1.5 
C -1.897805 -1.102195 -2.12132 -0.562581 -2.12132 0 
C -2.12132 0.562581 -1.897805 1.102195 -1.5 1.5 
C -1.102195 1.897805 -0.562581 2.12132 0 2.12132 
z
" style="stroke: #ffffff; stroke-width: 0.5"/>
    </defs>
    <g clip-path="url(#pe643e5e607)">
     <use xlink:href="#md3b0192ffe" x="444.8" y="104.64" style="fill: #8aa0b7; stroke: #ffffff; stroke-width: 0.5"/>
     <use xlink:href="#md3b0192ffe" x="418.56" y="81.6" style="fill: #8aa0b7; stroke: #ffffff; stroke-width: 0.5"/>
     <use xlink:href="#md3b0192ffe" x="288" y="192" style="fill: #8aa0b7; stroke: #ffffff; stroke-width: 0.5"/>
     <use xlink:href="#md3b0192ffe" x="488.32" y="179.2" style="fill: #8aa0b7; stroke: #ffffff; stroke-width: 0.5"/>
     <use xlink:href="#md3b0192ffe" x="424.96064" y="88.32" style="fill: #8aa0b7; stroke: #ffffff; stroke-width: 0.5"/>
     <use xlink:href="#md3b0192ffe" x="321.1808" y="198.17472" style="fill: #8aa0b7; stroke: #ffffff; stroke-width: 0.5"/>
     <use xlink:href="#md3b0192ffe" x="306.752" y="198.34368" style="fill: #8aa0b7; stroke: #ffffff; stroke-width: 0.5"/>
     <use xlink:href="#md3b0192ffe" x="453.76" y="136" style="fill: #8aa0b7; stroke: #ffffff; stroke-width: 0.5"/>
     <use xlink:href="#md3b0192ffe" x="447.36" y="199.36" style="fill: #8aa0b7; stroke: #ffffff; stroke-width: 0.5"/>
     <use xlink:href="#md3b0192ffe" x="448.960006" y="120" style="fill: #8aa0b7; stroke: #ffffff; stroke-width: 0.5"/>
     <use xlink:href="#md3b0192ffe" x="240.96" y="67.2" style="fill: #8aa0b7; stroke: #ffffff; stroke-width: 0.5"/>
     <use xlink:href="#md3b0192ffe" x="143.36" y="81.6" style="fill: #8aa0b7; stroke: #ffffff; stroke-width: 0.5"/>
     <use xlink:href="#md3b0192ffe" x="426.56" y="99.2" style="fill: #8aa0b7; stroke: #ffffff; stroke-width: 0.5"/>
     <use xlink:href="#md3b0192ffe" x="85.76" y="57.6" style="fill: #8aa0b7; stroke: #ffffff; stroke-width: 0.5"/>
     <use xlink:href="#md3b0192ffe" x="460.8" y="165.44" style="fill: #8aa0b7; stroke: #ffffff; stroke-width: 0.5"/>
     <use xlink:href="#md3b0192ffe" x="420.79808" y="85.04064" style="fill: #8aa0b7; stroke: #ffffff; stroke-width: 0.5"/>
     <use xlink:href="#md3b0192ffe" x="460.16" y="150.399994" style="fill: #8aa0b7; stroke: #ffffff; stroke-width: 0.5"/>
     <use xlink:href="#md3b0192ffe" x="437.12" y="110.4" style="fill: #8aa0b7; stroke: #ffffff; stroke-width: 0.5"/>
     <use xlink:href="#md3b0192ffe" x="354.56" y="81.6" style="fill: #8aa0b7; stroke: #ffffff; stroke-width: 0.5"/>
     <use xlink:href="#md3b0192ffe" x="420.70784" y="85.584" style="fill: #8aa0b7; stroke: #ffffff; stroke-width: 0.5"/>
     <use xlink:href="#md3b0192ffe" x="252.84032" y="15.4752" style="fill: #8aa0b7; stroke: #ffffff; stroke-width: 0.5"/>
     <use xlink:href="#md3b0192ffe" x="460.16" y="220.8" style="fill: #8aa0b7; stroke: #ffffff; stroke-width: 0.5"/>
     <use xlink:href="#md3b0192ffe" x="456.32" y="177.6" style="fill: #8aa0b7; stroke: #ffffff; stroke-width: 0.5"/>
     <use xlink:href="#md3b0192ffe" x="390.272" y="78.32256" style="fill: #8aa0b7; stroke: #ffffff; stroke-width: 0.5"/>
     <use xlink:href="#md3b0192ffe" x="385.35104" y="79.95264" style="fill: #8aa0b7; stroke: #ffffff; stroke-width: 0.5"/>
    </g>
   </g>
   <g id="PathCollection_2">
    <defs>
     <path id="me4ba79987e" d="M 0 3.674235 
C 0.974418 3.674235 1.909058 3.287094 2.598076 2.598076 
C 3.287094 1.909058 3.674235 0.974418 3.674235 0 
C 3.674235 -0.974418 3.287094 -1.909058 2.598076 -2.598076 
C 1.909058 -3.287094 0.974418 -3.674235 0 -3.674235 
C -0.974418 -3.674235 -1.909058 -3.287094 -2.598076 -2.598076 
C -3.287094 -1.909058 -3.674235 -0.974418 -3.674235 0 
C -3.674235 0.974418 -3.287094 1.909058 -2.598076 2.598076 
C -1.909058 3.287094 -0.974418 3.674235 0 3.674235 
z
" style="stroke: #ffffff; stroke-width: 1.2"/>
    </defs>
    <g clip-path="url(#pe643e5e607)">
     <use xlink:href="#me4ba79987e" x="288" y="192" style="fill: #f97316; stroke: #ffffff; stroke-width: 1.2"/>
    </g>
   </g>
   <g id="PathCollection_3">
    <path d="M 288 196.929503 
C 289.307319 196.929503 290.561271 196.410099 291.485685 195.485685 
C 292.410099 194.561271 292.929503 193.307319 292.929503 192 
C 292.929503 190.692681 292.410099 189.438729 291.485685 188.514315 
C 290.561271 187.589901 289.307319 187.070497 288 187.070497 
C 286.692681 187.070497 285.438729 187.589901 284.514315 188.514315 
C 283.589901 189.438729 283.070497 190.692681 283.070497 192 
C 283.070497 193.307319 283.589901 194.561271 284.514315 195.485685 
C 285.438729 196.410099 286.692681 196.929503 288 196.929503 
L 288 196.929503 
z
" clip-path="url(#pe643e5e607)" style="fill: none; stroke: #7c2d12; stroke-width: 1.1"/>
   </g>
  </g>
 </g>
 <defs>
  <clipPath id="pe643e5e607">
   <rect x="0" y="-0" width="576" height="384"/>
  </clipPath>
 </defs>
</svg>
