<?xml version="1.0" encoding="utf-8" standalone="no"?>
<!DOCTYPE svg PUBLIC "-//W3C//DTD SVG 1.1//EN"
  "http://www.w3.org/Graphics/SVG/1.1/DTD/svg11.dtd">
<svg xmlns:xlink="http://www.w3.org/1999/xlink" width="443.165537pt" height="432pt" viewBox="0 0 443.165537 432" xmlns="http://www.w3.org/2000/svg" version="1.1">
 <metadata>
  <rdf:RDF xmlns:dc="http://purl.org/dc/elements/1.1/" xmlns:cc="http://creativecommons.org/ns#" xmlns:rdf="http://www.w3.org/1999/02/22-rdf-syntax-ns#">
   <cc:Work>
    <dc:type rdf:resource="http://purl.org/dc/dcmitype/StillImage"/>
    <dc:date>2026-06-09T04:56:59.743778</dc:date>
    <dc:format>image/svg+xml</dc:format>
    <dc:creator>
     <cc:Agent>
      <dc:title>Matplotlib v3.10.8, https://matplotlib.org/</dc:title>
     </cc:Agent>
    </dc:creator>
   </cc:Work>
  </rdf:RDF>
 </metadata>
 <defs>
  <style type="text/css">*{stroke-linejoin: round; stroke-linecap: butt}</style>
 </defs>
 <g id="figure_1">
  <g id="patch_1">
   <path d="M 0 432 
L 443.165537 432 
L 443.165537 0 
L 0 0 
z
" style="fill: #eaf3ff"/>
  </g>
  <g id="axes_1">
   <g id="PatchCollection_1">
    <path d="M 253.230245 248.814101 
L 256.245615 248.467043 
L 263.528386 240.496254 
L 263.46108 238.126338 
L 261.890737 236.473303 
L 261.467872 233.601767 
L 263.572641 232.678741 
L 263.994311 228.388565 
L 261.099148 224.27399 
L 263.656872 223.398149 
L 286.509069 222.927447 
L 314.182241 238.583404 
L 314.679632 242.81374 
L 325.146056 250.103237 
L 321.779463 259.088354 
L 322.211371 263.220831 
L 326.879959 265.877617 
L 327.098721 267.773549 
L 325.091147 272.177218 
L 325.509273 274.393345 
L 325.031571 277.876757 
L 330.595988 289.63803 
L 333.272097 291.232801 
L 327.470615 295.460585 
L 319.497172 298.292251 
L 315.122551 298.172571 
L 312.524029 300.359967 
L 307.447749 300.547938 
L 305.544019 301.469657 
L 296.781282 299.414819 
L 291.294679 300.004553 
L 289.252985 290.08722 
L 285.313237 284.670321 
L 278.164516 283.309983 
L 274.026201 281.120617 
L 266.485395 278.672091 
L 263.439202 276.815734 
L 259.501401 267.62757 
L 255.272271 263.544271 
L 253.813573 259.314764 
L 254.542734 255.522753 
z
" clip-path="url(#p5bc9e0fac6)" style="fill: #e8edf4; stroke: #b8c5d4; stroke-width: 0.45"/>
    <path d="M 128.115738 258.220458 
L 129.970481 257.450224 
L 130.198838 254.27131 
L 131.391873 252.396596 
L 134.045489 250.86404 
L 135.961278 251.606766 
L 138.45512 248.815231 
L 142.427254 248.887205 
L 142.89452 250.951464 
L 145.618603 252.243227 
L 156.000189 241.778362 
L 155.756005 235.778898 
L 158.92286 228.694925 
L 162.264186 224.938713 
L 167.06534 221.424047 
L 167.903403 219.097893 
L 168.085034 216.423551 
L 169.273546 213.893157 
L 168.891821 209.760495 
L 169.800727 203.298475 
L 171.225888 198.749042 
L 173.409977 194.849824 
L 174.497877 185.360376 
L 177.336892 181.658049 
L 181.241575 179.309851 
L 187.242169 181.788055 
L 191.886563 184.478035 
L 202.660803 186.619167 
L 204.841125 182.215565 
L 205.842731 181.653528 
L 209.165969 182.385891 
L 217.284332 178.746495 
L 220.16103 180.289037 
L 222.522229 180.070289 
L 223.615781 178.297129 
L 226.325921 177.672349 
L 236.488194 178.607446 
L 238.895742 177.83382 
L 243.312909 183.853633 
L 246.58716 184.737857 
L 248.539124 183.513358 
L 251.910973 183.993247 
L 255.972039 182.450705 
L 257.703936 185.565181 
L 264.123562 190.410989 
L 263.682298 198.937456 
L 266.604969 199.924931 
L 264.260727 202.51411 
L 261.459395 204.450813 
L 258.671251 208.253563 
L 257.137188 211.643877 
L 256.726823 217.497132 
L 255.037507 220.283391 
L 254.976461 225.780922 
L 252.879419 227.813527 
L 252.609234 232.152691 
L 251.607627 232.714917 
L 250.93273 236.704008 
L 252.766371 240.019333 
L 253.230245 248.814101 
L 254.542734 255.522753 
L 253.813573 259.314764 
L 255.272271 263.544271 
L 259.501401 267.62757 
L 263.439244 276.815745 
L 260.566691 276.073772 
L 250.772202 277.304489 
L 248.8176 278.17609 
L 246.739398 282.831035 
L 248.371436 286.046878 
L 246.173404 301.999853 
L 253.24155 306.135153 
L 255.242878 304.809099 
L 255.852584 312.672349 
L 250.271775 312.612057 
L 244.589976 305.491532 
L 239.002008 304.472592 
L 237.365824 300.651565 
L 232.90796 302.953602 
L 227.068647 301.936546 
L 224.631707 298.625743 
L 220.001632 297.953106 
L 216.584187 298.129085 
L 216.165909 295.86247 
L 210.329611 295.248995 
L 200.838844 296.830915 
L 201.22886 288.153341 
L 198.796441 285.447346 
L 198.261347 280.962727 
L 199.335681 276.567039 
L 197.857765 273.753648 
L 197.723992 269.165401 
L 188.876091 269.229085 
L 189.511045 266.601846 
L 185.790631 266.629355 
L 185.397601 267.892856 
L 180.874922 268.177737 
L 177.952628 274.250683 
L 173.923216 273.220814 
L 171.517175 274.246538 
L 166.695295 274.836272 
L 162.22688 268.665352 
L 158.335386 258.858803 
L 136.817052 258.762336 
L 129.137316 260.482175 
z
" clip-path="url(#p5bc9e0fac6)" style="fill: #e8edf4; stroke: #b8c5d4; stroke-width: 0.45"/>
    <path d="M 338.117372 195.695143 
L 346.485436 185.124516 
L 351.160077 184.989904 
L 357.658751 179.849301 
L 367.158323 179.527941 
L 387.764341 157.64173 
L 396.140787 147.077381 
L 396.214257 132.793217 
L 405.771036 130.832001 
L 409.221925 128.335713 
L 411.986924 128.315733 
L 411.506451 138.406033 
L 409.966881 141.039776 
L 407.912054 148.922335 
L 399.893061 166.380084 
L 393.635389 177.066947 
L 378.83406 195.179085 
L 371.536396 201.082217 
L 360.628657 208.322712 
L 353.831155 213.869263 
L 345.850736 222.70256 
L 344.169044 226.54773 
L 342.522353 228.274342 
L 338.204512 222.258693 
z
" clip-path="url(#p5bc9e0fac6)" style="fill: #e8edf4; stroke: #b8c5d4; stroke-width: 0.45"/>
    <path d="M 286.435111 215.199234 
L 292.112198 207.417696 
L 294.765702 202.102521 
L 290.705051 190.07239 
L 287.247672 185.00963 
L 296.676343 175.849977 
L 300.46413 177.073349 
L 300.46413 181.166131 
L 302.955319 183.565956 
L 308.030692 183.565956 
L 317.261127 189.758795 
L 321.273395 189.63144 
L 322.887635 190.472432 
L 327.750515 191.04617 
L 329.905722 188.007354 
L 336.567301 184.957601 
L 339.50833 187.421803 
L 344.490864 187.423101 
L 338.117372 195.695143 
L 338.204512 222.258693 
L 342.522353 228.274342 
L 337.415293 231.186057 
L 335.614741 234.228592 
L 332.881608 234.763099 
L 331.84723 239.901004 
L 329.505535 242.8432 
L 328.082345 247.695111 
L 325.146056 250.103237 
L 314.679632 242.81374 
L 314.182241 238.583404 
L 286.509069 222.927447 
z
" clip-path="url(#p5bc9e0fac6)" style="fill: #e8edf4; stroke: #b8c5d4; stroke-width: 0.45"/>
    <path d="M 199.245836 124.206372 
L 199.980729 121.528148 
L 201.869297 118.488384 
L 201.043181 115.468309 
L 203.440296 113.231838 
L 201.919831 111.528123 
L 203.84814 107.025502 
L 207.177982 101.655418 
L 213.465916 102.164986 
L 213.196912 70.159016 
L 221.582769 70.136848 
L 221.582769 55.574917 
L 308.111902 55.574917 
L 310.463515 62.729511 
L 308.864296 64.052362 
L 309.923757 71.559381 
L 312.600596 80.265139 
L 319.369805 84.755456 
L 315.679372 88.91752 
L 310.308559 90.116333 
L 308.012001 92.352003 
L 307.292713 97.198955 
L 304.152246 107.913673 
L 304.927318 110.833264 
L 303.765768 117.09553 
L 300.800893 124.278563 
L 296.402767 127.89119 
L 293.275499 133.461587 
L 292.542793 136.442503 
L 289.08855 138.48486 
L 286.931343 146.116063 
L 287.028765 152.671761 
L 286.94427 146.985966 
L 285.934837 146.841761 
L 286.060022 143.211387 
L 285.183725 140.707681 
L 281.428165 137.828418 
L 280.551868 132.570635 
L 281.428165 127.187666 
L 278.048161 126.686925 
L 277.54742 128.314334 
L 273.165934 128.68989 
L 274.918528 130.81804 
L 275.544455 135.199526 
L 271.538525 139.205457 
L 267.90815 144.46324 
L 264.152591 145.214352 
L 258.01851 140.958051 
L 255.264433 142.460275 
L 254.513321 144.588426 
L 250.757761 145.965464 
L 250.50739 147.467688 
L 243.246642 147.467688 
L 242.245159 145.965464 
L 236.987376 145.715094 
L 234.358484 146.966947 
L 232.355519 146.34102 
L 227.348106 140.081754 
L 222.090322 141.083237 
L 220.087357 144.46324 
L 218.209577 150.972877 
L 213.466569 153.144507 
L 218.428002 155.992357 
L 212.874701 152.804776 
L 210.345815 150.704907 
L 209.877419 148.438669 
L 211.062163 145.404081 
L 211.040684 142.428654 
L 206.834917 137.869611 
L 206.09606 132.982863 
L 203.416014 130.833532 
L 203.335291 126.597726 
L 201.806804 123.784381 
z
" clip-path="url(#p5bc9e0fac6)" style="fill: #e8edf4; stroke: #b8c5d4; stroke-width: 0.45"/>
    <path d="M 138.018754 111.234154 
L 141.167289 101.628802 
L 150.468744 94.752868 
L 150.853108 85.268507 
L 153.662731 70.47126 
L 155.248796 67.332479 
L 152.214584 64.832797 
L 152.097269 62.513667 
L 149.368786 60.617232 
L 147.577949 49.282243 
L 154.939637 45.295169 
L 213.106928 73.218249 
L 213.465916 102.164986 
L 207.177982 101.655418 
L 203.84814 107.025502 
L 201.919831 111.528123 
L 203.440296 113.231838 
L 201.043181 115.468309 
L 201.869297 118.488384 
L 199.980729 121.528148 
L 199.245836 124.206372 
L 201.806804 123.784381 
L 203.335291 126.597726 
L 203.416014 130.833532 
L 206.09606 132.982863 
L 206.008158 134.749106 
L 201.392026 135.992447 
L 197.692715 138.944511 
L 192.420904 146.900649 
L 185.557752 150.278904 
L 178.515984 149.82577 
L 176.459639 150.496145 
L 177.18164 153.063091 
L 170.282689 158.459067 
L 161.102428 161.248906 
L 159.280846 159.59765 
L 158.073115 159.455209 
L 156.728973 161.330866 
L 150.700116 161.878961 
L 151.842279 159.903633 
L 148.516403 151.858375 
L 145.340504 150.620498 
L 141.036385 146.364613 
L 142.620566 142.923616 
L 145.943805 143.656168 
L 148.00128 143.1369 
L 152.074028 143.208309 
L 148.104908 136.579921 
L 148.371701 131.736185 
L 147.884652 126.898086 
L 144.985533 122.228649 
L 145.714694 118.793871 
L 141.038269 118.625994 
L 141.054473 113.935439 
z
" clip-path="url(#p5bc9e0fac6)" style="fill: #e8edf4; stroke: #b8c5d4; stroke-width: 0.45"/>
    <path d="M 158.469914 424.38274 
L 161.963101 420.776504 
L 164.842813 422.772934 
L 166.072023 425.890802 
L 173.928491 427.800938 
L 177.845986 427.268481 
L 184.35492 423.539777 
L 184.362457 396.607945 
L 186.331001 397.703005 
L 190.654339 404.631725 
L 189.982456 409.074893 
L 191.609595 411.635056 
L 196.832795 410.891199 
L 203.932595 405.44341 
L 205.717248 401.9506 
L 209.274495 400.26053 
L 212.347897 401.146074 
L 215.831287 403.188477 
L 221.766313 403.5491 
L 226.429549 401.851118 
L 228.449342 396.08717 
L 232.416954 395.503465 
L 234.609334 392.764309 
L 237.037608 387.905124 
L 243.584602 382.461103 
L 253.902504 377.09094 
L 256.869264 377.170451 
L 260.397496 378.40569 
L 262.854785 377.53032 
L 266.730829 378.259104 
L 272.120964 393.702985 
L 270.821664 401.832653 
L 271.444182 404.450848 
L 267.764466 403.115372 
L 265.656495 403.635017 
L 264.968032 405.758438 
L 262.976877 408.496086 
L 263.045083 411.017436 
L 267.397059 414.969976 
L 271.665003 414.182784 
L 273.149701 410.944332 
L 278.680393 411.005378 
L 276.858434 416.313741 
L 275.997007 422.372367 
L 274.110234 425.663952 
L 267.709072 430.400668 
L 258.4493 443.076378 
L 245.061387 454.974693 
L 239.554813 458.292656 
L 231.933485 461.121873 
L 228.216086 461.501715 
L 227.275149 463.52603 
L 222.843285 462.448305 
L 219.233659 463.836159 
L 211.330464 462.430971 
L 206.912543 463.320283 
L 203.893405 462.938557 
L 196.37269 465.817139 
L 190.147129 466.971737 
L 185.642161 469.72785 
L 182.325329 469.903075 
L 179.239869 467.302968 
L 176.77542 467.169571 
L 173.634943 463.914162 
L 173.290523 464.925189 
L 172.321324 462.965311 
L 172.362021 458.689831 
L 169.992909 453.803138 
L 172.346194 452.474822 
L 172.15552 446.878186 
L 167.380367 440.053471 
z
M 236.161485 433.856926 
L 241.631507 439.465621 
L 244.240658 438.740982 
L 245.581409 436.41106 
L 249.645489 435.272289 
L 253.122095 429.346306 
L 247.40902 424.898993 
L 244.000996 426.386329 
L 240.049964 429.239287 
z
" clip-path="url(#p5bc9e0fac6)" style="fill: #e8edf4; stroke: #b8c5d4; stroke-width: 0.45"/>
    <path d="M 236.161485 433.856926 
L 240.049964 429.239287 
L 244.000996 426.386329 
L 247.40902 424.898993 
L 253.122095 429.346306 
L 249.645489 435.272289 
L 245.581409 436.41106 
L 244.240658 438.740982 
L 241.631507 439.465621 
z
" clip-path="url(#p5bc9e0fac6)" style="fill: #e8edf4; stroke: #b8c5d4; stroke-width: 0.45"/>
    <path d="M 223.509515 345.335721 
L 231.659909 346.134218 
L 234.028644 346.974166 
L 236.490832 346.80497 
L 240.529288 342.085588 
L 246.870911 336.088385 
L 249.481192 335.514854 
L 250.367866 332.986721 
L 254.519747 330.081761 
L 260.042902 329.083546 
L 260.514689 331.803861 
L 266.597055 331.658782 
L 269.976441 333.197744 
L 271.548186 335.001992 
L 275.020648 335.531811 
L 278.808137 337.874922 
L 278.824341 347.104171 
L 277.402572 352.157799 
L 277.089805 357.607095 
L 278.261738 359.767068 
L 277.437994 364.059883 
L 276.336528 364.723475 
L 274.41358 369.982474 
L 266.730829 378.259104 
L 262.854785 377.53032 
L 260.397496 378.40569 
L 256.869264 377.170451 
L 253.902504 377.09094 
L 249.253588 373.795964 
L 243.614748 372.676788 
L 241.469848 368.052366 
L 241.45176 365.480144 
L 238.328994 364.695967 
L 230.076481 356.68613 
L 227.783865 352.46642 
L 226.3165 351.165613 
z
" clip-path="url(#p5bc9e0fac6)" style="fill: #e8edf4; stroke: #b8c5d4; stroke-width: 0.45"/>
    <path d="M 184.360196 375.325128 
L 191.547796 375.071147 
L 191.762964 349.096079 
L 197.191158 348.85491 
L 208.434171 346.301906 
L 211.220807 349.307856 
L 215.875752 346.449999 
L 218.087727 346.433795 
L 222.198534 344.790829 
L 223.509515 345.335721 
L 226.3165 351.165613 
L 227.783865 352.46642 
L 230.076481 356.68613 
L 238.328994 364.695967 
L 241.45176 365.480144 
L 241.469848 368.052366 
L 243.614748 372.676788 
L 249.253588 373.795964 
L 253.902504 377.09094 
L 243.584602 382.461103 
L 237.037608 387.905124 
L 234.609334 392.764309 
L 232.416954 395.503465 
L 228.449342 396.08717 
L 226.429549 401.851118 
L 221.766313 403.5491 
L 215.831287 403.188477 
L 212.347897 401.146074 
L 209.274495 400.26053 
L 205.717248 401.9506 
L 203.932595 405.44341 
L 196.832795 410.891199 
L 191.609595 411.635056 
L 189.982456 409.074893 
L 190.654339 404.631725 
L 186.331001 397.703005 
L 184.362457 396.607945 
z
" clip-path="url(#p5bc9e0fac6)" style="fill: #e8edf4; stroke: #b8c5d4; stroke-width: 0.45"/>
    <path d="M 124.847894 342.166229 
L 132.722449 339.537106 
L 137.449745 339.754912 
L 141.796822 343.052149 
L 142.899418 342.539664 
L 172.458489 342.225014 
L 177.510987 345.718955 
L 195.164959 346.751084 
L 214.537639 342.12214 
L 219.266442 342.541925 
L 222.143894 344.185645 
L 222.198534 344.790829 
L 218.087727 346.433795 
L 215.875752 346.449999 
L 211.220807 349.307856 
L 208.434171 346.301906 
L 197.191158 348.85491 
L 191.762964 349.096079 
L 191.547796 375.071147 
L 184.360196 375.325128 
L 184.35492 423.539777 
L 177.845986 427.268481 
L 173.928491 427.800938 
L 166.072023 425.890802 
L 164.842813 422.772934 
L 161.963101 420.776504 
L 158.469914 424.38274 
L 153.050763 418.873904 
L 150.197052 413.548584 
L 144.346435 389.937352 
L 144.182892 381.213428 
L 143.249491 377.236018 
L 140.41236 374.230446 
L 136.648611 368.205734 
L 131.223808 354.879621 
L 125.290665 347.76098 
z
" clip-path="url(#p5bc9e0fac6)" style="fill: #e8edf4; stroke: #b8c5d4; stroke-width: 0.45"/>
    <path d="M -49.468172 109.413325 
L -47.014086 108.084256 
L -45.788079 103.788427 
L -43.476621 103.620363 
L -38.384557 105.651272 
L -34.272243 104.209343 
L -31.4532 104.693378 
L -30.359271 103.071702 
L -1.099966 102.960915 
L 0.522275 97.855285 
L -0.741038 96.956552 
L -7.779791 34.015312 
L 3.38032 33.884176 
L 52.576603 65.704963 
L 54.310385 69.121843 
L 62.227145 72.393455 
L 62.310801 77.032762 
L 70.399771 76.318863 
L 70.42012 93.112728 
L 66.432912 97.983406 
L 65.811901 102.476504 
L 59.33462 103.632986 
L 49.384878 104.259838 
L 46.68868 106.851278 
L 37.339977 107.171204 
L 35.519902 105.772234 
L 31.505563 106.810204 
L 24.689891 109.834995 
L 23.298646 112.114422 
L 17.640964 115.383209 
L 16.649155 117.256416 
L 13.593087 118.741115 
L 10.066739 117.757973 
L 8.068614 119.537539 
L 6.998425 124.538411 
L 1.210172 130.581964 
L 1.378614 133.051877 
L -0.610091 136.142801 
L -0.127187 140.376077 
L -4.838656 142.37684 
L -5.967253 139.258031 
L -8.072774 140.080267 
L -9.330623 139.938015 
L -10.672693 142.065958 
L -16.303997 142.005854 
L -18.32266 140.910983 
L -19.273206 141.573445 
L -21.500443 139.471315 
L -21.113818 137.299849 
L -22.024986 136.449162 
L -23.578267 137.166452 
L -23.293763 134.793949 
L -21.79889 132.916973 
L -24.787128 129.862224 
L -25.656092 127.851098 
L -27.276448 126.249018 
L -28.735899 126.057778 
L -34.843701 129.63236 
L -37.964772 129.049785 
L -39.989087 127.198245 
L -41.197571 126.955003 
L -44.257407 127.93513 
L -44.6787 125.265122 
L -44.342947 122.99342 
L -44.966407 120.173623 
L -47.695954 118.125568 
L -49.133738 113.949758 
z
" clip-path="url(#p5bc9e0fac6)" style="fill: #e8edf4; stroke: #b8c5d4; stroke-width: 0.45"/>
    <path d="M -85.145784 62.868774 
L -83.554443 60.436355 
L -54.99811 60.481951 
L -56.381065 49.951141 
L -54.597919 46.205857 
L -47.765291 45.551308 
L -48.000054 26.892715 
L -24.066635 27.274064 
L -24.045533 16.228885 
L 3.38032 33.884176 
L -7.779791 34.015312 
L -0.741038 96.956552 
L 0.522275 97.855285 
L -1.099966 102.960915 
L -30.359271 103.071702 
L -31.4532 104.693378 
L -34.272243 104.209343 
L -38.384557 105.651272 
L -43.476621 103.620363 
L -45.788079 103.788427 
L -47.014086 108.084256 
L -49.468172 109.413325 
L -58.692522 99.040029 
L -63.532866 97.108225 
L -67.017198 94.964644 
L -71.089003 95.04472 
L -74.647005 96.633988 
L -78.271327 96.004499 
L -80.768184 98.342522 
L -81.399746 94.413158 
L -79.364126 90.817662 
L -78.458422 83.952061 
L -80.1451 73.12092 
L -79.417259 69.48435 
L -81.302148 66.018106 
z
" clip-path="url(#p5bc9e0fac6)" style="fill: #e8edf4; stroke: #b8c5d4; stroke-width: 0.45"/>
    <path d="M 44.913448 139.646351 
L 45.841196 135.80686 
L 48.34898 134.981609 
L 49.834433 131.793463 
L 53.39884 131.11216 
L 57.439934 126.795982 
L 60.053983 126.777141 
L 65.614444 130.973487 
L 65.330316 133.396109 
L 66.970268 137.721707 
L 65.533426 140.65719 
L 66.301776 142.618575 
L 60.518234 149.368113 
L 59.143569 153.967665 
L 58.909559 170.360397 
L 52.882964 171.211084 
L 51.087006 166.180442 
L 51.41899 149.433869 
L 49.950118 147.93146 
L 49.673151 144.352733 
z
" clip-path="url(#p5bc9e0fac6)" style="fill: #e8edf4; stroke: #b8c5d4; stroke-width: 0.45"/>
    <path d="M 41.437406 110.671928 
L 42.01527 107.137667 
L 46.68868 106.851278 
L 49.384878 104.259838 
L 59.33462 103.632986 
L 65.811901 102.476504 
L 66.432912 97.983406 
L 70.42012 93.112728 
L 70.399771 76.318863 
L 80.682628 73.067034 
L 101.795497 58.742141 
L 126.782524 44.843439 
L 138.317955 47.987495 
L 142.419341 51.992414 
L 147.577949 49.282243 
L 149.368786 60.617232 
L 152.097269 62.513667 
L 152.214584 64.832797 
L 155.248796 67.332479 
L 153.662731 70.47126 
L 150.853108 85.268507 
L 150.468744 94.752868 
L 141.167289 101.628802 
L 138.018754 111.234154 
L 141.054473 113.935439 
L 141.038269 118.625994 
L 145.714694 118.793871 
L 144.985533 122.228649 
L 142.927304 122.646927 
L 142.69254 124.968559 
L 141.33634 125.129653 
L 136.402166 117.146382 
L 134.690617 116.856226 
L 128.988847 120.932176 
L 123.342846 118.804422 
L 119.418192 118.378984 
L 117.31399 119.402823 
L 113.039263 119.181626 
L 108.737782 122.28913 
L 105.018875 122.467369 
L 96.193585 118.698345 
L 92.737704 120.488462 
L 89.016536 120.364109 
L 86.281902 117.610068 
L 78.972587 114.889 
L 71.135714 115.752688 
L 69.236882 117.329709 
L 68.211159 121.523418 
L 66.120899 124.463611 
L 65.614444 130.973487 
L 60.053983 126.777141 
L 57.439934 126.795982 
L 54.992065 128.931838 
L 55.157115 123.937749 
L 46.749349 122.283855 
L 46.522876 118.755057 
L 42.416591 113.99347 
z
" clip-path="url(#p5bc9e0fac6)" style="fill: #e8edf4; stroke: #b8c5d4; stroke-width: 0.45"/>
    <path d="M 58.909559 170.360397 
L 59.143569 153.967665 
L 60.518234 149.368113 
L 66.301776 142.618575 
L 65.533426 140.65719 
L 66.970268 137.721707 
L 65.330316 133.396109 
L 66.120899 124.463611 
L 68.211159 121.523418 
L 69.236882 117.329709 
L 71.135714 115.752688 
L 78.972587 114.889 
L 86.281902 117.610068 
L 89.016536 120.364109 
L 92.737704 120.488462 
L 96.193585 118.698345 
L 105.018875 122.467369 
L 108.737782 122.28913 
L 113.039263 119.181626 
L 117.31399 119.402823 
L 119.418192 118.378984 
L 123.342846 118.804422 
L 128.988847 120.932176 
L 134.690617 116.856226 
L 136.402166 117.146382 
L 141.33634 125.129653 
L 142.69254 124.968559 
L 145.579036 127.872954 
L 144.39919 131.613716 
L 138.256155 137.256325 
L 135.300323 145.700078 
L 133.753448 147.325145 
L 132.281938 152.429645 
L 128.382155 155.433522 
L 127.252427 159.123413 
L 125.61436 162.060403 
L 124.932303 165.091412 
L 119.922764 167.548513 
L 115.828914 164.551984 
L 113.064511 164.672945 
L 108.721578 168.940889 
L 106.610216 169.006457 
L 101.266054 181.202466 
L 93.695598 183.826689 
L 90.92818 183.443268 
L 88.12421 185.077378 
L 82.291303 184.917981 
L 78.387375 180.356677 
L 75.986609 175.07846 
L 70.824078 170.274103 
z
" clip-path="url(#p5bc9e0fac6)" style="fill: #e8edf4; stroke: #b8c5d4; stroke-width: 0.45"/>
    <path d="M 101.182399 183.217737 
L 101.266054 181.202466 
L 103.1419 176.042007 
L 106.610216 169.006457 
L 108.721578 168.940889 
L 113.064511 164.672945 
L 115.828914 164.551984 
L 119.922764 167.548513 
L 124.932303 165.091412 
L 125.61436 162.060403 
L 127.252427 159.123413 
L 128.382155 155.433522 
L 132.281938 152.429645 
L 133.753448 147.325145 
L 135.300323 145.700078 
L 138.256155 137.256325 
L 144.39919 131.613716 
L 145.579036 127.872954 
L 142.69254 124.968559 
L 142.927304 122.646927 
L 144.985533 122.228649 
L 147.884652 126.898086 
L 148.371701 131.736185 
L 148.104908 136.579921 
L 152.074028 143.208309 
L 148.00128 143.1369 
L 145.943805 143.656168 
L 142.620566 142.923616 
L 141.036385 146.364613 
L 145.340504 150.620498 
L 148.516403 151.858375 
L 151.842279 159.903633 
L 147.032835 169.268917 
L 145.28285 170.59271 
L 144.720247 176.245494 
L 145.446016 179.316634 
L 144.858543 181.489608 
L 148.304626 185.297634 
L 148.926391 187.91564 
L 151.618444 191.678824 
L 154.953363 194.025138 
L 156.048046 199.46426 
L 155.523503 203.401726 
L 143.833573 199.754228 
L 133.723302 199.070664 
L 129.406748 200.009905 
L 124.975261 199.03317 
L 121.509959 199.512305 
L 109.643674 199.345936 
L 110.708588 193.588583 
L 107.858644 188.767646 
L 104.531638 187.5309 
L 103.049954 184.263432 
z
" clip-path="url(#p5bc9e0fac6)" style="fill: #e8edf4; stroke: #b8c5d4; stroke-width: 0.45"/>
    <path d="M 38.918505 137.924628 
L 39.455107 135.65123 
L 45.841196 135.80686 
L 44.913448 139.646351 
L 49.673151 144.352733 
L 49.950118 147.93146 
L 51.41899 149.433869 
L 51.087006 166.180442 
L 52.882964 171.211084 
L 47.011998 172.766626 
L 43.440807 165.580157 
L 42.861624 161.953196 
L 44.47369 155.3851 
L 42.644572 152.725266 
L 41.961949 141.685174 
z
" clip-path="url(#p5bc9e0fac6)" style="fill: #e8edf4; stroke: #b8c5d4; stroke-width: 0.45"/>
    <path d="M 15.623432 170.421254 
L 17.52509 162.186829 
L 20.597926 156.06207 
L 17.668661 140.196707 
L 17.839929 136.059522 
L 30.506594 135.715856 
L 33.728089 136.247371 
L 36.082505 135.070351 
L 39.455107 135.65123 
L 38.918505 137.924628 
L 41.961949 141.685174 
L 42.644572 152.725266 
L 44.47369 155.3851 
L 42.861624 161.953196 
L 43.440807 165.580157 
L 47.011998 172.766626 
L 35.579817 177.035135 
L 31.525535 179.535759 
L 24.954801 181.651078 
L 18.454534 179.580036 
L 18.785765 176.702773 
z
" clip-path="url(#p5bc9e0fac6)" style="fill: #e8edf4; stroke: #b8c5d4; stroke-width: 0.45"/>
    <path d="M -23.451088 168.838204 
L -21.865588 165.598809 
L -22.594748 162.07378 
L -22.258242 159.952998 
L -21.101759 159.944707 
L -20.672177 156.764287 
L -21.235533 155.356084 
L -20.53878 154.342419 
L -17.830523 153.465542 
L -19.631757 147.628114 
L -21.312594 144.614251 
L -20.727193 142.138685 
L -18.32266 140.910983 
L -16.303997 142.005854 
L -10.672693 142.065958 
L -9.330623 139.938015 
L -8.072774 140.080267 
L -5.967253 139.258031 
L -4.838656 142.37684 
L -0.127187 140.376077 
L 3.151962 141.96591 
L 4.426392 144.377604 
L 7.705164 145.917319 
L 10.255907 144.083302 
L 13.672598 143.806334 
L 18.663296 145.686701 
L 20.597926 156.06207 
L 17.52509 162.186829 
L 15.623432 170.421254 
L 18.785765 176.702773 
L 18.454534 179.580036 
L 15.136948 179.654271 
L 10.049029 178.228546 
L 5.374112 178.312767 
L -3.263896 179.585689 
L -15.546951 184.364987 
L -16.955908 184.17337 
L -16.395943 178.167689 
L -15.698436 177.254825 
L -15.920387 174.381707 
L -19.008862 171.327523 
L -21.325218 170.840097 
z
" clip-path="url(#p5bc9e0fac6)" style="fill: #e8edf4; stroke: #b8c5d4; stroke-width: 0.45"/>
    <path d="M -0.610091 136.142801 
L 1.378614 133.051877 
L 1.210172 130.581964 
L 6.998425 124.538411 
L 8.068614 119.537539 
L 10.066739 117.757973 
L 13.593087 118.741115 
L 16.649155 117.256416 
L 17.640964 115.383209 
L 23.298646 112.114422 
L 24.689891 109.834995 
L 31.505563 106.810204 
L 35.519902 105.772234 
L 37.339977 107.171204 
L 42.01527 107.137667 
L 41.437406 110.671928 
L 42.416591 113.99347 
L 46.522876 118.755057 
L 46.749349 122.283855 
L 55.157115 123.937749 
L 54.992065 128.931838 
L 53.39884 131.11216 
L 49.834433 131.793463 
L 48.34898 134.981609 
L 45.841196 135.80686 
L 36.082505 135.070351 
L 33.728089 136.247371 
L 30.506594 135.715856 
L 17.839929 136.059522 
L 17.668661 140.196707 
L 18.663296 145.686701 
L 13.672598 143.806334 
L 10.255907 144.083302 
L 7.705164 145.917319 
L 4.426392 144.377604 
L 3.151962 141.96591 
L -0.127187 140.376077 
z
" clip-path="url(#p5bc9e0fac6)" style="fill: #e8edf4; stroke: #b8c5d4; stroke-width: 0.45"/>
    <path d="M 144.720247 176.245494 
L 145.28285 170.59271 
L 147.032835 169.268917 
L 150.700116 161.878961 
L 156.728973 161.330866 
L 158.073115 159.455209 
L 159.280846 159.59765 
L 161.102428 161.248906 
L 170.282689 158.459067 
L 177.18164 153.063091 
L 176.459639 150.496145 
L 178.515984 149.82577 
L 185.557752 150.278904 
L 192.420904 146.900649 
L 197.692715 138.944511 
L 201.392026 135.992447 
L 206.008158 134.749106 
L 206.834917 137.869611 
L 211.040684 142.428654 
L 211.062163 145.404081 
L 209.877419 148.438669 
L 210.345815 150.704907 
L 222.420862 158.938956 
L 222.487937 161.30901 
L 227.391965 165.106485 
L 230.431075 168.261846 
L 232.272253 172.636244 
L 237.723056 175.522174 
L 238.895742 177.83382 
L 236.488194 178.607446 
L 226.325921 177.672349 
L 223.615781 178.297129 
L 222.522229 180.070289 
L 220.16103 180.289037 
L 217.284332 178.746495 
L 209.165969 182.385891 
L 205.842731 181.653528 
L 204.841125 182.215565 
L 202.660803 186.619167 
L 191.886563 184.478035 
L 187.242169 181.788055 
L 181.241575 179.309851 
L 177.336892 181.658049 
L 174.497877 185.360376 
L 173.842198 190.445846 
L 169.152208 190.038872 
L 164.216527 188.813807 
L 159.87058 192.678169 
L 156.048046 199.46426 
L 154.953363 194.025138 
L 151.618444 191.678824 
L 148.926391 187.91564 
L 148.304626 185.297634 
L 144.858543 181.489608 
L 145.446016 179.316634 
z
" clip-path="url(#p5bc9e0fac6)" style="fill: #e8edf4; stroke: #b8c5d4; stroke-width: 0.45"/>
    <path d="M 120.177876 245.013799 
L 125.729669 240.988909 
L 122.979962 236.16703 
L 125.480586 234.333389 
L 130.400818 233.440309 
L 130.981131 230.20864 
L 134.877523 233.710494 
L 141.314861 234.017231 
L 143.552083 230.571524 
L 144.472672 225.723267 
L 143.677566 220.029787 
L 140.227714 215.717377 
L 143.384772 207.271929 
L 141.564697 205.822652 
L 136.139141 206.416908 
L 134.100883 202.649014 
L 134.631079 199.468217 
L 143.833573 199.754228 
L 155.523503 203.401726 
L 156.048046 199.46426 
L 159.87058 192.678169 
L 164.216527 188.813807 
L 169.152208 190.038872 
L 173.842198 190.445846 
L 173.409977 194.849824 
L 171.225888 198.749042 
L 169.800727 203.298475 
L 168.891821 209.760495 
L 169.273546 213.893157 
L 168.085034 216.423551 
L 167.903403 219.097893 
L 167.06534 221.424047 
L 162.264186 224.938713 
L 158.92286 228.694925 
L 155.756005 235.778898 
L 156.000189 241.778362 
L 145.618603 252.243227 
L 142.89452 250.951464 
L 142.427254 248.887205 
L 138.45512 248.815231 
L 135.961278 251.606766 
L 134.045489 250.86404 
L 131.312739 248.362285 
L 129.109431 249.588857 
L 126.166035 252.737247 
z
" clip-path="url(#p5bc9e0fac6)" style="fill: #e8edf4; stroke: #b8c5d4; stroke-width: 0.45"/>
    <path d="M 103.436955 224.103664 
L 103.670965 221.681043 
L 105.263059 219.349614 
L 108.504149 208.634159 
L 121.572889 208.287478 
L 121.509959 199.512305 
L 124.975261 199.03317 
L 129.406748 200.009905 
L 133.723302 199.070664 
L 134.631079 199.468217 
L 134.100883 202.649014 
L 136.139141 206.416908 
L 141.564697 205.822652 
L 143.384772 207.271929 
L 140.227714 215.717377 
L 143.677566 220.029787 
L 144.472672 225.723267 
L 143.552083 230.571524 
L 141.314861 234.017231 
L 134.877523 233.710494 
L 130.981131 230.20864 
L 130.400818 233.440309 
L 125.480586 234.333389 
L 122.979962 236.16703 
L 125.729669 240.988909 
L 120.177876 245.013799 
L 112.684292 237.653613 
L 107.86505 231.636438 
z
" clip-path="url(#p5bc9e0fac6)" style="fill: #e8edf4; stroke: #b8c5d4; stroke-width: 0.45"/>
    <path d="M 107.138528 207.534577 
L 109.643674 199.345936 
L 121.509959 199.512305 
L 121.572889 208.287478 
L 108.504149 208.634159 
z
" clip-path="url(#p5bc9e0fac6)" style="fill: #e8edf4; stroke: #b8c5d4; stroke-width: 0.45"/>
    <path d="M 198.888764 333.258413 
L 199.224517 310.056039 
L 214.408388 310.147985 
L 213.787 307.63078 
L 214.873392 304.899537 
L 213.591803 301.479454 
L 214.4212 297.942932 
L 213.650588 295.678955 
L 216.165909 295.86247 
L 216.584187 298.129085 
L 220.001632 297.953106 
L 224.631707 298.625743 
L 227.068647 301.936546 
L 232.90796 302.953602 
L 237.365824 300.651565 
L 239.002008 304.472592 
L 244.589976 305.491532 
L 250.271775 312.612057 
L 255.852584 312.672349 
L 255.242878 304.809099 
L 253.24155 306.135153 
L 246.173404 301.999853 
L 248.371436 286.046878 
L 246.739398 282.831035 
L 248.8176 278.17609 
L 250.772202 277.304489 
L 260.566691 276.073772 
L 263.439202 276.815734 
L 266.485395 278.672091 
L 274.026201 281.120617 
L 278.164516 283.309983 
L 281.606455 286.563131 
L 283.460821 292.752893 
L 282.218422 294.728974 
L 280.752565 300.64026 
L 282.153608 306.682306 
L 279.859108 309.220613 
L 277.645249 315.994834 
L 281.479841 317.883491 
L 259.351801 323.893883 
L 260.042902 329.083546 
L 254.519747 330.081761 
L 250.367866 332.986721 
L 249.481192 335.514854 
L 246.870911 336.088385 
L 240.529288 342.085588 
L 236.490832 346.80497 
L 234.028644 346.974166 
L 231.659909 346.134218 
L 223.509515 345.335721 
L 219.266442 342.541925 
L 214.537639 342.12214 
L 208.566814 343.779425 
L 203.808242 339.22434 
z
" clip-path="url(#p5bc9e0fac6)" style="fill: #e8edf4; stroke: #b8c5d4; stroke-width: 0.45"/>
    <path d="M 277.645249 315.994834 
L 279.859108 309.220613 
L 282.153608 306.682306 
L 280.752565 300.64026 
L 282.218422 294.728974 
L 283.460821 292.752893 
L 281.606455 286.563131 
L 278.164516 283.309983 
L 285.313237 284.670321 
L 289.252985 290.08722 
L 291.294679 300.004553 
L 289.25303 305.546549 
L 291.294679 315.026011 
L 293.826204 314.919746 
L 296.457211 317.27077 
L 299.511771 322.544465 
L 300.132028 331.920677 
L 296.975725 333.456247 
L 294.749807 338.515905 
L 289.991611 334.011314 
L 289.451995 328.871015 
L 290.986058 325.480702 
L 290.562881 322.558785 
L 287.683922 320.713463 
L 285.677695 321.383461 
L 281.479841 317.883491 
z
" clip-path="url(#p5bc9e0fac6)" style="fill: #e8edf4; stroke: #b8c5d4; stroke-width: 0.45"/>
    <path d="M 259.351801 323.893883 
L 281.479841 317.883491 
L 285.677695 321.383461 
L 287.683922 320.713463 
L 290.562881 322.558785 
L 290.986058 325.480702 
L 289.451995 328.871015 
L 289.991611 334.011314 
L 294.749807 338.515905 
L 296.975725 333.456247 
L 300.132028 331.920677 
L 299.511771 322.544465 
L 296.457211 317.27077 
L 293.826204 314.919746 
L 291.294679 315.026011 
L 289.25303 305.546549 
L 291.294679 300.004553 
L 296.781282 299.414819 
L 305.544019 301.469657 
L 307.447749 300.547938 
L 312.524029 300.359967 
L 315.122551 298.172571 
L 319.497172 298.292251 
L 327.470615 295.460585 
L 333.272087 291.232772 
L 334.451932 294.502124 
L 334.151978 301.766973 
L 335.052971 308.165497 
L 335.335968 319.561502 
L 336.618311 323.133069 
L 331.614424 333.407637 
L 326.971538 337.929562 
L 312.08536 344.240662 
L 303.846413 352.06736 
L 301.040558 353.398691 
L 295.950001 358.580063 
L 292.945559 360.265987 
L 292.329447 365.465448 
L 295.787589 370.987849 
L 297.226315 375.264459 
L 297.316885 377.44597 
L 298.605371 377.081367 
L 298.39674 384.233321 
L 297.214256 387.620996 
L 298.932964 388.869424 
L 297.848456 391.903259 
L 294.800302 394.497337 
L 280.015491 400.908673 
L 276.81736 403.604871 
L 277.442516 406.676765 
L 279.306302 407.167394 
L 278.680393 411.005378 
L 273.149701 410.944332 
L 270.821664 401.832653 
L 272.120964 393.702985 
L 266.730829 378.259104 
L 274.41358 369.982474 
L 276.336528 364.723475 
L 277.437994 364.059883 
L 278.261738 359.767068 
L 277.089805 357.607095 
L 277.402572 352.157799 
L 278.824341 347.104171 
L 278.808137 337.874922 
L 275.020648 335.531811 
L 271.548186 335.001992 
L 269.976441 333.197744 
L 266.597055 331.658782 
L 260.514689 331.803861 
z
" clip-path="url(#p5bc9e0fac6)" style="fill: #e8edf4; stroke: #b8c5d4; stroke-width: 0.45"/>
    <path d="M 262.976877 408.496086 
L 264.968032 405.758438 
L 265.656495 403.635017 
L 267.764466 403.115372 
L 271.444182 404.450848 
L 273.149701 410.944332 
L 271.665003 414.182784 
L 267.397059 414.969976 
L 263.045083 411.017436 
z
" clip-path="url(#p5bc9e0fac6)" style="fill: #e8edf4; stroke: #b8c5d4; stroke-width: 0.45"/>
    <path d="M 124.161692 337.581374 
L 125.171211 331.169284 
L 127.687286 324.493415 
L 128.066751 321.363866 
L 130.432848 314.790494 
L 132.171151 311.802256 
L 138.699304 303.78639 
L 139.465016 298.384573 
L 139.083291 294.251534 
L 136.902592 291.644644 
L 133.169366 282.845732 
L 133.56089 281.330133 
L 135.802257 278.439116 
L 132.096916 266.512915 
L 128.443955 261.899421 
L 129.137316 260.482175 
L 136.817052 258.762336 
L 158.335386 258.858803 
L 162.22688 268.665352 
L 166.695295 274.836272 
L 171.517175 274.246538 
L 173.923216 273.220814 
L 177.952628 274.250683 
L 180.874922 268.177737 
L 185.397601 267.892856 
L 185.790631 266.629355 
L 189.511045 266.601846 
L 188.876091 269.229085 
L 197.723992 269.165401 
L 197.857765 273.753648 
L 199.335681 276.567039 
L 198.261347 280.962727 
L 198.796441 285.447346 
L 201.22886 288.153341 
L 200.838844 296.830915 
L 210.329611 295.248995 
L 213.650588 295.678955 
L 214.4212 297.942932 
L 213.591803 301.479454 
L 214.873392 304.899537 
L 213.787 307.63078 
L 214.408388 310.147985 
L 199.224517 310.056039 
L 198.888764 333.258413 
L 203.808242 339.22434 
L 208.566814 343.779425 
L 195.164959 346.751084 
L 177.510987 345.718955 
L 172.458489 342.225014 
L 142.899418 342.539664 
L 141.796822 343.052149 
L 137.449745 339.754912 
L 132.722449 339.537106 
L 124.847894 342.166229 
z
" clip-path="url(#p5bc9e0fac6)" style="fill: #e8edf4; stroke: #b8c5d4; stroke-width: 0.45"/>
    <path d="M 126.166035 252.737247 
L 129.109431 249.588857 
L 131.312739 248.362285 
L 134.045489 250.86404 
L 131.391873 252.396596 
L 130.198838 254.27131 
L 129.970481 257.450224 
L 128.115738 258.220458 
z
" clip-path="url(#p5bc9e0fac6)" style="fill: #e8edf4; stroke: #b8c5d4; stroke-width: 0.45"/>
    <path d="M 250.93273 236.704008 
L 255.360825 237.277162 
L 257.593526 233.125282 
L 261.467898 233.601948 
L 261.890737 236.473303 
L 263.46108 238.126338 
L 263.528386 240.496254 
L 256.245615 248.467043 
L 253.230245 248.814101 
L 252.766371 240.019333 
z
" clip-path="url(#p5bc9e0fac6)" style="fill: #e8edf4; stroke: #b8c5d4; stroke-width: 0.45"/>
    <path d="M 289.146765 -11.653116 
L 291.268301 -14.055577 
L 290.770513 -14.469145 
L 292.699114 -17.877358 
L 294.17816 -23.378845 
L 295.221218 -25.224921 
L 297.862776 -25.286909 
L 298.534281 -26.564729 
L 300.490768 -26.660632 
L 300.602308 -23.675973 
L 298.482279 -20.218584 
L 295.84449 -21.228669 
L 294.31834 -16.372687 
L 296.150473 -15.554219 
L 294.288194 -14.551105 
L 293.97392 -12.630794 
L 297.402293 -13.619965 
L 297.572619 -10.783211 
L 293.938875 0.874877 
z
" clip-path="url(#p5bc9e0fac6)" style="fill: #e8edf4; stroke: #b8c5d4; stroke-width: 0.45"/>
    <path d="M 354.693199 376.843741 
L 355.999282 371.586627 
L 359.356434 370.323879 
L 359.376029 367.896736 
L 362.861303 362.368683 
L 363.518113 357.724289 
L 360.445088 349.673378 
L 359.862513 342.954174 
L 362.410241 338.874644 
L 363.387731 334.249468 
L 367.022228 333.980791 
L 373.789666 331.166646 
L 376.992696 331.068671 
L 381.148722 326.913399 
L 387.149693 322.422373 
L 389.337928 318.753962 
L 388.344989 315.637602 
L 391.442507 316.514102 
L 395.462122 311.446908 
L 395.596649 307.062148 
L 398.011357 303.800332 
L 402.491077 310.033052 
L 404.296079 314.849279 
L 405.469519 323.621814 
L 407.35893 327.032476 
L 406.633914 330.529431 
L 405.344412 332.674708 
L 402.867528 328.401489 
L 401.496631 330.559578 
L 402.8875 335.961771 
L 402.240111 339.053637 
L 400.227854 340.738054 
L 399.768502 346.914627 
L 388.79492 379.279929 
L 386.001878 389.419215 
L 382.706148 397.875592 
L 376.775643 399.60259 
L 370.409903 402.68692 
L 360.421348 398.216243 
L 358.409091 394.368462 
L 357.927883 387.903617 
L 355.360183 382.090305 
z
" clip-path="url(#p5bc9e0fac6)" style="fill: #e8edf4; stroke: #b8c5d4; stroke-width: 0.45"/>
    <path d="M -24.045533 16.228885 
L -23.970544 5.687901 
L -12.194698 0.30681 
L -4.912891 -0.805018 
L 1.055673 -2.764707 
L 3.844759 -6.416162 
L 12.37066 -9.302092 
L 12.683804 -14.700705 
L 16.902383 -15.336601 
L 20.201127 -18.033552 
L 29.744273 -19.262574 
L 31.081256 -22.096502 
L 29.159814 -23.646015 
L 26.641102 -31.344216 
L 26.206997 -35.779282 
L 23.458421 -40.449677 
L 30.468346 -44.434435 
L 38.352134 -45.701893 
L 42.955831 -48.710669 
L 49.978381 -50.93018 
L 74.398283 -52.821664 
L 78.076115 -51.738663 
L 84.943036 -54.612723 
L 92.735066 -54.669059 
L 95.700695 -52.972395 
L 100.687625 -53.415167 
L 99.206318 -49.67252 
L 100.362423 -42.721002 
L 98.645976 -36.70703 
L 94.150429 -32.639747 
L 94.793296 -27.146927 
L 100.756961 -22.802488 
L 100.819891 -21.03743 
L 105.315438 -18.09441 
L 108.425769 -5.004191 
L 110.784707 1.434089 
L 111.181129 4.822329 
L 109.896902 10.771299 
L 110.423706 14.095856 
L 109.497089 18.086831 
L 110.133173 22.671686 
L 107.239141 25.718899 
L 111.550796 31.033856 
L 111.824749 34.158507 
L 114.417697 38.224848 
L 117.826851 36.888807 
L 123.582508 40.27686 
L 126.782524 44.843439 
L 101.795497 58.742141 
L 80.682628 73.067034 
L 70.399771 76.318863 
L 62.310801 77.032762 
L 62.227145 72.393455 
L 54.310385 69.121843 
L 52.576603 65.704963 
z
" clip-path="url(#p5bc9e0fac6)" style="fill: #e8edf4; stroke: #b8c5d4; stroke-width: 0.45"/>
    <path d="M 293.938875 0.874877 
L 297.572619 -10.783211 
L 297.402293 -13.619965 
L 298.479265 -15.759589 
L 298.482279 -20.218584 
L 299.75294 -22.517041 
L 307.877332 -19.627531 
L 322.157195 -27.399024 
L 325.096823 -18.519659 
L 323.707085 -17.420078 
L 309.103151 -13.760899 
L 316.371015 -6.469483 
L 313.959321 -5.231041 
L 312.759504 -2.789013 
L 307.195275 -1.779116 
L 305.450189 0.846238 
L 302.29803 3.090432 
L 294.182682 1.930558 
z
" clip-path="url(#p5bc9e0fac6)" style="fill: #e8edf4; stroke: #b8c5d4; stroke-width: 0.45"/>
    <path d="M 415.401927 39.200641 
L 416.699343 38.846424 
L 416.968774 40.846245 
L 422.676197 39.696923 
L 433.110539 40.102954 
L 448.152723 26.002273 
L 449.539824 28.487824 
L 450.530125 34.247626 
L 446.806697 34.276077 
L 446.207918 39.024852 
L 447.499305 40.038893 
L 444.199053 41.474981 
L 444.178705 44.455495 
L 442.054153 47.473503 
L 441.863479 50.40974 
L 440.393853 51.951151 
L 418.473445 48.274449 
z
" clip-path="url(#p5bc9e0fac6)" style="fill: #e8edf4; stroke: #b8c5d4; stroke-width: 0.45"/>
    <path d="M 409.308633 30.180908 
L 411.27341 26.355736 
L 413.264941 25.571182 
L 415.47164 27.857016 
L 415.600138 32.12609 
L 414.017088 36.415889 
L 411.995787 36.934026 
L 409.791349 35.487199 
z
" clip-path="url(#p5bc9e0fac6)" style="fill: #e8edf4; stroke: #b8c5d4; stroke-width: 0.45"/>
    <path d="M 378.862889 3.808476 
L 384.214587 -3.192218 
L 389.114093 -2.585149 
L 390.63572 0.633143 
L 389.98494 2.297023 
L 392.33408 7.797379 
L 387.176825 7.986546 
L 385.360895 4.512201 
z
" clip-path="url(#p5bc9e0fac6)" style="fill: #e8edf4; stroke: #b8c5d4; stroke-width: 0.45"/>
    <path d="M 322.157195 -27.399024 
L 338.300467 -34.987757 
L 341.05545 -43.803438 
L 340.368117 -49.130266 
L 344.35947 -50.931688 
L 348.096841 -55.482063 
L 351.229028 -56.615182 
L 359.710652 -55.674245 
L 362.271569 -53.816864 
L 365.766103 -55.048656 
L 370.490921 -46.350036 
L 375.27248 -44.161235 
L 375.822648 -39.90177 
L 372.152352 -37.385131 
L 370.462282 -31.694853 
L 375.513273 -24.763684 
L 384.44822 -20.766679 
L 388.200287 -15.224872 
L 387.004991 -9.943075 
L 389.33416 -9.945147 
L 389.406134 -6.060814 
L 393.441575 -2.22754 
L 384.214587 -3.192218 
L 378.862889 3.808476 
L 365.305404 3.22609 
L 344.745341 -11.439078 
L 333.880285 -16.54339 
L 325.096823 -18.519659 
z
" clip-path="url(#p5bc9e0fac6)" style="fill: #e8edf4; stroke: #b8c5d4; stroke-width: 0.45"/>
    <path d="M 418.468169 77.45104 
L 440.344112 70.159059 
L 445.205558 55.574909 
L 441.863479 50.40974 
L 442.054153 47.473503 
L 444.178705 44.455495 
L 444.199053 41.474981 
L 447.499305 40.038893 
L 446.207918 39.024852 
L 446.806697 34.276077 
L 450.530125 34.247626 
L 453.7991 39.228527 
L 457.87034 41.876114 
L 467.537839 44.15799 
L 472.794577 50.760189 
L 475.404858 51.683792 
L 475.390915 53.310555 
L 471.571773 59.70305 
L 468.499878 62.035421 
L 465.77881 67.030829 
L 462.470645 66.64835 
L 460.954293 68.38703 
L 459.783114 72.08408 
L 460.679586 76.958339 
L 459.991876 77.854245 
L 456.636608 77.830317 
L 452.081899 80.55553 
L 451.371203 84.107879 
L 449.703743 85.646841 
L 445.167876 85.588056 
L 442.312657 87.424334 
L 442.348832 90.369992 
L 438.820223 92.394684 
L 434.796841 91.707163 
L 429.920321 94.166901 
L 426.551864 94.579715 
z
" clip-path="url(#p5bc9e0fac6)" style="fill: #e8edf4; stroke: #b8c5d4; stroke-width: 0.45"/>
    <path d="M 448.152723 26.002273 
L 450.276144 23.519547 
L 451.177891 24.152617 
L 450.490558 27.165161 
L 449.539824 28.487824 
z
" clip-path="url(#p5bc9e0fac6)" style="fill: #e8edf4; stroke: #b8c5d4; stroke-width: 0.45"/>
    <path d="M 360.92818 -71.511911 
L 365.921516 -73.58917 
L 367.078752 -70.838332 
L 370.761483 -67.472136 
L 375.763109 -66.502748 
L 378.403536 -66.717163 
L 387.003484 -72.096935 
L 389.738118 -72.635609 
L 391.892439 -70.495608 
L 389.378248 -66.887866 
L 393.925798 -63.069477 
L 395.740597 -63.433115 
L 398.047532 -58.056169 
L 404.961556 -56.537179 
L 410.026489 -52.878376 
L 420.393379 -51.621281 
L 431.781847 -53.550824 
L 432.480484 -55.256344 
L 438.888052 -56.667373 
L 444.0747 -60.836211 
L 448.951596 -60.624811 
L 452.152743 -61.983084 
L 457.337883 -61.311013 
L 465.400853 -57.614528 
L 471.224338 -56.81735 
L 479.558246 -50.359476 
L 484.993977 -50.098523 
L 485.633829 -43.962082 
L 480.657828 -29.570302 
L 483.831842 -28.493896 
L 480.713598 -24.501036 
L 483.102305 -18.679434 
L 483.673198 -14.050113 
L 489.195976 -12.820903 
L 489.793247 -8.127334 
L 483.179555 -1.516279 
L 486.789558 2.319067 
L 489.725041 6.723045 
L 496.695965 9.929278 
L 496.897191 16.351543 
L 500.386233 17.531953 
L 500.989533 20.890048 
L 490.471159 24.656812 
L 487.723336 33.128261 
L 466.054271 29.250899 
L 457.825121 28.303367 
L 454.715167 19.361826 
L 451.224994 18.069686 
L 445.621575 19.372565 
L 438.266664 22.901739 
L 429.355834 20.482886 
L 421.994517 14.879091 
L 414.973475 12.80202 
L 410.103738 5.883098 
L 404.722648 -3.839041 
L 400.79837 -2.657312 
L 396.164151 -5.073715 
L 393.441575 -2.22754 
L 389.406134 -6.060814 
L 389.33416 -9.945147 
L 387.004991 -9.943075 
L 388.200287 -15.224872 
L 384.44822 -20.766679 
L 375.513273 -24.763684 
L 370.462282 -31.694853 
L 372.152352 -37.385131 
L 375.822648 -39.90177 
L 375.27248 -44.161235 
L 370.490921 -46.350036 
L 365.766052 -55.048751 
L 361.777925 -60.890662 
L 363.204593 -63.148987 
z
" clip-path="url(#p5bc9e0fac6)" style="fill: #e8edf4; stroke: #b8c5d4; stroke-width: 0.45"/>
    <path d="M 304.152246 107.913673 
L 307.292713 97.198955 
L 308.012001 92.352003 
L 310.308559 90.116333 
L 315.679372 88.91752 
L 319.369805 84.755456 
L 323.60308 93.197325 
L 325.611945 99.890716 
L 329.609327 103.4425 
L 339.562838 110.330334 
L 349.846826 121.200288 
L 353.431959 123.39361 
L 351.232796 125.174495 
L 348.111198 124.541441 
L 345.618703 122.181807 
L 342.620285 117.906698 
L 339.387282 115.5642 
L 337.501558 113.046182 
L 331.154923 110.122435 
L 326.155203 110.035222 
L 324.396288 108.510528 
L 320.119865 110.225399 
L 315.694466 106.9151 
L 313.417159 112.357375 
L 304.927318 110.833264 
z
" clip-path="url(#p5bc9e0fac6)" style="fill: #e8edf4; stroke: #b8c5d4; stroke-width: 0.45"/>
    <path d="M 349.958367 105.06361 
L 351.417818 104.709016 
L 350.669816 101.377111 
L 351.553853 99.970792 
L 351.230535 96.790372 
L 354.432058 94.464218 
L 353.684056 91.390251 
L 355.616426 87.805872 
L 358.611447 89.701877 
L 360.588282 89.042807 
L 369.003585 88.875307 
L 370.340567 89.604467 
L 377.389495 90.333816 
L 380.184798 89.969048 
L 382.007887 92.399771 
L 385.411013 91.184315 
L 390.636851 83.527754 
L 397.442725 80.246344 
L 418.468169 77.45104 
L 426.551864 94.579715 
L 421.277038 96.538651 
L 419.866198 99.776161 
L 419.694365 102.262843 
L 412.434037 105.341332 
L 400.78179 108.74295 
L 394.252884 113.887959 
L 391.042317 114.289845 
L 388.854459 113.858566 
L 384.592544 116.884864 
L 379.944759 118.288734 
L 371.981649 119.081766 
L 370.387671 121.007164 
L 368.476404 121.539244 
L 367.34743 123.393987 
L 363.73818 123.233082 
L 361.408635 124.22263 
L 356.361413 123.851832 
L 354.464842 119.592179 
L 354.673227 115.606102 
L 353.480946 113.454608 
L 352.053902 108.06127 
z
" clip-path="url(#p5bc9e0fac6)" style="fill: #e8edf4; stroke: #b8c5d4; stroke-width: 0.45"/>
    <path d="M 291.822237 11.395701 
L 294.182682 1.930558 
L 302.29803 3.090432 
L 305.450189 0.846238 
L 307.195275 -1.779116 
L 312.759504 -2.789013 
L 313.959321 -5.231041 
L 316.371015 -6.469483 
L 309.103151 -13.760899 
L 323.707085 -17.420078 
L 325.096823 -18.519659 
L 333.880285 -16.54339 
L 344.745341 -11.439078 
L 365.305404 3.22609 
L 385.360895 4.512201 
L 387.176825 7.986546 
L 392.33408 7.797379 
L 395.188922 14.08587 
L 398.776316 15.751445 
L 400.025875 18.312551 
L 404.99547 21.377662 
L 405.436735 24.386627 
L 404.710212 26.815277 
L 405.633062 29.264842 
L 407.729728 31.308375 
L 409.791349 35.487199 
L 411.995787 36.934026 
L 414.017088 36.415889 
L 418.473445 48.274449 
L 440.393853 51.951151 
L 441.863479 50.40974 
L 445.205558 55.574909 
L 440.344112 70.159059 
L 418.468169 77.45104 
L 397.442725 80.246344 
L 390.636851 83.527754 
L 385.411013 91.184315 
L 382.007887 92.399771 
L 380.184798 89.969048 
L 377.389495 90.333816 
L 370.340567 89.604467 
L 369.003585 88.875307 
L 360.588282 89.042807 
L 358.611447 89.701877 
L 355.616426 87.805872 
L 353.684056 91.390251 
L 354.432058 94.464218 
L 351.230535 96.790372 
L 350.284322 93.678534 
L 348.085159 91.482385 
L 347.522933 88.573469 
L 343.756547 85.96055 
L 339.869952 79.845776 
L 337.81323 73.90359 
L 332.769399 68.885572 
L 329.517381 67.688016 
L 324.687965 60.738382 
L 323.84425 55.670623 
L 324.155132 51.348039 
L 319.972728 43.262649 
L 316.553399 40.417039 
L 312.614049 38.908977 
L 310.216298 34.730718 
L 310.614981 33.082288 
L 308.588782 29.301959 
L 306.459332 27.673878 
L 303.612026 22.249263 
L 295.452589 11.360656 
z
" clip-path="url(#p5bc9e0fac6)" style="fill: #e8edf4; stroke: #b8c5d4; stroke-width: 0.45"/>
    <path d="M 219.395664 -3.083712 
L 221.273732 -7.585896 
L 220.145287 -10.704633 
L 222.784644 -14.203796 
L 232.486789 -14.324333 
L 250.120422 -9.105924 
L 255.734498 -11.416118 
L 258.735978 -13.505582 
L 265.166836 -14.106884 
L 270.351702 -13.18619 
L 272.338421 -9.569334 
L 274.030614 -11.951938 
L 279.874827 -10.229046 
L 285.558833 -9.816243 
L 289.146813 -11.65311 
L 293.938856 0.874849 
L 291.890811 3.805597 
L 290.321635 9.31423 
L 288.337906 13.111127 
L 286.637765 14.384319 
L 280.916423 8.777097 
L 275.713327 -1.675545 
L 274.963923 -1.01452 
L 277.985457 6.68005 
L 282.462338 14.011039 
L 287.973595 25.36928 
L 293.008901 33.452663 
L 299.552349 41.525253 
L 298.103491 42.796549 
L 298.338733 47.53587 
L 308.111902 55.574917 
L 221.582769 55.574917 
L 221.582769 2.790292 
z
" clip-path="url(#p5bc9e0fac6)" style="fill: #e8edf4; stroke: #b8c5d4; stroke-width: 0.45"/>
    <path d="M 107.239141 25.718899 
L 110.133173 22.671686 
L 109.497089 18.086831 
L 110.423706 14.095856 
L 109.896902 10.771299 
L 111.181129 4.822329 
L 110.784707 1.434089 
L 108.425769 -5.004191 
L 111.983394 -6.69426 
L 112.614579 -9.775198 
L 111.839069 -12.795844 
L 116.846347 -15.605844 
L 119.091483 -17.942172 
L 122.646093 -20.035635 
L 123.058342 -25.636604 
L 131.623018 -23.126566 
L 134.685314 -23.753974 
L 140.777238 -22.537223 
L 150.453422 -19.278552 
L 153.868362 -12.797232 
L 170.692213 -8.329467 
L 178.460579 -4.704006 
L 182.016401 -6.595782 
L 185.511553 -9.949687 
L 183.81236 -15.535616 
L 186.099438 -19.082541 
L 191.353724 -22.499596 
L 196.374009 -23.494231 
L 206.238547 -22.002132 
L 208.725427 -18.74193 
L 211.440476 -18.711084 
L 213.762046 -17.467134 
L 221.007718 -16.611703 
L 222.784644 -14.203796 
L 220.145287 -10.704633 
L 221.273732 -7.585896 
L 219.395664 -3.083712 
L 221.582769 2.790292 
L 221.582769 70.136848 
L 213.196912 70.159016 
L 213.106928 73.218249 
L 154.939637 45.295169 
L 142.419341 51.992414 
L 138.317955 47.987495 
L 126.782524 44.843439 
L 123.582508 40.27686 
L 117.826851 36.888807 
L 114.417697 38.224848 
L 111.824749 34.158507 
L 111.550796 31.033856 
z
" clip-path="url(#p5bc9e0fac6)" style="fill: #e8edf4; stroke: #b8c5d4; stroke-width: 0.45"/>
    <path d="M 279.585041 159.231616 
L 282.068859 155.077991 
L 285.938749 154.898753 
L 287.028765 152.671761 
L 286.931343 146.116063 
L 289.08855 138.48486 
L 292.542793 136.442503 
L 293.275499 133.461587 
L 296.402767 127.89119 
L 300.800893 124.278563 
L 303.765768 117.09553 
L 304.927318 110.833264 
L 313.417159 112.357375 
L 315.694466 106.9151 
L 320.119865 110.225399 
L 324.396288 108.510528 
L 326.155203 110.035222 
L 331.154923 110.122435 
L 337.501558 113.046182 
L 339.387282 115.5642 
L 342.620285 117.906698 
L 345.618703 122.181807 
L 348.111198 124.541441 
L 343.081143 131.184717 
L 343.76521 135.41622 
L 347.83833 135.53807 
L 349.594182 135.020991 
L 351.212447 136.320664 
L 349.622111 138.904226 
L 355.00532 146.43035 
L 357.789133 149.032883 
L 381.631144 157.686357 
L 387.764341 157.64173 
L 367.158323 179.527941 
L 357.658751 179.849301 
L 351.160077 184.989904 
L 346.485436 185.124516 
L 344.490864 187.423101 
L 339.50833 187.421803 
L 336.567301 184.957601 
L 329.905722 188.007354 
L 327.750515 191.04617 
L 322.887635 190.472432 
L 321.273395 189.63144 
L 317.261127 189.758795 
L 308.030692 183.565956 
L 302.955319 183.565956 
L 300.46413 181.166131 
L 300.46413 177.073349 
L 296.676343 175.849977 
L 292.366836 167.914623 
L 289.036557 166.223962 
L 287.758845 163.308017 
L 284.063161 159.753945 
z
" clip-path="url(#p5bc9e0fac6)" style="fill: #e8edf4; stroke: #b8c5d4; stroke-width: 0.45"/>
    <path d="M 343.081143 131.184717 
L 348.111198 124.541441 
L 351.232796 125.174495 
L 353.431959 123.39361 
L 355.15745 125.650428 
L 354.927962 128.678233 
L 350.767791 130.423131 
L 353.899224 132.418242 
L 351.212447 136.320664 
L 349.594182 135.020991 
L 347.83833 135.53807 
L 343.76521 135.41622 
z
" clip-path="url(#p5bc9e0fac6)" style="fill: #e8edf4; stroke: #b8c5d4; stroke-width: 0.45"/>
    <path d="M 349.622111 138.904226 
L 353.899224 132.418242 
L 356.271728 133.762385 
L 357.701033 136.777943 
L 360.990733 139.83062 
L 364.610911 139.854925 
L 371.484991 137.989442 
L 379.4221 137.125189 
L 385.840973 134.859705 
L 389.457382 134.379627 
L 392.062011 133.049428 
L 396.214257 132.793217 
L 396.140787 147.077381 
L 387.764341 157.64173 
L 381.631144 157.686357 
L 357.789133 149.032883 
L 355.00532 146.43035 
z
" clip-path="url(#p5bc9e0fac6)" style="fill: #e8edf4; stroke: #b8c5d4; stroke-width: 0.45"/>
    <path d="M 254.976461 225.780922 
L 255.037507 220.283391 
L 256.726823 217.497132 
L 257.137188 211.643877 
L 258.671251 208.253563 
L 261.459395 204.450813 
L 264.260727 202.51411 
L 266.604969 199.924931 
L 263.682298 198.937456 
L 264.123508 190.410948 
L 267.1257 188.422199 
L 271.762641 190.05292 
L 277.632522 188.346216 
L 282.763062 188.363133 
L 287.247672 185.00963 
L 290.705051 190.07239 
L 294.765702 202.102521 
L 292.112198 207.417696 
L 286.435111 215.199234 
L 286.509069 222.927447 
L 263.656872 223.398149 
L 256.74152 226.524778 
z
" clip-path="url(#p5bc9e0fac6)" style="fill: #e8edf4; stroke: #b8c5d4; stroke-width: 0.45"/>
    <path d="M 250.93273 236.704008 
L 251.607627 232.714917 
L 252.609234 232.152691 
L 252.879419 227.813527 
L 254.976461 225.780922 
L 256.74152 226.524778 
L 261.099148 224.27399 
L 263.994311 228.388565 
L 263.572641 232.678741 
L 261.467898 233.601948 
L 257.593526 233.125282 
L 255.360825 237.277162 
z
" clip-path="url(#p5bc9e0fac6)" style="fill: #e8edf4; stroke: #b8c5d4; stroke-width: 0.45"/>
    <path d="M 213.466569 153.144507 
L 218.209577 150.972877 
L 220.087357 144.46324 
L 222.090322 141.083237 
L 227.348106 140.081754 
L 232.355519 146.34102 
L 234.358484 146.966947 
L 236.987376 145.715094 
L 242.245159 145.965464 
L 243.246642 147.467688 
L 250.50739 147.467688 
L 250.757761 145.965464 
L 254.513321 144.588426 
L 255.264433 142.460275 
L 258.01851 140.958051 
L 264.152591 145.214352 
L 267.90815 144.46324 
L 271.538525 139.205457 
L 275.544455 135.199526 
L 274.918528 130.81804 
L 273.165934 128.68989 
L 277.54742 128.314334 
L 278.048161 126.686925 
L 281.428165 127.187666 
L 280.551868 132.570635 
L 281.428165 137.828418 
L 285.183725 140.707681 
L 286.060022 143.211387 
L 285.934837 146.841761 
L 286.94427 146.985966 
L 287.028765 152.671761 
L 285.938749 154.898753 
L 282.068859 155.077991 
L 279.585041 159.231616 
L 284.063161 159.753945 
L 287.758845 163.308017 
L 289.036557 166.223962 
L 292.366836 167.914623 
L 296.676343 175.849977 
L 287.247672 185.00963 
L 282.763062 188.363133 
L 277.632522 188.346216 
L 271.762641 190.05292 
L 267.1257 188.422199 
L 264.123508 190.410948 
L 257.703936 185.565181 
L 255.972039 182.450705 
L 251.910973 183.993247 
L 248.539124 183.513358 
L 246.58716 184.737857 
L 243.312909 183.853633 
L 237.723056 175.522174 
L 232.272253 172.636244 
L 230.431075 168.261846 
L 227.391965 165.106485 
L 222.487937 161.30901 
L 222.420862 158.938956 
z
" clip-path="url(#p5bc9e0fac6)" style="fill: #e8edf4; stroke: #b8c5d4; stroke-width: 0.45"/>
   </g>
   <g id="PathCollection_1">
    <defs>
     <path id="m6043bdba07" d="M 0 2.12132 
C 0.562581 2.12132 1.102195 1.897805 1.5 1.5 
C 1.897805 1.102195 2.12132 0.562581 2.12132 0 
C 2.12132 -0.562581 1.897805 -1.102195 1.5 -1.5 
C 1.102195 -1.897805 0.562581 -2.12132 0 -2.12132 
C -0.562581 -2.12132 -1.102195 -1.897805 -1.5 -1.5 
C -1.897805 -1.102195 -2.12132 -0.562581 -2.12132 0 
C -2.12132 0.562581 -1.897805 1.102195 -1.5 1.5 
C -1.102195 1.897805 -0.562581 2.12132 0 2.12132 
z
" style="stroke: #ffffff; stroke-width: 0.5"/>
    </defs>
    <g clip-path="url(#p5bc9e0fac6)">
     <use xlink:href="#m6043bdba07" x="407.894626" y="26.40672" style="fill: #8aa0b7; stroke: #ffffff; stroke-width: 0.5"/>
     <use xlink:href="#m6043bdba07" x="258.043015" y="241.522172" style="fill: #8aa0b7; stroke: #ffffff; stroke-width: 0.5"/>
     <use xlink:href="#m6043bdba07" x="352.839655" y="132.141434" style="fill: #8aa0b7; stroke: #ffffff; stroke-width: 0.5"/>
     <use xlink:href="#m6043bdba07" x="112.20203" y="201.415902" style="fill: #8aa0b7; stroke: #ffffff; stroke-width: 0.5"/>
     <use xlink:href="#m6043bdba07" x="361.954716" y="304.719932" style="fill: #8aa0b7; stroke: #ffffff; stroke-width: 0.5"/>
     <use xlink:href="#m6043bdba07" x="372.89279" y="0.884548" style="fill: #8aa0b7; stroke: #ffffff; stroke-width: 0.5"/>
     <use xlink:href="#m6043bdba07" x="247.104941" y="431.115452" style="fill: #8aa0b7; stroke: #ffffff; stroke-width: 0.5"/>
     <use xlink:href="#m6043bdba07" x="412.999061" y="30.052745" style="fill: #8aa0b7; stroke: #ffffff; stroke-width: 0.5"/>
     <use xlink:href="#m6043bdba07" x="258.043015" y="230.584098" style="fill: #8aa0b7; stroke: #ffffff; stroke-width: 0.5"/>
     <use xlink:href="#m6043bdba07" x="90.325883" y="208.707951" style="fill: #8aa0b7; stroke: #ffffff; stroke-width: 0.5"/>
     <use xlink:href="#m6043bdba07" x="268.981089" y="409.239304" style="fill: #8aa0b7; stroke: #ffffff; stroke-width: 0.5"/>
     <use xlink:href="#m6043bdba07" x="47.788929" y="157.663606" style="fill: #8aa0b7; stroke: #ffffff; stroke-width: 0.5"/>
     <use xlink:href="#m6043bdba07" x="368.639095" y="309.581298" style="fill: #8aa0b7; stroke: #ffffff; stroke-width: 0.5"/>
    </g>
   </g>
   <g id="PatchCollection_2">
    <defs>
     <path id="mcd277880d9" d="M 128.115738 -173.779542 
L 129.970481 -174.549776 
L 130.198838 -177.72869 
L 131.391873 -179.603404 
L 134.045489 -181.13596 
L 135.961278 -180.393234 
L 138.45512 -183.184769 
L 142.427254 -183.112795 
L 142.89452 -181.048536 
L 145.618603 -179.756773 
L 156.000189 -190.221638 
L 155.756005 -196.221102 
L 158.92286 -203.305075 
L 162.264186 -207.061287 
L 167.06534 -210.575953 
L 167.903403 -212.902107 
L 168.085034 -215.576449 
L 169.273546 -218.106843 
L 168.891821 -222.239505 
L 169.800727 -228.701525 
L 171.225888 -233.250958 
L 173.409977 -237.150176 
L 174.497877 -246.639624 
L 177.336892 -250.341951 
L 181.241575 -252.690149 
L 187.242169 -250.211945 
L 191.886563 -247.521965 
L 202.660803 -245.380833 
L 204.841125 -249.784435 
L 205.842731 -250.346472 
L 209.165969 -249.614109 
L 217.284332 -253.253505 
L 220.16103 -251.710963 
L 222.522229 -251.929711 
L 223.615781 -253.702871 
L 226.325921 -254.327651 
L 236.488194 -253.392554 
L 238.895742 -254.16618 
L 243.312909 -248.146367 
L 246.58716 -247.262143 
L 248.539124 -248.486642 
L 251.910973 -248.006753 
L 255.972039 -249.549295 
L 257.703936 -246.434819 
L 264.123562 -241.589011 
L 263.682298 -233.062544 
L 266.604969 -232.075069 
L 264.260727 -229.48589 
L 261.459395 -227.549187 
L 258.671251 -223.746437 
L 257.137188 -220.356123 
L 256.726823 -214.502868 
L 255.037507 -211.716609 
L 254.976461 -206.219078 
L 252.879419 -204.186473 
L 252.609234 -199.847309 
L 251.607627 -199.285083 
L 250.93273 -195.295992 
L 252.766371 -191.980667 
L 253.230245 -183.185899 
L 254.542734 -176.477247 
L 253.813573 -172.685236 
L 255.272271 -168.455729 
L 259.501401 -164.37243 
L 263.439244 -155.184255 
L 260.566691 -155.926228 
L 250.772202 -154.695511 
L 248.8176 -153.82391 
L 246.739398 -149.168965 
L 248.371436 -145.953122 
L 246.173404 -130.000147 
L 253.24155 -125.864847 
L 255.242878 -127.190901 
L 255.852584 -119.327651 
L 250.271775 -119.387943 
L 244.589976 -126.508468 
L 239.002008 -127.527408 
L 237.365824 -131.348435 
L 232.90796 -129.046398 
L 227.068647 -130.063454 
L 224.631707 -133.374257 
L 220.001632 -134.046894 
L 216.584187 -133.870915 
L 216.165909 -136.13753 
L 210.329611 -136.751005 
L 200.838844 -135.169085 
L 201.22886 -143.846659 
L 198.796441 -146.552654 
L 198.261347 -151.037273 
L 199.335681 -155.432961 
L 197.857765 -158.246352 
L 197.723992 -162.834599 
L 188.876091 -162.770915 
L 189.511045 -165.398154 
L 185.790631 -165.370645 
L 185.397601 -164.107144 
L 180.874922 -163.822263 
L 177.952628 -157.749317 
L 173.923216 -158.779186 
L 171.517175 -157.753462 
L 166.695295 -157.163728 
L 162.22688 -163.334648 
L 158.335386 -173.141197 
L 136.817052 -173.237664 
L 129.137316 -171.517825 
z
" style="stroke: #b45309; stroke-width: 1.15"/>
    </defs>
    <g clip-path="url(#p5bc9e0fac6)">
     <use xlink:href="#mcd277880d9" x="0" y="432" style="fill: #f59e0b; stroke: #b45309; stroke-width: 1.15"/>
    </g>
   </g>
   <g id="PathCollection_2">
    <path d="M 221.582769 220.135215 
C 222.67944 220.135215 223.731343 219.699502 224.506807 218.924038 
C 225.282271 218.148574 225.717983 217.096672 225.717983 216 
C 225.717983 214.903328 225.282271 213.851426 224.506807 213.075962 
C 223.731343 212.300498 222.67944 211.864785 221.582769 211.864785 
C 220.486097 211.864785 219.434194 212.300498 218.65873 213.075962 
C 217.883266 213.851426 217.447554 214.903328 217.447554 216 
C 217.447554 217.096672 217.883266 218.148574 218.65873 218.924038 
C 219.434194 219.699502 220.486097 220.135215 221.582769 220.135215 
L 221.582769 220.135215 
z
" clip-path="url(#p5bc9e0fac6)" style="fill: none; stroke: #7c2d12; stroke-width: 1.1"/>
   </g>
  </g>
 </g>
 <defs>
  <clipPath id="p5bc9e0fac6">
   <rect x="0" y="0" width="443.165537" height="432"/>
  </clipPath>
 </defs>
</svg>
