<?xml version="1.0" encoding="utf-8" standalone="no"?>
<!DOCTYPE svg PUBLIC "-//W3C//DTD SVG 1.1//EN"
  "http://www.w3.org/Graphics/SVG/1.1/DTD/svg11.dtd">
<svg xmlns:xlink="http://www.w3.org/1999/xlink" width="504.467099pt" height="432pt" viewBox="0 0 504.467099 432" xmlns="http://www.w3.org/2000/svg" version="1.1">
 <metadata>
  <rdf:RDF xmlns:dc="http://purl.org/dc/elements/1.1/" xmlns:cc="http://creativecommons.org/ns#" xmlns:rdf="http://www.w3.org/1999/02/22-rdf-syntax-ns#">
   <cc:Work>
    <dc:type rdf:resource="http://purl.org/dc/dcmitype/StillImage"/>
    <dc:date>2026-06-09T04:57:23.416740</dc:date>
    <dc:format>image/svg+xml</dc:format>
    <dc:creator>
     <cc:Agent>
      <dc:title>Matplotlib v3.10.8, https://matplotlib.org/</dc:title>
     </cc:Agent>
    </dc:creator>
   </cc:Work>
  </rdf:RDF>
 </metadata>
 <defs>
  <style type="text/css">*{stroke-linejoin: round; stroke-linecap: butt}</style>
 </defs>
 <g id="figure_1">
  <g id="patch_1">
   <path d="M 0 432 
L 504.467099 432 
L 504.467099 0 
L 0 0 
z
" style="fill: #eaf3ff"/>
  </g>
  <g id="axes_1">
   <g id="PatchCollection_1">
    <path d="M 62.137506 115.907122 
L 67.104283 115.335465 
L 79.100121 102.206356 
L 78.989258 98.302741 
L 76.402663 95.57994 
L 75.706138 90.85008 
L 79.173016 89.329716 
L 79.86757 82.263138 
L 75.098794 75.485804 
L 79.311757 74.043158 
L 116.952824 73.267841 
L 162.534775 99.055598 
L 163.354054 106.02361 
L 180.593857 118.030528 
L 175.048562 132.830391 
L 175.759981 139.637214 
L 183.449861 144.013346 
L 183.810195 147.136237 
L 180.503413 154.389754 
L 181.192131 158.040053 
L 180.405282 163.777766 
L 189.570729 183.150384 
L 193.97869 185.777216 
L 184.422762 192.741024 
L 171.28928 197.405211 
L 164.083609 197.20808 
L 159.803446 200.811056 
L 151.442036 201.120672 
L 148.306301 202.638885 
L 133.872731 199.254252 
L 124.835457 200.225635 
L 121.472475 183.890269 
L 114.983106 174.967807 
L 103.208068 172.727121 
L 96.39163 169.120901 
L 83.970767 165.087804 
L 78.953222 162.030099 
L 72.467061 146.895786 
L 65.501035 140.169969 
L 63.098337 133.203323 
L 64.299376 126.9573 
z
" clip-path="url(#p51878b29c2)" style="fill: #e8edf4; stroke: #b8c5d4; stroke-width: 0.45"/>
    <path d="M -143.94524 131.400834 
L -140.890195 130.132139 
L -140.514055 124.895983 
L -138.548945 121.80804 
L -134.178032 119.283686 
L -131.022435 120.50707 
L -126.914696 115.908984 
L -120.371982 116.027537 
L -119.602324 119.427687 
L -115.115343 121.555419 
L -98.015281 104.318184 
L -98.417489 94.436148 
L -93.201194 82.767761 
L -87.697519 76.580704 
L -79.789284 70.791511 
L -78.408865 66.95998 
L -78.109691 62.554929 
L -76.152029 58.386983 
L -76.78079 51.579855 
L -75.283681 40.93592 
L -72.936224 33.442307 
L -69.338694 27.019697 
L -67.546757 11.389123 
L -62.870464 5.290825 
L -56.438854 1.422984 
L -46.554957 5.504964 
L -38.904929 9.935773 
L -21.158106 13.462545 
L -17.566783 6.209139 
L -15.916984 5.283377 
L -10.443102 6.489692 
L 2.929085 0.495049 
L 7.667447 3.035852 
L 11.556702 2.67554 
L 13.35795 -0.245126 
L 17.821966 -1.274233 
L 34.560785 0.266014 
L 38.526386 -1.008266 
L 45.802136 8.907287 
L 51.195328 10.36374 
L 54.410512 8.346802 
L 59.964464 9.137253 
L 66.65366 6.596451 
L 69.50636 11.726469 
L 80.080467 19.708257 
L 79.353637 33.752653 
L 84.167724 35.379176 
L 80.306399 39.64395 
L 75.692176 42.833996 
L 71.099676 49.097708 
L 68.57284 54.682073 
L 67.896906 64.32328 
L 65.114344 68.912676 
L 65.013792 77.967951 
L 61.559642 81.315963 
L 61.114606 88.46323 
L 59.464807 89.389302 
L 58.353147 95.959947 
L 61.373434 101.420794 
L 62.137506 115.907122 
L 64.299376 126.9573 
L 63.098337 133.203323 
L 65.501035 140.169969 
L 72.467061 146.895786 
L 78.953291 162.030117 
L 74.221757 160.807975 
L 58.088733 162.835154 
L 54.869204 164.270815 
L 51.446088 171.938222 
L 54.134305 177.235206 
L 50.513809 203.512198 
L 62.156127 210.323671 
L 65.452621 208.139456 
L 66.456901 221.091434 
L 57.264454 220.992124 
L 47.905661 209.263529 
L 38.701421 207.585178 
L 36.006377 201.291363 
L 28.663592 205.083169 
L 19.04535 203.407922 
L 15.031335 197.954523 
L 7.404894 196.846588 
L 1.775839 197.136451 
L 1.086871 193.402989 
L -8.526405 192.392503 
L -24.159151 194.998167 
L -23.516735 180.704874 
L -27.523301 176.247686 
L -28.404684 168.860831 
L -26.635091 161.62046 
L -29.069445 156.986375 
L -29.289791 149.42883 
L -43.863636 149.533727 
L -42.817771 145.206263 
L -48.945862 145.251573 
L -49.593243 147.332753 
L -57.042788 147.801996 
L -61.856253 157.805067 
L -68.493312 156.108716 
L -72.45643 157.79824 
L -80.398803 158.769622 
L -87.758968 148.605172 
L -94.168853 132.452286 
L -129.612843 132.293389 
L -142.262544 135.126226 
z
" clip-path="url(#p51878b29c2)" style="fill: #e8edf4; stroke: #b8c5d4; stroke-width: 0.45"/>
    <path d="M 201.9596 28.412067 
L 215.743082 11.000626 
L 223.442932 10.7789 
L 234.147243 2.31154 
L 249.794491 1.78221 
L 283.735758 -34.267729 
L 297.533048 -51.668829 
L 297.654063 -75.197034 
L 313.395541 -78.427458 
L 319.079684 -82.539225 
L 323.634061 -82.572136 
L 322.842649 -65.951867 
L 320.30674 -61.61369 
L 316.922127 -48.629908 
L 303.713616 -19.874322 
L 293.406273 -2.271423 
L 269.026218 27.56204 
L 257.005849 37.285404 
L 239.039133 49.211606 
L 227.842606 58.347626 
L 214.697634 72.897418 
L 211.927629 79.231002 
L 209.215278 82.074995 
L 202.103133 72.166301 
z
" clip-path="url(#p51878b29c2)" style="fill: #e8edf4; stroke: #b8c5d4; stroke-width: 0.45"/>
    <path d="M 116.831005 60.538292 
L 126.182035 47.720906 
L 130.552762 38.966 
L 123.864249 19.150532 
L 118.169416 10.811391 
L 133.699882 -4.275959 
L 139.938945 -2.260878 
L 139.938945 4.480561 
L 144.042316 8.433439 
L 152.402232 8.433439 
L 167.606171 18.633994 
L 174.21499 18.424219 
L 176.873892 19.809462 
L 184.8838 20.754497 
L 188.433756 15.749102 
L 199.406396 10.725691 
L 204.250721 14.784609 
L 212.457717 14.786748 
L 201.9596 28.412067 
L 202.103133 72.166301 
L 209.215278 82.074995 
L 200.803169 86.871036 
L 197.837383 91.882556 
L 193.335494 92.762972 
L 191.631717 101.225888 
L 187.774585 106.072135 
L 185.430375 114.063975 
L 180.593857 118.030528 
L 163.354054 106.02361 
L 162.534775 99.055598 
L 116.952824 73.267841 
z
" clip-path="url(#p51878b29c2)" style="fill: #e8edf4; stroke: #b8c5d4; stroke-width: 0.45"/>
    <path d="M -93.947266 405.095549 
L -88.193452 399.155527 
L -83.450125 402.443953 
L -81.425428 407.579558 
L -68.484622 410.725845 
L -62.031909 409.848807 
L -51.310698 403.707061 
L -51.298284 359.346211 
L -48.05579 361.149941 
L -40.934591 372.562603 
L -42.041285 379.881182 
L -39.361137 384.098162 
L -30.757727 382.872917 
L -19.063271 373.899574 
L -16.123674 368.14638 
L -10.264342 365.362577 
L -5.201979 366.821203 
L 0.535697 370.185353 
L 10.311594 370.779355 
L 17.992656 367.982518 
L 21.319565 358.488414 
L 27.85483 357.526963 
L 31.466016 353.015153 
L 35.465754 345.011331 
L 46.249655 336.044195 
L 63.24482 327.198715 
L 68.131528 327.329681 
L 73.943066 329.364309 
L 77.990598 327.922442 
L 84.375035 329.12286 
L 93.253412 354.561297 
L 91.113266 367.952104 
L 92.138649 372.264671 
L 86.077593 370.064939 
L 82.605442 370.920873 
L 81.471438 374.418472 
L 78.191702 378.927799 
L 78.304047 383.080848 
L 85.472418 389.591286 
L 92.502374 388.29466 
L 94.947901 382.960434 
L 104.057796 383.060986 
L 101.05675 391.804673 
L 99.637849 401.784157 
L 96.530044 407.205901 
L 85.986351 415.007998 
L 70.734089 435.886833 
L 48.682147 455.485179 
L 39.611976 460.950372 
L 27.058482 465.610526 
L 20.935357 466.236184 
L 19.385489 469.570541 
L 12.085532 467.795362 
L 6.139924 470.08137 
L -6.877847 467.76681 
L -14.154839 469.231643 
L -19.127823 468.602882 
L -31.515592 473.344348 
L -41.770043 475.246147 
L -49.190414 479.785888 
L -54.653744 480.07451 
L -59.73597 475.791736 
L -63.795295 475.572011 
L -68.968141 470.209853 
L -69.535454 471.87517 
L -71.131873 468.646951 
L -71.064838 461.604581 
L -74.967128 453.555448 
L -71.090907 451.367509 
L -71.404978 442.148993 
L -79.270385 430.907642 
z
M 34.022646 420.700984 
L 43.032609 429.939363 
L 47.33028 428.745772 
L 49.538702 424.908034 
L 56.232864 423.032303 
L 61.959367 413.271302 
L 52.549057 405.945897 
L 46.93552 408.395768 
L 40.427565 413.095026 
z
" clip-path="url(#p51878b29c2)" style="fill: #e8edf4; stroke: #b8c5d4; stroke-width: 0.45"/>
    <path d="M 34.022646 420.700984 
L 40.427565 413.095026 
L 46.93552 408.395768 
L 52.549057 405.945897 
L 61.959367 413.271302 
L 56.232864 423.032303 
L 49.538702 424.908034 
L 47.33028 428.745772 
L 43.032609 429.939363 
z
" clip-path="url(#p51878b29c2)" style="fill: #e8edf4; stroke: #b8c5d4; stroke-width: 0.45"/>
    <path d="M 13.182915 274.893008 
L 26.60786 276.208254 
L 30.509529 277.591777 
L 34.56513 277.313086 
L 41.217085 269.539541 
L 51.662709 259.661229 
L 55.962242 258.716536 
L 57.42273 254.552314 
L 64.261514 249.7674 
L 73.358995 248.123187 
L 74.136101 252.603962 
L 84.154689 252.364996 
L 89.721054 254.899901 
L 92.30996 257.871774 
L 98.029636 258.744467 
L 104.26821 262.603929 
L 104.2949 277.805915 
L 101.953029 286.130015 
L 101.437855 295.10584 
L 103.368207 298.663646 
L 102.011374 305.734568 
L 100.197092 306.827607 
L 97.029701 315.489983 
L 84.375035 329.12286 
L 77.990598 327.922442 
L 73.943066 329.364309 
L 68.131528 327.329681 
L 63.24482 327.198715 
L 55.587344 321.771385 
L 46.299311 319.92793 
L 42.766332 312.310799 
L 42.736539 308.073956 
L 37.592865 306.782296 
L 23.999713 293.588869 
L 20.223423 286.638361 
L 17.806449 284.495733 
z
" clip-path="url(#p51878b29c2)" style="fill: #e8edf4; stroke: #b8c5d4; stroke-width: 0.45"/>
    <path d="M -51.302008 324.290153 
L -39.462931 323.871806 
L -39.108516 281.086893 
L -30.167449 280.68965 
L -11.648485 276.484462 
L -7.058469 281.435722 
L 0.608938 276.728394 
L 4.2524 276.701705 
L 11.023528 273.995488 
L 13.182915 274.893008 
L 17.806449 284.495733 
L 20.223423 286.638361 
L 23.999713 293.588869 
L 37.592865 306.782296 
L 42.736539 308.073956 
L 42.766332 312.310799 
L 46.299311 319.92793 
L 55.587344 321.771385 
L 63.24482 327.198715 
L 46.249655 336.044195 
L 35.465754 345.011331 
L 31.466016 353.015153 
L 27.85483 357.526963 
L 21.319565 358.488414 
L 17.992656 367.982518 
L 10.311594 370.779355 
L 0.535697 370.185353 
L -5.201979 366.821203 
L -10.264342 365.362577 
L -16.123674 368.14638 
L -19.063271 373.899574 
L -30.757727 382.872917 
L -39.361137 384.098162 
L -42.041285 379.881182 
L -40.934591 372.562603 
L -48.05579 361.149941 
L -51.298284 359.346211 
z
" clip-path="url(#p51878b29c2)" style="fill: #e8edf4; stroke: #b8c5d4; stroke-width: 0.45"/>
    <path d="M -149.32788 269.672369 
L -136.357282 265.341801 
L -128.570702 265.700561 
L -121.4104 271.131615 
L -119.594255 270.287474 
L -70.905941 269.769197 
L -62.583704 275.524252 
L -33.504909 277.224327 
L -1.595139 269.599748 
L 6.193924 270.291199 
L 10.933527 272.998657 
L 11.023528 273.995488 
L 4.2524 276.701705 
L 0.608938 276.728394 
L -7.058469 281.435722 
L -11.648485 276.484462 
L -30.167449 280.68965 
L -39.108516 281.086893 
L -39.462931 323.871806 
L -51.302008 324.290153 
L -51.310698 403.707061 
L -62.031909 409.848807 
L -68.484622 410.725845 
L -81.425428 407.579558 
L -83.450125 402.443953 
L -88.193452 399.155527 
L -93.947266 405.095549 
L -102.873436 396.021654 
L -107.573936 387.250036 
L -117.210799 348.358723 
L -117.480179 333.989084 
L -119.017633 327.437681 
L -123.690822 322.487043 
L -129.890293 312.563421 
L -138.825773 290.613272 
L -148.598567 278.887781 
z
" clip-path="url(#p51878b29c2)" style="fill: #e8edf4; stroke: #b8c5d4; stroke-width: 0.45"/>
    <path d="M -116.595072 -3.624483 
L -115.668379 -12.935482 
L -112.785886 -15.115973 
L -106.745312 -27.288362 
L -96.814863 -28.191158 
L -94.600855 -31.280652 
L -92.611537 -31.04603 
L -89.611112 -28.326158 
L -74.489816 -32.921451 
L -63.126189 -41.809449 
L -64.315435 -46.037602 
L -60.928319 -47.141813 
L -49.329449 -46.395431 
L -38.024788 -51.959934 
L -29.341308 -65.064912 
L -23.247976 -69.927413 
L -15.6445 -71.975385 
L -14.282702 -66.835436 
L -7.355159 -59.325995 
L -7.31978 -54.425012 
L -9.271235 -49.42658 
L -8.499715 -45.693739 
L 11.389736 -32.131 
L 11.500219 -28.227158 
L 19.577904 -21.972135 
L 24.583784 -16.774772 
L 27.616484 -9.56947 
L 36.594793 -4.815901 
L 38.526386 -1.008266 
L 34.560785 0.266014 
L 17.821966 -1.274233 
L 13.35795 -0.245126 
L 11.556702 2.67554 
L 7.667447 3.035852 
L 2.929085 0.495049 
L -10.443102 6.489692 
L -15.916984 5.283377 
L -17.566783 6.209139 
L -21.158106 13.462545 
L -38.904929 9.935773 
L -46.554957 5.504964 
L -56.438854 1.422984 
L -62.870464 5.290825 
L -67.546757 11.389123 
L -68.626761 19.765671 
L -76.351892 19.095324 
L -84.481715 17.077454 
L -91.640154 23.44265 
L -97.936453 34.62038 
L -99.739563 25.661313 
L -105.232686 21.796575 
L -109.666909 15.598035 
L -110.691051 11.285778 
L -116.367278 5.013376 
L -115.39962 1.434156 
z
" clip-path="url(#p51878b29c2)" style="fill: #e8edf4; stroke: #b8c5d4; stroke-width: 0.45"/>
    <path d="M -27.371232 254.999833 
L -26.818195 216.78197 
L -1.808036 216.933419 
L -2.831557 212.787197 
L -1.042102 208.288422 
L -3.153075 202.655023 
L -1.786932 196.829829 
L -3.056247 193.100712 
L 1.086871 193.402989 
L 1.775839 197.136451 
L 7.404894 196.846588 
L 15.031335 197.954523 
L 19.04535 203.407922 
L 28.663592 205.083169 
L 36.006377 201.291363 
L 38.701421 207.585178 
L 47.905661 209.263529 
L 57.264454 220.992124 
L 66.456901 221.091434 
L 65.452621 208.139456 
L 62.156127 210.323671 
L 50.513809 203.512198 
L 54.134305 177.235206 
L 51.446088 171.938222 
L 54.869204 164.270815 
L 58.088733 162.835154 
L 74.221757 160.807975 
L 78.953222 162.030099 
L 83.970767 165.087804 
L 96.39163 169.120901 
L 103.208068 172.727121 
L 108.877468 178.085554 
L 111.931893 188.28104 
L 109.885472 191.535948 
L 107.47098 201.272742 
L 109.778713 211.224916 
L 105.99932 215.405896 
L 102.352755 226.564075 
L 108.668916 229.674983 
L 72.220646 239.575018 
L 73.358995 248.123187 
L 64.261514 249.7674 
L 57.42273 254.552314 
L 55.962242 258.716536 
L 51.662709 259.661229 
L 41.217085 269.539541 
L 34.56513 277.313086 
L 30.509529 277.591777 
L 26.60786 276.208254 
L 13.182915 274.893008 
L 6.193924 270.291199 
L -1.595139 269.599748 
L -11.430002 272.329551 
L -19.268099 264.826627 
z
" clip-path="url(#p51878b29c2)" style="fill: #e8edf4; stroke: #b8c5d4; stroke-width: 0.45"/>
    <path d="M 102.352755 226.564075 
L 105.99932 215.405896 
L 109.778713 211.224916 
L 107.47098 201.272742 
L 109.885472 191.535948 
L 111.931893 188.28104 
L 108.877468 178.085554 
L 103.208068 172.727121 
L 114.983106 174.967807 
L 121.472475 183.890269 
L 124.835457 200.225635 
L 121.472548 209.35415 
L 124.835457 224.968276 
L 129.005265 224.793241 
L 133.338936 228.665738 
L 138.370265 237.352321 
L 139.391924 252.796377 
L 134.193008 255.325696 
L 130.526581 263.659726 
L 122.689104 256.239975 
L 121.800274 247.773117 
L 124.32711 242.188752 
L 123.630073 237.375907 
L 118.887987 234.336379 
L 115.583424 235.439969 
L 108.668916 229.674983 
z
" clip-path="url(#p51878b29c2)" style="fill: #e8edf4; stroke: #b8c5d4; stroke-width: 0.45"/>
    <path d="M 72.220646 239.575018 
L 108.668916 229.674983 
L 115.583424 235.439969 
L 118.887987 234.336379 
L 123.630073 237.375907 
L 124.32711 242.188752 
L 121.800274 247.773117 
L 122.689104 256.239975 
L 130.526581 263.659726 
L 134.193008 255.325696 
L 139.391924 252.796377 
L 138.370265 237.352321 
L 133.338936 228.665738 
L 129.005265 224.793241 
L 124.835457 224.968276 
L 121.472548 209.35415 
L 124.835457 200.225635 
L 133.872731 199.254252 
L 148.306301 202.638885 
L 151.442036 201.120672 
L 159.803446 200.811056 
L 164.083609 197.20808 
L 171.28928 197.405211 
L 184.422762 192.741024 
L 193.978673 185.777168 
L 195.922059 191.162291 
L 195.427989 203.128611 
L 196.912063 213.667959 
L 197.378202 232.438924 
L 199.490417 238.321841 
L 191.248249 255.245627 
L 183.600704 262.69393 
L 159.080891 273.089278 
L 145.510084 285.981048 
L 140.888412 288.173953 
L 132.503485 296.708467 
L 127.554708 299.485442 
L 126.539877 308.049749 
L 132.235967 317.145989 
L 134.605768 324.190221 
L 134.754952 327.783503 
L 136.877285 327.182947 
L 136.533637 338.963309 
L 134.585906 344.543329 
L 137.416882 346.599682 
L 135.630531 351.596872 
L 130.609754 355.869715 
L 106.256907 366.430167 
L 100.989095 370.871218 
L 102.018823 375.931098 
L 105.088765 376.739239 
L 104.057796 383.060986 
L 94.947901 382.960434 
L 91.113266 367.952104 
L 93.253412 354.561297 
L 84.375035 329.12286 
L 97.029701 315.489983 
L 100.197092 306.827607 
L 102.011374 305.734568 
L 103.368207 298.663646 
L 101.437855 295.10584 
L 101.953029 286.130015 
L 104.2949 277.805915 
L 104.26821 262.603929 
L 98.029636 258.744467 
L 92.30996 257.871774 
L 89.721054 254.899901 
L 84.154689 252.364996 
L 74.136101 252.603962 
z
" clip-path="url(#p51878b29c2)" style="fill: #e8edf4; stroke: #b8c5d4; stroke-width: 0.45"/>
    <path d="M 78.191702 378.927799 
L 81.471438 374.418472 
L 82.605442 370.920873 
L 86.077593 370.064939 
L 92.138649 372.264671 
L 94.947901 382.960434 
L 92.502374 388.29466 
L 85.472418 389.591286 
L 78.304047 383.080848 
z
" clip-path="url(#p51878b29c2)" style="fill: #e8edf4; stroke: #b8c5d4; stroke-width: 0.45"/>
    <path d="M 58.353147 95.959947 
L 65.646898 96.904019 
L 69.324497 90.065236 
L 75.706182 90.850378 
L 76.402663 95.57994 
L 78.989258 98.302741 
L 79.100121 102.206356 
L 67.104283 115.335465 
L 62.137506 115.907122 
L 61.373434 101.420794 
z
" clip-path="url(#p51878b29c2)" style="fill: #e8edf4; stroke: #b8c5d4; stroke-width: 0.45"/>
    <path d="M 229.262525 326.791541 
L 231.413843 318.132268 
L 236.943587 316.05233 
L 236.975863 312.054453 
L 242.716642 302.948903 
L 243.798508 295.298875 
L 238.736766 282.037793 
L 237.777176 270.970236 
L 241.973674 264.250625 
L 243.583749 256.632253 
L 249.570322 256.189699 
L 260.717328 251.554372 
L 265.99321 251.392992 
L 272.838821 244.548623 
L 282.723339 237.151217 
L 286.327697 231.108781 
L 284.692174 225.975659 
L 289.794261 227.419388 
L 296.415182 219.072944 
L 296.636769 211.850573 
L 300.614162 206.477864 
L 307.992948 216.744108 
L 310.966062 224.677171 
L 312.898897 239.126879 
L 316.011046 244.744761 
L 314.816835 250.504782 
L 312.692827 254.038381 
L 308.613019 246.999735 
L 306.354942 250.554437 
L 308.645916 259.452677 
L 307.579567 264.545454 
L 304.265072 267.319946 
L 303.508449 277.493707 
L 285.43328 330.804314 
L 280.832712 347.505271 
L 275.40414 361.434218 
L 265.635691 364.278849 
L 255.150343 369.359212 
L 238.697662 361.995324 
L 235.383168 355.657439 
L 234.590544 345.008848 
L 230.361149 335.433434 
z
" clip-path="url(#p51878b29c2)" style="fill: #e8edf4; stroke: #b8c5d4; stroke-width: 0.45"/>
    <path d="M 105.54789 -31.648945 
L 109.639118 -38.490599 
L 116.01342 -38.785833 
L 117.808842 -42.454029 
L 117.648374 -53.252268 
L 121.201624 -65.822026 
L 126.891292 -69.186101 
L 128.09817 -74.096128 
L 133.249259 -83.271423 
L 140.493647 -89.221973 
L 145.377249 -101.053528 
L 147.2905 -111.368439 
L 161.274568 -108.857994 
L 165.025642 -117.822255 
L 172.314951 -112.369686 
L 179.358873 -115.194341 
L 182.256076 -112.682936 
L 190.491381 -112.539283 
L 200.945261 -107.723424 
L 204.051337 -103.575864 
L 209.376587 -99.717411 
L 214.31544 -92.675651 
L 218.420962 -88.788972 
L 210.13569 -77.84648 
L 211.262454 -70.876546 
L 217.971506 -70.675841 
L 220.863664 -71.527549 
L 223.529194 -69.38679 
L 220.909666 -65.131267 
L 229.776636 -52.734588 
L 234.362002 -48.447819 
L 273.633444 -34.194221 
L 283.735758 -34.267729 
L 249.794491 1.78221 
L 234.147243 2.31154 
L 223.442932 10.7789 
L 215.743082 11.000626 
L 212.457717 14.786748 
L 204.250721 14.784609 
L 199.406396 10.725691 
L 188.433756 15.749102 
L 184.8838 20.754497 
L 176.873892 19.809462 
L 174.21499 18.424219 
L 167.606171 18.633994 
L 152.402232 8.433439 
L 144.042316 8.433439 
L 139.938945 4.480561 
L 139.938945 -2.260878 
L 133.699882 -4.275959 
L 126.601464 -17.346702 
L 121.115985 -20.13148 
L 119.011396 -24.934488 
L 112.924039 -30.788588 
z
" clip-path="url(#p51878b29c2)" style="fill: #e8edf4; stroke: #b8c5d4; stroke-width: 0.45"/>
    <path d="M 65.013792 77.967951 
L 65.114344 68.912676 
L 67.896906 64.32328 
L 68.57284 54.682073 
L 71.099676 49.097708 
L 75.692176 42.833996 
L 80.306399 39.64395 
L 84.167724 35.379176 
L 79.353637 33.752653 
L 80.080378 19.708189 
L 85.025447 16.432415 
L 92.663199 19.118462 
L 102.331792 16.307259 
L 110.782577 16.335125 
L 118.169416 10.811391 
L 123.864249 19.150532 
L 130.552762 38.966 
L 126.182035 47.720906 
L 116.831005 60.538292 
L 116.952824 73.267841 
L 79.311757 74.043158 
L 67.921113 79.193196 
z
" clip-path="url(#p51878b29c2)" style="fill: #e8edf4; stroke: #b8c5d4; stroke-width: 0.45"/>
    <path d="M 58.353147 95.959947 
L 59.464807 89.389302 
L 61.114606 88.46323 
L 61.559642 81.315963 
L 65.013792 77.967951 
L 67.921113 79.193196 
L 75.098794 75.485804 
L 79.86757 82.263138 
L 79.173016 89.329716 
L 75.706182 90.850378 
L 69.324497 90.065236 
L 65.646898 96.904019 
z
" clip-path="url(#p51878b29c2)" style="fill: #e8edf4; stroke: #b8c5d4; stroke-width: 0.45"/>
    <path d="M -3.359355 -41.675345 
L 4.453105 -45.252351 
L 7.546096 -55.974719 
L 10.845286 -61.542103 
L 19.505661 -63.191698 
L 27.753636 -52.881729 
L 31.052827 -51.850732 
L 35.383014 -53.912726 
L 44.043388 -53.500327 
L 45.692983 -51.025934 
L 57.652548 -51.025934 
L 58.064947 -53.500327 
L 64.250929 -55.76852 
L 65.488125 -59.27391 
L 70.024512 -61.748302 
L 80.128282 -54.737523 
L 86.314263 -55.974719 
L 92.294046 -64.635094 
L 98.892426 -71.233474 
L 97.861429 -78.450453 
L 94.974638 -81.955843 
L 102.191617 -82.574441 
L 103.016414 -85.255033 
L 108.583798 -84.430235 
L 107.140402 -75.563662 
L 108.583798 -66.903287 
L 114.769779 -62.160701 
L 116.213175 -58.036713 
L 116.006976 -52.056931 
L 117.669667 -51.819404 
L 117.808842 -42.454029 
L 116.01342 -38.785833 
L 109.639118 -38.490599 
L 105.54789 -31.648945 
L 112.924039 -30.788588 
L 119.011396 -24.934488 
L 121.115985 -20.13148 
L 126.601464 -17.346702 
L 133.699882 -4.275959 
L 118.169416 10.811391 
L 110.782577 16.335125 
L 102.331792 16.307259 
L 92.663199 19.118462 
L 85.025447 16.432415 
L 80.080378 19.708189 
L 69.50636 11.726469 
L 66.65366 6.596451 
L 59.964464 9.137253 
L 54.410512 8.346802 
L 51.195328 10.36374 
L 45.802136 8.907287 
L 36.594793 -4.815901 
L 27.616484 -9.56947 
L 24.583784 -16.774772 
L 19.577904 -21.972135 
L 11.500219 -28.227158 
L 11.389736 -32.131 
z
" clip-path="url(#p51878b29c2)" style="fill: #e8edf4; stroke: #b8c5d4; stroke-width: 0.45"/>
   </g>
   <g id="PathCollection_1">
    <defs>
     <path id="m343ff867ea" d="M 0 2.12132 
C 0.562581 2.12132 1.102195 1.897805 1.5 1.5 
C 1.897805 1.102195 2.12132 0.562581 2.12132 0 
C 2.12132 -0.562581 1.897805 -1.102195 1.5 -1.5 
C 1.102195 -1.897805 0.562581 -2.12132 0 -2.12132 
C -0.562581 -2.12132 -1.102195 -1.897805 -1.5 -1.5 
C -1.897805 -1.102195 -2.12132 -0.562581 -2.12132 0 
C -2.12132 0.562581 -1.897805 1.102195 -1.5 1.5 
C -1.102195 1.897805 -0.562581 2.12132 0 2.12132 
z
" style="stroke: #ffffff; stroke-width: 0.5"/>
    </defs>
    <g clip-path="url(#p51878b29c2)">
     <use xlink:href="#m343ff867ea" x="70.064875" y="103.8962" style="fill: #8aa0b7; stroke: #ffffff; stroke-width: 0.5"/>
     <use xlink:href="#m343ff867ea" x="241.223355" y="207.992586" style="fill: #8aa0b7; stroke: #ffffff; stroke-width: 0.5"/>
     <use xlink:href="#m343ff867ea" x="52.048193" y="416.185357" style="fill: #8aa0b7; stroke: #ffffff; stroke-width: 0.5"/>
     <use xlink:href="#m343ff867ea" x="400.97127" y="305.482855" style="fill: #8aa0b7; stroke: #ffffff; stroke-width: 0.5"/>
     <use xlink:href="#m343ff867ea" x="376.348471" y="315.892493" style="fill: #8aa0b7; stroke: #ffffff; stroke-width: 0.5"/>
     <use xlink:href="#m343ff867ea" x="70.064875" y="85.879518" style="fill: #8aa0b7; stroke: #ffffff; stroke-width: 0.5"/>
     <use xlink:href="#m343ff867ea" x="378.350324" y="116.908248" style="fill: #8aa0b7; stroke: #ffffff; stroke-width: 0.5"/>
     <use xlink:href="#m343ff867ea" x="88.081557" y="380.151993" style="fill: #8aa0b7; stroke: #ffffff; stroke-width: 0.5"/>
     <use xlink:href="#m343ff867ea" x="252.23355" y="216" style="fill: #8aa0b7; stroke: #ffffff; stroke-width: 0.5"/>
    </g>
   </g>
   <g id="PathCollection_2">
    <defs>
     <path id="m0b34529f91" d="M 0 3.674235 
C 0.974418 3.674235 1.909058 3.287094 2.598076 2.598076 
C 3.287094 1.909058 3.674235 0.974418 3.674235 0 
C 3.674235 -0.974418 3.287094 -1.909058 2.598076 -2.598076 
C 1.909058 -3.287094 0.974418 -3.674235 0 -3.674235 
C -0.974418 -3.674235 -1.909058 -3.287094 -2.598076 -2.598076 
C -3.287094 -1.909058 -3.674235 -0.974418 -3.674235 0 
C -3.674235 0.974418 -3.287094 1.909058 -2.598076 2.598076 
C -1.909058 3.287094 -0.974418 3.674235 0 3.674235 
z
" style="stroke: #ffffff; stroke-width: 1.2"/>
    </defs>
    <g clip-path="url(#p51878b29c2)">
     <use xlink:href="#m0b34529f91" x="252.23355" y="216" style="fill: #f97316; stroke: #ffffff; stroke-width: 1.2"/>
    </g>
   </g>
   <g id="PathCollection_3">
    <path d="M 252.23355 220.929503 
C 253.540869 220.929503 254.79482 220.410099 255.719235 219.485685 
C 256.643649 218.561271 257.163053 217.307319 257.163053 216 
C 257.163053 214.692681 256.643649 213.438729 255.719235 212.514315 
C 254.79482 211.589901 253.540869 211.070497 252.23355 211.070497 
C 250.92623 211.070497 249.672279 211.589901 248.747865 212.514315 
C 247.82345 213.438729 247.304047 214.692681 247.304047 216 
C 247.304047 217.307319 247.82345 218.561271 248.747865 219.485685 
C 249.672279 220.410099 250.92623 220.929503 252.23355 220.929503 
L 252.23355 220.929503 
z
" clip-path="url(#p51878b29c2)" style="fill: none; stroke: #7c2d12; stroke-width: 1.1"/>
   </g>
  </g>
 </g>
 <defs>
  <clipPath id="p51878b29c2">
   <rect x="0" y="0" width="504.467099" height="432"/>
  </clipPath>
 </defs>
</svg>
