<?xml version="1.0" encoding="utf-8" standalone="no"?>
<!DOCTYPE svg PUBLIC "-//W3C//DTD SVG 1.1//EN"
  "http://www.w3.org/Graphics/SVG/1.1/DTD/svg11.dtd">
<svg xmlns:xlink="http://www.w3.org/1999/xlink" width="513.566434pt" height="432pt" viewBox="0 0 513.566434 432" xmlns="http://www.w3.org/2000/svg" version="1.1">
 <metadata>
  <rdf:RDF xmlns:dc="http://purl.org/dc/elements/1.1/" xmlns:cc="http://creativecommons.org/ns#" xmlns:rdf="http://www.w3.org/1999/02/22-rdf-syntax-ns#">
   <cc:Work>
    <dc:type rdf:resource="http://purl.org/dc/dcmitype/StillImage"/>
    <dc:date>2026-06-09T04:57:08.100802</dc:date>
    <dc:format>image/svg+xml</dc:format>
    <dc:creator>
     <cc:Agent>
      <dc:title>Matplotlib v3.10.8, https://matplotlib.org/</dc:title>
     </cc:Agent>
    </dc:creator>
   </cc:Work>
  </rdf:RDF>
 </metadata>
 <defs>
  <style type="text/css">*{stroke-linejoin: round; stroke-linecap: butt}</style>
 </defs>
 <g id="figure_1">
  <g id="patch_1">
   <path d="M 0 432 
L 513.566434 432 
L 513.566434 0 
L 0 0 
z
" style="fill: #eaf3ff"/>
  </g>
  <g id="axes_1">
   <g id="PatchCollection_1">
    <path d="M 414.877782 -46.736846 
L 423.596716 -58.184643 
L 419.184951 -61.265542 
L 431.236907 -77.861178 
L 446.770192 -69.101264 
L 448.651359 -80.133409 
L 479.831892 -96.562005 
L 503.426874 -96.953069 
L 554.605527 -80.383871 
L 570.632425 -86.75572 
L 594.57882 -87.059178 
L 613.897412 -79.231854 
L 618.28576 -83.714261 
L 639.502354 -83.062878 
L 643.287324 -90.216385 
L 618.810301 -100.604952 
L 633.306993 -107.962968 
L 630.478218 -112.078117 
L 644.978813 -116.005541 
L 634.07429 -126.352348 
L 641.000392 -131.506993 
L 697.521906 -136.763161 
L 704.898176 -140.494406 
L 742.694104 -146.070253 
L 756.27441 -152.336646 
L 783.419411 -149.081291 
L 788.175406 -133.425847 
L 803.945203 -137.101927 
L 823.345418 -131.950575 
L 822.094168 -123.706225 
L 836.581897 -124.567804 
L 874.438997 -138.821907 
L 868.911802 -134.086206 
L 888.181662 -122.416338 
L 921.935724 -84.054978 
L 929.984932 -91.963684 
L 950.792509 -83.261142 
L 972.498519 -87.142902 
L 980.838097 -84.424967 
L 988.107519 -75.696666 
L 998.668591 -72.764856 
L 1005.098903 -66.353668 
L 1024.555318 -68.374947 
L 1032.570181 -59.135374 
L 1021.072428 -49.078548 
L 1008.527154 -47.667282 
L 1007.80591 -32.520378 
L 999.404666 -25.692758 
L 969.439476 -30.663409 
L 958.540418 -3.619882 
L 950.808901 -0.257198 
L 920.886642 5.777366 
L 934.48256 32.016909 
L 924.119751 35.948625 
L 925.325727 44.559451 
L 916.015903 42.343812 
L 908.44128 36.914967 
L 860.984363 34.92218 
L 855.495415 36.585568 
L 833.984547 30.234874 
L 825.411579 33.362607 
L 823.062072 42.280195 
L 798.212718 37.076545 
L 788.268294 39.207883 
L 784.885316 45.825921 
L 776.224924 48.61801 
L 756.30251 59.147079 
L 749.693449 69.955592 
L 744.06556 70.051601 
L 739.926213 62.896924 
L 720.715676 62.406727 
L 717.643364 50.032788 
L 710.283397 49.927021 
L 711.410536 34.776604 
L 693.327138 23.743678 
L 667.421677 24.921944 
L 649.711391 27.121192 
L 635.286511 13.506541 
L 596.690591 -4.332149 
L 557.807422 4.594026 
L 558.400653 60.289049 
L 550.652744 61.025904 
L 540.080743 49.18197 
L 529.870926 44.950515 
L 512.724989 48.093469 
L 506.05114 53.11915 
L 505.203444 49.436044 
L 508.915822 43.141161 
L 506.035529 37.878577 
L 488.52897 32.732689 
L 481.71462 19.167604 
L 473.37426 15.346338 
L 472.868453 10.424862 
L 487.563409 11.859544 
L 488.14337 0.815691 
L 500.989943 -1.637241 
L 514.183869 0.618598 
L 516.902584 -14.117728 
L 514.211969 -23.457994 
L 499.096288 -22.727383 
L 486.255959 -26.414002 
L 468.766573 -19.772156 
L 454.674864 -16.605264 
L 447.002937 -19.047877 
L 448.535835 -26.820677 
L 438.906713 -36.91289 
L 427.69873 -36.491161 
z
" clip-path="url(#pad40d700cb)" style="fill: #e8edf4; stroke: #b8c5d4; stroke-width: 0.45"/>
    <path d="M 44.360207 494.10861 
L 45.882478 488.560884 
L 49.794495 482.264257 
L 48.083262 476.008414 
L 53.048694 471.375743 
L 49.899172 467.846635 
L 53.89351 458.519815 
L 60.79101 447.396117 
L 73.815961 448.451648 
L 73.258741 382.153846 
L 90.629371 382.107927 
L 90.629371 351.944056 
L 269.86753 351.944056 
L 274.738708 366.764224 
L 271.426053 369.504403 
L 273.620643 385.05459 
L 279.165499 403.087871 
L 293.187373 412.389203 
L 285.542937 421.010585 
L 274.417729 423.493829 
L 269.660593 428.124839 
L 268.170646 438.164912 
L 261.665421 460.359592 
L 263.27092 466.40729 
L 260.864862 479.379071 
L 254.723362 494.258148 
L 245.612996 501.741415 
L 239.13511 513.280045 
L 237.617371 519.454775 
L 230.462182 523.685354 
L 225.993701 539.492778 
L 226.195502 553.07238 
L 226.020479 541.294713 
L 223.929518 540.996004 
L 224.18883 533.475975 
L 222.37365 528.289748 
L 214.59431 522.325586 
L 212.77913 511.43451 
L 214.59431 500.284121 
L 207.592903 499.246876 
L 206.555658 502.617923 
L 197.47976 503.395858 
L 201.110119 507.804151 
L 202.406676 516.880048 
L 194.108712 525.178011 
L 186.588683 536.069088 
L 178.809343 537.624956 
L 166.103086 528.80837 
L 160.398236 531.920107 
L 158.842368 536.3284 
L 151.063028 539.180825 
L 150.544405 542.292561 
L 135.504346 542.292561 
L 133.429855 539.180825 
L 122.538778 538.662202 
L 117.09324 541.255315 
L 112.944258 539.958759 
L 102.571804 526.993191 
L 91.680727 529.067682 
L 87.531746 536.069088 
L 83.642075 549.553279 
L 73.817314 554.051635 
L 84.094525 559.950728 
L 72.591308 553.347911 
L 67.352922 548.998201 
L 66.382677 544.30387 
L 68.83678 538.017963 
L 68.792288 531.854606 
L 60.080378 522.410915 
L 58.549897 512.288408 
L 52.998394 507.836241 
L 52.831183 499.062109 
L 49.665046 493.23449 
z
" clip-path="url(#pad40d700cb)" style="fill: #e8edf4; stroke: #b8c5d4; stroke-width: 0.45"/>
    <path d="M -82.466783 467.237701 
L -75.944845 447.340985 
L -56.677627 433.098038 
L -55.881449 413.451945 
L -50.061541 382.800637 
L -46.776134 376.298903 
L -53.06126 371.121011 
L -53.304269 366.317119 
L -58.956103 362.388807 
L -62.665678 338.909287 
L -47.416531 330.650383 
L 73.072347 388.490803 
L 73.815961 448.451648 
L 60.79101 447.396117 
L 53.89351 458.519815 
L 49.899172 467.846635 
L 53.048694 471.375743 
L 48.083262 476.008414 
L 49.794495 482.264257 
L 45.882478 488.560884 
L 44.360207 494.10861 
L 49.665046 493.23449 
L 52.831183 499.062109 
L 52.998394 507.836241 
L 58.549897 512.288408 
L 58.367814 515.947039 
L 48.805867 518.52252 
L 41.14304 524.637482 
L 30.222907 541.117986 
L 16.006438 548.11577 
L 1.419981 547.177138 
L -2.839573 548.565766 
L -1.344007 553.882989 
L -15.634629 565.06032 
L -34.650805 570.839248 
L -38.424066 567.418803 
L -40.925783 567.123749 
L -43.710066 571.009022 
L -56.198359 572.144356 
L -53.83246 568.052624 
L -60.721745 551.387516 
L -67.300365 548.823354 
L -76.216002 540.007629 
L -72.934498 532.87988 
L -66.050677 534.397303 
L -61.788781 533.321681 
L -53.352412 533.469599 
L -61.574125 519.739424 
L -61.021483 509.706014 
L -62.030366 499.68428 
L -68.035659 490.011917 
L -66.525262 482.897048 
L -76.212099 482.549305 
L -76.178535 472.833196 
z
" clip-path="url(#pad40d700cb)" style="fill: #e8edf4; stroke: #b8c5d4; stroke-width: 0.45"/>
    <path d="M 125.192163 -183.894973 
L 131.664625 -188.688826 
L 127.185483 -202.776722 
L 137.933359 -211.480995 
L 135.658876 -214.117477 
L 152.826797 -222.46565 
L 137.001399 -229.647575 
L 183.373292 -257.65466 
L 189.054259 -265.358077 
L 166.695695 -275.706835 
L 172.870762 -285.549786 
L 159.272502 -296.791123 
L 169.441427 -309.740677 
L 151.873507 -326.934673 
L 165.812874 -338.323927 
L 142.679988 -348.388559 
L 144.88509 -358.964463 
L 157.084112 -360.356274 
L 182.785544 -366.416207 
L 198.368358 -371.670294 
L 223.181924 -362.538931 
L 264.546529 -358.943966 
L 321.618562 -341.860028 
L 333.212022 -334.681124 
L 334.210154 -324.628062 
L 317.441908 -316.69195 
L 292.777427 -312.664229 
L 225.34555 -324.145158 
L 214.254478 -322.225628 
L 238.880442 -311.163105 
L 240.831088 -288.720554 
L 272.080397 -280.193236 
L 274.032554 -287.517298 
L 264.933502 -294.008627 
L 274.547178 -299.729757 
L 311.061902 -290.328017 
L 323.78249 -294.008627 
L 313.616895 -305.070848 
L 348.818702 -319.864733 
L 362.759765 -318.993936 
L 376.863357 -313.714775 
L 385.662109 -324.095765 
L 373.06659 -333.099944 
L 380.461343 -342.133578 
L 369.357281 -351.502842 
L 411.608392 -346.657343 
L 420.238422 -338.198148 
L 401.113057 -336.333449 
L 401.216526 -327.928028 
L 413.106042 -322.756414 
L 436.443256 -326.032364 
L 440.137913 -335.666719 
L 524.403138 -355.831754 
L 535.796459 -355.08814 
L 520.904694 -345.921885 
L 539.641712 -344.346596 
L 550.462859 -349.507032 
L 578.774568 -349.924229 
L 601.205035 -356.185813 
L 618.415855 -347.086926 
L 635.581359 -357.090143 
L 619.753846 -365.840559 
L 627.608392 -370.825175 
L 672.228252 -366.254283 
L 693.135164 -361.533172 
L 747.875983 -344.275754 
L 757.973908 -352.180145 
L 742.623709 -360.166557 
L 742.182344 -363.370758 
L 723.978831 -364.85285 
L 728.958613 -372.014383 
L 720.87991 -383.798618 
L 720.422836 -388.633393 
L 748.29741 -402.311329 
L 758.210752 -416.039564 
L 769.443357 -419.00979 
L 809.434171 -415.026478 
L 812.58339 -406.624683 
L 798.265158 -394.373404 
L 807.660403 -389.558115 
L 812.520705 -378.999038 
L 809.089175 -358.300951 
L 825.752442 -349.042406 
L 819.269874 -338.959888 
L 789.683916 -317.504895 
L 806.948962 -315.279491 
L 812.957085 -320.717253 
L 829.575793 -324.596039 
L 833.586445 -332.070394 
L 846.65958 -339.263043 
L 837.857354 -347.850478 
L 844.904996 -357.822579 
L 828.388095 -359.06541 
L 824.755519 -367.466299 
L 836.808168 -382.633427 
L 817.191441 -394.95026 
L 844.224973 -405.131262 
L 840.727284 -415.87205 
L 848.26085 -416.214931 
L 856.198473 -407.840627 
L 850.239138 -393.264403 
L 866.40334 -390.50489 
L 859.51581 -401.397634 
L 884.794154 -407.336274 
L 916.1424 -408.135927 
L 944.055944 -399.524476 
L 930.623312 -412.104587 
L 929.118562 -428.196587 
L 955.384615 -431.244755 
L 991.715815 -430.57878 
L 1024.448727 -432.557069 
L 1012.172375 -440.453757 
L 1029.652666 -450.374048 
L 1047.006529 -450.789432 
L 1076.374825 -458.282517 
L 1116.260509 -460.296453 
L 1121.299955 -464.433231 
L 1160.962238 -465.834965 
L 1173.321214 -462.443614 
L 1207.221583 -470.470506 
L 1234.971239 -470.219614 
L 1239.134903 -476.739038 
L 1253.567933 -483.168436 
L 1289.226965 -489.367183 
L 1315.132464 -484.472744 
L 1294.565035 -480.749538 
L 1328.779586 -478.435317 
L 1332.855944 -470.970629 
L 1346.658797 -474.646406 
L 1390.817354 -474.444755 
L 1424.867564 -467.077192 
L 1436.991659 -461.418898 
L 1433.233863 -453.566618 
L 1376.83007 -440.711446 
L 1365.482517 -436.229371 
L 1406.555597 -430.304324 
L 1420.15529 -433.16202 
L 1427.85939 -423.46649 
L 1434.493913 -427.391194 
L 1458.646792 -429.777315 
L 1507.110999 -427.283043 
L 1510.791608 -420.218182 
L 1573.940039 -417.970876 
L 1574.80268 -429.508145 
L 1606.858741 -426.864336 
L 1630.9728 -426.947262 
L 1655.364487 -418.990305 
L 1662.317421 -409.323323 
L 1653.381818 -402.998601 
L 1672.353415 -391.111653 
L 1696.107222 -384.97831 
L 1710.682238 -400.828028 
L 1734.912906 -394.032638 
L 1760.655726 -398.093287 
L 1789.893063 -393.446719 
L 1801.018422 -397.682131 
L 1825.726103 -395.564425 
L 1814.821578 -409.587206 
L 1834.763966 -416.130948 
L 1971.188811 -406.321678 
L 1984.045796 -397.355866 
L 2023.586182 -385.812554 
L 2084.579446 -388.670249 
L 2114.651933 -386.182624 
L 2127.22706 -379.937052 
L 2125.38955 -368.891446 
L 2143.996817 -364.591083 
L 2164.215323 -367.683961 
L 2191.002495 -368.079558 
L 2219.518876 -365.115373 
L 2248.147183 -366.787485 
L 2274.459306 -353.360895 
L 2293.178048 -358.191894 
L 2280.963021 -367.845885 
L 2287.688476 -374.556537 
L 2335.880039 -370.333208 
L 2367.300034 -371.236783 
L 2410.741259 -364.027972 
L 2431.888112 -357.436745 
L 2431.888112 -297.259936 
L 2412.360503 -290.5416 
L 2392.785768 -291.648487 
L 2406.406154 -283.608453 
L 2415.397343 -271.162624 
L 2422.377164 -267.09412 
L 2424.129634 -260.845527 
L 2420.230909 -256.845147 
L 2392.07614 -260.134993 
L 2349.857807 -248.764783 
L 2336.427138 -247.004459 
L 2291.38993 -227.119922 
L 2285.836615 -220.256106 
L 2264.230724 -230.705371 
L 2224.875222 -218.848028 
L 2218.002797 -224.458741 
L 2203.452856 -217.987804 
L 2183.250814 -220.058836 
L 2178.384319 -210.124347 
L 2160.261768 -195.506887 
L 2160.800106 -189.402092 
L 2178.003676 -186.017236 
L 2175.980073 -164.027681 
L 2161.957292 -163.468045 
L 2155.490585 -150.832649 
L 2161.774674 -144.329387 
L 2135.360442 -136.613656 
L 2130.118439 -119.367491 
L 2107.600213 -115.683558 
L 2103.072369 -100.337136 
L 2081.300324 -86.264811 
L 2075.714685 -96.671329 
L 2060.816123 -152.272901 
L 2068.077952 -173.221729 
L 2080.822406 -182.236028 
L 2081.610881 -189.29515 
L 2105.083586 -192.674266 
L 2132.065611 -211.691631 
L 2158.067178 -227.222937 
L 2185.220492 -239.275133 
L 2197.362713 -260.568655 
L 2179.008302 -259.294708 
L 2169.937662 -246.851748 
L 2131.625152 -230.262495 
L 2119.251827 -248.837438 
L 2080.256425 -243.708722 
L 2042.454613 -218.389292 
L 2054.926573 -209.126517 
L 1997.859978 -203.627429 
L 1998.953874 -214.549326 
L 1975.474221 -216.841796 
L 1956.760766 -209.421516 
L 1910.57619 -212.017897 
L 1860.890148 -207.540957 
L 1754.073919 -142.432968 
L 1777.871983 -140.529147 
L 1785.299211 -131.070008 
L 1799.970294 -127.712039 
L 1809.636369 -135.257538 
L 1826.204627 -134.277684 
L 1848.013074 -117.660638 
L 1848.525432 -104.809393 
L 1836.716274 -89.718092 
L 1835.442327 -71.680733 
L 1828.627754 -47.530724 
L 1805.861505 -25.673035 
L 1800.801214 -15.224979 
L 1750.194982 28.726338 
L 1730.067407 37.588985 
L 1720.54226 37.785046 
L 1711.053365 30.44301 
L 1690.779575 41.497074 
L 1688.425175 46.523077 
L 1686.31049 43.87972 
L 1686.217842 36.206213 
L 1693.933748 35.798756 
L 1696.106847 17.951871 
L 1692.128744 5.015429 
L 1705.092735 -0.319644 
L 1723.425029 2.355004 
L 1733.583434 -12.339596 
L 1738.759972 -28.88781 
L 1744.62762 -34.415748 
L 1752.565264 -48.006829 
L 1727.601168 -43.554084 
L 1714.506646 -37.59548 
L 1691.555815 -37.613152 
L 1685.438836 -51.805068 
L 1667.547458 -62.54333 
L 1641.258629 -67.37191 
L 1635.670659 -82.167567 
L 1615.413382 -113.177936 
L 1602.149206 -118.740258 
L 1579.541085 -123.237818 
L 1559.516192 -122.828868 
L 1540.745896 -120.105079 
L 1528.269311 -112.590169 
L 1536.557373 -109.000341 
L 1536.744839 -100.660683 
L 1528.344705 -95.818657 
L 1514.709667 -79.797952 
L 1514.84668 -73.151237 
L 1493.560615 -63.606462 
L 1475.428042 -69.309285 
L 1457.406309 -68.050231 
L 1449.497603 -73.111428 
L 1440.439902 -74.743594 
L 1418.315509 -64.09861 
L 1398.429782 -61.597283 
L 1384.545054 -57.853683 
L 1365.519512 -60.31325 
L 1351.513016 -60.155965 
L 1342.344475 -67.876945 
L 1327.551168 -75.136219 
L 1312.412849 -77.125884 
L 1279.030337 -72.351936 
L 1257.571485 -78.704962 
L 1254.691284 -90.023815 
L 1223.22057 -95.6745 
L 1206.299437 -101.918256 
L 1190.654531 -86.263983 
L 1196.787447 -77.373324 
L 1182.105466 -66.855021 
L 1160.267715 -70.652543 
L 1145.191962 -71.195916 
L 1135.096107 -78.251462 
L 1119.336319 -78.47431 
L 1106.202636 -83.109712 
L 1083.227424 -76.00499 
L 1054.405765 -62.995278 
L 1032.570181 -59.135374 
L 1024.555318 -68.374947 
L 1005.098903 -66.353668 
L 998.668591 -72.764856 
L 988.107519 -75.696666 
L 980.838097 -84.424967 
L 972.498519 -87.142902 
L 950.792509 -83.261142 
L 929.984932 -91.963684 
L 921.935724 -84.054978 
L 888.181662 -122.416338 
L 868.911802 -134.086206 
L 874.438997 -138.821907 
L 836.581897 -124.567804 
L 822.094168 -123.706225 
L 823.345418 -131.950575 
L 803.945203 -137.101927 
L 788.175406 -133.425847 
L 783.419411 -149.081291 
L 756.27441 -152.336646 
L 742.694104 -146.070253 
L 704.898176 -140.494406 
L 697.521906 -136.763161 
L 641.000392 -131.506993 
L 634.07429 -126.352348 
L 644.978813 -116.005541 
L 630.478218 -112.078117 
L 633.306993 -107.962968 
L 618.810301 -100.604952 
L 643.287324 -90.216385 
L 639.502354 -83.062878 
L 618.28576 -83.714261 
L 613.897412 -79.231854 
L 594.57882 -87.059178 
L 570.632425 -86.75572 
L 554.605527 -80.383871 
L 503.426874 -96.953069 
L 479.831892 -96.562005 
L 448.651359 -80.133409 
L 446.770192 -69.101264 
L 431.236907 -77.861178 
L 419.184951 -61.265542 
L 423.596716 -58.184643 
L 414.877782 -46.736846 
L 427.69873 -36.491161 
L 438.906713 -36.91289 
L 448.535835 -26.820677 
L 447.002937 -19.047877 
L 454.674864 -16.605264 
L 447.790808 -7.647457 
L 433.146613 -5.158171 
L 418.133857 10.434462 
L 431.86315 24.769611 
L 430.376526 34.943966 
L 446.868806 52.733001 
L 437.849871 58.821193 
L 435.257608 62.663924 
L 428.575954 61.632015 
L 418.195192 52.457229 
L 404.454713 48.449857 
L 399.83079 42.251705 
L 385.743115 39.091579 
L 376.583312 41.463541 
L 373.936632 38.655994 
L 353.369958 31.41365 
L 318.365345 26.386679 
L 316.523207 28.170665 
L 297.264336 15.406993 
L 280.031463 9.709276 
L 266.985969 0.835452 
L 277.977952 -1.578613 
L 290.511692 -14.211743 
L 282.064582 -20.18875 
L 304.328442 -26.354266 
L 303.928615 -29.656347 
L 290.369526 -27.221889 
L 290.846452 -33.931643 
L 298.632386 -38.149225 
L 313.249508 -39.256672 
L 315.626148 -44.293745 
L 312.28842 -52.622736 
L 318.423107 -60.531809 
L 318.245639 -64.966909 
L 295.980242 -69.882222 
L 287.153589 -69.719083 
L 277.831276 -76.792582 
L 266.241416 -74.400534 
L 247.057419 -79.711513 
L 247.386613 -82.68329 
L 242.013394 -89.23326 
L 229.969244 -89.964652 
L 228.717995 -94.653518 
L 232.490476 -97.71178 
L 222.837983 -106.264063 
L 207.175124 -104.804793 
L 202.587731 -105.563504 
L 198.771961 -102.127972 
L 193.130736 -102.738663 
L 189.415662 -112.41142 
L 185.868765 -117.425392 
L 188.775541 -118.836705 
L 200.963371 -118.312507 
L 206.841041 -121.615867 
L 202.49016 -125.643203 
L 192.304541 -128.301424 
L 193.213121 -131.029506 
L 187.066155 -133.784908 
L 177.596315 -143.674302 
L 180.833327 -147.749253 
L 179.354152 -154.839924 
L 164.587384 -158.442241 
L 156.661506 -156.639131 
L 154.515727 -160.388976 
L 138.613233 -164.177068 
L 133.758106 -173.091925 
L 132.47017 -180.416766 
z
" clip-path="url(#pad40d700cb)" style="fill: #e8edf4; stroke: #b8c5d4; stroke-width: 0.45"/>
    <path d="M 490.240754 -403.525477 
L 505.685835 -406.766391 
L 505.170661 -415.002935 
L 535.130387 -427.884634 
L 521.244098 -429.731455 
L 557.407771 -442.988607 
L 553.321503 -449.845108 
L 587.106788 -457.820162 
L 636.974097 -467.524953 
L 687.248082 -470.352167 
L 713.116855 -475.951955 
L 742.512231 -477.914301 
L 753.01242 -471.949597 
L 742.867389 -467.249413 
L 643.219414 -452.556018 
L 596.297185 -438.178753 
L 550.11025 -408.908658 
L 553.184123 -396.361432 
L 582.077594 -383.973442 
L 573.154932 -382.648429 
L 523.798114 -384.610775 
L 519.789902 -391.317407 
L 492.448198 -395.366989 
z
" clip-path="url(#pad40d700cb)" style="fill: #e8edf4; stroke: #b8c5d4; stroke-width: 0.45"/>
    <path d="M -3005.874126 -297.259936 
L -3005.874126 -357.436745 
L -2968.867133 -345.902098 
L -2929.265874 -330.886171 
L -2930.564895 -321.497874 
L -2920.377852 -317.739927 
L -2923.882036 -328.715597 
L -2882.879648 -326.463306 
L -2853.308341 -312.327541 
L -2868.284694 -305.744073 
L -2893.044336 -304.181018 
L -2893.418182 -289.421723 
L -2899.465124 -286.278394 
L -2913.61101 -286.730182 
L -2925.122148 -291.996503 
L -2945.205768 -296.401544 
L -2948.583676 -302.953897 
L -2963.922697 -305.424604 
L -2981.101041 -303.465197 
L -2989.30889 -308.750702 
L -2986.027955 -314.364738 
L -3004.118484 -310.776571 
L -2997.304817 -303.670473 
z
" clip-path="url(#pad40d700cb)" style="fill: #e8edf4; stroke: #b8c5d4; stroke-width: 0.45"/>
    <path d="M 1851.770658 -100.227548 
L 1853.106989 -120.868864 
L 1867.069773 -127.819814 
L 1861.070334 -134.818378 
L 1867.792578 -136.939179 
L 1876.947069 -112.391905 
L 1876.560688 -97.527176 
L 1882.795077 -82.285433 
L 1897.992719 -55.531496 
L 1875.634155 -60.518539 
L 1866.340723 -38.692322 
L 1881.065341 -23.212115 
L 1880.639151 -12.656507 
L 1869.196038 -21.762602 
L 1859.292202 -10.071269 
L 1856.496211 -22.746897 
L 1858.180675 -37.462148 
L 1856.458744 -53.76117 
L 1859.953343 -65.180086 
L 1860.620728 -85.37804 
z
" clip-path="url(#pad40d700cb)" style="fill: #e8edf4; stroke: #b8c5d4; stroke-width: 0.45"/>
    <path d="M 203.223894 -0.414873 
L 205.891872 -3.310777 
L 220.352658 -8.331384 
L 218.054086 -10.149241 
L 222.033829 -13.890051 
L 237.630472 -10.054811 
L 239.590706 -7.071847 
L 241.869534 -6.611793 
L 241.992319 -5.305126 
L 249.381948 -1.661439 
L 264.788781 -2.567677 
L 261.839018 2.821358 
L 245.303485 5.437819 
L 224.798768 14.176268 
L 216.399085 11.103955 
L 219.729765 4.006259 
z
" clip-path="url(#pad40d700cb)" style="fill: #e8edf4; stroke: #b8c5d4; stroke-width: 0.45"/>
    <path d="M 390.41559 -533.048877 
L 419.903073 -535.799595 
L 442.852526 -535.982248 
L 445.938888 -531.912371 
L 454.614891 -535.528738 
L 468.852435 -538.019528 
L 491.255491 -534.709143 
L 485.413727 -532.40647 
L 451.551946 -529.26898 
L 449.445196 -526.79029 
L 431.790329 -524.293646 
L 415.427301 -527.874497 
L 424.031492 -532.589903 
z
" clip-path="url(#pad40d700cb)" style="fill: #e8edf4; stroke: #b8c5d4; stroke-width: 0.45"/>
    <path d="M 1090.287491 -529.297578 
L 1129.50871 -539.616336 
L 1162.184148 -543.027021 
L 1191.53228 -535.422839 
L 1226.315908 -520.818822 
L 1222.586585 -507.236576 
L 1189.630422 -505.352392 
L 1147.558003 -509.710834 
L 1122.488257 -515.477203 
L 1110.895552 -526.311793 
z
" clip-path="url(#pad40d700cb)" style="fill: #e8edf4; stroke: #b8c5d4; stroke-width: 0.45"/>
    <path d="M 1781.990786 -452.567883 
L 1790.107703 -462.952498 
L 1810.035818 -465.786025 
L 1849.920898 -465.123373 
L 1904.520109 -457.113776 
L 1892.643357 -445.896503 
L 1836.963843 -446.314607 
L 1811.914338 -442.746831 
z
" clip-path="url(#pad40d700cb)" style="fill: #e8edf4; stroke: #b8c5d4; stroke-width: 0.45"/>
    <path d="M 9.978899 -137.84854 
L 13.42042 -144.495849 
L 34.264683 -149.394688 
L 50.083656 -146.748566 
L 56.760627 -144.351054 
L 55.148756 -140.214829 
L 56.357854 -136.359998 
L 28.582155 -136.133244 
z
" clip-path="url(#pad40d700cb)" style="fill: #e8edf4; stroke: #b8c5d4; stroke-width: 0.45"/>
    <path d="M 1825.62475 -423.991838 
L 1839.953102 -429.961745 
L 1858.839659 -431.35925 
L 1880.30009 -425.584196 
L 1882.128084 -421.614478 
L 1859.22574 -421.508744 
z
" clip-path="url(#pad40d700cb)" style="fill: #e8edf4; stroke: #b8c5d4; stroke-width: 0.45"/>
    <path d="M 1215.009667 -492.736783 
L 1242.602685 -512.569359 
L 1255.010601 -514.267452 
L 1266.361401 -513.283821 
L 1304.646495 -504.704996 
L 1300.160945 -498.565611 
z
" clip-path="url(#pad40d700cb)" style="fill: #e8edf4; stroke: #b8c5d4; stroke-width: 0.45"/>
    <path d="M -3005.874126 -385.661191 
L -3005.874126 -395.985615 
L -2991.136733 -396.587027 
L -2969.289239 -392.266271 
L -2970.582671 -390.201281 
L -2986.14381 -386.579883 
z
" clip-path="url(#pad40d700cb)" style="fill: #e8edf4; stroke: #b8c5d4; stroke-width: 0.45"/>
    <path d="M 1920.122031 -451.228229 
L 1923.736557 -456.119799 
L 1989.793057 -449.885102 
L 1972.33565 -443.916554 
L 1948.19108 -445.26746 
z
" clip-path="url(#pad40d700cb)" style="fill: #e8edf4; stroke: #b8c5d4; stroke-width: 0.45"/>
    <path d="M 2412.633902 -389.688168 
L 2431.888112 -395.985615 
L 2431.888112 -385.661191 
L 2415.324462 -384.889947 
z
" clip-path="url(#pad40d700cb)" style="fill: #e8edf4; stroke: #b8c5d4; stroke-width: 0.45"/>
    <path d="M 230.58277 212.686577 
L 234.977363 207.710072 
L 233.946234 206.853399 
L 237.941176 199.79356 
L 241.004902 188.397671 
L 243.165511 184.573673 
L 248.637287 184.44527 
L 250.028257 181.798367 
L 254.080962 181.599712 
L 254.31201 187.782194 
L 249.920539 194.943897 
L 244.456569 192.851587 
L 241.295273 202.910365 
L 245.09039 204.605756 
L 241.232827 206.683626 
L 240.581834 210.661396 
L 247.683434 208.612407 
L 248.03625 214.488516 
L 240.509242 238.637311 
z
" clip-path="url(#pad40d700cb)" style="fill: #e8edf4; stroke: #b8c5d4; stroke-width: 0.45"/>
    <path d="M 243.582334 184.417169 
L 248.962003 172.11348 
L 256.759087 160.943956 
L 263.553143 161.713985 
L 266.023638 167.637318 
L 257.787094 173.329994 
L 254.080962 181.599712 
L 250.028257 181.798367 
L 248.637287 184.44527 
z
" clip-path="url(#pad40d700cb)" style="fill: #e8edf4; stroke: #b8c5d4; stroke-width: 0.45"/>
    <path d="M 240.581834 210.661396 
L 241.232827 206.683626 
L 245.09039 204.605756 
L 241.295273 202.910365 
L 244.456569 192.851587 
L 249.920539 194.943897 
L 249.914295 204.180347 
L 247.683434 208.612407 
z
" clip-path="url(#pad40d700cb)" style="fill: #e8edf4; stroke: #b8c5d4; stroke-width: 0.45"/>
    <path d="M 240.509242 238.637311 
L 248.03625 214.488516 
L 247.683434 208.612407 
L 249.914295 204.180347 
L 249.920539 194.943897 
L 252.552611 190.182828 
L 269.381638 196.168216 
L 298.961228 180.070191 
L 305.050431 198.463084 
L 302.1717 200.740778 
L 271.920822 208.320475 
L 286.97562 223.424058 
L 281.979991 225.989392 
L 279.494665 231.047857 
L 267.968811 233.139777 
L 264.354005 238.577987 
L 257.824561 243.226655 
L 241.014269 240.824069 
z
" clip-path="url(#pad40d700cb)" style="fill: #e8edf4; stroke: #b8c5d4; stroke-width: 0.45"/>
    <path d="M 492.110212 318.026057 
L 494.797705 317.292324 
L 495.35581 321.434794 
L 507.178279 319.054064 
L 528.792182 319.895125 
L 559.950859 290.686695 
L 562.824126 295.835315 
L 564.875457 307.766283 
L 557.162673 307.825216 
L 555.922352 317.661923 
L 558.597356 319.762429 
L 551.761149 322.73717 
L 551.718998 328.911065 
L 547.318161 335.162627 
L 546.923194 341.244806 
L 543.878983 344.437716 
L 498.472614 336.821722 
z
" clip-path="url(#pad40d700cb)" style="fill: #e8edf4; stroke: #b8c5d4; stroke-width: 0.45"/>
    <path d="M 479.488442 299.342403 
L 483.558319 291.418867 
L 487.683616 289.793726 
L 492.254617 294.528646 
L 492.52079 303.371691 
L 489.241628 312.257666 
L 485.054666 313.330946 
L 480.488349 310.333959 
z
" clip-path="url(#pad40d700cb)" style="fill: #e8edf4; stroke: #b8c5d4; stroke-width: 0.45"/>
    <path d="M 416.422524 244.714025 
L 427.508138 230.21265 
L 437.657071 231.470144 
L 440.809001 238.136577 
L 439.460962 241.583171 
L 444.327017 252.976718 
L 433.644176 253.368563 
L 429.882623 246.171734 
z
" clip-path="url(#pad40d700cb)" style="fill: #e8edf4; stroke: #b8c5d4; stroke-width: 0.45"/>
    <path d="M 298.961228 180.070191 
L 332.400722 164.350741 
L 338.107448 146.089764 
L 336.683693 135.055668 
L 344.95146 131.324167 
L 352.693124 121.898429 
L 359.181198 119.551263 
L 376.750202 121.500339 
L 382.054936 125.347755 
L 389.293584 122.796197 
L 399.080665 140.814692 
L 408.985281 145.348615 
L 410.124909 154.171756 
L 402.522186 159.384773 
L 399.021342 171.171726 
L 409.484063 185.529087 
L 427.99209 193.808562 
L 435.764196 205.287972 
L 433.288237 216.228791 
L 438.112923 216.224497 
L 438.262011 224.270583 
L 446.621104 232.210902 
L 427.508138 230.21265 
L 416.422524 244.714025 
L 388.339282 243.507659 
L 345.750761 213.129939 
L 323.24467 202.556768 
L 305.050431 198.463084 
z
" clip-path="url(#pad40d700cb)" style="fill: #e8edf4; stroke: #b8c5d4; stroke-width: 0.45"/>
    <path d="M 498.461686 397.25869 
L 543.775948 382.153937 
L 553.846044 351.944039 
L 546.923194 341.244806 
L 547.318161 335.162627 
L 551.718998 328.911065 
L 551.761149 322.73717 
L 558.597356 319.762429 
L 555.922352 317.661923 
L 557.162673 307.825216 
L 564.875457 307.766283 
L 571.646876 318.083819 
L 580.080123 323.568084 
L 600.105572 328.294808 
L 610.994483 341.970733 
L 616.401471 343.883903 
L 616.37259 347.253611 
L 608.461542 360.495151 
L 602.098359 365.326471 
L 596.461885 375.674059 
L 589.609286 374.881783 
L 586.468284 378.48332 
L 584.042282 386.141464 
L 585.899251 396.238099 
L 584.474716 398.093897 
L 577.524546 398.044331 
L 568.089832 403.689392 
L 566.617682 411.047798 
L 563.163673 414.235634 
L 553.767987 414.113866 
L 547.85363 417.917569 
L 547.928565 424.019262 
L 540.619334 428.213249 
L 532.28522 426.789105 
L 522.183901 431.884256 
L 515.206412 432.739367 
z
" clip-path="url(#pad40d700cb)" style="fill: #e8edf4; stroke: #b8c5d4; stroke-width: 0.45"/>
    <path d="M 559.950859 290.686695 
L 564.349354 285.543929 
L 566.217252 286.855281 
L 564.793497 293.095525 
L 562.824126 295.835315 
z
" clip-path="url(#pad40d700cb)" style="fill: #e8edf4; stroke: #b8c5d4; stroke-width: 0.45"/>
    <path d="M 506.05114 53.11915 
L 512.724989 48.093469 
L 529.870926 44.950515 
L 540.080743 49.18197 
L 550.652744 61.025904 
L 575.441993 60.082589 
L 572.962132 52.474011 
L 585.866467 47.26997 
L 598.592052 38.494055 
L 618.944558 46.476524 
L 620.559552 58.52926 
L 626.33887 61.623038 
L 642.670676 60.927553 
L 647.738898 63.669295 
L 655.163652 79.241998 
L 682.291481 96.786024 
L 698.087817 104.183068 
L 718.179614 110.648115 
L 717.763571 119.89081 
L 713.213646 119.42247 
L 706.087849 115.383816 
L 703.721169 120.760362 
L 690.99012 123.681634 
L 687.97479 135.76169 
L 679.461925 140.355328 
L 667.538763 142.633023 
L 664.38371 149.477425 
L 652.994456 151.492069 
L 637.589964 145.761145 
L 636.264562 133.05 
L 625.004881 132.509458 
L 607.74186 119.132489 
L 595.678976 117.4812 
L 578.977182 109.824227 
L 568.236579 108.432085 
L 561.605661 111.245639 
L 551.503562 110.807741 
L 540.759836 119.443155 
L 527.487074 122.365988 
L 524.676252 111.683537 
L 526.872767 95.884469 
L 515.092449 90.771755 
L 518.971087 80.429241 
L 508.943922 79.547981 
L 512.28631 66.816151 
L 526.528537 70.524235 
L 539.8013 65.690963 
L 528.796865 56.625067 
L 524.46784 47.98536 
L 512.308947 51.838239 
L 510.767327 62.90629 
z
" clip-path="url(#pad40d700cb)" style="fill: #e8edf4; stroke: #b8c5d4; stroke-width: 0.45"/>
    <path d="M 379.272214 88.693885 
L 389.615509 84.391009 
L 392.01263 90.089149 
L 399.641112 97.061955 
L 410.001579 99.069964 
L 415.471013 98.625821 
L 433.285115 87.482055 
L 438.94969 86.366234 
L 443.412193 90.799075 
L 438.204249 98.272224 
L 447.624133 106.18171 
L 451.383344 105.428463 
L 456.161975 116.566375 
L 470.48382 119.712841 
L 480.975423 127.291757 
L 502.449604 129.895729 
L 526.039902 125.898835 
L 527.487074 122.365988 
L 540.759836 119.443155 
L 551.503562 110.807741 
L 561.605661 111.245639 
L 568.236579 108.432085 
L 578.977182 109.824227 
L 595.678976 117.4812 
L 607.74186 119.132489 
L 625.004881 132.509458 
L 636.264562 133.05 
L 637.589964 145.761145 
L 627.282576 175.572563 
L 633.857293 177.802253 
L 627.3981 186.073142 
L 632.346115 198.132123 
L 633.528674 207.72139 
L 644.968665 210.2676 
L 646.205864 219.989953 
L 632.506131 233.684222 
L 639.983964 241.628834 
L 646.064581 250.751322 
L 660.504292 257.392777 
L 660.921115 270.695981 
L 668.148385 273.141108 
L 669.398073 280.097132 
L 647.610104 287.89968 
L 641.918209 305.447609 
L 597.032479 297.415964 
L 579.986455 295.453228 
L 573.544435 276.931542 
L 566.314822 274.254977 
L 554.70779 276.953788 
L 539.472681 284.264189 
L 521.014611 279.253729 
L 505.766233 267.645916 
L 491.222707 263.34343 
L 481.135439 249.011437 
L 469.988941 228.872807 
L 461.860115 231.320665 
L 452.260701 226.315278 
L 446.621104 232.210902 
L 438.262011 224.270583 
L 438.112923 216.224497 
L 433.288237 216.228791 
L 435.764196 205.287972 
L 427.99209 193.808562 
L 409.484063 185.529087 
L 399.021342 171.171726 
L 402.522186 159.384773 
L 410.124909 154.171756 
L 408.985281 145.348615 
L 399.080665 140.814692 
L 389.293477 122.796 
L 381.032393 110.694949 
L 383.98762 106.017011 
z
" clip-path="url(#pad40d700cb)" style="fill: #e8edf4; stroke: #b8c5d4; stroke-width: 0.45"/>
    <path d="M 252.552611 190.182828 
L 254.31201 187.782194 
L 254.080962 181.599712 
L 257.787094 173.329994 
L 266.023638 167.637318 
L 263.553143 161.713985 
L 256.759087 160.943956 
L 255.348603 149.38727 
L 259.045368 143.171224 
L 267.135946 136.552795 
L 267.9532 128.126964 
L 272.896531 131.064628 
L 289.526513 126.862835 
L 297.564793 129.706832 
L 309.991421 129.659607 
L 327.372308 123.99191 
L 335.511282 124.247545 
L 352.693124 121.898429 
L 344.95146 131.324167 
L 336.683693 135.055668 
L 338.107448 146.089764 
L 332.400722 164.350741 
L 298.961228 180.070191 
L 269.381638 196.168216 
z
" clip-path="url(#pad40d700cb)" style="fill: #e8edf4; stroke: #b8c5d4; stroke-width: 0.45"/>
    <path d="M 371.319797 63.559235 
L 392.311587 61.203093 
L 395.438539 65.172277 
L 401.191319 67.786396 
L 398.152571 71.574488 
L 406.199437 76.755892 
L 401.941444 81.566527 
L 408.353802 85.674652 
L 415.135369 88.14983 
L 415.471013 98.625821 
L 410.001579 99.069964 
L 403.835099 90.331515 
L 403.90457 88.001132 
L 397.230721 88.035087 
L 392.757291 83.983163 
L 389.615509 84.391009 
L 383.664465 79.980415 
L 372.432885 76.225887 
L 373.886301 68.875287 
z
" clip-path="url(#pad40d700cb)" style="fill: #e8edf4; stroke: #b8c5d4; stroke-width: 0.45"/>
    <path d="M 46.60779 -47.161475 
L 49.556773 -53.250679 
L 53.745296 -57.183176 
L 57.042411 -56.301915 
L 53.14582 -63.089727 
L 66.861945 -75.652954 
L 74.357731 -77.410791 
L 75.977408 -81.6481 
L 68.380929 -94.83539 
L 75.601174 -95.424328 
L 83.879088 -99.518012 
L 95.58057 -99.853266 
L 110.839095 -98.669536 
L 127.697783 -95.044582 
L 139.593626 -94.741332 
L 145.273032 -92.558476 
L 150.940729 -95.191719 
L 154.899766 -91.660044 
L 168.530809 -92.383629 
L 174.538834 -90.923969 
L 175.51064 -98.526302 
L 180.164381 -101.842541 
L 198.771961 -102.127972 
L 202.587731 -105.563504 
L 207.175124 -104.804793 
L 222.837983 -106.264063 
L 232.490476 -97.71178 
L 228.717995 -94.653518 
L 229.969244 -89.964652 
L 242.013394 -89.23326 
L 247.386613 -82.68329 
L 247.057419 -79.711513 
L 266.241416 -74.400534 
L 277.831276 -76.792582 
L 287.153589 -69.719083 
L 295.980242 -69.882222 
L 318.245639 -64.966909 
L 318.423107 -60.531809 
L 312.28842 -52.622736 
L 315.626148 -44.293745 
L 313.249508 -39.256672 
L 298.632386 -38.149225 
L 290.846452 -33.931643 
L 290.369526 -27.221889 
L 278.309764 -26.013961 
L 268.260743 -21.127221 
L 254.11999 -20.330652 
L 241.109498 -14.700031 
L 241.869534 -6.611793 
L 239.590706 -7.071847 
L 237.630472 -10.054811 
L 222.033829 -13.890051 
L 218.054086 -10.149241 
L 215.97836 -11.790858 
L 192.498902 -15.608611 
L 191.459186 -21.241184 
L 177.463618 -19.381092 
L 171.857586 -11.062979 
L 160.161568 0.101082 
L 153.310531 -2.491182 
L 146.212054 -0.060886 
L 139.471857 -2.843998 
L 143.273999 -4.48475 
L 150.047761 -14.483034 
L 148.979164 -17.187699 
L 152.138119 -18.392894 
L 153.626661 -16.302145 
L 162.528248 -15.859954 
L 166.526312 -16.976946 
L 163.710026 -18.508418 
L 164.777062 -20.759574 
L 159.50277 -24.599573 
L 157.319524 -30.914361 
L 151.817306 -33.385246 
L 152.902294 -38.503815 
L 146.077796 -42.567838 
L 139.864482 -43.132968 
L 128.732034 -47.839007 
L 118.6916 -46.345002 
L 115.089283 -44.117263 
L 108.716733 -44.119605 
L 104.917713 -40.5891 
L 93.767312 -39.137635 
L 88.610106 -36.818571 
L 81.597491 -40.509482 
L 71.913776 -40.565683 
L 62.568046 -42.238438 
L 56.047188 -39.003768 
L 54.994203 -43.05257 
z
" clip-path="url(#pad40d700cb)" style="fill: #e8edf4; stroke: #b8c5d4; stroke-width: 0.45"/>
    <path d="M 18.43088 -12.498832 
L 30.541378 -15.347902 
L 39.673232 -25.591284 
L 46.821666 -35.835446 
L 62.568046 -42.238438 
L 71.913776 -40.565683 
L 81.597491 -40.509482 
L 88.610106 -36.818571 
L 93.767312 -39.137635 
L 104.917713 -40.5891 
L 108.716733 -44.119605 
L 115.089283 -44.117263 
L 119.693848 -42.645114 
L 137.877939 -22.815587 
L 138.36111 -16.185841 
L 136.766412 -9.736405 
L 139.471857 -2.843998 
L 146.212054 -0.060886 
L 153.310531 -2.491182 
L 160.161568 0.101082 
L 160.512824 3.996892 
L 153.187982 7.247174 
L 148.599809 5.832396 
L 144.373818 24.055125 
L 135.492526 22.469012 
L 124.50058 16.978113 
L 106.718481 20.489884 
L 99.22816 24.342373 
L 77.045224 23.547756 
L 65.438972 21.192005 
L 59.586279 22.298068 
L 52.474533 13.455024 
L 55.974596 10.905691 
L 52.248168 9.024915 
L 47.506223 12.409844 
L 38.699085 8.021496 
L 37.513403 1.794912 
L 28.311298 -1.757839 
L 26.617467 -6.564181 
z
" clip-path="url(#pad40d700cb)" style="fill: #e8edf4; stroke: #b8c5d4; stroke-width: 0.45"/>
    <path d="M 51.062487 45.008668 
L 53.547032 42.877329 
L 51.909402 41.080464 
L 54.450148 36.274122 
L 60.208391 31.551691 
L 52.8695 25.031614 
L 51.514435 19.514566 
L 55.240862 16.087876 
L 59.586279 22.298068 
L 65.438972 21.192005 
L 77.045224 23.547756 
L 99.22816 24.342373 
L 106.718481 20.489884 
L 124.50058 16.978113 
L 135.492526 22.469012 
L 144.373818 24.055125 
L 136.534583 30.312931 
L 131.018316 41.11715 
L 135.894518 49.735001 
L 122.88949 47.709039 
L 107.502171 52.460742 
L 107.337471 59.983067 
L 93.608077 61.409163 
L 82.965825 56.131358 
L 70.87328 60.282414 
L 59.700242 59.845687 
L 58.627743 49.85677 
z
" clip-path="url(#pad40d700cb)" style="fill: #e8edf4; stroke: #b8c5d4; stroke-width: 0.45"/>
    <path d="M 17.37087 85.720315 
L 24.394412 78.394303 
L 25.300651 73.485316 
L 30.209637 71.295045 
L 30.512497 67.326642 
L 40.392915 65.98914 
L 46.151159 62.687341 
L 54.336966 62.980054 
L 56.821141 60.347077 
L 70.87328 60.282414 
L 82.965825 56.131358 
L 93.608077 61.409163 
L 107.337471 59.983067 
L 107.502171 52.460742 
L 114.860577 56.460367 
L 110.184199 65.913815 
L 106.594371 67.607646 
L 89.509319 65.750677 
L 71.216729 69.676929 
L 81.687256 78.167938 
L 74.013501 80.629847 
L 65.600549 80.645068 
L 57.609884 72.865936 
L 54.774864 76.180614 
L 58.150036 85.202018 
L 65.706706 92.290738 
L 60.01325 95.600343 
L 68.425421 102.562221 
L 75.902473 106.942763 
L 76.128838 115.476703 
L 62.156687 111.473955 
L 66.612164 119.177762 
L 57.020555 120.763484 
L 62.749137 134.093619 
L 52.716509 134.282516 
L 40.33047 127.712092 
L 34.665895 115.628133 
L 32.022894 105.578332 
L 18.393412 90.02163 
z
" clip-path="url(#pad40d700cb)" style="fill: #e8edf4; stroke: #b8c5d4; stroke-width: 0.45"/>
    <path d="M 68.198276 151.351176 
L 70.992706 144.931402 
L 79.250326 150.02148 
L 91.007227 149.160905 
L 102.248174 150.233014 
L 101.882868 152.861574 
L 110.114729 151.049097 
L 108.226537 155.504964 
L 86.475255 156.788997 
L 86.626685 154.296646 
z
" clip-path="url(#pad40d700cb)" style="fill: #e8edf4; stroke: #b8c5d4; stroke-width: 0.45"/>
    <path d="M 108.313961 88.158026 
L 125.068833 73.711681 
L 148.329732 73.107522 
L 154.674182 61.628112 
L 183.463057 63.627534 
L 201.619828 53.829856 
L 219.221616 49.559764 
L 244.211471 49.238561 
L 270.575905 59.885496 
L 292.244448 65.72765 
L 309.840772 63.398828 
L 322.843458 64.744526 
L 340.677075 56.860018 
L 356.770807 56.142286 
L 371.319797 63.559235 
L 373.886301 68.875287 
L 372.432885 76.225887 
L 383.664465 79.980415 
L 389.615509 84.391009 
L 379.272214 88.693885 
L 383.98762 106.017011 
L 381.032393 110.694949 
L 389.293584 122.796197 
L 382.054936 125.347755 
L 376.750202 121.500339 
L 359.181198 119.551263 
L 352.693124 121.898429 
L 335.511282 124.247545 
L 327.372308 123.99191 
L 309.991421 129.659607 
L 297.564793 129.706832 
L 289.526513 126.862835 
L 272.896531 131.064628 
L 267.9532 128.126964 
L 267.135946 136.552795 
L 259.045368 143.171224 
L 253.491633 136.321747 
L 259.21241 130.648195 
L 250.000157 131.93457 
L 237.366679 128.459095 
L 226.979672 137.153051 
L 204.054417 138.850785 
L 191.826053 130.743815 
L 175.543423 130.236446 
L 172.061314 136.503229 
L 161.622009 138.295021 
L 147.014477 130.252058 
L 130.524217 130.524085 
L 121.575795 115.501681 
L 110.540918 107.121903 
L 117.889177 95.37593 
z
" clip-path="url(#pad40d700cb)" style="fill: #e8edf4; stroke: #b8c5d4; stroke-width: 0.45"/>
    <path d="M 106.389082 70.724841 
L 106.594371 67.607646 
L 110.184199 65.913815 
L 114.860577 56.460367 
L 107.502171 52.460742 
L 122.88949 47.709039 
L 135.894518 49.735001 
L 137.689042 55.54242 
L 150.874381 60.420574 
L 148.125224 64.120853 
L 130.189353 64.953718 
L 111.141955 77.760092 
z
" clip-path="url(#pad40d700cb)" style="fill: #e8edf4; stroke: #b8c5d4; stroke-width: 0.45"/>
    <path d="M 4.599231 46.889444 
L 11.148189 39.450249 
L 12.108286 42.292294 
L 16.172811 40.954959 
L 19.390977 45.008668 
L 23.004 46.55525 
L 24.020521 52.030259 
L 22.101106 57.170683 
L 24.246105 63.64861 
L 30.512497 67.326642 
L 30.209637 71.295045 
L 25.300651 73.485316 
L 24.394412 78.394303 
L 17.37087 85.720315 
L 14.802804 84.663037 
L 14.500724 81.339772 
L 6.133826 76.268038 
L 4.819351 69.071209 
L 6.095578 58.764601 
L 8.157056 54.075735 
L 5.615529 51.695786 
z
" clip-path="url(#pad40d700cb)" style="fill: #e8edf4; stroke: #b8c5d4; stroke-width: 0.45"/>
    <path d="M -80.705824 2.463078 
L -79.828467 -3.02587 
L -69.301739 -2.509915 
L -66.535409 -5.059247 
L -61.397717 -2.593436 
L -55.47009 -2.300723 
L -55.526291 -6.52203 
L -50.276197 -8.068333 
L -48.80795 -14.170026 
L -36.783314 -18.182531 
L -20.692704 -9.844904 
L -8.21612 -6.940414 
L -2.570479 -9.196953 
L 1.099168 -3.345902 
L 5.898095 0.958925 
L 0.082844 6.642612 
L -6.748653 3.299065 
L -17.192641 3.508257 
L -30.177375 1.000295 
L -37.234482 1.335158 
L -40.508961 4.469135 
L -45.928438 1.000295 
L -49.090515 7.26981 
L -38.420163 19.013442 
L -25.717995 27.99933 
L -20.015172 34.309825 
L -6.646154 40.027972 
L -8.307446 42.595935 
L -22.506742 37.007074 
L -31.267046 31.569254 
L -45.082303 27.079822 
L -57.784471 15.962986 
L -54.736357 14.834286 
L -61.6233 8.48164 
L -61.905866 3.382586 
L -71.61612 1.000295 
L -76.245664 7.520372 
z
" clip-path="url(#pad40d700cb)" style="fill: #e8edf4; stroke: #b8c5d4; stroke-width: 0.45"/>
    <path d="M 392.311587 61.203093 
L 396.011475 58.736111 
L 407.267253 63.079967 
L 415.409348 63.977619 
L 417.467704 62.206902 
L 410.028899 54.033194 
L 413.948907 51.950641 
L 418.195192 52.457229 
L 428.575954 61.632015 
L 435.257608 62.663924 
L 437.849871 58.821193 
L 446.868555 52.733171 
L 454.812375 60.687138 
L 462.495497 71.401983 
L 469.53309 72.108396 
L 474.185269 76.180614 
L 461.744591 77.395957 
L 459.117202 89.12671 
L 456.518695 94.417393 
L 450.97979 97.947898 
L 451.383344 105.428463 
L 447.624133 106.18171 
L 438.204249 98.272224 
L 443.412193 90.799075 
L 438.94969 86.366234 
L 433.285115 87.482055 
L 415.471013 98.625821 
L 415.135369 88.14983 
L 408.353802 85.674652 
L 401.941444 81.566527 
L 406.199437 76.755892 
L 398.152571 71.574488 
L 401.191319 67.786396 
L 395.438539 65.172277 
z
" clip-path="url(#pad40d700cb)" style="fill: #e8edf4; stroke: #b8c5d4; stroke-width: 0.45"/>
    <path d="M 389.615509 84.391009 
L 392.757291 83.983163 
L 397.230721 88.035087 
L 403.90457 88.001132 
L 403.835099 90.331515 
L 410.001579 99.069964 
L 399.641112 97.061955 
L 392.01263 90.089149 
z
" clip-path="url(#pad40d700cb)" style="fill: #e8edf4; stroke: #b8c5d4; stroke-width: 0.45"/>
    <path d="M 316.523207 28.170665 
L 318.365345 26.386679 
L 353.369958 31.41365 
L 373.936632 38.655994 
L 376.583312 41.463541 
L 385.743115 39.091579 
L 399.83079 42.251705 
L 404.454713 48.449857 
L 413.948907 51.950641 
L 410.028899 54.033194 
L 417.467704 62.206902 
L 415.409348 63.977619 
L 407.267253 63.079967 
L 396.011475 58.736111 
L 392.311587 61.203093 
L 371.319797 63.559235 
L 356.770807 56.142286 
L 340.677075 56.860018 
L 342.929011 50.405899 
L 339.15731 40.101633 
L 330.426668 34.535409 
L 322.057427 32.798257 
z
" clip-path="url(#pad40d700cb)" style="fill: #e8edf4; stroke: #b8c5d4; stroke-width: 0.45"/>
    <path d="M 261.665421 460.359592 
L 268.170646 438.164912 
L 269.660593 428.124839 
L 274.417729 423.493829 
L 285.542937 421.010585 
L 293.187373 412.389203 
L 301.956263 429.875857 
L 306.117467 443.74068 
L 314.397722 451.097915 
L 335.015621 465.365511 
L 356.318078 487.881749 
L 363.744393 492.42504 
L 359.189004 496.114 
L 352.722864 494.80268 
L 347.55986 489.914887 
L 341.348878 481.05934 
L 334.651972 476.207043 
L 330.745846 470.991172 
L 317.599301 464.934864 
L 307.24278 464.75421 
L 303.599329 461.595927 
L 294.741063 465.148145 
L 285.574204 458.291127 
L 280.856945 469.564364 
L 263.27092 466.40729 
z
" clip-path="url(#pad40d700cb)" style="fill: #e8edf4; stroke: #b8c5d4; stroke-width: 0.45"/>
    <path d="M 356.549126 454.455915 
L 359.572262 453.721401 
L 358.022836 446.819627 
L 359.854047 443.906551 
L 359.18432 437.318564 
L 365.816018 432.500124 
L 364.266593 426.132648 
L 368.269341 418.707893 
L 374.473288 422.635317 
L 378.568143 421.270105 
L 395.999767 420.923143 
L 398.769219 422.43354 
L 413.370507 423.944328 
L 419.160754 423.188739 
L 422.937137 428.223787 
L 429.986439 425.706068 
L 440.811343 409.846115 
L 454.909165 403.048937 
L 498.461686 397.25869 
L 515.206412 432.739367 
L 504.280034 436.797146 
L 501.35759 443.503388 
L 501.001652 448.65435 
L 485.962466 455.031193 
L 461.82577 462.077372 
L 448.301665 472.734845 
L 441.651233 473.567319 
L 437.119261 472.67396 
L 428.291047 478.942695 
L 418.663532 481.850697 
L 402.168589 483.493401 
L 398.86679 487.481708 
L 394.907754 488.583869 
L 392.569175 492.42582 
L 385.092903 492.092518 
L 380.267437 494.142287 
L 369.812522 493.374209 
L 365.883928 484.550679 
L 366.315581 476.29384 
L 363.845867 471.837192 
L 360.889859 460.665326 
z
" clip-path="url(#pad40d700cb)" style="fill: #e8edf4; stroke: #b8c5d4; stroke-width: 0.45"/>
    <path d="M 236.124796 260.430353 
L 241.014269 240.824069 
L 257.824561 243.226655 
L 264.354005 238.577987 
L 267.968811 233.139777 
L 279.494665 231.047857 
L 281.979991 225.989392 
L 286.97562 223.424058 
L 271.920822 208.320475 
L 302.1717 200.740778 
L 305.050431 198.463084 
L 323.24467 202.556768 
L 345.750761 213.129939 
L 388.339282 243.507659 
L 429.882623 246.171734 
L 433.644176 253.368563 
L 444.327017 252.976718 
L 450.240593 266.002822 
L 457.671592 269.452928 
L 460.259953 274.758053 
L 470.554071 281.107185 
L 471.468115 287.340014 
L 469.963182 292.370768 
L 471.874791 297.444845 
L 476.217866 301.67786 
L 480.488349 310.333959 
L 485.054666 313.330946 
L 489.241628 312.257666 
L 498.472614 336.821722 
L 543.878983 344.437716 
L 546.923194 341.244806 
L 553.846044 351.944039 
L 543.775948 382.153937 
L 498.461686 397.25869 
L 454.909165 403.048937 
L 440.811343 409.846115 
L 429.986439 425.706068 
L 422.937137 428.223787 
L 419.160754 423.188739 
L 413.370507 423.944328 
L 398.769219 422.43354 
L 395.999767 420.923143 
L 378.568143 421.270105 
L 374.473288 422.635317 
L 368.269341 418.707893 
L 364.266593 426.132648 
L 365.816018 432.500124 
L 359.18432 437.318564 
L 357.224316 430.872641 
L 352.668927 426.323496 
L 351.504321 420.297909 
L 343.702553 414.885456 
L 335.651784 402.219194 
L 331.391448 389.910432 
L 320.943558 379.51601 
L 314.207264 377.035368 
L 304.203516 362.639759 
L 302.455826 352.142303 
L 303.099794 343.188418 
L 294.43628 326.44018 
L 287.353414 320.545728 
L 279.193366 317.421898 
L 274.226618 308.76697 
L 275.052458 305.35238 
L 270.855348 297.521731 
L 266.444364 294.149291 
L 260.546399 282.912637 
L 243.64478 260.357761 
z
" clip-path="url(#pad40d700cb)" style="fill: #e8edf4; stroke: #b8c5d4; stroke-width: 0.45"/>
    <path d="M 207.4171 153.465342 
L 210.667381 149.739305 
L 221.546925 149.943033 
L 235.281003 145.436039 
L 225.075089 151.868302 
L 226.174908 154.696687 
L 218.655705 155.575215 
L 217.266295 153.122673 
L 210.253681 154.253715 
z
" clip-path="url(#pad40d700cb)" style="fill: #e8edf4; stroke: #b8c5d4; stroke-width: 0.45"/>
    <path d="M 200.240566 154.021106 
L 210.253681 154.253715 
L 217.266295 153.122673 
L 218.655705 155.575215 
L 224.556011 154.166682 
L 226.647151 155.911249 
L 211.163822 162.047287 
L 203.76951 160.086893 
z
" clip-path="url(#pad40d700cb)" style="fill: #e8edf4; stroke: #b8c5d4; stroke-width: 0.45"/>
    <path d="M 86.098959 230.43741 
L 89.989225 221.111497 
L 87.651743 214.651284 
L 93.118959 207.403049 
L 113.216173 207.153365 
L 149.742831 217.962881 
L 161.371938 213.177499 
L 167.589264 208.849343 
L 180.910271 207.603793 
L 191.650305 209.510937 
L 195.765634 217.002965 
L 199.270876 212.067592 
L 211.376694 215.636425 
L 223.150657 216.491513 
L 230.58287 212.68659 
L 240.509203 238.637253 
L 236.266842 244.708062 
L 233.01642 256.118752 
L 228.907284 263.98372 
L 225.385578 266.621035 
L 213.534277 255.006126 
L 202.756481 233.354316 
L 201.204151 234.723575 
L 207.463015 250.66226 
L 216.736515 265.847815 
L 228.152643 289.375502 
L 238.582876 306.11958 
L 252.137102 322.841303 
L 249.13591 325.474691 
L 249.623194 335.291815 
L 269.86753 351.944056 
L 90.629371 351.944056 
L 90.629371 242.604939 
z
" clip-path="url(#pad40d700cb)" style="fill: #e8edf4; stroke: #b8c5d4; stroke-width: 0.45"/>
    <path d="M -146.224284 290.099708 
L -140.229529 283.787653 
L -141.547126 274.290493 
L -139.627711 266.023507 
L -140.718944 259.136954 
L -138.058771 246.814141 
L -138.879928 239.795672 
L -143.766278 226.459293 
L -136.396944 222.95845 
L -135.089494 216.576533 
L -136.695901 210.319507 
L -126.323726 204.498819 
L -121.673107 199.659303 
L -114.310018 195.322862 
L -113.456077 183.720903 
L -95.715038 188.920246 
L -89.371737 187.620621 
L -76.752806 190.141024 
L -56.709365 196.891099 
L -49.635592 210.316632 
L -14.786333 219.57125 
L 1.305214 227.081102 
L 8.670814 223.162439 
L 15.910741 216.215094 
L 12.390999 204.644291 
L 17.128498 197.297119 
L 28.01233 190.218965 
L 38.411446 188.158657 
L 58.845046 191.249421 
L 63.99642 198.002669 
L 69.620425 198.066562 
L 74.429371 200.643306 
L 89.438199 202.415262 
L 93.118959 207.403049 
L 87.651743 214.651284 
L 89.989225 221.111497 
L 86.098959 230.43741 
L 90.629371 242.604939 
L 90.629371 382.107927 
L 73.258741 382.153846 
L 73.072347 388.490803 
L -47.416531 330.650383 
L -73.351321 344.523188 
L -81.847013 336.227321 
L -105.741733 329.714659 
L -112.370309 320.255357 
L -124.29269 313.237278 
L -131.354481 316.004779 
L -136.725563 307.581679 
L -137.293035 301.109217 
z
" clip-path="url(#pad40d700cb)" style="fill: #e8edf4; stroke: #b8c5d4; stroke-width: 0.45"/>
    <path d="M -49.090515 7.26981 
L -45.928438 1.000295 
L -40.508961 4.469135 
L -37.234482 1.335158 
L -30.177375 1.000295 
L -17.192641 3.508257 
L -6.748653 3.299065 
L 0.082775 6.64268 
L 5.559055 6.600839 
L 1.776487 13.245936 
L 9.059312 19.055278 
L 6.857622 26.160168 
L 0.47807 28.207938 
L -4.433589 31.718618 
L -6.646154 40.027972 
L -20.015172 34.309825 
L -25.717995 27.99933 
L -38.420163 19.013442 
z
" clip-path="url(#pad40d700cb)" style="fill: #e8edf4; stroke: #b8c5d4; stroke-width: 0.45"/>
    <path d="M 22.101106 57.170683 
L 24.020507 52.030187 
L 25.939787 52.155541 
L 26.617242 49.062814 
L 44.062187 45.259703 
L 51.062487 45.008668 
L 58.627743 49.85677 
L 59.700242 59.845687 
L 56.821141 60.347077 
L 54.336966 62.980054 
L 46.151159 62.687341 
L 40.392915 65.98914 
L 30.512497 67.326642 
L 24.246105 63.64861 
z
" clip-path="url(#pad40d700cb)" style="fill: #e8edf4; stroke: #b8c5d4; stroke-width: 0.45"/>
    <path d="M -2.570479 -9.196953 
L 9.00319 -13.167388 
L 18.43088 -12.498832 
L 26.617467 -6.564181 
L 28.311298 -1.757839 
L 37.513403 1.794912 
L 38.699085 8.021496 
L 47.506223 12.409844 
L 52.248168 9.024915 
L 55.974596 10.905691 
L 52.474533 13.455024 
L 55.240862 16.087876 
L 51.514435 19.514566 
L 52.8695 25.031614 
L 60.208391 31.551691 
L 54.450148 36.274122 
L 51.909402 41.080464 
L 53.547032 42.877329 
L 51.062487 45.008668 
L 38.919816 46.142065 
L 38.416582 45.008811 
L 41.916839 39.534042 
L 39.771491 39.617572 
L 27.40753 30.631972 
L 24.697712 31.467877 
L 22.608856 36.483004 
L 18.995614 37.56965 
L 20.237538 36.274103 
L 9.516084 31.512135 
L 3.300722 26.82871 
L 6.857622 26.160168 
L 9.059312 19.055278 
L 1.776487 13.245936 
L 5.559055 6.600839 
L 0.082775 6.64268 
L 5.898095 0.958925 
L 1.099168 -3.345902 
z
" clip-path="url(#pad40d700cb)" style="fill: #e8edf4; stroke: #b8c5d4; stroke-width: 0.45"/>
    <path d="M -8.307437 42.595921 
L -4.433589 31.718618 
L 3.300722 26.82871 
L 9.516084 31.512135 
L 20.237538 36.274103 
L 16.172811 40.954959 
L 12.108286 42.292294 
L 11.148189 39.450249 
L 4.599231 46.889444 
L 5.615519 51.695738 
L 2.453941 50.525572 
L -1.780263 45.593975 
z
" clip-path="url(#pad40d700cb)" style="fill: #e8edf4; stroke: #b8c5d4; stroke-width: 0.45"/>
    <path d="M 16.172811 40.954959 
L 18.995614 37.56965 
L 22.608856 36.483004 
L 24.697712 31.467877 
L 27.40753 30.631972 
L 39.771491 39.617572 
L 41.916839 39.534042 
L 38.416582 45.008811 
L 38.919816 46.142065 
L 26.617242 49.062814 
L 25.939787 52.155541 
L 24.020507 52.030187 
L 23.004 46.55525 
L 19.390977 45.008668 
z
" clip-path="url(#pad40d700cb)" style="fill: #e8edf4; stroke: #b8c5d4; stroke-width: 0.45"/>
   </g>
   <g id="PathCollection_1">
    <defs>
     <path id="m15e0f3ea6d" d="M 0 2.12132 
C 0.562581 2.12132 1.102195 1.897805 1.5 1.5 
C 1.897805 1.102195 2.12132 0.562581 2.12132 0 
C 2.12132 -0.562581 1.897805 -1.102195 1.5 -1.5 
C 1.102195 -1.897805 0.562581 -2.12132 0 -2.12132 
C -0.562581 -2.12132 -1.102195 -1.897805 -1.5 -1.5 
C -1.897805 -1.102195 -2.12132 -0.562581 -2.12132 0 
C -2.12132 0.562581 -1.897805 1.102195 -1.5 1.5 
C -1.102195 1.897805 -0.562581 2.12132 0 2.12132 
z
" style="stroke: #ffffff; stroke-width: 0.5"/>
    </defs>
    <g clip-path="url(#pad40d700cb)">
     <use xlink:href="#m15e0f3ea6d" x="15.104895" y="64.951049" style="fill: #8aa0b7; stroke: #ffffff; stroke-width: 0.5"/>
     <use xlink:href="#m15e0f3ea6d" x="476.559441" y="291.524476" style="fill: #8aa0b7; stroke: #ffffff; stroke-width: 0.5"/>
     <use xlink:href="#m15e0f3ea6d" x="211.468531" y="155.58042" style="fill: #8aa0b7; stroke: #ffffff; stroke-width: 0.5"/>
     <use xlink:href="#m15e0f3ea6d" x="237.902098" y="208.447552" style="fill: #8aa0b7; stroke: #ffffff; stroke-width: 0.5"/>
     <use xlink:href="#m15e0f3ea6d" x="404.055944" y="238.657343" style="fill: #8aa0b7; stroke: #ffffff; stroke-width: 0.5"/>
     <use xlink:href="#m15e0f3ea6d" x="254.265734" y="173.202797" style="fill: #8aa0b7; stroke: #ffffff; stroke-width: 0.5"/>
     <use xlink:href="#m15e0f3ea6d" x="5.655273" y="39.141315" style="fill: #8aa0b7; stroke: #ffffff; stroke-width: 0.5"/>
     <use xlink:href="#m15e0f3ea6d" x="45.314685" y="52.363636" style="fill: #8aa0b7; stroke: #ffffff; stroke-width: 0.5"/>
     <use xlink:href="#m15e0f3ea6d" x="245.200783" y="201.617119" style="fill: #8aa0b7; stroke: #ffffff; stroke-width: 0.5"/>
     <use xlink:href="#m15e0f3ea6d" x="487.132867" y="299.076923" style="fill: #8aa0b7; stroke: #ffffff; stroke-width: 0.5"/>
     <use xlink:href="#m15e0f3ea6d" x="28.744615" y="40.743944" style="fill: #8aa0b7; stroke: #ffffff; stroke-width: 0.5"/>
    </g>
   </g>
   <g id="PatchCollection_2">
    <defs>
     <path id="ma03ddc1636" d="M 240.509242 -193.362689 
L 248.03625 -217.511484 
L 247.683434 -223.387593 
L 249.914295 -227.819653 
L 249.920539 -237.056103 
L 252.552611 -241.817172 
L 269.381638 -235.831784 
L 298.961228 -251.929809 
L 305.050431 -233.536916 
L 302.1717 -231.259222 
L 271.920822 -223.679525 
L 286.97562 -208.575942 
L 281.979991 -206.010608 
L 279.494665 -200.952143 
L 267.968811 -198.860223 
L 264.354005 -193.422013 
L 257.824561 -188.773345 
L 241.014269 -191.175931 
z
" style="stroke: #b45309; stroke-width: 1.15"/>
    </defs>
    <g clip-path="url(#pad40d700cb)">
     <use xlink:href="#ma03ddc1636" x="0" y="432" style="fill: #f59e0b; stroke: #b45309; stroke-width: 1.15"/>
    </g>
   </g>
   <g id="PathCollection_2">
    <defs>
     <path id="m02271ebc66" d="M 0 3.316625 
C 0.879579 3.316625 1.723251 2.967164 2.345208 2.345208 
C 2.967164 1.723251 3.316625 0.879579 3.316625 0 
C 3.316625 -0.879579 2.967164 -1.723251 2.345208 -2.345208 
C 1.723251 -2.967164 0.879579 -3.316625 0 -3.316625 
C -0.879579 -3.316625 -1.723251 -2.967164 -2.345208 -2.345208 
C -2.967164 -1.723251 -3.316625 -0.879579 -3.316625 0 
C -3.316625 0.879579 -2.967164 1.723251 -2.345208 2.345208 
C -1.723251 2.967164 -0.879579 3.316625 0 3.316625 
z
" style="stroke: #ffffff"/>
    </defs>
    <g clip-path="url(#pad40d700cb)">
     <use xlink:href="#m02271ebc66" x="256.783217" y="216" style="fill: #f97316; stroke: #ffffff"/>
    </g>
   </g>
   <g id="PathCollection_3">
    <path d="M 256.783217 220.449719 
C 257.963296 220.449719 259.095201 219.980869 259.929643 219.146427 
C 260.764085 218.311984 261.232936 217.180079 261.232936 216 
C 261.232936 214.819921 260.764085 213.688016 259.929643 212.853573 
C 259.095201 212.019131 257.963296 211.550281 256.783217 211.550281 
C 255.603137 211.550281 254.471232 212.019131 253.63679 212.853573 
C 252.802348 213.688016 252.333498 214.819921 252.333498 216 
C 252.333498 217.180079 252.802348 218.311984 253.63679 219.146427 
C 254.471232 219.980869 255.603137 220.449719 256.783217 220.449719 
L 256.783217 220.449719 
z
" clip-path="url(#pad40d700cb)" style="fill: none; stroke: #7c2d12; stroke-width: 1.1"/>
   </g>
  </g>
 </g>
 <defs>
  <clipPath id="pad40d700cb">
   <rect x="0" y="0" width="513.566434" height="432"/>
  </clipPath>
 </defs>
</svg>
