<?xml version="1.0" encoding="utf-8" standalone="no"?>
<!DOCTYPE svg PUBLIC "-//W3C//DTD SVG 1.1//EN"
  "http://www.w3.org/Graphics/SVG/1.1/DTD/svg11.dtd">
<svg xmlns:xlink="http://www.w3.org/1999/xlink" width="498.428208pt" height="432pt" viewBox="0 0 498.428208 432" xmlns="http://www.w3.org/2000/svg" version="1.1">
 <metadata>
  <rdf:RDF xmlns:dc="http://purl.org/dc/elements/1.1/" xmlns:cc="http://creativecommons.org/ns#" xmlns:rdf="http://www.w3.org/1999/02/22-rdf-syntax-ns#">
   <cc:Work>
    <dc:type rdf:resource="http://purl.org/dc/dcmitype/StillImage"/>
    <dc:date>2026-06-09T04:57:10.758937</dc:date>
    <dc:format>image/svg+xml</dc:format>
    <dc:creator>
     <cc:Agent>
      <dc:title>Matplotlib v3.10.8, https://matplotlib.org/</dc:title>
     </cc:Agent>
    </dc:creator>
   </cc:Work>
  </rdf:RDF>
 </metadata>
 <defs>
  <style type="text/css">*{stroke-linejoin: round; stroke-linecap: butt}</style>
 </defs>
 <g id="figure_1">
  <g id="patch_1">
   <path d="M 0 432 
L 498.428208 432 
L 498.428208 0 
L 0 0 
z
" style="fill: #eaf3ff"/>
  </g>
  <g id="axes_1">
   <g id="PatchCollection_1">
    <path d="M 201.856949 518.661992 
L 204.357198 517.623692 
L 204.665031 513.338421 
L 206.273277 510.81125 
L 209.850432 508.745318 
L 212.432973 509.746536 
L 215.794746 505.983462 
L 221.149303 506.080485 
L 221.779191 508.863168 
L 225.451337 510.604504 
L 239.446028 496.497551 
L 239.11686 488.410093 
L 243.385876 478.860685 
L 247.890084 473.797198 
L 254.362184 469.059322 
L 255.491918 465.923597 
L 255.736762 462.318504 
L 257.338913 458.907456 
L 256.824335 453.336503 
L 258.049569 444.625506 
L 259.970727 438.492733 
L 262.914946 433.23647 
L 264.381468 420.444408 
L 268.208546 415.453561 
L 273.472175 412.288119 
L 281.561157 415.628812 
L 287.82194 419.254986 
L 302.345939 422.141296 
L 305.285078 416.205109 
L 306.635274 415.447465 
L 311.115099 416.434713 
L 322.058896 411.528698 
L 325.936772 413.608091 
L 329.119738 413.313212 
L 330.59388 410.922939 
L 334.24723 410.080717 
L 347.94628 411.341255 
L 351.191727 410.298384 
L 357.146202 418.413273 
L 361.55999 419.605235 
L 364.191297 417.954572 
L 368.73665 418.601477 
L 374.211089 416.522085 
L 376.545738 420.720492 
L 385.199588 427.252787 
L 384.60475 438.74672 
L 388.544598 440.077867 
L 385.38449 443.568158 
L 381.60821 446.178892 
L 377.849708 451.305114 
L 375.781745 455.875358 
L 375.228561 463.765722 
L 372.951312 467.521684 
L 372.869021 474.93252 
L 370.042144 477.672533 
L 369.677926 483.521857 
L 368.327731 484.279754 
L 367.417949 489.65717 
L 369.889752 494.126327 
L 370.515068 505.981938 
L 372.284342 515.025404 
L 371.301412 520.137149 
L 373.26778 525.838652 
L 378.968775 531.343061 
L 384.277106 543.728997 
L 380.404819 542.728796 
L 367.201552 544.38784 
L 364.566689 545.562784 
L 361.765211 551.83779 
L 363.965248 556.172842 
L 361.002234 577.677932 
L 370.530307 583.252442 
L 373.228158 581.46488 
L 374.050061 592.064779 
L 366.526962 591.983503 
L 358.867726 582.384822 
L 351.334976 581.011259 
L 349.129352 575.8604 
L 343.120017 578.963615 
L 335.248448 577.592593 
L 331.963378 573.129531 
L 325.721898 572.222797 
L 321.11508 572.460021 
L 320.551229 569.404556 
L 312.683723 568.577573 
L 299.889884 570.710049 
L 300.415637 559.012418 
L 297.136663 555.364655 
L 296.41534 549.319254 
L 297.863575 543.393734 
L 295.8713 539.601198 
L 295.690969 533.416104 
L 283.763733 533.501951 
L 284.61967 529.960355 
L 279.60444 529.997437 
L 279.074623 531.700675 
L 272.977916 532.084703 
L 269.038576 540.271216 
L 263.606807 538.882923 
L 260.363391 540.265629 
L 253.863353 541.060608 
L 247.839794 532.742022 
L 242.593944 519.5225 
L 213.586582 519.392459 
L 203.234067 521.710853 
z
" clip-path="url(#p3695c2d797)" style="fill: #e8edf4; stroke: #b8c5d4; stroke-width: 0.45"/>
    <path d="M 484.945469 434.375986 
L 496.225871 420.126462 
L 502.527428 419.945002 
L 511.287837 413.015314 
L 524.093544 412.58211 
L 551.871077 383.07884 
L 563.162779 368.83778 
L 563.261818 349.582297 
L 576.144644 346.938518 
L 580.796546 343.573448 
L 584.523848 343.546514 
L 583.876156 357.148542 
L 581.800769 360.698906 
L 579.030801 371.324833 
L 568.220956 394.858404 
L 559.785426 409.264617 
L 539.83279 433.680323 
L 529.995319 441.637924 
L 515.291359 451.398328 
L 506.128121 458.875246 
L 495.370277 470.782796 
L 493.103305 475.966202 
L 490.883516 478.293726 
L 485.062937 470.18445 
z
" clip-path="url(#p3695c2d797)" style="fill: #e8edf4; stroke: #b8c5d4; stroke-width: 0.45"/>
    <path d="M 415.276227 460.668087 
L 422.929111 450.178339 
L 426.506114 443.013324 
L 421.032235 426.796345 
L 416.371583 419.971592 
L 429.081716 407.624105 
L 434.187766 409.273247 
L 434.187766 414.79044 
L 437.545965 418.025476 
L 444.38772 418.025476 
L 456.830623 426.37361 
L 462.239281 426.201931 
L 464.415326 427.335613 
L 470.970635 428.10903 
L 473.875919 424.012615 
L 482.855927 419.901455 
L 486.820523 423.223274 
L 493.537129 423.225024 
L 484.945469 434.375986 
L 485.062937 470.18445 
L 490.883516 478.293726 
L 483.999046 482.218805 
L 481.571847 486.320234 
L 477.887502 487.040765 
L 476.49313 493.966816 
L 473.336454 497.932985 
L 471.417952 504.473506 
L 467.459745 507.719733 
L 453.350691 497.893272 
L 452.680193 492.190651 
L 415.375924 471.08595 
z
" clip-path="url(#p3695c2d797)" style="fill: #e8edf4; stroke: #b8c5d4; stroke-width: 0.45"/>
    <path d="M 297.742461 338.006971 
L 298.733119 334.396645 
L 301.278965 330.298952 
L 300.165336 326.2278 
L 303.396719 323.212969 
L 301.347086 320.916311 
L 303.946506 314.846641 
L 308.435232 307.607607 
L 316.911556 308.29452 
L 316.548931 265.149509 
L 327.853318 265.119626 
L 327.853318 245.489705 
L 444.497193 245.489705 
L 447.667238 255.134313 
L 445.511442 256.917556 
L 446.939629 267.037243 
L 450.548087 278.772868 
L 459.673185 284.82595 
L 454.69837 290.436538 
L 447.458353 292.052574 
L 444.362523 295.066323 
L 443.392902 301.600161 
L 439.159458 316.043923 
L 440.204278 319.979619 
L 438.638473 328.421342 
L 434.641734 338.104287 
L 428.712927 342.974217 
L 424.497275 350.483279 
L 423.509566 354.501644 
L 418.853142 357.254803 
L 415.945162 367.541894 
L 416.07649 376.379172 
L 415.962589 368.71455 
L 414.601842 368.520157 
L 414.770596 363.626303 
L 413.58932 360.251232 
L 408.526713 356.369899 
L 407.345438 349.282249 
L 408.526713 342.025845 
L 403.970366 341.350831 
L 403.295352 343.544627 
L 397.388977 344.050888 
L 399.751527 346.919699 
L 400.595295 352.826074 
L 395.19518 358.226189 
L 390.301326 365.313839 
L 385.238719 366.326361 
L 376.969793 360.588739 
L 373.257215 362.613782 
L 372.244693 365.482593 
L 367.182086 367.338882 
L 366.844579 369.363925 
L 357.056871 369.363925 
L 355.706842 367.338882 
L 348.619192 367.001375 
L 345.075367 368.688911 
L 342.375309 367.845143 
L 335.625166 359.407464 
L 328.537516 360.757493 
L 325.837458 365.313839 
L 323.306155 374.089025 
L 316.912437 377.016447 
L 323.600598 380.855435 
L 316.114581 376.558481 
L 312.705566 373.727794 
L 312.074154 370.672837 
L 313.671225 366.58212 
L 313.642271 362.571156 
L 307.97277 356.425429 
L 306.976769 349.837946 
L 303.363986 346.940582 
L 303.255169 341.230589 
L 301.194723 337.438115 
z
" clip-path="url(#p3695c2d797)" style="fill: #e8edf4; stroke: #b8c5d4; stroke-width: 0.45"/>
    <path d="M 215.206512 320.520031 
L 219.450833 307.571728 
L 231.989474 298.302761 
L 232.507607 285.517557 
L 236.295063 265.570424 
L 238.433127 261.339253 
L 234.342918 257.969606 
L 234.184774 254.843348 
L 230.506697 252.286898 
L 228.092594 237.006992 
L 238.016372 231.632296 
L 316.42763 269.273447 
L 316.911556 308.29452 
L 308.435232 307.607607 
L 303.946506 314.846641 
L 301.347086 320.916311 
L 303.396719 323.212969 
L 300.165336 326.2278 
L 301.278965 330.298952 
L 298.733119 334.396645 
L 297.742461 338.006971 
L 301.194723 337.438115 
L 303.255169 341.230589 
L 303.363986 346.940582 
L 306.976769 349.837946 
L 306.858275 352.218894 
L 300.63559 353.894955 
L 295.648807 357.874426 
L 288.542247 368.59954 
L 279.290512 373.153529 
L 269.797997 372.54269 
L 267.025982 373.446376 
L 267.99926 376.906697 
L 258.699268 384.180634 
L 246.323999 387.941422 
L 243.868451 385.715478 
L 242.240394 385.523464 
L 240.42845 388.051906 
L 232.30137 388.790755 
L 233.84104 386.127953 
L 229.357659 375.282703 
L 225.076452 373.614008 
L 219.27437 367.876947 
L 221.409894 363.23838 
L 225.889719 364.225882 
L 228.663258 363.525893 
L 234.153444 363.622154 
L 228.802951 354.686887 
L 229.162597 348.157386 
L 228.50604 341.635483 
L 224.59794 335.340942 
L 225.58087 330.710756 
L 219.27691 330.484454 
L 219.298753 324.161444 
z
" clip-path="url(#p3695c2d797)" style="fill: #e8edf4; stroke: #b8c5d4; stroke-width: 0.45"/>
    <path d="M 350.34595 -103.221422 
L 354.558073 -106.341146 
L 351.643155 -115.509209 
L 358.637614 -121.17374 
L 357.157435 -122.8895 
L 368.329904 -128.32229 
L 358.031116 -132.996113 
L 388.208827 -151.222449 
L 391.905864 -156.235647 
L 377.355449 -162.97037 
L 381.374034 -169.375925 
L 372.524614 -176.691516 
L 379.142305 -185.118774 
L 367.709526 -196.308212 
L 376.78093 -203.720064 
L 361.726605 -210.269884 
L 363.161633 -217.152427 
L 371.100462 -218.058185 
L 387.826335 -222.001843 
L 397.967255 -225.421076 
L 414.115326 -219.478606 
L 441.034414 -217.139089 
L 478.175518 -206.021274 
L 485.720262 -201.349416 
L 486.369822 -194.807125 
L 475.457452 -189.642495 
L 459.406402 -187.021351 
L 415.523361 -194.492863 
L 408.305559 -193.243679 
L 424.331543 -186.044456 
L 425.600976 -171.439384 
L 445.937274 -165.890012 
L 447.20769 -170.656334 
L 441.286246 -174.880735 
L 447.542595 -178.603908 
L 471.305498 -172.485482 
L 479.583749 -174.880735 
L 472.968226 -182.079761 
L 495.876713 -191.707266 
L 504.949221 -191.140572 
L 514.127499 -187.705021 
L 519.853515 -194.460719 
L 511.656655 -200.320422 
L 516.468981 -206.199293 
L 509.242726 -212.296585 
L 536.73873 -209.14325 
L 542.354946 -203.63821 
L 529.908619 -202.424709 
L 529.975954 -196.954664 
L 537.713365 -193.589102 
L 552.900661 -195.721011 
L 555.305055 -201.990817 
L 610.142833 -215.113736 
L 617.557332 -214.62981 
L 607.86613 -208.664632 
L 620.05973 -207.639472 
L 627.101871 -210.99776 
L 645.526449 -211.269261 
L 660.123657 -215.344149 
L 671.324043 -209.422813 
L 682.49494 -215.932665 
L 672.194776 -221.627226 
L 677.306325 -224.871093 
L 706.343855 -221.896467 
L 719.949569 -218.824082 
L 755.573575 -207.59337 
L 762.145061 -212.737357 
L 752.155522 -217.934721 
L 751.868292 -220.019938 
L 740.021885 -220.984448 
L 743.262607 -225.645001 
L 738.005182 -233.313897 
L 737.707729 -236.460252 
L 755.84783 -245.361523 
L 762.299194 -254.295528 
L 769.609102 -256.22848 
L 795.63416 -253.636236 
L 797.683597 -248.16855 
L 788.365636 -240.195713 
L 794.479835 -237.062039 
L 797.642803 -230.190446 
L 795.409645 -216.72063 
L 806.253698 -210.695392 
L 802.034999 -204.133932 
L 782.781171 -190.17154 
L 794.016847 -188.723301 
L 797.926788 -192.262065 
L 808.741843 -194.786286 
L 811.351878 -199.650416 
L 819.85956 -204.331219 
L 814.131283 -209.919714 
L 818.717719 -216.409317 
L 807.968918 -217.218121 
L 805.604925 -222.685218 
L 813.448498 -232.555619 
L 800.682405 -240.571117 
L 818.275177 -247.196668 
L 815.998964 -254.186514 
L 820.901628 -254.409653 
L 826.067241 -248.959857 
L 822.18905 -239.474002 
L 832.708323 -237.678177 
L 828.226084 -244.766913 
L 844.676621 -248.631637 
L 865.077305 -249.152032 
L 883.242766 -243.547906 
L 874.501133 -251.73474 
L 873.521878 -262.207026 
L 890.615193 -264.1907 
L 914.258662 -263.7573 
L 935.560453 -265.044722 
L 927.571298 -270.183696 
L 938.94705 -276.639583 
L 950.240526 -276.909905 
L 969.352706 -281.786224 
L 995.309348 -283.096845 
L 998.588898 -285.78896 
L 1024.400156 -286.701175 
L 1032.443079 -284.494166 
L 1054.504623 -289.717874 
L 1072.56343 -289.554599 
L 1075.273043 -293.797283 
L 1084.66571 -297.981381 
L 1107.871749 -302.015376 
L 1124.730424 -298.830193 
L 1111.345636 -296.40722 
L 1133.611642 -294.901181 
L 1136.264437 -290.043342 
L 1145.247002 -292.435448 
L 1173.984326 -292.304219 
L 1196.143382 -287.509586 
L 1204.033451 -283.827305 
L 1201.587968 -278.717231 
L 1164.881739 -270.351394 
L 1157.497025 -267.434568 
L 1184.226396 -263.57869 
L 1193.076748 -265.43841 
L 1198.090391 -259.128792 
L 1202.407978 -261.682896 
L 1218.12609 -263.235725 
L 1249.665428 -261.612513 
L 1252.06068 -257.014872 
L 1293.156157 -255.552379 
L 1293.717543 -263.060556 
L 1314.578855 -261.340029 
L 1330.271703 -261.393995 
L 1346.145225 -256.215799 
L 1350.670027 -249.92476 
L 1344.854952 -245.808784 
L 1357.201211 -238.073044 
L 1372.659616 -234.081613 
L 1382.144685 -244.396227 
L 1397.91342 -239.973951 
L 1414.666226 -242.616523 
L 1433.693181 -239.592649 
L 1440.933297 -242.348953 
L 1457.01246 -240.970801 
L 1449.916057 -250.096489 
L 1462.894083 -254.354999 
L 1551.676085 -247.971362 
L 1560.043101 -242.136627 
L 1585.775031 -234.624518 
L 1625.467978 -236.484237 
L 1645.038427 -234.865351 
L 1653.222017 -230.800883 
L 1652.02621 -223.612669 
L 1664.135371 -220.814096 
L 1677.293087 -222.826867 
L 1694.725533 -223.084312 
L 1713.283307 -221.155292 
L 1731.913919 -222.243462 
L 1749.037215 -213.505761 
L 1761.218921 -216.649658 
L 1753.269676 -222.932243 
L 1757.64644 -227.299374 
L 1789.008348 -224.550933 
L 1809.455723 -225.138958 
L 1837.726226 -220.447637 
L 1851.488088 -216.158226 
L 1851.488088 -176.996608 
L 1838.779991 -172.624477 
L 1826.041225 -173.344812 
L 1834.905044 -168.112552 
L 1840.756293 -160.013107 
L 1845.298592 -157.365423 
L 1846.439057 -153.298989 
L 1843.901861 -150.695638 
L 1825.579416 -152.83659 
L 1798.104742 -145.437132 
L 1789.364387 -144.291555 
L 1760.055257 -131.351177 
L 1756.441294 -126.884372 
L 1742.3807 -133.684501 
L 1716.769088 -125.968028 
L 1712.296679 -129.619345 
L 1702.827928 -125.408215 
L 1689.680926 -126.755993 
L 1686.513928 -120.290867 
L 1674.720209 -110.778176 
L 1675.070547 -106.805323 
L 1686.266215 -104.60254 
L 1684.949303 -90.292268 
L 1675.823615 -89.92807 
L 1671.615238 -81.705259 
L 1675.704772 -77.473093 
L 1658.515026 -72.451881 
L 1655.103657 -61.228492 
L 1640.449338 -58.831077 
L 1637.502726 -48.843995 
L 1623.334004 -39.686066 
L 1619.699005 -46.458377 
L 1610.00338 -82.64254 
L 1614.729203 -96.275532 
L 1623.022986 -102.141821 
L 1623.536107 -106.735727 
L 1638.811578 -108.934775 
L 1656.37083 -121.310817 
L 1673.292022 -131.418217 
L 1690.962745 -139.261496 
L 1698.86461 -153.118807 
L 1686.920002 -152.289753 
L 1681.017047 -144.192175 
L 1656.08419 -133.396288 
L 1648.031927 -145.484413 
L 1622.65466 -142.146769 
L 1598.054151 -125.669494 
L 1606.170603 -119.641503 
L 1569.033037 -116.062829 
L 1569.744919 -123.170537 
L 1554.464926 -124.662421 
L 1542.286661 -119.833481 
L 1512.230852 -121.523143 
L 1479.896373 -118.609659 
L 1410.382945 -76.238949 
L 1425.870152 -74.999988 
L 1430.703613 -68.844208 
L 1440.2512 -66.658923 
L 1446.541649 -71.569352 
L 1457.323871 -70.931686 
L 1471.516284 -60.117713 
L 1471.849714 -51.754433 
L 1464.164598 -41.933378 
L 1463.335544 -30.195099 
L 1458.900784 -14.478855 
L 1444.085058 -0.254398 
L 1440.791943 6.544945 
L 1407.858626 35.147403 
L 1394.760086 40.915 
L 1388.56135 41.042592 
L 1382.386205 36.264572 
L 1369.192511 43.45829 
L 1367.660324 46.729092 
L 1366.284138 45.008859 
L 1366.223845 40.015125 
L 1371.245171 39.749963 
L 1372.659371 28.135639 
L 1370.070518 19.716915 
L 1378.507171 16.244978 
L 1390.437386 17.985575 
L 1397.048231 8.422683 
L 1400.416997 -2.346496 
L 1404.235521 -5.943945 
L 1409.401149 -14.788693 
L 1393.155116 -11.890954 
L 1384.633517 -8.013238 
L 1369.69767 -8.024739 
L 1365.716887 -17.260496 
L 1354.073609 -24.248697 
L 1336.965473 -27.391021 
L 1333.328957 -37.019678 
L 1320.146009 -57.200479 
L 1311.514003 -60.820304 
L 1296.801183 -63.747208 
L 1283.769465 -63.481073 
L 1271.554208 -61.708497 
L 1263.434748 -56.817974 
L 1268.828418 -54.481801 
L 1268.950417 -49.054552 
L 1263.483812 -45.903479 
L 1254.610458 -35.47759 
L 1254.699622 -31.152067 
L 1240.847165 -24.940558 
L 1229.046923 -28.651818 
L 1217.318813 -27.832456 
L 1212.172018 -31.126161 
L 1206.277485 -32.188335 
L 1191.879463 -25.260836 
L 1178.938311 -23.633033 
L 1169.902465 -21.196788 
L 1157.5211 -22.797415 
L 1148.40601 -22.695058 
L 1142.439345 -27.719685 
L 1132.812217 -32.443846 
L 1122.960564 -33.738672 
L 1101.236029 -30.631902 
L 1087.271126 -34.766298 
L 1085.39676 -42.132335 
L 1064.916378 -45.809664 
L 1053.904512 -49.87295 
L 1043.723184 -39.685527 
L 1047.714338 -33.8997 
L 1038.159659 -27.054642 
L 1023.948177 -29.525978 
L 1014.13724 -29.879592 
L 1007.567101 -34.471171 
L 997.311011 -34.616196 
L 988.763926 -37.632803 
L 973.812212 -33.009221 
L 955.055771 -24.542814 
L 940.845699 -22.030882 
L 935.629819 -28.043773 
L 922.968053 -26.728374 
L 918.783361 -30.90062 
L 911.91047 -32.808571 
L 907.179706 -38.48874 
L 901.752509 -40.257506 
L 887.626761 -37.73135 
L 874.085691 -43.394755 
L 868.847461 -38.24796 
L 846.88113 -63.212608 
L 834.34077 -70.807077 
L 837.937735 -73.888957 
L 813.301246 -64.612731 
L 803.872982 -64.052036 
L 804.687265 -69.41726 
L 792.062073 -72.769636 
L 781.799469 -70.377331 
L 778.704382 -80.565517 
L 761.039069 -82.684023 
L 752.201333 -78.606006 
L 727.604654 -74.977379 
L 722.804355 -72.549175 
L 686.021516 -69.128587 
L 681.514176 -65.774069 
L 688.610576 -59.040616 
L 679.173939 -56.484743 
L 681.014837 -53.806703 
L 671.58074 -49.018284 
L 687.509796 -42.257655 
L 685.046629 -37.602324 
L 671.239381 -38.026229 
L 668.38355 -35.109187 
L 655.811475 -40.20302 
L 640.227739 -40.005538 
L 629.79782 -35.858892 
L 596.491986 -46.641726 
L 581.13694 -46.387231 
L 560.845401 -35.695897 
L 559.621183 -28.516443 
L 549.512495 -34.217184 
L 541.669373 -23.417143 
L 544.540443 -21.412169 
L 538.866371 -13.962219 
L 547.209935 -7.294573 
L 554.50382 -7.569024 
L 560.77022 -1.001256 
L 559.772647 4.057095 
L 564.765353 5.646689 
L 560.285375 11.476214 
L 550.755285 13.096181 
L 540.985346 23.243491 
L 549.920039 32.572461 
L 548.95258 39.193686 
L 559.685358 50.770361 
L 553.816053 54.732409 
L 552.12907 57.233167 
L 547.780811 56.561625 
L 541.025261 50.590895 
L 532.083289 47.982994 
L 529.074151 43.949386 
L 519.906232 41.892852 
L 513.945252 43.436468 
L 512.222857 41.609384 
L 498.838561 36.896241 
L 476.058402 33.624809 
L 474.859583 34.785784 
L 462.326374 26.479494 
L 451.111636 22.771557 
L 442.621943 16.996687 
L 449.77526 15.425672 
L 457.931916 7.204335 
L 452.43474 3.314643 
L 466.923524 -0.697726 
L 466.663327 -2.846641 
L 457.839398 -1.262354 
L 458.14977 -5.628901 
L 463.216668 -8.373602 
L 472.729139 -9.094301 
L 474.275799 -12.372308 
L 472.103686 -17.792614 
L 476.095992 -22.939648 
L 475.980501 -25.825904 
L 461.490717 -29.024671 
L 455.746544 -28.918505 
L 449.679807 -33.521767 
L 442.137406 -31.96508 
L 429.652922 -35.421337 
L 429.867154 -37.355298 
L 426.370393 -41.617861 
L 418.53235 -42.093833 
L 417.718067 -45.145234 
L 420.173107 -47.135477 
L 413.891497 -52.701097 
L 403.698486 -51.751439 
L 400.713121 -52.24519 
L 398.22991 -50.009429 
L 394.558736 -50.406851 
L 392.141056 -56.701648 
L 389.832821 -59.964621 
L 391.724481 -60.883069 
L 399.656027 -60.541934 
L 403.481073 -62.691681 
L 400.649625 -65.312574 
L 394.021069 -67.04248 
L 394.612351 -68.81785 
L 390.612053 -70.610999 
L 384.44931 -77.046779 
L 386.555879 -79.698659 
L 385.593268 -84.313097 
L 375.983411 -86.657398 
L 370.82544 -85.483977 
L 369.429019 -87.924286 
L 359.08006 -90.389485 
L 355.92046 -96.191059 
L 355.082302 -100.957889 
z
" clip-path="url(#p3695c2d797)" style="fill: #e8edf4; stroke: #b8c5d4; stroke-width: 0.45"/>
    <path d="M 587.910777 -246.151662 
L 597.962063 -248.260771 
L 597.6268 -253.620915 
L 617.123868 -262.004014 
L 608.087006 -263.205881 
L 631.621453 -271.833316 
L 628.962208 -276.295362 
L 650.948857 -281.485335 
L 683.4013 -287.800978 
L 716.118398 -289.640861 
L 732.953173 -293.285068 
L 752.082975 -294.562116 
L 758.916245 -290.68043 
L 752.314103 -287.621663 
L 687.465602 -278.059556 
L 656.929746 -268.703178 
L 626.872402 -249.654906 
L 628.872804 -241.489474 
L 647.675979 -233.427668 
L 641.869326 -232.565382 
L 609.749098 -233.842429 
L 607.14065 -238.206944 
L 589.347328 -240.842315 
z
" clip-path="url(#p3695c2d797)" style="fill: #e8edf4; stroke: #b8c5d4; stroke-width: 0.45"/>
    <path d="M -1687.276539 -176.996608 
L -1687.276539 -216.158226 
L -1663.19328 -208.651755 
L -1637.421735 -198.879752 
L -1638.267106 -192.770075 
L -1631.637624 -190.324493 
L -1633.918063 -197.467195 
L -1607.234696 -196.001458 
L -1587.990403 -186.802243 
L -1597.736652 -182.51788 
L -1613.84963 -181.500682 
L -1614.092921 -171.895688 
L -1618.028125 -169.850086 
L -1627.233926 -170.144098 
L -1634.725098 -173.571293 
L -1647.795034 -176.437988 
L -1649.993294 -180.702101 
L -1659.97556 -182.309978 
L -1671.154812 -181.034843 
L -1676.496282 -184.474522 
L -1674.361129 -188.128002 
L -1686.13401 -185.792909 
L -1681.699839 -181.168431 
z
" clip-path="url(#p3695c2d797)" style="fill: #e8edf4; stroke: #b8c5d4; stroke-width: 0.45"/>
    <path d="M 1473.961628 -48.772678 
L 1474.83128 -62.205549 
L 1483.917924 -66.72906 
L 1480.013634 -71.283557 
L 1484.388308 -72.663723 
L 1490.34583 -56.688949 
L 1490.094383 -47.015341 
L 1494.151573 -37.096382 
L 1504.041832 -19.685565 
L 1489.491417 -22.931012 
L 1483.443476 -8.727036 
L 1493.025902 1.347109 
L 1492.748548 8.216445 
L 1485.301646 2.290417 
L 1478.856468 9.898856 
L 1477.036905 1.649862 
L 1478.133113 -7.926469 
L 1477.012522 -18.533479 
L 1479.286723 -25.964634 
L 1479.721041 -39.108976 
z
" clip-path="url(#p3695c2d797)" style="fill: #e8edf4; stroke: #b8c5d4; stroke-width: 0.45"/>
    <path d="M 401.12712 16.183005 
L 402.863376 14.298421 
L 412.274107 11.03113 
L 410.778252 9.848113 
L 413.368173 7.413684 
L 423.518093 9.909566 
L 424.793766 11.850807 
L 426.276772 12.150199 
L 426.356677 13.000547 
L 431.16567 15.37177 
L 441.192066 14.782012 
L 439.272431 18.289067 
L 428.511504 19.991796 
L 415.167529 25.678568 
L 409.701218 23.679181 
L 411.868744 19.060171 
z
" clip-path="url(#p3695c2d797)" style="fill: #e8edf4; stroke: #b8c5d4; stroke-width: 0.45"/>
    <path d="M 522.946966 -330.442369 
L 542.136709 -332.23247 
L 557.07166 -332.351336 
L 559.08019 -329.702758 
L 564.726324 -332.056203 
L 573.991774 -333.677149 
L 588.571143 -331.52283 
L 584.769464 -330.024306 
L 562.733033 -327.982504 
L 561.36201 -326.369431 
L 549.872649 -324.744676 
L 539.223984 -327.075008 
L 544.823385 -330.14368 
z
" clip-path="url(#p3695c2d797)" style="fill: #e8edf4; stroke: #b8c5d4; stroke-width: 0.45"/>
    <path d="M 978.406733 -328.001114 
L 1003.930958 -334.716313 
L 1025.195345 -336.935905 
L 1044.294402 -331.987287 
L 1066.930749 -322.483344 
L 1064.503795 -313.644346 
L 1043.056719 -312.418164 
L 1015.677002 -315.254533 
L 999.362216 -319.007147 
L 991.817963 -326.058037 
z
" clip-path="url(#p3695c2d797)" style="fill: #e8edf4; stroke: #b8c5d4; stroke-width: 0.45"/>
    <path d="M 1428.550569 -278.067277 
L 1433.832864 -284.825335 
L 1446.801601 -286.669326 
L 1472.757849 -286.238088 
L 1508.2897 -281.025636 
L 1500.560596 -273.725705 
L 1464.32571 -273.997796 
L 1448.024096 -271.675974 
z
" clip-path="url(#p3695c2d797)" style="fill: #e8edf4; stroke: #b8c5d4; stroke-width: 0.45"/>
    <path d="M 275.367935 -73.255513 
L 277.607593 -77.581422 
L 291.172538 -80.769468 
L 301.467144 -79.047436 
L 305.812356 -77.487193 
L 304.763389 -74.795437 
L 305.550241 -72.286806 
L 287.474485 -72.13924 
z
" clip-path="url(#p3695c2d797)" style="fill: #e8edf4; stroke: #b8c5d4; stroke-width: 0.45"/>
    <path d="M 1456.946501 -259.470676 
L 1466.271048 -263.355748 
L 1478.561964 -264.265211 
L 1492.527895 -260.506944 
L 1493.71751 -257.923548 
L 1478.813216 -257.854739 
z
" clip-path="url(#p3695c2d797)" style="fill: #e8edf4; stroke: #b8c5d4; stroke-width: 0.45"/>
    <path d="M 1059.57292 -304.20823 
L 1077.529791 -317.114793 
L 1085.604564 -318.21987 
L 1092.991391 -317.579747 
L 1117.906408 -311.996854 
L 1114.98732 -308.001491 
z
" clip-path="url(#p3695c2d797)" style="fill: #e8edf4; stroke: #b8c5d4; stroke-width: 0.45"/>
    <path d="M -1687.276539 -234.526015 
L -1687.276539 -241.244901 
L -1677.685799 -241.636285 
L -1663.467976 -238.824442 
L -1664.309711 -237.480596 
L -1674.436525 -235.123877 
z
" clip-path="url(#p3695c2d797)" style="fill: #e8edf4; stroke: #b8c5d4; stroke-width: 0.45"/>
    <path d="M 1518.443055 -277.195464 
L 1520.795301 -280.378779 
L 1563.78328 -276.321389 
L 1552.42242 -272.437201 
L 1536.709716 -273.316339 
z
" clip-path="url(#p3695c2d797)" style="fill: #e8edf4; stroke: #b8c5d4; stroke-width: 0.45"/>
    <path d="M 1838.957912 -237.146674 
L 1851.488088 -241.244901 
L 1851.488088 -234.526015 
L 1840.708864 -234.024108 
z
" clip-path="url(#p3695c2d797)" style="fill: #e8edf4; stroke: #b8c5d4; stroke-width: 0.45"/>
    <path d="M 36.963427 -16.81297 
L 49.708247 -18.951288 
L 66.215632 -16.422338 
L 63.099718 -27.549006 
L 72.379392 -23.332312 
L 95.265664 -30.997643 
L 98.216994 -39.052591 
L 106.81395 -41.037246 
L 108.237802 -37.580482 
L 112.807031 -37.418438 
L 124.236959 -28.838245 
L 129.281652 -29.603762 
L 140.080168 -24.269016 
L 142.916696 -24.476778 
L 147.555517 -21.902872 
L 161.720887 -20.092452 
L 156.750867 -13.361285 
L 155.503282 -6.358098 
L 152.804415 -4.678989 
L 148.325606 -5.583691 
L 148.641566 -3.085982 
L 141.452715 2.43773 
L 141.307434 6.8886 
L 146.001116 5.348422 
L 149.377621 9.659092 
L 148.972258 12.436695 
L 151.865171 16.127636 
L 148.457172 19.121636 
L 150.989423 26.727535 
L 156.317565 27.974612 
L 155.19291 32.241341 
L 146.287614 37.79477 
L 126.900268 35.133239 
L 112.582506 38.322555 
L 111.457851 44.241979 
L 100.062973 45.516232 
L 89.002341 41.06968 
L 85.428742 43.19479 
L 67.333684 38.727411 
L 63.415678 34.905666 
L 68.498977 29.009609 
L 70.370862 9.425424 
L 60.227124 -0.890517 
L 52.977061 -5.864093 
L 37.954231 -9.644946 
z
" clip-path="url(#p3695c2d797)" style="fill: #e8edf4; stroke: #b8c5d4; stroke-width: 0.45"/>
    <path d="M -453.867202 439.022296 
L -451.360095 434.888402 
L -448.777046 426.162928 
L -452.63638 420.337987 
L -453.413835 413.612916 
L -448.296502 405.161241 
L -437.720478 408.56924 
L -427.312594 416.866491 
L -425.685298 420.892187 
L -431.500079 429.887903 
L -434.518716 437.126536 
L -438.285854 440.860401 
L -442.992489 441.56293 
L -444.333033 438.79574 
L -446.5318 438.384789 
L -449.574565 441.05013 
z
" clip-path="url(#p3695c2d797)" style="fill: #e8edf4; stroke: #b8c5d4; stroke-width: 0.45"/>
    <path d="M 166.094546 46.370137 
L 168.078185 42.717294 
L 174.40856 38.963619 
L 176.079796 47.392689 
L 172.833332 54.986142 
L 168.37027 52.984724 
z
" clip-path="url(#p3695c2d797)" style="fill: #e8edf4; stroke: #b8c5d4; stroke-width: 0.45"/>
    <path d="M -37.531505 318.065499 
L -34.223323 316.273874 
L -32.570628 310.482968 
L -29.454714 310.256411 
L -22.590458 312.994138 
L -17.046935 311.050375 
L -13.24678 311.702868 
L -11.772131 309.516801 
L 27.670292 309.367456 
L 29.857121 302.484913 
L 28.154138 301.273395 
L 18.665687 216.426709 
L 33.709852 216.249934 
L 100.027922 259.145312 
L 102.365112 263.751369 
L 113.037143 268.161601 
L 113.149913 274.415526 
L 124.054089 273.453169 
L 124.081519 296.091803 
L 118.706644 302.657624 
L 117.869502 308.714455 
L 109.137933 310.273428 
L 95.725381 311.118444 
L 92.090825 314.611783 
L 79.488492 315.043053 
L 77.034976 313.157198 
L 71.623526 314.556413 
L 62.435796 318.633923 
L 60.560355 321.706659 
L 52.93363 326.113082 
L 51.596641 328.638222 
L 47.47697 330.63964 
L 42.723347 329.314335 
L 40.029814 331.713244 
L 38.587167 338.45457 
L 30.784428 346.601461 
L 31.011493 349.930978 
L 28.330659 354.097637 
L 28.981628 359.80422 
L 22.630426 362.501309 
L 21.109043 358.29706 
L 18.270737 359.40546 
L 16.575118 359.2137 
L 14.765968 362.08223 
L 7.174801 362.001208 
L 4.453583 360.525289 
L 3.172218 361.418308 
L 0.169836 358.584574 
L 0.691018 355.657372 
L -0.537264 354.51062 
L -2.631134 355.477549 
L -2.247613 352.279343 
L -0.23248 349.749123 
L -4.260715 345.63123 
L -5.432104 342.920172 
L -7.616393 340.760519 
L -9.583778 340.502722 
L -17.817278 345.321366 
L -22.024575 344.536038 
L -24.753413 342.040106 
L -26.382486 341.712209 
L -30.507237 343.03345 
L -31.075152 339.434198 
L -30.622547 336.371876 
L -31.462991 332.570704 
L -35.142502 329.809864 
L -37.080678 324.180747 
z
" clip-path="url(#p3695c2d797)" style="fill: #e8edf4; stroke: #b8c5d4; stroke-width: 0.45"/>
    <path d="M -85.625999 255.322044 
L -83.480824 252.04307 
L -44.986027 252.104535 
L -46.850293 237.908686 
L -44.446558 232.85993 
L -35.235969 231.977579 
L -35.552437 206.825234 
L -3.289469 207.339304 
L -3.261022 192.450071 
L 33.709852 216.249934 
L 18.665687 216.426709 
L 28.154138 301.273395 
L 29.857121 302.484913 
L 27.670292 309.367456 
L -11.772131 309.516801 
L -13.24678 311.702868 
L -17.046935 311.050375 
L -22.590458 312.994138 
L -29.454714 310.256411 
L -32.570628 310.482968 
L -34.223323 316.273874 
L -37.531505 318.065499 
L -49.966207 304.081984 
L -56.491136 301.477854 
L -61.18812 298.588243 
L -66.677036 298.696187 
L -71.473329 300.838569 
L -76.359025 299.989998 
L -79.724862 303.141724 
L -80.576227 297.844822 
L -77.83215 292.997986 
L -76.611234 283.742949 
L -78.884927 269.142245 
L -77.903775 264.24004 
L -80.444662 259.567439 
z
" clip-path="url(#p3695c2d797)" style="fill: #e8edf4; stroke: #b8c5d4; stroke-width: 0.45"/>
    <path d="M 89.697758 358.820528 
L 90.948391 353.644778 
L 94.328959 352.532314 
L 96.331394 348.234598 
L 101.136322 347.316181 
L 106.583838 341.497844 
L 110.107656 341.472445 
L 117.603324 347.129246 
L 117.220311 350.395013 
L 119.431015 356.226049 
L 117.494109 360.183169 
L 118.529869 362.827175 
L 110.73348 371.925755 
L 108.88039 378.126089 
L 108.564938 400.223985 
L 100.440905 401.370737 
L 98.0199 394.589281 
L 98.467426 372.014397 
L 96.487342 369.989104 
L 96.113981 365.164872 
z
" clip-path="url(#p3695c2d797)" style="fill: #e8edf4; stroke: #b8c5d4; stroke-width: 0.45"/>
    <path d="M 85.01195 319.762133 
L 85.790928 314.997843 
L 92.090825 314.611783 
L 95.725381 311.118444 
L 109.137933 310.273428 
L 117.869502 308.714455 
L 118.706644 302.657624 
L 124.081519 296.091803 
L 124.054089 273.453169 
L 137.91569 269.069605 
L 166.376471 249.759218 
L 200.059736 231.023349 
L 215.609844 235.261633 
L 221.138636 240.660383 
L 228.092594 237.006992 
L 230.506697 252.286898 
L 234.184774 254.843348 
L 234.342918 257.969606 
L 238.433127 261.339253 
L 236.295063 265.570424 
L 232.507607 285.517557 
L 231.989474 298.302761 
L 219.450833 307.571728 
L 215.206512 320.520031 
L 219.298753 324.161444 
L 219.27691 330.484454 
L 225.58087 330.710756 
L 224.59794 335.340942 
L 221.823385 335.904793 
L 221.506917 339.034423 
L 219.678718 339.251582 
L 213.027303 328.489893 
L 210.720084 328.098753 
L 203.033925 333.593256 
L 195.422947 330.72498 
L 190.132395 330.151477 
L 187.295867 331.531643 
L 181.533407 331.233462 
L 175.734881 335.422472 
L 170.721683 335.662743 
L 158.824926 330.581985 
L 154.166294 332.995117 
L 149.150049 332.827485 
L 145.463679 329.114955 
L 135.610503 325.446873 
L 125.046162 326.61115 
L 122.48648 328.737023 
L 121.103774 334.390268 
L 118.286041 338.353737 
L 117.603324 347.129246 
L 110.107656 341.472445 
L 106.583838 341.497844 
L 103.284037 344.377042 
L 103.50653 337.644859 
L 92.172609 335.41536 
L 91.867316 330.658435 
L 86.331921 324.239672 
z
" clip-path="url(#p3695c2d797)" style="fill: #e8edf4; stroke: #b8c5d4; stroke-width: 0.45"/>
    <path d="M 108.564938 400.223985 
L 108.88039 378.126089 
L 110.73348 371.925755 
L 118.529869 362.827175 
L 117.494109 360.183169 
L 119.431015 356.226049 
L 117.220311 350.395013 
L 118.286041 338.353737 
L 121.103774 334.390268 
L 122.48648 328.737023 
L 125.046162 326.61115 
L 135.610503 325.446873 
L 145.463679 329.114955 
L 149.150049 332.827485 
L 154.166294 332.995117 
L 158.824926 330.581985 
L 170.721683 335.662743 
L 175.734881 335.422472 
L 181.533407 331.233462 
L 187.295867 331.531643 
L 190.132395 330.151477 
L 195.422947 330.72498 
L 203.033925 333.593256 
L 210.720084 328.098753 
L 213.027303 328.489893 
L 219.678718 339.251582 
L 221.506917 339.034423 
L 225.398 342.949634 
L 223.807532 347.992295 
L 215.526536 355.598701 
L 211.541986 366.981134 
L 209.456752 369.171773 
L 207.473112 376.052792 
L 202.216087 380.102109 
L 200.69318 385.076193 
L 198.485016 389.035344 
L 197.565582 393.121235 
L 190.812573 396.433481 
L 185.29394 392.39407 
L 181.567441 392.55713 
L 175.713038 398.310446 
L 172.866858 398.398834 
L 165.662768 414.83942 
L 155.457565 418.376953 
L 151.727002 417.860089 
L 147.947165 420.062919 
L 140.084232 419.848046 
L 134.821619 413.699272 
L 131.585315 406.584077 
L 124.626068 400.107659 
z
" clip-path="url(#p3695c2d797)" style="fill: #e8edf4; stroke: #b8c5d4; stroke-width: 0.45"/>
    <path d="M 165.549997 417.556066 
L 165.662768 414.83942 
L 168.191463 407.882967 
L 172.866858 398.398834 
L 175.713038 398.310446 
L 181.567441 392.55713 
L 185.29394 392.39407 
L 190.812573 396.433481 
L 197.565582 393.121235 
L 198.485016 389.035344 
L 200.69318 385.076193 
L 202.216087 380.102109 
L 207.473112 376.052792 
L 209.456752 369.171773 
L 211.541986 366.981134 
L 215.526536 355.598701 
L 223.807532 347.992295 
L 225.398 342.949634 
L 221.506917 339.034423 
L 221.823385 335.904793 
L 224.59794 335.340942 
L 228.50604 341.635483 
L 229.162597 348.157386 
L 228.802951 354.686887 
L 234.153444 363.622154 
L 228.663258 363.525893 
L 225.889719 364.225882 
L 221.409894 363.23838 
L 219.27437 367.876947 
L 225.076452 373.614008 
L 229.357659 375.282703 
L 233.84104 386.127953 
L 227.357764 398.752638 
L 224.998732 400.537151 
L 224.240326 408.157273 
L 225.218685 412.297263 
L 224.426753 415.226497 
L 229.072177 420.35983 
L 229.910335 423.888981 
L 233.539303 428.961866 
L 238.034875 432.124768 
L 239.51054 439.456868 
L 238.80344 444.764691 
L 223.045063 439.847755 
L 209.416114 438.926289 
L 203.597269 440.192415 
L 197.623492 438.875746 
L 192.95216 439.521635 
L 176.956051 439.297364 
L 178.391586 431.53628 
L 174.549777 425.037511 
L 170.064872 423.37034 
L 168.067518 418.965695 
z
" clip-path="url(#p3695c2d797)" style="fill: #e8edf4; stroke: #b8c5d4; stroke-width: 0.45"/>
    <path d="M 81.616396 356.499593 
L 82.339751 353.434985 
L 90.948391 353.644778 
L 89.697758 358.820528 
L 96.113981 365.164872 
L 96.487342 369.989104 
L 98.467426 372.014397 
L 98.0199 394.589281 
L 100.440905 401.370737 
L 92.526667 403.467655 
L 87.712595 393.780078 
L 86.931838 388.890825 
L 89.104952 380.036834 
L 86.639245 376.451298 
L 85.71905 361.568922 
z
" clip-path="url(#p3695c2d797)" style="fill: #e8edf4; stroke: #b8c5d4; stroke-width: 0.45"/>
    <path d="M 50.213935 400.306023 
L 52.777427 389.205769 
L 56.919703 380.94941 
L 52.970966 359.562424 
L 53.20184 353.985375 
L 70.276886 353.522102 
L 74.619558 354.2386 
L 77.793381 352.651942 
L 82.339751 353.434985 
L 81.616396 356.499593 
L 85.71905 361.568922 
L 86.639245 376.451298 
L 89.104952 380.036834 
L 86.931838 388.890825 
L 87.712595 393.780078 
L 92.526667 403.467655 
L 77.115744 409.221733 
L 71.650449 412.59265 
L 62.792902 415.444164 
L 54.030346 412.652337 
L 54.476855 408.7737 
z
" clip-path="url(#p3695c2d797)" style="fill: #e8edf4; stroke: #b8c5d4; stroke-width: 0.45"/>
    <path d="M -2.459693 398.172023 
L -0.322391 393.805222 
L -1.305321 389.053377 
L -0.8517 386.194498 
L 0.707273 386.183323 
L 1.286363 381.89602 
L 0.526942 379.99772 
L 1.466186 378.631269 
L 5.116997 377.449213 
L 2.68888 369.580184 
L 0.423061 365.517406 
L 1.212199 362.180269 
L 4.453583 360.525289 
L 7.174801 362.001208 
L 14.765968 362.08223 
L 16.575118 359.2137 
L 18.270737 359.40546 
L 21.109043 358.29706 
L 22.630426 362.501309 
L 28.981628 359.80422 
L 33.40202 361.947363 
L 35.119988 365.198398 
L 39.539872 367.273981 
L 42.97835 364.80167 
L 47.584153 364.428309 
L 54.311764 366.963101 
L 56.919703 380.94941 
L 52.777427 389.205769 
L 50.213935 400.306023 
L 54.476855 408.7737 
L 54.030346 412.652337 
L 49.558141 412.752408 
L 42.699472 410.830487 
L 36.397544 410.94402 
L 24.75325 412.659957 
L 8.195321 419.102594 
L 6.296006 418.844289 
L 7.050855 410.74845 
L 7.991116 409.517882 
L 7.691919 405.644832 
L 3.528562 401.527701 
L 0.406044 400.870636 
z
" clip-path="url(#p3695c2d797)" style="fill: #e8edf4; stroke: #b8c5d4; stroke-width: 0.45"/>
    <path d="M -66.623698 353.221381 
L -62.253088 348.430168 
L -59.269755 348.612531 
L -56.706263 346.962631 
L -54.537721 346.946883 
L -52.988145 345.64393 
L -53.824779 342.386545 
L -52.748128 341.358913 
L -52.568559 338.026602 
L -47.824079 338.127943 
L -40.758665 340.524311 
L -38.591647 340.304612 
L -37.854069 339.211452 
L -32.494178 339.988652 
L -31.075152 339.434198 
L -30.507237 343.03345 
L -26.382486 341.712209 
L -24.753413 342.040106 
L -22.024575 344.536038 
L -17.817278 345.321366 
L -9.583778 340.502722 
L -7.616393 340.760519 
L -5.432104 342.920172 
L -4.260715 345.63123 
L -0.23248 349.749123 
L -2.247613 352.279343 
L -2.631134 355.477549 
L -0.537264 354.51062 
L 0.691018 355.657372 
L 0.169836 358.584574 
L 3.172218 361.418308 
L 1.212199 362.180269 
L 0.423061 365.517406 
L 2.68888 369.580184 
L 5.116997 377.449213 
L 1.466186 378.631269 
L 0.526942 379.99772 
L 1.286363 381.89602 
L 0.707273 386.183323 
L -3.631843 385.942543 
L -5.636564 389.900424 
L -8.415691 389.852421 
L -10.328214 387.758805 
L -9.678769 383.810829 
L -13.78828 377.78981 
L -21.162035 379.678712 
L -21.052312 376.074635 
L -22.629572 373.502761 
L -22.311326 370.644898 
L -27.177974 362.9976 
L -35.039891 362.986678 
L -37.330855 364.838753 
L -40.039882 365.062261 
L -42.851519 369.909606 
L -48.106513 374.23145 
L -56.240705 364.567494 
L -61.211233 361.340334 
L -62.327252 356.997154 
L -63.765581 354.831914 
z
" clip-path="url(#p3695c2d797)" style="fill: #e8edf4; stroke: #b8c5d4; stroke-width: 0.45"/>
    <path d="M -30.336304 395.042648 
L -27.987177 391.897779 
L -27.465233 389.038646 
L -18.45504 379.115369 
L -13.78828 377.78981 
L -9.678769 383.810829 
L -10.328214 387.758805 
L -8.415691 389.852421 
L -5.636564 389.900424 
L -3.631843 385.942543 
L -0.8517 386.194498 
L -1.305321 389.053377 
L -0.322391 393.805222 
L -2.459693 398.172023 
L 0.406044 400.870636 
L 3.528562 401.527701 
L 7.691919 405.644832 
L 7.991116 409.517882 
L 7.050855 410.74845 
L 6.296006 418.844289 
L 3.721084 418.930899 
L -6.410462 414.245344 
L -15.342174 406.763392 
L -23.716891 401.38496 
z
" clip-path="url(#p3695c2d797)" style="fill: #e8edf4; stroke: #b8c5d4; stroke-width: 0.45"/>
    <path d="M 28.330659 354.097637 
L 31.011493 349.930978 
L 30.784428 346.601461 
L 38.587167 338.45457 
L 40.029814 331.713244 
L 42.723347 329.314335 
L 47.47697 330.63964 
L 51.596641 328.638222 
L 52.93363 326.113082 
L 60.560355 321.706659 
L 62.435796 318.633923 
L 71.623526 314.556413 
L 77.034976 313.157198 
L 79.488492 315.043053 
L 85.790928 314.997843 
L 85.01195 319.762133 
L 86.331921 324.239672 
L 91.867316 330.658435 
L 92.172609 335.41536 
L 103.50653 337.644859 
L 103.284037 344.377042 
L 101.136322 347.316181 
L 96.331394 348.234598 
L 94.328959 352.532314 
L 90.948391 353.644778 
L 77.793381 352.651942 
L 74.619558 354.2386 
L 70.276886 353.522102 
L 53.20184 353.985375 
L 52.970966 359.562424 
L 54.311764 366.963101 
L 47.584153 364.428309 
L 42.97835 364.80167 
L 39.539872 367.273981 
L 35.119988 365.198398 
L 33.40202 361.947363 
L 28.981628 359.80422 
z
" clip-path="url(#p3695c2d797)" style="fill: #e8edf4; stroke: #b8c5d4; stroke-width: 0.45"/>
    <path d="M 224.240326 408.157273 
L 224.998732 400.537151 
L 227.357764 398.752638 
L 232.30137 388.790755 
L 240.42845 388.051906 
L 242.240394 385.523464 
L 243.868451 385.715478 
L 246.323999 387.941422 
L 258.699268 384.180634 
L 267.99926 376.906697 
L 267.025982 373.446376 
L 269.797997 372.54269 
L 279.290512 373.153529 
L 288.542247 368.59954 
L 295.648807 357.874426 
L 300.63559 353.894955 
L 306.858275 352.218894 
L 307.97277 356.425429 
L 313.642271 362.571156 
L 313.671225 366.58212 
L 312.074154 370.672837 
L 312.705566 373.727794 
L 328.983093 384.827539 
L 329.073513 388.022443 
L 335.684289 393.141554 
L 339.781102 397.395076 
L 342.263064 403.291895 
L 349.610912 407.182216 
L 351.191727 410.298384 
L 347.94628 411.341255 
L 334.24723 410.080717 
L 330.59388 410.922939 
L 329.119738 413.313212 
L 325.936772 413.608091 
L 322.058896 411.528698 
L 311.115099 416.434713 
L 306.635274 415.447465 
L 305.285078 416.205109 
L 302.345939 422.141296 
L 287.82194 419.254986 
L 281.561157 415.628812 
L 273.472175 412.288119 
L 268.208546 415.453561 
L 264.381468 420.444408 
L 263.497592 427.299775 
L 257.175345 426.751162 
L 250.521898 425.099738 
L 244.663431 430.309014 
L 239.51054 439.456868 
L 238.034875 432.124768 
L 233.539303 428.961866 
L 229.910335 423.888981 
L 229.072177 420.35983 
L 224.426753 415.226497 
L 225.218685 412.297263 
z
" clip-path="url(#p3695c2d797)" style="fill: #e8edf4; stroke: #b8c5d4; stroke-width: 0.45"/>
    <path d="M 191.156471 500.859018 
L 198.640456 495.433345 
L 194.933768 488.933306 
L 198.304685 486.461504 
L 204.937305 485.257605 
L 205.719585 480.901218 
L 210.972039 485.621822 
L 219.649763 486.035313 
L 222.665606 481.390397 
L 223.906587 474.8548 
L 222.834762 467.179817 
L 218.184257 461.36656 
L 222.440066 449.981841 
L 219.98655 448.028172 
L 212.672737 448.829247 
L 209.925104 443.750013 
L 210.639824 439.462202 
L 223.045063 439.847755 
L 238.80344 444.764691 
L 239.51054 439.456868 
L 244.663431 430.309014 
L 250.521898 425.099738 
L 257.175345 426.751162 
L 263.497592 427.299775 
L 262.914946 433.23647 
L 259.970727 438.492733 
L 258.049569 444.625506 
L 256.824335 453.336503 
L 257.338913 458.907456 
L 255.736762 462.318504 
L 255.491918 465.923597 
L 254.362184 469.059322 
L 247.890084 473.797198 
L 243.385876 478.860685 
L 239.11686 488.410093 
L 239.446028 496.497551 
L 225.451337 510.604504 
L 221.779191 508.863168 
L 221.149303 506.080485 
L 215.794746 505.983462 
L 212.432973 509.746536 
L 209.850432 508.745318 
L 206.166602 505.372877 
L 203.196477 507.026333 
L 199.22869 511.270458 
z
" clip-path="url(#p3695c2d797)" style="fill: #e8edf4; stroke: #b8c5d4; stroke-width: 0.45"/>
    <path d="M 418.931618 154.864294 
L 421.791513 151.625704 
L 421.120479 151.068202 
L 423.720291 146.473829 
L 425.71409 139.057659 
L 427.120163 136.569093 
L 430.681062 136.485531 
L 431.586272 134.762991 
L 434.223675 134.633711 
L 434.374035 138.657121 
L 431.516172 143.317785 
L 427.960352 141.95616 
L 425.903056 148.50217 
L 428.372827 149.60549 
L 425.862419 150.957718 
L 425.438768 153.546355 
L 430.060318 152.212922 
L 430.289922 156.036952 
L 425.391526 171.752406 
z
" clip-path="url(#p3695c2d797)" style="fill: #e8edf4; stroke: #b8c5d4; stroke-width: 0.45"/>
    <path d="M 427.391421 136.467244 
L 430.89238 128.4603 
L 435.966534 121.191443 
L 440.387942 121.692559 
L 441.995681 125.547322 
L 436.635536 129.251978 
L 434.223675 134.633711 
L 431.586272 134.762991 
L 430.681062 136.485531 
z
" clip-path="url(#p3695c2d797)" style="fill: #e8edf4; stroke: #b8c5d4; stroke-width: 0.45"/>
    <path d="M 425.438768 153.546355 
L 425.862419 150.957718 
L 428.372827 149.60549 
L 425.903056 148.50217 
L 427.960352 141.95616 
L 431.516172 143.317785 
L 431.512108 149.328644 
L 430.060318 152.212922 
z
" clip-path="url(#p3695c2d797)" style="fill: #e8edf4; stroke: #b8c5d4; stroke-width: 0.45"/>
    <path d="M 156.07069 126.573684 
L 162.130823 121.090864 
L 164.444645 112.983849 
L 162.88618 103.612994 
L 164.883027 98.567793 
L 175.588076 94.600768 
L 182.469096 95.780285 
L 182.180566 100.753861 
L 190.518456 97.135814 
L 191.217936 99.024208 
L 186.302777 103.84082 
L 186.236741 108.387698 
L 189.640168 110.830038 
L 188.34585 119.337591 
L 181.875274 124.279418 
L 183.743603 129.637023 
L 188.827409 129.804146 
L 191.301244 134.477255 
L 195.039426 136.014131 
L 194.483703 143.564407 
L 189.691982 146.386458 
L 186.665471 149.535898 
L 179.915509 153.323862 
L 180.96092 157.395783 
L 180.110063 161.548981 
L 175.314278 163.827245 
L 171.121459 146.181236 
L 165.061326 142.213957 
L 164.976494 139.834606 
L 156.937294 133.97817 
z
" clip-path="url(#p3695c2d797)" style="fill: #e8edf4; stroke: #b8c5d4; stroke-width: 0.45"/>
    <path d="M -3.261022 192.450071 
L -3.159935 178.240507 
L 12.71426 170.986635 
L 22.530355 169.487857 
L 30.576159 166.846136 
L 34.33593 161.923866 
L 45.829102 158.033545 
L 46.251228 150.756052 
L 51.938 149.898845 
L 56.384807 146.263274 
L 69.249255 144.606516 
L 71.051547 140.786295 
L 68.461386 138.697505 
L 65.066087 128.320099 
L 64.4809 122.341496 
L 60.775736 116.045663 
L 70.225327 110.67409 
L 80.85291 108.965518 
L 87.058832 104.909598 
L 96.52544 101.91763 
L 129.444203 99.367853 
L 134.402032 100.827771 
L 143.658847 96.953451 
L 154.162738 96.877509 
L 158.160496 99.164663 
L 164.883027 98.567793 
L 162.88618 103.612994 
L 164.444645 112.983849 
L 162.130823 121.090864 
L 156.07069 126.573684 
L 156.937294 133.97817 
L 164.976494 139.834606 
L 165.061326 142.213957 
L 171.121459 146.181236 
L 175.314278 163.827245 
L 178.494197 172.50624 
L 179.028586 177.07369 
L 177.29741 185.09308 
L 178.007558 189.574682 
L 176.758449 194.954638 
L 177.61591 201.13516 
L 173.714667 205.242894 
L 179.526909 212.407617 
L 179.896206 216.61974 
L 183.391577 222.10129 
L 187.98722 220.300267 
L 195.746019 224.867463 
L 200.059736 231.023349 
L 166.376471 249.759218 
L 137.91569 269.069605 
L 124.054089 273.453169 
L 113.149913 274.415526 
L 113.037143 268.161601 
L 102.365112 263.751369 
L 100.027922 259.145312 
z
" clip-path="url(#p3695c2d797)" style="fill: #e8edf4; stroke: #b8c5d4; stroke-width: 0.45"/>
    <path d="M 425.391526 171.752406 
L 430.289922 156.036952 
L 430.060318 152.212922 
L 431.512108 149.328644 
L 431.516172 143.317785 
L 433.229061 140.219396 
L 444.180986 144.114543 
L 463.43067 133.638336 
L 467.393377 145.607987 
L 465.519968 147.090256 
L 445.833426 152.02294 
L 455.630726 161.851988 
L 452.37969 163.521445 
L 450.7623 166.813372 
L 443.261553 168.174743 
L 440.909124 171.7138 
L 436.659919 174.73904 
L 425.720186 173.175496 
z
" clip-path="url(#p3695c2d797)" style="fill: #e8edf4; stroke: #b8c5d4; stroke-width: 0.45"/>
    <path d="M 463.43067 133.638336 
L 485.192287 123.408496 
L 488.906087 111.524693 
L 487.979542 104.343969 
L 493.360005 101.915598 
L 498.398094 95.781555 
L 502.620376 94.254076 
L 514.05386 95.522488 
L 517.506053 98.026293 
L 522.216791 96.365801 
L 528.585988 108.091803 
L 535.031673 111.042371 
L 535.773315 116.784258 
L 530.825646 120.176764 
L 528.547382 127.847429 
L 535.356269 137.190854 
L 547.400846 142.578937 
L 552.458746 150.04946 
L 550.847451 157.169481 
L 553.98724 157.166687 
L 554.084263 162.402886 
L 559.524159 167.570254 
L 547.085902 166.26984 
L 539.871652 175.706985 
L 521.595754 174.921911 
L 493.880171 155.152823 
L 479.233749 148.272058 
L 467.393377 145.607987 
z
" clip-path="url(#p3695c2d797)" style="fill: #e8edf4; stroke: #b8c5d4; stroke-width: 0.45"/>
    <path d="M 433.229061 140.219396 
L 434.374035 138.657121 
L 434.223675 134.633711 
L 436.635536 129.251978 
L 441.995681 125.547322 
L 440.387942 121.692559 
L 435.966534 121.191443 
L 435.048625 113.67063 
L 437.454391 109.625377 
L 442.719544 105.318263 
L 443.251393 99.834935 
L 446.468394 101.746696 
L 457.290785 99.012271 
L 462.521904 100.863075 
L 470.608854 100.832343 
L 481.919917 97.143942 
L 487.216565 97.310303 
L 498.398094 95.781555 
L 493.360005 101.915598 
L 487.979542 104.343969 
L 488.906087 111.524693 
L 485.192287 123.408496 
L 463.43067 133.638336 
L 444.180986 144.114543 
z
" clip-path="url(#p3695c2d797)" style="fill: #e8edf4; stroke: #b8c5d4; stroke-width: 0.45"/>
    <path d="M 299.205135 -14.238557 
L 301.124261 -18.201264 
L 303.850051 -20.760438 
L 305.995734 -20.186935 
L 303.459927 -24.604279 
L 312.38605 -32.780125 
L 317.264127 -33.924083 
L 318.318174 -36.681621 
L 313.374568 -45.263592 
L 318.07333 -45.646859 
L 323.460397 -48.31093 
L 331.075439 -48.529105 
L 341.00532 -47.758762 
L 351.976548 -45.399729 
L 359.718075 -45.202381 
L 363.414096 -43.781831 
L 367.102497 -45.495482 
L 369.678942 -43.197153 
L 378.549697 -43.668045 
L 382.459575 -42.718133 
L 383.092002 -47.665548 
L 386.120545 -49.823677 
L 398.22991 -50.009429 
L 400.713121 -52.24519 
L 403.698486 -51.751439 
L 413.891497 -52.701097 
L 420.173107 -47.135477 
L 417.718067 -45.145234 
L 418.53235 -42.093833 
L 426.370393 -41.617861 
L 429.867154 -37.355298 
L 429.652922 -35.421337 
L 442.137406 -31.96508 
L 449.679807 -33.521767 
L 455.746544 -28.918505 
L 461.490717 -29.024671 
L 475.980501 -25.825904 
L 476.095992 -22.939648 
L 472.103686 -17.792614 
L 474.275799 -12.372308 
L 472.729139 -9.094301 
L 463.216668 -8.373602 
L 458.14977 -5.628901 
L 457.839398 -1.262354 
L 449.991195 -0.476264 
L 443.451535 2.703908 
L 434.249073 3.222296 
L 425.782159 6.886568 
L 426.276772 12.150199 
L 424.793766 11.850807 
L 423.518093 9.909566 
L 413.368173 7.413684 
L 410.778252 9.848113 
L 409.42742 8.779789 
L 394.147554 6.295286 
L 393.470932 2.629744 
L 384.362954 3.840247 
L 380.714683 9.253475 
L 373.103197 16.518776 
L 368.644707 14.831794 
L 364.025189 16.413372 
L 359.638831 14.602189 
L 362.113174 13.534428 
L 366.521374 7.027785 
L 365.825958 5.267655 
L 367.881729 4.483342 
L 368.850436 5.843951 
L 374.643375 6.131719 
L 377.245219 5.404808 
L 375.412448 4.408162 
L 376.106849 2.943164 
L 372.674467 0.444185 
L 371.253663 -3.665327 
L 367.672952 -5.273319 
L 368.379036 -8.60436 
L 363.937817 -11.249128 
L 359.894342 -11.616902 
L 352.649614 -14.679478 
L 346.115541 -13.707216 
L 343.77124 -12.257457 
L 339.624138 -12.258981 
L 337.151827 -9.961414 
L 329.895415 -9.016835 
L 326.539229 -7.507644 
L 321.975588 -9.9096 
L 315.67366 -9.946174 
L 309.591684 -11.034763 
L 305.348067 -8.929718 
L 304.66281 -11.56458 
z
" clip-path="url(#p3695c2d797)" style="fill: #e8edf4; stroke: #b8c5d4; stroke-width: 0.45"/>
    <path d="M 175.292943 -1.26845 
L 176.796547 -3.674724 
L 176.416074 -5.419108 
L 179.383152 -5.961116 
L 184.357236 -3.231263 
L 185.757213 -5.825487 
L 194.426302 -5.406408 
L 201.454125 -7.169079 
L 206.166602 -6.867342 
L 209.232227 -4.854748 
L 210.148613 -6.525222 
L 208.755239 -12.930015 
L 212.286676 -14.178108 
L 215.752585 -18.710254 
L 223.05573 -15.546336 
L 228.585538 -19.567715 
L 232.045351 -20.301737 
L 239.675632 -17.301895 
L 244.292102 -17.812156 
L 248.82374 -15.956018 
L 248.034348 -14.707925 
L 249.014231 -11.301704 
L 248.268016 -7.284897 
L 242.732113 -7.265594 
L 244.636001 -5.13515 
L 241.372774 1.193193 
L 239.498857 2.852237 
L 230.901901 3.097081 
L 225.941532 5.327342 
L 203.765408 2.027033 
L 201.569435 -1.392142 
L 191.854936 0.31643 
L 190.711994 2.186283 
L 179.740766 0.521397 
z
" clip-path="url(#p3695c2d797)" style="fill: #e8edf4; stroke: #b8c5d4; stroke-width: 0.45"/>
    <path d="M 241.372774 1.193193 
L 244.636001 -5.13515 
L 242.732113 -7.265594 
L 248.268016 -7.284897 
L 249.014231 -11.301704 
L 257.639633 -7.713119 
L 265.890659 -8.917526 
L 266.682083 -10.891514 
L 281.053691 -13.307694 
L 283.358878 -15.620501 
L 286.58045 -16.220164 
L 297.107709 -13.233022 
L 299.205135 -14.238557 
L 304.66281 -11.56458 
L 305.348067 -8.929718 
L 299.344319 -6.86785 
L 294.692291 -0.201196 
L 288.749501 6.46495 
L 280.86828 8.319056 
L 274.732967 7.883976 
L 263.527055 11.936341 
L 255.407595 10.046168 
L 244.936213 4.620241 
L 243.02623 1.3019 
z
" clip-path="url(#p3695c2d797)" style="fill: #e8edf4; stroke: #b8c5d4; stroke-width: 0.45"/>
    <path d="M 343.77124 -12.257457 
L 346.115541 -13.707216 
L 352.649614 -14.679478 
L 359.894342 -11.616902 
L 363.937817 -11.249128 
L 368.379036 -8.60436 
L 367.672952 -5.273319 
L 371.253663 -3.665327 
L 372.674467 0.444185 
L 376.106849 2.943164 
L 375.412448 4.408162 
L 377.245219 5.404808 
L 374.643375 6.131719 
L 368.850436 5.843951 
L 367.881729 4.483342 
L 365.825958 5.267655 
L 366.521374 7.027785 
L 362.113174 13.534428 
L 359.638831 14.602189 
L 357.878193 10.116777 
L 358.915984 5.919639 
L 358.601548 1.60516 
L 346.76778 -11.299418 
z
" clip-path="url(#p3695c2d797)" style="fill: #e8edf4; stroke: #b8c5d4; stroke-width: 0.45"/>
    <path d="M 280.86828 8.319056 
L 288.749501 6.46495 
L 294.692291 -0.201196 
L 299.344319 -6.86785 
L 309.591684 -11.034763 
L 315.67366 -9.946174 
L 321.975588 -9.9096 
L 326.539229 -7.507644 
L 329.895415 -9.016835 
L 337.151827 -9.961414 
L 339.624138 -12.258981 
L 343.77124 -12.257457 
L 346.76778 -11.299418 
L 358.601548 1.60516 
L 358.915984 5.919639 
L 357.878193 10.116777 
L 359.638831 14.602189 
L 364.025189 16.413372 
L 368.644707 14.831794 
L 373.103197 16.518776 
L 373.331785 19.054076 
L 368.564955 21.169281 
L 365.579082 20.248577 
L 362.82891 32.10749 
L 357.049179 31.075286 
L 349.895885 27.501942 
L 338.323724 29.787318 
L 333.449203 32.294425 
L 319.013083 31.777307 
L 311.460013 30.244241 
L 307.651222 30.96404 
L 303.023069 25.2092 
L 305.300826 23.550156 
L 302.875756 22.326192 
L 299.789813 24.529022 
L 294.058339 21.673191 
L 293.286727 17.62108 
L 287.298218 15.309036 
L 286.195914 12.181184 
z
" clip-path="url(#p3695c2d797)" style="fill: #e8edf4; stroke: #b8c5d4; stroke-width: 0.45"/>
    <path d="M 302.104144 45.743551 
L 303.721026 44.356527 
L 302.655296 43.18717 
L 304.308752 40.059319 
L 308.056078 36.986075 
L 303.280104 32.742966 
L 302.398261 29.152604 
L 304.82333 26.922597 
L 307.651222 30.96404 
L 311.460013 30.244241 
L 319.013083 31.777307 
L 333.449203 32.294425 
L 338.323724 29.787318 
L 349.895885 27.501942 
L 357.049179 31.075286 
L 362.82891 32.10749 
L 357.727324 36.17992 
L 354.13747 43.211045 
L 357.310785 48.819335 
L 348.847426 47.500888 
L 338.83373 50.593181 
L 338.726547 55.488529 
L 329.791788 56.416598 
L 322.866067 52.98193 
L 314.99653 55.683337 
L 307.725387 55.399125 
L 307.02743 48.898579 
z
" clip-path="url(#p3695c2d797)" style="fill: #e8edf4; stroke: #b8c5d4; stroke-width: 0.45"/>
    <path d="M 280.178451 72.23771 
L 284.749203 67.470118 
L 285.338961 64.275468 
L 288.533611 62.850092 
L 288.730705 60.267551 
L 295.160644 59.397137 
L 298.90797 57.248406 
L 304.235096 57.438896 
L 305.851737 55.725418 
L 314.99653 55.683337 
L 322.866067 52.98193 
L 329.791788 56.416598 
L 338.726547 55.488529 
L 338.83373 50.593181 
L 343.622403 53.196041 
L 340.579129 59.348117 
L 338.242956 60.450421 
L 327.124415 59.241951 
L 315.220039 61.797061 
L 322.034005 67.322805 
L 317.040111 68.924956 
L 311.565164 68.934861 
L 306.365032 63.87239 
L 304.520069 66.029503 
L 306.71655 71.900415 
L 311.634249 76.513583 
L 307.929084 78.667394 
L 313.403523 83.198016 
L 318.269408 86.048768 
L 318.416721 91.60245 
L 309.323982 88.997558 
L 312.223499 94.01101 
L 305.981511 95.04296 
L 309.709534 103.71789 
L 303.180541 103.84082 
L 295.120006 99.564947 
L 291.433636 91.700997 
L 289.713636 85.160829 
L 280.843897 75.036902 
z
" clip-path="url(#p3695c2d797)" style="fill: #e8edf4; stroke: #b8c5d4; stroke-width: 0.45"/>
    <path d="M 313.255702 114.948693 
L 315.07425 110.770859 
L 320.44811 114.083359 
L 328.099218 113.523317 
L 335.414555 114.22102 
L 335.176823 115.931623 
L 340.53392 114.752107 
L 339.30513 117.651878 
L 325.149919 118.487496 
L 325.248466 116.865534 
z
" clip-path="url(#p3695c2d797)" style="fill: #e8edf4; stroke: #b8c5d4; stroke-width: 0.45"/>
    <path d="M 339.362023 73.824114 
L 350.26569 64.42278 
L 365.403323 64.029608 
L 369.532138 56.559085 
L 388.267244 57.860261 
L 400.083233 51.484168 
L 411.538053 48.705295 
L 427.800848 48.496263 
L 444.958187 55.425032 
L 459.059552 59.226965 
L 470.510815 57.711424 
L 478.97265 58.587172 
L 490.578338 53.456124 
L 501.051751 52.989042 
L 510.519883 57.815813 
L 512.190103 61.275372 
L 511.244255 66.058965 
L 518.553496 68.502321 
L 522.426292 71.37263 
L 515.695125 74.172838 
L 518.763798 85.44631 
L 516.840607 88.4906 
L 522.216791 96.365801 
L 517.506053 98.026293 
L 514.05386 95.522488 
L 502.620376 94.254076 
L 498.398094 95.781555 
L 487.216565 97.310303 
L 481.919917 97.143942 
L 470.608854 100.832343 
L 462.521904 100.863075 
L 457.290785 99.012271 
L 446.468394 101.746696 
L 443.251393 99.834935 
L 442.719544 105.318263 
L 437.454391 109.625377 
L 433.840154 105.167903 
L 437.563097 101.475692 
L 431.567985 102.312834 
L 423.346422 100.051078 
L 416.586809 105.708895 
L 401.667605 106.813739 
L 393.70968 101.537919 
L 383.113337 101.207736 
L 380.847264 105.286007 
L 374.053617 106.452062 
L 364.547386 101.217895 
L 353.815922 101.394924 
L 347.992506 91.618706 
L 340.811274 86.165348 
L 345.593343 78.521351 
z
" clip-path="url(#p3695c2d797)" style="fill: #e8edf4; stroke: #b8c5d4; stroke-width: 0.45"/>
    <path d="M 338.109359 62.479017 
L 338.242956 60.450421 
L 340.579129 59.348117 
L 343.622403 53.196041 
L 338.83373 50.593181 
L 348.847426 47.500888 
L 357.310785 48.819335 
L 358.478618 52.598663 
L 367.059319 55.773249 
L 365.270234 58.1813 
L 353.598001 58.723309 
L 341.202414 67.057389 
z
" clip-path="url(#p3695c2d797)" style="fill: #e8edf4; stroke: #b8c5d4; stroke-width: 0.45"/>
    <path d="M 271.866976 46.967515 
L 276.12888 42.126266 
L 276.753689 43.9758 
L 279.398783 43.105495 
L 281.493088 45.743551 
L 283.844356 46.75003 
L 284.505884 50.313033 
L 283.256775 53.658298 
L 284.652688 57.873976 
L 288.730705 60.267551 
L 288.533611 62.850092 
L 285.338961 64.275468 
L 284.749203 67.470118 
L 280.178451 72.23771 
L 278.507216 71.549659 
L 278.31063 69.386958 
L 272.865654 66.086396 
L 272.010225 61.402873 
L 272.840763 54.695581 
L 274.182323 51.64418 
L 272.528359 50.095366 
z
" clip-path="url(#p3695c2d797)" style="fill: #e8edf4; stroke: #b8c5d4; stroke-width: 0.45"/>
    <path d="M 216.352502 18.055906 
L 216.923465 14.483831 
L 223.774006 14.819602 
L 225.574267 13.160558 
L 228.917753 14.765249 
L 232.77531 14.955739 
L 232.738736 12.208615 
L 236.15537 11.202318 
L 237.11087 7.231483 
L 244.936213 4.620241 
L 255.407595 10.046168 
L 263.527055 11.936341 
L 267.201102 10.467839 
L 269.58922 14.275562 
L 272.712245 17.07704 
L 268.927821 20.775846 
L 264.482047 18.599947 
L 257.685351 18.736084 
L 249.235199 17.103963 
L 244.642604 17.321884 
L 242.511652 19.3614 
L 238.984787 17.103963 
L 236.926983 21.184012 
L 243.870991 28.826484 
L 252.137256 34.674284 
L 255.848516 38.781002 
L 264.548751 42.502234 
L 263.467622 44.173402 
L 254.227062 40.536307 
L 248.526067 36.997504 
L 239.535431 34.07589 
L 231.269166 26.841321 
L 233.252806 26.10679 
L 228.770949 21.972642 
L 228.587062 18.6543 
L 222.267862 17.103963 
L 219.255067 21.347072 
z
" clip-path="url(#p3695c2d797)" style="fill: #e8edf4; stroke: #b8c5d4; stroke-width: 0.45"/>
    <path d="M 141.307434 6.8886 
L 141.452715 2.43773 
L 148.641566 -3.085982 
L 148.325606 -5.583691 
L 152.804415 -4.678989 
L 155.503282 -6.358098 
L 163.864031 -6.289268 
L 165.882212 -8.424791 
L 176.416074 -5.419108 
L 176.796547 -3.674724 
L 175.292943 -1.26845 
L 179.740766 0.521397 
L 184.756504 0.788592 
L 183.976763 4.818605 
L 179.646283 6.476633 
L 172.372599 5.244796 
L 170.243679 9.209027 
L 165.561173 9.521431 
L 163.857427 7.963474 
L 158.346414 11.297309 
L 153.607015 11.764645 
L 149.377621 9.659092 
L 146.001116 5.348422 
z
" clip-path="url(#p3695c2d797)" style="fill: #e8edf4; stroke: #b8c5d4; stroke-width: 0.45"/>
    <path d="M -11.539478 80.962422 
L -10.757198 74.527404 
L -6.838177 70.958885 
L -4.089528 61.074468 
L -4.307449 56.909587 
L -6.272801 53.37942 
L -6.705595 50.06565 
L -3.1386 47.567686 
L 0.872872 46.134691 
L 3.337055 50.947239 
L 9.143201 50.935556 
L 10.82612 49.694321 
L 16.554038 50.037965 
L 19.30167 54.968363 
L 14.759872 57.62964 
L 14.633133 65.299036 
L 13.036824 66.737619 
L 12.641874 71.383551 
L 8.394955 72.192754 
L 12.332772 78.085764 
L 9.619173 84.544148 
L 13.008631 87.466524 
L 11.659706 90.138977 
L 8.016768 93.825092 
L 8.836385 97.079937 
L 4.885869 99.630983 
L -0.296484 98.248786 
L -5.369115 99.330771 
L -3.867543 91.638517 
L -4.790533 85.594131 
L -9.189082 84.687397 
z
" clip-path="url(#p3695c2d797)" style="fill: #e8edf4; stroke: #b8c5d4; stroke-width: 0.45"/>
    <path d="M -10.225349 38.800051 
L 3.680954 31.705682 
L 15.709784 33.479275 
L 28.907463 33.417048 
L 39.366907 35.095903 
L 63.415678 34.905666 
L 67.333684 38.727411 
L 85.428742 43.19479 
L 89.002341 41.06968 
L 100.062973 45.516232 
L 111.457851 44.241979 
L 111.983604 49.952118 
L 102.668373 56.499144 
L 90.073151 58.576758 
L 89.196387 61.883671 
L 83.154542 67.333219 
L 79.36607 75.334321 
L 83.199751 80.951754 
L 77.513996 85.33735 
L 75.388123 91.726904 
L 67.96662 93.685907 
L 61.006356 101.24431 
L 39.159908 101.20799 
L 33.00326 104.679232 
L 29.248822 108.393539 
L 24.439322 107.577987 
L 20.799686 104.256851 
L 18.01294 98.602336 
L 8.836385 97.079937 
L 8.016768 93.825092 
L 11.659706 90.138977 
L 13.008631 87.466524 
L 9.619173 84.544148 
L 12.332772 78.085764 
L 8.394955 72.192754 
L 12.641874 71.383551 
L 13.036824 66.737619 
L 14.633133 65.299036 
L 14.759872 57.62964 
L 19.30167 54.968363 
L 16.554038 50.037965 
L 10.82612 49.694321 
L 9.143201 50.935556 
L 3.337055 50.947239 
L 0.872872 46.134691 
L -3.1386 47.567686 
L -6.705595 50.06565 
L -6.210321 43.064749 
z
" clip-path="url(#p3695c2d797)" style="fill: #e8edf4; stroke: #b8c5d4; stroke-width: 0.45"/>
    <path d="M 148.457172 19.121636 
L 151.865171 16.127636 
L 148.972258 12.436695 
L 149.377621 9.659092 
L 153.607015 11.764645 
L 158.346414 11.297309 
L 163.857427 7.963474 
L 165.561173 9.521431 
L 170.243679 9.209027 
L 172.372599 5.244796 
L 179.646283 6.476633 
L 183.976763 4.818605 
L 184.756504 0.788592 
L 190.711994 2.186283 
L 191.854936 0.31643 
L 201.569435 -1.392142 
L 203.765408 2.027033 
L 217.822072 4.565634 
L 216.75685 9.407137 
L 219.11131 13.592337 
L 211.286475 12.160357 
L 203.294516 15.649124 
L 203.838049 20.528725 
L 202.634657 23.329187 
L 205.856738 28.333749 
L 215.073931 33.284466 
L 220.017536 41.411038 
L 230.955746 49.332643 
L 238.658668 49.27194 
L 241.054274 51.444546 
L 238.296482 53.402787 
L 254.317482 59.92924 
L 262.746807 65.055716 
L 263.764787 66.891535 
L 261.927952 70.411543 
L 256.472309 65.821995 
L 247.932245 64.204351 
L 243.795303 70.562665 
L 250.899831 74.206618 
L 249.733522 79.336142 
L 245.627058 79.919043 
L 240.376636 88.349891 
L 236.278808 89.107281 
L 236.316906 86.101851 
L 238.322389 80.829586 
L 240.458928 78.729875 
L 233.620071 68.076131 
L 229.539514 66.851405 
L 226.637457 62.608804 
L 220.320797 60.821751 
L 216.067529 56.870727 
L 208.794353 56.233727 
L 192.121114 45.397874 
L 185.437189 39.735485 
L 182.371057 30.018192 
L 177.480281 28.87525 
L 169.483242 25.630818 
L 164.957699 26.958917 
L 159.278039 31.52078 
L 155.19291 32.241341 
L 156.317565 27.974612 
L 150.989423 26.727535 
z
" clip-path="url(#p3695c2d797)" style="fill: #e8edf4; stroke: #b8c5d4; stroke-width: 0.45"/>
    <path d="M 204.301321 92.015941 
L 205.676915 86.968963 
L 217.179992 87.86757 
L 234.669546 85.939045 
L 231.129473 93.676255 
L 232.600567 96.721815 
L 230.537175 101.776667 
L 223.019664 98.074296 
L 218.021198 97.013646 
z
" clip-path="url(#p3695c2d797)" style="fill: #e8edf4; stroke: #b8c5d4; stroke-width: 0.45"/>
    <path d="M 162.317757 59.212996 
L 167.724127 59.704715 
L 172.639286 56.657378 
L 178.536867 63.636436 
L 177.156193 76.637783 
L 172.686528 76.017546 
L 168.677087 79.299314 
L 164.955159 76.692136 
L 164.561479 64.832715 
z
" clip-path="url(#p3695c2d797)" style="fill: #e8edf4; stroke: #b8c5d4; stroke-width: 0.45"/>
    <path d="M 474.859583 34.785784 
L 476.058402 33.624809 
L 498.838561 36.896241 
L 512.222857 41.609384 
L 513.945252 43.436468 
L 519.906232 41.892852 
L 529.074151 43.949386 
L 532.083289 47.982994 
L 538.261881 50.26122 
L 535.710835 51.616495 
L 540.551829 56.935748 
L 539.212301 58.088087 
L 533.913622 57.503917 
L 526.588633 54.67704 
L 524.180835 56.282493 
L 510.519883 57.815813 
L 501.051751 52.989042 
L 490.578338 53.456124 
L 492.043844 49.255939 
L 489.589312 42.550171 
L 483.90762 38.927806 
L 478.46112 37.79731 
z
" clip-path="url(#p3695c2d797)" style="fill: #e8edf4; stroke: #b8c5d4; stroke-width: 0.45"/>
    <path d="M 216.75685 9.407137 
L 217.822072 4.565634 
L 225.941532 5.327342 
L 230.901901 3.097081 
L 239.498857 2.852237 
L 241.372774 1.193193 
L 243.02623 1.3019 
L 244.936213 4.620241 
L 237.11087 7.231483 
L 236.15537 11.202318 
L 232.738736 12.208615 
L 232.77531 14.955739 
L 228.917753 14.765249 
L 225.574267 13.160558 
L 223.774006 14.819602 
L 216.923465 14.483831 
L 219.11131 13.592337 
z
" clip-path="url(#p3695c2d797)" style="fill: #e8edf4; stroke: #b8c5d4; stroke-width: 0.45"/>
    <path d="M 439.159458 316.043923 
L 443.392902 301.600161 
L 444.362523 295.066323 
L 447.458353 292.052574 
L 454.69837 290.436538 
L 459.673185 284.82595 
L 465.379767 296.205843 
L 468.087778 305.228736 
L 473.476369 310.016647 
L 486.894001 319.301655 
L 500.757126 333.95468 
L 505.589993 336.911344 
L 502.625456 339.31203 
L 498.417448 338.458655 
L 495.057489 335.277797 
L 491.015532 329.514821 
L 486.657347 326.357063 
L 484.115334 322.9627 
L 475.559879 319.021401 
L 468.820105 318.903835 
L 466.449035 316.848501 
L 460.684289 319.160199 
L 454.718718 314.697817 
L 451.64884 322.034167 
L 440.204278 319.979619 
z
" clip-path="url(#p3695c2d797)" style="fill: #e8edf4; stroke: #b8c5d4; stroke-width: 0.45"/>
    <path d="M 422.538235 185.934793 
L 425.720186 173.175496 
L 436.659919 174.73904 
L 440.909124 171.7138 
L 443.261553 168.174743 
L 450.7623 166.813372 
L 452.37969 163.521445 
L 455.630726 161.851988 
L 445.833426 152.02294 
L 465.519968 147.090256 
L 467.393377 145.607987 
L 479.233749 148.272058 
L 493.880171 155.152823 
L 521.595754 174.921911 
L 548.63116 176.655627 
L 551.079088 181.33915 
L 558.031223 181.084147 
L 561.879636 189.561221 
L 566.715551 191.806467 
L 568.399994 195.258914 
L 575.099158 199.390777 
L 575.693996 203.446951 
L 574.714622 206.720845 
L 575.95865 210.022932 
L 578.785019 212.777676 
L 581.564146 218.410857 
L 584.535796 220.361224 
L 587.26057 219.662759 
L 593.267873 235.648455 
L 622.817243 240.60476 
L 624.798343 238.526891 
L 629.303567 245.489694 
L 622.750191 265.149568 
L 593.260761 274.979377 
L 564.91783 278.74753 
L 555.743307 283.17097 
L 548.69872 293.492245 
L 544.111205 295.130716 
L 541.653625 291.854028 
L 537.885472 292.345747 
L 528.383306 291.362563 
L 526.581013 290.379633 
L 515.236932 290.605427 
L 512.572099 291.493874 
L 508.53472 288.938002 
L 505.929828 293.769853 
L 506.938157 297.913653 
L 502.622408 301.049378 
L 501.346884 296.854527 
L 498.382347 293.894053 
L 497.624449 289.972745 
L 492.547246 286.450452 
L 487.308 278.207554 
L 484.535477 270.197308 
L 477.736241 263.432869 
L 473.352423 261.818526 
L 466.842225 252.450211 
L 465.704871 245.61872 
L 466.12395 239.791747 
L 460.485944 228.892397 
L 455.876585 225.05643 
L 450.566222 223.023517 
L 447.333982 217.391098 
L 447.871419 215.168965 
L 445.140041 210.072967 
L 442.269479 207.878265 
L 438.431225 200.565721 
L 427.432059 185.887551 
z
" clip-path="url(#p3695c2d797)" style="fill: #e8edf4; stroke: #b8c5d4; stroke-width: 0.45"/>
    <path d="M 403.855958 116.324541 
L 405.971163 113.899726 
L 413.051308 114.032307 
L 421.989115 111.099264 
L 415.347352 115.285226 
L 416.063087 117.125871 
L 411.169771 117.697596 
L 410.265577 116.101541 
L 405.701936 116.837595 
z
" clip-path="url(#p3695c2d797)" style="fill: #e8edf4; stroke: #b8c5d4; stroke-width: 0.45"/>
    <path d="M 399.185643 116.686219 
L 405.701936 116.837595 
L 410.265577 116.101541 
L 411.169771 117.697596 
L 415.009549 116.780956 
L 416.370412 117.916279 
L 406.294234 121.909464 
L 401.482194 120.633687 
z
" clip-path="url(#p3695c2d797)" style="fill: #e8edf4; stroke: #b8c5d4; stroke-width: 0.45"/>
    <path d="M -85.203365 251.168338 
L -84.739584 246.612825 
L -80.963811 243.934277 
L -77.747319 238.811865 
L -78.38127 235.485141 
L -75.001718 228.549261 
L -69.530327 222.299654 
L -66.220875 220.71579 
L -63.619031 214.982285 
L -63.38587 209.745578 
L -59.837416 203.66919 
L -53.289374 200.086448 
L -47.058562 190.047606 
L -41.93615 186.134935 
L -32.795153 185.04914 
L -25.049562 178.330418 
L -20.121195 175.711303 
L -11.915379 167.503455 
L -14.371943 155.273467 
L -10.637316 146.816204 
L -9.319123 141.639946 
L -2.996367 134.999199 
L 14.156145 126.444912 
L 23.814514 110.230374 
L 31.050607 110.277616 
L 36.976634 114.450116 
L 46.324377 113.770447 
L 56.505704 115.940513 
L 60.775736 116.045663 
L 64.4809 122.341496 
L 65.066087 128.320099 
L 68.461386 138.697505 
L 71.051547 140.786295 
L 69.249255 144.606516 
L 56.384807 146.263274 
L 51.938 149.898845 
L 46.251228 150.756052 
L 45.829102 158.033545 
L 34.33593 161.923866 
L 30.576159 166.846136 
L 22.530355 169.487857 
L 12.71426 170.986635 
L -3.159935 178.240507 
L -3.076119 189.887595 
L -4.572612 189.887595 
L -4.347071 195.153764 
L -10.423459 195.470486 
L -13.591694 197.707096 
L -18.055264 197.707096 
L -21.6121 196.430557 
L -29.881921 197.486127 
L -33.083174 205.146887 
L -36.155403 205.866687 
L -40.77746 218.259734 
L -54.442476 228.867253 
L -57.686907 242.440833 
L -61.713873 246.856653 
L -62.894659 250.398757 
z
" clip-path="url(#p3695c2d797)" style="fill: #e8edf4; stroke: #b8c5d4; stroke-width: 0.45"/>
    <path d="M 324.905036 166.416108 
L 327.436727 160.347028 
L 325.91555 156.142878 
L 329.473482 151.425901 
L 342.552265 151.263413 
L 366.322933 158.297985 
L 373.890876 155.183774 
L 377.936962 152.367114 
L 386.605953 151.55654 
L 393.595308 152.797664 
L 396.273464 157.673295 
L 398.554591 154.461473 
L 406.432766 156.783984 
L 414.094978 157.340455 
L 418.931683 154.864302 
L 425.391501 171.752368 
L 422.630675 175.703104 
L 420.515378 183.128907 
L 417.841252 188.247238 
L 415.54941 189.963539 
L 407.836869 182.404836 
L 400.82294 168.31436 
L 399.812721 169.205441 
L 403.885839 179.577953 
L 409.920809 189.460347 
L 417.35015 204.771598 
L 424.137894 215.668241 
L 432.958658 226.550335 
L 431.005555 228.26408 
L 431.322667 234.652828 
L 444.497193 245.489705 
L 327.853318 245.489705 
L 327.853318 174.334442 
z
" clip-path="url(#p3695c2d797)" style="fill: #e8edf4; stroke: #b8c5d4; stroke-width: 0.45"/>
    <path d="M 173.714667 205.242894 
L 177.61591 201.13516 
L 176.758449 194.954638 
L 178.007558 189.574682 
L 177.29741 185.09308 
L 179.028586 177.07369 
L 178.494197 172.50624 
L 175.314278 163.827245 
L 180.110063 161.548981 
L 180.96092 157.395783 
L 179.915509 153.323862 
L 186.665471 149.535898 
L 189.691982 146.386458 
L 194.483703 143.564407 
L 195.039426 136.014131 
L 206.584868 139.397738 
L 210.712935 138.551974 
L 218.925031 140.192191 
L 231.968819 144.584977 
L 236.572261 153.321991 
L 259.251319 159.344673 
L 269.723309 164.231904 
L 274.516664 161.681732 
L 279.228235 157.160567 
L 276.937671 149.630568 
L 280.020721 144.849205 
L 287.103657 140.242913 
L 293.871151 138.902115 
L 307.168846 140.913509 
L 310.521235 145.30836 
L 314.181203 145.34994 
L 317.310748 147.026823 
L 327.078132 148.179969 
L 329.473482 151.425901 
L 325.91555 156.142878 
L 327.436727 160.347028 
L 324.905036 166.416108 
L 327.853318 174.334442 
L 327.853318 265.119626 
L 316.548931 265.149509 
L 316.42763 269.273447 
L 238.016372 231.632296 
L 221.138636 240.660383 
L 215.609844 235.261633 
L 200.059736 231.023349 
L 195.746019 224.867463 
L 187.98722 220.300267 
L 183.391577 222.10129 
L 179.896206 216.61974 
L 179.526909 212.407617 
z
" clip-path="url(#p3695c2d797)" style="fill: #e8edf4; stroke: #b8c5d4; stroke-width: 0.45"/>
    <path d="M 406.042126 385.222053 
L 409.390387 379.622843 
L 414.607116 379.381224 
L 416.07649 376.379172 
L 415.945162 367.541894 
L 418.853142 357.254803 
L 423.509566 354.501644 
L 424.497275 350.483279 
L 428.712927 342.974217 
L 434.641734 338.104287 
L 438.638473 328.421342 
L 440.204278 319.979619 
L 451.64884 322.034167 
L 454.718718 314.697817 
L 460.684289 319.160199 
L 466.449035 316.848501 
L 468.820105 318.903835 
L 475.559879 319.021401 
L 484.115334 322.9627 
L 486.657347 326.357063 
L 491.015532 329.514821 
L 495.057489 335.277797 
L 498.417448 338.458655 
L 491.636782 347.41399 
L 492.558925 353.118184 
L 498.049613 353.282442 
L 500.416555 352.585403 
L 502.598025 354.337401 
L 500.454204 357.820121 
L 507.710932 367.965563 
L 511.463595 371.473855 
L 543.603344 383.138999 
L 551.871077 383.07884 
L 524.093544 412.58211 
L 511.287837 413.015314 
L 502.527428 419.945002 
L 496.225871 420.126462 
L 493.537129 423.225024 
L 486.820523 423.223274 
L 482.855927 419.901455 
L 473.875919 424.012615 
L 470.970635 428.10903 
L 464.415326 427.335613 
L 462.239281 426.201931 
L 456.830623 426.37361 
L 444.38772 418.025476 
L 437.545965 418.025476 
L 434.187766 414.79044 
L 434.187766 409.273247 
L 429.081716 407.624105 
L 423.272371 396.927009 
L 418.783055 394.647946 
L 417.060659 390.717165 
L 412.078767 385.926169 
z
" clip-path="url(#p3695c2d797)" style="fill: #e8edf4; stroke: #b8c5d4; stroke-width: 0.45"/>
    <path d="M 491.636782 347.41399 
L 498.417448 338.458655 
L 502.625456 339.31203 
L 505.589993 336.911344 
L 507.916007 339.953602 
L 507.606651 344.035175 
L 501.998615 346.38735 
L 506.219881 349.07682 
L 502.598025 354.337401 
L 500.416555 352.585403 
L 498.049613 353.282442 
L 492.558925 353.118184 
z
" clip-path="url(#p3695c2d797)" style="fill: #e8edf4; stroke: #b8c5d4; stroke-width: 0.45"/>
    <path d="M 372.869021 474.93252 
L 372.951312 467.521684 
L 375.228561 463.765722 
L 375.781745 455.875358 
L 377.849708 451.305114 
L 381.60821 446.178892 
L 385.38449 443.568158 
L 388.544598 440.077867 
L 384.60475 438.74672 
L 385.199514 427.252731 
L 389.246559 424.571838 
L 395.497295 426.770099 
L 403.410071 424.469411 
L 410.326194 424.492216 
L 416.371583 419.971592 
L 421.032235 426.796345 
L 426.506114 443.013324 
L 422.929111 450.178339 
L 415.276227 460.668087 
L 415.375924 471.08595 
L 384.570475 471.72047 
L 375.248372 475.935261 
z
" clip-path="url(#p3695c2d797)" style="fill: #e8edf4; stroke: #b8c5d4; stroke-width: 0.45"/>
    <path d="M 236.926983 21.184012 
L 238.984787 17.103963 
L 242.511652 19.3614 
L 244.642604 17.321884 
L 249.235199 17.103963 
L 257.685351 18.736084 
L 264.482047 18.599947 
L 268.927775 20.775891 
L 272.491606 20.748662 
L 270.030002 25.07313 
L 274.769489 28.853711 
L 273.336683 33.477401 
L 269.185024 34.810041 
L 265.988635 37.094707 
L 264.548751 42.502234 
L 255.848516 38.781002 
L 252.137256 34.674284 
L 243.870991 28.826484 
z
" clip-path="url(#p3695c2d797)" style="fill: #e8edf4; stroke: #b8c5d4; stroke-width: 0.45"/>
    <path d="M 283.256775 53.658298 
L 284.505875 50.312987 
L 285.754896 50.394564 
L 286.195767 48.381892 
L 297.548517 45.906919 
L 302.104144 45.743551 
L 307.02743 48.898579 
L 307.725387 55.399125 
L 305.851737 55.725418 
L 304.235096 57.438896 
L 298.90797 57.248406 
L 295.160644 59.397137 
L 288.730705 60.267551 
L 284.652688 57.873976 
z
" clip-path="url(#p3695c2d797)" style="fill: #e8edf4; stroke: #b8c5d4; stroke-width: 0.45"/>
    <path d="M 267.201102 10.467839 
L 274.732967 7.883976 
L 280.86828 8.319056 
L 286.195914 12.181184 
L 287.298218 15.309036 
L 293.286727 17.62108 
L 294.058339 21.673191 
L 299.789813 24.529022 
L 302.875756 22.326192 
L 305.300826 23.550156 
L 303.023069 25.2092 
L 304.82333 26.922597 
L 302.398261 29.152604 
L 303.280104 32.742966 
L 308.056078 36.986075 
L 304.308752 40.059319 
L 302.655296 43.18717 
L 303.721026 44.356527 
L 302.104144 45.743551 
L 294.201986 46.481139 
L 293.874493 45.743644 
L 296.152376 42.180796 
L 294.756236 42.235156 
L 286.710068 36.387544 
L 284.946583 36.931531 
L 283.587206 40.195255 
L 281.235795 40.902418 
L 282.04401 40.059307 
L 275.066746 36.960333 
L 271.021938 33.912473 
L 273.336683 33.477401 
L 274.769489 28.853711 
L 270.030002 25.07313 
L 272.491606 20.748662 
L 268.927775 20.775891 
L 272.712245 17.07704 
L 269.58922 14.275562 
z
" clip-path="url(#p3695c2d797)" style="fill: #e8edf4; stroke: #b8c5d4; stroke-width: 0.45"/>
    <path d="M 263.467628 44.173394 
L 265.988635 37.094707 
L 271.021938 33.912473 
L 275.066746 36.960333 
L 282.04401 40.059307 
L 279.398783 43.105495 
L 276.753689 43.9758 
L 276.12888 42.126266 
L 271.866976 46.967515 
L 272.528352 50.095335 
L 270.470873 49.333819 
L 267.715355 46.124455 
z
" clip-path="url(#p3695c2d797)" style="fill: #e8edf4; stroke: #b8c5d4; stroke-width: 0.45"/>
    <path d="M 279.398783 43.105495 
L 281.235795 40.902418 
L 283.587206 40.195255 
L 284.946583 36.931531 
L 286.710068 36.387544 
L 294.756236 42.235156 
L 296.152376 42.180796 
L 293.874493 45.743644 
L 294.201986 46.481139 
L 286.195767 48.381892 
L 285.754896 50.394564 
L 284.505875 50.312987 
L 283.844356 46.75003 
L 281.493088 45.743551 
z
" clip-path="url(#p3695c2d797)" style="fill: #e8edf4; stroke: #b8c5d4; stroke-width: 0.45"/>
    <path d="M 316.912437 377.016447 
L 323.306155 374.089025 
L 325.837458 365.313839 
L 328.537516 360.757493 
L 335.625166 359.407464 
L 342.375309 367.845143 
L 345.075367 368.688911 
L 348.619192 367.001375 
L 355.706842 367.338882 
L 357.056871 369.363925 
L 366.844579 369.363925 
L 367.182086 367.338882 
L 372.244693 365.482593 
L 373.257215 362.613782 
L 376.969793 360.588739 
L 385.238719 366.326361 
L 390.301326 365.313839 
L 395.19518 358.226189 
L 400.595295 352.826074 
L 399.751527 346.919699 
L 397.388977 344.050888 
L 403.295352 343.544627 
L 403.970366 341.350831 
L 408.526713 342.025845 
L 407.345438 349.282249 
L 408.526713 356.369899 
L 413.58932 360.251232 
L 414.770596 363.626303 
L 414.601842 368.520157 
L 415.962589 368.71455 
L 416.07649 376.379172 
L 414.607116 379.381224 
L 409.390387 379.622843 
L 406.042126 385.222053 
L 412.078767 385.926169 
L 417.060659 390.717165 
L 418.783055 394.647946 
L 423.272371 396.927009 
L 429.081716 407.624105 
L 416.371583 419.971592 
L 410.326194 424.492216 
L 403.410071 424.469411 
L 395.497295 426.770099 
L 389.246559 424.571838 
L 385.199514 427.252731 
L 376.545738 420.720492 
L 374.211089 416.522085 
L 368.73665 418.601477 
L 364.191297 417.954572 
L 361.55999 419.605235 
L 357.146202 418.413273 
L 349.610912 407.182216 
L 342.263064 403.291895 
L 339.781102 397.395076 
L 335.684289 393.141554 
L 329.073513 388.022443 
L 328.983093 384.827539 
z
" clip-path="url(#p3695c2d797)" style="fill: #e8edf4; stroke: #b8c5d4; stroke-width: 0.45"/>
   </g>
   <g id="PathCollection_1">
    <defs>
     <path id="m9e428d8e2f" d="M 0 2.12132 
C 0.562581 2.12132 1.102195 1.897805 1.5 1.5 
C 1.897805 1.102195 2.12132 0.562581 2.12132 0 
C 2.12132 -0.562581 1.897805 -1.102195 1.5 -1.5 
C 1.102195 -1.897805 0.562581 -2.12132 0 -2.12132 
C -0.562581 -2.12132 -1.102195 -1.897805 -1.5 -1.5 
C -1.897805 -1.102195 -2.12132 -0.562581 -2.12132 0 
C -2.12132 0.562581 -1.897805 1.102195 -1.5 1.5 
C -1.102195 1.897805 -0.562581 2.12132 0 2.12132 
z
" style="stroke: #ffffff; stroke-width: 0.5"/>
    </defs>
    <g clip-path="url(#p3695c2d797)">
     <use xlink:href="#m9e428d8e2f" x="96.850627" y="43.97672" style="fill: #8aa0b7; stroke: #ffffff; stroke-width: 0.5"/>
     <use xlink:href="#m9e428d8e2f" x="278.703809" y="58.721572" style="fill: #8aa0b7; stroke: #ffffff; stroke-width: 0.5"/>
     <use xlink:href="#m9e428d8e2f" x="406.492532" y="117.700983" style="fill: #8aa0b7; stroke: #ffffff; stroke-width: 0.5"/>
     <use xlink:href="#m9e428d8e2f" x="29.5158" y="106.560427" style="fill: #8aa0b7; stroke: #ffffff; stroke-width: 0.5"/>
     <use xlink:href="#m9e428d8e2f" x="423.69486" y="152.105639" style="fill: #8aa0b7; stroke: #ffffff; stroke-width: 0.5"/>
     <use xlink:href="#m9e428d8e2f" x="434.34392" y="129.169201" style="fill: #8aa0b7; stroke: #ffffff; stroke-width: 0.5"/>
     <use xlink:href="#m9e428d8e2f" x="154.847047" y="31.853174" style="fill: #8aa0b7; stroke: #ffffff; stroke-width: 0.5"/>
     <use xlink:href="#m9e428d8e2f" x="272.554223" y="41.925219" style="fill: #8aa0b7; stroke: #ffffff; stroke-width: 0.5"/>
     <use xlink:href="#m9e428d8e2f" x="298.363613" y="50.529987" style="fill: #8aa0b7; stroke: #ffffff; stroke-width: 0.5"/>
     <use xlink:href="#m9e428d8e2f" x="225.458508" y="109.509398" style="fill: #8aa0b7; stroke: #ffffff; stroke-width: 0.5"/>
     <use xlink:href="#m9e428d8e2f" x="428.444669" y="147.660557" style="fill: #8aa0b7; stroke: #ffffff; stroke-width: 0.5"/>
     <use xlink:href="#m9e428d8e2f" x="227.752152" y="8.425242" style="fill: #8aa0b7; stroke: #ffffff; stroke-width: 0.5"/>
     <use xlink:href="#m9e428d8e2f" x="204.160388" y="31.525511" style="fill: #8aa0b7; stroke: #ffffff; stroke-width: 0.5"/>
     <use xlink:href="#m9e428d8e2f" x="93.573993" y="383.10833" style="fill: #8aa0b7; stroke: #ffffff; stroke-width: 0.5"/>
     <use xlink:href="#m9e428d8e2f" x="204.521473" y="49.846154" style="fill: #8aa0b7; stroke: #ffffff; stroke-width: 0.5"/>
     <use xlink:href="#m9e428d8e2f" x="287.580211" y="42.968172" style="fill: #8aa0b7; stroke: #ffffff; stroke-width: 0.5"/>
    </g>
   </g>
   <g id="PatchCollection_2">
    <defs>
     <path id="m34b0eb1c93" d="M 173.714667 -226.757106 
L 177.61591 -230.86484 
L 176.758449 -237.045362 
L 178.007558 -242.425318 
L 177.29741 -246.90692 
L 179.028586 -254.92631 
L 178.494197 -259.49376 
L 175.314278 -268.172755 
L 180.110063 -270.451019 
L 180.96092 -274.604217 
L 179.915509 -278.676138 
L 186.665471 -282.464102 
L 189.691982 -285.613542 
L 194.483703 -288.435593 
L 195.039426 -295.985869 
L 206.584868 -292.602262 
L 210.712935 -293.448026 
L 218.925031 -291.807809 
L 231.968819 -287.415023 
L 236.572261 -278.678009 
L 259.251319 -272.655327 
L 269.723309 -267.768096 
L 274.516664 -270.318268 
L 279.228235 -274.839433 
L 276.937671 -282.369432 
L 280.020721 -287.150795 
L 287.103657 -291.757087 
L 293.871151 -293.097885 
L 307.168846 -291.086491 
L 310.521235 -286.69164 
L 314.181203 -286.65006 
L 317.310748 -284.973177 
L 327.078132 -283.820031 
L 329.473482 -280.574099 
L 325.91555 -275.857122 
L 327.436727 -271.652972 
L 324.905036 -265.583892 
L 327.853318 -257.665558 
L 327.853318 -166.880374 
L 316.548931 -166.850491 
L 316.42763 -162.726553 
L 238.016372 -200.367704 
L 221.138636 -191.339617 
L 215.609844 -196.738367 
L 200.059736 -200.976651 
L 195.746019 -207.132537 
L 187.98722 -211.699733 
L 183.391577 -209.89871 
L 179.896206 -215.38026 
L 179.526909 -219.592383 
z
" style="stroke: #b45309; stroke-width: 1.15"/>
    </defs>
    <g clip-path="url(#p3695c2d797)">
     <use xlink:href="#m34b0eb1c93" x="0" y="432" style="fill: #f59e0b; stroke: #b45309; stroke-width: 1.15"/>
    </g>
   </g>
   <g id="PathCollection_2">
    <path d="M 249.214104 220.135215 
C 250.310776 220.135215 251.362678 219.699502 252.138142 218.924038 
C 252.913606 218.148574 253.349319 217.096672 253.349319 216 
C 253.349319 214.903328 252.913606 213.851426 252.138142 213.075962 
C 251.362678 212.300498 250.310776 211.864785 249.214104 211.864785 
C 248.117432 211.864785 247.06553 212.300498 246.290066 213.075962 
C 245.514602 213.851426 245.07889 214.903328 245.07889 216 
C 245.07889 217.096672 245.514602 218.148574 246.290066 218.924038 
C 247.06553 219.699502 248.117432 220.135215 249.214104 220.135215 
L 249.214104 220.135215 
z
" clip-path="url(#p3695c2d797)" style="fill: none; stroke: #7c2d12; stroke-width: 1.1"/>
   </g>
  </g>
 </g>
 <defs>
  <clipPath id="p3695c2d797">
   <rect x="0" y="0" width="498.428208" height="432"/>
  </clipPath>
 </defs>
</svg>
