<?xml version="1.0" encoding="utf-8" standalone="no"?>
<!DOCTYPE svg PUBLIC "-//W3C//DTD SVG 1.1//EN"
  "http://www.w3.org/Graphics/SVG/1.1/DTD/svg11.dtd">
<svg xmlns:xlink="http://www.w3.org/1999/xlink" width="576pt" height="395.813458pt" viewBox="0 0 576 395.813458" xmlns="http://www.w3.org/2000/svg" version="1.1">
 <metadata>
  <rdf:RDF xmlns:dc="http://purl.org/dc/elements/1.1/" xmlns:cc="http://creativecommons.org/ns#" xmlns:rdf="http://www.w3.org/1999/02/22-rdf-syntax-ns#">
   <cc:Work>
    <dc:type rdf:resource="http://purl.org/dc/dcmitype/StillImage"/>
    <dc:date>2026-06-09T04:56:59.867085</dc:date>
    <dc:format>image/svg+xml</dc:format>
    <dc:creator>
     <cc:Agent>
      <dc:title>Matplotlib v3.10.8, https://matplotlib.org/</dc:title>
     </cc:Agent>
    </dc:creator>
   </cc:Work>
  </rdf:RDF>
 </metadata>
 <defs>
  <style type="text/css">*{stroke-linejoin: round; stroke-linecap: butt}</style>
 </defs>
 <g id="figure_1">
  <g id="patch_1">
   <path d="M 0 395.813458 
L 576 395.813458 
L 576 0 
L 0 0 
z
" style="fill: #eaf3ff"/>
  </g>
  <g id="axes_1">
   <g id="PatchCollection_1">
    <path d="M 404.23853 358.187491 
L 410.001883 357.52415 
L 423.921627 342.28938 
L 423.792984 337.7597 
L 420.791548 334.600213 
L 419.983314 329.111774 
L 424.006213 327.347572 
L 424.81216 319.147649 
L 419.278563 311.283358 
L 424.167205 309.60934 
L 467.845186 308.709676 
L 520.737618 338.633301 
L 521.688294 346.71885 
L 541.693034 360.65145 
L 535.25838 377.824931 
L 536.083896 385.723439 
L 545.007088 390.80142 
L 545.425212 394.425164 
L 541.588085 402.842006 
L 542.38726 407.077745 
L 541.474216 413.735678 
L 552.109626 436.215297 
L 557.224541 439.263423 
L 546.136023 447.344094 
L 530.89618 452.756328 
L 522.534856 452.527581 
L 517.568236 456.708406 
L 507.865814 457.067679 
L 504.227166 458.829384 
L 487.478726 454.90192 
L 476.992044 456.029094 
L 473.089703 437.073845 
L 465.559563 426.72039 
L 451.896032 424.12034 
L 443.986366 419.935751 
L 429.573432 415.255822 
L 423.751168 411.707719 
L 416.224749 394.146149 
L 408.141506 386.341638 
L 405.35346 378.257674 
L 406.747123 371.009908 
z
" clip-path="url(#p0a93b3c434)" style="fill: #e8edf4; stroke: #b8c5d4; stroke-width: 0.45"/>
    <path d="M 165.104017 376.1661 
L 168.649034 374.693931 
L 169.085499 368.617994 
L 171.365776 365.034804 
L 176.4377 362.105591 
L 180.099396 363.525183 
L 184.865938 358.189651 
L 192.457979 358.327217 
L 193.351075 362.272687 
L 198.557684 364.741667 
L 218.400272 344.739906 
L 217.933557 333.272979 
L 223.986446 319.733204 
L 230.372807 312.55386 
L 239.549373 305.83619 
L 241.151185 301.390154 
L 241.49834 296.278617 
L 243.769974 291.442211 
L 243.040372 283.543349 
L 244.777589 271.192328 
L 247.501533 262.496881 
L 251.676039 255.044207 
L 253.75537 236.906785 
L 259.181651 229.830436 
L 266.644769 225.342266 
L 278.113857 230.078919 
L 286.990804 235.220346 
L 307.583881 239.312744 
L 311.751184 230.89603 
L 313.66558 229.821793 
L 320.017369 231.221578 
L 335.5342 224.265509 
L 341.032506 227.213807 
L 345.545524 226.795709 
L 347.635658 223.406623 
L 352.815618 222.212467 
L 372.239026 223.99974 
L 376.840634 222.521089 
L 385.283277 234.026909 
L 391.541435 235.71695 
L 395.272273 233.376533 
L 401.716973 234.293758 
L 409.47899 231.345459 
L 412.789209 237.298235 
L 425.059202 246.56015 
L 424.215802 262.857001 
L 429.801977 264.744388 
L 425.321369 269.693151 
L 419.967112 273.394819 
L 414.638063 280.663113 
L 411.705969 287.143104 
L 410.921629 298.330578 
L 407.692797 303.656026 
L 407.576118 314.163595 
L 403.567987 318.048565 
L 403.051576 326.342118 
L 401.13718 327.416715 
L 399.847232 335.041166 
L 403.351916 341.37783 
L 404.23853 358.187491 
L 406.747123 371.009908 
L 405.35346 378.257674 
L 408.141506 386.341638 
L 416.224749 394.146149 
L 423.751248 411.707739 
L 418.260865 410.289589 
L 399.54041 412.64189 
L 395.80453 414.307803 
L 391.832411 423.204916 
L 394.951767 429.351437 
L 390.750612 459.84276 
L 404.260137 467.746664 
L 408.085327 465.212143 
L 409.250674 480.241373 
L 398.583933 480.126134 
L 387.724167 466.516496 
L 377.043741 464.568969 
L 373.916463 457.265745 
L 365.396034 461.665685 
L 354.235209 459.72176 
L 349.577422 453.393739 
L 340.727844 452.108112 
L 334.195996 452.444464 
L 333.39653 448.112226 
L 322.241467 446.939676 
L 304.101524 449.96324 
L 304.846972 433.377574 
L 300.197828 428.205537 
L 299.175089 419.633971 
L 301.228491 411.232382 
L 298.403713 405.855076 
L 298.148028 397.085445 
L 281.236813 397.207165 
L 282.450416 392.185658 
L 275.339495 392.238236 
L 274.588286 394.653197 
L 265.943976 395.197698 
L 260.358522 406.805072 
L 252.657005 404.836658 
L 248.058278 406.797149 
L 238.842098 407.924323 
L 230.301503 396.129687 
L 222.863593 377.386185 
L 181.735059 377.201803 
L 167.056586 380.488975 
z
" clip-path="url(#p0a93b3c434)" style="fill: #e8edf4; stroke: #b8c5d4; stroke-width: 0.45"/>
    <path d="M 566.485438 256.659887 
L 582.479529 236.45598 
L 591.414289 236.198694 
L 603.835369 226.37333 
L 621.992139 225.759106 
L 661.376942 183.927439 
L 677.387055 163.735533 
L 677.527479 136.433849 
L 695.793592 132.685327 
L 702.389364 127.91411 
L 707.674177 127.875921 
L 706.755836 147.161767 
L 703.813217 152.195705 
L 699.885775 167.261839 
L 684.55887 200.629276 
L 672.598424 221.055346 
L 644.308271 255.673532 
L 630.360061 266.956338 
L 609.511825 280.795278 
L 596.519587 291.396542 
L 581.266411 308.279844 
L 578.05215 315.629216 
L 574.904789 318.929332 
L 566.65199 307.43147 
z
" clip-path="url(#p0a93b3c434)" style="fill: #e8edf4; stroke: #b8c5d4; stroke-width: 0.45"/>
    <path d="M 467.703829 293.938549 
L 478.554588 279.065498 
L 483.626297 268.90647 
L 475.865073 245.912977 
L 469.256897 236.236396 
L 487.278154 218.729321 
L 494.517845 221.067582 
L 494.517845 228.89022 
L 499.279319 233.477066 
L 508.980007 233.477066 
L 526.62237 245.313596 
L 534.291119 245.070178 
L 537.376458 246.677587 
L 546.671003 247.774188 
L 550.790305 241.966023 
L 563.522748 236.136951 
L 569.144011 240.846843 
L 578.667254 240.849325 
L 566.485438 256.659887 
L 566.65199 307.43147 
L 574.904789 318.929332 
L 565.143537 324.494567 
L 561.702095 330.30984 
L 556.478189 331.331457 
L 554.501158 341.151664 
L 550.025416 346.775158 
L 547.305238 356.048737 
L 541.693034 360.65145 
L 521.688294 346.71885 
L 520.737618 338.633301 
L 467.845186 308.709676 
z
" clip-path="url(#p0a93b3c434)" style="fill: #e8edf4; stroke: #b8c5d4; stroke-width: 0.45"/>
    <path d="M 301.056768 120.021595 
L 302.461387 114.902638 
L 306.071055 109.092662 
L 304.492078 103.320316 
L 309.073745 99.045691 
L 306.167641 95.789339 
L 309.853268 87.183365 
L 316.217678 76.919388 
L 328.235965 77.893339 
L 327.721811 16.71952 
L 343.749911 16.67715 
L 343.749911 -11.155436 
L 509.135226 -11.155436 
L 513.629923 2.519321 
L 510.573295 5.047718 
L 512.598271 19.396073 
L 517.71458 36.035609 
L 530.652739 44.618066 
L 523.599122 52.573123 
L 513.333752 54.864445 
L 508.944282 59.137536 
L 507.56949 68.401638 
L 501.567036 88.88095 
L 503.048451 94.461237 
L 500.82835 106.430464 
L 495.161511 120.159576 
L 486.75526 127.064481 
L 480.778034 137.711321 
L 479.377596 143.408822 
L 472.775413 147.312431 
L 468.652289 161.898141 
L 468.838494 174.428212 
L 468.676997 163.560809 
L 466.747642 163.285187 
L 466.986912 156.34636 
L 465.312023 151.560963 
L 458.133927 146.057756 
L 456.459038 136.008422 
L 458.133927 125.719818 
L 451.67364 124.762738 
L 450.716561 127.873247 
L 442.342115 128.591056 
L 445.691894 132.658644 
L 446.888243 141.033089 
L 439.231607 148.689725 
L 432.292781 158.739059 
L 425.114685 160.174678 
L 413.390462 152.039503 
L 408.126525 154.910741 
L 406.690906 158.978329 
L 399.51281 161.610297 
L 399.03427 164.481536 
L 385.156618 164.481536 
L 383.242459 161.610297 
L 373.193124 161.131758 
L 368.168457 163.524456 
L 364.340139 162.328107 
L 354.769345 150.364614 
L 344.720011 152.278773 
L 340.891693 158.739059 
L 337.302645 171.181092 
L 328.237213 175.331782 
L 337.720126 180.77495 
L 327.105962 174.682447 
L 322.272437 170.668914 
L 321.37718 166.337396 
L 323.641612 160.537311 
L 323.600558 154.850303 
L 315.561969 146.13649 
L 314.149774 136.796325 
L 309.027333 132.688254 
L 308.873045 124.592252 
L 305.951611 119.215033 
z
" clip-path="url(#p0a93b3c434)" style="fill: #e8edf4; stroke: #b8c5d4; stroke-width: 0.45"/>
    <path d="M 184.031901 95.227468 
L 190.049777 76.868516 
L 207.827882 63.72637 
L 208.562526 45.598671 
L 213.932628 17.316321 
L 216.964115 11.31709 
L 211.164749 6.539383 
L 210.940522 2.106771 
L 205.725504 -1.517932 
L 202.302631 -23.182782 
L 216.373212 -30.803376 
L 327.549823 22.56671 
L 328.235965 77.893339 
L 316.217678 76.919388 
L 309.853268 87.183365 
L 306.167641 95.789339 
L 309.073745 99.045691 
L 304.492078 103.320316 
L 306.071055 109.092662 
L 302.461387 114.902638 
L 301.056768 120.021595 
L 305.951611 119.215033 
L 308.873045 124.592252 
L 309.027333 132.688254 
L 314.149774 136.796325 
L 313.981765 140.17219 
L 305.158835 142.548619 
L 298.088248 148.190972 
L 288.012103 163.39774 
L 274.894388 169.854684 
L 261.435279 168.988597 
L 257.504934 170.269902 
L 258.884913 175.176171 
L 245.698775 185.489635 
L 228.152309 190.821925 
L 224.670673 187.665837 
L 222.362307 187.393587 
L 219.793214 190.978577 
L 208.270108 192.026165 
L 210.453153 188.250672 
L 204.096323 172.873566 
L 198.026147 170.507581 
L 189.799576 162.3732 
L 192.827461 155.796337 
L 199.17925 157.196482 
L 203.111756 156.203992 
L 210.8961 156.340477 
L 203.309822 143.671471 
L 203.819751 134.413518 
L 202.888842 125.166336 
L 197.347682 116.241525 
L 198.741345 109.676545 
L 189.803177 109.355678 
L 189.834148 100.390502 
z
" clip-path="url(#p0a93b3c434)" style="fill: #e8edf4; stroke: #b8c5d4; stroke-width: 0.45"/>
    <path d="M -174.31659 91.747273 
L -169.626033 89.206989 
L -167.282735 80.996263 
L -162.864788 80.675037 
L -153.132197 84.556765 
L -145.272228 81.80077 
L -139.884119 82.725917 
L -137.793265 79.626368 
L -81.869218 79.414618 
L -78.768588 69.656098 
L -81.18319 67.938328 
L -94.636537 -52.362852 
L -73.305935 -52.613495 
L 20.724163 8.206377 
L 24.037983 14.737145 
L 39.169487 20.990261 
L 39.32938 29.857485 
L 54.790033 28.492992 
L 54.828926 60.591529 
L 47.208076 69.90098 
L 46.021122 78.488751 
L 33.640932 80.699165 
L 14.623738 81.897282 
L 9.470427 86.850367 
L -8.397985 87.46185 
L -11.87674 84.787962 
L -19.549448 86.771861 
L -32.576413 92.55322 
L -35.235535 96.909947 
L -46.049206 103.157661 
L -47.944875 106.737969 
L -53.786014 109.575712 
L -60.526012 107.696608 
L -64.34508 111.097937 
L -66.390559 120.65623 
L -77.453792 132.207425 
L -77.131845 136.928233 
L -80.932907 142.835994 
L -80.009921 150.92716 
L -89.01507 154.75127 
L -91.172186 148.790211 
L -95.196523 150.361773 
L -97.600681 150.089882 
L -100.165812 154.157073 
L -110.929066 154.042194 
L -114.787387 151.94954 
L -116.60419 153.21572 
L -120.861163 149.197866 
L -120.122198 145.047488 
L -121.863736 143.421548 
L -124.832562 144.792524 
L -124.288781 140.257898 
L -121.431593 136.670387 
L -127.143089 130.831769 
L -128.80396 126.987852 
L -131.900988 123.925756 
L -134.690474 123.560234 
L -146.36447 130.392423 
L -152.329851 129.278933 
L -156.198975 125.740038 
L -158.508782 125.275124 
L -164.357124 127.148466 
L -165.162351 122.045211 
L -164.520618 117.70325 
L -165.712254 112.313701 
L -170.929306 108.399201 
L -173.677378 100.417871 
z
" clip-path="url(#p0a93b3c434)" style="fill: #e8edf4; stroke: #b8c5d4; stroke-width: 0.45"/>
    <path d="M 6.07738 149.532417 
L 7.850609 142.193901 
L 12.6438 140.616577 
L 15.482983 134.522994 
L 22.295725 133.220802 
L 30.019569 124.971183 
L 35.015868 124.935171 
L 45.643716 132.955754 
L 45.100656 137.586171 
L 48.235137 145.853796 
L 45.488865 151.464459 
L 46.957433 155.213303 
L 35.903203 168.113866 
L 33.27577 176.905105 
L 32.828502 208.236947 
L 21.309718 209.862887 
L 17.877058 200.247695 
L 18.511589 168.239548 
L 15.704097 165.367955 
L 15.174721 158.527844 
z
" clip-path="url(#p0a93b3c434)" style="fill: #e8edf4; stroke: #b8c5d4; stroke-width: 0.45"/>
    <path d="M -0.566465 94.152871 
L 0.538021 87.397748 
L 9.470427 86.850367 
L 14.623738 81.897282 
L 33.640932 80.699165 
L 46.021122 78.488751 
L 47.208076 69.90098 
L 54.828926 60.591529 
L 54.790033 28.492992 
L 74.443918 22.277689 
L 114.797476 -5.101841 
L 162.555811 -31.666781 
L 184.603771 -25.657466 
L 192.442854 -18.002765 
L 202.302631 -23.182782 
L 205.725504 -1.517932 
L 210.940522 2.106771 
L 211.164749 6.539383 
L 216.964115 11.31709 
L 213.932628 17.316321 
L 208.562526 45.598671 
L 207.827882 63.72637 
L 190.049777 76.868516 
L 184.031901 95.227468 
L 189.834148 100.390502 
L 189.803177 109.355678 
L 198.741345 109.676545 
L 197.347682 116.241525 
L 193.413736 117.04099 
L 192.965027 121.478383 
L 190.372887 121.786285 
L 180.942076 106.52766 
L 177.670749 105.973075 
L 166.772811 113.763542 
L 155.981469 109.696712 
L 148.480178 108.883562 
L 144.458363 110.840451 
L 136.28797 110.417671 
L 128.066441 116.357123 
L 120.958401 116.697796 
L 104.090401 109.493964 
L 97.485088 112.91546 
L 90.372726 112.677781 
L 85.145951 107.413914 
L 71.175473 102.213067 
L 56.19666 103.863855 
L 52.567375 106.878056 
L 50.606884 114.893597 
L 46.611718 120.513263 
L 45.643716 132.955754 
L 35.015868 124.935171 
L 30.019569 124.971183 
L 25.340896 129.053498 
L 25.656361 119.508169 
L 9.586385 116.34704 
L 9.153522 109.60236 
L 1.305076 100.501419 
z
" clip-path="url(#p0a93b3c434)" style="fill: #e8edf4; stroke: #b8c5d4; stroke-width: 0.45"/>
    <path d="M 32.828502 208.236947 
L 33.27577 176.905105 
L 35.903203 168.113866 
L 46.957433 155.213303 
L 45.488865 151.464459 
L 48.235137 145.853796 
L 45.100656 137.586171 
L 46.611718 120.513263 
L 50.606884 114.893597 
L 52.567375 106.878056 
L 56.19666 103.863855 
L 71.175473 102.213067 
L 85.145951 107.413914 
L 90.372726 112.677781 
L 97.485088 112.91546 
L 104.090401 109.493964 
L 120.958401 116.697796 
L 128.066441 116.357123 
L 136.28797 110.417671 
L 144.458363 110.840451 
L 148.480178 108.883562 
L 155.981469 109.696712 
L 166.772811 113.763542 
L 177.670749 105.973075 
L 180.942076 106.52766 
L 190.372887 121.786285 
L 192.965027 121.478383 
L 198.482059 127.029626 
L 196.22699 134.17944 
L 184.485652 144.964301 
L 178.836096 161.103059 
L 175.879515 164.20909 
L 173.066981 173.965449 
L 165.613226 179.706835 
L 163.453949 186.759417 
L 160.32307 192.37296 
L 159.019437 198.166204 
L 149.444578 202.862523 
L 141.619901 197.135181 
L 136.336226 197.366378 
L 128.035471 205.523806 
L 123.999971 205.649128 
L 113.78554 228.959667 
L 99.315936 233.975412 
L 94.0265 233.242569 
L 88.6672 236.365886 
L 77.518619 236.061225 
L 70.056942 227.34309 
L 65.468298 217.254701 
L 55.601022 208.072012 
z
" clip-path="url(#p0a93b3c434)" style="fill: #e8edf4; stroke: #b8c5d4; stroke-width: 0.45"/>
    <path d="M 113.625646 232.811506 
L 113.78554 228.959667 
L 117.37089 219.096352 
L 123.999971 205.649128 
L 128.035471 205.523806 
L 136.336226 197.366378 
L 141.619901 197.135181 
L 149.444578 202.862523 
L 159.019437 198.166204 
L 160.32307 192.37296 
L 163.453949 186.759417 
L 165.613226 179.706835 
L 173.066981 173.965449 
L 175.879515 164.20909 
L 178.836096 161.103059 
L 184.485652 144.964301 
L 196.22699 134.17944 
L 198.482059 127.029626 
L 192.965027 121.478383 
L 193.413736 117.04099 
L 197.347682 116.241525 
L 202.888842 125.166336 
L 203.819751 134.413518 
L 203.309822 143.671471 
L 210.8961 156.340477 
L 203.111756 156.203992 
L 199.17925 157.196482 
L 192.827461 155.796337 
L 189.799576 162.3732 
L 198.026147 170.507581 
L 204.096323 172.873566 
L 210.453153 188.250672 
L 201.260741 206.150774 
L 197.915951 208.680974 
L 196.840634 219.485282 
L 198.227814 225.35523 
L 197.104962 229.508489 
L 203.691548 236.786866 
L 204.879943 241.790727 
L 210.025331 248.983395 
L 216.399447 253.467964 
L 218.491742 263.863895 
L 217.489169 271.389674 
L 195.145911 264.418119 
L 175.821896 263.111605 
L 167.571557 264.906801 
L 159.101544 263.039942 
L 152.478226 263.955726 
L 129.797896 263.63774 
L 131.833291 252.633567 
L 126.386123 243.419188 
L 120.027132 241.055363 
L 117.195152 234.810169 
z
" clip-path="url(#p0a93b3c434)" style="fill: #e8edf4; stroke: #b8c5d4; stroke-width: 0.45"/>
    <path d="M -5.380904 146.241645 
L -4.355283 141.896442 
L 7.850609 142.193901 
L 6.07738 149.532417 
L 15.174721 158.527844 
L 15.704097 165.367955 
L 18.511589 168.239548 
L 17.877058 200.247695 
L 21.309718 209.862887 
L 10.088392 212.836034 
L 3.262686 199.100354 
L 2.155678 192.168052 
L 5.236861 179.614284 
L 1.740821 174.530477 
L 0.436108 153.429271 
z
" clip-path="url(#p0a93b3c434)" style="fill: #e8edf4; stroke: #b8c5d4; stroke-width: 0.45"/>
    <path d="M -49.905366 208.353266 
L -46.270679 192.6146 
L -40.397489 180.908194 
L -45.996268 150.584326 
L -45.668919 142.676821 
L -21.458802 142.019963 
L -15.301477 143.03586 
L -10.801423 140.786193 
L -4.355283 141.896442 
L -5.380904 146.241645 
L 0.436108 153.429271 
L 1.740821 174.530477 
L 5.236861 179.614284 
L 2.155678 192.168052 
L 3.262686 199.100354 
L 10.088392 212.836034 
L -11.762222 220.994543 
L -19.511275 225.774049 
L -32.070085 229.817112 
L -44.494209 225.858677 
L -43.861119 220.359292 
z
" clip-path="url(#p0a93b3c434)" style="fill: #e8edf4; stroke: #b8c5d4; stroke-width: 0.45"/>
    <path d="M -80.932907 142.835994 
L -77.131845 136.928233 
L -77.453792 132.207425 
L -66.390559 120.65623 
L -64.34508 111.097937 
L -60.526012 107.696608 
L -53.786014 109.575712 
L -47.944875 106.737969 
L -46.049206 103.157661 
L -35.235535 96.909947 
L -32.576413 92.55322 
L -19.549448 86.771861 
L -11.87674 84.787962 
L -8.397985 87.46185 
L 0.538021 87.397748 
L -0.566465 94.152871 
L 1.305076 100.501419 
L 9.153522 109.60236 
L 9.586385 116.34704 
L 25.656361 119.508169 
L 25.340896 129.053498 
L 22.295725 133.220802 
L 15.482983 134.522994 
L 12.6438 140.616577 
L 7.850609 142.193901 
L -10.801423 140.786193 
L -15.301477 143.03586 
L -21.458802 142.019963 
L -45.668919 142.676821 
L -45.996268 150.584326 
L -44.095197 161.07749 
L -53.634044 157.483497 
L -60.164452 158.012873 
L -65.03975 161.518276 
L -71.306551 158.575379 
L -73.7424 153.965849 
L -80.009921 150.92716 
z
" clip-path="url(#p0a93b3c434)" style="fill: #e8edf4; stroke: #b8c5d4; stroke-width: 0.45"/>
    <path d="M 196.840634 219.485282 
L 197.915951 208.680974 
L 201.260741 206.150774 
L 208.270108 192.026165 
L 219.793214 190.978577 
L 222.362307 187.393587 
L 224.670673 187.665837 
L 228.152309 190.821925 
L 245.698775 185.489635 
L 258.884913 175.176171 
L 257.504934 170.269902 
L 261.435279 168.988597 
L 274.894388 169.854684 
L 288.012103 163.39774 
L 298.088248 148.190972 
L 305.158835 142.548619 
L 313.981765 140.17219 
L 315.561969 146.13649 
L 323.600558 154.850303 
L 323.641612 160.537311 
L 321.37718 166.337396 
L 322.272437 170.668914 
L 345.35178 186.406859 
L 345.479982 190.936803 
L 354.853174 198.195013 
L 360.661902 204.225935 
L 364.180991 212.586831 
L 374.59925 218.102783 
L 376.840634 222.521089 
L 372.239026 223.99974 
L 352.815618 222.212467 
L 347.635658 223.406623 
L 345.545524 226.795709 
L 341.032506 227.213807 
L 335.5342 224.265509 
L 320.017369 231.221578 
L 313.66558 229.821793 
L 311.751184 230.89603 
L 307.583881 239.312744 
L 286.990804 235.220346 
L 278.113857 230.078919 
L 266.644769 225.342266 
L 259.181651 229.830436 
L 253.75537 236.906785 
L 252.502153 246.626773 
L 243.538057 245.848914 
L 234.104365 243.507417 
L 225.797848 250.893469 
L 218.491742 263.863895 
L 216.399447 253.467964 
L 210.025331 248.983395 
L 204.879943 241.790727 
L 203.691548 236.786866 
L 197.104962 229.508489 
L 198.227814 225.35523 
z
" clip-path="url(#p0a93b3c434)" style="fill: #e8edf4; stroke: #b8c5d4; stroke-width: 0.45"/>
    <path d="M 149.93218 350.923879 
L 160.543463 343.231005 
L 155.287878 334.014825 
L 160.067385 330.510142 
L 169.471547 328.803175 
L 170.580716 322.626404 
L 178.027988 329.319587 
L 190.331833 329.905861 
L 194.607893 323.319995 
L 196.367437 314.053398 
L 194.847732 303.171305 
L 188.253943 294.928889 
L 194.288106 278.78689 
L 190.809351 276.01685 
L 180.439349 277.152667 
L 176.543575 269.950996 
L 177.556952 263.871458 
L 195.145911 264.418119 
L 217.489169 271.389674 
L 218.491742 263.863895 
L 225.797848 250.893469 
L 234.104365 243.507417 
L 243.538057 245.848914 
L 252.502153 246.626773 
L 251.676039 255.044207 
L 247.501533 262.496881 
L 244.777589 271.192328 
L 243.040372 283.543349 
L 243.769974 291.442211 
L 241.49834 296.278617 
L 241.151185 301.390154 
L 239.549373 305.83619 
L 230.372807 312.55386 
L 223.986446 319.733204 
L 217.933557 333.272979 
L 218.400272 344.739906 
L 198.557684 364.741667 
L 193.351075 362.272687 
L 192.457979 358.327217 
L 184.865938 358.189651 
L 180.099396 363.525183 
L 176.4377 362.105591 
L 171.214526 357.323924 
L 167.003288 359.668302 
L 161.3775 365.6859 
z
" clip-path="url(#p0a93b3c434)" style="fill: #e8edf4; stroke: #b8c5d4; stroke-width: 0.45"/>
    <path d="M 117.934837 310.95781 
L 118.382106 306.327393 
L 121.425116 301.871274 
L 127.619893 281.390554 
L 152.598505 280.727934 
L 152.478226 263.955726 
L 159.101544 263.039942 
L 167.571557 264.906801 
L 175.821896 263.111605 
L 177.556952 263.871458 
L 176.543575 269.950996 
L 180.439349 277.152667 
L 190.809351 276.01685 
L 194.288106 278.78689 
L 188.253943 294.928889 
L 194.847732 303.171305 
L 196.367437 314.053398 
L 194.607893 323.319995 
L 190.331833 329.905861 
L 178.027988 329.319587 
L 170.580716 322.626404 
L 169.471547 328.803175 
L 160.067385 330.510142 
L 155.287878 334.014825 
L 160.543463 343.231005 
L 149.93218 350.923879 
L 135.609505 336.856169 
L 126.398367 325.35539 
z
" clip-path="url(#p0a93b3c434)" style="fill: #e8edf4; stroke: #b8c5d4; stroke-width: 0.45"/>
    <path d="M 125.009746 279.288896 
L 129.797896 263.63774 
L 152.478226 263.955726 
L 152.598505 280.727934 
L 127.619893 281.390554 
z
" clip-path="url(#p0a93b3c434)" style="fill: #e8edf4; stroke: #b8c5d4; stroke-width: 0.45"/>
    <path d="M 157.546548 527.850619 
L 159.476069 515.59503 
L 164.285105 502.835274 
L 165.010386 496.853688 
L 169.532768 484.289837 
L 172.855231 478.57834 
L 185.332653 463.257414 
L 186.796179 452.932786 
L 186.066577 445.033203 
L 181.898553 440.050589 
L 174.763144 423.233006 
L 175.511473 420.336204 
L 179.795455 414.81053 
L 172.713344 392.015682 
L 165.731346 383.197794 
L 167.056586 380.488975 
L 181.735059 377.201803 
L 222.863593 377.386185 
L 230.301503 396.129687 
L 238.842098 407.924323 
L 248.058278 406.797149 
L 252.657005 404.836658 
L 260.358522 406.805072 
L 265.943976 395.197698 
L 274.588286 394.653197 
L 275.339495 392.238236 
L 282.450416 392.185658 
L 281.236813 397.207165 
L 298.148028 397.085445 
L 298.403713 405.855076 
L 301.228491 411.232382 
L 299.175089 419.633971 
L 300.197828 428.205537 
L 304.846972 433.377574 
L 304.101524 449.96324 
L 322.241467 446.939676 
L 328.588934 447.761469 
L 330.061823 452.088666 
L 328.476577 458.84811 
L 330.92611 465.385 
L 328.849661 470.605293 
L 330.037335 475.416491 
L 301.01602 475.240752 
L 300.374287 519.588036 
L 309.777009 530.990861 
L 318.872188 539.697112 
L 293.256884 545.376918 
L 259.514402 543.404183 
L 249.857435 536.726125 
L 193.360438 537.327525 
L 191.253019 538.30705 
L 182.94434 532.004958 
L 173.908941 531.58866 
L 158.858104 536.613768 
z
" clip-path="url(#p0a93b3c434)" style="fill: #e8edf4; stroke: #b8c5d4; stroke-width: 0.45"/>
    <path d="M 161.3775 365.6859 
L 167.003288 359.668302 
L 171.214526 357.323924 
L 176.4377 362.105591 
L 171.365776 365.034804 
L 169.085499 368.617994 
L 168.649034 374.693931 
L 165.104017 376.1661 
z
" clip-path="url(#p0a93b3c434)" style="fill: #e8edf4; stroke: #b8c5d4; stroke-width: 0.45"/>
    <path d="M 399.847232 335.041166 
L 408.310762 336.13665 
L 412.578179 328.201055 
L 419.983365 329.112119 
L 420.791548 334.600213 
L 423.792984 337.7597 
L 423.921627 342.28938 
L 410.001883 357.52415 
L 404.23853 358.187491 
L 403.351916 341.37783 
z
" clip-path="url(#p0a93b3c434)" style="fill: #e8edf4; stroke: #b8c5d4; stroke-width: 0.45"/>
    <path d="M -125.725658 -86.358499 
L -125.582331 -106.505747 
L -103.074858 -116.790762 
L -89.156957 -118.915828 
L -77.74909 -122.661431 
L -72.41824 -129.640548 
L -56.12247 -135.1565 
L -55.523951 -145.475005 
L -47.460874 -146.690409 
L -41.155901 -151.84516 
L -22.915845 -154.19422 
L -20.360437 -159.610778 
L -24.032936 -162.572402 
L -28.847014 -177.286167 
L -29.67673 -185.763021 
L -34.930154 -194.689665 
L -21.531906 -202.305833 
L -6.463423 -204.728357 
L 2.335738 -210.479107 
L 15.758114 -214.721315 
L 62.43249 -218.336555 
L 69.462024 -216.266588 
L 82.586942 -221.759852 
L 97.480046 -221.867528 
L 103.148328 -218.624651 
L 112.679972 -219.470932 
L 109.848713 -212.317517 
L 112.058406 -199.030906 
L 108.777717 -187.53625 
L 100.185264 -179.762349 
L 101.413992 -169.263783 
L 112.812496 -160.960146 
L 112.932776 -157.586546 
L 121.525229 -151.961479 
L 127.470083 -126.941812 
L 131.97878 -114.636167 
L 132.736471 -108.160137 
L 130.281896 -96.789722 
L 131.288791 -90.435412 
L 129.517723 -82.80736 
L 130.733486 -74.04421 
L 125.20205 -68.219997 
L 133.443026 -58.061384 
L 133.96664 -52.089161 
L 138.922605 -44.317061 
L 145.438608 -46.870669 
L 156.439541 -40.394999 
L 162.555811 -31.666781 
L 114.797476 -5.101841 
L 74.443918 22.277689 
L 54.790033 28.492992 
L 39.32938 29.857485 
L 39.169487 20.990261 
L 24.037983 14.737145 
L 20.724163 8.206377 
z
" clip-path="url(#p0a93b3c434)" style="fill: #e8edf4; stroke: #b8c5d4; stroke-width: 0.45"/>
    <path d="M 501.567036 88.88095 
L 507.56949 68.401638 
L 508.944282 59.137536 
L 513.333752 54.864445 
L 523.599122 52.573123 
L 530.652739 44.618066 
L 538.743906 60.753222 
L 542.5835 73.54647 
L 550.223797 80.335084 
L 569.248193 93.499974 
L 588.904239 114.275992 
L 595.756594 118.468144 
L 591.553278 121.871994 
L 585.58689 120.662022 
L 580.822921 116.151994 
L 575.091969 107.980869 
L 568.912649 103.503594 
L 565.308418 98.690843 
L 553.177934 93.102612 
L 543.621842 92.935919 
L 540.259983 90.021732 
L 532.086349 93.299409 
L 523.627973 86.972351 
L 519.275298 97.374309 
L 503.048451 94.461237 
z
" clip-path="url(#p0a93b3c434)" style="fill: #e8edf4; stroke: #b8c5d4; stroke-width: 0.45"/>
    <path d="M 478.000379 -95.596286 
L 482.511957 -113.687252 
L 498.023026 -111.470356 
L 504.047827 -115.75974 
L 507.383254 -120.777646 
L 518.018305 -122.707887 
L 520.311546 -127.375396 
L 524.921077 -129.742462 
L 511.029825 -143.678729 
L 538.942692 -150.672611 
L 541.598934 -152.774269 
L 558.386987 -148.996975 
L 579.153642 -139.240976 
L 618.450608 -111.21107 
L 656.783175 -108.752894 
L 660.254007 -102.112289 
L 670.1112 -102.473849 
L 675.567731 -90.454498 
L 682.424408 -87.271042 
L 684.812721 -82.375936 
L 694.311234 -76.517511 
L 695.154634 -70.766402 
L 693.766013 -66.124461 
L 695.529879 -61.442547 
L 699.537289 -57.53669 
L 703.477717 -49.549598 
L 707.691116 -46.78424 
L 711.554479 -47.774569 
L 720.072027 -25.109004 
L 761.969056 -18.081631 
L 764.777989 -21.027769 
L 771.16579 -11.155451 
L 761.873985 16.719603 
L 720.061943 30.656951 
L 679.875481 35.999684 
L 666.867243 42.271527 
L 656.878967 56.905705 
L 650.374487 59.228836 
L 646.88997 54.582934 
L 641.547236 55.280125 
L 628.074443 53.886103 
L 625.519035 52.49244 
L 609.434655 52.812586 
L 605.656281 54.072284 
L 599.93182 50.448401 
L 596.238434 57.299316 
L 597.668109 63.174666 
L 591.548957 67.620702 
L 589.740437 61.672968 
L 585.537121 57.475414 
L 584.462524 51.915528 
L 577.263734 46.92139 
L 569.835188 35.23407 
L 565.904123 23.876619 
L 556.263722 14.285555 
L 550.048059 11.996635 
L 540.817474 -1.286375 
L 539.204859 -10.97251 
L 539.799056 -19.234373 
L 531.805122 -34.688184 
L 525.269672 -40.12707 
L 517.740293 -43.009467 
L 513.157411 -50.995478 
L 513.919424 -54.146164 
L 510.046698 -61.371603 
L 505.976627 -64.483396 
L 500.5345 -74.851598 
L 484.939163 -95.663268 
z
" clip-path="url(#p0a93b3c434)" style="fill: #e8edf4; stroke: #b8c5d4; stroke-width: 0.45"/>
    <path d="M 125.20205 -68.219997 
L 130.733486 -74.04421 
L 129.517723 -82.80736 
L 131.288791 -90.435412 
L 130.281896 -96.789722 
L 132.736471 -108.160137 
L 131.97878 -114.636167 
L 127.470083 -126.941812 
L 134.26986 -130.172085 
L 135.476261 -136.06076 
L 133.994009 -141.834197 
L 143.564546 -147.20502 
L 147.855731 -151.670502 
L 154.649746 -155.671791 
L 155.437688 -166.377065 
L 171.80757 -161.579565 
L 177.660613 -162.778746 
L 189.304261 -160.453138 
L 207.798597 -154.224758 
L 214.325657 -141.83685 
L 246.481508 -133.297496 
L 261.329382 -126.368061 
L 268.125714 -129.983861 
L 274.806087 -136.394265 
L 271.558376 -147.070791 
L 275.929726 -153.850119 
L 285.972376 -160.381221 
L 295.567772 -162.282293 
L 314.422113 -159.430406 
L 319.17535 -153.199099 
L 324.364691 -153.140144 
L 328.801966 -150.76255 
L 342.650801 -149.127544 
L 346.047086 -144.52525 
L 341.002416 -137.837212 
L 343.15924 -131.876292 
L 339.569643 -123.271154 
L 343.749911 -112.044021 
L 343.749911 16.67715 
L 327.721811 16.71952 
L 327.549823 22.56671 
L 216.373212 -30.803376 
L 192.442854 -18.002765 
L 184.603771 -25.657466 
L 162.555811 -31.666781 
L 156.439541 -40.394999 
L 145.438608 -46.870669 
L 138.922605 -44.317061 
L 133.96664 -52.089161 
L 133.443026 -58.061384 
z
" clip-path="url(#p0a93b3c434)" style="fill: #e8edf4; stroke: #b8c5d4; stroke-width: 0.45"/>
    <path d="M 454.611116 186.966227 
L 459.3585 179.027301 
L 466.755119 178.684717 
L 468.838494 174.428212 
L 468.652289 161.898141 
L 472.775413 147.312431 
L 479.377596 143.408822 
L 480.778034 137.711321 
L 486.75526 127.064481 
L 495.161511 120.159576 
L 500.82835 106.430464 
L 503.048451 94.461237 
L 519.275298 97.374309 
L 523.627973 86.972351 
L 532.086349 93.299409 
L 540.259983 90.021732 
L 543.621842 92.935919 
L 553.177934 93.102612 
L 565.308418 98.690843 
L 568.912649 103.503594 
L 575.091969 107.980869 
L 580.822921 116.151994 
L 585.58689 120.662022 
L 575.972818 133.359483 
L 577.280293 141.447262 
L 585.06535 141.680157 
L 588.421355 140.69185 
L 591.514386 143.175947 
L 588.474735 148.113975 
L 598.763799 162.498846 
L 604.084571 167.473132 
L 649.654408 184.012736 
L 661.376942 183.927439 
L 621.992139 225.759106 
L 603.835369 226.37333 
L 591.414289 236.198694 
L 582.479529 236.45598 
L 578.667254 240.849325 
L 569.144011 240.846843 
L 563.522748 236.136951 
L 550.790305 241.966023 
L 546.671003 247.774188 
L 537.376458 246.677587 
L 534.291119 245.070178 
L 526.62237 245.313596 
L 508.980007 233.477066 
L 499.279319 233.477066 
L 494.517845 228.89022 
L 494.517845 221.067582 
L 487.278154 218.729321 
L 479.041285 203.562279 
L 472.676039 200.330875 
L 470.233914 194.757556 
L 463.170261 187.964569 
z
" clip-path="url(#p0a93b3c434)" style="fill: #e8edf4; stroke: #b8c5d4; stroke-width: 0.45"/>
    <path d="M 575.972818 133.359483 
L 585.58689 120.662022 
L 591.553278 121.871994 
L 595.756594 118.468144 
L 599.054569 122.781656 
L 598.615943 128.568777 
L 590.664503 131.903844 
L 596.64969 135.717151 
L 591.514386 143.175947 
L 588.421355 140.69185 
L 585.06535 141.680157 
L 577.280293 141.447262 
z
" clip-path="url(#p0a93b3c434)" style="fill: #e8edf4; stroke: #b8c5d4; stroke-width: 0.45"/>
    <path d="M 407.576118 314.163595 
L 407.692797 303.656026 
L 410.921629 298.330578 
L 411.705969 287.143104 
L 414.638063 280.663113 
L 419.967112 273.394819 
L 425.321369 269.693151 
L 429.801977 264.744388 
L 424.215802 262.857001 
L 425.059098 246.560072 
L 430.797263 242.758926 
L 439.659966 245.875764 
L 450.879217 242.613697 
L 460.685348 242.646032 
L 469.256897 236.236396 
L 475.865073 245.912977 
L 483.626297 268.90647 
L 478.554588 279.065498 
L 467.703829 293.938549 
L 467.845186 308.709676 
L 424.167205 309.60934 
L 410.949718 315.585347 
z
" clip-path="url(#p0a93b3c434)" style="fill: #e8edf4; stroke: #b8c5d4; stroke-width: 0.45"/>
    <path d="M 399.847232 335.041166 
L 401.13718 327.416715 
L 403.051576 326.342118 
L 403.567987 318.048565 
L 407.576118 314.163595 
L 410.949718 315.585347 
L 419.278563 311.283358 
L 424.81216 319.147649 
L 424.006213 327.347572 
L 419.983365 329.112119 
L 412.578179 328.201055 
L 408.310762 336.13665 
z
" clip-path="url(#p0a93b3c434)" style="fill: #e8edf4; stroke: #b8c5d4; stroke-width: 0.45"/>
    <path d="M 328.237213 175.331782 
L 337.302645 171.181092 
L 340.891693 158.739059 
L 344.720011 152.278773 
L 354.769345 150.364614 
L 364.340139 162.328107 
L 368.168457 163.524456 
L 373.193124 161.131758 
L 383.242459 161.610297 
L 385.156618 164.481536 
L 399.03427 164.481536 
L 399.51281 161.610297 
L 406.690906 158.978329 
L 408.126525 154.910741 
L 413.390462 152.039503 
L 425.114685 160.174678 
L 432.292781 158.739059 
L 439.231607 148.689725 
L 446.888243 141.033089 
L 445.691894 132.658644 
L 442.342115 128.591056 
L 450.716561 127.873247 
L 451.67364 124.762738 
L 458.133927 125.719818 
L 456.459038 136.008422 
L 458.133927 146.057756 
L 465.312023 151.560963 
L 466.986912 156.34636 
L 466.747642 163.285187 
L 468.676997 163.560809 
L 468.838494 174.428212 
L 466.755119 178.684717 
L 459.3585 179.027301 
L 454.611116 186.966227 
L 463.170261 187.964569 
L 470.233914 194.757556 
L 472.676039 200.330875 
L 479.041285 203.562279 
L 487.278154 218.729321 
L 469.256897 236.236396 
L 460.685348 242.646032 
L 450.879217 242.613697 
L 439.659966 245.875764 
L 430.797263 242.758926 
L 425.059098 246.560072 
L 412.789209 237.298235 
L 409.47899 231.345459 
L 401.716973 234.293758 
L 395.272273 233.376533 
L 391.541435 235.71695 
L 385.283277 234.026909 
L 374.59925 218.102783 
L 364.180991 212.586831 
L 360.661902 204.225935 
L 354.853174 198.195013 
L 345.479982 190.936803 
L 345.35178 186.406859 
z
" clip-path="url(#p0a93b3c434)" style="fill: #e8edf4; stroke: #b8c5d4; stroke-width: 0.45"/>
   </g>
   <g id="PathCollection_1">
    <defs>
     <path id="m62469473d7" d="M 0 2.12132 
C 0.562581 2.12132 1.102195 1.897805 1.5 1.5 
C 1.897805 1.102195 2.12132 0.562581 2.12132 0 
C 2.12132 -0.562581 1.897805 -1.102195 1.5 -1.5 
C 1.102195 -1.897805 0.562581 -2.12132 0 -2.12132 
C -0.562581 -2.12132 -1.102195 -1.897805 -1.5 -1.5 
C -1.897805 -1.102195 -2.12132 -0.562581 -2.12132 0 
C -2.12132 0.562581 -1.897805 1.102195 -1.5 1.5 
C -1.102195 1.897805 -0.562581 2.12132 0 2.12132 
z
" style="stroke: #ffffff; stroke-width: 0.5"/>
    </defs>
    <g clip-path="url(#p0a93b3c434)">
     <use xlink:href="#m62469473d7" x="413.437299" y="344.250244" style="fill: #8aa0b7; stroke: #ffffff; stroke-width: 0.5"/>
     <use xlink:href="#m62469473d7" x="134.687746" y="267.594117" style="fill: #8aa0b7; stroke: #ffffff; stroke-width: 0.5"/>
     <use xlink:href="#m62469473d7" x="413.437299" y="323.344028" style="fill: #8aa0b7; stroke: #ffffff; stroke-width: 0.5"/>
     <use xlink:href="#m62469473d7" x="92.875313" y="281.531595" style="fill: #8aa0b7; stroke: #ffffff; stroke-width: 0.5"/>
     <use xlink:href="#m62469473d7" x="11.57336" y="183.969251" style="fill: #8aa0b7; stroke: #ffffff; stroke-width: 0.5"/>
    </g>
   </g>
   <g id="PatchCollection_2">
    <defs>
     <path id="mf3f9f5e75e" d="M 196.840634 -176.328177 
L 197.915951 -187.132484 
L 201.260741 -189.662684 
L 208.270108 -203.787293 
L 219.793214 -204.834881 
L 222.362307 -208.419871 
L 224.670673 -208.147621 
L 228.152309 -204.991533 
L 245.698775 -210.323823 
L 258.884913 -220.637287 
L 257.504934 -225.543556 
L 261.435279 -226.824861 
L 274.894388 -225.958774 
L 288.012103 -232.415718 
L 298.088248 -247.622486 
L 305.158835 -253.26484 
L 313.981765 -255.641268 
L 315.561969 -249.676968 
L 323.600558 -240.963155 
L 323.641612 -235.276147 
L 321.37718 -229.476062 
L 322.272437 -225.144544 
L 345.35178 -209.406599 
L 345.479982 -204.876655 
L 354.853174 -197.618445 
L 360.661902 -191.587523 
L 364.180991 -183.226627 
L 374.59925 -177.710676 
L 376.840634 -173.292369 
L 372.239026 -171.813718 
L 352.815618 -173.600991 
L 347.635658 -172.406835 
L 345.545524 -169.017749 
L 341.032506 -168.599651 
L 335.5342 -171.54795 
L 320.017369 -164.59188 
L 313.66558 -165.991665 
L 311.751184 -164.917428 
L 307.583881 -156.500714 
L 286.990804 -160.593113 
L 278.113857 -165.734539 
L 266.644769 -170.471192 
L 259.181651 -165.983022 
L 253.75537 -158.906673 
L 252.502153 -149.186686 
L 243.538057 -149.964544 
L 234.104365 -152.306041 
L 225.797848 -144.919989 
L 218.491742 -131.949563 
L 216.399447 -142.345494 
L 210.025331 -146.830063 
L 204.879943 -154.022731 
L 203.691548 -159.026592 
L 197.104962 -166.304969 
L 198.227814 -170.458228 
z
" style="stroke: #b45309; stroke-width: 1.15"/>
    </defs>
    <g clip-path="url(#p0a93b3c434)">
     <use xlink:href="#mf3f9f5e75e" x="0" y="395.813458" style="fill: #f59e0b; stroke: #b45309; stroke-width: 1.15"/>
    </g>
   </g>
   <g id="PathCollection_2">
    <path d="M 288 202.041944 
C 289.096672 202.041944 290.148574 201.606231 290.924038 200.830767 
C 291.699502 200.055303 292.135215 199.003401 292.135215 197.906729 
C 292.135215 196.810057 291.699502 195.758155 290.924038 194.982691 
C 290.148574 194.207227 289.096672 193.771514 288 193.771514 
C 286.903328 193.771514 285.851426 194.207227 285.075962 194.982691 
C 284.300498 195.758155 283.864785 196.810057 283.864785 197.906729 
C 283.864785 199.003401 284.300498 200.055303 285.075962 200.830767 
C 285.851426 201.606231 286.903328 202.041944 288 202.041944 
L 288 202.041944 
z
" clip-path="url(#p0a93b3c434)" style="fill: none; stroke: #7c2d12; stroke-width: 1.1"/>
   </g>
  </g>
 </g>
 <defs>
  <clipPath id="p0a93b3c434">
   <rect x="0" y="0" width="576" height="395.813458"/>
  </clipPath>
 </defs>
</svg>
