<?xml version="1.0" encoding="utf-8" standalone="no"?>
<!DOCTYPE svg PUBLIC "-//W3C//DTD SVG 1.1//EN"
  "http://www.w3.org/Graphics/SVG/1.1/DTD/svg11.dtd">
<svg xmlns:xlink="http://www.w3.org/1999/xlink" width="576pt" height="328.246824pt" viewBox="0 0 576 328.246824" xmlns="http://www.w3.org/2000/svg" version="1.1">
 <metadata>
  <rdf:RDF xmlns:dc="http://purl.org/dc/elements/1.1/" xmlns:cc="http://creativecommons.org/ns#" xmlns:rdf="http://www.w3.org/1999/02/22-rdf-syntax-ns#">
   <cc:Work>
    <dc:type rdf:resource="http://purl.org/dc/dcmitype/StillImage"/>
    <dc:date>2026-06-09T04:57:12.645981</dc:date>
    <dc:format>image/svg+xml</dc:format>
    <dc:creator>
     <cc:Agent>
      <dc:title>Matplotlib v3.10.8, https://matplotlib.org/</dc:title>
     </cc:Agent>
    </dc:creator>
   </cc:Work>
  </rdf:RDF>
 </metadata>
 <defs>
  <style type="text/css">*{stroke-linejoin: round; stroke-linecap: butt}</style>
 </defs>
 <g id="figure_1">
  <g id="patch_1">
   <path d="M 0 328.246824 
L 576 328.246824 
L 576 0 
L 0 0 
z
" style="fill: #eaf3ff"/>
  </g>
  <g id="axes_1">
   <g id="PatchCollection_1">
    <path d="M 61.154246 37.20439 
L 64.479452 36.821671 
L 72.510544 28.031866 
L 72.436322 25.418436 
L 70.704623 23.595548 
L 70.238307 20.428955 
L 72.559346 19.411087 
L 73.024343 14.680085 
L 69.831696 10.142729 
L 72.652232 9.176892 
L 97.852543 8.657825 
L 128.369195 25.922466 
L 128.917694 30.587479 
L 140.459566 38.625988 
L 136.747048 48.534346 
L 137.223335 53.091444 
L 142.371632 56.02122 
L 142.612872 58.111964 
L 140.399015 62.96812 
L 140.860104 65.411958 
L 140.333317 69.253298 
L 146.46949 82.223069 
L 149.420576 83.981706 
L 143.022979 88.643905 
L 134.230247 91.76653 
L 129.406124 91.634553 
L 126.540598 94.046709 
L 120.942719 94.253994 
L 118.843376 95.270421 
L 109.180248 93.004444 
L 103.129885 93.654775 
L 100.878403 82.718414 
L 96.533837 76.744917 
L 88.650569 75.2448 
L 84.087033 72.830473 
L 75.771391 70.130355 
L 72.412196 68.083253 
L 68.069777 57.950985 
L 63.406094 53.448119 
L 61.797512 48.78402 
L 62.601595 44.602371 
z
" clip-path="url(#p5fed7759a5)" style="fill: #e8edf4; stroke: #b8c5d4; stroke-width: 0.45"/>
    <path d="M -76.816054 47.577272 
L -74.770732 46.727894 
L -74.518911 43.22234 
L -73.203289 41.154994 
L -70.277008 39.464965 
L -68.164368 40.284008 
L -65.414278 37.205637 
L -61.033998 37.285006 
L -60.51872 39.561372 
L -57.514731 40.985867 
L -46.066414 29.445714 
L -46.335689 22.829791 
L -42.843432 15.017925 
L -39.158778 10.875753 
L -33.864295 6.999947 
L -32.940118 4.434776 
L -32.739825 1.48564 
L -31.42919 -1.304758 
L -31.850139 -5.862061 
L -30.84784 -12.988067 
L -29.276241 -18.004965 
L -26.867731 -22.304836 
L -25.668048 -32.769346 
L -22.537317 -36.852095 
L -18.23142 -39.441575 
L -11.614251 -36.708731 
L -6.492635 -33.742349 
L 5.388682 -31.381212 
L 7.793036 -36.237293 
L 8.89756 -36.857081 
L 12.562268 -36.049466 
L 21.514811 -40.062818 
L 24.687096 -38.361776 
L 27.290913 -38.603001 
L 28.49683 -40.558357 
L 31.485443 -41.247334 
L 42.691912 -40.216154 
L 45.346841 -41.069272 
L 50.217882 -34.43091 
L 53.828569 -33.45583 
L 55.981102 -34.806149 
L 59.699416 -34.27695 
L 64.177765 -35.977992 
L 66.087619 -32.543496 
L 73.166876 -27.199771 
L 72.68027 -17.797191 
L 75.903252 -16.70825 
L 73.318135 -13.853028 
L 70.228959 -11.717324 
L 67.154327 -7.523833 
L 65.462636 -3.785157 
L 65.010105 2.669533 
L 63.147209 5.742087 
L 63.07989 11.804501 
L 60.767371 14.045961 
L 60.469424 18.830983 
L 59.364901 19.450979 
L 58.620656 23.849959 
L 60.642707 27.505941 
L 61.154246 37.20439 
L 62.601595 44.602371 
L 61.797512 48.78402 
L 63.406094 53.448119 
L 68.069777 57.950985 
L 72.412242 68.083265 
L 69.244528 67.265053 
L 58.443633 68.622229 
L 56.288191 69.583389 
L 53.99645 74.71664 
L 55.796184 78.262918 
L 53.372299 95.855096 
L 61.166712 100.415308 
L 63.373682 98.952998 
L 64.046037 107.624216 
L 57.891787 107.557728 
L 51.626171 99.705554 
L 45.464025 98.581915 
L 43.659721 94.368269 
L 38.743801 96.906845 
L 32.304486 95.785284 
L 29.617144 92.134289 
L 24.511319 91.392538 
L 20.742724 91.586598 
L 20.281467 89.087084 
L 13.845477 88.410573 
L 3.379512 90.155039 
L 3.809603 80.585825 
L 1.127248 77.601783 
L 0.537172 72.656359 
L 1.721896 67.809004 
L 0.092121 64.706531 
L -0.055398 59.646832 
L -9.81244 59.717059 
L -9.112243 56.819866 
L -13.214938 56.850201 
L -13.648353 58.24353 
L -18.635747 58.557683 
L -21.858313 65.254637 
L -26.301757 64.118948 
L -28.955024 65.250066 
L -34.272362 65.900397 
L -39.199917 59.095401 
L -43.49127 48.281208 
L -67.220661 48.174828 
L -75.689507 50.071384 
z
" clip-path="url(#p5fed7759a5)" style="fill: #e8edf4; stroke: #b8c5d4; stroke-width: 0.45"/>
    <path d="M 154.763714 -21.372658 
L 163.991615 -33.029441 
L 169.146586 -33.177884 
L 176.313013 -38.846695 
L 186.788686 -39.201077 
L 209.512019 -63.336144 
L 218.749164 -74.986003 
L 218.830182 -90.737897 
L 229.368942 -92.900633 
L 233.174417 -95.653419 
L 236.223526 -95.675452 
L 235.693684 -84.548351 
L 233.995919 -81.643986 
L 231.729954 -72.951476 
L 222.886991 -53.699904 
L 215.98633 -41.914943 
L 199.664132 -21.941743 
L 191.616617 -15.43205 
L 179.588083 -7.447579 
L 172.092122 -1.331107 
L 163.291698 8.409831 
L 161.437208 12.650101 
L 159.621316 14.554125 
L 154.859807 7.920355 
z
" clip-path="url(#p5fed7759a5)" style="fill: #e8edf4; stroke: #b8c5d4; stroke-width: 0.45"/>
    <path d="M 97.770986 0.135521 
L 104.031406 -8.445588 
L 106.957563 -14.306908 
L 102.479672 -27.573162 
L 98.667039 -33.156132 
L 109.064527 -43.256959 
L 113.241517 -41.907883 
L 113.241517 -37.394558 
L 115.988682 -34.748147 
L 121.585561 -34.748147 
L 131.764443 -27.918979 
L 136.18898 -28.059421 
L 137.969088 -27.132015 
L 143.331639 -26.499324 
L 145.708299 -29.850384 
L 153.054369 -33.213507 
L 156.297596 -30.496103 
L 161.792096 -30.494671 
L 154.763714 -21.372658 
L 154.859807 7.920355 
L 159.621316 14.554125 
L 153.989495 17.765026 
L 152.003931 21.120188 
L 148.989963 21.709617 
L 147.849301 27.375453 
L 145.266991 30.619966 
L 143.697566 35.970421 
L 140.459566 38.625988 
L 128.917694 30.587479 
L 128.369195 25.922466 
L 97.852543 8.657825 
z
" clip-path="url(#p5fed7759a5)" style="fill: #e8edf4; stroke: #b8c5d4; stroke-width: 0.45"/>
    <path d="M -43.34292 230.813096 
L -39.4908 226.836312 
L -36.31519 229.03788 
L -34.959676 232.476115 
L -26.295939 234.582522 
L -21.975913 233.995355 
L -14.798172 229.883518 
L -14.789861 200.18438 
L -12.619044 201.39196 
L -7.851474 209.032621 
L -8.592394 213.932334 
L -6.798062 216.75556 
L -1.038167 215.93527 
L 6.791153 209.927709 
L 8.759183 206.076004 
L 12.681945 204.212277 
L 16.071146 205.188812 
L 19.912462 207.441076 
L 26.457325 207.838754 
L 31.599718 205.9663 
L 33.82705 199.610095 
L 38.202343 198.966412 
L 40.619995 195.945802 
L 43.297779 190.587325 
L 50.517491 184.583918 
L 61.895581 178.661959 
L 65.167182 178.74964 
L 69.057948 180.111803 
L 71.767729 179.146487 
L 76.042045 179.950155 
L 81.986028 196.980929 
L 80.553222 205.945938 
L 81.239705 208.833158 
L 77.18189 207.36046 
L 74.85732 207.933499 
L 74.098116 210.275106 
L 71.902366 213.294054 
L 71.97758 216.074479 
L 76.776732 220.43315 
L 81.483216 219.565073 
L 83.120471 215.993862 
L 89.219453 216.061181 
L 87.210283 221.91499 
L 86.260343 228.596154 
L 84.1797 232.225956 
L 77.120804 237.44938 
L 66.90957 251.427547 
L 52.14602 264.548441 
L 46.073633 268.207331 
L 37.669197 271.327258 
L 33.569826 271.746129 
L 32.532206 273.978447 
L 27.644959 272.789983 
L 23.664435 274.320442 
L 14.949169 272.770868 
L 10.077297 273.751558 
L 6.747936 273.330609 
L -1.54555 276.504972 
L -8.4108 277.778208 
L -13.378663 280.817518 
L -17.036307 281.010747 
L -20.438805 278.143474 
L -23.156482 277.99637 
L -26.61965 274.40646 
L -26.99946 275.521373 
L -28.068246 273.360113 
L -28.023367 268.645318 
L -30.635911 263.256506 
L -28.04082 261.791703 
L -28.251087 255.62 
L -33.516898 248.09403 
z
M 42.331633 241.260777 
L 48.363712 247.445777 
L 51.240959 246.64668 
L 52.719474 244.077354 
L 57.201148 242.821571 
L 61.034984 236.28668 
L 54.734877 231.382396 
L 50.976671 233.022559 
L 46.619661 236.168665 
z
" clip-path="url(#p5fed7759a5)" style="fill: #e8edf4; stroke: #b8c5d4; stroke-width: 0.45"/>
    <path d="M 42.331633 241.260777 
L 46.619661 236.168665 
L 50.976671 233.022559 
L 54.734877 231.382396 
L 61.034984 236.28668 
L 57.201148 242.821571 
L 52.719474 244.077354 
L 51.240959 246.64668 
L 48.363712 247.445777 
z
" clip-path="url(#p5fed7759a5)" style="fill: #e8edf4; stroke: #b8c5d4; stroke-width: 0.45"/>
    <path d="M 28.379645 143.643821 
L 37.36751 144.524365 
L 39.979637 145.450619 
L 42.694821 145.264039 
L 47.148237 140.059729 
L 54.141476 133.4463 
L 57.019969 132.813838 
L 57.997751 130.025934 
L 62.576247 126.822483 
L 68.666918 125.721699 
L 69.187183 128.721532 
L 75.894526 128.561546 
L 79.62115 130.25864 
L 81.354396 132.248279 
L 85.183661 132.832538 
L 89.360323 135.416408 
L 89.378192 145.593983 
L 87.810333 151.166883 
L 87.465429 157.176107 
L 88.75778 159.558021 
L 87.849395 164.291932 
L 86.634751 165.02371 
L 84.514215 170.823083 
L 76.042045 179.950155 
L 71.767729 179.146487 
L 69.057948 180.111803 
L 65.167182 178.74964 
L 61.895581 178.661959 
L 56.768979 175.028417 
L 50.550735 173.794243 
L 48.185442 168.694651 
L 48.165496 165.858128 
L 44.721859 164.993375 
L 35.621381 156.16051 
L 33.093194 151.507216 
L 31.475054 150.072748 
z
" clip-path="url(#p5fed7759a5)" style="fill: #e8edf4; stroke: #b8c5d4; stroke-width: 0.45"/>
    <path d="M -14.792354 176.714707 
L -6.866212 176.434628 
L -6.628935 147.790564 
L -0.642982 147.524614 
L 11.755276 144.709284 
L 14.828245 148.024101 
L 19.961496 144.872594 
L 22.400757 144.854725 
L 26.933958 143.042941 
L 28.379645 143.643821 
L 31.475054 150.072748 
L 33.093194 151.507216 
L 35.621381 156.16051 
L 44.721859 164.993375 
L 48.165496 165.858128 
L 48.185442 168.694651 
L 50.550735 173.794243 
L 56.768979 175.028417 
L 61.895581 178.661959 
L 50.517491 184.583918 
L 43.297779 190.587325 
L 40.619995 195.945802 
L 38.202343 198.966412 
L 33.82705 199.610095 
L 31.599718 205.9663 
L 26.457325 207.838754 
L 19.912462 207.441076 
L 16.071146 205.188812 
L 12.681945 204.212277 
L 8.759183 206.076004 
L 6.791153 209.927709 
L -1.038167 215.93527 
L -6.798062 216.75556 
L -8.592394 213.932334 
L -7.851474 209.032621 
L -12.619044 201.39196 
L -14.789861 200.18438 
z
" clip-path="url(#p5fed7759a5)" style="fill: #e8edf4; stroke: #b8c5d4; stroke-width: 0.45"/>
    <path d="M -80.419677 140.148656 
L -71.735993 137.249386 
L -66.522957 137.489572 
L -61.729208 141.125607 
L -60.513318 140.560463 
L -27.916987 140.213482 
L -22.345334 144.066433 
L -2.877377 145.204616 
L 18.485889 140.100037 
L 23.700587 140.562957 
L 26.873703 142.375572 
L 26.933958 143.042941 
L 22.400757 144.854725 
L 19.961496 144.872594 
L 14.828245 148.024101 
L 11.755276 144.709284 
L -0.642982 147.524614 
L -6.628935 147.790564 
L -6.866212 176.434628 
L -14.792354 176.714707 
L -14.798172 229.883518 
L -21.975913 233.995355 
L -26.295939 234.582522 
L -34.959676 232.476115 
L -36.31519 229.03788 
L -39.4908 226.836312 
L -43.34292 230.813096 
L -49.3189 224.738216 
L -52.465837 218.865707 
L -58.917618 192.828369 
L -59.097965 183.208043 
L -60.127275 178.821945 
L -63.255928 175.507543 
L -67.40641 168.863779 
L -73.388623 154.168378 
L -79.931409 146.318281 
z
" clip-path="url(#p5fed7759a5)" style="fill: #e8edf4; stroke: #b8c5d4; stroke-width: 0.45"/>
    <path d="M 1.229057 130.325543 
L 1.599309 104.739073 
L 18.343357 104.840467 
L 17.65812 102.064613 
L 18.856141 99.052729 
L 17.442866 95.281226 
L 18.357485 91.381318 
L 17.507692 88.884712 
L 20.281467 89.087084 
L 20.742724 91.586598 
L 24.511319 91.392538 
L 29.617144 92.134289 
L 32.304486 95.785284 
L 38.743801 96.906845 
L 43.659721 94.368269 
L 45.464025 98.581915 
L 51.626171 99.705554 
L 57.891787 107.557728 
L 64.046037 107.624216 
L 63.373682 98.952998 
L 61.166712 100.415308 
L 53.372299 95.855096 
L 55.796184 78.262918 
L 53.99645 74.71664 
L 56.288191 69.583389 
L 58.443633 68.622229 
L 69.244528 67.265053 
L 72.412196 68.083253 
L 75.771391 70.130355 
L 84.087033 72.830473 
L 88.650569 75.2448 
L 92.446174 78.832217 
L 94.491081 85.65799 
L 93.121023 87.837118 
L 91.504545 94.355803 
L 93.049549 101.018682 
L 90.519283 103.817806 
L 88.077945 111.288093 
L 92.306551 113.370814 
L 67.904805 119.998787 
L 68.666918 125.721699 
L 62.576247 126.822483 
L 57.997751 130.025934 
L 57.019969 132.813838 
L 54.141476 133.4463 
L 47.148237 140.059729 
L 42.694821 145.264039 
L 39.979637 145.450619 
L 37.36751 144.524365 
L 28.379645 143.643821 
L 23.700587 140.562957 
L 18.485889 140.100037 
L 11.901548 141.927613 
L 6.654022 136.904482 
z
" clip-path="url(#p5fed7759a5)" style="fill: #e8edf4; stroke: #b8c5d4; stroke-width: 0.45"/>
    <path d="M 88.077945 111.288093 
L 90.519283 103.817806 
L 93.049549 101.018682 
L 91.504545 94.355803 
L 93.121023 87.837118 
L 94.491081 85.65799 
L 92.446174 78.832217 
L 88.650569 75.2448 
L 96.533837 76.744917 
L 100.878403 82.718414 
L 103.129885 93.654775 
L 100.878452 99.766223 
L 103.129885 110.219721 
L 105.92153 110.102537 
L 108.822878 112.695134 
L 112.191301 118.510713 
L 112.875291 128.850352 
L 109.394671 130.543705 
L 106.940035 136.123254 
L 101.692924 131.155806 
L 101.097861 125.48733 
L 102.789552 121.748655 
L 102.322893 118.526504 
L 99.148115 116.491571 
L 96.935743 117.230413 
L 92.306551 113.370814 
z
" clip-path="url(#p5fed7759a5)" style="fill: #e8edf4; stroke: #b8c5d4; stroke-width: 0.45"/>
    <path d="M 67.904805 119.998787 
L 92.306551 113.370814 
L 96.935743 117.230413 
L 99.148115 116.491571 
L 102.322893 118.526504 
L 102.789552 121.748655 
L 101.097861 125.48733 
L 101.692924 131.155806 
L 106.940035 136.123254 
L 109.394671 130.543705 
L 112.875291 128.850352 
L 112.191301 118.510713 
L 108.822878 112.695134 
L 105.92153 110.102537 
L 103.129885 110.219721 
L 100.878452 99.766223 
L 103.129885 93.654775 
L 109.180248 93.004444 
L 118.843376 95.270421 
L 120.942719 94.253994 
L 126.540598 94.046709 
L 129.406124 91.634553 
L 134.230247 91.76653 
L 143.022979 88.643905 
L 149.420564 83.981674 
L 150.721642 87.586959 
L 150.390866 95.598288 
L 151.384439 102.654274 
L 151.696515 115.221244 
L 153.110621 119.159798 
L 147.592573 130.4901 
L 142.47262 135.476663 
L 126.056855 142.436242 
L 116.971337 151.067151 
L 113.877175 152.535279 
L 108.263552 158.249049 
L 104.950396 160.108205 
L 104.270977 165.841922 
L 108.084451 171.931762 
L 109.671009 176.647804 
L 109.770886 179.053469 
L 111.191766 178.651403 
L 110.961698 186.538235 
L 109.657712 190.274002 
L 111.553021 191.650709 
L 110.357077 194.996277 
L 106.995718 197.856902 
L 90.691735 204.927017 
L 87.164989 207.900255 
L 87.854381 211.287794 
L 89.909676 211.828836 
L 89.219453 216.061181 
L 83.120471 215.993862 
L 80.553222 205.945938 
L 81.986028 196.980929 
L 76.042045 179.950155 
L 84.514215 170.823083 
L 86.634751 165.02371 
L 87.849395 164.291932 
L 88.75778 159.558021 
L 87.465429 157.176107 
L 87.810333 151.166883 
L 89.378192 145.593983 
L 89.360323 135.416408 
L 85.183661 132.832538 
L 81.354396 132.248279 
L 79.62115 130.25864 
L 75.894526 128.561546 
L 69.187183 128.721532 
z
" clip-path="url(#p5fed7759a5)" style="fill: #e8edf4; stroke: #b8c5d4; stroke-width: 0.45"/>
    <path d="M 71.902366 213.294054 
L 74.098116 210.275106 
L 74.85732 207.933499 
L 77.18189 207.36046 
L 81.239705 208.833158 
L 83.120471 215.993862 
L 81.483216 219.565073 
L 76.776732 220.43315 
L 71.97758 216.074479 
z
" clip-path="url(#p5fed7759a5)" style="fill: #e8edf4; stroke: #b8c5d4; stroke-width: 0.45"/>
    <path d="M -81.176388 135.092697 
L -80.063138 128.021751 
L -77.288531 120.659922 
L -76.870075 117.208805 
L -74.260856 109.960005 
L -72.343938 106.664718 
L -65.145004 97.825204 
L -64.300612 91.868339 
L -64.721561 87.31062 
L -67.126331 84.435867 
L -71.243155 74.732847 
L -70.811401 73.061517 
L -68.339728 69.873441 
L -72.425801 56.721797 
L -76.454113 51.634256 
L -75.689507 50.071384 
L -67.220661 48.174828 
L -43.49127 48.281208 
L -39.199917 59.095401 
L -34.272362 65.900397 
L -28.955024 65.250066 
L -26.301757 64.118948 
L -21.858313 65.254637 
L -18.635747 58.557683 
L -13.648353 58.24353 
L -13.214938 56.850201 
L -9.112243 56.819866 
L -9.81244 59.717059 
L -0.055398 59.646832 
L 0.092121 64.706531 
L 1.721896 67.809004 
L 0.537172 72.656359 
L 1.127248 77.601783 
L 3.809603 80.585825 
L 3.379512 90.155039 
L 13.845477 88.410573 
L 17.507692 88.884712 
L 18.357485 91.381318 
L 17.442866 95.281226 
L 18.856141 99.052729 
L 17.65812 102.064613 
L 18.343357 104.840467 
L 1.599309 104.739073 
L 1.229057 130.325543 
L 6.654022 136.904482 
L 11.901548 141.927613 
L -2.877377 145.204616 
L -22.345334 144.066433 
L -27.916987 140.213482 
L -60.513318 140.560463 
L -61.729208 141.125607 
L -66.522957 137.489572 
L -71.735993 137.249386 
L -80.419677 140.148656 
z
" clip-path="url(#p5fed7759a5)" style="fill: #e8edf4; stroke: #b8c5d4; stroke-width: 0.45"/>
    <path d="M -78.966094 41.530649 
L -75.720257 38.058754 
L -73.290554 36.706149 
L -70.277008 39.464965 
L -73.203289 41.154994 
L -74.518911 43.22234 
L -74.770732 46.727894 
L -76.816054 47.577272 
z
" clip-path="url(#p5fed7759a5)" style="fill: #e8edf4; stroke: #b8c5d4; stroke-width: 0.45"/>
    <path d="M 58.620656 23.849959 
L 63.503748 24.482006 
L 65.965863 19.90351 
L 70.238336 20.429155 
L 70.704623 23.595548 
L 72.436322 25.418436 
L 72.510544 28.031866 
L 64.479452 36.821671 
L 61.154246 37.20439 
L 60.642707 27.505941 
z
" clip-path="url(#p5fed7759a5)" style="fill: #e8edf4; stroke: #b8c5d4; stroke-width: 0.45"/>
    <path d="M 173.042744 178.389361 
L 174.483029 172.592066 
L 178.185137 171.199568 
L 178.206745 168.52303 
L 182.050139 162.426957 
L 182.774437 157.305342 
L 179.385652 148.427182 
L 178.743216 141.017565 
L 181.552729 136.518854 
L 182.630658 131.418431 
L 186.638608 131.122146 
L 194.101414 128.018842 
L 197.633563 127.9108 
L 202.21663 123.328564 
L 208.834215 118.376076 
L 211.247295 114.330727 
L 210.152329 110.894154 
L 213.568125 111.860716 
L 218.000764 106.272857 
L 218.149114 101.437553 
L 220.811939 97.840579 
L 225.75196 104.713725 
L 227.74243 110.02483 
L 229.036443 119.698762 
L 231.119995 123.459877 
L 230.320483 127.316152 
L 228.898481 129.681861 
L 226.167092 124.969559 
L 224.655332 127.349396 
L 226.189116 133.306677 
L 225.475206 136.716239 
L 223.256185 138.573734 
L 222.749634 145.384963 
L 210.648492 181.075871 
L 207.568459 192.256992 
L 203.934085 201.58228 
L 197.394208 203.486732 
L 190.374374 206.887983 
L 179.359472 201.957935 
L 177.140452 197.714785 
L 176.609798 190.585662 
L 173.778262 184.17502 
z
" clip-path="url(#p5fed7759a5)" style="fill: #e8edf4; stroke: #b8c5d4; stroke-width: 0.45"/>
    <path d="M 63.07989 11.804501 
L 63.147209 5.742087 
L 65.010105 2.669533 
L 65.462636 -3.785157 
L 67.154327 -7.523833 
L 70.228959 -11.717324 
L 73.318135 -13.853028 
L 75.903252 -16.70825 
L 72.68027 -17.797191 
L 73.166816 -27.199816 
L 76.477489 -29.392914 
L 81.590887 -27.594632 
L 88.063911 -29.476704 
L 93.721625 -29.458048 
L 98.667039 -33.156132 
L 102.479672 -27.573162 
L 106.957563 -14.306908 
L 104.031406 -8.445588 
L 97.770986 0.135521 
L 97.852543 8.657825 
L 72.652232 9.176892 
L 65.026312 12.62479 
z
" clip-path="url(#p5fed7759a5)" style="fill: #e8edf4; stroke: #b8c5d4; stroke-width: 0.45"/>
    <path d="M 58.620656 23.849959 
L 59.364901 19.450979 
L 60.469424 18.830983 
L 60.767371 14.045961 
L 63.07989 11.804501 
L 65.026312 12.62479 
L 69.831696 10.142729 
L 73.024343 14.680085 
L 72.559346 19.411087 
L 70.238336 20.429155 
L 65.965863 19.90351 
L 63.503748 24.482006 
z
" clip-path="url(#p5fed7759a5)" style="fill: #e8edf4; stroke: #b8c5d4; stroke-width: 0.45"/>
   </g>
   <g id="PathCollection_1">
    <defs>
     <path id="m4ff1d1c994" d="M 0 2.12132 
C 0.562581 2.12132 1.102195 1.897805 1.5 1.5 
C 1.897805 1.102195 2.12132 0.562581 2.12132 0 
C 2.12132 -0.562581 1.897805 -1.102195 1.5 -1.5 
C 1.102195 -1.897805 0.562581 -2.12132 0 -2.12132 
C -0.562581 -2.12132 -1.102195 -1.897805 -1.5 -1.5 
C -1.897805 -1.102195 -2.12132 -0.562581 -2.12132 0 
C -2.12132 0.562581 -1.897805 1.102195 -1.5 1.5 
C -1.102195 1.897805 -0.562581 2.12132 0 2.12132 
z
" style="stroke: #ffffff; stroke-width: 0.5"/>
    </defs>
    <g clip-path="url(#p5fed7759a5)">
     <use xlink:href="#m4ff1d1c994" x="66.461538" y="29.1632" style="fill: #8aa0b7; stroke: #ffffff; stroke-width: 0.5"/>
     <use xlink:href="#m4ff1d1c994" x="400.176462" y="49.266508" style="fill: #8aa0b7; stroke: #ffffff; stroke-width: 0.5"/>
     <use xlink:href="#m4ff1d1c994" x="181.050398" y="98.85467" style="fill: #8aa0b7; stroke: #ffffff; stroke-width: 0.5"/>
     <use xlink:href="#m4ff1d1c994" x="54.399553" y="238.23761" style="fill: #8aa0b7; stroke: #ffffff; stroke-width: 0.5"/>
     <use xlink:href="#m4ff1d1c994" x="288" y="164.123412" style="fill: #8aa0b7; stroke: #ffffff; stroke-width: 0.5"/>
     <use xlink:href="#m4ff1d1c994" x="271.515287" y="171.092559" style="fill: #8aa0b7; stroke: #ffffff; stroke-width: 0.5"/>
     <use xlink:href="#m4ff1d1c994" x="66.461538" y="17.101215" style="fill: #8aa0b7; stroke: #ffffff; stroke-width: 0.5"/>
     <use xlink:href="#m4ff1d1c994" x="272.855507" y="37.874634" style="fill: #8aa0b7; stroke: #ffffff; stroke-width: 0.5"/>
     <use xlink:href="#m4ff1d1c994" x="78.523524" y="214.11364" style="fill: #8aa0b7; stroke: #ffffff; stroke-width: 0.5"/>
     <use xlink:href="#m4ff1d1c994" x="188.421611" y="104.215552" style="fill: #8aa0b7; stroke: #ffffff; stroke-width: 0.5"/>
    </g>
   </g>
   <g id="PathCollection_2">
    <defs>
     <path id="m9c6733aec1" d="M 0 3.674235 
C 0.974418 3.674235 1.909058 3.287094 2.598076 2.598076 
C 3.287094 1.909058 3.674235 0.974418 3.674235 0 
C 3.674235 -0.974418 3.287094 -1.909058 2.598076 -2.598076 
C 1.909058 -3.287094 0.974418 -3.674235 0 -3.674235 
C -0.974418 -3.674235 -1.909058 -3.287094 -2.598076 -2.598076 
C -3.287094 -1.909058 -3.674235 -0.974418 -3.674235 0 
C -3.674235 0.974418 -3.287094 1.909058 -2.598076 2.598076 
C -1.909058 3.287094 -0.974418 3.674235 0 3.674235 
z
" style="stroke: #ffffff; stroke-width: 1.2"/>
    </defs>
    <g clip-path="url(#p5fed7759a5)">
     <use xlink:href="#m9c6733aec1" x="288" y="164.123412" style="fill: #f97316; stroke: #ffffff; stroke-width: 1.2"/>
    </g>
   </g>
   <g id="PathCollection_3">
    <path d="M 288 169.052915 
C 289.307319 169.052915 290.561271 168.533511 291.485685 167.609097 
C 292.410099 166.684683 292.929503 165.430731 292.929503 164.123412 
C 292.929503 162.816092 292.410099 161.562141 291.485685 160.637727 
C 290.561271 159.713312 289.307319 159.193909 288 159.193909 
C 286.692681 159.193909 285.438729 159.713312 284.514315 160.637727 
C 283.589901 161.562141 283.070497 162.816092 283.070497 164.123412 
C 283.070497 165.430731 283.589901 166.684683 284.514315 167.609097 
C 285.438729 168.533511 286.692681 169.052915 288 169.052915 
L 288 169.052915 
z
" clip-path="url(#p5fed7759a5)" style="fill: none; stroke: #7c2d12; stroke-width: 1.1"/>
   </g>
  </g>
 </g>
 <defs>
  <clipPath id="p5fed7759a5">
   <rect x="0" y="0" width="576" height="328.246824"/>
  </clipPath>
 </defs>
</svg>
