<?xml version="1.0" encoding="utf-8" standalone="no"?>
<!DOCTYPE svg PUBLIC "-//W3C//DTD SVG 1.1//EN"
  "http://www.w3.org/Graphics/SVG/1.1/DTD/svg11.dtd">
<svg xmlns:xlink="http://www.w3.org/1999/xlink" width="576pt" height="407.414634pt" viewBox="0 0 576 407.414634" xmlns="http://www.w3.org/2000/svg" version="1.1">
 <metadata>
  <rdf:RDF xmlns:dc="http://purl.org/dc/elements/1.1/" xmlns:cc="http://creativecommons.org/ns#" xmlns:rdf="http://www.w3.org/1999/02/22-rdf-syntax-ns#">
   <cc:Work>
    <dc:type rdf:resource="http://purl.org/dc/dcmitype/StillImage"/>
    <dc:date>2026-06-09T04:56:58.997884</dc:date>
    <dc:format>image/svg+xml</dc:format>
    <dc:creator>
     <cc:Agent>
      <dc:title>Matplotlib v3.10.8, https://matplotlib.org/</dc:title>
     </cc:Agent>
    </dc:creator>
   </cc:Work>
  </rdf:RDF>
 </metadata>
 <defs>
  <style type="text/css">*{stroke-linejoin: round; stroke-linecap: butt}</style>
 </defs>
 <g id="figure_1">
  <g id="patch_1">
   <path d="M 0 407.414634 
L 576 407.414634 
L 576 0 
L 0 0 
z
" style="fill: #eaf3ff"/>
  </g>
  <g id="axes_1">
   <g id="PatchCollection_1">
    <path d="M -187.859798 -22.090652 
L -181.621861 -30.280946 
L -184.778246 -32.485165 
L -176.155709 -44.358467 
L -165.042464 -38.091211 
L -163.696589 -45.984128 
L -141.388565 -57.73792 
L -124.507603 -58.017705 
L -87.89198 -46.16332 
L -76.425582 -50.722041 
L -59.293202 -50.939149 
L -45.471771 -45.339113 
L -42.332139 -48.546038 
L -27.152788 -48.080007 
L -24.444842 -53.197964 
L -41.956858 -60.630435 
L -31.585241 -65.894706 
L -33.60908 -68.838878 
L -23.234671 -71.648742 
L -31.03628 -79.051336 
L -26.081021 -82.739212 
L 14.357136 -86.499723 
L 19.634468 -89.169231 
L 46.675456 -93.158455 
L 56.391448 -97.641728 
L 75.812261 -95.312693 
L 79.214925 -84.11205 
L 90.497381 -86.742092 
L 104.377209 -83.056571 
L 103.482007 -77.158175 
L 113.847211 -77.774589 
L 140.931966 -87.972646 
L 136.977549 -84.584503 
L 150.764116 -76.235329 
L 174.913364 -48.789803 
L 180.672147 -54.448064 
L 195.558868 -48.221855 
L 211.088371 -50.999049 
L 217.054899 -49.054511 
L 222.255786 -42.809872 
L 229.811675 -40.712317 
L 234.412223 -36.125451 
L 248.33226 -37.571569 
L 254.066471 -30.961143 
L 245.840436 -23.766015 
L 236.864956 -22.75633 
L 236.348944 -11.91952 
L 230.338298 -7.034718 
L 208.899788 -10.590957 
L 201.102088 8.757258 
L 195.570596 11.16308 
L 174.162801 15.480492 
L 183.889961 34.253498 
L 176.475919 37.066434 
L 177.338732 43.227025 
L 170.678045 41.641851 
L 165.258802 37.7578 
L 131.305885 36.332066 
L 127.378833 37.522133 
L 111.988944 32.978547 
L 105.855438 35.216274 
L 104.17449 41.596337 
L 86.396091 37.8734 
L 79.281381 39.39826 
L 76.861039 44.133117 
L 70.664986 46.130709 
L 56.411552 53.663701 
L 51.683118 61.396621 
L 47.656661 61.465311 
L 44.695177 56.346517 
L 30.951053 55.995807 
L 28.752976 47.142907 
L 23.487308 47.067237 
L 24.293717 36.227914 
L 11.356001 28.334439 
L -7.177987 29.177426 
L -19.848761 30.750872 
L -30.169 21.010308 
L -57.782342 8.247668 
L -85.601194 14.633875 
L -85.176769 54.48072 
L -90.719988 55.007901 
L -98.283696 46.534192 
L -105.588281 43.50681 
L -117.855292 45.755427 
L -122.630078 49.351037 
L -123.23656 46.715969 
L -120.58055 42.212313 
L -122.641248 38.447212 
L -135.166265 34.765601 
L -140.041573 25.0605 
L -146.008659 22.326586 
L -146.370538 18.80553 
L -135.857073 19.831969 
L -135.442142 11.930676 
L -126.251097 10.175732 
L -116.811541 11.789666 
L -114.866444 1.246603 
L -116.791437 -5.435863 
L -127.605908 -4.91315 
L -136.792485 -7.55073 
L -149.305216 -2.798841 
L -159.387089 -0.533097 
L -164.875947 -2.280657 
L -163.77924 -7.841685 
L -170.668368 -15.06213 
L -178.687087 -14.760405 
z
" clip-path="url(#p6674fb8917)" style="fill: #e8edf4; stroke: #b8c5d4; stroke-width: 0.45"/>
    <path d="M -85.601194 14.633875 
L -57.782342 8.247668 
L -30.169 21.010308 
L -19.848761 30.750872 
L -7.177987 29.177426 
L 11.356001 28.334439 
L 24.293717 36.227914 
L 23.487308 47.067237 
L 28.752976 47.142907 
L 30.951053 55.995807 
L 44.695177 56.346517 
L 47.656661 61.465311 
L 51.683118 61.396621 
L 56.411552 53.663701 
L 70.664986 46.130709 
L 76.861039 44.133117 
L 80.069919 45.196973 
L 71.000617 52.196642 
L 78.974231 56.264424 
L 86.671409 53.57016 
L 99.48068 59.263883 
L 85.642178 67.046784 
L 77.421727 65.982091 
L 72.960793 66.261318 
L 71.412757 63.257391 
L 73.665562 58.2461 
L 59.215552 60.75747 
L 55.780498 67.691799 
L 50.644951 73.66475 
L 41.621443 73.156556 
L 38.820235 77.915147 
L 46.750289 80.493531 
L 49.084629 88.539464 
L 43.010878 99.476237 
L 34.860234 97.194392 
L 28.838978 97.122631 
L 29.136634 90.509971 
L 14.762015 85.884572 
L 3.460571 80.592378 
L -15.947956 68.040554 
L -21.259976 56.899108 
L -24.886021 54.937536 
L -36.570564 55.435119 
L -40.705361 53.221685 
L -41.860804 44.598589 
L -56.421946 38.887554 
L -65.52643 45.166258 
L -74.7588 48.889474 
L -72.98459 54.333009 
L -85.176769 54.48072 
z
" clip-path="url(#p6674fb8917)" style="fill: #e8edf4; stroke: #b8c5d4; stroke-width: 0.45"/>
    <path d="M 416.039498 356.144719 
L 422.959308 347.159186 
L 436.932398 345.094859 
L 447.062204 346.645967 
L 455.979606 350.883519 
L 460.868875 343.43234 
L 470.447487 347.41077 
L 472.952713 354.617905 
L 471.621916 367.567906 
L 453.457067 375.88469 
L 458.202813 382.431452 
L 446.858368 383.214964 
L 437.504255 387.567558 
L 428.458409 385.989645 
L 424.064489 380.358189 
L 418.598895 369.195522 
z
" clip-path="url(#p6674fb8917)" style="fill: #e8edf4; stroke: #b8c5d4; stroke-width: 0.45"/>
    <path d="M 362.306123 301.557746 
L 366.865345 299.594779 
L 371.792589 287.911352 
L 379.421636 287.427451 
L 385.728822 282.741459 
L 391.917614 280.242375 
L 396.595788 283.577466 
L 397.216231 290.071175 
L 404.518582 290.565686 
L 401.859221 301.952294 
L 402.114435 311.639804 
L 413.505232 305.192447 
L 416.740917 307.097894 
L 423.07044 306.785439 
L 425.247855 303.025365 
L 433.420836 303.767551 
L 441.639053 312.543663 
L 442.313107 323.209865 
L 451.063531 332.628479 
L 450.580468 341.775126 
L 447.062204 346.645967 
L 436.932398 345.094859 
L 422.959308 347.159186 
L 416.039498 356.144719 
L 418.598895 369.195522 
L 408.896865 364.233653 
L 399.653326 364.435255 
L 401.23822 355.945072 
L 391.721038 356.008456 
L 390.866603 367.894323 
L 381.519192 393.224702 
L 382.260819 401.046695 
L 389.300697 401.385956 
L 393.68624 411.24938 
L 395.627428 420.603492 
L 401.658178 426.792564 
L 408.204382 428.048808 
L 413.803446 433.657366 
L 410.270663 438.09708 
L 403.137524 439.387668 
L 402.286998 433.838585 
L 393.469559 429.105683 
L 391.590919 431.03291 
L 387.321534 426.886106 
L 385.473049 421.534157 
L 374.494951 410.307546 
L 372.721299 416.659687 
L 370.671771 410.65658 
L 375.032743 393.550002 
L 380.26937 382.445134 
L 386.204066 372.370894 
L 381.979358 362.515289 
L 382.14857 357.495062 
L 380.913827 351.462637 
L 373.706413 342.876399 
L 371.126353 337.454922 
L 374.857946 335.457889 
L 378.812921 326.063288 
L 374.386611 318.930707 
L 367.528231 311.040583 
z
" clip-path="url(#p6674fb8917)" style="fill: #e8edf4; stroke: #b8c5d4; stroke-width: 0.45"/>
    <path d="M 391.917614 280.242375 
L 394.220681 276.262549 
L 403.416193 269.233283 
L 404.38902 271.772017 
L 410.150037 272.066881 
L 408.517116 259.70577 
L 414.119532 258.121993 
L 420.435652 266.655177 
L 425.287505 276.473924 
L 438.592125 276.55853 
L 442.780534 285.983008 
L 435.87301 288.814094 
L 432.773029 292.698982 
L 445.720238 299.163652 
L 461.513331 321.454642 
L 469.690781 328.973395 
L 472.41213 336.606909 
L 470.447487 347.41077 
L 460.868875 343.43234 
L 455.979606 350.883519 
L 447.062204 346.645967 
L 450.580468 341.775126 
L 451.063531 332.628479 
L 442.313107 323.209865 
L 441.639053 312.543663 
L 433.420836 303.767551 
L 425.247855 303.025365 
L 423.07044 306.785439 
L 416.740917 307.097894 
L 413.505232 305.192447 
L 402.114435 311.639804 
L 401.859221 301.952294 
L 404.518582 290.565686 
L 397.216231 290.071175 
L 396.595788 283.577466 
z
" clip-path="url(#p6674fb8917)" style="fill: #e8edf4; stroke: #b8c5d4; stroke-width: 0.45"/>
    <path d="M 307.487112 268.812766 
L 311.258914 270.449317 
L 311.480062 262.698806 
L 316.812185 260.135221 
L 315.66847 255.546121 
L 318.11115 251.865906 
L 318.531108 240.682017 
L 326.977174 243.143964 
L 331.796078 234.233822 
L 332.342805 228.968154 
L 338.307099 219.903321 
L 337.978728 213.718996 
L 351.96913 206.251342 
L 359.691997 208.205375 
L 358.80573 201.556136 
L 362.594285 199.573343 
L 361.778942 195.477079 
L 368.09953 194.673463 
L 371.711614 201.035656 
L 376.42832 203.612086 
L 376.311045 220.79601 
L 366.074574 229.820356 
L 364.778959 242.639679 
L 376.185951 240.84704 
L 378.763219 250.795349 
L 385.60652 252.888436 
L 382.460746 261.865872 
L 395.165586 267.911979 
L 403.092289 264.765647 
L 403.416193 269.233283 
L 394.220681 276.262549 
L 391.917614 280.242375 
L 385.728822 282.741459 
L 379.421636 287.427451 
L 371.792589 287.911352 
L 366.865345 299.594779 
L 362.306123 301.557746 
L 367.528231 311.040583 
L 374.386611 318.930707 
L 378.812921 326.063288 
L 374.857946 335.457889 
L 371.126353 337.454922 
L 373.706413 342.876399 
L 380.913827 351.462637 
L 382.14857 357.495062 
L 381.979358 362.515289 
L 386.204066 372.370894 
L 380.26937 382.445134 
L 375.032743 393.550002 
L 373.991225 385.528082 
L 377.312912 377.249832 
L 373.679607 370.855528 
L 374.557498 359.082748 
L 370.170279 353.483963 
L 366.648665 340.550156 
L 364.696308 326.898178 
L 360.022044 317.948386 
L 340.621893 331.071508 
L 334.559869 330.109012 
L 327.864 327.575024 
L 331.588891 314.182169 
L 329.333852 304.06409 
L 320.863214 291.604132 
L 322.184518 287.708633 
L 315.862813 286.323386 
L 308.192998 277.507903 
z
" clip-path="url(#p6674fb8917)" style="fill: #e8edf4; stroke: #b8c5d4; stroke-width: 0.45"/>
    <path d="M 414.119532 258.121993 
L 419.917965 255.484691 
L 428.536593 255.53914 
L 439.044473 254.292112 
L 448.255622 248.53305 
L 453.464885 252.587429 
L 463.343945 254.561007 
L 461.635075 260.786379 
L 466.780674 265.177228 
L 477.660485 267.981786 
L 463.232254 277.22728 
L 454.226059 287.437503 
L 451.852069 294.936151 
L 470.222988 320.447749 
L 480.030566 327.123235 
L 486.596874 335.801618 
L 491.548132 355.80127 
L 490.087773 374.812178 
L 481.074876 381.928843 
L 468.698966 388.886627 
L 459.882644 397.895615 
L 446.408254 407.957569 
L 442.484553 401.027428 
L 445.521428 393.706369 
L 437.504255 387.567558 
L 446.858368 383.214964 
L 458.202813 382.431452 
L 453.457067 375.88469 
L 471.621916 367.567906 
L 472.952713 354.617905 
L 470.447487 347.41077 
L 472.41213 336.606909 
L 469.690781 328.973395 
L 461.513331 321.454642 
L 445.720238 299.163652 
L 432.773029 292.698982 
L 435.87301 288.814094 
L 442.780534 285.983008 
L 438.592125 276.55853 
L 425.287505 276.473924 
L 420.435652 266.655177 
z
" clip-path="url(#p6674fb8917)" style="fill: #e8edf4; stroke: #b8c5d4; stroke-width: 0.45"/>
    <path d="M 258.295089 -31.849644 
L 269.688677 -33.722701 
L 290.309051 -43.030462 
L 306.746601 -48.113515 
L 316.143057 -44.79713 
L 327.418353 -44.637694 
L 334.641404 -39.589824 
L 345.427308 -39.201069 
L 361.051065 -36.484143 
L 371.555246 -44.009433 
L 367.167469 -50.370229 
L 378.360573 -61.570034 
L 390.46675 -57.102957 
L 412.982382 -53.060191 
L 415.043014 -44.962149 
L 430.395688 -40.416895 
L 454.279112 -43.832403 
L 465.109778 -42.408902 
L 475.693608 -37.215275 
L 482.253215 -31.691322 
L 492.274122 -31.803851 
L 505.885892 -30.044161 
L 515.819681 -32.722509 
L 530.046868 -34.512076 
L 545.875702 -42.127999 
L 552.356009 -40.960271 
L 558.01427 -37.339252 
L 570.907867 -38.240039 
L 558.009802 -19.294191 
L 560.793139 -14.875978 
L 566.911008 -16.246984 
L 577.572463 -14.56436 
L 585.878915 -18.552284 
L 594.550597 -15.097685 
L 604.344214 -7.54375 
L 603.16029 -3.703258 
L 594.634365 -4.921527 
L 578.936209 -3.487695 
L 571.330059 -0.412844 
L 563.411174 6.730068 
L 546.933415 10.916802 
L 536.165296 16.654363 
L 518.976066 13.485972 
L 513.303285 20.452412 
L 516.754534 24.60508 
L 518.503613 28.171929 
L 510.939906 31.806071 
L 503.185206 37.594173 
L 490.557433 41.395852 
L 474.360019 41.805758 
L 456.902173 45.557734 
L 444.319634 51.360077 
L 439.535355 47.999856 
L 426.459142 48.00935 
L 410.473382 41.445275 
L 399.805226 39.83581 
L 385.431724 41.339169 
L 363.125934 38.916314 
L 351.212983 39.167619 
L 344.870056 32.750418 
L 339.946721 22.787869 
L 333.268723 21.588309 
L 320.212056 14.854185 
L 292.814837 11.497594 
L 288.926877 6.811323 
L 293.087921 -5.815612 
L 285.631437 -14.519405 
L 270.2153 -18.577694 
L 261.132596 -24.309392 
z
" clip-path="url(#p6674fb8917)" style="fill: #e8edf4; stroke: #b8c5d4; stroke-width: 0.45"/>
    <path d="M 46.756991 244.859815 
L 53.953794 237.649888 
L 77.735579 237.67809 
L 75.589997 228.399648 
L 69.518479 222.919255 
L 68.287087 214.601912 
L 61.213702 209.748664 
L 73.123861 198.420693 
L 85.672334 199.24218 
L 96.977129 187.912255 
L 103.75174 176.945325 
L 114.242308 166.101814 
L 114.07533 158.398493 
L 123.290388 152.147153 
L 114.568445 146.810841 
L 106.986309 130.030121 
L 112.284367 125.370377 
L 128.676682 128.00684 
L 140.722545 126.400725 
L 151.158943 117.318021 
L 162.774238 129.984328 
L 161.680784 138.799811 
L 165.979767 144.330745 
L 165.625707 149.848834 
L 157.869891 148.396573 
L 160.900623 160.308407 
L 171.51796 167.15115 
L 186.538153 174.707598 
L 179.68089 179.609712 
L 175.484663 189.718297 
L 210.237286 205.17157 
L 225.050851 206.572174 
L 231.283761 212.0696 
L 252.634594 215.617462 
L 261.634088 215.436802 
L 262.872182 211.159599 
L 261.44924 204.292842 
L 262.284688 199.638124 
L 268.875568 197.365214 
L 270.013698 208.041189 
L 279.835796 212.143037 
L 286.630512 210.453712 
L 304.571979 210.858033 
L 305.330919 204.219405 
L 300.931973 200.77067 
L 309.647214 199.418372 
L 319.483832 191.380816 
L 331.940159 184.498981 
L 341.004993 187.154432 
L 348.708873 182.603866 
L 353.776289 189.323749 
L 350.12623 193.862029 
L 361.778942 195.477079 
L 362.594285 199.573343 
L 358.80573 201.556136 
L 359.691997 208.205375 
L 351.96913 206.251342 
L 337.978728 213.718996 
L 338.307099 219.903321 
L 332.342805 228.968154 
L 331.796078 234.233822 
L 326.977174 243.143964 
L 318.531108 240.682017 
L 318.11115 251.865906 
L 315.66847 255.546121 
L 316.812185 260.135221 
L 311.480062 262.698806 
L 305.788293 245.556487 
L 302.804471 245.590553 
L 301.038079 252.49696 
L 295.121254 246.896219 
L 298.45802 240.74596 
L 303.29256 240.121608 
L 308.27565 230.976078 
L 302.044414 229.130944 
L 292.02239 229.29122 
L 281.739567 227.809082 
L 280.786285 220.294798 
L 275.627283 219.761753 
L 267.06785 215.091956 
L 263.250255 222.423905 
L 271.050189 228.144713 
L 264.294007 232.171449 
L 261.895445 236.109671 
L 268.547196 239.005257 
L 266.708206 245.517116 
L 270.453202 253.643746 
L 272.135267 262.542439 
L 270.587789 266.488199 
L 263.236294 266.352216 
L 249.913803 268.595807 
L 250.534805 276.725229 
L 244.76597 283.119254 
L 229.214129 290.392844 
L 217.118563 303.107737 
L 208.994167 309.924511 
L 198.226047 316.998455 
L 198.209293 321.969258 
L 183.088021 328.504014 
L 178.04015 329.074475 
L 174.799997 337.317543 
L 177.622985 360.337596 
L 173.043658 370.604502 
L 172.994514 388.964532 
L 167.402151 389.487804 
L 162.483283 397.730313 
L 165.77258 401.292136 
L 155.919209 404.355817 
L 152.279761 411.705358 
L 147.943362 414.811482 
L 137.710242 404.720767 
L 128.562198 378.687573 
L 124.775877 373.576039 
L 119.034406 363.19409 
L 114.485236 342.928335 
L 104.654761 328.08601 
L 96.946414 293.314399 
L 96.984947 280.224505 
L 94.889067 270.103913 
L 79.16243 276.572492 
L 71.545669 275.276877 
L 57.428498 262.179444 
L 62.624358 258.273054 
L 59.432791 254.03243 
z
" clip-path="url(#p6674fb8917)" style="fill: #e8edf4; stroke: #b8c5d4; stroke-width: 0.45"/>
    <path d="M 261.895445 236.109671 
L 264.294007 232.171449 
L 271.050189 228.144713 
L 263.250255 222.423905 
L 267.06785 215.091956 
L 275.627283 219.761753 
L 280.786285 220.294798 
L 281.739567 227.809082 
L 292.02239 229.29122 
L 302.044414 229.130944 
L 308.27565 230.976078 
L 303.29256 240.121608 
L 298.45802 240.74596 
L 295.121254 246.896219 
L 301.038079 252.49696 
L 302.804471 245.590553 
L 305.788293 245.556487 
L 311.480062 262.698806 
L 311.258914 270.449317 
L 307.487112 268.812766 
L 308.192998 277.507903 
L 305.105862 271.874214 
L 304.482627 266.369528 
L 302.425839 261.167524 
L 297.910734 254.877093 
L 287.956841 254.444849 
L 288.939721 258.89964 
L 285.546551 264.912799 
L 280.948237 262.721424 
L 279.376746 264.68858 
L 272.135267 262.542439 
L 270.453202 253.643746 
L 266.708206 245.517116 
L 268.547196 239.005257 
z
" clip-path="url(#p6674fb8917)" style="fill: #e8edf4; stroke: #b8c5d4; stroke-width: 0.45"/>
    <path d="M 269.782498 205.876061 
L 276.931832 197.841855 
L 282.767682 195.100402 
L 290.491108 197.601999 
L 296.200746 197.865031 
L 305.330919 204.219405 
L 304.571979 210.858033 
L 286.630512 210.453712 
L 279.835796 212.143037 
L 270.013698 208.041189 
z
" clip-path="url(#p6674fb8917)" style="fill: #e8edf4; stroke: #b8c5d4; stroke-width: 0.45"/>
    <path d="M 175.484663 189.718297 
L 179.68089 179.609712 
L 191.018075 172.122233 
L 199.681938 175.444758 
L 210.592463 182.485752 
L 216.664539 184.036581 
L 220.291143 189.227415 
L 228.688623 191.35764 
L 237.460268 196.103945 
L 249.684837 198.582087 
L 262.284688 199.638124 
L 261.44924 204.292842 
L 262.872182 211.159599 
L 261.634088 215.436802 
L 252.634594 215.617462 
L 231.283761 212.0696 
L 225.050851 206.572174 
L 210.237286 205.17157 
z
" clip-path="url(#p6674fb8917)" style="fill: #e8edf4; stroke: #b8c5d4; stroke-width: 0.45"/>
    <path d="M -32.158215 178.535804 
L -14.050328 184.054451 
L -3.239207 182.43605 
L 3.220436 183.814036 
L 5.407902 181.445072 
L 12.934194 182.394445 
L 26.978766 177.901399 
L 27.35684 168.705329 
L 33.380888 162.588577 
L 41.426542 162.607564 
L 42.607674 159.584092 
L 50.866657 158.175111 
L 54.862399 159.181446 
L 59.088783 156.142337 
L 58.491795 149.652537 
L 63.080616 143.130067 
L 69.958541 140.395595 
L 65.710936 133.245981 
L 75.990967 133.583846 
L 78.962503 129.692814 
L 78.511272 125.540705 
L 83.893657 121.001029 
L 82.658355 115.626183 
L 80.103426 111.046019 
L 86.413962 106.339085 
L 98.017529 104.068967 
L 110.41857 102.813562 
L 122.203077 99.60552 
L 130.187859 104.643896 
L 133.386128 112.947835 
L 151.158943 117.318021 
L 140.722545 126.400725 
L 128.676682 128.00684 
L 112.284367 125.370377 
L 106.986309 130.030121 
L 114.568445 146.810841 
L 123.290388 152.147153 
L 114.07533 158.398493 
L 114.242308 166.101814 
L 103.75174 176.945325 
L 96.977129 187.912255 
L 85.672334 199.24218 
L 73.123861 198.420693 
L 61.213702 209.748664 
L 68.287087 214.601912 
L 69.518479 222.919255 
L 75.589997 228.399648 
L 77.735579 237.67809 
L 53.953794 237.649888 
L 46.756991 244.859815 
L 38.835872 242.127018 
L 35.613031 234.359474 
L 27.263578 226.129809 
L 7.352999 228.162584 
L -10.20481 228.363907 
L -25.424371 229.878715 
L -21.352121 217.324099 
L -5.76398 211.741788 
L -6.658066 206.76512 
L -11.828796 205.015762 
L -12.127011 195.498022 
L -22.45786 190.746411 
L -26.808221 184.219754 
z
" clip-path="url(#p6674fb8917)" style="fill: #e8edf4; stroke: #b8c5d4; stroke-width: 0.45"/>
    <path d="M -35.895393 136.959983 
L -28.521001 115.631488 
L -17.499901 119.731661 
L -9.351492 118.29029 
L -7.094219 113.393482 
L 1.436174 111.763912 
L 7.526679 108.477407 
L 9.683988 99.834765 
L 18.792381 97.744749 
L 20.485615 93.898115 
L 25.583747 96.787558 
L 34.860234 97.194392 
L 46.313019 100.793352 
L 54.13585 97.321999 
L 57.775856 99.409781 
L 61.261171 94.461874 
L 67.721373 94.686373 
L 69.385567 93.098408 
L 70.528165 88.740787 
L 75.180649 84.981272 
L 81.03046 87.438471 
L 79.855472 90.741451 
L 83.124665 91.25467 
L 82.117213 100.333744 
L 86.396091 103.87267 
L 90.161191 101.601994 
L 94.957757 100.529203 
L 101.69216 95.691033 
L 120.279201 96.504422 
L 122.203077 99.60552 
L 110.41857 102.813562 
L 98.017529 104.068967 
L 86.413962 106.339085 
L 80.103426 111.046019 
L 82.658355 115.626183 
L 83.893657 121.001029 
L 78.511272 125.540705 
L 78.962503 129.692814 
L 75.990967 133.583846 
L 65.710936 133.245981 
L 69.958541 140.395595 
L 63.080616 143.130067 
L 58.491795 149.652537 
L 59.088783 156.142337 
L 54.862399 159.181446 
L 50.866657 158.175111 
L 42.607674 159.584092 
L 41.426542 162.607564 
L 33.380888 162.588577 
L 27.35684 168.705329 
L 26.978766 177.901399 
L 12.934194 182.394445 
L 5.407902 181.445072 
L 3.220436 183.814036 
L -3.239207 182.43605 
L -14.050328 184.054451 
L -32.158215 178.535804 
L -22.35678 168.738278 
L -23.241931 161.782448 
L -31.42664 159.960769 
L -32.272698 153.100156 
L -35.812741 144.472592 
L -31.19153 138.555208 
z
" clip-path="url(#p6674fb8917)" style="fill: #e8edf4; stroke: #b8c5d4; stroke-width: 0.45"/>
    <path d="M 38.820235 77.915147 
L 41.621443 73.156556 
L 50.644951 73.66475 
L 55.780498 67.691799 
L 59.215552 60.75747 
L 73.665562 58.2461 
L 71.412757 63.257391 
L 72.960793 66.261318 
L 77.421727 65.982091 
L 73.464519 69.317181 
L 61.70235 67.507509 
L 60.678703 73.737907 
L 72.396195 72.900225 
L 85.748284 76.409553 
L 106.180459 74.769373 
L 108.919678 84.770176 
L 112.471449 83.682027 
L 119.034406 86.142298 
L 118.658008 90.344389 
L 120.279201 96.504422 
L 101.69216 95.691033 
L 94.957757 100.529203 
L 90.161191 101.601994 
L 86.396091 103.87267 
L 82.117213 100.333744 
L 83.124665 91.25467 
L 79.855472 90.741451 
L 81.03046 87.438471 
L 75.180649 84.981272 
L 70.528165 88.740787 
L 69.385567 93.098408 
L 67.721373 94.686373 
L 61.261171 94.461874 
L 57.775856 99.409781 
L 54.13585 97.321999 
L 46.313019 100.793352 
L 43.010878 99.476237 
L 49.084629 88.539464 
L 46.750289 80.493531 
z
" clip-path="url(#p6674fb8917)" style="fill: #e8edf4; stroke: #b8c5d4; stroke-width: 0.45"/>
    <path d="M 60.678703 73.737907 
L 61.70235 67.507509 
L 73.464519 69.317181 
L 77.421727 65.982091 
L 85.642178 67.046784 
L 99.48068 59.263883 
L 86.671409 53.57016 
L 78.974231 56.264424 
L 71.000617 52.196642 
L 80.069919 45.196973 
L 76.861039 44.133117 
L 79.281381 39.39826 
L 86.396091 37.8734 
L 104.17449 41.596337 
L 105.855438 35.216274 
L 111.988944 32.978547 
L 127.378833 37.522133 
L 131.305885 36.332066 
L 165.258802 37.7578 
L 170.678045 41.641851 
L 177.338732 43.227025 
L 175.819735 45.669984 
L 158.790782 51.523983 
L 154.938563 55.813472 
L 141.076605 57.097638 
L 136.990394 63.998181 
L 125.551012 62.548713 
L 118.083917 64.663021 
L 107.767587 69.768692 
L 109.256426 72.297094 
L 106.180459 74.769373 
L 85.748284 76.409553 
L 72.396195 72.900225 
z
" clip-path="url(#p6674fb8917)" style="fill: #e8edf4; stroke: #b8c5d4; stroke-width: 0.45"/>
    <path d="M -122.630078 49.351037 
L -117.855292 45.755427 
L -105.588281 43.50681 
L -98.283696 46.534192 
L -90.719988 55.007901 
L -72.98459 54.333009 
L -74.7588 48.889474 
L -65.52643 45.166258 
L -56.421946 38.887554 
L -41.860804 44.598589 
L -40.705361 53.221685 
L -36.570564 55.435119 
L -24.886021 54.937536 
L -21.259976 56.899108 
L -15.947956 68.040554 
L 3.460571 80.592378 
L 14.762015 85.884572 
L 29.136634 90.509971 
L 28.838978 97.122631 
L 25.583747 96.787558 
L 20.485615 93.898115 
L 18.792381 97.744749 
L 9.683988 99.834765 
L 7.526679 108.477407 
L 1.436174 111.763912 
L -7.094219 113.393482 
L -9.351492 118.29029 
L -17.499901 119.731661 
L -28.521001 115.631488 
L -29.469257 106.537336 
L -37.524963 106.150606 
L -49.875743 96.580092 
L -58.506099 95.398682 
L -70.45535 89.920522 
L -78.139684 88.924519 
L -82.883755 90.937468 
L -90.111273 90.624175 
L -97.797841 96.802357 
L -107.293801 98.89349 
L -109.304796 91.250761 
L -107.733305 79.947363 
L -116.1615 76.289486 
L -113.38654 68.889964 
L -120.560446 68.259468 
L -118.169144 59.150517 
L -107.979583 61.803455 
L -98.483623 58.345505 
L -106.356714 51.859335 
L -109.453903 45.678081 
L -118.152949 48.434613 
L -119.255896 56.353218 
z
" clip-path="url(#p6674fb8917)" style="fill: #e8edf4; stroke: #b8c5d4; stroke-width: 0.45"/>
    <path d="M 171.234824 412.268559 
L 176.126327 394.726665 
L 183.59398 400.731447 
L 188.624539 408.341786 
L 193.851114 419.593248 
L 192.223219 430.846107 
L 187.69192 433.922074 
L 178.293689 436.394352 
L 173.150881 427.801971 
z
" clip-path="url(#p6674fb8917)" style="fill: #e8edf4; stroke: #b8c5d4; stroke-width: 0.45"/>
    <path d="M 106.180459 74.769373 
L 109.256426 72.297094 
L 107.767587 69.768692 
L 118.083917 64.663021 
L 125.551012 62.548713 
L 136.990394 63.998181 
L 141.076605 57.097638 
L 154.938563 55.813472 
L 158.790782 51.523983 
L 175.819735 45.669984 
L 177.338732 43.227025 
L 176.475919 37.066434 
L 183.889961 34.253498 
L 174.162801 15.480492 
L 195.570596 11.16308 
L 201.102088 8.757258 
L 208.899788 -10.590957 
L 230.338298 -7.034718 
L 236.348944 -11.91952 
L 236.864956 -22.75633 
L 245.840436 -23.766015 
L 254.066471 -30.961143 
L 258.295089 -31.849644 
L 261.132596 -24.309392 
L 270.2153 -18.577694 
L 285.631437 -14.519405 
L 293.087921 -5.815612 
L 288.926877 6.811323 
L 292.814837 11.497594 
L 320.212056 14.854185 
L 333.268723 21.588309 
L 339.946721 22.787869 
L 344.870056 32.750418 
L 351.212983 39.167619 
L 363.125934 38.916314 
L 385.431724 41.339169 
L 399.805226 39.83581 
L 410.473382 41.445275 
L 426.459142 48.00935 
L 439.535355 47.999856 
L 444.319634 51.360077 
L 456.902173 45.557734 
L 474.360019 41.805758 
L 490.557433 41.395852 
L 503.185206 37.594173 
L 510.939906 31.806071 
L 518.503613 28.171929 
L 516.754534 24.60508 
L 513.303285 20.452412 
L 518.976066 13.485972 
L 536.165296 16.654363 
L 546.933415 10.916802 
L 563.411174 6.730068 
L 571.330059 -0.412844 
L 578.936209 -3.487695 
L 594.634365 -4.921527 
L 603.16029 -3.703258 
L 604.344214 -7.54375 
L 594.550597 -15.097685 
L 585.878915 -18.552284 
L 577.572463 -14.56436 
L 566.911008 -16.246984 
L 560.793139 -14.875978 
L 558.009802 -19.294191 
L 570.907867 -38.240039 
L 583.880765 -34.159971 
L 599.109819 -40.988752 
L 599.011794 -45.744126 
L 608.766943 -57.206094 
L 614.776795 -60.670307 
L 614.642673 -66.636892 
L 608.713003 -69.205224 
L 617.63934 -74.581745 
L 631.068495 -76.530472 
L 645.395248 -76.823054 
L 661.570163 -73.605287 
L 671.059981 -69.625741 
L 685.552992 -47.43946 
L 689.550889 -36.85395 
L 708.359157 -33.399356 
L 721.159493 -25.716697 
L 725.535868 -15.563131 
L 741.955974 -15.550487 
L 751.324413 -19.813554 
L 769.184905 -22.999257 
L 763.505939 -13.275557 
L 759.307947 -9.320609 
L 755.604408 2.518763 
L 748.336606 13.031973 
L 735.220819 11.118404 
L 725.945768 14.935367 
L 728.79189 24.190707 
L 727.237153 36.95921 
L 721.71683 37.250724 
L 721.783111 42.740451 
L 714.804839 36.360547 
L 710.50809 42.416707 
L 693.81756 47.071146 
L 695.505768 52.77185 
L 686.161707 52.378698 
L 681.031744 48.991671 
L 673.607092 56.65618 
L 661.696933 62.464944 
L 652.896806 69.395644 
L 637.788378 72.53723 
L 629.832636 77.587613 
L 618.195561 80.537649 
L 623.938707 75.529988 
L 621.677524 71.321754 
L 630.234723 64.057657 
L 624.526201 58.395486 
L 615.105632 62.210289 
L 602.904518 69.724574 
L 596.246065 76.702742 
L 585.647715 77.222105 
L 580.135769 82.264949 
L 585.830888 89.572047 
L 594.675691 91.345978 
L 595.037569 96.196713 
L 603.587508 99.353098 
L 615.698152 91.636653 
L 625.2924 95.84377 
L 632.2809 96.131653 
L 634.032213 101.792986 
L 618.731677 104.811153 
L 613.683248 110.645607 
L 603.174251 116.066804 
L 597.626564 123.630791 
L 609.258055 129.569396 
L 613.503426 140.199019 
L 620.080903 150.102372 
L 627.420112 158.403519 
L 627.244757 166.431023 
L 620.461769 169.382176 
L 623.047413 175.145985 
L 629.40821 178.500342 
L 627.747366 187.302422 
L 625.002563 195.866881 
L 618.963994 196.837754 
L 602.319816 222.718769 
L 592.284389 235.615438 
L 562.391436 254.684147 
L 550.213219 255.924753 
L 543.60726 260.726345 
L 539.870641 257.218692 
L 533.75724 262.589349 
L 518.654955 268.00217 
L 507.22004 269.659383 
L 503.530331 281.072518 
L 497.541465 281.705526 
L 494.707867 273.862312 
L 497.267264 269.682001 
L 482.76811 266.222096 
L 477.660485 267.981786 
L 466.780674 265.177228 
L 461.635075 260.786379 
L 463.343945 254.561007 
L 453.464885 252.587429 
L 448.255622 248.53305 
L 439.044473 254.292112 
L 428.536593 255.53914 
L 419.917965 255.484691 
L 408.517116 259.70577 
L 410.150037 272.066881 
L 404.38902 271.772017 
L 403.092289 264.765647 
L 395.165586 267.911979 
L 382.460746 261.865872 
L 385.60652 252.888436 
L 378.763219 250.795349 
L 376.185951 240.84704 
L 364.778959 242.639679 
L 366.074574 229.820356 
L 376.311045 220.79601 
L 376.42832 203.612086 
L 371.711614 201.035656 
L 368.09953 194.673463 
L 361.778942 195.477079 
L 350.12623 193.862029 
L 353.776289 189.323749 
L 348.708873 182.603866 
L 341.004993 187.154432 
L 331.940159 184.498981 
L 319.483832 191.380816 
L 309.647214 199.418372 
L 300.931973 200.77067 
L 296.200746 197.865031 
L 290.491108 197.601999 
L 282.767682 195.100402 
L 276.931832 197.841855 
L 269.782498 205.876061 
L 268.875568 197.365214 
L 262.284688 199.638124 
L 249.684837 198.582087 
L 237.460268 196.103945 
L 228.688623 191.35764 
L 220.291143 189.227415 
L 216.664539 184.036581 
L 210.592463 182.485752 
L 199.681938 175.444758 
L 191.018075 172.122233 
L 186.538153 174.707598 
L 171.51796 167.15115 
L 160.900623 160.308407 
L 157.869891 148.396573 
L 165.625707 149.848834 
L 165.979767 144.330745 
L 161.680784 138.799811 
L 162.774238 129.984328 
L 151.158943 117.318021 
L 133.386128 112.947835 
L 130.187859 104.643896 
L 122.203077 99.60552 
L 120.279201 96.504422 
L 118.658008 90.344389 
L 119.034406 86.142298 
L 112.471449 83.682027 
L 108.919678 84.770176 
z
" clip-path="url(#p6674fb8917)" style="fill: #e8edf4; stroke: #b8c5d4; stroke-width: 0.45"/>
    <path d="M 483.885577 291.589054 
L 489.211558 286.691966 
L 501.018403 283.663747 
L 507.231768 283.920078 
L 509.647084 288.043985 
L 504.898545 292.799504 
L 502.397227 299.040233 
L 493.060426 304.234977 
L 484.19887 300.885088 
z
" clip-path="url(#p6674fb8917)" style="fill: #e8edf4; stroke: #b8c5d4; stroke-width: 0.45"/>
   </g>
   <g id="PathCollection_1">
    <defs>
     <path id="m895e06e9ff" d="M 0 2.12132 
C 0.562581 2.12132 1.102195 1.897805 1.5 1.5 
C 1.897805 1.102195 2.12132 0.562581 2.12132 0 
C 2.12132 -0.562581 1.897805 -1.102195 1.5 -1.5 
C 1.102195 -1.897805 0.562581 -2.12132 0 -2.12132 
C -0.562581 -2.12132 -1.102195 -1.897805 -1.5 -1.5 
C -1.897805 -1.102195 -2.12132 -0.562581 -2.12132 0 
C -2.12132 0.562581 -1.897805 1.102195 -1.5 1.5 
C -1.102195 1.897805 -0.562581 2.12132 0 2.12132 
z
" style="stroke: #ffffff; stroke-width: 0.5"/>
    </defs>
    <g clip-path="url(#p6674fb8917)">
     <use xlink:href="#m895e06e9ff" x="288" y="203.707317" style="fill: #8aa0b7; stroke: #ffffff; stroke-width: 0.5"/>
     <use xlink:href="#m895e06e9ff" x="543.75985" y="260.442777" style="fill: #8aa0b7; stroke: #ffffff; stroke-width: 0.5"/>
     <use xlink:href="#m895e06e9ff" x="537.095685" y="261.34334" style="fill: #8aa0b7; stroke: #ffffff; stroke-width: 0.5"/>
    </g>
   </g>
   <g id="PatchCollection_2">
    <defs>
     <path id="m01dd8ab89f" d="M 269.782498 -201.538573 
L 276.931832 -209.572779 
L 282.767682 -212.314232 
L 290.491108 -209.812635 
L 296.200746 -209.549603 
L 305.330919 -203.195229 
L 304.571979 -196.556601 
L 286.630512 -196.960922 
L 279.835796 -195.271597 
L 270.013698 -199.373445 
z
" style="stroke: #b45309; stroke-width: 1.15"/>
    </defs>
    <g clip-path="url(#p6674fb8917)">
     <use xlink:href="#m01dd8ab89f" x="0" y="407.414634" style="fill: #f59e0b; stroke: #b45309; stroke-width: 1.15"/>
    </g>
   </g>
   <g id="PathCollection_2">
    <defs>
     <path id="mfa5199b25f" d="M 0 3.316625 
C 0.879579 3.316625 1.723251 2.967164 2.345208 2.345208 
C 2.967164 1.723251 3.316625 0.879579 3.316625 0 
C 3.316625 -0.879579 2.967164 -1.723251 2.345208 -2.345208 
C 1.723251 -2.967164 0.879579 -3.316625 0 -3.316625 
C -0.879579 -3.316625 -1.723251 -2.967164 -2.345208 -2.345208 
C -2.967164 -1.723251 -3.316625 -0.879579 -3.316625 0 
C -3.316625 0.879579 -2.967164 1.723251 -2.345208 2.345208 
C -1.723251 2.967164 -0.879579 3.316625 0 3.316625 
z
" style="stroke: #ffffff"/>
    </defs>
    <g clip-path="url(#p6674fb8917)">
     <use xlink:href="#mfa5199b25f" x="288" y="203.707317" style="fill: #f97316; stroke: #ffffff"/>
    </g>
   </g>
   <g id="PathCollection_3">
    <path d="M 288 208.157036 
C 289.180079 208.157036 290.311984 207.688186 291.146427 206.853744 
C 291.980869 206.019302 292.449719 204.887396 292.449719 203.707317 
C 292.449719 202.527238 291.980869 201.395333 291.146427 200.560891 
C 290.311984 199.726448 289.180079 199.257598 288 199.257598 
C 286.819921 199.257598 285.688016 199.726448 284.853573 200.560891 
C 284.019131 201.395333 283.550281 202.527238 283.550281 203.707317 
C 283.550281 204.887396 284.019131 206.019302 284.853573 206.853744 
C 285.688016 207.688186 286.819921 208.157036 288 208.157036 
L 288 208.157036 
z
" clip-path="url(#p6674fb8917)" style="fill: none; stroke: #7c2d12; stroke-width: 1.1"/>
   </g>
  </g>
 </g>
 <defs>
  <clipPath id="p6674fb8917">
   <rect x="0" y="0" width="576" height="407.414634"/>
  </clipPath>
 </defs>
</svg>
