<?xml version="1.0" encoding="utf-8" standalone="no"?>
<!DOCTYPE svg PUBLIC "-//W3C//DTD SVG 1.1//EN"
  "http://www.w3.org/Graphics/SVG/1.1/DTD/svg11.dtd">
<svg xmlns:xlink="http://www.w3.org/1999/xlink" width="576pt" height="384pt" viewBox="0 0 576 384" xmlns="http://www.w3.org/2000/svg" version="1.1">
 <metadata>
  <rdf:RDF xmlns:dc="http://purl.org/dc/elements/1.1/" xmlns:cc="http://creativecommons.org/ns#" xmlns:rdf="http://www.w3.org/1999/02/22-rdf-syntax-ns#">
   <cc:Work>
    <dc:type rdf:resource="http://purl.org/dc/dcmitype/StillImage"/>
    <dc:date>2026-06-09T04:57:19.863370</dc:date>
    <dc:format>image/svg+xml</dc:format>
    <dc:creator>
     <cc:Agent>
      <dc:title>Matplotlib v3.10.8, https://matplotlib.org/</dc:title>
     </cc:Agent>
    </dc:creator>
   </cc:Work>
  </rdf:RDF>
 </metadata>
 <defs>
  <style type="text/css">*{stroke-linejoin: round; stroke-linecap: butt}</style>
 </defs>
 <g id="figure_1">
  <g id="patch_1">
   <path d="M 0 384 
L 576 384 
L 576 0 
L 0 0 
z
" style="fill: #eaf3ff"/>
  </g>
  <g id="axes_1">
   <g id="PatchCollection_1">
    <path d="M 37.987339 13.717685 
L 38.576982 7.922602 
L 69.701195 6.848913 
L 71.34858 1.907111 
L 76.966842 -4.253665 
L 81.493343 -23.190981 
L 100.558226 -37.990166 
L 107.006736 -55.280451 
L 111.292986 -56.284686 
L 115.759247 -66.972672 
L 127.29697 -68.445361 
L 132.259325 -66.664385 
L 138.486719 -66.664385 
L 142.906915 -69.784815 
L 151.384448 -70.226692 
L 151.069783 -77.573841 
L 153.157629 -77.573841 
L 152.859973 -53.225914 
L 107.847969 -53.943124 
L 108.289493 -18.851578 
L 95.439247 -17.620557 
L 92.085653 -10.576734 
L 94.686602 9.228746 
L 40.980201 9.142992 
z
" clip-path="url(#pa41e06dde9)" style="fill: #e8edf4; stroke: #b8c5d4; stroke-width: 0.45"/>
    <path d="M 439.072049 381.119047 
L 442.560296 379.670453 
L 442.989772 373.691815 
L 445.233533 370.166006 
L 450.224236 367.283701 
L 453.827294 368.680559 
L 458.517506 363.43047 
L 465.987969 363.565833 
L 466.866764 367.448121 
L 471.989995 369.877563 
L 491.514828 350.196106 
L 491.055586 338.912808 
L 497.011546 325.589856 
L 503.295637 318.525481 
L 512.325252 311.915386 
L 513.901412 307.540548 
L 514.243008 302.510866 
L 516.478265 297.75191 
L 515.760347 289.979538 
L 517.469744 277.826304 
L 520.150068 269.270105 
L 524.257724 261.936776 
L 526.303756 244.089803 
L 531.643142 237.126773 
L 538.986747 232.710476 
L 550.272171 237.371276 
L 559.006965 242.43037 
L 579.270268 246.457233 
L 583.370838 238.175303 
L 585.254576 237.118269 
L 591.504649 238.495637 
L 606.772997 231.650961 
L 612.183254 234.552047 
L 616.624002 234.140643 
L 618.680665 230.80583 
L 623.777674 229.630797 
L 642.89004 231.389449 
L 647.417958 229.934477 
L 655.725402 241.256045 
L 661.883343 242.919022 
L 665.554437 240.616084 
L 671.895932 241.51862 
L 679.53365 238.617535 
L 682.79086 244.474985 
L 694.864364 253.588581 
L 694.03447 269.624457 
L 699.531189 271.48162 
L 695.122333 276.351134 
L 689.853818 279.993525 
L 684.610107 287.145425 
L 681.724967 293.521648 
L 680.953187 304.529968 
L 677.776061 309.770135 
L 677.661251 320.109438 
L 673.717305 323.932194 
L 673.209164 332.092937 
L 671.325425 333.150325 
L 670.056133 340.65268 
L 673.504694 346.88787 
L 674.37711 363.428344 
L 676.845531 376.045425 
L 675.474186 383.177127 
L 678.217584 391.131636 
L 686.171384 398.811168 
L 693.577355 416.09153 
L 688.174895 414.696089 
L 669.754225 417.010721 
L 666.07817 418.649957 
L 662.16966 427.404594 
L 665.239063 433.452685 
L 661.105185 463.455727 
L 674.398371 471.233059 
L 678.162305 468.739125 
L 679.308991 483.52768 
L 668.813064 483.414287 
L 658.127205 470.022591 
L 647.617813 468.106251 
L 644.540614 460.919979 
L 636.15663 465.24946 
L 625.174532 463.336664 
L 620.591334 457.109979 
L 611.883472 455.84494 
L 605.456223 456.175905 
L 604.66956 451.913043 
L 593.693131 450.75927 
L 575.843678 453.734415 
L 576.577188 437.414348 
L 572.002495 432.325135 
L 570.996133 423.890833 
L 573.016652 415.623785 
L 570.23711 410.332591 
L 569.98552 401.703394 
L 553.345118 401.823165 
L 554.539286 396.882072 
L 547.542238 396.933807 
L 546.803059 399.310096 
L 538.297177 399.845877 
L 532.801167 411.267373 
L 525.22298 409.330481 
L 520.697897 411.259577 
L 511.629303 412.368701 
L 503.225475 400.762942 
L 495.906675 382.319594 
L 455.436764 382.138165 
L 440.993349 385.372697 
z
" clip-path="url(#pa41e06dde9)" style="fill: #e8edf4; stroke: #b8c5d4; stroke-width: 0.45"/>
    <path d="M 572.84768 129.076389 
L 574.229806 124.039406 
L 577.781669 118.322469 
L 576.227977 112.64256 
L 580.736274 108.436389 
L 577.876709 105.232183 
L 581.503314 96.764023 
L 587.765806 86.664411 
L 599.591634 87.622766 
L 599.085714 27.428571 
L 614.857143 27.38688 
L 614.857143 -0 
L 777.594012 -0 
L 782.016732 13.455771 
L 779.009052 15.94368 
L 781.0016 30.062263 
L 786.035977 46.435337 
L 798.766948 54.880356 
L 791.826286 62.708023 
L 781.725303 64.962651 
L 777.406126 69.167314 
L 776.053349 78.283063 
L 770.147017 98.434423 
L 771.604709 103.925349 
L 769.42016 115.702903 
L 763.844069 129.21216 
L 755.572434 136.006491 
L 749.690926 146.482834 
L 748.312914 152.089097 
L 741.816457 155.930194 
L 737.75936 170.282331 
L 737.942583 182.611749 
L 737.783673 171.918374 
L 735.885214 171.647166 
L 736.120652 164.819456 
L 734.472584 160.110691 
L 727.409437 154.695612 
L 725.761369 144.807205 
L 727.409437 134.683361 
L 721.052604 133.741608 
L 720.110851 136.802305 
L 711.870512 137.50862 
L 715.166648 141.51107 
L 716.343839 149.751409 
L 708.809815 157.285433 
L 701.982106 167.173839 
L 694.918959 168.586468 
L 683.382485 160.581568 
L 678.202843 163.406827 
L 676.790214 167.409277 
L 669.727066 169.999098 
L 669.25619 172.824357 
L 655.600772 172.824357 
L 653.717266 169.999098 
L 643.828859 169.528221 
L 638.884656 171.882604 
L 635.117644 170.705413 
L 625.700114 158.9335 
L 615.811708 160.817006 
L 612.044696 167.173839 
L 608.513122 179.416628 
L 599.592863 183.50085 
L 608.923918 188.856851 
L 598.479727 182.861913 
L 593.723605 178.912652 
L 592.842685 174.650498 
L 595.070854 168.943294 
L 595.030458 163.347356 
L 587.120598 154.773084 
L 585.731017 145.582491 
L 580.690606 141.540206 
L 580.538789 133.573851 
L 577.664137 128.282743 
z
" clip-path="url(#pa41e06dde9)" style="fill: #e8edf4; stroke: #b8c5d4; stroke-width: 0.45"/>
    <path d="M 457.696825 104.679309 
L 463.618332 86.614354 
L 481.111742 73.682663 
L 481.834621 55.845258 
L 487.118728 28.015816 
L 490.101669 22.112655 
L 484.395174 17.411458 
L 484.174537 13.049829 
L 479.043031 9.483171 
L 475.674972 -11.834743 
L 489.520229 -19.333303 
L 598.91648 33.182126 
L 599.591634 87.622766 
L 587.765806 86.664411 
L 581.503314 96.764023 
L 577.876709 105.232183 
L 580.736274 108.436389 
L 576.227977 112.64256 
L 577.781669 118.322469 
L 574.229806 124.039406 
L 572.84768 129.076389 
L 577.664137 128.282743 
L 580.538789 133.573851 
L 580.690606 141.540206 
L 585.731017 145.582491 
L 585.565698 148.904295 
L 576.884057 151.242669 
L 569.926697 156.794666 
L 560.011909 171.757917 
L 547.104258 178.111461 
L 533.860681 177.259242 
L 529.993276 178.520029 
L 531.351156 183.34773 
L 518.376178 193.496036 
L 501.110698 198.742937 
L 497.684816 195.63739 
L 495.413416 195.369499 
L 492.885464 198.89708 
L 481.546887 199.927892 
L 483.694973 196.212858 
L 477.439939 181.081999 
L 471.46697 178.753902 
L 463.372138 170.749784 
L 466.351535 164.278241 
L 472.601608 165.655964 
L 476.471139 164.679368 
L 484.130826 164.813668 
L 476.666033 152.34754 
L 477.167796 143.237842 
L 476.251794 134.138743 
L 470.79937 125.356851 
L 472.170715 118.897002 
L 463.375681 118.581274 
L 463.406156 109.759664 
z
" clip-path="url(#pa41e06dde9)" style="fill: #e8edf4; stroke: #b8c5d4; stroke-width: 0.45"/>
    <path d="M 30.285129 99.709159 
L 36.317629 97.104312 
L 42.961742 87.476196 
L 46.220369 80.43379 
L 50.916251 76.036628 
L 57.732579 77.22052 
L 64.424175 74.231555 
L 72.08209 74.080956 
L 78.635134 78.112426 
L 87.738455 81.745604 
L 105.086853 101.254845 
L 105.715829 109.786594 
L 108.419895 117.640113 
L 113.553402 121.491927 
L 114.725955 126.795169 
L 114.094498 131.067599 
L 112.11473 131.841151 
L 104.636825 130.756832 
L 103.607785 132.281966 
L 100.584448 132.588481 
L 90.727065 129.245163 
L 58.763745 128.527953 
L 55.086982 130.072222 
L 50.545598 129.630699 
L 43.280659 131.864892 
L 41.03052 121.352312 
L 53.513656 121.641818 
L 64.349761 116.440983 
L 70.232724 119.33888 
L 76.191518 119.580548 
L 82.126217 116.502286 
L 79.355533 112.538497 
L 74.833639 114.847814 
L 70.577863 114.783676 
L 65.164772 111.408112 
L 60.816864 111.629228 
L 57.719822 114.876516 
L 42.783148 115.269139 
L 37.127679 104.591784 
z
" clip-path="url(#pa41e06dde9)" style="fill: #e8edf4; stroke: #b8c5d4; stroke-width: 0.45"/>
    <path d="M 105.086853 101.254845 
L 109.702297 98.755241 
L 112.00807 90.676 
L 116.355268 90.359918 
L 125.932004 94.179485 
L 133.666105 91.467624 
L 138.96793 92.377956 
L 141.025302 89.328043 
L 196.053792 89.119683 
L 199.104769 79.517434 
L 196.728834 77.827172 
L 183.490927 -40.547529 
L 204.479945 -40.794159 
L 297.004264 19.051756 
L 300.265017 25.477942 
L 315.154208 31.630922 
L 315.311541 40.356148 
L 330.52461 39.013506 
L 330.56288 70.598023 
L 323.064069 79.758394 
L 321.896122 88.208642 
L 309.714186 90.383659 
L 291.00153 91.562591 
L 285.930743 96.436357 
L 268.348472 97.038048 
L 264.925425 94.40698 
L 257.375586 96.359108 
L 244.557233 102.047886 
L 241.940693 106.334845 
L 231.30019 112.48251 
L 229.434878 116.005484 
L 223.687277 118.797783 
L 217.055213 116.948771 
L 213.297302 120.295632 
L 211.284579 129.700861 
L 200.398511 141.067077 
L 200.715302 145.712286 
L 196.975109 151.525442 
L 197.883315 159.487038 
L 189.022372 163.249909 
L 186.8998 157.384309 
L 182.939908 158.930704 
L 180.57425 158.663168 
L 178.050196 162.665227 
L 167.459303 162.552189 
L 163.662768 160.493045 
L 161.875059 161.738949 
L 157.686256 157.785437 
L 158.413388 153.701522 
L 156.699738 152.10162 
L 153.778455 153.45064 
L 154.313527 148.988631 
L 157.124961 145.45857 
L 151.504928 139.71345 
L 149.870653 135.931089 
L 146.82322 132.918029 
L 144.078405 132.558361 
L 132.591354 139.28114 
L 126.721502 138.185481 
L 122.914336 134.703257 
L 120.641518 134.245788 
L 114.886831 136.089131 
L 114.094498 131.067599 
L 114.725955 126.795169 
L 113.553402 121.491927 
L 108.419895 117.640113 
L 105.715829 109.786594 
z
" clip-path="url(#pa41e06dde9)" style="fill: #e8edf4; stroke: #b8c5d4; stroke-width: 0.45"/>
    <path d="M 37.987339 13.717685 
L 40.980201 9.142992 
L 94.686602 9.228746 
L 92.085653 -10.576734 
L 95.439247 -17.620557 
L 108.289493 -18.851578 
L 107.847969 -53.943124 
L 152.859973 -53.225914 
L 152.89966 -73.998777 
L 204.479945 -40.794159 
L 183.490927 -40.547529 
L 196.728834 77.827172 
L 199.104769 79.517434 
L 196.053792 89.119683 
L 141.025302 89.328043 
L 138.96793 92.377956 
L 133.666105 91.467624 
L 125.932004 94.179485 
L 116.355268 90.359918 
L 112.00807 90.676 
L 109.702297 98.755241 
L 105.086853 101.254845 
L 87.738455 81.745604 
L 78.635134 78.112426 
L 72.08209 74.080956 
L 64.424175 74.231555 
L 57.732579 77.22052 
L 50.916251 76.036628 
L 46.220369 80.43379 
L 45.032579 73.043765 
L 48.861005 66.281653 
L 50.564378 53.369396 
L 47.392213 32.999078 
L 48.761078 26.159717 
L 45.216133 19.64069 
z
" clip-path="url(#pa41e06dde9)" style="fill: #e8edf4; stroke: #b8c5d4; stroke-width: 0.45"/>
    <path d="M 282.592032 158.11463 
L 284.336864 150.893631 
L 289.053299 149.341567 
L 291.847015 143.345565 
L 298.550659 142.064226 
L 306.150815 133.946714 
L 311.067104 133.911279 
L 321.524761 141.803422 
L 320.990397 146.359689 
L 324.074682 154.494918 
L 321.372389 160.015732 
L 322.817439 163.704544 
L 311.940229 176.39852 
L 309.354872 185.048977 
L 308.914766 215.879078 
L 297.580441 217.47898 
L 294.202752 208.017764 
L 294.827121 176.522189 
L 292.064588 173.696581 
L 291.543689 166.966006 
z
" clip-path="url(#pa41e06dde9)" style="fill: #e8edf4; stroke: #b8c5d4; stroke-width: 0.45"/>
    <path d="M 276.054579 103.621921 
L 277.141379 96.974973 
L 285.930743 96.436357 
L 291.00153 91.562591 
L 309.714186 90.383659 
L 321.896122 88.208642 
L 323.064069 79.758394 
L 330.56288 70.598023 
L 330.52461 39.013506 
L 349.863762 32.897733 
L 389.571105 5.956653 
L 436.564649 -20.182881 
L 458.259537 -14.269798 
L 465.973086 -6.737677 
L 475.674972 -11.834743 
L 479.043031 9.483171 
L 484.174537 13.049829 
L 484.395174 17.411458 
L 490.101669 22.112655 
L 487.118728 28.015816 
L 481.834621 55.845258 
L 481.111742 73.682663 
L 463.618332 86.614354 
L 457.696825 104.679309 
L 463.406156 109.759664 
L 463.375681 118.581274 
L 472.170715 118.897002 
L 470.79937 125.356851 
L 466.928421 126.143514 
L 466.486898 130.509848 
L 463.936267 130.812819 
L 454.656479 115.798542 
L 451.43754 115.252839 
L 440.714119 122.91855 
L 430.095586 118.916846 
L 422.71442 118.116717 
L 418.757009 120.04227 
L 410.717456 119.62626 
L 402.627584 125.470598 
L 395.633371 125.805816 
L 379.035492 118.717345 
L 372.535955 122.08405 
L 365.537489 121.850177 
L 360.394415 116.670604 
L 346.647657 111.553043 
L 331.908711 113.177395 
L 328.337545 116.143327 
L 326.408449 124.030509 
L 322.477261 129.560183 
L 321.524761 141.803422 
L 311.067104 133.911279 
L 306.150815 133.946714 
L 301.547065 137.963656 
L 301.857478 128.571184 
L 286.044844 125.460677 
L 285.618912 118.824005 
L 277.89615 109.868804 
z
" clip-path="url(#pa41e06dde9)" style="fill: #e8edf4; stroke: #b8c5d4; stroke-width: 0.45"/>
    <path d="M 308.914766 215.879078 
L 309.354872 185.048977 
L 311.940229 176.39852 
L 322.817439 163.704544 
L 321.372389 160.015732 
L 324.074682 154.494918 
L 320.990397 146.359689 
L 322.477261 129.560183 
L 326.408449 124.030509 
L 328.337545 116.143327 
L 331.908711 113.177395 
L 346.647657 111.553043 
L 360.394415 116.670604 
L 365.537489 121.850177 
L 372.535955 122.08405 
L 379.035492 118.717345 
L 395.633371 125.805816 
L 402.627584 125.470598 
L 410.717456 119.62626 
L 418.757009 120.04227 
L 422.71442 118.116717 
L 430.095586 118.916846 
L 440.714119 122.91855 
L 451.43754 115.252839 
L 454.656479 115.798542 
L 463.936267 130.812819 
L 466.486898 130.509848 
L 471.915581 135.972194 
L 469.696624 143.007512 
L 458.14331 153.619666 
L 452.584225 169.499982 
L 449.674989 172.556274 
L 446.907495 182.156396 
L 439.573103 187.805841 
L 437.448405 194.745484 
L 434.367662 200.269134 
L 433.084906 205.969605 
L 423.663377 210.590718 
L 415.964002 204.955093 
L 410.764939 205.182588 
L 402.59711 213.209385 
L 398.626234 213.332699 
L 388.575374 236.269948 
L 374.337484 241.205372 
L 369.132752 240.484265 
L 363.859275 243.557565 
L 352.889225 243.257783 
L 345.547037 234.679259 
L 341.031876 224.752423 
L 331.322612 215.716784 
z
" clip-path="url(#pa41e06dde9)" style="fill: #e8edf4; stroke: #b8c5d4; stroke-width: 0.45"/>
    <path d="M 388.418042 240.060105 
L 388.575374 236.269948 
L 392.10331 226.564583 
L 398.626234 213.332699 
L 402.59711 213.209385 
L 410.764939 205.182588 
L 415.964002 204.955093 
L 423.663377 210.590718 
L 433.084906 205.969605 
L 434.367662 200.269134 
L 437.448405 194.745484 
L 439.573103 187.805841 
L 446.907495 182.156396 
L 449.674989 172.556274 
L 452.584225 169.499982 
L 458.14331 153.619666 
L 469.696624 143.007512 
L 471.915581 135.972194 
L 466.486898 130.509848 
L 466.928421 126.143514 
L 470.79937 125.356851 
L 476.251794 134.138743 
L 477.167796 143.237842 
L 476.666033 152.34754 
L 484.130826 164.813668 
L 476.471139 164.679368 
L 472.601608 165.655964 
L 466.351535 164.278241 
L 463.372138 170.749784 
L 471.46697 178.753902 
L 477.439939 181.081999 
L 483.694973 196.212858 
L 474.649766 213.826313 
L 471.358539 216.315995 
L 470.300441 226.947284 
L 471.665408 232.723232 
L 470.560536 236.809982 
L 477.041647 243.971804 
L 478.211011 248.895534 
L 483.274002 255.97302 
L 489.546044 260.385774 
L 491.604833 270.615227 
L 490.618315 278.02049 
L 468.632858 271.160576 
L 449.618293 269.874985 
L 441.500073 271.641433 
L 433.165698 269.804468 
L 426.648444 270.705587 
L 404.331312 270.392694 
L 406.334113 259.564739 
L 400.974175 250.497917 
L 394.717015 248.171946 
L 391.930386 242.026762 
z
" clip-path="url(#pa41e06dde9)" style="fill: #e8edf4; stroke: #b8c5d4; stroke-width: 0.45"/>
    <path d="M 271.317238 154.876555 
L 272.326435 150.600936 
L 284.336864 150.893631 
L 282.592032 158.11463 
L 291.543689 166.966006 
L 292.064588 173.696581 
L 294.827121 176.522189 
L 294.202752 208.017764 
L 297.580441 217.47898 
L 286.538812 220.404516 
L 279.822411 206.888796 
L 278.733131 200.067507 
L 281.764973 187.714773 
L 278.324917 182.712376 
L 277.041097 161.949081 
z
" clip-path="url(#pa41e06dde9)" style="fill: #e8edf4; stroke: #b8c5d4; stroke-width: 0.45"/>
    <path d="M 227.505782 215.993534 
L 231.082263 200.506904 
L 236.861401 188.987962 
L 231.35228 159.149694 
L 231.674387 151.368818 
L 255.496809 150.722479 
L 261.555531 151.722108 
L 265.983522 149.508467 
L 272.326435 150.600936 
L 271.317238 154.876555 
L 277.041097 161.949081 
L 278.324917 182.712376 
L 281.764973 187.714773 
L 278.733131 200.067507 
L 279.822411 206.888796 
L 286.538812 220.404516 
L 265.038109 228.432376 
L 257.413148 233.135344 
L 245.055453 237.113662 
L 232.830285 233.218617 
L 233.453237 227.807298 
z
" clip-path="url(#pa41e06dde9)" style="fill: #e8edf4; stroke: #b8c5d4; stroke-width: 0.45"/>
    <path d="M 154.017643 213.016262 
L 156.999521 206.923877 
L 155.628176 200.294293 
L 156.26105 196.305699 
L 158.436066 196.290107 
L 159.243991 190.308634 
L 158.184476 187.660202 
L 159.494872 185.753785 
L 164.588338 184.104627 
L 161.200726 173.126073 
L 158.039546 167.457847 
L 159.14052 162.802007 
L 163.662768 160.493045 
L 167.459303 162.552189 
L 178.050196 162.665227 
L 180.57425 158.663168 
L 182.939908 158.930704 
L 186.8998 157.384309 
L 189.022372 163.249909 
L 197.883315 159.487038 
L 204.050469 162.477066 
L 206.447311 167.01278 
L 212.613756 169.90855 
L 217.410983 166.459281 
L 223.836814 165.938383 
L 233.222908 169.474823 
L 236.861401 188.987962 
L 231.082263 200.506904 
L 227.505782 215.993534 
L 233.453237 227.807298 
L 232.830285 233.218617 
L 226.590843 233.358232 
L 217.021903 230.676846 
L 208.229705 230.835241 
L 191.984052 233.229248 
L 168.883092 242.217758 
L 166.233243 241.857381 
L 167.286379 230.56239 
L 168.598193 228.845551 
L 168.180765 223.442027 
L 162.372216 217.69797 
L 158.015804 216.78126 
z
" clip-path="url(#pa41e06dde9)" style="fill: #e8edf4; stroke: #b8c5d4; stroke-width: 0.45"/>
    <path d="M 64.498589 150.302925 
L 70.59629 143.618416 
L 74.758516 143.872842 
L 78.334998 141.570967 
L 81.360461 141.548997 
L 83.522367 139.731168 
L 82.355129 135.186594 
L 83.85723 133.752884 
L 84.107757 129.103776 
L 90.727065 129.245163 
L 100.584448 132.588481 
L 103.607785 132.281966 
L 104.636825 130.756832 
L 112.11473 131.841151 
L 114.094498 131.067599 
L 114.886831 136.089131 
L 120.641518 134.245788 
L 122.914336 134.703257 
L 126.721502 138.185481 
L 132.591354 139.28114 
L 144.078405 132.558361 
L 146.82322 132.918029 
L 149.870653 135.931089 
L 151.504928 139.71345 
L 157.124961 145.45857 
L 154.313527 148.988631 
L 153.778455 153.45064 
L 156.699738 152.10162 
L 158.413388 153.701522 
L 157.686256 157.785437 
L 161.875059 161.738949 
L 159.14052 162.802007 
L 158.039546 167.457847 
L 161.200726 173.126073 
L 164.588338 184.104627 
L 159.494872 185.753785 
L 158.184476 187.660202 
L 159.243991 190.308634 
L 158.436066 196.290107 
L 152.382305 195.954181 
L 149.5854 201.476059 
L 145.708073 201.409086 
L 143.039797 198.488157 
L 143.945877 192.980099 
L 138.21245 184.579814 
L 127.924883 187.215135 
L 128.077964 182.186871 
L 125.877434 178.598696 
L 126.321438 174.611519 
L 119.531686 163.942314 
L 108.563053 163.927077 
L 105.366792 166.511017 
L 101.587266 166.822847 
L 97.664582 173.585668 
L 90.333025 179.615333 
L 78.984526 166.132568 
L 72.049844 161.630163 
L 70.492819 155.570732 
L 68.486119 152.549876 
z
" clip-path="url(#pa41e06dde9)" style="fill: #e8edf4; stroke: #b8c5d4; stroke-width: 0.45"/>
    <path d="M 43.280659 131.864892 
L 50.545598 129.630699 
L 55.086982 130.072222 
L 58.763745 128.527953 
L 84.107757 129.103776 
L 83.85723 133.752884 
L 82.355129 135.186594 
L 83.522367 139.731168 
L 81.360461 141.548997 
L 78.334998 141.570967 
L 74.758516 143.872842 
L 70.59629 143.618416 
L 64.498589 150.302925 
L 57.176954 144.569499 
L 51.402777 143.662711 
L 48.254353 139.796368 
L 48.334437 137.709231 
L 44.153075 134.798933 
z
" clip-path="url(#pa41e06dde9)" style="fill: #e8edf4; stroke: #b8c5d4; stroke-width: 0.45"/>
    <path d="M 115.12531 208.650283 
L 118.402718 204.262688 
L 119.130913 200.27374 
L 131.701574 186.429181 
L 138.21245 184.579814 
L 143.945877 192.980099 
L 143.039797 198.488157 
L 145.708073 201.409086 
L 149.5854 201.476059 
L 152.382305 195.954181 
L 156.26105 196.305699 
L 155.628176 200.294293 
L 156.999521 206.923877 
L 154.017643 213.016262 
L 158.015804 216.78126 
L 162.372216 217.69797 
L 168.180765 223.442027 
L 168.598193 228.845551 
L 167.286379 230.56239 
L 166.233243 241.857381 
L 162.640815 241.978216 
L 148.505687 235.441117 
L 136.044521 225.002596 
L 124.36045 217.498824 
z
" clip-path="url(#pa41e06dde9)" style="fill: #e8edf4; stroke: #b8c5d4; stroke-width: 0.45"/>
    <path d="M 90.333025 179.615333 
L 97.664582 173.585668 
L 101.587266 166.822847 
L 105.366792 166.511017 
L 108.563053 163.927077 
L 119.531686 163.942314 
L 126.321438 174.611519 
L 125.877434 178.598696 
L 128.077964 182.186871 
L 127.924883 187.215135 
L 131.701574 186.429181 
L 119.130913 200.27374 
L 118.402718 204.262688 
L 115.12531 208.650283 
L 111.430475 207.632937 
L 101.557501 202.108224 
L 94.413042 194.76143 
L 92.013366 189.751592 
z
" clip-path="url(#pa41e06dde9)" style="fill: #e8edf4; stroke: #b8c5d4; stroke-width: 0.45"/>
    <path d="M 196.975109 151.525442 
L 200.715302 145.712286 
L 200.398511 141.067077 
L 211.284579 129.700861 
L 213.297302 120.295632 
L 217.055213 116.948771 
L 223.687277 118.797783 
L 229.434878 116.005484 
L 231.30019 112.48251 
L 241.940693 106.334845 
L 244.557233 102.047886 
L 257.375586 96.359108 
L 264.925425 94.40698 
L 268.348472 97.038048 
L 277.141379 96.974973 
L 276.054579 103.621921 
L 277.89615 109.868804 
L 285.618912 118.824005 
L 286.044844 125.460677 
L 301.857478 128.571184 
L 301.547065 137.963656 
L 298.550659 142.064226 
L 291.847015 143.345565 
L 289.053299 149.341567 
L 284.336864 150.893631 
L 265.983522 149.508467 
L 261.555531 151.722108 
L 255.496809 150.722479 
L 231.674387 151.368818 
L 231.35228 159.149694 
L 233.222908 169.474823 
L 223.836814 165.938383 
L 217.410983 166.459281 
L 212.613756 169.90855 
L 206.447311 167.01278 
L 204.050469 162.477066 
L 197.883315 159.487038 
z
" clip-path="url(#pa41e06dde9)" style="fill: #e8edf4; stroke: #b8c5d4; stroke-width: 0.45"/>
    <path d="M 470.300441 226.947284 
L 471.358539 216.315995 
L 474.649766 213.826313 
L 481.546887 199.927892 
L 492.885464 198.89708 
L 495.413416 195.369499 
L 497.684816 195.63739 
L 501.110698 198.742937 
L 518.376178 193.496036 
L 531.351156 183.34773 
L 529.993276 178.520029 
L 533.860681 177.259242 
L 547.104258 178.111461 
L 560.011909 171.757917 
L 569.926697 156.794666 
L 576.884057 151.242669 
L 585.565698 148.904295 
L 587.120598 154.773084 
L 595.030458 163.347356 
L 595.070854 168.943294 
L 592.842685 174.650498 
L 593.723605 178.912652 
L 616.43336 194.398573 
L 616.559509 198.855975 
L 625.782601 205.997953 
L 631.49831 211.932298 
L 634.961044 220.159304 
L 645.212467 225.586924 
L 647.417958 229.934477 
L 642.89004 231.389449 
L 623.777674 229.630797 
L 618.680665 230.80583 
L 616.624002 234.140643 
L 612.183254 234.552047 
L 606.772997 231.650961 
L 591.504649 238.495637 
L 585.254576 237.118269 
L 583.370838 238.175303 
L 579.270268 246.457233 
L 559.006965 242.43037 
L 550.272171 237.371276 
L 538.986747 232.710476 
L 531.643142 237.126773 
L 526.303756 244.089803 
L 525.070609 253.654136 
L 516.250062 252.888735 
L 506.967439 250.584733 
L 498.79394 257.852507 
L 491.604833 270.615227 
L 489.546044 260.385774 
L 483.274002 255.97302 
L 478.211011 248.895534 
L 477.041647 243.971804 
L 470.560536 236.809982 
L 471.665408 232.723232 
z
" clip-path="url(#pa41e06dde9)" style="fill: #e8edf4; stroke: #b8c5d4; stroke-width: 0.45"/>
    <path d="M 424.14317 356.28105 
L 434.584526 348.711368 
L 429.413103 339.642775 
L 434.116072 336.194214 
L 443.369638 334.514583 
L 444.461044 328.436726 
L 451.789057 335.022725 
L 463.895871 335.599611 
L 468.103455 329.119209 
L 469.834822 320.001006 
L 468.339454 309.293177 
L 461.851256 301.182752 
L 467.78879 285.299248 
L 464.365743 282.573567 
L 454.161803 283.691196 
L 450.328416 276.604851 
L 451.325564 270.622669 
L 468.632858 271.160576 
L 490.618315 278.02049 
L 491.604833 270.615227 
L 498.79394 257.852507 
L 506.967439 250.584733 
L 516.250062 252.888735 
L 525.070609 253.654136 
L 524.257724 261.936776 
L 520.150068 269.270105 
L 517.469744 277.826304 
L 515.760347 289.979538 
L 516.478265 297.75191 
L 514.243008 302.510866 
L 513.901412 307.540548 
L 512.325252 311.915386 
L 503.295637 318.525481 
L 497.011546 325.589856 
L 491.055586 338.912808 
L 491.514828 350.196106 
L 471.989995 369.877563 
L 466.866764 367.448121 
L 465.987969 363.565833 
L 458.517506 363.43047 
L 453.827294 368.680559 
L 450.224236 367.283701 
L 445.084705 362.578606 
L 440.940905 364.885442 
L 435.405207 370.806675 
z
" clip-path="url(#pa41e06dde9)" style="fill: #e8edf4; stroke: #b8c5d4; stroke-width: 0.45"/>
    <path d="M 392.658226 316.95499 
L 393.098332 312.398723 
L 396.092612 308.013963 
L 402.188187 287.861218 
L 426.766797 287.209209 
L 426.648444 270.705587 
L 433.165698 269.804468 
L 441.500073 271.641433 
L 449.618293 269.874985 
L 451.325564 270.622669 
L 450.328416 276.604851 
L 454.161803 283.691196 
L 464.365743 282.573567 
L 467.78879 285.299248 
L 461.851256 301.182752 
L 468.339454 309.293177 
L 469.834822 320.001006 
L 468.103455 329.119209 
L 463.895871 335.599611 
L 451.789057 335.022725 
L 444.461044 328.436726 
L 443.369638 334.514583 
L 434.116072 336.194214 
L 429.413103 339.642775 
L 434.584526 348.711368 
L 424.14317 356.28105 
L 410.049855 342.438617 
L 400.986223 331.12201 
z
" clip-path="url(#pa41e06dde9)" style="fill: #e8edf4; stroke: #b8c5d4; stroke-width: 0.45"/>
    <path d="M 399.619839 285.793216 
L 404.331312 270.392694 
L 426.648444 270.705587 
L 426.766797 287.209209 
L 402.188187 287.861218 
z
" clip-path="url(#pa41e06dde9)" style="fill: #e8edf4; stroke: #b8c5d4; stroke-width: 0.45"/>
    <path d="M 431.635603 530.374521 
L 433.534225 518.315191 
L 438.266251 505.759767 
L 438.979917 499.873969 
L 443.429878 487.511313 
L 446.699136 481.891279 
L 458.976747 466.815699 
L 460.416836 456.656408 
L 459.698918 448.883327 
L 455.59764 443.980504 
L 448.576496 427.432233 
L 449.312841 424.581821 
L 453.52822 419.144633 
L 446.559521 396.714817 
L 439.689331 388.038137 
L 440.993349 385.372697 
L 455.436764 382.138165 
L 495.906675 382.319594 
L 503.225475 400.762942 
L 511.629303 412.368701 
L 520.697897 411.259577 
L 525.22298 409.330481 
L 532.801167 411.267373 
L 538.297177 399.845877 
L 546.803059 399.310096 
L 547.542238 396.933807 
L 554.539286 396.882072 
L 553.345118 401.823165 
L 569.98552 401.703394 
L 570.23711 410.332591 
L 573.016652 415.623785 
L 570.996133 423.890833 
L 572.002495 432.325135 
L 576.577188 437.414348 
L 575.843678 453.734415 
L 593.693131 450.75927 
L 599.938951 451.567903 
L 601.388254 455.825805 
L 599.828393 462.477005 
L 602.2387 468.909214 
L 600.195503 474.045911 
L 601.364158 478.780063 
L 572.807584 478.607139 
L 572.176128 522.244254 
L 581.428276 533.464477 
L 590.377807 542.031307 
L 565.172701 547.620158 
L 531.970564 545.679014 
L 522.468243 539.107898 
L 466.875977 539.699666 
L 464.802305 540.663506 
L 456.62668 534.462334 
L 447.735972 534.052702 
L 432.926156 538.997339 
z
" clip-path="url(#pa41e06dde9)" style="fill: #e8edf4; stroke: #b8c5d4; stroke-width: 0.45"/>
    <path d="M 435.405207 370.806675 
L 440.940905 364.885442 
L 445.084705 362.578606 
L 450.224236 367.283701 
L 445.233533 370.166006 
L 442.989772 373.691815 
L 442.560296 379.670453 
L 439.072049 381.119047 
z
" clip-path="url(#pa41e06dde9)" style="fill: #e8edf4; stroke: #b8c5d4; stroke-width: 0.45"/>
    <path d="M 41.03052 121.352312 
L 42.783148 115.269139 
L 57.719822 114.876516 
L 60.816864 111.629228 
L 65.164772 111.408112 
L 70.577863 114.783676 
L 74.833639 114.847814 
L 79.355533 112.538497 
L 82.126217 116.502286 
L 76.191518 119.580548 
L 70.232724 119.33888 
L 64.349761 116.440983 
L 53.513656 121.641818 
z
" clip-path="url(#pa41e06dde9)" style="fill: #e8edf4; stroke: #b8c5d4; stroke-width: 0.45"/>
    <path d="M 152.89966 -73.998777 
L 153.040693 -93.823392 
L 175.187735 -103.943704 
L 188.882757 -106.034739 
L 200.107941 -109.720361 
L 205.353424 -116.587716 
L 221.388237 -122.015336 
L 221.977171 -132.168604 
L 229.911128 -133.364544 
L 236.115134 -138.436748 
L 254.063098 -140.748191 
L 256.577584 -146.078009 
L 252.963896 -148.992206 
L 248.226909 -163.470347 
L 247.41048 -171.811455 
L 242.241184 -180.595149 
L 255.424875 -188.089354 
L 270.252054 -190.473085 
L 278.910307 -196.131743 
L 292.117741 -200.306017 
L 338.044682 -203.863364 
L 344.961647 -201.826544 
L 357.876384 -207.23184 
L 372.530994 -207.337792 
L 378.108505 -204.146846 
L 387.487512 -204.979575 
L 384.701591 -197.940713 
L 386.875899 -184.866871 
L 383.647746 -173.556288 
L 375.192891 -165.906876 
L 376.401943 -155.576433 
L 387.617914 -147.405769 
L 387.736267 -144.086193 
L 396.191122 -138.551204 
L 402.040776 -113.932197 
L 406.477272 -101.823612 
L 407.22283 -95.451288 
L 404.807562 -84.262956 
L 405.798332 -78.010403 
L 404.055626 -70.504505 
L 405.25192 -61.881687 
L 399.809063 -56.150741 
L 407.91807 -46.154806 
L 408.433299 -40.278221 
L 413.3099 -32.630582 
L 419.721557 -35.143297 
L 430.546323 -28.771327 
L 436.564649 -20.182881 
L 389.571105 5.956653 
L 349.863762 32.897733 
L 330.52461 39.013506 
L 315.311541 40.356148 
L 315.154208 31.630922 
L 300.265017 25.477942 
L 297.004264 19.051756 
z
" clip-path="url(#pa41e06dde9)" style="fill: #e8edf4; stroke: #b8c5d4; stroke-width: 0.45"/>
    <path d="M 38.576982 7.922602 
L 39.22403 1.566932 
L 44.491836 -2.170071 
L 48.979359 -9.316656 
L 48.094895 -13.957967 
L 52.809911 -23.63463 
L 60.443377 -32.353832 
L 65.060592 -34.563576 
L 68.690581 -42.562733 
L 69.015877 -49.868777 
L 73.966538 -58.34631 
L 83.102104 -63.344809 
L 91.795084 -77.350599 
L 98.941669 -82.809402 
L 111.694822 -84.324259 
L 122.501161 -93.697951 
L 129.377021 -97.352036 
L 140.825447 -108.803297 
L 137.398148 -125.866087 
L 142.60855 -137.665322 
L 144.44764 -144.88703 
L 153.268896 -154.151935 
L 177.199395 -166.086533 
L 190.674364 -188.708408 
L 200.769872 -188.642499 
L 209.037629 -182.821193 
L 222.079225 -183.769441 
L 236.283806 -180.741851 
L 242.241184 -180.595149 
L 247.41048 -171.811455 
L 248.226909 -163.470347 
L 252.963896 -148.992206 
L 256.577584 -146.078009 
L 254.063098 -140.748191 
L 236.115134 -138.436748 
L 229.911128 -133.364544 
L 221.977171 -132.168604 
L 221.388237 -122.015336 
L 205.353424 -116.587716 
L 200.107941 -109.720361 
L 188.882757 -106.034739 
L 175.187735 -103.943704 
L 153.040693 -93.823392 
L 153.157629 -77.573841 
L 151.069783 -77.573841 
L 151.384448 -70.226692 
L 142.906915 -69.784815 
L 138.486719 -66.664385 
L 132.259325 -66.664385 
L 127.29697 -68.445361 
L 115.759247 -66.972672 
L 111.292986 -56.284686 
L 107.006736 -55.280451 
L 100.558226 -37.990166 
L 81.493343 -23.190981 
L 76.966842 -4.253665 
L 71.34858 1.907111 
L 69.701195 6.848913 
z
" clip-path="url(#pa41e06dde9)" style="fill: #e8edf4; stroke: #b8c5d4; stroke-width: 0.45"/>
    <path d="M 399.809063 -56.150741 
L 405.25192 -61.881687 
L 404.055626 -70.504505 
L 405.798332 -78.010403 
L 404.807562 -84.262956 
L 407.22283 -95.451288 
L 406.477272 -101.823612 
L 402.040776 -113.932197 
L 408.731664 -117.110741 
L 409.918745 -122.905116 
L 408.460229 -128.586098 
L 417.877506 -133.870914 
L 422.099973 -138.264887 
L 428.78519 -142.2021 
L 429.560514 -152.735942 
L 445.668252 -148.015269 
L 451.427566 -149.195246 
L 462.884754 -146.90688 
L 481.082926 -140.77824 
L 487.505463 -128.588709 
L 519.146377 -120.186103 
L 533.75648 -113.367634 
L 540.443977 -116.925531 
L 547.017372 -123.23328 
L 543.821669 -133.738834 
L 548.123017 -140.4096 
L 558.004846 -146.836114 
L 567.446583 -148.706743 
L 585.998994 -145.900526 
L 590.676114 -139.769006 
L 595.782354 -139.710994 
L 600.148572 -137.371474 
L 613.775634 -135.762651 
L 617.117532 -131.234057 
L 612.153646 -124.65312 
L 614.275932 -118.787657 
L 610.743817 -110.32032 
L 614.857143 -99.272976 
L 614.857143 27.38688 
L 599.085714 27.428571 
L 598.91648 33.182126 
L 489.520229 -19.333303 
L 465.973086 -6.737677 
L 458.259537 -14.269798 
L 436.564649 -20.182881 
L 430.546323 -28.771327 
L 419.721557 -35.143297 
L 413.3099 -32.630582 
L 408.433299 -40.278221 
L 407.91807 -46.154806 
z
" clip-path="url(#pa41e06dde9)" style="fill: #e8edf4; stroke: #b8c5d4; stroke-width: 0.45"/>
   </g>
   <g id="PathCollection_1">
    <defs>
     <path id="mb7225e53ba" d="M 0 2.12132 
C 0.562581 2.12132 1.102195 1.897805 1.5 1.5 
C 1.897805 1.102195 2.12132 0.562581 2.12132 0 
C 2.12132 -0.562581 1.897805 -1.102195 1.5 -1.5 
C 1.102195 -1.897805 0.562581 -2.12132 0 -2.12132 
C -0.562581 -2.12132 -1.102195 -1.897805 -1.5 -1.5 
C -1.897805 -1.102195 -2.12132 -0.562581 -2.12132 0 
C -2.12132 0.562581 -1.897805 1.102195 -1.5 1.5 
C -1.102195 1.897805 -0.562581 2.12132 0 2.12132 
z
" style="stroke: #ffffff; stroke-width: 0.5"/>
    </defs>
    <g clip-path="url(#pa41e06dde9)">
     <use xlink:href="#mb7225e53ba" x="44.8" y="117.028572" style="fill: #8aa0b7; stroke: #ffffff; stroke-width: 0.5"/>
     <use xlink:href="#mb7225e53ba" x="409.142857" y="274.285714" style="fill: #8aa0b7; stroke: #ffffff; stroke-width: 0.5"/>
     <use xlink:href="#mb7225e53ba" x="66.285714" y="137.142857" style="fill: #8aa0b7; stroke: #ffffff; stroke-width: 0.5"/>
     <use xlink:href="#mb7225e53ba" x="368" y="288" style="fill: #8aa0b7; stroke: #ffffff; stroke-width: 0.5"/>
     <use xlink:href="#mb7225e53ba" x="288" y="192" style="fill: #8aa0b7; stroke: #ffffff; stroke-width: 0.5"/>
    </g>
   </g>
   <g id="PatchCollection_2">
    <defs>
     <path id="m03df752e63" d="M 271.317238 -229.123445 
L 272.326435 -233.399064 
L 284.336864 -233.106369 
L 282.592032 -225.88537 
L 291.543689 -217.033994 
L 292.064588 -210.303419 
L 294.827121 -207.477811 
L 294.202752 -175.982236 
L 297.580441 -166.52102 
L 286.538812 -163.595484 
L 279.822411 -177.111204 
L 278.733131 -183.932493 
L 281.764973 -196.285227 
L 278.324917 -201.287624 
L 277.041097 -222.050919 
z
" style="stroke: #b45309; stroke-width: 1.15"/>
    </defs>
    <g clip-path="url(#pa41e06dde9)">
     <use xlink:href="#m03df752e63" x="0" y="384" style="fill: #f59e0b; stroke: #b45309; stroke-width: 1.15"/>
    </g>
   </g>
   <g id="PathCollection_2">
    <defs>
     <path id="m6c50dd919a" d="M 0 3.316625 
C 0.879579 3.316625 1.723251 2.967164 2.345208 2.345208 
C 2.967164 1.723251 3.316625 0.879579 3.316625 0 
C 3.316625 -0.879579 2.967164 -1.723251 2.345208 -2.345208 
C 1.723251 -2.967164 0.879579 -3.316625 0 -3.316625 
C -0.879579 -3.316625 -1.723251 -2.967164 -2.345208 -2.345208 
C -2.967164 -1.723251 -3.316625 -0.879579 -3.316625 0 
C -3.316625 0.879579 -2.967164 1.723251 -2.345208 2.345208 
C -1.723251 2.967164 -0.879579 3.316625 0 3.316625 
z
" style="stroke: #ffffff"/>
    </defs>
    <g clip-path="url(#pa41e06dde9)">
     <use xlink:href="#m6c50dd919a" x="288" y="192" style="fill: #f97316; stroke: #ffffff"/>
    </g>
   </g>
   <g id="PathCollection_3">
    <path d="M 288 196.449719 
C 289.180079 196.449719 290.311984 195.980869 291.146427 195.146427 
C 291.980869 194.311984 292.449719 193.180079 292.449719 192 
C 292.449719 190.819921 291.980869 189.688016 291.146427 188.853573 
C 290.311984 188.019131 289.180079 187.550281 288 187.550281 
C 286.819921 187.550281 285.688016 188.019131 284.853573 188.853573 
C 284.019131 189.688016 283.550281 190.819921 283.550281 192 
C 283.550281 193.180079 284.019131 194.311984 284.853573 195.146427 
C 285.688016 195.980869 286.819921 196.449719 288 196.449719 
L 288 196.449719 
z
" clip-path="url(#pa41e06dde9)" style="fill: none; stroke: #7c2d12; stroke-width: 1.1"/>
   </g>
  </g>
 </g>
 <defs>
  <clipPath id="pa41e06dde9">
   <rect x="0" y="-0" width="576" height="384"/>
  </clipPath>
 </defs>
</svg>
