<?xml version="1.0" encoding="utf-8" standalone="no"?>
<!DOCTYPE svg PUBLIC "-//W3C//DTD SVG 1.1//EN"
  "http://www.w3.org/Graphics/SVG/1.1/DTD/svg11.dtd">
<svg xmlns:xlink="http://www.w3.org/1999/xlink" width="576pt" height="406.588235pt" viewBox="0 0 576 406.588235" xmlns="http://www.w3.org/2000/svg" version="1.1">
 <metadata>
  <rdf:RDF xmlns:dc="http://purl.org/dc/elements/1.1/" xmlns:cc="http://creativecommons.org/ns#" xmlns:rdf="http://www.w3.org/1999/02/22-rdf-syntax-ns#">
   <cc:Work>
    <dc:type rdf:resource="http://purl.org/dc/dcmitype/StillImage"/>
    <dc:date>2026-06-09T04:57:18.174294</dc:date>
    <dc:format>image/svg+xml</dc:format>
    <dc:creator>
     <cc:Agent>
      <dc:title>Matplotlib v3.10.8, https://matplotlib.org/</dc:title>
     </cc:Agent>
    </dc:creator>
   </cc:Work>
  </rdf:RDF>
 </metadata>
 <defs>
  <style type="text/css">*{stroke-linejoin: round; stroke-linecap: butt}</style>
 </defs>
 <g id="figure_1">
  <g id="patch_1">
   <path d="M 0 406.588235 
L 576 406.588235 
L 576 0 
L 0 0 
z
" style="fill: #eaf3ff"/>
  </g>
  <g id="axes_1">
   <g id="PatchCollection_1">
    <path d="M 419.941014 54.078579 
L 427.200325 48.701944 
L 422.176659 32.901402 
L 434.23114 23.138963 
L 431.680151 20.181967 
L 450.935153 10.818918 
L 433.185882 2.763896 
L 485.195143 -28.647972 
L 491.566738 -37.287882 
L 466.490074 -48.894725 
L 473.415835 -59.93427 
L 458.164454 -72.542201 
L 469.5696 -87.066014 
L 449.865973 -106.35026 
L 465.499929 -119.124091 
L 439.55481 -130.412266 
L 442.027983 -142.273868 
L 455.710024 -143.83488 
L 484.535944 -150.631511 
L 502.013139 -156.52433 
L 529.843256 -146.28288 
L 576.236499 -142.25088 
L 640.246701 -123.090071 
L 653.249562 -115.038438 
L 654.369035 -103.763238 
L 635.562296 -94.862344 
L 607.899388 -90.344979 
L 532.269911 -103.221628 
L 519.830513 -101.068744 
L 547.450221 -88.661365 
L 549.638005 -63.490504 
L 584.686249 -53.926532 
L 586.875727 -62.14097 
L 576.670515 -69.42144 
L 587.452913 -75.83808 
L 628.406682 -65.293384 
L 642.673694 -69.42144 
L 631.272282 -81.82848 
L 670.753525 -98.420838 
L 686.389384 -97.444179 
L 702.207529 -91.523238 
L 712.075934 -103.166231 
L 697.949195 -113.265035 
L 706.242918 -123.396875 
L 693.788951 -133.905148 
L 741.176471 -128.470588 
L 750.855642 -118.983021 
L 729.405233 -116.891633 
L 729.52128 -107.464377 
L 742.856188 -101.664057 
L 769.030475 -105.338259 
L 773.174287 -116.14385 
L 867.68352 -138.76032 
L 880.461911 -137.926306 
L 863.759774 -127.645722 
L 884.774626 -125.878927 
L 896.911285 -131.666711 
L 928.664809 -132.134626 
L 953.822118 -139.157421 
L 973.125233 -128.952395 
L 992.377525 -140.17169 
L 974.625882 -149.985882 
L 983.435294 -155.576471 
L 1033.479529 -150.449901 
L 1056.928066 -145.154852 
L 1118.323652 -125.799473 
L 1129.649167 -134.664791 
L 1112.432866 -143.622099 
L 1111.937845 -147.215831 
L 1091.521355 -148.878099 
L 1097.106522 -156.91025 
L 1088.045704 -170.127078 
L 1087.533064 -175.54961 
L 1118.796311 -190.890353 
L 1129.914805 -206.287511 
L 1142.512941 -209.618824 
L 1187.365384 -205.151266 
L 1190.897449 -195.728075 
L 1174.838569 -181.987426 
L 1185.375981 -176.586748 
L 1190.827144 -164.744019 
L 1186.978447 -141.529694 
L 1205.667445 -131.1456 
L 1198.3968 -119.837365 
L 1165.214118 -95.774118 
L 1184.578052 -93.278174 
L 1191.316574 -99.376998 
L 1209.955595 -103.727322 
L 1214.453816 -112.110325 
L 1229.116235 -120.177374 
L 1219.243934 -129.808772 
L 1227.148348 -140.993167 
L 1208.623511 -142.387087 
L 1204.549327 -151.809261 
L 1218.0672 -168.820235 
L 1196.065694 -182.63441 
L 1226.385656 -194.053101 
L 1222.462758 -206.099633 
L 1230.912169 -206.484198 
L 1239.814758 -197.09184 
L 1233.130955 -180.743605 
L 1251.260216 -177.648621 
L 1243.535379 -189.865581 
L 1271.886776 -196.526174 
L 1307.045986 -197.42304 
L 1338.352941 -187.764706 
L 1323.287322 -201.874165 
L 1321.599642 -219.922447 
L 1351.058824 -223.341177 
L 1391.806758 -222.59424 
L 1428.518965 -224.813026 
L 1414.750193 -233.669704 
L 1434.355539 -244.795991 
L 1453.819087 -245.261873 
L 1486.757647 -253.665882 
L 1531.492179 -255.92465 
L 1537.144264 -260.56433 
L 1581.628235 -262.136471 
L 1595.489675 -258.332838 
L 1633.511266 -267.335548 
L 1664.634409 -267.054155 
L 1669.304245 -274.366137 
L 1685.491878 -281.577148 
L 1725.485929 -288.529468 
L 1754.540725 -283.040019 
L 1731.472941 -278.864188 
L 1769.846908 -276.268631 
L 1774.418824 -267.896471 
L 1789.899671 -272.019106 
L 1839.426522 -271.792941 
L 1877.616169 -263.529713 
L 1891.214174 -257.183548 
L 1886.999548 -248.376678 
L 1823.738824 -233.95872 
L 1811.011765 -228.931765 
L 1857.078042 -222.286419 
L 1872.331031 -225.49152 
L 1880.971708 -214.617318 
L 1888.412781 -219.019144 
L 1915.501892 -221.695341 
L 1969.857826 -218.897845 
L 1973.985882 -210.974118 
L 2044.811181 -208.45361 
L 2045.778692 -221.39345 
L 2081.731765 -218.428235 
L 2108.777336 -218.521242 
L 2136.134287 -209.59697 
L 2143.93248 -198.754786 
L 2133.910588 -191.661177 
L 2155.188536 -178.329148 
L 2181.830061 -171.450184 
L 2198.176941 -189.22673 
L 2225.353299 -181.605233 
L 2254.225638 -186.15953 
L 2287.017318 -180.948085 
L 2299.495172 -185.698391 
L 2327.206532 -183.323238 
L 2314.976358 -199.050748 
L 2337.343115 -206.390005 
L 2490.352941 -195.388235 
L 2504.772932 -185.332461 
L 2549.120188 -172.385845 
L 2617.52832 -175.590946 
L 2651.256678 -172.800904 
L 2665.360546 -165.796066 
L 2663.299652 -153.407661 
L 2684.168979 -148.584508 
L 2706.845421 -152.053384 
L 2736.889073 -152.497073 
L 2768.872151 -149.172537 
L 2800.980762 -151.047925 
L 2830.491614 -135.989082 
L 2851.485967 -141.407379 
L 2837.785976 -152.234993 
L 2845.329035 -159.76145 
L 2899.379181 -155.024697 
L 2934.618861 -156.038118 
L 2983.341176 -147.952941 
L 3007.058824 -140.560428 
L 3007.058824 -73.068006 
L 2985.157271 -65.532932 
L 2963.202861 -66.774381 
L 2978.479059 -57.756932 
L 2988.563294 -43.79808 
L 2996.391642 -39.234974 
L 2998.357158 -32.226748 
L 2993.984471 -27.740047 
L 2962.406965 -31.429835 
L 2915.056207 -18.677365 
L 2899.992791 -16.70304 
L 2849.480471 5.598833 
L 2843.252047 13.297073 
L 2819.019558 1.577506 
L 2774.879661 14.876329 
L 2767.171765 8.583529 
L 2750.853007 15.841129 
L 2728.195031 13.518325 
L 2722.736922 24.660536 
L 2702.411238 41.055021 
L 2703.015021 47.901967 
L 2722.310005 51.698315 
L 2720.040395 76.36111 
L 2704.312885 76.988781 
L 2697.060028 91.160245 
L 2704.108066 98.454099 
L 2674.482692 107.107821 
L 2668.603426 126.450579 
L 2643.347689 130.582362 
L 2638.269402 147.794428 
L 2613.85056 163.577506 
L 2607.585882 151.905882 
L 2590.876122 89.544903 
L 2599.020762 66.049355 
L 2613.314541 55.9392 
L 2614.198871 48.02191 
L 2640.52512 44.232 
L 2670.787313 22.90272 
L 2699.949854 5.483294 
L 2730.40416 -8.034071 
L 2744.022494 -31.916217 
L 2723.436762 -30.487398 
L 2713.263416 -16.531765 
L 2670.293308 2.074221 
L 2656.415774 -18.758852 
L 2612.679755 -13.006645 
L 2570.282428 15.390833 
L 2584.270588 25.77967 
L 2520.266485 31.947275 
L 2521.493365 19.697619 
L 2495.159322 17.126456 
L 2474.170899 25.448809 
L 2422.371727 22.53679 
L 2366.645421 27.557986 
L 2246.843689 100.581063 
L 2273.534852 102.716329 
L 2281.864998 113.325402 
L 2298.319624 117.091595 
L 2309.160791 108.6288 
L 2327.743228 109.727774 
L 2352.202899 128.364932 
L 2352.777544 142.778485 
L 2339.532762 159.704414 
L 2338.103944 179.93455 
L 2330.460932 207.020442 
L 2304.927021 231.535341 
L 2299.251558 243.253553 
L 2242.493195 292.547972 
L 2219.918739 302.488038 
L 2209.235633 302.707934 
L 2198.593186 294.473336 
L 2175.854739 306.871228 
L 2173.214118 312.508235 
L 2170.842353 309.543529 
L 2170.738443 300.937164 
L 2179.39236 300.480174 
L 2181.82964 280.463666 
L 2177.367925 265.95456 
L 2191.90793 259.970909 
L 2212.468856 262.97071 
L 2223.862204 246.489707 
L 2229.668047 227.92975 
L 2236.249016 221.729788 
L 2245.15163 206.486458 
L 2217.152682 211.480517 
L 2202.466278 218.163501 
L 2176.725346 218.14368 
L 2169.864734 202.226472 
L 2149.798325 190.182775 
L 2120.3136 184.76719 
L 2114.046308 168.172846 
L 2091.326382 133.392589 
L 2076.449697 127.154064 
L 2051.093139 122.109741 
L 2028.633847 122.568407 
L 2007.581671 125.623323 
L 1993.588325 134.05181 
L 2002.883955 138.078048 
L 2003.094212 147.431548 
L 1993.672885 152.862212 
L 1978.380254 170.830532 
L 1978.533923 178.28528 
L 1954.660141 188.990399 
L 1934.323215 182.594291 
L 1914.110605 184.006408 
L 1905.240449 178.329928 
L 1895.081616 176.499342 
L 1870.26759 188.438422 
L 1847.964382 191.243832 
L 1832.391708 195.442536 
L 1811.053257 192.683963 
L 1795.34401 192.860368 
L 1785.060862 184.20076 
L 1768.469153 176.058986 
L 1751.49049 173.827439 
L 1714.049711 179.18175 
L 1689.982136 172.056395 
L 1686.751793 159.361525 
L 1651.455228 153.023894 
L 1632.477016 146.021093 
L 1614.93018 163.578434 
L 1621.808666 173.549919 
L 1605.341816 185.346918 
L 1580.84928 181.087736 
L 1563.940789 180.478306 
L 1552.617595 172.565027 
L 1534.941911 172.315087 
L 1520.211584 167.116166 
L 1494.443307 175.084599 
L 1462.117838 189.675884 
L 1437.627733 194.005031 
L 1428.638514 183.642217 
L 1406.816809 185.909219 
L 1399.604773 178.718632 
L 1387.759805 175.430406 
L 1379.60665 165.641017 
L 1370.25324 162.592667 
L 1345.908461 166.946327 
L 1322.571336 157.185829 
L 1313.543597 166.055985 
L 1275.686099 123.031087 
L 1254.073629 109.942529 
L 1260.272758 104.631116 
L 1217.813421 120.61807 
L 1201.56444 121.58439 
L 1202.967802 112.337786 
L 1181.20913 106.560191 
L 1163.52222 110.683168 
L 1158.188045 93.124513 
L 1127.743064 89.473409 
L 1112.511818 96.501598 
L 1070.121092 102.755294 
L 1061.848098 106.940141 
L 998.455341 112.835294 
L 990.687243 118.616582 
L 1002.917413 130.221237 
L 986.654001 134.626111 
L 989.826666 139.241534 
L 973.567632 147.494054 
L 1001.020292 159.145545 
L 996.775189 167.168694 
L 972.979323 166.438123 
L 968.057489 171.46545 
L 946.390362 162.686569 
L 919.532838 163.026918 
L 901.557572 170.173383 
L 844.1572 151.589891 
L 817.693808 152.028496 
L 782.7227 170.454294 
L 780.612843 182.827601 
L 763.191198 173.002757 
L 749.674102 191.615902 
L 754.6222 195.071341 
L 744.843316 207.910831 
L 759.222889 219.40207 
L 771.793412 218.929073 
L 782.593132 230.248182 
L 780.873882 238.96591 
L 789.478475 241.705468 
L 781.757534 251.752263 
L 765.333064 254.544169 
L 748.495228 272.032376 
L 763.893572 288.11023 
L 762.226221 299.521468 
L 780.723445 319.473092 
L 770.608091 326.301416 
L 767.70069 330.611303 
L 760.206756 329.453946 
L 748.564019 319.163794 
L 733.153129 314.669252 
L 727.967082 307.717598 
L 712.166788 304.1733 
L 701.89344 306.833619 
L 698.925007 303.684762 
L 675.858071 295.561976 
L 636.597995 289.923882 
L 634.53191 291.924745 
L 612.931765 277.609412 
L 593.603915 271.21903 
L 578.972499 261.266428 
L 591.300762 258.558889 
L 605.358212 244.389967 
L 595.884198 237.686343 
L 620.854645 230.771294 
L 620.406212 227.067783 
L 605.198762 229.798195 
L 605.733668 222.272745 
L 614.466127 217.542438 
L 630.860233 216.30036 
L 633.525798 210.650936 
L 629.782306 201.309402 
L 636.662779 192.438834 
L 636.463736 187.464565 
L 611.491565 181.951704 
L 601.591869 182.134675 
L 591.136255 174.201261 
L 578.137432 176.884107 
L 556.621262 170.92748 
L 556.990475 167.594428 
L 550.964042 160.248186 
L 537.455701 159.427881 
L 536.05234 154.168995 
L 540.283436 150.738945 
L 529.457503 141.146972 
L 511.890531 142.783644 
L 506.745456 141.932697 
L 502.465807 145.785882 
L 496.138786 145.10095 
L 491.972075 134.25229 
L 487.993987 128.628776 
L 491.254136 127.045892 
L 504.923624 127.633816 
L 511.515835 123.928871 
L 506.636023 119.411937 
L 495.212151 116.43056 
L 496.231186 113.370829 
L 489.336942 110.280456 
L 478.715867 99.188822 
L 482.346398 94.618485 
L 480.687402 86.66581 
L 464.125458 82.625564 
L 455.236041 84.647876 
L 452.829403 80.442168 
L 434.993666 76.193563 
L 429.548307 66.194939 
L 428.103799 57.979627 
z
" clip-path="url(#p11b69c5567)" style="fill: #e8edf4; stroke: #b8c5d4; stroke-width: 0.45"/>
    <path d="M 829.368061 -192.252103 
L 846.69078 -195.887011 
L 846.112976 -205.124861 
L 879.714865 -219.57257 
L 864.140439 -221.643907 
L 904.700481 -236.512712 
L 900.11745 -244.202749 
L 938.009966 -253.147319 
L 993.939575 -264.031908 
L 1050.325299 -267.202822 
L 1079.338905 -273.483369 
L 1112.307836 -275.684275 
L 1124.084518 -268.99445 
L 1112.70617 -263.722871 
L 1000.944127 -247.24322 
L 948.317627 -231.11813 
L 896.515809 -198.28971 
L 899.963369 -184.217135 
L 932.36938 -170.323155 
L 922.362002 -168.837062 
L 867.004943 -171.037967 
L 862.509458 -178.559916 
L 831.843861 -183.1018 
z
" clip-path="url(#p11b69c5567)" style="fill: #e8edf4; stroke: #b8c5d4; stroke-width: 0.45"/>
    <path d="M -3091.764706 -73.068006 
L -3091.764706 -140.560428 
L -3050.258824 -127.62353 
L -3005.843294 -110.782137 
L -3007.300235 -100.252518 
L -2995.874767 -96.037722 
L -2999.804951 -108.34769 
L -2953.817958 -105.821591 
L -2920.651708 -89.96736 
L -2937.448715 -82.583548 
L -2965.218353 -80.830475 
L -2965.637647 -64.276913 
L -2972.419708 -60.751454 
L -2988.285289 -61.258165 
L -3001.195821 -67.164706 
L -3023.720979 -72.105261 
L -3027.509534 -79.454174 
L -3044.713299 -82.225242 
L -3063.979991 -80.027633 
L -3073.185656 -85.95569 
L -3069.505864 -92.252217 
L -3089.795633 -88.22784 
L -3082.153638 -80.257864 
z
" clip-path="url(#p11b69c5567)" style="fill: #e8edf4; stroke: #b8c5d4; stroke-width: 0.45"/>
    <path d="M 2356.417287 147.917338 
L 2357.916074 124.766686 
L 2373.576294 116.970718 
L 2366.847512 109.121348 
L 2374.38697 106.742724 
L 2384.65436 134.274177 
L 2384.221007 150.945991 
L 2391.213303 168.040652 
L 2408.2585 198.047028 
L 2383.181837 192.453717 
L 2372.758615 216.933317 
L 2389.273284 234.295431 
L 2388.795283 246.134271 
L 2375.961046 235.92116 
L 2364.853215 249.033793 
L 2361.717319 234.817205 
L 2363.606561 218.313041 
L 2361.675297 200.03257 
L 2365.594729 187.225473 
L 2366.343247 164.572081 
z
" clip-path="url(#p11b69c5567)" style="fill: #e8edf4; stroke: #b8c5d4; stroke-width: 0.45"/>
    <path d="M 507.458955 259.864103 
L 510.451276 256.616148 
L 526.67004 250.985192 
L 524.092034 248.946341 
L 528.555589 244.750766 
L 546.048295 249.052251 
L 548.246831 252.39785 
L 550.802693 252.913832 
L 550.940405 254.379349 
L 559.228381 258.465994 
L 576.508201 257.449586 
L 573.19984 263.493758 
L 554.654104 266.428299 
L 531.656657 276.229069 
L 522.235837 272.78326 
L 525.971423 264.822706 
z
" clip-path="url(#p11b69c5567)" style="fill: #e8edf4; stroke: #b8c5d4; stroke-width: 0.45"/>
    <path d="M 717.407289 -337.521485 
L 750.479525 -340.606605 
L 776.218911 -340.811462 
L 779.680479 -336.246816 
L 789.411212 -340.30282 
L 805.379594 -343.096412 
L 830.506159 -339.383588 
L 823.954219 -336.800982 
L 785.975908 -333.282072 
L 783.613043 -330.50205 
L 763.811899 -327.701893 
L 745.45964 -331.718064 
L 755.109831 -337.006715 
z
" clip-path="url(#p11b69c5567)" style="fill: #e8edf4; stroke: #b8c5d4; stroke-width: 0.45"/>
    <path d="M 1502.361656 -333.314146 
L 1546.350946 -344.887341 
L 1582.998692 -348.712659 
L 1615.914635 -340.184047 
L 1654.926861 -323.80464 
L 1650.744169 -308.571219 
L 1613.781572 -306.457977 
L 1566.594466 -311.346268 
L 1538.477026 -317.813647 
L 1525.475012 -329.965384 
z
" clip-path="url(#p11b69c5567)" style="fill: #e8edf4; stroke: #b8c5d4; stroke-width: 0.45"/>
    <path d="M 2278.154372 -247.256527 
L 2287.258052 -258.903586 
L 2309.6088 -262.081581 
L 2354.342654 -261.338372 
L 2415.579416 -252.355059 
L 2402.258824 -239.774118 
L 2339.810428 -240.24305 
L 2311.715689 -236.241544 
z
" clip-path="url(#p11b69c5567)" style="fill: #e8edf4; stroke: #b8c5d4; stroke-width: 0.45"/>
    <path d="M 290.721432 105.722814 
L 294.581333 98.2674 
L 317.959605 92.773016 
L 335.701669 95.740824 
L 343.19035 98.429798 
L 341.382526 103.068858 
L 342.738613 107.392315 
L 311.58626 107.646636 
z
" clip-path="url(#p11b69c5567)" style="fill: #e8edf4; stroke: #b8c5d4; stroke-width: 0.45"/>
    <path d="M 2327.092856 -215.206532 
L 2343.163087 -221.902193 
L 2364.345656 -223.469591 
L 2388.415002 -216.992471 
L 2390.465224 -212.54016 
L 2364.778673 -212.421572 
z
" clip-path="url(#p11b69c5567)" style="fill: #e8edf4; stroke: #b8c5d4; stroke-width: 0.45"/>
    <path d="M 1642.246136 -292.308706 
L 1673.1936 -314.552301 
L 1687.109929 -316.456828 
L 1699.840631 -315.353619 
L 1742.779991 -305.731878 
L 1737.749139 -298.846137 
z
" clip-path="url(#p11b69c5567)" style="fill: #e8edf4; stroke: #b8c5d4; stroke-width: 0.45"/>
    <path d="M -3091.764706 -172.216081 
L -3091.764706 -183.795631 
L -3075.235708 -184.470155 
L -3050.732245 -179.624132 
L -3052.182918 -177.308104 
L -3069.635802 -173.246457 
z
" clip-path="url(#p11b69c5567)" style="fill: #e8edf4; stroke: #b8c5d4; stroke-width: 0.45"/>
    <path d="M 2433.078042 -245.754014 
L 2437.131981 -251.240245 
L 2511.21888 -244.247605 
L 2491.6392 -237.553468 
L 2464.559407 -239.068602 
z
" clip-path="url(#p11b69c5567)" style="fill: #e8edf4; stroke: #b8c5d4; stroke-width: 0.45"/>
    <path d="M 2985.463906 -176.732612 
L 3007.058824 -183.795631 
L 3007.058824 -172.216081 
L 2988.481553 -171.351078 
z
" clip-path="url(#p11b69c5567)" style="fill: #e8edf4; stroke: #b8c5d4; stroke-width: 0.45"/>
    <path d="M 42.218734 -22.096908 
L 57.818548 -32.99813 
L 102.551905 -47.220846 
L 135.998838 -64.704649 
L 207.718236 -121.02734 
L 282.647069 -155.024936 
L 319.822583 -162.440517 
L 347.69634 -161.540982 
L 373.494382 -175.575474 
L 404.386724 -174.826081 
L 434.804566 -178.200977 
L 487.794382 -165.805345 
L 465.974428 -161.273091 
L 484.535303 -150.63136 
L 455.710024 -143.83488 
L 442.027983 -142.273868 
L 449.205001 -154.161733 
L 427.464713 -160.89927 
L 401.160655 -155.158006 
L 392.852544 -142.736986 
L 376.698564 -135.23955 
L 358.510017 -139.334075 
L 336.388029 -138.495385 
L 317.561271 -147.452211 
L 307.407691 -142.976424 
L 296.898675 -142.279996 
L 294.413245 -131.133645 
L 262.484359 -133.84757 
L 258.000256 -124.414055 
L 241.731591 -124.471398 
L 213.601324 -93.637274 
L 187.296391 -69.803763 
L 193.46663 -64.016538 
L 187.571285 -57.302639 
L 170.765963 -57.592416 
L 159.764939 -41.703263 
L 160.806735 -19.206141 
L 171.633544 -10.620509 
L 166.029727 9.296196 
L 151.933077 20.910043 
L 144.463656 30.672292 
L 133.099316 20.27621 
L 99.648006 39.868995 
L 77.061149 43.84008 
L 53.632976 35.212426 
L 47.574796 16.999365 
z
" clip-path="url(#p11b69c5567)" style="fill: #e8edf4; stroke: #b8c5d4; stroke-width: 0.45"/>
    <path d="M 134.589685 -321.64049 
L 180.775398 -327.706617 
L 190.054927 -321.776019 
L 214.184245 -322.01184 
L 220.617318 -327.801826 
L 245.492047 -328.39104 
L 322.624885 -309.844687 
L 279.993092 -303.178165 
L 270.579727 -290.710984 
L 255.717064 -287.513675 
L 247.649506 -273.477064 
L 227.234541 -272.817035 
L 190.801525 -283.149459 
L 206.166664 -289.168659 
L 180.772518 -294.069402 
L 147.766193 -308.374024 
z
" clip-path="url(#p11b69c5567)" style="fill: #e8edf4; stroke: #b8c5d4; stroke-width: 0.45"/>
    <path d="M 251.881669 -332.931888 
L 304.19563 -337.662872 
L 328.793417 -333.588921 
L 345.926161 -338.662209 
L 388.759771 -334.430237 
L 421.96245 -328.484992 
L 396.841138 -319.360952 
L 347.708597 -317.364904 
L 297.744369 -320.190888 
L 294.730161 -324.858838 
L 270.419525 -325.155619 
z
" clip-path="url(#p11b69c5567)" style="fill: #e8edf4; stroke: #b8c5d4; stroke-width: 0.45"/>
    <path d="M 308.770052 -288.175737 
L 320.461158 -292.54656 
L 310.225129 -297.960791 
L 345.333346 -301.354278 
L 352.060348 -294.99456 
L 376.502739 -291.171106 
L 338.659539 -284.24352 
z
" clip-path="url(#p11b69c5567)" style="fill: #e8edf4; stroke: #b8c5d4; stroke-width: 0.45"/>
    <path d="M -120.15275 202.997752 
L -98.187907 199.312505 
L -69.738536 203.67098 
L -75.108605 184.494914 
L -59.115709 191.762104 
L -19.672754 178.551419 
L -14.586334 164.669257 
L 0.229943 161.248837 
L 2.683856 167.206339 
L 10.558615 167.48561 
L 30.257331 182.272998 
L 38.951519 180.95368 
L 57.562039 190.147757 
L 62.450605 189.789694 
L 70.445302 194.225647 
L 94.858367 197.345785 
L 86.292871 208.9465 
L 84.142742 221.016023 
L 79.491425 223.909854 
L 71.772498 222.350661 
L 72.317034 226.655296 
L 59.92753 236.175043 
L 59.677149 243.84582 
L 67.766395 241.191426 
L 73.585575 248.620576 
L 72.886958 253.407589 
L 77.8727 259.768678 
L 71.999242 264.928637 
L 76.363408 278.036893 
L 85.546104 280.186146 
L 83.607836 287.539568 
L 68.260155 297.11053 
L 34.847365 292.52356 
L 10.171662 298.020132 
L 8.233394 308.221863 
L -11.404914 310.417953 
L -30.467171 302.754618 
L -36.626029 306.417103 
L -67.811649 298.717874 
L -74.564069 292.131354 
L -65.803345 281.969895 
L -62.577277 248.217865 
L -80.059328 230.439032 
L -92.554325 221.867407 
L -118.445166 215.351362 
z
" clip-path="url(#p11b69c5567)" style="fill: #e8edf4; stroke: #b8c5d4; stroke-width: 0.45"/>
    <path d="M -966.066424 988.599266 
L -961.745593 981.474776 
L -957.293882 966.437007 
L -963.945186 956.398113 
L -965.285076 944.807904 
L -956.465697 930.242007 
L -938.238629 936.115466 
L -920.301338 950.415222 
L -917.496803 957.353239 
L -927.518189 972.856752 
L -932.720607 985.332051 
L -939.213015 991.767117 
L -947.324586 992.977877 
L -949.634924 988.208811 
L -953.42435 987.500564 
L -958.668353 992.094101 
z
" clip-path="url(#p11b69c5567)" style="fill: #e8edf4; stroke: #b8c5d4; stroke-width: 0.45"/>
    <path d="M 102.396074 311.889601 
L 105.814743 305.594171 
L 116.72472 299.124962 
L 119.604982 313.651901 
L 114.00992 326.738708 
L 106.318132 323.289397 
z
" clip-path="url(#p11b69c5567)" style="fill: #e8edf4; stroke: #b8c5d4; stroke-width: 0.45"/>
    <path d="M 85.12063 450.115035 
L 95.564863 440.665762 
L 99.552581 426.693865 
L 96.866671 410.543825 
L 100.308103 401.848761 
L 118.757537 395.011859 
L 130.616513 397.044676 
L 130.119251 405.616301 
L 144.489045 399.38084 
L 145.694553 402.635361 
L 137.223606 410.936469 
L 137.109796 418.772707 
L 142.975375 422.981917 
L 140.744704 437.644113 
L 129.5931 446.161022 
L 132.813041 455.394494 
L 141.57464 455.68252 
L 145.838128 463.73631 
L 152.280635 466.385013 
L 151.322882 479.397406 
L 143.064672 484.261022 
L 137.848684 489.688871 
L 126.215577 496.217173 
L 128.017273 503.234857 
L 126.550878 510.392614 
L 118.285665 514.31905 
L 111.059621 483.907336 
L 100.615389 477.069997 
L 100.469187 472.969344 
L 86.614164 462.876171 
z
" clip-path="url(#p11b69c5567)" style="fill: #e8edf4; stroke: #b8c5d4; stroke-width: 0.45"/>
    <path d="M -189.476891 563.64857 
L -189.302674 539.15934 
L -161.944563 526.657777 
L -145.027182 524.074734 
L -131.160778 519.521906 
L -124.681064 511.038703 
L -104.873354 504.333996 
L -104.145847 491.791725 
L -94.345078 490.314387 
L -86.681305 484.048723 
L -64.510291 481.193411 
L -61.404161 474.609518 
L -65.868129 471.009628 
L -71.719701 453.124865 
L -72.72823 442.821144 
L -79.113832 431.970698 
L -62.828096 422.713151 
L -44.512169 419.768542 
L -33.816679 412.778436 
L -17.501615 407.621979 
L 39.231666 403.227609 
L 47.776152 405.74368 
L 63.729651 399.06655 
L 81.832404 398.935669 
L 88.722271 402.877426 
L 100.308103 401.848761 
L 96.866671 410.543825 
L 99.552581 426.693865 
L 95.564863 440.665762 
L 85.12063 450.115035 
L 86.614164 462.876171 
L 100.469187 472.969344 
L 100.615389 477.069997 
L 111.059621 483.907336 
L 118.285665 514.31905 
L 123.766041 529.276715 
L 124.687025 537.148409 
L 121.703459 550.969289 
L 122.927351 558.693031 
L 120.774596 567.965023 
L 122.252372 578.61674 
L 115.528842 585.696144 
L 125.545851 598.044063 
L 126.18231 605.303374 
L 132.206347 614.750458 
L 140.12663 611.646516 
L 153.498399 619.517773 
L 160.932802 630.127029 
L 102.881954 662.417042 
L 53.831706 695.697199 
L 29.942165 703.251978 
L 11.14955 704.910536 
L 10.955198 694.132315 
L -7.437332 686.531575 
L -11.465321 678.593346 
z
" clip-path="url(#p11b69c5567)" style="fill: #e8edf4; stroke: #b8c5d4; stroke-width: 0.45"/>
    <path d="M 144.463656 30.672292 
L 151.933077 20.910043 
L 166.029727 9.296196 
L 171.633544 -10.620509 
L 160.806735 -19.206141 
L 159.764939 -41.703263 
L 170.765963 -57.592416 
L 187.571285 -57.302639 
L 193.46663 -64.016538 
L 187.296391 -69.803763 
L 213.601324 -93.637274 
L 241.731591 -124.471398 
L 258.000256 -124.414055 
L 262.484359 -133.84757 
L 294.413245 -131.133645 
L 296.898675 -142.279996 
L 307.407691 -142.976424 
L 356.433427 -123.151205 
L 356.880786 -97.06251 
L 362.598413 -90.4703 
L 333.456115 -85.672781 
L 317.028992 -73.852326 
L 319.673755 -63.477255 
L 260.009435 -35.283955 
L 247.672459 -11.426807 
L 259.731039 0.509646 
L 275.933169 9.906392 
L 260.372751 29.018549 
L 242.753252 32.981755 
L 236.290609 61.421058 
L 226.669309 77.291827 
L 206.117896 75.655593 
L 196.529863 89.091709 
L 176.915191 89.871743 
L 171.531115 73.856524 
L 157.34867 54.632745 
z
" clip-path="url(#p11b69c5567)" style="fill: #e8edf4; stroke: #b8c5d4; stroke-width: 0.45"/>
    <path d="M 350.673778 138.573558 
L 360.833486 135.115493 
L 360.930662 128.362198 
L 356.231195 121.91794 
L 355.495809 114.423569 
L 371.870405 114.538692 
L 390.262935 108.156592 
L 394.194624 98.592634 
L 408.08379 93.167848 
L 406.492204 85.579365 
L 434.993666 76.193563 
L 452.829403 80.442168 
L 455.236041 84.647876 
L 464.125458 82.625564 
L 480.687402 86.66581 
L 482.346398 94.618485 
L 478.715867 99.188822 
L 489.336942 110.280456 
L 496.231186 113.370829 
L 495.212151 116.43056 
L 506.636023 119.411937 
L 511.515835 123.928871 
L 504.923624 127.633816 
L 491.254136 127.045892 
L 487.993987 128.628776 
L 491.972075 134.25229 
L 496.139166 145.100992 
L 481.596129 146.106013 
L 476.376639 149.825402 
L 475.286692 158.351941 
L 468.54828 156.714831 
L 453.260129 157.526382 
L 448.819798 153.565366 
L 442.463087 156.518729 
L 436.093243 154.070506 
L 422.751239 153.73039 
L 403.843064 149.664756 
L 386.72958 148.337121 
L 373.605566 148.713131 
L 364.321317 153.304479 
L 356.223316 153.965013 
L 355.900272 146.422929 
z
" clip-path="url(#p11b69c5567)" style="fill: #e8edf4; stroke: #b8c5d4; stroke-width: 0.45"/>
    <path d="M 331.803247 207.434581 
L 335.110734 200.605121 
L 339.80845 196.194556 
L 343.506391 197.18295 
L 339.136097 189.569953 
L 354.519672 175.479432 
L 362.92671 173.507897 
L 364.743289 168.755465 
L 356.223316 153.965013 
L 364.321317 153.304479 
L 373.605566 148.713131 
L 386.72958 148.337121 
L 403.843064 149.664756 
L 422.751239 153.73039 
L 436.093243 154.070506 
L 442.463087 156.518729 
L 448.819798 153.565366 
L 453.260129 157.526382 
L 468.54828 156.714831 
L 475.286692 158.351941 
L 476.376639 149.825402 
L 481.596129 146.106013 
L 502.465807 145.785882 
L 506.745456 141.932697 
L 511.890531 142.783644 
L 529.457503 141.146972 
L 540.283436 150.738945 
L 536.05234 154.168995 
L 537.455701 159.427881 
L 550.964042 160.248186 
L 556.990475 167.594428 
L 556.621262 170.92748 
L 578.137432 176.884107 
L 591.136255 174.201261 
L 601.591869 182.134675 
L 611.491565 181.951704 
L 636.463736 187.464565 
L 636.662779 192.438834 
L 629.782306 201.309402 
L 633.525798 210.650936 
L 630.860233 216.30036 
L 614.466127 217.542438 
L 605.733668 222.272745 
L 605.198762 229.798195 
L 591.672912 231.152969 
L 580.402246 236.633784 
L 564.54242 237.52719 
L 549.95026 243.842318 
L 550.802693 252.913832 
L 548.246831 252.39785 
L 546.048295 249.052251 
L 528.555589 244.750766 
L 524.092034 248.946341 
L 521.763964 247.105155 
L 495.430141 242.823283 
L 494.264029 236.505967 
L 478.567039 238.592187 
L 472.279488 247.921521 
L 459.161602 260.442782 
L 451.477694 257.535381 
L 443.516264 260.261124 
L 435.956671 257.139673 
L 440.221035 255.299457 
L 447.818273 244.085695 
L 446.619769 241.052228 
L 450.162753 239.700519 
L 451.832255 242.045437 
L 461.815996 242.541385 
L 466.300099 241.288602 
L 463.141441 239.57095 
L 464.338195 237.046125 
L 458.422714 232.739302 
L 455.974054 225.656834 
L 449.802939 222.885567 
L 451.019828 217.144741 
L 443.365685 212.586661 
L 436.397027 211.952828 
L 423.911223 206.674682 
L 412.650187 208.350312 
L 408.609941 210.848873 
L 401.462689 210.846247 
L 397.201827 214.80595 
L 384.695888 216.433868 
L 378.911726 219.034858 
L 371.046598 214.895247 
L 360.185646 214.832214 
L 349.703769 212.956104 
L 342.39018 216.584009 
L 341.209185 212.043 
z
" clip-path="url(#p11b69c5567)" style="fill: #e8edf4; stroke: #b8c5d4; stroke-width: 0.45"/>
    <path d="M 196.086005 130.199788 
L 200.809109 125.678039 
L 196.851156 117.057389 
L 208.425607 112.082152 
L 256.19856 98.515155 
L 273.10631 101.377033 
L 274.383606 105.508764 
L 311.58626 107.646636 
L 342.738613 107.392315 
L 351.427549 109.204517 
L 355.495809 114.423569 
L 356.231195 121.91794 
L 360.930662 128.362198 
L 360.833486 135.115493 
L 350.673778 138.573558 
L 355.900272 146.422929 
L 356.223316 153.965013 
L 364.743289 168.755465 
L 362.92671 173.507897 
L 354.519672 175.479432 
L 339.136097 189.569953 
L 343.506391 197.18295 
L 323.708748 189.682888 
L 311.513597 192.077269 
L 303.515398 190.337731 
L 293.506269 193.9687 
L 284.962659 187.963923 
L 277.997503 190.263317 
L 269.244658 180.898526 
L 256.649422 179.875114 
L 255.042078 174.570705 
L 243.423854 172.67621 
L 240.894651 177.050882 
L 231.69182 173.546417 
L 232.7485 168.88547 
L 220.082351 167.411634 
L 212.052636 161.957521 
L 205.108491 151.140343 
L 206.428684 145.299714 
L 202.236984 136.237832 
z
" clip-path="url(#p11b69c5567)" style="fill: #e8edf4; stroke: #b8c5d4; stroke-width: 0.45"/>
    <path d="M 118.248895 229.78769 
L 120.840256 225.640638 
L 120.184536 222.63431 
L 125.298096 221.700195 
L 133.870596 226.404914 
L 136.283362 221.933942 
L 151.223955 222.656196 
L 163.335938 219.618352 
L 171.457576 220.138375 
L 176.740975 223.606945 
L 178.320304 220.727997 
L 175.918918 209.689765 
L 182.005113 207.538761 
L 187.978374 199.727911 
L 200.564856 205.18071 
L 210.095109 198.250135 
L 216.057864 196.985096 
L 229.208142 202.155122 
L 237.164318 201.275723 
L 244.974293 204.474652 
L 243.613829 206.625656 
L 245.30259 212.49605 
L 244.01654 219.418747 
L 234.475782 219.452014 
L 237.757004 223.123692 
L 232.133052 234.030167 
L 228.903482 236.889418 
L 214.087204 237.311389 
L 205.538342 241.155095 
L 167.319279 235.467234 
L 163.534667 229.574516 
L 146.792379 232.519124 
L 144.822595 235.74169 
L 125.914419 232.872372 
z
" clip-path="url(#p11b69c5567)" style="fill: #e8edf4; stroke: #b8c5d4; stroke-width: 0.45"/>
    <path d="M 232.133052 234.030167 
L 237.757004 223.123692 
L 234.475782 219.452014 
L 244.01654 219.418747 
L 245.30259 212.49605 
L 260.167894 218.680734 
L 274.387983 216.60502 
L 275.751949 213.202984 
L 300.520451 209.038861 
L 304.493286 205.052893 
L 310.045451 204.019413 
L 328.188475 209.167553 
L 331.803247 207.434581 
L 341.209185 212.043 
L 342.39018 216.584009 
L 332.043123 220.137499 
L 324.025665 231.62703 
L 313.783663 243.115686 
L 300.200908 246.311114 
L 289.627108 245.561283 
L 270.31447 252.545261 
L 256.321124 249.287676 
L 238.274401 239.936455 
L 234.982673 234.217515 
z
" clip-path="url(#p11b69c5567)" style="fill: #e8edf4; stroke: #b8c5d4; stroke-width: 0.45"/>
    <path d="M 408.609941 210.848873 
L 412.650187 208.350312 
L 423.911223 206.674682 
L 436.397027 211.952828 
L 443.365685 212.586661 
L 451.019828 217.144741 
L 449.802939 222.885567 
L 455.974054 225.656834 
L 458.422714 232.739302 
L 464.338195 237.046125 
L 463.141441 239.57095 
L 466.300099 241.288602 
L 461.815996 242.541385 
L 451.832255 242.045437 
L 450.162753 239.700519 
L 446.619769 241.052228 
L 447.818273 244.085695 
L 440.221035 255.299457 
L 435.956671 257.139673 
L 432.922328 249.409365 
L 434.710892 242.17588 
L 434.168983 234.740165 
L 413.774277 212.49999 
z
" clip-path="url(#p11b69c5567)" style="fill: #e8edf4; stroke: #b8c5d4; stroke-width: 0.45"/>
    <path d="M 300.200908 246.311114 
L 313.783663 243.115686 
L 324.025665 231.62703 
L 332.043123 220.137499 
L 349.703769 212.956104 
L 360.185646 214.832214 
L 371.046598 214.895247 
L 378.911726 219.034858 
L 384.695888 216.433868 
L 397.201827 214.80595 
L 401.462689 210.846247 
L 408.609941 210.848873 
L 413.774277 212.49999 
L 434.168983 234.740165 
L 434.710892 242.17588 
L 432.922328 249.409365 
L 435.956671 257.139673 
L 443.516264 260.261124 
L 451.477694 257.535381 
L 459.161602 260.442782 
L 459.555559 264.8122 
L 451.340246 268.457614 
L 446.194295 266.870844 
L 441.454557 287.308885 
L 431.493578 285.529951 
L 419.165357 279.371531 
L 399.221513 283.310223 
L 390.820603 287.631054 
L 365.940917 286.739836 
L 352.923709 284.097699 
L 346.359513 285.338225 
L 338.383201 275.420144 
L 342.308762 272.560893 
L 338.129318 270.451473 
L 332.810901 274.247904 
L 322.933091 269.32607 
L 321.603268 262.342529 
L 311.282475 258.357875 
L 309.382728 252.967233 
z
" clip-path="url(#p11b69c5567)" style="fill: #e8edf4; stroke: #b8c5d4; stroke-width: 0.45"/>
    <path d="M 314.357089 78.532353 
L 333.760775 73.336063 
L 362.172939 74.422508 
L 378.816301 72.747754 
L 381.192298 76.271479 
L 390.206905 77.359675 
L 406.492204 85.579365 
L 408.08379 93.167848 
L 394.194624 98.592634 
L 390.262935 108.156592 
L 371.870405 114.538692 
L 355.495809 114.423569 
L 351.427549 109.204517 
L 342.738613 107.392315 
L 341.382526 103.068858 
L 343.19035 98.429798 
L 335.701669 95.740824 
L 317.959605 92.773016 
z
" clip-path="url(#p11b69c5567)" style="fill: #e8edf4; stroke: #b8c5d4; stroke-width: 0.45"/>
    <path d="M 314.357089 78.532353 
L 314.943647 65.779096 
L 323.269268 55.140074 
L 339.235899 49.354599 
L 352.689086 62.011994 
L 366.280596 61.682383 
L 369.535554 48.676118 
L 383.964879 45.682047 
L 405.97043 54.047063 
L 419.941014 54.078579 
L 428.103799 57.979627 
L 429.548307 66.194939 
L 434.993666 76.193563 
L 406.492204 85.579365 
L 390.206905 77.359675 
L 381.192298 76.271479 
L 378.816301 72.747754 
L 362.172939 74.422508 
L 333.760775 73.336063 
z
" clip-path="url(#p11b69c5567)" style="fill: #e8edf4; stroke: #b8c5d4; stroke-width: 0.45"/>
    <path d="M 353.050651 25.063223 
L 374.471395 20.343183 
L 395.81685 17.882704 
L 414.197124 20.682861 
L 431.680267 20.18191 
L 434.23114 23.138963 
L 422.176659 32.901402 
L 427.200325 48.701944 
L 419.941014 54.078579 
L 405.97043 54.047063 
L 383.964879 45.682047 
L 369.535554 48.676118 
L 371.501837 38.680996 
L 365.272066 40.816242 
L 354.520547 34.795707 
z
" clip-path="url(#p11b69c5567)" style="fill: #e8edf4; stroke: #b8c5d4; stroke-width: 0.45"/>
    <path d="M 59.101972 149.337334 
L 69.279189 149.33033 
L 73.573319 142.953483 
L 77.794785 127.44209 
L 74.628247 121.713958 
L 77.936609 118.126325 
L 92.096292 117.205342 
L 95.238316 120.940928 
L 106.741855 112.589043 
L 102.868822 106.23846 
L 102.091414 96.631166 
L 114.895885 98.865339 
L 125.735825 96.286235 
L 126.035233 102.83336 
L 143.154844 106.781245 
L 142.9745 112.793901 
L 160.200042 109.612481 
L 169.724166 104.972545 
L 188.851207 111.661932 
L 196.851156 117.057389 
L 200.809109 125.678039 
L 196.086005 130.199788 
L 202.236984 136.237832 
L 206.428684 145.299714 
L 205.108491 151.140343 
L 212.052636 161.957521 
L 204.492167 163.725074 
L 200.024697 161.778052 
L 195.776092 165.002807 
L 183.610706 168.28403 
L 177.320529 172.505058 
L 165.008941 176.193807 
L 167.974998 181.229012 
L 169.767939 188.3732 
L 178.413103 192.444962 
L 187.978374 199.727911 
L 182.005113 207.538761 
L 175.918918 209.689765 
L 178.320304 220.727997 
L 176.740975 223.606945 
L 171.457576 220.138375 
L 163.335938 219.618352 
L 151.223955 222.656196 
L 136.283362 221.933942 
L 133.870596 226.404914 
L 125.298096 221.700195 
L 120.184536 222.63431 
L 102.030132 217.454216 
L 98.551931 221.134648 
L 84.142742 221.016023 
L 86.292871 208.9465 
L 94.858367 197.345785 
L 70.445302 194.225647 
L 62.450605 189.789694 
L 63.406607 182.362295 
L 60.023831 178.536536 
L 61.948091 167.089903 
z
" clip-path="url(#p11b69c5567)" style="fill: #e8edf4; stroke: #b8c5d4; stroke-width: 0.45"/>
    <path d="M 336.799495 310.809721 
L 339.586083 308.419279 
L 337.749369 306.403971 
L 340.59899 301.013329 
L 347.057255 295.716798 
L 338.826184 288.404085 
L 337.306386 282.216337 
L 341.48583 278.373069 
L 346.359513 285.338225 
L 352.923709 284.097699 
L 365.940917 286.739836 
L 390.820603 287.631054 
L 399.221513 283.310223 
L 419.165357 279.371531 
L 431.493578 285.529951 
L 441.454557 287.308885 
L 432.662317 294.327444 
L 426.475444 306.445118 
L 431.94444 316.110629 
L 417.358408 313.838374 
L 400.100474 319.167734 
L 399.915752 327.604537 
L 384.517294 329.204002 
L 372.581278 323.284582 
L 359.018659 327.940276 
L 346.487331 327.450456 
L 345.284449 316.2472 
z
" clip-path="url(#p11b69c5567)" style="fill: #e8edf4; stroke: #b8c5d4; stroke-width: 0.45"/>
    <path d="M 299.012034 356.470628 
L 306.889419 348.254002 
L 307.905828 342.748237 
L 313.411593 340.291697 
L 313.751271 335.840861 
L 324.832838 334.340761 
L 331.291104 330.637567 
L 340.472048 330.965864 
L 343.258221 328.0128 
L 359.018659 327.940276 
L 372.581278 323.284582 
L 384.517294 329.204002 
L 399.915752 327.604537 
L 400.100474 319.167734 
L 408.353431 323.653588 
L 403.108553 334.256279 
L 399.082314 336.156026 
L 379.920256 334.073308 
L 359.403861 338.47687 
L 371.147275 348.000119 
L 362.540632 350.761318 
L 353.104929 350.77839 
L 344.14285 342.05356 
L 340.963181 345.771199 
L 344.748668 355.889322 
L 353.223992 363.839808 
L 346.83839 367.551757 
L 356.273217 375.359981 
L 364.659245 380.27306 
L 364.913128 389.844459 
L 349.242402 385.355103 
L 354.239525 393.995451 
L 343.481878 395.773947 
L 349.906876 410.724607 
L 338.654594 410.936469 
L 324.762802 403.567288 
L 318.409592 390.014298 
L 315.445286 378.742757 
L 300.158886 361.294848 
z
" clip-path="url(#p11b69c5567)" style="fill: #e8edf4; stroke: #b8c5d4; stroke-width: 0.45"/>
    <path d="M 356.018459 430.080143 
L 359.152604 422.879926 
L 368.414091 428.588797 
L 381.600263 427.623603 
L 394.207756 428.826047 
L 393.798041 431.774157 
L 403.030637 429.74134 
L 400.9129 434.738901 
L 376.517344 436.179032 
L 376.687183 433.383689 
z
" clip-path="url(#p11b69c5567)" style="fill: #e8edf4; stroke: #b8c5d4; stroke-width: 0.45"/>
    <path d="M 401.010952 359.204688 
L 419.802691 343.00212 
L 445.891386 342.324514 
L 453.007121 329.449568 
L 485.295821 331.692058 
L 505.659886 320.70329 
L 525.401499 315.914088 
L 553.429337 315.553837 
L 582.998859 327.495105 
L 607.301616 334.047482 
L 627.037101 331.435548 
L 641.620506 332.944841 
L 661.622131 324.101824 
L 679.672356 323.296839 
L 695.990047 331.615455 
L 698.868558 337.577773 
L 697.238452 345.821975 
L 709.835439 350.032936 
L 716.509943 354.97972 
L 704.909229 359.805691 
L 710.19788 379.234765 
L 706.88339 384.481394 
L 716.148883 398.053774 
L 708.030242 400.915521 
L 702.080619 396.600381 
L 682.375775 394.414358 
L 675.098955 397.046865 
L 655.828339 399.681561 
L 646.699922 399.394848 
L 627.206064 405.751559 
L 613.268748 405.804525 
L 604.253266 402.614788 
L 585.6016 407.327387 
L 580.057314 404.032595 
L 579.140708 413.482743 
L 570.06657 420.905764 
L 563.837675 413.223607 
L 570.253918 406.860329 
L 559.921745 408.303086 
L 545.752432 404.405103 
L 534.102691 414.155971 
L 508.390444 416.060096 
L 494.675495 406.967573 
L 476.413408 406.398524 
L 472.507983 413.427151 
L 460.799587 415.436769 
L 444.416237 406.416033 
L 425.921278 406.721131 
L 415.88501 389.872474 
L 403.508638 380.473978 
L 411.750214 367.300062 
z
" clip-path="url(#p11b69c5567)" style="fill: #e8edf4; stroke: #b8c5d4; stroke-width: 0.45"/>
    <path d="M 398.852069 339.652174 
L 399.082314 336.156026 
L 403.108553 334.256279 
L 408.353431 323.653588 
L 400.100474 319.167734 
L 417.358408 313.838374 
L 431.94444 316.110629 
L 433.957121 322.624048 
L 448.745384 328.095232 
L 445.662016 332.245348 
L 425.545706 333.179464 
L 404.182742 347.542691 
z
" clip-path="url(#p11b69c5567)" style="fill: #e8edf4; stroke: #b8c5d4; stroke-width: 0.45"/>
    <path d="M 284.687765 312.919141 
L 292.032871 304.575574 
L 293.109686 307.763122 
L 297.668329 306.263209 
L 301.277723 310.809721 
L 305.329976 312.54432 
L 306.470074 318.684918 
L 304.317319 324.450257 
L 306.723082 331.715695 
L 313.751271 335.840861 
L 313.411593 340.291697 
L 307.905828 342.748237 
L 306.889419 348.254002 
L 299.012034 356.470628 
L 296.131772 355.284818 
L 295.792969 351.557549 
L 286.408918 345.86925 
L 284.934644 337.797513 
L 286.366021 326.237945 
L 288.678109 320.979059 
L 285.827613 318.309783 
z
" clip-path="url(#p11b69c5567)" style="fill: #e8edf4; stroke: #b8c5d4; stroke-width: 0.45"/>
    <path d="M 189.012291 263.091922 
L 189.996308 256.935691 
L 201.802756 257.51437 
L 204.905384 254.655119 
L 210.667659 257.420695 
L 217.315899 257.748993 
L 217.252866 253.014507 
L 223.141207 251.280222 
L 224.787946 244.436755 
L 238.274401 239.936455 
L 256.321124 249.287676 
L 270.31447 252.545261 
L 276.646444 250.014398 
L 280.762204 256.576752 
L 286.14453 261.404912 
L 279.622327 267.779557 
L 271.960334 264.02954 
L 260.246685 264.264163 
L 245.683415 261.451311 
L 237.768385 261.826883 
L 234.095832 265.341854 
L 228.017517 261.451311 
L 224.47103 268.483002 
L 236.438562 281.654291 
L 250.684916 291.732582 
L 257.081023 298.810235 
L 272.075294 305.223529 
L 270.212041 308.103676 
L 254.286556 301.835385 
L 244.461274 295.736496 
L 228.966515 290.701291 
L 214.720161 278.232996 
L 218.138831 276.967081 
L 210.414651 269.842153 
L 210.097735 264.123214 
L 199.207018 261.451311 
L 194.014667 268.764025 
z
" clip-path="url(#p11b69c5567)" style="fill: #e8edf4; stroke: #b8c5d4; stroke-width: 0.45"/>
    <path d="M 59.677149 243.84582 
L 59.92753 236.175043 
L 72.317034 226.655296 
L 71.772498 222.350661 
L 79.491425 223.909854 
L 84.142742 221.016023 
L 98.551931 221.134648 
L 102.030132 217.454216 
L 120.184536 222.63431 
L 120.840256 225.640638 
L 118.248895 229.78769 
L 125.914419 232.872372 
L 134.558707 233.332863 
L 133.214876 240.278322 
L 125.751584 243.135822 
L 113.215878 241.012832 
L 109.546827 247.844919 
L 101.476841 248.383326 
L 98.54055 245.698292 
L 89.042689 251.443933 
L 80.874651 252.249356 
L 73.585575 248.620576 
L 67.766395 241.191426 
z
" clip-path="url(#p11b69c5567)" style="fill: #e8edf4; stroke: #b8c5d4; stroke-width: 0.45"/>
    <path d="M 53.772174 188.676984 
L 55.608013 179.175622 
L 60.023831 178.536536 
L 63.406607 182.362295 
L 62.450605 189.789694 
L 57.562039 190.147757 
z
" clip-path="url(#p11b69c5567)" style="fill: #e8edf4; stroke: #b8c5d4; stroke-width: 0.45"/>
    <path d="M 0.229943 161.248837 
L 13.80657 157.90677 
L 26.209206 159.23703 
L 41.912324 155.717245 
L 52.635828 163.132825 
L 61.948091 167.089903 
L 60.023831 178.536536 
L 55.608013 179.175622 
L 53.772174 188.676984 
L 38.951519 180.95368 
L 30.257331 182.272998 
L 10.558615 167.48561 
L 2.683856 167.206339 
z
" clip-path="url(#p11b69c5567)" style="fill: #e8edf4; stroke: #b8c5d4; stroke-width: 0.45"/>
    <path d="M 13.80657 157.907207 
L 22.536653 153.251951 
L 37.37219 128.32718 
L 60.550858 121.23552 
L 74.628247 121.713958 
L 77.794785 127.44209 
L 73.573319 142.953483 
L 69.279189 149.33033 
L 59.101972 149.337334 
L 61.948091 167.089903 
L 52.635828 163.132825 
L 41.912324 155.717245 
L 26.209206 159.23703 
z
" clip-path="url(#p11b69c5567)" style="fill: #e8edf4; stroke: #b8c5d4; stroke-width: 0.45"/>
    <path d="M -201.479441 298.843064 
L -177.51286 286.616396 
L -156.781978 289.673063 
L -134.036663 289.56582 
L -116.010513 292.459213 
L -74.564069 292.131354 
L -67.811649 298.717874 
L -36.626029 306.417103 
L -30.467171 302.754618 
L -11.404914 310.417953 
L 8.233394 308.221863 
L 9.139495 318.062904 
L -6.914682 329.346264 
L -28.621702 332.926894 
L -30.132745 338.626135 
L -40.545461 348.018066 
L -47.074639 361.807429 
L -40.467545 371.488699 
L -50.266564 379.046979 
L -53.930362 390.058947 
L -66.720827 393.435157 
L -78.716374 406.461557 
L -116.367263 406.398962 
L -126.977833 412.381415 
L -133.448354 418.782775 
L -141.737205 417.377225 
L -148.009873 411.65347 
L -152.812644 401.908292 
L -168.627821 399.28454 
L -170.040375 393.675033 
L -163.762017 387.32226 
L -161.437234 382.716467 
L -167.278738 377.679949 
L -162.602033 366.549356 
L -169.388595 356.393149 
L -162.069316 354.998542 
L -161.388646 346.991589 
L -158.637514 344.512288 
L -158.419087 331.294599 
L -150.591603 326.708067 
L -155.326964 318.210856 
L -165.198646 317.618608 
L -168.099044 319.757793 
L -178.105546 319.777929 
L -182.352401 311.483825 
L -189.265905 313.953496 
L -195.413382 318.258569 
L -194.559809 306.192985 
z
" clip-path="url(#p11b69c5567)" style="fill: #e8edf4; stroke: #b8c5d4; stroke-width: 0.45"/>
    <path d="M 71.999242 264.928637 
L 77.8727 259.768678 
L 72.886958 253.407589 
L 73.585575 248.620576 
L 80.874651 252.249356 
L 89.042689 251.443933 
L 98.54055 245.698292 
L 101.476841 248.383326 
L 109.546827 247.844919 
L 113.215878 241.012832 
L 125.751584 243.135822 
L 133.214876 240.278322 
L 134.558707 233.332863 
L 144.822595 235.74169 
L 146.792379 232.519124 
L 163.534667 229.574516 
L 167.319279 235.467234 
L 191.544996 239.842343 
L 189.709157 248.186348 
L 193.766912 255.399259 
L 180.281333 252.931339 
L 166.507728 258.943995 
L 167.44447 267.35366 
L 165.370506 272.180068 
L 170.923546 280.805096 
L 186.80876 289.337325 
L 195.328732 303.342927 
L 214.180003 316.995281 
L 227.455472 316.890663 
L 231.584139 320.635004 
L 226.831269 324.0099 
L 254.442388 335.257805 
L 268.969764 344.092943 
L 270.724185 347.256854 
L 267.558523 353.323351 
L 258.156087 345.413573 
L 243.437861 342.625672 
L 236.308119 353.5838 
L 248.552296 359.863909 
L 246.542241 368.7043 
L 239.465026 369.708889 
L 230.416276 384.238892 
L 223.353944 385.544202 
L 223.419603 380.364545 
L 226.875917 371.278151 
L 230.5581 367.659439 
L 218.771788 349.298425 
L 211.739222 347.187692 
L 206.737721 339.875854 
L 195.851382 336.795987 
L 188.521159 329.986663 
L 175.986329 328.888837 
L 147.25112 310.213971 
L 135.731823 300.455223 
L 130.447549 283.70812 
L 122.018624 281.738336 
L 108.236264 276.146775 
L 100.436795 278.435664 
L 90.648282 286.297729 
L 83.607836 287.539568 
L 85.546104 280.186146 
L 76.363408 278.036893 
z
" clip-path="url(#p11b69c5567)" style="fill: #e8edf4; stroke: #b8c5d4; stroke-width: 0.45"/>
    <path d="M 168.242889 390.557083 
L 170.613633 381.858955 
L 190.438415 383.407643 
L 220.580488 380.083961 
L 214.47941 393.418523 
L 217.014741 398.667341 
L 213.458624 407.379039 
L 200.502698 400.998252 
L 191.888176 399.170292 
z
" clip-path="url(#p11b69c5567)" style="fill: #e8edf4; stroke: #b8c5d4; stroke-width: 0.45"/>
    <path d="M 95.887032 334.023407 
L 105.204548 334.870852 
L 113.675495 329.61897 
L 123.83958 341.646909 
L 121.460081 364.053858 
L 113.756912 362.984922 
L 106.84691 368.640829 
L 100.432418 364.147533 
L 99.753937 343.708616 
z
" clip-path="url(#p11b69c5567)" style="fill: #e8edf4; stroke: #b8c5d4; stroke-width: 0.45"/>
    <path d="M 94.700784 69.91039 
L 102.382942 60.254071 
L 117.308652 59.202644 
L 123.256524 54.529003 
L 136.884803 49.750307 
L 136.310501 58.462881 
L 131.294118 63.980902 
L 133.326935 68.725018 
L 142.512257 71.289239 
L 138.372209 77.680093 
L 133.326935 75.839877 
L 121.129157 88.037655 
L 125.735825 96.286235 
L 114.895885 98.865339 
L 102.091414 96.631166 
L 95.214679 87.229169 
z
" clip-path="url(#p11b69c5567)" style="fill: #e8edf4; stroke: #b8c5d4; stroke-width: 0.45"/>
    <path d="M 142.372183 82.786649 
L 167.224729 77.171451 
L 172.630692 85.666036 
L 162.465731 99.387989 
L 144.737675 89.818778 
z
" clip-path="url(#p11b69c5567)" style="fill: #e8edf4; stroke: #b8c5d4; stroke-width: 0.45"/>
    <path d="M 189.709157 248.186348 
L 191.544996 239.842343 
L 205.538342 241.155095 
L 214.087204 237.311389 
L 228.903482 236.889418 
L 232.133052 234.030167 
L 234.982673 234.217515 
L 238.274401 239.936455 
L 224.787946 244.436755 
L 223.141207 251.280222 
L 217.252866 253.014507 
L 217.315899 257.748993 
L 210.667659 257.420695 
L 204.905384 254.655119 
L 201.802756 257.51437 
L 189.996308 256.935691 
L 193.766912 255.399259 
z
" clip-path="url(#p11b69c5567)" style="fill: #e8edf4; stroke: #b8c5d4; stroke-width: 0.45"/>
    <path d="M 307.407691 -142.976424 
L 317.561271 -147.452211 
L 336.388029 -138.495385 
L 358.510017 -139.334075 
L 376.698564 -135.23955 
L 392.852544 -142.736986 
L 401.160655 -155.158006 
L 427.464713 -160.89927 
L 449.205001 -154.161733 
L 442.027983 -142.273868 
L 439.55481 -130.412266 
L 465.499929 -119.124091 
L 449.865973 -106.35026 
L 469.5696 -87.066014 
L 458.164454 -72.542201 
L 473.415835 -59.93427 
L 466.490074 -48.894725 
L 491.566738 -37.287882 
L 485.195143 -28.647972 
L 433.185842 2.763955 
L 402.440577 4.111725 
L 372.648689 10.32311 
L 345.086595 13.896736 
L 335.278822 4.65451 
L 318.870959 -0.906409 
L 322.642439 -17.59617 
L 314.41487 -32.878192 
L 322.492735 -42.743746 
L 337.853548 -53.384082 
L 376.611019 -71.757351 
L 387.920205 -75.299461 
L 386.157905 -82.464222 
L 362.598413 -90.4703 
L 356.880786 -97.06251 
L 356.433427 -123.151205 
z
" clip-path="url(#p11b69c5567)" style="fill: #e8edf4; stroke: #b8c5d4; stroke-width: 0.45"/>
    <path d="M 243.613829 206.625656 
L 247.374803 200.747821 
L 254.880118 201.034972 
L 260.665155 199.282302 
L 261.12302 197.706474 
L 264.366598 196.901927 
L 265.47668 193.047279 
L 269.364596 192.310579 
L 271.990099 189.260916 
L 277.041501 189.240343 
L 277.997503 190.263317 
L 284.962659 187.963923 
L 293.506269 193.9687 
L 303.515398 190.337731 
L 311.513597 192.077269 
L 323.708748 189.682888 
L 339.80845 196.194556 
L 335.110734 200.605121 
L 331.803247 207.434581 
L 328.188475 209.167553 
L 310.045451 204.019413 
L 304.493286 205.052893 
L 300.520451 209.038861 
L 275.751949 213.202984 
L 274.387983 216.60502 
L 260.167894 218.680734 
L 245.30259 212.49605 
z
" clip-path="url(#p11b69c5567)" style="fill: #e8edf4; stroke: #b8c5d4; stroke-width: 0.45"/>
    <path d="M 165.008941 176.193807 
L 177.320529 172.505058 
L 183.610706 168.28403 
L 195.776092 165.002807 
L 200.024697 161.778052 
L 204.492167 163.725074 
L 212.052636 161.957521 
L 220.082351 167.411634 
L 232.7485 168.88547 
L 231.69182 173.546417 
L 240.894651 177.050882 
L 243.423854 172.67621 
L 255.042078 174.570705 
L 256.649422 179.875114 
L 269.244658 180.898526 
L 277.041501 189.240343 
L 271.990099 189.260916 
L 269.364596 192.310579 
L 265.47668 193.047279 
L 264.366598 196.901927 
L 261.12302 197.706474 
L 260.665155 199.282302 
L 254.880118 201.034972 
L 247.374803 200.747821 
L 244.974293 204.474652 
L 237.164318 201.275723 
L 229.208142 202.155122 
L 216.057864 196.985096 
L 210.095109 198.250135 
L 200.564856 205.18071 
L 187.978374 199.727911 
L 178.413103 192.444962 
L 169.767939 188.3732 
L 167.974998 181.229012 
z
" clip-path="url(#p11b69c5567)" style="fill: #e8edf4; stroke: #b8c5d4; stroke-width: 0.45"/>
    <path d="M 224.47103 268.483002 
L 228.017517 261.451311 
L 234.095832 265.341854 
L 237.768385 261.826883 
L 245.683415 261.451311 
L 260.246685 264.264163 
L 271.960334 264.02954 
L 279.622249 267.779633 
L 285.764273 267.732706 
L 281.521864 275.185638 
L 289.690052 281.701214 
L 287.220706 289.669835 
L 280.0656 291.96655 
L 274.556838 295.904019 
L 272.075294 305.223529 
L 257.081023 298.810235 
L 250.684916 291.732582 
L 236.438562 281.654291 
z
" clip-path="url(#p11b69c5567)" style="fill: #e8edf4; stroke: #b8c5d4; stroke-width: 0.45"/>
    <path d="M 304.317319 324.450257 
L 306.470059 318.684837 
L 308.622664 318.82543 
L 309.382475 315.356725 
L 328.948179 311.091275 
L 336.799495 310.809721 
L 345.284449 316.2472 
L 346.487331 327.450456 
L 343.258221 328.0128 
L 340.472048 330.965864 
L 331.291104 330.637567 
L 324.832838 334.340761 
L 313.751271 335.840861 
L 306.723082 331.715695 
z
" clip-path="url(#p11b69c5567)" style="fill: #e8edf4; stroke: #b8c5d4; stroke-width: 0.45"/>
    <path d="M 276.646444 250.014398 
L 289.627108 245.561283 
L 300.200908 246.311114 
L 309.382728 252.967233 
L 311.282475 258.357875 
L 321.603268 262.342529 
L 322.933091 269.32607 
L 332.810901 274.247904 
L 338.129318 270.451473 
L 342.308762 272.560893 
L 338.383201 275.420144 
L 341.48583 278.373069 
L 337.306386 282.216337 
L 338.826184 288.404085 
L 347.057255 295.716798 
L 340.59899 301.013329 
L 337.749369 306.403971 
L 339.586083 308.419279 
L 336.799495 310.809721 
L 323.180657 312.080904 
L 322.616245 310.809882 
L 326.542024 304.669553 
L 324.135868 304.763238 
L 310.268838 294.68527 
L 307.229591 295.622795 
L 304.886795 301.247605 
L 300.834296 302.466353 
L 302.2272 301.013308 
L 290.202353 295.672433 
L 283.231398 290.419652 
L 287.220706 289.669835 
L 289.690052 281.701214 
L 281.521864 275.185638 
L 285.764273 267.732706 
L 279.622249 267.779633 
L 286.14453 261.404912 
L 280.762204 256.576752 
z
" clip-path="url(#p11b69c5567)" style="fill: #e8edf4; stroke: #b8c5d4; stroke-width: 0.45"/>
    <path d="M 270.212051 308.103661 
L 274.556838 295.904019 
L 283.231398 290.419652 
L 290.202353 295.672433 
L 302.2272 301.013308 
L 297.668329 306.263209 
L 293.109686 307.763122 
L 292.032871 304.575574 
L 284.687765 312.919141 
L 285.827602 318.30973 
L 282.281675 316.997308 
L 277.532725 311.466183 
z
" clip-path="url(#p11b69c5567)" style="fill: #e8edf4; stroke: #b8c5d4; stroke-width: 0.45"/>
    <path d="M 297.668329 306.263209 
L 300.834296 302.466353 
L 304.886795 301.247605 
L 307.229591 295.622795 
L 310.268838 294.68527 
L 324.135868 304.763238 
L 326.542024 304.669553 
L 322.616245 310.809882 
L 323.180657 312.080904 
L 309.382475 315.356725 
L 308.622664 318.82543 
L 306.470059 318.684837 
L 305.329976 312.54432 
L 301.277723 310.809721 
z
" clip-path="url(#p11b69c5567)" style="fill: #e8edf4; stroke: #b8c5d4; stroke-width: 0.45"/>
   </g>
   <g id="PathCollection_1">
    <defs>
     <path id="m53d7ce058c" d="M 0 2.12132 
C 0.562581 2.12132 1.102195 1.897805 1.5 1.5 
C 1.897805 1.102195 2.12132 0.562581 2.12132 0 
C 2.12132 -0.562581 1.897805 -1.102195 1.5 -1.5 
C 1.102195 -1.897805 0.562581 -2.12132 0 -2.12132 
C -0.562581 -2.12132 -1.102195 -1.897805 -1.5 -1.5 
C -1.897805 -1.102195 -2.12132 -0.562581 -2.12132 0 
C -2.12132 0.562581 -1.897805 1.102195 -1.5 1.5 
C -1.102195 1.897805 -0.562581 2.12132 0 2.12132 
z
" style="stroke: #ffffff; stroke-width: 0.5"/>
    </defs>
    <g clip-path="url(#p11b69c5567)">
     <use xlink:href="#m53d7ce058c" x="296.470588" y="333.17647" style="fill: #8aa0b7; stroke: #ffffff; stroke-width: 0.5"/>
     <use xlink:href="#m53d7ce058c" x="295.040753" y="8.270118" style="fill: #8aa0b7; stroke: #ffffff; stroke-width: 0.5"/>
     <use xlink:href="#m53d7ce058c" x="119.152941" y="227.011765" style="fill: #8aa0b7; stroke: #ffffff; stroke-width: 0.5"/>
     <use xlink:href="#m53d7ce058c" x="62.117647" y="184.941176" style="fill: #8aa0b7; stroke: #ffffff; stroke-width: 0.5"/>
     <use xlink:href="#m53d7ce058c" x="83.011765" y="286.870588" style="fill: #8aa0b7; stroke: #ffffff; stroke-width: 0.5"/>
     <use xlink:href="#m53d7ce058c" x="285.872188" y="304.229082" style="fill: #8aa0b7; stroke: #ffffff; stroke-width: 0.5"/>
     <use xlink:href="#m53d7ce058c" x="330.352941" y="319.058823" style="fill: #8aa0b7; stroke: #ffffff; stroke-width: 0.5"/>
     <use xlink:href="#m53d7ce058c" x="208.658823" y="246.494118" style="fill: #8aa0b7; stroke: #ffffff; stroke-width: 0.5"/>
     <use xlink:href="#m53d7ce058c" x="168" y="286.305882" style="fill: #8aa0b7; stroke: #ffffff; stroke-width: 0.5"/>
     <use xlink:href="#m53d7ce058c" x="168.622306" y="317.880282" style="fill: #8aa0b7; stroke: #ffffff; stroke-width: 0.5"/>
     <use xlink:href="#m53d7ce058c" x="311.768471" y="306.026541" style="fill: #8aa0b7; stroke: #ffffff; stroke-width: 0.5"/>
    </g>
   </g>
   <g id="PatchCollection_2">
    <defs>
     <path id="m26e0f99f84" d="M 243.613829 -199.962579 
L 247.374803 -205.840414 
L 254.880118 -205.553264 
L 260.665155 -207.305934 
L 261.12302 -208.881761 
L 264.366598 -209.686308 
L 265.47668 -213.540957 
L 269.364596 -214.277656 
L 271.990099 -217.327319 
L 277.041501 -217.347893 
L 277.997503 -216.324918 
L 284.962659 -218.624313 
L 293.506269 -212.619535 
L 303.515398 -216.250504 
L 311.513597 -214.510966 
L 323.708748 -216.905348 
L 339.80845 -210.39368 
L 335.110734 -205.983114 
L 331.803247 -199.153654 
L 328.188475 -197.420682 
L 310.045451 -202.568822 
L 304.493286 -201.535342 
L 300.520451 -197.549375 
L 275.751949 -193.385251 
L 274.387983 -189.983215 
L 260.167894 -187.907501 
L 245.30259 -194.092185 
z
" style="stroke: #b45309; stroke-width: 1.15"/>
    </defs>
    <g clip-path="url(#p11b69c5567)">
     <use xlink:href="#m26e0f99f84" x="0" y="406.588235" style="fill: #f59e0b; stroke: #b45309; stroke-width: 1.15"/>
    </g>
   </g>
   <g id="PathCollection_2">
    <defs>
     <path id="m7e9df9a2d5" d="M 0 3.316625 
C 0.879579 3.316625 1.723251 2.967164 2.345208 2.345208 
C 2.967164 1.723251 3.316625 0.879579 3.316625 0 
C 3.316625 -0.879579 2.967164 -1.723251 2.345208 -2.345208 
C 1.723251 -2.967164 0.879579 -3.316625 0 -3.316625 
C -0.879579 -3.316625 -1.723251 -2.967164 -2.345208 -2.345208 
C -2.967164 -1.723251 -3.316625 -0.879579 -3.316625 0 
C -3.316625 0.879579 -2.967164 1.723251 -2.345208 2.345208 
C -1.723251 2.967164 -0.879579 3.316625 0 3.316625 
z
" style="stroke: #ffffff"/>
    </defs>
    <g clip-path="url(#p11b69c5567)">
     <use xlink:href="#m7e9df9a2d5" x="288" y="203.294118" style="fill: #f97316; stroke: #ffffff"/>
    </g>
   </g>
   <g id="PathCollection_3">
    <path d="M 288 207.743837 
C 289.180079 207.743837 290.311984 207.274986 291.146427 206.440544 
C 291.980869 205.606102 292.449719 204.474197 292.449719 203.294118 
C 292.449719 202.114038 291.980869 200.982133 291.146427 200.147691 
C 290.311984 199.313249 289.180079 198.844399 288 198.844399 
C 286.819921 198.844399 285.688016 199.313249 284.853573 200.147691 
C 284.019131 200.982133 283.550281 202.114038 283.550281 203.294118 
C 283.550281 204.474197 284.019131 205.606102 284.853573 206.440544 
C 285.688016 207.274986 286.819921 207.743837 288 207.743837 
L 288 207.743837 
z
" clip-path="url(#p11b69c5567)" style="fill: none; stroke: #7c2d12; stroke-width: 1.1"/>
   </g>
  </g>
 </g>
 <defs>
  <clipPath id="p11b69c5567">
   <rect x="0" y="0" width="576" height="406.588235"/>
  </clipPath>
 </defs>
</svg>
