<?xml version="1.0" encoding="utf-8" standalone="no"?>
<!DOCTYPE svg PUBLIC "-//W3C//DTD SVG 1.1//EN"
  "http://www.w3.org/Graphics/SVG/1.1/DTD/svg11.dtd">
<svg xmlns:xlink="http://www.w3.org/1999/xlink" width="538.021978pt" height="432pt" viewBox="0 0 538.021978 432" xmlns="http://www.w3.org/2000/svg" version="1.1">
 <metadata>
  <rdf:RDF xmlns:dc="http://purl.org/dc/elements/1.1/" xmlns:cc="http://creativecommons.org/ns#" xmlns:rdf="http://www.w3.org/1999/02/22-rdf-syntax-ns#">
   <cc:Work>
    <dc:type rdf:resource="http://purl.org/dc/dcmitype/StillImage"/>
    <dc:date>2026-06-09T04:57:09.259734</dc:date>
    <dc:format>image/svg+xml</dc:format>
    <dc:creator>
     <cc:Agent>
      <dc:title>Matplotlib v3.10.8, https://matplotlib.org/</dc:title>
     </cc:Agent>
    </dc:creator>
   </cc:Work>
  </rdf:RDF>
 </metadata>
 <defs>
  <style type="text/css">*{stroke-linejoin: round; stroke-linecap: butt}</style>
 </defs>
 <g id="figure_1">
  <g id="patch_1">
   <path d="M 0 432 
L 538.021978 432 
L 538.021978 0 
L 0 0 
z
" style="fill: #eaf3ff"/>
  </g>
  <g id="axes_1">
   <g id="PatchCollection_1">
    <path d="M 280.348153 -82.984389 
L 289.482274 -94.977319 
L 284.860425 -98.204926 
L 297.486284 -115.590832 
L 313.759249 -106.413779 
L 315.729995 -117.971264 
L 348.395315 -135.182174 
L 373.113868 -135.59186 
L 426.7296 -118.233653 
L 443.519684 -124.908923 
L 468.606382 -125.226831 
L 488.844907 -117.026778 
L 493.442225 -121.722632 
L 515.669133 -121.040231 
L 519.634339 -128.534381 
L 493.991744 -139.417642 
L 509.178754 -147.126039 
L 506.215276 -151.437149 
L 521.406375 -155.551592 
L 509.98259 -166.391104 
L 517.238505 -171.791209 
L 576.45152 -177.297671 
L 584.179042 -181.206593 
L 623.774775 -187.047957 
L 638.001763 -193.61275 
L 666.439383 -190.202378 
L 671.421854 -173.801437 
L 687.942594 -177.652569 
L 708.266628 -172.255914 
L 706.955796 -163.618976 
L 722.133415 -164.521582 
L 761.793235 -179.454452 
L 756.00284 -174.493242 
L 776.190312 -162.267666 
L 811.551711 -122.079574 
L 819.984215 -130.364885 
L 841.782628 -121.247936 
L 864.522258 -125.314542 
L 873.258959 -122.467182 
L 880.874543 -113.323247 
L 891.938524 -110.251827 
L 898.675041 -103.535345 
L 919.057953 -105.652875 
L 927.454476 -95.973322 
L 915.40921 -85.437599 
L 902.266542 -83.959131 
L 901.510953 -68.090945 
L 892.70965 -60.9382 
L 861.317546 -66.145549 
L 849.899485 -37.814235 
L 841.799801 -34.291424 
L 810.452673 -27.9695 
L 824.696015 -0.480454 
L 813.839739 3.638487 
L 815.103143 12.659352 
L 805.349994 10.338205 
L 797.414675 4.650845 
L 747.697904 2.563163 
L 741.947577 4.30576 
L 719.412382 -2.347348 
L 710.431178 0.929324 
L 707.969789 10.27156 
L 681.937134 4.820117 
L 671.519165 7.052947 
L 667.975093 13.98613 
L 658.902301 16.911175 
L 638.031201 27.941629 
L 631.107422 39.264832 
L 625.211539 39.365414 
L 620.87508 31.870037 
L 600.749756 31.356498 
L 597.531143 18.393323 
L 589.820702 18.28252 
L 591.001514 2.410655 
L 572.057002 -9.147648 
L 544.917948 -7.913274 
L 526.364314 -5.609301 
L 511.252535 -19.872268 
L 470.818714 -38.56042 
L 430.083966 -29.209189 
L 430.705446 29.137978 
L 422.588589 29.909922 
L 411.513159 17.50199 
L 400.81716 13.069038 
L 382.85475 16.361656 
L 375.863099 21.626655 
L 374.975037 17.768163 
L 378.864194 11.173524 
L 375.846745 5.660341 
L 357.50654 0.26941 
L 350.367697 -13.941631 
L 341.630177 -17.944862 
L 341.100284 -23.100694 
L 356.495 -21.597693 
L 357.102578 -33.167445 
L 370.560893 -35.737183 
L 384.383101 -33.373923 
L 387.231278 -48.811979 
L 384.412539 -58.597019 
L 368.577063 -57.831618 
L 355.12529 -61.693789 
L 336.803076 -54.735666 
L 322.040334 -51.417969 
L 314.003077 -53.976897 
L 315.60897 -62.11983 
L 305.521319 -72.692624 
L 293.779622 -72.250813 
z
" clip-path="url(#p0492565c8d)" style="fill: #e8edf4; stroke: #b8c5d4; stroke-width: 0.45"/>
    <path d="M 430.083966 -29.209189 
L 470.818714 -38.56042 
L 511.252535 -19.872268 
L 526.364314 -5.609301 
L 544.917948 -7.913274 
L 572.057002 -9.147648 
L 591.001514 2.410655 
L 589.820702 18.28252 
L 597.531143 18.393323 
L 600.749756 31.356498 
L 620.87508 31.870037 
L 625.211539 39.365414 
L 631.107422 39.264832 
L 638.031201 27.941629 
L 658.902301 16.911175 
L 667.975093 13.98613 
L 672.673809 15.543919 
L 659.393761 25.793434 
L 671.069409 31.74983 
L 682.340278 27.804658 
L 701.09671 36.141895 
L 680.833189 47.538286 
L 668.796101 45.97927 
L 662.264018 46.388139 
L 659.997251 41.989532 
L 663.296002 34.651569 
L 642.137058 38.328932 
L 637.107158 48.482772 
L 629.587249 57.228878 
L 616.374256 56.484737 
L 612.272487 63.452674 
L 623.884352 67.228165 
L 627.302492 79.00971 
L 618.408785 95.024271 
L 606.473915 91.682998 
L 597.657075 91.577918 
L 598.092929 81.895095 
L 577.044379 75.122189 
L 560.495837 67.372905 
L 532.076207 48.993449 
L 524.297893 32.679188 
L 518.988327 29.806887 
L 501.878817 30.53549 
L 495.824292 27.29439 
L 494.132395 14.667714 
L 472.810721 6.305127 
L 459.479156 15.498943 
L 445.960328 20.950796 
L 448.558279 28.921687 
L 430.705446 29.137978 
z
" clip-path="url(#p0492565c8d)" style="fill: #e8edf4; stroke: #b8c5d4; stroke-width: 0.45"/>
    <path d="M -107.813116 483.615613 
L -106.218356 477.80371 
L -102.120053 471.207244 
L -103.912774 464.653503 
L -98.710892 459.800229 
L -102.010391 456.103068 
L -97.825846 446.332114 
L -90.599895 434.678716 
L -76.954708 435.78451 
L -77.538462 366.32967 
L -59.340659 366.281565 
L -59.340659 334.681319 
L 128.432651 334.681319 
L 133.535789 350.207209 
L 130.065389 353.077873 
L 132.364484 369.368545 
L 138.17338 388.260554 
L 152.862962 398.004806 
L 144.854505 407.03673 
L 133.199525 409.638224 
L 128.215859 414.489758 
L 126.654963 425.00793 
L 119.839965 448.259499 
L 121.521916 454.595182 
L 119.001284 468.184668 
L 112.567332 483.772273 
L 103.023138 491.611886 
L 96.236782 503.699974 
L 94.646769 510.168738 
L 87.150857 514.600774 
L 82.469591 531.160932 
L 82.681002 545.387182 
L 82.497644 533.048673 
L 80.307114 532.73574 
L 80.578774 524.857615 
L 78.677157 519.424424 
L 70.527372 513.176255 
L 68.625755 501.766556 
L 70.527372 490.085197 
L 63.192565 488.998559 
L 62.105927 492.530132 
L 52.597844 493.345111 
L 56.401077 497.963323 
L 57.759375 507.471406 
L 49.06627 516.16451 
L 41.188144 527.57421 
L 33.038359 529.204167 
L 19.727043 519.967743 
L 13.750533 523.227657 
L 12.120576 527.845869 
L 3.970791 530.834124 
L 3.427472 534.094038 
L -12.32878 534.094038 
L -14.502056 530.834124 
L -25.911756 530.290805 
L -31.616606 533.0074 
L -35.963158 531.649102 
L -46.829539 518.066127 
L -58.239238 520.239403 
L -62.58579 527.57421 
L -66.660683 541.700504 
L -76.95329 546.413068 
L -66.186688 552.59307 
L -78.237678 545.675833 
L -83.72551 541.118994 
L -84.741957 536.201124 
L -82.170992 529.615888 
L -82.217603 523.159037 
L -91.344365 513.265647 
L -92.947727 502.661116 
L -98.763587 497.996941 
L -98.93876 488.804993 
L -102.255666 482.699868 
z
" clip-path="url(#p0492565c8d)" style="fill: #e8edf4; stroke: #b8c5d4; stroke-width: 0.45"/>
    <path d="M -23.13202 -226.673855 
L -16.351345 -231.695986 
L -21.04378 -246.454734 
L -9.7841 -255.573496 
L -12.166892 -258.335525 
L 5.818549 -267.081231 
L -10.76044 -274.605152 
L 37.819639 -303.945908 
L 43.771129 -312.016154 
L 20.347871 -322.85771 
L 26.816988 -333.169373 
L 12.571193 -344.946012 
L 23.224352 -358.512211 
L 4.819864 -376.524968 
L 19.423011 -388.456568 
L -4.811441 -399.000469 
L -2.501334 -410.079986 
L 10.278593 -411.538075 
L 37.203903 -417.886576 
L 53.528756 -423.390857 
L 79.523921 -413.824668 
L 122.858268 -410.058514 
L 182.648018 -392.161055 
L 194.793547 -384.640299 
L 195.839209 -374.108519 
L 178.272475 -365.794497 
L 152.433495 -361.57498 
L 81.790576 -373.60262 
L 70.171358 -371.591684 
L 95.969987 -360.002374 
L 98.013521 -336.49113 
L 130.750892 -327.557749 
L 132.796009 -335.230576 
L 123.263668 -342.031015 
L 133.335138 -348.02458 
L 171.588659 -338.175138 
L 184.914989 -342.031015 
L 174.265319 -353.620009 
L 211.143402 -369.118365 
L 225.748325 -368.206101 
L 240.523516 -362.675552 
L 249.741257 -373.550875 
L 236.545952 -382.983824 
L 244.292835 -392.447631 
L 232.660009 -402.263051 
L 276.923077 -397.186813 
L 285.964062 -388.3248 
L 265.927965 -386.371305 
L 266.03636 -377.565626 
L 278.492044 -372.147745 
L 302.940554 -375.579692 
L 306.811147 -385.672826 
L 395.089002 -406.798101 
L 407.024862 -406.019077 
L 391.423965 -396.416334 
L 411.053222 -394.766031 
L 422.389662 -400.172202 
L 452.049547 -400.609266 
L 475.548132 -407.16902 
L 493.578514 -397.636853 
L 511.561424 -408.116413 
L 494.98022 -417.283516 
L 503.208791 -422.505495 
L 549.953407 -417.716941 
L 571.855886 -412.771015 
L 629.203411 -394.691815 
L 639.782189 -402.972607 
L 623.701029 -411.339323 
L 623.238646 -414.696105 
L 604.168299 -416.248774 
L 609.385213 -423.751332 
L 600.921811 -436.096721 
L 600.442971 -441.161723 
L 629.644905 -455.490989 
L 640.030312 -469.872949 
L 651.797802 -472.984615 
L 693.692941 -468.811622 
L 696.992123 -460.009741 
L 681.99207 -447.175068 
L 691.834708 -442.130479 
L 696.926453 -431.068589 
L 693.331516 -409.384879 
L 710.788273 -399.685451 
L 703.997011 -389.122813 
L 673.002198 -366.646154 
L 691.089389 -364.314778 
L 697.383613 -370.011481 
L 714.793688 -374.074971 
L 718.995323 -381.905248 
L 732.690989 -389.440404 
L 723.469609 -398.436765 
L 730.852853 -408.883727 
L 713.549433 -410.185741 
L 709.743877 -418.986673 
L 722.370462 -434.876044 
L 701.819604 -447.779393 
L 730.140448 -458.445204 
L 726.476202 -469.697459 
L 734.36851 -470.056668 
L 742.684114 -461.283587 
L 736.441002 -446.013257 
L 753.374927 -443.122338 
L 746.15942 -454.533785 
L 772.641495 -460.755218 
L 805.482514 -461.592949 
L 834.725275 -452.571429 
L 820.652993 -465.750593 
L 819.076589 -482.608879 
L 846.593407 -485.802198 
L 884.654664 -485.10451 
L 918.946286 -487.177002 
L 906.085345 -495.449723 
L 924.398031 -505.842409 
L 942.578268 -506.277574 
L 973.345055 -514.127473 
L 1015.130057 -516.23731 
L 1020.409477 -520.571077 
L 1061.96044 -522.03956 
L 1074.907938 -518.486716 
L 1110.422611 -526.895842 
L 1139.493679 -526.633002 
L 1143.855613 -533.462875 
L 1158.97593 -540.198435 
L 1196.333011 -546.69236 
L 1223.472105 -541.564853 
L 1201.925275 -537.664352 
L 1237.76909 -535.23993 
L 1242.03956 -527.41978 
L 1256.499692 -531.270593 
L 1302.761037 -531.059341 
L 1338.432686 -523.340941 
L 1351.134119 -517.413204 
L 1347.19738 -509.187007 
L 1288.107692 -495.719684 
L 1276.21978 -491.024176 
L 1319.248721 -484.816985 
L 1333.496018 -487.81076 
L 1341.56698 -477.653538 
L 1348.517433 -481.765134 
L 1373.820448 -484.264879 
L 1424.592475 -481.651833 
L 1428.448352 -474.250549 
L 1494.603851 -471.896229 
L 1495.507569 -483.982892 
L 1529.09011 -481.213187 
L 1554.352457 -481.300062 
L 1579.905653 -472.964202 
L 1587.189679 -462.836888 
L 1577.828571 -456.210989 
L 1597.703578 -443.757996 
L 1622.588519 -437.332589 
L 1637.857582 -453.937055 
L 1663.242092 -446.818075 
L 1690.21076 -451.072088 
L 1720.840352 -446.204255 
L 1732.49549 -450.641354 
L 1758.379727 -448.422804 
L 1746.955938 -463.113336 
L 1767.847965 -469.968686 
L 1910.769231 -459.692308 
L 1924.238453 -450.299552 
L 1965.661714 -438.206558 
L 2029.55942 -441.200334 
L 2061.06393 -438.594251 
L 2074.237873 -432.05127 
L 2072.312862 -420.479684 
L 2091.806189 -415.974541 
L 2112.987481 -419.214699 
L 2141.050233 -419.629134 
L 2170.924536 -416.523798 
L 2200.916097 -418.275534 
L 2228.481178 -404.209582 
L 2248.091288 -409.270629 
L 2235.294593 -419.384334 
L 2242.340308 -426.414541 
L 2292.826708 -421.990101 
L 2325.742892 -422.936703 
L 2371.252747 -415.384615 
L 2393.406593 -408.47952 
L 2393.406593 -345.437149 
L 2372.949099 -338.398892 
L 2352.442233 -339.558488 
L 2366.711209 -331.135596 
L 2376.130549 -318.097108 
L 2383.442743 -313.834866 
L 2385.278664 -307.288721 
L 2381.194286 -303.097846 
L 2351.698813 -306.544352 
L 2307.470084 -294.632703 
L 2293.399859 -292.788554 
L 2246.218022 -271.957134 
L 2240.400264 -264.76647 
L 2217.765521 -275.713319 
L 2176.535947 -263.291341 
L 2169.336264 -269.169231 
L 2154.093468 -262.390154 
L 2132.929424 -264.559807 
L 2127.831191 -254.152246 
L 2108.845662 -238.838716 
L 2109.409635 -232.443218 
L 2127.432422 -228.897178 
L 2125.312457 -205.860501 
L 2110.621925 -205.274215 
L 2103.847279 -192.037134 
L 2110.430611 -185.224193 
L 2082.758558 -177.141046 
L 2077.266936 -159.073635 
L 2053.676413 -155.214277 
L 2048.932958 -139.137073 
L 2026.124149 -124.394637 
L 2020.272527 -135.296703 
L 2004.66451 -193.545969 
L 2012.272141 -215.49236 
L 2025.623473 -224.935912 
L 2026.449495 -232.331182 
L 2051.039947 -235.871209 
L 2079.306831 -255.794163 
L 2106.546567 -272.065055 
L 2134.992897 -284.691165 
L 2147.713319 -306.998664 
L 2128.484888 -305.664053 
L 2118.982312 -292.628571 
L 2078.845398 -275.249354 
L 2065.882866 -294.708818 
L 2025.030541 -289.335877 
L 1985.428642 -262.81076 
L 1998.494505 -253.106901 
L 1938.710453 -247.345952 
L 1939.85644 -258.787938 
L 1915.258708 -261.189574 
L 1895.654136 -253.415947 
L 1847.270295 -256.135965 
L 1795.218251 -251.445837 
L 1683.315534 -183.237468 
L 1708.24684 -181.242989 
L 1716.027745 -171.333415 
L 1731.397451 -167.815543 
L 1741.523815 -175.720352 
L 1758.881037 -174.693837 
L 1781.727982 -157.285503 
L 1782.264738 -143.822295 
L 1769.89324 -128.01236 
L 1768.558629 -109.116079 
L 1761.419552 -83.81607 
L 1737.569196 -60.917538 
L 1732.267938 -49.971956 
L 1679.251886 -3.927719 
L 1658.165855 5.356958 
L 1648.18713 5.562356 
L 1638.246382 -2.129301 
L 1617.007174 9.451147 
L 1614.540659 14.716484 
L 1612.325275 11.947253 
L 1612.228216 3.90834 
L 1620.311545 3.481481 
L 1622.588125 -15.215256 
L 1618.420589 -28.767719 
L 1632.001913 -34.356843 
L 1651.207174 -31.554831 
L 1661.849312 -46.949174 
L 1667.272352 -64.285398 
L 1673.419411 -70.076571 
L 1681.735039 -84.314847 
L 1655.582176 -79.650066 
L 1641.864105 -73.407719 
L 1617.820378 -73.426233 
L 1611.412114 -88.293955 
L 1592.668766 -99.543562 
L 1565.128088 -104.602075 
L 1559.274024 -120.102286 
L 1538.052115 -152.58934 
L 1524.156311 -158.416534 
L 1500.471613 -163.128264 
L 1479.493154 -162.69984 
L 1459.829033 -159.846347 
L 1446.758326 -151.973584 
L 1455.441057 -148.212812 
L 1455.637451 -139.476026 
L 1446.83731 -134.403429 
L 1432.552985 -117.619833 
L 1432.696521 -110.656607 
L 1410.396835 -100.657319 
L 1391.400805 -106.631706 
L 1372.520895 -105.312696 
L 1364.235584 -110.614902 
L 1354.746564 -112.32479 
L 1331.568628 -101.172903 
L 1310.735962 -98.552465 
L 1296.190057 -94.630598 
L 1276.258536 -97.207287 
L 1261.585065 -97.042513 
L 1251.979926 -105.131158 
L 1236.482176 -112.736112 
L 1220.622985 -114.820523 
L 1185.650829 -109.819244 
L 1163.170127 -116.474796 
L 1160.152774 -128.332642 
L 1127.183455 -134.252407 
L 1109.456553 -140.793485 
L 1093.066651 -124.39377 
L 1099.491611 -115.079746 
L 1084.110488 -104.060571 
L 1061.232844 -108.038927 
L 1045.439198 -108.608176 
L 1034.862589 -115.9997 
L 1018.352334 -116.23316 
L 1004.593238 -121.089295 
L 980.523968 -113.646253 
L 950.329849 -100.017031 
L 927.454476 -95.973322 
L 919.057953 -105.652875 
L 898.675041 -103.535345 
L 891.938524 -110.251827 
L 880.874543 -113.323247 
L 873.258959 -122.467182 
L 864.522258 -125.314542 
L 841.782628 -121.247936 
L 819.984215 -130.364885 
L 811.551711 -122.079574 
L 776.190312 -162.267666 
L 756.00284 -174.493242 
L 761.793235 -179.454452 
L 722.133415 -164.521582 
L 706.955796 -163.618976 
L 708.266628 -172.255914 
L 687.942594 -177.652569 
L 671.421854 -173.801437 
L 666.439383 -190.202378 
L 638.001763 -193.61275 
L 623.774775 -187.047957 
L 584.179042 -181.206593 
L 576.45152 -177.297671 
L 517.238505 -171.791209 
L 509.98259 -166.391104 
L 521.406375 -155.551592 
L 506.215276 -151.437149 
L 509.178754 -147.126039 
L 493.991744 -139.417642 
L 519.634339 -128.534381 
L 515.669133 -121.040231 
L 493.442225 -121.722632 
L 488.844907 -117.026778 
L 468.606382 -125.226831 
L 443.519684 -124.908923 
L 426.7296 -118.233653 
L 373.113868 -135.59186 
L 348.395315 -135.182174 
L 315.729995 -117.971264 
L 313.759249 -106.413779 
L 297.486284 -115.590832 
L 284.860425 -98.204926 
L 289.482274 -94.977319 
L 280.348153 -82.984389 
L 293.779622 -72.250813 
L 305.521319 -72.692624 
L 315.60897 -62.11983 
L 314.003077 -53.976897 
L 322.040334 -51.417969 
L 314.828466 -42.0336 
L 299.486927 -39.425776 
L 283.759279 -23.090637 
L 298.142347 -8.072862 
L 296.584932 2.585987 
L 313.862558 21.222119 
L 304.414151 27.600224 
L 301.698447 31.625943 
L 294.698618 30.544894 
L 283.823535 20.933214 
L 269.428747 16.735015 
L 264.584637 10.241713 
L 249.826121 6.931104 
L 240.230136 9.416018 
L 237.457424 6.474778 
L 215.911385 -1.11244 
L 179.239885 -6.378791 
L 177.310026 -4.509853 
L 157.134066 -17.881319 
L 139.08058 -23.850356 
L 125.413873 -33.146743 
L 136.929284 -35.675763 
L 150.059868 -48.91047 
L 141.210514 -55.172097 
L 164.534558 -61.631209 
L 164.115692 -65.090532 
L 149.910932 -62.540147 
L 150.410569 -69.569414 
L 158.567262 -73.987833 
L 173.880437 -75.148015 
L 176.370251 -80.424949 
L 172.873582 -89.150558 
L 179.300398 -97.436254 
L 179.114479 -102.082549 
L 155.788825 -107.231925 
L 146.541855 -107.061018 
L 136.775623 -114.47135 
L 124.633865 -111.965395 
L 104.536344 -117.529277 
L 104.881213 -120.642567 
L 99.252128 -127.504441 
L 86.634446 -128.270661 
L 85.323614 -133.182807 
L 89.275737 -136.3867 
L 79.163602 -145.346235 
L 62.754892 -143.817476 
L 57.949052 -144.612316 
L 53.951578 -141.013187 
L 48.041723 -141.652958 
L 44.149741 -151.786322 
L 40.433944 -157.039056 
L 43.479138 -158.517574 
L 56.247341 -157.968414 
L 62.404901 -161.429076 
L 57.846835 -165.64819 
L 47.176185 -168.432993 
L 48.128031 -171.290984 
L 41.688353 -174.177596 
L 31.767568 -184.537914 
L 35.158723 -188.80691 
L 33.609112 -196.235232 
L 18.139164 -200.009088 
L 9.835863 -198.120116 
L 7.587904 -202.048524 
L -9.071851 -206.017001 
L -14.158175 -215.356375 
L -15.507441 -223.030019 
z
" clip-path="url(#p0492565c8d)" style="fill: #e8edf4; stroke: #b8c5d4; stroke-width: 0.45"/>
    <path d="M 359.299837 -456.762954 
L 375.480398 -460.158197 
L 374.940692 -468.786958 
L 406.327072 -482.282071 
L 391.779531 -484.216836 
L 429.665284 -498.105281 
L 425.384431 -505.288282 
L 460.77854 -513.6431 
L 513.020483 -523.810024 
L 565.688466 -526.771867 
L 592.789087 -532.638312 
L 623.584242 -534.694103 
L 634.58444 -528.445366 
L 623.956313 -523.521363 
L 519.563196 -508.128282 
L 470.406575 -493.066385 
L 422.020262 -462.402476 
L 425.24051 -449.257764 
L 455.509861 -436.27987 
L 446.16231 -434.891761 
L 394.455167 -436.947552 
L 390.256087 -443.973548 
L 361.612398 -448.215967 
z
" clip-path="url(#p0492565c8d)" style="fill: #e8edf4; stroke: #b8c5d4; stroke-width: 0.45"/>
    <path d="M -3303.296703 -345.437149 
L -3303.296703 -408.47952 
L -3264.527473 -396.395604 
L -3223.04044 -380.664633 
L -3224.401319 -370.829275 
L -3213.729178 -366.892378 
L -3217.400229 -378.390699 
L -3174.445345 -376.031156 
L -3143.465881 -361.222259 
L -3159.155393 -354.325292 
L -3185.094066 -352.687807 
L -3185.485714 -337.225688 
L -3191.820607 -333.932677 
L -3206.640105 -334.405978 
L -3218.699393 -339.923077 
L -3239.739376 -344.537881 
L -3243.278136 -351.402251 
L -3259.347587 -353.990611 
L -3277.343947 -351.937899 
L -3285.942646 -357.475095 
L -3282.505477 -363.356466 
L -3301.457459 -359.597433 
L -3294.319332 -352.152949 
z
" clip-path="url(#p0492565c8d)" style="fill: #e8edf4; stroke: #b8c5d4; stroke-width: 0.45"/>
    <path d="M 1785.664499 -139.022266 
L 1787.064464 -160.646502 
L 1801.692143 -167.92845 
L 1795.407017 -175.260279 
L 1802.449367 -177.482071 
L 1812.039786 -151.765879 
L 1811.635007 -136.193305 
L 1818.166272 -120.225765 
L 1834.08761 -92.197831 
L 1810.664353 -97.422352 
L 1800.928377 -74.556792 
L 1816.354167 -58.339432 
L 1815.907682 -47.281176 
L 1803.919658 -56.820895 
L 1793.544212 -44.572831 
L 1790.615078 -57.852061 
L 1792.379755 -73.268038 
L 1790.575827 -90.343203 
L 1794.236835 -102.305877 
L 1794.936 -123.465639 
z
" clip-path="url(#p0492565c8d)" style="fill: #e8edf4; stroke: #b8c5d4; stroke-width: 0.45"/>
    <path d="M 58.615507 -34.456607 
L 61.410532 -37.490411 
L 76.559927 -42.750095 
L 74.1519 -44.654517 
L 78.321155 -48.57346 
L 94.660495 -44.55559 
L 96.714073 -41.430579 
L 99.101417 -40.948619 
L 99.230049 -39.579729 
L 106.971564 -35.762533 
L 123.112056 -36.711925 
L 120.021828 -31.06627 
L 102.698889 -28.325215 
L 81.217757 -19.17065 
L 72.418089 -22.389263 
L 75.907373 -29.824945 
z
" clip-path="url(#p0492565c8d)" style="fill: #e8edf4; stroke: #b8c5d4; stroke-width: 0.45"/>
    <path d="M 254.721094 -592.454134 
L 285.612743 -595.335839 
L 309.655027 -595.52719 
L 312.888359 -591.263509 
L 321.977505 -595.052085 
L 336.893027 -597.661483 
L 360.362895 -594.193461 
L 354.242952 -591.781137 
L 318.768705 -588.494243 
L 316.561633 -585.89752 
L 298.066059 -583.281988 
L 280.923839 -587.033356 
L 289.937754 -591.973305 
z
" clip-path="url(#p0492565c8d)" style="fill: #e8edf4; stroke: #b8c5d4; stroke-width: 0.45"/>
    <path d="M 987.920229 -588.524202 
L 1029.009125 -599.33433 
L 1063.240536 -602.907429 
L 1093.986198 -594.941143 
L 1130.426189 -579.641697 
L 1126.519279 -565.412677 
L 1091.993776 -563.438769 
L 1047.917908 -568.004756 
L 1021.654365 -574.045714 
L 1009.509626 -585.396237 
z
" clip-path="url(#p0492565c8d)" style="fill: #e8edf4; stroke: #b8c5d4; stroke-width: 0.45"/>
    <path d="M 1712.561776 -508.140712 
L 1721.065213 -519.019833 
L 1741.942286 -521.98829 
L 1783.726655 -521.294084 
L 1840.925829 -512.903077 
L 1828.483516 -501.151648 
L 1770.152598 -501.589662 
L 1743.910259 -497.851991 
z
" clip-path="url(#p0492565c8d)" style="fill: #e8edf4; stroke: #b8c5d4; stroke-width: 0.45"/>
    <path d="M -143.831629 -178.434734 
L -140.226227 -185.398582 
L -118.38938 -190.530699 
L -101.817123 -187.758571 
L -94.822201 -185.246892 
L -96.510827 -180.913704 
L -95.244153 -176.87531 
L -124.342505 -176.637757 
z
" clip-path="url(#p0492565c8d)" style="fill: #e8edf4; stroke: #b8c5d4; stroke-width: 0.45"/>
    <path d="M 1758.273547 -478.203903 
L 1773.284202 -484.458092 
L 1793.070119 -485.922145 
L 1815.552475 -479.872088 
L 1817.467516 -475.713336 
L 1793.474585 -475.602567 
z
" clip-path="url(#p0492565c8d)" style="fill: #e8edf4; stroke: #b8c5d4; stroke-width: 0.45"/>
    <path d="M 1118.581556 -550.222418 
L 1147.488527 -570.999402 
L 1160.487297 -572.778356 
L 1172.378611 -571.747886 
L 1212.486804 -562.760545 
L 1207.787657 -556.328809 
z
" clip-path="url(#p0492565c8d)" style="fill: #e8edf4; stroke: #b8c5d4; stroke-width: 0.45"/>
    <path d="M -3303.296703 -438.047987 
L -3303.296703 -448.864051 
L -3287.85753 -449.494101 
L -3264.969679 -444.967596 
L -3266.324703 -442.804273 
L -3282.626848 -439.010426 
z
" clip-path="url(#p0492565c8d)" style="fill: #e8edf4; stroke: #b8c5d4; stroke-width: 0.45"/>
    <path d="M 1857.270699 -506.737266 
L 1861.057345 -511.861767 
L 1930.259393 -505.33018 
L 1911.970681 -499.077415 
L 1886.676369 -500.492651 
z
" clip-path="url(#p0492565c8d)" style="fill: #e8edf4; stroke: #b8c5d4; stroke-width: 0.45"/>
    <path d="M 2373.235516 -442.266725 
L 2393.406593 -448.864051 
L 2393.406593 -438.047987 
L 2376.054198 -437.240018 
z
" clip-path="url(#p0492565c8d)" style="fill: #e8edf4; stroke: #b8c5d4; stroke-width: 0.45"/>
    <path d="M 87.277188 188.792531 
L 91.881047 183.579049 
L 90.800816 182.681583 
L 94.985994 175.285561 
L 98.195611 163.347011 
L 100.459107 159.340917 
L 106.191443 159.2064 
L 107.648651 156.433454 
L 111.894341 156.22534 
L 112.136391 162.702225 
L 107.535803 170.204962 
L 101.811644 168.013018 
L 98.49981 178.550785 
L 102.475647 180.32691 
L 98.434391 182.503725 
L 97.752398 186.670913 
L 105.192169 184.524353 
L 105.561786 190.680277 
L 97.676348 215.979014 
z
" clip-path="url(#p0492565c8d)" style="fill: #e8edf4; stroke: #b8c5d4; stroke-width: 0.45"/>
    <path d="M 100.895779 159.176961 
L 106.531622 146.287382 
L 114.699996 134.585975 
L 121.817579 135.392673 
L 124.405716 141.59807 
L 115.776956 147.561825 
L 111.894341 156.22534 
L 107.648651 156.433454 
L 106.191443 159.2064 
z
" clip-path="url(#p0492565c8d)" style="fill: #e8edf4; stroke: #b8c5d4; stroke-width: 0.45"/>
    <path d="M 97.752398 186.670913 
L 98.434391 182.503725 
L 102.475647 180.32691 
L 98.49981 178.550785 
L 101.811644 168.013018 
L 107.535803 170.204962 
L 107.529261 179.881243 
L 105.192169 184.524353 
z
" clip-path="url(#p0492565c8d)" style="fill: #e8edf4; stroke: #b8c5d4; stroke-width: 0.45"/>
    <path d="M 97.676348 215.979014 
L 105.561786 190.680277 
L 105.192169 184.524353 
L 107.529261 179.881243 
L 107.535803 170.204962 
L 110.293212 165.217175 
L 127.92362 171.487582 
L 158.911762 154.622984 
L 165.290928 173.891729 
L 162.275114 176.277885 
L 130.583719 184.21852 
L 146.355411 200.041321 
L 141.121895 202.728813 
L 138.51822 208.028158 
L 126.443517 210.219693 
L 122.656577 215.916866 
L 115.816207 220.786898 
L 98.205424 218.269904 
z
" clip-path="url(#p0492565c8d)" style="fill: #e8edf4; stroke: #b8c5d4; stroke-width: 0.45"/>
    <path d="M 361.258317 299.148177 
L 364.073786 298.379504 
L 364.658468 302.719234 
L 377.043912 300.225137 
L 399.687048 301.106248 
L 432.329471 270.50694 
L 435.339561 275.900733 
L 437.488574 288.399843 
L 429.408515 288.461582 
L 428.109131 298.766703 
L 430.911515 300.967233 
L 423.749775 304.083629 
L 423.705617 310.551519 
L 419.095216 317.100774 
L 418.681442 323.47258 
L 415.492267 326.817533 
L 367.923691 318.838874 
z
" clip-path="url(#p0492565c8d)" style="fill: #e8edf4; stroke: #b8c5d4; stroke-width: 0.45"/>
    <path d="M 348.035511 279.574826 
L 352.299191 271.273978 
L 356.620931 269.571449 
L 361.409599 274.531842 
L 361.688447 283.795984 
L 358.253134 293.105101 
L 353.866793 294.229489 
L 349.083032 291.089788 
z
" clip-path="url(#p0492565c8d)" style="fill: #e8edf4; stroke: #b8c5d4; stroke-width: 0.45"/>
    <path d="M 281.966454 222.345096 
L 293.579954 207.153179 
L 304.21217 208.470553 
L 307.514192 215.454436 
L 306.10196 219.065153 
L 311.199732 231.001251 
L 300.008184 231.411755 
L 296.06751 223.87222 
z
" clip-path="url(#p0492565c8d)" style="fill: #e8edf4; stroke: #b8c5d4; stroke-width: 0.45"/>
    <path d="M 158.911762 154.622984 
L 193.943613 138.154988 
L 199.922088 119.024441 
L 198.430536 107.464912 
L 207.092006 103.55572 
L 215.202321 93.681138 
L 221.99935 91.222203 
L 240.404974 93.264092 
L 245.962314 97.294717 
L 253.54566 94.621657 
L 263.798792 113.498175 
L 274.175056 118.248 
L 275.368952 127.49129 
L 267.404194 132.952546 
L 263.736644 145.300783 
L 274.69759 160.341827 
L 294.086951 169.015563 
L 302.229158 181.041612 
L 299.635296 192.503422 
L 304.689728 192.498924 
L 304.845916 200.928157 
L 313.603061 209.246586 
L 293.579954 207.153179 
L 281.966454 222.345096 
L 252.545914 221.081284 
L 207.929368 189.257006 
L 184.351559 178.18035 
L 165.290928 173.891729 
z
" clip-path="url(#p0492565c8d)" style="fill: #e8edf4; stroke: #b8c5d4; stroke-width: 0.45"/>
    <path d="M 367.912243 382.153793 
L 415.384326 366.329765 
L 425.933951 334.681301 
L 418.681442 323.47258 
L 419.095216 317.100774 
L 423.705617 310.551519 
L 423.749775 304.083629 
L 430.911515 300.967233 
L 428.109131 298.766703 
L 429.408515 288.461582 
L 437.488574 288.399843 
L 444.582442 299.20869 
L 453.417272 304.95411 
L 474.396313 309.905916 
L 485.803744 324.233076 
L 491.468208 326.237349 
L 491.437951 329.76752 
L 483.150187 343.639609 
L 476.483996 348.700992 
L 470.579117 359.541322 
L 463.400204 358.711319 
L 460.109631 362.484357 
L 457.568105 370.507174 
L 459.513501 381.084602 
L 458.021131 383.028771 
L 450.740001 382.976845 
L 440.856014 388.890719 
L 439.313763 396.599525 
L 435.695277 399.939163 
L 425.852177 399.811596 
L 419.656184 403.796428 
L 419.734687 410.188678 
L 412.077398 414.582378 
L 403.346421 413.090417 
L 392.764087 418.428195 
L 385.454336 419.324026 
z
" clip-path="url(#p0492565c8d)" style="fill: #e8edf4; stroke: #b8c5d4; stroke-width: 0.45"/>
    <path d="M 432.329471 270.50694 
L 436.937419 265.119281 
L 438.894264 266.493079 
L 437.402711 273.030477 
L 435.339561 275.900733 
z
" clip-path="url(#p0492565c8d)" style="fill: #e8edf4; stroke: #b8c5d4; stroke-width: 0.45"/>
    <path d="M 508.339756 210.790064 
L 534.854877 218.870941 
L 550.685447 216.501139 
L 560.14421 218.518905 
L 563.347285 215.050065 
L 574.367926 216.440218 
L 594.933193 209.861115 
L 595.486801 196.395441 
L 604.307729 187.438768 
L 616.088866 187.466571 
L 617.818379 183.039343 
L 629.911891 180.976193 
L 635.762799 182.449755 
L 641.951432 177.99963 
L 641.077271 168.496709 
L 647.796616 158.94595 
L 657.867864 154.941901 
L 651.648157 144.472824 
L 666.701059 144.967555 
L 671.052237 139.269973 
L 670.391506 133.190099 
L 678.272854 126.542715 
L 676.46402 118.672406 
L 672.722874 111.965736 
L 681.963301 105.07344 
L 698.954239 101.749339 
L 717.112906 99.911067 
L 734.368791 95.213577 
L 746.060794 102.5912 
L 750.743974 114.750539 
L 776.768452 121.14974 
L 761.486584 134.449413 
L 743.847998 136.801225 
L 719.844965 132.940689 
L 712.087095 139.763886 
L 723.189509 164.335655 
L 735.960925 172.14954 
L 722.467448 181.303287 
L 722.711951 192.583151 
L 707.350762 208.461149 
L 697.430796 224.519868 
L 680.877346 241.110115 
L 662.502797 239.907224 
L 645.062921 256.494609 
L 655.420377 263.601152 
L 657.223487 275.780117 
L 666.113924 283.804979 
L 669.255669 297.391269 
L 634.432341 297.349974 
L 623.894165 307.907367 
L 612.295384 303.905771 
L 607.576224 292.531867 
L 595.350239 280.481287 
L 566.195463 283.457849 
L 540.485814 283.752644 
L 518.200028 285.970755 
L 524.162966 267.587211 
L 546.988458 259.413112 
L 545.679261 252.125849 
L 538.107835 249.564288 
L 537.671163 235.627597 
L 522.543847 228.669883 
L 516.173676 219.112991 
z
" clip-path="url(#p0492565c8d)" style="fill: #e8edf4; stroke: #b8c5d4; stroke-width: 0.45"/>
    <path d="M 502.867461 149.911184 
L 513.665677 118.680174 
L 529.803716 124.683999 
L 541.735316 122.57342 
L 545.040608 115.403093 
L 557.53154 113.016937 
L 566.449779 108.204555 
L 569.608697 95.549258 
L 582.945987 92.488877 
L 585.425365 86.856305 
L 592.890486 91.087276 
L 606.473915 91.682998 
L 623.244064 96.952903 
L 634.698923 91.86985 
L 640.028933 94.92696 
L 645.132429 87.681811 
L 654.59201 88.010541 
L 657.028866 85.685306 
L 658.701956 79.304504 
L 665.514522 73.799499 
L 674.080317 77.397542 
L 672.359798 82.234047 
L 677.14683 82.985547 
L 675.671633 96.279906 
L 681.937134 101.461905 
L 687.450316 98.136986 
L 694.473859 96.566114 
L 704.334949 89.48165 
L 731.551688 90.672684 
L 734.368791 95.213577 
L 717.112906 99.911067 
L 698.954239 101.749339 
L 681.963301 105.07344 
L 672.722874 111.965736 
L 676.46402 118.672406 
L 678.272854 126.542715 
L 670.391506 133.190099 
L 671.052237 139.269973 
L 666.701059 144.967555 
L 651.648157 144.472824 
L 657.867864 154.941901 
L 647.796616 158.94595 
L 641.077271 168.496709 
L 641.951432 177.99963 
L 635.762799 182.449755 
L 629.911891 180.976193 
L 617.818379 183.039343 
L 616.088866 187.466571 
L 604.307729 187.438768 
L 595.486801 196.395441 
L 594.933193 209.861115 
L 574.367926 216.440218 
L 563.347285 215.050065 
L 560.14421 218.518905 
L 550.685447 216.501139 
L 534.854877 218.870941 
L 508.339756 210.790064 
L 522.691858 196.443687 
L 521.395744 186.258365 
L 509.410992 183.590907 
L 508.17212 173.545008 
L 502.988486 160.91179 
L 509.755259 152.247049 
z
" clip-path="url(#p0492565c8d)" style="fill: #e8edf4; stroke: #b8c5d4; stroke-width: 0.45"/>
    <path d="M 375.863099 21.626655 
L 382.85475 16.361656 
L 400.81716 13.069038 
L 411.513159 17.50199 
L 422.588589 29.909922 
L 448.558279 28.921687 
L 445.960328 20.950796 
L 459.479156 15.498943 
L 472.810721 6.305127 
L 494.132395 14.667714 
L 495.824292 27.29439 
L 501.878817 30.53549 
L 518.988327 29.806887 
L 524.297893 32.679188 
L 532.076207 48.993449 
L 560.495837 67.372905 
L 577.044379 75.122189 
L 598.092929 81.895095 
L 597.657075 91.577918 
L 592.890486 91.087276 
L 585.425365 86.856305 
L 582.945987 92.488877 
L 569.608697 95.549258 
L 566.449779 108.204555 
L 557.53154 113.016937 
L 545.040608 115.403093 
L 541.735316 122.57342 
L 529.803716 124.683999 
L 513.665677 118.680174 
L 512.27716 105.363737 
L 500.481304 104.797454 
L 482.396234 90.783487 
L 469.758927 89.053564 
L 452.261809 81.031974 
L 441.009749 79.57354 
L 434.063074 82.521073 
L 423.479922 82.062322 
L 412.224591 91.108946 
L 398.319791 94.170962 
L 395.375121 82.979823 
L 397.676233 66.428418 
L 385.334946 61.072241 
L 389.398281 50.237227 
L 378.893632 49.314002 
L 382.395182 35.975894 
L 397.315611 39.860554 
L 411.22041 34.797127 
L 399.691954 25.299521 
L 395.156785 16.248399 
L 382.418896 20.284749 
L 380.803866 31.87985 
z
" clip-path="url(#p0492565c8d)" style="fill: #e8edf4; stroke: #b8c5d4; stroke-width: 0.45"/>
    <path d="M 243.047082 58.895426 
L 253.882914 54.387651 
L 256.394184 60.35713 
L 264.385927 67.661975 
L 275.23975 69.765603 
L 280.969633 69.300311 
L 299.632025 57.625889 
L 305.566342 56.456934 
L 310.241345 61.100862 
L 304.785404 68.929876 
L 314.653853 77.216004 
L 318.592074 76.426888 
L 323.59826 88.095177 
L 338.602097 91.391474 
L 349.5933 99.331291 
L 372.090061 102.059262 
L 396.803707 97.87204 
L 398.319791 94.170962 
L 412.224591 91.108946 
L 423.479922 82.062322 
L 434.063074 82.521073 
L 441.009749 79.57354 
L 452.261809 81.031974 
L 469.758927 89.053564 
L 482.396234 90.783487 
L 500.481304 104.797454 
L 512.27716 105.363737 
L 513.665677 118.680174 
L 502.867461 149.911184 
L 509.755259 152.247049 
L 502.988486 160.91179 
L 508.17212 173.545008 
L 509.410992 183.590907 
L 521.395744 186.258365 
L 522.691858 196.443687 
L 508.339756 210.790064 
L 516.173676 219.112991 
L 522.543847 228.669883 
L 537.671163 235.627597 
L 538.107835 249.564288 
L 545.679261 252.125849 
L 546.988458 259.413112 
L 524.162966 267.587211 
L 518.200028 285.970755 
L 471.176883 277.556651 
L 453.319143 275.500451 
L 446.57036 256.09678 
L 438.996481 253.29276 
L 426.836732 256.120085 
L 410.876142 263.778601 
L 391.539117 258.529547 
L 375.564625 246.368981 
L 360.328551 241.861615 
L 349.760936 226.847147 
L 338.083652 205.749534 
L 329.56774 208.313957 
L 319.511211 203.070218 
L 313.603061 209.246586 
L 304.845916 200.928157 
L 304.689728 192.498924 
L 299.635296 192.503422 
L 302.229158 181.041612 
L 294.086951 169.015563 
L 274.69759 160.341827 
L 263.736644 145.300783 
L 267.404194 132.952546 
L 275.368952 127.49129 
L 274.175056 118.248 
L 263.798792 113.498175 
L 253.545547 94.621451 
L 244.891078 81.944159 
L 247.987031 77.043462 
z
" clip-path="url(#p0492565c8d)" style="fill: #e8edf4; stroke: #b8c5d4; stroke-width: 0.45"/>
    <path d="M 110.293212 165.217175 
L 112.136391 162.702225 
L 111.894341 156.22534 
L 115.776956 147.561825 
L 124.405716 141.59807 
L 121.817579 135.392673 
L 114.699996 134.585975 
L 113.222346 122.478971 
L 117.095148 115.966923 
L 125.570991 109.033331 
L 126.427162 100.20627 
L 131.60589 103.283823 
L 149.027776 98.881945 
L 157.448831 101.861369 
L 170.467203 101.811896 
L 188.675752 95.874308 
L 197.202295 96.142117 
L 215.202321 93.681138 
L 207.092006 103.55572 
L 198.430536 107.464912 
L 199.922088 119.024441 
L 193.943613 138.154988 
L 158.911762 154.622984 
L 127.92362 171.487582 
z
" clip-path="url(#p0492565c8d)" style="fill: #e8edf4; stroke: #b8c5d4; stroke-width: 0.45"/>
    <path d="M 234.715978 32.563887 
L 256.707377 30.095548 
L 259.983232 34.25374 
L 266.009953 36.992341 
L 262.826503 40.960819 
L 271.256553 46.388957 
L 266.795798 51.42867 
L 273.513507 55.732419 
L 280.618006 58.325463 
L 280.969633 69.300311 
L 275.23975 69.765603 
L 268.779628 60.611038 
L 268.852407 58.169684 
L 261.860756 58.205256 
L 257.174305 53.960383 
L 253.882914 54.387651 
L 247.648487 49.767028 
L 235.88207 45.833713 
L 237.404697 38.133084 
z
" clip-path="url(#p0492565c8d)" style="fill: #e8edf4; stroke: #b8c5d4; stroke-width: 0.45"/>
    <path d="M -40.813946 58.334049 
L -23.261222 43.199783 
L 1.107339 42.566854 
L 7.753905 30.540806 
L 37.913679 32.635439 
L 56.935058 22.371205 
L 75.375026 17.897775 
L 101.554875 17.561276 
L 129.174758 28.715208 
L 151.875136 34.83556 
L 170.30938 32.395842 
L 183.931242 33.80562 
L 202.614078 25.54566 
L 219.474179 24.79375 
L 234.715978 32.563887 
L 237.404697 38.133084 
L 235.88207 45.833713 
L 247.648487 49.767028 
L 253.882914 54.387651 
L 243.047082 58.895426 
L 247.987031 77.043462 
L 244.891078 81.944159 
L 253.54566 94.621657 
L 245.962314 97.294717 
L 240.404974 93.264092 
L 221.99935 91.222203 
L 215.202321 93.681138 
L 197.202295 96.142117 
L 188.675752 95.874308 
L 170.467203 101.811896 
L 157.448831 101.861369 
L 149.027776 98.881945 
L 131.60589 103.283823 
L 126.427162 100.20627 
L 125.570991 109.033331 
L 117.095148 115.966923 
L 111.276949 108.791281 
L 117.270143 102.84756 
L 107.619212 104.195191 
L 94.384139 100.554217 
L 83.502514 109.662171 
L 59.48558 111.440749 
L 46.674913 102.947733 
L 29.61692 102.416204 
L 25.968995 108.981405 
L 15.032581 110.85852 
L -0.270548 102.432559 
L -17.546059 102.71754 
L -26.920595 86.979783 
L -38.480943 78.200968 
L -30.782767 65.895663 
z
" clip-path="url(#p0492565c8d)" style="fill: #e8edf4; stroke: #b8c5d4; stroke-width: 0.45"/>
    <path d="M -42.830485 40.070712 
L -42.615421 36.80508 
L -38.854648 35.03059 
L -33.955586 25.126978 
L -41.664392 20.936894 
L -25.544344 15.95892 
L -11.920029 18.081357 
L -10.040051 24.16532 
L 3.773161 29.275767 
L 0.893092 33.152249 
L -17.896868 34.024774 
L -37.851285 47.440975 
z
" clip-path="url(#p0492565c8d)" style="fill: #e8edf4; stroke: #b8c5d4; stroke-width: 0.45"/>
    <path d="M 256.707377 30.095548 
L 260.58345 27.51109 
L 272.375217 32.061796 
L 280.905031 33.002194 
L 283.061404 31.147158 
L 275.268371 22.584225 
L 279.375046 20.402503 
L 283.823535 20.933214 
L 294.698618 30.544894 
L 301.698447 31.625943 
L 304.414151 27.600224 
L 313.862295 21.222296 
L 322.184393 29.555024 
L 330.233378 40.780099 
L 337.606094 41.520151 
L 342.479806 45.786285 
L 329.446715 47.059501 
L 326.694212 59.348861 
L 323.971966 64.891482 
L 318.169304 68.590106 
L 318.592074 76.426888 
L 314.653853 77.216004 
L 304.785404 68.929876 
L 310.241345 61.100862 
L 305.566342 56.456934 
L 299.632025 57.625889 
L 280.969633 69.300311 
L 280.618006 58.325463 
L 273.513507 55.732419 
L 266.795798 51.42867 
L 271.256553 46.388957 
L 262.826503 40.960819 
L 266.009953 36.992341 
L 259.983232 34.25374 
z
" clip-path="url(#p0492565c8d)" style="fill: #e8edf4; stroke: #b8c5d4; stroke-width: 0.45"/>
    <path d="M 253.882914 54.387651 
L 257.174305 53.960383 
L 261.860756 58.205256 
L 268.852407 58.169684 
L 268.779628 60.611038 
L 275.23975 69.765603 
L 264.385927 67.661975 
L 256.394184 60.35713 
z
" clip-path="url(#p0492565c8d)" style="fill: #e8edf4; stroke: #b8c5d4; stroke-width: 0.45"/>
    <path d="M 177.310026 -4.509853 
L 179.239885 -6.378791 
L 215.911385 -1.11244 
L 237.457424 6.474778 
L 240.230136 9.416018 
L 249.826121 6.931104 
L 264.584637 10.241713 
L 269.428747 16.735015 
L 279.375046 20.402503 
L 275.268371 22.584225 
L 283.061404 31.147158 
L 280.905031 33.002194 
L 272.375217 32.061796 
L 260.58345 27.51109 
L 256.707377 30.095548 
L 234.715978 32.563887 
L 219.474179 24.79375 
L 202.614078 25.54566 
L 204.973249 18.784202 
L 201.021944 7.989256 
L 191.875556 2.157974 
L 183.107781 0.3381 
z
" clip-path="url(#p0492565c8d)" style="fill: #e8edf4; stroke: #b8c5d4; stroke-width: 0.45"/>
    <path d="M 119.839965 448.259499 
L 126.654963 425.00793 
L 128.215859 414.489758 
L 133.199525 409.638224 
L 144.854505 407.03673 
L 152.862962 398.004806 
L 162.049419 416.324158 
L 166.408775 430.849211 
L 175.083328 438.55679 
L 196.683032 453.503795 
L 218.999891 477.092235 
L 226.77984 481.851873 
L 222.007528 485.716498 
L 215.233477 484.342734 
L 209.824615 479.222189 
L 203.317873 469.944949 
L 196.302066 464.861591 
L 192.209934 459.397345 
L 178.437363 453.052642 
L 167.587675 452.863385 
L 163.770725 449.554708 
L 154.490637 453.276079 
L 144.887262 446.092536 
L 139.945371 457.902593 
L 121.521916 454.595182 
z
" clip-path="url(#p0492565c8d)" style="fill: #e8edf4; stroke: #b8c5d4; stroke-width: 0.45"/>
    <path d="M 219.241941 442.074695 
L 222.409036 441.305204 
L 220.785829 434.074774 
L 222.704239 431.02298 
L 222.002621 424.12128 
L 228.950114 419.07339 
L 227.326906 412.4027 
L 231.520262 404.624387 
L 238.019635 408.73883 
L 242.309483 407.308608 
L 260.571184 406.945124 
L 263.472515 408.527445 
L 278.769103 410.110175 
L 284.835075 409.318606 
L 288.791287 414.593418 
L 296.176269 411.955807 
L 307.516645 395.340619 
L 322.285792 388.219766 
L 367.912243 382.153793 
L 385.454336 419.324026 
L 374.007654 423.575032 
L 370.946047 430.600619 
L 370.573159 435.996865 
L 354.817821 442.677367 
L 329.531759 450.059078 
L 315.363649 461.22405 
L 308.39653 462.096166 
L 303.648749 461.160266 
L 294.400144 467.727512 
L 284.314177 470.773991 
L 267.03376 472.494918 
L 263.574732 476.673145 
L 259.42717 477.82779 
L 256.977231 481.852691 
L 249.144946 481.503517 
L 244.089696 483.650894 
L 233.136927 482.846241 
L 229.021257 473.602543 
L 229.473466 464.952521 
L 226.886146 460.283652 
L 223.789376 448.579792 
z
" clip-path="url(#p0492565c8d)" style="fill: #e8edf4; stroke: #b8c5d4; stroke-width: 0.45"/>
    <path d="M 93.08312 238.809821 
L 98.205424 218.269904 
L 115.816207 220.786898 
L 122.656577 215.916866 
L 126.443517 210.219693 
L 138.51822 208.028158 
L 141.121895 202.728813 
L 146.355411 200.041321 
L 130.583719 184.21852 
L 162.275114 176.277885 
L 165.290928 173.891729 
L 184.351559 178.18035 
L 207.929368 189.257006 
L 252.545914 221.081284 
L 296.06751 223.87222 
L 300.008184 231.411755 
L 311.199732 231.001251 
L 317.394907 244.647645 
L 325.179763 248.262042 
L 327.891379 253.819791 
L 338.675694 260.471264 
L 339.633264 267.000893 
L 338.056667 272.271208 
L 340.059305 277.586907 
L 344.609193 282.021494 
L 349.083032 291.089788 
L 353.866793 294.229489 
L 358.253134 293.105101 
L 367.923691 318.838874 
L 415.492267 326.817533 
L 418.681442 323.47258 
L 425.933951 334.681301 
L 415.384326 366.329765 
L 367.912243 382.153793 
L 322.285792 388.219766 
L 307.516645 395.340619 
L 296.176269 411.955807 
L 288.791287 414.593418 
L 284.835075 409.318606 
L 278.769103 410.110175 
L 263.472515 408.527445 
L 260.571184 406.945124 
L 242.309483 407.308608 
L 238.019635 408.73883 
L 231.520262 404.624387 
L 227.326906 412.4027 
L 228.950114 419.07339 
L 222.002621 424.12128 
L 219.949284 417.368408 
L 215.176971 412.602637 
L 213.956907 406.290117 
L 205.783626 400.619929 
L 197.349488 387.350511 
L 192.886279 374.455617 
L 181.94087 363.566223 
L 174.8838 360.967455 
L 164.403684 345.886341 
L 162.572771 334.889006 
L 163.247404 325.508745 
L 154.171341 307.962973 
L 146.751196 301.787832 
L 138.202574 298.515249 
L 132.999314 289.448181 
L 133.864479 285.870991 
L 129.467508 277.667454 
L 124.846476 274.134422 
L 118.667656 262.362689 
L 100.961198 238.733771 
z
" clip-path="url(#p0492565c8d)" style="fill: #e8edf4; stroke: #b8c5d4; stroke-width: 0.45"/>
    <path d="M 63.00839 126.751238 
L 66.413447 122.84777 
L 77.811065 123.0612 
L 92.199146 118.339587 
L 81.507236 125.078148 
L 82.659427 128.041218 
L 74.782167 128.961581 
L 73.326595 126.392251 
L 65.980046 127.577152 
z
" clip-path="url(#p0492565c8d)" style="fill: #e8edf4; stroke: #b8c5d4; stroke-width: 0.45"/>
    <path d="M 55.490117 127.333466 
L 65.980046 127.577152 
L 73.326595 126.392251 
L 74.782167 128.961581 
L 80.963441 127.485974 
L 83.154158 129.313617 
L 66.933528 135.741847 
L 59.187106 133.6881 
z
" clip-path="url(#p0492565c8d)" style="fill: #e8edf4; stroke: #b8c5d4; stroke-width: 0.45"/>
    <path d="M -64.086804 207.388642 
L -60.011288 197.618637 
L -62.460079 190.850796 
L -56.732519 183.257407 
L -35.678295 182.995833 
L 2.587727 194.320088 
L 14.770602 189.306831 
L 21.283991 184.772571 
L 35.239332 183.46771 
L 46.490796 185.46567 
L 50.802092 193.314462 
L 54.474251 188.14407 
L 67.156536 191.882848 
L 79.491165 192.778655 
L 87.277292 188.792545 
L 97.676308 215.978954 
L 93.23193 222.338848 
L 89.826725 234.292905 
L 85.521916 242.532396 
L 81.83251 245.295297 
L 69.416862 233.127297 
L 58.125837 210.444448 
L 56.499587 211.87891 
L 63.056492 228.57658 
L 72.771587 244.485257 
L 84.731341 269.13331 
L 95.658251 286.674725 
L 109.857916 304.192721 
L 106.713811 306.951508 
L 107.224299 317.236114 
L 128.432651 334.681319 
L -59.340659 334.681319 
L -59.340659 220.135577 
z
" clip-path="url(#p0492565c8d)" style="fill: #e8edf4; stroke: #b8c5d4; stroke-width: 0.45"/>
   </g>
   <g id="PathCollection_1">
    <defs>
     <path id="m8065c4d0bb" d="M 0 2.12132 
C 0.562581 2.12132 1.102195 1.897805 1.5 1.5 
C 1.897805 1.102195 2.12132 0.562581 2.12132 0 
C 2.12132 -0.562581 1.897805 -1.102195 1.5 -1.5 
C 1.102195 -1.897805 0.562581 -2.12132 0 -2.12132 
C -0.562581 -2.12132 -1.102195 -1.897805 -1.5 -1.5 
C -1.897805 -1.102195 -2.12132 -0.562581 -2.12132 0 
C -2.12132 0.562581 -1.897805 1.102195 -1.5 1.5 
C -1.102195 1.897805 -0.562581 2.12132 0 2.12132 
z
" style="stroke: #ffffff; stroke-width: 0.5"/>
    </defs>
    <g clip-path="url(#p0492565c8d)">
     <use xlink:href="#m8065c4d0bb" x="344.967033" y="271.384615" style="fill: #8aa0b7; stroke: #ffffff; stroke-width: 0.5"/>
     <use xlink:href="#m8065c4d0bb" x="67.252747" y="128.967033" style="fill: #8aa0b7; stroke: #ffffff; stroke-width: 0.5"/>
     <use xlink:href="#m8065c4d0bb" x="94.945055" y="184.351648" style="fill: #8aa0b7; stroke: #ffffff; stroke-width: 0.5"/>
     <use xlink:href="#m8065c4d0bb" x="269.010989" y="216" style="fill: #8aa0b7; stroke: #ffffff; stroke-width: 0.5"/>
     <use xlink:href="#m8065c4d0bb" x="112.087912" y="147.428571" style="fill: #8aa0b7; stroke: #ffffff; stroke-width: 0.5"/>
     <use xlink:href="#m8065c4d0bb" x="102.591297" y="177.195956" style="fill: #8aa0b7; stroke: #ffffff; stroke-width: 0.5"/>
     <use xlink:href="#m8065c4d0bb" x="356.043956" y="279.296703" style="fill: #8aa0b7; stroke: #ffffff; stroke-width: 0.5"/>
    </g>
   </g>
   <g id="PatchCollection_2">
    <defs>
     <path id="ma5e05d9bc3" d="M 281.966454 -209.654904 
L 293.579954 -224.846821 
L 304.21217 -223.529447 
L 307.514192 -216.545564 
L 306.10196 -212.934847 
L 311.199732 -200.998749 
L 300.008184 -200.588245 
L 296.06751 -208.12778 
z
" style="stroke: #b45309; stroke-width: 1.15"/>
    </defs>
    <g clip-path="url(#p0492565c8d)">
     <use xlink:href="#ma5e05d9bc3" x="0" y="432" style="fill: #f59e0b; stroke: #b45309; stroke-width: 1.15"/>
    </g>
   </g>
   <g id="PathCollection_2">
    <defs>
     <path id="m0244e1f9c8" d="M 0 3.316625 
C 0.879579 3.316625 1.723251 2.967164 2.345208 2.345208 
C 2.967164 1.723251 3.316625 0.879579 3.316625 0 
C 3.316625 -0.879579 2.967164 -1.723251 2.345208 -2.345208 
C 1.723251 -2.967164 0.879579 -3.316625 0 -3.316625 
C -0.879579 -3.316625 -1.723251 -2.967164 -2.345208 -2.345208 
C -2.967164 -1.723251 -3.316625 -0.879579 -3.316625 0 
C -3.316625 0.879579 -2.967164 1.723251 -2.345208 2.345208 
C -1.723251 2.967164 -0.879579 3.316625 0 3.316625 
z
" style="stroke: #ffffff"/>
    </defs>
    <g clip-path="url(#p0492565c8d)">
     <use xlink:href="#m0244e1f9c8" x="269.010989" y="216" style="fill: #f97316; stroke: #ffffff"/>
    </g>
   </g>
   <g id="PathCollection_3">
    <path d="M 269.010989 220.449719 
C 270.191068 220.449719 271.322973 219.980869 272.157416 219.146427 
C 272.991858 218.311984 273.460708 217.180079 273.460708 216 
C 273.460708 214.819921 272.991858 213.688016 272.157416 212.853573 
C 271.322973 212.019131 270.191068 211.550281 269.010989 211.550281 
C 267.83091 211.550281 266.699005 212.019131 265.864562 212.853573 
C 265.03012 213.688016 264.56127 214.819921 264.56127 216 
C 264.56127 217.180079 265.03012 218.311984 265.864562 219.146427 
C 266.699005 219.980869 267.83091 220.449719 269.010989 220.449719 
L 269.010989 220.449719 
z
" clip-path="url(#p0492565c8d)" style="fill: none; stroke: #7c2d12; stroke-width: 1.1"/>
   </g>
  </g>
 </g>
 <defs>
  <clipPath id="p0492565c8d">
   <rect x="0" y="0" width="538.021978" height="432"/>
  </clipPath>
 </defs>
</svg>
