<?xml version="1.0" encoding="utf-8" standalone="no"?>
<!DOCTYPE svg PUBLIC "-//W3C//DTD SVG 1.1//EN"
  "http://www.w3.org/Graphics/SVG/1.1/DTD/svg11.dtd">
<svg xmlns:xlink="http://www.w3.org/1999/xlink" width="555.483934pt" height="432pt" viewBox="0 0 555.483934 432" xmlns="http://www.w3.org/2000/svg" version="1.1">
 <metadata>
  <rdf:RDF xmlns:dc="http://purl.org/dc/elements/1.1/" xmlns:cc="http://creativecommons.org/ns#" xmlns:rdf="http://www.w3.org/1999/02/22-rdf-syntax-ns#">
   <cc:Work>
    <dc:type rdf:resource="http://purl.org/dc/dcmitype/StillImage"/>
    <dc:date>2026-06-09T04:57:03.144492</dc:date>
    <dc:format>image/svg+xml</dc:format>
    <dc:creator>
     <cc:Agent>
      <dc:title>Matplotlib v3.10.8, https://matplotlib.org/</dc:title>
     </cc:Agent>
    </dc:creator>
   </cc:Work>
  </rdf:RDF>
 </metadata>
 <defs>
  <style type="text/css">*{stroke-linejoin: round; stroke-linecap: butt}</style>
 </defs>
 <g id="figure_1">
  <g id="patch_1">
   <path d="M 0 432 
L 555.483934 432 
L 555.483934 0 
L 0 0 
z
" style="fill: #eaf3ff"/>
  </g>
  <g id="axes_1">
   <g id="PatchCollection_1">
    <path d="M 176.410353 362.263642 
L 181.248934 361.70674 
L 192.935152 348.916501 
L 192.827151 345.113641 
L 190.307318 342.461117 
L 189.628771 337.853338 
L 193.006166 336.372215 
L 193.682793 329.488031 
L 189.037102 322.885623 
L 193.141326 321.480213 
L 229.810854 320.724907 
L 274.216307 345.847067 
L 275.014439 352.63523 
L 291.809272 364.332241 
L 286.407105 378.750111 
L 287.100161 385.381245 
L 294.591561 389.644427 
L 294.942594 392.686715 
L 291.721163 399.753013 
L 292.392104 403.309096 
L 291.625565 408.898715 
L 300.554445 427.771314 
L 304.848634 430.330346 
L 295.539351 437.114413 
L 282.744853 441.658214 
L 275.725164 441.466172 
L 271.555475 444.976153 
L 263.409878 445.277778 
L 260.355078 446.756804 
L 246.294048 443.459531 
L 237.490031 444.405842 
L 234.213849 428.492102 
L 227.891975 419.799934 
L 216.420859 417.617082 
L 209.780357 414.103941 
L 197.680084 410.17494 
L 192.792045 407.196157 
L 186.473295 392.45247 
L 179.687068 385.90025 
L 177.346384 379.113417 
L 178.516424 373.028608 
z
" clip-path="url(#p0ed8bcb0af)" style="fill: #e8edf4; stroke: #b8c5d4; stroke-width: 0.45"/>
    <path d="M -24.35327 377.357451 
L -21.377077 376.121503 
L -21.010646 371.020495 
L -19.096256 368.012254 
L -14.83816 365.553055 
L -11.76401 366.744863 
L -7.762294 362.265456 
L -1.388452 362.380949 
L -0.63866 365.693339 
L 3.73251 367.766153 
L 20.391209 350.973822 
L 19.999382 341.346847 
L 25.081041 329.979629 
L 30.442663 323.952263 
L 38.146782 318.312493 
L 39.491571 314.579856 
L 39.783023 310.288502 
L 41.690156 306.228134 
L 41.077624 299.596702 
L 42.536092 289.227493 
L 44.822959 281.927295 
L 48.327635 275.670457 
L 50.073322 260.443318 
L 54.628916 254.502421 
L 60.894522 250.73441 
L 70.52331 254.711032 
L 77.975886 259.027479 
L 95.264653 262.463223 
L 98.763282 255.397032 
L 100.370498 254.495165 
L 105.703096 255.670344 
L 118.730138 249.830427 
L 123.3462 252.305649 
L 127.135071 251.954637 
L 128.889828 249.109356 
L 133.238625 248.106811 
L 149.545405 249.607303 
L 153.408651 248.365912 
L 160.49661 258.025539 
L 165.7506 259.4444 
L 168.882798 257.479521 
L 174.293398 258.24957 
L 180.809943 255.774347 
L 183.589013 260.771957 
L 193.890196 268.547729 
L 193.182125 282.22963 
L 197.871957 283.814172 
L 194.110296 287.96887 
L 189.615168 291.076579 
L 185.141204 297.178621 
L 182.679587 302.61885 
L 182.0211 312.011211 
L 179.310357 316.482152 
L 179.212401 325.303704 
L 175.847404 328.565302 
L 175.413854 335.528094 
L 173.806638 336.430264 
L 172.723671 342.831316 
L 175.666002 348.151215 
L 176.410353 362.263642 
L 178.516424 373.028608 
L 177.346384 379.113417 
L 179.687068 385.90025 
L 186.473295 392.45247 
L 192.792112 407.196174 
L 188.182702 406.005576 
L 172.466081 407.980433 
L 169.32965 409.379038 
L 165.994887 416.848544 
L 168.613719 422.008811 
L 165.086671 447.607577 
L 176.428493 454.243242 
L 179.639903 452.115403 
L 180.618262 464.733082 
L 171.663077 464.636335 
L 162.545841 453.210463 
L 153.579168 451.575431 
L 150.953685 445.444062 
L 143.800421 449.138 
L 134.430432 447.505992 
L 130.520022 442.193349 
L 123.090424 441.11401 
L 117.606658 441.396392 
L 116.935473 437.759293 
L 107.570321 436.774888 
L 92.341066 439.313299 
L 92.966901 425.388924 
L 89.063747 421.046778 
L 88.205113 413.850583 
L 89.929032 406.797091 
L 87.55751 402.282614 
L 87.342852 394.920134 
L 73.145166 395.022323 
L 74.164037 390.806554 
L 68.194116 390.850695 
L 67.563444 392.878158 
L 60.306177 393.33529 
L 55.61695 403.080175 
L 49.151198 401.427608 
L 45.29037 403.073524 
L 37.552994 404.019835 
L 30.3828 394.117735 
L 24.138358 378.381765 
L -10.390801 378.226969 
L -22.714005 380.98669 
z
" clip-path="url(#p0ed8bcb0af)" style="fill: #e8edf4; stroke: #b8c5d4; stroke-width: 0.45"/>
    <path d="M 312.623552 277.026889 
L 326.051274 260.064848 
L 333.552386 259.848845 
L 343.980412 251.600033 
L 359.223795 251.084365 
L 392.289017 215.964897 
L 405.73019 199.01293 
L 405.848082 176.092003 
L 421.183263 172.944958 
L 426.720695 168.939318 
L 431.15752 168.907257 
L 430.386534 185.098547 
L 427.91608 189.324753 
L 424.618825 201.973415 
L 411.751234 229.986801 
L 401.70993 247.135358 
L 377.95914 276.198802 
L 366.249023 285.671199 
L 348.746039 297.289579 
L 337.838501 306.189792 
L 325.03281 320.364045 
L 322.334301 326.534156 
L 319.691957 329.304744 
L 312.76338 319.651798 
z
" clip-path="url(#p0ed8bcb0af)" style="fill: #e8edf4; stroke: #b8c5d4; stroke-width: 0.45"/>
    <path d="M 229.692179 308.323915 
L 238.801853 295.837355 
L 243.059769 287.308418 
L 236.543891 268.0044 
L 230.996045 259.880497 
L 246.12566 245.182561 
L 252.203689 247.145631 
L 252.203689 253.713069 
L 256.201149 257.563922 
L 264.345291 257.563922 
L 279.156807 267.501194 
L 285.595048 267.296834 
L 288.185322 268.646322 
L 295.988489 269.566965 
L 299.446818 264.690763 
L 310.136248 259.797009 
L 314.855538 263.751164 
L 322.850707 263.753248 
L 312.623552 277.026889 
L 312.76338 319.651798 
L 319.691957 329.304744 
L 311.496969 333.976996 
L 308.607732 338.859165 
L 304.22204 339.716857 
L 302.562238 347.96134 
L 298.804662 352.682502 
L 296.520957 360.468068 
L 291.809272 364.332241 
L 275.014439 352.63523 
L 274.216307 345.847067 
L 229.810854 320.724907 
z
" clip-path="url(#p0ed8bcb0af)" style="fill: #e8edf4; stroke: #b8c5d4; stroke-width: 0.45"/>
    <path d="M 89.784863 162.313215 
L 90.964101 158.015633 
L 93.994571 153.137909 
L 92.668952 148.291779 
L 96.515457 144.703049 
L 94.075659 141.969203 
L 97.1699 134.74412 
L 102.513094 126.127074 
L 112.602958 126.944747 
L 112.171304 75.586717 
L 125.627577 75.551146 
L 125.627577 52.184503 
L 264.475603 52.184503 
L 268.249093 63.665044 
L 265.682923 65.787742 
L 267.382977 77.833797 
L 271.678337 91.803398 
L 282.540474 99.008736 
L 276.618661 105.687346 
L 268.000445 107.611008 
L 264.315298 111.198451 
L 263.161101 118.97606 
L 258.121785 136.169315 
L 259.365496 140.854204 
L 257.501626 150.902881 
L 252.744073 162.429056 
L 245.686668 168.226019 
L 240.668531 177.164494 
L 239.492804 181.94779 
L 233.949989 185.225036 
L 230.488451 197.470361 
L 230.644778 207.98989 
L 230.509195 198.866242 
L 228.889418 198.634845 
L 229.090296 192.809405 
L 227.684155 188.79186 
L 221.657837 184.171683 
L 220.251696 175.734838 
L 221.657837 167.097116 
L 216.234151 166.293607 
L 215.430642 168.905011 
L 208.399938 169.507643 
L 211.21222 172.922556 
L 212.216606 179.95326 
L 205.788534 186.381333 
L 199.963093 194.818177 
L 193.936776 196.023441 
L 184.09379 189.193614 
L 179.674491 191.604141 
L 178.469227 195.019055 
L 172.442909 197.228705 
L 172.041155 199.639232 
L 160.390274 199.639232 
L 158.783256 197.228705 
L 150.346411 196.82695 
L 146.127989 198.835723 
L 142.913953 197.831336 
L 134.878862 187.787473 
L 126.442017 189.394492 
L 123.227981 194.818177 
L 120.214823 205.263795 
L 112.604006 208.748476 
L 120.565316 213.318247 
L 111.654272 208.203332 
L 107.596322 204.8338 
L 106.844716 201.197306 
L 108.745803 196.327886 
L 108.711336 191.553401 
L 101.962598 184.237783 
L 100.777 176.396316 
L 96.476492 172.947415 
L 96.346961 166.150476 
L 93.894292 161.636072 
z
" clip-path="url(#p0ed8bcb0af)" style="fill: #e8edf4; stroke: #b8c5d4; stroke-width: 0.45"/>
    <path d="M -8.462504 141.497488 
L -3.410241 126.084365 
L 11.515237 115.050972 
L 12.132002 99.831996 
L 16.640432 76.087757 
L 19.185494 71.051146 
L 14.31668 67.040058 
L 14.128431 63.318691 
L 9.750201 60.275599 
L 6.876553 42.087033 
L 18.689406 35.689219 
L 112.026913 80.495682 
L 112.602958 126.944747 
L 102.513094 126.127074 
L 97.1699 134.74412 
L 94.075659 141.969203 
L 96.515457 144.703049 
L 92.668952 148.291779 
L 93.994571 153.137909 
L 90.964101 158.015633 
L 89.784863 162.313215 
L 93.894292 161.636072 
L 96.346961 166.150476 
L 96.476492 172.947415 
L 100.777 176.396316 
L 100.635949 179.230499 
L 93.228724 181.225612 
L 87.292664 185.962608 
L 78.83331 198.729339 
L 67.820429 204.150219 
L 56.520933 203.423101 
L 53.221241 204.498812 
L 54.379792 208.617834 
L 43.309467 217.276427 
L 28.578461 221.753112 
L 25.655479 219.103442 
L 23.717507 218.874876 
L 21.560644 221.884628 
L 11.886505 222.764123 
L 13.719264 219.594435 
L 8.382434 206.684699 
L 3.286263 204.698353 
L -3.620295 197.869194 
L -1.078256 192.347637 
L 4.254342 193.523118 
L 7.555848 192.689881 
L 14.091137 192.804466 
L 7.722133 182.168295 
L 8.15024 174.395848 
L 7.368702 166.632445 
L 2.716662 159.139685 
L 3.886702 153.628104 
L -3.617271 153.358723 
L -3.59127 145.832075 
z
" clip-path="url(#p0ed8bcb0af)" style="fill: #e8edf4; stroke: #b8c5d4; stroke-width: 0.45"/>
    <path d="M -163.440706 140.595318 
L -162.513442 134.924104 
L -155.014307 134.464554 
L -150.687882 130.306228 
L -134.722137 129.300357 
L -124.328439 127.444621 
L -123.331941 120.234821 
L -116.933912 112.41914 
L -116.966564 85.471049 
L -100.46629 80.253037 
L -66.587757 57.266754 
L -26.492597 34.964354 
L -7.982395 40.00943 
L -1.40115 46.435878 
L 6.876553 42.087033 
L 9.750201 60.275599 
L 14.128431 63.318691 
L 14.31668 67.040058 
L 19.185494 71.051146 
L 16.640432 76.087757 
L 12.132002 99.831996 
L 11.515237 115.050972 
L -3.410241 126.084365 
L -8.462504 141.497488 
L -3.59127 145.832075 
L -3.617271 153.358723 
L 3.886702 153.628104 
L 2.716662 159.139685 
L -0.586053 159.81087 
L -0.962764 163.536251 
L -3.138976 163.794748 
L -11.056544 150.984481 
L -13.802962 150.518884 
L -22.952246 157.059313 
L -32.012038 153.645035 
L -38.309692 152.962361 
L -41.686177 154.605253 
L -48.54557 154.250311 
L -55.447895 159.236734 
L -61.415397 159.522744 
L -75.576803 153.47482 
L -81.122245 156.347312 
L -87.093376 156.14777 
L -91.481476 151.728529 
L -103.210289 147.362196 
L -115.785641 148.748103 
L -118.832581 151.278653 
L -120.478496 158.008042 
L -123.832609 162.725991 
L -124.645287 173.171993 
L -133.567819 166.438372 
L -137.762425 166.468605 
L -141.690371 169.895883 
L -141.425525 161.882172 
L -154.916955 159.228269 
L -155.280362 153.565823 
L -161.869467 145.925195 
z
" clip-path="url(#p0ed8bcb0af)" style="fill: #e8edf4; stroke: #b8c5d4; stroke-width: 0.45"/>
    <path d="M -135.404207 236.373766 
L -135.028706 210.069348 
L -132.822864 202.688728 
L -123.542367 191.858155 
L -124.775292 188.71084 
L -122.469679 184.000449 
L -125.10121 177.059426 
L -123.832609 162.725991 
L -120.478496 158.008042 
L -118.832581 151.278653 
L -115.785641 148.748103 
L -103.210289 147.362196 
L -91.481476 151.728529 
L -87.093376 156.14777 
L -81.122245 156.347312 
L -75.576803 153.47482 
L -61.415397 159.522744 
L -55.447895 159.236734 
L -48.54557 154.250311 
L -41.686177 154.605253 
L -38.309692 152.962361 
L -32.012038 153.645035 
L -22.952246 157.059313 
L -13.802962 150.518884 
L -11.056544 150.984481 
L -3.138976 163.794748 
L -0.962764 163.536251 
L 3.66902 168.196756 
L 1.775793 174.19933 
L -8.081561 183.25368 
L -12.824604 196.802856 
L -15.30678 199.410502 
L -17.668022 207.601381 
L -23.925767 212.42152 
L -25.738572 218.342463 
L -28.367079 223.055272 
L -29.461534 227.918947 
L -37.500037 231.861707 
L -44.069187 227.05336 
L -48.505057 227.247459 
L -55.473896 234.095968 
L -58.86187 234.201181 
L -67.437321 253.771373 
L -79.58517 257.982305 
L -84.025877 257.367052 
L -88.525238 259.989209 
L -97.884947 259.733433 
L -104.149344 252.414188 
L -108.001705 243.944555 
L -116.285704 236.235296 
z
" clip-path="url(#p0ed8bcb0af)" style="fill: #e8edf4; stroke: #b8c5d4; stroke-width: 0.45"/>
    <path d="M -67.571558 257.005156 
L -67.437321 253.771373 
L -64.427266 245.4907 
L -58.86187 234.201181 
L -55.473896 234.095968 
L -48.505057 227.247459 
L -44.069187 227.05336 
L -37.500037 231.861707 
L -29.461534 227.918947 
L -28.367079 223.055272 
L -25.738572 218.342463 
L -23.925767 212.42152 
L -17.668022 207.601381 
L -15.30678 199.410502 
L -12.824604 196.802856 
L -8.081561 183.25368 
L 1.775793 174.19933 
L 3.66902 168.196756 
L -0.962764 163.536251 
L -0.586053 159.81087 
L 2.716662 159.139685 
L 7.368702 166.632445 
L 8.15024 174.395848 
L 7.722133 182.168295 
L 14.091137 192.804466 
L 7.555848 192.689881 
L 4.254342 193.523118 
L -1.078256 192.347637 
L -3.620295 197.869194 
L 3.286263 204.698353 
L 8.382434 206.684699 
L 13.719264 219.594435 
L 6.001842 234.622335 
L 3.193748 236.746546 
L 2.290974 245.817222 
L 3.455571 250.745294 
L 2.512888 254.232132 
L 8.042608 260.34264 
L 9.040316 264.543595 
L 13.360089 270.582146 
L 18.711432 274.347133 
L 20.468002 283.074961 
L 19.6263 289.393173 
L 0.868182 283.540256 
L -15.355154 282.443382 
L -22.281665 283.950525 
L -29.392602 282.383217 
L -34.95316 283.152057 
L -53.994265 282.885094 
L -52.285463 273.646621 
L -56.858593 265.910757 
L -62.197238 263.926225 
L -64.574806 258.683119 
z
" clip-path="url(#p0ed8bcb0af)" style="fill: #e8edf4; stroke: #b8c5d4; stroke-width: 0.45"/>
    <path d="M 2.290974 245.817222 
L 3.193748 236.746546 
L 6.001842 234.622335 
L 11.886505 222.764123 
L 21.560644 221.884628 
L 23.717507 218.874876 
L 25.655479 219.103442 
L 28.578461 221.753112 
L 43.309467 217.276427 
L 54.379792 208.617834 
L 53.221241 204.498812 
L 56.520933 203.423101 
L 67.820429 204.150219 
L 78.83331 198.729339 
L 87.292664 185.962608 
L 93.228724 181.225612 
L 100.635949 179.230499 
L 101.962598 184.237783 
L 108.711336 191.553401 
L 108.745803 196.327886 
L 106.844716 201.197306 
L 107.596322 204.8338 
L 126.972415 218.046476 
L 127.080046 221.849557 
L 134.94924 227.943134 
L 139.825916 233.00635 
L 142.78034 240.025679 
L 151.526913 244.656555 
L 153.408651 248.365912 
L 149.545405 249.607303 
L 133.238625 248.106811 
L 128.889828 249.109356 
L 127.135071 251.954637 
L 123.3462 252.305649 
L 118.730138 249.830427 
L 105.703096 255.670344 
L 100.370498 254.495165 
L 98.763282 255.397032 
L 95.264653 262.463223 
L 77.975886 259.027479 
L 70.52331 254.711032 
L 60.894522 250.73441 
L 54.628916 254.502421 
L 50.073322 260.443318 
L 49.021193 268.603661 
L 41.495452 267.950616 
L 33.575466 265.984829 
L 26.60179 272.185735 
L 20.468002 283.074961 
L 18.711432 274.347133 
L 13.360089 270.582146 
L 9.040316 264.543595 
L 8.042608 260.34264 
L 2.512888 254.232132 
L 3.455571 250.745294 
z
" clip-path="url(#p0ed8bcb0af)" style="fill: #e8edf4; stroke: #b8c5d4; stroke-width: 0.45"/>
    <path d="M -37.090674 356.165531 
L -28.182049 349.707035 
L -32.594337 341.969659 
L -28.581737 339.027328 
L -20.686542 337.594256 
L -19.755348 332.408594 
L -13.503045 338.027806 
L -3.173442 338.520008 
L 0.416492 332.990892 
L 1.893704 325.211189 
L 0.617848 316.075208 
L -4.91792 309.155348 
L 0.148018 295.603451 
L -2.772545 293.277885 
L -11.478605 294.231452 
L -14.749273 288.185342 
L -13.8985 283.08131 
L 0.868182 283.540256 
L 19.6263 289.393173 
L 20.468002 283.074961 
L 26.60179 272.185735 
L 33.575466 265.984829 
L 41.495452 267.950616 
L 49.021193 268.603661 
L 48.327635 275.670457 
L 44.822959 281.927295 
L 42.536092 289.227493 
L 41.077624 299.596702 
L 41.690156 306.228134 
L 39.783023 310.288502 
L 39.491571 314.579856 
L 38.146782 318.312493 
L 30.442663 323.952263 
L 25.081041 329.979629 
L 19.999382 341.346847 
L 20.391209 350.973822 
L 3.73251 367.766153 
L -0.63866 365.693339 
L -1.388452 362.380949 
L -7.762294 362.265456 
L -11.76401 366.744863 
L -14.83816 365.553055 
L -19.223237 361.538641 
L -22.758751 363.506847 
L -27.48184 368.558877 
z
" clip-path="url(#p0ed8bcb0af)" style="fill: #e8edf4; stroke: #b8c5d4; stroke-width: 0.45"/>
    <path d="M -63.953808 322.612311 
L -63.578307 318.724879 
L -61.02357 314.983776 
L -55.822791 297.789339 
L -34.85218 297.233041 
L -34.95316 283.152057 
L -29.392602 282.383217 
L -22.281665 283.950525 
L -15.355154 282.443382 
L -13.8985 283.08131 
L -14.749273 288.185342 
L -11.478605 294.231452 
L -2.772545 293.277885 
L 0.148018 295.603451 
L -4.91792 309.155348 
L 0.617848 316.075208 
L 1.893704 325.211189 
L 0.416492 332.990892 
L -3.173442 338.520008 
L -13.503045 338.027806 
L -19.755348 332.408594 
L -20.686542 337.594256 
L -28.581737 339.027328 
L -32.594337 341.969659 
L -28.182049 349.707035 
L -37.090674 356.165531 
L -49.115171 344.355088 
L -56.848314 334.699694 
z
" clip-path="url(#p0ed8bcb0af)" style="fill: #e8edf4; stroke: #b8c5d4; stroke-width: 0.45"/>
    <path d="M 89.211891 497.766284 
L 89.750653 460.534848 
L 114.115285 460.682388 
L 113.118182 456.643183 
L 114.86145 452.260524 
L 112.804962 446.772526 
L 114.135844 441.097684 
L 112.899291 437.464818 
L 116.935473 437.759293 
L 117.606658 441.396392 
L 123.090424 441.11401 
L 130.520022 442.193349 
L 134.430432 447.505992 
L 143.800421 449.138 
L 150.953685 445.444062 
L 153.579168 451.575431 
L 162.545841 453.210463 
L 171.663077 464.636335 
L 180.618262 464.733082 
L 179.639903 452.115403 
L 176.428493 454.243242 
L 165.086671 447.607577 
L 168.613719 422.008811 
L 165.994887 416.848544 
L 169.32965 409.379038 
L 172.466081 407.980433 
L 188.182702 406.005576 
L 192.792045 407.196157 
L 197.680084 410.17494 
L 209.780357 414.103941 
L 216.420859 417.617082 
L 221.943928 422.837211 
L 224.919516 432.769544 
L 222.925914 435.940441 
L 220.573742 445.425922 
L 222.821911 455.121225 
L 219.140066 459.194291 
L 215.587622 470.06447 
L 221.740758 473.095084 
L 186.233241 482.739593 
L 187.342208 491.067129 
L 178.479539 492.668903 
L 171.817269 497.330316 
L 170.394477 501.387057 
L 166.205918 502.307367 
L 156.029902 511.930713 
L 149.549637 519.503618 
L 145.598714 519.775116 
L 141.797749 518.427303 
L 128.71931 517.146004 
L 121.91071 512.66297 
L 114.322688 511.989366 
L 104.741668 514.648711 
L 97.105877 507.339442 
z
" clip-path="url(#p0ed8bcb0af)" style="fill: #e8edf4; stroke: #b8c5d4; stroke-width: 0.45"/>
    <path d="M 215.587622 470.06447 
L 219.140066 459.194291 
L 222.821911 455.121225 
L 220.573742 445.425922 
L 222.925914 435.940441 
L 224.919516 432.769544 
L 221.943928 422.837211 
L 216.420859 417.617082 
L 227.891975 419.799934 
L 234.213849 428.492102 
L 237.490031 444.405842 
L 234.213921 453.298745 
L 237.490031 468.50986 
L 241.552214 468.339343 
L 245.77403 472.111888 
L 250.675497 480.574265 
L 251.670786 495.6197 
L 246.606058 498.083736 
L 243.034264 506.20266 
L 235.399077 498.974417 
L 234.533188 490.726094 
L 236.994805 485.285865 
L 236.315759 480.597242 
L 231.696069 477.636166 
L 228.476798 478.711272 
L 221.740758 473.095084 
z
" clip-path="url(#p0ed8bcb0af)" style="fill: #e8edf4; stroke: #b8c5d4; stroke-width: 0.45"/>
    <path d="M 186.233241 482.739593 
L 221.740758 473.095084 
L 228.476798 478.711272 
L 231.696069 477.636166 
L 236.315759 480.597242 
L 236.994805 485.285865 
L 234.533188 490.726094 
L 235.399077 498.974417 
L 243.034264 506.20266 
L 246.606058 498.083736 
L 251.670786 495.6197 
L 250.675497 480.574265 
L 245.77403 472.111888 
L 241.552214 468.339343 
L 237.490031 468.50986 
L 234.213921 453.298745 
L 237.490031 444.405842 
L 246.294048 443.459531 
L 260.355078 446.756804 
L 263.409878 445.277778 
L 271.555475 444.976153 
L 275.725164 441.466172 
L 282.744853 441.658214 
L 295.539351 437.114413 
L 304.848618 430.330299 
L 306.741844 435.576429 
L 306.260526 447.23389 
L 307.706295 457.501211 
L 308.160403 475.787686 
L 310.2181 481.518762 
L 302.188668 498.005734 
L 294.738511 505.261791 
L 270.85157 515.388829 
L 257.631033 527.947855 
L 253.128649 530.084159 
L 244.960142 538.398392 
L 240.139097 541.103692 
L 239.150459 549.446949 
L 244.699529 558.308409 
L 247.008165 565.170826 
L 247.153498 568.671363 
L 249.221052 568.086307 
L 248.886274 579.562611 
L 246.988815 584.998607 
L 249.746722 587.001884 
L 248.006477 591.870094 
L 243.11529 596.032652 
L 219.391005 606.320532 
L 214.259158 610.646957 
L 215.262308 615.576238 
L 218.253013 616.363521 
L 217.248654 622.522099 
L 208.373891 622.424143 
L 204.638231 607.803187 
L 206.723138 594.758005 
L 198.073917 569.97615 
L 210.401959 556.695146 
L 213.487598 548.256351 
L 215.255052 547.191524 
L 216.576864 540.303107 
L 214.696336 536.83713 
L 215.198213 528.092976 
L 217.479639 519.983727 
L 217.453638 505.174114 
L 211.376085 501.414267 
L 205.804037 500.564099 
L 203.281953 497.668932 
L 197.859259 495.199454 
L 188.099257 495.432252 
z
" clip-path="url(#p0ed8bcb0af)" style="fill: #e8edf4; stroke: #b8c5d4; stroke-width: 0.45"/>
    <path d="M -30.698087 504.703075 
L -29.078172 494.413985 
L -25.040781 483.701626 
L -24.431877 478.679829 
L -20.635145 468.13194 
L -17.845795 463.336896 
L -7.370467 450.474324 
L -6.141775 441.806359 
L -6.754307 435.174322 
L -10.253541 430.991205 
L -16.244021 416.872127 
L -15.615767 414.440138 
L -12.019181 409.801099 
L -17.964916 390.663852 
L -23.826601 383.260859 
L -22.714005 380.98669 
L -10.390801 378.226969 
L 24.138358 378.381765 
L 30.3828 394.117735 
L 37.552994 404.019835 
L 45.29037 403.073524 
L 49.151198 401.427608 
L 55.61695 403.080175 
L 60.306177 393.33529 
L 67.563444 392.878158 
L 68.194116 390.850695 
L 74.164037 390.806554 
L 73.145166 395.022323 
L 87.342852 394.920134 
L 87.55751 402.282614 
L 89.929032 406.797091 
L 88.205113 413.850583 
L 89.063747 421.046778 
L 92.966901 425.388924 
L 92.341066 439.313299 
L 107.570321 436.774888 
L 112.899291 437.464818 
L 114.135844 441.097684 
L 112.804962 446.772526 
L 114.86145 452.260524 
L 113.118182 456.643183 
L 114.115285 460.682388 
L 89.750653 460.534848 
L 89.211891 497.766284 
L 97.105877 507.339442 
L 104.741668 514.648711 
L 83.236528 519.41715 
L 54.908275 517.760955 
L 46.80084 512.154441 
L -0.630799 512.659342 
L -2.400068 513.481695 
L -9.375558 508.19082 
L -16.961161 507.84132 
L -29.596981 512.060113 
z
" clip-path="url(#p0ed8bcb0af)" style="fill: #e8edf4; stroke: #b8c5d4; stroke-width: 0.45"/>
    <path d="M -27.48184 368.558877 
L -22.758751 363.506847 
L -19.223237 361.538641 
L -14.83816 365.553055 
L -19.096256 368.012254 
L -21.010646 371.020495 
L -21.377077 376.121503 
L -24.35327 377.357451 
z
" clip-path="url(#p0ed8bcb0af)" style="fill: #e8edf4; stroke: #b8c5d4; stroke-width: 0.45"/>
    <path d="M 172.723671 342.831316 
L 179.829165 343.751021 
L 183.411844 337.088751 
L 189.628813 337.853628 
L 190.307318 342.461117 
L 192.827151 345.113641 
L 192.935152 348.916501 
L 181.248934 361.70674 
L 176.410353 362.263642 
L 175.666002 348.151215 
z
" clip-path="url(#p0ed8bcb0af)" style="fill: #e8edf4; stroke: #b8c5d4; stroke-width: 0.45"/>
    <path d="M 436.637367 25.909701 
L 438.719251 25.34131 
L 439.151591 28.550301 
L 448.309945 26.706053 
L 465.053298 27.357587 
L 489.190573 4.731083 
L 491.416369 8.719496 
L 493.005445 17.961899 
L 487.030687 18.007552 
L 486.069864 25.627622 
L 488.142073 27.254793 
L 482.84636 29.559196 
L 482.813708 34.341844 
L 479.40457 39.184658 
L 479.098606 43.896258 
L 476.740388 46.369667 
L 441.566044 40.469887 
z
" clip-path="url(#p0ed8bcb0af)" style="fill: #e8edf4; stroke: #b8c5d4; stroke-width: 0.45"/>
    <path d="M 426.85983 11.436285 
L 430.012587 5.298265 
L 433.208275 4.039339 
L 436.749231 7.707276 
L 436.955424 14.557599 
L 434.4152 21.441179 
L 431.171742 22.272602 
L 427.634414 19.950966 
z
" clip-path="url(#p0ed8bcb0af)" style="fill: #e8edf4; stroke: #b8c5d4; stroke-width: 0.45"/>
    <path d="M 441.557579 87.287784 
L 476.660571 75.586787 
L 484.461438 52.18449 
L 479.098606 43.896258 
L 479.40457 39.184658 
L 482.813708 34.341844 
L 482.84636 29.559196 
L 488.142073 27.254793 
L 486.069864 25.627622 
L 487.030687 18.007552 
L 493.005445 17.961899 
L 498.25097 25.954447 
L 504.783841 30.202868 
L 520.296687 33.864456 
L 528.731854 44.458603 
L 532.920413 45.940652 
L 532.89804 48.551019 
L 526.769695 58.808666 
L 521.840413 62.55128 
L 517.474081 70.567107 
L 512.16567 69.953365 
L 509.732472 72.74332 
L 507.853153 78.675751 
L 509.291666 86.497177 
L 508.188141 87.934783 
L 502.804146 87.896386 
L 495.495482 92.26937 
L 494.355072 97.969608 
L 491.679401 100.439086 
L 484.40097 100.344758 
L 479.819375 103.291322 
L 479.877423 108.018038 
L 474.21528 111.266938 
L 467.759203 110.163715 
L 459.934149 114.110708 
L 454.528991 114.773126 
z
" clip-path="url(#p0ed8bcb0af)" style="fill: #e8edf4; stroke: #b8c5d4; stroke-width: 0.45"/>
    <path d="M 489.190573 4.731083 
L 492.597897 0.747205 
L 494.044876 1.763053 
L 492.941955 6.597099 
L 491.416369 8.719496 
z
" clip-path="url(#p0ed8bcb0af)" style="fill: #e8edf4; stroke: #b8c5d4; stroke-width: 0.45"/>
    <path d="M 545.395995 -39.42626 
L 565.002467 -33.450896 
L 576.708301 -35.203234 
L 583.702536 -33.711207 
L 586.071034 -36.276224 
L 594.220192 -35.248282 
L 609.427074 -40.113166 
L 609.836437 -50.070291 
L 616.359028 -56.693258 
L 625.070529 -56.672699 
L 626.34941 -59.94639 
L 635.291896 -61.471976 
L 639.61832 -60.382358 
L 644.194474 -63.67298 
L 643.54808 -70.699868 
L 648.516665 -77.762128 
L 655.963799 -80.722902 
L 651.364668 -88.464208 
L 662.49546 -88.098382 
L 665.712917 -92.31143 
L 665.224342 -96.807162 
L 671.052166 -101.722537 
L 669.714633 -107.542197 
L 666.948261 -112.50141 
L 673.781048 -117.597884 
L 686.344912 -120.055873 
L 699.772246 -121.415175 
L 712.532023 -124.88871 
L 721.177616 -119.433364 
L 724.640569 -110.442202 
L 743.884239 -105.710345 
L 732.584138 -95.875968 
L 719.541375 -94.136933 
L 701.792454 -96.991587 
L 696.055935 -91.946209 
L 704.26556 -73.776738 
L 713.709319 -67.9988 
L 703.731635 -61.230108 
L 703.912432 -52.88927 
L 692.553678 -41.148364 
L 685.218409 -29.273826 
L 672.978045 -17.006251 
L 659.391077 -17.895723 
L 646.495249 -5.630265 
L 654.154017 -0.375367 
L 655.487318 8.630307 
L 662.061306 14.56425 
L 664.384454 24.610564 
L 638.63452 24.580028 
L 630.842119 32.386639 
L 622.265459 29.427679 
L 618.7759 21.017304 
L 609.735457 12.106563 
L 588.177105 14.307567 
L 569.166234 14.525551 
L 552.687123 16.165723 
L 557.096387 2.572104 
L 573.974582 -3.472192 
L 573.006503 -8.860722 
L 567.40785 -10.754855 
L 567.084955 -21.060271 
L 555.899138 -26.205118 
L 551.188747 -33.271914 
z
" clip-path="url(#p0ed8bcb0af)" style="fill: #e8edf4; stroke: #b8c5d4; stroke-width: 0.45"/>
    <path d="M 349.226666 -151.743983 
L 357.239167 -155.077235 
L 359.096113 -150.663133 
L 365.005567 -145.261603 
L 373.031372 -143.706086 
L 377.268305 -144.050144 
L 391.068117 -152.682736 
L 395.456217 -153.547114 
L 398.913124 -150.113184 
L 394.878756 -144.32406 
L 402.175931 -138.196924 
L 405.088029 -138.780432 
L 408.789828 -130.152375 
L 419.88434 -127.714944 
L 428.011729 -121.843887 
L 444.646845 -119.826703 
L 462.921226 -122.922923 
L 464.042287 -125.659666 
L 474.324121 -127.923858 
L 482.646819 -134.613338 
L 490.472477 -134.274118 
L 495.609161 -136.453656 
L 503.92944 -135.375225 
L 516.867595 -129.4437 
L 526.212188 -128.164517 
L 539.585102 -117.80196 
L 548.307488 -117.383225 
L 549.33422 -107.536453 
L 541.349533 -84.44284 
L 546.442681 -82.715596 
L 541.439025 -76.308498 
L 545.272037 -66.966928 
L 546.188114 -59.538539 
L 555.050179 -57.566101 
L 556.008583 -50.034616 
L 545.395995 -39.42626 
L 551.188747 -33.271914 
L 555.899138 -26.205118 
L 567.084955 -21.060271 
L 567.40785 -10.754855 
L 573.006503 -8.860722 
L 573.974582 -3.472192 
L 557.096387 2.572104 
L 552.687123 16.165723 
L 517.916095 9.943956 
L 504.71128 8.423509 
L 499.720927 -5.924437 
L 494.120459 -7.997856 
L 485.128995 -5.907204 
L 473.327017 -0.244154 
L 459.028351 -4.12554 
L 447.216094 -13.117609 
L 435.949856 -16.450558 
L 428.135686 -27.552931 
L 419.500978 -43.153455 
L 413.203929 -41.257205 
L 405.76768 -45.134661 
L 401.398928 -40.567577 
L 394.923502 -46.718597 
L 394.80801 -52.951551 
L 391.070535 -52.948225 
L 392.988553 -61.423603 
L 386.967839 -70.316203 
L 372.630474 -76.729954 
L 364.525458 -87.851978 
L 367.23741 -96.98282 
L 373.12691 -101.021118 
L 372.244089 -107.856022 
L 364.571413 -111.368256 
L 356.989703 -125.326554 
L 350.5902 -134.700714 
L 352.879486 -138.32451 
z
" clip-path="url(#p0ed8bcb0af)" style="fill: #e8edf4; stroke: #b8c5d4; stroke-width: 0.45"/>
    <path d="M 258.121785 136.169315 
L 263.161101 118.97606 
L 264.315298 111.198451 
L 268.000445 107.611008 
L 276.618661 105.687346 
L 282.540474 99.008736 
L 289.333353 112.554888 
L 292.556856 123.295365 
L 298.971211 128.994696 
L 314.943003 140.047183 
L 331.445092 157.489536 
L 337.197936 161.009027 
L 333.669074 163.866704 
L 328.660036 162.850881 
L 324.660481 159.06452 
L 319.849103 152.204512 
L 314.6613 148.445648 
L 311.635394 144.405139 
L 301.451335 139.71358 
L 293.428588 139.573635 
L 290.606164 137.127051 
L 283.74405 139.8788 
L 276.642882 134.566965 
L 272.988627 143.299853 
L 259.365496 140.854204 
z
" clip-path="url(#p0ed8bcb0af)" style="fill: #e8edf4; stroke: #b8c5d4; stroke-width: 0.45"/>
    <path d="M 331.624075 131.595993 
L 333.965967 131.026997 
L 332.765694 125.680492 
L 334.184254 123.423858 
L 333.665446 118.320431 
L 338.802734 114.587794 
L 337.602461 109.655186 
L 340.703217 103.903552 
L 345.509145 106.945956 
L 348.681252 105.888386 
L 362.184775 105.619609 
L 364.330149 106.789648 
L 375.641134 107.95999 
L 380.126587 107.374668 
L 383.051987 111.275101 
L 388.512775 109.324733 
L 396.898359 97.038716 
L 407.81933 91.773237 
L 441.557579 87.287784 
L 454.528991 114.773126 
L 446.0648 117.91651 
L 443.80091 123.111545 
L 443.52518 127.101772 
L 431.874975 132.041636 
L 413.177324 137.500005 
L 402.700786 145.755887 
L 397.548985 146.400769 
L 394.038263 145.708722 
L 387.199429 150.564839 
L 379.741411 152.817542 
L 366.963494 154.090073 
L 364.405733 157.179642 
L 361.33884 158.033438 
L 359.527244 161.009631 
L 353.735701 160.751436 
L 349.997622 162.339304 
L 341.898652 161.744307 
L 338.855341 154.909101 
L 339.189724 148.512886 
L 337.276544 145.060514 
L 334.986653 136.406154 
z
" clip-path="url(#p0ed8bcb0af)" style="fill: #e8edf4; stroke: #b8c5d4; stroke-width: 0.45"/>
    <path d="M 238.336571 -18.707192 
L 242.124233 -33.89533 
L 255.146438 -32.034151 
L 260.204515 -35.635272 
L 263.004748 -39.848018 
L 271.933327 -41.468537 
L 273.858601 -45.387111 
L 277.728498 -47.374364 
L 266.0662 -59.074454 
L 289.500242 -64.946116 
L 291.73027 -66.710548 
L 305.824558 -63.539348 
L 323.25905 -55.348771 
L 356.250529 -31.816469 
L 388.432354 -29.752726 
L 391.346265 -24.177655 
L 399.621799 -24.4812 
L 404.20279 -14.390443 
L 409.959262 -11.717795 
L 411.964353 -7.608145 
L 419.93876 -2.689747 
L 420.64683 2.138554 
L 419.481024 6.035662 
L 420.961864 9.966329 
L 424.326256 13.245462 
L 427.634414 19.950966 
L 431.171742 22.272602 
L 434.4152 21.441179 
L 441.566044 40.469887 
L 476.740388 46.369667 
L 479.098606 43.896258 
L 484.461438 52.18449 
L 476.660571 75.586787 
L 441.557579 87.287784 
L 407.81933 91.773237 
L 396.898359 97.038716 
L 388.512775 109.324733 
L 383.051987 111.275101 
L 380.126587 107.374668 
L 375.641134 107.95999 
L 364.330149 106.789648 
L 362.184775 105.619609 
L 348.681252 105.888386 
L 345.509145 106.945956 
L 340.703217 103.903552 
L 337.602461 109.655186 
L 338.802734 114.587794 
L 333.665446 118.320431 
L 332.147116 113.327054 
L 328.618253 109.803029 
L 327.716083 105.135267 
L 321.672392 100.942475 
L 315.43581 91.130472 
L 312.135514 81.595407 
L 304.041986 73.5433 
L 298.823671 71.621654 
L 291.074202 60.470001 
L 289.720343 52.338076 
L 290.219197 45.40189 
L 283.507948 32.427757 
L 278.021159 27.86158 
L 271.699924 25.441685 
L 267.852399 18.737088 
L 268.492142 16.091953 
L 265.240823 10.025889 
L 261.823825 7.413406 
L 257.254927 -1.291142 
L 244.161976 -18.763427 
z
" clip-path="url(#p0ed8bcb0af)" style="fill: #e8edf4; stroke: #b8c5d4; stroke-width: 0.45"/>
    <path d="M 122.118064 -41.941424 
L 125.131684 -49.165805 
L 123.320938 -54.170251 
L 127.556154 -59.785144 
L 143.124593 -59.978564 
L 171.42021 -51.6049 
L 180.428775 -55.311928 
L 185.245068 -58.664763 
L 195.564274 -59.629637 
L 203.884112 -58.152255 
L 207.072079 -52.348506 
L 209.787438 -56.171725 
L 219.16529 -53.407105 
L 228.286069 -52.744705 
L 234.043481 -55.692214 
L 241.732981 -35.589361 
L 238.446608 -30.886569 
L 235.928647 -22.047202 
L 232.745478 -15.954553 
L 230.017364 -13.91154 
L 220.836676 -22.909106 
L 212.487585 -39.681824 
L 211.285062 -38.621118 
L 216.133533 -26.27411 
L 223.317311 -14.510519 
L 232.16089 3.715359 
L 240.240739 16.68627 
L 250.74061 29.639863 
L 248.415717 31.679834 
L 248.793195 39.284735 
L 264.475603 52.184503 
L 125.627577 52.184503 
L 125.627577 -32.515768 
z
" clip-path="url(#p0ed8bcb0af)" style="fill: #e8edf4; stroke: #b8c5d4; stroke-width: 0.45"/>
    <path d="M -57.852673 4.27637 
L -53.208796 -0.613306 
L -54.229482 -7.970343 
L -52.742595 -14.374419 
L -53.587925 -19.709133 
L -51.527205 -29.255081 
L -52.163319 -34.691984 
L -55.948563 -45.023099 
L -50.23986 -47.73505 
L -49.227035 -52.678844 
L -50.471449 -57.52589 
L -42.436574 -62.034926 
L -38.833942 -65.783889 
L -33.130076 -69.143141 
L -32.468565 -78.130675 
L -18.725352 -74.10297 
L -13.811472 -75.109733 
L -4.036133 -73.157286 
L 11.490651 -67.928296 
L 16.970396 -57.528118 
L 43.966605 -50.358967 
L 56.432028 -44.54141 
L 62.137839 -47.577028 
L 67.746297 -52.958836 
L 65.019705 -61.922234 
L 68.68964 -67.61377 
L 77.120872 -73.096909 
L 85.176617 -74.69294 
L 101.00564 -72.298659 
L 104.996185 -67.067211 
L 109.352859 -67.017715 
L 113.07814 -65.021624 
L 124.704828 -63.648967 
L 127.556154 -59.785144 
L 123.320938 -54.170251 
L 125.131684 -49.165805 
L 122.118064 -41.941424 
L 125.627577 -32.515768 
L 125.627577 75.551146 
L 112.171304 75.586717 
L 112.026913 80.495682 
L 18.689406 35.689219 
L -1.40115 46.435878 
L -7.982395 40.00943 
L -26.492597 34.964354 
L -31.627467 27.636643 
L -40.863219 22.200042 
L -46.333682 24.343904 
L -50.494426 17.818894 
L -50.934022 12.804959 
z
" clip-path="url(#p0ed8bcb0af)" style="fill: #e8edf4; stroke: #b8c5d4; stroke-width: 0.45"/>
    <path d="M 218.700288 218.516089 
L 222.685919 211.851022 
L 228.895696 211.563408 
L 230.644778 207.98989 
L 230.488451 197.470361 
L 233.949989 185.225036 
L 239.492804 181.94779 
L 240.668531 177.164494 
L 245.686668 168.226019 
L 252.744073 162.429056 
L 257.501626 150.902881 
L 259.365496 140.854204 
L 272.988627 143.299853 
L 276.642882 134.566965 
L 283.74405 139.8788 
L 290.606164 137.127051 
L 293.428588 139.573635 
L 301.451335 139.71358 
L 311.635394 144.405139 
L 314.6613 148.445648 
L 319.849103 152.204512 
L 324.660481 159.06452 
L 328.660036 162.850881 
L 320.588612 173.510941 
L 321.686293 180.300976 
L 328.222181 180.496501 
L 331.03969 179.666776 
L 333.636421 181.752281 
L 331.084505 185.897966 
L 339.722614 197.974679 
L 344.189628 202.150804 
L 382.44745 216.036507 
L 392.289017 215.964897 
L 359.223795 251.084365 
L 343.980412 251.600033 
L 333.552386 259.848845 
L 326.051274 260.064848 
L 322.850707 263.753248 
L 314.855538 263.751164 
L 310.136248 259.797009 
L 299.446818 264.690763 
L 295.988489 269.566965 
L 288.185322 268.646322 
L 285.595048 267.296834 
L 279.156807 267.501194 
L 264.345291 257.563922 
L 256.201149 257.563922 
L 252.203689 253.713069 
L 252.203689 247.145631 
L 246.12566 245.182561 
L 239.210456 232.449182 
L 233.866561 229.73628 
L 231.816293 225.057242 
L 225.886055 219.354239 
z
" clip-path="url(#p0ed8bcb0af)" style="fill: #e8edf4; stroke: #b8c5d4; stroke-width: 0.45"/>
    <path d="M 320.588612 173.510941 
L 328.660036 162.850881 
L 333.669074 163.866704 
L 337.197936 161.009027 
L 339.966727 164.630404 
L 339.598482 169.488939 
L 332.922909 172.28887 
L 337.947729 175.490303 
L 333.636421 181.752281 
L 331.03969 179.666776 
L 328.222181 180.496501 
L 321.686293 180.300976 
z
" clip-path="url(#p0ed8bcb0af)" style="fill: #e8edf4; stroke: #b8c5d4; stroke-width: 0.45"/>
    <path d="M 331.084505 185.897966 
L 337.947729 175.490303 
L 341.75474 177.647166 
L 344.048259 182.48605 
L 349.327041 187.384493 
L 355.13612 187.423495 
L 366.166537 184.430068 
L 378.902731 183.043254 
L 389.202705 179.40797 
L 395.005737 178.637618 
L 399.185226 176.503128 
L 405.848082 176.092003 
L 405.73019 199.01293 
L 392.289017 215.964897 
L 382.44745 216.036507 
L 344.189628 202.150804 
L 339.722614 197.974679 
z
" clip-path="url(#p0ed8bcb0af)" style="fill: #e8edf4; stroke: #b8c5d4; stroke-width: 0.45"/>
    <path d="M 179.212401 325.303704 
L 179.310357 316.482152 
L 182.0211 312.011211 
L 182.679587 302.61885 
L 185.141204 297.178621 
L 189.615168 291.076579 
L 194.110296 287.96887 
L 197.871957 283.814172 
L 193.182125 282.22963 
L 193.890108 268.547663 
L 198.707543 265.356439 
L 206.148159 267.973158 
L 215.567199 265.234514 
L 223.799864 265.26166 
L 230.996045 259.880497 
L 236.543891 268.0044 
L 243.059769 287.308418 
L 238.801853 295.837355 
L 229.692179 308.323915 
L 229.810854 320.724907 
L 193.141326 321.480213 
L 182.044682 326.497326 
z
" clip-path="url(#p0ed8bcb0af)" style="fill: #e8edf4; stroke: #b8c5d4; stroke-width: 0.45"/>
    <path d="M 172.723671 342.831316 
L 173.806638 336.430264 
L 175.413854 335.528094 
L 175.847404 328.565302 
L 179.212401 325.303704 
L 182.044682 326.497326 
L 189.037102 322.885623 
L 193.682793 329.488031 
L 193.006166 336.372215 
L 189.628813 337.853628 
L 183.411844 337.088751 
L 179.829165 343.751021 
z
" clip-path="url(#p0ed8bcb0af)" style="fill: #e8edf4; stroke: #b8c5d4; stroke-width: 0.45"/>
    <path d="M 112.604006 208.748476 
L 120.214823 205.263795 
L 123.227981 194.818177 
L 126.442017 189.394492 
L 134.878862 187.787473 
L 142.913953 197.831336 
L 146.127989 198.835723 
L 150.346411 196.82695 
L 158.783256 197.228705 
L 160.390274 199.639232 
L 172.041155 199.639232 
L 172.442909 197.228705 
L 178.469227 195.019055 
L 179.674491 191.604141 
L 184.09379 189.193614 
L 193.936776 196.023441 
L 199.963093 194.818177 
L 205.788534 186.381333 
L 212.216606 179.95326 
L 211.21222 172.922556 
L 208.399938 169.507643 
L 215.430642 168.905011 
L 216.234151 166.293607 
L 221.657837 167.097116 
L 220.251696 175.734838 
L 221.657837 184.171683 
L 227.684155 188.79186 
L 229.090296 192.809405 
L 228.889418 198.634845 
L 230.509195 198.866242 
L 230.644778 207.98989 
L 228.895696 211.563408 
L 222.685919 211.851022 
L 218.700288 218.516089 
L 225.886055 219.354239 
L 231.816293 225.057242 
L 233.866561 229.73628 
L 239.210456 232.449182 
L 246.12566 245.182561 
L 230.996045 259.880497 
L 223.799864 265.26166 
L 215.567199 265.234514 
L 206.148159 267.973158 
L 198.707543 265.356439 
L 193.890108 268.547663 
L 183.589013 260.771957 
L 180.809943 255.774347 
L 174.293398 258.24957 
L 168.882798 257.479521 
L 165.7506 259.4444 
L 160.49661 258.025539 
L 151.526913 244.656555 
L 142.78034 240.025679 
L 139.825916 233.00635 
L 134.94924 227.943134 
L 127.080046 221.849557 
L 126.972415 218.046476 
z
" clip-path="url(#p0ed8bcb0af)" style="fill: #e8edf4; stroke: #b8c5d4; stroke-width: 0.45"/>
   </g>
   <g id="PathCollection_1">
    <defs>
     <path id="m315afe034a" d="M 0 2.12132 
C 0.562581 2.12132 1.102195 1.897805 1.5 1.5 
C 1.897805 1.102195 2.12132 0.562581 2.12132 0 
C 2.12132 -0.562581 1.897805 -1.102195 1.5 -1.5 
C 1.102195 -1.897805 0.562581 -2.12132 0 -2.12132 
C -0.562581 -2.12132 -1.102195 -1.897805 -1.5 -1.5 
C -1.897805 -1.102195 -2.12132 -0.562581 -2.12132 0 
C -2.12132 0.562581 -1.897805 1.102195 -1.5 1.5 
C -1.102195 1.897805 -0.562581 2.12132 0 2.12132 
z
" style="stroke: #ffffff; stroke-width: 0.5"/>
    </defs>
    <g clip-path="url(#p0ed8bcb0af)">
     <use xlink:href="#m315afe034a" x="424.590859" y="5.380075" style="fill: #8aa0b7; stroke: #ffffff; stroke-width: 0.5"/>
     <use xlink:href="#m315afe034a" x="184.133112" y="350.56273" style="fill: #8aa0b7; stroke: #ffffff; stroke-width: 0.5"/>
     <use xlink:href="#m315afe034a" x="336.247502" y="175.046126" style="fill: #8aa0b7; stroke: #ffffff; stroke-width: 0.5"/>
     <use xlink:href="#m315afe034a" x="432.781634" y="11.230629" style="fill: #8aa0b7; stroke: #ffffff; stroke-width: 0.5"/>
     <use xlink:href="#m315afe034a" x="184.133112" y="333.011069" style="fill: #8aa0b7; stroke: #ffffff; stroke-width: 0.5"/>
     <use xlink:href="#m315afe034a" x="484.461523" y="363.238929" style="fill: #8aa0b7; stroke: #ffffff; stroke-width: 0.5"/>
    </g>
   </g>
   <g id="PatchCollection_2">
    <defs>
     <path id="m3f2224f4fb" d="M 218.700288 -213.483911 
L 222.685919 -220.148978 
L 228.895696 -220.436592 
L 230.644778 -224.01011 
L 230.488451 -234.529639 
L 233.949989 -246.774964 
L 239.492804 -250.05221 
L 240.668531 -254.835506 
L 245.686668 -263.773981 
L 252.744073 -269.570944 
L 257.501626 -281.097119 
L 259.365496 -291.145796 
L 272.988627 -288.700147 
L 276.642882 -297.433035 
L 283.74405 -292.1212 
L 290.606164 -294.872949 
L 293.428588 -292.426365 
L 301.451335 -292.28642 
L 311.635394 -287.594861 
L 314.6613 -283.554352 
L 319.849103 -279.795488 
L 324.660481 -272.93548 
L 328.660036 -269.149119 
L 320.588612 -258.489059 
L 321.686293 -251.699024 
L 328.222181 -251.503499 
L 331.03969 -252.333224 
L 333.636421 -250.247719 
L 331.084505 -246.102034 
L 339.722614 -234.025321 
L 344.189628 -229.849196 
L 382.44745 -215.963493 
L 392.289017 -216.035103 
L 359.223795 -180.915635 
L 343.980412 -180.399967 
L 333.552386 -172.151155 
L 326.051274 -171.935152 
L 322.850707 -168.246752 
L 314.855538 -168.248836 
L 310.136248 -172.202991 
L 299.446818 -167.309237 
L 295.988489 -162.433035 
L 288.185322 -163.353678 
L 285.595048 -164.703166 
L 279.156807 -164.498806 
L 264.345291 -174.436078 
L 256.201149 -174.436078 
L 252.203689 -178.286931 
L 252.203689 -184.854369 
L 246.12566 -186.817439 
L 239.210456 -199.550818 
L 233.866561 -202.26372 
L 231.816293 -206.942758 
L 225.886055 -212.645761 
z
" style="stroke: #b45309; stroke-width: 1.15"/>
    </defs>
    <g clip-path="url(#p0ed8bcb0af)">
     <use xlink:href="#m3f2224f4fb" x="0" y="432" style="fill: #f59e0b; stroke: #b45309; stroke-width: 1.15"/>
    </g>
   </g>
   <g id="PathCollection_2">
    <path d="M 277.741967 220.135215 
C 278.838639 220.135215 279.890541 219.699502 280.666005 218.924038 
C 281.44147 218.148574 281.877182 217.096672 281.877182 216 
C 281.877182 214.903328 281.44147 213.851426 280.666005 213.075962 
C 279.890541 212.300498 278.838639 211.864785 277.741967 211.864785 
C 276.645295 211.864785 275.593393 212.300498 274.817929 213.075962 
C 274.042465 213.851426 273.606753 214.903328 273.606753 216 
C 273.606753 217.096672 274.042465 218.148574 274.817929 218.924038 
C 275.593393 219.699502 276.645295 220.135215 277.741967 220.135215 
L 277.741967 220.135215 
z
" clip-path="url(#p0ed8bcb0af)" style="fill: none; stroke: #7c2d12; stroke-width: 1.1"/>
   </g>
  </g>
 </g>
 <defs>
  <clipPath id="p0ed8bcb0af">
   <rect x="0" y="0" width="555.483934" height="432"/>
  </clipPath>
 </defs>
</svg>
