<?xml version="1.0" encoding="utf-8" standalone="no"?>
<!DOCTYPE svg PUBLIC "-//W3C//DTD SVG 1.1//EN"
  "http://www.w3.org/Graphics/SVG/1.1/DTD/svg11.dtd">
<svg xmlns:xlink="http://www.w3.org/1999/xlink" width="402.48pt" height="432pt" viewBox="0 0 402.48 432" xmlns="http://www.w3.org/2000/svg" version="1.1">
 <metadata>
  <rdf:RDF xmlns:dc="http://purl.org/dc/elements/1.1/" xmlns:cc="http://creativecommons.org/ns#" xmlns:rdf="http://www.w3.org/1999/02/22-rdf-syntax-ns#">
   <cc:Work>
    <dc:type rdf:resource="http://purl.org/dc/dcmitype/StillImage"/>
    <dc:date>2026-06-09T04:57:21.959795</dc:date>
    <dc:format>image/svg+xml</dc:format>
    <dc:creator>
     <cc:Agent>
      <dc:title>Matplotlib v3.10.8, https://matplotlib.org/</dc:title>
     </cc:Agent>
    </dc:creator>
   </cc:Work>
  </rdf:RDF>
 </metadata>
 <defs>
  <style type="text/css">*{stroke-linejoin: round; stroke-linecap: butt}</style>
 </defs>
 <g id="figure_1">
  <g id="patch_1">
   <path d="M 0 432 
L 402.48 432 
L 402.48 0 
L 0 0 
z
" style="fill: #eaf3ff"/>
  </g>
  <g id="axes_1">
   <g id="PatchCollection_1">
    <path d="M 75.848863 333.492742 
L 81.372618 330.326051 
L 83.655642 325.758516 
L 82.819042 322.117436 
L 86.635739 315.970835 
L 89.265532 306.437277 
L 88.492928 302.210558 
L 91.635992 300.846549 
L 90.865434 298.134156 
L 87.525917 296.691639 
L 89.898796 293.6708 
L 86.648948 290.941665 
L 84.967934 282.635195 
L 87.863013 281.169982 
L 86.646715 272.392843 
L 90.26268 258.59536 
L 94.574417 255.981566 
L 92.3859 248.953158 
L 92.362459 242.338492 
L 97.813661 237.636639 
L 97.646044 231.621751 
L 101.755374 224.593715 
L 101.773606 217.971979 
L 99.904324 216.656711 
L 96.587504 204.228074 
L 101.02314 196.821642 
L 100.342437 189.849045 
L 102.915862 183.305816 
L 107.631109 176.55274 
L 112.712101 172.075246 
L 110.557442 169.249744 
L 112.060792 166.932118 
L 111.832899 154.933594 
L 119.675211 151.382183 
L 122.146316 143.90171 
L 121.27195 142.098657 
L 127.271956 135.592635 
L 136.692777 137.346203 
L 140.925448 142.546258 
L 143.734765 136.754239 
L 151.945427 137.051895 
L 166.344734 150.341131 
L 172.231445 151.436133 
L 181.028675 156.754507 
L 188.444036 159.568846 
L 189.477648 162.746327 
L 182.38915 173.690775 
L 189.64973 175.650469 
L 197.735748 176.749193 
L 203.429912 175.592426 
L 209.960677 170.076856 
L 211.137907 163.722639 
L 214.703643 162.343003 
L 218.315887 166.499028 
L 218.169106 172.249003 
L 207.271538 179.149791 
L 199.145523 186.139876 
L 189.539039 195.957323 
L 185.814429 209.120426 
L 185.884937 216.292082 
L 184.3228 217.894961 
L 183.272817 226.306726 
L 192.414027 232.473792 
L 191.431017 237.43721 
L 195.930091 240.574507 
L 195.564346 244.091315 
L 188.646071 253.323868 
L 177.970629 257.185586 
L 163.530394 258.684657 
L 155.62111 257.959492 
L 157.134506 262.253555 
L 155.660177 267.642622 
L 156.98884 271.273656 
L 152.67022 273.807083 
L 145.292438 274.800883 
L 138.368953 272.179275 
L 135.590146 274.063067 
L 136.594364 281.217607 
L 141.455463 283.384917 
L 145.397176 281.114544 
L 147.541975 284.854594 
L 140.912612 287.089621 
L 135.131011 291.566743 
L 134.072471 298.809836 
L 132.370064 302.664856 
L 125.568246 302.68532 
L 119.924684 306.373653 
L 117.860066 311.772765 
L 124.941122 317.044258 
L 131.824609 318.500169 
L 129.347365 324.959681 
L 120.843511 329.020829 
L 116.164169 337.461616 
L 109.593035 340.302373 
L 106.642518 343.674074 
L 108.967957 351.151949 
L 113.760037 355.319881 
L 104.051792 353.827879 
L 86.653412 352.864961 
L 83.668292 348.666885 
L 83.808191 343.27447 
L 79.014623 343.738442 
L 76.478033 341.127253 
z
" clip-path="url(#p4c1cf0f0f3)" style="fill: #e8edf4; stroke: #b8c5d4; stroke-width: 0.45"/>
    <path d="M 110.275126 357.381867 
L 116.64 366.12 
L 126 370.44 
L 136.08 372.24 
L 132.84 375.84 
L 126 376.2 
L 122.328576 373.657032 
L 110.27988 373.4604 
z
" clip-path="url(#p4c1cf0f0f3)" style="fill: #e8edf4; stroke: #b8c5d4; stroke-width: 0.45"/>
    <path d="M 59.800354 314.263032 
L 66.656493 307.90063 
L 69.107693 295.941918 
L 77.109437 298.475717 
L 80.871812 283.560162 
L 76.039921 281.646232 
L 73.790384 290.633591 
L 69.25001 289.619699 
L 73.964885 265.983932 
L 77.273334 261.062558 
L 75.199972 254.036755 
L 74.605962 245.92525 
L 77.639637 245.691217 
L 87.035529 222.545467 
L 90.083156 211.816076 
L 88.425211 201.028641 
L 90.575406 195.088911 
L 89.71276 186.202383 
L 93.923108 177.410734 
L 95.220331 163.482654 
L 99.78303 132.431898 
L 99.256178 120.646571 
L 97.757479 110.505423 
L 101.459206 108.667395 
L 103.388949 104.976086 
L 106.918222 109.872903 
L 107.878907 115.068121 
L 111.655979 118.116493 
L 109.388397 125.083137 
L 113.256626 133.159296 
L 116.077105 143.085015 
L 121.27195 142.098657 
L 122.146316 143.90171 
L 119.675211 151.382183 
L 111.832899 154.933594 
L 112.060792 166.932118 
L 110.557442 169.249744 
L 112.712101 172.075246 
L 107.631109 176.55274 
L 102.915862 183.305816 
L 100.342437 189.849045 
L 101.02314 196.821642 
L 96.587504 204.228074 
L 99.904324 216.656711 
L 101.773606 217.971979 
L 101.755374 224.593715 
L 97.646044 231.621751 
L 97.813661 237.636639 
L 92.362459 242.338492 
L 92.3859 248.953158 
L 94.574417 255.981566 
L 90.26268 258.59536 
L 86.646715 272.392843 
L 87.863013 281.169982 
L 84.967934 282.635195 
L 86.648948 290.941665 
L 89.898796 293.6708 
L 87.525917 296.691639 
L 90.865434 298.134156 
L 91.635992 300.846549 
L 88.492928 302.210558 
L 89.265532 306.437277 
L 86.635739 315.970835 
L 82.819042 322.117436 
L 83.655642 325.758516 
L 81.372618 330.326051 
L 75.848863 333.492742 
L 76.478033 341.127253 
L 79.014623 343.738442 
L 83.808191 343.27447 
L 83.668292 348.666885 
L 86.653412 352.864961 
L 104.051792 353.827879 
L 110.724873 354.955996 
L 104.318753 354.902046 
L 94.355268 359.274244 
L 93.194408 365.999415 
L 90.145478 366.166474 
L 82.022811 363.826152 
L 73.780152 358.812499 
L 64.823303 354.691826 
L 62.567813 350.131354 
L 64.608246 345.912449 
L 60.98577 341.124276 
L 60.062291 328.851165 
L 63.124058 321.92582 
L 70.728617 316.362625 
z
" clip-path="url(#p4c1cf0f0f3)" style="fill: #e8edf4; stroke: #b8c5d4; stroke-width: 0.45"/>
    <path d="M 66.869784 358.829928 
L 72.80568 360.341496 
L 82.913904 365.15088 
L 92.464344 367.735176 
L 96.179184 364.433976 
L 98.514144 359.504856 
L 105.15132 356.53176 
L 110.275126 357.381867 
L 110.27988 373.4604 
L 122.328576 373.657032 
L 119.944584 376.568928 
L 113.769864 378.805176 
L 105.96888 377.993232 
L 100.741752 375.828696 
L 93.199104 374.787576 
L 76.78656 366.894144 
z
" clip-path="url(#p4c1cf0f0f3)" style="fill: #e8edf4; stroke: #b8c5d4; stroke-width: 0.45"/>
    <path d="M 163.8 351.72 
L 172.44 347.4 
L 178.56 349.2 
L 182.88 346.32 
L 188.64 349.56 
L 186.48 352.08 
L 176.76 354.24 
L 173.52 351.72 
L 167.4 354.96 
z
" clip-path="url(#p4c1cf0f0f3)" style="fill: #e8edf4; stroke: #b8c5d4; stroke-width: 0.45"/>
    <path d="M 183.765066 222.548072 
L 184.3228 217.894961 
L 185.884937 216.292082 
L 185.814429 209.120426 
L 189.539039 195.957323 
L 194.212615 195.189742 
L 201.432639 200.758146 
L 204.109127 200.547926 
L 217.166748 209.140146 
L 221.330959 214.039196 
L 218.156083 217.454429 
L 220.149636 221.53232 
L 217.033733 226.057067 
L 208.901764 230.059055 
L 203.586554 228.619143 
L 199.689862 229.390817 
L 193.034268 226.299285 
L 188.151403 226.530341 
z
" clip-path="url(#p4c1cf0f0f3)" style="fill: #e8edf4; stroke: #b8c5d4; stroke-width: 0.45"/>
    <path d="M 71.731905 32.571575 
L 73.63151 31.25519 
L 73.623696 28.213887 
L 77.975802 26.135503 
L 77.258079 22.242159 
L 79.095548 19.737009 
L 79.618121 16.376842 
L 87.851479 11.476676 
L 93.752328 10.091459 
L 94.717664 9.009106 
L 101.205826 9.346946 
L 104.612502 -13.517147 
L 103.485129 -17.640058 
L 100.291278 -20.266874 
L 100.327927 -25.498183 
L 104.382749 -26.684343 
L 105.822475 -25.939086 
L 106.065809 -28.696871 
L 101.846904 -29.441384 
L 101.757793 -33.946597 
L 115.786332 -33.785677 
L 118.167768 -36.267572 
L 120.168018 -33.983991 
L 121.571653 -29.736808 
L 122.930454 -30.624196 
L 126.894491 -26.816056 
L 132.492475 -27.282632 
L 133.886064 -29.486033 
L 142.204998 -32.348555 
L 143.041784 -35.397858 
L 148.184726 -37.446477 
L 147.795355 -38.959687 
L 141.696006 -39.57844 
L 140.696439 -44.112861 
L 140.98684 -48.939915 
L 137.764339 -50.806406 
L 139.113652 -51.469063 
L 144.443931 -50.547817 
L 150.168977 -48.748113 
L 152.247362 -50.450148 
L 157.424906 -51.567289 
L 165.478368 -54.262567 
L 168.11151 -57.010306 
L 167.158266 -59.041996 
L 170.901479 -59.360302 
L 172.577098 -57.701241 
L 171.640783 -54.539759 
L 174.114678 -53.449221 
L 175.766113 -50.103379 
L 173.769025 -47.566789 
L 172.623421 -41.437675 
L 174.466471 -37.797339 
L 174.988486 -34.465636 
L 179.417797 -31.087423 
L 182.951906 -30.730236 
L 183.747765 -32.140382 
L 189.281009 -33.714612 
L 191.622075 -35.629471 
L 201.270974 -34.687203 
L 201.919679 -36.158369 
L 200.711939 -37.589724 
L 201.432081 -39.67462 
L 204.337764 -39.034845 
L 207.73737 -39.770986 
L 215.00595 -36.760007 
L 217.234651 -38.71226 
L 218.845157 -38.411255 
L 219.827051 -36.384402 
L 223.274469 -36.898975 
L 226.033742 -39.633878 
L 228.24477 -44.93588 
L 232.503859 -51.524873 
L 234.956546 -51.865132 
L 236.737647 -47.882863 
L 240.776098 -35.29126 
L 244.626654 -34.102681 
L 244.820874 -29.132566 
L 239.405391 -23.205486 
L 241.644882 -21.0352 
L 254.371919 -19.904478 
L 254.631624 -12.687802 
L 260.100314 -17.412351 
L 269.160598 -14.824602 
L 281.118938 -10.427475 
L 284.633142 -6.208198 
L 283.452563 -2.22258 
L 291.824703 -4.441608 
L 305.836871 -0.633468 
L 316.59361 -0.914009 
L 327.237239 5.044697 
L 336.432585 13.110809 
L 341.978851 15.187706 
L 348.13587 15.476432 
L 350.745199 17.74755 
L 354.384047 31.271189 
L 351.516873 43.174091 
L 347.853841 47.874827 
L 337.705065 57.893192 
L 333.117996 66.032602 
L 327.788089 72.274454 
L 325.988013 72.415096 
L 323.976415 77.712261 
L 324.487453 91.202787 
L 321.715157 107.047773 
L 319.438645 109.88853 
L 318.162072 119.513617 
L 310.861866 128.912485 
L 309.637755 136.348682 
L 303.810018 139.468864 
L 302.124353 143.784508 
L 294.302133 143.767392 
L 282.975755 146.534107 
L 277.904622 149.73726 
L 269.840928 151.840574 
L 261.367399 157.573433 
L 255.272701 164.714579 
L 254.224765 170.090623 
L 255.421902 174.066566 
L 254.077053 181.340169 
L 252.443107 184.853629 
L 247.411228 188.816177 
L 239.422506 201.488148 
L 233.091172 207.199427 
L 228.196215 210.566664 
L 224.91288 217.415362 
L 220.149636 221.53232 
L 218.156083 217.454429 
L 221.330959 214.039196 
L 217.166748 209.140146 
L 204.109127 200.547926 
L 201.432639 200.758146 
L 194.212615 195.189742 
L 189.539039 195.957323 
L 199.145523 186.139876 
L 207.271538 179.149791 
L 218.169106 172.249003 
L 218.315887 166.499028 
L 214.703643 162.343003 
L 211.137907 163.722639 
L 213.52697 155.309758 
L 213.530691 151.351301 
L 210.939594 150.044963 
L 208.239107 151.209171 
L 205.55462 150.889934 
L 204.712997 148.118383 
L 204.043084 141.52046 
L 202.694701 139.369893 
L 197.832115 137.421361 
L 194.893131 138.831508 
L 187.292479 137.449266 
L 187.771147 127.675351 
L 185.641975 123.672247 
L 187.892628 122.183966 
L 187.200019 118.08003 
L 189.172736 114.925246 
L 190.451728 109.25415 
L 188.75118 104.777772 
L 184.818211 102.756314 
L 184.045979 99.915185 
L 185.103217 95.756927 
L 171.299594 95.459643 
L 168.530647 87.076155 
L 170.631728 86.955976 
L 170.53685 83.85105 
L 169.133773 81.748852 
L 168.816211 77.586874 
L 164.634327 75.451562 
L 160.104929 75.522256 
L 157.125018 73.43122 
L 152.257966 72.004703 
L 149.425209 69.314634 
L 141.362259 68.126242 
L 133.543573 61.677147 
L 134.122329 56.850279 
L 133.237174 54.082448 
L 134.003266 48.686312 
L 124.58226 49.905587 
L 120.788631 52.60905 
L 114.493015 55.526825 
L 112.886974 57.704552 
L 103.826318 57.252487 
L 99.764984 58.492597 
L 96.489463 57.665857 
L 96.970364 46.72885 
L 91.062632 50.97194 
L 84.708787 50.785905 
L 81.986162 46.945395 
L 77.207663 46.527932 
L 78.729245 43.4364 
L 74.728373 39.056016 
z
" clip-path="url(#p4c1cf0f0f3)" style="fill: #e8edf4; stroke: #b8c5d4; stroke-width: 0.45"/>
    <path d="M 103.388949 104.976086 
L 107.930625 97.205025 
L 104.833698 91.152929 
L 106.485504 88.732612 
L 105.19535 86.063008 
L 108.008016 82.466204 
L 108.503427 71.27805 
L 110.051426 68.841361 
L 103.826318 57.252487 
L 112.886974 57.704552 
L 114.493015 55.526825 
L 120.788631 52.60905 
L 124.58226 49.905587 
L 134.003266 48.686312 
L 133.237174 54.082448 
L 134.122329 56.850279 
L 133.543573 61.677147 
L 141.362259 68.126242 
L 149.425209 69.314634 
L 152.257966 72.004703 
L 157.125018 73.43122 
L 160.104929 75.522256 
L 164.634327 75.451562 
L 168.816211 77.586874 
L 169.133773 81.748852 
L 170.53685 83.85105 
L 170.631728 86.955976 
L 168.530647 87.076155 
L 171.299594 95.459643 
L 185.103217 95.756927 
L 184.045979 99.915185 
L 184.818211 102.756314 
L 188.75118 104.777772 
L 190.451728 109.25415 
L 189.172736 114.925246 
L 187.200019 118.08003 
L 187.892628 122.183966 
L 185.641975 123.672247 
L 185.519006 121.452475 
L 178.811694 117.769723 
L 172.126335 117.667776 
L 159.578449 119.762904 
L 156.125079 126.098889 
L 155.943509 129.971769 
L 153.107589 138.59301 
L 151.945427 137.051895 
L 143.734765 136.754239 
L 140.925448 142.546258 
L 136.692777 137.346203 
L 127.271956 135.592635 
L 121.27195 142.098657 
L 116.077105 143.085015 
L 113.256626 133.159296 
L 109.388397 125.083137 
L 111.655979 118.116493 
L 107.878907 115.068121 
L 106.918222 109.872903 
z
" clip-path="url(#p4c1cf0f0f3)" style="fill: #e8edf4; stroke: #b8c5d4; stroke-width: 0.45"/>
    <path d="M 18.281214 12.504707 
L 20.522379 7.462038 
L 26.261564 2.914967 
L 27.115093 5.912365 
L 25.061079 7.626865 
L 25.255858 10.265216 
L 28.231862 9.691855 
L 31.14015 10.470226 
L 34.161919 14.105725 
L 38.23274 11.144046 
L 39.595075 6.286296 
L 44.007085 0.021748 
L 52.665161 -2.817521 
L 60.516031 -10.356409 
L 62.757197 -15.037798 
L 61.752793 -20.505371 
L 63.672303 -21.18812 
L 68.460476 -17.778096 
L 70.758755 -14.379606 
L 74.091574 -12.524463 
L 78.333176 -4.975529 
L 83.694337 -4.07363 
L 87.661723 -5.977514 
L 90.26175 -4.731823 
L 94.582975 -5.350575 
L 100.096499 -1.978874 
L 95.452689 5.348678 
L 97.602884 5.519459 
L 101.205826 9.346946 
L 94.717664 9.009106 
L 93.752328 10.091459 
L 87.851479 11.476676 
L 79.618121 16.376842 
L 79.095548 19.737009 
L 77.258079 22.242159 
L 77.975802 26.135503 
L 73.623696 28.213887 
L 73.63151 31.25519 
L 71.731905 32.571575 
L 74.728373 39.056016 
L 78.729245 43.4364 
L 77.207663 46.527932 
L 81.986162 46.945395 
L 84.708787 50.785905 
L 91.062632 50.97194 
L 96.970364 46.72885 
L 96.489463 57.665857 
L 99.764984 58.492597 
L 103.826318 57.252487 
L 110.051426 68.841361 
L 108.503427 71.27805 
L 108.008016 82.466204 
L 105.19535 86.063008 
L 106.485504 88.732612 
L 104.833698 91.152929 
L 107.930625 97.205025 
L 101.459206 108.667395 
L 97.757479 110.505423 
L 90.538198 106.371349 
L 89.913306 103.417111 
L 75.639387 96.187413 
L 62.727245 88.312917 
L 57.173723 83.874862 
L 54.191022 77.926946 
L 55.373461 75.852282 
L 49.275415 66.403556 
L 42.176499 53.11953 
L 35.373938 38.783289 
L 32.429373 35.502001 
L 30.163837 30.199255 
L 24.570132 25.500007 
L 19.440027 22.585208 
L 21.770303 19.372008 
z
" clip-path="url(#p4c1cf0f0f3)" style="fill: #e8edf4; stroke: #b8c5d4; stroke-width: 0.45"/>
    <path d="M 35.705266 -33.777864 
L 38.391614 -34.31811 
L 38.07275 -37.924959 
L 39.761205 -40.5328 
L 43.332894 -41.015561 
L 49.120634 -49.31738 
L 46.466842 -51.030764 
L 47.825271 -55.209486 
L 46.200812 -61.796246 
L 47.744531 -63.68655 
L 46.608043 -69.776038 
L 43.692686 -73.611153 
L 44.61542 -77.110846 
L 46.936023 -76.594041 
L 48.293521 -78.734003 
L 46.621995 -82.974861 
L 47.495802 -84.027634 
L 51.215948 -83.798996 
L 56.618036 -88.825108 
L 59.582879 -89.591387 
L 60.980933 -98.056731 
L 65.110355 -101.397922 
L 69.647381 -101.534658 
L 70.219997 -103.035404 
L 75.853699 -102.43451 
L 84.324996 -107.679957 
L 87.810551 -111.148583 
L 90.361279 -110.707493 
L 92.25028 -108.81347 
L 90.852598 -106.389245 
L 86.227764 -105.182435 
L 84.401457 -101.582655 
L 81.614464 -99.518223 
L 79.521941 -96.842479 
L 78.64125 -91.704746 
L 76.644349 -87.494399 
L 80.361145 -87.012196 
L 81.284438 -83.702072 
L 82.872992 -82.117983 
L 83.441515 -79.218997 
L 82.586312 -76.554043 
L 82.839692 -75.051251 
L 84.611863 -74.451102 
L 86.326735 -71.939627 
L 95.585518 -72.63205 
L 99.768147 -71.714711 
L 104.835744 -65.518996 
L 107.745706 -66.288995 
L 112.931622 -65.903531 
L 117.035372 -66.72469 
L 119.581635 -65.48737 
L 118.28497 -61.609467 
L 116.678184 -59.192126 
L 116.114312 -54.028348 
L 117.562781 -49.244268 
L 119.60954 -47.104864 
L 119.857153 -45.492869 
L 116.208446 -41.908716 
L 118.820937 -40.322022 
L 120.734681 -37.804595 
L 122.930454 -30.624196 
L 121.571653 -29.736808 
L 120.168018 -33.983991 
L 118.167768 -36.267572 
L 115.786332 -33.785677 
L 101.757793 -33.946597 
L 101.846904 -29.441384 
L 106.065809 -28.696871 
L 105.822475 -25.939086 
L 104.382749 -26.684343 
L 100.327927 -25.498183 
L 100.291278 -20.266874 
L 103.485129 -17.640058 
L 104.612502 -13.517147 
L 101.205826 9.346946 
L 97.602884 5.519459 
L 95.452689 5.348678 
L 100.096499 -1.978874 
L 94.582975 -5.350575 
L 90.26175 -4.731823 
L 87.661723 -5.977514 
L 83.694337 -4.07363 
L 78.333176 -4.975529 
L 74.091574 -12.524463 
L 70.758755 -14.379606 
L 68.460476 -17.778096 
L 63.672303 -21.18812 
L 61.752793 -20.505371 
L 55.135336 -24.59554 
L 53.090066 -23.449936 
L 46.980113 -24.448945 
L 45.225988 -27.54643 
L 43.883558 -27.43146 
L 36.682137 -31.542651 
z
" clip-path="url(#p4c1cf0f0f3)" style="fill: #e8edf4; stroke: #b8c5d4; stroke-width: 0.45"/>
    <path d="M 21.472089 -5.422013 
L 22.933395 -7.451657 
L 21.717655 -13.986327 
L 24.239734 -15.072029 
L 25.564862 -19.557336 
L 28.289533 -24.194449 
L 27.78761 -27.132688 
L 31.732114 -28.677152 
L 36.682137 -31.542651 
L 43.883558 -27.43146 
L 45.225988 -27.54643 
L 46.980113 -24.448945 
L 53.090066 -23.449936 
L 55.135336 -24.59554 
L 61.752793 -20.505371 
L 62.757197 -15.037798 
L 60.516031 -10.356409 
L 52.665161 -2.817521 
L 44.007085 0.021748 
L 39.595075 6.286296 
L 38.23274 11.144046 
L 34.161919 14.105725 
L 31.14015 10.470226 
L 28.231862 9.691855 
L 25.255858 10.265216 
L 25.061079 7.626865 
L 27.115093 5.912365 
L 26.261564 2.914967 
L 30.093888 -2.465914 
L 28.536774 -5.610281 
L 25.784756 -2.266857 
z
" clip-path="url(#p4c1cf0f0f3)" style="fill: #e8edf4; stroke: #b8c5d4; stroke-width: 0.45"/>
    <path d="M 153.107589 138.59301 
L 155.943509 129.971769 
L 156.125079 126.098889 
L 159.578449 119.762904 
L 172.126335 117.667776 
L 178.811694 117.769723 
L 185.519006 121.452475 
L 185.641975 123.672247 
L 187.771147 127.675351 
L 187.292479 137.449266 
L 194.893131 138.831508 
L 197.832115 137.421361 
L 202.694701 139.369893 
L 204.043084 141.52046 
L 204.712997 148.118383 
L 205.55462 150.889934 
L 208.239107 151.209171 
L 210.939594 150.044963 
L 213.530691 151.351301 
L 213.52697 155.309758 
L 209.960677 170.076856 
L 203.429912 175.592426 
L 197.735748 176.749193 
L 189.64973 175.650469 
L 182.38915 173.690775 
L 189.477648 162.746327 
L 188.444036 159.568846 
L 181.028675 156.754507 
L 172.231445 151.436133 
L 166.344734 150.341131 
z
" clip-path="url(#p4c1cf0f0f3)" style="fill: #e8edf4; stroke: #b8c5d4; stroke-width: 0.45"/>
   </g>
   <g id="PathCollection_1">
    <defs>
     <path id="ma04a98707e" d="M 0 2.12132 
C 0.562581 2.12132 1.102195 1.897805 1.5 1.5 
C 1.897805 1.102195 2.12132 0.562581 2.12132 0 
C 2.12132 -0.562581 1.897805 -1.102195 1.5 -1.5 
C 1.102195 -1.897805 0.562581 -2.12132 0 -2.12132 
C -0.562581 -2.12132 -1.102195 -1.897805 -1.5 -1.5 
C -1.897805 -1.102195 -2.12132 -0.562581 -2.12132 0 
C -2.12132 0.562581 -1.897805 1.102195 -1.5 1.5 
C -1.102195 1.897805 -0.562581 2.12132 0 2.12132 
z
" style="stroke: #ffffff; stroke-width: 0.5"/>
    </defs>
    <g clip-path="url(#p4c1cf0f0f3)">
     <use xlink:href="#ma04a98707e" x="179.64" y="351" style="fill: #8aa0b7; stroke: #ffffff; stroke-width: 0.5"/>
     <use xlink:href="#ma04a98707e" x="338.04" y="370.8" style="fill: #8aa0b7; stroke: #ffffff; stroke-width: 0.5"/>
    </g>
   </g>
   <g id="PatchCollection_2">
    <defs>
     <path id="m86de583ca6" d="M 183.765066 -209.451928 
L 184.3228 -214.105039 
L 185.884937 -215.707918 
L 185.814429 -222.879574 
L 189.539039 -236.042677 
L 194.212615 -236.810258 
L 201.432639 -231.241854 
L 204.109127 -231.452074 
L 217.166748 -222.859854 
L 221.330959 -217.960804 
L 218.156083 -214.545571 
L 220.149636 -210.46768 
L 217.033733 -205.942933 
L 208.901764 -201.940945 
L 203.586554 -203.380857 
L 199.689862 -202.609183 
L 193.034268 -205.700715 
L 188.151403 -205.469659 
z
" style="stroke: #b45309; stroke-width: 1.15"/>
    </defs>
    <g clip-path="url(#p4c1cf0f0f3)">
     <use xlink:href="#m86de583ca6" x="0" y="432" style="fill: #f59e0b; stroke: #b45309; stroke-width: 1.15"/>
    </g>
   </g>
   <g id="PathCollection_2">
    <defs>
     <path id="md7f2363011" d="M 0 3.316625 
C 0.879579 3.316625 1.723251 2.967164 2.345208 2.345208 
C 2.967164 1.723251 3.316625 0.879579 3.316625 0 
C 3.316625 -0.879579 2.967164 -1.723251 2.345208 -2.345208 
C 1.723251 -2.967164 0.879579 -3.316625 0 -3.316625 
C -0.879579 -3.316625 -1.723251 -2.967164 -2.345208 -2.345208 
C -2.967164 -1.723251 -3.316625 -0.879579 -3.316625 0 
C -3.316625 0.879579 -2.967164 1.723251 -2.345208 2.345208 
C -1.723251 2.967164 -0.879579 3.316625 0 3.316625 
z
" style="stroke: #ffffff"/>
    </defs>
    <g clip-path="url(#p4c1cf0f0f3)">
     <use xlink:href="#md7f2363011" x="201.24" y="216" style="fill: #f97316; stroke: #ffffff"/>
    </g>
   </g>
   <g id="PathCollection_3">
    <path d="M 201.24 220.449719 
C 202.420079 220.449719 203.551984 219.980869 204.386427 219.146427 
C 205.220869 218.311984 205.689719 217.180079 205.689719 216 
C 205.689719 214.819921 205.220869 213.688016 204.386427 212.853573 
C 203.551984 212.019131 202.420079 211.550281 201.24 211.550281 
C 200.059921 211.550281 198.928016 212.019131 198.093573 212.853573 
C 197.259131 213.688016 196.790281 214.819921 196.790281 216 
C 196.790281 217.180079 197.259131 218.311984 198.093573 219.146427 
C 198.928016 219.980869 200.059921 220.449719 201.24 220.449719 
L 201.24 220.449719 
z
" clip-path="url(#p4c1cf0f0f3)" style="fill: none; stroke: #7c2d12; stroke-width: 1.1"/>
   </g>
  </g>
 </g>
 <defs>
  <clipPath id="p4c1cf0f0f3">
   <rect x="0" y="0" width="402.48" height="432"/>
  </clipPath>
 </defs>
</svg>
