<?xml version="1.0" encoding="utf-8" standalone="no"?>
<!DOCTYPE svg PUBLIC "-//W3C//DTD SVG 1.1//EN"
  "http://www.w3.org/Graphics/SVG/1.1/DTD/svg11.dtd">
<svg xmlns:xlink="http://www.w3.org/1999/xlink" width="576pt" height="422.4pt" viewBox="0 0 576 422.4" xmlns="http://www.w3.org/2000/svg" version="1.1">
 <metadata>
  <rdf:RDF xmlns:dc="http://purl.org/dc/elements/1.1/" xmlns:cc="http://creativecommons.org/ns#" xmlns:rdf="http://www.w3.org/1999/02/22-rdf-syntax-ns#">
   <cc:Work>
    <dc:type rdf:resource="http://purl.org/dc/dcmitype/StillImage"/>
    <dc:date>2026-06-09T04:57:14.043621</dc:date>
    <dc:format>image/svg+xml</dc:format>
    <dc:creator>
     <cc:Agent>
      <dc:title>Matplotlib v3.10.8, https://matplotlib.org/</dc:title>
     </cc:Agent>
    </dc:creator>
   </cc:Work>
  </rdf:RDF>
 </metadata>
 <defs>
  <style type="text/css">*{stroke-linejoin: round; stroke-linecap: butt}</style>
 </defs>
 <g id="figure_1">
  <g id="patch_1">
   <path d="M 0 422.4 
L 576 422.4 
L 576 0 
L 0 0 
z
" style="fill: #eaf3ff"/>
  </g>
  <g id="axes_1">
   <g id="PatchCollection_1">
    <path d="M 701.533149 115.689057 
L 709.760368 109.595537 
L 704.06688 91.688256 
L 717.728626 80.624158 
L 714.837504 77.272896 
L 736.65984 66.66144 
L 716.544 57.532416 
L 775.487829 21.932299 
L 782.708969 12.1404 
L 754.288751 -1.014022 
L 762.137946 -13.525506 
L 744.853048 -27.814494 
L 757.77888 -44.274816 
L 735.448102 -66.130295 
L 753.166587 -80.607303 
L 723.762118 -93.400568 
L 726.565048 -106.843717 
L 742.07136 -108.612864 
L 774.740736 -116.315712 
L 794.548224 -122.99424 
L 826.089024 -111.387264 
L 878.668032 -106.817664 
L 951.212928 -85.10208 
L 965.949504 -75.976896 
L 967.21824 -63.198336 
L 945.903936 -53.110656 
L 914.55264 -47.990976 
L 828.839232 -62.584512 
L 814.741248 -60.144576 
L 846.043584 -46.08288 
L 848.523072 -17.555904 
L 888.244416 -6.716736 
L 890.725824 -16.026432 
L 879.159917 -24.277632 
L 891.379968 -31.549824 
L 937.79424 -19.599168 
L 953.96352 -24.277632 
L 941.04192 -38.338944 
L 985.787328 -57.143616 
L 1003.507968 -56.036736 
L 1021.4352 -49.326336 
L 1032.619392 -62.521728 
L 1016.609088 -73.96704 
L 1026.00864 -85.449792 
L 1011.894144 -97.359168 
L 1065.6 -91.2 
L 1076.569728 -80.447424 
L 1052.259264 -78.077184 
L 1052.390784 -67.39296 
L 1067.50368 -60.819264 
L 1097.167872 -64.98336 
L 1101.864192 -77.229696 
L 1208.974656 -102.861696 
L 1223.456832 -101.91648 
L 1204.527744 -90.265152 
L 1228.344576 -88.262784 
L 1242.099456 -94.822272 
L 1278.086784 -95.352576 
L 1306.5984 -103.311744 
L 1328.475264 -91.746048 
L 1350.294528 -104.461248 
L 1330.176 -115.584 
L 1340.16 -121.92 
L 1396.8768 -116.109888 
L 1423.451808 -110.108832 
L 1493.033472 -88.172736 
L 1505.869056 -98.220096 
L 1486.357248 -108.371712 
L 1485.796224 -112.444608 
L 1462.657536 -114.328512 
L 1468.987392 -123.431616 
L 1458.718464 -138.410688 
L 1458.137472 -144.556224 
L 1493.569152 -161.9424 
L 1506.170112 -179.392512 
L 1520.448 -183.168 
L 1571.280768 -178.104768 
L 1575.283776 -167.425152 
L 1557.083712 -151.852416 
L 1569.026112 -145.731648 
L 1575.204096 -132.309888 
L 1570.84224 -106.00032 
L 1592.023104 -94.23168 
L 1583.78304 -81.41568 
L 1546.176 -54.144 
L 1568.121792 -51.315264 
L 1575.758784 -58.227264 
L 1596.883008 -63.157632 
L 1601.980992 -72.658368 
L 1618.5984 -81.801024 
L 1607.409792 -92.716608 
L 1616.368128 -105.392256 
L 1595.373312 -106.972032 
L 1590.755904 -117.650496 
L 1606.07616 -136.9296 
L 1581.14112 -152.585664 
L 1615.503744 -165.526848 
L 1611.057792 -179.179584 
L 1620.633792 -179.615424 
L 1630.723392 -168.970752 
L 1623.148416 -150.442752 
L 1643.694912 -146.935104 
L 1634.940096 -160.780992 
L 1667.07168 -168.329664 
L 1706.918784 -169.346112 
L 1742.4 -158.4 
L 1725.325632 -174.39072 
L 1723.412928 -194.84544 
L 1756.8 -198.72 
L 1802.980992 -197.873472 
L 1844.58816 -200.388096 
L 1828.983552 -210.425664 
L 1851.202944 -223.035456 
L 1873.261632 -223.563456 
L 1910.592 -233.088 
L 1961.291136 -235.647936 
L 1967.696832 -240.90624 
L 2018.112 -242.688 
L 2033.821632 -238.377216 
L 2076.912768 -248.580288 
L 2112.185664 -248.261376 
L 2117.478144 -256.548288 
L 2135.824128 -264.720768 
L 2181.15072 -272.600064 
L 2214.079488 -266.378688 
L 2187.936 -261.64608 
L 2231.426496 -258.704448 
L 2236.608 -249.216 
L 2254.15296 -253.88832 
L 2310.283392 -253.632 
L 2353.564992 -244.267008 
L 2368.976064 -237.074688 
L 2364.199488 -227.093568 
L 2292.504 -210.753216 
L 2278.08 -205.056 
L 2330.288448 -197.524608 
L 2347.575168 -201.157056 
L 2357.367936 -188.83296 
L 2365.801152 -193.821696 
L 2396.502144 -196.85472 
L 2458.105536 -193.684224 
L 2462.784 -184.704 
L 2543.052672 -181.847424 
L 2544.149184 -196.512576 
L 2584.896 -193.152 
L 2615.547648 -193.257408 
L 2646.552192 -183.143232 
L 2655.390144 -170.855424 
L 2644.032 -162.816 
L 2668.147008 -147.706368 
L 2698.340736 -139.910208 
L 2716.8672 -160.05696 
L 2747.667072 -151.419264 
L 2780.389056 -156.5808 
L 2817.55296 -150.674496 
L 2831.694528 -156.058176 
L 2863.100736 -153.366336 
L 2849.239872 -171.190848 
L 2874.588864 -179.508672 
L 3048 -167.04 
L 3064.342656 -155.643456 
L 3114.60288 -140.970624 
L 3192.132096 -144.603072 
L 3230.357568 -141.441024 
L 3246.341952 -133.502208 
L 3244.006272 -119.462016 
L 3267.658176 -113.995776 
L 3293.358144 -117.927168 
L 3327.407616 -118.430016 
L 3363.655104 -114.662208 
L 3400.044864 -116.787648 
L 3433.490496 -99.72096 
L 3457.284096 -105.861696 
L 3441.75744 -118.132992 
L 3450.30624 -126.662976 
L 3511.563072 -121.294656 
L 3551.501376 -122.4432 
L 3606.72 -113.28 
L 3633.6 -104.901818 
L 3633.6 -28.410407 
L 3608.77824 -19.870656 
L 3583.896576 -21.277632 
L 3601.2096 -11.057856 
L 3612.6384 4.762176 
L 3621.510528 9.933696 
L 3623.738112 17.876352 
L 3618.7824 22.96128 
L 3582.99456 18.77952 
L 3529.330368 33.23232 
L 3512.258496 35.469888 
L 3455.0112 60.745344 
L 3447.95232 69.470016 
L 3420.488832 56.18784 
L 3370.463616 71.25984 
L 3361.728 64.128 
L 3343.233408 72.35328 
L 3317.554368 69.720768 
L 3311.368512 82.348608 
L 3288.332736 100.929024 
L 3289.017024 108.688896 
L 3310.884672 112.991424 
L 3308.312448 140.942592 
L 3290.487936 141.653952 
L 3282.268032 157.714944 
L 3290.255808 165.981312 
L 3256.680384 175.788864 
L 3250.017216 197.710656 
L 3221.394048 202.393344 
L 3215.638656 221.900352 
L 3187.963968 239.78784 
L 3180.864 226.56 
L 3161.926272 155.884224 
L 3171.156864 129.255936 
L 3187.35648 117.79776 
L 3188.35872 108.824832 
L 3218.195136 104.5296 
L 3252.492288 80.356416 
L 3285.543168 60.6144 
L 3320.058048 45.29472 
L 3335.49216 18.228288 
L 3312.161664 19.847616 
L 3300.631872 35.664 
L 3251.932416 56.750784 
L 3236.204544 33.139968 
L 3186.637056 39.659136 
L 3138.586752 71.842944 
L 3154.44 83.61696 
L 3081.902016 90.606912 
L 3083.29248 76.723968 
L 3053.447232 73.809984 
L 3029.660352 83.241984 
L 2970.954624 79.941696 
L 2907.798144 85.632384 
L 2772.022848 168.391872 
L 2802.272832 170.81184 
L 2811.713664 182.835456 
L 2830.36224 187.103808 
L 2842.648896 177.51264 
L 2863.708992 178.758144 
L 2891.429952 199.880256 
L 2892.081216 216.215616 
L 2877.070464 235.398336 
L 2875.451136 258.325824 
L 2866.789056 289.023168 
L 2837.850624 316.80672 
L 2831.418432 330.08736 
L 2767.092288 385.954368 
L 2741.507904 397.219776 
L 2729.400384 397.468992 
L 2717.338944 388.136448 
L 2691.568704 402.187392 
L 2688.576 408.576 
L 2685.888 405.216 
L 2685.770235 395.462119 
L 2695.578008 394.944197 
L 2698.340258 372.258822 
L 2693.283648 355.815168 
L 2709.762321 349.033697 
L 2733.064704 352.433472 
L 2745.977165 333.755002 
L 2752.55712 312.720384 
L 2760.015552 305.69376 
L 2770.10518 288.417986 
L 2738.37304 294.07792 
L 2721.728448 301.651968 
L 2692.555392 301.629504 
L 2684.780032 283.590002 
L 2662.038102 269.940478 
L 2628.62208 263.802816 
L 2621.519149 244.995892 
L 2595.769899 205.578267 
L 2578.909657 198.507939 
L 2550.172224 192.79104 
L 2524.71836 193.310861 
L 2500.859227 196.773099 
L 2485.000102 206.325385 
L 2495.535149 210.888455 
L 2495.77344 221.489088 
L 2485.095936 227.64384 
L 2467.764288 248.007936 
L 2467.938446 256.45665 
L 2440.881493 268.589119 
L 2417.832977 261.340197 
L 2394.925352 262.940596 
L 2384.872508 256.507252 
L 2373.359165 254.432588 
L 2345.236602 267.963545 
L 2319.959633 271.14301 
L 2302.310602 275.901541 
L 2278.127024 272.775158 
L 2260.323212 272.975084 
L 2248.668977 263.160861 
L 2229.86504 253.933517 
L 2210.622555 251.404432 
L 2168.189673 257.47265 
L 2140.913088 249.397248 
L 2137.252032 235.009728 
L 2097.249258 227.82708 
L 2075.740618 219.890572 
L 2055.854204 239.788892 
L 2063.649821 251.089908 
L 2044.987392 264.45984 
L 2017.229184 259.632768 
L 1998.066227 258.94208 
L 1985.233274 249.973697 
L 1965.200832 249.690432 
L 1948.506462 243.798322 
L 1919.302415 252.829213 
L 1882.666883 269.366002 
L 1854.91143 274.272369 
L 1844.723649 262.527846 
L 1819.992383 265.097115 
L 1811.818743 256.947783 
L 1798.394446 253.221127 
L 1789.154204 242.126486 
L 1778.553673 238.671689 
L 1750.962923 243.605838 
L 1724.51418 232.543939 
L 1714.282743 242.596783 
L 1671.377579 193.835232 
L 1646.883446 179.001533 
L 1653.909126 172.981932 
L 1605.788544 191.10048 
L 1587.373032 192.195642 
L 1588.963508 181.716158 
L 1564.30368 175.168217 
L 1544.258516 179.840924 
L 1538.213118 159.941115 
L 1503.708805 155.803197 
L 1486.446727 163.768478 
L 1438.403904 170.856 
L 1429.027844 175.598826 
L 1357.18272 182.28 
L 1348.378876 188.832127 
L 1362.239735 201.984068 
L 1343.807868 206.97626 
L 1347.403555 212.207072 
L 1328.976649 221.559928 
L 1360.089665 234.764951 
L 1355.278548 243.857853 
L 1328.309899 243.029873 
L 1322.731821 248.72751 
L 1298.175744 238.778112 
L 1267.737216 239.16384 
L 1247.365248 247.263168 
L 1182.311493 226.201877 
L 1152.319649 226.698963 
L 1112.685727 247.581533 
L 1110.294555 261.604615 
L 1090.550024 250.469791 
L 1075.230649 271.564689 
L 1080.838493 275.480853 
L 1069.755758 290.032275 
L 1086.052608 303.05568 
L 1100.2992 302.519616 
L 1112.538883 315.347939 
L 1110.5904 325.228032 
L 1120.342272 328.332864 
L 1111.591872 339.719232 
L 1092.977472 342.883392 
L 1073.894592 362.70336 
L 1091.346048 380.924928 
L 1089.456384 393.857664 
L 1110.419904 416.469504 
L 1098.955837 424.208271 
L 1095.660782 429.09281 
L 1087.167657 427.781139 
L 1073.972555 416.118967 
L 1056.50688 411.025152 
L 1050.62936 403.146611 
L 1032.72236 399.12974 
L 1021.079232 402.144768 
L 1017.715008 398.576064 
L 991.57248 389.37024 
L 947.077727 382.9804 
L 944.736165 385.248045 
L 920.256 369.024 
L 898.351104 361.781568 
L 881.768832 350.501952 
L 895.740864 347.433408 
L 911.67264 331.375296 
L 900.935424 323.777856 
L 929.235264 315.9408 
L 928.72704 311.743488 
L 911.49193 314.837955 
L 912.098157 306.309111 
L 921.994944 300.948096 
L 940.57493 299.540408 
L 943.595904 293.137728 
L 939.35328 282.550656 
L 947.151149 272.497346 
L 946.925568 266.85984 
L 918.623774 260.611932 
L 907.404118 260.819299 
L 895.554423 251.828096 
L 880.822423 254.868654 
L 856.43743 248.11781 
L 856.855872 244.340352 
L 850.025915 236.014611 
L 834.716462 235.084932 
L 833.125985 229.124861 
L 837.921227 225.237471 
L 825.651837 214.366568 
L 805.742602 216.221463 
L 799.911516 215.257057 
L 795.061248 219.624 
L 787.890624 218.847744 
L 783.168352 206.552596 
L 778.659852 200.179279 
L 782.354688 198.385344 
L 797.846774 199.051658 
L 805.317946 194.852721 
L 799.787493 189.733529 
L 786.840438 186.354635 
L 787.995344 182.886939 
L 780.181868 179.384517 
L 768.144649 166.813998 
L 772.259251 161.634283 
L 770.379055 152.621252 
L 751.608852 148.042307 
L 741.53418 150.33426 
L 738.806657 145.567791 
L 718.592821 140.752705 
L 712.421415 129.420932 
L 710.784305 120.110244 
z
" clip-path="url(#p530e1d529a)" style="fill: #e8edf4; stroke: #b8c5d4; stroke-width: 0.45"/>
    <path d="M 1165.550469 -163.485717 
L 1185.182883 -167.605279 
L 1184.52804 -178.074842 
L 1222.61018 -194.448912 
L 1204.959165 -196.796428 
L 1250.927212 -213.64774 
L 1245.73311 -222.363115 
L 1288.677962 -232.500295 
L 1352.064852 -244.836162 
L 1415.968673 -248.429865 
L 1448.850758 -255.547818 
L 1486.215548 -258.042178 
L 1499.562454 -250.460377 
L 1486.666993 -244.48592 
L 1360.003344 -225.808983 
L 1300.359977 -207.533881 
L 1241.651251 -170.328338 
L 1245.558485 -154.37942 
L 1282.285298 -138.632908 
L 1270.943602 -136.94867 
L 1208.205602 -139.443029 
L 1203.110719 -147.967904 
L 1168.356376 -153.115373 
z
" clip-path="url(#p530e1d529a)" style="fill: #e8edf4; stroke: #b8c5d4; stroke-width: 0.45"/>
    <path d="M -3278.4 -28.410407 
L -3278.4 -104.901818 
L -3231.36 -90.24 
L -3181.0224 -71.153088 
L -3182.6736 -59.21952 
L -3169.724736 -54.442752 
L -3174.178944 -68.394048 
L -3122.060352 -65.531136 
L -3084.471936 -47.563008 
L -3103.508544 -39.194688 
L -3134.9808 -37.207872 
L -3135.456 -18.447168 
L -3143.142336 -14.451648 
L -3161.123328 -15.02592 
L -3175.755264 -21.72 
L -3201.283776 -27.319296 
L -3205.577472 -35.648064 
L -3225.075072 -38.788608 
L -3246.910656 -36.297984 
L -3257.343744 -43.016448 
L -3253.173312 -50.152512 
L -3276.168384 -45.591552 
L -3267.507456 -36.558912 
z
" clip-path="url(#p530e1d529a)" style="fill: #e8edf4; stroke: #b8c5d4; stroke-width: 0.45"/>
    <path d="M 2896.206258 222.03965 
L 2897.904883 195.802244 
L 2915.653133 186.966814 
L 2908.02718 178.070861 
L 2916.571899 175.375088 
L 2928.208274 206.5774 
L 2927.717141 225.472123 
L 2935.641743 244.846072 
L 2954.959633 278.853299 
L 2926.539415 272.514213 
L 2914.72643 300.25776 
L 2933.443055 319.934822 
L 2932.901321 333.352174 
L 2918.355852 321.777314 
L 2905.766977 336.638299 
L 2902.212962 320.526166 
L 2904.354102 301.821447 
L 2902.165337 281.10358 
L 2906.60736 266.588869 
L 2907.45568 240.915025 
z
" clip-path="url(#p530e1d529a)" style="fill: #e8edf4; stroke: #b8c5d4; stroke-width: 0.45"/>
    <path d="M 800.720149 348.91265 
L 804.111446 345.231635 
L 822.492712 338.849885 
L 819.570971 336.539186 
L 824.629668 331.784202 
L 844.454734 336.659218 
L 846.946409 340.450897 
L 849.843052 341.035676 
L 849.999126 342.696596 
L 859.392165 347.328127 
L 878.975962 346.176197 
L 875.226485 353.02626 
L 854.207985 356.352072 
L 828.144212 367.459611 
L 817.467282 363.554361 
L 821.700946 354.5324 
z
" clip-path="url(#p530e1d529a)" style="fill: #e8edf4; stroke: #b8c5d4; stroke-width: 0.45"/>
    <path d="M 1038.661594 -328.12435 
L 1076.143462 -331.620818 
L 1105.314766 -331.85299 
L 1109.237876 -326.679725 
L 1120.26604 -331.276529 
L 1138.36354 -334.4426 
L 1166.840313 -330.234733 
L 1159.414782 -327.307779 
L 1116.372696 -323.319682 
L 1113.694782 -320.16899 
L 1091.253485 -316.995479 
L 1070.454258 -321.547139 
L 1081.391141 -327.540943 
z
" clip-path="url(#p530e1d529a)" style="fill: #e8edf4; stroke: #b8c5d4; stroke-width: 0.45"/>
    <path d="M 1928.276544 -323.356032 
L 1978.131072 -336.47232 
L 2019.665184 -340.80768 
L 2056.96992 -331.14192 
L 2101.183776 -312.578592 
L 2096.443392 -295.314048 
L 2054.552448 -292.91904 
L 2001.073728 -298.459104 
L 1969.207296 -305.7888 
L 1954.47168 -319.560768 
z
" clip-path="url(#p530e1d529a)" style="fill: #e8edf4; stroke: #b8c5d4; stroke-width: 0.45"/>
    <path d="M 2807.508288 -225.824064 
L 2817.825792 -239.024064 
L 2843.15664 -242.625792 
L 2893.855008 -241.783488 
L 2963.256672 -231.6024 
L 2948.16 -217.344 
L 2877.385152 -217.875456 
L 2845.544448 -213.340416 
z
" clip-path="url(#p530e1d529a)" style="fill: #e8edf4; stroke: #b8c5d4; stroke-width: 0.45"/>
    <path d="M 555.08429 174.219189 
L 559.458844 165.769721 
L 585.954219 159.542752 
L 606.061891 162.906267 
L 614.549063 165.953771 
L 612.500196 171.211373 
L 614.037094 176.111291 
L 578.731094 176.399521 
z
" clip-path="url(#p530e1d529a)" style="fill: #e8edf4; stroke: #b8c5d4; stroke-width: 0.45"/>
    <path d="M 2862.971904 -189.500736 
L 2881.184832 -197.089152 
L 2905.191744 -198.865536 
L 2932.470336 -191.5248 
L 2934.79392 -186.478848 
L 2905.682496 -186.344448 
z
" clip-path="url(#p530e1d529a)" style="fill: #e8edf4; stroke: #b8c5d4; stroke-width: 0.45"/>
    <path d="M 2086.812288 -276.8832 
L 2121.88608 -302.092608 
L 2137.65792 -304.251072 
L 2152.086048 -303.000768 
L 2200.750656 -292.096128 
L 2195.049024 -284.292288 
z
" clip-path="url(#p530e1d529a)" style="fill: #e8edf4; stroke: #b8c5d4; stroke-width: 0.45"/>
    <path d="M -3278.4 -140.778225 
L -3278.4 -153.901715 
L -3259.667136 -154.666176 
L -3231.896544 -149.174016 
L -3233.54064 -146.549184 
L -3253.320576 -141.945984 
z
" clip-path="url(#p530e1d529a)" style="fill: #e8edf4; stroke: #b8c5d4; stroke-width: 0.45"/>
    <path d="M 2983.088448 -224.121216 
L 2987.682912 -230.338944 
L 3071.648064 -222.413952 
L 3049.45776 -214.827264 
L 3018.767328 -216.544416 
z
" clip-path="url(#p530e1d529a)" style="fill: #e8edf4; stroke: #b8c5d4; stroke-width: 0.45"/>
    <path d="M 3609.12576 -145.89696 
L 3633.6 -153.901715 
L 3633.6 -140.778225 
L 3612.54576 -139.797888 
z
" clip-path="url(#p530e1d529a)" style="fill: #e8edf4; stroke: #b8c5d4; stroke-width: 0.45"/>
    <path d="M 273.447899 29.356838 
L 291.127688 17.002119 
L 341.825493 0.883041 
L 379.732016 -18.931936 
L 461.014001 -82.764318 
L 545.933344 -121.294928 
L 588.065594 -129.699252 
L 619.655852 -128.679779 
L 648.893633 -144.585537 
L 683.904954 -143.736225 
L 718.378508 -147.561108 
L 778.433633 -133.512725 
L 753.704352 -128.37617 
L 774.74001 -116.315541 
L 742.07136 -108.612864 
L 726.565048 -106.843717 
L 734.699001 -120.316631 
L 710.060008 -127.952506 
L 680.248743 -121.44574 
L 670.832883 -107.368584 
L 652.52504 -98.87149 
L 631.911352 -103.511951 
L 606.839766 -102.561436 
L 585.502774 -112.712506 
L 573.995383 -107.639947 
L 562.085165 -106.850662 
L 559.268344 -94.218131 
L 523.082274 -97.293912 
L 518.00029 -86.602596 
L 499.562469 -86.667584 
L 467.681501 -51.722244 
L 437.869243 -24.710932 
L 444.86218 -18.152076 
L 438.18079 -10.54299 
L 419.134758 -10.871404 
L 406.66693 7.136303 
L 407.847633 32.633041 
L 420.118016 42.363424 
L 413.767024 64.935689 
L 397.790821 78.098049 
L 389.325477 89.161932 
L 376.445891 77.379705 
L 338.534407 99.584861 
L 312.935969 104.085424 
L 286.38404 94.307416 
L 279.518102 73.665947 
z
" clip-path="url(#p530e1d529a)" style="fill: #e8edf4; stroke: #b8c5d4; stroke-width: 0.45"/>
    <path d="M 378.134976 -310.125888 
L 430.478784 -317.000832 
L 440.995584 -310.279488 
L 468.342144 -310.546752 
L 475.63296 -317.108736 
L 503.82432 -317.776512 
L 591.241536 -296.757312 
L 542.925504 -289.20192 
L 532.257024 -275.072448 
L 515.412672 -271.448832 
L 506.26944 -255.540672 
L 483.13248 -254.79264 
L 441.841728 -266.50272 
L 459.255552 -273.32448 
L 430.47552 -278.878656 
L 393.068352 -295.09056 
z
" clip-path="url(#p530e1d529a)" style="fill: #e8edf4; stroke: #b8c5d4; stroke-width: 0.45"/>
    <path d="M 511.065891 -322.922807 
L 570.355048 -328.284588 
L 598.23254 -323.667443 
L 617.649649 -329.41717 
L 666.194407 -324.620936 
L 703.82411 -317.88299 
L 675.35329 -307.542412 
L 619.669743 -305.280225 
L 563.043618 -308.483006 
L 559.627516 -313.77335 
L 532.075462 -314.109701 
z
" clip-path="url(#p530e1d529a)" style="fill: #e8edf4; stroke: #b8c5d4; stroke-width: 0.45"/>
    <path d="M 575.539392 -272.199168 
L 588.789312 -277.152768 
L 577.18848 -283.288896 
L 616.977792 -287.134848 
L 624.601728 -279.927168 
L 652.303104 -275.59392 
L 609.414144 -267.742656 
z
" clip-path="url(#p530e1d529a)" style="fill: #e8edf4; stroke: #b8c5d4; stroke-width: 0.45"/>
    <path d="M 89.426883 284.464119 
L 114.320372 280.287506 
L 146.562993 285.227111 
L 140.476915 263.494236 
L 158.602196 271.730385 
L 203.304212 256.758275 
L 209.068821 241.025158 
L 225.860602 237.148682 
L 228.641704 243.900517 
L 237.56643 244.217025 
L 259.891641 260.976064 
L 269.745055 259.480838 
L 290.836977 269.900791 
L 296.377352 269.494986 
L 305.438008 274.5224 
L 333.106149 278.058557 
L 323.398587 291.206033 
L 320.961774 304.884826 
L 315.690282 308.164502 
L 306.942165 306.397416 
L 307.559305 311.276002 
L 293.517868 322.065049 
L 293.234102 330.758596 
L 302.401915 327.750283 
L 308.996985 336.169986 
L 308.205219 341.595267 
L 313.855727 348.804502 
L 307.199141 354.652455 
L 312.145196 369.508478 
L 322.552251 371.944299 
L 320.355548 380.278178 
L 302.961508 391.125267 
L 265.09368 385.926701 
L 237.127883 392.15615 
L 234.93118 403.718111 
L 212.67443 406.207014 
L 191.07054 397.5219 
L 184.090501 401.672717 
L 148.746798 392.946924 
L 141.094055 385.482201 
L 151.022876 373.965881 
L 154.679087 335.71358 
L 134.866094 315.564236 
L 120.705098 305.849728 
L 91.362145 298.464877 
z
" clip-path="url(#p530e1d529a)" style="fill: #e8edf4; stroke: #b8c5d4; stroke-width: 0.45"/>
    <path d="M -869.275281 1174.812502 
L -864.378339 1166.73808 
L -859.333066 1149.695275 
L -866.87121 1138.317861 
L -868.389753 1125.182291 
L -858.394456 1108.674275 
L -837.737113 1115.330861 
L -817.408183 1131.537252 
L -814.22971 1139.400338 
L -825.587281 1156.970986 
L -831.483355 1171.109658 
L -838.841417 1178.402732 
L -848.034531 1179.774928 
L -850.652913 1174.369986 
L -854.947597 1173.567307 
L -860.8908 1178.773314 
z
" clip-path="url(#p530e1d529a)" style="fill: #e8edf4; stroke: #b8c5d4; stroke-width: 0.45"/>
    <path d="M 341.648883 407.874881 
L 345.523376 400.74006 
L 357.888016 393.408291 
L 361.152313 409.872154 
L 354.811243 424.703869 
L 346.093883 420.79465 
z
" clip-path="url(#p530e1d529a)" style="fill: #e8edf4; stroke: #b8c5d4; stroke-width: 0.45"/>
    <path d="M 389.325477 89.161932 
L 397.790821 78.098049 
L 413.767024 64.935689 
L 420.118016 42.363424 
L 407.847633 32.633041 
L 406.66693 7.136303 
L 419.134758 -10.871404 
L 438.18079 -10.54299 
L 444.86218 -18.152076 
L 437.869243 -24.710932 
L 467.681501 -51.722244 
L 499.562469 -86.667584 
L 518.00029 -86.602596 
L 523.082274 -97.293912 
L 559.268344 -94.218131 
L 562.085165 -106.850662 
L 573.995383 -107.639947 
L 629.557883 -85.171365 
L 630.064891 -55.604178 
L 636.544868 -48.133006 
L 603.51693 -42.695818 
L 584.899524 -29.299303 
L 587.896923 -17.540889 
L 520.27736 14.411517 
L 506.295454 41.449619 
L 519.961844 54.977599 
L 538.324258 65.627244 
L 520.689118 87.287689 
L 500.720352 91.779322 
L 493.396024 124.010533 
L 482.491883 141.997404 
L 459.200282 140.143006 
L 448.333844 155.370603 
L 426.103883 156.254642 
L 420.00193 138.10406 
L 403.928493 116.317111 
z
" clip-path="url(#p530e1d529a)" style="fill: #e8edf4; stroke: #b8c5d4; stroke-width: 0.45"/>
    <path d="M 447.830805 201.95976 
L 453.183657 196.835111 
L 448.697977 187.065041 
L 461.815688 181.426439 
L 515.958368 166.05051 
L 535.120485 169.293971 
L 536.568087 173.976599 
L 578.731094 176.399521 
L 614.037094 176.111291 
L 623.884555 178.165119 
L 628.495251 184.080045 
L 629.328688 192.573666 
L 634.654751 199.877158 
L 634.544618 207.530892 
L 623.030282 211.450033 
L 628.953641 220.345986 
L 629.319758 228.893682 
L 638.975727 245.656193 
L 636.916938 251.042283 
L 627.388962 253.276689 
L 609.954243 269.245947 
L 614.907243 277.87401 
L 592.469915 269.373939 
L 578.648743 272.087572 
L 569.584118 270.116096 
L 558.240438 274.231193 
L 548.55768 267.425779 
L 540.663837 270.03176 
L 530.743946 259.41833 
L 516.469344 258.258463 
L 514.647688 252.246799 
L 501.480368 250.099705 
L 498.613938 255.057666 
L 488.184063 251.085939 
L 489.381633 245.803533 
L 475.026665 244.133185 
L 465.926321 237.951857 
L 458.05629 225.692389 
L 459.552508 219.07301 
L 454.801915 208.802877 
z
" clip-path="url(#p530e1d529a)" style="fill: #e8edf4; stroke: #b8c5d4; stroke-width: 0.45"/>
    <path d="M 359.615415 314.826049 
L 362.55229 310.126057 
L 361.809141 306.718885 
L 367.604508 305.660221 
L 377.320008 310.992236 
L 380.054477 305.925135 
L 396.987149 306.743689 
L 410.714063 303.300799 
L 419.918587 303.890158 
L 425.906438 307.821205 
L 427.696344 304.558396 
L 424.974774 292.0484 
L 431.872462 289.610596 
L 438.642157 280.758299 
L 452.906837 286.938139 
L 463.70779 279.083486 
L 470.465579 277.649775 
L 485.369227 283.509139 
L 494.386227 282.512486 
L 503.237532 286.137939 
L 501.695673 288.575744 
L 503.609602 295.228857 
L 502.152079 303.07458 
L 491.339219 303.112283 
L 495.057938 307.273517 
L 488.684126 319.634189 
L 485.023946 322.874674 
L 468.232165 323.352908 
L 458.543454 327.709107 
L 415.228516 321.262865 
L 410.93929 314.584451 
L 391.964696 317.921674 
L 389.732274 321.573916 
L 368.303008 318.322021 
z
" clip-path="url(#p530e1d529a)" style="fill: #e8edf4; stroke: #b8c5d4; stroke-width: 0.45"/>
    <path d="M 488.684126 319.634189 
L 495.057938 307.273517 
L 491.339219 303.112283 
L 502.152079 303.07458 
L 503.609602 295.228857 
L 520.456946 302.238166 
L 536.573048 299.885689 
L 538.118876 296.030049 
L 566.189844 291.310709 
L 570.692391 286.793279 
L 576.984844 285.622002 
L 597.546938 291.45656 
L 601.64368 289.492525 
L 612.303743 294.7154 
L 613.642204 299.861877 
L 601.91554 303.889166 
L 592.829087 316.910635 
L 581.221485 329.931111 
L 565.827696 333.552596 
L 553.844055 332.702787 
L 531.956399 340.617963 
L 516.097274 336.926033 
L 495.644321 326.327982 
L 491.913696 319.846517 
z
" clip-path="url(#p530e1d529a)" style="fill: #e8edf4; stroke: #b8c5d4; stroke-width: 0.45"/>
    <path d="M 565.827696 333.552596 
L 581.221485 329.931111 
L 592.829087 316.910635 
L 601.91554 303.889166 
L 621.930938 295.750252 
L 633.810399 297.87651 
L 646.119477 297.947947 
L 655.03329 302.639506 
L 661.588673 299.691717 
L 675.762071 297.846744 
L 680.591048 293.35908 
L 688.691266 293.362057 
L 694.54418 295.233322 
L 717.65818 320.438853 
L 718.272344 328.865998 
L 716.245305 337.063947 
L 719.684227 345.824963 
L 728.251766 349.362607 
L 737.274719 346.273432 
L 745.983149 349.568486 
L 746.429633 354.520494 
L 737.118946 358.651963 
L 731.286868 356.853623 
L 725.915165 380.016736 
L 714.626055 378.000611 
L 700.654071 371.021068 
L 678.051048 375.48492 
L 668.530016 380.381861 
L 640.33304 379.371814 
L 625.580204 376.377392 
L 618.140782 377.783322 
L 609.100962 366.54283 
L 613.54993 363.302346 
L 608.813227 360.91167 
L 602.785688 365.214291 
L 591.590837 359.636213 
L 590.083704 351.721533 
L 578.386805 347.205592 
L 576.233758 341.096197 
z
" clip-path="url(#p530e1d529a)" style="fill: #e8edf4; stroke: #b8c5d4; stroke-width: 0.45"/>
    <path d="M 292.582235 223.648978 
L 304.116415 223.641041 
L 308.983094 216.413947 
L 313.767423 198.834369 
L 310.17868 192.342486 
L 313.928157 188.276502 
L 329.975798 187.232721 
L 333.536758 191.466385 
L 346.574102 182.000916 
L 342.184665 174.803588 
L 341.303602 163.915322 
L 355.815337 166.447385 
L 368.100602 163.5244 
L 368.43993 170.944474 
L 387.842157 175.418744 
L 387.637766 182.233088 
L 407.160048 178.627478 
L 417.954055 173.368885 
L 439.631368 180.950189 
L 448.697977 187.065041 
L 453.183657 196.835111 
L 447.830805 201.95976 
L 454.801915 208.802877 
L 459.552508 219.07301 
L 458.05629 225.692389 
L 465.926321 237.951857 
L 457.35779 239.955084 
L 452.294657 237.748459 
L 447.479571 241.403182 
L 433.692133 245.1219 
L 426.563266 249.905732 
L 412.610133 254.086314 
L 415.971665 259.792881 
L 418.003665 267.889627 
L 427.801516 272.504291 
L 438.642157 280.758299 
L 431.872462 289.610596 
L 424.974774 292.0484 
L 427.696344 304.558396 
L 425.906438 307.821205 
L 419.918587 303.890158 
L 410.714063 303.300799 
L 396.987149 306.743689 
L 380.054477 305.925135 
L 377.320008 310.992236 
L 367.604508 305.660221 
L 361.809141 306.718885 
L 341.234149 300.848111 
L 337.292188 305.019267 
L 320.961774 304.884826 
L 323.398587 291.206033 
L 333.106149 278.058557 
L 305.438008 274.5224 
L 296.377352 269.494986 
L 297.460821 261.077267 
L 293.627008 256.741408 
L 295.807837 243.768557 
z
" clip-path="url(#p530e1d529a)" style="fill: #e8edf4; stroke: #b8c5d4; stroke-width: 0.45"/>
    <path d="M 548.246133 409.041693 
L 556.570587 399.58565 
L 557.790977 403.198205 
L 562.95744 401.498304 
L 567.048087 406.651017 
L 571.64064 408.616896 
L 572.932751 415.57624 
L 570.492962 422.110291 
L 573.219493 430.344455 
L 581.184774 435.019642 
L 580.799805 440.063924 
L 574.559938 442.848002 
L 573.408008 449.087869 
L 564.480305 458.400045 
L 561.216008 457.056127 
L 560.832032 452.831889 
L 550.196774 446.38515 
L 548.52593 437.237182 
L 550.148157 424.136338 
L 552.768524 418.176267 
L 549.537962 415.151088 
z
" clip-path="url(#p530e1d529a)" style="fill: #e8edf4; stroke: #b8c5d4; stroke-width: 0.45"/>
    <path d="M 439.81393 352.570846 
L 440.929149 345.593783 
L 454.30979 346.249619 
L 457.826102 343.009135 
L 464.35668 346.143455 
L 471.891352 346.515525 
L 471.819915 341.149775 
L 478.493368 339.184252 
L 480.359673 331.428322 
L 495.644321 326.327982 
L 516.097274 336.926033 
L 531.956399 340.617963 
L 539.132636 337.749651 
L 543.797165 345.186986 
L 549.897133 350.6589 
L 542.505304 357.883498 
L 533.821712 353.633478 
L 520.546243 353.899385 
L 504.041204 350.711486 
L 495.070837 351.137135 
L 490.90861 355.120767 
L 484.019852 350.711486 
L 480.000501 358.680736 
L 493.563704 373.608197 
L 509.709571 385.03026 
L 516.958493 393.051599 
L 533.952 400.32 
L 531.840313 403.584166 
L 513.79143 396.480103 
L 502.65611 389.568029 
L 485.095383 383.861463 
L 468.949516 369.730728 
L 472.824008 368.296025 
L 464.069938 360.221107 
L 463.710766 353.739642 
L 451.367954 350.711486 
L 445.48329 358.999228 
z
" clip-path="url(#p530e1d529a)" style="fill: #e8edf4; stroke: #b8c5d4; stroke-width: 0.45"/>
    <path d="M 293.234102 330.758596 
L 293.517868 322.065049 
L 307.559305 311.276002 
L 306.942165 306.397416 
L 315.690282 308.164502 
L 320.961774 304.884826 
L 337.292188 305.019267 
L 341.234149 300.848111 
L 361.809141 306.718885 
L 362.55229 310.126057 
L 359.615415 314.826049 
L 368.303008 318.322021 
L 378.099868 318.843912 
L 376.57686 326.715432 
L 368.118462 329.953932 
L 353.911329 327.547877 
L 349.753071 335.290908 
L 340.607087 335.901103 
L 337.27929 332.858064 
L 326.515048 339.369791 
L 317.257938 340.282603 
L 308.996985 336.169986 
L 302.401915 327.750283 
z
" clip-path="url(#p530e1d529a)" style="fill: #e8edf4; stroke: #b8c5d4; stroke-width: 0.45"/>
    <path d="M 286.541798 268.233916 
L 288.622415 257.465705 
L 293.627008 256.741408 
L 297.460821 261.077267 
L 296.377352 269.494986 
L 290.836977 269.900791 
z
" clip-path="url(#p530e1d529a)" style="fill: #e8edf4; stroke: #b8c5d4; stroke-width: 0.45"/>
    <path d="M 225.860602 237.148682 
L 241.247446 233.361006 
L 255.303766 234.868635 
L 273.100633 230.879545 
L 285.253938 239.283869 
L 295.807837 243.768557 
L 293.627008 256.741408 
L 288.622415 257.465705 
L 286.541798 268.233916 
L 269.745055 259.480838 
L 259.891641 260.976064 
L 237.56643 244.217025 
L 228.641704 243.900517 
z
" clip-path="url(#p530e1d529a)" style="fill: #e8edf4; stroke: #b8c5d4; stroke-width: 0.45"/>
    <path d="M 241.247446 233.361502 
L 251.14154 228.085545 
L 267.955149 199.837471 
L 294.224305 191.800256 
L 310.17868 192.342486 
L 313.767423 198.834369 
L 308.983094 216.413947 
L 304.116415 223.641041 
L 292.582235 223.648978 
L 295.807837 243.768557 
L 285.253938 239.283869 
L 273.100633 230.879545 
L 255.303766 234.868635 
z
" clip-path="url(#p530e1d529a)" style="fill: #e8edf4; stroke: #b8c5d4; stroke-width: 0.45"/>
    <path d="M -5.310156 475.441361 
L -3.782187 462.87233 
L 3.87254 455.902213 
L 9.241266 436.595732 
L 8.815618 428.460787 
L 4.976844 421.56558 
L 4.131501 415.093045 
L 11.098641 410.213963 
L 18.933946 407.415002 
L 23.747048 416.814986 
L 35.087751 416.792166 
L 38.374868 414.367756 
L 49.562774 415.038971 
L 54.929516 424.669142 
L 46.058368 429.867213 
L 45.810817 444.84726 
L 42.692868 447.657135 
L 41.921442 456.731682 
L 33.626258 458.312236 
L 41.317696 469.822603 
L 36.01743 482.437275 
L 42.637801 488.14533 
L 40.003048 493.365228 
L 32.887575 500.565037 
L 34.488469 506.922478 
L 26.772227 511.905244 
L 16.64993 509.205502 
L 6.741946 511.318861 
L 9.674852 496.294166 
L 7.872048 484.488127 
L -0.719304 482.717072 
z
" clip-path="url(#p530e1d529a)" style="fill: #e8edf4; stroke: #b8c5d4; stroke-width: 0.45"/>
    <path d="M -2.743367 393.088807 
L 24.418758 379.231916 
L 47.913758 382.696139 
L 73.691782 382.574596 
L 94.121419 385.853775 
L 141.094055 385.482201 
L 148.746798 392.946924 
L 184.090501 401.672717 
L 191.07054 397.5219 
L 212.67443 406.207014 
L 234.93118 403.718111 
L 235.958094 414.871291 
L 217.76336 427.659099 
L 193.162071 431.717146 
L 191.449555 438.176287 
L 179.648477 448.820474 
L 172.248743 464.44842 
L 179.736782 475.420525 
L 168.631227 483.986576 
L 164.478923 496.466807 
L 149.983063 500.293178 
L 136.38811 515.056432 
L 93.717102 514.98549 
L 81.69179 521.765603 
L 74.358532 529.020478 
L 64.964501 527.427521 
L 57.855477 520.940599 
L 52.412337 509.896064 
L 34.488469 506.922478 
L 32.887575 500.565037 
L 40.003048 493.365228 
L 42.637801 488.14533 
L 36.01743 482.437275 
L 41.317696 469.822603 
L 33.626258 458.312236 
L 41.921442 456.731682 
L 42.692868 447.657135 
L 45.810817 444.84726 
L 46.058368 429.867213 
L 54.929516 424.669142 
L 49.562774 415.038971 
L 38.374868 414.367756 
L 35.087751 416.792166 
L 23.747048 416.814986 
L 18.933946 407.415002 
L 11.098641 410.213963 
L 4.131501 415.093045 
L 5.098883 401.418717 
z
" clip-path="url(#p530e1d529a)" style="fill: #e8edf4; stroke: #b8c5d4; stroke-width: 0.45"/>
    <path d="M -13.960046 224.247267 
L 1.607376 204.199127 
L -8.419671 184.677838 
L 32.214376 160.672853 
L 36.172212 170.959853 
L 32.214376 181.248838 
L 44.08838 180.984916 
L 58.60061 184.942752 
L 61.76668 198.659248 
L 47.253954 215.805736 
L 13.216962 227.149416 
z
" clip-path="url(#p530e1d529a)" style="fill: #e8edf4; stroke: #b8c5d4; stroke-width: 0.45"/>
    <path d="M 307.199141 354.652455 
L 313.855727 348.804502 
L 308.205219 341.595267 
L 308.996985 336.169986 
L 317.257938 340.282603 
L 326.515048 339.369791 
L 337.27929 332.858064 
L 340.607087 335.901103 
L 349.753071 335.290908 
L 353.911329 327.547877 
L 368.118462 329.953932 
L 376.57686 326.715432 
L 378.099868 318.843912 
L 389.732274 321.573916 
L 391.964696 317.921674 
L 410.93929 314.584451 
L 415.228516 321.262865 
L 442.684329 326.221322 
L 440.603712 335.677861 
L 445.202501 343.852494 
L 429.918844 341.055517 
L 414.308758 347.869861 
L 415.370399 357.400814 
L 413.019907 362.870744 
L 419.313352 372.645775 
L 437.316594 382.315635 
L 446.972563 398.18865 
L 468.337337 413.661318 
L 483.382868 413.542752 
L 488.062024 417.786338 
L 482.675438 421.611221 
L 513.96804 434.358846 
L 530.432399 444.372002 
L 532.420743 447.957767 
L 528.832993 454.833131 
L 518.176899 445.868717 
L 501.496243 442.709096 
L 493.415868 455.128307 
L 507.292602 462.245764 
L 505.01454 472.264873 
L 496.993696 473.403408 
L 486.738446 489.870744 
L 478.734469 491.350096 
L 478.808883 485.479818 
L 482.72604 475.181904 
L 486.89918 471.080697 
L 473.54136 450.271549 
L 465.571118 447.879385 
L 459.902751 439.592635 
L 447.564899 436.102119 
L 439.257313 428.384885 
L 425.051173 427.140682 
L 392.484602 405.975834 
L 379.429399 394.91592 
L 373.440555 375.935869 
L 363.887774 373.703447 
L 348.267766 367.366346 
L 339.428368 369.96042 
L 328.334719 378.87076 
L 320.355548 380.278178 
L 322.552251 371.944299 
L 312.145196 369.508478 
z
" clip-path="url(#p530e1d529a)" style="fill: #e8edf4; stroke: #b8c5d4; stroke-width: 0.45"/>
    <path d="M 416.275274 497.031361 
L 418.962118 487.173482 
L 441.430204 488.928662 
L 475.591219 485.161822 
L 468.676665 500.274326 
L 471.55004 506.222986 
L 467.519774 516.096244 
L 452.836391 508.864685 
L 443.073266 506.792998 
z
" clip-path="url(#p530e1d529a)" style="fill: #e8edf4; stroke: #b8c5d4; stroke-width: 0.45"/>
    <path d="M 334.271969 432.959861 
L 344.831821 433.920299 
L 354.432227 427.968166 
L 365.951524 441.59983 
L 363.254758 466.994373 
L 354.524501 465.782912 
L 346.693165 472.192939 
L 339.423407 467.100537 
L 338.654462 443.936432 
z
" clip-path="url(#p530e1d529a)" style="fill: #e8edf4; stroke: #b8c5d4; stroke-width: 0.45"/>
    <path d="M 332.927555 133.631775 
L 341.634001 122.687947 
L 358.549805 121.49633 
L 365.290727 116.199537 
L 380.73611 110.783682 
L 380.085235 120.657932 
L 374.400001 126.911689 
L 376.70386 132.288353 
L 387.113891 135.194471 
L 382.421837 142.437439 
L 376.70386 140.351861 
L 362.879712 154.17601 
L 368.100602 163.5244 
L 355.815337 166.447385 
L 341.303602 163.915322 
L 333.509969 153.259724 
z
" clip-path="url(#p530e1d529a)" style="fill: #e8edf4; stroke: #b8c5d4; stroke-width: 0.45"/>
    <path d="M 386.955141 148.224869 
L 415.12136 141.860978 
L 421.248118 151.488174 
L 409.727829 167.039721 
L 389.636032 156.194615 
z
" clip-path="url(#p530e1d529a)" style="fill: #e8edf4; stroke: #b8c5d4; stroke-width: 0.45"/>
    <path d="M 59.520368 128.927814 
L 66.492965 109.078111 
L 81.408024 93.503744 
L 96.739305 95.023775 
L 119.903907 93.407998 
L 99.382493 114.181924 
L 118.943965 111.551635 
L 139.981813 111.651846 
L 134.976227 127.295666 
L 117.715141 144.503174 
L 137.567821 145.728029 
L 156.192173 170.40026 
L 169.334688 173.483978 
L 186.623555 202.94401 
L 209.885391 206.601213 
L 207.551766 218.880029 
L 197.770782 224.510197 
L 205.437415 234.442986 
L 188.166407 244.497814 
L 162.479665 244.320213 
L 129.792048 249.599642 
L 120.83954 245.819904 
L 108.144997 254.815572 
L 90.383848 252.636728 
L 76.895555 259.968002 
L 66.689915 256.134189 
L 94.848196 235.967978 
L 112.034868 231.820635 
L 81.900149 228.605451 
L 76.467923 220.965111 
L 96.530946 215.013971 
L 86.015743 204.671904 
L 89.664016 192.095928 
L 118.198451 193.83269 
L 121.055837 182.688006 
L 107.903895 170.591752 
L 84.591954 167.213353 
L 80.015489 162.017267 
L 86.993048 153.437326 
L 80.678766 148.147478 
L 70.341165 157.225994 
L 69.216024 138.719713 
z
" clip-path="url(#p530e1d529a)" style="fill: #e8edf4; stroke: #b8c5d4; stroke-width: 0.45"/>
    <path d="M 32.214376 181.248838 
L 36.172212 170.959853 
L 32.214376 160.672853 
L 48.310137 159.881088 
L 68.890587 171.751619 
L 58.60061 184.942752 
L 44.08838 180.984916 
z
" clip-path="url(#p530e1d529a)" style="fill: #e8edf4; stroke: #b8c5d4; stroke-width: 0.45"/>
    <path d="M 440.603712 335.677861 
L 442.684329 326.221322 
L 458.543454 327.709107 
L 468.232165 323.352908 
L 485.023946 322.874674 
L 488.684126 319.634189 
L 491.913696 319.846517 
L 495.644321 326.327982 
L 480.359673 331.428322 
L 478.493368 339.184252 
L 471.819915 341.149775 
L 471.891352 346.515525 
L 464.35668 346.143455 
L 457.826102 343.009135 
L 454.30979 346.249619 
L 440.929149 345.593783 
L 445.202501 343.852494 
z
" clip-path="url(#p530e1d529a)" style="fill: #e8edf4; stroke: #b8c5d4; stroke-width: 0.45"/>
    <path d="M 501.695673 288.575744 
L 505.95811 281.914197 
L 514.464133 282.239635 
L 521.020508 280.253275 
L 521.539423 278.467338 
L 525.215477 277.555517 
L 526.473571 273.186916 
L 530.879876 272.35199 
L 533.855446 268.895705 
L 539.580368 268.872389 
L 540.663837 270.03176 
L 548.55768 267.425779 
L 558.240438 274.231193 
L 569.584118 270.116096 
L 578.648743 272.087572 
L 592.469915 269.373939 
L 610.716243 276.75383 
L 605.392165 281.752471 
L 601.64368 289.492525 
L 597.546938 291.45656 
L 576.984844 285.622002 
L 570.692391 286.793279 
L 566.189844 291.310709 
L 538.118876 296.030049 
L 536.573048 299.885689 
L 520.456946 302.238166 
L 503.609602 295.228857 
z
" clip-path="url(#p530e1d529a)" style="fill: #e8edf4; stroke: #b8c5d4; stroke-width: 0.45"/>
    <path d="M 412.610133 254.086314 
L 426.563266 249.905732 
L 433.692133 245.1219 
L 447.479571 241.403182 
L 452.294657 237.748459 
L 457.35779 239.955084 
L 465.926321 237.951857 
L 475.026665 244.133185 
L 489.381633 245.803533 
L 488.184063 251.085939 
L 498.613938 255.057666 
L 501.480368 250.099705 
L 514.647688 252.246799 
L 516.469344 258.258463 
L 530.743946 259.41833 
L 539.580368 268.872389 
L 533.855446 268.895705 
L 530.879876 272.35199 
L 526.473571 273.186916 
L 525.215477 277.555517 
L 521.539423 278.467338 
L 521.020508 280.253275 
L 514.464133 282.239635 
L 505.95811 281.914197 
L 503.237532 286.137939 
L 494.386227 282.512486 
L 485.369227 283.509139 
L 470.465579 277.649775 
L 463.70779 279.083486 
L 452.906837 286.938139 
L 438.642157 280.758299 
L 427.801516 272.504291 
L 418.003665 267.889627 
L 415.971665 259.792881 
z
" clip-path="url(#p530e1d529a)" style="fill: #e8edf4; stroke: #b8c5d4; stroke-width: 0.45"/>
    <path d="M 480.000501 358.680736 
L 484.019852 350.711486 
L 490.90861 355.120767 
L 495.070837 351.137135 
L 504.041204 350.711486 
L 520.546243 353.899385 
L 533.821712 353.633478 
L 542.505216 357.883584 
L 549.466176 357.8304 
L 544.658112 366.277056 
L 553.915392 373.661376 
L 551.1168 382.69248 
L 543.00768 385.295424 
L 536.764416 389.757888 
L 533.952 400.32 
L 516.958493 393.051599 
L 509.709571 385.03026 
L 493.563704 373.608197 
z
" clip-path="url(#p530e1d529a)" style="fill: #e8edf4; stroke: #b8c5d4; stroke-width: 0.45"/>
    <path d="M 570.492962 422.110291 
L 572.932734 415.576149 
L 575.372352 415.735488 
L 576.233472 411.804288 
L 598.407936 406.970112 
L 607.306094 406.651017 
L 616.922376 412.813494 
L 618.285641 425.510517 
L 614.625984 426.14784 
L 611.468321 429.494646 
L 601.063251 429.122576 
L 593.743883 433.319529 
L 581.184774 435.019642 
L 573.219493 430.344455 
z
" clip-path="url(#p530e1d529a)" style="fill: #e8edf4; stroke: #b8c5d4; stroke-width: 0.45"/>
    <path d="M 539.132636 337.749651 
L 553.844055 332.702787 
L 565.827696 333.552596 
L 576.233758 341.096197 
L 578.386805 347.205592 
L 590.083704 351.721533 
L 591.590837 359.636213 
L 602.785688 365.214291 
L 608.813227 360.91167 
L 613.54993 363.302346 
L 609.100962 366.54283 
L 612.617274 369.889478 
L 607.880571 374.245182 
L 609.603008 381.257963 
L 618.931555 389.545705 
L 611.612188 395.548439 
L 608.382618 401.657834 
L 610.464227 403.941849 
L 607.306094 406.651017 
L 591.871411 408.091692 
L 591.231744 406.6512 
L 595.68096 399.69216 
L 592.953984 399.798336 
L 577.238016 388.37664 
L 573.793536 389.439168 
L 571.138368 395.813952 
L 566.545536 397.1952 
L 568.12416 395.548416 
L 554.496 389.495425 
L 546.595584 383.542272 
L 551.1168 382.69248 
L 553.915392 373.661376 
L 544.658112 366.277056 
L 549.466176 357.8304 
L 542.505216 357.883584 
L 549.897133 350.6589 
L 543.797165 345.186986 
z
" clip-path="url(#p530e1d529a)" style="fill: #e8edf4; stroke: #b8c5d4; stroke-width: 0.45"/>
    <path d="M 531.840324 403.584149 
L 536.764416 389.757888 
L 546.595584 383.542272 
L 554.496 389.495425 
L 568.12416 395.548416 
L 562.95744 401.498304 
L 557.790977 403.198205 
L 556.570587 399.58565 
L 548.246133 409.041693 
L 549.537949 415.151027 
L 545.519232 413.663616 
L 540.137088 407.395008 
z
" clip-path="url(#p530e1d529a)" style="fill: #e8edf4; stroke: #b8c5d4; stroke-width: 0.45"/>
    <path d="M 562.95744 401.498304 
L 566.545536 397.1952 
L 571.138368 395.813952 
L 573.793536 389.439168 
L 577.238016 388.37664 
L 592.953984 399.798336 
L 595.68096 399.69216 
L 591.231744 406.6512 
L 591.871411 408.091692 
L 576.233472 411.804288 
L 575.372352 415.735488 
L 572.932734 415.576149 
L 571.64064 408.616896 
L 567.048087 406.651017 
z
" clip-path="url(#p530e1d529a)" style="fill: #e8edf4; stroke: #b8c5d4; stroke-width: 0.45"/>
   </g>
   <g id="PathCollection_1">
    <defs>
     <path id="m5d02f3a598" d="M 0 2.12132 
C 0.562581 2.12132 1.102195 1.897805 1.5 1.5 
C 1.897805 1.102195 2.12132 0.562581 2.12132 0 
C 2.12132 -0.562581 1.897805 -1.102195 1.5 -1.5 
C 1.102195 -1.897805 0.562581 -2.12132 0 -2.12132 
C -0.562581 -2.12132 -1.102195 -1.897805 -1.5 -1.5 
C -1.897805 -1.102195 -2.12132 -0.562581 -2.12132 0 
C -2.12132 0.562581 -1.897805 1.102195 -1.5 1.5 
C -1.102195 1.897805 -0.562581 2.12132 0 2.12132 
z
" style="stroke: #ffffff; stroke-width: 0.5"/>
    </defs>
    <g clip-path="url(#p530e1d529a)">
     <use xlink:href="#m5d02f3a598" x="206.4" y="403.2" style="fill: #8aa0b7; stroke: #ffffff; stroke-width: 0.5"/>
     <use xlink:href="#m5d02f3a598" x="559.97952" y="63.7728" style="fill: #8aa0b7; stroke: #ffffff; stroke-width: 0.5"/>
     <use xlink:href="#m5d02f3a598" x="43.2" y="28.8" style="fill: #8aa0b7; stroke: #ffffff; stroke-width: 0.5"/>
     <use xlink:href="#m5d02f3a598" x="155.05344" y="213.9744" style="fill: #8aa0b7; stroke: #ffffff; stroke-width: 0.5"/>
     <use xlink:href="#m5d02f3a598" x="52.94784" y="167.27616" style="fill: #8aa0b7; stroke: #ffffff; stroke-width: 0.5"/>
     <use xlink:href="#m5d02f3a598" x="128" y="269.44" style="fill: #8aa0b7; stroke: #ffffff; stroke-width: 0.5"/>
     <use xlink:href="#m5d02f3a598" x="91.2" y="177.6" style="fill: #8aa0b7; stroke: #ffffff; stroke-width: 0.5"/>
     <use xlink:href="#m5d02f3a598" x="136" y="273.6" style="fill: #8aa0b7; stroke: #ffffff; stroke-width: 0.5"/>
     <use xlink:href="#m5d02f3a598" x="360.64" y="311.68" style="fill: #8aa0b7; stroke: #ffffff; stroke-width: 0.5"/>
     <use xlink:href="#m5d02f3a598" x="296" y="264" style="fill: #8aa0b7; stroke: #ffffff; stroke-width: 0.5"/>
     <use xlink:href="#m5d02f3a598" x="319.68" y="379.52" style="fill: #8aa0b7; stroke: #ffffff; stroke-width: 0.5"/>
     <use xlink:href="#m5d02f3a598" x="549.58848" y="399.19296" style="fill: #8aa0b7; stroke: #ffffff; stroke-width: 0.5"/>
     <use xlink:href="#m5d02f3a598" x="462.08" y="333.76" style="fill: #8aa0b7; stroke: #ffffff; stroke-width: 0.5"/>
     <use xlink:href="#m5d02f3a598" x="416" y="378.88" style="fill: #8aa0b7; stroke: #ffffff; stroke-width: 0.5"/>
     <use xlink:href="#m5d02f3a598" x="416.70528" y="414.66432" style="fill: #8aa0b7; stroke: #ffffff; stroke-width: 0.5"/>
    </g>
   </g>
   <g id="PatchCollection_2">
    <defs>
     <path id="m9f451518e6" d="M 241.247446 -189.038498 
L 251.14154 -194.314455 
L 267.955149 -222.562529 
L 294.224305 -230.599744 
L 310.17868 -230.057514 
L 313.767423 -223.565631 
L 308.983094 -205.986053 
L 304.116415 -198.758959 
L 292.582235 -198.751022 
L 295.807837 -178.631443 
L 285.253938 -183.116131 
L 273.100633 -191.520455 
L 255.303766 -187.531365 
z
" style="stroke: #b45309; stroke-width: 1.15"/>
    </defs>
    <g clip-path="url(#p530e1d529a)">
     <use xlink:href="#m9f451518e6" x="0" y="422.4" style="fill: #f59e0b; stroke: #b45309; stroke-width: 1.15"/>
    </g>
   </g>
   <g id="PathCollection_2">
    <defs>
     <path id="me06f4c1607" d="M 0 3.316625 
C 0.879579 3.316625 1.723251 2.967164 2.345208 2.345208 
C 2.967164 1.723251 3.316625 0.879579 3.316625 0 
C 3.316625 -0.879579 2.967164 -1.723251 2.345208 -2.345208 
C 1.723251 -2.967164 0.879579 -3.316625 0 -3.316625 
C -0.879579 -3.316625 -1.723251 -2.967164 -2.345208 -2.345208 
C -2.967164 -1.723251 -3.316625 -0.879579 -3.316625 0 
C -3.316625 0.879579 -2.967164 1.723251 -2.345208 2.345208 
C -1.723251 2.967164 -0.879579 3.316625 0 3.316625 
z
" style="stroke: #ffffff"/>
    </defs>
    <g clip-path="url(#p530e1d529a)">
     <use xlink:href="#me06f4c1607" x="288" y="211.2" style="fill: #f97316; stroke: #ffffff"/>
    </g>
   </g>
   <g id="PathCollection_3">
    <path d="M 288 215.649719 
C 289.180079 215.649719 290.311984 215.180869 291.146427 214.346427 
C 291.980869 213.511984 292.449719 212.380079 292.449719 211.2 
C 292.449719 210.019921 291.980869 208.888016 291.146427 208.053573 
C 290.311984 207.219131 289.180079 206.750281 288 206.750281 
C 286.819921 206.750281 285.688016 207.219131 284.853573 208.053573 
C 284.019131 208.888016 283.550281 210.019921 283.550281 211.2 
C 283.550281 212.380079 284.019131 213.511984 284.853573 214.346427 
C 285.688016 215.180869 286.819921 215.649719 288 215.649719 
L 288 215.649719 
z
" clip-path="url(#p530e1d529a)" style="fill: none; stroke: #7c2d12; stroke-width: 1.1"/>
   </g>
  </g>
 </g>
 <defs>
  <clipPath id="p530e1d529a">
   <rect x="0" y="0" width="576" height="422.4"/>
  </clipPath>
 </defs>
</svg>
