<?xml version="1.0" encoding="utf-8" standalone="no"?>
<!DOCTYPE svg PUBLIC "-//W3C//DTD SVG 1.1//EN"
  "http://www.w3.org/Graphics/SVG/1.1/DTD/svg11.dtd">
<svg xmlns:xlink="http://www.w3.org/1999/xlink" width="544.44pt" height="432pt" viewBox="0 0 544.44 432" xmlns="http://www.w3.org/2000/svg" version="1.1">
 <metadata>
  <rdf:RDF xmlns:dc="http://purl.org/dc/elements/1.1/" xmlns:cc="http://creativecommons.org/ns#" xmlns:rdf="http://www.w3.org/1999/02/22-rdf-syntax-ns#">
   <cc:Work>
    <dc:type rdf:resource="http://purl.org/dc/dcmitype/StillImage"/>
    <dc:date>2026-06-09T04:56:59.607621</dc:date>
    <dc:format>image/svg+xml</dc:format>
    <dc:creator>
     <cc:Agent>
      <dc:title>Matplotlib v3.10.8, https://matplotlib.org/</dc:title>
     </cc:Agent>
    </dc:creator>
   </cc:Work>
  </rdf:RDF>
 </metadata>
 <defs>
  <style type="text/css">*{stroke-linejoin: round; stroke-linecap: butt}</style>
 </defs>
 <g id="figure_1">
  <g id="patch_1">
   <path d="M 0 432 
L 544.44 432 
L 544.44 0 
L 0 0 
z
" style="fill: #eaf3ff"/>
  </g>
  <g id="axes_1">
   <g id="PatchCollection_1">
    <path d="M 430.147937 146.174394 
L 433.123011 141.459147 
L 434.148437 135.742659 
L 437.767193 124.889368 
L 439.277054 121.921363 
L 445.397611 116.573596 
L 451.021081 118.699606 
L 460.098481 119.698615 
L 468.378161 119.396866 
L 475.495122 114.168534 
L 476.751604 115.77718 
L 470.966655 122.919256 
L 465.555636 124.303729 
L 458.626198 122.895815 
L 446.628419 123.255235 
L 440.338198 124.291823 
L 439.314261 129.741537 
L 445.758519 136.144123 
L 449.645909 132.882926 
L 463.072067 130.432843 
L 462.480475 133.748734 
L 459.34355 132.702844 
L 456.217415 136.921378 
L 449.87957 139.712277 
L 456.692921 148.939621 
L 455.377653 151.4124 
L 461.850932 159.722591 
L 461.788796 164.452348 
L 457.94531 166.569056 
L 455.12204 164.037118 
L 458.600898 158.142036 
L 451.535282 160.929587 
L 449.744136 158.936778 
L 450.678032 156.157041 
L 445.486907 151.935159 
L 446.0212 144.919029 
L 441.219261 147.107547 
L 442.121159 165.803336 
L 437.555113 166.848481 
L 434.46172 164.735122 
L 436.525966 158.107805 
L 435.411615 151.159764 
L 432.384079 151.106558 
z
" clip-path="url(#p420869edc6)" style="fill: #e8edf4; stroke: #b8c5d4; stroke-width: 0.45"/>
    <path d="M 359.479134 123.009297 
L 360.317781 116.338076 
L 364.595473 111.553438 
L 365.797632 116.365423 
L 370.721239 120.433454 
L 375.365792 118.969357 
L 379.962349 119.488023 
L 384.157814 115.847129 
L 387.610626 115.215912 
L 394.422117 117.233649 
L 400.293759 115.699045 
L 403.985069 105.685331 
L 406.757365 103.181484 
L 409.251724 94.992774 
L 417.529544 94.996123 
L 423.770652 96.20963 
L 419.675274 102.712117 
L 424.967974 109.528631 
L 423.724515 112.840987 
L 431.79658 119.504022 
L 423.26538 120.353459 
L 420.864038 125.262182 
L 421.175833 131.786807 
L 414.252349 136.711158 
L 414.063337 143.881325 
L 411.286204 154.89163 
L 410.226176 152.33067 
L 402.046582 155.570286 
L 399.194291 151.169066 
L 394.060837 150.762021 
L 390.470359 148.455185 
L 381.910509 151.044423 
L 379.283693 147.559984 
L 374.567329 147.955867 
L 368.631692 147.125034 
L 367.530736 137.468693 
L 363.938025 135.467327 
L 360.481491 129.308447 
z
" clip-path="url(#p420869edc6)" style="fill: #e8edf4; stroke: #b8c5d4; stroke-width: 0.45"/>
    <path d="M 514.760819 132.751586 
L 524.466273 131.00732 
L 528.156838 128.660673 
L 539.715947 131.617515 
L 540.852249 134.293445 
L 542.862917 145.93813 
L 550.314741 150.24782 
L 556.331863 142.610705 
L 564.593312 138.265296 
L 570.994037 138.259342 
L 582.492126 143.345172 
L 590.221515 144.721088 
L 590.463733 191.648828 
L 584.052589 185.739607 
L 576.739919 184.291509 
L 574.966632 186.342733 
L 565.844212 186.564115 
L 568.901514 180.704752 
L 573.434074 178.705618 
L 571.55698 170.876514 
L 568.100447 164.832232 
L 554.142601 158.735116 
L 548.205103 158.133106 
L 537.39274 151.479745 
L 535.267474 154.978694 
L 532.50448 155.613446 
L 530.869975 152.973235 
L 530.847279 149.844868 
L 525.346591 146.307967 
L 533.101281 143.715009 
L 538.236223 143.854908 
L 537.632725 141.944699 
L 527.093089 141.930188 
L 524.240798 137.643566 
L 517.808447 136.314159 
z
" clip-path="url(#p420869edc6)" style="fill: #e8edf4; stroke: #b8c5d4; stroke-width: 0.45"/>
    <path d="M 261.129788 86.54529 
L 276.911151 88.226489 
L 283.278018 95.267734 
L 292.816784 103.144835 
L 299.638322 110.884455 
L 306.957689 110.997379 
L 313.007552 115.929357 
L 317.173251 121.958198 
L 322.656451 125.2473 
L 319.771046 131.12601 
L 323.897678 133.626323 
L 326.483939 133.81087 
L 327.704329 138.833075 
L 330.212827 142.851062 
L 335.499202 143.487675 
L 339.001872 148.044792 
L 337.193611 156.99978 
L 336.907116 168.136961 
L 328.934766 168.287649 
L 322.871136 162.268668 
L 313.626677 156.385864 
L 310.544447 152.021851 
L 305.093616 146.158395 
L 301.518021 140.761887 
L 296.042262 130.682503 
L 289.718927 124.681381 
L 284.94973 112.870753 
L 278.457103 108.337076 
L 274.693984 102.176708 
L 269.272919 98.14421 
L 261.762308 90.210368 
z
" clip-path="url(#p420869edc6)" style="fill: #e8edf4; stroke: #b8c5d4; stroke-width: 0.45"/>
    <path d="M 333.651501 175.330196 
L 338.591851 168.450616 
L 347.328062 168.875892 
L 353.139056 171.689488 
L 356.125292 172.238292 
L 357.109046 174.799252 
L 370.902437 175.516975 
L 372.488945 172.549342 
L 385.846641 176.011457 
L 388.467132 180.678335 
L 399.268333 181.990999 
L 408.099794 186.269807 
L 399.884482 189.013082 
L 391.966081 186.112422 
L 377.978842 185.775326 
L 371.240277 184.482754 
L 362.899204 181.732782 
L 357.614318 181.019523 
L 354.619896 181.919933 
L 341.489534 178.955277 
L 340.240494 175.85928 
z
" clip-path="url(#p420869edc6)" style="fill: #e8edf4; stroke: #b8c5d4; stroke-width: 0.45"/>
    <path d="M 492.296329 118.715605 
L 493.743683 112.963026 
L 496.133118 110.342907 
L 496.649924 114.274574 
L 500.900827 114.906163 
L 501.575391 117.846821 
L 501.198856 124.138902 
L 497.485222 123.433829 
L 496.389847 127.814957 
L 499.355991 131.616027 
L 497.340115 132.479974 
L 494.434617 127.919508 
z
" clip-path="url(#p420869edc6)" style="fill: #e8edf4; stroke: #b8c5d4; stroke-width: 0.45"/>
    <path d="M 495.892017 150.432739 
L 497.598331 146.474283 
L 506.491184 146.17551 
L 514.413677 148.275103 
L 517.03082 153.781 
L 510.951935 150.813367 
L 504.93779 150.210985 
L 500.872922 150.686491 
z
" clip-path="url(#p420869edc6)" style="fill: #e8edf4; stroke: #b8c5d4; stroke-width: 0.45"/>
    <path d="M 463.931921 199.727963 
L 464.580068 197.280112 
L 467.676065 192.888194 
L 474.794514 190.02809 
L 475.524144 191.44791 
L 475.657345 193.630846 
L 470.958841 199.008007 
L 464.795868 200.59191 
z
" clip-path="url(#p420869edc6)" style="fill: #e8edf4; stroke: #b8c5d4; stroke-width: 0.45"/>
    <path d="M 438.450686 186.802984 
L 444.168662 185.306145 
L 448.680015 187.464525 
L 453.473025 186.916466 
L 459.925468 184.278487 
L 458.870277 188.278615 
L 448.052332 190.322397 
L 438.475615 189.435009 
z
" clip-path="url(#p420869edc6)" style="fill: #e8edf4; stroke: #b8c5d4; stroke-width: 0.45"/>
    <path d="M 415.549014 191.037144 
L 418.022909 186.891537 
L 421.970575 186.834982 
L 423.900132 184.288905 
L 426.496439 186.20916 
L 430.944911 185.620917 
L 432.730849 188.681939 
L 419.419661 191.094443 
z
" clip-path="url(#p420869edc6)" style="fill: #e8edf4; stroke: #b8c5d4; stroke-width: 0.45"/>
    <path d="M 540.631984 170.225763 
L 543.417302 165.204302 
L 545.054411 167.310592 
L 545.037296 170.743685 
L 541.332964 175.645712 
z
" clip-path="url(#p420869edc6)" style="fill: #e8edf4; stroke: #b8c5d4; stroke-width: 0.45"/>
    <path d="M 482.141042 148.876369 
L 489.424691 148.531088 
L 491.214349 150.905268 
L 488.519444 153.295076 
L 483.543375 151.97311 
z
" clip-path="url(#p420869edc6)" style="fill: #e8edf4; stroke: #b8c5d4; stroke-width: 0.45"/>
    <path d="M 431.588221 194.817379 
L 438.30223 193.401651 
L 444.603613 197.781663 
L 444.172383 199.724986 
L 441.144103 199.86228 
z
" clip-path="url(#p420869edc6)" style="fill: #e8edf4; stroke: #b8c5d4; stroke-width: 0.45"/>
    <path d="M 474.794514 190.02809 
L 475.640974 188.329589 
L 481.838921 186.711083 
L 486.86187 186.467377 
L 489.112152 185.568083 
L 491.838683 186.460679 
L 489.189542 188.411444 
L 475.657345 193.630846 
L 475.524144 191.44791 
z
" clip-path="url(#p420869edc6)" style="fill: #e8edf4; stroke: #b8c5d4; stroke-width: 0.45"/>
    <path d="M 311.926316 29.561419 
L 316.536639 23.574808 
L 325.84621 22.19945 
L 332.595194 23.232875 
L 338.536412 26.056145 
L 341.793888 21.091797 
L 348.175638 23.742425 
L 349.844745 28.544179 
L 348.958102 37.172117 
L 336.855771 42.713175 
L 340.017624 47.074955 
L 332.459388 47.596969 
L 326.22721 50.496885 
L 320.200415 49.445601 
L 317.272966 45.693644 
L 313.631514 38.256516 
z
" clip-path="url(#p420869edc6)" style="fill: #e8edf4; stroke: #b8c5d4; stroke-width: 0.45"/>
    <path d="M 276.126454 -6.807152 
L 279.164036 -8.114979 
L 282.446813 -15.899062 
L 287.529665 -16.221461 
L 291.731827 -19.343503 
L 295.855111 -21.008517 
L 298.971944 -18.786513 
L 299.385314 -14.46008 
L 304.250505 -14.130612 
L 302.478706 -6.544284 
L 302.648742 -0.08998 
L 310.237861 -4.385532 
L 312.393636 -3.116028 
L 316.610681 -3.324201 
L 318.061383 -5.829351 
L 323.506632 -5.334869 
L 328.982019 0.512216 
L 329.431108 7.618572 
L 335.261077 13.893724 
L 334.939237 19.987678 
L 332.595194 23.232875 
L 325.84621 22.19945 
L 316.536639 23.574808 
L 311.926316 29.561419 
L 313.631514 38.256516 
L 307.167536 34.950672 
L 301.009029 35.084989 
L 302.064964 29.428404 
L 295.724142 29.470634 
L 295.154874 37.389592 
L 288.927161 54.265958 
L 289.421271 59.477361 
L 294.111589 59.703393 
L 297.033457 66.274899 
L 298.326774 72.507077 
L 302.344761 76.630546 
L 306.706169 77.467518 
L 310.436546 81.20422 
L 308.082829 84.162179 
L 303.330375 85.022034 
L 302.763712 81.324957 
L 296.889094 78.171661 
L 295.637449 79.455676 
L 292.792972 76.692868 
L 291.561419 73.127132 
L 284.247261 65.647403 
L 283.065566 69.879516 
L 281.700068 65.879946 
L 284.605565 54.482689 
L 288.094468 47.084071 
L 292.048459 40.372108 
L 289.233747 33.805811 
L 289.346485 30.461085 
L 288.523837 26.441982 
L 283.721898 20.721401 
L 282.002933 17.109342 
L 284.489107 15.778819 
L 287.124109 9.519666 
L 284.175079 4.767584 
L 279.605684 -0.489212 
z
" clip-path="url(#p420869edc6)" style="fill: #e8edf4; stroke: #b8c5d4; stroke-width: 0.45"/>
    <path d="M 295.855111 -21.008517 
L 297.389529 -23.660076 
L 303.516038 -28.343325 
L 304.164185 -26.651894 
L 308.002462 -26.455441 
L 306.914529 -34.691031 
L 310.647138 -35.746222 
L 314.855253 -30.060988 
L 318.0878 -23.519248 
L 326.952003 -23.462879 
L 329.742531 -17.183821 
L 325.140393 -15.29761 
L 323.075031 -12.709303 
L 331.701109 -8.402217 
L 342.223257 6.449155 
L 347.671483 11.458524 
L 349.484581 16.544353 
L 348.175638 23.742425 
L 341.793888 21.091797 
L 338.536412 26.056145 
L 332.595194 23.232875 
L 334.939237 19.987678 
L 335.261077 13.893724 
L 329.431108 7.618572 
L 328.982019 0.512216 
L 323.506632 -5.334869 
L 318.061383 -5.829351 
L 316.610681 -3.324201 
L 312.393636 -3.116028 
L 310.237861 -4.385532 
L 302.648742 -0.08998 
L 302.478706 -6.544284 
L 304.250505 -14.130612 
L 299.385314 -14.46008 
L 298.971944 -18.786513 
z
" clip-path="url(#p420869edc6)" style="fill: #e8edf4; stroke: #b8c5d4; stroke-width: 0.45"/>
    <path d="M 239.603288 -28.623494 
L 242.116251 -27.533142 
L 242.263591 -32.69692 
L 245.816118 -34.404909 
L 245.054118 -37.462397 
L 246.681554 -39.91434 
L 246.961351 -47.365606 
L 252.588542 -45.725334 
L 255.799137 -51.661716 
L 256.163394 -55.169967 
L 260.137105 -61.209412 
L 259.918327 -65.329719 
L 269.239433 -70.305043 
L 274.384793 -69.003169 
L 273.794318 -73.433224 
L 276.318443 -74.75426 
L 275.77522 -77.483396 
L 279.986312 -78.018805 
L 282.392863 -73.779994 
L 285.535368 -72.063448 
L 285.457234 -60.614658 
L 278.637185 -54.602188 
L 277.773982 -46.061314 
L 285.37389 -47.255659 
L 287.090994 -40.627599 
L 291.650344 -39.233079 
L 289.554472 -33.251863 
L 298.019072 -29.223644 
L 303.300238 -31.319888 
L 303.516038 -28.343325 
L 297.389529 -23.660076 
L 295.855111 -21.008517 
L 291.731827 -19.343503 
L 287.529665 -16.221461 
L 282.446813 -15.899062 
L 279.164036 -8.114979 
L 276.126454 -6.807152 
L 279.605684 -0.489212 
L 284.175079 4.767584 
L 287.124109 9.519666 
L 284.489107 15.778819 
L 282.002933 17.109342 
L 283.721898 20.721401 
L 288.523837 26.441982 
L 289.346485 30.461085 
L 289.233747 33.805811 
L 292.048459 40.372108 
L 288.094468 47.084071 
L 284.605565 54.482689 
L 283.911654 49.138085 
L 286.124728 43.6227 
L 283.704038 39.362495 
L 284.288933 31.518881 
L 281.365948 27.78869 
L 279.019673 19.171542 
L 277.718915 10.075911 
L 274.604687 4.113112 
L 261.679336 12.856392 
L 257.640513 12.215129 
L 253.17939 10.52686 
L 255.661099 1.60387 
L 254.158679 -5.1373 
L 248.515116 -13.438747 
L 249.395435 -16.034123 
L 245.183599 -16.957044 
L 240.073585 -22.83036 
z
" clip-path="url(#p420869edc6)" style="fill: #e8edf4; stroke: #b8c5d4; stroke-width: 0.45"/>
    <path d="M 310.647138 -35.746222 
L 314.510344 -37.503325 
L 320.252505 -37.467048 
L 327.25338 -38.297881 
L 333.390308 -42.134856 
L 336.86098 -39.433625 
L 343.442904 -38.118729 
L 342.304368 -33.971075 
L 345.732624 -31.045672 
L 352.981298 -29.177135 
L 343.368489 -23.017325 
L 337.368112 -16.214763 
L 335.786441 -11.218789 
L 348.026066 5.778313 
L 354.560364 10.225855 
L 358.935167 16.007828 
L 362.233943 29.332596 
L 361.260979 41.998613 
L 355.256136 46.740092 
L 347.010686 51.375716 
L 341.136812 57.377954 
L 332.159499 64.081731 
L 329.545333 59.464524 
L 331.568652 54.586868 
L 326.22721 50.496885 
L 332.459388 47.596969 
L 340.017624 47.074955 
L 336.855771 42.713175 
L 348.958102 37.172117 
L 349.844745 28.544179 
L 348.175638 23.742425 
L 349.484581 16.544353 
L 347.671483 11.458524 
L 342.223257 6.449155 
L 331.701109 -8.402217 
L 323.075031 -12.709303 
L 325.140393 -15.29761 
L 329.742531 -17.183821 
L 326.952003 -23.462879 
L 318.0878 -23.519248 
L 314.855253 -30.060988 
z
" clip-path="url(#p420869edc6)" style="fill: #e8edf4; stroke: #b8c5d4; stroke-width: 0.45"/>
    <path d="M 65.891845 -44.582148 
L 70.686715 -49.385762 
L 86.531329 -49.366972 
L 85.101835 -55.548735 
L 81.056687 -59.200047 
L 80.236272 -64.741476 
L 75.523629 -67.974953 
L 83.458773 -75.522213 
L 91.819193 -74.974898 
L 99.351012 -82.52346 
L 103.864597 -89.830177 
L 110.853938 -97.054666 
L 110.742689 -102.187004 
L 116.882221 -106.351959 
L 111.071227 -109.907277 
L 106.019628 -121.087432 
L 109.549459 -124.191987 
L 120.470839 -122.435443 
L 128.496396 -123.505517 
L 135.449646 -129.556868 
L 143.188336 -121.117942 
L 142.459823 -115.244626 
L 145.32402 -111.559641 
L 145.088127 -107.883215 
L 139.920815 -108.850783 
L 141.94004 -100.914524 
L 149.013841 -96.355546 
L 159.021044 -91.321063 
L 154.452393 -88.05503 
L 151.656656 -81.320185 
L 174.810592 -71.024441 
L 184.680129 -70.091289 
L 188.832806 -66.428629 
L 203.057798 -64.064866 
L 209.053711 -64.185231 
L 209.878591 -67.034917 
L 208.930556 -71.609894 
L 209.487173 -74.7111 
L 213.878347 -76.225426 
L 214.636626 -69.112558 
L 221.180599 -66.379701 
L 225.707578 -67.505214 
L 237.661081 -67.235835 
L 238.166725 -71.658821 
L 235.235927 -73.956541 
L 241.042456 -74.85751 
L 247.596103 -80.212532 
L 255.895131 -84.797554 
L 261.934576 -83.02836 
L 267.067286 -86.060175 
L 270.443452 -81.583053 
L 268.011601 -78.559423 
L 275.77522 -77.483396 
L 276.318443 -74.75426 
L 273.794318 -73.433224 
L 274.384793 -69.003169 
L 269.239433 -70.305043 
L 259.918327 -65.329719 
L 260.137105 -61.209412 
L 256.163394 -55.169967 
L 255.799137 -51.661716 
L 252.588542 -45.725334 
L 246.961351 -47.365606 
L 246.681554 -39.91434 
L 245.054118 -37.462397 
L 245.816118 -34.404909 
L 242.263591 -32.69692 
L 238.47145 -44.117991 
L 236.483479 -44.095294 
L 235.30662 -39.493901 
L 231.364535 -43.225394 
L 233.587656 -47.323004 
L 236.808668 -47.738979 
L 240.128652 -53.832188 
L 235.977091 -55.061509 
L 229.299917 -54.954724 
L 222.448987 -55.942199 
L 221.813863 -60.948591 
L 218.376677 -61.303732 
L 212.673955 -64.414984 
L 210.130483 -59.530073 
L 215.327189 -55.718585 
L 210.825882 -53.035772 
L 209.22784 -50.411932 
L 213.65957 -48.482747 
L 212.434342 -44.144221 
L 214.929446 -38.729854 
L 216.050121 -32.8011 
L 215.019114 -30.172237 
L 210.121181 -30.262836 
L 201.245072 -28.768044 
L 201.658814 -23.351816 
L 197.815327 -19.091797 
L 187.453913 -14.245767 
L 179.395242 -5.774471 
L 173.982364 -1.232794 
L 166.808104 3.48022 
L 166.796942 6.792018 
L 156.722394 11.145799 
L 153.35925 11.525869 
L 151.200498 17.017813 
L 153.081314 32.354923 
L 150.030337 39.19525 
L 149.997595 51.427619 
L 146.271683 51.776249 
L 142.994488 57.267821 
L 145.185982 59.640885 
L 138.621173 61.682063 
L 136.196391 66.578695 
L 133.307265 68.64815 
L 126.489448 61.925211 
L 120.394565 44.580595 
L 117.871928 41.175036 
L 114.046673 34.258063 
L 111.015788 20.756003 
L 104.466235 10.867304 
L 99.330548 -12.299282 
L 99.356221 -21.020424 
L 97.959841 -27.763268 
L 87.481969 -23.453577 
L 82.407302 -24.316781 
L 73.001737 -33.042946 
L 76.463479 -35.645577 
L 74.337097 -38.470893 
z
" clip-path="url(#p420869edc6)" style="fill: #e8edf4; stroke: #b8c5d4; stroke-width: 0.45"/>
    <path d="M 391.060462 314.039125 
L 394.224176 317.152981 
L 391.794929 310.473203 
L 395.365688 312.560889 
L 397.496534 315.348812 
L 397.376356 311.661223 
L 391.453368 301.570304 
L 392.234716 297.405721 
L 393.710347 295.63355 
L 394.692613 292.03191 
L 393.923171 287.823423 
L 396.898245 282.642343 
L 397.442212 288.125916 
L 400.483887 283.172544 
L 406.333204 280.765249 
L 409.841083 277.694552 
L 415.343631 275.052109 
L 418.617478 274.489911 
L 420.599124 275.377671 
L 426.272824 272.6943 
L 430.639814 271.895837 
L 431.732212 270.318258 
L 433.637956 269.661182 
L 437.61762 269.830846 
L 445.184786 267.722696 
L 449.098966 264.52624 
L 450.936993 260.678289 
L 455.159991 257.02307 
L 455.67196 250.235763 
L 460.710536 244.117439 
L 463.743281 250.333618 
L 466.807281 248.897054 
L 464.243344 245.494843 
L 466.502927 242.001475 
L 469.679663 243.561194 
L 470.554029 238.082831 
L 474.4883 234.540721 
L 476.22438 231.698848 
L 479.844624 230.472505 
L 479.957734 228.46072 
L 483.121075 229.300855 
L 483.248323 227.491105 
L 489.894243 225.489367 
L 495.213361 228.793723 
L 499.209768 233.058021 
L 508.294609 233.782442 
L 506.76912 229.828823 
L 510.218212 224.054664 
L 513.464154 222.173104 
L 512.341245 220.374144 
L 515.468124 216.262023 
L 519.82916 213.722271 
L 523.512656 214.577661 
L 529.562148 213.221092 
L 529.431923 209.541689 
L 524.157826 207.171229 
L 527.992011 206.12534 
L 532.760836 207.910161 
L 536.586091 210.862911 
L 542.650093 212.705031 
L 544.706154 211.976517 
L 549.169137 214.189964 
L 553.375392 212.128322 
L 556.080343 212.75526 
L 557.765822 211.371903 
L 561.071666 214.934104 
L 559.1529 218.788008 
L 556.418927 221.696854 
L 553.944659 221.936467 
L 554.778841 224.814803 
L 550.106382 231.951112 
L 550.621327 233.983732 
L 556.345257 237.961908 
L 561.890593 240.269488 
L 570.803165 247.014751 
L 572.833181 247.007681 
L 576.601509 248.85129 
L 577.69614 251.075526 
L 584.569767 253.517796 
L 589.323337 251.057295 
L 592.193488 243.999865 
L 595.275718 234.323432 
L 594.276337 230.841598 
L 594.795747 228.746842 
L 593.963054 224.626164 
L 594.906624 219.201751 
L 596.287377 217.739142 
L 595.166329 215.334824 
L 598.273116 207.561903 
L 598.454687 205.507703 
L 601.129872 202.810937 
L 603.160632 206.332955 
L 603.660695 210.849888 
L 605.454818 211.720533 
L 605.762148 214.74472 
L 608.37929 218.407381 
L 608.919536 222.483039 
L 608.66504 225.098321 
L 611.259115 230.747837 
L 615.87874 228.032467 
L 618.263338 231.080095 
L 621.718011 233.891831 
L 620.978335 237.083078 
L 622.513869 243.256841 
L 623.60664 246.851412 
L 625.420111 247.72987 
L 627.374224 253.883913 
L 626.678452 257.616522 
L 629.009845 262.499573 
L 636.811787 266.261204 
L 646.728577 272.816711 
L 645.785751 274.560976 
L 649.903825 279.075677 
L 652.704027 286.866086 
L 655.577154 285.284043 
L 658.497161 288.404224 
L 660.25631 287.297315 
L 661.496792 294.928105 
L 669.949486 302.096784 
L 675.577421 307.926009 
L 677.600367 313.712447 
L 677.288945 322.274157 
L 680.720177 328.392481 
L 680.307179 334.764557 
L 677.118536 344.521729 
L 677.265132 348.650221 
L 675.839359 353.811209 
L 672.660018 360.360018 
L 667.325646 363.897663 
L 664.696597 369.475369 
L 662.295999 373.034593 
L 660.161804 379.248912 
L 657.383183 382.83753 
L 655.561527 388.22548 
L 654.632095 393.185177 
L 655.000445 395.461876 
L 650.871952 397.963304 
L 642.813281 398.225242 
L 636.168478 401.178364 
L 628.509038 407.057447 
L 622.545495 403.87513 
L 618.13423 402.605626 
L 619.251929 398.852552 
L 615.316913 400.21433 
L 609.01181 405.428151 
L 587.617767 399.739196 
L 582.963539 395.301141 
L 581.627435 389.83394 
L 579.953863 386.196209 
L 576.416218 383.275829 
L 569.489385 382.408533 
L 571.856124 378.916281 
L 570.114463 373.570003 
L 566.598027 378.55314 
L 560.19172 379.87585 
L 563.957072 375.892838 
L 565.047982 371.737928 
L 567.828835 368.211446 
L 567.254359 362.88005 
L 561.397228 369.019955 
L 556.898898 371.482316 
L 554.141113 377.20885 
L 548.51913 374.246426 
L 548.742372 370.425264 
L 544.236601 365.204002 
L 540.438507 362.50612 
L 541.792099 360.844082 
L 532.553593 356.480813 
L 527.494181 356.275058 
L 520.56958 352.769784 
L 507.677716 353.451045 
L 490.160646 358.432322 
L 483.29074 357.954956 
L 475.658089 361.647009 
L 469.415865 363.308303 
L 468.028415 367.083701 
L 465.369601 370.00929 
L 454.738064 370.824496 
L 448.374173 369.51146 
L 438.254605 370.627671 
L 433.972075 374.467436 
L 431.872855 374.141875 
L 424.799798 378.466076 
L 414.720785 378.180698 
L 407.083298 373.582281 
L 403.213023 372.214923 
L 403.370036 368.088663 
L 406.944888 367.108258 
L 408.165651 365.468916 
L 407.911527 362.882655 
L 408.791845 357.876449 
L 407.985197 353.609547 
L 404.178545 346.331479 
L 402.99871 342.221218 
L 403.308273 338.119887 
L 400.442215 333.433662 
L 400.258784 331.31807 
L 397.06977 328.450152 
L 396.171964 322.81031 
L 392.057983 317.110565 
z
" clip-path="url(#p420869edc6)" style="fill: #e8edf4; stroke: #b8c5d4; stroke-width: 0.45"/>
    <path d="M 616.990114 422.370373 
L 617.175032 419.068621 
L 621.885443 419.706349 
L 628.841669 422.191407 
L 638.382668 419.819459 
L 642.701288 420.30315 
L 643.211025 428.849605 
L 640.744571 431.33057 
L 640.001174 437.122961 
L 637.484863 435.15136 
L 632.48647 440.1691 
L 626.56832 439.558161 
L 622.129893 433.395188 
L 621.144651 428.64199 
z
" clip-path="url(#p420869edc6)" style="fill: #e8edf4; stroke: #b8c5d4; stroke-width: 0.45"/>
    <path d="M 148.825201 66.953927 
L 152.084165 55.266641 
L 157.059489 59.267327 
L 160.411099 64.337715 
L 163.893305 71.834002 
L 162.80872 79.331218 
L 159.789741 81.380582 
L 153.52817 83.027737 
L 150.101775 77.303063 
z
" clip-path="url(#p420869edc6)" style="fill: #e8edf4; stroke: #b8c5d4; stroke-width: 0.45"/>
    <path d="M 438.183167 8.181329 
L 441.082711 10.550673 
L 441.82834 -0.713384 
L 444.174243 -7.237637 
L 448.533419 -7.229265 
L 452.97073 -5.173577 
L 455.191245 -7.048439 
L 455.846089 -5.219156 
L 454.674812 -2.234035 
L 457.132708 2.926766 
L 455.236638 8.910401 
L 450.99206 11.296674 
L 449.856501 17.101342 
L 451.467566 22.83569 
L 455.284263 23.628944 
L 458.469185 22.776903 
L 467.462124 26.768659 
L 466.776771 30.688048 
L 469.125279 32.417803 
L 468.377417 35.735926 
L 462.765853 32.201816 
L 460.106294 28.418977 
L 458.253756 31.061979 
L 453.669478 26.75173 
L 447.12997 27.815851 
L 443.546189 26.224879 
L 443.911562 23.248688 
L 446.161099 21.417172 
L 444.012021 19.751971 
L 443.081845 22.34679 
L 439.527085 18.20974 
L 438.450686 15.074303 
z
" clip-path="url(#p420869edc6)" style="fill: #e8edf4; stroke: #b8c5d4; stroke-width: 0.45"/>
    <path d="M 452.843482 74.21674 
L 455.668984 68.148273 
L 460.205265 66.123094 
L 464.131351 63.41033 
L 466.676312 66.669666 
L 472.150582 64.698065 
L 473.325208 61.485052 
L 478.414014 61.293622 
L 477.987249 55.72559 
L 483.823544 59.140265 
L 486.089452 74.23646 
L 483.636765 80.825081 
L 481.006228 73.48525 
L 477.639736 77.137306 
L 479.938758 82.44247 
L 477.874884 85.816776 
L 469.402471 81.63824 
L 467.378781 76.427024 
L 469.574367 73.003605 
L 465.01353 69.598603 
L 462.751714 72.584095 
L 459.363642 72.306903 
L 454.035595 76.324146 
z
" clip-path="url(#p420869edc6)" style="fill: #e8edf4; stroke: #b8c5d4; stroke-width: 0.45"/>
    <path d="M 469.740683 35.584121 
L 476.655238 35.742809 
L 478.638372 38.428599 
L 480.660947 46.467922 
L 475.105565 44.557527 
L 475.255881 46.974124 
L 477.017634 51.417201 
L 473.593099 53.030312 
L 473.29321 47.966435 
L 471.125529 47.592505 
L 469.998156 43.233329 
L 474.235292 43.807805 
L 474.141531 41.081832 
z
" clip-path="url(#p420869edc6)" style="fill: #e8edf4; stroke: #b8c5d4; stroke-width: 0.45"/>
    <path d="M 456.156396 56.063801 
L 459.446986 52.11967 
L 460.241356 47.650548 
L 464.211718 47.227504 
L 463.051975 52.074836 
L 468.381138 45.124376 
L 467.693552 51.992794 
L 465.106919 54.359347 
L 462.851429 58.908465 
L 460.590358 61.040242 
z
" clip-path="url(#p420869edc6)" style="fill: #e8edf4; stroke: #b8c5d4; stroke-width: 0.45"/>
    <path d="M 452.581544 40.379363 
L 456.903513 42.608251 
L 461.485559 42.597647 
L 461.346032 45.605277 
L 458.011538 48.662579 
L 453.438794 50.824679 
L 453.185042 47.479023 
L 453.696267 43.805945 
z
" clip-path="url(#p420869edc6)" style="fill: #e8edf4; stroke: #b8c5d4; stroke-width: 0.45"/>
    <path d="M 418.674777 65.754001 
L 422.204236 60.718401 
L 427.405779 56.271603 
L 431.728864 51.290697 
L 435.502773 44.13839 
L 436.785671 50.009101 
L 432.032101 53.973696 
L 428.252983 58.922046 
z
" clip-path="url(#p420869edc6)" style="fill: #e8edf4; stroke: #b8c5d4; stroke-width: 0.45"/>
    <path d="M 441.348741 29.041823 
L 447.516923 29.306179 
L 450.017236 31.898951 
L 448.107771 38.119967 
z
" clip-path="url(#p420869edc6)" style="fill: #e8edf4; stroke: #b8c5d4; stroke-width: 0.45"/>
    <path d="M 364.595473 111.553438 
L 369.872174 114.020822 
L 375.435741 112.675416 
L 376.884583 106.579416 
L 379.957884 105.221545 
L 388.588427 103.662757 
L 397.288919 93.413708 
L 400.569091 97.145015 
L 402.080813 94.692141 
L 405.521719 94.92022 
L 406.265115 86.776345 
L 411.809335 81.769023 
L 415.440741 76.141646 
L 418.353308 76.118019 
L 422.052431 79.760402 
L 422.381341 82.890071 
L 433.129708 87.063584 
L 432.616995 89.883877 
L 427.786034 90.241064 
L 429.071909 93.756943 
L 423.770652 96.20963 
L 417.529544 94.996123 
L 409.251724 94.992774 
L 406.757365 103.181484 
L 403.985069 105.685331 
L 400.293759 115.699045 
L 394.422117 117.233649 
L 387.610626 115.215912 
L 384.157814 115.847129 
L 379.962349 119.488023 
L 375.365792 118.969357 
L 370.721239 120.433454 
L 365.797632 116.365423 
z
" clip-path="url(#p420869edc6)" style="fill: #e8edf4; stroke: #b8c5d4; stroke-width: 0.45"/>
    <path d="M 295.637449 79.455676 
L 296.889094 78.171661 
L 302.763712 81.324957 
L 303.330375 85.022034 
L 308.082829 84.162179 
L 310.436546 81.20422 
L 312.092259 81.876924 
L 316.344279 86.223635 
L 319.364745 91.043992 
L 319.777743 95.89244 
L 319.011279 99.167775 
L 320.237622 105.904666 
L 322.773654 107.888731 
L 325.605109 114.255784 
L 325.467443 116.690054 
L 320.361894 117.170397 
L 305.032597 106.122141 
L 304.189486 102.4539 
L 300.027135 97.638194 
L 299.033335 91.675581 
L 296.436284 87.750053 
L 297.225073 82.507955 
z
" clip-path="url(#p420869edc6)" style="fill: #e8edf4; stroke: #b8c5d4; stroke-width: 0.45"/>
    <path d="M 397.288919 93.413708 
L 400.139722 90.719919 
L 406.265115 86.776345 
L 405.521719 94.92022 
L 402.080813 94.692141 
L 400.569091 97.145015 
z
" clip-path="url(#p420869edc6)" style="fill: #e8edf4; stroke: #b8c5d4; stroke-width: 0.45"/>
   </g>
   <g id="PathCollection_1">
    <defs>
     <path id="m848bfc2440" d="M 0 2.12132 
C 0.562581 2.12132 1.102195 1.897805 1.5 1.5 
C 1.897805 1.102195 2.12132 0.562581 2.12132 0 
C 2.12132 -0.562581 1.897805 -1.102195 1.5 -1.5 
C 1.102195 -1.897805 0.562581 -2.12132 0 -2.12132 
C -0.562581 -2.12132 -1.102195 -1.897805 -1.5 -1.5 
C -1.897805 -1.102195 -2.12132 -0.562581 -2.12132 0 
C -2.12132 0.562581 -1.897805 1.102195 -1.5 1.5 
C -1.102195 1.897805 -0.562581 2.12132 0 2.12132 
z
" style="stroke: #ffffff; stroke-width: 0.5"/>
    </defs>
    <g clip-path="url(#p420869edc6)">
     <use xlink:href="#m848bfc2440" x="400.62" y="93.6" style="fill: #8aa0b7; stroke: #ffffff; stroke-width: 0.5"/>
     <use xlink:href="#m848bfc2440" x="272.22" y="216" style="fill: #8aa0b7; stroke: #ffffff; stroke-width: 0.5"/>
     <use xlink:href="#m848bfc2440" x="335.82" y="201.6" style="fill: #8aa0b7; stroke: #ffffff; stroke-width: 0.5"/>
     <use xlink:href="#m848bfc2440" x="89.82" y="169.2" style="fill: #8aa0b7; stroke: #ffffff; stroke-width: 0.5"/>
     <use xlink:href="#m848bfc2440" x="158.22" y="75.6" style="fill: #8aa0b7; stroke: #ffffff; stroke-width: 0.5"/>
     <use xlink:href="#m848bfc2440" x="100.62" y="102.6" style="fill: #8aa0b7; stroke: #ffffff; stroke-width: 0.5"/>
     <use xlink:href="#m848bfc2440" x="543.42" y="72" style="fill: #8aa0b7; stroke: #ffffff; stroke-width: 0.5"/>
     <use xlink:href="#m848bfc2440" x="322.38" y="116.16" style="fill: #8aa0b7; stroke: #ffffff; stroke-width: 0.5"/>
     <use xlink:href="#m848bfc2440" x="481.62" y="189.6" style="fill: #8aa0b7; stroke: #ffffff; stroke-width: 0.5"/>
    </g>
   </g>
   <g id="PathCollection_2">
    <defs>
     <path id="me73ae87ccf" d="M 0 3.674235 
C 0.974418 3.674235 1.909058 3.287094 2.598076 2.598076 
C 3.287094 1.909058 3.674235 0.974418 3.674235 0 
C 3.674235 -0.974418 3.287094 -1.909058 2.598076 -2.598076 
C 1.909058 -3.287094 0.974418 -3.674235 0 -3.674235 
C -0.974418 -3.674235 -1.909058 -3.287094 -2.598076 -2.598076 
C -3.287094 -1.909058 -3.674235 -0.974418 -3.674235 0 
C -3.674235 0.974418 -3.287094 1.909058 -2.598076 2.598076 
C -1.909058 3.287094 -0.974418 3.674235 0 3.674235 
z
" style="stroke: #ffffff; stroke-width: 1.2"/>
    </defs>
    <g clip-path="url(#p420869edc6)">
     <use xlink:href="#me73ae87ccf" x="272.22" y="216" style="fill: #f97316; stroke: #ffffff; stroke-width: 1.2"/>
    </g>
   </g>
   <g id="PathCollection_3">
    <path d="M 272.22 220.929503 
C 273.527319 220.929503 274.781271 220.410099 275.705685 219.485685 
C 276.630099 218.561271 277.149503 217.307319 277.149503 216 
C 277.149503 214.692681 276.630099 213.438729 275.705685 212.514315 
C 274.781271 211.589901 273.527319 211.070497 272.22 211.070497 
C 270.91268 211.070497 269.658729 211.589901 268.734315 212.514315 
C 267.8099 213.438729 267.290497 214.692681 267.290497 216 
C 267.290497 217.307319 267.8099 218.561271 268.734315 219.485685 
C 269.658729 220.410099 270.91268 220.929503 272.22 220.929503 
L 272.22 220.929503 
z
" clip-path="url(#p420869edc6)" style="fill: none; stroke: #7c2d12; stroke-width: 1.1"/>
   </g>
  </g>
 </g>
 <defs>
  <clipPath id="p420869edc6">
   <rect x="0" y="0" width="544.44" height="432"/>
  </clipPath>
 </defs>
</svg>
