<?xml version="1.0" encoding="utf-8" standalone="no"?>
<!DOCTYPE svg PUBLIC "-//W3C//DTD SVG 1.1//EN"
  "http://www.w3.org/Graphics/SVG/1.1/DTD/svg11.dtd">
<svg xmlns:xlink="http://www.w3.org/1999/xlink" width="349.2pt" height="432pt" viewBox="0 0 349.2 432" xmlns="http://www.w3.org/2000/svg" version="1.1">
 <metadata>
  <rdf:RDF xmlns:dc="http://purl.org/dc/elements/1.1/" xmlns:cc="http://creativecommons.org/ns#" xmlns:rdf="http://www.w3.org/1999/02/22-rdf-syntax-ns#">
   <cc:Work>
    <dc:type rdf:resource="http://purl.org/dc/dcmitype/StillImage"/>
    <dc:date>2026-06-09T04:57:17.301196</dc:date>
    <dc:format>image/svg+xml</dc:format>
    <dc:creator>
     <cc:Agent>
      <dc:title>Matplotlib v3.10.8, https://matplotlib.org/</dc:title>
     </cc:Agent>
    </dc:creator>
   </cc:Work>
  </rdf:RDF>
 </metadata>
 <defs>
  <style type="text/css">*{stroke-linejoin: round; stroke-linecap: butt}</style>
 </defs>
 <g id="figure_1">
  <g id="patch_1">
   <path d="M 0 432 
L 349.2 432 
L 349.2 0 
L 0 0 
z
" style="fill: #eaf3ff"/>
  </g>
  <g id="axes_1">
   <g id="PatchCollection_1">
    <path d="M 329.652288 286.01748 
L 332.430264 283.544208 
L 335.704104 284.434632 
L 337.48992 283.247424 
L 339.970032 285.324912 
L 338.779512 289.084248 
L 334.315152 290.073528 
L 330.346512 289.183104 
z
" clip-path="url(#pbbbf10868a)" style="fill: #e8edf4; stroke: #b8c5d4; stroke-width: 0.45"/>
    <path d="M 339.097238 278.20188 
L 344.977267 276.329191 
L 349.2 274.083355 
L 349.2 277.597559 
L 340.020427 280.8867 
z
" clip-path="url(#pbbbf10868a)" style="fill: #e8edf4; stroke: #b8c5d4; stroke-width: 0.45"/>
    <path d="M -2242.8 277.597559 
L -2242.8 274.083355 
L -2241.311905 273.750352 
L -2242.20506 277.212839 
z
" clip-path="url(#pbbbf10868a)" style="fill: #e8edf4; stroke: #b8c5d4; stroke-width: 0.45"/>
    <path d="M 68.401515 177.121088 
L 80.893776 182.081901 
L 94.204591 186.202208 
L 103.174462 193.510785 
L 104.269837 197.752386 
L 116.266128 202.202347 
L 118.015975 206.020905 
L 111.390519 206.795927 
L 112.981491 211.593774 
L 119.409378 216.317579 
L 124.085558 223.953578 
L 128.209213 223.714337 
L 127.919742 226.903723 
L 133.478845 228.127091 
L 131.319349 229.485147 
L 138.971719 232.514544 
L 138.17214 234.595533 
L 133.404431 235.097828 
L 131.632632 233.231523 
L 118.173733 231.339174 
L 108.488742 222.786393 
L 104.749064 216.485383 
L 95.358009 213.336924 
L 89.259032 215.39038 
L 84.861906 217.767537 
L 85.780175 223.078096 
L 80.124706 225.553108 
L 76.091464 224.349089 
L 68.643733 224.048828 
z
" clip-path="url(#pbbbf10868a)" style="fill: #e8edf4; stroke: #b8c5d4; stroke-width: 0.45"/>
    <path d="M 121.096345 199.779425 
L 121.693146 197.551841 
L 128.148566 198.602939 
L 132.088046 198.039625 
L 133.173003 194.587928 
L 134.206242 194.409707 
L 134.905735 198.231985 
L 139.013763 197.682065 
L 141.045639 195.218588 
L 145.064742 192.65093 
L 144.272605 188.408213 
L 148.5849 188.271291 
L 150.03895 189.453358 
L 149.894587 193.447161 
L 147.47613 197.842055 
L 143.70557 198.434019 
L 142.570011 200.453245 
L 134.936616 203.887826 
L 131.111734 203.878896 
z
" clip-path="url(#pbbbf10868a)" style="fill: #e8edf4; stroke: #b8c5d4; stroke-width: 0.45"/>
    <path d="M 165.701622 195.401646 
L 166.698027 194.705503 
L 167.471933 196.847883 
L 169.653009 198.4809 
L 173.143773 203.044715 
L 176.543751 205.4881 
L 175.536185 207.503977 
L 173.519936 208.223933 
L 170.402359 205.458707 
L 167.250179 200.885963 
z
" clip-path="url(#pbbbf10868a)" style="fill: #e8edf4; stroke: #b8c5d4; stroke-width: 0.45"/>
    <path d="M 137.966757 178.1387 
L 139.967751 176.400015 
L 149.327924 181.728062 
L 154.943953 187.056109 
L 155.808273 190.799881 
L 153.556503 192.718275 
L 152.198447 188.468116 
L 150.523386 185.686146 
L 143.166812 180.255036 
z
" clip-path="url(#pbbbf10868a)" style="fill: #e8edf4; stroke: #b8c5d4; stroke-width: 0.45"/>
    <path d="M -91.672063 178.574394 
L -88.696989 173.859147 
L -87.671563 168.142659 
L -84.052807 157.289368 
L -82.542946 154.321363 
L -76.422389 148.973596 
L -70.798919 151.099606 
L -61.721519 152.098615 
L -53.441839 151.796866 
L -46.324878 146.568534 
L -45.068396 148.17718 
L -50.853345 155.319256 
L -56.264364 156.703729 
L -63.193802 155.295815 
L -75.191581 155.655235 
L -81.481802 156.691823 
L -82.505739 162.141537 
L -76.061481 168.544123 
L -72.174091 165.282926 
L -58.747933 162.832843 
L -59.339525 166.148734 
L -62.47645 165.102844 
L -65.602585 169.321378 
L -71.94043 172.112277 
L -65.127079 181.339621 
L -66.442347 183.8124 
L -59.969068 192.122591 
L -60.031204 196.852348 
L -63.87469 198.969056 
L -66.69796 196.437118 
L -63.219102 190.542036 
L -70.284718 193.329587 
L -72.075864 191.336778 
L -71.141968 188.557041 
L -76.333093 184.335159 
L -75.7988 177.319029 
L -80.600739 179.507547 
L -79.698841 198.203336 
L -84.264887 199.248481 
L -87.35828 197.135122 
L -85.294034 190.507805 
L -86.408385 183.559764 
L -89.435921 183.506558 
z
" clip-path="url(#pbbbf10868a)" style="fill: #e8edf4; stroke: #b8c5d4; stroke-width: 0.45"/>
    <path d="M -162.340866 155.409297 
L -161.502219 148.738076 
L -157.224527 143.953438 
L -156.022368 148.765423 
L -151.098761 152.833454 
L -146.454208 151.369357 
L -141.857651 151.888023 
L -137.662186 148.247129 
L -134.209374 147.615912 
L -127.397883 149.633649 
L -121.526241 148.099045 
L -117.834931 138.085331 
L -115.062635 135.581484 
L -112.568276 127.392774 
L -104.290456 127.396123 
L -98.049348 128.60963 
L -102.144726 135.112117 
L -96.852026 141.928631 
L -98.095485 145.240987 
L -90.02342 151.904022 
L -98.55462 152.753459 
L -100.955962 157.662182 
L -100.644167 164.186807 
L -107.567651 169.111158 
L -107.756663 176.281325 
L -110.533796 187.29163 
L -111.593824 184.73067 
L -119.773418 187.970286 
L -122.625709 183.569066 
L -127.759163 183.162021 
L -131.349641 180.855185 
L -139.909491 183.444423 
L -142.536307 179.959984 
L -147.252671 180.355867 
L -153.188308 179.525034 
L -154.289264 169.868693 
L -157.881975 167.867327 
L -161.338509 161.708447 
z
" clip-path="url(#pbbbf10868a)" style="fill: #e8edf4; stroke: #b8c5d4; stroke-width: 0.45"/>
    <path d="M -7.059181 165.151586 
L 2.646273 163.40732 
L 6.336838 161.060673 
L 17.895947 164.017515 
L 19.032249 166.693445 
L 21.042917 178.33813 
L 28.494741 182.64782 
L 34.511863 175.010705 
L 42.773312 170.665296 
L 49.174037 170.659342 
L 60.672126 175.745172 
L 68.401515 177.121088 
L 68.643733 224.048828 
L 62.232589 218.139607 
L 54.919919 216.691509 
L 53.146632 218.742733 
L 44.024212 218.964115 
L 47.081514 213.104752 
L 51.614074 211.105618 
L 49.73698 203.276514 
L 46.280447 197.232232 
L 32.322601 191.135116 
L 26.385103 190.533106 
L 15.57274 183.879745 
L 13.447474 187.378694 
L 10.68448 188.013446 
L 9.049975 185.373235 
L 9.027279 182.244868 
L 3.526591 178.707967 
L 11.281281 176.115009 
L 16.416223 176.254908 
L 15.812725 174.344699 
L 5.273089 174.330188 
L 2.420798 170.043566 
L -4.011553 168.714159 
z
" clip-path="url(#pbbbf10868a)" style="fill: #e8edf4; stroke: #b8c5d4; stroke-width: 0.45"/>
    <path d="M -260.690212 118.94529 
L -244.908849 120.626489 
L -238.541982 127.667734 
L -229.003216 135.544835 
L -222.181678 143.284455 
L -214.862311 143.397379 
L -208.812448 148.329357 
L -204.646749 154.358198 
L -199.163549 157.6473 
L -202.048954 163.52601 
L -197.922322 166.026323 
L -195.336061 166.21087 
L -194.115671 171.233075 
L -191.607173 175.251062 
L -186.320798 175.887675 
L -182.818128 180.444792 
L -184.626389 189.39978 
L -184.912884 200.536961 
L -192.885234 200.687649 
L -198.948864 194.668668 
L -208.193323 188.785864 
L -211.275553 184.421851 
L -216.726384 178.558395 
L -220.301979 173.161887 
L -225.777738 163.082503 
L -232.101073 157.081381 
L -236.87027 145.270753 
L -243.362897 140.737076 
L -247.126016 134.576708 
L -252.547081 130.54421 
L -260.057692 122.610368 
z
" clip-path="url(#pbbbf10868a)" style="fill: #e8edf4; stroke: #b8c5d4; stroke-width: 0.45"/>
    <path d="M -188.168499 207.730196 
L -183.228149 200.850616 
L -174.491938 201.275892 
L -168.680944 204.089488 
L -165.694708 204.638292 
L -164.710954 207.199252 
L -150.917563 207.916975 
L -149.331055 204.949342 
L -135.973359 208.411457 
L -133.352868 213.078335 
L -122.551667 214.390999 
L -113.720206 218.669807 
L -121.935518 221.413082 
L -129.853919 218.512422 
L -143.841158 218.175326 
L -150.579723 216.882754 
L -158.920796 214.132782 
L -164.205682 213.419523 
L -167.200104 214.319933 
L -180.330466 211.355277 
L -181.579506 208.25928 
z
" clip-path="url(#pbbbf10868a)" style="fill: #e8edf4; stroke: #b8c5d4; stroke-width: 0.45"/>
    <path d="M -29.523671 151.115605 
L -28.076317 145.363026 
L -25.686882 142.742907 
L -25.170076 146.674574 
L -20.919173 147.306163 
L -20.244609 150.246821 
L -20.621144 156.538902 
L -24.334778 155.833829 
L -25.430153 160.214957 
L -22.464009 164.016027 
L -24.479885 164.879974 
L -27.385383 160.319508 
z
" clip-path="url(#pbbbf10868a)" style="fill: #e8edf4; stroke: #b8c5d4; stroke-width: 0.45"/>
    <path d="M -25.927983 182.832739 
L -24.221669 178.874283 
L -15.328816 178.57551 
L -7.406323 180.675103 
L -4.78918 186.181 
L -10.868065 183.213367 
L -16.88221 182.610985 
L -20.947078 183.086491 
z
" clip-path="url(#pbbbf10868a)" style="fill: #e8edf4; stroke: #b8c5d4; stroke-width: 0.45"/>
    <path d="M -57.888079 232.127963 
L -57.239932 229.680112 
L -54.143935 225.288194 
L -47.025486 222.42809 
L -46.295856 223.84791 
L -46.162655 226.030846 
L -50.861159 231.408007 
L -57.024132 232.99191 
z
" clip-path="url(#pbbbf10868a)" style="fill: #e8edf4; stroke: #b8c5d4; stroke-width: 0.45"/>
    <path d="M -83.369314 219.202984 
L -77.651338 217.706145 
L -73.139985 219.864525 
L -68.346975 219.316466 
L -61.894532 216.678487 
L -62.949723 220.678615 
L -73.767668 222.722397 
L -83.344385 221.835009 
z
" clip-path="url(#pbbbf10868a)" style="fill: #e8edf4; stroke: #b8c5d4; stroke-width: 0.45"/>
    <path d="M -106.270986 223.437144 
L -103.797091 219.291537 
L -99.849425 219.234982 
L -97.919868 216.688905 
L -95.323561 218.60916 
L -90.875089 218.020917 
L -89.089151 221.081939 
L -102.400339 223.494443 
z
" clip-path="url(#pbbbf10868a)" style="fill: #e8edf4; stroke: #b8c5d4; stroke-width: 0.45"/>
    <path d="M 18.811984 202.625763 
L 21.597302 197.604302 
L 23.234411 199.710592 
L 23.217296 203.143685 
L 19.512964 208.045712 
z
" clip-path="url(#pbbbf10868a)" style="fill: #e8edf4; stroke: #b8c5d4; stroke-width: 0.45"/>
    <path d="M -39.678958 181.276369 
L -32.395309 180.931088 
L -30.605651 183.305268 
L -33.300556 185.695076 
L -38.276625 184.37311 
z
" clip-path="url(#pbbbf10868a)" style="fill: #e8edf4; stroke: #b8c5d4; stroke-width: 0.45"/>
    <path d="M -90.231779 227.217379 
L -83.51777 225.801651 
L -77.216387 230.181663 
L -77.647617 232.124986 
L -80.675897 232.26228 
z
" clip-path="url(#pbbbf10868a)" style="fill: #e8edf4; stroke: #b8c5d4; stroke-width: 0.45"/>
    <path d="M 252.929786 263.710779 
L 256.37553 265.924225 
L 257.544202 271.72815 
L 255.608693 270.825135 
L 254.110738 271.215437 
L 253.078987 269.227466 
z
" clip-path="url(#pbbbf10868a)" style="fill: #e8edf4; stroke: #b8c5d4; stroke-width: 0.45"/>
    <path d="M 256.896056 274.751966 
L 257.16097 272.821293 
L 261.683113 276.957598 
L 259.309304 277.904517 
z
" clip-path="url(#pbbbf10868a)" style="fill: #e8edf4; stroke: #b8c5d4; stroke-width: 0.45"/>
    <path d="M 234.213161 303.16065 
L 237.311763 303.264086 
L 241.344261 305.711936 
L 256.464082 317.951933 
L 253.728249 319.679828 
L 244.615503 314.493168 
L 239.97467 310.678703 
L 235.209566 305.602175 
z
" clip-path="url(#pbbbf10868a)" style="fill: #e8edf4; stroke: #b8c5d4; stroke-width: 0.45"/>
    <path d="M 202.608021 227.807854 
L 203.061202 224.949238 
L 207.813284 226.082192 
L 210.157327 227.59317 
L 211.336046 229.485147 
L 208.530636 229.645509 
L 204.116022 228.916996 
z
" clip-path="url(#pbbbf10868a)" style="fill: #e8edf4; stroke: #b8c5d4; stroke-width: 0.45"/>
    <path d="M 209.37598 218.304062 
L 211.824202 218.304062 
L 214.416044 224.064083 
L 217.295868 227.519872 
L 216.211656 228.847047 
L 210.875423 222.606311 
z
" clip-path="url(#pbbbf10868a)" style="fill: #e8edf4; stroke: #b8c5d4; stroke-width: 0.45"/>
    <path d="M 192.320277 211.83748 
L 193.391839 211.10413 
L 202.608021 216.144194 
L 204.300197 218.428706 
L 204.605294 219.875687 
L 198.962476 216.822106 
z
" clip-path="url(#pbbbf10868a)" style="fill: #e8edf4; stroke: #b8c5d4; stroke-width: 0.45"/>
    <path d="M 179.937777 207.114792 
L 180.308359 205.915237 
L 187.476665 211.304303 
L 186.043823 211.714325 
L 182.894619 210.073495 
z
" clip-path="url(#pbbbf10868a)" style="fill: #e8edf4; stroke: #b8c5d4; stroke-width: 0.45"/>
    <path d="M 214.702538 231.874211 
L 220.456978 233.875577 
L 222.47025 236.349844 
L 217.440232 236.30408 
z
" clip-path="url(#pbbbf10868a)" style="fill: #e8edf4; stroke: #b8c5d4; stroke-width: 0.45"/>
    <path d="M 296.17924 407.009567 
L 298.850704 406.444764 
L 302.769349 410.44452 
L 308.371612 412.311569 
L 310.406464 418.726061 
L 315.623634 426.305506 
L 315.774695 421.388596 
L 319.023985 423.352383 
L 320.101128 428.798749 
L 325.895007 431.145024 
L 330.759454 431.720989 
L 334.874552 428.974738 
L 338.523073 429.806687 
L 336.778064 436.196251 
L 334.587314 440.397669 
L 329.090347 440.249585 
L 327.16786 442.438102 
L 327.837214 445.535588 
L 320.48957 455.685294 
L 314.924886 458.555816 
L 313.688868 456.666443 
L 310.687005 455.629111 
L 314.838938 449.706496 
L 312.481128 445.744319 
L 304.733136 442.863751 
L 304.936286 440.255538 
L 310.138573 437.743319 
L 311.353011 432.200216 
L 311.01852 427.544128 
L 308.102605 422.719864 
L 308.296825 421.450732 
L 304.855175 418.478262 
L 299.190032 412.107302 
z
" clip-path="url(#pbbbf10868a)" style="fill: #e8edf4; stroke: #b8c5d4; stroke-width: 0.45"/>
    <path d="M 252.065839 488.539474 
L 255.934254 483.198777 
L 264.987097 476.092606 
L 269.635743 474.737898 
L 280.979423 468.228156 
L 285.300648 464.491826 
L 288.501941 459.125456 
L 291.230704 457.3038 
L 292.300034 453.283952 
L 297.349773 449.956527 
L 300.580087 455.990391 
L 305.700519 453.072244 
L 307.782624 456.113919 
L 307.789322 459.144059 
L 300.403726 467.784276 
L 296.720974 470.680471 
L 299.376812 474.144074 
L 293.821802 474.232999 
L 287.661062 476.946135 
L 285.732993 481.65915 
L 281.64022 488.944287 
L 272.392784 494.216895 
L 265.761747 494.063602 
L 261.098962 491.689422 
L 253.273579 491.183406 
z
" clip-path="url(#pbbbf10868a)" style="fill: #e8edf4; stroke: #b8c5d4; stroke-width: 0.45"/>
    <path d="M -130.759538 346.439125 
L -127.595824 349.552981 
L -130.025071 342.873203 
L -126.454312 344.960889 
L -124.323466 347.748812 
L -124.443644 344.061223 
L -130.366632 333.970304 
L -129.585284 329.805721 
L -128.109653 328.03355 
L -127.127387 324.43191 
L -127.896829 320.223423 
L -124.921755 315.042343 
L -124.377788 320.525916 
L -121.336113 315.572544 
L -115.486796 313.165249 
L -111.978917 310.094552 
L -106.476369 307.452109 
L -103.202522 306.889911 
L -101.220876 307.777671 
L -95.547176 305.0943 
L -91.180186 304.295837 
L -90.087788 302.718258 
L -88.182044 302.061182 
L -84.20238 302.230846 
L -76.635214 300.122696 
L -72.721034 296.92624 
L -70.883007 293.078289 
L -66.660009 289.42307 
L -66.14804 282.635763 
L -61.109464 276.517439 
L -58.076719 282.733618 
L -55.012719 281.297054 
L -57.576656 277.894843 
L -55.317073 274.401475 
L -52.140337 275.961194 
L -51.265971 270.482831 
L -47.3317 266.940721 
L -45.59562 264.098848 
L -41.975376 262.872505 
L -41.862266 260.86072 
L -38.698925 261.700855 
L -38.571677 259.891105 
L -31.925757 257.889367 
L -26.606639 261.193723 
L -22.610232 265.458021 
L -13.525391 266.182442 
L -15.05088 262.228823 
L -11.601788 256.454664 
L -8.355846 254.573104 
L -9.478755 252.774144 
L -6.351876 248.662023 
L -1.99084 246.122271 
L 1.692656 246.977661 
L 7.742148 245.621092 
L 7.611923 241.941689 
L 2.337826 239.571229 
L 6.172011 238.52534 
L 10.940836 240.310161 
L 14.766091 243.262911 
L 20.830093 245.105031 
L 22.886154 244.376517 
L 27.349137 246.589964 
L 31.555392 244.528322 
L 34.260343 245.15526 
L 35.945822 243.771903 
L 39.251666 247.334104 
L 37.3329 251.188008 
L 34.598927 254.096854 
L 32.124659 254.336467 
L 32.958841 257.214803 
L 28.286382 264.351112 
L 28.801327 266.383732 
L 34.525257 270.361908 
L 40.070593 272.669488 
L 48.983165 279.414751 
L 51.013181 279.407681 
L 54.781509 281.25129 
L 55.87614 283.475526 
L 62.749767 285.917796 
L 67.503337 283.457295 
L 70.373488 276.399865 
L 73.455718 266.723432 
L 72.456337 263.241598 
L 72.975747 261.146842 
L 72.143054 257.026164 
L 73.086624 251.601751 
L 74.467377 250.139142 
L 73.346329 247.734824 
L 76.453116 239.961903 
L 76.634687 237.907703 
L 79.309872 235.210937 
L 81.340632 238.732955 
L 81.840695 243.249888 
L 83.634818 244.120533 
L 83.942148 247.14472 
L 86.55929 250.807381 
L 87.099536 254.883039 
L 86.84504 257.498321 
L 89.439115 263.147837 
L 94.05874 260.432467 
L 96.443338 263.480095 
L 99.898011 266.291831 
L 99.158335 269.483078 
L 100.693869 275.656841 
L 101.78664 279.251412 
L 103.600111 280.12987 
L 105.554224 286.283913 
L 104.858452 290.016522 
L 107.189845 294.899573 
L 114.991787 298.661204 
L 124.908577 305.216711 
L 123.965751 306.960976 
L 128.083825 311.475677 
L 130.884027 319.266086 
L 133.757154 317.684043 
L 136.677161 320.804224 
L 138.43631 319.697315 
L 139.676792 327.328105 
L 148.129486 334.496784 
L 153.757421 340.326009 
L 155.780367 346.112447 
L 155.468945 354.674157 
L 158.900177 360.792481 
L 158.487179 367.164557 
L 155.298536 376.921729 
L 155.445132 381.050221 
L 154.019359 386.211209 
L 150.840018 392.760018 
L 145.505646 396.297663 
L 142.876597 401.875369 
L 140.475999 405.434593 
L 138.341804 411.648912 
L 135.563183 415.23753 
L 133.741527 420.62548 
L 132.812095 425.585177 
L 133.180445 427.861876 
L 129.051952 430.363304 
L 120.993282 430.625242 
L 114.348478 433.578364 
L 106.689038 439.457447 
L 100.725495 436.27513 
L 96.31423 435.005626 
L 97.431929 431.252552 
L 93.496913 432.61433 
L 87.19181 437.828151 
L 65.797767 432.139196 
L 61.143539 427.701141 
L 59.807435 422.23394 
L 58.133863 418.596209 
L 54.596218 415.675829 
L 47.669385 414.808533 
L 50.036124 411.316281 
L 48.294463 405.970003 
L 44.778027 410.95314 
L 38.37172 412.27585 
L 42.137072 408.292838 
L 43.227982 404.137928 
L 46.008835 400.611446 
L 45.434359 395.28005 
L 39.577228 401.419955 
L 35.078898 403.882316 
L 32.321113 409.60885 
L 26.69913 406.646426 
L 26.922372 402.825264 
L 22.416601 397.604002 
L 18.618507 394.90612 
L 19.972099 393.244082 
L 10.733593 388.880813 
L 5.674181 388.675058 
L -1.25042 385.169784 
L -14.142284 385.851045 
L -31.659354 390.832322 
L -38.52926 390.354956 
L -46.161911 394.047009 
L -52.404135 395.708303 
L -53.791585 399.483701 
L -56.450399 402.40929 
L -67.081936 403.224496 
L -73.445827 401.91146 
L -83.565395 403.027671 
L -87.847925 406.867436 
L -89.947145 406.541875 
L -97.020202 410.866076 
L -107.099215 410.580698 
L -114.736702 405.982281 
L -118.606977 404.614923 
L -118.449964 400.488663 
L -114.875112 399.508258 
L -113.654349 397.868916 
L -113.908473 395.282655 
L -113.028155 390.276449 
L -113.834803 386.009547 
L -117.641455 378.731479 
L -118.82129 374.621218 
L -118.511727 370.519887 
L -121.377785 365.833662 
L -121.561216 363.71807 
L -124.75023 360.850152 
L -125.648036 355.21031 
L -129.762017 349.510565 
z
" clip-path="url(#pbbbf10868a)" style="fill: #e8edf4; stroke: #b8c5d4; stroke-width: 0.45"/>
    <path d="M 95.170114 454.770373 
L 95.355032 451.468621 
L 100.065443 452.106349 
L 107.021669 454.591407 
L 116.562668 452.219459 
L 120.881288 452.70315 
L 121.391025 461.249605 
L 118.924571 463.73057 
L 118.181174 469.522961 
L 115.664863 467.55136 
L 110.66647 472.5691 
L 104.74832 471.958161 
L 100.309893 465.795188 
L 99.324651 461.04199 
z
" clip-path="url(#pbbbf10868a)" style="fill: #e8edf4; stroke: #b8c5d4; stroke-width: 0.45"/>
   </g>
   <g id="PathCollection_1">
    <defs>
     <path id="m3e4bca93bc" d="M 0 2.12132 
C 0.562581 2.12132 1.102195 1.897805 1.5 1.5 
C 1.897805 1.102195 2.12132 0.562581 2.12132 0 
C 2.12132 -0.562581 1.897805 -1.102195 1.5 -1.5 
C 1.102195 -1.897805 0.562581 -2.12132 0 -2.12132 
C -0.562581 -2.12132 -1.102195 -1.897805 -1.5 -1.5 
C -1.897805 -1.102195 -2.12132 -0.562581 -2.12132 0 
C -2.12132 0.562581 -1.897805 1.102195 -1.5 1.5 
C -1.102195 1.897805 -0.562581 2.12132 0 2.12132 
z
" style="stroke: #ffffff; stroke-width: 0.5"/>
    </defs>
    <g clip-path="url(#pbbbf10868a)">
     <use xlink:href="#m3e4bca93bc" x="192.6" y="108.6" style="fill: #8aa0b7; stroke: #ffffff; stroke-width: 0.5"/>
     <use xlink:href="#m3e4bca93bc" x="95.64" y="61.44" style="fill: #8aa0b7; stroke: #ffffff; stroke-width: 0.5"/>
     <use xlink:href="#m3e4bca93bc" x="298.8" y="148.2" style="fill: #8aa0b7; stroke: #ffffff; stroke-width: 0.5"/>
     <use xlink:href="#m3e4bca93bc" x="262.8" y="93.6" style="fill: #8aa0b7; stroke: #ffffff; stroke-width: 0.5"/>
     <use xlink:href="#m3e4bca93bc" x="102.6" y="48.96" style="fill: #8aa0b7; stroke: #ffffff; stroke-width: 0.5"/>
     <use xlink:href="#m3e4bca93bc" x="262.44" y="367.44" style="fill: #8aa0b7; stroke: #ffffff; stroke-width: 0.5"/>
     <use xlink:href="#m3e4bca93bc" x="255" y="162.24" style="fill: #8aa0b7; stroke: #ffffff; stroke-width: 0.5"/>
     <use xlink:href="#m3e4bca93bc" x="21.6" y="104.4" style="fill: #8aa0b7; stroke: #ffffff; stroke-width: 0.5"/>
     <use xlink:href="#m3e4bca93bc" x="334.8" y="216" style="fill: #8aa0b7; stroke: #ffffff; stroke-width: 0.5"/>
     <use xlink:href="#m3e4bca93bc" x="252.72" y="19.56024" style="fill: #8aa0b7; stroke: #ffffff; stroke-width: 0.5"/>
     <use xlink:href="#m3e4bca93bc" x="255.6" y="273.6" style="fill: #8aa0b7; stroke: #ffffff; stroke-width: 0.5"/>
    </g>
   </g>
   <g id="PatchCollection_2">
    <path d="M 202.608021 227.807854 
L 203.061202 224.949238 
L 207.813284 226.082192 
L 210.157327 227.59317 
L 211.336046 229.485147 
L 208.530636 229.645509 
L 204.116022 228.916996 
z
" clip-path="url(#pbbbf10868a)" style="fill: #f59e0b; stroke: #b45309; stroke-width: 1.15"/>
    <path d="M 209.37598 218.304062 
L 211.824202 218.304062 
L 214.416044 224.064083 
L 217.295868 227.519872 
L 216.211656 228.847047 
L 210.875423 222.606311 
z
" clip-path="url(#pbbbf10868a)" style="fill: #f59e0b; stroke: #b45309; stroke-width: 1.15"/>
    <path d="M 192.320277 211.83748 
L 193.391839 211.10413 
L 202.608021 216.144194 
L 204.300197 218.428706 
L 204.605294 219.875687 
L 198.962476 216.822106 
z
" clip-path="url(#pbbbf10868a)" style="fill: #f59e0b; stroke: #b45309; stroke-width: 1.15"/>
    <path d="M 179.937777 207.114792 
L 180.308359 205.915237 
L 187.476665 211.304303 
L 186.043823 211.714325 
L 182.894619 210.073495 
z
" clip-path="url(#pbbbf10868a)" style="fill: #f59e0b; stroke: #b45309; stroke-width: 1.15"/>
    <path d="M 214.702538 231.874211 
L 220.456978 233.875577 
L 222.47025 236.349844 
L 217.440232 236.30408 
z
" clip-path="url(#pbbbf10868a)" style="fill: #f59e0b; stroke: #b45309; stroke-width: 1.15"/>
   </g>
   <g id="PathCollection_2">
    <defs>
     <path id="me136900451" d="M 0 3.316625 
C 0.879579 3.316625 1.723251 2.967164 2.345208 2.345208 
C 2.967164 1.723251 3.316625 0.879579 3.316625 0 
C 3.316625 -0.879579 2.967164 -1.723251 2.345208 -2.345208 
C 1.723251 -2.967164 0.879579 -3.316625 0 -3.316625 
C -0.879579 -3.316625 -1.723251 -2.967164 -2.345208 -2.345208 
C -2.967164 -1.723251 -3.316625 -0.879579 -3.316625 0 
C -3.316625 0.879579 -2.967164 1.723251 -2.345208 2.345208 
C -1.723251 2.967164 -0.879579 3.316625 0 3.316625 
z
" style="stroke: #ffffff"/>
    </defs>
    <g clip-path="url(#pbbbf10868a)">
     <use xlink:href="#me136900451" x="198" y="216" style="fill: #f97316; stroke: #ffffff"/>
    </g>
   </g>
   <g id="PathCollection_3">
    <path d="M 198 220.449719 
C 199.180079 220.449719 200.311984 219.980869 201.146427 219.146427 
C 201.980869 218.311984 202.449719 217.180079 202.449719 216 
C 202.449719 214.819921 201.980869 213.688016 201.146427 212.853573 
C 200.311984 212.019131 199.180079 211.550281 198 211.550281 
C 196.819921 211.550281 195.688016 212.019131 194.853573 212.853573 
C 194.019131 213.688016 193.550281 214.819921 193.550281 216 
C 193.550281 217.180079 194.019131 218.311984 194.853573 219.146427 
C 195.688016 219.980869 196.819921 220.449719 198 220.449719 
L 198 220.449719 
z
" clip-path="url(#pbbbf10868a)" style="fill: none; stroke: #7c2d12; stroke-width: 1.1"/>
   </g>
  </g>
 </g>
 <defs>
  <clipPath id="pbbbf10868a">
   <rect x="0" y="0" width="349.2" height="432"/>
  </clipPath>
 </defs>
</svg>
