<?xml version="1.0" encoding="utf-8" standalone="no"?>
<!DOCTYPE svg PUBLIC "-//W3C//DTD SVG 1.1//EN"
  "http://www.w3.org/Graphics/SVG/1.1/DTD/svg11.dtd">
<svg xmlns:xlink="http://www.w3.org/1999/xlink" width="576pt" height="384pt" viewBox="0 0 576 384" xmlns="http://www.w3.org/2000/svg" version="1.1">
 <metadata>
  <rdf:RDF xmlns:dc="http://purl.org/dc/elements/1.1/" xmlns:cc="http://creativecommons.org/ns#" xmlns:rdf="http://www.w3.org/1999/02/22-rdf-syntax-ns#">
   <cc:Work>
    <dc:type rdf:resource="http://purl.org/dc/dcmitype/StillImage"/>
    <dc:date>2026-06-09T04:56:55.822374</dc:date>
    <dc:format>image/svg+xml</dc:format>
    <dc:creator>
     <cc:Agent>
      <dc:title>Matplotlib v3.10.8, https://matplotlib.org/</dc:title>
     </cc:Agent>
    </dc:creator>
   </cc:Work>
  </rdf:RDF>
 </metadata>
 <defs>
  <style type="text/css">*{stroke-linejoin: round; stroke-linecap: butt}</style>
 </defs>
 <g id="figure_1">
  <g id="patch_1">
   <path d="M 0 384 
L 576 384 
L 576 0 
L 0 0 
z
" style="fill: #eaf3ff"/>
  </g>
  <g id="axes_1">
   <g id="PatchCollection_1">
    <path d="M 71.205754 190.223041 
L 72.897434 184.033775 
L 105.057208 188.24065 
L 111.970274 183.966307 
L 103.200329 175.648799 
L 103.345188 168.315045 
L 91.231571 165.320623 
L 95.55602 160.018869 
L 123.922661 163.882447 
L 125.602434 174.339111 
L 124.134989 181.719994 
L 119.453848 184.955517 
L 124.395438 190.720127 
L 124.000547 195.936057 
L 111.248458 192.672752 
L 102.187305 194.004267 
L 90.472547 192.616197 
L 81.489282 196.204939 
z
" clip-path="url(#p6b0a0d14c5)" style="fill: #e8edf4; stroke: #b8c5d4; stroke-width: 0.45"/>
    <path d="M 119.453848 184.955517 
L 124.134989 181.719994 
L 125.602434 174.339111 
L 123.922661 163.882447 
L 126.323754 160.609717 
L 141.311243 160.698517 
L 152.684192 165.640603 
L 157.744348 165.1584 
L 161.230399 171.969271 
L 171.735184 171.586287 
L 171.116555 177.308232 
L 179.65929 178.001771 
L 189.095489 185.045807 
L 181.965133 192.861267 
L 172.83304 188.68515 
L 157.703668 188.576506 
L 154.241926 192.078432 
L 146.870965 193.261615 
L 143.949469 188.603791 
L 137.600958 191.360088 
L 129.915969 204.507564 
L 124.972891 201.454603 
L 124.395438 190.720127 
z
" clip-path="url(#p6b0a0d14c5)" style="fill: #e8edf4; stroke: #b8c5d4; stroke-width: 0.45"/>
    <path d="M -4.642816 70.547712 
L -0.464704 58.36224 
L 5.312 59.136 
L 12.032 75.072 
L 12.134528 86.2128 
L 7.424 87.168 
L 2.54624 76.10592 
z
" clip-path="url(#p6b0a0d14c5)" style="fill: #e8edf4; stroke: #b8c5d4; stroke-width: 0.45"/>
    <path d="M 7.232 23.232 
L 22.4 31.872 
L 19.08704 45.519744 
L 15.556928 43.05888 
L 15.872 33.024 
L 7.270016 25.436928 
z
" clip-path="url(#p6b0a0d14c5)" style="fill: #e8edf4; stroke: #b8c5d4; stroke-width: 0.45"/>
    <path d="M -15.616 28.032 
L -6.592 26.496 
L 6.08 27.072 
L 6.656 32.064 
L -14.272 35.136 
z
" clip-path="url(#p6b0a0d14c5)" style="fill: #e8edf4; stroke: #b8c5d4; stroke-width: 0.45"/>
    <path d="M -15.825957 509.925697 
L -8.662363 508.485041 
L -9.512667 498.866775 
L -5.010121 491.912533 
L 4.514383 490.62517 
L 19.948356 468.486986 
L 12.871579 463.917963 
L 16.494055 452.774705 
L 12.162165 435.21001 
L 16.278751 430.169201 
L 13.248114 413.930564 
L 5.473829 403.703592 
L 7.934454 394.371076 
L 14.122727 395.749224 
L 17.742723 390.042658 
L 13.285321 378.733705 
L 15.615473 375.92631 
L 25.53586 376.53601 
L 39.94143 363.133045 
L 47.847676 361.089635 
L 51.575821 338.515385 
L 62.587614 329.605541 
L 74.686348 329.240912 
L 76.213325 325.238924 
L 91.236532 326.841307 
L 113.826657 312.853447 
L 123.121469 303.603779 
L 129.923411 304.780017 
L 134.960747 309.830748 
L 131.233594 316.295346 
L 118.900704 319.513506 
L 114.030551 329.11292 
L 106.598571 334.618072 
L 101.018508 341.753389 
L 98.670001 355.45401 
L 93.34493 366.681603 
L 103.256387 367.967478 
L 105.718501 376.794474 
L 109.954645 381.018713 
L 111.470708 388.749342 
L 109.190165 395.855885 
L 109.865844 399.86333 
L 114.591633 401.463728 
L 119.164626 408.160994 
L 143.854715 406.314533 
L 155.008391 408.760771 
L 168.521985 425.282678 
L 176.281883 423.229346 
L 190.110993 424.257252 
L 201.054325 422.067494 
L 207.84436 425.367014 
L 204.386586 435.708088 
L 200.101825 442.15433 
L 198.598165 455.924404 
L 202.460751 468.681951 
L 207.918774 474.387029 
L 208.579075 478.685682 
L 198.849188 488.243424 
L 205.815833 492.474607 
L 210.919149 499.187748 
L 216.774543 518.335478 
L 213.151075 520.701846 
L 209.408047 509.376025 
L 204.074047 503.286474 
L 197.723551 509.904861 
L 160.314114 509.47574 
L 160.551743 521.489642 
L 171.802157 523.47501 
L 171.153266 530.829103 
L 167.313997 528.841752 
L 156.501137 532.004846 
L 156.403407 545.955002 
L 164.920344 552.959846 
L 167.926672 563.954275 
L 158.842204 624.925189 
L 149.234356 614.718557 
L 143.500504 614.263142 
L 155.883997 594.723002 
L 141.181266 585.731799 
L 129.658001 587.381807 
L 122.724594 584.059963 
L 112.144899 589.136986 
L 97.848469 586.731924 
L 86.537532 566.601432 
L 77.650012 561.654385 
L 71.52127 552.591744 
L 58.752809 543.498346 
L 53.634114 545.31901 
L 35.987563 534.411892 
L 30.533508 537.466838 
L 14.240301 534.802814 
L 9.562633 526.542853 
L 5.982821 526.849439 
L -13.220968 515.886264 
z
" clip-path="url(#p6b0a0d14c5)" style="fill: #e8edf4; stroke: #b8c5d4; stroke-width: 0.45"/>
    <path d="M -92.143035 384.479463 
L -89.531597 376.775127 
L -90.278218 373.300486 
L -87.408316 371.026392 
L -91.401374 368.172861 
L -91.511507 360.445209 
L -84.086968 358.730213 
L -77.192753 365.616986 
L -77.58566 369.684955 
L -69.924484 370.548158 
L -68.111757 368.986455 
L -62.834312 373.704307 
L -53.388191 372.316732 
L -45.220503 367.467416 
L -33.560316 363.594908 
L -27.007414 357.857088 
L -16.406882 358.983717 
L -17.122249 360.872346 
L -6.417042 361.527189 
L 2.126188 364.843576 
L 15.615473 375.92631 
L 13.285321 378.733705 
L 17.742723 390.042658 
L 14.122727 395.749224 
L 7.934454 394.371076 
L 5.473829 403.703592 
L -0.926773 398.164705 
L -5.039886 387.80081 
L -0.296238 382.671697 
L -5.160933 381.356057 
L -8.744714 375.01201 
L -18.309898 369.675033 
L -26.711246 370.8984 
L -30.603101 377.57731 
L -38.358039 382.400334 
L -42.547054 383.070557 
L -44.429234 387.066096 
L -35.270847 397.487537 
L -43.286234 402.785818 
L -52.218898 403.765603 
L -55.543222 392.295916 
L -58.042542 395.560213 
L -64.374683 394.433088 
L -68.249175 386.707916 
L -81.105941 383.186642 
L -89.345562 383.215416 
L -89.938394 387.382603 
z
" clip-path="url(#p6b0a0d14c5)" style="fill: #e8edf4; stroke: #b8c5d4; stroke-width: 0.45"/>
    <path d="M 93.34493 366.681603 
L 98.670001 355.45401 
L 101.018508 341.753389 
L 106.598571 334.618072 
L 114.030551 329.11292 
L 118.900704 319.513506 
L 131.233594 316.295346 
L 130.687891 320.832123 
L 119.416641 323.072978 
L 125.679329 331.786369 
L 125.445172 341.827307 
L 116.97586 352.979494 
L 124.243633 368.212549 
L 132.520461 366.965865 
L 136.832012 353.088139 
L 130.878391 346.330846 
L 129.908032 331.795795 
L 153.818262 323.990752 
L 151.158208 314.94101 
L 157.889704 308.883705 
L 164.781438 322.375471 
L 178.246415 322.687017 
L 190.721188 333.393713 
L 191.47277 339.750658 
L 208.712028 339.91933 
L 229.225008 337.946365 
L 240.219438 346.544662 
L 254.903317 348.917478 
L 265.674008 342.919705 
L 265.894274 338.084775 
L 312.685836 336.659994 
L 296.381715 342.330842 
L 302.940571 351.394474 
L 318.295665 352.837115 
L 332.852543 362.278275 
L 335.911954 377.660654 
L 345.918165 377.227068 
L 353.44093 381.752932 
L 338.228711 393.031623 
L 336.550922 400.032002 
L 343.123172 407.1569 
L 338.355215 410.75358 
L 326.540743 413.835314 
L 326.923231 422.701502 
L 321.722184 427.985892 
L 334.715376 442.554678 
L 337.25736 447.972517 
L 330.235649 455.299822 
L 308.759751 462.487228 
L 294.952965 465.466271 
L 289.410606 470.005033 
L 274.143817 465.205822 
L 259.929739 462.749166 
L 256.331571 464.516252 
L 264.924907 469.49356 
L 264.150504 482.365705 
L 266.816016 494.457494 
L 283.080946 496.107502 
L 284.11927 500.142728 
L 270.404758 505.605713 
L 268.173329 513.737185 
L 245.989504 521.37058 
L 242.273266 527.246314 
L 227.345309 528.490517 
L 216.774543 518.335478 
L 210.919149 499.187748 
L 205.815833 492.474607 
L 198.849188 488.243424 
L 208.579075 478.685682 
L 207.918774 474.387029 
L 202.460751 468.681951 
L 198.598165 455.924404 
L 200.101825 442.15433 
L 204.386586 435.708088 
L 207.84436 425.367014 
L 201.054325 422.067494 
L 190.110993 424.257252 
L 176.281883 423.229346 
L 168.521985 425.282678 
L 155.008391 408.760771 
L 143.854715 406.314533 
L 119.164626 408.160994 
L 114.591633 401.463728 
L 109.865844 399.86333 
L 109.190165 395.855885 
L 111.470708 388.749342 
L 109.954645 381.018713 
L 105.718501 376.794474 
L 103.256387 367.967478 
z
" clip-path="url(#p6b0a0d14c5)" style="fill: #e8edf4; stroke: #b8c5d4; stroke-width: 0.45"/>
    <path d="M 321.722184 427.985892 
L 326.923231 422.701502 
L 326.540743 413.835314 
L 338.355215 410.75358 
L 343.123172 407.1569 
L 336.550922 400.032002 
L 338.228711 393.031623 
L 353.44093 381.752932 
L 366.047665 388.815322 
L 377.927126 401.324326 
L 378.466379 411.210482 
L 385.700418 411.6654 
L 403.569219 427.715521 
L 400.500879 444.987521 
L 388.845653 449.997572 
L 389.883977 454.52542 
L 386.341868 464.43142 
L 394.849876 478.374631 
L 400.996477 478.396955 
L 403.518122 489.236603 
L 415.243793 505.929166 
L 410.572079 506.616752 
L 399.9522 504.988076 
L 393.709356 510.094369 
L 378.95404 514.292314 
L 376.831751 518.052705 
L 367.407458 517.100205 
L 355.595961 508.091639 
L 354.203922 499.207096 
L 349.289122 489.499533 
L 352.344067 473.155228 
L 357.669633 466.39099 
L 353.265809 457.468744 
L 346.668754 454.560642 
L 349.165594 446.130025 
L 344.697278 441.705861 
L 334.715376 442.554678 
z
" clip-path="url(#p6b0a0d14c5)" style="fill: #e8edf4; stroke: #b8c5d4; stroke-width: 0.45"/>
    <path d="M 209.745391 189.610365 
L 212.466961 186.804459 
L 228.177258 186.916576 
L 237.990985 188.60776 
L 241.452727 192.421728 
L 236.534454 197.262611 
L 210.864083 197.826174 
z
" clip-path="url(#p6b0a0d14c5)" style="fill: #e8edf4; stroke: #b8c5d4; stroke-width: 0.45"/>
    <path d="M -3.28421 192.461416 
L -0.980351 188.072971 
L 11.463665 187.381912 
L 24.384922 189.103357 
L 34.585106 193.714549 
L 37.766555 198.97215 
L 24.270821 199.329834 
L 18.438247 202.538568 
L 7.69236 199.45733 
z
" clip-path="url(#p6b0a0d14c5)" style="fill: #e8edf4; stroke: #b8c5d4; stroke-width: 0.45"/>
    <path d="M -130.718292 121.99626 
L -120.583593 116.064963 
L -116.422855 109.13751 
L -107.742207 104.868127 
L -97.936914 101.125596 
L -83.400374 99.288064 
L -78.748503 97.178674 
L -47.080359 98.765182 
L -29.046855 105.306178 
L -21.404531 112.33533 
L -3.470742 110.166408 
L 31.542563 135.229064 
L 37.863293 134.965142 
L 49.314129 138.88081 
L 47.915641 144.286248 
L 62.069196 145.077021 
L 76.581922 152.935146 
L 74.304356 157.432732 
L 61.537383 159.870041 
L 48.614141 160.823533 
L 35.385801 159.304494 
L 7.894766 161.174767 
L 20.765918 150.463607 
L 12.941032 145.476377 
L 0.563989 144.192982 
L -6.070273 138.650623 
L -10.621437 127.716221 
L -21.471999 128.463834 
L -39.375527 123.315373 
L -45.136664 119.288084 
L -70.162113 116.312514 
L -76.863843 112.567502 
L -69.664035 107.770275 
L -88.497242 106.787514 
L -102.293609 116.764455 
L -110.248968 117.032346 
L -113.001296 121.716959 
L -122.50298 123.816428 
z
" clip-path="url(#p6b0a0d14c5)" style="fill: #e8edf4; stroke: #b8c5d4; stroke-width: 0.45"/>
    <path d="M 311.36 348.672 
L 316.928 343.392 
L 316.544 335.808 
L 327.584 333.312 
L 331.616 333.984 
L 330.848 348.288 
L 314.816 350.4 
z
" clip-path="url(#p6b0a0d14c5)" style="fill: #e8edf4; stroke: #b8c5d4; stroke-width: 0.45"/>
   </g>
   <g id="PathCollection_1">
    <defs>
     <path id="m3eb1e5901a" d="M 0 2.12132 
C 0.562581 2.12132 1.102195 1.897805 1.5 1.5 
C 1.897805 1.102195 2.12132 0.562581 2.12132 0 
C 2.12132 -0.562581 1.897805 -1.102195 1.5 -1.5 
C 1.102195 -1.897805 0.562581 -2.12132 0 -2.12132 
C -0.562581 -2.12132 -1.102195 -1.897805 -1.5 -1.5 
C -1.897805 -1.102195 -2.12132 -0.562581 -2.12132 0 
C -2.12132 0.562581 -1.897805 1.102195 -1.5 1.5 
C -1.102195 1.897805 -0.562581 2.12132 0 2.12132 
z
" style="stroke: #ffffff; stroke-width: 0.5"/>
    </defs>
    <g clip-path="url(#p6b0a0d14c5)">
     <use xlink:href="#m3eb1e5901a" x="314.24" y="215.04" style="fill: #8aa0b7; stroke: #ffffff; stroke-width: 0.5"/>
     <use xlink:href="#m3eb1e5901a" x="288" y="192" style="fill: #8aa0b7; stroke: #ffffff; stroke-width: 0.5"/>
     <use xlink:href="#m3eb1e5901a" x="157.44" y="302.4" style="fill: #8aa0b7; stroke: #ffffff; stroke-width: 0.5"/>
     <use xlink:href="#m3eb1e5901a" x="357.76" y="289.6" style="fill: #8aa0b7; stroke: #ffffff; stroke-width: 0.5"/>
     <use xlink:href="#m3eb1e5901a" x="294.40064" y="198.72" style="fill: #8aa0b7; stroke: #ffffff; stroke-width: 0.5"/>
     <use xlink:href="#m3eb1e5901a" x="190.6208" y="308.57472" style="fill: #8aa0b7; stroke: #ffffff; stroke-width: 0.5"/>
     <use xlink:href="#m3eb1e5901a" x="41.6" y="76.8" style="fill: #8aa0b7; stroke: #ffffff; stroke-width: 0.5"/>
     <use xlink:href="#m3eb1e5901a" x="176.192" y="308.74368" style="fill: #8aa0b7; stroke: #ffffff; stroke-width: 0.5"/>
     <use xlink:href="#m3eb1e5901a" x="323.2" y="246.4" style="fill: #8aa0b7; stroke: #ffffff; stroke-width: 0.5"/>
     <use xlink:href="#m3eb1e5901a" x="316.8" y="309.76" style="fill: #8aa0b7; stroke: #ffffff; stroke-width: 0.5"/>
     <use xlink:href="#m3eb1e5901a" x="318.400006" y="230.4" style="fill: #8aa0b7; stroke: #ffffff; stroke-width: 0.5"/>
     <use xlink:href="#m3eb1e5901a" x="110.4" y="177.6" style="fill: #8aa0b7; stroke: #ffffff; stroke-width: 0.5"/>
     <use xlink:href="#m3eb1e5901a" x="12.8" y="192" style="fill: #8aa0b7; stroke: #ffffff; stroke-width: 0.5"/>
     <use xlink:href="#m3eb1e5901a" x="296" y="209.6" style="fill: #8aa0b7; stroke: #ffffff; stroke-width: 0.5"/>
     <use xlink:href="#m3eb1e5901a" x="330.24" y="275.84" style="fill: #8aa0b7; stroke: #ffffff; stroke-width: 0.5"/>
     <use xlink:href="#m3eb1e5901a" x="290.23808" y="195.44064" style="fill: #8aa0b7; stroke: #ffffff; stroke-width: 0.5"/>
     <use xlink:href="#m3eb1e5901a" x="329.6" y="260.799994" style="fill: #8aa0b7; stroke: #ffffff; stroke-width: 0.5"/>
     <use xlink:href="#m3eb1e5901a" x="306.56" y="220.8" style="fill: #8aa0b7; stroke: #ffffff; stroke-width: 0.5"/>
     <use xlink:href="#m3eb1e5901a" x="224" y="192" style="fill: #8aa0b7; stroke: #ffffff; stroke-width: 0.5"/>
     <use xlink:href="#m3eb1e5901a" x="290.14784" y="195.984" style="fill: #8aa0b7; stroke: #ffffff; stroke-width: 0.5"/>
     <use xlink:href="#m3eb1e5901a" x="122.28032" y="125.8752" style="fill: #8aa0b7; stroke: #ffffff; stroke-width: 0.5"/>
     <use xlink:href="#m3eb1e5901a" x="329.6" y="331.2" style="fill: #8aa0b7; stroke: #ffffff; stroke-width: 0.5"/>
     <use xlink:href="#m3eb1e5901a" x="325.76" y="288" style="fill: #8aa0b7; stroke: #ffffff; stroke-width: 0.5"/>
     <use xlink:href="#m3eb1e5901a" x="259.712" y="188.72256" style="fill: #8aa0b7; stroke: #ffffff; stroke-width: 0.5"/>
     <use xlink:href="#m3eb1e5901a" x="254.79104" y="190.35264" style="fill: #8aa0b7; stroke: #ffffff; stroke-width: 0.5"/>
    </g>
   </g>
   <g id="PathCollection_2">
    <defs>
     <path id="mfa47044122" d="M 0 3.674235 
C 0.974418 3.674235 1.909058 3.287094 2.598076 2.598076 
C 3.287094 1.909058 3.674235 0.974418 3.674235 0 
C 3.674235 -0.974418 3.287094 -1.909058 2.598076 -2.598076 
C 1.909058 -3.287094 0.974418 -3.674235 0 -3.674235 
C -0.974418 -3.674235 -1.909058 -3.287094 -2.598076 -2.598076 
C -3.287094 -1.909058 -3.674235 -0.974418 -3.674235 0 
C -3.674235 0.974418 -3.287094 1.909058 -2.598076 2.598076 
C -1.909058 3.287094 -0.974418 3.674235 0 3.674235 
z
" style="stroke: #ffffff; stroke-width: 1.2"/>
    </defs>
    <g clip-path="url(#p6b0a0d14c5)">
     <use xlink:href="#mfa47044122" x="288" y="192" style="fill: #f97316; stroke: #ffffff; stroke-width: 1.2"/>
    </g>
   </g>
   <g id="PathCollection_3">
    <path d="M 288 196.929503 
C 289.307319 196.929503 290.561271 196.410099 291.485685 195.485685 
C 292.410099 194.561271 292.929503 193.307319 292.929503 192 
C 292.929503 190.692681 292.410099 189.438729 291.485685 188.514315 
C 290.561271 187.589901 289.307319 187.070497 288 187.070497 
C 286.692681 187.070497 285.438729 187.589901 284.514315 188.514315 
C 283.589901 189.438729 283.070497 190.692681 283.070497 192 
C 283.070497 193.307319 283.589901 194.561271 284.514315 195.485685 
C 285.438729 196.410099 286.692681 196.929503 288 196.929503 
L 288 196.929503 
z
" clip-path="url(#p6b0a0d14c5)" style="fill: none; stroke: #7c2d12; stroke-width: 1.1"/>
   </g>
  </g>
 </g>
 <defs>
  <clipPath id="p6b0a0d14c5">
   <rect x="0" y="-0" width="576" height="384"/>
  </clipPath>
 </defs>
</svg>
