<?xml version="1.0" encoding="utf-8" standalone="no"?>
<!DOCTYPE svg PUBLIC "-//W3C//DTD SVG 1.1//EN"
  "http://www.w3.org/Graphics/SVG/1.1/DTD/svg11.dtd">
<svg xmlns:xlink="http://www.w3.org/1999/xlink" width="524.696356pt" height="432pt" viewBox="0 0 524.696356 432" xmlns="http://www.w3.org/2000/svg" version="1.1">
 <metadata>
  <rdf:RDF xmlns:dc="http://purl.org/dc/elements/1.1/" xmlns:cc="http://creativecommons.org/ns#" xmlns:rdf="http://www.w3.org/1999/02/22-rdf-syntax-ns#">
   <cc:Work>
    <dc:type rdf:resource="http://purl.org/dc/dcmitype/StillImage"/>
    <dc:date>2026-06-09T04:57:09.349761</dc:date>
    <dc:format>image/svg+xml</dc:format>
    <dc:creator>
     <cc:Agent>
      <dc:title>Matplotlib v3.10.8, https://matplotlib.org/</dc:title>
     </cc:Agent>
    </dc:creator>
   </cc:Work>
  </rdf:RDF>
 </metadata>
 <defs>
  <style type="text/css">*{stroke-linejoin: round; stroke-linecap: butt}</style>
 </defs>
 <g id="figure_1">
  <g id="patch_1">
   <path d="M 0 432 
L 524.696356 432 
L 524.696356 0 
L 0 0 
z
" style="fill: #eaf3ff"/>
  </g>
  <g id="axes_1">
   <g id="PatchCollection_1">
    <path d="M -510.480759 -285.687249 
L -508.362577 -289.102707 
L -483.070445 -283.161134 
L -473.754636 -266.650688 
L -469.42834 -271.268016 
L -472.226721 -285.609717 
L -478.173279 -299.951417 
L 5.962833 -299.951417 
L 6.014944 -306.671903 
L 11.935443 -306.755854 
L 15.041296 -297.153036 
L 20.478199 -294.1927 
L 50.545749 -290.331984 
L 67.510931 -284.910121 
L 81.677733 -287.183806 
L 103.190283 -282.636437 
L 108.910918 -282.807982 
L 124.560918 -287.75953 
L 185.811073 -263.224129 
L 187.504821 -258.624617 
L 191.623504 -256.903302 
L 190.553976 -255.170332 
L 195.244761 -254.631119 
L 198.64795 -256.440549 
L 199.527136 -252.298819 
L 203.044104 -249.52682 
L 207.847426 -249.52682 
L 210.411096 -247.388847 
L 208.254595 -244.279273 
L 226.477755 -236.069926 
L 233.706012 -205.000398 
L 228.592713 -194.662348 
L 216.524696 -178.921457 
L 216.139925 -177.096932 
L 218.102106 -174.597885 
L 224.043783 -171.839895 
L 228.430446 -171.839895 
L 248.745485 -181.178106 
L 266.765288 -183.927058 
L 289.643545 -192.626725 
L 288.408097 -199.734413 
L 285.580446 -203.168366 
L 293.475266 -205.944884 
L 326.710334 -206.009507 
L 332.307692 -212.824868 
L 352.977056 -226.781636 
L 360.868664 -230.000298 
L 419.668586 -230.13532 
L 421.418623 -234.451822 
L 434.448583 -238.037247 
L 440.65749 -245.995142 
L 445.992428 -259.603491 
L 459.332902 -272.803295 
L 465.14332 -268.207287 
L 476.871333 -271.178118 
L 484.636489 -266.132288 
L 484.621098 -242.283964 
L 496.058254 -232.397286 
L 499.079631 -226.663579 
L 480.402889 -218.189733 
L 443.960104 -206.976097 
L 431.739576 -192.656259 
L 431.562753 -183.381377 
L 437.334413 -174.111741 
L 444.592713 -173.674494 
L 442.756275 -180.0583 
L 448.003764 -176.172573 
L 446.603524 -171.176415 
L 434.798381 -168.340081 
L 426.396418 -168.680259 
L 413.460729 -165.62915 
L 395.683491 -163.89153 
L 381.104453 -158.827377 
L 406.792538 -162.122079 
L 411.974089 -158.808097 
L 387.488259 -153.561134 
L 376.347206 -153.526154 
L 376.866219 -155.673036 
L 371.542562 -150.824143 
L 376.689309 -150.021707 
L 372.912544 -137.457503 
L 360.185859 -123.995194 
L 358.885137 -128.487644 
L 355.044185 -129.397992 
L 349.30698 -133.771336 
L 352.945749 -124.353036 
L 357.286129 -121.240402 
L 357.550309 -114.630763 
L 342.098002 -93.866254 
L 340.505723 -94.560777 
L 345.913943 -106.461765 
L 336.979764 -113.145785 
L 334.931174 -127.676113 
L 331.560437 -120.113752 
L 335.29269 -109.01896 
L 323.737688 -111.76018 
L 335.777334 -106.127621 
L 336.5273 -89.485215 
L 341.545846 -88.275964 
L 345.818798 -64.725493 
L 334.700657 -51.744505 
L 316.608165 -46.558232 
L 305.111631 -36.299718 
L 296.37736 -35.177917 
L 287.521885 -28.752486 
L 285.022581 -22.883582 
L 265.82298 -11.532039 
L 255.964722 -3.205895 
L 247.721568 7.16228 
L 245.025853 19.588839 
L 248.116489 31.735035 
L 253.953036 46.697976 
L 261.725801 59.078536 
L 261.823482 66.636437 
L 270.104252 86.924696 
L 268.792149 105.520372 
L 264.428949 116.199955 
L 259.2 118.406478 
L 250.592706 116.285655 
L 247.831579 108.612146 
L 241.185425 104.589474 
L 223.780372 76.167721 
L 221.154967 69.325681 
L 224.744939 57.716599 
L 219.847773 48.097166 
L 206.212839 33.465833 
L 199.384615 30.782186 
L 181.740476 38.719968 
L 178.609438 37.845998 
L 170.1223 29.687145 
L 159.157895 25.360324 
L 139.388036 27.558277 
L 123.866468 25.624421 
L 110.527462 26.829823 
L 103.298175 29.558 
L 106.448036 34.206879 
L 106.163563 41.2999 
L 109.877189 44.7552 
L 106.544317 47.054594 
L 100.054698 44.474313 
L 93.489872 47.792317 
L 80.799304 47.248295 
L 67.74206 38.005506 
L 52.486076 40.186494 
L 39.765513 36.138462 
L 28.885934 37.364852 
L 14.166802 41.451012 
L -1.753535 54.417483 
L -19.134627 61.958245 
L -28.683401 70.309312 
L -32.706073 78.179757 
L -32.880972 90.247773 
L -32.006478 98.642915 
L -28.683401 104.589474 
L -35.504453 105.11417 
L -61.564372 95.844534 
L -66.461538 87.624291 
L -70.309312 75.381377 
L -80.62834 65.412146 
L -95.452761 43.187582 
L -107.779628 36.216291 
L -122.079352 36.553846 
L -133.097976 50.37085 
L -147.614575 45.123887 
L -156.656317 39.842643 
L -166.807443 21.092444 
L -186.143028 7.87132 
L -192.521412 1.669934 
L -222.821053 1.664097 
L -222.854983 8.881011 
L -271.506053 9.012185 
L -337.817004 -11.810565 
L -336.179777 -15.230711 
L -378.266896 -11.986513 
L -381.208303 -20.921823 
L -392.542834 -30.97871 
L -400.703651 -33.071773 
L -402.615165 -38.089135 
L -412.428826 -38.967449 
L -418.687415 -43.698062 
L -434.934452 -45.423138 
L -439.39577 -48.246704 
L -441.520266 -57.83658 
L -458.489645 -75.408136 
L -473.056965 -99.72309 
L -472.436774 -103.77427 
L -480.152959 -109.551527 
L -493.6903 -124.207171 
L -496.103378 -138.467194 
L -505.423734 -148.02034 
L -501.589778 -162.516301 
L -502.199126 -177.515971 
L -507.780845 -190.919339 
L -500.94755 -207.401626 
L -496.693836 -239.14628 
L -499.854345 -262.606154 
L -505.381759 -277.567346 
z
" clip-path="url(#pa6d6efb134)" style="fill: #e8edf4; stroke: #b8c5d4; stroke-width: 0.45"/>
    <path d="M -1269.949876 -591.507641 
L -1245.371544 -598.824019 
L -1206.359294 -607.365067 
L -1191.979153 -607.365067 
L -1194.359349 -598.629699 
L -1157.441237 -599.310272 
L -1171.641971 -610.144296 
L -1193.154564 -616.804957 
L -1205.594667 -625.548911 
L -1222.372628 -633.007189 
L -1246.406412 -638.535822 
L -1236.616745 -647.703213 
L -1205.591504 -648.271712 
L -1183.515834 -656.239741 
L -1179.352412 -664.756385 
L -1161.483547 -673.068767 
L -1144.446644 -675.068909 
L -1111.292467 -682.833579 
L -1095.211347 -681.66314 
L -1068.296203 -690.985986 
L -1041.833417 -687.313336 
L -1029.177302 -679.418968 
L -1021.409017 -682.804657 
L -991.851118 -681.755329 
L -992.900447 -677.732902 
L -966.140758 -674.759804 
L -948.301267 -676.508685 
L -911.456364 -670.982311 
L -877.816826 -669.337821 
L -864.349989 -667.063824 
L -841.078573 -669.90632 
L -795.544399 -662.201753 
L -795.750646 -497.698805 
L -778.526964 -497.181629 
L -761.491822 -492.340081 
L -733.74413 -473.188664 
L -716.730326 -482.963582 
L -699.172411 -488.628379 
L -689.888259 -479.582264 
L -662.089147 -464.536071 
L -633.270199 -432.037079 
L -603.536881 -420.908444 
L -603.051012 -409.875304 
L -612.777312 -401.440869 
L -622.391639 -408.019735 
L -637.807099 -413.596723 
L -642.753224 -428.851756 
L -665.300657 -442.999165 
L -674.725635 -459.51276 
L -719.324814 -461.07184 
L -739.821972 -466.105183 
L -775.987207 -484.255586 
L -823.3263 -493.81704 
L -847.539943 -492.325746 
L -881.936864 -500.361109 
L -902.729131 -507.812608 
L -922.141712 -504.110584 
L -918.534588 -491.961057 
L -948.438647 -487.19208 
L -963.836483 -481.290171 
L -983.217882 -477.575493 
L -985.719641 -487.879883 
L -977.854195 -505.034282 
L -959.266345 -510.417402 
L -964.061533 -514.804517 
L -986.356378 -505.058685 
L -998.293056 -493.418458 
L -1023.493213 -480.976547 
L -1010.696555 -472.484306 
L -1027.224159 -459.92038 
L -1063.530389 -447.264718 
L -1067.863727 -439.520383 
L -1095.167512 -430.489016 
L -1100.696146 -422.278313 
L -1121.15941 -414.801959 
L -1133.164327 -416.146835 
L -1181.781414 -399.464227 
L -1211.79619 -394.469748 
L -1214.536104 -397.408953 
L -1195.404158 -405.58034 
L -1178.293142 -410.97792 
L -1159.651967 -420.543893 
L -1137.954544 -422.521439 
L -1129.331249 -429.692304 
L -1105.088232 -440.162091 
L -1101.181946 -443.664372 
L -1088.268696 -449.839685 
L -1085.251763 -463.102711 
L -1076.356421 -473.431504 
L -1096.523234 -468.130632 
L -1102.163489 -471.138526 
L -1111.632301 -464.779287 
L -1123.054258 -473.650227 
L -1127.76991 -467.374139 
L -1134.310816 -476.094141 
L -1151.796011 -469.093194 
L -1162.532876 -469.107655 
L -1164.038631 -479.518695 
L -1160.876184 -485.932162 
L -1172.137713 -492.160348 
L -1194.879494 -488.8081 
L -1209.638785 -497.018351 
L -1221.604838 -501.216118 
L -1221.682566 -511.122377 
L -1235.159344 -518.575232 
L -1228.392033 -528.631524 
L -1214.133003 -538.392269 
L -1207.894875 -547.369859 
L -1193.742495 -548.647852 
L -1181.74255 -545.849643 
L -1167.634005 -554.288107 
L -1154.934507 -552.7819 
L -1141.608214 -558.208854 
L -1144.858331 -566.196315 
L -1154.647998 -569.344301 
L -1141.700403 -576.09218 
L -1152.441787 -575.893341 
L -1171.000714 -572.084215 
L -1176.330508 -568.221763 
L -1190.12317 -572.079244 
L -1214.861477 -570.116611 
L -1240.474677 -574.309406 
L -1247.815459 -581.344247 
z
" clip-path="url(#pa6d6efb134)" style="fill: #e8edf4; stroke: #b8c5d4; stroke-width: 0.45"/>
    <path d="M -1059.422633 212.450604 
L -1055.515569 207.652256 
L -1056.722196 204.212696 
L -1055.707958 202.58159 
L -1041.736693 209.719385 
L -1037.279398 215.847663 
L -1050.129211 223.284884 
L -1052.683783 226.210766 
L -1057.029668 223.706215 
L -1056.529632 218.817969 
z
" clip-path="url(#pa6d6efb134)" style="fill: #e8edf4; stroke: #b8c5d4; stroke-width: 0.45"/>
    <path d="M -1334.322258 -551.907911 
L -1333.28242 -558.495815 
L -1322.487259 -555.167066 
L -1311.585448 -556.964754 
L -1297.44301 -552.349877 
L -1280.074407 -550.013064 
L -1281.517347 -548.108275 
L -1294.765912 -544.406251 
L -1314.738405 -551.382795 
L -1330.158837 -550.367811 
z
" clip-path="url(#pa6d6efb134)" style="fill: #e8edf4; stroke: #b8c5d4; stroke-width: 0.45"/>
    <path d="M -1034.893477 -447.936704 
L -1009.668466 -456.817585 
L -998.056257 -455.6363 
L -990.646785 -450.20799 
L -1005.778448 -441.896511 
L -1023.246923 -435.229975 
L -1032.189716 -439.743625 
z
" clip-path="url(#pa6d6efb134)" style="fill: #e8edf4; stroke: #b8c5d4; stroke-width: 0.45"/>
    <path d="M -1070.565085 191.046141 
L -1068.851602 189.546734 
L -1058.061746 193.892094 
L -1059.5239 195.992104 
L -1065.386332 197.243679 
z
" clip-path="url(#pa6d6efb134)" style="fill: #e8edf4; stroke: #b8c5d4; stroke-width: 0.45"/>
    <path d="M -1098.235822 179.636444 
L -1093.558154 177.225639 
L -1087.045448 184.130468 
L -1087.993399 185.140509 
L -1095.332852 184.300645 
z
" clip-path="url(#pa6d6efb134)" style="fill: #e8edf4; stroke: #b8c5d4; stroke-width: 0.45"/>
    <path d="M -1124.60811 171.13269 
L -1121.034753 168.144544 
L -1117.003161 168.516029 
L -1116.643394 172.590121 
L -1118.717694 174.321794 
z
" clip-path="url(#pa6d6efb134)" style="fill: #e8edf4; stroke: #b8c5d4; stroke-width: 0.45"/>
    <path d="M -1258.489056 -496.066635 
L -1241.218065 -499.059165 
L -1227.342252 -497.47523 
L -1225.67607 -490.765763 
L -1236.407964 -488.045281 
z
" clip-path="url(#pa6d6efb134)" style="fill: #e8edf4; stroke: #b8c5d4; stroke-width: 0.45"/>
    <path d="M -1081.315414 188.055197 
L -1080.004722 185.924755 
L -1071.399177 186.672272 
L -1071.942938 188.563103 
z
" clip-path="url(#pa6d6efb134)" style="fill: #e8edf4; stroke: #b8c5d4; stroke-width: 0.45"/>
    <path d="M 368.021436 236.243661 
L 369.56244 230.605666 
L 398.85778 234.437839 
L 405.155108 230.544206 
L 397.166291 222.967529 
L 397.298248 216.286984 
L 386.263577 213.559272 
L 390.202852 208.729739 
L 416.04291 212.249193 
L 417.573068 221.774494 
L 416.236326 228.49797 
L 411.972129 231.445309 
L 416.473577 236.696472 
L 416.113859 241.447825 
L 404.497583 238.475179 
L 396.243497 239.688098 
L 385.572159 238.423661 
L 377.389022 241.692758 
z
" clip-path="url(#pa6d6efb134)" style="fill: #e8edf4; stroke: #b8c5d4; stroke-width: 0.45"/>
    <path d="M 411.972129 231.445309 
L 416.236326 228.49797 
L 417.573068 221.774494 
L 416.04291 212.249193 
L 418.230141 209.267961 
L 431.882711 209.348852 
L 442.242685 213.850752 
L 446.852139 213.411498 
L 450.027691 219.615733 
L 459.596828 219.266861 
L 459.033299 224.479159 
L 466.815142 225.110925 
L 475.41087 231.527557 
L 468.915607 238.646904 
L 460.596899 234.842748 
L 446.815083 234.743781 
L 443.661674 237.933794 
L 436.947236 239.011593 
L 434.285954 234.768635 
L 428.502897 237.279432 
L 421.502401 249.255878 
L 416.999597 246.474841 
L 416.473577 236.696472 
z
" clip-path="url(#pa6d6efb134)" style="fill: #e8edf4; stroke: #b8c5d4; stroke-width: 0.45"/>
    <path d="M 298.928609 127.227673 
L 302.734581 116.127547 
L 307.996761 116.832389 
L 314.118219 131.348988 
L 314.211615 141.49749 
L 309.920648 142.367611 
L 305.477344 132.290818 
z
" clip-path="url(#pa6d6efb134)" style="fill: #e8edf4; stroke: #b8c5d4; stroke-width: 0.45"/>
    <path d="M 309.745749 84.126316 
L 323.562753 91.996761 
L 320.544874 104.428917 
L 317.329185 102.187239 
L 317.616194 93.046154 
L 309.780379 86.134853 
z
" clip-path="url(#pa6d6efb134)" style="fill: #e8edf4; stroke: #b8c5d4; stroke-width: 0.45"/>
    <path d="M 288.932794 88.498785 
L 297.153036 87.099595 
L 308.696356 87.624291 
L 309.221053 92.17166 
L 290.157085 94.97004 
z
" clip-path="url(#pa6d6efb134)" style="fill: #e8edf4; stroke: #b8c5d4; stroke-width: 0.45"/>
    <path d="M -378.266896 -11.986513 
L -336.179777 -15.230711 
L -337.817004 -11.810565 
L -271.506053 9.012185 
L -222.854983 8.881011 
L -222.821053 1.664097 
L -192.521412 1.669934 
L -186.143028 7.87132 
L -166.807443 21.092444 
L -156.656317 39.842643 
L -147.614575 45.123887 
L -133.097976 50.37085 
L -122.079352 36.553846 
L -107.779628 36.216291 
L -95.452761 43.187582 
L -80.62834 65.412146 
L -70.309312 75.381377 
L -66.461538 87.624291 
L -61.564372 95.844534 
L -35.504453 105.11417 
L -28.683546 104.589518 
L -35.470741 119.943067 
L -38.52925 132.5323 
L -39.807695 155.964595 
L -41.492406 164.506094 
L -38.461012 174.047212 
L -33.037673 182.57651 
L -29.546237 196.14141 
L -17.937191 209.162666 
L -13.854209 219.141682 
L -7.01143 227.752775 
L 11.559699 232.392959 
L 18.78886 239.709789 
L 34.128852 234.82196 
L 47.465539 233.055455 
L 71.570272 226.912228 
L 82.694422 219.775708 
L 86.86191 209.573902 
L 88.298072 194.880589 
L 91.321331 189.76771 
L 103.167176 185.18763 
L 121.661933 181.130859 
L 137.148343 181.74003 
L 147.756414 180.258678 
L 151.952373 183.967029 
L 151.359019 192.391032 
L 141.960251 202.788062 
L 137.801801 213.436805 
L 141.025255 216.48266 
L 134.021596 237.690668 
L 129.588386 233.19871 
L 122.6019 233.720211 
L 116.336658 244.277668 
L 113.162009 242.208385 
L 111.044824 243.013683 
L 111.181752 245.587295 
L 78.67787 245.425061 
L 78.664764 255.270764 
L 70.765426 255.314147 
L 83.744654 265.19058 
L 85.685596 268.980727 
L 88.518602 270.041805 
L 88.070762 275.997943 
L 65.622721 276.050364 
L 57.205044 290.306682 
L 59.689179 293.574876 
L 57.660115 297.675934 
L 57.231255 302.770285 
L 37.437717 283.940665 
L 28.4181 278.261094 
L 14.13783 273.699542 
L 4.368499 274.970305 
L -9.678586 281.550527 
L -18.494393 283.274553 
L -43.952589 275.337706 
L -60.29943 267.314545 
L -73.411971 264.863851 
L -93.212288 256.732684 
L -107.844141 248.373304 
L -112.259275 243.70239 
L -122.046683 242.658936 
L -139.936335 237.12262 
L -147.221532 229.14239 
L -166.014096 219.215795 
L -174.77703 208.186095 
L -178.945874 199.662672 
L -173.110848 197.955366 
L -174.910342 192.967666 
L -170.889271 188.430969 
L -170.802957 182.382642 
L -176.703058 174.528945 
L -178.28157 167.569122 
L -184.145971 158.742469 
L -199.559172 141.357145 
L -217.144691 127.695084 
L -225.652749 116.791918 
L -240.664205 109.650879 
L -243.880429 105.378548 
L -241.214176 94.568926 
L -250.130758 90.48956 
L -260.454579 81.99054 
L -264.814581 69.786784 
L -274.222386 68.363728 
L -292.574792 50.643541 
L -293.337159 45.179078 
L -302.742705 31.987001 
L -308.937902 18.593826 
L -308.673084 11.876224 
L -321.321969 4.938996 
L -327.161062 5.700911 
L -337.14279 0.882676 
L -339.945519 7.984399 
L -337.051505 16.37722 
L -335.34917 29.511001 
L -313.489512 52.886356 
L -310.829586 54.134976 
L -308.522147 60.142631 
L -305.413477 59.899505 
L -301.903062 71.180014 
L -296.591795 75.629493 
L -292.867176 81.82243 
L -281.875436 90.723196 
L -276.072042 106.992761 
L -266.021173 122.848831 
L -265.059966 132.073162 
L -256.626473 132.651151 
L -243.268546 148.40735 
L -243.693339 151.539519 
L -251.053553 157.963833 
L -254.152281 157.879778 
L -258.763994 147.247756 
L -270.209901 137.278682 
L -291.766782 124.380797 
L -291.188792 111.583235 
L -293.842392 102.105836 
L -314.19991 88.880318 
L -316.509608 91.13172 
L -320.920675 86.573783 
L -331.708605 82.340768 
L -342.017062 72.185508 
L -340.742231 70.865487 
L -333.538378 71.857423 
L -327.048989 65.324652 
L -326.396435 57.434803 
L -339.86056 44.958095 
L -350.123826 40.115457 
L -371.161917 3.747316 
z
" clip-path="url(#pa6d6efb134)" style="fill: #e8edf4; stroke: #b8c5d4; stroke-width: 0.45"/>
    <path d="M 288.741538 527.470777 
L 295.267079 526.158438 
L 294.49251 517.39686 
L 298.59402 511.062024 
L 307.270187 509.889325 
L 321.329474 489.722963 
L 314.883017 485.560897 
L 318.182844 475.410156 
L 314.23679 459.409928 
L 317.986716 454.818098 
L 315.226015 440.025818 
L 308.144176 430.709749 
L 310.385636 422.20847 
L 316.022727 423.463868 
L 319.320295 418.265579 
L 315.259908 407.963901 
L 317.382516 405.406558 
L 326.419306 405.961952 
L 339.541789 393.752774 
L 346.743835 391.891368 
L 350.139918 371.32778 
L 360.170903 363.211525 
L 371.192018 362.879373 
L 372.582988 359.233837 
L 386.268096 360.693498 
L 406.846145 347.951521 
L 415.313079 339.52571 
L 421.50918 340.597182 
L 426.097846 345.19805 
L 422.702667 351.086853 
L 411.468252 354.018376 
L 407.031879 362.762781 
L 400.261856 367.777596 
L 395.178803 374.277378 
L 393.039474 386.757701 
L 388.188702 396.985266 
L 397.217357 398.15661 
L 399.460173 406.197396 
L 403.319009 410.045386 
L 404.700037 417.087457 
L 402.62262 423.561029 
L 403.238117 427.211535 
L 407.542986 428.669388 
L 411.708667 434.770136 
L 434.19964 433.088137 
L 444.359871 435.316492 
L 456.669824 450.366812 
L 463.738558 448.496367 
L 476.335925 449.432719 
L 486.304547 447.438001 
L 492.489802 450.443636 
L 489.340008 459.863643 
L 485.436885 465.735726 
L 484.067154 478.279316 
L 487.585704 489.900563 
L 492.557588 495.097496 
L 493.159076 499.013273 
L 484.295819 507.719718 
L 490.641953 511.574035 
L 495.290723 517.689244 
L 500.624584 535.131509 
L 497.323854 537.287106 
L 493.914213 526.970064 
L 489.055306 521.422902 
L 483.270442 527.451797 
L 449.193019 527.060897 
L 449.409482 538.004735 
L 459.657835 539.813268 
L 459.066741 546.512341 
L 455.56943 544.702001 
L 445.71966 547.583361 
L 445.630634 560.290994 
L 453.388978 566.671924 
L 456.127536 576.687093 
L 447.85221 632.227399 
L 439.100122 622.929859 
L 433.876978 622.515008 
L 445.157487 604.715285 
L 431.764311 596.524918 
L 421.267409 598.027961 
L 414.951554 595.00199 
L 405.314179 599.626809 
L 392.291116 597.435963 
L 381.98763 579.09847 
L 373.891712 574.592051 
L 368.308849 566.336609 
L 356.67766 558.053149 
L 352.014881 559.711648 
L 335.940088 549.776015 
L 330.971819 552.55886 
L 316.129829 550.132118 
L 311.868796 542.607862 
L 308.607833 542.887141 
L 291.114503 532.900443 
z
" clip-path="url(#pa6d6efb134)" style="fill: #e8edf4; stroke: #b8c5d4; stroke-width: 0.45"/>
    <path d="M 219.221932 413.197891 
L 221.600772 406.179771 
L 220.920652 403.014613 
L 223.534935 400.94307 
L 219.897533 398.343699 
L 219.79721 391.30434 
L 226.560454 389.742097 
L 232.840609 396.015473 
L 232.482699 399.721113 
L 239.461503 400.507431 
L 241.112772 399.084827 
L 245.920161 403.382465 
L 254.524927 402.118481 
L 261.965129 397.701087 
L 272.586757 394.173499 
L 278.556 388.94674 
L 288.212354 389.973021 
L 287.560704 391.693432 
L 297.312411 392.28995 
L 305.094706 395.31095 
L 317.382516 405.406558 
L 315.259908 407.963901 
L 319.320295 418.265579 
L 316.022727 423.463868 
L 310.385636 422.20847 
L 308.144176 430.709749 
L 302.313669 425.664205 
L 298.566905 416.22341 
L 302.888043 411.551141 
L 298.45664 410.352683 
L 295.192062 404.573693 
L 286.478838 399.712075 
L 278.825789 400.826478 
L 275.280576 406.910505 
L 268.216362 411.303948 
L 264.400457 411.914475 
L 262.685921 415.554136 
L 271.028581 425.047352 
L 263.727115 429.873721 
L 255.590073 430.766238 
L 252.561842 420.318142 
L 250.285134 423.291692 
L 244.516989 422.264958 
L 240.987594 415.227859 
L 229.275965 412.020221 
L 221.770237 412.046431 
L 221.230208 415.842452 
z
" clip-path="url(#pa6d6efb134)" style="fill: #e8edf4; stroke: #b8c5d4; stroke-width: 0.45"/>
    <path d="M 167.173061 366.495535 
L 173.817002 360.866578 
L 185.340185 365.498176 
L 189.361708 363.218304 
L 194.908418 364.677512 
L 197.807403 368.276502 
L 202.969087 369.441519 
L 207.156912 365.734975 
L 211.586959 375.237681 
L 226.560454 389.742097 
L 219.79721 391.30434 
L 219.897533 398.343699 
L 223.534935 400.94307 
L 220.920652 403.014613 
L 221.600772 406.179771 
L 219.221932 413.197891 
L 209.730976 409.316912 
L 206.179889 405.645617 
L 208.194039 402.609252 
L 207.558658 398.744993 
L 202.709693 394.55762 
L 189.806385 388.87805 
L 188.657184 383.762008 
L 184.069422 380.637069 
L 185.193767 385.72193 
L 181.703687 389.901168 
L 177.706116 385.047684 
L 172.086649 383.319591 
L 169.696511 379.794714 
L 169.796835 374.469891 
L 172.112408 368.960689 
z
" clip-path="url(#pa6d6efb134)" style="fill: #e8edf4; stroke: #b8c5d4; stroke-width: 0.45"/>
    <path d="M 136.972099 331.259874 
L 138.913944 328.555209 
L 141.80118 331.188021 
L 148.563068 329.23307 
L 150.753011 325.23821 
L 153.319392 325.082754 
L 152.947473 316.482055 
L 160.694519 316.193286 
L 164.470204 311.52644 
L 169.629177 315.06171 
L 180.751519 305.99645 
L 181.042095 302.396557 
L 182.720479 302.547946 
L 184.964198 298.368708 
L 186.791259 297.85986 
L 189.772492 300.531988 
L 193.274773 301.322374 
L 197.139936 299.098538 
L 201.558233 299.086788 
L 207.629607 296.801945 
L 210.053638 294.419942 
L 216.048639 294.777401 
L 213.653531 300.360263 
L 215.438113 306.760174 
L 211.408907 312.717667 
L 209.531685 319.755219 
L 208.965445 327.462045 
L 210.345118 339.844304 
L 207.67299 341.562456 
L 206.037538 349.043329 
L 207.240063 353.662273 
L 203.661409 358.134799 
L 204.475294 362.861749 
L 207.156912 365.734975 
L 202.969087 369.441519 
L 197.807403 368.276502 
L 194.908418 364.677512 
L 189.361708 363.218304 
L 185.340185 365.498176 
L 173.817002 360.866578 
L 171.181479 363.117076 
L 156.956794 350.551795 
L 153.106544 344.656213 
z
" clip-path="url(#pa6d6efb134)" style="fill: #e8edf4; stroke: #b8c5d4; stroke-width: 0.45"/>
    <path d="M 107.504582 304.776301 
L 111.13882 300.33586 
L 109.745138 296.903173 
L 110.976586 293.54279 
L 127.238468 281.976676 
L 129.055136 282.659959 
L 132.891376 279.585182 
L 150.35714 281.469636 
L 158.441761 281.012757 
L 166.119665 277.120028 
L 175.878151 279.212811 
L 183.928427 277.285878 
L 194.692858 280.097645 
L 205.086725 287.28749 
L 211.445964 289.966396 
L 216.048639 294.777401 
L 210.053638 294.419942 
L 207.629607 296.801945 
L 201.558233 299.086788 
L 197.139936 299.098538 
L 193.274773 301.322374 
L 189.772492 300.531988 
L 186.791259 297.85986 
L 184.964198 298.368708 
L 182.720479 302.547946 
L 181.042095 302.396557 
L 180.751519 305.99645 
L 169.629177 315.06171 
L 164.470204 311.52644 
L 160.694519 316.193286 
L 152.947473 316.482055 
L 153.319392 325.082754 
L 150.753011 325.23821 
L 148.563068 329.23307 
L 143.12572 329.952054 
L 140.104268 324.480361 
L 134.79255 322.959693 
L 136.009988 315.953775 
L 133.631149 314.060284 
L 130.031255 312.81302 
L 122.359226 314.896764 
L 121.708027 312.541423 
L 112.660844 306.247259 
z
" clip-path="url(#pa6d6efb134)" style="fill: #e8edf4; stroke: #b8c5d4; stroke-width: 0.45"/>
    <path d="M 94.523094 316.823245 
L 95.063123 314.258671 
L 104.340779 307.912537 
L 103.411658 305.852744 
L 107.504582 304.776301 
L 112.660844 306.247259 
L 121.708027 312.541423 
L 122.359226 314.896764 
L 130.031255 312.81302 
L 136.009988 315.953775 
L 132.851157 327.077924 
L 122.721203 326.816722 
L 116.426135 325.141502 
L 109.193811 321.664527 
L 99.475546 320.578594 
z
" clip-path="url(#pa6d6efb134)" style="fill: #e8edf4; stroke: #b8c5d4; stroke-width: 0.45"/>
    <path d="M 57.205044 290.306682 
L 65.622721 276.050364 
L 88.070762 275.997943 
L 88.518602 270.041805 
L 85.685596 268.980727 
L 83.744654 265.19058 
L 70.765426 255.314147 
L 78.664764 255.270764 
L 78.67787 245.425061 
L 111.181752 245.587295 
L 109.6769 279.192023 
L 114.897785 279.186148 
L 120.599951 282.349951 
L 122.107965 279.743802 
L 127.238468 281.976676 
L 110.976586 293.54279 
L 109.745138 296.903173 
L 111.13882 300.33586 
L 107.504582 304.776301 
L 103.411658 305.852744 
L 104.340779 307.912537 
L 95.063123 314.258671 
L 94.523094 316.823245 
L 85.549572 313.772419 
L 74.639626 313.456536 
L 66.640868 309.986792 
L 57.231255 302.770285 
L 57.660115 297.675934 
L 59.689179 293.574876 
z
" clip-path="url(#pa6d6efb134)" style="fill: #e8edf4; stroke: #b8c5d4; stroke-width: 0.45"/>
    <path d="M 109.6769 279.192023 
L 111.044824 243.013683 
L 113.162009 242.208385 
L 116.336658 244.277668 
L 122.6019 233.720211 
L 125.926582 233.49019 
L 125.991204 236.056119 
L 129.305944 236.136559 
L 129.014464 240.893786 
L 126.183265 248.458714 
L 127.713423 251.163831 
L 124.957693 267.931398 
L 121.522745 272.571582 
L 118.363914 273.128331 
L 114.897785 279.186148 
z
" clip-path="url(#pa6d6efb134)" style="fill: #e8edf4; stroke: #b8c5d4; stroke-width: 0.45"/>
    <path d="M 388.188702 396.985266 
L 393.039474 386.757701 
L 395.178803 374.277378 
L 400.261856 367.777596 
L 407.031879 362.762781 
L 411.468252 354.018376 
L 422.702667 351.086853 
L 422.205569 355.219545 
L 411.938236 357.26081 
L 417.643113 365.198109 
L 417.429813 374.344712 
L 409.714852 384.503588 
L 416.335294 398.379852 
L 423.874914 397.244209 
L 427.80244 384.602555 
L 422.379101 378.447127 
L 421.495171 365.206696 
L 443.275745 358.096839 
L 440.852618 349.853146 
L 446.984548 344.335359 
L 453.262444 356.625429 
L 465.528111 356.909226 
L 476.891771 366.662289 
L 477.57641 372.453029 
L 493.280187 372.606677 
L 511.966101 370.809442 
L 521.98127 378.641899 
L 535.357273 380.803371 
L 545.168631 375.339812 
L 545.369278 370.935524 
L 587.993171 369.637646 
L 573.141239 374.803398 
L 579.115905 383.059744 
L 593.103338 384.37389 
L 606.363653 392.974137 
L 609.150565 406.986426 
L 618.265535 406.591459 
L 625.118256 410.714209 
L 611.260972 420.98832 
L 609.732622 427.365184 
L 615.719489 433.855476 
L 611.376208 437.131804 
L 600.614037 439.939052 
L 600.962457 448.015538 
L 596.224662 452.829254 
L 608.060565 466.100415 
L 610.376138 471.035694 
L 603.979842 477.710364 
L 584.416777 484.257597 
L 571.839746 486.9713 
L 566.791038 491.105799 
L 552.884044 486.734049 
L 539.935997 484.496204 
L 536.658314 486.105897 
L 544.486251 490.639883 
L 543.780824 502.365521 
L 546.208922 513.380308 
L 561.025153 514.883352 
L 561.970995 518.559166 
L 549.478019 523.535568 
L 547.44534 530.94278 
L 527.237403 537.896277 
L 523.852166 543.248667 
L 510.253824 544.38205 
L 500.624584 535.131509 
L 495.290723 517.689244 
L 490.641953 511.574035 
L 484.295819 507.719718 
L 493.159076 499.013273 
L 492.557588 495.097496 
L 487.585704 489.900563 
L 484.067154 478.279316 
L 485.436885 465.735726 
L 489.340008 459.863643 
L 492.489802 450.443636 
L 486.304547 447.438001 
L 476.335925 449.432719 
L 463.738558 448.496367 
L 456.669824 450.366812 
L 444.359871 435.316492 
L 434.19964 433.088137 
L 411.708667 434.770136 
L 407.542986 428.669388 
L 403.238117 427.211535 
L 402.62262 423.561029 
L 404.700037 417.087457 
L 403.319009 410.045386 
L 399.460173 406.197396 
L 397.217357 398.15661 
z
" clip-path="url(#pa6d6efb134)" style="fill: #e8edf4; stroke: #b8c5d4; stroke-width: 0.45"/>
    <path d="M 494.22151 235.685555 
L 496.700674 233.129568 
L 511.011673 233.231699 
L 519.951302 234.772251 
L 523.104711 238.246514 
L 518.624502 242.656225 
L 495.240561 243.169591 
z
" clip-path="url(#pa6d6efb134)" style="fill: #e8edf4; stroke: #b8c5d4; stroke-width: 0.45"/>
    <path d="M 300.166205 238.282666 
L 302.264863 234.285095 
L 313.600504 233.655588 
L 325.370881 235.223706 
L 334.662546 239.424184 
L 337.560627 244.213497 
L 325.266942 244.539322 
L 319.953868 247.462259 
L 310.165105 244.655463 
z
" clip-path="url(#pa6d6efb134)" style="fill: #e8edf4; stroke: #b8c5d4; stroke-width: 0.45"/>
    <path d="M 184.082527 174.093759 
L 193.314541 168.690756 
L 197.104687 162.380323 
L 205.01216 158.491209 
L 213.944107 155.08202 
L 227.185894 153.408156 
L 231.423428 151.486646 
L 260.270928 152.931846 
L 276.698209 158.890243 
L 283.659841 165.293317 
L 299.996288 163.317578 
L 331.890999 186.147933 
L 337.648749 185.907518 
L 348.079673 189.474422 
L 346.805746 194.398404 
L 359.69866 195.118744 
L 372.918755 202.276955 
L 370.844049 206.373946 
L 359.214216 208.594167 
L 347.442032 209.462733 
L 335.391924 208.078993 
L 310.349483 209.782683 
L 322.074217 200.025553 
L 314.946284 195.482529 
L 303.67165 194.313445 
L 297.628294 189.264737 
L 293.482497 179.30425 
L 283.598381 179.985274 
L 267.2895 175.29538 
L 262.041501 171.626797 
L 239.245039 168.916257 
L 233.140224 165.504809 
L 239.698754 161.134866 
L 222.542999 160.239638 
L 209.975458 169.327945 
L 202.728673 169.571975 
L 200.221491 173.839335 
L 191.566112 175.751807 
z
" clip-path="url(#pa6d6efb134)" style="fill: #e8edf4; stroke: #b8c5d4; stroke-width: 0.45"/>
   </g>
   <g id="PathCollection_1">
    <defs>
     <path id="m0fd061e257" d="M 0 2.12132 
C 0.562581 2.12132 1.102195 1.897805 1.5 1.5 
C 1.897805 1.102195 2.12132 0.562581 2.12132 0 
C 2.12132 -0.562581 1.897805 -1.102195 1.5 -1.5 
C 1.102195 -1.897805 0.562581 -2.12132 0 -2.12132 
C -0.562581 -2.12132 -1.102195 -1.897805 -1.5 -1.5 
C -1.897805 -1.102195 -2.12132 -0.562581 -2.12132 0 
C -2.12132 0.562581 -1.897805 1.102195 -1.5 1.5 
C -1.102195 1.897805 -0.562581 2.12132 0 2.12132 
z
" style="stroke: #ffffff; stroke-width: 0.5"/>
    </defs>
    <g clip-path="url(#pa6d6efb134)">
     <use xlink:href="#m0fd061e257" x="446.574899" y="338.42915" style="fill: #8aa0b7; stroke: #ffffff; stroke-width: 0.5"/>
     <use xlink:href="#m0fd061e257" x="476.800324" y="344.053895" style="fill: #8aa0b7; stroke: #ffffff; stroke-width: 0.5"/>
     <use xlink:href="#m0fd061e257" x="341.052632" y="132.923077" style="fill: #8aa0b7; stroke: #ffffff; stroke-width: 0.5"/>
     <use xlink:href="#m0fd061e257" x="118.05668" y="255.352227" style="fill: #8aa0b7; stroke: #ffffff; stroke-width: 0.5"/>
     <use xlink:href="#m0fd061e257" x="463.65668" y="344.207806" style="fill: #8aa0b7; stroke: #ffffff; stroke-width: 0.5"/>
     <use xlink:href="#m0fd061e257" x="403.724696" y="224.744939" style="fill: #8aa0b7; stroke: #ffffff; stroke-width: 0.5"/>
     <use xlink:href="#m0fd061e257" x="314.817814" y="237.862348" style="fill: #8aa0b7; stroke: #ffffff; stroke-width: 0.5"/>
     <use xlink:href="#m0fd061e257" x="262.348178" y="216" style="fill: #8aa0b7; stroke: #ffffff; stroke-width: 0.5"/>
     <use xlink:href="#m0fd061e257" x="507.206478" y="237.862348" style="fill: #8aa0b7; stroke: #ffffff; stroke-width: 0.5"/>
     <use xlink:href="#m0fd061e257" x="115.141701" y="315.109312" style="fill: #8aa0b7; stroke: #ffffff; stroke-width: 0.5"/>
     <use xlink:href="#m0fd061e257" x="414.54685" y="177.627206" style="fill: #8aa0b7; stroke: #ffffff; stroke-width: 0.5"/>
    </g>
   </g>
   <g id="PathCollection_2">
    <defs>
     <path id="m26a51b2d44" d="M 0 3.674235 
C 0.974418 3.674235 1.909058 3.287094 2.598076 2.598076 
C 3.287094 1.909058 3.674235 0.974418 3.674235 0 
C 3.674235 -0.974418 3.287094 -1.909058 2.598076 -2.598076 
C 1.909058 -3.287094 0.974418 -3.674235 0 -3.674235 
C -0.974418 -3.674235 -1.909058 -3.287094 -2.598076 -2.598076 
C -3.287094 -1.909058 -3.674235 -0.974418 -3.674235 0 
C -3.674235 0.974418 -3.287094 1.909058 -2.598076 2.598076 
C -1.909058 3.287094 -0.974418 3.674235 0 3.674235 
z
" style="stroke: #ffffff; stroke-width: 1.2"/>
    </defs>
    <g clip-path="url(#pa6d6efb134)">
     <use xlink:href="#m26a51b2d44" x="262.348178" y="216" style="fill: #f97316; stroke: #ffffff; stroke-width: 1.2"/>
    </g>
   </g>
   <g id="PathCollection_3">
    <path d="M 262.348178 220.929503 
C 263.655498 220.929503 264.909449 220.410099 265.833863 219.485685 
C 266.758278 218.561271 267.277681 217.307319 267.277681 216 
C 267.277681 214.692681 266.758278 213.438729 265.833863 212.514315 
C 264.909449 211.589901 263.655498 211.070497 262.348178 211.070497 
C 261.040859 211.070497 259.786908 211.589901 258.862493 212.514315 
C 257.938079 213.438729 257.418675 214.692681 257.418675 216 
C 257.418675 217.307319 257.938079 218.561271 258.862493 219.485685 
C 259.786908 220.410099 261.040859 220.929503 262.348178 220.929503 
L 262.348178 220.929503 
z
" clip-path="url(#pa6d6efb134)" style="fill: none; stroke: #7c2d12; stroke-width: 1.1"/>
   </g>
  </g>
 </g>
 <defs>
  <clipPath id="pa6d6efb134">
   <rect x="0" y="0" width="524.696356" height="432"/>
  </clipPath>
 </defs>
</svg>
