<?xml version="1.0" encoding="utf-8" standalone="no"?>
<!DOCTYPE svg PUBLIC "-//W3C//DTD SVG 1.1//EN"
  "http://www.w3.org/Graphics/SVG/1.1/DTD/svg11.dtd">
<svg xmlns:xlink="http://www.w3.org/1999/xlink" width="576pt" height="352.769104pt" viewBox="0 0 576 352.769104" xmlns="http://www.w3.org/2000/svg" version="1.1">
 <metadata>
  <rdf:RDF xmlns:dc="http://purl.org/dc/elements/1.1/" xmlns:cc="http://creativecommons.org/ns#" xmlns:rdf="http://www.w3.org/1999/02/22-rdf-syntax-ns#">
   <cc:Work>
    <dc:type rdf:resource="http://purl.org/dc/dcmitype/StillImage"/>
    <dc:date>2026-06-09T04:57:12.987324</dc:date>
    <dc:format>image/svg+xml</dc:format>
    <dc:creator>
     <cc:Agent>
      <dc:title>Matplotlib v3.10.8, https://matplotlib.org/</dc:title>
     </cc:Agent>
    </dc:creator>
   </cc:Work>
  </rdf:RDF>
 </metadata>
 <defs>
  <style type="text/css">*{stroke-linejoin: round; stroke-linecap: butt}</style>
 </defs>
 <g id="figure_1">
  <g id="patch_1">
   <path d="M 0 352.769104 
L 576 352.769104 
L 576 0 
L 0 0 
z
" style="fill: #eaf3ff"/>
  </g>
  <g id="axes_1">
   <g id="PatchCollection_1">
    <path d="M 51.550302 -49.809981 
L 51.621726 -106.837679 
L 62.932426 -105.37658 
L 72.476807 -102.460201 
L 78.799347 -101.902511 
L 84.121708 -104.431333 
L 91.46492 -106.324918 
L 100.471074 -105.584667 
L 109.553017 -108.247424 
L 119.476285 -109.758242 
L 123.641553 -107.245548 
L 128.165699 -108.661841 
L 129.520148 -111.517467 
L 133.710093 -110.870953 
L 143.961681 -105.434543 
L 152.034715 -109.544273 
L 152.854151 -104.944095 
L 160.303347 -105.938634 
L 162.592674 -107.707924 
L 169.936613 -107.357777 
L 179.209485 -104.811736 
L 193.398488 -102.589103 
L 201.742909 -101.559761 
L 207.681954 -101.950228 
L 215.860911 -98.876147 
L 207.330351 -95.867062 
L 218.290237 -94.566757 
L 234.656337 -95.282028 
L 239.820995 -96.342596 
L 246.284261 -92.707126 
L 252.879825 -95.774599 
L 246.691766 -98.347076 
L 250.607232 -100.422373 
L 262.837895 -101.308079 
L 267.731955 -99.860319 
L 273.824883 -96.56669 
L 280.595975 -97.050227 
L 291.308483 -94.316591 
L 300.720808 -95.279239 
L 309.56544 -95.133663 
L 308.865752 -98.906705 
L 314.256627 -99.965939 
L 323.651914 -97.909012 
L 323.615717 -92.173204 
L 327.474614 -97.007482 
L 332.352 -96.844564 
L 335.093639 -102.939251 
L 328.59842 -106.678279 
L 321.52132 -109.128098 
L 322.007343 -115.828251 
L 329.176118 -120.228346 
L 337.172392 -119.255936 
L 343.307035 -116.579295 
L 351.544077 -109.74369 
L 346.164359 -106.76474 
L 357.440741 -105.538102 
L 357.414003 -99.337492 
L 365.516564 -104.089432 
L 372.765009 -100.18688 
L 370.959219 -95.689836 
L 376.824232 -91.599266 
L 383.154776 -95.981353 
L 387.577425 -101.214464 
L 387.908898 -107.869083 
L 405.488357 -106.511845 
L 413.626024 -103.503064 
L 413.991208 -100.493615 
L 409.479249 -97.261103 
L 413.75426 -94.015071 
L 412.982723 -91.066072 
L 401.110878 -86.826469 
L 392.677875 -85.891288 
L 386.408509 -87.71648 
L 384.600657 -84.67229 
L 378.756803 -79.55935 
L 376.987513 -76.907689 
L 369.955948 -72.804992 
L 361.276659 -72.403369 
L 356.489553 -69.841321 
L 356.089021 -65.900511 
L 349.035264 -65.141828 
L 341.616627 -60.228305 
L 335.040829 -53.400947 
L 332.689657 -48.620511 
L 332.354425 -41.57882 
L 341.264721 -40.568091 
L 346.830639 -30.290857 
L 355.315059 -31.488876 
L 366.581376 -28.863771 
L 372.643018 -26.559165 
L 376.981632 -23.694444 
L 384.578769 -22.025196 
L 391.002078 -19.471212 
L 407.608825 -18.535788 
L 406.618408 -13.28479 
L 408.505142 -7.189861 
L 412.896505 -0.404278 
L 421.917635 5.352448 
L 426.585539 3.378829 
L 429.866314 -2.855007 
L 426.699527 -12.430976 
L 422.422757 -15.621834 
L 432.128903 -18.463818 
L 438.999309 -22.71385 
L 442.359693 -26.938779 
L 441.863606 -30.991394 
L 437.746297 -36.141804 
L 430.381864 -40.70427 
L 437.537118 -47.058641 
L 434.893824 -52.547436 
L 432.86782 -62.016634 
L 437.08899 -63.416556 
L 453.717019 -61.176704 
L 458.739254 -62.769435 
L 464.386176 -60.715662 
L 471.852652 -57.200728 
L 473.692153 -54.847131 
L 484.504401 -54.387786 
L 484.323052 -49.293764 
L 486.338627 -41.630599 
L 491.876413 -40.682927 
L 496.270929 -37.111727 
L 505.05026 -40.478296 
L 510.850338 -47.168384 
L 514.862026 -49.986964 
L 534.185128 -29.56546 
L 531.747072 -25.757797 
L 539.81186 -22.338358 
L 545.262093 -18.873809 
L 554.930041 -17.305998 
L 558.821861 -15.371911 
L 561.224751 -10.241388 
L 565.946617 -9.436019 
L 568.382733 -7.14942 
L 568.82498 -0.336128 
L 560.07263 4.071302 
L 550.081091 6.22627 
L 542.452002 11.207336 
L 532.201809 12.191447 
L 519.233624 10.914971 
L 503.854181 11.291008 
L 498.777741 15.640778 
L 491.048246 18.327969 
L 482.302262 26.352438 
L 475.32381 31.949763 
L 480.473613 30.953283 
L 490.206316 22.986657 
L 502.924214 17.935441 
L 511.995729 17.331065 
L 517.363261 20.303831 
L 511.636851 24.37603 
L 513.558326 30.911387 
L 515.537037 35.485918 
L 523.412473 38.514284 
L 533.432266 37.636641 
L 539.511006 30.820682 
L 539.932699 35.21823 
L 543.847862 37.414548 
L 536.347675 41.386826 
L 522.918811 44.995072 
L 516.905068 47.448286 
L 510.129489 51.815579 
L 505.525491 51.3703 
L 505.29309 46.23814 
L 515.820187 41.224394 
L 506.115739 41.422841 
L 499.377388 42.161212 
L 495.412507 38.73383 
L 495.417843 30.466412 
L 492.725922 28.71719 
L 488.660211 29.747078 
L 486.645932 28.153796 
L 482.021235 32.729728 
L 480.171789 37.447289 
L 478.019368 40.206026 
L 473.502316 41.448973 
L 472.895636 42.945361 
L 452.511663 42.992168 
L 449.775906 44.107971 
L 442.610526 48.946317 
L 440.670109 51.308976 
L 429.148619 51.331378 
L 426.411748 52.293905 
L 427.392 53.484342 
L 427.820288 55.94834 
L 419.889159 58.964225 
L 413.642295 59.917195 
L 406.599748 63.154441 
L 405.079038 63.154441 
L 403.019256 62.198338 
L 402.339034 61.332002 
L 403.806316 58.577394 
L 406.656 55.242657 
L 408.42861 51.6588 
L 405.922815 40.888031 
L 399.605453 38.042123 
L 400.35304 36.964138 
L 399.464301 36.222974 
L 397.799149 36.222974 
L 396.579933 35.262014 
L 396.275149 33.826214 
L 395.095377 34.453484 
L 393.469238 34.266556 
L 393.840008 33.665793 
L 392.412198 33.069071 
L 391.825031 31.474573 
L 370.591645 22.968968 
L 365.166311 24.685504 
L 363.183158 24.744973 
L 355.725474 23.168552 
L 350.814316 23.956763 
L 344.933053 22.077184 
L 334.509635 20.738802 
L 332.624842 19.712552 
L 331.548147 16.383575 
L 329.495707 16.412678 
L 329.477642 18.742447 
L 160.830053 18.72706 
L 149.091597 12.772904 
L 144.760259 10.15362 
L 133.77988 7.643169 
L 130.401792 2.275941 
L 131.265428 -1.445504 
L 123.5078 -4.027015 
L 122.444079 -8.915194 
L 115.109235 -13.316925 
L 114.981059 -16.440724 
L 118.352842 -19.3645 
L 118.184408 -23.189322 
L 107.876857 -27.047249 
L 97.886289 -38.313567 
L 88.249263 -43.52958 
L 85.030757 -46.665567 
L 78.944013 -44.70177 
L 73.045895 -41.313132 
L 63.426695 -47.95229 
L 57.521179 -49.630693 
z
" clip-path="url(#p294f2d0f27)" style="fill: #e8edf4; stroke: #b8c5d4; stroke-width: 0.45"/>
    <path d="M 359.513976 -122.135478 
L 364.174019 -127.558305 
L 370.408978 -130.034648 
L 386.0646 -131.647005 
L 381.601949 -127.727969 
L 386.378549 -123.948674 
L 391.982476 -128.836503 
L 407.349685 -131.326476 
L 417.751047 -125.054702 
L 416.848522 -121.085534 
L 428.843286 -122.845466 
L 434.579122 -125.255229 
L 448.031931 -122.187646 
L 456.382286 -119.298344 
L 457.167315 -116.652963 
L 468.426084 -118.023748 
L 474.74517 -114.16205 
L 489.381397 -111.767171 
L 494.662916 -109.323256 
L 500.398282 -103.648988 
L 489.265781 -100.82423 
L 503.546075 -96.864775 
L 513.171652 -95.533155 
L 521.886713 -89.960717 
L 531.423776 -89.558411 
L 529.536949 -85.302867 
L 518.894485 -78.260006 
L 511.434279 -80.851182 
L 501.900819 -86.683992 
L 494.056324 -85.924185 
L 493.290721 -82.45038 
L 499.666987 -78.92566 
L 507.898123 -76.136307 
L 510.395615 -74.525517 
L 514.341284 -68.524141 
L 512.253147 -64.166296 
L 504.606045 -65.808889 
L 489.398787 -70.662879 
L 504.283166 -61.776743 
L 505.269818 -59.659624 
L 488.827757 -62.080353 
L 475.815792 -65.600373 
L 468.467599 -68.553906 
L 470.584249 -70.264646 
L 452.709207 -76.322264 
L 452.805711 -74.564056 
L 435.274228 -73.596673 
L 430.144984 -75.678544 
L 434.138591 -80.142761 
L 445.531305 -80.250544 
L 458.012189 -81.02539 
L 455.986559 -83.189977 
L 458.102425 -86.214321 
L 465.946608 -92.119821 
L 464.279889 -94.801861 
L 461.942191 -96.878562 
L 452.655316 -99.820345 
L 440.372609 -101.882476 
L 444.25577 -103.416659 
L 437.836578 -107.186554 
L 432.493335 -107.531835 
L 427.711879 -109.59569 
L 424.466799 -107.806619 
L 413.474197 -107.02676 
L 391.408939 -108.381566 
L 368.750876 -111.074258 
L 363.708109 -113.204224 
L 370.048344 -115.96992 
L 361.436052 -115.996396 
z
" clip-path="url(#p294f2d0f27)" style="fill: #e8edf4; stroke: #b8c5d4; stroke-width: 0.45"/>
    <path d="M 351.135542 -180.700827 
L 360.151579 -181.857132 
L 379.127808 -183.037083 
L 388.042105 -185.296601 
L 395.560391 -184.979658 
L 402.108632 -183.281974 
L 406.716632 -186.556079 
L 425.593425 -188.196527 
L 444.126316 -188.448141 
L 447.347187 -187.793206 
L 464.853039 -188.819092 
L 507.320488 -187.574751 
L 520.340211 -186.798606 
L 531.435789 -185.153065 
L 531.169738 -183.534505 
L 516.374905 -180.9037 
L 501.70558 -179.676032 
L 496.223697 -178.318734 
L 509.424647 -178.35002 
L 495.117474 -174.67229 
L 485.236345 -172.955386 
L 474.866526 -168.002816 
L 462.359444 -166.997242 
L 458.496 -165.760431 
L 440.138395 -165.111236 
L 448.496397 -164.350734 
L 444.305421 -163.267914 
L 449.319714 -160.277201 
L 443.559168 -158.198447 
L 434.191771 -156.482271 
L 431.316743 -154.109636 
L 422.847603 -152.297297 
L 423.695596 -150.925083 
L 434.056077 -151.159636 
L 434.188133 -149.67968 
L 417.986526 -146.042786 
L 402.142646 -147.715672 
L 384.332423 -146.775761 
L 363.845982 -147.826991 
L 363.085541 -150.735731 
L 374.294562 -152.107217 
L 371.307789 -156.482816 
L 375.006316 -156.908585 
L 391.217139 -154.292379 
L 382.949053 -158.1805 
L 373.115096 -159.343475 
L 378.02589 -161.689068 
L 388.777688 -163.133494 
L 390.497987 -165.246687 
L 381.934444 -167.616229 
L 379.360936 -170.740029 
L 395.933669 -170.478767 
L 400.722014 -169.821764 
L 410.183363 -172.0313 
L 396.530526 -172.732079 
L 375.31584 -172.345674 
L 364.598117 -174.403631 
L 359.545263 -176.855027 
L 352.464344 -178.632138 
z
" clip-path="url(#p294f2d0f27)" style="fill: #e8edf4; stroke: #b8c5d4; stroke-width: 0.45"/>
    <path d="M 182.488987 -118.033846 
L 187.577917 -122.576728 
L 191.79939 -124.99041 
L 208.032465 -128.680751 
L 214.228527 -127.509713 
L 211.201981 -124.668032 
L 224.694447 -126.502926 
L 233.126056 -123.441031 
L 239.977667 -126.537668 
L 245.518242 -124.550286 
L 250.479057 -118.593476 
L 253.524945 -121.1072 
L 249.217677 -127.316177 
L 254.552893 -128.204127 
L 260.578823 -127.234203 
L 267.370348 -124.788204 
L 271.175707 -118.881536 
L 273.055771 -114.604403 
L 294.179692 -108.731325 
L 293.521779 -106.064445 
L 283.566861 -105.576664 
L 287.434368 -103.245986 
L 285.391387 -101.02202 
L 274.418526 -101.975027 
L 263.989895 -103.612079 
L 256.941231 -103.243561 
L 245.557895 -101.186816 
L 219.406282 -99.704617 
L 216.121506 -102.565821 
L 207.845053 -104.218395 
L 202.461332 -103.540595 
L 194.991158 -108.341343 
L 208.383946 -110.022656 
L 216.93124 -109.750239 
L 224.845541 -110.805289 
L 213.12 -112.221764 
L 191.566686 -111.86137 
L 188.367885 -114.096492 
L 202.429986 -116.521634 
L 193.07714 -116.436871 
z
" clip-path="url(#p294f2d0f27)" style="fill: #e8edf4; stroke: #b8c5d4; stroke-width: 0.45"/>
    <path d="M 546.17233 25.415232 
L 549.949118 23.280567 
L 547.311413 21.633431 
L 552.403372 17.981032 
L 558.667313 8.32428 
L 562.426711 4.873348 
L 567.68755 2.783644 
L 570.500872 3.049341 
L 562.079707 13.817291 
L 566.037595 11.769103 
L 570.109689 13.068451 
L 567.982073 15.182593 
L 573.361662 16.844612 
L 576.159004 15.36714 
L 582.205342 17.231878 
L 580.329011 21.672283 
L 584.572493 20.635343 
L 585.345459 23.852693 
L 587.22837 27.621648 
L 584.675419 32.957528 
L 581.933065 33.18312 
L 577.946665 32.038554 
L 579.262775 27.078034 
L 577.573498 26.307574 
L 570.538471 31.566063 
L 566.920537 31.355511 
L 571.202714 28.506784 
L 565.384631 27.033542 
L 547.102897 27.210569 
z
" clip-path="url(#p294f2d0f27)" style="fill: #e8edf4; stroke: #b8c5d4; stroke-width: 0.45"/>
    <path d="M 317.57985 -149.516719 
L 319.86115 -152.004499 
L 332.357543 -151.619426 
L 339.088647 -149.669621 
L 351.026386 -149.683094 
L 356.259966 -147.688797 
L 354.878684 -145.41157 
L 361.835694 -144.039844 
L 365.68674 -142.599188 
L 382.711424 -141.824655 
L 392.34922 -143.139043 
L 404.694904 -143.655085 
L 414.547013 -143.228653 
L 421.040776 -140.942026 
L 422.396365 -138.433567 
L 418.613937 -136.821837 
L 409.573334 -135.519199 
L 401.812182 -136.25629 
L 384.419657 -135.32259 
L 371.972613 -135.21512 
L 346.070253 -137.915959 
L 343.973343 -141.245009 
L 343.235939 -144.251337 
L 337.149025 -146.898441 
L 324.606574 -147.638979 
z
" clip-path="url(#p294f2d0f27)" style="fill: #e8edf4; stroke: #b8c5d4; stroke-width: 0.45"/>
    <path d="M 192.745364 -140.246892 
L 201.017816 -146.169567 
L 206.724157 -147.866281 
L 223.787763 -145.819783 
L 234.557992 -142.229484 
L 245.151057 -141.768805 
L 236.479771 -147.568883 
L 242.034594 -149.777994 
L 248.294865 -149.075578 
L 250.33924 -146.185634 
L 252.715877 -144.02618 
L 258.115119 -145.040546 
L 264.468884 -144.777284 
L 265.536121 -141.807003 
L 261.84675 -138.931611 
L 241.313684 -137.990185 
L 226.015912 -135.364595 
L 216.795426 -135.227022 
L 216.022131 -137.203732 
L 228.616158 -139.884922 
L 201.222811 -139.162981 
z
" clip-path="url(#p294f2d0f27)" style="fill: #e8edf4; stroke: #b8c5d4; stroke-width: 0.45"/>
    <path d="M 320.075803 -170.172032 
L 324.279269 -172.86747 
L 328.480977 -174.71649 
L 334.695835 -175.14079 
L 332.046296 -176.530405 
L 346.146654 -176.839202 
L 353.889004 -173.601839 
L 374.036211 -171.155658 
L 378.826105 -167.153974 
L 386.136152 -165.194968 
L 377.810163 -163.390572 
L 366.60672 -158.830653 
L 355.880933 -158.394712 
L 343.316069 -159.170796 
L 336.801388 -161.642503 
L 336.894882 -163.841853 
L 341.687808 -165.456896 
L 330.599747 -165.410695 
L 323.917299 -167.426938 
z
" clip-path="url(#p294f2d0f27)" style="fill: #e8edf4; stroke: #b8c5d4; stroke-width: 0.45"/>
    <path d="M 377.601449 -69.423376 
L 382.871688 -72.422184 
L 383.647004 -77.194397 
L 385.714775 -82.747409 
L 390.095649 -82.2533 
L 391.220633 -79.586927 
L 394.323464 -80.522194 
L 397.848497 -78.93271 
L 411.433685 -74.964482 
L 411.97072 -72.081289 
L 416.433684 -72.553466 
L 420.762232 -70.543503 
L 415.380764 -68.635213 
L 405.945531 -70.093259 
L 402.540343 -72.82261 
L 396.528 -69.596016 
L 387.900199 -66.459346 
L 385.818328 -70.005529 
z
" clip-path="url(#p294f2d0f27)" style="fill: #e8edf4; stroke: #b8c5d4; stroke-width: 0.45"/>
    <path d="M 284.968421 -123.802395 
L 285.089684 -125.742606 
L 297.46847 -124.990047 
L 290.789053 -128.956079 
L 297.965285 -131.889981 
L 305.195904 -130.613686 
L 316.011789 -131.381343 
L 317.588211 -129.623027 
L 311.927707 -126.715864 
L 321.104842 -124.105553 
L 320.013474 -118.648711 
L 310.071956 -116.301359 
L 304.231923 -116.807876 
L 300.03646 -119.123274 
z
" clip-path="url(#p294f2d0f27)" style="fill: #e8edf4; stroke: #b8c5d4; stroke-width: 0.45"/>
    <path d="M 142.915006 -119.914022 
L 149.7158 -126.910127 
L 154.974316 -130.89629 
L 149.046063 -134.61149 
L 169.538749 -135.558434 
L 178.197544 -134.299844 
L 193.683699 -133.962853 
L 206.081826 -129.654495 
L 198.459648 -128.124942 
L 183.592421 -123.863027 
L 176.074105 -119.618816 
L 176.074105 -116.972865 
L 160.114722 -114.050655 
L 156.914526 -116.7085 
z
" clip-path="url(#p294f2d0f27)" style="fill: #e8edf4; stroke: #b8c5d4; stroke-width: 0.45"/>
    <path d="M 127.662311 9.410412 
L 128.184776 8.006728 
L 138.27031 10.248549 
L 143.969644 10.890547 
L 149.027763 15.86078 
L 155.080368 18.363599 
L 157.581464 21.713328 
L 154.532367 22.557105 
L 144.575923 19.803472 
L 142.757086 17.651104 
L 137.330499 15.528971 
L 136.239198 13.800998 
L 129.998129 12.709853 
z
" clip-path="url(#p294f2d0f27)" style="fill: #e8edf4; stroke: #b8c5d4; stroke-width: 0.45"/>
    <path d="M 284.571163 -147.003675 
L 291.093848 -146.814323 
L 300.226419 -148.881678 
L 308.75425 -148.53153 
L 309.221053 -149.32829 
L 313.855821 -146.51838 
L 314.04481 -143.407252 
L 311.282526 -138.899658 
L 301.285955 -138.277821 
L 294.768546 -139.247441 
L 294.894296 -142.784627 
L 284.955749 -142.318067 
z
" clip-path="url(#p294f2d0f27)" style="fill: #e8edf4; stroke: #b8c5d4; stroke-width: 0.45"/>
    <path d="M 324.174346 -126.411231 
L 324.268186 -129.425549 
L 327.436031 -132.002312 
L 333.451508 -133.654461 
L 346.084979 -133.442969 
L 357.66694 -131.967847 
L 348.607537 -126.568676 
L 341.37825 -125.390897 
L 334.873991 -120.859316 
L 327.957087 -121.085378 
z
" clip-path="url(#p294f2d0f27)" style="fill: #e8edf4; stroke: #b8c5d4; stroke-width: 0.45"/>
    <path d="M 266.825699 -164.980902 
L 278.727719 -164.154827 
L 295.123252 -161.942458 
L 299.761363 -159.058169 
L 302.121464 -156.528561 
L 292.220321 -157.20424 
L 282.24116 -159.170182 
L 268.742605 -159.395147 
L 274.597817 -161.196437 
L 267.266544 -162.657146 
z
" clip-path="url(#p294f2d0f27)" style="fill: #e8edf4; stroke: #b8c5d4; stroke-width: 0.45"/>
    <path d="M 161.5533 -145.669434 
L 171.844838 -150.204462 
L 184.296117 -154.131645 
L 193.595839 -154.047361 
L 201.911728 -154.93845 
L 201.0797 -150.279973 
L 196.40963 -148.176483 
L 190.744448 -147.880237 
L 179.473611 -145.285458 
L 169.768451 -144.356613 
z
" clip-path="url(#p294f2d0f27)" style="fill: #e8edf4; stroke: #b8c5d4; stroke-width: 0.45"/>
    <path d="M 98.588982 -10.670419 
L 98.950712 -12.603931 
L 101.800373 -11.815925 
L 107.621116 -12.300948 
L 105.805256 -5.416942 
L 111.082858 -0.54102 
L 108.664949 -0.552769 
L 105.011297 -3.325672 
L 102.770572 -6.116591 
L 99.710989 -8.004985 
z
" clip-path="url(#p294f2d0f27)" style="fill: #e8edf4; stroke: #b8c5d4; stroke-width: 0.45"/>
    <path d="M 416.077549 -128.793485 
L 416.333496 -130.976226 
L 419.248828 -131.379644 
L 433.125093 -130.726108 
L 443.580632 -127.395938 
L 444.117804 -125.72069 
L 431.141031 -126.025486 
L 424.50441 -125.210277 
L 422.748633 -125.578308 
z
" clip-path="url(#p294f2d0f27)" style="fill: #e8edf4; stroke: #b8c5d4; stroke-width: 0.45"/>
    <path d="M 516.019544 32.521155 
L 518.309901 30.650428 
L 520.434189 33.597123 
L 524.831192 34.410435 
L 530.453073 34.245093 
L 527.47103 36.729472 
L 525.225115 37.12485 
L 517.534181 34.551222 
z
" clip-path="url(#p294f2d0f27)" style="fill: #e8edf4; stroke: #b8c5d4; stroke-width: 0.45"/>
    <path d="M 438.145617 -93.960078 
L 440.720883 -97.358296 
L 446.277464 -98.198953 
L 451.011032 -96.520367 
L 451.078757 -93.923274 
L 450.395803 -93.087953 
L 446.455296 -91.296957 
L 439.658557 -90.993011 
z
" clip-path="url(#p294f2d0f27)" style="fill: #e8edf4; stroke: #b8c5d4; stroke-width: 0.45"/>
    <path d="M 301.354704 -104.946158 
L 306.690283 -106.825737 
L 310.929279 -109.454177 
L 320.999336 -106.643842 
L 326.515112 -103.173655 
L 322.744798 -101.047608 
L 314.572388 -102.884685 
L 309.634553 -102.2218 
z
" clip-path="url(#p294f2d0f27)" style="fill: #e8edf4; stroke: #b8c5d4; stroke-width: 0.45"/>
    <path d="M 515.252493 13.449068 
L 517.34974 12.938913 
L 525.322368 14.459372 
L 531.52319 16.992923 
L 531.700719 18.105452 
L 528.748719 18.213921 
L 520.890381 16.313 
z
" clip-path="url(#p294f2d0f27)" style="fill: #e8edf4; stroke: #b8c5d4; stroke-width: 0.45"/>
    <path d="M 319.401506 -138.460826 
L 322.629196 -141.190491 
L 331.346608 -142.82384 
L 336.640189 -140.697321 
L 338.853185 -138.778379 
L 335.553901 -136.427991 
L 326.751579 -136.879802 
z
" clip-path="url(#p294f2d0f27)" style="fill: #e8edf4; stroke: #b8c5d4; stroke-width: 0.45"/>
    <path d="M 308.42081 -162.375783 
L 319.804909 -161.732375 
L 327.051115 -159.625439 
L 325.407896 -157.434376 
L 316.437163 -156.18328 
L 311.499046 -157.591507 
L 308.900507 -159.866697 
z
" clip-path="url(#p294f2d0f27)" style="fill: #e8edf4; stroke: #b8c5d4; stroke-width: 0.45"/>
    <path d="M 419.193701 -60.178587 
L 421.817593 -62.416559 
L 424.299668 -62.283837 
L 425.840923 -61.040677 
L 423.465984 -57.853912 
L 420.785826 -58.369402 
z
" clip-path="url(#p294f2d0f27)" style="fill: #e8edf4; stroke: #b8c5d4; stroke-width: 0.45"/>
    <path d="M 397.175222 -62.824004 
L 401.6813 -65.620878 
L 410.008987 -65.563217 
L 409.880084 -64.388298 
L 402.784249 -61.043982 
L 398.503357 -61.18398 
z
" clip-path="url(#p294f2d0f27)" style="fill: #e8edf4; stroke: #b8c5d4; stroke-width: 0.45"/>
    <path d="M 218.065846 -155.465458 
L 222.975137 -157.398657 
L 231.828217 -158.016529 
L 240.377218 -157.066849 
L 238.361302 -155.252085 
L 227.058041 -153.507193 
z
" clip-path="url(#p294f2d0f27)" style="fill: #e8edf4; stroke: #b8c5d4; stroke-width: 0.45"/>
    <path d="M 321.733564 -156.086463 
L 333.94311 -155.997793 
L 338.198968 -154.872025 
L 337.47535 -154.1788 
L 323.350308 -154.391702 
z
" clip-path="url(#p294f2d0f27)" style="fill: #e8edf4; stroke: #b8c5d4; stroke-width: 0.45"/>
    <path d="M 258.048 -129.562395 
L 260.109474 -130.411237 
L 268.234105 -130.653764 
L 272.842105 -129.319869 
L 267.506526 -125.318185 
z
" clip-path="url(#p294f2d0f27)" style="fill: #e8edf4; stroke: #b8c5d4; stroke-width: 0.45"/>
    <path d="M 224.081635 -159.562305 
L 224.179862 -160.427231 
L 230.399937 -162.242777 
L 241.537138 -160.738987 
L 234.151189 -159.556351 
z
" clip-path="url(#p294f2d0f27)" style="fill: #e8edf4; stroke: #b8c5d4; stroke-width: 0.45"/>
    <path d="M 150.443863 23.687358 
L 151.178166 22.503333 
L 159.946105 24.563078 
L 163.175586 30.2867 
L 164.675368 28.686026 
L 163.705263 23.714236 
L 161.643789 18.742447 
L 329.477642 18.742447 
L 329.495707 16.412678 
L 331.548147 16.383575 
L 332.624842 19.712552 
L 334.509635 20.738802 
L 344.933053 22.077184 
L 350.814316 23.956763 
L 355.725474 23.168552 
L 363.183158 24.744973 
L 365.166311 24.685504 
L 370.591645 22.968968 
L 391.825031 31.474573 
L 392.412198 33.069071 
L 393.840008 33.665793 
L 393.469238 34.266556 
L 395.095377 34.453484 
L 396.275149 33.826214 
L 396.579933 35.262014 
L 397.799149 36.222974 
L 399.464301 36.222974 
L 400.35304 36.964138 
L 399.605453 38.042123 
L 405.922815 40.888031 
L 408.42861 51.6588 
L 406.656 55.242657 
L 402.472421 60.6995 
L 402.339034 61.332002 
L 403.019256 62.198338 
L 405.079038 63.154441 
L 406.599748 63.154441 
L 413.642295 59.917195 
L 419.889159 58.964225 
L 427.820288 55.94834 
L 427.392 53.484342 
L 426.411748 52.293905 
L 429.148619 51.331378 
L 440.670109 51.308976 
L 442.610526 48.946317 
L 449.775906 44.107971 
L 452.511663 42.992168 
L 472.895636 42.945361 
L 473.502316 41.448973 
L 478.019368 40.206026 
L 480.171789 37.447289 
L 482.021235 32.729728 
L 486.645932 28.153796 
L 488.660211 29.747078 
L 492.725922 28.71719 
L 495.417843 30.466412 
L 495.412507 38.73383 
L 499.377388 42.161212 
L 500.424798 44.148897 
L 493.950195 47.086497 
L 481.316696 50.973891 
L 477.080246 55.938102 
L 477.018947 59.153394 
L 479.019789 62.366868 
L 481.536 62.518447 
L 480.899368 60.305394 
L 482.718498 61.652446 
L 482.233081 63.384448 
L 478.140632 64.36771 
L 475.227951 64.249782 
L 470.743579 65.3075 
L 464.580803 65.909874 
L 459.526737 67.665447 
L 468.431939 66.523284 
L 470.228211 67.672131 
L 461.739789 69.491078 
L 457.877558 69.503205 
L 458.057482 68.758952 
L 456.211948 70.439902 
L 457.996153 70.71808 
L 456.686875 75.07367 
L 452.274957 79.740604 
L 451.82404 78.183222 
L 450.49251 77.867634 
L 448.503613 76.351542 
L 449.765053 79.616552 
L 451.269718 80.695599 
L 451.3613 82.98694 
L 446.0045 90.185303 
L 445.45251 89.944535 
L 447.32736 85.81886 
L 444.230178 83.501733 
L 443.52 78.464552 
L 442.351478 81.086171 
L 443.645325 84.932365 
L 439.639591 83.982076 
L 443.813336 85.934696 
L 444.073324 91.704064 
L 445.813086 92.12327 
L 447.294376 100.287434 
L 443.440088 104.78751 
L 437.168024 106.585418 
L 433.182558 110.141702 
L 430.154678 110.530593 
L 427.08478 112.758076 
L 426.218355 114.79263 
L 419.562493 118.727831 
L 416.144963 121.614228 
L 413.287336 125.208529 
L 412.352822 129.516402 
L 413.424243 133.727084 
L 415.447579 138.914236 
L 418.142137 143.206164 
L 418.176 145.826236 
L 421.046667 152.8595 
L 420.591805 159.306001 
L 419.079229 163.008256 
L 417.266526 163.773184 
L 414.282664 163.037965 
L 413.325474 160.377815 
L 411.021474 158.983289 
L 404.987722 149.130415 
L 404.077581 146.758508 
L 405.322105 142.734026 
L 403.624421 139.399289 
L 398.897644 134.327094 
L 396.530526 133.396763 
L 390.413891 136.148527 
L 389.328465 135.845551 
L 386.386257 133.017148 
L 382.585263 131.517184 
L 375.731712 132.279141 
L 370.350902 131.608737 
L 365.726713 132.02661 
L 363.22056 132.972378 
L 364.312512 134.58399 
L 364.213895 137.042903 
L 365.501285 138.240741 
L 364.34589 139.037864 
L 362.096155 138.143366 
L 359.820349 139.293608 
L 355.420952 139.105014 
L 350.89444 135.900847 
L 345.605699 136.656923 
L 341.195904 135.253605 
L 337.424317 135.678753 
L 332.321684 137.095289 
L 326.802634 141.590332 
L 320.777189 144.204463 
L 317.466947 147.0995 
L 316.072421 149.827921 
L 316.011789 154.0115 
L 316.314947 156.921815 
L 317.466947 158.983289 
L 315.102316 159.165184 
L 306.068211 155.95171 
L 304.370526 153.102026 
L 303.036632 148.857815 
L 299.459368 145.401815 
L 294.320236 137.6973 
L 290.046922 135.280586 
L 285.089684 135.397605 
L 281.269895 140.1875 
L 276.237474 138.368552 
L 273.103003 136.537721 
L 269.583946 130.037652 
L 262.880943 125.454329 
L 260.66977 123.304515 
L 250.165895 123.302492 
L 250.154132 125.804355 
L 233.288428 125.849829 
L 210.300632 118.631276 
L 210.868204 117.445625 
L 196.278003 118.57028 
L 195.258315 115.472706 
L 191.329011 111.986319 
L 188.499927 111.260724 
L 187.837269 109.521371 
L 184.4352 109.216889 
L 182.265556 107.576943 
L 176.63325 106.978917 
L 175.086659 106.000081 
L 174.350168 102.67559 
L 168.467449 96.584118 
L 163.417445 88.154934 
L 163.632445 86.750524 
L 160.957501 84.747742 
L 156.264556 79.667119 
L 155.428022 74.723644 
L 152.196965 71.411887 
L 153.52607 66.38662 
L 153.314829 61.186735 
L 151.379833 56.540234 
L 153.748709 50.826374 
L 155.22333 39.821561 
L 154.127687 31.688805 
L 152.211517 26.502258 
z
" clip-path="url(#p294f2d0f27)" style="fill: #e8edf4; stroke: #b8c5d4; stroke-width: 0.45"/>
    <path d="M -112.838764 -82.330377 
L -104.318276 -84.866722 
L -90.794029 -87.827618 
L -85.808913 -87.827618 
L -86.634048 -84.799358 
L -73.835769 -85.035289 
L -78.75869 -88.791085 
L -86.216389 -91.100114 
L -90.528958 -94.131351 
L -96.345318 -96.716887 
L -104.67703 -98.63348 
L -101.283279 -101.811509 
L -90.527862 -102.008589 
L -82.874963 -104.770839 
L -81.431643 -107.723275 
L -75.237103 -110.604901 
L -69.330977 -111.298284 
L -57.837529 -113.990036 
L -52.262741 -113.584284 
L -42.932157 -116.816204 
L -33.758392 -115.543018 
L -29.370939 -112.806304 
L -26.677933 -113.98001 
L -16.431195 -113.616243 
L -16.794962 -112.221801 
L -7.51827 -111.191127 
L -1.333913 -111.797406 
L 11.438987 -109.881597 
L 23.100693 -109.311506 
L 27.769197 -108.523187 
L 35.836621 -109.508586 
L 51.621801 -106.83767 
L 51.550302 -49.809981 
L 57.521179 -49.630693 
L 63.426695 -47.95229 
L 73.045895 -41.313132 
L 78.944013 -44.70177 
L 85.030757 -46.665567 
L 88.249263 -43.52958 
L 97.886289 -38.313567 
L 107.876857 -27.047249 
L 118.184408 -23.189322 
L 118.352842 -19.3645 
L 114.981058 -16.440563 
L 111.648092 -18.721237 
L 106.304065 -20.654592 
L 104.589409 -25.943004 
L 96.772965 -30.847439 
L 93.50564 -36.572152 
L 78.044591 -37.112633 
L 70.938909 -38.857525 
L 58.401628 -45.149665 
L 41.990742 -48.464303 
L 33.596679 -47.947321 
L 21.672413 -50.732913 
L 14.464427 -53.316099 
L 7.734733 -52.032731 
L 8.985203 -47.820895 
L -1.381538 -46.16765 
L -6.719455 -44.121655 
L -13.438339 -42.8339 
L -14.305616 -46.406088 
L -11.578928 -52.352946 
L -5.13514 -54.219094 
L -6.797472 -55.739961 
L -14.526351 -52.361406 
L -18.6644 -48.326127 
L -27.400454 -44.012932 
L -22.964279 -41.068955 
L -28.693849 -36.71346 
L -41.280008 -32.326164 
L -42.782233 -29.641461 
L -52.247545 -26.510587 
L -54.164138 -23.66421 
L -61.258069 -21.072408 
L -65.419774 -21.538631 
L -82.273697 -15.755327 
L -92.67882 -14.023908 
L -93.628656 -15.042832 
L -86.996249 -17.87558 
L -81.064429 -19.746741 
L -74.602156 -23.062945 
L -67.080382 -23.748494 
L -64.090973 -26.234394 
L -55.686728 -29.86392 
L -54.332548 -31.078044 
L -49.855955 -33.218819 
L -48.810085 -37.816669 
L -45.726366 -41.397317 
L -52.717528 -39.559681 
L -54.672816 -40.602418 
L -57.955338 -38.397881 
L -61.91495 -41.473141 
L -63.549709 -39.29743 
L -65.817223 -42.320364 
L -71.878758 -39.893369 
L -75.600871 -39.898382 
L -76.122866 -43.507543 
L -75.026551 -45.730878 
L -78.930547 -47.889983 
L -86.814365 -46.72787 
L -91.930919 -49.57409 
L -96.079151 -51.029316 
L -96.106096 -54.463486 
L -100.778046 -57.047142 
L -98.432045 -60.533324 
L -93.488915 -63.917048 
L -91.326364 -67.02928 
L -86.420205 -67.472317 
L -82.260224 -66.502271 
L -77.369262 -69.427606 
L -72.96677 -68.905454 
L -68.346988 -70.786798 
L -69.473695 -73.555784 
L -72.867446 -74.647086 
L -68.378947 -76.986351 
L -72.102626 -76.91742 
L -78.536388 -75.596923 
L -80.38405 -74.25794 
L -85.165506 -75.5952 
L -93.741453 -74.91482 
L -102.620695 -76.368323 
L -105.165499 -78.807067 
z
" clip-path="url(#p294f2d0f27)" style="fill: #e8edf4; stroke: #b8c5d4; stroke-width: 0.45"/>
    <path d="M -39.855987 196.375148 
L -38.501538 194.71172 
L -38.919835 193.51934 
L -38.568232 192.953889 
L -33.724861 195.428325 
L -32.179665 197.552795 
L -36.634267 200.131031 
L -37.519852 201.145337 
L -39.026425 200.277093 
L -38.85308 198.582501 
z
" clip-path="url(#p294f2d0f27)" style="fill: #e8edf4; stroke: #b8c5d4; stroke-width: 0.45"/>
    <path d="M -135.154523 -68.602471 
L -134.794046 -70.886278 
L -131.051723 -69.732312 
L -127.272429 -70.35551 
L -122.369717 -68.755686 
L -116.348601 -67.945591 
L -116.848821 -67.285264 
L -121.441656 -66.001895 
L -128.365454 -68.420431 
L -133.711204 -68.06857 
z
" clip-path="url(#p294f2d0f27)" style="fill: #e8edf4; stroke: #b8c5d4; stroke-width: 0.45"/>
    <path d="M -31.352546 -32.559119 
L -22.607875 -35.637825 
L -18.582309 -35.228312 
L -16.013693 -33.346498 
L -21.259336 -30.465186 
L -27.315074 -28.15412 
L -30.415242 -29.718852 
z
" clip-path="url(#p294f2d0f27)" style="fill: #e8edf4; stroke: #b8c5d4; stroke-width: 0.45"/>
    <path d="M -43.718703 188.954934 
L -43.124696 188.435139 
L -39.384212 189.941531 
L -39.891092 190.669534 
L -41.923402 191.103414 
z
" clip-path="url(#p294f2d0f27)" style="fill: #e8edf4; stroke: #b8c5d4; stroke-width: 0.45"/>
    <path d="M -53.311225 184.999572 
L -51.689634 184.163826 
L -49.431896 186.5575 
L -49.760519 186.907648 
L -52.304862 186.616495 
z
" clip-path="url(#p294f2d0f27)" style="fill: #e8edf4; stroke: #b8c5d4; stroke-width: 0.45"/>
    <path d="M -62.453619 182.051604 
L -61.214855 181.015713 
L -59.817236 181.144495 
L -59.692517 182.556847 
L -60.411608 183.15716 
z
" clip-path="url(#p294f2d0f27)" style="fill: #e8edf4; stroke: #b8c5d4; stroke-width: 0.45"/>
    <path d="M -108.86568 -49.244162 
L -102.878403 -50.281572 
L -98.068121 -49.732475 
L -97.490511 -47.406526 
L -101.210901 -46.463426 
z
" clip-path="url(#p294f2d0f27)" style="fill: #e8edf4; stroke: #b8c5d4; stroke-width: 0.45"/>
    <path d="M -47.445484 187.918073 
L -46.991111 187.17952 
L -44.007855 187.438659 
L -44.196359 188.094147 
z
" clip-path="url(#p294f2d0f27)" style="fill: #e8edf4; stroke: #b8c5d4; stroke-width: 0.45"/>
    <path d="M 454.991291 204.623407 
L 455.525506 202.668902 
L 465.681223 203.997389 
L 467.864297 202.647596 
L 465.094841 200.021015 
L 465.140586 197.705093 
L 461.315233 196.759486 
L 462.680848 195.085248 
L 471.638735 196.305325 
L 472.16919 199.607429 
L 471.705786 201.938234 
L 470.227531 202.959979 
L 471.788033 204.780382 
L 471.663331 206.427517 
L 467.636355 205.397 
L 464.774939 205.817479 
L 461.075541 205.379141 
L 458.238721 206.512428 
z
" clip-path="url(#p294f2d0f27)" style="fill: #e8edf4; stroke: #b8c5d4; stroke-width: 0.45"/>
    <path d="M 470.227531 202.959979 
L 471.705786 201.938234 
L 472.16919 199.607429 
L 471.638735 196.305325 
L 472.396975 195.271831 
L 477.129866 195.299873 
L 480.721324 196.860532 
L 482.319268 196.708257 
L 483.420126 198.859059 
L 486.737427 198.738116 
L 486.54207 200.545047 
L 489.239776 200.764059 
L 492.219628 202.988491 
L 489.967937 205.456531 
L 487.084118 204.137757 
L 482.306422 204.103449 
L 481.21324 205.20932 
L 478.885568 205.582957 
L 477.96299 204.112065 
L 475.958197 204.982475 
L 473.531359 209.134309 
L 471.970387 208.170216 
L 471.788033 204.780382 
z
" clip-path="url(#p294f2d0f27)" style="fill: #e8edf4; stroke: #b8c5d4; stroke-width: 0.45"/>
    <path d="M 431.039111 166.831198 
L 432.358515 162.983154 
L 434.182737 163.2275 
L 436.304842 168.259921 
L 436.337219 171.778068 
L 434.849684 172.07971 
L 433.309339 168.586422 
z
" clip-path="url(#p294f2d0f27)" style="fill: #e8edf4; stroke: #b8c5d4; stroke-width: 0.45"/>
    <path d="M 434.789053 151.889394 
L 439.578947 154.617815 
L 438.532749 158.927629 
L 437.417977 158.150514 
L 437.517474 154.981605 
L 434.801058 152.585687 
z
" clip-path="url(#p294f2d0f27)" style="fill: #e8edf4; stroke: #b8c5d4; stroke-width: 0.45"/>
    <path d="M 427.573895 153.405184 
L 430.423579 152.920131 
L 434.425263 153.102026 
L 434.607158 154.678447 
L 427.998316 155.648552 
z
" clip-path="url(#p294f2d0f27)" style="fill: #e8edf4; stroke: #b8c5d4; stroke-width: 0.45"/>
    <path d="M 196.278003 118.57028 
L 210.868204 117.445625 
L 210.300632 118.631276 
L 233.288428 125.849829 
L 250.154132 125.804355 
L 250.165895 123.302492 
L 260.66977 123.304515 
L 262.880943 125.454329 
L 269.583946 130.037652 
L 273.103003 136.537721 
L 276.237474 138.368552 
L 281.269895 140.1875 
L 285.089684 135.397605 
L 290.046922 135.280586 
L 294.320236 137.6973 
L 299.459368 145.401815 
L 303.036632 148.857815 
L 304.370526 153.102026 
L 306.068211 155.95171 
L 315.102316 159.165184 
L 317.466897 158.983304 
L 315.114003 164.305868 
L 314.05372 168.670135 
L 313.610525 176.793331 
L 313.026492 179.754384 
L 314.077376 183.061972 
L 315.957466 186.018795 
L 317.167831 190.721294 
L 321.1923 195.235329 
L 322.607734 198.694721 
L 324.979897 201.6799 
L 331.417889 203.288497 
L 333.923998 205.824998 
L 339.241862 204.130551 
L 343.865247 203.518163 
L 352.221554 201.38851 
L 356.077926 198.914517 
L 357.522655 195.377891 
L 358.020524 190.284209 
L 359.068588 188.511744 
L 363.175147 186.923983 
L 369.586663 185.517636 
L 374.955285 185.728815 
L 378.63275 185.21528 
L 380.087349 186.500841 
L 379.881653 189.421163 
L 376.623413 193.025466 
L 375.181817 196.717031 
L 376.299281 197.772927 
L 373.871346 205.125036 
L 372.3345 203.567824 
L 369.912518 203.748611 
L 367.740568 207.40853 
L 366.640023 206.691178 
L 365.906065 206.970348 
L 365.953534 207.862534 
L 354.685521 207.806292 
L 354.680978 211.21947 
L 351.942541 211.234509 
L 356.442006 214.658339 
L 357.114866 215.972257 
L 358.096975 216.340097 
L 357.941724 218.404892 
L 350.159736 218.423064 
L 347.241608 223.365255 
L 348.102775 224.498228 
L 347.399366 225.919929 
L 347.250695 227.68597 
L 340.388935 221.158369 
L 337.262134 219.189451 
L 332.311641 217.608113 
L 328.924939 218.048644 
L 324.055283 220.329788 
L 320.999137 220.92745 
L 312.173629 218.17601 
L 306.506724 215.394647 
L 301.961043 214.545073 
L 295.096933 211.726269 
L 290.024557 208.82835 
L 288.493978 207.2091 
L 285.10101 206.847369 
L 278.899263 204.928113 
L 276.373728 202.161633 
L 269.858973 198.720414 
L 266.821156 194.896784 
L 265.375957 191.941998 
L 267.398766 191.350132 
L 266.774941 189.621062 
L 268.168912 188.048341 
L 268.198834 185.951587 
L 266.153466 183.228973 
L 265.606249 180.816234 
L 263.573256 177.756327 
L 258.230013 171.729415 
L 252.1337 166.993234 
L 249.18424 163.21347 
L 243.980269 160.73791 
L 242.865311 159.256835 
L 243.789612 155.509499 
L 240.69853 154.095319 
L 237.119605 151.148992 
L 235.608138 146.918357 
L 232.346766 146.425031 
L 225.984598 140.282032 
L 225.720311 138.387685 
L 222.459722 133.814432 
L 220.312054 129.171464 
L 220.403857 126.842696 
L 216.018911 124.43779 
L 213.994691 124.701921 
L 210.534359 123.031599 
L 209.562747 125.49353 
L 210.566005 128.403041 
L 211.156147 132.956085 
L 218.734162 141.059542 
L 219.65627 141.492396 
L 220.456182 143.57505 
L 221.533854 143.490767 
L 222.750798 147.401343 
L 224.592037 148.943829 
L 225.883239 151.090714 
L 229.693709 154.176313 
L 231.705552 159.816429 
L 235.189853 165.3132 
L 235.523071 168.510968 
L 238.446682 168.711337 
L 243.07743 174.173486 
L 242.930169 175.259305 
L 240.378628 177.4864 
L 239.304402 177.457261 
L 237.705675 173.771494 
L 233.73776 170.315548 
L 226.264709 165.844281 
L 226.465078 161.407793 
L 225.545164 158.122294 
L 218.487891 153.537448 
L 217.687196 154.317934 
L 216.158026 152.73785 
L 212.41821 151.270404 
L 208.844612 147.749914 
L 209.286553 147.292307 
L 211.783889 147.636178 
L 214.033543 145.371484 
L 214.259762 142.636336 
L 209.592199 138.311078 
L 206.034267 136.632297 
L 198.741062 124.024674 
z
" clip-path="url(#p294f2d0f27)" style="fill: #e8edf4; stroke: #b8c5d4; stroke-width: 0.45"/>
    <path d="M 457.845814 361.455352 
L 459.445482 360.346818 
L 459.438902 357.78572 
L 463.103834 356.035502 
L 462.499435 352.756896 
L 464.046777 350.647297 
L 464.486839 347.817683 
L 471.420193 343.691227 
L 476.389329 342.524728 
L 477.202244 341.613273 
L 482.665959 341.89777 
L 485.534739 322.643797 
L 484.585372 319.171872 
L 481.895813 316.959816 
L 481.926675 312.554503 
L 485.341262 311.555632 
L 486.553663 312.183216 
L 486.758576 309.860871 
L 483.205814 309.233913 
L 483.130773 305.440049 
L 494.944279 305.575561 
L 496.949699 303.485544 
L 498.63412 305.40856 
L 499.816129 308.985135 
L 500.960382 308.237861 
L 504.298519 311.444716 
L 509.01261 311.051809 
L 510.186159 309.196314 
L 517.191578 306.785769 
L 517.89624 304.217935 
L 522.227138 302.492782 
L 521.899246 301.2185 
L 516.762953 300.697445 
L 515.921212 296.878985 
L 516.16576 292.814098 
L 513.452075 291.242316 
L 514.588339 290.684289 
L 519.076995 291.460075 
L 523.898086 292.975615 
L 525.648305 291.542322 
L 530.008342 290.601572 
L 536.790205 288.331864 
L 539.007587 286.017979 
L 538.204855 284.307082 
L 541.357035 284.039035 
L 542.768082 285.436139 
L 541.979607 288.098439 
L 544.062887 289.016787 
L 545.453568 291.834338 
L 543.771811 293.970414 
L 542.807091 299.131773 
L 544.359133 302.197319 
L 544.798725 305.002964 
L 548.528671 307.847775 
L 551.504763 308.148564 
L 552.17496 306.961072 
L 556.834534 305.635406 
L 558.805958 304.022892 
L 566.931347 304.816381 
L 567.477624 303.577504 
L 566.46058 302.372153 
L 567.067015 300.616451 
L 569.513906 301.155209 
L 572.376733 300.535301 
L 578.497642 303.070862 
L 580.374443 301.426859 
L 581.730659 301.680337 
L 582.557517 303.387161 
L 585.460605 302.953836 
L 587.784204 300.65076 
L 589.646122 296.185916 
L 593.232723 290.63729 
L 595.298144 290.350757 
L 596.798018 293.704246 
L 600.198819 304.307702 
L 603.441392 305.30861 
L 603.604947 309.49397 
L 599.04454 314.485196 
L 600.930427 316.312805 
L 611.647932 317.264992 
L 611.866631 323.342193 
L 616.471843 319.363625 
L 624.101556 321.542782 
L 634.171737 325.245626 
L 637.131067 328.798702 
L 636.136895 332.155011 
L 643.187118 330.286356 
L 654.986839 333.493211 
L 664.045145 333.256966 
L 673.008201 338.274823 
L 680.75165 345.067339 
L 685.42219 346.816304 
L 690.607049 347.059443 
L 692.804378 348.971962 
L 695.868671 360.36029 
L 693.454209 370.383786 
L 690.36955 374.342301 
L 681.823213 382.778819 
L 677.960418 389.633059 
L 673.472075 394.889355 
L 671.956221 395.007791 
L 670.262244 399.468562 
L 670.692592 410.829004 
L 668.358027 424.172151 
L 666.440964 426.564367 
L 665.365955 434.669703 
L 659.218414 442.58454 
L 658.187583 448.8466 
L 653.280015 451.474122 
L 651.860508 455.108348 
L 645.273375 455.093935 
L 635.735372 457.4238 
L 631.464945 460.121193 
L 624.674466 461.892404 
L 617.538862 466.720075 
L 612.406485 472.733671 
L 611.524013 477.260866 
L 612.532128 480.609029 
L 611.399624 486.734168 
L 610.023669 489.692871 
L 605.786297 493.029754 
L 599.058953 503.700887 
L 593.727302 508.510386 
L 589.605233 511.345953 
L 586.84032 517.113278 
L 582.829167 520.58019 
L 581.150386 517.146177 
L 583.823966 514.270191 
L 580.317262 510.144675 
L 569.32137 502.909122 
L 567.067485 503.086149 
L 560.987465 498.396966 
L 557.051823 499.04335 
L 565.141493 490.776026 
L 571.984453 484.889639 
L 581.161352 479.078449 
L 581.284958 474.236365 
L 578.243068 470.736554 
L 575.240343 471.898354 
L 577.252186 464.813822 
L 577.255319 461.480385 
L 575.073342 460.38031 
L 572.799248 461.360696 
L 570.538627 461.091865 
L 569.829892 458.757927 
L 569.265755 453.201781 
L 568.130275 451.390778 
L 564.035465 449.749909 
L 561.560531 450.937401 
L 555.159982 449.773408 
L 555.563071 441.542743 
L 553.770084 438.171707 
L 555.665371 436.918418 
L 555.082122 433.462472 
L 556.743357 430.805812 
L 557.820402 426.030152 
L 556.388362 422.260571 
L 553.076388 420.55829 
L 552.426088 418.165761 
L 553.316393 414.66407 
L 541.69229 414.413725 
L 539.360545 407.353946 
L 541.129876 407.252743 
L 541.049979 404.638068 
L 539.868441 402.867796 
L 539.60102 399.362972 
L 536.079433 397.564815 
L 532.265203 397.624346 
L 529.755804 395.863475 
L 525.657235 394.662197 
L 523.271755 392.396876 
L 516.481902 391.396124 
L 509.897746 385.965308 
L 510.385119 381.900577 
L 509.639725 379.569771 
L 510.284856 375.025657 
L 502.351377 376.052415 
L 499.156742 378.329015 
L 493.855171 380.786089 
L 492.502715 382.619965 
L 484.872689 382.239278 
L 481.452618 383.283581 
L 478.694285 382.587379 
L 479.099254 373.377268 
L 474.124321 376.950396 
L 468.773715 376.793735 
L 466.480979 373.559622 
L 462.45698 373.208074 
L 463.738311 370.604679 
L 460.369156 366.915934 
z
" clip-path="url(#p294f2d0f27)" style="fill: #e8edf4; stroke: #b8c5d4; stroke-width: 0.45"/>
    <path d="M 412.834706 344.556937 
L 414.722003 340.310479 
L 419.555001 336.481366 
L 420.273763 339.005491 
L 418.544066 340.449281 
L 418.708091 342.671049 
L 421.2142 342.18822 
L 423.663284 342.84369 
L 426.207932 345.905163 
L 429.635992 343.411117 
L 430.783221 339.32038 
L 434.498598 334.044971 
L 441.78961 331.654008 
L 448.400868 325.30547 
L 450.288166 321.363248 
L 449.442352 316.758976 
L 451.058782 316.18403 
L 455.090927 319.055629 
L 457.02632 321.917516 
L 459.832905 323.479741 
L 463.40478 329.836739 
L 467.919442 330.596232 
L 471.260398 328.992961 
L 473.449895 330.041965 
L 477.088821 329.52091 
L 481.731788 332.360237 
L 477.821212 338.530808 
L 479.631902 338.674623 
L 482.665959 341.89777 
L 477.202244 341.613273 
L 476.389329 342.524728 
L 471.420193 343.691227 
L 464.486839 347.817683 
L 464.046777 350.647297 
L 462.499435 352.756896 
L 463.103834 356.035502 
L 459.438902 357.78572 
L 459.445482 360.346818 
L 457.845814 361.455352 
L 460.369156 366.915934 
L 463.738311 370.604679 
L 462.45698 373.208074 
L 466.480979 373.559622 
L 468.773715 376.793735 
L 474.124321 376.950396 
L 479.099254 373.377268 
L 478.694285 382.587379 
L 481.452618 383.283581 
L 484.872689 382.239278 
L 490.114885 391.99833 
L 488.811307 394.050278 
L 488.394119 403.471882 
L 486.025558 406.500769 
L 487.112003 408.748857 
L 485.721009 410.787019 
L 488.328948 415.883521 
L 482.879332 425.536043 
L 479.762087 427.083855 
L 473.682693 423.602531 
L 473.156469 421.114751 
L 461.136326 415.026584 
L 450.262943 408.395429 
L 445.586293 404.65812 
L 443.074545 399.649349 
L 444.070283 397.902263 
L 438.935086 389.945442 
L 432.957052 378.758893 
L 427.228579 366.686269 
L 424.748946 363.923079 
L 422.841126 359.457609 
L 418.130638 355.500347 
L 413.810549 353.04578 
L 415.772887 350.339928 
z
" clip-path="url(#p294f2d0f27)" style="fill: #e8edf4; stroke: #b8c5d4; stroke-width: 0.45"/>
    <path d="M 427.507593 305.582141 
L 429.76978 305.127197 
L 429.501263 302.08985 
L 430.92312 299.893773 
L 433.930858 299.487237 
L 438.804744 292.496232 
L 436.569972 291.053382 
L 437.713912 287.534459 
L 436.345947 281.987713 
L 437.645921 280.395879 
L 436.688878 275.267888 
L 434.233841 272.038318 
L 435.01088 269.091208 
L 436.965072 269.526413 
L 438.108228 267.724339 
L 436.700628 264.153091 
L 437.436465 263.266545 
L 440.569219 263.459081 
L 445.118346 259.226566 
L 447.615056 258.581279 
L 448.792365 251.452568 
L 452.269773 248.638933 
L 456.090426 248.523788 
L 456.572629 247.260002 
L 461.3168 247.766017 
L 468.450523 243.348799 
L 471.385727 240.427851 
L 473.533709 240.799294 
L 475.124446 242.394262 
L 473.947451 244.435714 
L 470.052854 245.451975 
L 468.514911 248.483369 
L 466.16797 250.221838 
L 464.405845 252.475096 
L 463.664211 256.801608 
L 461.98261 260.347164 
L 465.112543 260.75323 
L 465.890053 263.540702 
L 467.227783 264.874672 
L 467.706539 267.315923 
L 466.986368 269.560095 
L 467.19974 270.825604 
L 468.692095 271.330993 
L 470.136198 273.445919 
L 477.933068 272.862826 
L 481.455281 273.635322 
L 485.722732 278.852766 
L 488.173226 278.204345 
L 492.540314 278.528947 
L 495.996103 277.837445 
L 498.140324 278.879399 
L 497.048396 282.145001 
L 495.695313 284.180656 
L 495.220473 288.529101 
L 496.440237 292.5578 
L 498.163823 294.359403 
L 498.372339 295.716873 
L 495.299744 298.735107 
L 497.499737 300.07127 
L 499.11131 302.191209 
L 500.960382 308.237861 
L 499.816129 308.985135 
L 498.63412 305.40856 
L 496.949699 303.485544 
L 494.944279 305.575561 
L 483.130773 305.440049 
L 483.205814 309.233913 
L 486.758576 309.860871 
L 486.553663 312.183216 
L 485.341262 311.555632 
L 481.926675 312.554503 
L 481.895813 316.959816 
L 484.585372 319.171872 
L 485.534739 322.643797 
L 482.665959 341.89777 
L 479.631902 338.674623 
L 477.821212 338.530808 
L 481.731788 332.360237 
L 477.088821 329.52091 
L 473.449895 330.041965 
L 471.260398 328.992961 
L 467.919442 330.596232 
L 463.40478 329.836739 
L 459.832905 323.479741 
L 457.02632 321.917516 
L 455.090927 319.055629 
L 451.058782 316.18403 
L 449.442352 316.758976 
L 443.869757 313.314623 
L 442.147424 314.279343 
L 437.0022 313.438072 
L 435.525042 310.829664 
L 434.394575 310.92648 
L 428.330221 307.464425 
z
" clip-path="url(#p294f2d0f27)" style="fill: #e8edf4; stroke: #b8c5d4; stroke-width: 0.45"/>
    <path d="M 403.407463 265.96754 
L 404.232127 263.534592 
L 403.996352 262.437337 
L 404.902637 261.719202 
L 403.641671 260.818087 
L 403.606892 258.377776 
L 405.951484 257.836198 
L 408.128604 260.010969 
L 408.004529 261.295591 
L 410.423847 261.568181 
L 410.996287 261.075012 
L 412.662849 262.564859 
L 415.645834 262.126678 
L 418.225104 260.595315 
L 421.907269 259.372418 
L 423.976606 257.560475 
L 427.324142 257.916252 
L 427.098237 258.512661 
L 430.478829 258.719454 
L 433.176691 259.766734 
L 437.436465 263.266545 
L 436.700628 264.153091 
L 438.108228 267.724339 
L 436.965072 269.526413 
L 435.01088 269.091208 
L 434.233841 272.038318 
L 432.212598 270.289196 
L 430.91372 267.016387 
L 432.411714 265.396667 
L 430.875495 264.981202 
L 429.743774 262.977818 
L 426.72319 261.292457 
L 424.070133 261.678784 
L 422.841126 263.787913 
L 420.392198 265.310973 
L 419.069351 265.522623 
L 418.474979 266.784372 
L 421.367101 270.075353 
L 418.835926 271.748495 
L 416.015085 272.057901 
L 414.965298 268.435894 
L 414.176039 269.466725 
L 412.176416 269.11079 
L 410.952892 266.671262 
L 406.892861 265.559281 
L 404.290875 265.568368 
L 404.103665 266.884322 
z
" clip-path="url(#p294f2d0f27)" style="fill: #e8edf4; stroke: #b8c5d4; stroke-width: 0.45"/>
    <path d="M 385.363854 249.77739 
L 387.667087 247.826019 
L 391.661791 249.431639 
L 393.055918 248.641283 
L 394.978778 249.147142 
L 395.983759 250.394792 
L 397.773143 250.798665 
L 399.224922 249.51373 
L 400.760672 252.808001 
L 405.951484 257.836198 
L 403.606892 258.377776 
L 403.641671 260.818087 
L 404.902637 261.719202 
L 403.996352 262.437337 
L 404.232127 263.534592 
L 403.407463 265.96754 
L 400.117265 264.622134 
L 398.886221 263.349419 
L 399.58446 262.296812 
L 399.364194 260.957202 
L 397.68322 259.50558 
L 393.210073 257.536662 
L 392.811684 255.763101 
L 391.221259 254.679789 
L 391.611032 256.44254 
L 390.401138 257.891343 
L 389.015313 256.208802 
L 387.067231 255.60973 
L 386.23865 254.387772 
L 386.273429 252.541834 
L 387.076161 250.631977 
z
" clip-path="url(#p294f2d0f27)" style="fill: #e8edf4; stroke: #b8c5d4; stroke-width: 0.45"/>
    <path d="M 374.894187 237.562361 
L 375.56736 236.624744 
L 376.568269 237.537452 
L 378.91239 236.859736 
L 379.67157 235.474851 
L 380.561249 235.420959 
L 380.432317 232.439384 
L 383.117959 232.339277 
L 384.426864 230.721437 
L 386.215308 231.946998 
L 390.071053 228.804374 
L 390.171786 227.556411 
L 390.753626 227.608893 
L 391.531448 226.16009 
L 392.16483 225.98369 
L 393.198323 226.910027 
L 394.412448 227.184028 
L 395.752371 226.413098 
L 397.284047 226.409025 
L 399.38879 225.616946 
L 400.229121 224.791185 
L 402.307388 224.915104 
L 401.477084 226.850496 
L 402.095739 229.069132 
L 400.698948 231.134396 
L 400.048177 233.574081 
L 399.851881 236.245781 
L 400.330167 240.538297 
L 399.40383 241.133923 
L 398.836873 243.727292 
L 399.253748 245.328526 
L 398.013148 246.879002 
L 398.295295 248.517678 
L 399.224922 249.51373 
L 397.773143 250.798665 
L 395.983759 250.394792 
L 394.978778 249.147142 
L 393.055918 248.641283 
L 391.661791 249.431639 
L 387.667087 247.826019 
L 386.753439 248.606191 
L 381.822215 244.250227 
L 380.487462 242.206425 
z
" clip-path="url(#p294f2d0f27)" style="fill: #e8edf4; stroke: #b8c5d4; stroke-width: 0.45"/>
    <path d="M 364.678781 228.381389 
L 365.938651 226.842036 
L 365.455508 225.652038 
L 365.882409 224.487105 
L 371.519862 220.477519 
L 372.14964 220.714391 
L 373.479537 219.648468 
L 379.534335 220.301745 
L 382.337003 220.143361 
L 384.998677 218.793881 
L 388.381619 219.519379 
L 391.172381 218.851376 
L 394.90405 219.826122 
L 398.507258 222.318601 
L 400.711794 223.247289 
L 402.307388 224.915104 
L 400.229121 224.791185 
L 399.38879 225.616946 
L 397.284047 226.409025 
L 395.752371 226.413098 
L 394.412448 227.184028 
L 393.198323 226.910027 
L 392.16483 225.98369 
L 391.531448 226.16009 
L 390.753626 227.608893 
L 390.171786 227.556411 
L 390.071053 228.804374 
L 386.215308 231.946998 
L 384.426864 230.721437 
L 383.117959 232.339277 
L 380.432317 232.439384 
L 380.561249 235.420959 
L 379.67157 235.474851 
L 378.91239 236.859736 
L 377.027443 237.108984 
L 375.980006 235.21213 
L 374.13861 234.684965 
L 374.560656 232.256247 
L 373.735991 231.599836 
L 372.488028 231.167452 
L 369.828391 231.889816 
L 369.602642 231.073298 
L 366.466286 228.891321 
z
" clip-path="url(#p294f2d0f27)" style="fill: #e8edf4; stroke: #b8c5d4; stroke-width: 0.45"/>
    <path d="M 360.178532 232.557663 
L 360.365742 231.668611 
L 363.581997 229.468618 
L 363.259901 228.754556 
L 364.678781 228.381389 
L 366.466286 228.891321 
L 369.602642 231.073298 
L 369.828391 231.889816 
L 372.488028 231.167452 
L 374.560656 232.256247 
L 373.465594 236.112619 
L 369.953877 236.022068 
L 367.771587 235.441325 
L 365.264381 234.235974 
L 361.895382 233.859517 
z
" clip-path="url(#p294f2d0f27)" style="fill: #e8edf4; stroke: #b8c5d4; stroke-width: 0.45"/>
    <path d="M 347.241608 223.365255 
L 350.159736 218.423064 
L 357.941724 218.404892 
L 358.096975 216.340097 
L 357.114866 215.972257 
L 356.442006 214.658339 
L 351.942541 211.234509 
L 354.680978 211.21947 
L 354.685521 207.806292 
L 365.953534 207.862534 
L 365.431852 219.512173 
L 367.241758 219.510136 
L 369.218509 220.606921 
L 369.741288 219.703456 
L 371.519862 220.477519 
L 365.882409 224.487105 
L 365.455508 225.652038 
L 365.938651 226.842036 
L 364.678781 228.381389 
L 363.259901 228.754556 
L 363.581997 229.468618 
L 360.365742 231.668611 
L 360.178532 232.557663 
L 357.067711 231.500043 
L 353.285597 231.390537 
L 350.512694 230.187693 
L 347.250695 227.68597 
L 347.399366 225.919929 
L 348.102775 224.498228 
z
" clip-path="url(#p294f2d0f27)" style="fill: #e8edf4; stroke: #b8c5d4; stroke-width: 0.45"/>
    <path d="M 365.431852 219.512173 
L 365.906065 206.970348 
L 366.640023 206.691178 
L 367.740568 207.40853 
L 369.912518 203.748611 
L 371.065075 203.668871 
L 371.087477 204.558393 
L 372.236587 204.586278 
L 372.135541 206.235451 
L 371.154058 208.857959 
L 371.684513 209.795733 
L 370.729193 215.608489 
L 369.538411 217.217086 
L 368.44335 217.410093 
L 367.241758 219.510136 
z
" clip-path="url(#p294f2d0f27)" style="fill: #e8edf4; stroke: #b8c5d4; stroke-width: 0.45"/>
    <path d="M 461.98261 260.347164 
L 463.664211 256.801608 
L 464.405845 252.475096 
L 466.16797 250.221838 
L 468.514911 248.483369 
L 470.052854 245.451975 
L 473.947451 244.435714 
L 473.775124 245.86838 
L 470.215781 246.576019 
L 472.193472 249.327616 
L 472.119528 252.498438 
L 469.445008 256.020182 
L 471.740095 260.83062 
L 474.35383 260.436931 
L 475.715372 256.054491 
L 473.835281 253.920609 
L 473.528852 249.330593 
L 481.079451 246.865842 
L 480.239434 244.008029 
L 482.36517 242.095196 
L 484.541507 246.355753 
L 488.793605 246.454137 
L 492.733007 249.835198 
L 492.970348 251.842655 
L 498.414325 251.895919 
L 504.892108 251.272878 
L 508.364033 253.98813 
L 513.001047 254.73744 
L 516.402318 252.843406 
L 516.471876 251.316586 
L 531.248159 250.866656 
L 526.099489 252.65745 
L 528.170707 255.519649 
L 533.019684 255.97522 
L 537.616593 258.956639 
L 538.582722 263.814232 
L 541.742578 263.677311 
L 544.118189 265.106531 
L 539.31433 268.668223 
L 538.784502 270.878869 
L 540.859949 273.128836 
L 539.354279 274.26463 
L 535.623392 275.237809 
L 535.744178 278.037658 
L 534.101742 279.706413 
L 538.204855 284.307082 
L 539.007587 286.017979 
L 536.790205 288.331864 
L 530.008342 290.601572 
L 525.648305 291.542322 
L 523.898086 292.975615 
L 519.076995 291.460075 
L 514.588339 290.684289 
L 513.452075 291.242316 
L 516.16576 292.814098 
L 515.921212 296.878985 
L 516.762953 300.697445 
L 521.899246 301.2185 
L 522.227138 302.492782 
L 517.89624 304.217935 
L 517.191578 306.785769 
L 510.186159 309.196314 
L 509.01261 311.051809 
L 504.298519 311.444716 
L 500.960382 308.237861 
L 499.11131 302.191209 
L 497.499737 300.07127 
L 495.299744 298.735107 
L 498.372339 295.716873 
L 498.163823 294.359403 
L 496.440237 292.5578 
L 495.220473 288.529101 
L 495.695313 284.180656 
L 497.048396 282.145001 
L 498.140324 278.879399 
L 495.996103 277.837445 
L 492.540314 278.528947 
L 488.173226 278.204345 
L 485.722732 278.852766 
L 481.455281 273.635322 
L 477.933068 272.862826 
L 470.136198 273.445919 
L 468.692095 271.330993 
L 467.19974 270.825604 
L 466.986368 269.560095 
L 467.706539 267.315923 
L 467.227783 264.874672 
L 465.890053 263.540702 
L 465.112543 260.75323 
z
" clip-path="url(#p294f2d0f27)" style="fill: #e8edf4; stroke: #b8c5d4; stroke-width: 0.45"/>
    <path d="M 534.101742 279.706413 
L 535.744178 278.037658 
L 535.623392 275.237809 
L 539.354279 274.26463 
L 540.859949 273.128836 
L 538.784502 270.878869 
L 539.31433 268.668223 
L 544.118189 265.106531 
L 548.099263 267.336759 
L 551.850671 271.286971 
L 552.020962 274.408915 
L 554.305395 274.552573 
L 559.948175 279.621033 
L 558.979225 285.075348 
L 555.298627 286.65747 
L 555.626519 288.087316 
L 554.507958 291.215527 
L 557.194698 295.618646 
L 559.13573 295.625696 
L 559.932038 299.048743 
L 563.634882 304.320078 
L 562.159604 304.537211 
L 558.805958 304.022892 
L 556.834534 305.635406 
L 552.17496 306.961072 
L 551.504763 308.148564 
L 548.528671 307.847775 
L 544.798725 305.002964 
L 544.359133 302.197319 
L 542.807091 299.131773 
L 543.771811 293.970414 
L 545.453568 291.834338 
L 544.062887 289.016787 
L 541.979607 288.098439 
L 542.768082 285.436139 
L 541.357035 284.039035 
L 538.204855 284.307082 
z
" clip-path="url(#p294f2d0f27)" style="fill: #e8edf4; stroke: #b8c5d4; stroke-width: 0.45"/>
    <path d="M 554.507958 291.215527 
L 555.626519 288.087316 
L 555.298627 286.65747 
L 558.979225 285.075348 
L 559.948175 279.621033 
L 567.212554 280.835313 
L 567.864578 279.742445 
L 572.766819 279.30489 
L 579.285961 280.934323 
L 576.129552 286.147381 
L 576.609091 290.295456 
L 578.989558 293.888323 
L 577.396314 299.270262 
L 575.849911 301.820079 
L 572.376733 300.535301 
L 569.513906 301.155209 
L 567.067015 300.616451 
L 566.46058 302.372153 
L 567.477624 303.577504 
L 566.931347 304.816381 
L 563.634882 304.320078 
L 559.932038 299.048743 
L 559.13573 295.625696 
L 557.194698 295.618646 
z
" clip-path="url(#p294f2d0f27)" style="fill: #e8edf4; stroke: #b8c5d4; stroke-width: 0.45"/>
    <path d="M 878.597963 20.657432 
L 886.459065 19.338501 
L 896.640945 20.898377 
L 894.719026 14.035364 
L 900.442799 16.636253 
L 914.559225 11.908218 
L 916.379628 6.939865 
L 921.682295 5.715715 
L 922.560538 7.847873 
L 925.378873 7.947823 
L 932.428939 13.240151 
L 935.540544 12.767975 
L 942.201151 16.058486 
L 943.950743 15.930337 
L 946.812003 17.517942 
L 955.54931 18.634623 
L 952.483764 22.786457 
L 951.714244 27.106076 
L 950.049563 28.141763 
L 947.286999 27.583736 
L 947.481886 29.124342 
L 943.047748 32.53141 
L 942.958138 35.27674 
L 945.853236 34.326747 
L 947.93589 36.9856 
L 947.685859 38.698847 
L 949.47023 40.975447 
L 947.36815 42.822169 
L 948.930062 47.513545 
L 952.2165 48.282752 
L 951.522804 50.914503 
L 946.02995 54.3399 
L 934.071689 52.698247 
L 925.240384 54.665442 
L 924.546689 58.316587 
L 917.518241 59.102556 
L 910.69596 56.359889 
L 908.491737 57.670673 
L 897.330568 54.91516 
L 894.913912 52.557879 
L 898.049329 48.921146 
L 899.203922 36.841472 
L 892.947188 30.478521 
L 888.475294 27.410782 
L 879.209098 25.078724 
z
" clip-path="url(#p294f2d0f27)" style="fill: #e8edf4; stroke: #b8c5d4; stroke-width: 0.45"/>
    <path d="M 575.849911 301.820079 
L 577.396314 299.270262 
L 578.989558 293.888323 
L 576.609091 290.295456 
L 576.129552 286.147381 
L 579.285961 280.934323 
L 585.809333 283.036403 
L 592.228995 288.154211 
L 593.232723 290.63729 
L 589.646122 296.185916 
L 587.784204 300.65076 
L 585.460605 302.953836 
L 582.557517 303.387161 
L 581.730659 301.680337 
L 580.374443 301.426859 
L 578.497642 303.070862 
z
" clip-path="url(#p294f2d0f27)" style="fill: #e8edf4; stroke: #b8c5d4; stroke-width: 0.45"/>
    <path d="M 958.247016 59.629251 
L 959.47054 57.37615 
L 963.375163 55.060855 
L 964.405994 60.259969 
L 962.40355 64.943669 
L 959.6507 63.709179 
z
" clip-path="url(#p294f2d0f27)" style="fill: #e8edf4; stroke: #b8c5d4; stroke-width: 0.45"/>
    <path d="M 415.521759 329.460752 
L 416.752332 327.751578 
L 415.728552 322.248697 
L 417.852407 321.334423 
L 418.968305 317.557322 
L 421.262765 313.652385 
L 420.840093 311.178078 
L 424.16178 309.877477 
L 428.330221 307.464425 
L 434.394575 310.92648 
L 435.525042 310.829664 
L 437.0022 313.438072 
L 442.147424 314.279343 
L 443.869757 313.314623 
L 449.442352 316.758976 
L 450.288166 321.363248 
L 448.400868 325.30547 
L 441.78961 331.654008 
L 434.498598 334.044971 
L 430.783221 339.32038 
L 429.635992 343.411117 
L 426.207932 345.905163 
L 423.663284 342.84369 
L 421.2142 342.18822 
L 418.708091 342.671049 
L 418.544066 340.449281 
L 420.273763 339.005491 
L 419.555001 336.481366 
L 422.782221 331.950098 
L 421.470967 329.302211 
L 419.153478 332.117725 
z
" clip-path="url(#p294f2d0f27)" style="fill: #e8edf4; stroke: #b8c5d4; stroke-width: 0.45"/>
    <path d="M 498.74065 204.429931 
L 499.600093 203.543855 
L 504.56124 203.57926 
L 507.660311 204.113318 
L 508.753493 205.31773 
L 507.200354 206.846429 
L 499.093921 207.024396 
z
" clip-path="url(#p294f2d0f27)" style="fill: #e8edf4; stroke: #b8c5d4; stroke-width: 0.45"/>
    <path d="M 431.468144 205.330262 
L 432.195679 203.944438 
L 436.125368 203.726209 
L 440.205765 204.269823 
L 443.426876 205.725989 
L 444.431544 207.386284 
L 440.169733 207.499237 
L 438.327867 208.512521 
L 434.934429 207.539498 
z
" clip-path="url(#p294f2d0f27)" style="fill: #e8edf4; stroke: #b8c5d4; stroke-width: 0.45"/>
    <path d="M 391.225802 183.078108 
L 394.426234 181.205067 
L 395.740151 179.01745 
L 398.481409 177.669224 
L 401.577817 176.487372 
L 406.168303 175.907099 
L 407.637315 175.240975 
L 417.637781 175.741978 
L 423.332572 177.807556 
L 425.745938 180.027288 
L 431.40924 179.342365 
L 442.466073 187.256888 
L 444.462093 187.173544 
L 448.078146 188.410071 
L 447.636518 190.117051 
L 452.106062 190.366769 
L 456.689028 192.848283 
L 455.969797 194.268573 
L 451.938121 195.038249 
L 447.857097 195.339352 
L 443.679727 194.859656 
L 434.998347 195.450268 
L 439.062922 192.067797 
L 436.591905 190.492882 
L 432.683365 190.087599 
L 430.588335 188.33738 
L 429.151125 184.884411 
L 425.724632 185.1205 
L 420.070886 183.49467 
L 418.25158 182.222894 
L 410.348807 181.283241 
L 408.232471 180.100605 
L 410.506094 178.585692 
L 404.558766 178.275346 
L 400.202018 181.425959 
L 397.6898 181.510556 
L 396.820643 182.989908 
L 393.820112 183.652898 
z
" clip-path="url(#p294f2d0f27)" style="fill: #e8edf4; stroke: #b8c5d4; stroke-width: 0.45"/>
    <path d="M 530.829474 254.659921 
L 532.587789 252.992552 
L 532.466526 250.597605 
L 535.952842 249.809394 
L 537.226105 250.021605 
L 536.983579 254.538657 
L 531.920842 255.205605 
z
" clip-path="url(#p294f2d0f27)" style="fill: #e8edf4; stroke: #b8c5d4; stroke-width: 0.45"/>
   </g>
   <g id="PathCollection_1">
    <defs>
     <path id="m4bdc34bb24" d="M 0 2.12132 
C 0.562581 2.12132 1.102195 1.897805 1.5 1.5 
C 1.897805 1.102195 2.12132 0.562581 2.12132 0 
C 2.12132 -0.562581 1.897805 -1.102195 1.5 -1.5 
C 1.102195 -1.897805 0.562581 -2.12132 0 -2.12132 
C -0.562581 -2.12132 -1.102195 -1.897805 -1.5 -1.5 
C -1.897805 -1.102195 -2.12132 -0.562581 -2.12132 0 
C -2.12132 0.562581 -1.897805 1.102195 -1.5 1.5 
C -1.102195 1.897805 -0.562581 2.12132 0 2.12132 
z
" style="stroke: #ffffff; stroke-width: 0.5"/>
    </defs>
    <g clip-path="url(#p294f2d0f27)">
     <use xlink:href="#m4bdc34bb24" x="531.738947" y="212.460342" style="fill: #8aa0b7; stroke: #ffffff; stroke-width: 0.5"/>
     <use xlink:href="#m4bdc34bb24" x="523.452632" y="205.184552" style="fill: #8aa0b7; stroke: #ffffff; stroke-width: 0.5"/>
     <use xlink:href="#m4bdc34bb24" x="482.223158" y="240.04771" style="fill: #8aa0b7; stroke: #ffffff; stroke-width: 0.5"/>
     <use xlink:href="#m4bdc34bb24" x="545.482105" y="236.005605" style="fill: #8aa0b7; stroke: #ffffff; stroke-width: 0.5"/>
     <use xlink:href="#m4bdc34bb24" x="525.473886" y="207.306657" style="fill: #8aa0b7; stroke: #ffffff; stroke-width: 0.5"/>
     <use xlink:href="#m4bdc34bb24" x="513.852632" y="119.795078" style="fill: #8aa0b7; stroke: #ffffff; stroke-width: 0.5"/>
     <use xlink:href="#m4bdc34bb24" x="492.701305" y="241.997622" style="fill: #8aa0b7; stroke: #ffffff; stroke-width: 0.5"/>
     <use xlink:href="#m4bdc34bb24" x="445.642105" y="168.805605" style="fill: #8aa0b7; stroke: #ffffff; stroke-width: 0.5"/>
     <use xlink:href="#m4bdc34bb24" x="368.336842" y="211.24771" style="fill: #8aa0b7; stroke: #ffffff; stroke-width: 0.5"/>
     <use xlink:href="#m4bdc34bb24" x="488.144842" y="242.050977" style="fill: #8aa0b7; stroke: #ffffff; stroke-width: 0.5"/>
     <use xlink:href="#m4bdc34bb24" x="534.568421" y="222.3635" style="fill: #8aa0b7; stroke: #ffffff; stroke-width: 0.5"/>
     <use xlink:href="#m4bdc34bb24" x="532.547368" y="242.371921" style="fill: #8aa0b7; stroke: #ffffff; stroke-width: 0.5"/>
     <use xlink:href="#m4bdc34bb24" x="533.052634" y="217.310868" style="fill: #8aa0b7; stroke: #ffffff; stroke-width: 0.5"/>
     <use xlink:href="#m4bdc34bb24" x="467.368421" y="200.637184" style="fill: #8aa0b7; stroke: #ffffff; stroke-width: 0.5"/>
     <use xlink:href="#m4bdc34bb24" x="436.547368" y="205.184552" style="fill: #8aa0b7; stroke: #ffffff; stroke-width: 0.5"/>
     <use xlink:href="#m4bdc34bb24" x="525.978947" y="210.742447" style="fill: #8aa0b7; stroke: #ffffff; stroke-width: 0.5"/>
     <use xlink:href="#m4bdc34bb24" x="418.357895" y="197.605605" style="fill: #8aa0b7; stroke: #ffffff; stroke-width: 0.5"/>
     <use xlink:href="#m4bdc34bb24" x="536.791579" y="231.660342" style="fill: #8aa0b7; stroke: #ffffff; stroke-width: 0.5"/>
     <use xlink:href="#m4bdc34bb24" x="524.159394" y="206.27107" style="fill: #8aa0b7; stroke: #ffffff; stroke-width: 0.5"/>
     <use xlink:href="#m4bdc34bb24" x="536.589474" y="226.910866" style="fill: #8aa0b7; stroke: #ffffff; stroke-width: 0.5"/>
     <use xlink:href="#m4bdc34bb24" x="529.313684" y="214.279289" style="fill: #8aa0b7; stroke: #ffffff; stroke-width: 0.5"/>
     <use xlink:href="#m4bdc34bb24" x="564.884211" y="31.879289" style="fill: #8aa0b7; stroke: #ffffff; stroke-width: 0.5"/>
     <use xlink:href="#m4bdc34bb24" x="503.242105" y="205.184552" style="fill: #8aa0b7; stroke: #ffffff; stroke-width: 0.5"/>
     <use xlink:href="#m4bdc34bb24" x="367.326316" y="231.9635" style="fill: #8aa0b7; stroke: #ffffff; stroke-width: 0.5"/>
     <use xlink:href="#m4bdc34bb24" x="524.130897" y="206.442657" style="fill: #8aa0b7; stroke: #ffffff; stroke-width: 0.5"/>
     <use xlink:href="#m4bdc34bb24" x="471.120101" y="184.303036" style="fill: #8aa0b7; stroke: #ffffff; stroke-width: 0.5"/>
     <use xlink:href="#m4bdc34bb24" x="536.589474" y="249.142447" style="fill: #8aa0b7; stroke: #ffffff; stroke-width: 0.5"/>
     <use xlink:href="#m4bdc34bb24" x="535.376842" y="235.500342" style="fill: #8aa0b7; stroke: #ffffff; stroke-width: 0.5"/>
     <use xlink:href="#m4bdc34bb24" x="514.519579" y="204.149571" style="fill: #8aa0b7; stroke: #ffffff; stroke-width: 0.5"/>
     <use xlink:href="#m4bdc34bb24" x="512.965592" y="204.664333" style="fill: #8aa0b7; stroke: #ffffff; stroke-width: 0.5"/>
    </g>
   </g>
   <g id="PatchCollection_2">
    <defs>
     <path id="mfd112fafe8" d="M 196.278003 -234.198824 
L 210.868204 -235.323479 
L 210.300632 -234.137829 
L 233.288428 -226.919276 
L 250.154132 -226.964749 
L 250.165895 -229.466613 
L 260.66977 -229.464589 
L 262.880943 -227.314775 
L 269.583946 -222.731452 
L 273.103003 -216.231383 
L 276.237474 -214.400552 
L 281.269895 -212.581605 
L 285.089684 -217.3715 
L 290.046922 -217.488518 
L 294.320236 -215.071804 
L 299.459368 -207.367289 
L 303.036632 -203.911289 
L 304.370526 -199.667078 
L 306.068211 -196.817394 
L 315.102316 -193.603921 
L 317.466897 -193.7858 
L 315.114003 -188.463236 
L 314.05372 -184.098969 
L 313.610525 -175.975773 
L 313.026492 -173.01472 
L 314.077376 -169.707133 
L 315.957466 -166.750309 
L 317.167831 -162.047811 
L 321.1923 -157.533775 
L 322.607734 -154.074383 
L 324.979897 -151.089204 
L 331.417889 -149.480607 
L 333.923998 -146.944106 
L 339.241862 -148.638553 
L 343.865247 -149.250942 
L 352.221554 -151.380594 
L 356.077926 -153.854587 
L 357.522655 -157.391214 
L 358.020524 -162.484895 
L 359.068588 -164.25736 
L 363.175147 -165.845121 
L 369.586663 -167.251469 
L 374.955285 -167.040289 
L 378.63275 -167.553825 
L 380.087349 -166.268263 
L 379.881653 -163.347942 
L 376.623413 -159.743638 
L 375.181817 -156.052074 
L 376.299281 -154.996177 
L 373.871346 -147.644068 
L 372.3345 -149.20128 
L 369.912518 -149.020493 
L 367.740568 -145.360575 
L 366.640023 -146.077926 
L 365.906065 -145.798756 
L 365.953534 -144.90657 
L 354.685521 -144.962812 
L 354.680978 -141.549635 
L 351.942541 -141.534595 
L 356.442006 -138.110765 
L 357.114866 -136.796848 
L 358.096975 -136.429007 
L 357.941724 -134.364213 
L 350.159736 -134.34604 
L 347.241608 -129.40385 
L 348.102775 -128.270876 
L 347.399366 -126.849176 
L 347.250695 -125.083134 
L 340.388935 -131.610736 
L 337.262134 -133.579654 
L 332.311641 -135.160992 
L 328.924939 -134.72046 
L 324.055283 -132.439317 
L 320.999137 -131.841654 
L 312.173629 -134.593095 
L 306.506724 -137.374457 
L 301.961043 -138.224031 
L 295.096933 -141.042836 
L 290.024557 -143.940754 
L 288.493978 -145.560004 
L 285.10101 -145.921735 
L 278.899263 -147.840991 
L 276.373728 -150.607471 
L 269.858973 -154.048691 
L 266.821156 -157.87232 
L 265.375957 -160.827107 
L 267.398766 -161.418973 
L 266.774941 -163.148042 
L 268.168912 -164.720764 
L 268.198834 -166.817517 
L 266.153466 -169.540132 
L 265.606249 -171.952871 
L 263.573256 -175.012777 
L 258.230013 -181.039689 
L 252.1337 -185.77587 
L 249.18424 -189.555635 
L 243.980269 -192.031195 
L 242.865311 -193.512269 
L 243.789612 -197.259605 
L 240.69853 -198.673786 
L 237.119605 -201.620112 
L 235.608138 -205.850748 
L 232.346766 -206.344074 
L 225.984598 -212.487072 
L 225.720311 -214.381419 
L 222.459722 -218.954672 
L 220.312054 -223.59764 
L 220.403857 -225.926408 
L 216.018911 -228.331314 
L 213.994691 -228.067184 
L 210.534359 -229.737505 
L 209.562747 -227.275575 
L 210.566005 -224.366063 
L 211.156147 -219.813019 
L 218.734162 -211.709563 
L 219.65627 -211.276708 
L 220.456182 -209.194054 
L 221.533854 -209.278338 
L 222.750798 -205.367761 
L 224.592037 -203.825275 
L 225.883239 -201.67839 
L 229.693709 -198.592792 
L 231.705552 -192.952676 
L 235.189853 -187.455905 
L 235.523071 -184.258137 
L 238.446682 -184.057767 
L 243.07743 -178.595618 
L 242.930169 -177.5098 
L 240.378628 -175.282704 
L 239.304402 -175.311843 
L 237.705675 -178.997611 
L 233.73776 -182.453556 
L 226.264709 -186.924823 
L 226.465078 -191.361311 
L 225.545164 -194.64681 
L 218.487891 -199.231656 
L 217.687196 -198.45117 
L 216.158026 -200.031255 
L 212.41821 -201.4987 
L 208.844612 -205.01919 
L 209.286553 -205.476797 
L 211.783889 -205.132926 
L 214.033543 -207.39762 
L 214.259762 -210.132768 
L 209.592199 -214.458026 
L 206.034267 -216.136808 
L 198.741062 -228.74443 
z
" style="stroke: #b45309; stroke-width: 1.15"/>
    </defs>
    <g clip-path="url(#p294f2d0f27)">
     <use xlink:href="#mfd112fafe8" x="0" y="352.769104" style="fill: #f59e0b; stroke: #b45309; stroke-width: 1.15"/>
    </g>
   </g>
   <g id="PathCollection_2">
    <path d="M 288 180.519767 
C 289.096672 180.519767 290.148574 180.084054 290.924038 179.30859 
C 291.699502 178.533126 292.135215 177.481224 292.135215 176.384552 
C 292.135215 175.28788 291.699502 174.235978 290.924038 173.460514 
C 290.148574 172.68505 289.096672 172.249338 288 172.249338 
C 286.903328 172.249338 285.851426 172.68505 285.075962 173.460514 
C 284.300498 174.235978 283.864785 175.28788 283.864785 176.384552 
C 283.864785 177.481224 284.300498 178.533126 285.075962 179.30859 
C 285.851426 180.084054 286.903328 180.519767 288 180.519767 
L 288 180.519767 
z
" clip-path="url(#p294f2d0f27)" style="fill: none; stroke: #7c2d12; stroke-width: 1.1"/>
   </g>
  </g>
 </g>
 <defs>
  <clipPath id="p294f2d0f27">
   <rect x="0" y="0" width="576" height="352.769104"/>
  </clipPath>
 </defs>
</svg>
