<?xml version="1.0" encoding="utf-8" standalone="no"?>
<!DOCTYPE svg PUBLIC "-//W3C//DTD SVG 1.1//EN"
  "http://www.w3.org/Graphics/SVG/1.1/DTD/svg11.dtd">
<svg xmlns:xlink="http://www.w3.org/1999/xlink" width="570.498807pt" height="432pt" viewBox="0 0 570.498807 432" xmlns="http://www.w3.org/2000/svg" version="1.1">
 <metadata>
  <rdf:RDF xmlns:dc="http://purl.org/dc/elements/1.1/" xmlns:cc="http://creativecommons.org/ns#" xmlns:rdf="http://www.w3.org/1999/02/22-rdf-syntax-ns#">
   <cc:Work>
    <dc:type rdf:resource="http://purl.org/dc/dcmitype/StillImage"/>
    <dc:date>2026-06-09T04:57:04.100349</dc:date>
    <dc:format>image/svg+xml</dc:format>
    <dc:creator>
     <cc:Agent>
      <dc:title>Matplotlib v3.10.8, https://matplotlib.org/</dc:title>
     </cc:Agent>
    </dc:creator>
   </cc:Work>
  </rdf:RDF>
 </metadata>
 <defs>
  <style type="text/css">*{stroke-linejoin: round; stroke-linecap: butt}</style>
 </defs>
 <g id="figure_1">
  <g id="patch_1">
   <path d="M 0 432 
L 570.498807 432 
L 570.498807 0 
L 0 0 
z
" style="fill: #eaf3ff"/>
  </g>
  <g id="axes_1">
   <g id="PatchCollection_1">
    <path d="M 406.334646 27.186584 
L 424.416248 14.551076 
L 476.266276 -1.934345 
L 515.034311 -22.199661 
L 598.163613 -87.48278 
L 685.012942 -126.889085 
L 728.102743 -135.484417 
L 760.410962 -134.441774 
L 790.313238 -150.709027 
L 826.12027 -149.840412 
L 861.377315 -153.752224 
L 922.797329 -139.384559 
L 897.506018 -134.131265 
L 919.01976 -121.79653 
L 885.60864 -113.918793 
L 869.749911 -112.109438 
L 878.068727 -125.888554 
L 852.869758 -133.697972 
L 822.380963 -127.043325 
L 812.751107 -112.646234 
L 794.027176 -103.956024 
L 772.944996 -108.70195 
L 747.303601 -107.729832 
L 725.481677 -118.111608 
L 713.712755 -112.923764 
L 701.531849 -112.116541 
L 698.65101 -99.196907 
L 661.642529 -102.342592 
L 656.445045 -91.408291 
L 637.588184 -91.474756 
L 604.982647 -55.735204 
L 574.492838 -28.109998 
L 581.644706 -21.402078 
L 574.811466 -13.620058 
L 555.33257 -13.955936 
L 542.581382 4.461037 
L 543.78892 30.537246 
L 556.338175 40.488774 
L 549.842842 63.574046 
L 533.503543 77.03555 
L 524.845805 88.350885 
L 511.673502 76.30088 
L 472.900393 99.010699 
L 446.720172 103.613547 
L 419.56479 93.613312 
L 412.542808 72.502719 
z
" clip-path="url(#p1e42d373c1)" style="fill: #e8edf4; stroke: #b8c5d4; stroke-width: 0.45"/>
    <path d="M 513.400975 -320.011658 
L 566.934415 -327.042851 
L 577.690233 -320.168749 
L 605.658305 -320.442087 
L 613.114822 -327.153207 
L 641.946895 -327.83616 
L 731.350865 -306.339251 
L 681.936742 -298.612145 
L 671.025796 -284.161549 
L 653.798618 -280.455578 
L 644.447585 -264.185869 
L 620.784785 -263.420836 
L 578.555607 -275.397055 
L 596.3652 -282.373855 
L 566.931076 -288.054262 
L 528.673745 -304.634618 
z
" clip-path="url(#p1e42d373c1)" style="fill: #e8edf4; stroke: #b8c5d4; stroke-width: 0.45"/>
    <path d="M 649.353047 -333.099416 
L 709.989684 -338.583056 
L 738.500756 -333.860976 
L 758.359163 -339.741378 
L 808.007211 -334.836139 
L 846.492134 -327.945058 
L 817.37425 -317.369467 
L 760.425168 -315.055866 
L 702.512086 -318.331438 
L 699.018345 -323.742017 
L 670.840108 -324.086013 
z
" clip-path="url(#p1e42d373c1)" style="fill: #e8edf4; stroke: #b8c5d4; stroke-width: 0.45"/>
    <path d="M 715.291855 -281.222967 
L 728.842909 -286.289149 
L 716.978422 -292.564735 
L 757.672036 -296.498095 
L 765.469244 -289.126604 
L 793.800196 -284.694873 
L 749.936487 -276.665171 
z
" clip-path="url(#p1e42d373c1)" style="fill: #e8edf4; stroke: #b8c5d4; stroke-width: 0.45"/>
    <path d="M 218.131334 288.091758 
L 243.590584 283.820222 
L 276.565992 288.872091 
L 270.341594 266.645287 
L 288.878813 275.068621 
L 334.596784 259.756236 
L 340.492407 243.665548 
L 357.66582 239.70097 
L 360.510128 246.606256 
L 369.637689 246.929958 
L 392.470291 264.069884 
L 402.547647 262.540675 
L 424.11893 273.197445 
L 429.785223 272.782418 
L 439.051803 277.924091 
L 467.348765 281.540615 
L 457.420576 294.986897 
L 454.928382 308.976572 
L 449.537083 312.330786 
L 440.590145 310.523539 
L 441.221311 315.513002 
L 426.86075 326.547254 
L 426.570535 335.438382 
L 435.946707 332.361699 
L 442.691666 340.972759 
L 441.881905 346.521342 
L 447.660834 353.894422 
L 440.852962 359.875283 
L 445.911427 375.068944 
L 456.555005 377.560124 
L 454.308377 386.083409 
L 436.519019 397.177024 
L 397.790559 391.860308 
L 369.189175 398.231335 
L 366.942547 410.056068 
L 344.179962 412.601537 
L 322.085074 403.719034 
L 314.946397 407.964188 
L 278.799428 399.040081 
L 270.97276 391.405706 
L 281.127236 379.627651 
L 284.866542 340.505979 
L 264.603255 319.898696 
L 250.120418 309.963404 
L 220.110579 302.410715 
z
" clip-path="url(#p1e42d373c1)" style="fill: #e8edf4; stroke: #b8c5d4; stroke-width: 0.45"/>
    <path d="M -762.359515 1198.675331 
L -757.35128 1190.4174 
L -752.191341 1172.987259 
L -759.900807 1161.351267 
L -761.453862 1147.917161 
L -751.231399 1131.033963 
L -730.104571 1137.841835 
L -709.31362 1154.416553 
L -706.062909 1162.458345 
L -717.678606 1180.428327 
L -723.708682 1194.888332 
L -731.233973 1202.347158 
L -740.636021 1203.75054 
L -743.313912 1198.222759 
L -747.706202 1197.401836 
L -753.784478 1202.726162 
z
" clip-path="url(#p1e42d373c1)" style="fill: #e8edf4; stroke: #b8c5d4; stroke-width: 0.45"/>
    <path d="M 476.085653 414.30731 
L 480.048201 407.010335 
L 492.693857 399.511934 
L 496.032342 416.349976 
L 489.547157 431.518775 
L 480.631675 427.52071 
z
" clip-path="url(#p1e42d373c1)" style="fill: #e8edf4; stroke: #b8c5d4; stroke-width: 0.45"/>
    <path d="M 524.845805 88.350885 
L 533.503543 77.03555 
L 549.842842 63.574046 
L 556.338175 40.488774 
L 543.78892 30.537246 
L 542.581382 4.461037 
L 555.33257 -13.955936 
L 574.811466 -13.620058 
L 581.644706 -21.402078 
L 574.492838 -28.109998 
L 604.982647 -55.735204 
L 637.588184 -91.474756 
L 656.445045 -91.408291 
L 661.642529 -102.342592 
L 698.65101 -99.196907 
L 701.531849 -112.116541 
L 713.712755 -112.923764 
L 770.538039 -89.944533 
L 771.05657 -59.705364 
L 777.683818 -52.064392 
L 743.905246 -46.503633 
L 724.864717 -32.802651 
L 727.930238 -20.777 
L 658.773867 11.901597 
L 644.47419 39.554201 
L 658.451181 53.389636 
L 677.230923 64.281318 
L 659.194983 86.434046 
L 638.772382 91.027761 
L 631.281592 123.9915 
L 620.12963 142.387163 
L 596.308674 140.490619 
L 585.195272 156.064299 
L 562.460084 156.96843 
L 556.219451 138.405335 
L 539.780708 116.123227 
z
" clip-path="url(#p1e42d373c1)" style="fill: #e8edf4; stroke: #b8c5d4; stroke-width: 0.45"/>
    <path d="M 494.460514 319.143732 
L 497.464136 314.336921 
L 496.704098 310.852314 
L 502.631178 309.769589 
L 512.567485 315.222787 
L 515.364101 310.040524 
L 532.681606 310.877682 
L 546.720496 307.356544 
L 556.134213 307.959298 
L 562.258152 311.979687 
L 564.088738 308.642724 
L 561.305314 295.848409 
L 568.359767 293.3552 
L 575.283319 284.301715 
L 589.872196 290.622005 
L 600.918625 282.588838 
L 607.83 281.122543 
L 623.072368 287.115074 
L 632.2943 286.09577 
L 641.34677 289.80362 
L 639.769869 292.296829 
L 641.727297 299.10115 
L 640.236648 307.125184 
L 629.178042 307.163744 
L 632.981277 311.419552 
L 626.462605 324.061148 
L 622.719239 327.37528 
L 605.545827 327.864383 
L 595.636918 332.319587 
L 551.33755 325.726839 
L 546.950841 318.896643 
L 527.545006 322.309712 
L 525.261848 326.044959 
L 503.345553 322.719158 
z
" clip-path="url(#p1e42d373c1)" style="fill: #e8edf4; stroke: #b8c5d4; stroke-width: 0.45"/>
    <path d="M 425.903853 225.894455 
L 437.700173 225.886337 
L 442.677459 218.494991 
L 447.570522 200.515877 
L 443.900218 193.876452 
L 447.73491 189.718059 
L 464.147269 188.650555 
L 467.789161 192.980439 
L 481.122808 183.299846 
L 476.633611 175.938942 
L 475.732524 164.803216 
L 490.574071 167.392825 
L 503.138547 164.403409 
L 503.485587 171.992122 
L 523.328773 176.568079 
L 523.119737 183.537294 
L 543.085707 179.849739 
L 554.125033 174.471632 
L 576.295012 182.225239 
L 585.56768 188.479065 
L 590.155307 198.471182 
L 584.6808 203.7123 
L 591.810344 210.710942 
L 596.668905 221.214487 
L 595.138682 227.984306 
L 603.187577 240.5224 
L 594.424307 242.571154 
L 589.246103 240.314378 
L 584.321583 244.052163 
L 570.220795 247.855398 
L 562.929908 252.747953 
L 548.659658 257.023549 
L 552.097588 262.85981 
L 554.17577 271.140573 
L 564.1963 275.860116 
L 575.283319 284.301715 
L 568.359767 293.3552 
L 561.305314 295.848409 
L 564.088738 308.642724 
L 562.258152 311.979687 
L 556.134213 307.959298 
L 546.720496 307.356544 
L 532.681606 310.877682 
L 515.364101 310.040524 
L 512.567485 315.222787 
L 502.631178 309.769589 
L 496.704098 310.852314 
L 475.661492 304.848114 
L 471.629942 309.114069 
L 454.928382 308.976572 
L 457.420576 294.986897 
L 467.348765 281.540615 
L 439.051803 277.924091 
L 429.785223 272.782418 
L 430.893316 264.173387 
L 426.972371 259.738986 
L 429.202764 246.471296 
z
" clip-path="url(#p1e42d373c1)" style="fill: #e8edf4; stroke: #b8c5d4; stroke-width: 0.45"/>
    <path d="M 426.570535 335.438382 
L 426.86075 326.547254 
L 441.221311 315.513002 
L 440.590145 310.523539 
L 449.537083 312.330786 
L 454.928382 308.976572 
L 471.629942 309.114069 
L 475.661492 304.848114 
L 496.704098 310.852314 
L 497.464136 314.336921 
L 494.460514 319.143732 
L 503.345553 322.719158 
L 513.365068 323.25291 
L 511.807447 331.303328 
L 503.156812 334.61543 
L 488.62679 332.154692 
L 484.374026 340.073701 
L 475.020179 340.697765 
L 471.61675 337.585566 
L 460.607866 344.245286 
L 451.140368 345.178844 
L 442.691666 340.972759 
L 435.946707 332.361699 
z
" clip-path="url(#p1e42d373c1)" style="fill: #e8edf4; stroke: #b8c5d4; stroke-width: 0.45"/>
    <path d="M 419.726133 271.492687 
L 421.854037 260.479744 
L 426.972371 259.738986 
L 430.893316 264.173387 
L 429.785223 272.782418 
L 424.11893 273.197445 
z
" clip-path="url(#p1e42d373c1)" style="fill: #e8edf4; stroke: #b8c5d4; stroke-width: 0.45"/>
    <path d="M 357.66582 239.70097 
L 373.402364 235.82721 
L 387.778146 237.369104 
L 405.979488 233.289353 
L 418.409004 241.884684 
L 429.202764 246.471296 
L 426.972371 259.738986 
L 421.854037 260.479744 
L 419.726133 271.492687 
L 402.547647 262.540675 
L 392.470291 264.069884 
L 369.637689 246.929958 
L 360.510128 246.606256 
z
" clip-path="url(#p1e42d373c1)" style="fill: #e8edf4; stroke: #b8c5d4; stroke-width: 0.45"/>
    <path d="M 373.402364 235.827718 
L 383.521324 230.431853 
L 400.717061 201.541777 
L 427.583243 193.321898 
L 443.900218 193.876452 
L 447.570522 200.515877 
L 442.677459 218.494991 
L 437.700173 225.886337 
L 425.903853 225.894455 
L 429.202764 246.471296 
L 418.409004 241.884684 
L 405.979488 233.289353 
L 387.778146 237.369104 
z
" clip-path="url(#p1e42d373c1)" style="fill: #e8edf4; stroke: #b8c5d4; stroke-width: 0.45"/>
    <path d="M 121.241181 483.409392 
L 122.803876 470.554701 
L 130.632574 463.426172 
L 136.123317 443.680908 
L 135.687995 435.361078 
L 131.761976 428.309161 
L 130.89742 421.689523 
L 138.022905 416.699553 
L 146.036285 413.836979 
L 150.958775 423.4506 
L 162.557221 423.427261 
L 165.919046 420.94775 
L 177.361223 421.63422 
L 182.849936 431.483259 
L 173.777171 436.799468 
L 173.523994 452.11997 
L 170.335182 454.993706 
L 169.546224 464.274492 
L 161.062513 465.890969 
L 168.928756 477.662935 
L 163.50803 490.564304 
L 170.278864 496.402087 
L 167.58423 501.74062 
L 160.307042 509.104061 
L 161.94432 515.605989 
L 154.052709 520.702 
L 143.70036 517.9409 
L 133.567194 520.10229 
L 136.566757 504.736124 
L 134.72298 492.661766 
L 125.93637 490.85046 
z
" clip-path="url(#p1e42d373c1)" style="fill: #e8edf4; stroke: #b8c5d4; stroke-width: 0.45"/>
    <path d="M 123.866306 399.185188 
L 151.645752 385.013369 
L 175.674729 388.556324 
L 202.038617 388.432018 
L 222.932564 391.785725 
L 270.97276 391.405706 
L 278.799428 399.040081 
L 314.946397 407.964188 
L 322.085074 403.719034 
L 344.179962 412.601537 
L 366.942547 410.056068 
L 367.9928 421.462729 
L 349.384549 434.54117 
L 324.22414 438.691445 
L 322.472703 445.297384 
L 310.403419 456.183485 
L 302.835509 472.166611 
L 310.493731 483.388083 
L 299.135777 492.148816 
L 294.889102 504.912688 
L 280.063791 508.826023 
L 266.159862 523.924805 
L 222.519058 523.852251 
L 210.220443 530.786458 
L 202.72052 538.206217 
L 193.112988 536.577056 
L 185.842396 529.942704 
L 180.275548 518.647157 
L 161.94432 515.605989 
L 160.307042 509.104061 
L 167.58423 501.74062 
L 170.278864 496.402087 
L 163.50803 490.564304 
L 168.928756 477.662935 
L 161.062513 465.890969 
L 169.546224 464.274492 
L 170.335182 454.993706 
L 173.523994 452.11997 
L 173.777171 436.799468 
L 182.849936 431.483259 
L 177.361223 421.63422 
L 165.919046 420.94775 
L 162.557221 423.427261 
L 150.958775 423.4506 
L 146.036285 413.836979 
L 138.022905 416.699553 
L 130.89742 421.689523 
L 131.886789 407.704415 
z
" clip-path="url(#p1e42d373c1)" style="fill: #e8edf4; stroke: #b8c5d4; stroke-width: 0.45"/>
    <path d="M 112.394702 226.506342 
L 128.315929 206.002562 
L 118.060994 186.037607 
L 159.618542 161.487055 
L 163.666329 172.00785 
L 159.618542 182.530675 
L 171.76241 182.260755 
L 186.604464 186.308542 
L 189.84249 200.336776 
L 174.999929 217.872957 
L 140.189369 229.474448 
z
" clip-path="url(#p1e42d373c1)" style="fill: #e8edf4; stroke: #b8c5d4; stroke-width: 0.45"/>
    <path d="M 440.852962 359.875283 
L 447.660834 353.894422 
L 441.881905 346.521342 
L 442.691666 340.972759 
L 451.140368 345.178844 
L 460.607866 344.245286 
L 471.61675 337.585566 
L 475.020179 340.697765 
L 484.374026 340.073701 
L 488.62679 332.154692 
L 503.156812 334.61543 
L 511.807447 331.303328 
L 513.365068 323.25291 
L 525.261848 326.044959 
L 527.545006 322.309712 
L 546.950841 318.896643 
L 551.33755 325.726839 
L 579.417358 330.797989 
L 577.289454 340.469449 
L 581.992761 348.829869 
L 566.361749 345.969325 
L 550.396888 352.93854 
L 551.482657 362.686106 
L 549.078745 368.280352 
L 555.515223 378.277543 
L 573.92763 388.167172 
L 583.803052 404.400938 
L 605.653389 420.225257 
L 621.040864 420.103996 
L 625.826365 424.444027 
L 620.317356 428.355839 
L 652.321153 441.393183 
L 669.159703 451.633911 
L 671.193236 455.301171 
L 667.523946 462.332793 
L 656.625669 453.164642 
L 639.565907 449.933211 
L 631.301887 462.634677 
L 645.494001 469.913895 
L 643.164165 480.160711 
L 634.961029 481.325122 
L 624.472705 498.166715 
L 616.28682 499.679689 
L 616.362925 493.675996 
L 620.369108 483.144038 
L 624.637093 478.949622 
L 610.975685 457.667538 
L 602.824301 455.221007 
L 597.027108 446.745922 
L 584.40885 443.176076 
L 575.912456 435.28345 
L 561.383448 434.01097 
L 528.076729 412.365103 
L 514.724816 401.053827 
L 508.599863 381.642411 
L 498.829973 379.359253 
L 482.854965 372.878126 
L 473.814671 375.531157 
L 462.468894 384.644004 
L 454.308377 386.083409 
L 456.555005 377.560124 
L 445.911427 375.068944 
z
" clip-path="url(#p1e42d373c1)" style="fill: #e8edf4; stroke: #b8c5d4; stroke-width: 0.45"/>
    <path d="M 552.408098 505.490074 
L 555.156006 495.408152 
L 578.13473 497.203222 
L 613.072133 493.350773 
L 606.000429 508.806743 
L 608.939108 514.8906 
L 604.817245 524.98825 
L 589.800149 517.592337 
L 579.815135 515.473566 
z
" clip-path="url(#p1e42d373c1)" style="fill: #e8edf4; stroke: #b8c5d4; stroke-width: 0.45"/>
    <path d="M 468.541081 439.962404 
L 479.34093 440.944669 
L 489.159527 434.857261 
L 500.940626 448.798735 
L 498.18257 474.770427 
L 489.253897 473.531433 
L 481.244577 480.087142 
L 473.809597 474.879004 
L 473.023176 451.188441 
z
" clip-path="url(#p1e42d373c1)" style="fill: #e8edf4; stroke: #b8c5d4; stroke-width: 0.45"/>
    <path d="M 467.166113 133.831407 
L 476.070432 122.638855 
L 493.370686 121.420156 
L 500.264811 116.002981 
L 516.061225 110.464038 
L 515.395558 120.562703 
L 509.581113 126.958591 
L 511.937333 132.457452 
L 522.583956 135.429618 
L 517.785264 142.837199 
L 511.937333 140.704222 
L 497.799 154.842555 
L 503.138547 164.403409 
L 490.574071 167.392825 
L 475.732524 164.803216 
L 467.761763 153.905445 
z
" clip-path="url(#p1e42d373c1)" style="fill: #e8edf4; stroke: #b8c5d4; stroke-width: 0.45"/>
    <path d="M 522.421598 148.756161 
L 551.227958 142.247637 
L 557.493961 152.093632 
L 545.711847 167.998623 
L 525.163418 156.907038 
z
" clip-path="url(#p1e42d373c1)" style="fill: #e8edf4; stroke: #b8c5d4; stroke-width: 0.45"/>
    <path d="M 187.545125 129.020537 
L 194.676191 108.719705 
L 209.930228 92.791375 
L 225.609948 94.345952 
L 249.301018 92.693452 
L 228.313208 113.939513 
L 248.319259 111.249445 
L 269.83524 111.351933 
L 264.715891 127.351295 
L 247.062507 144.949882 
L 267.366384 146.202575 
L 286.414016 171.435538 
L 299.855226 174.589342 
L 317.537022 204.718919 
L 341.327536 208.45924 
L 338.940874 221.017121 
L 328.937594 226.775247 
L 336.778469 236.933781 
L 319.114938 247.217128 
L 292.844406 247.03549 
L 259.413889 252.434907 
L 250.257915 248.569266 
L 237.274859 257.769381 
L 219.110049 255.541018 
L 205.315203 263.038911 
L 194.877616 259.117966 
L 223.675859 238.493432 
L 241.253137 234.251831 
L 210.433538 230.963575 
L 204.877852 223.149591 
L 225.396853 217.063197 
L 214.642668 206.486084 
L 218.373857 193.62429 
L 247.556801 195.400524 
L 250.479127 184.002551 
L 237.028278 171.631383 
L 213.18652 168.176202 
L 208.506045 162.862024 
L 215.642184 154.087083 
L 209.184396 148.677012 
L 198.611849 157.961858 
L 197.461137 139.034979 
z
" clip-path="url(#p1e42d373c1)" style="fill: #e8edf4; stroke: #b8c5d4; stroke-width: 0.45"/>
    <path d="M 159.618542 182.530675 
L 163.666329 172.00785 
L 159.618542 161.487055 
L 176.080117 160.677294 
L 197.128304 172.81761 
L 186.604464 186.308542 
L 171.76241 182.260755 
z
" clip-path="url(#p1e42d373c1)" style="fill: #e8edf4; stroke: #b8c5d4; stroke-width: 0.45"/>
    <path d="M 548.659658 257.023549 
L 562.929908 252.747953 
L 570.220795 247.855398 
L 584.321583 244.052163 
L 589.246103 240.314378 
L 594.424307 242.571154 
L 603.187577 240.5224 
L 612.494747 246.844212 
L 627.175965 248.552522 
L 625.951177 253.954983 
L 636.618095 258.016976 
L 639.549671 252.946335 
L 653.016248 255.142226 
L 654.879306 261.290519 
L 669.47833 262.476747 
L 678.51558 272.14567 
L 672.660546 272.169516 
L 669.617349 275.704354 
L 665.110901 276.558255 
L 663.824214 281.026143 
L 660.064613 281.958686 
L 659.533905 283.785213 
L 652.828522 285.816717 
L 644.12918 285.483883 
L 641.34677 289.80362 
L 632.2943 286.09577 
L 623.072368 287.115074 
L 607.83 281.122543 
L 600.918625 282.588838 
L 589.872196 290.622005 
L 575.283319 284.301715 
L 564.1963 275.860116 
L 554.17577 271.140573 
L 552.097588 262.85981 
z
" clip-path="url(#p1e42d373c1)" style="fill: #e8edf4; stroke: #b8c5d4; stroke-width: 0.45"/>
   </g>
   <g id="PathCollection_1">
    <defs>
     <path id="m8fc7058064" d="M 0 2.12132 
C 0.562581 2.12132 1.102195 1.897805 1.5 1.5 
C 1.897805 1.102195 2.12132 0.562581 2.12132 0 
C 2.12132 -0.562581 1.897805 -1.102195 1.5 -1.5 
C 1.102195 -1.897805 0.562581 -2.12132 0 -2.12132 
C -0.562581 -2.12132 -1.102195 -1.897805 -1.5 -1.5 
C -1.897805 -1.102195 -2.12132 -0.562581 -2.12132 0 
C -2.12132 0.562581 -1.897805 1.102195 -1.5 1.5 
C -1.102195 1.897805 -0.562581 2.12132 0 2.12132 
z
" style="stroke: #ffffff; stroke-width: 0.5"/>
    </defs>
    <g clip-path="url(#p1e42d373c1)">
     <use xlink:href="#m8fc7058064" x="337.762931" y="409.526182" style="fill: #8aa0b7; stroke: #ffffff; stroke-width: 0.5"/>
     <use xlink:href="#m8fc7058064" x="170.85384" y="26.617091" style="fill: #8aa0b7; stroke: #ffffff; stroke-width: 0.5"/>
     <use xlink:href="#m8fc7058064" x="285.249404" y="216" style="fill: #8aa0b7; stroke: #ffffff; stroke-width: 0.5"/>
     <use xlink:href="#m8fc7058064" x="180.823222" y="168.240436" style="fill: #8aa0b7; stroke: #ffffff; stroke-width: 0.5"/>
     <use xlink:href="#m8fc7058064" x="257.581113" y="272.726182" style="fill: #8aa0b7; stroke: #ffffff; stroke-width: 0.5"/>
     <use xlink:href="#m8fc7058064" x="219.944749" y="178.798909" style="fill: #8aa0b7; stroke: #ffffff; stroke-width: 0.5"/>
     <use xlink:href="#m8fc7058064" x="265.762931" y="276.980727" style="fill: #8aa0b7; stroke: #ffffff; stroke-width: 0.5"/>
     <use xlink:href="#m8fc7058064" x="495.508385" y="315.926182" style="fill: #8aa0b7; stroke: #ffffff; stroke-width: 0.5"/>
     <use xlink:href="#m8fc7058064" x="429.399294" y="267.162545" style="fill: #8aa0b7; stroke: #ffffff; stroke-width: 0.5"/>
     <use xlink:href="#m8fc7058064" x="453.617476" y="385.308" style="fill: #8aa0b7; stroke: #ffffff; stroke-width: 0.5"/>
     <use xlink:href="#m8fc7058064" x="552.126567" y="384.653455" style="fill: #8aa0b7; stroke: #ffffff; stroke-width: 0.5"/>
     <use xlink:href="#m8fc7058064" x="552.847876" y="421.251055" style="fill: #8aa0b7; stroke: #ffffff; stroke-width: 0.5"/>
    </g>
   </g>
   <g id="PathCollection_2">
    <defs>
     <path id="m474dab1ec6" d="M 0 3.674235 
C 0.974418 3.674235 1.909058 3.287094 2.598076 2.598076 
C 3.287094 1.909058 3.674235 0.974418 3.674235 0 
C 3.674235 -0.974418 3.287094 -1.909058 2.598076 -2.598076 
C 1.909058 -3.287094 0.974418 -3.674235 0 -3.674235 
C -0.974418 -3.674235 -1.909058 -3.287094 -2.598076 -2.598076 
C -3.287094 -1.909058 -3.674235 -0.974418 -3.674235 0 
C -3.674235 0.974418 -3.287094 1.909058 -2.598076 2.598076 
C -1.909058 3.287094 -0.974418 3.674235 0 3.674235 
z
" style="stroke: #ffffff; stroke-width: 1.2"/>
    </defs>
    <g clip-path="url(#p1e42d373c1)">
     <use xlink:href="#m474dab1ec6" x="285.249404" y="216" style="fill: #f97316; stroke: #ffffff; stroke-width: 1.2"/>
    </g>
   </g>
   <g id="PathCollection_3">
    <path d="M 285.249404 220.929503 
C 286.556723 220.929503 287.810674 220.410099 288.735089 219.485685 
C 289.659503 218.561271 290.178907 217.307319 290.178907 216 
C 290.178907 214.692681 289.659503 213.438729 288.735089 212.514315 
C 287.810674 211.589901 286.556723 211.070497 285.249404 211.070497 
C 283.942084 211.070497 282.688133 211.589901 281.763719 212.514315 
C 280.839304 213.438729 280.319901 214.692681 280.319901 216 
C 280.319901 217.307319 280.839304 218.561271 281.763719 219.485685 
C 282.688133 220.410099 283.942084 220.929503 285.249404 220.929503 
L 285.249404 220.929503 
z
" clip-path="url(#p1e42d373c1)" style="fill: none; stroke: #7c2d12; stroke-width: 1.1"/>
   </g>
  </g>
 </g>
 <defs>
  <clipPath id="p1e42d373c1">
   <rect x="0" y="0" width="570.498807" height="432"/>
  </clipPath>
 </defs>
</svg>
