<?xml version="1.0" encoding="utf-8" standalone="no"?>
<!DOCTYPE svg PUBLIC "-//W3C//DTD SVG 1.1//EN"
  "http://www.w3.org/Graphics/SVG/1.1/DTD/svg11.dtd">
<svg xmlns:xlink="http://www.w3.org/1999/xlink" width="460.8pt" height="432pt" viewBox="0 0 460.8 432" xmlns="http://www.w3.org/2000/svg" version="1.1">
 <metadata>
  <rdf:RDF xmlns:dc="http://purl.org/dc/elements/1.1/" xmlns:cc="http://creativecommons.org/ns#" xmlns:rdf="http://www.w3.org/1999/02/22-rdf-syntax-ns#">
   <cc:Work>
    <dc:type rdf:resource="http://purl.org/dc/dcmitype/StillImage"/>
    <dc:date>2026-06-09T04:57:02.777760</dc:date>
    <dc:format>image/svg+xml</dc:format>
    <dc:creator>
     <cc:Agent>
      <dc:title>Matplotlib v3.10.8, https://matplotlib.org/</dc:title>
     </cc:Agent>
    </dc:creator>
   </cc:Work>
  </rdf:RDF>
 </metadata>
 <defs>
  <style type="text/css">*{stroke-linejoin: round; stroke-linecap: butt}</style>
 </defs>
 <g id="figure_1">
  <g id="patch_1">
   <path d="M 0 432 
L 460.8 432 
L 460.8 0 
L 0 0 
z
" style="fill: #eaf3ff"/>
  </g>
  <g id="axes_1">
   <g id="PatchCollection_1">
    <path d="M 185.389774 254.771977 
L 185.866024 250.091332 
L 211.004811 249.224122 
L 212.335392 245.232666 
L 216.873219 240.256655 
L 220.529239 224.961131 
L 235.927798 213.007943 
L 241.13621 199.042713 
L 244.598181 198.2316 
L 248.205546 189.598996 
L 257.524476 188.409516 
L 261.532532 189.847997 
L 266.56235 189.847997 
L 270.132508 187.32765 
L 276.979746 186.970748 
L 276.725594 181.036513 
L 278.411931 181.036513 
L 278.171516 200.702146 
L 241.815667 200.122862 
L 242.172283 228.466033 
L 231.793238 229.46032 
L 229.084566 235.149561 
L 231.185332 251.146295 
L 187.807086 251.077032 
z
" clip-path="url(#p40808cf80c)" style="fill: #e8edf4; stroke: #b8c5d4; stroke-width: 0.45"/>
    <path d="M 323.530894 -51.886085 
L 337.892522 -54.29567 
L 356.494034 -51.445897 
L 352.982835 -63.984095 
L 363.439728 -59.23247 
L 389.229353 -67.870226 
L 392.555089 -76.947024 
L 402.242655 -79.183453 
L 403.847137 -75.288163 
L 408.996018 -75.105562 
L 421.875947 -65.436886 
L 427.560609 -66.299517 
L 439.729025 -60.288005 
L 442.925396 -60.522123 
L 448.152697 -57.621692 
L 464.115086 -55.581602 
L 458.514569 -47.996519 
L 457.108716 -40.104908 
L 454.06747 -38.212787 
L 449.02048 -39.23226 
L 449.376522 -36.417691 
L 441.275693 -30.193241 
L 441.111982 -25.177733 
L 446.401105 -26.913298 
L 450.205953 -22.055777 
L 449.749165 -18.925807 
L 453.009073 -14.766634 
L 449.168735 -11.392814 
L 452.022228 -2.822032 
L 458.026298 -1.416751 
L 456.75897 3.391256 
L 446.723947 9.649193 
L 424.877123 6.65002 
L 408.74301 10.243933 
L 407.475681 16.914295 
L 394.635248 18.3502 
L 382.171465 13.339558 
L 378.14452 15.73426 
L 357.753922 10.700148 
L 353.338878 6.393578 
L 359.067044 -0.250453 
L 361.176396 -22.319088 
L 349.745824 -33.94371 
L 341.576018 -39.548234 
L 324.647391 -43.808725 
z
" clip-path="url(#p40808cf80c)" style="fill: #e8edf4; stroke: #b8c5d4; stroke-width: 0.45"/>
    <path d="M -229.566508 461.776443 
L -226.74135 457.118123 
L -223.830615 447.285736 
L -228.179544 440.721843 
L -229.055627 433.143629 
L -223.289109 423.619774 
L -211.371411 427.460112 
L -199.643182 436.809953 
L -197.809448 441.346349 
L -204.361893 451.483261 
L -207.763474 459.640187 
L -212.00851 463.84773 
L -217.312229 464.639381 
L -218.822835 461.521146 
L -221.300537 461.058061 
L -224.729308 464.061527 
z
" clip-path="url(#p40808cf80c)" style="fill: #e8edf4; stroke: #b8c5d4; stroke-width: 0.45"/>
    <path d="M 469.043587 19.312431 
L 471.278871 15.196189 
L 478.412317 10.966322 
L 480.295565 20.464704 
L 476.637255 29.021463 
L 471.60801 26.766144 
z
" clip-path="url(#p40808cf80c)" style="fill: #e8edf4; stroke: #b8c5d4; stroke-width: 0.45"/>
    <path d="M 179.168758 324.226628 
L 184.041162 322.122714 
L 189.40756 314.346158 
L 192.039529 308.658061 
L 195.832356 305.106507 
L 201.337852 306.062728 
L 206.742603 303.648564 
L 212.927842 303.526926 
L 218.220685 306.783113 
L 225.573367 309.717603 
L 239.585535 325.475067 
L 240.093554 332.366096 
L 242.277607 338.709322 
L 246.423901 341.820402 
L 247.370963 346.10379 
L 246.860941 349.554599 
L 245.261897 350.179391 
L 239.222051 349.303595 
L 238.390903 350.535434 
L 235.948977 350.783004 
L 227.987245 348.082632 
L 202.170717 347.503347 
L 199.201024 348.750641 
L 195.532983 348.394026 
L 189.665148 350.198567 
L 187.847727 341.707636 
L 197.93026 341.941468 
L 206.682499 337.740794 
L 211.434123 340.081403 
L 216.246996 340.276597 
L 221.040406 337.790308 
L 218.802546 334.588786 
L 215.150247 336.454003 
L 211.71289 336.4022 
L 207.340777 333.675783 
L 203.829006 333.854377 
L 201.327548 336.477186 
L 189.263312 336.794305 
L 184.695433 328.170287 
z
" clip-path="url(#p40808cf80c)" style="fill: #e8edf4; stroke: #b8c5d4; stroke-width: 0.45"/>
    <path d="M 239.585535 325.475067 
L 243.313394 323.456156 
L 245.175749 316.930616 
L 248.686947 316.675318 
L 256.422003 319.760353 
L 262.668777 317.570004 
L 266.951021 318.305272 
L 268.612744 315.841881 
L 313.058832 315.67359 
L 315.523083 307.917928 
L 313.604058 306.552716 
L 302.911902 210.94238 
L 319.864571 210.743179 
L 394.595752 259.080265 
L 397.229437 264.270646 
L 409.255322 269.24036 
L 409.382398 276.287658 
L 421.669877 275.203216 
L 421.700788 300.713788 
L 415.644055 308.112549 
L 414.700714 314.93775 
L 404.861458 316.694494 
L 389.747389 317.646708 
L 385.651754 321.583212 
L 371.450688 322.069193 
L 368.68592 319.944099 
L 362.587974 321.520818 
L 352.234688 326.115601 
L 350.121329 329.578144 
L 341.527077 334.543566 
L 340.020478 337.389045 
L 335.378185 339.644363 
L 330.021518 338.15093 
L 326.986283 340.854164 
L 325.360622 348.450695 
L 316.568028 357.631101 
L 316.823898 361.383001 
L 313.802973 366.078242 
L 314.536524 372.508762 
L 307.379608 375.548004 
L 305.665223 370.810404 
L 302.466849 372.059415 
L 300.556125 371.843328 
L 298.517466 375.075761 
L 289.963283 374.98446 
L 286.896851 373.321306 
L 285.452932 374.327613 
L 282.069668 371.134391 
L 282.656967 367.835845 
L 281.272865 366.543616 
L 278.913367 367.633209 
L 279.345541 364.029279 
L 281.616315 361.178076 
L 277.077057 356.537787 
L 275.757066 353.482803 
L 273.295678 351.049177 
L 271.078711 350.758676 
L 261.800709 356.188613 
L 257.059674 355.303658 
L 253.984656 352.491093 
L 252.148919 352.121598 
L 247.500902 353.610452 
L 246.860941 349.554599 
L 247.370963 346.10379 
L 246.423901 341.820402 
L 242.277607 338.709322 
L 240.093554 332.366096 
z
" clip-path="url(#p40808cf80c)" style="fill: #e8edf4; stroke: #b8c5d4; stroke-width: 0.45"/>
    <path d="M 185.389774 254.771977 
L 187.807086 251.077032 
L 231.185332 251.146295 
L 229.084566 235.149561 
L 231.793238 229.46032 
L 242.172283 228.466033 
L 241.815667 200.122862 
L 278.171516 200.702146 
L 278.203572 183.924065 
L 319.864571 210.743179 
L 302.911902 210.94238 
L 313.604058 306.552716 
L 315.523083 307.917928 
L 313.058832 315.67359 
L 268.612744 315.841881 
L 266.951021 318.305272 
L 262.668777 317.570004 
L 256.422003 319.760353 
L 248.686947 316.675318 
L 245.175749 316.930616 
L 243.313394 323.456156 
L 239.585535 325.475067 
L 225.573367 309.717603 
L 218.220685 306.783113 
L 212.927842 303.526926 
L 206.742603 303.648564 
L 201.337852 306.062728 
L 195.832356 305.106507 
L 192.039529 308.658061 
L 191.08016 302.689195 
L 194.17235 297.227489 
L 195.548152 286.798358 
L 192.986018 270.345409 
L 194.09164 264.82131 
L 191.228415 259.555942 
z
" clip-path="url(#p40808cf80c)" style="fill: #e8edf4; stroke: #b8c5d4; stroke-width: 0.45"/>
    <path d="M 382.955103 371.400278 
L 384.36439 365.567933 
L 388.173818 364.314342 
L 390.430281 359.471418 
L 395.844763 358.43649 
L 401.983351 351.880039 
L 405.9542 351.851418 
L 414.400768 358.225841 
L 413.969167 361.905902 
L 416.46032 368.476664 
L 414.277699 372.935784 
L 415.444855 375.915208 
L 406.659416 386.168035 
L 404.571243 393.154943 
L 404.215773 418.056178 
L 395.061126 419.348407 
L 392.332992 411.706655 
L 392.83729 386.267922 
L 390.606013 383.9857 
L 390.185287 378.549466 
z
" clip-path="url(#p40808cf80c)" style="fill: #e8edf4; stroke: #b8c5d4; stroke-width: 0.45"/>
    <path d="M 377.674852 327.386936 
L 378.552652 322.018248 
L 385.651754 321.583212 
L 389.747389 317.646708 
L 404.861458 316.694494 
L 414.700714 314.93775 
L 415.644055 308.112549 
L 421.700788 300.713788 
L 421.669877 275.203216 
L 437.289961 270.263553 
L 469.361277 248.503451 
L 507.317601 227.39075 
L 524.840396 232.166702 
L 531.07057 238.250338 
L 538.906708 234.133477 
L 541.627063 251.351792 
L 545.771742 254.232554 
L 545.949948 257.755408 
L 550.55904 261.552529 
L 548.149742 266.320467 
L 543.881809 288.798093 
L 543.297945 303.205228 
L 529.168652 313.650055 
L 524.385897 328.240981 
L 528.99728 332.344344 
L 528.972666 339.46949 
L 536.076347 339.724502 
L 534.968722 344.942072 
L 531.842186 345.577454 
L 531.485571 349.104108 
L 529.425447 349.348816 
L 521.930233 337.221899 
L 519.33032 336.781139 
L 510.669096 342.972675 
L 502.092589 339.740529 
L 496.130878 339.094272 
L 492.934508 340.649526 
L 486.441022 340.313517 
L 479.906895 345.033945 
L 474.257723 345.304698 
L 460.851743 339.579394 
L 455.602117 342.298656 
L 449.949511 342.109758 
L 445.795489 337.926257 
L 434.692338 333.792842 
L 422.787805 335.104819 
L 419.903402 337.50038 
L 418.345286 343.870796 
L 415.170095 348.337071 
L 414.400768 358.225841 
L 405.9542 351.851418 
L 401.983351 351.880039 
L 398.264937 355.124492 
L 398.515655 347.538264 
L 385.743913 345.025931 
L 385.399891 339.665543 
L 379.162275 332.432496 
z
" clip-path="url(#p40808cf80c)" style="fill: #e8edf4; stroke: #b8c5d4; stroke-width: 0.45"/>
    <path d="M 404.215773 418.056178 
L 404.571243 393.154943 
L 406.659416 386.168035 
L 415.444855 375.915208 
L 414.277699 372.935784 
L 416.46032 368.476664 
L 413.969167 361.905902 
L 415.170095 348.337071 
L 418.345286 343.870796 
L 419.903402 337.50038 
L 422.787805 335.104819 
L 434.692338 333.792842 
L 445.795489 337.926257 
L 449.949511 342.109758 
L 455.602117 342.298656 
L 460.851743 339.579394 
L 474.257723 345.304698 
L 479.906895 345.033945 
L 486.441022 340.313517 
L 492.934508 340.649526 
L 496.130878 339.094272 
L 502.092589 339.740529 
L 510.669096 342.972675 
L 519.33032 336.781139 
L 521.930233 337.221899 
L 529.425447 349.348816 
L 531.485571 349.104108 
L 535.870277 353.516003 
L 534.078043 359.198375 
L 524.746519 367.769731 
L 520.256489 380.596139 
L 517.906722 383.064683 
L 515.671438 390.818628 
L 509.747506 395.381641 
L 508.031404 400.986737 
L 505.543112 405.448146 
L 504.507039 410.052373 
L 496.897343 413.784811 
L 490.678617 409.23296 
L 486.479374 409.416706 
L 479.882281 415.899888 
L 476.675035 415.999488 
L 468.557033 434.525727 
L 457.057198 438.512032 
L 452.853376 437.929598 
L 448.59403 440.41188 
L 439.733605 440.169748 
L 433.803376 433.24094 
L 430.156515 425.223111 
L 422.314417 417.925095 
z
" clip-path="url(#p40808cf80c)" style="fill: #e8edf4; stroke: #b8c5d4; stroke-width: 0.45"/>
    <path d="M 373.848539 368.78491 
L 374.663659 365.331525 
L 384.36439 365.567933 
L 382.955103 371.400278 
L 390.185287 378.549466 
L 390.606013 383.9857 
L 392.83729 386.267922 
L 392.332992 411.706655 
L 395.061126 419.348407 
L 386.142886 421.71134 
L 380.718101 410.794797 
L 379.838298 405.285294 
L 382.287093 395.308085 
L 379.508587 391.267688 
L 378.471655 374.497334 
z
" clip-path="url(#p40808cf80c)" style="fill: #e8edf4; stroke: #b8c5d4; stroke-width: 0.45"/>
    <path d="M 338.462362 418.148623 
L 341.351059 405.640192 
L 346.018824 396.336431 
L 341.569149 372.236292 
L 341.829312 365.951738 
L 361.070499 365.429695 
L 365.964082 366.237087 
L 369.540537 364.449146 
L 374.663659 365.331525 
L 373.848539 368.78491 
L 378.471655 374.497334 
L 379.508587 391.267688 
L 382.287093 395.308085 
L 379.838298 405.285294 
L 380.718101 410.794797 
L 386.142886 421.71134 
L 368.776934 428.19538 
L 362.618312 431.993932 
L 352.637096 435.207189 
L 342.762923 432.061191 
L 343.266076 427.69051 
z
" clip-path="url(#p40808cf80c)" style="fill: #e8edf4; stroke: #b8c5d4; stroke-width: 0.45"/>
    <path d="M 279.106558 415.743904 
L 281.514997 410.823131 
L 280.407373 405.468467 
L 280.91854 402.246911 
L 282.675284 402.234317 
L 283.327838 397.403128 
L 282.472077 395.264009 
L 283.530474 393.724211 
L 287.644426 392.392199 
L 284.908279 383.524905 
L 282.355018 378.946723 
L 283.244266 375.186237 
L 286.896851 373.321306 
L 289.963283 374.98446 
L 298.517466 375.075761 
L 300.556125 371.843328 
L 302.466849 372.059415 
L 305.665223 370.810404 
L 307.379608 375.548004 
L 314.536524 372.508762 
L 319.517687 374.923784 
L 321.453597 378.587246 
L 326.434188 380.926137 
L 330.308871 378.140189 
L 335.498965 377.719463 
L 343.080041 380.575818 
L 346.018824 396.336431 
L 341.351059 405.640192 
L 338.462362 418.148623 
L 343.266076 427.69051 
L 342.762923 432.061191 
L 337.723373 432.173957 
L 329.994614 430.008221 
L 322.893223 430.136156 
L 309.771734 432.069777 
L 291.113267 439.329728 
L 288.973004 439.038654 
L 289.823614 429.915776 
L 290.883155 428.529099 
L 290.546002 424.164714 
L 285.854482 419.525284 
L 282.335842 418.784864 
z
" clip-path="url(#p40808cf80c)" style="fill: #e8edf4; stroke: #b8c5d4; stroke-width: 0.45"/>
    <path d="M 206.802706 365.090824 
L 211.727772 359.691798 
L 215.089571 359.897295 
L 217.978267 358.038088 
L 220.421911 358.020344 
L 222.168065 356.552097 
L 221.225296 352.88148 
L 222.438532 351.723483 
L 222.640881 347.968435 
L 227.987245 348.082632 
L 235.948977 350.783004 
L 238.390903 350.535434 
L 239.222051 349.303595 
L 245.261897 350.179391 
L 246.860941 349.554599 
L 247.500902 353.610452 
L 252.148919 352.121598 
L 253.984656 352.491093 
L 257.059674 355.303658 
L 261.800709 356.188613 
L 271.078711 350.758676 
L 273.295678 351.049177 
L 275.757066 353.482803 
L 277.077057 356.537787 
L 281.616315 361.178076 
L 279.345541 364.029279 
L 278.913367 367.633209 
L 281.272865 366.543616 
L 282.656967 367.835845 
L 282.069668 371.134391 
L 285.452932 374.327613 
L 283.244266 375.186237 
L 282.355018 378.946723 
L 284.908279 383.524905 
L 287.644426 392.392199 
L 283.530474 393.724211 
L 282.472077 395.264009 
L 283.327838 397.403128 
L 282.675284 402.234317 
L 277.785708 401.962992 
L 275.526669 406.422971 
L 272.394982 406.368877 
L 270.239836 404.009665 
L 270.97167 399.560849 
L 266.340825 392.776004 
L 258.031636 394.904532 
L 258.155278 390.843242 
L 256.377927 387.9451 
L 256.736546 384.724689 
L 251.252515 376.107254 
L 242.393235 376.094947 
L 239.81164 378.181975 
L 236.758946 378.433838 
L 233.590624 383.896117 
L 227.668982 388.766231 
L 218.502886 377.876305 
L 212.901797 374.239747 
L 211.6442 369.345591 
L 210.023404 366.905669 
z
" clip-path="url(#p40808cf80c)" style="fill: #e8edf4; stroke: #b8c5d4; stroke-width: 0.45"/>
    <path d="M 189.665148 350.198567 
L 195.532983 348.394026 
L 199.201024 348.750641 
L 202.170717 347.503347 
L 222.640881 347.968435 
L 222.438532 351.723483 
L 221.225296 352.88148 
L 222.168065 356.552097 
L 220.421911 358.020344 
L 217.978267 358.038088 
L 215.089571 359.897295 
L 211.727772 359.691798 
L 206.802706 365.090824 
L 200.889078 360.45998 
L 196.22532 359.727574 
L 193.682362 356.604759 
L 193.747045 354.918994 
L 190.369792 352.568369 
z
" clip-path="url(#p40808cf80c)" style="fill: #e8edf4; stroke: #b8c5d4; stroke-width: 0.45"/>
    <path d="M 247.69352 412.217536 
L 250.340657 408.67371 
L 250.928814 405.451867 
L 261.082041 394.269723 
L 266.340825 392.776004 
L 270.97167 399.560849 
L 270.239836 404.009665 
L 272.394982 406.368877 
L 275.526669 406.422971 
L 277.785708 401.962992 
L 280.91854 402.246911 
L 280.407373 405.468467 
L 281.514997 410.823131 
L 279.106558 415.743904 
L 282.335842 418.784864 
L 285.854482 419.525284 
L 290.546002 424.164714 
L 290.883155 428.529099 
L 289.823614 429.915776 
L 288.973004 439.038654 
L 286.071428 439.136251 
L 274.654593 433.856287 
L 264.589805 425.425174 
L 255.152671 419.364435 
z
" clip-path="url(#p40808cf80c)" style="fill: #e8edf4; stroke: #b8c5d4; stroke-width: 0.45"/>
    <path d="M 227.668982 388.766231 
L 233.590624 383.896117 
L 236.758946 378.433838 
L 239.81164 378.181975 
L 242.393235 376.094947 
L 251.252515 376.107254 
L 256.736546 384.724689 
L 256.377927 387.9451 
L 258.155278 390.843242 
L 258.031636 394.904532 
L 261.082041 394.269723 
L 250.928814 405.451867 
L 250.340657 408.67371 
L 247.69352 412.217536 
L 244.70923 411.395833 
L 236.734904 406.933566 
L 230.96438 400.999616 
L 229.02618 396.953209 
z
" clip-path="url(#p40808cf80c)" style="fill: #e8edf4; stroke: #b8c5d4; stroke-width: 0.45"/>
    <path d="M 313.802973 366.078242 
L 316.823898 361.383001 
L 316.568028 357.631101 
L 325.360622 348.450695 
L 326.986283 340.854164 
L 330.021518 338.15093 
L 335.378185 339.644363 
L 340.020478 337.389045 
L 341.527077 334.543566 
L 350.121329 329.578144 
L 352.234688 326.115601 
L 362.587974 321.520818 
L 368.68592 319.944099 
L 371.450688 322.069193 
L 378.552652 322.018248 
L 377.674852 327.386936 
L 379.162275 332.432496 
L 385.399891 339.665543 
L 385.743913 345.025931 
L 398.515655 347.538264 
L 398.264937 355.124492 
L 395.844763 358.43649 
L 390.430281 359.471418 
L 388.173818 364.314342 
L 384.36439 365.567933 
L 369.540537 364.449146 
L 365.964082 366.237087 
L 361.070499 365.429695 
L 341.829312 365.951738 
L 341.569149 372.236292 
L 343.080041 380.575818 
L 335.498965 377.719463 
L 330.308871 378.140189 
L 326.434188 380.926137 
L 321.453597 378.587246 
L 319.517687 374.923784 
L 314.536524 372.508762 
z
" clip-path="url(#p40808cf80c)" style="fill: #e8edf4; stroke: #b8c5d4; stroke-width: 0.45"/>
    <path d="M 187.847727 341.707636 
L 189.263312 336.794305 
L 201.327548 336.477186 
L 203.829006 333.854377 
L 207.340777 333.675783 
L 211.71289 336.4022 
L 215.150247 336.454003 
L 218.802546 334.588786 
L 221.040406 337.790308 
L 216.246996 340.276597 
L 211.434123 340.081403 
L 206.682499 337.740794 
L 197.93026 341.941468 
z
" clip-path="url(#p40808cf80c)" style="fill: #e8edf4; stroke: #b8c5d4; stroke-width: 0.45"/>
    <path d="M 457.748104 109.6906 
L 464.577026 103.512229 
L 467.18438 94.376758 
L 465.428208 83.817116 
L 467.678375 78.131882 
L 479.741467 73.6616 
L 487.495412 74.99075 
L 487.17028 80.595274 
L 496.565914 76.518242 
L 497.35413 78.646198 
L 491.815435 84.073845 
L 491.741021 89.197539 
L 495.576207 91.949715 
L 494.117691 101.536536 
L 486.826258 107.105284 
L 488.931603 113.142554 
L 494.660341 113.330878 
L 497.448007 118.596818 
L 501.660415 120.328662 
L 501.034192 128.836766 
L 495.634593 132.016822 
L 492.22414 135.5658 
L 484.617877 139.834305 
L 485.795909 144.422791 
L 484.837113 149.102863 
L 479.432935 151.670148 
L 474.708214 131.785566 
L 467.879293 127.314998 
L 467.783699 124.633802 
L 458.724646 118.03442 
z
" clip-path="url(#p40808cf80c)" style="fill: #e8edf4; stroke: #b8c5d4; stroke-width: 0.45"/>
    <path d="M 278.203572 183.924065 
L 278.317482 167.911876 
L 296.205478 159.737777 
L 307.266842 158.048864 
L 316.333337 155.072016 
L 320.570073 149.525306 
L 333.521268 145.141459 
L 333.996946 136.940743 
L 340.405142 135.974791 
L 345.41607 131.878011 
L 359.912502 130.011077 
L 361.943433 125.706223 
L 359.024685 123.352449 
L 355.198657 111.658566 
L 354.539234 104.921517 
L 350.364033 97.826995 
L 361.012399 91.773983 
L 372.988197 89.848662 
L 379.981402 85.278208 
L 390.648944 81.906678 
L 427.743782 79.033437 
L 433.330561 80.67856 
L 443.761695 76.312744 
L 455.59811 76.227168 
L 460.103023 78.804471 
L 467.678375 78.131882 
L 465.428208 83.817116 
L 467.18438 94.376758 
L 464.577026 103.512229 
L 457.748104 109.6906 
L 458.724646 118.03442 
L 467.783699 124.633802 
L 467.879293 127.314998 
L 474.708214 131.785566 
L 479.432935 151.670148 
L 483.016258 161.45016 
L 483.618439 166.597037 
L 481.667646 175.633766 
L 482.467883 180.683905 
L 481.060313 186.746361 
L 482.026551 193.710945 
L 477.630397 198.339786 
L 484.179979 206.413426 
L 484.596126 211.159898 
L 488.534919 217.336838 
L 493.713566 215.307337 
L 502.456646 220.453928 
L 507.317601 227.39075 
L 469.361277 248.503451 
L 437.289961 270.263553 
L 421.669877 275.203216 
L 409.382398 276.287658 
L 409.255322 269.24036 
L 397.229437 264.270646 
L 394.595752 259.080265 
z
" clip-path="url(#p40808cf80c)" style="fill: #e8edf4; stroke: #b8c5d4; stroke-width: 0.45"/>
    <path d="M 268.87491 58.293093 
L 269.756431 51.041729 
L 274.172619 47.020507 
L 277.269961 35.882153 
L 277.024395 31.188916 
L 274.809718 27.210912 
L 274.32202 23.476757 
L 278.341524 20.661902 
L 282.861892 19.047116 
L 285.638681 24.470184 
L 292.181395 24.457019 
L 294.077808 23.058321 
L 300.53237 23.44556 
L 303.628567 29.001428 
L 298.510597 32.000315 
L 298.367779 40.64265 
L 296.568962 42.263732 
L 296.123909 47.499047 
L 291.338226 48.410906 
L 295.775594 55.051502 
L 292.717748 62.329197 
L 296.537193 65.622306 
L 295.017143 68.633786 
L 290.912062 72.787521 
L 291.835655 76.455276 
L 287.383977 79.329948 
L 281.544191 77.772405 
L 275.828046 78.991651 
L 277.520107 70.323557 
L 276.480027 63.512381 
L 271.523478 62.490619 
z
" clip-path="url(#p40808cf80c)" style="fill: #e8edf4; stroke: #b8c5d4; stroke-width: 0.45"/>
    <path d="M 270.35575 10.782004 
L 286.026207 2.787644 
L 299.581015 4.786234 
L 314.452951 4.716113 
L 326.23928 6.607947 
L 353.338878 6.393578 
L 357.753922 10.700148 
L 378.14452 15.73426 
L 382.171465 13.339558 
L 394.635248 18.3502 
L 407.475681 16.914295 
L 408.068131 23.348822 
L 397.571169 30.726404 
L 383.378118 33.067584 
L 382.390128 36.794012 
L 375.581814 42.934889 
L 371.312736 51.951011 
L 375.632759 58.281072 
L 369.225708 63.223025 
L 366.830148 70.423158 
L 358.467152 72.630679 
L 350.62391 81.147941 
L 326.006021 81.107014 
L 319.06834 85.018617 
L 314.837615 89.204122 
L 309.417981 88.285108 
L 305.316621 84.542654 
L 302.176348 78.170806 
L 291.835655 76.455276 
L 290.912062 72.787521 
L 295.017143 68.633786 
L 296.537193 65.622306 
L 292.717748 62.329197 
L 295.775594 55.051502 
L 291.338226 48.410906 
L 296.123909 47.499047 
L 296.568962 42.263732 
L 298.367779 40.64265 
L 298.510597 32.000315 
L 303.628567 29.001428 
L 300.53237 23.44556 
L 294.077808 23.058321 
L 292.181395 24.457019 
L 285.638681 24.470184 
L 282.861892 19.047116 
L 278.341524 20.661902 
L 274.32202 23.476757 
L 274.880125 15.587721 
z
" clip-path="url(#p40808cf80c)" style="fill: #e8edf4; stroke: #b8c5d4; stroke-width: 0.45"/>
    <path d="M 449.168735 -11.392814 
L 453.009073 -14.766634 
L 449.749165 -18.925807 
L 450.205953 -22.055777 
L 454.971887 -19.683113 
L 460.312527 -20.209736 
L 466.522667 -23.966501 
L 468.44255 -22.210902 
L 473.719079 -22.562938 
L 476.118074 -27.030071 
L 484.314497 -25.641963 
L 489.194342 -27.510328 
L 490.073001 -32.051589 
L 496.784004 -30.476587 
L 498.07194 -32.58365 
L 509.018821 -34.508971 
L 511.493375 -30.656039 
L 527.333267 -27.795391 
L 526.132911 -22.339695 
L 528.786058 -17.623561 
L 519.968564 -19.237201 
L 510.962745 -15.305849 
L 511.57523 -9.807223 
L 510.219177 -6.651494 
L 513.850011 -1.012053 
L 524.236497 4.566712 
L 529.807248 13.724221 
L 542.133079 22.650761 
L 550.813193 22.582357 
L 553.512706 25.030579 
L 550.40506 27.237243 
L 568.458484 34.591642 
L 577.957153 40.368463 
L 579.104275 42.437174 
L 577.034419 46.403729 
L 570.886673 41.231952 
L 561.263217 39.409094 
L 556.601462 46.574023 
L 564.607271 50.680248 
L 563.293004 56.460504 
L 558.665594 57.117351 
L 552.749103 66.617737 
L 548.131425 67.471209 
L 548.174356 64.084511 
L 550.434254 58.143406 
L 552.841835 55.777325 
L 545.1354 43.772047 
L 540.537183 42.391953 
L 537.266972 37.611135 
L 530.14898 35.597376 
L 525.356142 31.145126 
L 517.160292 30.427316 
L 498.371886 18.216827 
L 490.840038 11.836108 
L 487.384936 0.886078 
L 481.873716 -0.401857 
L 472.862173 -4.057878 
L 467.76252 -2.561296 
L 461.362338 2.579284 
L 456.75897 3.391256 
L 458.026298 -1.416751 
L 452.022228 -2.822032 
z
" clip-path="url(#p40808cf80c)" style="fill: #e8edf4; stroke: #b8c5d4; stroke-width: 0.45"/>
    <path d="M 512.097274 70.748862 
L 513.647376 65.061624 
L 526.609733 66.074228 
L 546.318011 63.901051 
L 542.328845 72.619803 
L 543.986561 76.051723 
L 541.661408 81.747833 
L 533.190226 77.57578 
L 527.557654 76.380576 
z
" clip-path="url(#p40808cf80c)" style="fill: #e8edf4; stroke: #b8c5d4; stroke-width: 0.45"/>
    <path d="M 464.787675 33.784535 
L 470.879897 34.338634 
L 476.418593 30.904711 
L 483.064341 38.769133 
L 481.508515 53.419831 
L 476.471827 52.720911 
L 471.953749 56.419003 
L 467.759658 53.481079 
L 467.316036 40.117172 
z
" clip-path="url(#p40808cf80c)" style="fill: #e8edf4; stroke: #b8c5d4; stroke-width: 0.45"/>
    <path d="M 185.866024 250.091332 
L 186.388639 244.957907 
L 190.643406 241.939558 
L 194.267944 236.167316 
L 193.553569 232.418565 
L 197.361851 224.602799 
L 203.527343 217.560366 
L 207.256632 215.775573 
L 210.188546 209.314716 
L 210.451285 203.41368 
L 214.449896 196.566442 
L 221.828623 192.529193 
L 228.849876 181.216824 
L 234.622117 176.807791 
L 244.922741 175.584252 
L 253.650938 168.013194 
L 259.204517 165.061817 
L 268.451322 155.812722 
L 265.683119 142.031238 
L 269.891521 132.501086 
L 271.37694 126.668168 
L 278.5018 119.184976 
L 297.830281 109.545492 
L 308.71391 91.273978 
L 316.867974 91.327213 
L 323.545777 96.029037 
L 334.079374 95.263144 
L 345.552305 97.708505 
L 350.364033 97.826995 
L 354.539234 104.921517 
L 355.198657 111.658566 
L 359.024685 123.352449 
L 361.943433 125.706223 
L 359.912502 130.011077 
L 345.41607 131.878011 
L 340.405142 135.974791 
L 333.996946 136.940743 
L 333.521268 145.141459 
L 320.570073 149.525306 
L 316.333337 155.072016 
L 307.266842 158.048864 
L 296.205478 159.737777 
L 278.317482 167.911876 
L 278.411931 181.036513 
L 276.725594 181.036513 
L 276.979746 186.970748 
L 270.132508 187.32765 
L 266.56235 189.847997 
L 261.532532 189.847997 
L 257.524476 188.409516 
L 248.205546 189.598996 
L 244.598181 198.2316 
L 241.13621 199.042713 
L 235.927798 213.007943 
L 220.529239 224.961131 
L 216.873219 240.256655 
L 212.335392 245.232666 
L 211.004811 249.224122 
z
" clip-path="url(#p40808cf80c)" style="fill: #e8edf4; stroke: #b8c5d4; stroke-width: 0.45"/>
   </g>
   <g id="PathCollection_1">
    <defs>
     <path id="m4644bd9bfb" d="M 0 2.12132 
C 0.562581 2.12132 1.102195 1.897805 1.5 1.5 
C 1.897805 1.102195 2.12132 0.562581 2.12132 0 
C 2.12132 -0.562581 1.897805 -1.102195 1.5 -1.5 
C 1.102195 -1.897805 0.562581 -2.12132 0 -2.12132 
C -0.562581 -2.12132 -1.102195 -1.897805 -1.5 -1.5 
C -1.897805 -1.102195 -2.12132 -0.562581 -2.12132 0 
C -2.12132 0.562581 -1.897805 1.102195 -1.5 1.5 
C -1.102195 1.897805 -0.562581 2.12132 0 2.12132 
z
" style="stroke: #ffffff; stroke-width: 0.5"/>
    </defs>
    <g clip-path="url(#p40808cf80c)">
     <use xlink:href="#m4644bd9bfb" x="391.015385" y="16.615385" style="fill: #8aa0b7; stroke: #ffffff; stroke-width: 0.5"/>
     <use xlink:href="#m4644bd9bfb" x="108.553846" y="310.153846" style="fill: #8aa0b7; stroke: #ffffff; stroke-width: 0.5"/>
     <use xlink:href="#m4644bd9bfb" x="315.138462" y="87.138462" style="fill: #8aa0b7; stroke: #ffffff; stroke-width: 0.5"/>
     <use xlink:href="#m4644bd9bfb" x="190.892308" y="338.215385" style="fill: #8aa0b7; stroke: #ffffff; stroke-width: 0.5"/>
     <use xlink:href="#m4644bd9bfb" x="208.246154" y="354.461538" style="fill: #8aa0b7; stroke: #ffffff; stroke-width: 0.5"/>
     <use xlink:href="#m4644bd9bfb" x="456.369231" y="2.953846" style="fill: #8aa0b7; stroke: #ffffff; stroke-width: 0.5"/>
     <use xlink:href="#m4644bd9bfb" x="387.323077" y="398.769231" style="fill: #8aa0b7; stroke: #ffffff; stroke-width: 0.5"/>
    </g>
   </g>
   <g id="PatchCollection_2">
    <defs>
     <path id="mda88b2bb09" d="M 185.389774 -177.228023 
L 185.866024 -181.908668 
L 211.004811 -182.775878 
L 212.335392 -186.767334 
L 216.873219 -191.743345 
L 220.529239 -207.038869 
L 235.927798 -218.992057 
L 241.13621 -232.957287 
L 244.598181 -233.7684 
L 248.205546 -242.401004 
L 257.524476 -243.590484 
L 261.532532 -242.152003 
L 266.56235 -242.152003 
L 270.132508 -244.67235 
L 276.979746 -245.029252 
L 276.725594 -250.963487 
L 278.411931 -250.963487 
L 278.171516 -231.297854 
L 241.815667 -231.877138 
L 242.172283 -203.533967 
L 231.793238 -202.53968 
L 229.084566 -196.850439 
L 231.185332 -180.853705 
L 187.807086 -180.922968 
z
" style="stroke: #b45309; stroke-width: 1.15"/>
    </defs>
    <g clip-path="url(#p40808cf80c)">
     <use xlink:href="#mda88b2bb09" x="0" y="432" style="fill: #f59e0b; stroke: #b45309; stroke-width: 1.15"/>
    </g>
   </g>
   <g id="PathCollection_2">
    <defs>
     <path id="mfceda4ef0b" d="M 0 3.316625 
C 0.879579 3.316625 1.723251 2.967164 2.345208 2.345208 
C 2.967164 1.723251 3.316625 0.879579 3.316625 0 
C 3.316625 -0.879579 2.967164 -1.723251 2.345208 -2.345208 
C 1.723251 -2.967164 0.879579 -3.316625 0 -3.316625 
C -0.879579 -3.316625 -1.723251 -2.967164 -2.345208 -2.345208 
C -2.967164 -1.723251 -3.316625 -0.879579 -3.316625 0 
C -3.316625 0.879579 -2.967164 1.723251 -2.345208 2.345208 
C -1.723251 2.967164 -0.879579 3.316625 0 3.316625 
z
" style="stroke: #ffffff"/>
    </defs>
    <g clip-path="url(#p40808cf80c)">
     <use xlink:href="#mfceda4ef0b" x="230.4" y="216" style="fill: #f97316; stroke: #ffffff"/>
    </g>
   </g>
   <g id="PathCollection_3">
    <path d="M 230.4 220.449719 
C 231.580079 220.449719 232.711984 219.980869 233.546427 219.146427 
C 234.380869 218.311984 234.849719 217.180079 234.849719 216 
C 234.849719 214.819921 234.380869 213.688016 233.546427 212.853573 
C 232.711984 212.019131 231.580079 211.550281 230.4 211.550281 
C 229.219921 211.550281 228.088016 212.019131 227.253573 212.853573 
C 226.419131 213.688016 225.950281 214.819921 225.950281 216 
C 225.950281 217.180079 226.419131 218.311984 227.253573 219.146427 
C 228.088016 219.980869 229.219921 220.449719 230.4 220.449719 
L 230.4 220.449719 
z
" clip-path="url(#p40808cf80c)" style="fill: none; stroke: #7c2d12; stroke-width: 1.1"/>
   </g>
  </g>
 </g>
 <defs>
  <clipPath id="p40808cf80c">
   <rect x="0" y="0" width="460.8" height="432"/>
  </clipPath>
 </defs>
</svg>
