<?xml version="1.0" encoding="utf-8" standalone="no"?>
<!DOCTYPE svg PUBLIC "-//W3C//DTD SVG 1.1//EN"
  "http://www.w3.org/Graphics/SVG/1.1/DTD/svg11.dtd">
<svg xmlns:xlink="http://www.w3.org/1999/xlink" width="498.461538pt" height="432pt" viewBox="0 0 498.461538 432" xmlns="http://www.w3.org/2000/svg" version="1.1">
 <metadata>
  <rdf:RDF xmlns:dc="http://purl.org/dc/elements/1.1/" xmlns:cc="http://creativecommons.org/ns#" xmlns:rdf="http://www.w3.org/1999/02/22-rdf-syntax-ns#">
   <cc:Work>
    <dc:type rdf:resource="http://purl.org/dc/dcmitype/StillImage"/>
    <dc:date>2026-06-09T04:57:02.893787</dc:date>
    <dc:format>image/svg+xml</dc:format>
    <dc:creator>
     <cc:Agent>
      <dc:title>Matplotlib v3.10.8, https://matplotlib.org/</dc:title>
     </cc:Agent>
    </dc:creator>
   </cc:Work>
  </rdf:RDF>
 </metadata>
 <defs>
  <style type="text/css">*{stroke-linejoin: round; stroke-linecap: butt}</style>
 </defs>
 <g id="figure_1">
  <g id="patch_1">
   <path d="M 0 432 
L 498.461538 432 
L 498.461538 0 
L 0 0 
z
" style="fill: #eaf3ff"/>
  </g>
  <g id="axes_1">
   <g id="PatchCollection_1">
    <path d="M 134.584587 447.428375 
L 139.492235 446.863523 
L 151.345266 433.890712 
L 151.235723 430.033569 
L 148.679921 427.343182 
L 147.991688 422.669631 
L 151.417293 421.167366 
L 152.103579 414.184914 
L 147.391574 407.488262 
L 151.554382 406.062791 
L 188.747342 405.296703 
L 233.786651 430.777464 
L 234.596176 437.662523 
L 251.630743 449.526501 
L 246.151464 464.150176 
L 246.854413 470.875965 
L 254.452747 475.2 
L 254.808791 478.285714 
L 251.541376 485.452879 
L 252.221895 489.059723 
L 251.444413 494.72913 
L 260.500747 513.871121 
L 264.856233 516.466681 
L 255.414066 523.347587 
L 242.436935 527.956247 
L 235.317046 527.761464 
L 231.087837 531.321547 
L 222.825968 531.627477 
L 219.727563 533.127616 
L 205.465821 529.783276 
L 196.536134 530.743095 
L 193.213187 514.602198 
L 186.801073 505.785956 
L 175.166214 503.571945 
L 168.430924 500.008656 
L 156.157928 496.023572 
L 151.200115 493.002268 
L 144.791171 478.048126 
L 137.908074 471.402378 
L 135.533979 464.518668 
L 136.72072 458.347003 
z
" clip-path="url(#pa515e1876e)" style="fill: #e8edf4; stroke: #b8c5d4; stroke-width: 0.45"/>
    <path d="M -69.044793 462.737637 
L -66.026117 461.484046 
L -65.654456 456.310224 
L -63.712739 453.259043 
L -59.393862 450.764741 
L -56.275831 451.973561 
L -52.216993 447.430214 
L -45.752169 447.547355 
L -44.991674 450.907028 
L -40.558109 453.009429 
L -23.661619 435.9774 
L -24.059039 426.213007 
L -18.904843 414.683529 
L -13.466688 408.570128 
L -5.652598 402.849854 
L -4.288613 399.063936 
L -3.993001 394.711327 
L -2.058644 390.592999 
L -2.67992 383.866908 
L -1.200634 373.349686 
L 1.118877 365.945283 
L 4.67358 359.599133 
L 6.444184 344.154637 
L 11.064807 338.128938 
L 17.41985 334.307142 
L 27.186082 338.340528 
L 34.745038 342.718589 
L 52.280589 346.203375 
L 55.829159 339.03632 
L 57.459317 338.121579 
L 62.868034 339.313532 
L 76.081028 333.390255 
L 80.762981 335.900809 
L 84.605935 335.544787 
L 86.38574 332.658891 
L 90.796613 331.642035 
L 107.336161 333.163946 
L 111.254552 331.904836 
L 118.443686 341.702346 
L 123.772673 343.141461 
L 126.949581 341.148534 
L 132.437414 341.929575 
L 139.046977 339.41902 
L 141.865717 344.487967 
L 152.313942 352.374734 
L 151.595764 366.251934 
L 156.35254 367.859094 
L 152.537184 372.073097 
L 147.977891 375.225166 
L 143.440065 381.41431 
L 140.943309 386.932195 
L 140.275423 396.458626 
L 137.525987 400.993386 
L 137.426632 409.94086 
L 134.013602 413.249014 
L 133.573864 420.311195 
L 131.943705 421.226243 
L 130.84528 427.718665 
L 133.829611 433.114503 
L 134.584587 447.428375 
L 136.72072 458.347003 
L 135.533979 464.518668 
L 137.908074 471.402378 
L 144.791171 478.048126 
L 151.200184 493.002286 
L 146.524977 491.794693 
L 130.584013 493.797739 
L 127.402812 495.216309 
L 124.020448 502.792437 
L 126.676662 508.026362 
L 123.099267 533.990533 
L 134.602986 540.720917 
L 137.860237 538.562704 
L 138.85256 551.360492 
L 129.769547 551.262364 
L 120.522169 539.673396 
L 111.427503 538.015025 
L 108.764543 531.796136 
L 101.509172 535.542802 
L 92.005433 533.887498 
L 88.039204 528.49902 
L 80.503554 527.404275 
L 74.941511 527.690687 
L 74.260745 524.001671 
L 64.761913 523.003215 
L 49.315271 525.577859 
L 49.950039 511.454725 
L 45.99117 507.050598 
L 45.12028 499.751682 
L 46.868806 492.597506 
L 44.463433 488.018588 
L 44.245711 480.551014 
L 29.845363 480.654662 
L 30.878778 476.378716 
L 24.82364 476.423487 
L 24.183965 478.479891 
L 16.823106 478.943548 
L 12.066944 488.827534 
L 5.508898 487.151378 
L 1.59296 488.820788 
L -6.254861 489.780607 
L -13.527405 479.737161 
L -19.860982 463.776572 
L -54.88302 463.619566 
L -67.38213 466.41868 
z
" clip-path="url(#pa515e1876e)" style="fill: #e8edf4; stroke: #b8c5d4; stroke-width: 0.45"/>
    <path d="M 272.742132 360.974927 
L 286.361525 343.770765 
L 293.96971 343.551679 
L 304.546589 335.185121 
L 320.00756 334.662092 
L 353.544765 299.041319 
L 367.177801 281.847375 
L 367.297375 258.599267 
L 382.851455 255.407301 
L 388.46793 251.344484 
L 392.968088 251.311965 
L 392.186097 267.734374 
L 389.680378 272.020905 
L 386.336057 284.850119 
L 373.284791 313.263376 
L 363.100154 330.656716 
L 339.010338 360.13502 
L 327.133068 369.742629 
L 309.380242 381.526853 
L 298.317007 390.55411 
L 285.328523 404.93069 
L 282.591495 411.188875 
L 279.911433 413.999011 
L 272.883956 404.208277 
z
" clip-path="url(#pa515e1876e)" style="fill: #e8edf4; stroke: #b8c5d4; stroke-width: 0.45"/>
    <path d="M 188.626972 392.718696 
L 197.866681 380.053899 
L 202.185376 371.403218 
L 195.576488 351.823648 
L 189.949451 343.583783 
L 205.29503 328.676044 
L 211.459818 330.667136 
L 211.459818 337.32832 
L 215.51434 341.23414 
L 223.774733 341.23414 
L 238.797673 351.313259 
L 245.327815 351.105982 
L 247.955064 352.474734 
L 255.869615 353.408519 
L 259.37731 348.462712 
L 270.219323 343.499103 
L 275.005978 347.509701 
L 283.115272 347.511815 
L 272.742132 360.974927 
L 272.883956 404.208277 
L 279.911433 413.999011 
L 271.599468 418.737956 
L 268.668989 423.689815 
L 264.220695 424.559749 
L 262.5372 432.921916 
L 258.725987 437.71047 
L 256.409684 445.607169 
L 251.630743 449.526501 
L 234.596176 437.662523 
L 233.786651 430.777464 
L 188.747342 405.296703 
z
" clip-path="url(#pa515e1876e)" style="fill: #e8edf4; stroke: #b8c5d4; stroke-width: 0.45"/>
    <path d="M 46.72258 244.623798 
L 47.918651 240.26487 
L 50.992378 235.317521 
L 49.647837 230.402215 
L 53.549248 226.762259 
L 51.074624 223.989389 
L 54.213033 216.661174 
L 59.632497 207.921125 
L 69.866387 208.75047 
L 69.428571 156.659341 
L 83.076923 156.623262 
L 83.076923 132.923077 
L 223.906905 132.923077 
L 227.734259 144.567495 
L 225.131459 146.720492 
L 226.85578 158.938497 
L 231.212453 173.107503 
L 242.229639 180.415692 
L 236.223297 187.189635 
L 227.482062 189.140756 
L 223.744312 192.779407 
L 222.57364 200.668035 
L 217.462391 218.106712 
L 218.723855 222.858475 
L 216.83338 233.050589 
L 212.007916 244.741292 
L 204.849771 250.621002 
L 199.760004 259.687068 
L 198.567495 264.538642 
L 192.94556 267.862668 
L 189.434611 280.282787 
L 189.593169 290.952475 
L 189.455651 281.698593 
L 187.812753 281.463893 
L 188.016498 275.555299 
L 186.590286 271.480406 
L 180.477946 266.794279 
L 179.051734 258.237005 
L 180.477946 249.475985 
L 174.976841 248.661007 
L 174.161863 251.309687 
L 167.030801 251.920921 
L 169.883225 255.38458 
L 170.901949 262.515642 
L 164.38212 269.03547 
L 158.473526 277.592745 
L 152.361187 278.815213 
L 142.3777 271.887895 
L 137.895318 274.332831 
L 136.67285 277.79649 
L 130.560511 280.037681 
L 130.153021 282.482616 
L 118.335832 282.482616 
L 116.705875 280.037681 
L 108.148601 279.630192 
L 103.869963 281.667638 
L 100.610049 280.648915 
L 92.460264 270.461683 
L 83.902989 272.09164 
L 80.643075 277.592745 
L 77.586905 288.187466 
L 69.86745 291.721889 
L 77.942401 296.35689 
L 68.904159 291.168963 
L 64.788285 287.751333 
L 64.02595 284.062931 
L 65.954173 279.124004 
L 65.919215 274.281366 
L 59.074144 266.861323 
L 57.871622 258.907925 
L 53.509727 255.409793 
L 53.378347 248.515833 
L 50.890668 243.936989 
z
" clip-path="url(#pa515e1876e)" style="fill: #e8edf4; stroke: #b8c5d4; stroke-width: 0.45"/>
    <path d="M -52.927198 223.510941 
L -47.802818 207.877807 
L -32.66429 196.68692 
L -32.038721 181.250704 
L -27.465936 157.167533 
L -24.884545 152.059028 
L -29.822858 147.990685 
L -30.013793 144.216198 
L -34.45452 141.129667 
L -37.369187 122.681473 
L -25.387714 116.192334 
L 69.282119 161.638378 
L 69.866387 208.75047 
L 59.632497 207.921125 
L 54.213033 216.661174 
L 51.074624 223.989389 
L 53.549248 226.762259 
L 49.647837 230.402215 
L 50.992378 235.317521 
L 47.918651 240.26487 
L 46.72258 244.623798 
L 50.890668 243.936989 
L 53.378347 248.515833 
L 53.509727 255.409793 
L 57.871622 258.907925 
L 57.728557 261.782563 
L 50.215599 263.806156 
L 44.194806 268.610769 
L 35.614701 281.559736 
L 24.444619 287.057995 
L 12.983831 286.320498 
L 9.637038 287.411564 
L 10.812126 291.589382 
L -0.41622 300.37157 
L -15.3575 304.912157 
L -18.322206 302.224664 
L -20.287841 301.992836 
L -22.475492 305.04555 
L -32.287722 305.937599 
L -30.428801 302.722666 
L -35.841811 289.628653 
L -41.010726 287.613954 
L -48.01587 280.687313 
L -45.437545 275.086939 
L -40.028829 276.2792 
L -36.680196 275.434068 
L -30.05162 275.550289 
L -36.511538 264.762295 
L -36.077319 256.878901 
L -36.870013 249.004681 
L -41.588457 241.404967 
L -40.401717 235.814713 
L -48.012803 235.541487 
L -47.986431 227.907401 
z
" clip-path="url(#pa515e1876e)" style="fill: #e8edf4; stroke: #b8c5d4; stroke-width: 0.45"/>
    <path d="M -42.020222 329.319765 
L -41.104562 320.119611 
L -38.256384 317.965078 
L -32.287722 305.937599 
L -22.475492 305.04555 
L -20.287841 301.992836 
L -18.322206 302.224664 
L -15.3575 304.912157 
L -0.41622 300.37157 
L 10.812126 291.589382 
L 9.637038 287.411564 
L 12.983831 286.320498 
L 24.444619 287.057995 
L 35.614701 281.559736 
L 44.194806 268.610769 
L 50.215599 263.806156 
L 57.728557 261.782563 
L 59.074144 266.861323 
L 65.919215 274.281366 
L 65.954173 279.124004 
L 64.02595 284.062931 
L 64.788285 287.751333 
L 84.440957 301.152611 
L 84.550125 305.009978 
L 92.531646 311.190537 
L 97.477933 316.326027 
L 100.47453 323.445551 
L 109.345954 328.14253 
L 111.254552 331.904836 
L 107.336161 333.163946 
L 90.796613 331.642035 
L 86.38574 332.658891 
L 84.605935 335.544787 
L 80.762981 335.900809 
L 76.081028 333.390255 
L 62.868034 339.313532 
L 57.459317 338.121579 
L 55.829159 339.03632 
L 52.280589 346.203375 
L 34.745038 342.718589 
L 27.186082 338.340528 
L 17.41985 334.307142 
L 11.064807 338.128938 
L 6.444184 344.154637 
L 5.377038 352.431464 
L -2.256128 351.769097 
L -10.289167 349.77525 
L -17.362387 356.064669 
L -23.58373 367.109331 
L -25.365374 358.25692 
L -30.793103 354.438191 
L -35.174538 348.313443 
L -36.186487 344.052522 
L -41.79514 337.854792 
L -40.839001 334.318182 
z
" clip-path="url(#pa515e1876e)" style="fill: #e8edf4; stroke: #b8c5d4; stroke-width: 0.45"/>
    <path d="M -81.964015 441.243217 
L -72.928226 434.69253 
L -77.403496 426.844709 
L -73.333619 423.860378 
L -65.325726 422.40685 
L -64.381239 417.147166 
L -58.039689 422.846589 
L -47.562639 423.345817 
L -43.921461 417.737777 
L -42.423162 409.847024 
L -43.717231 400.580634 
L -49.332017 393.561997 
L -44.193767 379.816657 
L -47.156019 377.457895 
L -55.986352 378.425073 
L -59.303706 372.292659 
L -58.440789 367.115771 
L -43.463324 367.581268 
L -24.437447 373.517731 
L -23.58373 367.109331 
L -17.362387 356.064669 
L -10.289167 349.77525 
L -2.256128 351.769097 
L 5.377038 352.431464 
L 4.67358 359.599133 
L 1.118877 365.945283 
L -1.200634 373.349686 
L -2.67992 383.866908 
L -2.058644 390.592999 
L -3.993001 394.711327 
L -4.288613 399.063936 
L -5.652598 402.849854 
L -13.466688 408.570128 
L -18.904843 414.683529 
L -24.059039 426.213007 
L -23.661619 435.9774 
L -40.558109 453.009429 
L -44.991674 450.907028 
L -45.752169 447.547355 
L -52.216993 447.430214 
L -56.275831 451.973561 
L -59.393862 450.764741 
L -63.841533 446.693025 
L -67.427514 448.689325 
L -72.218021 453.813469 
z
" clip-path="url(#pa515e1876e)" style="fill: #e8edf4; stroke: #b8c5d4; stroke-width: 0.45"/>
    <path d="M 130.84528 427.718665 
L 138.0522 428.651499 
L 141.686019 421.894129 
L 147.991731 422.669925 
L 148.679921 427.343182 
L 151.235723 430.033569 
L 151.345266 433.890712 
L 139.492235 446.863523 
L 134.584587 447.428375 
L 133.829611 433.114503 
z
" clip-path="url(#pa515e1876e)" style="fill: #e8edf4; stroke: #b8c5d4; stroke-width: 0.45"/>
    <path d="M 193.040308 23.506486 
L 196.493203 19.596375 
L 195.68303 18.923275 
L 198.821913 13.376259 
L 201.229126 4.422346 
L 202.926748 1.417776 
L 207.226 1.316888 
L 208.318905 -0.762822 
L 211.503173 -0.918907 
L 211.684711 3.938757 
L 208.23427 9.565809 
L 203.941151 7.921851 
L 201.457275 15.825177 
L 204.439153 17.15727 
L 201.408211 18.789882 
L 200.896716 21.915273 
L 206.476544 20.305353 
L 206.753757 24.922296 
L 200.839679 43.896348 
z
" clip-path="url(#pa515e1876e)" style="fill: #e8edf4; stroke: #b8c5d4; stroke-width: 0.45"/>
    <path d="M 203.254252 1.294809 
L 207.481134 -8.372375 
L 213.607415 -17.14843 
L 218.945602 -16.543407 
L 220.886705 -11.88936 
L 214.415134 -7.416543 
L 211.503173 -0.918907 
L 208.318905 -0.762822 
L 207.226 1.316888 
z
" clip-path="url(#pa515e1876e)" style="fill: #e8edf4; stroke: #b8c5d4; stroke-width: 0.45"/>
    <path d="M 200.896716 21.915273 
L 201.408211 18.789882 
L 204.439153 17.15727 
L 201.457275 15.825177 
L 203.941151 7.921851 
L 208.23427 9.565809 
L 208.229363 16.82302 
L 206.476544 20.305353 
z
" clip-path="url(#pa515e1876e)" style="fill: #e8edf4; stroke: #b8c5d4; stroke-width: 0.45"/>
    <path d="M 200.839679 43.896348 
L 206.753757 24.922296 
L 206.476544 20.305353 
L 208.229363 16.82302 
L 208.23427 9.565809 
L 210.302326 5.824969 
L 223.525133 10.527774 
L 246.766239 -2.120674 
L 251.550614 12.330884 
L 249.288753 14.120502 
L 225.520207 20.075978 
L 237.348976 31.943079 
L 233.423839 33.958698 
L 231.471083 37.933206 
L 222.415055 39.576857 
L 219.57485 43.849737 
L 214.444573 47.502262 
L 201.236486 45.614516 
z
" clip-path="url(#pa515e1876e)" style="fill: #e8edf4; stroke: #b8c5d4; stroke-width: 0.45"/>
    <path d="M 398.526156 106.273221 
L 400.637757 105.696716 
L 401.076268 108.951514 
L 410.365351 107.08094 
L 427.347703 107.741774 
L 451.829521 84.792293 
L 454.087088 88.837638 
L 455.698848 98.21197 
L 449.638804 98.258274 
L 448.664266 105.987115 
L 450.766054 107.637513 
L 445.394749 109.974809 
L 445.361631 114.825727 
L 441.90383 119.737669 
L 441.593499 124.516523 
L 439.201618 127.025238 
L 403.525186 121.041243 
z
" clip-path="url(#pa515e1876e)" style="fill: #e8edf4; stroke: #b8c5d4; stroke-width: 0.45"/>
    <path d="M 388.609051 91.593207 
L 391.806811 85.367571 
L 395.048116 84.090675 
L 398.639617 87.810969 
L 398.848753 94.759076 
L 396.272268 101.740914 
L 392.982512 102.584205 
L 389.394692 100.229429 
z
" clip-path="url(#pa515e1876e)" style="fill: #e8edf4; stroke: #b8c5d4; stroke-width: 0.45"/>
    <path d="M 339.057258 48.67091 
L 347.767383 37.276972 
L 355.741545 38.265003 
L 358.218061 43.502915 
L 357.158888 46.210953 
L 360.982217 55.163026 
L 352.588556 55.470904 
L 349.63305 49.816253 
z
" clip-path="url(#pa515e1876e)" style="fill: #e8edf4; stroke: #b8c5d4; stroke-width: 0.45"/>
    <path d="M 246.766239 -2.120674 
L 273.040127 -14.471671 
L 277.523984 -28.819581 
L 276.405319 -37.489228 
L 282.901422 -40.421122 
L 288.984158 -47.827059 
L 294.08193 -49.67126 
L 307.886148 -48.139843 
L 312.054153 -45.116874 
L 317.741662 -47.121669 
L 325.431512 -32.964281 
L 333.21371 -29.401912 
L 334.109132 -22.469445 
L 328.135563 -18.373503 
L 325.384901 -9.112325 
L 333.60561 2.168458 
L 348.147631 8.67376 
L 354.254286 17.693297 
L 352.30889 26.289654 
L 356.099714 26.286281 
L 356.216855 32.608205 
L 362.784713 38.847027 
L 347.767383 37.276972 
L 339.057258 48.67091 
L 316.991853 47.723051 
L 283.529444 23.854842 
L 265.846087 15.54735 
L 251.550614 12.330884 
z
" clip-path="url(#pa515e1876e)" style="fill: #e8edf4; stroke: #b8c5d4; stroke-width: 0.45"/>
    <path d="M 403.5166 168.527433 
L 439.120662 156.659412 
L 447.032881 132.923064 
L 441.593499 124.516523 
L 441.90383 119.737669 
L 445.361631 114.825727 
L 445.394749 109.974809 
L 450.766054 107.637513 
L 448.664266 105.987115 
L 449.638804 98.258274 
L 455.698848 98.21197 
L 461.019249 106.318605 
L 467.645371 110.62767 
L 483.379652 114.341525 
L 491.935225 125.086895 
L 496.183573 126.5901 
L 496.160881 129.237728 
L 489.945058 139.641795 
L 484.945414 143.437832 
L 480.516755 151.568079 
L 475.132571 150.945577 
L 472.664641 153.775356 
L 470.758496 159.792469 
L 472.217543 167.725539 
L 471.098266 169.183667 
L 465.637418 169.144722 
L 458.224428 173.580127 
L 457.06774 179.361732 
L 454.353875 181.86646 
L 446.97155 181.770785 
L 442.324556 184.759409 
L 442.383433 189.553596 
L 436.640466 192.848872 
L 430.092233 191.729901 
L 422.155483 195.733234 
L 416.67317 196.405107 
z
" clip-path="url(#pa515e1876e)" style="fill: #e8edf4; stroke: #b8c5d4; stroke-width: 0.45"/>
    <path d="M 451.829521 84.792293 
L 455.285482 80.751548 
L 456.753115 81.781897 
L 455.634451 86.684945 
L 454.087088 88.837638 
z
" clip-path="url(#pa515e1876e)" style="fill: #e8edf4; stroke: #b8c5d4; stroke-width: 0.45"/>
    <path d="M 309.867729 -73.916343 
L 317.994603 -77.297174 
L 319.878056 -72.820064 
L 325.871863 -67.341431 
L 334.01223 -65.76371 
L 338.309642 -66.112679 
L 352.306437 -74.868495 
L 356.757174 -75.745212 
L 360.263426 -72.262265 
L 356.17147 -66.390505 
L 363.572807 -60.175909 
L 366.526473 -60.767746 
L 370.281113 -52.01653 
L 381.533991 -49.544306 
L 389.777392 -43.589444 
L 406.649963 -41.543466 
L 425.185198 -44.683882 
L 426.322261 -47.45969 
L 436.750861 -49.756202 
L 445.192359 -56.54117 
L 453.129723 -56.197108 
L 458.339729 -58.407757 
L 466.778775 -57.313932 
L 479.901613 -51.297739 
L 489.379593 -50.000297 
L 502.943396 -39.489822 
L 511.790287 -39.06511 
L 512.831675 -29.077782 
L 504.733013 -5.654524 
L 509.898862 -3.902625 
L 504.823782 2.59593 
L 508.711508 12.070844 
L 509.640661 19.605268 
L 518.629226 21.605861 
L 519.601311 29.244853 
L 508.837235 40.004636 
L 514.712675 46.246831 
L 519.490303 53.4145 
L 530.83579 58.632786 
L 531.163293 69.085304 
L 536.841863 71.006475 
L 537.823761 76.471922 
L 520.704642 82.602496 
L 516.232439 96.390154 
L 480.96508 90.079576 
L 467.571775 88.537426 
L 462.510188 73.984673 
L 456.829778 71.881658 
L 447.709967 74.002152 
L 435.739524 79.746039 
L 421.236755 75.809248 
L 409.255887 66.688824 
L 397.82883 63.308299 
L 389.90312 52.047448 
L 381.145157 36.224238 
L 374.758222 38.147555 
L 367.215826 34.214752 
L 362.784713 38.847027 
L 356.216855 32.608205 
L 356.099714 26.286281 
L 352.30889 26.289654 
L 354.254286 17.693297 
L 348.147631 8.67376 
L 333.60561 2.168458 
L 325.384901 -9.112325 
L 328.135563 -18.373503 
L 334.109132 -22.469445 
L 333.21371 -29.401912 
L 325.431512 -32.964281 
L 317.741578 -47.121824 
L 311.250726 -56.629793 
L 313.57269 -60.305316 
z
" clip-path="url(#pa515e1876e)" style="fill: #e8edf4; stroke: #b8c5d4; stroke-width: 0.45"/>
    <path d="M 210.302326 5.824969 
L 211.684711 3.938757 
L 211.503173 -0.918907 
L 214.415134 -7.416543 
L 220.886705 -11.88936 
L 218.945602 -16.543407 
L 213.607415 -17.14843 
L 212.499177 -26.228684 
L 215.403778 -31.11272 
L 221.760661 -36.312914 
L 222.402789 -42.93321 
L 226.286835 -40.625045 
L 239.353249 -43.926454 
L 245.669041 -41.691885 
L 255.43282 -41.72899 
L 269.089231 -46.182181 
L 275.484139 -45.981324 
L 288.984158 -47.827059 
L 282.901422 -40.421122 
L 276.405319 -37.489228 
L 277.523984 -28.819581 
L 273.040127 -14.471671 
L 246.766239 -2.120674 
L 223.525133 10.527774 
z
" clip-path="url(#pa515e1876e)" style="fill: #e8edf4; stroke: #b8c5d4; stroke-width: 0.45"/>
    <path d="M 217.462391 218.106712 
L 222.57364 200.668035 
L 223.744312 192.779407 
L 227.482062 189.140756 
L 236.223297 187.189635 
L 242.229639 180.415692 
L 249.119482 194.155206 
L 252.388999 205.048996 
L 258.894914 210.829681 
L 275.094692 222.039934 
L 291.832336 239.731264 
L 297.667298 243.300993 
L 294.088063 246.199461 
L 289.007525 245.169138 
L 284.950879 241.32873 
L 280.070822 234.3708 
L 274.808967 230.558281 
L 271.739868 226.460097 
L 261.41044 221.701569 
L 253.273174 221.559626 
L 250.410462 219.078119 
L 243.450396 221.869147 
L 236.247864 216.48149 
L 232.541446 225.339033 
L 218.723855 222.858475 
z
" clip-path="url(#pa515e1876e)" style="fill: #e8edf4; stroke: #b8c5d4; stroke-width: 0.45"/>
    <path d="M 292.013873 213.468109 
L 294.389195 212.890991 
L 293.171789 207.468168 
L 294.610597 205.179323 
L 294.084383 200.003048 
L 299.295003 196.21713 
L 298.077597 191.214113 
L 301.222614 185.380378 
L 306.097144 188.46621 
L 309.31453 187.393544 
L 323.010806 187.120931 
L 325.186804 188.307672 
L 336.659244 189.494719 
L 341.208724 188.901042 
L 344.175883 192.857151 
L 349.714619 190.878943 
L 358.219901 178.417552 
L 369.296762 173.076912 
L 403.5166 168.527433 
L 416.67317 196.405107 
L 408.088158 199.593362 
L 405.791953 204.862552 
L 405.512287 208.909736 
L 393.695783 213.920113 
L 374.731237 219.456397 
L 364.105154 227.830125 
L 358.879815 228.484212 
L 355.31898 227.782288 
L 348.382526 232.707722 
L 340.81805 234.992581 
L 327.857737 236.283276 
L 325.263467 239.416947 
L 322.152795 240.28293 
L 320.31534 243.301606 
L 314.441127 243.039726 
L 310.64969 244.650259 
L 302.435113 244.046769 
L 299.348361 237.113995 
L 299.687517 230.626479 
L 297.747027 227.124827 
L 295.42445 218.346932 
z
" clip-path="url(#pa515e1876e)" style="fill: #e8edf4; stroke: #b8c5d4; stroke-width: 0.45"/>
    <path d="M 197.394758 61.019454 
L 201.236486 45.614516 
L 214.444573 47.502262 
L 219.57485 43.849737 
L 222.415055 39.576857 
L 231.471083 37.933206 
L 233.423839 33.958698 
L 237.348976 31.943079 
L 225.520207 20.075978 
L 249.288753 14.120502 
L 251.550614 12.330884 
L 265.846087 15.54735 
L 283.529444 23.854842 
L 316.991853 47.723051 
L 349.63305 49.816253 
L 352.588556 55.470904 
L 360.982217 55.163026 
L 365.628598 65.397822 
L 371.46724 68.10862 
L 373.500952 72.276931 
L 381.589188 77.265536 
L 382.307365 82.162758 
L 381.124918 86.115494 
L 382.626896 90.102268 
L 386.039312 93.428209 
L 389.394692 100.229429 
L 392.982512 102.584205 
L 396.272268 101.740914 
L 403.525186 121.041243 
L 439.201618 127.025238 
L 441.593499 124.516523 
L 447.032881 132.923064 
L 439.120662 156.659412 
L 403.5166 168.527433 
L 369.296762 173.076912 
L 358.219901 178.417552 
L 349.714619 190.878943 
L 344.175883 192.857151 
L 341.208724 188.901042 
L 336.659244 189.494719 
L 325.186804 188.307672 
L 323.010806 187.120931 
L 309.31453 187.393544 
L 306.097144 188.46621 
L 301.222614 185.380378 
L 298.077597 191.214113 
L 299.295003 196.21713 
L 294.084383 200.003048 
L 292.54438 194.938394 
L 288.965146 191.364066 
L 288.050098 186.629675 
L 281.920137 182.377034 
L 275.594533 172.424971 
L 272.247127 162.753801 
L 264.03807 154.586755 
L 258.745268 152.637679 
L 250.88518 141.326844 
L 249.511995 133.078842 
L 250.01797 126.043647 
L 243.210923 112.884317 
L 237.645815 108.252962 
L 231.234348 105.798524 
L 227.331903 98.998224 
L 227.980777 96.315331 
L 224.683048 90.162678 
L 221.217275 87.512904 
L 216.58316 78.684105 
L 203.303316 60.962416 
z
" clip-path="url(#pa515e1876e)" style="fill: #e8edf4; stroke: #b8c5d4; stroke-width: 0.45"/>
    <path d="M 79.517314 37.453569 
L 82.573952 30.126066 
L 80.737358 25.050185 
L 85.033029 19.355143 
L 100.823697 19.158963 
L 129.523213 27.652154 
L 138.660369 23.892211 
L 143.545411 20.491516 
L 154.011916 19.51287 
L 162.450514 21.011341 
L 165.683987 26.897934 
L 168.438105 23.020141 
L 177.94982 25.824224 
L 187.200791 26.496079 
L 193.040387 23.506497 
L 200.839648 43.896303 
L 197.506365 48.666224 
L 194.952462 57.631767 
L 191.723855 63.811385 
L 188.9568 65.88356 
L 179.645064 56.75756 
L 171.176796 39.745424 
L 169.957108 40.82127 
L 174.874787 53.344523 
L 182.161108 65.276031 
L 191.130923 83.76207 
L 199.326105 96.918132 
L 209.975855 110.056629 
L 207.617776 112.125719 
L 208.000642 119.839174 
L 223.906905 132.923077 
L 83.076923 132.923077 
L 83.076923 47.01377 
z
" clip-path="url(#pa515e1876e)" style="fill: #e8edf4; stroke: #b8c5d4; stroke-width: 0.45"/>
    <path d="M -103.022377 84.33109 
L -98.312212 79.371617 
L -99.347467 71.909563 
L -97.839356 65.414074 
L -98.696753 60.003211 
L -96.606617 50.321001 
L -97.251812 44.80649 
L -101.091087 34.327906 
L -95.300896 31.577243 
L -94.273614 26.56288 
L -95.535791 21.646646 
L -87.386224 17.073248 
L -83.732167 13.270771 
L -77.946882 9.863568 
L -77.275929 0.747743 
L -63.336541 4.832941 
L -58.352519 3.811807 
L -48.437644 5.792123 
L -32.689226 11.095754 
L -27.131262 21.644387 
L 0.250299 28.915873 
L 12.893657 34.81647 
L 18.680914 31.737521 
L 24.369429 26.278892 
L 21.603916 17.187547 
L 25.326237 11.414769 
L 33.87782 5.853363 
L 42.048554 4.234549 
L 58.103525 6.663007 
L 62.151033 11.96913 
L 66.569895 12.019332 
L 70.348352 14.043916 
L 82.141002 15.436167 
L 85.033029 19.355143 
L 80.737358 25.050185 
L 82.573952 30.126066 
L 79.517314 37.453569 
L 83.076923 47.01377 
L 83.076923 156.623262 
L 69.428571 156.659341 
L 69.282119 161.638378 
L -25.387714 116.192334 
L -45.765049 127.092395 
L -52.440236 120.574213 
L -71.214658 115.457122 
L -76.422825 108.024813 
L -85.790411 102.510609 
L -91.33896 104.685073 
L -95.559096 98.066924 
L -96.004967 92.981418 
z
" clip-path="url(#pa515e1876e)" style="fill: #e8edf4; stroke: #b8c5d4; stroke-width: 0.45"/>
    <path d="M 177.47818 301.628927 
L 181.520703 294.868721 
L 187.819121 294.577002 
L 189.593169 290.952475 
L 189.434611 280.282787 
L 192.94556 267.862668 
L 198.567495 264.538642 
L 199.760004 259.687068 
L 204.849771 250.621002 
L 212.007916 244.741292 
L 216.83338 233.050589 
L 218.723855 222.858475 
L 232.541446 225.339033 
L 236.247864 216.48149 
L 243.450396 221.869147 
L 250.410462 219.078119 
L 253.273174 221.559626 
L 261.41044 221.701569 
L 271.739868 226.460097 
L 274.808967 230.558281 
L 280.070822 234.3708 
L 284.950879 241.32873 
L 289.007525 245.169138 
L 280.820888 255.981363 
L 281.934237 262.868321 
L 288.56342 263.066637 
L 291.421147 262.225068 
L 294.054945 264.340342 
L 291.466602 268.545204 
L 300.228013 280.794303 
L 304.758791 285.03004 
L 343.562716 299.113952 
L 353.544765 299.041319 
L 320.00756 334.662092 
L 304.546589 335.185121 
L 293.96971 343.551679 
L 286.361525 343.770765 
L 283.115272 347.511815 
L 275.005978 347.509701 
L 270.219323 343.499103 
L 259.37731 348.462712 
L 255.869615 353.408519 
L 247.955064 352.474734 
L 245.327815 351.105982 
L 238.797673 351.313259 
L 223.774733 341.23414 
L 215.51434 341.23414 
L 211.459818 337.32832 
L 211.459818 330.667136 
L 205.29503 328.676044 
L 198.281116 315.760905 
L 192.860941 313.009279 
L 190.781407 308.263451 
L 184.766519 302.479042 
z
" clip-path="url(#pa515e1876e)" style="fill: #e8edf4; stroke: #b8c5d4; stroke-width: 0.45"/>
    <path d="M 280.820888 255.981363 
L 289.007525 245.169138 
L 294.088063 246.199461 
L 297.667298 243.300993 
L 300.475611 246.974063 
L 300.10211 251.90195 
L 293.331248 254.741848 
L 298.427793 257.988979 
L 294.054945 264.340342 
L 291.421147 262.225068 
L 288.56342 263.066637 
L 281.934237 262.868321 
z
" clip-path="url(#pa515e1876e)" style="fill: #e8edf4; stroke: #b8c5d4; stroke-width: 0.45"/>
    <path d="M 291.466602 268.545204 
L 298.427793 257.988979 
L 302.289147 260.17663 
L 304.615404 265.084585 
L 309.969537 270.05295 
L 315.861536 270.092508 
L 327.049404 267.056353 
L 339.967399 265.649744 
L 350.414398 261.962568 
L 356.300264 261.18122 
L 360.539412 259.016261 
L 367.297375 258.599267 
L 367.177801 281.847375 
L 353.544765 299.041319 
L 343.562716 299.113952 
L 304.758791 285.03004 
L 300.228013 280.794303 
z
" clip-path="url(#pa515e1876e)" style="fill: #e8edf4; stroke: #b8c5d4; stroke-width: 0.45"/>
    <path d="M 137.426632 409.94086 
L 137.525987 400.993386 
L 140.275423 396.458626 
L 140.943309 386.932195 
L 143.440065 381.41431 
L 147.977891 375.225166 
L 152.537184 372.073097 
L 156.35254 367.859094 
L 151.595764 366.251934 
L 152.313853 352.374667 
L 157.200053 349.13789 
L 164.746879 351.79196 
L 174.300369 349.014224 
L 182.650549 349.041758 
L 189.949451 343.583783 
L 195.576488 351.823648 
L 202.185376 371.403218 
L 197.866681 380.053899 
L 188.626972 392.718696 
L 188.747342 405.296703 
L 151.554382 406.062791 
L 140.299341 411.151519 
z
" clip-path="url(#pa515e1876e)" style="fill: #e8edf4; stroke: #b8c5d4; stroke-width: 0.45"/>
    <path d="M 130.84528 427.718665 
L 131.943705 421.226243 
L 133.573864 420.311195 
L 134.013602 413.249014 
L 137.426632 409.94086 
L 140.299341 411.151519 
L 147.391574 407.488262 
L 152.103579 414.184914 
L 151.417293 421.167366 
L 147.991731 422.669925 
L 141.686019 421.894129 
L 138.0522 428.651499 
z
" clip-path="url(#pa515e1876e)" style="fill: #e8edf4; stroke: #b8c5d4; stroke-width: 0.45"/>
    <path d="M 69.86745 291.721889 
L 77.586905 288.187466 
L 80.643075 277.592745 
L 83.902989 272.09164 
L 92.460264 270.461683 
L 100.610049 280.648915 
L 103.869963 281.667638 
L 108.148601 279.630192 
L 116.705875 280.037681 
L 118.335832 282.482616 
L 130.153021 282.482616 
L 130.560511 280.037681 
L 136.67285 277.79649 
L 137.895318 274.332831 
L 142.3777 271.887895 
L 152.361187 278.815213 
L 158.473526 277.592745 
L 164.38212 269.03547 
L 170.901949 262.515642 
L 169.883225 255.38458 
L 167.030801 251.920921 
L 174.161863 251.309687 
L 174.976841 248.661007 
L 180.477946 249.475985 
L 179.051734 258.237005 
L 180.477946 266.794279 
L 186.590286 271.480406 
L 188.016498 275.555299 
L 187.812753 281.463893 
L 189.455651 281.698593 
L 189.593169 290.952475 
L 187.819121 294.577002 
L 181.520703 294.868721 
L 177.47818 301.628927 
L 184.766519 302.479042 
L 190.781407 308.263451 
L 192.860941 313.009279 
L 198.281116 315.760905 
L 205.29503 328.676044 
L 189.949451 343.583783 
L 182.650549 349.041758 
L 174.300369 349.014224 
L 164.746879 351.79196 
L 157.200053 349.13789 
L 152.313853 352.374667 
L 141.865717 344.487967 
L 139.046977 339.41902 
L 132.437414 341.929575 
L 126.949581 341.148534 
L 123.772673 343.141461 
L 118.443686 341.702346 
L 109.345954 328.14253 
L 100.47453 323.445551 
L 97.477933 316.326027 
L 92.531646 311.190537 
L 84.550125 305.009978 
L 84.440957 301.152611 
z
" clip-path="url(#pa515e1876e)" style="fill: #e8edf4; stroke: #b8c5d4; stroke-width: 0.45"/>
   </g>
   <g id="PathCollection_1">
    <defs>
     <path id="m2a60f2e772" d="M 0 2.12132 
C 0.562581 2.12132 1.102195 1.897805 1.5 1.5 
C 1.897805 1.102195 2.12132 0.562581 2.12132 0 
C 2.12132 -0.562581 1.897805 -1.102195 1.5 -1.5 
C 1.102195 -1.897805 0.562581 -2.12132 0 -2.12132 
C -0.562581 -2.12132 -1.102195 -1.897805 -1.5 -1.5 
C -1.897805 -1.102195 -2.12132 -0.562581 -2.12132 0 
C -2.12132 0.562581 -1.897805 1.102195 -1.5 1.5 
C -1.102195 1.897805 -0.562581 2.12132 0 2.12132 
z
" style="stroke: #ffffff; stroke-width: 0.5"/>
    </defs>
    <g clip-path="url(#pa515e1876e)">
     <use xlink:href="#m2a60f2e772" x="386.307692" y="85.450549" style="fill: #8aa0b7; stroke: #ffffff; stroke-width: 0.5"/>
     <use xlink:href="#m2a60f2e772" x="296.703297" y="257.538462" style="fill: #8aa0b7; stroke: #ffffff; stroke-width: 0.5"/>
     <use xlink:href="#m2a60f2e772" x="198.791209" y="20.175824" style="fill: #8aa0b7; stroke: #ffffff; stroke-width: 0.5"/>
     <use xlink:href="#m2a60f2e772" x="329.340659" y="43.912088" style="fill: #8aa0b7; stroke: #ffffff; stroke-width: 0.5"/>
     <use xlink:href="#m2a60f2e772" x="204.52589" y="14.809055" style="fill: #8aa0b7; stroke: #ffffff; stroke-width: 0.5"/>
     <use xlink:href="#m2a60f2e772" x="394.615385" y="91.384615" style="fill: #8aa0b7; stroke: #ffffff; stroke-width: 0.5"/>
     <use xlink:href="#m2a60f2e772" x="142.417582" y="417.758242" style="fill: #8aa0b7; stroke: #ffffff; stroke-width: 0.5"/>
    </g>
   </g>
   <g id="PatchCollection_2">
    <defs>
     <path id="m85e5f19ef5" d="M 217.462391 -213.893288 
L 222.57364 -231.331965 
L 223.744312 -239.220593 
L 227.482062 -242.859244 
L 236.223297 -244.810365 
L 242.229639 -251.584308 
L 249.119482 -237.844794 
L 252.388999 -226.951004 
L 258.894914 -221.170319 
L 275.094692 -209.960066 
L 291.832336 -192.268736 
L 297.667298 -188.699007 
L 294.088063 -185.800539 
L 289.007525 -186.830862 
L 284.950879 -190.67127 
L 280.070822 -197.6292 
L 274.808967 -201.441719 
L 271.739868 -205.539903 
L 261.41044 -210.298431 
L 253.273174 -210.440374 
L 250.410462 -212.921881 
L 243.450396 -210.130853 
L 236.247864 -215.51851 
L 232.541446 -206.660967 
L 218.723855 -209.141525 
z
" style="stroke: #b45309; stroke-width: 1.15"/>
    </defs>
    <g clip-path="url(#pa515e1876e)">
     <use xlink:href="#m85e5f19ef5" x="0" y="432" style="fill: #f59e0b; stroke: #b45309; stroke-width: 1.15"/>
    </g>
   </g>
   <g id="PathCollection_2">
    <defs>
     <path id="m917553d0b7" d="M 0 3.316625 
C 0.879579 3.316625 1.723251 2.967164 2.345208 2.345208 
C 2.967164 1.723251 3.316625 0.879579 3.316625 0 
C 3.316625 -0.879579 2.967164 -1.723251 2.345208 -2.345208 
C 1.723251 -2.967164 0.879579 -3.316625 0 -3.316625 
C -0.879579 -3.316625 -1.723251 -2.967164 -2.345208 -2.345208 
C -2.967164 -1.723251 -3.316625 -0.879579 -3.316625 0 
C -3.316625 0.879579 -2.967164 1.723251 -2.345208 2.345208 
C -1.723251 2.967164 -0.879579 3.316625 0 3.316625 
z
" style="stroke: #ffffff"/>
    </defs>
    <g clip-path="url(#pa515e1876e)">
     <use xlink:href="#m917553d0b7" x="249.230769" y="216" style="fill: #f97316; stroke: #ffffff"/>
    </g>
   </g>
   <g id="PathCollection_3">
    <path d="M 249.230769 220.449719 
C 250.410849 220.449719 251.542754 219.980869 252.377196 219.146427 
C 253.211638 218.311984 253.680488 217.180079 253.680488 216 
C 253.680488 214.819921 253.211638 213.688016 252.377196 212.853573 
C 251.542754 212.019131 250.410849 211.550281 249.230769 211.550281 
C 248.05069 211.550281 246.918785 212.019131 246.084343 212.853573 
C 245.249901 213.688016 244.78105 214.819921 244.78105 216 
C 244.78105 217.180079 245.249901 218.311984 246.084343 219.146427 
C 246.918785 219.980869 248.05069 220.449719 249.230769 220.449719 
L 249.230769 220.449719 
z
" clip-path="url(#pa515e1876e)" style="fill: none; stroke: #7c2d12; stroke-width: 1.1"/>
   </g>
  </g>
 </g>
 <defs>
  <clipPath id="pa515e1876e">
   <rect x="0" y="0" width="498.461538" height="432"/>
  </clipPath>
 </defs>
</svg>
