<?xml version="1.0" encoding="utf-8" standalone="no"?>
<!DOCTYPE svg PUBLIC "-//W3C//DTD SVG 1.1//EN"
  "http://www.w3.org/Graphics/SVG/1.1/DTD/svg11.dtd">
<svg xmlns:xlink="http://www.w3.org/1999/xlink" width="527.301425pt" height="432pt" viewBox="0 0 527.301425 432" xmlns="http://www.w3.org/2000/svg" version="1.1">
 <metadata>
  <rdf:RDF xmlns:dc="http://purl.org/dc/elements/1.1/" xmlns:cc="http://creativecommons.org/ns#" xmlns:rdf="http://www.w3.org/1999/02/22-rdf-syntax-ns#">
   <cc:Work>
    <dc:type rdf:resource="http://purl.org/dc/dcmitype/StillImage"/>
    <dc:date>2026-06-09T04:57:01.584704</dc:date>
    <dc:format>image/svg+xml</dc:format>
    <dc:creator>
     <cc:Agent>
      <dc:title>Matplotlib v3.10.8, https://matplotlib.org/</dc:title>
     </cc:Agent>
    </dc:creator>
   </cc:Work>
  </rdf:RDF>
 </metadata>
 <defs>
  <style type="text/css">*{stroke-linejoin: round; stroke-linecap: butt}</style>
 </defs>
 <g id="figure_1">
  <g id="patch_1">
   <path d="M 0 432 
L 527.301425 432 
L 527.301425 0 
L 0 0 
z
" style="fill: #eaf3ff"/>
  </g>
  <g id="axes_1">
   <g id="PatchCollection_1">
    <path d="M 585.09691 102.199067 
L 592.628549 96.620731 
L 587.416424 80.227441 
L 599.923122 70.09877 
L 597.276433 67.030844 
L 617.253775 57.316546 
L 598.838651 48.959345 
L 652.799007 16.369081 
L 659.409628 7.405049 
L 633.392229 -4.637217 
L 640.577805 -16.090904 
L 624.754278 -29.171813 
L 636.587282 -44.240478 
L 616.144485 -64.248161 
L 632.36494 -77.501194 
L 605.446505 -89.212838 
L 608.012458 -101.51942 
L 622.207772 -103.138993 
L 652.115078 -110.190595 
L 670.24792 -116.304479 
L 699.122067 -105.678828 
L 747.255723 -101.49557 
L 813.667228 -81.615955 
L 827.157883 -73.26227 
L 828.319353 -61.564088 
L 808.807091 -52.329282 
L 780.106426 -47.642451 
L 701.639755 -61.00216 
L 688.733701 -58.768511 
L 717.389546 -45.895677 
L 719.659403 -19.780547 
L 756.02246 -9.857789 
L 758.294075 -18.380386 
L 747.706021 -25.933979 
L 758.892914 -32.591335 
L 801.383038 -21.651061 
L 816.185268 -25.933979 
L 804.356139 -38.806461 
L 845.318496 -56.021271 
L 861.540924 -55.007973 
L 877.952478 -48.864912 
L 888.19109 -60.944684 
L 873.534395 -71.422339 
L 882.139251 -81.934269 
L 869.218082 -92.836753 
L 918.383315 -87.198319 
L 928.425595 -77.354832 
L 906.170487 -75.184987 
L 906.290887 -65.404073 
L 920.126046 -59.386157 
L 947.282245 -63.198195 
L 951.581509 -74.40915 
L 1049.636197 -97.874064 
L 1062.893961 -97.008762 
L 1045.565255 -86.342509 
L 1067.368466 -84.509434 
L 1079.960424 -90.514342 
L 1112.905162 -90.999811 
L 1139.006231 -98.286062 
L 1159.033491 -87.698201 
L 1179.00802 -99.33838 
L 1160.590436 -109.520746 
L 1169.730327 -115.321062 
L 1221.651941 -110.002172 
L 1245.980135 -104.508483 
L 1309.678938 -84.426999 
L 1321.429323 -93.624893 
L 1303.567163 -102.918229 
L 1303.053571 -106.646778 
L 1281.87117 -108.371405 
L 1287.665861 -116.704877 
L 1278.265131 -130.417526 
L 1277.73326 -136.043481 
L 1310.169328 -151.959723 
L 1321.704926 -167.934495 
L 1334.775673 -171.39078 
L 1381.310727 -166.755625 
L 1384.975296 -156.978929 
L 1368.313977 -142.722808 
L 1379.246694 -137.119527 
L 1384.902353 -124.832525 
L 1380.909275 -100.747329 
L 1400.299379 -89.973682 
L 1392.75598 -78.241226 
L 1358.32847 -53.275261 
L 1378.41883 -50.685684 
L 1385.410144 -57.013301 
L 1404.748397 -61.526825 
L 1409.415366 -70.224311 
L 1424.627836 -78.59399 
L 1414.385182 -88.586704 
L 1422.586125 -100.190675 
L 1403.36634 -101.636887 
L 1399.139316 -111.412528 
L 1413.164303 -129.061658 
L 1390.337424 -143.394062 
L 1421.794821 -155.241119 
L 1417.724757 -167.739569 
L 1426.491144 -168.138561 
L 1435.727707 -158.393855 
L 1428.793166 -141.432325 
L 1447.602535 -138.221235 
L 1439.587905 -150.896507 
L 1469.002887 -157.806968 
L 1505.481073 -158.737479 
L 1537.962489 -148.716819 
L 1522.331693 -163.355585 
L 1520.580701 -182.080938 
L 1551.145025 -185.627919 
L 1593.421592 -184.852961 
L 1631.511035 -187.154983 
L 1617.225736 -196.343914 
L 1637.566564 -207.887597 
L 1657.760275 -208.370956 
L 1691.934505 -217.090237 
L 1738.347225 -219.43374 
L 1744.211344 -224.247475 
L 1790.364104 -225.878594 
L 1804.745548 -221.93227 
L 1844.193494 -231.272712 
L 1876.484203 -230.980763 
L 1881.329225 -238.567048 
L 1898.124127 -246.048577 
L 1939.61853 -253.261708 
L 1969.763298 -247.566326 
L 1945.830141 -243.233842 
L 1985.643684 -240.540913 
L 1990.387111 -231.854677 
L 2006.448713 -236.13197 
L 2057.833534 -235.897321 
L 2097.455841 -227.324103 
L 2111.563967 -220.739866 
L 2107.191232 -211.602611 
L 2041.557321 -196.643773 
L 2028.352814 -191.428234 
L 2076.147239 -184.533592 
L 2091.972434 -187.858931 
L 2100.937261 -176.57679 
L 2108.657481 -181.143747 
L 2136.762823 -183.920341 
L 2193.157886 -181.017898 
L 2197.440804 -172.796917 
L 2270.92307 -170.181854 
L 2271.926876 -183.607124 
L 2309.228706 -180.530671 
L 2337.288876 -180.627168 
L 2365.672105 -171.368106 
L 2373.762843 -160.119185 
L 2363.364986 -152.759463 
L 2385.441163 -138.927292 
L 2413.082128 -131.790267 
L 2430.042251 -150.233689 
L 2458.238113 -142.326277 
L 2488.193579 -147.051425 
L 2522.215419 -141.644476 
L 2535.161372 -146.572987 
L 2563.912306 -144.108732 
L 2551.223325 -160.42625 
L 2574.429158 -168.040834 
L 2733.179052 -156.62634 
L 2748.139999 -146.19333 
L 2794.150916 -132.761029 
L 2865.125336 -136.086368 
L 2900.118992 -133.191659 
L 2914.751958 -125.924039 
L 2912.613751 -113.070891 
L 2934.265977 -108.0668 
L 2957.793112 -111.665808 
L 2988.963833 -112.126143 
L 3022.146736 -108.676888 
L 3055.459882 -110.62263 
L 3086.077815 -94.998865 
L 3107.859758 -100.620425 
L 3093.645821 -111.854231 
L 3101.471853 -119.663038 
L 3157.549657 -114.748588 
L 3194.111331 -115.800027 
L 3244.661434 -107.411541 
L 3269.268834 -99.741702 
L 3269.268834 -29.717344 
L 3246.545658 -21.899596 
L 3223.767642 -23.187617 
L 3239.616917 -13.831884 
L 3250.079456 0.650625 
L 3258.20148 5.384913 
L 3260.24073 12.656048 
L 3255.704005 17.311065 
L 3222.941888 13.482857 
L 3173.814796 26.713729 
L 3158.186285 28.762119 
L 3105.779027 51.900633 
L 3099.316948 59.887667 
L 3074.175392 47.728448 
L 3028.379615 61.526169 
L 3020.382561 54.997298 
L 3003.451615 62.527163 
L 2979.943639 60.117219 
L 2974.280773 71.677424 
L 2953.192583 88.686938 
L 2953.819017 95.790743 
L 2973.83784 99.729509 
L 2971.483088 125.317513 
L 2955.165569 125.96873 
L 2947.640627 140.671828 
L 2954.953067 148.239306 
L 2924.216315 157.217668 
L 2918.116492 177.286057 
L 2891.913303 181.572842 
L 2886.644507 199.430607 
L 2861.309607 215.805777 
L 2854.809914 203.6963 
L 2837.473298 138.995888 
L 2845.923479 114.618919 
L 2860.75348 104.129487 
L 2861.670984 95.915186 
L 2888.984846 91.983099 
L 2920.382307 69.853664 
L 2950.638862 51.78076 
L 2982.235643 37.756299 
L 2996.36486 12.97823 
L 2975.006867 14.46065 
L 2964.451875 28.93982 
L 2919.86977 48.243797 
L 2905.471629 26.629185 
L 2860.09488 32.597182 
L 2816.107044 62.059974 
L 2830.619961 72.838542 
L 2764.214783 79.237521 
L 2765.487689 66.528326 
L 2738.165741 63.860708 
L 2716.38995 72.495269 
L 2662.647565 69.474007 
L 2604.830721 74.68357 
L 2480.534702 150.446063 
L 2508.227167 152.661432 
L 2516.869813 163.668497 
L 2533.941724 167.575977 
L 2545.18959 158.795705 
L 2564.469137 159.935906 
L 2589.846397 179.272225 
L 2590.442599 194.226494 
L 2576.700948 211.787389 
L 2575.218528 232.776446 
L 2567.288793 260.878448 
L 2540.796994 286.313008 
L 2534.908619 298.470822 
L 2476.021002 349.61449 
L 2452.599679 359.927451 
L 2441.515803 360.155597 
L 2430.474111 351.612083 
L 2406.882645 364.475074 
L 2404.142963 370.32355 
L 2401.682223 367.247625 
L 2401.574414 358.318397 
L 2410.552978 357.844264 
L 2413.081691 337.07685 
L 2408.452597 322.023443 
L 2423.538062 315.815319 
L 2444.870319 318.927656 
L 2456.691081 301.828379 
L 2462.714726 282.572156 
L 2469.542577 276.139606 
L 2478.779166 260.324432 
L 2449.729855 265.505841 
L 2434.492499 272.439532 
L 2407.785913 272.418967 
L 2400.667929 255.904636 
L 2379.848742 243.409127 
L 2349.257915 237.79038 
L 2342.75551 220.573509 
L 2319.183259 184.488492 
L 2303.748485 178.015933 
L 2277.440691 172.782375 
L 2254.138853 173.258248 
L 2232.296918 176.427767 
L 2217.778621 185.172443 
L 2227.42297 189.349724 
L 2227.641114 199.054114 
L 2217.866352 204.688506 
L 2202.000028 223.330896 
L 2202.159462 231.065304 
L 2177.390069 242.172019 
L 2156.290217 235.535966 
L 2135.319343 237.001057 
L 2126.116428 231.111627 
L 2115.576493 229.212368 
L 2089.831585 241.599335 
L 2066.691686 244.509988 
L 2050.534812 248.866204 
L 2028.395862 246.004145 
L 2012.097293 246.187168 
L 2001.42838 237.2027 
L 1984.214242 228.755492 
L 1966.598636 226.440231 
L 1927.753289 231.995405 
L 1902.782835 224.602747 
L 1899.431307 211.431636 
L 1862.810613 204.856253 
L 1843.120445 197.590747 
L 1824.915351 215.806741 
L 1832.051878 226.152299 
L 1814.967286 238.391855 
L 1789.555927 233.972893 
L 1772.013124 233.3406 
L 1760.265148 225.13046 
L 1741.926371 224.871143 
L 1726.643445 219.477189 
L 1699.908488 227.744552 
L 1666.370349 242.88322 
L 1640.961512 247.374773 
L 1631.635069 236.623203 
L 1608.994736 238.975251 
L 1601.512145 231.514913 
L 1589.222821 228.103332 
L 1580.763805 217.9467 
L 1571.059508 214.783993 
L 1545.801449 219.300978 
L 1521.588846 209.17432 
L 1512.222437 218.377235 
L 1472.944739 173.738285 
L 1450.521491 160.158718 
L 1456.953176 154.64805 
L 1412.901004 171.234746 
L 1396.042452 172.237316 
L 1397.49846 162.643832 
L 1374.923525 156.649494 
L 1356.573102 160.927141 
L 1351.038819 142.709785 
L 1319.451713 138.921712 
L 1303.649077 146.213559 
L 1259.668089 152.701858 
L 1251.084739 157.043697 
L 1185.313842 163.160003 
L 1177.254329 169.158173 
L 1189.943306 181.198168 
L 1173.069782 185.768289 
L 1176.361468 190.556857 
L 1159.492486 199.118965 
L 1187.975016 211.207554 
L 1183.57066 219.531687 
L 1158.882107 218.773709 
L 1153.775634 223.989632 
L 1131.295678 214.881418 
L 1103.43061 215.234534 
L 1084.781013 222.649095 
L 1025.227302 203.368455 
L 997.771153 203.823514 
L 961.488126 222.940544 
L 959.299118 235.778028 
L 941.223911 225.584611 
L 927.19973 244.896017 
L 932.333452 248.481084 
L 922.18772 261.80224 
L 937.106734 273.724566 
L 950.148831 273.233824 
L 961.353697 284.977562 
L 959.56995 294.022331 
L 968.497339 296.864662 
L 960.486752 307.288356 
L 943.446127 310.184999 
L 925.976631 328.329265 
L 941.952634 345.01027 
L 940.222734 356.849593 
L 959.413869 377.549689 
L 948.919044 384.634174 
L 945.902574 389.105744 
L 938.12751 387.904969 
L 926.048003 377.228788 
L 910.058983 372.565636 
L 904.678385 365.353195 
L 888.285352 361.675935 
L 877.626606 364.436054 
L 874.546814 361.16907 
L 850.614536 352.741563 
L 809.881642 346.89196 
L 807.73805 348.967884 
L 785.327589 334.115519 
L 765.274667 327.485407 
L 750.094362 317.159439 
L 762.885113 314.350328 
L 777.469919 299.649868 
L 767.640493 292.694762 
L 793.547691 285.520299 
L 793.082435 281.677853 
L 777.304487 284.510695 
L 777.85946 276.702932 
L 786.919512 271.79517 
L 803.928632 270.506497 
L 806.694194 264.645138 
L 802.810267 254.953162 
L 809.948857 245.749821 
L 809.742348 240.588944 
L 783.833361 234.869272 
L 773.562283 235.059107 
L 762.714434 226.828076 
L 749.227968 229.611567 
L 726.904633 223.431481 
L 727.287697 219.973392 
L 721.035186 212.35156 
L 707.020088 211.500482 
L 705.56408 206.044312 
L 709.953903 202.485585 
L 698.721842 192.533776 
L 680.495856 194.231846 
L 675.157766 193.348977 
L 670.717569 197.346712 
L 664.153194 196.636086 
L 659.830172 185.380444 
L 655.702848 179.545967 
L 659.0853 177.903702 
L 673.26759 178.513682 
L 680.107103 174.669749 
L 675.044228 169.983365 
L 663.191797 166.890143 
L 664.249061 163.715628 
L 657.096183 160.509322 
L 646.076665 149.001592 
L 649.843393 144.259802 
L 648.122161 136.008787 
L 630.938906 131.816974 
L 621.716009 133.915152 
L 619.219087 129.551669 
L 600.714252 125.14368 
L 595.064615 114.769965 
L 593.565917 106.24646 
z
" clip-path="url(#p02503602b2)" style="fill: #e8edf4; stroke: #b8c5d4; stroke-width: 0.45"/>
    <path d="M 1009.883358 -153.372558 
L 1027.855927 -157.143827 
L 1027.256448 -166.728229 
L 1062.118891 -181.717935 
L 1045.9602 -183.866977 
L 1088.041827 -199.293576 
L 1083.286866 -207.2721 
L 1122.600896 -216.55222 
L 1180.62867 -227.845137 
L 1239.129669 -231.135007 
L 1269.231702 -237.651164 
L 1303.437442 -239.934635 
L 1315.655919 -232.993847 
L 1303.85072 -227.524507 
L 1187.895994 -210.426632 
L 1133.295243 -193.69662 
L 1079.550112 -159.636662 
L 1083.127005 -145.036163 
L 1116.748707 -130.620958 
L 1106.365909 -129.079116 
L 1048.932164 -131.362587 
L 1044.268034 -139.166717 
L 1012.452036 -143.878987 
z
" clip-path="url(#p02503602b2)" style="fill: #e8edf4; stroke: #b8c5d4; stroke-width: 0.45"/>
    <path d="M -3058.348264 -29.717344 
L -3058.348264 -99.741702 
L -3015.285314 -86.319484 
L -2969.203564 -68.846296 
L -2970.715161 -57.921665 
L -2958.861074 -53.548755 
L -2962.938695 -66.320522 
L -2915.226529 -63.699659 
L -2880.816069 -47.250666 
L -2898.243205 -39.589856 
L -2927.054603 -37.771017 
L -2927.489627 -20.596458 
L -2934.526113 -16.938744 
L -2950.986881 -17.464463 
L -2964.381744 -23.592585 
L -2987.751919 -28.718482 
L -2991.682599 -36.343085 
L -3009.531752 -39.218108 
L -3029.521222 -36.938057 
L -3039.072233 -43.0885 
L -3035.254395 -49.621238 
L -3056.305322 -45.445889 
L -3048.376642 -37.176924 
z
" clip-path="url(#p02503602b2)" style="fill: #e8edf4; stroke: #b8c5d4; stroke-width: 0.45"/>
    <path d="M 2594.218885 199.558128 
L 2595.773898 175.538994 
L 2612.021602 167.450565 
L 2605.040393 159.306731 
L 2612.862689 156.838874 
L 2623.515254 185.403152 
L 2623.065644 202.700399 
L 2630.320251 220.436355 
L 2648.004889 251.568402 
L 2621.98749 245.765262 
L 2611.173248 271.163199 
L 2628.307454 289.176642 
L 2627.811522 301.459608 
L 2614.495816 290.863358 
L 2602.971282 304.467904 
L 2599.717744 289.71799 
L 2601.67786 272.594683 
L 2599.674146 253.628431 
L 2603.740613 240.340883 
L 2604.517212 216.837663 
z
" clip-path="url(#p02503602b2)" style="fill: #e8edf4; stroke: #b8c5d4; stroke-width: 0.45"/>
    <path d="M 675.898032 315.704506 
L 679.002608 312.334706 
L 695.829809 306.492509 
L 693.15509 304.377171 
L 697.786093 300.024202 
L 715.935027 304.487054 
L 718.21604 307.958162 
L 720.867784 308.4935 
L 721.010662 310.013995 
L 729.609556 314.253948 
L 747.537618 313.19941 
L 744.105145 319.470326 
L 724.863678 322.514954 
L 701.003496 332.683393 
L 691.22926 329.108317 
L 695.104984 320.849128 
z
" clip-path="url(#p02503602b2)" style="fill: #e8edf4; stroke: #b8c5d4; stroke-width: 0.45"/>
    <path d="M 893.722447 -304.09163 
L 928.035367 -307.292486 
L 954.740351 -307.505029 
L 958.331777 -302.769143 
L 968.427552 -306.977305 
L 984.994978 -309.875697 
L 1011.064151 -306.023588 
L 1004.266419 -303.344098 
L 964.863375 -299.693178 
L 962.411869 -296.808866 
L 941.867897 -293.903662 
L 922.827165 -298.070497 
L 932.839376 -303.557549 
z
" clip-path="url(#p02503602b2)" style="fill: #e8edf4; stroke: #b8c5d4; stroke-width: 0.45"/>
    <path d="M 1708.123889 -299.726455 
L 1753.763409 -311.733812 
L 1791.785973 -315.702634 
L 1825.936737 -306.854077 
L 1866.412482 -289.860206 
L 1862.07288 -274.055313 
L 1823.723653 -271.862794 
L 1774.766352 -276.934467 
L 1745.594104 -283.644465 
L 1732.104328 -296.252066 
z
" clip-path="url(#p02503602b2)" style="fill: #e8edf4; stroke: #b8c5d4; stroke-width: 0.45"/>
    <path d="M 2513.019985 -210.440439 
L 2522.465184 -222.52443 
L 2545.654407 -225.821645 
L 2592.066423 -225.050555 
L 2655.600445 -215.730239 
L 2641.780138 -202.677331 
L 2576.98903 -203.163855 
L 2547.840335 -199.012235 
z
" clip-path="url(#p02503602b2)" style="fill: #e8edf4; stroke: #b8c5d4; stroke-width: 0.45"/>
    <path d="M 451.029736 155.780703 
L 455.034439 148.045604 
L 479.289732 142.345101 
L 497.697378 145.424245 
L 505.466993 148.214094 
L 503.591349 153.027186 
L 504.998309 157.512834 
L 472.677295 157.776696 
z
" clip-path="url(#p02503602b2)" style="fill: #e8edf4; stroke: #b8c5d4; stroke-width: 0.45"/>
    <path d="M 2563.794367 -177.188108 
L 2580.467462 -184.134952 
L 2602.444682 -185.76115 
L 2627.416975 -179.041045 
L 2629.544109 -174.421709 
L 2602.893943 -174.298672 
z
" clip-path="url(#p02503602b2)" style="fill: #e8edf4; stroke: #b8c5d4; stroke-width: 0.45"/>
    <path d="M 1853.256048 -257.182722 
L 1885.364487 -280.260772 
L 1899.802878 -282.236746 
L 1913.011164 -281.09215 
L 1957.561367 -271.109456 
L 1952.341786 -263.9654 
z
" clip-path="url(#p02503602b2)" style="fill: #e8edf4; stroke: #b8c5d4; stroke-width: 0.45"/>
    <path d="M -3058.348264 -132.584897 
L -3058.348264 -144.598847 
L -3041.199191 -145.298675 
L -3015.776495 -140.270856 
L -3017.281589 -137.867944 
L -3035.389208 -133.653926 
z
" clip-path="url(#p02503602b2)" style="fill: #e8edf4; stroke: #b8c5d4; stroke-width: 0.45"/>
    <path d="M 2673.755521 -208.88156 
L 2677.961541 -214.573603 
L 2754.827763 -207.318638 
L 2734.513564 -200.373376 
L 2706.417889 -201.945349 
z
" clip-path="url(#p02503602b2)" style="fill: #e8edf4; stroke: #b8c5d4; stroke-width: 0.45"/>
    <path d="M 3246.863796 -137.270863 
L 3269.268834 -144.598847 
L 3269.268834 -132.584897 
L 3249.994648 -131.687444 
z
" clip-path="url(#p02503602b2)" style="fill: #e8edf4; stroke: #b8c5d4; stroke-width: 0.45"/>
    <path d="M 193.204614 23.165904 
L 209.389646 11.855729 
L 255.801147 -2.900544 
L 290.50282 -21.040241 
L 364.912727 -79.475842 
L 442.652468 -114.748837 
L 481.222599 -122.442608 
L 510.142022 -121.509328 
L 536.907862 -136.070316 
L 568.95911 -135.292809 
L 600.518059 -138.794313 
L 655.495755 -125.933667 
L 632.857239 -121.231388 
L 652.114414 -110.190438 
L 622.207772 -103.138993 
L 608.012458 -101.51942 
L 615.458717 -113.853252 
L 592.902856 -120.843543 
L 565.612018 -114.886899 
L 556.992233 -101.999912 
L 540.232247 -94.221215 
L 521.361367 -98.469343 
L 498.409487 -97.599189 
L 478.876455 -106.892026 
L 468.34197 -102.248333 
L 457.438714 -101.525778 
L 454.860045 -89.961279 
L 421.733367 -92.777015 
L 417.081045 -82.989608 
L 400.202071 -83.049102 
L 371.016515 -51.058255 
L 343.724769 -26.330645 
L 350.12648 -20.326315 
L 344.009975 -13.360548 
L 326.574213 -13.661196 
L 315.160491 2.824029 
L 316.24137 26.165116 
L 327.47434 35.072833 
L 321.660299 55.736701 
L 307.034822 67.786233 
L 299.285191 77.914708 
L 287.494524 67.128623 
L 252.788309 87.456419 
L 229.354121 91.576476 
L 205.047054 82.625161 
L 198.761605 63.728849 
z
" clip-path="url(#p02503602b2)" style="fill: #e8edf4; stroke: #b8c5d4; stroke-width: 0.45"/>
    <path d="M 289.040803 -287.614869 
L 336.959145 -293.908563 
L 346.58679 -287.755483 
L 371.621304 -288.000151 
L 378.295709 -294.007344 
L 404.103599 -294.618662 
L 484.130027 -275.376554 
L 439.898929 -268.459942 
L 430.132427 -255.525062 
L 414.7122 -252.207809 
L 406.341993 -237.644622 
L 385.161174 -236.959833 
L 347.361395 -247.679871 
L 363.302948 -253.924878 
L 336.956156 -259.00947 
L 302.71162 -273.85072 
z
" clip-path="url(#p02503602b2)" style="fill: #e8edf4; stroke: #b8c5d4; stroke-width: 0.45"/>
    <path d="M 410.732923 -299.329858 
L 465.00941 -304.238321 
L 490.529968 -300.011538 
L 508.305436 -305.275148 
L 552.745922 -300.884416 
L 587.194179 -294.716138 
L 561.130457 -285.249816 
L 510.154739 -283.178888 
L 458.316134 -286.110886 
L 455.18885 -290.953952 
L 429.966215 -291.261866 
z
" clip-path="url(#p02503602b2)" style="fill: #e8edf4; stroke: #b8c5d4; stroke-width: 0.45"/>
    <path d="M 469.755438 -252.894707 
L 481.885129 -257.429499 
L 471.265102 -263.046841 
L 507.690382 -266.567633 
L 514.669743 -259.969334 
L 540.029075 -256.002446 
L 500.766211 -248.814976 
z
" clip-path="url(#p02503602b2)" style="fill: #e8edf4; stroke: #b8c5d4; stroke-width: 0.45"/>
    <path d="M 24.741865 256.704849 
L 47.530705 252.881353 
L 77.047337 257.403334 
L 71.475813 237.507889 
L 88.068672 245.047703 
L 128.991305 231.341428 
L 134.268539 216.938485 
L 149.64064 213.389749 
L 152.18661 219.570744 
L 160.356785 219.860492 
L 180.794486 235.202619 
L 189.814832 233.833808 
L 209.123513 243.372795 
L 214.195471 243.001299 
L 222.490084 247.603665 
L 247.81899 250.840853 
L 238.932164 262.876761 
L 236.701375 275.399065 
L 231.875567 278.401456 
L 223.867069 276.783771 
L 224.432033 281.249891 
L 211.577745 291.126766 
L 211.31797 299.085307 
L 219.71068 296.331336 
L 225.748162 304.039185 
L 225.023338 309.00578 
L 230.196117 315.605501 
L 224.102319 320.959033 
L 228.630204 334.559037 
L 238.157383 336.788918 
L 236.146402 344.4182 
L 220.222962 354.34821 
L 185.556713 349.589162 
L 159.955316 355.291935 
L 157.944335 365.876377 
L 137.569308 368.154853 
L 117.791943 360.204032 
L 111.402039 364.003913 
L 79.046509 356.015852 
L 72.040777 349.182243 
L 81.130154 338.639583 
L 84.477246 303.621366 
L 66.339366 285.175572 
L 53.375627 276.282388 
L 26.513508 269.521897 
z
" clip-path="url(#p02503602b2)" style="fill: #e8edf4; stroke: #b8c5d4; stroke-width: 0.45"/>
    <path d="M -852.905734 1071.777715 
L -848.42281 1064.385955 
L -843.804095 1048.784053 
L -850.704919 1038.368556 
L -852.095075 1026.343547 
L -842.944842 1011.231221 
L -824.033997 1017.325018 
L -805.423799 1032.161221 
L -802.514054 1039.359513 
L -812.911386 1055.444631 
L -818.30897 1068.387933 
L -825.044937 1075.064406 
L -833.460808 1076.320587 
L -835.857816 1071.372613 
L -839.789401 1070.637797 
L -845.230129 1075.403657 
z
" clip-path="url(#p02503602b2)" style="fill: #e8edf4; stroke: #b8c5d4; stroke-width: 0.45"/>
    <path d="M 255.639469 369.681708 
L 259.186388 363.150109 
L 270.505646 356.438212 
L 273.493959 371.51012 
L 267.689002 385.08787 
L 259.708661 381.509161 
z
" clip-path="url(#p02503602b2)" style="fill: #e8edf4; stroke: #b8c5d4; stroke-width: 0.45"/>
    <path d="M 299.285191 77.914708 
L 307.034822 67.786233 
L 321.660299 55.736701 
L 327.47434 35.072833 
L 316.24137 26.165116 
L 315.160491 2.824029 
L 326.574213 -13.661196 
L 344.009975 -13.360548 
L 350.12648 -20.326315 
L 343.724769 -26.330645 
L 371.016515 -51.058255 
L 400.202071 -83.049102 
L 417.081045 -82.989608 
L 421.733367 -92.777015 
L 454.860045 -89.961279 
L 457.438714 -101.525778 
L 468.34197 -102.248333 
L 519.206875 -81.679382 
L 519.671017 -54.611986 
L 525.603137 -47.772473 
L 495.367584 -42.794979 
L 478.324207 -30.531087 
L 481.068187 -19.766801 
L 419.165598 9.484152 
L 406.365808 34.236287 
L 418.876758 46.620529 
L 435.686701 56.369787 
L 419.542543 76.198925 
L 401.262059 80.310808 
L 394.556975 109.816994 
L 384.574737 126.283145 
L 363.252351 124.585529 
L 353.304629 138.525692 
L 332.954125 139.334989 
L 327.368068 122.718969 
L 312.653578 102.774022 
z
" clip-path="url(#p02503602b2)" style="fill: #e8edf4; stroke: #b8c5d4; stroke-width: 0.45"/>
    <path d="M 513.231157 189.863823 
L 523.772 186.27603 
L 523.872822 179.269389 
L 518.997057 172.583379 
L 518.234084 164.807861 
L 535.222962 164.927303 
L 554.305476 158.305782 
L 558.38466 148.383038 
L 572.794869 142.754746 
L 571.143577 134.881585 
L 600.714252 125.14368 
L 619.219087 129.551669 
L 621.716009 133.915152 
L 630.938906 131.816974 
L 648.122161 136.008787 
L 649.843393 144.259802 
L 646.076665 149.001592 
L 657.096183 160.509322 
L 664.249061 163.715628 
L 663.191797 166.890143 
L 675.044228 169.983365 
L 680.107103 174.669749 
L 673.26759 178.513682 
L 659.0853 177.903702 
L 655.702848 179.545967 
L 659.830172 185.380444 
L 664.153588 196.636128 
L 649.064978 197.678852 
L 643.649682 201.537772 
L 642.518846 210.384179 
L 635.527647 208.685654 
L 619.665971 209.52765 
L 615.059064 205.418038 
L 608.463884 208.482194 
L 601.85508 205.942128 
L 588.012559 205.589253 
L 568.395055 201.371099 
L 550.63957 199.993659 
L 537.023216 200.383775 
L 527.390675 205.147364 
L 518.988883 205.832678 
L 518.653719 198.007657 
z
" clip-path="url(#p02503602b2)" style="fill: #e8edf4; stroke: #b8c5d4; stroke-width: 0.45"/>
    <path d="M 493.65271 261.308123 
L 497.084274 254.22246 
L 501.958222 249.646436 
L 505.79489 250.671908 
L 501.260647 242.773315 
L 517.221327 228.154197 
L 525.94375 226.108701 
L 527.828476 221.177984 
L 518.988883 205.832678 
L 527.390675 205.147364 
L 537.023216 200.383775 
L 550.63957 199.993659 
L 568.395055 201.371099 
L 588.012559 205.589253 
L 601.85508 205.942128 
L 608.463884 208.482194 
L 615.059064 205.418038 
L 619.665971 209.52765 
L 635.527647 208.685654 
L 642.518846 210.384179 
L 643.649682 201.537772 
L 649.064978 197.678852 
L 670.717569 197.346712 
L 675.157766 193.348977 
L 680.495856 194.231846 
L 698.721842 192.533776 
L 709.953903 202.485585 
L 705.56408 206.044312 
L 707.020088 211.500482 
L 721.035186 212.35156 
L 727.287697 219.973392 
L 726.904633 223.431481 
L 749.227968 229.611567 
L 762.714434 226.828076 
L 773.562283 235.059107 
L 783.833361 234.869272 
L 809.742348 240.588944 
L 809.948857 245.749821 
L 802.810267 254.953162 
L 806.694194 264.645138 
L 803.928632 270.506497 
L 786.919512 271.79517 
L 777.85946 276.702932 
L 777.304487 284.510695 
L 763.271223 285.916292 
L 751.577745 291.602716 
L 735.122948 292.529638 
L 719.983372 299.081674 
L 720.867784 308.4935 
L 718.21604 307.958162 
L 715.935027 304.487054 
L 697.786093 300.024202 
L 693.15509 304.377171 
L 690.739685 302.466915 
L 663.417964 298.02441 
L 662.208106 291.470104 
L 645.922254 293.634587 
L 639.39883 303.313906 
L 625.788834 316.304894 
L 617.816669 313.288423 
L 609.556571 316.116421 
L 601.713385 312.877871 
L 606.137723 310.96862 
L 614.019967 299.334182 
L 612.776501 296.186916 
L 616.452399 294.784497 
L 618.184531 297.217384 
L 628.542805 297.731937 
L 633.195128 296.432157 
L 629.917975 294.650069 
L 631.159623 292.030526 
L 625.022227 287.562135 
L 622.481707 280.213973 
L 616.079087 277.338743 
L 617.341627 271.382554 
L 609.400343 266.65348 
L 602.17026 265.995869 
L 589.216059 260.519717 
L 577.532572 262.258207 
L 573.340759 264.850501 
L 565.925382 264.847776 
L 561.504677 268.956025 
L 548.529585 270.645013 
L 542.528434 273.343577 
L 534.36825 269.048672 
L 523.099857 268.983274 
L 512.224759 267.036783 
L 504.636805 270.800786 
L 503.411505 266.089425 
z
" clip-path="url(#p02503602b2)" style="fill: #e8edf4; stroke: #b8c5d4; stroke-width: 0.45"/>
    <path d="M 352.844119 181.175915 
L 357.744408 176.484536 
L 353.637975 167.540487 
L 365.646634 162.378608 
L 415.21176 148.302653 
L 432.753794 151.271892 
L 434.079006 155.558623 
L 472.677295 157.776696 
L 504.998309 157.512834 
L 514.013205 159.393019 
L 518.234084 164.807861 
L 518.997057 172.583379 
L 523.872822 179.269389 
L 523.772 186.27603 
L 513.231157 189.863823 
L 518.653719 198.007657 
L 518.988883 205.832678 
L 527.828476 221.177984 
L 525.94375 226.108701 
L 517.221327 228.154197 
L 501.260647 242.773315 
L 505.79489 250.671908 
L 485.254551 242.890486 
L 472.601906 245.374692 
L 464.30366 243.569896 
L 453.919044 247.337078 
L 445.054926 241.107035 
L 437.828476 243.49269 
L 428.747274 233.776585 
L 415.679535 232.71478 
L 414.011893 227.211379 
L 401.957819 225.245814 
L 399.333735 229.784598 
L 389.785665 226.148666 
L 390.881986 221.312867 
L 377.740674 219.783741 
L 369.409729 214.12502 
L 362.205079 202.902042 
L 363.574798 196.842306 
L 359.225848 187.440473 
z
" clip-path="url(#p02503602b2)" style="fill: #e8edf4; stroke: #b8c5d4; stroke-width: 0.45"/>
    <path d="M 272.086999 284.499795 
L 274.775573 280.197169 
L 274.095255 277.078061 
L 279.400646 276.108903 
L 288.294738 280.990117 
L 290.798018 276.351419 
L 306.299098 277.100768 
L 318.865454 273.948961 
L 327.291771 274.488492 
L 332.773373 278.087184 
L 334.411949 275.100233 
L 331.920477 263.647909 
L 338.234992 261.416211 
L 344.432336 253.312342 
L 357.490992 258.9697 
L 367.378766 251.779128 
L 373.56521 250.466632 
L 387.208813 255.830609 
L 395.46346 254.91822 
L 403.566421 258.237155 
L 402.15492 260.468852 
L 403.907035 266.559471 
L 402.572739 273.741868 
L 392.674065 273.776383 
L 396.078381 277.585801 
L 390.243449 288.901426 
L 386.892724 291.86794 
L 371.520623 292.305742 
L 362.651055 296.293641 
L 322.998228 290.392404 
L 319.071639 284.278624 
L 301.701274 287.333697 
L 299.657595 290.677156 
L 280.040091 287.700197 
z
" clip-path="url(#p02503602b2)" style="fill: #e8edf4; stroke: #b8c5d4; stroke-width: 0.45"/>
    <path d="M 390.243449 288.901426 
L 396.078381 277.585801 
L 392.674065 273.776383 
L 402.572739 273.741868 
L 403.907035 266.559471 
L 419.33 272.976169 
L 434.083548 270.822586 
L 435.498682 267.292924 
L 461.196359 262.972587 
L 465.318233 258.837088 
L 471.078683 257.764838 
L 489.902332 263.106107 
L 493.65271 261.308123 
L 503.411505 266.089425 
L 504.636805 270.800786 
L 493.901585 274.487584 
L 485.583356 286.408138 
L 474.957132 298.327783 
L 460.864829 301.643085 
L 449.894359 300.865124 
L 429.857219 308.111103 
L 415.338922 304.731311 
L 396.615187 295.029285 
L 393.199972 289.095803 
z
" clip-path="url(#p02503602b2)" style="fill: #e8edf4; stroke: #b8c5d4; stroke-width: 0.45"/>
    <path d="M 460.864829 301.643085 
L 474.957132 298.327783 
L 485.583356 286.408138 
L 493.901585 274.487584 
L 512.224759 267.036783 
L 523.099857 268.983274 
L 534.36825 269.048672 
L 542.528434 273.343577 
L 548.529585 270.645013 
L 561.504677 268.956025 
L 565.925382 264.847776 
L 573.340759 264.850501 
L 578.698832 266.563558 
L 599.858632 289.638059 
L 600.420871 297.352721 
L 598.56521 304.857565 
L 601.713385 312.877871 
L 609.556571 316.116421 
L 617.816669 313.288423 
L 625.788834 316.304894 
L 626.19757 320.838229 
L 617.674065 324.620398 
L 612.335067 322.9741 
L 607.41752 344.178862 
L 597.082862 342.333193 
L 584.292155 335.943743 
L 563.600129 340.030193 
L 554.884065 344.513117 
L 529.071033 343.588466 
L 515.565493 340.847211 
L 508.755045 342.134274 
L 500.479507 331.844122 
L 504.552333 328.877609 
L 500.216099 326.689055 
L 494.698165 330.627906 
L 484.449795 325.521433 
L 483.070085 318.275909 
L 472.362114 314.141773 
L 470.391099 308.548904 
z
" clip-path="url(#p02503602b2)" style="fill: #e8edf4; stroke: #b8c5d4; stroke-width: 0.45"/>
    <path d="M 475.55207 127.570209 
L 495.683673 122.178983 
L 525.161702 123.306186 
L 542.429429 121.568604 
L 544.894561 125.224519 
L 554.247345 126.353539 
L 571.143577 134.881585 
L 572.794869 142.754746 
L 558.38466 148.383038 
L 554.305476 158.305782 
L 535.222962 164.927303 
L 518.234084 164.807861 
L 514.013205 159.393019 
L 504.998309 157.512834 
L 503.591349 153.027186 
L 505.466993 148.214094 
L 497.697378 145.424245 
L 479.289732 142.345101 
z
" clip-path="url(#p02503602b2)" style="fill: #e8edf4; stroke: #b8c5d4; stroke-width: 0.45"/>
    <path d="M 475.55207 127.570209 
L 476.160632 114.338521 
L 484.798583 103.300383 
L 501.364193 97.29787 
L 515.322068 110.430098 
L 529.423455 110.088123 
L 532.800521 96.593936 
L 547.771153 93.487543 
L 570.602229 102.166368 
L 585.09691 102.199067 
L 593.565917 106.24646 
L 595.064615 114.769965 
L 600.714252 125.14368 
L 571.143577 134.881585 
L 554.247345 126.353539 
L 544.894561 125.224519 
L 542.429429 121.568604 
L 525.161702 123.306186 
L 495.683673 122.178983 
z
" clip-path="url(#p02503602b2)" style="fill: #e8edf4; stroke: #b8c5d4; stroke-width: 0.45"/>
    <path d="M 515.697197 72.095217 
L 537.921527 67.198108 
L 560.067743 64.645325 
L 579.137541 67.550529 
L 597.276554 67.030786 
L 599.923122 70.09877 
L 587.416424 80.227441 
L 592.628549 96.620731 
L 585.09691 102.199067 
L 570.602229 102.166368 
L 547.771153 93.487543 
L 532.800521 96.593936 
L 534.840567 86.223853 
L 528.377091 88.439201 
L 517.222235 82.192809 
z
" clip-path="url(#p02503602b2)" style="fill: #e8edf4; stroke: #b8c5d4; stroke-width: 0.45"/>
    <path d="M 210.721216 201.031394 
L 221.280225 201.024128 
L 225.735446 194.408057 
L 230.115278 178.314764 
L 226.82995 172.371745 
L 230.262423 168.649524 
L 244.953297 167.69399 
L 248.213193 171.569714 
L 260.148279 162.904514 
L 256.129952 156.315693 
L 255.32338 146.347988 
L 268.608203 148.665974 
L 279.854797 145.990117 
L 280.165436 152.782852 
L 297.92728 156.87884 
L 297.740169 163.117057 
L 315.611917 159.816288 
L 325.493333 155.002288 
L 345.337913 161.942623 
L 353.637975 167.540487 
L 357.744408 176.484536 
L 352.844119 181.175915 
L 359.225848 187.440473 
L 363.574798 196.842306 
L 362.205079 202.902042 
L 369.409729 214.12502 
L 361.565634 215.958881 
L 356.93057 213.938818 
L 352.522581 217.284548 
L 339.900818 220.688863 
L 333.374669 225.068241 
L 320.601219 228.895371 
L 323.678546 234.119469 
L 325.538748 241.531667 
L 334.508229 245.756179 
L 344.432336 253.312342 
L 338.234992 261.416211 
L 331.920477 263.647909 
L 334.411949 275.100233 
L 332.773373 278.087184 
L 327.291771 274.488492 
L 318.865454 273.948961 
L 306.299098 277.100768 
L 290.798018 276.351419 
L 288.294738 280.990117 
L 279.400646 276.108903 
L 274.095255 277.078061 
L 255.259799 271.703638 
L 251.651115 275.52214 
L 236.701375 275.399065 
L 238.932164 262.876761 
L 247.81899 250.840853 
L 222.490084 247.603665 
L 214.195471 243.001299 
L 215.187336 235.295266 
L 211.677658 231.325987 
L 213.674106 219.44994 
z
" clip-path="url(#p02503602b2)" style="fill: #e8edf4; stroke: #b8c5d4; stroke-width: 0.45"/>
    <path d="M 498.836389 368.561318 
L 501.727514 366.081199 
L 499.821896 363.990288 
L 502.778419 358.39742 
L 509.478962 352.902193 
L 500.939108 345.315148 
L 499.362296 338.89527 
L 503.698529 334.907825 
L 508.755045 342.134274 
L 515.565493 340.847211 
L 529.071033 343.588466 
L 554.884065 344.513117 
L 563.600129 340.030193 
L 584.292155 335.943743 
L 597.082862 342.333193 
L 607.41752 344.178862 
L 598.295445 351.460718 
L 591.876475 364.032979 
L 597.550637 374.061085 
L 582.417419 371.703588 
L 564.512064 377.232876 
L 564.320413 385.986181 
L 548.344291 387.645648 
L 535.960503 381.504165 
L 521.889091 386.334515 
L 508.887657 385.82632 
L 507.639651 374.202781 
z
" clip-path="url(#p02503602b2)" style="fill: #e8edf4; stroke: #b8c5d4; stroke-width: 0.45"/>
    <path d="M 459.631355 415.935165 
L 467.804255 407.410297 
L 468.858794 401.697987 
L 474.571104 399.149292 
L 474.923525 394.531485 
L 486.42081 392.97511 
L 493.121353 389.132993 
L 502.646715 389.473606 
L 505.53741 386.409759 
L 521.889091 386.334515 
L 535.960503 381.504165 
L 548.344291 387.645648 
L 564.320413 385.986181 
L 564.512064 377.232876 
L 573.074626 381.887014 
L 567.63299 392.887459 
L 563.455709 394.858474 
L 543.574798 392.697623 
L 522.288743 397.266382 
L 534.472705 407.14689 
L 525.543189 410.011674 
L 515.753511 410.029386 
L 506.455225 400.977249 
L 503.156273 404.834353 
L 507.08377 415.332052 
L 515.87704 423.580796 
L 509.251886 427.431996 
L 519.040656 435.53314 
L 527.74128 440.63053 
L 528.004687 450.560995 
L 511.746083 445.903223 
L 516.930671 454.867708 
L 505.769457 456.712923 
L 512.435485 472.224449 
L 500.76108 472.444258 
L 486.348146 464.798627 
L 479.7566 450.737205 
L 476.681089 439.042819 
L 460.82123 420.940362 
z
" clip-path="url(#p02503602b2)" style="fill: #e8edf4; stroke: #b8c5d4; stroke-width: 0.45"/>
    <path d="M 518.77634 492.306095 
L 522.028061 484.835766 
L 531.636986 490.758803 
L 545.317829 489.7574 
L 558.398285 491.004952 
L 557.973199 494.063659 
L 567.552151 491.954582 
L 565.354969 497.139623 
L 540.044228 498.63378 
L 540.220439 495.733572 
z
" clip-path="url(#p02503602b2)" style="fill: #e8edf4; stroke: #b8c5d4; stroke-width: 0.45"/>
    <path d="M 444.769719 370.749871 
L 452.390372 362.0933 
L 453.507584 365.400427 
L 458.237242 363.844246 
L 461.98204 368.561318 
L 466.186311 370.360989 
L 467.369179 376.731947 
L 465.135664 382.713569 
L 467.631678 390.251566 
L 474.923525 394.531485 
L 474.571104 399.149292 
L 468.858794 401.697987 
L 467.804255 407.410297 
L 459.631355 415.935165 
L 456.643042 414.70487 
L 456.291529 410.837774 
L 446.555441 404.936083 
L 445.025861 396.56154 
L 446.510934 384.568322 
L 448.909759 379.112152 
L 445.952328 376.34274 
z
" clip-path="url(#p02503602b2)" style="fill: #e8edf4; stroke: #b8c5d4; stroke-width: 0.45"/>
    <path d="M 345.50504 319.053415 
L 346.525972 312.666237 
L 358.775331 313.266624 
L 361.994353 310.30011 
L 367.972796 313.169436 
L 374.87044 313.510049 
L 374.805042 308.597952 
L 380.914281 306.798606 
L 382.622797 299.698411 
L 396.615187 295.029285 
L 415.338922 304.731311 
L 429.857219 308.111103 
L 436.426733 305.485295 
L 440.696894 312.293833 
L 446.281134 317.303118 
L 439.514255 323.916903 
L 431.564827 320.026207 
L 419.411748 320.269632 
L 404.302146 317.351258 
L 396.090189 317.740919 
L 392.279862 321.387751 
L 385.973522 317.351258 
L 382.293991 324.646738 
L 394.710478 338.31214 
L 409.491274 348.768511 
L 416.127328 356.111678 
L 431.6841 362.765563 
L 429.750948 365.753757 
L 413.228028 359.250315 
L 403.034156 352.92263 
L 386.958121 347.698532 
L 372.177325 334.762496 
L 375.724244 333.449092 
L 367.710296 326.056877 
L 367.381491 320.123395 
L 356.082216 317.351258 
L 350.695077 324.938303 
z
" clip-path="url(#p02503602b2)" style="fill: #e8edf4; stroke: #b8c5d4; stroke-width: 0.45"/>
    <path d="M 211.31797 299.085307 
L 211.577745 291.126766 
L 224.432033 281.249891 
L 223.867069 276.783771 
L 231.875567 278.401456 
L 236.701375 275.399065 
L 251.651115 275.52214 
L 255.259799 271.703638 
L 274.095255 277.078061 
L 274.775573 280.197169 
L 272.086999 284.499795 
L 280.040091 287.700197 
L 289.008663 288.177964 
L 287.61442 295.383977 
L 279.871146 298.348674 
L 266.865172 296.146042 
L 263.058479 303.23443 
L 254.685752 303.793036 
L 251.639307 301.007274 
L 241.78514 306.968459 
L 233.310684 307.804097 
L 225.748162 304.039185 
L 219.71068 296.331336 
z
" clip-path="url(#p02503602b2)" style="fill: #e8edf4; stroke: #b8c5d4; stroke-width: 0.45"/>
    <path d="M 205.191474 241.846847 
L 207.096183 231.989047 
L 211.677658 231.325987 
L 215.187336 235.295266 
L 214.195471 243.001299 
L 209.123513 243.372795 
z
" clip-path="url(#p02503602b2)" style="fill: #e8edf4; stroke: #b8c5d4; stroke-width: 0.45"/>
    <path d="M 149.64064 213.389749 
L 163.726585 209.922307 
L 176.594498 211.302472 
L 192.886709 207.650644 
L 204.012498 215.344415 
L 213.674106 219.44994 
L 211.677658 231.325987 
L 207.096183 231.989047 
L 205.191474 241.846847 
L 189.814832 233.833808 
L 180.794486 235.202619 
L 160.356785 219.860492 
L 152.18661 219.570744 
z
" clip-path="url(#p02503602b2)" style="fill: #e8edf4; stroke: #b8c5d4; stroke-width: 0.45"/>
    <path d="M 163.726585 209.922761 
L 172.784172 205.092866 
L 188.176255 179.233057 
L 212.224456 171.875358 
L 226.82995 172.371745 
L 230.115278 178.314764 
L 225.735446 194.408057 
L 221.280225 201.024128 
L 210.721216 201.031394 
L 213.674106 219.44994 
L 204.012498 215.344415 
L 192.886709 207.650644 
L 176.594498 211.302472 
z
" clip-path="url(#p02503602b2)" style="fill: #e8edf4; stroke: #b8c5d4; stroke-width: 0.45"/>
    <path d="M -59.635747 356.145739 
L -34.770074 343.460395 
L -13.261486 346.631731 
L 10.337105 346.520464 
L 29.039495 349.522402 
L 72.040777 349.182243 
L 79.046509 356.015852 
L 111.402039 364.003913 
L 117.791943 360.204032 
L 137.569308 368.154853 
L 157.944335 365.876377 
L 158.884428 376.086599 
L 142.227988 387.793247 
L 119.706643 391.508202 
L 118.138914 397.421247 
L 107.335571 407.16551 
L 100.561456 421.472173 
L 107.41641 431.516629 
L 97.249787 439.358453 
L 93.448544 450.783529 
L 80.178253 454.286395 
L 67.732701 467.801473 
L 28.669362 467.736529 
L 17.660743 473.94341 
L 10.947484 480.584913 
L 2.347682 479.126635 
L -4.160301 473.188157 
L -9.143245 463.077395 
L -25.551718 460.355214 
L -27.017264 454.53527 
L -20.503377 447.944177 
L -18.091381 443.165601 
L -24.152025 437.94014 
L -19.299877 426.39199 
L -26.341033 415.85478 
L -18.747175 414.407855 
L -18.04097 406.100526 
L -15.186632 403.528215 
L -14.96001 389.814673 
L -6.838883 385.05608 
L -11.751888 376.240102 
L -21.9939 375.625635 
L -25.003104 377.845071 
L -35.384995 377.865962 
L -39.791167 369.26071 
L -46.964027 371.82303 
L -53.342123 376.289604 
L -52.456528 363.771388 
z
" clip-path="url(#p02503602b2)" style="fill: #e8edf4; stroke: #b8c5d4; stroke-width: 0.45"/>
    <path d="M 224.102319 320.959033 
L 230.196117 315.605501 
L 225.023338 309.00578 
L 225.748162 304.039185 
L 233.310684 307.804097 
L 241.78514 306.968459 
L 251.639307 301.007274 
L 254.685752 303.793036 
L 263.058479 303.23443 
L 266.865172 296.146042 
L 279.871146 298.348674 
L 287.61442 295.383977 
L 289.008663 288.177964 
L 299.657595 290.677156 
L 301.701274 287.333697 
L 319.071639 284.278624 
L 322.998228 290.392404 
L 348.132758 294.931642 
L 346.228049 303.588668 
L 350.438028 311.072167 
L 336.446546 308.511664 
L 322.156232 314.749881 
L 323.128115 323.475029 
L 320.976348 328.482497 
L 326.737707 337.431087 
L 343.218844 346.283397 
L 352.058438 360.814411 
L 371.616903 374.978925 
L 385.390392 374.870382 
L 389.673944 378.75519 
L 384.742773 382.256693 
L 413.389706 393.926556 
L 428.462068 403.093138 
L 430.282304 406.375741 
L 426.997885 412.669819 
L 417.242723 404.463312 
L 401.972352 401.570825 
L 394.575141 412.940039 
L 407.278651 419.455743 
L 405.19319 428.627775 
L 397.850478 429.670051 
L 388.462269 444.745138 
L 381.134998 446.099416 
L 381.203121 440.725448 
L 384.789097 431.298183 
L 388.609414 427.543717 
L 376.380946 408.493901 
L 369.084557 406.303986 
L 363.895428 398.717848 
L 352.600695 395.522442 
L 344.995483 388.45767 
L 331.990417 387.31866 
L 302.177224 367.943218 
L 290.225788 357.818377 
L 284.743278 340.443016 
L 275.998147 338.399337 
L 261.698751 332.598013 
L 253.606689 334.972768 
L 243.450966 343.129773 
L 236.146402 344.4182 
L 238.157383 336.788918 
L 228.630204 334.559037 
z
" clip-path="url(#p02503602b2)" style="fill: #e8edf4; stroke: #b8c5d4; stroke-width: 0.45"/>
    <path d="M 323.956487 451.300352 
L 326.416168 442.275919 
L 346.984664 443.882705 
L 378.257498 440.434337 
L 371.927542 454.269137 
L 374.557984 459.714861 
L 370.868462 468.753373 
L 357.426502 462.133215 
L 348.488812 460.23668 
z
" clip-path="url(#p02503602b2)" style="fill: #e8edf4; stroke: #b8c5d4; stroke-width: 0.45"/>
    <path d="M 248.886244 392.64585 
L 258.553301 393.525086 
L 267.34203 388.076183 
L 277.887415 400.555343 
L 275.418651 423.802875 
L 267.426502 422.693839 
L 260.257276 428.561923 
L 253.602148 423.900064 
L 252.898214 402.694394 
z
" clip-path="url(#p02503602b2)" style="fill: #e8edf4; stroke: #b8c5d4; stroke-width: 0.45"/>
    <path d="M 247.655495 118.624798 
L 255.625844 108.606228 
L 271.111483 107.515358 
L 277.282486 102.666388 
L 291.422021 97.708422 
L 290.826175 106.747842 
L 285.621606 112.472869 
L 287.730683 117.394957 
L 297.260586 120.055373 
L 292.965226 126.685977 
L 287.730683 124.776726 
L 275.075313 137.432097 
L 279.854797 145.990117 
L 268.608203 148.665974 
L 255.32338 146.347988 
L 248.188669 136.59328 
z
" clip-path="url(#p02503602b2)" style="fill: #e8edf4; stroke: #b8c5d4; stroke-width: 0.45"/>
    <path d="M 297.115258 131.984102 
L 322.900131 126.158254 
L 328.508896 134.971507 
L 317.962602 149.20823 
L 299.569489 139.280037 
z
" clip-path="url(#p02503602b2)" style="fill: #e8edf4; stroke: #b8c5d4; stroke-width: 0.45"/>
    <path d="M -2.63617 114.318539 
L 3.746921 96.147051 
L 17.400969 81.889437 
L 31.43605 83.280955 
L 52.642174 81.801785 
L 33.855766 100.819356 
L 51.763392 98.411448 
L 71.022571 98.503186 
L 66.440188 112.824382 
L 50.63846 128.577062 
L 68.812672 129.69836 
L 85.862407 152.284649 
L 97.893773 155.107651 
L 113.720934 182.07695 
L 135.016071 185.424951 
L 132.879745 196.665641 
L 123.925705 201.8198 
L 130.944154 210.91281 
L 115.133343 220.117541 
L 91.618316 219.954955 
L 61.69431 224.78803 
L 53.498702 221.327854 
L 41.877434 229.562973 
L 25.617922 227.568342 
L 13.270012 234.279784 
L 3.927219 230.770106 
L 29.704826 212.30887 
L 45.438431 208.512168 
L 17.851487 205.568816 
L 12.878534 198.574438 
L 31.245306 193.126443 
L 21.619123 183.658758 
L 24.958949 172.146032 
L 51.080908 173.735958 
L 53.696712 163.533513 
L 41.656717 152.459951 
L 20.31571 149.367183 
L 16.126167 144.610406 
L 22.5138 136.755866 
L 16.733367 131.913254 
L 7.26977 140.224217 
L 6.239756 123.28257 
z
" clip-path="url(#p02503602b2)" style="fill: #e8edf4; stroke: #b8c5d4; stroke-width: 0.45"/>
    <path d="M -27.633546 162.216022 
L -24.01033 152.796931 
L -27.633546 143.379657 
L -12.898619 142.654832 
L 5.941833 153.521756 
L -3.478166 165.59763 
L -16.763444 161.974413 
z
" clip-path="url(#p02503602b2)" style="fill: #e8edf4; stroke: #b8c5d4; stroke-width: 0.45"/>
    <path d="M 346.228049 303.588668 
L 348.132758 294.931642 
L 362.651055 296.293641 
L 371.520623 292.305742 
L 386.892724 291.86794 
L 390.243449 288.901426 
L 393.199972 289.095803 
L 396.615187 295.029285 
L 382.622797 299.698411 
L 380.914281 306.798606 
L 374.805042 308.597952 
L 374.87044 313.510049 
L 367.972796 313.169436 
L 361.994353 310.30011 
L 358.775331 313.266624 
L 346.525972 312.666237 
L 350.438028 311.072167 
z
" clip-path="url(#p02503602b2)" style="fill: #e8edf4; stroke: #b8c5d4; stroke-width: 0.45"/>
    <path d="M 468.34197 -102.248333 
L 478.876455 -106.892026 
L 498.409487 -97.599189 
L 521.361367 -98.469343 
L 540.232247 -94.221215 
L 556.992233 -101.999912 
L 565.612018 -114.886899 
L 592.902856 -120.843543 
L 615.458717 -113.853252 
L 608.012458 -101.51942 
L 605.446505 -89.212838 
L 632.36494 -77.501194 
L 616.144485 -64.248161 
L 636.587282 -44.240478 
L 624.754278 -29.171813 
L 640.577805 -16.090904 
L 633.392229 -4.637217 
L 659.409628 7.405049 
L 652.799007 16.369081 
L 598.838609 48.959406 
L 566.939955 50.357737 
L 536.030442 56.802139 
L 507.434374 60.509827 
L 497.258668 50.920884 
L 480.235275 45.151351 
L 484.148239 27.835483 
L 475.612018 11.980166 
L 483.99292 1.744512 
L 499.929984 -9.294989 
L 540.141417 -28.357521 
L 551.87486 -32.03251 
L 550.046449 -39.466053 
L 525.603137 -47.772473 
L 519.671017 -54.611986 
L 519.206875 -81.679382 
z
" clip-path="url(#p02503602b2)" style="fill: #e8edf4; stroke: #b8c5d4; stroke-width: 0.45"/>
    <path d="M 402.15492 260.468852 
L 406.056985 254.370514 
L 413.843857 254.668437 
L 419.845916 252.850016 
L 420.320958 251.215073 
L 423.686216 250.380344 
L 424.837943 246.38109 
L 428.871712 245.616754 
L 431.595709 242.452685 
L 436.836611 242.43134 
L 437.828476 243.49269 
L 445.054926 241.107035 
L 453.919044 247.337078 
L 464.30366 243.569896 
L 472.601906 245.374692 
L 485.254551 242.890486 
L 501.958222 249.646436 
L 497.084274 254.22246 
L 493.65271 261.308123 
L 489.902332 263.106107 
L 471.078683 257.764838 
L 465.318233 258.837088 
L 461.196359 262.972587 
L 435.498682 267.292924 
L 434.083548 270.822586 
L 419.33 272.976169 
L 403.907035 266.559471 
z
" clip-path="url(#p02503602b2)" style="fill: #e8edf4; stroke: #b8c5d4; stroke-width: 0.45"/>
    <path d="M 320.601219 228.895371 
L 333.374669 225.068241 
L 339.900818 220.688863 
L 352.522581 217.284548 
L 356.93057 213.938818 
L 361.565634 215.958881 
L 369.409729 214.12502 
L 377.740674 219.783741 
L 390.881986 221.312867 
L 389.785665 226.148666 
L 399.333735 229.784598 
L 401.957819 225.245814 
L 414.011893 227.211379 
L 415.679535 232.71478 
L 428.747274 233.776585 
L 436.836611 242.43134 
L 431.595709 242.452685 
L 428.871712 245.616754 
L 424.837943 246.38109 
L 423.686216 250.380344 
L 420.320958 251.215073 
L 419.845916 252.850016 
L 413.843857 254.668437 
L 406.056985 254.370514 
L 403.566421 258.237155 
L 395.46346 254.91822 
L 387.208813 255.830609 
L 373.56521 250.466632 
L 367.378766 251.779128 
L 357.490992 258.9697 
L 344.432336 253.312342 
L 334.508229 245.756179 
L 325.538748 241.531667 
L 323.678546 234.119469 
z
" clip-path="url(#p02503602b2)" style="fill: #e8edf4; stroke: #b8c5d4; stroke-width: 0.45"/>
    <path d="M 382.293991 324.646738 
L 385.973522 317.351258 
L 392.279862 321.387751 
L 396.090189 317.740919 
L 404.302146 317.351258 
L 419.411748 320.269632 
L 431.564827 320.026207 
L 439.514174 323.916982 
L 445.886612 323.868295 
L 441.485051 331.600819 
L 449.959664 338.360823 
L 447.397682 346.628382 
L 439.974157 349.011257 
L 434.258737 353.096437 
L 431.6841 362.765563 
L 416.127328 356.111678 
L 409.491274 348.768511 
L 394.710478 338.31214 
z
" clip-path="url(#p02503602b2)" style="fill: #e8edf4; stroke: #b8c5d4; stroke-width: 0.45"/>
    <path d="M 465.135664 382.713569 
L 467.369163 376.731864 
L 469.602521 376.877731 
L 470.390837 373.278899 
L 490.690535 368.853434 
L 498.836389 368.561318 
L 507.639651 374.202781 
L 508.887657 385.82632 
L 505.53741 386.409759 
L 502.646715 389.473606 
L 493.121353 389.132993 
L 486.42081 392.97511 
L 474.923525 394.531485 
L 467.631678 390.251566 
z
" clip-path="url(#p02503602b2)" style="fill: #e8edf4; stroke: #b8c5d4; stroke-width: 0.45"/>
    <path d="M 436.426733 305.485295 
L 449.894359 300.865124 
L 460.864829 301.643085 
L 470.391099 308.548904 
L 472.362114 314.141773 
L 483.070085 318.275909 
L 484.449795 325.521433 
L 494.698165 330.627906 
L 500.216099 326.689055 
L 504.552333 328.877609 
L 500.479507 331.844122 
L 503.698529 334.907825 
L 499.362296 338.89527 
L 500.939108 345.315148 
L 509.478962 352.902193 
L 502.778419 358.39742 
L 499.821896 363.990288 
L 501.727514 366.081199 
L 498.836389 368.561318 
L 484.706648 369.880188 
L 484.121063 368.561485 
L 488.194115 362.190805 
L 485.697694 362.288004 
L 471.31045 351.831968 
L 468.157188 352.804664 
L 465.726504 358.640484 
L 461.521978 359.904953 
L 462.967136 358.397398 
L 450.491184 352.856164 
L 443.258718 347.406327 
L 447.397682 346.628382 
L 449.959664 338.360823 
L 441.485051 331.600819 
L 445.886612 323.868295 
L 439.514174 323.916982 
L 446.281134 317.303118 
L 440.696894 312.293833 
z
" clip-path="url(#p02503602b2)" style="fill: #e8edf4; stroke: #b8c5d4; stroke-width: 0.45"/>
    <path d="M 429.750958 365.753741 
L 434.258737 353.096437 
L 443.258718 347.406327 
L 450.491184 352.856164 
L 462.967136 358.397398 
L 458.237242 363.844246 
L 453.507584 365.400427 
L 452.390372 362.0933 
L 444.769719 370.749871 
L 445.952317 376.342684 
L 442.273367 374.981028 
L 437.346262 369.242407 
z
" clip-path="url(#p02503602b2)" style="fill: #e8edf4; stroke: #b8c5d4; stroke-width: 0.45"/>
    <path d="M 458.237242 363.844246 
L 461.521978 359.904953 
L 465.726504 358.640484 
L 468.157188 352.804664 
L 471.31045 351.831968 
L 485.697694 362.288004 
L 488.194115 362.190805 
L 484.121063 368.561485 
L 484.706648 369.880188 
L 470.390837 373.278899 
L 469.602521 376.877731 
L 467.369163 376.731864 
L 466.186311 370.360989 
L 461.98204 368.561318 
z
" clip-path="url(#p02503602b2)" style="fill: #e8edf4; stroke: #b8c5d4; stroke-width: 0.45"/>
   </g>
   <g id="PathCollection_1">
    <defs>
     <path id="m1d4b50e38e" d="M 0 2.12132 
C 0.562581 2.12132 1.102195 1.897805 1.5 1.5 
C 1.897805 1.102195 2.12132 0.562581 2.12132 0 
C 2.12132 -0.562581 1.897805 -1.102195 1.5 -1.5 
C 1.102195 -1.897805 0.562581 -2.12132 0 -2.12132 
C -0.562581 -2.12132 -1.102195 -1.897805 -1.5 -1.5 
C -1.897805 -1.102195 -2.12132 -0.562581 -2.12132 0 
C -2.12132 0.562581 -1.897805 1.102195 -1.5 1.5 
C -1.102195 1.897805 -0.562581 2.12132 0 2.12132 
z
" style="stroke: #ffffff; stroke-width: 0.5"/>
    </defs>
    <g clip-path="url(#p02503602b2)">
     <use xlink:href="#m1d4b50e38e" x="131.825356" y="365.40207" style="fill: #8aa0b7; stroke: #ffffff; stroke-width: 0.5"/>
     <use xlink:href="#m1d4b50e38e" x="456.994568" y="391.767142" style="fill: #8aa0b7; stroke: #ffffff; stroke-width: 0.5"/>
     <use xlink:href="#m1d4b50e38e" x="455.511093" y="54.672129" style="fill: #8aa0b7; stroke: #ffffff; stroke-width: 0.5"/>
     <use xlink:href="#m1d4b50e38e" x="84.81995" y="192.174764" style="fill: #8aa0b7; stroke: #ffffff; stroke-width: 0.5"/>
     <use xlink:href="#m1d4b50e38e" x="60.053773" y="242.950962" style="fill: #8aa0b7; stroke: #ffffff; stroke-width: 0.5"/>
     <use xlink:href="#m1d4b50e38e" x="26.365071" y="158.875679" style="fill: #8aa0b7; stroke: #ffffff; stroke-width: 0.5"/>
     <use xlink:href="#m1d4b50e38e" x="67.377404" y="246.75925" style="fill: #8aa0b7; stroke: #ffffff; stroke-width: 0.5"/>
     <use xlink:href="#m1d4b50e38e" x="273.02496" y="281.619733" style="fill: #8aa0b7; stroke: #ffffff; stroke-width: 0.5"/>
     <use xlink:href="#m1d4b50e38e" x="213.850022" y="237.970893" style="fill: #8aa0b7; stroke: #ffffff; stroke-width: 0.5"/>
     <use xlink:href="#m1d4b50e38e" x="235.52797" y="343.724123" style="fill: #8aa0b7; stroke: #ffffff; stroke-width: 0.5"/>
     <use xlink:href="#m1d4b50e38e" x="445.998576" y="361.73381" style="fill: #8aa0b7; stroke: #ffffff; stroke-width: 0.5"/>
     <use xlink:href="#m1d4b50e38e" x="492.147996" y="377.11988" style="fill: #8aa0b7; stroke: #ffffff; stroke-width: 0.5"/>
     <use xlink:href="#m1d4b50e38e" x="365.8886" y="301.832954" style="fill: #8aa0b7; stroke: #ffffff; stroke-width: 0.5"/>
     <use xlink:href="#m1d4b50e38e" x="323.704486" y="343.138233" style="fill: #8aa0b7; stroke: #ffffff; stroke-width: 0.5"/>
     <use xlink:href="#m1d4b50e38e" x="324.350137" y="375.897126" style="fill: #8aa0b7; stroke: #ffffff; stroke-width: 0.5"/>
     <use xlink:href="#m1d4b50e38e" x="472.866341" y="363.598699" style="fill: #8aa0b7; stroke: #ffffff; stroke-width: 0.5"/>
    </g>
   </g>
   <g id="PatchCollection_2">
    <defs>
     <path id="m71594ad02e" d="M 210.721216 -230.968606 
L 221.280225 -230.975872 
L 225.735446 -237.591943 
L 230.115278 -253.685236 
L 226.82995 -259.628255 
L 230.262423 -263.350476 
L 244.953297 -264.30601 
L 248.213193 -260.430286 
L 260.148279 -269.095486 
L 256.129952 -275.684307 
L 255.32338 -285.652012 
L 268.608203 -283.334026 
L 279.854797 -286.009883 
L 280.165436 -279.217148 
L 297.92728 -275.12116 
L 297.740169 -268.882943 
L 315.611917 -272.183712 
L 325.493333 -276.997712 
L 345.337913 -270.057377 
L 353.637975 -264.459513 
L 357.744408 -255.515464 
L 352.844119 -250.824085 
L 359.225848 -244.559527 
L 363.574798 -235.157694 
L 362.205079 -229.097958 
L 369.409729 -217.87498 
L 361.565634 -216.041119 
L 356.93057 -218.061182 
L 352.522581 -214.715452 
L 339.900818 -211.311137 
L 333.374669 -206.931759 
L 320.601219 -203.104629 
L 323.678546 -197.880531 
L 325.538748 -190.468333 
L 334.508229 -186.243821 
L 344.432336 -178.687658 
L 338.234992 -170.583789 
L 331.920477 -168.352091 
L 334.411949 -156.899767 
L 332.773373 -153.912816 
L 327.291771 -157.511508 
L 318.865454 -158.051039 
L 306.299098 -154.899232 
L 290.798018 -155.648581 
L 288.294738 -151.009883 
L 279.400646 -155.891097 
L 274.095255 -154.921939 
L 255.259799 -160.296362 
L 251.651115 -156.47786 
L 236.701375 -156.600935 
L 238.932164 -169.123239 
L 247.81899 -181.159147 
L 222.490084 -184.396335 
L 214.195471 -188.998701 
L 215.187336 -196.704734 
L 211.677658 -200.674013 
L 213.674106 -212.55006 
z
" style="stroke: #b45309; stroke-width: 1.15"/>
    </defs>
    <g clip-path="url(#p02503602b2)">
     <use xlink:href="#m71594ad02e" x="0" y="432" style="fill: #f59e0b; stroke: #b45309; stroke-width: 1.15"/>
    </g>
   </g>
   <g id="PathCollection_2">
    <defs>
     <path id="m5b5386d7f8" d="M 0 3.316625 
C 0.879579 3.316625 1.723251 2.967164 2.345208 2.345208 
C 2.967164 1.723251 3.316625 0.879579 3.316625 0 
C 3.316625 -0.879579 2.967164 -1.723251 2.345208 -2.345208 
C 1.723251 -2.967164 0.879579 -3.316625 0 -3.316625 
C -0.879579 -3.316625 -1.723251 -2.967164 -2.345208 -2.345208 
C -2.967164 -1.723251 -3.316625 -0.879579 -3.316625 0 
C -3.316625 0.879579 -2.967164 1.723251 -2.345208 2.345208 
C -1.723251 2.967164 -0.879579 3.316625 0 3.316625 
z
" style="stroke: #ffffff"/>
    </defs>
    <g clip-path="url(#p02503602b2)">
     <use xlink:href="#m5b5386d7f8" x="263.650712" y="216" style="fill: #f97316; stroke: #ffffff"/>
    </g>
   </g>
   <g id="PathCollection_3">
    <path d="M 263.650712 220.449719 
C 264.830792 220.449719 265.962697 219.980869 266.797139 219.146427 
C 267.631581 218.311984 268.100431 217.180079 268.100431 216 
C 268.100431 214.819921 267.631581 213.688016 266.797139 212.853573 
C 265.962697 212.019131 264.830792 211.550281 263.650712 211.550281 
C 262.470633 211.550281 261.338728 212.019131 260.504286 212.853573 
C 259.669844 213.688016 259.200993 214.819921 259.200993 216 
C 259.200993 217.180079 259.669844 218.311984 260.504286 219.146427 
C 261.338728 219.980869 262.470633 220.449719 263.650712 220.449719 
L 263.650712 220.449719 
z
" clip-path="url(#p02503602b2)" style="fill: none; stroke: #7c2d12; stroke-width: 1.1"/>
   </g>
  </g>
 </g>
 <defs>
  <clipPath id="p02503602b2">
   <rect x="0" y="0" width="527.301425" height="432"/>
  </clipPath>
 </defs>
</svg>
