<?xml version="1.0" encoding="utf-8" standalone="no"?>
<!DOCTYPE svg PUBLIC "-//W3C//DTD SVG 1.1//EN"
  "http://www.w3.org/Graphics/SVG/1.1/DTD/svg11.dtd">
<svg xmlns:xlink="http://www.w3.org/1999/xlink" width="530.009737pt" height="432pt" viewBox="0 0 530.009737 432" xmlns="http://www.w3.org/2000/svg" version="1.1">
 <metadata>
  <rdf:RDF xmlns:dc="http://purl.org/dc/elements/1.1/" xmlns:cc="http://creativecommons.org/ns#" xmlns:rdf="http://www.w3.org/1999/02/22-rdf-syntax-ns#">
   <cc:Work>
    <dc:type rdf:resource="http://purl.org/dc/dcmitype/StillImage"/>
    <dc:date>2026-06-09T04:57:08.843879</dc:date>
    <dc:format>image/svg+xml</dc:format>
    <dc:creator>
     <cc:Agent>
      <dc:title>Matplotlib v3.10.8, https://matplotlib.org/</dc:title>
     </cc:Agent>
    </dc:creator>
   </cc:Work>
  </rdf:RDF>
 </metadata>
 <defs>
  <style type="text/css">*{stroke-linejoin: round; stroke-linecap: butt}</style>
 </defs>
 <g id="figure_1">
  <g id="patch_1">
   <path d="M 0 432 
L 530.009737 432 
L 530.009737 0 
L 0 0 
z
" style="fill: #eaf3ff"/>
  </g>
  <g id="axes_1">
   <g id="PatchCollection_1">
    <path d="M 76.851382 119.251982 
L 82.069641 118.65138 
L 94.672863 104.857505 
L 94.556387 100.756239 
L 91.838825 97.895575 
L 91.107033 92.926229 
L 94.749449 91.328884 
L 95.479171 83.904505 
L 90.468938 76.784014 
L 94.895215 75.268323 
L 134.442159 74.453749 
L 182.332057 101.547216 
L 183.192818 108.868038 
L 201.305522 121.482901 
L 195.479453 137.032125 
L 196.226893 144.183597 
L 204.306134 148.781305 
L 204.684713 152.062317 
L 201.210499 159.6831 
L 201.934089 163.518226 
L 201.1074 169.546455 
L 210.736919 189.899965 
L 215.368069 192.659801 
L 205.328296 199.976207 
L 191.529828 204.876555 
L 183.959313 204.669444 
L 179.462433 208.454849 
L 170.67766 208.780142 
L 167.383153 210.375226 
L 152.21877 206.819219 
L 142.723912 207.839786 
L 139.190652 190.677313 
L 132.372708 181.303081 
L 120.001466 178.948942 
L 112.839892 175.160129 
L 99.790124 170.922824 
L 94.518526 167.710299 
L 87.703952 151.809692 
L 80.385216 144.743327 
L 77.860862 137.423939 
L 79.122713 130.861662 
z
" clip-path="url(#p0d3de45821)" style="fill: #e8edf4; stroke: #b8c5d4; stroke-width: 0.45"/>
    <path d="M -139.665934 135.530185 
L -136.456203 134.197253 
L -136.061018 128.695974 
L -133.996409 125.45168 
L -129.404184 122.799511 
L -126.088809 124.084838 
L -121.773084 119.253938 
L -114.899094 119.378493 
L -114.090466 122.950802 
L -109.376295 125.186268 
L -91.410407 107.076261 
L -91.83298 96.693869 
L -86.352569 84.434678 
L -80.570227 77.934352 
L -72.261575 71.852035 
L -70.811261 67.826502 
L -70.49694 63.198412 
L -68.440155 58.81943 
L -69.100752 51.667637 
L -67.52784 40.484769 
L -65.061525 32.611732 
L -61.281841 25.863927 
L -59.399173 9.441932 
L -54.486106 3.034859 
L -47.728845 -1.028822 
L -37.344497 3.25984 
L -29.307126 7.914994 
L -10.66173 11.620337 
L -6.888567 3.99967 
L -5.155234 3.027034 
L 0.595806 4.294428 
L 14.645066 -2.003741 
L 19.623345 0.66571 
L 23.709524 0.287154 
L 25.601975 -2.781393 
L 30.292017 -3.862607 
L 47.878371 -2.244373 
L 52.044762 -3.583174 
L 59.688905 6.834433 
L 65.35517 8.364631 
L 68.733148 6.245569 
L 74.568312 7.076043 
L 81.596202 4.406592 
L 84.593342 9.796359 
L 95.702847 18.182287 
L 94.939216 32.937792 
L 99.997053 34.64667 
L 95.940219 39.127382 
L 91.092364 42.47895 
L 86.267333 49.059812 
L 83.612555 54.92693 
L 82.902397 65.0563 
L 79.978946 69.87807 
L 79.873303 79.391839 
L 76.244258 82.909371 
L 75.776689 90.418525 
L 74.043356 91.391487 
L 72.87541 98.294822 
L 76.048623 104.032168 
L 76.851382 119.251982 
L 79.122713 130.861662 
L 77.860862 137.423939 
L 80.385216 144.743327 
L 87.703952 151.809692 
L 94.518599 167.710318 
L 89.547493 166.426295 
L 72.597607 168.556116 
L 69.215064 170.064468 
L 65.618626 178.120099 
L 68.442955 183.685285 
L 64.639143 211.292757 
L 76.870945 218.449115 
L 80.334351 216.154307 
L 81.38948 229.762081 
L 71.731593 229.657742 
L 61.898937 217.335295 
L 52.228659 215.571965 
L 49.397157 208.959474 
L 41.682586 212.943271 
L 31.577344 211.183201 
L 27.360088 205.453681 
L 19.347498 204.289648 
L 13.433428 204.594188 
L 12.709575 200.67169 
L 2.609551 199.610039 
L -13.814727 202.347636 
L -13.139783 187.330632 
L -17.349214 182.647763 
L -18.275223 174.886891 
L -16.416031 167.279919 
L -18.973643 162.411196 
L -19.205145 154.470991 
L -34.516907 154.581199 
L -33.418086 150.034623 
L -39.85646 150.082228 
L -40.536621 152.268784 
L -48.363357 152.761786 
L -53.420543 163.271341 
L -60.393655 161.489099 
L -64.557437 163.264168 
L -72.901956 164.284735 
L -80.634787 153.605628 
L -87.369224 136.634875 
L -124.607846 136.467932 
L -137.898039 139.444205 
z
" clip-path="url(#p0d3de45821)" style="fill: #e8edf4; stroke: #b8c5d4; stroke-width: 0.45"/>
    <path d="M 223.753075 27.326797 
L 238.234455 9.033764 
L 246.324171 8.800812 
L 257.570473 -0.095276 
L 274.009987 -0.651407 
L 309.669799 -38.52666 
L 324.165685 -56.808828 
L 324.292827 -81.528335 
L 340.831343 -84.922325 
L 346.803291 -89.242282 
L 351.588269 -89.276859 
L 350.756785 -71.815058 
L 348.092476 -67.257226 
L 344.536489 -53.616037 
L 330.659194 -23.404473 
L 319.829959 -4.910288 
L 294.215472 26.433731 
L 281.586476 36.649416 
L 262.710053 49.179477 
L 250.946613 58.77808 
L 237.136073 74.06457 
L 234.225815 80.718842 
L 231.376129 83.706835 
L 223.903875 73.296435 
z
" clip-path="url(#p0d3de45821)" style="fill: #e8edf4; stroke: #b8c5d4; stroke-width: 0.45"/>
    <path d="M 134.314171 61.079666 
L 144.138672 47.613299 
L 148.730702 38.415106 
L 141.70353 17.596323 
L 135.720351 8.834947 
L 152.037169 -7.016319 
L 158.592134 -4.899209 
L 158.592134 2.183569 
L 162.903271 6.336593 
L 171.686474 6.336593 
L 187.660232 17.053631 
L 194.603675 16.833235 
L 197.397205 18.288617 
L 205.812678 19.281502 
L 209.542378 14.02267 
L 221.070595 8.744908 
L 226.160203 13.009341 
L 234.782743 13.011589 
L 223.753075 27.326797 
L 223.903875 73.296435 
L 231.376129 83.706835 
L 222.538091 88.745714 
L 219.422138 94.010982 
L 214.692306 94.935975 
L 212.902261 103.827393 
L 208.849832 108.91902 
L 206.386927 117.31551 
L 201.305522 121.482901 
L 183.192818 108.868038 
L 182.332057 101.547216 
L 134.442159 74.453749 
z
" clip-path="url(#p0d3de45821)" style="fill: #e8edf4; stroke: #b8c5d4; stroke-width: 0.45"/>
    <path d="M -87.136417 423.08286 
L -81.091271 416.842078 
L -76.107775 420.297006 
L -73.980561 425.692642 
L -60.384525 428.998234 
L -53.605093 428.07679 
L -42.341035 421.624069 
L -42.327993 375.0171 
L -38.921321 376.912158 
L -31.439556 388.902677 
L -32.602285 396.591816 
L -29.786434 401.022315 
L -20.747407 399.735031 
L -8.460827 390.307342 
L -5.37239 384.262848 
L 0.783617 381.338092 
L 6.102302 382.870573 
L 12.130493 386.40506 
L 22.401373 387.029138 
L 30.47135 384.090688 
L 33.966709 374.115871 
L 40.832874 373.105738 
L 44.626904 368.365482 
L 48.829161 359.956404 
L 60.159083 350.535235 
L 78.014762 341.241883 
L 83.148898 341.37948 
L 89.254691 343.517127 
L 93.507162 342.002254 
L 100.214861 343.263453 
L 109.542776 369.989912 
L 107.294269 384.058734 
L 108.37157 388.58966 
L 102.003625 386.278549 
L 98.355669 387.177821 
L 97.164247 390.852514 
L 93.718448 395.590161 
L 93.836482 399.953491 
L 101.367808 406.793571 
L 108.753712 405.431294 
L 111.323062 399.82698 
L 120.894218 399.932623 
L 117.741221 409.119028 
L 116.250476 419.603803 
L 112.985314 425.300066 
L 101.907763 433.497206 
L 85.883234 455.433196 
L 62.714738 476.023864 
L 53.185319 481.765775 
L 39.996205 486.661887 
L 33.563048 487.319223 
L 31.934706 490.822409 
L 24.26513 488.957347 
L 18.018479 491.359103 
L 4.34158 488.92735 
L -3.303867 490.466351 
L -8.528647 489.805754 
L -21.543645 494.787294 
L -32.317309 496.785388 
L -40.113396 501.554989 
L -45.85335 501.858224 
L -51.192903 497.358601 
L -55.457764 497.12775 
L -60.892526 491.494091 
L -61.488563 493.243728 
L -63.165814 489.852055 
L -63.095385 482.453109 
L -67.19526 473.996425 
L -63.122774 471.697705 
L -63.452747 462.012428 
L -71.716403 450.201895 
z
M 47.312984 439.478444 
L 56.779148 449.184589 
L 61.294423 447.930563 
L 63.614663 443.898509 
L 70.64777 441.927805 
L 76.664223 431.672576 
L 66.777442 423.976263 
L 60.879675 426.550178 
L 54.042203 431.487374 
z
" clip-path="url(#p0d3de45821)" style="fill: #e8edf4; stroke: #b8c5d4; stroke-width: 0.45"/>
    <path d="M 47.312984 439.478444 
L 54.042203 431.487374 
L 60.879675 426.550178 
L 66.777442 423.976263 
L 76.664223 431.672576 
L 70.64777 441.927805 
L 63.614663 443.898509 
L 61.294423 447.930563 
L 56.779148 449.184589 
z
" clip-path="url(#p0d3de45821)" style="fill: #e8edf4; stroke: #b8c5d4; stroke-width: 0.45"/>
    <path d="M 25.418077 286.287786 
L 39.522766 287.669627 
L 43.621988 289.123201 
L 47.882936 288.830399 
L 54.871699 280.663257 
L 65.846216 270.284777 
L 70.363446 269.292252 
L 71.897883 264.917183 
L 79.082934 259.889995 
L 88.641047 258.162531 
L 89.457501 262.87018 
L 99.983359 262.619114 
L 105.831565 265.28237 
L 108.551555 268.404717 
L 114.560835 269.321597 
L 121.115286 273.376475 
L 121.143327 289.348182 
L 118.682881 298.093754 
L 118.141622 307.524052 
L 120.169713 311.262 
L 118.74418 318.690944 
L 116.838035 319.839326 
L 113.51027 328.940303 
L 100.214861 343.263453 
L 93.507162 342.002254 
L 89.254691 343.517127 
L 83.148898 341.37948 
L 78.014762 341.241883 
L 69.969566 335.539751 
L 60.211252 333.602957 
L 56.499389 325.600148 
L 56.468087 321.148782 
L 51.063974 319.791721 
L 36.782561 305.930272 
L 32.815067 298.62784 
L 30.275714 296.376724 
z
" clip-path="url(#p0d3de45821)" style="fill: #e8edf4; stroke: #b8c5d4; stroke-width: 0.45"/>
    <path d="M -42.331906 338.186051 
L -29.893381 337.746523 
L -29.521021 292.795285 
L -20.127242 292.377928 
L -0.670609 287.95982 
L 4.151813 293.161776 
L 12.207443 288.216103 
L 16.035384 288.188062 
L 23.149354 285.344821 
L 25.418077 286.287786 
L 30.275714 296.376724 
L 32.815067 298.62784 
L 36.782561 305.930272 
L 51.063974 319.791721 
L 56.468087 321.148782 
L 56.499389 325.600148 
L 60.211252 333.602957 
L 69.969566 335.539751 
L 78.014762 341.241883 
L 60.159083 350.535235 
L 48.829161 359.956404 
L 44.626904 368.365482 
L 40.832874 373.105738 
L 33.966709 374.115871 
L 30.47135 384.090688 
L 22.401373 387.029138 
L 12.130493 386.40506 
L 6.102302 382.870573 
L 0.783617 381.338092 
L -5.37239 384.262848 
L -8.460827 390.307342 
L -20.747407 399.735031 
L -29.786434 401.022315 
L -32.602285 396.591816 
L -31.439556 388.902677 
L -38.921321 376.912158 
L -42.327993 375.0171 
z
" clip-path="url(#p0d3de45821)" style="fill: #e8edf4; stroke: #b8c5d4; stroke-width: 0.45"/>
    <path d="M -145.321113 280.80281 
L -131.693775 276.252973 
L -123.512938 276.629898 
L -115.990089 282.335943 
L -114.081988 281.44906 
L -62.928443 280.904541 
L -54.184827 286.950991 
L -23.633688 288.737146 
L 9.891768 280.726512 
L 18.075213 281.452973 
L 23.054797 284.297518 
L 23.149354 285.344821 
L 16.035384 288.188062 
L 12.207443 288.216103 
L 4.151813 293.161776 
L -0.670609 287.95982 
L -20.127242 292.377928 
L -29.521021 292.795285 
L -29.893381 337.746523 
L -42.331906 338.186051 
L -42.341035 421.624069 
L -53.605093 428.07679 
L -60.384525 428.998234 
L -73.980561 425.692642 
L -76.107775 420.297006 
L -81.091271 416.842078 
L -87.136417 423.08286 
L -96.514545 413.549527 
L -101.453045 404.333777 
L -111.57785 363.473283 
L -111.86087 348.376068 
L -113.476169 341.492949 
L -118.385976 336.291645 
L -124.899344 325.865561 
L -134.287254 302.804012 
L -144.554873 290.484826 
z
" clip-path="url(#p0d3de45821)" style="fill: #e8edf4; stroke: #b8c5d4; stroke-width: 0.45"/>
    <path d="M -110.930947 -6.331857 
L -109.957333 -16.114299 
L -106.928891 -18.405194 
L -100.582466 -31.193907 
L -90.149208 -32.142414 
L -87.823099 -35.388338 
L -85.733056 -35.141837 
L -82.580711 -32.28425 
L -66.69378 -37.112216 
L -54.754779 -46.450239 
L -56.00424 -50.892476 
L -52.445624 -52.052596 
L -40.25947 -51.268422 
L -28.382421 -57.114672 
L -19.259271 -70.883194 
L -12.857416 -75.991897 
L -4.868954 -78.143565 
L -3.438204 -72.743364 
L 3.8401 -64.853699 
L 3.877271 -59.704564 
L 1.827008 -54.453047 
L 2.637592 -50.531201 
L 23.534104 -36.281742 
L 23.650181 -32.180237 
L 32.136863 -25.608505 
L 37.396205 -20.147983 
L 40.58246 -12.577856 
L 50.015366 -7.5836 
L 52.044762 -3.583174 
L 47.878371 -2.244373 
L 30.292017 -3.862607 
L 25.601975 -2.781393 
L 23.709524 0.287154 
L 19.623345 0.66571 
L 14.645066 -2.003741 
L 0.595806 4.294428 
L -5.155234 3.027034 
L -6.888567 3.99967 
L -10.66173 11.620337 
L -29.307126 7.914994 
L -37.344497 3.25984 
L -47.728845 -1.028822 
L -54.486106 3.034859 
L -59.399173 9.441932 
L -60.533861 18.242608 
L -68.650138 17.53832 
L -77.191597 15.41828 
L -84.712489 22.105763 
L -91.327588 33.849455 
L -93.221995 24.436764 
L -98.993251 20.376343 
L -103.651991 13.863953 
L -104.727988 9.333354 
L -110.69162 2.743362 
L -109.674966 -1.017084 
z
" clip-path="url(#p0d3de45821)" style="fill: #e8edf4; stroke: #b8c5d4; stroke-width: 0.45"/>
    <path d="M -17.189444 265.387361 
L -16.608406 225.234417 
L 9.668091 225.393534 
L 8.592746 221.037377 
L 10.472806 216.310816 
L 8.254948 210.392181 
L 9.690263 204.272041 
L 8.356679 200.354108 
L 12.709575 200.67169 
L 13.433428 204.594188 
L 19.347498 204.289648 
L 27.360088 205.453681 
L 31.577344 211.183201 
L 41.682586 212.943271 
L 49.397157 208.959474 
L 52.228659 215.571965 
L 61.898937 217.335295 
L 71.731593 229.657742 
L 81.38948 229.762081 
L 80.334351 216.154307 
L 76.870945 218.449115 
L 64.639143 211.292757 
L 68.442955 183.685285 
L 65.618626 178.120099 
L 69.215064 170.064468 
L 72.597607 168.556116 
L 89.547493 166.426295 
L 94.518526 167.710299 
L 99.790124 170.922824 
L 112.839892 175.160129 
L 120.001466 178.948942 
L 125.957924 184.578689 
L 129.167004 195.290401 
L 127.016966 198.710115 
L 124.480222 208.939911 
L 126.904802 219.395992 
L 122.934047 223.788668 
L 119.102846 235.511818 
L 125.738812 238.78024 
L 87.44506 249.181543 
L 88.641047 258.162531 
L 79.082934 259.889995 
L 71.897883 264.917183 
L 70.363446 269.292252 
L 65.846216 270.284777 
L 54.871699 280.663257 
L 47.882936 288.830399 
L 43.621988 289.123201 
L 39.522766 287.669627 
L 25.418077 286.287786 
L 18.075213 281.452973 
L 9.891768 280.726512 
L -0.441063 283.594533 
L -8.676026 275.711714 
z
" clip-path="url(#p0d3de45821)" style="fill: #e8edf4; stroke: #b8c5d4; stroke-width: 0.45"/>
    <path d="M 119.102846 235.511818 
L 122.934047 223.788668 
L 126.904802 219.395992 
L 124.480222 208.939911 
L 127.016966 198.710115 
L 129.167004 195.290401 
L 125.957924 184.578689 
L 120.001466 178.948942 
L 132.372708 181.303081 
L 139.190652 190.677313 
L 142.723912 207.839786 
L 139.19073 217.430505 
L 142.723912 233.835219 
L 147.10485 233.651321 
L 151.657947 237.719894 
L 156.944027 246.846304 
L 158.017415 263.072337 
L 152.555264 265.729724 
L 148.703195 274.48573 
L 140.468884 266.690295 
L 139.535049 257.794735 
L 142.189827 251.927618 
L 141.457497 246.871084 
L 136.475305 243.677656 
L 133.003422 244.837124 
L 125.738812 238.78024 
z
" clip-path="url(#p0d3de45821)" style="fill: #e8edf4; stroke: #b8c5d4; stroke-width: 0.45"/>
    <path d="M 87.44506 249.181543 
L 125.738812 238.78024 
L 133.003422 244.837124 
L 136.475305 243.677656 
L 141.457497 246.871084 
L 142.189827 251.927618 
L 139.535049 257.794735 
L 140.468884 266.690295 
L 148.703195 274.48573 
L 152.555264 265.729724 
L 158.017415 263.072337 
L 156.944027 246.846304 
L 151.657947 237.719894 
L 147.10485 233.651321 
L 142.723912 233.835219 
L 139.19073 217.430505 
L 142.723912 207.839786 
L 152.21877 206.819219 
L 167.383153 210.375226 
L 170.67766 208.780142 
L 179.462433 208.454849 
L 183.959313 204.669444 
L 191.529828 204.876555 
L 205.328296 199.976207 
L 215.368051 192.659751 
L 217.409836 198.317539 
L 216.890749 210.889748 
L 218.449967 221.962734 
L 218.939708 241.684127 
L 221.15887 247.864914 
L 212.499378 265.6456 
L 204.464615 273.471032 
L 178.703293 284.392727 
L 164.445356 297.937246 
L 159.589675 300.241183 
L 150.780195 309.207824 
L 145.580847 312.125406 
L 144.514632 321.123349 
L 150.499131 330.680158 
L 152.988923 338.08106 
L 153.145661 341.856281 
L 155.375453 341.225317 
L 155.014406 353.602153 
L 152.968055 359.464706 
L 155.942372 361.625177 
L 154.065572 366.87539 
L 148.790579 371.364579 
L 123.204676 382.459738 
L 117.67014 387.125652 
L 118.752006 392.441728 
L 121.977388 393.290788 
L 120.894218 399.932623 
L 111.323062 399.82698 
L 107.294269 384.058734 
L 109.542776 369.989912 
L 100.214861 343.263453 
L 113.51027 328.940303 
L 116.838035 319.839326 
L 118.74418 318.690944 
L 120.169713 311.262 
L 118.141622 307.524052 
L 118.682881 298.093754 
L 121.143327 289.348182 
L 121.115286 273.376475 
L 114.560835 269.321597 
L 108.551555 268.404717 
L 105.831565 265.28237 
L 99.983359 262.619114 
L 89.457501 262.87018 
z
" clip-path="url(#p0d3de45821)" style="fill: #e8edf4; stroke: #b8c5d4; stroke-width: 0.45"/>
    <path d="M 93.718448 395.590161 
L 97.164247 390.852514 
L 98.355669 387.177821 
L 102.003625 386.278549 
L 108.37157 388.58966 
L 111.323062 399.82698 
L 108.753712 405.431294 
L 101.367808 406.793571 
L 93.836482 399.953491 
z
" clip-path="url(#p0d3de45821)" style="fill: #e8edf4; stroke: #b8c5d4; stroke-width: 0.45"/>
    <path d="M -146.508622 272.868474 
L -144.761595 261.772011 
L -140.407394 250.219065 
L -139.75071 244.803214 
L -135.656052 233.427644 
L -132.647826 228.256338 
L -121.35051 214.384455 
L -120.025404 205.036324 
L -120.686001 197.88388 
L -124.459815 193.372518 
L -130.920362 178.145531 
L -130.24281 175.522707 
L -126.364004 170.519648 
L -132.776293 149.880723 
L -139.097938 141.896826 
L -137.898039 139.444205 
L -124.607846 136.467932 
L -87.369224 136.634875 
L -80.634787 153.605628 
L -72.901956 164.284735 
L -64.557437 163.264168 
L -60.393655 161.489099 
L -53.420543 163.271341 
L -48.363357 152.761786 
L -40.536621 152.268784 
L -39.85646 150.082228 
L -33.418086 150.034623 
L -34.516907 154.581199 
L -19.205145 154.470991 
L -18.973643 162.411196 
L -16.416031 167.279919 
L -18.275223 174.886891 
L -17.349214 182.647763 
L -13.139783 187.330632 
L -13.814727 202.347636 
L 2.609551 199.610039 
L 8.356679 200.354108 
L 9.690263 204.272041 
L 8.254948 210.392181 
L 10.472806 216.310816 
L 8.592746 221.037377 
L 9.668091 225.393534 
L -16.608406 225.234417 
L -17.189444 265.387361 
L -8.676026 275.711714 
L -0.441063 283.594533 
L -23.633688 288.737146 
L -54.184827 286.950991 
L -62.928443 280.904541 
L -114.081988 281.44906 
L -115.990089 282.335943 
L -123.512938 276.629898 
L -131.693775 276.252973 
L -145.321113 280.80281 
z
" clip-path="url(#p0d3de45821)" style="fill: #e8edf4; stroke: #b8c5d4; stroke-width: 0.45"/>
    <path d="M -143.04 126.041196 
L -137.946295 120.592739 
L -134.133354 118.47009 
L -129.404184 122.799511 
L -133.996409 125.45168 
L -136.061018 128.695974 
L -136.456203 134.197253 
L -139.665934 135.530185 
z
" clip-path="url(#p0d3de45821)" style="fill: #e8edf4; stroke: #b8c5d4; stroke-width: 0.45"/>
    <path d="M 72.87541 98.294822 
L 80.538464 99.286696 
L 84.402271 92.101645 
L 91.107079 92.926541 
L 91.838825 97.895575 
L 94.556387 100.756239 
L 94.672863 104.857505 
L 82.069641 118.65138 
L 76.851382 119.251982 
L 76.048623 104.032168 
z
" clip-path="url(#p0d3de45821)" style="fill: #e8edf4; stroke: #b8c5d4; stroke-width: 0.45"/>
    <path d="M 252.438427 340.814092 
L 254.698672 331.716375 
L 260.508404 329.531124 
L 260.542314 325.330823 
L 266.573766 315.764232 
L 267.71041 307.726861 
L 262.392376 293.794332 
L 261.3842 282.166392 
L 265.793179 275.106548 
L 267.484776 267.102435 
L 273.774467 266.637474 
L 285.485879 261.767447 
L 291.028893 261.597895 
L 298.221117 254.406976 
L 308.606118 246.635017 
L 312.392975 240.286635 
L 310.67464 234.893608 
L 316.035061 236.410438 
L 322.991218 227.641389 
L 323.224025 220.053329 
L 327.402806 214.408584 
L 335.1552 225.194638 
L 338.278852 233.529375 
L 340.309552 248.710713 
L 343.579278 254.613045 
L 342.3246 260.664713 
L 340.093048 264.377228 
L 335.806667 256.982195 
L 333.434257 260.716882 
L 335.84123 270.065665 
L 334.720889 275.416304 
L 331.238571 278.331278 
L 330.443638 289.020166 
L 311.453271 345.030044 
L 306.619762 362.576619 
L 300.916326 377.210829 
L 290.653272 380.199492 
L 279.63702 385.537089 
L 262.351293 377.800345 
L 258.868976 371.141554 
L 258.036219 359.953795 
L 253.592678 349.89355 
z
" clip-path="url(#p0d3de45821)" style="fill: #e8edf4; stroke: #b8c5d4; stroke-width: 0.45"/>
    <path d="M 122.459759 -35.775279 
L 126.758138 -42.963346 
L 133.45519 -43.273528 
L 135.34152 -47.127456 
L 135.172926 -58.472441 
L 138.906088 -71.678643 
L 144.88384 -75.213051 
L 146.151826 -80.371686 
L 151.56373 -90.011554 
L 159.174922 -96.263397 
L 164.305795 -108.694018 
L 166.31592 -119.531203 
L 181.008042 -116.893648 
L 184.949043 -126.311794 
L 192.607431 -120.583146 
L 200.008008 -123.550822 
L 203.051904 -120.912257 
L 211.704187 -120.761331 
L 222.687377 -115.70163 
L 225.950723 -111.344067 
L 231.545606 -107.29025 
L 236.734528 -99.891945 
L 241.047924 -95.808472 
L 232.343145 -84.31193 
L 233.526959 -76.989088 
L 240.57571 -76.77822 
L 243.614307 -77.673053 
L 246.4148 -75.423901 
L 243.662638 -70.952908 
L 252.978569 -57.92855 
L 257.796105 -53.424729 
L 299.055975 -38.44943 
L 309.669799 -38.52666 
L 274.009987 -0.651407 
L 257.570473 -0.095276 
L 246.324171 8.800812 
L 238.234455 9.033764 
L 234.782743 13.011589 
L 226.160203 13.009341 
L 221.070595 8.744908 
L 209.542378 14.02267 
L 205.812678 19.281502 
L 197.397205 18.288617 
L 194.603675 16.833235 
L 187.660232 17.053631 
L 171.686474 6.336593 
L 162.903271 6.336593 
L 158.592134 2.183569 
L 158.592134 -4.899209 
L 152.037169 -7.016319 
L 144.579337 -20.748872 
L 138.816112 -23.674652 
L 136.604962 -28.720849 
L 130.209385 -34.87136 
z
" clip-path="url(#p0d3de45821)" style="fill: #e8edf4; stroke: #b8c5d4; stroke-width: 0.45"/>
    <path d="M 79.873303 79.391839 
L 79.978946 69.87807 
L 82.902397 65.0563 
L 83.612555 54.92693 
L 86.267333 49.059812 
L 91.092364 42.47895 
L 95.940219 39.127382 
L 99.997053 34.64667 
L 94.939216 32.937792 
L 95.702753 18.182216 
L 100.898206 14.74058 
L 108.92268 17.56263 
L 119.080821 14.609087 
L 127.959494 14.638364 
L 135.720351 8.834947 
L 141.70353 17.596323 
L 148.730702 38.415106 
L 144.138672 47.613299 
L 134.314171 61.079666 
L 134.442159 74.453749 
L 94.895215 75.268323 
L 82.92783 80.679123 
z
" clip-path="url(#p0d3de45821)" style="fill: #e8edf4; stroke: #b8c5d4; stroke-width: 0.45"/>
    <path d="M 72.87541 98.294822 
L 74.043356 91.391487 
L 75.776689 90.418525 
L 76.244258 82.909371 
L 79.873303 79.391839 
L 82.92783 80.679123 
L 90.468938 76.784014 
L 95.479171 83.904505 
L 94.749449 91.328884 
L 91.107079 92.926541 
L 84.402271 92.101645 
L 80.538464 99.286696 
z
" clip-path="url(#p0d3de45821)" style="fill: #e8edf4; stroke: #b8c5d4; stroke-width: 0.45"/>
    <path d="M 8.038223 -46.309345 
L 16.246252 -50.067465 
L 19.49585 -61.332738 
L 22.962088 -67.182015 
L 32.060962 -68.915134 
L 40.726557 -58.08314 
L 44.192794 -56.999941 
L 48.742232 -59.16634 
L 57.841106 -58.73306 
L 59.574225 -56.133382 
L 72.139337 -56.133382 
L 72.572617 -58.73306 
L 79.071813 -61.116099 
L 80.371652 -64.798976 
L 85.137729 -67.398655 
L 95.753083 -60.032899 
L 102.252279 -61.332738 
L 108.534835 -70.431613 
L 115.467311 -77.364089 
L 114.384111 -84.946484 
L 111.351153 -88.629362 
L 118.933548 -89.279281 
L 119.800108 -92.095599 
L 125.649384 -91.22904 
L 124.132905 -81.913526 
L 125.649384 -72.814651 
L 132.14858 -67.831934 
L 133.665059 -63.499137 
L 133.448419 -57.216581 
L 135.195298 -56.967027 
L 135.34152 -47.127456 
L 133.45519 -43.273528 
L 126.758138 -42.963346 
L 122.459759 -35.775279 
L 130.209385 -34.87136 
L 136.604962 -28.720849 
L 138.816112 -23.674652 
L 144.579337 -20.748872 
L 152.037169 -7.016319 
L 135.720351 8.834947 
L 127.959494 14.638364 
L 119.080821 14.609087 
L 108.92268 17.56263 
L 100.898206 14.74058 
L 95.702753 18.182216 
L 84.593342 9.796359 
L 81.596202 4.406592 
L 74.568312 7.076043 
L 68.733148 6.245569 
L 65.35517 8.364631 
L 59.688905 6.834433 
L 50.015366 -7.5836 
L 40.58246 -12.577856 
L 37.396205 -20.147983 
L 32.136863 -25.608505 
L 23.650181 -32.180237 
L 23.534104 -36.281742 
z
" clip-path="url(#p0d3de45821)" style="fill: #e8edf4; stroke: #b8c5d4; stroke-width: 0.45"/>
   </g>
   <g id="PathCollection_1">
    <defs>
     <path id="m6a94a46c49" d="M 0 2.12132 
C 0.562581 2.12132 1.102195 1.897805 1.5 1.5 
C 1.897805 1.102195 2.12132 0.562581 2.12132 0 
C 2.12132 -0.562581 1.897805 -1.102195 1.5 -1.5 
C 1.102195 -1.897805 0.562581 -2.12132 0 -2.12132 
C -0.562581 -2.12132 -1.102195 -1.897805 -1.5 -1.5 
C -1.897805 -1.102195 -2.12132 -0.562581 -2.12132 0 
C -2.12132 0.562581 -1.897805 1.102195 -1.5 1.5 
C -1.102195 1.897805 -0.562581 2.12132 0 2.12132 
z
" style="stroke: #ffffff; stroke-width: 0.5"/>
    </defs>
    <g clip-path="url(#p0d3de45821)">
     <use xlink:href="#m6a94a46c49" x="85.180136" y="106.632911" style="fill: #8aa0b7; stroke: #ffffff; stroke-width: 0.5"/>
     <use xlink:href="#m6a94a46c49" x="265.004869" y="216" style="fill: #8aa0b7; stroke: #ffffff; stroke-width: 0.5"/>
     <use xlink:href="#m6a94a46c49" x="432.841286" y="318.426485" style="fill: #8aa0b7; stroke: #ffffff; stroke-width: 0.5"/>
     <use xlink:href="#m6a94a46c49" x="406.971763" y="329.363194" style="fill: #8aa0b7; stroke: #ffffff; stroke-width: 0.5"/>
     <use xlink:href="#m6a94a46c49" x="85.180136" y="87.703992" style="fill: #8aa0b7; stroke: #ffffff; stroke-width: 0.5"/>
     <use xlink:href="#m6a94a46c49" x="409.074976" y="120.303797" style="fill: #8aa0b7; stroke: #ffffff; stroke-width: 0.5"/>
     <use xlink:href="#m6a94a46c49" x="104.109056" y="396.876339" style="fill: #8aa0b7; stroke: #ffffff; stroke-width: 0.5"/>
     <use xlink:href="#m6a94a46c49" x="276.572541" y="224.412853" style="fill: #8aa0b7; stroke: #ffffff; stroke-width: 0.5"/>
    </g>
   </g>
   <g id="PathCollection_2">
    <defs>
     <path id="mea8755fa82" d="M 0 3.674235 
C 0.974418 3.674235 1.909058 3.287094 2.598076 2.598076 
C 3.287094 1.909058 3.674235 0.974418 3.674235 0 
C 3.674235 -0.974418 3.287094 -1.909058 2.598076 -2.598076 
C 1.909058 -3.287094 0.974418 -3.674235 0 -3.674235 
C -0.974418 -3.674235 -1.909058 -3.287094 -2.598076 -2.598076 
C -3.287094 -1.909058 -3.674235 -0.974418 -3.674235 0 
C -3.674235 0.974418 -3.287094 1.909058 -2.598076 2.598076 
C -1.909058 3.287094 -0.974418 3.674235 0 3.674235 
z
" style="stroke: #ffffff; stroke-width: 1.2"/>
    </defs>
    <g clip-path="url(#p0d3de45821)">
     <use xlink:href="#mea8755fa82" x="265.004869" y="216" style="fill: #f97316; stroke: #ffffff; stroke-width: 1.2"/>
    </g>
   </g>
   <g id="PathCollection_3">
    <path d="M 265.004869 220.929503 
C 266.312188 220.929503 267.566139 220.410099 268.490554 219.485685 
C 269.414968 218.561271 269.934372 217.307319 269.934372 216 
C 269.934372 214.692681 269.414968 213.438729 268.490554 212.514315 
C 267.566139 211.589901 266.312188 211.070497 265.004869 211.070497 
C 263.697549 211.070497 262.443598 211.589901 261.519184 212.514315 
C 260.594769 213.438729 260.075366 214.692681 260.075366 216 
C 260.075366 217.307319 260.594769 218.561271 261.519184 219.485685 
C 262.443598 220.410099 263.697549 220.929503 265.004869 220.929503 
L 265.004869 220.929503 
z
" clip-path="url(#p0d3de45821)" style="fill: none; stroke: #7c2d12; stroke-width: 1.1"/>
   </g>
  </g>
 </g>
 <defs>
  <clipPath id="p0d3de45821">
   <rect x="0" y="0" width="530.009737" height="432"/>
  </clipPath>
 </defs>
</svg>
