<?xml version="1.0" encoding="utf-8" standalone="no"?>
<!DOCTYPE svg PUBLIC "-//W3C//DTD SVG 1.1//EN"
  "http://www.w3.org/Graphics/SVG/1.1/DTD/svg11.dtd">
<svg xmlns:xlink="http://www.w3.org/1999/xlink" width="576pt" height="363.789474pt" viewBox="0 0 576 363.789474" xmlns="http://www.w3.org/2000/svg" version="1.1">
 <metadata>
  <rdf:RDF xmlns:dc="http://purl.org/dc/elements/1.1/" xmlns:cc="http://creativecommons.org/ns#" xmlns:rdf="http://www.w3.org/1999/02/22-rdf-syntax-ns#">
   <cc:Work>
    <dc:type rdf:resource="http://purl.org/dc/dcmitype/StillImage"/>
    <dc:date>2026-06-09T04:57:00.620380</dc:date>
    <dc:format>image/svg+xml</dc:format>
    <dc:creator>
     <cc:Agent>
      <dc:title>Matplotlib v3.10.8, https://matplotlib.org/</dc:title>
     </cc:Agent>
    </dc:creator>
   </cc:Work>
  </rdf:RDF>
 </metadata>
 <defs>
  <style type="text/css">*{stroke-linejoin: round; stroke-linecap: butt}</style>
 </defs>
 <g id="figure_1">
  <g id="patch_1">
   <path d="M 0 363.789474 
L 576 363.789474 
L 576 0 
L 0 0 
z
" style="fill: #eaf3ff"/>
  </g>
  <g id="axes_1">
   <g id="PatchCollection_1">
    <path d="M -66.898182 100.683876 
L -63.398371 96.088691 
L -65.169269 94.852007 
L -60.331571 88.19046 
L -54.096456 91.706721 
L -53.341349 87.278379 
L -40.825374 80.683883 
L -31.354265 80.526908 
L -10.810974 87.177843 
L -4.377721 84.62016 
L 5.234445 84.498351 
L 12.988996 87.640266 
L 14.750494 85.841013 
L 23.26691 86.10248 
L 24.78621 83.231037 
L 14.961047 79.06103 
L 20.78007 76.107496 
L 19.64459 74.455661 
L 25.465179 72.879179 
L 21.088066 68.725935 
L 23.868227 66.656842 
L 46.556161 64.546998 
L 49.517022 63.049263 
L 64.68844 60.811098 
L 70.139623 58.295746 
L 81.035721 59.602457 
L 82.944795 65.886607 
L 89.274846 64.411016 
L 97.062161 66.478787 
L 96.559905 69.788098 
L 102.37533 69.442257 
L 117.571303 63.72061 
L 115.352667 65.621537 
L 123.087656 70.305863 
L 136.636656 85.704247 
L 139.867636 82.529665 
L 148.21987 86.022896 
L 156.932739 84.464744 
L 160.280275 85.555732 
L 163.198246 89.059303 
L 167.437498 90.236142 
L 170.018647 92.809615 
L 177.828521 91.998267 
L 181.045715 95.707064 
L 176.430476 99.743909 
L 171.394759 100.310396 
L 171.105249 106.390417 
L 167.732961 109.131047 
L 155.704828 107.135811 
L 151.329908 117.991177 
L 148.22645 119.34097 
L 136.21555 121.763265 
L 141.672999 132.29591 
L 137.513332 133.874115 
L 137.997415 137.330531 
L 134.260419 136.441165 
L 131.219939 134.262008 
L 112.170565 133.462096 
L 109.967282 134.129786 
L 101.332744 131.580595 
L 97.891525 132.836078 
L 96.948425 136.415629 
L 86.973807 134.326866 
L 82.98208 135.182392 
L 81.624141 137.838896 
L 78.147829 138.95965 
L 70.150902 143.186056 
L 67.498002 147.524631 
L 65.238948 147.563169 
L 63.577399 144.691256 
L 55.866222 144.49449 
L 54.632985 139.527547 
L 51.678669 139.485092 
L 52.131106 133.403661 
L 44.872367 128.975006 
L 34.473824 129.447966 
L 27.364853 130.330752 
L 21.574656 124.865783 
L 6.082118 117.705271 
L -9.525723 121.288269 
L -9.287598 143.644446 
L -12.397635 143.940223 
L -16.641274 139.186026 
L -20.73953 137.487505 
L -27.621969 138.749098 
L -30.300876 140.766424 
L -30.641144 139.288012 
L -29.150983 136.761224 
L -30.307142 134.648804 
L -37.334336 132.583227 
L -40.06964 127.138154 
L -43.41749 125.604284 
L -43.620523 123.628787 
L -37.721916 124.204673 
L -37.489117 119.771632 
L -32.332458 118.787016 
L -27.03637 119.692518 
L -25.945068 113.777305 
L -27.02509 110.028089 
L -33.092578 110.321359 
L -38.246731 108.841538 
L -45.267032 111.507598 
L -50.923493 112.778799 
L -54.003032 111.798326 
L -53.387721 108.678297 
L -57.252884 104.627247 
L -61.751808 104.796531 
z
" clip-path="url(#p495d92429e)" style="fill: #e8edf4; stroke: #b8c5d4; stroke-width: 0.45"/>
    <path d="M -9.525723 121.288269 
L 6.082118 117.705271 
L 21.574656 124.865783 
L 27.364853 130.330752 
L 34.473824 129.447966 
L 44.872367 128.975006 
L 52.131106 133.403661 
L 51.678669 139.485092 
L 54.632985 139.527547 
L 55.866222 144.49449 
L 63.577399 144.691256 
L 65.238948 147.563169 
L 67.498002 147.524631 
L 70.150902 143.186056 
L 78.147829 138.95965 
L 81.624141 137.838896 
L 83.424491 138.435775 
L 78.336136 142.362958 
L 82.809753 144.645198 
L 87.128275 143.133574 
L 94.31495 146.328052 
L 86.550822 150.69467 
L 81.938716 150.09732 
L 79.435897 150.253982 
L 78.567368 148.568621 
L 79.83131 145.757022 
L 71.724094 147.166033 
L 69.796848 151.056557 
L 66.915536 154.407696 
L 61.852873 154.122573 
L 60.281248 156.792393 
L 64.730425 158.239002 
L 66.040113 162.753194 
L 62.632419 168.8893 
L 58.059479 167.609064 
L 54.681237 167.568802 
L 54.848238 163.858752 
L 46.78332 161.26366 
L 40.442615 158.29446 
L 29.55341 151.252227 
L 26.573087 145.001289 
L 24.538685 143.900744 
L 17.983041 144.179914 
L 15.663203 142.938061 
L 15.014939 138.10005 
L 6.845371 134.895859 
L 1.737277 138.418543 
L -3.442569 140.507463 
L -2.447144 143.561573 
L -9.287598 143.644446 
z
" clip-path="url(#p495d92429e)" style="fill: #e8edf4; stroke: #b8c5d4; stroke-width: 0.45"/>
    <path d="M 371.476157 411.094227 
L 373.981483 407.123492 
L 374.844999 402.309607 
L 377.892373 393.169994 
L 379.163835 390.670621 
L 384.317988 386.167239 
L 389.053542 387.957563 
L 396.697668 388.798834 
L 403.670031 388.544729 
L 409.663261 384.141923 
L 410.721351 385.496573 
L 405.849814 391.510952 
L 401.293167 392.676825 
L 395.457851 391.491213 
L 385.354458 391.793882 
L 380.05743 392.666798 
L 379.195167 397.256031 
L 384.621911 402.647682 
L 387.895503 399.901412 
L 399.20174 397.838184 
L 398.703558 400.630513 
L 396.061937 399.749764 
L 393.429402 403.302213 
L 388.092269 405.652444 
L 393.829828 413.422839 
L 392.722234 415.505179 
L 398.173416 422.503234 
L 398.121091 426.486188 
L 394.884471 428.268679 
L 392.506981 426.13652 
L 395.436545 421.172241 
L 389.486554 423.519652 
L 387.97822 421.841497 
L 388.764659 419.500666 
L 384.393185 415.945397 
L 384.843116 410.037077 
L 380.799378 411.880039 
L 381.558871 427.623862 
L 377.713779 428.503984 
L 375.108817 426.724313 
L 376.847129 421.143415 
L 375.908729 415.292433 
L 373.359225 415.247628 
z
" clip-path="url(#p495d92429e)" style="fill: #e8edf4; stroke: #b8c5d4; stroke-width: 0.45"/>
    <path d="M 311.965587 391.586776 
L 312.671815 385.968906 
L 316.274082 381.939737 
L 317.286427 385.991935 
L 321.432622 389.417645 
L 325.343825 388.184722 
L 329.21461 388.621493 
L 332.747633 385.555477 
L 335.655264 385.023926 
L 341.391257 386.723073 
L 346.335797 385.430775 
L 349.444268 376.998173 
L 351.778833 374.88967 
L 353.879346 367.993915 
L 360.850142 367.996735 
L 366.105812 369.018636 
L 362.657073 374.494414 
L 367.114083 380.234637 
L 366.06696 383.023989 
L 372.864489 388.634966 
L 365.68032 389.350281 
L 363.658138 393.483943 
L 363.920702 398.978364 
L 358.090399 403.125186 
L 357.931231 409.163221 
L 355.592593 418.435056 
L 354.699938 416.278459 
L 347.811859 419.006556 
L 345.409929 415.300266 
L 341.087021 414.957492 
L 338.06346 413.014893 
L 330.855166 415.195303 
L 328.64311 412.261039 
L 324.671435 412.594414 
L 319.673003 411.894765 
L 318.745883 403.76311 
L 315.720442 402.077749 
L 312.809677 396.891324 
z
" clip-path="url(#p495d92429e)" style="fill: #e8edf4; stroke: #b8c5d4; stroke-width: 0.45"/>
    <path d="M 442.72911 399.790809 
L 450.902124 398.321954 
L 454.009969 396.34583 
L 463.743955 398.835802 
L 464.700841 401.089217 
L 466.394036 410.895267 
L 472.669256 414.52448 
L 477.736305 408.093225 
L 484.693315 404.433933 
L 490.0834 404.42892 
L 499.766001 408.711723 
L 506.27496 409.87039 
L 506.478933 449.388487 
L 501.080075 444.412301 
L 494.922037 443.19285 
L 493.428743 444.920196 
L 485.746705 445.106623 
L 488.321275 440.172422 
L 492.138168 438.488941 
L 490.557457 431.896012 
L 487.646692 426.80609 
L 475.892716 421.671677 
L 470.892718 421.164721 
L 461.78757 415.56189 
L 459.997873 418.508374 
L 457.671141 419.042902 
L 456.294716 416.819566 
L 456.275603 414.185152 
L 451.643445 411.206709 
L 458.17371 409.023166 
L 462.497872 409.140975 
L 461.989663 407.532378 
L 453.11418 407.520158 
L 450.712251 403.910371 
L 445.295534 402.790871 
z
" clip-path="url(#p495d92429e)" style="fill: #e8edf4; stroke: #b8c5d4; stroke-width: 0.45"/>
    <path d="M 229.145085 360.880244 
L 242.434653 362.295991 
L 247.796226 368.22546 
L 255.828871 374.858808 
L 261.573323 381.376383 
L 267.737001 381.471477 
L 272.831623 385.624721 
L 276.33958 390.70164 
L 280.957012 393.47141 
L 278.527197 398.421904 
L 282.002255 400.52743 
L 284.180159 400.682838 
L 285.207856 404.912063 
L 287.320276 408.295631 
L 291.77196 408.831726 
L 294.721577 412.669298 
L 293.19883 420.210341 
L 292.957572 429.589019 
L 286.244013 429.715915 
L 281.137799 424.647299 
L 273.352991 419.693359 
L 270.757429 416.018401 
L 266.167256 411.080754 
L 263.156228 406.536326 
L 258.545063 398.048423 
L 253.220149 392.994847 
L 249.203983 383.049055 
L 243.736508 379.231222 
L 240.567565 374.043543 
L 236.002458 370.647756 
L 229.677733 363.966626 
z
" clip-path="url(#p495d92429e)" style="fill: #e8edf4; stroke: #b8c5d4; stroke-width: 0.45"/>
    <path d="M 290.216001 435.646481 
L 294.376295 429.85315 
L 301.733105 430.211278 
L 306.626573 432.580621 
L 309.141299 433.042772 
L 309.969723 435.19937 
L 321.58521 435.803769 
L 322.921216 433.304709 
L 334.169803 436.220174 
L 336.376532 440.150177 
L 345.472281 441.255578 
L 352.9093 444.858785 
L 345.991142 447.168911 
L 339.323016 444.72625 
L 327.544288 444.44238 
L 321.869707 443.353898 
L 314.845646 441.038132 
L 310.395215 440.437493 
L 307.873596 441.195733 
L 296.81645 438.699181 
L 295.764627 436.092025 
z
" clip-path="url(#p495d92429e)" style="fill: #e8edf4; stroke: #b8c5d4; stroke-width: 0.45"/>
    <path d="M 423.811646 387.971036 
L 425.03047 383.126759 
L 427.042626 380.920343 
L 427.477831 384.23122 
L 431.057539 384.763085 
L 431.625592 387.239428 
L 431.30851 392.538023 
L 428.18124 391.944277 
L 427.258818 395.633648 
L 429.756624 398.834549 
L 428.059044 399.562084 
L 425.612309 395.721691 
z
" clip-path="url(#p495d92429e)" style="fill: #e8edf4; stroke: #b8c5d4; stroke-width: 0.45"/>
    <path d="M 426.839593 414.680201 
L 428.27649 411.346765 
L 435.765207 411.095167 
L 442.436781 412.863245 
L 444.64069 417.499789 
L 439.521629 415.00073 
L 434.457087 414.493461 
L 431.03404 414.893887 
z
" clip-path="url(#p495d92429e)" style="fill: #e8edf4; stroke: #b8c5d4; stroke-width: 0.45"/>
    <path d="M 399.925828 456.191969 
L 400.471636 454.130621 
L 403.078791 450.432163 
L 409.073275 448.023654 
L 409.6877 449.219293 
L 409.799869 451.057555 
L 405.843235 455.58569 
L 400.653363 456.919503 
z
" clip-path="url(#p495d92429e)" style="fill: #e8edf4; stroke: #b8c5d4; stroke-width: 0.45"/>
    <path d="M 378.467946 445.307776 
L 383.283084 444.04728 
L 387.082118 445.864863 
L 391.118337 445.403339 
L 396.551973 443.181884 
L 395.663391 446.550413 
L 386.553543 448.271492 
L 378.488939 447.524219 
z
" clip-path="url(#p495d92429e)" style="fill: #e8edf4; stroke: #b8c5d4; stroke-width: 0.45"/>
    <path d="M 359.182328 448.873385 
L 361.265608 445.382347 
L 364.589958 445.334722 
L 366.214848 443.190657 
L 368.401212 444.807714 
L 372.147294 444.312351 
L 373.651241 446.890054 
L 362.44182 448.921636 
z
" clip-path="url(#p495d92429e)" style="fill: #e8edf4; stroke: #b8c5d4; stroke-width: 0.45"/>
    <path d="M 464.515355 431.348011 
L 466.860886 427.119413 
L 468.239504 428.893131 
L 468.225091 431.784156 
L 465.105654 435.912178 
z
" clip-path="url(#p495d92429e)" style="fill: #e8edf4; stroke: #b8c5d4; stroke-width: 0.45"/>
    <path d="M 415.259825 413.369574 
L 421.393424 413.078811 
L 422.900504 415.078121 
L 420.63111 417.09059 
L 416.440737 415.977356 
z
" clip-path="url(#p495d92429e)" style="fill: #e8edf4; stroke: #b8c5d4; stroke-width: 0.45"/>
    <path d="M 372.689028 452.05674 
L 378.34293 450.864548 
L 383.649358 454.552979 
L 383.286217 456.189462 
L 380.736087 456.305078 
z
" clip-path="url(#p495d92429e)" style="fill: #e8edf4; stroke: #b8c5d4; stroke-width: 0.45"/>
    <path d="M -183.179006 45.628123 
L -180.580936 43.703854 
L -182.37888 38.048923 
L -178.064645 34.554997 
L -178.97763 33.496704 
L -172.086366 30.145718 
L -178.438737 27.262868 
L -159.824896 16.020726 
L -157.544536 12.928547 
L -166.519342 8.774519 
L -164.040649 4.823524 
L -169.499038 0.311212 
L -165.417196 -4.886784 
L -172.46902 -11.788514 
L -166.873709 -16.360201 
L -176.159331 -20.40018 
L -175.274196 -24.645384 
L -170.377465 -25.204062 
L -160.06082 -27.636541 
L -153.805824 -29.745549 
L -143.845571 -26.080189 
L -127.241674 -24.637157 
L -104.33276 -17.779604 
L -99.679104 -14.897967 
L -99.278451 -10.862632 
L -106.009283 -7.677049 
L -115.909693 -6.060308 
L -142.977085 -10.668793 
L -147.42908 -9.898287 
L -137.544131 -5.457752 
L -136.761135 3.550767 
L -124.217553 6.973662 
L -123.43395 4.033758 
L -127.086342 1.428116 
L -123.227379 -0.868365 
L -108.57024 2.905526 
L -103.464152 1.428116 
L -107.544657 -3.012298 
L -93.414528 -8.950616 
L -87.818536 -8.601075 
L -82.157305 -6.482001 
L -78.625455 -10.648967 
L -83.681341 -14.263276 
L -80.713061 -17.889408 
L -85.17027 -21.650264 
L -68.210526 -19.705263 
L -64.746402 -16.309713 
L -72.42339 -15.561216 
L -72.381858 -12.187251 
L -67.609364 -10.111347 
L -58.241725 -11.426324 
L -56.758676 -15.293588 
L -22.934319 -23.387904 
L -18.361 -23.089415 
L -24.338607 -19.410048 
L -16.817502 -18.777721 
L -12.473856 -20.849139 
L -1.109437 -21.016603 
L 7.894232 -23.530024 
L 14.802715 -19.877699 
L 21.693009 -23.893026 
L 15.339789 -27.405474 
L 18.492632 -29.406316 
L 36.4032 -27.571544 
L 44.795308 -25.676473 
L 66.768465 -18.749285 
L 70.821807 -21.922136 
L 64.660184 -25.127909 
L 64.483018 -26.414087 
L 57.176064 -27.009004 
L 59.174966 -29.883668 
L 55.932147 -34.613901 
L 55.748675 -36.554597 
L 66.937627 -42.044968 
L 70.916877 -47.55553 
L 75.425684 -48.747789 
L 91.478137 -47.148874 
L 92.742245 -43.776364 
L 86.994856 -38.858658 
L 90.766141 -36.925784 
L 92.717083 -32.687333 
L 91.339655 -24.379048 
L 98.028349 -20.662636 
L 95.426223 -16.615478 
L 83.550316 -8.003368 
L 90.480566 -7.110083 
L 92.892248 -9.29282 
L 99.563055 -10.849779 
L 101.172945 -13.850011 
L 106.420547 -16.737165 
L 102.887303 -20.184192 
L 105.716251 -24.187028 
L 99.086309 -24.685905 
L 97.62818 -28.058051 
L 102.466156 -34.146189 
L 94.591933 -39.09021 
L 105.443288 -43.176899 
L 104.039303 -47.48829 
L 107.063303 -47.625923 
L 110.249492 -44.264448 
L 107.857395 -38.413501 
L 114.345762 -37.305822 
L 111.581083 -41.678208 
L 121.727899 -44.061999 
L 134.311195 -44.382983 
L 145.515789 -40.926316 
L 140.123884 -45.976017 
L 139.519872 -52.435402 
L 150.063158 -53.658947 
L 164.646629 -53.391623 
L 177.785735 -54.185715 
L 172.857964 -57.355473 
L 179.874614 -61.337512 
L 186.840515 -61.504249 
L 198.629053 -64.512 
L 214.639306 -65.320401 
L 216.662157 -66.980918 
L 232.582737 -67.543579 
L 237.543673 -66.182279 
L 251.1514 -69.404301 
L 262.29021 -69.303592 
L 263.961519 -71.920512 
L 269.754988 -74.501295 
L 284.068648 -76.989494 
L 294.467207 -75.024849 
L 286.211368 -73.530341 
L 299.945209 -72.601405 
L 301.581474 -69.605053 
L 307.121987 -71.080522 
L 324.847387 -70.999579 
L 338.515261 -68.042213 
L 343.381915 -65.770954 
L 341.873523 -62.619021 
L 319.232842 -57.45891 
L 314.677895 -55.659789 
L 331.164773 -53.281455 
L 336.623737 -54.428544 
L 339.71619 -50.536724 
L 342.379311 -52.112115 
L 352.074361 -53.069912 
L 371.528064 -52.068702 
L 373.005474 -49.232842 
L 398.353475 -48.330765 
L 398.699742 -52.961866 
L 411.567158 -51.900632 
L 421.246626 -51.933918 
L 431.037534 -48.739968 
L 433.828467 -44.859608 
L 430.241684 -42.320842 
L 437.85695 -37.549379 
L 447.391811 -35.087434 
L 453.242274 -41.449566 
L 462.968549 -38.721873 
L 473.301807 -40.351832 
L 485.037777 -38.486683 
L 489.503535 -40.186792 
L 499.421285 -39.336738 
L 495.04417 -44.965531 
L 503.049115 -47.592212 
L 557.810526 -43.654737 
L 562.971365 -40.055828 
L 578.843015 -35.422302 
L 603.325925 -36.569391 
L 615.397127 -35.57085 
L 620.444827 -33.063855 
L 619.707244 -28.63011 
L 627.176266 -26.903929 
L 635.292045 -28.145421 
L 646.04451 -28.304216 
L 657.491085 -27.114381 
L 668.982589 -27.785573 
L 679.544367 -22.396093 
L 687.058136 -24.335272 
L 682.154981 -28.210419 
L 684.854602 -30.904098 
L 704.198865 -29.208839 
L 716.810961 -29.571537 
L 734.248421 -26.677895 
L 742.736842 -24.032153 
L 742.736842 0.123029 
L 734.898392 2.819793 
L 727.041024 2.375485 
L 732.508295 5.602782 
L 736.117389 10.598582 
L 738.919114 12.231693 
L 739.622562 14.739901 
L 738.0576 16.345667 
L 726.756177 15.025112 
L 709.80959 19.589154 
L 704.418472 20.295754 
L 686.340379 28.277477 
L 684.111259 31.032637 
L 675.438579 26.838265 
L 659.641142 31.597844 
L 656.882526 29.345684 
L 651.042129 31.943141 
L 642.932958 31.111821 
L 640.97953 35.09956 
L 633.705075 40.96706 
L 633.921165 43.417546 
L 640.826739 44.776239 
L 640.014457 53.602924 
L 634.385664 53.827564 
L 631.789905 58.899456 
L 634.31236 61.509888 
L 623.709595 64.60701 
L 621.605437 71.529681 
L 612.566541 73.008424 
L 610.749049 79.168532 
L 602.009674 84.817213 
L 599.767579 80.64 
L 593.787244 58.321334 
L 596.702168 49.912401 
L 601.817836 46.294029 
L 602.134333 43.460473 
L 611.556359 42.104084 
L 622.387038 34.470447 
L 632.824158 28.236126 
L 643.723594 23.398333 
L 648.597524 14.851038 
L 641.229999 15.362405 
L 637.589012 20.357053 
L 622.210237 27.016037 
L 617.24354 19.55999 
L 601.590649 21.618675 
L 586.416869 31.781982 
L 591.423158 35.500093 
L 568.516426 37.707446 
L 568.95552 33.323358 
L 559.530705 32.403153 
L 552.019059 35.381679 
L 533.480408 34.339483 
L 513.536256 36.136542 
L 470.659847 62.271117 
L 480.212473 63.035318 
L 483.193789 66.832249 
L 489.082813 68.18015 
L 492.962809 65.15136 
L 499.613366 65.544677 
L 508.367353 72.214818 
L 508.573016 77.373352 
L 503.832778 83.431053 
L 503.321411 90.671313 
L 500.586018 100.365211 
L 491.447565 109.138964 
L 489.416347 113.332851 
L 469.102828 130.975064 
L 461.023549 134.532561 
L 457.200121 134.611261 
L 453.391245 131.664141 
L 445.253275 136.101282 
L 444.308211 138.118737 
L 443.459368 137.057684 
L 443.422179 133.977511 
L 446.519371 133.813957 
L 447.391661 126.650154 
L 445.794836 121.457421 
L 450.998628 119.315904 
L 458.357275 120.389517 
L 462.434894 114.491053 
L 464.512775 107.848542 
L 466.868069 105.629608 
L 470.054267 100.174101 
L 460.033591 101.961448 
L 454.777405 104.353253 
L 445.564861 104.346159 
L 443.109484 98.649474 
L 435.927822 94.339098 
L 425.375394 92.400889 
L 423.132363 86.461861 
L 415.001021 74.01419 
L 409.676734 71.781455 
L 400.601755 69.976118 
L 392.563693 70.140272 
L 385.02923 71.23361 
L 380.021085 74.250121 
L 383.347942 75.691091 
L 383.423192 79.038659 
L 380.051348 80.982265 
L 374.578196 87.413032 
L 374.633193 90.081047 
L 366.088892 93.912353 
L 358.810414 91.62322 
L 351.576427 92.128609 
L 348.401845 90.097027 
L 344.766052 89.44187 
L 335.885243 93.714804 
L 327.903042 94.718845 
L 322.329664 96.221539 
L 314.692744 95.23426 
L 309.070488 95.297395 
L 305.390203 92.198167 
L 299.452118 89.284269 
L 293.375544 88.48561 
L 279.975686 90.40189 
L 271.362028 87.851763 
L 270.205905 83.308335 
L 257.57345 81.040131 
L 250.781248 78.533865 
L 244.501328 84.817545 
L 246.963101 88.386287 
L 241.069703 92.608371 
L 232.303953 91.084032 
L 226.252493 90.86592 
L 222.199981 88.033799 
L 215.873947 87.944347 
L 210.602041 86.083681 
L 201.37971 88.935541 
L 189.810595 94.157685 
L 181.045715 95.707064 
L 177.828521 91.998267 
L 170.018647 92.809615 
L 167.437498 90.236142 
L 163.198246 89.059303 
L 160.280275 85.555732 
L 156.932739 84.464744 
L 148.21987 86.022896 
L 139.867636 82.529665 
L 136.636656 85.704247 
L 123.087656 70.305863 
L 115.352667 65.621537 
L 117.571303 63.72061 
L 102.37533 69.442257 
L 96.559905 69.788098 
L 97.062161 66.478787 
L 89.274846 64.411016 
L 82.944795 65.886607 
L 81.035721 59.602457 
L 70.139623 58.295746 
L 64.68844 60.811098 
L 49.517022 63.049263 
L 46.556161 64.546998 
L 23.868227 66.656842 
L 21.088066 68.725935 
L 25.465179 72.879179 
L 19.64459 74.455661 
L 20.78007 76.107496 
L 14.961047 79.06103 
L 24.78621 83.231037 
L 23.26691 86.10248 
L 14.750494 85.841013 
L 12.988996 87.640266 
L 5.234445 84.498351 
L -4.377721 84.62016 
L -10.810974 87.177843 
L -31.354265 80.526908 
L -40.825374 80.683883 
L -53.341349 87.278379 
L -54.096456 91.706721 
L -60.331571 88.19046 
L -65.169269 94.852007 
L -63.398371 96.088691 
L -66.898182 100.683876 
L -61.751808 104.796531 
L -57.252884 104.627247 
L -53.387721 108.678297 
L -54.003032 111.798326 
L -50.923493 112.778799 
L -53.686777 116.374494 
L -59.565009 117.373703 
L -65.591181 123.63264 
L -60.080195 129.386819 
L -60.676931 133.470841 
L -54.056872 140.611422 
L -57.677104 143.055244 
L -58.717648 144.59773 
L -61.399687 144.183517 
L -65.566561 140.500726 
L -71.082038 138.892153 
L -72.938097 136.404193 
L -78.592939 135.135707 
L -82.269716 136.087821 
L -83.332103 134.960862 
L -91.587638 132.05376 
L -105.638612 130.035916 
L -106.378053 130.752014 
L -114.108632 125.628632 
L -121.025967 123.341548 
L -126.262474 119.779564 
L -121.850253 118.81055 
L -116.819166 113.739567 
L -120.209866 111.340376 
L -111.273075 108.865516 
L -111.433566 107.540049 
L -116.876233 108.517249 
L -116.684793 105.82393 
L -113.559491 104.130978 
L -107.692127 103.686445 
L -106.738136 101.664546 
L -108.077912 98.32126 
L -105.615427 95.14653 
L -105.686663 93.366265 
L -114.624071 91.393242 
L -118.167121 91.458726 
L -121.90913 88.619399 
L -126.56134 89.579575 
L -134.261864 87.44773 
L -134.129725 86.254848 
L -136.286553 83.625667 
L -141.121117 83.332084 
L -141.623373 81.449956 
L -140.109086 80.222359 
L -143.983631 76.789443 
L -150.270757 77.375199 
L -152.112153 77.070649 
L -153.643816 78.449684 
L -155.908224 78.204551 
L -157.399468 74.321872 
L -158.823205 72.309246 
L -157.656414 71.74274 
L -152.764177 71.953155 
L -150.404859 70.627175 
L -152.151318 69.010588 
L -156.239862 67.943569 
L -155.875154 66.848507 
L -158.342568 65.742479 
L -162.143795 61.772841 
L -160.844447 60.137142 
L -161.438193 57.290922 
L -167.365626 55.844939 
L -170.547101 56.568714 
L -171.408424 55.063513 
L -177.791741 53.542959 
L -179.740606 49.964505 
L -180.257588 47.024288 
z
" clip-path="url(#p495d92429e)" style="fill: #e8edf4; stroke: #b8c5d4; stroke-width: 0.45"/>
    <path d="M -36.64722 -42.532332 
L -30.44751 -43.833246 
L -30.654303 -47.139424 
L -18.628364 -52.310183 
L -24.202369 -53.051504 
L -9.686144 -58.372971 
L -11.326386 -61.125194 
L 2.235146 -64.326409 
L 22.252059 -68.221946 
L 42.432212 -69.3568 
L 52.816029 -71.604574 
L 64.615436 -72.392267 
L 68.830249 -69.998014 
L 64.757998 -68.111343 
L 24.758951 -62.213363 
L 5.924203 -56.442278 
L -12.615395 -44.693159 
L -11.381531 -39.656659 
L 0.21641 -34.684076 
L -3.365178 -34.152212 
L -23.177178 -34.939904 
L -24.786089 -37.63197 
L -35.761145 -39.257486 
z
" clip-path="url(#p495d92429e)" style="fill: #e8edf4; stroke: #b8c5d4; stroke-width: 0.45"/>
    <path d="M -1440 0.123029 
L -1440 -24.032153 
L -1425.145263 -19.402105 
L -1409.249179 -13.374659 
L -1409.770611 -9.606164 
L -1405.681496 -8.097711 
L -1407.088088 -12.503384 
L -1390.629585 -11.599306 
L -1378.759559 -5.92516 
L -1384.771119 -3.282533 
L -1394.709726 -2.655117 
L -1394.859789 3.269315 
L -1397.287053 4.531059 
L -1402.965261 4.349709 
L -1407.585873 2.235789 
L -1415.647508 0.467591 
L -1417.003412 -2.162547 
L -1423.160549 -3.154297 
L -1430.055997 -2.367784 
L -1433.350656 -4.489405 
L -1432.033677 -6.742899 
L -1439.295279 -5.302595 
L -1436.560249 -2.450183 
z
" clip-path="url(#p495d92429e)" style="fill: #e8edf4; stroke: #b8c5d4; stroke-width: 0.45"/>
    <path d="M 509.875661 79.212521 
L 510.412068 70.927024 
L 516.016779 68.136889 
L 513.608583 65.32764 
L 516.306916 64.476344 
L 519.98156 74.329705 
L 519.826466 80.29646 
L 522.328971 86.414549 
L 528.429358 97.153673 
L 519.454552 95.151857 
L 515.724136 103.912977 
L 521.634649 110.126786 
L 521.463575 114.363844 
L 516.870269 110.708626 
L 512.894835 115.401568 
L 511.772514 110.313526 
L 512.448664 104.406773 
L 511.757475 97.864288 
L 513.160219 93.280695 
L 513.42811 85.173166 
z
" clip-path="url(#p495d92429e)" style="fill: #e8edf4; stroke: #b8c5d4; stroke-width: 0.45"/>
    <path d="M -151.856795 119.277679 
L -150.785859 118.115253 
L -144.981249 116.099964 
L -145.903904 115.370269 
L -144.306421 113.868695 
L -138.045874 115.408174 
L -137.259029 116.605547 
L -136.344299 116.790214 
L -136.295013 117.314714 
L -133.32879 118.777303 
L -127.144433 118.413536 
L -128.328478 120.576714 
L -134.965899 121.62697 
L -143.196565 125.134614 
L -146.568227 123.901377 
L -145.23128 121.052337 
z
" clip-path="url(#p495d92429e)" style="fill: #e8edf4; stroke: #b8c5d4; stroke-width: 0.45"/>
    <path d="M -76.717391 -94.523479 
L -64.881012 -95.627627 
L -55.669021 -95.700944 
L -54.430145 -94.067281 
L -50.947566 -95.518904 
L -45.232566 -96.518716 
L -36.239901 -95.189916 
L -38.584806 -94.265615 
L -52.177043 -93.006215 
L -53.0227 -92.01126 
L -60.109426 -91.009099 
L -66.677603 -92.446465 
L -63.22385 -94.339245 
z
" clip-path="url(#p495d92429e)" style="fill: #e8edf4; stroke: #b8c5d4; stroke-width: 0.45"/>
    <path d="M 204.213645 -93.017694 
L 219.957181 -97.15968 
L 233.073216 -98.528741 
L 244.853659 -95.476396 
L 258.815929 -89.614292 
L 257.318966 -84.162331 
L 244.090247 -83.406013 
L 227.20223 -85.155507 
L 217.139146 -87.470147 
L 212.485794 -91.81919 
z
" clip-path="url(#p495d92429e)" style="fill: #e8edf4; stroke: #b8c5d4; stroke-width: 0.45"/>
    <path d="M 481.865775 -62.218125 
L 485.123934 -66.386547 
L 493.123149 -67.523934 
L 509.13316 -67.257944 
L 531.049475 -64.042863 
L 526.282105 -59.540211 
L 503.932153 -59.708039 
L 493.877194 -58.275921 
z
" clip-path="url(#p495d92429e)" style="fill: #e8edf4; stroke: #b8c5d4; stroke-width: 0.45"/>
    <path d="M -229.426014 64.111323 
L -228.044575 61.44307 
L -219.677615 59.476658 
L -213.327824 60.538821 
L -210.647664 61.501191 
L -211.294675 63.161486 
L -210.809339 64.708829 
L -221.958602 64.799849 
z
" clip-path="url(#p495d92429e)" style="fill: #e8edf4; stroke: #b8c5d4; stroke-width: 0.45"/>
    <path d="M 499.380601 -50.747601 
L 505.132052 -53.143943 
L 512.713182 -53.704906 
L 521.327475 -51.386779 
L 522.061238 -49.79332 
L 512.868157 -49.750878 
z
" clip-path="url(#p495d92429e)" style="fill: #e8edf4; stroke: #b8c5d4; stroke-width: 0.45"/>
    <path d="M 254.277565 -78.342063 
L 265.353499 -86.302929 
L 270.33408 -86.984549 
L 274.890331 -86.589716 
L 290.258102 -83.146146 
L 288.457587 -80.681775 
z
" clip-path="url(#p495d92429e)" style="fill: #e8edf4; stroke: #b8c5d4; stroke-width: 0.45"/>
    <path d="M -1440 -35.361545 
L -1440 -39.505805 
L -1434.084359 -39.747213 
L -1425.314698 -38.012847 
L -1425.833886 -37.183953 
L -1432.080182 -35.730311 
z
" clip-path="url(#p495d92429e)" style="fill: #e8edf4; stroke: #b8c5d4; stroke-width: 0.45"/>
    <path d="M 537.312141 -61.680384 
L 538.763025 -63.643877 
L 565.278336 -61.141248 
L 558.270872 -58.745452 
L 548.579156 -59.28771 
z
" clip-path="url(#p495d92429e)" style="fill: #e8edf4; stroke: #b8c5d4; stroke-width: 0.45"/>
    <path d="M 735.008135 -36.977987 
L 742.736842 -39.505805 
L 742.736842 -35.361545 
L 736.088135 -35.051965 
z
" clip-path="url(#p495d92429e)" style="fill: #e8edf4; stroke: #b8c5d4; stroke-width: 0.45"/>
    <path d="M -33.347309 278.905243 
L -15.158006 272.842142 
L -11.115834 260.715783 
L -13.89469 256.421073 
L -13.736149 253.979665 
L -11.969637 251.470266 
L -11.952718 248.992043 
L -9.20864 247.797971 
L -10.282396 246.954821 
L -9.784527 243.006332 
L -6.688589 242.982677 
L -3.970517 247.124172 
L -0.585382 249.325575 
L 7.452903 251.222898 
L 11.82375 256.712463 
L 13.994134 257.480416 
L 13.982541 258.833029 
L 10.807019 264.148229 
L 8.252815 266.087538 
L 5.990314 270.241096 
L 3.239657 269.923074 
L 1.978848 271.368743 
L 1.005042 274.442749 
L 1.750436 278.495574 
L 1.178623 279.240498 
L -1.6112 279.220602 
L -5.398327 281.486549 
L -5.989253 284.440239 
L -7.375705 285.719848 
L -11.147166 285.670969 
L -13.521209 287.197789 
L -13.491131 289.64703 
L -16.425081 291.330511 
L -19.770424 290.758855 
L -23.825129 292.804066 
L -26.625918 293.147311 
z
" clip-path="url(#p495d92429e)" style="fill: #e8edf4; stroke: #b8c5d4; stroke-width: 0.45"/>
    <path d="M -8.665339 236.12687 
L -6.899768 234.062545 
L -6.149987 234.588927 
L -6.721487 237.093783 
L -7.512 238.193544 
z
" clip-path="url(#p495d92429e)" style="fill: #e8edf4; stroke: #b8c5d4; stroke-width: 0.45"/>
    <path d="M 271.921108 312.893827 
L 275.803485 307.85247 
L 283.643124 306.694274 
L 289.326479 307.564526 
L 294.32961 309.942017 
L 297.072748 305.761513 
L 302.446853 307.993621 
L 303.852417 312.037203 
L 303.10577 319.302836 
L 292.914333 323.968989 
L 295.576947 327.642067 
L 289.212116 328.081658 
L 283.963966 330.523693 
L 278.888771 329.638401 
L 276.42355 326.478858 
L 273.357064 320.216014 
z
" clip-path="url(#p495d92429e)" style="fill: #e8edf4; stroke: #b8c5d4; stroke-width: 0.45"/>
    <path d="M 241.773856 282.267662 
L 244.33182 281.166334 
L 247.096263 274.611316 
L 251.37656 274.339823 
L 254.915223 271.710735 
L 258.387462 270.308617 
L 261.012163 272.179778 
L 261.360264 275.823091 
L 265.457267 276.100538 
L 263.965226 282.489024 
L 264.108415 287.924227 
L 270.499251 284.30692 
L 272.314641 285.375976 
L 275.865837 285.200672 
L 277.08748 283.091073 
L 281.672953 283.507478 
L 286.283805 288.431339 
L 286.661985 294.41564 
L 291.571434 299.699978 
L 291.30041 304.831729 
L 289.326479 307.564526 
L 283.643124 306.694274 
L 275.803485 307.85247 
L 271.921108 312.893827 
L 273.357064 320.216014 
L 267.913715 317.432144 
L 262.727603 317.545254 
L 263.616812 312.781814 
L 258.277172 312.817376 
L 257.797789 319.485973 
L 252.553399 333.697649 
L 252.969491 338.086198 
L 256.919233 338.276542 
L 259.379753 343.810441 
L 260.468862 349.058591 
L 263.85243 352.530986 
L 267.525195 353.235805 
L 270.666565 356.382501 
L 268.684488 358.873414 
L 264.682421 359.597502 
L 264.205231 356.484175 
L 259.258184 353.828767 
L 258.204168 354.910043 
L 255.808818 352.583468 
L 254.771721 349.580743 
L 248.61243 343.282023 
L 247.617318 346.845908 
L 246.467425 343.47785 
L 248.91416 333.880159 
L 251.852184 327.649744 
L 255.18186 321.997565 
L 252.811577 316.468052 
L 252.906513 313.65144 
L 252.213758 310.266932 
L 248.170019 305.4496 
L 246.72247 302.407867 
L 248.81609 301.287426 
L 251.035039 296.016561 
L 248.551646 292.014807 
L 244.703734 287.588032 
z
" clip-path="url(#p495d92429e)" style="fill: #e8edf4; stroke: #b8c5d4; stroke-width: 0.45"/>
    <path d="M 258.387462 270.308617 
L 259.679603 268.075725 
L 264.838769 264.131936 
L 265.384577 265.5563 
L 268.61681 265.721734 
L 267.700656 258.7865 
L 270.843906 257.897918 
L 274.387582 262.685484 
L 277.109726 268.194318 
L 284.574318 268.241786 
L 286.924236 273.529414 
L 283.048752 275.117802 
L 281.309499 277.297429 
L 288.573565 280.924449 
L 297.434322 293.430868 
L 302.022301 297.649283 
L 303.549121 301.932087 
L 302.446853 307.993621 
L 297.072748 305.761513 
L 294.32961 309.942017 
L 289.326479 307.564526 
L 291.30041 304.831729 
L 291.571434 299.699978 
L 286.661985 294.41564 
L 286.283805 288.431339 
L 281.672953 283.507478 
L 277.08748 283.091073 
L 275.865837 285.200672 
L 272.314641 285.375976 
L 270.499251 284.30692 
L 264.108415 287.924227 
L 263.965226 282.489024 
L 265.457267 276.100538 
L 261.360264 275.823091 
L 261.012163 272.179778 
z
" clip-path="url(#p495d92429e)" style="fill: #e8edf4; stroke: #b8c5d4; stroke-width: 0.45"/>
    <path d="M 211.017506 263.896005 
L 213.133685 264.814196 
L 213.257761 260.465751 
L 216.249363 259.027445 
L 215.607679 256.452719 
L 216.978151 254.387924 
L 217.213769 248.113174 
L 221.952457 249.494455 
L 224.656115 244.495397 
L 224.962858 241.54108 
L 228.309141 236.455232 
L 228.124907 232.9855 
L 235.974259 228.795753 
L 240.307194 229.892068 
L 239.809952 226.161495 
L 241.935531 225.049044 
L 241.47808 222.750825 
L 245.024263 222.299954 
L 247.050832 225.869479 
L 249.697152 227.314992 
L 249.631355 236.956077 
L 243.888156 242.01921 
L 243.161248 249.211525 
L 249.56117 248.20576 
L 251.007153 253.787285 
L 254.846605 254.961617 
L 253.081661 259.998431 
L 260.209744 263.390616 
L 264.657042 261.625357 
L 264.838769 264.131936 
L 259.679603 268.075725 
L 258.387462 270.308617 
L 254.915223 271.710735 
L 251.37656 274.339823 
L 247.096263 274.611316 
L 244.33182 281.166334 
L 241.773856 282.267662 
L 244.703734 287.588032 
L 248.551646 292.014807 
L 251.035039 296.016561 
L 248.81609 301.287426 
L 246.72247 302.407867 
L 248.170019 305.4496 
L 252.213758 310.266932 
L 252.906513 313.65144 
L 252.811577 316.468052 
L 255.18186 321.997565 
L 251.852184 327.649744 
L 248.91416 333.880159 
L 248.329814 329.37944 
L 250.193455 324.734906 
L 248.15498 321.147364 
L 248.647522 314.542216 
L 246.186062 311.401002 
L 244.210251 304.144456 
L 243.114876 296.484978 
L 240.492368 291.463673 
L 229.607862 298.826436 
L 226.206748 298.286425 
L 222.450013 296.864724 
L 224.539873 289.350627 
L 223.274677 283.673853 
L 218.522203 276.683161 
L 219.263524 274.49758 
L 215.716715 273.720384 
L 211.413545 268.774434 
z
" clip-path="url(#p495d92429e)" style="fill: #e8edf4; stroke: #b8c5d4; stroke-width: 0.45"/>
    <path d="M 270.843906 257.897918 
L 274.097132 256.418253 
L 278.932636 256.448802 
L 284.82811 255.749153 
L 289.996049 252.518016 
L 292.91872 254.792737 
L 298.461392 255.900018 
L 297.502626 259.392779 
L 300.389578 261.856276 
L 306.493725 263.429781 
L 298.398728 268.616989 
L 293.345778 274.345462 
L 292.013845 278.552598 
L 302.320897 292.865948 
L 307.823465 296.611246 
L 311.507509 301.480276 
L 314.285425 312.701133 
L 313.466087 323.367253 
L 308.409378 327.360077 
L 301.465841 331.26376 
L 296.51942 336.318277 
L 288.959578 341.963563 
L 286.758175 338.075389 
L 288.462022 333.967889 
L 283.963966 330.523693 
L 289.212116 328.081658 
L 295.576947 327.642067 
L 292.914333 323.968989 
L 303.10577 319.302836 
L 303.852417 312.037203 
L 302.446853 307.993621 
L 303.549121 301.932087 
L 302.022301 297.649283 
L 297.434322 293.430868 
L 288.573565 280.924449 
L 281.309499 277.297429 
L 283.048752 275.117802 
L 286.924236 273.529414 
L 284.574318 268.241786 
L 277.109726 268.194318 
L 274.387582 262.685484 
z
" clip-path="url(#p495d92429e)" style="fill: #e8edf4; stroke: #b8c5d4; stroke-width: 0.45"/>
    <path d="M 404.810524 152.012503 
L 409.747858 148.124016 
L 416.430084 144.864994 
L 420.595705 140.564801 
L 423.473884 142.465101 
L 428.716394 142.68568 
L 427.769221 139.487285 
L 437.133486 136.8759 
L 439.544189 133.478075 
L 444.308164 138.118679 
L 442.004396 137.754926 
L 437.562111 141.871198 
L 437.791463 146.226223 
L 434.65636 147.566302 
L 431.292844 150.427876 
L 427.255059 151.424867 
L 424.623777 153.053204 
L 424.433904 155.678062 
L 423.726422 156.347788 
L 426.139004 157.333501 
L 429.573017 159.993138 
L 428.700101 161.459486 
L 421.833955 162.152399 
L 419.471818 164.888956 
L 416.765339 164.673077 
L 416.385906 165.222958 
L 413.441302 164.068992 
L 412.709694 165.208388 
L 410.93253 165.711741 
L 410.718844 164.570934 
L 407.517943 163.048344 
L 409.178238 160.379777 
L 410.608868 159.668066 
L 410.0687 158.560314 
L 411.607113 155.289855 
L 411.210133 154.298973 
L 407.671471 153.638333 
z
" clip-path="url(#p495d92429e)" style="fill: #e8edf4; stroke: #b8c5d4; stroke-width: 0.45"/>
    <path d="M 444.308233 138.118689 
L 444.30824 138.118674 
L 444.308255 138.118693 
z
" clip-path="url(#p495d92429e)" style="fill: #e8edf4; stroke: #b8c5d4; stroke-width: 0.45"/>
    <path d="M 416.038118 171.43285 
L 420.5415 170.411576 
L 416.385906 165.222958 
L 416.765339 164.673077 
L 419.471818 164.888956 
L 421.833955 162.152399 
L 428.700101 161.459486 
L 429.573017 159.993138 
L 434.806754 167.146757 
L 436.307568 171.076916 
L 436.355193 178.061969 
L 434.06982 181.394622 
L 428.579472 182.559398 
L 423.733002 185.07381 
L 418.27148 185.592985 
L 417.59345 182.291507 
L 418.717024 177.74426 
z
" clip-path="url(#p495d92429e)" style="fill: #e8edf4; stroke: #b8c5d4; stroke-width: 0.45"/>
    <path d="M 183.418192 95.208568 
L 189.810595 94.157685 
L 201.37971 88.935541 
L 210.602041 86.083681 
L 215.873947 87.944347 
L 222.199981 88.033799 
L 226.252493 90.86592 
L 232.303953 91.084032 
L 241.069703 92.608371 
L 246.963101 88.386287 
L 244.501328 84.817545 
L 250.781248 78.533865 
L 257.57345 81.040131 
L 270.205905 83.308335 
L 271.362028 87.851763 
L 279.975686 90.40189 
L 293.375544 88.48561 
L 299.452118 89.284269 
L 305.390203 92.198167 
L 309.070488 95.297395 
L 314.692744 95.23426 
L 322.329664 96.221539 
L 327.903042 94.718845 
L 335.885243 93.714804 
L 344.766052 89.44187 
L 348.401845 90.097027 
L 351.576427 92.128609 
L 358.810414 91.62322 
L 351.57392 102.252838 
L 353.135519 104.731688 
L 356.567966 103.962482 
L 362.549603 104.906522 
L 367.20996 102.669087 
L 372.07523 104.607299 
L 377.569964 108.845454 
L 376.905721 111.000172 
L 372.122228 110.316659 
L 363.314736 111.121114 
L 359.047286 112.846267 
L 354.604374 116.853817 
L 345.359485 119.202795 
L 339.318003 122.421869 
L 329.67394 120.644235 
L 326.491212 124.552774 
L 328.427544 126.88264 
L 329.408869 128.88383 
L 325.165231 130.922775 
L 320.814437 134.170205 
L 313.729591 136.303147 
L 304.64199 136.533125 
L 294.847219 138.638181 
L 287.787753 141.893601 
L 285.10352 140.00834 
L 277.767077 140.013667 
L 268.798224 136.330876 
L 262.812827 135.427881 
L 254.748536 136.271344 
L 242.233814 134.911995 
L 235.550021 135.05299 
L 231.991305 131.452603 
L 229.229055 125.863089 
L 225.482346 125.190072 
L 218.156869 121.411874 
L 202.785587 119.52865 
L 200.604237 116.899406 
L 202.938802 109.81503 
L 198.755322 104.931744 
L 190.106058 102.654831 
L 185.010183 99.439047 
z
" clip-path="url(#p495d92429e)" style="fill: #e8edf4; stroke: #b8c5d4; stroke-width: 0.45"/>
    <path d="M 64.734185 250.457138 
L 68.771971 246.41199 
L 82.114804 246.427813 
L 80.911019 241.222118 
L 77.504578 238.147329 
L 76.813703 233.480862 
L 72.845161 230.757934 
L 79.527388 224.402347 
L 86.567741 224.863244 
L 92.910326 218.50656 
L 96.71124 212.353535 
L 102.597 206.269755 
L 102.503317 201.947786 
L 107.673449 198.440455 
L 102.77998 195.446503 
L 98.526003 186.031636 
L 101.498492 183.417274 
L 110.695443 184.896469 
L 117.453807 183.995354 
L 123.309175 178.899479 
L 129.825967 186.005944 
L 129.212482 190.951894 
L 131.624438 194.055039 
L 131.425791 197.150977 
L 127.07437 196.336182 
L 128.774771 203.019348 
L 134.731656 206.858487 
L 143.158774 211.098052 
L 139.311489 213.848396 
L 136.957184 219.519844 
L 156.455235 228.189944 
L 164.766425 228.975757 
L 168.263416 232.060102 
L 180.242356 234.050639 
L 185.291546 233.949279 
L 185.986182 231.549543 
L 185.187837 227.696931 
L 185.656567 225.08539 
L 189.354397 223.810168 
L 189.992948 229.799951 
L 195.503662 232.101304 
L 199.315855 231.153504 
L 209.381963 231.380349 
L 209.807768 227.65573 
L 207.339728 225.720807 
L 212.229437 224.962097 
L 217.748297 220.452605 
L 224.736953 216.591533 
L 229.822801 218.081381 
L 234.145083 215.528274 
L 236.98817 219.298482 
L 234.940295 221.844696 
L 241.47808 222.750825 
L 241.935531 225.049044 
L 239.809952 226.161495 
L 240.307194 229.892068 
L 235.974259 228.795753 
L 228.124907 232.9855 
L 228.309141 236.455232 
L 224.962858 241.54108 
L 224.656115 244.495397 
L 221.952457 249.494455 
L 217.213769 248.113174 
L 216.978151 254.387924 
L 215.607679 256.452719 
L 216.249363 259.027445 
L 213.257761 260.465751 
L 210.064379 250.848008 
L 208.390298 250.867121 
L 207.399259 254.741978 
L 204.079609 251.599668 
L 205.95171 248.149049 
L 208.664142 247.798755 
L 211.459917 242.667631 
L 207.963866 241.632414 
L 202.340983 241.722337 
L 196.571778 240.89078 
L 196.036937 236.674871 
L 193.142465 236.375804 
L 188.340173 233.755803 
L 186.198301 237.869412 
L 190.574475 241.079087 
L 186.783901 243.338297 
L 185.438181 245.547847 
L 189.170164 247.172423 
L 188.138393 250.825919 
L 190.239533 255.385386 
L 191.18326 260.378021 
L 190.315044 262.5918 
L 186.190468 262.515506 
L 178.71585 263.774279 
L 179.064264 268.335313 
L 175.827644 271.922697 
L 167.102243 276.003564 
L 160.315994 283.137288 
L 155.75778 286.961857 
L 149.716298 290.930712 
L 149.706898 293.719594 
L 141.223068 297.385936 
L 138.390948 297.705995 
L 136.573051 302.33079 
L 138.156896 315.246251 
L 135.587652 321.006526 
L 135.56008 331.307469 
L 132.42247 331.601052 
L 129.662726 336.225533 
L 131.508195 338.223904 
L 125.979935 339.94279 
L 123.938013 344.066269 
L 121.505065 345.808968 
L 115.763746 340.147546 
L 110.631212 325.541554 
L 108.506887 322.673714 
L 105.285619 316.848895 
L 102.733295 305.478739 
L 97.217882 297.151414 
L 92.893093 277.64271 
L 92.914712 270.298591 
L 91.738814 264.620406 
L 82.915342 268.249619 
L 78.641939 267.522711 
L 70.721462 260.174362 
L 73.636614 257.982672 
L 71.845976 255.603458 
z
" clip-path="url(#p495d92429e)" style="fill: #e8edf4; stroke: #b8c5d4; stroke-width: 0.45"/>
    <path d="M 185.438181 245.547847 
L 186.783901 243.338297 
L 190.574475 241.079087 
L 186.198301 237.869412 
L 188.340173 233.755803 
L 193.142465 236.375804 
L 196.036937 236.674871 
L 196.571778 240.89078 
L 202.340983 241.722337 
L 207.963866 241.632414 
L 211.459917 242.667631 
L 208.664142 247.798755 
L 205.95171 248.149049 
L 204.079609 251.599668 
L 207.399259 254.741978 
L 208.390298 250.867121 
L 210.064379 250.848008 
L 213.257761 260.465751 
L 213.133685 264.814196 
L 211.017506 263.896005 
L 211.413545 268.774434 
L 209.681499 265.613638 
L 209.331832 262.525219 
L 208.177865 259.606621 
L 205.644654 256.077358 
L 200.059996 255.834847 
L 200.611443 258.334219 
L 198.707697 261.707918 
L 196.1278 260.478441 
L 195.246111 261.582119 
L 191.18326 260.378021 
L 190.239533 255.385386 
L 188.138393 250.825919 
L 189.170164 247.172423 
z
" clip-path="url(#p495d92429e)" style="fill: #e8edf4; stroke: #b8c5d4; stroke-width: 0.45"/>
    <path d="M 189.863233 228.5852 
L 193.874386 224.077588 
L 197.148605 222.539489 
L 201.481853 223.943016 
L 204.685261 224.090591 
L 209.807768 227.65573 
L 209.381963 231.380349 
L 199.315855 231.153504 
L 195.503662 232.101304 
L 189.992948 229.799951 
z
" clip-path="url(#p495d92429e)" style="fill: #e8edf4; stroke: #b8c5d4; stroke-width: 0.45"/>
    <path d="M 136.957184 219.519844 
L 139.311489 213.848396 
L 145.672246 209.647526 
L 150.533129 211.511638 
L 156.654508 215.462006 
L 160.061263 216.332103 
L 162.095978 219.244434 
L 166.807406 220.439602 
L 171.728761 223.102529 
L 178.587388 224.492897 
L 185.656567 225.08539 
L 185.187837 227.696931 
L 185.986182 231.549543 
L 185.291546 233.949279 
L 180.242356 234.050639 
L 168.263416 232.060102 
L 164.766425 228.975757 
L 156.455235 228.189944 
z
" clip-path="url(#p495d92429e)" style="fill: #e8edf4; stroke: #b8c5d4; stroke-width: 0.45"/>
    <path d="M 20.458601 213.245877 
L 30.618079 216.342129 
L 36.683687 215.434121 
L 40.307887 216.207244 
L 41.53517 214.87813 
L 45.757816 215.410778 
L 53.63756 212.889943 
L 53.849679 207.730464 
L 57.229488 204.298644 
L 61.743523 204.309297 
L 62.4062 202.612969 
L 67.039925 201.822457 
L 69.281746 202.387064 
L 71.65297 200.681964 
L 71.318028 197.040844 
L 73.892598 193.381396 
L 77.751476 191.847213 
L 75.368346 187.835903 
L 81.135985 188.025463 
L 82.803173 185.84239 
L 82.550008 183.512838 
L 85.569809 180.96584 
L 84.87674 177.950269 
L 83.443291 175.380556 
L 86.983833 172.739718 
L 93.494045 171.466063 
L 100.451682 170.761714 
L 107.063411 168.961834 
L 111.543294 171.788628 
L 113.337691 176.447575 
L 123.309175 178.899479 
L 117.453807 183.995354 
L 110.695443 184.896469 
L 101.498492 183.417274 
L 98.526003 186.031636 
L 102.77998 195.446503 
L 107.673449 198.440455 
L 102.503317 201.947786 
L 102.597 206.269755 
L 96.71124 212.353535 
L 92.910326 218.50656 
L 86.567741 224.863244 
L 79.527388 224.402347 
L 72.845161 230.757934 
L 76.813703 233.480862 
L 77.504578 238.147329 
L 80.911019 241.222118 
L 82.114804 246.427813 
L 68.771971 246.41199 
L 64.734185 250.457138 
L 60.290021 248.923895 
L 58.481837 244.565894 
L 53.797355 239.948619 
L 42.626472 241.089113 
L 32.775617 241.202066 
L 24.236642 242.051952 
L 26.521389 235.008152 
L 35.267156 231.876182 
L 34.765527 229.08401 
L 31.864476 228.102527 
L 31.697161 222.762574 
L 25.901011 220.096671 
L 23.46023 216.434872 
z
" clip-path="url(#p495d92429e)" style="fill: #e8edf4; stroke: #b8c5d4; stroke-width: 0.45"/>
    <path d="M 18.361848 189.919654 
L 22.49927 177.953246 
L 28.682687 180.253658 
L 33.254374 179.444973 
L 34.520823 176.697606 
L 39.306822 175.783332 
L 42.723916 173.939429 
L 43.93428 169.090452 
L 49.044568 167.917844 
L 49.994561 165.759679 
L 52.854881 167.380809 
L 58.059479 167.609064 
L 64.485094 169.62827 
L 68.874114 167.680658 
L 70.916349 168.852014 
L 72.871794 166.075978 
L 76.496307 166.201934 
L 77.430008 165.311001 
L 78.071065 162.866147 
L 80.681354 160.756861 
L 83.963406 162.135479 
L 83.304175 163.988624 
L 85.138365 164.276568 
L 84.573131 169.370406 
L 86.973807 171.35593 
L 89.086226 170.081961 
L 91.777352 169.480069 
L 95.555707 166.7656 
L 105.984015 167.221955 
L 107.063411 168.961834 
L 100.451682 170.761714 
L 93.494045 171.466063 
L 86.983833 172.739718 
L 83.443291 175.380556 
L 84.87674 177.950269 
L 85.569809 180.96584 
L 82.550008 183.512838 
L 82.803173 185.84239 
L 81.135985 188.025463 
L 75.368346 187.835903 
L 77.751476 191.847213 
L 73.892598 193.381396 
L 71.318028 197.040844 
L 71.65297 200.681964 
L 69.281746 202.387064 
L 67.039925 201.822457 
L 62.4062 202.612969 
L 61.743523 204.309297 
L 57.229488 204.298644 
L 53.849679 207.730464 
L 53.63756 212.889943 
L 45.757816 215.410778 
L 41.53517 214.87813 
L 40.307887 216.207244 
L 36.683687 215.434121 
L 30.618079 216.342129 
L 20.458601 213.245877 
L 25.957722 207.74895 
L 25.461106 203.846363 
L 20.869054 202.824305 
L 20.39437 198.97514 
L 18.40822 194.134623 
L 21.000962 190.814659 
z
" clip-path="url(#p495d92429e)" style="fill: #e8edf4; stroke: #b8c5d4; stroke-width: 0.45"/>
    <path d="M 60.281248 156.792393 
L 61.852873 154.122573 
L 66.915536 154.407696 
L 69.796848 151.056557 
L 71.724094 147.166033 
L 79.83131 145.757022 
L 78.567368 148.568621 
L 79.435897 150.253982 
L 81.938716 150.09732 
L 79.718514 151.968482 
L 73.119318 150.953161 
L 72.544999 154.448742 
L 79.119128 153.978758 
L 86.610353 155.947676 
L 98.073878 155.027448 
L 99.610725 160.638425 
L 101.603455 160.027916 
L 105.285619 161.408258 
L 105.07444 163.765852 
L 105.984015 167.221955 
L 95.555707 166.7656 
L 91.777352 169.480069 
L 89.086226 170.081961 
L 86.973807 171.35593 
L 84.573131 169.370406 
L 85.138365 164.276568 
L 83.304175 163.988624 
L 83.963406 162.135479 
L 80.681354 160.756861 
L 78.071065 162.866147 
L 77.430008 165.311001 
L 76.496307 166.201934 
L 72.871794 166.075978 
L 70.916349 168.852014 
L 68.874114 167.680658 
L 64.485094 169.62827 
L 62.632419 168.8893 
L 66.040113 162.753194 
L 64.730425 158.239002 
z
" clip-path="url(#p495d92429e)" style="fill: #e8edf4; stroke: #b8c5d4; stroke-width: 0.45"/>
    <path d="M 72.544999 154.448742 
L 73.119318 150.953161 
L 79.718514 151.968482 
L 81.938716 150.09732 
L 86.550822 150.69467 
L 94.31495 146.328052 
L 87.128275 143.133574 
L 82.809753 144.645198 
L 78.336136 142.362958 
L 83.424491 138.435775 
L 81.624141 137.838896 
L 82.98208 135.182392 
L 86.973807 134.326866 
L 96.948425 136.415629 
L 97.891525 132.836078 
L 101.332744 131.580595 
L 109.967282 134.129786 
L 112.170565 133.462096 
L 131.219939 134.262008 
L 134.260419 136.441165 
L 137.997415 137.330531 
L 137.145178 138.701159 
L 127.591039 141.985561 
L 125.429741 144.39219 
L 117.652453 145.112675 
L 115.359874 148.984243 
L 108.941778 148.171015 
L 104.752345 149.357253 
L 98.964341 152.221803 
L 99.799658 153.64037 
L 98.073878 155.027448 
L 86.610353 155.947676 
L 79.119128 153.978758 
z
" clip-path="url(#p495d92429e)" style="fill: #e8edf4; stroke: #b8c5d4; stroke-width: 0.45"/>
    <path d="M -30.300876 140.766424 
L -27.621969 138.749098 
L -20.73953 137.487505 
L -16.641274 139.186026 
L -12.397635 143.940223 
L -2.447144 143.561573 
L -3.442569 140.507463 
L 1.737277 138.418543 
L 6.845371 134.895859 
L 15.014939 138.10005 
L 15.663203 142.938061 
L 17.983041 144.179914 
L 24.538685 143.900744 
L 26.573087 145.001289 
L 29.55341 151.252227 
L 40.442615 158.29446 
L 46.78332 161.26366 
L 54.848238 163.858752 
L 54.681237 167.568802 
L 52.854881 167.380809 
L 49.994561 165.759679 
L 49.044568 167.917844 
L 43.93428 169.090452 
L 42.723916 173.939429 
L 39.306822 175.783332 
L 34.520823 176.697606 
L 33.254374 179.444973 
L 28.682687 180.253658 
L 22.49927 177.953246 
L 21.967249 172.850948 
L 17.447573 172.633972 
L 10.518136 167.26441 
L 5.676052 166.601576 
L -1.028107 163.52804 
L -5.339422 162.96923 
L -8.001096 164.0986 
L -12.056114 163.922827 
L -16.368683 167.389112 
L -21.696417 168.562348 
L -22.824691 164.274374 
L -21.943001 157.932573 
L -26.671663 155.880311 
L -25.114764 151.72879 
L -29.139703 151.375049 
L -27.798057 146.264448 
L -22.081177 147.752886 
L -16.753443 145.812794 
L -21.170662 142.173711 
L -22.908348 138.705702 
L -27.78897 140.252262 
L -28.407782 144.695016 
z
" clip-path="url(#p495d92429e)" style="fill: #e8edf4; stroke: #b8c5d4; stroke-width: 0.45"/>
    <path d="M -81.190381 155.046247 
L -77.038547 153.319058 
L -76.076334 155.606311 
L -73.014234 158.40522 
L -68.855506 159.211242 
L -66.660057 159.032961 
L -59.509413 154.559814 
L -57.235633 154.11192 
L -55.444369 155.891278 
L -57.534856 158.891026 
L -53.753682 162.065922 
L -52.244721 161.763566 
L -50.326561 166.234362 
L -44.577723 167.497365 
L -40.366357 170.539568 
L -31.746545 171.584812 
L -22.277316 169.980445 
L -21.696417 168.562348 
L -16.368683 167.389112 
L -12.056114 163.922827 
L -8.001096 164.0986 
L -5.339422 162.96923 
L -1.028107 163.52804 
L 5.676052 166.601576 
L 10.518136 167.26441 
L 17.447573 172.633972 
L 21.967249 172.850948 
L 22.49927 177.953246 
L 18.361848 189.919654 
L 21.000962 190.814659 
L 18.40822 194.134623 
L 20.39437 198.97514 
L 20.869054 202.824305 
L 25.461106 203.846363 
L 25.957722 207.74895 
L 20.458601 213.245877 
L 23.46023 216.434872 
L 25.901011 220.096671 
L 31.697161 222.762574 
L 31.864476 228.102527 
L 34.765527 229.08401 
L 35.267156 231.876182 
L 26.521389 235.008152 
L 24.236642 242.051952 
L 6.219353 238.828022 
L -0.622981 238.040173 
L -3.20883 230.605503 
L -6.110822 229.531121 
L -10.769926 230.614433 
L -16.885352 233.548853 
L -24.294486 231.537637 
L -30.415238 226.87822 
L -36.253061 225.151187 
L -40.302126 219.398275 
L -44.776369 211.314558 
L -48.039308 212.297137 
L -51.892547 210.287957 
L -54.156301 212.654481 
L -57.51167 209.467209 
L -57.571515 206.237482 
L -59.50816 206.239206 
L -58.514302 201.847523 
L -61.634052 197.239647 
L -69.063239 193.916237 
L -73.263012 188.153142 
L -71.857761 183.421818 
L -68.806001 181.329294 
L -69.263452 177.787655 
L -73.2392 175.967722 
L -77.167811 168.734956 
L -80.483839 163.877552 
L -79.297601 161.999811 
z
" clip-path="url(#p495d92429e)" style="fill: #e8edf4; stroke: #b8c5d4; stroke-width: 0.45"/>
    <path d="M 134.572801 344.382255 
L 137.317192 334.540329 
L 141.506939 337.909328 
L 144.329346 342.179128 
L 147.26173 348.491791 
L 146.348396 354.805237 
L 143.806098 356.531016 
L 138.533196 357.918094 
L 135.64781 353.097316 
z
" clip-path="url(#p495d92429e)" style="fill: #e8edf4; stroke: #b8c5d4; stroke-width: 0.45"/>
    <path d="M 98.073878 155.027448 
L 99.799658 153.64037 
L 98.964341 152.221803 
L 104.752345 149.357253 
L 108.941778 148.171015 
L 115.359874 148.984243 
L 117.652453 145.112675 
L 125.429741 144.39219 
L 127.591039 141.985561 
L 137.145178 138.701159 
L 137.997415 137.330531 
L 137.513332 133.874115 
L 141.672999 132.29591 
L 136.21555 121.763265 
L 148.22645 119.34097 
L 151.329908 117.991177 
L 155.704828 107.135811 
L 167.732961 109.131047 
L 171.105249 106.390417 
L 171.394759 100.310396 
L 176.430476 99.743909 
L 181.045715 95.707064 
L 183.418192 95.208568 
L 185.010183 99.439047 
L 190.106058 102.654831 
L 198.755322 104.931744 
L 202.938802 109.81503 
L 200.604237 116.899406 
L 202.785587 119.52865 
L 218.156869 121.411874 
L 225.482346 125.190072 
L 229.229055 125.863089 
L 231.991305 131.452603 
L 235.550021 135.05299 
L 242.233814 134.911995 
L 254.748536 136.271344 
L 262.812827 135.427881 
L 268.798224 136.330876 
L 277.767077 140.013667 
L 285.10352 140.00834 
L 287.787753 141.893601 
L 294.847219 138.638181 
L 304.64199 136.533125 
L 313.729591 136.303147 
L 320.814437 134.170205 
L 325.165231 130.922775 
L 329.408869 128.88383 
L 328.427544 126.88264 
L 326.491212 124.552774 
L 329.67394 120.644235 
L 339.318003 122.421869 
L 345.359485 119.202795 
L 354.604374 116.853817 
L 359.047286 112.846267 
L 363.314736 111.121114 
L 372.122228 110.316659 
L 376.905721 111.000172 
L 377.569964 108.845454 
L 372.07523 104.607299 
L 367.20996 102.669087 
L 362.549603 104.906522 
L 356.567966 103.962482 
L 353.135519 104.731688 
L 351.57392 102.252838 
L 358.810414 91.62322 
L 366.088892 93.912353 
L 374.633193 90.081047 
L 374.578196 87.413032 
L 380.051348 80.982265 
L 383.423192 79.038659 
L 383.347942 75.691091 
L 380.021085 74.250121 
L 385.02923 71.23361 
L 392.563693 70.140272 
L 400.601755 69.976118 
L 409.676734 71.781455 
L 415.001021 74.01419 
L 423.132363 86.461861 
L 425.375394 92.400889 
L 435.927822 94.339098 
L 443.109484 98.649474 
L 445.564861 104.346159 
L 454.777405 104.353253 
L 460.033591 101.961448 
L 470.054267 100.174101 
L 466.868069 105.629608 
L 464.512775 107.848542 
L 462.434894 114.491053 
L 458.357275 120.389517 
L 450.998628 119.315904 
L 445.794836 121.457421 
L 447.391661 126.650154 
L 446.519371 133.813957 
L 443.422179 133.977511 
L 443.459367 137.057537 
L 439.544189 133.478075 
L 437.133486 136.8759 
L 427.769221 139.487285 
L 428.716394 142.68568 
L 423.473884 142.465101 
L 420.595705 140.564801 
L 416.430084 144.864994 
L 409.747858 148.124016 
L 404.810524 152.012503 
L 396.333901 153.775098 
L 391.87031 156.608629 
L 385.341299 158.263755 
L 388.563506 155.454193 
L 387.294864 153.093152 
L 392.095902 149.017612 
L 388.893121 145.840836 
L 383.607686 147.981141 
L 376.762219 152.19705 
L 373.026476 156.11217 
L 367.080244 156.40356 
L 363.987753 159.232861 
L 367.183014 163.332527 
L 372.145414 164.327796 
L 372.348447 167.049314 
L 377.145412 168.820212 
L 383.940121 164.49088 
L 389.322999 166.851294 
L 393.243916 167.012812 
L 394.226494 170.189117 
L 385.642088 171.882468 
L 382.809654 175.155904 
L 376.913554 178.19748 
L 373.801009 182.441275 
L 380.326888 185.773145 
L 382.708764 191.736923 
L 386.399075 197.293225 
L 390.516758 201.950606 
L 390.418374 206.454458 
L 386.612761 208.11021 
L 388.063443 211.34401 
L 391.632185 213.225981 
L 390.700365 218.164412 
L 389.160385 222.969524 
L 385.77243 223.514235 
L 376.43417 238.034846 
L 370.803767 245.270556 
L 354.032248 255.969105 
L 347.199627 256.665151 
L 343.493337 259.359097 
L 341.396897 257.391119 
L 337.966957 260.40434 
L 329.49378 263.441217 
L 323.078191 264.371001 
L 321.00807 270.774371 
L 317.648001 271.129522 
L 316.058203 266.729066 
L 317.49416 264.383691 
L 309.359371 262.442502 
L 306.493725 263.429781 
L 300.389578 261.856276 
L 297.502626 259.392779 
L 298.461392 255.900018 
L 292.91872 254.792737 
L 289.996049 252.518016 
L 284.82811 255.749153 
L 278.932636 256.448802 
L 274.097132 256.418253 
L 267.700656 258.7865 
L 268.61681 265.721734 
L 265.384577 265.5563 
L 264.657042 261.625357 
L 260.209744 263.390616 
L 253.081661 259.998431 
L 254.846605 254.961617 
L 251.007153 253.787285 
L 249.56117 248.20576 
L 243.161248 249.211525 
L 243.888156 242.01921 
L 249.631355 236.956077 
L 249.697152 227.314992 
L 247.050832 225.869479 
L 245.024263 222.299954 
L 241.47808 222.750825 
L 234.940295 221.844696 
L 236.98817 219.298482 
L 234.145083 215.528274 
L 229.822801 218.081381 
L 224.736953 216.591533 
L 217.748297 220.452605 
L 212.229437 224.962097 
L 207.339728 225.720807 
L 204.685261 224.090591 
L 201.481853 223.943016 
L 197.148605 222.539489 
L 193.874386 224.077588 
L 189.863233 228.5852 
L 189.354397 223.810168 
L 185.656567 225.08539 
L 178.587388 224.492897 
L 171.728761 223.102529 
L 166.807406 220.439602 
L 162.095978 219.244434 
L 160.061263 216.332103 
L 156.654508 215.462006 
L 150.533129 211.511638 
L 145.672246 209.647526 
L 143.158774 211.098052 
L 134.731656 206.858487 
L 128.774771 203.019348 
L 127.07437 196.336182 
L 131.425791 197.150977 
L 131.624438 194.055039 
L 129.212482 190.951894 
L 129.825967 186.005944 
L 123.309175 178.899479 
L 113.337691 176.447575 
L 111.543294 171.788628 
L 107.063411 168.961834 
L 105.984015 167.221955 
L 105.07444 163.765852 
L 105.285619 161.408258 
L 101.603455 160.027916 
L 99.610725 160.638425 
z
" clip-path="url(#p495d92429e)" style="fill: #e8edf4; stroke: #b8c5d4; stroke-width: 0.45"/>
    <path d="M 309.986329 276.674701 
L 312.974485 273.927177 
L 319.598746 272.228186 
L 323.084771 272.372001 
L 324.43989 274.68573 
L 321.77571 277.353827 
L 320.372339 280.855205 
L 315.133902 283.769729 
L 310.162103 281.890265 
z
" clip-path="url(#p495d92429e)" style="fill: #e8edf4; stroke: #b8c5d4; stroke-width: 0.45"/>
    <path d="M 379.591207 251.279923 
L 383.159322 245.324761 
L 388.012059 240.734902 
L 390.778068 242.540892 
L 386.075413 255.920697 
L 383.477031 260.89422 
L 380.281769 255.775159 
z
" clip-path="url(#p495d92429e)" style="fill: #e8edf4; stroke: #b8c5d4; stroke-width: 0.45"/>
    <path d="M 378.242667 294.88954 
L 380.684388 296.884777 
L 381.312286 287.399256 
L 383.287784 281.905148 
L 386.958669 281.912198 
L 390.695351 283.643304 
L 392.565259 282.064472 
L 393.116707 283.604922 
L 392.130368 286.118707 
L 394.200175 290.464645 
L 392.603485 295.503495 
L 389.029103 297.512988 
L 388.072843 302.401131 
L 389.429529 307.230055 
L 392.64359 307.898058 
L 395.325629 307.18055 
L 402.898631 310.542029 
L 402.321491 313.842567 
L 404.299182 315.299202 
L 403.669404 318.093411 
L 398.943876 315.117319 
L 396.704248 311.93177 
L 395.144216 314.157456 
L 391.283771 310.527773 
L 385.776817 311.423875 
L 382.758896 310.084108 
L 383.066578 307.577843 
L 384.960925 306.035513 
L 383.151175 304.633239 
L 382.367869 306.818349 
L 379.374388 303.334518 
L 378.467946 300.69415 
z
" clip-path="url(#p495d92429e)" style="fill: #e8edf4; stroke: #b8c5d4; stroke-width: 0.45"/>
    <path d="M 390.588195 350.498307 
L 392.967565 345.388019 
L 396.787591 343.682606 
L 400.093769 341.398172 
L 402.236894 344.142876 
L 406.846806 342.482581 
L 407.835965 339.776886 
L 412.121275 339.615681 
L 411.761894 334.926812 
L 416.676669 337.802328 
L 418.584802 350.514913 
L 416.519381 356.063226 
L 414.304192 349.882316 
L 411.469251 352.957731 
L 413.40527 357.425238 
L 411.667271 360.266759 
L 404.532607 356.747992 
L 402.828447 352.359599 
L 404.677362 349.47672 
L 400.836656 346.60935 
L 398.93197 349.123449 
L 396.078856 348.890024 
L 391.59208 352.272965 
z
" clip-path="url(#p495d92429e)" style="fill: #e8edf4; stroke: #b8c5d4; stroke-width: 0.45"/>
    <path d="M 404.817417 317.965576 
L 410.6402 318.099208 
L 412.310208 320.360925 
L 414.013429 327.130882 
L 409.335212 325.522128 
L 409.461795 327.557157 
L 410.945376 331.298696 
L 408.061557 332.657105 
L 407.809019 328.392788 
L 405.983603 328.077899 
L 405.034236 324.407014 
L 408.602351 324.890783 
L 408.523394 322.595227 
z
" clip-path="url(#p495d92429e)" style="fill: #e8edf4; stroke: #b8c5d4; stroke-width: 0.45"/>
    <path d="M 393.378017 335.211622 
L 396.149041 331.890249 
L 396.817984 328.126777 
L 400.161447 327.770529 
L 399.184821 331.852493 
L 403.672537 325.999475 
L 403.093517 331.783406 
L 400.9153 333.776293 
L 399.01594 337.607128 
L 397.11188 339.402309 
z
" clip-path="url(#p495d92429e)" style="fill: #e8edf4; stroke: #b8c5d4; stroke-width: 0.45"/>
    <path d="M 390.367616 322.003675 
L 394.007169 323.880632 
L 397.865734 323.871702 
L 397.748238 326.404444 
L 394.940243 328.979014 
L 391.089511 330.79973 
L 390.875825 327.982335 
L 391.30633 324.889217 
z
" clip-path="url(#p495d92429e)" style="fill: #e8edf4; stroke: #b8c5d4; stroke-width: 0.45"/>
    <path d="M 361.814549 343.37179 
L 364.786725 339.131285 
L 369.166971 335.386613 
L 372.807464 331.192166 
L 375.985493 325.16917 
L 377.065828 330.112927 
L 373.062822 333.451534 
L 369.880406 337.618565 
z
" clip-path="url(#p495d92429e)" style="fill: #e8edf4; stroke: #b8c5d4; stroke-width: 0.45"/>
    <path d="M 380.908414 312.456272 
L 386.102672 312.678888 
L 388.208198 314.862274 
L 386.600228 320.101024 
z
" clip-path="url(#p495d92429e)" style="fill: #e8edf4; stroke: #b8c5d4; stroke-width: 0.45"/>
    <path d="M 316.274082 381.939737 
L 320.71762 384.017534 
L 325.40273 382.884561 
L 326.622807 377.751087 
L 329.21085 376.607617 
L 336.478675 375.294953 
L 343.805406 366.664175 
L 346.567656 369.806328 
L 347.840684 367.740751 
L 350.73829 367.932817 
L 351.364308 361.074817 
L 356.033124 356.858125 
L 359.091151 352.119281 
L 361.543838 352.099385 
L 364.658889 355.166654 
L 364.935866 357.802165 
L 373.987123 361.316702 
L 373.555365 363.691686 
L 369.487187 363.992475 
L 370.570029 366.953215 
L 366.105812 369.018636 
L 360.850142 367.996735 
L 353.879346 367.993915 
L 351.778833 374.88967 
L 349.444268 376.998173 
L 346.335797 385.430775 
L 341.391257 386.723073 
L 335.655264 385.023926 
L 332.747633 385.555477 
L 329.21461 388.621493 
L 325.343825 388.184722 
L 321.432622 389.417645 
L 317.286427 385.991935 
z
" clip-path="url(#p495d92429e)" style="fill: #e8edf4; stroke: #b8c5d4; stroke-width: 0.45"/>
    <path d="M 258.204168 354.910043 
L 259.258184 353.828767 
L 264.205231 356.484175 
L 264.682421 359.597502 
L 268.684488 358.873414 
L 270.666565 356.382501 
L 272.06085 356.948988 
L 275.641498 360.609377 
L 278.185049 364.668625 
L 278.532837 368.751529 
L 277.887392 371.509705 
L 278.920103 377.182877 
L 281.055708 378.853668 
L 283.440091 384.215397 
L 283.324162 386.265309 
L 279.024753 386.669808 
L 266.115871 377.366014 
L 265.405883 374.276969 
L 261.900745 370.221637 
L 261.063861 365.200489 
L 258.876871 361.894782 
L 259.541115 357.480383 
z
" clip-path="url(#p495d92429e)" style="fill: #e8edf4; stroke: #b8c5d4; stroke-width: 0.45"/>
    <path d="M 343.805406 366.664175 
L 346.206082 364.395721 
L 351.364308 361.074817 
L 350.73829 367.932817 
L 347.840684 367.740751 
L 346.567656 369.806328 
z
" clip-path="url(#p495d92429e)" style="fill: #e8edf4; stroke: #b8c5d4; stroke-width: 0.45"/>
    <path d="M 435.992366 192.226019 
L 441.724912 190.357992 
L 444.905134 186.546738 
L 451.003328 183.412261 
L 455.450312 179.267006 
L 467.519803 177.458823 
L 474.002756 178.69864 
L 480.346594 167.919253 
L 484.389392 170.814979 
L 496.732727 162.39585 
L 500.542727 154.981546 
L 499.503437 148.163495 
L 502.064534 144.333442 
L 508.510828 143.220521 
L 511.817006 151.62978 
L 511.637159 156.545495 
L 506.028062 162.650268 
L 506.130518 168.907002 
L 503.847025 173.745953 
L 504.903861 176.78424 
L 501.746198 181.05733 
L 493.99899 183.910131 
L 483.340389 184.281888 
L 474.702718 191.202865 
L 470.628274 188.873 
L 470.376363 184.340949 
L 459.831812 185.678522 
L 452.65579 188.534299 
L 445.558098 188.650541 
L 451.705483 193.111625 
L 447.659865 203.416798 
L 443.740202 205.968025 
L 440.806251 203.611528 
L 442.293279 198.147186 
L 438.455393 196.383807 
z
" clip-path="url(#p495d92429e)" style="fill: #e8edf4; stroke: #b8c5d4; stroke-width: 0.45"/>
    <path d="M 499.104264 136.034473 
L 502.102759 131.368789 
L 508.581013 131.031968 
L 510.347837 122.644798 
L 512.140668 117.919427 
L 519.266245 124.231932 
L 528.18246 127.563489 
L 532.47153 124.993619 
L 533.819443 131.800391 
L 524.824897 133.460059 
L 519.51471 139.481645 
L 509.98125 135.337017 
L 506.681652 141.971305 
L 499.938328 142.062482 
z
" clip-path="url(#p495d92429e)" style="fill: #e8edf4; stroke: #b8c5d4; stroke-width: 0.45"/>
    <path d="M 453.906886 194.085431 
L 453.955764 191.209915 
L 457.30988 187.592295 
L 460.757366 188.293667 
L 463.250159 185.74526 
L 467.70247 187.053067 
L 468.478256 189.132118 
L 465.064922 192.801279 
L 462.576203 190.856174 
L 459.467731 192.265341 
L 457.858508 195.812307 
z
" clip-path="url(#p495d92429e)" style="fill: #e8edf4; stroke: #b8c5d4; stroke-width: 0.45"/>
   </g>
   <g id="PathCollection_1">
    <defs>
     <path id="m76e1f479ca" d="M 0 2.12132 
C 0.562581 2.12132 1.102195 1.897805 1.5 1.5 
C 1.897805 1.102195 2.12132 0.562581 2.12132 0 
C 2.12132 -0.562581 1.897805 -1.102195 1.5 -1.5 
C 1.102195 -1.897805 0.562581 -2.12132 0 -2.12132 
C -0.562581 -2.12132 -1.102195 -1.897805 -1.5 -1.5 
C -1.897805 -1.102195 -2.12132 -0.562581 -2.12132 0 
C -2.12132 0.562581 -1.897805 1.102195 -1.5 1.5 
C -1.102195 1.897805 -0.562581 2.12132 0 2.12132 
z
" style="stroke: #ffffff; stroke-width: 0.5"/>
    </defs>
    <g clip-path="url(#p495d92429e)">
     <use xlink:href="#m76e1f479ca" x="200.084211" y="227.368421" style="fill: #8aa0b7; stroke: #ffffff; stroke-width: 0.5"/>
     <use xlink:href="#m76e1f479ca" x="529.212632" y="312.454737" style="fill: #8aa0b7; stroke: #ffffff; stroke-width: 0.5"/>
     <use xlink:href="#m76e1f479ca" x="343.578947" y="259.2" style="fill: #8aa0b7; stroke: #ffffff; stroke-width: 0.5"/>
     <use xlink:href="#m76e1f479ca" x="142.484211" y="351.663158" style="fill: #8aa0b7; stroke: #ffffff; stroke-width: 0.5"/>
     <use xlink:href="#m76e1f479ca" x="339.84" y="259.705263" style="fill: #8aa0b7; stroke: #ffffff; stroke-width: 0.5"/>
     <use xlink:href="#m76e1f479ca" x="535.073684" y="301.945263" style="fill: #8aa0b7; stroke: #ffffff; stroke-width: 0.5"/>
     <use xlink:href="#m76e1f479ca" x="466.863158" y="348.631579" style="fill: #8aa0b7; stroke: #ffffff; stroke-width: 0.5"/>
     <use xlink:href="#m76e1f479ca" x="385.010526" y="251.621053" style="fill: #8aa0b7; stroke: #ffffff; stroke-width: 0.5"/>
    </g>
   </g>
   <g id="PatchCollection_2">
    <path d="M 98.073878 155.027448 
L 99.799658 153.64037 
L 98.964341 152.221803 
L 104.752345 149.357253 
L 108.941778 148.171015 
L 115.359874 148.984243 
L 117.652453 145.112675 
L 125.429741 144.39219 
L 127.591039 141.985561 
L 137.145178 138.701159 
L 137.997415 137.330531 
L 137.513332 133.874115 
L 141.672999 132.29591 
L 136.21555 121.763265 
L 148.22645 119.34097 
L 151.329908 117.991177 
L 155.704828 107.135811 
L 167.732961 109.131047 
L 171.105249 106.390417 
L 171.394759 100.310396 
L 176.430476 99.743909 
L 181.045715 95.707064 
L 183.418192 95.208568 
L 185.010183 99.439047 
L 190.106058 102.654831 
L 198.755322 104.931744 
L 202.938802 109.81503 
L 200.604237 116.899406 
L 202.785587 119.52865 
L 218.156869 121.411874 
L 225.482346 125.190072 
L 229.229055 125.863089 
L 231.991305 131.452603 
L 235.550021 135.05299 
L 242.233814 134.911995 
L 254.748536 136.271344 
L 262.812827 135.427881 
L 268.798224 136.330876 
L 277.767077 140.013667 
L 285.10352 140.00834 
L 287.787753 141.893601 
L 294.847219 138.638181 
L 304.64199 136.533125 
L 313.729591 136.303147 
L 320.814437 134.170205 
L 325.165231 130.922775 
L 329.408869 128.88383 
L 328.427544 126.88264 
L 326.491212 124.552774 
L 329.67394 120.644235 
L 339.318003 122.421869 
L 345.359485 119.202795 
L 354.604374 116.853817 
L 359.047286 112.846267 
L 363.314736 111.121114 
L 372.122228 110.316659 
L 376.905721 111.000172 
L 377.569964 108.845454 
L 372.07523 104.607299 
L 367.20996 102.669087 
L 362.549603 104.906522 
L 356.567966 103.962482 
L 353.135519 104.731688 
L 351.57392 102.252838 
L 358.810414 91.62322 
L 366.088892 93.912353 
L 374.633193 90.081047 
L 374.578196 87.413032 
L 380.051348 80.982265 
L 383.423192 79.038659 
L 383.347942 75.691091 
L 380.021085 74.250121 
L 385.02923 71.23361 
L 392.563693 70.140272 
L 400.601755 69.976118 
L 409.676734 71.781455 
L 415.001021 74.01419 
L 423.132363 86.461861 
L 425.375394 92.400889 
L 435.927822 94.339098 
L 443.109484 98.649474 
L 445.564861 104.346159 
L 454.777405 104.353253 
L 460.033591 101.961448 
L 470.054267 100.174101 
L 466.868069 105.629608 
L 464.512775 107.848542 
L 462.434894 114.491053 
L 458.357275 120.389517 
L 450.998628 119.315904 
L 445.794836 121.457421 
L 447.391661 126.650154 
L 446.519371 133.813957 
L 443.422179 133.977511 
L 443.459367 137.057537 
L 439.544189 133.478075 
L 437.133486 136.8759 
L 427.769221 139.487285 
L 428.716394 142.68568 
L 423.473884 142.465101 
L 420.595705 140.564801 
L 416.430084 144.864994 
L 409.747858 148.124016 
L 404.810524 152.012503 
L 396.333901 153.775098 
L 391.87031 156.608629 
L 385.341299 158.263755 
L 388.563506 155.454193 
L 387.294864 153.093152 
L 392.095902 149.017612 
L 388.893121 145.840836 
L 383.607686 147.981141 
L 376.762219 152.19705 
L 373.026476 156.11217 
L 367.080244 156.40356 
L 363.987753 159.232861 
L 367.183014 163.332527 
L 372.145414 164.327796 
L 372.348447 167.049314 
L 377.145412 168.820212 
L 383.940121 164.49088 
L 389.322999 166.851294 
L 393.243916 167.012812 
L 394.226494 170.189117 
L 385.642088 171.882468 
L 382.809654 175.155904 
L 376.913554 178.19748 
L 373.801009 182.441275 
L 380.326888 185.773145 
L 382.708764 191.736923 
L 386.399075 197.293225 
L 390.516758 201.950606 
L 390.418374 206.454458 
L 386.612761 208.11021 
L 388.063443 211.34401 
L 391.632185 213.225981 
L 390.700365 218.164412 
L 389.160385 222.969524 
L 385.77243 223.514235 
L 376.43417 238.034846 
L 370.803767 245.270556 
L 354.032248 255.969105 
L 347.199627 256.665151 
L 343.493337 259.359097 
L 341.396897 257.391119 
L 337.966957 260.40434 
L 329.49378 263.441217 
L 323.078191 264.371001 
L 321.00807 270.774371 
L 317.648001 271.129522 
L 316.058203 266.729066 
L 317.49416 264.383691 
L 309.359371 262.442502 
L 306.493725 263.429781 
L 300.389578 261.856276 
L 297.502626 259.392779 
L 298.461392 255.900018 
L 292.91872 254.792737 
L 289.996049 252.518016 
L 284.82811 255.749153 
L 278.932636 256.448802 
L 274.097132 256.418253 
L 267.700656 258.7865 
L 268.61681 265.721734 
L 265.384577 265.5563 
L 264.657042 261.625357 
L 260.209744 263.390616 
L 253.081661 259.998431 
L 254.846605 254.961617 
L 251.007153 253.787285 
L 249.56117 248.20576 
L 243.161248 249.211525 
L 243.888156 242.01921 
L 249.631355 236.956077 
L 249.697152 227.314992 
L 247.050832 225.869479 
L 245.024263 222.299954 
L 241.47808 222.750825 
L 234.940295 221.844696 
L 236.98817 219.298482 
L 234.145083 215.528274 
L 229.822801 218.081381 
L 224.736953 216.591533 
L 217.748297 220.452605 
L 212.229437 224.962097 
L 207.339728 225.720807 
L 204.685261 224.090591 
L 201.481853 223.943016 
L 197.148605 222.539489 
L 193.874386 224.077588 
L 189.863233 228.5852 
L 189.354397 223.810168 
L 185.656567 225.08539 
L 178.587388 224.492897 
L 171.728761 223.102529 
L 166.807406 220.439602 
L 162.095978 219.244434 
L 160.061263 216.332103 
L 156.654508 215.462006 
L 150.533129 211.511638 
L 145.672246 209.647526 
L 143.158774 211.098052 
L 134.731656 206.858487 
L 128.774771 203.019348 
L 127.07437 196.336182 
L 131.425791 197.150977 
L 131.624438 194.055039 
L 129.212482 190.951894 
L 129.825967 186.005944 
L 123.309175 178.899479 
L 113.337691 176.447575 
L 111.543294 171.788628 
L 107.063411 168.961834 
L 105.984015 167.221955 
L 105.07444 163.765852 
L 105.285619 161.408258 
L 101.603455 160.027916 
L 99.610725 160.638425 
z
" clip-path="url(#p495d92429e)" style="fill: #f59e0b; stroke: #b45309; stroke-width: 1.15"/>
    <path d="M 309.986329 276.674701 
L 312.974485 273.927177 
L 319.598746 272.228186 
L 323.084771 272.372001 
L 324.43989 274.68573 
L 321.77571 277.353827 
L 320.372339 280.855205 
L 315.133902 283.769729 
L 310.162103 281.890265 
z
" clip-path="url(#p495d92429e)" style="fill: #f59e0b; stroke: #b45309; stroke-width: 1.15"/>
   </g>
   <g id="PathCollection_2">
    <path d="M 288 186.029951 
C 289.096672 186.029951 290.148574 185.594239 290.924038 184.818775 
C 291.699502 184.043311 292.135215 182.991409 292.135215 181.894737 
C 292.135215 180.798065 291.699502 179.746163 290.924038 178.970699 
C 290.148574 178.195235 289.096672 177.759522 288 177.759522 
C 286.903328 177.759522 285.851426 178.195235 285.075962 178.970699 
C 284.300498 179.746163 283.864785 180.798065 283.864785 181.894737 
C 283.864785 182.991409 284.300498 184.043311 285.075962 184.818775 
C 285.851426 185.594239 286.903328 186.029951 288 186.029951 
L 288 186.029951 
z
" clip-path="url(#p495d92429e)" style="fill: none; stroke: #7c2d12; stroke-width: 1.1"/>
   </g>
  </g>
 </g>
 <defs>
  <clipPath id="p495d92429e">
   <rect x="0" y="0" width="576" height="363.789474"/>
  </clipPath>
 </defs>
</svg>
