<?xml version="1.0" encoding="utf-8" standalone="no"?>
<!DOCTYPE svg PUBLIC "-//W3C//DTD SVG 1.1//EN"
  "http://www.w3.org/Graphics/SVG/1.1/DTD/svg11.dtd">
<svg xmlns:xlink="http://www.w3.org/1999/xlink" width="373.090909pt" height="432pt" viewBox="0 0 373.090909 432" xmlns="http://www.w3.org/2000/svg" version="1.1">
 <metadata>
  <rdf:RDF xmlns:dc="http://purl.org/dc/elements/1.1/" xmlns:cc="http://creativecommons.org/ns#" xmlns:rdf="http://www.w3.org/1999/02/22-rdf-syntax-ns#">
   <cc:Work>
    <dc:type rdf:resource="http://purl.org/dc/dcmitype/StillImage"/>
    <dc:date>2026-06-09T04:57:20.965681</dc:date>
    <dc:format>image/svg+xml</dc:format>
    <dc:creator>
     <cc:Agent>
      <dc:title>Matplotlib v3.10.8, https://matplotlib.org/</dc:title>
     </cc:Agent>
    </dc:creator>
   </cc:Work>
  </rdf:RDF>
 </metadata>
 <defs>
  <style type="text/css">*{stroke-linejoin: round; stroke-linecap: butt}</style>
 </defs>
 <g id="figure_1">
  <g id="patch_1">
   <path d="M 0 432 
L 373.090909 432 
L 373.090909 0 
L 0 0 
z
" style="fill: #eaf3ff"/>
  </g>
  <g id="axes_1">
   <g id="PatchCollection_1">
    <path d="M 319.778967 406.956764 
L 327.355265 400.211476 
L 336.28392 402.639905 
L 341.154327 399.402065 
L 347.918269 405.067942 
L 344.671396 415.320676 
L 332.495869 418.018713 
L 321.672305 415.590284 
z
" clip-path="url(#pbc861f8f28)" style="fill: #e8edf4; stroke: #b8c5d4; stroke-width: 0.45"/>
    <path d="M 345.537922 385.641491 
L 361.574366 380.534157 
L 373.090909 374.40915 
L 373.090909 383.993343 
L 348.055711 392.963727 
z
" clip-path="url(#pbc861f8f28)" style="fill: #e8edf4; stroke: #b8c5d4; stroke-width: 0.45"/>
    <path d="M -6696 383.993343 
L -6696 374.40915 
L -6691.941559 373.500961 
L -6694.377435 382.944105 
z
" clip-path="url(#pbc861f8f28)" style="fill: #e8edf4; stroke: #b8c5d4; stroke-width: 0.45"/>
    <path d="M 110.535781 346.120306 
L 119.933262 352.156978 
L 123.120552 367.985864 
L 117.841889 365.523097 
L 113.756557 366.587556 
L 110.942691 361.165815 
z
" clip-path="url(#pbc861f8f28)" style="fill: #e8edf4; stroke: #b8c5d4; stroke-width: 0.45"/>
    <path d="M 121.35288 376.232633 
L 122.075373 370.967162 
L 134.408489 382.247995 
L 127.934465 384.830502 
z
" clip-path="url(#pbc861f8f28)" style="fill: #e8edf4; stroke: #b8c5d4; stroke-width: 0.45"/>
    <path d="M -26.705398 248.203239 
L -25.469448 240.407013 
L -12.509224 243.496888 
L -6.11638 247.617735 
L -2.901692 252.777674 
L -10.552811 253.215026 
L -22.592668 251.22817 
z
" clip-path="url(#pbc861f8f28)" style="fill: #e8edf4; stroke: #b8c5d4; stroke-width: 0.45"/>
    <path d="M -8.247328 222.283806 
L -1.570357 222.283806 
L 5.498302 237.992953 
L 13.352368 247.417832 
L 10.395424 251.0374 
L -4.157937 234.017212 
z
" clip-path="url(#pbc861f8f28)" style="fill: #e8edf4; stroke: #b8c5d4; stroke-width: 0.45"/>
    <path d="M -54.762882 204.647673 
L -51.840439 202.647626 
L -26.705398 216.393256 
L -22.090373 222.623743 
L -21.258289 226.570056 
L -36.647793 218.242108 
z
" clip-path="url(#pbc861f8f28)" style="fill: #e8edf4; stroke: #b8c5d4; stroke-width: 0.45"/>
    <path d="M -88.533336 191.767614 
L -87.522658 188.496101 
L -67.972731 203.193555 
L -71.880484 204.311795 
L -80.46922 199.836804 
z
" clip-path="url(#pbc861f8f28)" style="fill: #e8edf4; stroke: #b8c5d4; stroke-width: 0.45"/>
    <path d="M 6.27965 259.293302 
L 21.973576 264.751573 
L 27.464319 271.499576 
L 13.746086 271.374763 
z
" clip-path="url(#pbc861f8f28)" style="fill: #e8edf4; stroke: #b8c5d4; stroke-width: 0.45"/>
   </g>
   <g id="PathCollection_1">
    <defs>
     <path id="m9e99d7237d" d="M 0 2.12132 
C 0.562581 2.12132 1.102195 1.897805 1.5 1.5 
C 1.897805 1.102195 2.12132 0.562581 2.12132 0 
C 2.12132 -0.562581 1.897805 -1.102195 1.5 -1.5 
C 1.102195 -1.897805 0.562581 -2.12132 0 -2.12132 
C -0.562581 -2.12132 -1.102195 -1.897805 -1.5 -1.5 
C -1.897805 -1.102195 -2.12132 -0.562581 -2.12132 0 
C -2.12132 0.562581 -1.897805 1.102195 -1.5 1.5 
C -1.102195 1.897805 -0.562581 2.12132 0 2.12132 
z
" style="stroke: #ffffff; stroke-width: 0.5"/>
    </defs>
    <g clip-path="url(#pbc861f8f28)">
     <use xlink:href="#m9e99d7237d" x="235.636364" y="31.090909" style="fill: #8aa0b7; stroke: #ffffff; stroke-width: 0.5"/>
     <use xlink:href="#m9e99d7237d" x="116.181818" y="69.381818" style="fill: #8aa0b7; stroke: #ffffff; stroke-width: 0.5"/>
     <use xlink:href="#m9e99d7237d" x="333.818182" y="216" style="fill: #8aa0b7; stroke: #ffffff; stroke-width: 0.5"/>
     <use xlink:href="#m9e99d7237d" x="117.818182" y="373.090909" style="fill: #8aa0b7; stroke: #ffffff; stroke-width: 0.5"/>
    </g>
   </g>
   <g id="PathCollection_2">
    <defs>
     <path id="m89445fa0ba" d="M 0 3.674235 
C 0.974418 3.674235 1.909058 3.287094 2.598076 2.598076 
C 3.287094 1.909058 3.674235 0.974418 3.674235 0 
C 3.674235 -0.974418 3.287094 -1.909058 2.598076 -2.598076 
C 1.909058 -3.287094 0.974418 -3.674235 0 -3.674235 
C -0.974418 -3.674235 -1.909058 -3.287094 -2.598076 -2.598076 
C -3.287094 -1.909058 -3.674235 -0.974418 -3.674235 0 
C -3.674235 0.974418 -3.287094 1.909058 -2.598076 2.598076 
C -1.909058 3.287094 -0.974418 3.674235 0 3.674235 
z
" style="stroke: #ffffff; stroke-width: 1.2"/>
    </defs>
    <g clip-path="url(#pbc861f8f28)">
     <use xlink:href="#m89445fa0ba" x="333.818182" y="216" style="fill: #f97316; stroke: #ffffff; stroke-width: 1.2"/>
    </g>
   </g>
   <g id="PathCollection_3">
    <path d="M 333.818182 220.929503 
C 335.125501 220.929503 336.379452 220.410099 337.303867 219.485685 
C 338.228281 218.561271 338.747685 217.307319 338.747685 216 
C 338.747685 214.692681 338.228281 213.438729 337.303867 212.514315 
C 336.379452 211.589901 335.125501 211.070497 333.818182 211.070497 
C 332.510862 211.070497 331.256911 211.589901 330.332497 212.514315 
C 329.408082 213.438729 328.888679 214.692681 328.888679 216 
C 328.888679 217.307319 329.408082 218.561271 330.332497 219.485685 
C 331.256911 220.410099 332.510862 220.929503 333.818182 220.929503 
L 333.818182 220.929503 
z
" clip-path="url(#pbc861f8f28)" style="fill: none; stroke: #7c2d12; stroke-width: 1.1"/>
   </g>
  </g>
 </g>
 <defs>
  <clipPath id="pbc861f8f28">
   <rect x="0" y="0" width="373.090909" height="432"/>
  </clipPath>
 </defs>
</svg>
