<?xml version="1.0" encoding="utf-8" standalone="no"?>
<!DOCTYPE svg PUBLIC "-//W3C//DTD SVG 1.1//EN"
  "http://www.w3.org/Graphics/SVG/1.1/DTD/svg11.dtd">
<svg xmlns:xlink="http://www.w3.org/1999/xlink" width="576pt" height="362.397209pt" viewBox="0 0 576 362.397209" xmlns="http://www.w3.org/2000/svg" version="1.1">
 <metadata>
  <rdf:RDF xmlns:dc="http://purl.org/dc/elements/1.1/" xmlns:cc="http://creativecommons.org/ns#" xmlns:rdf="http://www.w3.org/1999/02/22-rdf-syntax-ns#">
   <cc:Work>
    <dc:type rdf:resource="http://purl.org/dc/dcmitype/StillImage"/>
    <dc:date>2026-06-09T04:57:06.196748</dc:date>
    <dc:format>image/svg+xml</dc:format>
    <dc:creator>
     <cc:Agent>
      <dc:title>Matplotlib v3.10.8, https://matplotlib.org/</dc:title>
     </cc:Agent>
    </dc:creator>
   </cc:Work>
  </rdf:RDF>
 </metadata>
 <defs>
  <style type="text/css">*{stroke-linejoin: round; stroke-linecap: butt}</style>
 </defs>
 <g id="figure_1">
  <g id="patch_1">
   <path d="M 0 362.397209 
L 576 362.397209 
L 576 0 
L 0 0 
z
" style="fill: #eaf3ff"/>
  </g>
  <g id="axes_1">
   <g id="PatchCollection_1">
    <path d="M -287.423631 -318.840725 
L -285.598701 -321.78333 
L -263.80814 -316.664338 
L -255.782059 -302.439683 
L -252.054717 -306.417764 
L -254.465676 -318.773927 
L -259.588963 -331.13009 
L 157.520889 -331.13009 
L 157.565786 -336.920157 
L 162.666621 -336.992486 
L 165.342483 -328.719131 
L 170.026674 -326.168638 
L 195.93152 -322.84242 
L 210.547956 -318.171187 
L 222.753434 -320.130091 
L 241.287678 -316.212284 
L 246.216318 -316.360079 
L 259.699653 -320.62611 
L 312.470026 -299.487514 
L 313.929283 -295.524782 
L 317.477754 -294.041775 
L 316.556297 -292.548725 
L 320.597667 -292.084164 
L 323.529701 -293.643087 
L 324.287168 -290.07476 
L 327.317229 -287.68653 
L 331.455555 -287.68653 
L 333.664297 -285.844549 
L 331.806353 -283.16548 
L 347.506606 -276.092676 
L 353.734147 -249.324571 
L 349.328758 -240.417774 
L 338.9315 -226.856132 
L 338.599998 -225.284203 
L 340.290525 -223.131137 
L 345.409605 -220.754977 
L 349.188957 -220.754977 
L 366.691479 -228.800359 
L 382.216528 -231.168732 
L 401.927403 -238.663973 
L 400.862998 -244.787636 
L 398.426821 -247.746175 
L 405.228642 -250.138298 
L 433.862478 -250.193974 
L 438.68491 -256.065782 
L 456.492702 -268.090304 
L 463.291756 -270.863359 
L 513.951118 -270.979687 
L 515.458872 -274.698591 
L 526.684897 -277.787632 
L 532.034212 -284.643795 
L 536.630554 -296.368136 
L 548.124105 -307.740492 
L 553.130099 -303.780779 
L 563.234426 -306.340312 
L 569.924535 -301.993053 
L 569.911275 -281.446412 
L 579.765013 -272.928495 
L 582.368095 -267.988592 
L 566.277056 -260.687908 
L 534.879595 -251.026745 
L 524.350939 -238.689418 
L 524.198596 -230.698597 
L 529.171198 -222.712297 
L 535.424622 -222.335585 
L 533.842431 -227.835584 
L 538.36343 -224.487817 
L 537.157047 -220.183352 
L 526.986267 -217.739695 
L 519.747515 -218.032777 
L 508.602708 -215.404079 
L 493.286642 -213.907024 
L 480.726 -209.543978 
L 502.857695 -212.382545 
L 507.321887 -209.527367 
L 486.225999 -205.00682 
L 476.62737 -204.976683 
L 477.074528 -206.82634 
L 472.487905 -202.648752 
L 476.92211 -201.95741 
L 473.66822 -191.132658 
L 462.703482 -179.534139 
L 461.582838 -183.404631 
L 458.273647 -184.188946 
L 453.33073 -187.956822 
L 456.465729 -179.84244 
L 460.205205 -177.160734 
L 460.432811 -171.466167 
L 447.119799 -153.576403 
L 445.747964 -154.174773 
L 450.407443 -164.428127 
L 442.710156 -170.186777 
L 440.945184 -182.705453 
L 438.041109 -176.190064 
L 441.256649 -166.631291 
L 431.301381 -168.993003 
L 441.674197 -164.140244 
L 442.320334 -149.801896 
L 446.644087 -148.760061 
L 450.32547 -128.470036 
L 440.746581 -117.286202 
L 425.158905 -112.817943 
L 415.254009 -103.97967 
L 407.728956 -103.013177 
L 400.099477 -97.477315 
L 397.94619 -92.420932 
L 381.404678 -82.640954 
L 372.911248 -75.467523 
L 365.809318 -66.534771 
L 363.486811 -55.828608 
L 366.149564 -45.363994 
L 371.17807 -32.472598 
L 377.874734 -21.806065 
L 377.958891 -15.294518 
L 385.09323 2.184931 
L 383.962781 18.206128 
L 380.203644 27.407174 
L 375.698618 29.308215 
L 368.282961 27.48101 
L 365.904098 20.86986 
L 360.178072 17.404107 
L 345.182663 -7.082794 
L 342.920732 -12.977587 
L 346.01369 -22.979449 
L 341.794513 -31.267119 
L 330.047268 -43.872816 
L 324.164378 -46.184925 
L 308.962983 -39.34609 
L 306.265422 -40.099063 
L 298.953286 -47.128363 
L 289.506849 -50.856157 
L 272.47403 -48.9625 
L 259.101347 -50.628623 
L 247.609061 -49.590103 
L 241.380633 -47.239629 
L 244.09441 -43.234364 
L 243.849321 -37.123337 
L 247.048814 -34.146406 
L 244.177362 -32.165352 
L 238.586199 -34.388406 
L 232.930241 -31.529763 
L 221.996619 -31.998468 
L 210.747086 -39.961638 
L 197.603218 -38.082597 
L 186.643754 -41.5702 
L 177.270399 -40.513597 
L 164.589059 -36.993145 
L 150.872814 -25.821818 
L 135.898049 -19.325038 
L 127.671256 -12.130135 
L 124.205503 -5.349314 
L 124.054818 5.047944 
L 124.808242 12.28082 
L 127.671256 17.404107 
L 121.794544 17.856162 
L 99.342493 9.869862 
L 95.123315 2.787671 
L 91.808247 -7.760273 
L 82.917837 -16.349313 
L 70.145785 -35.496995 
L 59.525512 -41.503145 
L 47.205514 -41.212323 
L 37.712364 -29.308215 
L 25.205517 -33.828762 
L 17.415559 -38.378844 
L 8.669807 -54.53317 
L -7.988862 -65.923895 
L -13.48419 -71.26673 
L -39.588994 -71.271758 
L -39.618227 -65.053991 
L -81.533797 -64.940977 
L -138.664323 -82.88092 
L -137.253761 -85.827563 
L -173.514126 -83.032509 
L -176.04831 -90.730769 
L -185.813631 -99.395329 
L -192.844623 -101.198618 
L -194.491497 -105.521351 
L -202.946505 -106.278067 
L -208.338624 -110.35375 
L -222.336338 -111.839998 
L -226.180009 -114.272655 
L -228.010378 -122.534859 
L -242.630431 -137.67372 
L -255.180977 -158.622388 
L -254.646649 -162.112703 
L -261.294565 -167.090127 
L -272.957728 -179.716769 
L -275.036728 -192.002562 
L -283.066727 -200.233122 
L -279.763563 -212.722189 
L -280.288549 -225.645228 
L -285.097507 -237.192966 
L -279.210248 -251.393361 
L -275.54544 -278.743125 
L -278.268392 -298.955094 
L -283.030562 -311.844983 
z
" clip-path="url(#p407276ca74)" style="fill: #e8edf4; stroke: #b8c5d4; stroke-width: 0.45"/>
    <path d="M -941.74799 -582.32179 
L -920.572407 -588.625252 
L -886.961211 -595.983834 
L -874.571929 -595.983834 
L -876.622598 -588.457835 
L -844.815617 -589.044185 
L -857.050329 -598.378293 
L -875.58461 -604.116818 
L -886.302442 -611.650214 
L -900.757577 -618.07593 
L -921.464002 -622.839151 
L -913.029666 -630.737362 
L -886.299717 -631.227155 
L -867.280315 -638.09205 
L -863.693298 -645.429607 
L -848.29829 -652.591181 
L -833.620061 -654.314412 
L -805.055918 -661.004103 
L -791.201149 -659.995704 
L -768.012274 -668.027849 
L -745.213131 -664.863659 
L -734.309193 -658.062227 
L -727.616388 -660.979185 
L -702.150635 -660.07513 
L -703.054689 -656.609589 
L -679.999748 -654.048102 
L -664.630047 -655.554859 
L -632.886139 -650.793584 
L -603.903829 -649.376765 
L -592.301409 -647.417592 
L -572.251806 -649.866559 
L -533.021614 -643.228651 
L -533.199307 -501.500326 
L -518.360159 -501.05475 
L -503.683449 -496.883491 
L -479.777288 -480.383493 
L -465.118961 -488.805122 
L -449.991854 -493.685656 
L -441.993047 -485.891931 
L -418.042584 -472.928809 
L -393.213478 -444.929142 
L -367.596591 -435.341212 
L -367.177989 -425.835556 
L -375.55773 -418.568827 
L -383.841001 -424.236882 
L -397.122267 -429.041763 
L -401.383625 -442.184812 
L -420.809477 -454.373581 
L -428.929613 -468.600951 
L -467.354256 -469.944184 
L -485.013683 -474.280685 
L -516.172019 -489.918255 
L -556.957248 -498.155972 
L -577.818631 -496.871141 
L -607.453468 -503.794047 
L -625.367148 -510.213923 
L -642.092152 -507.024426 
L -638.984417 -496.556941 
L -664.748407 -492.448205 
L -678.014488 -487.363386 
L -694.712628 -484.162988 
L -696.86803 -493.040785 
L -690.091517 -507.820243 
L -674.077063 -512.458095 
L -678.208381 -516.237837 
L -697.416614 -507.841267 
L -707.700719 -497.812572 
L -729.412038 -487.093182 
L -718.387014 -479.77665 
L -732.626453 -468.952138 
L -763.906264 -458.048589 
L -767.639673 -451.37642 
L -791.163383 -443.595401 
L -795.926605 -436.52143 
L -813.556831 -430.08014 
L -823.899726 -431.238825 
L -865.786017 -416.865841 
L -891.645395 -412.562823 
L -894.005981 -415.09511 
L -877.522759 -422.135208 
L -862.780679 -426.78552 
L -846.720283 -435.027131 
L -828.026761 -436.730896 
L -820.597319 -442.90899 
L -799.710628 -451.929287 
L -796.345148 -454.946694 
L -785.219674 -460.267065 
L -782.620421 -471.693891 
L -774.956595 -480.592713 
L -792.331412 -476.02572 
L -797.190801 -478.617187 
L -805.348703 -473.138353 
L -815.189346 -480.781155 
L -819.252139 -475.37396 
L -824.887489 -482.886721 
L -839.951945 -476.855021 
L -849.202344 -476.86748 
L -850.499635 -485.837162 
L -847.775013 -491.362717 
L -857.477439 -496.728641 
L -877.070732 -493.840495 
L -889.786672 -500.914078 
L -900.096084 -504.530684 
L -900.163051 -513.06547 
L -911.774035 -519.486514 
L -905.943625 -528.150562 
L -893.658688 -536.55998 
L -888.284198 -544.294667 
L -876.091145 -545.395728 
L -865.752533 -542.984917 
L -853.597247 -550.255118 
L -842.655932 -548.957438 
L -831.174598 -553.633057 
L -833.974753 -560.514693 
L -842.409089 -563.226856 
L -831.254024 -569.040524 
L -840.508316 -568.869214 
L -856.497852 -565.587442 
L -861.089762 -562.259728 
L -872.972898 -565.583159 
L -894.286308 -563.892243 
L -916.353487 -567.504567 
L -922.677973 -573.565468 
z
" clip-path="url(#p407276ca74)" style="fill: #e8edf4; stroke: #b8c5d4; stroke-width: 0.45"/>
    <path d="M -760.367207 110.332395 
L -757.001056 106.198355 
L -758.040632 103.234985 
L -757.16681 101.829698 
L -745.129798 107.9793 
L -741.289593 113.259148 
L -752.360413 119.666723 
L -754.561317 122.187531 
L -758.305536 120.029723 
L -757.874727 115.81823 
z
" clip-path="url(#p407276ca74)" style="fill: #e8edf4; stroke: #b8c5d4; stroke-width: 0.45"/>
    <path d="M -997.208333 -548.204448 
L -996.312454 -553.88029 
L -987.011831 -551.01239 
L -977.619322 -552.561196 
L -965.434835 -548.585226 
L -950.470829 -546.571933 
L -951.714001 -544.930853 
L -963.128367 -541.741356 
L -980.335767 -547.752032 
L -993.621316 -546.877568 
z
" clip-path="url(#p407276ca74)" style="fill: #e8edf4; stroke: #b8c5d4; stroke-width: 0.45"/>
    <path d="M -739.233992 -458.627542 
L -717.501259 -466.27891 
L -707.496703 -465.261167 
L -701.113036 -460.58438 
L -714.149795 -453.423585 
L -729.199846 -447.679998 
L -736.904553 -451.568755 
z
" clip-path="url(#p407276ca74)" style="fill: #e8edf4; stroke: #b8c5d4; stroke-width: 0.45"/>
    <path d="M -769.967041 91.891275 
L -768.490781 90.599453 
L -759.194727 94.343219 
L -760.454453 96.152493 
L -765.505261 97.230794 
z
" clip-path="url(#p407276ca74)" style="fill: #e8edf4; stroke: #b8c5d4; stroke-width: 0.45"/>
    <path d="M -793.8069 82.061194 
L -789.776833 79.984153 
L -784.165779 85.933043 
L -784.982491 86.803248 
L -791.305832 86.079659 
z
" clip-path="url(#p407276ca74)" style="fill: #e8edf4; stroke: #b8c5d4; stroke-width: 0.45"/>
    <path d="M -816.528075 74.734743 
L -813.449432 72.160291 
L -809.975994 72.480346 
L -809.666035 75.9904 
L -811.453158 77.482331 
z
" clip-path="url(#p407276ca74)" style="fill: #e8edf4; stroke: #b8c5d4; stroke-width: 0.45"/>
    <path d="M -931.873864 -500.094121 
L -916.993956 -502.67235 
L -905.039181 -501.307703 
L -903.603674 -495.527129 
L -912.84979 -493.183284 
z
" clip-path="url(#p407276ca74)" style="fill: #e8edf4; stroke: #b8c5d4; stroke-width: 0.45"/>
    <path d="M -779.229039 89.314412 
L -778.099807 87.478919 
L -770.685657 88.122946 
L -771.154137 89.752001 
z
" clip-path="url(#p407276ca74)" style="fill: #e8edf4; stroke: #b8c5d4; stroke-width: 0.45"/>
    <path d="M 469.454262 130.83142 
L 470.781921 125.973978 
L 496.021466 129.275606 
L 501.44696 125.921027 
L 494.564155 119.393304 
L 494.677844 113.637647 
L 485.170868 111.287573 
L 488.56477 107.126666 
L 510.827399 110.158868 
L 512.145714 118.365439 
L 510.994038 124.158083 
L 507.320198 126.697377 
L 511.198443 131.221542 
L 510.888526 135.315094 
L 500.880466 132.753996 
L 493.769117 133.798992 
L 484.575173 132.709611 
L 477.524952 135.526117 
z
" clip-path="url(#p407276ca74)" style="fill: #e8edf4; stroke: #b8c5d4; stroke-width: 0.45"/>
    <path d="M 507.320198 126.697377 
L 510.994038 124.158083 
L 512.145714 118.365439 
L 510.827399 110.158868 
L 512.711819 107.590373 
L 524.474258 107.660065 
L 533.399944 111.5387 
L 537.371242 111.160258 
L 540.107155 116.505547 
L 548.351492 116.204975 
L 547.865981 120.695656 
L 554.570466 121.239957 
L 561.976158 126.768238 
L 556.380132 132.901946 
L 549.213107 129.624457 
L 537.339316 129.539191 
L 534.622481 132.287563 
L 528.837624 133.216146 
L 526.544784 129.560605 
L 521.562362 131.723794 
L 515.531051 142.042161 
L 511.651638 139.646144 
L 511.198443 131.221542 
z
" clip-path="url(#p407276ca74)" style="fill: #e8edf4; stroke: #b8c5d4; stroke-width: 0.45"/>
    <path d="M 409.926996 36.908159 
L 413.206051 27.344791 
L 417.739708 27.952051 
L 423.013679 40.458898 
L 423.094145 49.20239 
L 419.397242 49.952048 
L 415.569091 41.270337 
z
" clip-path="url(#p407276ca74)" style="fill: #e8edf4; stroke: #b8c5d4; stroke-width: 0.45"/>
    <path d="M 419.246557 -0.226027 
L 431.150665 6.554794 
L 428.550596 17.265778 
L 425.780104 15.33445 
L 426.027378 7.458903 
L 419.276392 1.504438 
z
" clip-path="url(#p407276ca74)" style="fill: #e8edf4; stroke: #b8c5d4; stroke-width: 0.45"/>
    <path d="M 401.315052 3.541095 
L 408.397243 2.335616 
L 418.342447 2.787671 
L 418.794502 6.705478 
L 402.369847 9.116437 
z
" clip-path="url(#p407276ca74)" style="fill: #e8edf4; stroke: #b8c5d4; stroke-width: 0.45"/>
    <path d="M -173.514126 -83.032509 
L -137.253761 -85.827563 
L -138.664323 -82.88092 
L -81.533797 -64.940977 
L -39.618227 -65.053991 
L -39.588994 -71.271758 
L -13.48419 -71.26673 
L -7.988862 -65.923895 
L 8.669807 -54.53317 
L 17.415559 -38.378844 
L 25.205517 -33.828762 
L 37.712364 -29.308215 
L 47.205514 -41.212323 
L 59.525512 -41.503145 
L 70.145785 -35.496995 
L 82.917837 -16.349313 
L 91.808247 -7.760273 
L 95.123315 2.787671 
L 99.342493 9.869862 
L 121.794544 17.856162 
L 127.671131 17.404145 
L 121.823589 30.632071 
L 119.188516 41.478387 
L 118.087065 61.666596 
L 116.635595 69.025567 
L 119.247307 77.245764 
L 123.919811 84.594222 
L 126.927875 96.281129 
L 136.929705 107.499656 
L 140.447419 116.097127 
L 146.342849 123.516056 
L 162.342897 127.513829 
L 168.571216 133.817681 
L 181.787461 129.606548 
L 193.27775 128.084606 
L 214.045302 122.791878 
L 223.629367 116.643375 
L 227.219888 107.853958 
L 228.457219 95.194862 
L 231.061924 90.789836 
L 241.26777 86.843846 
L 257.202018 83.348714 
L 270.544411 83.873549 
L 279.683847 82.597282 
L 283.298896 85.792231 
L 282.787689 93.049972 
L 274.690135 102.007585 
L 271.107401 111.182062 
L 273.884584 113.806233 
L 267.850548 132.078096 
L 264.031093 128.208028 
L 258.011852 128.657329 
L 252.614001 137.753159 
L 249.878867 135.970358 
L 248.054796 136.664167 
L 248.172767 138.881475 
L 220.168887 138.741701 
L 220.157596 147.224315 
L 213.351882 147.261692 
L 224.5342 155.770782 
L 226.206428 159.036201 
L 228.647219 159.950378 
L 228.26138 165.081918 
L 208.921159 165.127081 
L 201.668869 177.409683 
L 203.809087 180.225411 
L 202.060937 183.758698 
L 201.691451 188.147761 
L 184.63823 171.925009 
L 176.867335 167.031747 
L 164.564098 163.10172 
L 156.147283 164.196552 
L 144.044947 169.865774 
L 136.449646 171.351118 
L 114.516012 164.513088 
L 100.43231 157.600693 
L 89.135136 155.489287 
L 72.076075 148.483839 
L 59.46993 141.281774 
L 55.66605 137.257525 
L 47.23366 136.358533 
L 31.820742 131.588692 
L 25.544145 124.713286 
L 9.353319 116.160979 
L 1.80357 106.658286 
L -1.788118 99.314889 
L 3.239078 97.843952 
L 1.688714 93.546774 
L 5.153087 89.63816 
L 5.227452 84.427194 
L 0.144191 77.660803 
L -1.215784 71.664533 
L -6.268287 64.059887 
L -19.547607 49.081475 
L -34.698497 37.31086 
L -42.028656 27.917183 
L -54.96185 21.764786 
L -57.732803 18.083938 
L -55.43568 8.770855 
L -63.117805 5.256257 
L -72.012345 -2.066116 
L -75.768725 -12.580322 
L -83.874066 -13.806362 
L -99.685672 -29.073277 
L -100.342493 -33.781212 
L -108.445888 -45.146911 
L -113.78339 -56.685867 
L -113.555235 -62.47345 
L -124.452944 -68.450253 
L -129.483644 -67.793821 
L -138.08345 -71.944995 
L -140.498155 -65.826471 
L -138.004803 -58.595594 
L -136.538148 -47.280121 
L -117.704852 -27.140968 
L -115.413179 -26.065214 
L -113.425194 -20.889289 
L -110.746904 -21.098755 
L -107.722489 -11.379977 
L -103.146541 -7.546507 
L -99.937577 -2.210951 
L -90.467589 5.457547 
L -85.467647 19.474671 
L -76.808271 33.135546 
L -75.980138 41.082814 
L -68.714221 41.580784 
L -57.205633 55.155614 
L -57.571615 57.85415 
L -63.912844 63.389049 
L -66.582568 63.316631 
L -70.555813 54.15656 
L -80.41709 45.567655 
L -98.989527 34.455419 
L -98.491557 23.429616 
L -100.777779 15.264317 
L -118.316899 3.869806 
L -120.306831 5.809513 
L -124.107207 1.8826 
L -133.401601 -1.764375 
L -142.282903 -10.513689 
L -141.184567 -11.65096 
L -134.978051 -10.796352 
L -129.387086 -16.424694 
L -128.824875 -23.222232 
L -140.424958 -33.971601 
L -149.267326 -38.143799 
L -167.392796 -69.47695 
z
" clip-path="url(#p407276ca74)" style="fill: #e8edf4; stroke: #b8c5d4; stroke-width: 0.45"/>
    <path d="M 401.150275 381.739577 
L 406.772387 380.608925 
L 406.105053 373.060344 
L 409.638729 367.602535 
L 417.113724 366.59219 
L 429.226572 349.217762 
L 423.672595 345.631913 
L 426.515577 336.886493 
L 423.115835 323.101417 
L 426.346602 319.145303 
L 423.968107 306.400941 
L 417.866714 298.374637 
L 419.797854 291.050318 
L 424.654518 292.131912 
L 427.495553 287.653301 
L 423.997307 278.777839 
L 425.826051 276.574548 
L 433.611742 277.05305 
L 444.917481 266.534172 
L 451.12244 264.930469 
L 454.048352 247.213808 
L 462.690597 240.221209 
L 472.185892 239.935042 
L 473.38429 236.794213 
L 485.174761 238.05179 
L 502.903881 227.073877 
L 510.19861 219.814578 
L 515.536891 220.737711 
L 519.490279 224.701611 
L 516.565146 229.775139 
L 506.88608 232.300806 
L 503.063901 239.834592 
L 497.231155 244.15513 
L 492.851825 249.75505 
L 491.008676 260.507533 
L 486.829469 269.319142 
L 494.608151 270.328319 
L 496.54046 277.255898 
L 499.865059 280.571153 
L 501.054891 286.638284 
L 499.265082 292.215621 
L 499.795367 295.360733 
L 503.504248 296.616754 
L 507.093211 301.872883 
L 526.470419 300.423749 
L 535.224016 302.343599 
L 545.829717 315.310276 
L 551.91982 313.698785 
L 562.773143 314.505504 
L 571.361659 312.786944 
L 576.690595 315.376464 
L 573.976875 323.492317 
L 570.61412 328.551439 
L 569.434022 339.358431 
L 572.465446 349.370774 
L 576.748997 353.848217 
L 577.267212 357.221874 
L 569.631029 364.722955 
L 575.098572 368.04366 
L 579.103743 373.312249 
L 583.699157 388.339718 
L 580.855397 390.196884 
L 577.917804 381.308185 
L 573.731589 376.529 
L 568.74761 381.723224 
L 539.388039 381.386443 
L 539.574534 390.81516 
L 548.404053 392.373311 
L 547.894792 398.14493 
L 544.881667 396.585222 
L 536.395549 399.067673 
L 536.318848 410.015996 
L 543.003088 415.513518 
L 545.362506 424.142136 
L 538.232858 471.993161 
L 530.692454 463.982819 
L 526.192428 463.625402 
L 535.911206 448.289963 
L 524.37225 441.233512 
L 515.328593 442.528467 
L 509.887136 439.921426 
L 501.584008 443.905962 
L 490.363924 442.018427 
L 481.486905 426.21967 
L 474.511827 422.337142 
L 469.701884 415.224626 
L 459.680976 408.08797 
L 455.663736 409.516858 
L 441.814418 400.956765 
L 437.533982 403.354339 
L 424.746792 401.263567 
L 421.075678 394.781007 
L 418.266179 395.021621 
L 403.194715 386.417532 
z
" clip-path="url(#p407276ca74)" style="fill: #e8edf4; stroke: #b8c5d4; stroke-width: 0.45"/>
    <path d="M 341.255316 283.287209 
L 343.304818 277.240714 
L 342.718856 274.513756 
L 344.971205 272.729008 
L 341.837384 270.489507 
L 341.75095 264.424712 
L 347.577856 263.078754 
L 352.988555 268.483612 
L 352.680195 271.676224 
L 358.692818 272.353681 
L 360.115477 271.12803 
L 364.257307 274.830681 
L 371.670786 273.741689 
L 378.080928 269.935862 
L 387.232044 266.896651 
L 392.374875 262.39351 
L 400.694354 263.277708 
L 400.132922 264.759937 
L 408.534553 265.273869 
L 415.239427 267.876627 
L 425.826051 276.574548 
L 423.997307 278.777839 
L 427.495553 287.653301 
L 424.654518 292.131912 
L 419.797854 291.050318 
L 417.866714 298.374637 
L 412.843411 294.027623 
L 409.615369 285.89386 
L 413.338266 281.868444 
L 409.520369 280.835906 
L 406.707756 275.856989 
L 399.200835 271.668438 
L 392.607312 272.628557 
L 389.552917 277.870281 
L 383.466709 281.655473 
L 380.179097 282.181475 
L 378.70193 285.317243 
L 385.88959 293.49617 
L 379.598976 297.654353 
L 372.588467 298.423305 
L 369.97948 289.421696 
L 368.01797 291.983573 
L 363.048397 291.098986 
L 360.007629 285.036138 
L 349.917418 282.272582 
L 343.450821 282.295163 
L 342.985556 285.565644 
z
" clip-path="url(#p407276ca74)" style="fill: #e8edf4; stroke: #b8c5d4; stroke-width: 0.45"/>
    <path d="M 296.412355 243.050564 
L 302.136475 238.200909 
L 312.06433 242.191284 
L 315.529093 240.227049 
L 320.307888 241.484238 
L 322.805523 244.584965 
L 327.252598 245.588691 
L 330.860639 242.3953 
L 334.677368 250.582403 
L 347.577856 263.078754 
L 341.75095 264.424712 
L 341.837384 270.489507 
L 344.971205 272.729008 
L 342.718856 274.513756 
L 343.304818 277.240714 
L 341.255316 283.287209 
L 333.078336 279.943532 
L 330.018879 276.78051 
L 331.754181 274.164515 
L 331.206765 270.835244 
L 327.029115 267.227592 
L 315.912207 262.33433 
L 314.922107 257.926579 
L 310.969498 255.234273 
L 311.938183 259.615159 
L 308.931288 263.215803 
L 305.48716 259.03426 
L 300.645681 257.545412 
L 298.586446 254.508537 
L 298.67288 249.92091 
L 300.667874 245.17443 
z
" clip-path="url(#p407276ca74)" style="fill: #e8edf4; stroke: #b8c5d4; stroke-width: 0.45"/>
    <path d="M 270.392567 212.693107 
L 272.065574 210.36289 
L 274.553086 212.631201 
L 280.378824 210.946904 
L 282.26558 207.505112 
L 284.476659 207.371178 
L 284.156229 199.961204 
L 290.830735 199.712414 
L 294.083695 195.691669 
L 298.528434 198.737499 
L 308.110942 190.92728 
L 308.36129 187.825774 
L 309.807309 187.956204 
L 311.740397 184.355561 
L 313.314511 183.917161 
L 315.883006 186.219345 
L 318.900413 186.900306 
L 322.230464 184.984349 
L 326.037069 184.974227 
L 331.267892 183.005709 
L 333.356327 180.953482 
L 338.52135 181.261452 
L 336.457833 186.071395 
L 337.995348 191.585269 
L 334.523966 196.717977 
L 332.906636 202.781215 
L 332.418789 209.421069 
L 333.607453 220.089065 
L 331.305268 221.569347 
L 329.896236 228.01453 
L 330.932278 231.994004 
L 327.849071 235.847331 
L 328.550278 239.919858 
L 330.860639 242.3953 
L 327.252598 245.588691 
L 322.805523 244.584965 
L 320.307888 241.484238 
L 315.529093 240.227049 
L 312.06433 242.191284 
L 302.136475 238.200909 
L 299.865827 240.139837 
L 287.61048 229.314157 
L 284.293278 224.234789 
z
" clip-path="url(#p407276ca74)" style="fill: #e8edf4; stroke: #b8c5d4; stroke-width: 0.45"/>
    <path d="M 245.004683 189.876054 
L 248.135779 186.05037 
L 246.935045 183.092922 
L 247.996005 180.197768 
L 262.00651 170.232925 
L 263.571669 170.821611 
L 266.876801 168.172522 
L 281.924516 169.796082 
L 288.889861 169.402456 
L 295.504797 166.048656 
L 303.912268 167.851703 
L 310.848023 166.191545 
L 320.122172 168.614037 
L 329.077059 174.808483 
L 334.555893 177.116508 
L 338.52135 181.261452 
L 333.356327 180.953482 
L 331.267892 183.005709 
L 326.037069 184.974227 
L 322.230464 184.984349 
L 318.900413 186.900306 
L 315.883006 186.219345 
L 313.314511 183.917161 
L 311.740397 184.355561 
L 309.807309 187.956204 
L 308.36129 187.825774 
L 308.110942 190.92728 
L 298.528434 198.737499 
L 294.083695 195.691669 
L 290.830735 199.712414 
L 284.156229 199.961204 
L 284.476659 207.371178 
L 282.26558 207.505112 
L 280.378824 210.946904 
L 275.69425 211.566349 
L 273.091103 206.852184 
L 268.514767 205.542045 
L 269.563656 199.506062 
L 267.514155 197.874715 
L 264.412649 196.800129 
L 257.802775 198.595389 
L 257.241731 196.566134 
L 249.447086 191.143365 
z
" clip-path="url(#p407276ca74)" style="fill: #e8edf4; stroke: #b8c5d4; stroke-width: 0.45"/>
    <path d="M 233.820418 200.255158 
L 234.285683 198.045637 
L 242.278893 192.578094 
L 241.478404 190.803469 
L 245.004683 189.876054 
L 249.447086 191.143365 
L 257.241731 196.566134 
L 257.802775 198.595389 
L 264.412649 196.800129 
L 269.563656 199.506062 
L 266.842149 209.090127 
L 258.114638 208.865087 
L 252.691091 207.421793 
L 246.460047 204.426189 
L 238.087227 203.490598 
z
" clip-path="url(#p407276ca74)" style="fill: #e8edf4; stroke: #b8c5d4; stroke-width: 0.45"/>
    <path d="M 201.668869 177.409683 
L 208.921159 165.127081 
L 228.26138 165.081918 
L 228.647219 159.950378 
L 226.206428 159.036201 
L 224.5342 155.770782 
L 213.351882 147.261692 
L 220.157596 147.224315 
L 220.168887 138.741701 
L 248.172767 138.881475 
L 246.876255 167.833794 
L 251.374334 167.828732 
L 256.287063 170.554522 
L 257.5863 168.309181 
L 262.00651 170.232925 
L 247.996005 180.197768 
L 246.935045 183.092922 
L 248.135779 186.05037 
L 245.004683 189.876054 
L 241.478404 190.803469 
L 242.278893 192.578094 
L 234.285683 198.045637 
L 233.820418 200.255158 
L 226.089236 197.626704 
L 216.689719 197.354553 
L 209.798349 194.365178 
L 201.691451 188.147761 
L 202.060937 183.758698 
L 203.809087 180.225411 
z
" clip-path="url(#p407276ca74)" style="fill: #e8edf4; stroke: #b8c5d4; stroke-width: 0.45"/>
    <path d="M 246.876255 167.833794 
L 248.054796 136.664167 
L 249.878867 135.970358 
L 252.614001 137.753159 
L 258.011852 128.657329 
L 260.876248 128.459154 
L 260.931924 130.669843 
L 263.787754 130.739146 
L 263.536628 134.837759 
L 261.097394 141.35536 
L 262.41571 143.685966 
L 260.041496 158.132146 
L 257.082101 162.12992 
L 254.360594 162.60959 
L 251.374334 167.828732 
z
" clip-path="url(#p407276ca74)" style="fill: #e8edf4; stroke: #b8c5d4; stroke-width: 0.45"/>
    <path d="M 486.829469 269.319142 
L 491.008676 260.507533 
L 492.851825 249.75505 
L 497.231155 244.15513 
L 503.063901 239.834592 
L 506.88608 232.300806 
L 516.565146 229.775139 
L 516.136868 233.33568 
L 507.290997 235.094342 
L 512.206062 241.932761 
L 512.022292 249.813062 
L 505.37543 258.565491 
L 511.079304 270.520655 
L 517.575101 269.542236 
L 520.958881 258.650757 
L 516.286376 253.347517 
L 515.524821 241.940158 
L 534.289982 235.814626 
L 532.202326 228.712232 
L 537.48532 223.958355 
L 542.894072 234.546925 
L 553.461618 234.791433 
L 563.252035 243.194232 
L 563.841889 248.183272 
L 577.371556 248.315649 
L 593.470497 246.767232 
L 602.099115 253.515324 
L 613.623276 255.377551 
L 622.0763 250.670395 
L 622.249169 246.875859 
L 658.971993 245.757666 
L 646.176238 250.208245 
L 651.323741 257.32154 
L 663.374683 258.453749 
L 674.799173 265.863334 
L 677.200251 277.935691 
L 685.053297 277.595405 
L 690.957294 281.14738 
L 679.018482 289.999092 
L 677.701724 295.49311 
L 682.859739 301.084853 
L 679.117765 303.907589 
L 669.845563 306.326188 
L 670.145746 313.284524 
L 666.063875 317.431805 
L 676.261156 328.865639 
L 678.256149 333.117653 
L 672.745389 338.868248 
L 655.890734 344.509048 
L 645.054931 346.847053 
L 640.705191 350.409151 
L 628.723552 346.642648 
L 617.568099 344.714622 
L 614.744194 346.101461 
L 621.488392 350.007739 
L 620.880628 360.11002 
L 622.972568 369.599864 
L 635.737565 370.894819 
L 636.55246 374.061734 
L 625.789074 378.349178 
L 624.03781 384.730898 
L 606.627562 390.721718 
L 603.710994 395.333096 
L 591.995276 396.309568 
L 583.699157 388.339718 
L 579.103743 373.312249 
L 575.098572 368.04366 
L 569.631029 364.722955 
L 577.267212 357.221874 
L 576.748997 353.848217 
L 572.465446 349.370774 
L 569.434022 339.358431 
L 570.61412 328.551439 
L 573.976875 323.492317 
L 576.690595 315.376464 
L 571.361659 312.786944 
L 562.773143 314.505504 
L 551.91982 313.698785 
L 545.829717 315.310276 
L 535.224016 302.343599 
L 526.470419 300.423749 
L 507.093211 301.872883 
L 503.504248 296.616754 
L 499.795367 295.360733 
L 499.265082 292.215621 
L 501.054891 286.638284 
L 499.865059 280.571153 
L 496.54046 277.255898 
L 494.608151 270.328319 
z
" clip-path="url(#p407276ca74)" style="fill: #e8edf4; stroke: #b8c5d4; stroke-width: 0.45"/>
    <path d="M 410.993253 132.588136 
L 412.801362 129.144008 
L 422.56764 128.601653 
L 432.708466 129.952673 
L 440.713746 133.571616 
L 443.210602 137.697872 
L 432.618917 137.978589 
L 428.041412 140.496859 
L 419.607855 138.07865 
z
" clip-path="url(#p407276ca74)" style="fill: #e8edf4; stroke: #b8c5d4; stroke-width: 0.45"/>
    <path d="M 310.980789 77.285866 
L 318.934676 72.630882 
L 322.200095 67.194098 
L 329.012817 63.843412 
L 336.70818 60.906209 
L 348.116707 59.464083 
L 351.767575 57.808597 
L 376.621281 59.053716 
L 390.774286 64.187202 
L 396.772114 69.703802 
L 410.846861 68.001595 
L 438.325906 87.6712 
L 443.286524 87.464069 
L 452.273337 90.537153 
L 451.17578 94.779433 
L 462.283733 95.400046 
L 473.673571 101.567238 
L 471.886098 105.097021 
L 461.866358 107.009863 
L 451.723974 107.75818 
L 441.342145 106.566012 
L 419.766707 108.033835 
L 429.868209 99.627531 
L 423.727103 95.713467 
L 414.013387 94.706237 
L 408.806704 90.356498 
L 405.234872 81.77499 
L 396.719163 82.36173 
L 382.668166 78.321129 
L 378.146727 75.160443 
L 358.506323 72.825164 
L 353.246689 69.886015 
L 358.897223 66.121068 
L 344.116598 65.34978 
L 333.288971 73.179856 
L 327.045468 73.390101 
L 324.885393 77.066666 
L 317.428308 78.714365 
z
" clip-path="url(#p407276ca74)" style="fill: #e8edf4; stroke: #b8c5d4; stroke-width: 0.45"/>
   </g>
   <g id="PathCollection_1">
    <defs>
     <path id="m98f4b49821" d="M 0 2.12132 
C 0.562581 2.12132 1.102195 1.897805 1.5 1.5 
C 1.897805 1.102195 2.12132 0.562581 2.12132 0 
C 2.12132 -0.562581 1.897805 -1.102195 1.5 -1.5 
C 1.102195 -1.897805 0.562581 -2.12132 0 -2.12132 
C -0.562581 -2.12132 -1.102195 -1.897805 -1.5 -1.5 
C -1.897805 -1.102195 -2.12132 -0.562581 -2.12132 0 
C -2.12132 0.562581 -1.897805 1.102195 -1.5 1.5 
C -1.102195 1.897805 -0.562581 2.12132 0 2.12132 
z
" style="stroke: #ffffff; stroke-width: 0.5"/>
    </defs>
    <g clip-path="url(#p407276ca74)">
     <use xlink:href="#m98f4b49821" x="537.132385" y="218.869832" style="fill: #8aa0b7; stroke: #ffffff; stroke-width: 0.5"/>
     <use xlink:href="#m98f4b49821" x="563.173248" y="223.715858" style="fill: #8aa0b7; stroke: #ffffff; stroke-width: 0.5"/>
     <use xlink:href="#m98f4b49821" x="446.219156" y="41.815063" style="fill: #8aa0b7; stroke: #ffffff; stroke-width: 0.5"/>
     <use xlink:href="#m98f4b49821" x="254.095895" y="147.2945" style="fill: #8aa0b7; stroke: #ffffff; stroke-width: 0.5"/>
     <use xlink:href="#m98f4b49821" x="551.849277" y="223.848461" style="fill: #8aa0b7; stroke: #ffffff; stroke-width: 0.5"/>
     <use xlink:href="#m98f4b49821" x="500.214582" y="120.92464" style="fill: #8aa0b7; stroke: #ffffff; stroke-width: 0.5"/>
     <use xlink:href="#m98f4b49821" x="423.616419" y="132.226009" style="fill: #8aa0b7; stroke: #ffffff; stroke-width: 0.5"/>
     <use xlink:href="#m98f4b49821" x="378.410946" y="113.390395" style="fill: #8aa0b7; stroke: #ffffff; stroke-width: 0.5"/>
     <use xlink:href="#m98f4b49821" x="251.58448" y="198.77851" style="fill: #8aa0b7; stroke: #ffffff; stroke-width: 0.5"/>
     <use xlink:href="#m98f4b49821" x="509.538462" y="80.330126" style="fill: #8aa0b7; stroke: #ffffff; stroke-width: 0.5"/>
    </g>
   </g>
   <g id="PatchCollection_2">
    <defs>
     <path id="m4d3b54cf8d" d="M 245.004683 -172.521155 
L 248.135779 -176.346838 
L 246.935045 -179.304287 
L 247.996005 -182.199441 
L 262.00651 -192.164284 
L 263.571669 -191.575597 
L 266.876801 -194.224687 
L 281.924516 -192.601127 
L 288.889861 -192.994752 
L 295.504797 -196.348552 
L 303.912268 -194.545505 
L 310.848023 -196.205664 
L 320.122172 -193.783172 
L 329.077059 -187.588726 
L 334.555893 -185.280701 
L 338.52135 -181.135756 
L 333.356327 -181.443726 
L 331.267892 -179.3915 
L 326.037069 -177.422982 
L 322.230464 -177.412859 
L 318.900413 -175.496903 
L 315.883006 -176.177863 
L 313.314511 -178.480048 
L 311.740397 -178.041648 
L 309.807309 -174.441005 
L 308.36129 -174.571434 
L 308.110942 -171.469929 
L 298.528434 -163.65971 
L 294.083695 -166.705539 
L 290.830735 -162.684795 
L 284.156229 -162.436005 
L 284.476659 -155.02603 
L 282.26558 -154.892096 
L 280.378824 -151.450305 
L 275.69425 -150.83086 
L 273.091103 -155.545024 
L 268.514767 -156.855163 
L 269.563656 -162.891147 
L 267.514155 -164.522493 
L 264.412649 -165.59708 
L 257.802775 -163.80182 
L 257.241731 -165.831075 
L 249.447086 -171.253843 
z
" style="stroke: #b45309; stroke-width: 1.15"/>
    </defs>
    <g clip-path="url(#p407276ca74)">
     <use xlink:href="#m4d3b54cf8d" x="0" y="362.397209" style="fill: #f59e0b; stroke: #b45309; stroke-width: 1.15"/>
    </g>
   </g>
   <g id="PathCollection_2">
    <defs>
     <path id="m8b9c7d3df3" d="M 0 3.316625 
C 0.879579 3.316625 1.723251 2.967164 2.345208 2.345208 
C 2.967164 1.723251 3.316625 0.879579 3.316625 0 
C 3.316625 -0.879579 2.967164 -1.723251 2.345208 -2.345208 
C 1.723251 -2.967164 0.879579 -3.316625 0 -3.316625 
C -0.879579 -3.316625 -1.723251 -2.967164 -2.345208 -2.345208 
C -2.967164 -1.723251 -3.316625 -0.879579 -3.316625 0 
C -3.316625 0.879579 -2.967164 1.723251 -2.345208 2.345208 
C -1.723251 2.967164 -0.879579 3.316625 0 3.316625 
z
" style="stroke: #ffffff"/>
    </defs>
    <g clip-path="url(#p407276ca74)">
     <use xlink:href="#m8b9c7d3df3" x="288" y="181.198604" style="fill: #f97316; stroke: #ffffff"/>
    </g>
   </g>
   <g id="PathCollection_3">
    <path d="M 288 185.648323 
C 289.180079 185.648323 290.311984 185.179473 291.146427 184.345031 
C 291.980869 183.510589 292.449719 182.378684 292.449719 181.198604 
C 292.449719 180.018525 291.980869 178.88662 291.146427 178.052178 
C 290.311984 177.217736 289.180079 176.748885 288 176.748885 
C 286.819921 176.748885 285.688016 177.217736 284.853573 178.052178 
C 284.019131 178.88662 283.550281 180.018525 283.550281 181.198604 
C 283.550281 182.378684 284.019131 183.510589 284.853573 184.345031 
C 285.688016 185.179473 286.819921 185.648323 288 185.648323 
L 288 185.648323 
z
" clip-path="url(#p407276ca74)" style="fill: none; stroke: #7c2d12; stroke-width: 1.1"/>
   </g>
  </g>
 </g>
 <defs>
  <clipPath id="p407276ca74">
   <rect x="0" y="-0" width="576" height="362.397209"/>
  </clipPath>
 </defs>
</svg>
