<?xml version="1.0" encoding="utf-8" standalone="no"?>
<!DOCTYPE svg PUBLIC "-//W3C//DTD SVG 1.1//EN"
  "http://www.w3.org/Graphics/SVG/1.1/DTD/svg11.dtd">
<svg xmlns:xlink="http://www.w3.org/1999/xlink" width="576pt" height="384pt" viewBox="0 0 576 384" xmlns="http://www.w3.org/2000/svg" version="1.1">
 <metadata>
  <rdf:RDF xmlns:dc="http://purl.org/dc/elements/1.1/" xmlns:cc="http://creativecommons.org/ns#" xmlns:rdf="http://www.w3.org/1999/02/22-rdf-syntax-ns#">
   <cc:Work>
    <dc:type rdf:resource="http://purl.org/dc/dcmitype/StillImage"/>
    <dc:date>2026-06-09T04:57:05.086325</dc:date>
    <dc:format>image/svg+xml</dc:format>
    <dc:creator>
     <cc:Agent>
      <dc:title>Matplotlib v3.10.8, https://matplotlib.org/</dc:title>
     </cc:Agent>
    </dc:creator>
   </cc:Work>
  </rdf:RDF>
 </metadata>
 <defs>
  <style type="text/css">*{stroke-linejoin: round; stroke-linecap: butt}</style>
 </defs>
 <g id="figure_1">
  <g id="patch_1">
   <path d="M 0 384 
L 576 384 
L 576 0 
L 0 0 
z
" style="fill: #eaf3ff"/>
  </g>
  <g id="axes_1">
   <g id="PatchCollection_1">
    <path d="M 191.130196 54.860543 
L 191.719839 49.065459 
L 222.844052 47.99177 
L 224.491437 43.049968 
L 230.109699 36.889192 
L 234.6362 17.951876 
L 253.701083 3.152691 
L 260.149593 -14.137594 
L 264.435843 -15.141829 
L 268.902104 -25.829815 
L 280.439827 -27.302504 
L 285.402182 -25.521528 
L 291.629576 -25.521528 
L 296.049772 -28.641957 
L 304.527305 -29.083835 
L 304.21264 -36.430984 
L 306.300486 -36.430984 
L 306.00283 -12.083057 
L 260.990826 -12.800267 
L 261.43235 22.291279 
L 248.582104 23.5223 
L 245.228511 30.566123 
L 247.829459 50.371603 
L 194.123059 50.28585 
z
" clip-path="url(#p1ec619482c)" style="fill: #e8edf4; stroke: #b8c5d4; stroke-width: 0.45"/>
    <path d="M 183.427986 140.852016 
L 189.460486 138.247169 
L 196.104599 128.619053 
L 199.363226 121.576648 
L 204.059108 117.179485 
L 210.875436 118.363377 
L 217.567032 115.374413 
L 225.224947 115.223813 
L 231.777992 119.255283 
L 240.881312 122.888461 
L 258.22971 142.397702 
L 258.858686 150.929452 
L 261.562752 158.78297 
L 266.696259 162.634784 
L 267.868812 167.938026 
L 267.237355 172.210456 
L 265.257587 172.984008 
L 257.779682 171.899689 
L 256.750642 173.424823 
L 253.727305 173.731338 
L 243.869922 170.38802 
L 211.906602 169.67081 
L 208.229839 171.215079 
L 203.688455 170.773556 
L 196.423516 173.00775 
L 194.173377 162.495169 
L 206.656513 162.784675 
L 217.492618 157.583841 
L 223.375581 160.481737 
L 229.334375 160.723405 
L 235.269074 157.645144 
L 232.498391 153.681355 
L 227.976496 155.990671 
L 223.72072 155.926533 
L 218.307629 152.550969 
L 213.959721 152.772086 
L 210.862679 156.019374 
L 195.926005 156.411996 
L 190.270536 145.734641 
z
" clip-path="url(#p1ec619482c)" style="fill: #e8edf4; stroke: #b8c5d4; stroke-width: 0.45"/>
    <path d="M 258.22971 142.397702 
L 262.845154 139.898098 
L 265.150927 131.818857 
L 269.498125 131.502775 
L 279.074861 135.322342 
L 286.808963 132.610481 
L 292.110787 133.520813 
L 294.168159 130.4709 
L 349.196649 130.26254 
L 352.247626 120.660291 
L 349.871691 118.970029 
L 336.633784 0.595328 
L 357.622802 0.348698 
L 450.147121 60.194613 
L 453.407874 66.620799 
L 468.297065 72.773779 
L 468.454398 81.499005 
L 483.667467 80.156363 
L 483.705737 111.74088 
L 476.206926 120.901251 
L 475.038979 129.3515 
L 462.857043 131.526516 
L 444.144387 132.705448 
L 439.0736 137.579214 
L 421.491329 138.180905 
L 418.068282 135.549837 
L 410.518444 137.501966 
L 397.70009 143.190743 
L 395.08355 147.477702 
L 384.443047 153.625367 
L 382.577735 157.148341 
L 376.830134 159.94064 
L 370.19807 158.091628 
L 366.44016 161.438489 
L 364.427436 170.843718 
L 353.541368 182.209934 
L 353.858159 186.855144 
L 350.117966 192.668299 
L 351.026172 200.629895 
L 342.165229 204.392766 
L 340.042657 198.527166 
L 336.082766 200.073562 
L 333.717107 199.806025 
L 331.193053 203.808084 
L 320.60216 203.695046 
L 316.805625 201.635903 
L 315.017916 202.881807 
L 310.829113 198.928294 
L 311.556245 194.844379 
L 309.842595 193.244477 
L 306.921312 194.593497 
L 307.456384 190.131488 
L 310.267819 186.601427 
L 304.647785 180.856307 
L 303.013511 177.073947 
L 299.966077 174.060886 
L 297.221262 173.701218 
L 285.734211 180.423997 
L 279.864359 179.328338 
L 276.057194 175.846115 
L 273.784375 175.388645 
L 268.029688 177.231988 
L 267.237355 172.210456 
L 267.868812 167.938026 
L 266.696259 162.634784 
L 261.562752 158.78297 
L 258.858686 150.929452 
z
" clip-path="url(#p1ec619482c)" style="fill: #e8edf4; stroke: #b8c5d4; stroke-width: 0.45"/>
    <path d="M 191.130196 54.860543 
L 194.123059 50.28585 
L 247.829459 50.371603 
L 245.228511 30.566123 
L 248.582104 23.5223 
L 261.43235 22.291279 
L 260.990826 -12.800267 
L 306.00283 -12.083057 
L 306.042517 -32.855919 
L 357.622802 0.348698 
L 336.633784 0.595328 
L 349.871691 118.970029 
L 352.247626 120.660291 
L 349.196649 130.26254 
L 294.168159 130.4709 
L 292.110787 133.520813 
L 286.808963 132.610481 
L 279.074861 135.322342 
L 269.498125 131.502775 
L 265.150927 131.818857 
L 262.845154 139.898098 
L 258.22971 142.397702 
L 240.881312 122.888461 
L 231.777992 119.255283 
L 225.224947 115.223813 
L 217.567032 115.374413 
L 210.875436 118.363377 
L 204.059108 117.179485 
L 199.363226 121.576648 
L 198.175436 114.186622 
L 202.003862 107.42451 
L 203.707235 94.512253 
L 200.53507 74.141935 
L 201.903935 67.302574 
L 198.35899 60.783548 
z
" clip-path="url(#p1ec619482c)" style="fill: #e8edf4; stroke: #b8c5d4; stroke-width: 0.45"/>
    <path d="M 435.734889 199.257487 
L 437.479721 192.036488 
L 442.196156 190.484424 
L 444.989872 184.488422 
L 451.693516 183.207083 
L 459.293672 175.089572 
L 464.209961 175.054136 
L 474.667618 182.946279 
L 474.133254 187.502546 
L 477.21754 195.637775 
L 474.515246 201.158589 
L 475.960296 204.847401 
L 465.083086 217.541377 
L 462.497729 226.191834 
L 462.057623 257.021935 
L 450.723298 258.621837 
L 447.345609 249.160621 
L 447.969978 217.665046 
L 445.207445 214.839438 
L 444.686546 208.108863 
z
" clip-path="url(#p1ec619482c)" style="fill: #e8edf4; stroke: #b8c5d4; stroke-width: 0.45"/>
    <path d="M 429.197436 144.764778 
L 430.284236 138.117831 
L 439.0736 137.579214 
L 444.144387 132.705448 
L 462.857043 131.526516 
L 475.038979 129.3515 
L 476.206926 120.901251 
L 483.705737 111.74088 
L 483.667467 80.156363 
L 503.006619 74.04059 
L 542.713963 47.09951 
L 589.707506 20.959976 
L 611.402394 26.873059 
L 619.115944 34.40518 
L 628.817829 29.308114 
L 632.185888 50.626028 
L 637.317394 54.192686 
L 637.538031 58.554315 
L 643.244526 63.255512 
L 640.261585 69.158673 
L 634.977478 96.988115 
L 634.254599 114.82552 
L 616.761189 127.757211 
L 610.839682 145.822166 
L 616.549013 150.902521 
L 616.518538 159.724131 
L 625.313572 160.039859 
L 623.942227 166.499708 
L 620.071278 167.286371 
L 619.629755 171.652705 
L 617.079124 171.955677 
L 607.799336 156.941399 
L 604.580397 156.395696 
L 593.856976 164.061408 
L 583.238444 160.059703 
L 575.857277 159.259574 
L 571.899867 161.185127 
L 563.860313 160.769117 
L 555.770441 166.613456 
L 548.776228 166.948673 
L 532.178349 159.860202 
L 525.678812 163.226907 
L 518.680346 162.993034 
L 513.537272 157.813461 
L 499.790514 152.6959 
L 485.051569 154.320252 
L 481.480402 157.286184 
L 479.551306 165.173366 
L 475.620118 170.70304 
L 474.667618 182.946279 
L 464.209961 175.054136 
L 459.293672 175.089572 
L 454.689922 179.106514 
L 455.000335 169.714041 
L 439.187701 166.603534 
L 438.761769 159.966862 
L 431.039007 151.011661 
z
" clip-path="url(#p1ec619482c)" style="fill: #e8edf4; stroke: #b8c5d4; stroke-width: 0.45"/>
    <path d="M 462.057623 257.021935 
L 462.497729 226.191834 
L 465.083086 217.541377 
L 475.960296 204.847401 
L 474.515246 201.158589 
L 477.21754 195.637775 
L 474.133254 187.502546 
L 475.620118 170.70304 
L 479.551306 165.173366 
L 481.480402 157.286184 
L 485.051569 154.320252 
L 499.790514 152.6959 
L 513.537272 157.813461 
L 518.680346 162.993034 
L 525.678812 163.226907 
L 532.178349 159.860202 
L 548.776228 166.948673 
L 555.770441 166.613456 
L 563.860313 160.769117 
L 571.899867 161.185127 
L 575.857277 159.259574 
L 583.238444 160.059703 
L 593.856976 164.061408 
L 604.580397 156.395696 
L 607.799336 156.941399 
L 617.079124 171.955677 
L 619.629755 171.652705 
L 625.058438 177.115052 
L 622.839481 184.15037 
L 611.286167 194.762524 
L 605.727082 210.642839 
L 602.817846 213.699131 
L 600.050352 223.299254 
L 592.71596 228.948698 
L 590.591262 235.888341 
L 587.510519 241.411991 
L 586.227763 247.112462 
L 576.806234 251.733576 
L 569.106859 246.097951 
L 563.907796 246.325445 
L 555.739967 254.352242 
L 551.769091 254.475557 
L 541.718231 277.412805 
L 527.480341 282.34823 
L 522.275609 281.627122 
L 517.002132 284.700423 
L 506.032082 284.40064 
L 498.689894 275.822116 
L 494.174733 265.89528 
L 484.465469 256.859641 
z
" clip-path="url(#p1ec619482c)" style="fill: #e8edf4; stroke: #b8c5d4; stroke-width: 0.45"/>
    <path d="M 541.560899 281.202962 
L 541.718231 277.412805 
L 545.246167 267.70744 
L 551.769091 254.475557 
L 555.739967 254.352242 
L 563.907796 246.325445 
L 569.106859 246.097951 
L 576.806234 251.733576 
L 586.227763 247.112462 
L 587.510519 241.411991 
L 590.591262 235.888341 
L 592.71596 228.948698 
L 600.050352 223.299254 
L 602.817846 213.699131 
L 605.727082 210.642839 
L 611.286167 194.762524 
L 622.839481 184.15037 
L 625.058438 177.115052 
L 619.629755 171.652705 
L 620.071278 167.286371 
L 623.942227 166.499708 
L 629.394651 175.2816 
L 630.310653 184.380699 
L 629.80889 193.490398 
L 637.273684 205.956525 
L 629.613996 205.822225 
L 625.744465 206.798821 
L 619.494392 205.421098 
L 616.514995 211.892641 
L 624.609827 219.896759 
L 630.582796 222.224856 
L 636.83783 237.355716 
L 627.792623 254.96917 
L 624.501396 257.458852 
L 623.443298 268.090141 
L 624.808265 273.866089 
L 623.703393 277.952839 
L 630.184504 285.114661 
L 631.353868 290.038391 
L 636.416859 297.115877 
L 642.688901 301.528631 
L 644.74769 311.758084 
L 643.761172 319.163347 
L 621.775715 312.303433 
L 602.76115 311.017842 
L 594.64293 312.78429 
L 586.308555 310.947326 
L 579.791301 311.848444 
L 557.474169 311.535551 
L 559.47697 300.707596 
L 554.117032 291.640774 
L 547.859872 289.314803 
L 545.073243 283.169619 
z
" clip-path="url(#p1ec619482c)" style="fill: #e8edf4; stroke: #b8c5d4; stroke-width: 0.45"/>
    <path d="M 424.460095 196.019413 
L 425.469292 191.743793 
L 437.479721 192.036488 
L 435.734889 199.257487 
L 444.686546 208.108863 
L 445.207445 214.839438 
L 447.969978 217.665046 
L 447.345609 249.160621 
L 450.723298 258.621837 
L 439.681669 261.547373 
L 432.965268 248.031653 
L 431.875988 241.210364 
L 434.90783 228.85763 
L 431.467774 223.855233 
L 430.183954 203.091938 
z
" clip-path="url(#p1ec619482c)" style="fill: #e8edf4; stroke: #b8c5d4; stroke-width: 0.45"/>
    <path d="M 380.648639 257.136391 
L 384.22512 241.649761 
L 390.004258 230.130819 
L 384.495137 200.292552 
L 384.817244 192.511675 
L 408.639666 191.865336 
L 414.698388 192.864965 
L 419.126379 190.651324 
L 425.469292 191.743793 
L 424.460095 196.019413 
L 430.183954 203.091938 
L 431.467774 223.855233 
L 434.90783 228.85763 
L 431.875988 241.210364 
L 432.965268 248.031653 
L 439.681669 261.547373 
L 418.180966 269.575233 
L 410.556005 274.278202 
L 398.19831 278.256519 
L 385.973142 274.361475 
L 386.596094 268.950155 
z
" clip-path="url(#p1ec619482c)" style="fill: #e8edf4; stroke: #b8c5d4; stroke-width: 0.45"/>
    <path d="M 307.1605 254.15912 
L 310.142378 248.066734 
L 308.771033 241.43715 
L 309.403907 237.448556 
L 311.578923 237.432964 
L 312.386848 231.451491 
L 311.327333 228.803059 
L 312.637729 226.896642 
L 317.731195 225.247485 
L 314.343583 214.26893 
L 311.182403 208.600704 
L 312.283377 203.944865 
L 316.805625 201.635903 
L 320.60216 203.695046 
L 331.193053 203.808084 
L 333.717107 199.806025 
L 336.082766 200.073562 
L 340.042657 198.527166 
L 342.165229 204.392766 
L 351.026172 200.629895 
L 357.193326 203.619923 
L 359.590168 208.155637 
L 365.756613 211.051408 
L 370.55384 207.602139 
L 376.979671 207.08124 
L 386.365765 210.61768 
L 390.004258 230.130819 
L 384.22512 241.649761 
L 380.648639 257.136391 
L 386.596094 268.950155 
L 385.973142 274.361475 
L 379.7337 274.501089 
L 370.164761 271.819703 
L 361.372562 271.978098 
L 345.126909 274.372105 
L 322.025949 283.360615 
L 319.3761 283.000238 
L 320.429236 271.705247 
L 321.74105 269.988408 
L 321.323622 264.584884 
L 315.515073 258.840827 
L 311.158661 257.924117 
z
" clip-path="url(#p1ec619482c)" style="fill: #e8edf4; stroke: #b8c5d4; stroke-width: 0.45"/>
    <path d="M 217.641446 191.445783 
L 223.739147 184.761274 
L 227.901373 185.015699 
L 231.477855 182.713824 
L 234.503318 182.691854 
L 236.665224 180.874025 
L 235.497986 176.329452 
L 237.000087 174.895741 
L 237.250614 170.246634 
L 243.869922 170.38802 
L 253.727305 173.731338 
L 256.750642 173.424823 
L 257.779682 171.899689 
L 265.257587 172.984008 
L 267.237355 172.210456 
L 268.029688 177.231988 
L 273.784375 175.388645 
L 276.057194 175.846115 
L 279.864359 179.328338 
L 285.734211 180.423997 
L 297.221262 173.701218 
L 299.966077 174.060886 
L 303.013511 177.073947 
L 304.647785 180.856307 
L 310.267819 186.601427 
L 307.456384 190.131488 
L 306.921312 194.593497 
L 309.842595 193.244477 
L 311.556245 194.844379 
L 310.829113 198.928294 
L 315.017916 202.881807 
L 312.283377 203.944865 
L 311.182403 208.600704 
L 314.343583 214.26893 
L 317.731195 225.247485 
L 312.637729 226.896642 
L 311.327333 228.803059 
L 312.386848 231.451491 
L 311.578923 237.432964 
L 305.525162 237.097038 
L 302.728257 242.618916 
L 298.85093 242.551943 
L 296.182654 239.631014 
L 297.088734 234.122956 
L 291.355307 225.722672 
L 281.06774 228.357992 
L 281.220821 223.329728 
L 279.020291 219.741553 
L 279.464295 215.754376 
L 272.674543 205.085172 
L 261.70591 205.069934 
L 258.509649 207.653874 
L 254.730123 207.965704 
L 250.807439 214.728525 
L 243.475882 220.75819 
L 232.127383 207.275425 
L 225.192701 202.77302 
L 223.635676 196.713589 
L 221.628976 193.692733 
z
" clip-path="url(#p1ec619482c)" style="fill: #e8edf4; stroke: #b8c5d4; stroke-width: 0.45"/>
    <path d="M 196.423516 173.00775 
L 203.688455 170.773556 
L 208.229839 171.215079 
L 211.906602 169.67081 
L 237.250614 170.246634 
L 237.000087 174.895741 
L 235.497986 176.329452 
L 236.665224 180.874025 
L 234.503318 182.691854 
L 231.477855 182.713824 
L 227.901373 185.015699 
L 223.739147 184.761274 
L 217.641446 191.445783 
L 210.319811 185.712356 
L 204.545634 184.805568 
L 201.39721 180.939226 
L 201.477294 178.852088 
L 197.295932 175.94179 
z
" clip-path="url(#p1ec619482c)" style="fill: #e8edf4; stroke: #b8c5d4; stroke-width: 0.45"/>
    <path d="M 268.268167 249.79314 
L 271.545575 245.405545 
L 272.27377 241.416597 
L 284.844431 227.572038 
L 291.355307 225.722672 
L 297.088734 234.122956 
L 296.182654 239.631014 
L 298.85093 242.551943 
L 302.728257 242.618916 
L 305.525162 237.097038 
L 309.403907 237.448556 
L 308.771033 241.43715 
L 310.142378 248.066734 
L 307.1605 254.15912 
L 311.158661 257.924117 
L 315.515073 258.840827 
L 321.323622 264.584884 
L 321.74105 269.988408 
L 320.429236 271.705247 
L 319.3761 283.000238 
L 315.783672 283.121073 
L 301.648544 276.583975 
L 289.187378 266.145453 
L 277.503307 258.641681 
z
" clip-path="url(#p1ec619482c)" style="fill: #e8edf4; stroke: #b8c5d4; stroke-width: 0.45"/>
    <path d="M 243.475882 220.75819 
L 250.807439 214.728525 
L 254.730123 207.965704 
L 258.509649 207.653874 
L 261.70591 205.069934 
L 272.674543 205.085172 
L 279.464295 215.754376 
L 279.020291 219.741553 
L 281.220821 223.329728 
L 281.06774 228.357992 
L 284.844431 227.572038 
L 272.27377 241.416597 
L 271.545575 245.405545 
L 268.268167 249.79314 
L 264.573332 248.775794 
L 254.700358 243.251081 
L 247.555899 235.904287 
L 245.156223 230.894449 
z
" clip-path="url(#p1ec619482c)" style="fill: #e8edf4; stroke: #b8c5d4; stroke-width: 0.45"/>
    <path d="M 350.117966 192.668299 
L 353.858159 186.855144 
L 353.541368 182.209934 
L 364.427436 170.843718 
L 366.44016 161.438489 
L 370.19807 158.091628 
L 376.830134 159.94064 
L 382.577735 157.148341 
L 384.443047 153.625367 
L 395.08355 147.477702 
L 397.70009 143.190743 
L 410.518444 137.501966 
L 418.068282 135.549837 
L 421.491329 138.180905 
L 430.284236 138.117831 
L 429.197436 144.764778 
L 431.039007 151.011661 
L 438.761769 159.966862 
L 439.187701 166.603534 
L 455.000335 169.714041 
L 454.689922 179.106514 
L 451.693516 183.207083 
L 444.989872 184.488422 
L 442.196156 190.484424 
L 437.479721 192.036488 
L 419.126379 190.651324 
L 414.698388 192.864965 
L 408.639666 191.865336 
L 384.817244 192.511675 
L 384.495137 200.292552 
L 386.365765 210.61768 
L 376.979671 207.08124 
L 370.55384 207.602139 
L 365.756613 211.051408 
L 359.590168 208.155637 
L 357.193326 203.619923 
L 351.026172 200.629895 
z
" clip-path="url(#p1ec619482c)" style="fill: #e8edf4; stroke: #b8c5d4; stroke-width: 0.45"/>
    <path d="M 545.801083 358.097847 
L 546.241189 353.541581 
L 549.235469 349.156821 
L 555.331044 329.004075 
L 579.909654 328.352066 
L 579.791301 311.848444 
L 586.308555 310.947326 
L 594.64293 312.78429 
L 602.76115 311.017842 
L 604.468421 311.765526 
L 603.471273 317.747708 
L 607.30466 324.834053 
L 617.5086 323.716424 
L 620.931647 326.442105 
L 614.994113 342.32561 
L 621.482311 350.436034 
L 622.977679 361.143863 
L 621.246312 370.262066 
L 617.038728 376.742468 
L 604.931915 376.165582 
L 597.603901 369.579583 
L 596.512495 375.65744 
L 587.258929 377.337072 
L 582.55596 380.785632 
L 587.727383 389.854226 
L 577.286027 397.423908 
L 563.192713 383.581475 
L 554.12908 372.264867 
z
" clip-path="url(#p1ec619482c)" style="fill: #e8edf4; stroke: #b8c5d4; stroke-width: 0.45"/>
    <path d="M 552.762696 326.936073 
L 557.474169 311.535551 
L 579.791301 311.848444 
L 579.909654 328.352066 
L 555.331044 329.004075 
z
" clip-path="url(#p1ec619482c)" style="fill: #e8edf4; stroke: #b8c5d4; stroke-width: 0.45"/>
    <path d="M 194.173377 162.495169 
L 195.926005 156.411996 
L 210.862679 156.019374 
L 213.959721 152.772086 
L 218.307629 152.550969 
L 223.72072 155.926533 
L 227.976496 155.990671 
L 232.498391 153.681355 
L 235.269074 157.645144 
L 229.334375 160.723405 
L 223.375581 160.481737 
L 217.492618 157.583841 
L 206.656513 162.784675 
z
" clip-path="url(#p1ec619482c)" style="fill: #e8edf4; stroke: #b8c5d4; stroke-width: 0.45"/>
    <path d="M 306.042517 -32.855919 
L 306.18355 -52.680534 
L 328.330592 -62.800847 
L 342.025614 -64.891882 
L 353.250798 -68.577504 
L 358.496281 -75.444859 
L 374.531094 -80.872479 
L 375.120028 -91.025746 
L 383.053985 -92.221687 
L 389.257992 -97.293891 
L 407.205955 -99.605334 
L 409.720441 -104.935152 
L 406.106753 -107.849349 
L 401.369766 -122.32749 
L 400.553338 -130.668598 
L 395.384041 -139.452292 
L 408.567732 -146.946497 
L 423.394911 -149.330227 
L 432.053165 -154.988885 
L 445.260598 -159.16316 
L 491.18754 -162.720507 
L 498.104504 -160.683687 
L 511.019242 -166.088983 
L 525.673851 -166.194935 
L 531.251362 -163.003989 
L 540.630369 -163.836717 
L 537.844448 -156.797856 
L 540.018756 -143.724014 
L 536.790603 -132.413431 
L 528.335748 -124.764019 
L 529.5448 -114.433576 
L 540.760771 -106.262912 
L 540.879124 -102.943336 
L 549.333979 -97.408347 
L 555.183633 -72.78934 
L 559.620129 -60.680755 
L 560.365687 -54.308431 
L 557.950419 -43.120099 
L 558.941189 -36.867546 
L 557.198483 -29.361648 
L 558.394777 -20.73883 
L 552.95192 -15.007884 
L 561.060927 -5.011949 
L 561.576156 0.864636 
L 566.452757 8.512275 
L 572.864415 5.99956 
L 583.68918 12.37153 
L 589.707506 20.959976 
L 542.713963 47.09951 
L 503.006619 74.04059 
L 483.667467 80.156363 
L 468.454398 81.499005 
L 468.297065 72.773779 
L 453.407874 66.620799 
L 450.147121 60.194613 
z
" clip-path="url(#p1ec619482c)" style="fill: #e8edf4; stroke: #b8c5d4; stroke-width: 0.45"/>
    <path d="M 191.719839 49.065459 
L 192.366887 42.709789 
L 197.634694 38.972786 
L 202.122216 31.826201 
L 201.237752 27.18489 
L 205.952768 17.508227 
L 213.586234 8.789025 
L 218.203449 6.579281 
L 221.833438 -1.419876 
L 222.158734 -8.725919 
L 227.109395 -17.203453 
L 236.244961 -22.201952 
L 244.937941 -36.207741 
L 252.084526 -41.666544 
L 264.837679 -43.181402 
L 275.644018 -52.555094 
L 282.519878 -56.209178 
L 293.968304 -67.66044 
L 290.541005 -84.72323 
L 295.751407 -96.522465 
L 297.590497 -103.744173 
L 306.411753 -113.009078 
L 330.342252 -124.943676 
L 343.817221 -147.565551 
L 353.912729 -147.499642 
L 362.180486 -141.678336 
L 375.222082 -142.626584 
L 389.426663 -139.598994 
L 395.384041 -139.452292 
L 400.553338 -130.668598 
L 401.369766 -122.32749 
L 406.106753 -107.849349 
L 409.720441 -104.935152 
L 407.205955 -99.605334 
L 389.257992 -97.293891 
L 383.053985 -92.221687 
L 375.120028 -91.025746 
L 374.531094 -80.872479 
L 358.496281 -75.444859 
L 353.250798 -68.577504 
L 342.025614 -64.891882 
L 328.330592 -62.800847 
L 306.18355 -52.680534 
L 306.300486 -36.430984 
L 304.21264 -36.430984 
L 304.527305 -29.083835 
L 296.049772 -28.641957 
L 291.629576 -25.521528 
L 285.402182 -25.521528 
L 280.439827 -27.302504 
L 268.902104 -25.829815 
L 264.435843 -15.141829 
L 260.149593 -14.137594 
L 253.701083 3.152691 
L 234.6362 17.951876 
L 230.109699 36.889192 
L 224.491437 43.049968 
L 222.844052 47.99177 
z
" clip-path="url(#p1ec619482c)" style="fill: #e8edf4; stroke: #b8c5d4; stroke-width: 0.45"/>
    <path d="M 552.95192 -15.007884 
L 558.394777 -20.73883 
L 557.198483 -29.361648 
L 558.941189 -36.867546 
L 557.950419 -43.120099 
L 560.365687 -54.308431 
L 559.620129 -60.680755 
L 555.183633 -72.78934 
L 561.874521 -75.967884 
L 563.061602 -81.762259 
L 561.603086 -87.443241 
L 571.020363 -92.728057 
L 575.24283 -97.12203 
L 581.928047 -101.059243 
L 582.703371 -111.593085 
L 598.811109 -106.872411 
L 604.570423 -108.052389 
L 616.027611 -105.764023 
L 634.225783 -99.635383 
L 640.64832 -87.445851 
L 672.289234 -79.043246 
L 686.899337 -72.224777 
L 693.586834 -75.782674 
L 700.160229 -82.090423 
L 696.964526 -92.595977 
L 701.265874 -99.266743 
L 711.147703 -105.693257 
L 720.58944 -107.563886 
L 739.141851 -104.757669 
L 743.818971 -98.626149 
L 748.925211 -98.568137 
L 753.291429 -96.228617 
L 766.918491 -94.619794 
L 770.260389 -90.0912 
L 765.296503 -83.510263 
L 767.418789 -77.6448 
L 763.886674 -69.177463 
L 768 -58.130119 
L 768 68.529737 
L 752.228571 68.571429 
L 752.059337 74.324983 
L 642.663086 21.809554 
L 619.115944 34.40518 
L 611.402394 26.873059 
L 589.707506 20.959976 
L 583.68918 12.37153 
L 572.864415 5.99956 
L 566.452757 8.512275 
L 561.576156 0.864636 
L 561.060927 -5.011949 
z
" clip-path="url(#p1ec619482c)" style="fill: #e8edf4; stroke: #b8c5d4; stroke-width: 0.45"/>
   </g>
   <g id="PathCollection_1">
    <defs>
     <path id="me6d25135b6" d="M 0 2.12132 
C 0.562581 2.12132 1.102195 1.897805 1.5 1.5 
C 1.897805 1.102195 2.12132 0.562581 2.12132 0 
C 2.12132 -0.562581 1.897805 -1.102195 1.5 -1.5 
C 1.102195 -1.897805 0.562581 -2.12132 0 -2.12132 
C -0.562581 -2.12132 -1.102195 -1.897805 -1.5 -1.5 
C -1.897805 -1.102195 -2.12132 -0.562581 -2.12132 0 
C -2.12132 0.562581 -1.897805 1.102195 -1.5 1.5 
C -1.102195 1.897805 -0.562581 2.12132 0 2.12132 
z
" style="stroke: #ffffff; stroke-width: 0.5"/>
    </defs>
    <g clip-path="url(#p1ec619482c)">
     <use xlink:href="#me6d25135b6" x="96" y="123.428571" style="fill: #8aa0b7; stroke: #ffffff; stroke-width: 0.5"/>
     <use xlink:href="#me6d25135b6" x="197.942857" y="158.171429" style="fill: #8aa0b7; stroke: #ffffff; stroke-width: 0.5"/>
     <use xlink:href="#me6d25135b6" x="562.285714" y="315.428571" style="fill: #8aa0b7; stroke: #ffffff; stroke-width: 0.5"/>
     <use xlink:href="#me6d25135b6" x="219.428571" y="178.285714" style="fill: #8aa0b7; stroke: #ffffff; stroke-width: 0.5"/>
     <use xlink:href="#me6d25135b6" x="521.142857" y="329.142857" style="fill: #8aa0b7; stroke: #ffffff; stroke-width: 0.5"/>
     <use xlink:href="#me6d25135b6" x="441.142857" y="233.142857" style="fill: #8aa0b7; stroke: #ffffff; stroke-width: 0.5"/>
    </g>
   </g>
   <g id="PatchCollection_2">
    <defs>
     <path id="m9763c8b98c" d="M 217.641446 -192.554217 
L 223.739147 -199.238726 
L 227.901373 -198.984301 
L 231.477855 -201.286176 
L 234.503318 -201.308146 
L 236.665224 -203.125975 
L 235.497986 -207.670548 
L 237.000087 -209.104259 
L 237.250614 -213.753366 
L 243.869922 -213.61198 
L 253.727305 -210.268662 
L 256.750642 -210.575177 
L 257.779682 -212.100311 
L 265.257587 -211.015992 
L 267.237355 -211.789544 
L 268.029688 -206.768012 
L 273.784375 -208.611355 
L 276.057194 -208.153885 
L 279.864359 -204.671662 
L 285.734211 -203.576003 
L 297.221262 -210.298782 
L 299.966077 -209.939114 
L 303.013511 -206.926053 
L 304.647785 -203.143693 
L 310.267819 -197.398573 
L 307.456384 -193.868512 
L 306.921312 -189.406503 
L 309.842595 -190.755523 
L 311.556245 -189.155621 
L 310.829113 -185.071706 
L 315.017916 -181.118193 
L 312.283377 -180.055135 
L 311.182403 -175.399296 
L 314.343583 -169.73107 
L 317.731195 -158.752515 
L 312.637729 -157.103358 
L 311.327333 -155.196941 
L 312.386848 -152.548509 
L 311.578923 -146.567036 
L 305.525162 -146.902962 
L 302.728257 -141.381084 
L 298.85093 -141.448057 
L 296.182654 -144.368986 
L 297.088734 -149.877044 
L 291.355307 -158.277328 
L 281.06774 -155.642008 
L 281.220821 -160.670272 
L 279.020291 -164.258447 
L 279.464295 -168.245624 
L 272.674543 -178.914828 
L 261.70591 -178.930066 
L 258.509649 -176.346126 
L 254.730123 -176.034296 
L 250.807439 -169.271475 
L 243.475882 -163.24181 
L 232.127383 -176.724575 
L 225.192701 -181.22698 
L 223.635676 -187.286411 
L 221.628976 -190.307267 
z
" style="stroke: #b45309; stroke-width: 1.15"/>
    </defs>
    <g clip-path="url(#p1ec619482c)">
     <use xlink:href="#m9763c8b98c" x="0" y="384" style="fill: #f59e0b; stroke: #b45309; stroke-width: 1.15"/>
    </g>
   </g>
   <g id="PathCollection_2">
    <defs>
     <path id="meef8747562" d="M 0 3.316625 
C 0.879579 3.316625 1.723251 2.967164 2.345208 2.345208 
C 2.967164 1.723251 3.316625 0.879579 3.316625 0 
C 3.316625 -0.879579 2.967164 -1.723251 2.345208 -2.345208 
C 1.723251 -2.967164 0.879579 -3.316625 0 -3.316625 
C -0.879579 -3.316625 -1.723251 -2.967164 -2.345208 -2.345208 
C -2.967164 -1.723251 -3.316625 -0.879579 -3.316625 0 
C -3.316625 0.879579 -2.967164 1.723251 -2.345208 2.345208 
C -1.723251 2.967164 -0.879579 3.316625 0 3.316625 
z
" style="stroke: #ffffff"/>
    </defs>
    <g clip-path="url(#p1ec619482c)">
     <use xlink:href="#meef8747562" x="288" y="192" style="fill: #f97316; stroke: #ffffff"/>
    </g>
   </g>
   <g id="PathCollection_3">
    <path d="M 288 196.449719 
C 289.180079 196.449719 290.311984 195.980869 291.146427 195.146427 
C 291.980869 194.311984 292.449719 193.180079 292.449719 192 
C 292.449719 190.819921 291.980869 189.688016 291.146427 188.853573 
C 290.311984 188.019131 289.180079 187.550281 288 187.550281 
C 286.819921 187.550281 285.688016 188.019131 284.853573 188.853573 
C 284.019131 189.688016 283.550281 190.819921 283.550281 192 
C 283.550281 193.180079 284.019131 194.311984 284.853573 195.146427 
C 285.688016 195.980869 286.819921 196.449719 288 196.449719 
L 288 196.449719 
z
" clip-path="url(#p1ec619482c)" style="fill: none; stroke: #7c2d12; stroke-width: 1.1"/>
   </g>
  </g>
 </g>
 <defs>
  <clipPath id="p1ec619482c">
   <rect x="0" y="-0" width="576" height="384"/>
  </clipPath>
 </defs>
</svg>
