<?xml version="1.0" encoding="utf-8" standalone="no"?>
<!DOCTYPE svg PUBLIC "-//W3C//DTD SVG 1.1//EN"
  "http://www.w3.org/Graphics/SVG/1.1/DTD/svg11.dtd">
<svg xmlns:xlink="http://www.w3.org/1999/xlink" width="576pt" height="384pt" viewBox="0 0 576 384" xmlns="http://www.w3.org/2000/svg" version="1.1">
 <metadata>
  <rdf:RDF xmlns:dc="http://purl.org/dc/elements/1.1/" xmlns:cc="http://creativecommons.org/ns#" xmlns:rdf="http://www.w3.org/1999/02/22-rdf-syntax-ns#">
   <cc:Work>
    <dc:type rdf:resource="http://purl.org/dc/dcmitype/StillImage"/>
    <dc:date>2026-06-09T04:57:01.146257</dc:date>
    <dc:format>image/svg+xml</dc:format>
    <dc:creator>
     <cc:Agent>
      <dc:title>Matplotlib v3.10.8, https://matplotlib.org/</dc:title>
     </cc:Agent>
    </dc:creator>
   </cc:Work>
  </rdf:RDF>
 </metadata>
 <defs>
  <style type="text/css">*{stroke-linejoin: round; stroke-linecap: butt}</style>
 </defs>
 <g id="figure_1">
  <g id="patch_1">
   <path d="M 0 384 
L 576 384 
L 576 0 
L 0 0 
z
" style="fill: #eaf3ff"/>
  </g>
  <g id="axes_1">
   <g id="PatchCollection_1">
    <path d="M 183.013755 73.479361 
L 184.705434 67.290095 
L 216.865208 71.49697 
L 223.778274 67.222627 
L 215.008329 58.905119 
L 215.153188 51.571365 
L 203.039571 48.576943 
L 207.36402 43.275189 
L 235.730661 47.138767 
L 237.410434 57.595431 
L 235.942989 64.976314 
L 231.261848 68.211837 
L 236.203438 73.976447 
L 235.808548 79.192377 
L 223.056458 75.929072 
L 213.995305 77.260587 
L 202.280548 75.872517 
L 193.297282 79.461259 
z
" clip-path="url(#p691eaa3ed7)" style="fill: #e8edf4; stroke: #b8c5d4; stroke-width: 0.45"/>
    <path d="M 231.261848 68.211837 
L 235.942989 64.976314 
L 237.410434 57.595431 
L 235.730661 47.138767 
L 238.131755 43.866037 
L 253.119243 43.954837 
L 264.492192 48.896923 
L 269.552348 48.41472 
L 273.038399 55.225591 
L 283.543184 54.842607 
L 282.924555 60.564552 
L 291.46729 61.258091 
L 300.903489 68.302127 
L 293.773133 76.117587 
L 284.64104 71.94147 
L 269.511669 71.832826 
L 266.049926 75.334752 
L 258.678965 76.517935 
L 255.757469 71.860111 
L 249.408958 74.616408 
L 241.723969 87.763884 
L 236.780891 84.710923 
L 236.203438 73.976447 
z
" clip-path="url(#p691eaa3ed7)" style="fill: #e8edf4; stroke: #b8c5d4; stroke-width: 0.45"/>
    <path d="M 192.053079 570.113853 
L 197.118692 566.603494 
L 197.097856 558.493353 
L 208.703473 552.950994 
L 206.789544 542.568744 
L 211.689462 535.888345 
L 213.082989 526.9279 
L 235.03861 513.860791 
L 250.774208 510.166877 
L 253.348438 507.280603 
L 270.650204 508.181509 
L 279.734673 447.210595 
L 276.728344 436.216166 
L 268.211407 429.211322 
L 268.309137 415.261166 
L 279.121997 412.098072 
L 282.961266 414.085423 
L 283.610157 406.73133 
L 272.359743 404.745962 
L 272.122114 392.73206 
L 309.531551 393.161181 
L 315.882048 386.542794 
L 321.216048 392.632345 
L 324.959075 403.958166 
L 328.582544 401.591798 
L 339.153309 411.746837 
L 354.081266 410.502634 
L 357.797505 404.6269 
L 379.981329 396.993505 
L 382.212758 388.862033 
L 395.92727 383.399048 
L 394.888946 379.363822 
L 378.624016 377.713814 
L 375.958505 365.622025 
L 376.732907 352.74988 
L 368.139571 347.772572 
L 371.737739 346.005486 
L 385.951817 348.462142 
L 401.218606 353.261353 
L 406.760965 348.722591 
L 420.567751 345.743548 
L 442.043649 338.556142 
L 449.06536 331.228837 
L 446.523376 325.810998 
L 456.505278 324.962181 
L 460.973594 329.386345 
L 458.476755 337.816962 
L 465.073809 340.725064 
L 469.477633 349.64731 
L 464.152067 356.411548 
L 461.097122 372.755853 
L 466.011923 382.463416 
L 467.403962 391.347959 
L 479.215458 400.356525 
L 488.639751 401.309025 
L 490.76204 397.548634 
L 505.517356 393.350689 
L 511.7602 388.244396 
L 537.490598 390.757111 
L 539.220477 386.834002 
L 535.999837 383.017056 
L 537.920215 377.457334 
L 545.668704 379.1634 
L 554.734321 377.200357 
L 574.1172 385.229634 
L 580.060403 380.023627 
L 584.355087 380.826306 
L 586.973469 386.231248 
L 596.166583 384.859052 
L 603.524645 377.565978 
L 609.420719 363.427306 
L 620.77829 345.856658 
L 627.31879 344.949302 
L 632.068391 355.568685 
L 642.837594 389.146294 
L 653.105743 392.315837 
L 653.623665 405.569478 
L 639.182376 421.375025 
L 645.154352 427.162455 
L 679.093118 430.177712 
L 679.785665 449.422181 
L 694.368837 436.823384 
L 718.529594 443.724048 
L 750.418501 455.44972 
L 759.789712 466.701127 
L 756.641501 477.329439 
L 778.967208 471.412033 
L 816.332989 481.567072 
L 845.017626 480.818962 
L 873.400637 496.708845 
L 897.921559 518.218478 
L 912.711602 523.756869 
L 929.130321 524.526806 
L 936.088532 530.583119 
L 945.792126 566.646158 
L 938.146329 598.387228 
L 928.378243 610.922525 
L 901.31484 637.638166 
L 889.082657 659.343259 
L 874.869571 675.988197 
L 870.069368 676.363244 
L 864.705106 690.489017 
L 866.067876 726.463752 
L 858.675087 768.717048 
L 852.604387 776.2924 
L 849.200192 801.959298 
L 829.732977 827.022947 
L 826.46868 846.852806 
L 810.928048 855.173291 
L 806.432942 866.681673 
L 785.573688 866.636033 
L 755.370012 874.013939 
L 741.846993 882.555681 
L 720.343809 888.164517 
L 697.747731 903.452142 
L 681.495204 922.495197 
L 678.700708 936.831314 
L 681.893071 947.43383 
L 678.306809 966.830103 
L 673.949618 976.19933 
L 660.531274 986.766127 
L 639.228016 1020.558048 
L 622.344458 1035.788127 
L 609.291239 1044.767423 
L 600.53568 1063.030619 
L 587.833696 1074.009173 
L 582.517555 1063.134798 
L 590.983891 1054.027509 
L 579.879329 1040.963377 
L 545.059005 1018.050791 
L 537.921704 1018.611377 
L 518.668305 1003.762298 
L 506.205438 1005.809181 
L 531.822727 979.629322 
L 553.492102 960.989095 
L 582.552282 942.586994 
L 582.9437 927.253728 
L 573.311048 916.170994 
L 563.802419 919.850025 
L 570.173255 897.415673 
L 570.183176 886.859791 
L 563.273583 883.37622 
L 556.072286 886.480775 
L 548.913653 885.629478 
L 546.669325 878.238673 
L 544.882891 860.644212 
L 541.287204 854.909369 
L 528.320305 849.713283 
L 520.483016 853.473673 
L 500.21461 849.787697 
L 501.491059 823.723923 
L 495.813266 813.048978 
L 501.815008 809.080228 
L 499.968051 798.1364 
L 505.22863 789.723642 
L 508.639274 774.60072 
L 504.104481 762.663712 
L 493.616563 757.273158 
L 491.557278 749.696814 
L 494.376579 738.608127 
L 457.566919 737.815369 
L 450.183059 715.4594 
L 455.785942 715.138923 
L 455.532934 706.859119 
L 451.791395 701.253259 
L 450.944563 690.15465 
L 439.792872 684.460486 
L 427.714477 684.649002 
L 419.768048 679.072908 
L 406.789243 675.268861 
L 399.235223 668.095345 
L 377.734024 664.926298 
L 356.884196 647.728712 
L 358.427544 634.857064 
L 356.06713 627.476181 
L 358.110044 613.086486 
L 332.98736 616.337884 
L 322.871016 623.547119 
L 306.082708 631.327853 
L 301.79993 637.135127 
L 277.63818 635.929619 
L 266.807958 639.23658 
L 258.073235 637.031939 
L 259.355637 607.866587 
L 243.601684 619.181494 
L 226.658098 618.6854 
L 219.397766 608.444041 
L 206.655102 607.330806 
L 210.712653 599.08672 
L 200.043661 587.405697 
z
" clip-path="url(#p691eaa3ed7)" style="fill: #e8edf4; stroke: #b8c5d4; stroke-width: 0.45"/>
    <path d="M 95.982044 393.182017 
L 103.145637 391.741361 
L 102.295333 382.123095 
L 106.79788 375.168853 
L 116.322383 373.88149 
L 131.756356 351.743306 
L 124.679579 347.174283 
L 128.302055 336.031025 
L 123.970165 318.46633 
L 128.086751 313.425521 
L 125.056114 297.186884 
L 117.281829 286.959912 
L 119.742454 277.627396 
L 125.930727 279.005544 
L 129.550723 273.298978 
L 125.093321 261.990025 
L 127.423473 259.18263 
L 137.34386 259.79233 
L 151.74943 246.389365 
L 159.655676 244.345955 
L 163.383821 221.771705 
L 174.395614 212.861861 
L 186.494348 212.497232 
L 188.021325 208.495244 
L 203.044532 210.097627 
L 225.634657 196.109767 
L 234.929469 186.860099 
L 241.731411 188.036337 
L 246.768747 193.087068 
L 243.041594 199.551666 
L 230.708704 202.769826 
L 225.838551 212.36924 
L 218.406571 217.874392 
L 212.826508 225.009709 
L 210.478001 238.71033 
L 205.15293 249.937923 
L 215.064387 251.223798 
L 217.526501 260.050794 
L 221.762645 264.275033 
L 223.278708 272.005662 
L 220.998165 279.112205 
L 221.673844 283.11965 
L 226.399633 284.720048 
L 230.972626 291.417314 
L 255.662715 289.570853 
L 266.816391 292.017091 
L 280.329985 308.538998 
L 288.089883 306.485666 
L 301.918993 307.513572 
L 312.862325 305.323814 
L 319.65236 308.623334 
L 316.194587 318.964408 
L 311.909825 325.41065 
L 310.406165 339.180724 
L 314.268751 351.938271 
L 319.726774 357.643349 
L 320.387075 361.942002 
L 310.657188 371.499744 
L 317.623833 375.730927 
L 322.727149 382.444068 
L 328.582544 401.591798 
L 324.959075 403.958166 
L 321.216048 392.632345 
L 315.882048 386.542794 
L 309.531551 393.161181 
L 272.122114 392.73206 
L 272.359743 404.745962 
L 283.610157 406.73133 
L 282.961266 414.085423 
L 279.121997 412.098072 
L 268.309137 415.261166 
L 268.211407 429.211322 
L 276.728344 436.216166 
L 279.734673 447.210595 
L 270.650204 508.181509 
L 261.042356 497.974877 
L 255.308505 497.519462 
L 267.691997 477.979322 
L 252.989266 468.988119 
L 241.466001 470.638127 
L 234.532594 467.316283 
L 223.952899 472.393306 
L 209.656469 469.988244 
L 198.345532 449.857752 
L 189.458012 444.910705 
L 183.32927 435.848064 
L 170.560809 426.754666 
L 165.442114 428.57533 
L 147.795563 417.668212 
L 142.341508 420.723158 
L 126.048301 418.059134 
L 121.370633 409.799173 
L 117.790821 410.105759 
L 98.587032 399.142584 
z
" clip-path="url(#p691eaa3ed7)" style="fill: #e8edf4; stroke: #b8c5d4; stroke-width: 0.45"/>
    <path d="M 19.664965 267.735783 
L 22.276403 260.031447 
L 21.529782 256.556806 
L 24.399684 254.282712 
L 20.406626 251.429181 
L 20.296493 243.701529 
L 27.721032 241.986533 
L 34.615247 248.873306 
L 34.22234 252.941275 
L 41.883516 253.804478 
L 43.696243 252.242775 
L 48.973688 256.960627 
L 58.419809 255.573052 
L 66.587497 250.723736 
L 78.247684 246.851228 
L 84.800587 241.113408 
L 95.401118 242.240037 
L 94.685751 244.128666 
L 105.390958 244.783509 
L 113.934188 248.099896 
L 127.423473 259.18263 
L 125.093321 261.990025 
L 129.550723 273.298978 
L 125.930727 279.005544 
L 119.742454 277.627396 
L 117.281829 286.959912 
L 110.881227 281.421025 
L 106.768114 271.05713 
L 111.511762 265.928017 
L 106.647067 264.612377 
L 103.063286 258.26833 
L 93.498102 252.931353 
L 85.096755 254.15472 
L 81.204899 260.83363 
L 73.449962 265.656654 
L 69.260946 266.326877 
L 67.378766 270.322416 
L 76.537153 280.743857 
L 68.521766 286.042138 
L 59.589102 287.021923 
L 56.264778 275.552236 
L 53.765458 278.816533 
L 47.433317 277.689408 
L 43.558825 269.964236 
L 30.702059 266.442962 
L 22.462438 266.471736 
L 21.869606 270.638923 
z
" clip-path="url(#p691eaa3ed7)" style="fill: #e8edf4; stroke: #b8c5d4; stroke-width: 0.45"/>
    <path d="M -37.473128 216.466974 
L -30.179558 210.28763 
L -17.529663 215.372095 
L -13.114925 212.869302 
L -7.02587 214.471189 
L -3.843429 218.42208 
L 1.822954 219.701009 
L 6.420255 215.632048 
L 11.283462 226.063908 
L 27.721032 241.986533 
L 20.296493 243.701529 
L 20.406626 251.429181 
L 24.399684 254.282712 
L 21.529782 256.556806 
L 22.276403 260.031447 
L 19.664965 267.735783 
L 9.246005 263.47533 
L 5.3477 259.445064 
L 7.55879 256.11181 
L 6.861282 251.869712 
L 1.538196 247.272908 
L -12.626769 241.038002 
L -13.888335 235.421724 
L -18.924679 231.991236 
L -17.690398 237.573283 
L -21.52173 242.161158 
L -25.910175 236.833111 
L -32.079101 234.936048 
L -34.702941 231.066517 
L -34.592808 225.221044 
L -32.050824 219.173166 
z
" clip-path="url(#p691eaa3ed7)" style="fill: #e8edf4; stroke: #b8c5d4; stroke-width: 0.45"/>
    <path d="M -70.627074 177.786048 
L -68.495359 174.816927 
L -65.325816 177.707169 
L -57.902765 175.561068 
L -55.498695 171.175599 
L -52.681378 171.004943 
L -53.089663 161.563287 
L -44.585128 161.246283 
L -40.440265 156.123123 
L -34.776859 160.004064 
L -22.566999 150.052423 
L -22.248011 146.100541 
L -20.405519 146.266732 
L -17.942413 141.678857 
L -15.936706 141.120255 
L -12.663976 144.053658 
L -8.819249 144.921326 
L -4.57616 142.480048 
L 0.274149 142.46715 
L 6.939169 139.9589 
L 9.600215 137.34399 
L 16.181395 137.7364 
L 13.552098 143.865142 
L 15.511173 150.890822 
L 11.088001 157.430826 
L 9.027227 165.156494 
L 8.405622 173.616877 
L 9.920196 187.209845 
L 6.986794 189.095994 
L 5.19143 197.30833 
L 6.511536 202.378904 
L 2.582969 207.288744 
L 3.476434 212.477884 
L 6.420255 215.632048 
L 1.822954 219.701009 
L -3.843429 218.42208 
L -7.02587 214.471189 
L -13.114925 212.869302 
L -17.529663 215.372095 
L -30.179558 210.28763 
L -33.072777 212.758177 
L -48.68832 198.964291 
L -52.915038 192.492252 
z
" clip-path="url(#p691eaa3ed7)" style="fill: #e8edf4; stroke: #b8c5d4; stroke-width: 0.45"/>
    <path d="M -102.975859 148.71297 
L -98.986273 143.838353 
L -100.516226 140.070025 
L -99.16437 136.381072 
L -81.312437 123.684048 
L -79.31814 124.434142 
L -75.1068 121.05872 
L -55.933273 123.127431 
L -47.058156 122.62588 
L -38.629523 118.352529 
L -27.916874 120.649939 
L -19.07946 118.534595 
L -7.262507 121.621291 
L 4.147649 129.514142 
L 11.12868 132.454986 
L 16.181395 137.7364 
L 9.600215 137.34399 
L 6.939169 139.9589 
L 0.274149 142.46715 
L -4.57616 142.480048 
L -8.819249 144.921326 
L -12.663976 144.053658 
L -15.936706 141.120255 
L -17.942413 141.678857 
L -20.405519 146.266732 
L -22.248011 146.100541 
L -22.566999 150.052423 
L -34.776859 160.004064 
L -40.440265 156.123123 
L -44.585128 161.246283 
L -53.089663 161.563287 
L -52.681378 171.004943 
L -55.498695 171.175599 
L -57.902765 175.561068 
L -63.871765 176.350353 
L -67.188648 170.34365 
L -73.019734 168.674294 
L -71.683257 160.983353 
L -74.294695 158.90472 
L -78.246577 157.535502 
L -86.668761 159.82299 
L -87.383632 157.237349 
L -97.315429 150.327755 
z
" clip-path="url(#p691eaa3ed7)" style="fill: #e8edf4; stroke: #b8c5d4; stroke-width: 0.45"/>
    <path d="M 205.15293 249.937923 
L 210.478001 238.71033 
L 212.826508 225.009709 
L 218.406571 217.874392 
L 225.838551 212.36924 
L 230.708704 202.769826 
L 243.041594 199.551666 
L 242.495891 204.088443 
L 231.224641 206.329298 
L 237.487329 215.042689 
L 237.253173 225.083627 
L 228.78386 236.235814 
L 236.051633 251.468869 
L 244.328462 250.222185 
L 248.640012 236.344459 
L 242.686391 229.587166 
L 241.716032 215.052115 
L 265.626262 207.247072 
L 262.966208 198.19733 
L 269.697704 192.140025 
L 276.589438 205.631791 
L 290.054415 205.943337 
L 302.529188 216.650033 
L 303.28077 223.006978 
L 320.520028 223.17565 
L 341.033008 221.202685 
L 352.027438 229.800982 
L 366.711317 232.173798 
L 377.482008 226.176025 
L 377.702274 221.341095 
L 424.493837 219.916314 
L 408.189715 225.587162 
L 414.748571 234.650794 
L 430.103665 236.093435 
L 444.660544 245.534595 
L 447.719954 260.916974 
L 457.726165 260.483388 
L 465.24893 265.009252 
L 450.036712 276.287943 
L 448.358923 283.288322 
L 454.931173 290.41322 
L 450.163215 294.0099 
L 438.348743 297.091634 
L 438.731231 305.957822 
L 433.530184 311.242212 
L 446.523376 325.810998 
L 449.06536 331.228837 
L 442.043649 338.556142 
L 420.567751 345.743548 
L 406.760965 348.722591 
L 401.218606 353.261353 
L 385.951817 348.462142 
L 371.737739 346.005486 
L 368.139571 347.772572 
L 376.732907 352.74988 
L 375.958505 365.622025 
L 378.624016 377.713814 
L 394.888946 379.363822 
L 395.92727 383.399048 
L 382.212758 388.862033 
L 379.981329 396.993505 
L 357.797505 404.6269 
L 354.081266 410.502634 
L 339.153309 411.746837 
L 328.582544 401.591798 
L 322.727149 382.444068 
L 317.623833 375.730927 
L 310.657188 371.499744 
L 320.387075 361.942002 
L 319.726774 357.643349 
L 314.268751 351.938271 
L 310.406165 339.180724 
L 311.909825 325.41065 
L 316.194587 318.964408 
L 319.65236 308.623334 
L 312.862325 305.323814 
L 301.918993 307.513572 
L 288.089883 306.485666 
L 280.329985 308.538998 
L 266.816391 292.017091 
L 255.662715 289.570853 
L 230.972626 291.417314 
L 226.399633 284.720048 
L 221.673844 283.11965 
L 220.998165 279.112205 
L 223.278708 272.005662 
L 221.762645 264.275033 
L 217.526501 260.050794 
L 215.064387 251.223798 
z
" clip-path="url(#p691eaa3ed7)" style="fill: #e8edf4; stroke: #b8c5d4; stroke-width: 0.45"/>
    <path d="M 433.530184 311.242212 
L 438.731231 305.957822 
L 438.348743 297.091634 
L 450.163215 294.0099 
L 454.931173 290.41322 
L 448.358923 283.288322 
L 450.036712 276.287943 
L 465.24893 265.009252 
L 477.855665 272.071642 
L 489.735126 284.580646 
L 490.27438 294.466802 
L 497.508419 294.92172 
L 515.377219 310.971841 
L 512.30888 328.243841 
L 500.653653 333.253892 
L 501.691977 337.78174 
L 498.149868 347.68774 
L 506.657876 361.630951 
L 512.804477 361.653275 
L 515.326122 372.492923 
L 527.051794 389.185486 
L 522.380079 389.873072 
L 511.7602 388.244396 
L 505.517356 393.350689 
L 490.76204 397.548634 
L 488.639751 401.309025 
L 479.215458 400.356525 
L 467.403962 391.347959 
L 466.011923 382.463416 
L 461.097122 372.755853 
L 464.152067 356.411548 
L 469.477633 349.64731 
L 465.073809 340.725064 
L 458.476755 337.816962 
L 460.973594 329.386345 
L 456.505278 324.962181 
L 446.523376 325.810998 
z
" clip-path="url(#p691eaa3ed7)" style="fill: #e8edf4; stroke: #b8c5d4; stroke-width: 0.45"/>
    <path d="M 498.149868 347.68774 
L 501.691977 337.78174 
L 500.653653 333.253892 
L 512.30888 328.243841 
L 515.377219 310.971841 
L 538.381087 314.817064 
L 540.445829 311.356314 
L 555.969594 309.970724 
L 576.613544 315.130595 
L 566.618247 331.638611 
L 568.13679 344.774181 
L 575.674934 356.151595 
L 570.629661 373.1944 
L 565.732719 381.268822 
L 554.734321 377.200357 
L 545.668704 379.1634 
L 537.920215 377.457334 
L 535.999837 383.017056 
L 539.220477 386.834002 
L 537.490598 390.757111 
L 527.051794 389.185486 
L 515.326122 372.492923 
L 512.804477 361.653275 
L 506.657876 361.630951 
z
" clip-path="url(#p691eaa3ed7)" style="fill: #e8edf4; stroke: #b8c5d4; stroke-width: 0.45"/>
    <path d="M 1524.434883 -509.079561 
L 1549.328372 -513.256174 
L 1581.570993 -508.316569 
L 1575.484915 -530.049444 
L 1593.610196 -521.813295 
L 1638.312212 -536.785405 
L 1644.076821 -552.518522 
L 1660.868602 -556.394998 
L 1663.649704 -549.643163 
L 1672.57443 -549.326655 
L 1694.899641 -532.567616 
L 1704.753055 -534.062842 
L 1725.844977 -523.642889 
L 1731.385352 -524.048694 
L 1740.446008 -519.02128 
L 1768.114149 -515.485123 
L 1758.406587 -502.337647 
L 1755.969774 -488.658854 
L 1750.698282 -485.379178 
L 1741.950165 -487.146264 
L 1742.567305 -482.267678 
L 1728.525868 -471.478631 
L 1728.242102 -462.785084 
L 1737.409915 -465.793397 
L 1744.004985 -457.373694 
L 1743.213219 -451.948413 
L 1748.863727 -444.739178 
L 1742.207141 -438.891225 
L 1747.153196 -424.035202 
L 1757.560251 -421.599381 
L 1755.363548 -413.265502 
L 1737.969508 -402.418413 
L 1700.10168 -407.616979 
L 1672.135883 -401.38753 
L 1669.93918 -389.825569 
L 1647.68243 -387.336666 
L 1626.07854 -396.02178 
L 1619.098501 -391.870963 
L 1583.754798 -400.596756 
L 1576.102055 -408.061479 
L 1586.030876 -419.577799 
L 1589.687087 -457.8301 
L 1569.874094 -477.979444 
L 1555.713098 -487.693952 
L 1526.370145 -495.078803 
z
" clip-path="url(#p691eaa3ed7)" style="fill: #e8edf4; stroke: #b8c5d4; stroke-width: 0.45"/>
    <path d="M 565.732719 381.268822 
L 570.629661 373.1944 
L 575.674934 356.151595 
L 568.13679 344.774181 
L 566.618247 331.638611 
L 576.613544 315.130595 
L 597.270887 321.787181 
L 617.599817 337.993572 
L 620.77829 345.856658 
L 609.420719 363.427306 
L 603.524645 377.565978 
L 596.166583 384.859052 
L 586.973469 386.231248 
L 584.355087 380.826306 
L 580.060403 380.023627 
L 574.1172 385.229634 
z
" clip-path="url(#p691eaa3ed7)" style="fill: #e8edf4; stroke: #b8c5d4; stroke-width: 0.45"/>
    <path d="M 1776.656883 -385.668799 
L 1780.531376 -392.80362 
L 1792.896016 -400.135389 
L 1796.160313 -383.671526 
L 1789.819243 -368.839811 
L 1781.101883 -372.74903 
z
" clip-path="url(#p691eaa3ed7)" style="fill: #e8edf4; stroke: #b8c5d4; stroke-width: 0.45"/>
    <path d="M 321.553391 72.866685 
L 324.274962 70.060779 
L 339.985258 70.172896 
L 349.798985 71.86408 
L 353.260727 75.678048 
L 348.342454 80.518931 
L 322.672083 81.082494 
z
" clip-path="url(#p691eaa3ed7)" style="fill: #e8edf4; stroke: #b8c5d4; stroke-width: 0.45"/>
    <path d="M 108.52379 75.717736 
L 110.827649 71.329291 
L 123.271665 70.638232 
L 136.192923 72.359677 
L 146.393106 76.970869 
L 149.574555 82.22847 
L 136.078821 82.586154 
L 130.246247 85.794888 
L 119.50036 82.71365 
z
" clip-path="url(#p691eaa3ed7)" style="fill: #e8edf4; stroke: #b8c5d4; stroke-width: 0.45"/>
    <path d="M -18.910292 5.25258 
L -8.775593 -0.678717 
L -4.614855 -7.60617 
L 4.065794 -11.875553 
L 13.871087 -15.618084 
L 28.407626 -17.455616 
L 33.059497 -19.565006 
L 64.727641 -17.978498 
L 82.761145 -11.437502 
L 90.403469 -4.40835 
L 108.337258 -6.577272 
L 143.350563 18.485384 
L 149.671294 18.221462 
L 161.12213 22.13713 
L 159.723641 27.542568 
L 173.877196 28.333341 
L 188.389923 36.191466 
L 186.112356 40.689052 
L 173.345383 43.126361 
L 160.422141 44.079853 
L 147.193801 42.560814 
L 119.702766 44.431087 
L 132.573919 33.719927 
L 124.749032 28.732697 
L 112.371989 27.449302 
L 105.737727 21.906943 
L 101.186563 10.972541 
L 90.336001 11.720154 
L 72.432473 6.571693 
L 66.671337 2.544404 
L 41.645887 -0.431166 
L 34.944157 -4.176178 
L 42.143965 -8.973405 
L 23.310758 -9.956166 
L 9.514391 0.020775 
L 1.559032 0.288666 
L -1.193296 4.973279 
L -10.69498 7.072748 
z
" clip-path="url(#p691eaa3ed7)" style="fill: #e8edf4; stroke: #b8c5d4; stroke-width: 0.45"/>
    <path d="M 423.168 231.92832 
L 428.736 226.64832 
L 428.352 219.06432 
L 439.392 216.56832 
L 443.424 217.24032 
L 442.656 231.54432 
L 426.624 233.65632 
z
" clip-path="url(#p691eaa3ed7)" style="fill: #e8edf4; stroke: #b8c5d4; stroke-width: 0.45"/>
   </g>
   <g id="PathCollection_1">
    <defs>
     <path id="m42aa408a31" d="M 0 2.12132 
C 0.562581 2.12132 1.102195 1.897805 1.5 1.5 
C 1.897805 1.102195 2.12132 0.562581 2.12132 0 
C 2.12132 -0.562581 1.897805 -1.102195 1.5 -1.5 
C 1.102195 -1.897805 0.562581 -2.12132 0 -2.12132 
C -0.562581 -2.12132 -1.102195 -1.897805 -1.5 -1.5 
C -1.897805 -1.102195 -2.12132 -0.562581 -2.12132 0 
C -2.12132 0.562581 -1.897805 1.102195 -1.5 1.5 
C -1.102195 1.897805 -0.562581 2.12132 0 2.12132 
z
" style="stroke: #ffffff; stroke-width: 0.5"/>
    </defs>
    <g clip-path="url(#p691eaa3ed7)">
     <use xlink:href="#m42aa408a31" x="426.048" y="98.29632" style="fill: #8aa0b7; stroke: #ffffff; stroke-width: 0.5"/>
     <use xlink:href="#m42aa408a31" x="399.808" y="75.25632" style="fill: #8aa0b7; stroke: #ffffff; stroke-width: 0.5"/>
     <use xlink:href="#m42aa408a31" x="269.248" y="185.65632" style="fill: #8aa0b7; stroke: #ffffff; stroke-width: 0.5"/>
     <use xlink:href="#m42aa408a31" x="469.568" y="172.85632" style="fill: #8aa0b7; stroke: #ffffff; stroke-width: 0.5"/>
     <use xlink:href="#m42aa408a31" x="406.20864" y="81.97632" style="fill: #8aa0b7; stroke: #ffffff; stroke-width: 0.5"/>
     <use xlink:href="#m42aa408a31" x="302.4288" y="191.83104" style="fill: #8aa0b7; stroke: #ffffff; stroke-width: 0.5"/>
     <use xlink:href="#m42aa408a31" x="288" y="192" style="fill: #8aa0b7; stroke: #ffffff; stroke-width: 0.5"/>
     <use xlink:href="#m42aa408a31" x="435.008" y="129.65632" style="fill: #8aa0b7; stroke: #ffffff; stroke-width: 0.5"/>
     <use xlink:href="#m42aa408a31" x="428.608" y="193.01632" style="fill: #8aa0b7; stroke: #ffffff; stroke-width: 0.5"/>
     <use xlink:href="#m42aa408a31" x="430.208006" y="113.65632" style="fill: #8aa0b7; stroke: #ffffff; stroke-width: 0.5"/>
     <use xlink:href="#m42aa408a31" x="222.208" y="60.85632" style="fill: #8aa0b7; stroke: #ffffff; stroke-width: 0.5"/>
     <use xlink:href="#m42aa408a31" x="124.608" y="75.25632" style="fill: #8aa0b7; stroke: #ffffff; stroke-width: 0.5"/>
     <use xlink:href="#m42aa408a31" x="407.808" y="92.85632" style="fill: #8aa0b7; stroke: #ffffff; stroke-width: 0.5"/>
     <use xlink:href="#m42aa408a31" x="67.008" y="51.25632" style="fill: #8aa0b7; stroke: #ffffff; stroke-width: 0.5"/>
     <use xlink:href="#m42aa408a31" x="442.048" y="159.09632" style="fill: #8aa0b7; stroke: #ffffff; stroke-width: 0.5"/>
     <use xlink:href="#m42aa408a31" x="402.04608" y="78.69696" style="fill: #8aa0b7; stroke: #ffffff; stroke-width: 0.5"/>
     <use xlink:href="#m42aa408a31" x="441.408" y="144.056314" style="fill: #8aa0b7; stroke: #ffffff; stroke-width: 0.5"/>
     <use xlink:href="#m42aa408a31" x="418.368" y="104.05632" style="fill: #8aa0b7; stroke: #ffffff; stroke-width: 0.5"/>
     <use xlink:href="#m42aa408a31" x="335.808" y="75.25632" style="fill: #8aa0b7; stroke: #ffffff; stroke-width: 0.5"/>
     <use xlink:href="#m42aa408a31" x="401.95584" y="79.24032" style="fill: #8aa0b7; stroke: #ffffff; stroke-width: 0.5"/>
     <use xlink:href="#m42aa408a31" x="234.08832" y="9.13152" style="fill: #8aa0b7; stroke: #ffffff; stroke-width: 0.5"/>
     <use xlink:href="#m42aa408a31" x="441.408" y="214.45632" style="fill: #8aa0b7; stroke: #ffffff; stroke-width: 0.5"/>
     <use xlink:href="#m42aa408a31" x="437.568" y="171.25632" style="fill: #8aa0b7; stroke: #ffffff; stroke-width: 0.5"/>
     <use xlink:href="#m42aa408a31" x="371.52" y="71.97888" style="fill: #8aa0b7; stroke: #ffffff; stroke-width: 0.5"/>
     <use xlink:href="#m42aa408a31" x="366.59904" y="73.60896" style="fill: #8aa0b7; stroke: #ffffff; stroke-width: 0.5"/>
    </g>
   </g>
   <g id="PathCollection_2">
    <defs>
     <path id="madacaa7dcc" d="M 0 3.674235 
C 0.974418 3.674235 1.909058 3.287094 2.598076 2.598076 
C 3.287094 1.909058 3.674235 0.974418 3.674235 0 
C 3.674235 -0.974418 3.287094 -1.909058 2.598076 -2.598076 
C 1.909058 -3.287094 0.974418 -3.674235 0 -3.674235 
C -0.974418 -3.674235 -1.909058 -3.287094 -2.598076 -2.598076 
C -3.287094 -1.909058 -3.674235 -0.974418 -3.674235 0 
C -3.674235 0.974418 -3.287094 1.909058 -2.598076 2.598076 
C -1.909058 3.287094 -0.974418 3.674235 0 3.674235 
z
" style="stroke: #ffffff; stroke-width: 1.2"/>
    </defs>
    <g clip-path="url(#p691eaa3ed7)">
     <use xlink:href="#madacaa7dcc" x="288" y="192" style="fill: #f97316; stroke: #ffffff; stroke-width: 1.2"/>
    </g>
   </g>
   <g id="PathCollection_3">
    <path d="M 288 196.929503 
C 289.307319 196.929503 290.561271 196.410099 291.485685 195.485685 
C 292.410099 194.561271 292.929503 193.307319 292.929503 192 
C 292.929503 190.692681 292.410099 189.438729 291.485685 188.514315 
C 290.561271 187.589901 289.307319 187.070497 288 187.070497 
C 286.692681 187.070497 285.438729 187.589901 284.514315 188.514315 
C 283.589901 189.438729 283.070497 190.692681 283.070497 192 
C 283.070497 193.307319 283.589901 194.561271 284.514315 195.485685 
C 285.438729 196.410099 286.692681 196.929503 288 196.929503 
L 288 196.929503 
z
" clip-path="url(#p691eaa3ed7)" style="fill: none; stroke: #7c2d12; stroke-width: 1.1"/>
   </g>
  </g>
 </g>
 <defs>
  <clipPath id="p691eaa3ed7">
   <rect x="0" y="-0" width="576" height="384"/>
  </clipPath>
 </defs>
</svg>
