<?xml version="1.0" encoding="utf-8" standalone="no"?>
<!DOCTYPE svg PUBLIC "-//W3C//DTD SVG 1.1//EN"
  "http://www.w3.org/Graphics/SVG/1.1/DTD/svg11.dtd">
<svg xmlns:xlink="http://www.w3.org/1999/xlink" width="576pt" height="384pt" viewBox="0 0 576 384" xmlns="http://www.w3.org/2000/svg" version="1.1">
 <metadata>
  <rdf:RDF xmlns:dc="http://purl.org/dc/elements/1.1/" xmlns:cc="http://creativecommons.org/ns#" xmlns:rdf="http://www.w3.org/1999/02/22-rdf-syntax-ns#">
   <cc:Work>
    <dc:type rdf:resource="http://purl.org/dc/dcmitype/StillImage"/>
    <dc:date>2026-06-09T04:57:12.236911</dc:date>
    <dc:format>image/svg+xml</dc:format>
    <dc:creator>
     <cc:Agent>
      <dc:title>Matplotlib v3.10.8, https://matplotlib.org/</dc:title>
     </cc:Agent>
    </dc:creator>
   </cc:Work>
  </rdf:RDF>
 </metadata>
 <defs>
  <style type="text/css">*{stroke-linejoin: round; stroke-linecap: butt}</style>
 </defs>
 <g id="figure_1">
  <g id="patch_1">
   <path d="M 0 384 
L 576 384 
L 576 0 
L 0 0 
z
" style="fill: #eaf3ff"/>
  </g>
  <g id="axes_1">
   <g id="PatchCollection_1">
    <path d="M 29.605755 121.423047 
L 31.297434 115.233782 
L 63.457208 119.440657 
L 70.370274 115.166313 
L 61.600329 106.848805 
L 61.745188 99.515051 
L 49.631571 96.520629 
L 53.95602 91.218875 
L 82.322661 95.082454 
L 84.002434 105.539118 
L 82.534989 112.92 
L 77.853848 116.155524 
L 82.795438 121.920133 
L 82.400548 127.136063 
L 69.648458 123.872758 
L 60.587305 125.204274 
L 48.872548 123.816204 
L 39.889282 127.404946 
z
" clip-path="url(#pdee4ef115d)" style="fill: #e8edf4; stroke: #b8c5d4; stroke-width: 0.45"/>
    <path d="M 77.853848 116.155524 
L 82.534989 112.92 
L 84.002434 105.539118 
L 82.322661 95.082454 
L 84.723755 91.809723 
L 99.711243 91.898524 
L 111.084192 96.84061 
L 116.144348 96.358407 
L 119.630399 103.169278 
L 130.135184 102.786293 
L 129.516555 108.508239 
L 138.05929 109.201778 
L 147.495489 116.245813 
L 140.365133 124.061274 
L 131.23304 119.885157 
L 116.103669 119.776512 
L 112.641926 123.278438 
L 105.270965 124.461622 
L 102.349469 119.803797 
L 96.000958 122.560094 
L 88.315969 135.707571 
L 83.372891 132.65461 
L 82.795438 121.920133 
z
" clip-path="url(#pdee4ef115d)" style="fill: #e8edf4; stroke: #b8c5d4; stroke-width: 0.45"/>
    <path d="M 38.645079 618.057539 
L 43.710692 614.54718 
L 43.689856 606.437039 
L 55.295473 600.89468 
L 53.381544 590.51243 
L 58.281462 583.832032 
L 59.674989 574.871586 
L 81.63061 561.804477 
L 97.366208 558.110563 
L 99.940438 555.224289 
L 117.242204 556.125196 
L 126.326673 495.154282 
L 123.320344 484.159852 
L 114.803407 477.155008 
L 114.901137 463.204852 
L 125.713997 460.041758 
L 129.553266 462.02911 
L 130.202157 454.675016 
L 118.951743 452.689649 
L 118.714114 440.675747 
L 156.123551 441.104868 
L 162.474048 434.486481 
L 167.808048 440.576032 
L 171.551075 451.901852 
L 175.174544 449.535485 
L 185.745309 459.690524 
L 200.673266 458.446321 
L 204.389505 452.570586 
L 226.573329 444.937192 
L 228.804758 436.805719 
L 242.51927 431.342735 
L 241.480946 427.307508 
L 225.216016 425.6575 
L 222.550505 413.565711 
L 223.324907 400.693567 
L 214.731571 395.716258 
L 218.329739 393.949172 
L 232.543817 396.405829 
L 247.810606 401.205039 
L 253.352965 396.666278 
L 267.159751 393.687235 
L 288.635649 386.499829 
L 295.65736 379.172524 
L 293.115376 373.754684 
L 303.097278 372.905868 
L 307.565594 377.330032 
L 305.068755 385.760649 
L 311.665809 388.66875 
L 316.069633 397.590997 
L 310.744067 404.355235 
L 307.689122 420.699539 
L 312.603923 430.407102 
L 313.995962 439.291645 
L 325.807458 448.300211 
L 335.231751 449.252711 
L 337.35404 445.492321 
L 352.109356 441.294375 
L 358.3522 436.188082 
L 384.082598 438.700797 
L 385.812477 434.777688 
L 382.591837 430.960743 
L 384.512215 425.40102 
L 392.260704 427.107086 
L 401.326321 425.144043 
L 420.7092 433.173321 
L 426.652403 427.967313 
L 430.947087 428.769993 
L 433.565469 434.174934 
L 442.758583 432.802739 
L 450.116645 425.509664 
L 456.012719 411.370993 
L 467.37029 393.800344 
L 473.91079 392.892989 
L 478.660391 403.512372 
L 489.429594 437.089981 
L 499.697743 440.259524 
L 500.215665 453.513164 
L 485.774376 469.318711 
L 491.746352 475.106141 
L 525.685118 478.121399 
L 526.377665 497.365868 
L 540.960837 484.767071 
L 565.121594 491.667735 
L 597.010501 503.393407 
L 606.381712 514.644813 
L 603.233501 525.273125 
L 625.559208 519.355719 
L 662.924989 529.510758 
L 691.609626 528.762649 
L 719.992637 544.652532 
L 744.513559 566.162164 
L 759.303602 571.700555 
L 775.722321 572.470493 
L 782.680532 578.526805 
L 792.384126 614.589844 
L 784.738329 646.330914 
L 774.970243 658.866211 
L 747.90684 685.581852 
L 735.674657 707.286946 
L 721.461571 723.931883 
L 716.661368 724.30693 
L 711.297106 738.432704 
L 712.659876 774.407438 
L 705.267087 816.660735 
L 699.196387 824.236086 
L 695.792192 849.902985 
L 676.324977 874.966633 
L 673.06068 894.796493 
L 657.520048 903.116977 
L 653.024942 914.62536 
L 632.165688 914.579719 
L 601.962012 921.957625 
L 588.438993 930.499368 
L 566.935809 936.108204 
L 544.339731 951.395829 
L 528.087204 970.438883 
L 525.292708 984.775 
L 528.485071 995.377516 
L 524.898809 1014.773789 
L 520.541618 1024.143016 
L 507.123274 1034.709813 
L 485.820016 1068.501735 
L 468.936458 1083.731813 
L 455.883239 1092.71111 
L 447.12768 1110.974305 
L 434.425696 1121.95286 
L 429.109555 1111.078485 
L 437.575891 1101.971196 
L 426.471329 1088.907063 
L 391.651005 1065.994477 
L 384.513704 1066.555063 
L 365.260305 1051.705985 
L 352.797438 1053.752868 
L 378.414727 1027.573008 
L 400.084102 1008.932782 
L 429.144282 990.53068 
L 429.5357 975.197414 
L 419.903048 964.11468 
L 410.394419 967.793711 
L 416.765255 945.35936 
L 416.775176 934.803477 
L 409.865583 931.319907 
L 402.664286 934.424461 
L 395.505653 933.573164 
L 393.261325 926.18236 
L 391.474891 908.587899 
L 387.879204 902.853055 
L 374.912305 897.656969 
L 367.075016 901.41736 
L 346.80661 897.731383 
L 348.083059 871.66761 
L 342.405266 860.992664 
L 348.407008 857.023914 
L 346.560051 846.080086 
L 351.82063 837.667329 
L 355.231274 822.544407 
L 350.696481 810.607399 
L 340.208563 805.216844 
L 338.149278 797.6405 
L 340.968579 786.551813 
L 304.158919 785.759055 
L 296.775059 763.403086 
L 302.377942 763.08261 
L 302.124934 754.802805 
L 298.383395 749.196946 
L 297.536563 738.098336 
L 286.384872 732.404172 
L 274.306477 732.592688 
L 266.360048 727.016594 
L 253.381243 723.212547 
L 245.827223 716.039032 
L 224.326024 712.869985 
L 203.476196 695.672399 
L 205.019544 682.80075 
L 202.65913 675.419868 
L 204.702044 661.030172 
L 179.57936 664.281571 
L 169.463016 671.490805 
L 152.674708 679.271539 
L 148.39193 685.078813 
L 124.23018 683.873305 
L 113.399958 687.180266 
L 104.665235 684.975625 
L 105.947637 655.810274 
L 90.193684 667.12518 
L 73.250098 666.629086 
L 65.989766 656.387727 
L 53.247102 655.274493 
L 57.304653 647.030407 
L 46.635661 635.349383 
z
" clip-path="url(#pdee4ef115d)" style="fill: #e8edf4; stroke: #b8c5d4; stroke-width: 0.45"/>
    <path d="M -57.425956 441.125704 
L -50.262363 439.685047 
L -51.112667 430.066782 
L -46.61012 423.112539 
L -37.085617 421.825176 
L -21.651644 399.686993 
L -28.728421 395.117969 
L -25.105945 383.974711 
L -29.437835 366.410016 
L -25.321249 361.369207 
L -28.351886 345.130571 
L -36.126171 334.903598 
L -33.665546 325.571082 
L -27.477273 326.949231 
L -23.857277 321.242664 
L -28.314679 309.933711 
L -25.984527 307.126317 
L -16.06414 307.736016 
L -1.65857 294.333051 
L 6.247676 292.289641 
L 9.975821 269.715391 
L 20.987614 260.805547 
L 33.086348 260.440918 
L 34.613325 256.43893 
L 49.636532 258.041313 
L 72.226657 244.053454 
L 81.521469 234.803786 
L 88.323411 235.980024 
L 93.360747 241.030754 
L 89.633594 247.495352 
L 77.300704 250.713512 
L 72.430551 260.312926 
L 64.998571 265.818079 
L 59.418508 272.953395 
L 57.070001 286.654016 
L 51.74493 297.88161 
L 61.656387 299.167485 
L 64.118501 307.994481 
L 68.354645 312.218719 
L 69.870708 319.949348 
L 67.590165 327.055891 
L 68.265844 331.063336 
L 72.991633 332.663735 
L 77.564626 339.361 
L 102.254715 337.514539 
L 113.408391 339.960778 
L 126.921985 356.482684 
L 134.681883 354.429352 
L 148.510993 355.457258 
L 159.454325 353.2675 
L 166.24436 356.56702 
L 162.786587 366.908094 
L 158.501825 373.354336 
L 156.998165 387.124411 
L 160.860751 399.881957 
L 166.318774 405.587036 
L 166.979075 409.885688 
L 157.249188 419.44343 
L 164.215833 423.674614 
L 169.319149 430.387754 
L 175.174544 449.535485 
L 171.551075 451.901852 
L 167.808048 440.576032 
L 162.474048 434.486481 
L 156.123551 441.104868 
L 118.714114 440.675747 
L 118.951743 452.689649 
L 130.202157 454.675016 
L 129.553266 462.02911 
L 125.713997 460.041758 
L 114.901137 463.204852 
L 114.803407 477.155008 
L 123.320344 484.159852 
L 126.326673 495.154282 
L 117.242204 556.125196 
L 107.634356 545.918563 
L 101.900505 545.463149 
L 114.283997 525.923008 
L 99.581266 516.931805 
L 88.058001 518.581813 
L 81.124594 515.259969 
L 70.544899 520.336993 
L 56.248469 517.93193 
L 44.937532 497.801438 
L 36.050012 492.854391 
L 29.92127 483.79175 
L 17.152809 474.698352 
L 12.034114 476.519016 
L -5.612437 465.611899 
L -11.066492 468.666844 
L -27.359699 466.002821 
L -32.037367 457.74286 
L -35.617179 458.049446 
L -54.820968 447.08627 
z
" clip-path="url(#pdee4ef115d)" style="fill: #e8edf4; stroke: #b8c5d4; stroke-width: 0.45"/>
    <path d="M 51.74493 297.88161 
L 57.070001 286.654016 
L 59.418508 272.953395 
L 64.998571 265.818079 
L 72.430551 260.312926 
L 77.300704 250.713512 
L 89.633594 247.495352 
L 89.087891 252.032129 
L 77.816641 254.272985 
L 84.079329 262.986375 
L 83.845173 273.027313 
L 75.37586 284.1795 
L 82.643633 299.412555 
L 90.920462 298.165872 
L 95.232012 284.288145 
L 89.278391 277.530852 
L 88.308032 262.995801 
L 112.218262 255.190758 
L 109.558208 246.141016 
L 116.289704 240.083711 
L 123.181438 253.575477 
L 136.646415 253.887024 
L 149.121188 264.593719 
L 149.87277 270.950664 
L 167.112028 271.119336 
L 187.625008 269.146372 
L 198.619438 277.744668 
L 213.303317 280.117485 
L 224.074008 274.119711 
L 224.294274 269.284782 
L 271.085837 267.86 
L 254.781715 273.530848 
L 261.340571 282.594481 
L 276.695665 284.037122 
L 291.252544 293.478282 
L 294.311954 308.860661 
L 304.318165 308.427075 
L 311.84093 312.952938 
L 296.628712 324.231629 
L 294.950923 331.232008 
L 301.523173 338.356907 
L 296.755215 341.953586 
L 284.940743 345.035321 
L 285.323231 353.901508 
L 280.122184 359.185899 
L 293.115376 373.754684 
L 295.65736 379.172524 
L 288.635649 386.499829 
L 267.159751 393.687235 
L 253.352965 396.666278 
L 247.810606 401.205039 
L 232.543817 396.405829 
L 218.329739 393.949172 
L 214.731571 395.716258 
L 223.324907 400.693567 
L 222.550505 413.565711 
L 225.216016 425.6575 
L 241.480946 427.307508 
L 242.51927 431.342735 
L 228.804758 436.805719 
L 226.573329 444.937192 
L 204.389505 452.570586 
L 200.673266 458.446321 
L 185.745309 459.690524 
L 175.174544 449.535485 
L 169.319149 430.387754 
L 164.215833 423.674614 
L 157.249188 419.44343 
L 166.979075 409.885688 
L 166.318774 405.587036 
L 160.860751 399.881957 
L 156.998165 387.124411 
L 158.501825 373.354336 
L 162.786587 366.908094 
L 166.24436 356.56702 
L 159.454325 353.2675 
L 148.510993 355.457258 
L 134.681883 354.429352 
L 126.921985 356.482684 
L 113.408391 339.960778 
L 102.254715 337.514539 
L 77.564626 339.361 
L 72.991633 332.663735 
L 68.265844 331.063336 
L 67.590165 327.055891 
L 69.870708 319.949348 
L 68.354645 312.218719 
L 64.118501 307.994481 
L 61.656387 299.167485 
z
" clip-path="url(#pdee4ef115d)" style="fill: #e8edf4; stroke: #b8c5d4; stroke-width: 0.45"/>
    <path d="M 280.122184 359.185899 
L 285.323231 353.901508 
L 284.940743 345.035321 
L 296.755215 341.953586 
L 301.523173 338.356907 
L 294.950923 331.232008 
L 296.628712 324.231629 
L 311.84093 312.952938 
L 324.447665 320.015329 
L 336.327126 332.524332 
L 336.86638 342.410489 
L 344.100419 342.865407 
L 361.969219 358.915528 
L 358.90088 376.187528 
L 347.245653 381.197579 
L 348.283977 385.725426 
L 344.741868 395.631426 
L 353.249876 409.574637 
L 359.396477 409.596961 
L 361.918122 420.43661 
L 373.643794 437.129172 
L 368.972079 437.816758 
L 358.3522 436.188082 
L 352.109356 441.294375 
L 337.35404 445.492321 
L 335.231751 449.252711 
L 325.807458 448.300211 
L 313.995962 439.291645 
L 312.603923 430.407102 
L 307.689122 420.699539 
L 310.744067 404.355235 
L 316.069633 397.590997 
L 311.665809 388.66875 
L 305.068755 385.760649 
L 307.565594 377.330032 
L 303.097278 372.905868 
L 293.115376 373.754684 
z
" clip-path="url(#pdee4ef115d)" style="fill: #e8edf4; stroke: #b8c5d4; stroke-width: 0.45"/>
    <path d="M 344.741868 395.631426 
L 348.283977 385.725426 
L 347.245653 381.197579 
L 358.90088 376.187528 
L 361.969219 358.915528 
L 384.973087 362.76075 
L 387.037829 359.3 
L 402.561594 357.914411 
L 423.205544 363.074282 
L 413.210247 379.582297 
L 414.72879 392.717868 
L 422.266934 404.095282 
L 417.221661 421.138086 
L 412.324719 429.212508 
L 401.326321 425.144043 
L 392.260704 427.107086 
L 384.512215 425.40102 
L 382.591837 430.960743 
L 385.812477 434.777688 
L 384.082598 438.700797 
L 373.643794 437.129172 
L 361.918122 420.43661 
L 359.396477 409.596961 
L 353.249876 409.574637 
z
" clip-path="url(#pdee4ef115d)" style="fill: #e8edf4; stroke: #b8c5d4; stroke-width: 0.45"/>
    <path d="M 1371.026883 -461.135875 
L 1395.920372 -465.312488 
L 1428.162993 -460.372882 
L 1422.076915 -482.105757 
L 1440.202196 -473.869609 
L 1484.904212 -488.841718 
L 1490.668821 -504.574836 
L 1507.460602 -508.451312 
L 1510.241704 -501.699476 
L 1519.16643 -501.382968 
L 1541.491641 -484.623929 
L 1551.345055 -486.119156 
L 1572.436977 -475.699203 
L 1577.977352 -476.105007 
L 1587.038008 -471.077593 
L 1614.706149 -467.541437 
L 1604.998587 -454.393961 
L 1602.561774 -440.715168 
L 1597.290282 -437.435492 
L 1588.542165 -439.202578 
L 1589.159305 -434.323992 
L 1575.117868 -423.534945 
L 1574.834102 -414.841398 
L 1584.001915 -417.849711 
L 1590.596985 -409.430007 
L 1589.805219 -404.004726 
L 1595.455727 -396.795492 
L 1588.799141 -390.947539 
L 1593.745196 -376.091515 
L 1604.152251 -373.655695 
L 1601.955548 -365.321816 
L 1584.561508 -354.474726 
L 1546.69368 -359.673293 
L 1518.727883 -353.443843 
L 1516.53118 -341.881882 
L 1494.27443 -339.39298 
L 1472.67054 -348.078093 
L 1465.690501 -343.927277 
L 1430.346798 -352.65307 
L 1422.694055 -360.117793 
L 1432.622876 -371.634113 
L 1436.279087 -409.886414 
L 1416.466094 -430.035757 
L 1402.305098 -439.750265 
L 1372.962145 -447.135117 
z
" clip-path="url(#pdee4ef115d)" style="fill: #e8edf4; stroke: #b8c5d4; stroke-width: 0.45"/>
    <path d="M 412.324719 429.212508 
L 417.221661 421.138086 
L 422.266934 404.095282 
L 414.72879 392.717868 
L 413.210247 379.582297 
L 423.205544 363.074282 
L 443.862887 369.730868 
L 464.191817 385.937258 
L 467.37029 393.800344 
L 456.012719 411.370993 
L 450.116645 425.509664 
L 442.758583 432.802739 
L 433.565469 434.174934 
L 430.947087 428.769993 
L 426.652403 427.967313 
L 420.7092 433.173321 
z
" clip-path="url(#pdee4ef115d)" style="fill: #e8edf4; stroke: #b8c5d4; stroke-width: 0.45"/>
    <path d="M 1623.248883 -337.725113 
L 1627.123376 -344.859933 
L 1639.488016 -352.191703 
L 1642.752313 -335.727839 
L 1636.411243 -320.896125 
L 1627.693883 -324.805343 
z
" clip-path="url(#pdee4ef115d)" style="fill: #e8edf4; stroke: #b8c5d4; stroke-width: 0.45"/>
    <path d="M 168.145391 120.810372 
L 170.866962 118.004465 
L 186.577258 118.116582 
L 196.390985 119.807766 
L 199.852727 123.621735 
L 194.934454 128.462618 
L 169.264083 129.02618 
z
" clip-path="url(#pdee4ef115d)" style="fill: #e8edf4; stroke: #b8c5d4; stroke-width: 0.45"/>
    <path d="M -172.318292 53.196266 
L -162.183593 47.264969 
L -158.022855 40.337516 
L -149.342206 36.068133 
L -139.536913 32.325602 
L -125.000374 30.488071 
L -120.348503 28.37868 
L -88.680359 29.965188 
L -70.646855 36.506184 
L -63.004531 43.535336 
L -45.070742 41.366414 
L -10.057437 66.429071 
L -3.736706 66.165149 
L 7.71413 70.080817 
L 6.315641 75.486254 
L 20.469196 76.277028 
L 34.981923 84.135153 
L 32.704356 88.632739 
L 19.937383 91.070047 
L 7.014141 92.023539 
L -6.214199 90.5045 
L -33.705234 92.374774 
L -20.834081 81.663614 
L -28.658968 76.676383 
L -41.036011 75.392989 
L -47.670273 69.850629 
L -52.221437 58.916227 
L -63.071999 59.66384 
L -80.975527 54.515379 
L -86.736663 50.48809 
L -111.762113 47.51252 
L -118.463843 43.767508 
L -111.264035 38.970282 
L -130.097242 37.98752 
L -143.893609 47.964461 
L -151.848968 48.232352 
L -154.601296 52.916965 
L -164.10298 55.016434 
z
" clip-path="url(#pdee4ef115d)" style="fill: #e8edf4; stroke: #b8c5d4; stroke-width: 0.45"/>
    <path d="M 269.76 279.872006 
L 275.328 274.592006 
L 274.944 267.008006 
L 285.984 264.512006 
L 290.016 265.184006 
L 289.248 279.488006 
L 273.216 281.600006 
z
" clip-path="url(#pdee4ef115d)" style="fill: #e8edf4; stroke: #b8c5d4; stroke-width: 0.45"/>
   </g>
   <g id="PathCollection_1">
    <defs>
     <path id="m9cd3c1d4f6" d="M 0 2.12132 
C 0.562581 2.12132 1.102195 1.897805 1.5 1.5 
C 1.897805 1.102195 2.12132 0.562581 2.12132 0 
C 2.12132 -0.562581 1.897805 -1.102195 1.5 -1.5 
C 1.102195 -1.897805 0.562581 -2.12132 0 -2.12132 
C -0.562581 -2.12132 -1.102195 -1.897805 -1.5 -1.5 
C -1.897805 -1.102195 -2.12132 -0.562581 -2.12132 0 
C -2.12132 0.562581 -1.897805 1.102195 -1.5 1.5 
C -1.102195 1.897805 -0.562581 2.12132 0 2.12132 
z
" style="stroke: #ffffff; stroke-width: 0.5"/>
    </defs>
    <g clip-path="url(#pdee4ef115d)">
     <use xlink:href="#m9cd3c1d4f6" x="272.64" y="146.240006" style="fill: #8aa0b7; stroke: #ffffff; stroke-width: 0.5"/>
     <use xlink:href="#m9cd3c1d4f6" x="246.4" y="123.200006" style="fill: #8aa0b7; stroke: #ffffff; stroke-width: 0.5"/>
     <use xlink:href="#m9cd3c1d4f6" x="115.84" y="233.600006" style="fill: #8aa0b7; stroke: #ffffff; stroke-width: 0.5"/>
     <use xlink:href="#m9cd3c1d4f6" x="316.16" y="220.800007" style="fill: #8aa0b7; stroke: #ffffff; stroke-width: 0.5"/>
     <use xlink:href="#m9cd3c1d4f6" x="252.80064" y="129.920006" style="fill: #8aa0b7; stroke: #ffffff; stroke-width: 0.5"/>
     <use xlink:href="#m9cd3c1d4f6" x="149.0208" y="239.774726" style="fill: #8aa0b7; stroke: #ffffff; stroke-width: 0.5"/>
     <use xlink:href="#m9cd3c1d4f6" x="-0" y="8.000006" style="fill: #8aa0b7; stroke: #ffffff; stroke-width: 0.5"/>
     <use xlink:href="#m9cd3c1d4f6" x="134.592" y="239.943686" style="fill: #8aa0b7; stroke: #ffffff; stroke-width: 0.5"/>
     <use xlink:href="#m9cd3c1d4f6" x="281.6" y="177.600007" style="fill: #8aa0b7; stroke: #ffffff; stroke-width: 0.5"/>
     <use xlink:href="#m9cd3c1d4f6" x="275.2" y="240.960007" style="fill: #8aa0b7; stroke: #ffffff; stroke-width: 0.5"/>
     <use xlink:href="#m9cd3c1d4f6" x="276.800006" y="161.600006" style="fill: #8aa0b7; stroke: #ffffff; stroke-width: 0.5"/>
     <use xlink:href="#m9cd3c1d4f6" x="68.8" y="108.800006" style="fill: #8aa0b7; stroke: #ffffff; stroke-width: 0.5"/>
     <use xlink:href="#m9cd3c1d4f6" x="254.4" y="140.800006" style="fill: #8aa0b7; stroke: #ffffff; stroke-width: 0.5"/>
     <use xlink:href="#m9cd3c1d4f6" x="288.64" y="207.040006" style="fill: #8aa0b7; stroke: #ffffff; stroke-width: 0.5"/>
     <use xlink:href="#m9cd3c1d4f6" x="248.63808" y="126.640646" style="fill: #8aa0b7; stroke: #ffffff; stroke-width: 0.5"/>
     <use xlink:href="#m9cd3c1d4f6" x="288" y="192" style="fill: #8aa0b7; stroke: #ffffff; stroke-width: 0.5"/>
     <use xlink:href="#m9cd3c1d4f6" x="264.96" y="152.000006" style="fill: #8aa0b7; stroke: #ffffff; stroke-width: 0.5"/>
     <use xlink:href="#m9cd3c1d4f6" x="182.4" y="123.200006" style="fill: #8aa0b7; stroke: #ffffff; stroke-width: 0.5"/>
     <use xlink:href="#m9cd3c1d4f6" x="248.54784" y="127.184006" style="fill: #8aa0b7; stroke: #ffffff; stroke-width: 0.5"/>
     <use xlink:href="#m9cd3c1d4f6" x="80.68032" y="57.075206" style="fill: #8aa0b7; stroke: #ffffff; stroke-width: 0.5"/>
     <use xlink:href="#m9cd3c1d4f6" x="288" y="262.400006" style="fill: #8aa0b7; stroke: #ffffff; stroke-width: 0.5"/>
     <use xlink:href="#m9cd3c1d4f6" x="284.16" y="219.200006" style="fill: #8aa0b7; stroke: #ffffff; stroke-width: 0.5"/>
     <use xlink:href="#m9cd3c1d4f6" x="218.112" y="119.922566" style="fill: #8aa0b7; stroke: #ffffff; stroke-width: 0.5"/>
     <use xlink:href="#m9cd3c1d4f6" x="213.19104" y="121.552646" style="fill: #8aa0b7; stroke: #ffffff; stroke-width: 0.5"/>
    </g>
   </g>
   <g id="PathCollection_2">
    <defs>
     <path id="mb2ed73fcf7" d="M 0 3.674235 
C 0.974418 3.674235 1.909058 3.287094 2.598076 2.598076 
C 3.287094 1.909058 3.674235 0.974418 3.674235 0 
C 3.674235 -0.974418 3.287094 -1.909058 2.598076 -2.598076 
C 1.909058 -3.287094 0.974418 -3.674235 0 -3.674235 
C -0.974418 -3.674235 -1.909058 -3.287094 -2.598076 -2.598076 
C -3.287094 -1.909058 -3.674235 -0.974418 -3.674235 0 
C -3.674235 0.974418 -3.287094 1.909058 -2.598076 2.598076 
C -1.909058 3.287094 -0.974418 3.674235 0 3.674235 
z
" style="stroke: #ffffff; stroke-width: 1.2"/>
    </defs>
    <g clip-path="url(#pdee4ef115d)">
     <use xlink:href="#mb2ed73fcf7" x="288" y="192" style="fill: #f97316; stroke: #ffffff; stroke-width: 1.2"/>
    </g>
   </g>
   <g id="PathCollection_3">
    <path d="M 288 196.929503 
C 289.307319 196.929503 290.561271 196.410099 291.485685 195.485685 
C 292.410099 194.561271 292.929503 193.307319 292.929503 192 
C 292.929503 190.692681 292.410099 189.438729 291.485685 188.514315 
C 290.561271 187.589901 289.307319 187.070497 288 187.070497 
C 286.692681 187.070497 285.438729 187.589901 284.514315 188.514315 
C 283.589901 189.438729 283.070497 190.692681 283.070497 192 
C 283.070497 193.307319 283.589901 194.561271 284.514315 195.485685 
C 285.438729 196.410099 286.692681 196.929503 288 196.929503 
L 288 196.929503 
z
" clip-path="url(#pdee4ef115d)" style="fill: none; stroke: #7c2d12; stroke-width: 1.1"/>
   </g>
  </g>
 </g>
 <defs>
  <clipPath id="pdee4ef115d">
   <rect x="0" y="-0" width="576" height="384"/>
  </clipPath>
 </defs>
</svg>
