<?xml version="1.0" encoding="utf-8" standalone="no"?>
<!DOCTYPE svg PUBLIC "-//W3C//DTD SVG 1.1//EN"
  "http://www.w3.org/Graphics/SVG/1.1/DTD/svg11.dtd">
<svg xmlns:xlink="http://www.w3.org/1999/xlink" width="493.714286pt" height="432pt" viewBox="0 0 493.714286 432" xmlns="http://www.w3.org/2000/svg" version="1.1">
 <metadata>
  <rdf:RDF xmlns:dc="http://purl.org/dc/elements/1.1/" xmlns:cc="http://creativecommons.org/ns#" xmlns:rdf="http://www.w3.org/1999/02/22-rdf-syntax-ns#">
   <cc:Work>
    <dc:type rdf:resource="http://purl.org/dc/dcmitype/StillImage"/>
    <dc:date>2026-06-09T04:56:55.502619</dc:date>
    <dc:format>image/svg+xml</dc:format>
    <dc:creator>
     <cc:Agent>
      <dc:title>Matplotlib v3.10.8, https://matplotlib.org/</dc:title>
     </cc:Agent>
    </dc:creator>
   </cc:Work>
  </rdf:RDF>
 </metadata>
 <defs>
  <style type="text/css">*{stroke-linejoin: round; stroke-linecap: butt}</style>
 </defs>
 <g id="figure_1">
  <g id="patch_1">
   <path d="M 0 432 
L 493.714286 432 
L 493.714286 0 
L 0 0 
z
" style="fill: #eaf3ff"/>
  </g>
  <g id="axes_1">
   <g id="PatchCollection_1">
    <path d="M 157.447928 -73.513017 
L 164.298519 -82.507714 
L 160.832132 -84.92842 
L 170.301526 -97.967849 
L 182.50625 -91.085059 
L 183.984309 -99.753173 
L 208.4833 -112.661355 
L 227.022214 -112.96862 
L 267.234013 -99.949965 
L 279.826576 -104.956418 
L 298.6416 -105.194848 
L 313.820494 -99.044809 
L 317.268482 -102.566699 
L 333.938663 -102.054898 
L 336.912567 -107.675511 
L 317.680621 -115.837957 
L 329.070879 -121.619255 
L 326.84827 -124.852587 
L 338.241594 -127.938419 
L 329.673756 -136.068053 
L 335.115692 -140.118132 
L 379.525453 -144.247978 
L 385.321095 -147.17967 
L 415.017895 -151.560693 
L 425.688135 -156.484287 
L 447.01635 -153.926509 
L 450.753204 -141.625803 
L 463.143758 -144.514152 
L 478.386784 -140.466661 
L 477.40366 -133.988957 
L 488.786875 -134.665912 
L 518.53174 -145.865564 
L 514.188943 -142.144657 
L 529.329547 -132.975475 
L 555.850597 -102.834406 
L 562.174974 -109.048389 
L 578.523785 -102.210677 
L 595.578506 -105.260632 
L 602.131033 -103.125112 
L 607.842721 -96.267161 
L 616.140706 -93.963596 
L 621.193094 -88.926234 
L 636.480278 -90.514381 
L 642.77767 -83.254717 
L 633.743721 -75.352925 
L 623.88672 -74.244073 
L 623.320028 -62.342934 
L 616.719051 -56.978376 
L 593.174973 -60.883887 
L 584.611427 -39.635401 
L 578.536664 -36.993293 
L 555.026318 -32.25185 
L 565.708824 -11.635066 
L 557.566618 -8.54586 
L 558.51417 -1.780211 
L 551.199309 -3.521071 
L 545.247819 -7.786592 
L 507.960241 -9.352353 
L 503.647496 -8.045405 
L 486.7461 -13.035236 
L 480.010196 -10.577732 
L 478.164155 -3.571055 
L 458.639663 -7.659638 
L 450.826187 -5.985015 
L 448.168133 -0.785128 
L 441.363539 1.408656 
L 425.710214 9.681496 
L 420.51738 18.173899 
L 416.095467 18.249335 
L 412.843123 12.627803 
L 397.74913 12.242648 
L 395.335171 2.520267 
L 389.552339 2.437165 
L 390.437948 -9.466734 
L 376.229564 -18.135462 
L 355.875274 -17.209681 
L 341.960049 -15.481701 
L 330.626215 -26.178927 
L 300.300849 -40.19504 
L 269.749787 -33.181617 
L 270.215897 10.578758 
L 264.128255 11.157716 
L 255.821683 1.851767 
L 247.799683 -1.472947 
L 234.327876 0.996517 
L 229.084138 4.945266 
L 228.418091 2.051397 
L 231.334959 -2.894582 
L 229.071872 -7.029469 
L 215.316718 -11.072667 
L 209.962586 -21.730949 
L 203.409446 -24.733372 
L 203.012026 -28.600246 
L 214.558063 -27.472995 
L 215.013747 -36.150309 
L 225.107483 -38.077613 
L 235.474139 -36.305168 
L 237.610272 -47.88371 
L 235.496218 -55.22249 
L 223.619611 -54.648439 
L 213.530781 -57.545067 
L 199.78912 -52.326474 
L 188.717064 -49.838202 
L 182.689121 -51.757398 
L 183.893541 -57.864598 
L 176.327802 -65.794193 
L 167.52153 -65.462835 
z
" clip-path="url(#p99b25d5ddb)" style="fill: #e8edf4; stroke: #b8c5d4; stroke-width: 0.45"/>
    <path d="M 269.749787 -33.181617 
L 300.300849 -40.19504 
L 330.626215 -26.178927 
L 341.960049 -15.481701 
L 355.875274 -17.209681 
L 376.229564 -18.135462 
L 390.437948 -9.466734 
L 389.552339 2.437165 
L 395.335171 2.520267 
L 397.74913 12.242648 
L 412.843123 12.627803 
L 416.095467 18.249335 
L 420.51738 18.173899 
L 425.710214 9.681496 
L 441.363539 1.408656 
L 448.168133 -0.785128 
L 451.69217 0.383214 
L 441.732134 8.07035 
L 450.48887 12.537647 
L 458.942022 9.578768 
L 473.009346 15.831696 
L 457.811705 24.378989 
L 448.783889 23.209728 
L 443.884827 23.516379 
L 442.184752 20.217424 
L 444.658815 14.713952 
L 428.789607 17.471974 
L 425.017182 25.087354 
L 419.37725 31.646933 
L 409.467505 31.088828 
L 406.391179 36.31478 
L 415.100077 39.146399 
L 417.663682 47.982557 
L 410.993402 59.993478 
L 402.042249 57.487523 
L 395.429619 57.408713 
L 395.75651 50.146596 
L 379.970098 45.066916 
L 367.558691 39.254953 
L 346.243968 25.470361 
L 340.410233 13.234666 
L 336.428058 11.08044 
L 323.595926 11.626893 
L 319.055032 9.196067 
L 317.786109 -0.27394 
L 301.794854 -6.54588 
L 291.79618 0.349482 
L 281.65706 4.438371 
L 283.605522 10.41654 
L 270.215897 10.578758 
z
" clip-path="url(#p99b25d5ddb)" style="fill: #e8edf4; stroke: #b8c5d4; stroke-width: 0.45"/>
    <path d="M 92.346527 467.788114 
L 105.965921 450.583952 
L 113.574105 450.364866 
L 124.150985 441.998308 
L 139.611956 441.475279 
L 173.14916 405.854505 
L 186.782196 388.660562 
L 186.901771 365.412454 
L 202.455851 362.220488 
L 208.072325 358.15767 
L 212.572484 358.125152 
L 211.790492 374.54756 
L 209.284774 378.834092 
L 205.940453 391.663305 
L 192.889187 420.076563 
L 182.704549 437.469903 
L 158.614734 466.948207 
L 146.737464 476.555815 
L 128.984637 488.34004 
L 117.921402 497.367297 
L 104.932919 511.743877 
L 102.19589 518.002062 
L 99.515829 520.812198 
L 92.488352 511.021464 
z
" clip-path="url(#p99b25d5ddb)" style="fill: #e8edf4; stroke: #b8c5d4; stroke-width: 0.45"/>
    <path d="M -133.673024 351.436985 
L -132.476954 347.078057 
L -129.403226 342.130708 
L -130.747767 337.215402 
L -126.846356 333.575446 
L -129.32098 330.802576 
L -126.182571 323.47436 
L -120.763108 314.734312 
L -110.529218 315.563657 
L -110.967033 263.472527 
L -97.318681 263.436448 
L -97.318681 239.736264 
L 43.511301 239.736264 
L 47.338655 251.380681 
L 44.735855 253.533679 
L 46.460176 265.751684 
L 50.816848 279.92069 
L 61.834035 287.228879 
L 55.827692 294.002822 
L 47.086457 295.953943 
L 43.348708 299.592593 
L 42.178035 307.481222 
L 37.066787 324.919899 
L 38.328251 329.671662 
L 36.437776 339.863776 
L 31.612312 351.554479 
L 24.454167 357.434189 
L 19.3644 366.500255 
L 18.17189 371.351829 
L 12.549956 374.675855 
L 9.039007 387.095974 
L 9.197565 397.765662 
L 9.060046 388.51178 
L 7.417149 388.27708 
L 7.620894 382.368486 
L 6.194681 378.293593 
L 0.082342 373.607466 
L -1.34387 365.050192 
L 0.082342 356.289172 
L -5.418763 355.474194 
L -6.233742 358.122874 
L -13.364804 358.734108 
L -10.512379 362.197767 
L -9.493656 369.328829 
L -16.013484 375.848657 
L -21.922079 384.405932 
L -28.034418 385.6284 
L -38.017905 378.701082 
L -42.500287 381.146018 
L -43.722755 384.609677 
L -49.835094 386.850868 
L -50.242583 389.295803 
L -62.059772 389.295803 
L -63.689729 386.850868 
L -72.247004 386.443378 
L -76.525641 388.480825 
L -79.785555 387.462102 
L -87.935341 377.27487 
L -96.492615 378.904827 
L -99.75253 384.405932 
L -102.808699 395.000653 
L -110.528154 398.535076 
L -102.453203 403.170077 
L -111.491445 397.98215 
L -115.60732 394.56452 
L -116.369655 390.876118 
L -114.441431 385.937191 
L -114.476389 381.094553 
L -121.321461 373.67451 
L -122.523982 365.721112 
L -126.885877 362.22298 
L -127.017257 355.32902 
L -129.504936 350.750176 
z
" clip-path="url(#p99b25d5ddb)" style="fill: #e8edf4; stroke: #b8c5d4; stroke-width: 0.45"/>
    <path d="M -70.162202 -181.280116 
L -65.076696 -185.046715 
L -68.596022 -196.115776 
L -60.151262 -202.954847 
L -61.938356 -205.026369 
L -48.449275 -211.585648 
L -60.883516 -217.228589 
L -24.448457 -239.234156 
L -19.98484 -245.28684 
L -37.552283 -253.418008 
L -32.700445 -261.151755 
L -43.384792 -269.984234 
L -35.394923 -280.158884 
L -49.198288 -293.668452 
L -38.245929 -302.617151 
L -56.421768 -310.525077 
L -54.689188 -318.834715 
L -45.104242 -319.928281 
L -24.910259 -324.689657 
L -12.66662 -328.817868 
L 6.829754 -321.643226 
L 39.330514 -318.818611 
L 84.172826 -305.395516 
L 93.281974 -299.754949 
L 94.06622 -291.856114 
L 80.891169 -285.620598 
L 61.511934 -282.45596 
L 8.529745 -291.47669 
L -0.184668 -289.968488 
L 19.164303 -281.276505 
L 20.696954 -263.643073 
L 45.249982 -256.943037 
L 46.78382 -262.697657 
L 39.634564 -267.797987 
L 47.188167 -272.29316 
L 75.878308 -264.906079 
L 85.873055 -267.797987 
L 77.885802 -276.489732 
L 105.544365 -288.113499 
L 116.498057 -287.429301 
L 127.579451 -283.281389 
L 134.492756 -291.437881 
L 124.596277 -298.512593 
L 130.40644 -305.610448 
L 121.68182 -312.972013 
L 154.879121 -309.164835 
L 161.659859 -302.518325 
L 146.632787 -301.053204 
L 146.714084 -294.448945 
L 156.055846 -290.385534 
L 174.392229 -292.959495 
L 177.295174 -300.529345 
L 243.503565 -316.373301 
L 252.455459 -315.789033 
L 240.754787 -308.586976 
L 255.47673 -307.349248 
L 263.979059 -311.403877 
L 286.223974 -311.731675 
L 303.847912 -316.65149 
L 317.370699 -309.502365 
L 330.857881 -317.362035 
L 318.421978 -324.237363 
L 324.593407 -328.153846 
L 359.651868 -324.562431 
L 376.078727 -320.852987 
L 419.089371 -307.293587 
L 427.023455 -313.50418 
L 414.962585 -319.779218 
L 414.615798 -322.296804 
L 400.313037 -323.461305 
L 404.225723 -329.088224 
L 397.878171 -338.347266 
L 397.519042 -342.146018 
L 419.420492 -352.892967 
L 427.209547 -363.679437 
L 436.035165 -366.013187 
L 467.456519 -362.883442 
L 469.930905 -356.282031 
L 458.680866 -346.656026 
L 466.062844 -342.872585 
L 469.881653 -334.576167 
L 467.185451 -318.313385 
L 480.278018 -311.038813 
L 475.184571 -303.116835 
L 451.938462 -286.259341 
L 465.503855 -284.510809 
L 470.224523 -288.783336 
L 483.282079 -291.830954 
L 486.433305 -297.703662 
L 496.705055 -303.355029 
L 489.78902 -310.102299 
L 495.326453 -317.937521 
L 482.348888 -318.914031 
L 479.494721 -325.51473 
L 488.964659 -337.431758 
L 473.551516 -347.10927 
L 494.792149 -355.108629 
L 492.043965 -363.54782 
L 497.963196 -363.817226 
L 504.199899 -357.237415 
L 499.517565 -345.784668 
L 512.218009 -343.616479 
L 506.806378 -352.175064 
L 526.667934 -356.841138 
L 551.298699 -357.469437 
L 573.230769 -350.703297 
L 562.676558 -360.58767 
L 561.494255 -373.231385 
L 582.131868 -375.626374 
L 610.677811 -375.103108 
L 636.396527 -376.657477 
L 626.750822 -382.862018 
L 640.485336 -390.656532 
L 654.120514 -390.982905 
L 677.195604 -396.87033 
L 708.534356 -398.452708 
L 712.493921 -401.703033 
L 743.657143 -402.804396 
L 753.367767 -400.139763 
L 780.003771 -406.446607 
L 801.807073 -406.249477 
L 805.078523 -411.371881 
L 816.41876 -416.423552 
L 844.436571 -421.293996 
L 864.790892 -417.448365 
L 848.630769 -414.522989 
L 875.513631 -412.704673 
L 878.716484 -406.83956 
L 889.561582 -409.72767 
L 924.257591 -409.569231 
L 951.011327 -403.780431 
L 960.537402 -399.334629 
L 957.584848 -393.16498 
L 913.267582 -383.064488 
L 904.351648 -379.542857 
L 936.623354 -374.887464 
L 947.308826 -377.132796 
L 953.362048 -369.514879 
L 958.574888 -372.598576 
L 977.552149 -374.473385 
L 1015.631169 -372.5136 
L 1018.523077 -366.962637 
L 1068.139701 -365.196897 
L 1068.81749 -374.261895 
L 1094.004396 -372.184615 
L 1112.951156 -372.249771 
L 1132.116053 -365.997877 
L 1137.579073 -358.402391 
L 1130.558242 -353.432967 
L 1145.464497 -344.093222 
L 1164.128202 -339.274167 
L 1175.58 -351.727516 
L 1194.618382 -346.388281 
L 1214.844884 -349.578791 
L 1237.817077 -345.927916 
L 1246.558431 -349.255741 
L 1265.971609 -347.591829 
L 1257.403767 -358.609727 
L 1273.072787 -363.75124 
L 1380.263736 -356.043956 
L 1390.365653 -348.999389 
L 1421.433099 -339.929644 
L 1469.356378 -342.174976 
L 1492.98476 -340.220413 
L 1502.865218 -335.313178 
L 1501.421459 -326.634488 
L 1516.041455 -323.255631 
L 1531.927424 -325.685749 
L 1552.974488 -325.996576 
L 1575.380215 -323.667574 
L 1597.873886 -324.981376 
L 1618.547697 -314.431912 
L 1633.255279 -318.227697 
L 1623.657758 -325.812976 
L 1628.942044 -331.085631 
L 1666.806844 -327.767301 
L 1691.493982 -328.477253 
L 1725.626374 -322.813187 
L 1742.241758 -317.634366 
L 1742.241758 -270.352587 
L 1726.898637 -265.073895 
L 1711.518488 -265.943591 
L 1722.22022 -259.626422 
L 1729.284725 -249.847556 
L 1734.76887 -246.650875 
L 1736.145811 -241.741266 
L 1733.082527 -238.59811 
L 1710.960923 -241.182989 
L 1677.789376 -232.249253 
L 1667.236708 -230.866141 
L 1631.85033 -215.242576 
L 1627.487011 -209.849578 
L 1610.510954 -218.059714 
L 1579.588774 -208.743231 
L 1574.189011 -213.151648 
L 1562.756914 -208.067341 
L 1546.883881 -209.69458 
L 1543.060207 -201.88891 
L 1528.821059 -190.403763 
L 1529.24404 -185.607138 
L 1542.76113 -182.947609 
L 1541.171156 -165.670101 
L 1530.153257 -165.230387 
L 1525.072273 -155.302576 
L 1530.009771 -150.19287 
L 1509.255732 -144.13051 
L 1505.137015 -130.579952 
L 1487.444123 -127.685433 
L 1483.886532 -115.62753 
L 1466.779925 -104.570703 
L 1462.391209 -112.747253 
L 1450.685196 -156.434202 
L 1456.390919 -172.893996 
L 1466.404418 -179.976659 
L 1467.023934 -185.523112 
L 1485.466774 -188.178132 
L 1506.666936 -203.120347 
L 1527.096738 -215.323516 
L 1548.431486 -224.793099 
L 1557.971802 -241.523723 
L 1543.550479 -240.522765 
L 1536.423547 -230.746154 
L 1506.320862 -217.711741 
L 1496.598963 -232.306338 
L 1465.959719 -228.276633 
L 1436.258295 -208.382796 
L 1446.057692 -201.104901 
L 1401.219653 -196.784189 
L 1402.079143 -205.365679 
L 1383.630844 -207.166905 
L 1368.927415 -201.336686 
L 1332.639534 -203.376699 
L 1293.600501 -199.859103 
L 1209.673464 -148.702826 
L 1228.371943 -147.206967 
L 1234.207622 -139.774787 
L 1245.734901 -137.136382 
L 1253.329675 -143.064989 
L 1266.347591 -142.295103 
L 1283.4828 -129.238853 
L 1283.885367 -119.141446 
L 1274.606743 -107.283996 
L 1273.605785 -93.111785 
L 1268.251477 -74.136778 
L 1250.36371 -56.962879 
L 1246.387767 -48.753692 
L 1206.625727 -14.220514 
L 1190.811204 -7.257007 
L 1183.32716 -7.102958 
L 1175.8716 -12.871701 
L 1159.942193 -4.186365 
L 1158.092308 -0.237363 
L 1156.430769 -2.314286 
L 1156.357975 -8.34347 
L 1162.420472 -8.663614 
L 1164.127907 -22.686168 
L 1161.002255 -32.850514 
L 1171.188248 -37.042358 
L 1185.592193 -34.940848 
L 1193.573797 -46.486606 
L 1197.641077 -59.488774 
L 1202.251371 -63.832154 
L 1208.488092 -74.51086 
L 1188.873445 -71.012275 
L 1178.584892 -66.330514 
L 1160.552097 -66.3444 
L 1155.745899 -77.495191 
L 1141.688387 -85.932397 
L 1121.032879 -89.726281 
L 1116.642331 -101.35144 
L 1100.725899 -125.71673 
L 1090.304046 -130.087125 
L 1072.540523 -133.620923 
L 1056.806679 -133.299605 
L 1042.058588 -131.159485 
L 1032.255558 -125.254913 
L 1038.767606 -122.434334 
L 1038.914901 -115.881745 
L 1032.314796 -112.077297 
L 1021.601552 -99.4896 
L 1021.709204 -94.26718 
L 1004.984439 -86.767715 
L 990.737417 -91.248505 
L 976.577484 -90.259247 
L 970.363501 -94.235902 
L 963.246736 -95.518318 
L 945.863284 -87.154402 
L 930.238784 -85.189074 
L 919.329356 -82.247674 
L 904.380715 -84.180191 
L 893.375612 -84.05661 
L 886.171758 -90.123094 
L 874.548445 -95.826809 
L 862.654052 -97.390118 
L 836.424935 -93.639158 
L 819.564409 -98.630822 
L 817.301393 -107.524207 
L 792.574404 -111.96403 
L 779.279228 -116.869839 
L 766.986802 -104.570053 
L 771.805521 -97.584535 
L 760.269679 -89.320154 
L 743.111446 -92.303921 
L 731.266212 -92.730857 
L 723.333755 -98.2745 
L 710.951064 -98.449596 
L 700.631741 -102.091696 
L 682.579789 -96.509415 
L 659.9342 -86.287499 
L 642.77767 -83.254717 
L 636.480278 -90.514381 
L 621.193094 -88.926234 
L 616.140706 -93.963596 
L 607.842721 -96.267161 
L 602.131033 -103.125112 
L 595.578506 -105.260632 
L 578.523785 -102.210677 
L 562.174974 -109.048389 
L 555.850597 -102.834406 
L 529.329547 -132.975475 
L 514.188943 -142.144657 
L 518.53174 -145.865564 
L 488.786875 -134.665912 
L 477.40366 -133.988957 
L 478.386784 -140.466661 
L 463.143758 -144.514152 
L 450.753204 -141.625803 
L 447.01635 -153.926509 
L 425.688135 -156.484287 
L 415.017895 -151.560693 
L 385.321095 -147.17967 
L 379.525453 -144.247978 
L 335.115692 -140.118132 
L 329.673756 -136.068053 
L 338.241594 -127.938419 
L 326.84827 -124.852587 
L 329.070879 -121.619255 
L 317.680621 -115.837957 
L 336.912567 -107.675511 
L 333.938663 -102.054898 
L 317.268482 -102.566699 
L 313.820494 -99.044809 
L 298.6416 -105.194848 
L 279.826576 -104.956418 
L 267.234013 -99.949965 
L 227.022214 -112.96862 
L 208.4833 -112.661355 
L 183.984309 -99.753173 
L 182.50625 -91.085059 
L 170.301526 -97.967849 
L 160.832132 -84.92842 
L 164.298519 -82.507714 
L 157.447928 -73.513017 
L 167.52153 -65.462835 
L 176.327802 -65.794193 
L 183.893541 -57.864598 
L 182.689121 -51.757398 
L 188.717064 -49.838202 
L 183.308163 -42.799925 
L 171.802009 -40.844057 
L 160.006273 -28.592703 
L 170.793574 -17.329371 
L 169.625512 -9.335235 
L 182.583732 4.641864 
L 175.497426 9.425442 
L 173.460648 12.444732 
L 168.210777 11.633946 
L 160.054464 4.425185 
L 149.258374 1.276536 
L 145.625291 -3.593441 
L 134.556404 -6.076397 
L 127.359415 -4.212712 
L 125.279881 -6.418642 
L 109.120352 -12.109055 
L 81.616727 -16.058819 
L 80.169333 -14.657115 
L 65.037363 -24.685714 
L 51.497248 -29.162492 
L 41.247218 -36.134782 
L 49.883776 -38.031547 
L 59.731714 -47.957578 
L 53.094699 -52.653798 
L 70.587732 -57.498132 
L 70.273582 -60.092624 
L 59.620012 -58.179836 
L 59.99474 -63.451786 
L 66.112259 -66.7656 
L 77.597141 -67.635737 
L 79.464501 -71.593437 
L 76.842 -78.137644 
L 81.662111 -84.351916 
L 81.522673 -87.836637 
L 64.028432 -91.698669 
L 57.093205 -91.570488 
L 49.76853 -97.128238 
L 40.662212 -95.248771 
L 25.589071 -99.421683 
L 25.847723 -101.756651 
L 21.625909 -106.903056 
L 12.162648 -107.477721 
L 11.179524 -111.16183 
L 14.143616 -113.56475 
L 6.559514 -120.284402 
L -5.747018 -119.137832 
L -9.351398 -119.733962 
L -12.349503 -117.034615 
L -16.781895 -117.514444 
L -19.700881 -125.114467 
L -22.487729 -129.054017 
L -20.203833 -130.162905 
L -10.627681 -129.751036 
L -6.009511 -132.346533 
L -9.428061 -135.510868 
L -17.431048 -137.59947 
L -16.717163 -139.742963 
L -21.546922 -141.907922 
L -28.987511 -149.678161 
L -26.444145 -152.879907 
L -27.606353 -158.451149 
L -39.208814 -161.281541 
L -45.43629 -159.864812 
L -47.122259 -162.811118 
L -59.617075 -165.787476 
L -63.431818 -172.792007 
L -64.443767 -178.547239 
z
" clip-path="url(#p99b25d5ddb)" style="fill: #e8edf4; stroke: #b8c5d4; stroke-width: 0.45"/>
    <path d="M 216.661691 -353.84694 
L 228.797112 -356.393373 
L 228.392332 -362.864943 
L 251.932117 -372.986278 
L 241.021462 -374.437352 
L 269.435776 -384.853686 
L 266.225137 -390.240937 
L 292.770718 -396.507051 
L 331.952175 -404.132243 
L 371.453163 -406.353626 
L 391.778628 -410.753459 
L 414.874995 -412.295302 
L 423.125143 -407.60875 
L 415.154048 -403.915747 
L 336.85921 -392.370937 
L 299.991744 -381.074514 
L 263.702009 -358.076583 
L 266.117195 -348.218048 
L 288.819209 -338.484627 
L 281.808545 -337.443546 
L 243.028188 -338.985389 
L 239.878879 -344.254886 
L 218.396111 -347.4367 
z
" clip-path="url(#p99b25d5ddb)" style="fill: #e8edf4; stroke: #b8c5d4; stroke-width: 0.45"/>
    <path d="M -2530.285714 -270.352587 
L -2530.285714 -317.634366 
L -2501.208791 -308.571429 
L -2470.093516 -296.7732 
L -2471.114176 -289.396681 
L -2463.11007 -286.444009 
L -2465.863358 -295.067749 
L -2433.647196 -293.298092 
L -2410.412598 -282.19142 
L -2422.179732 -277.018695 
L -2441.633736 -275.79058 
L -2441.927473 -264.193991 
L -2446.678642 -261.724233 
L -2457.793266 -262.079209 
L -2466.837732 -266.217033 
L -2482.617719 -269.678136 
L -2485.271789 -274.826413 
L -2497.323877 -276.767684 
L -2510.821147 -275.228149 
L -2517.270171 -279.381046 
L -2514.692295 -283.792075 
L -2528.906281 -280.9728 
L -2523.552686 -275.389437 
z
" clip-path="url(#p99b25d5ddb)" style="fill: #e8edf4; stroke: #b8c5d4; stroke-width: 0.45"/>
    <path d="M 1286.435187 -115.541425 
L 1287.485161 -131.759602 
L 1298.45592 -137.221063 
L 1293.742076 -142.719935 
L 1299.023839 -144.386278 
L 1306.216653 -125.099134 
L 1305.913068 -113.419704 
L 1310.811517 -101.444049 
L 1322.752521 -80.423098 
L 1305.185078 -84.341489 
L 1297.883096 -67.192319 
L 1309.452438 -55.0293 
L 1309.117575 -46.735607 
L 1300.126557 -53.890396 
L 1292.344972 -44.704348 
L 1290.148122 -54.663771 
L 1291.471629 -66.225754 
L 1290.118683 -79.032128 
L 1292.86444 -88.004133 
L 1293.388813 -103.873954 
z
" clip-path="url(#p99b25d5ddb)" style="fill: #e8edf4; stroke: #b8c5d4; stroke-width: 0.45"/>
    <path d="M -8.851556 -37.11718 
L -6.755288 -39.392534 
L 4.606759 -43.337297 
L 2.800738 -44.765613 
L 5.927679 -47.70482 
L 18.182184 -44.691417 
L 19.722368 -42.34766 
L 21.512876 -41.986189 
L 21.60935 -40.959522 
L 27.415486 -38.096625 
L 39.520855 -38.808669 
L 37.203184 -34.574427 
L 24.21098 -32.518637 
L 8.100131 -25.652713 
L 1.50038 -28.066672 
L 4.117343 -33.643434 
z
" clip-path="url(#p99b25d5ddb)" style="fill: #e8edf4; stroke: #b8c5d4; stroke-width: 0.45"/>
    <path d="M 138.227634 -455.615326 
L 161.39637 -457.776605 
L 179.428084 -457.920118 
L 181.853082 -454.722357 
L 188.669942 -457.563789 
L 199.856584 -459.520838 
L 217.458985 -456.919821 
L 212.869027 -455.110578 
L 186.263342 -452.645408 
L 184.608038 -450.697865 
L 170.736358 -448.736216 
L 157.879693 -451.549742 
L 164.640129 -455.254704 
z
" clip-path="url(#p99b25d5ddb)" style="fill: #e8edf4; stroke: #b8c5d4; stroke-width: 0.45"/>
    <path d="M 688.126985 -452.667877 
L 718.943657 -460.775473 
L 744.617215 -463.455297 
L 767.676462 -457.480582 
L 795.006455 -446.005998 
L 792.076273 -435.334233 
L 766.182145 -433.853802 
L 733.125244 -437.278292 
L 713.427587 -441.809011 
L 704.319033 -450.321903 
z
" clip-path="url(#p99b25d5ddb)" style="fill: #e8edf4; stroke: #b8c5d4; stroke-width: 0.45"/>
    <path d="M 1231.608145 -392.380259 
L 1237.985723 -400.5396 
L 1253.643527 -402.765943 
L 1284.981804 -402.245288 
L 1327.881185 -395.952033 
L 1318.549451 -387.138462 
L 1274.801262 -387.466971 
L 1255.119508 -384.663719 
z
" clip-path="url(#p99b25d5ddb)" style="fill: #e8edf4; stroke: #b8c5d4; stroke-width: 0.45"/>
    <path d="M -160.686909 -145.100776 
L -157.982857 -150.323662 
L -141.605222 -154.17275 
L -129.176029 -152.093653 
L -123.929837 -150.209894 
L -125.196307 -146.960003 
L -124.246302 -143.931208 
L -146.070065 -143.753043 
z
" clip-path="url(#p99b25d5ddb)" style="fill: #e8edf4; stroke: #b8c5d4; stroke-width: 0.45"/>
    <path d="M 1265.891974 -369.927653 
L 1277.149965 -374.618295 
L 1291.989402 -375.716334 
L 1308.851169 -371.178791 
L 1310.287451 -368.059727 
L 1292.292752 -367.976651 
z
" clip-path="url(#p99b25d5ddb)" style="fill: #e8edf4; stroke: #b8c5d4; stroke-width: 0.45"/>
    <path d="M 786.12298 -423.941538 
L 807.803209 -439.524277 
L 817.552286 -440.858492 
L 826.470771 -440.08564 
L 856.551916 -433.345134 
L 853.027556 -428.521332 
z
" clip-path="url(#p99b25d5ddb)" style="fill: #e8edf4; stroke: #b8c5d4; stroke-width: 0.45"/>
    <path d="M -2530.285714 -339.810716 
L -2530.285714 -347.922764 
L -2518.706334 -348.395301 
L -2501.540446 -345.000422 
L -2502.556714 -343.37793 
L -2514.783323 -340.532545 
z
" clip-path="url(#p99b25d5ddb)" style="fill: #e8edf4; stroke: #b8c5d4; stroke-width: 0.45"/>
    <path d="M 1340.139837 -391.327675 
L 1342.979822 -395.171051 
L 1394.881358 -390.27236 
L 1381.164824 -385.582787 
L 1362.19409 -386.644213 
z
" clip-path="url(#p99b25d5ddb)" style="fill: #e8edf4; stroke: #b8c5d4; stroke-width: 0.45"/>
    <path d="M 1727.113451 -342.974769 
L 1742.241758 -347.922764 
L 1742.241758 -339.810716 
L 1729.227462 -339.204738 
z
" clip-path="url(#p99b25d5ddb)" style="fill: #e8edf4; stroke: #b8c5d4; stroke-width: 0.45"/>
    <path d="M 12.644704 130.319673 
L 16.097598 126.409562 
L 15.287425 125.736462 
L 18.426309 120.189446 
L 20.833522 111.235533 
L 22.531144 108.230963 
L 26.830396 108.130074 
L 27.923301 106.050365 
L 31.107569 105.894279 
L 31.289106 110.751944 
L 27.838665 116.378996 
L 23.545546 114.735038 
L 21.06167 122.638363 
L 24.043548 123.970457 
L 21.012606 125.603069 
L 20.501112 128.728459 
L 26.08094 127.11854 
L 26.358153 131.735483 
L 20.444074 150.709535 
z
" clip-path="url(#p99b25d5ddb)" style="fill: #e8edf4; stroke: #b8c5d4; stroke-width: 0.45"/>
    <path d="M 22.858647 108.107996 
L 27.08553 98.440812 
L 33.21181 89.664756 
L 38.549997 90.269779 
L 40.4911 94.923827 
L 34.01953 99.396644 
L 31.107569 105.894279 
L 27.923301 106.050365 
L 26.830396 108.130074 
z
" clip-path="url(#p99b25d5ddb)" style="fill: #e8edf4; stroke: #b8c5d4; stroke-width: 0.45"/>
    <path d="M 20.501112 128.728459 
L 21.012606 125.603069 
L 24.043548 123.970457 
L 21.06167 122.638363 
L 23.545546 114.735038 
L 27.838665 116.378996 
L 27.833759 123.636207 
L 26.08094 127.11854 
z
" clip-path="url(#p99b25d5ddb)" style="fill: #e8edf4; stroke: #b8c5d4; stroke-width: 0.45"/>
    <path d="M 20.444074 150.709535 
L 26.358153 131.735483 
L 26.08094 127.11854 
L 27.833759 123.636207 
L 27.838665 116.378996 
L 29.906722 112.638156 
L 43.129529 117.340961 
L 66.370635 104.692513 
L 71.155009 119.144071 
L 68.893149 120.933689 
L 45.124602 126.889165 
L 56.953372 138.756265 
L 53.028234 140.771885 
L 51.075478 144.746393 
L 42.019451 146.390044 
L 39.179246 150.662924 
L 34.048969 154.315449 
L 20.840881 152.427703 
z
" clip-path="url(#p99b25d5ddb)" style="fill: #e8edf4; stroke: #b8c5d4; stroke-width: 0.45"/>
    <path d="M 218.130551 213.086408 
L 220.242152 212.509903 
L 220.680664 215.764701 
L 229.969747 213.894127 
L 246.952099 214.554961 
L 271.433917 191.60548 
L 273.691484 195.650825 
L 275.303243 205.025157 
L 269.243199 205.071461 
L 268.268661 212.800302 
L 270.37045 214.450699 
L 264.999145 216.787996 
L 264.966026 221.638914 
L 261.508226 226.550855 
L 261.197894 231.32971 
L 258.806014 233.838425 
L 223.129582 227.85443 
z
" clip-path="url(#p99b25d5ddb)" style="fill: #e8edf4; stroke: #b8c5d4; stroke-width: 0.45"/>
    <path d="M 208.213446 198.406394 
L 211.411207 192.180758 
L 214.652512 190.903862 
L 218.244012 194.624156 
L 218.453148 201.572262 
L 215.876664 208.554101 
L 212.586908 209.397392 
L 208.999087 207.042616 
z
" clip-path="url(#p99b25d5ddb)" style="fill: #e8edf4; stroke: #b8c5d4; stroke-width: 0.45"/>
    <path d="M 158.661654 155.484097 
L 167.371779 144.090159 
L 175.345941 145.07819 
L 177.822457 150.316102 
L 176.763283 153.02414 
L 180.586612 161.976213 
L 172.192951 162.284091 
L 169.237446 156.62944 
z
" clip-path="url(#p99b25d5ddb)" style="fill: #e8edf4; stroke: #b8c5d4; stroke-width: 0.45"/>
    <path d="M 66.370635 104.692513 
L 92.644523 92.341516 
L 97.128379 77.993606 
L 96.009715 69.323959 
L 102.505817 66.392065 
L 108.588554 58.986128 
L 113.686326 57.141927 
L 127.490543 58.673344 
L 131.658549 61.696313 
L 137.346058 59.691518 
L 145.035907 73.848906 
L 152.818105 77.411275 
L 153.713527 84.343742 
L 147.739959 88.439684 
L 144.989296 97.700862 
L 153.210006 108.981645 
L 167.752027 115.486947 
L 173.858682 124.506483 
L 171.913285 133.102841 
L 175.704109 133.099468 
L 175.82125 139.421392 
L 182.389109 145.660214 
L 167.371779 144.090159 
L 158.661654 155.484097 
L 136.596249 154.536237 
L 103.133839 130.668029 
L 85.450482 122.360537 
L 71.155009 119.144071 
z
" clip-path="url(#p99b25d5ddb)" style="fill: #e8edf4; stroke: #b8c5d4; stroke-width: 0.45"/>
    <path d="M 223.120995 275.340619 
L 258.725058 263.472599 
L 266.637276 239.73625 
L 261.197894 231.32971 
L 261.508226 226.550855 
L 264.966026 221.638914 
L 264.999145 216.787996 
L 270.37045 214.450699 
L 268.268661 212.800302 
L 269.243199 205.071461 
L 275.303243 205.025157 
L 280.623644 213.131792 
L 287.249767 217.440857 
L 302.984048 221.154711 
L 311.539621 231.900082 
L 315.787969 233.403287 
L 315.765277 236.050914 
L 309.549454 246.454982 
L 304.54981 250.251019 
L 300.121151 258.381266 
L 294.736967 257.758764 
L 292.269036 260.588543 
L 290.362892 266.605656 
L 291.821939 274.538726 
L 290.702661 275.996853 
L 285.241814 275.957909 
L 277.828824 280.393314 
L 276.672135 286.174918 
L 273.958271 288.679647 
L 266.575946 288.583972 
L 261.928951 291.572596 
L 261.987828 296.366783 
L 256.244862 299.662058 
L 249.696629 298.543088 
L 241.759878 302.546421 
L 236.277565 303.218294 
z
" clip-path="url(#p99b25d5ddb)" style="fill: #e8edf4; stroke: #b8c5d4; stroke-width: 0.45"/>
    <path d="M 271.433917 191.60548 
L 274.889877 187.564735 
L 276.357511 188.595084 
L 275.238847 193.498132 
L 273.691484 195.650825 
z
" clip-path="url(#p99b25d5ddb)" style="fill: #e8edf4; stroke: #b8c5d4; stroke-width: 0.45"/>
    <path d="M 415.107437 219.6558 
L 423.011069 211.737755 
L 449.128565 211.768727 
L 446.772256 201.579009 
L 440.104429 195.560363 
L 438.752096 186.426139 
L 430.984004 181.096231 
L 444.063911 168.655693 
L 457.844823 169.557861 
L 470.25991 157.115175 
L 477.699885 145.071137 
L 489.220777 133.162638 
L 489.037399 124.70274 
L 499.157507 117.83743 
L 489.578945 111.977016 
L 481.252134 93.548189 
L 487.070537 88.430791 
L 505.072812 91.326193 
L 518.301751 89.562335 
L 529.763152 79.587579 
L 542.519235 93.497898 
L 541.318389 103.179188 
L 546.039593 109.253338 
L 545.650759 115.313382 
L 537.133211 113.718489 
L 540.461605 126.800236 
L 552.121716 134.315034 
L 568.617106 142.613633 
L 561.086362 147.997204 
L 556.478005 159.098596 
L 594.643833 176.069602 
L 610.912301 177.607766 
L 617.757372 183.645118 
L 641.205162 187.54143 
L 651.088535 187.343026 
L 652.448227 182.645741 
L 650.885532 175.104571 
L 651.803033 169.992692 
L 659.041231 167.49655 
L 660.291142 179.221058 
L 671.07791 183.725767 
L 678.539964 181.870526 
L 698.243541 182.314557 
L 699.077019 175.023921 
L 694.246034 171.23647 
L 703.817236 169.751358 
L 714.61995 160.924399 
L 728.299667 153.366669 
L 738.254796 156.282924 
L 746.715307 151.285426 
L 752.280416 158.665298 
L 748.27187 163.649303 
L 761.069044 165.422974 
L 761.964466 169.921549 
L 757.80382 172.099081 
L 758.777132 179.401369 
L 750.295768 177.255423 
L 734.931309 185.456507 
L 735.291931 192.248221 
L 728.741858 202.203351 
L 728.141435 207.986182 
L 722.849245 217.771427 
L 713.573655 215.067682 
L 713.112452 227.349989 
L 710.429866 231.391654 
L 711.685909 236.431469 
L 705.830095 239.246835 
L 699.579314 220.420895 
L 696.302438 220.458306 
L 694.362561 228.043021 
L 687.864619 221.892208 
L 691.529103 215.137905 
L 696.838464 214.452233 
L 702.310964 204.408481 
L 695.467733 202.382129 
L 684.461402 202.558147 
L 673.168659 200.930441 
L 672.121751 192.678147 
L 666.456061 192.092749 
L 657.05597 186.964312 
L 652.863433 195.016363 
L 661.429432 201.299036 
L 654.009696 205.721255 
L 651.375561 210.046266 
L 658.680609 213.226241 
L 656.661003 220.377657 
L 660.773811 229.302438 
L 662.621079 239.07511 
L 660.921617 243.4084 
L 652.8481 243.259061 
L 638.217151 245.723005 
L 638.899144 254.650852 
L 632.563726 261.672862 
L 615.484473 269.660823 
L 602.200949 283.624499 
L 593.278621 291.110779 
L 581.452918 298.879484 
L 581.434519 304.338492 
L 564.828122 311.515053 
L 559.284478 312.141542 
L 555.726096 321.194197 
L 558.826341 346.475148 
L 553.797259 357.750412 
L 553.743288 377.913658 
L 547.601675 378.488323 
L 542.199705 387.540364 
L 545.812058 391.452009 
L 534.990945 394.816588 
L 530.994051 402.887958 
L 526.231755 406.299148 
L 514.993596 395.217381 
L 504.947085 366.627355 
L 500.788892 361.013795 
L 494.483527 349.612191 
L 489.487563 327.356049 
L 478.691596 311.055996 
L 470.226178 272.869316 
L 470.268496 258.493807 
L 467.966771 247.379229 
L 450.695553 254.483114 
L 442.330718 253.060252 
L 426.827038 238.676463 
L 432.533207 234.386411 
L 429.028182 229.729297 
z
" clip-path="url(#p99b25d5ddb)" style="fill: #e8edf4; stroke: #b8c5d4; stroke-width: 0.45"/>
    <path d="M 328.44163 146.817823 
L 348.327971 152.87848 
L 360.200898 151.101129 
L 367.294971 152.614453 
L 369.697277 150.012823 
L 377.962758 151.055438 
L 393.386708 146.121111 
L 393.801914 136.021855 
L 400.41761 129.304351 
L 409.253462 129.325203 
L 410.550598 126.004782 
L 419.620731 124.457419 
L 424.008912 125.562591 
L 428.650387 122.224997 
L 427.994767 115.097807 
L 433.034275 107.934738 
L 440.587711 104.931701 
L 435.922931 97.079893 
L 447.212607 97.450941 
L 450.475991 93.177754 
L 449.980442 88.617849 
L 455.891454 83.632311 
L 454.534828 77.729579 
L 451.728968 72.699577 
L 458.659289 67.530355 
L 471.402493 65.037279 
L 485.021493 63.658575 
L 497.963407 60.135457 
L 506.732409 65.668674 
L 510.244794 74.788179 
L 529.763152 79.587579 
L 518.301751 89.562335 
L 505.072812 91.326193 
L 487.070537 88.430791 
L 481.252134 93.548189 
L 489.578945 111.977016 
L 499.157507 117.83743 
L 489.037399 124.70274 
L 489.220777 133.162638 
L 477.699885 145.071137 
L 470.25991 157.115175 
L 457.844823 169.557861 
L 444.063911 168.655693 
L 430.984004 181.096231 
L 438.752096 186.426139 
L 440.104429 195.560363 
L 446.772256 201.579009 
L 449.128565 211.768727 
L 423.011069 211.737755 
L 415.107437 219.6558 
L 406.408351 216.654603 
L 402.868981 208.124175 
L 393.699492 199.08624 
L 371.833411 201.318662 
L 352.551173 201.539757 
L 335.836835 203.203341 
L 340.309038 189.415683 
L 357.428157 183.285109 
L 356.446259 177.819662 
L 350.767689 175.898491 
L 350.440185 165.445973 
L 339.094699 160.227687 
L 334.31707 153.060018 
z
" clip-path="url(#p99b25d5ddb)" style="fill: #e8edf4; stroke: #b8c5d4; stroke-width: 0.45"/>
    <path d="M 324.337409 101.158662 
L 332.436071 77.735405 
L 344.5396 82.238274 
L 353.4883 80.655339 
L 355.967269 75.277595 
L 365.335468 73.487977 
L 372.024148 69.878691 
L 374.393336 60.387218 
L 384.396303 58.091933 
L 386.255837 53.867504 
L 391.854678 57.040732 
L 402.042249 57.487523 
L 414.619861 61.439952 
L 423.211006 57.627663 
L 427.208513 59.920495 
L 431.036135 54.486633 
L 438.130821 54.73318 
L 439.958463 52.989254 
L 441.21328 48.203653 
L 446.322705 44.074899 
L 452.747051 46.773431 
L 451.456662 50.40081 
L 455.046936 50.964435 
L 453.940538 60.935204 
L 458.639663 64.821703 
L 462.77455 62.328015 
L 468.042207 61.14986 
L 475.438025 55.836512 
L 495.850579 56.729787 
L 497.963407 60.135457 
L 485.021493 63.658575 
L 471.402493 65.037279 
L 458.659289 67.530355 
L 451.728968 72.699577 
L 454.534828 77.729579 
L 455.891454 83.632311 
L 449.980442 88.617849 
L 450.475991 93.177754 
L 447.212607 97.450941 
L 435.922931 97.079893 
L 440.587711 104.931701 
L 433.034275 107.934738 
L 427.994767 115.097807 
L 428.650387 122.224997 
L 424.008912 125.562591 
L 419.620731 124.457419 
L 410.550598 126.004782 
L 409.253462 129.325203 
L 400.41761 129.304351 
L 393.801914 136.021855 
L 393.386708 146.121111 
L 377.962758 151.055438 
L 369.697277 150.012823 
L 367.294971 152.614453 
L 360.200898 151.101129 
L 348.327971 152.87848 
L 328.44163 146.817823 
L 339.205706 136.05804 
L 338.233622 128.419048 
L 329.245057 126.418455 
L 328.315903 118.884031 
L 324.428177 109.409117 
L 329.503257 102.910562 
z
" clip-path="url(#p99b25d5ddb)" style="fill: #e8edf4; stroke: #b8c5d4; stroke-width: 0.45"/>
    <path d="M 406.391179 36.31478 
L 409.467505 31.088828 
L 419.37725 31.646933 
L 425.017182 25.087354 
L 428.789607 17.471974 
L 444.658815 14.713952 
L 442.184752 20.217424 
L 443.884827 23.516379 
L 448.783889 23.209728 
L 444.438026 26.872371 
L 431.520644 24.884964 
L 430.39646 31.727276 
L 443.264778 30.807322 
L 457.928232 34.661316 
L 480.367139 32.860046 
L 483.375388 43.843071 
L 487.275994 42.64805 
L 494.483527 45.349956 
L 494.070161 49.964752 
L 495.850579 56.729787 
L 475.438025 55.836512 
L 468.042207 61.14986 
L 462.77455 62.328015 
L 458.639663 64.821703 
L 453.940538 60.935204 
L 455.046936 50.964435 
L 451.456662 50.40081 
L 452.747051 46.773431 
L 446.322705 44.074899 
L 441.21328 48.203653 
L 439.958463 52.989254 
L 438.130821 54.73318 
L 431.036135 54.486633 
L 427.208513 59.920495 
L 423.211006 57.627663 
L 414.619861 61.439952 
L 410.993402 59.993478 
L 417.663682 47.982557 
L 415.100077 39.146399 
z
" clip-path="url(#p99b25d5ddb)" style="fill: #e8edf4; stroke: #b8c5d4; stroke-width: 0.45"/>
    <path d="M 430.39646 31.727276 
L 431.520644 24.884964 
L 444.438026 26.872371 
L 448.783889 23.209728 
L 457.811705 24.378989 
L 473.009346 15.831696 
L 458.942022 9.578768 
L 450.48887 12.537647 
L 441.732134 8.07035 
L 451.69217 0.383214 
L 448.168133 -0.785128 
L 450.826187 -5.985015 
L 458.639663 -7.659638 
L 478.164155 -3.571055 
L 480.010196 -10.577732 
L 486.7461 -13.035236 
L 503.647496 -8.045405 
L 507.960241 -9.352353 
L 545.247819 -7.786592 
L 551.199309 -3.521071 
L 558.51417 -1.780211 
L 556.845987 0.902681 
L 538.144547 7.331627 
L 533.913985 12.042405 
L 518.690585 13.452695 
L 514.203049 21.03097 
L 501.640156 19.439143 
L 493.439686 21.761107 
L 482.110145 27.368227 
L 483.74521 30.144955 
L 480.367139 32.860046 
L 457.928232 34.661316 
L 443.264778 30.807322 
z
" clip-path="url(#p99b25d5ddb)" style="fill: #e8edf4; stroke: #b8c5d4; stroke-width: 0.45"/>
    <path d="M 229.084138 4.945266 
L 234.327876 0.996517 
L 247.799683 -1.472947 
L 255.821683 1.851767 
L 264.128255 11.157716 
L 283.605522 10.41654 
L 281.65706 4.438371 
L 291.79618 0.349482 
L 301.794854 -6.54588 
L 317.786109 -0.27394 
L 319.055032 9.196067 
L 323.595926 11.626893 
L 336.428058 11.08044 
L 340.410233 13.234666 
L 346.243968 25.470361 
L 367.558691 39.254953 
L 379.970098 45.066916 
L 395.75651 50.146596 
L 395.429619 57.408713 
L 391.854678 57.040732 
L 386.255837 53.867504 
L 384.396303 58.091933 
L 374.393336 60.387218 
L 372.024148 69.878691 
L 365.335468 73.487977 
L 355.967269 75.277595 
L 353.4883 80.655339 
L 344.5396 82.238274 
L 332.436071 77.735405 
L 331.394683 67.748077 
L 322.547791 67.323365 
L 308.983989 56.81289 
L 299.506008 55.515448 
L 286.38317 49.499255 
L 277.944125 48.40543 
L 272.734118 50.616079 
L 264.796755 50.272016 
L 256.355256 57.056984 
L 245.926657 59.353496 
L 243.718154 50.960142 
L 245.443988 38.546589 
L 236.188023 34.529456 
L 239.235524 26.403195 
L 231.357038 25.710776 
L 233.9832 15.707195 
L 245.173521 18.62069 
L 255.60212 14.82312 
L 246.955779 7.699915 
L 243.554402 0.911574 
L 234.000986 3.938836 
L 232.789713 12.635162 
z
" clip-path="url(#p99b25d5ddb)" style="fill: #e8edf4; stroke: #b8c5d4; stroke-width: 0.45"/>
    <path d="M 129.472124 32.896844 
L 137.598999 29.516013 
L 139.482451 33.993123 
L 145.476259 39.471756 
L 153.616626 41.049477 
L 157.914038 40.700508 
L 171.910832 31.944691 
L 176.36157 31.067975 
L 179.867822 34.550921 
L 175.775866 40.422682 
L 183.177203 46.637278 
L 186.130869 46.045441 
L 189.885508 54.796657 
L 201.138386 57.26888 
L 209.381788 63.223743 
L 226.254359 65.269721 
L 244.789594 62.129304 
L 245.926657 59.353496 
L 256.355256 57.056984 
L 264.796755 50.272016 
L 272.734118 50.616079 
L 277.944125 48.40543 
L 286.38317 49.499255 
L 299.506008 55.515448 
L 308.983989 56.81289 
L 322.547791 67.323365 
L 331.394683 67.748077 
L 332.436071 77.735405 
L 324.337409 101.158662 
L 329.503257 102.910562 
L 324.428177 109.409117 
L 328.315903 118.884031 
L 329.245057 126.418455 
L 338.233622 128.419048 
L 339.205706 136.05804 
L 328.44163 146.817823 
L 334.31707 153.060018 
L 339.094699 160.227687 
L 350.440185 165.445973 
L 350.767689 175.898491 
L 356.446259 177.819662 
L 357.428157 183.285109 
L 340.309038 189.415683 
L 335.836835 203.203341 
L 300.569475 196.892763 
L 287.176171 195.350613 
L 282.114583 180.79786 
L 276.434174 178.694845 
L 267.314362 180.815339 
L 255.34392 186.559225 
L 240.841151 182.622435 
L 228.860282 173.502011 
L 217.433226 170.121486 
L 209.507515 158.860635 
L 200.749552 143.037425 
L 194.362618 144.960742 
L 186.820221 141.027939 
L 182.389109 145.660214 
L 175.82125 139.421392 
L 175.704109 133.099468 
L 171.913285 133.102841 
L 173.858682 124.506483 
L 167.752027 115.486947 
L 153.210006 108.981645 
L 144.989296 97.700862 
L 147.739959 88.439684 
L 153.713527 84.343742 
L 152.818105 77.411275 
L 145.035907 73.848906 
L 137.345974 59.691363 
L 130.855122 50.183394 
L 133.177086 46.507871 
z
" clip-path="url(#p99b25d5ddb)" style="fill: #e8edf4; stroke: #b8c5d4; stroke-width: 0.45"/>
    <path d="M 29.906722 112.638156 
L 31.289106 110.751944 
L 31.107569 105.894279 
L 34.01953 99.396644 
L 40.4911 94.923827 
L 38.549997 90.269779 
L 33.21181 89.664756 
L 32.103572 80.584503 
L 35.008174 75.700467 
L 41.365057 70.500273 
L 42.007185 63.879977 
L 45.891231 66.188142 
L 58.957645 62.886733 
L 65.273436 65.121302 
L 75.037215 65.084197 
L 88.693627 60.631006 
L 95.088534 60.831863 
L 108.588554 58.986128 
L 102.505817 66.392065 
L 96.009715 69.323959 
L 97.128379 77.993606 
L 92.644523 92.341516 
L 66.370635 104.692513 
L 43.129529 117.340961 
z
" clip-path="url(#p99b25d5ddb)" style="fill: #e8edf4; stroke: #b8c5d4; stroke-width: 0.45"/>
    <path d="M 123.223796 13.14819 
L 139.717346 11.296936 
L 142.174237 14.41558 
L 146.694278 16.469531 
L 144.30669 19.445889 
L 150.629228 23.516992 
L 147.283662 27.296777 
L 152.321944 30.524589 
L 157.650318 32.469372 
L 157.914038 40.700508 
L 153.616626 41.049477 
L 148.771534 34.183553 
L 148.826118 32.352538 
L 143.58238 32.379216 
L 140.067542 29.195562 
L 137.598999 29.516013 
L 132.923179 26.050546 
L 124.098366 23.10056 
L 125.240336 17.325088 
z
" clip-path="url(#p99b25d5ddb)" style="fill: #e8edf4; stroke: #b8c5d4; stroke-width: 0.45"/>
    <path d="M -83.423646 32.475812 
L -70.259104 21.125112 
L -51.982683 20.650415 
L -46.997758 11.630879 
L -24.377928 13.201854 
L -10.111893 5.503678 
L 3.718083 2.148606 
L 23.352969 1.896232 
L 44.067882 10.261681 
L 61.093165 14.851945 
L 74.918848 13.022156 
L 85.135245 14.07949 
L 99.147372 7.884519 
L 111.792447 7.320588 
L 123.223796 13.14819 
L 125.240336 17.325088 
L 124.098366 23.10056 
L 132.923179 26.050546 
L 137.598999 29.516013 
L 129.472124 32.896844 
L 133.177086 46.507871 
L 130.855122 50.183394 
L 137.346058 59.691518 
L 131.658549 61.696313 
L 127.490543 58.673344 
L 113.686326 57.141927 
L 108.588554 58.986128 
L 95.088534 60.831863 
L 88.693627 60.631006 
L 75.037215 65.084197 
L 65.273436 65.121302 
L 58.957645 62.886733 
L 45.891231 66.188142 
L 42.007185 63.879977 
L 41.365057 70.500273 
L 35.008174 75.700467 
L 30.644525 70.318736 
L 35.139421 65.860945 
L 27.901222 66.871668 
L 17.974918 64.140937 
L 9.813699 70.971903 
L -8.199002 72.305836 
L -17.807002 65.936074 
L -30.600497 65.537428 
L -33.33644 70.461328 
L -41.538751 71.869165 
L -53.016098 65.549694 
L -65.972731 65.76343 
L -73.003633 53.960112 
L -81.673894 47.376001 
L -75.900262 38.147022 
z
" clip-path="url(#p99b25d5ddb)" style="fill: #e8edf4; stroke: #b8c5d4; stroke-width: 0.45"/>
    <path d="M -84.936051 18.778309 
L -84.774752 16.329084 
L -81.954173 14.998218 
L -78.279877 7.570508 
L -84.061481 4.427945 
L -71.971445 0.694465 
L -61.753208 2.286292 
L -60.343225 6.849264 
L -49.983316 10.6821 
L -52.143368 13.589461 
L -66.235838 14.243855 
L -81.201651 24.306006 
z
" clip-path="url(#p99b25d5ddb)" style="fill: #e8edf4; stroke: #b8c5d4; stroke-width: 0.45"/>
    <path d="M 480.367139 32.860046 
L 483.74521 30.144955 
L 482.110145 27.368227 
L 493.439686 21.761107 
L 501.640156 19.439143 
L 514.203049 21.03097 
L 518.690585 13.452695 
L 533.913985 12.042405 
L 538.144547 7.331627 
L 556.845987 0.902681 
L 558.51417 -1.780211 
L 557.566618 -8.54586 
L 565.708824 -11.635066 
L 555.026318 -32.25185 
L 578.536664 -36.993293 
L 584.611427 -39.635401 
L 593.174973 -60.883887 
L 616.719051 -56.978376 
L 623.320028 -62.342934 
L 623.88672 -74.244073 
L 633.743721 -75.352925 
L 642.77767 -83.254717 
L 647.421598 -84.230482 
L 650.537789 -75.949668 
L 660.512544 -69.655036 
L 677.442766 -65.198165 
L 685.631584 -55.639536 
L 681.061865 -41.772455 
L 685.331679 -36.625925 
L 715.419696 -32.939669 
L 729.758714 -25.544158 
L 737.092588 -24.226784 
L 742.499464 -13.28577 
L 749.465357 -6.238309 
L 762.54833 -6.514295 
L 787.044867 -3.853481 
L 802.830052 -5.504492 
L 814.545974 -3.736954 
L 832.101764 3.471806 
L 846.462247 3.46138 
L 851.716411 7.151623 
L 865.534735 0.779407 
L 884.707191 -3.341067 
L 902.495423 -3.791231 
L 916.363424 -7.966289 
L 924.879745 -14.322865 
L 933.186317 -18.313933 
L 931.265453 -22.231097 
L 927.475242 -26.791616 
L 933.705171 -34.442261 
L 952.582629 -30.962688 
L 964.408332 -37.26376 
L 982.504442 -41.86169 
L 991.201074 -49.706139 
L 999.554257 -53.082983 
L 1016.794196 -54.657638 
L 1026.157489 -53.319718 
L 1027.457691 -57.537401 
L 1016.702201 -65.83324 
L 1007.178836 -69.627131 
L 998.056572 -65.247536 
L 986.34801 -67.095417 
L 979.629279 -65.589759 
L 976.572578 -70.441903 
L 990.737417 -91.248505 
L 1004.984439 -86.767715 
L 1021.709204 -94.26718 
L 1021.601552 -99.4896 
L 1032.314796 -112.077297 
L 1038.914901 -115.881745 
L 1038.767606 -122.434334 
L 1032.255558 -125.254913 
L 1042.058588 -131.159485 
L 1056.806679 -133.299605 
L 1072.540523 -133.620923 
L 1090.304046 -130.087125 
L 1100.725899 -125.71673 
L 1116.642331 -101.35144 
L 1121.032879 -89.726281 
L 1141.688387 -85.932397 
L 1155.745899 -77.495191 
L 1160.552097 -66.3444 
L 1178.584892 -66.330514 
L 1188.873445 -71.012275 
L 1208.488092 -74.51086 
L 1202.251371 -63.832154 
L 1197.641077 -59.488774 
L 1193.573797 -46.486606 
L 1185.592193 -34.940848 
L 1171.188248 -37.042358 
L 1161.002255 -32.850514 
L 1164.127907 -22.686168 
L 1162.420472 -8.663614 
L 1156.357975 -8.34347 
L 1156.430766 -2.314574 
L 1148.767127 -9.321075 
L 1144.048376 -2.670114 
L 1125.718598 2.441458 
L 1127.572612 8.702052 
L 1117.310831 8.270287 
L 1111.677032 4.550606 
L 1103.523173 12.967879 
L 1090.443266 19.347147 
L 1080.778842 26.95854 
L 1064.18655 30.408675 
L 1055.44944 35.955078 
L 1042.669438 39.194849 
L 1048.976643 33.695364 
L 1046.49338 29.073821 
L 1055.891018 21.096286 
L 1049.621837 14.87801 
L 1039.276034 19.067481 
L 1025.876596 27.319776 
L 1018.564188 34.9833 
L 1006.924929 35.553671 
L 1000.871631 41.091795 
L 1007.126092 49.116554 
L 1016.839581 51.06471 
L 1017.237001 56.391858 
L 1026.626665 59.858244 
L 1039.926748 51.383934 
L 1050.463289 56.00425 
L 1058.138159 56.320408 
L 1060.061476 62.537764 
L 1043.258208 65.852359 
L 1037.713952 72.259839 
L 1026.172821 78.213475 
L 1020.080272 86.520353 
L 1032.854141 93.042214 
L 1037.516468 104.715818 
L 1044.739948 115.591822 
L 1052.799972 124.70826 
L 1052.607395 133.52418 
L 1045.15822 136.765178 
L 1047.997812 143.095075 
L 1054.98333 146.778878 
L 1053.159367 156.445449 
L 1050.144985 165.851059 
L 1043.513342 166.917286 
L 1025.234468 195.340187 
L 1014.213418 209.503493 
L 981.384551 230.445021 
L 968.010259 231.807473 
L 960.755501 237.08065 
L 956.651892 233.228495 
L 949.938068 239.126627 
L 933.352522 245.071064 
L 920.794536 246.89104 
L 916.742445 259.425107 
L 910.165387 260.120286 
L 907.053489 251.506756 
L 909.864255 246.915879 
L 893.941077 243.116162 
L 888.33181 245.048678 
L 876.383447 241.968672 
L 870.732475 237.14658 
L 872.609182 230.309788 
L 861.759857 228.142376 
L 856.038969 223.689798 
L 845.923154 230.014482 
L 834.38325 231.383987 
L 824.918149 231.32419 
L 812.397575 235.959839 
L 814.190872 249.534988 
L 807.864041 249.211164 
L 806.439952 241.516668 
L 797.734733 244.972016 
L 783.782097 238.332094 
L 787.236831 228.472946 
L 779.721419 226.174287 
L 776.891027 215.248913 
L 764.363706 217.217615 
L 765.786568 203.139251 
L 777.028407 193.228586 
L 777.157201 174.356955 
L 771.977246 171.527483 
L 768.010404 164.540431 
L 761.069044 165.422974 
L 748.27187 163.649303 
L 752.280416 158.665298 
L 746.715307 151.285426 
L 738.254796 156.282924 
L 728.299667 153.366669 
L 714.61995 160.924399 
L 703.817236 169.751358 
L 694.246034 171.23647 
L 689.050133 168.045456 
L 682.779726 167.756591 
L 674.297749 165.009301 
L 667.888736 168.020004 
L 660.037235 176.843284 
L 659.041231 167.49655 
L 651.803033 169.992692 
L 637.965697 168.832937 
L 624.5405 166.111406 
L 614.907355 160.898946 
L 605.685122 158.559503 
L 601.702334 152.858855 
L 595.033894 151.155713 
L 583.051798 143.423192 
L 573.53702 139.774348 
L 568.617106 142.613633 
L 552.121716 134.315034 
L 540.461605 126.800236 
L 537.133211 113.718489 
L 545.650759 115.313382 
L 546.039593 109.253338 
L 541.318389 103.179188 
L 542.519235 93.497898 
L 529.763152 79.587579 
L 510.244794 74.788179 
L 506.732409 65.668674 
L 497.963407 60.135457 
L 495.850579 56.729787 
L 494.070161 49.964752 
L 494.483527 45.349956 
L 487.275994 42.64805 
L 483.375388 43.843071 
z
" clip-path="url(#p99b25d5ddb)" style="fill: #e8edf4; stroke: #b8c5d4; stroke-width: 0.45"/>
    <path d="M 895.168295 270.974517 
L 901.017363 265.596466 
L 913.983809 262.270832 
L 920.807415 262.552338 
L 923.45995 267.081272 
L 918.245037 272.303851 
L 915.498054 279.157509 
L 905.244246 284.862451 
L 895.512358 281.183554 
z
" clip-path="url(#p99b25d5ddb)" style="fill: #e8edf4; stroke: #b8c5d4; stroke-width: 0.45"/>
    <path d="M 139.717346 11.296936 
L 142.624401 9.358592 
L 151.468226 12.771622 
L 157.865587 13.47692 
L 159.482866 12.085643 
L 153.638091 5.663444 
L 156.718097 4.027152 
L 160.054464 4.425185 
L 168.210777 11.633946 
L 173.460648 12.444732 
L 175.497426 9.425442 
L 182.583535 4.641997 
L 188.825108 10.891543 
L 194.861846 19.310349 
L 200.391384 19.865388 
L 204.046668 23.064988 
L 194.271849 24.0199 
L 192.207472 33.23692 
L 190.165787 37.393886 
L 185.813791 40.167854 
L 186.130869 46.045441 
L 183.177203 46.637278 
L 175.775866 40.422682 
L 179.867822 34.550921 
L 176.36157 31.067975 
L 171.910832 31.944691 
L 157.914038 40.700508 
L 157.650318 32.469372 
L 152.321944 30.524589 
L 147.283662 27.296777 
L 150.629228 23.516992 
L 144.30669 19.445889 
L 146.694278 16.469531 
L 142.174237 14.41558 
z
" clip-path="url(#p99b25d5ddb)" style="fill: #e8edf4; stroke: #b8c5d4; stroke-width: 0.45"/>
    <path d="M 137.598999 29.516013 
L 140.067542 29.195562 
L 143.58238 32.379216 
L 148.826118 32.352538 
L 148.771534 34.183553 
L 153.616626 41.049477 
L 145.476259 39.471756 
L 139.482451 33.993123 
z
" clip-path="url(#p99b25d5ddb)" style="fill: #e8edf4; stroke: #b8c5d4; stroke-width: 0.45"/>
    <path d="M 80.169333 -14.657115 
L 81.616727 -16.058819 
L 109.120352 -12.109055 
L 125.279881 -6.418642 
L 127.359415 -4.212712 
L 134.556404 -6.076397 
L 145.625291 -3.593441 
L 149.258374 1.276536 
L 156.718097 4.027152 
L 153.638091 5.663444 
L 159.482866 12.085643 
L 157.865587 13.47692 
L 151.468226 12.771622 
L 142.624401 9.358592 
L 139.717346 11.296936 
L 123.223796 13.14819 
L 111.792447 7.320588 
L 99.147372 7.884519 
L 100.91675 2.813426 
L 97.953271 -5.282783 
L 91.093481 -9.656245 
L 84.517649 -11.02115 
z
" clip-path="url(#p99b25d5ddb)" style="fill: #e8edf4; stroke: #b8c5d4; stroke-width: 0.45"/>
    <path d="M 37.066787 324.919899 
L 42.178035 307.481222 
L 43.348708 299.592593 
L 47.086457 295.953943 
L 55.827692 294.002822 
L 61.834035 287.228879 
L 68.723877 300.968393 
L 71.993394 311.862183 
L 78.499309 317.642867 
L 94.699087 328.853121 
L 111.436731 346.544451 
L 117.271694 350.11418 
L 113.692459 353.012648 
L 108.611921 351.982325 
L 104.555275 348.141916 
L 99.675218 341.183987 
L 94.413363 337.371468 
L 91.344264 333.273284 
L 81.014835 328.514756 
L 72.877569 328.372813 
L 70.014857 325.891305 
L 63.054791 328.682334 
L 55.852259 323.294677 
L 52.145842 332.15222 
L 38.328251 329.671662 
z
" clip-path="url(#p99b25d5ddb)" style="fill: #e8edf4; stroke: #b8c5d4; stroke-width: 0.45"/>
    <path d="M 111.618269 320.281296 
L 113.993591 319.704178 
L 112.776185 314.281355 
L 114.214993 311.992509 
L 113.688779 306.816235 
L 118.899399 303.030317 
L 117.681993 298.0273 
L 120.827009 292.193565 
L 125.701539 295.279397 
L 128.918925 294.206731 
L 142.615202 293.934118 
L 144.7912 295.120859 
L 156.26364 296.307906 
L 160.81312 295.714229 
L 163.780278 299.670338 
L 169.319015 297.69213 
L 177.824297 285.230739 
L 188.901157 279.890099 
L 223.120995 275.340619 
L 236.277565 303.218294 
L 227.692554 306.406548 
L 225.396348 311.675739 
L 225.116682 315.722923 
L 213.300179 320.7333 
L 194.335633 326.269583 
L 183.70955 334.643312 
L 178.484211 335.297399 
L 174.923375 334.595474 
L 167.986921 339.520908 
L 160.422446 341.805768 
L 147.462133 343.096463 
L 144.867862 346.230133 
L 141.757191 347.096117 
L 139.919736 350.114793 
L 134.045523 349.852913 
L 130.254085 351.463445 
L 122.039509 350.859956 
L 118.952756 343.927182 
L 119.291913 337.439666 
L 117.351423 333.938014 
L 115.028845 325.160119 
z
" clip-path="url(#p99b25d5ddb)" style="fill: #e8edf4; stroke: #b8c5d4; stroke-width: 0.45"/>
    <path d="M 16.999153 167.83264 
L 20.840881 152.427703 
L 34.048969 154.315449 
L 39.179246 150.662924 
L 42.019451 146.390044 
L 51.075478 144.746393 
L 53.028234 140.771885 
L 56.953372 138.756265 
L 45.124602 126.889165 
L 68.893149 120.933689 
L 71.155009 119.144071 
L 85.450482 122.360537 
L 103.133839 130.668029 
L 136.596249 154.536237 
L 169.237446 156.62944 
L 172.192951 162.284091 
L 180.586612 161.976213 
L 185.232994 172.211008 
L 191.071636 174.921806 
L 193.105347 179.090118 
L 201.193584 184.078723 
L 201.911761 188.975945 
L 200.729313 192.928681 
L 202.231292 196.915455 
L 205.643708 200.241396 
L 208.999087 207.042616 
L 212.586908 209.397392 
L 215.876664 208.554101 
L 223.129582 227.85443 
L 258.806014 233.838425 
L 261.197894 231.32971 
L 266.637276 239.73625 
L 258.725058 263.472599 
L 223.120995 275.340619 
L 188.901157 279.890099 
L 177.824297 285.230739 
L 169.319015 297.69213 
L 163.780278 299.670338 
L 160.81312 295.714229 
L 156.26364 296.307906 
L 144.7912 295.120859 
L 142.615202 293.934118 
L 128.918925 294.206731 
L 125.701539 295.279397 
L 120.827009 292.193565 
L 117.681993 298.0273 
L 118.899399 303.030317 
L 113.688779 306.816235 
L 112.148776 301.751581 
L 108.569541 298.177253 
L 107.654494 293.442862 
L 101.524533 289.190221 
L 95.198929 279.238158 
L 91.851523 269.566988 
L 83.642466 261.399942 
L 78.349663 259.450866 
L 70.489576 248.140031 
L 69.116391 239.892029 
L 69.622366 232.856834 
L 62.815319 219.697504 
L 57.25021 215.066149 
L 50.838744 212.611711 
L 46.936298 205.811411 
L 47.585173 203.128518 
L 44.287444 196.975865 
L 40.82167 194.326091 
L 36.187555 185.497292 
L 22.907711 167.775603 
z
" clip-path="url(#p99b25d5ddb)" style="fill: #e8edf4; stroke: #b8c5d4; stroke-width: 0.45"/>
    <path d="M -5.556894 83.788703 
L -3.003102 80.861103 
L 5.545112 81.021175 
L 16.336173 77.479965 
L 8.31724 82.533886 
L 9.181383 84.756188 
L 3.273438 85.44646 
L 2.18176 83.519463 
L -3.328152 84.408139 
z
" clip-path="url(#p99b25d5ddb)" style="fill: #e8edf4; stroke: #b8c5d4; stroke-width: 0.45"/>
    <path d="M -11.195599 84.225375 
L -3.328152 84.408139 
L 2.18176 83.519463 
L 3.273438 85.44646 
L 7.909394 84.339756 
L 9.552432 85.710487 
L -2.613041 90.53166 
L -8.422858 88.99135 
z
" clip-path="url(#p99b25d5ddb)" style="fill: #e8edf4; stroke: #b8c5d4; stroke-width: 0.45"/>
    <path d="M -100.87829 144.266756 
L -97.821653 136.939253 
L -99.658246 131.863371 
L -95.362576 126.16833 
L -79.571908 125.972149 
L -50.872391 134.465341 
L -41.735235 130.705398 
L -36.850193 127.304703 
L -26.383688 126.326057 
L -17.94509 127.824527 
L -14.711618 133.711121 
L -11.957499 129.833327 
L -2.445785 132.637411 
L 6.805187 133.309266 
L 12.644782 130.319684 
L 20.444044 150.70949 
L 17.11076 155.479411 
L 14.556857 164.444954 
L 11.328251 170.624571 
L 8.561196 172.696747 
L -0.750541 163.570747 
L -9.218809 146.558611 
L -10.438497 147.634457 
L -5.520818 160.15771 
L 1.765503 172.089218 
L 10.735319 190.575257 
L 18.930501 203.731319 
L 29.580251 216.869815 
L 27.222171 218.938905 
L 27.605037 226.65236 
L 43.511301 239.736264 
L -97.318681 239.736264 
L -97.318681 153.826957 
z
" clip-path="url(#p99b25d5ddb)" style="fill: #e8edf4; stroke: #b8c5d4; stroke-width: 0.45"/>
    <path d="M -2.917424 408.442114 
L 1.125099 401.681908 
L 7.423516 401.390189 
L 9.197565 397.765662 
L 9.039007 387.095974 
L 12.549956 374.675855 
L 18.17189 371.351829 
L 19.3644 366.500255 
L 24.454167 357.434189 
L 31.612312 351.554479 
L 36.437776 339.863776 
L 38.328251 329.671662 
L 52.145842 332.15222 
L 55.852259 323.294677 
L 63.054791 328.682334 
L 70.014857 325.891305 
L 72.877569 328.372813 
L 81.014835 328.514756 
L 91.344264 333.273284 
L 94.413363 337.371468 
L 99.675218 341.183987 
L 104.555275 348.141916 
L 108.611921 351.982325 
L 100.425284 362.794549 
L 101.538633 369.681508 
L 108.167815 369.879824 
L 111.025543 369.038255 
L 113.659341 371.153529 
L 111.070998 375.358391 
L 119.832409 387.60749 
L 124.363187 391.843226 
L 163.167112 405.927138 
L 173.14916 405.854505 
L 139.611956 441.475279 
L 124.150985 441.998308 
L 113.574105 450.364866 
L 105.965921 450.583952 
L 102.719667 454.325001 
L 94.610374 454.322888 
L 89.823719 450.31229 
L 78.981705 455.275899 
L 75.474011 460.221705 
L 67.559459 459.287921 
L 64.932211 457.919169 
L 58.402068 458.126446 
L 43.379129 448.047327 
L 35.118735 448.047327 
L 31.064214 444.141506 
L 31.064214 437.480323 
L 24.899425 435.489231 
L 17.885512 422.574092 
L 12.465336 419.822466 
L 10.385802 415.076637 
L 4.370914 409.292229 
z
" clip-path="url(#p99b25d5ddb)" style="fill: #e8edf4; stroke: #b8c5d4; stroke-width: 0.45"/>
    <path d="M 100.425284 362.794549 
L 108.611921 351.982325 
L 113.692459 353.012648 
L 117.271694 350.11418 
L 120.080007 353.787249 
L 119.706505 358.715137 
L 112.935643 361.555035 
L 118.032189 364.802166 
L 113.659341 371.153529 
L 111.025543 369.038255 
L 108.167815 369.879824 
L 101.538633 369.681508 
z
" clip-path="url(#p99b25d5ddb)" style="fill: #e8edf4; stroke: #b8c5d4; stroke-width: 0.45"/>
    <path d="M 111.070998 375.358391 
L 118.032189 364.802166 
L 121.893543 366.989817 
L 124.2198 371.897772 
L 129.573933 376.866137 
L 135.465932 376.905695 
L 146.6538 373.86954 
L 159.571795 372.46293 
L 170.018793 368.775754 
L 175.904659 367.994407 
L 180.143808 365.829448 
L 186.901771 365.412454 
L 186.782196 388.660562 
L 173.14916 405.854505 
L 163.167112 405.927138 
L 124.363187 391.843226 
L 119.832409 387.60749 
z
" clip-path="url(#p99b25d5ddb)" style="fill: #e8edf4; stroke: #b8c5d4; stroke-width: 0.45"/>
    <path d="M -110.528154 398.535076 
L -102.808699 395.000653 
L -99.75253 384.405932 
L -96.492615 378.904827 
L -87.935341 377.27487 
L -79.785555 387.462102 
L -76.525641 388.480825 
L -72.247004 386.443378 
L -63.689729 386.850868 
L -62.059772 389.295803 
L -50.242583 389.295803 
L -49.835094 386.850868 
L -43.722755 384.609677 
L -42.500287 381.146018 
L -38.017905 378.701082 
L -28.034418 385.6284 
L -21.922079 384.405932 
L -16.013484 375.848657 
L -9.493656 369.328829 
L -10.512379 362.197767 
L -13.364804 358.734108 
L -6.233742 358.122874 
L -5.418763 355.474194 
L 0.082342 356.289172 
L -1.34387 365.050192 
L 0.082342 373.607466 
L 6.194681 378.293593 
L 7.620894 382.368486 
L 7.417149 388.27708 
L 9.060046 388.51178 
L 9.197565 397.765662 
L 7.423516 401.390189 
L 1.125099 401.681908 
L -2.917424 408.442114 
L 4.370914 409.292229 
L 10.385802 415.076637 
L 12.465336 419.822466 
L 17.885512 422.574092 
L 24.899425 435.489231 
L 9.553846 450.39697 
L 2.254945 455.854945 
L -6.095235 455.827411 
L -15.648725 458.605147 
L -23.195552 455.951077 
L -28.081751 459.187853 
L -38.529888 451.301154 
L -41.348627 446.232207 
L -47.95819 448.742762 
L -53.446023 447.961721 
L -56.622931 449.954648 
L -61.951918 448.515533 
L -71.049651 434.955717 
L -79.921075 430.258738 
L -82.917672 423.139214 
L -87.863958 418.003723 
L -95.84548 411.823165 
L -95.954647 407.965798 
z
" clip-path="url(#p99b25d5ddb)" style="fill: #e8edf4; stroke: #b8c5d4; stroke-width: 0.45"/>
   </g>
   <g id="PathCollection_1">
    <defs>
     <path id="m16687c089c" d="M 0 2.12132 
C 0.562581 2.12132 1.102195 1.897805 1.5 1.5 
C 1.897805 1.102195 2.12132 0.562581 2.12132 0 
C 2.12132 -0.562581 1.897805 -1.102195 1.5 -1.5 
C 1.102195 -1.897805 0.562581 -2.12132 0 -2.12132 
C -0.562581 -2.12132 -1.102195 -1.897805 -1.5 -1.5 
C -1.897805 -1.102195 -2.12132 -0.562581 -2.12132 0 
C -2.12132 0.562581 -1.897805 1.102195 -1.5 1.5 
C -1.102195 1.897805 -0.562581 2.12132 0 2.12132 
z
" style="stroke: #ffffff; stroke-width: 0.5"/>
    </defs>
    <g clip-path="url(#p99b25d5ddb)">
     <use xlink:href="#m16687c089c" x="205.912088" y="192.263736" style="fill: #8aa0b7; stroke: #ffffff; stroke-width: 0.5"/>
     <use xlink:href="#m16687c089c" x="116.307692" y="364.351648" style="fill: #8aa0b7; stroke: #ffffff; stroke-width: 0.5"/>
     <use xlink:href="#m16687c089c" x="18.395604" y="126.989011" style="fill: #8aa0b7; stroke: #ffffff; stroke-width: 0.5"/>
     <use xlink:href="#m16687c089c" x="148.945055" y="150.725275" style="fill: #8aa0b7; stroke: #ffffff; stroke-width: 0.5"/>
     <use xlink:href="#m16687c089c" x="31.252747" y="99.296703" style="fill: #8aa0b7; stroke: #ffffff; stroke-width: 0.5"/>
     <use xlink:href="#m16687c089c" x="24.130286" y="121.622242" style="fill: #8aa0b7; stroke: #ffffff; stroke-width: 0.5"/>
     <use xlink:href="#m16687c089c" x="214.21978" y="198.197802" style="fill: #8aa0b7; stroke: #ffffff; stroke-width: 0.5"/>
    </g>
   </g>
   <g id="PatchCollection_2">
    <defs>
     <path id="mfe4cfcddd7" d="M 218.130551 -218.913592 
L 220.242152 -219.490097 
L 220.680664 -216.235299 
L 229.969747 -218.105873 
L 246.952099 -217.445039 
L 271.433917 -240.39452 
L 273.691484 -236.349175 
L 275.303243 -226.974843 
L 269.243199 -226.928539 
L 268.268661 -219.199698 
L 270.37045 -217.549301 
L 264.999145 -215.212004 
L 264.966026 -210.361086 
L 261.508226 -205.449145 
L 261.197894 -200.67029 
L 258.806014 -198.161575 
L 223.129582 -204.14557 
z
" style="stroke: #b45309; stroke-width: 1.15"/>
    </defs>
    <g clip-path="url(#p99b25d5ddb)">
     <use xlink:href="#mfe4cfcddd7" x="0" y="432" style="fill: #f59e0b; stroke: #b45309; stroke-width: 1.15"/>
    </g>
   </g>
   <g id="PathCollection_2">
    <defs>
     <path id="m878e0bc272" d="M 0 3.316625 
C 0.879579 3.316625 1.723251 2.967164 2.345208 2.345208 
C 2.967164 1.723251 3.316625 0.879579 3.316625 0 
C 3.316625 -0.879579 2.967164 -1.723251 2.345208 -2.345208 
C 1.723251 -2.967164 0.879579 -3.316625 0 -3.316625 
C -0.879579 -3.316625 -1.723251 -2.967164 -2.345208 -2.345208 
C -2.967164 -1.723251 -3.316625 -0.879579 -3.316625 0 
C -3.316625 0.879579 -2.967164 1.723251 -2.345208 2.345208 
C -1.723251 2.967164 -0.879579 3.316625 0 3.316625 
z
" style="stroke: #ffffff"/>
    </defs>
    <g clip-path="url(#p99b25d5ddb)">
     <use xlink:href="#m878e0bc272" x="246.857143" y="216" style="fill: #f97316; stroke: #ffffff"/>
    </g>
   </g>
   <g id="PathCollection_3">
    <path d="M 246.857143 220.449719 
C 248.037222 220.449719 249.169127 219.980869 250.003569 219.146427 
C 250.838011 218.311984 251.306862 217.180079 251.306862 216 
C 251.306862 214.819921 250.838011 213.688016 250.003569 212.853573 
C 249.169127 212.019131 248.037222 211.550281 246.857143 211.550281 
C 245.677064 211.550281 244.545158 212.019131 243.710716 212.853573 
C 242.876274 213.688016 242.407424 214.819921 242.407424 216 
C 242.407424 217.180079 242.876274 218.311984 243.710716 219.146427 
C 244.545158 219.980869 245.677064 220.449719 246.857143 220.449719 
L 246.857143 220.449719 
z
" clip-path="url(#p99b25d5ddb)" style="fill: none; stroke: #7c2d12; stroke-width: 1.1"/>
   </g>
  </g>
 </g>
 <defs>
  <clipPath id="p99b25d5ddb">
   <rect x="0" y="0" width="493.714286" height="432"/>
  </clipPath>
 </defs>
</svg>
