<?xml version="1.0" encoding="utf-8" standalone="no"?>
<!DOCTYPE svg PUBLIC "-//W3C//DTD SVG 1.1//EN"
  "http://www.w3.org/Graphics/SVG/1.1/DTD/svg11.dtd">
<svg xmlns:xlink="http://www.w3.org/1999/xlink" width="576pt" height="394.164706pt" viewBox="0 0 576 394.164706" xmlns="http://www.w3.org/2000/svg" version="1.1">
 <metadata>
  <rdf:RDF xmlns:dc="http://purl.org/dc/elements/1.1/" xmlns:cc="http://creativecommons.org/ns#" xmlns:rdf="http://www.w3.org/1999/02/22-rdf-syntax-ns#">
   <cc:Work>
    <dc:type rdf:resource="http://purl.org/dc/dcmitype/StillImage"/>
    <dc:date>2026-06-09T04:57:08.701236</dc:date>
    <dc:format>image/svg+xml</dc:format>
    <dc:creator>
     <cc:Agent>
      <dc:title>Matplotlib v3.10.8, https://matplotlib.org/</dc:title>
     </cc:Agent>
    </dc:creator>
   </cc:Work>
  </rdf:RDF>
 </metadata>
 <defs>
  <style type="text/css">*{stroke-linejoin: round; stroke-linecap: butt}</style>
 </defs>
 <g id="figure_1">
  <g id="patch_1">
   <path d="M 0 394.164706 
L 576 394.164706 
L 576 0 
L 0 0 
z
" style="fill: #eaf3ff"/>
  </g>
  <g id="axes_1">
   <g id="PatchCollection_1">
    <path d="M 467.41708 403.008858 
L 472.80183 394.474475 
L 474.657804 384.12789 
L 481.207588 364.483924 
L 483.940369 359.111969 
L 495.0183 349.432754 
L 505.196527 353.280735 
L 521.626209 355.088896 
L 536.612057 354.542744 
L 549.493434 345.079699 
L 551.767609 347.991276 
L 541.297112 360.91811 
L 531.503414 363.423944 
L 518.961445 360.875684 
L 497.246008 361.526217 
L 485.860993 363.402395 
L 484.007712 373.26613 
L 495.671527 384.854521 
L 502.707528 378.951903 
L 527.008265 374.517364 
L 525.937511 380.518976 
L 520.259819 378.625963 
L 514.601657 386.261317 
L 503.130443 391.312719 
L 515.462301 408.013793 
L 513.081724 412.489412 
L 524.798067 427.530481 
L 524.685604 436.091128 
L 517.729068 439.922274 
L 512.619077 435.33958 
L 518.915652 424.669748 
L 506.127208 429.715089 
L 502.885314 426.108196 
L 504.575624 421.076997 
L 495.179923 413.435582 
L 496.146969 400.736704 
L 487.455676 404.697822 
L 489.088071 438.536354 
L 480.823733 440.42802 
L 475.224833 436.602935 
L 478.961025 424.607793 
L 476.9441 412.032153 
L 471.464397 411.935852 
z
" clip-path="url(#p03ee2ebc92)" style="fill: #e8edf4; stroke: #b8c5d4; stroke-width: 0.45"/>
    <path d="M 339.509745 361.08108 
L 341.027657 349.006472 
L 348.770087 340.346494 
L 350.94594 349.055969 
L 359.857445 356.418921 
L 368.263877 353.768972 
L 376.583437 354.707734 
L 384.177038 348.117881 
L 390.426473 346.975406 
L 402.754964 350.627419 
L 413.382369 347.849856 
L 420.063473 329.725486 
L 425.081203 325.193636 
L 429.59588 310.372442 
L 444.578361 310.378503 
L 455.874483 312.574896 
L 448.462034 324.344103 
L 458.041582 336.681685 
L 455.790977 342.6769 
L 470.40105 354.736692 
L 454.959964 356.274133 
L 450.613644 365.158701 
L 451.177979 376.967977 
L 438.646785 385.880829 
L 438.304683 398.858507 
L 433.278198 418.78666 
L 431.359595 414.151438 
L 416.5549 420.014997 
L 411.392382 412.048989 
L 402.101063 411.312256 
L 395.602459 407.136987 
L 380.109519 411.823389 
L 375.3551 405.516713 
L 366.818696 406.233243 
L 356.07546 404.729473 
L 354.082779 387.251933 
L 347.580135 383.629551 
L 341.323966 372.482257 
z
" clip-path="url(#p03ee2ebc92)" style="fill: #e8edf4; stroke: #b8c5d4; stroke-width: 0.45"/>
    <path d="M 620.562568 378.714182 
L 638.129 375.55714 
L 644.808757 371.309815 
L 665.73022 376.661566 
L 667.786877 381.504878 
L 671.426095 402.58123 
L 684.913559 410.381575 
L 695.804276 396.558742 
L 710.757125 388.693748 
L 722.342149 388.682973 
L 743.15317 397.888093 
L 757.143013 400.378439 
L 757.581417 485.315526 
L 745.977537 474.620104 
L 732.741935 471.999112 
L 729.532366 475.711734 
L 713.021198 476.112425 
L 718.554776 465.507243 
L 726.758506 461.888901 
L 723.361049 447.718578 
L 717.104881 436.778701 
L 691.841811 425.743196 
L 681.095209 424.653586 
L 661.52532 412.611303 
L 657.678686 418.944243 
L 652.677791 420.093115 
L 649.719412 415.314453 
L 649.678332 409.65225 
L 639.722337 403.25062 
L 653.757974 398.557483 
L 663.051987 398.810693 
L 661.959683 395.353301 
L 642.883419 395.327038 
L 637.720902 387.568446 
L 626.078636 385.162279 
z
" clip-path="url(#p03ee2ebc92)" style="fill: #e8edf4; stroke: #b8c5d4; stroke-width: 0.45"/>
    <path d="M 161.501879 295.082877 
L 190.065431 298.125773 
L 201.589173 310.870107 
L 218.853908 325.127303 
L 231.200582 339.135666 
L 244.448305 339.340052 
L 255.398284 348.266709 
L 262.938011 359.178639 
L 272.862356 365.131764 
L 267.639903 375.771965 
L 275.108919 380.297417 
L 279.789934 380.631439 
L 281.998786 389.721403 
L 286.539054 396.993778 
L 296.107154 398.146017 
L 302.446828 406.394193 
L 299.173956 422.602317 
L 298.655414 442.76011 
L 284.225821 443.032849 
L 273.250925 432.138765 
L 256.518872 421.491157 
L 250.940175 413.592491 
L 241.074419 402.979901 
L 234.602753 393.212466 
L 224.691877 374.969236 
L 213.246927 364.107476 
L 204.614895 342.730774 
L 192.863534 334.525024 
L 186.052459 323.375037 
L 176.240578 316.076398 
L 162.646711 301.716504 
z
" clip-path="url(#p03ee2ebc92)" style="fill: #e8edf4; stroke: #b8c5d4; stroke-width: 0.45"/>
    <path d="M 292.762898 455.77954 
L 301.704707 443.327812 
L 317.516854 444.097543 
L 328.03449 449.190024 
L 333.439443 450.183334 
L 335.219993 454.818555 
L 360.185406 456.117602 
L 363.056913 450.746321 
L 387.233739 457.012591 
L 391.97671 465.459429 
L 411.526395 467.835292 
L 427.51094 475.579742 
L 412.641596 480.544944 
L 398.309649 475.294881 
L 372.993379 474.684753 
L 360.796881 472.345256 
L 345.699917 467.367931 
L 336.134512 466.076965 
L 330.714743 467.706667 
L 306.949384 462.340773 
L 304.688678 456.737158 
z
" clip-path="url(#p03ee2ebc92)" style="fill: #e8edf4; stroke: #b8c5d4; stroke-width: 0.45"/>
    <path d="M 579.902859 353.309693 
L 582.522503 342.897785 
L 586.847273 338.155488 
L 587.782668 345.271627 
L 595.476611 346.414775 
L 596.69754 351.737233 
L 596.016028 363.125615 
L 589.294519 361.849464 
L 587.31194 369.779107 
L 592.680528 376.658873 
L 589.031881 378.222578 
L 583.773063 369.968341 
z
" clip-path="url(#p03ee2ebc92)" style="fill: #e8edf4; stroke: #b8c5d4; stroke-width: 0.45"/>
    <path d="M 586.41089 410.71627 
L 589.499242 403.551643 
L 605.594903 403.010879 
L 619.934257 406.811047 
L 624.671167 416.77647 
L 613.66866 411.405189 
L 602.783331 410.314905 
L 595.426103 411.175549 
z
" clip-path="url(#p03ee2ebc92)" style="fill: #e8edf4; stroke: #b8c5d4; stroke-width: 0.45"/>
    <path d="M 528.564563 499.938394 
L 529.737679 495.507895 
L 535.341294 487.558722 
L 548.225365 482.382063 
L 549.545962 484.951873 
L 549.78705 488.90289 
L 541.28297 498.635306 
L 530.128269 501.502099 
z
" clip-path="url(#p03ee2ebc92)" style="fill: #e8edf4; stroke: #b8c5d4; stroke-width: 0.45"/>
    <path d="M 482.44468 476.544768 
L 492.793959 473.835557 
L 500.959303 477.742127 
L 509.634434 476.750164 
L 521.313064 471.975542 
L 519.403216 479.215593 
L 499.823226 482.914746 
L 482.4898 481.308615 
z
" clip-path="url(#p03ee2ebc92)" style="fill: #e8edf4; stroke: #b8c5d4; stroke-width: 0.45"/>
    <path d="M 440.99369 484.208406 
L 445.471329 476.705044 
L 452.616426 476.602683 
L 456.108836 471.994398 
L 460.808034 475.469973 
L 468.859568 474.405279 
L 472.092034 479.945591 
L 447.999387 484.312114 
z
" clip-path="url(#p03ee2ebc92)" style="fill: #e8edf4; stroke: #b8c5d4; stroke-width: 0.45"/>
    <path d="M 667.388206 446.540748 
L 672.429506 437.452131 
L 675.3926 441.264421 
L 675.361622 447.478163 
L 668.656949 456.350609 
z
" clip-path="url(#p03ee2ebc92)" style="fill: #e8edf4; stroke: #b8c5d4; stroke-width: 0.45"/>
    <path d="M 561.522248 407.89931 
L 574.705322 407.274367 
L 577.944523 411.571526 
L 573.066866 415.89697 
L 564.060408 413.504272 
z
" clip-path="url(#p03ee2ebc92)" style="fill: #e8edf4; stroke: #b8c5d4; stroke-width: 0.45"/>
    <path d="M 470.023929 491.050459 
L 482.175981 488.488056 
L 493.581199 496.415679 
L 492.800693 499.933007 
L 487.319643 500.181502 
z
" clip-path="url(#p03ee2ebc92)" style="fill: #e8edf4; stroke: #b8c5d4; stroke-width: 0.45"/>
    <path d="M 253.441295 191.94465 
L 261.785772 181.109155 
L 278.635675 178.619819 
L 290.851029 180.490272 
L 301.604366 185.600262 
L 307.50025 176.615017 
L 319.050928 181.412535 
L 322.071937 190.103491 
L 320.467153 205.71967 
L 298.562481 215.748732 
L 304.285293 223.643357 
L 290.605227 224.58818 
L 279.325267 229.836897 
L 268.417041 227.934119 
L 263.118491 221.143247 
L 256.527627 207.682383 
z
" clip-path="url(#p03ee2ebc92)" style="fill: #e8edf4; stroke: #b8c5d4; stroke-width: 0.45"/>
    <path d="M 188.645166 126.119183 
L 194.143052 123.752075 
L 200.084729 109.663237 
L 209.284462 109.079709 
L 216.890185 103.428954 
L 224.353141 100.415353 
L 229.994468 104.43708 
L 230.742649 112.267729 
L 239.548426 112.864051 
L 236.34155 126.594961 
L 236.649308 138.276959 
L 250.385268 130.502205 
L 254.287124 132.799949 
L 261.919784 132.423165 
L 264.54549 127.888958 
L 274.401144 128.783947 
L 284.311346 139.366906 
L 285.124177 152.229091 
L 295.676158 163.586831 
L 295.093641 174.616612 
L 290.851029 180.490272 
L 278.635675 178.619819 
L 261.785772 181.109155 
L 253.441295 191.94465 
L 256.527627 207.682383 
L 244.82812 201.698953 
L 233.6815 201.942062 
L 235.592695 191.703899 
L 224.116094 191.780333 
L 223.085745 206.11329 
L 211.813867 236.658747 
L 212.708182 246.09115 
L 221.197446 246.500259 
L 226.485896 258.394388 
L 228.82674 269.674347 
L 236.099115 277.13764 
L 243.993066 278.652522 
L 250.74488 285.415784 
L 246.484759 290.769556 
L 237.883032 292.325853 
L 236.857398 285.634312 
L 226.224605 279.926989 
L 223.959185 282.250997 
L 218.810809 277.25044 
L 216.581754 270.796619 
L 203.343459 257.258647 
L 201.204644 264.918582 
L 198.733154 257.679541 
L 203.991972 237.05102 
L 210.306729 223.659856 
L 217.463275 211.511508 
L 212.368773 199.626808 
L 212.572823 193.573005 
L 211.083868 186.298609 
L 202.392575 175.944617 
L 199.281326 169.406954 
L 203.781189 166.998767 
L 208.550423 155.669983 
L 203.212813 147.06893 
L 194.942414 137.554368 
z
" clip-path="url(#p03ee2ebc92)" style="fill: #e8edf4; stroke: #b8c5d4; stroke-width: 0.45"/>
    <path d="M 224.353141 100.415353 
L 227.130368 95.616151 
L 238.219074 87.139682 
L 239.39219 90.201097 
L 246.339298 90.556668 
L 244.370187 75.650623 
L 251.126042 73.740774 
L 258.74254 84.030791 
L 264.593303 95.871045 
L 280.63711 95.973069 
L 285.687838 107.337881 
L 277.358177 110.751837 
L 273.619965 115.436556 
L 289.232776 123.232186 
L 308.277388 150.112499 
L 318.13843 159.179229 
L 321.420057 168.38435 
L 319.050928 181.412535 
L 307.50025 176.615017 
L 301.604366 185.600262 
L 290.851029 180.490272 
L 295.093641 174.616612 
L 295.676158 163.586831 
L 285.124177 152.229091 
L 284.311346 139.366906 
L 274.401144 128.783947 
L 264.54549 127.888958 
L 261.919784 132.423165 
L 254.287124 132.799949 
L 250.385268 130.502205 
L 236.649308 138.276959 
L 236.34155 126.594961 
L 239.548426 112.864051 
L 230.742649 112.267729 
L 229.994468 104.43708 
z
" clip-path="url(#p03ee2ebc92)" style="fill: #e8edf4; stroke: #b8c5d4; stroke-width: 0.45"/>
    <path d="M 122.539888 86.632589 
L 127.088238 88.606077 
L 127.354916 79.259873 
L 133.78483 76.168491 
L 132.405644 70.634576 
L 135.351229 66.19667 
L 135.857649 52.710215 
L 146.04261 55.679033 
L 151.853642 44.934451 
L 152.51293 38.584675 
L 159.705167 27.653552 
L 159.30919 20.195984 
L 176.179969 11.190872 
L 185.492838 13.547205 
L 184.424104 5.529006 
L 188.992656 3.137991 
L 188.009448 -1.801621 
L 195.631334 -2.770688 
L 199.987082 4.901369 
L 205.674875 8.00824 
L 205.533455 28.730031 
L 193.189475 39.61233 
L 191.627116 55.070925 
L 205.382606 52.909214 
L 208.490488 64.905703 
L 216.742704 67.429721 
L 212.94927 78.255452 
L 228.269813 85.546346 
L 237.828484 81.752239 
L 238.219074 87.139682 
L 227.130368 95.616151 
L 224.353141 100.415353 
L 216.890185 103.428954 
L 209.284462 109.079709 
L 200.084729 109.663237 
L 194.143052 123.752075 
L 188.645166 126.119183 
L 194.942414 137.554368 
L 203.212813 147.06893 
L 208.550423 155.669983 
L 203.781189 166.998767 
L 199.281326 169.406954 
L 202.392575 175.944617 
L 211.083868 186.298609 
L 212.572823 193.573005 
L 212.368773 199.626808 
L 217.463275 211.511508 
L 210.306729 223.659856 
L 203.991972 237.05102 
L 202.736025 227.377529 
L 206.741589 217.394933 
L 202.36025 209.684155 
L 203.418883 195.487568 
L 198.128414 188.736091 
L 193.881761 173.139442 
L 191.527448 156.676762 
L 185.890836 145.884366 
L 162.496536 161.709307 
L 155.186449 160.54865 
L 147.112018 157.492959 
L 151.603799 141.342751 
L 148.884487 129.141538 
L 138.669894 114.116295 
L 140.26323 109.418781 
L 132.639998 107.748337 
L 123.391104 97.117901 
z
" clip-path="url(#p03ee2ebc92)" style="fill: #e8edf4; stroke: #b8c5d4; stroke-width: 0.45"/>
    <path d="M 251.126042 73.740774 
L 258.11827 70.560499 
L 268.511322 70.626158 
L 281.182588 69.122388 
L 292.29015 62.177637 
L 298.571909 67.066742 
L 310.484893 69.446645 
L 308.424196 76.953711 
L 314.629184 82.248557 
L 327.748956 85.630525 
L 310.350207 96.779502 
L 299.489795 109.091831 
L 296.627042 118.134318 
L 318.780209 148.898304 
L 330.606995 156.948154 
L 338.52519 167.413263 
L 344.495824 191.53049 
L 342.734803 214.455409 
L 331.866309 223.03727 
L 316.942418 231.42754 
L 306.310972 242.291319 
L 290.062442 254.424852 
L 285.33092 246.067917 
L 288.993035 237.239581 
L 279.325267 229.836897 
L 290.605227 224.58818 
L 304.285293 223.643357 
L 298.562481 215.748732 
L 320.467153 205.71967 
L 322.071937 190.103491 
L 319.050928 181.412535 
L 321.420057 168.38435 
L 318.13843 159.179229 
L 308.277388 150.112499 
L 289.232776 123.232186 
L 273.619965 115.436556 
L 277.358177 110.751837 
L 285.687838 107.337881 
L 280.63711 95.973069 
L 264.593303 95.871045 
L 258.74254 84.030791 
z
" clip-path="url(#p03ee2ebc92)" style="fill: #e8edf4; stroke: #b8c5d4; stroke-width: 0.45"/>
    <path d="M -191.869964 57.748148 
L -183.191466 49.053825 
L -154.513431 49.087833 
L -157.100751 37.899123 
L -164.422286 31.290413 
L -165.9072 21.260677 
L -174.43687 15.40823 
L -160.07462 1.748031 
L -144.942638 2.738647 
L -131.310386 -10.92391 
L -123.141001 -24.148737 
L -110.49061 -37.224735 
L -110.691966 -46.514035 
L -99.579691 -54.052415 
L -110.097327 -60.487379 
L -119.240492 -80.722954 
L -112.851657 -86.342057 
L -93.084454 -83.162792 
L -78.55856 -85.099578 
L -65.973492 -96.05225 
L -51.966812 -80.778175 
L -53.285389 -70.147739 
L -48.101322 -63.478084 
L -48.528277 -56.823918 
L -57.880878 -58.575174 
L -54.226171 -44.210903 
L -41.422912 -35.95936 
L -23.310327 -26.847172 
L -31.579379 -20.9358 
L -36.639536 -8.746036 
L 5.26804 9.888794 
L 23.131455 11.577758 
L 30.647613 18.207007 
L 56.394205 22.48531 
L 67.246536 22.267456 
L 68.739531 17.109652 
L 67.023631 8.829152 
L 68.031083 3.216109 
L 75.978908 0.475247 
L 77.35136 13.349217 
L 89.195654 18.295563 
L 97.389282 16.258436 
L 119.024582 16.746 
L 119.939773 8.740595 
L 114.635162 4.581826 
L 125.144717 2.951114 
L 137.006521 -6.741233 
L 152.027387 -15.039917 
L 162.958509 -11.837755 
L 172.248482 -17.325203 
L 178.35919 -9.221814 
L 173.957649 -3.749182 
L 188.009448 -1.801621 
L 188.992656 3.137991 
L 184.424104 5.529006 
L 185.492838 13.547205 
L 176.179969 11.190872 
L 159.30919 20.195984 
L 159.705167 27.653552 
L 152.51293 38.584675 
L 151.853642 44.934451 
L 146.04261 55.679033 
L 135.857649 52.710215 
L 135.351229 66.19667 
L 132.405644 70.634576 
L 133.78483 76.168491 
L 127.354916 79.259873 
L 120.491313 58.588253 
L 116.893174 58.629332 
L 114.763114 66.957646 
L 107.628118 60.203812 
L 111.651865 52.787323 
L 117.481752 52.034428 
L 123.490772 41.005994 
L 115.976635 38.78098 
L 103.891253 38.974255 
L 91.491378 37.18697 
L 90.341833 28.125627 
L 84.120682 27.482838 
L 73.799014 21.851612 
L 69.195444 30.693081 
L 78.601247 37.591702 
L 70.454085 42.447472 
L 67.561702 47.196503 
L 75.582931 50.68824 
L 73.365325 58.540776 
L 77.881349 68.340535 
L 79.909722 79.071313 
L 78.043646 83.829435 
L 69.178608 83.665455 
L 53.113252 86.370962 
L 53.862106 96.174088 
L 46.90557 103.88453 
L 28.151879 112.655625 
L 13.56605 127.988289 
L 3.768984 136.208517 
L -9.216102 144.738861 
L -9.236305 150.733065 
L -27.47078 158.613211 
L -33.557918 159.30112 
L -37.465161 169.24129 
L -34.060971 197.000766 
L -39.5831 209.381448 
L -39.642362 231.521483 
L -46.386094 232.152487 
L -52.31767 242.091984 
L -48.351164 246.387123 
L -60.233171 250.081562 
L -64.621917 258.944244 
L -69.851104 262.689864 
L -82.191043 250.521649 
L -93.222507 219.12868 
L -97.788366 212.964771 
L -104.711904 200.445362 
L -110.197668 176.007246 
L -122.052064 158.109148 
L -131.347424 116.178676 
L -131.300958 100.393803 
L -133.828342 88.189561 
L -152.792816 95.989905 
L -161.977734 94.427547 
L -179.001382 78.633583 
L -172.735785 73.922937 
L -176.58444 68.809243 
z
" clip-path="url(#p03ee2ebc92)" style="fill: #e8edf4; stroke: #b8c5d4; stroke-width: 0.45"/>
    <path d="M 67.561702 47.196503 
L 70.454085 42.447472 
L 78.601247 37.591702 
L 69.195444 30.693081 
L 73.799014 21.851612 
L 84.120682 27.482838 
L 90.341833 28.125627 
L 91.491378 37.18697 
L 103.891253 38.974255 
L 115.976635 38.78098 
L 123.490772 41.005994 
L 117.481752 52.034428 
L 111.651865 52.787323 
L 107.628118 60.203812 
L 114.763114 66.957646 
L 116.893174 58.629332 
L 120.491313 58.588253 
L 127.354916 79.259873 
L 127.088238 88.606077 
L 122.539888 86.632589 
L 123.391104 97.117901 
L 119.668381 90.324335 
L 118.916833 83.686331 
L 116.436588 77.413327 
L 110.991903 69.827806 
L 98.988679 69.306571 
L 100.173917 74.678526 
L 96.082154 81.929688 
L 90.537128 79.287147 
L 88.642094 81.659306 
L 79.909722 79.071313 
L 77.881349 68.340535 
L 73.365325 58.540776 
L 75.582931 50.68824 
z
" clip-path="url(#p03ee2ebc92)" style="fill: #e8edf4; stroke: #b8c5d4; stroke-width: 0.45"/>
    <path d="M 77.072559 10.738327 
L 85.693816 1.05002 
L 92.731164 -2.25585 
L 102.044707 0.760782 
L 108.929859 1.077967 
L 119.939773 8.740595 
L 119.024582 16.746 
L 97.389282 16.258436 
L 89.195654 18.295563 
L 77.35136 13.349217 
z
" clip-path="url(#p03ee2ebc92)" style="fill: #e8edf4; stroke: #b8c5d4; stroke-width: 0.45"/>
    <path d="M -36.639536 -8.746036 
L -31.579379 -20.9358 
L -17.908068 -29.964819 
L -7.460469 -25.958244 
L 5.696342 -17.467633 
L 13.018551 -15.597517 
L 17.391808 -9.337981 
L 27.518181 -6.769181 
L 38.095753 -1.045696 
L 52.837145 1.942652 
L 68.031083 3.216109 
L 67.023631 8.829152 
L 68.739531 17.109652 
L 67.246536 22.267456 
L 56.394205 22.48531 
L 30.647613 18.207007 
L 23.131455 11.577758 
L 5.26804 9.888794 
z
" clip-path="url(#p03ee2ebc92)" style="fill: #e8edf4; stroke: #b8c5d4; stroke-width: 0.45"/>
    <path d="M -120.212252 -147.360915 
L -116.502997 -150.342191 
L -118.298363 -153.391148 
L -105.858082 -159.547985 
L -96.853644 -162.097593 
L -83.059095 -160.349704 
L -78.131605 -168.670947 
L -61.415715 -170.219501 
L -56.770392 -175.39212 
L -36.235477 -182.451354 
L -34.403747 -185.397276 
L -35.444197 -192.826224 
L -26.503734 -196.218293 
L -38.233546 -218.85633 
L -12.418263 -224.062621 
L -5.747935 -226.963759 
L 3.655174 -250.29543 
L 29.507495 -246.007025 
L 36.755627 -251.897521 
L 37.377876 -264.965438 
L 48.20125 -266.183 
L 58.12088 -274.859478 
L 63.220096 -275.930906 
L 66.641796 -266.838248 
L 77.594468 -259.926495 
L 96.184515 -255.032676 
L 105.176158 -244.536926 
L 100.158428 -229.310327 
L 104.846851 -223.659236 
L 137.884674 -219.611582 
L 153.629478 -211.491021 
L 161.682359 -210.044493 
L 167.619321 -198.030831 
L 175.268144 -190.292442 
L 189.633762 -190.595485 
L 216.53192 -187.673807 
L 233.864673 -189.486682 
L 246.729214 -187.545856 
L 266.00616 -179.630354 
L 281.774534 -179.641803 
L 287.543812 -175.589772 
L 302.716873 -182.586714 
L 323.768982 -187.111156 
L 343.301158 -187.605454 
L 358.528767 -192.189832 
L 367.880022 -199.169601 
L 377.000964 -203.55195 
L 374.89178 -207.85315 
L 370.72998 -212.860779 
L 377.570686 -221.261487 
L 398.298875 -217.440779 
L 411.28396 -224.359603 
L 431.154198 -229.408311 
L 440.703442 -238.021823 
L 449.875564 -241.729731 
L 468.805694 -243.458764 
L 479.086956 -241.989675 
L 480.514629 -246.620856 
L 468.704679 -255.730013 
L 458.247651 -259.895854 
L 448.231047 -255.086887 
L 435.374587 -257.115933 
L 427.997156 -255.462661 
L 424.640779 -260.790506 
L 440.194328 -283.63697 
L 455.838117 -278.716887 
L 474.202565 -286.951595 
L 474.084358 -292.686016 
L 485.84792 -306.507801 
L 493.095095 -310.685234 
L 492.933359 -317.880234 
L 485.782875 -320.977341 
L 496.546987 -327.460792 
L 512.740968 -329.810728 
L 530.017347 -330.163547 
L 549.522392 -326.283299 
L 560.965995 -321.484434 
L 578.442861 -294.73039 
L 583.263855 -281.965509 
L 605.944413 -277.799675 
L 621.380112 -268.535293 
L 626.657506 -256.291287 
L 646.458223 -256.27604 
L 657.755457 -261.416796 
L 679.293109 -265.25838 
L 672.444945 -253.532742 
L 667.382661 -248.76354 
L 662.916628 -234.48665 
L 654.152514 -221.808956 
L 638.336417 -224.116495 
L 627.151797 -219.513687 
L 630.583886 -208.352836 
L 628.709056 -192.955522 
L 622.052196 -192.603992 
L 622.132123 -185.984027 
L 613.717147 -193.67744 
L 608.535774 -186.374423 
L 588.408958 -180.761717 
L 590.444739 -173.88734 
L 579.176901 -174.361435 
L 572.990769 -178.44579 
L 564.037511 -169.203294 
L 549.67526 -162.198608 
L 539.063344 -153.840999 
L 520.844357 -150.052616 
L 511.250667 -143.962448 
L 497.217724 -140.405052 
L 504.143282 -146.443703 
L 501.416562 -151.518338 
L 511.735537 -160.277984 
L 504.851731 -167.105895 
L 493.491633 -162.505692 
L 478.778525 -153.444349 
L 470.749214 -145.029499 
L 457.968851 -144.403208 
L 451.322093 -138.322132 
L 458.189736 -129.510631 
L 468.855528 -127.371479 
L 469.29191 -121.522063 
L 479.60213 -117.715834 
L 494.206143 -127.020959 
L 505.775677 -121.947671 
L 514.202986 -121.600517 
L 516.314864 -114.773616 
L 497.864217 -111.134062 
L 491.776406 -104.098397 
L 479.103792 -97.561071 
L 472.413934 -88.439793 
L 486.440143 -81.278534 
L 491.559561 -68.460459 
L 499.491225 -56.51818 
L 508.341447 -46.507974 
L 508.12999 -36.827748 
L 499.950504 -33.269005 
L 503.068487 -26.318529 
L 510.73886 -22.27357 
L 508.736078 -11.659296 
L 505.426167 -1.331567 
L 498.144364 -0.160808 
L 478.073443 31.048652 
L 465.971898 46.600517 
L 429.924514 69.595136 
L 415.239017 71.091162 
L 407.273008 76.881317 
L 402.767085 72.6515 
L 395.395043 79.127881 
L 377.183463 85.655105 
L 363.394302 87.65351 
L 358.944947 101.416408 
L 351.723079 102.179741 
L 348.306093 92.721747 
L 351.392425 87.680784 
L 333.908151 83.508546 
L 327.748956 85.630525 
L 314.629184 82.248557 
L 308.424196 76.953711 
L 310.484893 69.446645 
L 298.571909 67.066742 
L 292.29015 62.177637 
L 281.182588 69.122388 
L 268.511322 70.626158 
L 258.11827 70.560499 
L 244.370187 75.650623 
L 246.339298 90.556668 
L 239.39219 90.201097 
L 237.828484 81.752239 
L 228.269813 85.546346 
L 212.94927 78.255452 
L 216.742704 67.429721 
L 208.490488 64.905703 
L 205.382606 52.909214 
L 191.627116 55.070925 
L 193.189475 39.61233 
L 205.533455 28.730031 
L 205.674875 8.00824 
L 199.987082 4.901369 
L 195.631334 -2.770688 
L 188.009448 -1.801621 
L 173.957649 -3.749182 
L 178.35919 -9.221814 
L 172.248482 -17.325203 
L 162.958509 -11.837755 
L 152.027387 -15.039917 
L 137.006521 -6.741233 
L 125.144717 2.951114 
L 114.635162 4.581826 
L 108.929859 1.077967 
L 102.044707 0.760782 
L 92.731164 -2.25585 
L 85.693816 1.05002 
L 77.072559 10.738327 
L 75.978908 0.475247 
L 68.031083 3.216109 
L 52.837145 1.942652 
L 38.095753 -1.045696 
L 27.518181 -6.769181 
L 17.391808 -9.337981 
L 13.018551 -15.597517 
L 5.696342 -17.467633 
L -7.460469 -25.958244 
L -17.908068 -29.964819 
L -23.310327 -26.847172 
L -41.422912 -35.95936 
L -54.226171 -44.210903 
L -57.880878 -58.575174 
L -48.528277 -56.823918 
L -48.101322 -63.478084 
L -53.285389 -70.147739 
L -51.966812 -80.778175 
L -65.973492 -96.05225 
L -87.405415 -101.32218 
L -91.262151 -111.335754 
L -100.89086 -117.411443 
L -103.210827 -121.151003 
L -105.165796 -128.579277 
L -104.711904 -133.646504 
L -112.626058 -136.613302 
L -116.909076 -135.301123 
z
" clip-path="url(#p03ee2ebc92)" style="fill: #e8edf4; stroke: #b8c5d4; stroke-width: 0.45"/>
    <path d="M 335.255685 114.098113 
L 341.678191 108.192801 
L 355.915857 104.541125 
L 363.408444 104.850229 
L 366.321031 109.823176 
L 360.594852 115.557773 
L 357.578557 123.083358 
L 346.319473 129.347608 
L 335.633479 125.308036 
z
" clip-path="url(#p03ee2ebc92)" style="fill: #e8edf4; stroke: #b8c5d4; stroke-width: 0.45"/>
    <path d="M 484.858928 59.516576 
L 492.527954 46.717021 
L 502.958044 36.851939 
L 508.903088 40.733592 
L 498.795571 69.491091 
L 493.210812 80.180789 
L 486.343169 69.178283 
z
" clip-path="url(#p03ee2ebc92)" style="fill: #e8edf4; stroke: #b8c5d4; stroke-width: 0.45"/>
    <path d="M 481.960484 153.247654 
L 487.208527 157.536059 
L 488.558082 137.148626 
L 492.80406 125.340024 
L 500.693971 125.355176 
L 508.725303 129.075879 
L 512.744336 125.682463 
L 513.929573 128.993384 
L 511.809614 134.396316 
L 516.258295 143.737133 
L 512.826494 154.567241 
L 505.144 158.886287 
L 503.08869 169.392475 
L 506.004644 179.771385 
L 512.912693 181.207139 
L 518.677258 179.664983 
L 534.954071 186.889881 
L 533.713612 193.983797 
L 537.964305 197.114576 
L 536.61071 203.120228 
L 526.454032 196.723649 
L 521.640351 189.876882 
L 518.287341 194.660595 
L 509.990005 186.85924 
L 498.153792 188.785251 
L 491.66731 185.905663 
L 492.328619 180.518893 
L 496.400179 177.203931 
L 492.510445 174.189994 
L 490.826869 178.886497 
L 484.392914 171.398624 
L 482.44468 165.723626 
z
" clip-path="url(#p03ee2ebc92)" style="fill: #e8edf4; stroke: #b8c5d4; stroke-width: 0.45"/>
    <path d="M 508.494989 272.76876 
L 513.60902 261.78511 
L 521.819484 258.119628 
L 528.925522 253.209647 
L 533.531786 259.108897 
L 543.439968 255.54039 
L 545.565988 249.724981 
L 554.776496 249.378501 
L 554.004071 239.300615 
L 564.567501 245.481022 
L 568.668692 272.804452 
L 564.229439 284.729558 
L 559.468286 271.444796 
L 553.375087 278.054852 
L 557.536214 287.65696 
L 553.800695 293.764301 
L 538.466011 286.20134 
L 534.803223 276.769274 
L 538.777136 270.57304 
L 530.522225 264.410142 
L 526.428442 269.813747 
L 520.296184 269.312042 
L 510.652661 276.58307 
z
" clip-path="url(#p03ee2ebc92)" style="fill: #e8edf4; stroke: #b8c5d4; stroke-width: 0.45"/>
    <path d="M 539.078159 202.845469 
L 551.59319 203.132687 
L 555.182574 207.993844 
L 558.843342 222.544655 
L 548.788352 219.086927 
L 549.060418 223.460858 
L 552.249111 231.502627 
L 546.050858 234.422285 
L 545.508073 225.256897 
L 541.584667 224.580099 
L 539.544173 216.690188 
L 547.213199 217.729965 
L 547.043494 212.796077 
z
" clip-path="url(#p03ee2ebc92)" style="fill: #e8edf4; stroke: #b8c5d4; stroke-width: 0.45"/>
    <path d="M 514.491214 239.912763 
L 520.447033 232.774064 
L 521.884807 224.685154 
L 529.070983 223.919464 
L 526.9719 232.692915 
L 536.617444 220.112898 
L 535.372945 232.544424 
L 530.691256 236.827778 
L 526.608921 245.061475 
L 522.516484 248.919895 
z
" clip-path="url(#p03ee2ebc92)" style="fill: #e8edf4; stroke: #b8c5d4; stroke-width: 0.45"/>
    <path d="M 508.020894 211.52464 
L 515.843462 215.558825 
L 524.136758 215.539632 
L 523.884222 220.983307 
L 517.848938 226.516885 
L 509.572478 230.430189 
L 509.113199 224.374703 
L 510.038492 217.726597 
z
" clip-path="url(#p03ee2ebc92)" style="fill: #e8edf4; stroke: #b8c5d4; stroke-width: 0.45"/>
    <path d="M 446.651179 257.451585 
L 453.03934 248.337378 
L 462.453898 240.288874 
L 470.278486 231.273661 
L 477.109091 218.328308 
L 479.431079 228.95403 
L 470.827332 236.129768 
L 463.987299 245.086056 
z
" clip-path="url(#p03ee2ebc92)" style="fill: #e8edf4; stroke: #b8c5d4; stroke-width: 0.45"/>
    <path d="M 487.69003 191.004205 
L 498.854159 191.482677 
L 503.379612 196.175477 
L 499.923567 207.435234 
z
" clip-path="url(#p03ee2ebc92)" style="fill: #e8edf4; stroke: #b8c5d4; stroke-width: 0.45"/>
    <path d="M 348.770087 340.346494 
L 358.320677 344.812348 
L 368.390482 342.377223 
L 371.01282 331.343739 
L 376.575356 328.886055 
L 392.196248 326.064718 
L 407.943745 307.514403 
L 413.880708 314.2679 
L 416.616856 309.82831 
L 422.84474 310.241123 
L 424.190254 295.501078 
L 434.225041 286.438051 
L 440.797722 276.252753 
L 446.069336 276.20999 
L 452.764581 282.802537 
L 453.359893 288.467097 
L 472.813952 296.020966 
L 471.885964 301.125569 
L 463.142144 301.772062 
L 465.469519 308.135643 
L 455.874483 312.574896 
L 444.578361 310.378503 
L 429.59588 310.372442 
L 425.081203 325.193636 
L 420.063473 329.725486 
L 413.382369 347.849856 
L 402.754964 350.627419 
L 390.426473 346.975406 
L 384.177038 348.117881 
L 376.583437 354.707734 
L 368.263877 353.768972 
L 359.857445 356.418921 
L 350.94594 349.055969 
z
" clip-path="url(#p03ee2ebc92)" style="fill: #e8edf4; stroke: #b8c5d4; stroke-width: 0.45"/>
    <path d="M 223.959185 282.250997 
L 226.224605 279.926989 
L 236.857398 285.634312 
L 237.883032 292.325853 
L 246.484759 290.769556 
L 250.74488 285.415784 
L 253.741645 286.633346 
L 261.437608 294.500697 
L 266.904517 303.225325 
L 267.652024 312.000797 
L 266.264758 317.929005 
L 268.484384 330.122473 
L 273.074486 333.713541 
L 278.199292 345.237619 
L 277.950122 349.643537 
L 268.70931 350.512936 
L 240.963976 330.516093 
L 239.437983 323.876742 
L 231.904317 315.160532 
L 230.105584 304.368473 
L 225.40504 297.263445 
L 226.832712 287.775484 
z
" clip-path="url(#p03ee2ebc92)" style="fill: #e8edf4; stroke: #b8c5d4; stroke-width: 0.45"/>
    <path d="M 407.943745 307.514403 
L 413.103569 302.638767 
L 424.190254 295.501078 
L 422.84474 310.241123 
L 416.616856 309.82831 
L 413.880708 314.2679 
z
" clip-path="url(#p03ee2ebc92)" style="fill: #e8edf4; stroke: #b8c5d4; stroke-width: 0.45"/>
   </g>
   <g id="PathCollection_1">
    <defs>
     <path id="m64a7f9360a" d="M 0 2.12132 
C 0.562581 2.12132 1.102195 1.897805 1.5 1.5 
C 1.897805 1.102195 2.12132 0.562581 2.12132 0 
C 2.12132 -0.562581 1.897805 -1.102195 1.5 -1.5 
C 1.102195 -1.897805 0.562581 -2.12132 0 -2.12132 
C -0.562581 -2.12132 -1.102195 -1.897805 -1.5 -1.5 
C -1.897805 -1.102195 -2.12132 -0.562581 -2.12132 0 
C -2.12132 0.562581 -1.897805 1.102195 -1.5 1.5 
C -1.102195 1.897805 -0.562581 2.12132 0 2.12132 
z
" style="stroke: #ffffff; stroke-width: 0.5"/>
    </defs>
    <g clip-path="url(#p03ee2ebc92)">
     <use xlink:href="#m64a7f9360a" x="413.972851" y="307.851584" style="fill: #8aa0b7; stroke: #ffffff; stroke-width: 0.5"/>
     <use xlink:href="#m64a7f9360a" x="99.040724" y="8.123077" style="fill: #8aa0b7; stroke: #ffffff; stroke-width: 0.5"/>
     <use xlink:href="#m64a7f9360a" x="407.457013" y="76.539367" style="fill: #8aa0b7; stroke: #ffffff; stroke-width: 0.5"/>
     <use xlink:href="#m64a7f9360a" x="399.420814" y="77.62534" style="fill: #8aa0b7; stroke: #ffffff; stroke-width: 0.5"/>
     <use xlink:href="#m64a7f9360a" x="272.361991" y="348.684163" style="fill: #8aa0b7; stroke: #ffffff; stroke-width: 0.5"/>
     <use xlink:href="#m64a7f9360a" x="496.506787" y="60.249774" style="fill: #8aa0b7; stroke: #ffffff; stroke-width: 0.5"/>
    </g>
   </g>
   <g id="PatchCollection_2">
    <defs>
     <path id="m7e50210fa6" d="M 253.441295 -202.220056 
L 261.785772 -213.055552 
L 278.635675 -215.544887 
L 290.851029 -213.674434 
L 301.604366 -208.564444 
L 307.50025 -217.54969 
L 319.050928 -212.752171 
L 322.071937 -204.061215 
L 320.467153 -188.445037 
L 298.562481 -178.415974 
L 304.285293 -170.521349 
L 290.605227 -169.576526 
L 279.325267 -164.327809 
L 268.417041 -166.230587 
L 263.118491 -173.021459 
L 256.527627 -186.482324 
z
" style="stroke: #b45309; stroke-width: 1.15"/>
    </defs>
    <g clip-path="url(#p03ee2ebc92)">
     <use xlink:href="#m7e50210fa6" x="0" y="394.164706" style="fill: #f59e0b; stroke: #b45309; stroke-width: 1.15"/>
    </g>
   </g>
   <g id="PathCollection_2">
    <defs>
     <path id="m5200ecd472" d="M 0 3.316625 
C 0.879579 3.316625 1.723251 2.967164 2.345208 2.345208 
C 2.967164 1.723251 3.316625 0.879579 3.316625 0 
C 3.316625 -0.879579 2.967164 -1.723251 2.345208 -2.345208 
C 1.723251 -2.967164 0.879579 -3.316625 0 -3.316625 
C -0.879579 -3.316625 -1.723251 -2.967164 -2.345208 -2.345208 
C -2.967164 -1.723251 -3.316625 -0.879579 -3.316625 0 
C -3.316625 0.879579 -2.967164 1.723251 -2.345208 2.345208 
C -1.723251 2.967164 -0.879579 3.316625 0 3.316625 
z
" style="stroke: #ffffff"/>
    </defs>
    <g clip-path="url(#p03ee2ebc92)">
     <use xlink:href="#m5200ecd472" x="288" y="197.082353" style="fill: #f97316; stroke: #ffffff"/>
    </g>
   </g>
   <g id="PathCollection_3">
    <path d="M 288 201.532072 
C 289.180079 201.532072 290.311984 201.063222 291.146427 200.22878 
C 291.980869 199.394338 292.449719 198.262432 292.449719 197.082353 
C 292.449719 195.902274 291.980869 194.770369 291.146427 193.935927 
C 290.311984 193.101484 289.180079 192.632634 288 192.632634 
C 286.819921 192.632634 285.688016 193.101484 284.853573 193.935927 
C 284.019131 194.770369 283.550281 195.902274 283.550281 197.082353 
C 283.550281 198.262432 284.019131 199.394338 284.853573 200.22878 
C 285.688016 201.063222 286.819921 201.532072 288 201.532072 
L 288 201.532072 
z
" clip-path="url(#p03ee2ebc92)" style="fill: none; stroke: #7c2d12; stroke-width: 1.1"/>
   </g>
  </g>
 </g>
 <defs>
  <clipPath id="p03ee2ebc92">
   <rect x="0" y="-0" width="576" height="394.164706"/>
  </clipPath>
 </defs>
</svg>
