<?xml version="1.0" encoding="utf-8" standalone="no"?>
<!DOCTYPE svg PUBLIC "-//W3C//DTD SVG 1.1//EN"
  "http://www.w3.org/Graphics/SVG/1.1/DTD/svg11.dtd">
<svg xmlns:xlink="http://www.w3.org/1999/xlink" width="564.923077pt" height="432pt" viewBox="0 0 564.923077 432" xmlns="http://www.w3.org/2000/svg" version="1.1">
 <metadata>
  <rdf:RDF xmlns:dc="http://purl.org/dc/elements/1.1/" xmlns:cc="http://creativecommons.org/ns#" xmlns:rdf="http://www.w3.org/1999/02/22-rdf-syntax-ns#">
   <cc:Work>
    <dc:type rdf:resource="http://purl.org/dc/dcmitype/StillImage"/>
    <dc:date>2026-06-09T04:56:59.262882</dc:date>
    <dc:format>image/svg+xml</dc:format>
    <dc:creator>
     <cc:Agent>
      <dc:title>Matplotlib v3.10.8, https://matplotlib.org/</dc:title>
     </cc:Agent>
    </dc:creator>
   </cc:Work>
  </rdf:RDF>
 </metadata>
 <defs>
  <style type="text/css">*{stroke-linejoin: round; stroke-linecap: butt}</style>
 </defs>
 <g id="figure_1">
  <g id="patch_1">
   <path d="M 0 432 
L 564.923077 432 
L 564.923077 0 
L 0 0 
z
" style="fill: #eaf3ff"/>
  </g>
  <g id="axes_1">
   <g id="PatchCollection_1">
    <path d="M 270.634456 141.653991 
L 277.754164 136.380753 
L 272.827108 120.884068 
L 284.649772 111.309368 
L 282.14784 108.409237 
L 301.032554 99.226246 
L 283.624615 91.326129 
L 334.633698 60.518335 
L 340.882762 52.044577 
L 316.288342 40.660943 
L 323.080915 29.833697 
L 308.12283 17.468226 
L 319.308646 3.223717 
L 299.983935 -15.689678 
L 315.317238 -28.217858 
L 289.871064 -39.288954 
L 292.296676 -50.922447 
L 305.7156 -52.45344 
L 333.987175 -59.119366 
L 351.128271 -64.898862 
L 378.423194 -54.854363 
L 423.924258 -50.899902 
L 486.703495 -32.107569 
L 499.456302 -24.210775 
L 500.554246 -13.152406 
L 482.109175 -4.422683 
L 454.978246 0.007809 
L 380.803182 -12.621212 
L 368.603003 -10.509729 
L 395.691563 1.659046 
L 397.837274 26.345852 
L 432.211514 35.725902 
L 434.358886 27.669434 
L 424.349929 20.528972 
L 434.924972 14.235729 
L 475.091169 24.577643 
L 489.083815 20.528972 
L 477.901662 8.360529 
L 516.623649 -7.912745 
L 531.958818 -6.954868 
L 547.472769 -1.147791 
L 557.151397 -12.56688 
L 543.296326 -22.471477 
L 551.430554 -32.408474 
L 539.216086 -42.714665 
L 585.692308 -37.384615 
L 595.185342 -28.079502 
L 574.14744 -26.028332 
L 574.261255 -16.782369 
L 587.339723 -11.093594 
L 613.010658 -14.697138 
L 617.074782 -25.294929 
L 709.766529 -47.476468 
L 722.299182 -46.658492 
L 705.91824 -36.575612 
L 726.52896 -34.842794 
L 738.432222 -40.519274 
L 769.575102 -40.978191 
L 794.248615 -47.865932 
L 813.180517 -37.857157 
L 832.062572 -48.860695 
L 814.652308 -58.486154 
L 823.292308 -63.969231 
L 872.374154 -58.941249 
L 895.371757 -53.748028 
L 955.586658 -34.764868 
L 966.694375 -43.459698 
L 949.809157 -52.244751 
L 949.323655 -55.769372 
L 929.299791 -57.399674 
L 934.777551 -65.27736 
L 925.890978 -78.240018 
L 925.388197 -83.558271 
L 956.050228 -98.604 
L 966.954905 -113.705058 
L 979.310769 -116.972308 
L 1023.300665 -112.590665 
L 1026.764806 -103.348689 
L 1011.014751 -89.872283 
L 1021.34952 -84.575465 
L 1026.695852 -72.96048 
L 1022.921169 -50.192585 
L 1041.250763 -40.008185 
L 1034.119938 -28.917415 
L 1001.575385 -5.316923 
L 1020.566935 -2.868978 
L 1027.175871 -8.850517 
L 1045.456449 -13.117182 
L 1049.868166 -21.338972 
L 1064.248615 -29.250886 
L 1054.566166 -38.697065 
L 1062.318572 -49.666375 
L 1044.149982 -51.033489 
L 1040.154148 -60.274468 
L 1053.412062 -76.958308 
L 1031.833662 -90.506825 
L 1061.570548 -101.705926 
L 1057.723089 -113.520794 
L 1066.010012 -113.897963 
L 1074.741397 -104.686228 
L 1068.186129 -88.652382 
L 1085.966751 -85.616917 
L 1078.390468 -97.598935 
L 1106.196646 -104.13144 
L 1140.679717 -105.011058 
L 1171.384615 -95.538462 
L 1156.60872 -109.376585 
L 1154.953495 -127.077785 
L 1183.846154 -130.430769 
L 1223.810474 -129.698197 
L 1259.816677 -131.874314 
L 1246.312689 -140.560671 
L 1265.541009 -151.472991 
L 1284.630258 -151.929914 
L 1316.935385 -160.172308 
L 1360.809637 -162.387637 
L 1366.353028 -166.938092 
L 1409.981538 -168.48 
L 1423.576412 -164.749514 
L 1460.866818 -173.579095 
L 1491.39144 -173.303114 
L 1495.971471 -180.47448 
L 1511.847803 -187.546818 
L 1551.072738 -194.36544 
L 1579.568788 -188.981557 
L 1556.944615 -184.886031 
L 1594.580622 -182.340388 
L 1599.064615 -174.129231 
L 1614.247754 -178.172585 
L 1662.822166 -177.950769 
L 1700.277397 -169.846449 
L 1713.613902 -163.622326 
L 1709.480326 -154.984818 
L 1647.436154 -140.844129 
L 1634.953846 -135.913846 
L 1680.134234 -129.396295 
L 1695.093895 -132.53976 
L 1703.568406 -121.874677 
L 1710.866382 -126.191852 
L 1737.434548 -128.816585 
L 1790.745175 -126.072886 
L 1794.793846 -118.301538 
L 1864.25712 -115.829502 
L 1865.206025 -128.520498 
L 1900.467692 -125.612308 
L 1926.993157 -125.703526 
L 1953.824012 -116.950874 
L 1961.47224 -106.317194 
L 1951.643077 -99.36 
L 1972.511834 -86.284357 
L 1998.641022 -79.53768 
L 2014.673538 -96.972369 
L 2041.327274 -89.49744 
L 2069.644375 -93.964154 
L 2101.805446 -88.852929 
L 2114.043342 -93.511883 
L 2141.221791 -91.182406 
L 2129.226812 -106.607465 
L 2151.16344 -113.805582 
L 2301.230769 -103.015385 
L 2315.373452 -93.152991 
L 2358.867877 -80.455348 
L 2425.960468 -83.598812 
L 2459.040203 -80.862425 
L 2472.872843 -73.992295 
L 2470.851582 -61.842129 
L 2491.319575 -57.111729 
L 2513.559932 -60.513895 
L 2543.025822 -60.949052 
L 2574.39384 -57.688449 
L 2605.884978 -59.527772 
L 2634.828314 -44.758523 
L 2655.418929 -50.072622 
L 2641.9824 -60.692012 
L 2649.3804 -68.073729 
L 2702.39112 -63.428068 
L 2736.953114 -64.422 
L 2784.738462 -56.492308 
L 2808 -49.241958 
L 2808 16.952532 
L 2786.519631 24.342702 
L 2764.987422 23.125126 
L 2779.969846 31.969163 
L 2789.860154 45.659575 
L 2797.537957 50.134929 
L 2799.465674 57.008382 
L 2795.177077 61.4088 
L 2764.206831 57.789969 
L 2717.766665 70.2972 
L 2702.992929 72.233557 
L 2653.452 94.106548 
L 2647.343354 101.656745 
L 2623.576874 90.162554 
L 2580.285822 103.205631 
L 2572.726154 97.033846 
L 2556.721218 104.151877 
L 2534.498972 101.873742 
L 2529.145828 112.80168 
L 2509.211022 128.880886 
L 2509.803194 135.59616 
L 2528.72712 139.319502 
L 2526.501157 163.508012 
L 2511.076098 164.123612 
L 2503.96272 178.022548 
L 2510.875218 185.176135 
L 2481.819563 193.66344 
L 2476.05336 212.634222 
L 2451.283311 216.686548 
L 2446.302683 233.567612 
L 2422.353434 249.047169 
L 2416.209231 237.6 
L 2399.820812 176.438271 
L 2407.808825 153.39456 
L 2421.827723 143.478831 
L 2422.695046 135.713797 
L 2448.515022 131.996769 
L 2478.195249 111.077668 
L 2506.796972 93.993231 
L 2536.665618 80.735815 
L 2550.022062 57.312942 
L 2529.832209 58.714283 
L 2519.854505 72.401538 
L 2477.710745 90.649717 
L 2464.100086 70.21728 
L 2421.205145 75.858868 
L 2379.623151 103.71024 
L 2393.342308 113.899292 
L 2330.569052 119.948289 
L 2331.772338 107.934203 
L 2305.94472 105.412486 
L 2285.35992 113.574794 
L 2234.556886 110.718775 
L 2179.90224 115.643409 
L 2062.404388 187.262197 
L 2088.582258 189.3564 
L 2096.752209 199.761452 
L 2112.8904 203.455218 
L 2123.523083 195.155169 
L 2141.748166 196.233009 
L 2165.737458 214.51176 
L 2166.301052 228.648129 
L 2153.310978 245.24856 
L 2151.909637 265.089655 
L 2144.413606 291.654665 
L 2119.370732 315.698123 
L 2113.804412 327.190985 
L 2058.137557 375.537434 
L 2035.997225 385.286345 
L 2025.519563 385.502012 
L 2015.081778 377.425772 
L 1992.780609 389.585243 
L 1990.190769 395.113846 
L 1987.864615 392.206154 
L 1987.762703 383.765295 
L 1996.2502 383.317094 
L 1998.640608 363.685519 
L 1994.264695 349.455434 
L 2008.525085 343.586853 
L 2028.690609 346.528966 
L 2039.864854 330.364905 
L 2045.559046 312.161871 
L 2052.013458 306.081138 
L 2060.744868 291.13095 
L 2033.284361 296.028969 
L 2018.880388 302.583434 
L 1993.634474 302.563994 
L 1986.905797 286.952886 
L 1967.225281 275.140799 
L 1938.307569 269.82936 
L 1932.160802 253.554138 
L 1909.877797 219.442731 
L 1895.287203 213.324178 
L 1870.418271 208.376862 
L 1848.390888 208.826707 
L 1827.743562 211.822875 
L 1814.019319 220.089275 
L 1823.136187 224.038086 
L 1823.3424 233.211711 
L 1814.102252 238.537938 
L 1799.103711 256.160714 
L 1799.254424 263.472101 
L 1775.839753 273.971353 
L 1755.893923 267.698248 
L 1736.070016 269.083208 
L 1727.37044 263.515891 
L 1717.406969 261.720509 
L 1693.070137 273.429991 
L 1671.195837 276.181451 
L 1655.922637 280.29941 
L 1634.99454 277.593887 
L 1619.587395 277.766899 
L 1609.502 269.273822 
L 1593.229361 261.288621 
L 1576.577211 259.099989 
L 1539.856447 264.351332 
L 1516.251711 257.363003 
L 1513.083489 244.912265 
L 1478.465704 238.696511 
L 1459.852458 231.82838 
L 1442.643061 249.04808 
L 1449.389268 258.827805 
L 1433.239089 270.397938 
L 1409.217563 266.220665 
L 1392.634235 265.622954 
L 1381.528795 257.861853 
L 1364.193028 257.61672 
L 1349.745976 252.517779 
L 1324.473244 260.332973 
L 1292.769418 274.643655 
L 1268.750276 278.88955 
L 1259.933927 268.72602 
L 1238.53187 270.949427 
L 1231.458527 263.89712 
L 1219.841347 260.672129 
L 1211.844984 251.070998 
L 1202.671447 248.08127 
L 1178.794837 252.351206 
L 1155.906502 242.778409 
L 1147.052374 251.477985 
L 1109.922905 209.280489 
L 1088.726059 196.443634 
L 1094.805974 191.234364 
L 1053.163163 206.913877 
L 1037.226662 207.861614 
L 1038.603036 198.792829 
L 1017.2628 193.126341 
L 999.916024 197.17003 
L 994.684429 179.949042 
L 964.824928 176.368151 
L 949.886591 183.261183 
L 908.311071 189.394615 
L 900.197173 193.498984 
L 838.023508 199.280769 
L 830.404796 204.950879 
L 842.399771 216.332367 
L 826.449116 220.652532 
L 829.560769 225.179197 
L 813.614408 233.273014 
L 840.539133 244.700438 
L 836.375666 252.569296 
L 813.037413 251.852775 
L 808.21023 256.783422 
L 786.959778 248.173366 
L 760.618745 248.507169 
L 742.989157 255.516203 
L 686.692638 237.290086 
L 660.738158 237.720256 
L 626.439572 255.791711 
L 624.370288 267.927071 
L 607.283675 258.291165 
L 594.026523 276.546366 
L 598.879465 279.935354 
L 589.288637 292.527931 
L 603.39168 303.798185 
L 615.720462 303.334283 
L 626.312495 314.435717 
L 624.626308 322.985797 
L 633.065428 325.672671 
L 625.492966 335.526258 
L 609.384351 338.264474 
L 592.87032 355.416369 
L 607.972542 371.185034 
L 606.337255 382.376825 
L 624.478763 401.944763 
L 614.557936 408.641773 
L 611.706446 412.868778 
L 604.356626 411.733678 
L 592.937788 401.641413 
L 577.823262 397.233305 
L 572.736946 390.415337 
L 557.240504 386.939198 
L 547.16472 389.548357 
L 544.253372 386.460055 
L 521.630031 378.493477 
L 483.124956 372.963808 
L 481.098604 374.926193 
L 459.913846 360.886154 
L 440.957686 354.618665 
L 426.607643 344.857458 
L 438.698825 342.201988 
L 452.485938 328.305545 
L 443.194117 321.730837 
L 467.684363 314.948769 
L 467.244554 311.31648 
L 452.329555 313.994384 
L 452.854174 306.613654 
L 461.418702 301.974314 
L 477.497536 300.756122 
L 480.11184 295.215342 
L 476.440338 286.053452 
L 483.188494 277.353472 
L 482.99328 272.474862 
L 458.501343 267.068018 
L 448.792025 267.24747 
L 438.537481 259.466621 
L 425.788635 262.097874 
L 404.686238 256.255797 
L 405.048351 252.986843 
L 399.137811 245.781875 
L 385.889246 244.977345 
L 384.512872 239.819591 
L 388.6626 236.455503 
L 378.044859 227.047992 
L 360.815713 228.653189 
L 355.769581 227.818607 
L 351.572234 231.597692 
L 345.366886 230.925932 
L 341.280305 220.2859 
L 337.378718 214.77053 
L 340.576172 213.218086 
L 353.982785 213.794704 
L 360.448222 210.161008 
L 355.662253 205.730939 
L 344.458071 202.806895 
L 345.45751 199.806005 
L 338.695847 196.775063 
L 328.279023 185.896729 
L 331.839736 181.414283 
L 330.212644 173.614545 
L 313.969199 169.651996 
L 305.250733 171.635417 
L 302.890376 167.510588 
L 285.397634 163.343687 
L 280.056994 153.537345 
L 278.640264 145.480019 
z
" clip-path="url(#p21093b6a40)" style="fill: #e8edf4; stroke: #b8c5d4; stroke-width: 0.45"/>
    <path d="M 672.187906 -99.939563 
L 689.177495 -103.504569 
L 688.610804 -112.564767 
L 721.566502 -126.734636 
L 706.291585 -128.766139 
L 746.071625 -143.349006 
L 741.57673 -150.891158 
L 778.740544 -159.663717 
L 833.594584 -170.338987 
L 888.895967 -173.448922 
L 917.351618 -179.608689 
L 949.686532 -181.767269 
L 961.236739 -175.206096 
L 950.077205 -170.035892 
L 840.464433 -153.873158 
L 788.84998 -138.058166 
L 738.044352 -105.861062 
L 741.425612 -92.059114 
L 773.208431 -78.432325 
L 763.393502 -76.974811 
L 709.101002 -79.133391 
L 704.691969 -86.510687 
L 674.616094 -90.965227 
z
" clip-path="url(#p21093b6a40)" style="fill: #e8edf4; stroke: #b8c5d4; stroke-width: 0.45"/>
    <path d="M -3173.538462 16.952532 
L -3173.538462 -49.241958 
L -3132.830769 -36.553846 
L -3089.269385 -20.036326 
L -3090.698308 -9.7092 
L -3079.49256 -5.575458 
L -3083.347163 -17.648695 
L -3038.244535 -15.171175 
L -3005.716098 0.378166 
L -3022.190086 7.619982 
L -3049.425692 9.339342 
L -3049.836923 25.574566 
L -3056.48856 29.032228 
L -3072.049034 28.535262 
L -3084.711286 22.742308 
L -3106.803268 17.896763 
L -3110.518966 10.689175 
L -3127.391889 7.971397 
L -3146.288068 10.126745 
L -3155.316702 4.312689 
L -3151.707674 -1.862751 
L -3171.607255 2.084234 
L -3164.112222 9.900942 
z
" clip-path="url(#p21093b6a40)" style="fill: #e8edf4; stroke: #b8c5d4; stroke-width: 0.45"/>
    <path d="M 2169.870801 233.688159 
L 2171.340765 210.982711 
L 2186.699827 203.336666 
L 2180.100445 195.638245 
L 2187.494913 193.305364 
L 2197.564853 220.307366 
L 2197.139834 236.658568 
L 2203.997662 253.424486 
L 2220.715067 282.853816 
L 2196.120647 277.368069 
L 2185.897872 301.376907 
L 2202.094952 318.405135 
L 2201.626143 330.016304 
L 2189.038718 319.999599 
L 2178.1445 332.860066 
L 2175.068909 318.916874 
L 2176.921819 302.730098 
L 2175.027695 284.801175 
L 2178.871754 272.240367 
L 2179.605877 250.022618 
z
" clip-path="url(#p21093b6a40)" style="fill: #e8edf4; stroke: #b8c5d4; stroke-width: 0.45"/>
    <path d="M 356.46936 343.482101 
L 359.404136 340.296607 
L 375.311 334.773939 
L 372.782571 332.774296 
L 377.160289 328.659405 
L 394.316597 332.878169 
L 396.472854 336.15943 
L 398.979564 336.665489 
L 399.114628 338.102823 
L 407.243219 342.110879 
L 424.190736 341.114017 
L 420.945997 347.041955 
L 402.75691 349.920062 
L 380.201722 359.532356 
L 370.962071 356.152813 
L 374.625819 348.345346 
z
" clip-path="url(#p21093b6a40)" style="fill: #e8edf4; stroke: #b8c5d4; stroke-width: 0.45"/>
    <path d="M 562.380226 -242.415303 
L 594.816457 -245.441093 
L 620.060855 -245.642011 
L 623.455854 -241.165146 
L 632.999457 -245.14315 
L 648.660756 -247.883019 
L 673.304117 -244.241595 
L 666.878177 -241.708655 
L 629.630218 -238.257417 
L 627.312792 -235.530857 
L 607.892439 -232.784549 
L 589.893108 -236.723486 
L 599.357718 -241.910432 
z
" clip-path="url(#p21093b6a40)" style="fill: #e8edf4; stroke: #b8c5d4; stroke-width: 0.45"/>
    <path d="M 1332.239317 -238.288874 
L 1375.382658 -249.639508 
L 1411.32564 -253.391262 
L 1443.608585 -245.026662 
L 1481.870575 -228.962243 
L 1477.76832 -214.021772 
L 1441.516542 -211.949169 
L 1395.23688 -216.743455 
L 1367.66016 -223.086462 
L 1354.908185 -235.004511 
z
" clip-path="url(#p21093b6a40)" style="fill: #e8edf4; stroke: #b8c5d4; stroke-width: 0.45"/>
    <path d="M 2093.112942 -153.886209 
L 2102.041551 -165.309286 
L 2123.962477 -168.426166 
L 2167.836065 -167.697249 
L 2227.895197 -158.886692 
L 2214.830769 -146.547692 
L 2153.583305 -147.007606 
L 2126.028849 -143.083052 
z
" clip-path="url(#p21093b6a40)" style="fill: #e8edf4; stroke: #b8c5d4; stroke-width: 0.45"/>
    <path d="M 143.899866 192.305068 
L 147.685538 184.993027 
L 170.614228 179.604304 
L 188.015098 182.515039 
L 195.359766 185.152302 
L 193.586708 189.70215 
L 194.916716 193.942463 
L 164.363447 194.191893 
z
" clip-path="url(#p21093b6a40)" style="fill: #e8edf4; stroke: #b8c5d4; stroke-width: 0.45"/>
    <path d="M 2141.110302 -122.45256 
L 2156.871489 -129.019458 
L 2177.646702 -130.556714 
L 2201.253175 -124.204154 
L 2203.263969 -119.837465 
L 2178.071391 -119.721157 
z
" clip-path="url(#p21093b6a40)" style="fill: #e8edf4; stroke: #b8c5d4; stroke-width: 0.45"/>
    <path d="M 1469.433711 -198.072 
L 1499.786031 -219.887834 
L 1513.434738 -221.755735 
L 1525.920618 -220.673742 
L 1568.034222 -211.237034 
L 1563.100117 -204.483711 
z
" clip-path="url(#p21093b6a40)" style="fill: #e8edf4; stroke: #b8c5d4; stroke-width: 0.45"/>
    <path d="M -3173.538462 -80.288848 
L -3173.538462 -91.645715 
L -3157.327329 -92.307268 
L -3133.295086 -87.554437 
L -3134.717862 -85.282948 
L -3151.835114 -81.299409 
z
" clip-path="url(#p21093b6a40)" style="fill: #e8edf4; stroke: #b8c5d4; stroke-width: 0.45"/>
    <path d="M 2245.057311 -152.412591 
L 2249.033289 -157.793317 
L 2321.69544 -150.935151 
L 2302.492292 -144.369748 
L 2275.933265 -145.855745 
z
" clip-path="url(#p21093b6a40)" style="fill: #e8edf4; stroke: #b8c5d4; stroke-width: 0.45"/>
    <path d="M 2786.820369 -84.718523 
L 2808 -91.645715 
L 2808 -80.288848 
L 2789.779985 -79.44048 
z
" clip-path="url(#p21093b6a40)" style="fill: #e8edf4; stroke: #b8c5d4; stroke-width: 0.45"/>
    <path d="M -99.823933 66.943417 
L -84.524116 56.251834 
L -40.651016 42.302632 
L -7.847294 25.155056 
L 62.492885 -30.084506 
L 135.980779 -63.428303 
L 172.44138 -70.701276 
L 199.779103 -69.81904 
L 225.081029 -83.583638 
L 255.379287 -82.848656 
L 285.212171 -86.158651 
L 337.182952 -74.001396 
L 315.782612 -69.556301 
L 333.986547 -59.119218 
L 305.7156 -52.45344 
L 292.296676 -50.922447 
L 299.335674 -62.5817 
L 278.013469 -69.189669 
L 252.215258 -63.558814 
L 244.066918 -51.376659 
L 228.223592 -44.023405 
L 210.384824 -48.039189 
L 188.688259 -47.216627 
L 170.223555 -56.001207 
L 160.265236 -51.611493 
L 149.958316 -50.928458 
L 147.520683 -39.99646 
L 116.205814 -42.658193 
L 111.807943 -33.406093 
L 95.852137 -33.462332 
L 68.262837 -3.221173 
L 42.463768 20.154001 
L 48.515348 25.829934 
L 42.733376 32.41472 
L 26.251233 32.130515 
L 15.461767 47.714108 
L 16.483529 69.778593 
L 27.102129 78.199117 
L 21.606079 97.732808 
L 7.780518 109.123311 
L 0.45474 118.697825 
L -10.691056 108.501668 
L -43.499071 127.717668 
L -65.651565 131.612386 
L -88.629196 123.150648 
L -94.570873 105.287839 
z
" clip-path="url(#p21093b6a40)" style="fill: #e8edf4; stroke: #b8c5d4; stroke-width: 0.45"/>
    <path d="M -9.229348 -226.839711 
L 36.068178 -232.789182 
L 45.169255 -226.972634 
L 68.834548 -227.20392 
L 75.143908 -232.88256 
L 99.540277 -233.460443 
L 175.189791 -215.270751 
L 133.37784 -208.732431 
L 124.145502 -196.505003 
L 109.568658 -193.369182 
L 101.656246 -179.602505 
L 81.633877 -178.955169 
L 45.901495 -189.088892 
L 60.971151 -194.992338 
L 36.065354 -199.798837 
L 3.693766 -213.828369 
z
" clip-path="url(#p21093b6a40)" style="fill: #e8edf4; stroke: #b8c5d4; stroke-width: 0.45"/>
    <path d="M 105.807021 -237.913967 
L 157.114945 -242.55397 
L 181.239698 -238.558365 
L 198.042966 -243.534089 
L 240.052852 -239.383502 
L 272.617018 -233.552588 
L 247.978808 -224.604011 
L 199.791124 -222.646348 
L 150.787746 -225.417986 
L 147.831504 -229.996168 
L 123.98838 -230.287242 
z
" clip-path="url(#p21093b6a40)" style="fill: #e8edf4; stroke: #b8c5d4; stroke-width: 0.45"/>
    <path d="M 161.601397 -194.018511 
L 173.067674 -198.30528 
L 163.028492 -203.615391 
L 197.461551 -206.943618 
L 204.059188 -200.706203 
L 228.031532 -196.956277 
L 190.916086 -190.161914 
z
" clip-path="url(#p21093b6a40)" style="fill: #e8edf4; stroke: #b8c5d4; stroke-width: 0.45"/>
    <path d="M 541.374853 413.85362 
L 564.465823 411.261864 
L 567.90547 415.627966 
L 574.233527 418.503497 
L 570.890905 422.670398 
L 579.742458 428.369943 
L 575.058665 433.661641 
L 582.112259 438.180579 
L 589.571983 440.903275 
L 589.941191 452.426865 
L 583.924814 452.915422 
L 577.141686 443.303128 
L 577.218104 440.739707 
L 569.87687 440.777057 
L 564.956097 436.319941 
L 561.500137 436.768572 
L 554.953989 431.916918 
L 542.599251 427.786937 
L 544.198008 419.701277 
z
" clip-path="url(#p21093b6a40)" style="fill: #e8edf4; stroke: #b8c5d4; stroke-width: 0.45"/>
    <path d="M 0.45474 118.697825 
L 7.780518 109.123311 
L 21.606079 97.732808 
L 27.102129 78.199117 
L 16.483529 69.778593 
L 15.461767 47.714108 
L 26.251233 32.130515 
L 42.733376 32.41472 
L 48.515348 25.829934 
L 42.463768 20.154001 
L 68.262837 -3.221173 
L 95.852137 -33.462332 
L 111.807943 -33.406093 
L 116.205814 -42.658193 
L 147.520683 -39.99646 
L 149.958316 -50.928458 
L 160.265236 -51.611493 
L 208.348168 -32.167528 
L 208.786925 -6.580539 
L 214.394597 -0.115101 
L 185.812728 4.590157 
L 169.701511 16.183296 
L 172.295414 26.358846 
L 113.778485 54.009967 
L 101.678758 77.408324 
L 113.505442 89.11523 
L 129.395993 98.331269 
L 114.134814 117.075885 
L 96.854151 120.962875 
L 90.51579 148.855269 
L 81.079515 164.420831 
L 60.923321 162.816063 
L 51.519673 175.993791 
L 32.282207 176.758825 
L 27.00167 161.051591 
L 13.091965 142.1975 
z
" clip-path="url(#p21093b6a40)" style="fill: #e8edf4; stroke: #b8c5d4; stroke-width: 0.45"/>
    <path d="M 202.699282 224.524067 
L 212.663612 221.132503 
L 212.758919 214.509079 
L 208.149826 208.188749 
L 207.428582 200.8385 
L 223.488282 200.951409 
L 241.527109 194.692042 
L 245.383189 185.312006 
L 259.005255 179.991544 
L 257.444277 172.548993 
L 285.397634 163.343687 
L 302.890376 167.510588 
L 305.250733 171.635417 
L 313.969199 169.651996 
L 330.212644 173.614545 
L 331.839736 181.414283 
L 328.279023 185.896729 
L 338.695847 196.775063 
L 345.45751 199.806005 
L 344.458071 202.806895 
L 355.662253 205.730939 
L 360.448222 210.161008 
L 353.982785 213.794704 
L 340.576172 213.218086 
L 337.378718 214.77053 
L 341.280305 220.2859 
L 345.367259 230.925973 
L 331.103896 231.911666 
L 325.98478 235.559529 
L 324.915794 243.922096 
L 318.306966 242.316469 
L 303.312819 243.112414 
L 298.957879 239.22757 
L 292.723412 242.124138 
L 286.476065 239.722996 
L 273.390638 239.389421 
L 254.846082 235.401972 
L 238.061704 234.099869 
L 225.190074 234.468648 
L 216.084369 238.9717 
L 208.142099 239.619532 
L 207.825266 232.222488 
z
" clip-path="url(#p21093b6a40)" style="fill: #e8edf4; stroke: #b8c5d4; stroke-width: 0.45"/>
    <path d="M 184.191646 292.060839 
L 187.435527 285.362715 
L 192.042902 281.036968 
L 195.669729 282.006354 
L 191.383479 274.539762 
L 206.471217 260.720212 
L 214.716581 258.786591 
L 216.498225 254.125552 
L 208.142099 239.619532 
L 216.084369 238.9717 
L 225.190074 234.468648 
L 238.061704 234.099869 
L 254.846082 235.401972 
L 273.390638 239.389421 
L 286.476065 239.722996 
L 292.723412 242.124138 
L 298.957879 239.22757 
L 303.312819 243.112414 
L 318.306966 242.316469 
L 324.915794 243.922096 
L 325.98478 235.559529 
L 331.103896 231.911666 
L 351.572234 231.597692 
L 355.769581 227.818607 
L 360.815713 228.653189 
L 378.044859 227.047992 
L 388.6626 236.455503 
L 384.512872 239.819591 
L 385.889246 244.977345 
L 399.137811 245.781875 
L 405.048351 252.986843 
L 404.686238 256.255797 
L 425.788635 262.097874 
L 438.537481 259.466621 
L 448.792025 267.24747 
L 458.501343 267.068018 
L 482.99328 272.474862 
L 483.188494 277.353472 
L 476.440338 286.053452 
L 480.11184 295.215342 
L 477.497536 300.756122 
L 461.418702 301.974314 
L 452.854174 306.613654 
L 452.329555 313.994384 
L 439.063817 315.323104 
L 428.009895 320.698519 
L 412.455066 321.574744 
L 398.143524 327.768427 
L 398.979564 336.665489 
L 396.472854 336.15943 
L 394.316597 332.878169 
L 377.160289 328.659405 
L 372.782571 332.774296 
L 370.499273 330.968518 
L 344.671869 326.768989 
L 343.528182 320.57316 
L 328.133057 322.61926 
L 321.966421 331.769185 
L 309.100802 344.049652 
L 301.564661 341.198162 
L 293.756336 343.871487 
L 286.34212 340.810064 
L 290.524476 339.005237 
L 297.975614 328.007124 
L 296.800158 325.031993 
L 300.275008 323.706278 
L 301.912404 326.006102 
L 311.704149 326.492512 
L 316.102021 325.263821 
L 313.004106 323.579202 
L 314.177845 321.102931 
L 308.376124 316.878931 
L 305.974553 309.932664 
L 299.922114 307.214691 
L 301.115601 301.584265 
L 293.608653 297.11384 
L 286.774007 296.492197 
L 274.528315 291.315554 
L 263.483837 292.95896 
L 259.521288 295.409472 
L 252.511483 295.406896 
L 248.332561 299.290452 
L 236.06712 300.887063 
L 230.394193 303.438034 
L 222.680317 299.378031 
L 212.02823 299.31621 
L 201.747927 297.476179 
L 194.574984 301.034316 
L 193.416701 296.580635 
z
" clip-path="url(#p21093b6a40)" style="fill: #e8edf4; stroke: #b8c5d4; stroke-width: 0.45"/>
    <path d="M 51.084351 216.31133 
L 55.716626 211.876539 
L 51.834788 203.42167 
L 63.186653 198.542111 
L 110.040895 185.236018 
L 126.623497 188.042859 
L 127.876229 192.095134 
L 164.363447 194.191893 
L 194.916716 193.942463 
L 203.438558 195.719815 
L 207.428582 200.8385 
L 208.149826 208.188749 
L 212.758919 214.509079 
L 212.663612 221.132503 
L 202.699282 224.524067 
L 207.825266 232.222488 
L 208.142099 239.619532 
L 216.498225 254.125552 
L 214.716581 258.786591 
L 206.471217 260.720212 
L 191.383479 274.539762 
L 195.669729 282.006354 
L 176.252811 274.650524 
L 164.292181 276.998861 
L 156.447794 275.292775 
L 146.631148 278.853917 
L 138.251839 272.964617 
L 131.420628 275.219792 
L 122.836107 266.035093 
L 110.483087 265.031362 
L 108.906653 259.82896 
L 97.511857 257.970899 
L 95.031293 262.261442 
L 86.005439 258.824371 
L 87.041798 254.253057 
L 74.619229 252.807564 
L 66.743932 247.458338 
L 59.933328 236.849182 
L 61.228132 231.120874 
L 57.117042 222.233259 
z
" clip-path="url(#p21093b6a40)" style="fill: #e8edf4; stroke: #b8c5d4; stroke-width: 0.45"/>
    <path d="M -25.255891 313.984081 
L -22.714365 309.91678 
L -23.357474 306.968266 
L -18.342252 306.052114 
L -9.934608 310.666358 
L -7.568241 306.281367 
L 7.085033 306.989731 
L 18.964093 304.010307 
L 26.929546 304.520329 
L 32.111341 307.922197 
L 33.660298 305.098612 
L 31.305093 294.272654 
L 37.274246 292.163015 
L 43.132636 284.502374 
L 55.47707 289.850312 
L 64.824049 283.053017 
L 70.672135 281.812306 
L 83.569524 286.882908 
L 91.372697 286.020421 
L 99.03248 289.157832 
L 97.698178 291.267471 
L 99.354463 297.024973 
L 98.093145 303.81454 
L 88.735863 303.847168 
L 91.953985 307.448236 
L 86.438186 318.144972 
L 83.270722 320.949237 
L 68.739373 321.363094 
L 60.354912 325.132881 
L 22.870831 319.554402 
L 19.159001 313.775006 
L 2.738679 316.662987 
L 0.806776 319.823581 
L -17.737781 317.009442 
z
" clip-path="url(#p21093b6a40)" style="fill: #e8edf4; stroke: #b8c5d4; stroke-width: 0.45"/>
    <path d="M 86.438186 318.144972 
L 91.953985 307.448236 
L 88.735863 303.847168 
L 98.093145 303.81454 
L 99.354463 297.024973 
L 113.933896 303.09072 
L 127.880522 301.054923 
L 129.218258 297.718311 
L 153.510442 293.634267 
L 157.406877 289.724953 
L 162.852269 288.711348 
L 180.646389 293.760485 
L 184.191646 292.060839 
L 193.416701 296.580635 
L 194.574984 301.034316 
L 184.426909 304.51947 
L 176.563633 315.788049 
L 166.518593 327.055769 
L 153.197045 330.189746 
L 142.826586 329.454335 
L 123.885345 336.304006 
L 110.161103 333.109067 
L 92.461432 323.937677 
L 89.233006 318.328717 
z
" clip-path="url(#p21093b6a40)" style="fill: #e8edf4; stroke: #b8c5d4; stroke-width: 0.45"/>
    <path d="M 259.521288 295.409472 
L 263.483837 292.95896 
L 274.528315 291.315554 
L 286.774007 296.492197 
L 293.608653 297.11384 
L 301.115601 301.584265 
L 299.922114 307.214691 
L 305.974553 309.932664 
L 308.376124 316.878931 
L 314.177845 321.102931 
L 313.004106 323.579202 
L 316.102021 325.263821 
L 311.704149 326.492512 
L 301.912404 326.006102 
L 300.275008 323.706278 
L 296.800158 325.031993 
L 297.975614 328.007124 
L 290.524476 339.005237 
L 286.34212 340.810064 
L 283.36613 333.228416 
L 285.120298 326.134037 
L 284.58881 318.841315 
L 264.58631 297.028836 
z
" clip-path="url(#p21093b6a40)" style="fill: #e8edf4; stroke: #b8c5d4; stroke-width: 0.45"/>
    <path d="M 153.197045 330.189746 
L 166.518593 327.055769 
L 176.563633 315.788049 
L 184.426909 304.51947 
L 201.747927 297.476179 
L 212.02823 299.31621 
L 222.680317 299.378031 
L 230.394193 303.438034 
L 236.06712 300.887063 
L 248.332561 299.290452 
L 252.511483 295.406896 
L 259.521288 295.409472 
L 264.58631 297.028836 
L 284.58881 318.841315 
L 285.120298 326.134037 
L 283.36613 333.228416 
L 286.34212 340.810064 
L 293.756336 343.871487 
L 301.564661 341.198162 
L 309.100802 344.049652 
L 309.487183 348.335043 
L 301.429857 351.910352 
L 296.382866 350.354097 
L 291.734277 370.399099 
L 281.964856 368.654375 
L 269.873715 362.614386 
L 250.313407 366.477334 
L 242.074053 370.715072 
L 217.672823 369.840993 
L 204.905946 367.249667 
L 198.467984 368.466336 
L 190.645063 358.738987 
L 194.495132 355.934722 
L 190.396062 353.865868 
L 185.179922 357.58929 
L 175.49207 352.762107 
L 174.187821 345.912865 
L 164.065505 342.004839 
L 162.202291 336.717863 
z
" clip-path="url(#p21093b6a40)" style="fill: #e8edf4; stroke: #b8c5d4; stroke-width: 0.45"/>
    <path d="M 167.080991 165.6375 
L 186.111529 160.541139 
L 213.977306 161.606691 
L 230.300603 159.964144 
L 232.630908 163.420104 
L 241.472157 164.487374 
L 257.444277 172.548993 
L 259.005255 179.991544 
L 245.383189 185.312006 
L 241.527109 194.692042 
L 223.488282 200.951409 
L 207.428582 200.8385 
L 203.438558 195.719815 
L 194.916716 193.942463 
L 193.586708 189.70215 
L 195.359766 185.152302 
L 188.015098 182.515039 
L 170.614228 179.604304 
z
" clip-path="url(#p21093b6a40)" style="fill: #e8edf4; stroke: #b8c5d4; stroke-width: 0.45"/>
    <path d="M 167.080991 165.6375 
L 167.656269 153.129498 
L 175.821782 142.695073 
L 191.481362 137.020857 
L 204.675834 149.43484 
L 218.005969 149.111568 
L 221.198332 136.355424 
L 235.35017 133.41893 
L 256.932537 141.623081 
L 270.634456 141.653991 
L 278.640264 145.480019 
L 280.056994 153.537345 
L 285.397634 163.343687 
L 257.444277 172.548993 
L 241.472157 164.487374 
L 232.630908 163.420104 
L 230.300603 159.964144 
L 213.977306 161.606691 
L 186.111529 160.541139 
z
" clip-path="url(#p21093b6a40)" style="fill: #e8edf4; stroke: #b8c5d4; stroke-width: 0.45"/>
    <path d="M 205.030446 113.196623 
L 226.039253 108.567352 
L 246.974219 106.15419 
L 265.001025 108.900498 
L 282.147954 108.409182 
L 284.649772 111.309368 
L 272.827108 120.884068 
L 277.754164 136.380753 
L 270.634456 141.653991 
L 256.932537 141.623081 
L 235.35017 133.41893 
L 221.198332 136.355424 
L 223.126801 126.552516 
L 217.016834 128.646699 
L 206.472075 122.741943 
z
" clip-path="url(#p21093b6a40)" style="fill: #e8edf4; stroke: #b8c5d4; stroke-width: 0.45"/>
    <path d="M -83.265374 235.080847 
L -73.283872 235.073978 
L -69.072322 228.819762 
L -64.932038 213.606665 
L -68.03768 207.98869 
L -64.792941 204.47005 
L -50.90556 203.566777 
L -47.823959 207.230525 
L -36.541642 199.039254 
L -40.340194 192.810797 
L -41.102652 183.38826 
L -28.54442 185.579467 
L -17.91294 183.049962 
L -17.619291 189.47118 
L -0.828903 193.343144 
L -1.005779 199.240172 
L 15.888503 196.119933 
L 25.229471 191.569227 
L 43.988684 198.129972 
L 51.834788 203.42167 
L 55.716626 211.876539 
L 51.084351 216.31133 
L 57.117042 222.233259 
L 61.228132 231.120874 
L 59.933328 236.849182 
L 66.743932 247.458338 
L 59.328856 249.191899 
L 54.947299 247.28232 
L 50.780398 250.445061 
L 38.848962 253.663183 
L 32.67975 257.803038 
L 20.604923 261.420849 
L 23.513941 266.359224 
L 25.272402 273.366023 
L 33.751312 277.359482 
L 43.132636 284.502374 
L 37.274246 292.163015 
L 31.305093 294.272654 
L 33.660298 305.098612 
L 32.111341 307.922197 
L 26.929546 304.520329 
L 18.964093 304.010307 
L 7.085033 306.989731 
L -7.568241 306.281367 
L -9.934608 310.666358 
L -18.342252 306.052114 
L -23.357474 306.968266 
L -41.162756 301.887789 
L -44.574068 305.497443 
L -58.706157 305.381099 
L -56.597377 293.543682 
L -48.196602 282.166059 
L -72.140185 279.105923 
L -79.981138 274.755277 
L -79.04352 267.470712 
L -82.361243 263.718526 
L -80.473988 252.49202 
z
" clip-path="url(#p21093b6a40)" style="fill: #e8edf4; stroke: #b8c5d4; stroke-width: 0.45"/>
    <path d="M 189.091812 393.447996 
L 191.824812 391.103524 
L 190.023419 389.126972 
L 192.81824 383.839996 
L 199.152308 378.645322 
L 191.079527 371.473237 
L 189.588956 365.404484 
L 193.688026 361.635126 
L 198.467984 368.466336 
L 204.905946 367.249667 
L 217.672823 369.840993 
L 242.074053 370.715072 
L 250.313407 366.477334 
L 269.873715 362.614386 
L 281.964856 368.654375 
L 291.734277 370.399099 
L 283.111118 377.282686 
L 277.043224 389.167327 
L 282.407047 398.646963 
L 268.101516 396.418405 
L 251.175465 401.645277 
L 250.994295 409.919835 
L 235.891961 411.48854 
L 224.185484 405.682956 
L 210.883684 410.249117 
L 198.593343 409.768717 
L 197.413594 398.780908 
z
" clip-path="url(#p21093b6a40)" style="fill: #e8edf4; stroke: #b8c5d4; stroke-width: 0.45"/>
    <path d="M 152.031033 438.230808 
L 159.75693 430.172194 
L 160.753793 424.772309 
L 166.153678 422.363011 
L 166.486824 417.997768 
L 177.355284 416.526516 
L 183.689352 412.894537 
L 192.693739 413.216521 
L 195.426332 410.320246 
L 210.883684 410.249117 
L 224.185484 405.682956 
L 235.891961 411.48854 
L 250.994295 409.919835 
L 251.175465 401.645277 
L 259.269711 406.044866 
L 254.125696 416.443658 
L 250.176885 418.306872 
L 231.383328 416.264206 
L 211.261479 420.583084 
L 222.779059 429.923193 
L 214.337928 432.631293 
L 205.083681 432.648036 
L 196.293949 424.090991 
L 193.175427 427.737137 
L 196.888117 437.660682 
L 205.200454 445.458274 
L 198.937652 449.098839 
L 208.19104 456.756904 
L 216.415798 461.575501 
L 216.664798 470.962835 
L 201.295433 466.559812 
L 206.196457 475.034 
L 195.645688 476.778294 
L 201.947128 491.441442 
L 190.911236 491.649229 
L 177.286594 484.421763 
L 171.055561 471.129408 
L 168.148261 460.074627 
L 153.155831 442.962254 
z
" clip-path="url(#p21093b6a40)" style="fill: #e8edf4; stroke: #b8c5d4; stroke-width: 0.45"/>
    <path d="M 207.941181 510.424756 
L 211.015054 503.363004 
L 220.098435 508.96209 
L 233.031027 508.015457 
L 245.396068 509.194777 
L 244.994232 512.086193 
L 254.049279 510.092468 
L 251.972268 514.993922 
L 228.045857 516.406358 
L 228.21243 513.664772 
z
" clip-path="url(#p21093b6a40)" style="fill: #e8edf4; stroke: #b8c5d4; stroke-width: 0.45"/>
    <path d="M 252.068434 440.91229 
L 270.498793 425.02131 
L 296.085783 424.356735 
L 303.064677 411.729384 
L 334.73244 413.928749 
L 354.704888 403.151303 
L 374.066855 398.454202 
L 401.555695 398.100878 
L 430.556573 409.812507 
L 454.391969 416.238877 
L 473.747926 413.677173 
L 488.050881 415.15744 
L 507.667859 406.484481 
L 525.370964 405.694976 
L 541.374853 413.85362 
L 544.198008 419.701277 
L 542.599251 427.786937 
L 554.953989 431.916918 
L 561.500137 436.768572 
L 550.122513 441.501735 
L 555.309459 460.557173 
L 552.058709 465.702906 
L 561.14602 479.014279 
L 553.183506 481.820992 
L 547.348299 477.588835 
L 528.022395 475.444851 
L 520.885514 478.026733 
L 501.985487 480.610761 
L 493.032616 480.329562 
L 473.91364 486.56403 
L 460.244349 486.615976 
L 451.402241 483.48758 
L 433.109261 488.109552 
L 427.671597 484.878122 
L 426.772618 494.146536 
L 417.872982 501.426807 
L 411.763874 493.892384 
L 418.056728 487.651477 
L 407.92325 489.066489 
L 394.026423 485.243466 
L 382.600716 494.806818 
L 357.382936 496.674325 
L 343.931735 487.756658 
L 326.020843 487.198553 
L 322.190522 494.092014 
L 310.707287 496.062985 
L 294.639001 487.215725 
L 276.499715 487.514955 
L 266.656452 470.990311 
L 254.518087 461.772555 
L 262.601172 448.851984 
z
" clip-path="url(#p21093b6a40)" style="fill: #e8edf4; stroke: #b8c5d4; stroke-width: 0.45"/>
    <path d="M 249.951067 421.735786 
L 250.176885 418.306872 
L 254.125696 416.443658 
L 259.269711 406.044866 
L 251.175465 401.645277 
L 268.101516 396.418405 
L 282.407047 398.646963 
L 284.381023 405.035124 
L 298.884896 410.401093 
L 295.860823 414.4714 
L 276.131366 415.387551 
L 255.179228 429.474563 
z
" clip-path="url(#p21093b6a40)" style="fill: #e8edf4; stroke: #b8c5d4; stroke-width: 0.45"/>
    <path d="M 137.982231 395.51685 
L 145.186085 387.333736 
L 146.242192 390.459985 
L 150.713169 388.988917 
L 154.253152 393.447996 
L 158.227477 395.149237 
L 159.34565 401.171746 
L 157.234294 406.826213 
L 159.593792 413.951932 
L 166.486824 417.997768 
L 166.153678 422.363011 
L 160.753793 424.772309 
L 159.75693 430.172194 
L 152.031033 438.230808 
L 149.206161 437.067802 
L 148.873874 433.412211 
L 139.670285 427.833303 
L 138.224363 419.916792 
L 139.628213 408.579523 
L 141.895838 403.42177 
L 139.100159 400.803826 
z
" clip-path="url(#p21093b6a40)" style="fill: #e8edf4; stroke: #b8c5d4; stroke-width: 0.45"/>
    <path d="M 44.14667 346.647847 
L 45.111764 340.610005 
L 56.691164 341.177555 
L 59.734127 338.37329 
L 65.385589 341.085682 
L 71.905978 341.407666 
L 71.844157 336.764229 
L 77.619261 335.063295 
L 79.234332 328.351433 
L 92.461432 323.937677 
L 110.161103 333.109067 
L 123.885345 336.304006 
L 130.09555 333.821813 
L 134.132162 340.257969 
L 139.410981 344.993279 
L 133.014206 351.245335 
L 125.499558 347.567433 
L 114.011172 347.797544 
L 99.727965 345.038786 
L 91.965147 345.407136 
L 88.36322 348.85451 
L 82.401795 345.038786 
L 78.92351 351.935252 
L 90.660898 364.853248 
L 104.633283 374.737725 
L 110.906388 381.679269 
L 125.612308 387.969231 
L 123.784886 390.79399 
L 108.165661 384.646243 
L 98.529326 378.664641 
L 83.332543 373.726266 
L 69.360158 361.497746 
L 72.713084 360.256176 
L 65.137446 353.268266 
L 64.826625 347.659306 
L 54.145345 345.038786 
L 49.052847 352.210871 
z
" clip-path="url(#p21093b6a40)" style="fill: #e8edf4; stroke: #b8c5d4; stroke-width: 0.45"/>
    <path d="M -70.616128 348.44924 
L -64.855621 343.388511 
L -69.745483 337.149751 
L -69.060301 332.454796 
L -61.9114 336.013791 
L -53.90044 335.223857 
L -44.58523 329.58871 
L -41.705406 332.222109 
L -33.790612 331.694055 
L -30.192119 324.993355 
L -17.897485 327.075518 
L -10.577717 324.27297 
L -9.25973 317.461078 
L 0.806776 319.823581 
L 2.738679 316.662987 
L 19.159001 313.775006 
L 22.870831 319.554402 
L 46.630669 323.845375 
L 44.830135 332.028918 
L 48.809856 339.10312 
L 35.583615 336.682659 
L 22.074887 342.579688 
L 22.993615 350.827628 
L 20.959535 355.561221 
L 26.405786 364.020382 
L 41.985514 372.38853 
L 50.341641 386.124793 
L 68.830387 399.514602 
L 81.850559 399.411997 
L 85.899829 403.084331 
L 81.23836 406.394325 
L 108.318496 417.425924 
L 122.566499 426.091155 
L 124.287181 429.194222 
L 121.182398 435.144055 
L 111.960778 427.386389 
L 97.525595 424.652102 
L 90.532963 435.399496 
L 102.541675 441.558834 
L 100.570275 450.229217 
L 93.62916 451.214488 
L 84.754424 465.465067 
L 77.827906 466.745275 
L 77.892303 461.665227 
L 81.28215 452.753571 
L 84.893521 449.204449 
L 73.333869 431.196533 
L 66.436544 429.126391 
L 61.531227 421.955165 
L 50.85424 418.934526 
L 43.664983 412.25615 
L 31.371207 411.179436 
L 3.188598 392.863702 
L -8.109174 383.292623 
L -13.291827 366.867579 
L -21.558657 364.935675 
L -35.075971 359.451645 
L -42.725451 361.696517 
L -52.325724 369.407388 
L -59.230776 370.625346 
L -57.329783 363.413335 
L -66.335888 361.305414 
z
" clip-path="url(#p21093b6a40)" style="fill: #e8edf4; stroke: #b8c5d4; stroke-width: 0.45"/>
    <path d="M 23.77668 471.661755 
L 26.101833 463.130898 
L 45.545369 464.649804 
L 75.107786 461.390038 
L 69.124037 474.468167 
L 71.610611 479.616046 
L 68.122881 488.160211 
L 55.416108 481.902132 
L 46.96725 480.109325 
z
" clip-path="url(#p21093b6a40)" style="fill: #e8edf4; stroke: #b8c5d4; stroke-width: 0.45"/>
    <path d="M -47.187719 416.215265 
L -38.049386 417.046412 
L -29.741342 411.895528 
L -19.77272 423.692161 
L -22.106459 445.668207 
L -29.66149 444.619828 
L -36.438607 450.166967 
L -42.729744 445.76008 
L -43.395177 425.71422 
z
" clip-path="url(#p21093b6a40)" style="fill: #e8edf4; stroke: #b8c5d4; stroke-width: 0.45"/>
    <path d="M -48.351154 157.181344 
L -40.81673 147.710723 
L -26.178053 146.679516 
L -20.344563 142.095753 
L -6.978366 137.408955 
L -7.541624 145.953979 
L -12.461538 151.365885 
L -10.467813 156.018767 
L -1.459133 158.533676 
L -5.519564 164.80163 
L -10.467813 162.996803 
L -22.431019 174.960008 
L -17.91294 183.049962 
L -28.54442 185.579467 
L -41.102652 183.38826 
L -47.847142 174.167069 
z
" clip-path="url(#p21093b6a40)" style="fill: #e8edf4; stroke: #b8c5d4; stroke-width: 0.45"/>
    <path d="M -1.596512 169.809983 
L 22.7781 164.30277 
L 28.080102 172.633996 
L 18.110621 186.092066 
L 0.723489 176.706878 
z
" clip-path="url(#p21093b6a40)" style="fill: #e8edf4; stroke: #b8c5d4; stroke-width: 0.45"/>
    <path d="M 564.465823 411.261864 
L 568.5357 408.548183 
L 580.917055 413.326425 
L 589.87336 414.313842 
L 592.137551 412.366054 
L 583.954866 403.374975 
L 588.266875 401.084167 
L 592.937788 401.641413 
L 604.356626 411.733678 
L 611.706446 412.868778 
L 614.557936 408.641773 
L 624.478487 401.944949 
L 633.216689 410.694313 
L 641.668123 422.480642 
L 649.409475 423.257697 
L 654.526873 427.737137 
L 640.842127 429.074015 
L 637.952 441.977842 
L 635.093641 447.797594 
L 629.000846 451.68115 
L 629.444755 459.909771 
L 625.309623 460.738343 
L 614.947751 452.037908 
L 620.676489 443.817444 
L 615.767736 438.941319 
L 609.536704 440.168722 
L 589.941191 452.426865 
L 589.571983 440.903275 
L 582.112259 438.180579 
L 575.058665 433.661641 
L 579.742458 428.369943 
L 570.890905 422.670398 
L 574.233527 418.503497 
L 567.90547 415.627966 
z
" clip-path="url(#p21093b6a40)" style="fill: #e8edf4; stroke: #b8c5d4; stroke-width: 0.45"/>
    <path d="M 561.500137 436.768572 
L 564.956097 436.319941 
L 569.87687 440.777057 
L 577.218104 440.739707 
L 577.141686 443.303128 
L 583.924814 452.915422 
L 572.528301 450.706612 
L 564.13697 443.036525 
z
" clip-path="url(#p21093b6a40)" style="fill: #e8edf4; stroke: #b8c5d4; stroke-width: 0.45"/>
    <path d="M 481.098604 374.926193 
L 483.124956 372.963808 
L 521.630031 378.493477 
L 544.253372 386.460055 
L 547.16472 389.548357 
L 557.240504 386.939198 
L 572.736946 390.415337 
L 577.823262 397.233305 
L 588.266875 401.084167 
L 583.954866 403.374975 
L 592.137551 412.366054 
L 589.87336 414.313842 
L 580.917055 413.326425 
L 568.5357 408.548183 
L 564.465823 411.261864 
L 541.374853 413.85362 
L 525.370964 405.694976 
L 507.667859 406.484481 
L 510.144989 399.38495 
L 505.996118 388.050257 
L 496.392411 381.927411 
L 487.186247 380.016544 
z
" clip-path="url(#p21093b6a40)" style="fill: #e8edf4; stroke: #b8c5d4; stroke-width: 0.45"/>
    <path d="M 44.830135 332.028918 
L 46.630669 323.845375 
L 60.354912 325.132881 
L 68.739373 321.363094 
L 83.270722 320.949237 
L 86.438186 318.144972 
L 89.233006 318.328717 
L 92.461432 323.937677 
L 79.234332 328.351433 
L 77.619261 335.063295 
L 71.844157 336.764229 
L 71.905978 341.407666 
L 65.385589 341.085682 
L 59.734127 338.37329 
L 56.691164 341.177555 
L 45.111764 340.610005 
L 48.809856 339.10312 
z
" clip-path="url(#p21093b6a40)" style="fill: #e8edf4; stroke: #b8c5d4; stroke-width: 0.45"/>
    <path d="M 160.265236 -51.611493 
L 170.223555 -56.001207 
L 188.688259 -47.216627 
L 210.384824 -48.039189 
L 228.223592 -44.023405 
L 244.066918 -51.376659 
L 252.215258 -63.558814 
L 278.013469 -69.189669 
L 299.335674 -62.5817 
L 292.296676 -50.922447 
L 289.871064 -39.288954 
L 315.317238 -28.217858 
L 299.983935 -15.689678 
L 319.308646 3.223717 
L 308.12283 17.468226 
L 323.080915 29.833697 
L 316.288342 40.660943 
L 340.882762 52.044577 
L 334.633698 60.518335 
L 283.624575 91.326187 
L 253.470566 92.648038 
L 224.251598 98.739974 
L 197.219545 102.244876 
L 187.600383 93.180385 
L 171.508056 87.726406 
L 175.207007 71.357602 
L 167.137661 56.369465 
L 175.060182 46.693634 
L 190.125596 36.25792 
L 228.13773 18.237982 
L 239.229432 14.76399 
L 237.501022 7.737013 
L 214.394597 -0.115101 
L 208.786925 -6.580539 
L 208.348168 -32.167528 
z
" clip-path="url(#p21093b6a40)" style="fill: #e8edf4; stroke: #b8c5d4; stroke-width: 0.45"/>
    <path d="M 97.698178 291.267471 
L 101.386826 285.502671 
L 108.747808 285.784299 
L 114.421594 284.065334 
L 114.870654 282.519812 
L 118.051855 281.730736 
L 119.14059 277.950216 
L 122.953739 277.227684 
L 125.528751 274.236668 
L 130.483011 274.21649 
L 131.420628 275.219792 
L 138.251839 272.964617 
L 146.631148 278.853917 
L 156.447794 275.292775 
L 164.292181 276.998861 
L 176.252811 274.650524 
L 192.042902 281.036968 
L 187.435527 285.362715 
L 184.191646 292.060839 
L 180.646389 293.760485 
L 162.852269 288.711348 
L 157.406877 289.724953 
L 153.510442 293.634267 
L 129.218258 297.718311 
L 127.880522 301.054923 
L 113.933896 303.09072 
L 99.354463 297.024973 
z
" clip-path="url(#p21093b6a40)" style="fill: #e8edf4; stroke: #b8c5d4; stroke-width: 0.45"/>
    <path d="M 20.604923 261.420849 
L 32.67975 257.803038 
L 38.848962 253.663183 
L 50.780398 250.445061 
L 54.947299 247.28232 
L 59.328856 249.191899 
L 66.743932 247.458338 
L 74.619229 252.807564 
L 87.041798 254.253057 
L 86.005439 258.824371 
L 95.031293 262.261442 
L 97.511857 257.970899 
L 108.906653 259.82896 
L 110.483087 265.031362 
L 122.836107 266.035093 
L 130.483011 274.21649 
L 125.528751 274.236668 
L 122.953739 277.227684 
L 119.14059 277.950216 
L 118.051855 281.730736 
L 114.870654 282.519812 
L 114.421594 284.065334 
L 108.747808 285.784299 
L 101.386826 285.502671 
L 99.03248 289.157832 
L 91.372697 286.020421 
L 83.569524 286.882908 
L 70.672135 281.812306 
L 64.824049 283.053017 
L 55.47707 289.850312 
L 43.132636 284.502374 
L 33.751312 277.359482 
L 25.272402 273.366023 
L 23.513941 266.359224 
z
" clip-path="url(#p21093b6a40)" style="fill: #e8edf4; stroke: #b8c5d4; stroke-width: 0.45"/>
    <path d="M 78.92351 351.935252 
L 82.401795 345.038786 
L 88.36322 348.85451 
L 91.965147 345.407136 
L 99.727965 345.038786 
L 114.011172 347.797544 
L 125.499558 347.567433 
L 133.014129 351.245409 
L 139.038037 351.199385 
L 134.877212 358.508991 
L 142.88832 364.899268 
L 140.466462 372.714646 
L 133.448954 374.967194 
L 128.046129 378.828942 
L 125.612308 387.969231 
L 110.906388 381.679269 
L 104.633283 374.737725 
L 90.660898 364.853248 
z
" clip-path="url(#p21093b6a40)" style="fill: #e8edf4; stroke: #b8c5d4; stroke-width: 0.45"/>
    <path d="M 157.234294 406.826213 
L 159.345635 401.171667 
L 161.456843 401.309557 
L 162.202043 397.907557 
L 181.391483 393.724135 
L 189.091812 393.447996 
L 197.413594 398.780908 
L 198.593343 409.768717 
L 195.426332 410.320246 
L 192.693739 413.216521 
L 183.689352 412.894537 
L 177.355284 416.526516 
L 166.486824 417.997768 
L 159.593792 413.951932 
z
" clip-path="url(#p21093b6a40)" style="fill: #e8edf4; stroke: #b8c5d4; stroke-width: 0.45"/>
    <path d="M 130.09555 333.821813 
L 142.826586 329.454335 
L 153.197045 330.189746 
L 162.202291 336.717863 
L 164.065505 342.004839 
L 174.187821 345.912865 
L 175.49207 352.762107 
L 185.179922 357.58929 
L 190.396062 353.865868 
L 194.495132 355.934722 
L 190.645063 358.738987 
L 193.688026 361.635126 
L 189.588956 365.404484 
L 191.079527 371.473237 
L 199.152308 378.645322 
L 192.81824 383.839996 
L 190.023419 389.126972 
L 191.824812 391.103524 
L 189.091812 393.447996 
L 175.734875 394.694733 
L 175.181317 393.448154 
L 179.0316 387.425908 
L 176.671717 387.517791 
L 163.07136 377.633631 
L 160.09056 378.553126 
L 157.792818 384.069766 
L 153.818252 385.265077 
L 155.184369 383.839975 
L 143.390769 378.60181 
L 136.553871 373.450043 
L 140.466462 372.714646 
L 142.88832 364.899268 
L 134.877212 358.508991 
L 139.038037 351.199385 
L 133.014129 351.245409 
L 139.410981 344.993279 
L 134.132162 340.257969 
z
" clip-path="url(#p21093b6a40)" style="fill: #e8edf4; stroke: #b8c5d4; stroke-width: 0.45"/>
    <path d="M 123.784896 390.793975 
L 128.046129 378.828942 
L 136.553871 373.450043 
L 143.390769 378.60181 
L 155.184369 383.839975 
L 150.713169 388.988917 
L 146.242192 390.459985 
L 145.186085 387.333736 
L 137.982231 395.51685 
L 139.100148 400.803773 
L 135.622412 399.516591 
L 130.964788 394.091834 
z
" clip-path="url(#p21093b6a40)" style="fill: #e8edf4; stroke: #b8c5d4; stroke-width: 0.45"/>
    <path d="M 150.713169 388.988917 
L 153.818252 385.265077 
L 157.792818 384.069766 
L 160.09056 378.553126 
L 163.07136 377.633631 
L 176.671717 387.517791 
L 179.0316 387.425908 
L 175.181317 393.448154 
L 175.734875 394.694733 
L 162.202043 397.907557 
L 161.456843 401.309557 
L 159.345635 401.171667 
L 158.227477 395.149237 
L 154.253152 393.447996 
z
" clip-path="url(#p21093b6a40)" style="fill: #e8edf4; stroke: #b8c5d4; stroke-width: 0.45"/>
   </g>
   <g id="PathCollection_1">
    <defs>
     <path id="m11733dad8f" d="M 0 2.12132 
C 0.562581 2.12132 1.102195 1.897805 1.5 1.5 
C 1.897805 1.102195 2.12132 0.562581 2.12132 0 
C 2.12132 -0.562581 1.897805 -1.102195 1.5 -1.5 
C 1.102195 -1.897805 0.562581 -2.12132 0 -2.12132 
C -0.562581 -2.12132 -1.102195 -1.897805 -1.5 -1.5 
C -1.897805 -1.102195 -2.12132 -0.562581 -2.12132 0 
C -2.12132 0.562581 -1.897805 1.102195 -1.5 1.5 
C -1.102195 1.897805 -0.562581 2.12132 0 2.12132 
z
" style="stroke: #ffffff; stroke-width: 0.5"/>
    </defs>
    <g clip-path="url(#p21093b6a40)">
     <use xlink:href="#m11733dad8f" x="149.538462" y="415.384615" style="fill: #8aa0b7; stroke: #ffffff; stroke-width: 0.5"/>
     <use xlink:href="#m11733dad8f" x="148.136123" y="96.726462" style="fill: #8aa0b7; stroke: #ffffff; stroke-width: 0.5"/>
     <use xlink:href="#m11733dad8f" x="139.143877" y="386.993908" style="fill: #8aa0b7; stroke: #ffffff; stroke-width: 0.5"/>
     <use xlink:href="#m11733dad8f" x="182.769231" y="401.538462" style="fill: #8aa0b7; stroke: #ffffff; stroke-width: 0.5"/>
     <use xlink:href="#m11733dad8f" x="63.415385" y="330.369231" style="fill: #8aa0b7; stroke: #ffffff; stroke-width: 0.5"/>
     <use xlink:href="#m11733dad8f" x="23.538461" y="369.415385" style="fill: #8aa0b7; stroke: #ffffff; stroke-width: 0.5"/>
     <use xlink:href="#m11733dad8f" x="24.1488" y="400.382585" style="fill: #8aa0b7; stroke: #ffffff; stroke-width: 0.5"/>
     <use xlink:href="#m11733dad8f" x="164.542154" y="388.7568" style="fill: #8aa0b7; stroke: #ffffff; stroke-width: 0.5"/>
    </g>
   </g>
   <g id="PatchCollection_2">
    <defs>
     <path id="me4e442e649" d="M 202.699282 -207.475933 
L 212.663612 -210.867497 
L 212.758919 -217.490921 
L 208.149826 -223.811251 
L 207.428582 -231.1615 
L 223.488282 -231.048591 
L 241.527109 -237.307958 
L 245.383189 -246.687994 
L 259.005255 -252.008456 
L 257.444277 -259.451007 
L 285.397634 -268.656313 
L 302.890376 -264.489412 
L 305.250733 -260.364583 
L 313.969199 -262.348004 
L 330.212644 -258.385455 
L 331.839736 -250.585717 
L 328.279023 -246.103271 
L 338.695847 -235.224937 
L 345.45751 -232.193995 
L 344.458071 -229.193105 
L 355.662253 -226.269061 
L 360.448222 -221.838992 
L 353.982785 -218.205296 
L 340.576172 -218.781914 
L 337.378718 -217.22947 
L 341.280305 -211.7141 
L 345.367259 -201.074027 
L 331.103896 -200.088334 
L 325.98478 -196.440471 
L 324.915794 -188.077904 
L 318.306966 -189.683531 
L 303.312819 -188.887586 
L 298.957879 -192.77243 
L 292.723412 -189.875862 
L 286.476065 -192.277004 
L 273.390638 -192.610579 
L 254.846082 -196.598028 
L 238.061704 -197.900131 
L 225.190074 -197.531352 
L 216.084369 -193.0283 
L 208.142099 -192.380468 
L 207.825266 -199.777512 
z
" style="stroke: #b45309; stroke-width: 1.15"/>
    </defs>
    <g clip-path="url(#p21093b6a40)">
     <use xlink:href="#me4e442e649" x="0" y="432" style="fill: #f59e0b; stroke: #b45309; stroke-width: 1.15"/>
    </g>
   </g>
   <g id="PathCollection_2">
    <defs>
     <path id="me164c34b17" d="M 0 3.316625 
C 0.879579 3.316625 1.723251 2.967164 2.345208 2.345208 
C 2.967164 1.723251 3.316625 0.879579 3.316625 0 
C 3.316625 -0.879579 2.967164 -1.723251 2.345208 -2.345208 
C 1.723251 -2.967164 0.879579 -3.316625 0 -3.316625 
C -0.879579 -3.316625 -1.723251 -2.967164 -2.345208 -2.345208 
C -2.967164 -1.723251 -3.316625 -0.879579 -3.316625 0 
C -3.316625 0.879579 -2.967164 1.723251 -2.345208 2.345208 
C -1.723251 2.967164 -0.879579 3.316625 0 3.316625 
z
" style="stroke: #ffffff"/>
    </defs>
    <g clip-path="url(#p21093b6a40)">
     <use xlink:href="#me164c34b17" x="282.461538" y="216" style="fill: #f97316; stroke: #ffffff"/>
    </g>
   </g>
   <g id="PathCollection_3">
    <path d="M 282.461538 220.449719 
C 283.641618 220.449719 284.773523 219.980869 285.607965 219.146427 
C 286.442407 218.311984 286.911258 217.180079 286.911258 216 
C 286.911258 214.819921 286.442407 213.688016 285.607965 212.853573 
C 284.773523 212.019131 283.641618 211.550281 282.461538 211.550281 
C 281.281459 211.550281 280.149554 212.019131 279.315112 212.853573 
C 278.48067 213.688016 278.011819 214.819921 278.011819 216 
C 278.011819 217.180079 278.48067 218.311984 279.315112 219.146427 
C 280.149554 219.980869 281.281459 220.449719 282.461538 220.449719 
L 282.461538 220.449719 
z
" clip-path="url(#p21093b6a40)" style="fill: none; stroke: #7c2d12; stroke-width: 1.1"/>
   </g>
  </g>
 </g>
 <defs>
  <clipPath id="p21093b6a40">
   <rect x="0" y="0" width="564.923077" height="432"/>
  </clipPath>
 </defs>
</svg>
