<?xml version="1.0" encoding="utf-8" standalone="no"?>
<!DOCTYPE svg PUBLIC "-//W3C//DTD SVG 1.1//EN"
  "http://www.w3.org/Graphics/SVG/1.1/DTD/svg11.dtd">
<svg xmlns:xlink="http://www.w3.org/1999/xlink" width="479.41864pt" height="432pt" viewBox="0 0 479.41864 432" xmlns="http://www.w3.org/2000/svg" version="1.1">
 <metadata>
  <rdf:RDF xmlns:dc="http://purl.org/dc/elements/1.1/" xmlns:cc="http://creativecommons.org/ns#" xmlns:rdf="http://www.w3.org/1999/02/22-rdf-syntax-ns#">
   <cc:Work>
    <dc:type rdf:resource="http://purl.org/dc/dcmitype/StillImage"/>
    <dc:date>2026-06-09T04:57:10.882340</dc:date>
    <dc:format>image/svg+xml</dc:format>
    <dc:creator>
     <cc:Agent>
      <dc:title>Matplotlib v3.10.8, https://matplotlib.org/</dc:title>
     </cc:Agent>
    </dc:creator>
   </cc:Work>
  </rdf:RDF>
 </metadata>
 <defs>
  <style type="text/css">*{stroke-linejoin: round; stroke-linecap: butt}</style>
 </defs>
 <g id="figure_1">
  <g id="patch_1">
   <path d="M 0 432 
L 479.41864 432 
L 479.41864 0 
L 0 0 
z
" style="fill: #eaf3ff"/>
  </g>
  <g id="axes_1">
   <g id="PatchCollection_1">
    <path d="M 126.123134 319.575592 
L 126.527962 315.596889 
L 147.896763 314.859732 
L 149.0278 311.466863 
L 152.885103 307.237089 
L 155.992841 294.235388 
L 169.082125 284.074783 
L 173.509448 272.203876 
L 176.452237 271.514403 
L 179.518617 264.176404 
L 187.440015 263.165307 
L 190.846995 264.388063 
L 195.122507 264.388063 
L 198.157259 262.245685 
L 203.977638 261.942307 
L 203.7616 256.898011 
L 205.195042 256.898011 
L 204.990682 273.614449 
L 174.087009 273.122038 
L 174.390144 297.214671 
L 165.567613 298.059847 
L 163.265152 302.89589 
L 165.050873 316.493642 
L 128.17793 316.434767 
z
" clip-path="url(#pa502c29ff9)" style="fill: #e8edf4; stroke: #b8c5d4; stroke-width: 0.45"/>
    <path d="M 414.281043 382.026673 
L 418.346543 369.623905 
L 430.356909 360.745456 
L 430.853213 348.498915 
L 434.481097 329.39219 
L 436.52908 325.339285 
L 432.611199 322.111607 
L 432.459718 319.117065 
L 428.936604 316.668322 
L 426.624212 302.032185 
L 436.129883 296.883935 
L 511.237537 332.939198 
L 511.701075 370.316245 
L 503.581873 369.658272 
L 499.282265 376.592313 
L 496.792364 382.406257 
L 498.755642 384.606153 
L 495.660402 387.493964 
L 496.727112 391.393591 
L 494.288527 395.318641 
L 493.339608 398.776858 
L 496.646419 398.231968 
L 498.620055 401.864659 
L 498.724287 407.33408 
L 502.184858 410.109373 
L 502.071356 412.390008 
L 496.110844 413.995453 
L 491.334163 417.807262 
L 484.527015 428.080508 
L 475.665071 432.44263 
L 466.572493 431.857526 
L 463.917267 432.723139 
L 464.84954 436.03767 
L 455.941372 443.005143 
L 444.087496 446.607482 
L 441.735405 444.475322 
L 440.17594 444.291398 
L 438.440336 446.713312 
L 430.655664 447.421031 
L 432.130465 444.870419 
L 427.835977 434.482098 
L 423.735145 432.883708 
L 418.177515 427.388359 
L 420.223065 422.945223 
L 424.514147 423.89112 
L 427.170833 423.220623 
L 432.429707 423.312828 
L 427.30464 414.75402 
L 427.649133 408.499618 
L 427.020238 402.252494 
L 423.276794 396.223153 
L 424.218311 391.788046 
L 418.179948 391.571278 
L 418.200871 385.514668 
z
" clip-path="url(#pa502c29ff9)" style="fill: #e8edf4; stroke: #b8c5d4; stroke-width: 0.45"/>
    <path d="M 543.726819 -23.861808 
L 547.761478 -26.850092 
L 544.96937 -35.631889 
L 551.669141 -41.057763 
L 550.251324 -42.701234 
L 560.953078 -47.905132 
L 551.088196 -52.382039 
L 579.994466 -69.840467 
L 583.53574 -74.64245 
L 569.598361 -81.093427 
L 573.447635 -87.229105 
L 564.971057 -94.236478 
L 571.309933 -102.30868 
L 560.358837 -113.026687 
L 569.048047 -120.126265 
L 554.627987 -126.40013 
L 556.002554 -132.992699 
L 563.606907 -133.860296 
L 579.628089 -137.637801 
L 589.341754 -140.912975 
L 604.809479 -135.220872 
L 630.594418 -132.979923 
L 666.170702 -122.330521 
L 673.397573 -117.855497 
L 674.019766 -111.588844 
L 663.567153 -106.641808 
L 648.192362 -104.131099 
L 606.158191 -111.287822 
L 599.244488 -110.091269 
L 614.595269 -103.195361 
L 615.811219 -89.205627 
L 635.290712 -83.890059 
L 636.507604 -88.455568 
L 630.835641 -92.501987 
L 636.828398 -96.068297 
L 659.590128 -90.207651 
L 667.519603 -92.501987 
L 661.182802 -99.397707 
L 683.126115 -108.619587 
L 691.816382 -108.076769 
L 700.607963 -104.785964 
L 706.092732 -111.257033 
L 698.24122 -116.869856 
L 702.850795 -122.50104 
L 695.928994 -128.341442 
L 722.266544 -125.320963 
L 727.646139 -120.04786 
L 715.724198 -118.885486 
L 715.788695 -113.645903 
L 723.200115 -110.422138 
L 737.747544 -112.464226 
L 740.050637 -118.469875 
L 792.578003 -131.039902 
L 799.680115 -130.576364 
L 790.397221 -124.86251 
L 802.077083 -123.880542 
L 808.822527 -127.097339 
L 826.470845 -127.357402 
L 840.453046 -131.260607 
L 851.181541 -125.588747 
L 861.881789 -131.824328 
L 852.015588 -137.278966 
L 856.911779 -140.386164 
L 884.725906 -137.536864 
L 897.758388 -134.593924 
L 931.881492 -123.836382 
L 938.17611 -128.763644 
L 928.607447 -133.742034 
L 928.332319 -135.739397 
L 916.985021 -136.663271 
L 920.089206 -141.127466 
L 915.053286 -148.473258 
L 914.768365 -151.487052 
L 932.144192 -160.013297 
L 938.323749 -168.570896 
L 945.325678 -170.422409 
L 970.254254 -167.939381 
L 972.217344 -162.702058 
L 963.291966 -155.065131 
L 969.148563 -152.063484 
L 972.178269 -145.481404 
L 970.039199 -132.579094 
L 980.426372 -126.80771 
L 976.385415 -120.522696 
L 957.942784 -107.148564 
L 968.705081 -105.761342 
L 972.45029 -109.151012 
L 982.809687 -111.568883 
L 985.309757 -116.228078 
L 993.458995 -120.711671 
L 987.972061 -126.064713 
L 992.365262 -132.280898 
L 982.069327 -133.055626 
L 979.804933 -138.292384 
L 987.318043 -147.746927 
L 975.089807 -155.424719 
L 991.941365 -161.771123 
L 989.761053 -168.466475 
L 994.457159 -168.680213 
L 999.405136 -163.460026 
L 995.69034 -154.373827 
L 1005.766417 -152.653663 
L 1001.473023 -159.443738 
L 1017.23047 -163.145634 
L 1036.771637 -163.644104 
L 1054.171756 -158.276091 
L 1045.798423 -166.117998 
L 1044.860426 -176.149069 
L 1061.233569 -178.049167 
L 1083.880898 -177.634027 
L 1104.285206 -178.867207 
L 1096.632649 -183.789668 
L 1107.52912 -189.973556 
L 1118.346782 -190.232489 
L 1136.653732 -194.903361 
L 1161.516775 -196.158763 
L 1164.658152 -198.737454 
L 1189.381936 -199.611236 
L 1197.085997 -197.497212 
L 1218.218049 -202.500836 
L 1235.516007 -202.34444 
L 1238.111459 -206.408372 
L 1247.108397 -210.416187 
L 1269.336725 -214.280222 
L 1285.485114 -211.229237 
L 1272.664251 -208.908348 
L 1293.99215 -207.465761 
L 1296.533179 -202.812591 
L 1305.137292 -205.103914 
L 1332.663863 -204.978214 
L 1353.889319 -200.385587 
L 1361.446965 -196.858447 
L 1359.104515 -191.963669 
L 1323.944783 -183.9503 
L 1316.871201 -181.156365 
L 1342.474416 -177.462942 
L 1350.951887 -179.244308 
L 1355.754296 -173.200526 
L 1359.889977 -175.647021 
L 1374.945856 -177.134427 
L 1405.156386 -175.579604 
L 1407.450722 -171.175669 
L 1446.814775 -169.774794 
L 1447.352508 -176.966638 
L 1467.334897 -175.318599 
L 1482.366578 -175.370292 
L 1497.57132 -170.410263 
L 1501.905485 -164.384276 
L 1496.335409 -160.441713 
L 1508.161498 -153.031894 
L 1522.968613 -149.208628 
L 1532.054059 -159.08867 
L 1547.15843 -154.852712 
L 1563.205411 -157.383948 
L 1581.430727 -154.487475 
L 1588.365804 -157.127651 
L 1603.767524 -155.807563 
L 1596.970105 -164.548769 
L 1609.401344 -168.627861 
L 1694.442804 -162.513178 
L 1702.457303 -156.924271 
L 1727.105102 -149.72866 
L 1765.125715 -151.510026 
L 1783.871627 -149.959346 
L 1791.710428 -146.066122 
L 1790.565001 -139.18076 
L 1802.163982 -136.500096 
L 1814.767341 -138.428065 
L 1831.465328 -138.674663 
L 1849.241229 -136.826916 
L 1867.086902 -137.86924 
L 1883.488763 -129.499673 
L 1895.157232 -132.511113 
L 1887.542902 -138.529002 
L 1891.735265 -142.712137 
L 1921.775841 -140.079493 
L 1941.361733 -140.642743 
L 1968.441149 -136.149076 
L 1981.6232 -132.040385 
L 1981.6232 -94.528715 
L 1969.450518 -90.34079 
L 1957.248458 -91.030776 
L 1965.738829 -86.018961 
L 1971.343555 -78.260759 
L 1975.694479 -75.724626 
L 1976.786894 -71.829518 
L 1974.356595 -69.335851 
L 1956.806106 -71.386601 
L 1930.488989 -64.298895 
L 1922.11688 -63.201584 
L 1894.042595 -50.806407 
L 1890.580894 -46.527796 
L 1877.112699 -53.041424 
L 1852.580149 -45.650059 
L 1848.29617 -49.14754 
L 1839.226354 -45.113832 
L 1826.633259 -46.404826 
L 1823.599692 -40.212087 
L 1812.302863 -31.100182 
L 1812.63844 -27.294712 
L 1823.362415 -25.184737 
L 1822.100987 -11.477381 
L 1813.359781 -11.128527 
L 1809.328709 -3.252158 
L 1813.245944 0.801699 
L 1796.780433 5.611359 
L 1793.512791 16.361887 
L 1779.475884 18.658294 
L 1776.653418 28.224603 
L 1763.081649 36.996693 
L 1759.599799 30.509711 
L 1750.312667 -4.14995 
L 1754.839384 -17.20856 
L 1762.783735 -22.827692 
L 1763.275237 -27.228049 
L 1777.907125 -29.334446 
L 1794.726575 -41.189065 
L 1810.934848 -50.870622 
L 1827.861072 -58.38345 
L 1835.430018 -71.656928 
L 1823.988657 -70.862803 
L 1818.334404 -63.10639 
L 1794.452012 -52.765354 
L 1786.739005 -64.344185 
L 1762.430927 -61.147161 
L 1738.866881 -45.364103 
L 1746.641372 -39.590082 
L 1711.068477 -36.162184 
L 1711.750366 -42.970431 
L 1697.114147 -44.399459 
L 1685.448973 -39.773972 
L 1656.659468 -41.392445 
L 1625.687297 -38.601711 
L 1559.102592 1.983847 
L 1573.937296 3.170608 
L 1578.567115 9.067034 
L 1587.712445 11.160249 
L 1593.737866 6.456705 
L 1604.065815 7.067505 
L 1617.660276 17.425866 
L 1617.979658 25.436787 
L 1610.61833 34.844064 
L 1609.824206 46.087788 
L 1605.57629 61.141879 
L 1591.384776 74.767035 
L 1588.230405 81.27991 
L 1556.684627 108.677296 
L 1544.137951 114.201894 
L 1538.200379 114.32411 
L 1532.285404 109.747396 
L 1519.647584 116.638031 
L 1518.179951 119.771028 
L 1516.861746 118.123271 
L 1516.803993 113.339932 
L 1521.613761 113.085941 
L 1522.968379 101.96095 
L 1520.488599 93.896921 
L 1528.569801 90.571263 
L 1539.997375 92.238525 
L 1546.329693 83.078535 
L 1549.556528 72.763081 
L 1553.21417 69.317198 
L 1558.162161 60.845095 
L 1542.600602 63.620748 
L 1534.438033 67.335089 
L 1520.131459 67.324072 
L 1516.318394 58.477434 
L 1505.165668 51.783657 
L 1488.778328 48.773725 
L 1485.295024 39.550741 
L 1472.667497 20.220192 
L 1464.399172 16.752877 
L 1450.306229 13.949289 
L 1437.823561 14.204211 
L 1426.122954 15.902105 
L 1418.345581 20.586581 
L 1423.512007 22.824328 
L 1423.628865 28.022917 
L 1418.392578 31.04123 
L 1409.893074 41.027858 
L 1409.978482 45.171138 
L 1396.709652 51.120946 
L 1385.406575 47.566048 
L 1374.172592 48.350889 
L 1369.24264 45.195954 
L 1363.596454 44.178531 
L 1349.805046 50.814162 
L 1337.409127 52.373383 
L 1328.753977 54.706984 
L 1316.894261 53.173795 
L 1308.163206 53.271839 
L 1302.447927 48.458908 
L 1293.226407 43.933785 
L 1283.789821 42.693512 
L 1262.980579 45.669389 
L 1249.604042 41.709182 
L 1247.808647 34.653489 
L 1228.191139 31.131092 
L 1217.643222 27.238999 
L 1207.890852 36.997209 
L 1211.713851 42.539268 
L 1202.561727 49.095932 
L 1188.949 46.728718 
L 1179.551415 46.390002 
L 1173.258088 41.991874 
L 1163.434104 41.85296 
L 1155.247124 38.963448 
L 1140.925352 43.39223 
L 1122.959152 51.501932 
L 1109.347776 53.908033 
L 1104.35165 48.148475 
L 1092.223347 49.408454 
L 1088.214963 45.411992 
L 1081.631638 43.584426 
L 1077.10019 38.143573 
L 1071.90165 36.449328 
L 1058.371045 38.869053 
L 1045.400484 33.444257 
L 1040.38295 38.374209 
L 1019.342099 14.461365 
L 1007.330086 7.186864 
L 1010.775505 4.234829 
L 987.176995 13.120232 
L 978.14596 13.657304 
L 978.925935 8.518126 
L 966.832665 5.306991 
L 957.002443 7.598504 
L 954.037757 -2.160435 
L 937.116715 -4.189686 
L 928.651328 -0.283482 
L 905.090951 3.192264 
L 900.492897 5.518164 
L 865.259783 8.794636 
L 860.942346 12.007823 
L 867.739762 18.457584 
L 858.700707 20.905773 
L 860.464045 23.470982 
L 851.427422 28.057657 
L 866.68536 34.533449 
L 864.32597 38.992642 
L 851.100446 38.586597 
L 848.364936 41.380739 
L 836.322545 36.501518 
L 821.395379 36.690681 
L 811.404891 40.662621 
L 779.502289 30.334086 
L 764.794179 30.577859 
L 745.357558 40.818748 
L 744.184918 47.695719 
L 734.502127 42.235161 
L 726.989449 52.580176 
L 729.739557 54.500678 
L 724.304543 61.636749 
L 732.296578 68.023474 
L 739.283159 67.760587 
L 745.285545 74.051644 
L 744.330001 78.896877 
L 749.112355 80.419498 
L 744.821127 86.003415 
L 735.692557 87.555131 
L 726.334242 97.274916 
L 734.8925 106.21084 
L 733.965802 112.553102 
L 744.24639 123.642031 
L 738.624369 127.437151 
L 737.008462 129.832547 
L 732.843402 129.189298 
L 726.372476 123.470126 
L 717.807244 120.972101 
L 714.924887 117.108436 
L 706.143228 115.138547 
L 700.433395 116.617128 
L 698.783567 114.867022 
L 685.963175 110.352452 
L 664.142785 107.218851 
L 662.994474 108.330913 
L 650.989311 100.374581 
L 640.247069 96.822866 
L 632.115062 91.291301 
L 638.966998 89.786476 
L 646.779999 81.911518 
L 641.514429 78.185706 
L 655.392775 74.342385 
L 655.14354 72.284007 
L 646.691379 73.801545 
L 646.988674 69.618969 
L 651.842095 66.989907 
L 660.953789 66.299572 
L 662.435286 63.159674 
L 660.354687 57.967735 
L 664.178791 53.037555 
L 664.068165 50.272901 
L 650.188861 47.208904 
L 644.6867 47.310597 
L 638.875566 42.901278 
L 631.650939 44.392379 
L 619.692449 41.081741 
L 619.897655 39.229261 
L 616.548218 35.146287 
L 609.040406 34.690369 
L 608.260431 31.767528 
L 610.612035 29.861138 
L 604.595081 24.530007 
L 594.831519 25.439654 
L 591.971933 24.966706 
L 589.593343 27.108271 
L 586.076843 26.727592 
L 583.761023 20.698006 
L 581.550038 17.572508 
L 583.362 16.692756 
L 590.959376 17.019519 
L 594.623266 14.960345 
L 591.911111 12.449874 
L 585.561828 10.792852 
L 586.128198 9.092281 
L 582.296441 7.374681 
L 576.393344 1.210052 
L 578.41116 -1.3301 
L 577.489105 -5.750123 
L 568.284128 -7.995655 
L 563.343472 -6.871673 
L 562.005885 -9.209166 
L 552.092945 -11.570502 
L 549.066465 -17.127646 
L 548.26362 -21.693641 
z
" clip-path="url(#pa502c29ff9)" style="fill: #e8edf4; stroke: #b8c5d4; stroke-width: 0.45"/>
    <path d="M 771.282622 -160.770145 
L 780.91043 -162.790393 
L 780.589292 -167.924705 
L 799.264914 -175.95461 
L 790.608791 -177.10584 
L 813.151691 -185.369786 
L 810.604484 -189.643838 
L 831.664797 -194.615148 
L 862.749962 -200.664703 
L 894.088631 -202.427068 
L 910.214127 -205.917738 
L 928.537957 -207.140981 
L 935.083329 -203.422838 
L 928.759348 -200.492943 
L 866.643028 -191.333704 
L 837.393701 -182.371527 
L 808.602725 -164.125791 
L 810.518847 -156.304383 
L 828.529811 -148.582236 
L 822.967802 -147.756279 
L 792.200856 -148.979522 
L 789.702307 -153.160152 
L 772.658649 -155.68449 
z
" clip-path="url(#pa502c29ff9)" style="fill: #e8edf4; stroke: #b8c5d4; stroke-width: 0.45"/>
    <path d="M -1408.047053 -94.528715 
L -1408.047053 -132.040385 
L -1384.978464 -124.850176 
L -1360.29272 -115.489884 
L -1361.102474 -109.637618 
L -1354.752304 -107.295073 
L -1356.936664 -114.13684 
L -1331.377514 -112.732858 
L -1312.944017 -103.921221 
L -1322.279639 -99.817367 
L -1337.71375 -98.843025 
L -1337.946789 -89.642706 
L -1341.716197 -87.683289 
L -1350.534142 -87.964914 
L -1357.709697 -91.247715 
L -1370.228973 -93.993631 
L -1372.334617 -98.078089 
L -1381.896312 -99.618223 
L -1392.604563 -98.396812 
L -1397.720988 -101.691572 
L -1395.675793 -105.191124 
L -1406.952661 -102.954412 
L -1402.70531 -98.524772 
z
" clip-path="url(#pa502c29ff9)" style="fill: #e8edf4; stroke: #b8c5d4; stroke-width: 0.45"/>
    <path d="M 1620.002594 28.292915 
L 1620.835606 15.425994 
L 1629.539413 11.093067 
L 1625.799618 6.730459 
L 1629.989979 5.408442 
L 1635.6965 20.710171 
L 1635.455647 29.976212 
L 1639.341901 39.477268 
L 1648.815466 56.154537 
L 1634.878086 53.045826 
L 1629.084955 66.651364 
L 1638.263656 76.301068 
L 1637.997988 82.880986 
L 1630.864836 77.204633 
L 1624.691206 84.492514 
L 1622.948303 76.591065 
L 1623.998327 67.418202 
L 1622.924948 57.258084 
L 1625.103333 50.140016 
L 1625.519352 37.549468 
z
" clip-path="url(#pa502c29ff9)" style="fill: #e8edf4; stroke: #b8c5d4; stroke-width: 0.45"/>
    <path d="M 592.368489 90.511901 
L 594.031594 88.706718 
L 603.045834 85.577084 
L 601.613002 84.443909 
L 604.093805 82.112047 
L 613.816091 84.502773 
L 615.038017 86.362227 
L 616.458542 86.649004 
L 616.535081 87.463525 
L 621.141462 89.734845 
L 630.745428 89.169935 
L 628.906671 92.529231 
L 618.599121 94.160221 
L 605.817351 99.607399 
L 600.581345 97.69225 
L 602.657549 93.267847 
z
" clip-path="url(#pa502c29ff9)" style="fill: #e8edf4; stroke: #b8c5d4; stroke-width: 0.45"/>
    <path d="M 709.05585 -241.509537 
L 727.437096 -243.224218 
L 741.742811 -243.338076 
L 743.666719 -240.801087 
L 749.074971 -243.055377 
L 757.950051 -244.60803 
L 771.915166 -242.544476 
L 768.273658 -241.109088 
L 747.165661 -239.15331 
L 745.852402 -237.608199 
L 734.847107 -236.051897 
L 724.64709 -238.284048 
L 730.010577 -241.223432 
z
" clip-path="url(#pa502c29ff9)" style="fill: #e8edf4; stroke: #b8c5d4; stroke-width: 0.45"/>
    <path d="M 1145.326298 -239.171136 
L 1169.775142 -245.603412 
L 1190.143623 -247.729489 
L 1208.438003 -242.989364 
L 1230.120641 -233.88584 
L 1227.795939 -225.419244 
L 1207.252466 -224.244723 
L 1181.026305 -226.961591 
L 1165.398889 -230.556101 
L 1158.172489 -237.309925 
z
" clip-path="url(#pa502c29ff9)" style="fill: #e8edf4; stroke: #b8c5d4; stroke-width: 0.45"/>
    <path d="M 1576.504783 -191.3411 
L 1581.564525 -197.814428 
L 1593.986866 -199.580729 
L 1618.849532 -199.16766 
L 1652.884364 -194.174817 
L 1645.4809 -187.182445 
L 1610.772654 -187.443073 
L 1595.157856 -185.219073 
z
" clip-path="url(#pa502c29ff9)" style="fill: #e8edf4; stroke: #b8c5d4; stroke-width: 0.45"/>
    <path d="M 471.907759 4.841585 
L 474.053057 0.697934 
L 487.046486 -2.355794 
L 496.907363 -0.706314 
L 501.069503 0.788193 
L 500.064731 3.366541 
L 500.818432 5.769478 
L 483.504239 5.910828 
z
" clip-path="url(#pa502c29ff9)" style="fill: #e8edf4; stroke: #b8c5d4; stroke-width: 0.45"/>
    <path d="M 1603.704344 -173.528006 
L 1612.636031 -177.249393 
L 1624.409109 -178.120538 
L 1637.786631 -174.520614 
L 1638.926125 -172.046061 
L 1624.649776 -171.980151 
z
" clip-path="url(#pa502c29ff9)" style="fill: #e8edf4; stroke: #b8c5d4; stroke-width: 0.45"/>
    <path d="M 1223.07281 -216.380688 
L 1240.273127 -228.743475 
L 1248.007695 -229.801993 
L 1255.083303 -229.18884 
L 1278.948606 -223.841164 
L 1276.152504 -220.014132 
z
" clip-path="url(#pa502c29ff9)" style="fill: #e8edf4; stroke: #b8c5d4; stroke-width: 0.45"/>
    <path d="M -1408.047053 -149.634307 
L -1408.047053 -156.070115 
L -1398.860388 -156.445009 
L -1385.241587 -153.751634 
L -1386.047858 -152.464407 
L -1395.748011 -150.20698 
z
" clip-path="url(#pa502c29ff9)" style="fill: #e8edf4; stroke: #b8c5d4; stroke-width: 0.45"/>
    <path d="M 1662.60994 -190.506017 
L 1664.863082 -193.555214 
L 1706.039902 -189.668768 
L 1695.157695 -185.948229 
L 1680.106994 -186.790326 
z
" clip-path="url(#pa502c29ff9)" style="fill: #e8edf4; stroke: #b8c5d4; stroke-width: 0.45"/>
    <path d="M 1969.620943 -152.144554 
L 1981.6232 -156.070115 
L 1981.6232 -149.634307 
L 1971.298124 -149.153546 
z
" clip-path="url(#pa502c29ff9)" style="fill: #e8edf4; stroke: #b8c5d4; stroke-width: 0.45"/>
    <path d="M 243.547652 58.906104 
L 255.755511 56.857878 
L 271.567411 59.280278 
L 268.582776 48.622397 
L 277.47148 52.661434 
L 299.393514 45.319057 
L 302.220499 37.603478 
L 310.455251 35.70244 
L 311.819113 39.013565 
L 316.195832 39.168781 
L 327.144197 47.387476 
L 331.976348 46.654211 
L 342.319904 51.764195 
L 345.036924 51.565186 
L 349.480304 54.030649 
L 363.048862 55.764793 
L 358.288237 62.212364 
L 357.093215 68.920494 
L 354.508056 70.528859 
L 350.217947 69.662274 
L 350.520595 72.05475 
L 343.634623 77.345739 
L 343.495463 81.609086 
L 347.991392 80.133799 
L 351.225639 84.262852 
L 350.837354 86.92343 
L 353.608384 90.458865 
L 350.34397 93.326723 
L 352.769533 100.612171 
L 357.873191 101.806707 
L 356.79592 105.893671 
L 348.265819 111.213124 
L 329.695297 108.663728 
L 315.980767 111.718673 
L 314.903495 117.388701 
L 303.988703 118.609268 
L 293.394076 114.350057 
L 289.971039 116.385632 
L 272.638357 112.106471 
L 268.885424 108.445744 
L 273.754554 102.798098 
L 275.547573 84.039029 
L 265.831209 74.157716 
L 258.886604 69.393686 
L 244.496712 65.772128 
z
" clip-path="url(#pa502c29ff9)" style="fill: #e8edf4; stroke: #b8c5d4; stroke-width: 0.45"/>
    <path d="M -226.603419 495.53623 
L -224.201941 491.576504 
L -221.72772 483.21865 
L -225.424454 477.639124 
L -226.169153 471.197392 
L -221.267423 463.1018 
L -211.136986 466.366214 
L -201.167604 474.313888 
L -199.608869 478.169974 
L -205.178663 486.786685 
L -208.07012 493.720342 
L -211.678541 497.296892 
L -216.186877 497.969822 
L -217.470942 495.319219 
L -219.57707 494.925582 
L -222.491639 497.478627 
z
" clip-path="url(#pa502c29ff9)" style="fill: #e8edf4; stroke: #b8c5d4; stroke-width: 0.45"/>
    <path d="M 367.23825 119.427196 
L 369.138315 115.928254 
L 375.201981 112.332727 
L 376.802804 120.406667 
L 373.69312 127.680194 
L 369.418094 125.763099 
z
" clip-path="url(#pa502c29ff9)" style="fill: #e8edf4; stroke: #b8c5d4; stroke-width: 0.45"/>
    <path d="M 120.835065 378.614341 
L 124.97677 376.825944 
L 129.538386 370.215615 
L 131.775646 365.380545 
L 134.999675 362.361606 
L 139.679528 363.174426 
L 144.273745 361.122306 
L 149.531403 361.01891 
L 154.030494 363.786777 
L 160.280517 366.28119 
L 172.191323 379.675555 
L 172.623156 385.533157 
L 174.479673 390.925109 
L 178.00416 393.56963 
L 178.809194 397.210652 
L 178.375658 400.143954 
L 177.016418 400.675047 
L 171.882349 399.930592 
L 171.175846 400.977695 
L 169.100128 401.188138 
L 162.332393 398.892733 
L 140.387491 398.400321 
L 137.863153 399.460563 
L 134.745197 399.157428 
L 129.757344 400.691347 
L 128.212476 393.473776 
L 136.782962 393.672541 
L 144.222655 390.101829 
L 148.261692 392.091424 
L 152.352793 392.257345 
L 156.42735 390.143917 
L 154.525095 387.422518 
L 151.42052 389.008014 
L 148.498653 388.963979 
L 144.782213 386.646435 
L 141.797091 386.798246 
L 139.67077 389.02772 
L 129.41577 389.297281 
L 125.532922 381.966582 
z
" clip-path="url(#pa502c29ff9)" style="fill: #e8edf4; stroke: #b8c5d4; stroke-width: 0.45"/>
    <path d="M 172.191323 379.675555 
L 175.360126 377.959415 
L 176.943189 372.412489 
L 179.927824 372.195478 
L 186.502877 374.81786 
L 191.812842 372.955991 
L 195.45289 373.580993 
L 196.865409 371.487029 
L 234.646054 371.343976 
L 236.740748 364.751407 
L 235.109514 363.590932 
L 226.020828 282.318986 
L 240.431156 282.149659 
L 303.95513 323.237779 
L 306.193849 327.649774 
L 316.416249 331.874196 
L 316.524268 337.864632 
L 326.969031 336.942821 
L 326.995306 358.62765 
L 321.846884 364.916841 
L 321.045012 370.718487 
L 312.681319 372.211778 
L 299.833862 373.021191 
L 296.352436 376.36735 
L 284.281061 376.78045 
L 281.930917 374.97405 
L 276.747461 376.314313 
L 267.946826 380.22003 
L 266.1504 383.163306 
L 258.845002 387.384079 
L 257.564344 389.80283 
L 253.618242 391.719925 
L 249.064897 390.450458 
L 246.484847 392.748296 
L 245.102981 399.205599 
L 237.628986 407.009247 
L 237.846484 410.198486 
L 235.278598 414.189596 
L 235.90214 419.65575 
L 229.818526 422.239206 
L 228.361241 418.21209 
L 225.642518 419.273791 
L 224.018339 419.09011 
L 222.285412 421.837784 
L 215.014074 421.760176 
L 212.407505 420.34644 
L 211.180126 421.201834 
L 208.30424 418.48749 
L 208.803463 415.683616 
L 207.626931 414.585179 
L 205.62128 415.51137 
L 205.988642 412.44791 
L 207.918875 410.024293 
L 204.060356 406.079894 
L 202.93832 403.483057 
L 200.846058 401.414394 
L 198.961563 401.167459 
L 191.074955 405.783084 
L 187.044919 405.030843 
L 184.431052 402.64007 
L 182.870614 402.325987 
L 178.919646 403.591562 
L 178.375658 400.143954 
L 178.809194 397.210652 
L 178.00416 393.56963 
L 174.479673 390.925109 
L 172.623156 385.533157 
z
" clip-path="url(#pa502c29ff9)" style="fill: #e8edf4; stroke: #b8c5d4; stroke-width: 0.45"/>
    <path d="M 126.123134 319.575592 
L 128.17793 316.434767 
L 165.050873 316.493642 
L 163.265152 302.89589 
L 165.567613 298.059847 
L 174.390144 297.214671 
L 174.087009 273.122038 
L 204.990682 273.614449 
L 205.01793 259.352525 
L 240.431156 282.149659 
L 226.020828 282.318986 
L 235.109514 363.590932 
L 236.740748 364.751407 
L 234.646054 371.343976 
L 196.865409 371.487029 
L 195.45289 373.580993 
L 191.812842 372.955991 
L 186.502877 374.81786 
L 179.927824 372.195478 
L 176.943189 372.412489 
L 175.360126 377.959415 
L 172.191323 379.675555 
L 160.280517 366.28119 
L 154.030494 363.786777 
L 149.531403 361.01891 
L 144.273745 361.122306 
L 139.679528 363.174426 
L 134.999675 362.361606 
L 131.775646 365.380545 
L 130.960151 360.306811 
L 133.588615 355.664181 
L 134.758091 346.799075 
L 132.580193 332.813524 
L 133.520008 328.117857 
L 131.086173 323.642121 
z
" clip-path="url(#pa502c29ff9)" style="fill: #e8edf4; stroke: #b8c5d4; stroke-width: 0.45"/>
    <path d="M 294.060193 418.713503 
L 295.258135 413.755817 
L 298.496274 412.690223 
L 300.414342 408.573577 
L 305.016831 407.693854 
L 310.234833 402.120654 
L 313.610186 402.096325 
L 320.790048 407.514796 
L 320.423173 410.64297 
L 322.540736 416.228334 
L 320.685435 420.018733 
L 321.677556 422.551343 
L 314.209643 431.266584 
L 312.434627 437.205687 
L 312.132466 458.37256 
L 304.350713 459.470997 
L 302.031709 452.975255 
L 302.460379 431.351491 
L 300.56372 429.411527 
L 300.206089 424.790549 
z
" clip-path="url(#pa502c29ff9)" style="fill: #e8edf4; stroke: #b8c5d4; stroke-width: 0.45"/>
    <path d="M 289.571806 381.300707 
L 290.317965 376.737145 
L 296.352436 376.36735 
L 299.833862 373.021191 
L 312.681319 372.211778 
L 321.045012 370.718487 
L 321.846884 364.916841 
L 326.995306 358.62765 
L 326.969031 336.942821 
L 340.246619 332.743944 
L 367.508298 314.247138 
L 399.772427 296.300644 
L 414.667382 300.360361 
L 419.963236 305.531653 
L 426.624212 302.032185 
L 428.936604 316.668322 
L 432.459718 319.117065 
L 432.611199 322.111607 
L 436.52908 325.339285 
L 434.481097 329.39219 
L 430.853213 348.498915 
L 430.356909 360.745456 
L 418.346543 369.623905 
L 414.281043 382.026673 
L 418.200871 385.514668 
L 418.179948 391.571278 
L 424.218311 391.788046 
L 423.276794 396.223153 
L 420.619135 396.763248 
L 420.316001 399.761021 
L 418.564827 399.969031 
L 412.193648 389.660751 
L 409.983636 389.28609 
L 402.621309 394.549101 
L 395.330994 391.80167 
L 390.263343 391.252329 
L 387.546322 392.574347 
L 382.026645 392.288729 
L 376.472421 396.301248 
L 371.670438 396.531397 
L 360.274912 391.6647 
L 355.812557 393.976162 
L 351.007654 393.815593 
L 347.476598 390.259478 
L 338.038554 386.745939 
L 327.919307 387.861163 
L 325.467469 389.897469 
L 324.143019 395.312533 
L 321.444002 399.109014 
L 320.790048 407.514796 
L 313.610186 402.096325 
L 310.234833 402.120654 
L 307.074059 404.878546 
L 307.287178 398.430002 
L 296.430774 396.294436 
L 296.138344 391.737929 
L 290.836165 385.5896 
z
" clip-path="url(#pa502c29ff9)" style="fill: #e8edf4; stroke: #b8c5d4; stroke-width: 0.45"/>
    <path d="M 312.132466 458.37256 
L 312.434627 437.205687 
L 314.209643 431.266584 
L 321.677556 422.551343 
L 320.685435 420.018733 
L 322.540736 416.228334 
L 320.423173 410.64297 
L 321.444002 399.109014 
L 324.143019 395.312533 
L 325.467469 389.897469 
L 327.919307 387.861163 
L 338.038554 386.745939 
L 347.476598 390.259478 
L 351.007654 393.815593 
L 355.812557 393.976162 
L 360.274912 391.6647 
L 371.670438 396.531397 
L 376.472421 396.301248 
L 382.026645 392.288729 
L 387.546322 392.574347 
L 390.263343 391.252329 
L 395.330994 391.80167 
L 402.621309 394.549101 
L 409.983636 389.28609 
L 412.193648 389.660751 
L 418.564827 399.969031 
L 420.316001 399.761021 
L 424.043145 403.511278 
L 422.519687 408.341482 
L 414.587584 415.627417 
L 410.77091 426.530288 
L 408.77353 428.628632 
L 406.873465 435.219742 
L 401.837927 439.098454 
L 400.379183 443.862971 
L 398.264053 447.655316 
L 397.383357 451.569061 
L 390.914863 454.741756 
L 385.628741 450.872533 
L 382.059246 451.028722 
L 376.451499 456.539641 
L 373.725233 456.624305 
L 366.824664 472.372221 
L 357.049424 475.760711 
L 353.476036 475.265624 
L 349.855451 477.375645 
L 342.323797 477.169825 
L 337.282907 471.280109 
L 334.182954 464.464689 
L 327.516912 458.261135 
z
" clip-path="url(#pa502c29ff9)" style="fill: #e8edf4; stroke: #b8c5d4; stroke-width: 0.45"/>
    <path d="M 366.716644 474.97441 
L 366.824664 472.372221 
L 369.246821 465.708855 
L 373.725233 456.624305 
L 376.451499 456.539641 
L 382.059246 451.028722 
L 385.628741 450.872533 
L 390.914863 454.741756 
L 397.383357 451.569061 
L 398.264053 447.655316 
L 400.379183 443.862971 
L 401.837927 439.098454 
L 406.873465 435.219742 
L 408.77353 428.628632 
L 410.77091 426.530288 
L 414.587584 415.627417 
L 422.519687 408.341482 
L 424.043145 403.511278 
L 420.316001 399.761021 
L 420.619135 396.763248 
L 423.276794 396.223153 
L 427.020238 402.252494 
L 427.649133 408.499618 
L 427.30464 414.75402 
L 432.429707 423.312828 
L 427.170833 423.220623 
L 424.514147 423.89112 
L 420.223065 422.945223 
L 418.177515 427.388359 
L 423.735145 432.883708 
L 427.835977 434.482098 
L 432.130465 444.870419 
L 425.920342 456.963203 
L 423.660699 458.672532 
L 422.934247 465.971604 
L 423.871385 469.937169 
L 423.112819 472.742989 
L 427.562524 477.660046 
L 428.365368 481.040508 
L 431.841441 485.899664 
L 436.147607 488.929307 
L 437.5611 495.952493 
L 436.883791 501.036688 
L 421.789342 496.32691 
L 408.734604 495.444268 
L 403.160918 496.65705 
L 397.438826 495.395854 
L 392.964306 496.014531 
L 377.642141 495.799709 
L 379.017195 488.365612 
L 375.337248 482.140648 
L 371.0413 480.543718 
L 369.128097 476.324648 
z
" clip-path="url(#pa502c29ff9)" style="fill: #e8edf4; stroke: #b8c5d4; stroke-width: 0.45"/>
    <path d="M 286.319313 416.490353 
L 287.012192 413.554862 
L 295.258135 413.755817 
L 294.060193 418.713503 
L 300.206089 424.790549 
L 300.56372 429.411527 
L 302.460379 431.351491 
L 302.031709 452.975255 
L 304.350713 459.470997 
L 296.769915 461.479568 
L 292.158668 452.200145 
L 291.410807 447.516886 
L 293.492363 439.035929 
L 291.130541 435.601458 
L 290.249115 421.346103 
z
" clip-path="url(#pa502c29ff9)" style="fill: #e8edf4; stroke: #b8c5d4; stroke-width: 0.45"/>
    <path d="M 256.239894 458.451141 
L 258.695381 447.818561 
L 262.663136 439.910056 
L 258.880765 419.424142 
L 259.101912 414.082063 
L 275.457557 413.638309 
L 279.617265 414.32462 
L 282.657369 412.804811 
L 287.012192 413.554862 
L 286.319313 416.490353 
L 290.249115 421.346103 
L 291.130541 435.601458 
L 293.492363 439.035929 
L 291.410807 447.516886 
L 292.158668 452.200145 
L 296.769915 461.479568 
L 282.008282 466.991217 
L 276.773249 470.220111 
L 268.288886 472.951485 
L 259.895512 470.277283 
L 260.323209 466.56206 
z
" clip-path="url(#pa502c29ff9)" style="fill: #e8edf4; stroke: #b8c5d4; stroke-width: 0.45"/>
    <path d="M 205.785498 456.40705 
L 207.832751 452.224231 
L 206.891234 447.672589 
L 207.325743 444.93416 
L 208.819034 444.923455 
L 209.373726 440.816784 
L 208.646301 438.998463 
L 209.545973 437.689583 
L 213.042969 436.557329 
L 210.717153 429.019836 
L 208.546796 425.12823 
L 209.302687 421.931693 
L 212.407505 420.34644 
L 215.014074 421.760176 
L 222.285412 421.837784 
L 224.018339 419.09011 
L 225.642518 419.273791 
L 228.361241 418.21209 
L 229.818526 422.239206 
L 235.90214 419.65575 
L 240.136293 421.708599 
L 241.781881 424.822663 
L 246.015548 426.810797 
L 249.309156 424.44265 
L 253.720908 424.085019 
L 260.165073 426.513015 
L 262.663136 439.910056 
L 258.695381 447.818561 
L 256.239894 458.451141 
L 260.323209 466.56206 
L 259.895512 470.277283 
L 255.611729 470.373138 
L 249.042028 468.532191 
L 243.005611 468.64094 
L 231.851912 470.284582 
L 215.991598 476.45578 
L 214.172303 476.208358 
L 214.89535 468.45361 
L 215.795995 467.274888 
L 215.509404 463.565017 
L 211.521457 459.621348 
L 208.530496 458.991966 
z
" clip-path="url(#pa502c29ff9)" style="fill: #e8edf4; stroke: #b8c5d4; stroke-width: 0.45"/>
    <path d="M 144.324835 413.350258 
L 148.511304 408.760908 
L 151.368943 408.935587 
L 153.824431 407.3552 
L 155.901609 407.340116 
L 157.385898 406.092058 
L 156.584513 402.971912 
L 157.615803 401.987576 
L 157.787807 398.795661 
L 162.332393 398.892733 
L 169.100128 401.188138 
L 171.175846 400.977695 
L 171.882349 399.930592 
L 177.016418 400.675047 
L 178.375658 400.143954 
L 178.919646 403.591562 
L 182.870614 402.325987 
L 184.431052 402.64007 
L 187.044919 405.030843 
L 191.074955 405.783084 
L 198.961563 401.167459 
L 200.846058 401.414394 
L 202.93832 403.483057 
L 204.060356 406.079894 
L 207.918875 410.024293 
L 205.988642 412.44791 
L 205.62128 415.51137 
L 207.626931 414.585179 
L 208.803463 415.683616 
L 208.30424 418.48749 
L 211.180126 421.201834 
L 209.302687 421.931693 
L 208.546796 425.12823 
L 210.717153 429.019836 
L 213.042969 436.557329 
L 209.545973 437.689583 
L 208.646301 438.998463 
L 209.373726 440.816784 
L 208.819034 444.923455 
L 204.662732 444.69282 
L 202.742474 448.483949 
L 200.080437 448.437968 
L 198.248492 446.432559 
L 198.870574 442.650919 
L 194.934204 436.883576 
L 187.871119 438.692895 
L 187.976218 435.240664 
L 186.465411 432.777148 
L 186.770249 430.039692 
L 182.108642 422.714588 
L 174.577961 422.704126 
L 172.383519 424.478169 
L 169.788628 424.692261 
L 167.09545 429.335378 
L 162.061859 433.475136 
L 154.270375 424.21834 
L 149.509264 421.127145 
L 148.440264 416.966951 
L 147.062534 414.892936 
z
" clip-path="url(#pa502c29ff9)" style="fill: #e8edf4; stroke: #b8c5d4; stroke-width: 0.45"/>
    <path d="M 129.757344 400.691347 
L 134.745197 399.157428 
L 137.863153 399.460563 
L 140.387491 398.400321 
L 157.787807 398.795661 
L 157.615803 401.987576 
L 156.584513 402.971912 
L 157.385898 406.092058 
L 155.901609 407.340116 
L 153.824431 407.3552 
L 151.368943 408.935587 
L 148.511304 408.760908 
L 144.324835 413.350258 
L 139.298055 409.413888 
L 135.333707 408.791318 
L 133.172109 406.136823 
L 133.227091 404.703867 
L 130.356314 402.705757 
z
" clip-path="url(#pa502c29ff9)" style="fill: #e8edf4; stroke: #b8c5d4; stroke-width: 0.45"/>
    <path d="M 162.061859 433.475136 
L 167.09545 429.335378 
L 169.788628 424.692261 
L 172.383519 424.478169 
L 174.577961 422.704126 
L 182.108642 422.714588 
L 186.770249 430.039692 
L 186.465411 432.777148 
L 187.976218 435.240664 
L 187.871119 438.692895 
L 190.464063 438.153287 
L 181.833485 447.658479 
L 181.333532 450.397151 
L 179.083378 453.409521 
L 176.546632 452.711046 
L 169.768192 448.917971 
L 164.863056 443.873918 
L 163.215522 440.434338 
z
" clip-path="url(#pa502c29ff9)" style="fill: #e8edf4; stroke: #b8c5d4; stroke-width: 0.45"/>
    <path d="M 235.278598 414.189596 
L 237.846484 410.198486 
L 237.628986 407.009247 
L 245.102981 399.205599 
L 246.484847 392.748296 
L 249.064897 390.450458 
L 253.618242 391.719925 
L 257.564344 389.80283 
L 258.845002 387.384079 
L 266.1504 383.163306 
L 267.946826 380.22003 
L 276.747461 376.314313 
L 281.930917 374.97405 
L 284.281061 376.78045 
L 290.317965 376.737145 
L 289.571806 381.300707 
L 290.836165 385.5896 
L 296.138344 391.737929 
L 296.430774 396.294436 
L 307.287178 398.430002 
L 307.074059 404.878546 
L 305.016831 407.693854 
L 300.414342 408.573577 
L 298.496274 412.690223 
L 295.258135 413.755817 
L 282.657369 412.804811 
L 279.617265 414.32462 
L 275.457557 413.638309 
L 259.101912 414.082063 
L 258.880765 419.424142 
L 260.165073 426.513015 
L 253.720908 424.085019 
L 249.309156 424.44265 
L 246.015548 426.810797 
L 241.781881 424.822663 
L 240.136293 421.708599 
L 235.90214 419.65575 
z
" clip-path="url(#pa502c29ff9)" style="fill: #e8edf4; stroke: #b8c5d4; stroke-width: 0.45"/>
    <path d="M 422.934247 465.971604 
L 423.660699 458.672532 
L 425.920342 456.963203 
L 430.655664 447.421031 
L 438.440336 446.713312 
L 440.17594 444.291398 
L 441.735405 444.475322 
L 444.087496 446.607482 
L 455.941372 443.005143 
L 464.84954 436.03767 
L 463.917267 432.723139 
L 466.572493 431.857526 
L 475.665071 432.44263 
L 484.527015 428.080508 
L 491.334163 417.807262 
L 496.110844 413.995453 
L 502.071356 412.390008 
L 503.138896 416.419314 
L 508.56953 422.30611 
L 508.597265 426.148086 
L 507.067481 430.066453 
L 507.672291 432.9927 
L 523.264017 443.624793 
L 523.350627 446.685091 
L 529.68288 451.588524 
L 533.607086 455.662838 
L 535.984479 461.311214 
L 543.022749 465.037628 
L 544.536962 468.022507 
L 541.428251 469.02144 
L 528.306367 467.814011 
L 524.806938 468.620748 
L 523.394905 470.910314 
L 520.346042 471.192769 
L 516.631548 469.200985 
L 506.148832 473.900301 
L 501.85775 472.954648 
L 500.564441 473.680371 
L 497.749133 479.366456 
L 483.837055 476.601751 
L 477.84005 473.128354 
L 470.091871 469.928411 
L 465.050008 472.960487 
L 461.384171 477.741061 
L 460.537535 484.307599 
L 454.481655 483.7821 
L 448.10853 482.200254 
L 442.49689 487.190054 
L 437.5611 495.952493 
L 436.147607 488.929307 
L 431.841441 485.899664 
L 428.365368 481.040508 
L 427.562524 477.660046 
L 423.112819 472.742989 
L 423.871385 469.937169 
z
" clip-path="url(#pa502c29ff9)" style="fill: #e8edf4; stroke: #b8c5d4; stroke-width: 0.45"/>
    <path d="M 128.212476 393.473776 
L 129.41577 389.297281 
L 139.67077 389.02772 
L 141.797091 386.798246 
L 144.782213 386.646435 
L 148.498653 388.963979 
L 151.42052 389.008014 
L 154.525095 387.422518 
L 156.42735 390.143917 
L 152.352793 392.257345 
L 148.261692 392.091424 
L 144.222655 390.101829 
L 136.782962 393.672541 
z
" clip-path="url(#pa502c29ff9)" style="fill: #e8edf4; stroke: #b8c5d4; stroke-width: 0.45"/>
    <path d="M 357.636717 196.251627 
L 363.441526 190.999807 
L 365.657863 183.234355 
L 364.165059 174.258311 
L 366.077775 169.425674 
L 376.331802 165.625786 
L 382.922912 166.755607 
L 382.646538 171.519638 
L 390.633138 168.054026 
L 391.303148 169.862859 
L 386.595073 174.476538 
L 386.531819 178.831848 
L 389.791854 181.171288 
L 388.552068 189.320403 
L 382.354108 194.054022 
L 384.143722 199.185901 
L 389.013338 199.345984 
L 391.382946 203.822207 
L 394.963632 205.294331 
L 394.431322 212.5265 
L 389.841485 215.229653 
L 386.942486 218.246402 
L 380.476912 221.874773 
L 381.478278 225.775137 
L 380.663269 229.753353 
L 376.069539 231.93563 
L 372.053371 215.033078 
L 366.248562 211.232948 
L 366.167304 208.953842 
L 358.466809 203.344149 
z
" clip-path="url(#pa502c29ff9)" style="fill: #e8edf4; stroke: #b8c5d4; stroke-width: 0.45"/>
    <path d="M 205.01793 259.352525 
L 205.114758 245.741636 
L 220.320146 238.793382 
L 229.722671 237.35775 
L 237.429491 234.82733 
L 241.030857 230.112443 
L 252.039801 226.386029 
L 252.444142 219.415149 
L 257.89132 218.594058 
L 262.150775 215.11166 
L 274.473221 213.524704 
L 276.19958 209.865436 
L 273.718548 207.86465 
L 270.466298 197.924463 
L 269.905766 192.197749 
L 266.356707 186.16717 
L 275.40817 181.02191 
L 285.587995 179.385324 
L 291.53245 175.500287 
L 300.600213 172.634375 
L 332.132051 170.192025 
L 336.880998 171.590434 
L 345.747807 167.879346 
L 355.809151 167.806604 
L 359.638476 169.997396 
L 366.077775 169.425674 
L 364.165059 174.258311 
L 365.657863 183.234355 
L 363.441526 190.999807 
L 357.636717 196.251627 
L 358.466809 203.344149 
L 366.167304 208.953842 
L 366.248562 211.232948 
L 372.053371 215.033078 
L 376.069539 231.93563 
L 379.115482 240.248963 
L 379.627357 244.623979 
L 377.969118 252.305497 
L 378.649346 256.598282 
L 377.452865 261.751571 
L 378.274199 267.671697 
L 374.537323 271.606365 
L 380.104684 278.469225 
L 380.458422 282.503884 
L 383.806527 287.754487 
L 388.208548 286.029344 
L 395.640454 290.404117 
L 399.772427 296.300644 
L 367.508298 314.247138 
L 340.246619 332.743944 
L 326.969031 336.942821 
L 316.524268 337.864632 
L 316.416249 331.874196 
L 306.193849 327.649774 
L 303.95513 323.237779 
z
" clip-path="url(#pa502c29ff9)" style="fill: #e8edf4; stroke: #b8c5d4; stroke-width: 0.45"/>
    <path d="M 419.310256 18.445663 
L 421.935314 15.932516 
L 419.73552 11.141238 
L 426.168494 8.376047 
L 452.720263 0.835634 
L 462.117436 2.426239 
L 462.827345 4.722618 
L 483.504239 5.910828 
L 500.818432 5.769478 
L 505.647663 6.776683 
L 507.908765 9.677385 
L 508.317486 13.842688 
L 510.929406 17.424347 
L 510.875397 21.177767 
L 505.228724 23.099728 
L 508.133561 27.462336 
L 508.313107 31.654157 
L 513.048429 39.874555 
L 512.038791 42.515913 
L 507.366237 43.611674 
L 498.816186 51.443057 
L 501.245156 55.67429 
L 490.241807 51.505825 
L 483.463854 52.8366 
L 479.018528 51.869781 
L 473.455546 53.88784 
L 468.707086 50.55044 
L 464.835916 51.828422 
L 459.971165 46.623557 
L 452.970848 46.054754 
L 452.077501 43.106612 
L 445.620199 42.053669 
L 444.214491 44.485071 
L 439.099642 42.537322 
L 439.686935 39.946811 
L 432.647205 39.127666 
L 428.184363 36.09632 
L 424.324871 30.084231 
L 425.058622 26.838063 
L 422.728913 21.801553 
z
" clip-path="url(#pa502c29ff9)" style="fill: #e8edf4; stroke: #b8c5d4; stroke-width: 0.45"/>
    <path d="M 376.049103 73.795706 
L 377.489357 71.490813 
L 377.124915 69.819923 
L 379.966984 69.300751 
L 384.731501 71.915591 
L 386.072495 69.430665 
L 394.376339 69.832088 
L 401.108069 68.143681 
L 405.622001 68.432705 
L 408.558465 70.360505 
L 409.436242 68.760412 
L 408.101574 62.625464 
L 411.484225 61.429955 
L 414.804109 57.088756 
L 421.79956 60.119373 
L 427.096387 56.267422 
L 430.410432 55.564325 
L 437.719236 58.437778 
L 442.141206 57.949016 
L 446.481918 59.726952 
L 445.725785 60.92246 
L 446.664383 64.185172 
L 445.949608 68.032743 
L 440.646942 68.051233 
L 442.470615 70.091917 
L 439.344874 76.153636 
L 437.549909 77.742782 
L 429.315157 77.97731 
L 424.563778 80.113606 
L 403.321973 76.952345 
L 401.21852 73.677226 
L 391.91331 75.313812 
L 390.818522 77.104885 
L 380.309531 75.510144 
z
" clip-path="url(#pa502c29ff9)" style="fill: #e8edf4; stroke: #b8c5d4; stroke-width: 0.45"/>
    <path d="M 439.344874 76.153636 
L 442.470615 70.091917 
L 440.646942 68.051233 
L 445.949608 68.032743 
L 446.664383 64.185172 
L 454.926382 67.622562 
L 462.829778 66.468899 
L 463.587858 64.578079 
L 477.353964 62.263697 
L 479.56203 60.048333 
L 482.647872 59.473934 
L 492.731598 62.335223 
L 494.740656 61.372053 
L 499.96839 63.93337 
L 500.624776 66.457221 
L 494.873977 68.432219 
L 490.417947 74.817995 
L 484.725536 81.203285 
L 477.176365 82.979274 
L 471.299544 82.562525 
L 460.565757 86.444156 
L 452.788383 84.63362 
L 442.75818 79.436297 
L 440.928667 76.257763 
z
" clip-path="url(#pa502c29ff9)" style="fill: #e8edf4; stroke: #b8c5d4; stroke-width: 0.45"/>
    <path d="M 477.176365 82.979274 
L 484.725536 81.203285 
L 490.417947 74.817995 
L 494.873977 68.432219 
L 504.689602 64.440865 
L 510.515333 65.48359 
L 516.55175 65.518623 
L 520.923117 67.819381 
L 524.137901 66.373774 
L 531.088588 65.468993 
L 533.456736 63.268226 
L 537.429113 63.269686 
L 540.299403 64.187361 
L 551.634594 76.548247 
L 551.935782 80.680949 
L 550.941715 84.701254 
L 552.628175 88.997688 
L 556.829727 90.732562 
L 561.254617 89.217619 
L 565.525263 90.833526 
L 565.744221 93.262009 
L 561.178225 95.288096 
L 558.318152 94.406184 
L 555.683849 105.76546 
L 550.147629 104.776745 
L 543.295716 101.353951 
L 532.21111 103.54304 
L 527.541961 105.944518 
L 513.71406 105.449188 
L 506.479215 103.980712 
L 502.830895 104.670185 
L 498.397734 99.157806 
L 500.579525 97.568661 
L 498.256628 96.396265 
L 495.300701 98.506286 
L 489.810704 95.770776 
L 489.071601 91.889388 
L 483.335399 89.674754 
L 482.279537 86.678684 
z
" clip-path="url(#pa502c29ff9)" style="fill: #e8edf4; stroke: #b8c5d4; stroke-width: 0.45"/>
    <path d="M 343.175785 29.082135 
L 348.832189 29.078243 
L 351.218827 25.534049 
L 353.565079 16.91296 
L 351.805147 13.729316 
L 353.643904 11.735343 
L 361.513726 11.223468 
L 363.260034 13.299673 
L 369.653595 8.657772 
L 367.500999 5.128176 
L 367.068923 -0.21147 
L 374.185531 1.030263 
L 380.21027 -0.403179 
L 380.376678 3.235653 
L 389.891601 5.429851 
L 389.791368 8.77163 
L 399.365166 7.003426 
L 404.658587 4.424592 
L 415.289221 8.142492 
L 419.73552 11.141238 
L 421.935314 15.932516 
L 419.310256 18.445663 
L 422.728913 21.801553 
L 425.058622 26.838063 
L 424.324871 30.084231 
L 428.184363 36.09632 
L 423.982324 37.07871 
L 421.499345 35.996573 
L 419.138009 37.788862 
L 412.376599 39.612535 
L 408.880576 41.958544 
L 402.037908 44.008717 
L 403.686416 46.807238 
L 404.682916 50.777912 
L 409.487818 53.040961 
L 414.804109 57.088756 
L 411.484225 61.429955 
L 408.101574 62.625464 
L 409.436242 68.760412 
L 408.558465 70.360505 
L 405.622001 68.432705 
L 401.108069 68.143681 
L 394.376339 69.832088 
L 386.072495 69.430665 
L 384.731501 71.915591 
L 379.966984 69.300751 
L 377.124915 69.819923 
L 367.034863 66.940874 
L 365.101711 68.986425 
L 357.093215 68.920494 
L 358.288237 62.212364 
L 363.048862 55.764793 
L 349.480304 54.030649 
L 345.036924 51.565186 
L 345.568262 47.437106 
L 343.688146 45.310785 
L 344.757632 38.948851 
z
" clip-path="url(#pa502c29ff9)" style="fill: #e8edf4; stroke: #b8c5d4; stroke-width: 0.45"/>
    <path d="M 476.5156 144.204923 
L 480.893778 139.638198 
L 481.458689 136.578144 
L 484.518743 135.212822 
L 484.707533 132.739087 
L 490.866566 131.905346 
L 494.456011 129.847144 
L 499.558696 130.029609 
L 501.107225 128.388323 
L 509.866732 128.348015 
L 517.404712 125.760423 
L 524.03864 129.050382 
L 532.596962 128.161414 
L 532.699629 123.472316 
L 537.286547 125.965513 
L 534.371492 131.858391 
L 532.133745 132.914253 
L 521.483648 131.756698 
L 510.080824 134.204157 
L 516.607706 139.497092 
L 511.824213 141.031741 
L 506.579936 141.041229 
L 501.598894 136.192048 
L 499.831663 138.258278 
L 501.935602 143.881839 
L 506.646109 148.300646 
L 503.09705 150.363713 
L 508.340841 154.703452 
L 513.001718 157.434097 
L 513.142824 162.753793 
L 504.433178 160.258649 
L 507.210533 165.060876 
L 501.231532 166.049348 
L 504.802487 174.358788 
L 498.548572 174.476538 
L 490.827641 170.380815 
L 487.296585 162.848188 
L 485.649051 156.583568 
L 477.15301 146.88618 
z
" clip-path="url(#pa502c29ff9)" style="fill: #e8edf4; stroke: #b8c5d4; stroke-width: 0.45"/>
    <path d="M 508.199249 185.116417 
L 509.941178 181.114602 
L 515.088627 184.287541 
L 522.417381 183.751095 
L 529.42451 184.419402 
L 529.196794 186.057935 
L 534.328187 184.928114 
L 533.151168 187.705712 
L 519.592341 188.506124 
L 519.686736 186.952498 
z
" clip-path="url(#pa502c29ff9)" style="fill: #e8edf4; stroke: #b8c5d4; stroke-width: 0.45"/>
    <path d="M 468.554302 119.999405 
L 472.636645 115.362127 
L 473.235129 117.133737 
L 475.768781 116.3001 
L 477.774849 118.827009 
L 480.027054 119.791083 
L 480.66071 123.203971 
L 479.464229 126.408294 
L 480.80133 130.446358 
L 484.707533 132.739087 
L 484.518743 135.212822 
L 481.458689 136.578144 
L 480.893778 139.638198 
L 476.5156 144.204923 
L 474.914777 143.545861 
L 474.726473 141.474279 
L 469.510904 138.312774 
L 468.691516 133.826577 
L 469.487062 127.401875 
L 470.772099 124.479034 
L 469.18782 122.995475 
z
" clip-path="url(#pa502c29ff9)" style="fill: #e8edf4; stroke: #b8c5d4; stroke-width: 0.45"/>
    <path d="M 415.378751 92.305894 
L 415.925658 88.884317 
L 422.487573 89.205941 
L 424.211986 87.616796 
L 427.414606 89.153878 
L 431.109636 89.336342 
L 431.074603 86.704959 
L 434.347289 85.741059 
L 435.262532 81.937522 
L 442.75818 79.436297 
L 452.788383 84.63362 
L 460.565757 86.444156 
L 464.08501 85.037525 
L 466.372512 88.684822 
L 469.363959 91.368269 
L 465.738979 94.911238 
L 461.480513 92.827013 
L 454.970174 92.957414 
L 446.876042 91.394057 
L 442.476941 91.602797 
L 440.43577 93.556385 
L 437.057497 91.394057 
L 435.086393 95.302207 
L 441.737837 102.622689 
L 449.65583 108.22411 
L 453.210728 112.157805 
L 461.544407 115.722255 
L 460.508828 117.323014 
L 451.657589 113.839156 
L 446.196787 110.449449 
L 437.584942 107.650928 
L 429.666949 100.721164 
L 431.567014 100.01758 
L 427.273986 96.05761 
L 427.097847 92.879076 
L 421.044886 91.394057 
L 418.159025 95.458396 
z
" clip-path="url(#pa502c29ff9)" style="fill: #e8edf4; stroke: #b8c5d4; stroke-width: 0.45"/>
    <path d="M 343.495463 81.609086 
L 343.634623 77.345739 
L 350.520595 72.05475 
L 350.217947 69.662274 
L 354.508056 70.528859 
L 357.093215 68.920494 
L 365.101711 68.986425 
L 367.034863 66.940874 
L 377.124915 69.819923 
L 377.489357 71.490813 
L 376.049103 73.795706 
L 380.309531 75.510144 
L 385.113947 75.766081 
L 384.367058 79.626304 
L 380.219029 81.214476 
L 373.251798 80.034538 
L 371.212573 83.831749 
L 366.727349 84.130991 
L 365.095385 82.638673 
L 359.816561 85.832048 
L 355.276841 86.279695 
L 351.225639 84.262852 
L 347.991392 80.133799 
z
" clip-path="url(#pa502c29ff9)" style="fill: #e8edf4; stroke: #b8c5d4; stroke-width: 0.45"/>
    <path d="M 340.213532 50.946753 
L 341.233875 45.665983 
L 343.688146 45.310785 
L 345.568262 47.437106 
L 345.036924 51.565186 
L 342.319904 51.764195 
z
" clip-path="url(#pa502c29ff9)" style="fill: #e8edf4; stroke: #b8c5d4; stroke-width: 0.45"/>
    <path d="M 310.455251 35.70244 
L 318.001015 33.844949 
L 324.894287 34.584296 
L 333.621936 32.628032 
L 339.581961 36.749543 
L 344.757632 38.948851 
L 343.688146 45.310785 
L 341.233875 45.665983 
L 340.213532 50.946753 
L 331.976348 46.654211 
L 327.144197 47.387476 
L 316.195832 39.168781 
L 311.819113 39.013565 
z
" clip-path="url(#pa502c29ff9)" style="fill: #e8edf4; stroke: #b8c5d4; stroke-width: 0.45"/>
    <path d="M 318.001015 33.845193 
L 322.853115 31.257844 
L 331.098571 17.404884 
L 343.981062 13.463405 
L 351.805147 13.729316 
L 353.565079 16.91296 
L 351.218827 25.534049 
L 348.832189 29.078243 
L 343.175785 29.082135 
L 344.757632 38.948851 
L 339.581961 36.749543 
L 333.621936 32.628032 
L 324.894287 34.584296 
z
" clip-path="url(#pa502c29ff9)" style="fill: #e8edf4; stroke: #b8c5d4; stroke-width: 0.45"/>
    <path d="M 197.08826 152.562047 
L 197.837581 146.398148 
L 201.591487 142.979977 
L 204.224331 133.512008 
L 204.015591 129.522601 
L 202.133042 126.141166 
L 201.718483 122.967011 
L 205.135194 120.574291 
L 208.977656 119.20167 
L 211.338019 123.811457 
L 216.899542 123.800266 
L 218.511556 122.611326 
L 223.998146 122.940492 
L 226.630017 127.663164 
L 222.279573 130.212317 
L 222.158173 137.558587 
L 220.629119 138.93656 
L 220.250809 143.386751 
L 216.18282 144.161861 
L 219.95473 149.806588 
L 217.35546 155.992869 
L 220.602114 158.79212 
L 219.310021 161.351978 
L 215.820567 164.88279 
L 216.605652 168.000503 
L 212.821578 170.44407 
L 207.857567 169.120106 
L 202.998655 170.156505 
L 204.436963 162.788339 
L 203.552861 156.998614 
L 199.33963 156.130083 
z
" clip-path="url(#pa502c29ff9)" style="fill: #e8edf4; stroke: #b8c5d4; stroke-width: 0.45"/>
    <path d="M 198.347022 112.176051 
L 211.667429 105.380581 
L 223.189463 107.079448 
L 235.831101 107.019843 
L 245.84987 108.627965 
L 268.885424 108.445744 
L 272.638357 112.106471 
L 289.971039 116.385632 
L 293.394076 114.350057 
L 303.988703 118.609268 
L 314.903495 117.388701 
L 315.407098 122.858262 
L 306.484333 129.12945 
L 294.41977 131.119531 
L 293.579946 134.287118 
L 287.792654 139.507066 
L 284.163797 147.171068 
L 287.835959 152.551829 
L 282.389754 156.752652 
L 280.353449 162.873003 
L 273.244626 164.749469 
L 266.577611 171.989424 
L 245.651592 171.954634 
L 239.754334 175.279626 
L 236.158077 178.837444 
L 231.55121 178.056252 
L 228.064919 174.875041 
L 225.395582 169.45876 
L 216.605652 168.000503 
L 215.820567 164.88279 
L 219.310021 161.351978 
L 220.602114 158.79212 
L 217.35546 155.992869 
L 219.95473 149.806588 
L 216.18282 144.161861 
L 220.250809 143.386751 
L 220.629119 138.93656 
L 222.158173 137.558587 
L 222.279573 130.212317 
L 226.630017 127.663164 
L 223.998146 122.940492 
L 218.511556 122.611326 
L 216.899542 123.800266 
L 211.338019 123.811457 
L 208.977656 119.20167 
L 205.135194 120.574291 
L 201.718483 122.967011 
L 202.192891 116.26107 
z
" clip-path="url(#pa502c29ff9)" style="fill: #e8edf4; stroke: #b8c5d4; stroke-width: 0.45"/>
    <path d="M 192.846321 29.375539 
L 200.480642 19.543857 
L 195.563342 9.970545 
L 215.490428 -1.801588 
L 217.431365 3.243194 
L 215.490428 8.28895 
L 221.313483 8.159522 
L 228.430334 10.100459 
L 229.982987 16.82708 
L 222.865892 25.235781 
L 206.174026 30.798763 
z
" clip-path="url(#pa502c29ff9)" style="fill: #e8edf4; stroke: #b8c5d4; stroke-width: 0.45"/>
    <path d="M 350.34397 93.326723 
L 353.608384 90.458865 
L 350.837354 86.92343 
L 351.225639 84.262852 
L 355.276841 86.279695 
L 359.816561 85.832048 
L 365.095385 82.638673 
L 366.727349 84.130991 
L 371.212573 83.831749 
L 373.251798 80.034538 
L 380.219029 81.214476 
L 384.367058 79.626304 
L 385.113947 75.766081 
L 390.818522 77.104885 
L 391.91331 75.313812 
L 401.21852 73.677226 
L 403.321973 76.952345 
L 416.786405 79.38399 
L 415.766062 84.021512 
L 418.021325 88.030382 
L 410.526164 86.658735 
L 402.87092 90.000514 
L 403.391553 94.674528 
L 402.238863 97.357002 
L 405.325192 102.150713 
L 414.154048 106.892848 
L 418.88937 114.677033 
L 429.366734 122.264887 
L 436.745118 122.206741 
L 439.039793 124.287811 
L 436.398192 126.163548 
L 451.744199 132.41503 
L 459.818381 137.325519 
L 460.793472 139.083992 
L 459.034027 142.455695 
L 453.808239 138.059513 
L 445.627984 136.510024 
L 441.665338 142.60045 
L 448.47054 146.090877 
L 447.35337 151.004286 
L 443.419918 151.562627 
L 438.390706 159.63827 
L 434.465526 160.363749 
L 434.502019 157.484943 
L 436.423007 152.434808 
L 438.469531 150.423561 
L 431.918806 140.218678 
L 428.01017 139.045552 
L 425.230382 134.9817 
L 419.179854 133.269938 
L 415.105783 129.485378 
L 408.13904 128.875216 
L 392.168274 118.495897 
L 385.765954 113.072074 
L 382.829003 103.764187 
L 378.144284 102.669399 
L 370.484175 99.561662 
L 366.149301 100.833805 
L 360.708935 105.203469 
L 356.79592 105.893671 
L 357.873191 101.806707 
L 352.769533 100.612171 
z
" clip-path="url(#pa502c29ff9)" style="fill: #e8edf4; stroke: #b8c5d4; stroke-width: 0.45"/>
    <path d="M 403.835307 163.149863 
L 405.152945 158.315523 
L 416.171377 159.176269 
L 432.924065 157.328997 
L 429.533142 164.740225 
L 430.942255 167.657469 
L 428.965798 172.499351 
L 421.765013 168.952968 
L 416.977141 167.937005 
z
" clip-path="url(#pa502c29ff9)" style="fill: #e8edf4; stroke: #b8c5d4; stroke-width: 0.45"/>
    <path d="M 363.620584 131.728963 
L 368.799174 132.199965 
L 373.507249 129.281017 
L 379.156355 135.966036 
L 377.833851 148.419613 
L 373.5525 147.825508 
L 369.711984 150.969009 
L 366.146868 148.471676 
L 365.769775 137.111914 
z
" clip-path="url(#pa502c29ff9)" style="fill: #e8edf4; stroke: #b8c5d4; stroke-width: 0.45"/>
    <path d="M 362.961279 -15.062633 
L 367.230951 -20.429526 
L 375.526524 -21.0139 
L 378.832297 -23.611466 
L 386.40677 -26.267422 
L 386.087578 -21.425053 
L 383.299519 -18.358187 
L 384.42934 -15.721452 
L 389.534457 -14.296281 
L 387.233456 -10.744302 
L 384.42934 -11.767078 
L 377.649926 -4.987664 
L 380.21027 -0.403179 
L 374.185531 1.030263 
L 367.068923 -0.21147 
L 363.246897 -5.437014 
z
" clip-path="url(#pa502c29ff9)" style="fill: #e8edf4; stroke: #b8c5d4; stroke-width: 0.45"/>
    <path d="M 389.456606 -7.906126 
L 403.269423 -11.027001 
L 406.274008 -6.305789 
L 400.624416 1.320747 
L 390.771324 -3.997733 
z
" clip-path="url(#pa502c29ff9)" style="fill: #e8edf4; stroke: #b8c5d4; stroke-width: 0.45"/>
    <path d="M 228.881387 -17.369472 
L 232.300775 -27.10384 
L 239.615174 -34.741567 
L 247.133691 -33.996138 
L 258.493697 -34.788521 
L 248.42992 -24.600911 
L 258.022938 -25.890815 
L 268.339976 -25.841671 
L 265.885218 -18.169884 
L 257.420318 -9.731259 
L 267.156145 -9.130585 
L 276.289596 2.968768 
L 282.734734 4.481035 
L 291.213258 18.928342 
L 302.620948 20.721848 
L 301.47653 26.743425 
L 296.679899 29.50448 
L 300.439644 34.375557 
L 291.969878 39.306481 
L 279.373005 39.219385 
L 263.342878 41.808437 
L 258.952535 39.954839 
L 252.727084 44.366348 
L 244.016952 43.297835 
L 237.402243 46.893118 
L 232.397359 45.013002 
L 246.206284 35.123418 
L 254.634691 33.089546 
L 239.856514 31.512808 
L 237.19253 27.765957 
L 247.031511 24.847496 
L 241.874817 19.775708 
L 243.663943 13.608403 
L 257.657335 14.460118 
L 259.058608 8.994724 
L 252.608847 3.062676 
L 241.176585 1.405897 
L 238.93227 -1.142283 
L 242.35409 -5.349917 
L 239.257544 -7.944078 
L 234.187946 -3.491941 
L 233.636173 -12.567489 
z
" clip-path="url(#pa502c29ff9)" style="fill: #e8edf4; stroke: #b8c5d4; stroke-width: 0.45"/>
    <path d="M 215.490428 8.28895 
L 217.431365 3.243194 
L 215.490428 -1.801588 
L 223.383849 -2.189873 
L 233.476577 3.631479 
L 228.430334 10.100459 
L 221.313483 8.159522 
z
" clip-path="url(#pa502c29ff9)" style="fill: #e8edf4; stroke: #b8c5d4; stroke-width: 0.45"/>
    <path d="M 415.766062 84.021512 
L 416.786405 79.38399 
L 424.563778 80.113606 
L 429.315157 77.97731 
L 437.549909 77.742782 
L 439.344874 76.153636 
L 440.928667 76.257763 
L 442.75818 79.436297 
L 435.262532 81.937522 
L 434.347289 85.741059 
L 431.074603 86.704959 
L 431.109636 89.336342 
L 427.414606 89.153878 
L 424.211986 87.616796 
L 422.487573 89.205941 
L 415.925658 88.884317 
L 418.021325 88.030382 
z
" clip-path="url(#pa502c29ff9)" style="fill: #e8edf4; stroke: #b8c5d4; stroke-width: 0.45"/>
    <path d="M 445.725785 60.92246 
L 447.8161 57.655613 
L 451.987485 57.815209 
L 455.202756 56.841091 
L 455.457233 55.965261 
L 457.259984 55.518101 
L 457.876957 53.375722 
L 460.037826 52.966272 
L 461.497056 51.271297 
L 464.304579 51.259862 
L 464.835916 51.828422 
L 468.707086 50.55044 
L 473.455546 53.88784 
L 479.018528 51.869781 
L 483.463854 52.8366 
L 490.241807 51.505825 
L 499.189874 55.12495 
L 496.578926 57.576302 
L 494.740656 61.372053 
L 492.731598 62.335223 
L 482.647872 59.473934 
L 479.56203 60.048333 
L 477.353964 62.263697 
L 463.587858 64.578079 
L 462.829778 66.468899 
L 454.926382 67.622562 
L 446.664383 64.185172 
z
" clip-path="url(#pa502c29ff9)" style="fill: #e8edf4; stroke: #b8c5d4; stroke-width: 0.45"/>
    <path d="M 402.037908 44.008717 
L 408.880576 41.958544 
L 412.376599 39.612535 
L 419.138009 37.788862 
L 421.499345 35.996573 
L 423.982324 37.07871 
L 428.184363 36.09632 
L 432.647205 39.127666 
L 439.686935 39.946811 
L 439.099642 42.537322 
L 444.214491 44.485071 
L 445.620199 42.053669 
L 452.077501 43.106612 
L 452.970848 46.054754 
L 459.971165 46.623557 
L 464.304579 51.259862 
L 461.497056 51.271297 
L 460.037826 52.966272 
L 457.876957 53.375722 
L 457.259984 55.518101 
L 455.457233 55.965261 
L 455.202756 56.841091 
L 451.987485 57.815209 
L 447.8161 57.655613 
L 446.481918 59.726952 
L 442.141206 57.949016 
L 437.719236 58.437778 
L 430.410432 55.564325 
L 427.096387 56.267422 
L 421.79956 60.119373 
L 414.804109 57.088756 
L 409.487818 53.040961 
L 404.682916 50.777912 
L 403.686416 46.807238 
z
" clip-path="url(#pa502c29ff9)" style="fill: #e8edf4; stroke: #b8c5d4; stroke-width: 0.45"/>
    <path d="M 126.527962 315.596889 
L 126.972203 311.233308 
L 130.588896 308.667612 
L 133.669872 303.761016 
L 133.06263 300.574453 
L 136.299796 293.930793 
L 141.540667 287.944493 
L 144.710687 286.42736 
L 147.202911 280.935418 
L 147.426247 275.919343 
L 150.825199 270.098964 
L 157.09736 266.667168 
L 163.065657 257.051281 
L 167.972254 253.303457 
L 176.728124 252.263409 
L 184.14738 245.827759 
L 188.868105 243.318992 
L 196.728196 235.456955 
L 194.375132 223.742238 
L 197.952412 215.641294 
L 199.215068 210.683121 
L 205.271434 204.32216 
L 221.701281 196.12828 
L 230.952726 180.596889 
L 237.88395 180.642141 
L 243.560303 184.638846 
L 252.514209 183.987812 
L 262.266579 186.06645 
L 266.356707 186.16717 
L 269.905766 192.197749 
L 270.466298 197.924463 
L 273.718548 207.86465 
L 276.19958 209.865436 
L 274.473221 213.524704 
L 262.150775 215.11166 
L 257.89132 218.594058 
L 252.444142 219.415149 
L 252.039801 226.386029 
L 241.030857 230.112443 
L 237.429491 234.82733 
L 229.722671 237.35775 
L 220.320146 238.793382 
L 205.114758 245.741636 
L 205.195042 256.898011 
L 203.7616 256.898011 
L 203.977638 261.942307 
L 198.157259 262.245685 
L 195.122507 264.388063 
L 190.846995 264.388063 
L 187.440015 263.165307 
L 179.518617 264.176404 
L 176.452237 271.514403 
L 173.509448 272.203876 
L 169.082125 284.074783 
L 155.992841 294.235388 
L 152.885103 307.237089 
L 149.0278 311.466863 
L 147.896763 314.859732 
z
" clip-path="url(#pa502c29ff9)" style="fill: #e8edf4; stroke: #b8c5d4; stroke-width: 0.45"/>
    <path d="M 374.537323 271.606365 
L 378.274199 267.671697 
L 377.452865 261.751571 
L 378.649346 256.598282 
L 377.969118 252.305497 
L 379.627357 244.623979 
L 379.115482 240.248963 
L 376.069539 231.93563 
L 380.663269 229.753353 
L 381.478278 225.775137 
L 380.476912 221.874773 
L 386.942486 218.246402 
L 389.841485 215.229653 
L 394.431322 212.5265 
L 394.963632 205.294331 
L 406.022644 208.535381 
L 409.976788 207.72525 
L 417.842895 209.296362 
L 430.337125 213.504073 
L 434.746615 221.87298 
L 456.470164 227.641917 
L 466.500952 232.32324 
L 471.092354 229.880511 
L 475.605418 225.549831 
L 473.41136 218.337083 
L 476.364516 213.757168 
L 483.149035 209.344947 
L 489.631403 208.060639 
L 502.368842 209.98729 
L 505.579989 214.196978 
L 509.085756 214.236807 
L 512.083449 215.843039 
L 521.439315 216.947601 
L 523.733745 220.056776 
L 520.325714 224.575018 
L 521.782802 228.602041 
L 519.357775 234.415419 
L 522.181841 242.000141 
L 522.181841 328.960385 
L 511.353728 328.989008 
L 511.237537 332.939198 
L 436.129883 296.883935 
L 419.963236 305.531653 
L 414.667382 300.360361 
L 399.772427 296.300644 
L 395.640454 290.404117 
L 388.208548 286.029344 
L 383.806527 287.754487 
L 380.458422 282.503884 
L 380.104684 278.469225 
z
" clip-path="url(#pa502c29ff9)" style="fill: #e8edf4; stroke: #b8c5d4; stroke-width: 0.45"/>
    <path d="M 435.086393 95.302207 
L 437.057497 91.394057 
L 440.43577 93.556385 
L 442.476941 91.602797 
L 446.876042 91.394057 
L 454.970174 92.957414 
L 461.480513 92.827013 
L 465.738935 94.91128 
L 469.152616 94.885199 
L 466.794723 99.02747 
L 471.334528 102.648768 
L 469.962088 107.077654 
L 465.985345 108.354148 
L 462.923626 110.542556 
L 461.544407 115.722255 
L 453.210728 112.157805 
L 449.65583 108.22411 
L 441.737837 102.622689 
z
" clip-path="url(#pa502c29ff9)" style="fill: #e8edf4; stroke: #b8c5d4; stroke-width: 0.45"/>
    <path d="M 464.08501 85.037525 
L 471.299544 82.562525 
L 477.176365 82.979274 
L 482.279537 86.678684 
L 483.335399 89.674754 
L 489.071601 91.889388 
L 489.810704 95.770776 
L 495.300701 98.506286 
L 498.256628 96.396265 
L 500.579525 97.568661 
L 498.397734 99.157806 
L 500.122147 100.799015 
L 497.79925 102.935068 
L 498.64394 106.374162 
L 503.218693 110.438501 
L 499.629249 113.382264 
L 498.045456 116.378334 
L 499.066285 117.498423 
L 497.517525 118.827009 
L 489.948299 119.533521 
L 489.634604 118.827099 
L 491.816516 115.41436 
L 490.479197 115.466429 
L 482.772028 109.865187 
L 481.082843 110.386255 
L 479.780738 113.512472 
L 477.528397 114.189842 
L 478.30256 113.382253 
L 471.61926 110.413843 
L 467.744867 107.494395 
L 469.962088 107.077654 
L 471.334528 102.648768 
L 466.794723 99.02747 
L 469.152616 94.885199 
L 465.738935 94.91128 
L 469.363959 91.368269 
L 466.372512 88.684822 
z
" clip-path="url(#pa502c29ff9)" style="fill: #e8edf4; stroke: #b8c5d4; stroke-width: 0.45"/>
    <path d="M 460.508833 117.323006 
L 462.923626 110.542556 
L 467.744867 107.494395 
L 471.61926 110.413843 
L 478.30256 113.382253 
L 475.768781 116.3001 
L 473.235129 117.133737 
L 472.636645 115.362127 
L 468.554302 119.999405 
L 469.187813 122.995445 
L 467.21702 122.266013 
L 464.577597 119.191865 
z
" clip-path="url(#pa502c29ff9)" style="fill: #e8edf4; stroke: #b8c5d4; stroke-width: 0.45"/>
    <path d="M 475.768781 116.3001 
L 477.528397 114.189842 
L 479.780738 113.512472 
L 481.082843 110.386255 
L 482.772028 109.865187 
L 490.479197 115.466429 
L 491.816516 115.41436 
L 489.634604 118.827099 
L 489.948299 119.533521 
L 482.279396 121.354192 
L 481.8571 123.282067 
L 480.660702 123.203927 
L 480.027054 119.791083 
L 477.774849 118.827009 
z
" clip-path="url(#pa502c29ff9)" style="fill: #e8edf4; stroke: #b8c5d4; stroke-width: 0.45"/>
   </g>
   <g id="PathCollection_1">
    <defs>
     <path id="mef7c4c4f9b" d="M 0 2.12132 
C 0.562581 2.12132 1.102195 1.897805 1.5 1.5 
C 1.897805 1.102195 2.12132 0.562581 2.12132 0 
C 2.12132 -0.562581 1.897805 -1.102195 1.5 -1.5 
C 1.102195 -1.897805 0.562581 -2.12132 0 -2.12132 
C -0.562581 -2.12132 -1.102195 -1.897805 -1.5 -1.5 
C -1.897805 -1.102195 -2.12132 -0.562581 -2.12132 0 
C -2.12132 0.562581 -1.897805 1.102195 -1.5 1.5 
C -1.102195 1.897805 -0.562581 2.12132 0 2.12132 
z
" style="stroke: #ffffff; stroke-width: 0.5"/>
    </defs>
    <g clip-path="url(#pa502c29ff9)">
     <use xlink:href="#mef7c4c4f9b" x="300.9117" y="117.134618" style="fill: #8aa0b7; stroke: #ffffff; stroke-width: 0.5"/>
     <use xlink:href="#mef7c4c4f9b" x="475.103088" y="131.258244" style="fill: #8aa0b7; stroke: #ffffff; stroke-width: 0.5"/>
     <use xlink:href="#mef7c4c4f9b" x="60.810057" y="366.652011" style="fill: #8aa0b7; stroke: #ffffff; stroke-width: 0.5"/>
     <use xlink:href="#mef7c4c4f9b" x="275.731157" y="24.337687" style="fill: #8aa0b7; stroke: #ffffff; stroke-width: 0.5"/>
     <use xlink:href="#mef7c4c4f9b" x="225.658195" y="1.436698" style="fill: #8aa0b7; stroke: #ffffff; stroke-width: 0.5"/>
     <use xlink:href="#mef7c4c4f9b" x="262.464051" y="51.538221" style="fill: #8aa0b7; stroke: #ffffff; stroke-width: 0.5"/>
     <use xlink:href="#mef7c4c4f9b" x="236.413807" y="177.081564" style="fill: #8aa0b7; stroke: #ffffff; stroke-width: 0.5"/>
     <use xlink:href="#mef7c4c4f9b" x="130.80047" y="390.505246" style="fill: #8aa0b7; stroke: #ffffff; stroke-width: 0.5"/>
     <use xlink:href="#mef7c4c4f9b" x="145.551813" y="404.315014" style="fill: #8aa0b7; stroke: #ffffff; stroke-width: 0.5"/>
     <use xlink:href="#mef7c4c4f9b" x="244.417195" y="6.499547" style="fill: #8aa0b7; stroke: #ffffff; stroke-width: 0.5"/>
     <use xlink:href="#mef7c4c4f9b" x="266.38728" y="53.5783" style="fill: #8aa0b7; stroke: #ffffff; stroke-width: 0.5"/>
     <use xlink:href="#mef7c4c4f9b" x="376.551564" y="72.252873" style="fill: #8aa0b7; stroke: #ffffff; stroke-width: 0.5"/>
     <use xlink:href="#mef7c4c4f9b" x="344.851869" y="48.870425" style="fill: #8aa0b7; stroke: #ffffff; stroke-width: 0.5"/>
     <use xlink:href="#mef7c4c4f9b" x="356.464629" y="105.521858" style="fill: #8aa0b7; stroke: #ffffff; stroke-width: 0.5"/>
     <use xlink:href="#mef7c4c4f9b" x="469.212594" y="115.16955" style="fill: #8aa0b7; stroke: #ffffff; stroke-width: 0.5"/>
     <use xlink:href="#mef7c4c4f9b" x="424.101105" y="179.906289" style="fill: #8aa0b7; stroke: #ffffff; stroke-width: 0.5"/>
     <use xlink:href="#mef7c4c4f9b" x="426.298113" y="83.080986" style="fill: #8aa0b7; stroke: #ffffff; stroke-width: 0.5"/>
     <use xlink:href="#mef7c4c4f9b" x="403.700311" y="105.208" style="fill: #8aa0b7; stroke: #ffffff; stroke-width: 0.5"/>
     <use xlink:href="#mef7c4c4f9b" x="404.046183" y="122.756762" style="fill: #8aa0b7; stroke: #ffffff; stroke-width: 0.5"/>
    </g>
   </g>
   <g id="PatchCollection_2">
    <defs>
     <path id="m150253ed97" d="M 126.527962 -116.403111 
L 126.972203 -120.766692 
L 130.588896 -123.332388 
L 133.669872 -128.238984 
L 133.06263 -131.425547 
L 136.299796 -138.069207 
L 141.540667 -144.055507 
L 144.710687 -145.57264 
L 147.202911 -151.064582 
L 147.426247 -156.080657 
L 150.825199 -161.901036 
L 157.09736 -165.332832 
L 163.065657 -174.948719 
L 167.972254 -178.696543 
L 176.728124 -179.736591 
L 184.14738 -186.172241 
L 188.868105 -188.681008 
L 196.728196 -196.543045 
L 194.375132 -208.257762 
L 197.952412 -216.358706 
L 199.215068 -221.316879 
L 205.271434 -227.67784 
L 221.701281 -235.87172 
L 230.952726 -251.403111 
L 237.88395 -251.357859 
L 243.560303 -247.361154 
L 252.514209 -248.012188 
L 262.266579 -245.93355 
L 266.356707 -245.83283 
L 269.905766 -239.802251 
L 270.466298 -234.075537 
L 273.718548 -224.13535 
L 276.19958 -222.134564 
L 274.473221 -218.475296 
L 262.150775 -216.88834 
L 257.89132 -213.405942 
L 252.444142 -212.584851 
L 252.039801 -205.613971 
L 241.030857 -201.887557 
L 237.429491 -197.17267 
L 229.722671 -194.64225 
L 220.320146 -193.206618 
L 205.114758 -186.258364 
L 205.195042 -175.101989 
L 203.7616 -175.101989 
L 203.977638 -170.057693 
L 198.157259 -169.754315 
L 195.122507 -167.611937 
L 190.846995 -167.611937 
L 187.440015 -168.834693 
L 179.518617 -167.823596 
L 176.452237 -160.485597 
L 173.509448 -159.796124 
L 169.082125 -147.925217 
L 155.992841 -137.764612 
L 152.885103 -124.762911 
L 149.0278 -120.533137 
L 147.896763 -117.140268 
z
" style="stroke: #b45309; stroke-width: 1.15"/>
    </defs>
    <g clip-path="url(#pa502c29ff9)">
     <use xlink:href="#m150253ed97" x="0" y="432" style="fill: #f59e0b; stroke: #b45309; stroke-width: 1.15"/>
    </g>
   </g>
   <g id="PathCollection_2">
    <path d="M 239.70932 220.135215 
C 240.805992 220.135215 241.857894 219.699502 242.633358 218.924038 
C 243.408822 218.148574 243.844535 217.096672 243.844535 216 
C 243.844535 214.903328 243.408822 213.851426 242.633358 213.075962 
C 241.857894 212.300498 240.805992 211.864785 239.70932 211.864785 
C 238.612648 211.864785 237.560746 212.300498 236.785282 213.075962 
C 236.009818 213.851426 235.574105 214.903328 235.574105 216 
C 235.574105 217.096672 236.009818 218.148574 236.785282 218.924038 
C 237.560746 219.699502 238.612648 220.135215 239.70932 220.135215 
L 239.70932 220.135215 
z
" clip-path="url(#pa502c29ff9)" style="fill: none; stroke: #7c2d12; stroke-width: 1.1"/>
   </g>
  </g>
 </g>
 <defs>
  <clipPath id="pa502c29ff9">
   <rect x="0" y="0" width="479.41864" height="432"/>
  </clipPath>
 </defs>
</svg>
