<?xml version="1.0" encoding="utf-8" standalone="no"?>
<!DOCTYPE svg PUBLIC "-//W3C//DTD SVG 1.1//EN"
  "http://www.w3.org/Graphics/SVG/1.1/DTD/svg11.dtd">
<svg xmlns:xlink="http://www.w3.org/1999/xlink" width="482.828972pt" height="432pt" viewBox="0 0 482.828972 432" xmlns="http://www.w3.org/2000/svg" version="1.1">
 <metadata>
  <rdf:RDF xmlns:dc="http://purl.org/dc/elements/1.1/" xmlns:cc="http://creativecommons.org/ns#" xmlns:rdf="http://www.w3.org/1999/02/22-rdf-syntax-ns#">
   <cc:Work>
    <dc:type rdf:resource="http://purl.org/dc/dcmitype/StillImage"/>
    <dc:date>2026-06-09T04:57:07.754710</dc:date>
    <dc:format>image/svg+xml</dc:format>
    <dc:creator>
     <cc:Agent>
      <dc:title>Matplotlib v3.10.8, https://matplotlib.org/</dc:title>
     </cc:Agent>
    </dc:creator>
   </cc:Work>
  </rdf:RDF>
 </metadata>
 <defs>
  <style type="text/css">*{stroke-linejoin: round; stroke-linecap: butt}</style>
 </defs>
 <g id="figure_1">
  <g id="patch_1">
   <path d="M 0 432 
L 482.828972 432 
L 482.828972 0 
L 0 0 
z
" style="fill: #eaf3ff"/>
  </g>
  <g id="axes_1">
   <g id="PatchCollection_1">
    <path d="M 427.343928 27.673665 
L 432.855637 23.591397 
L 429.041365 11.594665 
L 438.19386 4.182428 
L 436.256994 1.937297 
L 450.876562 -5.171699 
L 437.400237 -11.287561 
L 476.888828 -35.13736 
L 481.72653 -41.697305 
L 462.686803 -50.509925 
L 467.945261 -58.891819 
L 456.365486 -68.464526 
L 465.024966 -79.491888 
L 450.064775 -94.13366 
L 461.935025 -103.832328 
L 442.235914 -112.402997 
L 444.113697 -121.409046 
L 454.501934 -122.594261 
L 476.388324 -127.754676 
L 489.658073 -132.228862 
L 510.788389 -124.452932 
L 546.012959 -121.391592 
L 594.613394 -106.843541 
L 604.485957 -100.730252 
L 605.335929 -92.169435 
L 591.05671 -85.411335 
L 570.053349 -81.981477 
L 512.630853 -91.758212 
L 503.186106 -90.123611 
L 524.156667 -80.703175 
L 525.817765 -61.591928 
L 552.428523 -54.330379 
L 554.090907 -60.567279 
L 546.34249 -66.095055 
L 554.529142 -70.966958 
L 585.623733 -62.960784 
L 596.456115 -66.095055 
L 587.79947 -75.515234 
L 617.776029 -88.11316 
L 629.647723 -87.371621 
L 641.657821 -82.876083 
L 649.150513 -91.716151 
L 638.424635 -99.383777 
L 644.721733 -107.076486 
L 635.265924 -115.055005 
L 671.245409 -110.928757 
L 678.594425 -103.72522 
L 662.30797 -102.13731 
L 662.39608 -94.979564 
L 672.520753 -90.575609 
L 692.393862 -93.365287 
L 695.540096 -101.569548 
L 767.29725 -118.741347 
L 776.99938 -118.108113 
L 764.318103 -110.302469 
L 780.273856 -108.96101 
L 789.488745 -113.355447 
L 813.597951 -113.710717 
L 832.698908 -119.04285 
L 847.355006 -111.294574 
L 861.972516 -119.812944 
L 848.49439 -127.264476 
L 855.183031 -131.50919 
L 893.179656 -127.616787 
L 910.98321 -123.596464 
L 957.59847 -108.900684 
L 966.19749 -115.631772 
L 953.125828 -122.432705 
L 952.749977 -125.161284 
L 937.248538 -126.423379 
L 941.489136 -132.521876 
L 934.609612 -142.556895 
L 934.220384 -146.674011 
L 957.957341 -158.321636 
L 966.399178 -170.012094 
L 975.964449 -172.541429 
L 1010.019149 -169.149388 
L 1012.700908 -161.994729 
L 1000.50803 -151.561993 
L 1008.508674 -147.46147 
L 1012.647527 -138.46975 
L 1009.725363 -120.844024 
L 1023.915186 -112.959789 
L 1018.394871 -104.373889 
L 993.200562 -86.103609 
L 1007.902837 -84.208537 
L 1013.019133 -88.839135 
L 1027.171011 -92.142166 
L 1030.586333 -98.507051 
L 1041.718933 -104.632045 
L 1034.223282 -111.944787 
L 1040.224793 -120.43666 
L 1026.159611 -121.495009 
L 1023.066243 -128.648896 
L 1033.329834 -141.564661 
L 1016.624953 -152.053222 
L 1039.645712 -160.722987 
L 1036.667208 -169.869446 
L 1043.082515 -170.161431 
L 1049.841901 -163.030182 
L 1044.767152 -150.617608 
L 1058.531989 -148.267708 
L 1052.666823 -157.543567 
L 1074.192927 -162.600694 
L 1100.887936 -163.281649 
L 1124.658079 -155.948455 
L 1113.219345 -166.661213 
L 1111.937956 -180.364566 
L 1134.305157 -182.960273 
L 1165.243465 -182.393154 
L 1193.117604 -184.077791 
L 1182.663515 -190.802319 
L 1197.549085 -199.250072 
L 1212.326994 -199.603798 
L 1237.335951 -205.984633 
L 1271.301126 -207.699626 
L 1275.592532 -211.222353 
L 1309.367467 -212.416018 
L 1319.891915 -209.528069 
L 1348.760217 -216.363474 
L 1372.390799 -216.149824 
L 1375.936422 -221.701524 
L 1388.227057 -227.176562 
L 1418.592971 -232.455186 
L 1440.653138 -228.287263 
L 1423.138675 -225.116718 
L 1452.274522 -223.146013 
L 1455.745798 -216.78936 
L 1467.499798 -219.919516 
L 1505.103594 -219.747798 
L 1534.099495 -213.473853 
L 1544.423927 -208.655459 
L 1541.223927 -201.968747 
L 1493.19254 -191.021758 
L 1483.529383 -187.204988 
L 1518.505701 -182.159437 
L 1530.086697 -184.592945 
L 1536.647224 -176.33659 
L 1542.296939 -179.678723 
L 1562.864638 -181.710655 
L 1604.134967 -179.586626 
L 1607.269238 -173.570451 
L 1661.044109 -171.656728 
L 1661.778702 -181.481441 
L 1689.07646 -179.23007 
L 1709.611102 -179.300686 
L 1730.382161 -172.524836 
L 1736.303023 -164.292791 
L 1728.693794 -158.906892 
L 1744.849306 -148.784406 
L 1765.07717 -143.561478 
L 1777.488715 -157.058512 
L 1798.122657 -151.271809 
L 1820.044292 -154.729707 
L 1844.941728 -150.772862 
L 1854.415673 -154.379583 
L 1875.455822 -152.576222 
L 1866.16993 -164.517504 
L 1883.152132 -170.089914 
L 1999.326491 -161.736702 
L 2010.275024 -154.101747 
L 2043.946157 -144.271889 
L 2095.885768 -146.705396 
L 2121.494387 -144.587027 
L 2132.202901 -139.268528 
L 2130.638144 -129.862498 
L 2146.483406 -126.200468 
L 2163.700739 -128.834248 
L 2186.511705 -129.171124 
L 2210.795202 -126.646934 
L 2235.174011 -128.070843 
L 2257.580443 -116.637255 
L 2273.520632 -120.751155 
L 2263.118767 -128.972137 
L 2268.845915 -134.686681 
L 2309.884071 -131.09025 
L 2336.640178 -131.859701 
L 2373.63312 -125.720943 
L 2391.640999 -120.108098 
L 2391.640999 -68.86375 
L 2375.012009 -63.142663 
L 2358.342888 -64.085247 
L 2369.941505 -57.238651 
L 2377.59807 -46.640243 
L 2383.541827 -43.175656 
L 2385.034166 -37.854585 
L 2381.714156 -34.448008 
L 2357.738595 -37.24952 
L 2321.787022 -27.567069 
L 2310.34996 -26.068042 
L 2271.997937 -9.135105 
L 2267.26894 -3.290133 
L 2248.870161 -12.18834 
L 2215.356469 -2.091065 
L 2209.504165 -6.868942 
L 2197.113973 -1.358531 
L 2179.91066 -3.122145 
L 2175.766533 5.337699 
L 2160.334037 17.785388 
L 2160.792467 22.984006 
L 2175.442391 25.866424 
L 2173.719165 44.591917 
L 2161.777884 45.068483 
L 2156.271074 55.828319 
L 2161.622373 61.366257 
L 2139.128988 67.936689 
L 2134.665092 82.622886 
L 2115.489402 85.759987 
L 2111.633658 98.828433 
L 2093.093389 110.811905 
L 2088.336865 101.950099 
L 2075.649799 54.601854 
L 2081.833705 36.762606 
L 2092.686411 29.086362 
L 2093.357847 23.075074 
L 2113.346336 20.197544 
L 2136.323232 4.003058 
L 2158.465206 -9.222829 
L 2181.587965 -19.486033 
L 2191.927832 -37.61881 
L 2176.297894 -36.533964 
L 2168.573671 -25.937999 
L 2135.948154 -11.811204 
L 2125.411486 -27.628939 
L 2092.204443 -23.261514 
L 2060.013815 -1.700423 
L 2070.634477 6.187414 
L 2022.038671 10.870234 
L 2022.970193 1.569551 
L 2002.975788 -0.382632 
L 1987.040101 5.936204 
L 1947.711022 3.725222 
L 1905.400224 7.537619 
L 1814.439468 62.981177 
L 1834.705021 64.602401 
L 1841.029774 72.657454 
L 1853.523126 75.516977 
L 1861.754398 69.091508 
L 1875.863314 69.925916 
L 1894.434583 84.076379 
L 1894.870888 95.020024 
L 1884.814645 107.871218 
L 1883.729799 123.231168 
L 1877.92676 143.796423 
L 1858.539863 162.409624 
L 1854.230707 171.306802 
L 1811.136308 208.734121 
L 1793.996409 216.281223 
L 1785.885146 216.448182 
L 1777.804753 210.195975 
L 1760.540342 219.609208 
L 1758.535422 223.889166 
L 1756.734634 221.638181 
L 1756.655739 215.103705 
L 1763.22632 214.756731 
L 1765.07685 199.558982 
L 1761.689245 188.542786 
L 1772.728901 183.999635 
L 1788.340006 186.277267 
L 1796.990528 173.763887 
L 1801.398676 159.67204 
L 1806.395348 154.964652 
L 1813.154753 143.39099 
L 1791.896251 147.182783 
L 1780.74544 152.25691 
L 1761.20136 152.241861 
L 1755.992367 140.156549 
L 1740.75673 131.012242 
L 1718.370134 126.900401 
L 1713.611625 114.300967 
L 1696.361276 87.893682 
L 1685.065994 83.157014 
L 1665.813753 79.327058 
L 1648.761294 79.675305 
L 1632.777203 81.994783 
L 1622.152604 88.394202 
L 1629.210411 91.451167 
L 1629.370051 98.552913 
L 1622.216807 102.676203 
L 1610.605712 116.318843 
L 1610.722387 121.978941 
L 1592.595961 130.106918 
L 1577.154931 125.250605 
L 1561.808289 126.322769 
L 1555.073527 122.012841 
L 1547.360324 120.622948 
L 1528.520007 129.687823 
L 1511.586056 131.817861 
L 1499.762335 135.005773 
L 1483.560886 132.911296 
L 1471.633472 133.045234 
L 1463.825881 126.470333 
L 1451.228447 120.288603 
L 1438.337214 118.594278 
L 1409.909899 122.659596 
L 1391.636334 117.249593 
L 1389.183661 107.610876 
L 1362.384364 102.798962 
L 1347.974952 97.482009 
L 1334.652327 110.81261 
L 1339.874892 118.383567 
L 1327.372259 127.340566 
L 1308.776037 124.106736 
L 1295.938083 123.64402 
L 1287.340826 117.635777 
L 1273.920372 117.446008 
L 1262.736213 113.498671 
L 1243.171371 119.54879 
L 1218.627911 130.62738 
L 1200.033534 133.914332 
L 1193.208373 126.046253 
L 1176.640008 127.767499 
L 1171.164192 122.307968 
L 1162.170773 119.811347 
L 1155.980402 112.378648 
L 1148.878725 110.064156 
L 1130.394689 113.369719 
L 1112.675725 105.958955 
L 1105.821317 112.693717 
L 1077.077604 80.0266 
L 1060.668103 70.088971 
L 1065.374858 66.056223 
L 1033.13715 78.194491 
L 1020.799935 78.92818 
L 1021.865453 71.907596 
L 1005.344947 67.520895 
L 991.91597 70.651309 
L 987.86594 57.319711 
L 964.75026 54.547571 
L 953.185773 59.8838 
L 921.000157 64.631985 
L 914.718797 67.809375 
L 866.587164 72.285334 
L 860.689152 76.67484 
L 869.97504 85.485798 
L 857.626869 88.830247 
L 860.03575 92.334556 
L 847.690902 98.600371 
L 868.534631 107.446891 
L 865.31149 113.538553 
L 847.244222 112.98386 
L 843.507267 116.800911 
L 827.056268 110.135452 
L 806.664403 110.393865 
L 793.016488 115.819896 
L 749.434637 101.71018 
L 729.342022 102.043195 
L 702.789832 116.03318 
L 701.1879 125.427748 
L 687.960328 117.968128 
L 677.697328 132.10036 
L 681.454224 134.723939 
L 674.029501 144.47246 
L 684.947347 153.197307 
L 694.491652 152.838179 
L 702.691456 161.432334 
L 701.386097 168.051364 
L 707.919227 170.131402 
L 702.057019 177.75954 
L 689.586563 179.879324 
L 676.802255 193.157434 
L 688.493613 205.364718 
L 687.227659 214.028823 
L 701.271875 229.177308 
L 693.591684 234.361787 
L 691.384209 237.634115 
L 685.694359 236.755379 
L 676.854485 228.942471 
L 665.153601 225.529941 
L 661.216039 220.251823 
L 649.219495 217.560777 
L 641.419345 219.580652 
L 639.16553 217.189849 
L 621.65171 211.022536 
L 591.843075 206.741753 
L 590.274378 208.26093 
L 573.874235 197.391858 
L 559.199357 192.539892 
L 548.090296 184.983272 
L 557.450663 182.927544 
L 568.123933 172.169637 
L 560.930686 167.079839 
L 579.889767 161.829513 
L 579.549289 159.017582 
L 568.002869 161.090677 
L 568.409002 155.376898 
L 575.039216 151.785361 
L 587.486617 150.8423 
L 589.510476 146.552914 
L 586.66819 139.460254 
L 591.892263 132.72518 
L 591.741138 128.948412 
L 572.780748 124.762713 
L 565.264296 124.901636 
L 557.325759 118.878105 
L 547.456262 120.915085 
L 531.119879 116.392452 
L 531.400208 113.861797 
L 526.824574 108.284083 
L 516.56822 107.661257 
L 515.502703 103.668392 
L 518.715208 101.064089 
L 510.495502 93.781281 
L 497.157589 95.023941 
L 493.251135 94.377851 
L 490.001766 97.303423 
L 485.197907 96.783381 
L 482.034287 88.546419 
L 479.013881 84.276705 
L 481.489184 83.074883 
L 491.86789 83.521271 
L 496.873097 80.708252 
L 493.168047 77.278721 
L 484.49435 75.015078 
L 485.268063 72.691945 
L 480.033534 70.345546 
L 471.969368 61.924103 
L 474.725888 58.454026 
L 473.466277 52.415872 
L 460.891443 49.348271 
L 454.142058 50.883733 
L 452.314792 47.690504 
L 438.772816 44.464705 
L 434.638369 36.873142 
L 433.54161 30.635578 
z
" clip-path="url(#pdf5a75f631)" style="fill: #e8edf4; stroke: #b8c5d4; stroke-width: 0.45"/>
    <path d="M 738.205825 -159.355559 
L 751.358285 -162.115403 
L 750.919582 -169.129339 
L 776.432178 -180.098918 
L 764.607128 -181.671603 
L 795.402776 -192.960904 
L 791.92306 -198.799647 
L 820.693362 -205.590908 
L 863.15852 -213.85515 
L 905.969988 -216.262701 
L 927.998881 -221.031273 
L 953.030897 -222.702335 
L 961.97247 -217.623013 
L 953.333337 -213.62051 
L 868.476802 -201.108157 
L 828.519564 -188.865009 
L 789.188476 -163.939678 
L 791.806073 -153.254924 
L 816.410686 -142.705769 
L 808.812476 -141.577437 
L 766.782033 -143.248498 
L 763.368788 -148.959619 
L 740.085602 -152.408093 
z
" clip-path="url(#pdf5a75f631)" style="fill: #e8edf4; stroke: #b8c5d4; stroke-width: 0.45"/>
    <path d="M -2238.956477 -68.86375 
L -2238.956477 -120.108098 
L -2207.442689 -110.285619 
L -2173.719719 -97.498609 
L -2174.825918 -89.503883 
L -2166.151008 -86.303754 
L -2169.135042 -95.650229 
L -2134.218922 -93.732262 
L -2109.03709 -81.694766 
L -2121.790398 -76.088528 
L -2142.874795 -74.757488 
L -2143.193149 -62.189017 
L -2148.342502 -59.512275 
L -2160.388615 -59.897 
L -2170.191075 -64.381605 
L -2187.293544 -68.132775 
L -2190.170045 -73.712517 
L -2203.232189 -75.81648 
L -2217.860633 -74.147921 
L -2224.850134 -78.648862 
L -2222.056211 -83.429568 
L -2237.461437 -80.374017 
L -2231.65917 -74.322726 
z
" clip-path="url(#pdf5a75f631)" style="fill: #e8edf4; stroke: #b8c5d4; stroke-width: 0.45"/>
    <path d="M 1897.634402 98.921754 
L 1898.772372 81.344372 
L 1910.662564 75.4252 
L 1905.553663 69.465481 
L 1911.278078 67.659485 
L 1919.073704 88.563037 
L 1918.744677 101.221291 
L 1924.053652 114.200597 
L 1936.995402 136.983261 
L 1917.955675 132.73648 
L 1910.041732 151.32288 
L 1922.580672 164.505252 
L 1922.217745 173.494018 
L 1912.473212 165.739604 
L 1904.039472 175.695512 
L 1901.658509 164.901414 
L 1903.092936 152.37045 
L 1901.626603 138.490806 
L 1904.602475 128.766879 
L 1905.170795 111.567047 
z
" clip-path="url(#pdf5a75f631)" style="fill: #e8edf4; stroke: #b8c5d4; stroke-width: 0.45"/>
    <path d="M 493.792867 183.918542 
L 496.064819 181.452497 
L 508.37909 177.177133 
L 506.421712 175.629113 
L 509.810714 172.443578 
L 523.092239 175.709526 
L 524.761502 178.249709 
L 526.702068 178.641473 
L 526.806627 179.754183 
L 533.099362 182.857012 
L 546.219252 182.085293 
L 543.707342 186.674396 
L 529.626293 188.902478 
L 512.165234 196.343818 
L 505.012374 193.72755 
L 507.848658 187.683414 
z
" clip-path="url(#pdf5a75f631)" style="fill: #e8edf4; stroke: #b8c5d4; stroke-width: 0.45"/>
    <path d="M 653.198402 -269.652903 
L 678.308854 -271.995313 
L 697.85176 -272.150853 
L 700.479992 -268.685097 
L 707.868156 -271.764661 
L 719.992322 -273.885726 
L 739.069937 -271.066724 
L 734.095307 -269.105853 
L 705.259865 -266.434083 
L 703.465834 -264.323321 
L 688.431602 -262.197272 
L 674.497452 -265.246593 
L 681.824463 -269.262058 
z
" clip-path="url(#pdf5a75f631)" style="fill: #e8edf4; stroke: #b8c5d4; stroke-width: 0.45"/>
    <path d="M 1249.183463 -266.458435 
L 1282.582805 -275.245509 
L 1310.408001 -278.149922 
L 1335.399786 -271.674482 
L 1365.020239 -259.23824 
L 1361.844485 -247.672101 
L 1333.780234 -246.067599 
L 1297.952916 -249.779087 
L 1276.604446 -254.689515 
L 1266.732527 -263.915851 
z
" clip-path="url(#pdf5a75f631)" style="fill: #e8edf4; stroke: #b8c5d4; stroke-width: 0.45"/>
    <path d="M 1838.212441 -201.118261 
L 1845.124508 -209.961416 
L 1862.094554 -212.374343 
L 1896.059215 -211.810053 
L 1942.553887 -204.989376 
L 1932.440083 -195.437161 
L 1885.025466 -195.793203 
L 1863.694233 -192.755016 
z
" clip-path="url(#pdf5a75f631)" style="fill: #e8edf4; stroke: #b8c5d4; stroke-width: 0.45"/>
    <path d="M 329.232568 66.885107 
L 332.163239 61.224504 
L 349.913444 57.052833 
L 363.384297 59.306174 
L 369.070159 61.347806 
L 367.697549 64.870063 
L 368.727173 68.152694 
L 345.074413 68.34579 
z
" clip-path="url(#pdf5a75f631)" style="fill: #e8edf4; stroke: #b8c5d4; stroke-width: 0.45"/>
    <path d="M 1875.369513 -176.783957 
L 1887.571008 -181.86771 
L 1903.654102 -183.057773 
L 1921.929013 -178.13995 
L 1923.485665 -174.759485 
L 1903.982875 -174.669446 
z
" clip-path="url(#pdf5a75f631)" style="fill: #e8edf4; stroke: #b8c5d4; stroke-width: 0.45"/>
    <path d="M 1355.392262 -235.324613 
L 1378.889457 -252.213303 
L 1389.45558 -253.659335 
L 1399.121502 -252.821712 
L 1431.723674 -245.516301 
L 1427.903945 -240.288228 
z
" clip-path="url(#pdf5a75f631)" style="fill: #e8edf4; stroke: #b8c5d4; stroke-width: 0.45"/>
    <path d="M -2238.956477 -144.142994 
L -2238.956477 -152.934892 
L -2226.406657 -153.447032 
L -2207.802139 -149.767636 
L -2208.903578 -148.009167 
L -2222.154869 -144.925317 
z
" clip-path="url(#pdf5a75f631)" style="fill: #e8edf4; stroke: #b8c5d4; stroke-width: 0.45"/>
    <path d="M 1955.839907 -199.977462 
L 1958.917904 -204.142942 
L 2015.16918 -198.833704 
L 2000.303097 -193.751109 
L 1979.742472 -194.901491 
z
" clip-path="url(#pdf5a75f631)" style="fill: #e8edf4; stroke: #b8c5d4; stroke-width: 0.45"/>
    <path d="M 2375.244826 -147.572218 
L 2391.640999 -152.934892 
L 2391.640999 -144.142994 
L 2377.536007 -143.486231 
z
" clip-path="url(#pdf5a75f631)" style="fill: #e8edf4; stroke: #b8c5d4; stroke-width: 0.45"/>
    <path d="M 140.554217 -30.163394 
L 152.398544 -38.440265 
L 186.362827 -49.239015 
L 211.757771 -62.513781 
L 266.211497 -105.277391 
L 323.10202 -131.090432 
L 351.32793 -136.720791 
L 372.491381 -136.03781 
L 392.078822 -146.693649 
L 415.534165 -146.124664 
L 438.62924 -148.687091 
L 478.862329 -139.275574 
L 462.295294 -135.834411 
L 476.387838 -127.754561 
L 454.501934 -122.594261 
L 444.113697 -121.409046 
L 449.562925 -130.435036 
L 433.056378 -135.550583 
L 413.084738 -131.191467 
L 406.776715 -121.760673 
L 394.511632 -116.068164 
L 380.701781 -119.176976 
L 363.905424 -118.540192 
L 349.611005 -125.340759 
L 341.90179 -121.942469 
L 333.922706 -121.413699 
L 332.035617 -112.950712 
L 307.793266 -115.011288 
L 304.388662 -107.848791 
L 292.036503 -107.892329 
L 270.678295 -84.481188 
L 250.705991 -66.385338 
L 255.390811 -61.991325 
L 250.914707 -56.893724 
L 238.155086 -57.113741 
L 229.802439 -45.04973 
L 230.593435 -27.968548 
L 238.813806 -21.449814 
L 234.559047 -6.327841 
L 223.856014 2.490097 
L 218.184776 9.90219 
L 209.556278 2.008852 
L 184.15801 16.884885 
L 167.008696 19.899974 
L 149.220603 13.349335 
L 144.620865 -0.479128 
z
" clip-path="url(#pdf5a75f631)" style="fill: #e8edf4; stroke: #b8c5d4; stroke-width: 0.45"/>
    <path d="M 210.687856 -257.595086 
L 245.754857 -262.200858 
L 252.800439 -257.697988 
L 271.120884 -257.877038 
L 276.005264 -262.273147 
L 294.89167 -262.720514 
L 353.455608 -248.638996 
L 321.08696 -243.577367 
L 313.939761 -234.111525 
L 302.655124 -231.683935 
L 296.529744 -221.026486 
L 281.029462 -220.525352 
L 253.367302 -228.370356 
L 265.033449 -232.940499 
L 245.75267 -236.661441 
L 220.692262 -247.522379 
z
" clip-path="url(#pdf5a75f631)" style="fill: #e8edf4; stroke: #b8c5d4; stroke-width: 0.45"/>
    <path d="M 299.743059 -266.168202 
L 339.462998 -269.760252 
L 358.139133 -266.667061 
L 371.147353 -270.51901 
L 403.669233 -267.30584 
L 428.878725 -262.791848 
L 409.805098 -255.864322 
L 372.500687 -254.348802 
L 334.564808 -256.49446 
L 332.276239 -260.038652 
L 313.818126 -260.263986 
z
" clip-path="url(#pdf5a75f631)" style="fill: #e8edf4; stroke: #b8c5d4; stroke-width: 0.45"/>
    <path d="M 342.936177 -232.186612 
L 351.812775 -235.505206 
L 344.04096 -239.616019 
L 370.697252 -242.192561 
L 375.804801 -237.363877 
L 394.362949 -234.460878 
L 365.630092 -229.201034 
z
" clip-path="url(#pdf5a75f631)" style="fill: #e8edf4; stroke: #b8c5d4; stroke-width: 0.45"/>
    <path d="M 17.271918 140.742152 
L 33.948962 137.944088 
L 55.549454 141.253308 
L 51.472171 126.693673 
L 63.614949 132.211365 
L 93.562437 122.18101 
L 97.424357 111.640829 
L 108.673775 109.043838 
L 110.536935 113.567136 
L 116.51593 113.779176 
L 131.472392 125.006659 
L 138.073549 124.004953 
L 152.203786 130.985654 
L 155.915483 130.713791 
L 161.985542 134.081837 
L 180.521425 136.450835 
L 174.01798 145.258803 
L 172.385472 154.422718 
L 168.853909 156.619891 
L 162.993231 155.436056 
L 163.406676 158.704397 
L 153.999811 165.932367 
L 153.809707 171.756487 
L 159.951554 169.74111 
L 164.369829 175.381772 
L 163.839397 179.016363 
L 167.624875 183.846089 
L 163.165389 187.763843 
L 166.478929 197.716428 
L 173.450989 199.348271 
L 171.979339 204.931437 
L 160.326446 212.198292 
L 134.957426 208.715586 
L 116.222132 212.888918 
L 114.750482 220.634692 
L 99.839884 222.302097 
L 85.36666 216.483627 
L 80.690481 219.264408 
L 57.012463 213.418686 
L 51.885616 208.417799 
L 58.537289 200.702602 
L 60.986717 175.076009 
L 47.71328 161.577239 
L 38.22632 155.069141 
L 18.56842 150.121763 
z
" clip-path="url(#pdf5a75f631)" style="fill: #e8edf4; stroke: #b8c5d4; stroke-width: 0.45"/>
    <path d="M -624.997153 737.218566 
L -621.716516 731.80922 
L -618.336506 720.391632 
L -623.38658 712.769493 
L -624.403907 703.969502 
L -617.707698 692.910188 
L -603.8686 697.369675 
L -590.249518 708.226919 
L -588.120145 713.494683 
L -595.72899 725.265893 
L -599.678982 734.737898 
L -604.608413 739.62379 
L -610.767211 740.543073 
L -612.521359 736.922109 
L -615.398522 736.384365 
L -619.380088 739.872057 
z
" clip-path="url(#pdf5a75f631)" style="fill: #e8edf4; stroke: #b8c5d4; stroke-width: 0.45"/>
    <path d="M 186.24451 223.419461 
L 188.840172 218.639588 
L 197.12369 213.727772 
L 199.31056 224.757506 
L 195.062448 234.693806 
L 189.222376 232.074879 
z
" clip-path="url(#pdf5a75f631)" style="fill: #e8edf4; stroke: #b8c5d4; stroke-width: 0.45"/>
    <path d="M 173.127944 328.368611 
L 181.05784 321.194149 
L 184.085558 310.585836 
L 182.046252 298.323744 
L 184.659196 291.721923 
L 198.667128 286.530932 
L 207.671183 288.07437 
L 207.293632 294.582468 
L 218.204052 289.848127 
L 219.119347 292.319157 
L 212.687689 298.621863 
L 212.601278 304.571611 
L 217.054782 307.767499 
L 215.361121 318.89993 
L 206.894146 325.366484 
L 209.33892 332.377097 
L 215.991259 332.595784 
L 219.228358 338.710711 
L 224.119901 340.721768 
L 223.392717 350.601567 
L 217.122582 354.29432 
L 213.162287 358.415473 
L 204.329725 363.372156 
L 205.697682 368.700408 
L 204.584306 374.135013 
L 198.308854 377.116202 
L 192.822402 354.02578 
L 184.892506 348.834457 
L 184.781501 345.720992 
L 174.261926 338.057641 
z
" clip-path="url(#pdf5a75f631)" style="fill: #e8edf4; stroke: #b8c5d4; stroke-width: 0.45"/>
    <path d="M -35.363182 414.570171 
L -35.230907 395.976459 
L -14.458966 386.484513 
L -1.614263 384.52331 
L 8.913954 381.066526 
L 13.833747 374.625563 
L 28.872964 369.534942 
L 29.425331 360.012087 
L 36.866672 358.890402 
L 42.685474 354.133129 
L 59.519054 351.965204 
L 61.877418 346.966311 
L 58.488102 344.233056 
L 54.045233 330.653857 
L 53.279496 322.830646 
L 48.431159 314.592328 
L 60.79628 307.563435 
L 74.702845 305.32771 
L 82.82351 300.020396 
L 95.210899 296.105301 
L 138.286254 292.768828 
L 144.773746 294.679182 
L 156.886613 289.609499 
L 170.631323 289.510126 
L 175.862528 292.502948 
L 184.659196 291.721923 
L 182.046252 298.323744 
L 184.085558 310.585836 
L 181.05784 321.194149 
L 173.127944 328.368611 
L 174.261926 338.057641 
L 184.781501 345.720992 
L 184.892506 348.834457 
L 192.822402 354.02578 
L 198.308854 377.116202 
L 202.469889 388.47297 
L 203.169155 394.449638 
L 200.903851 404.943291 
L 201.833104 410.807625 
L 200.198602 417.847485 
L 201.320619 425.934915 
L 196.215707 431.310029 
L 203.821228 440.68532 
L 204.304466 446.19703 
L 208.878282 453.36983 
L 214.891842 451.013129 
L 225.044502 456.989465 
L 230.689152 465.044658 
L 186.61342 489.561198 
L 149.371491 514.829516 
L 131.2331 520.565563 
L 116.964604 521.824841 
L 116.81704 513.641361 
L 102.852314 507.870417 
L 99.79402 501.843231 
z
" clip-path="url(#pdf5a75f631)" style="fill: #e8edf4; stroke: #b8c5d4; stroke-width: 0.45"/>
    <path d="M 218.184776 9.90219 
L 223.856014 2.490097 
L 234.559047 -6.327841 
L 238.813806 -21.449814 
L 230.593435 -27.968548 
L 229.802439 -45.04973 
L 238.155086 -57.113741 
L 250.914707 -56.893724 
L 255.390811 -61.991325 
L 250.705991 -66.385338 
L 270.678295 -84.481188 
L 292.036503 -107.892329 
L 304.388662 -107.848791 
L 307.793266 -115.011288 
L 332.035617 -112.950712 
L 333.922706 -121.413699 
L 341.90179 -121.942469 
L 379.125108 -106.889958 
L 379.46477 -87.081835 
L 383.80594 -82.076628 
L 361.679336 -78.434061 
L 349.206866 -69.459253 
L 351.214931 -61.581868 
L 305.914153 -40.175802 
L 296.547171 -22.062005 
L 305.702778 -12.999124 
L 318.00442 -5.864544 
L 306.190005 8.646568 
L 292.81221 11.655674 
L 287.905379 33.248522 
L 280.600303 45.298574 
L 264.996421 44.056246 
L 257.716604 54.257761 
L 242.823953 54.850011 
L 238.736035 42.690283 
L 227.967861 28.094422 
z
" clip-path="url(#pdf5a75f631)" style="fill: #e8edf4; stroke: #b8c5d4; stroke-width: 0.45"/>
    <path d="M 374.752033 91.827389 
L 382.4659 89.201815 
L 382.539682 84.074303 
L 378.971562 79.181431 
L 378.413212 73.491249 
L 390.8458 73.578657 
L 404.810526 68.732979 
L 407.795704 61.471441 
L 418.341202 57.352614 
L 417.132774 51.590976 
L 438.772816 44.464705 
L 452.314792 47.690504 
L 454.142058 50.883733 
L 460.891443 49.348271 
L 473.466277 52.415872 
L 474.725888 58.454026 
L 471.969368 61.924103 
L 480.033534 70.345546 
L 485.268063 72.691945 
L 484.49435 75.015078 
L 493.168047 77.278721 
L 496.873097 80.708252 
L 491.86789 83.521271 
L 481.489184 83.074883 
L 479.013881 84.276705 
L 482.034287 88.546419 
L 485.198196 96.783413 
L 474.156238 97.546486 
L 470.193284 100.370472 
L 469.36573 106.844339 
L 464.249518 105.601346 
L 452.641825 106.217525 
L 449.270456 103.21008 
L 444.444054 105.452452 
L 439.607681 103.593613 
L 429.477621 103.335376 
L 415.121385 100.2485 
L 402.127789 99.240479 
L 392.163239 99.525968 
L 385.114074 103.011999 
L 378.965579 103.513516 
L 378.720304 97.787108 
z
" clip-path="url(#pdf5a75f631)" style="fill: #e8edf4; stroke: #b8c5d4; stroke-width: 0.45"/>
    <path d="M 360.424379 144.110862 
L 362.935623 138.925521 
L 366.502415 135.576752 
L 369.310116 136.3272 
L 365.991924 130.546951 
L 377.672069 119.848571 
L 384.055203 118.351661 
L 385.43446 114.743326 
L 378.965579 103.513516 
L 385.114074 103.011999 
L 392.163239 99.525968 
L 402.127789 99.240479 
L 415.121385 100.2485 
L 429.477621 103.335376 
L 439.607681 103.593613 
L 444.444054 105.452452 
L 449.270456 103.21008 
L 452.641825 106.217525 
L 464.249518 105.601346 
L 469.36573 106.844339 
L 470.193284 100.370472 
L 474.156238 97.546486 
L 490.001766 97.303423 
L 493.251135 94.377851 
L 497.157589 95.023941 
L 510.495502 93.781281 
L 518.715208 101.064089 
L 515.502703 103.668392 
L 516.56822 107.661257 
L 526.824574 108.284083 
L 531.400208 113.861797 
L 531.119879 116.392452 
L 547.456262 120.915085 
L 557.325759 118.878105 
L 565.264296 124.901636 
L 572.780748 124.762713 
L 591.741138 128.948412 
L 591.892263 132.72518 
L 586.66819 139.460254 
L 589.510476 146.552914 
L 587.486617 150.8423 
L 575.039216 151.785361 
L 568.409002 155.376898 
L 568.002869 161.090677 
L 557.733222 162.119304 
L 549.175847 166.280671 
L 537.134103 166.959 
L 526.054849 171.753828 
L 526.702068 178.641473 
L 524.761502 178.249709 
L 523.092239 175.709526 
L 509.810714 172.443578 
L 506.421712 175.629113 
L 504.6541 174.231173 
L 484.659861 170.980115 
L 483.774477 166.183625 
L 471.856369 167.76761 
L 467.082478 174.851008 
L 457.122582 184.35791 
L 451.288491 182.150434 
L 445.243691 184.219984 
L 439.503988 181.849989 
L 442.741752 180.452785 
L 448.510037 171.938616 
L 447.60006 169.635423 
L 450.290109 168.609123 
L 451.557696 170.389527 
L 459.137959 170.766081 
L 462.542563 169.814892 
L 460.144318 168.510747 
L 461.052965 166.593746 
L 456.561573 163.323744 
L 454.702401 157.946304 
L 450.016916 155.842189 
L 450.940852 151.483405 
L 445.129362 148.022634 
L 439.838333 147.54139 
L 430.358352 143.533901 
L 421.808289 144.80614 
L 418.740688 146.7032 
L 413.31406 146.701206 
L 410.078955 149.707654 
L 400.583686 150.943667 
L 396.191999 152.918497 
L 390.220315 149.775453 
L 381.974021 149.727595 
L 374.015543 148.303138 
L 368.462621 151.057664 
L 367.565938 147.609854 
z
" clip-path="url(#pdf5a75f631)" style="fill: #e8edf4; stroke: #b8c5d4; stroke-width: 0.45"/>
    <path d="M 257.3796 85.469513 
L 260.965668 82.036327 
L 257.96055 75.491005 
L 266.748576 71.713503 
L 303.020705 61.412615 
L 315.858097 63.585526 
L 316.827897 66.722587 
L 345.074413 68.34579 
L 368.727173 68.152694 
L 375.324341 69.528627 
L 378.413212 73.491249 
L 378.971562 79.181431 
L 382.539682 84.074303 
L 382.4659 89.201815 
L 374.752033 91.827389 
L 378.720304 97.787108 
L 378.965579 103.513516 
L 385.43446 114.743326 
L 384.055203 118.351661 
L 377.672069 119.848571 
L 365.991924 130.546951 
L 369.310116 136.3272 
L 354.278543 130.632697 
L 345.019243 132.450658 
L 338.946524 131.129895 
L 331.346985 133.886747 
L 324.860157 129.327555 
L 319.571788 131.073395 
L 312.926096 123.963077 
L 303.363027 123.18604 
L 302.142634 119.15861 
L 293.321372 117.720194 
L 291.401048 121.041711 
L 284.413699 118.380908 
L 285.215995 114.842034 
L 275.599085 113.723008 
L 269.502437 109.581914 
L 264.23002 101.368855 
L 265.232391 96.934295 
L 262.049797 90.053963 
z
" clip-path="url(#pdf5a75f631)" style="fill: #e8edf4; stroke: #b8c5d4; stroke-width: 0.45"/>
    <path d="M 198.280936 161.082701 
L 200.248454 157.934007 
L 199.750592 155.65142 
L 203.633117 154.942183 
L 210.14188 158.514292 
L 211.973799 155.119658 
L 223.317605 155.668037 
L 232.513759 153.361521 
L 238.6802 153.756354 
L 242.691678 156.389904 
L 243.8908 154.204031 
L 242.067522 145.823135 
L 246.688531 144.189962 
L 251.223794 138.259489 
L 260.780216 142.399586 
L 268.016163 137.137472 
L 272.543449 136.176978 
L 282.527939 140.102376 
L 288.568752 139.434683 
L 294.49856 141.863504 
L 293.465612 143.496677 
L 294.747823 147.953837 
L 293.771375 153.209969 
L 286.527452 153.235228 
L 289.018755 156.022988 
L 284.748709 164.303847 
L 282.296623 166.474764 
L 271.047205 166.795151 
L 264.556389 169.713525 
L 235.538154 165.394956 
L 232.664646 160.920846 
L 219.952883 163.156571 
L 218.457304 165.60334 
L 204.101068 163.424779 
z
" clip-path="url(#pdf5a75f631)" style="fill: #e8edf4; stroke: #b8c5d4; stroke-width: 0.45"/>
    <path d="M 284.748709 164.303847 
L 289.018755 156.022988 
L 286.527452 153.235228 
L 293.771375 153.209969 
L 294.747823 147.953837 
L 306.034465 152.649625 
L 316.831221 151.073617 
L 317.866827 148.490584 
L 336.672579 145.328929 
L 339.688997 142.30254 
L 343.904537 141.517859 
L 357.679824 145.42664 
L 360.424379 144.110862 
L 367.565938 147.609854 
L 368.462621 151.057664 
L 360.606507 153.755689 
L 354.519165 162.47924 
L 346.742815 171.202126 
L 336.429962 173.628288 
L 328.40169 173.058971 
L 313.738362 178.361632 
L 303.113763 175.888275 
L 289.411594 168.78826 
L 286.912314 164.446093 
z
" clip-path="url(#pdf5a75f631)" style="fill: #e8edf4; stroke: #b8c5d4; stroke-width: 0.45"/>
    <path d="M 418.740688 146.7032 
L 421.808289 144.80614 
L 430.358352 143.533901 
L 439.838333 147.54139 
L 445.129362 148.022634 
L 450.940852 151.483405 
L 450.016916 155.842189 
L 454.702401 157.946304 
L 456.561573 163.323744 
L 461.052965 166.593746 
L 460.144318 168.510747 
L 462.542563 169.814892 
L 459.137959 170.766081 
L 451.557696 170.389527 
L 450.290109 168.609123 
L 447.60006 169.635423 
L 448.510037 171.938616 
L 442.741752 180.452785 
L 439.503988 181.849989 
L 437.20013 175.980669 
L 438.558117 170.488568 
L 438.146666 164.842921 
L 422.661766 147.956828 
z
" clip-path="url(#pdf5a75f631)" style="fill: #e8edf4; stroke: #b8c5d4; stroke-width: 0.45"/>
    <path d="M 336.429962 173.628288 
L 346.742815 171.202126 
L 354.519165 162.47924 
L 360.606507 153.755689 
L 374.015543 148.303138 
L 381.974021 149.727595 
L 390.220315 149.775453 
L 396.191999 152.918497 
L 400.583686 150.943667 
L 410.078955 149.707654 
L 413.31406 146.701206 
L 418.740688 146.7032 
L 422.661766 147.956828 
L 438.146666 164.842921 
L 438.558117 170.488568 
L 437.20013 175.980669 
L 439.503988 181.849989 
L 445.243691 184.219984 
L 451.288491 182.150434 
L 457.122582 184.35791 
L 457.421698 187.675438 
L 451.184133 190.443257 
L 447.277014 189.238485 
L 443.678317 204.756288 
L 436.115337 203.405613 
L 426.755002 198.729766 
L 411.612423 201.720261 
L 405.233942 205.000898 
L 386.343773 204.324231 
L 376.460317 202.31816 
L 371.476381 203.260043 
L 365.42028 195.729633 
L 368.400804 193.558716 
L 365.227516 191.957116 
L 361.189451 194.839597 
L 353.689617 191.102642 
L 352.679935 185.800313 
L 344.843761 182.774922 
L 343.401358 178.682018 
z
" clip-path="url(#pdf5a75f631)" style="fill: #e8edf4; stroke: #b8c5d4; stroke-width: 0.45"/>
    <path d="M 347.178195 46.240457 
L 361.910653 42.295117 
L 383.482895 43.120013 
L 396.119546 41.848438 
L 397.923548 44.523864 
L 404.767985 45.350088 
L 417.132774 51.590976 
L 418.341202 57.352614 
L 407.795704 61.471441 
L 404.810526 68.732979 
L 390.8458 73.578657 
L 378.413212 73.491249 
L 375.324341 69.528627 
L 368.727173 68.152694 
L 367.697549 64.870063 
L 369.070159 61.347806 
L 363.384297 59.306174 
L 349.913444 57.052833 
z
" clip-path="url(#pdf5a75f631)" style="fill: #e8edf4; stroke: #b8c5d4; stroke-width: 0.45"/>
    <path d="M 347.178195 46.240457 
L 347.623546 36.557409 
L 353.944863 28.479617 
L 366.0677 24.086933 
L 376.282177 33.697196 
L 386.601677 33.446935 
L 389.073039 23.571789 
L 400.028659 21.298507 
L 416.736611 27.649736 
L 427.343928 27.673665 
L 433.54161 30.635578 
L 434.638369 36.873142 
L 438.772816 44.464705 
L 417.132774 51.590976 
L 404.767985 45.350088 
L 397.923548 44.523864 
L 396.119546 41.848438 
L 383.482895 43.120013 
L 361.910653 42.295117 
z
" clip-path="url(#pdf5a75f631)" style="fill: #e8edf4; stroke: #b8c5d4; stroke-width: 0.45"/>
    <path d="M 376.556699 5.643443 
L 392.82063 2.059702 
L 409.027397 0.191557 
L 422.982817 2.317606 
L 436.257082 1.937254 
L 438.19386 4.182428 
L 429.041365 11.594665 
L 432.855637 23.591397 
L 427.343928 27.673665 
L 416.736611 27.649736 
L 400.028659 21.298507 
L 389.073039 23.571789 
L 390.56596 15.982885 
L 385.83594 17.604093 
L 377.672734 13.032937 
z
" clip-path="url(#pdf5a75f631)" style="fill: #e8edf4; stroke: #b8c5d4; stroke-width: 0.45"/>
    <path d="M 153.372997 99.999901 
L 161.100159 99.994583 
L 164.360523 95.152893 
L 167.565717 83.375701 
L 165.161489 79.026556 
L 167.673398 76.302606 
L 178.42429 75.60334 
L 180.809906 78.439624 
L 189.544092 72.098366 
L 186.60345 67.276617 
L 186.013194 59.982176 
L 195.735127 61.678495 
L 203.965468 59.720283 
L 204.192797 64.691258 
L 217.191046 67.688732 
L 217.054118 72.253906 
L 230.132796 69.838378 
L 237.36409 66.315457 
L 251.886502 71.394446 
L 257.96055 75.491005 
L 260.965668 82.036327 
L 257.3796 85.469513 
L 262.049797 90.053963 
L 265.232391 96.934295 
L 264.23002 101.368855 
L 269.502437 109.581914 
L 263.76207 110.923948 
L 260.370095 109.44565 
L 257.144295 111.89408 
L 247.907595 114.385384 
L 243.13171 117.590245 
L 233.784005 120.390967 
L 236.036015 124.214002 
L 237.397325 129.638303 
L 243.961259 132.729833 
L 251.223794 138.259489 
L 246.688531 144.189962 
L 242.067522 145.823135 
L 243.8908 154.204031 
L 242.691678 156.389904 
L 238.6802 153.756354 
L 232.513759 153.361521 
L 223.317605 155.668037 
L 211.973799 155.119658 
L 210.14188 158.514292 
L 203.633117 154.942183 
L 199.750592 155.65142 
L 185.966665 151.718378 
L 183.325803 154.512785 
L 172.385472 154.422718 
L 174.01798 145.258803 
L 180.521425 136.450835 
L 161.985542 134.081837 
L 155.915483 130.713791 
L 156.641338 125.074458 
L 154.072929 122.16971 
L 155.533944 113.47873 
z
" clip-path="url(#pdf5a75f631)" style="fill: #e8edf4; stroke: #b8c5d4; stroke-width: 0.45"/>
    <path d="M 364.217834 222.599551 
L 366.33358 220.784582 
L 364.939035 219.254438 
L 367.102641 215.161534 
L 372.006148 211.140087 
L 365.756619 205.58783 
L 364.602696 200.889716 
L 367.775984 197.971673 
L 371.476381 203.260043 
L 376.460317 202.31816 
L 386.343773 204.324231 
L 405.233942 205.000898 
L 411.612423 201.720261 
L 426.755002 198.729766 
L 436.115337 203.405613 
L 443.678317 204.756288 
L 437.002714 210.085204 
L 432.305264 219.285679 
L 436.457658 226.624322 
L 425.383056 224.899088 
L 412.279784 228.945462 
L 412.139532 235.351196 
L 400.448086 236.565607 
L 391.385538 232.071224 
L 381.087973 235.606109 
L 371.573427 235.234209 
L 370.660126 226.728016 
z
" clip-path="url(#pdf5a75f631)" style="fill: #e8edf4; stroke: #b8c5d4; stroke-width: 0.45"/>
    <path d="M 335.527297 257.268086 
L 341.508286 251.029525 
L 342.280005 246.849213 
L 346.460317 244.984059 
L 346.718221 241.604713 
L 355.132021 240.465746 
L 360.035528 237.654057 
L 367.006259 237.90332 
L 369.121691 235.661174 
L 381.087973 235.606109 
L 391.385538 232.071224 
L 400.448086 236.565607 
L 412.139532 235.351196 
L 412.279784 228.945462 
L 418.545931 232.351396 
L 414.5637 240.401603 
L 411.506735 241.844006 
L 396.957736 240.26268 
L 381.380442 243.606132 
L 390.296756 250.836761 
L 383.76207 252.933231 
L 376.59791 252.946193 
L 369.793355 246.321772 
L 367.379157 249.144429 
L 370.253329 256.826724 
L 376.68831 262.863216 
L 371.839973 265.681553 
L 379.003467 271.610031 
L 385.370649 275.340339 
L 385.563412 282.607527 
L 373.665245 279.198935 
L 377.459364 285.759212 
L 369.291505 287.109555 
L 374.169754 298.461005 
L 365.626337 298.621863 
L 355.078844 293.026733 
L 350.255101 282.73648 
L 348.00442 274.17844 
L 336.398057 260.930927 
z
" clip-path="url(#pdf5a75f631)" style="fill: #e8edf4; stroke: #b8c5d4; stroke-width: 0.45"/>
    <path d="M 378.810039 313.156904 
L 381.189672 307.690061 
L 388.221556 312.024584 
L 398.233299 311.29175 
L 407.805674 312.204718 
L 407.494593 314.443102 
L 414.504542 312.899664 
L 412.896627 316.694116 
L 394.374039 317.787551 
L 394.502991 315.665157 
z
" clip-path="url(#pdf5a75f631)" style="fill: #e8edf4; stroke: #b8c5d4; stroke-width: 0.45"/>
    <path d="M 412.971074 259.343951 
L 427.238905 247.041977 
L 447.047027 246.527497 
L 452.449726 236.752056 
L 476.965269 238.45469 
L 492.426905 230.111349 
L 507.415937 226.475097 
L 528.696375 226.201572 
L 551.147353 235.268108 
L 569.599483 240.243071 
L 584.583863 238.259933 
L 595.656471 239.405879 
L 610.84292 232.691723 
L 624.547747 232.080529 
L 636.93713 238.396529 
L 639.12267 242.923482 
L 637.884995 249.182982 
L 647.449394 252.380199 
L 652.517083 256.136098 
L 643.709115 259.800269 
L 647.72458 274.552003 
L 645.208018 278.535562 
L 652.242943 288.840538 
L 646.078778 291.01335 
L 641.561462 287.737034 
L 626.600348 286.077272 
L 621.075344 288.076032 
L 606.443921 290.076453 
L 599.513072 289.858763 
L 584.71215 294.685165 
L 574.130093 294.725379 
L 567.284991 292.303537 
L 553.123512 295.881628 
L 548.913954 293.380022 
L 548.218011 300.555149 
L 541.328374 306.191158 
L 536.599018 300.358397 
L 541.47062 295.52701 
L 533.625806 296.622439 
L 522.867602 293.662853 
L 514.022411 301.066305 
L 494.50011 302.512032 
L 484.086887 295.608436 
L 470.221201 295.176379 
L 467.255965 300.51294 
L 458.366239 302.038764 
L 445.927004 295.189673 
L 431.884508 295.421322 
L 424.264363 282.628798 
L 414.867469 275.492888 
L 421.124975 265.490451 
z
" clip-path="url(#pdf5a75f631)" style="fill: #e8edf4; stroke: #b8c5d4; stroke-width: 0.45"/>
    <path d="M 411.331919 244.498494 
L 411.506735 241.844006 
L 414.5637 240.401603 
L 418.545931 232.351396 
L 412.279784 228.945462 
L 425.383056 224.899088 
L 436.457658 226.624322 
L 437.985808 231.569706 
L 449.213956 235.723762 
L 446.872875 238.874782 
L 431.599351 239.584019 
L 415.37929 250.489454 
z
" clip-path="url(#pdf5a75f631)" style="fill: #e8edf4; stroke: #b8c5d4; stroke-width: 0.45"/>
    <path d="M 324.651441 224.201151 
L 330.228292 217.866207 
L 331.045875 220.286388 
L 334.507075 219.147563 
L 337.247546 222.599551 
L 340.324263 223.916564 
L 341.189894 228.578879 
L 339.555392 232.956274 
L 341.381993 238.472637 
L 346.718221 241.604713 
L 346.460317 244.984059 
L 342.280005 246.849213 
L 341.508286 251.029525 
L 335.527297 257.268086 
L 333.340427 256.367747 
L 333.083187 253.537778 
L 325.958245 249.218876 
L 324.838887 243.090323 
L 325.925675 234.313596 
L 327.681153 230.320731 
L 325.516883 228.294054 
z
" clip-path="url(#pdf5a75f631)" style="fill: #e8edf4; stroke: #b8c5d4; stroke-width: 0.45"/>
    <path d="M 252.008807 186.369298 
L 252.755932 181.695113 
L 261.720105 182.134481 
L 264.075809 179.963564 
L 268.450878 182.063358 
L 273.498626 182.312621 
L 273.450767 178.717912 
L 277.921554 177.401137 
L 279.171858 172.205161 
L 289.411594 168.78826 
L 303.113763 175.888275 
L 313.738362 178.361632 
L 318.545981 176.440046 
L 321.670917 181.422585 
L 325.757505 185.088417 
L 320.805453 189.928435 
L 314.988002 187.081194 
L 306.094288 187.259334 
L 295.036968 185.123646 
L 289.027397 185.408804 
L 286.238971 188.077583 
L 281.623944 185.123646 
L 278.931236 190.462534 
L 288.017714 200.462977 
L 298.834411 208.115027 
L 303.690725 213.488812 
L 315.075287 218.358175 
L 313.660592 220.544957 
L 301.568996 215.78569 
L 294.109044 211.155043 
L 282.344482 207.332008 
L 271.527784 197.865321 
L 274.123446 196.904162 
L 268.258779 191.494484 
L 268.018157 187.152317 
L 259.749263 185.123646 
L 255.806915 190.675903 
z
" clip-path="url(#pdf5a75f631)" style="fill: #e8edf4; stroke: #b8c5d4; stroke-width: 0.45"/>
    <path d="M 153.809707 171.756487 
L 153.999811 165.932367 
L 163.406676 158.704397 
L 162.993231 155.436056 
L 168.853909 156.619891 
L 172.385472 154.422718 
L 183.325803 154.512785 
L 185.966665 151.718378 
L 199.750592 155.65142 
L 200.248454 157.934007 
L 198.280936 161.082701 
L 204.101068 163.424779 
L 210.664336 163.774412 
L 209.644018 169.047826 
L 203.977433 171.217414 
L 194.459564 169.605511 
L 191.673797 174.792846 
L 185.546573 175.201638 
L 183.317162 173.162997 
L 176.105809 177.525437 
L 169.904139 178.136963 
L 164.369829 175.381772 
L 159.951554 169.74111 
z
" clip-path="url(#pdf5a75f631)" style="fill: #e8edf4; stroke: #b8c5d4; stroke-width: 0.45"/>
    <path d="M 149.326291 129.868955 
L 150.720171 122.654943 
L 154.072929 122.16971 
L 156.641338 125.074458 
L 155.915483 130.713791 
L 152.203786 130.985654 
z
" clip-path="url(#pdf5a75f631)" style="fill: #e8edf4; stroke: #b8c5d4; stroke-width: 0.45"/>
    <path d="M 108.673775 109.043838 
L 118.981975 106.506338 
L 128.39881 107.516352 
L 140.321571 104.843918 
L 148.463508 110.474277 
L 155.533944 113.47873 
L 154.072929 122.16971 
L 150.720171 122.654943 
L 149.326291 129.868955 
L 138.073549 124.004953 
L 131.472392 125.006659 
L 116.51593 113.779176 
L 110.536935 113.567136 
z
" clip-path="url(#pdf5a75f631)" style="fill: #e8edf4; stroke: #b8c5d4; stroke-width: 0.45"/>
    <path d="M 118.981975 106.50667 
L 125.610385 102.972116 
L 136.874426 84.047715 
L 154.473079 78.663296 
L 165.161489 79.026556 
L 167.565717 83.375701 
L 164.360523 95.152893 
L 161.100159 99.994583 
L 153.372997 99.999901 
L 155.533944 113.47873 
L 148.463508 110.474277 
L 140.321571 104.843918 
L 128.39881 107.516352 
z
" clip-path="url(#pdf5a75f631)" style="fill: #e8edf4; stroke: #b8c5d4; stroke-width: 0.45"/>
    <path d="M -44.476248 213.513738 
L -26.279364 204.230508 
L -10.539218 206.551316 
L 6.730408 206.46989 
L 20.416956 208.66673 
L 51.885616 208.417799 
L 57.012463 213.418686 
L 80.690481 219.264408 
L 85.36666 216.483627 
L 99.839884 222.302097 
L 114.750482 220.634692 
L 115.438448 228.106608 
L 103.249141 236.673621 
L 86.767852 239.392253 
L 85.620577 243.719463 
L 77.71461 250.850387 
L 72.757262 261.32011 
L 77.773768 268.670718 
L 70.333758 274.409424 
L 67.551979 282.770379 
L 57.840682 285.333803 
L 48.732933 295.224238 
L 20.14609 295.176712 
L 12.089901 299.718954 
L 7.177087 304.579255 
L 0.883688 303.512076 
L -3.878903 299.166254 
L -7.525458 291.767122 
L -19.533302 289.77501 
L -20.605799 285.515931 
L -15.838888 280.692521 
L -14.073771 277.195523 
L -18.508996 273.371492 
L -14.958157 264.920469 
L -20.110928 257.20926 
L -14.553686 256.15039 
L -14.03688 250.071024 
L -11.948054 248.188588 
L -11.782211 238.152915 
L -5.839109 234.670541 
L -9.434483 228.218943 
L -16.929664 227.769272 
L -19.131822 229.393471 
L -26.729367 229.408759 
L -29.953837 223.111372 
L -35.202989 224.986496 
L -39.870527 228.255169 
L -39.222443 219.094244 
z
" clip-path="url(#pdf5a75f631)" style="fill: #e8edf4; stroke: #b8c5d4; stroke-width: 0.45"/>
    <path d="M 163.165389 187.763843 
L 167.624875 183.846089 
L 163.839397 179.016363 
L 164.369829 175.381772 
L 169.904139 178.136963 
L 176.105809 177.525437 
L 183.317162 173.162997 
L 185.546573 175.201638 
L 191.673797 174.792846 
L 194.459564 169.605511 
L 203.977433 171.217414 
L 209.644018 169.047826 
L 210.664336 163.774412 
L 218.457304 165.60334 
L 219.952883 163.156571 
L 232.664646 160.920846 
L 235.538154 165.394956 
L 253.93179 168.716804 
L 252.53791 175.05208 
L 255.618804 180.528561 
L 245.379733 178.654766 
L 234.921975 183.21994 
L 235.633206 189.605068 
L 234.058527 193.269571 
L 238.274732 199.818216 
L 250.335752 206.296402 
L 256.804633 216.930307 
L 271.117663 227.296004 
L 281.197206 227.216572 
L 284.331941 230.059503 
L 280.723273 232.621929 
L 301.687313 241.162022 
L 312.717379 247.870196 
L 314.049442 250.272429 
L 311.64588 254.878482 
L 304.506979 248.872899 
L 293.332007 246.756155 
L 287.918673 255.076231 
L 297.215197 259.844472 
L 295.689041 266.556633 
L 290.315589 267.319379 
L 283.445228 278.35144 
L 278.083076 279.342511 
L 278.132929 275.409801 
L 280.757173 268.510858 
L 283.55291 265.763311 
L 274.604026 251.822514 
L 269.264474 250.219917 
L 265.46703 244.668325 
L 257.20146 242.329903 
L 251.635909 237.159851 
L 242.118704 236.326314 
L 220.301187 222.147221 
L 211.555037 214.737787 
L 207.542895 202.022368 
L 201.143143 200.526788 
L 190.678738 196.281336 
L 184.756907 198.0192 
L 177.324873 203.988557 
L 171.979339 204.931437 
L 173.450989 199.348271 
L 166.478929 197.716428 
z
" clip-path="url(#pdf5a75f631)" style="fill: #e8edf4; stroke: #b8c5d4; stroke-width: 0.45"/>
    <path d="M 236.239414 283.148595 
L 238.039428 276.544447 
L 253.091607 277.720305 
L 275.9773 275.196764 
L 271.344991 285.321174 
L 273.269968 289.306395 
L 270.569949 295.920846 
L 260.733022 291.076165 
L 254.192353 289.688267 
z
" clip-path="url(#pdf5a75f631)" style="fill: #e8edf4; stroke: #b8c5d4; stroke-width: 0.45"/>
    <path d="M 181.30245 240.224792 
L 188.376875 240.868224 
L 194.808532 236.880676 
L 202.525724 246.013018 
L 200.719063 263.025736 
L 194.87035 262.214135 
L 189.623856 266.508442 
L 184.753584 263.096859 
L 184.238439 247.578391 
z
" clip-path="url(#pdf5a75f631)" style="fill: #e8edf4; stroke: #b8c5d4; stroke-width: 0.45"/>
    <path d="M 180.401779 39.694138 
L 186.23454 32.362474 
L 197.567046 31.564167 
L 202.083032 28.015654 
L 212.43045 24.387378 
L 211.994405 31.002493 
L 208.185662 35.192111 
L 209.7291 38.794131 
L 216.703155 40.741044 
L 213.559779 45.593369 
L 209.7291 44.196165 
L 200.467806 53.45746 
L 203.965468 59.720283 
L 195.735127 61.678495 
L 186.013194 59.982176 
L 180.791959 52.843607 
z
" clip-path="url(#pdf5a75f631)" style="fill: #e8edf4; stroke: #b8c5d4; stroke-width: 0.45"/>
    <path d="M 216.596802 49.470577 
L 235.466366 45.207177 
L 239.570901 51.656782 
L 231.853045 62.075323 
L 218.392828 54.809796 
z
" clip-path="url(#pdf5a75f631)" style="fill: #e8edf4; stroke: #b8c5d4; stroke-width: 0.45"/>
    <path d="M -2.763533 36.542785 
L 1.907661 23.244755 
L 11.899796 12.810926 
L 22.170773 13.82925 
L 37.689573 12.746782 
L 23.941539 26.663983 
L 37.046473 24.901857 
L 51.140484 24.968992 
L 47.787062 35.44935 
L 36.22324 46.977279 
L 49.523264 47.797854 
L 62.000387 64.326669 
L 70.805031 66.392563 
L 82.387466 86.128898 
L 97.971406 88.57899 
L 96.408027 96.80501 
L 89.855394 100.576862 
L 94.991547 107.231195 
L 83.421077 113.967286 
L 66.212605 113.848305 
L 44.313994 117.385185 
L 38.316387 114.853002 
L 29.811856 120.879523 
L 17.913023 119.419838 
L 8.876731 124.331322 
L 2.039605 121.762913 
L 20.903851 108.252842 
L 32.41782 105.474388 
L 12.229488 103.32042 
L 8.590244 98.201882 
L 22.031185 94.214999 
L 14.986672 87.286476 
L 17.430782 78.861377 
L 36.547027 80.024897 
L 38.461292 72.558672 
L 29.650333 64.454956 
L 14.032825 62.191645 
L 10.966886 58.710601 
L 15.641404 52.962589 
L 11.41124 49.41873 
L 4.485709 55.500754 
L 3.731936 43.10273 
z
" clip-path="url(#pdf5a75f631)" style="fill: #e8edf4; stroke: #b8c5d4; stroke-width: 0.45"/>
    <path d="M -21.056799 71.594521 
L -18.405302 64.701561 
L -21.056799 57.809929 
L -10.273669 57.279497 
L 3.513914 65.231993 
L -3.379711 74.069207 
L -13.101977 71.417711 
z
" clip-path="url(#pdf5a75f631)" style="fill: #e8edf4; stroke: #b8c5d4; stroke-width: 0.45"/>
    <path d="M 252.53791 175.05208 
L 253.93179 168.716804 
L 264.556389 169.713525 
L 271.047205 166.795151 
L 282.296623 166.474764 
L 284.748709 164.303847 
L 286.912314 164.446093 
L 289.411594 168.78826 
L 279.171858 172.205161 
L 277.921554 177.401137 
L 273.450767 178.717912 
L 273.498626 182.312621 
L 268.450878 182.063358 
L 264.075809 179.963564 
L 261.720105 182.134481 
L 252.755932 181.695113 
L 255.618804 180.528561 
z
" clip-path="url(#pdf5a75f631)" style="fill: #e8edf4; stroke: #b8c5d4; stroke-width: 0.45"/>
    <path d="M 293.465612 143.496677 
L 296.321173 139.033867 
L 302.019664 139.25189 
L 306.412015 137.921156 
L 306.759654 136.724692 
L 309.222376 136.113831 
L 310.065218 133.187148 
L 313.01716 132.627801 
L 315.010602 130.312311 
L 318.845933 130.296691 
L 319.571788 131.073395 
L 324.860157 129.327555 
L 331.346985 133.886747 
L 338.946524 131.129895 
L 345.019243 132.450658 
L 354.278543 130.632697 
L 366.502415 135.576752 
L 362.935623 138.925521 
L 360.424379 144.110862 
L 357.679824 145.42664 
L 343.904537 141.517859 
L 339.688997 142.30254 
L 336.672579 145.328929 
L 317.866827 148.490584 
L 316.831221 151.073617 
L 306.034465 152.649625 
L 294.747823 147.953837 
z
" clip-path="url(#pdf5a75f631)" style="fill: #e8edf4; stroke: #b8c5d4; stroke-width: 0.45"/>
    <path d="M 233.784005 120.390967 
L 243.13171 117.590245 
L 247.907595 114.385384 
L 257.144295 111.89408 
L 260.370095 109.44565 
L 263.76207 110.923948 
L 269.502437 109.581914 
L 275.599085 113.723008 
L 285.215995 114.842034 
L 284.413699 118.380908 
L 291.401048 121.041711 
L 293.321372 117.720194 
L 302.142634 119.15861 
L 303.363027 123.18604 
L 312.926096 123.963077 
L 318.845933 130.296691 
L 315.010602 130.312311 
L 313.01716 132.627801 
L 310.065218 133.187148 
L 309.222376 136.113831 
L 306.759654 136.724692 
L 306.412015 137.921156 
L 302.019664 139.25189 
L 296.321173 139.033867 
L 294.49856 141.863504 
L 288.568752 139.434683 
L 282.527939 140.102376 
L 272.543449 136.176978 
L 268.016163 137.137472 
L 260.780216 142.399586 
L 251.223794 138.259489 
L 243.961259 132.729833 
L 237.397325 129.638303 
L 236.036015 124.214002 
z
" clip-path="url(#pdf5a75f631)" style="fill: #e8edf4; stroke: #b8c5d4; stroke-width: 0.45"/>
    <path d="M -142.587608 491.405081 
L -141.980735 485.444033 
L -137.040004 481.939059 
L -132.831111 475.236203 
L -133.660659 470.883069 
L -129.238396 461.807226 
L -122.078889 453.629396 
L -117.748355 451.556855 
L -114.343751 444.054362 
L -114.038653 437.201948 
L -109.395376 429.250782 
L -100.827034 424.562638 
L -92.673798 411.426463 
L -85.970942 406.306595 
L -74.009627 404.885794 
L -63.87425 396.094111 
L -57.42531 392.666907 
L -46.687712 381.926651 
L -49.902212 365.923283 
L -45.015322 354.856658 
L -43.29042 348.083343 
L -35.016873 339.393693 
L -12.572209 328.200109 
L 0.066104 306.982818 
L 9.534786 307.044635 
L 17.289201 312.504499 
L 29.521049 311.615127 
L 42.843673 314.454735 
L 48.431159 314.592328 
L 53.279496 322.830646 
L 54.045233 330.653857 
L 58.488102 344.233056 
L 61.877418 346.966311 
L 59.519054 351.965204 
L 42.685474 354.133129 
L 36.866672 358.890402 
L 29.425331 360.012087 
L 28.872964 369.534942 
L 13.833747 374.625563 
L 8.913954 381.066526 
L -1.614263 384.52331 
L -14.458966 386.484513 
L -35.230907 395.976459 
L -35.121231 411.217081 
L -37.079443 411.217081 
L -36.784316 418.108048 
L -44.735482 418.52249 
L -48.881229 421.449173 
L -54.721966 421.449173 
L -59.376211 419.778777 
L -70.197561 421.160028 
L -74.386513 431.1844 
L -78.406632 432.126283 
L -84.454756 448.34302 
L -102.335908 462.22333 
L -106.58136 479.984834 
L -111.850786 485.76309 
L -113.395886 490.398058 
z
" clip-path="url(#pdf5a75f631)" style="fill: #e8edf4; stroke: #b8c5d4; stroke-width: 0.45"/>
    <path d="M 394.0536 380.503819 
L 397.366406 372.562216 
L 395.375892 367.060937 
L 400.031572 360.888608 
L 417.145617 360.675986 
L 448.25037 369.880971 
L 458.153288 365.805917 
L 463.447733 362.120218 
L 474.791411 361.059554 
L 483.937227 362.683608 
L 487.441689 369.063542 
L 490.426623 364.86076 
L 500.735491 367.899847 
L 510.761764 368.628009 
L 517.090761 365.387877 
L 525.54366 387.486503 
L 521.931022 392.656179 
L 519.163082 402.373102 
L 515.663894 409.070618 
L 512.664939 411.316458 
L 502.572809 401.42563 
L 493.394836 382.987749 
L 492.072929 384.153759 
L 497.402747 397.726555 
L 505.299717 410.658012 
L 515.02127 430.693321 
L 523.903271 444.95196 
L 535.445549 459.191562 
L 532.889845 461.434057 
L 533.304798 469.793958 
L 550.544127 483.974391 
L 397.91153 483.974391 
L 397.91153 390.865237 
z
" clip-path="url(#pdf5a75f631)" style="fill: #e8edf4; stroke: #b8c5d4; stroke-width: 0.45"/>
    <path d="M 196.215707 431.310029 
L 201.320619 425.934915 
L 200.198602 417.847485 
L 201.833104 410.807625 
L 200.903851 404.943291 
L 203.169155 394.449638 
L 202.469889 388.47297 
L 198.308854 377.116202 
L 204.584306 374.135013 
L 205.697682 368.700408 
L 204.329725 363.372156 
L 213.162287 358.415473 
L 217.122582 354.29432 
L 223.392717 350.601567 
L 224.119901 340.721768 
L 239.227515 345.149336 
L 244.629236 344.042623 
L 255.375051 346.188905 
L 272.443305 351.93702 
L 278.467069 363.369708 
L 308.143411 371.250599 
L 321.846378 377.645711 
L 328.118651 374.308723 
L 334.283905 368.39262 
L 331.286623 358.539352 
L 335.320902 352.282771 
L 344.589171 346.255277 
L 353.444675 344.500795 
L 370.845174 347.132775 
L 375.231893 352.883591 
L 380.021088 352.938001 
L 384.116209 355.132261 
L 396.897172 356.641193 
L 400.031572 360.888608 
L 395.375892 367.060937 
L 397.366406 372.562216 
L 394.0536 380.503819 
L 397.91153 390.865237 
L 397.91153 509.66083 
L 383.119344 509.699932 
L 382.960617 515.096251 
L 280.356739 465.841486 
L 258.27163 477.655054 
L 251.037013 470.5906 
L 230.689152 465.044658 
L 225.044502 456.989465 
L 214.891842 451.013129 
L 208.878282 453.36983 
L 204.304466 446.19703 
L 203.821228 440.68532 
z
" clip-path="url(#pdf5a75f631)" style="fill: #e8edf4; stroke: #b8c5d4; stroke-width: 0.45"/>
    <path d="M 278.931236 190.462534 
L 281.623944 185.123646 
L 286.238971 188.077583 
L 289.027397 185.408804 
L 295.036968 185.123646 
L 306.094288 187.259334 
L 314.988002 187.081194 
L 320.805394 189.928493 
L 325.468791 189.892863 
L 322.247696 195.551582 
L 328.449481 200.498603 
L 326.574604 206.548865 
L 321.142013 208.292671 
L 316.959425 211.282236 
L 315.075287 218.358175 
L 303.690725 213.488812 
L 298.834411 208.115027 
L 288.017714 200.462977 
z
" clip-path="url(#pdf5a75f631)" style="fill: #e8edf4; stroke: #b8c5d4; stroke-width: 0.45"/>
    <path d="M 339.555392 232.956274 
L 341.189883 228.578818 
L 342.824271 228.685565 
L 343.401166 226.051912 
L 358.256637 222.813324 
L 364.217834 222.599551 
L 370.660126 226.728016 
L 371.573427 235.234209 
L 369.121691 235.661174 
L 367.006259 237.90332 
L 360.035528 237.654057 
L 355.132021 240.465746 
L 346.718221 241.604713 
L 341.381993 238.472637 
z
" clip-path="url(#pdf5a75f631)" style="fill: #e8edf4; stroke: #b8c5d4; stroke-width: 0.45"/>
    <path d="M 318.545981 176.440046 
L 328.40169 173.058971 
L 336.429962 173.628288 
L 343.401358 178.682018 
L 344.843761 182.774922 
L 352.679935 185.800313 
L 353.689617 191.102642 
L 361.189451 194.839597 
L 365.227516 191.957116 
L 368.400804 193.558716 
L 365.42028 195.729633 
L 367.775984 197.971673 
L 364.602696 200.889716 
L 365.756619 205.58783 
L 372.006148 211.140087 
L 367.102641 215.161534 
L 364.939035 219.254438 
L 366.33358 220.784582 
L 364.217834 222.599551 
L 353.877584 223.56471 
L 353.449048 222.599673 
L 356.429738 217.937562 
L 354.602839 218.008693 
L 344.074146 210.356888 
L 341.766565 211.068714 
L 339.987773 215.339411 
L 336.910869 216.264759 
L 337.968446 215.161519 
L 328.838451 211.106402 
L 323.545679 207.118171 
L 326.574604 206.548865 
L 328.449481 200.498603 
L 322.247696 195.551582 
L 325.468791 189.892863 
L 320.805394 189.928493 
L 325.757505 185.088417 
L 321.670917 181.422585 
z
" clip-path="url(#pdf5a75f631)" style="fill: #e8edf4; stroke: #b8c5d4; stroke-width: 0.45"/>
    <path d="M 313.660599 220.544945 
L 316.959425 211.282236 
L 323.545679 207.118171 
L 328.838451 211.106402 
L 337.968446 215.161519 
L 334.507075 219.147563 
L 331.045875 220.286388 
L 330.228292 217.866207 
L 324.651441 224.201151 
L 325.516875 228.294013 
L 322.824592 227.297543 
L 319.2189 223.097977 
z
" clip-path="url(#pdf5a75f631)" style="fill: #e8edf4; stroke: #b8c5d4; stroke-width: 0.45"/>
    <path d="M 334.507075 219.147563 
L 336.910869 216.264759 
L 339.987773 215.339411 
L 341.766565 211.068714 
L 344.074146 210.356888 
L 354.602839 218.008693 
L 356.429738 217.937562 
L 353.449048 222.599673 
L 353.877584 223.56471 
L 343.401166 226.051912 
L 342.824271 228.685565 
L 341.189883 228.578818 
L 340.324263 223.916564 
L 337.247546 222.599551 
z
" clip-path="url(#pdf5a75f631)" style="fill: #e8edf4; stroke: #b8c5d4; stroke-width: 0.45"/>
   </g>
   <g id="PathCollection_1">
    <defs>
     <path id="mbed0b91267" d="M 0 2.12132 
C 0.562581 2.12132 1.102195 1.897805 1.5 1.5 
C 1.897805 1.102195 2.12132 0.562581 2.12132 0 
C 2.12132 -0.562581 1.897805 -1.102195 1.5 -1.5 
C 1.102195 -1.897805 0.562581 -2.12132 0 -2.12132 
C -0.562581 -2.12132 -1.102195 -1.897805 -1.5 -1.5 
C -1.897805 -1.102195 -2.12132 -0.562581 -2.12132 0 
C -2.12132 0.562581 -1.897805 1.102195 -1.5 1.5 
C -1.102195 1.897805 -0.562581 2.12132 0 2.12132 
z
" style="stroke: #ffffff; stroke-width: 0.5"/>
    </defs>
    <g clip-path="url(#pdf5a75f631)">
     <use xlink:href="#mbed0b91267" x="95.636417" y="220.28759" style="fill: #8aa0b7; stroke: #ffffff; stroke-width: 0.5"/>
     <use xlink:href="#mbed0b91267" x="333.597677" y="239.581746" style="fill: #8aa0b7; stroke: #ffffff; stroke-width: 0.5"/>
     <use xlink:href="#mbed0b91267" x="61.23751" y="93.518553" style="fill: #8aa0b7; stroke: #ffffff; stroke-width: 0.5"/>
     <use xlink:href="#mbed0b91267" x="43.113437" y="130.676954" style="fill: #8aa0b7; stroke: #ffffff; stroke-width: 0.5"/>
     <use xlink:href="#mbed0b91267" x="7.526438" y="302.180564" style="fill: #8aa0b7; stroke: #ffffff; stroke-width: 0.5"/>
     <use xlink:href="#mbed0b91267" x="18.459793" y="69.150034" style="fill: #8aa0b7; stroke: #ffffff; stroke-width: 0.5"/>
     <use xlink:href="#mbed0b91267" x="48.472925" y="133.463888" style="fill: #8aa0b7; stroke: #ffffff; stroke-width: 0.5"/>
     <use xlink:href="#mbed0b91267" x="198.967343" y="158.97505" style="fill: #8aa0b7; stroke: #ffffff; stroke-width: 0.5"/>
     <use xlink:href="#mbed0b91267" x="155.662681" y="127.032502" style="fill: #8aa0b7; stroke: #ffffff; stroke-width: 0.5"/>
     <use xlink:href="#mbed0b91267" x="171.526765" y="204.423506" style="fill: #8aa0b7; stroke: #ffffff; stroke-width: 0.5"/>
     <use xlink:href="#mbed0b91267" x="325.550727" y="217.60313" style="fill: #8aa0b7; stroke: #ffffff; stroke-width: 0.5"/>
     <use xlink:href="#mbed0b91267" x="359.323218" y="228.862771" style="fill: #8aa0b7; stroke: #ffffff; stroke-width: 0.5"/>
     <use xlink:href="#mbed0b91267" x="263.924335" y="306.039395" style="fill: #8aa0b7; stroke: #ffffff; stroke-width: 0.5"/>
     <use xlink:href="#mbed0b91267" x="266.925648" y="173.767236" style="fill: #8aa0b7; stroke: #ffffff; stroke-width: 0.5"/>
     <use xlink:href="#mbed0b91267" x="236.054998" y="203.994747" style="fill: #8aa0b7; stroke: #ffffff; stroke-width: 0.5"/>
     <use xlink:href="#mbed0b91267" x="236.527491" y="227.967951" style="fill: #8aa0b7; stroke: #ffffff; stroke-width: 0.5"/>
     <use xlink:href="#mbed0b91267" x="345.212759" y="218.96787" style="fill: #8aa0b7; stroke: #ffffff; stroke-width: 0.5"/>
    </g>
   </g>
   <g id="PatchCollection_2">
    <path d="M 163.165389 187.763843 
L 167.624875 183.846089 
L 163.839397 179.016363 
L 164.369829 175.381772 
L 169.904139 178.136963 
L 176.105809 177.525437 
L 183.317162 173.162997 
L 185.546573 175.201638 
L 191.673797 174.792846 
L 194.459564 169.605511 
L 203.977433 171.217414 
L 209.644018 169.047826 
L 210.664336 163.774412 
L 218.457304 165.60334 
L 219.952883 163.156571 
L 232.664646 160.920846 
L 235.538154 165.394956 
L 253.93179 168.716804 
L 252.53791 175.05208 
L 255.618804 180.528561 
L 245.379733 178.654766 
L 234.921975 183.21994 
L 235.633206 189.605068 
L 234.058527 193.269571 
L 238.274732 199.818216 
L 250.335752 206.296402 
L 256.804633 216.930307 
L 271.117663 227.296004 
L 281.197206 227.216572 
L 284.331941 230.059503 
L 280.723273 232.621929 
L 301.687313 241.162022 
L 312.717379 247.870196 
L 314.049442 250.272429 
L 311.64588 254.878482 
L 304.506979 248.872899 
L 293.332007 246.756155 
L 287.918673 255.076231 
L 297.215197 259.844472 
L 295.689041 266.556633 
L 290.315589 267.319379 
L 283.445228 278.35144 
L 278.083076 279.342511 
L 278.132929 275.409801 
L 280.757173 268.510858 
L 283.55291 265.763311 
L 274.604026 251.822514 
L 269.264474 250.219917 
L 265.46703 244.668325 
L 257.20146 242.329903 
L 251.635909 237.159851 
L 242.118704 236.326314 
L 220.301187 222.147221 
L 211.555037 214.737787 
L 207.542895 202.022368 
L 201.143143 200.526788 
L 190.678738 196.281336 
L 184.756907 198.0192 
L 177.324873 203.988557 
L 171.979339 204.931437 
L 173.450989 199.348271 
L 166.478929 197.716428 
z
" clip-path="url(#pdf5a75f631)" style="fill: #f59e0b; stroke: #b45309; stroke-width: 1.15"/>
    <path d="M 236.239414 283.148595 
L 238.039428 276.544447 
L 253.091607 277.720305 
L 275.9773 275.196764 
L 271.344991 285.321174 
L 273.269968 289.306395 
L 270.569949 295.920846 
L 260.733022 291.076165 
L 254.192353 289.688267 
z
" clip-path="url(#pdf5a75f631)" style="fill: #f59e0b; stroke: #b45309; stroke-width: 1.15"/>
    <path d="M 181.30245 240.224792 
L 188.376875 240.868224 
L 194.808532 236.880676 
L 202.525724 246.013018 
L 200.719063 263.025736 
L 194.87035 262.214135 
L 189.623856 266.508442 
L 184.753584 263.096859 
L 184.238439 247.578391 
z
" clip-path="url(#pdf5a75f631)" style="fill: #f59e0b; stroke: #b45309; stroke-width: 1.15"/>
   </g>
   <g id="PathCollection_2">
    <path d="M 241.414486 220.135215 
C 242.511158 220.135215 243.56306 219.699502 244.338524 218.924038 
C 245.113988 218.148574 245.549701 217.096672 245.549701 216 
C 245.549701 214.903328 245.113988 213.851426 244.338524 213.075962 
C 243.56306 212.300498 242.511158 211.864785 241.414486 211.864785 
C 240.317814 211.864785 239.265912 212.300498 238.490448 213.075962 
C 237.714984 213.851426 237.279271 214.903328 237.279271 216 
C 237.279271 217.096672 237.714984 218.148574 238.490448 218.924038 
C 239.265912 219.699502 240.317814 220.135215 241.414486 220.135215 
L 241.414486 220.135215 
z
" clip-path="url(#pdf5a75f631)" style="fill: none; stroke: #7c2d12; stroke-width: 1.1"/>
   </g>
  </g>
 </g>
 <defs>
  <clipPath id="pdf5a75f631">
   <rect x="0" y="0" width="482.828972" height="432"/>
  </clipPath>
 </defs>
</svg>
