<?xml version="1.0" encoding="utf-8" standalone="no"?>
<!DOCTYPE svg PUBLIC "-//W3C//DTD SVG 1.1//EN"
  "http://www.w3.org/Graphics/SVG/1.1/DTD/svg11.dtd">
<svg xmlns:xlink="http://www.w3.org/1999/xlink" width="576pt" height="384pt" viewBox="0 0 576 384" xmlns="http://www.w3.org/2000/svg" version="1.1">
 <metadata>
  <rdf:RDF xmlns:dc="http://purl.org/dc/elements/1.1/" xmlns:cc="http://creativecommons.org/ns#" xmlns:rdf="http://www.w3.org/1999/02/22-rdf-syntax-ns#">
   <cc:Work>
    <dc:type rdf:resource="http://purl.org/dc/dcmitype/StillImage"/>
    <dc:date>2026-06-09T04:57:18.509384</dc:date>
    <dc:format>image/svg+xml</dc:format>
    <dc:creator>
     <cc:Agent>
      <dc:title>Matplotlib v3.10.8, https://matplotlib.org/</dc:title>
     </cc:Agent>
    </dc:creator>
   </cc:Work>
  </rdf:RDF>
 </metadata>
 <defs>
  <style type="text/css">*{stroke-linejoin: round; stroke-linecap: butt}</style>
 </defs>
 <g id="figure_1">
  <g id="patch_1">
   <path d="M 0 384 
L 576 384 
L 576 0 
L 0 0 
z
" style="fill: #eaf3ff"/>
  </g>
  <g id="axes_1">
   <g id="PatchCollection_1">
    <path d="M 245.987339 96.0034 
L 246.576981 90.208316 
L 277.701195 89.134627 
L 279.34858 84.192825 
L 284.966842 78.032049 
L 289.493343 59.094733 
L 308.558226 44.295548 
L 315.006736 27.005264 
L 319.292986 26.001028 
L 323.759247 15.313043 
L 335.29697 13.840353 
L 340.259325 15.621329 
L 346.486719 15.621329 
L 350.906915 12.5009 
L 359.384448 12.059022 
L 359.069783 4.711874 
L 361.157629 4.711874 
L 360.859973 29.0598 
L 315.847969 28.342591 
L 316.289493 63.434136 
L 303.439247 64.665158 
L 300.085653 71.70898 
L 302.686602 91.51446 
L 248.980201 91.428707 
z
" clip-path="url(#p57b44212ec)" style="fill: #e8edf4; stroke: #b8c5d4; stroke-width: 0.45"/>
    <path d="M 238.285129 181.994873 
L 244.317629 179.390026 
L 250.961742 169.76191 
L 254.220369 162.719505 
L 258.91625 158.322342 
L 265.732579 159.506235 
L 272.424175 156.51727 
L 280.08209 156.36667 
L 286.635134 160.39814 
L 295.738455 164.031318 
L 313.086853 183.540559 
L 313.715829 192.072309 
L 316.419894 199.925827 
L 321.553402 203.777641 
L 322.725955 209.080883 
L 322.094498 213.353313 
L 320.11473 214.126865 
L 312.636825 213.042546 
L 311.607785 214.56768 
L 308.584448 214.874195 
L 298.727065 211.530877 
L 266.763745 210.813668 
L 263.086981 212.357937 
L 258.545598 211.916413 
L 251.280659 214.150607 
L 249.030519 203.638026 
L 261.513656 203.927532 
L 272.349761 198.726698 
L 278.232724 201.624594 
L 284.191518 201.866262 
L 290.126217 198.788001 
L 287.355533 194.824212 
L 282.833639 197.133528 
L 278.577863 197.06939 
L 273.164772 193.693827 
L 268.816864 193.914943 
L 265.719822 197.162231 
L 250.783148 197.554853 
L 245.127679 186.877499 
z
" clip-path="url(#p57b44212ec)" style="fill: #e8edf4; stroke: #b8c5d4; stroke-width: 0.45"/>
    <path d="M 313.086853 183.540559 
L 317.702297 181.040956 
L 320.00807 172.961714 
L 324.355268 172.645632 
L 333.932004 176.465199 
L 341.666105 173.753338 
L 346.96793 174.66367 
L 349.025302 171.613757 
L 404.053792 171.405398 
L 407.104769 161.803149 
L 404.728834 160.112886 
L 391.490927 41.738185 
L 412.479945 41.491555 
L 505.004264 101.337471 
L 508.265017 107.763656 
L 523.154208 113.916636 
L 523.311541 122.641862 
L 538.52461 121.29922 
L 538.56288 152.883737 
L 531.064069 162.044108 
L 529.896122 170.494357 
L 517.714186 172.669374 
L 499.001529 173.848305 
L 493.930743 178.722072 
L 476.348471 179.323762 
L 472.925425 176.692694 
L 465.375586 178.644823 
L 452.557233 184.333601 
L 449.940692 188.620559 
L 439.30019 194.768224 
L 437.434878 198.291198 
L 431.687277 201.083497 
L 425.055213 199.234485 
L 421.297302 202.581346 
L 419.284579 211.986575 
L 408.398511 223.352791 
L 408.715302 227.998001 
L 404.975109 233.811156 
L 405.883315 241.772752 
L 397.022372 245.535624 
L 394.8998 239.670024 
L 390.939908 241.216419 
L 388.57425 240.948882 
L 386.050196 244.950942 
L 375.459303 244.837903 
L 371.662768 242.77876 
L 369.875059 244.024664 
L 365.686256 240.071151 
L 366.413388 235.987236 
L 364.699738 234.387334 
L 361.778455 235.736355 
L 362.313527 231.274346 
L 365.124961 227.744284 
L 359.504928 221.999164 
L 357.870653 218.216804 
L 354.82322 215.203743 
L 352.078404 214.844075 
L 340.591354 221.566854 
L 334.721502 220.471196 
L 330.914336 216.988972 
L 328.641518 216.531502 
L 322.886831 218.374845 
L 322.094498 213.353313 
L 322.725955 209.080883 
L 321.553402 203.777641 
L 316.419894 199.925827 
L 313.715829 192.072309 
z
" clip-path="url(#p57b44212ec)" style="fill: #e8edf4; stroke: #b8c5d4; stroke-width: 0.45"/>
    <path d="M 245.987339 96.0034 
L 248.980201 91.428707 
L 302.686602 91.51446 
L 300.085653 71.70898 
L 303.439247 64.665158 
L 316.289493 63.434136 
L 315.847969 28.342591 
L 360.859973 29.0598 
L 360.89966 8.286938 
L 412.479945 41.491555 
L 391.490927 41.738185 
L 404.728834 160.112886 
L 407.104769 161.803149 
L 404.053792 171.405398 
L 349.025302 171.613757 
L 346.96793 174.66367 
L 341.666105 173.753338 
L 333.932004 176.465199 
L 324.355268 172.645632 
L 320.00807 172.961714 
L 317.702297 181.040956 
L 313.086853 183.540559 
L 295.738455 164.031318 
L 286.635134 160.39814 
L 280.08209 156.36667 
L 272.424175 156.51727 
L 265.732579 159.506235 
L 258.91625 158.322342 
L 254.220369 162.719505 
L 253.032579 155.32948 
L 256.861005 148.567367 
L 258.564378 135.65511 
L 255.392213 115.284792 
L 256.761077 108.445431 
L 253.216133 101.926405 
z
" clip-path="url(#p57b44212ec)" style="fill: #e8edf4; stroke: #b8c5d4; stroke-width: 0.45"/>
    <path d="M 490.592032 240.400344 
L 492.336864 233.179346 
L 497.053298 231.627281 
L 499.847015 225.631279 
L 506.550659 224.34994 
L 514.150815 216.232429 
L 519.067104 216.196993 
L 529.524761 224.089136 
L 528.990397 228.645403 
L 532.074682 236.780632 
L 529.372389 242.301447 
L 530.817439 245.990258 
L 519.940229 258.684234 
L 517.354872 267.334692 
L 516.914766 298.164792 
L 505.580441 299.764694 
L 502.202752 290.303478 
L 502.827121 258.807903 
L 500.064588 255.982295 
L 499.543689 249.25172 
z
" clip-path="url(#p57b44212ec)" style="fill: #e8edf4; stroke: #b8c5d4; stroke-width: 0.45"/>
    <path d="M 484.054579 185.907635 
L 485.141379 179.260688 
L 493.930743 178.722072 
L 499.001529 173.848305 
L 517.714186 172.669374 
L 529.896122 170.494357 
L 531.064069 162.044108 
L 538.56288 152.883737 
L 538.52461 121.29922 
L 557.863762 115.183447 
L 597.571105 88.242367 
L 644.564649 62.102833 
L 666.259537 68.015916 
L 673.973086 75.548037 
L 683.674971 70.450971 
L 687.043031 91.768885 
L 692.174537 95.335543 
L 692.395173 99.697172 
L 698.101669 104.398369 
L 695.118728 110.30153 
L 689.834621 138.130972 
L 689.111742 155.968377 
L 671.618331 168.900069 
L 665.696825 186.965024 
L 671.406156 192.045378 
L 671.375681 200.866988 
L 680.170715 201.182716 
L 678.79937 207.642565 
L 674.928421 208.429228 
L 674.486898 212.795562 
L 671.936267 213.098534 
L 662.656479 198.084256 
L 659.43754 197.538553 
L 648.714119 205.204265 
L 638.095586 201.20256 
L 630.71442 200.402432 
L 626.757009 202.327984 
L 618.717456 201.911974 
L 610.627584 207.756313 
L 603.633371 208.09153 
L 587.035492 201.003059 
L 580.535955 204.369764 
L 573.537489 204.135891 
L 568.394415 198.956318 
L 554.647657 193.838757 
L 539.908711 195.46311 
L 536.337545 198.429041 
L 534.408449 206.316223 
L 530.477261 211.845897 
L 529.524761 224.089136 
L 519.067104 216.196993 
L 514.150815 216.232429 
L 509.547065 220.249371 
L 509.857478 210.856899 
L 494.044844 207.746391 
L 493.618912 201.109719 
L 485.89615 192.154519 
z
" clip-path="url(#p57b44212ec)" style="fill: #e8edf4; stroke: #b8c5d4; stroke-width: 0.45"/>
    <path d="M 516.914766 298.164792 
L 517.354872 267.334692 
L 519.940229 258.684234 
L 530.817439 245.990258 
L 529.372389 242.301447 
L 532.074682 236.780632 
L 528.990397 228.645403 
L 530.477261 211.845897 
L 534.408449 206.316223 
L 536.337545 198.429041 
L 539.908711 195.46311 
L 554.647657 193.838757 
L 568.394415 198.956318 
L 573.537489 204.135891 
L 580.535955 204.369764 
L 587.035492 201.003059 
L 603.633371 208.09153 
L 610.627584 207.756313 
L 618.717456 201.911974 
L 626.757009 202.327984 
L 630.71442 200.402432 
L 638.095586 201.20256 
L 648.714119 205.204265 
L 659.43754 197.538553 
L 662.656479 198.084256 
L 671.936267 213.098534 
L 674.486898 212.795562 
L 679.915581 218.257909 
L 677.696624 225.293227 
L 666.14331 235.905381 
L 660.584225 251.785696 
L 657.674989 254.841988 
L 654.907495 264.442111 
L 647.573103 270.091555 
L 645.448404 277.031198 
L 642.367662 282.554848 
L 641.084906 288.255319 
L 631.663377 292.876433 
L 623.964002 287.240808 
L 618.764939 287.468302 
L 610.59711 295.495099 
L 606.626234 295.618414 
L 596.575374 318.555663 
L 582.337484 323.491087 
L 577.132752 322.769979 
L 571.859275 325.84328 
L 560.889225 325.543497 
L 553.547037 316.964973 
L 549.031875 307.038137 
L 539.322612 298.002499 
z
" clip-path="url(#p57b44212ec)" style="fill: #e8edf4; stroke: #b8c5d4; stroke-width: 0.45"/>
    <path d="M 479.317238 237.16227 
L 480.326435 232.88665 
L 492.336864 233.179346 
L 490.592032 240.400344 
L 499.543689 249.25172 
L 500.064588 255.982295 
L 502.827121 258.807903 
L 502.202752 290.303478 
L 505.580441 299.764694 
L 494.538812 302.69023 
L 487.822411 289.17451 
L 486.733131 282.353221 
L 489.764973 270.000487 
L 486.324917 264.99809 
L 485.041097 244.234795 
z
" clip-path="url(#p57b44212ec)" style="fill: #e8edf4; stroke: #b8c5d4; stroke-width: 0.45"/>
    <path d="M 435.505782 298.279248 
L 439.082263 282.792618 
L 444.861401 271.273676 
L 439.35228 241.435409 
L 439.674387 233.654533 
L 463.496809 233.008193 
L 469.555531 234.007822 
L 473.983522 231.794181 
L 480.326435 232.88665 
L 479.317238 237.16227 
L 485.041097 244.234795 
L 486.324917 264.99809 
L 489.764973 270.000487 
L 486.733131 282.353221 
L 487.822411 289.17451 
L 494.538812 302.69023 
L 473.038109 310.71809 
L 465.413148 315.421059 
L 453.055452 319.399376 
L 440.830285 315.504332 
L 441.453237 310.093012 
z
" clip-path="url(#p57b44212ec)" style="fill: #e8edf4; stroke: #b8c5d4; stroke-width: 0.45"/>
    <path d="M 362.017643 295.301977 
L 364.999521 289.209591 
L 363.628176 282.580007 
L 364.26105 278.591413 
L 366.436066 278.575822 
L 367.24399 272.594348 
L 366.184476 269.945916 
L 367.494872 268.039499 
L 372.588338 266.390342 
L 369.200726 255.411787 
L 366.039546 249.743562 
L 367.140519 245.087722 
L 371.662768 242.77876 
L 375.459303 244.837903 
L 386.050196 244.950942 
L 388.57425 240.948882 
L 390.939908 241.216419 
L 394.8998 239.670024 
L 397.022372 245.535624 
L 405.883315 241.772752 
L 412.050469 244.76278 
L 414.447311 249.298495 
L 420.613756 252.194265 
L 425.410983 248.744996 
L 431.836814 248.224097 
L 441.222908 251.760537 
L 444.861401 271.273676 
L 439.082263 282.792618 
L 435.505782 298.279248 
L 441.453237 310.093012 
L 440.830285 315.504332 
L 434.590843 315.643947 
L 425.021903 312.96256 
L 416.229705 313.120956 
L 399.984052 315.514962 
L 376.883092 324.503472 
L 374.233243 324.143096 
L 375.286379 312.848104 
L 376.598192 311.131265 
L 376.180765 305.727741 
L 370.372216 299.983684 
L 366.015804 299.066974 
z
" clip-path="url(#p57b44212ec)" style="fill: #e8edf4; stroke: #b8c5d4; stroke-width: 0.45"/>
    <path d="M 272.498589 232.58864 
L 278.59629 225.904131 
L 282.758516 226.158556 
L 286.334998 223.856681 
L 289.360461 223.834711 
L 291.522367 222.016882 
L 290.355129 217.472309 
L 291.85723 216.038598 
L 292.107757 211.389491 
L 298.727065 211.530877 
L 308.584448 214.874195 
L 311.607785 214.56768 
L 312.636825 213.042546 
L 320.11473 214.126865 
L 322.094498 213.353313 
L 322.886831 218.374845 
L 328.641518 216.531502 
L 330.914336 216.988972 
L 334.721502 220.471196 
L 340.591354 221.566854 
L 352.078404 214.844075 
L 354.82322 215.203743 
L 357.870653 218.216804 
L 359.504928 221.999164 
L 365.124961 227.744284 
L 362.313527 231.274346 
L 361.778455 235.736355 
L 364.699738 234.387334 
L 366.413388 235.987236 
L 365.686256 240.071151 
L 369.875059 244.024664 
L 367.140519 245.087722 
L 366.039546 249.743562 
L 369.200726 255.411787 
L 372.588338 266.390342 
L 367.494872 268.039499 
L 366.184476 269.945916 
L 367.24399 272.594348 
L 366.436066 278.575822 
L 360.382305 278.239895 
L 357.585399 283.761773 
L 353.708072 283.6948 
L 351.039797 280.773871 
L 351.945877 275.265813 
L 346.21245 266.865529 
L 335.924883 269.50085 
L 336.077964 264.472585 
L 333.877434 260.88441 
L 334.321437 256.897233 
L 327.531686 246.228029 
L 316.563053 246.212791 
L 313.366792 248.796731 
L 309.587266 249.108562 
L 305.664582 255.871382 
L 298.333025 261.901048 
L 286.984526 248.418283 
L 280.049844 243.915877 
L 278.492819 237.856447 
L 276.486119 234.83559 
z
" clip-path="url(#p57b44212ec)" style="fill: #e8edf4; stroke: #b8c5d4; stroke-width: 0.45"/>
    <path d="M 251.280659 214.150607 
L 258.545598 211.916413 
L 263.086981 212.357937 
L 266.763745 210.813668 
L 292.107757 211.389491 
L 291.85723 216.038598 
L 290.355129 217.472309 
L 291.522367 222.016882 
L 289.360461 223.834711 
L 286.334998 223.856681 
L 282.758516 226.158556 
L 278.59629 225.904131 
L 272.498589 232.58864 
L 265.176954 226.855213 
L 259.402777 225.948425 
L 256.254353 222.082083 
L 256.334437 219.994946 
L 252.153075 217.084647 
z
" clip-path="url(#p57b44212ec)" style="fill: #e8edf4; stroke: #b8c5d4; stroke-width: 0.45"/>
    <path d="M 323.12531 290.935997 
L 326.402718 286.548403 
L 327.130913 282.559454 
L 339.701574 268.714895 
L 346.21245 266.865529 
L 351.945877 275.265813 
L 351.039797 280.773871 
L 353.708072 283.6948 
L 357.585399 283.761773 
L 360.382305 278.239895 
L 364.26105 278.591413 
L 363.628176 282.580007 
L 364.999521 289.209591 
L 362.017643 295.301977 
L 366.015804 299.066974 
L 370.372216 299.983684 
L 376.180765 305.727741 
L 376.598192 311.131265 
L 375.286379 312.848104 
L 374.233243 324.143096 
L 370.640815 324.26393 
L 356.505687 317.726832 
L 344.044521 307.28831 
L 332.36045 299.784538 
z
" clip-path="url(#p57b44212ec)" style="fill: #e8edf4; stroke: #b8c5d4; stroke-width: 0.45"/>
    <path d="M 298.333025 261.901048 
L 305.664582 255.871382 
L 309.587266 249.108562 
L 313.366792 248.796731 
L 316.563053 246.212791 
L 327.531686 246.228029 
L 334.321437 256.897233 
L 333.877434 260.88441 
L 336.077964 264.472585 
L 335.924883 269.50085 
L 339.701574 268.714895 
L 327.130913 282.559454 
L 326.402718 286.548403 
L 323.12531 290.935997 
L 319.430475 289.918651 
L 309.5575 284.393938 
L 302.413042 277.047144 
L 300.013365 272.037306 
z
" clip-path="url(#p57b44212ec)" style="fill: #e8edf4; stroke: #b8c5d4; stroke-width: 0.45"/>
    <path d="M 404.975109 233.811156 
L 408.715302 227.998001 
L 408.398511 223.352791 
L 419.284579 211.986575 
L 421.297302 202.581346 
L 425.055213 199.234485 
L 431.687277 201.083497 
L 437.434878 198.291198 
L 439.30019 194.768224 
L 449.940692 188.620559 
L 452.557233 184.333601 
L 465.375586 178.644823 
L 472.925425 176.692694 
L 476.348471 179.323762 
L 485.141379 179.260688 
L 484.054579 185.907635 
L 485.89615 192.154519 
L 493.618912 201.109719 
L 494.044844 207.746391 
L 509.857478 210.856899 
L 509.547065 220.249371 
L 506.550659 224.34994 
L 499.847015 225.631279 
L 497.053298 231.627281 
L 492.336864 233.179346 
L 473.983522 231.794181 
L 469.555531 234.007822 
L 463.496809 233.008193 
L 439.674387 233.654533 
L 439.35228 241.435409 
L 441.222908 251.760537 
L 431.836814 248.224097 
L 425.410983 248.744996 
L 420.613756 252.194265 
L 414.447311 249.298495 
L 412.050469 244.76278 
L 405.883315 241.772752 
z
" clip-path="url(#p57b44212ec)" style="fill: #e8edf4; stroke: #b8c5d4; stroke-width: 0.45"/>
    <path d="M 249.030519 203.638026 
L 250.783148 197.554853 
L 265.719822 197.162231 
L 268.816864 193.914943 
L 273.164772 193.693827 
L 278.577863 197.06939 
L 282.833639 197.133528 
L 287.355533 194.824212 
L 290.126217 198.788001 
L 284.191518 201.866262 
L 278.232724 201.624594 
L 272.349761 198.726698 
L 261.513656 203.927532 
z
" clip-path="url(#p57b44212ec)" style="fill: #e8edf4; stroke: #b8c5d4; stroke-width: 0.45"/>
    <path d="M 360.89966 8.286938 
L 361.040692 -11.537677 
L 383.187735 -21.65799 
L 396.882757 -23.749025 
L 408.107941 -27.434647 
L 413.353424 -34.302002 
L 429.388237 -39.729622 
L 429.977171 -49.882889 
L 437.911128 -51.07883 
L 444.115134 -56.151034 
L 462.063098 -58.462476 
L 464.577584 -63.792295 
L 460.963896 -66.706491 
L 456.226909 -81.184633 
L 455.41048 -89.525741 
L 450.241184 -98.309435 
L 463.424875 -105.80364 
L 478.252054 -108.18737 
L 486.910307 -113.846028 
L 500.11774 -118.020303 
L 546.044682 -121.577649 
L 552.961647 -119.54083 
L 565.876384 -124.946126 
L 580.530994 -125.052077 
L 586.108505 -121.861132 
L 595.487512 -122.69386 
L 592.701591 -115.654999 
L 594.875899 -102.581157 
L 591.647746 -91.270573 
L 583.192891 -83.621162 
L 584.401942 -73.290719 
L 595.617913 -65.120054 
L 595.736267 -61.800479 
L 604.191122 -56.26549 
L 610.040776 -31.646483 
L 614.477272 -19.537898 
L 615.22283 -13.165573 
L 612.807562 -1.977242 
L 613.798332 4.275311 
L 612.055625 11.781209 
L 613.25192 20.404028 
L 607.809063 26.134973 
L 615.91807 36.130908 
L 616.433298 42.007493 
L 621.3099 49.655132 
L 627.721557 47.142418 
L 638.546323 53.514387 
L 644.564649 62.102833 
L 597.571105 88.242367 
L 557.863762 115.183447 
L 538.52461 121.29922 
L 523.311541 122.641862 
L 523.154208 113.916636 
L 508.265017 107.763656 
L 505.004264 101.337471 
z
" clip-path="url(#p57b44212ec)" style="fill: #e8edf4; stroke: #b8c5d4; stroke-width: 0.45"/>
    <path d="M 246.576981 90.208316 
L 247.224029 83.852646 
L 252.491836 80.115643 
L 256.979359 72.969058 
L 256.094894 68.327747 
L 260.809911 58.651084 
L 268.443377 49.931882 
L 273.060592 47.722139 
L 276.690581 39.722981 
L 277.015877 32.416938 
L 281.966538 23.939404 
L 291.102104 18.940905 
L 299.795084 4.935116 
L 306.941669 -0.523687 
L 319.694822 -2.038545 
L 330.501161 -11.412236 
L 337.377021 -15.066321 
L 348.825447 -26.517582 
L 345.398148 -43.580373 
L 350.60855 -55.379608 
L 352.44764 -62.601316 
L 361.268896 -71.866221 
L 385.199395 -83.800819 
L 398.674364 -106.422694 
L 408.769872 -106.356784 
L 417.037629 -100.535479 
L 430.079225 -101.483726 
L 444.283806 -98.456137 
L 450.241184 -98.309435 
L 455.41048 -89.525741 
L 456.226909 -81.184633 
L 460.963896 -66.706491 
L 464.577584 -63.792295 
L 462.063098 -58.462476 
L 444.115134 -56.151034 
L 437.911128 -51.07883 
L 429.977171 -49.882889 
L 429.388237 -39.729622 
L 413.353424 -34.302002 
L 408.107941 -27.434647 
L 396.882757 -23.749025 
L 383.187735 -21.65799 
L 361.040692 -11.537677 
L 361.157629 4.711874 
L 359.069783 4.711874 
L 359.384448 12.059022 
L 350.906915 12.5009 
L 346.486719 15.621329 
L 340.259325 15.621329 
L 335.29697 13.840353 
L 323.759247 15.313043 
L 319.292986 26.001028 
L 315.006736 27.005264 
L 308.558226 44.295548 
L 289.493343 59.094733 
L 284.966842 78.032049 
L 279.34858 84.192825 
L 277.701195 89.134627 
z
" clip-path="url(#p57b44212ec)" style="fill: #e8edf4; stroke: #b8c5d4; stroke-width: 0.45"/>
   </g>
   <g id="PathCollection_1">
    <defs>
     <path id="m1f1baa5643" d="M 0 2.12132 
C 0.562581 2.12132 1.102195 1.897805 1.5 1.5 
C 1.897805 1.102195 2.12132 0.562581 2.12132 0 
C 2.12132 -0.562581 1.897805 -1.102195 1.5 -1.5 
C 1.102195 -1.897805 0.562581 -2.12132 0 -2.12132 
C -0.562581 -2.12132 -1.102195 -1.897805 -1.5 -1.5 
C -1.897805 -1.102195 -2.12132 -0.562581 -2.12132 0 
C -2.12132 0.562581 -1.897805 1.102195 -1.5 1.5 
C -1.102195 1.897805 -0.562581 2.12132 0 2.12132 
z
" style="stroke: #ffffff; stroke-width: 0.5"/>
    </defs>
    <g clip-path="url(#p57b44212ec)">
     <use xlink:href="#m1f1baa5643" x="150.857143" y="164.571429" style="fill: #8aa0b7; stroke: #ffffff; stroke-width: 0.5"/>
     <use xlink:href="#m1f1baa5643" x="252.8" y="199.314286" style="fill: #8aa0b7; stroke: #ffffff; stroke-width: 0.5"/>
     <use xlink:href="#m1f1baa5643" x="274.285714" y="219.428571" style="fill: #8aa0b7; stroke: #ffffff; stroke-width: 0.5"/>
     <use xlink:href="#m1f1baa5643" x="576" y="370.285714" style="fill: #8aa0b7; stroke: #ffffff; stroke-width: 0.5"/>
     <use xlink:href="#m1f1baa5643" x="496" y="274.285714" style="fill: #8aa0b7; stroke: #ffffff; stroke-width: 0.5"/>
    </g>
   </g>
   <g id="PatchCollection_2">
    <defs>
     <path id="maf27e48448" d="M 238.285129 -202.005127 
L 244.317629 -204.609974 
L 250.961742 -214.23809 
L 254.220369 -221.280495 
L 258.91625 -225.677658 
L 265.732579 -224.493765 
L 272.424175 -227.48273 
L 280.08209 -227.63333 
L 286.635134 -223.60186 
L 295.738455 -219.968682 
L 313.086853 -200.459441 
L 313.715829 -191.927691 
L 316.419894 -184.074173 
L 321.553402 -180.222359 
L 322.725955 -174.919117 
L 322.094498 -170.646687 
L 320.11473 -169.873135 
L 312.636825 -170.957454 
L 311.607785 -169.43232 
L 308.584448 -169.125805 
L 298.727065 -172.469123 
L 266.763745 -173.186332 
L 263.086981 -171.642063 
L 258.545598 -172.083587 
L 251.280659 -169.849393 
L 249.030519 -180.361974 
L 261.513656 -180.072468 
L 272.349761 -185.273302 
L 278.232724 -182.375406 
L 284.191518 -182.133738 
L 290.126217 -185.211999 
L 287.355533 -189.175788 
L 282.833639 -186.866472 
L 278.577863 -186.93061 
L 273.164772 -190.306173 
L 268.816864 -190.085057 
L 265.719822 -186.837769 
L 250.783148 -186.445147 
L 245.127679 -197.122501 
z
" style="stroke: #b45309; stroke-width: 1.15"/>
    </defs>
    <g clip-path="url(#p57b44212ec)">
     <use xlink:href="#maf27e48448" x="0" y="384" style="fill: #f59e0b; stroke: #b45309; stroke-width: 1.15"/>
    </g>
   </g>
   <g id="PathCollection_2">
    <defs>
     <path id="m71d952f8ef" d="M 0 3.316625 
C 0.879579 3.316625 1.723251 2.967164 2.345208 2.345208 
C 2.967164 1.723251 3.316625 0.879579 3.316625 0 
C 3.316625 -0.879579 2.967164 -1.723251 2.345208 -2.345208 
C 1.723251 -2.967164 0.879579 -3.316625 0 -3.316625 
C -0.879579 -3.316625 -1.723251 -2.967164 -2.345208 -2.345208 
C -2.967164 -1.723251 -3.316625 -0.879579 -3.316625 0 
C -3.316625 0.879579 -2.967164 1.723251 -2.345208 2.345208 
C -1.723251 2.967164 -0.879579 3.316625 0 3.316625 
z
" style="stroke: #ffffff"/>
    </defs>
    <g clip-path="url(#p57b44212ec)">
     <use xlink:href="#m71d952f8ef" x="288" y="192" style="fill: #f97316; stroke: #ffffff"/>
    </g>
   </g>
   <g id="PathCollection_3">
    <path d="M 288 196.449719 
C 289.180079 196.449719 290.311984 195.980869 291.146427 195.146427 
C 291.980869 194.311984 292.449719 193.180079 292.449719 192 
C 292.449719 190.819921 291.980869 189.688016 291.146427 188.853573 
C 290.311984 188.019131 289.180079 187.550281 288 187.550281 
C 286.819921 187.550281 285.688016 188.019131 284.853573 188.853573 
C 284.019131 189.688016 283.550281 190.819921 283.550281 192 
C 283.550281 193.180079 284.019131 194.311984 284.853573 195.146427 
C 285.688016 195.980869 286.819921 196.449719 288 196.449719 
L 288 196.449719 
z
" clip-path="url(#p57b44212ec)" style="fill: none; stroke: #7c2d12; stroke-width: 1.1"/>
   </g>
  </g>
 </g>
 <defs>
  <clipPath id="p57b44212ec">
   <rect x="0" y="-0" width="576" height="384"/>
  </clipPath>
 </defs>
</svg>
