<?xml version="1.0" encoding="utf-8" standalone="no"?>
<!DOCTYPE svg PUBLIC "-//W3C//DTD SVG 1.1//EN"
  "http://www.w3.org/Graphics/SVG/1.1/DTD/svg11.dtd">
<svg xmlns:xlink="http://www.w3.org/1999/xlink" width="576pt" height="363.789474pt" viewBox="0 0 576 363.789474" xmlns="http://www.w3.org/2000/svg" version="1.1">
 <metadata>
  <rdf:RDF xmlns:dc="http://purl.org/dc/elements/1.1/" xmlns:cc="http://creativecommons.org/ns#" xmlns:rdf="http://www.w3.org/1999/02/22-rdf-syntax-ns#">
   <cc:Work>
    <dc:type rdf:resource="http://purl.org/dc/dcmitype/StillImage"/>
    <dc:date>2026-06-09T04:57:19.745887</dc:date>
    <dc:format>image/svg+xml</dc:format>
    <dc:creator>
     <cc:Agent>
      <dc:title>Matplotlib v3.10.8, https://matplotlib.org/</dc:title>
     </cc:Agent>
    </dc:creator>
   </cc:Work>
  </rdf:RDF>
 </metadata>
 <defs>
  <style type="text/css">*{stroke-linejoin: round; stroke-linecap: butt}</style>
 </defs>
 <g id="figure_1">
  <g id="patch_1">
   <path d="M 0 363.789474 
L 576 363.789474 
L 576 0 
L 0 0 
z
" style="fill: #eaf3ff"/>
  </g>
  <g id="axes_1">
   <g id="PatchCollection_1">
    <path d="M 285.289768 181.849263 
L 286.593347 178.105263 
L 290.504084 180.015158 
L 296.233768 180.773053 
L 296.445979 181.925053 
L 294.748295 184.683789 
L 285.441347 185.077895 
z
" clip-path="url(#p9b44e96b9f)" style="fill: #e8edf4; stroke: #b8c5d4; stroke-width: 0.45"/>
    <path d="M -32.268267 56.549285 
L -29.363768 53.55079 
L -26.969359 55.210772 
L -25.947301 57.803201 
L -19.414843 59.391432 
L -16.157544 58.948708 
L -10.745527 55.848383 
L -10.73926 33.455233 
L -9.102464 34.365748 
L -5.507717 40.126806 
L -6.06637 43.821191 
L -4.713444 45.949903 
L -0.370483 45.331404 
L 5.532824 40.801703 
L 7.016718 37.897518 
L 9.974482 36.492267 
L 12.529939 37.228575 
L 15.426291 38.926782 
L 20.361118 39.226631 
L 24.238482 37.814801 
L 25.91789 33.022222 
L 29.216862 32.536885 
L 31.039771 30.259345 
L 33.05882 26.219053 
L 38.502483 21.692485 
L 47.081563 17.227328 
L 49.54835 17.293439 
L 52.481987 18.32051 
L 54.525163 17.592662 
L 57.747996 18.198627 
L 62.22976 31.039831 
L 61.149424 37.799448 
L 61.667033 39.976412 
L 58.60744 38.865997 
L 56.854714 39.298069 
L 56.282274 41.06364 
L 54.626679 43.339927 
L 54.68339 45.436367 
L 58.30195 48.722806 
L 61.85064 48.068275 
L 63.08513 45.375583 
L 67.683762 45.426341 
L 66.168848 49.840113 
L 65.452593 54.87771 
L 63.883788 57.614581 
L 58.561381 61.553043 
L 50.862111 72.092581 
L 39.730394 81.985735 
L 35.151814 84.744538 
L 28.814869 87.096963 
L 25.723944 87.412792 
L 24.941578 89.095959 
L 21.256593 88.199857 
L 18.255278 89.353824 
L 11.683968 88.185445 
L 8.010577 88.924885 
L 5.500238 88.60749 
L -0.75305 91.000959 
L -5.929448 91.960979 
L -9.675217 94.252619 
L -12.433081 94.398314 
L -14.998564 92.23639 
L -17.047693 92.125473 
L -19.658921 89.418681 
L -19.945298 90.259325 
L -20.751163 88.629736 
L -20.717324 85.07478 
L -22.687182 81.011616 
L -20.730484 79.907154 
L -20.889025 75.253691 
L -24.859446 69.579109 
z
M 32.330346 64.426836 
L 36.878533 69.090326 
L 39.047978 68.487807 
L 40.162778 66.550535 
L 43.54196 65.603675 
L 46.432672 60.676367 
L 41.682392 56.978537 
L 38.848704 58.21522 
L 35.563519 60.587384 
z
" clip-path="url(#p9b44e96b9f)" style="fill: #e8edf4; stroke: #b8c5d4; stroke-width: 0.45"/>
    <path d="M 32.330346 64.426836 
L 35.563519 60.587384 
L 38.848704 58.21522 
L 41.682392 56.978537 
L 46.432672 60.676367 
L 43.54196 65.603675 
L 40.162778 66.550535 
L 39.047978 68.487807 
L 36.878533 69.090326 
z
" clip-path="url(#p9b44e96b9f)" style="fill: #e8edf4; stroke: #b8c5d4; stroke-width: 0.45"/>
    <path d="M 21.810547 -9.176348 
L 28.587397 -8.512418 
L 30.556941 -7.814022 
L 32.60419 -7.954704 
L 35.962066 -11.878754 
L 41.234968 -16.865279 
L 43.405352 -17.342156 
L 44.142599 -19.444235 
L 47.594785 -21.859638 
L 52.187151 -22.689629 
L 52.579431 -20.427754 
L 57.636767 -20.548383 
L 60.446642 -19.268775 
L 61.75351 -17.768587 
L 64.640775 -17.328056 
L 67.789978 -15.379818 
L 67.803451 -7.705926 
L 66.621286 -3.50396 
L 66.361228 1.026995 
L 67.335661 2.822959 
L 66.650738 6.392327 
L 65.734897 6.944088 
L 64.136013 11.316815 
L 57.747996 18.198627 
L 54.525163 17.592662 
L 52.481987 18.32051 
L 49.54835 17.293439 
L 47.081563 17.227328 
L 43.216105 14.487637 
L 38.527549 13.55707 
L 36.744118 9.711978 
L 36.729079 7.573239 
L 34.132576 6.921215 
L 27.270816 0.261235 
L 25.364563 -3.247349 
L 24.144486 -4.328938 
z
" clip-path="url(#p9b44e96b9f)" style="fill: #e8edf4; stroke: #b8c5d4; stroke-width: 0.45"/>
    <path d="M -10.74114 15.759099 
L -4.764829 15.54792 
L -4.585922 -6.049704 
L -0.072513 -6.250231 
L 9.275773 -8.37299 
L 11.592792 -5.873617 
L 15.463263 -8.249854 
L 17.302465 -8.263327 
L 20.720499 -9.629412 
L 21.810547 -9.176348 
L 24.144486 -4.328938 
L 25.364563 -3.247349 
L 27.270816 0.261235 
L 34.132576 6.921215 
L 36.729079 7.573239 
L 36.744118 9.711978 
L 38.527549 13.55707 
L 43.216105 14.487637 
L 47.081563 17.227328 
L 38.502483 21.692485 
L 33.05882 26.219053 
L 31.039771 30.259345 
L 29.216862 32.536885 
L 25.91789 33.022222 
L 24.238482 37.814801 
L 20.361118 39.226631 
L 15.426291 38.926782 
L 12.529939 37.228575 
L 9.974482 36.492267 
L 7.016718 37.897518 
L 5.532824 40.801703 
L -0.370483 45.331404 
L -4.713444 45.949903 
L -6.06637 43.821191 
L -5.507717 40.126806 
L -9.102464 34.365748 
L -10.73926 33.455233 
z
" clip-path="url(#p9b44e96b9f)" style="fill: #e8edf4; stroke: #b8c5d4; stroke-width: 0.45"/>
    <path d="M 51.612518 -27.004704 
L 70.011434 -32.002196 
L 73.501845 -29.092058 
L 75.169973 -29.649145 
L 77.563756 -28.114805 
L 77.915617 -25.685304 
L 76.640082 -22.866342 
L 77.08876 -18.592312 
L 81.045081 -14.846856 
L 82.895876 -19.053836 
L 85.520265 -20.330624 
L 85.004536 -28.126712 
L 82.464745 -32.511658 
L 80.277128 -34.466476 
L 78.172228 -34.378119 
L 76.474648 -42.260057 
L 78.172228 -46.868089 
L 82.734202 -47.358439 
L 90.0202 -45.649892 
L 91.603105 -46.416278 
L 95.823906 -46.572571 
L 97.984512 -48.391336 
L 101.621901 -48.291826 
L 108.251621 -50.646285 
L 113.0754 -54.161607 
L 114.056413 -51.443222 
L 113.807008 -45.40268 
L 114.556162 -40.082467 
L 114.791467 -30.606971 
L 115.857703 -27.637302 
L 111.697095 -19.094254 
L 107.83665 -15.334386 
L 95.459163 -10.086863 
L 88.608683 -3.579157 
L 86.275685 -2.472189 
L 82.043013 1.835993 
L 79.544894 3.237797 
L 79.032612 7.561019 
L 81.907971 12.152759 
L 83.104236 15.708654 
L 83.179543 17.522526 
L 84.250887 17.219368 
L 84.077415 23.16604 
L 83.094209 25.982808 
L 84.523273 27.020845 
L 83.621531 29.543404 
L 81.087066 31.700315 
L 68.793863 37.031181 
L 66.134696 39.273003 
L 66.654498 41.827207 
L 68.204191 42.235153 
L 67.683762 45.426341 
L 63.08513 45.375583 
L 61.149424 37.799448 
L 62.22976 31.039831 
L 57.747996 18.198627 
L 64.136013 11.316815 
L 65.734897 6.944088 
L 66.650738 6.392327 
L 67.335661 2.822959 
L 66.361228 1.026995 
L 66.621286 -3.50396 
L 67.803451 -7.705926 
L 67.789978 -15.379818 
L 64.640775 -17.328056 
L 61.75351 -17.768587 
L 60.446642 -19.268775 
L 57.636767 -20.548383 
L 52.579431 -20.427754 
z
" clip-path="url(#p9b44e96b9f)" style="fill: #e8edf4; stroke: #b8c5d4; stroke-width: 0.45"/>
    <path d="M 54.626679 43.339927 
L 56.282274 41.06364 
L 56.854714 39.298069 
L 58.60744 38.865997 
L 61.667033 39.976412 
L 63.08513 45.375583 
L 61.85064 48.068275 
L 58.30195 48.722806 
L 54.68339 45.436367 
z
" clip-path="url(#p9b44e96b9f)" style="fill: #e8edf4; stroke: #b8c5d4; stroke-width: 0.45"/>
    <path d="M 130.886524 17.021788 
L 131.972499 12.650628 
L 134.763888 11.600685 
L 134.780181 9.582575 
L 137.678099 4.986136 
L 138.22422 1.124438 
L 135.669076 -5.569694 
L 135.18468 -11.156545 
L 137.303052 -14.548573 
L 138.115811 -18.394292 
L 141.137805 -18.617691 
L 146.764761 -20.957582 
L 149.428001 -21.039046 
L 152.883634 -24.494052 
L 157.873292 -28.228228 
L 159.692755 -31.278421 
L 158.867151 -33.869597 
L 161.442661 -33.140809 
L 164.784871 -37.354055 
L 164.896727 -40.999874 
L 166.904496 -43.711993 
L 170.629273 -38.529641 
L 172.130087 -34.525068 
L 173.105773 -27.230923 
L 174.676771 -24.395042 
L 174.073939 -21.487411 
L 173.00175 -19.703666 
L 170.942282 -23.256742 
L 169.802415 -21.462345 
L 170.958888 -16.970555 
L 170.4206 -14.399745 
L 168.747459 -12.999194 
L 168.365519 -7.863527 
L 159.241258 19.047418 
L 156.918913 27.477982 
L 154.178595 34.50925 
L 149.247528 35.945206 
L 143.954573 38.50975 
L 135.649337 34.792493 
L 133.976195 31.593158 
L 133.576083 26.2178 
L 131.441104 21.384176 
z
" clip-path="url(#p9b44e96b9f)" style="fill: #e8edf4; stroke: #b8c5d4; stroke-width: 0.45"/>
    <path d="M 555.821526 41.632947 
L 558.485706 44.255142 
L 556.440024 38.630066 
L 559.446979 40.388117 
L 561.241376 42.735842 
L 561.140173 39.630504 
L 556.152394 31.132888 
L 556.810371 27.625871 
L 558.053008 26.133516 
L 558.880179 23.100556 
L 558.232228 19.556566 
L 560.737554 15.193552 
L 561.195631 19.811297 
L 563.757042 15.640037 
L 568.682783 13.612841 
L 571.636786 11.026992 
L 576.27051 8.801776 
L 579.027434 8.328346 
L 580.696189 9.075933 
L 585.474042 6.816252 
L 589.151506 6.143862 
L 590.071421 4.815376 
L 591.676258 4.262048 
L 595.027554 4.404923 
L 601.399904 2.629639 
L 604.696056 -0.062114 
L 606.243868 -3.302494 
L 609.800077 -6.380573 
L 610.231209 -12.096199 
L 614.47422 -17.248472 
L 617.028111 -12.013795 
L 619.60832 -13.223533 
L 617.449216 -16.088553 
L 619.352023 -19.030337 
L 622.027169 -17.716889 
L 622.763477 -22.330248 
L 626.076547 -25.313077 
L 627.53851 -27.706233 
L 630.587136 -28.738944 
L 630.682386 -30.433078 
L 633.346253 -29.725596 
L 633.453409 -31.249596 
L 639.049973 -32.93527 
L 643.52923 -30.152654 
L 646.894626 -26.561666 
L 654.545018 -25.951628 
L 653.260396 -29.280991 
L 656.164894 -34.143441 
L 658.898319 -35.727912 
L 657.952712 -37.242826 
L 660.585873 -40.705665 
L 664.258325 -42.844403 
L 667.360216 -42.124075 
L 672.454524 -43.266448 
L 672.344862 -46.364893 
L 667.903517 -48.36107 
L 671.132304 -49.241819 
L 675.148157 -47.738812 
L 678.369424 -45.252286 
L 683.475952 -43.701027 
L 685.207371 -44.314512 
L 688.965673 -42.450557 
L 692.507783 -44.186676 
L 694.785636 -43.658728 
L 696.204987 -44.823661 
L 698.988856 -41.823912 
L 697.373052 -38.578519 
L 695.07076 -36.128965 
L 692.987166 -35.927185 
L 693.689635 -33.503323 
L 689.754932 -27.4938 
L 690.18857 -25.78212 
L 695.008722 -22.432078 
L 699.678478 -20.488852 
L 707.183802 -14.808631 
L 708.893289 -14.814584 
L 712.066618 -13.262072 
L 712.988413 -11.389031 
L 718.77673 -9.332383 
L 722.779737 -11.404383 
L 725.196705 -17.347482 
L 727.792268 -25.496057 
L 726.950684 -28.428128 
L 727.388082 -30.192133 
L 726.686866 -33.662178 
L 727.481452 -38.230105 
L 728.644191 -39.461775 
L 727.700151 -41.486464 
L 730.316393 -48.032082 
L 730.469294 -49.761934 
L 732.722082 -52.032895 
L 734.432195 -49.066985 
L 734.853301 -45.263252 
L 736.364141 -44.530078 
L 736.622945 -41.983393 
L 738.826855 -38.899048 
L 739.281799 -35.466915 
L 739.067487 -33.264572 
L 741.25197 -28.507085 
L 745.142181 -30.793712 
L 747.150264 -28.227288 
L 750.059462 -25.859511 
L 749.436577 -23.172145 
L 750.729658 -17.973187 
L 751.649886 -14.94618 
L 753.177019 -14.206425 
L 754.822589 -9.024073 
L 754.236676 -5.880823 
L 756.199954 -1.768781 
L 762.77001 1.398908 
L 771.120991 6.919335 
L 770.327033 8.388191 
L 773.794885 12.190044 
L 776.152949 18.750388 
L 778.572424 17.418141 
L 781.031378 20.045663 
L 782.512766 19.113529 
L 783.557383 25.539457 
L 790.675441 31.576239 
L 795.414755 36.485061 
L 797.118288 41.35785 
L 796.856038 48.567711 
L 799.745496 53.719984 
L 799.397709 59.085943 
L 796.712536 67.302509 
L 796.835985 70.779134 
L 795.635334 75.125228 
L 792.957994 80.640015 
L 788.465891 83.619084 
L 786.251955 88.3161 
L 784.230399 91.313342 
L 782.433182 96.546452 
L 780.093291 99.568446 
L 778.559265 104.105668 
L 777.776585 108.282255 
L 778.086774 110.199474 
L 774.610149 112.305941 
L 767.8239 112.526519 
L 762.228276 115.013359 
L 755.778222 119.964166 
L 750.756291 117.28432 
L 747.041541 116.215264 
L 747.982761 113.054781 
L 744.669064 114.201541 
L 739.359503 118.592127 
L 721.343467 113.801428 
L 717.424117 110.064119 
L 716.298977 105.46016 
L 714.889653 102.396807 
L 711.910584 99.93754 
L 706.077461 99.207186 
L 708.070505 96.266342 
L 706.603843 91.764213 
L 703.642633 95.960539 
L 698.247848 97.0744 
L 701.418671 93.720284 
L 702.337332 90.221413 
L 704.679103 87.251744 
L 704.195334 82.762148 
L 699.263013 87.932594 
L 695.474945 90.006161 
L 693.1526 94.828506 
L 688.418299 92.333833 
L 688.606292 89.116012 
L 684.811959 84.719159 
L 681.613564 82.447259 
L 682.753431 81.047648 
L 674.973636 77.373316 
L 670.713079 77.200049 
L 664.881836 74.248239 
L 654.025529 74.821932 
L 639.274312 79.016692 
L 633.489128 78.6147 
L 627.061633 81.723797 
L 621.805024 83.122782 
L 620.636644 86.302064 
L 618.397643 88.765718 
L 609.444769 89.452207 
L 604.085704 88.346492 
L 595.563962 89.286459 
L 591.957621 92.519946 
L 590.189857 92.245789 
L 584.233598 95.887222 
L 575.746009 95.646904 
L 569.314441 91.774552 
L 566.055261 90.623093 
L 566.187483 87.148348 
L 569.197885 86.322743 
L 570.225895 84.942245 
L 570.011896 82.764341 
L 570.753217 78.548589 
L 570.073934 74.955408 
L 566.868333 68.826509 
L 565.874788 65.365237 
L 566.135472 61.911484 
L 563.72195 57.965189 
L 563.567482 56.183638 
L 560.881996 53.768549 
L 560.125949 49.019209 
L 556.661543 44.219423 
z
" clip-path="url(#p9b44e96b9f)" style="fill: #e8edf4; stroke: #b8c5d4; stroke-width: 0.45"/>
    <path d="M 746.078075 132.859261 
L 746.233796 130.078839 
L 750.200457 130.615873 
L 756.058332 132.708553 
L 764.092857 130.711123 
L 767.72959 131.118442 
L 768.158842 138.315457 
L 766.081828 140.404691 
L 765.45581 145.282493 
L 763.336811 143.622198 
L 759.127638 147.847663 
L 754.143932 147.333188 
L 750.40631 142.143316 
L 749.576632 138.140623 
z
" clip-path="url(#p9b44e96b9f)" style="fill: #e8edf4; stroke: #b8c5d4; stroke-width: 0.45"/>
    <path d="M -1222.738863 428.968421 
L -1222.738863 396.914809 
L -1217.031475 393.434749 
L -1206.106238 395.335676 
L -1198.999616 393.191297 
L -1197.45478 393.304407 
L -1188.679091 395.829158 
L -1179.624388 392.959439 
L -1161.811541 391.89007 
L -1144.051803 396.048484 
L -1126.832702 397.59285 
L -1113.176233 399.493777 
L -1089.782175 400.919707 
L -1072.325576 399.256279 
L -1046.556221 400.444397 
L -1031.949916 402.345324 
L -999.055135 398.899718 
L -997.748894 396.048484 
L -1021.618267 395.810672 
L -1041.212351 394.385056 
L -1046.318723 392.008819 
L -1062.58783 390.701951 
L -1061.518931 387.969467 
L -1057.006305 383.216993 
L -1058.193954 380.722007 
L -1068.287791 379.058892 
L -1072.919322 376.920154 
L -1082.300664 375.019227 
L -1067.575296 375.375788 
L -1053.562579 374.425168 
L -1044.774827 376.445157 
L -1033.968495 374.662979 
L -1023.993094 372.405492 
L -1019.124373 370.385816 
L -1021.261863 367.89083 
L -1038.005967 364.445537 
L -1073.156977 362.663359 
L -1077.075543 360.405867 
L -1084.912989 358.50494 
L -1089.663269 356.366201 
L -1091.563256 349.475616 
L -1083.132064 351.970915 
L -1063.53751 350.544985 
L -1058.550045 353.15872 
L -1048.931048 352.564974 
L -1033.256 349.594678 
L -1026.368234 347.575002 
L -1017.224543 346.980943 
L -1017.461728 344.723455 
L -1019.599374 342.466281 
L -1017.818132 340.327543 
L -1009.980373 339.258173 
L -1006.417741 341.278163 
L -997.155148 340.090044 
L -990.148634 338.545365 
L -973.285937 337.832557 
L -951.197807 333.793205 
L -942.291462 334.624762 
L -933.266534 333.793205 
L -925.191277 334.86226 
L -916.878521 334.743511 
L -908.922169 333.911954 
L -891.703069 335.100072 
L -865.458874 335.100072 
L -857.145961 334.86226 
L -850.971156 333.080083 
L -843.608393 332.129776 
L -836.008289 333.436644 
L -828.764276 332.367274 
L -822.232915 330.228849 
L -818.314035 332.129776 
L -816.17655 334.268201 
L -812.257514 336.288191 
L -805.963807 334.506013 
L -798.719951 336.763187 
L -790.526101 337.475996 
L -783.519743 339.139424 
L -774.969489 338.783177 
L -767.250636 337.713807 
L -758.106636 337.951306 
L -741.600187 339.852233 
L -738.393802 337.238497 
L -745.281568 333.080083 
L -753.119013 332.605086 
L -756.56274 330.347598 
L -760.006466 323.575762 
L -755.375404 324.40732 
L -747.419053 324.763567 
L -739.581137 324.40732 
L -732.45603 325.357626 
L -726.280759 327.139804 
L -723.668434 329.278229 
L -715.474428 329.63479 
L -691.842715 326.902306 
L -685.667757 328.327922 
L -677.592657 327.852612 
L -672.367536 323.219201 
L -667.49882 325.951686 
L -660.492148 327.021055 
L -652.891888 326.426996 
L -647.904422 328.803233 
L -632.585308 329.753539 
L -625.341452 331.060407 
L -620.591171 328.803233 
L -618.216501 326.664494 
L -612.15998 329.040731 
L -603.847224 328.446672 
L -597.671953 329.753539 
L -593.515732 331.773215 
L -585.440631 331.179469 
L -572.971654 328.327922 
L -549.339785 325.951686 
L -543.402169 324.644818 
L -539.839694 322.743891 
L -538.414704 320.130156 
L -539.127199 317.63517 
L -546.608554 308.368034 
L -546.964801 305.991797 
L -546.371055 303.615874 
L -541.145935 298.8634 
L -540.196098 296.487477 
L -542.095928 291.497505 
L -539.127199 288.76502 
L -531.883342 284.725668 
L -522.858092 281.042564 
L -520.482951 278.428839 
L -517.157974 276.76541 
L -513.357844 275.220731 
L -507.538978 274.864483 
L -503.738847 272.963556 
L -499.463877 271.775438 
L -494.476411 271.06263 
L -490.082535 269.51795 
L -486.638496 267.617024 
L -481.888529 266.904215 
L -478.326053 268.448894 
L -480.582444 270.46857 
L -486.757245 272.250748 
L -489.37004 273.557616 
L -493.882666 272.606996 
L -498.870131 273.201055 
L -507.420228 276.171351 
L -510.389115 277.953529 
L -511.220359 280.329756 
L -510.864268 282.58693 
L -508.014288 284.606606 
L -512.170509 286.032536 
L -517.870626 286.507533 
L -528.558365 293.042184 
L -529.508202 295.299358 
L -527.370717 297.794031 
L -524.164333 299.695271 
L -514.545649 303.021815 
L -512.051603 305.397738 
L -508.964124 310.031463 
L -506.113988 312.051139 
L -504.332907 314.308313 
L -503.501662 319.892658 
L -501.720111 322.149832 
L -501.245271 324.526069 
L -499.345128 326.902306 
L -500.176372 330.1101 
L -507.064138 334.624762 
L -515.139238 335.45632 
L -517.870626 337.595058 
L -521.551851 339.614734 
L -530.696007 341.871909 
L -554.565062 345.436264 
L -559.433778 347.93125 
L -599.691003 348.40656 
L -597.790859 350.782797 
L -588.528267 351.851539 
L -581.75925 353.514968 
L -577.95912 355.653393 
L -584.728136 357.55432 
L -595.178377 356.96026 
L -603.847224 358.50494 
L -604.44097 363.376168 
L -597.315863 365.395844 
L -596.009778 367.653018 
L -588.290612 369.910506 
L -575.465544 370.861126 
L -544.827159 376.326094 
L -529.745857 377.276714 
L -514.90174 378.93983 
L -493.28892 382.741996 
L -487.351304 385.59323 
L -484.382575 387.850718 
L -477.019656 385.711979 
L -456.475578 382.028875 
L -433.081363 378.82108 
L -417.999748 378.702331 
L -403.155787 379.533889 
L -390.924309 380.959819 
L -387.005429 378.346084 
L -378.574081 376.563906 
L -363.25481 376.445157 
L -339.860596 373.831108 
L -313.853899 371.930182 
L -304.472401 370.385816 
L -308.747528 368.247077 
L -311.360166 366.108652 
L -311.360166 363.851478 
L -323.116648 364.088976 
L -335.585625 365.039283 
L -347.460856 365.039283 
L -349.123345 362.782108 
L -348.292101 358.267441 
L -345.56087 356.96026 
L -326.679124 354.10934 
L -311.953912 350.544985 
L -306.491293 348.168748 
L -285.82831 345.792825 
L -276.446968 345.555013 
L -267.540467 344.723455 
L -252.696506 342.10972 
L -237.615047 338.783177 
L -226.57106 334.98101 
L -224.789823 332.605086 
L -231.202278 331.179469 
L -229.064793 328.684483 
L -225.027164 326.783243 
L -212.083034 324.169508 
L -205.90792 322.268581 
L -201.157796 319.892658 
L -198.189067 317.041111 
L -193.795347 315.377682 
L -186.551334 315.734243 
L -183.582605 317.753919 
L -176.338592 317.991418 
L -176.101093 315.734243 
L -173.013615 313.358006 
L -166.482097 313.952066 
L -164.938357 316.209553 
L -157.694657 316.565801 
L -142.256794 314.783623 
L -135.369029 315.140184 
L -132.756703 317.63517 
L -126.106436 315.615494 
L -106.274697 312.882696 
L -93.330723 310.506773 
L -88.105446 309.199905 
L -84.424222 307.061167 
L -79.911753 308.605846 
L -73.618046 307.773975 
L -65.780287 312.763947 
L -58.892522 311.575829 
L -56.161291 309.199905 
L -49.98602 307.536477 
L -42.029825 307.892724 
L -39.654528 310.150212 
L -34.667063 307.892724 
L -28.135545 307.179916 
L -14.597825 307.061167 
L -1.297604 308.130536 
L 1.552376 310.150212 
L 5.471413 311.93239 
L 12.121366 310.86302 
L 32.903099 310.506773 
L 45.372076 308.962094 
L 50.715789 307.298665 
L 62.59102 305.63555 
L 67.222552 303.972122 
L 70.547528 300.645578 
L 73.991255 298.626215 
L 80.285274 299.576209 
L 82.660258 301.714947 
L 87.885535 303.140564 
L 94.179241 302.665254 
L 98.454212 304.803679 
L 102.966994 306.348358 
L 109.142265 304.922742 
L 111.27975 302.308693 
L 116.742212 301.239637 
L 123.036232 299.219961 
L 136.098954 297.200285 
L 150.586667 293.160933 
L 156.286628 293.873742 
L 165.668126 290.071888 
L 171.3684 290.190637 
L 176.355866 288.76502 
L 177.543357 286.626595 
L 182.649885 284.963167 
L 187.637351 283.775048 
L 199.275084 282.349432 
L 210.31907 283.299738 
L 215.1881 284.963167 
L 215.781533 287.576902 
L 224.806783 291.260006 
L 232.05111 291.972815 
L 241.076047 295.299358 
L 246.894757 295.655919 
L 251.763473 294.467801 
L 256.989064 291.972815 
L 262.689024 293.279369 
L 274.326757 294.705299 
L 286.320737 295.180609 
L 291.308203 301.477135 
L 291.070704 303.021815 
L 290.358209 305.754299 
L 284.5395 307.298665 
L 279.788906 309.556153 
L 280.620464 311.93239 
L 287.38948 311.813327 
L 286.557922 314.189564 
L 280.620464 318.942038 
L 285.251995 320.842964 
L 292.258196 321.437024 
L 299.264711 320.367654 
L 302.589688 317.991418 
L 304.608737 315.734243 
L 311.733688 312.051139 
L 313.277427 309.9124 
L 316.483968 306.942418 
L 327.171394 306.11086 
L 339.402873 304.447432 
L 342.371603 302.071195 
L 344.153153 299.813707 
L 348.309375 297.556846 
L 359.353362 294.824362 
L 362.678652 292.804372 
L 370.516098 290.784696 
L 376.572619 291.378756 
L 387.97254 290.071888 
L 394.622807 290.428135 
L 399.016527 288.76502 
L 402.104319 284.725355 
L 407.21022 289.24033 
L 412.316748 290.428135 
L 418.135771 290.903446 
L 423.954794 290.190637 
L 435.829712 290.784696 
L 439.629999 290.190637 
L 444.736214 290.547198 
L 449.367745 291.854066 
L 454.830207 291.022508 
L 461.361725 291.022508 
L 466.94325 290.190637 
L 473.236643 291.022508 
L 480.361907 286.982843 
L 484.518441 285.319414 
L 492.118702 280.804752 
L 500.668643 283.299738 
L 512.425125 289.121268 
L 523.944108 289.24033 
L 537.006831 287.695651 
L 546.150831 284.250358 
L 552.919848 284.012547 
L 557.43263 282.705679 
L 562.182597 283.893797 
L 569.545046 287.695651 
L 576.195 287.458153 
L 580.351534 289.002519 
L 587.595547 290.547198 
L 595.195495 291.141257 
L 601.489515 290.665947 
L 610.277267 286.864094 
L 615.739729 286.388784 
L 627.495898 287.8144 
L 633.196172 286.864094 
L 638.65926 286.864094 
L 649.584185 288.052212 
L 661.578165 286.032536 
L 674.640888 285.794724 
L 685.684875 284.725668 
L 687.347363 281.755372 
L 687.584862 279.260386 
L 691.384835 280.923501 
L 692.453891 283.656299 
L 694.472314 286.151285 
L 696.96636 288.170961 
L 702.072888 289.24033 
L 736.036093 288.28971 
L 750.760991 289.002519 
L 755.036274 290.903446 
L 753.848783 293.160933 
L 757.767819 294.943111 
L 771.067727 297.913407 
L 793.274763 300.883076 
L 800.162215 301.002452 
L 804.081251 298.982149 
L 819.400209 303.972122 
L 833.769172 305.278989 
L 836.738215 307.655226 
L 843.625667 309.080843 
L 848.256885 311.219581 
L 855.025902 312.169888 
L 875.807635 312.288637 
L 883.051021 312.763947 
L 889.820664 313.595505 
L 902.408077 316.209553 
L 906.683361 317.991418 
L 905.970552 320.367654 
L 902.764325 322.506393 
L 895.045315 329.872288 
L 887.08912 330.822909 
L 883.526331 332.961334 
L 875.688572 334.268201 
L 872.957654 336.644438 
L 864.4074 340.802853 
L 860.369615 345.555013 
L 859.775556 348.287811 
L 859.894618 350.544985 
L 863.338344 352.920909 
L 864.644899 355.178396 
L 867.495192 357.317135 
L 878.776677 358.148379 
L 881.151348 360.762427 
L 860.963674 363.019607 
L 849.444691 363.257418 
L 844.338163 366.702711 
L 843.26942 369.553945 
L 837.45071 374.06892 
L 845.525654 376.088596 
L 848.613446 378.583582 
L 853.838097 380.840756 
L 861.200859 382.860746 
L 878.776677 386.662599 
L 892.670644 388.563526 
L 895.757496 391.533822 
L 913.214252 392.84069 
L 918.914526 395.097864 
L 935.658473 393.553498 
L 959.997979 396.914809 
L 959.997979 428.968421 
z
" clip-path="url(#p9b44e96b9f)" style="fill: #e8edf4; stroke: #b8c5d4; stroke-width: 0.45"/>
    <path d="M -586.183832 317.777732 
L -579.533722 315.4015 
L -575.3775 314.688686 
L -568.370829 314.926185 
L -566.589748 311.83714 
L -566.352249 304.708742 
L -562.908523 301.857196 
L -557.326999 300.906889 
L -554.120771 303.164063 
L -548.064249 310.768084 
L -546.401761 313.500568 
L -545.689266 316.233052 
L -548.420497 320.866777 
L -562.314777 322.886453 
L -570.271129 322.767704 
L -567.3024 320.391467 
L -581.196367 322.054895 
L -585.827741 320.272718 
z
" clip-path="url(#p9b44e96b9f)" style="fill: #e8edf4; stroke: #b8c5d4; stroke-width: 0.45"/>
    <path d="M -459.776899 372.178019 
L -458.708157 369.683033 
L -445.764183 368.019918 
L -440.538906 366.000242 
L -434.007701 361.129015 
L -426.40744 356.495608 
L -423.319962 356.495917 
L -414.294711 355.188736 
L -405.150867 356.495917 
L -397.669356 359.109339 
L -395.056874 362.792448 
L -394.106881 368.495228 
L -413.344717 371.940521 
L -437.451427 374.554256 
L -451.820391 374.198009 
z
" clip-path="url(#p9b44e96b9f)" style="fill: #e8edf4; stroke: #b8c5d4; stroke-width: 0.45"/>
    <path d="M -1123.987578 359.822152 
L -1120.306667 357.564659 
L -1109.025025 358.515593 
L -1102.968504 360.416206 
L -1098.337442 362.554636 
L -1096.674797 365.287434 
L -1108.31253 366.118992 
L -1116.268881 363.980253 
L -1120.069012 361.485267 
z
" clip-path="url(#p9b44e96b9f)" style="fill: #e8edf4; stroke: #b8c5d4; stroke-width: 0.45"/>
    <path d="M -533.297366 369.887633 
L -506.578331 370.718877 
L -498.859165 366.085466 
L -492.565458 368.580452 
L -496.127934 374.401982 
L -508.834722 373.570424 
L -522.372129 373.926672 
L -529.972546 371.906996 
z
" clip-path="url(#p9b44e96b9f)" style="fill: #e8edf4; stroke: #b8c5d4; stroke-width: 0.45"/>
    <path d="M -751.817786 319.189881 
L -748.017655 318.120506 
L -724.861096 320.259245 
L -718.210985 319.546436 
L -714.648353 322.991729 
L -719.39832 322.516733 
L -742.436444 322.87298 
L -748.611245 321.684862 
z
" clip-path="url(#p9b44e96b9f)" style="fill: #e8edf4; stroke: #b8c5d4; stroke-width: 0.45"/>
    <path d="M -874.84538 329.882946 
L -873.538831 327.862952 
L -858.457372 329.882628 
L -851.213667 328.813259 
L -854.657393 330.951997 
L -860.357359 332.496363 
L -868.788864 332.021367 
z
" clip-path="url(#p9b44e96b9f)" style="fill: #e8edf4; stroke: #b8c5d4; stroke-width: 0.45"/>
    <path d="M -903.108154 328.694515 
L -898.71444 327.387642 
L -883.395326 331.189496 
L -894.795874 330.357938 
z
" clip-path="url(#p9b44e96b9f)" style="fill: #e8edf4; stroke: #b8c5d4; stroke-width: 0.45"/>
   </g>
   <g id="PathCollection_1">
    <defs>
     <path id="mbd64722b95" d="M 0 2.12132 
C 0.562581 2.12132 1.102195 1.897805 1.5 1.5 
C 1.897805 1.102195 2.12132 0.562581 2.12132 0 
C 2.12132 -0.562581 1.897805 -1.102195 1.5 -1.5 
C 1.102195 -1.897805 0.562581 -2.12132 0 -2.12132 
C -0.562581 -2.12132 -1.102195 -1.897805 -1.5 -1.5 
C -1.897805 -1.102195 -2.12132 -0.562581 -2.12132 0 
C -2.12132 0.562581 -1.897805 1.102195 -1.5 1.5 
C -1.102195 1.897805 -0.562581 2.12132 0 2.12132 
z
" style="stroke: #ffffff; stroke-width: 0.5"/>
    </defs>
    <g clip-path="url(#p9b44e96b9f)">
     <use xlink:href="#mbd64722b95" x="308.309558" y="205.237895" style="fill: #8aa0b7; stroke: #ffffff; stroke-width: 0.5"/>
     <use xlink:href="#mbd64722b95" x="41.429558" y="62.147368" style="fill: #8aa0b7; stroke: #ffffff; stroke-width: 0.5"/>
     <use xlink:href="#mbd64722b95" x="217.564295" y="6.265263" style="fill: #8aa0b7; stroke: #ffffff; stroke-width: 0.5"/>
     <use xlink:href="#mbd64722b95" x="205.134821" y="11.52" style="fill: #8aa0b7; stroke: #ffffff; stroke-width: 0.5"/>
     <use xlink:href="#mbd64722b95" x="59.619032" y="43.957895" style="fill: #8aa0b7; stroke: #ffffff; stroke-width: 0.5"/>
     <use xlink:href="#mbd64722b95" x="288" y="181.894737" style="fill: #8aa0b7; stroke: #ffffff; stroke-width: 0.5"/>
    </g>
   </g>
   <g id="PathCollection_2">
    <defs>
     <path id="mbe0fa6851b" d="M 0 3.674235 
C 0.974418 3.674235 1.909058 3.287094 2.598076 2.598076 
C 3.287094 1.909058 3.674235 0.974418 3.674235 0 
C 3.674235 -0.974418 3.287094 -1.909058 2.598076 -2.598076 
C 1.909058 -3.287094 0.974418 -3.674235 0 -3.674235 
C -0.974418 -3.674235 -1.909058 -3.287094 -2.598076 -2.598076 
C -3.287094 -1.909058 -3.674235 -0.974418 -3.674235 0 
C -3.674235 0.974418 -3.287094 1.909058 -2.598076 2.598076 
C -1.909058 3.287094 -0.974418 3.674235 0 3.674235 
z
" style="stroke: #ffffff; stroke-width: 1.2"/>
    </defs>
    <g clip-path="url(#p9b44e96b9f)">
     <use xlink:href="#mbe0fa6851b" x="288" y="181.894737" style="fill: #f97316; stroke: #ffffff; stroke-width: 1.2"/>
    </g>
   </g>
   <g id="PathCollection_3">
    <path d="M 288 186.82424 
C 289.307319 186.82424 290.561271 186.304836 291.485685 185.380422 
C 292.410099 184.456007 292.929503 183.202056 292.929503 181.894737 
C 292.929503 180.587417 292.410099 179.333466 291.485685 178.409052 
C 290.561271 177.484637 289.307319 176.965234 288 176.965234 
C 286.692681 176.965234 285.438729 177.484637 284.514315 178.409052 
C 283.589901 179.333466 283.070497 180.587417 283.070497 181.894737 
C 283.070497 183.202056 283.589901 184.456007 284.514315 185.380422 
C 285.438729 186.304836 286.692681 186.82424 288 186.82424 
L 288 186.82424 
z
" clip-path="url(#p9b44e96b9f)" style="fill: none; stroke: #7c2d12; stroke-width: 1.1"/>
   </g>
  </g>
 </g>
 <defs>
  <clipPath id="p9b44e96b9f">
   <rect x="0" y="0" width="576" height="363.789474"/>
  </clipPath>
 </defs>
</svg>
