<?xml version="1.0" encoding="utf-8" standalone="no"?>
<!DOCTYPE svg PUBLIC "-//W3C//DTD SVG 1.1//EN"
  "http://www.w3.org/Graphics/SVG/1.1/DTD/svg11.dtd">
<svg xmlns:xlink="http://www.w3.org/1999/xlink" width="576pt" height="384pt" viewBox="0 0 576 384" xmlns="http://www.w3.org/2000/svg" version="1.1">
 <metadata>
  <rdf:RDF xmlns:dc="http://purl.org/dc/elements/1.1/" xmlns:cc="http://creativecommons.org/ns#" xmlns:rdf="http://www.w3.org/1999/02/22-rdf-syntax-ns#">
   <cc:Work>
    <dc:type rdf:resource="http://purl.org/dc/dcmitype/StillImage"/>
    <dc:date>2026-06-09T04:57:22.287036</dc:date>
    <dc:format>image/svg+xml</dc:format>
    <dc:creator>
     <cc:Agent>
      <dc:title>Matplotlib v3.10.8, https://matplotlib.org/</dc:title>
     </cc:Agent>
    </dc:creator>
   </cc:Work>
  </rdf:RDF>
 </metadata>
 <defs>
  <style type="text/css">*{stroke-linejoin: round; stroke-linecap: butt}</style>
 </defs>
 <g id="figure_1">
  <g id="patch_1">
   <path d="M 0 384 
L 576 384 
L 576 0 
L 0 0 
z
" style="fill: #eaf3ff"/>
  </g>
  <g id="axes_1">
   <g id="PatchCollection_1">
    <path d="M 33.445755 94.223041 
L 35.137434 88.033775 
L 67.297208 92.24065 
L 74.210274 87.966307 
L 65.440329 79.648799 
L 65.585188 72.315045 
L 53.471571 69.320623 
L 57.79602 64.018869 
L 86.162661 67.882447 
L 87.842434 78.339111 
L 86.374989 85.719994 
L 81.693848 88.955517 
L 86.635438 94.720127 
L 86.240548 99.936057 
L 73.488458 96.672752 
L 64.427305 98.004267 
L 52.712548 96.616197 
L 43.729282 100.204939 
z
" clip-path="url(#pa29ed48832)" style="fill: #e8edf4; stroke: #b8c5d4; stroke-width: 0.45"/>
    <path d="M 81.693848 88.955517 
L 86.374989 85.719994 
L 87.842434 78.339111 
L 86.162661 67.882447 
L 88.563755 64.609717 
L 103.551243 64.698517 
L 114.924192 69.640603 
L 119.984348 69.1584 
L 123.470399 75.969271 
L 133.975184 75.586287 
L 133.356555 81.308232 
L 141.89929 82.001771 
L 151.335489 89.045807 
L 144.205133 96.861267 
L 135.07304 92.68515 
L 119.943669 92.576506 
L 116.481926 96.078432 
L 109.110965 97.261615 
L 106.189469 92.603791 
L 99.840958 95.360088 
L 92.155969 108.507564 
L 87.212891 105.454603 
L 86.635438 94.720127 
z
" clip-path="url(#pa29ed48832)" style="fill: #e8edf4; stroke: #b8c5d4; stroke-width: 0.45"/>
    <path d="M 42.485079 590.857533 
L 47.550692 587.347174 
L 47.529856 579.237033 
L 59.135473 573.694674 
L 57.221544 563.312424 
L 62.121462 556.632025 
L 63.514989 547.67158 
L 85.47061 534.604471 
L 101.206208 530.910557 
L 103.780438 528.024283 
L 121.082204 528.925189 
L 130.166673 467.954275 
L 127.160344 456.959846 
L 118.643407 449.955002 
L 118.741137 436.004846 
L 129.553997 432.841752 
L 133.393266 434.829103 
L 134.042157 427.47501 
L 122.791743 425.489642 
L 122.554114 413.47574 
L 159.963551 413.904861 
L 166.314048 407.286474 
L 171.648048 413.376025 
L 175.391075 424.701846 
L 179.014544 422.335478 
L 189.585309 432.490517 
L 204.513266 431.246314 
L 208.229505 425.37058 
L 230.413329 417.737185 
L 232.644758 409.605713 
L 246.35927 404.142728 
L 245.320946 400.107502 
L 229.056016 398.457494 
L 226.390505 386.365705 
L 227.164907 373.49356 
L 218.571571 368.516252 
L 222.169739 366.749166 
L 236.383817 369.205822 
L 251.650606 374.005033 
L 257.192965 369.466271 
L 270.999751 366.487228 
L 292.475649 359.299822 
L 299.49736 351.972517 
L 296.955376 346.554678 
L 306.937278 345.705861 
L 311.405594 350.130025 
L 308.908755 358.560642 
L 315.505809 361.468744 
L 319.909633 370.39099 
L 314.584067 377.155228 
L 311.529122 393.499533 
L 316.443923 403.207096 
L 317.835962 412.091639 
L 329.647458 421.100205 
L 339.071751 422.052705 
L 341.19404 418.292314 
L 355.949356 414.094369 
L 362.1922 408.988076 
L 387.922598 411.500791 
L 389.652477 407.577682 
L 386.431837 403.760736 
L 388.352215 398.201014 
L 396.100704 399.90708 
L 405.166321 397.944037 
L 424.5492 405.973314 
L 430.492403 400.767307 
L 434.787087 401.569986 
L 437.405469 406.974928 
L 446.598583 405.602732 
L 453.956645 398.309658 
L 459.852719 384.170986 
L 471.21029 366.600338 
L 477.75079 365.692982 
L 482.500391 376.312365 
L 493.269594 409.889974 
L 503.537743 413.059517 
L 504.055665 426.313158 
L 489.614376 442.118705 
L 495.586352 447.906135 
L 529.525118 450.921392 
L 530.217665 470.165861 
L 544.800837 457.567064 
L 568.961594 464.467728 
L 600.850501 476.1934 
L 610.221712 487.444807 
L 607.073501 498.073119 
L 629.399208 492.155713 
L 666.764989 502.310752 
L 695.449626 501.562642 
L 723.832637 517.452525 
L 748.353559 538.962158 
L 763.143602 544.500549 
L 779.562321 545.270486 
L 786.520532 551.326799 
L 796.224126 587.389838 
L 788.578329 619.130908 
L 778.810243 631.666205 
L 751.74684 658.381846 
L 739.514657 680.086939 
L 725.301571 696.731877 
L 720.501368 697.106924 
L 715.137106 711.232697 
L 716.499876 747.207432 
L 709.107087 789.460728 
L 703.036387 797.03608 
L 699.632192 822.702978 
L 680.164977 847.766627 
L 676.90068 867.596486 
L 661.360048 875.916971 
L 656.864942 887.425353 
L 636.005688 887.379713 
L 605.802012 894.757619 
L 592.278993 903.299361 
L 570.775809 908.908197 
L 548.179731 924.195822 
L 531.927204 943.238877 
L 529.132708 957.574994 
L 532.325071 968.17751 
L 528.738809 987.573783 
L 524.381618 996.94301 
L 510.963274 1007.509807 
L 489.660016 1041.301728 
L 472.776458 1056.531807 
L 459.723239 1065.511103 
L 450.96768 1083.774299 
L 438.265696 1094.752853 
L 432.949555 1083.878478 
L 441.415891 1074.771189 
L 430.311329 1061.707057 
L 395.491005 1038.794471 
L 388.353704 1039.355057 
L 369.100305 1024.505978 
L 356.637438 1026.552861 
L 382.254727 1000.373002 
L 403.924102 981.732775 
L 432.984282 963.330674 
L 433.3757 947.997408 
L 423.743048 936.914674 
L 414.234419 940.593705 
L 420.605255 918.159353 
L 420.615176 907.603471 
L 413.705583 904.1199 
L 406.504286 907.224455 
L 399.345653 906.373158 
L 397.101325 898.982353 
L 395.314891 881.387892 
L 391.719204 875.653049 
L 378.752305 870.456963 
L 370.915016 874.217353 
L 350.64661 870.531377 
L 351.923059 844.467603 
L 346.245266 833.792658 
L 352.247008 829.823908 
L 350.400051 818.88008 
L 355.66063 810.467322 
L 359.071274 795.3444 
L 354.536481 783.407392 
L 344.048563 778.016838 
L 341.989278 770.440494 
L 344.808579 759.351807 
L 307.998919 758.559049 
L 300.615059 736.20308 
L 306.217942 735.882603 
L 305.964934 727.602799 
L 302.223395 721.996939 
L 301.376563 710.89833 
L 290.224872 705.204166 
L 278.146477 705.392682 
L 270.200048 699.816588 
L 257.221243 696.012541 
L 249.667223 688.839025 
L 228.166024 685.669978 
L 207.316196 668.472392 
L 208.859544 655.600744 
L 206.49913 648.219861 
L 208.542044 633.830166 
L 183.41936 637.081564 
L 173.303016 644.290799 
L 156.514708 652.071533 
L 152.23193 657.878807 
L 128.07018 656.673299 
L 117.239958 659.98026 
L 108.505235 657.775619 
L 109.787637 628.610267 
L 94.033684 639.925174 
L 77.090098 639.42908 
L 69.829766 629.187721 
L 57.087102 628.074486 
L 61.144653 619.8304 
L 50.475661 608.149377 
z
" clip-path="url(#pa29ed48832)" style="fill: #e8edf4; stroke: #b8c5d4; stroke-width: 0.45"/>
    <path d="M -53.585956 413.925697 
L -46.422363 412.485041 
L -47.272667 402.866775 
L -42.77012 395.912533 
L -33.245617 394.62517 
L -17.811644 372.486986 
L -24.888421 367.917963 
L -21.265945 356.774705 
L -25.597835 339.21001 
L -21.481249 334.169201 
L -24.511886 317.930564 
L -32.286171 307.703592 
L -29.825546 298.371076 
L -23.637273 299.749224 
L -20.017277 294.042658 
L -24.474679 282.733705 
L -22.144527 279.92631 
L -12.22414 280.53601 
L 2.18143 267.133045 
L 10.087676 265.089635 
L 13.815821 242.515385 
L 24.827614 233.605541 
L 36.926348 233.240912 
L 38.453325 229.238924 
L 53.476532 230.841307 
L 76.066657 216.853447 
L 85.361469 207.603779 
L 92.163411 208.780017 
L 97.200747 213.830748 
L 93.473594 220.295346 
L 81.140704 223.513506 
L 76.270551 233.11292 
L 68.838571 238.618072 
L 63.258508 245.753389 
L 60.910001 259.45401 
L 55.58493 270.681603 
L 65.496387 271.967478 
L 67.958501 280.794474 
L 72.194645 285.018713 
L 73.710708 292.749342 
L 71.430165 299.855885 
L 72.105844 303.86333 
L 76.831633 305.463728 
L 81.404626 312.160994 
L 106.094715 310.314533 
L 117.248391 312.760771 
L 130.761985 329.282678 
L 138.521883 327.229346 
L 152.350993 328.257252 
L 163.294325 326.067494 
L 170.08436 329.367014 
L 166.626587 339.708088 
L 162.341825 346.15433 
L 160.838165 359.924404 
L 164.700751 372.681951 
L 170.158774 378.387029 
L 170.819075 382.685682 
L 161.089188 392.243424 
L 168.055833 396.474607 
L 173.159149 403.187748 
L 179.014544 422.335478 
L 175.391075 424.701846 
L 171.648048 413.376025 
L 166.314048 407.286474 
L 159.963551 413.904861 
L 122.554114 413.47574 
L 122.791743 425.489642 
L 134.042157 427.47501 
L 133.393266 434.829103 
L 129.553997 432.841752 
L 118.741137 436.004846 
L 118.643407 449.955002 
L 127.160344 456.959846 
L 130.166673 467.954275 
L 121.082204 528.925189 
L 111.474356 518.718557 
L 105.740505 518.263142 
L 118.123997 498.723002 
L 103.421266 489.731799 
L 91.898001 491.381807 
L 84.964594 488.059963 
L 74.384899 493.136986 
L 60.088469 490.731924 
L 48.777532 470.601432 
L 39.890012 465.654385 
L 33.76127 456.591744 
L 20.992809 447.498346 
L 15.874114 449.31901 
L -1.772437 438.411892 
L -7.226492 441.466838 
L -23.519699 438.802814 
L -28.197367 430.542853 
L -31.777179 430.849439 
L -50.980968 419.886264 
z
" clip-path="url(#pa29ed48832)" style="fill: #e8edf4; stroke: #b8c5d4; stroke-width: 0.45"/>
    <path d="M 55.58493 270.681603 
L 60.910001 259.45401 
L 63.258508 245.753389 
L 68.838571 238.618072 
L 76.270551 233.11292 
L 81.140704 223.513506 
L 93.473594 220.295346 
L 92.927891 224.832123 
L 81.656641 227.072978 
L 87.919329 235.786369 
L 87.685173 245.827307 
L 79.21586 256.979494 
L 86.483633 272.212549 
L 94.760462 270.965865 
L 99.072012 257.088139 
L 93.118391 250.330846 
L 92.148032 235.795795 
L 116.058262 227.990752 
L 113.398208 218.94101 
L 120.129704 212.883705 
L 127.021438 226.375471 
L 140.486415 226.687017 
L 152.961188 237.393713 
L 153.71277 243.750658 
L 170.952028 243.91933 
L 191.465008 241.946365 
L 202.459438 250.544662 
L 217.143317 252.917478 
L 227.914008 246.919705 
L 228.134274 242.084775 
L 274.925837 240.659994 
L 258.621715 246.330842 
L 265.180571 255.394474 
L 280.535665 256.837115 
L 295.092544 266.278275 
L 298.151954 281.660654 
L 308.158165 281.227068 
L 315.68093 285.752932 
L 300.468712 297.031623 
L 298.790923 304.032002 
L 305.363173 311.1569 
L 300.595215 314.75358 
L 288.780743 317.835314 
L 289.163231 326.701502 
L 283.962184 331.985892 
L 296.955376 346.554678 
L 299.49736 351.972517 
L 292.475649 359.299822 
L 270.999751 366.487228 
L 257.192965 369.466271 
L 251.650606 374.005033 
L 236.383817 369.205822 
L 222.169739 366.749166 
L 218.571571 368.516252 
L 227.164907 373.49356 
L 226.390505 386.365705 
L 229.056016 398.457494 
L 245.320946 400.107502 
L 246.35927 404.142728 
L 232.644758 409.605713 
L 230.413329 417.737185 
L 208.229505 425.37058 
L 204.513266 431.246314 
L 189.585309 432.490517 
L 179.014544 422.335478 
L 173.159149 403.187748 
L 168.055833 396.474607 
L 161.089188 392.243424 
L 170.819075 382.685682 
L 170.158774 378.387029 
L 164.700751 372.681951 
L 160.838165 359.924404 
L 162.341825 346.15433 
L 166.626587 339.708088 
L 170.08436 329.367014 
L 163.294325 326.067494 
L 152.350993 328.257252 
L 138.521883 327.229346 
L 130.761985 329.282678 
L 117.248391 312.760771 
L 106.094715 310.314533 
L 81.404626 312.160994 
L 76.831633 305.463728 
L 72.105844 303.86333 
L 71.430165 299.855885 
L 73.710708 292.749342 
L 72.194645 285.018713 
L 67.958501 280.794474 
L 65.496387 271.967478 
z
" clip-path="url(#pa29ed48832)" style="fill: #e8edf4; stroke: #b8c5d4; stroke-width: 0.45"/>
    <path d="M 283.962184 331.985892 
L 289.163231 326.701502 
L 288.780743 317.835314 
L 300.595215 314.75358 
L 305.363173 311.1569 
L 298.790923 304.032002 
L 300.468712 297.031623 
L 315.68093 285.752932 
L 328.287665 292.815322 
L 340.167126 305.324326 
L 340.70638 315.210482 
L 347.940419 315.6654 
L 365.809219 331.715521 
L 362.74088 348.987521 
L 351.085653 353.997572 
L 352.123977 358.52542 
L 348.581868 368.43142 
L 357.089876 382.374631 
L 363.236477 382.396955 
L 365.758122 393.236603 
L 377.483794 409.929166 
L 372.812079 410.616752 
L 362.1922 408.988076 
L 355.949356 414.094369 
L 341.19404 418.292314 
L 339.071751 422.052705 
L 329.647458 421.100205 
L 317.835962 412.091639 
L 316.443923 403.207096 
L 311.529122 393.499533 
L 314.584067 377.155228 
L 319.909633 370.39099 
L 315.505809 361.468744 
L 308.908755 358.560642 
L 311.405594 350.130025 
L 306.937278 345.705861 
L 296.955376 346.554678 
z
" clip-path="url(#pa29ed48832)" style="fill: #e8edf4; stroke: #b8c5d4; stroke-width: 0.45"/>
    <path d="M 348.581868 368.43142 
L 352.123977 358.52542 
L 351.085653 353.997572 
L 362.74088 348.987521 
L 365.809219 331.715521 
L 388.813087 335.560744 
L 390.877829 332.099994 
L 406.401594 330.714404 
L 427.045544 335.874275 
L 417.050247 352.382291 
L 418.56879 365.517861 
L 426.106934 376.895275 
L 421.061661 393.93808 
L 416.164719 402.012502 
L 405.166321 397.944037 
L 396.100704 399.90708 
L 388.352215 398.201014 
L 386.431837 403.760736 
L 389.652477 407.577682 
L 387.922598 411.500791 
L 377.483794 409.929166 
L 365.758122 393.236603 
L 363.236477 382.396955 
L 357.089876 382.374631 
z
" clip-path="url(#pa29ed48832)" style="fill: #e8edf4; stroke: #b8c5d4; stroke-width: 0.45"/>
    <path d="M 1374.866883 -488.335881 
L 1399.760372 -492.512494 
L 1432.002993 -487.572889 
L 1425.916915 -509.305764 
L 1444.042196 -501.069615 
L 1488.744212 -516.041725 
L 1494.508821 -531.774842 
L 1511.300602 -535.651318 
L 1514.081704 -528.899483 
L 1523.00643 -528.582975 
L 1545.331641 -511.823936 
L 1555.185055 -513.319162 
L 1576.276977 -502.899209 
L 1581.817352 -503.305014 
L 1590.878008 -498.2776 
L 1618.546149 -494.741443 
L 1608.838587 -481.593967 
L 1606.401774 -467.915174 
L 1601.130282 -464.635498 
L 1592.382165 -466.402584 
L 1592.999305 -461.523998 
L 1578.957868 -450.734951 
L 1578.674102 -442.041404 
L 1587.841915 -445.049717 
L 1594.436985 -436.630014 
L 1593.645219 -431.204733 
L 1599.295727 -423.995498 
L 1592.639141 -418.147545 
L 1597.585196 -403.291522 
L 1607.992251 -400.855701 
L 1605.795548 -392.521822 
L 1588.401508 -381.674733 
L 1550.53368 -386.873299 
L 1522.567883 -380.64385 
L 1520.37118 -369.081889 
L 1498.11443 -366.592986 
L 1476.51054 -375.2781 
L 1469.530501 -371.127283 
L 1434.186798 -379.853076 
L 1426.534055 -387.317799 
L 1436.462876 -398.834119 
L 1440.119087 -437.08642 
L 1420.306094 -457.235764 
L 1406.145098 -466.950272 
L 1376.802145 -474.335123 
z
" clip-path="url(#pa29ed48832)" style="fill: #e8edf4; stroke: #b8c5d4; stroke-width: 0.45"/>
    <path d="M 416.164719 402.012502 
L 421.061661 393.93808 
L 426.106934 376.895275 
L 418.56879 365.517861 
L 417.050247 352.382291 
L 427.045544 335.874275 
L 447.702887 342.530861 
L 468.031817 358.737252 
L 471.21029 366.600338 
L 459.852719 384.170986 
L 453.956645 398.309658 
L 446.598583 405.602732 
L 437.405469 406.974928 
L 434.787087 401.569986 
L 430.492403 400.767307 
L 424.5492 405.973314 
z
" clip-path="url(#pa29ed48832)" style="fill: #e8edf4; stroke: #b8c5d4; stroke-width: 0.45"/>
    <path d="M 1627.088883 -364.925119 
L 1630.963376 -372.05994 
L 1643.328016 -379.391709 
L 1646.592313 -362.927846 
L 1640.251243 -348.096131 
L 1631.533883 -352.00535 
z
" clip-path="url(#pa29ed48832)" style="fill: #e8edf4; stroke: #b8c5d4; stroke-width: 0.45"/>
    <path d="M 171.985391 93.610365 
L 174.706962 90.804459 
L 190.417258 90.916576 
L 200.230985 92.60776 
L 203.692727 96.421728 
L 198.774454 101.262611 
L 173.104083 101.826174 
z
" clip-path="url(#pa29ed48832)" style="fill: #e8edf4; stroke: #b8c5d4; stroke-width: 0.45"/>
    <path d="M -41.04421 96.461416 
L -38.740351 92.072971 
L -26.296335 91.381912 
L -13.375077 93.103357 
L -3.174894 97.714549 
L 0.006555 102.97215 
L -13.489179 103.329834 
L -19.321753 106.538568 
L -30.06764 103.45733 
z
" clip-path="url(#pa29ed48832)" style="fill: #e8edf4; stroke: #b8c5d4; stroke-width: 0.45"/>
    <path d="M -168.478292 25.99626 
L -158.343593 20.064963 
L -154.182855 13.13751 
L -145.502206 8.868127 
L -135.696913 5.125596 
L -121.160374 3.288064 
L -116.508503 1.178674 
L -84.840359 2.765182 
L -66.806855 9.306178 
L -59.164531 16.33533 
L -41.230742 14.166408 
L -6.217437 39.229064 
L 0.103294 38.965142 
L 11.55413 42.88081 
L 10.155641 48.286248 
L 24.309196 49.077021 
L 38.821923 56.935146 
L 36.544356 61.432732 
L 23.777383 63.870041 
L 10.854141 64.823533 
L -2.374199 63.304494 
L -29.865234 65.174767 
L -16.994081 54.463607 
L -24.818968 49.476377 
L -37.196011 48.192982 
L -43.830273 42.650623 
L -48.381437 31.716221 
L -59.231999 32.463834 
L -77.135527 27.315373 
L -82.896663 23.288084 
L -107.922113 20.312514 
L -114.623843 16.567502 
L -107.424035 11.770275 
L -126.257242 10.787514 
L -140.053609 20.764455 
L -148.008968 21.032346 
L -150.761296 25.716959 
L -160.26298 27.816428 
z
" clip-path="url(#pa29ed48832)" style="fill: #e8edf4; stroke: #b8c5d4; stroke-width: 0.45"/>
    <path d="M 273.6 252.672 
L 279.168 247.392 
L 278.784 239.808 
L 289.824 237.312 
L 293.856 237.984 
L 293.088 252.288 
L 277.056 254.4 
z
" clip-path="url(#pa29ed48832)" style="fill: #e8edf4; stroke: #b8c5d4; stroke-width: 0.45"/>
   </g>
   <g id="PathCollection_1">
    <defs>
     <path id="m711945c266" d="M 0 2.12132 
C 0.562581 2.12132 1.102195 1.897805 1.5 1.5 
C 1.897805 1.102195 2.12132 0.562581 2.12132 0 
C 2.12132 -0.562581 1.897805 -1.102195 1.5 -1.5 
C 1.102195 -1.897805 0.562581 -2.12132 0 -2.12132 
C -0.562581 -2.12132 -1.102195 -1.897805 -1.5 -1.5 
C -1.897805 -1.102195 -2.12132 -0.562581 -2.12132 0 
C -2.12132 0.562581 -1.897805 1.102195 -1.5 1.5 
C -1.102195 1.897805 -0.562581 2.12132 0 2.12132 
z
" style="stroke: #ffffff; stroke-width: 0.5"/>
    </defs>
    <g clip-path="url(#pa29ed48832)">
     <use xlink:href="#m711945c266" x="276.48" y="119.04" style="fill: #8aa0b7; stroke: #ffffff; stroke-width: 0.5"/>
     <use xlink:href="#m711945c266" x="250.24" y="96" style="fill: #8aa0b7; stroke: #ffffff; stroke-width: 0.5"/>
     <use xlink:href="#m711945c266" x="119.68" y="206.4" style="fill: #8aa0b7; stroke: #ffffff; stroke-width: 0.5"/>
     <use xlink:href="#m711945c266" x="320" y="193.6" style="fill: #8aa0b7; stroke: #ffffff; stroke-width: 0.5"/>
     <use xlink:href="#m711945c266" x="256.64064" y="102.72" style="fill: #8aa0b7; stroke: #ffffff; stroke-width: 0.5"/>
     <use xlink:href="#m711945c266" x="152.8608" y="212.57472" style="fill: #8aa0b7; stroke: #ffffff; stroke-width: 0.5"/>
     <use xlink:href="#m711945c266" x="138.432" y="212.74368" style="fill: #8aa0b7; stroke: #ffffff; stroke-width: 0.5"/>
     <use xlink:href="#m711945c266" x="285.44" y="150.4" style="fill: #8aa0b7; stroke: #ffffff; stroke-width: 0.5"/>
     <use xlink:href="#m711945c266" x="279.04" y="213.76" style="fill: #8aa0b7; stroke: #ffffff; stroke-width: 0.5"/>
     <use xlink:href="#m711945c266" x="445.44" y="369.6" style="fill: #8aa0b7; stroke: #ffffff; stroke-width: 0.5"/>
     <use xlink:href="#m711945c266" x="280.640006" y="134.4" style="fill: #8aa0b7; stroke: #ffffff; stroke-width: 0.5"/>
     <use xlink:href="#m711945c266" x="72.64" y="81.6" style="fill: #8aa0b7; stroke: #ffffff; stroke-width: 0.5"/>
     <use xlink:href="#m711945c266" x="258.24" y="113.6" style="fill: #8aa0b7; stroke: #ffffff; stroke-width: 0.5"/>
     <use xlink:href="#m711945c266" x="292.48" y="179.84" style="fill: #8aa0b7; stroke: #ffffff; stroke-width: 0.5"/>
     <use xlink:href="#m711945c266" x="252.47808" y="99.44064" style="fill: #8aa0b7; stroke: #ffffff; stroke-width: 0.5"/>
     <use xlink:href="#m711945c266" x="291.84" y="164.799994" style="fill: #8aa0b7; stroke: #ffffff; stroke-width: 0.5"/>
     <use xlink:href="#m711945c266" x="268.8" y="124.8" style="fill: #8aa0b7; stroke: #ffffff; stroke-width: 0.5"/>
     <use xlink:href="#m711945c266" x="186.24" y="96" style="fill: #8aa0b7; stroke: #ffffff; stroke-width: 0.5"/>
     <use xlink:href="#m711945c266" x="252.38784" y="99.984" style="fill: #8aa0b7; stroke: #ffffff; stroke-width: 0.5"/>
     <use xlink:href="#m711945c266" x="84.52032" y="29.8752" style="fill: #8aa0b7; stroke: #ffffff; stroke-width: 0.5"/>
     <use xlink:href="#m711945c266" x="291.84" y="235.2" style="fill: #8aa0b7; stroke: #ffffff; stroke-width: 0.5"/>
     <use xlink:href="#m711945c266" x="288" y="192" style="fill: #8aa0b7; stroke: #ffffff; stroke-width: 0.5"/>
     <use xlink:href="#m711945c266" x="221.952" y="92.72256" style="fill: #8aa0b7; stroke: #ffffff; stroke-width: 0.5"/>
     <use xlink:href="#m711945c266" x="217.03104" y="94.35264" style="fill: #8aa0b7; stroke: #ffffff; stroke-width: 0.5"/>
    </g>
   </g>
   <g id="PathCollection_2">
    <defs>
     <path id="m21bb5418b6" d="M 0 3.674235 
C 0.974418 3.674235 1.909058 3.287094 2.598076 2.598076 
C 3.287094 1.909058 3.674235 0.974418 3.674235 0 
C 3.674235 -0.974418 3.287094 -1.909058 2.598076 -2.598076 
C 1.909058 -3.287094 0.974418 -3.674235 0 -3.674235 
C -0.974418 -3.674235 -1.909058 -3.287094 -2.598076 -2.598076 
C -3.287094 -1.909058 -3.674235 -0.974418 -3.674235 0 
C -3.674235 0.974418 -3.287094 1.909058 -2.598076 2.598076 
C -1.909058 3.287094 -0.974418 3.674235 0 3.674235 
z
" style="stroke: #ffffff; stroke-width: 1.2"/>
    </defs>
    <g clip-path="url(#pa29ed48832)">
     <use xlink:href="#m21bb5418b6" x="288" y="192" style="fill: #f97316; stroke: #ffffff; stroke-width: 1.2"/>
    </g>
   </g>
   <g id="PathCollection_3">
    <path d="M 288 196.929503 
C 289.307319 196.929503 290.561271 196.410099 291.485685 195.485685 
C 292.410099 194.561271 292.929503 193.307319 292.929503 192 
C 292.929503 190.692681 292.410099 189.438729 291.485685 188.514315 
C 290.561271 187.589901 289.307319 187.070497 288 187.070497 
C 286.692681 187.070497 285.438729 187.589901 284.514315 188.514315 
C 283.589901 189.438729 283.070497 190.692681 283.070497 192 
C 283.070497 193.307319 283.589901 194.561271 284.514315 195.485685 
C 285.438729 196.410099 286.692681 196.929503 288 196.929503 
L 288 196.929503 
z
" clip-path="url(#pa29ed48832)" style="fill: none; stroke: #7c2d12; stroke-width: 1.1"/>
   </g>
  </g>
 </g>
 <defs>
  <clipPath id="pa29ed48832">
   <rect x="0" y="-0" width="576" height="384"/>
  </clipPath>
 </defs>
</svg>
