<?xml version="1.0" encoding="utf-8" standalone="no"?>
<!DOCTYPE svg PUBLIC "-//W3C//DTD SVG 1.1//EN"
  "http://www.w3.org/Graphics/SVG/1.1/DTD/svg11.dtd">
<svg xmlns:xlink="http://www.w3.org/1999/xlink" width="534.315789pt" height="432pt" viewBox="0 0 534.315789 432" xmlns="http://www.w3.org/2000/svg" version="1.1">
 <metadata>
  <rdf:RDF xmlns:dc="http://purl.org/dc/elements/1.1/" xmlns:cc="http://creativecommons.org/ns#" xmlns:rdf="http://www.w3.org/1999/02/22-rdf-syntax-ns#">
   <cc:Work>
    <dc:type rdf:resource="http://purl.org/dc/dcmitype/StillImage"/>
    <dc:date>2026-06-09T04:57:20.123029</dc:date>
    <dc:format>image/svg+xml</dc:format>
    <dc:creator>
     <cc:Agent>
      <dc:title>Matplotlib v3.10.8, https://matplotlib.org/</dc:title>
     </cc:Agent>
    </dc:creator>
   </cc:Work>
  </rdf:RDF>
 </metadata>
 <defs>
  <style type="text/css">*{stroke-linejoin: round; stroke-linecap: butt}</style>
 </defs>
 <g id="figure_1">
  <g id="patch_1">
   <path d="M 0 432 
L 534.315789 432 
L 534.315789 0 
L 0 0 
z
" style="fill: #eaf3ff"/>
  </g>
  <g id="axes_1">
   <g id="PatchCollection_1">
    <path d="M 52.613453 133.848708 
L 57.661257 127.221036 
L 55.107077 125.437358 
L 62.084525 115.829358 
L 71.07748 120.900887 
L 72.166576 114.513856 
L 90.218464 105.002564 
L 103.878716 104.776158 
L 133.508463 114.368852 
L 142.787194 110.679887 
L 156.650896 110.504201 
L 167.835344 115.035809 
L 170.375966 112.440732 
L 182.659257 112.817848 
L 184.850556 108.676344 
L 170.679648 102.66191 
L 179.07247 98.402007 
L 177.434758 96.019551 
L 185.829839 93.74578 
L 179.516694 87.755523 
L 183.526543 84.771255 
L 216.249524 81.72821 
L 220.519997 79.568016 
L 242.401849 76.339894 
L 250.264132 72.711983 
L 265.979659 74.596662 
L 268.73313 83.66034 
L 277.863012 81.532082 
L 289.094715 84.514444 
L 288.370308 89.287489 
L 296.75794 88.78868 
L 318.675209 80.536305 
L 315.475254 83.278026 
L 326.631488 90.034266 
L 346.173314 112.243474 
L 350.833382 107.66475 
L 362.879874 112.703064 
L 375.446511 110.455729 
L 380.274688 112.02927 
L 384.4833 117.082497 
L 390.597606 118.779861 
L 394.320418 122.491601 
L 405.584658 121.321387 
L 410.224842 126.670613 
L 403.568248 132.492987 
L 396.305194 133.310035 
L 395.887632 142.079295 
L 391.023754 146.032128 
L 373.675486 143.154383 
L 367.365505 158.811162 
L 362.889364 160.757978 
L 345.565951 164.251673 
L 353.437271 179.442988 
L 347.437751 181.719245 
L 348.135947 186.70446 
L 342.746049 185.421721 
L 338.360741 182.278706 
L 310.885684 181.124987 
L 307.707872 182.088001 
L 295.254211 178.411283 
L 290.290914 180.222076 
L 288.930673 185.38489 
L 274.544205 182.372251 
L 268.786907 183.606183 
L 266.828341 187.437679 
L 261.81443 189.054151 
L 250.280401 195.149928 
L 246.454102 201.407488 
L 243.195851 201.463073 
L 240.799386 197.320891 
L 229.677497 197.037093 
L 227.89879 189.873233 
L 223.637756 189.812 
L 224.29031 181.040706 
L 213.820975 174.653223 
L 198.823076 175.335377 
L 188.569753 176.608625 
L 180.218506 168.726459 
L 157.8735 158.398796 
L 135.362192 163.566582 
L 135.705641 195.811069 
L 131.22001 196.237669 
L 125.099378 189.380654 
L 119.188431 186.930865 
L 109.261836 188.75047 
L 105.398029 191.660075 
L 104.907257 189.52775 
L 107.056528 185.883344 
L 105.38899 182.836585 
L 95.253614 179.857387 
L 91.308464 172.003916 
L 86.479835 169.791604 
L 86.186999 166.942329 
L 94.694605 167.772935 
L 95.030372 161.379125 
L 102.467862 159.959006 
L 110.10645 161.265018 
L 111.680443 152.733461 
L 110.122719 147.325939 
L 101.371535 147.748924 
L 93.93766 145.614566 
L 83.812226 149.459845 
L 75.653869 151.293309 
L 71.212227 149.879164 
L 72.099694 145.379122 
L 66.524939 139.536262 
L 60.036107 139.780421 
z
" clip-path="url(#p7d07e3c334)" style="fill: #e8edf4; stroke: #b8c5d4; stroke-width: 0.45"/>
    <path d="M 135.362192 163.566582 
L 157.8735 158.398796 
L 180.218506 168.726459 
L 188.569753 176.608625 
L 198.823076 175.335377 
L 213.820975 174.653223 
L 224.29031 181.040706 
L 223.637756 189.812 
L 227.89879 189.873233 
L 229.677497 197.037093 
L 240.799386 197.320891 
L 243.195851 201.463073 
L 246.454102 201.407488 
L 250.280401 195.149928 
L 261.81443 189.054151 
L 266.828341 187.437679 
L 269.425 188.298562 
L 262.086026 193.962768 
L 268.538358 197.254461 
L 274.766996 195.074234 
L 285.132393 199.681655 
L 273.934131 205.97966 
L 267.282056 205.118099 
L 263.67222 205.344052 
L 262.419534 202.913243 
L 264.242527 198.858054 
L 252.549427 200.89028 
L 249.769745 206.501613 
L 245.614006 211.334987 
L 238.312089 210.923751 
L 236.045322 214.774453 
L 242.462405 216.860909 
L 244.351377 223.371763 
L 239.436434 232.221915 
L 232.840847 230.375422 
L 227.968383 230.317352 
L 228.20925 224.966318 
L 216.577157 221.223396 
L 207.43191 216.940897 
L 191.726325 206.783829 
L 187.427783 197.768053 
L 184.493549 196.180729 
L 175.038293 196.583378 
L 171.692372 194.792244 
L 170.757376 187.814344 
L 158.974346 183.192914 
L 151.606902 188.273708 
L 144.135971 191.286573 
L 145.57168 195.691539 
L 135.705641 195.811069 
z
" clip-path="url(#p7d07e3c334)" style="fill: #e8edf4; stroke: #b8c5d4; stroke-width: 0.45"/>
    <path d="M -115.099274 54.441372 
L -111.352059 51.665983 
L -113.945247 43.509833 
L -107.722792 38.470517 
L -109.039598 36.944133 
L -99.100275 32.11098 
L -108.262348 27.953023 
L -81.415463 11.738395 
L -78.126482 7.278522 
L -91.070913 1.287136 
L -87.495875 -4.411415 
L -95.368551 -10.919557 
L -89.481279 -18.416667 
L -99.65218 -28.371086 
L -91.58202 -34.964865 
L -104.974744 -40.791757 
L -103.698106 -46.914648 
L -96.635514 -47.720434 
L -81.755738 -51.228816 
L -72.734109 -54.270656 
L -58.36836 -48.984078 
L -34.420431 -46.902782 
L -1.378727 -37.012081 
L 5.333276 -32.855874 
L 5.911142 -27.035679 
L -3.79679 -22.441088 
L -18.076227 -20.10925 
L -57.115734 -26.756104 
L -63.536881 -25.644797 
L -49.279744 -19.240178 
L -48.150423 -6.247122 
L -30.058717 -1.310254 
L -28.928521 -5.5505 
L -34.196394 -9.308638 
L -28.630581 -12.620871 
L -7.490478 -7.177759 
L -0.125927 -9.308638 
L -6.011271 -15.713082 
L 14.368722 -24.277963 
L 22.439864 -23.773817 
L 30.605101 -20.717461 
L 35.699116 -26.727508 
L 28.406973 -31.940453 
L 32.688146 -37.170452 
L 26.259479 -42.594763 
L 50.720648 -39.789474 
L 55.716981 -34.892045 
L 44.644402 -33.812483 
L 44.704304 -28.946186 
L 51.587709 -25.952094 
L 65.098727 -27.848696 
L 67.237739 -33.426481 
L 116.02287 -45.100975 
L 122.619002 -44.670462 
L 113.997454 -39.363683 
L 124.845202 -38.451673 
L 131.110076 -41.439294 
L 147.501066 -41.680829 
L 160.487126 -45.305956 
L 170.451284 -40.03818 
L 180.389208 -45.829516 
L 171.225911 -50.895547 
L 175.773279 -53.781377 
L 201.60583 -51.13507 
L 213.709832 -48.401796 
L 245.401885 -38.410659 
L 251.248052 -42.986886 
L 242.361095 -47.610598 
L 242.105568 -49.465662 
L 231.566691 -50.323715 
L 234.449723 -54.469866 
L 229.77258 -61.292317 
L 229.507958 -64.091398 
L 245.645869 -72.010202 
L 251.385172 -79.958128 
L 257.888259 -81.677733 
L 281.040836 -79.371605 
L 282.864068 -74.507407 
L 274.574565 -67.414562 
L 280.013917 -64.626763 
L 282.827777 -58.513613 
L 280.841101 -46.53051 
L 290.488256 -41.1703 
L 286.73519 -35.333053 
L 269.606478 -22.911741 
L 279.602031 -21.623349 
L 283.080418 -24.771527 
L 292.701775 -27.01714 
L 295.023731 -31.344398 
L 302.592389 -35.508564 
L 297.496363 -40.480236 
L 301.576577 -46.253558 
L 292.01416 -46.973091 
L 289.91109 -51.836764 
L 296.888939 -60.617733 
L 285.531887 -67.748531 
L 301.182879 -73.642795 
L 299.157901 -79.861147 
L 303.51944 -80.059657 
L 308.114905 -75.211375 
L 304.664764 -66.772509 
L 314.022986 -65.174896 
L 310.035469 -71.481221 
L 324.6703 -74.919381 
L 342.819284 -75.382338 
L 358.979757 -70.396761 
L 351.20297 -77.679984 
L 350.331799 -86.996405 
L 365.538462 -88.761134 
L 386.572314 -88.375569 
L 405.522947 -89.520894 
L 398.415585 -94.092661 
L 408.535754 -99.835987 
L 418.582727 -100.076473 
L 435.585425 -104.414575 
L 458.677137 -105.580538 
L 461.594711 -107.975514 
L 484.557085 -108.787045 
L 491.712282 -106.823631 
L 511.338811 -111.470779 
L 527.404402 -111.325526 
L 529.814944 -115.099929 
L 538.170909 -118.822212 
L 558.815611 -122.41096 
L 573.813532 -119.577338 
L 561.906073 -117.421798 
L 581.714497 -116.081985 
L 584.074494 -111.760324 
L 592.065619 -113.888405 
L 617.6311 -113.77166 
L 637.344379 -109.506228 
L 644.363592 -106.230374 
L 642.188026 -101.684317 
L 609.533198 -94.241849 
L 602.963563 -91.646964 
L 626.742714 -88.216674 
L 634.61622 -89.871129 
L 639.076489 -84.257927 
L 642.917529 -86.530125 
L 656.900774 -87.911563 
L 684.958999 -86.467511 
L 687.089879 -82.377328 
L 723.649496 -81.076256 
L 724.14892 -87.755728 
L 742.707692 -86.225101 
L 756.668463 -86.273111 
L 770.789966 -81.666452 
L 774.815349 -76.069778 
L 769.642105 -72.408097 
L 780.625662 -65.52618 
L 794.377866 -61.975297 
L 802.816032 -71.151449 
L 816.844314 -67.217276 
L 831.748052 -69.568178 
L 848.674931 -66.87806 
L 855.115929 -69.330141 
L 869.420376 -68.1041 
L 863.107229 -76.222552 
L 874.652823 -80.011035 
L 953.635628 -74.331984 
L 961.079145 -69.14125 
L 983.970947 -62.45828 
L 1019.282837 -64.112735 
L 1036.693224 -62.672531 
L 1043.973561 -59.056674 
L 1042.909739 -52.661849 
L 1053.682368 -50.172165 
L 1065.387819 -51.962779 
L 1080.896181 -52.191809 
L 1097.405665 -50.475702 
L 1113.979948 -51.443767 
L 1129.213283 -43.670478 
L 1140.050449 -46.467372 
L 1132.978591 -52.056525 
L 1136.872275 -55.941639 
L 1164.772654 -53.496554 
L 1182.963177 -54.019676 
L 1208.11336 -49.846154 
L 1220.356275 -46.03018 
L 1220.356275 -11.190975 
L 1209.050818 -7.301412 
L 1197.718076 -7.942241 
L 1205.603563 -3.287485 
L 1210.808988 3.917995 
L 1214.849937 6.273445 
L 1215.864525 9.891051 
L 1213.607368 12.207061 
L 1197.307239 10.302413 
L 1172.865046 16.885166 
L 1165.089396 17.904301 
L 1139.015223 29.416402 
L 1135.800146 33.390189 
L 1123.291472 27.340615 
L 1100.506708 34.205393 
L 1096.527935 30.957085 
L 1088.104285 34.703417 
L 1076.408366 33.504398 
L 1073.590921 39.255945 
L 1063.098918 47.718685 
L 1063.410588 51.25304 
L 1073.370549 53.212693 
L 1072.198989 65.943488 
L 1064.080538 66.267488 
L 1060.336654 73.582717 
L 1063.974811 77.347764 
L 1048.682361 81.814766 
L 1045.647517 91.799388 
L 1032.610649 93.932191 
L 1029.989266 102.816962 
L 1017.384398 110.964097 
L 1014.150607 104.939271 
L 1005.525124 72.748887 
L 1009.729341 60.620619 
L 1017.107709 55.401814 
L 1017.564194 51.314954 
L 1031.153655 49.358623 
L 1046.774828 38.34857 
L 1061.828366 29.356761 
L 1077.548706 22.379174 
L 1084.578413 10.051346 
L 1073.952175 10.788894 
L 1068.700751 17.992713 
L 1046.519825 27.597017 
L 1039.356321 16.843103 
L 1016.780036 19.81236 
L 994.894776 34.470977 
L 1002.115385 39.833636 
L 969.076829 43.017318 
L 969.710138 36.694115 
L 956.116654 35.366896 
L 945.282549 39.662847 
L 918.54411 38.159679 
L 889.778507 40.751592 
L 827.937532 78.445691 
L 841.715359 79.547903 
L 846.015333 85.024246 
L 854.509117 86.968334 
L 860.105266 82.599887 
L 869.697415 83.167171 
L 882.323359 92.787566 
L 882.619987 100.22776 
L 875.783106 108.964829 
L 875.045558 119.407511 
L 871.100279 133.389095 
L 857.919819 146.043547 
L 854.990177 152.092421 
L 825.691832 177.537921 
L 814.039025 182.668926 
L 808.524466 182.782436 
L 803.030896 178.531783 
L 791.293438 184.931504 
L 789.930364 187.841296 
L 788.706073 186.310931 
L 788.652435 181.868374 
L 793.119538 181.632478 
L 794.377648 171.300071 
L 792.074536 163.810552 
L 799.580004 160.721826 
L 810.193438 162.270306 
L 816.07462 153.762906 
L 819.071563 144.182361 
L 822.468622 140.981976 
L 827.0641 133.113455 
L 812.611202 135.69136 
L 805.030164 139.141079 
L 791.74284 139.130847 
L 788.201432 130.914475 
L 777.843265 124.697586 
L 762.623417 121.902092 
L 759.388276 113.336186 
L 747.660379 95.382814 
L 739.981119 92.162523 
L 726.892207 89.558672 
L 715.298848 89.795433 
L 704.431834 91.372363 
L 697.208549 95.7231 
L 702.0069 97.801422 
L 702.115433 102.629645 
L 697.252198 105.432923 
L 689.358228 114.708068 
L 689.437551 118.556167 
L 677.11404 124.082089 
L 666.616235 120.780454 
L 656.1826 121.509381 
L 651.603875 118.579214 
L 646.359943 117.634276 
L 633.551084 123.797161 
L 622.038295 125.245298 
L 613.999768 127.412645 
L 602.984981 125.988685 
L 594.875957 126.079745 
L 589.567854 121.609704 
L 581.003308 117.406966 
L 572.239018 116.255055 
L 552.9123 119.01892 
L 540.488755 115.340852 
L 538.82127 108.787832 
L 520.601383 105.516383 
L 510.804937 101.901576 
L 501.74736 110.964577 
L 505.297995 116.1118 
L 496.797901 122.201344 
L 484.154993 120.002779 
L 475.426925 119.688194 
L 469.581957 115.603405 
L 460.457869 115.474387 
L 452.854158 112.790734 
L 439.552719 116.903994 
L 422.866496 124.435932 
L 410.224842 126.670613 
L 405.584658 121.321387 
L 394.320418 122.491601 
L 390.597606 118.779861 
L 384.4833 117.082497 
L 380.274688 112.02927 
L 375.446511 110.455729 
L 362.879874 112.703064 
L 350.833382 107.66475 
L 346.173314 112.243474 
L 326.631488 90.034266 
L 315.475254 83.278026 
L 318.675209 80.536305 
L 296.75794 88.78868 
L 288.370308 89.287489 
L 289.094715 84.514444 
L 277.863012 81.532082 
L 268.73313 83.66034 
L 265.979659 74.596662 
L 250.264132 72.711983 
L 242.401849 76.339894 
L 220.519997 79.568016 
L 216.249524 81.72821 
L 183.526543 84.771255 
L 179.516694 87.755523 
L 185.829839 93.74578 
L 177.434758 96.019551 
L 179.07247 98.402007 
L 170.679648 102.66191 
L 184.850556 108.676344 
L 182.659257 112.817848 
L 170.375966 112.440732 
L 167.835344 115.035809 
L 156.650896 110.504201 
L 142.787194 110.679887 
L 133.508463 114.368852 
L 103.878716 104.776158 
L 90.218464 105.002564 
L 72.166576 114.513856 
L 71.07748 120.900887 
L 62.084525 115.829358 
L 55.107077 125.437358 
L 57.661257 127.221036 
L 52.613453 133.848708 
L 60.036107 139.780421 
L 66.524939 139.536262 
L 72.099694 145.379122 
L 71.212227 149.879164 
L 75.653869 151.293309 
L 71.668363 156.479407 
L 63.190144 157.920573 
L 54.498549 166.947887 
L 62.447087 175.247184 
L 61.58641 181.1376 
L 71.134572 191.436515 
L 65.913083 194.961257 
L 64.412299 197.185997 
L 60.543973 196.588575 
L 54.534059 191.276857 
L 46.579045 188.9568 
L 43.902036 185.368396 
L 35.746014 183.538849 
L 30.44297 184.912091 
L 28.910682 183.286669 
L 17.00366 179.093733 
L -3.262169 176.183381 
L -4.32867 177.216215 
L -15.478543 169.826721 
L -25.455469 166.528042 
L -33.008123 161.390565 
L -26.644343 159.992949 
L -19.387968 152.679032 
L -24.2784 149.218659 
L -11.388797 145.64915 
L -11.620275 143.737419 
L -19.470275 145.146842 
L -19.194159 141.262247 
L -14.686513 138.820489 
L -6.223969 138.179336 
L -4.848019 135.263135 
L -6.780389 130.441088 
L -3.228728 125.862151 
L -3.331472 123.294462 
L -16.221965 120.448754 
L -21.332133 120.543203 
L -26.729261 116.448019 
L -33.43918 117.832889 
L -44.545705 114.758112 
L -44.355119 113.03761 
L -47.46593 109.245521 
L -54.438859 108.822084 
L -55.163266 106.107477 
L -52.979198 104.336905 
L -58.567483 99.385583 
L -67.635454 100.230423 
L -70.291313 99.791169 
L -72.500444 101.780162 
L -75.766416 101.426604 
L -77.917248 95.826587 
L -79.970715 92.923761 
L -78.287845 92.106685 
L -71.231732 92.410168 
L -67.828871 90.497697 
L -70.347802 88.166081 
L -76.24474 86.627111 
L -75.71872 85.047695 
L -79.277489 83.452462 
L -84.760028 77.727023 
L -82.885969 75.367841 
L -83.742333 71.262716 
L -92.291515 69.177164 
L -96.880181 70.22107 
L -98.122474 68.050107 
L -107.329181 65.857001 
L -110.140044 60.695768 
L -110.885691 56.455071 
z
" clip-path="url(#p7d07e3c334)" style="fill: #e8edf4; stroke: #b8c5d4; stroke-width: 0.45"/>
    <path d="M 96.244647 -72.71313 
L 105.186536 -74.589449 
L 104.888277 -79.357975 
L 122.233382 -86.8158 
L 114.193952 -87.885013 
L 135.130815 -95.560206 
L 132.76508 -99.529759 
L 152.324983 -104.146896 
L 181.19553 -109.765459 
L 210.301521 -111.402267 
L 225.278179 -114.644249 
L 242.296555 -115.780344 
L 248.375612 -112.327095 
L 242.502173 -109.605935 
L 184.81124 -101.099233 
L 157.645739 -92.775553 
L 130.905934 -75.829709 
L 132.685545 -68.565525 
L 149.413344 -61.393531 
L 144.247592 -60.626419 
L 115.672592 -61.762513 
L 113.352048 -65.645301 
L 97.522641 -67.989795 
z
" clip-path="url(#p7d07e3c334)" style="fill: #e8edf4; stroke: #b8c5d4; stroke-width: 0.45"/>
    <path d="M -1927.821862 -11.190975 
L -1927.821862 -46.03018 
L -1906.396761 -39.352227 
L -1883.469717 -30.658795 
L -1884.221781 -25.223466 
L -1878.324019 -23.047812 
L -1880.352758 -29.402147 
L -1856.614533 -28.098189 
L -1839.494303 -19.914326 
L -1848.164823 -16.102844 
L -1862.499352 -15.197917 
L -1862.715789 -6.653062 
L -1866.216651 -4.83324 
L -1874.406374 -5.094802 
L -1881.070717 -8.143725 
L -1892.698076 -10.694011 
L -1894.653707 -14.487479 
L -1903.534193 -15.917888 
L -1913.47955 -14.783495 
L -1918.231462 -17.843524 
L -1916.331974 -21.093755 
L -1926.805438 -19.016395 
L -1922.860683 -14.902338 
z
" clip-path="url(#p7d07e3c334)" style="fill: #e8edf4; stroke: #b8c5d4; stroke-width: 0.45"/>
    <path d="M 884.498802 102.880408 
L 885.272467 90.930172 
L 893.356184 86.905938 
L 889.882825 82.854137 
L 893.77465 81.626305 
L 899.074619 95.837885 
L 898.850925 104.443781 
L 902.460308 113.267948 
L 911.258942 128.757069 
L 898.314511 125.869834 
L 892.934103 138.506065 
L 901.458881 147.468289 
L 901.21214 153.579431 
L 894.58718 148.307481 
L 888.85338 155.076148 
L 887.234649 147.737626 
L 888.209864 139.21827 
L 887.212957 129.781995 
L 889.236146 123.171044 
L 889.622526 111.477491 
z
" clip-path="url(#p7d07e3c334)" style="fill: #e8edf4; stroke: #b8c5d4; stroke-width: 0.45"/>
    <path d="M -69.923009 160.666693 
L -68.37839 158.990117 
L -60.006356 156.083449 
L -61.337108 155.031006 
L -59.033046 152.865274 
L -50.003411 155.085676 
L -48.868538 156.812656 
L -47.549217 157.079002 
L -47.478131 157.835494 
L -43.199925 159.944997 
L -34.280179 159.420333 
L -35.987937 162.5403 
L -45.56114 164.055094 
L -57.432292 169.114195 
L -62.295266 167.335488 
L -60.366978 163.226296 
z
" clip-path="url(#p7d07e3c334)" style="fill: #e8edf4; stroke: #b8c5d4; stroke-width: 0.45"/>
    <path d="M 38.451131 -147.700362 
L 55.522832 -149.292883 
L 68.809357 -149.398629 
L 70.596198 -147.042385 
L 75.619148 -149.136071 
L 83.861936 -150.578107 
L 96.832126 -148.661568 
L 93.450052 -147.328442 
L 73.845864 -145.512001 
L 72.626166 -144.076969 
L 62.404927 -142.631544 
L 52.931595 -144.704668 
L 57.912969 -147.43464 
z
" clip-path="url(#p7d07e3c334)" style="fill: #e8edf4; stroke: #b8c5d4; stroke-width: 0.45"/>
    <path d="M 443.640126 -145.528557 
L 466.347148 -151.502575 
L 485.264507 -153.477182 
L 502.25553 -149.074761 
L 522.39342 -140.619804 
L 520.234338 -132.756398 
L 501.154455 -131.665555 
L 476.796738 -134.188863 
L 462.282675 -137.527287 
L 455.571109 -143.799945 
z
" clip-path="url(#p7d07e3c334)" style="fill: #e8edf4; stroke: #b8c5d4; stroke-width: 0.45"/>
    <path d="M 844.099929 -101.106102 
L 848.799197 -107.118248 
L 860.336526 -108.758711 
L 883.427888 -108.37507 
L 915.037958 -103.737935 
L 908.161943 -97.243725 
L 875.926436 -97.485785 
L 861.424091 -95.42023 
z
" clip-path="url(#p7d07e3c334)" style="fill: #e8edf4; stroke: #b8c5d4; stroke-width: 0.45"/>
    <path d="M -181.80169 81.099833 
L -179.809231 77.251391 
L -167.741499 74.415221 
L -158.583147 75.947187 
L -154.717532 77.33522 
L -155.65072 79.729876 
L -154.950716 81.96162 
L -171.031384 82.092899 
z
" clip-path="url(#p7d07e3c334)" style="fill: #e8edf4; stroke: #b8c5d4; stroke-width: 0.45"/>
    <path d="M 869.361697 -84.562076 
L 877.657059 -88.018338 
L 888.591381 -88.82742 
L 901.015841 -85.483968 
L 902.074154 -83.18571 
L 888.814902 -83.124496 
z
" clip-path="url(#p7d07e3c334)" style="fill: #e8edf4; stroke: #b8c5d4; stroke-width: 0.45"/>
    <path d="M 515.847702 -124.361781 
L 531.822607 -135.843799 
L 539.006138 -136.826905 
L 545.577653 -136.257435 
L 567.742708 -131.290747 
L 565.145811 -127.736366 
z
" clip-path="url(#p7d07e3c334)" style="fill: #e8edf4; stroke: #b8c5d4; stroke-width: 0.45"/>
    <path d="M -1927.821862 -62.370649 
L -1927.821862 -68.347947 
L -1919.289687 -68.696133 
L -1906.641138 -66.194643 
L -1907.389968 -64.999122 
L -1916.399048 -62.902523 
z
" clip-path="url(#p7d07e3c334)" style="fill: #e8edf4; stroke: #b8c5d4; stroke-width: 0.45"/>
    <path d="M 924.070649 -100.330513 
L 926.16327 -103.162474 
L 964.406507 -99.552913 
L 954.299587 -96.097438 
L 940.321151 -96.879542 
z
" clip-path="url(#p7d07e3c334)" style="fill: #e8edf4; stroke: #b8c5d4; stroke-width: 0.45"/>
    <path d="M 1209.209101 -64.702057 
L 1220.356275 -68.347947 
L 1220.356275 -62.370649 
L 1210.766794 -61.924139 
z
" clip-path="url(#p7d07e3c334)" style="fill: #e8edf4; stroke: #b8c5d4; stroke-width: 0.45"/>
    <path d="M 97.326965 345.027232 
L 98.882882 344.602439 
L 99.205995 347.000711 
L 106.050583 345.622393 
L 118.563895 346.109323 
L 136.603129 329.19918 
L 138.266599 332.17996 
L 139.454212 339.087362 
L 134.988916 339.121481 
L 134.270835 344.816417 
L 135.819522 346.032499 
L 131.861718 347.754718 
L 131.837315 351.329078 
L 129.289462 354.948404 
L 129.060797 358.469665 
L 127.298358 360.318192 
L 101.010461 355.908932 
z
" clip-path="url(#p7d07e3c334)" style="fill: #e8edf4; stroke: #b8c5d4; stroke-width: 0.45"/>
    <path d="M 90.019624 334.210379 
L 92.375869 329.623069 
L 94.764199 328.682198 
L 97.410568 331.423467 
L 97.564668 336.543125 
L 95.666206 341.687637 
L 93.242175 342.309009 
L 90.598518 340.573911 
z
" clip-path="url(#p7d07e3c334)" style="fill: #e8edf4; stroke: #b8c5d4; stroke-width: 0.45"/>
    <path d="M 53.507777 302.583424 
L 59.925764 294.18789 
L 65.801462 294.915913 
L 67.626264 298.775427 
L 66.84582 300.770824 
L 69.66301 307.367088 
L 63.478207 307.593945 
L 61.300466 303.42736 
z
" clip-path="url(#p7d07e3c334)" style="fill: #e8edf4; stroke: #b8c5d4; stroke-width: 0.45"/>
    <path d="M -14.496131 265.158046 
L 4.863576 256.057311 
L 8.16747 245.485167 
L 7.343191 239.097006 
L 12.129793 236.936663 
L 16.611809 231.479657 
L 20.368062 230.120772 
L 30.539591 231.249184 
L 33.610752 233.476635 
L 37.801549 231.999418 
L 43.467754 242.431178 
L 49.202005 245.056081 
L 49.861789 250.164215 
L 45.460213 253.182277 
L 43.433409 260.006303 
L 49.490774 268.318459 
L 60.205947 273.11184 
L 64.705587 279.757814 
L 63.272137 286.091972 
L 66.065376 286.089486 
L 66.151691 290.747746 
L 70.991165 295.344773 
L 59.925764 294.18789 
L 53.507777 302.583424 
L 37.249058 301.885001 
L 12.592546 284.2979 
L -0.437296 278.17659 
L -10.970803 275.806563 
z
" clip-path="url(#p7d07e3c334)" style="fill: #e8edf4; stroke: #b8c5d4; stroke-width: 0.45"/>
    <path d="M 101.004134 390.898756 
L 127.238707 382.153899 
L 133.068762 364.663958 
L 129.060797 358.469665 
L 129.289462 354.948404 
L 131.837315 351.329078 
L 131.861718 347.754718 
L 135.819522 346.032499 
L 134.270835 344.816417 
L 134.988916 339.121481 
L 139.454212 339.087362 
L 143.374507 345.060673 
L 148.256913 348.235773 
L 159.850594 350.972297 
L 166.1547 358.889939 
L 169.285062 359.997563 
L 169.268341 361.948447 
L 164.688261 369.614602 
L 161.004313 372.411682 
L 157.741091 378.40239 
L 153.773797 377.943705 
L 151.955322 380.028805 
L 150.550795 384.462467 
L 151.625882 390.307887 
L 150.801151 391.382297 
L 146.777369 391.353601 
L 141.315166 394.621794 
L 140.462869 398.881924 
L 138.463179 400.727513 
L 133.023571 400.657015 
L 129.59947 402.85916 
L 129.642853 406.391719 
L 125.411194 408.819816 
L 120.58618 407.995312 
L 114.738048 410.945136 
L 110.698449 411.440201 
z
" clip-path="url(#p7d07e3c334)" style="fill: #e8edf4; stroke: #b8c5d4; stroke-width: 0.45"/>
    <path d="M 136.603129 329.19918 
L 139.149626 326.221789 
L 140.23104 326.980993 
L 139.406762 330.593765 
L 138.266599 332.17996 
z
" clip-path="url(#p7d07e3c334)" style="fill: #e8edf4; stroke: #b8c5d4; stroke-width: 0.45"/>
    <path d="M 497.813507 395.748399 
L 501.502878 394.159945 
L 505.490056 384.705593 
L 511.663561 384.314015 
L 516.767402 380.522061 
L 521.775438 378.499776 
L 525.561065 381.198567 
L 526.063134 386.453344 
L 531.972273 386.853508 
L 529.820291 396.067671 
L 530.026813 403.906907 
L 539.244365 398.689637 
L 541.862716 400.231545 
L 546.984633 399.978703 
L 548.746619 396.936011 
L 555.360282 397.536596 
L 562.010549 404.638318 
L 562.556001 413.269521 
L 569.636936 420.891163 
L 569.246036 428.292726 
L 566.399021 432.234261 
L 558.201875 430.979089 
L 546.894703 432.649564 
L 541.29512 439.920752 
L 543.366211 450.481599 
L 535.515226 446.466403 
L 528.035257 446.629541 
L 529.31777 439.759195 
L 521.616367 439.810487 
L 520.924949 449.428655 
L 513.360925 469.926264 
L 513.961058 476.255904 
L 519.657801 476.530437 
L 523.206628 484.512023 
L 524.777458 492.08147 
L 529.657604 497.089732 
L 534.954861 498.106297 
L 539.485684 502.644802 
L 536.626918 506.237465 
L 530.854707 507.281823 
L 530.166452 502.791446 
L 523.031288 498.961532 
L 521.511072 500.521064 
L 518.056241 497.165427 
L 516.560428 492.834573 
L 507.676835 483.749882 
L 506.241578 488.890101 
L 504.583078 484.032324 
L 508.112022 470.1895 
L 512.349556 461.203325 
L 517.151975 453.051143 
L 513.733296 445.075884 
L 513.870224 441.013464 
L 512.871057 436.131962 
L 507.038742 429.183887 
L 504.950931 424.796772 
L 507.970575 423.180751 
L 511.170982 415.578541 
L 507.589165 409.806782 
L 502.039292 403.42201 
z
" clip-path="url(#p7d07e3c334)" style="fill: #e8edf4; stroke: #b8c5d4; stroke-width: 0.45"/>
    <path d="M 521.775438 378.499776 
L 523.639104 375.279259 
L 531.080209 369.591103 
L 531.867431 371.645473 
L 536.529306 371.88408 
L 535.207929 361.881339 
L 539.741463 360.59973 
L 544.852534 367.504873 
L 548.778705 375.450306 
L 559.544943 375.51877 
L 562.934248 383.145157 
L 557.344607 385.436101 
L 554.836069 388.579794 
L 565.313087 393.811072 
L 578.093025 411.849177 
L 584.710303 417.93343 
L 586.912447 424.11055 
L 585.322637 432.853148 
L 577.571524 429.633761 
L 573.615076 435.663334 
L 566.399021 432.234261 
L 569.246036 428.292726 
L 569.636936 420.891163 
L 562.556001 413.269521 
L 562.010549 404.638318 
L 555.360282 397.536596 
L 548.746619 396.936011 
L 546.984633 399.978703 
L 541.862716 400.231545 
L 539.244365 398.689637 
L 530.026813 403.906907 
L 529.820291 396.067671 
L 531.972273 386.853508 
L 526.063134 386.453344 
L 525.561065 381.198567 
z
" clip-path="url(#p7d07e3c334)" style="fill: #e8edf4; stroke: #b8c5d4; stroke-width: 0.45"/>
    <path d="M 453.453387 369.250816 
L 456.505568 370.575131 
L 456.684524 364.303336 
L 460.999334 362.228855 
L 460.073828 358.515308 
L 462.05047 355.537239 
L 462.390305 346.487118 
L 469.22495 348.479351 
L 473.124458 341.269171 
L 473.566875 337.008137 
L 478.393245 329.672778 
L 478.127523 324.668357 
L 489.448704 318.625454 
L 495.698129 320.206677 
L 494.980953 314.826043 
L 498.046691 313.221546 
L 497.386907 309.906807 
L 502.501593 309.256512 
L 505.424529 314.404866 
L 509.241338 316.48974 
L 509.146438 330.395152 
L 500.862978 337.697748 
L 499.814553 348.071279 
L 509.04521 346.620657 
L 511.130762 354.670932 
L 516.668434 356.364681 
L 514.12284 363.629316 
L 524.403731 368.52189 
L 530.818102 365.975845 
L 531.080209 369.591103 
L 523.639104 375.279259 
L 521.775438 378.499776 
L 516.767402 380.522061 
L 511.663561 384.314015 
L 505.490056 384.705593 
L 501.502878 394.159945 
L 497.813507 395.748399 
L 502.039292 403.42201 
L 507.589165 409.806782 
L 511.170982 415.578541 
L 507.970575 423.180751 
L 504.950931 424.796772 
L 507.038742 429.183887 
L 512.871057 436.131962 
L 513.870224 441.013464 
L 513.733296 445.075884 
L 517.151975 453.051143 
L 512.349556 461.203325 
L 508.112022 470.1895 
L 507.269215 463.698079 
L 509.957159 456.999231 
L 507.017051 451.824893 
L 507.727449 442.298236 
L 504.177265 437.76764 
L 501.327538 427.301468 
L 499.74767 416.254143 
L 495.965207 409.011877 
L 480.2664 419.631246 
L 475.360947 418.852384 
L 469.942579 416.801854 
L 472.9568 405.964214 
L 471.131999 397.776559 
L 464.277469 387.69383 
L 465.346682 384.541551 
L 460.231092 383.420595 
L 454.024597 376.287013 
z
" clip-path="url(#p7d07e3c334)" style="fill: #e8edf4; stroke: #b8c5d4; stroke-width: 0.45"/>
    <path d="M 413.646684 125.951629 
L 422.866496 124.435932 
L 439.552719 116.903994 
L 452.854158 112.790734 
L 460.457869 115.474387 
L 469.581957 115.603405 
L 475.426925 119.688194 
L 484.154993 120.002779 
L 496.797901 122.201344 
L 505.297995 116.1118 
L 501.74736 110.964577 
L 510.804937 101.901576 
L 520.601383 105.516383 
L 538.82127 108.787832 
L 540.488755 115.340852 
L 552.9123 119.01892 
L 572.239018 116.255055 
L 581.003308 117.406966 
L 589.567854 121.609704 
L 594.875957 126.079745 
L 602.984981 125.988685 
L 613.999768 127.412645 
L 622.038295 125.245298 
L 633.551084 123.797161 
L 646.359943 117.634276 
L 651.603875 118.579214 
L 656.1826 121.509381 
L 666.616235 120.780454 
L 656.178984 136.111634 
L 658.43129 139.686898 
L 663.381934 138.577466 
L 672.009296 139.939063 
L 678.730964 136.711993 
L 685.74818 139.507491 
L 693.673278 145.620215 
L 692.715235 148.727981 
L 685.815967 147.742145 
L 673.112853 148.902417 
L 666.957876 151.390619 
L 660.549831 157.170738 
L 647.215856 160.558687 
L 638.50218 165.201582 
L 624.592474 162.637686 
L 620.002 168.275004 
L 622.794787 171.635386 
L 624.210161 174.521718 
L 618.089529 177.462504 
L 611.814345 182.146297 
L 601.595818 185.222656 
L 588.488699 185.554356 
L 574.361627 188.590495 
L 564.179704 193.285811 
L 560.308214 190.566685 
L 549.726806 190.574367 
L 536.790961 185.262649 
L 528.158176 183.960253 
L 516.526987 185.176787 
L 498.476907 183.216187 
L 488.836821 183.419546 
L 483.704059 178.226679 
L 479.720044 170.16488 
L 474.316137 169.194183 
L 463.750546 163.744859 
L 441.580427 161.028671 
L 438.434249 157.236491 
L 441.80141 147.018642 
L 435.767544 139.975441 
L 423.292644 136.691431 
L 415.942824 132.053281 
z
" clip-path="url(#p7d07e3c334)" style="fill: #e8edf4; stroke: #b8c5d4; stroke-width: 0.45"/>
    <path d="M 242.467828 349.867836 
L 248.291557 344.033487 
L 267.536028 344.056309 
L 265.7998 336.548096 
L 260.886664 332.113304 
L 259.890209 325.382823 
L 254.166351 321.455523 
L 263.804177 312.28881 
L 273.958534 312.953565 
L 283.106492 303.785271 
L 288.588579 294.910716 
L 297.077657 286.136033 
L 296.942537 279.902424 
L 304.399459 274.843774 
L 297.341571 270.525574 
L 291.206026 256.946439 
L 295.49327 253.175725 
L 308.758104 255.309179 
L 318.505744 254.009494 
L 326.950987 246.659674 
L 336.350206 256.909383 
L 335.465371 264.042965 
L 338.944154 268.518654 
L 338.657644 272.98395 
L 332.381556 271.808765 
L 334.834057 281.447947 
L 343.425718 286.985167 
L 355.580216 293.099924 
L 350.031246 297.066766 
L 346.635615 305.246739 
L 374.757804 317.751691 
L 386.745096 318.885074 
L 391.788833 323.333649 
L 409.066152 326.204616 
L 416.348637 326.058424 
L 417.350515 322.597266 
L 416.199056 317.040615 
L 416.875109 313.273968 
L 422.208519 311.434705 
L 423.129506 320.073816 
L 431.07765 323.393075 
L 436.576006 322.026056 
L 451.094431 322.353237 
L 451.708573 316.981189 
L 448.148899 314.190436 
L 455.201364 313.096142 
L 463.161258 306.592067 
L 473.24105 301.023214 
L 480.576409 303.172033 
L 486.810469 299.489666 
L 490.911076 304.927467 
L 487.95741 308.599891 
L 497.386907 309.906807 
L 498.046691 313.221546 
L 494.980953 314.826043 
L 495.698129 320.206677 
L 489.448704 318.625454 
L 478.127523 324.668357 
L 478.393245 329.672778 
L 473.566875 337.008137 
L 473.124458 341.269171 
L 469.22495 348.479351 
L 462.390305 346.487118 
L 462.05047 355.537239 
L 460.073828 358.515308 
L 460.999334 362.228855 
L 456.684524 364.303336 
L 452.078685 350.43159 
L 449.664144 350.459157 
L 448.234762 356.047894 
L 443.446804 351.515716 
L 446.14695 346.538861 
L 450.059111 346.033629 
L 454.09148 338.63297 
L 449.049098 337.139868 
L 440.939171 337.269565 
L 432.618202 336.070204 
L 431.846797 329.989565 
L 427.672077 329.55822 
L 420.745695 325.779371 
L 417.656457 331.712462 
L 423.968245 336.3418 
L 418.501071 339.600277 
L 416.56013 342.787127 
L 421.942797 345.130266 
L 420.454666 350.399731 
L 423.485157 356.975885 
L 424.846301 364.176802 
L 423.594066 367.369753 
L 417.645159 367.259713 
L 406.864459 369.075251 
L 407.36698 375.653665 
L 402.698778 380.827777 
L 390.114065 386.713643 
L 380.326205 397.002667 
L 373.751859 402.518873 
L 365.038183 408.243183 
L 365.024625 412.265609 
L 352.788333 417.553602 
L 348.703543 418.015225 
L 346.081577 424.685602 
L 348.365968 443.313672 
L 344.660329 451.621761 
L 344.620561 466.47889 
L 340.095161 466.902327 
L 336.114762 473.572252 
L 338.776496 476.454517 
L 330.803044 478.93368 
L 327.857965 484.881006 
L 324.348905 487.394514 
L 316.068156 479.229001 
L 308.665463 458.162666 
L 305.601532 454.026359 
L 300.955473 445.625177 
L 297.274237 429.225915 
L 289.319313 417.215349 
L 283.081637 389.077796 
L 283.112819 378.485315 
L 281.416811 370.295626 
L 268.690651 375.530068 
L 262.527087 374.481643 
L 251.103324 363.883062 
L 255.307869 360.721971 
L 252.725219 357.290413 
z
" clip-path="url(#p7d07e3c334)" style="fill: #e8edf4; stroke: #b8c5d4; stroke-width: 0.45"/>
    <path d="M 416.56013 342.787127 
L 418.501071 339.600277 
L 423.968245 336.3418 
L 417.656457 331.712462 
L 420.745695 325.779371 
L 427.672077 329.55822 
L 431.846797 329.989565 
L 432.618202 336.070204 
L 440.939171 337.269565 
L 449.049098 337.139868 
L 454.09148 338.63297 
L 450.059111 346.033629 
L 446.14695 346.538861 
L 443.446804 351.515716 
L 448.234762 356.047894 
L 449.664144 350.459157 
L 452.078685 350.43159 
L 456.684524 364.303336 
L 456.505568 370.575131 
L 453.453387 369.250816 
L 454.024597 376.287013 
L 451.526454 371.728172 
L 451.022126 367.273722 
L 449.357751 363.064206 
L 445.704081 357.973923 
L 437.649286 357.624146 
L 438.444643 361.229011 
L 435.698854 366.094922 
L 431.97785 364.321638 
L 430.706183 365.913481 
L 424.846301 364.176802 
L 423.485157 356.975885 
L 420.454666 350.399731 
L 421.942797 345.130266 
z
" clip-path="url(#p7d07e3c334)" style="fill: #e8edf4; stroke: #b8c5d4; stroke-width: 0.45"/>
    <path d="M 422.942416 318.321772 
L 428.727733 311.820408 
L 433.450164 309.601995 
L 439.700041 311.626314 
L 444.320341 311.839162 
L 451.708573 316.981189 
L 451.094431 322.353237 
L 436.576006 322.026056 
L 431.07765 323.393075 
L 423.129506 320.073816 
z
" clip-path="url(#p7d07e3c334)" style="fill: #e8edf4; stroke: #b8c5d4; stroke-width: 0.45"/>
    <path d="M 346.635615 305.246739 
L 350.031246 297.066766 
L 359.205416 291.007819 
L 366.216305 293.696441 
L 375.045217 299.394088 
L 379.958805 300.649035 
L 382.893491 304.849513 
L 389.68882 306.573313 
L 396.786927 310.414073 
L 406.679177 312.419411 
L 416.875109 313.273968 
L 416.199056 317.040615 
L 417.350515 322.597266 
L 416.348637 326.058424 
L 409.066152 326.204616 
L 391.788833 323.333649 
L 386.745096 318.885074 
L 374.757804 317.751691 
z
" clip-path="url(#p7d07e3c334)" style="fill: #e8edf4; stroke: #b8c5d4; stroke-width: 0.45"/>
    <path d="M 178.608813 296.197748 
L 193.261906 300.663496 
L 202.010378 299.353868 
L 207.23759 300.46895 
L 209.00771 298.551959 
L 215.098065 299.320201 
L 226.46308 295.684381 
L 226.769022 288.242824 
L 231.643745 283.293084 
L 238.154373 283.308449 
L 239.110157 280.861823 
L 245.793413 279.721661 
L 249.02681 280.535998 
L 252.446844 278.076719 
L 251.963755 272.825104 
L 255.677077 267.547054 
L 261.242767 265.33429 
L 257.80556 259.548747 
L 266.124269 259.822151 
L 268.528868 256.673487 
L 268.163727 253.313556 
L 272.519209 249.640002 
L 271.51959 245.290621 
L 269.452114 241.584303 
L 274.558666 237.775403 
L 283.948395 235.9384 
L 293.983448 234.922513 
L 303.519595 232.326531 
L 309.980965 236.403639 
L 312.569038 243.123274 
L 326.950987 246.659674 
L 318.505744 254.009494 
L 308.758104 255.309179 
L 295.49327 253.175725 
L 291.206026 256.946439 
L 297.341571 270.525574 
L 304.399459 274.843774 
L 296.942537 279.902424 
L 297.077657 286.136033 
L 288.588579 294.910716 
L 283.106492 303.785271 
L 273.958534 312.953565 
L 263.804177 312.28881 
L 254.166351 321.455523 
L 259.890209 325.382823 
L 260.886664 332.113304 
L 265.7998 336.548096 
L 267.536028 344.056309 
L 248.291557 344.033487 
L 242.467828 349.867836 
L 236.057975 347.656428 
L 233.450018 341.37085 
L 226.693553 334.711318 
L 210.581703 336.356261 
L 196.373739 336.519173 
L 184.05791 337.744972 
L 187.353218 327.585645 
L 199.967306 323.06838 
L 199.243802 319.041208 
L 195.059593 317.625609 
L 194.818274 309.923753 
L 186.458442 306.0787 
L 182.938084 300.79726 
z
" clip-path="url(#p7d07e3c334)" style="fill: #e8edf4; stroke: #b8c5d4; stroke-width: 0.45"/>
    <path d="M 175.584649 262.554156 
L 181.552085 245.294914 
L 190.470475 248.612817 
L 197.064253 247.446444 
L 198.890863 243.483896 
L 205.793746 242.16523 
L 210.722247 239.505756 
L 212.467964 232.512039 
L 219.838572 230.820776 
L 221.208755 227.708039 
L 225.334216 230.046207 
L 232.840847 230.375422 
L 242.108562 233.287738 
L 248.438879 230.478683 
L 251.38441 232.168138 
L 254.204763 228.164239 
L 259.432427 228.345906 
L 260.77911 227.060908 
L 261.703712 223.534676 
L 265.468552 220.492436 
L 270.20228 222.480828 
L 269.251468 225.153633 
L 271.896933 225.568936 
L 271.081692 232.915818 
L 274.544205 235.779555 
L 277.590964 233.9421 
L 281.472396 233.073986 
L 286.921945 229.158887 
L 301.962775 229.81709 
L 303.519595 232.326531 
L 293.983448 234.922513 
L 283.948395 235.9384 
L 274.558666 237.775403 
L 269.452114 241.584303 
L 271.51959 245.290621 
L 272.519209 249.640002 
L 268.163727 253.313556 
L 268.528868 256.673487 
L 266.124269 259.822151 
L 257.80556 259.548747 
L 261.242767 265.33429 
L 255.677077 267.547054 
L 251.963755 272.825104 
L 252.446844 278.076719 
L 249.02681 280.535998 
L 245.793413 279.721661 
L 239.110157 280.861823 
L 238.154373 283.308449 
L 231.643745 283.293084 
L 226.769022 288.242824 
L 226.46308 295.684381 
L 215.098065 299.320201 
L 209.00771 298.551959 
L 207.23759 300.46895 
L 202.010378 299.353868 
L 193.261906 300.663496 
L 178.608813 296.197748 
L 186.540237 288.269487 
L 185.823964 282.640756 
L 179.200811 281.166635 
L 178.516172 275.614954 
L 175.651532 268.633439 
L 179.391064 263.845029 
z
" clip-path="url(#p7d07e3c334)" style="fill: #e8edf4; stroke: #b8c5d4; stroke-width: 0.45"/>
    <path d="M 236.045322 214.774453 
L 238.312089 210.923751 
L 245.614006 211.334987 
L 249.769745 206.501613 
L 252.549427 200.89028 
L 264.242527 198.858054 
L 262.419534 202.913243 
L 263.67222 205.344052 
L 267.282056 205.118099 
L 264.079841 207.816889 
L 254.56177 206.352484 
L 253.733424 211.394187 
L 263.215342 210.716326 
L 274.019993 213.556111 
L 290.553924 212.22886 
L 292.770529 220.321615 
L 295.644659 219.441074 
L 300.955473 221.431951 
L 300.650888 224.832327 
L 301.962775 229.81709 
L 286.921945 229.158887 
L 281.472396 233.073986 
L 277.590964 233.9421 
L 274.544205 235.779555 
L 271.081692 232.915818 
L 271.896933 225.568936 
L 269.251468 225.153633 
L 270.20228 222.480828 
L 265.468552 220.492436 
L 261.703712 223.534676 
L 260.77911 227.060908 
L 259.432427 228.345906 
L 254.204763 228.164239 
L 251.38441 232.168138 
L 248.438879 230.478683 
L 242.108562 233.287738 
L 239.436434 232.221915 
L 244.351377 223.371763 
L 242.462405 216.860909 
z
" clip-path="url(#p7d07e3c334)" style="fill: #e8edf4; stroke: #b8c5d4; stroke-width: 0.45"/>
    <path d="M 253.733424 211.394187 
L 254.56177 206.352484 
L 264.079841 207.816889 
L 267.282056 205.118099 
L 273.934131 205.97966 
L 285.132393 199.681655 
L 274.766996 195.074234 
L 268.538358 197.254461 
L 262.086026 193.962768 
L 269.425 188.298562 
L 266.828341 187.437679 
L 268.786907 183.606183 
L 274.544205 182.372251 
L 288.930673 185.38489 
L 290.290914 180.222076 
L 295.254211 178.411283 
L 307.707872 182.088001 
L 310.885684 181.124987 
L 338.360741 182.278706 
L 342.746049 185.421721 
L 348.135947 186.70446 
L 346.90676 188.681328 
L 333.126751 193.418446 
L 330.009495 196.889545 
L 318.792253 197.928706 
L 315.485648 203.512698 
L 306.228779 202.339773 
L 300.186327 204.050694 
L 291.838244 208.182256 
L 293.043029 210.228266 
L 290.553924 212.22886 
L 274.019993 213.556111 
L 263.215342 210.716326 
z
" clip-path="url(#p7d07e3c334)" style="fill: #e8edf4; stroke: #b8c5d4; stroke-width: 0.45"/>
    <path d="M 105.398029 191.660075 
L 109.261836 188.75047 
L 119.188431 186.930865 
L 125.099378 189.380654 
L 131.22001 196.237669 
L 145.57168 195.691539 
L 144.135971 191.286573 
L 151.606902 188.273708 
L 158.974346 183.192914 
L 170.757376 187.814344 
L 171.692372 194.792244 
L 175.038293 196.583378 
L 184.493549 196.180729 
L 187.427783 197.768053 
L 191.726325 206.783829 
L 207.43191 216.940897 
L 216.577157 221.223396 
L 228.20925 224.966318 
L 227.968383 230.317352 
L 225.334216 230.046207 
L 221.208755 227.708039 
L 219.838572 230.820776 
L 212.467964 232.512039 
L 210.722247 239.505756 
L 205.793746 242.16523 
L 198.890863 243.483896 
L 197.064253 247.446444 
L 190.470475 248.612817 
L 181.552085 245.294914 
L 180.784746 237.93583 
L 174.265984 237.622884 
L 164.271603 229.878324 
L 157.287828 228.922314 
L 147.618368 224.48933 
L 141.400124 223.683353 
L 137.561172 225.312253 
L 131.712588 225.058733 
L 125.492537 230.058183 
L 117.808306 231.75035 
L 116.180988 225.565773 
L 117.452655 216.418944 
L 110.63247 213.458951 
L 112.877998 207.47118 
L 107.072797 206.960977 
L 109.007864 199.589917 
L 117.253364 201.736703 
L 124.937595 198.938493 
L 118.566606 193.689816 
L 116.060329 188.687881 
L 109.020969 190.918495 
L 108.128452 197.326314 
z
" clip-path="url(#p7d07e3c334)" style="fill: #e8edf4; stroke: #b8c5d4; stroke-width: 0.45"/>
    <path d="M 31.999703 212.255974 
L 37.987926 209.764835 
L 39.375733 213.063758 
L 43.792223 217.100646 
L 49.790388 218.263177 
L 52.956902 218.006042 
L 63.27033 211.554388 
L 66.549821 210.908387 
L 69.133375 213.474768 
L 66.118249 217.801328 
L 71.571866 222.380504 
L 73.748252 221.944414 
L 76.514828 228.392679 
L 84.806422 230.214317 
L 90.880508 234.60211 
L 103.312928 236.109673 
L 116.97047 233.795682 
L 117.808306 231.75035 
L 125.492537 230.058183 
L 131.712588 225.058733 
L 137.561172 225.312253 
L 141.400124 223.683353 
L 147.618368 224.48933 
L 157.287828 228.922314 
L 164.271603 229.878324 
L 174.265984 237.622884 
L 180.784746 237.93583 
L 181.552085 245.294914 
L 175.584649 262.554156 
L 179.391064 263.845029 
L 175.651532 268.633439 
L 178.516172 275.614954 
L 179.200811 281.166635 
L 185.823964 282.640756 
L 186.540237 288.269487 
L 178.608813 296.197748 
L 182.938084 300.79726 
L 186.458442 306.0787 
L 194.818274 309.923753 
L 195.059593 317.625609 
L 199.243802 319.041208 
L 199.967306 323.06838 
L 187.353218 327.585645 
L 184.05791 337.744972 
L 158.071435 333.095072 
L 148.202684 331.958751 
L 144.473094 321.23567 
L 140.287529 319.68608 
L 133.567668 321.248549 
L 124.747342 325.480887 
L 114.061091 322.580094 
L 105.233082 315.859781 
L 96.813146 313.368868 
L 90.973149 305.071399 
L 84.519913 293.412192 
L 79.813751 294.829373 
L 74.256195 291.931518 
L 70.991165 295.344773 
L 66.151691 290.747746 
L 66.065376 286.089486 
L 63.272137 286.091972 
L 64.705587 279.757814 
L 60.205947 273.11184 
L 49.490774 268.318459 
L 43.433409 260.006303 
L 45.460213 253.182277 
L 49.861789 250.164215 
L 49.202005 245.056081 
L 43.467754 242.431178 
L 37.801487 231.999304 
L 33.018754 224.993432 
L 34.729675 222.285152 
z
" clip-path="url(#p7d07e3c334)" style="fill: #e8edf4; stroke: #b8c5d4; stroke-width: 0.45"/>
    <path d="M -41.364278 271.01273 
L -40.345679 269.62289 
L -40.479443 266.043558 
L -38.333788 261.255827 
L -33.565262 257.960067 
L -34.995549 254.530769 
L -38.928949 254.084962 
L -39.745546 247.394249 
L -37.605313 243.795486 
L -32.921294 239.963764 
L -32.448147 235.085651 
L -29.586219 236.786404 
L -19.958334 234.353787 
L -15.304593 236.000311 
L -8.11023 235.972971 
L 1.952389 232.691672 
L 6.664426 232.839672 
L 16.611809 231.479657 
L 12.129793 236.936663 
L 7.343191 239.097006 
L 8.16747 245.485167 
L 4.863576 256.057311 
L -14.496131 265.158046 
L -31.621157 274.477955 
z
" clip-path="url(#p7d07e3c334)" style="fill: #e8edf4; stroke: #b8c5d4; stroke-width: 0.45"/>
    <path d="M 27.395672 197.704334 
L 39.548814 196.340252 
L 41.359154 198.638201 
L 44.689711 200.151638 
L 42.930436 202.344744 
L 47.589148 205.344504 
L 45.123994 208.129609 
L 48.836412 210.507997 
L 52.762582 211.940995 
L 52.956902 218.006042 
L 49.790388 218.263177 
L 46.220321 213.204076 
L 46.26054 211.854906 
L 42.396733 211.874564 
L 39.806853 209.528714 
L 37.987926 209.764835 
L 34.542585 207.211333 
L 28.040092 205.037659 
L 28.881543 200.782049 
z
" clip-path="url(#p7d07e3c334)" style="fill: #e8edf4; stroke: #b8c5d4; stroke-width: 0.45"/>
    <path d="M -124.870865 211.94574 
L -115.170676 203.582066 
L -101.703839 203.23229 
L -98.030737 196.586316 
L -81.363493 197.743876 
L -70.851678 192.071536 
L -60.66117 189.599378 
L -46.193359 189.413418 
L -30.929739 195.577433 
L -18.384793 198.959733 
L -8.197448 197.611467 
L -0.669577 198.390555 
L 9.655148 193.82584 
L 18.972572 193.410311 
L 27.395672 197.704334 
L 28.881543 200.782049 
L 28.040092 205.037659 
L 34.542585 207.211333 
L 37.987926 209.764835 
L 31.999703 212.255974 
L 34.729675 222.285152 
L 33.018754 224.993432 
L 37.801549 231.999418 
L 33.610752 233.476635 
L 30.539591 231.249184 
L 20.368062 230.120772 
L 16.611809 231.479657 
L 6.664426 232.839672 
L 1.952389 232.691672 
L -8.11023 235.972971 
L -15.304593 236.000311 
L -19.958334 234.353787 
L -29.586219 236.786404 
L -32.448147 235.085651 
L -32.921294 239.963764 
L -37.605313 243.795486 
L -40.820633 239.829999 
L -37.508605 236.545312 
L -42.842014 237.290055 
L -50.156133 235.277938 
L -56.169663 240.311281 
L -69.44218 241.294179 
L -76.521759 236.60067 
L -85.948544 236.30693 
L -87.964503 239.935068 
L -94.00831 240.972421 
L -102.465303 236.315969 
L -112.012296 236.473458 
L -117.192961 227.776277 
L -123.581574 222.924827 
L -119.327319 216.124526 
z
" clip-path="url(#p7d07e3c334)" style="fill: #e8edf4; stroke: #b8c5d4; stroke-width: 0.45"/>
    <path d="M -125.985268 201.852843 
L -125.866417 200.048151 
L -123.788095 199.067513 
L -121.080719 193.594464 
L -125.340848 191.278891 
L -116.432401 188.527905 
L -108.903174 189.700831 
L -107.864239 193.063021 
L -100.230621 195.887215 
L -101.822239 198.029482 
L -112.206164 198.511667 
L -123.233605 205.925883 
z
" clip-path="url(#p7d07e3c334)" style="fill: #e8edf4; stroke: #b8c5d4; stroke-width: 0.45"/>
    <path d="M 290.553924 212.22886 
L 293.043029 210.228266 
L 291.838244 208.182256 
L 300.186327 204.050694 
L 306.228779 202.339773 
L 315.485648 203.512698 
L 318.792253 197.928706 
L 330.009495 196.889545 
L 333.126751 193.418446 
L 346.90676 188.681328 
L 348.135947 186.70446 
L 347.437751 181.719245 
L 353.437271 179.442988 
L 345.565951 164.251673 
L 362.889364 160.757978 
L 367.365505 158.811162 
L 373.675486 143.154383 
L 391.023754 146.032128 
L 395.887632 142.079295 
L 396.305194 133.310035 
L 403.568248 132.492987 
L 410.224842 126.670613 
L 413.646684 125.951629 
L 415.942824 132.053281 
L 423.292644 136.691431 
L 435.767544 139.975441 
L 441.80141 147.018642 
L 438.434249 157.236491 
L 441.580427 161.028671 
L 463.750546 163.744859 
L 474.316137 169.194183 
L 479.720044 170.16488 
L 483.704059 178.226679 
L 488.836821 183.419546 
L 498.476907 183.216187 
L 516.526987 185.176787 
L 528.158176 183.960253 
L 536.790961 185.262649 
L 549.726806 190.574367 
L 560.308214 190.566685 
L 564.179704 193.285811 
L 574.361627 188.590495 
L 588.488699 185.554356 
L 601.595818 185.222656 
L 611.814345 182.146297 
L 618.089529 177.462504 
L 624.210161 174.521718 
L 622.794787 171.635386 
L 620.002 168.275004 
L 624.592474 162.637686 
L 638.50218 165.201582 
L 647.215856 160.558687 
L 660.549831 157.170738 
L 666.957876 151.390619 
L 673.112853 148.902417 
L 685.815967 147.742145 
L 692.715235 148.727981 
L 693.673278 145.620215 
L 685.74818 139.507491 
L 678.730964 136.711993 
L 672.009296 139.939063 
L 663.381934 138.577466 
L 658.43129 139.686898 
L 656.178984 136.111634 
L 666.616235 120.780454 
L 677.11404 124.082089 
L 689.437551 118.556167 
L 689.358228 114.708068 
L 697.252198 105.432923 
L 702.115433 102.629645 
L 702.0069 97.801422 
L 697.208549 95.7231 
L 704.431834 91.372363 
L 715.298848 89.795433 
L 726.892207 89.558672 
L 739.981119 92.162523 
L 747.660379 95.382814 
L 759.388276 113.336186 
L 762.623417 121.902092 
L 777.843265 124.697586 
L 788.201432 130.914475 
L 791.74284 139.130847 
L 805.030164 139.141079 
L 812.611202 135.69136 
L 827.0641 133.113455 
L 822.468622 140.981976 
L 819.071563 144.182361 
L 816.07462 153.762906 
L 810.193438 162.270306 
L 799.580004 160.721826 
L 792.074536 163.810552 
L 794.377648 171.300071 
L 793.119538 181.632478 
L 788.652435 181.868374 
L 788.70607 186.310719 
L 783.059179 181.148034 
L 779.582204 186.048742 
L 766.076052 189.815163 
L 767.442168 194.428233 
L 759.880855 194.11009 
L 755.729635 191.369272 
L 749.721528 197.571474 
L 740.083702 202.271987 
L 732.962547 207.880382 
L 720.736648 210.422586 
L 714.298777 214.50941 
L 704.881934 216.89661 
L 709.529348 212.844357 
L 707.699576 209.43901 
L 714.624151 203.560826 
L 710.004755 198.978939 
L 702.381531 202.065917 
L 692.508261 208.146555 
L 687.120171 213.793363 
L 678.543875 214.213636 
L 674.08355 218.294359 
L 678.6921 224.207339 
L 685.849408 225.642823 
L 686.142244 229.568089 
L 693.060944 232.122269 
L 702.861005 225.878041 
L 710.624771 229.282484 
L 716.279939 229.515442 
L 717.69712 234.096652 
L 705.315765 236.538985 
L 701.230523 241.260286 
L 692.726532 245.647176 
L 688.237286 251.768034 
L 697.64961 256.573615 
L 701.085009 265.175218 
L 706.407573 273.189116 
L 712.346538 279.906491 
L 712.204639 286.402432 
L 706.715774 288.790536 
L 708.808104 293.454671 
L 713.955328 296.169052 
L 712.611356 303.291788 
L 710.390232 310.222238 
L 705.503758 311.007879 
L 692.035114 331.951069 
L 683.914341 342.387189 
L 659.724649 357.817789 
L 649.869907 358.821701 
L 644.524296 362.707199 
L 641.500585 359.86877 
L 636.553556 364.214762 
L 624.332628 368.594873 
L 615.079375 369.935908 
L 612.093623 379.171537 
L 607.24737 379.683773 
L 604.954392 373.336962 
L 607.025483 369.95421 
L 595.292615 367.154419 
L 591.159471 368.578378 
L 582.355414 366.3089 
L 578.191541 362.755779 
L 579.574377 357.718143 
L 571.580137 356.121103 
L 567.364746 352.840256 
L 559.910988 357.50055 
L 551.407901 358.509659 
L 544.433616 358.465598 
L 535.207929 361.881339 
L 536.529306 371.88408 
L 531.867431 371.645473 
L 530.818102 365.975845 
L 524.403731 368.52189 
L 514.12284 363.629316 
L 516.668434 356.364681 
L 511.130762 354.670932 
L 509.04521 346.620657 
L 499.814553 348.071279 
L 500.862978 337.697748 
L 509.146438 330.395152 
L 509.241338 316.48974 
L 505.424529 314.404866 
L 502.501593 309.256512 
L 497.386907 309.906807 
L 487.95741 308.599891 
L 490.911076 304.927467 
L 486.810469 299.489666 
L 480.576409 303.172033 
L 473.24105 301.023214 
L 463.161258 306.592067 
L 455.201364 313.096142 
L 448.148899 314.190436 
L 444.320341 311.839162 
L 439.700041 311.626314 
L 433.450164 309.601995 
L 428.727733 311.820408 
L 422.942416 318.321772 
L 422.208519 311.434705 
L 416.875109 313.273968 
L 406.679177 312.419411 
L 396.786927 310.414073 
L 389.68882 306.573313 
L 382.893491 304.849513 
L 379.958805 300.649035 
L 375.045217 299.394088 
L 366.216305 293.696441 
L 359.205416 291.007819 
L 355.580216 293.099924 
L 343.425718 286.985167 
L 334.834057 281.447947 
L 332.381556 271.808765 
L 338.657644 272.98395 
L 338.944154 268.518654 
L 335.465371 264.042965 
L 336.350206 256.909383 
L 326.950987 246.659674 
L 312.569038 243.123274 
L 309.980965 236.403639 
L 303.519595 232.326531 
L 301.962775 229.81709 
L 300.650888 224.832327 
L 300.955473 221.431951 
L 295.644659 219.441074 
L 292.770529 220.321615 
z
" clip-path="url(#p7d07e3c334)" style="fill: #e8edf4; stroke: #b8c5d4; stroke-width: 0.45"/>
    <path d="M 596.196882 387.681628 
L 600.506721 383.718853 
L 610.060945 381.268386 
L 615.088865 381.475812 
L 617.043364 384.812921 
L 613.200796 388.661137 
L 611.176704 393.711201 
L 603.621266 397.914842 
L 596.450402 395.204076 
z
" clip-path="url(#p7d07e3c334)" style="fill: #e8edf4; stroke: #b8c5d4; stroke-width: 0.45"/>
    <path d="M 39.548814 196.340252 
L 41.690854 194.911999 
L 48.207357 197.426863 
L 52.921202 197.946557 
L 54.112881 196.921405 
L 49.806205 192.189258 
L 52.075683 190.983569 
L 54.534059 191.276857 
L 60.543973 196.588575 
L 64.412299 197.185997 
L 65.913083 194.961257 
L 71.134426 191.436613 
L 75.73348 196.041542 
L 80.181603 202.244872 
L 84.255999 202.653849 
L 86.949367 205.011449 
L 79.746869 205.715068 
L 78.225749 212.506557 
L 76.721349 215.569584 
L 73.514616 217.613561 
L 73.748252 221.944414 
L 71.571866 222.380504 
L 66.118249 217.801328 
L 69.133375 213.474768 
L 66.549821 210.908387 
L 63.27033 211.554388 
L 52.956902 218.006042 
L 52.762582 211.940995 
L 48.836412 210.507997 
L 45.123994 208.129609 
L 47.589148 205.344504 
L 42.930436 202.344744 
L 44.689711 200.151638 
L 41.359154 198.638201 
z
" clip-path="url(#p7d07e3c334)" style="fill: #e8edf4; stroke: #b8c5d4; stroke-width: 0.45"/>
    <path d="M 37.987926 209.764835 
L 39.806853 209.528714 
L 42.396733 211.874564 
L 46.26054 211.854906 
L 46.220321 213.204076 
L 49.790388 218.263177 
L 43.792223 217.100646 
L 39.375733 213.063758 
z
" clip-path="url(#p7d07e3c334)" style="fill: #e8edf4; stroke: #b8c5d4; stroke-width: 0.45"/>
    <path d="M -4.32867 177.216215 
L -3.262169 176.183381 
L 17.00366 179.093733 
L 28.910682 183.286669 
L 30.44297 184.912091 
L 35.746014 183.538849 
L 43.902036 185.368396 
L 46.579045 188.9568 
L 52.075683 190.983569 
L 49.806205 192.189258 
L 54.112881 196.921405 
L 52.921202 197.946557 
L 48.207357 197.426863 
L 41.690854 194.911999 
L 39.548814 196.340252 
L 27.395672 197.704334 
L 18.972572 193.410311 
L 9.655148 193.82584 
L 10.958901 190.089245 
L 8.775285 184.123617 
L 3.720702 180.901067 
L -1.124647 179.895347 
z
" clip-path="url(#p7d07e3c334)" style="fill: #e8edf4; stroke: #b8c5d4; stroke-width: 0.45"/>
    <path d="M -36.08844 427.430857 
L -32.322257 414.581305 
L -31.459657 408.768632 
L -28.705526 406.087521 
L -22.264615 404.649853 
L -17.838889 399.658526 
L -12.762163 409.782379 
L -10.353046 417.809382 
L -5.559213 422.068833 
L 6.377465 430.32902 
L 18.710466 443.364737 
L 23.009912 445.995063 
L 20.372581 448.130777 
L 16.629027 447.371592 
L 13.639919 444.541817 
L 10.044087 439.414921 
L 6.166931 436.605697 
L 3.90549 433.585982 
L -3.705668 430.079699 
L -9.701548 429.975109 
L -11.810915 428.14663 
L -16.939385 430.203177 
L -22.246513 426.233325 
L -24.977558 432.759935 
L -35.158941 430.932155 
z
" clip-path="url(#p7d07e3c334)" style="fill: #e8edf4; stroke: #b8c5d4; stroke-width: 0.45"/>
    <path d="M 18.844231 424.012939 
L 20.594468 423.587694 
L 19.697432 419.59193 
L 20.757606 417.905412 
L 20.36987 414.091315 
L 24.209274 411.301691 
L 23.312238 407.615258 
L 25.629618 403.316716 
L 29.221377 405.590487 
L 31.592083 404.800101 
L 41.684076 404.599228 
L 43.287443 405.473669 
L 51.74082 406.348336 
L 55.093068 405.910889 
L 57.279395 408.825917 
L 61.36057 407.36829 
L 67.62762 398.186213 
L 75.789517 394.251004 
L 101.004134 390.898756 
L 110.698449 411.440201 
L 104.372651 413.789441 
L 102.68071 417.672002 
L 102.474641 420.654138 
L 93.767743 424.345994 
L 79.793867 428.425361 
L 71.964122 434.595477 
L 68.113872 435.077436 
L 65.490098 434.560228 
L 60.379027 438.189495 
L 54.805203 439.873076 
L 45.255499 440.824115 
L 43.343931 443.133135 
L 41.051857 443.771228 
L 39.697943 445.995515 
L 35.369575 445.802551 
L 32.575885 446.989259 
L 26.523039 446.544583 
L 24.24859 441.436223 
L 24.498494 436.655948 
L 23.06866 434.075783 
L 21.357287 427.607861 
z
" clip-path="url(#p7d07e3c334)" style="fill: #e8edf4; stroke: #b8c5d4; stroke-width: 0.45"/>
    <path d="M -50.875118 311.68235 
L -48.044371 300.331344 
L -38.312096 301.722314 
L -34.531892 299.030981 
L -32.439109 295.882543 
L -25.766247 294.671431 
L -24.327374 291.742846 
L -21.435167 290.257653 
L -30.151103 281.513473 
L -12.637437 277.125228 
L -10.970803 275.806563 
L -0.437296 278.17659 
L 12.592546 284.2979 
L 37.249058 301.885001 
L 61.300466 303.42736 
L 63.478207 307.593945 
L 69.66301 307.367088 
L 73.086659 314.908516 
L 77.388816 316.905946 
L 78.887341 319.977334 
L 84.847094 323.653148 
L 85.376277 327.261627 
L 84.505 330.17417 
L 85.611721 333.111793 
L 88.126133 335.562486 
L 90.598518 340.573911 
L 93.242175 342.309009 
L 95.666206 341.687637 
L 101.010461 355.908932 
L 127.298358 360.318192 
L 129.060797 358.469665 
L 133.068762 364.663958 
L 127.238707 382.153899 
L 101.004134 390.898756 
L 75.789517 394.251004 
L 67.62762 398.186213 
L 61.36057 407.36829 
L 57.279395 408.825917 
L 55.093068 405.910889 
L 51.74082 406.348336 
L 43.287443 405.473669 
L 41.684076 404.599228 
L 31.592083 404.800101 
L 29.221377 405.590487 
L 25.629618 403.316716 
L 23.312238 407.615258 
L 24.209274 411.301691 
L 20.36987 414.091315 
L 19.23513 410.359464 
L 16.5978 407.725749 
L 15.923554 404.237251 
L 11.406741 401.103726 
L 6.745769 393.770627 
L 4.27926 386.644501 
L -1.769519 380.626678 
L -5.669479 379.190517 
L -11.461122 370.856217 
L -12.472943 364.778742 
L -12.100119 359.594914 
L -17.115838 349.898566 
L -21.216444 346.485988 
L -25.940683 344.677455 
L -28.816169 339.666708 
L -28.338051 337.689839 
L -30.767956 333.156306 
L -33.321684 331.20384 
L -36.736295 324.698409 
L -46.521443 311.640323 
z
" clip-path="url(#p7d07e3c334)" style="fill: #e8edf4; stroke: #b8c5d4; stroke-width: 0.45"/>
    <path d="M -65.550491 488.973542 
L -62.571789 483.992337 
L -57.93085 483.777386 
L -56.623657 481.106682 
L -56.740489 473.244806 
L -54.153474 464.09314 
L -50.010996 461.643857 
L -49.132304 458.069014 
L -45.38195 451.388755 
L -40.107527 447.056337 
L -36.551922 438.442134 
L -35.158941 430.932155 
L -24.977558 432.759935 
L -22.246513 426.233325 
L -16.939385 430.203177 
L -11.810915 428.14663 
L -9.701548 429.975109 
L -3.705668 430.079699 
L 3.90549 433.585982 
L 6.166931 436.605697 
L 10.044087 439.414921 
L 13.639919 444.541817 
L 16.629027 447.371592 
L 10.596768 455.338494 
L 11.41713 460.413095 
L 16.301791 460.559223 
L 18.407485 459.939119 
L 20.348178 461.497742 
L 18.440978 464.596062 
L 24.896755 473.621713 
L 28.235223 476.742782 
L 56.827589 487.120402 
L 64.182782 487.066883 
L 39.471158 513.313768 
L 28.078863 513.699158 
L 20.285373 519.86399 
L 14.679343 520.025422 
L 12.287366 522.781985 
L 6.312097 522.780428 
L 2.785088 519.82525 
L -5.203764 523.482646 
L -7.788381 527.126925 
L -13.620155 526.438873 
L -15.556023 525.430319 
L -20.367707 525.583049 
L -31.437241 518.15633 
L -37.523847 518.15633 
L -40.511389 515.278357 
L -40.511389 510.370116 
L -45.053865 508.902996 
L -50.222011 499.386578 
L -54.215825 497.359064 
L -55.748113 493.862138 
L -60.180136 489.599942 
z
" clip-path="url(#p7d07e3c334)" style="fill: #e8edf4; stroke: #b8c5d4; stroke-width: 0.45"/>
   </g>
   <g id="PathCollection_1">
    <defs>
     <path id="maaee2465fc" d="M 0 2.12132 
C 0.562581 2.12132 1.102195 1.897805 1.5 1.5 
C 1.897805 1.102195 2.12132 0.562581 2.12132 0 
C 2.12132 -0.562581 1.897805 -1.102195 1.5 -1.5 
C 1.102195 -1.897805 0.562581 -2.12132 0 -2.12132 
C -0.562581 -2.12132 -1.102195 -1.897805 -1.5 -1.5 
C -1.897805 -1.102195 -2.12132 -0.562581 -2.12132 0 
C -2.12132 0.562581 -1.897805 1.102195 -1.5 1.5 
C -1.102195 1.897805 -0.562581 2.12132 0 2.12132 
z
" style="stroke: #ffffff; stroke-width: 0.5"/>
    </defs>
    <g clip-path="url(#p7d07e3c334)">
     <use xlink:href="#maaee2465fc" x="88.323887" y="329.684211" style="fill: #8aa0b7; stroke: #ffffff; stroke-width: 0.5"/>
     <use xlink:href="#maaee2465fc" x="437.684211" y="316.566802" style="fill: #8aa0b7; stroke: #ffffff; stroke-width: 0.5"/>
     <use xlink:href="#maaee2465fc" x="46.348178" y="299.076923" style="fill: #8aa0b7; stroke: #ffffff; stroke-width: 0.5"/>
     <use xlink:href="#maaee2465fc" x="94.445344" y="334.05668" style="fill: #8aa0b7; stroke: #ffffff; stroke-width: 0.5"/>
    </g>
   </g>
   <g id="PatchCollection_2">
    <defs>
     <path id="m48b86f42ec" d="M 236.045322 -217.225547 
L 238.312089 -221.076249 
L 245.614006 -220.665013 
L 249.769745 -225.498387 
L 252.549427 -231.10972 
L 264.242527 -233.141946 
L 262.419534 -229.086757 
L 263.67222 -226.655948 
L 267.282056 -226.881901 
L 264.079841 -224.183111 
L 254.56177 -225.647516 
L 253.733424 -220.605813 
L 263.215342 -221.283674 
L 274.019993 -218.443889 
L 290.553924 -219.77114 
L 292.770529 -211.678385 
L 295.644659 -212.558926 
L 300.955473 -210.568049 
L 300.650888 -207.167673 
L 301.962775 -202.18291 
L 286.921945 -202.841113 
L 281.472396 -198.926014 
L 277.590964 -198.0579 
L 274.544205 -196.220445 
L 271.081692 -199.084182 
L 271.896933 -206.431064 
L 269.251468 -206.846367 
L 270.20228 -209.519172 
L 265.468552 -211.507564 
L 261.703712 -208.465324 
L 260.77911 -204.939092 
L 259.432427 -203.654094 
L 254.204763 -203.835761 
L 251.38441 -199.831862 
L 248.438879 -201.521317 
L 242.108562 -198.712262 
L 239.436434 -199.778085 
L 244.351377 -208.628237 
L 242.462405 -215.139091 
z
" style="stroke: #b45309; stroke-width: 1.15"/>
    </defs>
    <g clip-path="url(#p7d07e3c334)">
     <use xlink:href="#m48b86f42ec" x="0" y="432" style="fill: #f59e0b; stroke: #b45309; stroke-width: 1.15"/>
    </g>
   </g>
   <g id="PathCollection_2">
    <defs>
     <path id="mced0e14b3b" d="M 0 3.316625 
C 0.879579 3.316625 1.723251 2.967164 2.345208 2.345208 
C 2.967164 1.723251 3.316625 0.879579 3.316625 0 
C 3.316625 -0.879579 2.967164 -1.723251 2.345208 -2.345208 
C 1.723251 -2.967164 0.879579 -3.316625 0 -3.316625 
C -0.879579 -3.316625 -1.723251 -2.967164 -2.345208 -2.345208 
C -2.967164 -1.723251 -3.316625 -0.879579 -3.316625 0 
C -3.316625 0.879579 -2.967164 1.723251 -2.345208 2.345208 
C -1.723251 2.967164 -0.879579 3.316625 0 3.316625 
z
" style="stroke: #ffffff"/>
    </defs>
    <g clip-path="url(#p7d07e3c334)">
     <use xlink:href="#mced0e14b3b" x="267.157895" y="216" style="fill: #f97316; stroke: #ffffff"/>
    </g>
   </g>
   <g id="PathCollection_3">
    <path d="M 267.157895 220.449719 
C 268.337974 220.449719 269.469879 219.980869 270.304321 219.146427 
C 271.138763 218.311984 271.607614 217.180079 271.607614 216 
C 271.607614 214.819921 271.138763 213.688016 270.304321 212.853573 
C 269.469879 212.019131 268.337974 211.550281 267.157895 211.550281 
C 265.977815 211.550281 264.84591 212.019131 264.011468 212.853573 
C 263.177026 213.688016 262.708176 214.819921 262.708176 216 
C 262.708176 217.180079 263.177026 218.311984 264.011468 219.146427 
C 264.84591 219.980869 265.977815 220.449719 267.157895 220.449719 
L 267.157895 220.449719 
z
" clip-path="url(#p7d07e3c334)" style="fill: none; stroke: #7c2d12; stroke-width: 1.1"/>
   </g>
  </g>
 </g>
 <defs>
  <clipPath id="p7d07e3c334">
   <rect x="0" y="0" width="534.315789" height="432"/>
  </clipPath>
 </defs>
</svg>
