<?xml version="1.0" encoding="utf-8" standalone="no"?>
<!DOCTYPE svg PUBLIC "-//W3C//DTD SVG 1.1//EN"
  "http://www.w3.org/Graphics/SVG/1.1/DTD/svg11.dtd">
<svg xmlns:xlink="http://www.w3.org/1999/xlink" width="576pt" height="384pt" viewBox="0 0 576 384" xmlns="http://www.w3.org/2000/svg" version="1.1">
 <metadata>
  <rdf:RDF xmlns:dc="http://purl.org/dc/elements/1.1/" xmlns:cc="http://creativecommons.org/ns#" xmlns:rdf="http://www.w3.org/1999/02/22-rdf-syntax-ns#">
   <cc:Work>
    <dc:type rdf:resource="http://purl.org/dc/dcmitype/StillImage"/>
    <dc:date>2026-06-09T04:57:22.622491</dc:date>
    <dc:format>image/svg+xml</dc:format>
    <dc:creator>
     <cc:Agent>
      <dc:title>Matplotlib v3.10.8, https://matplotlib.org/</dc:title>
     </cc:Agent>
    </dc:creator>
   </cc:Work>
  </rdf:RDF>
 </metadata>
 <defs>
  <style type="text/css">*{stroke-linejoin: round; stroke-linecap: butt}</style>
 </defs>
 <g id="figure_1">
  <g id="patch_1">
   <path d="M 0 384 
L 576 384 
L 576 0 
L 0 0 
z
" style="fill: #eaf3ff"/>
  </g>
  <g id="axes_1">
   <g id="PatchCollection_1">
    <path d="M 104.414715 191.870401 
L 106.106394 185.681135 
L 138.266168 189.88801 
L 145.179234 185.613667 
L 136.409289 177.296159 
L 136.554148 169.962405 
L 124.440531 166.967983 
L 128.76498 161.666229 
L 157.131621 165.529807 
L 158.811394 175.986471 
L 157.343949 183.367354 
L 152.662808 186.602877 
L 157.604398 192.367487 
L 157.209508 197.583417 
L 144.457418 194.320112 
L 135.396265 195.651627 
L 123.681508 194.263557 
L 114.698242 197.852299 
z
" clip-path="url(#p0d5efac639)" style="fill: #e8edf4; stroke: #b8c5d4; stroke-width: 0.45"/>
    <path d="M 152.662808 186.602877 
L 157.343949 183.367354 
L 158.811394 175.986471 
L 157.131621 165.529807 
L 159.532715 162.257077 
L 174.520203 162.345877 
L 185.893152 167.287963 
L 190.953308 166.80576 
L 194.439359 173.616631 
L 204.944144 173.233647 
L 204.325515 178.955592 
L 212.86825 179.649131 
L 222.304449 186.693167 
L 215.174093 194.508627 
L 206.042 190.33251 
L 190.912629 190.223866 
L 187.450886 193.725792 
L 180.079925 194.908975 
L 177.158429 190.251151 
L 170.809918 193.007448 
L 163.124929 206.154924 
L 158.181851 203.101963 
L 157.604398 192.367487 
z
" clip-path="url(#p0d5efac639)" style="fill: #e8edf4; stroke: #b8c5d4; stroke-width: 0.45"/>
    <path d="M 28.566144 72.195072 
L 32.744256 60.0096 
L 38.52096 60.78336 
L 45.24096 76.71936 
L 45.343488 87.86016 
L 40.63296 88.81536 
L 35.7552 77.75328 
z
" clip-path="url(#p0d5efac639)" style="fill: #e8edf4; stroke: #b8c5d4; stroke-width: 0.45"/>
    <path d="M 40.44096 24.87936 
L 55.60896 33.51936 
L 52.296 47.167104 
L 48.765888 44.70624 
L 49.08096 34.67136 
L 40.478976 27.084288 
z
" clip-path="url(#p0d5efac639)" style="fill: #e8edf4; stroke: #b8c5d4; stroke-width: 0.45"/>
    <path d="M 17.59296 29.67936 
L 26.61696 28.14336 
L 39.28896 28.71936 
L 39.86496 33.71136 
L 18.93696 36.78336 
z
" clip-path="url(#p0d5efac639)" style="fill: #e8edf4; stroke: #b8c5d4; stroke-width: 0.45"/>
    <path d="M 17.383004 511.573057 
L 24.546597 510.132401 
L 23.696293 500.514135 
L 28.19884 493.559893 
L 37.723343 492.27253 
L 53.157316 470.134346 
L 46.080539 465.565323 
L 49.703015 454.422065 
L 45.371125 436.85737 
L 49.487711 431.816561 
L 46.457074 415.577924 
L 38.682789 405.350952 
L 41.143414 396.018436 
L 47.331687 397.396584 
L 50.951683 391.690018 
L 46.494281 380.381065 
L 48.824433 377.57367 
L 58.74482 378.18337 
L 73.15039 364.780405 
L 81.056636 362.736995 
L 84.784781 340.162745 
L 95.796574 331.252901 
L 107.895308 330.888272 
L 109.422285 326.886284 
L 124.445492 328.488667 
L 147.035617 314.500807 
L 156.330429 305.251139 
L 163.132371 306.427377 
L 168.169707 311.478108 
L 164.442554 317.942706 
L 152.109664 321.160866 
L 147.239511 330.76028 
L 139.807531 336.265432 
L 134.227468 343.400749 
L 131.878961 357.10137 
L 126.55389 368.328963 
L 136.465347 369.614838 
L 138.927461 378.441834 
L 143.163605 382.666073 
L 144.679668 390.396702 
L 142.399125 397.503245 
L 143.074804 401.51069 
L 147.800593 403.111088 
L 152.373586 409.808354 
L 177.063675 407.961893 
L 188.217351 410.408131 
L 201.730945 426.930038 
L 209.490843 424.876706 
L 223.319953 425.904612 
L 234.263285 423.714854 
L 241.05332 427.014374 
L 237.595547 437.355448 
L 233.310785 443.80169 
L 231.807125 457.571764 
L 235.669711 470.329311 
L 241.127734 476.034389 
L 241.788035 480.333042 
L 232.058148 489.890784 
L 239.024793 494.121967 
L 244.128109 500.835108 
L 249.983504 519.982838 
L 246.360035 522.349206 
L 242.617008 511.023385 
L 237.283008 504.933834 
L 230.932511 511.552221 
L 193.523074 511.1231 
L 193.760703 523.137002 
L 205.011117 525.12237 
L 204.362226 532.476463 
L 200.522957 530.489112 
L 189.710097 533.652206 
L 189.612367 547.602362 
L 198.129304 554.607206 
L 201.135633 565.601635 
L 192.051164 626.572549 
L 182.443316 616.365917 
L 176.709465 615.910502 
L 189.092957 596.370362 
L 174.390226 587.379159 
L 162.866961 589.029167 
L 155.933554 585.707323 
L 145.353859 590.784346 
L 131.057429 588.379284 
L 119.746492 568.248792 
L 110.858972 563.301745 
L 104.73023 554.239104 
L 91.961769 545.145706 
L 86.843074 546.96637 
L 69.196523 536.059252 
L 63.742468 539.114198 
L 47.449261 536.450174 
L 42.771593 528.190213 
L 39.191781 528.496799 
L 19.987992 517.533624 
z
" clip-path="url(#p0d5efac639)" style="fill: #e8edf4; stroke: #b8c5d4; stroke-width: 0.45"/>
    <path d="M -58.934075 386.126823 
L -56.322637 378.422487 
L -57.069258 374.947846 
L -54.199356 372.673752 
L -58.192414 369.820221 
L -58.302547 362.092569 
L -50.878008 360.377573 
L -43.983793 367.264346 
L -44.3767 371.332315 
L -36.715524 372.195518 
L -34.902797 370.633815 
L -29.625352 375.351667 
L -20.179231 373.964092 
L -12.011543 369.114776 
L -0.351356 365.242268 
L 6.201547 359.504448 
L 16.802078 360.631077 
L 16.086711 362.519706 
L 26.791918 363.174549 
L 35.335148 366.490936 
L 48.824433 377.57367 
L 46.494281 380.381065 
L 50.951683 391.690018 
L 47.331687 397.396584 
L 41.143414 396.018436 
L 38.682789 405.350952 
L 32.282187 399.812065 
L 28.169074 389.44817 
L 32.912722 384.319057 
L 28.048027 383.003417 
L 24.464246 376.65937 
L 14.899062 371.322393 
L 6.497715 372.54576 
L 2.605859 379.22467 
L -5.149078 384.047694 
L -9.338094 384.717917 
L -11.220274 388.713456 
L -2.061887 399.134897 
L -10.077274 404.433178 
L -19.009938 405.412963 
L -22.334262 393.943276 
L -24.833582 397.207573 
L -31.165723 396.080448 
L -35.040215 388.355276 
L -47.896981 384.834002 
L -56.136602 384.862776 
L -56.729434 389.029963 
z
" clip-path="url(#p0d5efac639)" style="fill: #e8edf4; stroke: #b8c5d4; stroke-width: 0.45"/>
    <path d="M 126.55389 368.328963 
L 131.878961 357.10137 
L 134.227468 343.400749 
L 139.807531 336.265432 
L 147.239511 330.76028 
L 152.109664 321.160866 
L 164.442554 317.942706 
L 163.896851 322.479483 
L 152.625601 324.720338 
L 158.888289 333.433729 
L 158.654133 343.474667 
L 150.18482 354.626854 
L 157.452593 369.859909 
L 165.729422 368.613225 
L 170.040972 354.735499 
L 164.087351 347.978206 
L 163.116992 333.443155 
L 187.027222 325.638112 
L 184.367168 316.58837 
L 191.098664 310.531065 
L 197.990398 324.022831 
L 211.455375 324.334377 
L 223.930148 335.041073 
L 224.68173 341.398018 
L 241.920988 341.56669 
L 262.433968 339.593725 
L 273.428398 348.192022 
L 288.112277 350.564838 
L 298.882968 344.567065 
L 299.103234 339.732135 
L 345.894797 338.307354 
L 329.590675 343.978202 
L 336.149531 353.041834 
L 351.504625 354.484475 
L 366.061504 363.925635 
L 369.120914 379.308014 
L 379.127125 378.874428 
L 386.64989 383.400292 
L 371.437672 394.678983 
L 369.759883 401.679362 
L 376.332133 408.80426 
L 371.564175 412.40094 
L 359.749703 415.482674 
L 360.132191 424.348862 
L 354.931144 429.633252 
L 367.924336 444.202038 
L 370.46632 449.619877 
L 363.444609 456.947182 
L 341.968711 464.134588 
L 328.161925 467.113631 
L 322.619566 471.652393 
L 307.352777 466.853182 
L 293.138699 464.396526 
L 289.540531 466.163612 
L 298.133867 471.14092 
L 297.359465 484.013065 
L 300.024976 496.104854 
L 316.289906 497.754862 
L 317.32823 501.790088 
L 303.613718 507.253073 
L 301.382289 515.384545 
L 279.198465 523.01794 
L 275.482226 528.893674 
L 260.554269 530.137877 
L 249.983504 519.982838 
L 244.128109 500.835108 
L 239.024793 494.121967 
L 232.058148 489.890784 
L 241.788035 480.333042 
L 241.127734 476.034389 
L 235.669711 470.329311 
L 231.807125 457.571764 
L 233.310785 443.80169 
L 237.595547 437.355448 
L 241.05332 427.014374 
L 234.263285 423.714854 
L 223.319953 425.904612 
L 209.490843 424.876706 
L 201.730945 426.930038 
L 188.217351 410.408131 
L 177.063675 407.961893 
L 152.373586 409.808354 
L 147.800593 403.111088 
L 143.074804 401.51069 
L 142.399125 397.503245 
L 144.679668 390.396702 
L 143.163605 382.666073 
L 138.927461 378.441834 
L 136.465347 369.614838 
z
" clip-path="url(#p0d5efac639)" style="fill: #e8edf4; stroke: #b8c5d4; stroke-width: 0.45"/>
    <path d="M 354.931144 429.633252 
L 360.132191 424.348862 
L 359.749703 415.482674 
L 371.564175 412.40094 
L 376.332133 408.80426 
L 369.759883 401.679362 
L 371.437672 394.678983 
L 386.64989 383.400292 
L 399.256625 390.462682 
L 411.136086 402.971686 
L 411.67534 412.857842 
L 418.909379 413.31276 
L 436.778179 429.362881 
L 433.70984 446.634881 
L 422.054613 451.644932 
L 423.092937 456.17278 
L 419.550828 466.07878 
L 428.058836 480.021991 
L 434.205437 480.044315 
L 436.727082 490.883963 
L 448.452754 507.576526 
L 443.781039 508.264112 
L 433.16116 506.635436 
L 426.918316 511.741729 
L 412.163 515.939674 
L 410.040711 519.700065 
L 400.616418 518.747565 
L 388.804922 509.738999 
L 387.412883 500.854456 
L 382.498082 491.146893 
L 385.553027 474.802588 
L 390.878593 468.03835 
L 386.474769 459.116104 
L 379.877715 456.208002 
L 382.374554 447.777385 
L 377.906238 443.353221 
L 367.924336 444.202038 
z
" clip-path="url(#p0d5efac639)" style="fill: #e8edf4; stroke: #b8c5d4; stroke-width: 0.45"/>
    <path d="M 242.954351 191.257725 
L 245.675922 188.451819 
L 261.386218 188.563936 
L 271.199945 190.25512 
L 274.661687 194.069088 
L 269.743414 198.909971 
L 244.073043 199.473534 
z
" clip-path="url(#p0d5efac639)" style="fill: #e8edf4; stroke: #b8c5d4; stroke-width: 0.45"/>
    <path d="M 29.92475 194.108776 
L 32.228609 189.720331 
L 44.672625 189.029272 
L 57.593883 190.750717 
L 67.794066 195.361909 
L 70.975515 200.61951 
L 57.479781 200.977194 
L 51.647207 204.185928 
L 40.90132 201.10469 
z
" clip-path="url(#p0d5efac639)" style="fill: #e8edf4; stroke: #b8c5d4; stroke-width: 0.45"/>
    <path d="M -97.509332 123.64362 
L -87.374633 117.712323 
L -83.213895 110.78487 
L -74.533246 106.515487 
L -64.727953 102.772956 
L -50.191414 100.935424 
L -45.539543 98.826034 
L -13.871399 100.412542 
L 4.162105 106.953538 
L 11.804429 113.98269 
L 29.738218 111.813768 
L 64.751523 136.876424 
L 71.072254 136.612502 
L 82.52309 140.52817 
L 81.124601 145.933608 
L 95.278156 146.724381 
L 109.790883 154.582506 
L 107.513316 159.080092 
L 94.746343 161.517401 
L 81.823101 162.470893 
L 68.594761 160.951854 
L 41.103726 162.822127 
L 53.974879 152.110967 
L 46.149992 147.123737 
L 33.772949 145.840342 
L 27.138687 140.297983 
L 22.587523 129.363581 
L 11.736961 130.111194 
L -6.166567 124.962733 
L -11.927703 120.935444 
L -36.953153 117.959874 
L -43.654883 114.214862 
L -36.455075 109.417635 
L -55.288282 108.434874 
L -69.084649 118.411815 
L -77.040008 118.679706 
L -79.792336 123.364319 
L -89.29402 125.463788 
z
" clip-path="url(#p0d5efac639)" style="fill: #e8edf4; stroke: #b8c5d4; stroke-width: 0.45"/>
    <path d="M 344.56896 350.31936 
L 350.13696 345.03936 
L 349.75296 337.45536 
L 360.79296 334.95936 
L 364.82496 335.63136 
L 364.05696 349.93536 
L 348.02496 352.04736 
z
" clip-path="url(#p0d5efac639)" style="fill: #e8edf4; stroke: #b8c5d4; stroke-width: 0.45"/>
   </g>
   <g id="PathCollection_1">
    <defs>
     <path id="m209fa5e026" d="M 0 2.12132 
C 0.562581 2.12132 1.102195 1.897805 1.5 1.5 
C 1.897805 1.102195 2.12132 0.562581 2.12132 0 
C 2.12132 -0.562581 1.897805 -1.102195 1.5 -1.5 
C 1.102195 -1.897805 0.562581 -2.12132 0 -2.12132 
C -0.562581 -2.12132 -1.102195 -1.897805 -1.5 -1.5 
C -1.897805 -1.102195 -2.12132 -0.562581 -2.12132 0 
C -2.12132 0.562581 -1.897805 1.102195 -1.5 1.5 
C -1.102195 1.897805 -0.562581 2.12132 0 2.12132 
z
" style="stroke: #ffffff; stroke-width: 0.5"/>
    </defs>
    <g clip-path="url(#p0d5efac639)">
     <use xlink:href="#m209fa5e026" x="347.44896" y="216.68736" style="fill: #8aa0b7; stroke: #ffffff; stroke-width: 0.5"/>
     <use xlink:href="#m209fa5e026" x="321.20896" y="193.64736" style="fill: #8aa0b7; stroke: #ffffff; stroke-width: 0.5"/>
     <use xlink:href="#m209fa5e026" x="190.64896" y="304.04736" style="fill: #8aa0b7; stroke: #ffffff; stroke-width: 0.5"/>
     <use xlink:href="#m209fa5e026" x="390.96896" y="291.24736" style="fill: #8aa0b7; stroke: #ffffff; stroke-width: 0.5"/>
     <use xlink:href="#m209fa5e026" x="327.6096" y="200.36736" style="fill: #8aa0b7; stroke: #ffffff; stroke-width: 0.5"/>
     <use xlink:href="#m209fa5e026" x="223.82976" y="310.22208" style="fill: #8aa0b7; stroke: #ffffff; stroke-width: 0.5"/>
     <use xlink:href="#m209fa5e026" x="74.80896" y="78.44736" style="fill: #8aa0b7; stroke: #ffffff; stroke-width: 0.5"/>
     <use xlink:href="#m209fa5e026" x="209.40096" y="310.39104" style="fill: #8aa0b7; stroke: #ffffff; stroke-width: 0.5"/>
     <use xlink:href="#m209fa5e026" x="356.40896" y="248.04736" style="fill: #8aa0b7; stroke: #ffffff; stroke-width: 0.5"/>
     <use xlink:href="#m209fa5e026" x="350.00896" y="311.40736" style="fill: #8aa0b7; stroke: #ffffff; stroke-width: 0.5"/>
     <use xlink:href="#m209fa5e026" x="351.608966" y="232.04736" style="fill: #8aa0b7; stroke: #ffffff; stroke-width: 0.5"/>
     <use xlink:href="#m209fa5e026" x="143.60896" y="179.24736" style="fill: #8aa0b7; stroke: #ffffff; stroke-width: 0.5"/>
     <use xlink:href="#m209fa5e026" x="46.00896" y="193.64736" style="fill: #8aa0b7; stroke: #ffffff; stroke-width: 0.5"/>
     <use xlink:href="#m209fa5e026" x="329.20896" y="211.24736" style="fill: #8aa0b7; stroke: #ffffff; stroke-width: 0.5"/>
     <use xlink:href="#m209fa5e026" x="363.44896" y="277.48736" style="fill: #8aa0b7; stroke: #ffffff; stroke-width: 0.5"/>
     <use xlink:href="#m209fa5e026" x="323.44704" y="197.088" style="fill: #8aa0b7; stroke: #ffffff; stroke-width: 0.5"/>
     <use xlink:href="#m209fa5e026" x="362.80896" y="262.447354" style="fill: #8aa0b7; stroke: #ffffff; stroke-width: 0.5"/>
     <use xlink:href="#m209fa5e026" x="339.76896" y="222.44736" style="fill: #8aa0b7; stroke: #ffffff; stroke-width: 0.5"/>
     <use xlink:href="#m209fa5e026" x="257.20896" y="193.64736" style="fill: #8aa0b7; stroke: #ffffff; stroke-width: 0.5"/>
     <use xlink:href="#m209fa5e026" x="323.3568" y="197.63136" style="fill: #8aa0b7; stroke: #ffffff; stroke-width: 0.5"/>
     <use xlink:href="#m209fa5e026" x="155.48928" y="127.52256" style="fill: #8aa0b7; stroke: #ffffff; stroke-width: 0.5"/>
     <use xlink:href="#m209fa5e026" x="362.80896" y="332.84736" style="fill: #8aa0b7; stroke: #ffffff; stroke-width: 0.5"/>
     <use xlink:href="#m209fa5e026" x="358.96896" y="289.64736" style="fill: #8aa0b7; stroke: #ffffff; stroke-width: 0.5"/>
     <use xlink:href="#m209fa5e026" x="292.92096" y="190.36992" style="fill: #8aa0b7; stroke: #ffffff; stroke-width: 0.5"/>
     <use xlink:href="#m209fa5e026" x="288" y="192" style="fill: #8aa0b7; stroke: #ffffff; stroke-width: 0.5"/>
    </g>
   </g>
   <g id="PathCollection_2">
    <defs>
     <path id="md4f2c057e5" d="M 0 3.674235 
C 0.974418 3.674235 1.909058 3.287094 2.598076 2.598076 
C 3.287094 1.909058 3.674235 0.974418 3.674235 0 
C 3.674235 -0.974418 3.287094 -1.909058 2.598076 -2.598076 
C 1.909058 -3.287094 0.974418 -3.674235 0 -3.674235 
C -0.974418 -3.674235 -1.909058 -3.287094 -2.598076 -2.598076 
C -3.287094 -1.909058 -3.674235 -0.974418 -3.674235 0 
C -3.674235 0.974418 -3.287094 1.909058 -2.598076 2.598076 
C -1.909058 3.287094 -0.974418 3.674235 0 3.674235 
z
" style="stroke: #ffffff; stroke-width: 1.2"/>
    </defs>
    <g clip-path="url(#p0d5efac639)">
     <use xlink:href="#md4f2c057e5" x="288" y="192" style="fill: #f97316; stroke: #ffffff; stroke-width: 1.2"/>
    </g>
   </g>
   <g id="PathCollection_3">
    <path d="M 288 196.929503 
C 289.307319 196.929503 290.561271 196.410099 291.485685 195.485685 
C 292.410099 194.561271 292.929503 193.307319 292.929503 192 
C 292.929503 190.692681 292.410099 189.438729 291.485685 188.514315 
C 290.561271 187.589901 289.307319 187.070497 288 187.070497 
C 286.692681 187.070497 285.438729 187.589901 284.514315 188.514315 
C 283.589901 189.438729 283.070497 190.692681 283.070497 192 
C 283.070497 193.307319 283.589901 194.561271 284.514315 195.485685 
C 285.438729 196.410099 286.692681 196.929503 288 196.929503 
L 288 196.929503 
z
" clip-path="url(#p0d5efac639)" style="fill: none; stroke: #7c2d12; stroke-width: 1.1"/>
   </g>
  </g>
 </g>
 <defs>
  <clipPath id="p0d5efac639">
   <rect x="0" y="-0" width="576" height="384"/>
  </clipPath>
 </defs>
</svg>
