<?xml version="1.0" encoding="utf-8" standalone="no"?>
<!DOCTYPE svg PUBLIC "-//W3C//DTD SVG 1.1//EN"
  "http://www.w3.org/Graphics/SVG/1.1/DTD/svg11.dtd">
<svg xmlns:xlink="http://www.w3.org/1999/xlink" width="505.44pt" height="432pt" viewBox="0 0 505.44 432" xmlns="http://www.w3.org/2000/svg" version="1.1">
 <metadata>
  <rdf:RDF xmlns:dc="http://purl.org/dc/elements/1.1/" xmlns:cc="http://creativecommons.org/ns#" xmlns:rdf="http://www.w3.org/1999/02/22-rdf-syntax-ns#">
   <cc:Work>
    <dc:type rdf:resource="http://purl.org/dc/dcmitype/StillImage"/>
    <dc:date>2026-06-09T04:57:09.030548</dc:date>
    <dc:format>image/svg+xml</dc:format>
    <dc:creator>
     <cc:Agent>
      <dc:title>Matplotlib v3.10.8, https://matplotlib.org/</dc:title>
     </cc:Agent>
    </dc:creator>
   </cc:Work>
  </rdf:RDF>
 </metadata>
 <defs>
  <style type="text/css">*{stroke-linejoin: round; stroke-linecap: butt}</style>
 </defs>
 <g id="figure_1">
  <g id="patch_1">
   <path d="M 0 432 
L 505.44 432 
L 505.44 0 
L 0 0 
z
" style="fill: #eaf3ff"/>
  </g>
  <g id="axes_1">
   <g id="PatchCollection_1">
    <path d="M -465.205069 90.183396 
L -462.119862 87.898326 
L -464.25492 81.183096 
L -459.131765 77.034059 
L -460.215936 75.777336 
L -452.03256 71.79804 
L -459.576 68.374656 
L -437.472064 55.024612 
L -434.764136 51.35265 
L -445.421719 46.419742 
L -442.47827 41.727935 
L -448.960107 36.369565 
L -444.11292 30.196944 
L -452.486962 22.001139 
L -445.84253 16.572261 
L -456.869206 11.774787 
L -455.818107 6.733606 
L -450.00324 6.070176 
L -437.752224 3.181608 
L -430.324416 0.67716 
L -418.496616 5.029776 
L -398.779488 6.743376 
L -371.575152 14.88672 
L -366.048936 18.308664 
L -365.57316 23.100624 
L -373.566024 26.883504 
L -385.32276 28.803384 
L -417.465288 23.330808 
L -422.752032 24.245784 
L -411.013656 29.51892 
L -410.083848 40.216536 
L -395.188344 44.281224 
L -394.257816 40.790088 
L -398.595031 37.695888 
L -394.012512 34.968816 
L -376.60716 39.450312 
L -370.54368 37.695888 
L -375.38928 32.422896 
L -358.609752 25.371144 
L -351.964512 25.786224 
L -345.2418 28.302624 
L -341.047728 23.354352 
L -347.051592 19.06236 
L -343.52676 14.756328 
L -348.819696 10.290312 
L -328.68 12.6 
L -324.566352 16.632216 
L -333.682776 17.521056 
L -333.633456 21.52764 
L -327.96612 23.992776 
L -316.842048 22.43124 
L -315.080928 17.838864 
L -274.914504 8.226864 
L -269.483688 8.58132 
L -276.582096 12.950568 
L -267.650784 13.701456 
L -262.492704 11.241648 
L -248.997456 11.042784 
L -238.3056 8.058096 
L -230.101776 12.395232 
L -221.919552 7.627032 
L -229.464 3.456 
L -225.72 1.08 
L -204.4512 3.258792 
L -194.485572 5.509188 
L -168.392448 13.735224 
L -163.579104 9.967464 
L -170.896032 6.160608 
L -171.106416 4.633272 
L -179.783424 3.926808 
L -177.409728 0.513144 
L -181.260576 -5.104008 
L -181.478448 -7.408584 
L -168.191568 -13.9284 
L -163.466208 -20.472192 
L -158.112 -21.888 
L -139.049712 -19.989288 
L -137.548584 -15.984432 
L -144.373608 -10.144656 
L -139.895208 -7.849368 
L -137.578464 -2.816208 
L -139.21416 7.04988 
L -131.271336 11.46312 
L -134.36136 16.26912 
L -148.464 26.496 
L -140.234328 27.556776 
L -137.370456 24.964776 
L -129.448872 23.115888 
L -127.537128 19.553112 
L -121.3056 16.124616 
L -125.501328 12.031272 
L -122.141952 7.277904 
L -130.015008 6.685488 
L -131.746536 2.681064 
L -126.00144 -4.5486 
L -135.35208 -10.419624 
L -122.466096 -15.272568 
L -124.133328 -20.392344 
L -120.542328 -20.555784 
L -116.758728 -16.564032 
L -119.599344 -9.616032 
L -111.894408 -8.300664 
L -115.177464 -13.492872 
L -103.12812 -16.323624 
L -88.185456 -16.704792 
L -74.88 -12.6 
L -81.282888 -18.59652 
L -82.000152 -26.26704 
L -69.48 -27.72 
L -52.162128 -27.402552 
L -36.55944 -28.345536 
L -42.411168 -32.109624 
L -34.078896 -36.838296 
L -25.806888 -37.036296 
L -11.808 -40.608 
L 7.204176 -41.567976 
L 9.606312 -43.53984 
L 28.512 -44.208 
L 34.403112 -42.591456 
L 50.562288 -46.417608 
L 63.789624 -46.298016 
L 65.774304 -49.405608 
L 72.654048 -52.470288 
L 89.65152 -55.425024 
L 101.999808 -53.092008 
L 92.196 -51.31728 
L 108.504936 -50.214168 
L 110.448 -46.656 
L 117.02736 -48.40812 
L 138.076272 -48.312 
L 154.306872 -44.800128 
L 160.086024 -42.103008 
L 158.294808 -38.360088 
L 131.409 -32.232456 
L 126 -30.096 
L 145.578168 -27.271728 
L 152.060688 -28.633896 
L 155.732976 -24.01236 
L 158.895432 -25.883136 
L 170.408304 -27.02052 
L 193.509576 -25.831584 
L 195.264 -22.464 
L 225.364752 -21.392784 
L 225.775944 -26.892216 
L 241.056 -25.632 
L 252.550368 -25.671528 
L 264.177072 -21.878712 
L 267.491304 -17.270784 
L 263.232 -14.256 
L 272.275128 -8.589888 
L 283.597776 -5.666328 
L 290.5452 -13.22136 
L 302.095152 -9.982224 
L 314.365896 -11.9178 
L 328.30236 -9.702936 
L 333.605448 -11.721816 
L 345.382776 -10.712376 
L 340.184952 -17.396568 
L 349.690824 -20.515752 
L 414.72 -15.84 
L 420.848496 -11.566296 
L 439.69608 -6.063984 
L 468.769536 -7.426152 
L 483.104088 -6.240384 
L 489.098232 -3.263328 
L 488.222352 2.001744 
L 497.091816 4.051584 
L 506.729304 2.577312 
L 519.497856 2.388744 
L 533.090664 3.801672 
L 546.736824 3.004632 
L 559.278936 9.40464 
L 568.201536 7.101864 
L 562.37904 2.500128 
L 565.58484 -0.698616 
L 588.556152 1.314504 
L 603.533016 0.8838 
L 624.24 4.32 
L 634.32 7.461818 
L 634.32 36.146097 
L 625.01184 39.348504 
L 615.681216 38.820888 
L 622.1736 42.653304 
L 626.4594 48.585816 
L 629.786448 50.525136 
L 630.621792 53.503632 
L 628.7634 55.41048 
L 615.34296 53.84232 
L 595.218888 59.26212 
L 588.816936 60.101208 
L 567.3492 69.579504 
L 564.70212 72.851256 
L 554.403312 67.87044 
L 535.643856 73.52244 
L 532.368 70.848 
L 525.432528 73.93248 
L 515.802888 72.945288 
L 513.483192 77.680728 
L 504.844776 84.648384 
L 505.101384 87.558336 
L 513.301752 89.171784 
L 512.337168 99.653472 
L 505.652976 99.920232 
L 502.570512 105.943104 
L 505.565928 109.042992 
L 492.975144 112.720824 
L 490.476456 120.941496 
L 479.742768 122.697504 
L 477.584496 130.012632 
L 467.206488 136.72044 
L 464.544 131.76 
L 457.442352 105.256584 
L 460.903824 95.270976 
L 466.97868 90.97416 
L 467.35452 87.609312 
L 478.543176 85.9986 
L 491.404608 76.933656 
L 503.798688 69.5304 
L 516.741768 63.78552 
L 522.52956 53.635608 
L 513.780624 54.242856 
L 509.456952 60.174 
L 491.194656 68.081544 
L 485.296704 59.227488 
L 466.708896 61.672176 
L 448.690032 73.741104 
L 454.635 78.15636 
L 427.433256 80.777592 
L 427.95468 75.571488 
L 416.762712 74.478744 
L 407.842632 78.015744 
L 385.827984 76.778136 
L 362.144304 78.912144 
L 311.228568 109.946952 
L 322.572312 110.85444 
L 326.112624 115.363296 
L 333.10584 116.963928 
L 337.713336 113.36724 
L 345.610872 113.834304 
L 356.006232 121.755096 
L 356.250456 127.880856 
L 350.621424 135.074376 
L 350.014176 143.672184 
L 346.765896 155.183688 
L 335.913984 165.60252 
L 333.501912 170.58276 
L 309.379608 191.532888 
L 299.785464 195.757416 
L 295.245144 195.850872 
L 290.722104 192.351168 
L 281.058264 197.620272 
L 279.936 200.016 
L 278.928 198.756 
L 278.883838 195.098295 
L 282.561753 194.904074 
L 283.597597 186.397058 
L 281.701368 180.230688 
L 287.88087 177.687636 
L 296.619264 178.962552 
L 301.461437 171.958126 
L 303.92892 164.070144 
L 306.725832 161.43516 
L 310.509443 154.956745 
L 298.60989 157.07922 
L 292.368168 159.919488 
L 281.428272 159.911064 
L 278.512512 153.146251 
L 269.984288 148.027679 
L 257.45328 145.726056 
L 254.789681 138.67346 
L 245.133712 123.89185 
L 238.811121 121.240477 
L 228.034584 119.09664 
L 218.489385 119.291573 
L 209.54221 120.589912 
L 203.595038 124.172019 
L 207.545681 125.883171 
L 207.63504 129.858408 
L 203.630976 132.16644 
L 197.131608 139.802976 
L 197.196917 142.971244 
L 187.05056 147.52092 
L 178.407366 144.802574 
L 169.817007 145.402723 
L 166.047191 142.990219 
L 161.729687 142.21222 
L 151.183726 147.286329 
L 141.704863 148.478629 
L 135.086476 150.263078 
L 126.017634 149.090684 
L 119.341204 149.165656 
L 114.970866 145.485323 
L 107.91939 142.025069 
L 100.703458 141.076662 
L 84.791127 143.352244 
L 74.562408 140.323968 
L 73.189512 134.928648 
L 58.188472 132.235155 
L 50.122732 129.258965 
L 42.665326 136.720835 
L 45.588683 140.958716 
L 38.590272 145.97244 
L 28.180944 144.162288 
L 20.994835 143.90328 
L 16.182478 140.540136 
L 8.670312 140.433912 
L 2.409923 138.224371 
L -8.541594 141.610955 
L -22.279919 147.812251 
L -32.688214 149.652138 
L -36.508632 145.247942 
L -45.782856 146.211418 
L -48.847971 143.155419 
L -53.882083 141.757923 
L -57.347174 137.597432 
L -61.322373 136.301883 
L -71.668904 138.152189 
L -81.587182 134.003977 
L -85.423971 137.773794 
L -101.513408 119.488212 
L -110.698708 113.925575 
L -108.064078 111.668224 
L -126.109296 118.46268 
L -133.015113 118.873366 
L -132.418684 114.943559 
L -141.66612 112.488081 
L -149.183056 114.240346 
L -151.450081 106.777918 
L -164.389198 105.226199 
L -170.862477 108.213179 
L -188.878536 110.871 
L -192.394558 112.64956 
L -219.33648 115.155 
L -222.637922 117.612048 
L -217.440099 122.544026 
L -224.35205 124.416097 
L -223.003667 126.377652 
L -229.913757 129.884973 
L -218.246376 134.836857 
L -220.050545 138.246695 
L -230.163788 137.936202 
L -232.255567 140.072816 
L -241.464096 136.341792 
L -252.878544 136.48644 
L -260.518032 139.523688 
L -284.91319 131.625704 
L -296.160132 131.812111 
L -311.022852 139.643075 
L -311.919542 144.901731 
L -319.323741 140.726172 
L -325.068507 148.636758 
L -322.965565 150.10532 
L -327.121591 155.562103 
L -321.010272 160.44588 
L -315.6678 160.244856 
L -311.077919 165.055477 
L -311.8086 168.760512 
L -308.151648 169.924824 
L -311.433048 174.194712 
L -318.413448 175.381272 
L -325.569528 182.81376 
L -319.025232 189.646848 
L -319.733856 194.496624 
L -311.872536 202.976064 
L -316.171561 205.878102 
L -317.407207 207.709804 
L -320.592129 207.217927 
L -325.540292 202.844613 
L -332.08992 200.934432 
L -334.29399 197.979979 
L -341.009115 196.473653 
L -345.375288 197.604288 
L -346.636872 196.266024 
L -356.44032 192.81384 
L -373.125852 190.41765 
L -374.003938 191.268017 
L -383.184 185.184 
L -391.398336 182.468088 
L -397.616688 178.238232 
L -392.377176 177.087528 
L -386.40276 171.065736 
L -390.429216 168.216696 
L -379.816776 165.2778 
L -380.00736 163.703808 
L -386.470526 164.864233 
L -386.243191 161.665917 
L -382.531896 159.655536 
L -375.564401 159.127653 
L -374.431536 156.726648 
L -376.02252 152.756496 
L -373.098319 148.986505 
L -373.182912 146.87244 
L -383.796085 144.529474 
L -388.003456 144.607237 
L -392.447092 141.235536 
L -397.971592 142.375745 
L -407.115964 139.844179 
L -406.959048 138.427632 
L -409.520282 135.305479 
L -415.261327 134.956849 
L -415.857756 132.721823 
L -414.05954 131.264051 
L -418.660561 127.187463 
L -426.126524 127.883049 
L -428.313181 127.521396 
L -430.132032 129.159 
L -432.821016 128.867904 
L -434.591868 124.257223 
L -436.282555 121.86723 
L -434.896992 121.194504 
L -429.08746 121.444372 
L -426.28577 119.86977 
L -428.35969 117.950073 
L -433.214836 116.682988 
L -432.781746 115.382602 
L -435.7118 114.069194 
L -440.225757 109.355249 
L -438.682781 107.412856 
L -439.387854 104.032969 
L -446.42668 102.315865 
L -450.204682 103.175347 
L -451.227504 101.387922 
L -458.807692 99.582264 
L -461.121969 95.332849 
L -461.735885 91.841342 
z
" clip-path="url(#p7f163f98c7)" style="fill: #e8edf4; stroke: #b8c5d4; stroke-width: 0.45"/>
    <path d="M -291.198574 -14.507144 
L -283.836419 -16.05198 
L -284.081985 -19.978066 
L -269.801182 -26.118342 
L -276.420313 -26.99866 
L -259.182296 -33.317903 
L -261.130084 -36.586168 
L -245.025764 -40.387611 
L -221.25568 -45.013561 
L -197.291748 -46.3612 
L -184.960966 -49.030432 
L -170.94917 -49.965817 
L -165.94408 -47.122641 
L -170.779878 -44.88222 
L -218.278746 -37.878368 
L -240.645009 -31.025205 
L -262.660781 -17.073127 
L -261.195568 -11.092283 
L -247.423013 -5.187341 
L -251.676149 -4.555751 
L -275.202899 -5.491136 
L -277.11348 -8.687964 
L -290.146359 -10.618265 
z
" clip-path="url(#p7f163f98c7)" style="fill: #e8edf4; stroke: #b8c5d4; stroke-width: 0.45"/>
    <path d="M -1957.68 36.146097 
L -1957.68 7.461818 
L -1940.04 12.96 
L -1921.1634 20.117592 
L -1921.7826 24.59268 
L -1916.926776 26.383968 
L -1918.597104 21.152232 
L -1899.052632 22.225824 
L -1884.956976 28.963872 
L -1892.095704 32.101992 
L -1903.8978 32.847048 
L -1904.076 39.882312 
L -1906.958376 41.380632 
L -1913.701248 41.16528 
L -1919.188224 38.655 
L -1928.761416 36.555264 
L -1930.371552 33.431976 
L -1937.683152 32.254272 
L -1945.871496 33.188256 
L -1949.783904 30.668832 
L -1948.219992 27.992808 
L -1956.843144 29.703168 
L -1953.595296 33.090408 
z
" clip-path="url(#p7f163f98c7)" style="fill: #e8edf4; stroke: #b8c5d4; stroke-width: 0.45"/>
    <path d="M 357.797347 130.064869 
L 358.434331 120.225842 
L 365.089925 116.912555 
L 362.230193 113.576573 
L 365.434462 112.565658 
L 369.798103 124.266525 
L 369.613928 131.352046 
L 372.585654 138.617277 
L 379.829863 151.369987 
L 369.172281 148.99283 
L 364.742411 159.39666 
L 371.761146 166.775558 
L 371.557995 171.807065 
L 366.103445 167.466493 
L 361.382616 173.039362 
L 360.049861 166.997312 
L 360.852788 159.983043 
L 360.032001 152.213842 
L 361.69776 146.770826 
L 362.01588 137.143134 
z
" clip-path="url(#p7f163f98c7)" style="fill: #e8edf4; stroke: #b8c5d4; stroke-width: 0.45"/>
    <path d="M -428.009944 177.642244 
L -426.738208 176.261863 
L -419.845233 173.868707 
L -420.940886 173.002195 
L -419.043875 171.219076 
L -411.609475 173.047207 
L -410.675097 174.469086 
L -409.588855 174.688379 
L -409.530328 175.311223 
L -406.007938 177.048048 
L -398.664014 176.616074 
L -400.070068 179.184847 
L -407.952006 180.432027 
L -417.725921 184.597354 
L -421.729769 183.132885 
L -420.142145 179.74965 
z
" clip-path="url(#p7f163f98c7)" style="fill: #e8edf4; stroke: #b8c5d4; stroke-width: 0.45"/>
    <path d="M -338.781902 -76.246631 
L -324.726202 -77.557807 
L -313.786963 -77.644871 
L -312.315797 -75.704897 
L -308.180235 -77.428699 
L -301.393673 -78.615975 
L -290.714883 -77.038025 
L -293.499457 -75.940417 
L -309.640239 -74.444881 
L -310.644457 -73.263371 
L -319.059943 -72.073304 
L -326.859653 -73.780177 
L -322.758322 -76.027854 
z
" clip-path="url(#p7f163f98c7)" style="fill: #e8edf4; stroke: #b8c5d4; stroke-width: 0.45"/>
    <path d="M -5.176296 -74.458512 
L 13.519152 -79.37712 
L 29.094444 -81.00288 
L 43.08372 -77.37822 
L 59.663916 -70.416972 
L 57.886272 -63.942768 
L 42.177168 -63.04464 
L 22.122648 -65.122164 
L 10.172736 -67.8708 
L 4.64688 -73.035288 
z
" clip-path="url(#p7f163f98c7)" style="fill: #e8edf4; stroke: #b8c5d4; stroke-width: 0.45"/>
    <path d="M 324.535608 -37.884024 
L 328.404672 -42.834024 
L 337.90374 -44.184672 
L 356.915628 -43.868808 
L 382.941252 -40.0509 
L 377.28 -34.704 
L 350.739432 -34.903296 
L 338.799168 -33.202656 
z
" clip-path="url(#p7f163f98c7)" style="fill: #e8edf4; stroke: #b8c5d4; stroke-width: 0.45"/>
    <path d="M -520.123391 112.132196 
L -518.482933 108.963645 
L -508.547168 106.628532 
L -501.006791 107.88985 
L -497.824101 109.032664 
L -498.592427 111.004265 
L -498.01609 112.841734 
L -511.25584 112.949821 
z
" clip-path="url(#p7f163f98c7)" style="fill: #e8edf4; stroke: #b8c5d4; stroke-width: 0.45"/>
    <path d="M 345.334464 -24.262776 
L 352.164312 -27.108432 
L 361.166904 -27.774576 
L 371.396376 -25.0218 
L 372.26772 -23.129568 
L 361.350936 -23.079168 
z
" clip-path="url(#p7f163f98c7)" style="fill: #e8edf4; stroke: #b8c5d4; stroke-width: 0.45"/>
    <path d="M 54.274608 -57.0312 
L 67.42728 -66.484728 
L 73.34172 -67.294152 
L 78.752268 -66.825288 
L 97.001496 -62.736048 
L 94.863384 -59.809608 
z
" clip-path="url(#p7f163f98c7)" style="fill: #e8edf4; stroke: #b8c5d4; stroke-width: 0.45"/>
    <path d="M -1957.68 -5.991834 
L -1957.68 -10.913143 
L -1950.655176 -11.199816 
L -1940.241204 -9.140256 
L -1940.85774 -8.155944 
L -1948.275216 -6.429744 
z
" clip-path="url(#p7f163f98c7)" style="fill: #e8edf4; stroke: #b8c5d4; stroke-width: 0.45"/>
    <path d="M 390.378168 -37.245456 
L 392.101092 -39.577104 
L 423.588024 -36.605232 
L 415.26666 -33.760224 
L 403.757748 -34.404156 
z
" clip-path="url(#p7f163f98c7)" style="fill: #e8edf4; stroke: #b8c5d4; stroke-width: 0.45"/>
    <path d="M 625.14216 -7.91136 
L 634.32 -10.913143 
L 634.32 -5.991834 
L 626.42466 -5.624208 
z
" clip-path="url(#p7f163f98c7)" style="fill: #e8edf4; stroke: #b8c5d4; stroke-width: 0.45"/>
    <path d="M 75.226316 407.561419 
L 79.836639 401.574808 
L 89.14621 400.19945 
L 95.895194 401.232875 
L 101.836412 404.056145 
L 105.093888 399.091797 
L 111.475638 401.742425 
L 113.144745 406.544179 
L 112.258102 415.172117 
L 100.155771 420.713175 
L 103.317624 425.074955 
L 95.759388 425.596969 
L 89.52721 428.496885 
L 83.500415 427.445601 
L 80.572966 423.693644 
L 76.931514 416.256516 
z
" clip-path="url(#p7f163f98c7)" style="fill: #e8edf4; stroke: #b8c5d4; stroke-width: 0.45"/>
    <path d="M 39.426454 371.192848 
L 42.464036 369.885021 
L 45.746813 362.100938 
L 50.829665 361.778539 
L 55.031827 358.656497 
L 59.155111 356.991483 
L 62.271944 359.213487 
L 62.685314 363.53992 
L 67.550505 363.869388 
L 65.778706 371.455716 
L 65.948742 377.91002 
L 73.537861 373.614468 
L 75.693636 374.883972 
L 79.910681 374.675799 
L 81.361383 372.170649 
L 86.806632 372.665131 
L 92.282019 378.512216 
L 92.731108 385.618572 
L 98.561077 391.893724 
L 98.239237 397.987678 
L 95.895194 401.232875 
L 89.14621 400.19945 
L 79.836639 401.574808 
L 75.226316 407.561419 
L 76.931514 416.256516 
L 70.467536 412.950672 
L 64.309029 413.084989 
L 65.364964 407.428404 
L 59.024142 407.470634 
L 58.454874 415.389592 
L 52.227161 432.265958 
L 52.721271 437.477361 
L 57.411589 437.703393 
L 60.333457 444.274899 
L 61.626774 450.507077 
L 65.644761 454.630546 
L 70.006169 455.467518 
L 73.736546 459.20422 
L 71.382829 462.162179 
L 66.630375 463.022034 
L 66.063712 459.324957 
L 60.189094 456.171661 
L 58.937449 457.455676 
L 56.092972 454.692868 
L 54.861419 451.127132 
L 47.547261 443.647403 
L 46.365566 447.879516 
L 45.000068 443.879946 
L 47.905565 432.482689 
L 51.394468 425.084071 
L 55.348459 418.372108 
L 52.533747 411.805811 
L 52.646485 408.461085 
L 51.823837 404.441982 
L 47.021898 398.721401 
L 45.302933 395.109342 
L 47.789107 393.778819 
L 50.424109 387.519666 
L 47.475079 382.767584 
L 42.905684 377.510788 
z
" clip-path="url(#p7f163f98c7)" style="fill: #e8edf4; stroke: #b8c5d4; stroke-width: 0.45"/>
    <path d="M 59.155111 356.991483 
L 60.689529 354.339924 
L 66.816038 349.656675 
L 67.464185 351.348106 
L 71.302462 351.544559 
L 70.214529 343.308969 
L 73.947138 342.253778 
L 78.155253 347.939012 
L 81.3878 354.480752 
L 90.252003 354.537121 
L 93.042531 360.816179 
L 88.440393 362.70239 
L 86.375031 365.290697 
L 95.001109 369.597783 
L 105.523257 384.449155 
L 110.971483 389.458524 
L 112.784581 394.544353 
L 111.475638 401.742425 
L 105.093888 399.091797 
L 101.836412 404.056145 
L 95.895194 401.232875 
L 98.239237 397.987678 
L 98.561077 391.893724 
L 92.731108 385.618572 
L 92.282019 378.512216 
L 86.806632 372.665131 
L 81.361383 372.170649 
L 79.910681 374.675799 
L 75.693636 374.883972 
L 73.537861 373.614468 
L 65.948742 377.91002 
L 65.778706 371.455716 
L 67.550505 363.869388 
L 62.685314 363.53992 
L 62.271944 359.213487 
z
" clip-path="url(#p7f163f98c7)" style="fill: #e8edf4; stroke: #b8c5d4; stroke-width: 0.45"/>
    <path d="M 2.903288 349.376506 
L 5.416251 350.466858 
L 5.563591 345.30308 
L 9.116118 343.595091 
L 8.354118 340.537603 
L 9.981554 338.08566 
L 10.261351 330.634394 
L 15.888542 332.274666 
L 19.099137 326.338284 
L 19.463394 322.830033 
L 23.437105 316.790588 
L 23.218327 312.670281 
L 32.539433 307.694957 
L 37.684793 308.996831 
L 37.094318 304.566776 
L 39.618443 303.24574 
L 39.07522 300.516604 
L 43.286312 299.981195 
L 45.692863 304.220006 
L 48.835368 305.936552 
L 48.757234 317.385342 
L 41.937185 323.397812 
L 41.073982 331.938686 
L 48.67389 330.744341 
L 50.390994 337.372401 
L 54.950344 338.766921 
L 52.854472 344.748137 
L 61.319072 348.776356 
L 66.600238 346.680112 
L 66.816038 349.656675 
L 60.689529 354.339924 
L 59.155111 356.991483 
L 55.031827 358.656497 
L 50.829665 361.778539 
L 45.746813 362.100938 
L 42.464036 369.885021 
L 39.426454 371.192848 
L 42.905684 377.510788 
L 47.475079 382.767584 
L 50.424109 387.519666 
L 47.789107 393.778819 
L 45.302933 395.109342 
L 47.021898 398.721401 
L 51.823837 404.441982 
L 52.646485 408.461085 
L 52.533747 411.805811 
L 55.348459 418.372108 
L 51.394468 425.084071 
L 47.905565 432.482689 
L 47.211654 427.138085 
L 49.424728 421.6227 
L 47.004038 417.362495 
L 47.588933 409.518881 
L 44.665948 405.78869 
L 42.319673 397.171542 
L 41.018915 388.075911 
L 37.904687 382.113112 
L 24.979336 390.856392 
L 20.940513 390.215129 
L 16.47939 388.52686 
L 18.961099 379.60387 
L 17.458679 372.8627 
L 11.815116 364.561253 
L 12.695435 361.965877 
L 8.483599 361.042956 
L 3.373585 355.16964 
z
" clip-path="url(#p7f163f98c7)" style="fill: #e8edf4; stroke: #b8c5d4; stroke-width: 0.45"/>
    <path d="M 73.947138 342.253778 
L 77.810344 340.496675 
L 83.552505 340.532952 
L 90.55338 339.702119 
L 96.690308 335.865144 
L 100.16098 338.566375 
L 106.742904 339.881271 
L 105.604368 344.028925 
L 109.032624 346.954328 
L 116.281298 348.822865 
L 106.66849 354.982675 
L 100.668112 361.785237 
L 99.086441 366.781211 
L 111.326066 383.778313 
L 117.860365 388.225855 
L 122.235167 394.007828 
L 125.533943 407.332596 
L 124.560979 419.998613 
L 118.556136 424.740092 
L 110.310686 429.375716 
L 104.436812 435.377954 
L 95.459499 442.081731 
L 92.845333 437.464524 
L 94.868652 432.586868 
L 89.52721 428.496885 
L 95.759388 425.596969 
L 103.317624 425.074955 
L 100.155771 420.713175 
L 112.258102 415.172117 
L 113.144745 406.544179 
L 111.475638 401.742425 
L 112.784581 394.544353 
L 110.971483 389.458524 
L 105.523257 384.449155 
L 95.001109 369.597783 
L 86.375031 365.290697 
L 88.440393 362.70239 
L 93.042531 360.816179 
L 90.252003 354.537121 
L 81.3878 354.480752 
L 78.155253 347.939012 
z
" clip-path="url(#p7f163f98c7)" style="fill: #e8edf4; stroke: #b8c5d4; stroke-width: 0.45"/>
    <path d="M 233.032497 216.514848 
L 238.895581 211.897269 
L 246.830725 208.02718 
L 251.7774 202.920701 
L 255.195238 205.177307 
L 261.420718 205.439245 
L 260.295949 201.641151 
L 271.416015 198.540131 
L 274.278724 194.505215 
L 279.935945 200.015931 
L 277.20022 199.583974 
L 271.925007 204.472048 
L 272.197363 209.643639 
L 268.474427 211.234984 
L 264.480252 214.633102 
L 259.685382 215.81703 
L 256.560736 217.750679 
L 256.335261 220.867698 
L 255.495126 221.662999 
L 258.360068 222.833532 
L 262.437958 225.991851 
L 261.40137 227.73314 
L 253.247822 228.555973 
L 250.442783 231.805635 
L 247.22884 231.549279 
L 246.778263 232.202262 
L 243.281546 230.831927 
L 242.412762 232.184961 
L 240.302379 232.782692 
L 240.048627 231.427984 
L 236.247557 229.619908 
L 238.219157 226.450986 
L 239.918031 225.605828 
L 239.276581 224.290373 
L 241.103447 220.406703 
L 240.632033 219.230031 
L 236.429871 218.445521 
z
" clip-path="url(#p7f163f98c7)" style="fill: #e8edf4; stroke: #b8c5d4; stroke-width: 0.45"/>
    <path d="M 279.936026 200.015944 
L 279.936035 200.015925 
L 279.936053 200.015948 
z
" clip-path="url(#p7f163f98c7)" style="fill: #e8edf4; stroke: #b8c5d4; stroke-width: 0.45"/>
    <path d="M 246.365265 239.57651 
L 251.713031 238.363747 
L 246.778263 232.202262 
L 247.22884 231.549279 
L 250.442783 231.805635 
L 253.247822 228.555973 
L 261.40137 227.73314 
L 262.437958 225.991851 
L 268.653021 234.486774 
L 270.435238 239.153838 
L 270.491792 247.448588 
L 267.777911 251.406113 
L 261.258123 252.789285 
L 255.50294 255.775149 
L 249.017382 256.39167 
L 248.212222 252.471165 
L 249.546466 247.071308 
z
" clip-path="url(#p7f163f98c7)" style="fill: #e8edf4; stroke: #b8c5d4; stroke-width: 0.45"/>
    <path d="M -29.870897 149.060175 
L -22.279919 147.812251 
L -8.541594 141.610955 
L 2.409923 138.224371 
L 8.670312 140.433912 
L 16.182478 140.540136 
L 20.994835 143.90328 
L 28.180944 144.162288 
L 38.590272 145.97244 
L 45.588683 140.958716 
L 42.665326 136.720835 
L 50.122732 129.258965 
L 58.188472 132.235155 
L 73.189512 134.928648 
L 74.562408 140.323968 
L 84.791127 143.352244 
L 100.703458 141.076662 
L 107.91939 142.025069 
L 114.970866 145.485323 
L 119.341204 149.165656 
L 126.017634 149.090684 
L 135.086476 150.263078 
L 141.704863 148.478629 
L 151.183726 147.286329 
L 161.729687 142.21222 
L 166.047191 142.990219 
L 169.817007 145.402723 
L 178.407366 144.802574 
L 169.814031 157.425245 
L 171.668429 160.36888 
L 175.744459 159.455447 
L 182.847654 160.576495 
L 188.381827 157.919541 
L 194.159335 160.221168 
L 200.684332 165.253977 
L 199.895543 167.812704 
L 194.215146 167.001033 
L 183.756249 167.956323 
L 178.688652 170.004943 
L 173.412695 174.763908 
L 162.434388 177.553319 
L 155.260128 181.375969 
L 143.807804 179.265029 
L 140.028314 183.90642 
L 142.327708 186.673134 
L 143.493032 189.049548 
L 138.453712 191.470795 
L 133.287144 195.327118 
L 124.87389 197.859987 
L 114.082363 198.133086 
L 102.451073 200.632841 
L 94.067956 204.498651 
L 90.88043 202.259904 
L 82.168404 202.266229 
L 71.517891 197.892915 
L 64.410232 196.820608 
L 54.833886 197.822221 
L 39.972654 196.207994 
L 32.03565 196.375426 
L 27.809675 192.099966 
L 24.529503 185.462418 
L 20.080286 184.663211 
L 11.381282 180.176601 
L -6.872115 177.940272 
L -9.462469 174.818044 
L -6.690173 166.405348 
L -11.658055 160.606446 
L -21.929056 157.902612 
L -27.980408 154.083868 
z
" clip-path="url(#p7f163f98c7)" style="fill: #e8edf4; stroke: #b8c5d4; stroke-width: 0.45"/>
    <path d="M -170.808155 333.417852 
L -166.013285 328.614238 
L -150.168671 328.633028 
L -151.598165 322.451265 
L -155.643313 318.799953 
L -156.463728 313.258524 
L -161.176371 310.025047 
L -153.241227 302.477787 
L -144.880807 303.025102 
L -137.348988 295.47654 
L -132.835403 288.169823 
L -125.846062 280.945334 
L -125.957311 275.812996 
L -119.817779 271.648041 
L -125.628773 268.092723 
L -130.680372 256.912568 
L -127.150541 253.808013 
L -116.229161 255.564557 
L -108.203604 254.494483 
L -101.250354 248.443132 
L -93.511664 256.882058 
L -94.240177 262.755374 
L -91.37598 266.440359 
L -91.611873 270.116785 
L -96.779185 269.149217 
L -94.75996 277.085476 
L -87.686159 281.644454 
L -77.678956 286.678937 
L -82.247607 289.94497 
L -85.043344 296.679815 
L -61.889408 306.975559 
L -52.019871 307.908711 
L -47.867194 311.571371 
L -33.642202 313.935134 
L -27.646289 313.814769 
L -26.821409 310.965083 
L -27.769444 306.390106 
L -27.212827 303.2889 
L -22.821653 301.774574 
L -22.063374 308.887442 
L -15.519401 311.620299 
L -10.992422 310.494786 
L 0.961081 310.764165 
L 1.466725 306.341179 
L -1.464073 304.043459 
L 4.342456 303.14249 
L 10.896103 297.787468 
L 19.195131 293.202446 
L 25.234576 294.97164 
L 30.367286 291.939825 
L 33.743452 296.416947 
L 31.311601 299.440577 
L 39.07522 300.516604 
L 39.618443 303.24574 
L 37.094318 304.566776 
L 37.684793 308.996831 
L 32.539433 307.694957 
L 23.218327 312.670281 
L 23.437105 316.790588 
L 19.463394 322.830033 
L 19.099137 326.338284 
L 15.888542 332.274666 
L 10.261351 330.634394 
L 9.981554 338.08566 
L 8.354118 340.537603 
L 9.116118 343.595091 
L 5.563591 345.30308 
L 1.77145 333.882009 
L -0.216521 333.904706 
L -1.39338 338.506099 
L -5.335465 334.774606 
L -3.112344 330.676996 
L 0.108668 330.261021 
L 3.428652 324.167812 
L -0.722909 322.938491 
L -7.400083 323.045276 
L -14.251013 322.057801 
L -14.886137 317.051409 
L -18.323323 316.696268 
L -24.026045 313.585016 
L -26.569517 318.469927 
L -21.372811 322.281415 
L -25.874118 324.964228 
L -27.47216 327.588068 
L -23.04043 329.517253 
L -24.265658 333.855779 
L -21.770554 339.270146 
L -20.649879 345.1989 
L -21.680885 347.827763 
L -26.578819 347.737164 
L -35.454928 349.231956 
L -35.041186 354.648184 
L -38.884673 358.908203 
L -49.246087 363.754233 
L -57.304758 372.225529 
L -62.717636 376.767206 
L -69.891896 381.48022 
L -69.903058 384.792018 
L -79.977606 389.145799 
L -83.34075 389.525869 
L -85.499502 395.017813 
L -83.618686 410.354923 
L -86.669663 417.19525 
L -86.702405 429.427619 
L -90.428317 429.776249 
L -93.705512 435.267821 
L -91.514018 437.640885 
L -98.078827 439.682063 
L -100.503609 444.578695 
L -103.392735 446.64815 
L -110.210552 439.925211 
L -116.305435 422.580595 
L -118.828072 419.175036 
L -122.653327 412.258063 
L -125.684212 398.756003 
L -132.233765 388.867304 
L -137.369452 365.700718 
L -137.343779 356.979576 
L -138.740159 350.236732 
L -149.218031 354.546423 
L -154.292698 353.683219 
L -163.698263 344.957054 
L -160.236521 342.354423 
L -162.362903 339.529107 
z
" clip-path="url(#p7f163f98c7)" style="fill: #e8edf4; stroke: #b8c5d4; stroke-width: 0.45"/>
    <path d="M -27.47216 327.588068 
L -25.874118 324.964228 
L -21.372811 322.281415 
L -26.569517 318.469927 
L -24.026045 313.585016 
L -18.323323 316.696268 
L -14.886137 317.051409 
L -14.251013 322.057801 
L -7.400083 323.045276 
L -0.722909 322.938491 
L 3.428652 324.167812 
L 0.108668 330.261021 
L -3.112344 330.676996 
L -5.335465 334.774606 
L -1.39338 338.506099 
L -0.216521 333.904706 
L 1.77145 333.882009 
L 5.563591 345.30308 
L 5.416251 350.466858 
L 2.903288 349.376506 
L 3.373585 355.16964 
L 1.316781 351.416195 
L 0.90155 347.748698 
L -0.468785 344.282863 
L -3.476973 340.091863 
L -10.108755 339.803881 
L -9.453911 342.771885 
L -11.71461 346.778153 
L -14.778237 345.318149 
L -15.825243 346.628766 
L -20.649879 345.1989 
L -21.770554 339.270146 
L -24.265658 333.855779 
L -23.04043 329.517253 
z
" clip-path="url(#p7f163f98c7)" style="fill: #e8edf4; stroke: #b8c5d4; stroke-width: 0.45"/>
    <path d="M -22.217411 307.444925 
L -17.454167 302.092136 
L -13.566032 300.265643 
L -8.4203 301.932332 
L -4.616253 302.107577 
L 1.466725 306.341179 
L 0.961081 310.764165 
L -10.992422 310.494786 
L -15.519401 311.620299 
L -22.063374 308.887442 
z
" clip-path="url(#p7f163f98c7)" style="fill: #e8edf4; stroke: #b8c5d4; stroke-width: 0.45"/>
    <path d="M -131.217269 220.095094 
L -129.167906 218.447939 
L -130.159845 216.763391 
L -123.286591 213.361738 
L -118.311638 211.95308 
L -110.69015 212.918788 
L -107.967712 208.321301 
L -98.732182 207.465726 
L -96.165641 204.607854 
L -84.820101 200.707627 
L -83.80807 199.080005 
L -84.382919 194.975511 
L -79.443313 193.101393 
L -85.924034 180.593878 
L -71.661091 177.717402 
L -67.975734 176.114523 
L -62.780516 163.223775 
L -48.497109 165.593119 
L -44.492516 162.33862 
L -44.148723 155.118595 
L -38.168809 154.445892 
L -32.688214 149.652138 
L -29.870897 149.060175 
L -27.980408 154.083868 
L -21.929056 157.902612 
L -11.658055 160.606446 
L -6.690173 166.405348 
L -9.462469 174.818044 
L -6.872115 177.940272 
L 11.381282 180.176601 
L 20.080286 184.663211 
L 24.529503 185.462418 
L 27.809675 192.099966 
L 32.03565 196.375426 
L 39.972654 196.207994 
L 54.833886 197.822221 
L 64.410232 196.820608 
L 71.517891 197.892915 
L 82.168404 202.266229 
L 90.88043 202.259904 
L 94.067956 204.498651 
L 102.451073 200.632841 
L 114.082363 198.133086 
L 124.87389 197.859987 
L 133.287144 195.327118 
L 138.453712 191.470795 
L 143.493032 189.049548 
L 142.327708 186.673134 
L 140.028314 183.90642 
L 143.807804 179.265029 
L 155.260128 181.375969 
L 162.434388 177.553319 
L 173.412695 174.763908 
L 178.688652 170.004943 
L 183.756249 167.956323 
L 194.215146 167.001033 
L 199.895543 167.812704 
L 200.684332 165.253977 
L 194.159335 160.221168 
L 188.381827 157.919541 
L 182.847654 160.576495 
L 175.744459 159.455447 
L 171.668429 160.36888 
L 169.814031 157.425245 
L 178.407366 144.802574 
L 187.05056 147.52092 
L 197.196917 142.971244 
L 197.131608 139.802976 
L 203.630976 132.16644 
L 207.63504 129.858408 
L 207.545681 125.883171 
L 203.595038 124.172019 
L 209.54221 120.589912 
L 218.489385 119.291573 
L 228.034584 119.09664 
L 238.811121 121.240477 
L 245.133712 123.89185 
L 254.789681 138.67346 
L 257.45328 145.726056 
L 269.984288 148.027679 
L 278.512512 153.146251 
L 281.428272 159.911064 
L 292.368168 159.919488 
L 298.60989 157.07922 
L 310.509443 154.956745 
L 306.725832 161.43516 
L 303.92892 164.070144 
L 301.461437 171.958126 
L 296.619264 178.962552 
L 287.88087 177.687636 
L 281.701368 180.230688 
L 283.597597 186.397058 
L 282.561753 194.904074 
L 278.883838 195.098295 
L 278.927998 198.755825 
L 274.278724 194.505215 
L 271.416015 198.540131 
L 260.295949 201.641151 
L 261.420718 205.439245 
L 255.195238 205.177307 
L 251.7774 202.920701 
L 246.830725 208.02718 
L 238.895581 211.897269 
L 233.032497 216.514848 
L 222.966507 218.607929 
L 217.665993 221.972747 
L 209.912792 223.938209 
L 213.739163 220.601854 
L 212.232651 217.798118 
L 217.933884 212.958414 
L 214.130581 209.185993 
L 207.854127 211.727605 
L 199.725135 216.733997 
L 195.288941 221.383202 
L 188.22779 221.729227 
L 184.555456 225.089022 
L 188.349829 229.957376 
L 194.242679 231.139258 
L 194.483781 234.37106 
L 200.180177 236.474002 
L 208.248894 231.33292 
L 214.641062 234.135912 
L 219.29715 234.327714 
L 220.463962 238.099577 
L 210.26998 240.110431 
L 206.906464 243.997635 
L 199.904845 247.609508 
L 196.208698 252.649014 
L 203.958179 256.60561 
L 206.786657 263.687596 
L 211.168902 270.285705 
L 216.05865 275.816344 
L 215.94182 281.164669 
L 211.422654 283.130875 
L 213.145339 286.971012 
L 217.38322 289.205853 
L 216.276683 295.070239 
L 214.447957 300.776309 
L 210.424761 301.423154 
L 199.335577 318.66638 
L 192.649474 327.258786 
L 172.733294 339.963313 
L 164.619557 340.789867 
L 160.218337 343.988927 
L 157.728815 341.651954 
L 153.655761 345.230154 
L 143.593864 348.836446 
L 135.975352 349.940564 
L 133.517083 357.544565 
L 129.527001 357.966307 
L 127.639116 352.740765 
L 129.344315 349.955633 
L 119.684253 347.650471 
L 116.281298 348.822865 
L 109.032624 346.954328 
L 105.604368 344.028925 
L 106.742904 339.881271 
L 100.16098 338.566375 
L 96.690308 335.865144 
L 90.55338 339.702119 
L 83.552505 340.532952 
L 77.810344 340.496675 
L 70.214529 343.308969 
L 71.302462 351.544559 
L 67.464185 351.348106 
L 66.600238 346.680112 
L 61.319072 348.776356 
L 52.854472 344.748137 
L 54.950344 338.766921 
L 50.390994 337.372401 
L 48.67389 330.744341 
L 41.073982 331.938686 
L 41.937185 323.397812 
L 48.757234 317.385342 
L 48.835368 305.936552 
L 45.692863 304.220006 
L 43.286312 299.981195 
L 39.07522 300.516604 
L 31.311601 299.440577 
L 33.743452 296.416947 
L 30.367286 291.939825 
L 25.234576 294.97164 
L 19.195131 293.202446 
L 10.896103 297.787468 
L 4.342456 303.14249 
L -1.464073 304.043459 
L -4.616253 302.107577 
L -8.4203 301.932332 
L -13.566032 300.265643 
L -17.454167 302.092136 
L -22.217411 307.444925 
L -22.821653 301.774574 
L -27.212827 303.2889 
L -35.607477 302.585315 
L -43.752096 300.934253 
L -49.596205 297.772028 
L -55.191026 296.352765 
L -57.607251 292.894372 
L -61.652771 291.861133 
L -68.921909 287.17007 
L -74.694208 284.956438 
L -77.678956 286.678937 
L -87.686159 281.644454 
L -94.75996 277.085476 
L -96.779185 269.149217 
L -91.611873 270.116785 
L -91.37598 266.440359 
L -94.240177 262.755374 
L -93.511664 256.882058 
L -101.250354 248.443132 
L -113.091492 245.531495 
L -115.222339 239.998996 
L -120.5422 236.642177 
L -121.823982 234.576071 
L -122.904102 230.471949 
L -122.653327 227.672306 
L -127.025897 226.033151 
L -129.392264 226.75813 
z
" clip-path="url(#p7f163f98c7)" style="fill: #e8edf4; stroke: #b8c5d4; stroke-width: 0.45"/>
    <path d="M 120.428766 364.551207 
L 123.9772 361.288523 
L 131.843511 359.270971 
L 135.983165 359.441752 
L 137.592369 362.189305 
L 134.428656 365.35767 
L 132.762153 369.515555 
L 126.541509 372.976553 
L 120.637497 370.74469 
z
" clip-path="url(#p7f163f98c7)" style="fill: #e8edf4; stroke: #b8c5d4; stroke-width: 0.45"/>
    <path d="M 203.084558 334.394908 
L 207.321695 327.323154 
L 213.08432 321.872696 
L 216.368956 324.017309 
L 210.784553 339.905828 
L 207.698974 345.811886 
L 203.904601 339.733001 
z
" clip-path="url(#p7f163f98c7)" style="fill: #e8edf4; stroke: #b8c5d4; stroke-width: 0.45"/>
    <path d="M 201.483167 386.181329 
L 204.382711 388.550673 
L 205.12834 377.286616 
L 207.474243 370.762363 
L 211.833419 370.770735 
L 216.27073 372.826423 
L 218.491245 370.951561 
L 219.146089 372.780844 
L 217.974812 375.765965 
L 220.432708 380.926766 
L 218.536638 386.910401 
L 214.29206 389.296674 
L 213.156501 395.101342 
L 214.767566 400.83569 
L 218.584263 401.628944 
L 221.769185 400.776903 
L 230.762124 404.768659 
L 230.076771 408.688048 
L 232.425279 410.417803 
L 231.677417 413.735926 
L 226.065853 410.201816 
L 223.406294 406.418977 
L 221.553756 409.061979 
L 216.969478 404.75173 
L 210.42997 405.815851 
L 206.846189 404.224879 
L 207.211562 401.248688 
L 209.461099 399.417172 
L 207.312021 397.751971 
L 206.381845 400.34679 
L 202.827085 396.20974 
L 201.750686 393.074303 
z
" clip-path="url(#p7f163f98c7)" style="fill: #e8edf4; stroke: #b8c5d4; stroke-width: 0.45"/>
    <path d="M 216.143482 452.21674 
L 218.968984 446.148273 
L 223.505265 444.123094 
L 227.431351 441.41033 
L 229.976312 444.669666 
L 235.450582 442.698065 
L 236.625208 439.485052 
L 241.714014 439.293622 
L 241.287249 433.72559 
L 247.123544 437.140265 
L 249.389452 452.23646 
L 246.936765 458.825081 
L 244.306228 451.48525 
L 240.939736 455.137306 
L 243.238758 460.44247 
L 241.174884 463.816776 
L 232.702471 459.63824 
L 230.678781 454.427024 
L 232.874367 451.003605 
L 228.31353 447.598603 
L 226.051714 450.584095 
L 222.663642 450.306903 
L 217.335595 454.324146 
z
" clip-path="url(#p7f163f98c7)" style="fill: #e8edf4; stroke: #b8c5d4; stroke-width: 0.45"/>
    <path d="M 233.040683 413.584121 
L 239.955238 413.742809 
L 241.938372 416.428599 
L 243.960947 424.467922 
L 238.405565 422.557527 
L 238.555881 424.974124 
L 240.317634 429.417201 
L 236.893099 431.030312 
L 236.59321 425.966435 
L 234.425529 425.592505 
L 233.298156 421.233329 
L 237.535292 421.807805 
L 237.441531 419.081832 
z
" clip-path="url(#p7f163f98c7)" style="fill: #e8edf4; stroke: #b8c5d4; stroke-width: 0.45"/>
    <path d="M 219.456396 434.063801 
L 222.746986 430.11967 
L 223.541356 425.650548 
L 227.511718 425.227504 
L 226.351975 430.074836 
L 231.681138 423.124376 
L 230.993552 429.992794 
L 228.406919 432.359347 
L 226.151429 436.908465 
L 223.890358 439.040242 
z
" clip-path="url(#p7f163f98c7)" style="fill: #e8edf4; stroke: #b8c5d4; stroke-width: 0.45"/>
    <path d="M 215.881544 418.379363 
L 220.203513 420.608251 
L 224.785559 420.597647 
L 224.646032 423.605277 
L 221.311538 426.662579 
L 216.738794 428.824679 
L 216.485042 425.479023 
L 216.996267 421.805945 
z
" clip-path="url(#p7f163f98c7)" style="fill: #e8edf4; stroke: #b8c5d4; stroke-width: 0.45"/>
    <path d="M 181.974777 443.754001 
L 185.504236 438.718401 
L 190.705779 434.271603 
L 195.028864 429.290697 
L 198.802773 422.13839 
L 200.085671 428.009101 
L 195.332101 431.973696 
L 191.552983 436.922046 
z
" clip-path="url(#p7f163f98c7)" style="fill: #e8edf4; stroke: #b8c5d4; stroke-width: 0.45"/>
    <path d="M 204.648741 407.041823 
L 210.816923 407.306179 
L 213.317236 409.898951 
L 211.407771 416.119967 
z
" clip-path="url(#p7f163f98c7)" style="fill: #e8edf4; stroke: #b8c5d4; stroke-width: 0.45"/>
    <path d="M 270.060935 264.268398 
L 276.868333 262.050115 
L 280.644847 257.524252 
L 287.886451 253.80206 
L 293.167245 248.87957 
L 307.499766 246.732352 
L 315.198273 248.204634 
L 322.73158 235.404113 
L 327.532404 238.842787 
L 342.190114 228.845072 
L 346.714489 220.040586 
L 345.480331 211.94415 
L 348.521634 207.395963 
L 356.176609 206.074369 
L 360.102695 216.060364 
L 359.889126 221.897775 
L 353.228323 229.147193 
L 353.34999 236.577065 
L 350.638342 242.323319 
L 351.893335 245.931285 
L 348.143611 251.00558 
L 338.9438 254.39328 
L 326.286712 254.834741 
L 316.029478 263.053403 
L 311.191075 260.286688 
L 310.891931 254.904877 
L 298.370277 256.493245 
L 289.84875 259.88448 
L 281.420241 260.022518 
L 288.720261 265.320055 
L 283.916089 277.557447 
L 279.26149 280.58703 
L 275.777423 277.788689 
L 277.543269 271.299783 
L 272.98578 269.205771 
z
" clip-path="url(#p7f163f98c7)" style="fill: #e8edf4; stroke: #b8c5d4; stroke-width: 0.45"/>
    <path d="M 345.006314 197.540936 
L 348.567027 192.000437 
L 356.259952 191.600462 
L 358.358057 181.640697 
L 360.487043 176.029319 
L 368.948666 183.52542 
L 379.536671 187.481643 
L 384.629942 184.429923 
L 386.230588 192.512964 
L 375.549566 194.483821 
L 369.243718 201.634454 
L 357.922735 196.712708 
L 354.004462 204.590925 
L 345.996765 204.699197 
z
" clip-path="url(#p7f163f98c7)" style="fill: #e8edf4; stroke: #b8c5d4; stroke-width: 0.45"/>
    <path d="M 291.334427 266.476449 
L 291.39247 263.061774 
L 295.375483 258.76585 
L 299.469372 259.59873 
L 302.429564 256.572496 
L 307.716683 258.125517 
L 308.637929 260.59439 
L 304.584595 264.951519 
L 301.62924 262.641707 
L 297.937931 264.315093 
L 296.026978 268.527115 
z
" clip-path="url(#p7f163f98c7)" style="fill: #e8edf4; stroke: #b8c5d4; stroke-width: 0.45"/>
   </g>
   <g id="PathCollection_1">
    <defs>
     <path id="m8b1a8c7f48" d="M 0 2.12132 
C 0.562581 2.12132 1.102195 1.897805 1.5 1.5 
C 1.897805 1.102195 2.12132 0.562581 2.12132 0 
C 2.12132 -0.562581 1.897805 -1.102195 1.5 -1.5 
C 1.102195 -1.897805 0.562581 -2.12132 0 -2.12132 
C -0.562581 -2.12132 -1.102195 -1.897805 -1.5 -1.5 
C -1.897805 -1.102195 -2.12132 -0.562581 -2.12132 0 
C -2.12132 0.562581 -1.897805 1.102195 -1.5 1.5 
C -1.102195 1.897805 -0.562581 2.12132 0 2.12132 
z
" style="stroke: #ffffff; stroke-width: 0.5"/>
    </defs>
    <g clip-path="url(#p7f163f98c7)">
     <use xlink:href="#m8b1a8c7f48" x="380.76" y="407.04" style="fill: #8aa0b7; stroke: #ffffff; stroke-width: 0.5"/>
     <use xlink:href="#m8b1a8c7f48" x="160.32" y="343.8" style="fill: #8aa0b7; stroke: #ffffff; stroke-width: 0.5"/>
     <use xlink:href="#m8b1a8c7f48" x="155.88" y="344.4" style="fill: #8aa0b7; stroke: #ffffff; stroke-width: 0.5"/>
     <use xlink:href="#m8b1a8c7f48" x="387.72" y="394.56" style="fill: #8aa0b7; stroke: #ffffff; stroke-width: 0.5"/>
     <use xlink:href="#m8b1a8c7f48" x="209.52" y="334.8" style="fill: #8aa0b7; stroke: #ffffff; stroke-width: 0.5"/>
    </g>
   </g>
   <g id="PatchCollection_2">
    <path d="M 233.032497 216.514848 
L 238.895581 211.897269 
L 246.830725 208.02718 
L 251.7774 202.920701 
L 255.195238 205.177307 
L 261.420718 205.439245 
L 260.295949 201.641151 
L 271.416015 198.540131 
L 274.278724 194.505215 
L 279.935945 200.015931 
L 277.20022 199.583974 
L 271.925007 204.472048 
L 272.197363 209.643639 
L 268.474427 211.234984 
L 264.480252 214.633102 
L 259.685382 215.81703 
L 256.560736 217.750679 
L 256.335261 220.867698 
L 255.495126 221.662999 
L 258.360068 222.833532 
L 262.437958 225.991851 
L 261.40137 227.73314 
L 253.247822 228.555973 
L 250.442783 231.805635 
L 247.22884 231.549279 
L 246.778263 232.202262 
L 243.281546 230.831927 
L 242.412762 232.184961 
L 240.302379 232.782692 
L 240.048627 231.427984 
L 236.247557 229.619908 
L 238.219157 226.450986 
L 239.918031 225.605828 
L 239.276581 224.290373 
L 241.103447 220.406703 
L 240.632033 219.230031 
L 236.429871 218.445521 
z
" clip-path="url(#p7f163f98c7)" style="fill: #f59e0b; stroke: #b45309; stroke-width: 1.15"/>
    <path d="M 279.936026 200.015944 
L 279.936035 200.015925 
L 279.936053 200.015948 
z
" clip-path="url(#p7f163f98c7)" style="fill: #f59e0b; stroke: #b45309; stroke-width: 1.15"/>
   </g>
   <g id="PathCollection_2">
    <defs>
     <path id="m8be8d37590" d="M 0 3.316625 
C 0.879579 3.316625 1.723251 2.967164 2.345208 2.345208 
C 2.967164 1.723251 3.316625 0.879579 3.316625 0 
C 3.316625 -0.879579 2.967164 -1.723251 2.345208 -2.345208 
C 1.723251 -2.967164 0.879579 -3.316625 0 -3.316625 
C -0.879579 -3.316625 -1.723251 -2.967164 -2.345208 -2.345208 
C -2.967164 -1.723251 -3.316625 -0.879579 -3.316625 0 
C -3.316625 0.879579 -2.967164 1.723251 -2.345208 2.345208 
C -1.723251 2.967164 -0.879579 3.316625 0 3.316625 
z
" style="stroke: #ffffff"/>
    </defs>
    <g clip-path="url(#p7f163f98c7)">
     <use xlink:href="#m8be8d37590" x="252.72" y="216" style="fill: #f97316; stroke: #ffffff"/>
    </g>
   </g>
   <g id="PathCollection_3">
    <path d="M 252.72 220.449719 
C 253.900079 220.449719 255.031984 219.980869 255.866427 219.146427 
C 256.700869 218.311984 257.169719 217.180079 257.169719 216 
C 257.169719 214.819921 256.700869 213.688016 255.866427 212.853573 
C 255.031984 212.019131 253.900079 211.550281 252.72 211.550281 
C 251.539921 211.550281 250.408016 212.019131 249.573573 212.853573 
C 248.739131 213.688016 248.270281 214.819921 248.270281 216 
C 248.270281 217.180079 248.739131 218.311984 249.573573 219.146427 
C 250.408016 219.980869 251.539921 220.449719 252.72 220.449719 
L 252.72 220.449719 
z
" clip-path="url(#p7f163f98c7)" style="fill: none; stroke: #7c2d12; stroke-width: 1.1"/>
   </g>
  </g>
 </g>
 <defs>
  <clipPath id="p7f163f98c7">
   <rect x="0" y="0" width="505.44" height="432"/>
  </clipPath>
 </defs>
</svg>
