<?xml version="1.0" encoding="utf-8" standalone="no"?>
<!DOCTYPE svg PUBLIC "-//W3C//DTD SVG 1.1//EN"
  "http://www.w3.org/Graphics/SVG/1.1/DTD/svg11.dtd">
<svg xmlns:xlink="http://www.w3.org/1999/xlink" width="469.140271pt" height="432pt" viewBox="0 0 469.140271 432" xmlns="http://www.w3.org/2000/svg" version="1.1">
 <metadata>
  <rdf:RDF xmlns:dc="http://purl.org/dc/elements/1.1/" xmlns:cc="http://creativecommons.org/ns#" xmlns:rdf="http://www.w3.org/1999/02/22-rdf-syntax-ns#">
   <cc:Work>
    <dc:type rdf:resource="http://purl.org/dc/dcmitype/StillImage"/>
    <dc:date>2026-06-09T04:57:02.413150</dc:date>
    <dc:format>image/svg+xml</dc:format>
    <dc:creator>
     <cc:Agent>
      <dc:title>Matplotlib v3.10.8, https://matplotlib.org/</dc:title>
     </cc:Agent>
    </dc:creator>
   </cc:Work>
  </rdf:RDF>
 </metadata>
 <defs>
  <style type="text/css">*{stroke-linejoin: round; stroke-linecap: butt}</style>
 </defs>
 <g id="figure_1">
  <g id="patch_1">
   <path d="M 0 432 
L 469.140271 432 
L 469.140271 0 
L 0 0 
z
" style="fill: #eaf3ff"/>
  </g>
  <g id="axes_1">
   <g id="PatchCollection_1">
    <path d="M 274.491669 678.478835 
L 281.98998 674.18016 
L 285.089107 667.979886 
L 283.95345 663.037244 
L 289.134487 654.693441 
L 292.704342 641.75196 
L 291.655558 636.014333 
L 295.922161 634.162736 
L 294.876155 630.480755 
L 290.342874 628.522587 
L 293.563976 624.421901 
L 289.152417 620.717192 
L 286.870498 609.441441 
L 290.80047 607.452464 
L 289.149387 595.537797 
L 294.057937 576.808181 
L 299.910974 573.260045 
L 296.940135 563.719219 
L 296.908316 554.740034 
L 304.308138 548.357429 
L 304.080602 540.192422 
L 309.658879 530.652101 
L 309.683628 521.66332 
L 307.146142 519.877888 
L 302.64367 503.006435 
L 308.664896 492.952456 
L 307.740865 483.487391 
L 311.234201 474.60518 
L 317.634989 465.438109 
L 324.532264 459.360062 
L 321.607387 455.524539 
L 323.648134 452.378441 
L 323.338776 436.090852 
L 333.984449 431.269932 
L 337.33889 421.115443 
L 336.151969 418.66786 
L 344.296773 409.836157 
L 357.085217 412.216565 
L 362.830926 419.275463 
L 366.644478 411.412994 
L 377.790172 411.817052 
L 397.336743 429.856738 
L 405.327753 431.343168 
L 417.269695 438.562679 
L 427.335796 442.383049 
L 428.738888 446.696371 
L 419.116493 461.553088 
L 428.972484 464.213307 
L 439.94898 465.704787 
L 447.678614 464.134516 
L 456.543905 456.647316 
L 458.141955 448.021682 
L 462.982321 446.148872 
L 467.88582 451.790536 
L 467.686569 459.595931 
L 452.893491 468.963517 
L 441.862701 478.45232 
L 428.822225 491.779171 
L 423.766194 509.647638 
L 423.861905 519.382916 
L 421.741357 521.55877 
L 420.316041 532.977456 
L 432.724923 541.349039 
L 431.390521 548.08671 
L 437.497861 552.345484 
L 437.001375 557.119432 
L 427.610051 569.652309 
L 413.118501 574.89446 
L 393.516372 576.929399 
L 382.779787 575.945012 
L 384.834171 581.774057 
L 382.832819 589.089532 
L 384.636435 594.018538 
L 378.774054 597.457578 
L 368.758965 598.806628 
L 359.36057 595.247885 
L 355.588434 597.805068 
L 356.951625 607.517114 
L 363.550402 610.459163 
L 368.901143 607.377209 
L 371.812636 612.454201 
L 362.813501 615.488173 
L 354.965174 621.565714 
L 353.528242 631.397967 
L 351.217281 636.631026 
L 341.984045 636.658805 
L 334.3231 641.665592 
L 331.520451 648.994704 
L 341.132745 656.150576 
L 350.476844 658.126926 
L 347.114069 666.895495 
L 335.570378 672.408365 
L 329.218329 683.866447 
L 320.298238 687.722678 
L 316.293011 692.299648 
L 319.449716 702.450609 
L 325.954801 708.108435 
L 312.776189 706.083093 
L 289.158478 704.775965 
L 285.106279 699.07722 
L 285.296186 691.7572 
L 278.789081 692.387025 
L 275.345747 688.842424 
z
" clip-path="url(#p984e128b17)" style="fill: #e8edf4; stroke: #b8c5d4; stroke-width: 0.45"/>
    <path d="M 321.224153 710.907512 
L 329.864253 722.769231 
L 342.570136 728.633484 
L 356.253394 731.076923 
L 351.855204 735.963801 
L 342.570136 736.452489 
L 337.586302 733.000496 
L 321.230606 732.733575 
z
" clip-path="url(#p984e128b17)" style="fill: #e8edf4; stroke: #b8c5d4; stroke-width: 0.45"/>
    <path d="M 252.706363 652.375156 
L 262.013339 643.738411 
L 265.340759 627.504866 
L 276.202855 630.944412 
L 281.310152 610.697052 
L 274.751024 608.098958 
L 271.697353 620.298992 
L 265.53395 618.922668 
L 271.934232 586.837917 
L 276.42534 580.157319 
L 273.610822 570.620029 
L 272.804473 559.608936 
L 276.922584 559.291245 
L 289.677188 527.871675 
L 293.81424 513.30689 
L 291.563635 498.663314 
L 294.482451 490.600331 
L 293.31144 478.537172 
L 299.026844 466.602806 
L 300.78778 447.69591 
L 306.981488 405.545563 
L 306.266305 389.547381 
L 304.231872 375.781117 
L 309.256841 373.286057 
L 311.876401 368.275229 
L 316.66727 374.922493 
L 317.971368 381.974825 
L 323.098614 386.112886 
L 320.020448 395.56987 
L 325.271438 406.53298 
L 329.100142 420.006808 
L 336.151969 418.66786 
L 337.33889 421.115443 
L 333.984449 431.269932 
L 323.338776 436.090852 
L 323.648134 452.378441 
L 321.607387 455.524539 
L 324.532264 459.360062 
L 317.634989 465.438109 
L 311.234201 474.60518 
L 307.740865 483.487391 
L 308.664896 492.952456 
L 302.64367 503.006435 
L 307.146142 519.877888 
L 309.683628 521.66332 
L 309.658879 530.652101 
L 304.080602 540.192422 
L 304.308138 548.357429 
L 296.908316 554.740034 
L 296.940135 563.719219 
L 299.910974 573.260045 
L 294.057937 576.808181 
L 289.149387 595.537797 
L 290.80047 607.452464 
L 286.870498 609.441441 
L 289.152417 620.717192 
L 293.563976 624.421901 
L 290.342874 628.522587 
L 294.876155 630.480755 
L 295.922161 634.162736 
L 291.655558 636.014333 
L 292.704342 641.75196 
L 289.134487 654.693441 
L 283.95345 663.037244 
L 285.089107 667.979886 
L 281.98998 674.18016 
L 274.491669 678.478835 
L 275.345747 688.842424 
L 278.789081 692.387025 
L 285.296186 691.7572 
L 285.106279 699.07722 
L 289.158478 704.775965 
L 312.776189 706.083093 
L 321.83467 707.614474 
L 313.138578 707.541238 
L 299.613486 713.476349 
L 298.037659 722.60554 
L 293.898839 722.832318 
L 282.872594 719.65541 
L 271.683464 712.849546 
L 259.524846 707.255872 
L 256.463094 701.065187 
L 259.232914 695.338166 
L 254.315525 688.838384 
L 253.061934 672.178052 
L 257.218178 662.777131 
L 267.541109 655.225282 
z
" clip-path="url(#p984e128b17)" style="fill: #e8edf4; stroke: #b8c5d4; stroke-width: 0.45"/>
    <path d="M 262.302874 712.873205 
L 270.360652 714.925108 
L 284.082223 721.453683 
L 297.046621 724.961777 
L 302.08939 720.48051 
L 305.259019 713.789397 
L 314.26876 709.75352 
L 321.224153 710.907512 
L 321.230606 732.733575 
L 337.586302 733.000496 
L 334.350114 736.953296 
L 325.968141 739.988927 
L 315.37857 738.88674 
L 308.282921 735.948456 
L 298.044033 734.535171 
L 275.764561 723.820105 
z
" clip-path="url(#p984e128b17)" style="fill: #e8edf4; stroke: #b8c5d4; stroke-width: 0.45"/>
    <path d="M 264.301572 17.176887 
L 265.162721 14.026243 
L 281.533646 16.167752 
L 285.052741 13.991898 
L 280.588403 9.757873 
L 280.662143 6.024627 
L 274.495709 4.500317 
L 276.697069 1.80146 
L 291.137101 3.768214 
L 291.992189 9.091177 
L 291.245187 12.848413 
L 288.862253 14.495456 
L 291.377768 17.429929 
L 291.176749 20.085097 
L 284.685301 18.423912 
L 280.072723 19.10172 
L 274.109328 18.395123 
L 269.536399 20.221971 
z
" clip-path="url(#p984e128b17)" style="fill: #e8edf4; stroke: #b8c5d4; stroke-width: 0.45"/>
    <path d="M 288.862253 14.495456 
L 291.245187 12.848413 
L 291.992189 9.091177 
L 291.137101 3.768214 
L 292.359377 2.102231 
L 299.988755 2.147435 
L 305.778152 4.663203 
L 308.354023 4.417738 
L 310.128597 7.88481 
L 315.476055 7.689852 
L 315.161142 10.602607 
L 319.509819 10.955653 
L 324.313315 14.541417 
L 320.683609 18.519876 
L 316.034918 16.394024 
L 308.333315 16.338719 
L 306.571116 18.121374 
L 302.81893 18.723673 
L 301.331743 16.352608 
L 298.100035 17.755701 
L 294.187993 24.448421 
L 291.671721 22.894312 
L 291.377768 17.429929 
z
" clip-path="url(#p984e128b17)" style="fill: #e8edf4; stroke: #b8c5d4; stroke-width: 0.45"/>
    <path d="M -152.741908 -121.539975 
L -129.222635 -123.352909 
L -130.137557 -121.441651 
L -93.081437 -109.805408 
L -65.894074 -109.878711 
L -65.875113 -113.911692 
L -48.942961 -113.908431 
L -45.37857 -110.44295 
L -34.57339 -103.054675 
L -28.900702 -92.576623 
L -23.847964 -89.625339 
L -15.735747 -86.693213 
L -9.578281 -94.41448 
L -1.587258 -94.603113 
L 5.301285 -90.707392 
L 13.58552 -78.287783 
L 19.352036 -72.716742 
L 21.502262 -65.875113 
L 24.238914 -61.281448 
L 38.80181 -56.101357 
L 42.613493 -56.394545 
L 38.820649 -47.814621 
L 37.111483 -40.779461 
L 36.397057 -27.684943 
L 35.455601 -22.911753 
L 37.149616 -17.579951 
L 40.180305 -12.813579 
L 42.131401 -5.233194 
L 48.618809 2.04339 
L 50.900476 7.619899 
L 54.724382 12.431981 
L 65.102366 15.025025 
L 69.142191 19.113842 
L 77.714539 16.382408 
L 85.167394 15.395243 
L 98.637686 11.962263 
L 104.854122 7.974208 
L 107.183013 2.273198 
L 107.985574 -5.93777 
L 109.675043 -8.794967 
L 116.294779 -11.354424 
L 126.630085 -13.621443 
L 135.284255 -13.281024 
L 141.212295 -14.108839 
L 143.557095 -12.036525 
L 143.225515 -7.328993 
L 137.973263 -1.518888 
L 135.649423 4.43188 
L 137.450765 6.133975 
L 133.536955 17.985509 
L 131.059573 15.475297 
L 127.15536 15.766724 
L 123.654196 21.66648 
L 121.880127 20.510115 
L 120.696994 20.960135 
L 120.773513 22.39833 
L 102.609579 22.30767 
L 102.602255 27.80968 
L 98.187919 27.833924 
L 105.441017 33.353107 
L 106.525661 35.47113 
L 108.108812 36.064086 
L 107.858548 39.392515 
L 95.314054 39.42181 
L 90.610059 47.388576 
L 91.998251 49.214919 
L 90.864363 51.506687 
L 90.624706 54.35353 
L 79.563611 43.831095 
L 74.523237 40.657218 
L 66.543086 38.108115 
L 61.083754 38.818248 
L 53.233912 42.49543 
L 48.307432 43.458857 
L 34.080793 39.02356 
L 24.945794 34.540028 
L 17.618197 33.170523 
L 6.553314 28.626636 
L -1.62331 23.955217 
L -4.09059 21.345001 
L -9.560024 20.761894 
L -19.557183 17.668071 
L -23.628322 13.20853 
L -34.130049 7.661315 
L -39.026983 1.497659 
L -41.356631 -3.26543 
L -38.095881 -4.219513 
L -39.101481 -7.006757 
L -36.854412 -9.54197 
L -36.806177 -12.921917 
L -40.103293 -17.310748 
L -40.985402 -21.200061 
L -44.262567 -26.132602 
L -52.875827 -35.84793 
L -62.703029 -43.482611 
L -67.457532 -49.575557 
L -75.846286 -53.566138 
L -77.643588 -55.953617 
L -76.153623 -61.994288 
L -81.136419 -64.273934 
L -86.905613 -69.023386 
L -89.342085 -75.843132 
L -94.599388 -76.638369 
L -104.855144 -86.540827 
L -105.281173 -89.594497 
L -110.537213 -96.96654 
L -113.999235 -104.450962 
L -113.851248 -108.204915 
L -120.919743 -112.081602 
L -124.182766 -111.655826 
L -129.76079 -114.348369 
L -131.327021 -110.379759 
L -129.709777 -105.689653 
L -128.758473 -98.350187 
L -116.542782 -85.287489 
L -115.056352 -84.589731 
L -113.766901 -81.232512 
L -112.029703 -81.368376 
L -110.068 -75.064562 
L -107.09994 -72.578089 
L -105.018535 -69.11733 
L -98.876092 -64.143373 
L -95.633019 -55.051557 
L -90.016357 -46.190812 
L -89.479212 -41.036038 
L -84.766377 -40.713044 
L -77.301654 -31.90811 
L -77.539038 -30.15778 
L -81.652098 -26.567722 
L -83.383741 -26.614694 
L -85.960875 -32.556118 
L -92.357117 -38.127072 
L -104.403609 -45.334713 
L -104.080615 -52.486292 
L -105.563508 -57.782485 
L -116.939769 -65.173216 
L -118.230482 -63.91508 
L -120.69549 -66.462162 
L -126.724039 -68.82767 
L -132.484648 -74.502669 
L -131.772242 -75.240328 
L -127.746559 -74.68601 
L -124.120137 -78.336677 
L -123.755474 -82.74571 
L -131.279544 -89.717987 
L -137.014898 -92.424168 
L -148.771478 -112.74754 
z
" clip-path="url(#p984e128b17)" style="fill: #e8edf4; stroke: #b8c5d4; stroke-width: 0.45"/>
    <path d="M 268.903038 269.988563 
L 271.481687 268.201616 
L 271.471081 264.07315 
L 277.378917 261.251814 
L 276.404632 255.966732 
L 278.898934 252.566076 
L 279.608309 248.004764 
L 290.784813 241.352954 
L 298.795015 239.472568 
L 300.105427 238.003312 
L 308.912887 238.461918 
L 313.537333 207.424688 
L 312.006963 201.827976 
L 307.671418 198.262162 
L 307.721167 191.160838 
L 313.225451 189.550666 
L 315.17983 190.562326 
L 315.510148 186.818727 
L 309.783127 185.808076 
L 309.662162 179.692402 
L 328.705428 179.910846 
L 331.938146 176.541757 
L 334.653418 179.641642 
L 336.558805 185.407048 
L 338.403331 184.202449 
L 343.784377 189.37187 
L 351.38345 188.738508 
L 353.2752 185.747467 
L 364.567871 181.861689 
L 365.70378 177.722365 
L 372.685149 174.941434 
L 372.15659 172.887303 
L 363.876931 172.047367 
L 362.520053 165.892044 
L 362.914263 159.339482 
L 358.539827 156.805784 
L 360.371473 155.90625 
L 367.607147 157.15681 
L 375.378702 159.599847 
L 378.200039 157.289392 
L 385.22838 155.77291 
L 396.160681 152.114163 
L 399.735081 148.3842 
L 398.441085 145.62625 
L 403.52237 145.19416 
L 405.796965 147.44628 
L 404.52595 151.737884 
L 407.884179 153.218252 
L 410.125945 157.760119 
L 407.414966 161.203453 
L 405.859847 169.523518 
L 408.361725 174.46515 
L 409.070342 178.987825 
L 415.082982 183.573634 
L 419.880416 184.058504 
L 420.960767 182.144278 
L 428.471957 180.007315 
L 431.649875 177.407957 
L 444.747929 178.687054 
L 445.628523 176.689996 
L 443.989057 174.746981 
L 444.966626 171.916806 
L 448.910992 172.785278 
L 453.525842 171.785992 
L 463.392692 175.873293 
L 466.418078 173.223176 
L 468.604286 173.63178 
L 469.937173 176.383165 
L 474.616926 175.684649 
L 478.362546 171.972111 
L 481.363941 164.774823 
L 487.145509 155.830489 
L 490.47495 155.3686 
L 492.892733 160.774394 
L 498.374794 177.867068 
L 503.601792 179.480524 
L 503.86544 186.227286 
L 496.514105 194.273096 
L 499.554139 197.219186 
L 516.83066 198.754102 
L 517.1832 208.550495 
L 524.606761 202.13708 
L 536.905789 205.649862 
L 553.13883 211.618812 
L 557.909242 217.346338 
L 556.306646 222.756678 
L 567.671542 219.744424 
L 586.692585 224.913844 
L 601.294493 224.533019 
L 615.742858 232.621761 
L 628.225228 243.571234 
L 635.754096 246.390551 
L 644.112041 246.782487 
L 647.654117 249.865452 
L 652.593729 268.223334 
L 648.701638 284.381118 
L 643.729196 290.762208 
L 629.952577 304.361799 
L 623.725787 315.410772 
L 616.490619 323.883874 
L 614.047076 324.074791 
L 611.3164 331.265513 
L 612.010118 349.578444 
L 608.24682 371.087475 
L 605.156532 374.943706 
L 603.423627 388.009435 
L 593.513846 400.768079 
L 591.852156 410.862465 
L 583.941201 415.098005 
L 581.652968 420.956345 
L 571.03457 420.933112 
L 555.659395 424.688833 
L 548.775505 429.037005 
L 537.829315 431.892182 
L 526.326786 439.674344 
L 518.053441 449.368207 
L 516.630903 456.666004 
L 518.255975 462.063212 
L 516.430389 471.936881 
L 514.212362 476.706283 
L 507.381757 482.085309 
L 496.537339 499.287079 
L 487.942767 507.039947 
L 481.298029 511.610856 
L 476.841014 520.907731 
L 470.375071 526.496362 
L 467.668891 520.960764 
L 471.978678 516.3247 
L 466.325903 509.674407 
L 448.600624 498.01076 
L 444.967383 498.296126 
L 435.166445 490.737206 
L 428.822225 491.779171 
L 441.862701 478.45232 
L 452.893491 468.963517 
L 467.686569 459.595931 
L 467.88582 451.790536 
L 462.982321 446.148872 
L 458.141955 448.021682 
L 461.385028 436.601481 
L 461.390079 431.228011 
L 457.872751 429.4547 
L 454.206933 431.035073 
L 450.562832 430.601721 
L 449.420358 426.839433 
L 448.510974 417.882977 
L 446.68059 414.963656 
L 440.079793 412.31859 
L 436.090223 414.232816 
L 425.772596 412.35647 
L 426.422372 399.088712 
L 423.532093 393.654634 
L 426.587278 391.634342 
L 425.647085 386.063389 
L 428.324981 381.780877 
L 430.061169 374.082557 
L 427.752734 368.006026 
L 422.413861 365.261965 
L 421.365583 361.405229 
L 422.800747 355.760535 
L 404.062798 355.356982 
L 400.304046 343.976681 
L 403.156192 343.813542 
L 403.027399 339.59871 
L 401.122769 336.745048 
L 400.691689 331.095304 
L 395.014923 328.196691 
L 388.866419 328.292655 
L 384.821291 325.454145 
L 378.214434 323.517696 
L 374.369062 319.86602 
L 363.423881 318.252817 
L 352.810281 309.49839 
L 353.595922 302.94608 
L 352.394353 299.188843 
L 353.434298 291.863772 
L 340.645602 293.518896 
L 335.495879 297.188755 
L 326.949795 301.149536 
L 324.769648 304.105727 
L 312.470114 303.492064 
L 306.956992 305.175472 
L 302.510583 304.0532 
L 303.16339 289.206584 
L 295.143844 294.966435 
L 286.518715 294.713898 
L 282.822845 289.500536 
L 276.336195 288.933845 
L 278.40169 284.737195 
L 272.970642 278.790972 
z
" clip-path="url(#p984e128b17)" style="fill: #e8edf4; stroke: #b8c5d4; stroke-width: 0.45"/>
    <path d="M 311.876401 368.275229 
L 318.041573 357.726278 
L 313.837599 349.510764 
L 316.07987 346.225265 
L 314.32853 342.601368 
L 318.146628 337.718829 
L 318.819132 322.531289 
L 320.920488 319.223567 
L 312.470114 303.492064 
L 324.769648 304.105727 
L 326.949795 301.149536 
L 335.495879 297.188755 
L 340.645602 293.518896 
L 353.434298 291.863772 
L 352.394353 299.188843 
L 353.595922 302.94608 
L 352.810281 309.49839 
L 363.423881 318.252817 
L 374.369062 319.86602 
L 378.214434 323.517696 
L 384.821291 325.454145 
L 388.866419 328.292655 
L 395.014923 328.196691 
L 400.691689 331.095304 
L 401.122769 336.745048 
L 403.027399 339.59871 
L 403.156192 343.813542 
L 400.304046 343.976681 
L 404.062798 355.356982 
L 422.800747 355.760535 
L 421.365583 361.405229 
L 422.413861 365.261965 
L 427.752734 368.006026 
L 430.061169 374.082557 
L 428.324981 381.780877 
L 425.647085 386.063389 
L 426.587278 391.634342 
L 423.532093 393.654634 
L 423.365166 390.641369 
L 414.260218 385.642158 
L 405.18507 385.503768 
L 388.151741 388.347833 
L 383.463908 396.948719 
L 383.217432 402.206022 
L 379.367767 413.909064 
L 377.790172 411.817052 
L 366.644478 411.412994 
L 362.830926 419.275463 
L 357.085217 412.216565 
L 344.296773 409.836157 
L 336.151969 418.66786 
L 329.100142 420.006808 
L 325.271438 406.53298 
L 320.020448 395.56987 
L 323.098614 386.112886 
L 317.971368 381.974825 
L 316.66727 374.922493 
z
" clip-path="url(#p984e128b17)" style="fill: #e8edf4; stroke: #b8c5d4; stroke-width: 0.45"/>
    <path d="M 196.345539 242.748471 
L 199.387845 235.903219 
L 207.178593 229.730724 
L 208.33723 233.79959 
L 205.548976 236.126966 
L 205.813381 239.708437 
L 209.853206 238.93012 
L 213.801108 239.986732 
L 217.903057 244.921799 
L 223.429059 240.901419 
L 225.278383 234.307189 
L 231.267536 225.803277 
L 243.020581 221.949067 
L 253.67787 211.715281 
L 256.720176 205.360455 
L 255.356732 197.93841 
L 257.962403 197.011601 
L 264.462185 201.640594 
L 267.58202 206.253929 
L 272.10621 208.772222 
L 277.86404 219.019644 
L 285.141634 220.243941 
L 290.527226 217.659483 
L 294.056675 219.350467 
L 299.92259 218.510531 
L 307.407012 223.087501 
L 301.103198 233.034405 
L 304.022014 233.266234 
L 308.912887 238.461918 
L 300.105427 238.003312 
L 298.795015 239.472568 
L 290.784813 241.352954 
L 279.608309 248.004764 
L 278.898934 252.566076 
L 276.404632 255.966732 
L 277.378917 261.251814 
L 271.471081 264.07315 
L 271.481687 268.201616 
L 268.903038 269.988563 
L 272.970642 278.790972 
L 278.40169 284.737195 
L 276.336195 288.933845 
L 282.822845 289.500536 
L 286.518715 294.713898 
L 295.143844 294.966435 
L 303.16339 289.206584 
L 302.510583 304.0532 
L 306.956992 305.175472 
L 312.470114 303.492064 
L 320.920488 319.223567 
L 318.819132 322.531289 
L 318.146628 337.718829 
L 314.32853 342.601368 
L 316.07987 346.225265 
L 313.837599 349.510764 
L 318.041573 357.726278 
L 309.256841 373.286057 
L 304.231872 375.781117 
L 294.431944 370.169252 
L 293.583674 366.158974 
L 274.207313 356.344904 
L 256.679518 345.655543 
L 249.140801 339.631034 
L 245.091885 331.55694 
L 246.697006 328.740654 
L 238.419115 315.91433 
L 228.782578 297.881715 
L 219.548332 278.420754 
L 215.551185 273.966517 
L 212.475797 266.768219 
L 204.882532 260.389149 
L 197.918588 256.432409 
L 201.081859 252.0706 
z
" clip-path="url(#p984e128b17)" style="fill: #e8edf4; stroke: #b8c5d4; stroke-width: 0.45"/>
    <path d="M 219.998099 179.921452 
L 223.644725 179.188086 
L 223.211877 174.29191 
L 225.503898 170.751855 
L 230.352345 170.096523 
L 238.209005 158.827086 
L 234.606573 156.501225 
L 236.450594 150.828753 
L 234.245446 141.887448 
L 236.340993 139.321426 
L 234.798248 131.055152 
L 230.84075 125.849113 
L 232.093331 121.098398 
L 235.24347 121.799945 
L 237.086228 118.895018 
L 234.817188 113.138198 
L 236.003352 111.709095 
L 241.053322 112.019462 
L 248.386475 105.196686 
L 252.411148 104.156488 
L 254.308959 92.665071 
L 259.914509 88.129517 
L 266.073367 87.943903 
L 266.850674 85.906692 
L 274.498235 86.722385 
L 285.997733 79.601868 
L 290.729255 74.893327 
L 294.191782 75.49209 
L 296.756036 78.063164 
L 294.85873 81.353966 
L 288.580675 82.992169 
L 286.101525 87.878749 
L 282.318277 90.681145 
L 279.477748 94.313377 
L 278.28224 101.287675 
L 275.571514 107.003079 
L 280.616939 107.657653 
L 281.870277 112.151033 
L 284.026686 114.301381 
L 284.798437 118.236656 
L 283.637527 121.85424 
L 283.981482 123.894229 
L 286.387144 124.708912 
L 288.715024 128.118153 
L 301.283509 127.178213 
L 306.961285 128.42347 
L 313.840377 136.833942 
L 317.790552 135.788694 
L 324.830257 136.311949 
L 330.400957 135.197254 
L 333.857423 136.876873 
L 332.097244 142.140995 
L 329.916087 145.422453 
L 329.150649 152.432106 
L 331.116898 158.926333 
L 333.895304 161.830501 
L 334.23143 164.018729 
L 329.278433 168.884096 
L 332.824802 171.037979 
L 335.422644 174.455302 
L 338.403331 184.202449 
L 336.558805 185.407048 
L 334.653418 179.641642 
L 331.938146 176.541757 
L 328.705428 179.910846 
L 309.662162 179.692402 
L 309.783127 185.808076 
L 315.510148 186.818727 
L 315.17983 190.562326 
L 313.225451 189.550666 
L 307.721167 191.160838 
L 307.671418 198.262162 
L 312.006963 201.827976 
L 313.537333 207.424688 
L 308.912887 238.461918 
L 304.022014 233.266234 
L 301.103198 233.034405 
L 307.407012 223.087501 
L 299.92259 218.510531 
L 294.056675 219.350467 
L 290.527226 217.659483 
L 285.141634 220.243941 
L 277.86404 219.019644 
L 272.10621 208.772222 
L 267.58202 206.253929 
L 264.462185 201.640594 
L 257.962403 197.011601 
L 255.356732 197.93841 
L 246.37376 192.386144 
L 243.597374 193.941264 
L 235.303321 192.585143 
L 232.922155 188.380412 
L 231.099852 188.536479 
L 221.324168 182.955677 
z
" clip-path="url(#p984e128b17)" style="fill: #e8edf4; stroke: #b8c5d4; stroke-width: 0.45"/>
    <path d="M 181.148908 116.063075 
L 182.478259 112.141184 
L 182.098192 110.372419 
L 183.559115 109.214793 
L 181.52645 107.762203 
L 181.470387 103.828443 
L 185.249847 102.955425 
L 188.759345 106.461136 
L 188.559336 108.531934 
L 192.459256 108.971347 
L 193.382024 108.176363 
L 196.068506 110.577984 
L 200.877052 109.87164 
L 205.034812 107.403096 
L 210.970427 105.431797 
L 214.306181 102.510961 
L 219.702379 103.084471 
L 219.338221 104.045877 
L 224.787705 104.379225 
L 229.136634 106.067431 
L 236.003352 111.709095 
L 234.817188 113.138198 
L 237.086228 118.895018 
L 235.24347 121.799945 
L 232.093331 121.098398 
L 230.84075 125.849113 
L 227.582525 123.029544 
L 225.488746 117.753806 
L 227.903499 115.142832 
L 225.427127 114.473106 
L 223.602804 111.24367 
L 218.733649 108.526883 
L 214.456945 109.149638 
L 212.475797 112.549536 
L 208.528148 115.004695 
L 206.39573 115.345872 
L 205.437607 117.3798 
L 210.099682 122.684832 
L 206.019451 125.381921 
L 201.472281 125.88068 
L 199.780034 120.042039 
L 198.507756 121.703728 
L 195.284381 121.129965 
L 193.312071 117.197468 
L 186.767338 115.404965 
L 182.572961 115.419612 
L 182.27118 117.540918 
z
" clip-path="url(#p984e128b17)" style="fill: #e8edf4; stroke: #b8c5d4; stroke-width: 0.45"/>
    <path d="M 152.062774 89.9647 
L 155.775564 86.819106 
L 162.21499 89.407352 
L 164.462312 88.133305 
L 167.561944 88.948746 
L 169.181965 90.959946 
L 172.066436 91.610984 
L 174.406691 89.539681 
L 176.882305 94.850016 
L 185.249847 102.955425 
L 181.470387 103.828443 
L 181.52645 107.762203 
L 183.559115 109.214793 
L 182.098192 110.372419 
L 182.478259 112.141184 
L 181.148908 116.063075 
L 175.845138 113.894292 
L 173.860707 111.842686 
L 174.986262 110.145894 
L 174.631196 107.986455 
L 171.92148 105.646453 
L 164.710808 102.472575 
L 164.068608 99.613611 
L 161.504858 97.867321 
L 162.133169 100.708861 
L 160.18283 103.044318 
L 157.948893 100.332077 
L 154.808602 99.366378 
L 153.472937 97.396594 
L 153.529 94.420957 
L 154.822997 91.342286 
z
" clip-path="url(#p984e128b17)" style="fill: #e8edf4; stroke: #b8c5d4; stroke-width: 0.45"/>
    <path d="M 135.185766 70.274183 
L 136.270915 68.762753 
L 137.88437 70.23403 
L 141.663072 69.141557 
L 142.886864 66.909135 
L 144.321018 66.822263 
L 144.11318 62.01599 
L 148.442412 61.854619 
L 150.552354 59.246676 
L 153.435309 61.222268 
L 159.650736 56.156387 
L 159.813117 54.144682 
L 160.751037 54.229282 
L 162.00488 51.893825 
L 163.025885 51.609469 
L 164.691867 53.102717 
L 166.649025 53.544403 
L 168.808969 52.301672 
L 171.278017 52.295106 
L 174.670844 51.018282 
L 176.025449 49.687162 
L 179.375597 49.886919 
L 178.037154 53.006753 
L 179.03442 56.583174 
L 176.782806 59.912362 
L 175.73377 63.845111 
L 175.417341 68.151867 
L 176.188335 75.071365 
L 174.695087 76.031508 
L 173.781158 80.211996 
L 174.453157 82.793171 
L 172.453322 85.292523 
L 172.90814 87.934054 
L 174.406691 89.539681 
L 172.066436 91.610984 
L 169.181965 90.959946 
L 167.561944 88.948746 
L 164.462312 88.133305 
L 162.21499 89.407352 
L 155.775564 86.819106 
L 154.302772 88.076737 
L 146.353683 81.054962 
L 144.202073 77.760372 
z
" clip-path="url(#p984e128b17)" style="fill: #e8edf4; stroke: #b8c5d4; stroke-width: 0.45"/>
    <path d="M 118.718624 55.474539 
L 120.749522 52.993116 
L 119.970699 51.07485 
L 120.658861 49.196989 
L 129.746384 42.733572 
L 130.76158 43.115407 
L 132.905362 41.397149 
L 142.665642 42.450226 
L 147.183518 42.194912 
L 151.474112 40.019563 
L 156.927383 41.189059 
L 161.426067 40.112244 
L 167.441484 41.683526 
L 173.249821 45.70138 
L 176.803514 47.198416 
L 179.375597 49.886919 
L 176.025449 49.687162 
L 174.670844 51.018282 
L 171.278017 52.295106 
L 168.808969 52.301672 
L 166.649025 53.544403 
L 164.691867 53.102717 
L 163.025885 51.609469 
L 162.00488 51.893825 
L 160.751037 54.229282 
L 159.813117 54.144682 
L 159.650736 56.156387 
L 153.435309 61.222268 
L 150.552354 59.246676 
L 148.442412 61.854619 
L 144.11318 62.01599 
L 144.321018 66.822263 
L 142.886864 66.909135 
L 141.663072 69.141557 
L 138.624554 69.543343 
L 136.936096 66.485632 
L 133.967783 65.635847 
L 134.648116 61.720775 
L 133.318764 60.662647 
L 131.307059 59.965647 
L 127.019748 61.130092 
L 126.655843 59.813872 
L 121.600064 56.296545 
z
" clip-path="url(#p984e128b17)" style="fill: #e8edf4; stroke: #b8c5d4; stroke-width: 0.45"/>
    <path d="M 111.464263 62.206655 
L 111.766044 60.773511 
L 116.950617 57.227142 
L 116.431402 56.076081 
L 118.718624 55.474539 
L 121.600064 56.296545 
L 126.655843 59.813872 
L 127.019748 61.130092 
L 131.307059 59.965647 
L 134.648116 61.720775 
L 132.882886 67.937211 
L 127.22203 67.791245 
L 123.704198 66.855093 
L 119.662605 64.912077 
L 114.23181 64.305232 
z
" clip-path="url(#p984e128b17)" style="fill: #e8edf4; stroke: #b8c5d4; stroke-width: 0.45"/>
    <path d="M 90.610059 47.388576 
L 95.314054 39.42181 
L 107.858548 39.392515 
L 108.108812 36.064086 
L 106.525661 35.47113 
L 105.441017 33.353107 
L 98.187919 27.833924 
L 102.602255 27.80968 
L 102.609579 22.30767 
L 120.773513 22.39833 
L 119.932566 41.177443 
L 122.85012 41.17416 
L 126.036624 42.942167 
L 126.879338 41.48579 
L 129.746384 42.733572 
L 120.658861 49.196989 
L 119.970699 51.07485 
L 120.749522 52.993116 
L 118.718624 55.474539 
L 116.431402 56.076081 
L 116.950617 57.227142 
L 111.766044 60.773511 
L 111.464263 62.206655 
L 106.449647 60.501781 
L 100.352913 60.325259 
L 95.883019 58.386284 
L 90.624706 54.35353 
L 90.864363 51.506687 
L 91.998251 49.214919 
z
" clip-path="url(#p984e128b17)" style="fill: #e8edf4; stroke: #b8c5d4; stroke-width: 0.45"/>
    <path d="M 119.932566 41.177443 
L 120.696994 20.960135 
L 121.880127 20.510115 
L 123.654196 21.66648 
L 127.15536 15.766724 
L 129.013271 15.638183 
L 129.049383 17.072085 
L 130.901738 17.117036 
L 130.738852 19.775487 
L 129.156711 24.002947 
L 130.0118 25.514629 
L 128.471833 34.88474 
L 126.552303 37.477784 
L 124.787074 37.788909 
L 122.85012 41.17416 
z
" clip-path="url(#p984e128b17)" style="fill: #e8edf4; stroke: #b8c5d4; stroke-width: 0.45"/>
    <path d="M 275.571514 107.003079 
L 278.28224 101.287675 
L 279.477748 94.313377 
L 282.318277 90.681145 
L 286.101525 87.878749 
L 288.580675 82.992169 
L 294.85873 81.353966 
L 294.58094 83.663411 
L 288.843313 84.804118 
L 292.031333 89.239667 
L 291.912135 94.351004 
L 287.600834 100.028023 
L 291.300492 107.782406 
L 295.51381 107.147782 
L 297.708604 100.083328 
L 294.677914 96.64353 
L 294.183953 89.244466 
L 306.35545 85.27131 
L 305.00135 80.664541 
L 308.428017 77.581072 
L 311.936252 84.449052 
L 318.790596 84.607645 
L 325.140876 90.057885 
L 325.523469 93.293887 
L 334.299109 93.379749 
L 344.741237 92.375412 
L 350.337949 96.752373 
L 357.812775 97.960255 
L 363.295593 94.90709 
L 363.407719 92.44587 
L 387.226953 91.720585 
L 378.927344 94.607329 
L 382.266128 99.221169 
L 390.082635 99.955545 
L 397.492811 104.761565 
L 399.050203 112.591962 
L 404.143862 112.371245 
L 407.973324 114.675135 
L 400.229548 120.41655 
L 399.37547 123.980091 
L 402.721072 127.607019 
L 400.293945 129.437908 
L 394.27979 131.006665 
L 394.474495 135.519995 
L 391.826904 138.210013 
L 398.441085 145.62625 
L 399.735081 148.3842 
L 396.160681 152.114163 
L 385.22838 155.77291 
L 378.200039 157.289392 
L 375.378702 159.599847 
L 367.607147 157.15681 
L 360.371473 155.90625 
L 358.539827 156.805784 
L 362.914263 159.339482 
L 362.520053 165.892044 
L 363.876931 172.047367 
L 372.15659 172.887303 
L 372.685149 174.941434 
L 365.70378 177.722365 
L 364.567871 181.861689 
L 353.2752 185.747467 
L 351.38345 188.738508 
L 343.784377 189.37187 
L 338.403331 184.202449 
L 335.422644 174.455302 
L 332.824802 171.037979 
L 329.278433 168.884096 
L 334.23143 164.018729 
L 333.895304 161.830501 
L 331.116898 158.926333 
L 329.150649 152.432106 
L 329.916087 145.422453 
L 332.097244 142.140995 
L 333.857423 136.876873 
L 330.400957 135.197254 
L 324.830257 136.311949 
L 317.790552 135.788694 
L 313.840377 136.833942 
L 306.961285 128.42347 
L 301.283509 127.178213 
L 288.715024 128.118153 
L 286.387144 124.708912 
L 283.981482 123.894229 
L 283.637527 121.85424 
L 284.798437 118.236656 
L 284.026686 114.301381 
L 281.870277 112.151033 
L 280.616939 107.657653 
z
" clip-path="url(#p984e128b17)" style="fill: #e8edf4; stroke: #b8c5d4; stroke-width: 0.45"/>
    <path d="M 391.826904 138.210013 
L 394.474495 135.519995 
L 394.27979 131.006665 
L 400.293945 129.437908 
L 402.721072 127.607019 
L 399.37547 123.980091 
L 400.229548 120.41655 
L 407.973324 114.675135 
L 414.39078 118.270243 
L 420.438016 124.637949 
L 420.712524 129.670494 
L 424.395009 129.90207 
L 433.491118 138.072381 
L 431.929181 146.864688 
L 425.99609 149.415054 
L 426.524649 151.719954 
L 424.721539 156.762601 
L 429.052539 163.860389 
L 432.181465 163.871753 
L 433.465107 169.389674 
L 439.434058 177.887019 
L 437.055922 178.237034 
L 431.649875 177.407957 
L 428.471957 180.007315 
L 420.960767 182.144278 
L 419.880416 184.058504 
L 415.082982 183.573634 
L 409.070342 178.987825 
L 408.361725 174.46515 
L 405.859847 169.523518 
L 407.414966 161.203453 
L 410.125945 157.760119 
L 407.884179 153.218252 
L 404.52595 151.737884 
L 405.796965 147.44628 
L 403.52237 145.19416 
L 398.441085 145.62625 
z
" clip-path="url(#p984e128b17)" style="fill: #e8edf4; stroke: #b8c5d4; stroke-width: 0.45"/>
    <path d="M 424.721539 156.762601 
L 426.524649 151.719954 
L 425.99609 149.415054 
L 431.929181 146.864688 
L 433.491118 138.072381 
L 445.201232 140.029791 
L 446.252288 138.268097 
L 454.154658 137.562762 
L 464.663455 140.189394 
L 459.575352 148.592795 
L 460.348366 155.279454 
L 464.185657 161.071124 
L 461.617361 169.74676 
L 459.124574 173.857043 
L 453.525842 171.785992 
L 448.910992 172.785278 
L 444.966626 171.916806 
L 443.989057 174.746981 
L 445.628523 176.689996 
L 444.747929 178.687054 
L 439.434058 177.887019 
L 433.465107 169.389674 
L 432.181465 163.871753 
L 429.052539 163.860389 
z
" clip-path="url(#p984e128b17)" style="fill: #e8edf4; stroke: #b8c5d4; stroke-width: 0.45"/>
    <path d="M 947.151694 -279.3746 
L 959.823719 -281.500704 
L 976.236818 -278.986199 
L 973.138701 -290.049314 
L 982.365371 -285.856705 
L 1005.120922 -293.478254 
L 1008.055395 -301.487193 
L 1016.603248 -303.460513 
L 1018.018967 -300.023492 
L 1022.562097 -299.862374 
L 1033.92674 -291.331189 
L 1038.942619 -292.092334 
L 1049.679457 -286.788059 
L 1052.499783 -286.994634 
L 1057.112108 -284.43543 
L 1071.196569 -282.63535 
L 1066.254937 -275.94263 
L 1065.014478 -268.979444 
L 1062.331026 -267.309926 
L 1057.877799 -268.20946 
L 1058.191954 -265.726017 
L 1051.044163 -260.233855 
L 1050.899713 -255.808407 
L 1055.566586 -257.339788 
L 1058.923805 -253.05374 
L 1058.520756 -250.292002 
L 1061.397146 -246.622143 
L 1058.008613 -243.645244 
L 1060.526401 -236.082788 
L 1065.824109 -234.842834 
L 1064.705878 -230.600475 
L 1055.851447 -225.078767 
L 1036.574837 -227.725096 
L 1022.338855 -224.553996 
L 1021.220623 -218.668382 
L 1009.89083 -217.401407 
L 998.893374 -221.822562 
L 995.340187 -219.70959 
L 977.348483 -224.151453 
L 973.452856 -227.951368 
L 978.50712 -233.813748 
L 980.368313 -253.286074 
L 970.282514 -263.543092 
L 963.073862 -268.48826 
L 948.136839 -272.247517 
z
" clip-path="url(#p984e128b17)" style="fill: #e8edf4; stroke: #b8c5d4; stroke-width: 0.45"/>
    <path d="M 459.124574 173.857043 
L 461.617361 169.74676 
L 464.185657 161.071124 
L 460.348366 155.279454 
L 459.575352 148.592795 
L 464.663455 140.189394 
L 475.179072 143.577927 
L 485.527509 151.827787 
L 487.145509 155.830489 
L 481.363941 164.774823 
L 478.362546 171.972111 
L 474.616926 175.684649 
L 469.937173 176.383165 
L 468.604286 173.63178 
L 466.418078 173.223176 
L 463.392692 175.873293 
z
" clip-path="url(#p984e128b17)" style="fill: #e8edf4; stroke: #b8c5d4; stroke-width: 0.45"/>
    <path d="M 1075.545246 -216.55238 
L 1077.517555 -220.184358 
L 1083.811773 -223.916594 
L 1085.473463 -215.535668 
L 1082.245542 -207.985587 
L 1077.807972 -209.975574 
z
" clip-path="url(#p984e128b17)" style="fill: #e8edf4; stroke: #b8c5d4; stroke-width: 0.45"/>
    <path d="M 200.677043 218.413557 
L 202.660717 215.658385 
L 201.010391 206.787791 
L 204.434028 205.313988 
L 206.232844 199.225335 
L 209.931493 192.930613 
L 209.250149 188.942053 
L 214.604679 186.845495 
L 221.324168 182.955677 
L 231.099852 188.536479 
L 232.922155 188.380412 
L 235.303321 192.585143 
L 243.597374 193.941264 
L 246.37376 192.386144 
L 255.356732 197.93841 
L 256.720176 205.360455 
L 253.67787 211.715281 
L 243.020581 221.949067 
L 231.267536 225.803277 
L 225.278383 234.307189 
L 223.429059 240.901419 
L 217.903057 244.921799 
L 213.801108 239.986732 
L 209.853206 238.93012 
L 205.813381 239.708437 
L 205.548976 236.126966 
L 208.33723 233.79959 
L 207.178593 229.730724 
L 212.380843 222.426361 
L 210.267114 218.15799 
L 206.531342 222.696575 
z
" clip-path="url(#p984e128b17)" style="fill: #e8edf4; stroke: #b8c5d4; stroke-width: 0.45"/>
    <path d="M 334.825143 16.865005 
L 336.210557 15.436659 
L 344.20788 15.493732 
L 349.203556 16.354629 
L 350.965755 18.296129 
L 348.462109 20.760379 
L 335.394612 21.04726 
z
" clip-path="url(#p984e128b17)" style="fill: #e8edf4; stroke: #b8c5d4; stroke-width: 0.45"/>
    <path d="M 226.382472 18.316332 
L 227.555251 16.082395 
L 233.889875 15.730611 
L 240.467438 16.606913 
L 245.659839 18.954239 
L 247.279355 21.630619 
L 240.409355 21.812698 
L 237.440284 23.446104 
L 231.970093 21.8776 
z
" clip-path="url(#p984e128b17)" style="fill: #e8edf4; stroke: #b8c5d4; stroke-width: 0.45"/>
    <path d="M 161.512182 -17.55394 
L 166.671248 -20.573266 
L 168.789271 -24.099684 
L 173.208153 -26.273012 
L 178.199535 -28.178147 
L 185.599357 -29.113542 
L 187.967391 -30.187327 
L 204.088053 -29.379715 
L 213.268004 -26.050023 
L 217.158327 -22.471834 
L 226.287518 -23.575923 
L 244.111033 -10.817784 
L 247.3286 -10.952133 
L 253.157645 -8.958863 
L 252.445745 -6.207227 
L 259.650609 -5.804684 
L 267.038309 -1.804507 
L 265.878914 0.484988 
L 259.37989 1.7257 
L 252.801316 2.211075 
L 246.067433 1.437808 
L 232.073128 2.38987 
L 238.625185 -3.062643 
L 234.641928 -5.601392 
L 228.341397 -6.254704 
L 224.964228 -9.07604 
L 222.647459 -14.642195 
L 217.123982 -14.261623 
L 208.010196 -16.882446 
L 205.07749 -18.932536 
L 192.338291 -20.44725 
L 188.926777 -22.353647 
L 192.591838 -24.795674 
L 183.004798 -25.295949 
L 175.98176 -20.217189 
L 171.932086 -20.08082 
L 170.531014 -17.696118 
L 165.694184 -16.627384 
z
" clip-path="url(#p984e128b17)" style="fill: #e8edf4; stroke: #b8c5d4; stroke-width: 0.45"/>
    <path d="M 379.367767 413.909064 
L 383.217432 402.206022 
L 383.463908 396.948719 
L 388.151741 388.347833 
L 405.18507 385.503768 
L 414.260218 385.642158 
L 423.365166 390.641369 
L 423.532093 393.654634 
L 426.422372 399.088712 
L 425.772596 412.35647 
L 436.090223 414.232816 
L 440.079793 412.31859 
L 446.68059 414.963656 
L 448.510974 417.882977 
L 449.420358 426.839433 
L 450.562832 430.601721 
L 454.206933 431.035073 
L 457.872751 429.4547 
L 461.390079 431.228011 
L 461.385028 436.601481 
L 456.543905 456.647316 
L 447.678614 464.134516 
L 439.94898 465.704787 
L 428.972484 464.213307 
L 419.116493 461.553088 
L 428.738888 446.696371 
L 427.335796 442.383049 
L 417.269695 438.562679 
L 405.327753 431.343168 
L 397.336743 429.856738 
z
" clip-path="url(#p984e128b17)" style="fill: #e8edf4; stroke: #b8c5d4; stroke-width: 0.45"/>
    <path d="M 386.552036 97.835294 
L 389.386425 95.147511 
L 389.19095 91.286878 
L 394.81086 90.01629 
L 396.863348 90.358371 
L 396.472398 97.639819 
L 388.311312 98.714932 
z
" clip-path="url(#p984e128b17)" style="fill: #e8edf4; stroke: #b8c5d4; stroke-width: 0.45"/>
   </g>
   <g id="PathCollection_1">
    <defs>
     <path id="mb69c26a7cf" d="M 0 2.12132 
C 0.562581 2.12132 1.102195 1.897805 1.5 1.5 
C 1.897805 1.102195 2.12132 0.562581 2.12132 0 
C 2.12132 -0.562581 1.897805 -1.102195 1.5 -1.5 
C 1.102195 -1.897805 0.562581 -2.12132 0 -2.12132 
C -0.562581 -2.12132 -1.102195 -1.897805 -1.5 -1.5 
C -1.897805 -1.102195 -2.12132 -0.562581 -2.12132 0 
C -2.12132 0.562581 -1.897805 1.102195 -1.5 1.5 
C -1.102195 1.897805 -0.562581 2.12132 0 2.12132 
z
" style="stroke: #ffffff; stroke-width: 0.5"/>
    </defs>
    <g clip-path="url(#p984e128b17)">
     <use xlink:href="#mb69c26a7cf" x="388.0181" y="29.809955" style="fill: #8aa0b7; stroke: #ffffff; stroke-width: 0.5"/>
     <use xlink:href="#mb69c26a7cf" x="374.660634" y="18.081448" style="fill: #8aa0b7; stroke: #ffffff; stroke-width: 0.5"/>
     <use xlink:href="#mb69c26a7cf" x="308.199095" y="74.280543" style="fill: #8aa0b7; stroke: #ffffff; stroke-width: 0.5"/>
     <use xlink:href="#mb69c26a7cf" x="410.171946" y="67.764706" style="fill: #8aa0b7; stroke: #ffffff; stroke-width: 0.5"/>
     <use xlink:href="#mb69c26a7cf" x="377.918878" y="21.502262" style="fill: #8aa0b7; stroke: #ffffff; stroke-width: 0.5"/>
     <use xlink:href="#mb69c26a7cf" x="325.089774" y="77.423783" style="fill: #8aa0b7; stroke: #ffffff; stroke-width: 0.5"/>
     <use xlink:href="#mb69c26a7cf" x="124.615385" y="27.855204" style="fill: #8aa0b7; stroke: #ffffff; stroke-width: 0.5"/>
     <use xlink:href="#mb69c26a7cf" x="317.744796" y="77.509792" style="fill: #8aa0b7; stroke: #ffffff; stroke-width: 0.5"/>
     <use xlink:href="#mb69c26a7cf" x="392.579186" y="45.773756" style="fill: #8aa0b7; stroke: #ffffff; stroke-width: 0.5"/>
     <use xlink:href="#mb69c26a7cf" x="389.321267" y="78.027149" style="fill: #8aa0b7; stroke: #ffffff; stroke-width: 0.5"/>
     <use xlink:href="#mb69c26a7cf" x="390.13575" y="37.628959" style="fill: #8aa0b7; stroke: #ffffff; stroke-width: 0.5"/>
     <use xlink:href="#mb69c26a7cf" x="284.253394" y="10.751131" style="fill: #8aa0b7; stroke: #ffffff; stroke-width: 0.5"/>
     <use xlink:href="#mb69c26a7cf" x="234.570136" y="18.081448" style="fill: #8aa0b7; stroke: #ffffff; stroke-width: 0.5"/>
     <use xlink:href="#mb69c26a7cf" x="378.733032" y="27.040724" style="fill: #8aa0b7; stroke: #ffffff; stroke-width: 0.5"/>
     <use xlink:href="#mb69c26a7cf" x="205.248869" y="5.864253" style="fill: #8aa0b7; stroke: #ffffff; stroke-width: 0.5"/>
     <use xlink:href="#mb69c26a7cf" x="396.162896" y="60.760181" style="fill: #8aa0b7; stroke: #ffffff; stroke-width: 0.5"/>
     <use xlink:href="#mb69c26a7cf" x="375.799928" y="19.832905" style="fill: #8aa0b7; stroke: #ffffff; stroke-width: 0.5"/>
     <use xlink:href="#mb69c26a7cf" x="395.837104" y="53.104069" style="fill: #8aa0b7; stroke: #ffffff; stroke-width: 0.5"/>
     <use xlink:href="#mb69c26a7cf" x="384.108597" y="32.742081" style="fill: #8aa0b7; stroke: #ffffff; stroke-width: 0.5"/>
     <use xlink:href="#mb69c26a7cf" x="342.081448" y="18.081448" style="fill: #8aa0b7; stroke: #ffffff; stroke-width: 0.5"/>
     <use xlink:href="#mb69c26a7cf" x="122.986425" y="61.248869" style="fill: #8aa0b7; stroke: #ffffff; stroke-width: 0.5"/>
     <use xlink:href="#mb69c26a7cf" x="375.753991" y="20.109502" style="fill: #8aa0b7; stroke: #ffffff; stroke-width: 0.5"/>
     <use xlink:href="#mb69c26a7cf" x="395.837104" y="88.941176" style="fill: #8aa0b7; stroke: #ffffff; stroke-width: 0.5"/>
     <use xlink:href="#mb69c26a7cf" x="393.882353" y="66.950226" style="fill: #8aa0b7; stroke: #ffffff; stroke-width: 0.5"/>
     <use xlink:href="#mb69c26a7cf" x="360.260633" y="16.413068" style="fill: #8aa0b7; stroke: #ffffff; stroke-width: 0.5"/>
     <use xlink:href="#mb69c26a7cf" x="357.75562" y="17.24286" style="fill: #8aa0b7; stroke: #ffffff; stroke-width: 0.5"/>
    </g>
   </g>
   <g id="PatchCollection_2">
    <defs>
     <path id="m572c0c18d6" d="M 200.677043 -213.586443 
L 202.660717 -216.341615 
L 201.010391 -225.212209 
L 204.434028 -226.686012 
L 206.232844 -232.774665 
L 209.931493 -239.069387 
L 209.250149 -243.057947 
L 214.604679 -245.154505 
L 221.324168 -249.044323 
L 231.099852 -243.463521 
L 232.922155 -243.619588 
L 235.303321 -239.414857 
L 243.597374 -238.058736 
L 246.37376 -239.613856 
L 255.356732 -234.06159 
L 256.720176 -226.639545 
L 253.67787 -220.284719 
L 243.020581 -210.050933 
L 231.267536 -206.196723 
L 225.278383 -197.692811 
L 223.429059 -191.098581 
L 217.903057 -187.078201 
L 213.801108 -192.013268 
L 209.853206 -193.06988 
L 205.813381 -192.291563 
L 205.548976 -195.873034 
L 208.33723 -198.20041 
L 207.178593 -202.269276 
L 212.380843 -209.573639 
L 210.267114 -213.84201 
L 206.531342 -209.303425 
z
" style="stroke: #b45309; stroke-width: 1.15"/>
    </defs>
    <g clip-path="url(#p984e128b17)">
     <use xlink:href="#m572c0c18d6" x="0" y="432" style="fill: #f59e0b; stroke: #b45309; stroke-width: 1.15"/>
    </g>
   </g>
   <g id="PathCollection_2">
    <defs>
     <path id="mec40df3b0d" d="M 0 3.316625 
C 0.879579 3.316625 1.723251 2.967164 2.345208 2.345208 
C 2.967164 1.723251 3.316625 0.879579 3.316625 0 
C 3.316625 -0.879579 2.967164 -1.723251 2.345208 -2.345208 
C 1.723251 -2.967164 0.879579 -3.316625 0 -3.316625 
C -0.879579 -3.316625 -1.723251 -2.967164 -2.345208 -2.345208 
C -2.967164 -1.723251 -3.316625 -0.879579 -3.316625 0 
C -3.316625 0.879579 -2.967164 1.723251 -2.345208 2.345208 
C -1.723251 2.967164 -0.879579 3.316625 0 3.316625 
z
" style="stroke: #ffffff"/>
    </defs>
    <g clip-path="url(#p984e128b17)">
     <use xlink:href="#mec40df3b0d" x="234.570136" y="216" style="fill: #f97316; stroke: #ffffff"/>
    </g>
   </g>
   <g id="PathCollection_3">
    <path d="M 234.570136 220.449719 
C 235.750215 220.449719 236.88212 219.980869 237.716562 219.146427 
C 238.551004 218.311984 239.019855 217.180079 239.019855 216 
C 239.019855 214.819921 238.551004 213.688016 237.716562 212.853573 
C 236.88212 212.019131 235.750215 211.550281 234.570136 211.550281 
C 233.390056 211.550281 232.258151 212.019131 231.423709 212.853573 
C 230.589267 213.688016 230.120417 214.819921 230.120417 216 
C 230.120417 217.180079 230.589267 218.311984 231.423709 219.146427 
C 232.258151 219.980869 233.390056 220.449719 234.570136 220.449719 
L 234.570136 220.449719 
z
" clip-path="url(#p984e128b17)" style="fill: none; stroke: #7c2d12; stroke-width: 1.1"/>
   </g>
  </g>
 </g>
 <defs>
  <clipPath id="p984e128b17">
   <rect x="0" y="0" width="469.140271" height="432"/>
  </clipPath>
 </defs>
</svg>
