<?xml version="1.0" encoding="utf-8" standalone="no"?>
<!DOCTYPE svg PUBLIC "-//W3C//DTD SVG 1.1//EN"
  "http://www.w3.org/Graphics/SVG/1.1/DTD/svg11.dtd">
<svg xmlns:xlink="http://www.w3.org/1999/xlink" width="576pt" height="415.796178pt" viewBox="0 0 576 415.796178" xmlns="http://www.w3.org/2000/svg" version="1.1">
 <metadata>
  <rdf:RDF xmlns:dc="http://purl.org/dc/elements/1.1/" xmlns:cc="http://creativecommons.org/ns#" xmlns:rdf="http://www.w3.org/1999/02/22-rdf-syntax-ns#">
   <cc:Work>
    <dc:type rdf:resource="http://purl.org/dc/dcmitype/StillImage"/>
    <dc:date>2026-06-09T04:56:57.351559</dc:date>
    <dc:format>image/svg+xml</dc:format>
    <dc:creator>
     <cc:Agent>
      <dc:title>Matplotlib v3.10.8, https://matplotlib.org/</dc:title>
     </cc:Agent>
    </dc:creator>
   </cc:Work>
  </rdf:RDF>
 </metadata>
 <defs>
  <style type="text/css">*{stroke-linejoin: round; stroke-linecap: butt}</style>
 </defs>
 <g id="figure_1">
  <g id="patch_1">
   <path d="M 0 415.796178 
L 576 415.796178 
L 576 0 
L 0 0 
z
" style="fill: #eaf3ff"/>
  </g>
  <g id="axes_1">
   <g id="PatchCollection_1">
    <path d="M -121.526821 -21.581443 
L -116.09677 -28.710998 
L -118.844366 -30.629746 
L -111.338548 -40.965316 
L -101.664598 -35.509743 
L -100.493029 -42.380435 
L -81.074155 -52.611973 
L -66.379474 -52.855523 
L -34.506003 -42.536419 
L -24.524637 -46.504733 
L -9.6111 -46.693723 
L 2.420294 -41.818957 
L 5.153307 -44.610547 
L 18.366755 -44.204873 
L 20.723991 -48.659995 
L 5.479985 -55.129874 
L 14.508356 -59.712361 
L 12.746628 -62.275228 
L 21.77743 -64.721182 
L 14.98622 -71.165053 
L 19.299716 -74.375306 
L 54.500659 -77.648787 
L 59.094514 -79.972562 
L 82.633379 -83.445136 
L 91.091036 -87.347772 
L 107.996628 -85.320375 
L 110.958607 -75.570346 
L 120.779853 -77.859766 
L 132.862082 -74.651564 
L 132.082818 -69.517079 
L 141.105607 -70.05366 
L 164.68257 -78.93095 
L 161.240297 -75.98161 
L 173.241342 -68.713752 
L 194.26298 -44.822742 
L 199.275934 -49.748192 
L 212.234651 -44.32835 
L 225.752902 -46.745865 
L 230.946695 -45.053167 
L 235.474006 -39.617282 
L 242.051319 -37.791385 
L 246.056043 -33.798572 
L 258.173272 -35.057401 
L 263.164836 -29.303102 
L 256.004169 -23.039827 
L 248.191118 -22.160908 
L 247.741935 -12.727591 
L 242.509738 -8.475429 
L 223.847766 -11.571092 
L 217.059959 5.271302 
L 212.24486 7.365542 
L 193.609624 11.123799 
L 202.077004 27.465482 
L 195.623167 29.914109 
L 196.374235 35.276832 
L 190.576185 33.896957 
L 185.858797 30.515936 
L 156.30318 29.274851 
L 152.884727 30.31079 
L 139.488008 26.355651 
L 134.148863 28.303567 
L 132.685617 33.857338 
L 117.209728 30.616564 
L 111.016456 31.943937 
L 108.909577 36.065575 
L 103.515985 37.804455 
L 91.108537 44.361837 
L 86.99249 51.093253 
L 83.487506 51.153047 
L 80.909569 46.697197 
L 68.94547 46.391908 
L 67.032069 38.685562 
L 62.448367 38.619692 
L 63.150336 29.184188 
L 51.888206 22.31301 
L 35.754586 23.04682 
L 24.724825 24.416486 
L 15.741177 15.93744 
L -8.295914 4.827711 
L -32.5119 10.386829 
L -32.142443 45.073043 
L -36.967751 45.531948 
L -43.55187 38.155682 
L -49.910426 35.520382 
L -60.588716 37.477777 
L -64.745112 40.607713 
L -65.273047 38.313917 
L -62.961021 34.393537 
L -64.754834 31.116061 
L -75.657716 27.911261 
L -79.901614 19.463084 
L -85.095893 17.083244 
L -85.410904 14.018206 
L -76.259056 14.911709 
L -75.897863 8.033726 
L -67.897166 6.506068 
L -59.680143 7.910978 
L -57.986958 -1.266635 
L -59.662642 -7.083644 
L -69.076513 -6.628628 
L -77.073321 -8.924611 
L -87.965508 -4.788147 
L -96.74166 -2.815843 
L -101.519647 -4.337074 
L -100.564976 -9.177884 
L -106.561881 -15.463196 
L -113.542083 -15.200549 
z
" clip-path="url(#pff0a548883)" style="fill: #e8edf4; stroke: #b8c5d4; stroke-width: 0.45"/>
    <path d="M -32.5119 10.386829 
L -8.295914 4.827711 
L 15.741177 15.93744 
L 24.724825 24.416486 
L 35.754586 23.04682 
L 51.888206 22.31301 
L 63.150336 29.184188 
L 62.448367 38.619692 
L 67.032069 38.685562 
L 68.94547 46.391908 
L 80.909569 46.697197 
L 83.487506 51.153047 
L 86.99249 51.093253 
L 91.108537 44.361837 
L 103.515985 37.804455 
L 108.909577 36.065575 
L 111.702869 36.991649 
L 103.808148 43.084779 
L 110.749085 46.625736 
L 117.449389 44.280411 
L 128.59971 49.23673 
L 116.553455 56.011655 
L 109.397649 55.084851 
L 105.514458 55.327915 
L 104.166911 52.713032 
L 106.127952 48.350761 
L 93.549386 50.53688 
L 90.559212 56.573133 
L 86.088778 61.772516 
L 78.23392 61.330139 
L 75.795501 65.472437 
L 82.698521 67.716891 
L 84.730536 74.720782 
L 79.443407 84.241115 
L 72.348367 82.254795 
L 67.106933 82.192328 
L 67.366039 76.436085 
L 54.853102 72.409728 
L 45.015327 67.802935 
L 28.12043 56.87672 
L 23.496379 47.17822 
L 20.339949 45.470695 
L 10.168691 45.903836 
L 6.569398 43.977067 
L 5.563599 36.470762 
L -7.111706 31.499373 
L -15.037053 36.964912 
L -23.073723 40.205928 
L -21.529294 44.944462 
L -32.142443 45.073043 
z
" clip-path="url(#pff0a548883)" style="fill: #e8edf4; stroke: #b8c5d4; stroke-width: 0.45"/>
    <path d="M 558.622815 460.028606 
L 562.509895 453.867904 
L 563.849664 446.399032 
L 568.577746 432.218674 
L 570.550454 428.34083 
L 578.547262 421.353711 
L 585.894602 424.131447 
L 597.75467 425.436701 
L 608.572479 425.042451 
L 617.871138 418.211379 
L 619.512793 420.313154 
L 611.954473 429.644626 
L 604.884711 431.453509 
L 595.831061 429.614 
L 580.155374 430.0836 
L 571.936892 431.437953 
L 570.599067 438.558271 
L 579.018806 446.923564 
L 584.097873 442.662651 
L 601.639806 439.461497 
L 600.866862 443.793871 
L 596.768316 442.427365 
L 592.683868 447.939086 
L 584.403161 451.585533 
L 593.30514 463.64151 
L 591.586677 466.872318 
L 600.044334 477.729989 
L 599.96315 483.90965 
L 594.941447 486.675233 
L 591.252707 483.367131 
L 595.798005 475.664917 
L 586.566431 479.306989 
L 584.226211 476.703287 
L 585.446392 473.071423 
L 578.663933 467.555328 
L 579.362013 458.38841 
L 573.088043 461.247815 
L 574.266418 485.674781 
L 568.300653 487.040315 
L 564.258984 484.279107 
L 566.956023 475.620193 
L 565.500069 466.542237 
L 561.544445 466.47272 
z
" clip-path="url(#pff0a548883)" style="fill: #e8edf4; stroke: #b8c5d4; stroke-width: 0.45"/>
    <path d="M 466.290556 429.762269 
L 467.386288 421.045992 
L 472.975303 414.794627 
L 474.545983 421.081722 
L 480.978917 426.396804 
L 487.047254 424.48389 
L 493.052881 425.161552 
L 498.534462 420.404546 
L 503.045731 419.579829 
L 511.945278 422.216102 
L 519.616866 420.211067 
L 524.439743 407.127657 
L 528.061884 403.856258 
L 531.320887 393.157307 
L 542.136265 393.161683 
L 550.290579 394.747189 
L 544.939766 403.243008 
L 551.854939 412.149118 
L 550.230299 416.476873 
L 560.776848 425.182456 
L 549.630417 426.292286 
L 546.492946 432.705775 
L 546.900321 441.230517 
L 537.854449 447.664423 
L 537.607496 457.032598 
L 533.979036 471.418102 
L 532.594057 468.072082 
L 521.907016 472.304799 
L 518.180358 466.55439 
L 511.473248 466.022566 
L 506.782112 463.008571 
L 495.598248 466.391537 
L 492.166183 461.838947 
L 486.004023 462.356187 
L 478.248821 461.270663 
L 476.810368 448.65418 
L 472.116315 446.039297 
L 467.600185 437.992418 
z
" clip-path="url(#pff0a548883)" style="fill: #e8edf4; stroke: #b8c5d4; stroke-width: 0.45"/>
    <path d="M 669.173697 442.491048 
L 681.854349 440.212079 
L 686.676254 437.146069 
L 701.778797 441.009329 
L 703.263432 444.505563 
L 705.890468 459.719915 
L 715.626642 465.350737 
L 723.488306 455.372471 
L 734.282295 449.69498 
L 742.645157 449.687202 
L 757.667975 456.332088 
L 767.7668 458.129789 
L 768.08327 519.443185 
L 759.706796 511.722498 
L 750.152434 509.830488 
L 747.835547 512.510512 
L 735.916658 512.799758 
L 739.911173 505.144213 
L 745.833186 502.532246 
L 743.380669 492.303138 
L 738.864539 484.405987 
L 720.627929 476.439805 
L 712.870296 475.65325 
L 698.743413 466.960307 
L 695.966649 471.531856 
L 692.356661 472.36119 
L 690.221101 468.911625 
L 690.191447 464.82426 
L 683.004529 460.203126 
L 693.136411 456.815299 
L 699.845465 456.998083 
L 699.056965 454.502301 
L 685.286414 454.483342 
L 681.559756 448.88266 
L 673.155573 447.145724 
z
" clip-path="url(#pff0a548883)" style="fill: #e8edf4; stroke: #b8c5d4; stroke-width: 0.45"/>
    <path d="M 337.792309 382.120254 
L 358.411433 384.316824 
L 366.730058 393.516556 
L 379.192924 403.808375 
L 388.105597 413.920569 
L 397.66871 414.068109 
L 405.573153 420.51198 
L 411.015844 428.388957 
L 418.179914 432.68633 
L 414.40999 440.367154 
L 419.801637 443.633935 
L 423.180714 443.875054 
L 424.775214 450.436812 
L 428.05269 455.68651 
L 434.959598 456.518275 
L 439.536008 462.472372 
L 437.173426 474.172504 
L 436.799107 488.723777 
L 426.38284 488.920659 
L 418.46041 481.056564 
L 406.38207 473.370392 
L 402.354985 467.668595 
L 395.233208 460.007702 
L 390.561517 452.9569 
L 383.407169 439.787689 
L 375.145422 431.946929 
L 368.914231 416.515764 
L 360.431295 410.592293 
L 355.514596 402.543469 
L 348.431709 397.274813 
L 338.618727 386.90886 
z
" clip-path="url(#pff0a548883)" style="fill: #e8edf4; stroke: #b8c5d4; stroke-width: 0.45"/>
    <path d="M 432.545486 498.122092 
L 439.000295 489.133583 
L 450.414583 489.689227 
L 458.006932 493.365328 
L 461.908597 494.082367 
L 463.19392 497.428387 
L 481.215661 498.366128 
L 483.288512 494.48877 
L 500.740997 499.012192 
L 504.164798 505.109697 
L 518.277097 506.824757 
L 529.815834 512.415231 
L 519.082125 515.999454 
L 508.736347 512.209599 
L 490.461332 511.769167 
L 481.657066 510.080357 
L 470.759045 506.487385 
L 463.854082 505.555477 
L 459.941722 506.731907 
L 442.786261 502.858438 
L 441.154329 498.813366 
z
" clip-path="url(#pff0a548883)" style="fill: #e8edf4; stroke: #b8c5d4; stroke-width: 0.45"/>
    <path d="M 639.82274 424.15235 
L 641.713778 416.636323 
L 644.835693 413.213009 
L 645.510925 418.349925 
L 651.064939 419.175128 
L 651.946289 423.017241 
L 651.454327 431.238154 
L 646.602282 430.316941 
L 645.171121 436.0411 
L 649.046535 441.007385 
L 646.412692 442.136174 
L 642.616518 436.177702 
z
" clip-path="url(#pff0a548883)" style="fill: #e8edf4; stroke: #b8c5d4; stroke-width: 0.45"/>
    <path d="M 644.520682 465.592342 
L 646.750065 460.420425 
L 658.369014 460.030064 
L 668.72014 462.773285 
L 672.139565 469.967009 
L 664.197204 466.089651 
L 656.339429 465.30261 
L 651.028479 465.923882 
z
" clip-path="url(#pff0a548883)" style="fill: #e8edf4; stroke: #b8c5d4; stroke-width: 0.45"/>
    <path d="M 602.763248 529.998971 
L 603.610083 526.800734 
L 607.655156 521.062478 
L 616.955759 517.325611 
L 617.909056 519.180676 
L 618.08309 522.03279 
L 611.944264 529.058313 
L 603.892038 531.127761 
z
" clip-path="url(#pff0a548883)" style="fill: #e8edf4; stroke: #b8c5d4; stroke-width: 0.45"/>
    <path d="M 569.470764 513.111852 
L 576.941581 511.156159 
L 582.835884 513.976188 
L 589.098187 513.260122 
L 597.528621 509.813473 
L 596.149961 515.039837 
L 582.015786 517.710138 
L 569.503334 516.550723 
z
" clip-path="url(#pff0a548883)" style="fill: #e8edf4; stroke: #b8c5d4; stroke-width: 0.45"/>
    <path d="M 539.548605 518.643991 
L 542.780871 513.227551 
L 547.938691 513.153659 
L 550.459751 509.827085 
L 553.851953 512.335992 
L 559.664101 511.567423 
L 561.997516 515.566799 
L 544.605796 518.718854 
z
" clip-path="url(#pff0a548883)" style="fill: #e8edf4; stroke: #b8c5d4; stroke-width: 0.45"/>
    <path d="M 702.975644 491.4529 
L 706.614799 484.892115 
L 708.753763 487.644086 
L 708.731401 492.12959 
L 703.89151 498.534328 
z
" clip-path="url(#pff0a548883)" style="fill: #e8edf4; stroke: #b8c5d4; stroke-width: 0.45"/>
    <path d="M 626.554359 463.558868 
L 636.070803 463.107741 
L 638.409079 466.209725 
L 634.888053 469.332126 
L 628.386576 467.604913 
z
" clip-path="url(#pff0a548883)" style="fill: #e8edf4; stroke: #b8c5d4; stroke-width: 0.45"/>
    <path d="M 560.504617 523.583052 
L 569.276799 521.733335 
L 577.509865 527.456035 
L 576.946442 529.995082 
L 572.989845 530.174463 
z
" clip-path="url(#pff0a548883)" style="fill: #e8edf4; stroke: #b8c5d4; stroke-width: 0.45"/>
    <path d="M -69.471735 254.933824 
L -41.250539 245.526759 
L -34.979 226.712385 
L -39.290471 220.049027 
L -39.04449 216.261117 
L -36.3037 212.367717 
L -36.277449 208.522686 
L -32.019939 206.670052 
L -33.6859 205.361881 
L -32.913442 199.235695 
L -28.11001 199.198992 
L -23.892849 205.624633 
L -18.64072 209.04017 
L -6.169103 211.983918 
L 0.612384 220.501126 
L 3.979793 221.692626 
L 3.961807 223.791241 
L -0.965102 232.037919 
L -4.928018 235.046809 
L -8.438349 241.491166 
L -12.706068 240.997746 
L -14.662248 243.240741 
L -16.173134 248.010145 
L -15.016635 254.298212 
L -15.903819 255.453981 
L -20.232304 255.423112 
L -26.108134 258.938791 
L -27.024972 263.521521 
L -29.176089 265.506868 
L -35.027613 265.431032 
L -38.711006 267.799934 
L -38.664338 271.599998 
L -43.216442 274.211964 
L -48.406831 273.325023 
L -54.697816 276.498225 
L -59.043315 277.030778 
z
" clip-path="url(#pff0a548883)" style="fill: #e8edf4; stroke: #b8c5d4; stroke-width: 0.45"/>
    <path d="M -31.176992 188.562022 
L -28.43766 185.359167 
L -27.274356 186.175863 
L -28.161054 190.062214 
L -29.387555 191.768524 
z
" clip-path="url(#pff0a548883)" style="fill: #e8edf4; stroke: #b8c5d4; stroke-width: 0.45"/>
    <path d="M 404.160465 307.668031 
L 410.184078 299.846229 
L 422.34749 298.049257 
L 431.165368 299.399478 
L 438.927862 303.088218 
L 443.183914 296.602053 
L 451.521983 300.06523 
L 453.702754 306.338957 
L 452.544311 317.611782 
L 436.732021 324.851445 
L 440.863138 330.550325 
L 430.987931 331.232362 
L 422.845285 335.021245 
L 414.970982 333.64769 
L 411.146126 328.745574 
L 406.38839 319.028602 
z
" clip-path="url(#pff0a548883)" style="fill: #e8edf4; stroke: #b8c5d4; stroke-width: 0.45"/>
    <path d="M 357.386189 260.150708 
L 361.354939 258.441968 
L 365.644047 248.271681 
L 372.285044 247.850451 
L 377.775375 243.77135 
L 383.162647 241.595927 
L 387.234942 244.499084 
L 387.77503 250.151782 
L 394.131642 250.582248 
L 391.816699 260.494158 
L 392.03886 268.927022 
L 401.954415 263.314673 
L 404.771042 264.973342 
L 410.280818 264.701354 
L 412.176231 261.428253 
L 419.290716 262.074317 
L 426.444578 269.713821 
L 427.031335 278.998625 
L 434.648476 287.197419 
L 434.227975 295.159468 
L 431.165368 299.399478 
L 422.34749 298.049257 
L 410.184078 299.846229 
L 404.160465 307.668031 
L 406.38839 319.028602 
L 397.942886 314.709354 
L 389.896493 314.884846 
L 391.276125 307.49424 
L 382.991529 307.549416 
L 382.247753 317.895924 
L 374.110941 339.945723 
L 374.756519 346.754677 
L 380.88465 347.049999 
L 384.702214 355.635994 
L 386.391996 363.77864 
L 391.641693 369.166155 
L 397.340087 370.2597 
L 402.214008 375.141885 
L 399.138761 379.006604 
L 392.929447 380.130046 
L 392.189074 375.299634 
L 384.513597 371.179698 
L 382.878262 372.857326 
L 379.161812 369.247582 
L 377.552728 364.588773 
L 367.996421 354.816139 
L 366.452478 360.345604 
L 364.668388 355.119969 
L 368.464563 340.228893 
L 373.022986 330.562235 
L 378.18907 321.792727 
L 374.51151 313.213537 
L 374.658807 308.843489 
L 373.583978 303.592333 
L 367.310008 296.118113 
L 365.064097 291.398781 
L 368.312405 289.660387 
L 371.755164 281.482496 
L 367.902112 275.273668 
L 361.931973 268.405407 
z
" clip-path="url(#pff0a548883)" style="fill: #e8edf4; stroke: #b8c5d4; stroke-width: 0.45"/>
    <path d="M 383.162647 241.595927 
L 385.167439 238.131535 
L 393.172025 232.01264 
L 394.01886 234.222579 
L 399.033758 234.479254 
L 397.612319 223.719051 
L 402.489156 222.340392 
L 407.987265 229.76843 
L 412.210746 238.315534 
L 423.792263 238.389183 
L 427.438224 246.593081 
L 421.425305 249.057508 
L 418.726808 252.439258 
L 429.997202 258.066677 
L 443.744906 277.470724 
L 450.86328 284.01571 
L 453.232182 290.660595 
L 451.521983 300.06523 
L 443.183914 296.602053 
L 438.927862 303.088218 
L 431.165368 299.399478 
L 434.227975 295.159468 
L 434.648476 287.197419 
L 427.031335 278.998625 
L 426.444578 269.713821 
L 419.290716 262.074317 
L 412.176231 261.428253 
L 410.280818 264.701354 
L 404.771042 264.973342 
L 401.954415 263.314673 
L 392.03886 268.927022 
L 391.816699 260.494158 
L 394.131642 250.582248 
L 387.77503 250.151782 
L 387.234942 244.499084 
z
" clip-path="url(#pff0a548883)" style="fill: #e8edf4; stroke: #b8c5d4; stroke-width: 0.45"/>
    <path d="M 309.66688 231.646586 
L 312.950189 233.071184 
L 313.142696 226.324455 
L 317.784247 224.092884 
L 316.788657 220.098126 
L 318.914981 216.894542 
L 319.28055 207.159097 
L 326.632752 209.302193 
L 330.827551 201.546018 
L 331.303471 196.962316 
L 336.495319 189.071485 
L 336.209476 183.688102 
L 348.387957 177.187597 
L 355.110623 178.888559 
L 354.339138 173.100474 
L 357.637031 171.374476 
L 356.927284 167.808727 
L 362.429282 167.109188 
L 365.573559 172.647403 
L 369.679397 174.890155 
L 369.57731 189.848561 
L 360.666582 197.704148 
L 359.538764 208.863219 
L 369.468417 207.302748 
L 371.711899 215.962634 
L 377.668913 217.784642 
L 374.930553 225.599395 
L 385.989968 230.862461 
L 392.89007 228.123615 
L 393.172025 232.01264 
L 385.167439 238.131535 
L 383.162647 241.595927 
L 377.775375 243.77135 
L 372.285044 247.850451 
L 365.644047 248.271681 
L 361.354939 258.441968 
L 357.386189 260.150708 
L 361.931973 268.405407 
L 367.902112 275.273668 
L 371.755164 281.482496 
L 368.312405 289.660387 
L 365.064097 291.398781 
L 367.310008 296.118113 
L 373.583978 303.592333 
L 374.658807 308.843489 
L 374.51151 313.213537 
L 378.18907 321.792727 
L 373.022986 330.562235 
L 368.464563 340.228893 
L 367.557934 333.245905 
L 370.449424 326.039785 
L 367.286674 320.473618 
L 368.050868 310.225551 
L 364.231845 305.351873 
L 361.166321 294.093146 
L 359.466817 282.209258 
L 355.397925 274.418569 
L 338.51032 285.842093 
L 333.233399 285.004252 
L 327.404723 282.798445 
L 330.647198 271.140121 
L 328.684212 262.332451 
L 321.310621 251.486204 
L 322.4608 248.095217 
L 316.95783 246.889376 
L 310.281346 239.215601 
z
" clip-path="url(#pff0a548883)" style="fill: #e8edf4; stroke: #b8c5d4; stroke-width: 0.45"/>
    <path d="M 402.489156 222.340392 
L 407.536625 220.044652 
L 415.03904 220.092049 
L 424.186027 219.006525 
L 432.204224 213.993329 
L 436.738827 217.522619 
L 445.338434 219.240596 
L 443.850881 224.659709 
L 448.330066 228.481892 
L 457.800814 230.923227 
L 445.241208 238.971321 
L 437.40142 247.859202 
L 435.334889 254.386687 
L 451.32656 276.594235 
L 459.863942 282.405168 
L 465.579836 289.959599 
L 469.889848 307.369062 
L 468.618623 323.917836 
L 460.773001 330.112809 
L 449.999916 336.16948 
L 442.325411 344.011699 
L 430.596112 352.770512 
L 427.180576 346.737905 
L 429.824141 340.365008 
L 422.845285 335.021245 
L 430.987931 331.232362 
L 440.863138 330.550325 
L 436.732021 324.851445 
L 452.544311 317.611782 
L 453.702754 306.338957 
L 451.521983 300.06523 
L 453.232182 290.660595 
L 450.86328 284.01571 
L 443.744906 277.470724 
L 429.997202 258.066677 
L 418.726808 252.439258 
L 421.425305 249.057508 
L 427.438224 246.593081 
L 423.792263 238.389183 
L 412.210746 238.315534 
L 407.987265 229.76843 
z
" clip-path="url(#pff0a548883)" style="fill: #e8edf4; stroke: #b8c5d4; stroke-width: 0.45"/>
    <path d="M 266.845798 -30.076532 
L 276.763784 -31.707005 
L 294.713579 -39.809303 
L 309.022274 -44.234041 
L 317.20178 -41.347167 
L 327.016793 -41.20838 
L 333.304374 -36.814268 
L 342.693378 -36.475861 
L 356.293676 -34.110808 
L 365.437443 -40.661486 
L 361.617934 -46.198485 
L 371.3614 -55.947784 
L 381.899686 -52.059245 
L 401.499281 -48.540065 
L 403.293037 -41.490814 
L 416.65736 -37.534223 
L 437.447602 -40.507383 
L 446.875571 -39.268242 
L 456.088671 -34.747251 
L 461.798732 -29.938714 
L 470.521815 -30.036669 
L 482.370702 -28.50488 
L 491.017949 -30.83635 
L 503.402549 -32.394148 
L 517.181364 -39.02372 
L 522.822395 -38.007226 
L 527.747845 -34.855171 
L 538.971571 -35.639296 
L 527.743956 -19.147156 
L 530.166819 -15.301154 
L 535.492352 -16.494598 
L 544.773024 -15.029894 
L 552.003694 -18.501335 
L 559.552292 -15.494146 
L 568.077521 -8.918534 
L 567.046929 -5.575431 
L 559.625211 -6.63592 
L 545.960149 -5.387786 
L 539.339084 -2.711164 
L 532.445787 3.506657 
L 518.102091 7.15116 
L 508.728569 12.14564 
L 493.765545 9.387592 
L 488.827455 15.451798 
L 491.831727 19.066646 
L 493.354281 22.171547 
L 486.770161 25.335025 
L 480.019786 30.3735 
L 469.027457 33.682818 
L 454.927797 34.039636 
L 439.730946 37.305687 
L 428.777993 42.356559 
L 424.613333 39.431526 
L 413.230643 39.43979 
L 399.315226 33.72584 
L 390.02872 32.324819 
L 377.516755 33.633476 
L 358.099825 31.524409 
L 347.72974 31.743166 
L 342.208297 26.157068 
L 337.922591 17.484785 
L 332.109471 16.440582 
L 320.743795 10.578606 
L 296.894836 7.656733 
L 293.510412 3.577389 
L 297.132553 -7.414211 
L 290.64177 -14.990761 
L 277.222203 -18.523454 
L 269.315815 -23.51283 
z
" clip-path="url(#pff0a548883)" style="fill: #e8edf4; stroke: #b8c5d4; stroke-width: 0.45"/>
    <path d="M 82.704354 210.795821 
L 88.969087 204.519664 
L 109.670853 204.544214 
L 107.803149 196.467438 
L 102.517964 191.69682 
L 101.446052 184.45667 
L 95.288753 180.231974 
L 105.656407 170.371108 
L 116.579706 171.086203 
L 126.420398 161.223635 
L 132.317618 151.677051 
L 141.449535 142.237901 
L 141.304183 135.53225 
L 149.325783 130.090532 
L 141.733434 125.445334 
L 135.133272 110.837914 
L 139.74517 106.78166 
L 154.014488 109.076671 
L 164.500272 107.678567 
L 173.585034 99.772179 
L 183.696013 110.798051 
L 182.744174 118.471827 
L 186.486389 123.286439 
L 186.178184 128.089871 
L 179.426836 126.825695 
L 182.065053 137.194808 
L 191.307321 143.151336 
L 204.382223 149.729136 
L 198.413056 153.996368 
L 194.760289 162.795773 
L 225.012043 176.247668 
L 237.907077 177.466877 
L 243.332753 182.252322 
L 261.918404 185.340694 
L 269.752358 185.183432 
L 270.830104 181.460177 
L 269.59145 175.482745 
L 270.318698 171.430867 
L 276.055982 169.452326 
L 277.046711 178.745637 
L 285.596732 182.316248 
L 291.511453 180.845711 
L 307.129291 181.197667 
L 307.789939 175.418819 
L 303.960708 172.416735 
L 311.547224 171.239576 
L 320.109884 164.242977 
L 330.952972 158.25242 
L 338.843804 160.563959 
L 345.549941 156.602744 
L 349.961068 162.452324 
L 346.783735 166.402844 
L 356.927284 167.808727 
L 357.637031 171.374476 
L 354.339138 173.100474 
L 355.110623 178.888559 
L 348.387957 177.187597 
L 336.209476 183.688102 
L 336.495319 189.071485 
L 331.303471 196.962316 
L 330.827551 201.546018 
L 326.632752 209.302193 
L 319.28055 207.159097 
L 318.914981 216.894542 
L 316.788657 220.098126 
L 317.784247 224.092884 
L 313.142696 226.324455 
L 308.188078 211.402266 
L 305.590696 211.43192 
L 304.053073 217.443866 
L 298.902545 212.568488 
L 301.807161 207.214759 
L 306.015572 206.671267 
L 310.353293 198.71019 
L 304.929075 197.104023 
L 296.20502 197.243542 
L 287.253943 195.953357 
L 286.424122 189.412261 
L 281.933271 188.948251 
L 274.482385 184.883248 
L 271.159213 191.265624 
L 277.948965 196.24552 
L 272.067786 199.750747 
L 269.979866 203.178923 
L 275.770138 205.699497 
L 274.169318 211.367994 
L 277.429294 218.442131 
L 278.893511 226.188339 
L 277.54645 229.623077 
L 271.14706 229.504705 
L 259.549987 231.457725 
L 260.090562 238.534292 
L 255.068858 244.100216 
L 241.531162 250.431792 
L 231.002113 261.499957 
L 223.929921 267.43388 
L 214.556399 273.591665 
L 214.541815 277.918691 
L 201.378924 283.607119 
L 196.984812 284.103699 
L 194.164296 291.279193 
L 196.621674 311.317881 
L 192.635423 320.255103 
L 192.592644 336.237295 
L 187.724557 336.692797 
L 183.442741 343.867805 
L 186.306035 346.96833 
L 177.728791 349.635229 
L 174.560694 356.032918 
L 170.785909 358.736763 
L 161.878097 349.952913 
L 153.914832 327.291322 
L 150.618884 322.841791 
L 145.621 313.804426 
L 141.661001 296.163323 
L 133.103687 283.243253 
L 126.393661 252.974971 
L 126.427204 241.580371 
L 124.602765 232.770514 
L 110.912911 238.401336 
L 104.282609 237.273519 
L 91.993776 225.872356 
L 96.516712 222.47189 
L 93.73849 218.780476 
z
" clip-path="url(#pff0a548883)" style="fill: #e8edf4; stroke: #b8c5d4; stroke-width: 0.45"/>
    <path d="M 269.979866 203.178923 
L 272.067786 199.750747 
L 277.948965 196.24552 
L 271.159213 191.265624 
L 274.482385 184.883248 
L 281.933271 188.948251 
L 286.424122 189.412261 
L 287.253943 195.953357 
L 296.20502 197.243542 
L 304.929075 197.104023 
L 310.353293 198.71019 
L 306.015572 206.671267 
L 301.807161 207.214759 
L 298.902545 212.568488 
L 304.053073 217.443866 
L 305.590696 211.43192 
L 308.188078 211.402266 
L 313.142696 226.324455 
L 312.950189 233.071184 
L 309.66688 231.646586 
L 310.281346 239.215601 
L 307.59403 234.31154 
L 307.051511 229.519775 
L 305.261101 224.991492 
L 301.330755 219.515745 
L 292.666007 219.139481 
L 293.521593 223.017325 
L 290.567878 228.25171 
L 286.565099 226.344143 
L 285.197135 228.05653 
L 278.893511 226.188339 
L 277.429294 218.442131 
L 274.169318 211.367994 
L 275.770138 205.699497 
z
" clip-path="url(#pff0a548883)" style="fill: #e8edf4; stroke: #b8c5d4; stroke-width: 0.45"/>
    <path d="M 276.845454 176.860918 
L 283.068866 169.867236 
L 288.148905 167.480833 
L 294.872057 169.658444 
L 299.842231 169.887411 
L 307.789939 175.418819 
L 307.129291 181.197667 
L 291.511453 180.845711 
L 285.596732 182.316248 
L 277.046711 178.745637 
z
" clip-path="url(#pff0a548883)" style="fill: #e8edf4; stroke: #b8c5d4; stroke-width: 0.45"/>
    <path d="M 194.760289 162.795773 
L 198.413056 153.996368 
L 208.281943 147.478606 
L 215.823735 150.370825 
L 225.32122 156.499928 
L 230.606891 157.849906 
L 233.763807 162.368467 
L 241.073716 164.222803 
L 248.70933 168.354406 
L 259.350675 170.511599 
L 270.318698 171.430867 
L 269.59145 175.482745 
L 270.830104 181.460177 
L 269.752358 185.183432 
L 261.918404 185.340694 
L 243.332753 182.252322 
L 237.907077 177.466877 
L 225.012043 176.247668 
z
" clip-path="url(#pff0a548883)" style="fill: #e8edf4; stroke: #b8c5d4; stroke-width: 0.45"/>
    <path d="M 14.009589 153.061544 
L 29.772293 157.865462 
L 39.183248 156.456663 
L 44.806292 157.656184 
L 46.710456 155.594028 
L 53.262004 156.420446 
L 65.48764 152.509302 
L 65.816749 144.504231 
L 71.060613 139.179669 
L 78.064261 139.196198 
L 79.092422 136.5643 
L 86.281771 135.337799 
L 89.760018 136.213802 
L 93.439035 133.568292 
L 92.919364 127.918997 
L 96.913879 122.241264 
L 102.901033 119.860938 
L 99.203543 113.637282 
L 108.152189 113.93139 
L 110.738877 110.544292 
L 110.346085 106.92993 
L 115.031388 102.978194 
L 113.956073 98.299454 
L 111.732037 94.312474 
L 117.225284 90.215143 
L 127.326054 88.239032 
L 138.121016 87.146216 
L 148.379291 84.353653 
L 155.329951 88.739501 
L 158.114007 95.967983 
L 173.585034 99.772179 
L 164.500272 107.678567 
L 154.014488 109.076671 
L 139.74517 106.78166 
L 135.133272 110.837914 
L 141.733434 125.445334 
L 149.325783 130.090532 
L 141.304183 135.53225 
L 141.449535 142.237901 
L 132.317618 151.677051 
L 126.420398 161.223635 
L 116.579706 171.086203 
L 105.656407 170.371108 
L 95.288753 180.231974 
L 101.446052 184.45667 
L 102.517964 191.69682 
L 107.803149 196.467438 
L 109.670853 204.544214 
L 88.969087 204.519664 
L 82.704354 210.795821 
L 75.809113 208.416953 
L 73.003667 201.655397 
L 65.735566 194.49157 
L 48.40364 196.261077 
L 33.119772 196.436326 
L 19.871322 197.754948 
L 23.416168 186.826302 
L 36.985462 181.966965 
L 36.207171 177.634834 
L 31.706111 176.112038 
L 31.446519 167.826957 
L 22.453634 163.690735 
L 18.666696 158.009356 
z
" clip-path="url(#pff0a548883)" style="fill: #e8edf4; stroke: #b8c5d4; stroke-width: 0.45"/>
    <path d="M 10.75642 116.870277 
L 17.175741 98.304072 
L 26.76948 101.873225 
L 33.862575 100.618528 
L 35.827505 96.355914 
L 43.253112 94.937392 
L 48.554826 92.076528 
L 50.432739 84.553209 
L 58.361488 82.733874 
L 59.835429 79.385424 
L 64.273292 81.900651 
L 72.348367 82.254795 
L 82.317882 85.387648 
L 89.127565 82.365875 
L 92.296148 84.183265 
L 95.330074 79.87617 
L 100.953604 80.071594 
L 102.402266 78.689288 
L 103.396884 74.896031 
L 107.446817 71.623416 
L 112.539009 73.76238 
L 111.516196 76.637585 
L 114.36199 77.084336 
L 113.485015 84.987564 
L 117.209728 88.068158 
L 120.487204 86.091561 
L 124.662559 85.157709 
L 130.524778 80.946138 
L 146.70458 81.654184 
L 148.379291 84.353653 
L 138.121016 87.146216 
L 127.326054 88.239032 
L 117.225284 90.215143 
L 111.732037 94.312474 
L 113.956073 98.299454 
L 115.031388 102.978194 
L 110.346085 106.92993 
L 110.738877 110.544292 
L 108.152189 113.93139 
L 99.203543 113.637282 
L 102.901033 119.860938 
L 96.913879 122.241264 
L 92.919364 127.918997 
L 93.439035 133.568292 
L 89.760018 136.213802 
L 86.281771 135.337799 
L 79.092422 136.5643 
L 78.064261 139.196198 
L 71.060613 139.179669 
L 65.816749 144.504231 
L 65.48764 152.509302 
L 53.262004 156.420446 
L 46.710456 155.594028 
L 44.806292 157.656184 
L 39.183248 156.456663 
L 29.772293 157.865462 
L 14.009589 153.061544 
L 22.541624 144.532912 
L 21.771111 138.477943 
L 14.646417 136.892193 
L 13.909933 130.920109 
L 10.828366 123.409916 
L 14.851077 118.258902 
z
" clip-path="url(#pff0a548883)" style="fill: #e8edf4; stroke: #b8c5d4; stroke-width: 0.45"/>
    <path d="M 75.795501 65.472437 
L 78.23392 61.330139 
L 86.088778 61.772516 
L 90.559212 56.573133 
L 93.549386 50.53688 
L 106.127952 48.350761 
L 104.166911 52.713032 
L 105.514458 55.327915 
L 109.397649 55.084851 
L 105.952945 57.988008 
L 95.714115 56.41271 
L 94.823042 61.836199 
L 105.022982 61.107006 
L 116.64582 64.161836 
L 134.431789 62.734077 
L 136.816248 71.43966 
L 139.908023 70.492439 
L 145.621 72.634077 
L 145.29335 76.291948 
L 146.70458 81.654184 
L 130.524778 80.946138 
L 124.662559 85.157709 
L 120.487204 86.091561 
L 117.209728 88.068158 
L 113.485015 84.987564 
L 114.36199 77.084336 
L 111.516196 76.637585 
L 112.539009 73.76238 
L 107.446817 71.623416 
L 103.396884 74.896031 
L 102.402266 78.689288 
L 100.953604 80.071594 
L 95.330074 79.87617 
L 92.296148 84.183265 
L 89.127565 82.365875 
L 82.317882 85.387648 
L 79.443407 84.241115 
L 84.730536 74.720782 
L 82.698521 67.716891 
z
" clip-path="url(#pff0a548883)" style="fill: #e8edf4; stroke: #b8c5d4; stroke-width: 0.45"/>
    <path d="M 94.823042 61.836199 
L 95.714115 56.41271 
L 105.952945 57.988008 
L 109.397649 55.084851 
L 116.553455 56.011655 
L 128.59971 49.23673 
L 117.449389 44.280411 
L 110.749085 46.625736 
L 103.808148 43.084779 
L 111.702869 36.991649 
L 108.909577 36.065575 
L 111.016456 31.943937 
L 117.209728 30.616564 
L 132.685617 33.857338 
L 134.148863 28.303567 
L 139.488008 26.355651 
L 152.884727 30.31079 
L 156.30318 29.274851 
L 185.858797 30.515936 
L 190.576185 33.896957 
L 196.374235 35.276832 
L 195.051966 37.403399 
L 180.228461 42.499237 
L 176.87515 46.233187 
L 164.808477 47.351039 
L 161.251478 53.357881 
L 151.293629 52.096136 
L 144.79361 53.936617 
L 135.813365 58.381043 
L 137.109383 60.581988 
L 134.431789 62.734077 
L 116.64582 64.161836 
L 105.022982 61.107006 
z
" clip-path="url(#pff0a548883)" style="fill: #e8edf4; stroke: #b8c5d4; stroke-width: 0.45"/>
    <path d="M -64.745112 40.607713 
L -60.588716 37.477777 
L -49.910426 35.520382 
L -43.55187 38.155682 
L -36.967751 45.531948 
L -21.529294 44.944462 
L -23.073723 40.205928 
L -15.037053 36.964912 
L -7.111706 31.499373 
L 5.563599 36.470762 
L 6.569398 43.977067 
L 10.168691 45.903836 
L 20.339949 45.470695 
L 23.496379 47.17822 
L 28.12043 56.87672 
L 45.015327 67.802935 
L 54.853102 72.409728 
L 67.366039 76.436085 
L 67.106933 82.192328 
L 64.273292 81.900651 
L 59.835429 79.385424 
L 58.361488 82.733874 
L 50.432739 84.553209 
L 48.554826 92.076528 
L 43.253112 94.937392 
L 35.827505 96.355914 
L 33.862575 100.618528 
L 26.76948 101.873225 
L 17.175741 98.304072 
L 16.350296 90.387719 
L 9.337898 90.051075 
L -1.413312 81.720054 
L -8.925936 80.69165 
L -19.327619 75.922976 
L -26.016742 75.055967 
L -30.146401 76.808216 
L -36.437871 76.535498 
L -43.128938 81.913533 
L -51.395061 83.73384 
L -53.145608 77.080934 
L -51.777644 67.241457 
L -59.11429 64.057318 
L -56.698719 57.61612 
L -62.943521 57.067282 
L -60.86192 49.138046 
L -51.992026 51.447398 
L -43.725904 48.437292 
L -50.579338 42.791157 
L -53.275405 37.410448 
L -60.847822 39.809976 
L -61.807925 46.70303 
z
" clip-path="url(#pff0a548883)" style="fill: #e8edf4; stroke: #b8c5d4; stroke-width: 0.45"/>
    <path d="M -143.701555 62.763245 
L -137.259872 60.083464 
L -135.766972 63.632199 
L -131.016042 67.974782 
L -124.563663 69.225346 
L -121.157364 68.948739 
L -110.062948 62.008531 
L -106.535116 61.313611 
L -103.755921 64.074333 
L -106.999368 68.728523 
L -101.132774 73.654459 
L -98.791581 73.185346 
L -95.815504 80.121908 
L -86.896026 82.081491 
L -80.361978 86.801552 
L -66.988107 88.423275 
L -52.296343 85.934056 
L -51.395061 83.73384 
L -43.128938 81.913533 
L -36.437871 76.535498 
L -30.146401 76.808216 
L -26.016742 75.055967 
L -19.327619 75.922976 
L -8.925936 80.69165 
L -1.413312 81.720054 
L 9.337898 90.051075 
L 16.350296 90.387719 
L 17.175741 98.304072 
L 10.75642 116.870277 
L 14.851077 118.258902 
L 10.828366 123.409916 
L 13.909933 130.920109 
L 14.646417 136.892193 
L 21.771111 138.477943 
L 22.541624 144.532912 
L 14.009589 153.061544 
L 18.666696 158.009356 
L 22.453634 163.690735 
L 31.446519 167.826957 
L 31.706111 176.112038 
L 36.207171 177.634834 
L 36.985462 181.966965 
L 23.416168 186.826302 
L 19.871322 197.754948 
L -8.08299 192.752933 
L -18.699056 191.530564 
L -22.711071 179.995473 
L -27.21359 178.328539 
L -34.442315 180.009327 
L -43.930564 184.56216 
L -55.426035 181.441704 
L -64.922548 174.212492 
L -73.980088 171.532954 
L -80.262321 162.607156 
L -87.204231 150.06505 
L -92.266769 151.589548 
L -98.245173 148.472251 
L -101.757449 152.143977 
L -106.963395 147.198839 
L -107.056245 142.18783 
L -110.061003 142.190504 
L -108.519005 135.376689 
L -113.359382 128.227446 
L -124.885966 123.071085 
L -131.402028 114.129487 
L -129.221743 106.788709 
L -124.486855 103.542103 
L -125.196602 98.047153 
L -131.365082 95.223478 
L -137.460429 84.001646 
L -142.605336 76.465252 
L -140.764855 73.551886 
z
" clip-path="url(#pff0a548883)" style="fill: #e8edf4; stroke: #b8c5d4; stroke-width: 0.45"/>
    <path d="M 191.060854 356.523178 
L 195.318851 341.253165 
L 201.819356 346.480257 
L 206.198398 353.104968 
L 210.748071 362.899235 
L 209.331008 372.694716 
L 205.386564 375.37231 
L 197.205514 377.524399 
L 192.72876 370.044832 
z
" clip-path="url(#pff0a548883)" style="fill: #e8edf4; stroke: #b8c5d4; stroke-width: 0.45"/>
    <path d="M 134.431789 62.734077 
L 137.109383 60.581988 
L 135.813365 58.381043 
L 144.79361 53.936617 
L 151.293629 52.096136 
L 161.251478 53.357881 
L 164.808477 47.351039 
L 176.87515 46.233187 
L 180.228461 42.499237 
L 195.051966 37.403399 
L 196.374235 35.276832 
L 195.623167 29.914109 
L 202.077004 27.465482 
L 193.609624 11.123799 
L 212.24486 7.365542 
L 217.059959 5.271302 
L 223.847766 -11.571092 
L 242.509738 -8.475429 
L 247.741935 -12.727591 
L 248.191118 -22.160908 
L 256.004169 -23.039827 
L 263.164836 -29.303102 
L 266.845798 -30.076532 
L 269.315815 -23.51283 
L 277.222203 -18.523454 
L 290.64177 -14.990761 
L 297.132553 -7.414211 
L 293.510412 3.577389 
L 296.894836 7.656733 
L 320.743795 10.578606 
L 332.109471 16.440582 
L 337.922591 17.484785 
L 342.208297 26.157068 
L 347.72974 31.743166 
L 358.099825 31.524409 
L 377.516755 33.633476 
L 390.02872 32.324819 
L 399.315226 33.72584 
L 413.230643 39.43979 
L 424.613333 39.431526 
L 428.777993 42.356559 
L 439.730946 37.305687 
L 454.927797 34.039636 
L 469.027457 33.682818 
L 480.019786 30.3735 
L 486.770161 25.335025 
L 493.354281 22.171547 
L 491.831727 19.066646 
L 488.827455 15.451798 
L 493.765545 9.387592 
L 508.728569 12.14564 
L 518.102091 7.15116 
L 532.445787 3.506657 
L 539.339084 -2.711164 
L 545.960149 -5.387786 
L 559.625211 -6.63592 
L 567.046929 -5.575431 
L 568.077521 -8.918534 
L 559.552292 -15.494146 
L 552.003694 -18.501335 
L 544.773024 -15.029894 
L 535.492352 -16.494598 
L 530.166819 -15.301154 
L 527.743956 -19.147156 
L 538.971571 -35.639296 
L 550.264328 -32.087644 
L 563.521042 -38.032018 
L 563.435712 -42.171516 
L 571.927455 -52.149025 
L 577.158961 -55.164582 
L 577.042209 -60.358425 
L 571.880501 -62.594128 
L 579.650773 -67.274327 
L 591.340696 -68.970671 
L 603.811967 -69.22536 
L 617.892042 -66.424332 
L 626.152817 -62.960183 
L 638.768814 -43.647284 
L 642.248937 -34.432721 
L 658.621314 -31.425537 
L 669.763857 -24.737873 
L 673.57344 -15.899312 
L 687.866951 -15.888306 
L 696.022067 -19.599255 
L 711.569417 -22.372373 
L 706.625944 -13.908006 
L 702.971641 -10.46527 
L 699.747753 -0.159235 
L 693.421217 8.992392 
L 682.004077 7.326652 
L 673.930254 10.649274 
L 676.40777 18.705939 
L 675.054389 29.820773 
L 670.249013 30.074532 
L 670.30671 34.853275 
L 664.232205 29.299643 
L 660.491935 34.57146 
L 645.963024 38.623095 
L 647.432589 43.585491 
L 639.298694 43.243256 
L 634.833121 40.294889 
L 628.370047 46.966755 
L 618.002393 52.023216 
L 610.341986 58.056309 
L 597.190275 60.791023 
L 590.264894 65.187323 
L 580.134956 67.755295 
L 585.134298 63.396184 
L 583.165965 59.732965 
L 590.614906 53.409654 
L 585.645705 48.480801 
L 577.445209 51.801542 
L 566.824282 58.342639 
L 561.028177 64.417053 
L 551.802437 64.869152 
L 547.004353 69.258889 
L 551.961887 75.619632 
L 559.661184 77.163818 
L 559.976195 81.386327 
L 567.418817 84.133923 
L 577.960991 77.416848 
L 586.312673 81.079094 
L 592.39608 81.329693 
L 593.920578 86.257817 
L 580.601639 88.885097 
L 576.207041 93.96392 
L 567.059082 98.683009 
L 562.229885 105.267371 
L 572.354962 110.436858 
L 576.050508 119.689821 
L 581.776125 128.310574 
L 588.164821 135.536625 
L 588.012176 142.524474 
L 582.107664 145.093418 
L 584.358438 150.110746 
L 589.895437 153.030675 
L 588.449692 160.692783 
L 586.060372 168.148044 
L 580.803869 168.993178 
L 566.315306 191.5223 
L 557.579584 202.748699 
L 531.558118 219.347787 
L 520.957122 220.427721 
L 515.206712 224.607451 
L 511.954029 221.55408 
L 506.632384 226.229174 
L 493.486021 230.940971 
L 483.532062 232.383556 
L 480.320213 242.318556 
L 475.106975 242.869583 
L 472.640361 236.042156 
L 474.868286 232.403244 
L 462.246942 229.391437 
L 457.800814 230.923227 
L 448.330066 228.481892 
L 443.850881 224.659709 
L 445.338434 219.240596 
L 436.738827 217.522619 
L 432.204224 213.993329 
L 424.186027 219.006525 
L 415.03904 220.092049 
L 407.536625 220.044652 
L 397.612319 223.719051 
L 399.033758 234.479254 
L 394.01886 234.222579 
L 392.89007 228.123615 
L 385.989968 230.862461 
L 374.930553 225.599395 
L 377.668913 217.784642 
L 371.711899 215.962634 
L 369.468417 207.302748 
L 359.538764 208.863219 
L 360.666582 197.704148 
L 369.57731 189.848561 
L 369.679397 174.890155 
L 365.573559 172.647403 
L 362.429282 167.109188 
L 356.927284 167.808727 
L 346.783735 166.402844 
L 349.961068 162.452324 
L 345.549941 156.602744 
L 338.843804 160.563959 
L 330.952972 158.25242 
L 320.109884 164.242977 
L 311.547224 171.239576 
L 303.960708 172.416735 
L 299.842231 169.887411 
L 294.872057 169.658444 
L 288.148905 167.480833 
L 283.068866 169.867236 
L 276.845454 176.860918 
L 276.055982 169.452326 
L 270.318698 171.430867 
L 259.350675 170.511599 
L 248.70933 168.354406 
L 241.073716 164.222803 
L 233.763807 162.368467 
L 230.606891 157.849906 
L 225.32122 156.499928 
L 215.823735 150.370825 
L 208.281943 147.478606 
L 204.382223 149.729136 
L 191.307321 143.151336 
L 182.065053 137.194808 
L 179.426836 126.825695 
L 186.178184 128.089871 
L 186.486389 123.286439 
L 182.744174 118.471827 
L 183.696013 110.798051 
L 173.585034 99.772179 
L 158.114007 95.967983 
L 155.329951 88.739501 
L 148.379291 84.353653 
L 146.70458 81.654184 
L 145.29335 76.291948 
L 145.621 72.634077 
L 139.908023 70.492439 
L 136.816248 71.43966 
z
" clip-path="url(#pff0a548883)" style="fill: #e8edf4; stroke: #b8c5d4; stroke-width: 0.45"/>
    <path d="M 463.219684 251.473078 
L 467.855888 247.210221 
L 478.133609 244.574191 
L 483.542271 244.797324 
L 485.644775 248.387137 
L 481.511227 252.526761 
L 479.333859 257.959243 
L 471.206283 262.481206 
L 463.492402 259.565167 
z
" clip-path="url(#pff0a548883)" style="fill: #e8edf4; stroke: #b8c5d4; stroke-width: 0.45"/>
    <path d="M 571.213533 212.072394 
L 576.74956 202.8328 
L 584.278713 195.711509 
L 588.570252 198.513551 
L 581.273955 219.27268 
L 577.242494 226.989235 
L 572.284959 219.046874 
z
" clip-path="url(#pff0a548883)" style="fill: #e8edf4; stroke: #b8c5d4; stroke-width: 0.45"/>
    <path d="M 569.121238 279.733894 
L 572.909634 282.829557 
L 573.883835 268.112515 
L 576.948873 259.588258 
L 582.64435 259.599196 
L 588.441914 262.285054 
L 591.343126 259.835454 
L 592.198712 262.225503 
L 590.668381 266.125709 
L 593.879743 272.868549 
L 591.402434 280.686462 
L 585.856684 283.804244 
L 584.373021 291.388329 
L 586.477956 298.880536 
L 591.464658 299.916961 
L 595.625915 298.803728 
L 607.375632 304.019153 
L 606.480184 309.140027 
L 609.548625 311.400036 
L 608.571507 315.735327 
L 601.239723 311.117839 
L 597.764879 306.175374 
L 595.344447 309.628586 
L 589.354862 303.997034 
L 580.810674 305.387361 
L 576.128288 303.308677 
L 576.605666 299.420138 
L 579.544797 297.027172 
L 576.736921 294.851506 
L 575.5216 298.241764 
L 570.877132 292.836505 
L 569.470764 288.739903 
z
" clip-path="url(#pff0a548883)" style="fill: #e8edf4; stroke: #b8c5d4; stroke-width: 0.45"/>
    <path d="M 588.275658 366.012399 
L 591.967315 358.083649 
L 597.894189 355.437654 
L 603.023813 351.893294 
L 606.348929 356.151776 
L 613.501332 353.575783 
L 615.036039 349.377824 
L 621.684813 349.127711 
L 621.127224 341.852804 
L 628.75263 346.314244 
L 631.71315 366.038164 
L 628.508594 374.646521 
L 625.071668 365.056671 
L 620.673181 369.828262 
L 623.676966 376.75972 
L 620.980414 381.168416 
L 609.91079 375.708954 
L 607.266739 368.900243 
L 610.135381 364.427378 
L 604.176423 359.978577 
L 601.22125 363.879269 
L 596.794567 363.517103 
L 589.833212 368.765829 
z
" clip-path="url(#pff0a548883)" style="fill: #e8edf4; stroke: #b8c5d4; stroke-width: 0.45"/>
    <path d="M 610.352681 315.536987 
L 619.386886 315.74432 
L 621.977948 319.253436 
L 624.620541 329.757207 
L 617.362162 327.261182 
L 617.558558 330.418584 
L 619.860374 336.223683 
L 615.386051 338.331291 
L 614.994232 331.715088 
L 612.162049 331.226529 
L 610.689081 325.531052 
L 616.225108 326.281634 
L 616.102604 322.720016 
z
" clip-path="url(#pff0a548883)" style="fill: #e8edf4; stroke: #b8c5d4; stroke-width: 0.45"/>
    <path d="M 592.604143 342.294694 
L 596.90346 337.141493 
L 597.941343 331.302365 
L 603.128817 330.749637 
L 601.613555 337.082914 
L 608.576368 328.001798 
L 607.678004 336.975723 
L 604.298441 340.067741 
L 601.351532 346.011387 
L 598.397332 348.796658 
z
" clip-path="url(#pff0a548883)" style="fill: #e8edf4; stroke: #b8c5d4; stroke-width: 0.45"/>
    <path d="M 587.933424 321.802206 
L 593.580288 324.714357 
L 599.566956 324.700502 
L 599.384658 328.630119 
L 595.027978 332.624633 
L 589.053463 335.449524 
L 588.721924 331.07826 
L 589.389864 326.279203 
z
" clip-path="url(#pff0a548883)" style="fill: #e8edf4; stroke: #b8c5d4; stroke-width: 0.45"/>
    <path d="M 543.632568 354.955415 
L 548.243979 348.376157 
L 555.04005 342.566197 
L 560.688373 336.058399 
L 565.619171 326.713559 
L 567.29534 334.383931 
L 561.084567 339.563869 
L 556.146964 346.02913 
z
" clip-path="url(#pff0a548883)" style="fill: #e8edf4; stroke: #b8c5d4; stroke-width: 0.45"/>
    <path d="M 573.257216 306.989153 
L 581.316248 307.334547 
L 584.583029 310.722131 
L 582.088219 318.850193 
z
" clip-path="url(#pff0a548883)" style="fill: #e8edf4; stroke: #b8c5d4; stroke-width: 0.45"/>
    <path d="M 472.975303 414.794627 
L 479.869573 418.018386 
L 487.138646 416.260546 
L 489.031629 408.295823 
L 493.047048 406.521699 
L 504.323276 404.485065 
L 515.690896 391.09418 
L 519.976601 395.969315 
L 521.95174 392.764516 
L 526.447453 393.062512 
L 527.418737 382.42214 
L 534.662532 375.879828 
L 539.407142 368.527383 
L 543.212553 368.496514 
L 548.045639 373.255465 
L 548.475376 377.344532 
L 562.518645 382.797431 
L 561.848761 386.482282 
L 555.536873 386.948965 
L 557.216932 391.542633 
L 550.290579 394.747189 
L 542.136265 393.161683 
L 531.320887 393.157307 
L 528.061884 403.856258 
L 524.439743 407.127657 
L 519.616866 420.211067 
L 511.945278 422.216102 
L 503.045731 419.579829 
L 498.534462 420.404546 
L 493.052881 425.161552 
L 487.047254 424.48389 
L 480.978917 426.396804 
L 474.545983 421.081722 
z
" clip-path="url(#pff0a548883)" style="fill: #e8edf4; stroke: #b8c5d4; stroke-width: 0.45"/>
    <path d="M 382.878262 372.857326 
L 384.513597 371.179698 
L 392.189074 375.299634 
L 392.929447 380.130046 
L 399.138761 379.006604 
L 402.214008 375.141885 
L 404.377278 376.020805 
L 409.93275 381.699997 
L 413.879138 387.99803 
L 414.41874 394.332765 
L 413.417316 398.612151 
L 415.019595 407.41423 
L 418.333044 410.006508 
L 422.032479 418.325376 
L 421.852612 421.505869 
L 415.181962 422.13346 
L 395.153483 407.698372 
L 394.051917 402.905635 
L 388.613601 396.613678 
L 387.315153 388.823232 
L 383.921979 383.694337 
L 384.95257 376.845278 
z
" clip-path="url(#pff0a548883)" style="fill: #e8edf4; stroke: #b8c5d4; stroke-width: 0.45"/>
    <path d="M 515.690896 391.09418 
L 519.415609 387.574612 
L 527.418737 382.42214 
L 526.447453 393.062512 
L 521.95174 392.764516 
L 519.976601 395.969315 
z
" clip-path="url(#pff0a548883)" style="fill: #e8edf4; stroke: #b8c5d4; stroke-width: 0.45"/>
   </g>
   <g id="PathCollection_1">
    <defs>
     <path id="m725197b29f" d="M 0 2.12132 
C 0.562581 2.12132 1.102195 1.897805 1.5 1.5 
C 1.897805 1.102195 2.12132 0.562581 2.12132 0 
C 2.12132 -0.562581 1.897805 -1.102195 1.5 -1.5 
C 1.102195 -1.897805 0.562581 -2.12132 0 -2.12132 
C -0.562581 -2.12132 -1.102195 -1.897805 -1.5 -1.5 
C -1.897805 -1.102195 -2.12132 -0.562581 -2.12132 0 
C -2.12132 0.562581 -1.897805 1.102195 -1.5 1.5 
C -1.102195 1.897805 -0.562581 2.12132 0 2.12132 
z
" style="stroke: #ffffff; stroke-width: 0.5"/>
    </defs>
    <g clip-path="url(#pff0a548883)">
     <use xlink:href="#m725197b29f" x="520.043116" y="391.33758" style="fill: #8aa0b7; stroke: #ffffff; stroke-width: 0.5"/>
     <use xlink:href="#m725197b29f" x="292.703577" y="174.973052" style="fill: #8aa0b7; stroke: #ffffff; stroke-width: 0.5"/>
     <use xlink:href="#m725197b29f" x="515.339539" y="224.360608" style="fill: #8aa0b7; stroke: #ffffff; stroke-width: 0.5"/>
     <use xlink:href="#m725197b29f" x="203.33562" y="367.819696" style="fill: #8aa0b7; stroke: #ffffff; stroke-width: 0.5"/>
     <use xlink:href="#m725197b29f" x="509.538462" y="225.144537" style="fill: #8aa0b7; stroke: #ffffff; stroke-width: 0.5"/>
     <use xlink:href="#m725197b29f" x="128.078393" y="403.096521" style="fill: #8aa0b7; stroke: #ffffff; stroke-width: 0.5"/>
    </g>
   </g>
   <g id="PatchCollection_2">
    <defs>
     <path id="m03eaeeaa93" d="M 269.979866 -212.617256 
L 272.067786 -216.045431 
L 277.948965 -219.550658 
L 271.159213 -224.530554 
L 274.482385 -230.91293 
L 281.933271 -226.847927 
L 286.424122 -226.383918 
L 287.253943 -219.842821 
L 296.20502 -218.552637 
L 304.929075 -218.692156 
L 310.353293 -217.085988 
L 306.015572 -209.124911 
L 301.807161 -208.58142 
L 298.902545 -203.227691 
L 304.053073 -198.352312 
L 305.590696 -204.364258 
L 308.188078 -204.393912 
L 313.142696 -189.471723 
L 312.950189 -182.724994 
L 309.66688 -184.149593 
L 310.281346 -176.580578 
L 307.59403 -181.484638 
L 307.051511 -186.276403 
L 305.261101 -190.804687 
L 301.330755 -196.280434 
L 292.666007 -196.656697 
L 293.521593 -192.778853 
L 290.567878 -187.544468 
L 286.565099 -189.452035 
L 285.197135 -187.739649 
L 278.893511 -189.607839 
L 277.429294 -197.354048 
L 274.169318 -204.428184 
L 275.770138 -210.096681 
z
" style="stroke: #b45309; stroke-width: 1.15"/>
    </defs>
    <g clip-path="url(#pff0a548883)">
     <use xlink:href="#m03eaeeaa93" x="0" y="415.796178" style="fill: #f59e0b; stroke: #b45309; stroke-width: 1.15"/>
    </g>
   </g>
   <g id="PathCollection_2">
    <defs>
     <path id="m13a9ad83b1" d="M 0 3.316625 
C 0.879579 3.316625 1.723251 2.967164 2.345208 2.345208 
C 2.967164 1.723251 3.316625 0.879579 3.316625 0 
C 3.316625 -0.879579 2.967164 -1.723251 2.345208 -2.345208 
C 1.723251 -2.967164 0.879579 -3.316625 0 -3.316625 
C -0.879579 -3.316625 -1.723251 -2.967164 -2.345208 -2.345208 
C -2.967164 -1.723251 -3.316625 -0.879579 -3.316625 0 
C -3.316625 0.879579 -2.967164 1.723251 -2.345208 2.345208 
C -1.723251 2.967164 -0.879579 3.316625 0 3.316625 
z
" style="stroke: #ffffff"/>
    </defs>
    <g clip-path="url(#pff0a548883)">
     <use xlink:href="#m13a9ad83b1" x="288" y="207.898089" style="fill: #f97316; stroke: #ffffff"/>
    </g>
   </g>
   <g id="PathCollection_3">
    <path d="M 288 212.347808 
C 289.180079 212.347808 290.311984 211.878958 291.146427 211.044516 
C 291.980869 210.210074 292.449719 209.078168 292.449719 207.898089 
C 292.449719 206.71801 291.980869 205.586105 291.146427 204.751663 
C 290.311984 203.917221 289.180079 203.44837 288 203.44837 
C 286.819921 203.44837 285.688016 203.917221 284.853573 204.751663 
C 284.019131 205.586105 283.550281 206.71801 283.550281 207.898089 
C 283.550281 209.078168 284.019131 210.210074 284.853573 211.044516 
C 285.688016 211.878958 286.819921 212.347808 288 212.347808 
L 288 212.347808 
z
" clip-path="url(#pff0a548883)" style="fill: none; stroke: #7c2d12; stroke-width: 1.1"/>
   </g>
  </g>
 </g>
 <defs>
  <clipPath id="pff0a548883">
   <rect x="0" y="-0" width="576" height="415.796178"/>
  </clipPath>
 </defs>
</svg>
