<?xml version="1.0" encoding="utf-8" standalone="no"?>
<!DOCTYPE svg PUBLIC "-//W3C//DTD SVG 1.1//EN"
  "http://www.w3.org/Graphics/SVG/1.1/DTD/svg11.dtd">
<svg xmlns:xlink="http://www.w3.org/1999/xlink" width="484.363636pt" height="432pt" viewBox="0 0 484.363636 432" xmlns="http://www.w3.org/2000/svg" version="1.1">
 <metadata>
  <rdf:RDF xmlns:dc="http://purl.org/dc/elements/1.1/" xmlns:cc="http://creativecommons.org/ns#" xmlns:rdf="http://www.w3.org/1999/02/22-rdf-syntax-ns#">
   <cc:Work>
    <dc:type rdf:resource="http://purl.org/dc/dcmitype/StillImage"/>
    <dc:date>2026-06-09T04:57:23.068389</dc:date>
    <dc:format>image/svg+xml</dc:format>
    <dc:creator>
     <cc:Agent>
      <dc:title>Matplotlib v3.10.8, https://matplotlib.org/</dc:title>
     </cc:Agent>
    </dc:creator>
   </cc:Work>
  </rdf:RDF>
 </metadata>
 <defs>
  <style type="text/css">*{stroke-linejoin: round; stroke-linecap: butt}</style>
 </defs>
 <g id="figure_1">
  <g id="patch_1">
   <path d="M 0 432 
L 484.363636 432 
L 484.363636 0 
L 0 0 
z
" style="fill: #eaf3ff"/>
  </g>
  <g id="axes_1">
   <g id="PatchCollection_1">
    <path d="M 7015.778967 297.3204 
L 7023.355265 290.575113 
L 7032.28392 293.003542 
L 7037.154327 289.765702 
L 7043.918269 295.431578 
L 7040.671396 305.684313 
L 7028.495869 308.382349 
L 7017.672305 305.95392 
z
" clip-path="url(#p22cd702426)" style="fill: #e8edf4; stroke: #b8c5d4; stroke-width: 0.45"/>
    <path d="M 7041.537922 276.005127 
L 7057.574366 270.897793 
L 7069.090909 264.772787 
L 7069.090909 274.35698 
L 7044.055711 283.327364 
z
" clip-path="url(#p22cd702426)" style="fill: #e8edf4; stroke: #b8c5d4; stroke-width: 0.45"/>
    <path d="M 0 274.35698 
L 0 264.772787 
L 4.058441 263.864597 
L 1.622565 273.307742 
z
" clip-path="url(#p22cd702426)" style="fill: #e8edf4; stroke: #b8c5d4; stroke-width: 0.45"/>
   </g>
   <g id="PathCollection_1">
    <defs>
     <path id="m060842efa2" d="M 0 2.12132 
C 0.562581 2.12132 1.102195 1.897805 1.5 1.5 
C 1.897805 1.102195 2.12132 0.562581 2.12132 0 
C 2.12132 -0.562581 1.897805 -1.102195 1.5 -1.5 
C 1.102195 -1.897805 0.562581 -2.12132 0 -2.12132 
C -0.562581 -2.12132 -1.102195 -1.897805 -1.5 -1.5 
C -1.897805 -1.102195 -2.12132 -0.562581 -2.12132 0 
C -2.12132 0.562581 -1.897805 1.102195 -1.5 1.5 
C -1.102195 1.897805 -0.562581 2.12132 0 2.12132 
z
" style="stroke: #ffffff; stroke-width: 0.5"/>
    </defs>
    <g clip-path="url(#p22cd702426)">
     <use xlink:href="#m060842efa2" x="196.363636" y="230.727273" style="fill: #8aa0b7; stroke: #ffffff; stroke-width: 0.5"/>
     <use xlink:href="#m060842efa2" x="397.309091" y="366.218182" style="fill: #8aa0b7; stroke: #ffffff; stroke-width: 0.5"/>
     <use xlink:href="#m060842efa2" x="198.981818" y="323.018182" style="fill: #8aa0b7; stroke: #ffffff; stroke-width: 0.5"/>
     <use xlink:href="#m060842efa2" x="157.090909" y="126" style="fill: #8aa0b7; stroke: #ffffff; stroke-width: 0.5"/>
     <use xlink:href="#m060842efa2" x="98.181818" y="342" style="fill: #8aa0b7; stroke: #ffffff; stroke-width: 0.5"/>
     <use xlink:href="#m060842efa2" x="74.618182" y="210.436364" style="fill: #8aa0b7; stroke: #ffffff; stroke-width: 0.5"/>
     <use xlink:href="#m060842efa2" x="150.545455" y="216" style="fill: #8aa0b7; stroke: #ffffff; stroke-width: 0.5"/>
    </g>
   </g>
   <g id="PathCollection_2">
    <defs>
     <path id="mdd362b0138" d="M 0 3.674235 
C 0.974418 3.674235 1.909058 3.287094 2.598076 2.598076 
C 3.287094 1.909058 3.674235 0.974418 3.674235 0 
C 3.674235 -0.974418 3.287094 -1.909058 2.598076 -2.598076 
C 1.909058 -3.287094 0.974418 -3.674235 0 -3.674235 
C -0.974418 -3.674235 -1.909058 -3.287094 -2.598076 -2.598076 
C -3.287094 -1.909058 -3.674235 -0.974418 -3.674235 0 
C -3.674235 0.974418 -3.287094 1.909058 -2.598076 2.598076 
C -1.909058 3.287094 -0.974418 3.674235 0 3.674235 
z
" style="stroke: #ffffff; stroke-width: 1.2"/>
    </defs>
    <g clip-path="url(#p22cd702426)">
     <use xlink:href="#mdd362b0138" x="150.545455" y="216" style="fill: #f97316; stroke: #ffffff; stroke-width: 1.2"/>
    </g>
   </g>
   <g id="PathCollection_3">
    <path d="M 150.545455 220.929503 
C 151.852774 220.929503 153.106725 220.410099 154.03114 219.485685 
C 154.955554 218.561271 155.474958 217.307319 155.474958 216 
C 155.474958 214.692681 154.955554 213.438729 154.03114 212.514315 
C 153.106725 211.589901 151.852774 211.070497 150.545455 211.070497 
C 149.238135 211.070497 147.984184 211.589901 147.05977 212.514315 
C 146.135355 213.438729 145.615952 214.692681 145.615952 216 
C 145.615952 217.307319 146.135355 218.561271 147.05977 219.485685 
C 147.984184 220.410099 149.238135 220.929503 150.545455 220.929503 
L 150.545455 220.929503 
z
" clip-path="url(#p22cd702426)" style="fill: none; stroke: #7c2d12; stroke-width: 1.1"/>
   </g>
  </g>
 </g>
 <defs>
  <clipPath id="p22cd702426">
   <rect x="0" y="0" width="484.363636" height="432"/>
  </clipPath>
 </defs>
</svg>
