<?xml version="1.0" encoding="utf-8" standalone="no"?>
<!DOCTYPE svg PUBLIC "-//W3C//DTD SVG 1.1//EN"
  "http://www.w3.org/Graphics/SVG/1.1/DTD/svg11.dtd">
<svg xmlns:xlink="http://www.w3.org/1999/xlink" width="549.818182pt" height="432pt" viewBox="0 0 549.818182 432" xmlns="http://www.w3.org/2000/svg" version="1.1">
 <metadata>
  <rdf:RDF xmlns:dc="http://purl.org/dc/elements/1.1/" xmlns:cc="http://creativecommons.org/ns#" xmlns:rdf="http://www.w3.org/1999/02/22-rdf-syntax-ns#">
   <cc:Work>
    <dc:type rdf:resource="http://purl.org/dc/dcmitype/StillImage"/>
    <dc:date>2026-06-09T04:57:07.845059</dc:date>
    <dc:format>image/svg+xml</dc:format>
    <dc:creator>
     <cc:Agent>
      <dc:title>Matplotlib v3.10.8, https://matplotlib.org/</dc:title>
     </cc:Agent>
    </dc:creator>
   </cc:Work>
  </rdf:RDF>
 </metadata>
 <defs>
  <style type="text/css">*{stroke-linejoin: round; stroke-linecap: butt}</style>
 </defs>
 <g id="figure_1">
  <g id="patch_1">
   <path d="M 0 432 
L 549.818182 432 
L 549.818182 0 
L 0 0 
z
" style="fill: #eaf3ff"/>
  </g>
  <g id="axes_1">
   <g id="PatchCollection_1">
    <path d="M 415.480806 -33.794143 
L 433.562408 -46.429651 
L 485.412436 -62.915072 
L 524.180471 -83.180389 
L 607.309773 -148.463508 
L 694.159102 -187.869813 
L 737.248903 -196.465144 
L 769.557121 -195.422502 
L 799.459398 -211.689754 
L 835.26643 -210.821139 
L 870.523474 -214.732951 
L 931.943489 -200.365287 
L 906.652178 -195.111992 
L 928.165919 -182.777258 
L 894.7548 -174.89952 
L 878.896071 -173.090165 
L 887.214887 -186.869282 
L 862.015918 -194.678699 
L 831.527123 -188.024053 
L 821.897267 -173.626961 
L 803.173336 -164.936752 
L 782.091156 -169.682677 
L 756.449761 -168.710559 
L 734.627837 -179.092336 
L 722.858915 -173.904492 
L 710.678009 -173.097268 
L 707.79717 -160.177634 
L 670.788689 -163.323319 
L 665.591205 -152.389018 
L 646.734344 -152.455484 
L 614.128807 -116.715932 
L 583.638998 -89.090726 
L 590.790866 -82.382805 
L 583.957626 -74.600786 
L 564.47873 -74.936664 
L 551.727542 -56.519691 
L 552.93508 -30.443481 
L 565.484335 -20.491953 
L 558.989002 2.593319 
L 542.649703 16.054823 
L 533.991965 27.370157 
L 520.819661 15.320153 
L 482.046552 38.029972 
L 455.866332 42.63282 
L 428.71095 32.632584 
L 421.688968 11.521991 
z
" clip-path="url(#pe01bef3634)" style="fill: #e8edf4; stroke: #b8c5d4; stroke-width: 0.45"/>
    <path d="M 522.547134 -380.992385 
L 576.080574 -388.023578 
L 586.836393 -381.149476 
L 614.804465 -381.422815 
L 622.260982 -388.133935 
L 651.093054 -388.816887 
L 740.497025 -367.319978 
L 691.082902 -359.592873 
L 680.171956 -345.142276 
L 662.944778 -341.436305 
L 653.593745 -325.166596 
L 629.930945 -324.401564 
L 587.701767 -336.377782 
L 605.51136 -343.354582 
L 576.077236 -349.034989 
L 537.819905 -365.615345 
z
" clip-path="url(#pe01bef3634)" style="fill: #e8edf4; stroke: #b8c5d4; stroke-width: 0.45"/>
    <path d="M 658.499207 -394.080143 
L 719.135844 -399.563783 
L 747.646915 -394.841704 
L 767.505323 -400.722106 
L 817.153371 -395.816866 
L 855.638294 -388.925786 
L 826.52041 -378.350194 
L 769.571328 -376.036593 
L 711.658245 -379.312165 
L 708.164505 -384.722744 
L 679.986267 -385.06674 
z
" clip-path="url(#pe01bef3634)" style="fill: #e8edf4; stroke: #b8c5d4; stroke-width: 0.45"/>
    <path d="M 724.438014 -342.203695 
L 737.989069 -347.269876 
L 726.124582 -353.545462 
L 766.818196 -357.478822 
L 774.615404 -350.107331 
L 802.946356 -345.6756 
L 759.082647 -337.645898 
z
" clip-path="url(#pe01bef3634)" style="fill: #e8edf4; stroke: #b8c5d4; stroke-width: 0.45"/>
    <path d="M 227.277494 227.111031 
L 252.736744 222.839494 
L 285.712152 227.891364 
L 279.487754 205.66456 
L 298.024973 214.087893 
L 343.742944 198.775509 
L 349.638567 182.684821 
L 366.811979 178.720242 
L 369.656288 185.625529 
L 378.783849 185.94923 
L 401.616451 203.089157 
L 411.693806 201.559948 
L 433.26509 212.216718 
L 438.931383 211.80169 
L 448.197963 216.943364 
L 476.494925 220.559887 
L 466.566736 234.00617 
L 464.074542 247.995845 
L 458.683243 251.350059 
L 449.736305 249.542812 
L 450.367471 254.532275 
L 436.00691 265.566527 
L 435.716695 274.457655 
L 445.092867 271.380971 
L 451.837825 279.992031 
L 451.028065 285.540614 
L 456.806994 292.913695 
L 449.999122 298.894556 
L 455.057587 314.088217 
L 465.701165 316.579396 
L 463.454537 325.102682 
L 445.665179 336.196296 
L 406.936718 330.879581 
L 378.335335 337.250608 
L 376.088707 349.075341 
L 353.326122 351.620809 
L 331.231234 342.738307 
L 324.092557 346.98346 
L 287.945588 338.059354 
L 280.11892 330.424978 
L 290.273395 318.646923 
L 294.012702 279.525252 
L 273.749415 258.917969 
L 259.266578 248.982677 
L 229.256739 241.429988 
z
" clip-path="url(#pe01bef3634)" style="fill: #e8edf4; stroke: #b8c5d4; stroke-width: 0.45"/>
    <path d="M -753.213355 1137.694604 
L -748.20512 1129.436673 
L -743.045181 1112.006532 
L -750.754647 1100.37054 
L -752.307702 1086.936434 
L -742.08524 1070.053236 
L -720.958411 1076.861108 
L -700.16746 1093.435826 
L -696.916749 1101.477618 
L -708.532446 1119.4476 
L -714.562522 1133.907605 
L -722.087813 1141.366431 
L -731.489861 1142.769812 
L -734.167752 1137.242031 
L -738.560043 1136.421109 
L -744.638318 1141.745435 
z
" clip-path="url(#pe01bef3634)" style="fill: #e8edf4; stroke: #b8c5d4; stroke-width: 0.45"/>
    <path d="M 485.231813 353.326583 
L 489.194361 346.029607 
L 501.840017 338.531207 
L 505.178502 355.369249 
L 498.693316 370.538048 
L 489.777835 366.539983 
z
" clip-path="url(#pe01bef3634)" style="fill: #e8edf4; stroke: #b8c5d4; stroke-width: 0.45"/>
    <path d="M 533.991965 27.370157 
L 542.649703 16.054823 
L 558.989002 2.593319 
L 565.484335 -20.491953 
L 552.93508 -30.443481 
L 551.727542 -56.519691 
L 564.47873 -74.936664 
L 583.957626 -74.600786 
L 590.790866 -82.382805 
L 583.638998 -89.090726 
L 614.128807 -116.715932 
L 646.734344 -152.455484 
L 665.591205 -152.389018 
L 670.788689 -163.323319 
L 707.79717 -160.177634 
L 710.678009 -173.097268 
L 722.858915 -173.904492 
L 779.684199 -150.92526 
L 780.20273 -120.686091 
L 786.829978 -113.04512 
L 753.051406 -107.48436 
L 734.010877 -93.783378 
L 737.076398 -81.757727 
L 667.920027 -49.07913 
L 653.62035 -21.426526 
L 667.597341 -7.591091 
L 686.377082 3.30059 
L 668.341143 25.453319 
L 647.918542 30.047034 
L 640.427752 63.010772 
L 629.27579 81.406436 
L 605.454834 79.509892 
L 594.341432 95.083572 
L 571.606244 95.987703 
L 565.36561 77.424607 
L 548.926868 55.1425 
z
" clip-path="url(#pe01bef3634)" style="fill: #e8edf4; stroke: #b8c5d4; stroke-width: 0.45"/>
    <path d="M 503.606674 258.163004 
L 506.610296 253.356194 
L 505.850258 249.871587 
L 511.777338 248.788862 
L 521.713645 254.24206 
L 524.510261 249.059797 
L 541.827766 249.896955 
L 555.866655 246.375817 
L 565.280373 246.978571 
L 571.404312 250.99896 
L 573.234898 247.661996 
L 570.451473 234.867682 
L 577.505927 232.374473 
L 584.429479 223.320987 
L 599.018355 229.641278 
L 610.064785 221.608111 
L 616.97616 220.141816 
L 632.218528 226.134346 
L 641.44046 225.115043 
L 650.49293 228.822892 
L 648.916029 231.316102 
L 650.873457 238.120422 
L 649.382808 246.144457 
L 638.324202 246.183017 
L 642.127437 250.438825 
L 635.608765 263.080421 
L 631.865399 266.394553 
L 614.691987 266.883656 
L 604.783078 271.33886 
L 560.48371 264.746112 
L 556.097001 257.915916 
L 536.691166 261.328984 
L 534.408007 265.064232 
L 512.491713 261.738431 
z
" clip-path="url(#pe01bef3634)" style="fill: #e8edf4; stroke: #b8c5d4; stroke-width: 0.45"/>
    <path d="M 435.050013 164.913728 
L 446.846333 164.90561 
L 451.823619 157.514264 
L 456.716682 139.53515 
L 453.046377 132.895725 
L 456.881069 128.737331 
L 473.293429 127.669828 
L 476.935321 131.999712 
L 490.268968 122.319119 
L 485.779771 114.958215 
L 484.878684 103.822489 
L 499.72023 106.412098 
L 512.284707 103.422682 
L 512.631747 111.011394 
L 532.474933 115.587352 
L 532.265897 122.556567 
L 552.231867 118.869012 
L 563.271193 113.490905 
L 585.441172 121.244512 
L 594.71384 127.498337 
L 599.301467 137.490455 
L 593.82696 142.731572 
L 600.956504 149.730215 
L 605.815065 160.23376 
L 604.284842 167.003579 
L 612.333737 179.541672 
L 603.570467 181.590427 
L 598.392263 179.333651 
L 593.467743 183.071436 
L 579.366955 186.874671 
L 572.076068 191.767226 
L 557.805818 196.042821 
L 561.243748 201.879083 
L 563.32193 210.159846 
L 573.34246 214.879388 
L 584.429479 223.320987 
L 577.505927 232.374473 
L 570.451473 234.867682 
L 573.234898 247.661996 
L 571.404312 250.99896 
L 565.280373 246.978571 
L 555.866655 246.375817 
L 541.827766 249.896955 
L 524.510261 249.059797 
L 521.713645 254.24206 
L 511.777338 248.788862 
L 505.850258 249.871587 
L 484.807652 243.867386 
L 480.776101 248.133342 
L 464.074542 247.995845 
L 466.566736 234.00617 
L 476.494925 220.559887 
L 448.197963 216.943364 
L 438.931383 211.80169 
L 440.039476 203.19266 
L 436.118531 198.758258 
L 438.348924 185.490569 
z
" clip-path="url(#pe01bef3634)" style="fill: #e8edf4; stroke: #b8c5d4; stroke-width: 0.45"/>
    <path d="M 435.716695 274.457655 
L 436.00691 265.566527 
L 450.367471 254.532275 
L 449.736305 249.542812 
L 458.683243 251.350059 
L 464.074542 247.995845 
L 480.776101 248.133342 
L 484.807652 243.867386 
L 505.850258 249.871587 
L 506.610296 253.356194 
L 503.606674 258.163004 
L 512.491713 261.738431 
L 522.511228 262.272183 
L 520.953607 270.3226 
L 512.302972 273.634703 
L 497.77295 271.173965 
L 493.520186 279.092974 
L 484.166338 279.717038 
L 480.76291 276.604839 
L 469.754026 283.264559 
L 460.286528 284.198117 
L 451.837825 279.992031 
L 445.092867 271.380971 
z
" clip-path="url(#pe01bef3634)" style="fill: #e8edf4; stroke: #b8c5d4; stroke-width: 0.45"/>
    <path d="M 428.872293 210.511959 
L 431.000197 199.499016 
L 436.118531 198.758258 
L 440.039476 203.19266 
L 438.931383 211.80169 
L 433.26509 212.216718 
z
" clip-path="url(#pe01bef3634)" style="fill: #e8edf4; stroke: #b8c5d4; stroke-width: 0.45"/>
    <path d="M 366.811979 178.720242 
L 382.548524 174.846483 
L 396.924306 176.388376 
L 415.125648 172.308625 
L 427.555164 180.903957 
L 438.348924 185.490569 
L 436.118531 198.758258 
L 431.000197 199.499016 
L 428.872293 210.511959 
L 411.693806 201.559948 
L 401.616451 203.089157 
L 378.783849 185.94923 
L 369.656288 185.625529 
z
" clip-path="url(#pe01bef3634)" style="fill: #e8edf4; stroke: #b8c5d4; stroke-width: 0.45"/>
    <path d="M 382.548524 174.846991 
L 392.667484 169.451125 
L 409.863221 140.561049 
L 436.729403 132.341171 
L 453.046377 132.895725 
L 456.716682 139.53515 
L 451.823619 157.514264 
L 446.846333 164.90561 
L 435.050013 164.913728 
L 438.348924 185.490569 
L 427.555164 180.903957 
L 415.125648 172.308625 
L 396.924306 176.388376 
z
" clip-path="url(#pe01bef3634)" style="fill: #e8edf4; stroke: #b8c5d4; stroke-width: 0.45"/>
    <path d="M 130.387341 422.428665 
L 131.950036 409.573974 
L 139.778734 402.445445 
L 145.269477 382.700181 
L 144.834154 374.38035 
L 140.908136 367.328434 
L 140.04358 360.708796 
L 147.169065 355.718826 
L 155.182445 352.856252 
L 160.104935 362.469872 
L 171.703381 362.446533 
L 175.065206 359.967023 
L 186.507382 360.653493 
L 191.996096 370.502532 
L 182.923331 375.81874 
L 182.670154 391.139243 
L 179.481342 394.012979 
L 178.692384 403.293765 
L 170.208673 404.910242 
L 178.074916 416.682208 
L 172.65419 429.583577 
L 179.425024 435.42136 
L 176.730389 440.759893 
L 169.453201 448.123333 
L 171.09048 454.625262 
L 163.198869 459.721272 
L 152.84652 456.960172 
L 142.713354 459.121563 
L 145.712917 443.755397 
L 143.869139 431.681039 
L 135.08253 429.869733 
z
" clip-path="url(#pe01bef3634)" style="fill: #e8edf4; stroke: #b8c5d4; stroke-width: 0.45"/>
    <path d="M 133.012466 338.204461 
L 160.791912 324.032641 
L 184.820889 327.575596 
L 211.184777 327.451291 
L 232.078723 330.804997 
L 280.11892 330.424978 
L 287.945588 338.059354 
L 324.092557 346.98346 
L 331.231234 342.738307 
L 353.326122 351.620809 
L 376.088707 349.075341 
L 377.13896 360.482002 
L 358.530709 373.560443 
L 333.3703 377.710718 
L 331.618863 384.316657 
L 319.549579 395.202758 
L 311.981669 411.185884 
L 319.63989 422.407355 
L 308.281937 431.168089 
L 304.035262 443.931961 
L 289.209951 447.845295 
L 275.306021 462.944078 
L 231.665218 462.871524 
L 219.366603 469.805731 
L 211.86668 477.225489 
L 202.259148 475.596329 
L 194.988556 468.961977 
L 189.421708 457.666429 
L 171.09048 454.625262 
L 169.453201 448.123333 
L 176.730389 440.759893 
L 179.425024 435.42136 
L 172.65419 429.583577 
L 178.074916 416.682208 
L 170.208673 404.910242 
L 178.692384 403.293765 
L 179.481342 394.012979 
L 182.670154 391.139243 
L 182.923331 375.81874 
L 191.996096 370.502532 
L 186.507382 360.653493 
L 175.065206 359.967023 
L 171.703381 362.446533 
L 160.104935 362.469872 
L 155.182445 352.856252 
L 147.169065 355.718826 
L 140.04358 360.708796 
L 141.032949 346.723688 
z
" clip-path="url(#pe01bef3634)" style="fill: #e8edf4; stroke: #b8c5d4; stroke-width: 0.45"/>
    <path d="M 121.540862 165.525614 
L 137.462089 145.021834 
L 127.207154 125.05688 
L 168.764702 100.506327 
L 172.812489 111.027123 
L 168.764702 121.549948 
L 180.90857 121.280028 
L 195.750624 125.327814 
L 198.98865 139.356049 
L 184.146089 156.89223 
L 149.335529 168.493721 
z
" clip-path="url(#pe01bef3634)" style="fill: #e8edf4; stroke: #b8c5d4; stroke-width: 0.45"/>
    <path d="M 449.999122 298.894556 
L 456.806994 292.913695 
L 451.028065 285.540614 
L 451.837825 279.992031 
L 460.286528 284.198117 
L 469.754026 283.264559 
L 480.76291 276.604839 
L 484.166338 279.717038 
L 493.520186 279.092974 
L 497.77295 271.173965 
L 512.302972 273.634703 
L 520.953607 270.3226 
L 522.511228 262.272183 
L 534.408007 265.064232 
L 536.691166 261.328984 
L 556.097001 257.915916 
L 560.48371 264.746112 
L 588.563518 269.817261 
L 586.435614 279.488722 
L 591.138921 287.849142 
L 575.507909 284.988597 
L 559.543048 291.957813 
L 560.628817 301.705378 
L 558.224905 307.299625 
L 564.661383 317.296816 
L 583.07379 327.186445 
L 592.949212 343.42021 
L 614.799549 359.24453 
L 630.187024 359.123269 
L 634.972525 363.4633 
L 629.463516 367.375112 
L 661.467313 380.412456 
L 678.305863 390.653184 
L 680.339396 394.320444 
L 676.670106 401.352066 
L 665.771828 392.183915 
L 648.712066 388.952484 
L 640.448047 401.65395 
L 654.640161 408.933167 
L 652.310325 419.179984 
L 644.107189 420.344395 
L 633.618865 437.185988 
L 625.43298 438.698961 
L 625.509085 432.695269 
L 629.515268 422.163311 
L 633.783252 417.968895 
L 620.121845 396.686811 
L 611.970461 394.24028 
L 606.173268 385.765195 
L 593.55501 382.195349 
L 585.058616 374.302723 
L 570.529608 373.030242 
L 537.222889 351.384376 
L 523.870976 340.0731 
L 517.746022 320.661684 
L 507.976132 318.378525 
L 492.001124 311.897399 
L 482.960831 314.550429 
L 471.615054 323.663277 
L 463.454537 325.102682 
L 465.701165 316.579396 
L 455.057587 314.088217 
z
" clip-path="url(#pe01bef3634)" style="fill: #e8edf4; stroke: #b8c5d4; stroke-width: 0.45"/>
    <path d="M 561.554257 444.509347 
L 564.302166 434.427425 
L 587.28089 436.222495 
L 622.218292 432.370045 
L 615.146589 447.826015 
L 618.085268 453.909872 
L 613.963405 464.007522 
L 598.946309 456.61161 
L 588.961295 454.492839 
z
" clip-path="url(#pe01bef3634)" style="fill: #e8edf4; stroke: #b8c5d4; stroke-width: 0.45"/>
    <path d="M 477.687241 378.981676 
L 488.487089 379.963942 
L 498.305687 373.876533 
L 510.086786 387.818008 
L 507.32873 413.7897 
L 498.400057 412.550705 
L 490.390737 419.106415 
L 482.955757 413.898276 
L 482.169336 390.207714 
z
" clip-path="url(#pe01bef3634)" style="fill: #e8edf4; stroke: #b8c5d4; stroke-width: 0.45"/>
    <path d="M 476.312272 72.850679 
L 485.216591 61.658128 
L 502.516846 60.439428 
L 509.410971 55.022254 
L 525.207385 49.483311 
L 524.541718 59.581975 
L 518.727273 65.977864 
L 521.083493 71.476725 
L 531.730116 74.44889 
L 526.931424 81.856472 
L 521.083493 79.723494 
L 506.945159 93.861828 
L 512.284707 103.422682 
L 499.72023 106.412098 
L 484.878684 103.822489 
L 476.907923 92.924718 
z
" clip-path="url(#pe01bef3634)" style="fill: #e8edf4; stroke: #b8c5d4; stroke-width: 0.45"/>
    <path d="M 531.567758 87.775434 
L 560.374118 81.26691 
L 566.64012 91.112905 
L 554.858007 107.017896 
L 534.309578 95.926311 
z
" clip-path="url(#pe01bef3634)" style="fill: #e8edf4; stroke: #b8c5d4; stroke-width: 0.45"/>
    <path d="M 196.691285 68.03981 
L 203.822351 47.738977 
L 219.076388 31.810647 
L 234.756108 33.365225 
L 258.447177 31.712725 
L 237.459368 52.958786 
L 257.465419 50.268717 
L 278.9814 50.371206 
L 273.86205 66.370567 
L 256.208667 83.969155 
L 276.512544 85.221848 
L 295.560176 110.454811 
L 309.001385 113.608614 
L 326.683181 143.738192 
L 350.473695 147.478513 
L 348.087034 160.036393 
L 338.083754 165.79452 
L 345.924629 175.953054 
L 328.261098 186.236401 
L 301.990566 186.054763 
L 268.560048 191.45418 
L 259.404075 187.588538 
L 246.421019 196.788653 
L 228.256208 194.56029 
L 214.461363 202.058184 
L 204.023776 198.137239 
L 232.822018 177.512705 
L 250.399297 173.271104 
L 219.579698 169.982848 
L 214.024012 162.168864 
L 234.543013 156.08247 
L 223.788828 145.505357 
L 227.520017 132.643562 
L 256.702961 134.419796 
L 259.625287 123.021824 
L 246.174438 110.650655 
L 222.33268 107.195475 
L 217.652204 101.881296 
L 224.788344 93.106356 
L 218.330556 87.696285 
L 207.758009 96.98113 
L 206.607297 78.054252 
z
" clip-path="url(#pe01bef3634)" style="fill: #e8edf4; stroke: #b8c5d4; stroke-width: 0.45"/>
    <path d="M 168.764702 121.549948 
L 172.812489 111.027123 
L 168.764702 100.506327 
L 185.226277 99.696567 
L 206.274463 111.836883 
L 195.750624 125.327814 
L 180.90857 121.280028 
z
" clip-path="url(#pe01bef3634)" style="fill: #e8edf4; stroke: #b8c5d4; stroke-width: 0.45"/>
   </g>
   <g id="PathCollection_1">
    <defs>
     <path id="mb737bf9186" d="M 0 2.12132 
C 0.562581 2.12132 1.102195 1.897805 1.5 1.5 
C 1.897805 1.102195 2.12132 0.562581 2.12132 0 
C 2.12132 -0.562581 1.897805 -1.102195 1.5 -1.5 
C 1.102195 -1.897805 0.562581 -2.12132 0 -2.12132 
C -0.562581 -2.12132 -1.102195 -1.897805 -1.5 -1.5 
C -1.897805 -1.102195 -2.12132 -0.562581 -2.12132 0 
C -2.12132 0.562581 -1.897805 1.102195 -1.5 1.5 
C -1.102195 1.897805 -0.562581 2.12132 0 2.12132 
z
" style="stroke: #ffffff; stroke-width: 0.5"/>
    </defs>
    <g clip-path="url(#pe01bef3634)">
     <use xlink:href="#mb737bf9186" x="346.909091" y="348.545455" style="fill: #8aa0b7; stroke: #ffffff; stroke-width: 0.5"/>
     <use xlink:href="#mb737bf9186" x="294.395564" y="155.019273" style="fill: #8aa0b7; stroke: #ffffff; stroke-width: 0.5"/>
     <use xlink:href="#mb737bf9186" x="189.969382" y="107.259709" style="fill: #8aa0b7; stroke: #ffffff; stroke-width: 0.5"/>
     <use xlink:href="#mb737bf9186" x="266.727273" y="211.745455" style="fill: #8aa0b7; stroke: #ffffff; stroke-width: 0.5"/>
     <use xlink:href="#mb737bf9186" x="229.090909" y="117.818182" style="fill: #8aa0b7; stroke: #ffffff; stroke-width: 0.5"/>
     <use xlink:href="#mb737bf9186" x="274.909091" y="216" style="fill: #8aa0b7; stroke: #ffffff; stroke-width: 0.5"/>
     <use xlink:href="#mb737bf9186" x="504.654545" y="254.945455" style="fill: #8aa0b7; stroke: #ffffff; stroke-width: 0.5"/>
     <use xlink:href="#mb737bf9186" x="438.545454" y="206.181818" style="fill: #8aa0b7; stroke: #ffffff; stroke-width: 0.5"/>
     <use xlink:href="#mb737bf9186" x="462.763636" y="324.327273" style="fill: #8aa0b7; stroke: #ffffff; stroke-width: 0.5"/>
    </g>
   </g>
   <g id="PathCollection_2">
    <defs>
     <path id="mf82fb4ac1a" d="M 0 3.674235 
C 0.974418 3.674235 1.909058 3.287094 2.598076 2.598076 
C 3.287094 1.909058 3.674235 0.974418 3.674235 0 
C 3.674235 -0.974418 3.287094 -1.909058 2.598076 -2.598076 
C 1.909058 -3.287094 0.974418 -3.674235 0 -3.674235 
C -0.974418 -3.674235 -1.909058 -3.287094 -2.598076 -2.598076 
C -3.287094 -1.909058 -3.674235 -0.974418 -3.674235 0 
C -3.674235 0.974418 -3.287094 1.909058 -2.598076 2.598076 
C -1.909058 3.287094 -0.974418 3.674235 0 3.674235 
z
" style="stroke: #ffffff; stroke-width: 1.2"/>
    </defs>
    <g clip-path="url(#pe01bef3634)">
     <use xlink:href="#mf82fb4ac1a" x="274.909091" y="216" style="fill: #f97316; stroke: #ffffff; stroke-width: 1.2"/>
    </g>
   </g>
   <g id="PathCollection_3">
    <path d="M 274.909091 220.929503 
C 276.21641 220.929503 277.470361 220.410099 278.394776 219.485685 
C 279.31919 218.561271 279.838594 217.307319 279.838594 216 
C 279.838594 214.692681 279.31919 213.438729 278.394776 212.514315 
C 277.470361 211.589901 276.21641 211.070497 274.909091 211.070497 
C 273.601771 211.070497 272.34782 211.589901 271.423406 212.514315 
C 270.498991 213.438729 269.979588 214.692681 269.979588 216 
C 269.979588 217.307319 270.498991 218.561271 271.423406 219.485685 
C 272.34782 220.410099 273.601771 220.929503 274.909091 220.929503 
L 274.909091 220.929503 
z
" clip-path="url(#pe01bef3634)" style="fill: none; stroke: #7c2d12; stroke-width: 1.1"/>
   </g>
  </g>
 </g>
 <defs>
  <clipPath id="pe01bef3634">
   <rect x="0" y="0" width="549.818182" height="432"/>
  </clipPath>
 </defs>
</svg>
