<?xml version="1.0" encoding="utf-8" standalone="no"?>
<!DOCTYPE svg PUBLIC "-//W3C//DTD SVG 1.1//EN"
  "http://www.w3.org/Graphics/SVG/1.1/DTD/svg11.dtd">
<svg xmlns:xlink="http://www.w3.org/1999/xlink" width="481.27321pt" height="432pt" viewBox="0 0 481.27321 432" xmlns="http://www.w3.org/2000/svg" version="1.1">
 <metadata>
  <rdf:RDF xmlns:dc="http://purl.org/dc/elements/1.1/" xmlns:cc="http://creativecommons.org/ns#" xmlns:rdf="http://www.w3.org/1999/02/22-rdf-syntax-ns#">
   <cc:Work>
    <dc:type rdf:resource="http://purl.org/dc/dcmitype/StillImage"/>
    <dc:date>2026-06-09T04:57:23.669347</dc:date>
    <dc:format>image/svg+xml</dc:format>
    <dc:creator>
     <cc:Agent>
      <dc:title>Matplotlib v3.10.8, https://matplotlib.org/</dc:title>
     </cc:Agent>
    </dc:creator>
   </cc:Work>
  </rdf:RDF>
 </metadata>
 <defs>
  <style type="text/css">*{stroke-linejoin: round; stroke-linecap: butt}</style>
 </defs>
 <g id="figure_1">
  <g id="patch_1">
   <path d="M 0 432 
L 481.27321 432 
L 481.27321 0 
L 0 0 
z
" style="fill: #eaf3ff"/>
  </g>
  <g id="axes_1">
   <g id="PatchCollection_1">
    <path d="M 233.073712 95.681508 
L 237.812132 95.136133 
L 249.256437 82.610661 
L 249.150672 78.886523 
L 246.683001 76.288908 
L 246.0185 71.776514 
L 249.325981 70.326051 
L 249.988601 63.584374 
L 245.439079 57.11864 
L 249.458343 55.742324 
L 285.368786 55.002653 
L 328.855015 79.604766 
L 329.636626 86.25241 
L 346.083794 97.707285 
L 340.793456 111.826695 
L 341.472166 118.32056 
L 348.808488 122.495491 
L 349.152255 125.474801 
L 345.997509 132.394822 
L 346.654561 135.877292 
L 345.90389 141.351202 
L 354.647936 159.833125 
L 358.853233 162.339183 
L 349.736658 168.982816 
L 337.207015 173.432557 
L 330.332639 173.24449 
L 326.249265 176.681812 
L 318.272287 176.977193 
L 315.280724 178.425603 
L 301.510766 175.196585 
L 292.888999 176.123306 
L 289.680637 160.538992 
L 283.48963 152.026759 
L 272.255973 149.889093 
L 265.752934 146.448676 
L 253.903145 142.601008 
L 249.116292 139.683888 
L 242.928345 125.245405 
L 236.282597 118.828821 
L 233.990367 112.18248 
L 235.136186 106.223631 
z
" clip-path="url(#p8507b860b2)" style="fill: #e8edf4; stroke: #b8c5d4; stroke-width: 0.45"/>
    <path d="M 36.466035 110.462864 
L 39.380619 109.252501 
L 39.739464 104.257087 
L 41.614225 101.311119 
L 45.784176 98.902827 
L 48.794689 100.069963 
L 52.713566 95.683284 
L 58.955465 95.796385 
L 59.689736 99.040207 
L 63.97042 101.070112 
L 80.284272 84.625394 
L 79.900556 75.197704 
L 84.877021 64.065795 
L 90.127654 58.1632 
L 97.672292 52.640177 
L 98.989244 48.984808 
L 99.274662 44.782289 
L 101.142317 40.805972 
L 100.542465 34.311816 
L 101.970741 24.157257 
L 104.210269 17.008178 
L 107.642395 10.88086 
L 109.351945 -4.031066 
L 113.813236 -9.848983 
L 119.949139 -13.538993 
L 129.378605 -9.644689 
L 136.676907 -5.417596 
L 153.607784 -2.052975 
L 157.033989 -8.97289 
L 158.607935 -9.856089 
L 163.830144 -8.705237 
L 176.587517 -14.424263 
L 181.108024 -12.000279 
L 184.818463 -12.344025 
L 186.536895 -15.130407 
L 190.795669 -16.112199 
L 206.764887 -14.642768 
L 210.548161 -15.858461 
L 217.489394 -6.398795 
L 222.634624 -5.009305 
L 225.701983 -6.933511 
L 231.00058 -6.179402 
L 237.382227 -8.603386 
L 240.103769 -3.70923 
L 250.19171 3.905578 
L 249.498297 17.304255 
L 254.091047 18.855995 
L 250.407254 22.924688 
L 246.005179 25.968065 
L 241.623829 31.94379 
L 239.213169 37.271403 
L 238.568313 46.469337 
L 235.913685 50.847726 
L 235.817756 59.486665 
L 232.522417 62.680746 
L 232.097842 69.499403 
L 230.523896 70.382898 
L 229.463347 76.651443 
L 232.34477 81.861217 
L 233.073712 95.681508 
L 235.136186 106.223631 
L 233.990367 112.18248 
L 236.282597 118.828821 
L 242.928345 125.245405 
L 249.116358 139.683905 
L 244.602365 138.517953 
L 229.21109 140.451929 
L 226.139585 141.821582 
L 222.873854 149.136464 
L 225.438474 154.18991 
L 221.984438 179.258764 
L 233.091477 185.757065 
L 236.236409 183.673274 
L 237.194515 196.029759 
L 228.424709 195.935014 
L 219.496206 184.745666 
L 210.715149 183.144481 
L 208.144015 177.140035 
L 201.138829 180.757506 
L 191.962805 179.159282 
L 188.133343 173.956614 
L 180.857542 172.899618 
L 175.487295 173.176154 
L 174.830003 169.614346 
L 165.658717 168.650319 
L 150.744718 171.136183 
L 151.357597 157.500052 
L 147.535241 153.247792 
L 146.694382 146.200563 
L 148.382614 139.293083 
L 146.060185 134.872058 
L 145.84997 127.661987 
L 131.946186 127.762061 
L 132.943966 123.633561 
L 127.097626 123.676788 
L 126.480009 125.662282 
L 119.372973 126.109951 
L 114.780816 135.65311 
L 108.448909 134.034752 
L 104.668004 135.646596 
L 97.090797 136.573318 
L 90.069031 126.876198 
L 83.953853 111.465974 
L 50.139471 111.314382 
L 38.071366 114.016975 
z
" clip-path="url(#p8507b860b2)" style="fill: #e8edf4; stroke: #b8c5d4; stroke-width: 0.45"/>
    <path d="M 366.467204 12.209214 
L 379.616963 -4.401702 
L 386.962797 -4.613233 
L 397.174956 -12.691289 
L 412.10279 -13.196282 
L 444.48354 -47.588753 
L 457.646471 -64.189803 
L 457.761922 -86.636251 
L 472.779654 -89.71815 
L 478.202457 -93.64087 
L 482.547438 -93.672267 
L 481.792412 -77.816149 
L 479.373097 -73.677428 
L 476.144098 -61.290602 
L 463.542875 -33.857112 
L 453.709432 -17.063542 
L 430.4503 11.398268 
L 418.982591 20.67458 
L 401.841931 32.052452 
L 391.160187 40.768424 
L 378.619582 54.64926 
L 375.976934 60.691646 
L 373.389288 63.404881 
L 366.604138 53.951758 
z
" clip-path="url(#p8507b860b2)" style="fill: #e8edf4; stroke: #b8c5d4; stroke-width: 0.45"/>
    <path d="M 285.252568 42.85837 
L 294.173666 30.63029 
L 298.34344 22.277908 
L 291.962445 3.373496 
L 286.529443 -4.582236 
L 301.345864 -18.975915 
L 307.298074 -17.053482 
L 307.298074 -10.621994 
L 311.212784 -6.850857 
L 319.188336 -6.850857 
L 333.693244 2.880707 
L 339.998209 2.680577 
L 342.534863 4.002131 
L 350.176499 4.903716 
L 353.563238 0.128454 
L 364.031389 -4.663996 
L 368.652987 -0.791694 
L 376.48265 -0.789654 
L 366.467204 12.209214 
L 366.604138 53.951758 
L 373.389288 63.404881 
L 365.363943 67.980414 
L 362.534515 72.761519 
L 358.23961 73.601456 
L 356.614167 81.675272 
L 352.934375 86.298703 
L 350.697944 93.923102 
L 346.083794 97.707285 
L 329.636626 86.25241 
L 328.855015 79.604766 
L 285.368786 55.002653 
z
" clip-path="url(#p8507b860b2)" style="fill: #e8edf4; stroke: #b8c5d4; stroke-width: 0.45"/>
    <path d="M 84.165252 371.573914 
L 89.654523 365.906997 
L 94.179766 369.044231 
L 96.111374 373.943716 
L 108.457199 376.945346 
L 114.613236 376.108632 
L 124.841518 370.249265 
L 124.853361 327.927994 
L 127.946775 329.648795 
L 134.740562 340.536736 
L 133.684751 347.518828 
L 136.241673 351.541925 
L 144.449525 350.373012 
L 155.606305 341.812237 
L 158.410748 336.323558 
L 164.000685 333.667746 
L 168.830296 335.059309 
L 174.30417 338.268785 
L 183.630601 338.835477 
L 190.958511 336.16723 
L 194.132459 327.109637 
L 200.367252 326.19239 
L 203.812406 321.88802 
L 207.628248 314.252189 
L 217.916338 305.697336 
L 234.130116 297.258544 
L 238.792147 297.383489 
L 244.336488 299.324571 
L 248.197927 297.948996 
L 254.288826 299.094223 
L 262.759002 323.363076 
L 260.717254 336.138214 
L 261.695493 340.252502 
L 255.913105 338.153907 
L 252.600594 338.970488 
L 251.518728 342.307278 
L 248.389785 346.609279 
L 248.496965 350.571384 
L 255.335755 356.782491 
L 262.042495 355.54548 
L 264.375583 350.456506 
L 273.066633 350.552435 
L 270.203566 358.894113 
L 268.849901 368.414771 
L 265.884985 373.587239 
L 255.826059 381.030619 
L 241.27505 400.949507 
L 220.236991 419.64678 
L 211.583839 424.860699 
L 199.607518 429.306594 
L 193.765915 429.903486 
L 192.287306 433.084539 
L 185.322978 431.390977 
L 179.650732 433.571882 
L 167.231479 431.363738 
L 160.289061 432.761222 
L 155.544721 432.16137 
L 143.726504 436.684837 
L 133.943522 438.499198 
L 126.864317 442.830215 
L 121.652175 443.105567 
L 116.803615 439.019702 
L 112.930926 438.810079 
L 107.995911 433.694458 
L 107.454682 435.283208 
L 105.931661 432.203413 
L 105.995614 425.48483 
L 102.27274 417.805772 
L 105.970743 415.718428 
L 105.671113 406.923752 
L 98.167333 396.199245 
z
M 206.251489 386.461859 
L 214.847202 395.275484 
L 218.947278 394.136771 
L 221.054164 390.475481 
L 227.440548 388.68599 
L 232.903764 379.373771 
L 223.926112 372.385166 
L 218.570668 374.722399 
L 212.36193 379.205599 
z
" clip-path="url(#p8507b860b2)" style="fill: #e8edf4; stroke: #b8c5d4; stroke-width: 0.45"/>
    <path d="M 206.251489 386.461859 
L 212.36193 379.205599 
L 218.570668 374.722399 
L 223.926112 372.385166 
L 232.903764 379.373771 
L 227.440548 388.68599 
L 221.054164 390.475481 
L 218.947278 394.136771 
L 214.847202 395.275484 
z
" clip-path="url(#p8507b860b2)" style="fill: #e8edf4; stroke: #b8c5d4; stroke-width: 0.45"/>
    <path d="M 186.369907 247.357698 
L 199.177614 248.612473 
L 202.899896 249.932385 
L 206.769032 249.666507 
L 213.11515 242.250366 
L 223.080516 232.82623 
L 227.182369 231.924971 
L 228.575708 227.952208 
L 235.100065 223.38729 
L 243.779271 221.818673 
L 244.520648 226.093435 
L 254.078611 225.865456 
L 259.389051 228.283814 
L 261.858927 231.119049 
L 267.31563 231.951618 
L 273.267373 235.633634 
L 273.292835 250.136678 
L 271.058637 258.07806 
L 270.567149 266.641204 
L 272.408749 270.035432 
L 271.1143 276.781255 
L 269.383433 277.824039 
L 266.361669 286.088145 
L 254.288826 299.094223 
L 248.197927 297.948996 
L 244.336488 299.324571 
L 238.792147 297.383489 
L 234.130116 297.258544 
L 226.824708 292.080746 
L 217.96371 290.322048 
L 214.593168 283.05513 
L 214.564744 279.013084 
L 209.657561 277.780811 
L 196.689381 265.193979 
L 193.086714 258.563034 
L 190.780865 256.518917 
z
" clip-path="url(#p8507b860b2)" style="fill: #e8edf4; stroke: #b8c5d4; stroke-width: 0.45"/>
    <path d="M 124.849808 294.483709 
L 136.14456 294.084597 
L 136.48268 253.266806 
L 145.012664 252.887827 
L 162.680181 248.875981 
L 167.059162 253.599596 
L 174.374045 249.108698 
L 177.849991 249.083235 
L 184.309802 246.501442 
L 186.369907 247.357698 
L 190.780865 256.518917 
L 193.086714 258.563034 
L 196.689381 265.193979 
L 209.657561 277.780811 
L 214.564744 279.013084 
L 214.593168 283.05513 
L 217.96371 290.322048 
L 226.824708 292.080746 
L 234.130116 297.258544 
L 217.916338 305.697336 
L 207.628248 314.252189 
L 203.812406 321.88802 
L 200.367252 326.19239 
L 194.132459 327.109637 
L 190.958511 336.16723 
L 183.630601 338.835477 
L 174.30417 338.268785 
L 168.830296 335.059309 
L 164.000685 333.667746 
L 158.410748 336.323558 
L 155.606305 341.812237 
L 144.449525 350.373012 
L 136.241673 351.541925 
L 133.684751 347.518828 
L 134.740562 340.536736 
L 127.946775 329.648795 
L 124.853361 327.927994 
z
" clip-path="url(#p8507b860b2)" style="fill: #e8edf4; stroke: #b8c5d4; stroke-width: 0.45"/>
    <path d="M 31.330873 242.377087 
L 43.705122 238.245627 
L 51.133698 238.587892 
L 57.964791 243.769242 
L 59.697434 242.963912 
L 106.147205 242.469463 
L 114.086811 247.959919 
L 141.82865 249.581829 
L 172.271304 242.307805 
L 179.702249 242.967465 
L 184.22394 245.550442 
L 184.309802 246.501442 
L 177.849991 249.083235 
L 174.374045 249.108698 
L 167.059162 253.599596 
L 162.680181 248.875981 
L 145.012664 252.887827 
L 136.48268 253.266806 
L 136.14456 294.084597 
L 124.849808 294.483709 
L 124.841518 370.249265 
L 114.613236 376.108632 
L 108.457199 376.945346 
L 96.111374 373.943716 
L 94.179766 369.044231 
L 89.654523 365.906997 
L 84.165252 371.573914 
L 75.64948 362.91721 
L 71.165095 354.548885 
L 61.971307 317.445678 
L 61.714312 303.736713 
L 60.247546 297.486523 
L 55.789216 292.7635 
L 49.874778 283.296137 
L 41.350124 262.355191 
L 32.026654 251.168803 
z
" clip-path="url(#p8507b860b2)" style="fill: #e8edf4; stroke: #b8c5d4; stroke-width: 0.45"/>
    <path d="M -5.857604 -7.398056 
L -5.726146 -10.564897 
L -2.778402 -18.674155 
L 2.671787 -29.729973 
L 5.989628 -29.833007 
L 12.814206 -36.539748 
L 17.158251 -36.729829 
L 23.591415 -32.021018 
L 31.463515 -35.88216 
L 32.535315 -40.645154 
L 35.10941 -45.260405 
L 36.884688 -51.05878 
L 43.012894 -55.779138 
L 45.325256 -63.800461 
L 47.75605 -66.354127 
L 52.400909 -79.622825 
L 62.054209 -88.489744 
L 63.908244 -94.36806 
L 59.372342 -98.93209 
L 59.741254 -102.580353 
L 62.975601 -103.237644 
L 67.53134 -95.899989 
L 68.2967 -88.297294 
L 67.877454 -80.685742 
L 74.114616 -70.269747 
L 67.714612 -70.38196 
L 64.481449 -69.565972 
L 59.25924 -70.71712 
L 56.769823 -65.309862 
L 63.53341 -58.622071 
L 68.524087 -56.676844 
L 73.750441 -44.034349 
L 66.192775 -29.317537 
L 63.442811 -27.237299 
L 62.558724 -18.354392 
L 63.699213 -13.528334 
L 62.776045 -10.113676 
L 68.191296 -4.12966 
L 69.168351 -0.015668 
L 73.398702 5.897882 
L 78.639268 9.584931 
L 80.359476 18.132086 
L 79.535197 24.319507 
L 61.165385 18.587749 
L 45.277884 17.513581 
L 38.494756 18.989526 
L 31.531021 17.454662 
L 26.08557 18.207586 
L 7.438629 17.94615 
L 9.112057 8.89892 
L 4.633594 1.323193 
L -0.594537 -0.620257 
L -2.922887 -5.754828 
z
" clip-path="url(#p8507b860b2)" style="fill: #e8edf4; stroke: #b8c5d4; stroke-width: 0.45"/>
    <path d="M 62.558724 -18.354392 
L 63.442811 -27.237299 
L 66.192775 -29.317537 
L 71.955621 -40.930276 
L 81.429499 -41.791564 
L 83.541713 -44.739013 
L 85.439568 -44.515178 
L 88.302042 -41.920358 
L 102.728106 -46.304373 
L 113.569268 -54.783727 
L 112.4347 -58.817482 
L 115.666086 -59.870925 
L 126.731675 -59.158859 
L 137.516582 -64.467523 
L 145.800821 -76.969974 
L 151.614 -81.608911 
L 158.867891 -83.562724 
L 160.167078 -78.659094 
L 166.776112 -71.494915 
L 166.809865 -66.819264 
L 164.948132 -62.050645 
L 165.68418 -58.489429 
L 184.659173 -45.550264 
L 184.764577 -41.825909 
L 192.470873 -35.858474 
L 197.246598 -30.90007 
L 200.139864 -24.026046 
L 208.705377 -19.491032 
L 210.548161 -15.858461 
L 206.764887 -14.642768 
L 190.795669 -16.112199 
L 186.536895 -15.130407 
L 184.818463 -12.344025 
L 181.108024 -12.000279 
L 176.587517 -14.424263 
L 163.830144 -8.705237 
L 158.607935 -9.856089 
L 157.033989 -8.97289 
L 153.607784 -2.052975 
L 136.676907 -5.417596 
L 129.378605 -9.644689 
L 119.949139 -13.538993 
L 113.813236 -9.848983 
L 109.351945 -4.031066 
L 108.321596 3.960353 
L 100.951643 3.320826 
L 93.195606 1.395732 
L 86.36629 7.468275 
L 80.359476 18.132086 
L 78.639268 9.584931 
L 73.398702 5.897882 
L 69.168351 -0.015668 
L 68.191296 -4.12966 
L 62.776045 -10.113676 
L 63.699213 -13.528334 
z
" clip-path="url(#p8507b860b2)" style="fill: #e8edf4; stroke: #b8c5d4; stroke-width: 0.45"/>
    <path d="M 23.992304 89.709631 
L 32.716514 83.38483 
L 28.395564 75.807623 
L 32.3251 72.9262 
L 40.056859 71.522795 
L 40.968777 66.444479 
L 47.091653 71.947369 
L 57.207425 72.429383 
L 60.723046 67.014724 
L 62.169679 59.396066 
L 60.920233 50.449206 
L 55.49906 43.672592 
L 60.460129 30.401228 
L 57.600024 28.123803 
L 49.074185 29.05763 
L 45.871223 23.136679 
L 46.704384 18.138304 
L 61.165385 18.587749 
L 79.535197 24.319507 
L 80.359476 18.132086 
L 86.36629 7.468275 
L 93.195606 1.395732 
L 100.951643 3.320826 
L 108.321596 3.960353 
L 107.642395 10.88086 
L 104.210269 17.008178 
L 101.970741 24.157257 
L 100.542465 34.311816 
L 101.142317 40.805972 
L 99.274662 44.782289 
L 98.989244 48.984808 
L 97.672292 52.640177 
L 90.127654 58.1632 
L 84.877021 64.065795 
L 79.900556 75.197704 
L 80.284272 84.625394 
L 63.97042 101.070112 
L 59.689736 99.040207 
L 58.955465 95.796385 
L 52.713566 95.683284 
L 48.794689 100.069963 
L 45.784176 98.902827 
L 41.489873 94.971514 
L 38.027546 96.898977 
L 33.402229 101.846426 
z
" clip-path="url(#p8507b860b2)" style="fill: #e8edf4; stroke: #b8c5d4; stroke-width: 0.45"/>
    <path d="M -2.314745 56.850986 
L -1.947017 53.044026 
L 0.554835 49.380367 
L 5.647955 32.541866 
L 26.184459 31.997084 
L 26.08557 18.207586 
L 31.531021 17.454662 
L 38.494756 18.989526 
L 45.277884 17.513581 
L 46.704384 18.138304 
L 45.871223 23.136679 
L 49.074185 29.05763 
L 57.600024 28.123803 
L 60.460129 30.401228 
L 55.49906 43.672592 
L 60.920233 50.449206 
L 62.169679 59.396066 
L 60.723046 67.014724 
L 57.207425 72.429383 
L 47.091653 71.947369 
L 40.968777 66.444479 
L 40.056859 71.522795 
L 32.3251 72.9262 
L 28.395564 75.807623 
L 32.716514 83.38483 
L 23.992304 89.709631 
L 12.216723 78.143672 
L 4.643661 68.688152 
z
" clip-path="url(#p8507b860b2)" style="fill: #e8edf4; stroke: #b8c5d4; stroke-width: 0.45"/>
    <path d="M 3.501987 30.81396 
L 7.438629 17.94615 
L 26.08557 18.207586 
L 26.184459 31.997084 
L 5.647955 32.541866 
z
" clip-path="url(#p8507b860b2)" style="fill: #e8edf4; stroke: #b8c5d4; stroke-width: 0.45"/>
    <path d="M 147.680319 228.379151 
L 148.207928 191.918431 
L 172.068196 192.062917 
L 171.091733 188.107326 
L 172.798914 183.815391 
L 170.784997 178.440999 
L 172.088329 172.88363 
L 170.877373 169.325967 
L 174.830003 169.614346 
L 175.487295 173.176154 
L 180.857542 172.899618 
L 188.133343 173.956614 
L 191.962805 179.159282 
L 201.138829 180.757506 
L 208.144015 177.140035 
L 210.715149 183.144481 
L 219.496206 184.745666 
L 228.424709 195.935014 
L 237.194515 196.029759 
L 236.236409 183.673274 
L 233.091477 185.757065 
L 221.984438 179.258764 
L 225.438474 154.18991 
L 222.873854 149.136464 
L 226.139585 141.821582 
L 229.21109 140.451929 
L 244.602365 138.517953 
L 249.116292 139.683888 
L 253.903145 142.601008 
L 265.752934 146.448676 
L 272.255973 149.889093 
L 277.664711 155.001161 
L 280.578703 164.727888 
L 278.62637 167.833146 
L 276.322889 177.122271 
L 278.524519 186.616874 
L 274.918891 190.605625 
L 271.439985 201.250784 
L 277.465747 204.218661 
L 242.69326 213.663523 
L 243.779271 221.818673 
L 235.100065 223.38729 
L 228.575708 227.952208 
L 227.182369 231.924971 
L 223.080516 232.82623 
L 213.11515 242.250366 
L 206.769032 249.666507 
L 202.899896 249.932385 
L 199.177614 248.612473 
L 186.369907 247.357698 
L 179.702249 242.967465 
L 172.271304 242.307805 
L 162.888619 244.9121 
L 155.410894 237.754138 
z
" clip-path="url(#p8507b860b2)" style="fill: #e8edf4; stroke: #b8c5d4; stroke-width: 0.45"/>
    <path d="M 271.439985 201.250784 
L 274.918891 190.605625 
L 278.524519 186.616874 
L 276.322889 177.122271 
L 278.62637 167.833146 
L 280.578703 164.727888 
L 277.664711 155.001161 
L 272.255973 149.889093 
L 283.48963 152.026759 
L 289.680637 160.538992 
L 292.888999 176.123306 
L 289.680707 184.83212 
L 292.888999 199.728355 
L 296.867092 199.561368 
L 301.001514 203.255819 
L 305.801517 211.543019 
L 306.776203 226.277003 
L 301.816318 228.690032 
L 298.318462 236.640888 
L 290.841329 229.562275 
L 289.993364 221.484698 
L 292.404025 216.157085 
L 291.739035 211.56552 
L 287.214976 208.665741 
L 284.062347 209.718591 
L 277.465747 204.218661 
z
" clip-path="url(#p8507b860b2)" style="fill: #e8edf4; stroke: #b8c5d4; stroke-width: 0.45"/>
    <path d="M 242.69326 213.663523 
L 277.465747 204.218661 
L 284.062347 209.718591 
L 287.214976 208.665741 
L 291.739035 211.56552 
L 292.404025 216.157085 
L 289.993364 221.484698 
L 290.841329 229.562275 
L 298.318462 236.640888 
L 301.816318 228.690032 
L 306.776203 226.277003 
L 305.801517 211.543019 
L 301.001514 203.255819 
L 296.867092 199.561368 
L 292.888999 199.728355 
L 289.680707 184.83212 
L 292.888999 176.123306 
L 301.510766 175.196585 
L 315.280724 178.425603 
L 318.272287 176.977193 
L 326.249265 176.681812 
L 330.332639 173.24449 
L 337.207015 173.432557 
L 349.736658 168.982816 
L 358.853217 162.339138 
L 360.707252 167.476669 
L 360.235897 178.892812 
L 361.651738 188.947593 
L 362.096446 206.855525 
L 364.111547 212.467964 
L 356.24833 228.613644 
L 348.952396 235.719496 
L 325.559931 245.636897 
L 312.613068 257.935943 
L 308.203887 260.028024 
L 300.204474 268.170146 
L 295.483227 270.819445 
L 294.515055 278.98999 
L 299.949255 287.668012 
L 302.210101 294.388372 
L 302.352426 297.816446 
L 304.37718 297.243501 
L 304.049332 308.482237 
L 302.191152 313.805705 
L 304.891968 315.767512 
L 303.187748 320.534947 
L 298.397811 324.611338 
L 275.164635 334.686252 
L 270.139021 338.923116 
L 271.121406 343.750358 
L 274.050201 344.521343 
L 273.066633 350.552435 
L 264.375583 350.456506 
L 260.717254 336.138214 
L 262.759002 323.363076 
L 254.288826 299.094223 
L 266.361669 286.088145 
L 269.383433 277.824039 
L 271.1143 276.781255 
L 272.408749 270.035432 
L 270.567149 266.641204 
L 271.058637 258.07806 
L 273.292835 250.136678 
L 273.267373 235.633634 
L 267.31563 231.951618 
L 261.858927 231.119049 
L 259.389051 228.283814 
L 254.078611 225.865456 
L 244.520648 226.093435 
z
" clip-path="url(#p8507b860b2)" style="fill: #e8edf4; stroke: #b8c5d4; stroke-width: 0.45"/>
    <path d="M 248.389785 346.609279 
L 251.518728 342.307278 
L 252.600594 338.970488 
L 255.913105 338.153907 
L 261.695493 340.252502 
L 264.375583 350.456506 
L 262.042495 355.54548 
L 255.335755 356.782491 
L 248.496965 350.571384 
z
" clip-path="url(#p8507b860b2)" style="fill: #e8edf4; stroke: #b8c5d4; stroke-width: 0.45"/>
    <path d="M 30.25256 235.172345 
L 31.838941 225.096247 
L 35.792756 214.605641 
L 36.389055 209.687799 
L 40.107192 199.358259 
L 42.8388 194.662475 
L 53.097282 182.066167 
L 54.30054 173.577635 
L 53.700687 167.082886 
L 50.27389 162.986362 
L 44.407417 149.159558 
L 45.022665 146.777914 
L 48.544799 142.234906 
L 42.722146 123.493813 
L 36.981802 116.244067 
L 38.071366 114.016975 
L 50.139471 111.314382 
L 83.953853 111.465974 
L 90.069031 126.876198 
L 97.090797 136.573318 
L 104.668004 135.646596 
L 108.448909 134.034752 
L 114.780816 135.65311 
L 119.372973 126.109951 
L 126.480009 125.662282 
L 127.097626 123.676788 
L 132.943966 123.633561 
L 131.946186 127.762061 
L 145.84997 127.661987 
L 146.060185 134.872058 
L 148.382614 139.293083 
L 146.694382 146.200563 
L 147.535241 153.247792 
L 151.357597 157.500052 
L 150.744718 171.136183 
L 165.658717 168.650319 
L 170.877373 169.325967 
L 172.088329 172.88363 
L 170.784997 178.440999 
L 172.798914 183.815391 
L 171.091733 188.107326 
L 172.068196 192.062917 
L 148.207928 191.918431 
L 147.680319 228.379151 
L 155.410894 237.754138 
L 162.888619 244.9121 
L 141.82865 249.581829 
L 114.086811 247.959919 
L 106.147205 242.469463 
L 59.697434 242.963912 
L 57.964791 243.769242 
L 51.133698 238.587892 
L 43.705122 238.245627 
L 31.330873 242.377087 
z
" clip-path="url(#p8507b860b2)" style="fill: #e8edf4; stroke: #b8c5d4; stroke-width: 0.45"/>
    <path d="M 33.402229 101.846426 
L 38.027546 96.898977 
L 41.489873 94.971514 
L 45.784176 98.902827 
L 41.614225 101.311119 
L 39.739464 104.257087 
L 39.380619 109.252501 
L 36.466035 110.462864 
z
" clip-path="url(#p8507b860b2)" style="fill: #e8edf4; stroke: #b8c5d4; stroke-width: 0.45"/>
    <path d="M 229.463347 76.651443 
L 236.421753 77.55211 
L 239.930268 71.027754 
L 246.018542 71.776797 
L 246.683001 76.288908 
L 249.150672 78.886523 
L 249.256437 82.610661 
L 237.812132 95.136133 
L 233.073712 95.681508 
L 232.34477 81.861217 
z
" clip-path="url(#p8507b860b2)" style="fill: #e8edf4; stroke: #b8c5d4; stroke-width: 0.45"/>
    <path d="M 392.514822 296.870091 
L 394.567229 288.608946 
L 399.842732 286.624636 
L 399.873524 282.81057 
L 405.35036 274.123666 
L 406.382485 266.825364 
L 401.553466 254.173986 
L 400.637996 243.615282 
L 404.641551 237.204619 
L 406.1776 229.936517 
L 411.888928 229.514311 
L 422.523428 225.092102 
L 427.55674 224.938142 
L 434.08761 218.408456 
L 443.517668 211.351161 
L 446.956308 205.586538 
L 445.395982 200.689422 
L 450.26349 202.066773 
L 456.580001 194.104073 
L 456.7914 187.213765 
L 460.585925 182.088077 
L 467.625456 191.88231 
L 470.461875 199.450635 
L 472.305844 213.235988 
L 475.274906 218.595577 
L 474.135601 224.090769 
L 472.109248 227.461904 
L 468.217018 220.746874 
L 466.06276 224.138141 
L 468.248402 232.627266 
L 467.231081 237.485892 
L 464.068977 240.132822 
L 463.347141 249.838824 
L 446.103014 300.698369 
L 441.713966 316.631466 
L 436.534984 329.920001 
L 427.215659 332.633845 
L 417.212396 337.480628 
L 401.516161 330.455309 
L 398.354056 324.408821 
L 397.597875 314.249821 
L 393.562936 305.114656 
z
" clip-path="url(#p8507b860b2)" style="fill: #e8edf4; stroke: #b8c5d4; stroke-width: 0.45"/>
    <path d="M 274.488216 -45.090372 
L 278.391342 -51.617468 
L 284.472573 -51.899128 
L 286.185447 -55.398672 
L 286.032356 -65.700439 
L 289.422239 -77.692278 
L 294.850313 -80.901683 
L 296.001702 -85.585961 
L 300.91596 -94.339404 
L 307.827272 -100.016365 
L 312.486341 -111.303941 
L 314.311627 -121.144603 
L 327.652749 -118.749581 
L 331.231359 -127.301691 
L 338.185528 -122.099815 
L 344.905592 -124.794602 
L 347.669589 -122.398663 
L 355.52626 -122.261615 
L 365.499501 -117.667175 
L 368.462769 -113.710307 
L 373.543181 -110.029254 
L 378.25496 -103.311253 
L 382.171722 -99.603272 
L 374.267382 -89.163883 
L 375.342341 -82.514406 
L 381.742931 -82.322928 
L 384.502116 -83.135478 
L 387.045093 -81.093144 
L 384.546003 -77.033277 
L 393.005297 -65.206561 
L 397.379841 -61.116885 
L 434.8457 -47.518625 
L 444.48354 -47.588753 
L 412.10279 -13.196282 
L 397.174956 -12.691289 
L 386.962797 -4.613233 
L 379.616963 -4.401702 
L 376.48265 -0.789654 
L 368.652987 -0.791694 
L 364.031389 -4.663996 
L 353.563238 0.128454 
L 350.176499 4.903716 
L 342.534863 4.002131 
L 339.998209 2.680577 
L 333.693244 2.880707 
L 319.188336 -6.850857 
L 311.212784 -6.850857 
L 307.298074 -10.621994 
L 307.298074 -17.053482 
L 301.345864 -18.975915 
L 294.57381 -31.445704 
L 289.340537 -34.102447 
L 287.332711 -38.684626 
L 281.525233 -44.269572 
z
" clip-path="url(#p8507b860b2)" style="fill: #e8edf4; stroke: #b8c5d4; stroke-width: 0.45"/>
    <path d="M 235.817756 59.486665 
L 235.913685 50.847726 
L 238.568313 46.469337 
L 239.213169 37.271403 
L 241.623829 31.94379 
L 246.005179 25.968065 
L 250.407254 22.924688 
L 254.091047 18.855995 
L 249.498297 17.304255 
L 250.191625 3.905514 
L 254.909335 0.78035 
L 262.195926 3.342901 
L 271.419985 0.660949 
L 279.482228 0.687533 
L 286.529443 -4.582236 
L 291.962445 3.373496 
L 298.34344 22.277908 
L 294.173666 30.63029 
L 285.252568 42.85837 
L 285.368786 55.002653 
L 249.458343 55.742324 
L 238.591407 60.655578 
z
" clip-path="url(#p8507b860b2)" style="fill: #e8edf4; stroke: #b8c5d4; stroke-width: 0.45"/>
    <path d="M 229.463347 76.651443 
L 230.523896 70.382898 
L 232.097842 69.499403 
L 232.522417 62.680746 
L 235.817756 59.486665 
L 238.591407 60.655578 
L 245.439079 57.11864 
L 249.988601 63.584374 
L 249.325981 70.326051 
L 246.018542 71.776797 
L 239.930268 71.027754 
L 236.421753 77.55211 
z
" clip-path="url(#p8507b860b2)" style="fill: #e8edf4; stroke: #b8c5d4; stroke-width: 0.45"/>
    <path d="M 170.588201 -54.655789 
L 178.041468 -58.068335 
L 180.992253 -68.297721 
L 184.139756 -73.609133 
L 192.401952 -75.182884 
L 200.270711 -65.346936 
L 203.418214 -64.363342 
L 207.549312 -66.330531 
L 215.811508 -65.937093 
L 217.38526 -63.576466 
L 228.79496 -63.576466 
L 229.188398 -65.937093 
L 235.089966 -68.101002 
L 236.27028 -71.445224 
L 240.598097 -73.805852 
L 250.237326 -67.117407 
L 256.138895 -68.297721 
L 261.843745 -76.559917 
L 268.138751 -82.854924 
L 267.155157 -89.740087 
L 264.401091 -93.08431 
L 271.286255 -93.674467 
L 272.073131 -96.231813 
L 277.384543 -95.444937 
L 276.00751 -86.986022 
L 277.384543 -78.723826 
L 283.286111 -74.19929 
L 284.663144 -70.26491 
L 284.466425 -64.560061 
L 286.052671 -64.333454 
L 286.185447 -55.398672 
L 284.472573 -51.899128 
L 278.391342 -51.617468 
L 274.488216 -45.090372 
L 281.525233 -44.269572 
L 287.332711 -38.684626 
L 289.340537 -34.102447 
L 294.57381 -31.445704 
L 301.345864 -18.975915 
L 286.529443 -4.582236 
L 279.482228 0.687533 
L 271.419985 0.660949 
L 262.195926 3.342901 
L 254.909335 0.78035 
L 250.191625 3.905514 
L 240.103769 -3.70923 
L 237.382227 -8.603386 
L 231.00058 -6.179402 
L 225.701983 -6.933511 
L 222.634624 -5.009305 
L 217.489394 -6.398795 
L 208.705377 -19.491032 
L 200.139864 -24.026046 
L 197.246598 -30.90007 
L 192.470873 -35.858474 
L 184.764577 -41.825909 
L 184.659173 -45.550264 
z
" clip-path="url(#p8507b860b2)" style="fill: #e8edf4; stroke: #b8c5d4; stroke-width: 0.45"/>
   </g>
   <g id="PathCollection_1">
    <defs>
     <path id="m38c11c0b6e" d="M 0 2.12132 
C 0.562581 2.12132 1.102195 1.897805 1.5 1.5 
C 1.897805 1.102195 2.12132 0.562581 2.12132 0 
C 2.12132 -0.562581 1.897805 -1.102195 1.5 -1.5 
C 1.102195 -1.897805 0.562581 -2.12132 0 -2.12132 
C -0.562581 -2.12132 -1.102195 -1.897805 -1.5 -1.5 
C -1.897805 -1.102195 -2.12132 -0.562581 -2.12132 0 
C -2.12132 0.562581 -1.897805 1.102195 -1.5 1.5 
C -1.102195 1.897805 -0.562581 2.12132 0 2.12132 
z
" style="stroke: #ffffff; stroke-width: 0.5"/>
    </defs>
    <g clip-path="url(#p8507b860b2)">
     <use xlink:href="#m38c11c0b6e" x="240.636605" y="84.222812" style="fill: #8aa0b7; stroke: #ffffff; stroke-width: 0.5"/>
     <use xlink:href="#m38c11c0b6e" x="11.458886" y="21.198939" style="fill: #8aa0b7; stroke: #ffffff; stroke-width: 0.5"/>
     <use xlink:href="#m38c11c0b6e" x="403.925729" y="183.533156" style="fill: #8aa0b7; stroke: #ffffff; stroke-width: 0.5"/>
     <use xlink:href="#m38c11c0b6e" x="223.448276" y="382.153846" style="fill: #8aa0b7; stroke: #ffffff; stroke-width: 0.5"/>
     <use xlink:href="#m38c11c0b6e" x="240.636605" y="67.034483" style="fill: #8aa0b7; stroke: #ffffff; stroke-width: 0.5"/>
     <use xlink:href="#m38c11c0b6e" x="257.824934" y="347.777188" style="fill: #8aa0b7; stroke: #ffffff; stroke-width: 0.5"/>
     <use xlink:href="#m38c11c0b6e" x="414.429708" y="191.172414" style="fill: #8aa0b7; stroke: #ffffff; stroke-width: 0.5"/>
    </g>
   </g>
   <g id="PatchCollection_2">
    <defs>
     <path id="mca77cab587" d="M 147.680319 -203.620849 
L 148.207928 -240.081569 
L 172.068196 -239.937083 
L 171.091733 -243.892674 
L 172.798914 -248.184609 
L 170.784997 -253.559001 
L 172.088329 -259.11637 
L 170.877373 -262.674033 
L 174.830003 -262.385654 
L 175.487295 -258.823846 
L 180.857542 -259.100382 
L 188.133343 -258.043386 
L 191.962805 -252.840718 
L 201.138829 -251.242494 
L 208.144015 -254.859965 
L 210.715149 -248.855519 
L 219.496206 -247.254334 
L 228.424709 -236.064986 
L 237.194515 -235.970241 
L 236.236409 -248.326726 
L 233.091477 -246.242935 
L 221.984438 -252.741236 
L 225.438474 -277.81009 
L 222.873854 -282.863536 
L 226.139585 -290.178418 
L 229.21109 -291.548071 
L 244.602365 -293.482047 
L 249.116292 -292.316112 
L 253.903145 -289.398992 
L 265.752934 -285.551324 
L 272.255973 -282.110907 
L 277.664711 -276.998839 
L 280.578703 -267.272112 
L 278.62637 -264.166854 
L 276.322889 -254.877729 
L 278.524519 -245.383126 
L 274.918891 -241.394375 
L 271.439985 -230.749216 
L 277.465747 -227.781339 
L 242.69326 -218.336477 
L 243.779271 -210.181327 
L 235.100065 -208.61271 
L 228.575708 -204.047792 
L 227.182369 -200.075029 
L 223.080516 -199.17377 
L 213.11515 -189.749634 
L 206.769032 -182.333493 
L 202.899896 -182.067615 
L 199.177614 -183.387527 
L 186.369907 -184.642302 
L 179.702249 -189.032535 
L 172.271304 -189.692195 
L 162.888619 -187.0879 
L 155.410894 -194.245862 
z
" style="stroke: #b45309; stroke-width: 1.15"/>
    </defs>
    <g clip-path="url(#p8507b860b2)">
     <use xlink:href="#mca77cab587" x="0" y="432" style="fill: #f59e0b; stroke: #b45309; stroke-width: 1.15"/>
    </g>
   </g>
   <g id="PathCollection_2">
    <path d="M 240.636605 220.135215 
C 241.733277 220.135215 242.785179 219.699502 243.560643 218.924038 
C 244.336107 218.148574 244.771819 217.096672 244.771819 216 
C 244.771819 214.903328 244.336107 213.851426 243.560643 213.075962 
C 242.785179 212.300498 241.733277 211.864785 240.636605 211.864785 
C 239.539933 211.864785 238.48803 212.300498 237.712566 213.075962 
C 236.937102 213.851426 236.50139 214.903328 236.50139 216 
C 236.50139 217.096672 236.937102 218.148574 237.712566 218.924038 
C 238.48803 219.699502 239.539933 220.135215 240.636605 220.135215 
L 240.636605 220.135215 
z
" clip-path="url(#p8507b860b2)" style="fill: none; stroke: #7c2d12; stroke-width: 1.1"/>
   </g>
  </g>
 </g>
 <defs>
  <clipPath id="p8507b860b2">
   <rect x="0" y="0" width="481.27321" height="432"/>
  </clipPath>
 </defs>
</svg>
