<svg width="512" height="512" viewBox="0 0 512 512" xmlns="http://www.w3.org/2000/svg">
  <defs>
    <linearGradient id="bg" x1="44" y1="42" x2="470" y2="470" gradientUnits="userSpaceOnUse">
      <stop stop-color="#0C4A6E"/>
      <stop offset="1" stop-color="#06B6D4"/>
    </linearGradient>
    <filter id="s" x="-20%" y="-20%" width="140%" height="140%">
      <feDropShadow dx="0" dy="18" stdDeviation="18" flood-color="#020617" flood-opacity=".34"/>
    </filter>
  </defs>
  <rect width="512" height="512" rx="92" fill="#EAF8FF"/>
  <rect x="28" y="28" width="456" height="456" rx="78" fill="url(#bg)"/>
  <circle cx="92" cy="96" r="44" fill="white" opacity=".14"/>
  <circle cx="420" cy="402" r="80" fill="white" opacity=".10"/>
  <g filter="url(#s)"><path d="M190 118c46-22 98 8 126 42 24 28 72 34 78 78 8 56-42 90-82 116-46 30-110 54-154 16-36-32-24-88-10-132 14-42 4-94 42-120z" fill="white"/><circle cx="258" cy="252" r="34" fill="#EF4444"/></g>
</svg>