<svg width="512" height="512" viewBox="0 0 512 512" fill="none" xmlns="http://www.w3.org/2000/svg">
  <defs>
    <linearGradient id="bg" x1="52" y1="40" x2="458" y2="470" gradientUnits="userSpaceOnUse"><stop stop-color="#1E3A8A"/><stop offset="1" stop-color="#38BDF8"/></linearGradient>
    <radialGradient id="shine" cx="0" cy="0" r="1" gradientUnits="userSpaceOnUse" gradientTransform="translate(150 118) rotate(55) scale(430)"><stop stop-color="white" stop-opacity="0.48"/><stop offset="0.45" stop-color="white" stop-opacity="0.08"/><stop offset="1" stop-color="white" stop-opacity="0"/></radialGradient>
    <filter id="shadow" x="-20%" y="-20%" width="140%" height="140%"><feDropShadow dx="0" dy="20" stdDeviation="18" flood-color="#020617" flood-opacity="0.32"/></filter>
  </defs>
  <rect width="512" height="512" rx="92" fill="#EAF8FF"/>
  <rect x="28" y="28" width="456" height="456" rx="78" fill="url(#bg)"/>
  <rect x="28" y="28" width="456" height="456" rx="78" fill="url(#shine)"/>
  <circle cx="92" cy="96" r="38" fill="white" opacity="0.16"/>
  <circle cx="420" cy="124" r="54" fill="white" opacity="0.12"/>
  <circle cx="406" cy="402" r="76" fill="white" opacity="0.10"/>
  <path d="M68 386 C160 336 244 432 444 350" stroke="white" stroke-opacity="0.16" stroke-width="18" stroke-linecap="round"/>
  <g filter="url(#shadow)"><rect x="118" y="142" width="276" height="210" rx="34" fill="white"/><rect x="150" y="178" width="212" height="130" rx="20" fill="#0F172A" opacity=".24"/><path d="M198 386h116M256 352v34" stroke="white" stroke-width="20" stroke-linecap="round"/><circle cx="202" cy="242" r="24" fill="#38BDF8"/><circle cx="310" cy="242" r="24" fill="#FACC15"/></g>
</svg>