<svg width="512" height="512" viewBox="0 0 512 512" fill="none" xmlns="http://www.w3.org/2000/svg">
  <defs>
    <linearGradient id="bg" x1="58" y1="42" x2="454" y2="470" gradientUnits="userSpaceOnUse">
      <stop stop-color="#065F46"/>
      <stop offset="1" stop-color="#84CC16"/>
    </linearGradient>
    <radialGradient id="shine" cx="0" cy="0" r="1" gradientUnits="userSpaceOnUse" gradientTransform="translate(158 124) rotate(55) scale(420)">
      <stop stop-color="white" stop-opacity="0.48"/>
      <stop offset="0.42" stop-color="white" stop-opacity="0.08"/>
      <stop offset="1" stop-color="white" stop-opacity="0"/>
    </radialGradient>
    <filter id="shadow" x="-20%" y="-20%" width="140%" height="140%">
      <feDropShadow dx="0" dy="20" stdDeviation="18" flood-color="#020617" flood-opacity="0.32"/>
    </filter>
    <filter id="soft" x="-50%" y="-50%" width="200%" height="200%">
      <feGaussianBlur stdDeviation="8"/>
    </filter>
  </defs>

  <rect width="512" height="512" rx="92" fill="#EAF8FF"/>
  <rect x="28" y="28" width="456" height="456" rx="78" fill="url(#bg)"/>
  <rect x="28" y="28" width="456" height="456" rx="78" fill="url(#shine)"/>
  <circle cx="92" cy="94" r="36" fill="white" opacity="0.16"/>
  <circle cx="421" cy="126" r="54" fill="white" opacity="0.12"/>
  <circle cx="405" cy="400" r="74" fill="white" opacity="0.10"/>
  <path d="M70 386 C160 336 242 432 442 350" stroke="white" stroke-opacity="0.16" stroke-width="18" stroke-linecap="round"/>
  <g filter="url(#shadow)">
    
<circle cx="256" cy="246" r="122" fill="white"/>
<path d="M256 174 L312 214 L291 280 H221 L200 214 Z" fill="#111827"/>
<path d="M256 124 V174" stroke="#111827" stroke-width="14" stroke-linecap="round"/>
<path d="M142 212 L200 214" stroke="#111827" stroke-width="14" stroke-linecap="round"/>
<path d="M370 212 L312 214" stroke="#111827" stroke-width="14" stroke-linecap="round"/>
<path d="M178 330 L221 280" stroke="#111827" stroke-width="14" stroke-linecap="round"/>
<path d="M334 330 L291 280" stroke="#111827" stroke-width="14" stroke-linecap="round"/>
<path d="M162 160 C108 208 108 296 162 344" stroke="white" stroke-opacity="0.72" stroke-width="18" stroke-linecap="round"/>
<path d="M350 160 C404 208 404 296 350 344" stroke="white" stroke-opacity="0.72" stroke-width="18" stroke-linecap="round"/>
<rect x="150" y="376" width="212" height="26" rx="13" fill="white"/>

  </g>
</svg>