<svg width="512" height="512" viewBox="0 0 512 512" fill="none" xmlns="http://www.w3.org/2000/svg">
  <defs>
    <linearGradient id="bg" x1="52" y1="40" x2="458" y2="470" gradientUnits="userSpaceOnUse"><stop stop-color="#365314"/><stop offset="1" stop-color="#A3E635"/></linearGradient>
    <radialGradient id="shine" cx="0" cy="0" r="1" gradientUnits="userSpaceOnUse" gradientTransform="translate(150 118) rotate(55) scale(430)"><stop stop-color="white" stop-opacity="0.48"/><stop offset="0.45" stop-color="white" stop-opacity="0.08"/><stop offset="1" stop-color="white" stop-opacity="0"/></radialGradient>
    <filter id="shadow" x="-20%" y="-20%" width="140%" height="140%"><feDropShadow dx="0" dy="20" stdDeviation="18" flood-color="#020617" flood-opacity="0.32"/></filter>
  </defs>
  <rect width="512" height="512" rx="92" fill="#EAF8FF"/>
  <rect x="28" y="28" width="456" height="456" rx="78" fill="url(#bg)"/>
  <rect x="28" y="28" width="456" height="456" rx="78" fill="url(#shine)"/>
  <circle cx="92" cy="96" r="38" fill="white" opacity="0.16"/>
  <circle cx="420" cy="124" r="54" fill="white" opacity="0.12"/>
  <circle cx="406" cy="402" r="76" fill="white" opacity="0.10"/>
  <path d="M68 386 C160 336 244 432 444 350" stroke="white" stroke-opacity="0.16" stroke-width="18" stroke-linecap="round"/>
  <g filter="url(#shadow)"><path d="M256 386V218" stroke="white" stroke-width="24" stroke-linecap="round"/><path d="M256 248c-80-12-118-72-108-132 76 0 120 48 108 132zM256 276c80-12 118-72 108-132-76 0-120 48-108 132z" fill="white"/><circle cx="256" cy="152" r="42" fill="#FACC15"/><path d="M176 402h160" stroke="white" stroke-width="22" stroke-linecap="round"/></g>
</svg>