<svg width="512" height="512" viewBox="0 0 512 512" fill="none" xmlns="http://www.w3.org/2000/svg">
  <defs>
    <linearGradient id="bg" x1="58" y1="42" x2="454" y2="470" gradientUnits="userSpaceOnUse">
      <stop stop-color="#0E7490"/>
      <stop offset="1" stop-color="#22D3EE"/>
    </linearGradient>
    <radialGradient id="shine" cx="0" cy="0" r="1" gradientUnits="userSpaceOnUse" gradientTransform="translate(158 124) rotate(55) scale(420)">
      <stop stop-color="white" stop-opacity="0.48"/>
      <stop offset="0.42" stop-color="white" stop-opacity="0.08"/>
      <stop offset="1" stop-color="white" stop-opacity="0"/>
    </radialGradient>
    <filter id="shadow" x="-20%" y="-20%" width="140%" height="140%">
      <feDropShadow dx="0" dy="20" stdDeviation="18" flood-color="#020617" flood-opacity="0.32"/>
    </filter>
    <filter id="soft" x="-50%" y="-50%" width="200%" height="200%">
      <feGaussianBlur stdDeviation="8"/>
    </filter>
  </defs>

  <rect width="512" height="512" rx="92" fill="#EAF8FF"/>
  <rect x="28" y="28" width="456" height="456" rx="78" fill="url(#bg)"/>
  <rect x="28" y="28" width="456" height="456" rx="78" fill="url(#shine)"/>
  <circle cx="92" cy="94" r="36" fill="white" opacity="0.16"/>
  <circle cx="421" cy="126" r="54" fill="white" opacity="0.12"/>
  <circle cx="405" cy="400" r="74" fill="white" opacity="0.10"/>
  <path d="M70 386 C160 336 242 432 442 350" stroke="white" stroke-opacity="0.16" stroke-width="18" stroke-linecap="round"/>
  <g filter="url(#shadow)">
    
<circle cx="256" cy="256" r="24" fill="#FACC15"/>
<ellipse cx="256" cy="256" rx="128" ry="52" stroke="white" stroke-width="16"/>
<ellipse cx="256" cy="256" rx="128" ry="52" stroke="white" stroke-width="16" transform="rotate(60 256 256)"/>
<ellipse cx="256" cy="256" rx="128" ry="52" stroke="white" stroke-width="16" transform="rotate(120 256 256)"/>
<circle cx="354" cy="222" r="14" fill="white"/>
<circle cx="170" cy="292" r="14" fill="white"/>
<path d="M178 370 H334" stroke="white" stroke-width="24" stroke-linecap="round"/>
<path d="M206 400 H306" stroke="white" stroke-width="18" stroke-linecap="round" opacity="0.78"/>

  </g>
</svg>