<svg width="512" height="512" viewBox="0 0 512 512" fill="none" xmlns="http://www.w3.org/2000/svg">
  <defs>
    <linearGradient id="bg" x1="58" y1="42" x2="454" y2="470" gradientUnits="userSpaceOnUse">
      <stop stop-color="#1E3A8A"/>
      <stop offset="1" stop-color="#38BDF8"/>
    </linearGradient>
    <radialGradient id="shine" cx="0" cy="0" r="1" gradientUnits="userSpaceOnUse" gradientTransform="translate(158 124) rotate(55) scale(420)">
      <stop stop-color="white" stop-opacity="0.48"/>
      <stop offset="0.42" stop-color="white" stop-opacity="0.08"/>
      <stop offset="1" stop-color="white" stop-opacity="0"/>
    </radialGradient>
    <filter id="shadow" x="-20%" y="-20%" width="140%" height="140%">
      <feDropShadow dx="0" dy="20" stdDeviation="18" flood-color="#020617" flood-opacity="0.32"/>
    </filter>
    <filter id="soft" x="-50%" y="-50%" width="200%" height="200%">
      <feGaussianBlur stdDeviation="8"/>
    </filter>
  </defs>

  <rect width="512" height="512" rx="92" fill="#EAF8FF"/>
  <rect x="28" y="28" width="456" height="456" rx="78" fill="url(#bg)"/>
  <rect x="28" y="28" width="456" height="456" rx="78" fill="url(#shine)"/>
  <circle cx="92" cy="94" r="36" fill="white" opacity="0.16"/>
  <circle cx="421" cy="126" r="54" fill="white" opacity="0.12"/>
  <circle cx="405" cy="400" r="74" fill="white" opacity="0.10"/>
  <path d="M70 386 C160 336 242 432 442 350" stroke="white" stroke-opacity="0.16" stroke-width="18" stroke-linecap="round"/>
  <g filter="url(#shadow)">
    
<rect x="158" y="118" width="196" height="264" rx="34" fill="white"/>
<rect x="182" y="156" width="148" height="178" rx="20" fill="#0F172A" opacity="0.20"/>
<circle cx="256" cy="354" r="12" fill="#1E3A8A"/>
<path d="M112 206 H158" stroke="white" stroke-width="16" stroke-linecap="round"/>
<path d="M354 206 H400" stroke="white" stroke-width="16" stroke-linecap="round"/>
<path d="M112 286 H158" stroke="white" stroke-width="16" stroke-linecap="round"/>
<path d="M354 286 H400" stroke="white" stroke-width="16" stroke-linecap="round"/>
<path d="M220 226 H292" stroke="#38BDF8" stroke-width="16" stroke-linecap="round"/>
<path d="M220 268 H292" stroke="#38BDF8" stroke-width="16" stroke-linecap="round"/>
<circle cx="220" cy="226" r="8" fill="#1E3A8A"/>
<circle cx="292" cy="268" r="8" fill="#1E3A8A"/>
<path d="M230 106 H282" stroke="white" stroke-width="18" stroke-linecap="round"/>
<path d="M230 394 H282" stroke="white" stroke-width="18" stroke-linecap="round"/>

  </g>
</svg>